<?xml version="1.0" encoding="UTF-8" standalone="no"?>
<!DOCTYPE svg PUBLIC "-//W3C//DTD SVG 1.1//EN"
 "http://www.w3.org/Graphics/SVG/1.1/DTD/svg11.dtd">
<!-- Generated by graphviz version 2.43.0 (0)
 -->
<!-- Title: AttitudeEstimatorUtils.h Pages: 1 -->
<svg width="1364pt" height="610pt"
 viewBox="0.00 0.00 1364.00 610.00" xmlns="http://www.w3.org/2000/svg" xmlns:xlink="http://www.w3.org/1999/xlink">
<g id="graph0" class="graph" transform="scale(1 1) rotate(0) translate(4 606)">
<title>AttitudeEstimatorUtils.h</title>
<!-- Node1 -->
<g id="node1" class="node">
<title>Node1</title>
<g id="a_node1"><a xlink:title=" ">
<polygon fill="#bfbfbf" stroke="black" points="516,-582.5 516,-601.5 650,-601.5 650,-582.5 516,-582.5"/>
<text text-anchor="middle" x="583" y="-589.5" font-family="FreeSans.ttf" font-size="10.00">AttitudeEstimatorUtils.h</text>
</a>
</g>
</g>
<!-- Node2 -->
<g id="node2" class="node">
<title>Node2</title>
<g id="a_node2"><a xlink:href="AttitudeEstimator_8h.html" target="_top" xlink:title=" ">
<polygon fill="none" stroke="black" points="142.5,-336.5 142.5,-366.5 257.5,-366.5 257.5,-336.5 142.5,-336.5"/>
<text text-anchor="start" x="150.5" y="-354.5" font-family="FreeSans.ttf" font-size="10.00">iDynTree/Estimation</text>
<text text-anchor="middle" x="200" y="-343.5" font-family="FreeSans.ttf" font-size="10.00">/AttitudeEstimator.h</text>
</a>
</g>
</g>
<!-- Node1&#45;&gt;Node2 -->
<g id="edge1" class="edge">
<title>Node1&#45;&gt;Node2</title>
<path fill="none" stroke="midnightblue" d="M515.83,-584.42C447.32,-574.52 341.48,-550.03 272,-490 236.62,-459.43 216.12,-407.12 206.58,-376.59"/>
<polygon fill="midnightblue" stroke="midnightblue" points="209.87,-375.36 203.66,-366.77 203.16,-377.36 209.87,-375.36"/>
</g>
<!-- Node25 -->
<g id="node25" class="node">
<title>Node25</title>
<g id="a_node25"><a xlink:href="EigenHelpers_8h.html" target="_top" xlink:title=" ">
<polygon fill="none" stroke="black" points="441.5,-526.5 441.5,-545.5 602.5,-545.5 602.5,-526.5 441.5,-526.5"/>
<text text-anchor="middle" x="522" y="-533.5" font-family="FreeSans.ttf" font-size="10.00">iDynTree/Core/EigenHelpers.h</text>
</a>
</g>
</g>
<!-- Node1&#45;&gt;Node25 -->
<g id="edge41" class="edge">
<title>Node1&#45;&gt;Node25</title>
<path fill="none" stroke="midnightblue" d="M573.2,-582.32C564.18,-574.34 550.59,-562.31 539.68,-552.65"/>
<polygon fill="midnightblue" stroke="midnightblue" points="541.79,-549.84 531.98,-545.83 537.15,-555.08 541.79,-549.84"/>
</g>
<!-- Node35 -->
<g id="node35" class="node">
<title>Node35</title>
<g id="a_node35"><a xlink:title=" ">
<polygon fill="none" stroke="#bfbfbf" points="620.5,-526.5 620.5,-545.5 667.5,-545.5 667.5,-526.5 620.5,-526.5"/>
<text text-anchor="middle" x="644" y="-533.5" font-family="FreeSans.ttf" font-size="10.00">cmath</text>
</a>
</g>
</g>
<!-- Node1&#45;&gt;Node35 -->
<g id="edge77" class="edge">
<title>Node1&#45;&gt;Node35</title>
<path fill="none" stroke="midnightblue" d="M592.8,-582.32C601.82,-574.34 615.41,-562.31 626.32,-552.65"/>
<polygon fill="midnightblue" stroke="midnightblue" points="628.85,-555.08 634.02,-545.83 624.21,-549.84 628.85,-555.08"/>
</g>
<!-- Node36 -->
<g id="node36" class="node">
<title>Node36</title>
<g id="a_node36"><a xlink:title=" ">
<polygon fill="none" stroke="#bfbfbf" points="685.5,-526.5 685.5,-545.5 732.5,-545.5 732.5,-526.5 685.5,-526.5"/>
<text text-anchor="middle" x="709" y="-533.5" font-family="FreeSans.ttf" font-size="10.00">vector</text>
</a>
</g>
</g>
<!-- Node1&#45;&gt;Node36 -->
<g id="edge78" class="edge">
<title>Node1&#45;&gt;Node36</title>
<path fill="none" stroke="midnightblue" d="M602.97,-582.44C623.61,-573.6 656.06,-559.69 679.63,-549.59"/>
<polygon fill="midnightblue" stroke="midnightblue" points="681.32,-552.67 689.13,-545.52 678.56,-546.24 681.32,-552.67"/>
</g>
<!-- Node3 -->
<g id="node3" class="node">
<title>Node3</title>
<g id="a_node3"><a xlink:href="VectorFixSize_8h.html" target="_top" xlink:title=" ">
<polygon fill="none" stroke="black" points="424,-168.5 424,-187.5 586,-187.5 586,-168.5 424,-168.5"/>
<text text-anchor="middle" x="505" y="-175.5" font-family="FreeSans.ttf" font-size="10.00">iDynTree/Core/VectorFixSize.h</text>
</a>
</g>
</g>
<!-- Node2&#45;&gt;Node3 -->
<g id="edge2" class="edge">
<title>Node2&#45;&gt;Node3</title>
<path fill="none" stroke="midnightblue" d="M203.73,-336.45C211.57,-309.89 232.37,-252.42 272,-224 294.65,-207.76 358.47,-196.11 413.59,-188.74"/>
<polygon fill="midnightblue" stroke="midnightblue" points="414.31,-192.18 423.77,-187.42 413.41,-185.24 414.31,-192.18"/>
</g>
<!-- Node19 -->
<g id="node19" class="node">
<title>Node19</title>
<g id="a_node19"><a xlink:href="Rotation_8h.html" target="_top" xlink:title=" ">
<polygon fill="none" stroke="black" points="652,-280.5 652,-299.5 790,-299.5 790,-280.5 652,-280.5"/>
<text text-anchor="middle" x="721" y="-287.5" font-family="FreeSans.ttf" font-size="10.00">iDynTree/Core/Rotation.h</text>
</a>
</g>
</g>
<!-- Node2&#45;&gt;Node19 -->
<g id="edge21" class="edge">
<title>Node2&#45;&gt;Node19</title>
<path fill="none" stroke="midnightblue" d="M257.75,-343.91C351.3,-333.22 536.15,-312.11 641.88,-300.04"/>
<polygon fill="midnightblue" stroke="midnightblue" points="642.32,-303.51 651.86,-298.9 641.52,-296.55 642.32,-303.51"/>
</g>
<!-- Node24 -->
<g id="node24" class="node">
<title>Node24</title>
<g id="a_node24"><a xlink:title=" ">
<polygon fill="none" stroke="#bfbfbf" points="122,-112.5 122,-131.5 182,-131.5 182,-112.5 122,-112.5"/>
<text text-anchor="middle" x="152" y="-119.5" font-family="FreeSans.ttf" font-size="10.00">iostream</text>
</a>
</g>
</g>
<!-- Node2&#45;&gt;Node24 -->
<g id="edge40" class="edge">
<title>Node2&#45;&gt;Node24</title>
<path fill="none" stroke="midnightblue" d="M197,-336.27C188.69,-296.89 165.39,-186.49 156,-141.97"/>
<polygon fill="midnightblue" stroke="midnightblue" points="159.37,-140.99 153.88,-131.93 152.52,-142.43 159.37,-140.99"/>
</g>
<!-- Node4 -->
<g id="node4" class="node">
<title>Node4</title>
<g id="a_node4"><a xlink:href="Utils_8h.html" target="_top" xlink:title=" ">
<polygon fill="none" stroke="black" points="511.5,-56.5 511.5,-75.5 630.5,-75.5 630.5,-56.5 511.5,-56.5"/>
<text text-anchor="middle" x="571" y="-63.5" font-family="FreeSans.ttf" font-size="10.00">iDynTree/Core/Utils.h</text>
</a>
</g>
</g>
<!-- Node3&#45;&gt;Node4 -->
<g id="edge3" class="edge">
<title>Node3&#45;&gt;Node4</title>
<path fill="none" stroke="midnightblue" d="M507.09,-168.09C510.39,-155.08 517.64,-130.43 529,-112 535.63,-101.24 545.09,-90.83 553.36,-82.73"/>
<polygon fill="midnightblue" stroke="midnightblue" points="555.9,-85.14 560.78,-75.74 551.1,-80.04 555.9,-85.14"/>
</g>
<!-- Node5 -->
<g id="node5" class="node">
<title>Node5</title>
<g id="a_node5"><a xlink:title=" ">
<polygon fill="none" stroke="#bfbfbf" points="769.5,-0.5 769.5,-19.5 822.5,-19.5 822.5,-0.5 769.5,-0.5"/>
<text text-anchor="middle" x="796" y="-7.5" font-family="FreeSans.ttf" font-size="10.00">cstddef</text>
</a>
</g>
</g>
<!-- Node3&#45;&gt;Node5 -->
<g id="edge19" class="edge">
<title>Node3&#45;&gt;Node5</title>
<path fill="none" stroke="midnightblue" d="M510.41,-168.3C519.28,-154.67 538.13,-128.17 560,-112 568.83,-105.48 703.87,-49.17 765.61,-23.57"/>
<polygon fill="midnightblue" stroke="midnightblue" points="767.3,-26.66 775.2,-19.59 764.63,-20.19 767.3,-26.66"/>
</g>
<!-- Node7 -->
<g id="node7" class="node">
<title>Node7</title>
<g id="a_node7"><a xlink:href="Span_8h.html" target="_top" xlink:title=" ">
<polygon fill="none" stroke="black" points="970.5,-56.5 970.5,-75.5 1091.5,-75.5 1091.5,-56.5 970.5,-56.5"/>
<text text-anchor="middle" x="1031" y="-63.5" font-family="FreeSans.ttf" font-size="10.00">iDynTree/Core/Span.h</text>
</a>
</g>
</g>
<!-- Node3&#45;&gt;Node7 -->
<g id="edge6" class="edge">
<title>Node3&#45;&gt;Node7</title>
<path fill="none" stroke="midnightblue" d="M514.08,-168.42C530.03,-153.94 564.73,-124.95 600,-112 664.33,-88.37 855.38,-75.58 960.21,-70.17"/>
<polygon fill="midnightblue" stroke="midnightblue" points="960.57,-73.66 970.38,-69.66 960.22,-66.67 960.57,-73.66"/>
</g>
<!-- Node8 -->
<g id="node8" class="node">
<title>Node8</title>
<g id="a_node8"><a xlink:title=" ">
<polygon fill="none" stroke="#bfbfbf" points="699,-0.5 699,-19.5 751,-19.5 751,-0.5 699,-0.5"/>
<text text-anchor="middle" x="725" y="-7.5" font-family="FreeSans.ttf" font-size="10.00">cassert</text>
</a>
</g>
</g>
<!-- Node3&#45;&gt;Node8 -->
<g id="edge18" class="edge">
<title>Node3&#45;&gt;Node8</title>
<path fill="none" stroke="midnightblue" d="M470.32,-168.43C437.86,-158.52 396.5,-139.9 412,-112 434.88,-70.82 458.21,-73.38 502,-56 564.87,-31.04 643.43,-19.34 688.55,-14.32"/>
<polygon fill="midnightblue" stroke="midnightblue" points="689.15,-17.78 698.73,-13.24 688.41,-10.82 689.15,-17.78"/>
</g>
<!-- Node16 -->
<g id="node16" class="node">
<title>Node16</title>
<g id="a_node16"><a xlink:title=" ">
<polygon fill="none" stroke="#bfbfbf" points="924,-112.5 924,-131.5 968,-131.5 968,-112.5 924,-112.5"/>
<text text-anchor="middle" x="946" y="-119.5" font-family="FreeSans.ttf" font-size="10.00">string</text>
</a>
</g>
</g>
<!-- Node3&#45;&gt;Node16 -->
<g id="edge16" class="edge">
<title>Node3&#45;&gt;Node16</title>
<path fill="none" stroke="midnightblue" d="M586.36,-168.84C689.36,-158.39 859.16,-140.76 913.9,-131.74"/>
<polygon fill="midnightblue" stroke="midnightblue" points="914.55,-135.18 923.76,-129.96 913.3,-128.3 914.55,-135.18"/>
</g>
<!-- Node17 -->
<g id="node17" class="node">
<title>Node17</title>
<g id="a_node17"><a xlink:title=" ">
<polygon fill="none" stroke="#bfbfbf" points="421,-112.5 421,-131.5 477,-131.5 477,-112.5 421,-112.5"/>
<text text-anchor="middle" x="449" y="-119.5" font-family="FreeSans.ttf" font-size="10.00">sstream</text>
</a>
</g>
</g>
<!-- Node3&#45;&gt;Node17 -->
<g id="edge17" class="edge">
<title>Node3&#45;&gt;Node17</title>
<path fill="none" stroke="midnightblue" d="M496,-168.32C487.81,-160.42 475.49,-148.55 465.53,-138.94"/>
<polygon fill="midnightblue" stroke="midnightblue" points="467.79,-136.26 458.16,-131.83 462.93,-141.29 467.79,-136.26"/>
</g>
<!-- Node18 -->
<g id="node18" class="node">
<title>Node18</title>
<g id="a_node18"><a xlink:title=" ">
<polygon fill="none" stroke="#bfbfbf" points="609,-112.5 609,-131.5 659,-131.5 659,-112.5 609,-112.5"/>
<text text-anchor="middle" x="634" y="-119.5" font-family="FreeSans.ttf" font-size="10.00">cstring</text>
</a>
</g>
</g>
<!-- Node3&#45;&gt;Node18 -->
<g id="edge20" class="edge">
<title>Node3&#45;&gt;Node18</title>
<path fill="none" stroke="midnightblue" d="M525.44,-168.44C546.67,-159.56 580.1,-145.56 604.25,-135.45"/>
<polygon fill="midnightblue" stroke="midnightblue" points="605.78,-138.61 613.66,-131.52 603.08,-132.15 605.78,-138.61"/>
</g>
<!-- Node4&#45;&gt;Node5 -->
<g id="edge4" class="edge">
<title>Node4&#45;&gt;Node5</title>
<path fill="none" stroke="midnightblue" d="M607.26,-56.49C643.32,-48.01 700.49,-34.48 759.42,-20.12"/>
<polygon fill="midnightblue" stroke="midnightblue" points="760.39,-23.49 769.27,-17.72 758.73,-16.69 760.39,-23.49"/>
</g>
<!-- Node6 -->
<g id="node6" class="node">
<title>Node6</title>
<g id="a_node6"><a xlink:title=" ">
<polygon fill="none" stroke="#bfbfbf" points="531,-0.5 531,-19.5 611,-19.5 611,-0.5 531,-0.5"/>
<text text-anchor="middle" x="571" y="-7.5" font-family="FreeSans.ttf" font-size="10.00">CoreExport.h</text>
</a>
</g>
</g>
<!-- Node4&#45;&gt;Node6 -->
<g id="edge5" class="edge">
<title>Node4&#45;&gt;Node6</title>
<path fill="none" stroke="midnightblue" d="M571,-56.08C571,-49.01 571,-38.86 571,-29.99"/>
<polygon fill="midnightblue" stroke="midnightblue" points="574.5,-29.75 571,-19.75 567.5,-29.75 574.5,-29.75"/>
</g>
<!-- Node7&#45;&gt;Node5 -->
<g id="edge10" class="edge">
<title>Node7&#45;&gt;Node5</title>
<path fill="none" stroke="midnightblue" d="M992.05,-56.46C953.92,-48.05 893.96,-34.65 832.58,-20.1"/>
<polygon fill="midnightblue" stroke="midnightblue" points="833.26,-16.66 822.72,-17.75 831.64,-23.47 833.26,-16.66"/>
</g>
<!-- Node7&#45;&gt;Node8 -->
<g id="edge7" class="edge">
<title>Node7&#45;&gt;Node8</title>
<path fill="none" stroke="midnightblue" d="M971.49,-56.48C918.86,-48.62 839.81,-36.06 761.35,-19.92"/>
<polygon fill="midnightblue" stroke="midnightblue" points="761.79,-16.44 751.29,-17.83 760.37,-23.29 761.79,-16.44"/>
</g>
<!-- Node9 -->
<g id="node9" class="node">
<title>Node9</title>
<g id="a_node9"><a xlink:title=" ">
<polygon fill="none" stroke="#bfbfbf" points="928,-0.5 928,-19.5 992,-19.5 992,-0.5 928,-0.5"/>
<text text-anchor="middle" x="960" y="-7.5" font-family="FreeSans.ttf" font-size="10.00">algorithm</text>
</a>
</g>
</g>
<!-- Node7&#45;&gt;Node9 -->
<g id="edge8" class="edge">
<title>Node7&#45;&gt;Node9</title>
<path fill="none" stroke="midnightblue" d="M1019.59,-56.32C1008.89,-48.18 992.66,-35.84 979.84,-26.09"/>
<polygon fill="midnightblue" stroke="midnightblue" points="981.69,-23.1 971.61,-19.83 977.46,-28.67 981.69,-23.1"/>
</g>
<!-- Node10 -->
<g id="node10" class="node">
<title>Node10</title>
<g id="a_node10"><a xlink:title=" ">
<polygon fill="none" stroke="#bfbfbf" points="1010,-0.5 1010,-19.5 1052,-19.5 1052,-0.5 1010,-0.5"/>
<text text-anchor="middle" x="1031" y="-7.5" font-family="FreeSans.ttf" font-size="10.00">array</text>
</a>
</g>
</g>
<!-- Node7&#45;&gt;Node10 -->
<g id="edge9" class="edge">
<title>Node7&#45;&gt;Node10</title>
<path fill="none" stroke="midnightblue" d="M1031,-56.08C1031,-49.01 1031,-38.86 1031,-29.99"/>
<polygon fill="midnightblue" stroke="midnightblue" points="1034.5,-29.75 1031,-19.75 1027.5,-29.75 1034.5,-29.75"/>
</g>
<!-- Node11 -->
<g id="node11" class="node">
<title>Node11</title>
<g id="a_node11"><a xlink:title=" ">
<polygon fill="none" stroke="#bfbfbf" points="1070.5,-0.5 1070.5,-19.5 1123.5,-19.5 1123.5,-0.5 1070.5,-0.5"/>
<text text-anchor="middle" x="1097" y="-7.5" font-family="FreeSans.ttf" font-size="10.00">iterator</text>
</a>
</g>
</g>
<!-- Node7&#45;&gt;Node11 -->
<g id="edge11" class="edge">
<title>Node7&#45;&gt;Node11</title>
<path fill="none" stroke="midnightblue" d="M1041.6,-56.32C1051.46,-48.26 1066.35,-36.08 1078.22,-26.37"/>
<polygon fill="midnightblue" stroke="midnightblue" points="1080.68,-28.88 1086.2,-19.83 1076.25,-23.46 1080.68,-28.88"/>
</g>
<!-- Node12 -->
<g id="node12" class="node">
<title>Node12</title>
<g id="a_node12"><a xlink:title=" ">
<polygon fill="none" stroke="#bfbfbf" points="1142,-0.5 1142,-19.5 1186,-19.5 1186,-0.5 1142,-0.5"/>
<text text-anchor="middle" x="1164" y="-7.5" font-family="FreeSans.ttf" font-size="10.00">limits</text>
</a>
</g>
</g>
<!-- Node7&#45;&gt;Node12 -->
<g id="edge12" class="edge">
<title>Node7&#45;&gt;Node12</title>
<path fill="none" stroke="midnightblue" d="M1052.07,-56.44C1074.06,-47.52 1108.73,-33.44 1133.66,-23.32"/>
<polygon fill="midnightblue" stroke="midnightblue" points="1135.08,-26.52 1143.02,-19.52 1132.44,-20.04 1135.08,-26.52"/>
</g>
<!-- Node13 -->
<g id="node13" class="node">
<title>Node13</title>
<g id="a_node13"><a xlink:title=" ">
<polygon fill="none" stroke="#bfbfbf" points="1204.5,-0.5 1204.5,-19.5 1269.5,-19.5 1269.5,-0.5 1204.5,-0.5"/>
<text text-anchor="middle" x="1237" y="-7.5" font-family="FreeSans.ttf" font-size="10.00">stdexcept</text>
</a>
</g>
</g>
<!-- Node7&#45;&gt;Node13 -->
<g id="edge13" class="edge">
<title>Node7&#45;&gt;Node13</title>
<path fill="none" stroke="midnightblue" d="M1063.64,-56.44C1099.05,-47.16 1155.71,-32.31 1194.55,-22.13"/>
<polygon fill="midnightblue" stroke="midnightblue" points="1195.73,-25.44 1204.51,-19.52 1193.95,-18.67 1195.73,-25.44"/>
</g>
<!-- Node14 -->
<g id="node14" class="node">
<title>Node14</title>
<g id="a_node14"><a xlink:title=" ">
<polygon fill="none" stroke="#bfbfbf" points="840.5,-0.5 840.5,-19.5 909.5,-19.5 909.5,-0.5 840.5,-0.5"/>
<text text-anchor="middle" x="875" y="-7.5" font-family="FreeSans.ttf" font-size="10.00">type_traits</text>
</a>
</g>
</g>
<!-- Node7&#45;&gt;Node14 -->
<g id="edge14" class="edge">
<title>Node7&#45;&gt;Node14</title>
<path fill="none" stroke="midnightblue" d="M1006.28,-56.44C980.15,-47.4 938.74,-33.06 909.42,-22.92"/>
<polygon fill="midnightblue" stroke="midnightblue" points="910.2,-19.48 899.6,-19.52 907.91,-26.1 910.2,-19.48"/>
</g>
<!-- Node15 -->
<g id="node15" class="node">
<title>Node15</title>
<g id="a_node15"><a xlink:title=" ">
<polygon fill="none" stroke="#bfbfbf" points="1287.5,-0.5 1287.5,-19.5 1332.5,-19.5 1332.5,-0.5 1287.5,-0.5"/>
<text text-anchor="middle" x="1310" y="-7.5" font-family="FreeSans.ttf" font-size="10.00">utility</text>
</a>
</g>
</g>
<!-- Node7&#45;&gt;Node15 -->
<g id="edge15" class="edge">
<title>Node7&#45;&gt;Node15</title>
<path fill="none" stroke="midnightblue" d="M1087.48,-56.45C1135.71,-48.77 1207.06,-36.5 1277.46,-20.19"/>
<polygon fill="midnightblue" stroke="midnightblue" points="1278.45,-23.55 1287.38,-17.86 1276.85,-16.73 1278.45,-23.55"/>
</g>
<!-- Node19&#45;&gt;Node3 -->
<g id="edge39" class="edge">
<title>Node19&#45;&gt;Node3</title>
<path fill="none" stroke="midnightblue" d="M704.87,-280.48C681.11,-267.96 635.27,-243.92 596,-224 574.51,-213.1 550.03,-201.01 531.87,-192.11"/>
<polygon fill="midnightblue" stroke="midnightblue" points="533.02,-188.78 522.5,-187.52 529.94,-195.06 533.02,-188.78"/>
</g>
<!-- Node19&#45;&gt;Node16 -->
<g id="edge22" class="edge">
<title>Node19&#45;&gt;Node16</title>
<path fill="none" stroke="midnightblue" d="M750.72,-280.44C770.89,-273.38 797.06,-261.63 815,-244 841.93,-217.53 826.12,-194.53 853,-168 869.96,-151.26 894.36,-139.78 913.91,-132.6"/>
<polygon fill="midnightblue" stroke="midnightblue" points="915.33,-135.82 923.63,-129.24 913.04,-129.2 915.33,-135.82"/>
</g>
<!-- Node20 -->
<g id="node20" class="node">
<title>Node20</title>
<g id="a_node20"><a xlink:href="GeomVector3_8h.html" target="_top" xlink:title=" ">
<polygon fill="none" stroke="black" points="390.5,-224.5 390.5,-243.5 553.5,-243.5 553.5,-224.5 390.5,-224.5"/>
<text text-anchor="middle" x="472" y="-231.5" font-family="FreeSans.ttf" font-size="10.00">iDynTree/Core/GeomVector3.h</text>
</a>
</g>
</g>
<!-- Node19&#45;&gt;Node20 -->
<g id="edge23" class="edge">
<title>Node19&#45;&gt;Node20</title>
<path fill="none" stroke="midnightblue" d="M681.55,-280.44C638.11,-271.02 568.21,-255.87 521.22,-245.68"/>
<polygon fill="midnightblue" stroke="midnightblue" points="521.78,-242.22 511.27,-243.52 520.3,-249.06 521.78,-242.22"/>
</g>
<!-- Node21 -->
<g id="node21" class="node">
<title>Node21</title>
<g id="a_node21"><a xlink:href="RotationRaw_8h.html" target="_top" xlink:title=" ">
<polygon fill="none" stroke="black" points="648,-224.5 648,-243.5 806,-243.5 806,-224.5 648,-224.5"/>
<text text-anchor="middle" x="727" y="-231.5" font-family="FreeSans.ttf" font-size="10.00">iDynTree/Core/RotationRaw.h</text>
</a>
</g>
</g>
<!-- Node19&#45;&gt;Node21 -->
<g id="edge25" class="edge">
<title>Node19&#45;&gt;Node21</title>
<path fill="none" stroke="midnightblue" d="M721.99,-280.08C722.79,-272.93 723.93,-262.64 724.92,-253.69"/>
<polygon fill="midnightblue" stroke="midnightblue" points="728.4,-254.08 726.03,-243.75 721.44,-253.3 728.4,-254.08"/>
</g>
<!-- Node20&#45;&gt;Node3 -->
<g id="edge24" class="edge">
<title>Node20&#45;&gt;Node3</title>
<path fill="none" stroke="midnightblue" d="M477.45,-224.08C482.01,-216.61 488.67,-205.72 494.29,-196.52"/>
<polygon fill="midnightblue" stroke="midnightblue" points="497.42,-198.11 499.65,-187.75 491.45,-194.46 497.42,-198.11"/>
</g>
<!-- Node21&#45;&gt;Node16 -->
<g id="edge38" class="edge">
<title>Node21&#45;&gt;Node16</title>
<path fill="none" stroke="midnightblue" d="M737.29,-224.41C753.84,-210.93 787.79,-184.63 820,-168 836.72,-159.37 882.72,-143.65 914.26,-133.26"/>
<polygon fill="midnightblue" stroke="midnightblue" points="915.52,-136.53 923.93,-130.09 913.34,-129.88 915.52,-136.53"/>
</g>
<!-- Node22 -->
<g id="node22" class="node">
<title>Node22</title>
<g id="a_node22"><a xlink:href="MatrixFixSize_8h.html" target="_top" xlink:title=" ">
<polygon fill="none" stroke="black" points="604.5,-168.5 604.5,-187.5 767.5,-187.5 767.5,-168.5 604.5,-168.5"/>
<text text-anchor="middle" x="686" y="-175.5" font-family="FreeSans.ttf" font-size="10.00">iDynTree/Core/MatrixFixSize.h</text>
</a>
</g>
</g>
<!-- Node21&#45;&gt;Node22 -->
<g id="edge26" class="edge">
<title>Node21&#45;&gt;Node22</title>
<path fill="none" stroke="midnightblue" d="M720.23,-224.08C714.44,-216.46 705.94,-205.26 698.86,-195.94"/>
<polygon fill="midnightblue" stroke="midnightblue" points="701.48,-193.6 692.64,-187.75 695.9,-197.83 701.48,-193.6"/>
</g>
<!-- Node22&#45;&gt;Node4 -->
<g id="edge27" class="edge">
<title>Node22&#45;&gt;Node4</title>
<path fill="none" stroke="midnightblue" d="M685.84,-168.37C685.14,-154.82 681.93,-128.43 668,-112 654.77,-96.4 634.96,-85.89 616.68,-78.98"/>
<polygon fill="midnightblue" stroke="midnightblue" points="617.62,-75.6 607.02,-75.6 615.3,-82.21 617.62,-75.6"/>
</g>
<!-- Node22&#45;&gt;Node8 -->
<g id="edge33" class="edge">
<title>Node22&#45;&gt;Node8</title>
<path fill="none" stroke="midnightblue" d="M688.1,-168.08C694.24,-141.95 712.26,-65.21 720.64,-29.58"/>
<polygon fill="midnightblue" stroke="midnightblue" points="724.11,-30.1 722.99,-19.57 717.29,-28.5 724.11,-30.1"/>
</g>
<!-- Node22&#45;&gt;Node16 -->
<g id="edge35" class="edge">
<title>Node22&#45;&gt;Node16</title>
<path fill="none" stroke="midnightblue" d="M736.31,-168.44C780.71,-160.58 847.36,-148.07 913.9,-132.11"/>
<polygon fill="midnightblue" stroke="midnightblue" points="914.82,-135.48 923.71,-129.73 913.17,-128.68 914.82,-135.48"/>
</g>
<!-- Node22&#45;&gt;Node17 -->
<g id="edge37" class="edge">
<title>Node22&#45;&gt;Node17</title>
<path fill="none" stroke="midnightblue" d="M648.45,-168.44C604.25,-158.37 531.27,-141.75 486.92,-131.64"/>
<polygon fill="midnightblue" stroke="midnightblue" points="487.63,-128.21 477.1,-129.4 486.07,-135.04 487.63,-128.21"/>
</g>
<!-- Node22&#45;&gt;Node18 -->
<g id="edge34" class="edge">
<title>Node22&#45;&gt;Node18</title>
<path fill="none" stroke="midnightblue" d="M677.41,-168.08C669.84,-160.22 658.62,-148.57 649.49,-139.08"/>
<polygon fill="midnightblue" stroke="midnightblue" points="651.88,-136.53 642.43,-131.75 646.84,-141.38 651.88,-136.53"/>
</g>
<!-- Node23 -->
<g id="node23" class="node">
<title>Node23</title>
<g id="a_node23"><a xlink:href="MatrixView_8h.html" target="_top" xlink:title=" ">
<polygon fill="none" stroke="black" points="754,-112.5 754,-131.5 906,-131.5 906,-112.5 754,-112.5"/>
<text text-anchor="middle" x="830" y="-119.5" font-family="FreeSans.ttf" font-size="10.00">iDynTree/Core/MatrixView.h</text>
</a>
</g>
</g>
<!-- Node22&#45;&gt;Node23 -->
<g id="edge28" class="edge">
<title>Node22&#45;&gt;Node23</title>
<path fill="none" stroke="midnightblue" d="M708.82,-168.44C732.83,-159.44 770.83,-145.19 797.87,-135.05"/>
<polygon fill="midnightblue" stroke="midnightblue" points="799.16,-138.3 807.29,-131.52 796.7,-131.75 799.16,-138.3"/>
</g>
<!-- Node22&#45;&gt;Node24 -->
<g id="edge36" class="edge">
<title>Node22&#45;&gt;Node24</title>
<path fill="none" stroke="midnightblue" d="M604.32,-168.74C488.08,-156.99 279.4,-135.88 192.1,-127.06"/>
<polygon fill="midnightblue" stroke="midnightblue" points="192.38,-123.57 182.08,-126.04 191.67,-130.53 192.38,-123.57"/>
</g>
<!-- Node23&#45;&gt;Node4 -->
<g id="edge32" class="edge">
<title>Node23&#45;&gt;Node4</title>
<path fill="none" stroke="midnightblue" d="M788.96,-112.44C743.68,-103 670.77,-87.8 621.89,-77.61"/>
<polygon fill="midnightblue" stroke="midnightblue" points="622.35,-74.13 611.85,-75.52 620.92,-80.98 622.35,-74.13"/>
</g>
<!-- Node23&#45;&gt;Node7 -->
<g id="edge31" class="edge">
<title>Node23&#45;&gt;Node7</title>
<path fill="none" stroke="midnightblue" d="M861.85,-112.44C896.4,-103.16 951.68,-88.31 989.58,-78.13"/>
<polygon fill="midnightblue" stroke="midnightblue" points="990.55,-81.49 999.3,-75.52 988.73,-74.73 990.55,-81.49"/>
</g>
<!-- Node23&#45;&gt;Node8 -->
<g id="edge29" class="edge">
<title>Node23&#45;&gt;Node8</title>
<path fill="none" stroke="midnightblue" d="M821.76,-112.37C804.2,-93.97 762.87,-50.67 740.32,-27.05"/>
<polygon fill="midnightblue" stroke="midnightblue" points="742.64,-24.41 733.2,-19.59 737.57,-29.24 742.64,-24.41"/>
</g>
<!-- Node23&#45;&gt;Node14 -->
<g id="edge30" class="edge">
<title>Node23&#45;&gt;Node14</title>
<path fill="none" stroke="midnightblue" d="M833.53,-112.37C840.86,-94.46 857.85,-52.92 867.66,-28.95"/>
<polygon fill="midnightblue" stroke="midnightblue" points="870.94,-30.17 871.49,-19.59 864.46,-27.52 870.94,-30.17"/>
</g>
<!-- Node25&#45;&gt;Node3 -->
<g id="edge47" class="edge">
<title>Node25&#45;&gt;Node3</title>
<path fill="none" stroke="midnightblue" d="M442.32,-526.48C390.64,-519.42 329.43,-507.64 310,-490 283.77,-466.19 286,-449.42 286,-414 286,-414 286,-414 286,-289 286,-228.44 353.69,-201.22 413.81,-188.99"/>
<polygon fill="midnightblue" stroke="midnightblue" points="414.6,-192.4 423.76,-187.08 413.28,-185.52 414.6,-192.4"/>
</g>
<!-- Node25&#45;&gt;Node4 -->
<g id="edge76" class="edge">
<title>Node25&#45;&gt;Node4</title>
<path fill="none" stroke="midnightblue" d="M441.3,-532.87C294.77,-526.81 0,-503.48 0,-414 0,-414 0,-414 0,-177 0,-129.09 41.33,-129.32 86,-112 159.86,-83.37 385.36,-72.54 501,-68.8"/>
<polygon fill="midnightblue" stroke="midnightblue" points="501.28,-72.29 511.16,-68.48 501.06,-65.29 501.28,-72.29"/>
</g>
<!-- Node25&#45;&gt;Node5 -->
<g id="edge42" class="edge">
<title>Node25&#45;&gt;Node5</title>
<path fill="none" stroke="midnightblue" d="M602.52,-526.72C605.38,-526.47 608.21,-526.23 611,-526 864.43,-505.2 934.85,-549.8 1182,-490 1264.02,-470.16 1356,-498.39 1356,-414 1356,-414 1356,-414 1356,-233 1356,-44.5 1141.71,-132.89 962,-76 912.93,-60.47 857.56,-37.69 824.79,-23.63"/>
<polygon fill="midnightblue" stroke="midnightblue" points="825.94,-20.31 815.37,-19.56 823.17,-26.74 825.94,-20.31"/>
</g>
<!-- Node25&#45;&gt;Node22 -->
<g id="edge51" class="edge">
<title>Node25&#45;&gt;Node22</title>
<path fill="none" stroke="midnightblue" d="M453.07,-526.47C408.66,-519.4 356.74,-507.63 343,-490 330.73,-474.26 300,-303.89 381,-224 388.95,-216.16 516.05,-199.43 603.64,-188.72"/>
<polygon fill="midnightblue" stroke="midnightblue" points="604.08,-192.2 613.58,-187.51 603.24,-185.25 604.08,-192.2"/>
</g>
<!-- Node26 -->
<g id="node26" class="node">
<title>Node26</title>
<g id="a_node26"><a xlink:title=" ">
<polygon fill="none" stroke="#bfbfbf" points="352.5,-465 352.5,-484 429.5,-484 429.5,-465 352.5,-465"/>
<text text-anchor="middle" x="391" y="-472" font-family="FreeSans.ttf" font-size="10.00">Eigen/Dense</text>
</a>
</g>
</g>
<!-- Node25&#45;&gt;Node26 -->
<g id="edge43" class="edge">
<title>Node25&#45;&gt;Node26</title>
<path fill="none" stroke="midnightblue" d="M503.23,-526.48C481.15,-516.45 444.28,-499.7 418.86,-488.15"/>
<polygon fill="midnightblue" stroke="midnightblue" points="420.29,-484.96 409.73,-484.01 417.39,-491.33 420.29,-484.96"/>
</g>
<!-- Node27 -->
<g id="node27" class="node">
<title>Node27</title>
<g id="a_node27"><a xlink:href="VectorDynSize_8h.html" target="_top" xlink:title=" ">
<polygon fill="none" stroke="black" points="1161.5,-168.5 1161.5,-187.5 1328.5,-187.5 1328.5,-168.5 1161.5,-168.5"/>
<text text-anchor="middle" x="1245" y="-175.5" font-family="FreeSans.ttf" font-size="10.00">iDynTree/Core/VectorDynSize.h</text>
</a>
</g>
</g>
<!-- Node25&#45;&gt;Node27 -->
<g id="edge44" class="edge">
<title>Node25&#45;&gt;Node27</title>
<path fill="none" stroke="midnightblue" d="M602.53,-526.85C605.39,-526.56 608.22,-526.28 611,-526 748.36,-512.28 1222,-552.04 1222,-414 1222,-414 1222,-414 1222,-289 1222,-256.12 1231.97,-218.86 1238.78,-197.24"/>
<polygon fill="midnightblue" stroke="midnightblue" points="1242.11,-198.3 1241.9,-187.71 1235.46,-196.12 1242.11,-198.3"/>
</g>
<!-- Node28 -->
<g id="node28" class="node">
<title>Node28</title>
<g id="a_node28"><a xlink:href="MatrixDynSize_8h.html" target="_top" xlink:title=" ">
<polygon fill="none" stroke="black" points="862,-168.5 862,-187.5 1030,-187.5 1030,-168.5 862,-168.5"/>
<text text-anchor="middle" x="946" y="-175.5" font-family="FreeSans.ttf" font-size="10.00">iDynTree/Core/MatrixDynSize.h</text>
</a>
</g>
</g>
<!-- Node25&#45;&gt;Node28 -->
<g id="edge48" class="edge">
<title>Node25&#45;&gt;Node28</title>
<path fill="none" stroke="midnightblue" d="M587.88,-526.49C647.05,-518.45 736.18,-505.36 813,-490 951.68,-462.28 1122,-555.43 1122,-414 1122,-414 1122,-414 1122,-350.5 1122,-284.91 1095.04,-267.56 1046,-224 1029.08,-208.97 1006.3,-198.19 986.76,-190.96"/>
<polygon fill="midnightblue" stroke="midnightblue" points="987.77,-187.6 977.17,-187.59 985.45,-194.21 987.77,-187.6"/>
</g>
<!-- Node29 -->
<g id="node29" class="node">
<title>Node29</title>
<g id="a_node29"><a xlink:href="SpatialMotionVector_8h.html" target="_top" xlink:title=" ">
<polygon fill="none" stroke="black" points="614.5,-459.5 614.5,-489.5 769.5,-489.5 769.5,-459.5 614.5,-459.5"/>
<text text-anchor="start" x="622.5" y="-477.5" font-family="FreeSans.ttf" font-size="10.00">iDynTree/Core/SpatialMotion</text>
<text text-anchor="middle" x="692" y="-466.5" font-family="FreeSans.ttf" font-size="10.00">Vector.h</text>
</a>
</g>
</g>
<!-- Node25&#45;&gt;Node29 -->
<g id="edge52" class="edge">
<title>Node25&#45;&gt;Node29</title>
<path fill="none" stroke="midnightblue" d="M546.36,-526.48C571.32,-517.74 610.84,-503.91 642.41,-492.86"/>
<polygon fill="midnightblue" stroke="midnightblue" points="643.65,-496.13 651.93,-489.52 641.34,-489.52 643.65,-496.13"/>
</g>
<!-- Node33 -->
<g id="node33" class="node">
<title>Node33</title>
<g id="a_node33"><a xlink:href="SpatialForceVector_8h.html" target="_top" xlink:title=" ">
<polygon fill="none" stroke="black" points="448,-459.5 448,-489.5 596,-489.5 596,-459.5 448,-459.5"/>
<text text-anchor="start" x="456" y="-477.5" font-family="FreeSans.ttf" font-size="10.00">iDynTree/Core/SpatialForce</text>
<text text-anchor="middle" x="522" y="-466.5" font-family="FreeSans.ttf" font-size="10.00">Vector.h</text>
</a>
</g>
</g>
<!-- Node25&#45;&gt;Node33 -->
<g id="edge67" class="edge">
<title>Node25&#45;&gt;Node33</title>
<path fill="none" stroke="midnightblue" d="M522,-526.48C522,-519.47 522,-509.19 522,-499.7"/>
<polygon fill="midnightblue" stroke="midnightblue" points="525.5,-499.52 522,-489.52 518.5,-499.52 525.5,-499.52"/>
</g>
<!-- Node34 -->
<g id="node34" class="node">
<title>Node34</title>
<g id="a_node34"><a xlink:href="Transform_8h.html" target="_top" xlink:title=" ">
<polygon fill="none" stroke="black" points="788,-403.5 788,-422.5 934,-422.5 934,-403.5 788,-403.5"/>
<text text-anchor="middle" x="861" y="-410.5" font-family="FreeSans.ttf" font-size="10.00">iDynTree/Core/Transform.h</text>
</a>
</g>
</g>
<!-- Node25&#45;&gt;Node34 -->
<g id="edge71" class="edge">
<title>Node25&#45;&gt;Node34</title>
<path fill="none" stroke="midnightblue" d="M597.31,-526.5C661.08,-518.43 746.93,-505.3 778,-490 806.92,-475.75 833.04,-448.3 847.96,-430.58"/>
<polygon fill="midnightblue" stroke="midnightblue" points="850.72,-432.73 854.34,-422.77 845.3,-428.3 850.72,-432.73"/>
</g>
<!-- Node27&#45;&gt;Node7 -->
<g id="edge45" class="edge">
<title>Node27&#45;&gt;Node7</title>
<path fill="none" stroke="midnightblue" d="M1228.21,-168.37C1190.94,-149.21 1101.11,-103.04 1056.71,-80.22"/>
<polygon fill="midnightblue" stroke="midnightblue" points="1058.21,-77.05 1047.71,-75.59 1055.01,-83.28 1058.21,-77.05"/>
</g>
<!-- Node27&#45;&gt;Node16 -->
<g id="edge46" class="edge">
<title>Node27&#45;&gt;Node16</title>
<path fill="none" stroke="midnightblue" d="M1197.62,-168.44C1136.31,-157.37 1031.1,-138.37 978.26,-128.83"/>
<polygon fill="midnightblue" stroke="midnightblue" points="978.58,-125.33 968.12,-127 977.34,-132.22 978.58,-125.33"/>
</g>
<!-- Node28&#45;&gt;Node16 -->
<g id="edge49" class="edge">
<title>Node28&#45;&gt;Node16</title>
<path fill="none" stroke="midnightblue" d="M946,-168.08C946,-161.01 946,-150.86 946,-141.99"/>
<polygon fill="midnightblue" stroke="midnightblue" points="949.5,-141.75 946,-131.75 942.5,-141.75 949.5,-141.75"/>
</g>
<!-- Node28&#45;&gt;Node23 -->
<g id="edge50" class="edge">
<title>Node28&#45;&gt;Node23</title>
<path fill="none" stroke="midnightblue" d="M927.62,-168.44C908.78,-159.68 879.27,-145.94 857.62,-135.86"/>
<polygon fill="midnightblue" stroke="midnightblue" points="858.84,-132.56 848.29,-131.52 855.88,-138.91 858.84,-132.56"/>
</g>
<!-- Node29&#45;&gt;Node3 -->
<g id="edge53" class="edge">
<title>Node29&#45;&gt;Node3</title>
<path fill="none" stroke="midnightblue" d="M687.05,-459.31C672.55,-419.17 627.09,-302.64 562,-224 552.23,-212.2 538.89,-201.46 527.58,-193.44"/>
<polygon fill="midnightblue" stroke="midnightblue" points="529.27,-190.36 519.04,-187.62 525.33,-196.14 529.27,-190.36"/>
</g>
<!-- Node29&#45;&gt;Node20 -->
<g id="edge54" class="edge">
<title>Node29&#45;&gt;Node20</title>
<path fill="none" stroke="midnightblue" d="M678.48,-459.42C668.82,-449.33 655.55,-435.38 644,-423 585.29,-360.04 516.44,-284.16 486.8,-251.39"/>
<polygon fill="midnightblue" stroke="midnightblue" points="489.13,-248.74 479.83,-243.67 483.94,-253.44 489.13,-248.74"/>
</g>
<!-- Node30 -->
<g id="node30" class="node">
<title>Node30</title>
<g id="a_node30"><a xlink:href="SpatialVector_8h.html" target="_top" xlink:title=" ">
<polygon fill="none" stroke="black" points="428.5,-403.5 428.5,-422.5 589.5,-422.5 589.5,-403.5 428.5,-403.5"/>
<text text-anchor="middle" x="509" y="-410.5" font-family="FreeSans.ttf" font-size="10.00">iDynTree/Core/SpatialVector.h</text>
</a>
</g>
</g>
<!-- Node29&#45;&gt;Node30 -->
<g id="edge55" class="edge">
<title>Node29&#45;&gt;Node30</title>
<path fill="none" stroke="midnightblue" d="M648.63,-459.4C617.01,-449.12 574.67,-435.35 544.93,-425.68"/>
<polygon fill="midnightblue" stroke="midnightblue" points="545.95,-422.33 535.36,-422.57 543.79,-428.99 545.95,-422.33"/>
</g>
<!-- Node30&#45;&gt;Node4 -->
<g id="edge63" class="edge">
<title>Node30&#45;&gt;Node4</title>
<path fill="none" stroke="midnightblue" d="M428.44,-411.92C327.33,-410.3 161.16,-402.15 112,-367 81.59,-345.26 76,-328.38 76,-291 76,-291 76,-291 76,-177 76,-143.76 85.12,-130.1 113,-112 175.31,-71.56 388.74,-66.13 500.88,-66.18"/>
<polygon fill="midnightblue" stroke="midnightblue" points="501.07,-69.68 511.08,-66.2 501.08,-62.68 501.07,-69.68"/>
</g>
<!-- Node30&#45;&gt;Node17 -->
<g id="edge66" class="edge">
<title>Node30&#45;&gt;Node17</title>
<path fill="none" stroke="midnightblue" d="M428.31,-407.95C323.69,-401.87 152.26,-388.7 133,-367 36.83,-258.63 308.41,-164.55 411.29,-133.68"/>
<polygon fill="midnightblue" stroke="midnightblue" points="412.39,-137 420.99,-130.81 410.41,-130.29 412.39,-137"/>
</g>
<!-- Node30&#45;&gt;Node19 -->
<g id="edge62" class="edge">
<title>Node30&#45;&gt;Node19</title>
<path fill="none" stroke="midnightblue" d="M523.91,-403.49C560.08,-382.84 652.79,-329.93 696.93,-304.74"/>
<polygon fill="midnightblue" stroke="midnightblue" points="698.88,-307.66 705.83,-299.66 695.41,-301.58 698.88,-307.66"/>
</g>
<!-- Node30&#45;&gt;Node20 -->
<g id="edge64" class="edge">
<title>Node30&#45;&gt;Node20</title>
<path fill="none" stroke="midnightblue" d="M507.22,-403.46C501.56,-376.43 483.97,-292.24 475.99,-254.11"/>
<polygon fill="midnightblue" stroke="midnightblue" points="479.33,-252.94 473.85,-243.87 472.47,-254.37 479.33,-252.94"/>
</g>
<!-- Node30&#45;&gt;Node24 -->
<g id="edge65" class="edge">
<title>Node30&#45;&gt;Node24</title>
<path fill="none" stroke="midnightblue" d="M428.03,-409.62C305.86,-405.18 86.03,-393.57 62,-367 -0.46,-297.93 96.14,-181.78 136.05,-139.24"/>
<polygon fill="midnightblue" stroke="midnightblue" points="138.83,-141.39 143.21,-131.75 133.77,-136.56 138.83,-141.39"/>
</g>
<!-- Node31 -->
<g id="node31" class="node">
<title>Node31</title>
<g id="a_node31"><a xlink:href="Position_8h.html" target="_top" xlink:title=" ">
<polygon fill="none" stroke="black" points="828.5,-342 828.5,-361 893.5,-361 893.5,-342 828.5,-342"/>
<text text-anchor="middle" x="861" y="-349" font-family="FreeSans.ttf" font-size="10.00">Position.h</text>
</a>
</g>
</g>
<!-- Node30&#45;&gt;Node31 -->
<g id="edge56" class="edge">
<title>Node30&#45;&gt;Node31</title>
<path fill="none" stroke="midnightblue" d="M559.43,-403.48C628.9,-391.73 752.84,-370.78 818.1,-359.75"/>
<polygon fill="midnightblue" stroke="midnightblue" points="818.77,-363.19 828.05,-358.07 817.61,-356.29 818.77,-363.19"/>
</g>
<!-- Node31&#45;&gt;Node16 -->
<g id="edge61" class="edge">
<title>Node31&#45;&gt;Node16</title>
<path fill="none" stroke="midnightblue" d="M884.35,-341.86C931.48,-322.8 1035.16,-272.02 1055,-188 1057.04,-179.35 1059.94,-175.39 1055,-168 1037.99,-142.58 1003.71,-131.5 978.11,-126.68"/>
<polygon fill="midnightblue" stroke="midnightblue" points="978.52,-123.21 968.09,-125.03 977.38,-130.11 978.52,-123.21"/>
</g>
<!-- Node31&#45;&gt;Node19 -->
<g id="edge60" class="edge">
<title>Node31&#45;&gt;Node19</title>
<path fill="none" stroke="midnightblue" d="M840.94,-341.98C817.24,-331.9 777.59,-315.05 750.42,-303.5"/>
<polygon fill="midnightblue" stroke="midnightblue" points="751.59,-300.2 741.02,-299.51 748.86,-306.64 751.59,-300.2"/>
</g>
<!-- Node32 -->
<g id="node32" class="node">
<title>Node32</title>
<g id="a_node32"><a xlink:href="PositionRaw_8h.html" target="_top" xlink:title=" ">
<polygon fill="none" stroke="black" points="862,-224.5 862,-243.5 1018,-243.5 1018,-224.5 862,-224.5"/>
<text text-anchor="middle" x="940" y="-231.5" font-family="FreeSans.ttf" font-size="10.00">iDynTree/Core/PositionRaw.h</text>
</a>
</g>
</g>
<!-- Node31&#45;&gt;Node32 -->
<g id="edge57" class="edge">
<title>Node31&#45;&gt;Node32</title>
<path fill="none" stroke="midnightblue" d="M866.94,-341.82C879.92,-322.84 911.03,-277.35 928.18,-252.29"/>
<polygon fill="midnightblue" stroke="midnightblue" points="931.24,-254.01 933.99,-243.78 925.46,-250.06 931.24,-254.01"/>
</g>
<!-- Node32&#45;&gt;Node3 -->
<g id="edge58" class="edge">
<title>Node32&#45;&gt;Node3</title>
<path fill="none" stroke="midnightblue" d="M871.07,-224.44C792.88,-214.74 665.62,-198.94 583.62,-188.76"/>
<polygon fill="midnightblue" stroke="midnightblue" points="583.96,-185.28 573.6,-187.52 583.1,-192.22 583.96,-185.28"/>
</g>
<!-- Node32&#45;&gt;Node16 -->
<g id="edge59" class="edge">
<title>Node32&#45;&gt;Node16</title>
<path fill="none" stroke="midnightblue" d="M984.01,-224.44C1004.4,-218.03 1026.79,-206.97 1039,-188 1056.88,-160.23 1011.45,-140.96 977.97,-130.96"/>
<polygon fill="midnightblue" stroke="midnightblue" points="978.62,-127.51 968.05,-128.16 976.72,-134.24 978.62,-127.51"/>
</g>
<!-- Node33&#45;&gt;Node3 -->
<g id="edge68" class="edge">
<title>Node33&#45;&gt;Node3</title>
<path fill="none" stroke="midnightblue" d="M465.83,-459.42C444.93,-451.7 422.55,-440.1 407,-423 350.66,-361.01 361.28,-326.71 348,-244 346.59,-235.22 342.65,-231.1 348,-224 359.47,-208.77 402.22,-197.13 440.21,-189.5"/>
<polygon fill="midnightblue" stroke="midnightblue" points="441.11,-192.89 450.26,-187.55 439.78,-186.02 441.11,-192.89"/>
</g>
<!-- Node33&#45;&gt;Node20 -->
<g id="edge69" class="edge">
<title>Node33&#45;&gt;Node20</title>
<path fill="none" stroke="midnightblue" d="M466.96,-459.49C448.46,-451.87 429.8,-440.32 419,-423 383.76,-366.47 433.81,-285.99 459.01,-251.61"/>
<polygon fill="midnightblue" stroke="midnightblue" points="461.86,-253.64 465.09,-243.55 456.27,-249.42 461.86,-253.64"/>
</g>
<!-- Node33&#45;&gt;Node30 -->
<g id="edge70" class="edge">
<title>Node33&#45;&gt;Node30</title>
<path fill="none" stroke="midnightblue" d="M518.92,-459.4C517.17,-451.38 514.95,-441.23 513.06,-432.57"/>
<polygon fill="midnightblue" stroke="midnightblue" points="516.45,-431.68 510.89,-422.66 509.61,-433.17 516.45,-431.68"/>
</g>
<!-- Node34&#45;&gt;Node16 -->
<g id="edge75" class="edge">
<title>Node34&#45;&gt;Node16</title>
<path fill="none" stroke="midnightblue" d="M905.17,-403.43C929.74,-396.84 959.59,-385.61 981,-367 1048.06,-308.72 1053.47,-275.29 1070,-188 1071.65,-179.27 1075.1,-175.28 1070,-168 1049.51,-138.77 1008.01,-128.45 978.67,-124.85"/>
<polygon fill="midnightblue" stroke="midnightblue" points="978.78,-121.35 968.48,-123.81 978.07,-128.31 978.78,-121.35"/>
</g>
<!-- Node34&#45;&gt;Node19 -->
<g id="edge73" class="edge">
<title>Node34&#45;&gt;Node19</title>
<path fill="none" stroke="midnightblue" d="M850.93,-403.3C827.42,-382.98 768.65,-332.19 738.88,-306.46"/>
<polygon fill="midnightblue" stroke="midnightblue" points="740.83,-303.51 730.98,-299.62 736.25,-308.81 740.83,-303.51"/>
</g>
<!-- Node34&#45;&gt;Node22 -->
<g id="edge74" class="edge">
<title>Node34&#45;&gt;Node22</title>
<path fill="none" stroke="midnightblue" d="M879.42,-403.4C934.08,-376.79 1087.85,-293.41 1027,-224 1010.74,-205.45 873.42,-192.1 778.08,-184.96"/>
<polygon fill="midnightblue" stroke="midnightblue" points="778.06,-181.45 767.83,-184.21 777.55,-188.44 778.06,-181.45"/>
</g>
<!-- Node34&#45;&gt;Node31 -->
<g id="edge72" class="edge">
<title>Node34&#45;&gt;Node31</title>
<path fill="none" stroke="midnightblue" d="M861,-403.48C861,-395.08 861,-381.98 861,-371.16"/>
<polygon fill="midnightblue" stroke="midnightblue" points="864.5,-371.01 861,-361.01 857.5,-371.01 864.5,-371.01"/>
</g>
</g>
</svg>
