<?xml version="1.0" encoding="UTF-8" standalone="no"?>
<!DOCTYPE svg PUBLIC "-//W3C//DTD SVG 1.1//EN"
 "http://www.w3.org/Graphics/SVG/1.1/DTD/svg11.dtd">
<!-- Generated by graphviz version 2.43.0 (0)
 -->
<!-- Title: AttitudeEstimatorUtils.h Pages: 1 -->
<svg width="477pt" height="84pt"
 viewBox="0.00 0.00 476.50 84.00" xmlns="http://www.w3.org/2000/svg" xmlns:xlink="http://www.w3.org/1999/xlink">
<g id="graph0" class="graph" transform="scale(1 1) rotate(0) translate(4 80)">
<title>AttitudeEstimatorUtils.h</title>
<!-- Node1 -->
<g id="node1" class="node">
<title>Node1</title>
<g id="a_node1"><a xlink:title=" ">
<polygon fill="#bfbfbf" stroke="black" points="167,-56.5 167,-75.5 301,-75.5 301,-56.5 167,-56.5"/>
<text text-anchor="middle" x="234" y="-63.5" font-family="FreeSans.ttf" font-size="10.00">AttitudeEstimatorUtils.h</text>
</a>
</g>
</g>
<!-- Node2 -->
<g id="node2" class="node">
<title>Node2</title>
<g id="a_node2"><a xlink:href="AttitudeEstimatorUtils_8cpp.html" target="_top" xlink:title=" ">
<polygon fill="none" stroke="black" points="0,-0.5 0,-19.5 146,-19.5 146,-0.5 0,-0.5"/>
<text text-anchor="middle" x="73" y="-7.5" font-family="FreeSans.ttf" font-size="10.00">AttitudeEstimatorUtils.cpp</text>
</a>
</g>
</g>
<!-- Node1&#45;&gt;Node2 -->
<g id="edge1" class="edge">
<title>Node1&#45;&gt;Node2</title>
<path fill="none" stroke="midnightblue" d="M198.74,-53.17C168.42,-43 125.43,-28.59 98.39,-19.52"/>
<polygon fill="midnightblue" stroke="midnightblue" points="197.9,-56.58 208.49,-56.44 200.12,-49.95 197.9,-56.58"/>
</g>
<!-- Node3 -->
<g id="node3" class="node">
<title>Node3</title>
<g id="a_node3"><a xlink:href="AttitudeMahonyFilter_8cpp.html" target="_top" xlink:title=" ">
<polygon fill="none" stroke="black" points="164.5,-0.5 164.5,-19.5 303.5,-19.5 303.5,-0.5 164.5,-0.5"/>
<text text-anchor="middle" x="234" y="-7.5" font-family="FreeSans.ttf" font-size="10.00">AttitudeMahonyFilter.cpp</text>
</a>
</g>
</g>
<!-- Node1&#45;&gt;Node3 -->
<g id="edge2" class="edge">
<title>Node1&#45;&gt;Node3</title>
<path fill="none" stroke="midnightblue" d="M234,-45.8C234,-36.91 234,-26.78 234,-19.75"/>
<polygon fill="midnightblue" stroke="midnightblue" points="230.5,-46.08 234,-56.08 237.5,-46.08 230.5,-46.08"/>
</g>
<!-- Node4 -->
<g id="node4" class="node">
<title>Node4</title>
<g id="a_node4"><a xlink:href="AttitudeQuaternionEKF_8cpp.html" target="_top" xlink:title=" ">
<polygon fill="none" stroke="black" points="321.5,-0.5 321.5,-19.5 468.5,-19.5 468.5,-0.5 321.5,-0.5"/>
<text text-anchor="middle" x="395" y="-7.5" font-family="FreeSans.ttf" font-size="10.00">AttitudeQuaternionEKF.cpp</text>
</a>
</g>
</g>
<!-- Node1&#45;&gt;Node4 -->
<g id="edge3" class="edge">
<title>Node1&#45;&gt;Node4</title>
<path fill="none" stroke="midnightblue" d="M269.26,-53.17C299.58,-43 342.57,-28.59 369.61,-19.52"/>
<polygon fill="midnightblue" stroke="midnightblue" points="267.88,-49.95 259.51,-56.44 270.1,-56.58 267.88,-49.95"/>
</g>
</g>
</svg>
