<?xml version="1.0" encoding="UTF-8" standalone="no"?>
<!DOCTYPE svg PUBLIC "-//W3C//DTD SVG 1.1//EN"
 "http://www.w3.org/Graphics/SVG/1.1/DTD/svg11.dtd">
<!-- Generated by graphviz version 2.43.0 (0)
 -->
<!-- Title: AttitudeEstimator.h Pages: 1 -->
<svg width="600pt" height="140pt"
 viewBox="0.00 0.00 599.50 140.00" xmlns="http://www.w3.org/2000/svg" xmlns:xlink="http://www.w3.org/1999/xlink">
<g id="graph0" class="graph" transform="scale(1 1) rotate(0) translate(4 136)">
<title>AttitudeEstimator.h</title>
<!-- Node1 -->
<g id="node1" class="node">
<title>Node1</title>
<g id="a_node1"><a xlink:title=" ">
<polygon fill="#bfbfbf" stroke="black" points="251,-112.5 251,-131.5 362,-131.5 362,-112.5 251,-112.5"/>
<text text-anchor="middle" x="306.5" y="-119.5" font-family="FreeSans.ttf" font-size="10.00">AttitudeEstimator.h</text>
</a>
</g>
</g>
<!-- Node2 -->
<g id="node2" class="node">
<title>Node2</title>
<g id="a_node2"><a xlink:href="AttitudeEstimatorUtils_8h.html" target="_top" xlink:title=" ">
<polygon fill="none" stroke="black" points="163.5,-56.5 163.5,-75.5 297.5,-75.5 297.5,-56.5 163.5,-56.5"/>
<text text-anchor="middle" x="230.5" y="-63.5" font-family="FreeSans.ttf" font-size="10.00">AttitudeEstimatorUtils.h</text>
</a>
</g>
</g>
<!-- Node1&#45;&gt;Node2 -->
<g id="edge1" class="edge">
<title>Node1&#45;&gt;Node2</title>
<path fill="none" stroke="midnightblue" d="M285.92,-106.38C272.19,-96.62 254.57,-84.11 242.93,-75.83"/>
<polygon fill="midnightblue" stroke="midnightblue" points="284.11,-109.38 294.29,-112.32 288.16,-103.68 284.11,-109.38"/>
</g>
<!-- Node6 -->
<g id="node6" class="node">
<title>Node6</title>
<g id="a_node6"><a xlink:href="AttitudeMahonyFilter_8h.html" target="_top" xlink:title=" ">
<polygon fill="none" stroke="black" points="11.5,-56.5 11.5,-75.5 139.5,-75.5 139.5,-56.5 11.5,-56.5"/>
<text text-anchor="middle" x="75.5" y="-63.5" font-family="FreeSans.ttf" font-size="10.00">AttitudeMahonyFilter.h</text>
</a>
</g>
</g>
<!-- Node1&#45;&gt;Node6 -->
<g id="edge5" class="edge">
<title>Node1&#45;&gt;Node6</title>
<path fill="none" stroke="midnightblue" d="M260.1,-110.15C216.45,-99.95 151.99,-84.88 111.93,-75.52"/>
<polygon fill="midnightblue" stroke="midnightblue" points="259.36,-113.58 269.9,-112.44 260.96,-106.76 259.36,-113.58"/>
</g>
<!-- Node7 -->
<g id="node7" class="node">
<title>Node7</title>
<g id="a_node7"><a xlink:href="AttitudeQuaternionEKF_8h.html" target="_top" xlink:title=" ">
<polygon fill="none" stroke="black" points="315.5,-56.5 315.5,-75.5 451.5,-75.5 451.5,-56.5 315.5,-56.5"/>
<text text-anchor="middle" x="383.5" y="-63.5" font-family="FreeSans.ttf" font-size="10.00">AttitudeQuaternionEKF.h</text>
</a>
</g>
</g>
<!-- Node1&#45;&gt;Node7 -->
<g id="edge7" class="edge">
<title>Node1&#45;&gt;Node7</title>
<path fill="none" stroke="midnightblue" d="M327.4,-106.34C341.41,-96.52 359.38,-83.91 371.16,-75.65"/>
<polygon fill="midnightblue" stroke="midnightblue" points="325.05,-103.72 318.87,-112.32 329.07,-109.45 325.05,-103.72"/>
</g>
<!-- Node8 -->
<g id="node8" class="node">
<title>Node8</title>
<g id="a_node8"><a xlink:href="AttitudeEstimator_8cpp.html" target="_top" xlink:title=" ">
<polygon fill="none" stroke="black" points="469.5,-56.5 469.5,-75.5 591.5,-75.5 591.5,-56.5 469.5,-56.5"/>
<text text-anchor="middle" x="530.5" y="-63.5" font-family="FreeSans.ttf" font-size="10.00">AttitudeEstimator.cpp</text>
</a>
</g>
</g>
<!-- Node1&#45;&gt;Node8 -->
<g id="edge9" class="edge">
<title>Node1&#45;&gt;Node8</title>
<path fill="none" stroke="midnightblue" d="M351.76,-110.09C394.08,-99.89 456.41,-84.86 495.17,-75.52"/>
<polygon fill="midnightblue" stroke="midnightblue" points="350.89,-106.7 341.99,-112.44 352.54,-113.5 350.89,-106.7"/>
</g>
<!-- Node3 -->
<g id="node3" class="node">
<title>Node3</title>
<g id="a_node3"><a xlink:href="AttitudeEstimatorUtils_8cpp.html" target="_top" xlink:title=" ">
<polygon fill="none" stroke="black" points="157.5,-0.5 157.5,-19.5 303.5,-19.5 303.5,-0.5 157.5,-0.5"/>
<text text-anchor="middle" x="230.5" y="-7.5" font-family="FreeSans.ttf" font-size="10.00">AttitudeEstimatorUtils.cpp</text>
</a>
</g>
</g>
<!-- Node2&#45;&gt;Node3 -->
<g id="edge2" class="edge">
<title>Node2&#45;&gt;Node3</title>
<path fill="none" stroke="midnightblue" d="M230.5,-45.8C230.5,-36.91 230.5,-26.78 230.5,-19.75"/>
<polygon fill="midnightblue" stroke="midnightblue" points="227,-46.08 230.5,-56.08 234,-46.08 227,-46.08"/>
</g>
<!-- Node4 -->
<g id="node4" class="node">
<title>Node4</title>
<g id="a_node4"><a xlink:href="AttitudeMahonyFilter_8cpp.html" target="_top" xlink:title=" ">
<polygon fill="none" stroke="black" points="0,-0.5 0,-19.5 139,-19.5 139,-0.5 0,-0.5"/>
<text text-anchor="middle" x="69.5" y="-7.5" font-family="FreeSans.ttf" font-size="10.00">AttitudeMahonyFilter.cpp</text>
</a>
</g>
</g>
<!-- Node2&#45;&gt;Node4 -->
<g id="edge3" class="edge">
<title>Node2&#45;&gt;Node4</title>
<path fill="none" stroke="midnightblue" d="M195.24,-53.17C164.92,-43 121.93,-28.59 94.89,-19.52"/>
<polygon fill="midnightblue" stroke="midnightblue" points="194.4,-56.58 204.99,-56.44 196.62,-49.95 194.4,-56.58"/>
</g>
<!-- Node5 -->
<g id="node5" class="node">
<title>Node5</title>
<g id="a_node5"><a xlink:href="AttitudeQuaternionEKF_8cpp.html" target="_top" xlink:title=" ">
<polygon fill="none" stroke="black" points="322,-0.5 322,-19.5 469,-19.5 469,-0.5 322,-0.5"/>
<text text-anchor="middle" x="395.5" y="-7.5" font-family="FreeSans.ttf" font-size="10.00">AttitudeQuaternionEKF.cpp</text>
</a>
</g>
</g>
<!-- Node2&#45;&gt;Node5 -->
<g id="edge4" class="edge">
<title>Node2&#45;&gt;Node5</title>
<path fill="none" stroke="midnightblue" d="M266.24,-53.3C297.33,-43.13 341.65,-28.62 369.48,-19.52"/>
<polygon fill="midnightblue" stroke="midnightblue" points="265.06,-50.01 256.64,-56.44 267.24,-56.66 265.06,-50.01"/>
</g>
<!-- Node6&#45;&gt;Node4 -->
<g id="edge6" class="edge">
<title>Node6&#45;&gt;Node4</title>
<path fill="none" stroke="midnightblue" d="M73.4,-46.1C72.4,-37.14 71.26,-26.86 70.47,-19.75"/>
<polygon fill="midnightblue" stroke="midnightblue" points="69.93,-46.53 74.51,-56.08 76.88,-45.76 69.93,-46.53"/>
</g>
<!-- Node7&#45;&gt;Node5 -->
<g id="edge8" class="edge">
<title>Node7&#45;&gt;Node5</title>
<path fill="none" stroke="midnightblue" d="M387.7,-46.1C389.69,-37.14 391.98,-26.86 393.56,-19.75"/>
<polygon fill="midnightblue" stroke="midnightblue" points="384.23,-45.56 385.48,-56.08 391.07,-47.08 384.23,-45.56"/>
</g>
</g>
</svg>
