<?xml version="1.0" encoding="UTF-8" standalone="no"?>
<!DOCTYPE svg PUBLIC "-//W3C//DTD SVG 1.1//EN"
 "http://www.w3.org/Graphics/SVG/1.1/DTD/svg11.dtd">
<!-- Generated by graphviz version 2.43.0 (0)
 -->
<!-- Title: BerdySparseMAPSolver.h Pages: 1 -->
<svg width="871pt" height="196pt"
 viewBox="0.00 0.00 871.00 196.00" xmlns="http://www.w3.org/2000/svg" xmlns:xlink="http://www.w3.org/1999/xlink">
<g id="graph0" class="graph" transform="scale(1 1) rotate(0) translate(4 192)">
<title>BerdySparseMAPSolver.h</title>
<!-- Node1 -->
<g id="node1" class="node">
<title>Node1</title>
<g id="a_node1"><a xlink:title=" ">
<polygon fill="#bfbfbf" stroke="black" points="189,-168.5 189,-187.5 328,-187.5 328,-168.5 189,-168.5"/>
<text text-anchor="middle" x="258.5" y="-175.5" font-family="FreeSans.ttf" font-size="10.00">BerdySparseMAPSolver.h</text>
</a>
</g>
</g>
<!-- Node2 -->
<g id="node2" class="node">
<title>Node2</title>
<g id="a_node2"><a xlink:href="Utils_8h.html" target="_top" xlink:title=" ">
<polygon fill="none" stroke="black" points="0,-56.5 0,-75.5 119,-75.5 119,-56.5 0,-56.5"/>
<text text-anchor="middle" x="59.5" y="-63.5" font-family="FreeSans.ttf" font-size="10.00">iDynTree/Core/Utils.h</text>
</a>
</g>
</g>
<!-- Node1&#45;&gt;Node2 -->
<g id="edge1" class="edge">
<title>Node1&#45;&gt;Node2</title>
<path fill="none" stroke="midnightblue" d="M240.37,-168.42C222.05,-159.64 193.02,-145.42 168.5,-132 137.89,-115.25 103.44,-94.35 81.61,-80.84"/>
<polygon fill="midnightblue" stroke="midnightblue" points="83.42,-77.84 73.08,-75.54 79.72,-83.79 83.42,-77.84"/>
</g>
<!-- Node5 -->
<g id="node5" class="node">
<title>Node5</title>
<g id="a_node5"><a xlink:href="VectorFixSize_8h.html" target="_top" xlink:title=" ">
<polygon fill="none" stroke="black" points="177.5,-112.5 177.5,-131.5 339.5,-131.5 339.5,-112.5 177.5,-112.5"/>
<text text-anchor="middle" x="258.5" y="-119.5" font-family="FreeSans.ttf" font-size="10.00">iDynTree/Core/VectorFixSize.h</text>
</a>
</g>
</g>
<!-- Node1&#45;&gt;Node5 -->
<g id="edge4" class="edge">
<title>Node1&#45;&gt;Node5</title>
<path fill="none" stroke="midnightblue" d="M258.5,-168.08C258.5,-161.01 258.5,-150.86 258.5,-141.99"/>
<polygon fill="midnightblue" stroke="midnightblue" points="262,-141.75 258.5,-131.75 255,-141.75 262,-141.75"/>
</g>
<!-- Node18 -->
<g id="node18" class="node">
<title>Node18</title>
<g id="a_node18"><a xlink:href="Indices_8h.html" target="_top" xlink:title=" ">
<polygon fill="none" stroke="black" points="358,-112.5 358,-131.5 497,-131.5 497,-112.5 358,-112.5"/>
<text text-anchor="middle" x="427.5" y="-119.5" font-family="FreeSans.ttf" font-size="10.00">iDynTree/Model/Indices.h</text>
</a>
</g>
</g>
<!-- Node1&#45;&gt;Node18 -->
<g id="edge21" class="edge">
<title>Node1&#45;&gt;Node18</title>
<path fill="none" stroke="midnightblue" d="M285.28,-168.44C313.83,-159.32 359.23,-144.81 391.04,-134.65"/>
<polygon fill="midnightblue" stroke="midnightblue" points="392.39,-137.89 400.85,-131.52 390.26,-131.23 392.39,-137.89"/>
</g>
<!-- Node3 -->
<g id="node3" class="node">
<title>Node3</title>
<g id="a_node3"><a xlink:title=" ">
<polygon fill="none" stroke="#bfbfbf" points="230,-0.5 230,-19.5 283,-19.5 283,-0.5 230,-0.5"/>
<text text-anchor="middle" x="256.5" y="-7.5" font-family="FreeSans.ttf" font-size="10.00">cstddef</text>
</a>
</g>
</g>
<!-- Node2&#45;&gt;Node3 -->
<g id="edge2" class="edge">
<title>Node2&#45;&gt;Node3</title>
<path fill="none" stroke="midnightblue" d="M90.72,-56.44C125.82,-46.82 182.77,-31.21 219.93,-21.02"/>
<polygon fill="midnightblue" stroke="midnightblue" points="221.13,-24.32 229.85,-18.3 219.28,-17.57 221.13,-24.32"/>
</g>
<!-- Node4 -->
<g id="node4" class="node">
<title>Node4</title>
<g id="a_node4"><a xlink:title=" ">
<polygon fill="none" stroke="#bfbfbf" points="19.5,-0.5 19.5,-19.5 99.5,-19.5 99.5,-0.5 19.5,-0.5"/>
<text text-anchor="middle" x="59.5" y="-7.5" font-family="FreeSans.ttf" font-size="10.00">CoreExport.h</text>
</a>
</g>
</g>
<!-- Node2&#45;&gt;Node4 -->
<g id="edge3" class="edge">
<title>Node2&#45;&gt;Node4</title>
<path fill="none" stroke="midnightblue" d="M59.5,-56.08C59.5,-49.01 59.5,-38.86 59.5,-29.99"/>
<polygon fill="midnightblue" stroke="midnightblue" points="63,-29.75 59.5,-19.75 56,-29.75 63,-29.75"/>
</g>
<!-- Node5&#45;&gt;Node2 -->
<g id="edge5" class="edge">
<title>Node5&#45;&gt;Node2</title>
<path fill="none" stroke="midnightblue" d="M226.97,-112.44C192.91,-103.2 138.49,-88.44 100.98,-78.26"/>
<polygon fill="midnightblue" stroke="midnightblue" points="101.45,-74.76 90.88,-75.52 99.62,-81.51 101.45,-74.76"/>
</g>
<!-- Node5&#45;&gt;Node3 -->
<g id="edge19" class="edge">
<title>Node5&#45;&gt;Node3</title>
<path fill="none" stroke="midnightblue" d="M262.02,-112.2C266.57,-99.73 273.57,-76.19 270.5,-56 269.13,-47 266.31,-37.33 263.55,-29.26"/>
<polygon fill="midnightblue" stroke="midnightblue" points="266.81,-27.98 260.1,-19.78 260.23,-30.37 266.81,-27.98"/>
</g>
<!-- Node6 -->
<g id="node6" class="node">
<title>Node6</title>
<g id="a_node6"><a xlink:href="Span_8h.html" target="_top" xlink:title=" ">
<polygon fill="none" stroke="black" points="456,-56.5 456,-75.5 577,-75.5 577,-56.5 456,-56.5"/>
<text text-anchor="middle" x="516.5" y="-63.5" font-family="FreeSans.ttf" font-size="10.00">iDynTree/Core/Span.h</text>
</a>
</g>
</g>
<!-- Node5&#45;&gt;Node6 -->
<g id="edge6" class="edge">
<title>Node5&#45;&gt;Node6</title>
<path fill="none" stroke="midnightblue" d="M299.38,-112.44C344.48,-103 417.11,-87.8 465.8,-77.61"/>
<polygon fill="midnightblue" stroke="midnightblue" points="466.74,-80.99 475.81,-75.52 465.31,-74.14 466.74,-80.99"/>
</g>
<!-- Node7 -->
<g id="node7" class="node">
<title>Node7</title>
<g id="a_node7"><a xlink:title=" ">
<polygon fill="none" stroke="#bfbfbf" points="301.5,-0.5 301.5,-19.5 353.5,-19.5 353.5,-0.5 301.5,-0.5"/>
<text text-anchor="middle" x="327.5" y="-7.5" font-family="FreeSans.ttf" font-size="10.00">cassert</text>
</a>
</g>
</g>
<!-- Node5&#45;&gt;Node7 -->
<g id="edge18" class="edge">
<title>Node5&#45;&gt;Node7</title>
<path fill="none" stroke="midnightblue" d="M263.91,-112.37C275.25,-94.3 301.67,-52.18 316.64,-28.31"/>
<polygon fill="midnightblue" stroke="midnightblue" points="319.76,-29.92 322.11,-19.59 313.83,-26.2 319.76,-29.92"/>
</g>
<!-- Node15 -->
<g id="node15" class="node">
<title>Node15</title>
<g id="a_node15"><a xlink:title=" ">
<polygon fill="none" stroke="#bfbfbf" points="355.5,-56.5 355.5,-75.5 399.5,-75.5 399.5,-56.5 355.5,-56.5"/>
<text text-anchor="middle" x="377.5" y="-63.5" font-family="FreeSans.ttf" font-size="10.00">string</text>
</a>
</g>
</g>
<!-- Node5&#45;&gt;Node15 -->
<g id="edge16" class="edge">
<title>Node5&#45;&gt;Node15</title>
<path fill="none" stroke="midnightblue" d="M277.36,-112.44C296.77,-103.64 327.23,-89.81 349.46,-79.72"/>
<polygon fill="midnightblue" stroke="midnightblue" points="351.07,-82.84 358.73,-75.52 348.18,-76.46 351.07,-82.84"/>
</g>
<!-- Node16 -->
<g id="node16" class="node">
<title>Node16</title>
<g id="a_node16"><a xlink:title=" ">
<polygon fill="none" stroke="#bfbfbf" points="137.5,-56.5 137.5,-75.5 193.5,-75.5 193.5,-56.5 137.5,-56.5"/>
<text text-anchor="middle" x="165.5" y="-63.5" font-family="FreeSans.ttf" font-size="10.00">sstream</text>
</a>
</g>
</g>
<!-- Node5&#45;&gt;Node16 -->
<g id="edge17" class="edge">
<title>Node5&#45;&gt;Node16</title>
<path fill="none" stroke="midnightblue" d="M243.56,-112.32C228.91,-103.82 206.37,-90.73 189.26,-80.8"/>
<polygon fill="midnightblue" stroke="midnightblue" points="190.81,-77.65 180.4,-75.65 187.3,-83.7 190.81,-77.65"/>
</g>
<!-- Node17 -->
<g id="node17" class="node">
<title>Node17</title>
<g id="a_node17"><a xlink:title=" ">
<polygon fill="none" stroke="#bfbfbf" points="211.5,-56.5 211.5,-75.5 261.5,-75.5 261.5,-56.5 211.5,-56.5"/>
<text text-anchor="middle" x="236.5" y="-63.5" font-family="FreeSans.ttf" font-size="10.00">cstring</text>
</a>
</g>
</g>
<!-- Node5&#45;&gt;Node17 -->
<g id="edge20" class="edge">
<title>Node5&#45;&gt;Node17</title>
<path fill="none" stroke="midnightblue" d="M254.87,-112.08C251.89,-104.77 247.57,-94.18 243.88,-85.1"/>
<polygon fill="midnightblue" stroke="midnightblue" points="247.08,-83.69 240.07,-75.75 240.6,-86.33 247.08,-83.69"/>
</g>
<!-- Node6&#45;&gt;Node3 -->
<g id="edge10" class="edge">
<title>Node6&#45;&gt;Node3</title>
<path fill="none" stroke="midnightblue" d="M470.89,-56.48C427.66,-48.27 360.67,-35.16 293.16,-20.07"/>
<polygon fill="midnightblue" stroke="midnightblue" points="293.73,-16.6 283.2,-17.82 292.19,-23.43 293.73,-16.6"/>
</g>
<!-- Node6&#45;&gt;Node7 -->
<g id="edge7" class="edge">
<title>Node6&#45;&gt;Node7</title>
<path fill="none" stroke="midnightblue" d="M486.55,-56.44C453.21,-46.92 399.32,-31.52 363.65,-21.33"/>
<polygon fill="midnightblue" stroke="midnightblue" points="364.23,-17.85 353.66,-18.47 362.31,-24.59 364.23,-17.85"/>
</g>
<!-- Node8 -->
<g id="node8" class="node">
<title>Node8</title>
<g id="a_node8"><a xlink:title=" ">
<polygon fill="none" stroke="#bfbfbf" points="667.5,-0.5 667.5,-19.5 731.5,-19.5 731.5,-0.5 667.5,-0.5"/>
<text text-anchor="middle" x="699.5" y="-7.5" font-family="FreeSans.ttf" font-size="10.00">algorithm</text>
</a>
</g>
</g>
<!-- Node6&#45;&gt;Node8 -->
<g id="edge8" class="edge">
<title>Node6&#45;&gt;Node8</title>
<path fill="none" stroke="midnightblue" d="M545.5,-56.44C576.68,-47.24 626.43,-32.56 660.91,-22.39"/>
<polygon fill="midnightblue" stroke="midnightblue" points="662.04,-25.7 670.64,-19.52 660.06,-18.99 662.04,-25.7"/>
</g>
<!-- Node9 -->
<g id="node9" class="node">
<title>Node9</title>
<g id="a_node9"><a xlink:title=" ">
<polygon fill="none" stroke="#bfbfbf" points="749.5,-0.5 749.5,-19.5 791.5,-19.5 791.5,-0.5 749.5,-0.5"/>
<text text-anchor="middle" x="770.5" y="-7.5" font-family="FreeSans.ttf" font-size="10.00">array</text>
</a>
</g>
</g>
<!-- Node6&#45;&gt;Node9 -->
<g id="edge9" class="edge">
<title>Node6&#45;&gt;Node9</title>
<path fill="none" stroke="midnightblue" d="M565.73,-56.47C609.09,-48.66 674.12,-36.2 739.24,-20.14"/>
<polygon fill="midnightblue" stroke="midnightblue" points="740.41,-23.45 749.26,-17.64 738.71,-16.66 740.41,-23.45"/>
</g>
<!-- Node10 -->
<g id="node10" class="node">
<title>Node10</title>
<g id="a_node10"><a xlink:title=" ">
<polygon fill="none" stroke="#bfbfbf" points="810,-0.5 810,-19.5 863,-19.5 863,-0.5 810,-0.5"/>
<text text-anchor="middle" x="836.5" y="-7.5" font-family="FreeSans.ttf" font-size="10.00">iterator</text>
</a>
</g>
</g>
<!-- Node6&#45;&gt;Node10 -->
<g id="edge11" class="edge">
<title>Node6&#45;&gt;Node10</title>
<path fill="none" stroke="midnightblue" d="M577.16,-56.96C632.66,-49.25 717.21,-36.61 800,-19.94"/>
<polygon fill="midnightblue" stroke="midnightblue" points="800.72,-23.37 809.82,-17.95 799.33,-16.51 800.72,-23.37"/>
</g>
<!-- Node11 -->
<g id="node11" class="node">
<title>Node11</title>
<g id="a_node11"><a xlink:title=" ">
<polygon fill="none" stroke="#bfbfbf" points="371.5,-0.5 371.5,-19.5 415.5,-19.5 415.5,-0.5 371.5,-0.5"/>
<text text-anchor="middle" x="393.5" y="-7.5" font-family="FreeSans.ttf" font-size="10.00">limits</text>
</a>
</g>
</g>
<!-- Node6&#45;&gt;Node11 -->
<g id="edge12" class="edge">
<title>Node6&#45;&gt;Node11</title>
<path fill="none" stroke="midnightblue" d="M497.01,-56.44C476.86,-47.6 445.18,-33.69 422.17,-23.59"/>
<polygon fill="midnightblue" stroke="midnightblue" points="423.46,-20.33 412.9,-19.52 420.65,-26.74 423.46,-20.33"/>
</g>
<!-- Node12 -->
<g id="node12" class="node">
<title>Node12</title>
<g id="a_node12"><a xlink:title=" ">
<polygon fill="none" stroke="#bfbfbf" points="434,-0.5 434,-19.5 499,-19.5 499,-0.5 434,-0.5"/>
<text text-anchor="middle" x="466.5" y="-7.5" font-family="FreeSans.ttf" font-size="10.00">stdexcept</text>
</a>
</g>
</g>
<!-- Node6&#45;&gt;Node12 -->
<g id="edge13" class="edge">
<title>Node6&#45;&gt;Node12</title>
<path fill="none" stroke="midnightblue" d="M508.24,-56.08C501.04,-48.3 490.39,-36.8 481.65,-27.37"/>
<polygon fill="midnightblue" stroke="midnightblue" points="483.97,-24.71 474.6,-19.75 478.83,-29.47 483.97,-24.71"/>
</g>
<!-- Node13 -->
<g id="node13" class="node">
<title>Node13</title>
<g id="a_node13"><a xlink:title=" ">
<polygon fill="none" stroke="#bfbfbf" points="517,-0.5 517,-19.5 586,-19.5 586,-0.5 517,-0.5"/>
<text text-anchor="middle" x="551.5" y="-7.5" font-family="FreeSans.ttf" font-size="10.00">type_traits</text>
</a>
</g>
</g>
<!-- Node6&#45;&gt;Node13 -->
<g id="edge14" class="edge">
<title>Node6&#45;&gt;Node13</title>
<path fill="none" stroke="midnightblue" d="M522.28,-56.08C527.17,-48.53 534.33,-37.49 540.33,-28.23"/>
<polygon fill="midnightblue" stroke="midnightblue" points="543.33,-30.05 545.83,-19.75 537.45,-26.24 543.33,-30.05"/>
</g>
<!-- Node14 -->
<g id="node14" class="node">
<title>Node14</title>
<g id="a_node14"><a xlink:title=" ">
<polygon fill="none" stroke="#bfbfbf" points="604,-0.5 604,-19.5 649,-19.5 649,-0.5 604,-0.5"/>
<text text-anchor="middle" x="626.5" y="-7.5" font-family="FreeSans.ttf" font-size="10.00">utility</text>
</a>
</g>
</g>
<!-- Node6&#45;&gt;Node14 -->
<g id="edge15" class="edge">
<title>Node6&#45;&gt;Node14</title>
<path fill="none" stroke="midnightblue" d="M534.17,-56.32C551.89,-47.62 579.4,-34.12 599.79,-24.11"/>
<polygon fill="midnightblue" stroke="midnightblue" points="601.44,-27.2 608.87,-19.65 598.35,-20.92 601.44,-27.2"/>
</g>
<!-- Node18&#45;&gt;Node3 -->
<g id="edge22" class="edge">
<title>Node18&#45;&gt;Node3</title>
<path fill="none" stroke="midnightblue" d="M427.46,-112.1C426.9,-98.2 423.77,-71.32 408.5,-56 404.3,-51.78 336.34,-32.71 292.73,-20.79"/>
<polygon fill="midnightblue" stroke="midnightblue" points="293.59,-17.4 283.02,-18.14 291.75,-24.15 293.59,-17.4"/>
</g>
<!-- Node18&#45;&gt;Node15 -->
<g id="edge23" class="edge">
<title>Node18&#45;&gt;Node15</title>
<path fill="none" stroke="midnightblue" d="M419.24,-112.08C412.04,-104.3 401.39,-92.8 392.65,-83.37"/>
<polygon fill="midnightblue" stroke="midnightblue" points="394.97,-80.71 385.6,-75.75 389.83,-85.47 394.97,-80.71"/>
</g>
<!-- Node19 -->
<g id="node19" class="node">
<title>Node19</title>
<g id="a_node19"><a xlink:title=" ">
<polygon fill="none" stroke="#bfbfbf" points="595,-56.5 595,-75.5 682,-75.5 682,-56.5 595,-56.5"/>
<text text-anchor="middle" x="638.5" y="-63.5" font-family="FreeSans.ttf" font-size="10.00">ModelExport.h</text>
</a>
</g>
</g>
<!-- Node18&#45;&gt;Node19 -->
<g id="edge24" class="edge">
<title>Node18&#45;&gt;Node19</title>
<path fill="none" stroke="midnightblue" d="M460.93,-112.44C497.36,-103.12 555.73,-88.18 595.53,-78"/>
<polygon fill="midnightblue" stroke="midnightblue" points="596.4,-81.39 605.22,-75.52 594.67,-74.61 596.4,-81.39"/>
</g>
</g>
</svg>
