<?xml version="1.0" encoding="UTF-8" standalone="no"?>
<!DOCTYPE svg PUBLIC "-//W3C//DTD SVG 1.1//EN"
 "http://www.w3.org/Graphics/SVG/1.1/DTD/svg11.dtd">
<!-- Generated by graphviz version 2.43.0 (0)
 -->
<!-- Title: ChartsManagerWindow.h Pages: 1 -->
<svg width="358pt" height="140pt"
 viewBox="0.00 0.00 357.50 140.00" xmlns="http://www.w3.org/2000/svg" xmlns:xlink="http://www.w3.org/1999/xlink">
<g id="graph0" class="graph" transform="scale(1 1) rotate(0) translate(4 136)">
<title>ChartsManagerWindow.h</title>
<!-- Node1 -->
<g id="node1" class="node">
<title>Node1</title>
<g id="a_node1"><a xlink:title=" ">
<polygon fill="#bfbfbf" stroke="black" points="64,-112.5 64,-131.5 202,-131.5 202,-112.5 64,-112.5"/>
<text text-anchor="middle" x="133" y="-119.5" font-family="FreeSans.ttf" font-size="10.00">ChartsManagerWindow.h</text>
</a>
</g>
</g>
<!-- Node2 -->
<g id="node2" class="node">
<title>Node2</title>
<g id="a_node2"><a xlink:href="ChartsManager_8h.html" target="_top" xlink:title=" ">
<polygon fill="none" stroke="black" points="83.5,-56.5 83.5,-75.5 182.5,-75.5 182.5,-56.5 83.5,-56.5"/>
<text text-anchor="middle" x="133" y="-63.5" font-family="FreeSans.ttf" font-size="10.00">ChartsManager.h</text>
</a>
</g>
</g>
<!-- Node1&#45;&gt;Node2 -->
<g id="edge1" class="edge">
<title>Node1&#45;&gt;Node2</title>
<path fill="none" stroke="midnightblue" d="M133,-101.8C133,-92.91 133,-82.78 133,-75.75"/>
<polygon fill="midnightblue" stroke="midnightblue" points="129.5,-102.08 133,-112.08 136.5,-102.08 129.5,-102.08"/>
</g>
<!-- Node3 -->
<g id="node3" class="node">
<title>Node3</title>
<g id="a_node3"><a xlink:href="ChartsManager_8cpp.html" target="_top" xlink:title=" ">
<polygon fill="none" stroke="black" points="0,-0.5 0,-19.5 110,-19.5 110,-0.5 0,-0.5"/>
<text text-anchor="middle" x="55" y="-7.5" font-family="FreeSans.ttf" font-size="10.00">ChartsManager.cpp</text>
</a>
</g>
</g>
<!-- Node1&#45;&gt;Node3 -->
<g id="edge4" class="edge">
<title>Node1&#45;&gt;Node3</title>
<path fill="none" stroke="midnightblue" d="M108.01,-107.09C96.16,-99.34 82.72,-88.69 74,-76 61.89,-58.36 57.39,-32.95 55.81,-19.73"/>
<polygon fill="midnightblue" stroke="midnightblue" points="106.31,-110.16 116.66,-112.44 109.99,-104.2 106.31,-110.16"/>
</g>
<!-- Node5 -->
<g id="node5" class="node">
<title>Node5</title>
<g id="a_node5"><a xlink:href="ChartsManagerWindow_8cpp.html" target="_top" xlink:title=" ">
<polygon fill="none" stroke="black" points="200.5,-56.5 200.5,-75.5 349.5,-75.5 349.5,-56.5 200.5,-56.5"/>
<text text-anchor="middle" x="275" y="-63.5" font-family="FreeSans.ttf" font-size="10.00">ChartsManagerWindow.cpp</text>
</a>
</g>
</g>
<!-- Node1&#45;&gt;Node5 -->
<g id="edge5" class="edge">
<title>Node1&#45;&gt;Node5</title>
<path fill="none" stroke="midnightblue" d="M165.16,-108.77C191.83,-98.63 229.07,-84.47 252.6,-75.52"/>
<polygon fill="midnightblue" stroke="midnightblue" points="163.6,-105.62 155.5,-112.44 166.09,-112.16 163.6,-105.62"/>
</g>
<!-- Node2&#45;&gt;Node3 -->
<g id="edge2" class="edge">
<title>Node2&#45;&gt;Node3</title>
<path fill="none" stroke="midnightblue" d="M112.23,-50.62C97.98,-40.76 79.54,-27.99 67.5,-19.65"/>
<polygon fill="midnightblue" stroke="midnightblue" points="110.25,-53.51 120.47,-56.32 114.24,-47.75 110.25,-53.51"/>
</g>
<!-- Node4 -->
<g id="node4" class="node">
<title>Node4</title>
<g id="a_node4"><a xlink:href="plotter_2src_2main_8cpp.html" target="_top" xlink:title=" ">
<polygon fill="none" stroke="black" points="128,-0.5 128,-19.5 190,-19.5 190,-0.5 128,-0.5"/>
<text text-anchor="middle" x="159" y="-7.5" font-family="FreeSans.ttf" font-size="10.00">main.cpp</text>
</a>
</g>
</g>
<!-- Node2&#45;&gt;Node4 -->
<g id="edge3" class="edge">
<title>Node2&#45;&gt;Node4</title>
<path fill="none" stroke="midnightblue" d="M141.67,-46.98C146.09,-37.82 151.25,-27.09 154.79,-19.75"/>
<polygon fill="midnightblue" stroke="midnightblue" points="138.48,-45.55 137.29,-56.08 144.79,-48.59 138.48,-45.55"/>
</g>
</g>
</svg>
