<?xml version="1.0" encoding="UTF-8" standalone="no"?>
<!DOCTYPE svg PUBLIC "-//W3C//DTD SVG 1.1//EN"
 "http://www.w3.org/Graphics/SVG/1.1/DTD/svg11.dtd">
<!-- Generated by graphviz version 2.43.0 (0)
 -->
<!-- Title: iDynTree::Transform Pages: 1 -->
<svg width="281pt" height="287pt"
 viewBox="0.00 0.00 281.00 287.00" xmlns="http://www.w3.org/2000/svg" xmlns:xlink="http://www.w3.org/1999/xlink">
<g id="graph0" class="graph" transform="scale(1 1) rotate(0) translate(4 283)">
<title>iDynTree::Transform</title>
<!-- Node1 -->
<g id="node1" class="node">
<title>Node1</title>
<g id="a_node1"><a xlink:title="Class representation the relative displacement between two different frames.">
<polygon fill="#bfbfbf" stroke="black" points="85.5,-0.5 85.5,-19.5 199.5,-19.5 199.5,-0.5 85.5,-0.5"/>
<text text-anchor="middle" x="142.5" y="-7.5" font-family="FreeSans.ttf" font-size="10.00">iDynTree::Transform</text>
</a>
</g>
</g>
<!-- Node2 -->
<g id="node2" class="node">
<title>Node2</title>
<g id="a_node2"><a xlink:href="classiDynTree_1_1Rotation.html" target="_top" xlink:title="Class representation the rotation of an orientation frame with respect to a reference orientation fra...">
<polygon fill="none" stroke="black" points="27,-67.5 27,-86.5 134,-86.5 134,-67.5 27,-67.5"/>
<text text-anchor="middle" x="80.5" y="-74.5" font-family="FreeSans.ttf" font-size="10.00">iDynTree::Rotation</text>
</a>
</g>
</g>
<!-- Node2&#45;&gt;Node1 -->
<g id="edge1" class="edge">
<title>Node2&#45;&gt;Node1</title>
<path fill="none" stroke="#9a32cd" stroke-dasharray="5,2" d="M95.76,-60C107.92,-47.25 124.48,-29.89 134.27,-19.63"/>
<polygon fill="#9a32cd" stroke="#9a32cd" points="93.23,-57.58 88.86,-67.23 98.3,-62.41 93.23,-57.58"/>
<text text-anchor="middle" x="124" y="-41" font-family="FreeSans.ttf" font-size="10.00"> rot</text>
</g>
<!-- Node3 -->
<g id="node3" class="node">
<title>Node3</title>
<g id="a_node3"><a xlink:href="classiDynTree_1_1RotationRaw.html" target="_top" xlink:title="Class providing the raw coordinates for iDynTree::Rotation class.">
<polygon fill="none" stroke="black" points="1.5,-124.5 1.5,-143.5 129.5,-143.5 129.5,-124.5 1.5,-124.5"/>
<text text-anchor="middle" x="65.5" y="-131.5" font-family="FreeSans.ttf" font-size="10.00">iDynTree::RotationRaw</text>
</a>
</g>
</g>
<!-- Node3&#45;&gt;Node2 -->
<g id="edge2" class="edge">
<title>Node3&#45;&gt;Node2</title>
<path fill="none" stroke="midnightblue" d="M70.48,-114.73C73.06,-105.29 76.08,-94.22 78.12,-86.71"/>
<polygon fill="midnightblue" stroke="midnightblue" points="67.1,-113.84 67.84,-124.41 73.85,-115.68 67.1,-113.84"/>
</g>
<!-- Node4 -->
<g id="node4" class="node">
<title>Node4</title>
<g id="a_node4"><a xlink:href="classiDynTree_1_1MatrixFixSize.html" target="_top" xlink:title=" ">
<polygon fill="none" stroke="black" points="32.5,-181.5 32.5,-200.5 98.5,-200.5 98.5,-181.5 32.5,-181.5"/>
<text text-anchor="middle" x="65.5" y="-188.5" font-family="FreeSans.ttf" font-size="10.00">Matrix3x3</text>
</a>
</g>
</g>
<!-- Node4&#45;&gt;Node3 -->
<g id="edge3" class="edge">
<title>Node4&#45;&gt;Node3</title>
<path fill="none" stroke="midnightblue" d="M65.5,-171.12C65.5,-161.82 65.5,-151.06 65.5,-143.71"/>
<polygon fill="midnightblue" stroke="midnightblue" points="62,-171.41 65.5,-181.41 69,-171.41 62,-171.41"/>
</g>
<!-- Node5 -->
<g id="node5" class="node">
<title>Node5</title>
<g id="a_node5"><a xlink:href="classiDynTree_1_1MatrixFixSize.html" target="_top" xlink:title="Class providing a simple form of matrix with dynamic size.">
<polygon fill="none" stroke="black" points="0,-248.5 0,-278.5 131,-278.5 131,-248.5 0,-248.5"/>
<text text-anchor="start" x="8" y="-266.5" font-family="FreeSans.ttf" font-size="10.00">iDynTree::MatrixFixSize</text>
<text text-anchor="middle" x="65.5" y="-255.5" font-family="FreeSans.ttf" font-size="10.00">&lt; nRows, nCols &gt;</text>
</a>
</g>
</g>
<!-- Node5&#45;&gt;Node4 -->
<g id="edge4" class="edge">
<title>Node5&#45;&gt;Node4</title>
<path fill="none" stroke="orange" stroke-dasharray="5,2" d="M65.5,-238.09C65.5,-225.21 65.5,-210.2 65.5,-200.89"/>
<polygon fill="orange" stroke="orange" points="62,-238.23 65.5,-248.23 69,-238.23 62,-238.23"/>
<text text-anchor="middle" x="87.5" y="-222" font-family="FreeSans.ttf" font-size="10.00"> &lt; 3, 3 &gt;</text>
</g>
<!-- Node6 -->
<g id="node6" class="node">
<title>Node6</title>
<g id="a_node6"><a xlink:href="classiDynTree_1_1Position.html" target="_top" xlink:title="Class representation the coordinates of the Position of a point with respect to another point.">
<polygon fill="none" stroke="black" points="155.5,-67.5 155.5,-86.5 259.5,-86.5 259.5,-67.5 155.5,-67.5"/>
<text text-anchor="middle" x="207.5" y="-74.5" font-family="FreeSans.ttf" font-size="10.00">iDynTree::Position</text>
</a>
</g>
</g>
<!-- Node6&#45;&gt;Node1 -->
<g id="edge5" class="edge">
<title>Node6&#45;&gt;Node1</title>
<path fill="none" stroke="#9a32cd" stroke-dasharray="5,2" d="M191.5,-60C178.75,-47.25 161.39,-29.89 151.13,-19.63"/>
<polygon fill="#9a32cd" stroke="#9a32cd" points="189.19,-62.64 198.73,-67.23 194.14,-57.69 189.19,-62.64"/>
<text text-anchor="middle" x="190" y="-41" font-family="FreeSans.ttf" font-size="10.00"> pos</text>
</g>
<!-- Node7 -->
<g id="node7" class="node">
<title>Node7</title>
<g id="a_node7"><a xlink:href="classiDynTree_1_1PositionRaw.html" target="_top" xlink:title="Class providing the raw coordinates for iDynTree::Position class.">
<polygon fill="none" stroke="black" points="148,-124.5 148,-143.5 273,-143.5 273,-124.5 148,-124.5"/>
<text text-anchor="middle" x="210.5" y="-131.5" font-family="FreeSans.ttf" font-size="10.00">iDynTree::PositionRaw</text>
</a>
</g>
</g>
<!-- Node7&#45;&gt;Node6 -->
<g id="edge6" class="edge">
<title>Node7&#45;&gt;Node6</title>
<path fill="none" stroke="midnightblue" d="M209.47,-114.12C208.96,-104.82 208.38,-94.06 207.98,-86.71"/>
<polygon fill="midnightblue" stroke="midnightblue" points="205.99,-114.61 210.03,-124.41 212.98,-114.23 205.99,-114.61"/>
</g>
<!-- Node8 -->
<g id="node8" class="node">
<title>Node8</title>
<g id="a_node8"><a xlink:href="classiDynTree_1_1VectorFixSize.html" target="_top" xlink:title="Class providing a simple vector of N elements.">
<polygon fill="none" stroke="black" points="184,-181.5 184,-200.5 237,-200.5 237,-181.5 184,-181.5"/>
<text text-anchor="middle" x="210.5" y="-188.5" font-family="FreeSans.ttf" font-size="10.00">Vector3</text>
</a>
</g>
</g>
<!-- Node8&#45;&gt;Node7 -->
<g id="edge7" class="edge">
<title>Node8&#45;&gt;Node7</title>
<path fill="none" stroke="midnightblue" d="M210.5,-171.12C210.5,-161.82 210.5,-151.06 210.5,-143.71"/>
<polygon fill="midnightblue" stroke="midnightblue" points="207,-171.41 210.5,-181.41 214,-171.41 207,-171.41"/>
</g>
</g>
</svg>
