<?xml version="1.0" encoding="UTF-8" standalone="no"?>
<!DOCTYPE svg PUBLIC "-//W3C//DTD SVG 1.1//EN"
 "http://www.w3.org/Graphics/SVG/1.1/DTD/svg11.dtd">
<!-- Generated by graphviz version 2.43.0 (0)
 -->
<!-- Title: iDynTree::optimalcontrol::QuadraticLikeCost Pages: 1 -->
<svg width="390pt" height="172pt"
 viewBox="0.00 0.00 389.50 172.00" xmlns="http://www.w3.org/2000/svg" xmlns:xlink="http://www.w3.org/1999/xlink">
<g id="graph0" class="graph" transform="scale(1 1) rotate(0) translate(4 168)">
<title>iDynTree::optimalcontrol::QuadraticLikeCost</title>
<!-- Node1 -->
<g id="node1" class="node">
<title>Node1</title>
<g id="a_node1"><a xlink:title=" ">
<polygon fill="#bfbfbf" stroke="black" points="77,-0.5 77,-30.5 214,-30.5 214,-0.5 77,-0.5"/>
<text text-anchor="start" x="85" y="-18.5" font-family="FreeSans.ttf" font-size="10.00">iDynTree::optimalcontrol</text>
<text text-anchor="middle" x="145.5" y="-7.5" font-family="FreeSans.ttf" font-size="10.00">::QuadraticLikeCost</text>
</a>
</g>
</g>
<!-- Node2 -->
<g id="node2" class="node">
<title>Node2</title>
<g id="a_node2"><a xlink:href="classiDynTree_1_1optimalcontrol_1_1Cost.html" target="_top" xlink:title="The Cost virtual class definition.">
<polygon fill="none" stroke="black" points="0,-133.5 0,-163.5 137,-163.5 137,-133.5 0,-133.5"/>
<text text-anchor="start" x="8" y="-151.5" font-family="FreeSans.ttf" font-size="10.00">iDynTree::optimalcontrol</text>
<text text-anchor="middle" x="68.5" y="-140.5" font-family="FreeSans.ttf" font-size="10.00">::Cost</text>
</a>
</g>
</g>
<!-- Node2&#45;&gt;Node1 -->
<g id="edge1" class="edge">
<title>Node2&#45;&gt;Node1</title>
<path fill="none" stroke="midnightblue" d="M81.9,-124.7C97.79,-97.67 123.79,-53.44 137.09,-30.82"/>
<polygon fill="midnightblue" stroke="midnightblue" points="78.79,-123.09 76.74,-133.48 84.83,-126.63 78.79,-123.09"/>
</g>
<!-- Node3 -->
<g id="node3" class="node">
<title>Node3</title>
<g id="a_node3"><a xlink:href="classiDynTree_1_1optimalcontrol_1_1SparsityStructure.html" target="_top" xlink:title=" ">
<polygon fill="none" stroke="black" points="155,-133.5 155,-163.5 292,-163.5 292,-133.5 155,-133.5"/>
<text text-anchor="start" x="163" y="-151.5" font-family="FreeSans.ttf" font-size="10.00">iDynTree::optimalcontrol</text>
<text text-anchor="middle" x="223.5" y="-140.5" font-family="FreeSans.ttf" font-size="10.00">::SparsityStructure</text>
</a>
</g>
</g>
<!-- Node3&#45;&gt;Node1 -->
<g id="edge2" class="edge">
<title>Node3&#45;&gt;Node1</title>
<path fill="none" stroke="#9a32cd" stroke-dasharray="5,2" d="M209.92,-124.7C193.83,-97.67 167.5,-53.44 154.02,-30.82"/>
<polygon fill="#9a32cd" stroke="#9a32cd" points="207.03,-126.68 215.15,-133.48 213.04,-123.1 207.03,-126.68"/>
<text text-anchor="start" x="202.5" y="-107" font-family="FreeSans.ttf" font-size="10.00"> m_secondPartialDerivative</text>
<text text-anchor="middle" x="292" y="-96" font-family="FreeSans.ttf" font-size="10.00">WRTControlSparsity</text>
<text text-anchor="start" x="202.5" y="-85" font-family="FreeSans.ttf" font-size="10.00">m_secondPartialDerivativeWRTState</text>
<text text-anchor="middle" x="292" y="-74" font-family="FreeSans.ttf" font-size="10.00">Sparsity</text>
<text text-anchor="start" x="202.5" y="-63" font-family="FreeSans.ttf" font-size="10.00">m_secondPartialDerivativeWRTState</text>
<text text-anchor="middle" x="292" y="-52" font-family="FreeSans.ttf" font-size="10.00">ControlSparsity</text>
</g>
</g>
</svg>
