<?xml version="1.0" encoding="UTF-8" standalone="no"?>
<!DOCTYPE svg PUBLIC "-//W3C//DTD SVG 1.1//EN"
 "http://www.w3.org/Graphics/SVG/1.1/DTD/svg11.dtd">
<!-- Generated by graphviz version 2.43.0 (0)
 -->
<!-- Title: internal::kinematics::InverseKinematicsData Pages: 1 -->
<svg width="2001pt" height="502pt"
 viewBox="0.00 0.00 2001.00 502.00" xmlns="http://www.w3.org/2000/svg" xmlns:xlink="http://www.w3.org/1999/xlink">
<g id="graph0" class="graph" transform="scale(1 1) rotate(0) translate(4 498)">
<title>internal::kinematics::InverseKinematicsData</title>
<!-- Node1 -->
<g id="node1" class="node">
<title>Node1</title>
<g id="a_node1"><a xlink:title=" ">
<polygon fill="#bfbfbf" stroke="black" points="1856,-297 1856,-327 1993,-327 1993,-297 1856,-297"/>
<text text-anchor="start" x="1864" y="-315" font-family="FreeSans.ttf" font-size="10.00">internal::kinematics</text>
<text text-anchor="middle" x="1924.5" y="-304" font-family="FreeSans.ttf" font-size="10.00">::InverseKinematicsData</text>
</a>
</g>
</g>
<!-- Node2 -->
<g id="node2" class="node">
<title>Node2</title>
<g id="a_node2"><a xlink:href="classiDynTree_1_1KinDynComputations.html" target="_top" xlink:title="High level stateful class wrapping several kinematics and dynamics algorithms.">
<polygon fill="none" stroke="black" points="1534.5,-468.5 1534.5,-487.5 1703.5,-487.5 1703.5,-468.5 1534.5,-468.5"/>
<text text-anchor="middle" x="1619" y="-475.5" font-family="FreeSans.ttf" font-size="10.00">iDynTree::KinDynComputations</text>
</a>
</g>
</g>
<!-- Node2&#45;&gt;Node1 -->
<g id="edge1" class="edge">
<title>Node2&#45;&gt;Node1</title>
<path fill="none" stroke="#9a32cd" stroke-dasharray="5,2" d="M1713.71,-484.52C1754.7,-483.11 1801.63,-475.35 1838,-452 1884.5,-422.16 1909.62,-357.15 1919.07,-327.41"/>
<polygon fill="#9a32cd" stroke="#9a32cd" points="1713.62,-481.02 1703.7,-484.74 1713.78,-488.02 1713.62,-481.02"/>
<text text-anchor="middle" x="1780" y="-486" font-family="FreeSans.ttf" font-size="10.00"> m_dynamics</text>
</g>
<!-- Node3 -->
<g id="node3" class="node">
<title>Node3</title>
<g id="a_node3"><a xlink:href="classiDynTree_1_1Model.html" target="_top" xlink:title="Class that represents a generic multibody model.">
<polygon fill="none" stroke="black" points="1571.5,-430.5 1571.5,-449.5 1666.5,-449.5 1666.5,-430.5 1571.5,-430.5"/>
<text text-anchor="middle" x="1619" y="-437.5" font-family="FreeSans.ttf" font-size="10.00">iDynTree::Model</text>
</a>
</g>
</g>
<!-- Node3&#45;&gt;Node1 -->
<g id="edge2" class="edge">
<title>Node3&#45;&gt;Node1</title>
<path fill="none" stroke="#9a32cd" stroke-dasharray="5,2" d="M1677.02,-439.17C1732.14,-437.5 1811.13,-432.55 1838,-418 1876.46,-397.17 1903.99,-351.09 1916.29,-327.13"/>
<polygon fill="#9a32cd" stroke="#9a32cd" points="1676.58,-435.68 1666.68,-439.46 1676.77,-442.68 1676.58,-435.68"/>
<text text-anchor="middle" x="1780" y="-440" font-family="FreeSans.ttf" font-size="10.00"> reducedModel</text>
</g>
<!-- Node4 -->
<g id="node4" class="node">
<title>Node4</title>
<g id="a_node4"><a xlink:href="classiDynTree_1_1Transform.html" target="_top" xlink:title="Class representation the relative displacement between two different frames.">
<polygon fill="none" stroke="black" points="1562,-392.5 1562,-411.5 1676,-411.5 1676,-392.5 1562,-392.5"/>
<text text-anchor="middle" x="1619" y="-399.5" font-family="FreeSans.ttf" font-size="10.00">iDynTree::Transform</text>
</a>
</g>
</g>
<!-- Node4&#45;&gt;Node1 -->
<g id="edge3" class="edge">
<title>Node4&#45;&gt;Node1</title>
<path fill="none" stroke="#9a32cd" stroke-dasharray="5,2" d="M1681.46,-390.55C1735.44,-380.17 1809.64,-365 1838,-355 1858.84,-347.65 1881.1,-336.33 1897.69,-327.15"/>
<polygon fill="#9a32cd" stroke="#9a32cd" points="1680.8,-387.12 1671.64,-392.43 1682.12,-393.99 1680.8,-387.12"/>
<text text-anchor="middle" x="1780" y="-407" font-family="FreeSans.ttf" font-size="10.00"> m_baseInitialCondition</text>
<text text-anchor="middle" x="1780" y="-396" font-family="FreeSans.ttf" font-size="10.00">basePose</text>
<text text-anchor="middle" x="1780" y="-385" font-family="FreeSans.ttf" font-size="10.00">m_baseResults</text>
</g>
<!-- Node5 -->
<g id="node5" class="node">
<title>Node5</title>
<g id="a_node5"><a xlink:href="classiDynTree_1_1Rotation.html" target="_top" xlink:title="Class representation the rotation of an orientation frame with respect to a reference orientation fra...">
<polygon fill="none" stroke="black" points="1253.5,-375.5 1253.5,-394.5 1360.5,-394.5 1360.5,-375.5 1253.5,-375.5"/>
<text text-anchor="middle" x="1307" y="-382.5" font-family="FreeSans.ttf" font-size="10.00">iDynTree::Rotation</text>
</a>
</g>
</g>
<!-- Node5&#45;&gt;Node4 -->
<g id="edge4" class="edge">
<title>Node5&#45;&gt;Node4</title>
<path fill="none" stroke="#9a32cd" stroke-dasharray="5,2" d="M1370.63,-390.42C1382.69,-391.37 1395.23,-392.27 1407,-393 1459.51,-396.24 1519.45,-398.68 1561.99,-400.19"/>
<polygon fill="#9a32cd" stroke="#9a32cd" points="1370.88,-386.93 1360.64,-389.63 1370.33,-393.91 1370.88,-386.93"/>
<text text-anchor="middle" x="1461.5" y="-401" font-family="FreeSans.ttf" font-size="10.00"> rot</text>
</g>
<!-- Node6 -->
<g id="node6" class="node">
<title>Node6</title>
<g id="a_node6"><a xlink:href="classiDynTree_1_1RotationRaw.html" target="_top" xlink:title="Class providing the raw coordinates for iDynTree::Rotation class.">
<polygon fill="none" stroke="black" points="946.5,-364.5 946.5,-383.5 1074.5,-383.5 1074.5,-364.5 946.5,-364.5"/>
<text text-anchor="middle" x="1010.5" y="-371.5" font-family="FreeSans.ttf" font-size="10.00">iDynTree::RotationRaw</text>
</a>
</g>
</g>
<!-- Node6&#45;&gt;Node5 -->
<g id="edge5" class="edge">
<title>Node6&#45;&gt;Node5</title>
<path fill="none" stroke="midnightblue" d="M1084.91,-376.74C1137.23,-378.7 1206.33,-381.28 1253.26,-383.03"/>
<polygon fill="midnightblue" stroke="midnightblue" points="1084.8,-373.24 1074.68,-376.36 1084.54,-380.23 1084.8,-373.24"/>
</g>
<!-- Node7 -->
<g id="node7" class="node">
<title>Node7</title>
<g id="a_node7"><a xlink:href="classiDynTree_1_1MatrixFixSize.html" target="_top" xlink:title=" ">
<polygon fill="none" stroke="black" points="677,-338.5 677,-357.5 743,-357.5 743,-338.5 677,-338.5"/>
<text text-anchor="middle" x="710" y="-345.5" font-family="FreeSans.ttf" font-size="10.00">Matrix3x3</text>
</a>
</g>
</g>
<!-- Node7&#45;&gt;Node6 -->
<g id="edge6" class="edge">
<title>Node7&#45;&gt;Node6</title>
<path fill="none" stroke="midnightblue" d="M753.45,-351.7C803.86,-356.09 888.41,-363.45 946.47,-368.51"/>
<polygon fill="midnightblue" stroke="midnightblue" points="753.49,-348.19 743.23,-350.81 752.89,-355.16 753.49,-348.19"/>
</g>
<!-- Node8 -->
<g id="node8" class="node">
<title>Node8</title>
<g id="a_node8"><a xlink:href="classiDynTree_1_1MatrixFixSize.html" target="_top" xlink:title="Class providing a simple form of matrix with dynamic size.">
<polygon fill="none" stroke="black" points="381.5,-269 381.5,-299 512.5,-299 512.5,-269 381.5,-269"/>
<text text-anchor="start" x="389.5" y="-287" font-family="FreeSans.ttf" font-size="10.00">iDynTree::MatrixFixSize</text>
<text text-anchor="middle" x="447" y="-276" font-family="FreeSans.ttf" font-size="10.00">&lt; nRows, nCols &gt;</text>
</a>
</g>
</g>
<!-- Node8&#45;&gt;Node7 -->
<g id="edge7" class="edge">
<title>Node8&#45;&gt;Node7</title>
<path fill="none" stroke="orange" stroke-dasharray="5,2" d="M518.94,-301.39C570.41,-314.02 637.61,-330.5 676.77,-340.1"/>
<polygon fill="orange" stroke="orange" points="519.74,-297.99 509.19,-299.01 518.07,-304.79 519.74,-297.99"/>
<text text-anchor="middle" x="596.5" y="-330" font-family="FreeSans.ttf" font-size="10.00"> &lt; 3, 3 &gt;</text>
</g>
<!-- Node21 -->
<g id="node21" class="node">
<title>Node21</title>
<g id="a_node21"><a xlink:href="classiDynTree_1_1MatrixFixSize.html" target="_top" xlink:title=" ">
<polygon fill="none" stroke="black" points="793,-208 793,-238 924,-238 924,-208 793,-208"/>
<text text-anchor="start" x="801" y="-226" font-family="FreeSans.ttf" font-size="10.00">iDynTree::MatrixFixSize</text>
<text text-anchor="middle" x="858.5" y="-215" font-family="FreeSans.ttf" font-size="10.00">&lt; 2, 3 &gt;</text>
</a>
</g>
</g>
<!-- Node8&#45;&gt;Node21 -->
<g id="edge24" class="edge">
<title>Node8&#45;&gt;Node21</title>
<path fill="none" stroke="orange" stroke-dasharray="5,2" d="M523.04,-272.82C600.37,-261.3 719.66,-243.53 792.92,-232.62"/>
<polygon fill="orange" stroke="orange" points="522.26,-269.4 512.89,-274.33 523.29,-276.32 522.26,-269.4"/>
<text text-anchor="middle" x="596.5" y="-269" font-family="FreeSans.ttf" font-size="10.00"> &lt; 2, 3 &gt;</text>
</g>
<!-- Node9 -->
<g id="node9" class="node">
<title>Node9</title>
<g id="a_node9"><a xlink:href="classiDynTree_1_1Position.html" target="_top" xlink:title="Class representation the coordinates of the Position of a point with respect to another point.">
<polygon fill="none" stroke="black" points="1255,-337.5 1255,-356.5 1359,-356.5 1359,-337.5 1255,-337.5"/>
<text text-anchor="middle" x="1307" y="-344.5" font-family="FreeSans.ttf" font-size="10.00">iDynTree::Position</text>
</a>
</g>
</g>
<!-- Node9&#45;&gt;Node1 -->
<g id="edge18" class="edge">
<title>Node9&#45;&gt;Node1</title>
<path fill="none" stroke="#9a32cd" stroke-dasharray="5,2" d="M1369.26,-343.52C1484.99,-336.94 1734.95,-322.72 1855.61,-315.86"/>
<polygon fill="#9a32cd" stroke="#9a32cd" points="1368.94,-340.03 1359.16,-344.09 1369.34,-347.02 1368.94,-340.03"/>
<text text-anchor="start" x="1564.5" y="-359" font-family="FreeSans.ttf" font-size="10.00"> m_comHullConstraint</text>
<text text-anchor="middle" x="1619" y="-348" font-family="FreeSans.ttf" font-size="10.00">_originOfPlaneInWorld</text>
<text text-anchor="middle" x="1619" y="-337" font-family="FreeSans.ttf" font-size="10.00">desiredPosition</text>
</g>
<!-- Node9&#45;&gt;Node4 -->
<g id="edge8" class="edge">
<title>Node9&#45;&gt;Node4</title>
<path fill="none" stroke="#9a32cd" stroke-dasharray="5,2" d="M1369.38,-355.83C1410.88,-362.02 1466.86,-370.81 1516,-380 1535.94,-383.73 1557.96,-388.41 1576.42,-392.49"/>
<polygon fill="#9a32cd" stroke="#9a32cd" points="1369.83,-352.36 1359.42,-354.35 1368.8,-359.28 1369.83,-352.36"/>
<text text-anchor="middle" x="1461.5" y="-383" font-family="FreeSans.ttf" font-size="10.00"> pos</text>
</g>
<!-- Node19 -->
<g id="node19" class="node">
<title>Node19</title>
<g id="a_node19"><a xlink:href="classiDynTree_1_1ConvexHullProjectionConstraint.html" target="_top" xlink:title="ConvexHullProjectionConstraint helper.">
<polygon fill="none" stroke="black" points="1534,-204 1534,-234 1704,-234 1704,-204 1534,-204"/>
<text text-anchor="start" x="1542" y="-222" font-family="FreeSans.ttf" font-size="10.00">iDynTree::ConvexHullProjection</text>
<text text-anchor="middle" x="1619" y="-211" font-family="FreeSans.ttf" font-size="10.00">Constraint</text>
</a>
</g>
</g>
<!-- Node9&#45;&gt;Node19 -->
<g id="edge26" class="edge">
<title>Node9&#45;&gt;Node19</title>
<path fill="none" stroke="#9a32cd" stroke-dasharray="5,2" d="M1321.54,-329.55C1338.91,-308.49 1371.12,-273.71 1407,-256 1418.63,-250.26 1480.24,-239.79 1533.91,-231.45"/>
<polygon fill="#9a32cd" stroke="#9a32cd" points="1318.77,-327.41 1315.23,-337.39 1324.23,-331.79 1318.77,-327.41"/>
<text text-anchor="middle" x="1461.5" y="-259" font-family="FreeSans.ttf" font-size="10.00"> o</text>
</g>
<!-- Node10 -->
<g id="node10" class="node">
<title>Node10</title>
<g id="a_node10"><a xlink:href="classiDynTree_1_1PositionRaw.html" target="_top" xlink:title="Class providing the raw coordinates for iDynTree::Position class.">
<polygon fill="none" stroke="black" points="948,-323.5 948,-342.5 1073,-342.5 1073,-323.5 948,-323.5"/>
<text text-anchor="middle" x="1010.5" y="-330.5" font-family="FreeSans.ttf" font-size="10.00">iDynTree::PositionRaw</text>
</a>
</g>
</g>
<!-- Node10&#45;&gt;Node9 -->
<g id="edge9" class="edge">
<title>Node10&#45;&gt;Node9</title>
<path fill="none" stroke="midnightblue" d="M1083.26,-336.41C1136.28,-338.93 1207.21,-342.3 1254.65,-344.56"/>
<polygon fill="midnightblue" stroke="midnightblue" points="1083.39,-332.91 1073.24,-335.93 1083.06,-339.91 1083.39,-332.91"/>
</g>
<!-- Node11 -->
<g id="node11" class="node">
<title>Node11</title>
<g id="a_node11"><a xlink:href="classiDynTree_1_1VectorFixSize.html" target="_top" xlink:title="Class providing a simple vector of N elements.">
<polygon fill="none" stroke="black" points="683.5,-287.5 683.5,-306.5 736.5,-306.5 736.5,-287.5 683.5,-287.5"/>
<text text-anchor="middle" x="710" y="-294.5" font-family="FreeSans.ttf" font-size="10.00">Vector3</text>
</a>
</g>
</g>
<!-- Node11&#45;&gt;Node10 -->
<g id="edge10" class="edge">
<title>Node11&#45;&gt;Node10</title>
<path fill="none" stroke="midnightblue" d="M746.67,-301.3C796.38,-307.3 887.23,-318.25 947.99,-325.58"/>
<polygon fill="midnightblue" stroke="midnightblue" points="747.06,-297.82 736.71,-300.1 746.22,-304.77 747.06,-297.82"/>
</g>
<!-- Node18 -->
<g id="node18" class="node">
<title>Node18</title>
<g id="a_node18"><a xlink:href="classiDynTree_1_1Direction.html" target="_top" xlink:title="Class representing the coordinates of a direction in the 3D space.">
<polygon fill="none" stroke="black" points="1097,-279.5 1097,-298.5 1207,-298.5 1207,-279.5 1097,-279.5"/>
<text text-anchor="middle" x="1152" y="-286.5" font-family="FreeSans.ttf" font-size="10.00">iDynTree::Direction</text>
</a>
</g>
</g>
<!-- Node11&#45;&gt;Node18 -->
<g id="edge20" class="edge">
<title>Node11&#45;&gt;Node18</title>
<path fill="none" stroke="midnightblue" d="M746.7,-296.35C823.66,-294.95 1005.59,-291.64 1096.84,-289.98"/>
<polygon fill="midnightblue" stroke="midnightblue" points="746.49,-292.85 736.56,-296.54 746.62,-299.85 746.49,-292.85"/>
</g>
<!-- Node12 -->
<g id="node12" class="node">
<title>Node12</title>
<g id="a_node12"><a xlink:href="classiDynTree_1_1Twist.html" target="_top" xlink:title="Class representing a twist, i.e.">
<polygon fill="none" stroke="black" points="1574,-28.5 1574,-47.5 1664,-47.5 1664,-28.5 1574,-28.5"/>
<text text-anchor="middle" x="1619" y="-35.5" font-family="FreeSans.ttf" font-size="10.00">iDynTree::Twist</text>
</a>
</g>
</g>
<!-- Node12&#45;&gt;Node1 -->
<g id="edge11" class="edge">
<title>Node12&#45;&gt;Node1</title>
<path fill="none" stroke="#9a32cd" stroke-dasharray="5,2" d="M1674.36,-28.02C1722.51,-22.41 1792.11,-22.61 1838,-59 1914.65,-119.79 1923.03,-252.24 1923.61,-296.93"/>
<polygon fill="#9a32cd" stroke="#9a32cd" points="1673.89,-24.55 1664.42,-29.3 1674.78,-31.5 1673.89,-24.55"/>
<text text-anchor="middle" x="1780" y="-62" font-family="FreeSans.ttf" font-size="10.00"> baseTwist</text>
</g>
<!-- Node13 -->
<g id="node13" class="node">
<title>Node13</title>
<g id="a_node13"><a xlink:href="classiDynTree_1_1SpatialMotionVector.html" target="_top" xlink:title="Class providing the raw coordinates for any motion spatial vector (i.e.">
<polygon fill="none" stroke="black" points="1225,-28.5 1225,-47.5 1389,-47.5 1389,-28.5 1225,-28.5"/>
<text text-anchor="middle" x="1307" y="-35.5" font-family="FreeSans.ttf" font-size="10.00">iDynTree::SpatialMotionVector</text>
</a>
</g>
</g>
<!-- Node13&#45;&gt;Node12 -->
<g id="edge12" class="edge">
<title>Node13&#45;&gt;Node12</title>
<path fill="none" stroke="midnightblue" d="M1399.24,-38C1456.77,-38 1528.49,-38 1573.78,-38"/>
<polygon fill="midnightblue" stroke="midnightblue" points="1399.04,-34.5 1389.04,-38 1399.04,-41.5 1399.04,-34.5"/>
</g>
<!-- Node14 -->
<g id="node14" class="node">
<title>Node14</title>
<g id="a_node14"><a xlink:href="classiDynTree_1_1SpatialVector.html" target="_top" xlink:title=" ">
<polygon fill="none" stroke="black" points="942,-23 942,-53 1079,-53 1079,-23 942,-23"/>
<text text-anchor="start" x="950" y="-41" font-family="FreeSans.ttf" font-size="10.00">iDynTree::SpatialVector</text>
<text text-anchor="middle" x="1010.5" y="-30" font-family="FreeSans.ttf" font-size="10.00">&lt; SpatialMotionVector &gt;</text>
</a>
</g>
</g>
<!-- Node14&#45;&gt;Node13 -->
<g id="edge13" class="edge">
<title>Node14&#45;&gt;Node13</title>
<path fill="none" stroke="midnightblue" d="M1089.2,-38C1131.01,-38 1182.54,-38 1224.87,-38"/>
<polygon fill="midnightblue" stroke="midnightblue" points="1089.06,-34.5 1079.06,-38 1089.06,-41.5 1089.06,-34.5"/>
</g>
<!-- Node15 -->
<g id="node15" class="node">
<title>Node15</title>
<g id="a_node15"><a xlink:href="classiDynTree_1_1SpatialMotionForceVectorT__traits.html" target="_top" xlink:title=" ">
<polygon fill="none" stroke="black" points="346,-18 346,-48 548,-48 548,-18 346,-18"/>
<text text-anchor="start" x="354" y="-36" font-family="FreeSans.ttf" font-size="10.00">iDynTree::SpatialMotionForce</text>
<text text-anchor="middle" x="447" y="-25" font-family="FreeSans.ttf" font-size="10.00">VectorT_traits&lt; DerivedSpatialVecT &gt;</text>
</a>
</g>
</g>
<!-- Node15&#45;&gt;Node14 -->
<g id="edge14" class="edge">
<title>Node15&#45;&gt;Node14</title>
<path fill="none" stroke="#9a32cd" stroke-dasharray="5,2" d="M558.24,-41.67C560.85,-41.79 563.44,-41.9 566,-42 725,-48.05 764.93,-45.72 924,-42 929.79,-41.86 935.81,-41.68 941.84,-41.46"/>
<polygon fill="#9a32cd" stroke="#9a32cd" points="558.24,-38.17 548.08,-41.16 557.89,-45.16 558.24,-38.17"/>
<text text-anchor="middle" x="710" y="-60" font-family="FreeSans.ttf" font-size="10.00"> linearVec3</text>
<text text-anchor="middle" x="710" y="-49" font-family="FreeSans.ttf" font-size="10.00">angularVec3</text>
</g>
<!-- Node17 -->
<g id="node17" class="node">
<title>Node17</title>
<g id="a_node17"><a xlink:href="classiDynTree_1_1SpatialVector.html" target="_top" xlink:title=" ">
<polygon fill="none" stroke="black" points="645,-0.5 645,-19.5 775,-19.5 775,-0.5 645,-0.5"/>
<text text-anchor="middle" x="710" y="-7.5" font-family="FreeSans.ttf" font-size="10.00">iDynTree::SpatialVector</text>
</a>
</g>
</g>
<!-- Node15&#45;&gt;Node17 -->
<g id="edge17" class="edge">
<title>Node15&#45;&gt;Node17</title>
<path fill="none" stroke="#9a32cd" stroke-dasharray="5,2" d="M558.24,-20.71C560.85,-20.47 563.44,-20.23 566,-20 591.78,-17.68 620.21,-15.59 644.89,-13.94"/>
<polygon fill="#9a32cd" stroke="#9a32cd" points="557.7,-17.25 548.08,-21.7 558.37,-24.22 557.7,-17.25"/>
<text text-anchor="middle" x="596.5" y="-34" font-family="FreeSans.ttf" font-size="10.00"> linearVec3</text>
<text text-anchor="middle" x="596.5" y="-23" font-family="FreeSans.ttf" font-size="10.00">angularVec3</text>
</g>
<!-- Node16 -->
<g id="node16" class="node">
<title>Node16</title>
<g id="a_node16"><a xlink:href="classiDynTree_1_1SpatialMotionForceVectorT__traits.html" target="_top" xlink:title="Traits class for SpatialMotionVector and SpatialForceVector classes.">
<polygon fill="none" stroke="black" points="0,-12.5 0,-53.5 189,-53.5 189,-12.5 0,-12.5"/>
<text text-anchor="start" x="8" y="-41.5" font-family="FreeSans.ttf" font-size="10.00">iDynTree::SpatialMotionForce</text>
<text text-anchor="start" x="8" y="-30.5" font-family="FreeSans.ttf" font-size="10.00">VectorT_traits&lt; SpatialMotionForce</text>
<text text-anchor="middle" x="94.5" y="-19.5" font-family="FreeSans.ttf" font-size="10.00">VectorT &gt;</text>
</a>
</g>
</g>
<!-- Node16&#45;&gt;Node15 -->
<g id="edge15" class="edge">
<title>Node16&#45;&gt;Node15</title>
<path fill="none" stroke="orange" stroke-dasharray="5,2" d="M199.49,-33C245.81,-33 300.13,-33 345.98,-33"/>
<polygon fill="orange" stroke="orange" points="199.43,-29.5 189.43,-33 199.43,-36.5 199.43,-29.5"/>
<text text-anchor="middle" x="267.5" y="-36" font-family="FreeSans.ttf" font-size="10.00"> &lt; DerivedSpatialVecT &gt;</text>
</g>
<!-- Node17&#45;&gt;Node14 -->
<g id="edge16" class="edge">
<title>Node17&#45;&gt;Node14</title>
<path fill="none" stroke="orange" stroke-dasharray="5,2" d="M785.07,-16.95C833.12,-21.45 895.24,-27.28 941.94,-31.66"/>
<polygon fill="orange" stroke="orange" points="785.32,-13.46 775.04,-16.01 784.67,-20.43 785.32,-13.46"/>
<text text-anchor="middle" x="858.5" y="-33" font-family="FreeSans.ttf" font-size="10.00"> &lt; SpatialMotionVector &gt;</text>
</g>
<!-- Node18&#45;&gt;Node1 -->
<g id="edge19" class="edge">
<title>Node18&#45;&gt;Node1</title>
<path fill="none" stroke="#9a32cd" stroke-dasharray="5,2" d="M1217.29,-288.35C1268.64,-287.87 1342.43,-287.25 1407,-287 1455.44,-286.81 1467.58,-285.52 1516,-287 1635.73,-290.67 1774.97,-300.39 1855.78,-306.57"/>
<polygon fill="#9a32cd" stroke="#9a32cd" points="1216.97,-284.86 1207.01,-288.45 1217.04,-291.86 1216.97,-284.86"/>
<text text-anchor="start" x="1407" y="-323" font-family="FreeSans.ttf" font-size="10.00"> m_comHullConstraint</text>
<text text-anchor="middle" x="1461.5" y="-312" font-family="FreeSans.ttf" font-size="10.00">_yAxisOfPlaneInWorld</text>
<text text-anchor="start" x="1407" y="-301" font-family="FreeSans.ttf" font-size="10.00">m_comHullConstraint</text>
<text text-anchor="middle" x="1461.5" y="-290" font-family="FreeSans.ttf" font-size="10.00">_xAxisOfPlaneInWorld</text>
</g>
<!-- Node19&#45;&gt;Node1 -->
<g id="edge21" class="edge">
<title>Node19&#45;&gt;Node1</title>
<path fill="none" stroke="#9a32cd" stroke-dasharray="5,2" d="M1714.54,-231.98C1753.54,-239 1798.7,-249.32 1838,-264 1860.64,-272.46 1884.47,-286.3 1901.21,-296.95"/>
<polygon fill="#9a32cd" stroke="#9a32cd" points="1714.7,-228.45 1704.25,-230.17 1713.49,-235.35 1714.7,-228.45"/>
<text text-anchor="middle" x="1780" y="-267" font-family="FreeSans.ttf" font-size="10.00"> m_comHullConstraint</text>
</g>
<!-- Node20 -->
<g id="node20" class="node">
<title>Node20</title>
<g id="a_node20"><a xlink:href="classiDynTree_1_1MatrixDynSize.html" target="_top" xlink:title="Class providing a simple form of matrix with dynamic size.">
<polygon fill="none" stroke="black" points="1238.5,-140.5 1238.5,-159.5 1375.5,-159.5 1375.5,-140.5 1238.5,-140.5"/>
<text text-anchor="middle" x="1307" y="-147.5" font-family="FreeSans.ttf" font-size="10.00">iDynTree::MatrixDynSize</text>
</a>
</g>
</g>
<!-- Node20&#45;&gt;Node19 -->
<g id="edge22" class="edge">
<title>Node20&#45;&gt;Node19</title>
<path fill="none" stroke="#9a32cd" stroke-dasharray="5,2" d="M1351.49,-138.17C1396.24,-128.63 1466.24,-121.31 1516,-152 1530.89,-161.18 1520.96,-175.34 1534,-187 1541.79,-193.97 1551.26,-199.49 1560.99,-203.83"/>
<polygon fill="#9a32cd" stroke="#9a32cd" points="1350.5,-134.8 1341.51,-140.42 1352.04,-141.63 1350.5,-134.8"/>
<text text-anchor="middle" x="1461.5" y="-166" font-family="FreeSans.ttf" font-size="10.00"> AtimesP</text>
<text text-anchor="middle" x="1461.5" y="-155" font-family="FreeSans.ttf" font-size="10.00">A</text>
</g>
<!-- Node21&#45;&gt;Node19 -->
<g id="edge23" class="edge">
<title>Node21&#45;&gt;Node19</title>
<path fill="none" stroke="#9a32cd" stroke-dasharray="5,2" d="M934.56,-218.07C1037.17,-211.94 1227.01,-202.76 1389,-207 1436.96,-208.26 1490.5,-210.99 1533.75,-213.53"/>
<polygon fill="#9a32cd" stroke="#9a32cd" points="934.07,-214.59 924.3,-218.69 934.49,-221.58 934.07,-214.59"/>
<text text-anchor="middle" x="1152" y="-223" font-family="FreeSans.ttf" font-size="10.00"> P</text>
<text text-anchor="middle" x="1152" y="-212" font-family="FreeSans.ttf" font-size="10.00">Pdirection</text>
</g>
<!-- Node22 -->
<g id="node22" class="node">
<title>Node22</title>
<g id="a_node22"><a xlink:href="classiDynTree_1_1Polygon2D.html" target="_top" xlink:title="Class representing a 2D Polygon expressed in the 2D space.">
<polygon fill="none" stroke="black" points="1248,-216.5 1248,-235.5 1366,-235.5 1366,-216.5 1248,-216.5"/>
<text text-anchor="middle" x="1307" y="-223.5" font-family="FreeSans.ttf" font-size="10.00">iDynTree::Polygon2D</text>
</a>
</g>
</g>
<!-- Node22&#45;&gt;Node19 -->
<g id="edge25" class="edge">
<title>Node22&#45;&gt;Node19</title>
<path fill="none" stroke="#9a32cd" stroke-dasharray="5,2" d="M1376.29,-223.01C1386.58,-222.62 1397.07,-222.27 1407,-222 1448.75,-220.86 1495.16,-220.14 1533.8,-219.69"/>
<polygon fill="#9a32cd" stroke="#9a32cd" points="1375.96,-219.52 1366.1,-223.4 1376.23,-226.51 1375.96,-219.52"/>
<text text-anchor="middle" x="1461.5" y="-225" font-family="FreeSans.ttf" font-size="10.00"> projectedConvexHull</text>
</g>
<!-- Node23 -->
<g id="node23" class="node">
<title>Node23</title>
<g id="a_node23"><a xlink:href="classiDynTree_1_1VectorDynSize.html" target="_top" xlink:title="Class providing a simple form of vector with dynamic size.">
<polygon fill="none" stroke="black" points="1239,-88.5 1239,-107.5 1375,-107.5 1375,-88.5 1239,-88.5"/>
<text text-anchor="middle" x="1307" y="-95.5" font-family="FreeSans.ttf" font-size="10.00">iDynTree::VectorDynSize</text>
</a>
</g>
</g>
<!-- Node23&#45;&gt;Node1 -->
<g id="edge28" class="edge">
<title>Node23&#45;&gt;Node1</title>
<path fill="none" stroke="#9a32cd" stroke-dasharray="5,2" d="M1355.99,-86.36C1432.8,-70.18 1586.64,-47.94 1704,-96 1807.16,-138.24 1887.88,-254.96 1914.29,-296.81"/>
<polygon fill="#9a32cd" stroke="#9a32cd" points="1355.15,-82.96 1346.12,-88.5 1356.63,-89.8 1355.15,-82.96"/>
<text text-anchor="middle" x="1619" y="-187" font-family="FreeSans.ttf" font-size="10.00"> m_lowerBoundMultipliers</text>
<text text-anchor="middle" x="1619" y="-176" font-family="FreeSans.ttf" font-size="10.00">jointsConfiguration</text>
<text text-anchor="middle" x="1619" y="-165" font-family="FreeSans.ttf" font-size="10.00">m_constraintMultipliers</text>
<text text-anchor="middle" x="1619" y="-154" font-family="FreeSans.ttf" font-size="10.00">m_preferredJointsWeight</text>
<text text-anchor="middle" x="1619" y="-143" font-family="FreeSans.ttf" font-size="10.00">m_preferredJointsConfiguration</text>
<text text-anchor="middle" x="1619" y="-132" font-family="FreeSans.ttf" font-size="10.00">m_jointsResults</text>
<text text-anchor="middle" x="1619" y="-121" font-family="FreeSans.ttf" font-size="10.00">m_jointInitialConditions</text>
<text text-anchor="middle" x="1619" y="-110" font-family="FreeSans.ttf" font-size="10.00">jointsVelocity</text>
<text text-anchor="middle" x="1619" y="-99" font-family="FreeSans.ttf" font-size="10.00">m_upperBoundMultipliers</text>
</g>
<!-- Node23&#45;&gt;Node19 -->
<g id="edge27" class="edge">
<title>Node23&#45;&gt;Node19</title>
<path fill="none" stroke="#9a32cd" stroke-dasharray="5,2" d="M1385.08,-95.62C1435.93,-95.7 1496.61,-99.52 1516,-116 1540.81,-137.08 1512.35,-162.69 1534,-187 1540.33,-194.11 1548.41,-199.65 1557.05,-203.96"/>
<polygon fill="#9a32cd" stroke="#9a32cd" points="1385.05,-92.12 1375.06,-95.65 1385.07,-99.12 1385.05,-92.12"/>
<text text-anchor="middle" x="1461.5" y="-119" font-family="FreeSans.ttf" font-size="10.00"> b</text>
</g>
</g>
</svg>
