<?xml version="1.0" encoding="UTF-8" standalone="no"?>
<!DOCTYPE svg PUBLIC "-//W3C//DTD SVG 1.1//EN"
 "http://www.w3.org/Graphics/SVG/1.1/DTD/svg11.dtd">
<!-- Generated by graphviz version 2.43.0 (0)
 -->
<!-- Title: iDynTree::optimalcontrol::LinearCost Pages: 1 -->
<svg width="390pt" height="240pt"
 viewBox="0.00 0.00 389.50 240.00" xmlns="http://www.w3.org/2000/svg" xmlns:xlink="http://www.w3.org/1999/xlink">
<g id="graph0" class="graph" transform="scale(1 1) rotate(0) translate(4 236)">
<title>iDynTree::optimalcontrol::LinearCost</title>
<!-- Node1 -->
<g id="node1" class="node">
<title>Node1</title>
<g id="a_node1"><a xlink:title=" ">
<polygon fill="#bfbfbf" stroke="black" points="77,-0.5 77,-30.5 214,-30.5 214,-0.5 77,-0.5"/>
<text text-anchor="start" x="85" y="-18.5" font-family="FreeSans.ttf" font-size="10.00">iDynTree::optimalcontrol</text>
<text text-anchor="middle" x="145.5" y="-7.5" font-family="FreeSans.ttf" font-size="10.00">::LinearCost</text>
</a>
</g>
</g>
<!-- Node2 -->
<g id="node2" class="node">
<title>Node2</title>
<g id="a_node2"><a xlink:href="classiDynTree_1_1optimalcontrol_1_1QuadraticLikeCost.html" target="_top" xlink:title=" ">
<polygon fill="none" stroke="black" points="77,-68.5 77,-98.5 214,-98.5 214,-68.5 77,-68.5"/>
<text text-anchor="start" x="85" y="-86.5" font-family="FreeSans.ttf" font-size="10.00">iDynTree::optimalcontrol</text>
<text text-anchor="middle" x="145.5" y="-75.5" font-family="FreeSans.ttf" font-size="10.00">::QuadraticLikeCost</text>
</a>
</g>
</g>
<!-- Node2&#45;&gt;Node1 -->
<g id="edge1" class="edge">
<title>Node2&#45;&gt;Node1</title>
<path fill="none" stroke="midnightblue" d="M145.5,-58.03C145.5,-48.86 145.5,-38.74 145.5,-30.79"/>
<polygon fill="midnightblue" stroke="midnightblue" points="142,-58.18 145.5,-68.18 149,-58.18 142,-58.18"/>
</g>
<!-- Node3 -->
<g id="node3" class="node">
<title>Node3</title>
<g id="a_node3"><a xlink:href="classiDynTree_1_1optimalcontrol_1_1Cost.html" target="_top" xlink:title="The Cost virtual class definition.">
<polygon fill="none" stroke="black" points="0,-201.5 0,-231.5 137,-231.5 137,-201.5 0,-201.5"/>
<text text-anchor="start" x="8" y="-219.5" font-family="FreeSans.ttf" font-size="10.00">iDynTree::optimalcontrol</text>
<text text-anchor="middle" x="68.5" y="-208.5" font-family="FreeSans.ttf" font-size="10.00">::Cost</text>
</a>
</g>
</g>
<!-- Node3&#45;&gt;Node2 -->
<g id="edge2" class="edge">
<title>Node3&#45;&gt;Node2</title>
<path fill="none" stroke="midnightblue" d="M81.9,-192.7C97.79,-165.67 123.79,-121.44 137.09,-98.82"/>
<polygon fill="midnightblue" stroke="midnightblue" points="78.79,-191.09 76.74,-201.48 84.83,-194.63 78.79,-191.09"/>
</g>
<!-- Node4 -->
<g id="node4" class="node">
<title>Node4</title>
<g id="a_node4"><a xlink:href="classiDynTree_1_1optimalcontrol_1_1SparsityStructure.html" target="_top" xlink:title=" ">
<polygon fill="none" stroke="black" points="155,-201.5 155,-231.5 292,-231.5 292,-201.5 155,-201.5"/>
<text text-anchor="start" x="163" y="-219.5" font-family="FreeSans.ttf" font-size="10.00">iDynTree::optimalcontrol</text>
<text text-anchor="middle" x="223.5" y="-208.5" font-family="FreeSans.ttf" font-size="10.00">::SparsityStructure</text>
</a>
</g>
</g>
<!-- Node4&#45;&gt;Node2 -->
<g id="edge3" class="edge">
<title>Node4&#45;&gt;Node2</title>
<path fill="none" stroke="#9a32cd" stroke-dasharray="5,2" d="M209.92,-192.7C193.83,-165.67 167.5,-121.44 154.02,-98.82"/>
<polygon fill="#9a32cd" stroke="#9a32cd" points="207.03,-194.68 215.15,-201.48 213.04,-191.1 207.03,-194.68"/>
<text text-anchor="start" x="202.5" y="-175" font-family="FreeSans.ttf" font-size="10.00"> m_secondPartialDerivative</text>
<text text-anchor="middle" x="292" y="-164" font-family="FreeSans.ttf" font-size="10.00">WRTControlSparsity</text>
<text text-anchor="start" x="202.5" y="-153" font-family="FreeSans.ttf" font-size="10.00">m_secondPartialDerivativeWRTState</text>
<text text-anchor="middle" x="292" y="-142" font-family="FreeSans.ttf" font-size="10.00">Sparsity</text>
<text text-anchor="start" x="202.5" y="-131" font-family="FreeSans.ttf" font-size="10.00">m_secondPartialDerivativeWRTState</text>
<text text-anchor="middle" x="292" y="-120" font-family="FreeSans.ttf" font-size="10.00">ControlSparsity</text>
</g>
</g>
</svg>
