<?xml version="1.0" encoding="UTF-8" standalone="no"?>
<!DOCTYPE svg PUBLIC "-//W3C//DTD SVG 1.1//EN"
 "http://www.w3.org/Graphics/SVG/1.1/DTD/svg11.dtd">
<!-- Generated by graphviz version 2.43.0 (0)
 -->
<!-- Title: iDynTree::ModelExporter::Pimpl Pages: 1 -->
<svg width="435pt" height="106pt"
 viewBox="0.00 0.00 434.50 106.00" xmlns="http://www.w3.org/2000/svg" xmlns:xlink="http://www.w3.org/1999/xlink">
<g id="graph0" class="graph" transform="scale(1 1) rotate(0) translate(4 102)">
<title>iDynTree::ModelExporter::Pimpl</title>
<!-- Node1 -->
<g id="node1" class="node">
<title>Node1</title>
<g id="a_node1"><a xlink:title=" ">
<polygon fill="#bfbfbf" stroke="black" points="171.5,-0.5 171.5,-30.5 308.5,-30.5 308.5,-0.5 171.5,-0.5"/>
<text text-anchor="start" x="179.5" y="-18.5" font-family="FreeSans.ttf" font-size="10.00">iDynTree::ModelExporter</text>
<text text-anchor="middle" x="240" y="-7.5" font-family="FreeSans.ttf" font-size="10.00">::Pimpl</text>
</a>
</g>
</g>
<!-- Node2 -->
<g id="node2" class="node">
<title>Node2</title>
<g id="a_node2"><a xlink:href="classiDynTree_1_1ModelExporterOptions.html" target="_top" xlink:title=" ">
<polygon fill="none" stroke="black" points="0,-78.5 0,-97.5 174,-97.5 174,-78.5 0,-78.5"/>
<text text-anchor="middle" x="87" y="-85.5" font-family="FreeSans.ttf" font-size="10.00">iDynTree::ModelExporterOptions</text>
</a>
</g>
</g>
<!-- Node2&#45;&gt;Node1 -->
<g id="edge1" class="edge">
<title>Node2&#45;&gt;Node1</title>
<path fill="none" stroke="#9a32cd" stroke-dasharray="5,2" d="M114.65,-74.26C141.43,-61.92 181.93,-43.26 209.6,-30.51"/>
<polygon fill="#9a32cd" stroke="#9a32cd" points="113.07,-71.13 105.46,-78.5 116,-77.49 113.07,-71.13"/>
<text text-anchor="middle" x="196.5" y="-52" font-family="FreeSans.ttf" font-size="10.00"> m_options</text>
</g>
<!-- Node3 -->
<g id="node3" class="node">
<title>Node3</title>
<g id="a_node3"><a xlink:href="classiDynTree_1_1Model.html" target="_top" xlink:title="Class that represents a generic multibody model.">
<polygon fill="none" stroke="black" points="192.5,-78.5 192.5,-97.5 287.5,-97.5 287.5,-78.5 192.5,-78.5"/>
<text text-anchor="middle" x="240" y="-85.5" font-family="FreeSans.ttf" font-size="10.00">iDynTree::Model</text>
</a>
</g>
</g>
<!-- Node3&#45;&gt;Node1 -->
<g id="edge2" class="edge">
<title>Node3&#45;&gt;Node1</title>
<path fill="none" stroke="#9a32cd" stroke-dasharray="5,2" d="M240,-68.24C240,-56.41 240,-41.38 240,-30.58"/>
<polygon fill="#9a32cd" stroke="#9a32cd" points="236.5,-68.36 240,-78.36 243.5,-68.36 236.5,-68.36"/>
<text text-anchor="middle" x="264.5" y="-52" font-family="FreeSans.ttf" font-size="10.00"> m_model</text>
</g>
<!-- Node4 -->
<g id="node4" class="node">
<title>Node4</title>
<g id="a_node4"><a xlink:href="classiDynTree_1_1SensorsList.html" target="_top" xlink:title="Structure representing a group of sensors associated with an UndirectedTree.">
<polygon fill="none" stroke="black" points="305.5,-78.5 305.5,-97.5 426.5,-97.5 426.5,-78.5 305.5,-78.5"/>
<text text-anchor="middle" x="366" y="-85.5" font-family="FreeSans.ttf" font-size="10.00">iDynTree::SensorsList</text>
</a>
</g>
</g>
<!-- Node4&#45;&gt;Node1 -->
<g id="edge3" class="edge">
<title>Node4&#45;&gt;Node1</title>
<path fill="none" stroke="#9a32cd" stroke-dasharray="5,2" d="M341.81,-73.47C319.81,-61.16 287.46,-43.05 265.16,-30.58"/>
<polygon fill="#9a32cd" stroke="#9a32cd" points="340.11,-76.53 350.55,-78.36 343.53,-70.42 340.11,-76.53"/>
<text text-anchor="middle" x="342" y="-52" font-family="FreeSans.ttf" font-size="10.00"> m_sensors</text>
</g>
</g>
</svg>
