<?xml version="1.0" encoding="UTF-8" standalone="no"?>
<!DOCTYPE svg PUBLIC "-//W3C//DTD SVG 1.1//EN"
 "http://www.w3.org/Graphics/SVG/1.1/DTD/svg11.dtd">
<!-- Generated by graphviz version 2.43.0 (0)
 -->
<!-- Title: ObserverThread Pages: 1 -->
<svg width="1302pt" height="247pt"
 viewBox="0.00 0.00 1302.00 247.27" xmlns="http://www.w3.org/2000/svg" xmlns:xlink="http://www.w3.org/1999/xlink">
<g id="graph0" class="graph" transform="scale(1 1) rotate(0) translate(4 243.27)">
<title>ObserverThread</title>
<!-- Node1 -->
<g id="node1" class="node">
<title>Node1</title>
<g id="a_node1"><a xlink:title=" ">
<polygon fill="#bfbfbf" stroke="black" points="1199,-143.77 1199,-162.77 1294,-162.77 1294,-143.77 1199,-143.77"/>
<text text-anchor="middle" x="1246.5" y="-150.77" font-family="FreeSans.ttf" font-size="10.00">ObserverThread</text>
</a>
</g>
</g>
<!-- Node2 -->
<g id="node2" class="node">
<title>Node2</title>
<g id="a_node2"><a xlink:title=" ">
<polygon fill="none" stroke="#bfbfbf" points="853.5,-219.77 853.5,-238.77 971.5,-238.77 971.5,-219.77 853.5,-219.77"/>
<text text-anchor="middle" x="912.5" y="-226.77" font-family="FreeSans.ttf" font-size="10.00">yarp::os::RateThread</text>
</a>
</g>
</g>
<!-- Node2&#45;&gt;Node1 -->
<g id="edge1" class="edge">
<title>Node2&#45;&gt;Node1</title>
<path fill="none" stroke="midnightblue" d="M981.69,-231.45C1037.15,-230.99 1116.5,-225.2 1181,-200.27 1202.71,-191.88 1223.7,-174.26 1235.57,-163.14"/>
<polygon fill="midnightblue" stroke="midnightblue" points="981.61,-227.95 971.62,-231.47 981.63,-234.95 981.61,-227.95"/>
</g>
<!-- Node3 -->
<g id="node3" class="node">
<title>Node3</title>
<g id="a_node3"><a xlink:href="classiDynTree_1_1KinDynComputations.html" target="_top" xlink:title="High level stateful class wrapping several kinematics and dynamics algorithms.">
<polygon fill="none" stroke="black" points="828,-181.77 828,-200.77 997,-200.77 997,-181.77 828,-181.77"/>
<text text-anchor="middle" x="912.5" y="-188.77" font-family="FreeSans.ttf" font-size="10.00">iDynTree::KinDynComputations</text>
</a>
</g>
</g>
<!-- Node3&#45;&gt;Node1 -->
<g id="edge2" class="edge">
<title>Node3&#45;&gt;Node1</title>
<path fill="none" stroke="#9a32cd" stroke-dasharray="5,2" d="M1007.13,-186.5C1058.65,-183.05 1123.6,-177.36 1181,-168.27 1189.97,-166.85 1199.55,-164.87 1208.5,-162.83"/>
<polygon fill="#9a32cd" stroke="#9a32cd" points="1006.76,-183.02 997.01,-187.16 1007.22,-190 1006.76,-183.02"/>
<text text-anchor="middle" x="1098" y="-188.27" font-family="FreeSans.ttf" font-size="10.00"> m_kinDyn</text>
</g>
<!-- Node4 -->
<g id="node4" class="node">
<title>Node4</title>
<g id="a_node4"><a xlink:href="classiDynTree_1_1Transform.html" target="_top" xlink:title="Class representation the relative displacement between two different frames.">
<polygon fill="none" stroke="black" points="855.5,-143.77 855.5,-162.77 969.5,-162.77 969.5,-143.77 855.5,-143.77"/>
<text text-anchor="middle" x="912.5" y="-150.77" font-family="FreeSans.ttf" font-size="10.00">iDynTree::Transform</text>
</a>
</g>
</g>
<!-- Node4&#45;&gt;Node1 -->
<g id="edge3" class="edge">
<title>Node4&#45;&gt;Node1</title>
<path fill="none" stroke="#9a32cd" stroke-dasharray="5,2" d="M979.94,-153.27C1044.78,-153.27 1141.77,-153.27 1198.84,-153.27"/>
<polygon fill="#9a32cd" stroke="#9a32cd" points="979.82,-149.77 969.82,-153.27 979.82,-156.77 979.82,-149.77"/>
<text text-anchor="middle" x="1098" y="-156.27" font-family="FreeSans.ttf" font-size="10.00"> m_primarySole_X_secondarySole</text>
</g>
<!-- Node5 -->
<g id="node5" class="node">
<title>Node5</title>
<g id="a_node5"><a xlink:href="classiDynTree_1_1Rotation.html" target="_top" xlink:title="Class representation the rotation of an orientation frame with respect to a reference orientation fra...">
<polygon fill="none" stroke="black" points="588,-143.77 588,-162.77 695,-162.77 695,-143.77 588,-143.77"/>
<text text-anchor="middle" x="641.5" y="-150.77" font-family="FreeSans.ttf" font-size="10.00">iDynTree::Rotation</text>
</a>
</g>
</g>
<!-- Node5&#45;&gt;Node4 -->
<g id="edge4" class="edge">
<title>Node5&#45;&gt;Node4</title>
<path fill="none" stroke="#9a32cd" stroke-dasharray="5,2" d="M705.04,-153.27C750.51,-153.27 811.52,-153.27 855.42,-153.27"/>
<polygon fill="#9a32cd" stroke="#9a32cd" points="705,-149.77 695,-153.27 705,-156.77 705,-149.77"/>
<text text-anchor="middle" x="761.5" y="-156.27" font-family="FreeSans.ttf" font-size="10.00"> rot</text>
</g>
<!-- Node6 -->
<g id="node6" class="node">
<title>Node6</title>
<g id="a_node6"><a xlink:href="classiDynTree_1_1RotationRaw.html" target="_top" xlink:title="Class providing the raw coordinates for iDynTree::Rotation class.">
<polygon fill="none" stroke="black" points="314,-143.77 314,-162.77 442,-162.77 442,-143.77 314,-143.77"/>
<text text-anchor="middle" x="378" y="-150.77" font-family="FreeSans.ttf" font-size="10.00">iDynTree::RotationRaw</text>
</a>
</g>
</g>
<!-- Node6&#45;&gt;Node5 -->
<g id="edge5" class="edge">
<title>Node6&#45;&gt;Node5</title>
<path fill="none" stroke="midnightblue" d="M452.46,-153.27C495.56,-153.27 549.01,-153.27 587.9,-153.27"/>
<polygon fill="midnightblue" stroke="midnightblue" points="452.3,-149.77 442.3,-153.27 452.3,-156.77 452.3,-149.77"/>
</g>
<!-- Node7 -->
<g id="node7" class="node">
<title>Node7</title>
<g id="a_node7"><a xlink:href="classiDynTree_1_1MatrixFixSize.html" target="_top" xlink:title=" ">
<polygon fill="none" stroke="black" points="211,-143.77 211,-162.77 277,-162.77 277,-143.77 211,-143.77"/>
<text text-anchor="middle" x="244" y="-150.77" font-family="FreeSans.ttf" font-size="10.00">Matrix3x3</text>
</a>
</g>
</g>
<!-- Node7&#45;&gt;Node6 -->
<g id="edge6" class="edge">
<title>Node7&#45;&gt;Node6</title>
<path fill="none" stroke="midnightblue" d="M287.56,-153.27C295.94,-153.27 304.91,-153.27 313.81,-153.27"/>
<polygon fill="midnightblue" stroke="midnightblue" points="287.29,-149.77 277.29,-153.27 287.29,-156.77 287.29,-149.77"/>
</g>
<!-- Node8 -->
<g id="node8" class="node">
<title>Node8</title>
<g id="a_node8"><a xlink:href="classiDynTree_1_1MatrixFixSize.html" target="_top" xlink:title="Class providing a simple form of matrix with dynamic size.">
<polygon fill="none" stroke="black" points="0,-138.27 0,-168.27 131,-168.27 131,-138.27 0,-138.27"/>
<text text-anchor="start" x="8" y="-156.27" font-family="FreeSans.ttf" font-size="10.00">iDynTree::MatrixFixSize</text>
<text text-anchor="middle" x="65.5" y="-145.27" font-family="FreeSans.ttf" font-size="10.00">&lt; nRows, nCols &gt;</text>
</a>
</g>
</g>
<!-- Node8&#45;&gt;Node7 -->
<g id="edge7" class="edge">
<title>Node8&#45;&gt;Node7</title>
<path fill="none" stroke="orange" stroke-dasharray="5,2" d="M141.53,-153.27C165.84,-153.27 191.51,-153.27 210.95,-153.27"/>
<polygon fill="orange" stroke="orange" points="141.22,-149.77 131.22,-153.27 141.22,-156.77 141.22,-149.77"/>
<text text-anchor="middle" x="171" y="-156.27" font-family="FreeSans.ttf" font-size="10.00"> &lt; 3, 3 &gt;</text>
</g>
<!-- Node9 -->
<g id="node9" class="node">
<title>Node9</title>
<g id="a_node9"><a xlink:href="classiDynTree_1_1Position.html" target="_top" xlink:title="Class representation the coordinates of the Position of a point with respect to another point.">
<polygon fill="none" stroke="black" points="589.5,-60.77 589.5,-79.77 693.5,-79.77 693.5,-60.77 589.5,-60.77"/>
<text text-anchor="middle" x="641.5" y="-67.77" font-family="FreeSans.ttf" font-size="10.00">iDynTree::Position</text>
</a>
</g>
</g>
<!-- Node9&#45;&gt;Node1 -->
<g id="edge11" class="edge">
<title>Node9&#45;&gt;Node1</title>
<path fill="none" stroke="#9a32cd" stroke-dasharray="5,2" d="M703.78,-66.96C774.8,-64.24 895.15,-63.1 997,-79.27 1081.47,-92.67 1177.44,-126.94 1221.31,-143.72"/>
<polygon fill="#9a32cd" stroke="#9a32cd" points="703.51,-63.46 693.66,-67.37 703.8,-70.46 703.51,-63.46"/>
<text text-anchor="middle" x="912.5" y="-126.27" font-family="FreeSans.ttf" font-size="10.00"> m_totalCopInPrimarySole</text>
<text text-anchor="middle" x="912.5" y="-115.27" font-family="FreeSans.ttf" font-size="10.00">m_secondaryCopInPrimarySole</text>
<text text-anchor="middle" x="912.5" y="-104.27" font-family="FreeSans.ttf" font-size="10.00">m_desiredComInPrimarySole</text>
<text text-anchor="middle" x="912.5" y="-93.27" font-family="FreeSans.ttf" font-size="10.00">m_primaryCopInPrimarySole</text>
<text text-anchor="middle" x="912.5" y="-82.27" font-family="FreeSans.ttf" font-size="10.00">m_comInPrimarySole</text>
</g>
<!-- Node9&#45;&gt;Node4 -->
<g id="edge8" class="edge">
<title>Node9&#45;&gt;Node4</title>
<path fill="none" stroke="#9a32cd" stroke-dasharray="5,2" d="M681.18,-82.92C718.63,-95.09 777.08,-113.85 828,-129.27 844.17,-134.16 862.17,-139.37 877.31,-143.67"/>
<polygon fill="#9a32cd" stroke="#9a32cd" points="682.25,-79.59 671.66,-79.82 680.08,-86.24 682.25,-79.59"/>
<text text-anchor="middle" x="761.5" y="-125.27" font-family="FreeSans.ttf" font-size="10.00"> pos</text>
</g>
<!-- Node10 -->
<g id="node10" class="node">
<title>Node10</title>
<g id="a_node10"><a xlink:href="classiDynTree_1_1PositionRaw.html" target="_top" xlink:title="Class providing the raw coordinates for iDynTree::Position class.">
<polygon fill="none" stroke="black" points="315.5,-59.77 315.5,-78.77 440.5,-78.77 440.5,-59.77 315.5,-59.77"/>
<text text-anchor="middle" x="378" y="-66.77" font-family="FreeSans.ttf" font-size="10.00">iDynTree::PositionRaw</text>
</a>
</g>
</g>
<!-- Node10&#45;&gt;Node9 -->
<g id="edge9" class="edge">
<title>Node10&#45;&gt;Node9</title>
<path fill="none" stroke="midnightblue" d="M450.69,-69.54C494.64,-69.71 549.85,-69.92 589.38,-70.07"/>
<polygon fill="midnightblue" stroke="midnightblue" points="450.65,-66.04 440.64,-69.5 450.63,-73.04 450.65,-66.04"/>
</g>
<!-- Node11 -->
<g id="node11" class="node">
<title>Node11</title>
<g id="a_node11"><a xlink:href="classiDynTree_1_1VectorFixSize.html" target="_top" xlink:title="Class providing a simple vector of N elements.">
<polygon fill="none" stroke="black" points="217.5,-36.77 217.5,-55.77 270.5,-55.77 270.5,-36.77 217.5,-36.77"/>
<text text-anchor="middle" x="244" y="-43.77" font-family="FreeSans.ttf" font-size="10.00">Vector3</text>
</a>
</g>
</g>
<!-- Node11&#45;&gt;Node10 -->
<g id="edge10" class="edge">
<title>Node11&#45;&gt;Node10</title>
<path fill="none" stroke="midnightblue" d="M280.98,-52.54C293.73,-54.76 308.39,-57.31 322.35,-59.75"/>
<polygon fill="midnightblue" stroke="midnightblue" points="281.22,-49.03 270.76,-50.76 280.02,-55.92 281.22,-49.03"/>
</g>
<!-- Node12 -->
<g id="node12" class="node">
<title>Node12</title>
<g id="a_node12"><a xlink:href="classiDynTree_1_1Direction.html" target="_top" xlink:title="Class representing the coordinates of a direction in the 3D space.">
<polygon fill="none" stroke="black" points="460,-15.77 460,-34.77 570,-34.77 570,-15.77 460,-15.77"/>
<text text-anchor="middle" x="515" y="-22.77" font-family="FreeSans.ttf" font-size="10.00">iDynTree::Direction</text>
</a>
</g>
</g>
<!-- Node11&#45;&gt;Node12 -->
<g id="edge13" class="edge">
<title>Node11&#45;&gt;Node12</title>
<path fill="none" stroke="midnightblue" d="M280.86,-43.47C326.72,-39.89 406.56,-33.66 459.84,-29.5"/>
<polygon fill="midnightblue" stroke="midnightblue" points="280.49,-39.99 270.79,-44.25 281.03,-46.97 280.49,-39.99"/>
</g>
<!-- Node12&#45;&gt;Node1 -->
<g id="edge12" class="edge">
<title>Node12&#45;&gt;Node1</title>
<path fill="none" stroke="#9a32cd" stroke-dasharray="5,2" d="M580.3,-14.78C704.35,2.23 982.03,24.39 1181,-78.27 1209.85,-93.15 1231.25,-126.94 1240.49,-143.6"/>
<polygon fill="#9a32cd" stroke="#9a32cd" points="579.62,-11.34 570.21,-16.2 580.6,-18.27 579.62,-11.34"/>
<text text-anchor="middle" x="761.5" y="-5.27" font-family="FreeSans.ttf" font-size="10.00"> m_gravityDirection</text>
</g>
</g>
</svg>
