<?xml version="1.0" encoding="UTF-8" standalone="no"?>
<!DOCTYPE svg PUBLIC "-//W3C//DTD SVG 1.1//EN"
 "http://www.w3.org/Graphics/SVG/1.1/DTD/svg11.dtd">
<!-- Generated by graphviz version 2.43.0 (0)
 -->
<!-- Title: iDynTree::ModelLoader::ModelLoaderPimpl Pages: 1 -->
<svg width="423pt" height="106pt"
 viewBox="0.00 0.00 423.00 106.00" xmlns="http://www.w3.org/2000/svg" xmlns:xlink="http://www.w3.org/1999/xlink">
<g id="graph0" class="graph" transform="scale(1 1) rotate(0) translate(4 102)">
<title>iDynTree::ModelLoader::ModelLoaderPimpl</title>
<!-- Node1 -->
<g id="node1" class="node">
<title>Node1</title>
<g id="a_node1"><a xlink:title=" ">
<polygon fill="#bfbfbf" stroke="black" points="164.5,-0.5 164.5,-30.5 292.5,-30.5 292.5,-0.5 164.5,-0.5"/>
<text text-anchor="start" x="172.5" y="-18.5" font-family="FreeSans.ttf" font-size="10.00">iDynTree::ModelLoader</text>
<text text-anchor="middle" x="228.5" y="-7.5" font-family="FreeSans.ttf" font-size="10.00">::ModelLoaderPimpl</text>
</a>
</g>
</g>
<!-- Node2 -->
<g id="node2" class="node">
<title>Node2</title>
<g id="a_node2"><a xlink:href="structiDynTree_1_1ModelParserOptions.html" target="_top" xlink:title=" ">
<polygon fill="none" stroke="black" points="0,-78.5 0,-97.5 163,-97.5 163,-78.5 0,-78.5"/>
<text text-anchor="middle" x="81.5" y="-85.5" font-family="FreeSans.ttf" font-size="10.00">iDynTree::ModelParserOptions</text>
</a>
</g>
</g>
<!-- Node2&#45;&gt;Node1 -->
<g id="edge1" class="edge">
<title>Node2&#45;&gt;Node1</title>
<path fill="none" stroke="#9a32cd" stroke-dasharray="5,2" d="M108.41,-74.1C134.14,-61.76 172.83,-43.2 199.3,-30.51"/>
<polygon fill="#9a32cd" stroke="#9a32cd" points="106.73,-71.02 99.23,-78.5 109.76,-77.33 106.73,-71.02"/>
<text text-anchor="middle" x="187" y="-52" font-family="FreeSans.ttf" font-size="10.00"> m_options</text>
</g>
<!-- Node3 -->
<g id="node3" class="node">
<title>Node3</title>
<g id="a_node3"><a xlink:href="classiDynTree_1_1Model.html" target="_top" xlink:title="Class that represents a generic multibody model.">
<polygon fill="none" stroke="black" points="181,-78.5 181,-97.5 276,-97.5 276,-78.5 181,-78.5"/>
<text text-anchor="middle" x="228.5" y="-85.5" font-family="FreeSans.ttf" font-size="10.00">iDynTree::Model</text>
</a>
</g>
</g>
<!-- Node3&#45;&gt;Node1 -->
<g id="edge2" class="edge">
<title>Node3&#45;&gt;Node1</title>
<path fill="none" stroke="#9a32cd" stroke-dasharray="5,2" d="M228.5,-68.24C228.5,-56.41 228.5,-41.38 228.5,-30.58"/>
<polygon fill="#9a32cd" stroke="#9a32cd" points="225,-68.36 228.5,-78.36 232,-68.36 225,-68.36"/>
<text text-anchor="middle" x="253" y="-52" font-family="FreeSans.ttf" font-size="10.00"> m_model</text>
</g>
<!-- Node4 -->
<g id="node4" class="node">
<title>Node4</title>
<g id="a_node4"><a xlink:href="classiDynTree_1_1SensorsList.html" target="_top" xlink:title="Structure representing a group of sensors associated with an UndirectedTree.">
<polygon fill="none" stroke="black" points="294,-78.5 294,-97.5 415,-97.5 415,-78.5 294,-78.5"/>
<text text-anchor="middle" x="354.5" y="-85.5" font-family="FreeSans.ttf" font-size="10.00">iDynTree::SensorsList</text>
</a>
</g>
</g>
<!-- Node4&#45;&gt;Node1 -->
<g id="edge3" class="edge">
<title>Node4&#45;&gt;Node1</title>
<path fill="none" stroke="#9a32cd" stroke-dasharray="5,2" d="M330.31,-73.47C308.31,-61.16 275.96,-43.05 253.66,-30.58"/>
<polygon fill="#9a32cd" stroke="#9a32cd" points="328.61,-76.53 339.05,-78.36 332.03,-70.42 328.61,-76.53"/>
<text text-anchor="middle" x="330.5" y="-52" font-family="FreeSans.ttf" font-size="10.00"> m_sensors</text>
</g>
</g>
</svg>
