<?xml version="1.0" encoding="UTF-8" standalone="no"?>
<!DOCTYPE svg PUBLIC "-//W3C//DTD SVG 1.1//EN"
 "http://www.w3.org/Graphics/SVG/1.1/DTD/svg11.dtd">
<!-- Generated by graphviz version 2.43.0 (0)
 -->
<!-- Title: iDynTree::ILight Pages: 1 -->
<svg width="244pt" height="84pt"
 viewBox="0.00 0.00 243.50 84.00" xmlns="http://www.w3.org/2000/svg" xmlns:xlink="http://www.w3.org/1999/xlink">
<g id="graph0" class="graph" transform="scale(1 1) rotate(0) translate(4 80)">
<title>iDynTree::ILight</title>
<!-- Node1 -->
<g id="node1" class="node">
<title>Node1</title>
<g id="a_node1"><a xlink:title="Interface to a light visualization.">
<polygon fill="#bfbfbf" stroke="black" points="81,-56.5 81,-75.5 173,-75.5 173,-56.5 81,-56.5"/>
<text text-anchor="middle" x="127" y="-63.5" font-family="FreeSans.ttf" font-size="10.00">iDynTree::ILight</text>
</a>
</g>
</g>
<!-- Node2 -->
<g id="node2" class="node">
<title>Node2</title>
<g id="a_node2"><a xlink:href="classiDynTree_1_1DummyLight.html" target="_top" xlink:title="Dummy light.">
<polygon fill="none" stroke="black" points="0,-0.5 0,-19.5 128,-19.5 128,-0.5 0,-0.5"/>
<text text-anchor="middle" x="64" y="-7.5" font-family="FreeSans.ttf" font-size="10.00">iDynTree::DummyLight</text>
</a>
</g>
</g>
<!-- Node1&#45;&gt;Node2 -->
<g id="edge1" class="edge">
<title>Node1&#45;&gt;Node2</title>
<path fill="none" stroke="midnightblue" d="M108.96,-49.54C97.73,-39.91 83.68,-27.87 74.31,-19.83"/>
<polygon fill="midnightblue" stroke="midnightblue" points="107.01,-52.47 116.88,-56.32 111.56,-47.16 107.01,-52.47"/>
</g>
<!-- Node3 -->
<g id="node3" class="node">
<title>Node3</title>
<g id="a_node3"><a xlink:href="classiDynTree_1_1Light.html" target="_top" xlink:title=" ">
<polygon fill="none" stroke="black" points="146.5,-0.5 146.5,-19.5 235.5,-19.5 235.5,-0.5 146.5,-0.5"/>
<text text-anchor="middle" x="191" y="-7.5" font-family="FreeSans.ttf" font-size="10.00">iDynTree::Light</text>
</a>
</g>
</g>
<!-- Node1&#45;&gt;Node3 -->
<g id="edge2" class="edge">
<title>Node1&#45;&gt;Node3</title>
<path fill="none" stroke="midnightblue" d="M144.99,-49.82C156.46,-40.15 170.91,-27.95 180.53,-19.83"/>
<polygon fill="midnightblue" stroke="midnightblue" points="142.67,-47.2 137.28,-56.32 147.18,-52.55 142.67,-47.2"/>
</g>
</g>
</svg>
