<?xml version="1.0" encoding="UTF-8" standalone="no"?>
<!DOCTYPE svg PUBLIC "-//W3C//DTD SVG 1.1//EN"
 "http://www.w3.org/Graphics/SVG/1.1/DTD/svg11.dtd">
<!-- Generated by graphviz version 2.43.0 (0)
 -->
<!-- Title: iDynTree::optimalcontrol::integrators::Integrator Pages: 1 -->
<svg width="568pt" height="137pt"
 viewBox="0.00 0.00 568.00 137.00" xmlns="http://www.w3.org/2000/svg" xmlns:xlink="http://www.w3.org/1999/xlink">
<g id="graph0" class="graph" transform="scale(1 1) rotate(0) translate(4 133)">
<title>iDynTree::optimalcontrol::integrators::Integrator</title>
<!-- Node1 -->
<g id="node1" class="node">
<title>Node1</title>
<g id="a_node1"><a xlink:title="The Integrator base class.">
<polygon fill="#bfbfbf" stroke="black" points="0,-49.5 0,-79.5 137,-79.5 137,-49.5 0,-49.5"/>
<text text-anchor="start" x="8" y="-67.5" font-family="FreeSans.ttf" font-size="10.00">iDynTree::optimalcontrol</text>
<text text-anchor="middle" x="68.5" y="-56.5" font-family="FreeSans.ttf" font-size="10.00">::integrators::Integrator</text>
</a>
</g>
</g>
<!-- Node2 -->
<g id="node2" class="node">
<title>Node2</title>
<g id="a_node2"><a xlink:href="classiDynTree_1_1optimalcontrol_1_1integrators_1_1FixedStepIntegrator.html" target="_top" xlink:title=" ">
<polygon fill="none" stroke="black" points="173,-49.5 173,-79.5 350,-79.5 350,-49.5 173,-49.5"/>
<text text-anchor="start" x="181" y="-67.5" font-family="FreeSans.ttf" font-size="10.00">iDynTree::optimalcontrol</text>
<text text-anchor="middle" x="261.5" y="-56.5" font-family="FreeSans.ttf" font-size="10.00">::integrators::FixedStepIntegrator</text>
</a>
</g>
</g>
<!-- Node1&#45;&gt;Node2 -->
<g id="edge1" class="edge">
<title>Node1&#45;&gt;Node2</title>
<path fill="none" stroke="midnightblue" d="M147.29,-64.5C155.73,-64.5 164.36,-64.5 172.91,-64.5"/>
<polygon fill="midnightblue" stroke="midnightblue" points="147.11,-61 137.11,-64.5 147.11,-68 147.11,-61"/>
</g>
<!-- Node3 -->
<g id="node3" class="node">
<title>Node3</title>
<g id="a_node3"><a xlink:href="classiDynTree_1_1optimalcontrol_1_1integrators_1_1ForwardEuler.html" target="_top" xlink:title=" ">
<polygon fill="none" stroke="black" points="400,-98.5 400,-128.5 546,-128.5 546,-98.5 400,-98.5"/>
<text text-anchor="start" x="408" y="-116.5" font-family="FreeSans.ttf" font-size="10.00">iDynTree::optimalcontrol</text>
<text text-anchor="middle" x="473" y="-105.5" font-family="FreeSans.ttf" font-size="10.00">::integrators::ForwardEuler</text>
</a>
</g>
</g>
<!-- Node2&#45;&gt;Node3 -->
<g id="edge2" class="edge">
<title>Node2&#45;&gt;Node3</title>
<path fill="none" stroke="midnightblue" d="M336.6,-81.83C359.86,-87.27 385.33,-93.23 407.84,-98.49"/>
<polygon fill="midnightblue" stroke="midnightblue" points="337.31,-78.4 326.78,-79.53 335.72,-85.22 337.31,-78.4"/>
</g>
<!-- Node4 -->
<g id="node4" class="node">
<title>Node4</title>
<g id="a_node4"><a xlink:href="classiDynTree_1_1optimalcontrol_1_1integrators_1_1ImplicitTrapezoidal.html" target="_top" xlink:title=" ">
<polygon fill="none" stroke="black" points="386,-49.5 386,-79.5 560,-79.5 560,-49.5 386,-49.5"/>
<text text-anchor="start" x="394" y="-67.5" font-family="FreeSans.ttf" font-size="10.00">iDynTree::optimalcontrol</text>
<text text-anchor="middle" x="473" y="-56.5" font-family="FreeSans.ttf" font-size="10.00">::integrators::ImplicitTrapezoidal</text>
</a>
</g>
</g>
<!-- Node2&#45;&gt;Node4 -->
<g id="edge3" class="edge">
<title>Node2&#45;&gt;Node4</title>
<path fill="none" stroke="midnightblue" d="M360.4,-64.5C368.86,-64.5 377.37,-64.5 385.73,-64.5"/>
<polygon fill="midnightblue" stroke="midnightblue" points="360.13,-61 350.13,-64.5 360.13,-68 360.13,-61"/>
</g>
<!-- Node5 -->
<g id="node5" class="node">
<title>Node5</title>
<g id="a_node5"><a xlink:href="classiDynTree_1_1optimalcontrol_1_1integrators_1_1RK4.html" target="_top" xlink:title=" ">
<polygon fill="none" stroke="black" points="404.5,-0.5 404.5,-30.5 541.5,-30.5 541.5,-0.5 404.5,-0.5"/>
<text text-anchor="start" x="412.5" y="-18.5" font-family="FreeSans.ttf" font-size="10.00">iDynTree::optimalcontrol</text>
<text text-anchor="middle" x="473" y="-7.5" font-family="FreeSans.ttf" font-size="10.00">::integrators::RK4</text>
</a>
</g>
</g>
<!-- Node2&#45;&gt;Node5 -->
<g id="edge4" class="edge">
<title>Node2&#45;&gt;Node5</title>
<path fill="none" stroke="midnightblue" d="M336.6,-47.17C359.86,-41.73 385.33,-35.77 407.84,-30.51"/>
<polygon fill="midnightblue" stroke="midnightblue" points="335.72,-43.78 326.78,-49.47 337.31,-50.6 335.72,-43.78"/>
</g>
</g>
</svg>
