<?xml version="1.0" encoding="UTF-8" standalone="no"?>
<!DOCTYPE svg PUBLIC "-//W3C//DTD SVG 1.1//EN"
 "http://www.w3.org/Graphics/SVG/1.1/DTD/svg11.dtd">
<!-- Generated by graphviz version 2.43.0 (0)
 -->
<!-- Title: iDynTree::SpatialMomentum Pages: 1 -->
<svg width="203pt" height="220pt"
 viewBox="0.00 0.00 203.00 220.00" xmlns="http://www.w3.org/2000/svg" xmlns:xlink="http://www.w3.org/1999/xlink">
<g id="graph0" class="graph" transform="scale(1 1) rotate(0) translate(4 216)">
<title>iDynTree::SpatialMomentum</title>
<!-- Node1 -->
<g id="node1" class="node">
<title>Node1</title>
<g id="a_node1"><a xlink:title="Class representing a spatial momentum, i.e.">
<polygon fill="#bfbfbf" stroke="black" points="0.5,-0.5 0.5,-19.5 155.5,-19.5 155.5,-0.5 0.5,-0.5"/>
<text text-anchor="middle" x="78" y="-7.5" font-family="FreeSans.ttf" font-size="10.00">iDynTree::SpatialMomentum</text>
</a>
</g>
</g>
<!-- Node2 -->
<g id="node2" class="node">
<title>Node2</title>
<g id="a_node2"><a xlink:href="classiDynTree_1_1SpatialForceVector.html" target="_top" xlink:title="Class providing the raw coordinates for any spatial force vector, (i.e.">
<polygon fill="none" stroke="black" points="0,-57.5 0,-76.5 156,-76.5 156,-57.5 0,-57.5"/>
<text text-anchor="middle" x="78" y="-64.5" font-family="FreeSans.ttf" font-size="10.00">iDynTree::SpatialForceVector</text>
</a>
</g>
</g>
<!-- Node2&#45;&gt;Node1 -->
<g id="edge1" class="edge">
<title>Node2&#45;&gt;Node1</title>
<path fill="none" stroke="midnightblue" d="M78,-47.12C78,-37.82 78,-27.06 78,-19.71"/>
<polygon fill="midnightblue" stroke="midnightblue" points="74.5,-47.41 78,-57.41 81.5,-47.41 74.5,-47.41"/>
</g>
<!-- Node3 -->
<g id="node3" class="node">
<title>Node3</title>
<g id="a_node3"><a xlink:href="classiDynTree_1_1SpatialVector.html" target="_top" xlink:title=" ">
<polygon fill="none" stroke="black" points="13,-114.5 13,-144.5 143,-144.5 143,-114.5 13,-114.5"/>
<text text-anchor="start" x="21" y="-132.5" font-family="FreeSans.ttf" font-size="10.00">iDynTree::SpatialVector</text>
<text text-anchor="middle" x="78" y="-121.5" font-family="FreeSans.ttf" font-size="10.00">&lt; SpatialForceVector &gt;</text>
</a>
</g>
</g>
<!-- Node3&#45;&gt;Node2 -->
<g id="edge2" class="edge">
<title>Node3&#45;&gt;Node2</title>
<path fill="none" stroke="midnightblue" d="M78,-104.35C78,-94.51 78,-83.78 78,-76.54"/>
<polygon fill="midnightblue" stroke="midnightblue" points="74.5,-104.47 78,-114.47 81.5,-104.47 74.5,-104.47"/>
</g>
<!-- Node4 -->
<g id="node4" class="node">
<title>Node4</title>
<g id="a_node4"><a xlink:href="classiDynTree_1_1SpatialVector.html" target="_top" xlink:title=" ">
<polygon fill="none" stroke="black" points="13,-192.5 13,-211.5 143,-211.5 143,-192.5 13,-192.5"/>
<text text-anchor="middle" x="78" y="-199.5" font-family="FreeSans.ttf" font-size="10.00">iDynTree::SpatialVector</text>
</a>
</g>
</g>
<!-- Node4&#45;&gt;Node3 -->
<g id="edge3" class="edge">
<title>Node4&#45;&gt;Node3</title>
<path fill="none" stroke="orange" stroke-dasharray="5,2" d="M78,-182.24C78,-170.41 78,-155.38 78,-144.58"/>
<polygon fill="orange" stroke="orange" points="74.5,-182.36 78,-192.36 81.5,-182.36 74.5,-182.36"/>
<text text-anchor="middle" x="136.5" y="-166" font-family="FreeSans.ttf" font-size="10.00"> &lt; SpatialForceVector &gt;</text>
</g>
</g>
</svg>
