<?xml version="1.0" encoding="UTF-8" standalone="no"?>
<!DOCTYPE svg PUBLIC "-//W3C//DTD SVG 1.1//EN"
 "http://www.w3.org/Graphics/SVG/1.1/DTD/svg11.dtd">
<!-- Generated by graphviz version 2.43.0 (0)
 -->
<!-- Title: iDynTree::optimalcontrol::integrators::RK4 Pages: 1 -->
<svg width="185pt" height="173pt"
 viewBox="0.00 0.00 185.00 173.00" xmlns="http://www.w3.org/2000/svg" xmlns:xlink="http://www.w3.org/1999/xlink">
<g id="graph0" class="graph" transform="scale(1 1) rotate(0) translate(4 169)">
<title>iDynTree::optimalcontrol::integrators::RK4</title>
<!-- Node1 -->
<g id="node1" class="node">
<title>Node1</title>
<g id="a_node1"><a xlink:title=" ">
<polygon fill="#bfbfbf" stroke="black" points="20,-0.5 20,-30.5 157,-30.5 157,-0.5 20,-0.5"/>
<text text-anchor="start" x="28" y="-18.5" font-family="FreeSans.ttf" font-size="10.00">iDynTree::optimalcontrol</text>
<text text-anchor="middle" x="88.5" y="-7.5" font-family="FreeSans.ttf" font-size="10.00">::integrators::RK4</text>
</a>
</g>
</g>
<!-- Node2 -->
<g id="node2" class="node">
<title>Node2</title>
<g id="a_node2"><a xlink:href="classiDynTree_1_1optimalcontrol_1_1integrators_1_1FixedStepIntegrator.html" target="_top" xlink:title=" ">
<polygon fill="none" stroke="black" points="0,-67.5 0,-97.5 177,-97.5 177,-67.5 0,-67.5"/>
<text text-anchor="start" x="8" y="-85.5" font-family="FreeSans.ttf" font-size="10.00">iDynTree::optimalcontrol</text>
<text text-anchor="middle" x="88.5" y="-74.5" font-family="FreeSans.ttf" font-size="10.00">::integrators::FixedStepIntegrator</text>
</a>
</g>
</g>
<!-- Node2&#45;&gt;Node1 -->
<g id="edge1" class="edge">
<title>Node2&#45;&gt;Node1</title>
<path fill="none" stroke="midnightblue" d="M88.5,-57.11C88.5,-48.15 88.5,-38.32 88.5,-30.58"/>
<polygon fill="midnightblue" stroke="midnightblue" points="85,-57.4 88.5,-67.4 92,-57.4 85,-57.4"/>
</g>
<!-- Node3 -->
<g id="node3" class="node">
<title>Node3</title>
<g id="a_node3"><a xlink:href="classiDynTree_1_1optimalcontrol_1_1integrators_1_1Integrator.html" target="_top" xlink:title="The Integrator base class.">
<polygon fill="none" stroke="black" points="20,-134.5 20,-164.5 157,-164.5 157,-134.5 20,-134.5"/>
<text text-anchor="start" x="28" y="-152.5" font-family="FreeSans.ttf" font-size="10.00">iDynTree::optimalcontrol</text>
<text text-anchor="middle" x="88.5" y="-141.5" font-family="FreeSans.ttf" font-size="10.00">::integrators::Integrator</text>
</a>
</g>
</g>
<!-- Node3&#45;&gt;Node2 -->
<g id="edge2" class="edge">
<title>Node3&#45;&gt;Node2</title>
<path fill="none" stroke="midnightblue" d="M88.5,-124.11C88.5,-115.15 88.5,-105.32 88.5,-97.58"/>
<polygon fill="midnightblue" stroke="midnightblue" points="85,-124.4 88.5,-134.4 92,-124.4 85,-124.4"/>
</g>
</g>
</svg>
