<?xml version="1.0" encoding="UTF-8" standalone="no"?>
<!DOCTYPE svg PUBLIC "-//W3C//DTD SVG 1.1//EN"
 "http://www.w3.org/Graphics/SVG/1.1/DTD/svg11.dtd">
<!-- Generated by graphviz version 2.43.0 (0)
 -->
<!-- Title: iDynTree::optimization::Optimizer Pages: 1 -->
<svg width="298pt" height="186pt"
 viewBox="0.00 0.00 298.00 186.00" xmlns="http://www.w3.org/2000/svg" xmlns:xlink="http://www.w3.org/1999/xlink">
<g id="graph0" class="graph" transform="scale(1 1) rotate(0) translate(4 182)">
<title>iDynTree::optimization::Optimizer</title>
<!-- Node1 -->
<g id="node1" class="node">
<title>Node1</title>
<g id="a_node1"><a xlink:title=" ">
<polygon fill="#bfbfbf" stroke="black" points="0,-73.5 0,-103.5 127,-103.5 127,-73.5 0,-73.5"/>
<text text-anchor="start" x="8" y="-91.5" font-family="FreeSans.ttf" font-size="10.00">iDynTree::optimization</text>
<text text-anchor="middle" x="63.5" y="-80.5" font-family="FreeSans.ttf" font-size="10.00">::Optimizer</text>
</a>
</g>
</g>
<!-- Node2 -->
<g id="node2" class="node">
<title>Node2</title>
<g id="a_node2"><a xlink:href="classiDynTree_1_1optimization_1_1AlglibInterface.html" target="_top" xlink:title=" ">
<polygon fill="none" stroke="black" points="163,-147.5 163,-177.5 290,-177.5 290,-147.5 163,-147.5"/>
<text text-anchor="start" x="171" y="-165.5" font-family="FreeSans.ttf" font-size="10.00">iDynTree::optimization</text>
<text text-anchor="middle" x="226.5" y="-154.5" font-family="FreeSans.ttf" font-size="10.00">::AlglibInterface</text>
</a>
</g>
</g>
<!-- Node1&#45;&gt;Node2 -->
<g id="edge1" class="edge">
<title>Node1&#45;&gt;Node2</title>
<path fill="none" stroke="midnightblue" d="M101.06,-108.19C119.43,-117.79 142.16,-129.24 163,-138.5 169.9,-141.57 177.33,-144.63 184.57,-147.48"/>
<polygon fill="midnightblue" stroke="midnightblue" points="102.63,-105.06 92.15,-103.5 99.37,-111.26 102.63,-105.06"/>
</g>
<!-- Node3 -->
<g id="node3" class="node">
<title>Node3</title>
<g id="a_node3"><a xlink:href="classiDynTree_1_1optimization_1_1IpoptInterface.html" target="_top" xlink:title=" ">
<polygon fill="none" stroke="black" points="163,-98.5 163,-128.5 290,-128.5 290,-98.5 163,-98.5"/>
<text text-anchor="start" x="171" y="-116.5" font-family="FreeSans.ttf" font-size="10.00">iDynTree::optimization</text>
<text text-anchor="middle" x="226.5" y="-105.5" font-family="FreeSans.ttf" font-size="10.00">::IpoptInterface</text>
</a>
</g>
</g>
<!-- Node1&#45;&gt;Node3 -->
<g id="edge2" class="edge">
<title>Node1&#45;&gt;Node3</title>
<path fill="none" stroke="midnightblue" d="M137.22,-99.79C145.81,-101.13 154.53,-102.48 162.96,-103.79"/>
<polygon fill="midnightblue" stroke="midnightblue" points="137.63,-96.31 127.21,-98.24 136.55,-103.23 137.63,-96.31"/>
</g>
<!-- Node4 -->
<g id="node4" class="node">
<title>Node4</title>
<g id="a_node4"><a xlink:href="classiDynTree_1_1optimization_1_1OsqpInterface.html" target="_top" xlink:title=" ">
<polygon fill="none" stroke="black" points="163,-49.5 163,-79.5 290,-79.5 290,-49.5 163,-49.5"/>
<text text-anchor="start" x="171" y="-67.5" font-family="FreeSans.ttf" font-size="10.00">iDynTree::optimization</text>
<text text-anchor="middle" x="226.5" y="-56.5" font-family="FreeSans.ttf" font-size="10.00">::OsqpInterface</text>
</a>
</g>
</g>
<!-- Node1&#45;&gt;Node4 -->
<g id="edge3" class="edge">
<title>Node1&#45;&gt;Node4</title>
<path fill="none" stroke="midnightblue" d="M137.22,-77.66C145.81,-76.38 154.53,-75.08 162.96,-73.82"/>
<polygon fill="midnightblue" stroke="midnightblue" points="136.58,-74.22 127.21,-79.15 137.61,-81.14 136.58,-74.22"/>
</g>
<!-- Node5 -->
<g id="node5" class="node">
<title>Node5</title>
<g id="a_node5"><a xlink:href="classiDynTree_1_1optimization_1_1WorhpInterface.html" target="_top" xlink:title=" ">
<polygon fill="none" stroke="black" points="163,-0.5 163,-30.5 290,-30.5 290,-0.5 163,-0.5"/>
<text text-anchor="start" x="171" y="-18.5" font-family="FreeSans.ttf" font-size="10.00">iDynTree::optimization</text>
<text text-anchor="middle" x="226.5" y="-7.5" font-family="FreeSans.ttf" font-size="10.00">::WorhpInterface</text>
</a>
</g>
</g>
<!-- Node1&#45;&gt;Node5 -->
<g id="edge4" class="edge">
<title>Node1&#45;&gt;Node5</title>
<path fill="none" stroke="midnightblue" d="M103.04,-68.91C121.1,-59.94 143,-49.36 163,-40.5 170.59,-37.14 178.77,-33.72 186.64,-30.53"/>
<polygon fill="midnightblue" stroke="midnightblue" points="101.36,-65.84 93.98,-73.44 104.49,-72.1 101.36,-65.84"/>
</g>
</g>
</svg>
