<?xml version="1.0" encoding="UTF-8" standalone="no"?>
<!DOCTYPE svg PUBLIC "-//W3C//DTD SVG 1.1//EN"
 "http://www.w3.org/Graphics/SVG/1.1/DTD/svg11.dtd">
<!-- Generated by graphviz version 2.43.0 (0)
 -->
<!-- Title: iDynTree::SpatialVector Pages: 1 -->
<svg width="828pt" height="145pt"
 viewBox="0.00 0.00 828.00 145.00" xmlns="http://www.w3.org/2000/svg" xmlns:xlink="http://www.w3.org/1999/xlink">
<g id="graph0" class="graph" transform="scale(1 1) rotate(0) translate(4 141)">
<title>iDynTree::SpatialVector</title>
<!-- Node1 -->
<g id="node1" class="node">
<title>Node1</title>
<g id="a_node1"><a xlink:title=" ">
<polygon fill="#bfbfbf" stroke="black" points="0,-59.5 0,-78.5 130,-78.5 130,-59.5 0,-59.5"/>
<text text-anchor="middle" x="65" y="-66.5" font-family="FreeSans.ttf" font-size="10.00">iDynTree::SpatialVector</text>
</a>
</g>
</g>
<!-- Node2 -->
<g id="node2" class="node">
<title>Node2</title>
<g id="a_node2"><a xlink:href="classiDynTree_1_1SpatialVector.html" target="_top" xlink:title=" ">
<polygon fill="none" stroke="black" points="290,-79 290,-109 427,-109 427,-79 290,-79"/>
<text text-anchor="start" x="298" y="-97" font-family="FreeSans.ttf" font-size="10.00">iDynTree::SpatialVector</text>
<text text-anchor="middle" x="358.5" y="-86" font-family="FreeSans.ttf" font-size="10.00">&lt; SpatialMotionVector &gt;</text>
</a>
</g>
</g>
<!-- Node1&#45;&gt;Node2 -->
<g id="edge1" class="edge">
<title>Node1&#45;&gt;Node2</title>
<path fill="none" stroke="orange" stroke-dasharray="5,2" d="M140.54,-75.39C186.55,-79.34 245.1,-84.36 289.78,-88.19"/>
<polygon fill="orange" stroke="orange" points="140.59,-71.88 130.33,-74.52 140,-78.86 140.59,-71.88"/>
<text text-anchor="middle" x="210" y="-89" font-family="FreeSans.ttf" font-size="10.00"> &lt; SpatialMotionVector &gt;</text>
</g>
<!-- Node6 -->
<g id="node6" class="node">
<title>Node6</title>
<g id="a_node6"><a xlink:href="classiDynTree_1_1SpatialVector.html" target="_top" xlink:title=" ">
<polygon fill="none" stroke="black" points="293.5,-30 293.5,-60 423.5,-60 423.5,-30 293.5,-30"/>
<text text-anchor="start" x="301.5" y="-48" font-family="FreeSans.ttf" font-size="10.00">iDynTree::SpatialVector</text>
<text text-anchor="middle" x="358.5" y="-37" font-family="FreeSans.ttf" font-size="10.00">&lt; SpatialForceVector &gt;</text>
</a>
</g>
</g>
<!-- Node1&#45;&gt;Node6 -->
<g id="edge5" class="edge">
<title>Node1&#45;&gt;Node6</title>
<path fill="none" stroke="orange" stroke-dasharray="5,2" d="M136.84,-58.24C140.61,-57.79 144.35,-57.37 148,-57 196.57,-52.06 251.69,-49.01 293.2,-47.22"/>
<polygon fill="orange" stroke="orange" points="136.31,-54.77 126.83,-59.49 137.18,-61.72 136.31,-54.77"/>
<text text-anchor="middle" x="210" y="-60" font-family="FreeSans.ttf" font-size="10.00"> &lt; SpatialForceVector &gt;</text>
</g>
<!-- Node3 -->
<g id="node3" class="node">
<title>Node3</title>
<g id="a_node3"><a xlink:href="classiDynTree_1_1SpatialMotionVector.html" target="_top" xlink:title="Class providing the raw coordinates for any motion spatial vector (i.e.">
<polygon fill="none" stroke="black" points="464,-84.5 464,-103.5 628,-103.5 628,-84.5 464,-84.5"/>
<text text-anchor="middle" x="546" y="-91.5" font-family="FreeSans.ttf" font-size="10.00">iDynTree::SpatialMotionVector</text>
</a>
</g>
</g>
<!-- Node2&#45;&gt;Node3 -->
<g id="edge2" class="edge">
<title>Node2&#45;&gt;Node3</title>
<path fill="none" stroke="midnightblue" d="M437.42,-94C446.17,-94 455.09,-94 463.88,-94"/>
<polygon fill="midnightblue" stroke="midnightblue" points="437.26,-90.5 427.26,-94 437.26,-97.5 437.26,-90.5"/>
</g>
<!-- Node4 -->
<g id="node4" class="node">
<title>Node4</title>
<g id="a_node4"><a xlink:href="classiDynTree_1_1SpatialAcc.html" target="_top" xlink:title="Class representing a spatial acceleration, i.e.">
<polygon fill="none" stroke="black" points="684.5,-117.5 684.5,-136.5 800.5,-136.5 800.5,-117.5 684.5,-117.5"/>
<text text-anchor="middle" x="742.5" y="-124.5" font-family="FreeSans.ttf" font-size="10.00">iDynTree::SpatialAcc</text>
</a>
</g>
</g>
<!-- Node3&#45;&gt;Node4 -->
<g id="edge3" class="edge">
<title>Node3&#45;&gt;Node4</title>
<path fill="none" stroke="midnightblue" d="M612.88,-105.18C636.38,-109.16 662.61,-113.62 685.23,-117.45"/>
<polygon fill="midnightblue" stroke="midnightblue" points="613.44,-101.72 603,-103.5 612.27,-108.62 613.44,-101.72"/>
</g>
<!-- Node5 -->
<g id="node5" class="node">
<title>Node5</title>
<g id="a_node5"><a xlink:href="classiDynTree_1_1Twist.html" target="_top" xlink:title="Class representing a twist, i.e.">
<polygon fill="none" stroke="black" points="697.5,-79.5 697.5,-98.5 787.5,-98.5 787.5,-79.5 697.5,-79.5"/>
<text text-anchor="middle" x="742.5" y="-86.5" font-family="FreeSans.ttf" font-size="10.00">iDynTree::Twist</text>
</a>
</g>
</g>
<!-- Node3&#45;&gt;Node5 -->
<g id="edge4" class="edge">
<title>Node3&#45;&gt;Node5</title>
<path fill="none" stroke="midnightblue" d="M638.17,-91.66C658.81,-91.13 679.82,-90.59 697.46,-90.13"/>
<polygon fill="midnightblue" stroke="midnightblue" points="637.98,-88.16 628.08,-91.92 638.16,-95.16 637.98,-88.16"/>
</g>
<!-- Node7 -->
<g id="node7" class="node">
<title>Node7</title>
<g id="a_node7"><a xlink:href="classiDynTree_1_1SpatialForceVector.html" target="_top" xlink:title="Class providing the raw coordinates for any spatial force vector, (i.e.">
<polygon fill="none" stroke="black" points="468,-35.5 468,-54.5 624,-54.5 624,-35.5 468,-35.5"/>
<text text-anchor="middle" x="546" y="-42.5" font-family="FreeSans.ttf" font-size="10.00">iDynTree::SpatialForceVector</text>
</a>
</g>
</g>
<!-- Node6&#45;&gt;Node7 -->
<g id="edge6" class="edge">
<title>Node6&#45;&gt;Node7</title>
<path fill="none" stroke="midnightblue" d="M433.76,-45C444.96,-45 456.53,-45 467.79,-45"/>
<polygon fill="midnightblue" stroke="midnightblue" points="433.6,-41.5 423.6,-45 433.6,-48.5 433.6,-41.5"/>
</g>
<!-- Node8 -->
<g id="node8" class="node">
<title>Node8</title>
<g id="a_node8"><a xlink:href="classiDynTree_1_1SpatialMomentum.html" target="_top" xlink:title="Class representing a spatial momentum, i.e.">
<polygon fill="none" stroke="black" points="665,-38.5 665,-57.5 820,-57.5 820,-38.5 665,-38.5"/>
<text text-anchor="middle" x="742.5" y="-45.5" font-family="FreeSans.ttf" font-size="10.00">iDynTree::SpatialMomentum</text>
</a>
</g>
</g>
<!-- Node7&#45;&gt;Node8 -->
<g id="edge7" class="edge">
<title>Node7&#45;&gt;Node8</title>
<path fill="none" stroke="midnightblue" d="M634.26,-46.35C644.43,-46.5 654.75,-46.66 664.76,-46.82"/>
<polygon fill="midnightblue" stroke="midnightblue" points="634.2,-42.84 624.15,-46.19 634.1,-49.84 634.2,-42.84"/>
</g>
<!-- Node9 -->
<g id="node9" class="node">
<title>Node9</title>
<g id="a_node9"><a xlink:href="classiDynTree_1_1Wrench.html" target="_top" xlink:title="Class representing a wrench, i.e.">
<polygon fill="none" stroke="black" points="691.5,-0.5 691.5,-19.5 793.5,-19.5 793.5,-0.5 691.5,-0.5"/>
<text text-anchor="middle" x="742.5" y="-7.5" font-family="FreeSans.ttf" font-size="10.00">iDynTree::Wrench</text>
</a>
</g>
</g>
<!-- Node7&#45;&gt;Node9 -->
<g id="edge8" class="edge">
<title>Node7&#45;&gt;Node9</title>
<path fill="none" stroke="midnightblue" d="M609.79,-33.7C636.17,-28.95 666.44,-23.51 691.3,-19.03"/>
<polygon fill="midnightblue" stroke="midnightblue" points="609.11,-30.27 599.89,-35.48 610.35,-37.16 609.11,-30.27"/>
</g>
</g>
</svg>
