<?xml version="1.0" encoding="UTF-8" standalone="no"?>
<!DOCTYPE svg PUBLIC "-//W3C//DTD SVG 1.1//EN"
 "http://www.w3.org/Graphics/SVG/1.1/DTD/svg11.dtd">
<!-- Generated by graphviz version 2.43.0 (0)
 -->
<!-- Title: iDynTree::BoundingBoxProjectionConstraint Pages: 1 -->
<svg width="775pt" height="196pt"
 viewBox="0.00 0.00 775.00 196.00" xmlns="http://www.w3.org/2000/svg" xmlns:xlink="http://www.w3.org/1999/xlink">
<g id="graph0" class="graph" transform="scale(1 1) rotate(0) translate(4 192)">
<title>iDynTree::BoundingBoxProjectionConstraint</title>
<!-- Node1 -->
<g id="node1" class="node">
<title>Node1</title>
<g id="a_node1"><a xlink:title="BoundingBoxProjectionConstraint helper.">
<polygon fill="#bfbfbf" stroke="black" points="588,-71 588,-101 767,-101 767,-71 588,-71"/>
<text text-anchor="start" x="596" y="-89" font-family="FreeSans.ttf" font-size="10.00">iDynTree::BoundingBoxProjection</text>
<text text-anchor="middle" x="677.5" y="-78" font-family="FreeSans.ttf" font-size="10.00">Constraint</text>
</a>
</g>
</g>
<!-- Node2 -->
<g id="node2" class="node">
<title>Node2</title>
<g id="a_node2"><a xlink:href="classiDynTree_1_1MatrixDynSize.html" target="_top" xlink:title="Class providing a simple form of matrix with dynamic size.">
<polygon fill="none" stroke="black" points="301,-164.5 301,-183.5 438,-183.5 438,-164.5 301,-164.5"/>
<text text-anchor="middle" x="369.5" y="-171.5" font-family="FreeSans.ttf" font-size="10.00">iDynTree::MatrixDynSize</text>
</a>
</g>
</g>
<!-- Node2&#45;&gt;Node1 -->
<g id="edge1" class="edge">
<title>Node2&#45;&gt;Node1</title>
<path fill="none" stroke="#9a32cd" stroke-dasharray="5,2" d="M448.64,-167.42C486.05,-162.77 531.06,-154.97 570,-142 600.12,-131.96 632.02,-114.1 652.97,-101.25"/>
<polygon fill="#9a32cd" stroke="#9a32cd" points="447.82,-163.99 438.3,-168.64 448.64,-170.94 447.82,-163.99"/>
<text text-anchor="middle" x="513" y="-180" font-family="FreeSans.ttf" font-size="10.00"> AtimesP</text>
<text text-anchor="middle" x="513" y="-169" font-family="FreeSans.ttf" font-size="10.00">A</text>
</g>
<!-- Node3 -->
<g id="node3" class="node">
<title>Node3</title>
<g id="a_node3"><a xlink:href="classiDynTree_1_1MatrixFixSize.html" target="_top" xlink:title=" ">
<polygon fill="none" stroke="black" points="304,-115 304,-145 435,-145 435,-115 304,-115"/>
<text text-anchor="start" x="312" y="-133" font-family="FreeSans.ttf" font-size="10.00">iDynTree::MatrixFixSize</text>
<text text-anchor="middle" x="369.5" y="-122" font-family="FreeSans.ttf" font-size="10.00">&lt; 2, 3 &gt;</text>
</a>
</g>
</g>
<!-- Node3&#45;&gt;Node1 -->
<g id="edge2" class="edge">
<title>Node3&#45;&gt;Node1</title>
<path fill="none" stroke="#9a32cd" stroke-dasharray="5,2" d="M445.16,-119.26C488.26,-113.07 542.73,-105.23 587.98,-98.73"/>
<polygon fill="#9a32cd" stroke="#9a32cd" points="444.42,-115.83 435.02,-120.72 445.42,-122.76 444.42,-115.83"/>
<text text-anchor="middle" x="513" y="-130" font-family="FreeSans.ttf" font-size="10.00"> P</text>
<text text-anchor="middle" x="513" y="-119" font-family="FreeSans.ttf" font-size="10.00">Pdirection</text>
</g>
<!-- Node4 -->
<g id="node4" class="node">
<title>Node4</title>
<g id="a_node4"><a xlink:href="classiDynTree_1_1MatrixFixSize.html" target="_top" xlink:title="Class providing a simple form of matrix with dynamic size.">
<polygon fill="none" stroke="black" points="90,-115 90,-145 221,-145 221,-115 90,-115"/>
<text text-anchor="start" x="98" y="-133" font-family="FreeSans.ttf" font-size="10.00">iDynTree::MatrixFixSize</text>
<text text-anchor="middle" x="155.5" y="-122" font-family="FreeSans.ttf" font-size="10.00">&lt; nRows, nCols &gt;</text>
</a>
</g>
</g>
<!-- Node4&#45;&gt;Node3 -->
<g id="edge3" class="edge">
<title>Node4&#45;&gt;Node3</title>
<path fill="none" stroke="orange" stroke-dasharray="5,2" d="M231.56,-130C255.15,-130 280.97,-130 303.77,-130"/>
<polygon fill="orange" stroke="orange" points="231.26,-126.5 221.26,-130 231.26,-133.5 231.26,-126.5"/>
<text text-anchor="middle" x="261" y="-133" font-family="FreeSans.ttf" font-size="10.00"> &lt; 2, 3 &gt;</text>
</g>
<!-- Node5 -->
<g id="node5" class="node">
<title>Node5</title>
<g id="a_node5"><a xlink:href="classiDynTree_1_1Polygon2D.html" target="_top" xlink:title="Class representing a 2D Polygon expressed in the 2D space.">
<polygon fill="none" stroke="black" points="310.5,-76.5 310.5,-95.5 428.5,-95.5 428.5,-76.5 310.5,-76.5"/>
<text text-anchor="middle" x="369.5" y="-83.5" font-family="FreeSans.ttf" font-size="10.00">iDynTree::Polygon2D</text>
</a>
</g>
</g>
<!-- Node5&#45;&gt;Node1 -->
<g id="edge4" class="edge">
<title>Node5&#45;&gt;Node1</title>
<path fill="none" stroke="#9a32cd" stroke-dasharray="5,2" d="M438.78,-86C482.71,-86 540.25,-86 587.71,-86"/>
<polygon fill="#9a32cd" stroke="#9a32cd" points="438.78,-82.5 428.78,-86 438.78,-89.5 438.78,-82.5"/>
<text text-anchor="middle" x="513" y="-89" font-family="FreeSans.ttf" font-size="10.00"> projectedBoundingBox</text>
</g>
<!-- Node6 -->
<g id="node6" class="node">
<title>Node6</title>
<g id="a_node6"><a xlink:href="classiDynTree_1_1Position.html" target="_top" xlink:title="Class representation the coordinates of the Position of a point with respect to another point.">
<polygon fill="none" stroke="black" points="317.5,-38.5 317.5,-57.5 421.5,-57.5 421.5,-38.5 317.5,-38.5"/>
<text text-anchor="middle" x="369.5" y="-45.5" font-family="FreeSans.ttf" font-size="10.00">iDynTree::Position</text>
</a>
</g>
</g>
<!-- Node6&#45;&gt;Node1 -->
<g id="edge5" class="edge">
<title>Node6&#45;&gt;Node1</title>
<path fill="none" stroke="#9a32cd" stroke-dasharray="5,2" d="M431.8,-54.66C471.29,-59.06 523.71,-65.07 570,-71 575.83,-71.75 581.84,-72.54 587.9,-73.35"/>
<polygon fill="#9a32cd" stroke="#9a32cd" points="432.12,-51.18 421.8,-53.56 431.35,-58.14 432.12,-51.18"/>
<text text-anchor="middle" x="513" y="-74" font-family="FreeSans.ttf" font-size="10.00"> o</text>
</g>
<!-- Node7 -->
<g id="node7" class="node">
<title>Node7</title>
<g id="a_node7"><a xlink:href="classiDynTree_1_1PositionRaw.html" target="_top" xlink:title="Class providing the raw coordinates for iDynTree::Position class.">
<polygon fill="none" stroke="black" points="93,-38.5 93,-57.5 218,-57.5 218,-38.5 93,-38.5"/>
<text text-anchor="middle" x="155.5" y="-45.5" font-family="FreeSans.ttf" font-size="10.00">iDynTree::PositionRaw</text>
</a>
</g>
</g>
<!-- Node7&#45;&gt;Node6 -->
<g id="edge6" class="edge">
<title>Node7&#45;&gt;Node6</title>
<path fill="none" stroke="midnightblue" d="M228.28,-48C257.56,-48 290.74,-48 317.47,-48"/>
<polygon fill="midnightblue" stroke="midnightblue" points="228.1,-44.5 218.1,-48 228.1,-51.5 228.1,-44.5"/>
</g>
<!-- Node8 -->
<g id="node8" class="node">
<title>Node8</title>
<g id="a_node8"><a xlink:href="classiDynTree_1_1VectorFixSize.html" target="_top" xlink:title="Class providing a simple vector of N elements.">
<polygon fill="none" stroke="black" points="0,-38.5 0,-57.5 53,-57.5 53,-38.5 0,-38.5"/>
<text text-anchor="middle" x="26.5" y="-45.5" font-family="FreeSans.ttf" font-size="10.00">Vector3</text>
</a>
</g>
</g>
<!-- Node8&#45;&gt;Node7 -->
<g id="edge7" class="edge">
<title>Node8&#45;&gt;Node7</title>
<path fill="none" stroke="midnightblue" d="M63.48,-48C72.67,-48 82.8,-48 92.87,-48"/>
<polygon fill="midnightblue" stroke="midnightblue" points="63.2,-44.5 53.2,-48 63.2,-51.5 63.2,-44.5"/>
</g>
<!-- Node9 -->
<g id="node9" class="node">
<title>Node9</title>
<g id="a_node9"><a xlink:href="classiDynTree_1_1VectorDynSize.html" target="_top" xlink:title="Class providing a simple form of vector with dynamic size.">
<polygon fill="none" stroke="black" points="301.5,-0.5 301.5,-19.5 437.5,-19.5 437.5,-0.5 301.5,-0.5"/>
<text text-anchor="middle" x="369.5" y="-7.5" font-family="FreeSans.ttf" font-size="10.00">iDynTree::VectorDynSize</text>
</a>
</g>
</g>
<!-- Node9&#45;&gt;Node1 -->
<g id="edge8" class="edge">
<title>Node9&#45;&gt;Node1</title>
<path fill="none" stroke="#9a32cd" stroke-dasharray="5,2" d="M448.15,-18.19C485.44,-23.2 530.51,-30.84 570,-42 596.18,-49.4 624.6,-61.35 645.49,-70.94"/>
<polygon fill="#9a32cd" stroke="#9a32cd" points="448.21,-14.67 437.84,-16.84 447.31,-21.61 448.21,-14.67"/>
<text text-anchor="middle" x="513" y="-45" font-family="FreeSans.ttf" font-size="10.00"> b</text>
</g>
</g>
</svg>
