<?xml version="1.0" encoding="UTF-8" standalone="no"?>
<!DOCTYPE svg PUBLIC "-//W3C//DTD SVG 1.1//EN"
 "http://www.w3.org/Graphics/SVG/1.1/DTD/svg11.dtd">
<!-- Generated by graphviz version 2.43.0 (0)
 -->
<!-- Title: iDynTree::AttitudeMahonyFilter Pages: 1 -->
<svg width="954pt" height="146pt"
 viewBox="0.00 0.00 954.00 146.00" xmlns="http://www.w3.org/2000/svg" xmlns:xlink="http://www.w3.org/1999/xlink">
<g id="graph0" class="graph" transform="scale(1 1) rotate(0) translate(4 142)">
<title>iDynTree::AttitudeMahonyFilter</title>
<!-- Node1 -->
<g id="node1" class="node">
<title>Node1</title>
<g id="a_node1"><a xlink:title=" ">
<polygon fill="#bfbfbf" stroke="black" points="803,-69 803,-99 946,-99 946,-69 803,-69"/>
<text text-anchor="start" x="811" y="-87" font-family="FreeSans.ttf" font-size="10.00">iDynTree::AttitudeMahony</text>
<text text-anchor="middle" x="874.5" y="-76" font-family="FreeSans.ttf" font-size="10.00">Filter</text>
</a>
</g>
</g>
<!-- Node2 -->
<g id="node2" class="node">
<title>Node2</title>
<g id="a_node2"><a xlink:href="classiDynTree_1_1IAttitudeEstimator.html" target="_top" xlink:title=" ">
<polygon fill="none" stroke="black" points="494,-118.5 494,-137.5 649,-137.5 649,-118.5 494,-118.5"/>
<text text-anchor="middle" x="571.5" y="-125.5" font-family="FreeSans.ttf" font-size="10.00">iDynTree::IAttitudeEstimator</text>
</a>
</g>
</g>
<!-- Node2&#45;&gt;Node1 -->
<g id="edge1" class="edge">
<title>Node2&#45;&gt;Node1</title>
<path fill="none" stroke="midnightblue" d="M657.09,-117.09C696.08,-111.9 742.94,-105.43 785,-99 790.7,-98.13 796.6,-97.2 802.53,-96.24"/>
<polygon fill="midnightblue" stroke="midnightblue" points="656.29,-113.67 646.83,-118.45 657.21,-120.61 656.29,-113.67"/>
</g>
<!-- Node3 -->
<g id="node3" class="node">
<title>Node3</title>
<g id="a_node3"><a xlink:href="structiDynTree_1_1AttitudeMahonyFilterParameters.html" target="_top" xlink:title=" ">
<polygon fill="none" stroke="black" points="500,-69 500,-99 643,-99 643,-69 500,-69"/>
<text text-anchor="start" x="508" y="-87" font-family="FreeSans.ttf" font-size="10.00">iDynTree::AttitudeMahony</text>
<text text-anchor="middle" x="571.5" y="-76" font-family="FreeSans.ttf" font-size="10.00">FilterParameters</text>
</a>
</g>
</g>
<!-- Node3&#45;&gt;Node1 -->
<g id="edge2" class="edge">
<title>Node3&#45;&gt;Node1</title>
<path fill="none" stroke="#9a32cd" stroke-dasharray="5,2" d="M653.15,-84C699.81,-84 757.99,-84 802.85,-84"/>
<polygon fill="#9a32cd" stroke="#9a32cd" points="653.07,-80.5 643.07,-84 653.07,-87.5 653.07,-80.5"/>
<text text-anchor="middle" x="726" y="-87" font-family="FreeSans.ttf" font-size="10.00"> m_params_mahony</text>
</g>
<!-- Node4 -->
<g id="node4" class="node">
<title>Node4</title>
<g id="a_node4"><a xlink:href="structiDynTree_1_1AttitudeEstimatorState.html" target="_top" xlink:title=" ">
<polygon fill="none" stroke="black" points="495.5,-20 495.5,-50 647.5,-50 647.5,-20 495.5,-20"/>
<text text-anchor="start" x="503.5" y="-38" font-family="FreeSans.ttf" font-size="10.00">iDynTree::AttitudeEstimator</text>
<text text-anchor="middle" x="571.5" y="-27" font-family="FreeSans.ttf" font-size="10.00">State</text>
</a>
</g>
</g>
<!-- Node4&#45;&gt;Node1 -->
<g id="edge3" class="edge">
<title>Node4&#45;&gt;Node1</title>
<path fill="none" stroke="#9a32cd" stroke-dasharray="5,2" d="M658,-40.76C696.98,-44.28 743.58,-49.74 785,-58 799.13,-60.82 814.27,-64.87 827.95,-68.94"/>
<polygon fill="#9a32cd" stroke="#9a32cd" points="658,-37.25 647.74,-39.86 657.39,-44.22 658,-37.25"/>
<text text-anchor="middle" x="726" y="-72" font-family="FreeSans.ttf" font-size="10.00"> m_state_mahony</text>
<text text-anchor="middle" x="726" y="-61" font-family="FreeSans.ttf" font-size="10.00">m_initial_state_mahony</text>
</g>
<!-- Node5 -->
<g id="node5" class="node">
<title>Node5</title>
<g id="a_node5"><a xlink:href="classiDynTree_1_1VectorFixSize.html" target="_top" xlink:title="Class providing a simple vector of N elements.">
<polygon fill="none" stroke="black" points="0,-18 0,-48 131,-48 131,-18 0,-18"/>
<text text-anchor="start" x="8" y="-36" font-family="FreeSans.ttf" font-size="10.00">iDynTree::VectorFixSize</text>
<text text-anchor="middle" x="65.5" y="-25" font-family="FreeSans.ttf" font-size="10.00">&lt; VecSize &gt;</text>
</a>
</g>
</g>
<!-- Node5&#45;&gt;Node4 -->
<g id="edge4" class="edge">
<title>Node5&#45;&gt;Node4</title>
<path fill="none" stroke="#9a32cd" stroke-dasharray="5,2" d="M141.36,-38.64C143.94,-38.77 146.49,-38.89 149,-39 294.21,-45.23 330.76,-47.37 476,-42 482.33,-41.77 488.89,-41.44 495.48,-41.07"/>
<polygon fill="#9a32cd" stroke="#9a32cd" points="141.51,-35.14 131.33,-38.08 141.12,-42.13 141.51,-35.14"/>
<text text-anchor="middle" x="278.5" y="-48" font-family="FreeSans.ttf" font-size="10.00"> m_orientation</text>
</g>
<!-- Node6 -->
<g id="node6" class="node">
<title>Node6</title>
<g id="a_node6"><a xlink:href="classiDynTree_1_1VectorFixSize.html" target="_top" xlink:title=" ">
<polygon fill="none" stroke="black" points="199,-0.5 199,-19.5 358,-19.5 358,-0.5 199,-0.5"/>
<text text-anchor="middle" x="278.5" y="-7.5" font-family="FreeSans.ttf" font-size="10.00">iDynTree::VectorFixSize&lt; 3 &gt;</text>
</a>
</g>
</g>
<!-- Node5&#45;&gt;Node6 -->
<g id="edge6" class="edge">
<title>Node5&#45;&gt;Node6</title>
<path fill="none" stroke="orange" stroke-dasharray="5,2" d="M141.41,-24.83C160,-22.81 179.98,-20.63 198.75,-18.58"/>
<polygon fill="orange" stroke="orange" points="140.8,-21.38 131.24,-25.94 141.56,-28.34 140.8,-21.38"/>
<text text-anchor="middle" x="165" y="-27" font-family="FreeSans.ttf" font-size="10.00"> &lt; 3 &gt;</text>
</g>
<!-- Node6&#45;&gt;Node4 -->
<g id="edge5" class="edge">
<title>Node6&#45;&gt;Node4</title>
<path fill="none" stroke="#9a32cd" stroke-dasharray="5,2" d="M368.36,-12.51C402.13,-14 440.9,-16.33 476,-20 482.28,-20.66 488.77,-21.45 495.29,-22.32"/>
<polygon fill="#9a32cd" stroke="#9a32cd" points="368.19,-9 358.06,-12.08 367.9,-16 368.19,-9"/>
<text text-anchor="middle" x="426" y="-34" font-family="FreeSans.ttf" font-size="10.00"> m_angular_velocity</text>
<text text-anchor="middle" x="426" y="-23" font-family="FreeSans.ttf" font-size="10.00">m_gyroscope_bias</text>
</g>
</g>
</svg>
