<?xml version="1.0" encoding="UTF-8" standalone="no"?>
<!DOCTYPE svg PUBLIC "-//W3C//DTD SVG 1.1//EN"
 "http://www.w3.org/Graphics/SVG/1.1/DTD/svg11.dtd">
<!-- Generated by graphviz version 2.43.0 (0)
 -->
<!-- Title: iDynTree::Environment Pages: 1 -->
<svg width="476pt" height="152pt"
 viewBox="0.00 0.00 475.50 152.00" xmlns="http://www.w3.org/2000/svg" xmlns:xlink="http://www.w3.org/1999/xlink">
<g id="graph0" class="graph" transform="scale(1 1) rotate(0) translate(4 148)">
<title>iDynTree::Environment</title>
<!-- Node1 -->
<g id="node1" class="node">
<title>Node1</title>
<g id="a_node1"><a xlink:title=" ">
<polygon fill="#bfbfbf" stroke="black" points="171.5,-0.5 171.5,-19.5 299.5,-19.5 299.5,-0.5 171.5,-0.5"/>
<text text-anchor="middle" x="235.5" y="-7.5" font-family="FreeSans.ttf" font-size="10.00">iDynTree::Environment</text>
</a>
</g>
</g>
<!-- Node2 -->
<g id="node2" class="node">
<title>Node2</title>
<g id="a_node2"><a xlink:href="classiDynTree_1_1IEnvironment.html" target="_top" xlink:title="Interface to manipulate the elements in the enviroment (background, root frame, reference lines)">
<polygon fill="none" stroke="black" points="0,-67.5 0,-86.5 131,-86.5 131,-67.5 0,-67.5"/>
<text text-anchor="middle" x="65.5" y="-74.5" font-family="FreeSans.ttf" font-size="10.00">iDynTree::IEnvironment</text>
</a>
</g>
</g>
<!-- Node2&#45;&gt;Node1 -->
<g id="edge1" class="edge">
<title>Node2&#45;&gt;Node1</title>
<path fill="none" stroke="midnightblue" d="M97.48,-63.77C131.22,-50.87 183.52,-30.88 213.1,-19.56"/>
<polygon fill="midnightblue" stroke="midnightblue" points="96.17,-60.53 88.07,-67.37 98.67,-67.07 96.17,-60.53"/>
</g>
<!-- Node3 -->
<g id="node3" class="node">
<title>Node3</title>
<g id="a_node3"><a xlink:href="classiDynTree_1_1CFloorGridSceneNode.html" target="_top" xlink:title=" ">
<polygon fill="none" stroke="black" points="149.5,-67.5 149.5,-86.5 321.5,-86.5 321.5,-67.5 149.5,-67.5"/>
<text text-anchor="middle" x="235.5" y="-74.5" font-family="FreeSans.ttf" font-size="10.00">iDynTree::CFloorGridSceneNode</text>
</a>
</g>
</g>
<!-- Node3&#45;&gt;Node1 -->
<g id="edge2" class="edge">
<title>Node3&#45;&gt;Node1</title>
<path fill="none" stroke="#9a32cd" stroke-dasharray="5,2" d="M235.5,-57.04C235.5,-44.67 235.5,-29.12 235.5,-19.63"/>
<polygon fill="#9a32cd" stroke="#9a32cd" points="232,-57.23 235.5,-67.23 239,-57.23 232,-57.23"/>
<text text-anchor="middle" x="278.5" y="-41" font-family="FreeSans.ttf" font-size="10.00"> m_floorGridNode</text>
</g>
<!-- Node4 -->
<g id="node4" class="node">
<title>Node4</title>
<g id="a_node4"><a xlink:title=" ">
<polygon fill="none" stroke="#bfbfbf" points="173,-124.5 173,-143.5 298,-143.5 298,-124.5 173,-124.5"/>
<text text-anchor="middle" x="235.5" y="-131.5" font-family="FreeSans.ttf" font-size="10.00">irr::scene::ISceneNode</text>
</a>
</g>
</g>
<!-- Node4&#45;&gt;Node3 -->
<g id="edge3" class="edge">
<title>Node4&#45;&gt;Node3</title>
<path fill="none" stroke="midnightblue" d="M235.5,-114.12C235.5,-104.82 235.5,-94.06 235.5,-86.71"/>
<polygon fill="midnightblue" stroke="midnightblue" points="232,-114.41 235.5,-124.41 239,-114.41 232,-114.41"/>
</g>
<!-- Node5 -->
<g id="node5" class="node">
<title>Node5</title>
<g id="a_node5"><a xlink:href="classiDynTree_1_1DummyLight.html" target="_top" xlink:title="Dummy light.">
<polygon fill="none" stroke="black" points="339.5,-67.5 339.5,-86.5 467.5,-86.5 467.5,-67.5 339.5,-67.5"/>
<text text-anchor="middle" x="403.5" y="-74.5" font-family="FreeSans.ttf" font-size="10.00">iDynTree::DummyLight</text>
</a>
</g>
</g>
<!-- Node5&#45;&gt;Node1 -->
<g id="edge4" class="edge">
<title>Node5&#45;&gt;Node1</title>
<path fill="none" stroke="#9a32cd" stroke-dasharray="5,2" d="M378.53,-62.55C363.45,-54.75 343.69,-45.1 325.5,-38 307.11,-30.82 286,-24.39 268.85,-19.61"/>
<polygon fill="#9a32cd" stroke="#9a32cd" points="377.22,-65.82 387.71,-67.36 380.48,-59.62 377.22,-65.82"/>
<text text-anchor="middle" x="390.5" y="-41" font-family="FreeSans.ttf" font-size="10.00"> m_dummyLight</text>
</g>
<!-- Node6 -->
<g id="node6" class="node">
<title>Node6</title>
<g id="a_node6"><a xlink:href="classiDynTree_1_1ILight.html" target="_top" xlink:title="Interface to a light visualization.">
<polygon fill="none" stroke="black" points="357.5,-124.5 357.5,-143.5 449.5,-143.5 449.5,-124.5 357.5,-124.5"/>
<text text-anchor="middle" x="403.5" y="-131.5" font-family="FreeSans.ttf" font-size="10.00">iDynTree::ILight</text>
</a>
</g>
</g>
<!-- Node6&#45;&gt;Node5 -->
<g id="edge5" class="edge">
<title>Node6&#45;&gt;Node5</title>
<path fill="none" stroke="midnightblue" d="M403.5,-114.12C403.5,-104.82 403.5,-94.06 403.5,-86.71"/>
<polygon fill="midnightblue" stroke="midnightblue" points="400,-114.41 403.5,-124.41 407,-114.41 400,-114.41"/>
</g>
</g>
</svg>
