<?xml version="1.0" encoding="UTF-8" standalone="no"?>
<!DOCTYPE svg PUBLIC "-//W3C//DTD SVG 1.1//EN"
 "http://www.w3.org/Graphics/SVG/1.1/DTD/svg11.dtd">
<!-- Generated by graphviz version 2.43.0 (0)
 -->
<!-- Title: iDynTree::optimalcontrol::Cost Pages: 1 -->
<svg width="377pt" height="173pt"
 viewBox="0.00 0.00 377.00 173.00" xmlns="http://www.w3.org/2000/svg" xmlns:xlink="http://www.w3.org/1999/xlink">
<g id="graph0" class="graph" transform="scale(1 1) rotate(0) translate(4 169)">
<title>iDynTree::optimalcontrol::Cost</title>
<!-- Node1 -->
<g id="node1" class="node">
<title>Node1</title>
<g id="a_node1"><a xlink:title="The Cost virtual class definition.">
<polygon fill="#bfbfbf" stroke="black" points="77,-134.5 77,-164.5 214,-164.5 214,-134.5 77,-134.5"/>
<text text-anchor="start" x="85" y="-152.5" font-family="FreeSans.ttf" font-size="10.00">iDynTree::optimalcontrol</text>
<text text-anchor="middle" x="145.5" y="-141.5" font-family="FreeSans.ttf" font-size="10.00">::Cost</text>
</a>
</g>
</g>
<!-- Node2 -->
<g id="node2" class="node">
<title>Node2</title>
<g id="a_node2"><a xlink:href="classiDynTree_1_1optimalcontrol_1_1L2NormCost.html" target="_top" xlink:title=" ">
<polygon fill="none" stroke="black" points="0,-67.5 0,-97.5 137,-97.5 137,-67.5 0,-67.5"/>
<text text-anchor="start" x="8" y="-85.5" font-family="FreeSans.ttf" font-size="10.00">iDynTree::optimalcontrol</text>
<text text-anchor="middle" x="68.5" y="-74.5" font-family="FreeSans.ttf" font-size="10.00">::L2NormCost</text>
</a>
</g>
</g>
<!-- Node1&#45;&gt;Node2 -->
<g id="edge1" class="edge">
<title>Node1&#45;&gt;Node2</title>
<path fill="none" stroke="midnightblue" d="M121.08,-127.88C109.38,-118.01 95.66,-106.43 85.18,-97.58"/>
<polygon fill="midnightblue" stroke="midnightblue" points="118.89,-130.62 128.79,-134.4 123.41,-125.27 118.89,-130.62"/>
</g>
<!-- Node3 -->
<g id="node3" class="node">
<title>Node3</title>
<g id="a_node3"><a xlink:href="classiDynTree_1_1optimalcontrol_1_1QuadraticLikeCost.html" target="_top" xlink:title=" ">
<polygon fill="none" stroke="black" points="155,-67.5 155,-97.5 292,-97.5 292,-67.5 155,-67.5"/>
<text text-anchor="start" x="163" y="-85.5" font-family="FreeSans.ttf" font-size="10.00">iDynTree::optimalcontrol</text>
<text text-anchor="middle" x="223.5" y="-74.5" font-family="FreeSans.ttf" font-size="10.00">::QuadraticLikeCost</text>
</a>
</g>
</g>
<!-- Node1&#45;&gt;Node3 -->
<g id="edge2" class="edge">
<title>Node1&#45;&gt;Node3</title>
<path fill="none" stroke="midnightblue" d="M170.24,-127.88C182.09,-118.01 195.98,-106.43 206.61,-97.58"/>
<polygon fill="midnightblue" stroke="midnightblue" points="167.87,-125.31 162.42,-134.4 172.35,-130.68 167.87,-125.31"/>
</g>
<!-- Node4 -->
<g id="node4" class="node">
<title>Node4</title>
<g id="a_node4"><a xlink:href="classiDynTree_1_1optimalcontrol_1_1LinearCost.html" target="_top" xlink:title=" ">
<polygon fill="none" stroke="black" points="77,-0.5 77,-30.5 214,-30.5 214,-0.5 77,-0.5"/>
<text text-anchor="start" x="85" y="-18.5" font-family="FreeSans.ttf" font-size="10.00">iDynTree::optimalcontrol</text>
<text text-anchor="middle" x="145.5" y="-7.5" font-family="FreeSans.ttf" font-size="10.00">::LinearCost</text>
</a>
</g>
</g>
<!-- Node3&#45;&gt;Node4 -->
<g id="edge3" class="edge">
<title>Node3&#45;&gt;Node4</title>
<path fill="none" stroke="midnightblue" d="M198.76,-60.88C186.91,-51.01 173.02,-39.43 162.39,-30.58"/>
<polygon fill="midnightblue" stroke="midnightblue" points="196.65,-63.68 206.58,-67.4 201.13,-58.31 196.65,-63.68"/>
</g>
<!-- Node5 -->
<g id="node5" class="node">
<title>Node5</title>
<g id="a_node5"><a xlink:href="classiDynTree_1_1optimalcontrol_1_1QuadraticCost.html" target="_top" xlink:title=" ">
<polygon fill="none" stroke="black" points="232,-0.5 232,-30.5 369,-30.5 369,-0.5 232,-0.5"/>
<text text-anchor="start" x="240" y="-18.5" font-family="FreeSans.ttf" font-size="10.00">iDynTree::optimalcontrol</text>
<text text-anchor="middle" x="300.5" y="-7.5" font-family="FreeSans.ttf" font-size="10.00">::QuadraticCost</text>
</a>
</g>
</g>
<!-- Node3&#45;&gt;Node5 -->
<g id="edge4" class="edge">
<title>Node3&#45;&gt;Node5</title>
<path fill="none" stroke="midnightblue" d="M247.92,-60.88C259.62,-51.01 273.34,-39.43 283.82,-30.58"/>
<polygon fill="midnightblue" stroke="midnightblue" points="245.59,-58.27 240.21,-67.4 250.11,-63.62 245.59,-58.27"/>
</g>
</g>
</svg>
