<?xml version="1.0" encoding="UTF-8" standalone="no"?>
<!DOCTYPE svg PUBLIC "-//W3C//DTD SVG 1.1//EN"
 "http://www.w3.org/Graphics/SVG/1.1/DTD/svg11.dtd">
<!-- Generated by graphviz version 2.43.0 (0)
 -->
<!-- Title: iDynTree::optimalcontrol::L2NormCost::L2NormCostImplementation Pages: 1 -->
<svg width="300pt" height="217pt"
 viewBox="0.00 0.00 299.50 217.00" xmlns="http://www.w3.org/2000/svg" xmlns:xlink="http://www.w3.org/1999/xlink">
<g id="graph0" class="graph" transform="scale(1 1) rotate(0) translate(4 213)">
<title>iDynTree::optimalcontrol::L2NormCost::L2NormCostImplementation</title>
<!-- Node1 -->
<g id="node1" class="node">
<title>Node1</title>
<g id="a_node1"><a xlink:title=" ">
<polygon fill="#bfbfbf" stroke="black" points="32,-0.5 32,-30.5 259,-30.5 259,-0.5 32,-0.5"/>
<text text-anchor="start" x="40" y="-18.5" font-family="FreeSans.ttf" font-size="10.00">iDynTree::optimalcontrol</text>
<text text-anchor="middle" x="145.5" y="-7.5" font-family="FreeSans.ttf" font-size="10.00">::L2NormCost::L2NormCostImplementation</text>
</a>
</g>
</g>
<!-- Node2 -->
<g id="node2" class="node">
<title>Node2</title>
<g id="a_node2"><a xlink:href="classiDynTree_1_1optimalcontrol_1_1CostAttributes.html" target="_top" xlink:title=" ">
<polygon fill="none" stroke="black" points="77,-89.5 77,-119.5 214,-119.5 214,-89.5 77,-89.5"/>
<text text-anchor="start" x="85" y="-107.5" font-family="FreeSans.ttf" font-size="10.00">iDynTree::optimalcontrol</text>
<text text-anchor="middle" x="145.5" y="-96.5" font-family="FreeSans.ttf" font-size="10.00">::CostAttributes</text>
</a>
</g>
</g>
<!-- Node2&#45;&gt;Node1 -->
<g id="edge1" class="edge">
<title>Node2&#45;&gt;Node1</title>
<path fill="none" stroke="#9a32cd" stroke-dasharray="5,2" d="M145.5,-79.09C145.5,-63.44 145.5,-43.68 145.5,-30.6"/>
<polygon fill="#9a32cd" stroke="#9a32cd" points="142,-79.13 145.5,-89.13 149,-79.13 142,-79.13"/>
<text text-anchor="middle" x="175" y="-63" font-family="FreeSans.ttf" font-size="10.00"> controlCost</text>
<text text-anchor="middle" x="175" y="-52" font-family="FreeSans.ttf" font-size="10.00">stateCost</text>
</g>
<!-- Node3 -->
<g id="node3" class="node">
<title>Node3</title>
<g id="a_node3"><a xlink:href="classiDynTree_1_1MatrixDynSize.html" target="_top" xlink:title="Class providing a simple form of matrix with dynamic size.">
<polygon fill="none" stroke="black" points="0,-189.5 0,-208.5 137,-208.5 137,-189.5 0,-189.5"/>
<text text-anchor="middle" x="68.5" y="-196.5" font-family="FreeSans.ttf" font-size="10.00">iDynTree::MatrixDynSize</text>
</a>
</g>
</g>
<!-- Node3&#45;&gt;Node2 -->
<g id="edge2" class="edge">
<title>Node3&#45;&gt;Node2</title>
<path fill="none" stroke="#9a32cd" stroke-dasharray="5,2" d="M79.04,-180.96C87.04,-168.55 98.65,-151.6 110.5,-138 116.06,-131.62 122.74,-125.17 128.77,-119.71"/>
<polygon fill="#9a32cd" stroke="#9a32cd" points="76.07,-179.11 73.68,-189.44 81.98,-182.86 76.07,-179.11"/>
<text text-anchor="middle" x="156" y="-163" font-family="FreeSans.ttf" font-size="10.00"> weightMatrix</text>
<text text-anchor="middle" x="156" y="-152" font-family="FreeSans.ttf" font-size="10.00">gradientSubMatrix</text>
<text text-anchor="middle" x="156" y="-141" font-family="FreeSans.ttf" font-size="10.00">hessianMatrix</text>
</g>
<!-- Node4 -->
<g id="node4" class="node">
<title>Node4</title>
<g id="a_node4"><a xlink:href="classiDynTree_1_1VectorDynSize.html" target="_top" xlink:title="Class providing a simple form of vector with dynamic size.">
<polygon fill="none" stroke="black" points="155.5,-189.5 155.5,-208.5 291.5,-208.5 291.5,-189.5 155.5,-189.5"/>
<text text-anchor="middle" x="223.5" y="-196.5" font-family="FreeSans.ttf" font-size="10.00">iDynTree::VectorDynSize</text>
</a>
</g>
</g>
<!-- Node4&#45;&gt;Node2 -->
<g id="edge3" class="edge">
<title>Node4&#45;&gt;Node2</title>
<path fill="none" stroke="#9a32cd" stroke-dasharray="5,2" d="M220.14,-179.32C217.07,-166.54 211.43,-149.83 201.5,-138 195.29,-130.59 186.93,-124.5 178.57,-119.66"/>
<polygon fill="#9a32cd" stroke="#9a32cd" points="216.76,-180.25 222.23,-189.32 223.61,-178.82 216.76,-180.25"/>
<text text-anchor="middle" x="233.5" y="-152" font-family="FreeSans.ttf" font-size="10.00"> buffer</text>
</g>
</g>
</svg>
