<?xml version="1.0" encoding="UTF-8" standalone="no"?>
<!DOCTYPE svg PUBLIC "-//W3C//DTD SVG 1.1//EN"
 "http://www.w3.org/Graphics/SVG/1.1/DTD/svg11.dtd">
<!-- Generated by graphviz version 2.43.0 (0)
 -->
<!-- Title: iDynTree::TransformDerivative Pages: 1 -->
<svg width="316pt" height="184pt"
 viewBox="0.00 0.00 316.00 184.00" xmlns="http://www.w3.org/2000/svg" xmlns:xlink="http://www.w3.org/1999/xlink">
<g id="graph0" class="graph" transform="scale(1 1) rotate(0) translate(4 180)">
<title>iDynTree::TransformDerivative</title>
<!-- Node1 -->
<g id="node1" class="node">
<title>Node1</title>
<g id="a_node1"><a xlink:title="Class representing the derivative of Transform object.">
<polygon fill="#bfbfbf" stroke="black" points="78,-0.5 78,-19.5 243,-19.5 243,-0.5 78,-0.5"/>
<text text-anchor="middle" x="160.5" y="-7.5" font-family="FreeSans.ttf" font-size="10.00">iDynTree::TransformDerivative</text>
</a>
</g>
</g>
<!-- Node2 -->
<g id="node2" class="node">
<title>Node2</title>
<g id="a_node2"><a xlink:href="classiDynTree_1_1VectorFixSize.html" target="_top" xlink:title=" ">
<polygon fill="none" stroke="black" points="0,-73 0,-92 159,-92 159,-73 0,-73"/>
<text text-anchor="middle" x="79.5" y="-80" font-family="FreeSans.ttf" font-size="10.00">iDynTree::VectorFixSize&lt; 3 &gt;</text>
</a>
</g>
</g>
<!-- Node2&#45;&gt;Node1 -->
<g id="edge1" class="edge">
<title>Node2&#45;&gt;Node1</title>
<path fill="none" stroke="#9a32cd" stroke-dasharray="5,2" d="M97.21,-66.08C113.54,-51.87 137.21,-31.27 150.49,-19.72"/>
<polygon fill="#9a32cd" stroke="#9a32cd" points="94.68,-63.65 89.43,-72.86 99.27,-68.93 94.68,-63.65"/>
<text text-anchor="middle" x="163.5" y="-41" font-family="FreeSans.ttf" font-size="10.00"> posDerivative</text>
</g>
<!-- Node3 -->
<g id="node3" class="node">
<title>Node3</title>
<g id="a_node3"><a xlink:href="classiDynTree_1_1VectorFixSize.html" target="_top" xlink:title="Class providing a simple vector of N elements.">
<polygon fill="none" stroke="black" points="14,-145.5 14,-175.5 145,-175.5 145,-145.5 14,-145.5"/>
<text text-anchor="start" x="22" y="-163.5" font-family="FreeSans.ttf" font-size="10.00">iDynTree::VectorFixSize</text>
<text text-anchor="middle" x="79.5" y="-152.5" font-family="FreeSans.ttf" font-size="10.00">&lt; VecSize &gt;</text>
</a>
</g>
</g>
<!-- Node3&#45;&gt;Node2 -->
<g id="edge2" class="edge">
<title>Node3&#45;&gt;Node2</title>
<path fill="none" stroke="orange" stroke-dasharray="5,2" d="M79.5,-135.17C79.5,-120.4 79.5,-102.45 79.5,-92.06"/>
<polygon fill="orange" stroke="orange" points="76,-135.2 79.5,-145.2 83,-135.21 76,-135.2"/>
<text text-anchor="middle" x="95.5" y="-119" font-family="FreeSans.ttf" font-size="10.00"> &lt; 3 &gt;</text>
</g>
<!-- Node4 -->
<g id="node4" class="node">
<title>Node4</title>
<g id="a_node4"><a xlink:href="classiDynTree_1_1MatrixFixSize.html" target="_top" xlink:title=" ">
<polygon fill="none" stroke="black" points="177,-67.5 177,-97.5 308,-97.5 308,-67.5 177,-67.5"/>
<text text-anchor="start" x="185" y="-85.5" font-family="FreeSans.ttf" font-size="10.00">iDynTree::MatrixFixSize</text>
<text text-anchor="middle" x="242.5" y="-74.5" font-family="FreeSans.ttf" font-size="10.00">&lt; 3, 3 &gt;</text>
</a>
</g>
</g>
<!-- Node4&#45;&gt;Node1 -->
<g id="edge3" class="edge">
<title>Node4&#45;&gt;Node1</title>
<path fill="none" stroke="#9a32cd" stroke-dasharray="5,2" d="M224.63,-59.19C218.34,-52.01 210.97,-44.3 203.5,-38 195.14,-30.96 184.79,-24.4 176.34,-19.51"/>
<polygon fill="#9a32cd" stroke="#9a32cd" points="222.32,-61.88 231.45,-67.25 227.66,-57.35 222.32,-61.88"/>
<text text-anchor="middle" x="248.5" y="-41" font-family="FreeSans.ttf" font-size="10.00"> rotDerivative</text>
</g>
<!-- Node5 -->
<g id="node5" class="node">
<title>Node5</title>
<g id="a_node5"><a xlink:href="classiDynTree_1_1MatrixFixSize.html" target="_top" xlink:title="Class providing a simple form of matrix with dynamic size.">
<polygon fill="none" stroke="black" points="177,-145.5 177,-175.5 308,-175.5 308,-145.5 177,-145.5"/>
<text text-anchor="start" x="185" y="-163.5" font-family="FreeSans.ttf" font-size="10.00">iDynTree::MatrixFixSize</text>
<text text-anchor="middle" x="242.5" y="-152.5" font-family="FreeSans.ttf" font-size="10.00">&lt; nRows, nCols &gt;</text>
</a>
</g>
</g>
<!-- Node5&#45;&gt;Node4 -->
<g id="edge4" class="edge">
<title>Node5&#45;&gt;Node4</title>
<path fill="none" stroke="orange" stroke-dasharray="5,2" d="M242.5,-135.09C242.5,-122.76 242.5,-108.22 242.5,-97.73"/>
<polygon fill="orange" stroke="orange" points="239,-135.2 242.5,-145.2 246,-135.21 239,-135.2"/>
<text text-anchor="middle" x="264.5" y="-119" font-family="FreeSans.ttf" font-size="10.00"> &lt; 3, 3 &gt;</text>
</g>
</g>
</svg>
