<?xml version="1.0" encoding="UTF-8" standalone="no"?>
<!DOCTYPE svg PUBLIC "-//W3C//DTD SVG 1.1//EN"
 "http://www.w3.org/Graphics/SVG/1.1/DTD/svg11.dtd">
<!-- Generated by graphviz version 2.43.0 (0)
 -->
<!-- Title: iDynTree::optimalcontrol::CostAttributes Pages: 1 -->
<svg width="300pt" height="128pt"
 viewBox="0.00 0.00 299.50 128.00" xmlns="http://www.w3.org/2000/svg" xmlns:xlink="http://www.w3.org/1999/xlink">
<g id="graph0" class="graph" transform="scale(1 1) rotate(0) translate(4 124)">
<title>iDynTree::optimalcontrol::CostAttributes</title>
<!-- Node1 -->
<g id="node1" class="node">
<title>Node1</title>
<g id="a_node1"><a xlink:title=" ">
<polygon fill="#bfbfbf" stroke="black" points="77,-0.5 77,-30.5 214,-30.5 214,-0.5 77,-0.5"/>
<text text-anchor="start" x="85" y="-18.5" font-family="FreeSans.ttf" font-size="10.00">iDynTree::optimalcontrol</text>
<text text-anchor="middle" x="145.5" y="-7.5" font-family="FreeSans.ttf" font-size="10.00">::CostAttributes</text>
</a>
</g>
</g>
<!-- Node2 -->
<g id="node2" class="node">
<title>Node2</title>
<g id="a_node2"><a xlink:href="classiDynTree_1_1MatrixDynSize.html" target="_top" xlink:title="Class providing a simple form of matrix with dynamic size.">
<polygon fill="none" stroke="black" points="0,-100.5 0,-119.5 137,-119.5 137,-100.5 0,-100.5"/>
<text text-anchor="middle" x="68.5" y="-107.5" font-family="FreeSans.ttf" font-size="10.00">iDynTree::MatrixDynSize</text>
</a>
</g>
</g>
<!-- Node2&#45;&gt;Node1 -->
<g id="edge1" class="edge">
<title>Node2&#45;&gt;Node1</title>
<path fill="none" stroke="#9a32cd" stroke-dasharray="5,2" d="M79.04,-91.96C87.04,-79.55 98.65,-62.6 110.5,-49 116.06,-42.62 122.74,-36.17 128.77,-30.71"/>
<polygon fill="#9a32cd" stroke="#9a32cd" points="76.07,-90.11 73.68,-100.44 81.98,-93.86 76.07,-90.11"/>
<text text-anchor="middle" x="156" y="-74" font-family="FreeSans.ttf" font-size="10.00"> weightMatrix</text>
<text text-anchor="middle" x="156" y="-63" font-family="FreeSans.ttf" font-size="10.00">gradientSubMatrix</text>
<text text-anchor="middle" x="156" y="-52" font-family="FreeSans.ttf" font-size="10.00">hessianMatrix</text>
</g>
<!-- Node3 -->
<g id="node3" class="node">
<title>Node3</title>
<g id="a_node3"><a xlink:href="classiDynTree_1_1VectorDynSize.html" target="_top" xlink:title="Class providing a simple form of vector with dynamic size.">
<polygon fill="none" stroke="black" points="155.5,-100.5 155.5,-119.5 291.5,-119.5 291.5,-100.5 155.5,-100.5"/>
<text text-anchor="middle" x="223.5" y="-107.5" font-family="FreeSans.ttf" font-size="10.00">iDynTree::VectorDynSize</text>
</a>
</g>
</g>
<!-- Node3&#45;&gt;Node1 -->
<g id="edge2" class="edge">
<title>Node3&#45;&gt;Node1</title>
<path fill="none" stroke="#9a32cd" stroke-dasharray="5,2" d="M220.14,-90.32C217.07,-77.54 211.43,-60.83 201.5,-49 195.29,-41.59 186.93,-35.5 178.57,-30.66"/>
<polygon fill="#9a32cd" stroke="#9a32cd" points="216.76,-91.25 222.23,-100.32 223.61,-89.82 216.76,-91.25"/>
<text text-anchor="middle" x="233.5" y="-63" font-family="FreeSans.ttf" font-size="10.00"> buffer</text>
</g>
</g>
</svg>
