<?xml version="1.0" encoding="UTF-8" standalone="no"?>
<!DOCTYPE svg PUBLIC "-//W3C//DTD SVG 1.1//EN"
 "http://www.w3.org/Graphics/SVG/1.1/DTD/svg11.dtd">
<!-- Generated by graphviz version 2.43.0 (0)
 -->
<!-- Title: iDynTree::optimalcontrol::QuadraticLikeCost Pages: 1 -->
<svg width="300pt" height="173pt"
 viewBox="0.00 0.00 300.00 173.00" xmlns="http://www.w3.org/2000/svg" xmlns:xlink="http://www.w3.org/1999/xlink">
<g id="graph0" class="graph" transform="scale(1 1) rotate(0) translate(4 169)">
<title>iDynTree::optimalcontrol::QuadraticLikeCost</title>
<!-- Node1 -->
<g id="node1" class="node">
<title>Node1</title>
<g id="a_node1"><a xlink:title=" ">
<polygon fill="#bfbfbf" stroke="black" points="77,-67.5 77,-97.5 214,-97.5 214,-67.5 77,-67.5"/>
<text text-anchor="start" x="85" y="-85.5" font-family="FreeSans.ttf" font-size="10.00">iDynTree::optimalcontrol</text>
<text text-anchor="middle" x="145.5" y="-74.5" font-family="FreeSans.ttf" font-size="10.00">::QuadraticLikeCost</text>
</a>
</g>
</g>
<!-- Node3 -->
<g id="node3" class="node">
<title>Node3</title>
<g id="a_node3"><a xlink:href="classiDynTree_1_1optimalcontrol_1_1LinearCost.html" target="_top" xlink:title=" ">
<polygon fill="none" stroke="black" points="0,-0.5 0,-30.5 137,-30.5 137,-0.5 0,-0.5"/>
<text text-anchor="start" x="8" y="-18.5" font-family="FreeSans.ttf" font-size="10.00">iDynTree::optimalcontrol</text>
<text text-anchor="middle" x="68.5" y="-7.5" font-family="FreeSans.ttf" font-size="10.00">::LinearCost</text>
</a>
</g>
</g>
<!-- Node1&#45;&gt;Node3 -->
<g id="edge2" class="edge">
<title>Node1&#45;&gt;Node3</title>
<path fill="none" stroke="midnightblue" d="M121.08,-60.88C109.38,-51.01 95.66,-39.43 85.18,-30.58"/>
<polygon fill="midnightblue" stroke="midnightblue" points="118.89,-63.62 128.79,-67.4 123.41,-58.27 118.89,-63.62"/>
</g>
<!-- Node4 -->
<g id="node4" class="node">
<title>Node4</title>
<g id="a_node4"><a xlink:href="classiDynTree_1_1optimalcontrol_1_1QuadraticCost.html" target="_top" xlink:title=" ">
<polygon fill="none" stroke="black" points="155,-0.5 155,-30.5 292,-30.5 292,-0.5 155,-0.5"/>
<text text-anchor="start" x="163" y="-18.5" font-family="FreeSans.ttf" font-size="10.00">iDynTree::optimalcontrol</text>
<text text-anchor="middle" x="223.5" y="-7.5" font-family="FreeSans.ttf" font-size="10.00">::QuadraticCost</text>
</a>
</g>
</g>
<!-- Node1&#45;&gt;Node4 -->
<g id="edge3" class="edge">
<title>Node1&#45;&gt;Node4</title>
<path fill="none" stroke="midnightblue" d="M170.24,-60.88C182.09,-51.01 195.98,-39.43 206.61,-30.58"/>
<polygon fill="midnightblue" stroke="midnightblue" points="167.87,-58.31 162.42,-67.4 172.35,-63.68 167.87,-58.31"/>
</g>
<!-- Node2 -->
<g id="node2" class="node">
<title>Node2</title>
<g id="a_node2"><a xlink:href="classiDynTree_1_1optimalcontrol_1_1Cost.html" target="_top" xlink:title="The Cost virtual class definition.">
<polygon fill="none" stroke="black" points="77,-134.5 77,-164.5 214,-164.5 214,-134.5 77,-134.5"/>
<text text-anchor="start" x="85" y="-152.5" font-family="FreeSans.ttf" font-size="10.00">iDynTree::optimalcontrol</text>
<text text-anchor="middle" x="145.5" y="-141.5" font-family="FreeSans.ttf" font-size="10.00">::Cost</text>
</a>
</g>
</g>
<!-- Node2&#45;&gt;Node1 -->
<g id="edge1" class="edge">
<title>Node2&#45;&gt;Node1</title>
<path fill="none" stroke="midnightblue" d="M145.5,-124.11C145.5,-115.15 145.5,-105.32 145.5,-97.58"/>
<polygon fill="midnightblue" stroke="midnightblue" points="142,-124.4 145.5,-134.4 149,-124.4 142,-124.4"/>
</g>
</g>
</svg>
