<?xml version="1.0" encoding="UTF-8" standalone="no"?>
<!DOCTYPE svg PUBLIC "-//W3C//DTD SVG 1.1//EN"
 "http://www.w3.org/Graphics/SVG/1.1/DTD/svg11.dtd">
<!-- Generated by graphviz version 2.43.0 (0)
 -->
<!-- Title: cmdline.h Pages: 1 -->
<svg width="703pt" height="84pt"
 viewBox="0.00 0.00 702.50 84.00" xmlns="http://www.w3.org/2000/svg" xmlns:xlink="http://www.w3.org/1999/xlink">
<g id="graph0" class="graph" transform="scale(1 1) rotate(0) translate(4 80)">
<title>cmdline.h</title>
<!-- Node1 -->
<g id="node1" class="node">
<title>Node1</title>
<g id="a_node1"><a xlink:title=" ">
<polygon fill="#bfbfbf" stroke="black" points="299.5,-56.5 299.5,-75.5 364.5,-75.5 364.5,-56.5 299.5,-56.5"/>
<text text-anchor="middle" x="332" y="-63.5" font-family="FreeSans.ttf" font-size="10.00">cmdline.h</text>
</a>
</g>
</g>
<!-- Node2 -->
<g id="node2" class="node">
<title>Node2</title>
<g id="a_node2"><a xlink:title=" ">
<polygon fill="none" stroke="#bfbfbf" points="0,-0.5 0,-19.5 60,-19.5 60,-0.5 0,-0.5"/>
<text text-anchor="middle" x="30" y="-7.5" font-family="FreeSans.ttf" font-size="10.00">iostream</text>
</a>
</g>
</g>
<!-- Node1&#45;&gt;Node2 -->
<g id="edge1" class="edge">
<title>Node1&#45;&gt;Node2</title>
<path fill="none" stroke="midnightblue" d="M299.5,-60.05C251.51,-52.62 158.68,-37.72 70.13,-20.14"/>
<polygon fill="midnightblue" stroke="midnightblue" points="70.69,-16.68 60.2,-18.15 69.32,-23.54 70.69,-16.68"/>
</g>
<!-- Node3 -->
<g id="node3" class="node">
<title>Node3</title>
<g id="a_node3"><a xlink:title=" ">
<polygon fill="none" stroke="#bfbfbf" points="78,-0.5 78,-19.5 134,-19.5 134,-0.5 78,-0.5"/>
<text text-anchor="middle" x="106" y="-7.5" font-family="FreeSans.ttf" font-size="10.00">sstream</text>
</a>
</g>
</g>
<!-- Node1&#45;&gt;Node3 -->
<g id="edge2" class="edge">
<title>Node1&#45;&gt;Node3</title>
<path fill="none" stroke="midnightblue" d="M299.21,-57.24C263.5,-48.79 204.42,-34.76 144.32,-20.31"/>
<polygon fill="midnightblue" stroke="midnightblue" points="144.82,-16.83 134.28,-17.89 143.18,-23.64 144.82,-16.83"/>
</g>
<!-- Node4 -->
<g id="node4" class="node">
<title>Node4</title>
<g id="a_node4"><a xlink:title=" ">
<polygon fill="none" stroke="#bfbfbf" points="152.5,-0.5 152.5,-19.5 199.5,-19.5 199.5,-0.5 152.5,-0.5"/>
<text text-anchor="middle" x="176" y="-7.5" font-family="FreeSans.ttf" font-size="10.00">vector</text>
</a>
</g>
</g>
<!-- Node1&#45;&gt;Node4 -->
<g id="edge3" class="edge">
<title>Node1&#45;&gt;Node4</title>
<path fill="none" stroke="midnightblue" d="M307.28,-56.44C280.84,-47.29 238.76,-32.73 209.39,-22.56"/>
<polygon fill="midnightblue" stroke="midnightblue" points="210.18,-19.13 199.58,-19.16 207.89,-25.74 210.18,-19.13"/>
</g>
<!-- Node5 -->
<g id="node5" class="node">
<title>Node5</title>
<g id="a_node5"><a xlink:title=" ">
<polygon fill="none" stroke="#bfbfbf" points="218,-0.5 218,-19.5 256,-19.5 256,-0.5 218,-0.5"/>
<text text-anchor="middle" x="237" y="-7.5" font-family="FreeSans.ttf" font-size="10.00">map</text>
</a>
</g>
</g>
<!-- Node1&#45;&gt;Node5 -->
<g id="edge4" class="edge">
<title>Node1&#45;&gt;Node5</title>
<path fill="none" stroke="midnightblue" d="M316.74,-56.32C301.78,-47.82 278.75,-34.73 261.27,-24.8"/>
<polygon fill="midnightblue" stroke="midnightblue" points="262.65,-21.55 252.23,-19.65 259.19,-27.64 262.65,-21.55"/>
</g>
<!-- Node6 -->
<g id="node6" class="node">
<title>Node6</title>
<g id="a_node6"><a xlink:title=" ">
<polygon fill="none" stroke="#bfbfbf" points="274,-0.5 274,-19.5 318,-19.5 318,-0.5 274,-0.5"/>
<text text-anchor="middle" x="296" y="-7.5" font-family="FreeSans.ttf" font-size="10.00">string</text>
</a>
</g>
</g>
<!-- Node1&#45;&gt;Node6 -->
<g id="edge5" class="edge">
<title>Node1&#45;&gt;Node6</title>
<path fill="none" stroke="midnightblue" d="M326.06,-56.08C321.02,-48.53 313.66,-37.49 307.49,-28.23"/>
<polygon fill="midnightblue" stroke="midnightblue" points="310.29,-26.13 301.83,-19.75 304.47,-30.01 310.29,-26.13"/>
</g>
<!-- Node7 -->
<g id="node7" class="node">
<title>Node7</title>
<g id="a_node7"><a xlink:title=" ">
<polygon fill="none" stroke="#bfbfbf" points="336.5,-0.5 336.5,-19.5 401.5,-19.5 401.5,-0.5 336.5,-0.5"/>
<text text-anchor="middle" x="369" y="-7.5" font-family="FreeSans.ttf" font-size="10.00">stdexcept</text>
</a>
</g>
</g>
<!-- Node1&#45;&gt;Node7 -->
<g id="edge6" class="edge">
<title>Node1&#45;&gt;Node7</title>
<path fill="none" stroke="midnightblue" d="M338.11,-56.08C343.28,-48.53 350.85,-37.49 357.19,-28.23"/>
<polygon fill="midnightblue" stroke="midnightblue" points="360.24,-29.98 363,-19.75 354.46,-26.02 360.24,-29.98"/>
</g>
<!-- Node8 -->
<g id="node8" class="node">
<title>Node8</title>
<g id="a_node8"><a xlink:title=" ">
<polygon fill="none" stroke="#bfbfbf" points="419.5,-0.5 419.5,-19.5 476.5,-19.5 476.5,-0.5 419.5,-0.5"/>
<text text-anchor="middle" x="448" y="-7.5" font-family="FreeSans.ttf" font-size="10.00">typeinfo</text>
</a>
</g>
</g>
<!-- Node1&#45;&gt;Node8 -->
<g id="edge7" class="edge">
<title>Node1&#45;&gt;Node8</title>
<path fill="none" stroke="midnightblue" d="M350.38,-56.44C369.22,-47.68 398.73,-33.94 420.38,-23.86"/>
<polygon fill="midnightblue" stroke="midnightblue" points="422.12,-26.91 429.71,-19.52 419.16,-20.56 422.12,-26.91"/>
</g>
<!-- Node9 -->
<g id="node9" class="node">
<title>Node9</title>
<g id="a_node9"><a xlink:title=" ">
<polygon fill="none" stroke="#bfbfbf" points="495,-0.5 495,-19.5 545,-19.5 545,-0.5 495,-0.5"/>
<text text-anchor="middle" x="520" y="-7.5" font-family="FreeSans.ttf" font-size="10.00">cstring</text>
</a>
</g>
</g>
<!-- Node1&#45;&gt;Node9 -->
<g id="edge8" class="edge">
<title>Node1&#45;&gt;Node9</title>
<path fill="none" stroke="midnightblue" d="M361.79,-56.44C395.24,-46.83 449.48,-31.26 484.95,-21.07"/>
<polygon fill="midnightblue" stroke="midnightblue" points="486.22,-24.35 494.86,-18.22 484.28,-17.62 486.22,-24.35"/>
</g>
<!-- Node10 -->
<g id="node10" class="node">
<title>Node10</title>
<g id="a_node10"><a xlink:title=" ">
<polygon fill="none" stroke="#bfbfbf" points="563,-0.5 563,-19.5 627,-19.5 627,-0.5 563,-0.5"/>
<text text-anchor="middle" x="595" y="-7.5" font-family="FreeSans.ttf" font-size="10.00">algorithm</text>
</a>
</g>
</g>
<!-- Node1&#45;&gt;Node10 -->
<g id="edge9" class="edge">
<title>Node1&#45;&gt;Node10</title>
<path fill="none" stroke="midnightblue" d="M364.76,-58.53C406.24,-50.3 480.15,-35.51 552.98,-20.19"/>
<polygon fill="midnightblue" stroke="midnightblue" points="553.72,-23.61 562.78,-18.12 552.27,-16.76 553.72,-23.61"/>
</g>
<!-- Node11 -->
<g id="node11" class="node">
<title>Node11</title>
<g id="a_node11"><a xlink:title=" ">
<polygon fill="none" stroke="#bfbfbf" points="645.5,-0.5 645.5,-19.5 694.5,-19.5 694.5,-0.5 645.5,-0.5"/>
<text text-anchor="middle" x="670" y="-7.5" font-family="FreeSans.ttf" font-size="10.00">cstdlib</text>
</a>
</g>
</g>
<!-- Node1&#45;&gt;Node11 -->
<g id="edge10" class="edge">
<title>Node1&#45;&gt;Node11</title>
<path fill="none" stroke="midnightblue" d="M364.6,-61.39C418.74,-55.13 530.73,-41.07 635.12,-19.97"/>
<polygon fill="midnightblue" stroke="midnightblue" points="636.1,-23.34 645.19,-17.91 634.69,-16.49 636.1,-23.34"/>
</g>
</g>
</svg>
