<?xml version="1.0" encoding="UTF-8" standalone="no"?>
<!DOCTYPE svg PUBLIC "-//W3C//DTD SVG 1.1//EN"
 "http://www.w3.org/Graphics/SVG/1.1/DTD/svg11.dtd">
<!-- Generated by graphviz version 2.43.0 (0)
 -->
<!-- Title: Constraint.h Pages: 1 -->
<svg width="930pt" height="196pt"
 viewBox="0.00 0.00 929.50 196.00" xmlns="http://www.w3.org/2000/svg" xmlns:xlink="http://www.w3.org/1999/xlink">
<g id="graph0" class="graph" transform="scale(1 1) rotate(0) translate(4 192)">
<title>Constraint.h</title>
<!-- Node1 -->
<g id="node1" class="node">
<title>Node1</title>
<g id="a_node1"><a xlink:title=" ">
<polygon fill="#bfbfbf" stroke="black" points="509.5,-168.5 509.5,-187.5 585.5,-187.5 585.5,-168.5 509.5,-168.5"/>
<text text-anchor="middle" x="547.5" y="-175.5" font-family="FreeSans.ttf" font-size="10.00">Constraint.h</text>
</a>
</g>
</g>
<!-- Node2 -->
<g id="node2" class="node">
<title>Node2</title>
<g id="a_node2"><a xlink:title=" ">
<polygon fill="none" stroke="#bfbfbf" points="580,-0.5 580,-19.5 633,-19.5 633,-0.5 580,-0.5"/>
<text text-anchor="middle" x="606.5" y="-7.5" font-family="FreeSans.ttf" font-size="10.00">cstddef</text>
</a>
</g>
</g>
<!-- Node1&#45;&gt;Node2 -->
<g id="edge1" class="edge">
<title>Node1&#45;&gt;Node2</title>
<path fill="none" stroke="midnightblue" d="M550.67,-168.08C560,-141.83 587.47,-64.55 600.06,-29.12"/>
<polygon fill="midnightblue" stroke="midnightblue" points="603.4,-30.16 603.45,-19.57 596.81,-27.82 603.4,-30.16"/>
</g>
<!-- Node3 -->
<g id="node3" class="node">
<title>Node3</title>
<g id="a_node3"><a xlink:title=" ">
<polygon fill="none" stroke="#bfbfbf" points="494.5,-56.5 494.5,-75.5 538.5,-75.5 538.5,-56.5 494.5,-56.5"/>
<text text-anchor="middle" x="516.5" y="-63.5" font-family="FreeSans.ttf" font-size="10.00">string</text>
</a>
</g>
</g>
<!-- Node1&#45;&gt;Node3 -->
<g id="edge2" class="edge">
<title>Node1&#45;&gt;Node3</title>
<path fill="none" stroke="midnightblue" d="M545.07,-168.37C540.04,-150.54 528.42,-109.3 521.65,-85.27"/>
<polygon fill="midnightblue" stroke="midnightblue" points="525,-84.27 518.92,-75.59 518.27,-86.17 525,-84.27"/>
</g>
<!-- Node4 -->
<g id="node4" class="node">
<title>Node4</title>
<g id="a_node4"><a xlink:href="VectorDynSize_8h.html" target="_top" xlink:title=" ">
<polygon fill="none" stroke="black" points="334,-112.5 334,-131.5 501,-131.5 501,-112.5 334,-112.5"/>
<text text-anchor="middle" x="417.5" y="-119.5" font-family="FreeSans.ttf" font-size="10.00">iDynTree/Core/VectorDynSize.h</text>
</a>
</g>
</g>
<!-- Node1&#45;&gt;Node4 -->
<g id="edge3" class="edge">
<title>Node1&#45;&gt;Node4</title>
<path fill="none" stroke="midnightblue" d="M526.9,-168.44C505.51,-159.56 471.82,-145.56 447.48,-135.45"/>
<polygon fill="midnightblue" stroke="midnightblue" points="448.58,-132.12 438,-131.52 445.89,-138.58 448.58,-132.12"/>
</g>
<!-- Node14 -->
<g id="node14" class="node">
<title>Node14</title>
<g id="a_node14"><a xlink:href="SparsityStructure_8h.html" target="_top" xlink:title=" ">
<polygon fill="none" stroke="black" points="605,-112.5 605,-131.5 760,-131.5 760,-112.5 605,-112.5"/>
<text text-anchor="middle" x="682.5" y="-119.5" font-family="FreeSans.ttf" font-size="10.00">iDynTree/SparsityStructure.h</text>
</a>
</g>
</g>
<!-- Node1&#45;&gt;Node14 -->
<g id="edge15" class="edge">
<title>Node1&#45;&gt;Node14</title>
<path fill="none" stroke="midnightblue" d="M568.89,-168.44C591.21,-159.52 626.4,-145.44 651.71,-135.32"/>
<polygon fill="midnightblue" stroke="midnightblue" points="653.22,-138.48 661.21,-131.52 650.62,-131.98 653.22,-138.48"/>
</g>
<!-- Node4&#45;&gt;Node3 -->
<g id="edge14" class="edge">
<title>Node4&#45;&gt;Node3</title>
<path fill="none" stroke="midnightblue" d="M433.41,-112.32C449.14,-103.74 473.44,-90.49 491.71,-80.52"/>
<polygon fill="midnightblue" stroke="midnightblue" points="493.53,-83.52 500.63,-75.65 490.18,-77.37 493.53,-83.52"/>
</g>
<!-- Node5 -->
<g id="node5" class="node">
<title>Node5</title>
<g id="a_node5"><a xlink:href="Span_8h.html" target="_top" xlink:title=" ">
<polygon fill="none" stroke="black" points="311,-56.5 311,-75.5 432,-75.5 432,-56.5 311,-56.5"/>
<text text-anchor="middle" x="371.5" y="-63.5" font-family="FreeSans.ttf" font-size="10.00">iDynTree/Core/Span.h</text>
</a>
</g>
</g>
<!-- Node4&#45;&gt;Node5 -->
<g id="edge4" class="edge">
<title>Node4&#45;&gt;Node5</title>
<path fill="none" stroke="midnightblue" d="M409.9,-112.08C403.27,-104.3 393.48,-92.8 385.44,-83.37"/>
<polygon fill="midnightblue" stroke="midnightblue" points="388.1,-81.09 378.95,-75.75 382.77,-85.63 388.1,-81.09"/>
</g>
<!-- Node5&#45;&gt;Node2 -->
<g id="edge8" class="edge">
<title>Node5&#45;&gt;Node2</title>
<path fill="none" stroke="midnightblue" d="M410.45,-56.46C448.58,-48.05 508.54,-34.65 569.92,-20.1"/>
<polygon fill="midnightblue" stroke="midnightblue" points="570.86,-23.47 579.78,-17.75 569.24,-16.66 570.86,-23.47"/>
</g>
<!-- Node6 -->
<g id="node6" class="node">
<title>Node6</title>
<g id="a_node6"><a xlink:title=" ">
<polygon fill="none" stroke="#bfbfbf" points="233.5,-0.5 233.5,-19.5 285.5,-19.5 285.5,-0.5 233.5,-0.5"/>
<text text-anchor="middle" x="259.5" y="-7.5" font-family="FreeSans.ttf" font-size="10.00">cassert</text>
</a>
</g>
</g>
<!-- Node5&#45;&gt;Node6 -->
<g id="edge5" class="edge">
<title>Node5&#45;&gt;Node6</title>
<path fill="none" stroke="midnightblue" d="M353.51,-56.32C335.46,-47.62 307.45,-34.12 286.7,-24.11"/>
<polygon fill="midnightblue" stroke="midnightblue" points="287.98,-20.84 277.45,-19.65 284.94,-27.15 287.98,-20.84"/>
</g>
<!-- Node7 -->
<g id="node7" class="node">
<title>Node7</title>
<g id="a_node7"><a xlink:title=" ">
<polygon fill="none" stroke="#bfbfbf" points="303.5,-0.5 303.5,-19.5 367.5,-19.5 367.5,-0.5 303.5,-0.5"/>
<text text-anchor="middle" x="335.5" y="-7.5" font-family="FreeSans.ttf" font-size="10.00">algorithm</text>
</a>
</g>
</g>
<!-- Node5&#45;&gt;Node7 -->
<g id="edge6" class="edge">
<title>Node5&#45;&gt;Node7</title>
<path fill="none" stroke="midnightblue" d="M365.56,-56.08C360.52,-48.53 353.16,-37.49 346.99,-28.23"/>
<polygon fill="midnightblue" stroke="midnightblue" points="349.79,-26.13 341.33,-19.75 343.97,-30.01 349.79,-26.13"/>
</g>
<!-- Node8 -->
<g id="node8" class="node">
<title>Node8</title>
<g id="a_node8"><a xlink:title=" ">
<polygon fill="none" stroke="#bfbfbf" points="385.5,-0.5 385.5,-19.5 427.5,-19.5 427.5,-0.5 385.5,-0.5"/>
<text text-anchor="middle" x="406.5" y="-7.5" font-family="FreeSans.ttf" font-size="10.00">array</text>
</a>
</g>
</g>
<!-- Node5&#45;&gt;Node8 -->
<g id="edge7" class="edge">
<title>Node5&#45;&gt;Node8</title>
<path fill="none" stroke="midnightblue" d="M377.28,-56.08C382.17,-48.53 389.33,-37.49 395.33,-28.23"/>
<polygon fill="midnightblue" stroke="midnightblue" points="398.33,-30.05 400.83,-19.75 392.45,-26.24 398.33,-30.05"/>
</g>
<!-- Node9 -->
<g id="node9" class="node">
<title>Node9</title>
<g id="a_node9"><a xlink:title=" ">
<polygon fill="none" stroke="#bfbfbf" points="446,-0.5 446,-19.5 499,-19.5 499,-0.5 446,-0.5"/>
<text text-anchor="middle" x="472.5" y="-7.5" font-family="FreeSans.ttf" font-size="10.00">iterator</text>
</a>
</g>
</g>
<!-- Node5&#45;&gt;Node9 -->
<g id="edge9" class="edge">
<title>Node5&#45;&gt;Node9</title>
<path fill="none" stroke="midnightblue" d="M387.73,-56.32C403.85,-47.7 428.8,-34.36 447.46,-24.39"/>
<polygon fill="midnightblue" stroke="midnightblue" points="449.14,-27.46 456.31,-19.65 445.84,-21.28 449.14,-27.46"/>
</g>
<!-- Node10 -->
<g id="node10" class="node">
<title>Node10</title>
<g id="a_node10"><a xlink:title=" ">
<polygon fill="none" stroke="#bfbfbf" points="517.5,-0.5 517.5,-19.5 561.5,-19.5 561.5,-0.5 517.5,-0.5"/>
<text text-anchor="middle" x="539.5" y="-7.5" font-family="FreeSans.ttf" font-size="10.00">limits</text>
</a>
</g>
</g>
<!-- Node5&#45;&gt;Node10 -->
<g id="edge10" class="edge">
<title>Node5&#45;&gt;Node10</title>
<path fill="none" stroke="midnightblue" d="M398.12,-56.44C427.84,-46.89 475.92,-31.44 507.62,-21.25"/>
<polygon fill="midnightblue" stroke="midnightblue" points="508.85,-24.53 517.3,-18.14 506.71,-17.86 508.85,-24.53"/>
</g>
<!-- Node11 -->
<g id="node11" class="node">
<title>Node11</title>
<g id="a_node11"><a xlink:title=" ">
<polygon fill="none" stroke="#bfbfbf" points="0,-0.5 0,-19.5 65,-19.5 65,-0.5 0,-0.5"/>
<text text-anchor="middle" x="32.5" y="-7.5" font-family="FreeSans.ttf" font-size="10.00">stdexcept</text>
</a>
</g>
</g>
<!-- Node5&#45;&gt;Node11 -->
<g id="edge11" class="edge">
<title>Node5&#45;&gt;Node11</title>
<path fill="none" stroke="midnightblue" d="M310.8,-57.03C252.69,-49.14 162.32,-36.15 75.19,-20.22"/>
<polygon fill="midnightblue" stroke="midnightblue" points="75.6,-16.74 65.13,-18.37 74.33,-23.62 75.6,-16.74"/>
</g>
<!-- Node12 -->
<g id="node12" class="node">
<title>Node12</title>
<g id="a_node12"><a xlink:title=" ">
<polygon fill="none" stroke="#bfbfbf" points="83,-0.5 83,-19.5 152,-19.5 152,-0.5 83,-0.5"/>
<text text-anchor="middle" x="117.5" y="-7.5" font-family="FreeSans.ttf" font-size="10.00">type_traits</text>
</a>
</g>
</g>
<!-- Node5&#45;&gt;Node12 -->
<g id="edge12" class="edge">
<title>Node5&#45;&gt;Node12</title>
<path fill="none" stroke="midnightblue" d="M331.25,-56.44C285.25,-46.66 210.15,-30.7 162.32,-20.53"/>
<polygon fill="midnightblue" stroke="midnightblue" points="162.76,-17.04 152.25,-18.39 161.31,-23.89 162.76,-17.04"/>
</g>
<!-- Node13 -->
<g id="node13" class="node">
<title>Node13</title>
<g id="a_node13"><a xlink:title=" ">
<polygon fill="none" stroke="#bfbfbf" points="170,-0.5 170,-19.5 215,-19.5 215,-0.5 170,-0.5"/>
<text text-anchor="middle" x="192.5" y="-7.5" font-family="FreeSans.ttf" font-size="10.00">utility</text>
</a>
</g>
</g>
<!-- Node5&#45;&gt;Node13 -->
<g id="edge13" class="edge">
<title>Node5&#45;&gt;Node13</title>
<path fill="none" stroke="midnightblue" d="M343.14,-56.44C310.98,-46.74 258.64,-30.95 224.89,-20.77"/>
<polygon fill="midnightblue" stroke="midnightblue" points="225.65,-17.34 215.06,-17.81 223.63,-24.05 225.65,-17.34"/>
</g>
<!-- Node14&#45;&gt;Node2 -->
<g id="edge20" class="edge">
<title>Node14&#45;&gt;Node2</title>
<path fill="none" stroke="midnightblue" d="M665.77,-112.36C652.38,-104.6 634.14,-91.98 623.5,-76 614.31,-62.2 610.08,-43.67 608.14,-29.93"/>
<polygon fill="midnightblue" stroke="midnightblue" points="611.59,-29.27 606.99,-19.72 604.63,-30.05 611.59,-29.27"/>
</g>
<!-- Node14&#45;&gt;Node3 -->
<g id="edge22" class="edge">
<title>Node14&#45;&gt;Node3</title>
<path fill="none" stroke="midnightblue" d="M656.2,-112.44C626.91,-102.92 579.59,-87.52 548.26,-77.33"/>
<polygon fill="midnightblue" stroke="midnightblue" points="549.29,-73.99 538.7,-74.22 547.12,-80.64 549.29,-73.99"/>
</g>
<!-- Node15 -->
<g id="node15" class="node">
<title>Node15</title>
<g id="a_node15"><a xlink:href="Utils_8h.html" target="_top" xlink:title=" ">
<polygon fill="none" stroke="black" points="633,-56.5 633,-75.5 752,-75.5 752,-56.5 633,-56.5"/>
<text text-anchor="middle" x="692.5" y="-63.5" font-family="FreeSans.ttf" font-size="10.00">iDynTree/Core/Utils.h</text>
</a>
</g>
</g>
<!-- Node14&#45;&gt;Node15 -->
<g id="edge16" class="edge">
<title>Node14&#45;&gt;Node15</title>
<path fill="none" stroke="midnightblue" d="M684.15,-112.08C685.48,-104.93 687.38,-94.64 689.04,-85.69"/>
<polygon fill="midnightblue" stroke="midnightblue" points="692.5,-86.22 690.88,-75.75 685.62,-84.95 692.5,-86.22"/>
</g>
<!-- Node17 -->
<g id="node17" class="node">
<title>Node17</title>
<g id="a_node17"><a xlink:title=" ">
<polygon fill="none" stroke="#bfbfbf" points="770,-56.5 770,-75.5 817,-75.5 817,-56.5 770,-56.5"/>
<text text-anchor="middle" x="793.5" y="-63.5" font-family="FreeSans.ttf" font-size="10.00">vector</text>
</a>
</g>
</g>
<!-- Node14&#45;&gt;Node17 -->
<g id="edge19" class="edge">
<title>Node14&#45;&gt;Node17</title>
<path fill="none" stroke="midnightblue" d="M700.33,-112.32C718.22,-103.62 745.98,-90.12 766.55,-80.11"/>
<polygon fill="midnightblue" stroke="midnightblue" points="768.25,-83.18 775.71,-75.65 765.19,-76.88 768.25,-83.18"/>
</g>
<!-- Node18 -->
<g id="node18" class="node">
<title>Node18</title>
<g id="a_node18"><a xlink:title=" ">
<polygon fill="none" stroke="#bfbfbf" points="835.5,-56.5 835.5,-75.5 921.5,-75.5 921.5,-56.5 835.5,-56.5"/>
<text text-anchor="middle" x="878.5" y="-63.5" font-family="FreeSans.ttf" font-size="10.00">unordered_set</text>
</a>
</g>
</g>
<!-- Node14&#45;&gt;Node18 -->
<g id="edge21" class="edge">
<title>Node14&#45;&gt;Node18</title>
<path fill="none" stroke="midnightblue" d="M713.56,-112.44C747.1,-103.2 800.7,-88.44 837.64,-78.26"/>
<polygon fill="midnightblue" stroke="midnightblue" points="838.88,-81.55 847.59,-75.52 837.02,-74.8 838.88,-81.55"/>
</g>
<!-- Node15&#45;&gt;Node2 -->
<g id="edge17" class="edge">
<title>Node15&#45;&gt;Node2</title>
<path fill="none" stroke="midnightblue" d="M678.68,-56.32C665.27,-47.9 644.68,-34.97 628.91,-25.07"/>
<polygon fill="midnightblue" stroke="midnightblue" points="630.61,-22.01 620.28,-19.65 626.89,-27.94 630.61,-22.01"/>
</g>
<!-- Node16 -->
<g id="node16" class="node">
<title>Node16</title>
<g id="a_node16"><a xlink:title=" ">
<polygon fill="none" stroke="#bfbfbf" points="652.5,-0.5 652.5,-19.5 732.5,-19.5 732.5,-0.5 652.5,-0.5"/>
<text text-anchor="middle" x="692.5" y="-7.5" font-family="FreeSans.ttf" font-size="10.00">CoreExport.h</text>
</a>
</g>
</g>
<!-- Node15&#45;&gt;Node16 -->
<g id="edge18" class="edge">
<title>Node15&#45;&gt;Node16</title>
<path fill="none" stroke="midnightblue" d="M692.5,-56.08C692.5,-49.01 692.5,-38.86 692.5,-29.99"/>
<polygon fill="midnightblue" stroke="midnightblue" points="696,-29.75 692.5,-19.75 689,-29.75 696,-29.75"/>
</g>
</g>
</svg>
