<?xml version="1.0" encoding="UTF-8" standalone="no"?>
<!DOCTYPE svg PUBLIC "-//W3C//DTD SVG 1.1//EN"
 "http://www.w3.org/Graphics/SVG/1.1/DTD/svg11.dtd">
<!-- Generated by graphviz version 2.43.0 (0)
 -->
<!-- Title: ContactWrench.h Pages: 1 -->
<svg width="766pt" height="162pt"
 viewBox="0.00 0.00 765.50 162.00" xmlns="http://www.w3.org/2000/svg" xmlns:xlink="http://www.w3.org/1999/xlink">
<g id="graph0" class="graph" transform="scale(1 1) rotate(0) translate(4 158)">
<title>ContactWrench.h</title>
<!-- Node1 -->
<g id="node1" class="node">
<title>Node1</title>
<g id="a_node1"><a xlink:title=" ">
<polygon fill="#bfbfbf" stroke="black" points="253,-134.5 253,-153.5 353,-153.5 353,-134.5 253,-134.5"/>
<text text-anchor="middle" x="303" y="-141.5" font-family="FreeSans.ttf" font-size="10.00">ContactWrench.h</text>
</a>
</g>
</g>
<!-- Node2 -->
<g id="node2" class="node">
<title>Node2</title>
<g id="a_node2"><a xlink:href="ExtWrenchesAndJointTorquesEstimator_8h.html" target="_top" xlink:title=" ">
<polygon fill="none" stroke="black" points="0,-67.5 0,-97.5 158,-97.5 158,-67.5 0,-67.5"/>
<text text-anchor="start" x="8" y="-85.5" font-family="FreeSans.ttf" font-size="10.00">ExtWrenchesAndJointTorques</text>
<text text-anchor="middle" x="79" y="-74.5" font-family="FreeSans.ttf" font-size="10.00">Estimator.h</text>
</a>
</g>
</g>
<!-- Node1&#45;&gt;Node2 -->
<g id="edge1" class="edge">
<title>Node1&#45;&gt;Node2</title>
<path fill="none" stroke="midnightblue" d="M261.06,-131.86C224.48,-122.14 171.26,-108.01 131.79,-97.52"/>
<polygon fill="midnightblue" stroke="midnightblue" points="260.34,-135.29 270.91,-134.48 262.14,-128.53 260.34,-135.29"/>
</g>
<!-- Node3 -->
<g id="node3" class="node">
<title>Node3</title>
<g id="a_node3"><a xlink:href="ExtWrenchesAndJointTorquesEstimator_8cpp.html" target="_top" xlink:title=" ">
<polygon fill="none" stroke="black" points="54,-0.5 54,-30.5 212,-30.5 212,-0.5 54,-0.5"/>
<text text-anchor="start" x="62" y="-18.5" font-family="FreeSans.ttf" font-size="10.00">ExtWrenchesAndJointTorques</text>
<text text-anchor="middle" x="133" y="-7.5" font-family="FreeSans.ttf" font-size="10.00">Estimator.cpp</text>
</a>
</g>
</g>
<!-- Node1&#45;&gt;Node3 -->
<g id="edge4" class="edge">
<title>Node1&#45;&gt;Node3</title>
<path fill="none" stroke="midnightblue" d="M267.39,-130.81C247.88,-123.14 223.9,-112.04 205,-98 178.78,-78.52 155.12,-48.15 142.53,-30.5"/>
<polygon fill="midnightblue" stroke="midnightblue" points="266.25,-134.12 276.85,-134.4 268.74,-127.58 266.25,-134.12"/>
</g>
<!-- Node4 -->
<g id="node4" class="node">
<title>Node4</title>
<g id="a_node4"><a xlink:href="ExternalWrenchesEstimation_8cpp.html" target="_top" xlink:title=" ">
<polygon fill="none" stroke="black" points="214,-73 214,-92 392,-92 392,-73 214,-73"/>
<text text-anchor="middle" x="303" y="-80" font-family="FreeSans.ttf" font-size="10.00">ExternalWrenchesEstimation.cpp</text>
</a>
</g>
</g>
<!-- Node1&#45;&gt;Node4 -->
<g id="edge3" class="edge">
<title>Node1&#45;&gt;Node4</title>
<path fill="none" stroke="midnightblue" d="M303,-124.32C303,-113.5 303,-100.4 303,-92.01"/>
<polygon fill="midnightblue" stroke="midnightblue" points="299.5,-124.48 303,-134.48 306.5,-124.48 299.5,-124.48"/>
</g>
<!-- Node5 -->
<g id="node5" class="node">
<title>Node5</title>
<g id="a_node5"><a xlink:href="skinDynLibConversionsImplementation_8h.html" target="_top" xlink:title=" ">
<polygon fill="none" stroke="black" points="410,-73 410,-92 628,-92 628,-73 410,-73"/>
<text text-anchor="middle" x="519" y="-80" font-family="FreeSans.ttf" font-size="10.00">skinDynLibConversionsImplementation.h</text>
</a>
</g>
</g>
<!-- Node1&#45;&gt;Node5 -->
<g id="edge5" class="edge">
<title>Node1&#45;&gt;Node5</title>
<path fill="none" stroke="midnightblue" d="M343.84,-131.75C385.81,-120.19 450.2,-102.45 488.11,-92.01"/>
<polygon fill="midnightblue" stroke="midnightblue" points="342.66,-128.44 333.95,-134.48 344.52,-135.19 342.66,-128.44"/>
</g>
<!-- Node7 -->
<g id="node7" class="node">
<title>Node7</title>
<g id="a_node7"><a xlink:href="ContactWrench_8cpp.html" target="_top" xlink:title=" ">
<polygon fill="none" stroke="black" points="646.5,-73 646.5,-92 757.5,-92 757.5,-73 646.5,-73"/>
<text text-anchor="middle" x="702" y="-80" font-family="FreeSans.ttf" font-size="10.00">ContactWrench.cpp</text>
</a>
</g>
</g>
<!-- Node1&#45;&gt;Node7 -->
<g id="edge8" class="edge">
<title>Node1&#45;&gt;Node7</title>
<path fill="none" stroke="midnightblue" d="M362.97,-136.49C430,-128.84 541.67,-115.02 637,-98 646.56,-96.29 656.85,-94.14 666.35,-92.03"/>
<polygon fill="midnightblue" stroke="midnightblue" points="362.55,-133.01 353,-137.62 363.33,-139.97 362.55,-133.01"/>
</g>
<!-- Node2&#45;&gt;Node3 -->
<g id="edge2" class="edge">
<title>Node2&#45;&gt;Node3</title>
<path fill="none" stroke="midnightblue" d="M97.32,-59.45C105.25,-49.9 114.3,-39 121.31,-30.58"/>
<polygon fill="midnightblue" stroke="midnightblue" points="94.42,-57.47 90.72,-67.4 99.8,-61.94 94.42,-57.47"/>
</g>
<!-- Node6 -->
<g id="node6" class="node">
<title>Node6</title>
<g id="a_node6"><a xlink:href="skinDynLibConversions_8h.html" target="_top" xlink:title=" ">
<polygon fill="none" stroke="black" points="449,-6 449,-25 589,-25 589,-6 449,-6"/>
<text text-anchor="middle" x="519" y="-13" font-family="FreeSans.ttf" font-size="10.00">skinDynLibConversions.h</text>
</a>
</g>
</g>
<!-- Node5&#45;&gt;Node6 -->
<g id="edge6" class="edge">
<title>Node5&#45;&gt;Node6</title>
<path fill="none" stroke="midnightblue" d="M512.8,-62.54C511.74,-50.17 512.22,-34.62 514.24,-25.13"/>
<polygon fill="midnightblue" stroke="midnightblue" points="509.37,-63.31 514.21,-72.73 516.31,-62.35 509.37,-63.31"/>
</g>
<!-- Node6&#45;&gt;Node5 -->
<g id="edge7" class="edge">
<title>Node6&#45;&gt;Node5</title>
<path fill="none" stroke="midnightblue" d="M525.18,-35.28C526.26,-47.62 525.8,-63.18 523.79,-72.73"/>
<polygon fill="midnightblue" stroke="midnightblue" points="528.62,-34.54 523.76,-25.13 521.68,-35.52 528.62,-34.54"/>
</g>
</g>
</svg>
