<?xml version="1.0" encoding="UTF-8" standalone="no"?>
<!DOCTYPE svg PUBLIC "-//W3C//DTD SVG 1.1//EN"
 "http://www.w3.org/Graphics/SVG/1.1/DTD/svg11.dtd">
<!-- Generated by graphviz version 2.43.0 (0)
 -->
<!-- Title: ContactStateMachine.cpp Pages: 1 -->
<svg width="221pt" height="207pt"
 viewBox="0.00 0.00 221.00 207.00" xmlns="http://www.w3.org/2000/svg" xmlns:xlink="http://www.w3.org/1999/xlink">
<g id="graph0" class="graph" transform="scale(1 1) rotate(0) translate(4 203)">
<title>ContactStateMachine.cpp</title>
<!-- Node1 -->
<g id="node1" class="node">
<title>Node1</title>
<g id="a_node1"><a xlink:title=" ">
<polygon fill="#bfbfbf" stroke="black" points="0,-179.5 0,-198.5 141,-198.5 141,-179.5 0,-179.5"/>
<text text-anchor="middle" x="70.5" y="-186.5" font-family="FreeSans.ttf" font-size="10.00">ContactStateMachine.cpp</text>
</a>
</g>
</g>
<!-- Node2 -->
<g id="node2" class="node">
<title>Node2</title>
<g id="a_node2"><a xlink:href="ContactStateMachine_8h.html" target="_top" xlink:title=" ">
<polygon fill="none" stroke="black" points="4,-112.5 4,-142.5 137,-142.5 137,-112.5 4,-112.5"/>
<text text-anchor="start" x="12" y="-130.5" font-family="FreeSans.ttf" font-size="10.00">iDynTree/Estimation</text>
<text text-anchor="middle" x="70.5" y="-119.5" font-family="FreeSans.ttf" font-size="10.00">/ContactStateMachine.h</text>
</a>
</g>
</g>
<!-- Node1&#45;&gt;Node2 -->
<g id="edge1" class="edge">
<title>Node1&#45;&gt;Node2</title>
<path fill="none" stroke="midnightblue" d="M70.5,-179.48C70.5,-172.47 70.5,-162.19 70.5,-152.7"/>
<polygon fill="midnightblue" stroke="midnightblue" points="74,-152.52 70.5,-142.52 67,-152.52 74,-152.52"/>
</g>
<!-- Node3 -->
<g id="node3" class="node">
<title>Node3</title>
<g id="a_node3"><a xlink:title=" ">
<polygon fill="none" stroke="#bfbfbf" points="59.5,-0.5 59.5,-19.5 119.5,-19.5 119.5,-0.5 59.5,-0.5"/>
<text text-anchor="middle" x="89.5" y="-7.5" font-family="FreeSans.ttf" font-size="10.00">iostream</text>
</a>
</g>
</g>
<!-- Node2&#45;&gt;Node3 -->
<g id="edge2" class="edge">
<title>Node2&#45;&gt;Node3</title>
<path fill="none" stroke="midnightblue" d="M54.11,-112.37C39.85,-98.27 22.86,-75.89 32.5,-56 38.9,-42.8 51.25,-32.3 62.83,-24.78"/>
<polygon fill="midnightblue" stroke="midnightblue" points="64.66,-27.77 71.42,-19.61 61.05,-21.77 64.66,-27.77"/>
</g>
<!-- Node4 -->
<g id="node4" class="node">
<title>Node4</title>
<g id="a_node4"><a xlink:title=" ">
<polygon fill="none" stroke="#bfbfbf" points="41.5,-56.5 41.5,-75.5 99.5,-75.5 99.5,-56.5 41.5,-56.5"/>
<text text-anchor="middle" x="70.5" y="-63.5" font-family="FreeSans.ttf" font-size="10.00">memory</text>
</a>
</g>
</g>
<!-- Node2&#45;&gt;Node4 -->
<g id="edge3" class="edge">
<title>Node2&#45;&gt;Node4</title>
<path fill="none" stroke="midnightblue" d="M70.5,-112.4C70.5,-104.47 70.5,-94.46 70.5,-85.86"/>
<polygon fill="midnightblue" stroke="midnightblue" points="74,-85.66 70.5,-75.66 67,-85.66 74,-85.66"/>
</g>
<!-- Node5 -->
<g id="node5" class="node">
<title>Node5</title>
<g id="a_node5"><a xlink:href="SchmittTrigger_8h.html" target="_top" xlink:title=" ">
<polygon fill="none" stroke="black" points="118,-56.5 118,-75.5 213,-75.5 213,-56.5 118,-56.5"/>
<text text-anchor="middle" x="165.5" y="-63.5" font-family="FreeSans.ttf" font-size="10.00">SchmittTrigger.h</text>
</a>
</g>
</g>
<!-- Node2&#45;&gt;Node5 -->
<g id="edge4" class="edge">
<title>Node2&#45;&gt;Node5</title>
<path fill="none" stroke="midnightblue" d="M93.01,-112.4C108.1,-102.95 127.89,-90.56 142.97,-81.11"/>
<polygon fill="midnightblue" stroke="midnightblue" points="145.06,-83.93 151.68,-75.66 141.34,-78 145.06,-83.93"/>
</g>
<!-- Node5&#45;&gt;Node3 -->
<g id="edge5" class="edge">
<title>Node5&#45;&gt;Node3</title>
<path fill="none" stroke="midnightblue" d="M153.29,-56.32C141.72,-48.11 124.12,-35.6 110.34,-25.81"/>
<polygon fill="midnightblue" stroke="midnightblue" points="112.11,-22.77 101.93,-19.83 108.06,-28.48 112.11,-22.77"/>
</g>
</g>
</svg>
