<?xml version="1.0" encoding="UTF-8" standalone="no"?>
<!DOCTYPE svg PUBLIC "-//W3C//DTD SVG 1.1//EN"
 "http://www.w3.org/Graphics/SVG/1.1/DTD/svg11.dtd">
<!-- Generated by graphviz version 2.43.0 (0)
 -->
<!-- Title: ControlledDynamicalSystem.cpp Pages: 1 -->
<svg width="811pt" height="319pt"
 viewBox="0.00 0.00 810.50 319.00" xmlns="http://www.w3.org/2000/svg" xmlns:xlink="http://www.w3.org/1999/xlink">
<g id="graph0" class="graph" transform="scale(1 1) rotate(0) translate(4 315)">
<title>ControlledDynamicalSystem.cpp</title>
<!-- Node1 -->
<g id="node1" class="node">
<title>Node1</title>
<g id="a_node1"><a xlink:title=" ">
<polygon fill="#bfbfbf" stroke="black" points="421.5,-291.5 421.5,-310.5 597.5,-310.5 597.5,-291.5 421.5,-291.5"/>
<text text-anchor="middle" x="509.5" y="-298.5" font-family="FreeSans.ttf" font-size="10.00">ControlledDynamicalSystem.cpp</text>
</a>
</g>
</g>
<!-- Node2 -->
<g id="node2" class="node">
<title>Node2</title>
<g id="a_node2"><a xlink:href="ControlledDynamicalSystem_8h.html" target="_top" xlink:title=" ">
<polygon fill="none" stroke="black" points="427,-224.5 427,-254.5 592,-254.5 592,-224.5 427,-224.5"/>
<text text-anchor="start" x="435" y="-242.5" font-family="FreeSans.ttf" font-size="10.00">iDynTree/ControlledDynamical</text>
<text text-anchor="middle" x="509.5" y="-231.5" font-family="FreeSans.ttf" font-size="10.00">System.h</text>
</a>
</g>
</g>
<!-- Node1&#45;&gt;Node2 -->
<g id="edge1" class="edge">
<title>Node1&#45;&gt;Node2</title>
<path fill="none" stroke="midnightblue" d="M509.5,-291.48C509.5,-284.47 509.5,-274.19 509.5,-264.7"/>
<polygon fill="midnightblue" stroke="midnightblue" points="513,-264.52 509.5,-254.52 506,-264.52 513,-264.52"/>
</g>
<!-- Node6 -->
<g id="node6" class="node">
<title>Node6</title>
<g id="a_node6"><a xlink:title=" ">
<polygon fill="none" stroke="#bfbfbf" points="750.5,-0.5 750.5,-19.5 802.5,-19.5 802.5,-0.5 750.5,-0.5"/>
<text text-anchor="middle" x="776.5" y="-7.5" font-family="FreeSans.ttf" font-size="10.00">cassert</text>
</a>
</g>
</g>
<!-- Node1&#45;&gt;Node6 -->
<g id="edge27" class="edge">
<title>Node1&#45;&gt;Node6</title>
<path fill="none" stroke="midnightblue" d="M581.62,-291.48C647.43,-279.21 734.5,-249.63 734.5,-179 734.5,-179 734.5,-179 734.5,-121 734.5,-86.41 752.85,-49.49 765.29,-28.43"/>
<polygon fill="midnightblue" stroke="midnightblue" points="768.41,-30.04 770.66,-19.69 762.44,-26.38 768.41,-30.04"/>
</g>
<!-- Node17 -->
<g id="node17" class="node">
<title>Node17</title>
<g id="a_node17"><a xlink:href="Utils_8h.html" target="_top" xlink:title=" ">
<polygon fill="none" stroke="black" points="0,-56.5 0,-75.5 119,-75.5 119,-56.5 0,-56.5"/>
<text text-anchor="middle" x="59.5" y="-63.5" font-family="FreeSans.ttf" font-size="10.00">iDynTree/Core/Utils.h</text>
</a>
</g>
</g>
<!-- Node1&#45;&gt;Node17 -->
<g id="edge26" class="edge">
<title>Node1&#45;&gt;Node17</title>
<path fill="none" stroke="midnightblue" d="M485.05,-291.4C424.17,-269.45 261.87,-207.75 139.5,-132 116.13,-117.54 92.01,-97.04 76.45,-82.95"/>
<polygon fill="midnightblue" stroke="midnightblue" points="78.48,-80.05 68.75,-75.86 73.74,-85.2 78.48,-80.05"/>
</g>
<!-- Node3 -->
<g id="node3" class="node">
<title>Node3</title>
<g id="a_node3"><a xlink:href="DynamicalSystem_8h.html" target="_top" xlink:title=" ">
<polygon fill="none" stroke="black" points="301,-168.5 301,-187.5 462,-187.5 462,-168.5 301,-168.5"/>
<text text-anchor="middle" x="381.5" y="-175.5" font-family="FreeSans.ttf" font-size="10.00">iDynTree/DynamicalSystem.h</text>
</a>
</g>
</g>
<!-- Node2&#45;&gt;Node3 -->
<g id="edge2" class="edge">
<title>Node2&#45;&gt;Node3</title>
<path fill="none" stroke="midnightblue" d="M479.17,-224.4C457.98,-214.55 429.91,-201.5 409.3,-191.92"/>
<polygon fill="midnightblue" stroke="midnightblue" points="410.67,-188.7 400.13,-187.66 407.72,-195.05 410.67,-188.7"/>
</g>
<!-- Node21 -->
<g id="node21" class="node">
<title>Node21</title>
<g id="a_node21"><a xlink:href="Controller_8h.html" target="_top" xlink:title=" ">
<polygon fill="none" stroke="black" points="507,-112.5 507,-131.5 626,-131.5 626,-112.5 507,-112.5"/>
<text text-anchor="middle" x="566.5" y="-119.5" font-family="FreeSans.ttf" font-size="10.00">iDynTree/Controller.h</text>
</a>
</g>
</g>
<!-- Node2&#45;&gt;Node21 -->
<g id="edge23" class="edge">
<title>Node2&#45;&gt;Node21</title>
<path fill="none" stroke="midnightblue" d="M522.31,-224.41C530.51,-214.76 540.81,-201.34 547.5,-188 554.91,-173.22 559.91,-155.06 562.92,-141.7"/>
<polygon fill="midnightblue" stroke="midnightblue" points="566.37,-142.29 564.98,-131.78 559.52,-140.86 566.37,-142.29"/>
</g>
<!-- Node22 -->
<g id="node22" class="node">
<title>Node22</title>
<g id="a_node22"><a xlink:title=" ">
<polygon fill="none" stroke="#bfbfbf" points="480.5,-168.5 480.5,-187.5 538.5,-187.5 538.5,-168.5 480.5,-168.5"/>
<text text-anchor="middle" x="509.5" y="-175.5" font-family="FreeSans.ttf" font-size="10.00">memory</text>
</a>
</g>
</g>
<!-- Node2&#45;&gt;Node22 -->
<g id="edge25" class="edge">
<title>Node2&#45;&gt;Node22</title>
<path fill="none" stroke="midnightblue" d="M509.5,-224.4C509.5,-216.47 509.5,-206.46 509.5,-197.86"/>
<polygon fill="midnightblue" stroke="midnightblue" points="513,-197.66 509.5,-187.66 506,-197.66 513,-197.66"/>
</g>
<!-- Node4 -->
<g id="node4" class="node">
<title>Node4</title>
<g id="a_node4"><a xlink:href="VectorDynSize_8h.html" target="_top" xlink:title=" ">
<polygon fill="none" stroke="black" points="322,-112.5 322,-131.5 489,-131.5 489,-112.5 322,-112.5"/>
<text text-anchor="middle" x="405.5" y="-119.5" font-family="FreeSans.ttf" font-size="10.00">iDynTree/Core/VectorDynSize.h</text>
</a>
</g>
</g>
<!-- Node3&#45;&gt;Node4 -->
<g id="edge3" class="edge">
<title>Node3&#45;&gt;Node4</title>
<path fill="none" stroke="midnightblue" d="M385.46,-168.08C388.71,-160.77 393.42,-150.18 397.45,-141.1"/>
<polygon fill="midnightblue" stroke="midnightblue" points="400.75,-142.31 401.61,-131.75 394.35,-139.47 400.75,-142.31"/>
</g>
<!-- Node16 -->
<g id="node16" class="node">
<title>Node16</title>
<g id="a_node16"><a xlink:href="SparsityStructure_8h.html" target="_top" xlink:title=" ">
<polygon fill="none" stroke="black" points="149,-112.5 149,-131.5 304,-131.5 304,-112.5 149,-112.5"/>
<text text-anchor="middle" x="226.5" y="-119.5" font-family="FreeSans.ttf" font-size="10.00">iDynTree/SparsityStructure.h</text>
</a>
</g>
</g>
<!-- Node3&#45;&gt;Node16 -->
<g id="edge15" class="edge">
<title>Node3&#45;&gt;Node16</title>
<path fill="none" stroke="midnightblue" d="M356.94,-168.44C330.98,-159.4 289.83,-145.06 260.7,-134.92"/>
<polygon fill="midnightblue" stroke="midnightblue" points="261.54,-131.5 250.95,-131.52 259.24,-138.11 261.54,-131.5"/>
</g>
<!-- Node5 -->
<g id="node5" class="node">
<title>Node5</title>
<g id="a_node5"><a xlink:href="Span_8h.html" target="_top" xlink:title=" ">
<polygon fill="none" stroke="black" points="446,-56.5 446,-75.5 567,-75.5 567,-56.5 446,-56.5"/>
<text text-anchor="middle" x="506.5" y="-63.5" font-family="FreeSans.ttf" font-size="10.00">iDynTree/Core/Span.h</text>
</a>
</g>
</g>
<!-- Node4&#45;&gt;Node5 -->
<g id="edge4" class="edge">
<title>Node4&#45;&gt;Node5</title>
<path fill="none" stroke="midnightblue" d="M421.73,-112.32C437.85,-103.7 462.8,-90.36 481.46,-80.39"/>
<polygon fill="midnightblue" stroke="midnightblue" points="483.14,-83.46 490.31,-75.65 479.84,-77.28 483.14,-83.46"/>
</g>
<!-- Node15 -->
<g id="node15" class="node">
<title>Node15</title>
<g id="a_node15"><a xlink:title=" ">
<polygon fill="none" stroke="#bfbfbf" points="345.5,-56.5 345.5,-75.5 389.5,-75.5 389.5,-56.5 345.5,-56.5"/>
<text text-anchor="middle" x="367.5" y="-63.5" font-family="FreeSans.ttf" font-size="10.00">string</text>
</a>
</g>
</g>
<!-- Node4&#45;&gt;Node15 -->
<g id="edge14" class="edge">
<title>Node4&#45;&gt;Node15</title>
<path fill="none" stroke="midnightblue" d="M399.23,-112.08C393.86,-104.46 385.98,-93.26 379.42,-83.94"/>
<polygon fill="midnightblue" stroke="midnightblue" points="382.28,-81.91 373.66,-75.75 376.55,-85.94 382.28,-81.91"/>
</g>
<!-- Node5&#45;&gt;Node6 -->
<g id="edge5" class="edge">
<title>Node5&#45;&gt;Node6</title>
<path fill="none" stroke="midnightblue" d="M555.74,-56.49C601.28,-48.42 671.04,-35.53 740.39,-20.15"/>
<polygon fill="midnightblue" stroke="midnightblue" points="741.17,-23.56 750.17,-17.96 739.65,-16.73 741.17,-23.56"/>
</g>
<!-- Node7 -->
<g id="node7" class="node">
<title>Node7</title>
<g id="a_node7"><a xlink:title=" ">
<polygon fill="none" stroke="#bfbfbf" points="474.5,-0.5 474.5,-19.5 538.5,-19.5 538.5,-0.5 474.5,-0.5"/>
<text text-anchor="middle" x="506.5" y="-7.5" font-family="FreeSans.ttf" font-size="10.00">algorithm</text>
</a>
</g>
</g>
<!-- Node5&#45;&gt;Node7 -->
<g id="edge6" class="edge">
<title>Node5&#45;&gt;Node7</title>
<path fill="none" stroke="midnightblue" d="M506.5,-56.08C506.5,-49.01 506.5,-38.86 506.5,-29.99"/>
<polygon fill="midnightblue" stroke="midnightblue" points="510,-29.75 506.5,-19.75 503,-29.75 510,-29.75"/>
</g>
<!-- Node8 -->
<g id="node8" class="node">
<title>Node8</title>
<g id="a_node8"><a xlink:title=" ">
<polygon fill="none" stroke="#bfbfbf" points="556.5,-0.5 556.5,-19.5 598.5,-19.5 598.5,-0.5 556.5,-0.5"/>
<text text-anchor="middle" x="577.5" y="-7.5" font-family="FreeSans.ttf" font-size="10.00">array</text>
</a>
</g>
</g>
<!-- Node5&#45;&gt;Node8 -->
<g id="edge7" class="edge">
<title>Node5&#45;&gt;Node8</title>
<path fill="none" stroke="midnightblue" d="M517.91,-56.32C528.61,-48.18 544.84,-35.84 557.66,-26.09"/>
<polygon fill="midnightblue" stroke="midnightblue" points="560.04,-28.67 565.89,-19.83 555.81,-23.1 560.04,-28.67"/>
</g>
<!-- Node9 -->
<g id="node9" class="node">
<title>Node9</title>
<g id="a_node9"><a xlink:title=" ">
<polygon fill="none" stroke="#bfbfbf" points="170,-0.5 170,-19.5 223,-19.5 223,-0.5 170,-0.5"/>
<text text-anchor="middle" x="196.5" y="-7.5" font-family="FreeSans.ttf" font-size="10.00">cstddef</text>
</a>
</g>
</g>
<!-- Node5&#45;&gt;Node9 -->
<g id="edge8" class="edge">
<title>Node5&#45;&gt;Node9</title>
<path fill="none" stroke="midnightblue" d="M445.86,-56.67C392.24,-48.94 311.71,-36.46 233.25,-20.23"/>
<polygon fill="midnightblue" stroke="midnightblue" points="233.7,-16.75 223.2,-18.13 232.27,-23.6 233.7,-16.75"/>
</g>
<!-- Node10 -->
<g id="node10" class="node">
<title>Node10</title>
<g id="a_node10"><a xlink:title=" ">
<polygon fill="none" stroke="#bfbfbf" points="617,-0.5 617,-19.5 670,-19.5 670,-0.5 617,-0.5"/>
<text text-anchor="middle" x="643.5" y="-7.5" font-family="FreeSans.ttf" font-size="10.00">iterator</text>
</a>
</g>
</g>
<!-- Node5&#45;&gt;Node10 -->
<g id="edge9" class="edge">
<title>Node5&#45;&gt;Node10</title>
<path fill="none" stroke="midnightblue" d="M528.21,-56.44C550.85,-47.52 586.57,-33.44 612.25,-23.32"/>
<polygon fill="midnightblue" stroke="midnightblue" points="613.87,-26.44 621.89,-19.52 611.31,-19.93 613.87,-26.44"/>
</g>
<!-- Node11 -->
<g id="node11" class="node">
<title>Node11</title>
<g id="a_node11"><a xlink:title=" ">
<polygon fill="none" stroke="#bfbfbf" points="688.5,-0.5 688.5,-19.5 732.5,-19.5 732.5,-0.5 688.5,-0.5"/>
<text text-anchor="middle" x="710.5" y="-7.5" font-family="FreeSans.ttf" font-size="10.00">limits</text>
</a>
</g>
</g>
<!-- Node5&#45;&gt;Node11 -->
<g id="edge10" class="edge">
<title>Node5&#45;&gt;Node11</title>
<path fill="none" stroke="midnightblue" d="M540.39,-56.48C573.34,-48.14 625.05,-34.87 678.52,-20.22"/>
<polygon fill="midnightblue" stroke="midnightblue" points="679.46,-23.59 688.17,-17.56 677.6,-16.84 679.46,-23.59"/>
</g>
<!-- Node12 -->
<g id="node12" class="node">
<title>Node12</title>
<g id="a_node12"><a xlink:title=" ">
<polygon fill="none" stroke="#bfbfbf" points="241,-0.5 241,-19.5 306,-19.5 306,-0.5 241,-0.5"/>
<text text-anchor="middle" x="273.5" y="-7.5" font-family="FreeSans.ttf" font-size="10.00">stdexcept</text>
</a>
</g>
</g>
<!-- Node5&#45;&gt;Node12 -->
<g id="edge11" class="edge">
<title>Node5&#45;&gt;Node12</title>
<path fill="none" stroke="midnightblue" d="M469.58,-56.44C427.8,-46.76 359.85,-31.01 315.92,-20.83"/>
<polygon fill="midnightblue" stroke="midnightblue" points="316.64,-17.41 306.11,-18.56 315.06,-24.23 316.64,-17.41"/>
</g>
<!-- Node13 -->
<g id="node13" class="node">
<title>Node13</title>
<g id="a_node13"><a xlink:title=" ">
<polygon fill="none" stroke="#bfbfbf" points="324,-0.5 324,-19.5 393,-19.5 393,-0.5 324,-0.5"/>
<text text-anchor="middle" x="358.5" y="-7.5" font-family="FreeSans.ttf" font-size="10.00">type_traits</text>
</a>
</g>
</g>
<!-- Node5&#45;&gt;Node13 -->
<g id="edge12" class="edge">
<title>Node5&#45;&gt;Node13</title>
<path fill="none" stroke="midnightblue" d="M483.05,-56.44C458.37,-47.44 419.31,-33.19 391.52,-23.05"/>
<polygon fill="midnightblue" stroke="midnightblue" points="392.44,-19.66 381.84,-19.52 390.04,-26.23 392.44,-19.66"/>
</g>
<!-- Node14 -->
<g id="node14" class="node">
<title>Node14</title>
<g id="a_node14"><a xlink:title=" ">
<polygon fill="none" stroke="#bfbfbf" points="411,-0.5 411,-19.5 456,-19.5 456,-0.5 411,-0.5"/>
<text text-anchor="middle" x="433.5" y="-7.5" font-family="FreeSans.ttf" font-size="10.00">utility</text>
</a>
</g>
</g>
<!-- Node5&#45;&gt;Node14 -->
<g id="edge13" class="edge">
<title>Node5&#45;&gt;Node14</title>
<path fill="none" stroke="midnightblue" d="M494.77,-56.32C483.66,-48.11 466.76,-35.6 453.52,-25.81"/>
<polygon fill="midnightblue" stroke="midnightblue" points="455.56,-22.97 445.44,-19.83 451.4,-28.59 455.56,-22.97"/>
</g>
<!-- Node16&#45;&gt;Node9 -->
<g id="edge20" class="edge">
<title>Node16&#45;&gt;Node9</title>
<path fill="none" stroke="midnightblue" d="M249.47,-112.38C275.72,-101.16 313.15,-80.11 297.5,-56 289.95,-44.36 258.73,-31.52 232.97,-22.55"/>
<polygon fill="midnightblue" stroke="midnightblue" points="234.02,-19.21 223.43,-19.31 231.77,-25.84 234.02,-19.21"/>
</g>
<!-- Node16&#45;&gt;Node15 -->
<g id="edge22" class="edge">
<title>Node16&#45;&gt;Node15</title>
<path fill="none" stroke="midnightblue" d="M248.84,-112.44C272.25,-103.48 309.24,-89.31 335.69,-79.18"/>
<polygon fill="midnightblue" stroke="midnightblue" points="337.18,-82.36 345.26,-75.52 334.67,-75.82 337.18,-82.36"/>
</g>
<!-- Node16&#45;&gt;Node17 -->
<g id="edge16" class="edge">
<title>Node16&#45;&gt;Node17</title>
<path fill="none" stroke="midnightblue" d="M200.04,-112.44C171.82,-103.32 126.96,-88.81 95.53,-78.65"/>
<polygon fill="midnightblue" stroke="midnightblue" points="96.43,-75.26 85.84,-75.52 94.28,-81.92 96.43,-75.26"/>
</g>
<!-- Node19 -->
<g id="node19" class="node">
<title>Node19</title>
<g id="a_node19"><a xlink:title=" ">
<polygon fill="none" stroke="#bfbfbf" points="242,-56.5 242,-75.5 289,-75.5 289,-56.5 242,-56.5"/>
<text text-anchor="middle" x="265.5" y="-63.5" font-family="FreeSans.ttf" font-size="10.00">vector</text>
</a>
</g>
</g>
<!-- Node16&#45;&gt;Node19 -->
<g id="edge19" class="edge">
<title>Node16&#45;&gt;Node19</title>
<path fill="none" stroke="midnightblue" d="M232.94,-112.08C238.45,-104.46 246.53,-93.26 253.26,-83.94"/>
<polygon fill="midnightblue" stroke="midnightblue" points="256.16,-85.91 259.18,-75.75 250.49,-81.81 256.16,-85.91"/>
</g>
<!-- Node20 -->
<g id="node20" class="node">
<title>Node20</title>
<g id="a_node20"><a xlink:title=" ">
<polygon fill="none" stroke="#bfbfbf" points="137.5,-56.5 137.5,-75.5 223.5,-75.5 223.5,-56.5 137.5,-56.5"/>
<text text-anchor="middle" x="180.5" y="-63.5" font-family="FreeSans.ttf" font-size="10.00">unordered_set</text>
</a>
</g>
</g>
<!-- Node16&#45;&gt;Node20 -->
<g id="edge21" class="edge">
<title>Node16&#45;&gt;Node20</title>
<path fill="none" stroke="midnightblue" d="M218.9,-112.08C212.27,-104.3 202.48,-92.8 194.44,-83.37"/>
<polygon fill="midnightblue" stroke="midnightblue" points="197.1,-81.09 187.95,-75.75 191.77,-85.63 197.1,-81.09"/>
</g>
<!-- Node17&#45;&gt;Node9 -->
<g id="edge17" class="edge">
<title>Node17&#45;&gt;Node9</title>
<path fill="none" stroke="midnightblue" d="M81.21,-56.44C103.85,-47.52 139.57,-33.44 165.25,-23.32"/>
<polygon fill="midnightblue" stroke="midnightblue" points="166.87,-26.44 174.89,-19.52 164.31,-19.93 166.87,-26.44"/>
</g>
<!-- Node18 -->
<g id="node18" class="node">
<title>Node18</title>
<g id="a_node18"><a xlink:title=" ">
<polygon fill="none" stroke="#bfbfbf" points="19.5,-0.5 19.5,-19.5 99.5,-19.5 99.5,-0.5 19.5,-0.5"/>
<text text-anchor="middle" x="59.5" y="-7.5" font-family="FreeSans.ttf" font-size="10.00">CoreExport.h</text>
</a>
</g>
</g>
<!-- Node17&#45;&gt;Node18 -->
<g id="edge18" class="edge">
<title>Node17&#45;&gt;Node18</title>
<path fill="none" stroke="midnightblue" d="M59.5,-56.08C59.5,-49.01 59.5,-38.86 59.5,-29.99"/>
<polygon fill="midnightblue" stroke="midnightblue" points="63,-29.75 59.5,-19.75 56,-29.75 63,-29.75"/>
</g>
<!-- Node21&#45;&gt;Node9 -->
<g id="edge24" class="edge">
<title>Node21&#45;&gt;Node9</title>
<path fill="none" stroke="midnightblue" d="M537.88,-112.47C511.22,-104.2 470.58,-90.77 436.5,-76 418.99,-68.41 416.44,-62.52 398.5,-56 330.06,-31.14 307.26,-36.91 233.04,-20.25"/>
<polygon fill="midnightblue" stroke="midnightblue" points="233.76,-16.83 223.23,-17.99 232.18,-23.65 233.76,-16.83"/>
</g>
</g>
</svg>
