<?xml version="1.0" encoding="UTF-8" standalone="no"?>
<!DOCTYPE svg PUBLIC "-//W3C//DTD SVG 1.1//EN"
 "http://www.w3.org/Graphics/SVG/1.1/DTD/svg11.dtd">
<!-- Generated by graphviz version 2.43.0 (0)
 -->
<!-- Title: ContactStateMachine.h Pages: 1 -->
<svg width="329pt" height="140pt"
 viewBox="0.00 0.00 329.00 140.00" xmlns="http://www.w3.org/2000/svg" xmlns:xlink="http://www.w3.org/1999/xlink">
<g id="graph0" class="graph" transform="scale(1 1) rotate(0) translate(4 136)">
<title>ContactStateMachine.h</title>
<!-- Node1 -->
<g id="node1" class="node">
<title>Node1</title>
<g id="a_node1"><a xlink:title=" ">
<polygon fill="#bfbfbf" stroke="black" points="101.5,-112.5 101.5,-131.5 231.5,-131.5 231.5,-112.5 101.5,-112.5"/>
<text text-anchor="middle" x="166.5" y="-119.5" font-family="FreeSans.ttf" font-size="10.00">ContactStateMachine.h</text>
</a>
</g>
</g>
<!-- Node2 -->
<g id="node2" class="node">
<title>Node2</title>
<g id="a_node2"><a xlink:href="BipedFootContactClassifier_8h.html" target="_top" xlink:title=" ">
<polygon fill="none" stroke="black" points="5.5,-56.5 5.5,-75.5 161.5,-75.5 161.5,-56.5 5.5,-56.5"/>
<text text-anchor="middle" x="83.5" y="-63.5" font-family="FreeSans.ttf" font-size="10.00">BipedFootContactClassifier.h</text>
</a>
</g>
</g>
<!-- Node1&#45;&gt;Node2 -->
<g id="edge1" class="edge">
<title>Node1&#45;&gt;Node2</title>
<path fill="none" stroke="midnightblue" d="M144.4,-106.62C129.24,-96.76 109.62,-83.99 96.8,-75.65"/>
<polygon fill="midnightblue" stroke="midnightblue" points="142.87,-109.8 153.16,-112.32 146.69,-103.94 142.87,-109.8"/>
</g>
<!-- Node4 -->
<g id="node4" class="node">
<title>Node4</title>
<g id="a_node4"><a xlink:href="ContactStateMachine_8cpp.html" target="_top" xlink:title=" ">
<polygon fill="none" stroke="black" points="180,-56.5 180,-75.5 321,-75.5 321,-56.5 180,-56.5"/>
<text text-anchor="middle" x="250.5" y="-63.5" font-family="FreeSans.ttf" font-size="10.00">ContactStateMachine.cpp</text>
</a>
</g>
</g>
<!-- Node1&#45;&gt;Node4 -->
<g id="edge3" class="edge">
<title>Node1&#45;&gt;Node4</title>
<path fill="none" stroke="midnightblue" d="M188.43,-106.9C203.84,-97 223.95,-84.07 237.04,-75.65"/>
<polygon fill="midnightblue" stroke="midnightblue" points="186.52,-103.97 180,-112.32 190.3,-109.86 186.52,-103.97"/>
</g>
<!-- Node3 -->
<g id="node3" class="node">
<title>Node3</title>
<g id="a_node3"><a xlink:href="BipedFootContactClassifier_8cpp.html" target="_top" xlink:title=" ">
<polygon fill="none" stroke="black" points="0,-0.5 0,-19.5 167,-19.5 167,-0.5 0,-0.5"/>
<text text-anchor="middle" x="83.5" y="-7.5" font-family="FreeSans.ttf" font-size="10.00">BipedFootContactClassifier.cpp</text>
</a>
</g>
</g>
<!-- Node2&#45;&gt;Node3 -->
<g id="edge2" class="edge">
<title>Node2&#45;&gt;Node3</title>
<path fill="none" stroke="midnightblue" d="M83.5,-45.8C83.5,-36.91 83.5,-26.78 83.5,-19.75"/>
<polygon fill="midnightblue" stroke="midnightblue" points="80,-46.08 83.5,-56.08 87,-46.08 80,-46.08"/>
</g>
</g>
</svg>
