<?xml version="1.0" encoding="UTF-8" standalone="no"?>
<!DOCTYPE svg PUBLIC "-//W3C//DTD SVG 1.1//EN"
 "http://www.w3.org/Graphics/SVG/1.1/DTD/svg11.dtd">
<!-- Generated by graphviz version 2.43.0 (0)
 -->
<!-- Title: Cost.h Pages: 1 -->
<svg width="546pt" height="196pt"
 viewBox="0.00 0.00 546.12 196.00" xmlns="http://www.w3.org/2000/svg" xmlns:xlink="http://www.w3.org/1999/xlink">
<g id="graph0" class="graph" transform="scale(1 1) rotate(0) translate(4 192)">
<title>Cost.h</title>
<!-- Node1 -->
<g id="node1" class="node">
<title>Node1</title>
<g id="a_node1"><a xlink:title=" ">
<polygon fill="#bfbfbf" stroke="black" points="220.12,-168.5 220.12,-187.5 267.12,-187.5 267.12,-168.5 220.12,-168.5"/>
<text text-anchor="middle" x="243.62" y="-175.5" font-family="FreeSans.ttf" font-size="10.00">Cost.h</text>
</a>
</g>
</g>
<!-- Node2 -->
<g id="node2" class="node">
<title>Node2</title>
<g id="a_node2"><a xlink:href="L2NormCost_8h.html" target="_top" xlink:title=" ">
<polygon fill="none" stroke="black" points="82.62,-112.5 82.62,-131.5 168.62,-131.5 168.62,-112.5 82.62,-112.5"/>
<text text-anchor="middle" x="125.62" y="-119.5" font-family="FreeSans.ttf" font-size="10.00">L2NormCost.h</text>
</a>
</g>
</g>
<!-- Node1&#45;&gt;Node2 -->
<g id="edge1" class="edge">
<title>Node1&#45;&gt;Node2</title>
<path fill="none" stroke="midnightblue" d="M215.72,-164.23C193.65,-154.13 163.45,-140.31 144.23,-131.52"/>
<polygon fill="midnightblue" stroke="midnightblue" points="214.38,-167.46 224.93,-168.44 217.29,-161.1 214.38,-167.46"/>
</g>
<!-- Node4 -->
<g id="node4" class="node">
<title>Node4</title>
<g id="a_node4"><a xlink:href="OptimalControlProblem_8cpp.html" target="_top" xlink:title=" ">
<polygon fill="none" stroke="black" points="62.62,-0.5 62.62,-19.5 214.62,-19.5 214.62,-0.5 62.62,-0.5"/>
<text text-anchor="middle" x="138.62" y="-7.5" font-family="FreeSans.ttf" font-size="10.00">OptimalControlProblem.cpp</text>
</a>
</g>
</g>
<!-- Node1&#45;&gt;Node4 -->
<g id="edge15" class="edge">
<title>Node1&#45;&gt;Node4</title>
<path fill="none" stroke="midnightblue" d="M209.51,-175.61C152.48,-171.14 40.42,-152.55 3.62,-76 -11.65,-44.23 27.07,-27.88 66.9,-19.53"/>
<polygon fill="midnightblue" stroke="midnightblue" points="209.6,-179.13 219.82,-176.31 210.08,-172.14 209.6,-179.13"/>
</g>
<!-- Node5 -->
<g id="node5" class="node">
<title>Node5</title>
<g id="a_node5"><a xlink:href="OptimalControl_8h.html" target="_top" xlink:title=" ">
<polygon fill="none" stroke="black" points="318.62,-112.5 318.62,-131.5 418.62,-131.5 418.62,-112.5 318.62,-112.5"/>
<text text-anchor="middle" x="368.62" y="-119.5" font-family="FreeSans.ttf" font-size="10.00">OptimalControl.h</text>
</a>
</g>
</g>
<!-- Node1&#45;&gt;Node5 -->
<g id="edge4" class="edge">
<title>Node1&#45;&gt;Node5</title>
<path fill="none" stroke="midnightblue" d="M272.86,-164.37C296.27,-154.26 328.46,-140.35 348.91,-131.52"/>
<polygon fill="midnightblue" stroke="midnightblue" points="271.22,-161.26 263.43,-168.44 274,-167.69 271.22,-161.26"/>
</g>
<!-- Node6 -->
<g id="node6" class="node">
<title>Node6</title>
<g id="a_node6"><a xlink:href="QuadraticLikeCost_8h.html" target="_top" xlink:title=" ">
<polygon fill="none" stroke="black" points="186.62,-112.5 186.62,-131.5 300.62,-131.5 300.62,-112.5 186.62,-112.5"/>
<text text-anchor="middle" x="243.62" y="-119.5" font-family="FreeSans.ttf" font-size="10.00">QuadraticLikeCost.h</text>
</a>
</g>
</g>
<!-- Node1&#45;&gt;Node6 -->
<g id="edge5" class="edge">
<title>Node1&#45;&gt;Node6</title>
<path fill="none" stroke="midnightblue" d="M243.62,-157.8C243.62,-148.91 243.62,-138.78 243.62,-131.75"/>
<polygon fill="midnightblue" stroke="midnightblue" points="240.12,-158.08 243.62,-168.08 247.12,-158.08 240.12,-158.08"/>
</g>
<!-- Node12 -->
<g id="node12" class="node">
<title>Node12</title>
<g id="a_node12"><a xlink:href="Cost_8cpp.html" target="_top" xlink:title=" ">
<polygon fill="none" stroke="black" points="437.12,-112.5 437.12,-131.5 496.12,-131.5 496.12,-112.5 437.12,-112.5"/>
<text text-anchor="middle" x="466.62" y="-119.5" font-family="FreeSans.ttf" font-size="10.00">Cost.cpp</text>
</a>
</g>
</g>
<!-- Node1&#45;&gt;Node12 -->
<g id="edge14" class="edge">
<title>Node1&#45;&gt;Node12</title>
<path fill="none" stroke="midnightblue" d="M277.29,-168.85C320.71,-158.33 395.56,-140.21 436.95,-130.19"/>
<polygon fill="midnightblue" stroke="midnightblue" points="276.38,-165.47 267.49,-171.22 278.03,-172.27 276.38,-165.47"/>
</g>
<!-- Node3 -->
<g id="node3" class="node">
<title>Node3</title>
<g id="a_node3"><a xlink:href="L2NormCost_8cpp.html" target="_top" xlink:title=" ">
<polygon fill="none" stroke="black" points="13.12,-56.5 13.12,-75.5 110.12,-75.5 110.12,-56.5 13.12,-56.5"/>
<text text-anchor="middle" x="61.62" y="-63.5" font-family="FreeSans.ttf" font-size="10.00">L2NormCost.cpp</text>
</a>
</g>
</g>
<!-- Node2&#45;&gt;Node3 -->
<g id="edge2" class="edge">
<title>Node2&#45;&gt;Node3</title>
<path fill="none" stroke="midnightblue" d="M107.63,-105.82C96.17,-96.15 81.71,-83.95 72.09,-75.83"/>
<polygon fill="midnightblue" stroke="midnightblue" points="105.44,-108.55 115.34,-112.32 109.95,-103.2 105.44,-108.55"/>
</g>
<!-- Node2&#45;&gt;Node4 -->
<g id="edge3" class="edge">
<title>Node2&#45;&gt;Node4</title>
<path fill="none" stroke="midnightblue" d="M127.83,-102.35C130.68,-78.25 135.51,-37.31 137.61,-19.59"/>
<polygon fill="midnightblue" stroke="midnightblue" points="124.34,-102.03 126.64,-112.37 131.29,-102.85 124.34,-102.03"/>
</g>
<!-- Node6&#45;&gt;Node4 -->
<g id="edge12" class="edge">
<title>Node6&#45;&gt;Node4</title>
<path fill="none" stroke="midnightblue" d="M226.73,-105.43C217.64,-96.91 206.33,-86.06 196.62,-76 177.71,-56.42 156.72,-32.24 145.92,-19.61"/>
<polygon fill="midnightblue" stroke="midnightblue" points="224.34,-108 234.05,-112.25 229.11,-102.87 224.34,-108"/>
</g>
<!-- Node7 -->
<g id="node7" class="node">
<title>Node7</title>
<g id="a_node7"><a xlink:href="LinearCost_8h.html" target="_top" xlink:title=" ">
<polygon fill="none" stroke="black" points="205.12,-56.5 205.12,-75.5 282.12,-75.5 282.12,-56.5 205.12,-56.5"/>
<text text-anchor="middle" x="243.62" y="-63.5" font-family="FreeSans.ttf" font-size="10.00">LinearCost.h</text>
</a>
</g>
</g>
<!-- Node6&#45;&gt;Node7 -->
<g id="edge6" class="edge">
<title>Node6&#45;&gt;Node7</title>
<path fill="none" stroke="midnightblue" d="M243.62,-101.8C243.62,-92.91 243.62,-82.78 243.62,-75.75"/>
<polygon fill="midnightblue" stroke="midnightblue" points="240.12,-102.08 243.62,-112.08 247.12,-102.08 240.12,-102.08"/>
</g>
<!-- Node9 -->
<g id="node9" class="node">
<title>Node9</title>
<g id="a_node9"><a xlink:href="QuadraticCost_8h.html" target="_top" xlink:title=" ">
<polygon fill="none" stroke="black" points="300.12,-56.5 300.12,-75.5 395.12,-75.5 395.12,-56.5 300.12,-56.5"/>
<text text-anchor="middle" x="347.62" y="-63.5" font-family="FreeSans.ttf" font-size="10.00">QuadraticCost.h</text>
</a>
</g>
</g>
<!-- Node6&#45;&gt;Node9 -->
<g id="edge9" class="edge">
<title>Node6&#45;&gt;Node9</title>
<path fill="none" stroke="midnightblue" d="M269.45,-107.59C288.68,-97.61 314.37,-84.27 330.96,-75.65"/>
<polygon fill="midnightblue" stroke="midnightblue" points="267.59,-104.61 260.33,-112.32 270.82,-110.82 267.59,-104.61"/>
</g>
<!-- Node11 -->
<g id="node11" class="node">
<title>Node11</title>
<g id="a_node11"><a xlink:href="QuadraticLikeCost_8cpp.html" target="_top" xlink:title=" ">
<polygon fill="none" stroke="black" points="413.12,-56.5 413.12,-75.5 538.12,-75.5 538.12,-56.5 413.12,-56.5"/>
<text text-anchor="middle" x="475.62" y="-63.5" font-family="FreeSans.ttf" font-size="10.00">QuadraticLikeCost.cpp</text>
</a>
</g>
</g>
<!-- Node6&#45;&gt;Node11 -->
<g id="edge13" class="edge">
<title>Node6&#45;&gt;Node11</title>
<path fill="none" stroke="midnightblue" d="M290.23,-110.15C334.06,-99.95 398.8,-84.88 439.03,-75.52"/>
<polygon fill="midnightblue" stroke="midnightblue" points="289.33,-106.77 280.38,-112.44 290.92,-113.59 289.33,-106.77"/>
</g>
<!-- Node7&#45;&gt;Node4 -->
<g id="edge8" class="edge">
<title>Node7&#45;&gt;Node4</title>
<path fill="none" stroke="midnightblue" d="M217.81,-51.73C198.37,-41.73 172.27,-28.31 155.45,-19.65"/>
<polygon fill="midnightblue" stroke="midnightblue" points="216.26,-54.86 226.75,-56.32 219.46,-48.64 216.26,-54.86"/>
</g>
<!-- Node8 -->
<g id="node8" class="node">
<title>Node8</title>
<g id="a_node8"><a xlink:href="LinearCost_8cpp.html" target="_top" xlink:title=" ">
<polygon fill="none" stroke="black" points="233.12,-0.5 233.12,-19.5 322.12,-19.5 322.12,-0.5 233.12,-0.5"/>
<text text-anchor="middle" x="277.62" y="-7.5" font-family="FreeSans.ttf" font-size="10.00">LinearCost.cpp</text>
</a>
</g>
</g>
<!-- Node7&#45;&gt;Node8 -->
<g id="edge7" class="edge">
<title>Node7&#45;&gt;Node8</title>
<path fill="none" stroke="midnightblue" d="M254.6,-47.57C260.45,-38.27 267.39,-27.25 272.11,-19.75"/>
<polygon fill="midnightblue" stroke="midnightblue" points="251.6,-45.76 249.24,-56.08 257.53,-49.49 251.6,-45.76"/>
</g>
<!-- Node9&#45;&gt;Node4 -->
<g id="edge10" class="edge">
<title>Node9&#45;&gt;Node4</title>
<path fill="none" stroke="midnightblue" d="M304.64,-53.89C265.17,-43.7 207.52,-28.8 171.59,-19.52"/>
<polygon fill="midnightblue" stroke="midnightblue" points="303.95,-57.33 314.51,-56.44 305.7,-50.55 303.95,-57.33"/>
</g>
<!-- Node10 -->
<g id="node10" class="node">
<title>Node10</title>
<g id="a_node10"><a xlink:href="QuadraticCost_8cpp.html" target="_top" xlink:title=" ">
<polygon fill="none" stroke="black" points="339.62,-0.5 339.62,-19.5 445.62,-19.5 445.62,-0.5 339.62,-0.5"/>
<text text-anchor="middle" x="392.62" y="-7.5" font-family="FreeSans.ttf" font-size="10.00">QuadraticCost.cpp</text>
</a>
</g>
</g>
<!-- Node9&#45;&gt;Node10 -->
<g id="edge11" class="edge">
<title>Node9&#45;&gt;Node10</title>
<path fill="none" stroke="midnightblue" d="M361.67,-48.14C369.51,-38.74 378.95,-27.4 385.33,-19.75"/>
<polygon fill="midnightblue" stroke="midnightblue" points="358.77,-46.16 355.05,-56.08 364.14,-50.64 358.77,-46.16"/>
</g>
</g>
</svg>
