<?xml version="1.0" encoding="UTF-8" standalone="no"?>
<!DOCTYPE svg PUBLIC "-//W3C//DTD SVG 1.1//EN"
 "http://www.w3.org/Graphics/SVG/1.1/DTD/svg11.dtd">
<!-- Generated by graphviz version 2.43.0 (0)
 -->
<!-- Title: DenavitHartenberg.h Pages: 1 -->
<svg width="1180pt" height="789pt"
 viewBox="0.00 0.00 1180.27 789.00" xmlns="http://www.w3.org/2000/svg" xmlns:xlink="http://www.w3.org/1999/xlink">
<g id="graph0" class="graph" transform="scale(1 1) rotate(0) translate(4 785)">
<title>DenavitHartenberg.h</title>
<!-- Node1 -->
<g id="node1" class="node">
<title>Node1</title>
<g id="a_node1"><a xlink:title=" ">
<polygon fill="#bfbfbf" stroke="black" points="264.5,-761.5 264.5,-780.5 383.5,-780.5 383.5,-761.5 264.5,-761.5"/>
<text text-anchor="middle" x="324" y="-768.5" font-family="FreeSans.ttf" font-size="10.00">DenavitHartenberg.h</text>
</a>
</g>
</g>
<!-- Node2 -->
<g id="node2" class="node">
<title>Node2</title>
<g id="a_node2"><a xlink:href="Indices_8h.html" target="_top" xlink:title=" ">
<polygon fill="none" stroke="black" points="577.5,-593.5 577.5,-612.5 716.5,-612.5 716.5,-593.5 577.5,-593.5"/>
<text text-anchor="middle" x="647" y="-600.5" font-family="FreeSans.ttf" font-size="10.00">iDynTree/Model/Indices.h</text>
</a>
</g>
</g>
<!-- Node1&#45;&gt;Node2 -->
<g id="edge1" class="edge">
<title>Node1&#45;&gt;Node2</title>
<path fill="none" stroke="midnightblue" d="M383.67,-763.67C484.06,-751.67 679.86,-721.92 721,-669 737.34,-647.99 706.45,-628.5 679.73,-616.45"/>
<polygon fill="midnightblue" stroke="midnightblue" points="681.1,-613.23 670.53,-612.5 678.35,-619.66 681.1,-613.23"/>
</g>
<!-- Node6 -->
<g id="node6" class="node">
<title>Node6</title>
<g id="a_node6"><a xlink:href="Model_8h.html" target="_top" xlink:title=" ">
<polygon fill="none" stroke="black" points="210,-705.5 210,-724.5 344,-724.5 344,-705.5 210,-705.5"/>
<text text-anchor="middle" x="277" y="-712.5" font-family="FreeSans.ttf" font-size="10.00">iDynTree/Model/Model.h</text>
</a>
</g>
</g>
<!-- Node1&#45;&gt;Node6 -->
<g id="edge5" class="edge">
<title>Node1&#45;&gt;Node6</title>
<path fill="none" stroke="midnightblue" d="M316.24,-761.08C309.46,-753.3 299.46,-741.8 291.24,-732.37"/>
<polygon fill="midnightblue" stroke="midnightblue" points="293.82,-730 284.62,-724.75 288.54,-734.59 293.82,-730"/>
</g>
<!-- Node41 -->
<g id="node41" class="node">
<title>Node41</title>
<g id="a_node41"><a xlink:href="Transform_8h.html" target="_top" xlink:title=" ">
<polygon fill="none" stroke="black" points="37,-403.5 37,-422.5 183,-422.5 183,-403.5 37,-403.5"/>
<text text-anchor="middle" x="110" y="-410.5" font-family="FreeSans.ttf" font-size="10.00">iDynTree/Core/Transform.h</text>
</a>
</g>
</g>
<!-- Node1&#45;&gt;Node41 -->
<g id="edge90" class="edge">
<title>Node1&#45;&gt;Node41</title>
<path fill="none" stroke="midnightblue" d="M274.51,-761.49C192.65,-745.99 38,-710.07 38,-660 38,-660 38,-660 38,-540.5 38,-495.71 72.51,-452.31 93.75,-429.84"/>
<polygon fill="midnightblue" stroke="midnightblue" points="96.39,-432.14 100.88,-422.54 91.39,-427.24 96.39,-432.14"/>
</g>
<!-- Node44 -->
<g id="node44" class="node">
<title>Node44</title>
<g id="a_node44"><a xlink:title=" ">
<polygon fill="none" stroke="#bfbfbf" points="310.5,-593.5 310.5,-612.5 357.5,-612.5 357.5,-593.5 310.5,-593.5"/>
<text text-anchor="middle" x="334" y="-600.5" font-family="FreeSans.ttf" font-size="10.00">vector</text>
</a>
</g>
</g>
<!-- Node1&#45;&gt;Node44 -->
<g id="edge91" class="edge">
<title>Node1&#45;&gt;Node44</title>
<path fill="none" stroke="midnightblue" d="M331.67,-761.46C338.78,-752.93 348.85,-739.09 353,-725 363.46,-689.44 350.87,-646.21 341.77,-622.24"/>
<polygon fill="midnightblue" stroke="midnightblue" points="344.9,-620.65 337.93,-612.68 338.41,-623.26 344.9,-620.65"/>
</g>
<!-- Node3 -->
<g id="node3" class="node">
<title>Node3</title>
<g id="a_node3"><a xlink:title=" ">
<polygon fill="none" stroke="#bfbfbf" points="1023.5,-0.5 1023.5,-19.5 1076.5,-19.5 1076.5,-0.5 1023.5,-0.5"/>
<text text-anchor="middle" x="1050" y="-7.5" font-family="FreeSans.ttf" font-size="10.00">cstddef</text>
</a>
</g>
</g>
<!-- Node2&#45;&gt;Node3 -->
<g id="edge2" class="edge">
<title>Node2&#45;&gt;Node3</title>
<path fill="none" stroke="midnightblue" d="M716.72,-600.25C847.39,-596.32 1118.92,-584.87 1151,-557 1179.07,-532.6 1170,-512.69 1170,-475.5 1170,-475.5 1170,-475.5 1170,-121 1170,-73.08 1117.36,-40.38 1081.81,-23.76"/>
<polygon fill="midnightblue" stroke="midnightblue" points="1082.85,-20.4 1072.29,-19.5 1079.99,-26.78 1082.85,-20.4"/>
</g>
<!-- Node4 -->
<g id="node4" class="node">
<title>Node4</title>
<g id="a_node4"><a xlink:title=" ">
<polygon fill="none" stroke="#bfbfbf" points="206,-112.5 206,-131.5 250,-131.5 250,-112.5 206,-112.5"/>
<text text-anchor="middle" x="228" y="-119.5" font-family="FreeSans.ttf" font-size="10.00">string</text>
</a>
</g>
</g>
<!-- Node2&#45;&gt;Node4 -->
<g id="edge3" class="edge">
<title>Node2&#45;&gt;Node4</title>
<path fill="none" stroke="midnightblue" d="M581.72,-593.48C495.55,-582.06 353.44,-562.58 343,-557 317.89,-543.57 181.24,-393.57 171,-367 139.49,-285.25 192.84,-181.12 217.03,-140.41"/>
<polygon fill="midnightblue" stroke="midnightblue" points="220.13,-142.04 222.35,-131.68 214.15,-138.4 220.13,-142.04"/>
</g>
<!-- Node5 -->
<g id="node5" class="node">
<title>Node5</title>
<g id="a_node5"><a xlink:title=" ">
<polygon fill="none" stroke="#bfbfbf" points="1054.5,-532 1054.5,-551 1141.5,-551 1141.5,-532 1054.5,-532"/>
<text text-anchor="middle" x="1098" y="-539" font-family="FreeSans.ttf" font-size="10.00">ModelExport.h</text>
</a>
</g>
</g>
<!-- Node2&#45;&gt;Node5 -->
<g id="edge4" class="edge">
<title>Node2&#45;&gt;Node5</title>
<path fill="none" stroke="midnightblue" d="M716.62,-596.8C795.49,-590.27 927.66,-577.38 1040,-557 1045.55,-555.99 1051.36,-554.76 1057.07,-553.44"/>
<polygon fill="midnightblue" stroke="midnightblue" points="1058.26,-556.75 1067.16,-551.01 1056.62,-549.95 1058.26,-556.75"/>
</g>
<!-- Node6&#45;&gt;Node2 -->
<g id="edge81" class="edge">
<title>Node6&#45;&gt;Node2</title>
<path fill="none" stroke="midnightblue" d="M344.15,-708.83C397.22,-703.2 472.52,-691.76 535,-669 553.24,-662.36 597.81,-635.11 624.91,-618.07"/>
<polygon fill="midnightblue" stroke="midnightblue" points="627.11,-620.82 633.69,-612.52 623.37,-614.91 627.11,-620.82"/>
</g>
<!-- Node7 -->
<g id="node7" class="node">
<title>Node7</title>
<g id="a_node7"><a xlink:href="IJoint_8h.html" target="_top" xlink:title=" ">
<polygon fill="none" stroke="black" points="582.5,-649.5 582.5,-668.5 711.5,-668.5 711.5,-649.5 582.5,-649.5"/>
<text text-anchor="middle" x="647" y="-656.5" font-family="FreeSans.ttf" font-size="10.00">iDynTree/Model/IJoint.h</text>
</a>
</g>
</g>
<!-- Node6&#45;&gt;Node7 -->
<g id="edge6" class="edge">
<title>Node6&#45;&gt;Node7</title>
<path fill="none" stroke="midnightblue" d="M335.63,-705.44C401.66,-695.81 508.84,-680.16 578.63,-669.98"/>
<polygon fill="midnightblue" stroke="midnightblue" points="579.26,-673.42 588.65,-668.52 578.25,-666.5 579.26,-673.42"/>
</g>
<!-- Node8 -->
<g id="node8" class="node">
<title>Node8</title>
<g id="a_node8"><a xlink:href="Link_8h.html" target="_top" xlink:title=" ">
<polygon fill="none" stroke="black" points="400.5,-649.5 400.5,-668.5 525.5,-668.5 525.5,-649.5 400.5,-649.5"/>
<text text-anchor="middle" x="463" y="-656.5" font-family="FreeSans.ttf" font-size="10.00">iDynTree/Model/Link.h</text>
</a>
</g>
</g>
<!-- Node6&#45;&gt;Node8 -->
<g id="edge8" class="edge">
<title>Node6&#45;&gt;Node8</title>
<path fill="none" stroke="midnightblue" d="M306.47,-705.44C338.17,-696.24 388.73,-681.56 423.77,-671.39"/>
<polygon fill="midnightblue" stroke="midnightblue" points="425.04,-674.67 433.67,-668.52 423.09,-667.94 425.04,-674.67"/>
</g>
<!-- Node6&#45;&gt;Node41 -->
<g id="edge76" class="edge">
<title>Node6&#45;&gt;Node41</title>
<path fill="none" stroke="midnightblue" d="M210.35,-705.45C151.84,-693.76 76,-666.55 76,-604 76,-604 76,-604 76,-540.5 76,-500.68 91.9,-456.16 101.96,-431.99"/>
<polygon fill="midnightblue" stroke="midnightblue" points="105.23,-433.25 105.97,-422.68 98.8,-430.48 105.23,-433.25"/>
</g>
<!-- Node42 -->
<g id="node42" class="node">
<title>Node42</title>
<g id="a_node42"><a xlink:href="SolidShapes_8h.html" target="_top" xlink:title=" ">
<polygon fill="none" stroke="black" points="142,-649.5 142,-668.5 306,-668.5 306,-649.5 142,-649.5"/>
<text text-anchor="middle" x="224" y="-656.5" font-family="FreeSans.ttf" font-size="10.00">iDynTree/Model/SolidShapes.h</text>
</a>
</g>
</g>
<!-- Node6&#45;&gt;Node42 -->
<g id="edge82" class="edge">
<title>Node6&#45;&gt;Node42</title>
<path fill="none" stroke="midnightblue" d="M268.25,-705.08C260.53,-697.22 249.1,-685.57 239.78,-676.08"/>
<polygon fill="midnightblue" stroke="midnightblue" points="242.09,-673.44 232.59,-668.75 237.1,-678.34 242.09,-673.44"/>
</g>
<!-- Node43 -->
<g id="node43" class="node">
<title>Node43</title>
<g id="a_node43"><a xlink:title=" ">
<polygon fill="none" stroke="#bfbfbf" points="104.5,-593.5 104.5,-612.5 153.5,-612.5 153.5,-593.5 104.5,-593.5"/>
<text text-anchor="middle" x="129" y="-600.5" font-family="FreeSans.ttf" font-size="10.00">cstdlib</text>
</a>
</g>
</g>
<!-- Node6&#45;&gt;Node43 -->
<g id="edge88" class="edge">
<title>Node6&#45;&gt;Node43</title>
<path fill="none" stroke="midnightblue" d="M209.86,-709.44C181.72,-703.9 151.34,-692.4 133,-669 122.88,-656.08 122.95,-636.91 124.91,-622.73"/>
<polygon fill="midnightblue" stroke="midnightblue" points="128.4,-623.11 126.73,-612.65 121.51,-621.87 128.4,-623.11"/>
</g>
<!-- Node6&#45;&gt;Node44 -->
<g id="edge89" class="edge">
<title>Node6&#45;&gt;Node44</title>
<path fill="none" stroke="midnightblue" d="M286.41,-705.2C294.99,-696.69 307.45,-683.05 315,-669 322.82,-654.43 327.78,-636.26 330.67,-622.83"/>
<polygon fill="midnightblue" stroke="midnightblue" points="334.13,-623.34 332.62,-612.86 327.26,-622 334.13,-623.34"/>
</g>
<!-- Node7&#45;&gt;Node2 -->
<g id="edge7" class="edge">
<title>Node7&#45;&gt;Node2</title>
<path fill="none" stroke="midnightblue" d="M647,-649.08C647,-642.01 647,-631.86 647,-622.99"/>
<polygon fill="midnightblue" stroke="midnightblue" points="650.5,-622.75 647,-612.75 643.5,-622.75 650.5,-622.75"/>
</g>
<!-- Node8&#45;&gt;Node2 -->
<g id="edge75" class="edge">
<title>Node8&#45;&gt;Node2</title>
<path fill="none" stroke="midnightblue" d="M492.16,-649.44C523.51,-640.24 573.53,-625.56 608.2,-615.39"/>
<polygon fill="midnightblue" stroke="midnightblue" points="609.37,-618.69 617.98,-612.52 607.4,-611.97 609.37,-618.69"/>
</g>
<!-- Node9 -->
<g id="node9" class="node">
<title>Node9</title>
<g id="a_node9"><a xlink:href="SpatialInertia_8h.html" target="_top" xlink:title=" ">
<polygon fill="none" stroke="black" points="397,-593.5 397,-612.5 559,-612.5 559,-593.5 397,-593.5"/>
<text text-anchor="middle" x="478" y="-600.5" font-family="FreeSans.ttf" font-size="10.00">iDynTree/Core/SpatialInertia.h</text>
</a>
</g>
</g>
<!-- Node8&#45;&gt;Node9 -->
<g id="edge9" class="edge">
<title>Node8&#45;&gt;Node9</title>
<path fill="none" stroke="midnightblue" d="M465.48,-649.08C467.49,-641.85 470.39,-631.41 472.89,-622.4"/>
<polygon fill="midnightblue" stroke="midnightblue" points="476.26,-623.32 475.57,-612.75 469.52,-621.45 476.26,-623.32"/>
</g>
<!-- Node10 -->
<g id="node10" class="node">
<title>Node10</title>
<g id="a_node10"><a xlink:href="SpatialInertiaRaw_8h.html" target="_top" xlink:title=" ">
<polygon fill="none" stroke="black" points="142.5,-526.5 142.5,-556.5 295.5,-556.5 295.5,-526.5 142.5,-526.5"/>
<text text-anchor="start" x="150.5" y="-544.5" font-family="FreeSans.ttf" font-size="10.00">iDynTree/Core/SpatialInertia</text>
<text text-anchor="middle" x="219" y="-533.5" font-family="FreeSans.ttf" font-size="10.00">Raw.h</text>
</a>
</g>
</g>
<!-- Node9&#45;&gt;Node10 -->
<g id="edge10" class="edge">
<title>Node9&#45;&gt;Node10</title>
<path fill="none" stroke="midnightblue" d="M440.89,-593.48C401.63,-584.46 338.74,-570.01 289.92,-558.79"/>
<polygon fill="midnightblue" stroke="midnightblue" points="290.57,-555.35 280.04,-556.52 289,-562.17 290.57,-555.35"/>
</g>
<!-- Node28 -->
<g id="node28" class="node">
<title>Node28</title>
<g id="a_node28"><a xlink:href="VectorFixSize_8h.html" target="_top" xlink:title=" ">
<polygon fill="none" stroke="black" points="721,-168.5 721,-187.5 883,-187.5 883,-168.5 721,-168.5"/>
<text text-anchor="middle" x="802" y="-175.5" font-family="FreeSans.ttf" font-size="10.00">iDynTree/Core/VectorFixSize.h</text>
</a>
</g>
</g>
<!-- Node9&#45;&gt;Node28 -->
<g id="edge35" class="edge">
<title>Node9&#45;&gt;Node28</title>
<path fill="none" stroke="midnightblue" d="M559.36,-593.89C562.61,-593.58 565.84,-593.29 569,-593 617.63,-588.6 970.03,-588.9 1007,-557 1035.16,-532.7 1026,-512.69 1026,-475.5 1026,-475.5 1026,-475.5 1026,-350.5 1026,-284.21 999.5,-264.47 947,-224 925.16,-207.16 896.95,-196.57 871.22,-189.93"/>
<polygon fill="midnightblue" stroke="midnightblue" points="872.05,-186.53 861.5,-187.58 870.4,-193.33 872.05,-186.53"/>
</g>
<!-- Node29 -->
<g id="node29" class="node">
<title>Node29</title>
<g id="a_node29"><a xlink:href="Twist_8h.html" target="_top" xlink:title=" ">
<polygon fill="none" stroke="black" points="876,-532 876,-551 998,-551 998,-532 876,-532"/>
<text text-anchor="middle" x="937" y="-539" font-family="FreeSans.ttf" font-size="10.00">iDynTree/Core/Twist.h</text>
</a>
</g>
</g>
<!-- Node9&#45;&gt;Node29 -->
<g id="edge43" class="edge">
<title>Node9&#45;&gt;Node29</title>
<path fill="none" stroke="midnightblue" d="M559.2,-593.47C655.33,-583.22 809.61,-566.24 867,-557 874.16,-555.85 881.7,-554.46 889.07,-553.02"/>
<polygon fill="midnightblue" stroke="midnightblue" points="889.86,-556.43 898.97,-551.02 888.47,-549.57 889.86,-556.43"/>
</g>
<!-- Node37 -->
<g id="node37" class="node">
<title>Node37</title>
<g id="a_node37"><a xlink:href="SpatialMomentum_8h.html" target="_top" xlink:title=" ">
<polygon fill="none" stroke="black" points="504.5,-532 504.5,-551 691.5,-551 691.5,-532 504.5,-532"/>
<text text-anchor="middle" x="598" y="-539" font-family="FreeSans.ttf" font-size="10.00">iDynTree/Core/SpatialMomentum.h</text>
</a>
</g>
</g>
<!-- Node9&#45;&gt;Node37 -->
<g id="edge66" class="edge">
<title>Node9&#45;&gt;Node37</title>
<path fill="none" stroke="midnightblue" d="M495.19,-593.48C515.24,-583.53 548.6,-566.99 571.86,-555.46"/>
<polygon fill="midnightblue" stroke="midnightblue" points="573.43,-558.59 580.84,-551.01 570.32,-552.32 573.43,-558.59"/>
</g>
<!-- Node39 -->
<g id="node39" class="node">
<title>Node39</title>
<g id="a_node39"><a xlink:href="SpatialAcc_8h.html" target="_top" xlink:title=" ">
<polygon fill="none" stroke="black" points="710,-532 710,-551 858,-551 858,-532 710,-532"/>
<text text-anchor="middle" x="784" y="-539" font-family="FreeSans.ttf" font-size="10.00">iDynTree/Core/SpatialAcc.h</text>
</a>
</g>
</g>
<!-- Node9&#45;&gt;Node39 -->
<g id="edge71" class="edge">
<title>Node9&#45;&gt;Node39</title>
<path fill="none" stroke="midnightblue" d="M521.84,-593.48C576.83,-582.78 671.07,-564.46 730.32,-552.94"/>
<polygon fill="midnightblue" stroke="midnightblue" points="731.09,-556.35 740.24,-551.01 729.75,-549.48 731.09,-556.35"/>
</g>
<!-- Node40 -->
<g id="node40" class="node">
<title>Node40</title>
<g id="a_node40"><a xlink:href="Wrench_8h.html" target="_top" xlink:title=" ">
<polygon fill="none" stroke="black" points="352,-532 352,-551 486,-551 486,-532 352,-532"/>
<text text-anchor="middle" x="419" y="-539" font-family="FreeSans.ttf" font-size="10.00">iDynTree/Core/Wrench.h</text>
</a>
</g>
</g>
<!-- Node9&#45;&gt;Node40 -->
<g id="edge73" class="edge">
<title>Node9&#45;&gt;Node40</title>
<path fill="none" stroke="midnightblue" d="M469.55,-593.48C460.43,-584.28 445.73,-569.46 434.52,-558.16"/>
<polygon fill="midnightblue" stroke="midnightblue" points="436.96,-555.65 427.44,-551.01 431.99,-560.57 436.96,-555.65"/>
</g>
<!-- Node11 -->
<g id="node11" class="node">
<title>Node11</title>
<g id="a_node11"><a xlink:href="RotationalInertiaRaw_8h.html" target="_top" xlink:title=" ">
<polygon fill="none" stroke="black" points="180,-336.5 180,-366.5 318,-366.5 318,-336.5 180,-336.5"/>
<text text-anchor="start" x="188" y="-354.5" font-family="FreeSans.ttf" font-size="10.00">iDynTree/Core/Rotational</text>
<text text-anchor="middle" x="249" y="-343.5" font-family="FreeSans.ttf" font-size="10.00">InertiaRaw.h</text>
</a>
</g>
</g>
<!-- Node10&#45;&gt;Node11 -->
<g id="edge11" class="edge">
<title>Node10&#45;&gt;Node11</title>
<path fill="none" stroke="midnightblue" d="M221.25,-526.37C226.36,-494.38 238.85,-416.11 245.18,-376.42"/>
<polygon fill="midnightblue" stroke="midnightblue" points="248.64,-376.96 246.76,-366.54 241.73,-375.86 248.64,-376.96"/>
</g>
<!-- Node12 -->
<g id="node12" class="node">
<title>Node12</title>
<g id="a_node12"><a xlink:href="MatrixFixSize_8h.html" target="_top" xlink:title=" ">
<polygon fill="none" stroke="black" points="360.5,-168.5 360.5,-187.5 523.5,-187.5 523.5,-168.5 360.5,-168.5"/>
<text text-anchor="middle" x="442" y="-175.5" font-family="FreeSans.ttf" font-size="10.00">iDynTree/Core/MatrixFixSize.h</text>
</a>
</g>
</g>
<!-- Node11&#45;&gt;Node12 -->
<g id="edge12" class="edge">
<title>Node11&#45;&gt;Node12</title>
<path fill="none" stroke="midnightblue" d="M243.49,-336.12C234.71,-310.52 221.02,-256.66 247,-224 260.47,-207.06 307.01,-195.95 351.24,-189.01"/>
<polygon fill="midnightblue" stroke="midnightblue" points="351.86,-192.46 361.22,-187.51 350.81,-185.54 351.86,-192.46"/>
</g>
<!-- Node12&#45;&gt;Node4 -->
<g id="edge32" class="edge">
<title>Node12&#45;&gt;Node4</title>
<path fill="none" stroke="midnightblue" d="M408.09,-168.44C367.43,-158.18 299.81,-141.12 260.01,-131.08"/>
<polygon fill="midnightblue" stroke="midnightblue" points="260.84,-127.68 250.29,-128.62 259.13,-134.46 260.84,-127.68"/>
</g>
<!-- Node13 -->
<g id="node13" class="node">
<title>Node13</title>
<g id="a_node13"><a xlink:href="Utils_8h.html" target="_top" xlink:title=" ">
<polygon fill="none" stroke="black" points="865.5,-56.5 865.5,-75.5 984.5,-75.5 984.5,-56.5 865.5,-56.5"/>
<text text-anchor="middle" x="925" y="-63.5" font-family="FreeSans.ttf" font-size="10.00">iDynTree/Core/Utils.h</text>
</a>
</g>
</g>
<!-- Node12&#45;&gt;Node13 -->
<g id="edge13" class="edge">
<title>Node12&#45;&gt;Node13</title>
<path fill="none" stroke="midnightblue" d="M459.31,-168.48C477.47,-159.51 506.82,-144.92 532,-132 548.98,-123.29 551.8,-117.74 570,-112 665.73,-81.83 782.01,-71.82 854.78,-68.54"/>
<polygon fill="midnightblue" stroke="midnightblue" points="855.35,-72.02 865.2,-68.1 855.06,-65.02 855.35,-72.02"/>
</g>
<!-- Node15 -->
<g id="node15" class="node">
<title>Node15</title>
<g id="a_node15"><a xlink:href="MatrixView_8h.html" target="_top" xlink:title=" ">
<polygon fill="none" stroke="black" points="371,-112.5 371,-131.5 523,-131.5 523,-112.5 371,-112.5"/>
<text text-anchor="middle" x="447" y="-119.5" font-family="FreeSans.ttf" font-size="10.00">iDynTree/Core/MatrixView.h</text>
</a>
</g>
</g>
<!-- Node12&#45;&gt;Node15 -->
<g id="edge16" class="edge">
<title>Node12&#45;&gt;Node15</title>
<path fill="none" stroke="midnightblue" d="M442.83,-168.08C443.48,-161.01 444.42,-150.86 445.24,-141.99"/>
<polygon fill="midnightblue" stroke="midnightblue" points="448.75,-142.03 446.19,-131.75 441.78,-141.39 448.75,-142.03"/>
</g>
<!-- Node16 -->
<g id="node16" class="node">
<title>Node16</title>
<g id="a_node16"><a xlink:title=" ">
<polygon fill="none" stroke="#bfbfbf" points="321,-0.5 321,-19.5 373,-19.5 373,-0.5 321,-0.5"/>
<text text-anchor="middle" x="347" y="-7.5" font-family="FreeSans.ttf" font-size="10.00">cassert</text>
</a>
</g>
</g>
<!-- Node12&#45;&gt;Node16 -->
<g id="edge30" class="edge">
<title>Node12&#45;&gt;Node16</title>
<path fill="none" stroke="midnightblue" d="M386.09,-168.46C364.53,-162.14 341.98,-151.14 329,-132 307.63,-100.48 325.02,-53.76 337.36,-28.59"/>
<polygon fill="midnightblue" stroke="midnightblue" points="340.58,-30 342.06,-19.51 334.36,-26.78 340.58,-30"/>
</g>
<!-- Node25 -->
<g id="node25" class="node">
<title>Node25</title>
<g id="a_node25"><a xlink:title=" ">
<polygon fill="none" stroke="#bfbfbf" points="657,-112.5 657,-131.5 707,-131.5 707,-112.5 657,-112.5"/>
<text text-anchor="middle" x="682" y="-119.5" font-family="FreeSans.ttf" font-size="10.00">cstring</text>
</a>
</g>
</g>
<!-- Node12&#45;&gt;Node25 -->
<g id="edge31" class="edge">
<title>Node12&#45;&gt;Node25</title>
<path fill="none" stroke="midnightblue" d="M483.55,-168.48C523.13,-160.24 584.6,-147.12 646.8,-132.21"/>
<polygon fill="midnightblue" stroke="midnightblue" points="647.88,-135.55 656.78,-129.81 646.24,-128.75 647.88,-135.55"/>
</g>
<!-- Node26 -->
<g id="node26" class="node">
<title>Node26</title>
<g id="a_node26"><a xlink:title=" ">
<polygon fill="none" stroke="#bfbfbf" points="579,-112.5 579,-131.5 639,-131.5 639,-112.5 579,-112.5"/>
<text text-anchor="middle" x="609" y="-119.5" font-family="FreeSans.ttf" font-size="10.00">iostream</text>
</a>
</g>
</g>
<!-- Node12&#45;&gt;Node26 -->
<g id="edge33" class="edge">
<title>Node12&#45;&gt;Node26</title>
<path fill="none" stroke="midnightblue" d="M468.46,-168.44C496.68,-159.32 541.54,-144.81 572.97,-134.65"/>
<polygon fill="midnightblue" stroke="midnightblue" points="574.22,-137.92 582.66,-131.52 572.07,-131.26 574.22,-137.92"/>
</g>
<!-- Node27 -->
<g id="node27" class="node">
<title>Node27</title>
<g id="a_node27"><a xlink:title=" ">
<polygon fill="none" stroke="#bfbfbf" points="725,-112.5 725,-131.5 781,-131.5 781,-112.5 725,-112.5"/>
<text text-anchor="middle" x="753" y="-119.5" font-family="FreeSans.ttf" font-size="10.00">sstream</text>
</a>
</g>
</g>
<!-- Node12&#45;&gt;Node27 -->
<g id="edge34" class="edge">
<title>Node12&#45;&gt;Node27</title>
<path fill="none" stroke="midnightblue" d="M502.1,-168.47C555.49,-160.59 635.86,-147.98 714.67,-132.15"/>
<polygon fill="midnightblue" stroke="midnightblue" points="715.66,-135.52 724.77,-130.1 714.27,-128.66 715.66,-135.52"/>
</g>
<!-- Node13&#45;&gt;Node3 -->
<g id="edge14" class="edge">
<title>Node13&#45;&gt;Node3</title>
<path fill="none" stroke="midnightblue" d="M944.81,-56.44C965.29,-47.6 997.48,-33.69 1020.86,-23.59"/>
<polygon fill="midnightblue" stroke="midnightblue" points="1022.49,-26.7 1030.29,-19.52 1019.72,-20.27 1022.49,-26.7"/>
</g>
<!-- Node14 -->
<g id="node14" class="node">
<title>Node14</title>
<g id="a_node14"><a xlink:title=" ">
<polygon fill="none" stroke="#bfbfbf" points="908,-0.5 908,-19.5 988,-19.5 988,-0.5 908,-0.5"/>
<text text-anchor="middle" x="948" y="-7.5" font-family="FreeSans.ttf" font-size="10.00">CoreExport.h</text>
</a>
</g>
</g>
<!-- Node13&#45;&gt;Node14 -->
<g id="edge15" class="edge">
<title>Node13&#45;&gt;Node14</title>
<path fill="none" stroke="midnightblue" d="M928.8,-56.08C931.91,-48.77 936.42,-38.18 940.29,-29.1"/>
<polygon fill="midnightblue" stroke="midnightblue" points="943.57,-30.32 944.27,-19.75 937.13,-27.58 943.57,-30.32"/>
</g>
<!-- Node15&#45;&gt;Node13 -->
<g id="edge29" class="edge">
<title>Node15&#45;&gt;Node13</title>
<path fill="none" stroke="midnightblue" d="M522.48,-112.47C613.92,-102.14 766.73,-84.88 855.44,-74.86"/>
<polygon fill="midnightblue" stroke="midnightblue" points="855.86,-78.33 865.4,-73.73 855.07,-71.38 855.86,-78.33"/>
</g>
<!-- Node15&#45;&gt;Node16 -->
<g id="edge17" class="edge">
<title>Node15&#45;&gt;Node16</title>
<path fill="none" stroke="midnightblue" d="M439.15,-112.37C422.43,-93.97 383.06,-50.67 361.59,-27.05"/>
<polygon fill="midnightblue" stroke="midnightblue" points="364.13,-24.64 354.81,-19.59 358.95,-29.35 364.13,-24.64"/>
</g>
<!-- Node17 -->
<g id="node17" class="node">
<title>Node17</title>
<g id="a_node17"><a xlink:title=" ">
<polygon fill="none" stroke="#bfbfbf" points="397.5,-0.5 397.5,-19.5 466.5,-19.5 466.5,-0.5 397.5,-0.5"/>
<text text-anchor="middle" x="432" y="-7.5" font-family="FreeSans.ttf" font-size="10.00">type_traits</text>
</a>
</g>
</g>
<!-- Node15&#45;&gt;Node17 -->
<g id="edge18" class="edge">
<title>Node15&#45;&gt;Node17</title>
<path fill="none" stroke="midnightblue" d="M445.82,-112.37C443.4,-94.62 437.82,-53.67 434.54,-29.6"/>
<polygon fill="midnightblue" stroke="midnightblue" points="437.99,-29.03 433.17,-19.59 431.05,-29.97 437.99,-29.03"/>
</g>
<!-- Node18 -->
<g id="node18" class="node">
<title>Node18</title>
<g id="a_node18"><a xlink:href="Span_8h.html" target="_top" xlink:title=" ">
<polygon fill="none" stroke="black" points="592.5,-56.5 592.5,-75.5 713.5,-75.5 713.5,-56.5 592.5,-56.5"/>
<text text-anchor="middle" x="653" y="-63.5" font-family="FreeSans.ttf" font-size="10.00">iDynTree/Core/Span.h</text>
</a>
</g>
</g>
<!-- Node15&#45;&gt;Node18 -->
<g id="edge19" class="edge">
<title>Node15&#45;&gt;Node18</title>
<path fill="none" stroke="midnightblue" d="M479.64,-112.44C515.05,-103.16 571.71,-88.31 610.55,-78.13"/>
<polygon fill="midnightblue" stroke="midnightblue" points="611.73,-81.44 620.51,-75.52 609.95,-74.67 611.73,-81.44"/>
</g>
<!-- Node18&#45;&gt;Node3 -->
<g id="edge23" class="edge">
<title>Node18&#45;&gt;Node3</title>
<path fill="none" stroke="midnightblue" d="M713.68,-57.77C782.49,-49.41 897.98,-34.88 997,-20 1002.23,-19.21 1007.74,-18.34 1013.16,-17.44"/>
<polygon fill="midnightblue" stroke="midnightblue" points="1014.06,-20.84 1023.34,-15.73 1012.9,-13.94 1014.06,-20.84"/>
</g>
<!-- Node18&#45;&gt;Node16 -->
<g id="edge20" class="edge">
<title>Node18&#45;&gt;Node16</title>
<path fill="none" stroke="midnightblue" d="M599.03,-56.49C545.59,-47.89 461.48,-33.94 389,-20 387.08,-19.63 385.11,-19.24 383.12,-18.84"/>
<polygon fill="midnightblue" stroke="midnightblue" points="383.68,-15.38 373.18,-16.79 382.26,-22.24 383.68,-15.38"/>
</g>
<!-- Node18&#45;&gt;Node17 -->
<g id="edge27" class="edge">
<title>Node18&#45;&gt;Node17</title>
<path fill="none" stroke="midnightblue" d="M617.98,-56.44C579.75,-47.1 518.43,-32.12 476.74,-21.93"/>
<polygon fill="midnightblue" stroke="midnightblue" points="477.4,-18.49 466.85,-19.52 475.74,-25.29 477.4,-18.49"/>
</g>
<!-- Node19 -->
<g id="node19" class="node">
<title>Node19</title>
<g id="a_node19"><a xlink:title=" ">
<polygon fill="none" stroke="#bfbfbf" points="694,-0.5 694,-19.5 758,-19.5 758,-0.5 694,-0.5"/>
<text text-anchor="middle" x="726" y="-7.5" font-family="FreeSans.ttf" font-size="10.00">algorithm</text>
</a>
</g>
</g>
<!-- Node18&#45;&gt;Node19 -->
<g id="edge21" class="edge">
<title>Node18&#45;&gt;Node19</title>
<path fill="none" stroke="midnightblue" d="M664.73,-56.32C675.84,-48.11 692.74,-35.6 705.98,-25.81"/>
<polygon fill="midnightblue" stroke="midnightblue" points="708.1,-28.59 714.06,-19.83 703.94,-22.97 708.1,-28.59"/>
</g>
<!-- Node20 -->
<g id="node20" class="node">
<title>Node20</title>
<g id="a_node20"><a xlink:title=" ">
<polygon fill="none" stroke="#bfbfbf" points="776,-0.5 776,-19.5 818,-19.5 818,-0.5 776,-0.5"/>
<text text-anchor="middle" x="797" y="-7.5" font-family="FreeSans.ttf" font-size="10.00">array</text>
</a>
</g>
</g>
<!-- Node18&#45;&gt;Node20 -->
<g id="edge22" class="edge">
<title>Node18&#45;&gt;Node20</title>
<path fill="none" stroke="midnightblue" d="M675.82,-56.44C700.26,-47.28 739.17,-32.68 766.29,-22.52"/>
<polygon fill="midnightblue" stroke="midnightblue" points="767.56,-25.78 775.7,-18.99 765.11,-19.22 767.56,-25.78"/>
</g>
<!-- Node21 -->
<g id="node21" class="node">
<title>Node21</title>
<g id="a_node21"><a xlink:title=" ">
<polygon fill="none" stroke="#bfbfbf" points="836.5,-0.5 836.5,-19.5 889.5,-19.5 889.5,-0.5 836.5,-0.5"/>
<text text-anchor="middle" x="863" y="-7.5" font-family="FreeSans.ttf" font-size="10.00">iterator</text>
</a>
</g>
</g>
<!-- Node18&#45;&gt;Node21 -->
<g id="edge24" class="edge">
<title>Node18&#45;&gt;Node21</title>
<path fill="none" stroke="midnightblue" d="M686.28,-56.44C724.47,-46.62 786.92,-30.56 826.44,-20.4"/>
<polygon fill="midnightblue" stroke="midnightblue" points="827.4,-23.77 836.21,-17.89 825.65,-16.99 827.4,-23.77"/>
</g>
<!-- Node22 -->
<g id="node22" class="node">
<title>Node22</title>
<g id="a_node22"><a xlink:title=" ">
<polygon fill="none" stroke="#bfbfbf" points="485,-0.5 485,-19.5 529,-19.5 529,-0.5 485,-0.5"/>
<text text-anchor="middle" x="507" y="-7.5" font-family="FreeSans.ttf" font-size="10.00">limits</text>
</a>
</g>
</g>
<!-- Node18&#45;&gt;Node22 -->
<g id="edge25" class="edge">
<title>Node18&#45;&gt;Node22</title>
<path fill="none" stroke="midnightblue" d="M629.87,-56.44C605.23,-47.33 566.08,-32.85 538.61,-22.69"/>
<polygon fill="midnightblue" stroke="midnightblue" points="539.66,-19.35 529.07,-19.16 537.24,-25.91 539.66,-19.35"/>
</g>
<!-- Node23 -->
<g id="node23" class="node">
<title>Node23</title>
<g id="a_node23"><a xlink:title=" ">
<polygon fill="none" stroke="#bfbfbf" points="547.5,-0.5 547.5,-19.5 612.5,-19.5 612.5,-0.5 547.5,-0.5"/>
<text text-anchor="middle" x="580" y="-7.5" font-family="FreeSans.ttf" font-size="10.00">stdexcept</text>
</a>
</g>
</g>
<!-- Node18&#45;&gt;Node23 -->
<g id="edge26" class="edge">
<title>Node18&#45;&gt;Node23</title>
<path fill="none" stroke="midnightblue" d="M641.27,-56.32C630.16,-48.11 613.26,-35.6 600.02,-25.81"/>
<polygon fill="midnightblue" stroke="midnightblue" points="602.06,-22.97 591.94,-19.83 597.9,-28.59 602.06,-22.97"/>
</g>
<!-- Node24 -->
<g id="node24" class="node">
<title>Node24</title>
<g id="a_node24"><a xlink:title=" ">
<polygon fill="none" stroke="#bfbfbf" points="630.5,-0.5 630.5,-19.5 675.5,-19.5 675.5,-0.5 630.5,-0.5"/>
<text text-anchor="middle" x="653" y="-7.5" font-family="FreeSans.ttf" font-size="10.00">utility</text>
</a>
</g>
</g>
<!-- Node18&#45;&gt;Node24 -->
<g id="edge28" class="edge">
<title>Node18&#45;&gt;Node24</title>
<path fill="none" stroke="midnightblue" d="M653,-56.08C653,-49.01 653,-38.86 653,-29.99"/>
<polygon fill="midnightblue" stroke="midnightblue" points="656.5,-29.75 653,-19.75 649.5,-29.75 656.5,-29.75"/>
</g>
<!-- Node28&#45;&gt;Node3 -->
<g id="edge41" class="edge">
<title>Node28&#45;&gt;Node3</title>
<path fill="none" stroke="midnightblue" d="M824.31,-168.5C861.84,-153.53 938.88,-119.84 994,-76 1011.4,-62.16 1027.55,-42.35 1037.99,-28.25"/>
<polygon fill="midnightblue" stroke="midnightblue" points="1040.99,-30.08 1043.99,-19.92 1035.3,-26 1040.99,-30.08"/>
</g>
<!-- Node28&#45;&gt;Node4 -->
<g id="edge38" class="edge">
<title>Node28&#45;&gt;Node4</title>
<path fill="none" stroke="midnightblue" d="M720.98,-169.38C592.52,-157.29 347.72,-134.26 260.15,-126.02"/>
<polygon fill="midnightblue" stroke="midnightblue" points="260.31,-122.52 250.03,-125.07 259.66,-129.49 260.31,-122.52"/>
</g>
<!-- Node28&#45;&gt;Node13 -->
<g id="edge36" class="edge">
<title>Node28&#45;&gt;Node13</title>
<path fill="none" stroke="midnightblue" d="M811.65,-168.37C832.4,-149.81 881.49,-105.91 907.74,-82.44"/>
<polygon fill="midnightblue" stroke="midnightblue" points="910.27,-84.87 915.39,-75.59 905.61,-79.65 910.27,-84.87"/>
</g>
<!-- Node28&#45;&gt;Node16 -->
<g id="edge40" class="edge">
<title>Node28&#45;&gt;Node16</title>
<path fill="none" stroke="midnightblue" d="M720.7,-174.08C600.57,-168.98 387.07,-156.54 362,-132 334.73,-105.31 338.43,-56.22 343,-29.5"/>
<polygon fill="midnightblue" stroke="midnightblue" points="346.46,-30.04 344.93,-19.55 339.59,-28.71 346.46,-30.04"/>
</g>
<!-- Node28&#45;&gt;Node18 -->
<g id="edge37" class="edge">
<title>Node28&#45;&gt;Node18</title>
<path fill="none" stroke="midnightblue" d="M802.98,-168.24C804.01,-154.52 803.89,-127.9 790,-112 773.14,-92.69 747.85,-81.63 723.57,-75.31"/>
<polygon fill="midnightblue" stroke="midnightblue" points="724.15,-71.85 713.61,-72.96 722.54,-78.66 724.15,-71.85"/>
</g>
<!-- Node28&#45;&gt;Node25 -->
<g id="edge42" class="edge">
<title>Node28&#45;&gt;Node25</title>
<path fill="none" stroke="midnightblue" d="M782.99,-168.44C763.41,-159.64 732.69,-145.81 710.27,-135.72"/>
<polygon fill="midnightblue" stroke="midnightblue" points="711.48,-132.43 700.93,-131.52 708.61,-138.81 711.48,-132.43"/>
</g>
<!-- Node28&#45;&gt;Node27 -->
<g id="edge39" class="edge">
<title>Node28&#45;&gt;Node27</title>
<path fill="none" stroke="midnightblue" d="M793.91,-168.08C786.84,-160.3 776.41,-148.8 767.85,-139.37"/>
<polygon fill="midnightblue" stroke="midnightblue" points="770.25,-136.8 760.94,-131.75 765.07,-141.51 770.25,-136.8"/>
</g>
<!-- Node30 -->
<g id="node30" class="node">
<title>Node30</title>
<g id="a_node30"><a xlink:href="SpatialMotionVector_8h.html" target="_top" xlink:title=" ">
<polygon fill="none" stroke="black" points="834.5,-459.5 834.5,-489.5 989.5,-489.5 989.5,-459.5 834.5,-459.5"/>
<text text-anchor="start" x="842.5" y="-477.5" font-family="FreeSans.ttf" font-size="10.00">iDynTree/Core/SpatialMotion</text>
<text text-anchor="middle" x="912" y="-466.5" font-family="FreeSans.ttf" font-size="10.00">Vector.h</text>
</a>
</g>
</g>
<!-- Node29&#45;&gt;Node30 -->
<g id="edge44" class="edge">
<title>Node29&#45;&gt;Node30</title>
<path fill="none" stroke="midnightblue" d="M933.63,-531.73C930.41,-523.37 925.42,-510.4 921.05,-499.02"/>
<polygon fill="midnightblue" stroke="midnightblue" points="924.28,-497.67 917.42,-489.59 917.74,-500.18 924.28,-497.67"/>
</g>
<!-- Node30&#45;&gt;Node28 -->
<g id="edge45" class="edge">
<title>Node30&#45;&gt;Node28</title>
<path fill="none" stroke="midnightblue" d="M919.51,-459.42C930.58,-437.31 950,-392.79 950,-352.5 950,-352.5 950,-352.5 950,-289 950,-258.2 947.84,-245.71 926,-224 909.38,-207.48 886.24,-196.97 864.44,-190.31"/>
<polygon fill="midnightblue" stroke="midnightblue" points="865.12,-186.87 854.55,-187.52 863.22,-193.61 865.12,-186.87"/>
</g>
<!-- Node31 -->
<g id="node31" class="node">
<title>Node31</title>
<g id="a_node31"><a xlink:href="GeomVector3_8h.html" target="_top" xlink:title=" ">
<polygon fill="none" stroke="black" points="720.5,-224.5 720.5,-243.5 883.5,-243.5 883.5,-224.5 720.5,-224.5"/>
<text text-anchor="middle" x="802" y="-231.5" font-family="FreeSans.ttf" font-size="10.00">iDynTree/Core/GeomVector3.h</text>
</a>
</g>
</g>
<!-- Node30&#45;&gt;Node31 -->
<g id="edge46" class="edge">
<title>Node30&#45;&gt;Node31</title>
<path fill="none" stroke="midnightblue" d="M909.97,-459.34C904.67,-425.89 888.08,-340.23 850,-280 842.73,-268.5 831.83,-257.96 822.26,-249.98"/>
<polygon fill="midnightblue" stroke="midnightblue" points="824.32,-247.14 814.31,-243.66 819.96,-252.62 824.32,-247.14"/>
</g>
<!-- Node32 -->
<g id="node32" class="node">
<title>Node32</title>
<g id="a_node32"><a xlink:href="SpatialVector_8h.html" target="_top" xlink:title=" ">
<polygon fill="none" stroke="black" points="573.5,-403.5 573.5,-422.5 734.5,-422.5 734.5,-403.5 573.5,-403.5"/>
<text text-anchor="middle" x="654" y="-410.5" font-family="FreeSans.ttf" font-size="10.00">iDynTree/Core/SpatialVector.h</text>
</a>
</g>
</g>
<!-- Node30&#45;&gt;Node32 -->
<g id="edge48" class="edge">
<title>Node30&#45;&gt;Node32</title>
<path fill="none" stroke="midnightblue" d="M851.18,-459.47C805.22,-448.87 743.04,-434.53 700.88,-424.81"/>
<polygon fill="midnightblue" stroke="midnightblue" points="701.42,-421.34 690.88,-422.51 699.84,-428.16 701.42,-421.34"/>
</g>
<!-- Node31&#45;&gt;Node28 -->
<g id="edge47" class="edge">
<title>Node31&#45;&gt;Node28</title>
<path fill="none" stroke="midnightblue" d="M802,-224.08C802,-217.01 802,-206.86 802,-197.99"/>
<polygon fill="midnightblue" stroke="midnightblue" points="805.5,-197.75 802,-187.75 798.5,-197.75 805.5,-197.75"/>
</g>
<!-- Node32&#45;&gt;Node13 -->
<g id="edge62" class="edge">
<title>Node32&#45;&gt;Node13</title>
<path fill="none" stroke="midnightblue" d="M676.19,-403.37C724.38,-383.39 838.66,-329.06 893,-244 925.03,-193.86 927.11,-120.31 926.08,-85.97"/>
<polygon fill="midnightblue" stroke="midnightblue" points="929.56,-85.4 925.63,-75.56 922.56,-85.7 929.56,-85.4"/>
</g>
<!-- Node32&#45;&gt;Node26 -->
<g id="edge64" class="edge">
<title>Node32&#45;&gt;Node26</title>
<path fill="none" stroke="midnightblue" d="M649.34,-403.48C639.19,-384.12 616,-335.04 616,-291 616,-291 616,-291 616,-233 616,-200.88 612.99,-163.6 610.92,-141.73"/>
<polygon fill="midnightblue" stroke="midnightblue" points="614.38,-141.15 609.92,-131.55 607.41,-141.84 614.38,-141.15"/>
</g>
<!-- Node32&#45;&gt;Node27 -->
<g id="edge65" class="edge">
<title>Node32&#45;&gt;Node27</title>
<path fill="none" stroke="midnightblue" d="M654,-403.49C654,-383.74 654,-333.22 654,-291 654,-291 654,-291 654,-233 654,-189.18 697.94,-154.93 727.27,-136.94"/>
<polygon fill="midnightblue" stroke="midnightblue" points="729.36,-139.77 736.21,-131.68 725.81,-133.74 729.36,-139.77"/>
</g>
<!-- Node32&#45;&gt;Node31 -->
<g id="edge63" class="edge">
<title>Node32&#45;&gt;Node31</title>
<path fill="none" stroke="midnightblue" d="M661.14,-403.46C684.23,-375.85 757.2,-288.58 788.03,-251.71"/>
<polygon fill="midnightblue" stroke="midnightblue" points="790.86,-253.79 794.58,-243.87 785.48,-249.29 790.86,-253.79"/>
</g>
<!-- Node33 -->
<g id="node33" class="node">
<title>Node33</title>
<g id="a_node33"><a xlink:href="Position_8h.html" target="_top" xlink:title=" ">
<polygon fill="none" stroke="black" points="362.5,-342 362.5,-361 427.5,-361 427.5,-342 362.5,-342"/>
<text text-anchor="middle" x="395" y="-349" font-family="FreeSans.ttf" font-size="10.00">Position.h</text>
</a>
</g>
</g>
<!-- Node32&#45;&gt;Node33 -->
<g id="edge49" class="edge">
<title>Node32&#45;&gt;Node33</title>
<path fill="none" stroke="midnightblue" d="M616.89,-403.48C569.39,-392.56 487.28,-373.7 437.37,-362.23"/>
<polygon fill="midnightblue" stroke="midnightblue" points="438.07,-358.8 427.54,-359.97 436.5,-365.63 438.07,-358.8"/>
</g>
<!-- Node35 -->
<g id="node35" class="node">
<title>Node35</title>
<g id="a_node35"><a xlink:href="Rotation_8h.html" target="_top" xlink:title=" ">
<polygon fill="none" stroke="black" points="423,-280.5 423,-299.5 561,-299.5 561,-280.5 423,-280.5"/>
<text text-anchor="middle" x="492" y="-287.5" font-family="FreeSans.ttf" font-size="10.00">iDynTree/Core/Rotation.h</text>
</a>
</g>
</g>
<!-- Node32&#45;&gt;Node35 -->
<g id="edge61" class="edge">
<title>Node32&#45;&gt;Node35</title>
<path fill="none" stroke="midnightblue" d="M642.61,-403.49C615.37,-383.15 546.19,-331.48 511.9,-305.86"/>
<polygon fill="midnightblue" stroke="midnightblue" points="513.7,-302.84 503.6,-299.66 509.51,-308.45 513.7,-302.84"/>
</g>
<!-- Node33&#45;&gt;Node4 -->
<g id="edge60" class="edge">
<title>Node33&#45;&gt;Node4</title>
<path fill="none" stroke="midnightblue" d="M370.23,-341.9C333.27,-327.69 264.38,-295.66 230,-244 209.32,-212.92 216.38,-166.68 222.64,-141.31"/>
<polygon fill="midnightblue" stroke="midnightblue" points="226.05,-142.1 225.27,-131.53 219.3,-140.28 226.05,-142.1"/>
</g>
<!-- Node34 -->
<g id="node34" class="node">
<title>Node34</title>
<g id="a_node34"><a xlink:href="PositionRaw_8h.html" target="_top" xlink:title=" ">
<polygon fill="none" stroke="black" points="432,-224.5 432,-243.5 588,-243.5 588,-224.5 432,-224.5"/>
<text text-anchor="middle" x="510" y="-231.5" font-family="FreeSans.ttf" font-size="10.00">iDynTree/Core/PositionRaw.h</text>
</a>
</g>
</g>
<!-- Node33&#45;&gt;Node34 -->
<g id="edge50" class="edge">
<title>Node33&#45;&gt;Node34</title>
<path fill="none" stroke="midnightblue" d="M395.09,-341.62C395.68,-327.1 398.85,-298.07 414,-280 426.97,-264.53 446.45,-254.06 464.48,-247.14"/>
<polygon fill="midnightblue" stroke="midnightblue" points="466.05,-250.29 474.3,-243.65 463.7,-243.7 466.05,-250.29"/>
</g>
<!-- Node33&#45;&gt;Node35 -->
<g id="edge53" class="edge">
<title>Node33&#45;&gt;Node35</title>
<path fill="none" stroke="midnightblue" d="M408.9,-341.98C424.67,-332.3 450.64,-316.37 469.35,-304.89"/>
<polygon fill="midnightblue" stroke="midnightblue" points="471.43,-307.72 478.13,-299.51 467.77,-301.75 471.43,-307.72"/>
</g>
<!-- Node34&#45;&gt;Node4 -->
<g id="edge52" class="edge">
<title>Node34&#45;&gt;Node4</title>
<path fill="none" stroke="midnightblue" d="M471.92,-224.49C439.46,-216.68 391.86,-203.93 352,-188 315.34,-173.35 275.28,-151.12 250.89,-136.83"/>
<polygon fill="midnightblue" stroke="midnightblue" points="252.44,-133.68 242.05,-131.59 248.87,-139.7 252.44,-133.68"/>
</g>
<!-- Node34&#45;&gt;Node28 -->
<g id="edge51" class="edge">
<title>Node34&#45;&gt;Node28</title>
<path fill="none" stroke="midnightblue" d="M556.27,-224.44C607.74,-214.92 690.89,-199.55 746,-189.36"/>
<polygon fill="midnightblue" stroke="midnightblue" points="746.75,-192.78 755.95,-187.52 745.48,-185.89 746.75,-192.78"/>
</g>
<!-- Node35&#45;&gt;Node4 -->
<g id="edge54" class="edge">
<title>Node35&#45;&gt;Node4</title>
<path fill="none" stroke="midnightblue" d="M422.86,-285.07C359.14,-279.95 270.92,-268.55 247,-244 220.38,-216.68 221.74,-168.24 224.93,-141.69"/>
<polygon fill="midnightblue" stroke="midnightblue" points="228.4,-142.17 226.34,-131.78 221.47,-141.19 228.4,-142.17"/>
</g>
<!-- Node35&#45;&gt;Node28 -->
<g id="edge59" class="edge">
<title>Node35&#45;&gt;Node28</title>
<path fill="none" stroke="midnightblue" d="M516.07,-280.46C570.89,-261.01 705.18,-213.36 768.25,-190.98"/>
<polygon fill="midnightblue" stroke="midnightblue" points="769.48,-194.25 777.73,-187.61 767.14,-187.66 769.48,-194.25"/>
</g>
<!-- Node35&#45;&gt;Node31 -->
<g id="edge55" class="edge">
<title>Node35&#45;&gt;Node31</title>
<path fill="none" stroke="midnightblue" d="M541.12,-280.44C595.88,-270.9 684.41,-255.48 742.91,-245.29"/>
<polygon fill="midnightblue" stroke="midnightblue" points="743.86,-248.68 753.11,-243.52 742.66,-241.78 743.86,-248.68"/>
</g>
<!-- Node36 -->
<g id="node36" class="node">
<title>Node36</title>
<g id="a_node36"><a xlink:href="RotationRaw_8h.html" target="_top" xlink:title=" ">
<polygon fill="none" stroke="black" points="256,-224.5 256,-243.5 414,-243.5 414,-224.5 256,-224.5"/>
<text text-anchor="middle" x="335" y="-231.5" font-family="FreeSans.ttf" font-size="10.00">iDynTree/Core/RotationRaw.h</text>
</a>
</g>
</g>
<!-- Node35&#45;&gt;Node36 -->
<g id="edge56" class="edge">
<title>Node35&#45;&gt;Node36</title>
<path fill="none" stroke="midnightblue" d="M467.12,-280.44C440.71,-271.36 398.78,-256.94 369.26,-246.78"/>
<polygon fill="midnightblue" stroke="midnightblue" points="370.36,-243.46 359.76,-243.52 368.08,-250.08 370.36,-243.46"/>
</g>
<!-- Node36&#45;&gt;Node4 -->
<g id="edge58" class="edge">
<title>Node36&#45;&gt;Node4</title>
<path fill="none" stroke="midnightblue" d="M326.6,-224.37C308.71,-205.97 266.59,-162.67 243.61,-139.05"/>
<polygon fill="midnightblue" stroke="midnightblue" points="245.84,-136.32 236.36,-131.59 240.82,-141.2 245.84,-136.32"/>
</g>
<!-- Node36&#45;&gt;Node12 -->
<g id="edge57" class="edge">
<title>Node36&#45;&gt;Node12</title>
<path fill="none" stroke="midnightblue" d="M352.19,-224.32C369.35,-215.66 395.95,-202.24 415.75,-192.25"/>
<polygon fill="midnightblue" stroke="midnightblue" points="417.5,-195.28 424.85,-187.65 414.35,-189.04 417.5,-195.28"/>
</g>
<!-- Node38 -->
<g id="node38" class="node">
<title>Node38</title>
<g id="a_node38"><a xlink:href="SpatialForceVector_8h.html" target="_top" xlink:title=" ">
<polygon fill="none" stroke="black" points="580,-459.5 580,-489.5 728,-489.5 728,-459.5 580,-459.5"/>
<text text-anchor="start" x="588" y="-477.5" font-family="FreeSans.ttf" font-size="10.00">iDynTree/Core/SpatialForce</text>
<text text-anchor="middle" x="654" y="-466.5" font-family="FreeSans.ttf" font-size="10.00">Vector.h</text>
</a>
</g>
</g>
<!-- Node37&#45;&gt;Node38 -->
<g id="edge67" class="edge">
<title>Node37&#45;&gt;Node38</title>
<path fill="none" stroke="midnightblue" d="M605.55,-531.73C613.12,-522.95 625.07,-509.08 635.21,-497.31"/>
<polygon fill="midnightblue" stroke="midnightblue" points="637.99,-499.45 641.86,-489.59 632.68,-494.88 637.99,-499.45"/>
</g>
<!-- Node38&#45;&gt;Node28 -->
<g id="edge68" class="edge">
<title>Node38&#45;&gt;Node28</title>
<path fill="none" stroke="midnightblue" d="M697.66,-459.45C719.14,-451.12 744.53,-439.02 764,-423 839.73,-360.7 862.88,-337.32 893,-244 895.73,-235.54 897.69,-231.55 893,-224 883.28,-208.36 866.34,-197.98 849.68,-191.19"/>
<polygon fill="midnightblue" stroke="midnightblue" points="850.56,-187.78 839.97,-187.59 848.13,-194.35 850.56,-187.78"/>
</g>
<!-- Node38&#45;&gt;Node31 -->
<g id="edge69" class="edge">
<title>Node38&#45;&gt;Node31</title>
<path fill="none" stroke="midnightblue" d="M693.14,-459.43C710.9,-451.26 730.83,-439.31 744,-423 785.63,-371.45 797.47,-290.06 800.77,-253.67"/>
<polygon fill="midnightblue" stroke="midnightblue" points="804.27,-253.77 801.56,-243.53 797.29,-253.22 804.27,-253.77"/>
</g>
<!-- Node38&#45;&gt;Node32 -->
<g id="edge70" class="edge">
<title>Node38&#45;&gt;Node32</title>
<path fill="none" stroke="midnightblue" d="M654,-459.4C654,-451.47 654,-441.46 654,-432.86"/>
<polygon fill="midnightblue" stroke="midnightblue" points="657.5,-432.66 654,-422.66 650.5,-432.66 657.5,-432.66"/>
</g>
<!-- Node39&#45;&gt;Node30 -->
<g id="edge72" class="edge">
<title>Node39&#45;&gt;Node30</title>
<path fill="none" stroke="midnightblue" d="M801,-531.87C819.81,-522.31 850.7,-506.63 875.13,-494.22"/>
<polygon fill="midnightblue" stroke="midnightblue" points="876.8,-497.3 884.13,-489.65 873.63,-491.06 876.8,-497.3"/>
</g>
<!-- Node40&#45;&gt;Node38 -->
<g id="edge74" class="edge">
<title>Node40&#45;&gt;Node38</title>
<path fill="none" stroke="midnightblue" d="M450.21,-531.87C486.61,-521.8 547.66,-504.91 593.46,-492.24"/>
<polygon fill="midnightblue" stroke="midnightblue" points="594.58,-495.57 603.28,-489.53 592.71,-488.82 594.58,-495.57"/>
</g>
<!-- Node41&#45;&gt;Node4 -->
<g id="edge80" class="edge">
<title>Node41&#45;&gt;Node4</title>
<path fill="none" stroke="midnightblue" d="M100.29,-403.35C80.64,-384.85 38,-339.16 38,-291 38,-291 38,-291 38,-233 38,-202.2 39.28,-188.79 62,-168 99,-134.16 158.88,-125.35 195.71,-123.3"/>
<polygon fill="midnightblue" stroke="midnightblue" points="196.05,-126.79 205.9,-122.87 195.76,-119.79 196.05,-126.79"/>
</g>
<!-- Node41&#45;&gt;Node12 -->
<g id="edge79" class="edge">
<title>Node41&#45;&gt;Node12</title>
<path fill="none" stroke="midnightblue" d="M112.98,-403.16C123.73,-372.74 163.55,-271.69 233,-224 267.13,-200.57 311.19,-189.01 350.05,-183.43"/>
<polygon fill="midnightblue" stroke="midnightblue" points="350.88,-186.85 360.33,-182.07 349.96,-179.91 350.88,-186.85"/>
</g>
<!-- Node41&#45;&gt;Node33 -->
<g id="edge77" class="edge">
<title>Node41&#45;&gt;Node33</title>
<path fill="none" stroke="midnightblue" d="M151.61,-403.44C195.31,-394.44 266,-379.83 327,-367 335.23,-365.27 344.02,-363.41 352.45,-361.61"/>
<polygon fill="midnightblue" stroke="midnightblue" points="353.44,-364.98 362.49,-359.47 351.98,-358.13 353.44,-364.98"/>
</g>
<!-- Node41&#45;&gt;Node35 -->
<g id="edge78" class="edge">
<title>Node41&#45;&gt;Node35</title>
<path fill="none" stroke="midnightblue" d="M183.24,-408.57C266.27,-403.55 395.48,-391.92 437,-367 459.52,-353.48 475.49,-326.84 484.23,-308.97"/>
<polygon fill="midnightblue" stroke="midnightblue" points="487.42,-310.4 488.43,-299.86 481.07,-307.47 487.42,-310.4"/>
</g>
<!-- Node42&#45;&gt;Node2 -->
<g id="edge87" class="edge">
<title>Node42&#45;&gt;Node2</title>
<path fill="none" stroke="midnightblue" d="M291.03,-649.44C366.98,-639.75 490.56,-623.97 570.3,-613.79"/>
<polygon fill="midnightblue" stroke="midnightblue" points="570.81,-617.25 580.29,-612.52 569.93,-610.31 570.81,-617.25"/>
</g>
<!-- Node42&#45;&gt;Node4 -->
<g id="edge84" class="edge">
<title>Node42&#45;&gt;Node4</title>
<path fill="none" stroke="midnightblue" d="M216.44,-649.1C205.2,-636.1 183.14,-611.47 162,-593 95.03,-534.47 0,-564.44 0,-475.5 0,-475.5 0,-475.5 0,-233 0,-147.21 132.57,-128.29 195.53,-124.15"/>
<polygon fill="midnightblue" stroke="midnightblue" points="195.94,-127.63 205.72,-123.57 195.54,-120.64 195.94,-127.63"/>
</g>
<!-- Node42&#45;&gt;Node41 -->
<g id="edge86" class="edge">
<title>Node42&#45;&gt;Node41</title>
<path fill="none" stroke="midnightblue" d="M222.18,-649.47C218.94,-636.06 211.06,-609.86 196,-593 174.51,-568.95 151.36,-583.51 133,-557 106.72,-519.04 106.31,-461.96 108.17,-432.72"/>
<polygon fill="midnightblue" stroke="midnightblue" points="111.67,-432.91 108.98,-422.66 104.69,-432.35 111.67,-432.91"/>
</g>
<!-- Node42&#45;&gt;Node43 -->
<g id="edge83" class="edge">
<title>Node42&#45;&gt;Node43</title>
<path fill="none" stroke="midnightblue" d="M208.74,-649.32C193.78,-640.82 170.75,-627.73 153.27,-617.8"/>
<polygon fill="midnightblue" stroke="midnightblue" points="154.65,-614.55 144.23,-612.65 151.19,-620.64 154.65,-614.55"/>
</g>
<!-- Node42&#45;&gt;Node44 -->
<g id="edge85" class="edge">
<title>Node42&#45;&gt;Node44</title>
<path fill="none" stroke="midnightblue" d="M241.67,-649.32C259.39,-640.62 286.9,-627.12 307.29,-617.11"/>
<polygon fill="midnightblue" stroke="midnightblue" points="308.94,-620.2 316.37,-612.65 305.85,-613.92 308.94,-620.2"/>
</g>
</g>
</svg>
