<?xml version="1.0" encoding="UTF-8" standalone="no"?>
<!DOCTYPE svg PUBLIC "-//W3C//DTD SVG 1.1//EN"
 "http://www.w3.org/Graphics/SVG/1.1/DTD/svg11.dtd">
<!-- Generated by graphviz version 2.43.0 (0)
 -->
<!-- Title: src Pages: 1 -->
<svg width="546pt" height="508pt"
 viewBox="0.00 0.00 546.00 508.00" xmlns="http://www.w3.org/2000/svg" xmlns:xlink="http://www.w3.org/1999/xlink">
<g id="graph0" class="graph" transform="scale(1 1) rotate(0) translate(4 504)">
<title>src</title>
<g id="clust1" class="cluster">
<title>clusterdir_68267d1309a1af8e8297ef4c3efbcdba</title>
<g id="a_clust1"><a xlink:href="dir_68267d1309a1af8e8297ef4c3efbcdba.html" target="_top">
<polygon fill="#eeeeff" stroke="black" points="8,-8 8,-492 530,-492 530,-8 8,-8"/>
</a>
</g>
</g>
<!-- dir_68267d1309a1af8e8297ef4c3efbcdba -->
<g id="node1" class="node">
<title>dir_68267d1309a1af8e8297ef4c3efbcdba</title>
<text text-anchor="middle" x="419" y="-463.5" font-family="FreeSans.ttf" font-size="10.00">src</text>
</g>
<!-- dir_aebb8dcc11953d78e620bbef0b9e2183 -->
<g id="node2" class="node">
<title>dir_aebb8dcc11953d78e620bbef0b9e2183</title>
<g id="a_node2"><a xlink:href="dir_aebb8dcc11953d78e620bbef0b9e2183.html" target="_top" xlink:title="core">
<polygon fill="white" stroke="red" points="321,-52 267,-52 267,-16 321,-16 321,-52"/>
<text text-anchor="middle" x="294" y="-31.5" font-family="FreeSans.ttf" font-size="10.00">core</text>
</a>
</g>
</g>
<!-- dir_710615f1fcb70e449001c5bcbae9c23a -->
<g id="node3" class="node">
<title>dir_710615f1fcb70e449001c5bcbae9c23a</title>
<g id="a_node3"><a xlink:href="dir_710615f1fcb70e449001c5bcbae9c23a.html" target="_top" xlink:title="estimation">
<polygon fill="white" stroke="red" points="402.5,-340 333.5,-340 333.5,-304 402.5,-304 402.5,-340"/>
<text text-anchor="middle" x="368" y="-319.5" font-family="FreeSans.ttf" font-size="10.00">estimation</text>
</a>
</g>
</g>
<!-- dir_710615f1fcb70e449001c5bcbae9c23a&#45;&gt;dir_aebb8dcc11953d78e620bbef0b9e2183 -->
<g id="edge18" class="edge">
<title>dir_710615f1fcb70e449001c5bcbae9c23a&#45;&gt;dir_aebb8dcc11953d78e620bbef0b9e2183</title>
<path fill="none" stroke="black" d="M372.38,-303.63C379.15,-273.62 389.91,-210.44 375,-160 368.76,-138.9 335.01,-90.6 313.09,-60.6"/>
<polygon fill="black" stroke="black" points="315.73,-58.28 306.99,-52.29 310.09,-62.42 315.73,-58.28"/>
<g id="a_edge18&#45;headlabel"><a xlink:href="dir_000016_000011.html" target="_top" xlink:title="47">
<text text-anchor="middle" x="320.15" y="-56.99" font-family="FreeSans.ttf" font-size="10.00">47</text>
</a>
</g>
</g>
<!-- dir_5dd65160827af56e6353642206b80129 -->
<g id="node7" class="node">
<title>dir_5dd65160827af56e6353642206b80129</title>
<g id="a_node7"><a xlink:href="dir_5dd65160827af56e6353642206b80129.html" target="_top" xlink:title="model">
<polygon fill="white" stroke="red" points="289,-124 235,-124 235,-88 289,-88 289,-124"/>
<text text-anchor="middle" x="262" y="-103.5" font-family="FreeSans.ttf" font-size="10.00">model</text>
</a>
</g>
</g>
<!-- dir_710615f1fcb70e449001c5bcbae9c23a&#45;&gt;dir_5dd65160827af56e6353642206b80129 -->
<g id="edge17" class="edge">
<title>dir_710615f1fcb70e449001c5bcbae9c23a&#45;&gt;dir_5dd65160827af56e6353642206b80129</title>
<path fill="none" stroke="black" d="M358.69,-303.74C345.83,-279.75 322.05,-234.88 303,-196 292.77,-175.12 281.77,-151.16 273.75,-133.37"/>
<polygon fill="black" stroke="black" points="276.91,-131.86 269.62,-124.18 270.52,-134.73 276.91,-131.86"/>
<g id="a_edge17&#45;headlabel"><a xlink:href="dir_000016_000027.html" target="_top" xlink:title="46">
<text text-anchor="middle" x="280.97" y="-131.48" font-family="FreeSans.ttf" font-size="10.00">46</text>
</a>
</g>
</g>
<!-- dir_fb93052291ccda37fd41b6d18f3dfcc9 -->
<g id="node8" class="node">
<title>dir_fb93052291ccda37fd41b6d18f3dfcc9</title>
<g id="a_node8"><a xlink:href="dir_fb93052291ccda37fd41b6d18f3dfcc9.html" target="_top" xlink:title="model_io">
<polygon fill="white" stroke="red" points="275,-268 213,-268 213,-232 275,-232 275,-268"/>
<text text-anchor="middle" x="244" y="-247.5" font-family="FreeSans.ttf" font-size="10.00">model_io</text>
</a>
</g>
</g>
<!-- dir_710615f1fcb70e449001c5bcbae9c23a&#45;&gt;dir_fb93052291ccda37fd41b6d18f3dfcc9 -->
<g id="edge16" class="edge">
<title>dir_710615f1fcb70e449001c5bcbae9c23a&#45;&gt;dir_fb93052291ccda37fd41b6d18f3dfcc9</title>
<path fill="none" stroke="black" d="M337.67,-303.88C321.3,-294.64 300.92,-283.13 283.35,-273.21"/>
<polygon fill="black" stroke="black" points="284.88,-270.06 274.45,-268.19 281.44,-276.15 284.88,-270.06"/>
<g id="a_edge16&#45;headlabel"><a xlink:href="dir_000016_000040.html" target="_top" xlink:title="2">
<text text-anchor="middle" x="289.41" y="-266.85" font-family="FreeSans.ttf" font-size="10.00">2</text>
</a>
</g>
</g>
<!-- dir_7349e89ef19c117195f8e371603e1b1f -->
<g id="node10" class="node">
<title>dir_7349e89ef19c117195f8e371603e1b1f</title>
<g id="a_node10"><a xlink:href="dir_7349e89ef19c117195f8e371603e1b1f.html" target="_top" xlink:title="sensors">
<polygon fill="white" stroke="red" points="366,-196 312,-196 312,-160 366,-160 366,-196"/>
<text text-anchor="middle" x="339" y="-175.5" font-family="FreeSans.ttf" font-size="10.00">sensors</text>
</a>
</g>
</g>
<!-- dir_710615f1fcb70e449001c5bcbae9c23a&#45;&gt;dir_7349e89ef19c117195f8e371603e1b1f -->
<g id="edge15" class="edge">
<title>dir_710615f1fcb70e449001c5bcbae9c23a&#45;&gt;dir_7349e89ef19c117195f8e371603e1b1f</title>
<path fill="none" stroke="black" d="M364.5,-303.87C359.54,-279.56 350.4,-234.82 344.52,-206.01"/>
<polygon fill="black" stroke="black" points="347.94,-205.29 342.51,-196.19 341.08,-206.69 347.94,-205.29"/>
<g id="a_edge15&#45;headlabel"><a xlink:href="dir_000016_000001.html" target="_top" xlink:title="10">
<text text-anchor="middle" x="351.44" y="-205.74" font-family="FreeSans.ttf" font-size="10.00">10</text>
</a>
</g>
</g>
<!-- dir_355314d08763ddbf0e6d36531a48f7ae -->
<g id="node4" class="node">
<title>dir_355314d08763ddbf0e6d36531a48f7ae</title>
<g id="a_node4"><a xlink:href="dir_355314d08763ddbf0e6d36531a48f7ae.html" target="_top" xlink:title="high&#45;level">
<polygon fill="white" stroke="red" points="234.5,-340 169.5,-340 169.5,-304 234.5,-304 234.5,-340"/>
<text text-anchor="middle" x="202" y="-319.5" font-family="FreeSans.ttf" font-size="10.00">high&#45;level</text>
</a>
</g>
</g>
<!-- dir_355314d08763ddbf0e6d36531a48f7ae&#45;&gt;dir_aebb8dcc11953d78e620bbef0b9e2183 -->
<g id="edge11" class="edge">
<title>dir_355314d08763ddbf0e6d36531a48f7ae&#45;&gt;dir_aebb8dcc11953d78e620bbef0b9e2183</title>
<path fill="none" stroke="black" d="M197.45,-303.84C187.62,-262.87 168.64,-157.59 212,-88 222.67,-70.88 241.13,-58.23 257.84,-49.59"/>
<polygon fill="black" stroke="black" points="259.41,-52.71 266.88,-45.2 256.35,-46.42 259.41,-52.71"/>
<g id="a_edge11&#45;headlabel"><a xlink:href="dir_000053_000011.html" target="_top" xlink:title="16">
<text text-anchor="middle" x="257.42" y="-54.34" font-family="FreeSans.ttf" font-size="10.00">16</text>
</a>
</g>
</g>
<!-- dir_355314d08763ddbf0e6d36531a48f7ae&#45;&gt;dir_5dd65160827af56e6353642206b80129 -->
<g id="edge10" class="edge">
<title>dir_355314d08763ddbf0e6d36531a48f7ae&#45;&gt;dir_5dd65160827af56e6353642206b80129</title>
<path fill="none" stroke="black" d="M200.32,-303.68C199.04,-285.55 198.33,-256.39 204,-232 212.41,-195.84 231.93,-157.59 246.01,-133.07"/>
<polygon fill="black" stroke="black" points="249.07,-134.77 251.1,-124.38 243.03,-131.23 249.07,-134.77"/>
<g id="a_edge10&#45;headlabel"><a xlink:href="dir_000053_000027.html" target="_top" xlink:title="11">
<text text-anchor="middle" x="249.7" y="-136.81" font-family="FreeSans.ttf" font-size="10.00">11</text>
</a>
</g>
</g>
<!-- dir_355314d08763ddbf0e6d36531a48f7ae&#45;&gt;dir_fb93052291ccda37fd41b6d18f3dfcc9 -->
<g id="edge9" class="edge">
<title>dir_355314d08763ddbf0e6d36531a48f7ae&#45;&gt;dir_fb93052291ccda37fd41b6d18f3dfcc9</title>
<path fill="none" stroke="black" d="M212.38,-303.7C217.26,-295.56 223.19,-285.69 228.58,-276.7"/>
<polygon fill="black" stroke="black" points="231.59,-278.48 233.74,-268.1 225.59,-274.88 231.59,-278.48"/>
<g id="a_edge9&#45;headlabel"><a xlink:href="dir_000053_000040.html" target="_top" xlink:title="1">
<text text-anchor="middle" x="232.18" y="-280.52" font-family="FreeSans.ttf" font-size="10.00">1</text>
</a>
</g>
</g>
<!-- dir_2a3c79a8659119928eb3cfb9c5637ece -->
<g id="node5" class="node">
<title>dir_2a3c79a8659119928eb3cfb9c5637ece</title>
<g id="a_node5"><a xlink:href="dir_2a3c79a8659119928eb3cfb9c5637ece.html" target="_top" xlink:title="icub">
<polygon fill="white" stroke="red" points="395,-412 341,-412 341,-376 395,-376 395,-412"/>
<text text-anchor="middle" x="368" y="-391.5" font-family="FreeSans.ttf" font-size="10.00">icub</text>
</a>
</g>
</g>
<!-- dir_2a3c79a8659119928eb3cfb9c5637ece&#45;&gt;dir_aebb8dcc11953d78e620bbef0b9e2183 -->
<g id="edge6" class="edge">
<title>dir_2a3c79a8659119928eb3cfb9c5637ece&#45;&gt;dir_aebb8dcc11953d78e620bbef0b9e2183</title>
<path fill="none" stroke="black" d="M383.52,-375.98C392.36,-365.88 403.36,-352.63 412,-340 436.72,-303.87 516.68,-196.15 492,-160 467.25,-123.73 433.06,-152.9 400,-124 386.22,-111.95 392.65,-101.23 380,-88 365.89,-73.24 346.82,-60.94 330.23,-51.92"/>
<polygon fill="black" stroke="black" points="331.79,-48.79 321.31,-47.25 328.55,-54.99 331.79,-48.79"/>
<g id="a_edge6&#45;headlabel"><a xlink:href="dir_000045_000011.html" target="_top" xlink:title="2">
<text text-anchor="middle" x="336.3" y="-45.44" font-family="FreeSans.ttf" font-size="10.00">2</text>
</a>
</g>
</g>
<!-- dir_2a3c79a8659119928eb3cfb9c5637ece&#45;&gt;dir_710615f1fcb70e449001c5bcbae9c23a -->
<g id="edge3" class="edge">
<title>dir_2a3c79a8659119928eb3cfb9c5637ece&#45;&gt;dir_710615f1fcb70e449001c5bcbae9c23a</title>
<path fill="none" stroke="black" d="M368,-375.7C368,-367.98 368,-358.71 368,-350.11"/>
<polygon fill="black" stroke="black" points="371.5,-350.1 368,-340.1 364.5,-350.1 371.5,-350.1"/>
<g id="a_edge3&#45;headlabel"><a xlink:href="dir_000045_000016.html" target="_top" xlink:title="1">
<text text-anchor="middle" x="374.34" y="-351.2" font-family="FreeSans.ttf" font-size="10.00">1</text>
</a>
</g>
</g>
<!-- dir_2a3c79a8659119928eb3cfb9c5637ece&#45;&gt;dir_5dd65160827af56e6353642206b80129 -->
<g id="edge4" class="edge">
<title>dir_2a3c79a8659119928eb3cfb9c5637ece&#45;&gt;dir_5dd65160827af56e6353642206b80129</title>
<path fill="none" stroke="black" d="M350.68,-375.76C341.8,-366.02 331.51,-353.17 325,-340 303.13,-295.74 315.4,-278.57 299,-232 293.12,-215.31 287.75,-212.73 282,-196 275.02,-175.69 269.82,-151.92 266.48,-134.06"/>
<polygon fill="black" stroke="black" points="269.89,-133.26 264.68,-124.04 263,-134.5 269.89,-133.26"/>
<g id="a_edge4&#45;headlabel"><a xlink:href="dir_000045_000027.html" target="_top" xlink:title="5">
<text text-anchor="middle" x="273.32" y="-133.8" font-family="FreeSans.ttf" font-size="10.00">5</text>
</a>
</g>
</g>
<!-- dir_ca655c1e93447bcdfcc1afb2c793c8bd -->
<g id="node14" class="node">
<title>dir_ca655c1e93447bcdfcc1afb2c793c8bd</title>
<g id="a_node14"><a xlink:href="dir_ca655c1e93447bcdfcc1afb2c793c8bd.html" target="_top" xlink:title="yarp">
<polygon fill="white" stroke="red" points="520,-340 466,-340 466,-304 520,-304 520,-340"/>
<text text-anchor="middle" x="493" y="-319.5" font-family="FreeSans.ttf" font-size="10.00">yarp</text>
</a>
</g>
</g>
<!-- dir_2a3c79a8659119928eb3cfb9c5637ece&#45;&gt;dir_ca655c1e93447bcdfcc1afb2c793c8bd -->
<g id="edge5" class="edge">
<title>dir_2a3c79a8659119928eb3cfb9c5637ece&#45;&gt;dir_ca655c1e93447bcdfcc1afb2c793c8bd</title>
<path fill="none" stroke="black" d="M395.12,-377.81C413.31,-367.63 437.44,-354.11 457.2,-343.05"/>
<polygon fill="black" stroke="black" points="458.91,-346.1 465.93,-338.16 455.49,-339.99 458.91,-346.1"/>
<g id="a_edge5&#45;headlabel"><a xlink:href="dir_000045_000074.html" target="_top" xlink:title="2">
<text text-anchor="middle" x="457.17" y="-347.83" font-family="FreeSans.ttf" font-size="10.00">2</text>
</a>
</g>
</g>
<!-- dir_b7c18fbf081229a9716e24d71701f6e8 -->
<g id="node6" class="node">
<title>dir_b7c18fbf081229a9716e24d71701f6e8</title>
<g id="a_node6"><a xlink:href="dir_b7c18fbf081229a9716e24d71701f6e8.html" target="_top" xlink:title="inverse&#45;kinematics">
<polygon fill="white" stroke="red" points="235,-412 125,-412 125,-376 235,-376 235,-412"/>
<text text-anchor="middle" x="180" y="-391.5" font-family="FreeSans.ttf" font-size="10.00">inverse&#45;kinematics</text>
</a>
</g>
</g>
<!-- dir_b7c18fbf081229a9716e24d71701f6e8&#45;&gt;dir_aebb8dcc11953d78e620bbef0b9e2183 -->
<g id="edge36" class="edge">
<title>dir_b7c18fbf081229a9716e24d71701f6e8&#45;&gt;dir_aebb8dcc11953d78e620bbef0b9e2183</title>
<path fill="none" stroke="black" d="M168.95,-375.61C163.26,-365.62 156.92,-352.58 154,-340 135.04,-258.28 129.9,-172.65 192,-88 207.83,-66.41 235.08,-52.9 257.43,-44.92"/>
<polygon fill="black" stroke="black" points="258.6,-48.22 266.98,-41.73 256.39,-41.58 258.6,-48.22"/>
<g id="a_edge36&#45;headlabel"><a xlink:href="dir_000021_000011.html" target="_top" xlink:title="30">
<text text-anchor="middle" x="256.09" y="-49.55" font-family="FreeSans.ttf" font-size="10.00">30</text>
</a>
</g>
</g>
<!-- dir_b7c18fbf081229a9716e24d71701f6e8&#45;&gt;dir_355314d08763ddbf0e6d36531a48f7ae -->
<g id="edge33" class="edge">
<title>dir_b7c18fbf081229a9716e24d71701f6e8&#45;&gt;dir_355314d08763ddbf0e6d36531a48f7ae</title>
<path fill="none" stroke="black" d="M185.44,-375.7C187.89,-367.9 190.84,-358.51 193.57,-349.83"/>
<polygon fill="black" stroke="black" points="196.96,-350.69 196.62,-340.1 190.29,-348.59 196.96,-350.69"/>
<g id="a_edge33&#45;headlabel"><a xlink:href="dir_000021_000053.html" target="_top" xlink:title="1">
<text text-anchor="middle" x="198.6" y="-352.47" font-family="FreeSans.ttf" font-size="10.00">1</text>
</a>
</g>
</g>
<!-- dir_b7c18fbf081229a9716e24d71701f6e8&#45;&gt;dir_5dd65160827af56e6353642206b80129 -->
<g id="edge35" class="edge">
<title>dir_b7c18fbf081229a9716e24d71701f6e8&#45;&gt;dir_5dd65160827af56e6353642206b80129</title>
<path fill="none" stroke="black" d="M172.11,-375.75C167.89,-365.58 163.14,-352.33 161,-340 158.26,-324.24 158.29,-319.77 161,-304 172.5,-237.09 176.61,-217.94 212,-160 218.32,-149.65 226.93,-139.61 235.21,-131.11"/>
<polygon fill="black" stroke="black" points="237.69,-133.58 242.35,-124.06 232.78,-128.6 237.69,-133.58"/>
<g id="a_edge35&#45;headlabel"><a xlink:href="dir_000021_000027.html" target="_top" xlink:title="1">
<text text-anchor="middle" x="237.13" y="-135.63" font-family="FreeSans.ttf" font-size="10.00">1</text>
</a>
</g>
</g>
<!-- dir_b7c18fbf081229a9716e24d71701f6e8&#45;&gt;dir_fb93052291ccda37fd41b6d18f3dfcc9 -->
<g id="edge34" class="edge">
<title>dir_b7c18fbf081229a9716e24d71701f6e8&#45;&gt;dir_fb93052291ccda37fd41b6d18f3dfcc9</title>
<path fill="none" stroke="black" d="M210.77,-375.91C223.54,-367.02 237,-354.88 244,-340 253.01,-320.83 252.37,-296.67 249.83,-278.36"/>
<polygon fill="black" stroke="black" points="253.26,-277.63 248.18,-268.34 246.36,-278.77 253.26,-277.63"/>
<g id="a_edge34&#45;headlabel"><a xlink:href="dir_000021_000040.html" target="_top" xlink:title="1">
<text text-anchor="middle" x="256.65" y="-278.22" font-family="FreeSans.ttf" font-size="10.00">1</text>
</a>
</g>
</g>
<!-- dir_5dd65160827af56e6353642206b80129&#45;&gt;dir_aebb8dcc11953d78e620bbef0b9e2183 -->
<g id="edge21" class="edge">
<title>dir_5dd65160827af56e6353642206b80129&#45;&gt;dir_aebb8dcc11953d78e620bbef0b9e2183</title>
<path fill="none" stroke="black" d="M269.91,-87.7C273.55,-79.73 277.95,-70.1 281.99,-61.26"/>
<polygon fill="black" stroke="black" points="285.21,-62.65 286.18,-52.1 278.84,-59.74 285.21,-62.65"/>
<g id="a_edge21&#45;headlabel"><a xlink:href="dir_000027_000011.html" target="_top" xlink:title="59">
<text text-anchor="middle" x="286.29" y="-64.6" font-family="FreeSans.ttf" font-size="10.00">59</text>
</a>
</g>
</g>
<!-- dir_fb93052291ccda37fd41b6d18f3dfcc9&#45;&gt;dir_aebb8dcc11953d78e620bbef0b9e2183 -->
<g id="edge14" class="edge">
<title>dir_fb93052291ccda37fd41b6d18f3dfcc9&#45;&gt;dir_aebb8dcc11953d78e620bbef0b9e2183</title>
<path fill="none" stroke="black" d="M236.35,-231.99C223.82,-201.44 202.55,-136.02 226,-88 232.89,-73.9 245.53,-62.47 258.07,-53.87"/>
<polygon fill="black" stroke="black" points="260.12,-56.72 266.66,-48.38 256.35,-50.82 260.12,-56.72"/>
<g id="a_edge14&#45;headlabel"><a xlink:href="dir_000040_000011.html" target="_top" xlink:title="18">
<text text-anchor="middle" x="258.62" y="-58.54" font-family="FreeSans.ttf" font-size="10.00">18</text>
</a>
</g>
</g>
<!-- dir_fb93052291ccda37fd41b6d18f3dfcc9&#45;&gt;dir_5dd65160827af56e6353642206b80129 -->
<g id="edge13" class="edge">
<title>dir_fb93052291ccda37fd41b6d18f3dfcc9&#45;&gt;dir_5dd65160827af56e6353642206b80129</title>
<path fill="none" stroke="black" d="M243.69,-231.83C243.62,-213.83 244.22,-184.77 248,-160 249.29,-151.53 251.41,-142.47 253.61,-134.27"/>
<polygon fill="black" stroke="black" points="257.03,-135.04 256.38,-124.47 250.29,-133.14 257.03,-135.04"/>
<g id="a_edge13&#45;headlabel"><a xlink:href="dir_000040_000027.html" target="_top" xlink:title="25">
<text text-anchor="middle" x="258.78" y="-136.78" font-family="FreeSans.ttf" font-size="10.00">25</text>
</a>
</g>
</g>
<!-- dir_fb93052291ccda37fd41b6d18f3dfcc9&#45;&gt;dir_7349e89ef19c117195f8e371603e1b1f -->
<g id="edge12" class="edge">
<title>dir_fb93052291ccda37fd41b6d18f3dfcc9&#45;&gt;dir_7349e89ef19c117195f8e371603e1b1f</title>
<path fill="none" stroke="black" d="M267.48,-231.7C279.56,-222.8 294.45,-211.82 307.52,-202.2"/>
<polygon fill="black" stroke="black" points="309.81,-204.85 315.79,-196.1 305.66,-199.22 309.81,-204.85"/>
<g id="a_edge12&#45;headlabel"><a xlink:href="dir_000040_000001.html" target="_top" xlink:title="12">
<text text-anchor="middle" x="308.6" y="-206.77" font-family="FreeSans.ttf" font-size="10.00">12</text>
</a>
</g>
</g>
<!-- dir_e126f7cbd61d2153f67b9bffb0e3dc03 -->
<g id="node9" class="node">
<title>dir_e126f7cbd61d2153f67b9bffb0e3dc03</title>
<g id="a_node9"><a xlink:href="dir_e126f7cbd61d2153f67b9bffb0e3dc03.html" target="_top" xlink:title="optimalcontrol">
<polygon fill="white" stroke="red" points="522,-124 434,-124 434,-88 522,-88 522,-124"/>
<text text-anchor="middle" x="478" y="-103.5" font-family="FreeSans.ttf" font-size="10.00">optimalcontrol</text>
</a>
</g>
</g>
<!-- dir_e126f7cbd61d2153f67b9bffb0e3dc03&#45;&gt;dir_aebb8dcc11953d78e620bbef0b9e2183 -->
<g id="edge32" class="edge">
<title>dir_e126f7cbd61d2153f67b9bffb0e3dc03&#45;&gt;dir_aebb8dcc11953d78e620bbef0b9e2183</title>
<path fill="none" stroke="black" d="M433.93,-88.23C402.41,-76.24 360.47,-60.29 330.75,-48.98"/>
<polygon fill="black" stroke="black" points="331.76,-45.62 321.17,-45.34 329.27,-52.16 331.76,-45.62"/>
<g id="a_edge32&#45;headlabel"><a xlink:href="dir_000006_000011.html" target="_top" xlink:title="81">
<text text-anchor="middle" x="336.13" y="-41.75" font-family="FreeSans.ttf" font-size="10.00">81</text>
</a>
</g>
</g>
<!-- dir_7349e89ef19c117195f8e371603e1b1f&#45;&gt;dir_aebb8dcc11953d78e620bbef0b9e2183 -->
<g id="edge8" class="edge">
<title>dir_7349e89ef19c117195f8e371603e1b1f&#45;&gt;dir_aebb8dcc11953d78e620bbef0b9e2183</title>
<path fill="none" stroke="black" d="M333.57,-159.87C325.87,-135.56 311.69,-90.82 302.56,-62.01"/>
<polygon fill="black" stroke="black" points="305.8,-60.66 299.45,-52.19 299.13,-62.78 305.8,-60.66"/>
<g id="a_edge8&#45;headlabel"><a xlink:href="dir_000001_000011.html" target="_top" xlink:title="29">
<text text-anchor="middle" x="309.6" y="-60.73" font-family="FreeSans.ttf" font-size="10.00">29</text>
</a>
</g>
</g>
<!-- dir_7349e89ef19c117195f8e371603e1b1f&#45;&gt;dir_5dd65160827af56e6353642206b80129 -->
<g id="edge7" class="edge">
<title>dir_7349e89ef19c117195f8e371603e1b1f&#45;&gt;dir_5dd65160827af56e6353642206b80129</title>
<path fill="none" stroke="black" d="M319.97,-159.7C310.46,-151.05 298.79,-140.45 288.43,-131.03"/>
<polygon fill="black" stroke="black" points="290.57,-128.24 280.81,-124.1 285.86,-133.42 290.57,-128.24"/>
<g id="a_edge7&#45;headlabel"><a xlink:href="dir_000001_000027.html" target="_top" xlink:title="13">
<text text-anchor="middle" x="295.14" y="-126.06" font-family="FreeSans.ttf" font-size="10.00">13</text>
</a>
</g>
</g>
<!-- dir_316a0dddb2dbe91a12d5288b17ad5f68 -->
<g id="node11" class="node">
<title>dir_316a0dddb2dbe91a12d5288b17ad5f68</title>
<g id="a_node11"><a xlink:href="dir_316a0dddb2dbe91a12d5288b17ad5f68.html" target="_top" xlink:title="solid&#45;shapes">
<polygon fill="white" stroke="red" points="114,-196 36,-196 36,-160 114,-160 114,-196"/>
<text text-anchor="middle" x="75" y="-175.5" font-family="FreeSans.ttf" font-size="10.00">solid&#45;shapes</text>
</a>
</g>
</g>
<!-- dir_316a0dddb2dbe91a12d5288b17ad5f68&#45;&gt;dir_aebb8dcc11953d78e620bbef0b9e2183 -->
<g id="edge2" class="edge">
<title>dir_316a0dddb2dbe91a12d5288b17ad5f68&#45;&gt;dir_aebb8dcc11953d78e620bbef0b9e2183</title>
<path fill="none" stroke="black" d="M80.96,-159.7C88.73,-139.64 104.2,-106.91 128,-88 165.62,-58.11 220.45,-44.91 256.66,-39.19"/>
<polygon fill="black" stroke="black" points="257.42,-42.62 266.81,-37.71 256.41,-35.69 257.42,-42.62"/>
<g id="a_edge2&#45;headlabel"><a xlink:href="dir_000048_000011.html" target="_top" xlink:title="5">
<text text-anchor="middle" x="254.27" y="-43.45" font-family="FreeSans.ttf" font-size="10.00">5</text>
</a>
</g>
</g>
<!-- dir_316a0dddb2dbe91a12d5288b17ad5f68&#45;&gt;dir_5dd65160827af56e6353642206b80129 -->
<g id="edge1" class="edge">
<title>dir_316a0dddb2dbe91a12d5288b17ad5f68&#45;&gt;dir_5dd65160827af56e6353642206b80129</title>
<path fill="none" stroke="black" d="M114.2,-162.33C147.01,-150.05 193.46,-132.66 225.49,-120.67"/>
<polygon fill="black" stroke="black" points="226.8,-123.91 234.94,-117.13 224.34,-117.36 226.8,-123.91"/>
<g id="a_edge1&#45;headlabel"><a xlink:href="dir_000048_000027.html" target="_top" xlink:title="4">
<text text-anchor="middle" x="224.43" y="-125.33" font-family="FreeSans.ttf" font-size="10.00">4</text>
</a>
</g>
</g>
<!-- dir_1563a38af0d3a5e4a6330d6d45e9792a -->
<g id="node12" class="node">
<title>dir_1563a38af0d3a5e4a6330d6d45e9792a</title>
<g id="a_node12"><a xlink:href="dir_1563a38af0d3a5e4a6330d6d45e9792a.html" target="_top" xlink:title="tools">
<polygon fill="white" stroke="red" points="301,-484 247,-484 247,-448 301,-448 301,-484"/>
<text text-anchor="middle" x="274" y="-463.5" font-family="FreeSans.ttf" font-size="10.00">tools</text>
</a>
</g>
</g>
<!-- dir_1563a38af0d3a5e4a6330d6d45e9792a&#45;&gt;dir_aebb8dcc11953d78e620bbef0b9e2183 -->
<g id="edge29" class="edge">
<title>dir_1563a38af0d3a5e4a6330d6d45e9792a&#45;&gt;dir_aebb8dcc11953d78e620bbef0b9e2183</title>
<path fill="none" stroke="black" d="M246.98,-462.73C181,-455.56 17,-427.25 17,-323 17,-323 17,-323 17,-177 17,-70.42 181.41,-43.78 256.9,-37.16"/>
<polygon fill="black" stroke="black" points="257.25,-40.65 266.94,-36.36 256.69,-33.67 257.25,-40.65"/>
<g id="a_edge29&#45;headlabel"><a xlink:href="dir_000031_000011.html" target="_top" xlink:title="5">
<text text-anchor="middle" x="253.89" y="-41.27" font-family="FreeSans.ttf" font-size="10.00">5</text>
</a>
</g>
</g>
<!-- dir_1563a38af0d3a5e4a6330d6d45e9792a&#45;&gt;dir_355314d08763ddbf0e6d36531a48f7ae -->
<g id="edge24" class="edge">
<title>dir_1563a38af0d3a5e4a6330d6d45e9792a&#45;&gt;dir_355314d08763ddbf0e6d36531a48f7ae</title>
<path fill="none" stroke="black" d="M270.11,-447.88C265.49,-429.41 256.76,-399.5 244,-376 238.65,-366.15 231.45,-356.27 224.52,-347.76"/>
<polygon fill="black" stroke="black" points="227.15,-345.45 218.03,-340.06 221.8,-349.97 227.15,-345.45"/>
<g id="a_edge24&#45;headlabel"><a xlink:href="dir_000031_000053.html" target="_top" xlink:title="5">
<text text-anchor="middle" x="231.64" y="-343.87" font-family="FreeSans.ttf" font-size="10.00">5</text>
</a>
</g>
</g>
<!-- dir_1563a38af0d3a5e4a6330d6d45e9792a&#45;&gt;dir_2a3c79a8659119928eb3cfb9c5637ece -->
<g id="edge23" class="edge">
<title>dir_1563a38af0d3a5e4a6330d6d45e9792a&#45;&gt;dir_2a3c79a8659119928eb3cfb9c5637ece</title>
<path fill="none" stroke="black" d="M297.24,-447.7C309.19,-438.8 323.92,-427.82 336.85,-418.2"/>
<polygon fill="black" stroke="black" points="339.1,-420.88 345.03,-412.1 334.92,-415.27 339.1,-420.88"/>
<g id="a_edge23&#45;headlabel"><a xlink:href="dir_000031_000045.html" target="_top" xlink:title="1">
<text text-anchor="middle" x="337.91" y="-422.81" font-family="FreeSans.ttf" font-size="10.00">1</text>
</a>
</g>
</g>
<!-- dir_1563a38af0d3a5e4a6330d6d45e9792a&#45;&gt;dir_b7c18fbf081229a9716e24d71701f6e8 -->
<g id="edge30" class="edge">
<title>dir_1563a38af0d3a5e4a6330d6d45e9792a&#45;&gt;dir_b7c18fbf081229a9716e24d71701f6e8</title>
<path fill="none" stroke="black" d="M250.76,-447.7C238.81,-438.8 224.08,-427.82 211.15,-418.2"/>
<polygon fill="black" stroke="black" points="213.08,-415.27 202.97,-412.1 208.9,-420.88 213.08,-415.27"/>
<g id="a_edge30&#45;headlabel"><a xlink:href="dir_000031_000021.html" target="_top" xlink:title="2">
<text text-anchor="middle" x="217.66" y="-412.64" font-family="FreeSans.ttf" font-size="10.00">2</text>
</a>
</g>
</g>
<!-- dir_1563a38af0d3a5e4a6330d6d45e9792a&#45;&gt;dir_5dd65160827af56e6353642206b80129 -->
<g id="edge27" class="edge">
<title>dir_1563a38af0d3a5e4a6330d6d45e9792a&#45;&gt;dir_5dd65160827af56e6353642206b80129</title>
<path fill="none" stroke="black" d="M277.64,-447.8C285.25,-408.87 300.81,-311.21 284,-232 280.37,-214.87 272.21,-213 268,-196 262.95,-175.61 261.57,-151.85 261.38,-134.01"/>
<polygon fill="black" stroke="black" points="264.88,-134.01 261.4,-124 257.88,-134 264.88,-134.01"/>
<g id="a_edge27&#45;headlabel"><a xlink:href="dir_000031_000027.html" target="_top" xlink:title="7">
<text text-anchor="middle" x="267.72" y="-135.11" font-family="FreeSans.ttf" font-size="10.00">7</text>
</a>
</g>
</g>
<!-- dir_1563a38af0d3a5e4a6330d6d45e9792a&#45;&gt;dir_fb93052291ccda37fd41b6d18f3dfcc9 -->
<g id="edge25" class="edge">
<title>dir_1563a38af0d3a5e4a6330d6d45e9792a&#45;&gt;dir_fb93052291ccda37fd41b6d18f3dfcc9</title>
<path fill="none" stroke="black" d="M271.7,-447.6C267.79,-418.06 259.51,-356.22 252,-304 250.79,-295.58 249.42,-286.42 248.17,-278.11"/>
<polygon fill="black" stroke="black" points="251.62,-277.54 246.65,-268.18 244.7,-278.59 251.62,-277.54"/>
<g id="a_edge25&#45;headlabel"><a xlink:href="dir_000031_000040.html" target="_top" xlink:title="7">
<text text-anchor="middle" x="254.97" y="-278.16" font-family="FreeSans.ttf" font-size="10.00">7</text>
</a>
</g>
</g>
<!-- dir_1563a38af0d3a5e4a6330d6d45e9792a&#45;&gt;dir_316a0dddb2dbe91a12d5288b17ad5f68 -->
<g id="edge22" class="edge">
<title>dir_1563a38af0d3a5e4a6330d6d45e9792a&#45;&gt;dir_316a0dddb2dbe91a12d5288b17ad5f68</title>
<path fill="none" stroke="black" d="M246.78,-463.99C211.09,-461.11 149.12,-450.49 116,-412 65.29,-353.08 67.15,-253.93 71.57,-206.24"/>
<polygon fill="black" stroke="black" points="75.07,-206.38 72.62,-196.07 68.11,-205.66 75.07,-206.38"/>
<g id="a_edge22&#45;headlabel"><a xlink:href="dir_000031_000048.html" target="_top" xlink:title="1">
<text text-anchor="middle" x="77.52" y="-207.75" font-family="FreeSans.ttf" font-size="10.00">1</text>
</a>
</g>
</g>
<!-- dir_b00de47ad7e2e13a637d9aa605dec95e -->
<g id="node13" class="node">
<title>dir_b00de47ad7e2e13a637d9aa605dec95e</title>
<g id="a_node13"><a xlink:href="dir_b00de47ad7e2e13a637d9aa605dec95e.html" target="_top" xlink:title="visualization">
<polygon fill="white" stroke="red" points="482.5,-196 403.5,-196 403.5,-160 482.5,-160 482.5,-196"/>
<text text-anchor="middle" x="443" y="-175.5" font-family="FreeSans.ttf" font-size="10.00">visualization</text>
</a>
</g>
</g>
<!-- dir_1563a38af0d3a5e4a6330d6d45e9792a&#45;&gt;dir_b00de47ad7e2e13a637d9aa605dec95e -->
<g id="edge26" class="edge">
<title>dir_1563a38af0d3a5e4a6330d6d45e9792a&#45;&gt;dir_b00de47ad7e2e13a637d9aa605dec95e</title>
<path fill="none" stroke="black" d="M301.26,-461.71C331.28,-456.58 378.65,-443.69 404,-412 452.37,-351.54 450.61,-253.53 446.35,-206.24"/>
<polygon fill="black" stroke="black" points="449.82,-205.75 445.33,-196.16 442.85,-206.46 449.82,-205.75"/>
<g id="a_edge26&#45;headlabel"><a xlink:href="dir_000031_000025.html" target="_top" xlink:title="1">
<text text-anchor="middle" x="453" y="-206.54" font-family="FreeSans.ttf" font-size="10.00">1</text>
</a>
</g>
</g>
<!-- dir_1563a38af0d3a5e4a6330d6d45e9792a&#45;&gt;dir_ca655c1e93447bcdfcc1afb2c793c8bd -->
<g id="edge28" class="edge">
<title>dir_1563a38af0d3a5e4a6330d6d45e9792a&#45;&gt;dir_ca655c1e93447bcdfcc1afb2c793c8bd</title>
<path fill="none" stroke="black" d="M301.21,-459.76C345.19,-450.82 429.28,-431.7 452,-412 470.5,-395.96 481.16,-369.83 486.94,-350.02"/>
<polygon fill="black" stroke="black" points="490.33,-350.89 489.54,-340.33 483.57,-349.08 490.33,-350.89"/>
<g id="a_edge28&#45;headlabel"><a xlink:href="dir_000031_000074.html" target="_top" xlink:title="1">
<text text-anchor="middle" x="492.14" y="-352.6" font-family="FreeSans.ttf" font-size="10.00">1</text>
</a>
</g>
</g>
<!-- dir_b00de47ad7e2e13a637d9aa605dec95e&#45;&gt;dir_aebb8dcc11953d78e620bbef0b9e2183 -->
<g id="edge20" class="edge">
<title>dir_b00de47ad7e2e13a637d9aa605dec95e&#45;&gt;dir_aebb8dcc11953d78e620bbef0b9e2183</title>
<path fill="none" stroke="black" d="M424.92,-159.72C414.48,-149.55 401.23,-136.3 390,-124 375.96,-108.62 374.86,-102.59 360,-88 349.37,-77.56 336.81,-67.08 325.51,-58.22"/>
<polygon fill="black" stroke="black" points="327.61,-55.42 317.55,-52.08 323.33,-60.96 327.61,-55.42"/>
<g id="a_edge20&#45;headlabel"><a xlink:href="dir_000025_000011.html" target="_top" xlink:title="4">
<text text-anchor="middle" x="332.19" y="-52.87" font-family="FreeSans.ttf" font-size="10.00">4</text>
</a>
</g>
</g>
<!-- dir_b00de47ad7e2e13a637d9aa605dec95e&#45;&gt;dir_5dd65160827af56e6353642206b80129 -->
<g id="edge19" class="edge">
<title>dir_b00de47ad7e2e13a637d9aa605dec95e&#45;&gt;dir_5dd65160827af56e6353642206b80129</title>
<path fill="none" stroke="black" d="M403.28,-161.64C372.01,-149.55 328.78,-132.83 298.4,-121.08"/>
<polygon fill="black" stroke="black" points="299.61,-117.79 289.02,-117.45 297.09,-124.32 299.61,-117.79"/>
<g id="a_edge19&#45;headlabel"><a xlink:href="dir_000025_000027.html" target="_top" xlink:title="9">
<text text-anchor="middle" x="303.99" y="-113.94" font-family="FreeSans.ttf" font-size="10.00">9</text>
</a>
</g>
</g>
<!-- dir_ca655c1e93447bcdfcc1afb2c793c8bd&#45;&gt;dir_aebb8dcc11953d78e620bbef0b9e2183 -->
<g id="edge31" class="edge">
<title>dir_ca655c1e93447bcdfcc1afb2c793c8bd&#45;&gt;dir_aebb8dcc11953d78e620bbef0b9e2183</title>
<path fill="none" stroke="black" d="M500.73,-303.82C513.58,-272.43 535.19,-204.91 506,-160 484.53,-126.97 455.36,-149.11 425,-124 409.99,-111.59 414.73,-100.75 400,-88 379.63,-70.36 352.37,-56.9 330.59,-47.96"/>
<polygon fill="black" stroke="black" points="331.6,-44.6 321.02,-44.17 329.03,-51.1 331.6,-44.6"/>
<g id="a_edge31&#45;headlabel"><a xlink:href="dir_000074_000011.html" target="_top" xlink:title="5">
<text text-anchor="middle" x="335.99" y="-40.78" font-family="FreeSans.ttf" font-size="10.00">5</text>
</a>
</g>
</g>
</g>
</svg>
