<?xml version="1.0" encoding="UTF-8" standalone="no"?>
<!DOCTYPE svg PUBLIC "-//W3C//DTD SVG 1.1//EN"
 "http://www.w3.org/Graphics/SVG/1.1/DTD/svg11.dtd">
<!-- Generated by graphviz version 2.43.0 (0)
 -->
<!-- Title: src Pages: 1 -->
<svg width="134pt" height="151pt"
 viewBox="0.00 0.00 134.00 151.00" xmlns="http://www.w3.org/2000/svg" xmlns:xlink="http://www.w3.org/1999/xlink">
<g id="graph0" class="graph" transform="scale(1 1) rotate(0) translate(4 147)">
<title>src</title>
<g id="clust1" class="cluster">
<title>clusterdir_5f57de5bbe3f948f16e791110ccbe302</title>
<g id="a_clust1"><a xlink:href="dir_5f57de5bbe3f948f16e791110ccbe302.html" target="_top" xlink:title="xml">
<polygon fill="#ddddee" stroke="black" points="28,-64 28,-135 98,-135 98,-64 28,-64"/>
<text text-anchor="middle" x="63" y="-123" font-family="FreeSans.ttf" font-size="10.00">xml</text>
</a>
</g>
</g>
<!-- dir_40fc0156ed274947f51aa326417dc26c -->
<g id="node1" class="node">
<title>dir_40fc0156ed274947f51aa326417dc26c</title>
<g id="a_node1"><a xlink:href="dir_40fc0156ed274947f51aa326417dc26c.html" target="_top" xlink:title="src">
<polygon fill="#eeeeff" stroke="black" points="90,-108 36,-108 36,-72 90,-72 90,-108"/>
<text text-anchor="middle" x="63" y="-87.5" font-family="FreeSans.ttf" font-size="10.00">src</text>
</a>
</g>
</g>
<!-- dir_aebb8dcc11953d78e620bbef0b9e2183 -->
<g id="node2" class="node">
<title>dir_aebb8dcc11953d78e620bbef0b9e2183</title>
<g id="a_node2"><a xlink:href="dir_aebb8dcc11953d78e620bbef0b9e2183.html" target="_top" xlink:title="core">
<polygon fill="none" stroke="red" points="54,-36 0,-36 0,0 54,0 54,-36"/>
<text text-anchor="middle" x="27" y="-15.5" font-family="FreeSans.ttf" font-size="10.00">core</text>
</a>
</g>
</g>
<!-- dir_40fc0156ed274947f51aa326417dc26c&#45;&gt;dir_aebb8dcc11953d78e620bbef0b9e2183 -->
<g id="edge1" class="edge">
<title>dir_40fc0156ed274947f51aa326417dc26c&#45;&gt;dir_aebb8dcc11953d78e620bbef0b9e2183</title>
<path fill="none" stroke="black" d="M54.1,-71.7C50,-63.73 45.05,-54.1 40.51,-45.26"/>
<polygon fill="black" stroke="black" points="43.48,-43.4 35.8,-36.1 37.26,-46.6 43.48,-43.4"/>
<g id="a_edge1&#45;headlabel"><a xlink:href="dir_000071_000011.html" target="_top" xlink:title="1">
<text text-anchor="middle" x="47.65" y="-42.79" font-family="FreeSans.ttf" font-size="10.00">1</text>
</a>
</g>
</g>
<!-- dir_809e01251376aadbde93615b9d36d473 -->
<g id="node3" class="node">
<title>dir_809e01251376aadbde93615b9d36d473</title>
<g id="a_node3"><a xlink:href="dir_809e01251376aadbde93615b9d36d473.html" target="_top" xlink:title="include">
<polygon fill="none" stroke="red" points="126,-36 72,-36 72,0 126,0 126,-36"/>
<text text-anchor="middle" x="99" y="-15.5" font-family="FreeSans.ttf" font-size="10.00">include</text>
</a>
</g>
</g>
<!-- dir_40fc0156ed274947f51aa326417dc26c&#45;&gt;dir_809e01251376aadbde93615b9d36d473 -->
<g id="edge2" class="edge">
<title>dir_40fc0156ed274947f51aa326417dc26c&#45;&gt;dir_809e01251376aadbde93615b9d36d473</title>
<path fill="none" stroke="black" d="M71.9,-71.7C76,-63.73 80.95,-54.1 85.49,-45.26"/>
<polygon fill="black" stroke="black" points="88.74,-46.6 90.2,-36.1 82.52,-43.4 88.74,-46.6"/>
<g id="a_edge2&#45;headlabel"><a xlink:href="dir_000071_000072.html" target="_top" xlink:title="9">
<text text-anchor="middle" x="89.62" y="-48.59" font-family="FreeSans.ttf" font-size="10.00">9</text>
</a>
</g>
</g>
</g>
</svg>
