<?xml version="1.0" encoding="UTF-8" standalone="no"?>
<!DOCTYPE svg PUBLIC "-//W3C//DTD SVG 1.1//EN"
 "http://www.w3.org/Graphics/SVG/1.1/DTD/svg11.dtd">
<!-- Generated by graphviz version 2.43.0 (0)
 -->
<!-- Title: iDynTree Pages: 1 -->
<svg width="100pt" height="151pt"
 viewBox="0.00 0.00 100.00 151.00" xmlns="http://www.w3.org/2000/svg" xmlns:xlink="http://www.w3.org/1999/xlink">
<g id="graph0" class="graph" transform="scale(1 1) rotate(0) translate(4 147)">
<title>iDynTree</title>
<g id="clust1" class="cluster">
<title>clusterdir_015bc75052cfc2d812e3326d1dee41f1</title>
<g id="a_clust1"><a xlink:href="dir_015bc75052cfc2d812e3326d1dee41f1.html" target="_top" xlink:title="include">
<polygon fill="#ddddee" stroke="black" points="8,-64 8,-135 84,-135 84,-64 8,-64"/>
<text text-anchor="middle" x="46" y="-123" font-family="FreeSans.ttf" font-size="10.00">include</text>
</a>
</g>
</g>
<!-- dir_0e7cec72910a9e4eb0887f9d16201f2d -->
<g id="node1" class="node">
<title>dir_0e7cec72910a9e4eb0887f9d16201f2d</title>
<g id="a_node1"><a xlink:href="dir_0e7cec72910a9e4eb0887f9d16201f2d.html" target="_top" xlink:title="iDynTree">
<polygon fill="#eeeeff" stroke="black" points="75.5,-108 16.5,-108 16.5,-72 75.5,-72 75.5,-108"/>
<text text-anchor="middle" x="46" y="-87.5" font-family="FreeSans.ttf" font-size="10.00">iDynTree</text>
</a>
</g>
</g>
<!-- dir_5dd65160827af56e6353642206b80129 -->
<g id="node2" class="node">
<title>dir_5dd65160827af56e6353642206b80129</title>
<g id="a_node2"><a xlink:href="dir_5dd65160827af56e6353642206b80129.html" target="_top" xlink:title="model">
<polygon fill="none" stroke="red" points="73,-36 19,-36 19,0 73,0 73,-36"/>
<text text-anchor="middle" x="46" y="-15.5" font-family="FreeSans.ttf" font-size="10.00">model</text>
</a>
</g>
</g>
<!-- dir_0e7cec72910a9e4eb0887f9d16201f2d&#45;&gt;dir_5dd65160827af56e6353642206b80129 -->
<g id="edge1" class="edge">
<title>dir_0e7cec72910a9e4eb0887f9d16201f2d&#45;&gt;dir_5dd65160827af56e6353642206b80129</title>
<path fill="none" stroke="black" d="M46,-71.7C46,-63.98 46,-54.71 46,-46.11"/>
<polygon fill="black" stroke="black" points="49.5,-46.1 46,-36.1 42.5,-46.1 49.5,-46.1"/>
<g id="a_edge1&#45;headlabel"><a xlink:href="dir_000051_000027.html" target="_top" xlink:title="2">
<text text-anchor="middle" x="52.34" y="-47.2" font-family="FreeSans.ttf" font-size="10.00">2</text>
</a>
</g>
</g>
</g>
</svg>
