<?xml version="1.0" encoding="UTF-8" standalone="no"?>
<!DOCTYPE svg PUBLIC "-//W3C//DTD SVG 1.1//EN"
 "http://www.w3.org/Graphics/SVG/1.1/DTD/svg11.dtd">
<!-- Generated by graphviz version 2.43.0 (0)
 -->
<!-- Title: include Pages: 1 -->
<svg width="223pt" height="303pt"
 viewBox="0.00 0.00 223.01 303.00" xmlns="http://www.w3.org/2000/svg" xmlns:xlink="http://www.w3.org/1999/xlink">
<g id="graph0" class="graph" transform="scale(1 1) rotate(0) translate(4 299)">
<title>include</title>
<g id="clust1" class="cluster">
<title>clusterdir_2a3c79a8659119928eb3cfb9c5637ece</title>
<g id="a_clust1"><a xlink:href="dir_2a3c79a8659119928eb3cfb9c5637ece.html" target="_top" xlink:title="icub">
<polygon fill="#ddddee" stroke="black" points="43.01,-200 43.01,-287 207.01,-287 207.01,-200 43.01,-200"/>
<text text-anchor="middle" x="125.01" y="-275" font-family="FreeSans.ttf" font-size="10.00">icub</text>
</a>
</g>
</g>
<g id="clust2" class="cluster">
<title>clusterdir_e19a85e2c87ef0ba16f64610cbd6c24e</title>
<g id="a_clust2"><a xlink:href="dir_e19a85e2c87ef0ba16f64610cbd6c24e.html" target="_top">
<polygon fill="#eeeeff" stroke="black" points="51.01,-208 51.01,-260 199.01,-260 199.01,-208 51.01,-208"/>
</a>
</g>
</g>
<!-- dir_e19a85e2c87ef0ba16f64610cbd6c24e -->
<g id="node1" class="node">
<title>dir_e19a85e2c87ef0ba16f64610cbd6c24e</title>
<text text-anchor="middle" x="164.01" y="-231.5" font-family="FreeSans.ttf" font-size="10.00">include</text>
</g>
<!-- dir_98e8eff1bcae34ea41f5986f1960f459 -->
<g id="node2" class="node">
<title>dir_98e8eff1bcae34ea41f5986f1960f459</title>
<g id="a_node2"><a xlink:href="dir_98e8eff1bcae34ea41f5986f1960f459.html" target="_top" xlink:title="iDynTree">
<polygon fill="white" stroke="black" points="118.51,-252 59.51,-252 59.51,-216 118.51,-216 118.51,-252"/>
<text text-anchor="middle" x="89.01" y="-231.5" font-family="FreeSans.ttf" font-size="10.00">iDynTree</text>
</a>
</g>
</g>
<!-- dir_710615f1fcb70e449001c5bcbae9c23a -->
<g id="node3" class="node">
<title>dir_710615f1fcb70e449001c5bcbae9c23a</title>
<g id="a_node3"><a xlink:href="dir_710615f1fcb70e449001c5bcbae9c23a.html" target="_top" xlink:title="estimation">
<polygon fill="none" stroke="red" points="83.51,-180 14.51,-180 14.51,-144 83.51,-144 83.51,-180"/>
<text text-anchor="middle" x="49.01" y="-159.5" font-family="FreeSans.ttf" font-size="10.00">estimation</text>
</a>
</g>
</g>
<!-- dir_98e8eff1bcae34ea41f5986f1960f459&#45;&gt;dir_710615f1fcb70e449001c5bcbae9c23a -->
<g id="edge1" class="edge">
<title>dir_98e8eff1bcae34ea41f5986f1960f459&#45;&gt;dir_710615f1fcb70e449001c5bcbae9c23a</title>
<path fill="none" stroke="black" d="M79.12,-215.7C74.52,-207.64 68.95,-197.89 63.85,-188.98"/>
<polygon fill="black" stroke="black" points="66.78,-187.05 58.78,-180.1 60.7,-190.52 66.78,-187.05"/>
<g id="a_edge1&#45;headlabel"><a xlink:href="dir_000047_000016.html" target="_top" xlink:title="1">
<text text-anchor="middle" x="71.03" y="-186.26" font-family="FreeSans.ttf" font-size="10.00">1</text>
</a>
</g>
</g>
<!-- dir_5dd65160827af56e6353642206b80129 -->
<g id="node4" class="node">
<title>dir_5dd65160827af56e6353642206b80129</title>
<g id="a_node4"><a xlink:href="dir_5dd65160827af56e6353642206b80129.html" target="_top" xlink:title="model">
<polygon fill="none" stroke="red" points="63.01,-108 9.01,-108 9.01,-72 63.01,-72 63.01,-108"/>
<text text-anchor="middle" x="36.01" y="-87.5" font-family="FreeSans.ttf" font-size="10.00">model</text>
</a>
</g>
</g>
<!-- dir_98e8eff1bcae34ea41f5986f1960f459&#45;&gt;dir_5dd65160827af56e6353642206b80129 -->
<g id="edge2" class="edge">
<title>dir_98e8eff1bcae34ea41f5986f1960f459&#45;&gt;dir_5dd65160827af56e6353642206b80129</title>
<path fill="none" stroke="black" d="M59.24,-222.88C40.01,-214.61 16.5,-200.84 5.01,-180 -6.13,-159.81 4.39,-134.87 16.1,-116.54"/>
<polygon fill="black" stroke="black" points="19.1,-118.35 21.85,-108.12 13.32,-114.4 19.1,-118.35"/>
<g id="a_edge2&#45;headlabel"><a xlink:href="dir_000047_000027.html" target="_top" xlink:title="5">
<text text-anchor="middle" x="19.42" y="-120.42" font-family="FreeSans.ttf" font-size="10.00">5</text>
</a>
</g>
</g>
<!-- dir_ca655c1e93447bcdfcc1afb2c793c8bd -->
<g id="node5" class="node">
<title>dir_ca655c1e93447bcdfcc1afb2c793c8bd</title>
<g id="a_node5"><a xlink:href="dir_ca655c1e93447bcdfcc1afb2c793c8bd.html" target="_top" xlink:title="yarp">
<polygon fill="none" stroke="red" points="156.01,-180 102.01,-180 102.01,-144 156.01,-144 156.01,-180"/>
<text text-anchor="middle" x="129.01" y="-159.5" font-family="FreeSans.ttf" font-size="10.00">yarp</text>
</a>
</g>
</g>
<!-- dir_98e8eff1bcae34ea41f5986f1960f459&#45;&gt;dir_ca655c1e93447bcdfcc1afb2c793c8bd -->
<g id="edge3" class="edge">
<title>dir_98e8eff1bcae34ea41f5986f1960f459&#45;&gt;dir_ca655c1e93447bcdfcc1afb2c793c8bd</title>
<path fill="none" stroke="black" d="M98.9,-215.7C103.5,-207.64 109.07,-197.89 114.16,-188.98"/>
<polygon fill="black" stroke="black" points="117.31,-190.52 119.23,-180.1 111.23,-187.05 117.31,-190.52"/>
<g id="a_edge3&#45;headlabel"><a xlink:href="dir_000047_000074.html" target="_top" xlink:title="2">
<text text-anchor="middle" x="117.99" y="-192.55" font-family="FreeSans.ttf" font-size="10.00">2</text>
</a>
</g>
</g>
<!-- dir_aebb8dcc11953d78e620bbef0b9e2183 -->
<g id="node6" class="node">
<title>dir_aebb8dcc11953d78e620bbef0b9e2183</title>
<g id="a_node6"><a xlink:href="dir_aebb8dcc11953d78e620bbef0b9e2183.html" target="_top" xlink:title="core">
<polygon fill="none" stroke="red" points="137.01,-36 83.01,-36 83.01,0 137.01,0 137.01,-36"/>
<text text-anchor="middle" x="110.01" y="-15.5" font-family="FreeSans.ttf" font-size="10.00">core</text>
</a>
</g>
</g>
<!-- dir_98e8eff1bcae34ea41f5986f1960f459&#45;&gt;dir_aebb8dcc11953d78e620bbef0b9e2183 -->
<g id="edge4" class="edge">
<title>dir_98e8eff1bcae34ea41f5986f1960f459&#45;&gt;dir_aebb8dcc11953d78e620bbef0b9e2183</title>
<path fill="none" stroke="black" d="M107.82,-215.73C114.03,-210.4 121.12,-204.7 128.01,-200 143.45,-189.46 155.43,-196.06 165.01,-180 191.25,-135.98 156.66,-77.68 131.64,-44.67"/>
<polygon fill="black" stroke="black" points="134.13,-42.18 125.21,-36.46 128.62,-46.49 134.13,-42.18"/>
<g id="a_edge4&#45;headlabel"><a xlink:href="dir_000047_000011.html" target="_top" xlink:title="2">
<text text-anchor="middle" x="138.58" y="-40.76" font-family="FreeSans.ttf" font-size="10.00">2</text>
</a>
</g>
</g>
<!-- dir_710615f1fcb70e449001c5bcbae9c23a&#45;&gt;dir_5dd65160827af56e6353642206b80129 -->
<g id="edge5" class="edge">
<title>dir_710615f1fcb70e449001c5bcbae9c23a&#45;&gt;dir_5dd65160827af56e6353642206b80129</title>
<path fill="none" stroke="black" d="M45.79,-143.7C44.36,-135.98 42.64,-126.71 41.04,-118.11"/>
<polygon fill="black" stroke="black" points="44.45,-117.3 39.18,-108.1 37.57,-118.58 44.45,-117.3"/>
<g id="a_edge5&#45;headlabel"><a xlink:href="dir_000016_000027.html" target="_top" xlink:title="46">
<text text-anchor="middle" x="47.9" y="-117.81" font-family="FreeSans.ttf" font-size="10.00">46</text>
</a>
</g>
</g>
<!-- dir_710615f1fcb70e449001c5bcbae9c23a&#45;&gt;dir_aebb8dcc11953d78e620bbef0b9e2183 -->
<g id="edge6" class="edge">
<title>dir_710615f1fcb70e449001c5bcbae9c23a&#45;&gt;dir_aebb8dcc11953d78e620bbef0b9e2183</title>
<path fill="none" stroke="black" d="M56.49,-143.83C61,-133.46 66.85,-119.98 72.01,-108 81,-87.1 91.12,-63.41 98.65,-45.73"/>
<polygon fill="black" stroke="black" points="102.06,-46.65 102.75,-36.07 95.62,-43.91 102.06,-46.65"/>
<g id="a_edge6&#45;headlabel"><a xlink:href="dir_000016_000011.html" target="_top" xlink:title="47">
<text text-anchor="middle" x="103.26" y="-48.57" font-family="FreeSans.ttf" font-size="10.00">47</text>
</a>
</g>
</g>
<!-- dir_5dd65160827af56e6353642206b80129&#45;&gt;dir_aebb8dcc11953d78e620bbef0b9e2183 -->
<g id="edge7" class="edge">
<title>dir_5dd65160827af56e6353642206b80129&#45;&gt;dir_aebb8dcc11953d78e620bbef0b9e2183</title>
<path fill="none" stroke="black" d="M54.3,-71.7C63.44,-63.05 74.65,-52.45 84.61,-43.03"/>
<polygon fill="black" stroke="black" points="87.07,-45.52 91.93,-36.1 82.26,-40.43 87.07,-45.52"/>
<g id="a_edge7&#45;headlabel"><a xlink:href="dir_000027_000011.html" target="_top" xlink:title="59">
<text text-anchor="middle" x="86.41" y="-47.55" font-family="FreeSans.ttf" font-size="10.00">59</text>
</a>
</g>
</g>
<!-- dir_ca655c1e93447bcdfcc1afb2c793c8bd&#45;&gt;dir_aebb8dcc11953d78e620bbef0b9e2183 -->
<g id="edge8" class="edge">
<title>dir_ca655c1e93447bcdfcc1afb2c793c8bd&#45;&gt;dir_aebb8dcc11953d78e620bbef0b9e2183</title>
<path fill="none" stroke="black" d="M126.72,-143.87C123.48,-119.67 117.53,-75.21 113.67,-46.39"/>
<polygon fill="black" stroke="black" points="117.1,-45.64 112.31,-36.19 110.16,-46.57 117.1,-45.64"/>
<g id="a_edge8&#45;headlabel"><a xlink:href="dir_000074_000011.html" target="_top" xlink:title="5">
<text text-anchor="middle" x="120.39" y="-46.32" font-family="FreeSans.ttf" font-size="10.00">5</text>
</a>
</g>
</g>
</g>
</svg>
