<?xml version="1.0" encoding="UTF-8" standalone="no"?>
<!DOCTYPE svg PUBLIC "-//W3C//DTD SVG 1.1//EN"
 "http://www.w3.org/Graphics/SVG/1.1/DTD/svg11.dtd">
<!-- Generated by graphviz version 2.43.0 (0)
 -->
<!-- Title: include Pages: 1 -->
<svg width="188pt" height="159pt"
 viewBox="0.00 0.00 188.00 159.00" xmlns="http://www.w3.org/2000/svg" xmlns:xlink="http://www.w3.org/1999/xlink">
<g id="graph0" class="graph" transform="scale(1 1) rotate(0) translate(4 155)">
<title>include</title>
<g id="clust1" class="cluster">
<title>clusterdir_ca655c1e93447bcdfcc1afb2c793c8bd</title>
<g id="a_clust1"><a xlink:href="dir_ca655c1e93447bcdfcc1afb2c793c8bd.html" target="_top" xlink:title="yarp">
<polygon fill="#ddddee" stroke="black" points="8,-56 8,-143 172,-143 172,-56 8,-56"/>
<text text-anchor="middle" x="90" y="-131" font-family="FreeSans.ttf" font-size="10.00">yarp</text>
</a>
</g>
</g>
<g id="clust2" class="cluster">
<title>clusterdir_7d5f0e8334612ca72a9ae21699a7b34e</title>
<g id="a_clust2"><a xlink:href="dir_7d5f0e8334612ca72a9ae21699a7b34e.html" target="_top">
<polygon fill="#eeeeff" stroke="black" points="16,-64 16,-116 164,-116 164,-64 16,-64"/>
</a>
</g>
</g>
<!-- dir_7d5f0e8334612ca72a9ae21699a7b34e -->
<g id="node1" class="node">
<title>dir_7d5f0e8334612ca72a9ae21699a7b34e</title>
<text text-anchor="middle" x="129" y="-87.5" font-family="FreeSans.ttf" font-size="10.00">include</text>
</g>
<!-- dir_e92bd7cc5c3faa48a1797a843d5dac1f -->
<g id="node2" class="node">
<title>dir_e92bd7cc5c3faa48a1797a843d5dac1f</title>
<g id="a_node2"><a xlink:href="dir_e92bd7cc5c3faa48a1797a843d5dac1f.html" target="_top" xlink:title="iDynTree">
<polygon fill="white" stroke="red" points="83.5,-108 24.5,-108 24.5,-72 83.5,-72 83.5,-108"/>
<text text-anchor="middle" x="54" y="-87.5" font-family="FreeSans.ttf" font-size="10.00">iDynTree</text>
</a>
</g>
</g>
<!-- dir_aebb8dcc11953d78e620bbef0b9e2183 -->
<g id="node3" class="node">
<title>dir_aebb8dcc11953d78e620bbef0b9e2183</title>
<g id="a_node3"><a xlink:href="dir_aebb8dcc11953d78e620bbef0b9e2183.html" target="_top" xlink:title="core">
<polygon fill="none" stroke="red" points="81,-36 27,-36 27,0 81,0 81,-36"/>
<text text-anchor="middle" x="54" y="-15.5" font-family="FreeSans.ttf" font-size="10.00">core</text>
</a>
</g>
</g>
<!-- dir_e92bd7cc5c3faa48a1797a843d5dac1f&#45;&gt;dir_aebb8dcc11953d78e620bbef0b9e2183 -->
<g id="edge1" class="edge">
<title>dir_e92bd7cc5c3faa48a1797a843d5dac1f&#45;&gt;dir_aebb8dcc11953d78e620bbef0b9e2183</title>
<path fill="none" stroke="black" d="M54,-71.7C54,-63.98 54,-54.71 54,-46.11"/>
<polygon fill="black" stroke="black" points="57.5,-46.1 54,-36.1 50.5,-46.1 57.5,-46.1"/>
<g id="a_edge1&#45;headlabel"><a xlink:href="dir_000076_000011.html" target="_top" xlink:title="5">
<text text-anchor="middle" x="60.34" y="-47.2" font-family="FreeSans.ttf" font-size="10.00">5</text>
</a>
</g>
</g>
</g>
</svg>
