<?xml version="1.0" encoding="UTF-8" standalone="no"?>
<!DOCTYPE svg PUBLIC "-//W3C//DTD SVG 1.1//EN"
 "http://www.w3.org/Graphics/SVG/1.1/DTD/svg11.dtd">
<!-- Generated by graphviz version 2.43.0 (0)
 -->
<!-- Title: include Pages: 1 -->
<svg width="189pt" height="295pt"
 viewBox="0.00 0.00 189.00 295.00" xmlns="http://www.w3.org/2000/svg" xmlns:xlink="http://www.w3.org/1999/xlink">
<g id="graph0" class="graph" transform="scale(1 1) rotate(0) translate(4 291)">
<title>include</title>
<g id="clust1" class="cluster">
<title>clusterdir_4389f904d0ef83ca978d73e67bfe11a2</title>
<g id="a_clust1"><a xlink:href="dir_4389f904d0ef83ca978d73e67bfe11a2.html" target="_top" xlink:title="plugin">
<polygon fill="#ddddee" stroke="black" points="8,-208 8,-279 78,-279 78,-208 8,-208"/>
<text text-anchor="middle" x="43" y="-267" font-family="FreeSans.ttf" font-size="10.00">plugin</text>
</a>
</g>
</g>
<!-- dir_c44975431ff540c0494452b56f599281 -->
<g id="node1" class="node">
<title>dir_c44975431ff540c0494452b56f599281</title>
<g id="a_node1"><a xlink:href="dir_c44975431ff540c0494452b56f599281.html" target="_top" xlink:title="include">
<polygon fill="#eeeeff" stroke="black" points="70,-252 16,-252 16,-216 70,-216 70,-252"/>
<text text-anchor="middle" x="43" y="-231.5" font-family="FreeSans.ttf" font-size="10.00">include</text>
</a>
</g>
</g>
<!-- dir_355314d08763ddbf0e6d36531a48f7ae -->
<g id="node2" class="node">
<title>dir_355314d08763ddbf0e6d36531a48f7ae</title>
<g id="a_node2"><a xlink:href="dir_355314d08763ddbf0e6d36531a48f7ae.html" target="_top" xlink:title="high&#45;level">
<polygon fill="none" stroke="red" points="98.5,-108 33.5,-108 33.5,-72 98.5,-72 98.5,-108"/>
<text text-anchor="middle" x="66" y="-87.5" font-family="FreeSans.ttf" font-size="10.00">high&#45;level</text>
</a>
</g>
</g>
<!-- dir_c44975431ff540c0494452b56f599281&#45;&gt;dir_355314d08763ddbf0e6d36531a48f7ae -->
<g id="edge2" class="edge">
<title>dir_c44975431ff540c0494452b56f599281&#45;&gt;dir_355314d08763ddbf0e6d36531a48f7ae</title>
<path fill="none" stroke="black" d="M45.77,-215.87C49.69,-191.67 56.9,-147.21 61.56,-118.39"/>
<polygon fill="black" stroke="black" points="65.07,-118.62 63.22,-108.19 58.16,-117.5 65.07,-118.62"/>
<g id="a_edge2&#45;headlabel"><a xlink:href="dir_000066_000053.html" target="_top" xlink:title="1">
<text text-anchor="middle" x="67.3" y="-120.12" font-family="FreeSans.ttf" font-size="10.00">1</text>
</a>
</g>
</g>
<!-- dir_aebb8dcc11953d78e620bbef0b9e2183 -->
<g id="node3" class="node">
<title>dir_aebb8dcc11953d78e620bbef0b9e2183</title>
<g id="a_node3"><a xlink:href="dir_aebb8dcc11953d78e620bbef0b9e2183.html" target="_top" xlink:title="core">
<polygon fill="none" stroke="red" points="93,-36 39,-36 39,0 93,0 93,-36"/>
<text text-anchor="middle" x="66" y="-15.5" font-family="FreeSans.ttf" font-size="10.00">core</text>
</a>
</g>
</g>
<!-- dir_c44975431ff540c0494452b56f599281&#45;&gt;dir_aebb8dcc11953d78e620bbef0b9e2183 -->
<g id="edge3" class="edge">
<title>dir_c44975431ff540c0494452b56f599281&#45;&gt;dir_aebb8dcc11953d78e620bbef0b9e2183</title>
<path fill="none" stroke="black" d="M36.01,-215.53C25,-185.38 6.6,-121.97 24,-72 27.53,-61.86 33.91,-52.19 40.64,-43.96"/>
<polygon fill="black" stroke="black" points="43.44,-46.07 47.4,-36.24 38.17,-41.46 43.44,-46.07"/>
<g id="a_edge3&#45;headlabel"><a xlink:href="dir_000066_000011.html" target="_top" xlink:title="1">
<text text-anchor="middle" x="43.21" y="-48.15" font-family="FreeSans.ttf" font-size="10.00">1</text>
</a>
</g>
</g>
<!-- dir_b7c18fbf081229a9716e24d71701f6e8 -->
<g id="node4" class="node">
<title>dir_b7c18fbf081229a9716e24d71701f6e8</title>
<g id="a_node4"><a xlink:href="dir_b7c18fbf081229a9716e24d71701f6e8.html" target="_top" xlink:title="inverse&#45;kinematics">
<polygon fill="none" stroke="red" points="181,-180 71,-180 71,-144 181,-144 181,-180"/>
<text text-anchor="middle" x="126" y="-159.5" font-family="FreeSans.ttf" font-size="10.00">inverse&#45;kinematics</text>
</a>
</g>
</g>
<!-- dir_c44975431ff540c0494452b56f599281&#45;&gt;dir_b7c18fbf081229a9716e24d71701f6e8 -->
<g id="edge4" class="edge">
<title>dir_c44975431ff540c0494452b56f599281&#45;&gt;dir_b7c18fbf081229a9716e24d71701f6e8</title>
<path fill="none" stroke="black" d="M63.52,-215.7C73.87,-206.97 86.59,-196.24 97.84,-186.75"/>
<polygon fill="black" stroke="black" points="100.33,-189.23 105.72,-180.1 95.82,-183.88 100.33,-189.23"/>
<g id="a_edge4&#45;headlabel"><a xlink:href="dir_000066_000021.html" target="_top" xlink:title="1">
<text text-anchor="middle" x="99.41" y="-191.21" font-family="FreeSans.ttf" font-size="10.00">1</text>
</a>
</g>
</g>
<!-- dir_355314d08763ddbf0e6d36531a48f7ae&#45;&gt;dir_aebb8dcc11953d78e620bbef0b9e2183 -->
<g id="edge1" class="edge">
<title>dir_355314d08763ddbf0e6d36531a48f7ae&#45;&gt;dir_aebb8dcc11953d78e620bbef0b9e2183</title>
<path fill="none" stroke="black" d="M66,-71.7C66,-63.98 66,-54.71 66,-46.11"/>
<polygon fill="black" stroke="black" points="69.5,-46.1 66,-36.1 62.5,-46.1 69.5,-46.1"/>
<g id="a_edge1&#45;headlabel"><a xlink:href="dir_000053_000011.html" target="_top" xlink:title="16">
<text text-anchor="middle" x="72.34" y="-47.2" font-family="FreeSans.ttf" font-size="10.00">16</text>
</a>
</g>
</g>
<!-- dir_b7c18fbf081229a9716e24d71701f6e8&#45;&gt;dir_355314d08763ddbf0e6d36531a48f7ae -->
<g id="edge5" class="edge">
<title>dir_b7c18fbf081229a9716e24d71701f6e8&#45;&gt;dir_355314d08763ddbf0e6d36531a48f7ae</title>
<path fill="none" stroke="black" d="M111.17,-143.7C103.98,-135.3 95.2,-125.07 87.31,-115.86"/>
<polygon fill="black" stroke="black" points="89.83,-113.42 80.66,-108.1 84.51,-117.97 89.83,-113.42"/>
<g id="a_edge5&#45;headlabel"><a xlink:href="dir_000021_000053.html" target="_top" xlink:title="1">
<text text-anchor="middle" x="94.32" y="-111.8" font-family="FreeSans.ttf" font-size="10.00">1</text>
</a>
</g>
</g>
<!-- dir_b7c18fbf081229a9716e24d71701f6e8&#45;&gt;dir_aebb8dcc11953d78e620bbef0b9e2183 -->
<g id="edge6" class="edge">
<title>dir_b7c18fbf081229a9716e24d71701f6e8&#45;&gt;dir_aebb8dcc11953d78e620bbef0b9e2183</title>
<path fill="none" stroke="black" d="M124.63,-143.89C122.64,-125.42 117.9,-95.5 107,-72 102.45,-62.19 95.79,-52.51 89.16,-44.16"/>
<polygon fill="black" stroke="black" points="91.71,-41.75 82.62,-36.3 86.33,-46.23 91.71,-41.75"/>
<g id="a_edge6&#45;headlabel"><a xlink:href="dir_000021_000011.html" target="_top" xlink:title="30">
<text text-anchor="middle" x="96.19" y="-40.2" font-family="FreeSans.ttf" font-size="10.00">30</text>
</a>
</g>
</g>
</g>
</svg>
