<?xml version="1.0" encoding="UTF-8" standalone="no"?>
<!DOCTYPE svg PUBLIC "-//W3C//DTD SVG 1.1//EN"
 "http://www.w3.org/Graphics/SVG/1.1/DTD/svg11.dtd">
<!-- Generated by graphviz version 2.43.0 (0)
 -->
<!-- Title: private Pages: 1 -->
<svg width="216pt" height="295pt"
 viewBox="0.00 0.00 215.50 295.00" xmlns="http://www.w3.org/2000/svg" xmlns:xlink="http://www.w3.org/1999/xlink">
<g id="graph0" class="graph" transform="scale(1 1) rotate(0) translate(4 291)">
<title>private</title>
<g id="clust1" class="cluster">
<title>clusterdir_264a460a30613f42eafbf69c86d5a428</title>
<g id="a_clust1"><a xlink:href="dir_264a460a30613f42eafbf69c86d5a428.html" target="_top" xlink:title="include">
<polygon fill="#ddddee" stroke="black" points="54,-208 54,-279 124,-279 124,-208 54,-208"/>
<text text-anchor="middle" x="89" y="-267" font-family="FreeSans.ttf" font-size="10.00">include</text>
</a>
</g>
</g>
<!-- dir_dffea4b92cacc2f3de0172caac576a81 -->
<g id="node1" class="node">
<title>dir_dffea4b92cacc2f3de0172caac576a81</title>
<g id="a_node1"><a xlink:href="dir_dffea4b92cacc2f3de0172caac576a81.html" target="_top" xlink:title="private">
<polygon fill="#eeeeff" stroke="black" points="116,-252 62,-252 62,-216 116,-216 116,-252"/>
<text text-anchor="middle" x="89" y="-231.5" font-family="FreeSans.ttf" font-size="10.00">private</text>
</a>
</g>
</g>
<!-- dir_355314d08763ddbf0e6d36531a48f7ae -->
<g id="node2" class="node">
<title>dir_355314d08763ddbf0e6d36531a48f7ae</title>
<g id="a_node2"><a xlink:href="dir_355314d08763ddbf0e6d36531a48f7ae.html" target="_top" xlink:title="high&#45;level">
<polygon fill="none" stroke="red" points="91.5,-180 26.5,-180 26.5,-144 91.5,-144 91.5,-180"/>
<text text-anchor="middle" x="59" y="-159.5" font-family="FreeSans.ttf" font-size="10.00">high&#45;level</text>
</a>
</g>
</g>
<!-- dir_dffea4b92cacc2f3de0172caac576a81&#45;&gt;dir_355314d08763ddbf0e6d36531a48f7ae -->
<g id="edge1" class="edge">
<title>dir_dffea4b92cacc2f3de0172caac576a81&#45;&gt;dir_355314d08763ddbf0e6d36531a48f7ae</title>
<path fill="none" stroke="black" d="M81.58,-215.7C78.21,-207.81 74.13,-198.3 70.38,-189.55"/>
<polygon fill="black" stroke="black" points="73.49,-187.92 66.33,-180.1 67.05,-190.67 73.49,-187.92"/>
<g id="a_edge1&#45;headlabel"><a xlink:href="dir_000052_000053.html" target="_top" xlink:title="1">
<text text-anchor="middle" x="77.51" y="-187.6" font-family="FreeSans.ttf" font-size="10.00">1</text>
</a>
</g>
</g>
<!-- dir_5dd65160827af56e6353642206b80129 -->
<g id="node3" class="node">
<title>dir_5dd65160827af56e6353642206b80129</title>
<g id="a_node3"><a xlink:href="dir_5dd65160827af56e6353642206b80129.html" target="_top" xlink:title="model">
<polygon fill="none" stroke="red" points="54,-108 0,-108 0,-72 54,-72 54,-108"/>
<text text-anchor="middle" x="27" y="-87.5" font-family="FreeSans.ttf" font-size="10.00">model</text>
</a>
</g>
</g>
<!-- dir_dffea4b92cacc2f3de0172caac576a81&#45;&gt;dir_5dd65160827af56e6353642206b80129 -->
<g id="edge2" class="edge">
<title>dir_dffea4b92cacc2f3de0172caac576a81&#45;&gt;dir_5dd65160827af56e6353642206b80129</title>
<path fill="none" stroke="black" d="M61.92,-221.01C45.67,-212.21 26.38,-198.56 17,-180 7.23,-160.68 11.05,-136.05 16.56,-117.6"/>
<polygon fill="black" stroke="black" points="19.9,-118.66 19.72,-108.06 13.25,-116.46 19.9,-118.66"/>
<g id="a_edge2&#45;headlabel"><a xlink:href="dir_000052_000027.html" target="_top" xlink:title="1">
<text text-anchor="middle" x="21.46" y="-120.46" font-family="FreeSans.ttf" font-size="10.00">1</text>
</a>
</g>
</g>
<!-- dir_aebb8dcc11953d78e620bbef0b9e2183 -->
<g id="node4" class="node">
<title>dir_aebb8dcc11953d78e620bbef0b9e2183</title>
<g id="a_node4"><a xlink:href="dir_aebb8dcc11953d78e620bbef0b9e2183.html" target="_top" xlink:title="core">
<polygon fill="none" stroke="red" points="128,-36 74,-36 74,0 128,0 128,-36"/>
<text text-anchor="middle" x="101" y="-15.5" font-family="FreeSans.ttf" font-size="10.00">core</text>
</a>
</g>
</g>
<!-- dir_dffea4b92cacc2f3de0172caac576a81&#45;&gt;dir_aebb8dcc11953d78e620bbef0b9e2183 -->
<g id="edge3" class="edge">
<title>dir_dffea4b92cacc2f3de0172caac576a81&#45;&gt;dir_aebb8dcc11953d78e620bbef0b9e2183</title>
<path fill="none" stroke="black" d="M93.87,-215.98C96.56,-205.67 99.64,-192.19 101,-180 106.22,-133.33 104.59,-78.57 102.85,-46.45"/>
<polygon fill="black" stroke="black" points="106.34,-46.24 102.27,-36.46 99.36,-46.65 106.34,-46.24"/>
<g id="a_edge3&#45;headlabel"><a xlink:href="dir_000052_000011.html" target="_top" xlink:title="10">
<text text-anchor="middle" x="109.39" y="-47.16" font-family="FreeSans.ttf" font-size="10.00">10</text>
</a>
</g>
</g>
<!-- dir_8a9a7493649de9ea8cf66fdadb0b3b4d -->
<g id="node5" class="node">
<title>dir_8a9a7493649de9ea8cf66fdadb0b3b4d</title>
<g id="a_node5"><a xlink:href="dir_8a9a7493649de9ea8cf66fdadb0b3b4d.html" target="_top" xlink:title="iDynTree">
<polygon fill="none" stroke="black" points="207.5,-180 148.5,-180 148.5,-144 207.5,-144 207.5,-180"/>
<text text-anchor="middle" x="178" y="-159.5" font-family="FreeSans.ttf" font-size="10.00">iDynTree</text>
</a>
</g>
</g>
<!-- dir_dffea4b92cacc2f3de0172caac576a81&#45;&gt;dir_8a9a7493649de9ea8cf66fdadb0b3b4d -->
<g id="edge4" class="edge">
<title>dir_dffea4b92cacc2f3de0172caac576a81&#45;&gt;dir_8a9a7493649de9ea8cf66fdadb0b3b4d</title>
<path fill="none" stroke="black" d="M111,-215.7C122.21,-206.88 136,-196.03 148.15,-186.47"/>
<polygon fill="black" stroke="black" points="150.56,-189.04 156.25,-180.1 146.23,-183.54 150.56,-189.04"/>
<g id="a_edge4&#45;headlabel"><a xlink:href="dir_000052_000024.html" target="_top" xlink:title="3">
<text text-anchor="middle" x="149.49" y="-190.99" font-family="FreeSans.ttf" font-size="10.00">3</text>
</a>
</g>
</g>
<!-- dir_355314d08763ddbf0e6d36531a48f7ae&#45;&gt;dir_5dd65160827af56e6353642206b80129 -->
<g id="edge5" class="edge">
<title>dir_355314d08763ddbf0e6d36531a48f7ae&#45;&gt;dir_5dd65160827af56e6353642206b80129</title>
<path fill="none" stroke="black" d="M51.09,-143.7C47.45,-135.73 43.05,-126.1 39.01,-117.26"/>
<polygon fill="black" stroke="black" points="42.16,-115.74 34.82,-108.1 35.79,-118.65 42.16,-115.74"/>
<g id="a_edge5&#45;headlabel"><a xlink:href="dir_000053_000027.html" target="_top" xlink:title="11">
<text text-anchor="middle" x="46.24" y="-115.33" font-family="FreeSans.ttf" font-size="10.00">11</text>
</a>
</g>
</g>
<!-- dir_355314d08763ddbf0e6d36531a48f7ae&#45;&gt;dir_aebb8dcc11953d78e620bbef0b9e2183 -->
<g id="edge6" class="edge">
<title>dir_355314d08763ddbf0e6d36531a48f7ae&#45;&gt;dir_aebb8dcc11953d78e620bbef0b9e2183</title>
<path fill="none" stroke="black" d="M64.07,-143.87C71.26,-119.56 84.49,-74.82 93.01,-46.01"/>
<polygon fill="black" stroke="black" points="96.44,-46.77 95.92,-36.19 89.72,-44.79 96.44,-46.77"/>
<g id="a_edge6&#45;headlabel"><a xlink:href="dir_000053_000011.html" target="_top" xlink:title="16">
<text text-anchor="middle" x="98.14" y="-48.52" font-family="FreeSans.ttf" font-size="10.00">16</text>
</a>
</g>
</g>
<!-- dir_5dd65160827af56e6353642206b80129&#45;&gt;dir_aebb8dcc11953d78e620bbef0b9e2183 -->
<g id="edge7" class="edge">
<title>dir_5dd65160827af56e6353642206b80129&#45;&gt;dir_aebb8dcc11953d78e620bbef0b9e2183</title>
<path fill="none" stroke="black" d="M45.29,-71.7C54.43,-63.05 65.64,-52.45 75.6,-43.03"/>
<polygon fill="black" stroke="black" points="78.06,-45.52 82.92,-36.1 73.25,-40.43 78.06,-45.52"/>
<g id="a_edge7&#45;headlabel"><a xlink:href="dir_000027_000011.html" target="_top" xlink:title="59">
<text text-anchor="middle" x="77.4" y="-47.55" font-family="FreeSans.ttf" font-size="10.00">59</text>
</a>
</g>
</g>
<!-- dir_8a9a7493649de9ea8cf66fdadb0b3b4d&#45;&gt;dir_aebb8dcc11953d78e620bbef0b9e2183 -->
<g id="edge8" class="edge">
<title>dir_8a9a7493649de9ea8cf66fdadb0b3b4d&#45;&gt;dir_aebb8dcc11953d78e620bbef0b9e2183</title>
<path fill="none" stroke="black" d="M170.05,-143.68C161.6,-125.56 147.58,-96.4 134,-72 129.04,-63.1 123.28,-53.59 117.97,-45.12"/>
<polygon fill="black" stroke="black" points="120.75,-42.98 112.44,-36.41 114.84,-46.73 120.75,-42.98"/>
<g id="a_edge8&#45;headlabel"><a xlink:href="dir_000024_000011.html" target="_top" xlink:title="9">
<text text-anchor="middle" x="125.08" y="-41.99" font-family="FreeSans.ttf" font-size="10.00">9</text>
</a>
</g>
</g>
</g>
</svg>
