<?xml version="1.0" encoding="UTF-8" standalone="no"?>
<!DOCTYPE svg PUBLIC "-//W3C//DTD SVG 1.1//EN"
 "http://www.w3.org/Graphics/SVG/1.1/DTD/svg11.dtd">
<!-- Generated by graphviz version 2.43.0 (0)
 -->
<!-- Title: tools Pages: 1 -->
<svg width="659pt" height="375pt"
 viewBox="0.00 0.00 659.00 375.00" xmlns="http://www.w3.org/2000/svg" xmlns:xlink="http://www.w3.org/1999/xlink">
<g id="graph0" class="graph" transform="scale(1 1) rotate(0) translate(4 371)">
<title>tools</title>
<g id="clust1" class="cluster">
<title>clusterdir_68267d1309a1af8e8297ef4c3efbcdba</title>
<g id="a_clust1"><a xlink:href="dir_68267d1309a1af8e8297ef4c3efbcdba.html" target="_top" xlink:title="src">
<polygon fill="#ddddee" stroke="black" points="105,-272 105,-359 533,-359 533,-272 105,-272"/>
<text text-anchor="middle" x="319" y="-347" font-family="FreeSans.ttf" font-size="10.00">src</text>
</a>
</g>
</g>
<g id="clust2" class="cluster">
<title>clusterdir_1563a38af0d3a5e4a6330d6d45e9792a</title>
<g id="a_clust2"><a xlink:href="dir_1563a38af0d3a5e4a6330d6d45e9792a.html" target="_top">
<polygon fill="#eeeeff" stroke="black" points="113,-280 113,-332 525,-332 525,-280 113,-280"/>
</a>
</g>
</g>
<!-- dir_1563a38af0d3a5e4a6330d6d45e9792a -->
<g id="node1" class="node">
<title>dir_1563a38af0d3a5e4a6330d6d45e9792a</title>
<text text-anchor="middle" x="148" y="-303.5" font-family="FreeSans.ttf" font-size="10.00">tools</text>
</g>
<!-- dir_316a0dddb2dbe91a12d5288b17ad5f68 -->
<g id="node5" class="node">
<title>dir_316a0dddb2dbe91a12d5288b17ad5f68</title>
<g id="a_node5"><a xlink:href="dir_316a0dddb2dbe91a12d5288b17ad5f68.html" target="_top" xlink:title="solid&#45;shapes">
<polygon fill="none" stroke="red" points="188,-180 110,-180 110,-144 188,-144 188,-180"/>
<text text-anchor="middle" x="149" y="-159.5" font-family="FreeSans.ttf" font-size="10.00">solid&#45;shapes</text>
</a>
</g>
</g>
<!-- dir_1563a38af0d3a5e4a6330d6d45e9792a&#45;&gt;dir_316a0dddb2dbe91a12d5288b17ad5f68 -->
<g id="edge19" class="edge">
<title>dir_1563a38af0d3a5e4a6330d6d45e9792a&#45;&gt;dir_316a0dddb2dbe91a12d5288b17ad5f68</title>
<path fill="none" stroke="black" d="M148.12,-287.87C148.29,-263.67 148.6,-219.21 148.81,-190.39"/>
<polygon fill="black" stroke="black" points="152.31,-190.21 148.88,-180.19 145.31,-190.16 152.31,-190.21"/>
<g id="a_edge19&#45;headlabel"><a xlink:href="dir_000031_000048.html" target="_top" xlink:title="1">
<text text-anchor="middle" x="155.12" y="-191.33" font-family="FreeSans.ttf" font-size="10.00">1</text>
</a>
</g>
</g>
<!-- dir_2a3c79a8659119928eb3cfb9c5637ece -->
<g id="node6" class="node">
<title>dir_2a3c79a8659119928eb3cfb9c5637ece</title>
<g id="a_node6"><a xlink:href="dir_2a3c79a8659119928eb3cfb9c5637ece.html" target="_top" xlink:title="icub">
<polygon fill="none" stroke="red" points="54,-180 0,-180 0,-144 54,-144 54,-180"/>
<text text-anchor="middle" x="27" y="-159.5" font-family="FreeSans.ttf" font-size="10.00">icub</text>
</a>
</g>
</g>
<!-- dir_1563a38af0d3a5e4a6330d6d45e9792a&#45;&gt;dir_2a3c79a8659119928eb3cfb9c5637ece -->
<g id="edge20" class="edge">
<title>dir_1563a38af0d3a5e4a6330d6d45e9792a&#45;&gt;dir_2a3c79a8659119928eb3cfb9c5637ece</title>
<path fill="none" stroke="black" d="M120.71,-291.91C103.77,-282.68 82.53,-268.95 68,-252 52.42,-233.83 41.58,-208.74 34.98,-189.84"/>
<polygon fill="black" stroke="black" points="38.29,-188.71 31.82,-180.32 31.65,-190.91 38.29,-188.71"/>
<g id="a_edge20&#45;headlabel"><a xlink:href="dir_000031_000045.html" target="_top" xlink:title="1">
<text text-anchor="middle" x="42.12" y="-188.73" font-family="FreeSans.ttf" font-size="10.00">1</text>
</a>
</g>
</g>
<!-- dir_b00de47ad7e2e13a637d9aa605dec95e -->
<g id="node9" class="node">
<title>dir_b00de47ad7e2e13a637d9aa605dec95e</title>
<g id="a_node9"><a xlink:href="dir_b00de47ad7e2e13a637d9aa605dec95e.html" target="_top" xlink:title="visualization">
<polygon fill="none" stroke="red" points="285.5,-180 206.5,-180 206.5,-144 285.5,-144 285.5,-180"/>
<text text-anchor="middle" x="246" y="-159.5" font-family="FreeSans.ttf" font-size="10.00">visualization</text>
</a>
</g>
</g>
<!-- dir_1563a38af0d3a5e4a6330d6d45e9792a&#45;&gt;dir_b00de47ad7e2e13a637d9aa605dec95e -->
<g id="edge21" class="edge">
<title>dir_1563a38af0d3a5e4a6330d6d45e9792a&#45;&gt;dir_b00de47ad7e2e13a637d9aa605dec95e</title>
<path fill="none" stroke="black" d="M159.82,-287.87C176.89,-263.14 208.57,-217.24 228.39,-188.51"/>
<polygon fill="black" stroke="black" points="231.34,-190.41 234.14,-180.19 225.58,-186.43 231.34,-190.41"/>
<g id="a_edge21&#45;headlabel"><a xlink:href="dir_000031_000025.html" target="_top" xlink:title="1">
<text text-anchor="middle" x="231.63" y="-192.48" font-family="FreeSans.ttf" font-size="10.00">1</text>
</a>
</g>
</g>
<!-- dir_ce3110c984dd789bf2bbc46e7dc85c8e -->
<g id="node2" class="node">
<title>dir_ce3110c984dd789bf2bbc46e7dc85c8e</title>
<g id="a_node2"><a xlink:href="dir_ce3110c984dd789bf2bbc46e7dc85c8e.html" target="_top" xlink:title="idyntree&#45;sole&#45;gui">
<polygon fill="white" stroke="red" points="517,-324 417,-324 417,-288 517,-288 517,-324"/>
<text text-anchor="middle" x="467" y="-303.5" font-family="FreeSans.ttf" font-size="10.00">idyntree&#45;sole&#45;gui</text>
</a>
</g>
</g>
<!-- dir_355314d08763ddbf0e6d36531a48f7ae -->
<g id="node7" class="node">
<title>dir_355314d08763ddbf0e6d36531a48f7ae</title>
<g id="a_node7"><a xlink:href="dir_355314d08763ddbf0e6d36531a48f7ae.html" target="_top" xlink:title="high&#45;level">
<polygon fill="none" stroke="red" points="499.5,-252 434.5,-252 434.5,-216 499.5,-216 499.5,-252"/>
<text text-anchor="middle" x="467" y="-231.5" font-family="FreeSans.ttf" font-size="10.00">high&#45;level</text>
</a>
</g>
</g>
<!-- dir_ce3110c984dd789bf2bbc46e7dc85c8e&#45;&gt;dir_355314d08763ddbf0e6d36531a48f7ae -->
<g id="edge27" class="edge">
<title>dir_ce3110c984dd789bf2bbc46e7dc85c8e&#45;&gt;dir_355314d08763ddbf0e6d36531a48f7ae</title>
<path fill="none" stroke="black" d="M467,-287.7C467,-279.98 467,-270.71 467,-262.11"/>
<polygon fill="black" stroke="black" points="470.5,-262.1 467,-252.1 463.5,-262.1 470.5,-262.1"/>
<g id="a_edge27&#45;headlabel"><a xlink:href="dir_000057_000053.html" target="_top" xlink:title="1">
<text text-anchor="middle" x="473.34" y="-263.2" font-family="FreeSans.ttf" font-size="10.00">1</text>
</a>
</g>
</g>
<!-- dir_fb93052291ccda37fd41b6d18f3dfcc9 -->
<g id="node8" class="node">
<title>dir_fb93052291ccda37fd41b6d18f3dfcc9</title>
<g id="a_node8"><a xlink:href="dir_fb93052291ccda37fd41b6d18f3dfcc9.html" target="_top" xlink:title="model_io">
<polygon fill="none" stroke="red" points="557,-180 495,-180 495,-144 557,-144 557,-180"/>
<text text-anchor="middle" x="526" y="-159.5" font-family="FreeSans.ttf" font-size="10.00">model_io</text>
</a>
</g>
</g>
<!-- dir_ce3110c984dd789bf2bbc46e7dc85c8e&#45;&gt;dir_fb93052291ccda37fd41b6d18f3dfcc9 -->
<g id="edge28" class="edge">
<title>dir_ce3110c984dd789bf2bbc46e7dc85c8e&#45;&gt;dir_fb93052291ccda37fd41b6d18f3dfcc9</title>
<path fill="none" stroke="black" d="M484.15,-287.82C492.9,-278.08 502.94,-265.24 509,-252 517.94,-232.48 522.18,-208.49 524.19,-190.33"/>
<polygon fill="black" stroke="black" points="527.69,-190.42 525.15,-180.13 520.73,-189.76 527.69,-190.42"/>
<g id="a_edge28&#45;headlabel"><a xlink:href="dir_000057_000040.html" target="_top" xlink:title="1">
<text text-anchor="middle" x="530.18" y="-191.77" font-family="FreeSans.ttf" font-size="10.00">1</text>
</a>
</g>
</g>
<!-- dir_5dd65160827af56e6353642206b80129 -->
<g id="node10" class="node">
<title>dir_5dd65160827af56e6353642206b80129</title>
<g id="a_node10"><a xlink:href="dir_5dd65160827af56e6353642206b80129.html" target="_top" xlink:title="model">
<polygon fill="none" stroke="red" points="396,-108 342,-108 342,-72 396,-72 396,-108"/>
<text text-anchor="middle" x="369" y="-87.5" font-family="FreeSans.ttf" font-size="10.00">model</text>
</a>
</g>
</g>
<!-- dir_ce3110c984dd789bf2bbc46e7dc85c8e&#45;&gt;dir_5dd65160827af56e6353642206b80129 -->
<g id="edge29" class="edge">
<title>dir_ce3110c984dd789bf2bbc46e7dc85c8e&#45;&gt;dir_5dd65160827af56e6353642206b80129</title>
<path fill="none" stroke="black" d="M451.45,-287.83C443.06,-277.91 433.02,-264.87 426,-252 401.79,-207.61 384.54,-150.91 375.72,-118"/>
<polygon fill="black" stroke="black" points="379.07,-116.99 373.15,-108.2 372.3,-118.76 379.07,-116.99"/>
<g id="a_edge29&#45;headlabel"><a xlink:href="dir_000057_000027.html" target="_top" xlink:title="1">
<text text-anchor="middle" x="382.73" y="-117.25" font-family="FreeSans.ttf" font-size="10.00">1</text>
</a>
</g>
</g>
<!-- dir_aebb8dcc11953d78e620bbef0b9e2183 -->
<g id="node12" class="node">
<title>dir_aebb8dcc11953d78e620bbef0b9e2183</title>
<g id="a_node12"><a xlink:href="dir_aebb8dcc11953d78e620bbef0b9e2183.html" target="_top" xlink:title="core">
<polygon fill="none" stroke="red" points="368,-36 314,-36 314,0 368,0 368,-36"/>
<text text-anchor="middle" x="341" y="-15.5" font-family="FreeSans.ttf" font-size="10.00">core</text>
</a>
</g>
</g>
<!-- dir_ce3110c984dd789bf2bbc46e7dc85c8e&#45;&gt;dir_aebb8dcc11953d78e620bbef0b9e2183 -->
<g id="edge30" class="edge">
<title>dir_ce3110c984dd789bf2bbc46e7dc85c8e&#45;&gt;dir_aebb8dcc11953d78e620bbef0b9e2183</title>
<path fill="none" stroke="black" d="M490.34,-287.91C525.63,-259.79 586.43,-201.16 566,-144 552.08,-105.04 541.22,-95.25 507,-72 467.48,-45.16 413.55,-31.26 378.03,-24.56"/>
<polygon fill="black" stroke="black" points="378.54,-21.09 368.08,-22.78 377.31,-27.98 378.54,-21.09"/>
<g id="a_edge30&#45;headlabel"><a xlink:href="dir_000057_000011.html" target="_top" xlink:title="3">
<text text-anchor="middle" x="382.58" y="-16.43" font-family="FreeSans.ttf" font-size="10.00">3</text>
</a>
</g>
</g>
<!-- dir_b7c18fbf081229a9716e24d71701f6e8 -->
<g id="node13" class="node">
<title>dir_b7c18fbf081229a9716e24d71701f6e8</title>
<g id="a_node13"><a xlink:href="dir_b7c18fbf081229a9716e24d71701f6e8.html" target="_top" xlink:title="inverse&#45;kinematics">
<polygon fill="none" stroke="red" points="651,-324 541,-324 541,-288 651,-288 651,-324"/>
<text text-anchor="middle" x="596" y="-303.5" font-family="FreeSans.ttf" font-size="10.00">inverse&#45;kinematics</text>
</a>
</g>
</g>
<!-- dir_ce3110c984dd789bf2bbc46e7dc85c8e&#45;&gt;dir_b7c18fbf081229a9716e24d71701f6e8 -->
<g id="edge31" class="edge">
<title>dir_ce3110c984dd789bf2bbc46e7dc85c8e&#45;&gt;dir_b7c18fbf081229a9716e24d71701f6e8</title>
<path fill="none" stroke="black" d="M517.14,-306C521.71,-306 526.28,-306 530.85,-306"/>
<polygon fill="black" stroke="black" points="530.86,-309.5 540.86,-306 530.86,-302.5 530.86,-309.5"/>
<g id="a_edge31&#45;headlabel"><a xlink:href="dir_000057_000021.html" target="_top" xlink:title="2">
<text text-anchor="middle" x="527.26" y="-309.84" font-family="FreeSans.ttf" font-size="10.00">2</text>
</a>
</g>
</g>
<!-- dir_93fd46024a6aec3abc84549d4959da8d -->
<g id="node3" class="node">
<title>dir_93fd46024a6aec3abc84549d4959da8d</title>
<g id="a_node3"><a xlink:href="dir_93fd46024a6aec3abc84549d4959da8d.html" target="_top" xlink:title="plotter">
<polygon fill="white" stroke="red" points="247,-324 193,-324 193,-288 247,-288 247,-324"/>
<text text-anchor="middle" x="220" y="-303.5" font-family="FreeSans.ttf" font-size="10.00">plotter</text>
</a>
</g>
</g>
<!-- dir_d32611501a8b9f9ee5f85682f67560af -->
<g id="node4" class="node">
<title>dir_d32611501a8b9f9ee5f85682f67560af</title>
<g id="a_node4"><a xlink:href="dir_d32611501a8b9f9ee5f85682f67560af.html" target="_top" xlink:title="yarprobotstatepublisher">
<polygon fill="white" stroke="red" points="399,-324 265,-324 265,-288 399,-288 399,-324"/>
<text text-anchor="middle" x="332" y="-303.5" font-family="FreeSans.ttf" font-size="10.00">yarprobotstatepublisher</text>
</a>
</g>
</g>
<!-- dir_d32611501a8b9f9ee5f85682f67560af&#45;&gt;dir_355314d08763ddbf0e6d36531a48f7ae -->
<g id="edge6" class="edge">
<title>dir_d32611501a8b9f9ee5f85682f67560af&#45;&gt;dir_355314d08763ddbf0e6d36531a48f7ae</title>
<path fill="none" stroke="black" d="M365.02,-287.88C383.22,-278.44 405.98,-266.64 425.38,-256.58"/>
<polygon fill="black" stroke="black" points="427.05,-259.66 434.32,-251.95 423.83,-253.44 427.05,-259.66"/>
<g id="a_edge6&#45;headlabel"><a xlink:href="dir_000059_000053.html" target="_top" xlink:title="2">
<text text-anchor="middle" x="425.17" y="-261.33" font-family="FreeSans.ttf" font-size="10.00">2</text>
</a>
</g>
</g>
<!-- dir_d32611501a8b9f9ee5f85682f67560af&#45;&gt;dir_fb93052291ccda37fd41b6d18f3dfcc9 -->
<g id="edge7" class="edge">
<title>dir_d32611501a8b9f9ee5f85682f67560af&#45;&gt;dir_fb93052291ccda37fd41b6d18f3dfcc9</title>
<path fill="none" stroke="black" d="M347.45,-287.8C365.17,-268.72 395.7,-237.76 426,-216 444.57,-202.67 466.91,-190.51 485.77,-181.21"/>
<polygon fill="black" stroke="black" points="487.51,-184.25 494.99,-176.75 484.46,-177.95 487.51,-184.25"/>
<g id="a_edge7&#45;headlabel"><a xlink:href="dir_000059_000040.html" target="_top" xlink:title="1">
<text text-anchor="middle" x="485.51" y="-185.87" font-family="FreeSans.ttf" font-size="10.00">1</text>
</a>
</g>
</g>
<!-- dir_d32611501a8b9f9ee5f85682f67560af&#45;&gt;dir_5dd65160827af56e6353642206b80129 -->
<g id="edge8" class="edge">
<title>dir_d32611501a8b9f9ee5f85682f67560af&#45;&gt;dir_5dd65160827af56e6353642206b80129</title>
<path fill="none" stroke="black" d="M334.97,-287.85C341.38,-250.75 356.58,-162.81 364.31,-118.1"/>
<polygon fill="black" stroke="black" points="367.77,-118.68 366.02,-108.23 360.87,-117.49 367.77,-118.68"/>
<g id="a_edge8&#45;headlabel"><a xlink:href="dir_000059_000027.html" target="_top" xlink:title="1">
<text text-anchor="middle" x="369.95" y="-120.21" font-family="FreeSans.ttf" font-size="10.00">1</text>
</a>
</g>
</g>
<!-- dir_ca655c1e93447bcdfcc1afb2c793c8bd -->
<g id="node11" class="node">
<title>dir_ca655c1e93447bcdfcc1afb2c793c8bd</title>
<g id="a_node11"><a xlink:href="dir_ca655c1e93447bcdfcc1afb2c793c8bd.html" target="_top" xlink:title="yarp">
<polygon fill="none" stroke="red" points="109,-108 55,-108 55,-72 109,-72 109,-108"/>
<text text-anchor="middle" x="82" y="-87.5" font-family="FreeSans.ttf" font-size="10.00">yarp</text>
</a>
</g>
</g>
<!-- dir_d32611501a8b9f9ee5f85682f67560af&#45;&gt;dir_ca655c1e93447bcdfcc1afb2c793c8bd -->
<g id="edge9" class="edge">
<title>dir_d32611501a8b9f9ee5f85682f67560af&#45;&gt;dir_ca655c1e93447bcdfcc1afb2c793c8bd</title>
<path fill="none" stroke="black" d="M296.44,-287.82C234.94,-257.8 113.98,-197.34 101,-180 87.72,-162.26 83.29,-137.24 82,-118.25"/>
<polygon fill="black" stroke="black" points="85.49,-117.97 81.56,-108.13 78.49,-118.27 85.49,-117.97"/>
<g id="a_edge9&#45;headlabel"><a xlink:href="dir_000059_000074.html" target="_top" xlink:title="1">
<text text-anchor="middle" x="88.48" y="-118.94" font-family="FreeSans.ttf" font-size="10.00">1</text>
</a>
</g>
</g>
<!-- dir_d32611501a8b9f9ee5f85682f67560af&#45;&gt;dir_aebb8dcc11953d78e620bbef0b9e2183 -->
<g id="edge10" class="edge">
<title>dir_d32611501a8b9f9ee5f85682f67560af&#45;&gt;dir_aebb8dcc11953d78e620bbef0b9e2183</title>
<path fill="none" stroke="black" d="M331.22,-287.72C329.65,-249.02 326.79,-152.46 333,-72 333.65,-63.52 334.86,-54.34 336.14,-46.04"/>
<polygon fill="black" stroke="black" points="339.61,-46.55 337.77,-36.11 332.7,-45.42 339.61,-46.55"/>
<g id="a_edge10&#45;headlabel"><a xlink:href="dir_000059_000011.html" target="_top" xlink:title="1">
<text text-anchor="middle" x="341.83" y="-48.05" font-family="FreeSans.ttf" font-size="10.00">1</text>
</a>
</g>
</g>
<!-- dir_316a0dddb2dbe91a12d5288b17ad5f68&#45;&gt;dir_5dd65160827af56e6353642206b80129 -->
<g id="edge1" class="edge">
<title>dir_316a0dddb2dbe91a12d5288b17ad5f68&#45;&gt;dir_5dd65160827af56e6353642206b80129</title>
<path fill="none" stroke="black" d="M188.25,-146.95C191.2,-145.94 194.15,-144.94 197,-144 243.3,-128.67 297.09,-112.33 332.01,-101.91"/>
<polygon fill="black" stroke="black" points="333.19,-105.21 341.78,-99.01 331.2,-98.5 333.19,-105.21"/>
<g id="a_edge1&#45;headlabel"><a xlink:href="dir_000048_000027.html" target="_top" xlink:title="4">
<text text-anchor="middle" x="330.56" y="-106.46" font-family="FreeSans.ttf" font-size="10.00">4</text>
</a>
</g>
</g>
<!-- dir_316a0dddb2dbe91a12d5288b17ad5f68&#45;&gt;dir_aebb8dcc11953d78e620bbef0b9e2183 -->
<g id="edge2" class="edge">
<title>dir_316a0dddb2dbe91a12d5288b17ad5f68&#45;&gt;dir_aebb8dcc11953d78e620bbef0b9e2183</title>
<path fill="none" stroke="black" d="M172.16,-143.87C206.47,-118.5 270.89,-70.85 309.47,-42.32"/>
<polygon fill="black" stroke="black" points="311.8,-44.95 317.76,-36.19 307.64,-39.32 311.8,-44.95"/>
<g id="a_edge2&#45;headlabel"><a xlink:href="dir_000048_000011.html" target="_top" xlink:title="5">
<text text-anchor="middle" x="310.6" y="-46.87" font-family="FreeSans.ttf" font-size="10.00">5</text>
</a>
</g>
</g>
<!-- dir_2a3c79a8659119928eb3cfb9c5637ece&#45;&gt;dir_5dd65160827af56e6353642206b80129 -->
<g id="edge3" class="edge">
<title>dir_2a3c79a8659119928eb3cfb9c5637ece&#45;&gt;dir_5dd65160827af56e6353642206b80129</title>
<path fill="none" stroke="black" d="M54.02,-154.58C68.02,-151.31 85.4,-147.33 101,-144 183.23,-126.43 280.1,-107.78 331.89,-97.97"/>
<polygon fill="black" stroke="black" points="332.76,-101.37 341.94,-96.07 331.46,-94.49 332.76,-101.37"/>
<g id="a_edge3&#45;headlabel"><a xlink:href="dir_000045_000027.html" target="_top" xlink:title="5">
<text text-anchor="middle" x="329.75" y="-102.32" font-family="FreeSans.ttf" font-size="10.00">5</text>
</a>
</g>
</g>
<!-- dir_2a3c79a8659119928eb3cfb9c5637ece&#45;&gt;dir_ca655c1e93447bcdfcc1afb2c793c8bd -->
<g id="edge4" class="edge">
<title>dir_2a3c79a8659119928eb3cfb9c5637ece&#45;&gt;dir_ca655c1e93447bcdfcc1afb2c793c8bd</title>
<path fill="none" stroke="black" d="M40.6,-143.7C47.12,-135.39 55.07,-125.28 62.25,-116.14"/>
<polygon fill="black" stroke="black" points="65.13,-118.13 68.56,-108.1 59.63,-113.81 65.13,-118.13"/>
<g id="a_edge4&#45;headlabel"><a xlink:href="dir_000045_000074.html" target="_top" xlink:title="2">
<text text-anchor="middle" x="65.15" y="-120.21" font-family="FreeSans.ttf" font-size="10.00">2</text>
</a>
</g>
</g>
<!-- dir_2a3c79a8659119928eb3cfb9c5637ece&#45;&gt;dir_aebb8dcc11953d78e620bbef0b9e2183 -->
<g id="edge5" class="edge">
<title>dir_2a3c79a8659119928eb3cfb9c5637ece&#45;&gt;dir_aebb8dcc11953d78e620bbef0b9e2183</title>
<path fill="none" stroke="black" d="M25.46,-143.94C24.65,-123.8 26.7,-90.68 46,-72 82.19,-36.97 232.3,-24.61 303.37,-20.67"/>
<polygon fill="black" stroke="black" points="303.87,-24.15 313.67,-20.13 303.5,-17.16 303.87,-24.15"/>
<g id="a_edge5&#45;headlabel"><a xlink:href="dir_000045_000011.html" target="_top" xlink:title="2">
<text text-anchor="middle" x="300.43" y="-24.67" font-family="FreeSans.ttf" font-size="10.00">2</text>
</a>
</g>
</g>
<!-- dir_355314d08763ddbf0e6d36531a48f7ae&#45;&gt;dir_fb93052291ccda37fd41b6d18f3dfcc9 -->
<g id="edge11" class="edge">
<title>dir_355314d08763ddbf0e6d36531a48f7ae&#45;&gt;dir_fb93052291ccda37fd41b6d18f3dfcc9</title>
<path fill="none" stroke="black" d="M481.58,-215.7C488.66,-207.3 497.28,-197.07 505.05,-187.86"/>
<polygon fill="black" stroke="black" points="507.81,-190.01 511.58,-180.1 502.46,-185.49 507.81,-190.01"/>
<g id="a_edge11&#45;headlabel"><a xlink:href="dir_000053_000040.html" target="_top" xlink:title="1">
<text text-anchor="middle" x="507.67" y="-192.08" font-family="FreeSans.ttf" font-size="10.00">1</text>
</a>
</g>
</g>
<!-- dir_355314d08763ddbf0e6d36531a48f7ae&#45;&gt;dir_5dd65160827af56e6353642206b80129 -->
<g id="edge12" class="edge">
<title>dir_355314d08763ddbf0e6d36531a48f7ae&#45;&gt;dir_5dd65160827af56e6353642206b80129</title>
<path fill="none" stroke="black" d="M455.18,-215.87C438.11,-191.14 406.43,-145.24 386.61,-116.51"/>
<polygon fill="black" stroke="black" points="389.42,-114.43 380.86,-108.19 383.66,-118.41 389.42,-114.43"/>
<g id="a_edge12&#45;headlabel"><a xlink:href="dir_000053_000027.html" target="_top" xlink:title="11">
<text text-anchor="middle" x="393.8" y="-113.28" font-family="FreeSans.ttf" font-size="10.00">11</text>
</a>
</g>
</g>
<!-- dir_355314d08763ddbf0e6d36531a48f7ae&#45;&gt;dir_aebb8dcc11953d78e620bbef0b9e2183 -->
<g id="edge13" class="edge">
<title>dir_355314d08763ddbf0e6d36531a48f7ae&#45;&gt;dir_aebb8dcc11953d78e620bbef0b9e2183</title>
<path fill="none" stroke="black" d="M463.39,-215.63C456.28,-184.51 438.22,-118.21 405,-72 396.95,-60.8 385.98,-50.57 375.4,-42.15"/>
<polygon fill="black" stroke="black" points="377.51,-39.36 367.44,-36.08 373.27,-44.93 377.51,-39.36"/>
<g id="a_edge13&#45;headlabel"><a xlink:href="dir_000053_000011.html" target="_top" xlink:title="16">
<text text-anchor="middle" x="382.09" y="-36.78" font-family="FreeSans.ttf" font-size="10.00">16</text>
</a>
</g>
</g>
<!-- dir_fb93052291ccda37fd41b6d18f3dfcc9&#45;&gt;dir_5dd65160827af56e6353642206b80129 -->
<g id="edge14" class="edge">
<title>dir_fb93052291ccda37fd41b6d18f3dfcc9&#45;&gt;dir_5dd65160827af56e6353642206b80129</title>
<path fill="none" stroke="black" d="M494.98,-147.17C469.16,-135.66 432.36,-119.25 405.2,-107.14"/>
<polygon fill="black" stroke="black" points="406.59,-103.93 396.03,-103.05 403.73,-110.32 406.59,-103.93"/>
<g id="a_edge14&#45;headlabel"><a xlink:href="dir_000040_000027.html" target="_top" xlink:title="25">
<text text-anchor="middle" x="411.02" y="-100.3" font-family="FreeSans.ttf" font-size="10.00">25</text>
</a>
</g>
</g>
<!-- dir_fb93052291ccda37fd41b6d18f3dfcc9&#45;&gt;dir_aebb8dcc11953d78e620bbef0b9e2183 -->
<g id="edge15" class="edge">
<title>dir_fb93052291ccda37fd41b6d18f3dfcc9&#45;&gt;dir_aebb8dcc11953d78e620bbef0b9e2183</title>
<path fill="none" stroke="black" d="M521.48,-143.93C515.4,-124.08 502.76,-91.56 481,-72 451.92,-45.85 408.65,-32.13 377.92,-25.26"/>
<polygon fill="black" stroke="black" points="378.53,-21.81 368.02,-23.19 377.09,-28.66 378.53,-21.81"/>
<g id="a_edge15&#45;headlabel"><a xlink:href="dir_000040_000011.html" target="_top" xlink:title="18">
<text text-anchor="middle" x="382.63" y="-17.27" font-family="FreeSans.ttf" font-size="10.00">18</text>
</a>
</g>
</g>
<!-- dir_b00de47ad7e2e13a637d9aa605dec95e&#45;&gt;dir_5dd65160827af56e6353642206b80129 -->
<g id="edge16" class="edge">
<title>dir_b00de47ad7e2e13a637d9aa605dec95e&#45;&gt;dir_5dd65160827af56e6353642206b80129</title>
<path fill="none" stroke="black" d="M276.09,-143.88C293.17,-134.16 314.67,-121.92 332.68,-111.67"/>
<polygon fill="black" stroke="black" points="334.78,-114.5 341.74,-106.51 331.32,-108.42 334.78,-114.5"/>
<g id="a_edge16&#45;headlabel"><a xlink:href="dir_000025_000027.html" target="_top" xlink:title="9">
<text text-anchor="middle" x="333.06" y="-116.25" font-family="FreeSans.ttf" font-size="10.00">9</text>
</a>
</g>
</g>
<!-- dir_b00de47ad7e2e13a637d9aa605dec95e&#45;&gt;dir_aebb8dcc11953d78e620bbef0b9e2183 -->
<g id="edge17" class="edge">
<title>dir_b00de47ad7e2e13a637d9aa605dec95e&#45;&gt;dir_aebb8dcc11953d78e620bbef0b9e2183</title>
<path fill="none" stroke="black" d="M255.6,-143.91C265.99,-125.72 283.32,-96.28 300,-72 306.39,-62.7 313.82,-52.84 320.59,-44.17"/>
<polygon fill="black" stroke="black" points="323.37,-46.31 326.82,-36.29 317.88,-41.97 323.37,-46.31"/>
<g id="a_edge17&#45;headlabel"><a xlink:href="dir_000025_000011.html" target="_top" xlink:title="4">
<text text-anchor="middle" x="323.36" y="-48.39" font-family="FreeSans.ttf" font-size="10.00">4</text>
</a>
</g>
</g>
<!-- dir_5dd65160827af56e6353642206b80129&#45;&gt;dir_aebb8dcc11953d78e620bbef0b9e2183 -->
<g id="edge18" class="edge">
<title>dir_5dd65160827af56e6353642206b80129&#45;&gt;dir_aebb8dcc11953d78e620bbef0b9e2183</title>
<path fill="none" stroke="black" d="M362.08,-71.7C358.93,-63.81 355.12,-54.3 351.62,-45.55"/>
<polygon fill="black" stroke="black" points="354.81,-44.09 347.84,-36.1 348.31,-46.69 354.81,-44.09"/>
<g id="a_edge18&#45;headlabel"><a xlink:href="dir_000027_000011.html" target="_top" xlink:title="59">
<text text-anchor="middle" x="358.78" y="-43.87" font-family="FreeSans.ttf" font-size="10.00">59</text>
</a>
</g>
</g>
<!-- dir_ca655c1e93447bcdfcc1afb2c793c8bd&#45;&gt;dir_aebb8dcc11953d78e620bbef0b9e2183 -->
<g id="edge22" class="edge">
<title>dir_ca655c1e93447bcdfcc1afb2c793c8bd&#45;&gt;dir_aebb8dcc11953d78e620bbef0b9e2183</title>
<path fill="none" stroke="black" d="M109.23,-81.64C155.86,-69.04 251.08,-43.3 303.8,-29.05"/>
<polygon fill="black" stroke="black" points="305.01,-32.35 313.75,-26.37 303.18,-25.6 305.01,-32.35"/>
<g id="a_edge22&#45;headlabel"><a xlink:href="dir_000074_000011.html" target="_top" xlink:title="5">
<text text-anchor="middle" x="302.28" y="-33.53" font-family="FreeSans.ttf" font-size="10.00">5</text>
</a>
</g>
</g>
<!-- dir_b7c18fbf081229a9716e24d71701f6e8&#45;&gt;dir_355314d08763ddbf0e6d36531a48f7ae -->
<g id="edge23" class="edge">
<title>dir_b7c18fbf081229a9716e24d71701f6e8&#45;&gt;dir_355314d08763ddbf0e6d36531a48f7ae</title>
<path fill="none" stroke="black" d="M564.44,-287.88C547.34,-278.6 526.02,-267.03 507.68,-257.08"/>
<polygon fill="black" stroke="black" points="509.14,-253.88 498.68,-252.19 505.8,-260.04 509.14,-253.88"/>
<g id="a_edge23&#45;headlabel"><a xlink:href="dir_000021_000053.html" target="_top" xlink:title="1">
<text text-anchor="middle" x="513.65" y="-250.6" font-family="FreeSans.ttf" font-size="10.00">1</text>
</a>
</g>
</g>
<!-- dir_b7c18fbf081229a9716e24d71701f6e8&#45;&gt;dir_fb93052291ccda37fd41b6d18f3dfcc9 -->
<g id="edge24" class="edge">
<title>dir_b7c18fbf081229a9716e24d71701f6e8&#45;&gt;dir_fb93052291ccda37fd41b6d18f3dfcc9</title>
<path fill="none" stroke="black" d="M587.56,-287.87C575.47,-263.35 553.13,-218.03 538.94,-189.26"/>
<polygon fill="black" stroke="black" points="542.03,-187.61 534.47,-180.19 535.76,-190.71 542.03,-187.61"/>
<g id="a_edge24&#45;headlabel"><a xlink:href="dir_000021_000040.html" target="_top" xlink:title="1">
<text text-anchor="middle" x="546.17" y="-187.08" font-family="FreeSans.ttf" font-size="10.00">1</text>
</a>
</g>
</g>
<!-- dir_b7c18fbf081229a9716e24d71701f6e8&#45;&gt;dir_5dd65160827af56e6353642206b80129 -->
<g id="edge25" class="edge">
<title>dir_b7c18fbf081229a9716e24d71701f6e8&#45;&gt;dir_5dd65160827af56e6353642206b80129</title>
<path fill="none" stroke="black" d="M598.21,-287.87C601.38,-255.34 603.25,-184.3 566,-144 544.52,-120.76 457.05,-104.14 406.17,-96.22"/>
<polygon fill="black" stroke="black" points="406.62,-92.75 396.21,-94.71 405.57,-99.67 406.62,-92.75"/>
<g id="a_edge25&#45;headlabel"><a xlink:href="dir_000021_000027.html" target="_top" xlink:title="1">
<text text-anchor="middle" x="410.6" y="-87.98" font-family="FreeSans.ttf" font-size="10.00">1</text>
</a>
</g>
</g>
<!-- dir_b7c18fbf081229a9716e24d71701f6e8&#45;&gt;dir_aebb8dcc11953d78e620bbef0b9e2183 -->
<g id="edge26" class="edge">
<title>dir_b7c18fbf081229a9716e24d71701f6e8&#45;&gt;dir_aebb8dcc11953d78e620bbef0b9e2183</title>
<path fill="none" stroke="black" d="M602.65,-287.63C606.2,-277.42 610.2,-264.17 612,-252 614.34,-236.17 614.36,-231.82 612,-216 601.46,-145.43 599.24,-113.24 541,-72 491.71,-37.1 420.89,-25.18 378.09,-21.11"/>
<polygon fill="black" stroke="black" points="378.36,-17.62 368.1,-20.25 377.76,-24.6 378.36,-17.62"/>
<g id="a_edge26&#45;headlabel"><a xlink:href="dir_000021_000011.html" target="_top" xlink:title="30">
<text text-anchor="middle" x="382.18" y="-12.6" font-family="FreeSans.ttf" font-size="10.00">30</text>
</a>
</g>
</g>
</g>
</svg>
