<?xml version="1.0" encoding="UTF-8" standalone="no"?>
<!DOCTYPE svg PUBLIC "-//W3C//DTD SVG 1.1//EN"
 "http://www.w3.org/Graphics/SVG/1.1/DTD/svg11.dtd">
<!-- Generated by graphviz version 2.43.0 (0)
 -->
<!-- Title: plotter Pages: 1 -->
<svg width="182pt" height="183pt"
 viewBox="0.00 0.00 182.00 183.00" xmlns="http://www.w3.org/2000/svg" xmlns:xlink="http://www.w3.org/1999/xlink">
<g id="graph0" class="graph" transform="scale(1 1) rotate(0) translate(4 179)">
<title>plotter</title>
<g id="clust1" class="cluster">
<title>clusterdir_1563a38af0d3a5e4a6330d6d45e9792a</title>
<g id="a_clust1"><a xlink:href="dir_1563a38af0d3a5e4a6330d6d45e9792a.html" target="_top" xlink:title="tools">
<polygon fill="#ddddee" stroke="black" points="8,-8 8,-167 166,-167 166,-8 8,-8"/>
<text text-anchor="middle" x="87" y="-155" font-family="FreeSans.ttf" font-size="10.00">tools</text>
</a>
</g>
</g>
<g id="clust2" class="cluster">
<title>clusterdir_93fd46024a6aec3abc84549d4959da8d</title>
<g id="a_clust2"><a xlink:href="dir_93fd46024a6aec3abc84549d4959da8d.html" target="_top">
<polygon fill="#eeeeff" stroke="black" points="16,-16 16,-140 158,-140 158,-16 16,-16"/>
</a>
</g>
</g>
<!-- dir_93fd46024a6aec3abc84549d4959da8d -->
<g id="node1" class="node">
<title>dir_93fd46024a6aec3abc84549d4959da8d</title>
<text text-anchor="middle" x="123" y="-111.5" font-family="FreeSans.ttf" font-size="10.00">plotter</text>
</g>
<!-- dir_c020a15cfbc1e2681d0101a714303bbe -->
<g id="node2" class="node">
<title>dir_c020a15cfbc1e2681d0101a714303bbe</title>
<g id="a_node2"><a xlink:href="dir_c020a15cfbc1e2681d0101a714303bbe.html" target="_top" xlink:title="include">
<polygon fill="white" stroke="black" points="78,-60 24,-60 24,-24 78,-24 78,-60"/>
<text text-anchor="middle" x="51" y="-39.5" font-family="FreeSans.ttf" font-size="10.00">include</text>
</a>
</g>
</g>
<!-- dir_40e8a7605b301de0774bcc71a52e5f93 -->
<g id="node3" class="node">
<title>dir_40e8a7605b301de0774bcc71a52e5f93</title>
<g id="a_node3"><a xlink:href="dir_40e8a7605b301de0774bcc71a52e5f93.html" target="_top" xlink:title="src">
<polygon fill="white" stroke="black" points="78,-132 24,-132 24,-96 78,-96 78,-132"/>
<text text-anchor="middle" x="51" y="-111.5" font-family="FreeSans.ttf" font-size="10.00">src</text>
</a>
</g>
</g>
<!-- dir_40e8a7605b301de0774bcc71a52e5f93&#45;&gt;dir_c020a15cfbc1e2681d0101a714303bbe -->
<g id="edge1" class="edge">
<title>dir_40e8a7605b301de0774bcc71a52e5f93&#45;&gt;dir_c020a15cfbc1e2681d0101a714303bbe</title>
<path fill="none" stroke="black" d="M51,-95.7C51,-87.98 51,-78.71 51,-70.11"/>
<polygon fill="black" stroke="black" points="54.5,-70.1 51,-60.1 47.5,-70.1 54.5,-70.1"/>
<g id="a_edge1&#45;headlabel"><a xlink:href="dir_000033_000034.html" target="_top" xlink:title="4">
<text text-anchor="middle" x="57.34" y="-71.2" font-family="FreeSans.ttf" font-size="10.00">4</text>
</a>
</g>
</g>
</g>
</svg>
