<?xml version="1.0" encoding="UTF-8" standalone="no"?>
<!DOCTYPE svg PUBLIC "-//W3C//DTD SVG 1.1//EN"
 "http://www.w3.org/Graphics/SVG/1.1/DTD/svg11.dtd">
<!-- Generated by graphviz version 2.43.0 (0)
 -->
<!-- Title: Direction.h Pages: 1 -->
<svg width="4378pt" height="274pt"
 viewBox="0.00 0.00 4377.50 274.00" xmlns="http://www.w3.org/2000/svg" xmlns:xlink="http://www.w3.org/1999/xlink">
<g id="graph0" class="graph" transform="scale(1 1) rotate(0) translate(4 270)">
<title>Direction.h</title>
<!-- Node1 -->
<g id="node1" class="node">
<title>Node1</title>
<g id="a_node1"><a xlink:title=" ">
<polygon fill="#bfbfbf" stroke="black" points="1955,-246.5 1955,-265.5 2025,-265.5 2025,-246.5 1955,-246.5"/>
<text text-anchor="middle" x="1990" y="-253.5" font-family="FreeSans.ttf" font-size="10.00">Direction.h</text>
</a>
</g>
</g>
<!-- Node2 -->
<g id="node2" class="node">
<title>Node2</title>
<g id="a_node2"><a xlink:href="Axis_8h.html" target="_top" xlink:title=" ">
<polygon fill="none" stroke="black" points="518.5,-190.5 518.5,-209.5 565.5,-209.5 565.5,-190.5 518.5,-190.5"/>
<text text-anchor="middle" x="542" y="-197.5" font-family="FreeSans.ttf" font-size="10.00">Axis.h</text>
</a>
</g>
</g>
<!-- Node1&#45;&gt;Node2 -->
<g id="edge1" class="edge">
<title>Node1&#45;&gt;Node2</title>
<path fill="none" stroke="midnightblue" d="M1944.83,-253.32C1720.65,-244.96 731.62,-208.07 565.67,-201.88"/>
<polygon fill="midnightblue" stroke="midnightblue" points="1944.8,-256.82 1954.92,-253.69 1945.06,-249.82 1944.8,-256.82"/>
</g>
<!-- Node4 -->
<g id="node4" class="node">
<title>Node4</title>
<g id="a_node4"><a xlink:href="Rotation_8cpp.html" target="_top" xlink:title=" ">
<polygon fill="none" stroke="black" points="0,-129 0,-148 78,-148 78,-129 0,-129"/>
<text text-anchor="middle" x="39" y="-136" font-family="FreeSans.ttf" font-size="10.00">Rotation.cpp</text>
</a>
</g>
</g>
<!-- Node1&#45;&gt;Node4 -->
<g id="edge17" class="edge">
<title>Node1&#45;&gt;Node4</title>
<path fill="none" stroke="midnightblue" d="M1944.6,-254.84C1714.57,-253.86 676.12,-247.43 356,-210 234.71,-195.82 205.34,-184.13 87,-154 80.08,-152.24 72.67,-150.12 65.79,-148.05"/>
<polygon fill="midnightblue" stroke="midnightblue" points="1944.92,-258.34 1954.94,-254.88 1944.95,-251.34 1944.92,-258.34"/>
</g>
<!-- Node6 -->
<g id="node6" class="node">
<title>Node6</title>
<g id="a_node6"><a xlink:href="Transform_8cpp.html" target="_top" xlink:title=" ">
<polygon fill="none" stroke="black" points="96,-129 96,-148 182,-148 182,-129 96,-129"/>
<text text-anchor="middle" x="139" y="-136" font-family="FreeSans.ttf" font-size="10.00">Transform.cpp</text>
</a>
</g>
</g>
<!-- Node1&#45;&gt;Node6 -->
<g id="edge18" class="edge">
<title>Node1&#45;&gt;Node6</title>
<path fill="none" stroke="midnightblue" d="M1944.75,-254.5C1728.35,-252 797.75,-239.66 509,-210 366.24,-195.34 330.95,-185.76 191,-154 183.41,-152.28 175.28,-150.15 167.75,-148.06"/>
<polygon fill="midnightblue" stroke="midnightblue" points="1944.76,-258 1954.8,-254.62 1944.84,-251 1944.76,-258"/>
</g>
<!-- Node26 -->
<g id="node15" class="node">
<title>Node26</title>
<g id="a_node15"><a xlink:href="Direction_8cpp.html" target="_top" xlink:title=" ">
<polygon fill="none" stroke="black" points="1676.5,-190.5 1676.5,-209.5 1757.5,-209.5 1757.5,-190.5 1676.5,-190.5"/>
<text text-anchor="middle" x="1717" y="-197.5" font-family="FreeSans.ttf" font-size="10.00">Direction.cpp</text>
</a>
</g>
</g>
<!-- Node1&#45;&gt;Node26 -->
<g id="edge16" class="edge">
<title>Node1&#45;&gt;Node26</title>
<path fill="none" stroke="midnightblue" d="M1944.91,-246.08C1892.85,-235.78 1807.94,-218.99 1757.78,-209.07"/>
<polygon fill="midnightblue" stroke="midnightblue" points="1944.38,-249.54 1954.87,-248.05 1945.74,-242.68 1944.38,-249.54"/>
</g>
<!-- Node27 -->
<g id="node16" class="node">
<title>Node27</title>
<g id="a_node16"><a xlink:href="AttitudeMahonyFilter_8h.html" target="_top" xlink:title=" ">
<polygon fill="none" stroke="black" points="1776,-190.5 1776,-209.5 1904,-209.5 1904,-190.5 1776,-190.5"/>
<text text-anchor="middle" x="1840" y="-197.5" font-family="FreeSans.ttf" font-size="10.00">AttitudeMahonyFilter.h</text>
</a>
</g>
</g>
<!-- Node1&#45;&gt;Node27 -->
<g id="edge19" class="edge">
<title>Node1&#45;&gt;Node27</title>
<path fill="none" stroke="midnightblue" d="M1956.78,-243.04C1928.55,-232.88 1888.74,-218.55 1863.66,-209.52"/>
<polygon fill="midnightblue" stroke="midnightblue" points="1955.64,-246.35 1966.23,-246.44 1958.01,-239.76 1955.64,-246.35"/>
</g>
<!-- Node29 -->
<g id="node18" class="node">
<title>Node29</title>
<g id="a_node18"><a xlink:href="AttitudeQuaternionEKF_8h.html" target="_top" xlink:title=" ">
<polygon fill="none" stroke="black" points="1922,-190.5 1922,-209.5 2058,-209.5 2058,-190.5 1922,-190.5"/>
<text text-anchor="middle" x="1990" y="-197.5" font-family="FreeSans.ttf" font-size="10.00">AttitudeQuaternionEKF.h</text>
</a>
</g>
</g>
<!-- Node1&#45;&gt;Node29 -->
<g id="edge21" class="edge">
<title>Node1&#45;&gt;Node29</title>
<path fill="none" stroke="midnightblue" d="M1990,-235.8C1990,-226.91 1990,-216.78 1990,-209.75"/>
<polygon fill="midnightblue" stroke="midnightblue" points="1986.5,-236.08 1990,-246.08 1993.5,-236.08 1986.5,-236.08"/>
</g>
<!-- Node31 -->
<g id="node20" class="node">
<title>Node31</title>
<g id="a_node20"><a xlink:href="BerdyHelper_8h.html" target="_top" xlink:title=" ">
<polygon fill="none" stroke="black" points="2656,-190.5 2656,-209.5 2742,-209.5 2742,-190.5 2656,-190.5"/>
<text text-anchor="middle" x="2699" y="-197.5" font-family="FreeSans.ttf" font-size="10.00">BerdyHelper.h</text>
</a>
</g>
</g>
<!-- Node1&#45;&gt;Node31 -->
<g id="edge23" class="edge">
<title>Node1&#45;&gt;Node31</title>
<path fill="none" stroke="midnightblue" d="M2035.44,-251.54C2164.1,-241.74 2529.73,-213.89 2655.71,-204.3"/>
<polygon fill="midnightblue" stroke="midnightblue" points="2034.86,-248.07 2025.16,-252.32 2035.4,-255.05 2034.86,-248.07"/>
</g>
<!-- Node34 -->
<g id="node23" class="node">
<title>Node34</title>
<g id="a_node23"><a xlink:href="ExternalWrenchesEstimation_8h.html" target="_top" xlink:title=" ">
<polygon fill="none" stroke="black" points="2264.5,-190.5 2264.5,-209.5 2431.5,-209.5 2431.5,-190.5 2264.5,-190.5"/>
<text text-anchor="middle" x="2348" y="-197.5" font-family="FreeSans.ttf" font-size="10.00">ExternalWrenchesEstimation.h</text>
</a>
</g>
</g>
<!-- Node1&#45;&gt;Node34 -->
<g id="edge26" class="edge">
<title>Node1&#45;&gt;Node34</title>
<path fill="none" stroke="midnightblue" d="M2035.27,-248.17C2100.38,-238.35 2220.43,-220.24 2291.35,-209.55"/>
<polygon fill="midnightblue" stroke="midnightblue" points="2034.67,-244.72 2025.31,-249.67 2035.72,-251.64 2034.67,-244.72"/>
</g>
<!-- Node42 -->
<g id="node29" class="node">
<title>Node42</title>
<g id="a_node29"><a xlink:href="InverseKinematics_8h.html" target="_top" xlink:title=" ">
<polygon fill="none" stroke="black" points="1320,-190.5 1320,-209.5 1436,-209.5 1436,-190.5 1320,-190.5"/>
<text text-anchor="middle" x="1378" y="-197.5" font-family="FreeSans.ttf" font-size="10.00">InverseKinematics.h</text>
</a>
</g>
</g>
<!-- Node1&#45;&gt;Node42 -->
<g id="edge34" class="edge">
<title>Node1&#45;&gt;Node42</title>
<path fill="none" stroke="midnightblue" d="M1944.87,-251.02C1835.69,-241.38 1557.37,-216.83 1436.03,-206.12"/>
<polygon fill="midnightblue" stroke="midnightblue" points="1944.63,-254.51 1954.9,-251.9 1945.24,-247.54 1944.63,-254.51"/>
</g>
<!-- Node48 -->
<g id="node33" class="node">
<title>Node48</title>
<g id="a_node33"><a xlink:href="ObserverThread_8h.html" target="_top" xlink:title=" ">
<polygon fill="none" stroke="black" points="2939,-190.5 2939,-209.5 3043,-209.5 3043,-190.5 2939,-190.5"/>
<text text-anchor="middle" x="2991" y="-197.5" font-family="FreeSans.ttf" font-size="10.00">ObserverThread.h</text>
</a>
</g>
</g>
<!-- Node1&#45;&gt;Node48 -->
<g id="edge40" class="edge">
<title>Node1&#45;&gt;Node48</title>
<path fill="none" stroke="midnightblue" d="M2035.26,-252.87C2163.7,-246.78 2541.44,-228.53 2855,-210 2882.64,-208.37 2913.42,-206.35 2938.7,-204.63"/>
<polygon fill="midnightblue" stroke="midnightblue" points="2034.85,-249.39 2025.03,-253.36 2035.18,-256.38 2034.85,-249.39"/>
</g>
<!-- Node49 -->
<g id="node34" class="node">
<title>Node49</title>
<g id="a_node34"><a xlink:href="ObserverThread_8cpp.html" target="_top" xlink:title=" ">
<polygon fill="none" stroke="black" points="2933.5,-129 2933.5,-148 3048.5,-148 3048.5,-129 2933.5,-129"/>
<text text-anchor="middle" x="2991" y="-136" font-family="FreeSans.ttf" font-size="10.00">ObserverThread.cpp</text>
</a>
</g>
</g>
<!-- Node1&#45;&gt;Node49 -->
<g id="edge43" class="edge">
<title>Node1&#45;&gt;Node49</title>
<path fill="none" stroke="midnightblue" d="M2035.11,-253.67C2176.85,-249.3 2612.03,-234.2 2751,-210 2832.72,-195.77 2926.09,-163.53 2968.24,-148.08"/>
<polygon fill="midnightblue" stroke="midnightblue" points="2034.92,-250.18 2025.03,-253.98 2035.14,-257.18 2034.92,-250.18"/>
</g>
<!-- Node53 -->
<g id="node36" class="node">
<title>Node53</title>
<g id="a_node36"><a xlink:href="Visualizer_8h.html" target="_top" xlink:title=" ">
<polygon fill="none" stroke="red" points="3668.5,-190.5 3668.5,-209.5 3741.5,-209.5 3741.5,-190.5 3668.5,-190.5"/>
<text text-anchor="middle" x="3705" y="-197.5" font-family="FreeSans.ttf" font-size="10.00">Visualizer.h</text>
</a>
</g>
</g>
<!-- Node1&#45;&gt;Node53 -->
<g id="edge44" class="edge">
<title>Node1&#45;&gt;Node53</title>
<path fill="none" stroke="midnightblue" d="M2035.36,-253.57C2280.65,-245.85 3445.66,-209.17 3668.21,-202.16"/>
<polygon fill="midnightblue" stroke="midnightblue" points="2034.92,-250.08 2025.03,-253.9 2035.14,-257.08 2034.92,-250.08"/>
</g>
<!-- Node82 -->
<g id="node50" class="node">
<title>Node82</title>
<g id="a_node50"><a xlink:href="YARPConversionsImplementation_8h.html" target="_top" xlink:title=" ">
<polygon fill="none" stroke="red" points="3760,-190.5 3760,-209.5 3948,-209.5 3948,-190.5 3760,-190.5"/>
<text text-anchor="middle" x="3854" y="-197.5" font-family="FreeSans.ttf" font-size="10.00">YARPConversionsImplementation.h</text>
</a>
</g>
</g>
<!-- Node1&#45;&gt;Node82 -->
<g id="edge65" class="edge">
<title>Node1&#45;&gt;Node82</title>
<path fill="none" stroke="midnightblue" d="M2035.25,-254.85C2236.23,-253.99 3068.3,-248.18 3750,-210 3753.26,-209.82 3756.57,-209.62 3759.92,-209.4"/>
<polygon fill="midnightblue" stroke="midnightblue" points="2035.05,-251.35 2025.07,-254.9 2035.08,-258.35 2035.05,-251.35"/>
</g>
<!-- Node3 -->
<g id="node3" class="node">
<title>Node3</title>
<g id="a_node3"><a xlink:href="Axis_8cpp.html" target="_top" xlink:title=" ">
<polygon fill="none" stroke="black" points="949,-129 949,-148 1007,-148 1007,-129 949,-129"/>
<text text-anchor="middle" x="978" y="-136" font-family="FreeSans.ttf" font-size="10.00">Axis.cpp</text>
</a>
</g>
</g>
<!-- Node2&#45;&gt;Node3 -->
<g id="edge2" class="edge">
<title>Node2&#45;&gt;Node3</title>
<path fill="none" stroke="midnightblue" d="M575.98,-197.53C644.58,-194.02 804.26,-183.18 935,-154 941.77,-152.49 948.96,-150.3 955.49,-148.09"/>
<polygon fill="midnightblue" stroke="midnightblue" points="575.58,-194.04 565.77,-198.03 575.93,-201.03 575.58,-194.04"/>
</g>
<!-- Node2&#45;&gt;Node4 -->
<g id="edge3" class="edge">
<title>Node2&#45;&gt;Node4</title>
<path fill="none" stroke="midnightblue" d="M507.65,-197.88C431.32,-194.91 242.1,-184.79 87,-154 79.49,-152.51 71.47,-150.33 64.18,-148.11"/>
<polygon fill="midnightblue" stroke="midnightblue" points="507.95,-201.4 518.08,-198.27 508.21,-194.4 507.95,-201.4"/>
</g>
<!-- Node5 -->
<g id="node5" class="node">
<title>Node5</title>
<g id="a_node5"><a xlink:href="TestUtils_8cpp.html" target="_top" xlink:title=" ">
<polygon fill="none" stroke="black" points="1025.5,-129 1025.5,-148 1104.5,-148 1104.5,-129 1025.5,-129"/>
<text text-anchor="middle" x="1065" y="-136" font-family="FreeSans.ttf" font-size="10.00">TestUtils.cpp</text>
</a>
</g>
</g>
<!-- Node2&#45;&gt;Node5 -->
<g id="edge4" class="edge">
<title>Node2&#45;&gt;Node5</title>
<path fill="none" stroke="midnightblue" d="M576.15,-198.02C654.56,-195.26 853.23,-185.5 1016,-154 1023.75,-152.5 1032.04,-150.29 1039.55,-148.05"/>
<polygon fill="midnightblue" stroke="midnightblue" points="575.78,-194.53 565.9,-198.36 576.02,-201.52 575.78,-194.53"/>
</g>
<!-- Node2&#45;&gt;Node6 -->
<g id="edge5" class="edge">
<title>Node2&#45;&gt;Node6</title>
<path fill="none" stroke="midnightblue" d="M508.27,-196.31C445.41,-190.93 306.27,-177.33 191,-154 183.1,-152.4 174.64,-150.24 166.89,-148.07"/>
<polygon fill="midnightblue" stroke="midnightblue" points="508.14,-199.81 518.39,-197.16 508.72,-192.83 508.14,-199.81"/>
</g>
<!-- Node7 -->
<g id="node7" class="node">
<title>Node7</title>
<g id="a_node7"><a xlink:href="BoundingBoxHelpers_8cpp.html" target="_top" xlink:title=" ">
<polygon fill="none" stroke="black" points="604.5,-129 604.5,-148 743.5,-148 743.5,-129 604.5,-129"/>
<text text-anchor="middle" x="674" y="-136" font-family="FreeSans.ttf" font-size="10.00">BoundingBoxHelpers.cpp</text>
</a>
</g>
</g>
<!-- Node2&#45;&gt;Node7 -->
<g id="edge6" class="edge">
<title>Node2&#45;&gt;Node7</title>
<path fill="none" stroke="midnightblue" d="M570.11,-186.33C595.74,-174.78 632.89,-158.03 655.12,-148.01"/>
<polygon fill="midnightblue" stroke="midnightblue" points="568.59,-183.17 560.91,-190.48 571.47,-189.56 568.59,-183.17"/>
</g>
<!-- Node8 -->
<g id="node8" class="node">
<title>Node8</title>
<g id="a_node8"><a xlink:href="ConvexHullHelpers_8cpp.html" target="_top" xlink:title=" ">
<polygon fill="none" stroke="black" points="761.5,-129 761.5,-148 892.5,-148 892.5,-129 761.5,-129"/>
<text text-anchor="middle" x="827" y="-136" font-family="FreeSans.ttf" font-size="10.00">ConvexHullHelpers.cpp</text>
</a>
</g>
</g>
<!-- Node2&#45;&gt;Node8 -->
<g id="edge7" class="edge">
<title>Node2&#45;&gt;Node8</title>
<path fill="none" stroke="midnightblue" d="M575.63,-191.98C628.14,-181.02 729.45,-159.87 786.1,-148.04"/>
<polygon fill="midnightblue" stroke="midnightblue" points="574.88,-188.56 565.81,-194.03 576.31,-195.41 574.88,-188.56"/>
</g>
<!-- Node9 -->
<g id="node9" class="node">
<title>Node9</title>
<g id="a_node9"><a xlink:href="InverseKinematicsData_8cpp.html" target="_top" xlink:title=" ">
<polygon fill="none" stroke="black" points="1117.5,-62 1117.5,-81 1268.5,-81 1268.5,-62 1117.5,-62"/>
<text text-anchor="middle" x="1193" y="-69" font-family="FreeSans.ttf" font-size="10.00">InverseKinematicsData.cpp</text>
</a>
</g>
</g>
<!-- Node2&#45;&gt;Node9 -->
<g id="edge8" class="edge">
<title>Node2&#45;&gt;Node9</title>
<path fill="none" stroke="midnightblue" d="M575.93,-197.09C653.71,-192.33 842.66,-178.54 901,-154 921.41,-145.42 919.91,-132.32 940,-123 996.17,-96.94 1065.46,-84.3 1117.32,-78.19"/>
<polygon fill="midnightblue" stroke="midnightblue" points="575.49,-193.61 565.72,-197.7 575.91,-200.59 575.49,-193.61"/>
</g>
<!-- Node10 -->
<g id="node10" class="node">
<title>Node10</title>
<g id="a_node10"><a xlink:href="PrismaticJoint_8h.html" target="_top" xlink:title=" ">
<polygon fill="none" stroke="red" points="386.5,-129 386.5,-148 479.5,-148 479.5,-129 386.5,-129"/>
<text text-anchor="middle" x="433" y="-136" font-family="FreeSans.ttf" font-size="10.00">PrismaticJoint.h</text>
</a>
</g>
</g>
<!-- Node2&#45;&gt;Node10 -->
<g id="edge9" class="edge">
<title>Node2&#45;&gt;Node10</title>
<path fill="none" stroke="midnightblue" d="M517.37,-185.56C496.28,-174.04 466.54,-157.81 448.59,-148.01"/>
<polygon fill="midnightblue" stroke="midnightblue" points="515.93,-188.76 526.38,-190.48 519.28,-182.61 515.93,-188.76"/>
</g>
<!-- Node12 -->
<g id="node11" class="node">
<title>Node12</title>
<g id="a_node11"><a xlink:href="PrismaticJoint_8cpp.html" target="_top" xlink:title=" ">
<polygon fill="none" stroke="black" points="348,-62 348,-81 452,-81 452,-62 348,-62"/>
<text text-anchor="middle" x="400" y="-69" font-family="FreeSans.ttf" font-size="10.00">PrismaticJoint.cpp</text>
</a>
</g>
</g>
<!-- Node2&#45;&gt;Node12 -->
<g id="edge13" class="edge">
<title>Node2&#45;&gt;Node12</title>
<path fill="none" stroke="midnightblue" d="M508.37,-194.65C464.89,-188.25 392.86,-174.76 377,-154 359.87,-131.57 381.37,-96.94 393.19,-81.03"/>
<polygon fill="midnightblue" stroke="midnightblue" points="508.1,-198.14 518.49,-196.08 509.09,-191.21 508.1,-198.14"/>
</g>
<!-- Node16 -->
<g id="node12" class="node">
<title>Node16</title>
<g id="a_node12"><a xlink:href="RevoluteJoint_8h.html" target="_top" xlink:title=" ">
<polygon fill="none" stroke="red" points="200.5,-129 200.5,-148 291.5,-148 291.5,-129 200.5,-129"/>
<text text-anchor="middle" x="246" y="-136" font-family="FreeSans.ttf" font-size="10.00">RevoluteJoint.h</text>
</a>
</g>
</g>
<!-- Node2&#45;&gt;Node16 -->
<g id="edge11" class="edge">
<title>Node2&#45;&gt;Node16</title>
<path fill="none" stroke="midnightblue" d="M508.5,-193.14C462.65,-185.01 377.86,-169.53 306,-154 297.62,-152.19 288.62,-150.09 280.2,-148.07"/>
<polygon fill="midnightblue" stroke="midnightblue" points="508.02,-196.61 518.48,-194.91 509.24,-189.72 508.02,-196.61"/>
</g>
<!-- Node20 -->
<g id="node13" class="node">
<title>Node20</title>
<g id="a_node13"><a xlink:href="RevoluteJoint_8cpp.html" target="_top" xlink:title=" ">
<polygon fill="none" stroke="black" points="212,-62 212,-81 314,-81 314,-62 212,-62"/>
<text text-anchor="middle" x="263" y="-69" font-family="FreeSans.ttf" font-size="10.00">RevoluteJoint.cpp</text>
</a>
</g>
</g>
<!-- Node2&#45;&gt;Node20 -->
<g id="edge14" class="edge">
<title>Node2&#45;&gt;Node20</title>
<path fill="none" stroke="midnightblue" d="M508.2,-194.54C471.86,-188.8 413.09,-176.73 367,-154 327.09,-134.32 287.94,-97.66 271.32,-81.06"/>
<polygon fill="midnightblue" stroke="midnightblue" points="507.87,-198.03 518.28,-196.06 508.91,-191.11 507.87,-198.03"/>
</g>
<!-- Node21 -->
<g id="node14" class="node">
<title>Node21</title>
<g id="a_node14"><a xlink:href="JointElement_8h.html" target="_top" xlink:title=" ">
<polygon fill="none" stroke="red" points="498,-129 498,-148 586,-148 586,-129 498,-129"/>
<text text-anchor="middle" x="542" y="-136" font-family="FreeSans.ttf" font-size="10.00">JointElement.h</text>
</a>
</g>
</g>
<!-- Node2&#45;&gt;Node21 -->
<g id="edge15" class="edge">
<title>Node2&#45;&gt;Node21</title>
<path fill="none" stroke="midnightblue" d="M542,-180.32C542,-169.5 542,-156.4 542,-148.01"/>
<polygon fill="midnightblue" stroke="midnightblue" points="538.5,-180.48 542,-190.48 545.5,-180.48 538.5,-180.48"/>
</g>
<!-- Node10&#45;&gt;Node12 -->
<g id="edge10" class="edge">
<title>Node10&#45;&gt;Node12</title>
<path fill="none" stroke="midnightblue" d="M423.94,-119.66C417.58,-107.13 409.35,-90.91 404.38,-81.13"/>
<polygon fill="midnightblue" stroke="midnightblue" points="420.9,-121.4 428.55,-128.73 427.14,-118.23 420.9,-121.4"/>
</g>
<!-- Node16&#45;&gt;Node20 -->
<g id="edge12" class="edge">
<title>Node16&#45;&gt;Node20</title>
<path fill="none" stroke="midnightblue" d="M250.86,-118.91C254.11,-106.49 258.24,-90.72 260.74,-81.13"/>
<polygon fill="midnightblue" stroke="midnightblue" points="247.44,-118.17 248.29,-128.73 254.21,-119.94 247.44,-118.17"/>
</g>
<!-- Node28 -->
<g id="node17" class="node">
<title>Node28</title>
<g id="a_node17"><a xlink:href="AttitudeMahonyFilter_8cpp.html" target="_top" xlink:title=" ">
<polygon fill="none" stroke="black" points="1571.5,-129 1571.5,-148 1710.5,-148 1710.5,-129 1571.5,-129"/>
<text text-anchor="middle" x="1641" y="-136" font-family="FreeSans.ttf" font-size="10.00">AttitudeMahonyFilter.cpp</text>
</a>
</g>
</g>
<!-- Node27&#45;&gt;Node28 -->
<g id="edge20" class="edge">
<title>Node27&#45;&gt;Node28</title>
<path fill="none" stroke="midnightblue" d="M1801.63,-187.53C1762.96,-175.96 1704.16,-158.38 1669.46,-148.01"/>
<polygon fill="midnightblue" stroke="midnightblue" points="1800.9,-190.96 1811.49,-190.48 1802.91,-184.26 1800.9,-190.96"/>
</g>
<!-- Node30 -->
<g id="node19" class="node">
<title>Node30</title>
<g id="a_node19"><a xlink:href="AttitudeQuaternionEKF_8cpp.html" target="_top" xlink:title=" ">
<polygon fill="none" stroke="black" points="1728.5,-129 1728.5,-148 1875.5,-148 1875.5,-129 1728.5,-129"/>
<text text-anchor="middle" x="1802" y="-136" font-family="FreeSans.ttf" font-size="10.00">AttitudeQuaternionEKF.cpp</text>
</a>
</g>
</g>
<!-- Node29&#45;&gt;Node30 -->
<g id="edge22" class="edge">
<title>Node29&#45;&gt;Node30</title>
<path fill="none" stroke="midnightblue" d="M1953.29,-187.38C1916.74,-175.82 1861.53,-158.34 1828.89,-148.01"/>
<polygon fill="midnightblue" stroke="midnightblue" points="1952.47,-190.79 1963.06,-190.48 1954.59,-184.12 1952.47,-190.79"/>
</g>
<!-- Node32 -->
<g id="node21" class="node">
<title>Node32</title>
<g id="a_node21"><a xlink:href="BerdyHelper_8cpp.html" target="_top" xlink:title=" ">
<polygon fill="none" stroke="black" points="2650.5,-129 2650.5,-148 2747.5,-148 2747.5,-129 2650.5,-129"/>
<text text-anchor="middle" x="2699" y="-136" font-family="FreeSans.ttf" font-size="10.00">BerdyHelper.cpp</text>
</a>
</g>
</g>
<!-- Node31&#45;&gt;Node32 -->
<g id="edge24" class="edge">
<title>Node31&#45;&gt;Node32</title>
<path fill="none" stroke="midnightblue" d="M2699,-180.32C2699,-169.5 2699,-156.4 2699,-148.01"/>
<polygon fill="midnightblue" stroke="midnightblue" points="2695.5,-180.48 2699,-190.48 2702.5,-180.48 2695.5,-180.48"/>
</g>
<!-- Node33 -->
<g id="node22" class="node">
<title>Node33</title>
<g id="a_node22"><a xlink:href="BerdySparseMAPSolver_8cpp.html" target="_top" xlink:title=" ">
<polygon fill="none" stroke="black" points="2766,-129 2766,-148 2916,-148 2916,-129 2766,-129"/>
<text text-anchor="middle" x="2841" y="-136" font-family="FreeSans.ttf" font-size="10.00">BerdySparseMAPSolver.cpp</text>
</a>
</g>
</g>
<!-- Node31&#45;&gt;Node33 -->
<g id="edge25" class="edge">
<title>Node31&#45;&gt;Node33</title>
<path fill="none" stroke="midnightblue" d="M2728.88,-186.48C2756.46,-174.92 2796.67,-158.08 2820.69,-148.01"/>
<polygon fill="midnightblue" stroke="midnightblue" points="2727.22,-183.38 2719.35,-190.48 2729.92,-189.84 2727.22,-183.38"/>
</g>
<!-- Node34&#45;&gt;Node32 -->
<g id="edge30" class="edge">
<title>Node34&#45;&gt;Node32</title>
<path fill="none" stroke="midnightblue" d="M2421.09,-189.05C2479.46,-180.75 2563.23,-168.04 2636,-154 2645.04,-152.26 2654.75,-150.14 2663.77,-148.07"/>
<polygon fill="midnightblue" stroke="midnightblue" points="2420.28,-185.63 2410.86,-190.49 2421.26,-192.56 2420.28,-185.63"/>
</g>
<!-- Node35 -->
<g id="node24" class="node">
<title>Node35</title>
<g id="a_node24"><a xlink:href="ExtWrenchesAndJointTorquesEstimator_8h.html" target="_top" xlink:title=" ">
<polygon fill="none" stroke="black" points="2436,-123.5 2436,-153.5 2594,-153.5 2594,-123.5 2436,-123.5"/>
<text text-anchor="start" x="2444" y="-141.5" font-family="FreeSans.ttf" font-size="10.00">ExtWrenchesAndJointTorques</text>
<text text-anchor="middle" x="2515" y="-130.5" font-family="FreeSans.ttf" font-size="10.00">Estimator.h</text>
</a>
</g>
</g>
<!-- Node34&#45;&gt;Node35 -->
<g id="edge27" class="edge">
<title>Node34&#45;&gt;Node35</title>
<path fill="none" stroke="midnightblue" d="M2381.39,-187.1C2408.56,-177.42 2446.97,-163.74 2475.64,-153.52"/>
<polygon fill="midnightblue" stroke="midnightblue" points="2380.17,-183.82 2371.93,-190.48 2382.52,-190.42 2380.17,-183.82"/>
</g>
<!-- Node36 -->
<g id="node25" class="node">
<title>Node36</title>
<g id="a_node25"><a xlink:href="ExtWrenchesAndJointTorquesEstimator_8cpp.html" target="_top" xlink:title=" ">
<polygon fill="none" stroke="black" points="2489,-56.5 2489,-86.5 2647,-86.5 2647,-56.5 2489,-56.5"/>
<text text-anchor="start" x="2497" y="-74.5" font-family="FreeSans.ttf" font-size="10.00">ExtWrenchesAndJointTorques</text>
<text text-anchor="middle" x="2568" y="-63.5" font-family="FreeSans.ttf" font-size="10.00">Estimator.cpp</text>
</a>
</g>
</g>
<!-- Node34&#45;&gt;Node36 -->
<g id="edge32" class="edge">
<title>Node34&#45;&gt;Node36</title>
<path fill="none" stroke="midnightblue" d="M2441.95,-194.76C2505.86,-189.68 2582.43,-178.52 2603,-154 2620.02,-133.71 2598.37,-103.89 2582.33,-86.51"/>
<polygon fill="midnightblue" stroke="midnightblue" points="2441.52,-191.29 2431.81,-195.53 2442.04,-198.27 2441.52,-191.29"/>
</g>
<!-- Node37 -->
<g id="node26" class="node">
<title>Node37</title>
<g id="a_node26"><a xlink:href="GravityCompensationHelpers_8h.html" target="_top" xlink:title=" ">
<polygon fill="none" stroke="red" points="1894,-129 1894,-148 2064,-148 2064,-129 1894,-129"/>
<text text-anchor="middle" x="1979" y="-136" font-family="FreeSans.ttf" font-size="10.00">GravityCompensationHelpers.h</text>
</a>
</g>
</g>
<!-- Node34&#45;&gt;Node37 -->
<g id="edge29" class="edge">
<title>Node34&#45;&gt;Node37</title>
<path fill="none" stroke="midnightblue" d="M2284.93,-188.83C2213.56,-177.32 2098.58,-158.78 2031.77,-148.01"/>
<polygon fill="midnightblue" stroke="midnightblue" points="2284.7,-192.34 2295.13,-190.48 2285.82,-185.43 2284.7,-192.34"/>
</g>
<!-- Node39 -->
<g id="node27" class="node">
<title>Node39</title>
<g id="a_node27"><a xlink:href="ExternalWrenchesEstimation_8cpp.html" target="_top" xlink:title=" ">
<polygon fill="none" stroke="black" points="2082,-129 2082,-148 2260,-148 2260,-129 2082,-129"/>
<text text-anchor="middle" x="2171" y="-136" font-family="FreeSans.ttf" font-size="10.00">ExternalWrenchesEstimation.cpp</text>
</a>
</g>
</g>
<!-- Node34&#45;&gt;Node39 -->
<g id="edge31" class="edge">
<title>Node34&#45;&gt;Node39</title>
<path fill="none" stroke="midnightblue" d="M2312.99,-187.23C2278.59,-175.67 2226.92,-158.3 2196.31,-148.01"/>
<polygon fill="midnightblue" stroke="midnightblue" points="2312.05,-190.61 2322.64,-190.48 2314.28,-183.97 2312.05,-190.61"/>
</g>
<!-- Node40 -->
<g id="node28" class="node">
<title>Node40</title>
<g id="a_node28"><a xlink:href="skinDynLibConversions_8h.html" target="_top" xlink:title=" ">
<polygon fill="none" stroke="red" points="2278,-129 2278,-148 2418,-148 2418,-129 2278,-129"/>
<text text-anchor="middle" x="2348" y="-136" font-family="FreeSans.ttf" font-size="10.00">skinDynLibConversions.h</text>
</a>
</g>
</g>
<!-- Node34&#45;&gt;Node40 -->
<g id="edge33" class="edge">
<title>Node34&#45;&gt;Node40</title>
<path fill="none" stroke="midnightblue" d="M2348,-180.32C2348,-169.5 2348,-156.4 2348,-148.01"/>
<polygon fill="midnightblue" stroke="midnightblue" points="2344.5,-180.48 2348,-190.48 2351.5,-180.48 2344.5,-180.48"/>
</g>
<!-- Node35&#45;&gt;Node36 -->
<g id="edge28" class="edge">
<title>Node35&#45;&gt;Node36</title>
<path fill="none" stroke="midnightblue" d="M2532.98,-115.45C2540.77,-105.9 2549.65,-95 2556.52,-86.58"/>
<polygon fill="midnightblue" stroke="midnightblue" points="2530.11,-113.43 2526.5,-123.4 2535.53,-117.86 2530.11,-113.43"/>
</g>
<!-- Node43 -->
<g id="node30" class="node">
<title>Node43</title>
<g id="a_node30"><a xlink:href="InverseKinematicsData_8h.html" target="_top" xlink:title=" ">
<polygon fill="none" stroke="red" points="1123,-129 1123,-148 1263,-148 1263,-129 1123,-129"/>
<text text-anchor="middle" x="1193" y="-136" font-family="FreeSans.ttf" font-size="10.00">InverseKinematicsData.h</text>
</a>
</g>
</g>
<!-- Node42&#45;&gt;Node43 -->
<g id="edge35" class="edge">
<title>Node42&#45;&gt;Node43</title>
<path fill="none" stroke="midnightblue" d="M1341.87,-187.38C1305.91,-175.82 1251.58,-158.34 1219.46,-148.01"/>
<polygon fill="midnightblue" stroke="midnightblue" points="1340.9,-190.75 1351.49,-190.48 1343.05,-184.08 1340.9,-190.75"/>
</g>
<!-- Node45 -->
<g id="node31" class="node">
<title>Node45</title>
<g id="a_node31"><a xlink:href="TransformConstraint_8h.html" target="_top" xlink:title=" ">
<polygon fill="none" stroke="red" points="1281.5,-129 1281.5,-148 1406.5,-148 1406.5,-129 1281.5,-129"/>
<text text-anchor="middle" x="1344" y="-136" font-family="FreeSans.ttf" font-size="10.00">TransformConstraint.h</text>
</a>
</g>
</g>
<!-- Node42&#45;&gt;Node45 -->
<g id="edge37" class="edge">
<title>Node42&#45;&gt;Node45</title>
<path fill="none" stroke="midnightblue" d="M1368.1,-181.67C1361.78,-170.61 1353.86,-156.75 1348.86,-148.01"/>
<polygon fill="midnightblue" stroke="midnightblue" points="1365.13,-183.53 1373.13,-190.48 1371.21,-180.06 1365.13,-183.53"/>
</g>
<!-- Node47 -->
<g id="node32" class="node">
<title>Node47</title>
<g id="a_node32"><a xlink:href="InverseKinematics_8cpp.html" target="_top" xlink:title=" ">
<polygon fill="none" stroke="black" points="1425,-129 1425,-148 1553,-148 1553,-129 1425,-129"/>
<text text-anchor="middle" x="1489" y="-136" font-family="FreeSans.ttf" font-size="10.00">InverseKinematics.cpp</text>
</a>
</g>
</g>
<!-- Node42&#45;&gt;Node47 -->
<g id="edge39" class="edge">
<title>Node42&#45;&gt;Node47</title>
<path fill="none" stroke="midnightblue" d="M1402.79,-185.71C1424.29,-174.19 1454.76,-157.86 1473.13,-148.01"/>
<polygon fill="midnightblue" stroke="midnightblue" points="1401.06,-182.67 1393.9,-190.48 1404.37,-188.84 1401.06,-182.67"/>
</g>
<!-- Node43&#45;&gt;Node9 -->
<g id="edge36" class="edge">
<title>Node43&#45;&gt;Node9</title>
<path fill="none" stroke="midnightblue" d="M1193,-118.54C1193,-106.17 1193,-90.62 1193,-81.13"/>
<polygon fill="midnightblue" stroke="midnightblue" points="1189.5,-118.73 1193,-128.73 1196.5,-118.73 1189.5,-118.73"/>
</g>
<!-- Node45&#45;&gt;Node9 -->
<g id="edge38" class="edge">
<title>Node45&#45;&gt;Node9</title>
<path fill="none" stroke="midnightblue" d="M1314.45,-124.78C1284.55,-111.91 1239.12,-92.35 1213.13,-81.17"/>
<polygon fill="midnightblue" stroke="midnightblue" points="1313.38,-128.13 1323.95,-128.87 1316.15,-121.7 1313.38,-128.13"/>
</g>
<!-- Node48&#45;&gt;Node49 -->
<g id="edge41" class="edge">
<title>Node48&#45;&gt;Node49</title>
<path fill="none" stroke="midnightblue" d="M2991,-180.32C2991,-169.5 2991,-156.4 2991,-148.01"/>
<polygon fill="midnightblue" stroke="midnightblue" points="2987.5,-180.48 2991,-190.48 2994.5,-180.48 2987.5,-180.48"/>
</g>
<!-- Node50 -->
<g id="node35" class="node">
<title>Node50</title>
<g id="a_node35"><a xlink:href="qticubskinguiplugin_8h.html" target="_top" xlink:title=" ">
<polygon fill="none" stroke="red" points="3066.5,-129 3066.5,-148 3187.5,-148 3187.5,-129 3066.5,-129"/>
<text text-anchor="middle" x="3127" y="-136" font-family="FreeSans.ttf" font-size="10.00">qticubskinguiplugin.h</text>
</a>
</g>
</g>
<!-- Node48&#45;&gt;Node50 -->
<g id="edge42" class="edge">
<title>Node48&#45;&gt;Node50</title>
<path fill="none" stroke="midnightblue" d="M3019.97,-186.33C3046.37,-174.78 3084.64,-158.03 3107.55,-148.01"/>
<polygon fill="midnightblue" stroke="midnightblue" points="3018.24,-183.26 3010.49,-190.48 3021.05,-189.67 3018.24,-183.26"/>
</g>
<!-- Node54 -->
<g id="node37" class="node">
<title>Node54</title>
<g id="a_node37"><a xlink:href="idyntree-model-view_8cpp.html" target="_top" xlink:title=" ">
<polygon fill="none" stroke="black" points="3205.5,-129 3205.5,-148 3342.5,-148 3342.5,-129 3205.5,-129"/>
<text text-anchor="middle" x="3274" y="-136" font-family="FreeSans.ttf" font-size="10.00">idyntree&#45;model&#45;view.cpp</text>
</a>
</g>
</g>
<!-- Node53&#45;&gt;Node54 -->
<g id="edge45" class="edge">
<title>Node53&#45;&gt;Node54</title>
<path fill="none" stroke="midnightblue" d="M3657.98,-193.87C3590.2,-186.28 3461.21,-171.1 3352,-154 3340.84,-152.25 3328.83,-150.14 3317.65,-148.07"/>
<polygon fill="midnightblue" stroke="midnightblue" points="3657.99,-197.39 3668.31,-195.02 3658.76,-190.43 3657.99,-197.39"/>
</g>
<!-- Node55 -->
<g id="node38" class="node">
<title>Node55</title>
<g id="a_node38"><a xlink:href="Camera_8h.html" target="_top" xlink:title=" ">
<polygon fill="none" stroke="red" points="3424,-62 3424,-81 3488,-81 3488,-62 3424,-62"/>
<text text-anchor="middle" x="3456" y="-69" font-family="FreeSans.ttf" font-size="10.00">Camera.h</text>
</a>
</g>
</g>
<!-- Node53&#45;&gt;Node55 -->
<g id="edge46" class="edge">
<title>Node53&#45;&gt;Node55</title>
<path fill="none" stroke="midnightblue" d="M3658.13,-196.79C3617.55,-192.9 3558.81,-182.36 3516,-154 3487.58,-135.18 3467.78,-98.08 3459.85,-81.21"/>
<polygon fill="midnightblue" stroke="midnightblue" points="3658.03,-200.29 3668.29,-197.66 3658.63,-193.32 3658.03,-200.29"/>
</g>
<!-- Node59 -->
<g id="node39" class="node">
<title>Node59</title>
<g id="a_node39"><a xlink:href="CameraAnimator_8h.html" target="_top" xlink:title=" ">
<polygon fill="none" stroke="red" points="3361,-129 3361,-148 3469,-148 3469,-129 3361,-129"/>
<text text-anchor="middle" x="3415" y="-136" font-family="FreeSans.ttf" font-size="10.00">CameraAnimator.h</text>
</a>
</g>
</g>
<!-- Node53&#45;&gt;Node59 -->
<g id="edge47" class="edge">
<title>Node53&#45;&gt;Node59</title>
<path fill="none" stroke="midnightblue" d="M3658.41,-189.7C3613.47,-180.69 3543.54,-166.59 3483,-154 3473.78,-152.08 3463.87,-149.99 3454.54,-148"/>
<polygon fill="midnightblue" stroke="midnightblue" points="3657.95,-193.18 3668.44,-191.71 3659.33,-186.31 3657.95,-193.18"/>
</g>
<!-- Node61 -->
<g id="node40" class="node">
<title>Node61</title>
<g id="a_node40"><a xlink:href="IrrlichtUtils_8h.html" target="_top" xlink:title=" ">
<polygon fill="none" stroke="red" points="3850,-62 3850,-81 3930,-81 3930,-62 3850,-62"/>
<text text-anchor="middle" x="3890" y="-69" font-family="FreeSans.ttf" font-size="10.00">IrrlichtUtils.h</text>
</a>
</g>
</g>
<!-- Node53&#45;&gt;Node61 -->
<g id="edge49" class="edge">
<title>Node53&#45;&gt;Node61</title>
<path fill="none" stroke="midnightblue" d="M3751.93,-189.75C3818.03,-176.71 3930.64,-154.44 3931,-154 3950.19,-130.61 3917.92,-96.76 3900.3,-81.07"/>
<polygon fill="midnightblue" stroke="midnightblue" points="3750.87,-186.39 3741.74,-191.76 3752.23,-193.26 3750.87,-186.39"/>
</g>
<!-- Node70 -->
<g id="node41" class="node">
<title>Node70</title>
<g id="a_node41"><a xlink:href="FloorGridSceneNode_8h.html" target="_top" xlink:title=" ">
<polygon fill="none" stroke="red" points="3797.5,-129 3797.5,-148 3922.5,-148 3922.5,-129 3797.5,-129"/>
<text text-anchor="middle" x="3860" y="-136" font-family="FreeSans.ttf" font-size="10.00">FloorGridSceneNode.h</text>
</a>
</g>
</g>
<!-- Node53&#45;&gt;Node70 -->
<g id="edge50" class="edge">
<title>Node53&#45;&gt;Node70</title>
<path fill="none" stroke="midnightblue" d="M3736.83,-186.78C3766.95,-175.22 3811.38,-158.16 3837.83,-148.01"/>
<polygon fill="midnightblue" stroke="midnightblue" points="3735.29,-183.62 3727.21,-190.48 3737.8,-190.16 3735.29,-183.62"/>
</g>
<!-- Node71 -->
<g id="node42" class="node">
<title>Node71</title>
<g id="a_node42"><a xlink:href="Environment_8h.html" target="_top" xlink:title=" ">
<polygon fill="none" stroke="red" points="3661,-62 3661,-81 3749,-81 3749,-62 3661,-62"/>
<text text-anchor="middle" x="3705" y="-69" font-family="FreeSans.ttf" font-size="10.00">Environment.h</text>
</a>
</g>
</g>
<!-- Node53&#45;&gt;Node71 -->
<g id="edge56" class="edge">
<title>Node53&#45;&gt;Node71</title>
<path fill="none" stroke="midnightblue" d="M3663.14,-186.61C3647.39,-179.69 3631.1,-169.28 3622,-154 3614.95,-142.16 3615.25,-135.01 3622,-123 3633.82,-101.97 3658.33,-88.68 3677.67,-81.04"/>
<polygon fill="midnightblue" stroke="midnightblue" points="3662.23,-190.02 3672.82,-190.49 3664.83,-183.52 3662.23,-190.02"/>
</g>
<!-- Node72 -->
<g id="node43" class="node">
<title>Node72</title>
<g id="a_node43"><a xlink:href="Texture_8h.html" target="_top" xlink:title=" ">
<polygon fill="none" stroke="red" points="3816,-0.5 3816,-19.5 3878,-19.5 3878,-0.5 3816,-0.5"/>
<text text-anchor="middle" x="3847" y="-7.5" font-family="FreeSans.ttf" font-size="10.00">Texture.h</text>
</a>
</g>
</g>
<!-- Node53&#45;&gt;Node72 -->
<g id="edge64" class="edge">
<title>Node53&#45;&gt;Node72</title>
<path fill="none" stroke="midnightblue" d="M3751.68,-190.18C3809.02,-182.34 3921.17,-186.18 3948,-154 3960.74,-138.72 3952.95,-75.35 3939,-56 3924.55,-35.95 3898.66,-24.41 3878.03,-18.04"/>
<polygon fill="midnightblue" stroke="midnightblue" points="3750.97,-186.75 3741.65,-191.79 3752.08,-193.66 3750.97,-186.75"/>
</g>
<!-- Node74 -->
<g id="node44" class="node">
<title>Node74</title>
<g id="a_node44"><a xlink:href="DummyImplementations_8h.html" target="_top" xlink:title=" ">
<polygon fill="none" stroke="red" points="3631,-129 3631,-148 3779,-148 3779,-129 3631,-129"/>
<text text-anchor="middle" x="3705" y="-136" font-family="FreeSans.ttf" font-size="10.00">DummyImplementations.h</text>
</a>
</g>
</g>
<!-- Node53&#45;&gt;Node74 -->
<g id="edge54" class="edge">
<title>Node53&#45;&gt;Node74</title>
<path fill="none" stroke="midnightblue" d="M3705,-180.32C3705,-169.5 3705,-156.4 3705,-148.01"/>
<polygon fill="midnightblue" stroke="midnightblue" points="3701.5,-180.48 3705,-190.48 3708.5,-180.48 3701.5,-180.48"/>
</g>
<!-- Node76 -->
<g id="node45" class="node">
<title>Node76</title>
<g id="a_node45"><a xlink:href="Light_8h.html" target="_top" xlink:title=" ">
<polygon fill="none" stroke="red" points="3525,-129 3525,-148 3575,-148 3575,-129 3525,-129"/>
<text text-anchor="middle" x="3550" y="-136" font-family="FreeSans.ttf" font-size="10.00">Light.h</text>
</a>
</g>
</g>
<!-- Node53&#45;&gt;Node76 -->
<g id="edge57" class="edge">
<title>Node53&#45;&gt;Node76</title>
<path fill="none" stroke="midnightblue" d="M3673.17,-186.78C3643.05,-175.22 3598.62,-158.16 3572.17,-148.01"/>
<polygon fill="midnightblue" stroke="midnightblue" points="3672.2,-190.16 3682.79,-190.48 3674.71,-183.62 3672.2,-190.16"/>
</g>
<!-- Node77 -->
<g id="node46" class="node">
<title>Node77</title>
<g id="a_node46"><a xlink:href="FrameVisualization_8h.html" target="_top" xlink:title=" ">
<polygon fill="none" stroke="red" points="4027.5,-62 4027.5,-81 4146.5,-81 4146.5,-62 4027.5,-62"/>
<text text-anchor="middle" x="4087" y="-69" font-family="FreeSans.ttf" font-size="10.00">FrameVisualization.h</text>
</a>
</g>
</g>
<!-- Node53&#45;&gt;Node77 -->
<g id="edge59" class="edge">
<title>Node53&#45;&gt;Node77</title>
<path fill="none" stroke="midnightblue" d="M3751.72,-190.25C3838.9,-180.94 4028.32,-203.67 4078,-154 4097.53,-134.48 4092.63,-97.74 4089.11,-81.09"/>
<polygon fill="midnightblue" stroke="midnightblue" points="3751.08,-186.8 3741.61,-191.55 3751.98,-193.75 3751.08,-186.8"/>
</g>
<!-- Node78 -->
<g id="node47" class="node">
<title>Node78</title>
<g id="a_node47"><a xlink:href="Label_8h.html" target="_top" xlink:title=" ">
<polygon fill="none" stroke="red" points="4017,-129 4017,-148 4069,-148 4069,-129 4017,-129"/>
<text text-anchor="middle" x="4043" y="-136" font-family="FreeSans.ttf" font-size="10.00">Label.h</text>
</a>
</g>
</g>
<!-- Node53&#45;&gt;Node78 -->
<g id="edge60" class="edge">
<title>Node53&#45;&gt;Node78</title>
<path fill="none" stroke="midnightblue" d="M3751.69,-189.99C3864.35,-171.68 3896.35,-180.65 4003,-154 4009.31,-152.42 4016,-150.22 4022.08,-148"/>
<polygon fill="midnightblue" stroke="midnightblue" points="3750.92,-186.57 3741.63,-191.66 3752.07,-193.47 3750.92,-186.57"/>
</g>
<!-- Node80 -->
<g id="node48" class="node">
<title>Node80</title>
<g id="a_node48"><a xlink:href="JetsVisualization_8h.html" target="_top" xlink:title=" ">
<polygon fill="none" stroke="red" points="4125.5,-129 4125.5,-148 4232.5,-148 4232.5,-129 4125.5,-129"/>
<text text-anchor="middle" x="4179" y="-136" font-family="FreeSans.ttf" font-size="10.00">JetsVisualization.h</text>
</a>
</g>
</g>
<!-- Node53&#45;&gt;Node80 -->
<g id="edge62" class="edge">
<title>Node53&#45;&gt;Node80</title>
<path fill="none" stroke="midnightblue" d="M3751.81,-190.03C3911.85,-167.02 3955.38,-178.3 4111,-154 4121.26,-152.4 4132.3,-150.24 4142.44,-148.07"/>
<polygon fill="midnightblue" stroke="midnightblue" points="3750.99,-186.61 3741.61,-191.52 3752.01,-193.54 3750.99,-186.61"/>
</g>
<!-- Node81 -->
<g id="node49" class="node">
<title>Node81</title>
<g id="a_node49"><a xlink:href="ModelVisualization_8h.html" target="_top" xlink:title=" ">
<polygon fill="none" stroke="red" points="4250.5,-129 4250.5,-148 4369.5,-148 4369.5,-129 4250.5,-129"/>
<text text-anchor="middle" x="4310" y="-136" font-family="FreeSans.ttf" font-size="10.00">ModelVisualization.h</text>
</a>
</g>
</g>
<!-- Node53&#45;&gt;Node81 -->
<g id="edge63" class="edge">
<title>Node53&#45;&gt;Node81</title>
<path fill="none" stroke="midnightblue" d="M3751.75,-190.08C3969.65,-161.65 4028.66,-184.42 4242,-154 4252.64,-152.48 4264.09,-150.27 4274.52,-148.02"/>
<polygon fill="midnightblue" stroke="midnightblue" points="3751.05,-186.65 3741.59,-191.43 3751.97,-193.58 3751.05,-186.65"/>
</g>
<!-- Node59&#45;&gt;Node55 -->
<g id="edge48" class="edge">
<title>Node59&#45;&gt;Node55</title>
<path fill="none" stroke="midnightblue" d="M3426.02,-120.03C3433.95,-107.45 3444.33,-91.01 3450.56,-81.13"/>
<polygon fill="midnightblue" stroke="midnightblue" points="3422.9,-118.41 3420.53,-128.73 3428.82,-122.14 3422.9,-118.41"/>
</g>
<!-- Node70&#45;&gt;Node61 -->
<g id="edge51" class="edge">
<title>Node70&#45;&gt;Node61</title>
<path fill="none" stroke="midnightblue" d="M3868.4,-119.29C3874.17,-106.81 3881.55,-90.81 3886.02,-81.13"/>
<polygon fill="midnightblue" stroke="midnightblue" points="3865.06,-118.19 3864.05,-128.73 3871.41,-121.12 3865.06,-118.19"/>
</g>
<!-- Node70&#45;&gt;Node71 -->
<g id="edge52" class="edge">
<title>Node70&#45;&gt;Node71</title>
<path fill="none" stroke="midnightblue" d="M3830.07,-124.95C3799.38,-112.08 3752.46,-92.4 3725.67,-81.17"/>
<polygon fill="midnightblue" stroke="midnightblue" points="3828.84,-128.23 3839.42,-128.87 3831.55,-121.77 3828.84,-128.23"/>
</g>
<!-- Node71&#45;&gt;Node72 -->
<g id="edge53" class="edge">
<title>Node71&#45;&gt;Node72</title>
<path fill="none" stroke="midnightblue" d="M3734.88,-57.98C3762.46,-46.42 3802.67,-29.58 3826.69,-19.51"/>
<polygon fill="midnightblue" stroke="midnightblue" points="3733.22,-54.88 3725.35,-61.98 3735.92,-61.34 3733.22,-54.88"/>
</g>
<!-- Node74&#45;&gt;Node71 -->
<g id="edge55" class="edge">
<title>Node74&#45;&gt;Node71</title>
<path fill="none" stroke="midnightblue" d="M3705,-118.54C3705,-106.17 3705,-90.62 3705,-81.13"/>
<polygon fill="midnightblue" stroke="midnightblue" points="3701.5,-118.73 3705,-128.73 3708.5,-118.73 3701.5,-118.73"/>
</g>
<!-- Node76&#45;&gt;Node71 -->
<g id="edge58" class="edge">
<title>Node76&#45;&gt;Node71</title>
<path fill="none" stroke="midnightblue" d="M3579.93,-124.95C3610.62,-112.08 3657.54,-92.4 3684.33,-81.17"/>
<polygon fill="midnightblue" stroke="midnightblue" points="3578.45,-121.77 3570.58,-128.87 3581.16,-128.23 3578.45,-121.77"/>
</g>
<!-- Node78&#45;&gt;Node77 -->
<g id="edge61" class="edge">
<title>Node78&#45;&gt;Node77</title>
<path fill="none" stroke="midnightblue" d="M4054.57,-120.4C4063.12,-107.77 4074.41,-91.1 4081.16,-81.13"/>
<polygon fill="midnightblue" stroke="midnightblue" points="4051.64,-118.49 4048.93,-128.73 4057.44,-122.41 4051.64,-118.49"/>
</g>
</g>
</svg>
