<?xml version="1.0" encoding="UTF-8" standalone="no"?>
<!DOCTYPE svg PUBLIC "-//W3C//DTD SVG 1.1//EN"
 "http://www.w3.org/Graphics/SVG/1.1/DTD/svg11.dtd">
<!-- Generated by graphviz version 2.43.0 (0)
 -->
<!-- Title: DynamicalSystem.h Pages: 1 -->
<svg width="1488pt" height="140pt"
 viewBox="0.00 0.00 1488.00 140.00" xmlns="http://www.w3.org/2000/svg" xmlns:xlink="http://www.w3.org/1999/xlink">
<g id="graph0" class="graph" transform="scale(1 1) rotate(0) translate(4 136)">
<title>DynamicalSystem.h</title>
<!-- Node1 -->
<g id="node1" class="node">
<title>Node1</title>
<g id="a_node1"><a xlink:title=" ">
<polygon fill="#bfbfbf" stroke="black" points="674.5,-112.5 674.5,-131.5 789.5,-131.5 789.5,-112.5 674.5,-112.5"/>
<text text-anchor="middle" x="732" y="-119.5" font-family="FreeSans.ttf" font-size="10.00">DynamicalSystem.h</text>
</a>
</g>
</g>
<!-- Node2 -->
<g id="node2" class="node">
<title>Node2</title>
<g id="a_node2"><a xlink:href="ControlledDynamicalSystem_8h.html" target="_top" xlink:title=" ">
<polygon fill="none" stroke="black" points="51.5,-56.5 51.5,-75.5 216.5,-75.5 216.5,-56.5 51.5,-56.5"/>
<text text-anchor="middle" x="134" y="-63.5" font-family="FreeSans.ttf" font-size="10.00">ControlledDynamicalSystem.h</text>
</a>
</g>
</g>
<!-- Node1&#45;&gt;Node2 -->
<g id="edge1" class="edge">
<title>Node1&#45;&gt;Node2</title>
<path fill="none" stroke="midnightblue" d="M664.38,-114.89C554.12,-104.94 335.94,-85.23 216.65,-74.46"/>
<polygon fill="midnightblue" stroke="midnightblue" points="664.12,-118.38 674.39,-115.8 664.75,-111.41 664.12,-118.38"/>
</g>
<!-- Node4 -->
<g id="node4" class="node">
<title>Node4</title>
<g id="a_node4"><a xlink:href="LinearSystem_8h.html" target="_top" xlink:title=" ">
<polygon fill="none" stroke="black" points="318,-56.5 318,-75.5 410,-75.5 410,-56.5 318,-56.5"/>
<text text-anchor="middle" x="364" y="-63.5" font-family="FreeSans.ttf" font-size="10.00">LinearSystem.h</text>
</a>
</g>
</g>
<!-- Node1&#45;&gt;Node4 -->
<g id="edge3" class="edge">
<title>Node1&#45;&gt;Node4</title>
<path fill="none" stroke="midnightblue" d="M664.26,-111.18C601.85,-102.11 506.67,-88.24 424,-76 419.52,-75.34 414.85,-74.64 410.19,-73.95"/>
<polygon fill="midnightblue" stroke="midnightblue" points="663.97,-114.67 674.37,-112.65 664.98,-107.75 663.97,-114.67"/>
</g>
<!-- Node5 -->
<g id="node5" class="node">
<title>Node5</title>
<g id="a_node5"><a xlink:href="OptimalControl_8h.html" target="_top" xlink:title=" ">
<polygon fill="none" stroke="black" points="194,-0.5 194,-19.5 294,-19.5 294,-0.5 194,-0.5"/>
<text text-anchor="middle" x="244" y="-7.5" font-family="FreeSans.ttf" font-size="10.00">OptimalControl.h</text>
</a>
</g>
</g>
<!-- Node1&#45;&gt;Node5 -->
<g id="edge9" class="edge">
<title>Node1&#45;&gt;Node5</title>
<path fill="none" stroke="midnightblue" d="M664.38,-119.25C561.25,-115.68 370.18,-105.23 309,-76 281.93,-63.07 259.56,-34.07 249.59,-19.58"/>
<polygon fill="midnightblue" stroke="midnightblue" points="664.27,-122.75 674.38,-119.59 664.5,-115.75 664.27,-122.75"/>
</g>
<!-- Node7 -->
<g id="node7" class="node">
<title>Node7</title>
<g id="a_node7"><a xlink:href="OptimalControlProblem_8cpp.html" target="_top" xlink:title=" ">
<polygon fill="none" stroke="black" points="434,-0.5 434,-19.5 586,-19.5 586,-0.5 434,-0.5"/>
<text text-anchor="middle" x="510" y="-7.5" font-family="FreeSans.ttf" font-size="10.00">OptimalControlProblem.cpp</text>
</a>
</g>
</g>
<!-- Node1&#45;&gt;Node7 -->
<g id="edge16" class="edge">
<title>Node1&#45;&gt;Node7</title>
<path fill="none" stroke="midnightblue" d="M664.44,-119.61C591.77,-116.51 483.1,-106.72 457,-76 440.03,-56.03 473.13,-32.01 494.27,-19.5"/>
<polygon fill="midnightblue" stroke="midnightblue" points="664.31,-123.11 674.44,-120 664.59,-116.11 664.31,-123.11"/>
</g>
<!-- Node8 -->
<g id="node8" class="node">
<title>Node8</title>
<g id="a_node8"><a xlink:href="MultiBodySystem_8h.html" target="_top" xlink:title=" ">
<polygon fill="none" stroke="black" points="466,-56.5 466,-75.5 578,-75.5 578,-56.5 466,-56.5"/>
<text text-anchor="middle" x="522" y="-63.5" font-family="FreeSans.ttf" font-size="10.00">MultiBodySystem.h</text>
</a>
</g>
</g>
<!-- Node1&#45;&gt;Node8 -->
<g id="edge7" class="edge">
<title>Node1&#45;&gt;Node8</title>
<path fill="none" stroke="midnightblue" d="M688.81,-109.89C649.15,-99.7 591.23,-84.8 555.12,-75.52"/>
<polygon fill="midnightblue" stroke="midnightblue" points="688.17,-113.34 698.72,-112.44 689.91,-106.56 688.17,-113.34"/>
</g>
<!-- Node10 -->
<g id="node10" class="node">
<title>Node10</title>
<g id="a_node10"><a xlink:href="DynamicalSystem_8cpp.html" target="_top" xlink:title=" ">
<polygon fill="none" stroke="black" points="596,-56.5 596,-75.5 722,-75.5 722,-56.5 596,-56.5"/>
<text text-anchor="middle" x="659" y="-63.5" font-family="FreeSans.ttf" font-size="10.00">DynamicalSystem.cpp</text>
</a>
</g>
</g>
<!-- Node1&#45;&gt;Node10 -->
<g id="edge10" class="edge">
<title>Node1&#45;&gt;Node10</title>
<path fill="none" stroke="midnightblue" d="M711.86,-106.1C698.72,-96.38 682.02,-84.03 670.94,-75.83"/>
<polygon fill="midnightblue" stroke="midnightblue" points="710.15,-109.19 720.27,-112.32 714.31,-103.56 710.15,-109.19"/>
</g>
<!-- Node11 -->
<g id="node11" class="node">
<title>Node11</title>
<g id="a_node11"><a xlink:href="FixedStepIntegrator_8cpp.html" target="_top" xlink:title=" ">
<polygon fill="none" stroke="black" points="740.5,-56.5 740.5,-75.5 871.5,-75.5 871.5,-56.5 740.5,-56.5"/>
<text text-anchor="middle" x="806" y="-63.5" font-family="FreeSans.ttf" font-size="10.00">FixedStepIntegrator.cpp</text>
</a>
</g>
</g>
<!-- Node1&#45;&gt;Node11 -->
<g id="edge11" class="edge">
<title>Node1&#45;&gt;Node11</title>
<path fill="none" stroke="midnightblue" d="M752.03,-106.38C765.41,-96.62 782.56,-84.11 793.89,-75.83"/>
<polygon fill="midnightblue" stroke="midnightblue" points="749.9,-103.6 743.89,-112.32 754.03,-109.26 749.9,-103.6"/>
</g>
<!-- Node12 -->
<g id="node12" class="node">
<title>Node12</title>
<g id="a_node12"><a xlink:href="ForwardEuler_8cpp.html" target="_top" xlink:title=" ">
<polygon fill="none" stroke="black" points="890,-56.5 890,-75.5 990,-75.5 990,-56.5 890,-56.5"/>
<text text-anchor="middle" x="940" y="-63.5" font-family="FreeSans.ttf" font-size="10.00">ForwardEuler.cpp</text>
</a>
</g>
</g>
<!-- Node1&#45;&gt;Node12 -->
<g id="edge12" class="edge">
<title>Node1&#45;&gt;Node12</title>
<path fill="none" stroke="midnightblue" d="M774.78,-109.89C814.06,-99.7 871.43,-84.8 907.2,-75.52"/>
<polygon fill="midnightblue" stroke="midnightblue" points="773.76,-106.54 764.96,-112.44 775.52,-113.32 773.76,-106.54"/>
</g>
<!-- Node13 -->
<g id="node13" class="node">
<title>Node13</title>
<g id="a_node13"><a xlink:href="ImplicitTrapezoidal_8cpp.html" target="_top" xlink:title=" ">
<polygon fill="none" stroke="black" points="1008.5,-56.5 1008.5,-75.5 1137.5,-75.5 1137.5,-56.5 1008.5,-56.5"/>
<text text-anchor="middle" x="1073" y="-63.5" font-family="FreeSans.ttf" font-size="10.00">ImplicitTrapezoidal.cpp</text>
</a>
</g>
</g>
<!-- Node1&#45;&gt;Node13 -->
<g id="edge13" class="edge">
<title>Node1&#45;&gt;Node13</title>
<path fill="none" stroke="midnightblue" d="M796.07,-110.85C860.5,-100.65 958.72,-85.1 1019.22,-75.52"/>
<polygon fill="midnightblue" stroke="midnightblue" points="795.36,-107.42 786.03,-112.44 796.46,-114.34 795.36,-107.42"/>
</g>
<!-- Node14 -->
<g id="node14" class="node">
<title>Node14</title>
<g id="a_node14"><a xlink:href="Integrator_8cpp.html" target="_top" xlink:title=" ">
<polygon fill="none" stroke="black" points="1156,-56.5 1156,-75.5 1240,-75.5 1240,-56.5 1156,-56.5"/>
<text text-anchor="middle" x="1198" y="-63.5" font-family="FreeSans.ttf" font-size="10.00">Integrator.cpp</text>
</a>
</g>
</g>
<!-- Node1&#45;&gt;Node14 -->
<g id="edge14" class="edge">
<title>Node1&#45;&gt;Node14</title>
<path fill="none" stroke="midnightblue" d="M799.52,-115.07C881.79,-107.53 1024.92,-93.37 1147,-76 1149.85,-75.59 1152.78,-75.15 1155.73,-74.68"/>
<polygon fill="midnightblue" stroke="midnightblue" points="799.19,-111.59 789.55,-115.98 799.83,-118.56 799.19,-111.59"/>
</g>
<!-- Node15 -->
<g id="node15" class="node">
<title>Node15</title>
<g id="a_node15"><a xlink:href="MultipleShootingSolver_8cpp.html" target="_top" xlink:title=" ">
<polygon fill="none" stroke="black" points="1257.5,-56.5 1257.5,-75.5 1406.5,-75.5 1406.5,-56.5 1257.5,-56.5"/>
<text text-anchor="middle" x="1332" y="-63.5" font-family="FreeSans.ttf" font-size="10.00">MultipleShootingSolver.cpp</text>
</a>
</g>
</g>
<!-- Node1&#45;&gt;Node15 -->
<g id="edge15" class="edge">
<title>Node1&#45;&gt;Node15</title>
<path fill="none" stroke="midnightblue" d="M799.95,-115.55C898.83,-107.51 1088.13,-91.72 1249,-76 1251.74,-75.73 1254.53,-75.45 1257.35,-75.17"/>
<polygon fill="midnightblue" stroke="midnightblue" points="799.48,-112.07 789.8,-116.37 800.05,-119.05 799.48,-112.07"/>
</g>
<!-- Node16 -->
<g id="node16" class="node">
<title>Node16</title>
<g id="a_node16"><a xlink:href="RK4_8cpp.html" target="_top" xlink:title=" ">
<polygon fill="none" stroke="black" points="1424,-56.5 1424,-75.5 1480,-75.5 1480,-56.5 1424,-56.5"/>
<text text-anchor="middle" x="1452" y="-63.5" font-family="FreeSans.ttf" font-size="10.00">RK4.cpp</text>
</a>
</g>
</g>
<!-- Node1&#45;&gt;Node16 -->
<g id="edge17" class="edge">
<title>Node1&#45;&gt;Node16</title>
<path fill="none" stroke="midnightblue" d="M799.63,-120.56C922.91,-118.86 1192.14,-111.06 1416,-76 1418.55,-75.6 1421.18,-75.11 1423.8,-74.56"/>
<polygon fill="midnightblue" stroke="midnightblue" points="799.54,-117.06 789.58,-120.68 799.63,-124.06 799.54,-117.06"/>
</g>
<!-- Node3 -->
<g id="node3" class="node">
<title>Node3</title>
<g id="a_node3"><a xlink:href="ControlledDynamicalSystem_8cpp.html" target="_top" xlink:title=" ">
<polygon fill="none" stroke="black" points="0,-0.5 0,-19.5 176,-19.5 176,-0.5 0,-0.5"/>
<text text-anchor="middle" x="88" y="-7.5" font-family="FreeSans.ttf" font-size="10.00">ControlledDynamicalSystem.cpp</text>
</a>
</g>
</g>
<!-- Node2&#45;&gt;Node3 -->
<g id="edge2" class="edge">
<title>Node2&#45;&gt;Node3</title>
<path fill="none" stroke="midnightblue" d="M119.89,-48.43C111.82,-38.97 102.04,-27.48 95.45,-19.75"/>
<polygon fill="midnightblue" stroke="midnightblue" points="117.25,-50.74 126.4,-56.08 122.58,-46.2 117.25,-50.74"/>
</g>
<!-- Node4&#45;&gt;Node5 -->
<g id="edge4" class="edge">
<title>Node4&#45;&gt;Node5</title>
<path fill="none" stroke="midnightblue" d="M335.63,-52.23C313.18,-42.13 282.46,-28.31 262.93,-19.52"/>
<polygon fill="midnightblue" stroke="midnightblue" points="334.43,-55.53 344.99,-56.44 337.3,-49.15 334.43,-55.53"/>
</g>
<!-- Node6 -->
<g id="node6" class="node">
<title>Node6</title>
<g id="a_node6"><a xlink:href="LinearSystem_8cpp.html" target="_top" xlink:title=" ">
<polygon fill="none" stroke="black" points="312,-0.5 312,-19.5 416,-19.5 416,-0.5 312,-0.5"/>
<text text-anchor="middle" x="364" y="-7.5" font-family="FreeSans.ttf" font-size="10.00">LinearSystem.cpp</text>
</a>
</g>
</g>
<!-- Node4&#45;&gt;Node6 -->
<g id="edge5" class="edge">
<title>Node4&#45;&gt;Node6</title>
<path fill="none" stroke="midnightblue" d="M364,-45.8C364,-36.91 364,-26.78 364,-19.75"/>
<polygon fill="midnightblue" stroke="midnightblue" points="360.5,-46.08 364,-56.08 367.5,-46.08 360.5,-46.08"/>
</g>
<!-- Node4&#45;&gt;Node7 -->
<g id="edge6" class="edge">
<title>Node4&#45;&gt;Node7</title>
<path fill="none" stroke="midnightblue" d="M396.7,-52.91C424.15,-42.75 462.67,-28.51 486.97,-19.52"/>
<polygon fill="midnightblue" stroke="midnightblue" points="395.3,-49.69 387.13,-56.44 397.73,-56.26 395.3,-49.69"/>
</g>
<!-- Node9 -->
<g id="node9" class="node">
<title>Node9</title>
<g id="a_node9"><a xlink:href="MultiBodySystem_8cpp.html" target="_top" xlink:title=" ">
<polygon fill="none" stroke="black" points="604.5,-0.5 604.5,-19.5 727.5,-19.5 727.5,-0.5 604.5,-0.5"/>
<text text-anchor="middle" x="666" y="-7.5" font-family="FreeSans.ttf" font-size="10.00">MultiBodySystem.cpp</text>
</a>
</g>
</g>
<!-- Node8&#45;&gt;Node9 -->
<g id="edge8" class="edge">
<title>Node8&#45;&gt;Node9</title>
<path fill="none" stroke="midnightblue" d="M554.25,-52.91C581.32,-42.75 619.32,-28.51 643.29,-19.52"/>
<polygon fill="midnightblue" stroke="midnightblue" points="552.95,-49.66 544.82,-56.44 555.41,-56.21 552.95,-49.66"/>
</g>
</g>
</svg>
