<?xml version="1.0" encoding="UTF-8" standalone="no"?>
<!DOCTYPE svg PUBLIC "-//W3C//DTD SVG 1.1//EN"
 "http://www.w3.org/Graphics/SVG/1.1/DTD/svg11.dtd">
<!-- Generated by graphviz version 2.43.0 (0)
 -->
<!-- Title: Dynamics.h Pages: 1 -->
<svg width="1499pt" height="666pt"
 viewBox="0.00 0.00 1499.00 666.00" xmlns="http://www.w3.org/2000/svg" xmlns:xlink="http://www.w3.org/1999/xlink">
<g id="graph0" class="graph" transform="scale(1 1) rotate(0) translate(4 662)">
<title>Dynamics.h</title>
<!-- Node1 -->
<g id="node1" class="node">
<title>Node1</title>
<g id="a_node1"><a xlink:title=" ">
<polygon fill="#bfbfbf" stroke="black" points="612.5,-638.5 612.5,-657.5 686.5,-657.5 686.5,-638.5 612.5,-638.5"/>
<text text-anchor="middle" x="649.5" y="-645.5" font-family="FreeSans.ttf" font-size="10.00">Dynamics.h</text>
</a>
</g>
</g>
<!-- Node2 -->
<g id="node2" class="node">
<title>Node2</title>
<g id="a_node2"><a xlink:href="MatrixDynSize_8h.html" target="_top" xlink:title=" ">
<polygon fill="none" stroke="black" points="1100.5,-168.5 1100.5,-187.5 1268.5,-187.5 1268.5,-168.5 1100.5,-168.5"/>
<text text-anchor="middle" x="1184.5" y="-175.5" font-family="FreeSans.ttf" font-size="10.00">iDynTree/Core/MatrixDynSize.h</text>
</a>
</g>
</g>
<!-- Node1&#45;&gt;Node2 -->
<g id="edge1" class="edge">
<title>Node1&#45;&gt;Node2</title>
<path fill="none" stroke="midnightblue" d="M686.65,-644.73C825.42,-635.78 1305.5,-600.22 1305.5,-537 1305.5,-537 1305.5,-537 1305.5,-300 1305.5,-265.18 1308.93,-250.63 1286.5,-224 1273.07,-208.06 1252.88,-197.56 1234,-190.75"/>
<polygon fill="midnightblue" stroke="midnightblue" points="1234.88,-187.36 1224.29,-187.52 1232.67,-194 1234.88,-187.36"/>
</g>
<!-- Node17 -->
<g id="node17" class="node">
<title>Node17</title>
<g id="a_node17"><a xlink:href="Indices_8h.html" target="_top" xlink:title=" ">
<polygon fill="none" stroke="black" points="0,-526.5 0,-545.5 139,-545.5 139,-526.5 0,-526.5"/>
<text text-anchor="middle" x="69.5" y="-533.5" font-family="FreeSans.ttf" font-size="10.00">iDynTree/Model/Indices.h</text>
</a>
</g>
</g>
<!-- Node1&#45;&gt;Node17 -->
<g id="edge19" class="edge">
<title>Node1&#45;&gt;Node17</title>
<path fill="none" stroke="midnightblue" d="M612.34,-639.95C513.09,-621.13 241.47,-569.62 124.39,-547.41"/>
<polygon fill="midnightblue" stroke="midnightblue" points="125.04,-543.97 114.56,-545.55 123.73,-550.85 125.04,-543.97"/>
</g>
<!-- Node19 -->
<g id="node19" class="node">
<title>Node19</title>
<g id="a_node19"><a xlink:href="LinkState_8h.html" target="_top" xlink:title=" ">
<polygon fill="none" stroke="black" points="503.5,-582.5 503.5,-601.5 653.5,-601.5 653.5,-582.5 503.5,-582.5"/>
<text text-anchor="middle" x="578.5" y="-589.5" font-family="FreeSans.ttf" font-size="10.00">iDynTree/Model/LinkState.h</text>
</a>
</g>
</g>
<!-- Node1&#45;&gt;Node19 -->
<g id="edge23" class="edge">
<title>Node1&#45;&gt;Node19</title>
<path fill="none" stroke="midnightblue" d="M638.09,-638.32C627.39,-630.18 611.16,-617.84 598.34,-608.09"/>
<polygon fill="midnightblue" stroke="midnightblue" points="600.19,-605.1 590.11,-601.83 595.96,-610.67 600.19,-605.1"/>
</g>
<!-- Node39 -->
<g id="node39" class="node">
<title>Node39</title>
<g id="a_node39"><a xlink:href="JointState_8h.html" target="_top" xlink:title=" ">
<polygon fill="none" stroke="black" points="691.5,-526.5 691.5,-545.5 843.5,-545.5 843.5,-526.5 691.5,-526.5"/>
<text text-anchor="middle" x="767.5" y="-533.5" font-family="FreeSans.ttf" font-size="10.00">iDynTree/Model/JointState.h</text>
</a>
</g>
</g>
<!-- Node1&#45;&gt;Node39 -->
<g id="edge78" class="edge">
<title>Node1&#45;&gt;Node39</title>
<path fill="none" stroke="midnightblue" d="M658.76,-638.37C678.66,-619.81 725.76,-575.91 750.94,-552.44"/>
<polygon fill="midnightblue" stroke="midnightblue" points="753.36,-554.97 758.28,-545.59 748.58,-549.85 753.36,-554.97"/>
</g>
<!-- Node3 -->
<g id="node3" class="node">
<title>Node3</title>
<g id="a_node3"><a xlink:title=" ">
<polygon fill="none" stroke="#bfbfbf" points="940.5,-112.5 940.5,-131.5 984.5,-131.5 984.5,-112.5 940.5,-112.5"/>
<text text-anchor="middle" x="962.5" y="-119.5" font-family="FreeSans.ttf" font-size="10.00">string</text>
</a>
</g>
</g>
<!-- Node2&#45;&gt;Node3 -->
<g id="edge2" class="edge">
<title>Node2&#45;&gt;Node3</title>
<path fill="none" stroke="midnightblue" d="M1149.32,-168.44C1106.72,-158.08 1035.57,-140.77 994.46,-130.77"/>
<polygon fill="midnightblue" stroke="midnightblue" points="995.24,-127.36 984.7,-128.4 993.58,-134.16 995.24,-127.36"/>
</g>
<!-- Node4 -->
<g id="node4" class="node">
<title>Node4</title>
<g id="a_node4"><a xlink:href="MatrixView_8h.html" target="_top" xlink:title=" ">
<polygon fill="none" stroke="black" points="595.5,-112.5 595.5,-131.5 747.5,-131.5 747.5,-112.5 595.5,-112.5"/>
<text text-anchor="middle" x="671.5" y="-119.5" font-family="FreeSans.ttf" font-size="10.00">iDynTree/Core/MatrixView.h</text>
</a>
</g>
</g>
<!-- Node2&#45;&gt;Node4 -->
<g id="edge3" class="edge">
<title>Node2&#45;&gt;Node4</title>
<path fill="none" stroke="midnightblue" d="M1103.5,-168.47C1009.28,-158.56 854.38,-142.25 757.91,-132.1"/>
<polygon fill="midnightblue" stroke="midnightblue" points="758.2,-128.61 747.89,-131.04 757.47,-135.57 758.2,-128.61"/>
</g>
<!-- Node5 -->
<g id="node5" class="node">
<title>Node5</title>
<g id="a_node5"><a xlink:title=" ">
<polygon fill="none" stroke="#bfbfbf" points="538.5,-0.5 538.5,-19.5 590.5,-19.5 590.5,-0.5 538.5,-0.5"/>
<text text-anchor="middle" x="564.5" y="-7.5" font-family="FreeSans.ttf" font-size="10.00">cassert</text>
</a>
</g>
</g>
<!-- Node4&#45;&gt;Node5 -->
<g id="edge4" class="edge">
<title>Node4&#45;&gt;Node5</title>
<path fill="none" stroke="midnightblue" d="M663.1,-112.37C645.21,-93.97 603.09,-50.67 580.11,-27.05"/>
<polygon fill="midnightblue" stroke="midnightblue" points="582.34,-24.32 572.86,-19.59 577.32,-29.2 582.34,-24.32"/>
</g>
<!-- Node6 -->
<g id="node6" class="node">
<title>Node6</title>
<g id="a_node6"><a xlink:title=" ">
<polygon fill="none" stroke="#bfbfbf" points="609,-0.5 609,-19.5 678,-19.5 678,-0.5 609,-0.5"/>
<text text-anchor="middle" x="643.5" y="-7.5" font-family="FreeSans.ttf" font-size="10.00">type_traits</text>
</a>
</g>
</g>
<!-- Node4&#45;&gt;Node6 -->
<g id="edge5" class="edge">
<title>Node4&#45;&gt;Node6</title>
<path fill="none" stroke="midnightblue" d="M669.3,-112.37C664.78,-94.62 654.36,-53.67 648.23,-29.6"/>
<polygon fill="midnightblue" stroke="midnightblue" points="651.55,-28.42 645.69,-19.59 644.76,-30.15 651.55,-28.42"/>
</g>
<!-- Node7 -->
<g id="node7" class="node">
<title>Node7</title>
<g id="a_node7"><a xlink:href="Span_8h.html" target="_top" xlink:title=" ">
<polygon fill="none" stroke="black" points="725,-56.5 725,-75.5 846,-75.5 846,-56.5 725,-56.5"/>
<text text-anchor="middle" x="785.5" y="-63.5" font-family="FreeSans.ttf" font-size="10.00">iDynTree/Core/Span.h</text>
</a>
</g>
</g>
<!-- Node4&#45;&gt;Node7 -->
<g id="edge6" class="edge">
<title>Node4&#45;&gt;Node7</title>
<path fill="none" stroke="midnightblue" d="M689.56,-112.44C708.07,-103.68 737.08,-89.94 758.36,-79.86"/>
<polygon fill="midnightblue" stroke="midnightblue" points="759.98,-82.96 767.52,-75.52 756.99,-76.63 759.98,-82.96"/>
</g>
<!-- Node15 -->
<g id="node15" class="node">
<title>Node15</title>
<g id="a_node15"><a xlink:href="Utils_8h.html" target="_top" xlink:title=" ">
<polygon fill="none" stroke="black" points="248,-56.5 248,-75.5 367,-75.5 367,-56.5 248,-56.5"/>
<text text-anchor="middle" x="307.5" y="-63.5" font-family="FreeSans.ttf" font-size="10.00">iDynTree/Core/Utils.h</text>
</a>
</g>
</g>
<!-- Node4&#45;&gt;Node15 -->
<g id="edge16" class="edge">
<title>Node4&#45;&gt;Node15</title>
<path fill="none" stroke="midnightblue" d="M613.82,-112.44C548.99,-102.83 443.85,-87.23 375.18,-77.04"/>
<polygon fill="midnightblue" stroke="midnightblue" points="375.31,-73.52 364.91,-75.52 374.29,-80.45 375.31,-73.52"/>
</g>
<!-- Node7&#45;&gt;Node5 -->
<g id="edge7" class="edge">
<title>Node7&#45;&gt;Node5</title>
<path fill="none" stroke="midnightblue" d="M750.02,-56.44C714.73,-47.91 658.78,-34.35 600.58,-20.01"/>
<polygon fill="midnightblue" stroke="midnightblue" points="601.39,-16.6 590.84,-17.61 599.71,-23.4 601.39,-16.6"/>
</g>
<!-- Node7&#45;&gt;Node6 -->
<g id="edge14" class="edge">
<title>Node7&#45;&gt;Node6</title>
<path fill="none" stroke="midnightblue" d="M763,-56.44C739.42,-47.48 702.18,-33.31 675.54,-23.18"/>
<polygon fill="midnightblue" stroke="midnightblue" points="676.49,-19.8 665.9,-19.52 674,-26.34 676.49,-19.8"/>
</g>
<!-- Node8 -->
<g id="node8" class="node">
<title>Node8</title>
<g id="a_node8"><a xlink:title=" ">
<polygon fill="none" stroke="#bfbfbf" points="976.5,-0.5 976.5,-19.5 1040.5,-19.5 1040.5,-0.5 976.5,-0.5"/>
<text text-anchor="middle" x="1008.5" y="-7.5" font-family="FreeSans.ttf" font-size="10.00">algorithm</text>
</a>
</g>
</g>
<!-- Node7&#45;&gt;Node8 -->
<g id="edge8" class="edge">
<title>Node7&#45;&gt;Node8</title>
<path fill="none" stroke="midnightblue" d="M820.84,-56.44C860.32,-46.88 924.21,-31.41 966.29,-21.22"/>
<polygon fill="midnightblue" stroke="midnightblue" points="967.33,-24.57 976.23,-18.82 965.68,-17.77 967.33,-24.57"/>
</g>
<!-- Node9 -->
<g id="node9" class="node">
<title>Node9</title>
<g id="a_node9"><a xlink:title=" ">
<polygon fill="none" stroke="#bfbfbf" points="1058.5,-0.5 1058.5,-19.5 1100.5,-19.5 1100.5,-0.5 1058.5,-0.5"/>
<text text-anchor="middle" x="1079.5" y="-7.5" font-family="FreeSans.ttf" font-size="10.00">array</text>
</a>
</g>
</g>
<!-- Node7&#45;&gt;Node9 -->
<g id="edge9" class="edge">
<title>Node7&#45;&gt;Node9</title>
<path fill="none" stroke="midnightblue" d="M846.21,-56.81C897.68,-49.38 973.6,-37.27 1048.24,-20.06"/>
<polygon fill="midnightblue" stroke="midnightblue" points="1049.34,-23.4 1058.28,-17.72 1047.75,-16.59 1049.34,-23.4"/>
</g>
<!-- Node10 -->
<g id="node10" class="node">
<title>Node10</title>
<g id="a_node10"><a xlink:title=" ">
<polygon fill="none" stroke="#bfbfbf" points="164,-0.5 164,-19.5 217,-19.5 217,-0.5 164,-0.5"/>
<text text-anchor="middle" x="190.5" y="-7.5" font-family="FreeSans.ttf" font-size="10.00">cstddef</text>
</a>
</g>
</g>
<!-- Node7&#45;&gt;Node10 -->
<g id="edge10" class="edge">
<title>Node7&#45;&gt;Node10</title>
<path fill="none" stroke="midnightblue" d="M724.95,-60.75C626.85,-53.65 427.15,-38.35 258.5,-20 248.4,-18.9 237.47,-17.53 227.39,-16.2"/>
<polygon fill="midnightblue" stroke="midnightblue" points="227.65,-12.7 217.27,-14.83 226.71,-19.64 227.65,-12.7"/>
</g>
<!-- Node11 -->
<g id="node11" class="node">
<title>Node11</title>
<g id="a_node11"><a xlink:title=" ">
<polygon fill="none" stroke="#bfbfbf" points="696,-0.5 696,-19.5 749,-19.5 749,-0.5 696,-0.5"/>
<text text-anchor="middle" x="722.5" y="-7.5" font-family="FreeSans.ttf" font-size="10.00">iterator</text>
</a>
</g>
</g>
<!-- Node7&#45;&gt;Node11 -->
<g id="edge11" class="edge">
<title>Node7&#45;&gt;Node11</title>
<path fill="none" stroke="midnightblue" d="M775.38,-56.32C765.97,-48.26 751.76,-36.08 740.43,-26.37"/>
<polygon fill="midnightblue" stroke="midnightblue" points="742.68,-23.68 732.81,-19.83 738.12,-29 742.68,-23.68"/>
</g>
<!-- Node12 -->
<g id="node12" class="node">
<title>Node12</title>
<g id="a_node12"><a xlink:title=" ">
<polygon fill="none" stroke="#bfbfbf" points="767.5,-0.5 767.5,-19.5 811.5,-19.5 811.5,-0.5 767.5,-0.5"/>
<text text-anchor="middle" x="789.5" y="-7.5" font-family="FreeSans.ttf" font-size="10.00">limits</text>
</a>
</g>
</g>
<!-- Node7&#45;&gt;Node12 -->
<g id="edge12" class="edge">
<title>Node7&#45;&gt;Node12</title>
<path fill="none" stroke="midnightblue" d="M786.16,-56.08C786.68,-49.01 787.44,-38.86 788.09,-29.99"/>
<polygon fill="midnightblue" stroke="midnightblue" points="791.6,-29.98 788.85,-19.75 784.62,-29.47 791.6,-29.98"/>
</g>
<!-- Node13 -->
<g id="node13" class="node">
<title>Node13</title>
<g id="a_node13"><a xlink:title=" ">
<polygon fill="none" stroke="#bfbfbf" points="830,-0.5 830,-19.5 895,-19.5 895,-0.5 830,-0.5"/>
<text text-anchor="middle" x="862.5" y="-7.5" font-family="FreeSans.ttf" font-size="10.00">stdexcept</text>
</a>
</g>
</g>
<!-- Node7&#45;&gt;Node13 -->
<g id="edge13" class="edge">
<title>Node7&#45;&gt;Node13</title>
<path fill="none" stroke="midnightblue" d="M797.87,-56.32C809.66,-48.06 827.63,-35.45 841.64,-25.63"/>
<polygon fill="midnightblue" stroke="midnightblue" points="843.98,-28.26 850.16,-19.65 839.96,-22.53 843.98,-28.26"/>
</g>
<!-- Node14 -->
<g id="node14" class="node">
<title>Node14</title>
<g id="a_node14"><a xlink:title=" ">
<polygon fill="none" stroke="#bfbfbf" points="913,-0.5 913,-19.5 958,-19.5 958,-0.5 913,-0.5"/>
<text text-anchor="middle" x="935.5" y="-7.5" font-family="FreeSans.ttf" font-size="10.00">utility</text>
</a>
</g>
</g>
<!-- Node7&#45;&gt;Node14 -->
<g id="edge15" class="edge">
<title>Node7&#45;&gt;Node14</title>
<path fill="none" stroke="midnightblue" d="M809.27,-56.44C834.69,-47.29 875.15,-32.73 903.39,-22.56"/>
<polygon fill="midnightblue" stroke="midnightblue" points="904.6,-25.84 912.83,-19.16 902.23,-19.26 904.6,-25.84"/>
</g>
<!-- Node15&#45;&gt;Node10 -->
<g id="edge17" class="edge">
<title>Node15&#45;&gt;Node10</title>
<path fill="none" stroke="midnightblue" d="M288.96,-56.44C269.88,-47.64 239.93,-33.81 218.06,-23.72"/>
<polygon fill="midnightblue" stroke="midnightblue" points="219.5,-20.53 208.95,-19.52 216.57,-26.88 219.5,-20.53"/>
</g>
<!-- Node16 -->
<g id="node16" class="node">
<title>Node16</title>
<g id="a_node16"><a xlink:title=" ">
<polygon fill="none" stroke="#bfbfbf" points="267.5,-0.5 267.5,-19.5 347.5,-19.5 347.5,-0.5 267.5,-0.5"/>
<text text-anchor="middle" x="307.5" y="-7.5" font-family="FreeSans.ttf" font-size="10.00">CoreExport.h</text>
</a>
</g>
</g>
<!-- Node15&#45;&gt;Node16 -->
<g id="edge18" class="edge">
<title>Node15&#45;&gt;Node16</title>
<path fill="none" stroke="midnightblue" d="M307.5,-56.08C307.5,-49.01 307.5,-38.86 307.5,-29.99"/>
<polygon fill="midnightblue" stroke="midnightblue" points="311,-29.75 307.5,-19.75 304,-29.75 311,-29.75"/>
</g>
<!-- Node17&#45;&gt;Node3 -->
<g id="edge21" class="edge">
<title>Node17&#45;&gt;Node3</title>
<path fill="none" stroke="midnightblue" d="M139.28,-526.94C142.39,-526.62 145.48,-526.3 148.5,-526 241.71,-516.7 491.8,-543.79 568.5,-490 699.99,-397.79 596.94,-254.13 732.5,-168 794.31,-128.73 882.89,-122.43 930.05,-122.16"/>
<polygon fill="midnightblue" stroke="midnightblue" points="930.28,-125.66 940.29,-122.19 930.3,-118.66 930.28,-125.66"/>
</g>
<!-- Node17&#45;&gt;Node10 -->
<g id="edge20" class="edge">
<title>Node17&#45;&gt;Node10</title>
<path fill="none" stroke="midnightblue" d="M69.03,-526.49C67.97,-506.75 65.5,-456.25 65.5,-414 65.5,-414 65.5,-414 65.5,-121 65.5,-72.17 119.92,-39.89 156.94,-23.58"/>
<polygon fill="midnightblue" stroke="midnightblue" points="158.55,-26.7 166.4,-19.59 155.82,-20.25 158.55,-26.7"/>
</g>
<!-- Node18 -->
<g id="node18" class="node">
<title>Node18</title>
<g id="a_node18"><a xlink:title=" ">
<polygon fill="none" stroke="#bfbfbf" points="94,-465 94,-484 181,-484 181,-465 94,-465"/>
<text text-anchor="middle" x="137.5" y="-472" font-family="FreeSans.ttf" font-size="10.00">ModelExport.h</text>
</a>
</g>
</g>
<!-- Node17&#45;&gt;Node18 -->
<g id="edge22" class="edge">
<title>Node17&#45;&gt;Node18</title>
<path fill="none" stroke="midnightblue" d="M79.24,-526.48C89.85,-517.2 107.02,-502.17 119.98,-490.83"/>
<polygon fill="midnightblue" stroke="midnightblue" points="122.55,-493.23 127.78,-484.01 117.94,-487.96 122.55,-493.23"/>
</g>
<!-- Node19&#45;&gt;Node17 -->
<g id="edge76" class="edge">
<title>Node19&#45;&gt;Node17</title>
<path fill="none" stroke="midnightblue" d="M503.13,-583.32C419.44,-574.75 280.04,-560.33 149.47,-546.1"/>
<polygon fill="midnightblue" stroke="midnightblue" points="149.6,-542.59 139.28,-544.99 148.84,-549.55 149.6,-542.59"/>
</g>
<!-- Node20 -->
<g id="node20" class="node">
<title>Node20</title>
<g id="a_node20"><a xlink:href="Transform_8h.html" target="_top" xlink:title=" ">
<polygon fill="none" stroke="black" points="663.5,-403.5 663.5,-422.5 809.5,-422.5 809.5,-403.5 663.5,-403.5"/>
<text text-anchor="middle" x="736.5" y="-410.5" font-family="FreeSans.ttf" font-size="10.00">iDynTree/Core/Transform.h</text>
</a>
</g>
</g>
<!-- Node19&#45;&gt;Node20 -->
<g id="edge24" class="edge">
<title>Node19&#45;&gt;Node20</title>
<path fill="none" stroke="midnightblue" d="M584.44,-582.24C590.38,-573.33 599.58,-559 606.5,-546 626.41,-508.59 616.11,-489.52 645.5,-459 659.84,-444.11 680.14,-433.42 697.93,-426.2"/>
<polygon fill="midnightblue" stroke="midnightblue" points="699.41,-429.39 707.5,-422.55 696.91,-422.85 699.41,-429.39"/>
</g>
<!-- Node31 -->
<g id="node31" class="node">
<title>Node31</title>
<g id="a_node31"><a xlink:href="Twist_8h.html" target="_top" xlink:title=" ">
<polygon fill="none" stroke="black" points="323.5,-526.5 323.5,-545.5 445.5,-545.5 445.5,-526.5 323.5,-526.5"/>
<text text-anchor="middle" x="384.5" y="-533.5" font-family="FreeSans.ttf" font-size="10.00">iDynTree/Core/Twist.h</text>
</a>
</g>
</g>
<!-- Node19&#45;&gt;Node31 -->
<g id="edge55" class="edge">
<title>Node19&#45;&gt;Node31</title>
<path fill="none" stroke="midnightblue" d="M547.76,-582.44C514.56,-573.2 461.51,-558.44 424.94,-548.26"/>
<polygon fill="midnightblue" stroke="midnightblue" points="425.67,-544.83 415.1,-545.52 423.79,-551.57 425.67,-544.83"/>
</g>
<!-- Node34 -->
<g id="node34" class="node">
<title>Node34</title>
<g id="a_node34"><a xlink:href="SpatialAcc_8h.html" target="_top" xlink:title=" ">
<polygon fill="none" stroke="black" points="157.5,-526.5 157.5,-545.5 305.5,-545.5 305.5,-526.5 157.5,-526.5"/>
<text text-anchor="middle" x="231.5" y="-533.5" font-family="FreeSans.ttf" font-size="10.00">iDynTree/Core/SpatialAcc.h</text>
</a>
</g>
</g>
<!-- Node19&#45;&gt;Node34 -->
<g id="edge66" class="edge">
<title>Node19&#45;&gt;Node34</title>
<path fill="none" stroke="midnightblue" d="M523.52,-582.44C461.84,-572.85 361.89,-557.29 296.43,-547.1"/>
<polygon fill="midnightblue" stroke="midnightblue" points="296.65,-543.6 286.23,-545.52 295.57,-550.51 296.65,-543.6"/>
</g>
<!-- Node35 -->
<g id="node35" class="node">
<title>Node35</title>
<g id="a_node35"><a xlink:href="Wrench_8h.html" target="_top" xlink:title=" ">
<polygon fill="none" stroke="black" points="463.5,-526.5 463.5,-545.5 597.5,-545.5 597.5,-526.5 463.5,-526.5"/>
<text text-anchor="middle" x="530.5" y="-533.5" font-family="FreeSans.ttf" font-size="10.00">iDynTree/Core/Wrench.h</text>
</a>
</g>
</g>
<!-- Node19&#45;&gt;Node35 -->
<g id="edge68" class="edge">
<title>Node19&#45;&gt;Node35</title>
<path fill="none" stroke="midnightblue" d="M570.57,-582.08C563.65,-574.3 553.43,-562.8 545.05,-553.37"/>
<polygon fill="midnightblue" stroke="midnightblue" points="547.54,-550.9 538.28,-545.75 542.31,-555.55 547.54,-550.9"/>
</g>
<!-- Node37 -->
<g id="node37" class="node">
<title>Node37</title>
<g id="a_node37"><a xlink:href="ArticulatedBodyInertia_8h.html" target="_top" xlink:title=" ">
<polygon fill="none" stroke="black" points="1136,-224.5 1136,-254.5 1277,-254.5 1277,-224.5 1136,-224.5"/>
<text text-anchor="start" x="1144" y="-242.5" font-family="FreeSans.ttf" font-size="10.00">iDynTree/Core/Articulated</text>
<text text-anchor="middle" x="1206.5" y="-231.5" font-family="FreeSans.ttf" font-size="10.00">BodyInertia.h</text>
</a>
</g>
</g>
<!-- Node19&#45;&gt;Node37 -->
<g id="edge73" class="edge">
<title>Node19&#45;&gt;Node37</title>
<path fill="none" stroke="midnightblue" d="M653.81,-585.44C825.18,-571.77 1229.5,-533.4 1229.5,-475.5 1229.5,-475.5 1229.5,-475.5 1229.5,-356 1229.5,-323.73 1220.76,-287.35 1214.05,-264.19"/>
<polygon fill="midnightblue" stroke="midnightblue" points="1217.38,-263.12 1211.15,-254.55 1210.68,-265.13 1217.38,-263.12"/>
</g>
<!-- Node38 -->
<g id="node38" class="node">
<title>Node38</title>
<g id="a_node38"><a xlink:title=" ">
<polygon fill="none" stroke="#bfbfbf" points="654,-465 654,-484 701,-484 701,-465 654,-465"/>
<text text-anchor="middle" x="677.5" y="-472" font-family="FreeSans.ttf" font-size="10.00">vector</text>
</a>
</g>
</g>
<!-- Node19&#45;&gt;Node38 -->
<g id="edge77" class="edge">
<title>Node19&#45;&gt;Node38</title>
<path fill="none" stroke="midnightblue" d="M593.77,-582.39C607.09,-574.31 626.3,-561.21 639.5,-546 653.27,-530.13 664.03,-508.43 670.53,-493.31"/>
<polygon fill="midnightblue" stroke="midnightblue" points="673.77,-494.63 674.33,-484.05 667.29,-491.97 673.77,-494.63"/>
</g>
<!-- Node20&#45;&gt;Node3 -->
<g id="edge54" class="edge">
<title>Node20&#45;&gt;Node3</title>
<path fill="none" stroke="midnightblue" d="M809.67,-405.07C894.86,-392.32 1028.85,-356.32 1067.5,-255 1081.75,-217.63 1071.15,-197.82 1044.5,-168 1030.93,-152.82 1010.98,-141.71 994.16,-134.33"/>
<polygon fill="midnightblue" stroke="midnightblue" points="995.26,-131 984.69,-130.41 992.59,-137.47 995.26,-131"/>
</g>
<!-- Node21 -->
<g id="node21" class="node">
<title>Node21</title>
<g id="a_node21"><a xlink:href="Position_8h.html" target="_top" xlink:title=" ">
<polygon fill="none" stroke="black" points="764.5,-347.5 764.5,-366.5 900.5,-366.5 900.5,-347.5 764.5,-347.5"/>
<text text-anchor="middle" x="832.5" y="-354.5" font-family="FreeSans.ttf" font-size="10.00">iDynTree/Core/Position.h</text>
</a>
</g>
</g>
<!-- Node20&#45;&gt;Node21 -->
<g id="edge25" class="edge">
<title>Node20&#45;&gt;Node21</title>
<path fill="none" stroke="midnightblue" d="M751.92,-403.32C767.04,-394.82 790.32,-381.73 807.97,-371.8"/>
<polygon fill="midnightblue" stroke="midnightblue" points="810.11,-374.61 817.11,-366.65 806.68,-368.51 810.11,-374.61"/>
</g>
<!-- Node26 -->
<g id="node26" class="node">
<title>Node26</title>
<g id="a_node26"><a xlink:href="Rotation_8h.html" target="_top" xlink:title=" ">
<polygon fill="none" stroke="black" points="671.5,-291.5 671.5,-310.5 809.5,-310.5 809.5,-291.5 671.5,-291.5"/>
<text text-anchor="middle" x="740.5" y="-298.5" font-family="FreeSans.ttf" font-size="10.00">iDynTree/Core/Rotation.h</text>
</a>
</g>
</g>
<!-- Node20&#45;&gt;Node26 -->
<g id="edge52" class="edge">
<title>Node20&#45;&gt;Node26</title>
<path fill="none" stroke="midnightblue" d="M736.81,-403.37C737.46,-385.62 738.95,-344.67 739.82,-320.6"/>
<polygon fill="midnightblue" stroke="midnightblue" points="743.32,-320.71 740.19,-310.59 736.33,-320.46 743.32,-320.71"/>
</g>
<!-- Node29 -->
<g id="node29" class="node">
<title>Node29</title>
<g id="a_node29"><a xlink:href="MatrixFixSize_8h.html" target="_top" xlink:title=" ">
<polygon fill="none" stroke="black" points="481,-168.5 481,-187.5 644,-187.5 644,-168.5 481,-168.5"/>
<text text-anchor="middle" x="562.5" y="-175.5" font-family="FreeSans.ttf" font-size="10.00">iDynTree/Core/MatrixFixSize.h</text>
</a>
</g>
</g>
<!-- Node20&#45;&gt;Node29 -->
<g id="edge53" class="edge">
<title>Node20&#45;&gt;Node29</title>
<path fill="none" stroke="midnightblue" d="M730.1,-403.43C704.58,-369.26 609.78,-242.31 575.21,-196.03"/>
<polygon fill="midnightblue" stroke="midnightblue" points="577.93,-193.81 569.14,-187.9 572.32,-198 577.93,-193.81"/>
</g>
<!-- Node21&#45;&gt;Node3 -->
<g id="edge51" class="edge">
<title>Node21&#45;&gt;Node3</title>
<path fill="none" stroke="midnightblue" d="M887.79,-347.45C939.82,-336.16 1014.91,-310.72 1050.5,-255 1078.13,-211.75 1018.91,-161.52 984.63,-137.39"/>
<polygon fill="midnightblue" stroke="midnightblue" points="986.35,-134.33 976.12,-131.57 982.4,-140.11 986.35,-134.33"/>
</g>
<!-- Node22 -->
<g id="node22" class="node">
<title>Node22</title>
<g id="a_node22"><a xlink:href="PositionRaw_8h.html" target="_top" xlink:title=" ">
<polygon fill="none" stroke="black" points="709.5,-230 709.5,-249 865.5,-249 865.5,-230 709.5,-230"/>
<text text-anchor="middle" x="787.5" y="-237" font-family="FreeSans.ttf" font-size="10.00">iDynTree/Core/PositionRaw.h</text>
</a>
</g>
</g>
<!-- Node21&#45;&gt;Node22 -->
<g id="edge26" class="edge">
<title>Node21&#45;&gt;Node22</title>
<path fill="none" stroke="midnightblue" d="M831.58,-347.31C830.01,-334.59 826.23,-310.29 818.5,-291 813.79,-279.26 806.45,-267.14 800.09,-257.72"/>
<polygon fill="midnightblue" stroke="midnightblue" points="802.81,-255.49 794.2,-249.31 797.07,-259.51 802.81,-255.49"/>
</g>
<!-- Node21&#45;&gt;Node26 -->
<g id="edge36" class="edge">
<title>Node21&#45;&gt;Node26</title>
<path fill="none" stroke="midnightblue" d="M817.72,-347.32C803.23,-338.82 780.93,-325.73 764.01,-315.8"/>
<polygon fill="midnightblue" stroke="midnightblue" points="765.64,-312.7 755.24,-310.65 762.1,-318.74 765.64,-312.7"/>
</g>
<!-- Node22&#45;&gt;Node3 -->
<g id="edge35" class="edge">
<title>Node22&#45;&gt;Node3</title>
<path fill="none" stroke="midnightblue" d="M800.65,-229.82C830.55,-210.09 903.86,-161.7 940.67,-137.41"/>
<polygon fill="midnightblue" stroke="midnightblue" points="942.78,-140.21 949.19,-131.78 938.92,-134.37 942.78,-140.21"/>
</g>
<!-- Node23 -->
<g id="node23" class="node">
<title>Node23</title>
<g id="a_node23"><a xlink:href="VectorFixSize_8h.html" target="_top" xlink:title=" ">
<polygon fill="none" stroke="black" points="300.5,-168.5 300.5,-187.5 462.5,-187.5 462.5,-168.5 300.5,-168.5"/>
<text text-anchor="middle" x="381.5" y="-175.5" font-family="FreeSans.ttf" font-size="10.00">iDynTree/Core/VectorFixSize.h</text>
</a>
</g>
</g>
<!-- Node22&#45;&gt;Node23 -->
<g id="edge27" class="edge">
<title>Node22&#45;&gt;Node23</title>
<path fill="none" stroke="midnightblue" d="M729.33,-229.98C655.47,-219.15 528.22,-200.5 449.82,-189.01"/>
<polygon fill="midnightblue" stroke="midnightblue" points="449.96,-185.5 439.56,-187.51 448.95,-192.42 449.96,-185.5"/>
</g>
<!-- Node23&#45;&gt;Node3 -->
<g id="edge30" class="edge">
<title>Node23&#45;&gt;Node3</title>
<path fill="none" stroke="midnightblue" d="M462.86,-168.92C466.12,-168.61 469.34,-168.3 472.5,-168 644.69,-151.58 851.03,-132.98 929.78,-125.93"/>
<polygon fill="midnightblue" stroke="midnightblue" points="930.38,-129.39 940.03,-125.01 929.76,-122.41 930.38,-129.39"/>
</g>
<!-- Node23&#45;&gt;Node5 -->
<g id="edge32" class="edge">
<title>Node23&#45;&gt;Node5</title>
<path fill="none" stroke="midnightblue" d="M389.07,-168.26C400.29,-155.46 422.2,-131.08 442.5,-112 476.94,-79.63 520.14,-45.2 544.8,-26.06"/>
<polygon fill="midnightblue" stroke="midnightblue" points="547.22,-28.62 553,-19.74 542.94,-23.07 547.22,-28.62"/>
</g>
<!-- Node23&#45;&gt;Node7 -->
<g id="edge29" class="edge">
<title>Node23&#45;&gt;Node7</title>
<path fill="none" stroke="midnightblue" d="M460.81,-168.47C569.1,-156.68 750.59,-136.36 756.5,-132 771.24,-121.13 778.63,-101.06 782.25,-86.08"/>
<polygon fill="midnightblue" stroke="midnightblue" points="785.76,-86.36 784.33,-75.86 778.9,-84.96 785.76,-86.36"/>
</g>
<!-- Node23&#45;&gt;Node10 -->
<g id="edge33" class="edge">
<title>Node23&#45;&gt;Node10</title>
<path fill="none" stroke="midnightblue" d="M300.36,-172.95C269.52,-167.29 236.54,-155.58 214.5,-132 188.38,-104.06 187.02,-56.22 188.59,-29.84"/>
<polygon fill="midnightblue" stroke="midnightblue" points="192.1,-29.92 189.41,-19.67 185.12,-29.36 192.1,-29.92"/>
</g>
<!-- Node23&#45;&gt;Node15 -->
<g id="edge28" class="edge">
<title>Node23&#45;&gt;Node15</title>
<path fill="none" stroke="midnightblue" d="M366.77,-168.5C354.3,-160.57 336.85,-147.64 326.5,-132 317.27,-118.06 312.43,-99.55 309.96,-85.85"/>
<polygon fill="midnightblue" stroke="midnightblue" points="313.37,-85.03 308.38,-75.68 306.45,-86.1 313.37,-85.03"/>
</g>
<!-- Node24 -->
<g id="node24" class="node">
<title>Node24</title>
<g id="a_node24"><a xlink:title=" ">
<polygon fill="none" stroke="#bfbfbf" points="223.5,-112.5 223.5,-131.5 279.5,-131.5 279.5,-112.5 223.5,-112.5"/>
<text text-anchor="middle" x="251.5" y="-119.5" font-family="FreeSans.ttf" font-size="10.00">sstream</text>
</a>
</g>
</g>
<!-- Node23&#45;&gt;Node24 -->
<g id="edge31" class="edge">
<title>Node23&#45;&gt;Node24</title>
<path fill="none" stroke="midnightblue" d="M360.9,-168.44C339.51,-159.56 305.82,-145.56 281.48,-135.45"/>
<polygon fill="midnightblue" stroke="midnightblue" points="282.58,-132.12 272,-131.52 279.89,-138.58 282.58,-132.12"/>
</g>
<!-- Node25 -->
<g id="node25" class="node">
<title>Node25</title>
<g id="a_node25"><a xlink:title=" ">
<polygon fill="none" stroke="#bfbfbf" points="451.5,-112.5 451.5,-131.5 501.5,-131.5 501.5,-112.5 451.5,-112.5"/>
<text text-anchor="middle" x="476.5" y="-119.5" font-family="FreeSans.ttf" font-size="10.00">cstring</text>
</a>
</g>
</g>
<!-- Node23&#45;&gt;Node25 -->
<g id="edge34" class="edge">
<title>Node23&#45;&gt;Node25</title>
<path fill="none" stroke="midnightblue" d="M396.76,-168.32C411.72,-159.82 434.75,-146.73 452.23,-136.8"/>
<polygon fill="midnightblue" stroke="midnightblue" points="454.31,-139.64 461.27,-131.65 450.85,-133.55 454.31,-139.64"/>
</g>
<!-- Node26&#45;&gt;Node3 -->
<g id="edge37" class="edge">
<title>Node26&#45;&gt;Node3</title>
<path fill="none" stroke="midnightblue" d="M729.91,-291.42C713.34,-276.95 684.72,-246.99 700.5,-224 753.08,-147.37 872.64,-128.86 930.26,-124.4"/>
<polygon fill="midnightblue" stroke="midnightblue" points="930.53,-127.89 940.27,-123.73 930.06,-120.91 930.53,-127.89"/>
</g>
<!-- Node26&#45;&gt;Node23 -->
<g id="edge50" class="edge">
<title>Node26&#45;&gt;Node23</title>
<path fill="none" stroke="midnightblue" d="M720.32,-291.46C684.9,-276.65 609.1,-245.71 543.5,-224 504.07,-210.95 458.43,-198.51 425.66,-190.03"/>
<polygon fill="midnightblue" stroke="midnightblue" points="426.48,-186.62 415.92,-187.52 424.74,-193.4 426.48,-186.62"/>
</g>
<!-- Node27 -->
<g id="node27" class="node">
<title>Node27</title>
<g id="a_node27"><a xlink:href="GeomVector3_8h.html" target="_top" xlink:title=" ">
<polygon fill="none" stroke="black" points="300,-230 300,-249 463,-249 463,-230 300,-230"/>
<text text-anchor="middle" x="381.5" y="-237" font-family="FreeSans.ttf" font-size="10.00">iDynTree/Core/GeomVector3.h</text>
</a>
</g>
</g>
<!-- Node26&#45;&gt;Node27 -->
<g id="edge38" class="edge">
<title>Node26&#45;&gt;Node27</title>
<path fill="none" stroke="midnightblue" d="M689.06,-291.48C624.02,-280.69 512.15,-262.15 442.76,-250.65"/>
<polygon fill="midnightblue" stroke="midnightblue" points="443.28,-247.19 432.84,-249.01 442.13,-254.1 443.28,-247.19"/>
</g>
<!-- Node28 -->
<g id="node28" class="node">
<title>Node28</title>
<g id="a_node28"><a xlink:href="RotationRaw_8h.html" target="_top" xlink:title=" ">
<polygon fill="none" stroke="black" points="883.5,-230 883.5,-249 1041.5,-249 1041.5,-230 883.5,-230"/>
<text text-anchor="middle" x="962.5" y="-237" font-family="FreeSans.ttf" font-size="10.00">iDynTree/Core/RotationRaw.h</text>
</a>
</g>
</g>
<!-- Node26&#45;&gt;Node28 -->
<g id="edge40" class="edge">
<title>Node26&#45;&gt;Node28</title>
<path fill="none" stroke="midnightblue" d="M772.31,-291.48C811.38,-281 877.76,-263.21 920.86,-251.66"/>
<polygon fill="midnightblue" stroke="midnightblue" points="922,-254.98 930.75,-249.01 920.19,-248.22 922,-254.98"/>
</g>
<!-- Node27&#45;&gt;Node23 -->
<g id="edge39" class="edge">
<title>Node27&#45;&gt;Node23</title>
<path fill="none" stroke="midnightblue" d="M381.5,-229.98C381.5,-221.58 381.5,-208.48 381.5,-197.66"/>
<polygon fill="midnightblue" stroke="midnightblue" points="385,-197.51 381.5,-187.51 378,-197.51 385,-197.51"/>
</g>
<!-- Node28&#45;&gt;Node3 -->
<g id="edge49" class="edge">
<title>Node28&#45;&gt;Node3</title>
<path fill="none" stroke="midnightblue" d="M962.5,-229.82C962.5,-211.26 962.5,-167.34 962.5,-141.97"/>
<polygon fill="midnightblue" stroke="midnightblue" points="966,-141.78 962.5,-131.78 959,-141.78 966,-141.78"/>
</g>
<!-- Node28&#45;&gt;Node29 -->
<g id="edge41" class="edge">
<title>Node28&#45;&gt;Node29</title>
<path fill="none" stroke="midnightblue" d="M911.81,-229.97C899.6,-227.96 886.59,-225.87 874.5,-224 792.27,-211.3 697.67,-197.81 634.39,-188.95"/>
<polygon fill="midnightblue" stroke="midnightblue" points="634.51,-185.43 624.12,-187.52 633.54,-192.37 634.51,-185.43"/>
</g>
<!-- Node29&#45;&gt;Node3 -->
<g id="edge46" class="edge">
<title>Node29&#45;&gt;Node3</title>
<path fill="none" stroke="midnightblue" d="M625.88,-168.44C712.27,-156.78 863.81,-136.32 930.01,-127.39"/>
<polygon fill="midnightblue" stroke="midnightblue" points="930.81,-130.81 940.25,-126 929.87,-123.87 930.81,-130.81"/>
</g>
<!-- Node29&#45;&gt;Node4 -->
<g id="edge43" class="edge">
<title>Node29&#45;&gt;Node4</title>
<path fill="none" stroke="midnightblue" d="M580.01,-168.32C597.57,-159.62 624.83,-146.12 645.03,-136.11"/>
<polygon fill="midnightblue" stroke="midnightblue" points="646.62,-139.23 654.03,-131.65 643.52,-132.96 646.62,-139.23"/>
</g>
<!-- Node29&#45;&gt;Node5 -->
<g id="edge44" class="edge">
<title>Node29&#45;&gt;Node5</title>
<path fill="none" stroke="midnightblue" d="M562.61,-168.08C562.92,-141.95 563.85,-65.21 564.28,-29.58"/>
<polygon fill="midnightblue" stroke="midnightblue" points="567.78,-29.61 564.4,-19.57 560.78,-29.53 567.78,-29.61"/>
</g>
<!-- Node29&#45;&gt;Node15 -->
<g id="edge42" class="edge">
<title>Node29&#45;&gt;Node15</title>
<path fill="none" stroke="midnightblue" d="M558.08,-168.27C550.43,-154.09 533.32,-126.21 510.5,-112 470.59,-87.14 418.74,-75.93 377.43,-70.91"/>
<polygon fill="midnightblue" stroke="midnightblue" points="377.76,-67.43 367.44,-69.79 376.98,-74.38 377.76,-67.43"/>
</g>
<!-- Node29&#45;&gt;Node24 -->
<g id="edge48" class="edge">
<title>Node29&#45;&gt;Node24</title>
<path fill="none" stroke="midnightblue" d="M513.22,-168.44C451.14,-157.66 345.8,-139.37 289.56,-129.61"/>
<polygon fill="midnightblue" stroke="midnightblue" points="290.1,-126.15 279.65,-127.89 288.9,-133.05 290.1,-126.15"/>
</g>
<!-- Node29&#45;&gt;Node25 -->
<g id="edge45" class="edge">
<title>Node29&#45;&gt;Node25</title>
<path fill="none" stroke="midnightblue" d="M548.68,-168.32C535.27,-159.9 514.68,-146.97 498.91,-137.07"/>
<polygon fill="midnightblue" stroke="midnightblue" points="500.61,-134.01 490.28,-131.65 496.89,-139.94 500.61,-134.01"/>
</g>
<!-- Node30 -->
<g id="node30" class="node">
<title>Node30</title>
<g id="a_node30"><a xlink:title=" ">
<polygon fill="none" stroke="#bfbfbf" points="335.5,-112.5 335.5,-131.5 395.5,-131.5 395.5,-112.5 335.5,-112.5"/>
<text text-anchor="middle" x="365.5" y="-119.5" font-family="FreeSans.ttf" font-size="10.00">iostream</text>
</a>
</g>
</g>
<!-- Node29&#45;&gt;Node30 -->
<g id="edge47" class="edge">
<title>Node29&#45;&gt;Node30</title>
<path fill="none" stroke="midnightblue" d="M531.28,-168.44C497.27,-159.12 442.75,-144.17 405.59,-133.99"/>
<polygon fill="midnightblue" stroke="midnightblue" points="406.17,-130.52 395.6,-131.25 404.32,-137.27 406.17,-130.52"/>
</g>
<!-- Node32 -->
<g id="node32" class="node">
<title>Node32</title>
<g id="a_node32"><a xlink:href="SpatialMotionVector_8h.html" target="_top" xlink:title=" ">
<polygon fill="none" stroke="black" points="199,-459.5 199,-489.5 354,-489.5 354,-459.5 199,-459.5"/>
<text text-anchor="start" x="207" y="-477.5" font-family="FreeSans.ttf" font-size="10.00">iDynTree/Core/SpatialMotion</text>
<text text-anchor="middle" x="276.5" y="-466.5" font-family="FreeSans.ttf" font-size="10.00">Vector.h</text>
</a>
</g>
</g>
<!-- Node31&#45;&gt;Node32 -->
<g id="edge56" class="edge">
<title>Node31&#45;&gt;Node32</title>
<path fill="none" stroke="midnightblue" d="M369.03,-526.48C353.92,-518.15 330.42,-505.21 310.89,-494.45"/>
<polygon fill="midnightblue" stroke="midnightblue" points="312.4,-491.28 301.95,-489.52 309.02,-497.41 312.4,-491.28"/>
</g>
<!-- Node32&#45;&gt;Node23 -->
<g id="edge57" class="edge">
<title>Node32&#45;&gt;Node23</title>
<path fill="none" stroke="midnightblue" d="M225.96,-459.49C180.06,-443.33 119.5,-411.8 119.5,-358 119.5,-358 119.5,-358 119.5,-300 119.5,-222.68 214.71,-194.61 290.34,-184.51"/>
<polygon fill="midnightblue" stroke="midnightblue" points="290.91,-187.97 300.4,-183.25 290.04,-181.02 290.91,-187.97"/>
</g>
<!-- Node32&#45;&gt;Node27 -->
<g id="edge58" class="edge">
<title>Node32&#45;&gt;Node27</title>
<path fill="none" stroke="midnightblue" d="M241.98,-459.35C217.5,-446.96 190.76,-427.17 201.5,-403 233.38,-331.26 314.33,-277.81 355.94,-254.07"/>
<polygon fill="midnightblue" stroke="midnightblue" points="357.88,-257 364.9,-249.07 354.47,-250.89 357.88,-257"/>
</g>
<!-- Node33 -->
<g id="node33" class="node">
<title>Node33</title>
<g id="a_node33"><a xlink:href="SpatialVector_8h.html" target="_top" xlink:title=" ">
<polygon fill="none" stroke="black" points="210,-403.5 210,-422.5 371,-422.5 371,-403.5 210,-403.5"/>
<text text-anchor="middle" x="290.5" y="-410.5" font-family="FreeSans.ttf" font-size="10.00">iDynTree/Core/SpatialVector.h</text>
</a>
</g>
</g>
<!-- Node32&#45;&gt;Node33 -->
<g id="edge59" class="edge">
<title>Node32&#45;&gt;Node33</title>
<path fill="none" stroke="midnightblue" d="M279.82,-459.4C281.71,-451.38 284.09,-441.23 286.13,-432.57"/>
<polygon fill="midnightblue" stroke="midnightblue" points="289.58,-433.19 288.46,-422.66 282.77,-431.59 289.58,-433.19"/>
</g>
<!-- Node33&#45;&gt;Node15 -->
<g id="edge62" class="edge">
<title>Node33&#45;&gt;Node15</title>
<path fill="none" stroke="midnightblue" d="M274.81,-403.4C247.83,-387.31 195.5,-349.94 195.5,-302 195.5,-302 195.5,-302 195.5,-177 195.5,-146.9 195.06,-134.98 214.5,-112 227.5,-96.63 246.98,-86.09 264.75,-79.1"/>
<polygon fill="midnightblue" stroke="midnightblue" points="266.21,-82.29 274.4,-75.57 263.8,-75.72 266.21,-82.29"/>
</g>
<!-- Node33&#45;&gt;Node21 -->
<g id="edge60" class="edge">
<title>Node33&#45;&gt;Node21</title>
<path fill="none" stroke="midnightblue" d="M371.06,-403.97C474.26,-393.69 651.98,-375.99 754.13,-365.81"/>
<polygon fill="midnightblue" stroke="midnightblue" points="754.77,-369.26 764.38,-364.79 754.08,-362.3 754.77,-369.26"/>
</g>
<!-- Node33&#45;&gt;Node24 -->
<g id="edge65" class="edge">
<title>Node33&#45;&gt;Node24</title>
<path fill="none" stroke="midnightblue" d="M282.33,-403.38C266.57,-385.81 233.5,-343.94 233.5,-302 233.5,-302 233.5,-302 233.5,-238.5 233.5,-203.95 241.46,-164.28 246.79,-141.57"/>
<polygon fill="midnightblue" stroke="midnightblue" points="250.25,-142.17 249.22,-131.62 243.45,-140.51 250.25,-142.17"/>
</g>
<!-- Node33&#45;&gt;Node26 -->
<g id="edge61" class="edge">
<title>Node33&#45;&gt;Node26</title>
<path fill="none" stroke="midnightblue" d="M325.44,-403.46C406.26,-383.7 606.09,-334.86 695.73,-312.94"/>
<polygon fill="midnightblue" stroke="midnightblue" points="696.7,-316.31 705.59,-310.53 695.04,-309.51 696.7,-316.31"/>
</g>
<!-- Node33&#45;&gt;Node27 -->
<g id="edge63" class="edge">
<title>Node33&#45;&gt;Node27</title>
<path fill="none" stroke="midnightblue" d="M295.14,-403.26C309.44,-376.31 353.05,-294.12 372.25,-257.92"/>
<polygon fill="midnightblue" stroke="midnightblue" points="375.38,-259.49 376.98,-249.02 369.2,-256.21 375.38,-259.49"/>
</g>
<!-- Node33&#45;&gt;Node30 -->
<g id="edge64" class="edge">
<title>Node33&#45;&gt;Node30</title>
<path fill="none" stroke="midnightblue" d="M287.94,-403.25C282.75,-384.74 271.5,-340.18 271.5,-302 271.5,-302 271.5,-302 271.5,-238.5 271.5,-205.93 271.78,-193.92 291.5,-168 302.18,-153.96 318.61,-143.34 333.28,-135.95"/>
<polygon fill="midnightblue" stroke="midnightblue" points="335.03,-138.99 342.58,-131.56 332.05,-132.66 335.03,-138.99"/>
</g>
<!-- Node34&#45;&gt;Node32 -->
<g id="edge67" class="edge">
<title>Node34&#45;&gt;Node32</title>
<path fill="none" stroke="midnightblue" d="M237.95,-526.48C243.64,-518.94 252.2,-507.63 259.81,-497.57"/>
<polygon fill="midnightblue" stroke="midnightblue" points="262.65,-499.61 265.89,-489.52 257.07,-495.39 262.65,-499.61"/>
</g>
<!-- Node36 -->
<g id="node36" class="node">
<title>Node36</title>
<g id="a_node36"><a xlink:href="SpatialForceVector_8h.html" target="_top" xlink:title=" ">
<polygon fill="none" stroke="black" points="411.5,-459.5 411.5,-489.5 559.5,-489.5 559.5,-459.5 411.5,-459.5"/>
<text text-anchor="start" x="419.5" y="-477.5" font-family="FreeSans.ttf" font-size="10.00">iDynTree/Core/SpatialForce</text>
<text text-anchor="middle" x="485.5" y="-466.5" font-family="FreeSans.ttf" font-size="10.00">Vector.h</text>
</a>
</g>
</g>
<!-- Node35&#45;&gt;Node36 -->
<g id="edge69" class="edge">
<title>Node35&#45;&gt;Node36</title>
<path fill="none" stroke="midnightblue" d="M524.05,-526.48C518.36,-518.94 509.8,-507.63 502.19,-497.57"/>
<polygon fill="midnightblue" stroke="midnightblue" points="504.93,-495.39 496.11,-489.52 499.35,-499.61 504.93,-495.39"/>
</g>
<!-- Node36&#45;&gt;Node23 -->
<g id="edge70" class="edge">
<title>Node36&#45;&gt;Node23</title>
<path fill="none" stroke="midnightblue" d="M486.71,-459.29C488.47,-437.5 491.5,-394.54 491.5,-358 491.5,-358 491.5,-358 491.5,-300 491.5,-265.18 494.35,-251.11 472.5,-224 460.09,-208.6 441.07,-198.05 423.63,-191.07"/>
<polygon fill="midnightblue" stroke="midnightblue" points="424.74,-187.75 414.15,-187.54 422.3,-194.31 424.74,-187.75"/>
</g>
<!-- Node36&#45;&gt;Node27 -->
<g id="edge71" class="edge">
<title>Node36&#45;&gt;Node27</title>
<path fill="none" stroke="midnightblue" d="M479.15,-459.28C461.1,-418.85 409.53,-303.3 389.55,-258.53"/>
<polygon fill="midnightblue" stroke="midnightblue" points="392.66,-256.91 385.38,-249.2 386.26,-259.76 392.66,-256.91"/>
</g>
<!-- Node36&#45;&gt;Node33 -->
<g id="edge72" class="edge">
<title>Node36&#45;&gt;Node33</title>
<path fill="none" stroke="midnightblue" d="M439.29,-459.4C405.45,-449.07 360.08,-435.23 328.37,-425.56"/>
<polygon fill="midnightblue" stroke="midnightblue" points="329.18,-422.14 318.59,-422.57 327.13,-428.84 329.18,-422.14"/>
</g>
<!-- Node37&#45;&gt;Node3 -->
<g id="edge75" class="edge">
<title>Node37&#45;&gt;Node3</title>
<path fill="none" stroke="midnightblue" d="M1237.91,-224.4C1264.42,-210.59 1295.43,-188.67 1277.5,-168 1241.18,-126.12 1068.2,-122.25 995.16,-122.53"/>
<polygon fill="midnightblue" stroke="midnightblue" points="994.71,-119.03 984.74,-122.6 994.76,-126.03 994.71,-119.03"/>
</g>
<!-- Node37&#45;&gt;Node29 -->
<g id="edge74" class="edge">
<title>Node37&#45;&gt;Node29</title>
<path fill="none" stroke="midnightblue" d="M1135.83,-231.92C1109.1,-229.43 1078.4,-226.58 1050.5,-224 912.42,-211.22 752.36,-196.47 654.27,-187.44"/>
<polygon fill="midnightblue" stroke="midnightblue" points="654.38,-183.94 644.1,-186.51 653.73,-190.91 654.38,-183.94"/>
</g>
<!-- Node39&#45;&gt;Node23 -->
<g id="edge79" class="edge">
<title>Node39&#45;&gt;Node23</title>
<path fill="none" stroke="midnightblue" d="M762.38,-526.23C753.3,-511.21 733.2,-480.12 710.5,-459 688.84,-438.85 676.5,-442.79 654.5,-423 570.12,-347.11 585.78,-291.44 494.5,-224 473.88,-208.77 447.4,-197.86 425.26,-190.6"/>
<polygon fill="midnightblue" stroke="midnightblue" points="426.02,-187.17 415.43,-187.52 423.93,-193.85 426.02,-187.17"/>
</g>
<!-- Node39&#45;&gt;Node36 -->
<g id="edge83" class="edge">
<title>Node39&#45;&gt;Node36</title>
<path fill="none" stroke="midnightblue" d="M727.1,-526.48C684.17,-517.42 615.3,-502.89 562.05,-491.65"/>
<polygon fill="midnightblue" stroke="midnightblue" points="562.47,-488.16 551.96,-489.52 561.02,-495.01 562.47,-488.16"/>
</g>
<!-- Node39&#45;&gt;Node38 -->
<g id="edge84" class="edge">
<title>Node39&#45;&gt;Node38</title>
<path fill="none" stroke="midnightblue" d="M754.61,-526.48C740.04,-516.84 716.1,-501.02 698.75,-489.55"/>
<polygon fill="midnightblue" stroke="midnightblue" points="700.64,-486.6 690.37,-484.01 696.78,-492.44 700.64,-486.6"/>
</g>
<!-- Node40 -->
<g id="node40" class="node">
<title>Node40</title>
<g id="a_node40"><a xlink:href="VectorDynSize_8h.html" target="_top" xlink:title=" ">
<polygon fill="none" stroke="black" points="1324,-168.5 1324,-187.5 1491,-187.5 1491,-168.5 1324,-168.5"/>
<text text-anchor="middle" x="1407.5" y="-175.5" font-family="FreeSans.ttf" font-size="10.00">iDynTree/Core/VectorDynSize.h</text>
</a>
</g>
</g>
<!-- Node39&#45;&gt;Node40 -->
<g id="edge80" class="edge">
<title>Node39&#45;&gt;Node40</title>
<path fill="none" stroke="midnightblue" d="M784.3,-526.45C849.58,-493.12 1092.35,-368.18 1286.5,-255 1321.69,-234.49 1361.52,-209.02 1385.56,-193.39"/>
<polygon fill="midnightblue" stroke="midnightblue" points="1387.78,-196.12 1394.25,-187.73 1383.96,-190.26 1387.78,-196.12"/>
</g>
<!-- Node40&#45;&gt;Node3 -->
<g id="edge82" class="edge">
<title>Node40&#45;&gt;Node3</title>
<path fill="none" stroke="midnightblue" d="M1336.99,-168.44C1239.32,-156.59 1066.8,-135.66 995.13,-126.96"/>
<polygon fill="midnightblue" stroke="midnightblue" points="995.26,-123.45 984.91,-125.72 994.42,-130.4 995.26,-123.45"/>
</g>
<!-- Node40&#45;&gt;Node7 -->
<g id="edge81" class="edge">
<title>Node40&#45;&gt;Node7</title>
<path fill="none" stroke="midnightblue" d="M1359.21,-168.46C1246.35,-148.5 965.67,-98.86 843.67,-77.29"/>
<polygon fill="midnightblue" stroke="midnightblue" points="844.22,-73.83 833.76,-75.53 843,-80.72 844.22,-73.83"/>
</g>
</g>
</svg>
