<?xml version="1.0" encoding="UTF-8" standalone="no"?>
<!DOCTYPE svg PUBLIC "-//W3C//DTD SVG 1.1//EN"
 "http://www.w3.org/Graphics/SVG/1.1/DTD/svg11.dtd">
<!-- Generated by graphviz version 2.43.0 (0)
 -->
<!-- Title: EigenHelpers.h Pages: 1 -->
<svg width="1342pt" height="543pt"
 viewBox="0.00 0.00 1342.00 543.00" xmlns="http://www.w3.org/2000/svg" xmlns:xlink="http://www.w3.org/1999/xlink">
<g id="graph0" class="graph" transform="scale(1 1) rotate(0) translate(4 539)">
<title>EigenHelpers.h</title>
<!-- Node1 -->
<g id="node1" class="node">
<title>Node1</title>
<g id="a_node1"><a xlink:title=" ">
<polygon fill="#bfbfbf" stroke="black" points="884.5,-515.5 884.5,-534.5 974.5,-534.5 974.5,-515.5 884.5,-515.5"/>
<text text-anchor="middle" x="929.5" y="-522.5" font-family="FreeSans.ttf" font-size="10.00">EigenHelpers.h</text>
</a>
</g>
</g>
<!-- Node2 -->
<g id="node2" class="node">
<title>Node2</title>
<g id="a_node2"><a xlink:title=" ">
<polygon fill="none" stroke="#bfbfbf" points="863,-0.5 863,-19.5 916,-19.5 916,-0.5 863,-0.5"/>
<text text-anchor="middle" x="889.5" y="-7.5" font-family="FreeSans.ttf" font-size="10.00">cstddef</text>
</a>
</g>
</g>
<!-- Node1&#45;&gt;Node2 -->
<g id="edge1" class="edge">
<title>Node1&#45;&gt;Node2</title>
<path fill="none" stroke="midnightblue" d="M974.6,-518.65C1027.15,-511.66 1109.93,-498 1134.5,-479 1230.72,-404.58 1258.5,-356.64 1258.5,-235 1258.5,-235 1258.5,-235 1258.5,-121 1258.5,-52.13 1019.43,-22.86 926.15,-14.06"/>
<polygon fill="midnightblue" stroke="midnightblue" points="926.32,-10.56 916.04,-13.14 925.68,-17.53 926.32,-10.56"/>
</g>
<!-- Node3 -->
<g id="node3" class="node">
<title>Node3</title>
<g id="a_node3"><a xlink:title=" ">
<polygon fill="none" stroke="#bfbfbf" points="1257,-454 1257,-473 1334,-473 1334,-454 1257,-454"/>
<text text-anchor="middle" x="1295.5" y="-461" font-family="FreeSans.ttf" font-size="10.00">Eigen/Dense</text>
</a>
</g>
</g>
<!-- Node1&#45;&gt;Node3 -->
<g id="edge2" class="edge">
<title>Node1&#45;&gt;Node3</title>
<path fill="none" stroke="midnightblue" d="M974.64,-519.29C1035.75,-512.52 1148.03,-498.63 1242.5,-479 1247.21,-478.02 1252.13,-476.86 1256.98,-475.64"/>
<polygon fill="midnightblue" stroke="midnightblue" points="1258,-478.99 1266.78,-473.06 1256.21,-472.22 1258,-478.99"/>
</g>
<!-- Node4 -->
<g id="node4" class="node">
<title>Node4</title>
<g id="a_node4"><a xlink:href="VectorDynSize_8h.html" target="_top" xlink:title=" ">
<polygon fill="none" stroke="black" points="0,-168.5 0,-187.5 167,-187.5 167,-168.5 0,-168.5"/>
<text text-anchor="middle" x="83.5" y="-175.5" font-family="FreeSans.ttf" font-size="10.00">iDynTree/Core/VectorDynSize.h</text>
</a>
</g>
</g>
<!-- Node1&#45;&gt;Node4 -->
<g id="edge3" class="edge">
<title>Node1&#45;&gt;Node4</title>
<path fill="none" stroke="midnightblue" d="M884.22,-522.05C713.63,-514.13 119.5,-480.94 119.5,-403 119.5,-403 119.5,-403 119.5,-289 119.5,-254.98 103.76,-217.85 93.09,-196.6"/>
<polygon fill="midnightblue" stroke="midnightblue" points="96.09,-194.77 88.36,-187.53 89.88,-198.01 96.09,-194.77"/>
</g>
<!-- Node15 -->
<g id="node15" class="node">
<title>Node15</title>
<g id="a_node15"><a xlink:href="VectorFixSize_8h.html" target="_top" xlink:title=" ">
<polygon fill="none" stroke="black" points="658.5,-168.5 658.5,-187.5 820.5,-187.5 820.5,-168.5 658.5,-168.5"/>
<text text-anchor="middle" x="739.5" y="-175.5" font-family="FreeSans.ttf" font-size="10.00">iDynTree/Core/VectorFixSize.h</text>
</a>
</g>
</g>
<!-- Node1&#45;&gt;Node15 -->
<g id="edge15" class="edge">
<title>Node1&#45;&gt;Node15</title>
<path fill="none" stroke="midnightblue" d="M884.14,-523.86C845.6,-521.3 791.3,-511.54 757.5,-479 732.08,-454.52 734.5,-438.29 734.5,-403 734.5,-403 734.5,-403 734.5,-289 734.5,-256.91 736.65,-219.62 738.13,-197.74"/>
<polygon fill="midnightblue" stroke="midnightblue" points="741.64,-197.77 738.85,-187.55 734.65,-197.28 741.64,-197.77"/>
</g>
<!-- Node16 -->
<g id="node16" class="node">
<title>Node16</title>
<g id="a_node16"><a xlink:href="Utils_8h.html" target="_top" xlink:title=" ">
<polygon fill="none" stroke="black" points="1005,-56.5 1005,-75.5 1124,-75.5 1124,-56.5 1005,-56.5"/>
<text text-anchor="middle" x="1064.5" y="-63.5" font-family="FreeSans.ttf" font-size="10.00">iDynTree/Core/Utils.h</text>
</a>
</g>
</g>
<!-- Node1&#45;&gt;Node16 -->
<g id="edge71" class="edge">
<title>Node1&#45;&gt;Node16</title>
<path fill="none" stroke="midnightblue" d="M974.57,-523.17C1044.56,-520.86 1174.46,-512.09 1204.5,-479 1277.54,-398.53 1220.5,-343.68 1220.5,-235 1220.5,-235 1220.5,-235 1220.5,-177 1220.5,-122.82 1156.87,-92.97 1110.88,-78.48"/>
<polygon fill="midnightblue" stroke="midnightblue" points="1111.66,-75.06 1101.08,-75.54 1109.65,-81.77 1111.66,-75.06"/>
</g>
<!-- Node20 -->
<g id="node20" class="node">
<title>Node20</title>
<g id="a_node20"><a xlink:href="MatrixDynSize_8h.html" target="_top" xlink:title=" ">
<polygon fill="none" stroke="black" points="434.5,-168.5 434.5,-187.5 602.5,-187.5 602.5,-168.5 434.5,-168.5"/>
<text text-anchor="middle" x="518.5" y="-175.5" font-family="FreeSans.ttf" font-size="10.00">iDynTree/Core/MatrixDynSize.h</text>
</a>
</g>
</g>
<!-- Node1&#45;&gt;Node20 -->
<g id="edge25" class="edge">
<title>Node1&#45;&gt;Node20</title>
<path fill="none" stroke="midnightblue" d="M884.31,-522.33C763.91,-516.67 444.5,-493.15 444.5,-403 444.5,-403 444.5,-403 444.5,-289 444.5,-249.61 477.57,-213.73 499.5,-194.26"/>
<polygon fill="midnightblue" stroke="midnightblue" points="501.93,-196.79 507.26,-187.64 497.38,-191.47 501.93,-196.79"/>
</g>
<!-- Node22 -->
<g id="node22" class="node">
<title>Node22</title>
<g id="a_node22"><a xlink:href="MatrixFixSize_8h.html" target="_top" xlink:title=" ">
<polygon fill="none" stroke="black" points="839,-168.5 839,-187.5 1002,-187.5 1002,-168.5 839,-168.5"/>
<text text-anchor="middle" x="920.5" y="-175.5" font-family="FreeSans.ttf" font-size="10.00">iDynTree/Core/MatrixFixSize.h</text>
</a>
</g>
</g>
<!-- Node1&#45;&gt;Node22 -->
<g id="edge32" class="edge">
<title>Node1&#45;&gt;Node22</title>
<path fill="none" stroke="midnightblue" d="M974.63,-519.61C1039.79,-510.5 1152.5,-483.17 1152.5,-403 1152.5,-403 1152.5,-403 1152.5,-345 1152.5,-255.26 1036.27,-209.39 968.35,-190.25"/>
<polygon fill="midnightblue" stroke="midnightblue" points="968.86,-186.76 958.29,-187.51 967.02,-193.52 968.86,-186.76"/>
</g>
<!-- Node24 -->
<g id="node24" class="node">
<title>Node24</title>
<g id="a_node24"><a xlink:href="SpatialMotionVector_8h.html" target="_top" xlink:title=" ">
<polygon fill="none" stroke="black" points="767,-448.5 767,-478.5 922,-478.5 922,-448.5 767,-448.5"/>
<text text-anchor="start" x="775" y="-466.5" font-family="FreeSans.ttf" font-size="10.00">iDynTree/Core/SpatialMotion</text>
<text text-anchor="middle" x="844.5" y="-455.5" font-family="FreeSans.ttf" font-size="10.00">Vector.h</text>
</a>
</g>
</g>
<!-- Node1&#45;&gt;Node24 -->
<g id="edge40" class="edge">
<title>Node1&#45;&gt;Node24</title>
<path fill="none" stroke="midnightblue" d="M917.32,-515.48C905.81,-507.42 888.1,-495.02 873.03,-484.47"/>
<polygon fill="midnightblue" stroke="midnightblue" points="874.73,-481.39 864.53,-478.52 870.72,-487.12 874.73,-481.39"/>
</g>
<!-- Node31 -->
<g id="node31" class="node">
<title>Node31</title>
<g id="a_node31"><a xlink:href="SpatialForceVector_8h.html" target="_top" xlink:title=" ">
<polygon fill="none" stroke="black" points="940.5,-448.5 940.5,-478.5 1088.5,-478.5 1088.5,-448.5 940.5,-448.5"/>
<text text-anchor="start" x="948.5" y="-466.5" font-family="FreeSans.ttf" font-size="10.00">iDynTree/Core/SpatialForce</text>
<text text-anchor="middle" x="1014.5" y="-455.5" font-family="FreeSans.ttf" font-size="10.00">Vector.h</text>
</a>
</g>
</g>
<!-- Node1&#45;&gt;Node31 -->
<g id="edge62" class="edge">
<title>Node1&#45;&gt;Node31</title>
<path fill="none" stroke="midnightblue" d="M941.68,-515.48C953.19,-507.42 970.9,-495.02 985.97,-484.47"/>
<polygon fill="midnightblue" stroke="midnightblue" points="988.28,-487.12 994.47,-478.52 984.27,-481.39 988.28,-487.12"/>
</g>
<!-- Node32 -->
<g id="node32" class="node">
<title>Node32</title>
<g id="a_node32"><a xlink:href="Transform_8h.html" target="_top" xlink:title=" ">
<polygon fill="none" stroke="black" points="270.5,-392.5 270.5,-411.5 416.5,-411.5 416.5,-392.5 270.5,-392.5"/>
<text text-anchor="middle" x="343.5" y="-399.5" font-family="FreeSans.ttf" font-size="10.00">iDynTree/Core/Transform.h</text>
</a>
</g>
</g>
<!-- Node1&#45;&gt;Node32 -->
<g id="edge66" class="edge">
<title>Node1&#45;&gt;Node32</title>
<path fill="none" stroke="midnightblue" d="M884.24,-523.47C777.23,-521.65 511.58,-513.66 430.5,-479 399.75,-465.86 372.16,-437.6 356.65,-419.49"/>
<polygon fill="midnightblue" stroke="midnightblue" points="359.12,-416.99 350.04,-411.52 353.73,-421.46 359.12,-416.99"/>
</g>
<!-- Node5 -->
<g id="node5" class="node">
<title>Node5</title>
<g id="a_node5"><a xlink:href="Span_8h.html" target="_top" xlink:title=" ">
<polygon fill="none" stroke="black" points="447,-56.5 447,-75.5 568,-75.5 568,-56.5 447,-56.5"/>
<text text-anchor="middle" x="507.5" y="-63.5" font-family="FreeSans.ttf" font-size="10.00">iDynTree/Core/Span.h</text>
</a>
</g>
</g>
<!-- Node4&#45;&gt;Node5 -->
<g id="edge4" class="edge">
<title>Node4&#45;&gt;Node5</title>
<path fill="none" stroke="midnightblue" d="M116.42,-168.46C192.42,-148.74 380.09,-100.05 464.8,-78.08"/>
<polygon fill="midnightblue" stroke="midnightblue" points="465.8,-81.43 474.6,-75.53 464.04,-74.66 465.8,-81.43"/>
</g>
<!-- Node14 -->
<g id="node14" class="node">
<title>Node14</title>
<g id="a_node14"><a xlink:title=" ">
<polygon fill="none" stroke="#bfbfbf" points="384.5,-112.5 384.5,-131.5 428.5,-131.5 428.5,-112.5 384.5,-112.5"/>
<text text-anchor="middle" x="406.5" y="-119.5" font-family="FreeSans.ttf" font-size="10.00">string</text>
</a>
</g>
</g>
<!-- Node4&#45;&gt;Node14 -->
<g id="edge14" class="edge">
<title>Node4&#45;&gt;Node14</title>
<path fill="none" stroke="midnightblue" d="M134.68,-168.44C201.86,-157.21 317.83,-137.82 374.06,-128.42"/>
<polygon fill="midnightblue" stroke="midnightblue" points="374.87,-131.84 384.15,-126.74 373.71,-124.93 374.87,-131.84"/>
</g>
<!-- Node5&#45;&gt;Node2 -->
<g id="edge8" class="edge">
<title>Node5&#45;&gt;Node2</title>
<path fill="none" stroke="midnightblue" d="M568.03,-56.44C648.11,-45.12 786.79,-25.52 852.69,-16.2"/>
<polygon fill="midnightblue" stroke="midnightblue" points="853.21,-19.67 862.62,-14.8 852.23,-12.73 853.21,-19.67"/>
</g>
<!-- Node6 -->
<g id="node6" class="node">
<title>Node6</title>
<g id="a_node6"><a xlink:title=" ">
<polygon fill="none" stroke="#bfbfbf" points="696.5,-0.5 696.5,-19.5 748.5,-19.5 748.5,-0.5 696.5,-0.5"/>
<text text-anchor="middle" x="722.5" y="-7.5" font-family="FreeSans.ttf" font-size="10.00">cassert</text>
</a>
</g>
</g>
<!-- Node5&#45;&gt;Node6 -->
<g id="edge5" class="edge">
<title>Node5&#45;&gt;Node6</title>
<path fill="none" stroke="midnightblue" d="M541.57,-56.44C581.11,-46.51 646.04,-30.21 686.42,-20.06"/>
<polygon fill="midnightblue" stroke="midnightblue" points="687.52,-23.39 696.37,-17.56 685.82,-16.6 687.52,-23.39"/>
</g>
<!-- Node7 -->
<g id="node7" class="node">
<title>Node7</title>
<g id="a_node7"><a xlink:title=" ">
<polygon fill="none" stroke="#bfbfbf" points="332.5,-0.5 332.5,-19.5 396.5,-19.5 396.5,-0.5 332.5,-0.5"/>
<text text-anchor="middle" x="364.5" y="-7.5" font-family="FreeSans.ttf" font-size="10.00">algorithm</text>
</a>
</g>
</g>
<!-- Node5&#45;&gt;Node7 -->
<g id="edge6" class="edge">
<title>Node5&#45;&gt;Node7</title>
<path fill="none" stroke="midnightblue" d="M484.84,-56.44C461.1,-47.48 423.59,-33.31 396.76,-23.18"/>
<polygon fill="midnightblue" stroke="midnightblue" points="397.64,-19.77 387.05,-19.52 395.17,-26.32 397.64,-19.77"/>
</g>
<!-- Node8 -->
<g id="node8" class="node">
<title>Node8</title>
<g id="a_node8"><a xlink:title=" ">
<polygon fill="none" stroke="#bfbfbf" points="414.5,-0.5 414.5,-19.5 456.5,-19.5 456.5,-0.5 414.5,-0.5"/>
<text text-anchor="middle" x="435.5" y="-7.5" font-family="FreeSans.ttf" font-size="10.00">array</text>
</a>
</g>
</g>
<!-- Node5&#45;&gt;Node8 -->
<g id="edge7" class="edge">
<title>Node5&#45;&gt;Node8</title>
<path fill="none" stroke="midnightblue" d="M495.93,-56.32C485.08,-48.18 468.62,-35.84 455.62,-26.09"/>
<polygon fill="midnightblue" stroke="midnightblue" points="457.38,-23.03 447.28,-19.83 453.18,-28.63 457.38,-23.03"/>
</g>
<!-- Node9 -->
<g id="node9" class="node">
<title>Node9</title>
<g id="a_node9"><a xlink:title=" ">
<polygon fill="none" stroke="#bfbfbf" points="475,-0.5 475,-19.5 528,-19.5 528,-0.5 475,-0.5"/>
<text text-anchor="middle" x="501.5" y="-7.5" font-family="FreeSans.ttf" font-size="10.00">iterator</text>
</a>
</g>
</g>
<!-- Node5&#45;&gt;Node9 -->
<g id="edge9" class="edge">
<title>Node5&#45;&gt;Node9</title>
<path fill="none" stroke="midnightblue" d="M506.51,-56.08C505.71,-48.93 504.57,-38.64 503.58,-29.69"/>
<polygon fill="midnightblue" stroke="midnightblue" points="507.06,-29.3 502.47,-19.75 500.1,-30.08 507.06,-29.3"/>
</g>
<!-- Node10 -->
<g id="node10" class="node">
<title>Node10</title>
<g id="a_node10"><a xlink:title=" ">
<polygon fill="none" stroke="#bfbfbf" points="546.5,-0.5 546.5,-19.5 590.5,-19.5 590.5,-0.5 546.5,-0.5"/>
<text text-anchor="middle" x="568.5" y="-7.5" font-family="FreeSans.ttf" font-size="10.00">limits</text>
</a>
</g>
</g>
<!-- Node5&#45;&gt;Node10 -->
<g id="edge10" class="edge">
<title>Node5&#45;&gt;Node10</title>
<path fill="none" stroke="midnightblue" d="M517.3,-56.32C526.32,-48.34 539.91,-36.31 550.82,-26.65"/>
<polygon fill="midnightblue" stroke="midnightblue" points="553.35,-29.08 558.52,-19.83 548.71,-23.84 553.35,-29.08"/>
</g>
<!-- Node11 -->
<g id="node11" class="node">
<title>Node11</title>
<g id="a_node11"><a xlink:title=" ">
<polygon fill="none" stroke="#bfbfbf" points="186,-0.5 186,-19.5 251,-19.5 251,-0.5 186,-0.5"/>
<text text-anchor="middle" x="218.5" y="-7.5" font-family="FreeSans.ttf" font-size="10.00">stdexcept</text>
</a>
</g>
</g>
<!-- Node5&#45;&gt;Node11 -->
<g id="edge11" class="edge">
<title>Node5&#45;&gt;Node11</title>
<path fill="none" stroke="midnightblue" d="M457.52,-56.48C409.52,-48.18 334.71,-34.92 261.06,-20.26"/>
<polygon fill="midnightblue" stroke="midnightblue" points="261.64,-16.81 251.15,-18.28 260.27,-23.67 261.64,-16.81"/>
</g>
<!-- Node12 -->
<g id="node12" class="node">
<title>Node12</title>
<g id="a_node12"><a xlink:title=" ">
<polygon fill="none" stroke="#bfbfbf" points="609,-0.5 609,-19.5 678,-19.5 678,-0.5 609,-0.5"/>
<text text-anchor="middle" x="643.5" y="-7.5" font-family="FreeSans.ttf" font-size="10.00">type_traits</text>
</a>
</g>
</g>
<!-- Node5&#45;&gt;Node12 -->
<g id="edge12" class="edge">
<title>Node5&#45;&gt;Node12</title>
<path fill="none" stroke="midnightblue" d="M529.05,-56.44C551.53,-47.52 586.99,-33.44 612.48,-23.32"/>
<polygon fill="midnightblue" stroke="midnightblue" points="614.05,-26.46 622.05,-19.52 611.47,-19.95 614.05,-26.46"/>
</g>
<!-- Node13 -->
<g id="node13" class="node">
<title>Node13</title>
<g id="a_node13"><a xlink:title=" ">
<polygon fill="none" stroke="#bfbfbf" points="269,-0.5 269,-19.5 314,-19.5 314,-0.5 269,-0.5"/>
<text text-anchor="middle" x="291.5" y="-7.5" font-family="FreeSans.ttf" font-size="10.00">utility</text>
</a>
</g>
</g>
<!-- Node5&#45;&gt;Node13 -->
<g id="edge13" class="edge">
<title>Node5&#45;&gt;Node13</title>
<path fill="none" stroke="midnightblue" d="M471.1,-56.49C435.95,-48.18 380.97,-34.96 324.09,-20.09"/>
<polygon fill="midnightblue" stroke="midnightblue" points="324.76,-16.64 314.2,-17.49 322.98,-23.41 324.76,-16.64"/>
</g>
<!-- Node15&#45;&gt;Node2 -->
<g id="edge23" class="edge">
<title>Node15&#45;&gt;Node2</title>
<path fill="none" stroke="midnightblue" d="M744.47,-168.14C751.93,-155.2 766.82,-130.64 782.5,-112 810.5,-78.72 848.58,-45.03 870.95,-26.2"/>
<polygon fill="midnightblue" stroke="midnightblue" points="873.26,-28.83 878.7,-19.74 868.78,-23.46 873.26,-28.83"/>
</g>
<!-- Node15&#45;&gt;Node5 -->
<g id="edge19" class="edge">
<title>Node15&#45;&gt;Node5</title>
<path fill="none" stroke="midnightblue" d="M664.82,-168.49C613.57,-161.25 551.38,-149.26 531.5,-132 518.04,-120.31 512.12,-100.37 509.52,-85.65"/>
<polygon fill="midnightblue" stroke="midnightblue" points="512.97,-85.05 508.11,-75.63 506.04,-86.02 512.97,-85.05"/>
</g>
<!-- Node15&#45;&gt;Node6 -->
<g id="edge22" class="edge">
<title>Node15&#45;&gt;Node6</title>
<path fill="none" stroke="midnightblue" d="M738.59,-168.08C735.91,-141.95 728.05,-65.21 724.4,-29.58"/>
<polygon fill="midnightblue" stroke="midnightblue" points="727.88,-29.16 723.38,-19.57 720.91,-29.87 727.88,-29.16"/>
</g>
<!-- Node15&#45;&gt;Node14 -->
<g id="edge20" class="edge">
<title>Node15&#45;&gt;Node14</title>
<path fill="none" stroke="midnightblue" d="M686.74,-168.44C616.99,-157.13 496.23,-137.55 438.73,-128.23"/>
<polygon fill="midnightblue" stroke="midnightblue" points="439.19,-124.76 428.76,-126.61 438.07,-131.66 439.19,-124.76"/>
</g>
<!-- Node15&#45;&gt;Node16 -->
<g id="edge16" class="edge">
<title>Node15&#45;&gt;Node16</title>
<path fill="none" stroke="midnightblue" d="M746.9,-168.18C759.43,-153.89 786.33,-125.85 815.5,-112 872.24,-85.07 943.26,-74.18 994.92,-69.82"/>
<polygon fill="midnightblue" stroke="midnightblue" points="995.29,-73.3 1004.99,-69.03 994.74,-66.32 995.29,-73.3"/>
</g>
<!-- Node18 -->
<g id="node18" class="node">
<title>Node18</title>
<g id="a_node18"><a xlink:title=" ">
<polygon fill="none" stroke="#bfbfbf" points="892.5,-112.5 892.5,-131.5 948.5,-131.5 948.5,-112.5 892.5,-112.5"/>
<text text-anchor="middle" x="920.5" y="-119.5" font-family="FreeSans.ttf" font-size="10.00">sstream</text>
</a>
</g>
</g>
<!-- Node15&#45;&gt;Node18 -->
<g id="edge21" class="edge">
<title>Node15&#45;&gt;Node18</title>
<path fill="none" stroke="midnightblue" d="M768.18,-168.44C799.12,-159.21 848.52,-144.48 882.63,-134.3"/>
<polygon fill="midnightblue" stroke="midnightblue" points="883.67,-137.64 892.25,-131.43 881.67,-130.93 883.67,-137.64"/>
</g>
<!-- Node19 -->
<g id="node19" class="node">
<title>Node19</title>
<g id="a_node19"><a xlink:title=" ">
<polygon fill="none" stroke="#bfbfbf" points="824.5,-112.5 824.5,-131.5 874.5,-131.5 874.5,-112.5 824.5,-112.5"/>
<text text-anchor="middle" x="849.5" y="-119.5" font-family="FreeSans.ttf" font-size="10.00">cstring</text>
</a>
</g>
</g>
<!-- Node15&#45;&gt;Node19 -->
<g id="edge24" class="edge">
<title>Node15&#45;&gt;Node19</title>
<path fill="none" stroke="midnightblue" d="M757.17,-168.32C774.89,-159.62 802.4,-146.12 822.79,-136.11"/>
<polygon fill="midnightblue" stroke="midnightblue" points="824.44,-139.2 831.87,-131.65 821.35,-132.92 824.44,-139.2"/>
</g>
<!-- Node16&#45;&gt;Node2 -->
<g id="edge17" class="edge">
<title>Node16&#45;&gt;Node2</title>
<path fill="none" stroke="midnightblue" d="M1036.77,-56.44C1006.81,-47.2 958.95,-32.43 925.96,-22.25"/>
<polygon fill="midnightblue" stroke="midnightblue" points="926.83,-18.85 916.24,-19.25 924.76,-25.54 926.83,-18.85"/>
</g>
<!-- Node17 -->
<g id="node17" class="node">
<title>Node17</title>
<g id="a_node17"><a xlink:title=" ">
<polygon fill="none" stroke="#bfbfbf" points="1024.5,-0.5 1024.5,-19.5 1104.5,-19.5 1104.5,-0.5 1024.5,-0.5"/>
<text text-anchor="middle" x="1064.5" y="-7.5" font-family="FreeSans.ttf" font-size="10.00">CoreExport.h</text>
</a>
</g>
</g>
<!-- Node16&#45;&gt;Node17 -->
<g id="edge18" class="edge">
<title>Node16&#45;&gt;Node17</title>
<path fill="none" stroke="midnightblue" d="M1064.5,-56.08C1064.5,-49.01 1064.5,-38.86 1064.5,-29.99"/>
<polygon fill="midnightblue" stroke="midnightblue" points="1068,-29.75 1064.5,-19.75 1061,-29.75 1068,-29.75"/>
</g>
<!-- Node20&#45;&gt;Node14 -->
<g id="edge26" class="edge">
<title>Node20&#45;&gt;Node14</title>
<path fill="none" stroke="midnightblue" d="M500.51,-168.32C482.46,-159.62 454.45,-146.12 433.7,-136.11"/>
<polygon fill="midnightblue" stroke="midnightblue" points="434.98,-132.84 424.45,-131.65 431.94,-139.15 434.98,-132.84"/>
</g>
<!-- Node21 -->
<g id="node21" class="node">
<title>Node21</title>
<g id="a_node21"><a xlink:href="MatrixView_8h.html" target="_top" xlink:title=" ">
<polygon fill="none" stroke="black" points="540.5,-112.5 540.5,-131.5 692.5,-131.5 692.5,-112.5 540.5,-112.5"/>
<text text-anchor="middle" x="616.5" y="-119.5" font-family="FreeSans.ttf" font-size="10.00">iDynTree/Core/MatrixView.h</text>
</a>
</g>
</g>
<!-- Node20&#45;&gt;Node21 -->
<g id="edge27" class="edge">
<title>Node20&#45;&gt;Node21</title>
<path fill="none" stroke="midnightblue" d="M534.25,-168.32C549.82,-159.74 573.88,-146.49 591.96,-136.52"/>
<polygon fill="midnightblue" stroke="midnightblue" points="593.72,-139.55 600.79,-131.65 590.35,-133.42 593.72,-139.55"/>
</g>
<!-- Node21&#45;&gt;Node5 -->
<g id="edge30" class="edge">
<title>Node21&#45;&gt;Node5</title>
<path fill="none" stroke="midnightblue" d="M598.99,-112.32C581.43,-103.62 554.17,-90.12 533.97,-80.11"/>
<polygon fill="midnightblue" stroke="midnightblue" points="535.48,-76.96 524.97,-75.65 532.38,-83.23 535.48,-76.96"/>
</g>
<!-- Node21&#45;&gt;Node6 -->
<g id="edge28" class="edge">
<title>Node21&#45;&gt;Node6</title>
<path fill="none" stroke="midnightblue" d="M624.82,-112.37C642.54,-93.97 684.27,-50.67 707.03,-27.05"/>
<polygon fill="midnightblue" stroke="midnightblue" points="709.8,-29.22 714.22,-19.59 704.76,-24.36 709.8,-29.22"/>
</g>
<!-- Node21&#45;&gt;Node12 -->
<g id="edge29" class="edge">
<title>Node21&#45;&gt;Node12</title>
<path fill="none" stroke="midnightblue" d="M618.62,-112.37C622.98,-94.62 633.03,-53.67 638.94,-29.6"/>
<polygon fill="midnightblue" stroke="midnightblue" points="642.41,-30.14 641.39,-19.59 635.61,-28.47 642.41,-30.14"/>
</g>
<!-- Node21&#45;&gt;Node16 -->
<g id="edge31" class="edge">
<title>Node21&#45;&gt;Node16</title>
<path fill="none" stroke="midnightblue" d="M687.49,-112.44C771.69,-102.29 911.14,-85.49 994.78,-75.4"/>
<polygon fill="midnightblue" stroke="midnightblue" points="995.44,-78.85 1004.94,-74.18 994.6,-71.9 995.44,-78.85"/>
</g>
<!-- Node22&#45;&gt;Node6 -->
<g id="edge35" class="edge">
<title>Node22&#45;&gt;Node6</title>
<path fill="none" stroke="midnightblue" d="M931.75,-168.38C946.84,-155.72 970.36,-131.52 957.5,-112 913.07,-44.55 813.16,-21.96 759.02,-14.53"/>
<polygon fill="midnightblue" stroke="midnightblue" points="759.2,-11.03 748.84,-13.24 758.32,-17.97 759.2,-11.03"/>
</g>
<!-- Node22&#45;&gt;Node14 -->
<g id="edge37" class="edge">
<title>Node22&#45;&gt;Node14</title>
<path fill="none" stroke="midnightblue" d="M839.34,-168.47C724.24,-156.38 518.74,-134.79 439.2,-126.44"/>
<polygon fill="midnightblue" stroke="midnightblue" points="439.14,-122.91 428.83,-125.35 438.41,-129.87 439.14,-122.91"/>
</g>
<!-- Node22&#45;&gt;Node16 -->
<g id="edge33" class="edge">
<title>Node22&#45;&gt;Node16</title>
<path fill="none" stroke="midnightblue" d="M935.13,-168.47C949.6,-159.84 972.16,-145.83 990.5,-132 1011.24,-116.37 1033.41,-96.4 1048.02,-82.75"/>
<polygon fill="midnightblue" stroke="midnightblue" points="1050.43,-85.29 1055.3,-75.89 1045.63,-80.2 1050.43,-85.29"/>
</g>
<!-- Node22&#45;&gt;Node18 -->
<g id="edge39" class="edge">
<title>Node22&#45;&gt;Node18</title>
<path fill="none" stroke="midnightblue" d="M920.5,-168.08C920.5,-161.01 920.5,-150.86 920.5,-141.99"/>
<polygon fill="midnightblue" stroke="midnightblue" points="924,-141.75 920.5,-131.75 917,-141.75 924,-141.75"/>
</g>
<!-- Node22&#45;&gt;Node19 -->
<g id="edge36" class="edge">
<title>Node22&#45;&gt;Node19</title>
<path fill="none" stroke="midnightblue" d="M909.09,-168.32C898.39,-160.18 882.16,-147.84 869.34,-138.09"/>
<polygon fill="midnightblue" stroke="midnightblue" points="871.19,-135.1 861.11,-131.83 866.96,-140.67 871.19,-135.1"/>
</g>
<!-- Node22&#45;&gt;Node21 -->
<g id="edge34" class="edge">
<title>Node22&#45;&gt;Node21</title>
<path fill="none" stroke="midnightblue" d="M872.33,-168.44C818.63,-158.9 731.81,-143.48 674.45,-133.29"/>
<polygon fill="midnightblue" stroke="midnightblue" points="674.9,-129.82 664.44,-131.52 673.68,-136.71 674.9,-129.82"/>
</g>
<!-- Node23 -->
<g id="node23" class="node">
<title>Node23</title>
<g id="a_node23"><a xlink:title=" ">
<polygon fill="none" stroke="#bfbfbf" points="1059.5,-112.5 1059.5,-131.5 1119.5,-131.5 1119.5,-112.5 1059.5,-112.5"/>
<text text-anchor="middle" x="1089.5" y="-119.5" font-family="FreeSans.ttf" font-size="10.00">iostream</text>
</a>
</g>
</g>
<!-- Node22&#45;&gt;Node23 -->
<g id="edge38" class="edge">
<title>Node22&#45;&gt;Node23</title>
<path fill="none" stroke="midnightblue" d="M947.28,-168.44C975.83,-159.32 1021.23,-144.81 1053.04,-134.65"/>
<polygon fill="midnightblue" stroke="midnightblue" points="1054.39,-137.89 1062.85,-131.52 1052.26,-131.23 1054.39,-137.89"/>
</g>
<!-- Node24&#45;&gt;Node15 -->
<g id="edge41" class="edge">
<title>Node24&#45;&gt;Node15</title>
<path fill="none" stroke="midnightblue" d="M828.16,-448.24C806.92,-428.03 772.5,-388.82 772.5,-347 772.5,-347 772.5,-347 772.5,-289 772.5,-255.25 758.07,-218.03 748.29,-196.69"/>
<polygon fill="midnightblue" stroke="midnightblue" points="751.41,-195.1 743.95,-187.58 745.09,-198.11 751.41,-195.1"/>
</g>
<!-- Node25 -->
<g id="node25" class="node">
<title>Node25</title>
<g id="a_node25"><a xlink:href="GeomVector3_8h.html" target="_top" xlink:title=" ">
<polygon fill="none" stroke="black" points="801,-224.5 801,-243.5 964,-243.5 964,-224.5 801,-224.5"/>
<text text-anchor="middle" x="882.5" y="-231.5" font-family="FreeSans.ttf" font-size="10.00">iDynTree/Core/GeomVector3.h</text>
</a>
</g>
</g>
<!-- Node24&#45;&gt;Node25 -->
<g id="edge42" class="edge">
<title>Node24&#45;&gt;Node25</title>
<path fill="none" stroke="midnightblue" d="M846.36,-448.25C850.45,-417.44 860.8,-342.38 872.5,-280 874.14,-271.24 876.25,-261.58 878.11,-253.47"/>
<polygon fill="midnightblue" stroke="midnightblue" points="881.55,-254.13 880.41,-243.59 874.73,-252.53 881.55,-254.13"/>
</g>
<!-- Node26 -->
<g id="node26" class="node">
<title>Node26</title>
<g id="a_node26"><a xlink:href="SpatialVector_8h.html" target="_top" xlink:title=" ">
<polygon fill="none" stroke="black" points="918,-392.5 918,-411.5 1079,-411.5 1079,-392.5 918,-392.5"/>
<text text-anchor="middle" x="998.5" y="-399.5" font-family="FreeSans.ttf" font-size="10.00">iDynTree/Core/SpatialVector.h</text>
</a>
</g>
</g>
<!-- Node24&#45;&gt;Node26 -->
<g id="edge44" class="edge">
<title>Node24&#45;&gt;Node26</title>
<path fill="none" stroke="midnightblue" d="M881,-448.4C907.07,-438.33 941.79,-424.91 966.72,-415.28"/>
<polygon fill="midnightblue" stroke="midnightblue" points="968.03,-418.53 976.09,-411.66 965.5,-412 968.03,-418.53"/>
</g>
<!-- Node25&#45;&gt;Node15 -->
<g id="edge43" class="edge">
<title>Node25&#45;&gt;Node15</title>
<path fill="none" stroke="midnightblue" d="M859.84,-224.44C836.1,-215.48 798.59,-201.31 771.76,-191.18"/>
<polygon fill="midnightblue" stroke="midnightblue" points="772.64,-187.77 762.05,-187.52 770.17,-194.32 772.64,-187.77"/>
</g>
<!-- Node26&#45;&gt;Node16 -->
<g id="edge58" class="edge">
<title>Node26&#45;&gt;Node16</title>
<path fill="none" stroke="midnightblue" d="M1008.03,-392.49C1017.11,-383.98 1030.65,-370.16 1039.5,-356 1096.27,-265.16 1108.36,-237.22 1128.5,-132 1130.17,-123.27 1132.6,-119.89 1128.5,-112 1121.35,-98.23 1107.83,-87.78 1095.05,-80.44"/>
<polygon fill="midnightblue" stroke="midnightblue" points="1096.46,-77.23 1085.98,-75.64 1093.18,-83.41 1096.46,-77.23"/>
</g>
<!-- Node26&#45;&gt;Node18 -->
<g id="edge61" class="edge">
<title>Node26&#45;&gt;Node18</title>
<path fill="none" stroke="midnightblue" d="M1000.28,-392.3C1007.78,-354.69 1035.33,-206.37 1011.5,-168 999.81,-149.17 977.64,-137.98 958.12,-131.47"/>
<polygon fill="midnightblue" stroke="midnightblue" points="959.09,-128.11 948.51,-128.56 957.06,-134.81 959.09,-128.11"/>
</g>
<!-- Node26&#45;&gt;Node23 -->
<g id="edge60" class="edge">
<title>Node26&#45;&gt;Node23</title>
<path fill="none" stroke="midnightblue" d="M1003.85,-392.3C1009.13,-383.43 1017.18,-369.13 1022.5,-356 1053.79,-278.79 1076.74,-181.69 1085.55,-141.61"/>
<polygon fill="midnightblue" stroke="midnightblue" points="1089.01,-142.2 1087.7,-131.68 1082.16,-140.72 1089.01,-142.2"/>
</g>
<!-- Node26&#45;&gt;Node25 -->
<g id="edge59" class="edge">
<title>Node26&#45;&gt;Node25</title>
<path fill="none" stroke="midnightblue" d="M992.26,-392.08C973.77,-365.61 918.98,-287.21 894.53,-252.21"/>
<polygon fill="midnightblue" stroke="midnightblue" points="897.08,-249.76 888.49,-243.57 891.35,-253.77 897.08,-249.76"/>
</g>
<!-- Node27 -->
<g id="node27" class="node">
<title>Node27</title>
<g id="a_node27"><a xlink:href="Position_8h.html" target="_top" xlink:title=" ">
<polygon fill="none" stroke="black" points="311,-336.5 311,-355.5 376,-355.5 376,-336.5 311,-336.5"/>
<text text-anchor="middle" x="343.5" y="-343.5" font-family="FreeSans.ttf" font-size="10.00">Position.h</text>
</a>
</g>
</g>
<!-- Node26&#45;&gt;Node27 -->
<g id="edge45" class="edge">
<title>Node26&#45;&gt;Node27</title>
<path fill="none" stroke="midnightblue" d="M917.86,-394.35C777.71,-382.8 493.9,-359.4 386.23,-350.52"/>
<polygon fill="midnightblue" stroke="midnightblue" points="386.32,-347.02 376.07,-349.69 385.75,-353.99 386.32,-347.02"/>
</g>
<!-- Node29 -->
<g id="node29" class="node">
<title>Node29</title>
<g id="a_node29"><a xlink:href="Rotation_8h.html" target="_top" xlink:title=" ">
<polygon fill="none" stroke="black" points="520.5,-280.5 520.5,-299.5 658.5,-299.5 658.5,-280.5 520.5,-280.5"/>
<text text-anchor="middle" x="589.5" y="-287.5" font-family="FreeSans.ttf" font-size="10.00">iDynTree/Core/Rotation.h</text>
</a>
</g>
</g>
<!-- Node26&#45;&gt;Node29 -->
<g id="edge57" class="edge">
<title>Node26&#45;&gt;Node29</title>
<path fill="none" stroke="midnightblue" d="M966.75,-392.46C893.51,-372.76 712.77,-324.15 630.94,-302.15"/>
<polygon fill="midnightblue" stroke="midnightblue" points="631.8,-298.75 621.23,-299.53 629.98,-305.51 631.8,-298.75"/>
</g>
<!-- Node27&#45;&gt;Node14 -->
<g id="edge56" class="edge">
<title>Node27&#45;&gt;Node14</title>
<path fill="none" stroke="midnightblue" d="M327.64,-336.26C295.25,-317.2 226.6,-269.94 251.5,-224 277.52,-175.99 337.34,-147.2 374.59,-133.28"/>
<polygon fill="midnightblue" stroke="midnightblue" points="376.22,-136.41 384.46,-129.74 373.86,-129.82 376.22,-136.41"/>
</g>
<!-- Node28 -->
<g id="node28" class="node">
<title>Node28</title>
<g id="a_node28"><a xlink:href="PositionRaw_8h.html" target="_top" xlink:title=" ">
<polygon fill="none" stroke="black" points="260.5,-224.5 260.5,-243.5 416.5,-243.5 416.5,-224.5 260.5,-224.5"/>
<text text-anchor="middle" x="338.5" y="-231.5" font-family="FreeSans.ttf" font-size="10.00">iDynTree/Core/PositionRaw.h</text>
</a>
</g>
</g>
<!-- Node27&#45;&gt;Node28 -->
<g id="edge46" class="edge">
<title>Node27&#45;&gt;Node28</title>
<path fill="none" stroke="midnightblue" d="M343.11,-336.37C342.3,-318.62 340.44,-277.67 339.35,-253.6"/>
<polygon fill="midnightblue" stroke="midnightblue" points="342.84,-253.42 338.89,-243.59 335.85,-253.74 342.84,-253.42"/>
</g>
<!-- Node27&#45;&gt;Node29 -->
<g id="edge49" class="edge">
<title>Node27&#45;&gt;Node29</title>
<path fill="none" stroke="midnightblue" d="M376.17,-337.83C418.26,-328.59 491.82,-312.44 540.6,-301.73"/>
<polygon fill="midnightblue" stroke="midnightblue" points="541.59,-305.1 550.61,-299.54 540.09,-298.26 541.59,-305.1"/>
</g>
<!-- Node28&#45;&gt;Node14 -->
<g id="edge48" class="edge">
<title>Node28&#45;&gt;Node14</title>
<path fill="none" stroke="midnightblue" d="M343.84,-224.37C355.01,-206.3 381.05,-164.18 395.8,-140.31"/>
<polygon fill="midnightblue" stroke="midnightblue" points="398.91,-141.94 401.19,-131.59 392.95,-138.26 398.91,-141.94"/>
</g>
<!-- Node28&#45;&gt;Node15 -->
<g id="edge47" class="edge">
<title>Node28&#45;&gt;Node15</title>
<path fill="none" stroke="midnightblue" d="M402.04,-224.44C473.9,-214.77 590.72,-199.04 666.33,-188.85"/>
<polygon fill="midnightblue" stroke="midnightblue" points="666.81,-192.32 676.26,-187.52 665.88,-185.38 666.81,-192.32"/>
</g>
<!-- Node29&#45;&gt;Node14 -->
<g id="edge50" class="edge">
<title>Node29&#45;&gt;Node14</title>
<path fill="none" stroke="midnightblue" d="M563.22,-280.4C526.31,-266.89 459.79,-237.06 425.5,-188 415.92,-174.3 411.12,-155.77 408.75,-141.99"/>
<polygon fill="midnightblue" stroke="midnightblue" points="412.16,-141.16 407.27,-131.76 405.23,-142.15 412.16,-141.16"/>
</g>
<!-- Node29&#45;&gt;Node15 -->
<g id="edge55" class="edge">
<title>Node29&#45;&gt;Node15</title>
<path fill="none" stroke="midnightblue" d="M610.92,-280.47C629.49,-272.53 656.59,-259.59 677.5,-244 696.34,-229.95 714.49,-209.91 726.23,-195.81"/>
<polygon fill="midnightblue" stroke="midnightblue" points="729.06,-197.87 732.66,-187.9 723.63,-193.45 729.06,-197.87"/>
</g>
<!-- Node29&#45;&gt;Node25 -->
<g id="edge51" class="edge">
<title>Node29&#45;&gt;Node25</title>
<path fill="none" stroke="midnightblue" d="M635.93,-280.44C687.58,-270.92 771.01,-255.55 826.31,-245.36"/>
<polygon fill="midnightblue" stroke="midnightblue" points="827.09,-248.77 836.29,-243.52 825.82,-241.89 827.09,-248.77"/>
</g>
<!-- Node30 -->
<g id="node30" class="node">
<title>Node30</title>
<g id="a_node30"><a xlink:href="RotationRaw_8h.html" target="_top" xlink:title=" ">
<polygon fill="none" stroke="black" points="510.5,-224.5 510.5,-243.5 668.5,-243.5 668.5,-224.5 510.5,-224.5"/>
<text text-anchor="middle" x="589.5" y="-231.5" font-family="FreeSans.ttf" font-size="10.00">iDynTree/Core/RotationRaw.h</text>
</a>
</g>
</g>
<!-- Node29&#45;&gt;Node30 -->
<g id="edge52" class="edge">
<title>Node29&#45;&gt;Node30</title>
<path fill="none" stroke="midnightblue" d="M589.5,-280.08C589.5,-273.01 589.5,-262.86 589.5,-253.99"/>
<polygon fill="midnightblue" stroke="midnightblue" points="593,-253.75 589.5,-243.75 586,-253.75 593,-253.75"/>
</g>
<!-- Node30&#45;&gt;Node14 -->
<g id="edge54" class="edge">
<title>Node30&#45;&gt;Node14</title>
<path fill="none" stroke="midnightblue" d="M597.36,-224.08C608.24,-210.62 625.09,-184.9 611.5,-168 600.69,-154.56 493.78,-136.39 438.8,-127.84"/>
<polygon fill="midnightblue" stroke="midnightblue" points="439.27,-124.37 428.85,-126.31 438.2,-131.29 439.27,-124.37"/>
</g>
<!-- Node30&#45;&gt;Node22 -->
<g id="edge53" class="edge">
<title>Node30&#45;&gt;Node22</title>
<path fill="none" stroke="midnightblue" d="M641.95,-224.44C700.66,-214.87 795.73,-199.36 858.18,-189.17"/>
<polygon fill="midnightblue" stroke="midnightblue" points="858.99,-192.58 868.3,-187.52 857.86,-185.67 858.99,-192.58"/>
</g>
<!-- Node31&#45;&gt;Node15 -->
<g id="edge63" class="edge">
<title>Node31&#45;&gt;Node15</title>
<path fill="none" stroke="midnightblue" d="M1048.35,-448.44C1063.54,-440.23 1079.93,-428.23 1088.5,-412 1092.65,-404.14 1091.13,-400.49 1088.5,-392 1061.75,-305.56 1049.17,-273.61 973.5,-224 949.59,-208.33 883.3,-196.46 827.36,-188.86"/>
<polygon fill="midnightblue" stroke="midnightblue" points="827.78,-185.39 817.4,-187.54 826.85,-192.32 827.78,-185.39"/>
</g>
<!-- Node31&#45;&gt;Node25 -->
<g id="edge64" class="edge">
<title>Node31&#45;&gt;Node25</title>
<path fill="none" stroke="midnightblue" d="M961.46,-448.45C942.26,-440.75 922.19,-429.16 909.5,-412 874.12,-364.18 876.55,-288.95 880.03,-254.01"/>
<polygon fill="midnightblue" stroke="midnightblue" points="883.54,-254.13 881.2,-243.8 876.58,-253.34 883.54,-254.13"/>
</g>
<!-- Node31&#45;&gt;Node26 -->
<g id="edge65" class="edge">
<title>Node31&#45;&gt;Node26</title>
<path fill="none" stroke="midnightblue" d="M1010.71,-448.4C1008.55,-440.38 1005.82,-430.23 1003.49,-421.57"/>
<polygon fill="midnightblue" stroke="midnightblue" points="1006.8,-420.41 1000.83,-411.66 1000.05,-422.22 1006.8,-420.41"/>
</g>
<!-- Node32&#45;&gt;Node14 -->
<g id="edge70" class="edge">
<title>Node32&#45;&gt;Node14</title>
<path fill="none" stroke="midnightblue" d="M310.06,-392.41C266.13,-378.88 194.5,-348.07 194.5,-291 194.5,-291 194.5,-291 194.5,-233 194.5,-153.01 314.89,-131.11 374.23,-125.17"/>
<polygon fill="midnightblue" stroke="midnightblue" points="374.57,-128.66 384.21,-124.27 373.94,-121.69 374.57,-128.66"/>
</g>
<!-- Node32&#45;&gt;Node22 -->
<g id="edge69" class="edge">
<title>Node32&#45;&gt;Node22</title>
<path fill="none" stroke="midnightblue" d="M416.71,-393.86C567.64,-377.47 905.01,-331.65 973.5,-244 987.48,-226.11 964.77,-205.9 944.87,-192.83"/>
<polygon fill="midnightblue" stroke="midnightblue" points="946.7,-189.84 936.36,-187.53 943,-195.79 946.7,-189.84"/>
</g>
<!-- Node32&#45;&gt;Node27 -->
<g id="edge67" class="edge">
<title>Node32&#45;&gt;Node27</title>
<path fill="none" stroke="midnightblue" d="M343.5,-392.08C343.5,-385.01 343.5,-374.86 343.5,-365.99"/>
<polygon fill="midnightblue" stroke="midnightblue" points="347,-365.75 343.5,-355.75 340,-365.75 347,-365.75"/>
</g>
<!-- Node32&#45;&gt;Node29 -->
<g id="edge68" class="edge">
<title>Node32&#45;&gt;Node29</title>
<path fill="none" stroke="midnightblue" d="M362.8,-392.37C405.92,-373.09 510.21,-326.45 560.9,-303.79"/>
<polygon fill="midnightblue" stroke="midnightblue" points="562.59,-306.87 570.29,-299.59 559.73,-300.48 562.59,-306.87"/>
</g>
</g>
</svg>
