<?xml version="1.0" encoding="UTF-8" standalone="no"?>
<!DOCTYPE svg PUBLIC "-//W3C//DTD SVG 1.1//EN"
 "http://www.w3.org/Graphics/SVG/1.1/DTD/svg11.dtd">
<!-- Generated by graphviz version 2.43.0 (0)
 -->
<!-- Title: ExternalWrenchesEstimation.h Pages: 1 -->
<svg width="1568pt" height="666pt"
 viewBox="0.00 0.00 1567.50 666.00" xmlns="http://www.w3.org/2000/svg" xmlns:xlink="http://www.w3.org/1999/xlink">
<g id="graph0" class="graph" transform="scale(1 1) rotate(0) translate(4 662)">
<title>ExternalWrenchesEstimation.h</title>
<!-- Node1 -->
<g id="node1" class="node">
<title>Node1</title>
<g id="a_node1"><a xlink:title=" ">
<polygon fill="#bfbfbf" stroke="black" points="910,-638.5 910,-657.5 1077,-657.5 1077,-638.5 910,-638.5"/>
<text text-anchor="middle" x="993.5" y="-645.5" font-family="FreeSans.ttf" font-size="10.00">ExternalWrenchesEstimation.h</text>
</a>
</g>
</g>
<!-- Node2 -->
<g id="node2" class="node">
<title>Node2</title>
<g id="a_node2"><a xlink:href="Direction_8h.html" target="_top" xlink:title=" ">
<polygon fill="none" stroke="black" points="1257,-230 1257,-249 1398,-249 1398,-230 1257,-230"/>
<text text-anchor="middle" x="1327.5" y="-237" font-family="FreeSans.ttf" font-size="10.00">iDynTree/Core/Direction.h</text>
</a>
</g>
</g>
<!-- Node1&#45;&gt;Node2 -->
<g id="edge1" class="edge">
<title>Node1&#45;&gt;Node2</title>
<path fill="none" stroke="midnightblue" d="M1077.29,-641.86C1150.69,-635.96 1250.63,-624.11 1283.5,-602 1311.45,-583.2 1322.5,-570.69 1322.5,-537 1322.5,-537 1322.5,-537 1322.5,-356 1322.5,-321.83 1324.71,-282.03 1326.19,-259.2"/>
<polygon fill="midnightblue" stroke="midnightblue" points="1329.69,-259.4 1326.87,-249.19 1322.7,-258.93 1329.69,-259.4"/>
</g>
<!-- Node4 -->
<g id="node4" class="node">
<title>Node4</title>
<g id="a_node4"><a xlink:href="VectorFixSize_8h.html" target="_top" xlink:title=" ">
<polygon fill="none" stroke="black" points="1035.5,-168.5 1035.5,-187.5 1197.5,-187.5 1197.5,-168.5 1035.5,-168.5"/>
<text text-anchor="middle" x="1116.5" y="-175.5" font-family="FreeSans.ttf" font-size="10.00">iDynTree/Core/VectorFixSize.h</text>
</a>
</g>
</g>
<!-- Node1&#45;&gt;Node4 -->
<g id="edge53" class="edge">
<title>Node1&#45;&gt;Node4</title>
<path fill="none" stroke="midnightblue" d="M1039.7,-638.48C1118.27,-622.67 1269.5,-585.87 1269.5,-537 1269.5,-537 1269.5,-537 1269.5,-412 1269.5,-321.88 1255.7,-289.22 1193.5,-224 1180.49,-210.36 1162.44,-199.52 1147.09,-191.89"/>
<polygon fill="midnightblue" stroke="midnightblue" points="1148.48,-188.68 1137.95,-187.57 1145.49,-195.01 1148.48,-188.68"/>
</g>
<!-- Node19 -->
<g id="node19" class="node">
<title>Node19</title>
<g id="a_node19"><a xlink:href="Position_8h.html" target="_top" xlink:title=" ">
<polygon fill="none" stroke="black" points="506.5,-347.5 506.5,-366.5 642.5,-366.5 642.5,-347.5 506.5,-347.5"/>
<text text-anchor="middle" x="574.5" y="-354.5" font-family="FreeSans.ttf" font-size="10.00">iDynTree/Core/Position.h</text>
</a>
</g>
</g>
<!-- Node1&#45;&gt;Node19 -->
<g id="edge23" class="edge">
<title>Node1&#45;&gt;Node19</title>
<path fill="none" stroke="midnightblue" d="M909.82,-647.7C753.43,-646.75 432.5,-633.09 432.5,-537 432.5,-537 432.5,-537 432.5,-473.5 432.5,-419.4 495.3,-386.18 537.37,-369.99"/>
<polygon fill="midnightblue" stroke="midnightblue" points="538.61,-373.26 546.78,-366.51 536.19,-366.69 538.61,-373.26"/>
</g>
<!-- Node27 -->
<g id="node27" class="node">
<title>Node27</title>
<g id="a_node27"><a xlink:href="MatrixDynSize_8h.html" target="_top" xlink:title=" ">
<polygon fill="none" stroke="black" points="591.5,-168.5 591.5,-187.5 759.5,-187.5 759.5,-168.5 591.5,-168.5"/>
<text text-anchor="middle" x="675.5" y="-175.5" font-family="FreeSans.ttf" font-size="10.00">iDynTree/Core/MatrixDynSize.h</text>
</a>
</g>
</g>
<!-- Node1&#45;&gt;Node27 -->
<g id="edge47" class="edge">
<title>Node1&#45;&gt;Node27</title>
<path fill="none" stroke="midnightblue" d="M909.83,-646.97C779.87,-645.77 536.35,-638.51 458.5,-602 421.79,-584.79 394.5,-577.54 394.5,-537 394.5,-537 394.5,-537 394.5,-412 394.5,-318.78 414.62,-282.12 487.5,-224 514.01,-202.86 548.89,-191.39 581.39,-185.26"/>
<polygon fill="midnightblue" stroke="midnightblue" points="582.14,-188.69 591.39,-183.53 580.94,-181.79 582.14,-188.69"/>
</g>
<!-- Node28 -->
<g id="node28" class="node">
<title>Node28</title>
<g id="a_node28"><a xlink:href="VectorDynSize_8h.html" target="_top" xlink:title=" ">
<polygon fill="none" stroke="black" points="0,-168.5 0,-187.5 167,-187.5 167,-168.5 0,-168.5"/>
<text text-anchor="middle" x="83.5" y="-175.5" font-family="FreeSans.ttf" font-size="10.00">iDynTree/Core/VectorDynSize.h</text>
</a>
</g>
</g>
<!-- Node1&#45;&gt;Node28 -->
<g id="edge50" class="edge">
<title>Node1&#45;&gt;Node28</title>
<path fill="none" stroke="midnightblue" d="M909.79,-645.14C691.29,-639.18 120.5,-616.05 120.5,-537 120.5,-537 120.5,-537 120.5,-300 120.5,-261.9 103.52,-219.89 92.56,-196.75"/>
<polygon fill="midnightblue" stroke="midnightblue" points="95.59,-194.96 88.04,-187.53 89.3,-198.05 95.59,-194.96"/>
</g>
<!-- Node29 -->
<g id="node29" class="node">
<title>Node29</title>
<g id="a_node29"><a xlink:href="Indices_8h.html" target="_top" xlink:title=" ">
<polygon fill="none" stroke="black" points="1037,-526.5 1037,-545.5 1176,-545.5 1176,-526.5 1037,-526.5"/>
<text text-anchor="middle" x="1106.5" y="-533.5" font-family="FreeSans.ttf" font-size="10.00">iDynTree/Model/Indices.h</text>
</a>
</g>
</g>
<!-- Node1&#45;&gt;Node29 -->
<g id="edge54" class="edge">
<title>Node1&#45;&gt;Node29</title>
<path fill="none" stroke="midnightblue" d="M1002.37,-638.37C1021.35,-619.89 1066.14,-576.29 1090.33,-552.74"/>
<polygon fill="midnightblue" stroke="midnightblue" points="1092.95,-555.07 1097.67,-545.59 1088.07,-550.06 1092.95,-555.07"/>
</g>
<!-- Node31 -->
<g id="node31" class="node">
<title>Node31</title>
<g id="a_node31"><a xlink:href="LinkState_8h.html" target="_top" xlink:title=" ">
<polygon fill="none" stroke="black" points="768.5,-582.5 768.5,-601.5 918.5,-601.5 918.5,-582.5 768.5,-582.5"/>
<text text-anchor="middle" x="843.5" y="-589.5" font-family="FreeSans.ttf" font-size="10.00">iDynTree/Model/LinkState.h</text>
</a>
</g>
</g>
<!-- Node1&#45;&gt;Node31 -->
<g id="edge58" class="edge">
<title>Node1&#45;&gt;Node31</title>
<path fill="none" stroke="midnightblue" d="M969.73,-638.44C944.61,-629.4 904.79,-615.06 876.6,-604.92"/>
<polygon fill="midnightblue" stroke="midnightblue" points="877.75,-601.61 867.16,-601.52 875.38,-608.2 877.75,-601.61"/>
</g>
<!-- Node40 -->
<g id="node40" class="node">
<title>Node40</title>
<g id="a_node40"><a xlink:title=" ">
<polygon fill="none" stroke="#bfbfbf" points="1194,-526.5 1194,-545.5 1241,-545.5 1241,-526.5 1194,-526.5"/>
<text text-anchor="middle" x="1217.5" y="-533.5" font-family="FreeSans.ttf" font-size="10.00">vector</text>
</a>
</g>
</g>
<!-- Node1&#45;&gt;Node40 -->
<g id="edge87" class="edge">
<title>Node1&#45;&gt;Node40</title>
<path fill="none" stroke="midnightblue" d="M1011.08,-638.37C1050.17,-619.17 1144.51,-572.84 1190.88,-550.07"/>
<polygon fill="midnightblue" stroke="midnightblue" points="1192.57,-553.14 1200,-545.59 1189.49,-546.86 1192.57,-553.14"/>
</g>
<!-- Node3 -->
<g id="node3" class="node">
<title>Node3</title>
<g id="a_node3"><a xlink:title=" ">
<polygon fill="none" stroke="#bfbfbf" points="522.5,-112.5 522.5,-131.5 566.5,-131.5 566.5,-112.5 522.5,-112.5"/>
<text text-anchor="middle" x="544.5" y="-119.5" font-family="FreeSans.ttf" font-size="10.00">string</text>
</a>
</g>
</g>
<!-- Node2&#45;&gt;Node3 -->
<g id="edge2" class="edge">
<title>Node2&#45;&gt;Node3</title>
<path fill="none" stroke="midnightblue" d="M1256.99,-231.59C1127.75,-218.85 864.28,-192.56 844.5,-188 819.15,-182.16 814.6,-174.82 789.5,-168 714.42,-147.61 623.88,-133.65 576.68,-127.16"/>
<polygon fill="midnightblue" stroke="midnightblue" points="577.12,-123.69 566.74,-125.81 576.18,-130.62 577.12,-123.69"/>
</g>
<!-- Node2&#45;&gt;Node4 -->
<g id="edge3" class="edge">
<title>Node2&#45;&gt;Node4</title>
<path fill="none" stroke="midnightblue" d="M1297.27,-229.98C1260.21,-219.53 1197.31,-201.79 1156.34,-190.23"/>
<polygon fill="midnightblue" stroke="midnightblue" points="1157.25,-186.85 1146.68,-187.51 1155.35,-193.59 1157.25,-186.85"/>
</g>
<!-- Node5 -->
<g id="node5" class="node">
<title>Node5</title>
<g id="a_node5"><a xlink:href="Utils_8h.html" target="_top" xlink:title=" ">
<polygon fill="none" stroke="black" points="1146,-56.5 1146,-75.5 1265,-75.5 1265,-56.5 1146,-56.5"/>
<text text-anchor="middle" x="1205.5" y="-63.5" font-family="FreeSans.ttf" font-size="10.00">iDynTree/Core/Utils.h</text>
</a>
</g>
</g>
<!-- Node2&#45;&gt;Node5 -->
<g id="edge22" class="edge">
<title>Node2&#45;&gt;Node5</title>
<path fill="none" stroke="midnightblue" d="M1340.35,-229.74C1370,-208.48 1438.22,-152.9 1405.5,-112 1389.22,-91.65 1326.08,-79.85 1275.05,-73.48"/>
<polygon fill="midnightblue" stroke="midnightblue" points="1275.37,-70 1265.02,-72.28 1274.53,-76.95 1275.37,-70"/>
</g>
<!-- Node4&#45;&gt;Node3 -->
<g id="edge17" class="edge">
<title>Node4&#45;&gt;Node3</title>
<path fill="none" stroke="midnightblue" d="M1035.14,-168.93C1031.88,-168.62 1028.66,-168.3 1025.5,-168 856.46,-151.73 653.92,-133.05 576.62,-125.95"/>
<polygon fill="midnightblue" stroke="midnightblue" points="576.84,-122.45 566.56,-125.02 576.2,-129.42 576.84,-122.45"/>
</g>
<!-- Node4&#45;&gt;Node5 -->
<g id="edge4" class="edge">
<title>Node4&#45;&gt;Node5</title>
<path fill="none" stroke="midnightblue" d="M1123.48,-168.37C1138.24,-150.14 1172.79,-107.43 1192.01,-83.68"/>
<polygon fill="midnightblue" stroke="midnightblue" points="1194.98,-85.57 1198.55,-75.59 1189.54,-81.16 1194.98,-85.57"/>
</g>
<!-- Node6 -->
<g id="node6" class="node">
<title>Node6</title>
<g id="a_node6"><a xlink:title=" ">
<polygon fill="none" stroke="#bfbfbf" points="1093,-0.5 1093,-19.5 1146,-19.5 1146,-0.5 1093,-0.5"/>
<text text-anchor="middle" x="1119.5" y="-7.5" font-family="FreeSans.ttf" font-size="10.00">cstddef</text>
</a>
</g>
</g>
<!-- Node4&#45;&gt;Node6 -->
<g id="edge20" class="edge">
<title>Node4&#45;&gt;Node6</title>
<path fill="none" stroke="midnightblue" d="M1116.66,-168.08C1117.13,-141.95 1118.52,-65.21 1119.16,-29.58"/>
<polygon fill="midnightblue" stroke="midnightblue" points="1122.66,-29.63 1119.35,-19.57 1115.66,-29.5 1122.66,-29.63"/>
</g>
<!-- Node8 -->
<g id="node8" class="node">
<title>Node8</title>
<g id="a_node8"><a xlink:href="Span_8h.html" target="_top" xlink:title=" ">
<polygon fill="none" stroke="black" points="656,-56.5 656,-75.5 777,-75.5 777,-56.5 656,-56.5"/>
<text text-anchor="middle" x="716.5" y="-63.5" font-family="FreeSans.ttf" font-size="10.00">iDynTree/Core/Span.h</text>
</a>
</g>
</g>
<!-- Node4&#45;&gt;Node8 -->
<g id="edge7" class="edge">
<title>Node4&#45;&gt;Node8</title>
<path fill="none" stroke="midnightblue" d="M1038.7,-168.49C931.91,-156.68 752.37,-136.28 746.5,-132 731.47,-121.04 723.76,-100.68 719.95,-85.66"/>
<polygon fill="midnightblue" stroke="midnightblue" points="723.36,-84.89 717.81,-75.87 716.52,-86.38 723.36,-84.89"/>
</g>
<!-- Node9 -->
<g id="node9" class="node">
<title>Node9</title>
<g id="a_node9"><a xlink:title=" ">
<polygon fill="none" stroke="#bfbfbf" points="913.5,-0.5 913.5,-19.5 965.5,-19.5 965.5,-0.5 913.5,-0.5"/>
<text text-anchor="middle" x="939.5" y="-7.5" font-family="FreeSans.ttf" font-size="10.00">cassert</text>
</a>
</g>
</g>
<!-- Node4&#45;&gt;Node9 -->
<g id="edge19" class="edge">
<title>Node4&#45;&gt;Node9</title>
<path fill="none" stroke="midnightblue" d="M1109.68,-168.19C1099.53,-155.3 1079.61,-130.81 1060.5,-112 1026.98,-79 983.92,-44.78 959.25,-25.86"/>
<polygon fill="midnightblue" stroke="midnightblue" points="961.12,-22.88 951.04,-19.61 956.88,-28.45 961.12,-22.88"/>
</g>
<!-- Node17 -->
<g id="node17" class="node">
<title>Node17</title>
<g id="a_node17"><a xlink:title=" ">
<polygon fill="none" stroke="#bfbfbf" points="1183.5,-112.5 1183.5,-131.5 1239.5,-131.5 1239.5,-112.5 1183.5,-112.5"/>
<text text-anchor="middle" x="1211.5" y="-119.5" font-family="FreeSans.ttf" font-size="10.00">sstream</text>
</a>
</g>
</g>
<!-- Node4&#45;&gt;Node17 -->
<g id="edge18" class="edge">
<title>Node4&#45;&gt;Node17</title>
<path fill="none" stroke="midnightblue" d="M1131.76,-168.32C1146.72,-159.82 1169.75,-146.73 1187.23,-136.8"/>
<polygon fill="midnightblue" stroke="midnightblue" points="1189.31,-139.64 1196.27,-131.65 1185.85,-133.55 1189.31,-139.64"/>
</g>
<!-- Node18 -->
<g id="node18" class="node">
<title>Node18</title>
<g id="a_node18"><a xlink:title=" ">
<polygon fill="none" stroke="#bfbfbf" points="1001.5,-112.5 1001.5,-131.5 1051.5,-131.5 1051.5,-112.5 1001.5,-112.5"/>
<text text-anchor="middle" x="1026.5" y="-119.5" font-family="FreeSans.ttf" font-size="10.00">cstring</text>
</a>
</g>
</g>
<!-- Node4&#45;&gt;Node18 -->
<g id="edge21" class="edge">
<title>Node4&#45;&gt;Node18</title>
<path fill="none" stroke="midnightblue" d="M1102.04,-168.32C1088,-159.9 1066.45,-146.97 1049.96,-137.07"/>
<polygon fill="midnightblue" stroke="midnightblue" points="1051.3,-133.8 1040.92,-131.65 1047.7,-139.8 1051.3,-133.8"/>
</g>
<!-- Node5&#45;&gt;Node6 -->
<g id="edge5" class="edge">
<title>Node5&#45;&gt;Node6</title>
<path fill="none" stroke="midnightblue" d="M1191.68,-56.32C1178.27,-47.9 1157.68,-34.97 1141.91,-25.07"/>
<polygon fill="midnightblue" stroke="midnightblue" points="1143.61,-22.01 1133.28,-19.65 1139.89,-27.94 1143.61,-22.01"/>
</g>
<!-- Node7 -->
<g id="node7" class="node">
<title>Node7</title>
<g id="a_node7"><a xlink:title=" ">
<polygon fill="none" stroke="#bfbfbf" points="1165.5,-0.5 1165.5,-19.5 1245.5,-19.5 1245.5,-0.5 1165.5,-0.5"/>
<text text-anchor="middle" x="1205.5" y="-7.5" font-family="FreeSans.ttf" font-size="10.00">CoreExport.h</text>
</a>
</g>
</g>
<!-- Node5&#45;&gt;Node7 -->
<g id="edge6" class="edge">
<title>Node5&#45;&gt;Node7</title>
<path fill="none" stroke="midnightblue" d="M1205.5,-56.08C1205.5,-49.01 1205.5,-38.86 1205.5,-29.99"/>
<polygon fill="midnightblue" stroke="midnightblue" points="1209,-29.75 1205.5,-19.75 1202,-29.75 1209,-29.75"/>
</g>
<!-- Node8&#45;&gt;Node6 -->
<g id="edge11" class="edge">
<title>Node8&#45;&gt;Node6</title>
<path fill="none" stroke="midnightblue" d="M777.27,-56.86C861.98,-45.51 1012.95,-25.28 1082.52,-15.95"/>
<polygon fill="midnightblue" stroke="midnightblue" points="1083.13,-19.4 1092.58,-14.61 1082.2,-12.47 1083.13,-19.4"/>
</g>
<!-- Node8&#45;&gt;Node9 -->
<g id="edge8" class="edge">
<title>Node8&#45;&gt;Node9</title>
<path fill="none" stroke="midnightblue" d="M752.37,-56.47C788.05,-47.96 844.6,-34.41 903.33,-20.02"/>
<polygon fill="midnightblue" stroke="midnightblue" points="904.28,-23.39 913.16,-17.61 902.61,-16.6 904.28,-23.39"/>
</g>
<!-- Node10 -->
<g id="node10" class="node">
<title>Node10</title>
<g id="a_node10"><a xlink:title=" ">
<polygon fill="none" stroke="#bfbfbf" points="743.5,-0.5 743.5,-19.5 807.5,-19.5 807.5,-0.5 743.5,-0.5"/>
<text text-anchor="middle" x="775.5" y="-7.5" font-family="FreeSans.ttf" font-size="10.00">algorithm</text>
</a>
</g>
</g>
<!-- Node8&#45;&gt;Node10 -->
<g id="edge9" class="edge">
<title>Node8&#45;&gt;Node10</title>
<path fill="none" stroke="midnightblue" d="M725.98,-56.32C734.7,-48.34 747.84,-36.31 758.4,-26.65"/>
<polygon fill="midnightblue" stroke="midnightblue" points="760.83,-29.17 765.85,-19.83 756.11,-24 760.83,-29.17"/>
</g>
<!-- Node11 -->
<g id="node11" class="node">
<title>Node11</title>
<g id="a_node11"><a xlink:title=" ">
<polygon fill="none" stroke="#bfbfbf" points="402.5,-0.5 402.5,-19.5 444.5,-19.5 444.5,-0.5 402.5,-0.5"/>
<text text-anchor="middle" x="423.5" y="-7.5" font-family="FreeSans.ttf" font-size="10.00">array</text>
</a>
</g>
</g>
<!-- Node8&#45;&gt;Node11 -->
<g id="edge10" class="edge">
<title>Node8&#45;&gt;Node11</title>
<path fill="none" stroke="midnightblue" d="M655.76,-56.76C604.48,-49.31 528.99,-37.21 454.71,-20.06"/>
<polygon fill="midnightblue" stroke="midnightblue" points="455.25,-16.59 444.72,-17.71 453.66,-23.4 455.25,-16.59"/>
</g>
<!-- Node12 -->
<g id="node12" class="node">
<title>Node12</title>
<g id="a_node12"><a xlink:title=" ">
<polygon fill="none" stroke="#bfbfbf" points="463,-0.5 463,-19.5 516,-19.5 516,-0.5 463,-0.5"/>
<text text-anchor="middle" x="489.5" y="-7.5" font-family="FreeSans.ttf" font-size="10.00">iterator</text>
</a>
</g>
</g>
<!-- Node8&#45;&gt;Node12 -->
<g id="edge12" class="edge">
<title>Node8&#45;&gt;Node12</title>
<path fill="none" stroke="midnightblue" d="M679.49,-56.44C643.02,-47.96 585.44,-34.5 526.14,-20.13"/>
<polygon fill="midnightblue" stroke="midnightblue" points="526.77,-16.68 516.23,-17.72 525.12,-23.48 526.77,-16.68"/>
</g>
<!-- Node13 -->
<g id="node13" class="node">
<title>Node13</title>
<g id="a_node13"><a xlink:title=" ">
<polygon fill="none" stroke="#bfbfbf" points="534.5,-0.5 534.5,-19.5 578.5,-19.5 578.5,-0.5 534.5,-0.5"/>
<text text-anchor="middle" x="556.5" y="-7.5" font-family="FreeSans.ttf" font-size="10.00">limits</text>
</a>
</g>
</g>
<!-- Node8&#45;&gt;Node13 -->
<g id="edge13" class="edge">
<title>Node8&#45;&gt;Node13</title>
<path fill="none" stroke="midnightblue" d="M691.15,-56.44C663.28,-47.04 618.47,-31.91 588.28,-21.72"/>
<polygon fill="midnightblue" stroke="midnightblue" points="589.24,-18.35 578.64,-18.47 587,-24.99 589.24,-18.35"/>
</g>
<!-- Node14 -->
<g id="node14" class="node">
<title>Node14</title>
<g id="a_node14"><a xlink:title=" ">
<polygon fill="none" stroke="#bfbfbf" points="597,-0.5 597,-19.5 662,-19.5 662,-0.5 597,-0.5"/>
<text text-anchor="middle" x="629.5" y="-7.5" font-family="FreeSans.ttf" font-size="10.00">stdexcept</text>
</a>
</g>
</g>
<!-- Node8&#45;&gt;Node14 -->
<g id="edge14" class="edge">
<title>Node8&#45;&gt;Node14</title>
<path fill="none" stroke="midnightblue" d="M702.52,-56.32C688.95,-47.9 668.12,-34.97 652.18,-25.07"/>
<polygon fill="midnightblue" stroke="midnightblue" points="653.79,-21.95 643.44,-19.65 650.09,-27.9 653.79,-21.95"/>
</g>
<!-- Node15 -->
<g id="node15" class="node">
<title>Node15</title>
<g id="a_node15"><a xlink:title=" ">
<polygon fill="none" stroke="#bfbfbf" points="826,-0.5 826,-19.5 895,-19.5 895,-0.5 826,-0.5"/>
<text text-anchor="middle" x="860.5" y="-7.5" font-family="FreeSans.ttf" font-size="10.00">type_traits</text>
</a>
</g>
</g>
<!-- Node8&#45;&gt;Node15 -->
<g id="edge15" class="edge">
<title>Node8&#45;&gt;Node15</title>
<path fill="none" stroke="midnightblue" d="M739.32,-56.44C763.33,-47.44 801.33,-33.19 828.37,-23.05"/>
<polygon fill="midnightblue" stroke="midnightblue" points="829.66,-26.3 837.79,-19.52 827.2,-19.75 829.66,-26.3"/>
</g>
<!-- Node16 -->
<g id="node16" class="node">
<title>Node16</title>
<g id="a_node16"><a xlink:title=" ">
<polygon fill="none" stroke="#bfbfbf" points="680,-0.5 680,-19.5 725,-19.5 725,-0.5 680,-0.5"/>
<text text-anchor="middle" x="702.5" y="-7.5" font-family="FreeSans.ttf" font-size="10.00">utility</text>
</a>
</g>
</g>
<!-- Node8&#45;&gt;Node16 -->
<g id="edge16" class="edge">
<title>Node8&#45;&gt;Node16</title>
<path fill="none" stroke="midnightblue" d="M714.19,-56.08C712.33,-48.93 709.66,-38.64 707.35,-29.69"/>
<polygon fill="midnightblue" stroke="midnightblue" points="710.67,-28.55 704.77,-19.75 703.89,-30.31 710.67,-28.55"/>
</g>
<!-- Node19&#45;&gt;Node3 -->
<g id="edge46" class="edge">
<title>Node19&#45;&gt;Node3</title>
<path fill="none" stroke="midnightblue" d="M555.16,-347.49C524.22,-334.1 461.5,-307.93 406.5,-291 338.91,-270.19 295.49,-310.38 251.5,-255 178.72,-163.38 421.83,-133.29 512.11,-125.4"/>
<polygon fill="midnightblue" stroke="midnightblue" points="512.65,-128.87 522.32,-124.54 512.07,-121.89 512.65,-128.87"/>
</g>
<!-- Node20 -->
<g id="node20" class="node">
<title>Node20</title>
<g id="a_node20"><a xlink:href="PositionRaw_8h.html" target="_top" xlink:title=" ">
<polygon fill="none" stroke="black" points="496.5,-230 496.5,-249 652.5,-249 652.5,-230 496.5,-230"/>
<text text-anchor="middle" x="574.5" y="-237" font-family="FreeSans.ttf" font-size="10.00">iDynTree/Core/PositionRaw.h</text>
</a>
</g>
</g>
<!-- Node19&#45;&gt;Node20 -->
<g id="edge24" class="edge">
<title>Node19&#45;&gt;Node20</title>
<path fill="none" stroke="midnightblue" d="M574.5,-347.32C574.5,-328.76 574.5,-284.84 574.5,-259.47"/>
<polygon fill="midnightblue" stroke="midnightblue" points="578,-259.28 574.5,-249.28 571,-259.28 578,-259.28"/>
</g>
<!-- Node21 -->
<g id="node21" class="node">
<title>Node21</title>
<g id="a_node21"><a xlink:href="Rotation_8h.html" target="_top" xlink:title=" ">
<polygon fill="none" stroke="black" points="718.5,-291.5 718.5,-310.5 856.5,-310.5 856.5,-291.5 718.5,-291.5"/>
<text text-anchor="middle" x="787.5" y="-298.5" font-family="FreeSans.ttf" font-size="10.00">iDynTree/Core/Rotation.h</text>
</a>
</g>
</g>
<!-- Node19&#45;&gt;Node21 -->
<g id="edge27" class="edge">
<title>Node19&#45;&gt;Node21</title>
<path fill="none" stroke="midnightblue" d="M608.25,-347.44C645.02,-338.12 703.95,-323.18 744.12,-313"/>
<polygon fill="midnightblue" stroke="midnightblue" points="745.07,-316.37 753.91,-310.52 743.35,-309.58 745.07,-316.37"/>
</g>
<!-- Node20&#45;&gt;Node3 -->
<g id="edge26" class="edge">
<title>Node20&#45;&gt;Node3</title>
<path fill="none" stroke="midnightblue" d="M569,-229.97C563.04,-220.24 553.8,-203.66 549.5,-188 545.32,-172.81 544.21,-154.91 544.07,-141.75"/>
<polygon fill="midnightblue" stroke="midnightblue" points="547.57,-141.61 544.13,-131.59 540.57,-141.57 547.57,-141.61"/>
</g>
<!-- Node20&#45;&gt;Node4 -->
<g id="edge25" class="edge">
<title>Node20&#45;&gt;Node4</title>
<path fill="none" stroke="midnightblue" d="M647.2,-229.97C664.35,-227.98 682.57,-225.9 699.5,-224 811.8,-211.43 941.19,-197.56 1025.68,-188.59"/>
<polygon fill="midnightblue" stroke="midnightblue" points="1026.18,-192.06 1035.76,-187.52 1025.45,-185.09 1026.18,-192.06"/>
</g>
<!-- Node21&#45;&gt;Node3 -->
<g id="edge28" class="edge">
<title>Node21&#45;&gt;Node3</title>
<path fill="none" stroke="midnightblue" d="M767.97,-291.46C749.69,-283.14 721.91,-269.64 699.5,-255 681.25,-243.08 680.01,-235.5 661.5,-224 628.73,-203.64 611.13,-213.87 582.5,-188 568.14,-175.03 557.68,-155.32 551.41,-141"/>
<polygon fill="midnightblue" stroke="midnightblue" points="554.63,-139.63 547.59,-131.71 548.15,-142.29 554.63,-139.63"/>
</g>
<!-- Node21&#45;&gt;Node4 -->
<g id="edge45" class="edge">
<title>Node21&#45;&gt;Node4</title>
<path fill="none" stroke="midnightblue" d="M804.42,-291.37C834.47,-276.29 899.35,-244.76 956.5,-224 994.19,-210.31 1038.11,-198.22 1070.38,-190.03"/>
<polygon fill="midnightblue" stroke="midnightblue" points="1071.58,-193.34 1080.43,-187.51 1069.88,-186.55 1071.58,-193.34"/>
</g>
<!-- Node22 -->
<g id="node22" class="node">
<title>Node22</title>
<g id="a_node22"><a xlink:href="GeomVector3_8h.html" target="_top" xlink:title=" ">
<polygon fill="none" stroke="black" points="999,-230 999,-249 1162,-249 1162,-230 999,-230"/>
<text text-anchor="middle" x="1080.5" y="-237" font-family="FreeSans.ttf" font-size="10.00">iDynTree/Core/GeomVector3.h</text>
</a>
</g>
</g>
<!-- Node21&#45;&gt;Node22 -->
<g id="edge29" class="edge">
<title>Node21&#45;&gt;Node22</title>
<path fill="none" stroke="midnightblue" d="M829.48,-291.48C882.02,-280.8 972,-262.53 1028.75,-251.01"/>
<polygon fill="midnightblue" stroke="midnightblue" points="1029.49,-254.43 1038.6,-249.01 1028.1,-247.57 1029.49,-254.43"/>
</g>
<!-- Node23 -->
<g id="node23" class="node">
<title>Node23</title>
<g id="a_node23"><a xlink:href="RotationRaw_8h.html" target="_top" xlink:title=" ">
<polygon fill="none" stroke="black" points="708.5,-230 708.5,-249 866.5,-249 866.5,-230 708.5,-230"/>
<text text-anchor="middle" x="787.5" y="-237" font-family="FreeSans.ttf" font-size="10.00">iDynTree/Core/RotationRaw.h</text>
</a>
</g>
</g>
<!-- Node21&#45;&gt;Node23 -->
<g id="edge31" class="edge">
<title>Node21&#45;&gt;Node23</title>
<path fill="none" stroke="midnightblue" d="M787.5,-291.48C787.5,-283.08 787.5,-269.98 787.5,-259.16"/>
<polygon fill="midnightblue" stroke="midnightblue" points="791,-259.01 787.5,-249.01 784,-259.01 791,-259.01"/>
</g>
<!-- Node22&#45;&gt;Node4 -->
<g id="edge30" class="edge">
<title>Node22&#45;&gt;Node4</title>
<path fill="none" stroke="midnightblue" d="M1085.66,-229.98C1090.95,-221.23 1099.34,-207.37 1106.03,-196.31"/>
<polygon fill="midnightblue" stroke="midnightblue" points="1109.17,-197.88 1111.35,-187.51 1103.18,-194.25 1109.17,-197.88"/>
</g>
<!-- Node23&#45;&gt;Node3 -->
<g id="edge44" class="edge">
<title>Node23&#45;&gt;Node3</title>
<path fill="none" stroke="midnightblue" d="M787.87,-229.67C787.99,-214.68 785.89,-184.29 768.5,-168 741.16,-142.38 632.2,-130.07 576.96,-125.37"/>
<polygon fill="midnightblue" stroke="midnightblue" points="576.92,-121.86 566.67,-124.53 576.35,-128.84 576.92,-121.86"/>
</g>
<!-- Node24 -->
<g id="node24" class="node">
<title>Node24</title>
<g id="a_node24"><a xlink:href="MatrixFixSize_8h.html" target="_top" xlink:title=" ">
<polygon fill="none" stroke="black" points="854,-168.5 854,-187.5 1017,-187.5 1017,-168.5 854,-168.5"/>
<text text-anchor="middle" x="935.5" y="-175.5" font-family="FreeSans.ttf" font-size="10.00">iDynTree/Core/MatrixFixSize.h</text>
</a>
</g>
</g>
<!-- Node23&#45;&gt;Node24 -->
<g id="edge32" class="edge">
<title>Node23&#45;&gt;Node24</title>
<path fill="none" stroke="midnightblue" d="M808.7,-229.98C833.87,-219.86 876.04,-202.9 904.78,-191.35"/>
<polygon fill="midnightblue" stroke="midnightblue" points="906.36,-194.49 914.33,-187.51 903.75,-187.99 906.36,-194.49"/>
</g>
<!-- Node24&#45;&gt;Node3 -->
<g id="edge41" class="edge">
<title>Node24&#45;&gt;Node3</title>
<path fill="none" stroke="midnightblue" d="M873.54,-168.44C789.3,-156.81 641.69,-136.42 576.73,-127.45"/>
<polygon fill="midnightblue" stroke="midnightblue" points="577.06,-123.96 566.67,-126.06 576.1,-130.9 577.06,-123.96"/>
</g>
<!-- Node24&#45;&gt;Node5 -->
<g id="edge33" class="edge">
<title>Node24&#45;&gt;Node5</title>
<path fill="none" stroke="midnightblue" d="M940.55,-168.24C949.23,-154.03 968.41,-126.1 992.5,-112 1036.08,-86.49 1092.18,-75.35 1135.87,-70.53"/>
<polygon fill="midnightblue" stroke="midnightblue" points="1136.24,-74.01 1145.84,-69.52 1135.53,-67.05 1136.24,-74.01"/>
</g>
<!-- Node24&#45;&gt;Node9 -->
<g id="edge39" class="edge">
<title>Node24&#45;&gt;Node9</title>
<path fill="none" stroke="midnightblue" d="M935.72,-168.08C936.34,-141.95 938.19,-65.21 939.05,-29.58"/>
<polygon fill="midnightblue" stroke="midnightblue" points="942.55,-29.65 939.29,-19.57 935.55,-29.48 942.55,-29.65"/>
</g>
<!-- Node24&#45;&gt;Node17 -->
<g id="edge43" class="edge">
<title>Node24&#45;&gt;Node17</title>
<path fill="none" stroke="midnightblue" d="M979.23,-168.44C1032.7,-157.98 1122.34,-140.45 1173.2,-130.49"/>
<polygon fill="midnightblue" stroke="midnightblue" points="1174,-133.9 1183.14,-128.55 1172.65,-127.03 1174,-133.9"/>
</g>
<!-- Node24&#45;&gt;Node18 -->
<g id="edge40" class="edge">
<title>Node24&#45;&gt;Node18</title>
<path fill="none" stroke="midnightblue" d="M950.12,-168.32C964.45,-159.82 986.51,-146.73 1003.25,-136.8"/>
<polygon fill="midnightblue" stroke="midnightblue" points="1005.1,-139.77 1011.92,-131.65 1001.53,-133.75 1005.1,-139.77"/>
</g>
<!-- Node25 -->
<g id="node25" class="node">
<title>Node25</title>
<g id="a_node25"><a xlink:href="MatrixView_8h.html" target="_top" xlink:title=" ">
<polygon fill="none" stroke="black" points="755.5,-112.5 755.5,-131.5 907.5,-131.5 907.5,-112.5 755.5,-112.5"/>
<text text-anchor="middle" x="831.5" y="-119.5" font-family="FreeSans.ttf" font-size="10.00">iDynTree/Core/MatrixView.h</text>
</a>
</g>
</g>
<!-- Node24&#45;&gt;Node25 -->
<g id="edge34" class="edge">
<title>Node24&#45;&gt;Node25</title>
<path fill="none" stroke="midnightblue" d="M918.79,-168.32C902.19,-159.7 876.5,-146.36 857.28,-136.39"/>
<polygon fill="midnightblue" stroke="midnightblue" points="858.66,-133.16 848.17,-131.65 855.43,-139.37 858.66,-133.16"/>
</g>
<!-- Node26 -->
<g id="node26" class="node">
<title>Node26</title>
<g id="a_node26"><a xlink:title=" ">
<polygon fill="none" stroke="#bfbfbf" points="1336.5,-112.5 1336.5,-131.5 1396.5,-131.5 1396.5,-112.5 1336.5,-112.5"/>
<text text-anchor="middle" x="1366.5" y="-119.5" font-family="FreeSans.ttf" font-size="10.00">iostream</text>
</a>
</g>
</g>
<!-- Node24&#45;&gt;Node26 -->
<g id="edge42" class="edge">
<title>Node24&#45;&gt;Node26</title>
<path fill="none" stroke="midnightblue" d="M1003.79,-168.44C1094.63,-157.06 1252.3,-137.31 1326.16,-128.05"/>
<polygon fill="midnightblue" stroke="midnightblue" points="1326.94,-131.48 1336.43,-126.77 1326.07,-124.54 1326.94,-131.48"/>
</g>
<!-- Node25&#45;&gt;Node5 -->
<g id="edge38" class="edge">
<title>Node25&#45;&gt;Node5</title>
<path fill="none" stroke="midnightblue" d="M890.76,-112.44C957.51,-102.81 1065.85,-87.16 1136.39,-76.98"/>
<polygon fill="midnightblue" stroke="midnightblue" points="1137.12,-80.41 1146.52,-75.52 1136.12,-73.48 1137.12,-80.41"/>
</g>
<!-- Node25&#45;&gt;Node8 -->
<g id="edge37" class="edge">
<title>Node25&#45;&gt;Node8</title>
<path fill="none" stroke="midnightblue" d="M813.28,-112.44C794.6,-103.68 765.34,-89.94 743.88,-79.86"/>
<polygon fill="midnightblue" stroke="midnightblue" points="745.18,-76.6 734.64,-75.52 742.2,-82.93 745.18,-76.6"/>
</g>
<!-- Node25&#45;&gt;Node9 -->
<g id="edge35" class="edge">
<title>Node25&#45;&gt;Node9</title>
<path fill="none" stroke="midnightblue" d="M839.97,-112.37C858.11,-93.89 900.92,-50.29 924.04,-26.74"/>
<polygon fill="midnightblue" stroke="midnightblue" points="926.56,-29.18 931.06,-19.59 921.56,-24.28 926.56,-29.18"/>
</g>
<!-- Node25&#45;&gt;Node15 -->
<g id="edge36" class="edge">
<title>Node25&#45;&gt;Node15</title>
<path fill="none" stroke="midnightblue" d="M833.78,-112.37C838.48,-94.54 849.35,-53.3 855.68,-29.27"/>
<polygon fill="midnightblue" stroke="midnightblue" points="859.07,-30.15 858.23,-19.59 852.3,-28.37 859.07,-30.15"/>
</g>
<!-- Node27&#45;&gt;Node3 -->
<g id="edge48" class="edge">
<title>Node27&#45;&gt;Node3</title>
<path fill="none" stroke="midnightblue" d="M654.74,-168.44C633.18,-159.56 599.24,-145.56 574.71,-135.45"/>
<polygon fill="midnightblue" stroke="midnightblue" points="575.74,-132.09 565.16,-131.52 573.07,-138.56 575.74,-132.09"/>
</g>
<!-- Node27&#45;&gt;Node25 -->
<g id="edge49" class="edge">
<title>Node27&#45;&gt;Node25</title>
<path fill="none" stroke="midnightblue" d="M700.22,-168.44C726.35,-159.4 767.76,-145.06 797.08,-134.92"/>
<polygon fill="midnightblue" stroke="midnightblue" points="798.59,-138.1 806.9,-131.52 796.3,-131.48 798.59,-138.1"/>
</g>
<!-- Node28&#45;&gt;Node3 -->
<g id="edge52" class="edge">
<title>Node28&#45;&gt;Node3</title>
<path fill="none" stroke="midnightblue" d="M156.29,-168.47C258.1,-156.55 438.78,-135.38 512.17,-126.79"/>
<polygon fill="midnightblue" stroke="midnightblue" points="512.67,-130.25 522.19,-125.61 511.85,-123.3 512.67,-130.25"/>
</g>
<!-- Node28&#45;&gt;Node8 -->
<g id="edge51" class="edge">
<title>Node28&#45;&gt;Node8</title>
<path fill="none" stroke="midnightblue" d="M132.64,-168.46C247.5,-148.5 533.14,-98.86 657.31,-77.29"/>
<polygon fill="midnightblue" stroke="midnightblue" points="658.13,-80.7 667.39,-75.53 656.94,-73.8 658.13,-80.7"/>
</g>
<!-- Node29&#45;&gt;Node3 -->
<g id="edge56" class="edge">
<title>Node29&#45;&gt;Node3</title>
<path fill="none" stroke="midnightblue" d="M1039.49,-526.49C958.99,-516.13 828.75,-498.92 780.5,-490 651.27,-466.1 575.75,-524.69 492.5,-423 436.46,-354.54 465.02,-309.57 487.5,-224 495.99,-191.7 517.4,-158.86 531.43,-139.73"/>
<polygon fill="midnightblue" stroke="midnightblue" points="534.41,-141.6 537.64,-131.51 528.82,-137.39 534.41,-141.6"/>
</g>
<!-- Node29&#45;&gt;Node6 -->
<g id="edge55" class="edge">
<title>Node29&#45;&gt;Node6</title>
<path fill="none" stroke="midnightblue" d="M1159.35,-526.46C1278.85,-506.42 1559.5,-455.01 1559.5,-414 1559.5,-414 1559.5,-414 1559.5,-121 1559.5,-118.41 1261.35,-45.55 1155.91,-19.86"/>
<polygon fill="midnightblue" stroke="midnightblue" points="1156.58,-16.42 1146.03,-17.45 1154.92,-23.22 1156.58,-16.42"/>
</g>
<!-- Node30 -->
<g id="node30" class="node">
<title>Node30</title>
<g id="a_node30"><a xlink:title=" ">
<polygon fill="none" stroke="#bfbfbf" points="1130,-465 1130,-484 1217,-484 1217,-465 1130,-465"/>
<text text-anchor="middle" x="1173.5" y="-472" font-family="FreeSans.ttf" font-size="10.00">ModelExport.h</text>
</a>
</g>
</g>
<!-- Node29&#45;&gt;Node30 -->
<g id="edge57" class="edge">
<title>Node29&#45;&gt;Node30</title>
<path fill="none" stroke="midnightblue" d="M1116.1,-526.48C1126.55,-517.2 1143.47,-502.17 1156.24,-490.83"/>
<polygon fill="midnightblue" stroke="midnightblue" points="1158.77,-493.27 1163.92,-484.01 1154.12,-488.03 1158.77,-493.27"/>
</g>
<!-- Node31&#45;&gt;Node29 -->
<g id="edge85" class="edge">
<title>Node31&#45;&gt;Node29</title>
<path fill="none" stroke="midnightblue" d="M885.17,-582.44C931.25,-572.98 1005.5,-557.74 1055.13,-547.55"/>
<polygon fill="midnightblue" stroke="midnightblue" points="1055.93,-550.96 1065.02,-545.52 1054.52,-544.1 1055.93,-550.96"/>
</g>
<!-- Node32 -->
<g id="node32" class="node">
<title>Node32</title>
<g id="a_node32"><a xlink:href="Transform_8h.html" target="_top" xlink:title=" ">
<polygon fill="none" stroke="black" points="501.5,-403.5 501.5,-422.5 647.5,-422.5 647.5,-403.5 501.5,-403.5"/>
<text text-anchor="middle" x="574.5" y="-410.5" font-family="FreeSans.ttf" font-size="10.00">iDynTree/Core/Transform.h</text>
</a>
</g>
</g>
<!-- Node31&#45;&gt;Node32 -->
<g id="edge59" class="edge">
<title>Node31&#45;&gt;Node32</title>
<path fill="none" stroke="midnightblue" d="M768.35,-589.21C696.2,-585.72 594.58,-575.53 569.5,-546 542.25,-513.91 556.65,-459.98 566.98,-432.02"/>
<polygon fill="midnightblue" stroke="midnightblue" points="570.25,-433.27 570.64,-422.68 563.73,-430.71 570.25,-433.27"/>
</g>
<!-- Node33 -->
<g id="node33" class="node">
<title>Node33</title>
<g id="a_node33"><a xlink:href="Twist_8h.html" target="_top" xlink:title=" ">
<polygon fill="none" stroke="black" points="744.5,-526.5 744.5,-545.5 866.5,-545.5 866.5,-526.5 744.5,-526.5"/>
<text text-anchor="middle" x="805.5" y="-533.5" font-family="FreeSans.ttf" font-size="10.00">iDynTree/Core/Twist.h</text>
</a>
</g>
</g>
<!-- Node31&#45;&gt;Node33 -->
<g id="edge64" class="edge">
<title>Node31&#45;&gt;Node33</title>
<path fill="none" stroke="midnightblue" d="M837.23,-582.08C831.86,-574.46 823.98,-563.26 817.42,-553.94"/>
<polygon fill="midnightblue" stroke="midnightblue" points="820.28,-551.91 811.66,-545.75 814.55,-555.94 820.28,-551.91"/>
</g>
<!-- Node36 -->
<g id="node36" class="node">
<title>Node36</title>
<g id="a_node36"><a xlink:href="SpatialAcc_8h.html" target="_top" xlink:title=" ">
<polygon fill="none" stroke="black" points="578.5,-526.5 578.5,-545.5 726.5,-545.5 726.5,-526.5 578.5,-526.5"/>
<text text-anchor="middle" x="652.5" y="-533.5" font-family="FreeSans.ttf" font-size="10.00">iDynTree/Core/SpatialAcc.h</text>
</a>
</g>
</g>
<!-- Node31&#45;&gt;Node36 -->
<g id="edge75" class="edge">
<title>Node31&#45;&gt;Node36</title>
<path fill="none" stroke="midnightblue" d="M813.24,-582.44C780.54,-573.2 728.32,-558.44 692.32,-548.26"/>
<polygon fill="midnightblue" stroke="midnightblue" points="693.2,-544.87 682.62,-545.52 691.29,-551.61 693.2,-544.87"/>
</g>
<!-- Node37 -->
<g id="node37" class="node">
<title>Node37</title>
<g id="a_node37"><a xlink:href="Wrench_8h.html" target="_top" xlink:title=" ">
<polygon fill="none" stroke="black" points="884.5,-526.5 884.5,-545.5 1018.5,-545.5 1018.5,-526.5 884.5,-526.5"/>
<text text-anchor="middle" x="951.5" y="-533.5" font-family="FreeSans.ttf" font-size="10.00">iDynTree/Core/Wrench.h</text>
</a>
</g>
</g>
<!-- Node31&#45;&gt;Node37 -->
<g id="edge77" class="edge">
<title>Node31&#45;&gt;Node37</title>
<path fill="none" stroke="midnightblue" d="M860.85,-582.32C878.17,-573.66 905.02,-560.24 925,-550.25"/>
<polygon fill="midnightblue" stroke="midnightblue" points="926.81,-553.26 934.19,-545.65 923.68,-547 926.81,-553.26"/>
</g>
<!-- Node39 -->
<g id="node39" class="node">
<title>Node39</title>
<g id="a_node39"><a xlink:href="ArticulatedBodyInertia_8h.html" target="_top" xlink:title=" ">
<polygon fill="none" stroke="black" points="261,-224.5 261,-254.5 402,-254.5 402,-224.5 261,-224.5"/>
<text text-anchor="start" x="269" y="-242.5" font-family="FreeSans.ttf" font-size="10.00">iDynTree/Core/Articulated</text>
<text text-anchor="middle" x="331.5" y="-231.5" font-family="FreeSans.ttf" font-size="10.00">BodyInertia.h</text>
</a>
</g>
</g>
<!-- Node31&#45;&gt;Node39 -->
<g id="edge82" class="edge">
<title>Node31&#45;&gt;Node39</title>
<path fill="none" stroke="midnightblue" d="M768.48,-585.5C695.51,-579.06 590.67,-566.56 555.5,-546 439.27,-478.05 365.69,-323.43 340.88,-264.19"/>
<polygon fill="midnightblue" stroke="midnightblue" points="343.97,-262.52 336.93,-254.6 337.49,-265.18 343.97,-262.52"/>
</g>
<!-- Node31&#45;&gt;Node40 -->
<g id="edge86" class="edge">
<title>Node31&#45;&gt;Node40</title>
<path fill="none" stroke="midnightblue" d="M918.82,-584.01C985.93,-577.11 1086.93,-565.08 1183.83,-545.88"/>
<polygon fill="midnightblue" stroke="midnightblue" points="1184.68,-549.28 1193.8,-543.88 1183.3,-542.41 1184.68,-549.28"/>
</g>
<!-- Node32&#45;&gt;Node3 -->
<g id="edge63" class="edge">
<title>Node32&#45;&gt;Node3</title>
<path fill="none" stroke="midnightblue" d="M511.65,-403.45C431.4,-388.8 295.64,-350.57 234.5,-255 212.95,-221.31 226.11,-192.78 257.5,-168 277.31,-152.36 441.69,-133.66 512.38,-126.25"/>
<polygon fill="midnightblue" stroke="midnightblue" points="512.91,-129.71 522.5,-125.2 512.19,-122.75 512.91,-129.71"/>
</g>
<!-- Node32&#45;&gt;Node19 -->
<g id="edge60" class="edge">
<title>Node32&#45;&gt;Node19</title>
<path fill="none" stroke="midnightblue" d="M574.5,-403.08C574.5,-396.01 574.5,-385.86 574.5,-376.99"/>
<polygon fill="midnightblue" stroke="midnightblue" points="578,-376.75 574.5,-366.75 571,-376.75 578,-376.75"/>
</g>
<!-- Node32&#45;&gt;Node21 -->
<g id="edge61" class="edge">
<title>Node32&#45;&gt;Node21</title>
<path fill="none" stroke="midnightblue" d="M591.21,-403.37C628.31,-384.21 717.72,-338.04 761.91,-315.22"/>
<polygon fill="midnightblue" stroke="midnightblue" points="763.58,-318.29 770.86,-310.59 760.37,-312.07 763.58,-318.29"/>
</g>
<!-- Node32&#45;&gt;Node24 -->
<g id="edge62" class="edge">
<title>Node32&#45;&gt;Node24</title>
<path fill="none" stroke="midnightblue" d="M639.47,-403.48C703.41,-392.14 800.64,-366.6 865.5,-311 901.49,-280.15 921.77,-226.08 930.43,-197.66"/>
<polygon fill="midnightblue" stroke="midnightblue" points="933.86,-198.39 933.27,-187.82 927.13,-196.45 933.86,-198.39"/>
</g>
<!-- Node34 -->
<g id="node34" class="node">
<title>Node34</title>
<g id="a_node34"><a xlink:href="SpatialMotionVector_8h.html" target="_top" xlink:title=" ">
<polygon fill="none" stroke="black" points="790,-459.5 790,-489.5 945,-489.5 945,-459.5 790,-459.5"/>
<text text-anchor="start" x="798" y="-477.5" font-family="FreeSans.ttf" font-size="10.00">iDynTree/Core/SpatialMotion</text>
<text text-anchor="middle" x="867.5" y="-466.5" font-family="FreeSans.ttf" font-size="10.00">Vector.h</text>
</a>
</g>
</g>
<!-- Node33&#45;&gt;Node34 -->
<g id="edge65" class="edge">
<title>Node33&#45;&gt;Node34</title>
<path fill="none" stroke="midnightblue" d="M814.38,-526.48C822.47,-518.72 834.74,-506.94 845.45,-496.66"/>
<polygon fill="midnightblue" stroke="midnightblue" points="848.1,-498.97 852.89,-489.52 843.25,-493.92 848.1,-498.97"/>
</g>
<!-- Node34&#45;&gt;Node4 -->
<g id="edge66" class="edge">
<title>Node34&#45;&gt;Node4</title>
<path fill="none" stroke="midnightblue" d="M870.45,-459.36C879.93,-417.3 913.57,-291.71 989.5,-224 1008.06,-207.45 1033.11,-196.88 1056.05,-190.19"/>
<polygon fill="midnightblue" stroke="midnightblue" points="1057.01,-193.55 1065.73,-187.55 1055.16,-186.8 1057.01,-193.55"/>
</g>
<!-- Node34&#45;&gt;Node22 -->
<g id="edge67" class="edge">
<title>Node34&#45;&gt;Node22</title>
<path fill="none" stroke="midnightblue" d="M892.29,-459.38C907.4,-450.12 926.61,-437.13 941.5,-423 997.5,-369.84 1048.4,-292.54 1069.81,-258.14"/>
<polygon fill="midnightblue" stroke="midnightblue" points="1073,-259.63 1075.26,-249.27 1067.04,-255.96 1073,-259.63"/>
</g>
<!-- Node35 -->
<g id="node35" class="node">
<title>Node35</title>
<g id="a_node35"><a xlink:href="SpatialVector_8h.html" target="_top" xlink:title=" ">
<polygon fill="none" stroke="black" points="1042,-403.5 1042,-422.5 1203,-422.5 1203,-403.5 1042,-403.5"/>
<text text-anchor="middle" x="1122.5" y="-410.5" font-family="FreeSans.ttf" font-size="10.00">iDynTree/Core/SpatialVector.h</text>
</a>
</g>
</g>
<!-- Node34&#45;&gt;Node35 -->
<g id="edge68" class="edge">
<title>Node34&#45;&gt;Node35</title>
<path fill="none" stroke="midnightblue" d="M927.61,-459.47C973.04,-448.87 1034.5,-434.53 1076.16,-424.81"/>
<polygon fill="midnightblue" stroke="midnightblue" points="1077.1,-428.19 1086.04,-422.51 1075.51,-421.37 1077.1,-428.19"/>
</g>
<!-- Node35&#45;&gt;Node5 -->
<g id="edge71" class="edge">
<title>Node35&#45;&gt;Node5</title>
<path fill="none" stroke="midnightblue" d="M1203.24,-406.13C1319.83,-395.4 1521.5,-367.39 1521.5,-302 1521.5,-302 1521.5,-302 1521.5,-177 1521.5,-125.23 1368.29,-92.22 1275.23,-76.95"/>
<polygon fill="midnightblue" stroke="midnightblue" points="1275.74,-73.48 1265.31,-75.35 1274.62,-80.4 1275.74,-73.48"/>
</g>
<!-- Node35&#45;&gt;Node17 -->
<g id="edge74" class="edge">
<title>Node35&#45;&gt;Node17</title>
<path fill="none" stroke="midnightblue" d="M1162.65,-403.45C1227.46,-387.24 1353.26,-345.26 1406.5,-255 1446.31,-187.51 1317.21,-147.09 1249.8,-131.03"/>
<polygon fill="midnightblue" stroke="midnightblue" points="1250.47,-127.6 1239.94,-128.75 1248.9,-134.42 1250.47,-127.6"/>
</g>
<!-- Node35&#45;&gt;Node19 -->
<g id="edge69" class="edge">
<title>Node35&#45;&gt;Node19</title>
<path fill="none" stroke="midnightblue" d="M1041.94,-404.06C937.42,-393.76 756.27,-375.91 652.85,-365.72"/>
<polygon fill="midnightblue" stroke="midnightblue" points="653.08,-362.23 642.78,-364.73 652.39,-369.19 653.08,-362.23"/>
</g>
<!-- Node35&#45;&gt;Node21 -->
<g id="edge70" class="edge">
<title>Node35&#45;&gt;Node21</title>
<path fill="none" stroke="midnightblue" d="M1096.49,-403.46C1037.13,-383.97 891.53,-336.16 823.56,-313.84"/>
<polygon fill="midnightblue" stroke="midnightblue" points="824.32,-310.4 813.72,-310.61 822.13,-317.06 824.32,-310.4"/>
</g>
<!-- Node35&#45;&gt;Node22 -->
<g id="edge72" class="edge">
<title>Node35&#45;&gt;Node22</title>
<path fill="none" stroke="midnightblue" d="M1120.36,-403.26C1113.82,-376.54 1093.97,-295.52 1085,-258.86"/>
<polygon fill="midnightblue" stroke="midnightblue" points="1088.36,-257.9 1082.59,-249.02 1081.57,-259.56 1088.36,-257.9"/>
</g>
<!-- Node35&#45;&gt;Node26 -->
<g id="edge73" class="edge">
<title>Node35&#45;&gt;Node26</title>
<path fill="none" stroke="midnightblue" d="M1178.48,-403.48C1215.15,-396.61 1263.52,-385.06 1303.5,-367 1343.39,-348.98 1353.32,-341.71 1384.5,-311 1414.82,-281.14 1435.47,-265.12 1424.5,-224 1415.86,-191.62 1394.1,-158.83 1379.82,-139.73"/>
<polygon fill="midnightblue" stroke="midnightblue" points="1382.55,-137.54 1373.69,-131.75 1377,-141.81 1382.55,-137.54"/>
</g>
<!-- Node36&#45;&gt;Node34 -->
<g id="edge76" class="edge">
<title>Node36&#45;&gt;Node34</title>
<path fill="none" stroke="midnightblue" d="M683.3,-526.48C715.48,-517.57 766.8,-503.37 807.1,-492.22"/>
<polygon fill="midnightblue" stroke="midnightblue" points="808.12,-495.56 816.83,-489.52 806.26,-488.82 808.12,-495.56"/>
</g>
<!-- Node38 -->
<g id="node38" class="node">
<title>Node38</title>
<g id="a_node38"><a xlink:href="SpatialForceVector_8h.html" target="_top" xlink:title=" ">
<polygon fill="none" stroke="black" points="963.5,-459.5 963.5,-489.5 1111.5,-489.5 1111.5,-459.5 963.5,-459.5"/>
<text text-anchor="start" x="971.5" y="-477.5" font-family="FreeSans.ttf" font-size="10.00">iDynTree/Core/SpatialForce</text>
<text text-anchor="middle" x="1037.5" y="-466.5" font-family="FreeSans.ttf" font-size="10.00">Vector.h</text>
</a>
</g>
</g>
<!-- Node37&#45;&gt;Node38 -->
<g id="edge78" class="edge">
<title>Node37&#45;&gt;Node38</title>
<path fill="none" stroke="midnightblue" d="M963.82,-526.48C975.47,-518.42 993.38,-506.02 1008.63,-495.47"/>
<polygon fill="midnightblue" stroke="midnightblue" points="1011,-498.09 1017.23,-489.52 1007.02,-492.33 1011,-498.09"/>
</g>
<!-- Node38&#45;&gt;Node4 -->
<g id="edge79" class="edge">
<title>Node38&#45;&gt;Node4</title>
<path fill="none" stroke="midnightblue" d="M1099.12,-459.43C1146.29,-448.04 1204.44,-432.4 1211.5,-423 1226.94,-402.45 1283.91,-408.72 1170.5,-224 1162.94,-211.69 1150.83,-201.14 1139.99,-193.36"/>
<polygon fill="midnightblue" stroke="midnightblue" points="1141.92,-190.44 1131.68,-187.73 1138,-196.24 1141.92,-190.44"/>
</g>
<!-- Node38&#45;&gt;Node22 -->
<g id="edge80" class="edge">
<title>Node38&#45;&gt;Node22</title>
<path fill="none" stroke="midnightblue" d="M1034.73,-459.39C1032.35,-445.11 1029.69,-422.43 1032.5,-403 1040.3,-349.07 1061.95,-288.1 1073.31,-258.52"/>
<polygon fill="midnightblue" stroke="midnightblue" points="1076.61,-259.7 1076.99,-249.11 1070.09,-257.15 1076.61,-259.7"/>
</g>
<!-- Node38&#45;&gt;Node35 -->
<g id="edge81" class="edge">
<title>Node38&#45;&gt;Node35</title>
<path fill="none" stroke="midnightblue" d="M1057.64,-459.4C1070.89,-450.13 1088.18,-438.03 1101.58,-428.65"/>
<polygon fill="midnightblue" stroke="midnightblue" points="1103.95,-431.26 1110.13,-422.66 1099.93,-425.53 1103.95,-431.26"/>
</g>
<!-- Node39&#45;&gt;Node3 -->
<g id="edge84" class="edge">
<title>Node39&#45;&gt;Node3</title>
<path fill="none" stroke="midnightblue" d="M345.36,-224.3C361.29,-208.67 388.81,-183.68 416.5,-168 447.08,-150.68 485.49,-138.27 512.22,-130.92"/>
<polygon fill="midnightblue" stroke="midnightblue" points="513.44,-134.22 522.2,-128.26 511.64,-127.45 513.44,-134.22"/>
</g>
<!-- Node39&#45;&gt;Node24 -->
<g id="edge83" class="edge">
<title>Node39&#45;&gt;Node24</title>
<path fill="none" stroke="midnightblue" d="M402.27,-231.53C511.8,-220.74 722.37,-199.99 843.55,-188.06"/>
<polygon fill="midnightblue" stroke="midnightblue" points="843.95,-191.54 853.56,-187.07 843.26,-184.57 843.95,-191.54"/>
</g>
</g>
</svg>
