<?xml version="1.0" encoding="UTF-8" standalone="no"?>
<!DOCTYPE svg PUBLIC "-//W3C//DTD SVG 1.1//EN"
 "http://www.w3.org/Graphics/SVG/1.1/DTD/svg11.dtd">
<!-- Generated by graphviz version 2.43.0 (0)
 -->
<!-- Title: FixedJoint.h Pages: 1 -->
<svg width="1033pt" height="476pt"
 viewBox="0.00 0.00 1033.23 476.00" xmlns="http://www.w3.org/2000/svg" xmlns:xlink="http://www.w3.org/1999/xlink">
<g id="graph0" class="graph" transform="scale(1 1) rotate(0) translate(4 472)">
<title>FixedJoint.h</title>
<!-- Node1 -->
<g id="node1" class="node">
<title>Node1</title>
<g id="a_node1"><a xlink:title=" ">
<polygon fill="#bfbfbf" stroke="black" points="802.23,-448.5 802.23,-467.5 875.23,-467.5 875.23,-448.5 802.23,-448.5"/>
<text text-anchor="middle" x="838.73" y="-455.5" font-family="FreeSans.ttf" font-size="10.00">FixedJoint.h</text>
</a>
</g>
</g>
<!-- Node2 -->
<g id="node2" class="node">
<title>Node2</title>
<g id="a_node2"><a xlink:href="Transform_8h.html" target="_top" xlink:title=" ">
<polygon fill="none" stroke="black" points="616.73,-392.5 616.73,-411.5 762.73,-411.5 762.73,-392.5 616.73,-392.5"/>
<text text-anchor="middle" x="689.73" y="-399.5" font-family="FreeSans.ttf" font-size="10.00">iDynTree/Core/Transform.h</text>
</a>
</g>
</g>
<!-- Node1&#45;&gt;Node2 -->
<g id="edge1" class="edge">
<title>Node1&#45;&gt;Node2</title>
<path fill="none" stroke="midnightblue" d="M815.12,-448.44C790.27,-439.44 750.96,-425.19 722.98,-415.05"/>
<polygon fill="midnightblue" stroke="midnightblue" points="723.83,-411.63 713.23,-411.52 721.44,-418.21 723.83,-411.63"/>
</g>
<!-- Node27 -->
<g id="node27" class="node">
<title>Node27</title>
<g id="a_node27"><a xlink:href="Indices_8h.html" target="_top" xlink:title=" ">
<polygon fill="none" stroke="black" points="862.23,-336.5 862.23,-355.5 1001.23,-355.5 1001.23,-336.5 862.23,-336.5"/>
<text text-anchor="middle" x="931.73" y="-343.5" font-family="FreeSans.ttf" font-size="10.00">iDynTree/Model/Indices.h</text>
</a>
</g>
</g>
<!-- Node1&#45;&gt;Node27 -->
<g id="edge47" class="edge">
<title>Node1&#45;&gt;Node27</title>
<path fill="none" stroke="midnightblue" d="M839.48,-448.11C841.02,-434.68 845.58,-409 858.73,-392 869.49,-378.09 885.87,-367.44 900.38,-359.99"/>
<polygon fill="midnightblue" stroke="midnightblue" points="902.08,-363.06 909.57,-355.57 899.04,-356.75 902.08,-363.06"/>
</g>
<!-- Node29 -->
<g id="node29" class="node">
<title>Node29</title>
<g id="a_node29"><a xlink:href="IJoint_8h.html" target="_top" xlink:title=" ">
<polygon fill="none" stroke="black" points="867.23,-392.5 867.23,-411.5 996.23,-411.5 996.23,-392.5 867.23,-392.5"/>
<text text-anchor="middle" x="931.73" y="-399.5" font-family="FreeSans.ttf" font-size="10.00">iDynTree/Model/IJoint.h</text>
</a>
</g>
</g>
<!-- Node1&#45;&gt;Node29 -->
<g id="edge51" class="edge">
<title>Node1&#45;&gt;Node29</title>
<path fill="none" stroke="midnightblue" d="M853.67,-448.32C868.32,-439.82 890.87,-426.73 907.97,-416.8"/>
<polygon fill="midnightblue" stroke="midnightblue" points="909.94,-419.7 916.83,-411.65 906.42,-413.65 909.94,-419.7"/>
</g>
<!-- Node3 -->
<g id="node3" class="node">
<title>Node3</title>
<g id="a_node3"><a xlink:href="Position_8h.html" target="_top" xlink:title=" ">
<polygon fill="none" stroke="black" points="621.73,-336.5 621.73,-355.5 757.73,-355.5 757.73,-336.5 621.73,-336.5"/>
<text text-anchor="middle" x="689.73" y="-343.5" font-family="FreeSans.ttf" font-size="10.00">iDynTree/Core/Position.h</text>
</a>
</g>
</g>
<!-- Node2&#45;&gt;Node3 -->
<g id="edge2" class="edge">
<title>Node2&#45;&gt;Node3</title>
<path fill="none" stroke="midnightblue" d="M689.73,-392.08C689.73,-385.01 689.73,-374.86 689.73,-365.99"/>
<polygon fill="midnightblue" stroke="midnightblue" points="693.23,-365.75 689.73,-355.75 686.23,-365.75 693.23,-365.75"/>
</g>
<!-- Node18 -->
<g id="node18" class="node">
<title>Node18</title>
<g id="a_node18"><a xlink:title=" ">
<polygon fill="none" stroke="#bfbfbf" points="661.73,-112.5 661.73,-131.5 705.73,-131.5 705.73,-112.5 661.73,-112.5"/>
<text text-anchor="middle" x="683.73" y="-119.5" font-family="FreeSans.ttf" font-size="10.00">string</text>
</a>
</g>
</g>
<!-- Node2&#45;&gt;Node18 -->
<g id="edge46" class="edge">
<title>Node2&#45;&gt;Node18</title>
<path fill="none" stroke="midnightblue" d="M720.98,-392.42C763.33,-378.66 833.73,-347.31 833.73,-291 833.73,-291 833.73,-291 833.73,-233 833.73,-174.88 759.59,-144.11 715.56,-130.96"/>
<polygon fill="midnightblue" stroke="midnightblue" points="716.44,-127.58 705.87,-128.21 714.53,-134.31 716.44,-127.58"/>
</g>
<!-- Node21 -->
<g id="node21" class="node">
<title>Node21</title>
<g id="a_node21"><a xlink:href="Rotation_8h.html" target="_top" xlink:title=" ">
<polygon fill="none" stroke="black" points="495.73,-280.5 495.73,-299.5 633.73,-299.5 633.73,-280.5 495.73,-280.5"/>
<text text-anchor="middle" x="564.73" y="-287.5" font-family="FreeSans.ttf" font-size="10.00">iDynTree/Core/Rotation.h</text>
</a>
</g>
</g>
<!-- Node2&#45;&gt;Node21 -->
<g id="edge44" class="edge">
<title>Node2&#45;&gt;Node21</title>
<path fill="none" stroke="midnightblue" d="M670.28,-392.38C653.79,-384.47 630.13,-371.62 612.73,-356 597.3,-342.14 583.68,-322.6 574.93,-308.57"/>
<polygon fill="midnightblue" stroke="midnightblue" points="577.85,-306.63 569.68,-299.88 571.85,-310.25 577.85,-306.63"/>
</g>
<!-- Node24 -->
<g id="node24" class="node">
<title>Node24</title>
<g id="a_node24"><a xlink:href="MatrixFixSize_8h.html" target="_top" xlink:title=" ">
<polygon fill="none" stroke="black" points="175.23,-168.5 175.23,-187.5 338.23,-187.5 338.23,-168.5 175.23,-168.5"/>
<text text-anchor="middle" x="256.73" y="-175.5" font-family="FreeSans.ttf" font-size="10.00">iDynTree/Core/MatrixFixSize.h</text>
</a>
</g>
</g>
<!-- Node2&#45;&gt;Node24 -->
<g id="edge45" class="edge">
<title>Node2&#45;&gt;Node24</title>
<path fill="none" stroke="midnightblue" d="M633.01,-392.49C509.95,-372.73 224.94,-319.64 168.73,-244 151.51,-220.82 185.79,-202.25 216.46,-190.98"/>
<polygon fill="midnightblue" stroke="midnightblue" points="217.93,-194.18 226.23,-187.59 215.63,-187.57 217.93,-194.18"/>
</g>
<!-- Node4 -->
<g id="node4" class="node">
<title>Node4</title>
<g id="a_node4"><a xlink:href="PositionRaw_8h.html" target="_top" xlink:title=" ">
<polygon fill="none" stroke="black" points="611.73,-224.5 611.73,-243.5 767.73,-243.5 767.73,-224.5 611.73,-224.5"/>
<text text-anchor="middle" x="689.73" y="-231.5" font-family="FreeSans.ttf" font-size="10.00">iDynTree/Core/PositionRaw.h</text>
</a>
</g>
</g>
<!-- Node3&#45;&gt;Node4 -->
<g id="edge3" class="edge">
<title>Node3&#45;&gt;Node4</title>
<path fill="none" stroke="midnightblue" d="M689.73,-336.37C689.73,-318.62 689.73,-277.67 689.73,-253.6"/>
<polygon fill="midnightblue" stroke="midnightblue" points="693.23,-253.59 689.73,-243.59 686.23,-253.59 693.23,-253.59"/>
</g>
<!-- Node3&#45;&gt;Node18 -->
<g id="edge43" class="edge">
<title>Node3&#45;&gt;Node18</title>
<path fill="none" stroke="midnightblue" d="M704.42,-336.25C733.75,-317.54 795.26,-271.48 776.73,-224 762.21,-186.79 726.84,-155.01 704.15,-137.5"/>
<polygon fill="midnightblue" stroke="midnightblue" points="706.25,-134.7 696.14,-131.51 702.05,-140.3 706.25,-134.7"/>
</g>
<!-- Node3&#45;&gt;Node21 -->
<g id="edge24" class="edge">
<title>Node3&#45;&gt;Node21</title>
<path fill="none" stroke="midnightblue" d="M669.93,-336.44C649.45,-327.6 617.25,-313.69 593.87,-303.59"/>
<polygon fill="midnightblue" stroke="midnightblue" points="595.01,-300.27 584.45,-299.52 592.24,-306.7 595.01,-300.27"/>
</g>
<!-- Node5 -->
<g id="node5" class="node">
<title>Node5</title>
<g id="a_node5"><a xlink:href="VectorFixSize_8h.html" target="_top" xlink:title=" ">
<polygon fill="none" stroke="black" points="358.73,-168.5 358.73,-187.5 520.73,-187.5 520.73,-168.5 358.73,-168.5"/>
<text text-anchor="middle" x="439.73" y="-175.5" font-family="FreeSans.ttf" font-size="10.00">iDynTree/Core/VectorFixSize.h</text>
</a>
</g>
</g>
<!-- Node4&#45;&gt;Node5 -->
<g id="edge4" class="edge">
<title>Node4&#45;&gt;Node5</title>
<path fill="none" stroke="midnightblue" d="M650.12,-224.44C606.51,-215.02 536.33,-199.87 489.15,-189.68"/>
<polygon fill="midnightblue" stroke="midnightblue" points="489.67,-186.21 479.16,-187.52 488.2,-193.05 489.67,-186.21"/>
</g>
<!-- Node4&#45;&gt;Node18 -->
<g id="edge23" class="edge">
<title>Node4&#45;&gt;Node18</title>
<path fill="none" stroke="midnightblue" d="M689.26,-224.37C688.29,-206.62 686.06,-165.67 684.75,-141.6"/>
<polygon fill="midnightblue" stroke="midnightblue" points="688.24,-141.39 684.2,-131.59 681.25,-141.77 688.24,-141.39"/>
</g>
<!-- Node6 -->
<g id="node6" class="node">
<title>Node6</title>
<g id="a_node6"><a xlink:href="Utils_8h.html" target="_top" xlink:title=" ">
<polygon fill="none" stroke="black" points="474.23,-56.5 474.23,-75.5 593.23,-75.5 593.23,-56.5 474.23,-56.5"/>
<text text-anchor="middle" x="533.73" y="-63.5" font-family="FreeSans.ttf" font-size="10.00">iDynTree/Core/Utils.h</text>
</a>
</g>
</g>
<!-- Node5&#45;&gt;Node6 -->
<g id="edge5" class="edge">
<title>Node5&#45;&gt;Node6</title>
<path fill="none" stroke="midnightblue" d="M459.76,-168.48C475.33,-160.94 496.43,-148.56 509.73,-132 520.55,-118.53 526.78,-99.72 530.17,-85.8"/>
<polygon fill="midnightblue" stroke="midnightblue" points="533.62,-86.39 532.31,-75.87 526.78,-84.91 533.62,-86.39"/>
</g>
<!-- Node7 -->
<g id="node7" class="node">
<title>Node7</title>
<g id="a_node7"><a xlink:title=" ">
<polygon fill="none" stroke="#bfbfbf" points="698.23,-0.5 698.23,-19.5 751.23,-19.5 751.23,-0.5 698.23,-0.5"/>
<text text-anchor="middle" x="724.73" y="-7.5" font-family="FreeSans.ttf" font-size="10.00">cstddef</text>
</a>
</g>
</g>
<!-- Node5&#45;&gt;Node7 -->
<g id="edge21" class="edge">
<title>Node5&#45;&gt;Node7</title>
<path fill="none" stroke="midnightblue" d="M457.7,-168.47C475.84,-159.73 504.56,-145.54 528.73,-132 593.43,-95.76 667.23,-48.54 703.01,-25.25"/>
<polygon fill="midnightblue" stroke="midnightblue" points="705.19,-28.01 711.66,-19.61 701.37,-22.15 705.19,-28.01"/>
</g>
<!-- Node9 -->
<g id="node9" class="node">
<title>Node9</title>
<g id="a_node9"><a xlink:href="Span_8h.html" target="_top" xlink:title=" ">
<polygon fill="none" stroke="black" points="282.23,-56.5 282.23,-75.5 403.23,-75.5 403.23,-56.5 282.23,-56.5"/>
<text text-anchor="middle" x="342.73" y="-63.5" font-family="FreeSans.ttf" font-size="10.00">iDynTree/Core/Span.h</text>
</a>
</g>
</g>
<!-- Node5&#45;&gt;Node9 -->
<g id="edge8" class="edge">
<title>Node5&#45;&gt;Node9</title>
<path fill="none" stroke="midnightblue" d="M450.93,-168.45C466.28,-155.67 490.45,-131.08 476.73,-112 462,-91.51 437.48,-80.22 413.42,-74.05"/>
<polygon fill="midnightblue" stroke="midnightblue" points="414.05,-70.6 403.52,-71.78 412.49,-77.42 414.05,-70.6"/>
</g>
<!-- Node10 -->
<g id="node10" class="node">
<title>Node10</title>
<g id="a_node10"><a xlink:title=" ">
<polygon fill="none" stroke="#bfbfbf" points="18.73,-0.5 18.73,-19.5 70.73,-19.5 70.73,-0.5 18.73,-0.5"/>
<text text-anchor="middle" x="44.73" y="-7.5" font-family="FreeSans.ttf" font-size="10.00">cassert</text>
</a>
</g>
</g>
<!-- Node5&#45;&gt;Node10 -->
<g id="edge20" class="edge">
<title>Node5&#45;&gt;Node10</title>
<path fill="none" stroke="midnightblue" d="M358.43,-168.75C272.3,-159.46 146.08,-144.1 126.73,-132 87.42,-107.41 62.45,-56.27 51.38,-29.01"/>
<polygon fill="midnightblue" stroke="midnightblue" points="54.58,-27.6 47.7,-19.54 48.05,-30.13 54.58,-27.6"/>
</g>
<!-- Node5&#45;&gt;Node18 -->
<g id="edge18" class="edge">
<title>Node5&#45;&gt;Node18</title>
<path fill="none" stroke="midnightblue" d="M478.39,-168.44C526.29,-157.84 607.01,-139.98 651.64,-130.1"/>
<polygon fill="midnightblue" stroke="midnightblue" points="652.64,-133.47 661.65,-127.89 651.13,-126.63 652.64,-133.47"/>
</g>
<!-- Node19 -->
<g id="node19" class="node">
<title>Node19</title>
<g id="a_node19"><a xlink:title=" ">
<polygon fill="none" stroke="#bfbfbf" points="411.73,-112.5 411.73,-131.5 467.73,-131.5 467.73,-112.5 411.73,-112.5"/>
<text text-anchor="middle" x="439.73" y="-119.5" font-family="FreeSans.ttf" font-size="10.00">sstream</text>
</a>
</g>
</g>
<!-- Node5&#45;&gt;Node19 -->
<g id="edge19" class="edge">
<title>Node5&#45;&gt;Node19</title>
<path fill="none" stroke="midnightblue" d="M439.73,-168.08C439.73,-161.01 439.73,-150.86 439.73,-141.99"/>
<polygon fill="midnightblue" stroke="midnightblue" points="443.23,-141.75 439.73,-131.75 436.23,-141.75 443.23,-141.75"/>
</g>
<!-- Node20 -->
<g id="node20" class="node">
<title>Node20</title>
<g id="a_node20"><a xlink:title=" ">
<polygon fill="none" stroke="#bfbfbf" points="343.73,-112.5 343.73,-131.5 393.73,-131.5 393.73,-112.5 343.73,-112.5"/>
<text text-anchor="middle" x="368.73" y="-119.5" font-family="FreeSans.ttf" font-size="10.00">cstring</text>
</a>
</g>
</g>
<!-- Node5&#45;&gt;Node20 -->
<g id="edge22" class="edge">
<title>Node5&#45;&gt;Node20</title>
<path fill="none" stroke="midnightblue" d="M428.32,-168.32C417.62,-160.18 401.39,-147.84 388.57,-138.09"/>
<polygon fill="midnightblue" stroke="midnightblue" points="390.43,-135.1 380.35,-131.83 386.19,-140.67 390.43,-135.1"/>
</g>
<!-- Node6&#45;&gt;Node7 -->
<g id="edge6" class="edge">
<title>Node6&#45;&gt;Node7</title>
<path fill="none" stroke="midnightblue" d="M564,-56.44C597.75,-46.9 652.31,-31.47 688.36,-21.28"/>
<polygon fill="midnightblue" stroke="midnightblue" points="689.33,-24.65 698,-18.56 687.42,-17.91 689.33,-24.65"/>
</g>
<!-- Node8 -->
<g id="node8" class="node">
<title>Node8</title>
<g id="a_node8"><a xlink:title=" ">
<polygon fill="none" stroke="#bfbfbf" points="599.73,-0.5 599.73,-19.5 679.73,-19.5 679.73,-0.5 599.73,-0.5"/>
<text text-anchor="middle" x="639.73" y="-7.5" font-family="FreeSans.ttf" font-size="10.00">CoreExport.h</text>
</a>
</g>
</g>
<!-- Node6&#45;&gt;Node8 -->
<g id="edge7" class="edge">
<title>Node6&#45;&gt;Node8</title>
<path fill="none" stroke="midnightblue" d="M550.76,-56.32C567.76,-47.66 594.11,-34.24 613.72,-24.25"/>
<polygon fill="midnightblue" stroke="midnightblue" points="615.42,-27.31 622.74,-19.65 612.24,-21.08 615.42,-27.31"/>
</g>
<!-- Node9&#45;&gt;Node7 -->
<g id="edge12" class="edge">
<title>Node9&#45;&gt;Node7</title>
<path fill="none" stroke="midnightblue" d="M403.38,-59.26C470.63,-52.41 582.46,-39.6 688.19,-19.9"/>
<polygon fill="midnightblue" stroke="midnightblue" points="688.89,-23.32 698.07,-18.03 687.6,-16.45 688.89,-23.32"/>
</g>
<!-- Node9&#45;&gt;Node10 -->
<g id="edge9" class="edge">
<title>Node9&#45;&gt;Node10</title>
<path fill="none" stroke="midnightblue" d="M284.75,-56.48C233.58,-48.65 156.78,-36.12 81.22,-20.18"/>
<polygon fill="midnightblue" stroke="midnightblue" points="81.56,-16.68 71.05,-18.01 80.1,-23.52 81.56,-16.68"/>
</g>
<!-- Node11 -->
<g id="node11" class="node">
<title>Node11</title>
<g id="a_node11"><a xlink:title=" ">
<polygon fill="none" stroke="#bfbfbf" points="239.73,-0.5 239.73,-19.5 303.73,-19.5 303.73,-0.5 239.73,-0.5"/>
<text text-anchor="middle" x="271.73" y="-7.5" font-family="FreeSans.ttf" font-size="10.00">algorithm</text>
</a>
</g>
</g>
<!-- Node9&#45;&gt;Node11 -->
<g id="edge10" class="edge">
<title>Node9&#45;&gt;Node11</title>
<path fill="none" stroke="midnightblue" d="M331.32,-56.32C320.62,-48.18 304.39,-35.84 291.57,-26.09"/>
<polygon fill="midnightblue" stroke="midnightblue" points="293.43,-23.1 283.35,-19.83 289.19,-28.67 293.43,-23.1"/>
</g>
<!-- Node12 -->
<g id="node12" class="node">
<title>Node12</title>
<g id="a_node12"><a xlink:title=" ">
<polygon fill="none" stroke="#bfbfbf" points="321.73,-0.5 321.73,-19.5 363.73,-19.5 363.73,-0.5 321.73,-0.5"/>
<text text-anchor="middle" x="342.73" y="-7.5" font-family="FreeSans.ttf" font-size="10.00">array</text>
</a>
</g>
</g>
<!-- Node9&#45;&gt;Node12 -->
<g id="edge11" class="edge">
<title>Node9&#45;&gt;Node12</title>
<path fill="none" stroke="midnightblue" d="M342.73,-56.08C342.73,-49.01 342.73,-38.86 342.73,-29.99"/>
<polygon fill="midnightblue" stroke="midnightblue" points="346.23,-29.75 342.73,-19.75 339.23,-29.75 346.23,-29.75"/>
</g>
<!-- Node13 -->
<g id="node13" class="node">
<title>Node13</title>
<g id="a_node13"><a xlink:title=" ">
<polygon fill="none" stroke="#bfbfbf" points="382.23,-0.5 382.23,-19.5 435.23,-19.5 435.23,-0.5 382.23,-0.5"/>
<text text-anchor="middle" x="408.73" y="-7.5" font-family="FreeSans.ttf" font-size="10.00">iterator</text>
</a>
</g>
</g>
<!-- Node9&#45;&gt;Node13 -->
<g id="edge13" class="edge">
<title>Node9&#45;&gt;Node13</title>
<path fill="none" stroke="midnightblue" d="M353.34,-56.32C363.19,-48.26 378.08,-36.08 389.95,-26.37"/>
<polygon fill="midnightblue" stroke="midnightblue" points="392.41,-28.88 397.94,-19.83 387.98,-23.46 392.41,-28.88"/>
</g>
<!-- Node14 -->
<g id="node14" class="node">
<title>Node14</title>
<g id="a_node14"><a xlink:title=" ">
<polygon fill="none" stroke="#bfbfbf" points="453.73,-0.5 453.73,-19.5 497.73,-19.5 497.73,-0.5 453.73,-0.5"/>
<text text-anchor="middle" x="475.73" y="-7.5" font-family="FreeSans.ttf" font-size="10.00">limits</text>
</a>
</g>
</g>
<!-- Node9&#45;&gt;Node14 -->
<g id="edge14" class="edge">
<title>Node9&#45;&gt;Node14</title>
<path fill="none" stroke="midnightblue" d="M363.81,-56.44C385.79,-47.52 420.47,-33.44 445.4,-23.32"/>
<polygon fill="midnightblue" stroke="midnightblue" points="446.81,-26.52 454.76,-19.52 444.17,-20.04 446.81,-26.52"/>
</g>
<!-- Node15 -->
<g id="node15" class="node">
<title>Node15</title>
<g id="a_node15"><a xlink:title=" ">
<polygon fill="none" stroke="#bfbfbf" points="516.23,-0.5 516.23,-19.5 581.23,-19.5 581.23,-0.5 516.23,-0.5"/>
<text text-anchor="middle" x="548.73" y="-7.5" font-family="FreeSans.ttf" font-size="10.00">stdexcept</text>
</a>
</g>
</g>
<!-- Node9&#45;&gt;Node15 -->
<g id="edge15" class="edge">
<title>Node9&#45;&gt;Node15</title>
<path fill="none" stroke="midnightblue" d="M375.37,-56.44C410.78,-47.16 467.44,-32.31 506.28,-22.13"/>
<polygon fill="midnightblue" stroke="midnightblue" points="507.46,-25.44 516.24,-19.52 505.68,-18.67 507.46,-25.44"/>
</g>
<!-- Node16 -->
<g id="node16" class="node">
<title>Node16</title>
<g id="a_node16"><a xlink:title=" ">
<polygon fill="none" stroke="#bfbfbf" points="89.23,-0.5 89.23,-19.5 158.23,-19.5 158.23,-0.5 89.23,-0.5"/>
<text text-anchor="middle" x="123.73" y="-7.5" font-family="FreeSans.ttf" font-size="10.00">type_traits</text>
</a>
</g>
</g>
<!-- Node9&#45;&gt;Node16 -->
<g id="edge16" class="edge">
<title>Node9&#45;&gt;Node16</title>
<path fill="none" stroke="midnightblue" d="M308.03,-56.44C270.15,-47.1 209.38,-32.12 168.07,-21.93"/>
<polygon fill="midnightblue" stroke="midnightblue" points="168.82,-18.51 158.27,-19.52 167.14,-25.31 168.82,-18.51"/>
</g>
<!-- Node17 -->
<g id="node17" class="node">
<title>Node17</title>
<g id="a_node17"><a xlink:title=" ">
<polygon fill="none" stroke="#bfbfbf" points="176.23,-0.5 176.23,-19.5 221.23,-19.5 221.23,-0.5 176.23,-0.5"/>
<text text-anchor="middle" x="198.73" y="-7.5" font-family="FreeSans.ttf" font-size="10.00">utility</text>
</a>
</g>
</g>
<!-- Node9&#45;&gt;Node17 -->
<g id="edge17" class="edge">
<title>Node9&#45;&gt;Node17</title>
<path fill="none" stroke="midnightblue" d="M319.91,-56.44C295.9,-47.44 257.9,-33.19 230.86,-23.05"/>
<polygon fill="midnightblue" stroke="midnightblue" points="232.03,-19.75 221.44,-19.52 229.58,-26.3 232.03,-19.75"/>
</g>
<!-- Node21&#45;&gt;Node5 -->
<g id="edge42" class="edge">
<title>Node21&#45;&gt;Node5</title>
<path fill="none" stroke="midnightblue" d="M561.54,-280.4C556.17,-266.9 544.17,-240.56 526.73,-224 511.89,-209.9 491.77,-199.12 474.62,-191.64"/>
<polygon fill="midnightblue" stroke="midnightblue" points="475.5,-188.22 464.92,-187.62 472.82,-194.68 475.5,-188.22"/>
</g>
<!-- Node21&#45;&gt;Node18 -->
<g id="edge25" class="edge">
<title>Node21&#45;&gt;Node18</title>
<path fill="none" stroke="midnightblue" d="M569.27,-280.34C576.03,-267.65 589.4,-243.39 602.73,-224 624.26,-192.7 652.66,-158.71 669.48,-139.22"/>
<polygon fill="midnightblue" stroke="midnightblue" points="672.21,-141.42 676.13,-131.58 666.93,-136.83 672.21,-141.42"/>
</g>
<!-- Node22 -->
<g id="node22" class="node">
<title>Node22</title>
<g id="a_node22"><a xlink:href="GeomVector3_8h.html" target="_top" xlink:title=" ">
<polygon fill="none" stroke="black" points="354.23,-224.5 354.23,-243.5 517.23,-243.5 517.23,-224.5 354.23,-224.5"/>
<text text-anchor="middle" x="435.73" y="-231.5" font-family="FreeSans.ttf" font-size="10.00">iDynTree/Core/GeomVector3.h</text>
</a>
</g>
</g>
<!-- Node21&#45;&gt;Node22 -->
<g id="edge26" class="edge">
<title>Node21&#45;&gt;Node22</title>
<path fill="none" stroke="midnightblue" d="M544.29,-280.44C523.06,-271.56 489.63,-257.56 465.48,-247.45"/>
<polygon fill="midnightblue" stroke="midnightblue" points="466.65,-244.15 456.08,-243.52 463.95,-250.61 466.65,-244.15"/>
</g>
<!-- Node23 -->
<g id="node23" class="node">
<title>Node23</title>
<g id="a_node23"><a xlink:href="RotationRaw_8h.html" target="_top" xlink:title=" ">
<polygon fill="none" stroke="black" points="177.73,-224.5 177.73,-243.5 335.73,-243.5 335.73,-224.5 177.73,-224.5"/>
<text text-anchor="middle" x="256.73" y="-231.5" font-family="FreeSans.ttf" font-size="10.00">iDynTree/Core/RotationRaw.h</text>
</a>
</g>
</g>
<!-- Node21&#45;&gt;Node23 -->
<g id="edge28" class="edge">
<title>Node21&#45;&gt;Node23</title>
<path fill="none" stroke="midnightblue" d="M515.93,-280.44C461.52,-270.9 373.56,-255.48 315.44,-245.29"/>
<polygon fill="midnightblue" stroke="midnightblue" points="315.76,-241.8 305.31,-243.52 314.55,-248.69 315.76,-241.8"/>
</g>
<!-- Node22&#45;&gt;Node5 -->
<g id="edge27" class="edge">
<title>Node22&#45;&gt;Node5</title>
<path fill="none" stroke="midnightblue" d="M436.39,-224.08C436.92,-217.01 437.67,-206.86 438.33,-197.99"/>
<polygon fill="midnightblue" stroke="midnightblue" points="441.84,-197.98 439.08,-187.75 434.85,-197.47 441.84,-197.98"/>
</g>
<!-- Node23&#45;&gt;Node18 -->
<g id="edge41" class="edge">
<title>Node23&#45;&gt;Node18</title>
<path fill="none" stroke="midnightblue" d="M320.72,-224.5C388.78,-215.1 491.75,-199.72 529.73,-188 549.87,-181.78 553.4,-176.41 572.73,-168 599.31,-156.44 629.85,-144.13 652.16,-135.31"/>
<polygon fill="midnightblue" stroke="midnightblue" points="653.46,-138.56 661.48,-131.64 650.9,-132.05 653.46,-138.56"/>
</g>
<!-- Node23&#45;&gt;Node24 -->
<g id="edge29" class="edge">
<title>Node23&#45;&gt;Node24</title>
<path fill="none" stroke="midnightblue" d="M256.73,-224.08C256.73,-217.01 256.73,-206.86 256.73,-197.99"/>
<polygon fill="midnightblue" stroke="midnightblue" points="260.23,-197.75 256.73,-187.75 253.23,-197.75 260.23,-197.75"/>
</g>
<!-- Node24&#45;&gt;Node6 -->
<g id="edge30" class="edge">
<title>Node24&#45;&gt;Node6</title>
<path fill="none" stroke="midnightblue" d="M264.44,-168.33C277.48,-154.25 305.33,-126.51 334.73,-112 375.05,-92.1 424.32,-80.87 463.75,-74.6"/>
<polygon fill="midnightblue" stroke="midnightblue" points="464.44,-78.04 473.81,-73.08 463.39,-71.12 464.44,-78.04"/>
</g>
<!-- Node24&#45;&gt;Node10 -->
<g id="edge36" class="edge">
<title>Node24&#45;&gt;Node10</title>
<path fill="none" stroke="midnightblue" d="M175.22,-173.06C111.92,-168.09 31.51,-156.93 10.73,-132 -14.65,-101.55 13.12,-53.37 31.38,-27.97"/>
<polygon fill="midnightblue" stroke="midnightblue" points="34.37,-29.82 37.57,-19.72 28.77,-25.62 34.37,-29.82"/>
</g>
<!-- Node24&#45;&gt;Node18 -->
<g id="edge38" class="edge">
<title>Node24&#45;&gt;Node18</title>
<path fill="none" stroke="midnightblue" d="M324.39,-168.44C417.47,-156.67 581.4,-135.94 651,-127.14"/>
<polygon fill="midnightblue" stroke="midnightblue" points="651.86,-130.56 661.34,-125.83 650.98,-123.61 651.86,-130.56"/>
</g>
<!-- Node24&#45;&gt;Node19 -->
<g id="edge40" class="edge">
<title>Node24&#45;&gt;Node19</title>
<path fill="none" stroke="midnightblue" d="M285.73,-168.44C317.1,-159.19 367.25,-144.39 401.75,-134.21"/>
<polygon fill="midnightblue" stroke="midnightblue" points="402.87,-137.53 411.47,-131.34 400.89,-130.81 402.87,-137.53"/>
</g>
<!-- Node24&#45;&gt;Node20 -->
<g id="edge37" class="edge">
<title>Node24&#45;&gt;Node20</title>
<path fill="none" stroke="midnightblue" d="M274.73,-168.32C292.77,-159.62 320.78,-146.12 341.53,-136.11"/>
<polygon fill="midnightblue" stroke="midnightblue" points="343.29,-139.15 350.78,-131.65 340.25,-132.84 343.29,-139.15"/>
</g>
<!-- Node25 -->
<g id="node25" class="node">
<title>Node25</title>
<g id="a_node25"><a xlink:href="MatrixView_8h.html" target="_top" xlink:title=" ">
<polygon fill="none" stroke="black" points="135.73,-112.5 135.73,-131.5 287.73,-131.5 287.73,-112.5 135.73,-112.5"/>
<text text-anchor="middle" x="211.73" y="-119.5" font-family="FreeSans.ttf" font-size="10.00">iDynTree/Core/MatrixView.h</text>
</a>
</g>
</g>
<!-- Node24&#45;&gt;Node25 -->
<g id="edge31" class="edge">
<title>Node24&#45;&gt;Node25</title>
<path fill="none" stroke="midnightblue" d="M249.3,-168.08C242.88,-160.38 233.43,-149.03 225.61,-139.65"/>
<polygon fill="midnightblue" stroke="midnightblue" points="228.12,-137.19 219.02,-131.75 222.74,-141.67 228.12,-137.19"/>
</g>
<!-- Node26 -->
<g id="node26" class="node">
<title>Node26</title>
<g id="a_node26"><a xlink:title=" ">
<polygon fill="none" stroke="#bfbfbf" points="19.73,-112.5 19.73,-131.5 79.73,-131.5 79.73,-112.5 19.73,-112.5"/>
<text text-anchor="middle" x="49.73" y="-119.5" font-family="FreeSans.ttf" font-size="10.00">iostream</text>
</a>
</g>
</g>
<!-- Node24&#45;&gt;Node26 -->
<g id="edge39" class="edge">
<title>Node24&#45;&gt;Node26</title>
<path fill="none" stroke="midnightblue" d="M223.93,-168.44C187.62,-158.97 129.06,-143.7 90,-133.5"/>
<polygon fill="midnightblue" stroke="midnightblue" points="90.58,-130.04 80.02,-130.9 88.81,-136.81 90.58,-130.04"/>
</g>
<!-- Node25&#45;&gt;Node6 -->
<g id="edge35" class="edge">
<title>Node25&#45;&gt;Node6</title>
<path fill="none" stroke="midnightblue" d="M262.75,-112.44C319.75,-102.89 411.97,-87.42 472.73,-77.23"/>
<polygon fill="midnightblue" stroke="midnightblue" points="473.67,-80.62 482.95,-75.52 472.51,-73.72 473.67,-80.62"/>
</g>
<!-- Node25&#45;&gt;Node9 -->
<g id="edge34" class="edge">
<title>Node25&#45;&gt;Node9</title>
<path fill="none" stroke="midnightblue" d="M232.49,-112.44C254.05,-103.56 288,-89.56 312.53,-79.45"/>
<polygon fill="midnightblue" stroke="midnightblue" points="314.16,-82.56 322.07,-75.52 311.49,-76.09 314.16,-82.56"/>
</g>
<!-- Node25&#45;&gt;Node10 -->
<g id="edge32" class="edge">
<title>Node25&#45;&gt;Node10</title>
<path fill="none" stroke="midnightblue" d="M200.61,-112.43C183.85,-99.65 150.97,-75.04 121.73,-56 104.54,-44.81 84.52,-33.14 69.2,-24.5"/>
<polygon fill="midnightblue" stroke="midnightblue" points="70.77,-21.37 60.34,-19.54 67.35,-27.48 70.77,-21.37"/>
</g>
<!-- Node25&#45;&gt;Node16 -->
<g id="edge33" class="edge">
<title>Node25&#45;&gt;Node16</title>
<path fill="none" stroke="midnightblue" d="M207.81,-112.47C201.62,-99.52 188.76,-74.45 173.73,-56 164.83,-45.07 153.22,-34.45 143.42,-26.27"/>
<polygon fill="midnightblue" stroke="midnightblue" points="145.37,-23.35 135.39,-19.77 140.96,-28.78 145.37,-23.35"/>
</g>
<!-- Node27&#45;&gt;Node7 -->
<g id="edge48" class="edge">
<title>Node27&#45;&gt;Node7</title>
<path fill="none" stroke="midnightblue" d="M928.77,-336.28C922.76,-317.82 909.73,-273.37 909.73,-235 909.73,-235 909.73,-235 909.73,-121 909.73,-52.55 815,-25.73 761.11,-16.02"/>
<polygon fill="midnightblue" stroke="midnightblue" points="761.68,-12.57 751.24,-14.35 760.51,-19.47 761.68,-12.57"/>
</g>
<!-- Node27&#45;&gt;Node18 -->
<g id="edge49" class="edge">
<title>Node27&#45;&gt;Node18</title>
<path fill="none" stroke="midnightblue" d="M923.35,-336.32C915.37,-327.69 903.47,-313.78 895.73,-300 865.16,-245.57 893.62,-210.32 847.73,-168 811.38,-134.48 752.41,-125.56 715.97,-123.4"/>
<polygon fill="midnightblue" stroke="midnightblue" points="716.02,-119.9 705.88,-122.94 715.71,-126.89 716.02,-119.9"/>
</g>
<!-- Node28 -->
<g id="node28" class="node">
<title>Node28</title>
<g id="a_node28"><a xlink:title=" ">
<polygon fill="none" stroke="#bfbfbf" points="938.23,-280.5 938.23,-299.5 1025.23,-299.5 1025.23,-280.5 938.23,-280.5"/>
<text text-anchor="middle" x="981.73" y="-287.5" font-family="FreeSans.ttf" font-size="10.00">ModelExport.h</text>
</a>
</g>
</g>
<!-- Node27&#45;&gt;Node28 -->
<g id="edge50" class="edge">
<title>Node27&#45;&gt;Node28</title>
<path fill="none" stroke="midnightblue" d="M939.99,-336.08C947.2,-328.3 957.84,-316.8 966.58,-307.37"/>
<polygon fill="midnightblue" stroke="midnightblue" points="969.4,-309.47 973.63,-299.75 964.27,-304.71 969.4,-309.47"/>
</g>
<!-- Node29&#45;&gt;Node27 -->
<g id="edge52" class="edge">
<title>Node29&#45;&gt;Node27</title>
<path fill="none" stroke="midnightblue" d="M931.73,-392.08C931.73,-385.01 931.73,-374.86 931.73,-365.99"/>
<polygon fill="midnightblue" stroke="midnightblue" points="935.23,-365.75 931.73,-355.75 928.23,-365.75 935.23,-365.75"/>
</g>
</g>
</svg>
