<?xml version="1.0" encoding="UTF-8" standalone="no"?>
<!DOCTYPE svg PUBLIC "-//W3C//DTD SVG 1.1//EN"
 "http://www.w3.org/Graphics/SVG/1.1/DTD/svg11.dtd">
<!-- Generated by graphviz version 2.43.0 (0)
 -->
<!-- Title: GyroscopeSensor.h Pages: 1 -->
<svg width="674pt" height="140pt"
 viewBox="0.00 0.00 673.50 140.00" xmlns="http://www.w3.org/2000/svg" xmlns:xlink="http://www.w3.org/1999/xlink">
<g id="graph0" class="graph" transform="scale(1 1) rotate(0) translate(4 136)">
<title>GyroscopeSensor.h</title>
<!-- Node1 -->
<g id="node1" class="node">
<title>Node1</title>
<g id="a_node1"><a xlink:title=" ">
<polygon fill="#bfbfbf" stroke="black" points="256,-112.5 256,-131.5 366,-131.5 366,-112.5 256,-112.5"/>
<text text-anchor="middle" x="311" y="-119.5" font-family="FreeSans.ttf" font-size="10.00">GyroscopeSensor.h</text>
</a>
</g>
</g>
<!-- Node2 -->
<g id="node2" class="node">
<title>Node2</title>
<g id="a_node2"><a xlink:href="SensorElement_8cpp.html" target="_top" xlink:title=" ">
<polygon fill="none" stroke="black" points="0,-56.5 0,-75.5 110,-75.5 110,-56.5 0,-56.5"/>
<text text-anchor="middle" x="55" y="-63.5" font-family="FreeSans.ttf" font-size="10.00">SensorElement.cpp</text>
</a>
</g>
</g>
<!-- Node1&#45;&gt;Node2 -->
<g id="edge1" class="edge">
<title>Node1&#45;&gt;Node2</title>
<path fill="none" stroke="midnightblue" d="M260.49,-110.35C212.11,-100.14 140.05,-84.94 95.37,-75.52"/>
<polygon fill="midnightblue" stroke="midnightblue" points="259.93,-113.8 270.44,-112.44 261.37,-106.95 259.93,-113.8"/>
</g>
<!-- Node3 -->
<g id="node3" class="node">
<title>Node3</title>
<g id="a_node3"><a xlink:href="AllSensorsTypes_8h.html" target="_top" xlink:title=" ">
<polygon fill="none" stroke="black" points="128,-56.5 128,-75.5 232,-75.5 232,-56.5 128,-56.5"/>
<text text-anchor="middle" x="180" y="-63.5" font-family="FreeSans.ttf" font-size="10.00">AllSensorsTypes.h</text>
</a>
</g>
</g>
<!-- Node1&#45;&gt;Node3 -->
<g id="edge2" class="edge">
<title>Node1&#45;&gt;Node3</title>
<path fill="none" stroke="midnightblue" d="M280.68,-108.5C256.12,-98.38 222.18,-84.39 200.66,-75.52"/>
<polygon fill="midnightblue" stroke="midnightblue" points="279.66,-111.87 290.24,-112.44 282.33,-105.4 279.66,-111.87"/>
</g>
<!-- Node5 -->
<g id="node5" class="node">
<title>Node5</title>
<g id="a_node5"><a xlink:href="GyroscopeSensor_8cpp.html" target="_top" xlink:title=" ">
<polygon fill="none" stroke="black" points="250.5,-56.5 250.5,-75.5 371.5,-75.5 371.5,-56.5 250.5,-56.5"/>
<text text-anchor="middle" x="311" y="-63.5" font-family="FreeSans.ttf" font-size="10.00">GyroscopeSensor.cpp</text>
</a>
</g>
</g>
<!-- Node1&#45;&gt;Node5 -->
<g id="edge4" class="edge">
<title>Node1&#45;&gt;Node5</title>
<path fill="none" stroke="midnightblue" d="M311,-101.8C311,-92.91 311,-82.78 311,-75.75"/>
<polygon fill="midnightblue" stroke="midnightblue" points="307.5,-102.08 311,-112.08 314.5,-102.08 307.5,-102.08"/>
</g>
<!-- Node6 -->
<g id="node6" class="node">
<title>Node6</title>
<g id="a_node6"><a xlink:href="PredictSensorsMeasurements_8cpp.html" target="_top" xlink:title=" ">
<polygon fill="none" stroke="black" points="390,-56.5 390,-75.5 572,-75.5 572,-56.5 390,-56.5"/>
<text text-anchor="middle" x="481" y="-63.5" font-family="FreeSans.ttf" font-size="10.00">PredictSensorsMeasurements.cpp</text>
</a>
</g>
</g>
<!-- Node1&#45;&gt;Node6 -->
<g id="edge5" class="edge">
<title>Node1&#45;&gt;Node6</title>
<path fill="none" stroke="midnightblue" d="M347.82,-109.3C379.85,-99.13 425.52,-84.62 454.19,-75.52"/>
<polygon fill="midnightblue" stroke="midnightblue" points="346.41,-106.08 337.94,-112.44 348.53,-112.75 346.41,-106.08"/>
</g>
<!-- Node7 -->
<g id="node7" class="node">
<title>Node7</title>
<g id="a_node7"><a xlink:href="Sensors_8cpp.html" target="_top" xlink:title=" ">
<polygon fill="none" stroke="black" points="590.5,-56.5 590.5,-75.5 665.5,-75.5 665.5,-56.5 590.5,-56.5"/>
<text text-anchor="middle" x="628" y="-63.5" font-family="FreeSans.ttf" font-size="10.00">Sensors.cpp</text>
</a>
</g>
</g>
<!-- Node1&#45;&gt;Node7 -->
<g id="edge6" class="edge">
<title>Node1&#45;&gt;Node7</title>
<path fill="none" stroke="midnightblue" d="M374.25,-110.9C429.02,-102.05 510.32,-88.66 581,-76 584.03,-75.46 587.16,-74.89 590.3,-74.3"/>
<polygon fill="midnightblue" stroke="midnightblue" points="373.66,-107.45 364.34,-112.5 374.77,-114.36 373.66,-107.45"/>
</g>
<!-- Node4 -->
<g id="node4" class="node">
<title>Node4</title>
<g id="a_node4"><a xlink:href="BerdyHelper_8cpp.html" target="_top" xlink:title=" ">
<polygon fill="none" stroke="black" points="131.5,-0.5 131.5,-19.5 228.5,-19.5 228.5,-0.5 131.5,-0.5"/>
<text text-anchor="middle" x="180" y="-7.5" font-family="FreeSans.ttf" font-size="10.00">BerdyHelper.cpp</text>
</a>
</g>
</g>
<!-- Node3&#45;&gt;Node4 -->
<g id="edge3" class="edge">
<title>Node3&#45;&gt;Node4</title>
<path fill="none" stroke="midnightblue" d="M180,-45.8C180,-36.91 180,-26.78 180,-19.75"/>
<polygon fill="midnightblue" stroke="midnightblue" points="176.5,-46.08 180,-56.08 183.5,-46.08 176.5,-46.08"/>
</g>
</g>
</svg>
