<?xml version="1.0" encoding="UTF-8" standalone="no"?>
<!DOCTYPE svg PUBLIC "-//W3C//DTD SVG 1.1//EN"
 "http://www.w3.org/Graphics/SVG/1.1/DTD/svg11.dtd">
<!-- Generated by graphviz version 2.43.0 (0)
 -->
<!-- Title: main.cpp Pages: 1 -->
<svg width="554pt" height="84pt"
 viewBox="0.00 0.00 554.00 84.00" xmlns="http://www.w3.org/2000/svg" xmlns:xlink="http://www.w3.org/1999/xlink">
<g id="graph0" class="graph" transform="scale(1 1) rotate(0) translate(4 80)">
<title>main.cpp</title>
<!-- Node1 -->
<g id="node1" class="node">
<title>Node1</title>
<g id="a_node1"><a xlink:title=" ">
<polygon fill="#bfbfbf" stroke="black" points="292.5,-56.5 292.5,-75.5 354.5,-75.5 354.5,-56.5 292.5,-56.5"/>
<text text-anchor="middle" x="323.5" y="-63.5" font-family="FreeSans.ttf" font-size="10.00">main.cpp</text>
</a>
</g>
</g>
<!-- Node2 -->
<g id="node2" class="node">
<title>Node2</title>
<g id="a_node2"><a xlink:title=" ">
<polygon fill="none" stroke="#bfbfbf" points="0,-0.5 0,-19.5 79,-19.5 79,-0.5 0,-0.5"/>
<text text-anchor="middle" x="39.5" y="-7.5" font-family="FreeSans.ttf" font-size="10.00">QApplication</text>
</a>
</g>
</g>
<!-- Node1&#45;&gt;Node2 -->
<g id="edge1" class="edge">
<title>Node1&#45;&gt;Node2</title>
<path fill="none" stroke="midnightblue" d="M292.29,-59.07C243.36,-49.76 148.12,-31.65 89.53,-20.51"/>
<polygon fill="midnightblue" stroke="midnightblue" points="89.87,-17.02 79.4,-18.59 88.57,-23.89 89.87,-17.02"/>
</g>
<!-- Node3 -->
<g id="node3" class="node">
<title>Node3</title>
<g id="a_node3"><a xlink:title=" ">
<polygon fill="none" stroke="#bfbfbf" points="97.5,-0.5 97.5,-19.5 229.5,-19.5 229.5,-0.5 97.5,-0.5"/>
<text text-anchor="middle" x="163.5" y="-7.5" font-family="FreeSans.ttf" font-size="10.00">QQmlApplicationEngine</text>
</a>
</g>
</g>
<!-- Node1&#45;&gt;Node3 -->
<g id="edge2" class="edge">
<title>Node1&#45;&gt;Node3</title>
<path fill="none" stroke="midnightblue" d="M298.15,-56.44C271.23,-47.36 228.5,-32.94 198.41,-22.78"/>
<polygon fill="midnightblue" stroke="midnightblue" points="199.33,-19.4 188.73,-19.52 197.09,-26.03 199.33,-19.4"/>
</g>
<!-- Node4 -->
<g id="node4" class="node">
<title>Node4</title>
<g id="a_node4"><a xlink:title=" ">
<polygon fill="none" stroke="#bfbfbf" points="248,-0.5 248,-19.5 307,-19.5 307,-0.5 248,-0.5"/>
<text text-anchor="middle" x="277.5" y="-7.5" font-family="FreeSans.ttf" font-size="10.00">QVariant</text>
</a>
</g>
</g>
<!-- Node1&#45;&gt;Node4 -->
<g id="edge3" class="edge">
<title>Node1&#45;&gt;Node4</title>
<path fill="none" stroke="midnightblue" d="M315.9,-56.08C309.27,-48.3 299.48,-36.8 291.44,-27.37"/>
<polygon fill="midnightblue" stroke="midnightblue" points="294.1,-25.09 284.95,-19.75 288.77,-29.63 294.1,-25.09"/>
</g>
<!-- Node5 -->
<g id="node5" class="node">
<title>Node5</title>
<g id="a_node5"><a xlink:title=" ">
<polygon fill="none" stroke="#bfbfbf" points="325,-0.5 325,-19.5 416,-19.5 416,-0.5 325,-0.5"/>
<text text-anchor="middle" x="370.5" y="-7.5" font-family="FreeSans.ttf" font-size="10.00">QQuickWindow</text>
</a>
</g>
</g>
<!-- Node1&#45;&gt;Node5 -->
<g id="edge4" class="edge">
<title>Node1&#45;&gt;Node5</title>
<path fill="none" stroke="midnightblue" d="M331.26,-56.08C338.04,-48.3 348.04,-36.8 356.26,-27.37"/>
<polygon fill="midnightblue" stroke="midnightblue" points="358.96,-29.59 362.88,-19.75 353.68,-25 358.96,-29.59"/>
</g>
<!-- Node6 -->
<g id="node6" class="node">
<title>Node6</title>
<g id="a_node6"><a xlink:title=" ">
<polygon fill="none" stroke="#bfbfbf" points="434.5,-0.5 434.5,-19.5 472.5,-19.5 472.5,-0.5 434.5,-0.5"/>
<text text-anchor="middle" x="453.5" y="-7.5" font-family="FreeSans.ttf" font-size="10.00">QDir</text>
</a>
</g>
</g>
<!-- Node1&#45;&gt;Node6 -->
<g id="edge5" class="edge">
<title>Node1&#45;&gt;Node6</title>
<path fill="none" stroke="midnightblue" d="M344.1,-56.44C365.87,-47.4 400.37,-33.07 424.8,-22.92"/>
<polygon fill="midnightblue" stroke="midnightblue" points="426.38,-26.06 434.27,-18.99 423.69,-19.59 426.38,-26.06"/>
</g>
<!-- Node7 -->
<g id="node7" class="node">
<title>Node7</title>
<g id="a_node7"><a xlink:title=" ">
<polygon fill="none" stroke="#bfbfbf" points="491,-0.5 491,-19.5 546,-19.5 546,-0.5 491,-0.5"/>
<text text-anchor="middle" x="518.5" y="-7.5" font-family="FreeSans.ttf" font-size="10.00">config.h</text>
</a>
</g>
</g>
<!-- Node1&#45;&gt;Node7 -->
<g id="edge6" class="edge">
<title>Node1&#45;&gt;Node7</title>
<path fill="none" stroke="midnightblue" d="M354.4,-56.44C388.76,-46.93 444.25,-31.56 481.05,-21.37"/>
<polygon fill="midnightblue" stroke="midnightblue" points="482.2,-24.69 490.9,-18.64 480.33,-17.94 482.2,-24.69"/>
</g>
</g>
</svg>
