<?xml version="1.0" encoding="UTF-8" standalone="no"?>
<!DOCTYPE svg PUBLIC "-//W3C//DTD SVG 1.1//EN"
 "http://www.w3.org/Graphics/SVG/1.1/DTD/svg11.dtd">
<!-- Generated by graphviz version 2.43.0 (0)
 -->
<!-- Title: ImplicitTrapezoidal.h Pages: 1 -->
<svg width="957pt" height="375pt"
 viewBox="0.00 0.00 957.00 375.00" xmlns="http://www.w3.org/2000/svg" xmlns:xlink="http://www.w3.org/1999/xlink">
<g id="graph0" class="graph" transform="scale(1 1) rotate(0) translate(4 371)">
<title>ImplicitTrapezoidal.h</title>
<!-- Node1 -->
<g id="node1" class="node">
<title>Node1</title>
<g id="a_node1"><a xlink:title=" ">
<polygon fill="#bfbfbf" stroke="black" points="441,-347.5 441,-366.5 559,-366.5 559,-347.5 441,-347.5"/>
<text text-anchor="middle" x="500" y="-354.5" font-family="FreeSans.ttf" font-size="10.00">ImplicitTrapezoidal.h</text>
</a>
</g>
</g>
<!-- Node2 -->
<g id="node2" class="node">
<title>Node2</title>
<g id="a_node2"><a xlink:href="FixedStepIntegrator_8h.html" target="_top" xlink:title=" ">
<polygon fill="none" stroke="black" points="438.5,-280.5 438.5,-310.5 561.5,-310.5 561.5,-280.5 438.5,-280.5"/>
<text text-anchor="start" x="446.5" y="-298.5" font-family="FreeSans.ttf" font-size="10.00">iDynTree/Integrators</text>
<text text-anchor="middle" x="500" y="-287.5" font-family="FreeSans.ttf" font-size="10.00">/FixedStepIntegrator.h</text>
</a>
</g>
</g>
<!-- Node1&#45;&gt;Node2 -->
<g id="edge1" class="edge">
<title>Node1&#45;&gt;Node2</title>
<path fill="none" stroke="midnightblue" d="M500,-347.48C500,-340.47 500,-330.19 500,-320.7"/>
<polygon fill="midnightblue" stroke="midnightblue" points="503.5,-320.52 500,-310.52 496.5,-320.52 503.5,-320.52"/>
</g>
<!-- Node3 -->
<g id="node3" class="node">
<title>Node3</title>
<g id="a_node3"><a xlink:href="Integrator_8h.html" target="_top" xlink:title=" ">
<polygon fill="none" stroke="black" points="551.5,-224.5 551.5,-243.5 670.5,-243.5 670.5,-224.5 551.5,-224.5"/>
<text text-anchor="middle" x="611" y="-231.5" font-family="FreeSans.ttf" font-size="10.00">iDynTree/Integrator.h</text>
</a>
</g>
</g>
<!-- Node2&#45;&gt;Node3 -->
<g id="edge2" class="edge">
<title>Node2&#45;&gt;Node3</title>
<path fill="none" stroke="midnightblue" d="M526.31,-280.4C544.26,-270.77 567.92,-258.09 585.67,-248.58"/>
<polygon fill="midnightblue" stroke="midnightblue" points="587.69,-251.47 594.85,-243.66 584.38,-245.3 587.69,-251.47"/>
</g>
<!-- Node4 -->
<g id="node4" class="node">
<title>Node4</title>
<g id="a_node4"><a xlink:href="VectorDynSize_8h.html" target="_top" xlink:title=" ">
<polygon fill="none" stroke="black" points="214.5,-168.5 214.5,-187.5 381.5,-187.5 381.5,-168.5 214.5,-168.5"/>
<text text-anchor="middle" x="298" y="-175.5" font-family="FreeSans.ttf" font-size="10.00">iDynTree/Core/VectorDynSize.h</text>
</a>
</g>
</g>
<!-- Node2&#45;&gt;Node4 -->
<g id="edge34" class="edge">
<title>Node2&#45;&gt;Node4</title>
<path fill="none" stroke="midnightblue" d="M475.23,-280.34C436.09,-257.96 360.44,-214.7 321.87,-192.65"/>
<polygon fill="midnightblue" stroke="midnightblue" points="323.32,-189.45 312.9,-187.52 319.85,-195.52 323.32,-189.45"/>
</g>
<!-- Node3&#45;&gt;Node4 -->
<g id="edge3" class="edge">
<title>Node3&#45;&gt;Node4</title>
<path fill="none" stroke="midnightblue" d="M561.4,-224.44C506,-214.89 416.36,-199.42 357.29,-189.23"/>
<polygon fill="midnightblue" stroke="midnightblue" points="357.81,-185.77 347.36,-187.52 356.62,-192.67 357.81,-185.77"/>
</g>
<!-- Node15 -->
<g id="node15" class="node">
<title>Node15</title>
<g id="a_node15"><a xlink:title=" ">
<polygon fill="none" stroke="#bfbfbf" points="383,-112.5 383,-131.5 427,-131.5 427,-112.5 383,-112.5"/>
<text text-anchor="middle" x="405" y="-119.5" font-family="FreeSans.ttf" font-size="10.00">string</text>
</a>
</g>
</g>
<!-- Node3&#45;&gt;Node15 -->
<g id="edge31" class="edge">
<title>Node3&#45;&gt;Node15</title>
<path fill="none" stroke="midnightblue" d="M551.1,-232.41C511.66,-228.94 461.34,-218.2 428,-188 414.85,-176.09 409.22,-156.18 406.8,-141.53"/>
<polygon fill="midnightblue" stroke="midnightblue" points="410.27,-141.04 405.52,-131.57 403.33,-141.94 410.27,-141.04"/>
</g>
<!-- Node16 -->
<g id="node16" class="node">
<title>Node16</title>
<g id="a_node16"><a xlink:href="MatrixDynSize_8h.html" target="_top" xlink:title=" ">
<polygon fill="none" stroke="black" points="437,-168.5 437,-187.5 605,-187.5 605,-168.5 437,-168.5"/>
<text text-anchor="middle" x="521" y="-175.5" font-family="FreeSans.ttf" font-size="10.00">iDynTree/Core/MatrixDynSize.h</text>
</a>
</g>
</g>
<!-- Node3&#45;&gt;Node16 -->
<g id="edge15" class="edge">
<title>Node3&#45;&gt;Node16</title>
<path fill="none" stroke="midnightblue" d="M596.54,-224.32C582.5,-215.9 560.95,-202.97 544.46,-193.07"/>
<polygon fill="midnightblue" stroke="midnightblue" points="545.8,-189.8 535.42,-187.65 542.2,-195.8 545.8,-189.8"/>
</g>
<!-- Node20 -->
<g id="node20" class="node">
<title>Node20</title>
<g id="a_node20"><a xlink:href="SparsityStructure_8h.html" target="_top" xlink:title=" ">
<polygon fill="none" stroke="black" points="623.5,-168.5 623.5,-187.5 778.5,-187.5 778.5,-168.5 623.5,-168.5"/>
<text text-anchor="middle" x="701" y="-175.5" font-family="FreeSans.ttf" font-size="10.00">iDynTree/SparsityStructure.h</text>
</a>
</g>
</g>
<!-- Node3&#45;&gt;Node20 -->
<g id="edge24" class="edge">
<title>Node3&#45;&gt;Node20</title>
<path fill="none" stroke="midnightblue" d="M625.46,-224.32C639.5,-215.9 661.05,-202.97 677.54,-193.07"/>
<polygon fill="midnightblue" stroke="midnightblue" points="679.8,-195.8 686.58,-187.65 676.2,-189.8 679.8,-195.8"/>
</g>
<!-- Node21 -->
<g id="node21" class="node">
<title>Node21</title>
<g id="a_node21"><a xlink:title=" ">
<polygon fill="none" stroke="#bfbfbf" points="826.5,-112.5 826.5,-131.5 873.5,-131.5 873.5,-112.5 826.5,-112.5"/>
<text text-anchor="middle" x="850" y="-119.5" font-family="FreeSans.ttf" font-size="10.00">vector</text>
</a>
</g>
</g>
<!-- Node3&#45;&gt;Node21 -->
<g id="edge30" class="edge">
<title>Node3&#45;&gt;Node21</title>
<path fill="none" stroke="midnightblue" d="M670.74,-226.28C706.63,-220.25 752.14,-208.96 788,-188 808.74,-175.88 826.97,-154.81 838.2,-139.95"/>
<polygon fill="midnightblue" stroke="midnightblue" points="841.19,-141.78 844.25,-131.64 835.53,-137.67 841.19,-141.78"/>
</g>
<!-- Node23 -->
<g id="node23" class="node">
<title>Node23</title>
<g id="a_node23"><a xlink:title=" ">
<polygon fill="none" stroke="#bfbfbf" points="835,-168.5 835,-187.5 893,-187.5 893,-168.5 835,-168.5"/>
<text text-anchor="middle" x="864" y="-175.5" font-family="FreeSans.ttf" font-size="10.00">memory</text>
</a>
</g>
</g>
<!-- Node3&#45;&gt;Node23 -->
<g id="edge32" class="edge">
<title>Node3&#45;&gt;Node23</title>
<path fill="none" stroke="midnightblue" d="M651.09,-224.44C698.73,-214.28 777.69,-197.42 824.89,-187.35"/>
<polygon fill="midnightblue" stroke="midnightblue" points="825.7,-190.75 834.75,-185.24 824.24,-183.91 825.7,-190.75"/>
</g>
<!-- Node24 -->
<g id="node24" class="node">
<title>Node24</title>
<g id="a_node24"><a xlink:title=" ">
<polygon fill="none" stroke="#bfbfbf" points="911,-168.5 911,-187.5 949,-187.5 949,-168.5 911,-168.5"/>
<text text-anchor="middle" x="930" y="-175.5" font-family="FreeSans.ttf" font-size="10.00">map</text>
</a>
</g>
</g>
<!-- Node3&#45;&gt;Node24 -->
<g id="edge33" class="edge">
<title>Node3&#45;&gt;Node24</title>
<path fill="none" stroke="midnightblue" d="M670.61,-226.57C727.6,-219.8 816.04,-207.65 901.02,-187.92"/>
<polygon fill="midnightblue" stroke="midnightblue" points="901.9,-191.3 910.83,-185.6 900.3,-184.49 901.9,-191.3"/>
</g>
<!-- Node5 -->
<g id="node5" class="node">
<title>Node5</title>
<g id="a_node5"><a xlink:href="Span_8h.html" target="_top" xlink:title=" ">
<polygon fill="none" stroke="black" points="245.5,-56.5 245.5,-75.5 366.5,-75.5 366.5,-56.5 245.5,-56.5"/>
<text text-anchor="middle" x="306" y="-63.5" font-family="FreeSans.ttf" font-size="10.00">iDynTree/Core/Span.h</text>
</a>
</g>
</g>
<!-- Node4&#45;&gt;Node5 -->
<g id="edge4" class="edge">
<title>Node4&#45;&gt;Node5</title>
<path fill="none" stroke="midnightblue" d="M298.63,-168.37C299.92,-150.62 302.9,-109.67 304.65,-85.6"/>
<polygon fill="midnightblue" stroke="midnightblue" points="308.14,-85.82 305.38,-75.59 301.16,-85.31 308.14,-85.82"/>
</g>
<!-- Node4&#45;&gt;Node15 -->
<g id="edge14" class="edge">
<title>Node4&#45;&gt;Node15</title>
<path fill="none" stroke="midnightblue" d="M315.19,-168.32C332.35,-159.66 358.95,-146.24 378.75,-136.25"/>
<polygon fill="midnightblue" stroke="midnightblue" points="380.5,-139.28 387.85,-131.65 377.35,-133.04 380.5,-139.28"/>
</g>
<!-- Node6 -->
<g id="node6" class="node">
<title>Node6</title>
<g id="a_node6"><a xlink:title=" ">
<polygon fill="none" stroke="#bfbfbf" points="0,-0.5 0,-19.5 52,-19.5 52,-0.5 0,-0.5"/>
<text text-anchor="middle" x="26" y="-7.5" font-family="FreeSans.ttf" font-size="10.00">cassert</text>
</a>
</g>
</g>
<!-- Node5&#45;&gt;Node6 -->
<g id="edge5" class="edge">
<title>Node5&#45;&gt;Node6</title>
<path fill="none" stroke="midnightblue" d="M253.69,-56.48C206.18,-48.5 133.95,-35.76 62.41,-20.19"/>
<polygon fill="midnightblue" stroke="midnightblue" points="62.84,-16.71 52.33,-17.98 61.34,-23.54 62.84,-16.71"/>
</g>
<!-- Node7 -->
<g id="node7" class="node">
<title>Node7</title>
<g id="a_node7"><a xlink:title=" ">
<polygon fill="none" stroke="#bfbfbf" points="70,-0.5 70,-19.5 134,-19.5 134,-0.5 70,-0.5"/>
<text text-anchor="middle" x="102" y="-7.5" font-family="FreeSans.ttf" font-size="10.00">algorithm</text>
</a>
</g>
</g>
<!-- Node5&#45;&gt;Node7 -->
<g id="edge6" class="edge">
<title>Node5&#45;&gt;Node7</title>
<path fill="none" stroke="midnightblue" d="M273.68,-56.44C238.61,-47.16 182.5,-32.31 144.04,-22.13"/>
<polygon fill="midnightblue" stroke="midnightblue" points="144.74,-18.69 134.17,-19.52 142.94,-25.46 144.74,-18.69"/>
</g>
<!-- Node8 -->
<g id="node8" class="node">
<title>Node8</title>
<g id="a_node8"><a xlink:title=" ">
<polygon fill="none" stroke="#bfbfbf" points="152,-0.5 152,-19.5 194,-19.5 194,-0.5 152,-0.5"/>
<text text-anchor="middle" x="173" y="-7.5" font-family="FreeSans.ttf" font-size="10.00">array</text>
</a>
</g>
</g>
<!-- Node5&#45;&gt;Node8 -->
<g id="edge7" class="edge">
<title>Node5&#45;&gt;Node8</title>
<path fill="none" stroke="midnightblue" d="M284.93,-56.44C262.94,-47.52 228.27,-33.44 203.34,-23.32"/>
<polygon fill="midnightblue" stroke="midnightblue" points="204.56,-20.04 193.98,-19.52 201.92,-26.52 204.56,-20.04"/>
</g>
<!-- Node9 -->
<g id="node9" class="node">
<title>Node9</title>
<g id="a_node9"><a xlink:title=" ">
<polygon fill="none" stroke="#bfbfbf" points="579.5,-0.5 579.5,-19.5 632.5,-19.5 632.5,-0.5 579.5,-0.5"/>
<text text-anchor="middle" x="606" y="-7.5" font-family="FreeSans.ttf" font-size="10.00">cstddef</text>
</a>
</g>
</g>
<!-- Node5&#45;&gt;Node9 -->
<g id="edge8" class="edge">
<title>Node5&#45;&gt;Node9</title>
<path fill="none" stroke="midnightblue" d="M363.66,-56.47C415.1,-48.56 492.67,-35.92 569.47,-19.98"/>
<polygon fill="midnightblue" stroke="midnightblue" points="570.25,-23.39 579.32,-17.91 568.81,-16.54 570.25,-23.39"/>
</g>
<!-- Node10 -->
<g id="node10" class="node">
<title>Node10</title>
<g id="a_node10"><a xlink:title=" ">
<polygon fill="none" stroke="#bfbfbf" points="212.5,-0.5 212.5,-19.5 265.5,-19.5 265.5,-0.5 212.5,-0.5"/>
<text text-anchor="middle" x="239" y="-7.5" font-family="FreeSans.ttf" font-size="10.00">iterator</text>
</a>
</g>
</g>
<!-- Node5&#45;&gt;Node10 -->
<g id="edge9" class="edge">
<title>Node5&#45;&gt;Node10</title>
<path fill="none" stroke="midnightblue" d="M295.24,-56.32C285.23,-48.26 270.11,-36.08 258.07,-26.37"/>
<polygon fill="midnightblue" stroke="midnightblue" points="259.94,-23.38 249.96,-19.83 255.55,-28.83 259.94,-23.38"/>
</g>
<!-- Node11 -->
<g id="node11" class="node">
<title>Node11</title>
<g id="a_node11"><a xlink:title=" ">
<polygon fill="none" stroke="#bfbfbf" points="284,-0.5 284,-19.5 328,-19.5 328,-0.5 284,-0.5"/>
<text text-anchor="middle" x="306" y="-7.5" font-family="FreeSans.ttf" font-size="10.00">limits</text>
</a>
</g>
</g>
<!-- Node5&#45;&gt;Node11 -->
<g id="edge10" class="edge">
<title>Node5&#45;&gt;Node11</title>
<path fill="none" stroke="midnightblue" d="M306,-56.08C306,-49.01 306,-38.86 306,-29.99"/>
<polygon fill="midnightblue" stroke="midnightblue" points="309.5,-29.75 306,-19.75 302.5,-29.75 309.5,-29.75"/>
</g>
<!-- Node12 -->
<g id="node12" class="node">
<title>Node12</title>
<g id="a_node12"><a xlink:title=" ">
<polygon fill="none" stroke="#bfbfbf" points="346.5,-0.5 346.5,-19.5 411.5,-19.5 411.5,-0.5 346.5,-0.5"/>
<text text-anchor="middle" x="379" y="-7.5" font-family="FreeSans.ttf" font-size="10.00">stdexcept</text>
</a>
</g>
</g>
<!-- Node5&#45;&gt;Node12 -->
<g id="edge11" class="edge">
<title>Node5&#45;&gt;Node12</title>
<path fill="none" stroke="midnightblue" d="M317.73,-56.32C328.84,-48.11 345.74,-35.6 358.98,-25.81"/>
<polygon fill="midnightblue" stroke="midnightblue" points="361.1,-28.59 367.06,-19.83 356.94,-22.97 361.1,-28.59"/>
</g>
<!-- Node13 -->
<g id="node13" class="node">
<title>Node13</title>
<g id="a_node13"><a xlink:title=" ">
<polygon fill="none" stroke="#bfbfbf" points="492.5,-0.5 492.5,-19.5 561.5,-19.5 561.5,-0.5 492.5,-0.5"/>
<text text-anchor="middle" x="527" y="-7.5" font-family="FreeSans.ttf" font-size="10.00">type_traits</text>
</a>
</g>
</g>
<!-- Node5&#45;&gt;Node13 -->
<g id="edge12" class="edge">
<title>Node5&#45;&gt;Node13</title>
<path fill="none" stroke="midnightblue" d="M341.02,-56.44C379.25,-47.1 440.57,-32.12 482.26,-21.93"/>
<polygon fill="midnightblue" stroke="midnightblue" points="483.26,-25.29 492.15,-19.52 481.6,-18.49 483.26,-25.29"/>
</g>
<!-- Node14 -->
<g id="node14" class="node">
<title>Node14</title>
<g id="a_node14"><a xlink:title=" ">
<polygon fill="none" stroke="#bfbfbf" points="429.5,-0.5 429.5,-19.5 474.5,-19.5 474.5,-0.5 429.5,-0.5"/>
<text text-anchor="middle" x="452" y="-7.5" font-family="FreeSans.ttf" font-size="10.00">utility</text>
</a>
</g>
</g>
<!-- Node5&#45;&gt;Node14 -->
<g id="edge13" class="edge">
<title>Node5&#45;&gt;Node14</title>
<path fill="none" stroke="midnightblue" d="M329.13,-56.44C353.63,-47.39 392.46,-33.02 419.91,-22.87"/>
<polygon fill="midnightblue" stroke="midnightblue" points="421.29,-26.09 429.45,-19.34 418.86,-19.53 421.29,-26.09"/>
</g>
<!-- Node16&#45;&gt;Node15 -->
<g id="edge16" class="edge">
<title>Node16&#45;&gt;Node15</title>
<path fill="none" stroke="midnightblue" d="M502.62,-168.44C483.78,-159.68 454.27,-145.94 432.62,-135.86"/>
<polygon fill="midnightblue" stroke="midnightblue" points="433.84,-132.56 423.29,-131.52 430.88,-138.91 433.84,-132.56"/>
</g>
<!-- Node17 -->
<g id="node17" class="node">
<title>Node17</title>
<g id="a_node17"><a xlink:href="MatrixView_8h.html" target="_top" xlink:title=" ">
<polygon fill="none" stroke="black" points="445,-112.5 445,-131.5 597,-131.5 597,-112.5 445,-112.5"/>
<text text-anchor="middle" x="521" y="-119.5" font-family="FreeSans.ttf" font-size="10.00">iDynTree/Core/MatrixView.h</text>
</a>
</g>
</g>
<!-- Node16&#45;&gt;Node17 -->
<g id="edge17" class="edge">
<title>Node16&#45;&gt;Node17</title>
<path fill="none" stroke="midnightblue" d="M521,-168.08C521,-161.01 521,-150.86 521,-141.99"/>
<polygon fill="midnightblue" stroke="midnightblue" points="524.5,-141.75 521,-131.75 517.5,-141.75 524.5,-141.75"/>
</g>
<!-- Node17&#45;&gt;Node5 -->
<g id="edge20" class="edge">
<title>Node17&#45;&gt;Node5</title>
<path fill="none" stroke="midnightblue" d="M486.93,-112.44C449.82,-103.12 390.34,-88.18 349.79,-78"/>
<polygon fill="midnightblue" stroke="midnightblue" points="350.46,-74.56 339.91,-75.52 348.75,-81.35 350.46,-74.56"/>
</g>
<!-- Node17&#45;&gt;Node6 -->
<g id="edge18" class="edge">
<title>Node17&#45;&gt;Node6</title>
<path fill="none" stroke="midnightblue" d="M448.41,-112.46C390.48,-104.95 307.48,-92.61 236,-76 172.47,-61.23 100.17,-37.21 59.12,-22.88"/>
<polygon fill="midnightblue" stroke="midnightblue" points="60.22,-19.55 49.63,-19.54 57.9,-26.16 60.22,-19.55"/>
</g>
<!-- Node17&#45;&gt;Node13 -->
<g id="edge19" class="edge">
<title>Node17&#45;&gt;Node13</title>
<path fill="none" stroke="midnightblue" d="M521.47,-112.37C522.44,-94.62 524.67,-53.67 525.99,-29.6"/>
<polygon fill="midnightblue" stroke="midnightblue" points="529.48,-29.77 526.53,-19.59 522.49,-29.39 529.48,-29.77"/>
</g>
<!-- Node18 -->
<g id="node18" class="node">
<title>Node18</title>
<g id="a_node18"><a xlink:href="Utils_8h.html" target="_top" xlink:title=" ">
<polygon fill="none" stroke="black" points="546.5,-56.5 546.5,-75.5 665.5,-75.5 665.5,-56.5 546.5,-56.5"/>
<text text-anchor="middle" x="606" y="-63.5" font-family="FreeSans.ttf" font-size="10.00">iDynTree/Core/Utils.h</text>
</a>
</g>
</g>
<!-- Node17&#45;&gt;Node18 -->
<g id="edge21" class="edge">
<title>Node17&#45;&gt;Node18</title>
<path fill="none" stroke="midnightblue" d="M534.66,-112.32C547.92,-103.9 568.27,-90.97 583.85,-81.07"/>
<polygon fill="midnightblue" stroke="midnightblue" points="585.81,-83.97 592.38,-75.65 582.06,-78.06 585.81,-83.97"/>
</g>
<!-- Node18&#45;&gt;Node9 -->
<g id="edge22" class="edge">
<title>Node18&#45;&gt;Node9</title>
<path fill="none" stroke="midnightblue" d="M606,-56.08C606,-49.01 606,-38.86 606,-29.99"/>
<polygon fill="midnightblue" stroke="midnightblue" points="609.5,-29.75 606,-19.75 602.5,-29.75 609.5,-29.75"/>
</g>
<!-- Node19 -->
<g id="node19" class="node">
<title>Node19</title>
<g id="a_node19"><a xlink:title=" ">
<polygon fill="none" stroke="#bfbfbf" points="651,-0.5 651,-19.5 731,-19.5 731,-0.5 651,-0.5"/>
<text text-anchor="middle" x="691" y="-7.5" font-family="FreeSans.ttf" font-size="10.00">CoreExport.h</text>
</a>
</g>
</g>
<!-- Node18&#45;&gt;Node19 -->
<g id="edge23" class="edge">
<title>Node18&#45;&gt;Node19</title>
<path fill="none" stroke="midnightblue" d="M619.66,-56.32C632.92,-47.9 653.27,-34.97 668.85,-25.07"/>
<polygon fill="midnightblue" stroke="midnightblue" points="670.81,-27.97 677.38,-19.65 667.06,-22.06 670.81,-27.97"/>
</g>
<!-- Node20&#45;&gt;Node9 -->
<g id="edge27" class="edge">
<title>Node20&#45;&gt;Node9</title>
<path fill="none" stroke="midnightblue" d="M701.19,-168.22C701.24,-146.99 698.77,-91.99 674,-56 664.54,-42.26 649.39,-31.64 635.78,-24.17"/>
<polygon fill="midnightblue" stroke="midnightblue" points="637.2,-20.96 626.7,-19.51 634,-27.19 637.2,-20.96"/>
</g>
<!-- Node20&#45;&gt;Node15 -->
<g id="edge29" class="edge">
<title>Node20&#45;&gt;Node15</title>
<path fill="none" stroke="midnightblue" d="M638.76,-168.49C587.12,-160.95 511.62,-148.87 437.28,-132.09"/>
<polygon fill="midnightblue" stroke="midnightblue" points="437.8,-128.61 427.27,-129.8 436.24,-135.44 437.8,-128.61"/>
</g>
<!-- Node20&#45;&gt;Node18 -->
<g id="edge25" class="edge">
<title>Node20&#45;&gt;Node18</title>
<path fill="none" stroke="midnightblue" d="M693.55,-168.37C677.73,-150.05 640.59,-107.05 620.13,-83.36"/>
<polygon fill="midnightblue" stroke="midnightblue" points="622.6,-80.87 613.42,-75.59 617.31,-85.45 622.6,-80.87"/>
</g>
<!-- Node20&#45;&gt;Node21 -->
<g id="edge26" class="edge">
<title>Node20&#45;&gt;Node21</title>
<path fill="none" stroke="midnightblue" d="M724.61,-168.44C749.46,-159.44 788.77,-145.19 816.75,-135.05"/>
<polygon fill="midnightblue" stroke="midnightblue" points="818.29,-138.21 826.5,-131.52 815.91,-131.63 818.29,-138.21"/>
</g>
<!-- Node22 -->
<g id="node22" class="node">
<title>Node22</title>
<g id="a_node22"><a xlink:title=" ">
<polygon fill="none" stroke="#bfbfbf" points="722,-112.5 722,-131.5 808,-131.5 808,-112.5 722,-112.5"/>
<text text-anchor="middle" x="765" y="-119.5" font-family="FreeSans.ttf" font-size="10.00">unordered_set</text>
</a>
</g>
</g>
<!-- Node20&#45;&gt;Node22 -->
<g id="edge28" class="edge">
<title>Node20&#45;&gt;Node22</title>
<path fill="none" stroke="midnightblue" d="M711.28,-168.32C720.84,-160.26 735.28,-148.08 746.78,-138.37"/>
<polygon fill="midnightblue" stroke="midnightblue" points="749.14,-140.96 754.53,-131.83 744.63,-135.61 749.14,-140.96"/>
</g>
</g>
</svg>
