<?xml version="1.0" encoding="UTF-8" standalone="no"?>
<!DOCTYPE svg PUBLIC "-//W3C//DTD SVG 1.1//EN"
 "http://www.w3.org/Graphics/SVG/1.1/DTD/svg11.dtd">
<!-- Generated by graphviz version 2.43.0 (0)
 -->
<!-- Title: Graphical Class Hierarchy Pages: 1 -->
<svg width="345pt" height="137pt"
 viewBox="0.00 0.00 345.00 137.00" xmlns="http://www.w3.org/2000/svg" xmlns:xlink="http://www.w3.org/1999/xlink">
<g id="graph0" class="graph" transform="scale(1 1) rotate(0) translate(4 133)">
<title>Graphical Class Hierarchy</title>
<!-- Node0 -->
<g id="node1" class="node">
<title>Node0</title>
<g id="a_node1"><a xlink:href="classiDynTree_1_1SensorHelper.html" target="_top" xlink:title=" ">
<polygon fill="none" stroke="black" points="0,-55 0,-74 131,-74 131,-55 0,-55"/>
<text text-anchor="middle" x="65.5" y="-62" font-family="FreeSans.ttf" font-size="10.00">iDynTree::SensorHelper</text>
</a>
</g>
</g>
<!-- Node1 -->
<g id="node2" class="node">
<title>Node1</title>
<g id="a_node2"><a xlink:href="classiDynTree_1_1AccelerometerSensorHelper.html" target="_top" xlink:title=" ">
<polygon fill="none" stroke="black" points="167,-98.5 167,-128.5 337,-128.5 337,-98.5 167,-98.5"/>
<text text-anchor="start" x="175" y="-116.5" font-family="FreeSans.ttf" font-size="10.00">iDynTree::AccelerometerSensor</text>
<text text-anchor="middle" x="252" y="-105.5" font-family="FreeSans.ttf" font-size="10.00">Helper</text>
</a>
</g>
</g>
<!-- Node0&#45;&gt;Node1 -->
<g id="edge1" class="edge">
<title>Node0&#45;&gt;Node1</title>
<path fill="none" stroke="midnightblue" d="M112.4,-76.69C137.22,-83.28 168.08,-91.48 194.38,-98.46"/>
<polygon fill="midnightblue" stroke="midnightblue" points="113.07,-73.25 102.51,-74.06 111.28,-80.01 113.07,-73.25"/>
</g>
<!-- Node2 -->
<g id="node3" class="node">
<title>Node2</title>
<g id="a_node3"><a xlink:href="classiDynTree_1_1ForceTorqueSensorHelper.html" target="_top" xlink:title=" ">
<polygon fill="none" stroke="black" points="173.5,-49.5 173.5,-79.5 330.5,-79.5 330.5,-49.5 173.5,-49.5"/>
<text text-anchor="start" x="181.5" y="-67.5" font-family="FreeSans.ttf" font-size="10.00">iDynTree::ForceTorqueSensor</text>
<text text-anchor="middle" x="252" y="-56.5" font-family="FreeSans.ttf" font-size="10.00">Helper</text>
</a>
</g>
</g>
<!-- Node0&#45;&gt;Node2 -->
<g id="edge2" class="edge">
<title>Node0&#45;&gt;Node2</title>
<path fill="none" stroke="midnightblue" d="M141.06,-64.5C151.64,-64.5 162.54,-64.5 173.19,-64.5"/>
<polygon fill="midnightblue" stroke="midnightblue" points="141.03,-61 131.03,-64.5 141.03,-68 141.03,-61"/>
</g>
<!-- Node3 -->
<g id="node4" class="node">
<title>Node3</title>
<g id="a_node4"><a xlink:href="classiDynTree_1_1GyroscopeSensorHelper.html" target="_top" xlink:title=" ">
<polygon fill="none" stroke="black" points="177,-0.5 177,-30.5 327,-30.5 327,-0.5 177,-0.5"/>
<text text-anchor="start" x="185" y="-18.5" font-family="FreeSans.ttf" font-size="10.00">iDynTree::GyroscopeSensor</text>
<text text-anchor="middle" x="252" y="-7.5" font-family="FreeSans.ttf" font-size="10.00">Helper</text>
</a>
</g>
</g>
<!-- Node0&#45;&gt;Node3 -->
<g id="edge3" class="edge">
<title>Node0&#45;&gt;Node3</title>
<path fill="none" stroke="midnightblue" d="M112.4,-52.31C137.22,-45.72 168.08,-37.52 194.38,-30.54"/>
<polygon fill="midnightblue" stroke="midnightblue" points="111.28,-48.99 102.51,-54.94 113.07,-55.75 111.28,-48.99"/>
</g>
</g>
</svg>
