<?xml version="1.0" encoding="UTF-8" standalone="no"?>
<!DOCTYPE svg PUBLIC "-//W3C//DTD SVG 1.1//EN"
 "http://www.w3.org/Graphics/SVG/1.1/DTD/svg11.dtd">
<!-- Generated by graphviz version 2.43.0 (0)
 -->
<!-- Title: Graphical Class Hierarchy Pages: 1 -->
<svg width="446pt" height="142pt"
 viewBox="0.00 0.00 446.00 142.00" xmlns="http://www.w3.org/2000/svg" xmlns:xlink="http://www.w3.org/1999/xlink">
<g id="graph0" class="graph" transform="scale(1 1) rotate(0) translate(4 138)">
<title>Graphical Class Hierarchy</title>
<!-- Node0 -->
<g id="node1" class="node">
<title>Node0</title>
<g id="a_node1"><a xlink:href="classiDynTree_1_1VectorFixSize.html" target="_top" xlink:title="Class providing a simple vector of N elements.">
<polygon fill="none" stroke="black" points="0,-52 0,-82 131,-82 131,-52 0,-52"/>
<text text-anchor="start" x="8" y="-70" font-family="FreeSans.ttf" font-size="10.00">iDynTree::VectorFixSize</text>
<text text-anchor="middle" x="65.5" y="-59" font-family="FreeSans.ttf" font-size="10.00">&lt; VecSize &gt;</text>
</a>
</g>
</g>
<!-- Node1 -->
<g id="node2" class="node">
<title>Node1</title>
<g id="a_node2"><a xlink:href="classiDynTree_1_1ClassicalAcc.html" target="_top" xlink:title="Class representing a classical 6D acceleration, i.e.">
<polygon fill="none" stroke="black" points="169.5,-114.5 169.5,-133.5 295.5,-133.5 295.5,-114.5 169.5,-114.5"/>
<text text-anchor="middle" x="232.5" y="-121.5" font-family="FreeSans.ttf" font-size="10.00">iDynTree::ClassicalAcc</text>
</a>
</g>
</g>
<!-- Node0&#45;&gt;Node1 -->
<g id="edge1" class="edge">
<title>Node0&#45;&gt;Node1</title>
<path fill="none" stroke="midnightblue" d="M113.96,-85.78C130.64,-92.16 149.56,-99.14 167,-105 176.74,-108.27 187.4,-111.54 197.21,-114.42"/>
<polygon fill="midnightblue" stroke="midnightblue" points="115.03,-82.44 104.44,-82.11 112.51,-88.97 115.03,-82.44"/>
</g>
<!-- Node2 -->
<g id="node3" class="node">
<title>Node2</title>
<g id="a_node3"><a xlink:href="classiDynTree_1_1Direction.html" target="_top" xlink:title="Class representing the coordinates of a direction in the 3D space.">
<polygon fill="none" stroke="black" points="177.5,-76.5 177.5,-95.5 287.5,-95.5 287.5,-76.5 177.5,-76.5"/>
<text text-anchor="middle" x="232.5" y="-83.5" font-family="FreeSans.ttf" font-size="10.00">iDynTree::Direction</text>
</a>
</g>
</g>
<!-- Node0&#45;&gt;Node2 -->
<g id="edge2" class="edge">
<title>Node0&#45;&gt;Node2</title>
<path fill="none" stroke="midnightblue" d="M141.35,-75.62C153.48,-77.02 165.83,-78.44 177.34,-79.76"/>
<polygon fill="midnightblue" stroke="midnightblue" points="141.57,-72.12 131.24,-74.45 140.77,-79.08 141.57,-72.12"/>
</g>
<!-- Node3 -->
<g id="node4" class="node">
<title>Node3</title>
<g id="a_node4"><a xlink:href="classiDynTree_1_1GeomVector3.html" target="_top" xlink:title=" ">
<polygon fill="none" stroke="black" points="167,-38.5 167,-57.5 298,-57.5 298,-38.5 167,-38.5"/>
<text text-anchor="middle" x="232.5" y="-45.5" font-family="FreeSans.ttf" font-size="10.00">iDynTree::GeomVector3</text>
</a>
</g>
</g>
<!-- Node0&#45;&gt;Node3 -->
<g id="edge3" class="edge">
<title>Node0&#45;&gt;Node3</title>
<path fill="none" stroke="midnightblue" d="M141.24,-58.39C149.82,-57.41 158.52,-56.4 166.95,-55.43"/>
<polygon fill="midnightblue" stroke="midnightblue" points="140.77,-54.92 131.24,-59.55 141.57,-61.88 140.77,-54.92"/>
</g>
<!-- Node4 -->
<g id="node5" class="node">
<title>Node4</title>
<g id="a_node5"><a xlink:href="classiDynTree_1_1PositionRaw.html" target="_top" xlink:title="Class providing the raw coordinates for iDynTree::Position class.">
<polygon fill="none" stroke="black" points="170,-0.5 170,-19.5 295,-19.5 295,-0.5 170,-0.5"/>
<text text-anchor="middle" x="232.5" y="-7.5" font-family="FreeSans.ttf" font-size="10.00">iDynTree::PositionRaw</text>
</a>
</g>
</g>
<!-- Node0&#45;&gt;Node4 -->
<g id="edge4" class="edge">
<title>Node0&#45;&gt;Node4</title>
<path fill="none" stroke="midnightblue" d="M113.96,-48.22C130.64,-41.84 149.56,-34.86 167,-29 176.74,-25.73 187.4,-22.46 197.21,-19.58"/>
<polygon fill="midnightblue" stroke="midnightblue" points="112.51,-45.03 104.44,-51.89 115.03,-51.56 112.51,-45.03"/>
</g>
<!-- Node5 -->
<g id="node6" class="node">
<title>Node5</title>
<g id="a_node6"><a xlink:href="classiDynTree_1_1Position.html" target="_top" xlink:title="Class representation the coordinates of the Position of a point with respect to another point.">
<polygon fill="none" stroke="black" points="334,-0.5 334,-19.5 438,-19.5 438,-0.5 334,-0.5"/>
<text text-anchor="middle" x="386" y="-7.5" font-family="FreeSans.ttf" font-size="10.00">iDynTree::Position</text>
</a>
</g>
</g>
<!-- Node4&#45;&gt;Node5 -->
<g id="edge5" class="edge">
<title>Node4&#45;&gt;Node5</title>
<path fill="none" stroke="midnightblue" d="M305.39,-10C314.92,-10 324.52,-10 333.6,-10"/>
<polygon fill="midnightblue" stroke="midnightblue" points="305.12,-6.5 295.12,-10 305.12,-13.5 305.12,-6.5"/>
</g>
</g>
</svg>
