<?xml version="1.0" encoding="UTF-8" standalone="no"?>
<!DOCTYPE svg PUBLIC "-//W3C//DTD SVG 1.1//EN"
 "http://www.w3.org/Graphics/SVG/1.1/DTD/svg11.dtd">
<!-- Generated by graphviz version 2.43.0 (0)
 -->
<!-- Title: Graphical Class Hierarchy Pages: 1 -->
<svg width="342pt" height="66pt"
 viewBox="0.00 0.00 342.00 66.00" xmlns="http://www.w3.org/2000/svg" xmlns:xlink="http://www.w3.org/1999/xlink">
<g id="graph0" class="graph" transform="scale(1 1) rotate(0) translate(4 62)">
<title>Graphical Class Hierarchy</title>
<!-- Node0 -->
<g id="node1" class="node">
<title>Node0</title>
<g id="a_node1"><a xlink:href="classiDynTree_1_1IEnvironment.html" target="_top" xlink:title="Interface to manipulate the elements in the enviroment (background, root frame, reference lines)">
<polygon fill="none" stroke="black" points="0,-19.5 0,-38.5 131,-38.5 131,-19.5 0,-19.5"/>
<text text-anchor="middle" x="65.5" y="-26.5" font-family="FreeSans.ttf" font-size="10.00">iDynTree::IEnvironment</text>
</a>
</g>
</g>
<!-- Node1 -->
<g id="node2" class="node">
<title>Node1</title>
<g id="a_node2"><a xlink:href="classiDynTree_1_1DummyEnvironment.html" target="_top" xlink:title="Dummy environment.">
<polygon fill="none" stroke="black" points="167,-38.5 167,-57.5 334,-57.5 334,-38.5 167,-38.5"/>
<text text-anchor="middle" x="250.5" y="-45.5" font-family="FreeSans.ttf" font-size="10.00">iDynTree::DummyEnvironment</text>
</a>
</g>
</g>
<!-- Node0&#45;&gt;Node1 -->
<g id="edge1" class="edge">
<title>Node0&#45;&gt;Node1</title>
<path fill="none" stroke="midnightblue" d="M141.24,-36.76C149.72,-37.64 158.4,-38.54 166.97,-39.43"/>
<polygon fill="midnightblue" stroke="midnightblue" points="141.33,-33.25 131.02,-35.7 140.6,-40.21 141.33,-33.25"/>
</g>
<!-- Node2 -->
<g id="node3" class="node">
<title>Node2</title>
<g id="a_node3"><a xlink:href="classiDynTree_1_1Environment.html" target="_top" xlink:title=" ">
<polygon fill="none" stroke="black" points="186.5,-0.5 186.5,-19.5 314.5,-19.5 314.5,-0.5 186.5,-0.5"/>
<text text-anchor="middle" x="250.5" y="-7.5" font-family="FreeSans.ttf" font-size="10.00">iDynTree::Environment</text>
</a>
</g>
</g>
<!-- Node0&#45;&gt;Node2 -->
<g id="edge2" class="edge">
<title>Node0&#45;&gt;Node2</title>
<path fill="none" stroke="midnightblue" d="M141.29,-21.23C156.3,-19.68 171.93,-18.05 186.49,-16.54"/>
<polygon fill="midnightblue" stroke="midnightblue" points="140.6,-17.79 131.02,-22.3 141.33,-24.75 140.6,-17.79"/>
</g>
</g>
</svg>
