<?xml version="1.0" encoding="UTF-8" standalone="no"?>
<!DOCTYPE svg PUBLIC "-//W3C//DTD SVG 1.1//EN"
 "http://www.w3.org/Graphics/SVG/1.1/DTD/svg11.dtd">
<!-- Generated by graphviz version 2.43.0 (0)
 -->
<!-- Title: Integrator.cpp Pages: 1 -->
<svg width="1695pt" height="599pt"
 viewBox="0.00 0.00 1695.29 599.00" xmlns="http://www.w3.org/2000/svg" xmlns:xlink="http://www.w3.org/1999/xlink">
<g id="graph0" class="graph" transform="scale(1 1) rotate(0) translate(4 595)">
<title>Integrator.cpp</title>
<!-- Node1 -->
<g id="node1" class="node">
<title>Node1</title>
<g id="a_node1"><a xlink:title=" ">
<polygon fill="#bfbfbf" stroke="black" points="1130.29,-571.5 1130.29,-590.5 1214.29,-590.5 1214.29,-571.5 1130.29,-571.5"/>
<text text-anchor="middle" x="1172.29" y="-578.5" font-family="FreeSans.ttf" font-size="10.00">Integrator.cpp</text>
</a>
</g>
</g>
<!-- Node2 -->
<g id="node2" class="node">
<title>Node2</title>
<g id="a_node2"><a xlink:href="Integrator_8h.html" target="_top" xlink:title=" ">
<polygon fill="none" stroke="black" points="105.79,-224.5 105.79,-243.5 224.79,-243.5 224.79,-224.5 105.79,-224.5"/>
<text text-anchor="middle" x="165.29" y="-231.5" font-family="FreeSans.ttf" font-size="10.00">iDynTree/Integrator.h</text>
</a>
</g>
</g>
<!-- Node1&#45;&gt;Node2 -->
<g id="edge1" class="edge">
<title>Node1&#45;&gt;Node2</title>
<path fill="none" stroke="midnightblue" d="M1130.02,-580.14C958.22,-580.41 317.81,-578.48 239.29,-535 205.91,-516.51 190.29,-502.66 190.29,-464.5 190.29,-464.5 190.29,-464.5 190.29,-345 190.29,-312 179.46,-274.77 172.06,-253.19"/>
<polygon fill="midnightblue" stroke="midnightblue" points="175.32,-251.93 168.67,-243.69 168.73,-254.28 175.32,-251.93"/>
</g>
<!-- Node5 -->
<g id="node5" class="node">
<title>Node5</title>
<g id="a_node5"><a xlink:title=" ">
<polygon fill="none" stroke="#bfbfbf" points="1179.29,-0.5 1179.29,-19.5 1231.29,-19.5 1231.29,-0.5 1179.29,-0.5"/>
<text text-anchor="middle" x="1205.29" y="-7.5" font-family="FreeSans.ttf" font-size="10.00">cassert</text>
</a>
</g>
</g>
<!-- Node1&#45;&gt;Node5 -->
<g id="edge90" class="edge">
<title>Node1&#45;&gt;Node5</title>
<path fill="none" stroke="midnightblue" d="M1214.4,-578.57C1307.96,-574.9 1530.27,-563.39 1599.29,-535 1645.64,-515.94 1687.29,-514.61 1687.29,-464.5 1687.29,-464.5 1687.29,-464.5 1687.29,-121 1687.29,-29.64 1353.98,-14.16 1241.71,-11.54"/>
<polygon fill="midnightblue" stroke="midnightblue" points="1241.62,-8.03 1231.55,-11.32 1241.47,-15.03 1241.62,-8.03"/>
</g>
<!-- Node8 -->
<g id="node8" class="node">
<title>Node8</title>
<g id="a_node8"><a xlink:title=" ">
<polygon fill="none" stroke="#bfbfbf" points="417.79,-0.5 417.79,-19.5 470.79,-19.5 470.79,-0.5 417.79,-0.5"/>
<text text-anchor="middle" x="444.29" y="-7.5" font-family="FreeSans.ttf" font-size="10.00">cstddef</text>
</a>
</g>
</g>
<!-- Node1&#45;&gt;Node8 -->
<g id="edge91" class="edge">
<title>Node1&#45;&gt;Node8</title>
<path fill="none" stroke="midnightblue" d="M1130.12,-579.2C949.85,-575.23 253.29,-554.1 253.29,-464.5 253.29,-464.5 253.29,-464.5 253.29,-289 253.29,-258.9 256.77,-249.79 272.29,-224 284.12,-204.34 294.07,-205.17 309.29,-188 358.53,-132.46 409.87,-60.64 432.44,-28.22"/>
<polygon fill="midnightblue" stroke="midnightblue" points="435.44,-30.04 438.26,-19.83 429.69,-26.06 435.44,-30.04"/>
</g>
<!-- Node17 -->
<g id="node17" class="node">
<title>Node17</title>
<g id="a_node17"><a xlink:href="Utils_8h.html" target="_top" xlink:title=" ">
<polygon fill="none" stroke="black" points="1057.79,-56.5 1057.79,-75.5 1176.79,-75.5 1176.79,-56.5 1057.79,-56.5"/>
<text text-anchor="middle" x="1117.29" y="-63.5" font-family="FreeSans.ttf" font-size="10.00">iDynTree/Core/Utils.h</text>
</a>
</g>
</g>
<!-- Node1&#45;&gt;Node17 -->
<g id="edge36" class="edge">
<title>Node1&#45;&gt;Node17</title>
<path fill="none" stroke="midnightblue" d="M1214.52,-577.81C1300.76,-572.9 1494.14,-559.44 1555.29,-535 1603.79,-515.62 1649.29,-516.72 1649.29,-464.5 1649.29,-464.5 1649.29,-464.5 1649.29,-177 1649.29,-133.56 1616.09,-129.42 1576.29,-112 1508.28,-82.23 1297.91,-71.97 1187.15,-68.59"/>
<polygon fill="midnightblue" stroke="midnightblue" points="1187.17,-65.08 1177.07,-68.29 1186.96,-72.08 1187.17,-65.08"/>
</g>
<!-- Node24 -->
<g id="node24" class="node">
<title>Node24</title>
<g id="a_node24"><a xlink:href="DynamicalSystem_8h.html" target="_top" xlink:title=" ">
<polygon fill="none" stroke="black" points="281.79,-224.5 281.79,-243.5 442.79,-243.5 442.79,-224.5 281.79,-224.5"/>
<text text-anchor="middle" x="362.29" y="-231.5" font-family="FreeSans.ttf" font-size="10.00">iDynTree/DynamicalSystem.h</text>
</a>
</g>
</g>
<!-- Node1&#45;&gt;Node24 -->
<g id="edge33" class="edge">
<title>Node1&#45;&gt;Node24</title>
<path fill="none" stroke="midnightblue" d="M1130.13,-578.2C968.61,-570.74 398.29,-539.14 398.29,-464.5 398.29,-464.5 398.29,-464.5 398.29,-345 398.29,-310.98 382.55,-273.85 371.89,-252.6"/>
<polygon fill="midnightblue" stroke="midnightblue" points="374.88,-250.77 367.15,-243.53 368.67,-254.01 374.88,-250.77"/>
</g>
<!-- Node25 -->
<g id="node25" class="node">
<title>Node25</title>
<g id="a_node25"><a xlink:href="EigenHelpers_8h.html" target="_top" xlink:title=" ">
<polygon fill="none" stroke="black" points="1091.79,-515.5 1091.79,-534.5 1252.79,-534.5 1252.79,-515.5 1091.79,-515.5"/>
<text text-anchor="middle" x="1172.29" y="-522.5" font-family="FreeSans.ttf" font-size="10.00">iDynTree/Core/EigenHelpers.h</text>
</a>
</g>
</g>
<!-- Node1&#45;&gt;Node25 -->
<g id="edge37" class="edge">
<title>Node1&#45;&gt;Node25</title>
<path fill="none" stroke="midnightblue" d="M1172.29,-571.08C1172.29,-564.01 1172.29,-553.86 1172.29,-544.99"/>
<polygon fill="midnightblue" stroke="midnightblue" points="1175.79,-544.75 1172.29,-534.75 1168.79,-544.75 1175.79,-544.75"/>
</g>
<!-- Node28 -->
<g id="node28" class="node">
<title>Node28</title>
<g id="a_node28"><a xlink:title=" ">
<polygon fill="none" stroke="#bfbfbf" points="1451.29,-112.5 1451.29,-131.5 1507.29,-131.5 1507.29,-112.5 1451.29,-112.5"/>
<text text-anchor="middle" x="1479.29" y="-119.5" font-family="FreeSans.ttf" font-size="10.00">sstream</text>
</a>
</g>
</g>
<!-- Node1&#45;&gt;Node28 -->
<g id="edge92" class="edge">
<title>Node1&#45;&gt;Node28</title>
<path fill="none" stroke="midnightblue" d="M1214.39,-577.89C1324.27,-571.24 1611.29,-546.07 1611.29,-464.5 1611.29,-464.5 1611.29,-464.5 1611.29,-401 1611.29,-292.26 1527.86,-180.71 1493.66,-139.55"/>
<polygon fill="midnightblue" stroke="midnightblue" points="1496.29,-137.23 1487.16,-131.86 1490.94,-141.75 1496.29,-137.23"/>
</g>
<!-- Node3 -->
<g id="node3" class="node">
<title>Node3</title>
<g id="a_node3"><a xlink:href="VectorDynSize_8h.html" target="_top" xlink:title=" ">
<polygon fill="none" stroke="black" points="432.79,-168.5 432.79,-187.5 599.79,-187.5 599.79,-168.5 432.79,-168.5"/>
<text text-anchor="middle" x="516.29" y="-175.5" font-family="FreeSans.ttf" font-size="10.00">iDynTree/Core/VectorDynSize.h</text>
</a>
</g>
</g>
<!-- Node2&#45;&gt;Node3 -->
<g id="edge2" class="edge">
<title>Node2&#45;&gt;Node3</title>
<path fill="none" stroke="midnightblue" d="M220.91,-224.44C283.43,-214.83 384.81,-199.23 451.03,-189.04"/>
<polygon fill="midnightblue" stroke="midnightblue" points="451.59,-192.5 460.94,-187.52 450.52,-185.58 451.59,-192.5"/>
</g>
<!-- Node14 -->
<g id="node14" class="node">
<title>Node14</title>
<g id="a_node14"><a xlink:title=" ">
<polygon fill="none" stroke="#bfbfbf" points="681.29,-112.5 681.29,-131.5 725.29,-131.5 725.29,-112.5 681.29,-112.5"/>
<text text-anchor="middle" x="703.29" y="-119.5" font-family="FreeSans.ttf" font-size="10.00">string</text>
</a>
</g>
</g>
<!-- Node2&#45;&gt;Node14 -->
<g id="edge30" class="edge">
<title>Node2&#45;&gt;Node14</title>
<path fill="none" stroke="midnightblue" d="M195.68,-224.43C243.71,-211.08 340.27,-185.09 423.29,-168 512.4,-149.65 618.74,-134.35 671.02,-127.25"/>
<polygon fill="midnightblue" stroke="midnightblue" points="671.59,-130.71 681.03,-125.9 670.65,-123.77 671.59,-130.71"/>
</g>
<!-- Node15 -->
<g id="node15" class="node">
<title>Node15</title>
<g id="a_node15"><a xlink:href="MatrixDynSize_8h.html" target="_top" xlink:title=" ">
<polygon fill="none" stroke="black" points="860.29,-168.5 860.29,-187.5 1028.29,-187.5 1028.29,-168.5 860.29,-168.5"/>
<text text-anchor="middle" x="944.29" y="-175.5" font-family="FreeSans.ttf" font-size="10.00">iDynTree/Core/MatrixDynSize.h</text>
</a>
</g>
</g>
<!-- Node2&#45;&gt;Node15 -->
<g id="edge14" class="edge">
<title>Node2&#45;&gt;Node15</title>
<path fill="none" stroke="midnightblue" d="M224.99,-227.8C240.39,-226.5 256.96,-225.16 272.29,-224 478.19,-208.45 719.8,-192.94 849.87,-184.81"/>
<polygon fill="midnightblue" stroke="midnightblue" points="850.42,-188.29 860.19,-184.17 849.99,-181.3 850.42,-188.29"/>
</g>
<!-- Node19 -->
<g id="node19" class="node">
<title>Node19</title>
<g id="a_node19"><a xlink:href="SparsityStructure_8h.html" target="_top" xlink:title=" ">
<polygon fill="none" stroke="black" points="145.79,-168.5 145.79,-187.5 300.79,-187.5 300.79,-168.5 145.79,-168.5"/>
<text text-anchor="middle" x="223.29" y="-175.5" font-family="FreeSans.ttf" font-size="10.00">iDynTree/SparsityStructure.h</text>
</a>
</g>
</g>
<!-- Node2&#45;&gt;Node19 -->
<g id="edge23" class="edge">
<title>Node2&#45;&gt;Node19</title>
<path fill="none" stroke="midnightblue" d="M174.61,-224.32C183.19,-216.34 196.11,-204.31 206.48,-194.65"/>
<polygon fill="midnightblue" stroke="midnightblue" points="208.87,-197.21 213.81,-187.83 204.1,-192.09 208.87,-197.21"/>
</g>
<!-- Node20 -->
<g id="node20" class="node">
<title>Node20</title>
<g id="a_node20"><a xlink:title=" ">
<polygon fill="none" stroke="#bfbfbf" points="17.79,-112.5 17.79,-131.5 64.79,-131.5 64.79,-112.5 17.79,-112.5"/>
<text text-anchor="middle" x="41.29" y="-119.5" font-family="FreeSans.ttf" font-size="10.00">vector</text>
</a>
</g>
</g>
<!-- Node2&#45;&gt;Node20 -->
<g id="edge29" class="edge">
<title>Node2&#45;&gt;Node20</title>
<path fill="none" stroke="midnightblue" d="M108.33,-224.49C67.32,-217.06 17.06,-204.82 4.29,-188 -7.69,-172.2 7.79,-152.12 22.23,-138.49"/>
<polygon fill="midnightblue" stroke="midnightblue" points="24.8,-140.89 29.97,-131.65 20.16,-135.65 24.8,-140.89"/>
</g>
<!-- Node22 -->
<g id="node22" class="node">
<title>Node22</title>
<g id="a_node22"><a xlink:title=" ">
<polygon fill="none" stroke="#bfbfbf" points="69.29,-168.5 69.29,-187.5 127.29,-187.5 127.29,-168.5 69.29,-168.5"/>
<text text-anchor="middle" x="98.29" y="-175.5" font-family="FreeSans.ttf" font-size="10.00">memory</text>
</a>
</g>
</g>
<!-- Node2&#45;&gt;Node22 -->
<g id="edge31" class="edge">
<title>Node2&#45;&gt;Node22</title>
<path fill="none" stroke="midnightblue" d="M154.53,-224.32C144.53,-216.26 129.41,-204.08 117.36,-194.37"/>
<polygon fill="midnightblue" stroke="midnightblue" points="119.24,-191.38 109.25,-187.83 114.84,-196.83 119.24,-191.38"/>
</g>
<!-- Node23 -->
<g id="node23" class="node">
<title>Node23</title>
<g id="a_node23"><a xlink:title=" ">
<polygon fill="none" stroke="#bfbfbf" points="13.29,-168.5 13.29,-187.5 51.29,-187.5 51.29,-168.5 13.29,-168.5"/>
<text text-anchor="middle" x="32.29" y="-175.5" font-family="FreeSans.ttf" font-size="10.00">map</text>
</a>
</g>
</g>
<!-- Node2&#45;&gt;Node23 -->
<g id="edge32" class="edge">
<title>Node2&#45;&gt;Node23</title>
<path fill="none" stroke="midnightblue" d="M144.22,-224.44C121.72,-215.31 85.92,-200.77 60.89,-190.61"/>
<polygon fill="midnightblue" stroke="midnightblue" points="62.12,-187.33 51.54,-186.82 59.49,-193.82 62.12,-187.33"/>
</g>
<!-- Node4 -->
<g id="node4" class="node">
<title>Node4</title>
<g id="a_node4"><a xlink:href="Span_8h.html" target="_top" xlink:title=" ">
<polygon fill="none" stroke="black" points="813.79,-56.5 813.79,-75.5 934.79,-75.5 934.79,-56.5 813.79,-56.5"/>
<text text-anchor="middle" x="874.29" y="-63.5" font-family="FreeSans.ttf" font-size="10.00">iDynTree/Core/Span.h</text>
</a>
</g>
</g>
<!-- Node3&#45;&gt;Node4 -->
<g id="edge3" class="edge">
<title>Node3&#45;&gt;Node4</title>
<path fill="none" stroke="midnightblue" d="M534.16,-168.34C562.76,-154.76 620.83,-128.31 672.29,-112 719.34,-97.09 774.05,-85.22 814.66,-77.43"/>
<polygon fill="midnightblue" stroke="midnightblue" points="815.5,-80.83 824.67,-75.53 814.2,-73.95 815.5,-80.83"/>
</g>
<!-- Node3&#45;&gt;Node14 -->
<g id="edge13" class="edge">
<title>Node3&#45;&gt;Node14</title>
<path fill="none" stroke="midnightblue" d="M545.92,-168.44C580.14,-158.56 636.2,-142.37 671.36,-132.22"/>
<polygon fill="midnightblue" stroke="midnightblue" points="672.49,-135.54 681.12,-129.4 670.54,-128.81 672.49,-135.54"/>
</g>
<!-- Node4&#45;&gt;Node5 -->
<g id="edge4" class="edge">
<title>Node4&#45;&gt;Node5</title>
<path fill="none" stroke="midnightblue" d="M934.92,-56.99C994.13,-48.85 1086.71,-35.29 1166.29,-20 1167.19,-19.83 1168.1,-19.65 1169.01,-19.47"/>
<polygon fill="midnightblue" stroke="midnightblue" points="1169.86,-22.86 1178.92,-17.36 1168.41,-16.02 1169.86,-22.86"/>
</g>
<!-- Node6 -->
<g id="node6" class="node">
<title>Node6</title>
<g id="a_node6"><a xlink:title=" ">
<polygon fill="none" stroke="#bfbfbf" points="708.29,-0.5 708.29,-19.5 772.29,-19.5 772.29,-0.5 708.29,-0.5"/>
<text text-anchor="middle" x="740.29" y="-7.5" font-family="FreeSans.ttf" font-size="10.00">algorithm</text>
</a>
</g>
</g>
<!-- Node4&#45;&gt;Node6 -->
<g id="edge5" class="edge">
<title>Node4&#45;&gt;Node6</title>
<path fill="none" stroke="midnightblue" d="M853.06,-56.44C830.91,-47.52 795.98,-33.44 770.86,-23.32"/>
<polygon fill="midnightblue" stroke="midnightblue" points="772.01,-20.01 761.43,-19.52 769.39,-26.5 772.01,-20.01"/>
</g>
<!-- Node7 -->
<g id="node7" class="node">
<title>Node7</title>
<g id="a_node7"><a xlink:title=" ">
<polygon fill="none" stroke="#bfbfbf" points="790.29,-0.5 790.29,-19.5 832.29,-19.5 832.29,-0.5 790.29,-0.5"/>
<text text-anchor="middle" x="811.29" y="-7.5" font-family="FreeSans.ttf" font-size="10.00">array</text>
</a>
</g>
</g>
<!-- Node4&#45;&gt;Node7 -->
<g id="edge6" class="edge">
<title>Node4&#45;&gt;Node7</title>
<path fill="none" stroke="midnightblue" d="M864.17,-56.32C854.77,-48.26 840.55,-36.08 829.22,-26.37"/>
<polygon fill="midnightblue" stroke="midnightblue" points="831.47,-23.68 821.6,-19.83 826.91,-29 831.47,-23.68"/>
</g>
<!-- Node4&#45;&gt;Node8 -->
<g id="edge7" class="edge">
<title>Node4&#45;&gt;Node8</title>
<path fill="none" stroke="midnightblue" d="M813.6,-57.38C723.13,-46.02 555.63,-24.98 481.38,-15.66"/>
<polygon fill="midnightblue" stroke="midnightblue" points="481.48,-12.14 471.12,-14.37 480.61,-19.09 481.48,-12.14"/>
</g>
<!-- Node9 -->
<g id="node9" class="node">
<title>Node9</title>
<g id="a_node9"><a xlink:title=" ">
<polygon fill="none" stroke="#bfbfbf" points="850.79,-0.5 850.79,-19.5 903.79,-19.5 903.79,-0.5 850.79,-0.5"/>
<text text-anchor="middle" x="877.29" y="-7.5" font-family="FreeSans.ttf" font-size="10.00">iterator</text>
</a>
</g>
</g>
<!-- Node4&#45;&gt;Node9 -->
<g id="edge8" class="edge">
<title>Node4&#45;&gt;Node9</title>
<path fill="none" stroke="midnightblue" d="M874.79,-56.08C875.18,-49.01 875.75,-38.86 876.24,-29.99"/>
<polygon fill="midnightblue" stroke="midnightblue" points="879.75,-29.93 876.81,-19.75 872.76,-29.54 879.75,-29.93"/>
</g>
<!-- Node10 -->
<g id="node10" class="node">
<title>Node10</title>
<g id="a_node10"><a xlink:title=" ">
<polygon fill="none" stroke="#bfbfbf" points="922.29,-0.5 922.29,-19.5 966.29,-19.5 966.29,-0.5 922.29,-0.5"/>
<text text-anchor="middle" x="944.29" y="-7.5" font-family="FreeSans.ttf" font-size="10.00">limits</text>
</a>
</g>
</g>
<!-- Node4&#45;&gt;Node10 -->
<g id="edge9" class="edge">
<title>Node4&#45;&gt;Node10</title>
<path fill="none" stroke="midnightblue" d="M885.54,-56.32C896.09,-48.18 912.09,-35.84 924.74,-26.09"/>
<polygon fill="midnightblue" stroke="midnightblue" points="927.06,-28.71 932.84,-19.83 922.79,-23.17 927.06,-28.71"/>
</g>
<!-- Node11 -->
<g id="node11" class="node">
<title>Node11</title>
<g id="a_node11"><a xlink:title=" ">
<polygon fill="none" stroke="#bfbfbf" points="561.79,-0.5 561.79,-19.5 626.79,-19.5 626.79,-0.5 561.79,-0.5"/>
<text text-anchor="middle" x="594.29" y="-7.5" font-family="FreeSans.ttf" font-size="10.00">stdexcept</text>
</a>
</g>
</g>
<!-- Node4&#45;&gt;Node11 -->
<g id="edge10" class="edge">
<title>Node4&#45;&gt;Node11</title>
<path fill="none" stroke="midnightblue" d="M826.6,-56.45C780.47,-48.09 708.33,-34.76 637.01,-20.31"/>
<polygon fill="midnightblue" stroke="midnightblue" points="637.45,-16.82 626.95,-18.26 636.05,-23.68 637.45,-16.82"/>
</g>
<!-- Node12 -->
<g id="node12" class="node">
<title>Node12</title>
<g id="a_node12"><a xlink:title=" ">
<polygon fill="none" stroke="#bfbfbf" points="984.79,-0.5 984.79,-19.5 1053.79,-19.5 1053.79,-0.5 984.79,-0.5"/>
<text text-anchor="middle" x="1019.29" y="-7.5" font-family="FreeSans.ttf" font-size="10.00">type_traits</text>
</a>
</g>
</g>
<!-- Node4&#45;&gt;Node12 -->
<g id="edge11" class="edge">
<title>Node4&#45;&gt;Node12</title>
<path fill="none" stroke="midnightblue" d="M897.27,-56.44C921.45,-47.44 959.71,-33.19 986.94,-23.05"/>
<polygon fill="midnightblue" stroke="midnightblue" points="988.28,-26.29 996.43,-19.52 985.83,-19.73 988.28,-26.29"/>
</g>
<!-- Node13 -->
<g id="node13" class="node">
<title>Node13</title>
<g id="a_node13"><a xlink:title=" ">
<polygon fill="none" stroke="#bfbfbf" points="644.79,-0.5 644.79,-19.5 689.79,-19.5 689.79,-0.5 644.79,-0.5"/>
<text text-anchor="middle" x="667.29" y="-7.5" font-family="FreeSans.ttf" font-size="10.00">utility</text>
</a>
</g>
</g>
<!-- Node4&#45;&gt;Node13 -->
<g id="edge12" class="edge">
<title>Node4&#45;&gt;Node13</title>
<path fill="none" stroke="midnightblue" d="M840.03,-56.43C806.71,-48.04 754.41,-34.74 699.85,-20.1"/>
<polygon fill="midnightblue" stroke="midnightblue" points="700.57,-16.67 690,-17.45 698.75,-23.43 700.57,-16.67"/>
</g>
<!-- Node15&#45;&gt;Node14 -->
<g id="edge15" class="edge">
<title>Node15&#45;&gt;Node14</title>
<path fill="none" stroke="midnightblue" d="M906.11,-168.44C858.92,-157.87 779.49,-140.07 735.33,-130.18"/>
<polygon fill="midnightblue" stroke="midnightblue" points="735.95,-126.73 725.43,-127.96 734.42,-133.56 735.95,-126.73"/>
</g>
<!-- Node16 -->
<g id="node16" class="node">
<title>Node16</title>
<g id="a_node16"><a xlink:href="MatrixView_8h.html" target="_top" xlink:title=" ">
<polygon fill="none" stroke="black" points="945.29,-112.5 945.29,-131.5 1097.29,-131.5 1097.29,-112.5 945.29,-112.5"/>
<text text-anchor="middle" x="1021.29" y="-119.5" font-family="FreeSans.ttf" font-size="10.00">iDynTree/Core/MatrixView.h</text>
</a>
</g>
</g>
<!-- Node15&#45;&gt;Node16 -->
<g id="edge16" class="edge">
<title>Node15&#45;&gt;Node16</title>
<path fill="none" stroke="midnightblue" d="M956.67,-168.32C968.45,-160.06 986.43,-147.45 1000.43,-137.63"/>
<polygon fill="midnightblue" stroke="midnightblue" points="1002.78,-140.26 1008.95,-131.65 998.76,-134.53 1002.78,-140.26"/>
</g>
<!-- Node16&#45;&gt;Node4 -->
<g id="edge19" class="edge">
<title>Node16&#45;&gt;Node4</title>
<path fill="none" stroke="midnightblue" d="M998,-112.44C973.49,-103.44 934.7,-89.19 907.09,-79.05"/>
<polygon fill="midnightblue" stroke="midnightblue" points="908.07,-75.68 897.48,-75.52 905.66,-82.25 908.07,-75.68"/>
</g>
<!-- Node16&#45;&gt;Node5 -->
<g id="edge17" class="edge">
<title>Node16&#45;&gt;Node5</title>
<path fill="none" stroke="midnightblue" d="M1022.44,-112.47C1024.76,-98.58 1031.33,-71.12 1048.29,-56 1057.43,-47.86 1125.66,-30.23 1169.11,-19.61"/>
<polygon fill="midnightblue" stroke="midnightblue" points="1170.15,-22.96 1179.04,-17.2 1168.5,-16.16 1170.15,-22.96"/>
</g>
<!-- Node16&#45;&gt;Node12 -->
<g id="edge18" class="edge">
<title>Node16&#45;&gt;Node12</title>
<path fill="none" stroke="midnightblue" d="M1019.8,-112.41C1018.32,-103.38 1016.14,-88.74 1015.29,-76 1014.26,-60.47 1015.5,-42.84 1016.86,-29.87"/>
<polygon fill="midnightblue" stroke="midnightblue" points="1020.35,-30.17 1018.03,-19.83 1013.4,-29.36 1020.35,-30.17"/>
</g>
<!-- Node16&#45;&gt;Node17 -->
<g id="edge20" class="edge">
<title>Node16&#45;&gt;Node17</title>
<path fill="none" stroke="midnightblue" d="M1036.72,-112.32C1051.83,-103.82 1075.11,-90.73 1092.77,-80.8"/>
<polygon fill="midnightblue" stroke="midnightblue" points="1094.91,-83.61 1101.91,-75.65 1091.48,-77.51 1094.91,-83.61"/>
</g>
<!-- Node17&#45;&gt;Node8 -->
<g id="edge21" class="edge">
<title>Node17&#45;&gt;Node8</title>
<path fill="none" stroke="midnightblue" d="M1057.5,-60.31C954.37,-52.21 736.43,-35.01 552.29,-20 528.55,-18.07 501.88,-15.84 480.98,-14.09"/>
<polygon fill="midnightblue" stroke="midnightblue" points="481.18,-10.6 470.92,-13.25 480.59,-17.57 481.18,-10.6"/>
</g>
<!-- Node18 -->
<g id="node18" class="node">
<title>Node18</title>
<g id="a_node18"><a xlink:title=" ">
<polygon fill="none" stroke="#bfbfbf" points="1077.29,-0.5 1077.29,-19.5 1157.29,-19.5 1157.29,-0.5 1077.29,-0.5"/>
<text text-anchor="middle" x="1117.29" y="-7.5" font-family="FreeSans.ttf" font-size="10.00">CoreExport.h</text>
</a>
</g>
</g>
<!-- Node17&#45;&gt;Node18 -->
<g id="edge22" class="edge">
<title>Node17&#45;&gt;Node18</title>
<path fill="none" stroke="midnightblue" d="M1117.29,-56.08C1117.29,-49.01 1117.29,-38.86 1117.29,-29.99"/>
<polygon fill="midnightblue" stroke="midnightblue" points="1120.79,-29.75 1117.29,-19.75 1113.79,-29.75 1120.79,-29.75"/>
</g>
<!-- Node19&#45;&gt;Node8 -->
<g id="edge26" class="edge">
<title>Node19&#45;&gt;Node8</title>
<path fill="none" stroke="midnightblue" d="M227.58,-168.29C238.86,-146.26 271.52,-87.79 315.29,-56 342.95,-35.91 380.34,-24.18 407.75,-17.76"/>
<polygon fill="midnightblue" stroke="midnightblue" points="408.71,-21.14 417.72,-15.56 407.2,-14.3 408.71,-21.14"/>
</g>
<!-- Node19&#45;&gt;Node14 -->
<g id="edge28" class="edge">
<title>Node19&#45;&gt;Node14</title>
<path fill="none" stroke="midnightblue" d="M299.09,-168.47C405.6,-156.49 595,-135.18 670.71,-126.67"/>
<polygon fill="midnightblue" stroke="midnightblue" points="671.48,-130.1 681.03,-125.5 670.7,-123.14 671.48,-130.1"/>
</g>
<!-- Node19&#45;&gt;Node17 -->
<g id="edge24" class="edge">
<title>Node19&#45;&gt;Node17</title>
<path fill="none" stroke="midnightblue" d="M277.1,-168.45C361.26,-155.24 529.23,-129.58 672.29,-112 804.63,-95.74 959.63,-81.05 1047.36,-73.13"/>
<polygon fill="midnightblue" stroke="midnightblue" points="1047.81,-76.61 1057.46,-72.23 1047.19,-69.64 1047.81,-76.61"/>
</g>
<!-- Node19&#45;&gt;Node20 -->
<g id="edge25" class="edge">
<title>Node19&#45;&gt;Node20</title>
<path fill="none" stroke="midnightblue" d="M194.46,-168.44C162.03,-158.82 109.42,-143.21 75.09,-133.03"/>
<polygon fill="midnightblue" stroke="midnightblue" points="75.65,-129.54 65.07,-130.05 73.66,-136.25 75.65,-129.54"/>
</g>
<!-- Node21 -->
<g id="node21" class="node">
<title>Node21</title>
<g id="a_node21"><a xlink:title=" ">
<polygon fill="none" stroke="#bfbfbf" points="139.29,-112.5 139.29,-131.5 225.29,-131.5 225.29,-112.5 139.29,-112.5"/>
<text text-anchor="middle" x="182.29" y="-119.5" font-family="FreeSans.ttf" font-size="10.00">unordered_set</text>
</a>
</g>
</g>
<!-- Node19&#45;&gt;Node21 -->
<g id="edge27" class="edge">
<title>Node19&#45;&gt;Node21</title>
<path fill="none" stroke="midnightblue" d="M216.52,-168.08C210.73,-160.46 202.24,-149.26 195.16,-139.94"/>
<polygon fill="midnightblue" stroke="midnightblue" points="197.77,-137.6 188.94,-131.75 192.2,-141.83 197.77,-137.6"/>
</g>
<!-- Node24&#45;&gt;Node3 -->
<g id="edge34" class="edge">
<title>Node24&#45;&gt;Node3</title>
<path fill="none" stroke="midnightblue" d="M386.7,-224.44C412.49,-215.4 453.37,-201.06 482.31,-190.92"/>
<polygon fill="midnightblue" stroke="midnightblue" points="483.73,-194.13 492.01,-187.52 481.41,-187.52 483.73,-194.13"/>
</g>
<!-- Node24&#45;&gt;Node19 -->
<g id="edge35" class="edge">
<title>Node24&#45;&gt;Node19</title>
<path fill="none" stroke="midnightblue" d="M340.27,-224.44C317.19,-215.48 280.73,-201.31 254.65,-191.18"/>
<polygon fill="midnightblue" stroke="midnightblue" points="255.8,-187.88 245.22,-187.52 253.27,-194.4 255.8,-187.88"/>
</g>
<!-- Node25&#45;&gt;Node3 -->
<g id="edge40" class="edge">
<title>Node25&#45;&gt;Node3</title>
<path fill="none" stroke="midnightblue" d="M1091.66,-517.62C914.97,-502.55 509.29,-461.58 509.29,-403 509.29,-403 509.29,-403 509.29,-289 509.29,-256.88 512.3,-219.6 514.37,-197.73"/>
<polygon fill="midnightblue" stroke="midnightblue" points="517.88,-197.84 515.38,-187.55 510.91,-197.15 517.88,-197.84"/>
</g>
<!-- Node25&#45;&gt;Node8 -->
<g id="edge38" class="edge">
<title>Node25&#45;&gt;Node8</title>
<path fill="none" stroke="midnightblue" d="M1091.66,-522.69C953.89,-519.65 679.25,-509.8 588.29,-479 529.56,-459.11 471.29,-465.01 471.29,-403 471.29,-403 471.29,-403 471.29,-289 471.29,-258.77 465.25,-250.81 451.29,-224 441.94,-206.02 429.87,-207.17 423.29,-188 404.26,-132.51 424.93,-62.14 436.94,-29.36"/>
<polygon fill="midnightblue" stroke="midnightblue" points="440.31,-30.35 440.61,-19.76 433.77,-27.85 440.31,-30.35"/>
</g>
<!-- Node25&#45;&gt;Node15 -->
<g id="edge49" class="edge">
<title>Node25&#45;&gt;Node15</title>
<path fill="none" stroke="midnightblue" d="M1252.91,-519.55C1284.68,-513.88 1319.25,-502.27 1343.29,-479 1426.68,-398.31 1380.49,-293.13 1287.29,-224 1277.17,-216.49 1132.64,-199.46 1034.46,-188.64"/>
<polygon fill="midnightblue" stroke="midnightblue" points="1034.84,-185.16 1024.52,-187.54 1034.08,-192.12 1034.84,-185.16"/>
</g>
<!-- Node25&#45;&gt;Node17 -->
<g id="edge89" class="edge">
<title>Node25&#45;&gt;Node17</title>
<path fill="none" stroke="midnightblue" d="M1253.13,-521.7C1337.38,-517.8 1462.32,-507.28 1500.29,-479 1595.85,-407.84 1611.29,-354.14 1611.29,-235 1611.29,-235 1611.29,-235 1611.29,-177 1611.29,-133.56 1578.01,-129.59 1538.29,-112 1477.07,-84.88 1289.77,-73.57 1186.85,-69.3"/>
<polygon fill="midnightblue" stroke="midnightblue" points="1186.99,-65.81 1176.85,-68.9 1186.7,-72.8 1186.99,-65.81"/>
</g>
<!-- Node26 -->
<g id="node26" class="node">
<title>Node26</title>
<g id="a_node26"><a xlink:title=" ">
<polygon fill="none" stroke="#bfbfbf" points="1391.79,-454 1391.79,-473 1468.79,-473 1468.79,-454 1391.79,-454"/>
<text text-anchor="middle" x="1430.29" y="-461" font-family="FreeSans.ttf" font-size="10.00">Eigen/Dense</text>
</a>
</g>
</g>
<!-- Node25&#45;&gt;Node26 -->
<g id="edge39" class="edge">
<title>Node25&#45;&gt;Node26</title>
<path fill="none" stroke="midnightblue" d="M1214.06,-515.48C1255.58,-506.86 1321.04,-492.86 1377.29,-479 1381.46,-477.97 1385.8,-476.86 1390.13,-475.72"/>
<polygon fill="midnightblue" stroke="midnightblue" points="1391.34,-479.02 1400.09,-473.05 1389.53,-472.26 1391.34,-479.02"/>
</g>
<!-- Node27 -->
<g id="node27" class="node">
<title>Node27</title>
<g id="a_node27"><a xlink:href="VectorFixSize_8h.html" target="_top" xlink:title=" ">
<polygon fill="none" stroke="black" points="1046.29,-168.5 1046.29,-187.5 1208.29,-187.5 1208.29,-168.5 1046.29,-168.5"/>
<text text-anchor="middle" x="1127.29" y="-175.5" font-family="FreeSans.ttf" font-size="10.00">iDynTree/Core/VectorFixSize.h</text>
</a>
</g>
</g>
<!-- Node25&#45;&gt;Node27 -->
<g id="edge41" class="edge">
<title>Node25&#45;&gt;Node27</title>
<path fill="none" stroke="midnightblue" d="M1114.74,-515.48C1018.49,-499.6 835.29,-461.67 835.29,-403 835.29,-403 835.29,-403 835.29,-289 835.29,-258.9 831.76,-243.96 854.29,-224 868.2,-211.68 965.02,-197.81 1039.45,-188.77"/>
<polygon fill="midnightblue" stroke="midnightblue" points="1040.28,-192.2 1049.79,-187.53 1039.45,-185.25 1040.28,-192.2"/>
</g>
<!-- Node30 -->
<g id="node30" class="node">
<title>Node30</title>
<g id="a_node30"><a xlink:href="MatrixFixSize_8h.html" target="_top" xlink:title=" ">
<polygon fill="none" stroke="black" points="1229.79,-168.5 1229.79,-187.5 1392.79,-187.5 1392.79,-168.5 1229.79,-168.5"/>
<text text-anchor="middle" x="1311.29" y="-175.5" font-family="FreeSans.ttf" font-size="10.00">iDynTree/Core/MatrixFixSize.h</text>
</a>
</g>
</g>
<!-- Node25&#45;&gt;Node30 -->
<g id="edge50" class="edge">
<title>Node25&#45;&gt;Node30</title>
<path fill="none" stroke="midnightblue" d="M1252.89,-523.56C1333.29,-521.21 1448.83,-511.97 1477.29,-479 1559.97,-383.23 1390.93,-239.69 1331.16,-193.72"/>
<polygon fill="midnightblue" stroke="midnightblue" points="1333.26,-190.92 1323.18,-187.66 1329.03,-196.49 1333.26,-190.92"/>
</g>
<!-- Node32 -->
<g id="node32" class="node">
<title>Node32</title>
<g id="a_node32"><a xlink:href="SpatialMotionVector_8h.html" target="_top" xlink:title=" ">
<polygon fill="none" stroke="black" points="1179.79,-448.5 1179.79,-478.5 1334.79,-478.5 1334.79,-448.5 1179.79,-448.5"/>
<text text-anchor="start" x="1187.79" y="-466.5" font-family="FreeSans.ttf" font-size="10.00">iDynTree/Core/SpatialMotion</text>
<text text-anchor="middle" x="1257.29" y="-455.5" font-family="FreeSans.ttf" font-size="10.00">Vector.h</text>
</a>
</g>
</g>
<!-- Node25&#45;&gt;Node32 -->
<g id="edge58" class="edge">
<title>Node25&#45;&gt;Node32</title>
<path fill="none" stroke="midnightblue" d="M1184.47,-515.48C1195.98,-507.42 1213.69,-495.02 1228.76,-484.47"/>
<polygon fill="midnightblue" stroke="midnightblue" points="1231.08,-487.12 1237.26,-478.52 1227.06,-481.39 1231.08,-487.12"/>
</g>
<!-- Node39 -->
<g id="node39" class="node">
<title>Node39</title>
<g id="a_node39"><a xlink:href="SpatialForceVector_8h.html" target="_top" xlink:title=" ">
<polygon fill="none" stroke="black" points="1013.29,-448.5 1013.29,-478.5 1161.29,-478.5 1161.29,-448.5 1013.29,-448.5"/>
<text text-anchor="start" x="1021.29" y="-466.5" font-family="FreeSans.ttf" font-size="10.00">iDynTree/Core/SpatialForce</text>
<text text-anchor="middle" x="1087.29" y="-455.5" font-family="FreeSans.ttf" font-size="10.00">Vector.h</text>
</a>
</g>
</g>
<!-- Node25&#45;&gt;Node39 -->
<g id="edge80" class="edge">
<title>Node25&#45;&gt;Node39</title>
<path fill="none" stroke="midnightblue" d="M1160.12,-515.48C1148.6,-507.42 1130.9,-495.02 1115.83,-484.47"/>
<polygon fill="midnightblue" stroke="midnightblue" points="1117.53,-481.39 1107.33,-478.52 1113.51,-487.12 1117.53,-481.39"/>
</g>
<!-- Node40 -->
<g id="node40" class="node">
<title>Node40</title>
<g id="a_node40"><a xlink:href="Transform_8h.html" target="_top" xlink:title=" ">
<polygon fill="none" stroke="black" points="661.29,-392.5 661.29,-411.5 807.29,-411.5 807.29,-392.5 661.29,-392.5"/>
<text text-anchor="middle" x="734.29" y="-399.5" font-family="FreeSans.ttf" font-size="10.00">iDynTree/Core/Transform.h</text>
</a>
</g>
</g>
<!-- Node25&#45;&gt;Node40 -->
<g id="edge84" class="edge">
<title>Node25&#45;&gt;Node40</title>
<path fill="none" stroke="midnightblue" d="M1091.48,-519.1C1003.19,-512.78 868.08,-500.05 821.29,-479 791.12,-465.42 763.7,-437.78 748.02,-419.84"/>
<polygon fill="midnightblue" stroke="midnightblue" points="750.44,-417.28 741.3,-411.91 745.1,-421.8 750.44,-417.28"/>
</g>
<!-- Node27&#45;&gt;Node4 -->
<g id="edge43" class="edge">
<title>Node27&#45;&gt;Node4</title>
<path fill="none" stroke="midnightblue" d="M1046.35,-168.47C1010.83,-162.14 969.7,-151.13 936.29,-132 915.45,-120.06 897.24,-98.96 886.05,-84.04"/>
<polygon fill="midnightblue" stroke="midnightblue" points="888.71,-81.75 880.02,-75.69 883.03,-85.85 888.71,-81.75"/>
</g>
<!-- Node27&#45;&gt;Node5 -->
<g id="edge46" class="edge">
<title>Node27&#45;&gt;Node5</title>
<path fill="none" stroke="midnightblue" d="M1133.1,-168.43C1144.41,-151.43 1169.66,-111.98 1185.29,-76 1191.91,-60.77 1197.29,-42.66 1200.8,-29.43"/>
<polygon fill="midnightblue" stroke="midnightblue" points="1204.22,-30.19 1203.29,-19.63 1197.43,-28.46 1204.22,-30.19"/>
</g>
<!-- Node27&#45;&gt;Node8 -->
<g id="edge47" class="edge">
<title>Node27&#45;&gt;Node8</title>
<path fill="none" stroke="midnightblue" d="M1082.06,-168.49C1037.47,-159.92 967.48,-146.01 907.29,-132 747.57,-94.82 558.9,-43.04 480.87,-21.28"/>
<polygon fill="midnightblue" stroke="midnightblue" points="481.62,-17.85 471.05,-18.53 479.74,-24.59 481.62,-17.85"/>
</g>
<!-- Node27&#45;&gt;Node14 -->
<g id="edge44" class="edge">
<title>Node27&#45;&gt;Node14</title>
<path fill="none" stroke="midnightblue" d="M1051.63,-168.5C977.36,-159.97 860.89,-146.11 760.29,-132 752.2,-130.87 743.48,-129.54 735.35,-128.26"/>
<polygon fill="midnightblue" stroke="midnightblue" points="735.89,-124.8 725.46,-126.68 734.79,-131.72 735.89,-124.8"/>
</g>
<!-- Node27&#45;&gt;Node17 -->
<g id="edge42" class="edge">
<title>Node27&#45;&gt;Node17</title>
<path fill="none" stroke="midnightblue" d="M1126.51,-168.37C1124.9,-150.62 1121.17,-109.67 1118.98,-85.6"/>
<polygon fill="midnightblue" stroke="midnightblue" points="1122.47,-85.23 1118.07,-75.59 1115.49,-85.87 1122.47,-85.23"/>
</g>
<!-- Node27&#45;&gt;Node28 -->
<g id="edge45" class="edge">
<title>Node27&#45;&gt;Node28</title>
<path fill="none" stroke="midnightblue" d="M1201.14,-168.5C1262.88,-160.92 1353.42,-148.72 1441.21,-132.06"/>
<polygon fill="midnightblue" stroke="midnightblue" points="1441.91,-135.48 1451.07,-130.16 1440.59,-128.61 1441.91,-135.48"/>
</g>
<!-- Node29 -->
<g id="node29" class="node">
<title>Node29</title>
<g id="a_node29"><a xlink:title=" ">
<polygon fill="none" stroke="#bfbfbf" points="1229.29,-112.5 1229.29,-131.5 1279.29,-131.5 1279.29,-112.5 1229.29,-112.5"/>
<text text-anchor="middle" x="1254.29" y="-119.5" font-family="FreeSans.ttf" font-size="10.00">cstring</text>
</a>
</g>
</g>
<!-- Node27&#45;&gt;Node29 -->
<g id="edge48" class="edge">
<title>Node27&#45;&gt;Node29</title>
<path fill="none" stroke="midnightblue" d="M1147.42,-168.44C1168.32,-159.56 1201.23,-145.56 1225.01,-135.45"/>
<polygon fill="midnightblue" stroke="midnightblue" points="1226.43,-138.65 1234.26,-131.52 1223.69,-132.21 1226.43,-138.65"/>
</g>
<!-- Node30&#45;&gt;Node5 -->
<g id="edge53" class="edge">
<title>Node30&#45;&gt;Node5</title>
<path fill="none" stroke="midnightblue" d="M1313.04,-168.13C1315.15,-155.18 1317.49,-130.59 1309.29,-112 1292.38,-73.65 1253.45,-42.45 1228.32,-25.33"/>
<polygon fill="midnightblue" stroke="midnightblue" points="1230.02,-22.26 1219.75,-19.67 1226.17,-28.1 1230.02,-22.26"/>
</g>
<!-- Node30&#45;&gt;Node14 -->
<g id="edge55" class="edge">
<title>Node30&#45;&gt;Node14</title>
<path fill="none" stroke="midnightblue" d="M1229.78,-169.15C1225.56,-168.76 1221.38,-168.37 1217.29,-168 1035.03,-151.3 816.27,-132.59 735.39,-125.72"/>
<polygon fill="midnightblue" stroke="midnightblue" points="735.6,-122.22 725.34,-124.87 735.01,-129.2 735.6,-122.22"/>
</g>
<!-- Node30&#45;&gt;Node16 -->
<g id="edge52" class="edge">
<title>Node30&#45;&gt;Node16</title>
<path fill="none" stroke="midnightblue" d="M1265.34,-168.44C1214.22,-158.92 1131.64,-143.55 1076.91,-133.36"/>
<polygon fill="midnightblue" stroke="midnightblue" points="1077.5,-129.91 1067.03,-131.52 1076.22,-136.79 1077.5,-129.91"/>
</g>
<!-- Node30&#45;&gt;Node17 -->
<g id="edge51" class="edge">
<title>Node30&#45;&gt;Node17</title>
<path fill="none" stroke="midnightblue" d="M1310.75,-168.46C1309.39,-154.56 1304.68,-127.08 1288.29,-112 1260.95,-86.83 1221.23,-75.41 1186.96,-70.35"/>
<polygon fill="midnightblue" stroke="midnightblue" points="1187.35,-66.87 1176.98,-69.03 1186.44,-73.81 1187.35,-66.87"/>
</g>
<!-- Node30&#45;&gt;Node28 -->
<g id="edge57" class="edge">
<title>Node30&#45;&gt;Node28</title>
<path fill="none" stroke="midnightblue" d="M1337.91,-168.44C1366.3,-159.32 1411.43,-144.81 1443.05,-134.65"/>
<polygon fill="midnightblue" stroke="midnightblue" points="1444.35,-137.91 1452.8,-131.52 1442.21,-131.24 1444.35,-137.91"/>
</g>
<!-- Node30&#45;&gt;Node29 -->
<g id="edge54" class="edge">
<title>Node30&#45;&gt;Node29</title>
<path fill="none" stroke="midnightblue" d="M1302.14,-168.32C1293.79,-160.42 1281.26,-148.55 1271.12,-138.94"/>
<polygon fill="midnightblue" stroke="midnightblue" points="1273.29,-136.17 1263.62,-131.83 1268.47,-141.25 1273.29,-136.17"/>
</g>
<!-- Node31 -->
<g id="node31" class="node">
<title>Node31</title>
<g id="a_node31"><a xlink:title=" ">
<polygon fill="none" stroke="#bfbfbf" points="1373.29,-112.5 1373.29,-131.5 1433.29,-131.5 1433.29,-112.5 1373.29,-112.5"/>
<text text-anchor="middle" x="1403.29" y="-119.5" font-family="FreeSans.ttf" font-size="10.00">iostream</text>
</a>
</g>
</g>
<!-- Node30&#45;&gt;Node31 -->
<g id="edge56" class="edge">
<title>Node30&#45;&gt;Node31</title>
<path fill="none" stroke="midnightblue" d="M1326.08,-168.32C1340.56,-159.82 1362.87,-146.73 1379.79,-136.8"/>
<polygon fill="midnightblue" stroke="midnightblue" points="1381.7,-139.74 1388.55,-131.65 1378.15,-133.7 1381.7,-139.74"/>
</g>
<!-- Node32&#45;&gt;Node27 -->
<g id="edge59" class="edge">
<title>Node32&#45;&gt;Node27</title>
<path fill="none" stroke="midnightblue" d="M1307.37,-448.41C1327.2,-440.57 1348.7,-428.89 1363.29,-412 1383.05,-389.12 1383.29,-377.23 1383.29,-347 1383.29,-347 1383.29,-347 1383.29,-289 1383.29,-244.71 1252.28,-207.49 1177.7,-189.9"/>
<polygon fill="midnightblue" stroke="midnightblue" points="1178.11,-186.4 1167.58,-187.54 1176.53,-193.22 1178.11,-186.4"/>
</g>
<!-- Node33 -->
<g id="node33" class="node">
<title>Node33</title>
<g id="a_node33"><a xlink:href="GeomVector3_8h.html" target="_top" xlink:title=" ">
<polygon fill="none" stroke="black" points="1115.79,-224.5 1115.79,-243.5 1278.79,-243.5 1278.79,-224.5 1115.79,-224.5"/>
<text text-anchor="middle" x="1197.29" y="-231.5" font-family="FreeSans.ttf" font-size="10.00">iDynTree/Core/GeomVector3.h</text>
</a>
</g>
</g>
<!-- Node32&#45;&gt;Node33 -->
<g id="edge60" class="edge">
<title>Node32&#45;&gt;Node33</title>
<path fill="none" stroke="midnightblue" d="M1223.89,-448.34C1208.91,-440.09 1192.74,-428.11 1184.29,-412 1156.93,-359.8 1177.72,-286.78 1189.98,-253.2"/>
<polygon fill="midnightblue" stroke="midnightblue" points="1193.28,-254.35 1193.59,-243.76 1186.75,-251.85 1193.28,-254.35"/>
</g>
<!-- Node34 -->
<g id="node34" class="node">
<title>Node34</title>
<g id="a_node34"><a xlink:href="SpatialVector_8h.html" target="_top" xlink:title=" ">
<polygon fill="none" stroke="black" points="1193.79,-392.5 1193.79,-411.5 1354.79,-411.5 1354.79,-392.5 1193.79,-392.5"/>
<text text-anchor="middle" x="1274.29" y="-399.5" font-family="FreeSans.ttf" font-size="10.00">iDynTree/Core/SpatialVector.h</text>
</a>
</g>
</g>
<!-- Node32&#45;&gt;Node34 -->
<g id="edge62" class="edge">
<title>Node32&#45;&gt;Node34</title>
<path fill="none" stroke="midnightblue" d="M1261.32,-448.4C1263.64,-440.29 1266.58,-430.01 1269.07,-421.28"/>
<polygon fill="midnightblue" stroke="midnightblue" points="1272.44,-422.23 1271.82,-411.66 1265.71,-420.31 1272.44,-422.23"/>
</g>
<!-- Node33&#45;&gt;Node27 -->
<g id="edge61" class="edge">
<title>Node33&#45;&gt;Node27</title>
<path fill="none" stroke="midnightblue" d="M1186.05,-224.32C1175.5,-216.18 1159.49,-203.84 1146.85,-194.09"/>
<polygon fill="midnightblue" stroke="midnightblue" points="1148.8,-191.17 1138.75,-187.83 1144.53,-196.71 1148.8,-191.17"/>
</g>
<!-- Node34&#45;&gt;Node17 -->
<g id="edge76" class="edge">
<title>Node34&#45;&gt;Node17</title>
<path fill="none" stroke="midnightblue" d="M1355.09,-399.53C1431.74,-393.34 1535.29,-370.29 1535.29,-291 1535.29,-291 1535.29,-291 1535.29,-177 1535.29,-146.9 1539.33,-131.37 1516.29,-112 1491.65,-91.27 1294.69,-77.02 1187.02,-70.7"/>
<polygon fill="midnightblue" stroke="midnightblue" points="1187.07,-67.19 1176.89,-70.11 1186.67,-74.18 1187.07,-67.19"/>
</g>
<!-- Node34&#45;&gt;Node28 -->
<g id="edge79" class="edge">
<title>Node34&#45;&gt;Node28</title>
<path fill="none" stroke="midnightblue" d="M1287.74,-392.44C1300.2,-384.1 1318.78,-370.58 1332.29,-356 1397.63,-285.5 1450.98,-182.1 1470.89,-140.9"/>
<polygon fill="midnightblue" stroke="midnightblue" points="1474.08,-142.35 1475.22,-131.82 1467.76,-139.34 1474.08,-142.35"/>
</g>
<!-- Node34&#45;&gt;Node31 -->
<g id="edge78" class="edge">
<title>Node34&#45;&gt;Node31</title>
<path fill="none" stroke="midnightblue" d="M1281.66,-392.44C1304.74,-365.03 1375.58,-276.03 1401.29,-188 1405.7,-172.91 1405.91,-155.01 1405.18,-141.82"/>
<polygon fill="midnightblue" stroke="midnightblue" points="1408.65,-141.32 1404.38,-131.63 1401.67,-141.87 1408.65,-141.32"/>
</g>
<!-- Node34&#45;&gt;Node33 -->
<g id="edge77" class="edge">
<title>Node34&#45;&gt;Node33</title>
<path fill="none" stroke="midnightblue" d="M1270.15,-392.08C1257.93,-365.72 1221.82,-287.88 1205.49,-252.66"/>
<polygon fill="midnightblue" stroke="midnightblue" points="1208.65,-251.17 1201.27,-243.57 1202.3,-254.11 1208.65,-251.17"/>
</g>
<!-- Node35 -->
<g id="node35" class="node">
<title>Node35</title>
<g id="a_node35"><a xlink:href="Position_8h.html" target="_top" xlink:title=" ">
<polygon fill="none" stroke="black" points="701.79,-336.5 701.79,-355.5 766.79,-355.5 766.79,-336.5 701.79,-336.5"/>
<text text-anchor="middle" x="734.29" y="-343.5" font-family="FreeSans.ttf" font-size="10.00">Position.h</text>
</a>
</g>
</g>
<!-- Node34&#45;&gt;Node35 -->
<g id="edge63" class="edge">
<title>Node34&#45;&gt;Node35</title>
<path fill="none" stroke="midnightblue" d="M1193.74,-392.94C1077.65,-381.34 867.35,-360.31 777.2,-351.29"/>
<polygon fill="midnightblue" stroke="midnightblue" points="777.37,-347.79 767.07,-350.28 776.68,-354.76 777.37,-347.79"/>
</g>
<!-- Node37 -->
<g id="node37" class="node">
<title>Node37</title>
<g id="a_node37"><a xlink:href="Rotation_8h.html" target="_top" xlink:title=" ">
<polygon fill="none" stroke="black" points="873.29,-280.5 873.29,-299.5 1011.29,-299.5 1011.29,-280.5 873.29,-280.5"/>
<text text-anchor="middle" x="942.29" y="-287.5" font-family="FreeSans.ttf" font-size="10.00">iDynTree/Core/Rotation.h</text>
</a>
</g>
</g>
<!-- Node34&#45;&gt;Node37 -->
<g id="edge75" class="edge">
<title>Node34&#45;&gt;Node37</title>
<path fill="none" stroke="midnightblue" d="M1248.52,-392.46C1189.68,-372.97 1045.39,-325.16 978.03,-302.84"/>
<polygon fill="midnightblue" stroke="midnightblue" points="978.87,-299.43 968.28,-299.61 976.67,-306.08 978.87,-299.43"/>
</g>
<!-- Node35&#45;&gt;Node14 -->
<g id="edge74" class="edge">
<title>Node35&#45;&gt;Node14</title>
<path fill="none" stroke="midnightblue" d="M713.97,-336.39C683.53,-322.23 627.22,-290.85 604.29,-244 600.39,-236.02 600.84,-232.19 604.29,-224 613.22,-202.86 625.15,-204.3 641.29,-188 657.65,-171.48 675.98,-152.16 688.44,-138.9"/>
<polygon fill="midnightblue" stroke="midnightblue" points="691.08,-141.2 695.37,-131.51 685.98,-136.41 691.08,-141.2"/>
</g>
<!-- Node36 -->
<g id="node36" class="node">
<title>Node36</title>
<g id="a_node36"><a xlink:href="PositionRaw_8h.html" target="_top" xlink:title=" ">
<polygon fill="none" stroke="black" points="613.29,-224.5 613.29,-243.5 769.29,-243.5 769.29,-224.5 613.29,-224.5"/>
<text text-anchor="middle" x="691.29" y="-231.5" font-family="FreeSans.ttf" font-size="10.00">iDynTree/Core/PositionRaw.h</text>
</a>
</g>
</g>
<!-- Node35&#45;&gt;Node36 -->
<g id="edge64" class="edge">
<title>Node35&#45;&gt;Node36</title>
<path fill="none" stroke="midnightblue" d="M730.92,-336.37C723.92,-318.46 707.68,-276.92 698.31,-252.95"/>
<polygon fill="midnightblue" stroke="midnightblue" points="701.55,-251.63 694.65,-243.59 695.03,-254.18 701.55,-251.63"/>
</g>
<!-- Node35&#45;&gt;Node37 -->
<g id="edge67" class="edge">
<title>Node35&#45;&gt;Node37</title>
<path fill="none" stroke="midnightblue" d="M767.25,-336.44C803.08,-327.14 860.46,-312.25 899.68,-302.06"/>
<polygon fill="midnightblue" stroke="midnightblue" points="900.69,-305.42 909.49,-299.52 898.93,-298.64 900.69,-305.42"/>
</g>
<!-- Node36&#45;&gt;Node14 -->
<g id="edge66" class="edge">
<title>Node36&#45;&gt;Node14</title>
<path fill="none" stroke="midnightblue" d="M692.24,-224.37C694.17,-206.62 698.64,-165.67 701.27,-141.6"/>
<polygon fill="midnightblue" stroke="midnightblue" points="704.75,-141.91 702.36,-131.59 697.79,-141.15 704.75,-141.91"/>
</g>
<!-- Node36&#45;&gt;Node27 -->
<g id="edge65" class="edge">
<title>Node36&#45;&gt;Node27</title>
<path fill="none" stroke="midnightblue" d="M760.38,-224.44C838.75,-214.74 966.31,-198.94 1048.49,-188.76"/>
<polygon fill="midnightblue" stroke="midnightblue" points="1049.04,-192.22 1058.53,-187.52 1048.18,-185.27 1049.04,-192.22"/>
</g>
<!-- Node37&#45;&gt;Node14 -->
<g id="edge68" class="edge">
<title>Node37&#45;&gt;Node14</title>
<path fill="none" stroke="midnightblue" d="M922.79,-280.42C904.53,-272.07 876.77,-258.54 854.29,-244 802.4,-210.44 747.11,-162.62 720.11,-138.38"/>
<polygon fill="midnightblue" stroke="midnightblue" points="722.43,-135.76 712.67,-131.65 717.74,-140.95 722.43,-135.76"/>
</g>
<!-- Node37&#45;&gt;Node27 -->
<g id="edge73" class="edge">
<title>Node37&#45;&gt;Node27</title>
<path fill="none" stroke="midnightblue" d="M960.49,-280.47C978.52,-271.84 1006.77,-257.83 1030.29,-244 1057.6,-227.95 1087.71,-207.27 1107.03,-193.6"/>
<polygon fill="midnightblue" stroke="midnightblue" points="1109.23,-196.33 1115.34,-187.68 1105.16,-190.63 1109.23,-196.33"/>
</g>
<!-- Node37&#45;&gt;Node33 -->
<g id="edge69" class="edge">
<title>Node37&#45;&gt;Node33</title>
<path fill="none" stroke="midnightblue" d="M982.7,-280.44C1027.28,-271 1099.06,-255.8 1147.19,-245.61"/>
<polygon fill="midnightblue" stroke="midnightblue" points="1148.02,-249.01 1157.08,-243.52 1146.57,-242.16 1148.02,-249.01"/>
</g>
<!-- Node38 -->
<g id="node38" class="node">
<title>Node38</title>
<g id="a_node38"><a xlink:href="RotationRaw_8h.html" target="_top" xlink:title=" ">
<polygon fill="none" stroke="black" points="863.29,-224.5 863.29,-243.5 1021.29,-243.5 1021.29,-224.5 863.29,-224.5"/>
<text text-anchor="middle" x="942.29" y="-231.5" font-family="FreeSans.ttf" font-size="10.00">iDynTree/Core/RotationRaw.h</text>
</a>
</g>
</g>
<!-- Node37&#45;&gt;Node38 -->
<g id="edge70" class="edge">
<title>Node37&#45;&gt;Node38</title>
<path fill="none" stroke="midnightblue" d="M942.29,-280.08C942.29,-273.01 942.29,-262.86 942.29,-253.99"/>
<polygon fill="midnightblue" stroke="midnightblue" points="945.79,-253.75 942.29,-243.75 938.79,-253.75 945.79,-253.75"/>
</g>
<!-- Node38&#45;&gt;Node14 -->
<g id="edge72" class="edge">
<title>Node38&#45;&gt;Node14</title>
<path fill="none" stroke="midnightblue" d="M925.07,-224.33C899.68,-211.61 850.63,-187.33 808.29,-168 783.22,-156.55 754.42,-144.27 733.33,-135.43"/>
<polygon fill="midnightblue" stroke="midnightblue" points="734.52,-132.14 723.94,-131.51 731.82,-138.6 734.52,-132.14"/>
</g>
<!-- Node38&#45;&gt;Node30 -->
<g id="edge71" class="edge">
<title>Node38&#45;&gt;Node30</title>
<path fill="none" stroke="midnightblue" d="M1000.76,-224.44C1066.62,-214.81 1173.51,-199.16 1243.11,-188.98"/>
<polygon fill="midnightblue" stroke="midnightblue" points="1243.71,-192.43 1253.1,-187.52 1242.7,-185.5 1243.71,-192.43"/>
</g>
<!-- Node39&#45;&gt;Node27 -->
<g id="edge81" class="edge">
<title>Node39&#45;&gt;Node27</title>
<path fill="none" stroke="midnightblue" d="M1086.69,-448.5C1085.47,-411.26 1084.4,-306.93 1106.29,-224 1108.8,-214.52 1113.22,-204.58 1117.37,-196.46"/>
<polygon fill="midnightblue" stroke="midnightblue" points="1120.47,-198.07 1122.13,-187.61 1114.31,-194.75 1120.47,-198.07"/>
</g>
<!-- Node39&#45;&gt;Node33 -->
<g id="edge82" class="edge">
<title>Node39&#45;&gt;Node33</title>
<path fill="none" stroke="midnightblue" d="M1093.75,-448.19C1107.75,-417.26 1142.19,-341.98 1173.29,-280 1177.87,-270.89 1183.18,-260.86 1187.65,-252.6"/>
<polygon fill="midnightblue" stroke="midnightblue" points="1190.86,-254.02 1192.57,-243.56 1184.71,-250.67 1190.86,-254.02"/>
</g>
<!-- Node39&#45;&gt;Node34 -->
<g id="edge83" class="edge">
<title>Node39&#45;&gt;Node34</title>
<path fill="none" stroke="midnightblue" d="M1131.61,-448.4C1163.92,-438.12 1207.19,-424.35 1237.58,-414.68"/>
<polygon fill="midnightblue" stroke="midnightblue" points="1238.89,-417.94 1247.36,-411.57 1236.77,-411.27 1238.89,-417.94"/>
</g>
<!-- Node40&#45;&gt;Node14 -->
<g id="edge88" class="edge">
<title>Node40&#45;&gt;Node14</title>
<path fill="none" stroke="midnightblue" d="M721.06,-392.42C690.45,-371.56 616.03,-314.65 598.29,-244 586.2,-195.83 642.05,-156 676.95,-136.3"/>
<polygon fill="midnightblue" stroke="midnightblue" points="678.64,-139.37 685.75,-131.51 675.29,-133.22 678.64,-139.37"/>
</g>
<!-- Node40&#45;&gt;Node30 -->
<g id="edge87" class="edge">
<title>Node40&#45;&gt;Node30</title>
<path fill="none" stroke="midnightblue" d="M807.52,-400.39C923.96,-395.49 1151.99,-369.26 1287.29,-244 1300.38,-231.89 1306.36,-212.01 1309.07,-197.42"/>
<polygon fill="midnightblue" stroke="midnightblue" points="1312.53,-197.92 1310.57,-187.51 1305.61,-196.87 1312.53,-197.92"/>
</g>
<!-- Node40&#45;&gt;Node35 -->
<g id="edge85" class="edge">
<title>Node40&#45;&gt;Node35</title>
<path fill="none" stroke="midnightblue" d="M734.29,-392.08C734.29,-385.01 734.29,-374.86 734.29,-365.99"/>
<polygon fill="midnightblue" stroke="midnightblue" points="737.79,-365.75 734.29,-355.75 730.79,-365.75 737.79,-365.75"/>
</g>
<!-- Node40&#45;&gt;Node37 -->
<g id="edge86" class="edge">
<title>Node40&#45;&gt;Node37</title>
<path fill="none" stroke="midnightblue" d="M750.62,-392.37C786.76,-373.25 873.79,-327.23 917.03,-304.36"/>
<polygon fill="midnightblue" stroke="midnightblue" points="918.84,-307.36 926.05,-299.59 915.57,-301.17 918.84,-307.36"/>
</g>
</g>
</svg>
