<?xml version="1.0" encoding="UTF-8" standalone="no"?>
<!DOCTYPE svg PUBLIC "-//W3C//DTD SVG 1.1//EN"
 "http://www.w3.org/Graphics/SVG/1.1/DTD/svg11.dtd">
<!-- Generated by graphviz version 2.43.0 (0)
 -->
<!-- Title: InverseKinematicsNLP.h Pages: 1 -->
<svg width="337pt" height="140pt"
 viewBox="0.00 0.00 337.00 140.00" xmlns="http://www.w3.org/2000/svg" xmlns:xlink="http://www.w3.org/1999/xlink">
<g id="graph0" class="graph" transform="scale(1 1) rotate(0) translate(4 136)">
<title>InverseKinematicsNLP.h</title>
<!-- Node1 -->
<g id="node1" class="node">
<title>Node1</title>
<g id="a_node1"><a xlink:title=" ">
<polygon fill="#bfbfbf" stroke="black" points="99.5,-112.5 99.5,-131.5 233.5,-131.5 233.5,-112.5 99.5,-112.5"/>
<text text-anchor="middle" x="166.5" y="-119.5" font-family="FreeSans.ttf" font-size="10.00">InverseKinematicsNLP.h</text>
</a>
</g>
</g>
<!-- Node2 -->
<g id="node2" class="node">
<title>Node2</title>
<g id="a_node2"><a xlink:href="InverseKinematicsData_8h.html" target="_top" xlink:title=" ">
<polygon fill="none" stroke="black" points="96.5,-56.5 96.5,-75.5 236.5,-75.5 236.5,-56.5 96.5,-56.5"/>
<text text-anchor="middle" x="166.5" y="-63.5" font-family="FreeSans.ttf" font-size="10.00">InverseKinematicsData.h</text>
</a>
</g>
</g>
<!-- Node1&#45;&gt;Node2 -->
<g id="edge1" class="edge">
<title>Node1&#45;&gt;Node2</title>
<path fill="none" stroke="midnightblue" d="M166.5,-101.8C166.5,-92.91 166.5,-82.78 166.5,-75.75"/>
<polygon fill="midnightblue" stroke="midnightblue" points="163,-102.08 166.5,-112.08 170,-102.08 163,-102.08"/>
</g>
<!-- Node3 -->
<g id="node3" class="node">
<title>Node3</title>
<g id="a_node3"><a xlink:href="InverseKinematicsData_8cpp.html" target="_top" xlink:title=" ">
<polygon fill="none" stroke="black" points="0,-0.5 0,-19.5 151,-19.5 151,-0.5 0,-0.5"/>
<text text-anchor="middle" x="75.5" y="-7.5" font-family="FreeSans.ttf" font-size="10.00">InverseKinematicsData.cpp</text>
</a>
</g>
</g>
<!-- Node1&#45;&gt;Node3 -->
<g id="edge4" class="edge">
<title>Node1&#45;&gt;Node3</title>
<path fill="none" stroke="midnightblue" d="M130.28,-108.42C114.81,-101.25 97.95,-90.7 87.5,-76 75.4,-58.98 74.44,-33.3 74.9,-19.89"/>
<polygon fill="midnightblue" stroke="midnightblue" points="129.09,-111.71 139.66,-112.45 131.86,-105.28 129.09,-111.71"/>
</g>
<!-- Node4 -->
<g id="node4" class="node">
<title>Node4</title>
<g id="a_node4"><a xlink:href="InverseKinematicsNLP_8cpp.html" target="_top" xlink:title=" ">
<polygon fill="none" stroke="black" points="184,-0.5 184,-19.5 329,-19.5 329,-0.5 184,-0.5"/>
<text text-anchor="middle" x="256.5" y="-7.5" font-family="FreeSans.ttf" font-size="10.00">InverseKinematicsNLP.cpp</text>
</a>
</g>
</g>
<!-- Node1&#45;&gt;Node4 -->
<g id="edge5" class="edge">
<title>Node1&#45;&gt;Node4</title>
<path fill="none" stroke="midnightblue" d="M203.16,-108.33C218.55,-101.18 235.24,-90.67 245.5,-76 257.44,-58.93 257.96,-33.28 257.27,-19.87"/>
<polygon fill="midnightblue" stroke="midnightblue" points="201.61,-105.19 193.81,-112.36 204.38,-111.62 201.61,-105.19"/>
</g>
<!-- Node2&#45;&gt;Node3 -->
<g id="edge2" class="edge">
<title>Node2&#45;&gt;Node3</title>
<path fill="none" stroke="midnightblue" d="M143.21,-51.18C126.46,-41.24 104.4,-28.15 90.08,-19.65"/>
<polygon fill="midnightblue" stroke="midnightblue" points="141.49,-54.23 151.88,-56.32 145.07,-48.21 141.49,-54.23"/>
</g>
<!-- Node2&#45;&gt;Node4 -->
<g id="edge3" class="edge">
<title>Node2&#45;&gt;Node4</title>
<path fill="none" stroke="midnightblue" d="M189.54,-51.18C206.1,-41.24 227.92,-28.15 242.08,-19.65"/>
<polygon fill="midnightblue" stroke="midnightblue" points="187.73,-48.18 180.96,-56.32 191.34,-54.18 187.73,-48.18"/>
</g>
</g>
</svg>
