<?xml version="1.0" encoding="UTF-8" standalone="no"?>
<!DOCTYPE svg PUBLIC "-//W3C//DTD SVG 1.1//EN"
 "http://www.w3.org/Graphics/SVG/1.1/DTD/svg11.dtd">
<!-- Generated by graphviz version 2.43.0 (0)
 -->
<!-- Title: InverseKinematicsNLP.h Pages: 1 -->
<svg width="1096pt" height="599pt"
 viewBox="0.00 0.00 1095.50 599.00" xmlns="http://www.w3.org/2000/svg" xmlns:xlink="http://www.w3.org/1999/xlink">
<g id="graph0" class="graph" transform="scale(1 1) rotate(0) translate(4 595)">
<title>InverseKinematicsNLP.h</title>
<!-- Node1 -->
<g id="node1" class="node">
<title>Node1</title>
<g id="a_node1"><a xlink:title=" ">
<polygon fill="#bfbfbf" stroke="black" points="432,-571.5 432,-590.5 566,-590.5 566,-571.5 432,-571.5"/>
<text text-anchor="middle" x="499" y="-578.5" font-family="FreeSans.ttf" font-size="10.00">InverseKinematicsNLP.h</text>
</a>
</g>
</g>
<!-- Node2 -->
<g id="node2" class="node">
<title>Node2</title>
<g id="a_node2"><a xlink:title=" ">
<polygon fill="none" stroke="#bfbfbf" points="96,-515.5 96,-534.5 166,-534.5 166,-515.5 96,-515.5"/>
<text text-anchor="middle" x="131" y="-522.5" font-family="FreeSans.ttf" font-size="10.00">IpTNLP.hpp</text>
</a>
</g>
</g>
<!-- Node1&#45;&gt;Node2 -->
<g id="edge1" class="edge">
<title>Node1&#45;&gt;Node2</title>
<path fill="none" stroke="midnightblue" d="M431.79,-571.93C368.37,-564.04 270.41,-551.09 176.03,-535.09"/>
<polygon fill="midnightblue" stroke="midnightblue" points="176.47,-531.61 166.03,-533.37 175.29,-538.51 176.47,-531.61"/>
</g>
<!-- Node3 -->
<g id="node3" class="node">
<title>Node3</title>
<g id="a_node3"><a xlink:href="VectorFixSize_8h.html" target="_top" xlink:title=" ">
<polygon fill="none" stroke="black" points="142,-168.5 142,-187.5 304,-187.5 304,-168.5 142,-168.5"/>
<text text-anchor="middle" x="223" y="-175.5" font-family="FreeSans.ttf" font-size="10.00">iDynTree/Core/VectorFixSize.h</text>
</a>
</g>
</g>
<!-- Node1&#45;&gt;Node3 -->
<g id="edge2" class="edge">
<title>Node1&#45;&gt;Node3</title>
<path fill="none" stroke="midnightblue" d="M461.56,-571.47C412.88,-557.91 334,-526.39 334,-464.5 334,-464.5 334,-464.5 334,-289 334,-258.77 333.59,-247.02 314,-224 300.99,-208.71 281.54,-198.12 263.96,-191.07"/>
<polygon fill="midnightblue" stroke="midnightblue" points="265.03,-187.73 254.44,-187.51 262.58,-194.29 265.03,-187.73"/>
</g>
<!-- Node19 -->
<g id="node19" class="node">
<title>Node19</title>
<g id="a_node19"><a xlink:href="VectorDynSize_8h.html" target="_top" xlink:title=" ">
<polygon fill="none" stroke="black" points="920.5,-168.5 920.5,-187.5 1087.5,-187.5 1087.5,-168.5 920.5,-168.5"/>
<text text-anchor="middle" x="1004" y="-175.5" font-family="FreeSans.ttf" font-size="10.00">iDynTree/Core/VectorDynSize.h</text>
</a>
</g>
</g>
<!-- Node1&#45;&gt;Node19 -->
<g id="edge21" class="edge">
<title>Node1&#45;&gt;Node19</title>
<path fill="none" stroke="midnightblue" d="M566.03,-576.72C691.67,-568.74 950,-542.8 950,-464.5 950,-464.5 950,-464.5 950,-289 950,-252.86 973.77,-216.25 989.77,-195.71"/>
<polygon fill="midnightblue" stroke="midnightblue" points="992.69,-197.67 996.26,-187.69 987.25,-193.26 992.69,-197.67"/>
</g>
<!-- Node20 -->
<g id="node20" class="node">
<title>Node20</title>
<g id="a_node20"><a xlink:href="MatrixDynSize_8h.html" target="_top" xlink:title=" ">
<polygon fill="none" stroke="black" points="640,-168.5 640,-187.5 808,-187.5 808,-168.5 640,-168.5"/>
<text text-anchor="middle" x="724" y="-175.5" font-family="FreeSans.ttf" font-size="10.00">iDynTree/Core/MatrixDynSize.h</text>
</a>
</g>
</g>
<!-- Node1&#45;&gt;Node20 -->
<g id="edge24" class="edge">
<title>Node1&#45;&gt;Node20</title>
<path fill="none" stroke="midnightblue" d="M566.27,-575.11C683.3,-564.75 912,-535.42 912,-464.5 912,-464.5 912,-464.5 912,-345 912,-264.04 812.83,-213.12 758.55,-191.31"/>
<polygon fill="midnightblue" stroke="midnightblue" points="759.55,-187.94 748.96,-187.57 757.01,-194.46 759.55,-187.94"/>
</g>
<!-- Node22 -->
<g id="node22" class="node">
<title>Node22</title>
<g id="a_node22"><a xlink:href="Twist_8h.html" target="_top" xlink:title=" ">
<polygon fill="none" stroke="black" points="184,-515.5 184,-534.5 306,-534.5 306,-515.5 184,-515.5"/>
<text text-anchor="middle" x="245" y="-522.5" font-family="FreeSans.ttf" font-size="10.00">iDynTree/Core/Twist.h</text>
</a>
</g>
</g>
<!-- Node1&#45;&gt;Node22 -->
<g id="edge31" class="edge">
<title>Node1&#45;&gt;Node22</title>
<path fill="none" stroke="midnightblue" d="M458.75,-571.44C414.35,-562 342.85,-546.8 294.91,-536.61"/>
<polygon fill="midnightblue" stroke="midnightblue" points="295.57,-533.17 285.06,-534.52 294.11,-540.02 295.57,-533.17"/>
</g>
<!-- Node32 -->
<g id="node32" class="node">
<title>Node32</title>
<g id="a_node32"><a xlink:href="Transform_8h.html" target="_top" xlink:title=" ">
<polygon fill="none" stroke="black" points="426,-392.5 426,-411.5 572,-411.5 572,-392.5 426,-392.5"/>
<text text-anchor="middle" x="499" y="-399.5" font-family="FreeSans.ttf" font-size="10.00">iDynTree/Core/Transform.h</text>
</a>
</g>
</g>
<!-- Node1&#45;&gt;Node32 -->
<g id="edge61" class="edge">
<title>Node1&#45;&gt;Node32</title>
<path fill="none" stroke="midnightblue" d="M499,-571.46C499,-544.43 499,-460.24 499,-422.11"/>
<polygon fill="midnightblue" stroke="midnightblue" points="502.5,-421.87 499,-411.87 495.5,-421.87 502.5,-421.87"/>
</g>
<!-- Node33 -->
<g id="node33" class="node">
<title>Node33</title>
<g id="a_node33"><a xlink:title=" ">
<polygon fill="none" stroke="#bfbfbf" points="978,-515.5 978,-534.5 1016,-534.5 1016,-515.5 978,-515.5"/>
<text text-anchor="middle" x="997" y="-522.5" font-family="FreeSans.ttf" font-size="10.00">map</text>
</a>
</g>
</g>
<!-- Node1&#45;&gt;Node33 -->
<g id="edge66" class="edge">
<title>Node1&#45;&gt;Node33</title>
<path fill="none" stroke="midnightblue" d="M566.1,-577.09C656.94,-572.33 823.79,-560.71 964,-535 965.28,-534.77 966.59,-534.5 967.9,-534.22"/>
<polygon fill="midnightblue" stroke="midnightblue" points="969.04,-537.55 977.93,-531.79 967.39,-530.75 969.04,-537.55"/>
</g>
<!-- Node4 -->
<g id="node4" class="node">
<title>Node4</title>
<g id="a_node4"><a xlink:href="Utils_8h.html" target="_top" xlink:title=" ">
<polygon fill="none" stroke="black" points="104.5,-56.5 104.5,-75.5 223.5,-75.5 223.5,-56.5 104.5,-56.5"/>
<text text-anchor="middle" x="164" y="-63.5" font-family="FreeSans.ttf" font-size="10.00">iDynTree/Core/Utils.h</text>
</a>
</g>
</g>
<!-- Node3&#45;&gt;Node4 -->
<g id="edge3" class="edge">
<title>Node3&#45;&gt;Node4</title>
<path fill="none" stroke="midnightblue" d="M206.96,-168.46C194.26,-160.75 177.34,-148.16 169,-132 161.62,-117.7 160.9,-99.23 161.71,-85.64"/>
<polygon fill="midnightblue" stroke="midnightblue" points="165.21,-85.85 162.64,-75.57 158.24,-85.2 165.21,-85.85"/>
</g>
<!-- Node5 -->
<g id="node5" class="node">
<title>Node5</title>
<g id="a_node5"><a xlink:title=" ">
<polygon fill="none" stroke="#bfbfbf" points="179.5,-0.5 179.5,-19.5 232.5,-19.5 232.5,-0.5 179.5,-0.5"/>
<text text-anchor="middle" x="206" y="-7.5" font-family="FreeSans.ttf" font-size="10.00">cstddef</text>
</a>
</g>
</g>
<!-- Node3&#45;&gt;Node5 -->
<g id="edge19" class="edge">
<title>Node3&#45;&gt;Node5</title>
<path fill="none" stroke="midnightblue" d="M162.54,-168.43C120.6,-161.1 70.02,-149.02 57,-132 19.47,-82.94 114.41,-41.48 169.66,-22.35"/>
<polygon fill="midnightblue" stroke="midnightblue" points="170.79,-25.66 179.15,-19.14 168.55,-19.03 170.79,-25.66"/>
</g>
<!-- Node7 -->
<g id="node7" class="node">
<title>Node7</title>
<g id="a_node7"><a xlink:href="Span_8h.html" target="_top" xlink:title=" ">
<polygon fill="none" stroke="black" points="564.5,-56.5 564.5,-75.5 685.5,-75.5 685.5,-56.5 564.5,-56.5"/>
<text text-anchor="middle" x="625" y="-63.5" font-family="FreeSans.ttf" font-size="10.00">iDynTree/Core/Span.h</text>
</a>
</g>
</g>
<!-- Node3&#45;&gt;Node7 -->
<g id="edge6" class="edge">
<title>Node3&#45;&gt;Node7</title>
<path fill="none" stroke="midnightblue" d="M303,-168.45C411.66,-156.7 593.17,-136.48 599,-132 613.29,-121.03 619.75,-100.97 622.65,-86.03"/>
<polygon fill="midnightblue" stroke="midnightblue" points="626.16,-86.26 624.25,-75.83 619.25,-85.17 626.16,-86.26"/>
</g>
<!-- Node8 -->
<g id="node8" class="node">
<title>Node8</title>
<g id="a_node8"><a xlink:title=" ">
<polygon fill="none" stroke="#bfbfbf" points="376,-0.5 376,-19.5 428,-19.5 428,-0.5 376,-0.5"/>
<text text-anchor="middle" x="402" y="-7.5" font-family="FreeSans.ttf" font-size="10.00">cassert</text>
</a>
</g>
</g>
<!-- Node3&#45;&gt;Node8 -->
<g id="edge18" class="edge">
<title>Node3&#45;&gt;Node8</title>
<path fill="none" stroke="midnightblue" d="M230.77,-168.33C242.27,-155.62 264.66,-131.35 285,-112 318.59,-80.04 360.13,-45.21 383.6,-25.95"/>
<polygon fill="midnightblue" stroke="midnightblue" points="385.85,-28.63 391.37,-19.59 381.42,-23.21 385.85,-28.63"/>
</g>
<!-- Node16 -->
<g id="node16" class="node">
<title>Node16</title>
<g id="a_node16"><a xlink:title=" ">
<polygon fill="none" stroke="#bfbfbf" points="646,-112.5 646,-131.5 690,-131.5 690,-112.5 646,-112.5"/>
<text text-anchor="middle" x="668" y="-119.5" font-family="FreeSans.ttf" font-size="10.00">string</text>
</a>
</g>
</g>
<!-- Node3&#45;&gt;Node16 -->
<g id="edge16" class="edge">
<title>Node3&#45;&gt;Node16</title>
<path fill="none" stroke="midnightblue" d="M304.13,-168.67C414.15,-157.28 600.62,-137.62 632,-132 633.25,-131.78 634.52,-131.53 635.8,-131.28"/>
<polygon fill="midnightblue" stroke="midnightblue" points="636.63,-134.68 645.63,-129.09 635.11,-127.84 636.63,-134.68"/>
</g>
<!-- Node17 -->
<g id="node17" class="node">
<title>Node17</title>
<g id="a_node17"><a xlink:title=" ">
<polygon fill="none" stroke="#bfbfbf" points="66,-112.5 66,-131.5 122,-131.5 122,-112.5 66,-112.5"/>
<text text-anchor="middle" x="94" y="-119.5" font-family="FreeSans.ttf" font-size="10.00">sstream</text>
</a>
</g>
</g>
<!-- Node3&#45;&gt;Node17 -->
<g id="edge17" class="edge">
<title>Node3&#45;&gt;Node17</title>
<path fill="none" stroke="midnightblue" d="M202.56,-168.44C181.33,-159.56 147.9,-145.56 123.75,-135.45"/>
<polygon fill="midnightblue" stroke="midnightblue" points="124.92,-132.15 114.34,-131.52 122.22,-138.61 124.92,-132.15"/>
</g>
<!-- Node18 -->
<g id="node18" class="node">
<title>Node18</title>
<g id="a_node18"><a xlink:title=" ">
<polygon fill="none" stroke="#bfbfbf" points="294,-112.5 294,-131.5 344,-131.5 344,-112.5 294,-112.5"/>
<text text-anchor="middle" x="319" y="-119.5" font-family="FreeSans.ttf" font-size="10.00">cstring</text>
</a>
</g>
</g>
<!-- Node3&#45;&gt;Node18 -->
<g id="edge20" class="edge">
<title>Node3&#45;&gt;Node18</title>
<path fill="none" stroke="midnightblue" d="M238.42,-168.32C253.54,-159.82 276.82,-146.73 294.47,-136.8"/>
<polygon fill="midnightblue" stroke="midnightblue" points="296.61,-139.61 303.61,-131.65 293.18,-133.51 296.61,-139.61"/>
</g>
<!-- Node4&#45;&gt;Node5 -->
<g id="edge4" class="edge">
<title>Node4&#45;&gt;Node5</title>
<path fill="none" stroke="midnightblue" d="M170.94,-56.08C176.93,-48.38 185.75,-37.03 193.05,-27.65"/>
<polygon fill="midnightblue" stroke="midnightblue" points="195.82,-29.79 199.19,-19.75 190.29,-25.5 195.82,-29.79"/>
</g>
<!-- Node6 -->
<g id="node6" class="node">
<title>Node6</title>
<g id="a_node6"><a xlink:title=" ">
<polygon fill="none" stroke="#bfbfbf" points="81,-0.5 81,-19.5 161,-19.5 161,-0.5 81,-0.5"/>
<text text-anchor="middle" x="121" y="-7.5" font-family="FreeSans.ttf" font-size="10.00">CoreExport.h</text>
</a>
</g>
</g>
<!-- Node4&#45;&gt;Node6 -->
<g id="edge5" class="edge">
<title>Node4&#45;&gt;Node6</title>
<path fill="none" stroke="midnightblue" d="M156.9,-56.08C150.76,-48.38 141.73,-37.03 134.26,-27.65"/>
<polygon fill="midnightblue" stroke="midnightblue" points="136.94,-25.39 127.97,-19.75 131.46,-29.75 136.94,-25.39"/>
</g>
<!-- Node7&#45;&gt;Node5 -->
<g id="edge10" class="edge">
<title>Node7&#45;&gt;Node5</title>
<path fill="none" stroke="midnightblue" d="M564.07,-57.15C475.81,-45.77 315.06,-25.06 242.85,-15.75"/>
<polygon fill="midnightblue" stroke="midnightblue" points="243.22,-12.27 232.86,-14.46 242.33,-19.21 243.22,-12.27"/>
</g>
<!-- Node7&#45;&gt;Node8 -->
<g id="edge7" class="edge">
<title>Node7&#45;&gt;Node8</title>
<path fill="none" stroke="midnightblue" d="M589.13,-56.47C553.45,-47.96 496.9,-34.41 438.17,-20.02"/>
<polygon fill="midnightblue" stroke="midnightblue" points="438.89,-16.6 428.34,-17.61 437.22,-23.39 438.89,-16.6"/>
</g>
<!-- Node9 -->
<g id="node9" class="node">
<title>Node9</title>
<g id="a_node9"><a xlink:title=" ">
<polygon fill="none" stroke="#bfbfbf" points="680,-0.5 680,-19.5 744,-19.5 744,-0.5 680,-0.5"/>
<text text-anchor="middle" x="712" y="-7.5" font-family="FreeSans.ttf" font-size="10.00">algorithm</text>
</a>
</g>
</g>
<!-- Node7&#45;&gt;Node9 -->
<g id="edge8" class="edge">
<title>Node7&#45;&gt;Node9</title>
<path fill="none" stroke="midnightblue" d="M638.98,-56.32C652.55,-47.9 673.38,-34.97 689.32,-25.07"/>
<polygon fill="midnightblue" stroke="midnightblue" points="691.41,-27.9 698.06,-19.65 687.71,-21.95 691.41,-27.9"/>
</g>
<!-- Node10 -->
<g id="node10" class="node">
<title>Node10</title>
<g id="a_node10"><a xlink:title=" ">
<polygon fill="none" stroke="#bfbfbf" points="762,-0.5 762,-19.5 804,-19.5 804,-0.5 762,-0.5"/>
<text text-anchor="middle" x="783" y="-7.5" font-family="FreeSans.ttf" font-size="10.00">array</text>
</a>
</g>
</g>
<!-- Node7&#45;&gt;Node10 -->
<g id="edge9" class="edge">
<title>Node7&#45;&gt;Node10</title>
<path fill="none" stroke="midnightblue" d="M650.04,-56.44C677.71,-46.99 722.31,-31.74 752.13,-21.55"/>
<polygon fill="midnightblue" stroke="midnightblue" points="753.3,-24.85 761.63,-18.3 751.03,-18.23 753.3,-24.85"/>
</g>
<!-- Node11 -->
<g id="node11" class="node">
<title>Node11</title>
<g id="a_node11"><a xlink:title=" ">
<polygon fill="none" stroke="#bfbfbf" points="822.5,-0.5 822.5,-19.5 875.5,-19.5 875.5,-0.5 822.5,-0.5"/>
<text text-anchor="middle" x="849" y="-7.5" font-family="FreeSans.ttf" font-size="10.00">iterator</text>
</a>
</g>
</g>
<!-- Node7&#45;&gt;Node11 -->
<g id="edge11" class="edge">
<title>Node7&#45;&gt;Node11</title>
<path fill="none" stroke="midnightblue" d="M661.07,-56.48C696.94,-47.98 753.79,-34.44 812.46,-20.11"/>
<polygon fill="midnightblue" stroke="midnightblue" points="813.39,-23.49 822.27,-17.71 811.73,-16.69 813.39,-23.49"/>
</g>
<!-- Node12 -->
<g id="node12" class="node">
<title>Node12</title>
<g id="a_node12"><a xlink:title=" ">
<polygon fill="none" stroke="#bfbfbf" points="894,-0.5 894,-19.5 938,-19.5 938,-0.5 894,-0.5"/>
<text text-anchor="middle" x="916" y="-7.5" font-family="FreeSans.ttf" font-size="10.00">limits</text>
</a>
</g>
</g>
<!-- Node7&#45;&gt;Node12 -->
<g id="edge12" class="edge">
<title>Node7&#45;&gt;Node12</title>
<path fill="none" stroke="midnightblue" d="M685.54,-56.47C736.2,-48.89 810.54,-36.74 883.86,-20.06"/>
<polygon fill="midnightblue" stroke="midnightblue" points="884.77,-23.44 893.73,-17.79 883.2,-16.62 884.77,-23.44"/>
</g>
<!-- Node13 -->
<g id="node13" class="node">
<title>Node13</title>
<g id="a_node13"><a xlink:title=" ">
<polygon fill="none" stroke="#bfbfbf" points="533.5,-0.5 533.5,-19.5 598.5,-19.5 598.5,-0.5 533.5,-0.5"/>
<text text-anchor="middle" x="566" y="-7.5" font-family="FreeSans.ttf" font-size="10.00">stdexcept</text>
</a>
</g>
</g>
<!-- Node7&#45;&gt;Node13 -->
<g id="edge13" class="edge">
<title>Node7&#45;&gt;Node13</title>
<path fill="none" stroke="midnightblue" d="M615.52,-56.32C606.8,-48.34 593.66,-36.31 583.1,-26.65"/>
<polygon fill="midnightblue" stroke="midnightblue" points="585.39,-24 575.65,-19.83 580.67,-29.17 585.39,-24"/>
</g>
<!-- Node14 -->
<g id="node14" class="node">
<title>Node14</title>
<g id="a_node14"><a xlink:title=" ">
<polygon fill="none" stroke="#bfbfbf" points="446.5,-0.5 446.5,-19.5 515.5,-19.5 515.5,-0.5 446.5,-0.5"/>
<text text-anchor="middle" x="481" y="-7.5" font-family="FreeSans.ttf" font-size="10.00">type_traits</text>
</a>
</g>
</g>
<!-- Node7&#45;&gt;Node14 -->
<g id="edge14" class="edge">
<title>Node7&#45;&gt;Node14</title>
<path fill="none" stroke="midnightblue" d="M602.18,-56.44C578.17,-47.44 540.17,-33.19 513.13,-23.05"/>
<polygon fill="midnightblue" stroke="midnightblue" points="514.3,-19.75 503.71,-19.52 511.84,-26.3 514.3,-19.75"/>
</g>
<!-- Node15 -->
<g id="node15" class="node">
<title>Node15</title>
<g id="a_node15"><a xlink:title=" ">
<polygon fill="none" stroke="#bfbfbf" points="616.5,-0.5 616.5,-19.5 661.5,-19.5 661.5,-0.5 616.5,-0.5"/>
<text text-anchor="middle" x="639" y="-7.5" font-family="FreeSans.ttf" font-size="10.00">utility</text>
</a>
</g>
</g>
<!-- Node7&#45;&gt;Node15 -->
<g id="edge15" class="edge">
<title>Node7&#45;&gt;Node15</title>
<path fill="none" stroke="midnightblue" d="M627.31,-56.08C629.17,-48.93 631.84,-38.64 634.15,-29.69"/>
<polygon fill="midnightblue" stroke="midnightblue" points="637.61,-30.31 636.73,-19.75 630.83,-28.55 637.61,-30.31"/>
</g>
<!-- Node19&#45;&gt;Node7 -->
<g id="edge22" class="edge">
<title>Node19&#45;&gt;Node7</title>
<path fill="none" stroke="midnightblue" d="M974.58,-168.46C906.91,-148.82 740.25,-100.45 664.1,-78.35"/>
<polygon fill="midnightblue" stroke="midnightblue" points="664.98,-74.96 654.41,-75.53 663.03,-81.68 664.98,-74.96"/>
</g>
<!-- Node19&#45;&gt;Node16 -->
<g id="edge23" class="edge">
<title>Node19&#45;&gt;Node16</title>
<path fill="none" stroke="midnightblue" d="M950.76,-168.44C880.21,-157.1 757.93,-137.45 700.09,-128.16"/>
<polygon fill="midnightblue" stroke="midnightblue" points="700.5,-124.68 690.07,-126.55 699.39,-131.59 700.5,-124.68"/>
</g>
<!-- Node20&#45;&gt;Node16 -->
<g id="edge25" class="edge">
<title>Node20&#45;&gt;Node16</title>
<path fill="none" stroke="midnightblue" d="M715,-168.32C706.81,-160.42 694.49,-148.55 684.53,-138.94"/>
<polygon fill="midnightblue" stroke="midnightblue" points="686.79,-136.26 677.16,-131.83 681.93,-141.29 686.79,-136.26"/>
</g>
<!-- Node21 -->
<g id="node21" class="node">
<title>Node21</title>
<g id="a_node21"><a xlink:href="MatrixView_8h.html" target="_top" xlink:title=" ">
<polygon fill="none" stroke="black" points="438,-112.5 438,-131.5 590,-131.5 590,-112.5 438,-112.5"/>
<text text-anchor="middle" x="514" y="-119.5" font-family="FreeSans.ttf" font-size="10.00">iDynTree/Core/MatrixView.h</text>
</a>
</g>
</g>
<!-- Node20&#45;&gt;Node21 -->
<g id="edge26" class="edge">
<title>Node20&#45;&gt;Node21</title>
<path fill="none" stroke="midnightblue" d="M690.72,-168.44C654.55,-159.14 596.62,-144.25 557.02,-134.06"/>
<polygon fill="midnightblue" stroke="midnightblue" points="557.68,-130.62 547.12,-131.52 555.93,-137.4 557.68,-130.62"/>
</g>
<!-- Node21&#45;&gt;Node4 -->
<g id="edge30" class="edge">
<title>Node21&#45;&gt;Node4</title>
<path fill="none" stroke="midnightblue" d="M458.54,-112.44C396.33,-102.85 295.52,-87.29 229.49,-77.1"/>
<polygon fill="midnightblue" stroke="midnightblue" points="229.62,-73.58 219.2,-75.52 228.55,-80.5 229.62,-73.58"/>
</g>
<!-- Node21&#45;&gt;Node7 -->
<g id="edge29" class="edge">
<title>Node21&#45;&gt;Node7</title>
<path fill="none" stroke="midnightblue" d="M531.83,-112.32C549.72,-103.62 577.48,-90.12 598.05,-80.11"/>
<polygon fill="midnightblue" stroke="midnightblue" points="599.75,-83.18 607.21,-75.65 596.69,-76.88 599.75,-83.18"/>
</g>
<!-- Node21&#45;&gt;Node8 -->
<g id="edge27" class="edge">
<title>Node21&#45;&gt;Node8</title>
<path fill="none" stroke="midnightblue" d="M505.21,-112.37C486.4,-93.89 442.01,-50.29 418.03,-26.74"/>
<polygon fill="midnightblue" stroke="midnightblue" points="420.33,-24.1 410.75,-19.59 415.43,-29.1 420.33,-24.1"/>
</g>
<!-- Node21&#45;&gt;Node14 -->
<g id="edge28" class="edge">
<title>Node21&#45;&gt;Node14</title>
<path fill="none" stroke="midnightblue" d="M511.41,-112.37C506.06,-94.54 493.69,-53.3 486.48,-29.27"/>
<polygon fill="midnightblue" stroke="midnightblue" points="489.8,-28.16 483.58,-19.59 483.1,-30.18 489.8,-28.16"/>
</g>
<!-- Node23 -->
<g id="node23" class="node">
<title>Node23</title>
<g id="a_node23"><a xlink:href="SpatialMotionVector_8h.html" target="_top" xlink:title=" ">
<polygon fill="none" stroke="black" points="96.5,-448.5 96.5,-478.5 251.5,-478.5 251.5,-448.5 96.5,-448.5"/>
<text text-anchor="start" x="104.5" y="-466.5" font-family="FreeSans.ttf" font-size="10.00">iDynTree/Core/SpatialMotion</text>
<text text-anchor="middle" x="174" y="-455.5" font-family="FreeSans.ttf" font-size="10.00">Vector.h</text>
</a>
</g>
</g>
<!-- Node22&#45;&gt;Node23 -->
<g id="edge32" class="edge">
<title>Node22&#45;&gt;Node23</title>
<path fill="none" stroke="midnightblue" d="M234.83,-515.48C225.39,-507.57 210.97,-495.48 198.54,-485.07"/>
<polygon fill="midnightblue" stroke="midnightblue" points="200.65,-482.26 190.73,-478.52 196.15,-487.63 200.65,-482.26"/>
</g>
<!-- Node23&#45;&gt;Node3 -->
<g id="edge33" class="edge">
<title>Node23&#45;&gt;Node3</title>
<path fill="none" stroke="midnightblue" d="M97.34,-448.39C73.21,-440.86 47.94,-429.4 29,-412 5.71,-390.6 0,-378.63 0,-347 0,-347 0,-347 0,-289 0,-227.05 70.08,-199.99 131.67,-188.17"/>
<polygon fill="midnightblue" stroke="midnightblue" points="132.64,-191.55 141.86,-186.33 131.4,-184.66 132.64,-191.55"/>
</g>
<!-- Node24 -->
<g id="node24" class="node">
<title>Node24</title>
<g id="a_node24"><a xlink:href="GeomVector3_8h.html" target="_top" xlink:title=" ">
<polygon fill="none" stroke="black" points="142.5,-224.5 142.5,-243.5 305.5,-243.5 305.5,-224.5 142.5,-224.5"/>
<text text-anchor="middle" x="224" y="-231.5" font-family="FreeSans.ttf" font-size="10.00">iDynTree/Core/GeomVector3.h</text>
</a>
</g>
</g>
<!-- Node23&#45;&gt;Node24 -->
<g id="edge34" class="edge">
<title>Node23&#45;&gt;Node24</title>
<path fill="none" stroke="midnightblue" d="M186.58,-448.12C194.17,-438.56 203.26,-425.35 208,-412 227.5,-357.12 226.94,-286.95 225.3,-253.87"/>
<polygon fill="midnightblue" stroke="midnightblue" points="228.79,-253.57 224.71,-243.8 221.81,-253.99 228.79,-253.57"/>
</g>
<!-- Node25 -->
<g id="node25" class="node">
<title>Node25</title>
<g id="a_node25"><a xlink:href="SpatialVector_8h.html" target="_top" xlink:title=" ">
<polygon fill="none" stroke="black" points="38.5,-392.5 38.5,-411.5 199.5,-411.5 199.5,-392.5 38.5,-392.5"/>
<text text-anchor="middle" x="119" y="-399.5" font-family="FreeSans.ttf" font-size="10.00">iDynTree/Core/SpatialVector.h</text>
</a>
</g>
</g>
<!-- Node23&#45;&gt;Node25 -->
<g id="edge36" class="edge">
<title>Node23&#45;&gt;Node25</title>
<path fill="none" stroke="midnightblue" d="M160.97,-448.4C152.81,-439.58 142.28,-428.18 133.81,-419.02"/>
<polygon fill="midnightblue" stroke="midnightblue" points="136.36,-416.63 127,-411.66 131.22,-421.38 136.36,-416.63"/>
</g>
<!-- Node24&#45;&gt;Node3 -->
<g id="edge35" class="edge">
<title>Node24&#45;&gt;Node3</title>
<path fill="none" stroke="midnightblue" d="M223.83,-224.08C223.7,-217.01 223.52,-206.86 223.35,-197.99"/>
<polygon fill="midnightblue" stroke="midnightblue" points="226.85,-197.68 223.16,-187.75 219.85,-197.81 226.85,-197.68"/>
</g>
<!-- Node25&#45;&gt;Node4 -->
<g id="edge57" class="edge">
<title>Node25&#45;&gt;Node4</title>
<path fill="none" stroke="midnightblue" d="M112.85,-392.33C87.3,-355.2 -6.18,-207.11 57,-112 67.78,-95.78 85.66,-85.39 103.76,-78.75"/>
<polygon fill="midnightblue" stroke="midnightblue" points="105.1,-81.99 113.49,-75.51 102.9,-75.34 105.1,-81.99"/>
</g>
<!-- Node25&#45;&gt;Node17 -->
<g id="edge60" class="edge">
<title>Node25&#45;&gt;Node17</title>
<path fill="none" stroke="midnightblue" d="M100.92,-392.39C87.44,-384.87 70.03,-372.57 62,-356 26.29,-282.31 66.17,-181.09 85.12,-140.69"/>
<polygon fill="midnightblue" stroke="midnightblue" points="88.32,-142.11 89.53,-131.58 82.02,-139.06 88.32,-142.11"/>
</g>
<!-- Node25&#45;&gt;Node24 -->
<g id="edge58" class="edge">
<title>Node25&#45;&gt;Node24</title>
<path fill="none" stroke="midnightblue" d="M124.65,-392.08C141.39,-365.61 190.98,-287.21 213.11,-252.21"/>
<polygon fill="midnightblue" stroke="midnightblue" points="216.19,-253.89 218.58,-243.57 210.28,-250.15 216.19,-253.89"/>
</g>
<!-- Node26 -->
<g id="node26" class="node">
<title>Node26</title>
<g id="a_node26"><a xlink:href="Position_8h.html" target="_top" xlink:title=" ">
<polygon fill="none" stroke="black" points="497.5,-336.5 497.5,-355.5 562.5,-355.5 562.5,-336.5 497.5,-336.5"/>
<text text-anchor="middle" x="530" y="-343.5" font-family="FreeSans.ttf" font-size="10.00">Position.h</text>
</a>
</g>
</g>
<!-- Node25&#45;&gt;Node26 -->
<g id="edge37" class="edge">
<title>Node25&#45;&gt;Node26</title>
<path fill="none" stroke="midnightblue" d="M184.12,-392.44C269.02,-381.29 415.13,-362.09 487.22,-352.62"/>
<polygon fill="midnightblue" stroke="midnightblue" points="487.85,-356.07 497.31,-351.3 486.94,-349.13 487.85,-356.07"/>
</g>
<!-- Node28 -->
<g id="node28" class="node">
<title>Node28</title>
<g id="a_node28"><a xlink:href="Rotation_8h.html" target="_top" xlink:title=" ">
<polygon fill="none" stroke="black" points="400,-280.5 400,-299.5 538,-299.5 538,-280.5 400,-280.5"/>
<text text-anchor="middle" x="469" y="-287.5" font-family="FreeSans.ttf" font-size="10.00">iDynTree/Core/Rotation.h</text>
</a>
</g>
</g>
<!-- Node25&#45;&gt;Node28 -->
<g id="edge56" class="edge">
<title>Node25&#45;&gt;Node28</title>
<path fill="none" stroke="midnightblue" d="M146.17,-392.46C208.33,-372.93 360.94,-324.96 431.77,-302.7"/>
<polygon fill="midnightblue" stroke="midnightblue" points="433.11,-305.95 441.6,-299.61 431.01,-299.27 433.11,-305.95"/>
</g>
<!-- Node31 -->
<g id="node31" class="node">
<title>Node31</title>
<g id="a_node31"><a xlink:title=" ">
<polygon fill="none" stroke="#bfbfbf" points="178,-112.5 178,-131.5 238,-131.5 238,-112.5 178,-112.5"/>
<text text-anchor="middle" x="208" y="-119.5" font-family="FreeSans.ttf" font-size="10.00">iostream</text>
</a>
</g>
</g>
<!-- Node25&#45;&gt;Node31 -->
<g id="edge59" class="edge">
<title>Node25&#45;&gt;Node31</title>
<path fill="none" stroke="midnightblue" d="M118.35,-392.45C116.99,-373.95 114,-328.85 114,-291 114,-291 114,-291 114,-233 114,-202.9 114.61,-191.83 133,-168 143.88,-153.9 160.54,-143.27 175.4,-135.9"/>
<polygon fill="midnightblue" stroke="midnightblue" points="177.23,-138.91 184.82,-131.52 174.27,-132.56 177.23,-138.91"/>
</g>
<!-- Node26&#45;&gt;Node16 -->
<g id="edge55" class="edge">
<title>Node26&#45;&gt;Node16</title>
<path fill="none" stroke="midnightblue" d="M562.88,-344.78C624.88,-342.35 758.08,-327.2 817,-244 836.52,-216.43 837.14,-195.12 817,-168 790.28,-132.02 735.65,-123.77 700.48,-122.43"/>
<polygon fill="midnightblue" stroke="midnightblue" points="700.32,-118.92 690.25,-122.21 700.17,-125.92 700.32,-118.92"/>
</g>
<!-- Node27 -->
<g id="node27" class="node">
<title>Node27</title>
<g id="a_node27"><a xlink:href="PositionRaw_8h.html" target="_top" xlink:title=" ">
<polygon fill="none" stroke="black" points="476,-224.5 476,-243.5 632,-243.5 632,-224.5 476,-224.5"/>
<text text-anchor="middle" x="554" y="-231.5" font-family="FreeSans.ttf" font-size="10.00">iDynTree/Core/PositionRaw.h</text>
</a>
</g>
</g>
<!-- Node26&#45;&gt;Node27 -->
<g id="edge38" class="edge">
<title>Node26&#45;&gt;Node27</title>
<path fill="none" stroke="midnightblue" d="M534.07,-336.24C538.03,-327.33 543.9,-313 547,-300 550.67,-284.63 552.42,-266.75 553.25,-253.64"/>
<polygon fill="midnightblue" stroke="midnightblue" points="556.75,-253.7 553.77,-243.53 549.76,-253.34 556.75,-253.7"/>
</g>
<!-- Node26&#45;&gt;Node28 -->
<g id="edge41" class="edge">
<title>Node26&#45;&gt;Node28</title>
<path fill="none" stroke="midnightblue" d="M520.2,-336.32C511.18,-328.34 497.59,-316.31 486.68,-306.65"/>
<polygon fill="midnightblue" stroke="midnightblue" points="488.79,-303.84 478.98,-299.83 484.15,-309.08 488.79,-303.84"/>
</g>
<!-- Node27&#45;&gt;Node3 -->
<g id="edge39" class="edge">
<title>Node27&#45;&gt;Node3</title>
<path fill="none" stroke="midnightblue" d="M501.55,-224.44C442.84,-214.87 347.77,-199.36 285.32,-189.17"/>
<polygon fill="midnightblue" stroke="midnightblue" points="285.64,-185.67 275.2,-187.52 284.51,-192.58 285.64,-185.67"/>
</g>
<!-- Node27&#45;&gt;Node16 -->
<g id="edge40" class="edge">
<title>Node27&#45;&gt;Node16</title>
<path fill="none" stroke="midnightblue" d="M562.95,-224.37C582.09,-205.89 627.28,-162.29 651.68,-138.74"/>
<polygon fill="midnightblue" stroke="midnightblue" points="654.33,-141.05 659.1,-131.59 649.47,-136.02 654.33,-141.05"/>
</g>
<!-- Node28&#45;&gt;Node3 -->
<g id="edge54" class="edge">
<title>Node28&#45;&gt;Node3</title>
<path fill="none" stroke="midnightblue" d="M454.82,-280.49C432.56,-267.35 387.86,-241.76 348,-224 318.99,-211.07 285.01,-199.03 259.81,-190.66"/>
<polygon fill="midnightblue" stroke="midnightblue" points="260.87,-187.32 250.27,-187.53 258.68,-193.97 260.87,-187.32"/>
</g>
<!-- Node28&#45;&gt;Node16 -->
<g id="edge42" class="edge">
<title>Node28&#45;&gt;Node16</title>
<path fill="none" stroke="midnightblue" d="M465.89,-280.23C461.78,-266.96 456.21,-241.49 467,-224 504.07,-163.89 589.05,-138.31 635.77,-128.46"/>
<polygon fill="midnightblue" stroke="midnightblue" points="636.55,-131.88 645.68,-126.49 635.19,-125.01 636.55,-131.88"/>
</g>
<!-- Node28&#45;&gt;Node24 -->
<g id="edge43" class="edge">
<title>Node28&#45;&gt;Node24</title>
<path fill="none" stroke="midnightblue" d="M430.18,-280.44C387.44,-271.02 318.67,-255.87 272.43,-245.68"/>
<polygon fill="midnightblue" stroke="midnightblue" points="273.16,-242.25 262.64,-243.52 271.65,-249.09 273.16,-242.25"/>
</g>
<!-- Node29 -->
<g id="node29" class="node">
<title>Node29</title>
<g id="a_node29"><a xlink:href="RotationRaw_8h.html" target="_top" xlink:title=" ">
<polygon fill="none" stroke="black" points="650,-224.5 650,-243.5 808,-243.5 808,-224.5 650,-224.5"/>
<text text-anchor="middle" x="729" y="-231.5" font-family="FreeSans.ttf" font-size="10.00">iDynTree/Core/RotationRaw.h</text>
</a>
</g>
</g>
<!-- Node28&#45;&gt;Node29 -->
<g id="edge44" class="edge">
<title>Node28&#45;&gt;Node29</title>
<path fill="none" stroke="midnightblue" d="M510.2,-280.44C555.65,-271 628.84,-255.8 677.91,-245.61"/>
<polygon fill="midnightblue" stroke="midnightblue" points="678.92,-248.98 687.99,-243.52 677.49,-242.12 678.92,-248.98"/>
</g>
<!-- Node29&#45;&gt;Node16 -->
<g id="edge53" class="edge">
<title>Node29&#45;&gt;Node16</title>
<path fill="none" stroke="midnightblue" d="M685.93,-224.49C665.6,-218.07 643.18,-206.99 631,-188 620.36,-171.4 635.36,-151.62 649.33,-138.27"/>
<polygon fill="midnightblue" stroke="midnightblue" points="651.69,-140.86 656.82,-131.58 647.03,-135.64 651.69,-140.86"/>
</g>
<!-- Node30 -->
<g id="node30" class="node">
<title>Node30</title>
<g id="a_node30"><a xlink:href="MatrixFixSize_8h.html" target="_top" xlink:title=" ">
<polygon fill="none" stroke="black" points="322.5,-168.5 322.5,-187.5 485.5,-187.5 485.5,-168.5 322.5,-168.5"/>
<text text-anchor="middle" x="404" y="-175.5" font-family="FreeSans.ttf" font-size="10.00">iDynTree/Core/MatrixFixSize.h</text>
</a>
</g>
</g>
<!-- Node29&#45;&gt;Node30 -->
<g id="edge45" class="edge">
<title>Node29&#45;&gt;Node30</title>
<path fill="none" stroke="midnightblue" d="M677.5,-224.44C619.86,-214.87 526.51,-199.36 465.19,-189.17"/>
<polygon fill="midnightblue" stroke="midnightblue" points="465.69,-185.7 455.26,-187.52 464.55,-192.61 465.69,-185.7"/>
</g>
<!-- Node30&#45;&gt;Node4 -->
<g id="edge46" class="edge">
<title>Node30&#45;&gt;Node4</title>
<path fill="none" stroke="midnightblue" d="M399.69,-168.31C392.21,-154.18 375.47,-126.39 353,-112 317.56,-89.3 271.77,-78.04 234.14,-72.46"/>
<polygon fill="midnightblue" stroke="midnightblue" points="234.14,-68.93 223.76,-71.03 233.19,-75.86 234.14,-68.93"/>
</g>
<!-- Node30&#45;&gt;Node8 -->
<g id="edge48" class="edge">
<title>Node30&#45;&gt;Node8</title>
<path fill="none" stroke="midnightblue" d="M403.89,-168.08C403.58,-141.95 402.65,-65.21 402.22,-29.58"/>
<polygon fill="midnightblue" stroke="midnightblue" points="405.72,-29.53 402.1,-19.57 398.72,-29.61 405.72,-29.53"/>
</g>
<!-- Node30&#45;&gt;Node16 -->
<g id="edge50" class="edge">
<title>Node30&#45;&gt;Node16</title>
<path fill="none" stroke="midnightblue" d="M450.87,-168.46C497.06,-159.88 569.59,-145.95 632,-132 633.27,-131.72 634.57,-131.42 635.88,-131.12"/>
<polygon fill="midnightblue" stroke="midnightblue" points="637.05,-134.43 645.96,-128.7 635.42,-127.63 637.05,-134.43"/>
</g>
<!-- Node30&#45;&gt;Node17 -->
<g id="edge52" class="edge">
<title>Node30&#45;&gt;Node17</title>
<path fill="none" stroke="midnightblue" d="M354.88,-168.44C293,-157.66 188,-139.37 131.94,-129.61"/>
<polygon fill="midnightblue" stroke="midnightblue" points="132.51,-126.16 122.06,-127.89 131.31,-133.05 132.51,-126.16"/>
</g>
<!-- Node30&#45;&gt;Node18 -->
<g id="edge49" class="edge">
<title>Node30&#45;&gt;Node18</title>
<path fill="none" stroke="midnightblue" d="M390.34,-168.32C377.08,-159.9 356.73,-146.97 341.15,-137.07"/>
<polygon fill="midnightblue" stroke="midnightblue" points="342.94,-134.06 332.62,-131.65 339.19,-139.97 342.94,-134.06"/>
</g>
<!-- Node30&#45;&gt;Node21 -->
<g id="edge47" class="edge">
<title>Node30&#45;&gt;Node21</title>
<path fill="none" stroke="midnightblue" d="M421.67,-168.32C439.39,-159.62 466.9,-146.12 487.29,-136.11"/>
<polygon fill="midnightblue" stroke="midnightblue" points="488.94,-139.2 496.37,-131.65 485.85,-132.92 488.94,-139.2"/>
</g>
<!-- Node30&#45;&gt;Node31 -->
<g id="edge51" class="edge">
<title>Node30&#45;&gt;Node31</title>
<path fill="none" stroke="midnightblue" d="M372.94,-168.44C339.2,-159.15 285.17,-144.26 248.21,-134.08"/>
<polygon fill="midnightblue" stroke="midnightblue" points="248.84,-130.62 238.27,-131.34 246.98,-137.37 248.84,-130.62"/>
</g>
<!-- Node32&#45;&gt;Node16 -->
<g id="edge65" class="edge">
<title>Node32&#45;&gt;Node16</title>
<path fill="none" stroke="midnightblue" d="M572.19,-394.24C657.99,-381.66 793.82,-345.82 836,-244 848.93,-212.79 856.56,-194.8 836,-168 819.58,-146.6 744.24,-133.15 700.23,-126.98"/>
<polygon fill="midnightblue" stroke="midnightblue" points="700.67,-123.51 690.29,-125.63 699.73,-130.44 700.67,-123.51"/>
</g>
<!-- Node32&#45;&gt;Node26 -->
<g id="edge62" class="edge">
<title>Node32&#45;&gt;Node26</title>
<path fill="none" stroke="midnightblue" d="M504.12,-392.08C508.41,-384.61 514.66,-373.72 519.94,-364.52"/>
<polygon fill="midnightblue" stroke="midnightblue" points="523.03,-366.17 524.98,-355.75 516.96,-362.68 523.03,-366.17"/>
</g>
<!-- Node32&#45;&gt;Node28 -->
<g id="edge63" class="edge">
<title>Node32&#45;&gt;Node28</title>
<path fill="none" stroke="midnightblue" d="M496.65,-392.37C491.78,-374.54 480.54,-333.3 473.98,-309.27"/>
<polygon fill="midnightblue" stroke="midnightblue" points="477.35,-308.32 471.34,-299.59 470.6,-310.16 477.35,-308.32"/>
</g>
<!-- Node32&#45;&gt;Node30 -->
<g id="edge64" class="edge">
<title>Node32&#45;&gt;Node30</title>
<path fill="none" stroke="midnightblue" d="M483.45,-392.3C458.41,-377.27 410.01,-343.8 391,-300 376.2,-265.9 387.89,-221.51 396.64,-197.09"/>
<polygon fill="midnightblue" stroke="midnightblue" points="399.95,-198.25 400.24,-187.65 393.41,-195.75 399.95,-198.25"/>
</g>
</g>
</svg>
