<?xml version="1.0" encoding="UTF-8" standalone="no"?>
<!DOCTYPE svg PUBLIC "-//W3C//DTD SVG 1.1//EN"
 "http://www.w3.org/Graphics/SVG/1.1/DTD/svg11.dtd">
<!-- Generated by graphviz version 2.43.0 (0)
 -->
<!-- Title: IpoptInterface.cpp Pages: 1 -->
<svg width="1784pt" height="610pt"
 viewBox="0.00 0.00 1784.00 610.00" xmlns="http://www.w3.org/2000/svg" xmlns:xlink="http://www.w3.org/1999/xlink">
<g id="graph0" class="graph" transform="scale(1 1) rotate(0) translate(4 606)">
<title>IpoptInterface.cpp</title>
<!-- Node1 -->
<g id="node1" class="node">
<title>Node1</title>
<g id="a_node1"><a xlink:title=" ">
<polygon fill="#bfbfbf" stroke="black" points="371.5,-582.5 371.5,-601.5 476.5,-601.5 476.5,-582.5 371.5,-582.5"/>
<text text-anchor="middle" x="424" y="-589.5" font-family="FreeSans.ttf" font-size="10.00">IpoptInterface.cpp</text>
</a>
</g>
</g>
<!-- Node2 -->
<g id="node2" class="node">
<title>Node2</title>
<g id="a_node2"><a xlink:title=" ">
<polygon fill="none" stroke="#bfbfbf" points="0,-526.5 0,-545.5 70,-545.5 70,-526.5 0,-526.5"/>
<text text-anchor="middle" x="35" y="-533.5" font-family="FreeSans.ttf" font-size="10.00">IpTNLP.hpp</text>
</a>
</g>
</g>
<!-- Node1&#45;&gt;Node2 -->
<g id="edge1" class="edge">
<title>Node1&#45;&gt;Node2</title>
<path fill="none" stroke="midnightblue" d="M371.22,-585.31C305.37,-577.95 189.13,-564.08 79.89,-546.05"/>
<polygon fill="midnightblue" stroke="midnightblue" points="80.46,-542.59 70.02,-544.4 79.31,-549.5 80.46,-542.59"/>
</g>
<!-- Node3 -->
<g id="node3" class="node">
<title>Node3</title>
<g id="a_node3"><a xlink:title=" ">
<polygon fill="none" stroke="#bfbfbf" points="88,-526.5 88,-545.5 214,-545.5 214,-526.5 88,-526.5"/>
<text text-anchor="middle" x="151" y="-533.5" font-family="FreeSans.ttf" font-size="10.00">IpIpoptApplication.hpp</text>
</a>
</g>
</g>
<!-- Node1&#45;&gt;Node3 -->
<g id="edge2" class="edge">
<title>Node1&#45;&gt;Node3</title>
<path fill="none" stroke="midnightblue" d="M380.74,-582.44C332.82,-572.96 255.52,-557.67 204,-547.48"/>
<polygon fill="midnightblue" stroke="midnightblue" points="204.54,-544.02 194.06,-545.52 203.19,-550.89 204.54,-544.02"/>
</g>
<!-- Node4 -->
<g id="node4" class="node">
<title>Node4</title>
<g id="a_node4"><a xlink:title=" ">
<polygon fill="none" stroke="#bfbfbf" points="419.5,-465 419.5,-484 496.5,-484 496.5,-465 419.5,-465"/>
<text text-anchor="middle" x="458" y="-472" font-family="FreeSans.ttf" font-size="10.00">Eigen/Dense</text>
</a>
</g>
</g>
<!-- Node1&#45;&gt;Node4 -->
<g id="edge3" class="edge">
<title>Node1&#45;&gt;Node4</title>
<path fill="none" stroke="midnightblue" d="M426.56,-582.32C432.04,-563.67 445.06,-519.44 452.52,-494.13"/>
<polygon fill="midnightblue" stroke="midnightblue" points="455.95,-494.86 455.41,-484.28 449.23,-492.89 455.95,-494.86"/>
</g>
<!-- Node5 -->
<g id="node5" class="node">
<title>Node5</title>
<g id="a_node5"><a xlink:href="EigenHelpers_8h.html" target="_top" xlink:title=" ">
<polygon fill="none" stroke="black" points="623.5,-526.5 623.5,-545.5 784.5,-545.5 784.5,-526.5 623.5,-526.5"/>
<text text-anchor="middle" x="704" y="-533.5" font-family="FreeSans.ttf" font-size="10.00">iDynTree/Core/EigenHelpers.h</text>
</a>
</g>
</g>
<!-- Node1&#45;&gt;Node5 -->
<g id="edge4" class="edge">
<title>Node1&#45;&gt;Node5</title>
<path fill="none" stroke="midnightblue" d="M468.37,-582.44C517.62,-572.94 597.13,-557.61 649.97,-547.42"/>
<polygon fill="midnightblue" stroke="midnightblue" points="650.68,-550.85 659.84,-545.52 649.36,-543.97 650.68,-550.85"/>
</g>
<!-- Node7 -->
<g id="node7" class="node">
<title>Node7</title>
<g id="a_node7"><a xlink:href="VectorDynSize_8h.html" target="_top" xlink:title=" ">
<polygon fill="none" stroke="black" points="269.5,-347.5 269.5,-366.5 436.5,-366.5 436.5,-347.5 269.5,-347.5"/>
<text text-anchor="middle" x="353" y="-354.5" font-family="FreeSans.ttf" font-size="10.00">iDynTree/Core/VectorDynSize.h</text>
</a>
</g>
</g>
<!-- Node1&#45;&gt;Node7 -->
<g id="edge76" class="edge">
<title>Node1&#45;&gt;Node7</title>
<path fill="none" stroke="midnightblue" d="M410.86,-582.35C399.85,-574.32 384.73,-561.33 377,-546 348.65,-489.78 349.27,-412.56 351.4,-377.15"/>
<polygon fill="midnightblue" stroke="midnightblue" points="354.91,-377.06 352.13,-366.83 347.93,-376.56 354.91,-377.06"/>
</g>
<!-- Node9 -->
<g id="node9" class="node">
<title>Node9</title>
<g id="a_node9"><a xlink:title=" ">
<polygon fill="none" stroke="#bfbfbf" points="678,-0.5 678,-19.5 730,-19.5 730,-0.5 678,-0.5"/>
<text text-anchor="middle" x="704" y="-7.5" font-family="FreeSans.ttf" font-size="10.00">cassert</text>
</a>
</g>
</g>
<!-- Node1&#45;&gt;Node9 -->
<g id="edge88" class="edge">
<title>Node1&#45;&gt;Node9</title>
<path fill="none" stroke="midnightblue" d="M377.13,-582.42C323.21,-569.53 242,-539.49 242,-475.5 242,-475.5 242,-475.5 242,-412 242,-336.99 243.09,-196.11 332,-112 380.55,-66.07 414.18,-95.83 478,-76 502.04,-68.53 507.01,-63.62 531,-56 537.61,-53.9 619.36,-32.79 668.08,-20.24"/>
<polygon fill="midnightblue" stroke="midnightblue" points="669.12,-23.58 677.94,-17.7 667.38,-16.81 669.12,-23.58"/>
</g>
<!-- Node19 -->
<g id="node19" class="node">
<title>Node19</title>
<g id="a_node19"><a xlink:href="Utils_8h.html" target="_top" xlink:title=" ">
<polygon fill="none" stroke="black" points="1354.5,-56.5 1354.5,-75.5 1473.5,-75.5 1473.5,-56.5 1354.5,-56.5"/>
<text text-anchor="middle" x="1414" y="-63.5" font-family="FreeSans.ttf" font-size="10.00">iDynTree/Core/Utils.h</text>
</a>
</g>
</g>
<!-- Node1&#45;&gt;Node19 -->
<g id="edge87" class="edge">
<title>Node1&#45;&gt;Node19</title>
<path fill="none" stroke="midnightblue" d="M476.58,-591.18C657.71,-590.97 1253.6,-583.07 1416,-490 1474.35,-456.56 1490,-425.26 1490,-358 1490,-358 1490,-358 1490,-182.5 1490,-140.81 1455.02,-102.53 1432.52,-82.22"/>
<polygon fill="midnightblue" stroke="midnightblue" points="1434.73,-79.5 1424.89,-75.58 1430.14,-84.78 1434.73,-79.5"/>
</g>
<!-- Node23 -->
<g id="node23" class="node">
<title>Node23</title>
<g id="a_node23"><a xlink:href="MatrixDynSize_8h.html" target="_top" xlink:title=" ">
<polygon fill="none" stroke="black" points="344,-291.5 344,-310.5 512,-310.5 512,-291.5 344,-291.5"/>
<text text-anchor="middle" x="428" y="-298.5" font-family="FreeSans.ttf" font-size="10.00">iDynTree/Core/MatrixDynSize.h</text>
</a>
</g>
</g>
<!-- Node1&#45;&gt;Node23 -->
<g id="edge77" class="edge">
<title>Node1&#45;&gt;Node23</title>
<path fill="none" stroke="midnightblue" d="M422.4,-582.4C419.26,-565.01 412.38,-524.44 410,-490 409.05,-476.25 407.51,-472.55 410,-459 417.91,-415.97 437.09,-410.03 445,-367 447.96,-350.89 442.56,-332.89 437.07,-319.92"/>
<polygon fill="midnightblue" stroke="midnightblue" points="440.2,-318.34 432.82,-310.74 433.85,-321.28 440.2,-318.34"/>
</g>
<!-- Node36 -->
<g id="node36" class="node">
<title>Node36</title>
<g id="a_node36"><a xlink:href="IpoptInterface_8h.html" target="_top" xlink:title=" ">
<polygon fill="none" stroke="black" points="1564,-168.5 1564,-198.5 1680,-198.5 1680,-168.5 1564,-168.5"/>
<text text-anchor="start" x="1572" y="-186.5" font-family="FreeSans.ttf" font-size="10.00">iDynTree/Optimizers</text>
<text text-anchor="middle" x="1622" y="-175.5" font-family="FreeSans.ttf" font-size="10.00">/IpoptInterface.h</text>
</a>
</g>
</g>
<!-- Node1&#45;&gt;Node36 -->
<g id="edge78" class="edge">
<title>Node1&#45;&gt;Node36</title>
<path fill="none" stroke="midnightblue" d="M476.73,-590.53C692.51,-588.37 1498.88,-578.2 1542,-546 1568.52,-526.19 1566,-508.6 1566,-475.5 1566,-475.5 1566,-475.5 1566,-300 1566,-264.78 1587.34,-229.04 1603.67,-206.83"/>
<polygon fill="midnightblue" stroke="midnightblue" points="1606.56,-208.81 1609.85,-198.74 1601,-204.56 1606.56,-208.81"/>
</g>
<!-- Node41 -->
<g id="node41" class="node">
<title>Node41</title>
<g id="a_node41"><a xlink:title=" ">
<polygon fill="none" stroke="#bfbfbf" points="1594.5,-526.5 1594.5,-545.5 1651.5,-545.5 1651.5,-526.5 1594.5,-526.5"/>
<text text-anchor="middle" x="1623" y="-533.5" font-family="FreeSans.ttf" font-size="10.00">ostream</text>
</a>
</g>
</g>
<!-- Node1&#45;&gt;Node41 -->
<g id="edge89" class="edge">
<title>Node1&#45;&gt;Node41</title>
<path fill="none" stroke="midnightblue" d="M476.79,-590.12C673.28,-586.66 1362.1,-572.85 1580,-546 1581.47,-545.82 1582.96,-545.61 1584.46,-545.39"/>
<polygon fill="midnightblue" stroke="midnightblue" points="1585.17,-548.82 1594.43,-543.68 1583.98,-541.92 1585.17,-548.82"/>
</g>
<!-- Node5&#45;&gt;Node4 -->
<g id="edge6" class="edge">
<title>Node5&#45;&gt;Node4</title>
<path fill="none" stroke="midnightblue" d="M665.45,-526.46C626.41,-517.71 564.36,-503.52 511,-490 506.89,-488.96 502.61,-487.84 498.34,-486.71"/>
<polygon fill="midnightblue" stroke="midnightblue" points="499.06,-483.28 488.5,-484.06 497.24,-490.04 499.06,-483.28"/>
</g>
<!-- Node6 -->
<g id="node6" class="node">
<title>Node6</title>
<g id="a_node6"><a xlink:title=" ">
<polygon fill="none" stroke="#bfbfbf" points="1430.5,-0.5 1430.5,-19.5 1483.5,-19.5 1483.5,-0.5 1430.5,-0.5"/>
<text text-anchor="middle" x="1457" y="-7.5" font-family="FreeSans.ttf" font-size="10.00">cstddef</text>
</a>
</g>
</g>
<!-- Node5&#45;&gt;Node6 -->
<g id="edge5" class="edge">
<title>Node5&#45;&gt;Node6</title>
<path fill="none" stroke="midnightblue" d="M784.67,-533.44C959.23,-529.56 1360.79,-517.71 1416,-490 1484.76,-455.49 1528,-434.94 1528,-358 1528,-358 1528,-358 1528,-182.5 1528,-122.02 1489.84,-58.04 1469.47,-28.2"/>
<polygon fill="midnightblue" stroke="midnightblue" points="1472.16,-25.94 1463.55,-19.76 1466.43,-29.96 1472.16,-25.94"/>
</g>
<!-- Node5&#45;&gt;Node7 -->
<g id="edge7" class="edge">
<title>Node5&#45;&gt;Node7</title>
<path fill="none" stroke="midnightblue" d="M660.5,-526.43C628.63,-519.2 584.86,-507.24 549,-490 527.44,-479.63 524.74,-472.51 505,-459 458.99,-427.52 404.42,-391.6 374.79,-372.21"/>
<polygon fill="midnightblue" stroke="midnightblue" points="376.38,-369.07 366.09,-366.53 372.55,-374.93 376.38,-369.07"/>
</g>
<!-- Node18 -->
<g id="node18" class="node">
<title>Node18</title>
<g id="a_node18"><a xlink:href="VectorFixSize_8h.html" target="_top" xlink:title=" ">
<polygon fill="none" stroke="black" points="1213,-174 1213,-193 1375,-193 1375,-174 1213,-174"/>
<text text-anchor="middle" x="1294" y="-181" font-family="FreeSans.ttf" font-size="10.00">iDynTree/Core/VectorFixSize.h</text>
</a>
</g>
</g>
<!-- Node5&#45;&gt;Node18 -->
<g id="edge19" class="edge">
<title>Node5&#45;&gt;Node18</title>
<path fill="none" stroke="midnightblue" d="M784.75,-533.99C946.69,-531.31 1299.53,-521.83 1344,-490 1373.8,-468.67 1376,-450.65 1376,-414 1376,-414 1376,-414 1376,-300 1376,-257.32 1338.32,-219.43 1314.04,-199.45"/>
<polygon fill="midnightblue" stroke="midnightblue" points="1316.11,-196.62 1306.1,-193.15 1311.76,-202.1 1316.11,-196.62"/>
</g>
<!-- Node5&#45;&gt;Node19 -->
<g id="edge75" class="edge">
<title>Node5&#45;&gt;Node19</title>
<path fill="none" stroke="midnightblue" d="M784.79,-532.63C950.86,-527.31 1319.48,-513.05 1372,-490 1416.91,-470.29 1452,-463.04 1452,-414 1452,-414 1452,-414 1452,-182.5 1452,-146.25 1434.91,-106.67 1423.65,-84.53"/>
<polygon fill="midnightblue" stroke="midnightblue" points="1426.73,-82.87 1418.97,-75.66 1420.54,-86.14 1426.73,-82.87"/>
</g>
<!-- Node5&#45;&gt;Node23 -->
<g id="edge29" class="edge">
<title>Node5&#45;&gt;Node23</title>
<path fill="none" stroke="midnightblue" d="M683.01,-526.4C646.35,-510.55 569.92,-473.63 521,-423 494.03,-395.09 502.3,-377.26 478,-347 469.18,-336.01 457.57,-325.39 447.75,-317.22"/>
<polygon fill="midnightblue" stroke="midnightblue" points="449.69,-314.28 439.71,-310.73 445.29,-319.73 449.69,-314.28"/>
</g>
<!-- Node25 -->
<g id="node25" class="node">
<title>Node25</title>
<g id="a_node25"><a xlink:href="MatrixFixSize_8h.html" target="_top" xlink:title=" ">
<polygon fill="none" stroke="black" points="644.5,-174 644.5,-193 807.5,-193 807.5,-174 644.5,-174"/>
<text text-anchor="middle" x="726" y="-181" font-family="FreeSans.ttf" font-size="10.00">iDynTree/Core/MatrixFixSize.h</text>
</a>
</g>
</g>
<!-- Node5&#45;&gt;Node25 -->
<g id="edge36" class="edge">
<title>Node5&#45;&gt;Node25</title>
<path fill="none" stroke="midnightblue" d="M703.3,-526.25C701.47,-504.93 695.92,-448.72 685,-403 666.91,-327.23 595.48,-302.13 635,-235 645.77,-216.7 665.83,-204.56 684.38,-196.78"/>
<polygon fill="midnightblue" stroke="midnightblue" points="685.82,-199.98 693.88,-193.1 683.29,-193.45 685.82,-199.98"/>
</g>
<!-- Node27 -->
<g id="node27" class="node">
<title>Node27</title>
<g id="a_node27"><a xlink:href="SpatialMotionVector_8h.html" target="_top" xlink:title=" ">
<polygon fill="none" stroke="black" points="987.5,-459.5 987.5,-489.5 1142.5,-489.5 1142.5,-459.5 987.5,-459.5"/>
<text text-anchor="start" x="995.5" y="-477.5" font-family="FreeSans.ttf" font-size="10.00">iDynTree/Core/SpatialMotion</text>
<text text-anchor="middle" x="1065" y="-466.5" font-family="FreeSans.ttf" font-size="10.00">Vector.h</text>
</a>
</g>
</g>
<!-- Node5&#45;&gt;Node27 -->
<g id="edge44" class="edge">
<title>Node5&#45;&gt;Node27</title>
<path fill="none" stroke="midnightblue" d="M755.72,-526.48C813.51,-516.95 908.05,-501.37 977.42,-489.94"/>
<polygon fill="midnightblue" stroke="midnightblue" points="978.17,-493.36 987.46,-488.28 977.03,-486.45 978.17,-493.36"/>
</g>
<!-- Node34 -->
<g id="node34" class="node">
<title>Node34</title>
<g id="a_node34"><a xlink:href="SpatialForceVector_8h.html" target="_top" xlink:title=" ">
<polygon fill="none" stroke="black" points="1187,-459.5 1187,-489.5 1335,-489.5 1335,-459.5 1187,-459.5"/>
<text text-anchor="start" x="1195" y="-477.5" font-family="FreeSans.ttf" font-size="10.00">iDynTree/Core/SpatialForce</text>
<text text-anchor="middle" x="1261" y="-466.5" font-family="FreeSans.ttf" font-size="10.00">Vector.h</text>
</a>
</g>
</g>
<!-- Node5&#45;&gt;Node34 -->
<g id="edge66" class="edge">
<title>Node5&#45;&gt;Node34</title>
<path fill="none" stroke="midnightblue" d="M784.83,-527.62C874.43,-519.26 1023.17,-504.86 1151,-490 1159.32,-489.03 1167.99,-487.98 1176.64,-486.89"/>
<polygon fill="midnightblue" stroke="midnightblue" points="1177.3,-490.33 1186.78,-485.6 1176.42,-483.39 1177.3,-490.33"/>
</g>
<!-- Node35 -->
<g id="node35" class="node">
<title>Node35</title>
<g id="a_node35"><a xlink:href="Transform_8h.html" target="_top" xlink:title=" ">
<polygon fill="none" stroke="black" points="530,-403.5 530,-422.5 676,-422.5 676,-403.5 530,-403.5"/>
<text text-anchor="middle" x="603" y="-410.5" font-family="FreeSans.ttf" font-size="10.00">iDynTree/Core/Transform.h</text>
</a>
</g>
</g>
<!-- Node5&#45;&gt;Node35 -->
<g id="edge70" class="edge">
<title>Node5&#45;&gt;Node35</title>
<path fill="none" stroke="midnightblue" d="M696.74,-526.3C679.99,-506.24 638.47,-456.49 616.74,-430.46"/>
<polygon fill="midnightblue" stroke="midnightblue" points="619.29,-428.06 610.2,-422.62 613.92,-432.54 619.29,-428.06"/>
</g>
<!-- Node8 -->
<g id="node8" class="node">
<title>Node8</title>
<g id="a_node8"><a xlink:href="Span_8h.html" target="_top" xlink:title=" ">
<polygon fill="none" stroke="black" points="348.5,-56.5 348.5,-75.5 469.5,-75.5 469.5,-56.5 348.5,-56.5"/>
<text text-anchor="middle" x="409" y="-63.5" font-family="FreeSans.ttf" font-size="10.00">iDynTree/Core/Span.h</text>
</a>
</g>
</g>
<!-- Node7&#45;&gt;Node8 -->
<g id="edge8" class="edge">
<title>Node7&#45;&gt;Node8</title>
<path fill="none" stroke="midnightblue" d="M332.8,-347.49C300.3,-332.29 240,-297.2 240,-246 240,-246 240,-246 240,-182.5 240,-147.52 248.63,-134.99 275,-112 294.1,-95.35 319.59,-84.81 343.21,-78.16"/>
<polygon fill="midnightblue" stroke="midnightblue" points="344.41,-81.46 353.19,-75.54 342.63,-74.69 344.41,-81.46"/>
</g>
<!-- Node17 -->
<g id="node17" class="node">
<title>Node17</title>
<g id="a_node17"><a xlink:title=" ">
<polygon fill="none" stroke="#bfbfbf" points="526,-112.5 526,-131.5 570,-131.5 570,-112.5 526,-112.5"/>
<text text-anchor="middle" x="548" y="-119.5" font-family="FreeSans.ttf" font-size="10.00">string</text>
</a>
</g>
</g>
<!-- Node7&#45;&gt;Node17 -->
<g id="edge18" class="edge">
<title>Node7&#45;&gt;Node17</title>
<path fill="none" stroke="midnightblue" d="M347.37,-347.48C339.83,-334.97 328.14,-310.93 335,-291 357.56,-225.43 375.28,-209.28 431,-168 456.67,-148.98 491.36,-136.98 516.3,-130.2"/>
<polygon fill="midnightblue" stroke="midnightblue" points="517.19,-133.58 526,-127.69 515.44,-126.81 517.19,-133.58"/>
</g>
<!-- Node8&#45;&gt;Node6 -->
<g id="edge12" class="edge">
<title>Node8&#45;&gt;Node6</title>
<path fill="none" stroke="midnightblue" d="M469.71,-63.9C655.69,-60.27 1216.72,-47.43 1420.38,-19.7"/>
<polygon fill="midnightblue" stroke="midnightblue" points="1420.97,-23.15 1430.38,-18.29 1419.99,-16.22 1420.97,-23.15"/>
</g>
<!-- Node8&#45;&gt;Node9 -->
<g id="edge9" class="edge">
<title>Node8&#45;&gt;Node9</title>
<path fill="none" stroke="midnightblue" d="M466.06,-56.48C516.64,-48.61 592.7,-36.05 667.6,-20.17"/>
<polygon fill="midnightblue" stroke="midnightblue" points="668.64,-23.53 677.68,-18.01 667.17,-16.68 668.64,-23.53"/>
</g>
<!-- Node10 -->
<g id="node10" class="node">
<title>Node10</title>
<g id="a_node10"><a xlink:title=" ">
<polygon fill="none" stroke="#bfbfbf" points="596,-0.5 596,-19.5 660,-19.5 660,-0.5 596,-0.5"/>
<text text-anchor="middle" x="628" y="-7.5" font-family="FreeSans.ttf" font-size="10.00">algorithm</text>
</a>
</g>
</g>
<!-- Node8&#45;&gt;Node10 -->
<g id="edge10" class="edge">
<title>Node8&#45;&gt;Node10</title>
<path fill="none" stroke="midnightblue" d="M443.7,-56.44C482.36,-46.91 544.86,-31.5 586.19,-21.31"/>
<polygon fill="midnightblue" stroke="midnightblue" points="587.08,-24.69 595.95,-18.9 585.41,-17.9 587.08,-24.69"/>
</g>
<!-- Node11 -->
<g id="node11" class="node">
<title>Node11</title>
<g id="a_node11"><a xlink:title=" ">
<polygon fill="none" stroke="#bfbfbf" points="255,-0.5 255,-19.5 297,-19.5 297,-0.5 255,-0.5"/>
<text text-anchor="middle" x="276" y="-7.5" font-family="FreeSans.ttf" font-size="10.00">array</text>
</a>
</g>
</g>
<!-- Node8&#45;&gt;Node11 -->
<g id="edge11" class="edge">
<title>Node8&#45;&gt;Node11</title>
<path fill="none" stroke="midnightblue" d="M387.93,-56.44C365.94,-47.52 331.27,-33.44 306.34,-23.32"/>
<polygon fill="midnightblue" stroke="midnightblue" points="307.56,-20.04 296.98,-19.52 304.92,-26.52 307.56,-20.04"/>
</g>
<!-- Node12 -->
<g id="node12" class="node">
<title>Node12</title>
<g id="a_node12"><a xlink:title=" ">
<polygon fill="none" stroke="#bfbfbf" points="315.5,-0.5 315.5,-19.5 368.5,-19.5 368.5,-0.5 315.5,-0.5"/>
<text text-anchor="middle" x="342" y="-7.5" font-family="FreeSans.ttf" font-size="10.00">iterator</text>
</a>
</g>
</g>
<!-- Node8&#45;&gt;Node12 -->
<g id="edge13" class="edge">
<title>Node8&#45;&gt;Node12</title>
<path fill="none" stroke="midnightblue" d="M398.24,-56.32C388.23,-48.26 373.11,-36.08 361.07,-26.37"/>
<polygon fill="midnightblue" stroke="midnightblue" points="362.94,-23.38 352.96,-19.83 358.55,-28.83 362.94,-23.38"/>
</g>
<!-- Node13 -->
<g id="node13" class="node">
<title>Node13</title>
<g id="a_node13"><a xlink:title=" ">
<polygon fill="none" stroke="#bfbfbf" points="387,-0.5 387,-19.5 431,-19.5 431,-0.5 387,-0.5"/>
<text text-anchor="middle" x="409" y="-7.5" font-family="FreeSans.ttf" font-size="10.00">limits</text>
</a>
</g>
</g>
<!-- Node8&#45;&gt;Node13 -->
<g id="edge14" class="edge">
<title>Node8&#45;&gt;Node13</title>
<path fill="none" stroke="midnightblue" d="M409,-56.08C409,-49.01 409,-38.86 409,-29.99"/>
<polygon fill="midnightblue" stroke="midnightblue" points="412.5,-29.75 409,-19.75 405.5,-29.75 412.5,-29.75"/>
</g>
<!-- Node14 -->
<g id="node14" class="node">
<title>Node14</title>
<g id="a_node14"><a xlink:title=" ">
<polygon fill="none" stroke="#bfbfbf" points="449.5,-0.5 449.5,-19.5 514.5,-19.5 514.5,-0.5 449.5,-0.5"/>
<text text-anchor="middle" x="482" y="-7.5" font-family="FreeSans.ttf" font-size="10.00">stdexcept</text>
</a>
</g>
</g>
<!-- Node8&#45;&gt;Node14 -->
<g id="edge15" class="edge">
<title>Node8&#45;&gt;Node14</title>
<path fill="none" stroke="midnightblue" d="M420.73,-56.32C431.84,-48.11 448.74,-35.6 461.98,-25.81"/>
<polygon fill="midnightblue" stroke="midnightblue" points="464.1,-28.59 470.06,-19.83 459.94,-22.97 464.1,-28.59"/>
</g>
<!-- Node15 -->
<g id="node15" class="node">
<title>Node15</title>
<g id="a_node15"><a xlink:title=" ">
<polygon fill="none" stroke="#bfbfbf" points="167.5,-0.5 167.5,-19.5 236.5,-19.5 236.5,-0.5 167.5,-0.5"/>
<text text-anchor="middle" x="202" y="-7.5" font-family="FreeSans.ttf" font-size="10.00">type_traits</text>
</a>
</g>
</g>
<!-- Node8&#45;&gt;Node15 -->
<g id="edge16" class="edge">
<title>Node8&#45;&gt;Node15</title>
<path fill="none" stroke="midnightblue" d="M376.2,-56.44C340.62,-47.16 283.69,-32.31 244.65,-22.13"/>
<polygon fill="midnightblue" stroke="midnightblue" points="245.21,-18.65 234.65,-19.52 243.44,-25.43 245.21,-18.65"/>
</g>
<!-- Node16 -->
<g id="node16" class="node">
<title>Node16</title>
<g id="a_node16"><a xlink:title=" ">
<polygon fill="none" stroke="#bfbfbf" points="532.5,-0.5 532.5,-19.5 577.5,-19.5 577.5,-0.5 532.5,-0.5"/>
<text text-anchor="middle" x="555" y="-7.5" font-family="FreeSans.ttf" font-size="10.00">utility</text>
</a>
</g>
</g>
<!-- Node8&#45;&gt;Node16 -->
<g id="edge17" class="edge">
<title>Node8&#45;&gt;Node16</title>
<path fill="none" stroke="midnightblue" d="M432.13,-56.44C456.63,-47.39 495.46,-33.02 522.91,-22.87"/>
<polygon fill="midnightblue" stroke="midnightblue" points="524.29,-26.09 532.45,-19.34 521.86,-19.53 524.29,-26.09"/>
</g>
<!-- Node18&#45;&gt;Node6 -->
<g id="edge27" class="edge">
<title>Node18&#45;&gt;Node6</title>
<path fill="none" stroke="midnightblue" d="M1295.13,-173.85C1298.49,-151.38 1310.49,-90.47 1345,-56 1356.07,-44.94 1392.36,-31.46 1420.67,-22.16"/>
<polygon fill="midnightblue" stroke="midnightblue" points="1421.85,-25.45 1430.29,-19.05 1419.7,-18.79 1421.85,-25.45"/>
</g>
<!-- Node18&#45;&gt;Node8 -->
<g id="edge23" class="edge">
<title>Node18&#45;&gt;Node8</title>
<path fill="none" stroke="midnightblue" d="M1289.34,-173.8C1280.42,-158.14 1259.26,-125.58 1231,-112 1164.27,-79.92 667.04,-70.29 479.93,-67.79"/>
<polygon fill="midnightblue" stroke="midnightblue" points="479.7,-64.28 469.65,-67.65 479.61,-71.28 479.7,-64.28"/>
</g>
<!-- Node18&#45;&gt;Node9 -->
<g id="edge26" class="edge">
<title>Node18&#45;&gt;Node9</title>
<path fill="none" stroke="midnightblue" d="M1292.36,-173.97C1288.98,-158.88 1279.75,-127.61 1259,-112 1176.07,-49.6 850.05,-21.3 740.29,-13.4"/>
<polygon fill="midnightblue" stroke="midnightblue" points="740.28,-9.89 730.06,-12.68 739.79,-16.87 740.28,-9.89"/>
</g>
<!-- Node18&#45;&gt;Node17 -->
<g id="edge24" class="edge">
<title>Node18&#45;&gt;Node17</title>
<path fill="none" stroke="midnightblue" d="M1212.74,-176.02C1049.93,-163.03 689.96,-134.32 580.32,-125.58"/>
<polygon fill="midnightblue" stroke="midnightblue" points="580.46,-122.08 570.21,-124.77 579.9,-129.06 580.46,-122.08"/>
</g>
<!-- Node18&#45;&gt;Node19 -->
<g id="edge20" class="edge">
<title>Node18&#45;&gt;Node19</title>
<path fill="none" stroke="midnightblue" d="M1303.02,-173.82C1323.09,-154.5 1371.68,-107.74 1397.39,-82.98"/>
<polygon fill="midnightblue" stroke="midnightblue" points="1400.1,-85.24 1404.88,-75.78 1395.24,-80.2 1400.1,-85.24"/>
</g>
<!-- Node21 -->
<g id="node21" class="node">
<title>Node21</title>
<g id="a_node21"><a xlink:title=" ">
<polygon fill="none" stroke="#bfbfbf" points="1098,-112.5 1098,-131.5 1154,-131.5 1154,-112.5 1098,-112.5"/>
<text text-anchor="middle" x="1126" y="-119.5" font-family="FreeSans.ttf" font-size="10.00">sstream</text>
</a>
</g>
</g>
<!-- Node18&#45;&gt;Node21 -->
<g id="edge25" class="edge">
<title>Node18&#45;&gt;Node21</title>
<path fill="none" stroke="midnightblue" d="M1269.93,-173.98C1240.99,-163.72 1192.24,-146.46 1159.6,-134.9"/>
<polygon fill="midnightblue" stroke="midnightblue" points="1160.62,-131.55 1150.03,-131.51 1158.28,-138.15 1160.62,-131.55"/>
</g>
<!-- Node22 -->
<g id="node22" class="node">
<title>Node22</title>
<g id="a_node22"><a xlink:title=" ">
<polygon fill="none" stroke="#bfbfbf" points="1172,-112.5 1172,-131.5 1222,-131.5 1222,-112.5 1172,-112.5"/>
<text text-anchor="middle" x="1197" y="-119.5" font-family="FreeSans.ttf" font-size="10.00">cstring</text>
</a>
</g>
</g>
<!-- Node18&#45;&gt;Node22 -->
<g id="edge28" class="edge">
<title>Node18&#45;&gt;Node22</title>
<path fill="none" stroke="midnightblue" d="M1280.1,-173.98C1264.33,-164.3 1238.36,-148.37 1219.65,-136.89"/>
<polygon fill="midnightblue" stroke="midnightblue" points="1221.23,-133.75 1210.87,-131.51 1217.57,-139.72 1221.23,-133.75"/>
</g>
<!-- Node19&#45;&gt;Node6 -->
<g id="edge21" class="edge">
<title>Node19&#45;&gt;Node6</title>
<path fill="none" stroke="midnightblue" d="M1421.1,-56.08C1427.24,-48.38 1436.27,-37.03 1443.74,-27.65"/>
<polygon fill="midnightblue" stroke="midnightblue" points="1446.54,-29.75 1450.03,-19.75 1441.06,-25.39 1446.54,-29.75"/>
</g>
<!-- Node20 -->
<g id="node20" class="node">
<title>Node20</title>
<g id="a_node20"><a xlink:title=" ">
<polygon fill="none" stroke="#bfbfbf" points="1332,-0.5 1332,-19.5 1412,-19.5 1412,-0.5 1332,-0.5"/>
<text text-anchor="middle" x="1372" y="-7.5" font-family="FreeSans.ttf" font-size="10.00">CoreExport.h</text>
</a>
</g>
</g>
<!-- Node19&#45;&gt;Node20 -->
<g id="edge22" class="edge">
<title>Node19&#45;&gt;Node20</title>
<path fill="none" stroke="midnightblue" d="M1407.06,-56.08C1401.07,-48.38 1392.25,-37.03 1384.95,-27.65"/>
<polygon fill="midnightblue" stroke="midnightblue" points="1387.71,-25.5 1378.81,-19.75 1382.18,-29.79 1387.71,-25.5"/>
</g>
<!-- Node23&#45;&gt;Node17 -->
<g id="edge30" class="edge">
<title>Node23&#45;&gt;Node17</title>
<path fill="none" stroke="midnightblue" d="M426.86,-291.21C424.4,-268.32 420.93,-206.02 450,-168 466,-147.07 494.02,-135.55 516.01,-129.43"/>
<polygon fill="midnightblue" stroke="midnightblue" points="517.11,-132.76 525.94,-126.9 515.38,-125.97 517.11,-132.76"/>
</g>
<!-- Node24 -->
<g id="node24" class="node">
<title>Node24</title>
<g id="a_node24"><a xlink:href="MatrixView_8h.html" target="_top" xlink:title=" ">
<polygon fill="none" stroke="black" points="341,-112.5 341,-131.5 493,-131.5 493,-112.5 341,-112.5"/>
<text text-anchor="middle" x="417" y="-119.5" font-family="FreeSans.ttf" font-size="10.00">iDynTree/Core/MatrixView.h</text>
</a>
</g>
</g>
<!-- Node23&#45;&gt;Node24 -->
<g id="edge31" class="edge">
<title>Node23&#45;&gt;Node24</title>
<path fill="none" stroke="midnightblue" d="M423.89,-291.28C419.94,-282.38 414.26,-268.07 412,-255 405.14,-215.22 410.08,-167.73 413.83,-141.95"/>
<polygon fill="midnightblue" stroke="midnightblue" points="417.34,-142.15 415.43,-131.73 410.43,-141.07 417.34,-142.15"/>
</g>
<!-- Node24&#45;&gt;Node8 -->
<g id="edge34" class="edge">
<title>Node24&#45;&gt;Node8</title>
<path fill="none" stroke="midnightblue" d="M415.68,-112.08C414.62,-104.93 413.09,-94.64 411.77,-85.69"/>
<polygon fill="midnightblue" stroke="midnightblue" points="415.22,-85.13 410.3,-75.75 408.3,-86.16 415.22,-85.13"/>
</g>
<!-- Node24&#45;&gt;Node9 -->
<g id="edge32" class="edge">
<title>Node24&#45;&gt;Node9</title>
<path fill="none" stroke="midnightblue" d="M439.52,-112.37C490.24,-92.93 613.53,-45.67 672.1,-23.23"/>
<polygon fill="midnightblue" stroke="midnightblue" points="673.5,-26.44 681.58,-19.59 670.99,-19.9 673.5,-26.44"/>
</g>
<!-- Node24&#45;&gt;Node15 -->
<g id="edge33" class="edge">
<title>Node24&#45;&gt;Node15</title>
<path fill="none" stroke="midnightblue" d="M400.13,-112.37C362.69,-93.21 272.43,-47.04 227.83,-24.22"/>
<polygon fill="midnightblue" stroke="midnightblue" points="229.29,-21.03 218.79,-19.59 226.1,-27.26 229.29,-21.03"/>
</g>
<!-- Node24&#45;&gt;Node19 -->
<g id="edge35" class="edge">
<title>Node24&#45;&gt;Node19</title>
<path fill="none" stroke="midnightblue" d="M493.14,-113.83C501.19,-113.17 509.26,-112.54 517,-112 825.09,-90.42 1193.42,-75.29 1344.33,-69.55"/>
<polygon fill="midnightblue" stroke="midnightblue" points="1344.52,-73.05 1354.38,-69.17 1344.26,-66.05 1344.52,-73.05"/>
</g>
<!-- Node25&#45;&gt;Node9 -->
<g id="edge39" class="edge">
<title>Node25&#45;&gt;Node9</title>
<path fill="none" stroke="midnightblue" d="M724.88,-173.76C721.47,-147.15 711.15,-66.71 706.42,-29.84"/>
<polygon fill="midnightblue" stroke="midnightblue" points="709.84,-28.99 705.09,-19.52 702.89,-29.88 709.84,-28.99"/>
</g>
<!-- Node25&#45;&gt;Node17 -->
<g id="edge41" class="edge">
<title>Node25&#45;&gt;Node17</title>
<path fill="none" stroke="midnightblue" d="M700.5,-173.98C668.65,-163.33 614.17,-145.12 579.68,-133.59"/>
<polygon fill="midnightblue" stroke="midnightblue" points="580.68,-130.23 570.09,-130.38 578.46,-136.87 580.68,-130.23"/>
</g>
<!-- Node25&#45;&gt;Node19 -->
<g id="edge37" class="edge">
<title>Node25&#45;&gt;Node19</title>
<path fill="none" stroke="midnightblue" d="M744.52,-173.94C778.48,-158.65 853.37,-126.88 920,-112 1068.6,-78.82 1247.58,-70 1344.09,-67.73"/>
<polygon fill="midnightblue" stroke="midnightblue" points="1344.38,-71.22 1354.31,-67.5 1344.23,-64.22 1344.38,-71.22"/>
</g>
<!-- Node25&#45;&gt;Node21 -->
<g id="edge43" class="edge">
<title>Node25&#45;&gt;Node21</title>
<path fill="none" stroke="midnightblue" d="M783.31,-173.98C866.12,-161.66 1017.02,-139.21 1087.63,-128.71"/>
<polygon fill="midnightblue" stroke="midnightblue" points="1088.48,-132.12 1097.86,-127.19 1087.45,-125.2 1088.48,-132.12"/>
</g>
<!-- Node25&#45;&gt;Node22 -->
<g id="edge40" class="edge">
<title>Node25&#45;&gt;Node22</title>
<path fill="none" stroke="midnightblue" d="M807.87,-176.57C893.84,-169.55 1033.02,-155.92 1161.8,-131.98"/>
<polygon fill="midnightblue" stroke="midnightblue" points="1162.66,-135.38 1171.84,-130.09 1161.37,-128.5 1162.66,-135.38"/>
</g>
<!-- Node25&#45;&gt;Node24 -->
<g id="edge38" class="edge">
<title>Node25&#45;&gt;Node24</title>
<path fill="none" stroke="midnightblue" d="M681.73,-173.98C626.2,-163.28 531.03,-144.96 471.2,-133.44"/>
<polygon fill="midnightblue" stroke="midnightblue" points="471.67,-129.96 461.19,-131.51 470.35,-136.84 471.67,-129.96"/>
</g>
<!-- Node26 -->
<g id="node26" class="node">
<title>Node26</title>
<g id="a_node26"><a xlink:title=" ">
<polygon fill="none" stroke="#bfbfbf" points="929,-112.5 929,-131.5 989,-131.5 989,-112.5 929,-112.5"/>
<text text-anchor="middle" x="959" y="-119.5" font-family="FreeSans.ttf" font-size="10.00">iostream</text>
</a>
</g>
</g>
<!-- Node25&#45;&gt;Node26 -->
<g id="edge42" class="edge">
<title>Node25&#45;&gt;Node26</title>
<path fill="none" stroke="midnightblue" d="M759.38,-173.98C801.5,-163.22 873.85,-144.74 918.91,-133.24"/>
<polygon fill="midnightblue" stroke="midnightblue" points="919.82,-136.62 928.64,-130.75 918.09,-129.84 919.82,-136.62"/>
</g>
<!-- Node27&#45;&gt;Node18 -->
<g id="edge45" class="edge">
<title>Node27&#45;&gt;Node18</title>
<path fill="none" stroke="midnightblue" d="M1115.63,-459.43C1136.92,-451.5 1160.71,-439.74 1178,-423 1244.95,-358.18 1278.54,-246.79 1289.68,-202.97"/>
<polygon fill="midnightblue" stroke="midnightblue" points="1293.11,-203.69 1292.08,-193.14 1286.31,-202.03 1293.11,-203.69"/>
</g>
<!-- Node28 -->
<g id="node28" class="node">
<title>Node28</title>
<g id="a_node28"><a xlink:href="GeomVector3_8h.html" target="_top" xlink:title=" ">
<polygon fill="none" stroke="black" points="1070.5,-235.5 1070.5,-254.5 1233.5,-254.5 1233.5,-235.5 1070.5,-235.5"/>
<text text-anchor="middle" x="1152" y="-242.5" font-family="FreeSans.ttf" font-size="10.00">iDynTree/Core/GeomVector3.h</text>
</a>
</g>
</g>
<!-- Node27&#45;&gt;Node28 -->
<g id="edge46" class="edge">
<title>Node27&#45;&gt;Node28</title>
<path fill="none" stroke="midnightblue" d="M1035.99,-459.48C1014.14,-446.77 989.46,-426.45 999,-403 1025.59,-337.63 1093.93,-284.59 1129.59,-260.31"/>
<polygon fill="midnightblue" stroke="midnightblue" points="1131.93,-262.96 1138.31,-254.5 1128.05,-257.13 1131.93,-262.96"/>
</g>
<!-- Node29 -->
<g id="node29" class="node">
<title>Node29</title>
<g id="a_node29"><a xlink:href="SpatialVector_8h.html" target="_top" xlink:title=" ">
<polygon fill="none" stroke="black" points="1008.5,-403.5 1008.5,-422.5 1169.5,-422.5 1169.5,-403.5 1008.5,-403.5"/>
<text text-anchor="middle" x="1089" y="-410.5" font-family="FreeSans.ttf" font-size="10.00">iDynTree/Core/SpatialVector.h</text>
</a>
</g>
</g>
<!-- Node27&#45;&gt;Node29 -->
<g id="edge48" class="edge">
<title>Node27&#45;&gt;Node29</title>
<path fill="none" stroke="midnightblue" d="M1070.69,-459.4C1074,-451.2 1078.2,-440.78 1081.74,-431.99"/>
<polygon fill="midnightblue" stroke="midnightblue" points="1085.01,-433.24 1085.51,-422.66 1078.52,-430.62 1085.01,-433.24"/>
</g>
<!-- Node28&#45;&gt;Node18 -->
<g id="edge47" class="edge">
<title>Node28&#45;&gt;Node18</title>
<path fill="none" stroke="midnightblue" d="M1172.35,-235.48C1196.39,-225.4 1236.6,-208.55 1264.16,-197"/>
<polygon fill="midnightblue" stroke="midnightblue" points="1265.82,-200.1 1273.69,-193.01 1263.12,-193.65 1265.82,-200.1"/>
</g>
<!-- Node29&#45;&gt;Node19 -->
<g id="edge62" class="edge">
<title>Node29&#45;&gt;Node19</title>
<path fill="none" stroke="midnightblue" d="M1153.99,-403.45C1248.83,-389.12 1414,-356.36 1414,-302 1414,-302 1414,-302 1414,-182.5 1414,-148.36 1414,-108.55 1414,-85.71"/>
<polygon fill="midnightblue" stroke="midnightblue" points="1417.5,-85.69 1414,-75.69 1410.5,-85.69 1417.5,-85.69"/>
</g>
<!-- Node29&#45;&gt;Node21 -->
<g id="edge65" class="edge">
<title>Node29&#45;&gt;Node21</title>
<path fill="none" stroke="midnightblue" d="M1102.69,-403.5C1134.52,-382.8 1213.04,-326.22 1242,-255 1245.35,-246.77 1245.51,-243.17 1242,-235 1232.81,-213.63 1220.78,-215.12 1204,-199 1182.64,-178.48 1158.2,-154.6 1142.46,-139.17"/>
<polygon fill="midnightblue" stroke="midnightblue" points="1144.68,-136.44 1135.09,-131.93 1139.77,-141.44 1144.68,-136.44"/>
</g>
<!-- Node29&#45;&gt;Node26 -->
<g id="edge64" class="edge">
<title>Node29&#45;&gt;Node26</title>
<path fill="none" stroke="midnightblue" d="M1075.34,-403.24C1051.32,-386.64 1004,-348.1 1004,-302 1004,-302 1004,-302 1004,-244 1004,-205.15 983.37,-163.43 970.04,-140.54"/>
<polygon fill="midnightblue" stroke="midnightblue" points="972.86,-138.44 964.7,-131.69 966.87,-142.06 972.86,-138.44"/>
</g>
<!-- Node29&#45;&gt;Node28 -->
<g id="edge63" class="edge">
<title>Node29&#45;&gt;Node28</title>
<path fill="none" stroke="midnightblue" d="M1092.39,-403.08C1102.35,-376.83 1131.68,-299.55 1145.12,-264.12"/>
<polygon fill="midnightblue" stroke="midnightblue" points="1148.47,-265.16 1148.75,-254.57 1141.93,-262.68 1148.47,-265.16"/>
</g>
<!-- Node30 -->
<g id="node30" class="node">
<title>Node30</title>
<g id="a_node30"><a xlink:href="Position_8h.html" target="_top" xlink:title=" ">
<polygon fill="none" stroke="black" points="699.5,-347.5 699.5,-366.5 764.5,-366.5 764.5,-347.5 699.5,-347.5"/>
<text text-anchor="middle" x="732" y="-354.5" font-family="FreeSans.ttf" font-size="10.00">Position.h</text>
</a>
</g>
</g>
<!-- Node29&#45;&gt;Node30 -->
<g id="edge49" class="edge">
<title>Node29&#45;&gt;Node30</title>
<path fill="none" stroke="midnightblue" d="M1032.43,-403.44C960.92,-392.63 839.38,-374.24 774.99,-364.5"/>
<polygon fill="midnightblue" stroke="midnightblue" points="775.2,-360.99 764.79,-362.96 774.15,-367.92 775.2,-360.99"/>
</g>
<!-- Node32 -->
<g id="node32" class="node">
<title>Node32</title>
<g id="a_node32"><a xlink:href="Rotation_8h.html" target="_top" xlink:title=" ">
<polygon fill="none" stroke="black" points="760,-291.5 760,-310.5 898,-310.5 898,-291.5 760,-291.5"/>
<text text-anchor="middle" x="829" y="-298.5" font-family="FreeSans.ttf" font-size="10.00">iDynTree/Core/Rotation.h</text>
</a>
</g>
</g>
<!-- Node29&#45;&gt;Node32 -->
<g id="edge61" class="edge">
<title>Node29&#45;&gt;Node32</title>
<path fill="none" stroke="midnightblue" d="M1068.6,-403.37C1022.84,-384.01 911.88,-337.06 858.56,-314.51"/>
<polygon fill="midnightblue" stroke="midnightblue" points="859.88,-311.26 849.31,-310.59 857.15,-317.71 859.88,-311.26"/>
</g>
<!-- Node30&#45;&gt;Node17 -->
<g id="edge60" class="edge">
<title>Node30&#45;&gt;Node17</title>
<path fill="none" stroke="midnightblue" d="M713.89,-347.48C674.84,-327.88 583.83,-275.38 554,-199 546.79,-180.55 545.96,-157.69 546.52,-141.89"/>
<polygon fill="midnightblue" stroke="midnightblue" points="550.02,-141.98 547.09,-131.8 543.03,-141.58 550.02,-141.98"/>
</g>
<!-- Node31 -->
<g id="node31" class="node">
<title>Node31</title>
<g id="a_node31"><a xlink:href="PositionRaw_8h.html" target="_top" xlink:title=" ">
<polygon fill="none" stroke="black" points="820,-235.5 820,-254.5 976,-254.5 976,-235.5 820,-235.5"/>
<text text-anchor="middle" x="898" y="-242.5" font-family="FreeSans.ttf" font-size="10.00">iDynTree/Core/PositionRaw.h</text>
</a>
</g>
</g>
<!-- Node30&#45;&gt;Node31 -->
<g id="edge50" class="edge">
<title>Node30&#45;&gt;Node31</title>
<path fill="none" stroke="midnightblue" d="M732.06,-347.12C732.63,-333.24 735.8,-306.39 751,-291 767.42,-274.37 789.8,-263.86 812.14,-257.21"/>
<polygon fill="midnightblue" stroke="midnightblue" points="813.31,-260.52 822.04,-254.51 811.47,-253.77 813.31,-260.52"/>
</g>
<!-- Node30&#45;&gt;Node32 -->
<g id="edge53" class="edge">
<title>Node30&#45;&gt;Node32</title>
<path fill="none" stroke="midnightblue" d="M747.58,-347.32C763,-338.74 786.81,-325.49 804.71,-315.52"/>
<polygon fill="midnightblue" stroke="midnightblue" points="806.42,-318.58 813.45,-310.65 803.01,-312.46 806.42,-318.58"/>
</g>
<!-- Node31&#45;&gt;Node17 -->
<g id="edge52" class="edge">
<title>Node31&#45;&gt;Node17</title>
<path fill="none" stroke="midnightblue" d="M819.94,-235.68C754.47,-227.78 666.73,-214.79 635,-199 616.98,-190.03 617.07,-181.34 602,-168 590.58,-157.89 577.43,-146.92 566.98,-138.35"/>
<polygon fill="midnightblue" stroke="midnightblue" points="568.88,-135.39 558.92,-131.78 564.46,-140.81 568.88,-135.39"/>
</g>
<!-- Node31&#45;&gt;Node18 -->
<g id="edge51" class="edge">
<title>Node31&#45;&gt;Node18</title>
<path fill="none" stroke="midnightblue" d="M954.74,-235.48C1026.78,-224.65 1150.89,-206 1227.36,-194.51"/>
<polygon fill="midnightblue" stroke="midnightblue" points="1228,-197.96 1237.37,-193.01 1226.96,-191.03 1228,-197.96"/>
</g>
<!-- Node32&#45;&gt;Node17 -->
<g id="edge54" class="edge">
<title>Node32&#45;&gt;Node17</title>
<path fill="none" stroke="midnightblue" d="M759.72,-292.34C721.38,-286.07 673.77,-274.86 635,-255 601.36,-237.77 591.49,-230.76 571,-199 559.69,-181.48 553.72,-158.12 550.72,-141.95"/>
<polygon fill="midnightblue" stroke="midnightblue" points="554.1,-140.93 549.03,-131.63 547.19,-142.06 554.1,-140.93"/>
</g>
<!-- Node32&#45;&gt;Node18 -->
<g id="edge59" class="edge">
<title>Node32&#45;&gt;Node18</title>
<path fill="none" stroke="midnightblue" d="M858.78,-291.42C912.17,-276.07 1022.23,-244.62 1061,-235 1122.38,-219.76 1193.49,-204.73 1240.85,-195.08"/>
<polygon fill="midnightblue" stroke="midnightblue" points="1241.77,-198.46 1250.88,-193.04 1240.38,-191.6 1241.77,-198.46"/>
</g>
<!-- Node32&#45;&gt;Node28 -->
<g id="edge55" class="edge">
<title>Node32&#45;&gt;Node28</title>
<path fill="none" stroke="midnightblue" d="M880.18,-291.44C937.47,-281.87 1030.24,-266.36 1091.19,-256.17"/>
<polygon fill="midnightblue" stroke="midnightblue" points="1091.77,-259.62 1101.06,-254.52 1090.62,-252.71 1091.77,-259.62"/>
</g>
<!-- Node33 -->
<g id="node33" class="node">
<title>Node33</title>
<g id="a_node33"><a xlink:href="RotationRaw_8h.html" target="_top" xlink:title=" ">
<polygon fill="none" stroke="black" points="644,-235.5 644,-254.5 802,-254.5 802,-235.5 644,-235.5"/>
<text text-anchor="middle" x="723" y="-242.5" font-family="FreeSans.ttf" font-size="10.00">iDynTree/Core/RotationRaw.h</text>
</a>
</g>
</g>
<!-- Node32&#45;&gt;Node33 -->
<g id="edge56" class="edge">
<title>Node32&#45;&gt;Node33</title>
<path fill="none" stroke="midnightblue" d="M811.97,-291.32C794.97,-282.66 768.62,-269.24 749.01,-259.25"/>
<polygon fill="midnightblue" stroke="midnightblue" points="750.49,-256.08 739.99,-254.65 747.31,-262.31 750.49,-256.08"/>
</g>
<!-- Node33&#45;&gt;Node17 -->
<g id="edge58" class="edge">
<title>Node33&#45;&gt;Node17</title>
<path fill="none" stroke="midnightblue" d="M682.7,-235.46C657.62,-228.67 625.74,-217.22 602,-199 581.5,-183.27 565.56,-157.6 556.48,-140.5"/>
<polygon fill="midnightblue" stroke="midnightblue" points="559.59,-138.9 551.93,-131.57 553.35,-142.07 559.59,-138.9"/>
</g>
<!-- Node33&#45;&gt;Node25 -->
<g id="edge57" class="edge">
<title>Node33&#45;&gt;Node25</title>
<path fill="none" stroke="midnightblue" d="M723.43,-235.48C723.85,-227.08 724.51,-213.98 725.06,-203.16"/>
<polygon fill="midnightblue" stroke="midnightblue" points="728.56,-203.17 725.57,-193.01 721.57,-202.82 728.56,-203.17"/>
</g>
<!-- Node34&#45;&gt;Node18 -->
<g id="edge67" class="edge">
<title>Node34&#45;&gt;Node18</title>
<path fill="none" stroke="midnightblue" d="M1278.47,-459.48C1301.19,-439.54 1338,-400.66 1338,-358 1338,-358 1338,-358 1338,-300 1338,-263.16 1318.21,-223.78 1305.17,-201.84"/>
<polygon fill="midnightblue" stroke="midnightblue" points="1307.98,-199.73 1299.75,-193.06 1302.02,-203.41 1307.98,-199.73"/>
</g>
<!-- Node34&#45;&gt;Node28 -->
<g id="edge68" class="edge">
<title>Node34&#45;&gt;Node28</title>
<path fill="none" stroke="midnightblue" d="M1254.18,-459.27C1235.2,-419.64 1181.74,-308.08 1160.68,-264.12"/>
<polygon fill="midnightblue" stroke="midnightblue" points="1163.75,-262.43 1156.28,-254.93 1157.44,-265.46 1163.75,-262.43"/>
</g>
<!-- Node34&#45;&gt;Node29 -->
<g id="edge69" class="edge">
<title>Node34&#45;&gt;Node29</title>
<path fill="none" stroke="midnightblue" d="M1220.24,-459.4C1190.78,-449.21 1151.41,-435.59 1123.5,-425.93"/>
<polygon fill="midnightblue" stroke="midnightblue" points="1124.37,-422.53 1113.78,-422.57 1122.08,-429.15 1124.37,-422.53"/>
</g>
<!-- Node35&#45;&gt;Node17 -->
<g id="edge74" class="edge">
<title>Node35&#45;&gt;Node17</title>
<path fill="none" stroke="midnightblue" d="M598.5,-403.23C594.07,-394.31 587.34,-379.97 583,-367 558.66,-294.32 552.72,-275.15 544,-199 541.8,-179.75 543.43,-157.62 545.23,-142.22"/>
<polygon fill="midnightblue" stroke="midnightblue" points="548.75,-142.29 546.57,-131.92 541.81,-141.38 548.75,-142.29"/>
</g>
<!-- Node35&#45;&gt;Node25 -->
<g id="edge73" class="edge">
<title>Node35&#45;&gt;Node25</title>
<path fill="none" stroke="midnightblue" d="M599.83,-403.29C590.42,-375.78 565.47,-289.31 602,-235 615.22,-215.34 637.57,-203.33 659.68,-196"/>
<polygon fill="midnightblue" stroke="midnightblue" points="660.89,-199.29 669.45,-193.04 658.87,-192.59 660.89,-199.29"/>
</g>
<!-- Node35&#45;&gt;Node30 -->
<g id="edge71" class="edge">
<title>Node35&#45;&gt;Node30</title>
<path fill="none" stroke="midnightblue" d="M623.44,-403.44C644.67,-394.56 678.1,-380.56 702.25,-370.45"/>
<polygon fill="midnightblue" stroke="midnightblue" points="703.78,-373.61 711.66,-366.52 701.08,-367.15 703.78,-373.61"/>
</g>
<!-- Node35&#45;&gt;Node32 -->
<g id="edge72" class="edge">
<title>Node35&#45;&gt;Node32</title>
<path fill="none" stroke="midnightblue" d="M671.73,-403.45C704.28,-397.07 742.59,-386.03 773,-367 792.26,-354.94 808.46,-334.17 818.4,-319.35"/>
<polygon fill="midnightblue" stroke="midnightblue" points="821.54,-320.93 824,-310.63 815.65,-317.15 821.54,-320.93"/>
</g>
<!-- Node36&#45;&gt;Node17 -->
<g id="edge80" class="edge">
<title>Node36&#45;&gt;Node17</title>
<path fill="none" stroke="midnightblue" d="M1563.81,-178.84C1515.63,-175.84 1445.37,-171.52 1384,-168 1071.18,-150.05 692.4,-130.42 580.56,-124.67"/>
<polygon fill="midnightblue" stroke="midnightblue" points="580.45,-121.16 570.29,-124.14 580.09,-128.15 580.45,-121.16"/>
</g>
<!-- Node37 -->
<g id="node37" class="node">
<title>Node37</title>
<g id="a_node37"><a xlink:title=" ">
<polygon fill="none" stroke="#bfbfbf" points="1718,-0.5 1718,-19.5 1776,-19.5 1776,-0.5 1718,-0.5"/>
<text text-anchor="middle" x="1747" y="-7.5" font-family="FreeSans.ttf" font-size="10.00">memory</text>
</a>
</g>
</g>
<!-- Node36&#45;&gt;Node37 -->
<g id="edge79" class="edge">
<title>Node36&#45;&gt;Node37</title>
<path fill="none" stroke="midnightblue" d="M1652.06,-168.45C1683.63,-151.67 1730.91,-120.2 1747,-76 1752.37,-61.24 1751.9,-43.31 1750.36,-30.02"/>
<polygon fill="midnightblue" stroke="midnightblue" points="1753.76,-29.12 1748.84,-19.74 1746.83,-30.14 1753.76,-29.12"/>
</g>
<!-- Node38 -->
<g id="node38" class="node">
<title>Node38</title>
<g id="a_node38"><a xlink:href="Optimizer_8h.html" target="_top" xlink:title=" ">
<polygon fill="none" stroke="black" points="1571.5,-112.5 1571.5,-131.5 1690.5,-131.5 1690.5,-112.5 1571.5,-112.5"/>
<text text-anchor="middle" x="1631" y="-119.5" font-family="FreeSans.ttf" font-size="10.00">iDynTree/Optimizer.h</text>
</a>
</g>
</g>
<!-- Node36&#45;&gt;Node38 -->
<g id="edge81" class="edge">
<title>Node36&#45;&gt;Node38</title>
<path fill="none" stroke="midnightblue" d="M1624.13,-168.4C1625.35,-160.38 1626.88,-150.23 1628.19,-141.57"/>
<polygon fill="midnightblue" stroke="midnightblue" points="1631.66,-142.07 1629.69,-131.66 1624.73,-141.02 1631.66,-142.07"/>
</g>
<!-- Node38&#45;&gt;Node37 -->
<g id="edge82" class="edge">
<title>Node38&#45;&gt;Node37</title>
<path fill="none" stroke="midnightblue" d="M1666.45,-112.48C1687.11,-105.79 1712.14,-94.44 1728,-76 1739.13,-63.06 1743.75,-43.89 1745.66,-29.72"/>
<polygon fill="midnightblue" stroke="midnightblue" points="1749.15,-29.94 1746.68,-19.64 1742.19,-29.24 1749.15,-29.94"/>
</g>
<!-- Node39 -->
<g id="node39" class="node">
<title>Node39</title>
<g id="a_node39"><a xlink:href="OptimizationProblem_8h.html" target="_top" xlink:title=" ">
<polygon fill="none" stroke="black" points="1543.5,-56.5 1543.5,-75.5 1718.5,-75.5 1718.5,-56.5 1543.5,-56.5"/>
<text text-anchor="middle" x="1631" y="-63.5" font-family="FreeSans.ttf" font-size="10.00">iDynTree/OptimizationProblem.h</text>
</a>
</g>
</g>
<!-- Node38&#45;&gt;Node39 -->
<g id="edge83" class="edge">
<title>Node38&#45;&gt;Node39</title>
<path fill="none" stroke="midnightblue" d="M1631,-112.08C1631,-105.01 1631,-94.86 1631,-85.99"/>
<polygon fill="midnightblue" stroke="midnightblue" points="1634.5,-85.75 1631,-75.75 1627.5,-85.75 1634.5,-85.75"/>
</g>
<!-- Node39&#45;&gt;Node6 -->
<g id="edge86" class="edge">
<title>Node39&#45;&gt;Node6</title>
<path fill="none" stroke="midnightblue" d="M1603.43,-56.44C1573.64,-47.2 1526.05,-32.43 1493.25,-22.25"/>
<polygon fill="midnightblue" stroke="midnightblue" points="1494.17,-18.87 1483.59,-19.25 1492.1,-25.56 1494.17,-18.87"/>
</g>
<!-- Node39&#45;&gt;Node37 -->
<g id="edge85" class="edge">
<title>Node39&#45;&gt;Node37</title>
<path fill="none" stroke="midnightblue" d="M1649.38,-56.44C1668.22,-47.68 1697.73,-33.94 1719.38,-23.86"/>
<polygon fill="midnightblue" stroke="midnightblue" points="1721.12,-26.91 1728.71,-19.52 1718.16,-20.56 1721.12,-26.91"/>
</g>
<!-- Node40 -->
<g id="node40" class="node">
<title>Node40</title>
<g id="a_node40"><a xlink:title=" ">
<polygon fill="none" stroke="#bfbfbf" points="1607.5,-0.5 1607.5,-19.5 1654.5,-19.5 1654.5,-0.5 1607.5,-0.5"/>
<text text-anchor="middle" x="1631" y="-7.5" font-family="FreeSans.ttf" font-size="10.00">vector</text>
</a>
</g>
</g>
<!-- Node39&#45;&gt;Node40 -->
<g id="edge84" class="edge">
<title>Node39&#45;&gt;Node40</title>
<path fill="none" stroke="midnightblue" d="M1631,-56.08C1631,-49.01 1631,-38.86 1631,-29.99"/>
<polygon fill="midnightblue" stroke="midnightblue" points="1634.5,-29.75 1631,-19.75 1627.5,-29.75 1634.5,-29.75"/>
</g>
</g>
</svg>
