<?xml version="1.0" encoding="UTF-8" standalone="no"?>
<!DOCTYPE svg PUBLIC "-//W3C//DTD SVG 1.1//EN"
 "http://www.w3.org/Graphics/SVG/1.1/DTD/svg11.dtd">
<!-- Generated by graphviz version 2.43.0 (0)
 -->
<!-- Title: KalmanFilter.h Pages: 1 -->
<svg width="1339pt" height="599pt"
 viewBox="0.00 0.00 1339.00 599.00" xmlns="http://www.w3.org/2000/svg" xmlns:xlink="http://www.w3.org/1999/xlink">
<g id="graph0" class="graph" transform="scale(1 1) rotate(0) translate(4 595)">
<title>KalmanFilter.h</title>
<!-- Node1 -->
<g id="node1" class="node">
<title>Node1</title>
<g id="a_node1"><a xlink:title=" ">
<polygon fill="#bfbfbf" stroke="black" points="1084,-571.5 1084,-590.5 1171,-590.5 1171,-571.5 1084,-571.5"/>
<text text-anchor="middle" x="1127.5" y="-578.5" font-family="FreeSans.ttf" font-size="10.00">KalmanFilter.h</text>
</a>
</g>
</g>
<!-- Node2 -->
<g id="node2" class="node">
<title>Node2</title>
<g id="a_node2"><a xlink:href="VectorDynSize_8h.html" target="_top" xlink:title=" ">
<polygon fill="none" stroke="black" points="1164,-336.5 1164,-355.5 1331,-355.5 1331,-336.5 1164,-336.5"/>
<text text-anchor="middle" x="1247.5" y="-343.5" font-family="FreeSans.ttf" font-size="10.00">iDynTree/Core/VectorDynSize.h</text>
</a>
</g>
</g>
<!-- Node1&#45;&gt;Node2 -->
<g id="edge1" class="edge">
<title>Node1&#45;&gt;Node2</title>
<path fill="none" stroke="midnightblue" d="M1131.91,-571.43C1149.4,-537.47 1214.08,-411.89 1238.28,-364.9"/>
<polygon fill="midnightblue" stroke="midnightblue" points="1241.45,-366.39 1242.92,-355.9 1235.23,-363.18 1241.45,-366.39"/>
</g>
<!-- Node14 -->
<g id="node14" class="node">
<title>Node14</title>
<g id="a_node14"><a xlink:href="MatrixDynSize_8h.html" target="_top" xlink:title=" ">
<polygon fill="none" stroke="black" points="1056.5,-280.5 1056.5,-299.5 1224.5,-299.5 1224.5,-280.5 1056.5,-280.5"/>
<text text-anchor="middle" x="1140.5" y="-287.5" font-family="FreeSans.ttf" font-size="10.00">iDynTree/Core/MatrixDynSize.h</text>
</a>
</g>
</g>
<!-- Node1&#45;&gt;Node14 -->
<g id="edge13" class="edge">
<title>Node1&#45;&gt;Node14</title>
<path fill="none" stroke="midnightblue" d="M1127.5,-571.31C1127.5,-552.06 1127.5,-504.4 1127.5,-464.5 1127.5,-464.5 1127.5,-464.5 1127.5,-401 1127.5,-368.58 1133.14,-331.15 1136.99,-309.37"/>
<polygon fill="midnightblue" stroke="midnightblue" points="1140.43,-309.99 1138.8,-299.52 1133.55,-308.72 1140.43,-309.99"/>
</g>
<!-- Node16 -->
<g id="node16" class="node">
<title>Node16</title>
<g id="a_node16"><a xlink:href="Utils_8h.html" target="_top" xlink:title=" ">
<polygon fill="none" stroke="black" points="0,-56.5 0,-75.5 119,-75.5 119,-56.5 0,-56.5"/>
<text text-anchor="middle" x="59.5" y="-63.5" font-family="FreeSans.ttf" font-size="10.00">iDynTree/Core/Utils.h</text>
</a>
</g>
</g>
<!-- Node1&#45;&gt;Node16 -->
<g id="edge22" class="edge">
<title>Node1&#45;&gt;Node16</title>
<path fill="none" stroke="midnightblue" d="M1083.74,-580.19C876.37,-580.5 2.5,-575.25 2.5,-464.5 2.5,-464.5 2.5,-464.5 2.5,-177 2.5,-140.3 27.82,-103.66 44.71,-83.3"/>
<polygon fill="midnightblue" stroke="midnightblue" points="47.45,-85.48 51.33,-75.62 42.15,-80.9 47.45,-85.48"/>
</g>
<!-- Node18 -->
<g id="node18" class="node">
<title>Node18</title>
<g id="a_node18"><a xlink:href="EigenHelpers_8h.html" target="_top" xlink:title=" ">
<polygon fill="none" stroke="black" points="484,-515.5 484,-534.5 645,-534.5 645,-515.5 484,-515.5"/>
<text text-anchor="middle" x="564.5" y="-522.5" font-family="FreeSans.ttf" font-size="10.00">iDynTree/Core/EigenHelpers.h</text>
</a>
</g>
</g>
<!-- Node1&#45;&gt;Node18 -->
<g id="edge23" class="edge">
<title>Node1&#45;&gt;Node18</title>
<path fill="none" stroke="midnightblue" d="M1083.79,-575.81C992.07,-567.01 777.87,-546.47 655.15,-534.69"/>
<polygon fill="midnightblue" stroke="midnightblue" points="655.31,-531.19 645.02,-533.72 654.64,-538.16 655.31,-531.19"/>
</g>
<!-- Node34 -->
<g id="node34" class="node">
<title>Node34</title>
<g id="a_node34"><a xlink:title=" ">
<polygon fill="none" stroke="#bfbfbf" points="1232,-515.5 1232,-534.5 1279,-534.5 1279,-515.5 1232,-515.5"/>
<text text-anchor="middle" x="1255.5" y="-522.5" font-family="FreeSans.ttf" font-size="10.00">vector</text>
</a>
</g>
</g>
<!-- Node1&#45;&gt;Node34 -->
<g id="edge76" class="edge">
<title>Node1&#45;&gt;Node34</title>
<path fill="none" stroke="midnightblue" d="M1147.78,-571.44C1168.85,-562.56 1202.02,-548.56 1225.99,-538.45"/>
<polygon fill="midnightblue" stroke="midnightblue" points="1227.46,-541.63 1235.31,-534.52 1224.74,-535.18 1227.46,-541.63"/>
</g>
<!-- Node3 -->
<g id="node3" class="node">
<title>Node3</title>
<g id="a_node3"><a xlink:href="Span_8h.html" target="_top" xlink:title=" ">
<polygon fill="none" stroke="black" points="832,-56.5 832,-75.5 953,-75.5 953,-56.5 832,-56.5"/>
<text text-anchor="middle" x="892.5" y="-63.5" font-family="FreeSans.ttf" font-size="10.00">iDynTree/Core/Span.h</text>
</a>
</g>
</g>
<!-- Node2&#45;&gt;Node3 -->
<g id="edge2" class="edge">
<title>Node2&#45;&gt;Node3</title>
<path fill="none" stroke="midnightblue" d="M1253.48,-336.33C1265.29,-318.32 1290.5,-275.19 1290.5,-235 1290.5,-235 1290.5,-235 1290.5,-177 1290.5,-109.94 1077.9,-82.14 963.47,-72.04"/>
<polygon fill="midnightblue" stroke="midnightblue" points="963.64,-68.54 953.38,-71.17 963.04,-75.52 963.64,-68.54"/>
</g>
<!-- Node13 -->
<g id="node13" class="node">
<title>Node13</title>
<g id="a_node13"><a xlink:title=" ">
<polygon fill="none" stroke="#bfbfbf" points="824.5,-112.5 824.5,-131.5 868.5,-131.5 868.5,-112.5 824.5,-112.5"/>
<text text-anchor="middle" x="846.5" y="-119.5" font-family="FreeSans.ttf" font-size="10.00">string</text>
</a>
</g>
</g>
<!-- Node2&#45;&gt;Node13 -->
<g id="edge12" class="edge">
<title>Node2&#45;&gt;Node13</title>
<path fill="none" stroke="midnightblue" d="M1247.36,-336.37C1246.78,-323.3 1244.23,-298.06 1233.5,-280 1194.56,-214.43 1172.68,-200.11 1103.5,-168 1014.13,-126.52 978.97,-152.48 878.68,-131.96"/>
<polygon fill="midnightblue" stroke="midnightblue" points="879.28,-128.51 868.77,-129.82 877.8,-135.35 879.28,-128.51"/>
</g>
<!-- Node4 -->
<g id="node4" class="node">
<title>Node4</title>
<g id="a_node4"><a xlink:title=" ">
<polygon fill="none" stroke="#bfbfbf" points="619.5,-0.5 619.5,-19.5 671.5,-19.5 671.5,-0.5 619.5,-0.5"/>
<text text-anchor="middle" x="645.5" y="-7.5" font-family="FreeSans.ttf" font-size="10.00">cassert</text>
</a>
</g>
</g>
<!-- Node3&#45;&gt;Node4 -->
<g id="edge3" class="edge">
<title>Node3&#45;&gt;Node4</title>
<path fill="none" stroke="midnightblue" d="M849.75,-56.48C808.94,-48.23 745.5,-35.07 681.67,-20.2"/>
<polygon fill="midnightblue" stroke="midnightblue" points="682.38,-16.77 671.84,-17.9 680.78,-23.59 682.38,-16.77"/>
</g>
<!-- Node5 -->
<g id="node5" class="node">
<title>Node5</title>
<g id="a_node5"><a xlink:title=" ">
<polygon fill="none" stroke="#bfbfbf" points="689.5,-0.5 689.5,-19.5 753.5,-19.5 753.5,-0.5 689.5,-0.5"/>
<text text-anchor="middle" x="721.5" y="-7.5" font-family="FreeSans.ttf" font-size="10.00">algorithm</text>
</a>
</g>
</g>
<!-- Node3&#45;&gt;Node5 -->
<g id="edge4" class="edge">
<title>Node3&#45;&gt;Node5</title>
<path fill="none" stroke="midnightblue" d="M865.4,-56.44C836.51,-47.32 790.58,-32.81 758.39,-22.65"/>
<polygon fill="midnightblue" stroke="midnightblue" points="759.06,-19.19 748.47,-19.52 756.95,-25.87 759.06,-19.19"/>
</g>
<!-- Node6 -->
<g id="node6" class="node">
<title>Node6</title>
<g id="a_node6"><a xlink:title=" ">
<polygon fill="none" stroke="#bfbfbf" points="771.5,-0.5 771.5,-19.5 813.5,-19.5 813.5,-0.5 771.5,-0.5"/>
<text text-anchor="middle" x="792.5" y="-7.5" font-family="FreeSans.ttf" font-size="10.00">array</text>
</a>
</g>
</g>
<!-- Node3&#45;&gt;Node6 -->
<g id="edge5" class="edge">
<title>Node3&#45;&gt;Node6</title>
<path fill="none" stroke="midnightblue" d="M876.43,-56.32C860.54,-47.74 835.99,-34.49 817.54,-24.52"/>
<polygon fill="midnightblue" stroke="midnightblue" points="818.99,-21.33 808.53,-19.65 815.66,-27.49 818.99,-21.33"/>
</g>
<!-- Node7 -->
<g id="node7" class="node">
<title>Node7</title>
<g id="a_node7"><a xlink:title=" ">
<polygon fill="none" stroke="#bfbfbf" points="225,-0.5 225,-19.5 278,-19.5 278,-0.5 225,-0.5"/>
<text text-anchor="middle" x="251.5" y="-7.5" font-family="FreeSans.ttf" font-size="10.00">cstddef</text>
</a>
</g>
</g>
<!-- Node3&#45;&gt;Node7 -->
<g id="edge6" class="edge">
<title>Node3&#45;&gt;Node7</title>
<path fill="none" stroke="midnightblue" d="M831.91,-59.9C700.81,-48.85 394.13,-23.02 288.23,-14.09"/>
<polygon fill="midnightblue" stroke="midnightblue" points="288.31,-10.59 278.05,-13.24 287.72,-17.56 288.31,-10.59"/>
</g>
<!-- Node8 -->
<g id="node8" class="node">
<title>Node8</title>
<g id="a_node8"><a xlink:title=" ">
<polygon fill="none" stroke="#bfbfbf" points="832,-0.5 832,-19.5 885,-19.5 885,-0.5 832,-0.5"/>
<text text-anchor="middle" x="858.5" y="-7.5" font-family="FreeSans.ttf" font-size="10.00">iterator</text>
</a>
</g>
</g>
<!-- Node3&#45;&gt;Node8 -->
<g id="edge7" class="edge">
<title>Node3&#45;&gt;Node8</title>
<path fill="none" stroke="midnightblue" d="M886.89,-56.08C882.13,-48.53 875.18,-37.49 869.35,-28.23"/>
<polygon fill="midnightblue" stroke="midnightblue" points="872.3,-26.35 864.01,-19.75 866.38,-30.08 872.3,-26.35"/>
</g>
<!-- Node9 -->
<g id="node9" class="node">
<title>Node9</title>
<g id="a_node9"><a xlink:title=" ">
<polygon fill="none" stroke="#bfbfbf" points="903.5,-0.5 903.5,-19.5 947.5,-19.5 947.5,-0.5 903.5,-0.5"/>
<text text-anchor="middle" x="925.5" y="-7.5" font-family="FreeSans.ttf" font-size="10.00">limits</text>
</a>
</g>
</g>
<!-- Node3&#45;&gt;Node9 -->
<g id="edge8" class="edge">
<title>Node3&#45;&gt;Node9</title>
<path fill="none" stroke="midnightblue" d="M897.95,-56.08C902.51,-48.61 909.17,-37.72 914.79,-28.52"/>
<polygon fill="midnightblue" stroke="midnightblue" points="917.92,-30.11 920.15,-19.75 911.95,-26.46 917.92,-30.11"/>
</g>
<!-- Node10 -->
<g id="node10" class="node">
<title>Node10</title>
<g id="a_node10"><a xlink:title=" ">
<polygon fill="none" stroke="#bfbfbf" points="966,-0.5 966,-19.5 1031,-19.5 1031,-0.5 966,-0.5"/>
<text text-anchor="middle" x="998.5" y="-7.5" font-family="FreeSans.ttf" font-size="10.00">stdexcept</text>
</a>
</g>
</g>
<!-- Node3&#45;&gt;Node10 -->
<g id="edge9" class="edge">
<title>Node3&#45;&gt;Node10</title>
<path fill="none" stroke="midnightblue" d="M909.53,-56.32C926.53,-47.66 952.88,-34.24 972.49,-24.25"/>
<polygon fill="midnightblue" stroke="midnightblue" points="974.19,-27.31 981.51,-19.65 971.01,-21.08 974.19,-27.31"/>
</g>
<!-- Node11 -->
<g id="node11" class="node">
<title>Node11</title>
<g id="a_node11"><a xlink:title=" ">
<polygon fill="none" stroke="#bfbfbf" points="1112,-0.5 1112,-19.5 1181,-19.5 1181,-0.5 1112,-0.5"/>
<text text-anchor="middle" x="1146.5" y="-7.5" font-family="FreeSans.ttf" font-size="10.00">type_traits</text>
</a>
</g>
</g>
<!-- Node3&#45;&gt;Node11 -->
<g id="edge10" class="edge">
<title>Node3&#45;&gt;Node11</title>
<path fill="none" stroke="midnightblue" d="M932.75,-56.44C978.75,-46.66 1053.85,-30.7 1101.68,-20.53"/>
<polygon fill="midnightblue" stroke="midnightblue" points="1102.69,-23.89 1111.75,-18.39 1101.24,-17.04 1102.69,-23.89"/>
</g>
<!-- Node12 -->
<g id="node12" class="node">
<title>Node12</title>
<g id="a_node12"><a xlink:title=" ">
<polygon fill="none" stroke="#bfbfbf" points="1049,-0.5 1049,-19.5 1094,-19.5 1094,-0.5 1049,-0.5"/>
<text text-anchor="middle" x="1071.5" y="-7.5" font-family="FreeSans.ttf" font-size="10.00">utility</text>
</a>
</g>
</g>
<!-- Node3&#45;&gt;Node12 -->
<g id="edge11" class="edge">
<title>Node3&#45;&gt;Node12</title>
<path fill="none" stroke="midnightblue" d="M920.86,-56.44C953.02,-46.74 1005.36,-30.95 1039.11,-20.77"/>
<polygon fill="midnightblue" stroke="midnightblue" points="1040.37,-24.05 1048.94,-17.81 1038.35,-17.34 1040.37,-24.05"/>
</g>
<!-- Node14&#45;&gt;Node13 -->
<g id="edge14" class="edge">
<title>Node14&#45;&gt;Node13</title>
<path fill="none" stroke="midnightblue" d="M1138.95,-280.27C1134.45,-257.66 1119.16,-196.96 1080.5,-168 1009.67,-114.94 969.54,-150.2 878.62,-131.92"/>
<polygon fill="midnightblue" stroke="midnightblue" points="879.29,-128.49 868.78,-129.78 877.8,-135.33 879.29,-128.49"/>
</g>
<!-- Node15 -->
<g id="node15" class="node">
<title>Node15</title>
<g id="a_node15"><a xlink:href="MatrixView_8h.html" target="_top" xlink:title=" ">
<polygon fill="none" stroke="black" points="886.5,-112.5 886.5,-131.5 1038.5,-131.5 1038.5,-112.5 886.5,-112.5"/>
<text text-anchor="middle" x="962.5" y="-119.5" font-family="FreeSans.ttf" font-size="10.00">iDynTree/Core/MatrixView.h</text>
</a>
</g>
</g>
<!-- Node14&#45;&gt;Node15 -->
<g id="edge15" class="edge">
<title>Node14&#45;&gt;Node15</title>
<path fill="none" stroke="midnightblue" d="M1143.39,-280.19C1149.93,-258.43 1163.31,-201.46 1136.5,-168 1123.7,-152.03 1078.33,-140.61 1037.13,-133.27"/>
<polygon fill="midnightblue" stroke="midnightblue" points="1037.49,-129.78 1027.04,-131.54 1036.31,-136.68 1037.49,-129.78"/>
</g>
<!-- Node15&#45;&gt;Node3 -->
<g id="edge18" class="edge">
<title>Node15&#45;&gt;Node3</title>
<path fill="none" stroke="midnightblue" d="M951.25,-112.32C940.7,-104.18 924.7,-91.84 912.06,-82.09"/>
<polygon fill="midnightblue" stroke="midnightblue" points="914.01,-79.17 903.95,-75.83 909.73,-84.71 914.01,-79.17"/>
</g>
<!-- Node15&#45;&gt;Node4 -->
<g id="edge16" class="edge">
<title>Node15&#45;&gt;Node4</title>
<path fill="none" stroke="midnightblue" d="M934.97,-112.42C906.86,-103.58 861.99,-89.25 823.5,-76 772.18,-58.33 713.07,-36.44 677.54,-23.1"/>
<polygon fill="midnightblue" stroke="midnightblue" points="678.76,-19.82 668.16,-19.58 676.29,-26.38 678.76,-19.82"/>
</g>
<!-- Node15&#45;&gt;Node11 -->
<g id="edge17" class="edge">
<title>Node15&#45;&gt;Node11</title>
<path fill="none" stroke="midnightblue" d="M976.94,-112.37C1008.65,-93.41 1084.61,-48 1123.18,-24.94"/>
<polygon fill="midnightblue" stroke="midnightblue" points="1125.34,-27.73 1132.13,-19.59 1121.75,-21.72 1125.34,-27.73"/>
</g>
<!-- Node15&#45;&gt;Node16 -->
<g id="edge19" class="edge">
<title>Node15&#45;&gt;Node16</title>
<path fill="none" stroke="midnightblue" d="M886.06,-112.72C883.17,-112.47 880.31,-112.23 877.5,-112 600.88,-89.76 270.74,-75.28 129.36,-69.65"/>
<polygon fill="midnightblue" stroke="midnightblue" points="129.23,-66.14 119.1,-69.25 128.95,-73.14 129.23,-66.14"/>
</g>
<!-- Node16&#45;&gt;Node7 -->
<g id="edge20" class="edge">
<title>Node16&#45;&gt;Node7</title>
<path fill="none" stroke="midnightblue" d="M89.92,-56.44C123.94,-46.87 179.01,-31.39 215.24,-21.2"/>
<polygon fill="midnightblue" stroke="midnightblue" points="216.25,-24.55 224.93,-18.47 214.36,-17.81 216.25,-24.55"/>
</g>
<!-- Node17 -->
<g id="node17" class="node">
<title>Node17</title>
<g id="a_node17"><a xlink:title=" ">
<polygon fill="none" stroke="#bfbfbf" points="19.5,-0.5 19.5,-19.5 99.5,-19.5 99.5,-0.5 19.5,-0.5"/>
<text text-anchor="middle" x="59.5" y="-7.5" font-family="FreeSans.ttf" font-size="10.00">CoreExport.h</text>
</a>
</g>
</g>
<!-- Node16&#45;&gt;Node17 -->
<g id="edge21" class="edge">
<title>Node16&#45;&gt;Node17</title>
<path fill="none" stroke="midnightblue" d="M59.5,-56.08C59.5,-49.01 59.5,-38.86 59.5,-29.99"/>
<polygon fill="midnightblue" stroke="midnightblue" points="63,-29.75 59.5,-19.75 56,-29.75 63,-29.75"/>
</g>
<!-- Node18&#45;&gt;Node2 -->
<g id="edge26" class="edge">
<title>Node18&#45;&gt;Node2</title>
<path fill="none" stroke="midnightblue" d="M645.01,-523.72C773.8,-522.19 1019.67,-514.53 1098.5,-479 1149.51,-456.01 1147.12,-428.53 1189.5,-392 1201.81,-381.39 1216.24,-370.19 1227.63,-361.61"/>
<polygon fill="midnightblue" stroke="midnightblue" points="1229.74,-364.41 1235.66,-355.62 1225.56,-358.8 1229.74,-364.41"/>
</g>
<!-- Node18&#45;&gt;Node7 -->
<g id="edge24" class="edge">
<title>Node18&#45;&gt;Node7</title>
<path fill="none" stroke="midnightblue" d="M483.74,-520.26C385.01,-514.76 224.3,-502.47 169.5,-479 121.06,-458.26 78.5,-455.69 78.5,-403 78.5,-403 78.5,-403 78.5,-289 78.5,-172.85 188.71,-65.01 233.2,-26.21"/>
<polygon fill="midnightblue" stroke="midnightblue" points="235.62,-28.75 240.94,-19.58 231.07,-23.43 235.62,-28.75"/>
</g>
<!-- Node18&#45;&gt;Node14 -->
<g id="edge35" class="edge">
<title>Node18&#45;&gt;Node14</title>
<path fill="none" stroke="midnightblue" d="M598.52,-515.47C678.69,-494.65 884.58,-436.96 1042.5,-356 1071.2,-341.29 1101.8,-319.98 1121.02,-305.82"/>
<polygon fill="midnightblue" stroke="midnightblue" points="1123.33,-308.47 1129.25,-299.68 1119.14,-302.86 1123.33,-308.47"/>
</g>
<!-- Node18&#45;&gt;Node16 -->
<g id="edge75" class="edge">
<title>Node18&#45;&gt;Node16</title>
<path fill="none" stroke="midnightblue" d="M483.9,-521.59C350.77,-516.89 96.4,-504.66 64.5,-479 36.9,-456.8 40.5,-438.42 40.5,-403 40.5,-403 40.5,-403 40.5,-177 40.5,-144.49 48.66,-107.35 54.28,-85.61"/>
<polygon fill="midnightblue" stroke="midnightblue" points="57.72,-86.32 56.94,-75.75 50.96,-84.5 57.72,-86.32"/>
</g>
<!-- Node19 -->
<g id="node19" class="node">
<title>Node19</title>
<g id="a_node19"><a xlink:title=" ">
<polygon fill="none" stroke="#bfbfbf" points="631,-454 631,-473 708,-473 708,-454 631,-454"/>
<text text-anchor="middle" x="669.5" y="-461" font-family="FreeSans.ttf" font-size="10.00">Eigen/Dense</text>
</a>
</g>
</g>
<!-- Node18&#45;&gt;Node19 -->
<g id="edge25" class="edge">
<title>Node18&#45;&gt;Node19</title>
<path fill="none" stroke="midnightblue" d="M579.54,-515.48C596.78,-505.71 625.24,-489.58 645.53,-478.08"/>
<polygon fill="midnightblue" stroke="midnightblue" points="647.51,-480.98 654.48,-473.01 644.06,-474.89 647.51,-480.98"/>
</g>
<!-- Node20 -->
<g id="node20" class="node">
<title>Node20</title>
<g id="a_node20"><a xlink:href="VectorFixSize_8h.html" target="_top" xlink:title=" ">
<polygon fill="none" stroke="black" points="322.5,-168.5 322.5,-187.5 484.5,-187.5 484.5,-168.5 322.5,-168.5"/>
<text text-anchor="middle" x="403.5" y="-175.5" font-family="FreeSans.ttf" font-size="10.00">iDynTree/Core/VectorFixSize.h</text>
</a>
</g>
</g>
<!-- Node18&#45;&gt;Node20 -->
<g id="edge27" class="edge">
<title>Node18&#45;&gt;Node20</title>
<path fill="none" stroke="midnightblue" d="M483.77,-519.72C381.22,-513.45 215.22,-500.15 196.5,-479 168.49,-447.36 111.65,-385.46 272.5,-224 289.13,-207.3 312.23,-196.8 334.4,-190.19"/>
<polygon fill="midnightblue" stroke="midnightblue" points="335.45,-193.53 344.16,-187.5 333.59,-186.78 335.45,-193.53"/>
</g>
<!-- Node23 -->
<g id="node23" class="node">
<title>Node23</title>
<g id="a_node23"><a xlink:href="MatrixFixSize_8h.html" target="_top" xlink:title=" ">
<polygon fill="none" stroke="black" points="555,-168.5 555,-187.5 718,-187.5 718,-168.5 555,-168.5"/>
<text text-anchor="middle" x="636.5" y="-175.5" font-family="FreeSans.ttf" font-size="10.00">iDynTree/Core/MatrixFixSize.h</text>
</a>
</g>
</g>
<!-- Node18&#45;&gt;Node23 -->
<g id="edge36" class="edge">
<title>Node18&#45;&gt;Node23</title>
<path fill="none" stroke="midnightblue" d="M564.5,-515.49C564.5,-495.74 564.5,-445.22 564.5,-403 564.5,-403 564.5,-403 564.5,-289 564.5,-258.9 567.12,-249.25 583.5,-224 591.3,-211.98 603.27,-201.42 613.86,-193.57"/>
<polygon fill="midnightblue" stroke="midnightblue" points="616.14,-196.24 622.31,-187.63 612.12,-190.51 616.14,-196.24"/>
</g>
<!-- Node25 -->
<g id="node25" class="node">
<title>Node25</title>
<g id="a_node25"><a xlink:href="SpatialMotionVector_8h.html" target="_top" xlink:title=" ">
<polygon fill="none" stroke="black" points="381,-448.5 381,-478.5 536,-478.5 536,-448.5 381,-448.5"/>
<text text-anchor="start" x="389" y="-466.5" font-family="FreeSans.ttf" font-size="10.00">iDynTree/Core/SpatialMotion</text>
<text text-anchor="middle" x="458.5" y="-455.5" font-family="FreeSans.ttf" font-size="10.00">Vector.h</text>
</a>
</g>
</g>
<!-- Node18&#45;&gt;Node25 -->
<g id="edge44" class="edge">
<title>Node18&#45;&gt;Node25</title>
<path fill="none" stroke="midnightblue" d="M549.31,-515.48C534.49,-507.15 511.42,-494.21 492.25,-483.45"/>
<polygon fill="midnightblue" stroke="midnightblue" points="493.92,-480.37 483.48,-478.52 490.49,-486.47 493.92,-480.37"/>
</g>
<!-- Node32 -->
<g id="node32" class="node">
<title>Node32</title>
<g id="a_node32"><a xlink:href="SpatialForceVector_8h.html" target="_top" xlink:title=" ">
<polygon fill="none" stroke="black" points="205.5,-448.5 205.5,-478.5 353.5,-478.5 353.5,-448.5 205.5,-448.5"/>
<text text-anchor="start" x="213.5" y="-466.5" font-family="FreeSans.ttf" font-size="10.00">iDynTree/Core/SpatialForce</text>
<text text-anchor="middle" x="279.5" y="-455.5" font-family="FreeSans.ttf" font-size="10.00">Vector.h</text>
</a>
</g>
</g>
<!-- Node18&#45;&gt;Node32 -->
<g id="edge66" class="edge">
<title>Node18&#45;&gt;Node32</title>
<path fill="none" stroke="midnightblue" d="M523.67,-515.48C480.2,-506.4 410.39,-491.83 356.53,-480.58"/>
<polygon fill="midnightblue" stroke="midnightblue" points="357.17,-477.14 346.67,-478.52 355.74,-483.99 357.17,-477.14"/>
</g>
<!-- Node33 -->
<g id="node33" class="node">
<title>Node33</title>
<g id="a_node33"><a xlink:href="Transform_8h.html" target="_top" xlink:title=" ">
<polygon fill="none" stroke="black" points="697.5,-392.5 697.5,-411.5 843.5,-411.5 843.5,-392.5 697.5,-392.5"/>
<text text-anchor="middle" x="770.5" y="-399.5" font-family="FreeSans.ttf" font-size="10.00">iDynTree/Core/Transform.h</text>
</a>
</g>
</g>
<!-- Node18&#45;&gt;Node33 -->
<g id="edge70" class="edge">
<title>Node18&#45;&gt;Node33</title>
<path fill="none" stroke="midnightblue" d="M568.78,-515.29C576.99,-499.49 596.46,-466.08 622.5,-448 646.66,-431.22 677.25,-420.56 704.33,-413.85"/>
<polygon fill="midnightblue" stroke="midnightblue" points="705.2,-417.25 714.14,-411.56 703.6,-410.43 705.2,-417.25"/>
</g>
<!-- Node20&#45;&gt;Node3 -->
<g id="edge29" class="edge">
<title>Node20&#45;&gt;Node3</title>
<path fill="none" stroke="midnightblue" d="M408.12,-168.42C416.44,-153.94 435.44,-124.96 460.5,-112 521.67,-80.36 715.5,-70.96 821.52,-68.17"/>
<polygon fill="midnightblue" stroke="midnightblue" points="821.9,-71.66 831.81,-67.92 821.73,-64.67 821.9,-71.66"/>
</g>
<!-- Node20&#45;&gt;Node4 -->
<g id="edge32" class="edge">
<title>Node20&#45;&gt;Node4</title>
<path fill="none" stroke="midnightblue" d="M405.17,-168.33C408.2,-154.72 415.79,-128.26 431.5,-112 481.37,-60.39 562.82,-32.19 609.54,-19.48"/>
<polygon fill="midnightblue" stroke="midnightblue" points="610.45,-22.86 619.23,-16.93 608.67,-16.09 610.45,-22.86"/>
</g>
<!-- Node20&#45;&gt;Node7 -->
<g id="edge33" class="edge">
<title>Node20&#45;&gt;Node7</title>
<path fill="none" stroke="midnightblue" d="M395.85,-168.08C385,-155.48 364.46,-131.78 346.5,-112 318.76,-81.46 285.58,-46.54 266.68,-26.8"/>
<polygon fill="midnightblue" stroke="midnightblue" points="269.18,-24.35 259.74,-19.55 264.13,-29.19 269.18,-24.35"/>
</g>
<!-- Node20&#45;&gt;Node13 -->
<g id="edge30" class="edge">
<title>Node20&#45;&gt;Node13</title>
<path fill="none" stroke="midnightblue" d="M473.69,-168.44C570.93,-156.59 742.67,-135.66 814.02,-126.96"/>
<polygon fill="midnightblue" stroke="midnightblue" points="814.68,-130.4 824.19,-125.72 813.84,-123.46 814.68,-130.4"/>
</g>
<!-- Node20&#45;&gt;Node16 -->
<g id="edge28" class="edge">
<title>Node20&#45;&gt;Node16</title>
<path fill="none" stroke="midnightblue" d="M376.79,-168.46C315.71,-148.93 165.71,-100.96 96.09,-78.7"/>
<polygon fill="midnightblue" stroke="midnightblue" points="97.02,-75.32 86.43,-75.61 94.89,-81.99 97.02,-75.32"/>
</g>
<!-- Node21 -->
<g id="node21" class="node">
<title>Node21</title>
<g id="a_node21"><a xlink:title=" ">
<polygon fill="none" stroke="#bfbfbf" points="281.5,-112.5 281.5,-131.5 337.5,-131.5 337.5,-112.5 281.5,-112.5"/>
<text text-anchor="middle" x="309.5" y="-119.5" font-family="FreeSans.ttf" font-size="10.00">sstream</text>
</a>
</g>
</g>
<!-- Node20&#45;&gt;Node21 -->
<g id="edge31" class="edge">
<title>Node20&#45;&gt;Node21</title>
<path fill="none" stroke="midnightblue" d="M388.4,-168.32C373.6,-159.82 350.81,-146.73 333.52,-136.8"/>
<polygon fill="midnightblue" stroke="midnightblue" points="334.98,-133.6 324.57,-131.65 331.49,-139.67 334.98,-133.6"/>
</g>
<!-- Node22 -->
<g id="node22" class="node">
<title>Node22</title>
<g id="a_node22"><a xlink:title=" ">
<polygon fill="none" stroke="#bfbfbf" points="547.5,-112.5 547.5,-131.5 597.5,-131.5 597.5,-112.5 547.5,-112.5"/>
<text text-anchor="middle" x="572.5" y="-119.5" font-family="FreeSans.ttf" font-size="10.00">cstring</text>
</a>
</g>
</g>
<!-- Node20&#45;&gt;Node22 -->
<g id="edge34" class="edge">
<title>Node20&#45;&gt;Node22</title>
<path fill="none" stroke="midnightblue" d="M430.28,-168.44C459.34,-159.16 505.84,-144.3 537.71,-134.12"/>
<polygon fill="midnightblue" stroke="midnightblue" points="539.04,-137.37 547.5,-130.99 536.91,-130.7 539.04,-137.37"/>
</g>
<!-- Node23&#45;&gt;Node4 -->
<g id="edge39" class="edge">
<title>Node23&#45;&gt;Node4</title>
<path fill="none" stroke="midnightblue" d="M636.98,-168.08C638.4,-141.95 642.56,-65.21 644.49,-29.58"/>
<polygon fill="midnightblue" stroke="midnightblue" points="647.99,-29.74 645.04,-19.57 641,-29.36 647.99,-29.74"/>
</g>
<!-- Node23&#45;&gt;Node13 -->
<g id="edge41" class="edge">
<title>Node23&#45;&gt;Node13</title>
<path fill="none" stroke="midnightblue" d="M669.78,-168.44C709.48,-158.23 775.4,-141.28 814.52,-131.22"/>
<polygon fill="midnightblue" stroke="midnightblue" points="815.52,-134.58 824.33,-128.7 813.78,-127.8 815.52,-134.58"/>
</g>
<!-- Node23&#45;&gt;Node15 -->
<g id="edge38" class="edge">
<title>Node23&#45;&gt;Node15</title>
<path fill="none" stroke="midnightblue" d="M688.16,-168.44C745.98,-158.87 839.61,-143.36 901.12,-133.17"/>
<polygon fill="midnightblue" stroke="midnightblue" points="901.79,-136.6 911.09,-131.52 900.65,-129.7 901.79,-136.6"/>
</g>
<!-- Node23&#45;&gt;Node16 -->
<g id="edge37" class="edge">
<title>Node23&#45;&gt;Node16</title>
<path fill="none" stroke="midnightblue" d="M635.25,-168.05C632.7,-153.56 625.44,-125.25 606.5,-112 568.24,-85.25 268.01,-73.08 129.31,-68.85"/>
<polygon fill="midnightblue" stroke="midnightblue" points="129.31,-65.35 119.21,-68.55 129.1,-72.34 129.31,-65.35"/>
</g>
<!-- Node23&#45;&gt;Node21 -->
<g id="edge43" class="edge">
<title>Node23&#45;&gt;Node21</title>
<path fill="none" stroke="midnightblue" d="M584.69,-168.44C518.77,-157.56 406.46,-139.01 347.78,-129.32"/>
<polygon fill="midnightblue" stroke="midnightblue" points="348.25,-125.85 337.81,-127.67 347.11,-132.76 348.25,-125.85"/>
</g>
<!-- Node23&#45;&gt;Node22 -->
<g id="edge40" class="edge">
<title>Node23&#45;&gt;Node22</title>
<path fill="none" stroke="midnightblue" d="M626.22,-168.32C616.66,-160.26 602.22,-148.08 590.72,-138.37"/>
<polygon fill="midnightblue" stroke="midnightblue" points="592.87,-135.61 582.97,-131.83 588.36,-140.96 592.87,-135.61"/>
</g>
<!-- Node24 -->
<g id="node24" class="node">
<title>Node24</title>
<g id="a_node24"><a xlink:title=" ">
<polygon fill="none" stroke="#bfbfbf" points="469.5,-112.5 469.5,-131.5 529.5,-131.5 529.5,-112.5 469.5,-112.5"/>
<text text-anchor="middle" x="499.5" y="-119.5" font-family="FreeSans.ttf" font-size="10.00">iostream</text>
</a>
</g>
</g>
<!-- Node23&#45;&gt;Node24 -->
<g id="edge42" class="edge">
<title>Node23&#45;&gt;Node24</title>
<path fill="none" stroke="midnightblue" d="M614.79,-168.44C592.15,-159.52 556.43,-145.44 530.75,-135.32"/>
<polygon fill="midnightblue" stroke="midnightblue" points="531.69,-131.93 521.11,-131.52 529.13,-138.44 531.69,-131.93"/>
</g>
<!-- Node25&#45;&gt;Node20 -->
<g id="edge45" class="edge">
<title>Node25&#45;&gt;Node20</title>
<path fill="none" stroke="midnightblue" d="M468.2,-448.21C474.2,-438.47 481.34,-425.03 484.5,-412 497.91,-356.64 561.84,-381.35 469.5,-224 461.34,-210.1 447,-199.55 433.76,-192.17"/>
<polygon fill="midnightblue" stroke="midnightblue" points="435.35,-189.05 424.86,-187.57 432.13,-195.27 435.35,-189.05"/>
</g>
<!-- Node26 -->
<g id="node26" class="node">
<title>Node26</title>
<g id="a_node26"><a xlink:href="GeomVector3_8h.html" target="_top" xlink:title=" ">
<polygon fill="none" stroke="black" points="297,-224.5 297,-243.5 460,-243.5 460,-224.5 297,-224.5"/>
<text text-anchor="middle" x="378.5" y="-231.5" font-family="FreeSans.ttf" font-size="10.00">iDynTree/Core/GeomVector3.h</text>
</a>
</g>
</g>
<!-- Node25&#45;&gt;Node26 -->
<g id="edge46" class="edge">
<title>Node25&#45;&gt;Node26</title>
<path fill="none" stroke="midnightblue" d="M464.15,-448.27C469.06,-433.89 474.65,-411.14 469.5,-392 454.43,-335.96 413.94,-279.29 392.41,-251.91"/>
<polygon fill="midnightblue" stroke="midnightblue" points="394.89,-249.4 385.9,-243.78 389.42,-253.78 394.89,-249.4"/>
</g>
<!-- Node27 -->
<g id="node27" class="node">
<title>Node27</title>
<g id="a_node27"><a xlink:href="SpatialVector_8h.html" target="_top" xlink:title=" ">
<polygon fill="none" stroke="black" points="299,-392.5 299,-411.5 460,-411.5 460,-392.5 299,-392.5"/>
<text text-anchor="middle" x="379.5" y="-399.5" font-family="FreeSans.ttf" font-size="10.00">iDynTree/Core/SpatialVector.h</text>
</a>
</g>
</g>
<!-- Node25&#45;&gt;Node27 -->
<g id="edge48" class="edge">
<title>Node25&#45;&gt;Node27</title>
<path fill="none" stroke="midnightblue" d="M439.78,-448.4C427.59,-439.22 411.71,-427.26 399.31,-417.92"/>
<polygon fill="midnightblue" stroke="midnightblue" points="401.09,-414.88 391,-411.66 396.88,-420.47 401.09,-414.88"/>
</g>
<!-- Node26&#45;&gt;Node20 -->
<g id="edge47" class="edge">
<title>Node26&#45;&gt;Node20</title>
<path fill="none" stroke="midnightblue" d="M382.63,-224.08C386.01,-216.77 390.92,-206.18 395.12,-197.1"/>
<polygon fill="midnightblue" stroke="midnightblue" points="398.42,-198.3 399.45,-187.75 392.07,-195.36 398.42,-198.3"/>
</g>
<!-- Node27&#45;&gt;Node16 -->
<g id="edge62" class="edge">
<title>Node27&#45;&gt;Node16</title>
<path fill="none" stroke="midnightblue" d="M298.86,-397.88C262.03,-392.73 219.95,-381.15 189.5,-356 101.16,-283.04 70.52,-137.54 62.16,-85.8"/>
<polygon fill="midnightblue" stroke="midnightblue" points="65.6,-85.1 60.63,-75.74 58.67,-86.15 65.6,-85.1"/>
</g>
<!-- Node27&#45;&gt;Node21 -->
<g id="edge65" class="edge">
<title>Node27&#45;&gt;Node21</title>
<path fill="none" stroke="midnightblue" d="M308.16,-392.49C277.76,-386.17 243.22,-375.16 216.5,-356 192.05,-338.48 187.33,-328.75 178.5,-300 161.27,-243.92 144.41,-215.75 178.5,-168 199.37,-138.76 240.49,-128.32 271.12,-124.7"/>
<polygon fill="midnightblue" stroke="midnightblue" points="271.86,-128.14 281.47,-123.68 271.18,-121.18 271.86,-128.14"/>
</g>
<!-- Node27&#45;&gt;Node24 -->
<g id="edge64" class="edge">
<title>Node27&#45;&gt;Node24</title>
<path fill="none" stroke="midnightblue" d="M364.99,-392.42C325.93,-368.15 223.54,-296.07 254.5,-224 287.72,-146.68 398.55,-128.29 459.12,-124.09"/>
<polygon fill="midnightblue" stroke="midnightblue" points="459.33,-127.58 469.1,-123.49 458.91,-120.6 459.33,-127.58"/>
</g>
<!-- Node27&#45;&gt;Node26 -->
<g id="edge63" class="edge">
<title>Node27&#45;&gt;Node26</title>
<path fill="none" stroke="midnightblue" d="M379.45,-392.08C379.29,-365.95 378.83,-289.21 378.61,-253.58"/>
<polygon fill="midnightblue" stroke="midnightblue" points="382.11,-253.55 378.55,-243.57 375.11,-253.59 382.11,-253.55"/>
</g>
<!-- Node28 -->
<g id="node28" class="node">
<title>Node28</title>
<g id="a_node28"><a xlink:href="Position_8h.html" target="_top" xlink:title=" ">
<polygon fill="none" stroke="black" points="738,-336.5 738,-355.5 803,-355.5 803,-336.5 738,-336.5"/>
<text text-anchor="middle" x="770.5" y="-343.5" font-family="FreeSans.ttf" font-size="10.00">Position.h</text>
</a>
</g>
</g>
<!-- Node27&#45;&gt;Node28 -->
<g id="edge49" class="edge">
<title>Node27&#45;&gt;Node28</title>
<path fill="none" stroke="midnightblue" d="M441.46,-392.44C521.44,-381.4 658.54,-362.46 727.8,-352.9"/>
<polygon fill="midnightblue" stroke="midnightblue" points="728.48,-356.34 737.91,-351.5 727.53,-349.4 728.48,-356.34"/>
</g>
<!-- Node30 -->
<g id="node30" class="node">
<title>Node30</title>
<g id="a_node30"><a xlink:href="Rotation_8h.html" target="_top" xlink:title=" ">
<polygon fill="none" stroke="black" points="602.5,-280.5 602.5,-299.5 740.5,-299.5 740.5,-280.5 602.5,-280.5"/>
<text text-anchor="middle" x="671.5" y="-287.5" font-family="FreeSans.ttf" font-size="10.00">iDynTree/Core/Rotation.h</text>
</a>
</g>
</g>
<!-- Node27&#45;&gt;Node30 -->
<g id="edge61" class="edge">
<title>Node27&#45;&gt;Node30</title>
<path fill="none" stroke="midnightblue" d="M402.41,-392.37C454.01,-372.93 579.46,-325.67 639.04,-303.23"/>
<polygon fill="midnightblue" stroke="midnightblue" points="640.57,-306.39 648.69,-299.59 638.1,-299.84 640.57,-306.39"/>
</g>
<!-- Node28&#45;&gt;Node13 -->
<g id="edge60" class="edge">
<title>Node28&#45;&gt;Node13</title>
<path fill="none" stroke="midnightblue" d="M803.09,-337.58C845.91,-325.87 919.43,-298.62 951.5,-244 964.03,-222.65 941.37,-178.36 932.5,-168 918.26,-151.37 896.32,-140.02 878.17,-132.89"/>
<polygon fill="midnightblue" stroke="midnightblue" points="879.14,-129.52 868.54,-129.35 876.72,-136.09 879.14,-129.52"/>
</g>
<!-- Node29 -->
<g id="node29" class="node">
<title>Node29</title>
<g id="a_node29"><a xlink:href="PositionRaw_8h.html" target="_top" xlink:title=" ">
<polygon fill="none" stroke="black" points="768.5,-224.5 768.5,-243.5 924.5,-243.5 924.5,-224.5 768.5,-224.5"/>
<text text-anchor="middle" x="846.5" y="-231.5" font-family="FreeSans.ttf" font-size="10.00">iDynTree/Core/PositionRaw.h</text>
</a>
</g>
</g>
<!-- Node28&#45;&gt;Node29 -->
<g id="edge50" class="edge">
<title>Node28&#45;&gt;Node29</title>
<path fill="none" stroke="midnightblue" d="M776.46,-336.37C789.01,-318.22 818.31,-275.8 834.76,-251.99"/>
<polygon fill="midnightblue" stroke="midnightblue" points="837.76,-253.81 840.56,-243.59 832,-249.83 837.76,-253.81"/>
</g>
<!-- Node28&#45;&gt;Node30 -->
<g id="edge53" class="edge">
<title>Node28&#45;&gt;Node30</title>
<path fill="none" stroke="midnightblue" d="M754.59,-336.32C738.86,-327.74 714.56,-314.49 696.29,-304.52"/>
<polygon fill="midnightblue" stroke="midnightblue" points="697.82,-301.37 687.37,-299.65 694.47,-307.52 697.82,-301.37"/>
</g>
<!-- Node29&#45;&gt;Node13 -->
<g id="edge52" class="edge">
<title>Node29&#45;&gt;Node13</title>
<path fill="none" stroke="midnightblue" d="M846.5,-224.37C846.5,-206.62 846.5,-165.67 846.5,-141.6"/>
<polygon fill="midnightblue" stroke="midnightblue" points="850,-141.59 846.5,-131.59 843,-141.59 850,-141.59"/>
</g>
<!-- Node29&#45;&gt;Node20 -->
<g id="edge51" class="edge">
<title>Node29&#45;&gt;Node20</title>
<path fill="none" stroke="midnightblue" d="M776.31,-224.44C696.59,-214.73 566.81,-198.91 483.31,-188.73"/>
<polygon fill="midnightblue" stroke="midnightblue" points="483.72,-185.25 473.37,-187.52 482.87,-192.2 483.72,-185.25"/>
</g>
<!-- Node30&#45;&gt;Node13 -->
<g id="edge54" class="edge">
<title>Node30&#45;&gt;Node13</title>
<path fill="none" stroke="midnightblue" d="M740.51,-286.89C809.67,-283.14 909.26,-272.76 933.5,-244 964.42,-207.32 904.9,-160.29 869.74,-137.15"/>
<polygon fill="midnightblue" stroke="midnightblue" points="871.29,-133.99 860.98,-131.55 867.51,-139.88 871.29,-133.99"/>
</g>
<!-- Node30&#45;&gt;Node20 -->
<g id="edge59" class="edge">
<title>Node30&#45;&gt;Node20</title>
<path fill="none" stroke="midnightblue" d="M650.47,-280.37C603.31,-261.01 488.93,-214.06 433.97,-191.51"/>
<polygon fill="midnightblue" stroke="midnightblue" points="435.01,-188.15 424.43,-187.59 432.35,-194.63 435.01,-188.15"/>
</g>
<!-- Node30&#45;&gt;Node26 -->
<g id="edge55" class="edge">
<title>Node30&#45;&gt;Node26</title>
<path fill="none" stroke="midnightblue" d="M625.07,-280.44C573.42,-270.92 489.99,-255.55 434.69,-245.36"/>
<polygon fill="midnightblue" stroke="midnightblue" points="435.18,-241.89 424.71,-243.52 433.91,-248.77 435.18,-241.89"/>
</g>
<!-- Node31 -->
<g id="node31" class="node">
<title>Node31</title>
<g id="a_node31"><a xlink:href="RotationRaw_8h.html" target="_top" xlink:title=" ">
<polygon fill="none" stroke="black" points="592.5,-224.5 592.5,-243.5 750.5,-243.5 750.5,-224.5 592.5,-224.5"/>
<text text-anchor="middle" x="671.5" y="-231.5" font-family="FreeSans.ttf" font-size="10.00">iDynTree/Core/RotationRaw.h</text>
</a>
</g>
</g>
<!-- Node30&#45;&gt;Node31 -->
<g id="edge56" class="edge">
<title>Node30&#45;&gt;Node31</title>
<path fill="none" stroke="midnightblue" d="M671.5,-280.08C671.5,-273.01 671.5,-262.86 671.5,-253.99"/>
<polygon fill="midnightblue" stroke="midnightblue" points="675,-253.75 671.5,-243.75 668,-253.75 675,-253.75"/>
</g>
<!-- Node31&#45;&gt;Node13 -->
<g id="edge58" class="edge">
<title>Node31&#45;&gt;Node13</title>
<path fill="none" stroke="midnightblue" d="M685.23,-224.37C715.39,-205.41 787.64,-160 824.32,-136.94"/>
<polygon fill="midnightblue" stroke="midnightblue" points="826.23,-139.88 832.83,-131.59 822.5,-133.95 826.23,-139.88"/>
</g>
<!-- Node31&#45;&gt;Node23 -->
<g id="edge57" class="edge">
<title>Node31&#45;&gt;Node23</title>
<path fill="none" stroke="midnightblue" d="M665.72,-224.08C660.83,-216.53 653.67,-205.49 647.67,-196.23"/>
<polygon fill="midnightblue" stroke="midnightblue" points="650.55,-194.24 642.17,-187.75 644.67,-198.05 650.55,-194.24"/>
</g>
<!-- Node32&#45;&gt;Node20 -->
<g id="edge67" class="edge">
<title>Node32&#45;&gt;Node20</title>
<path fill="none" stroke="midnightblue" d="M275.19,-448.45C263.96,-408.8 237.99,-294.35 288.5,-224 300.27,-207.61 318.92,-197.19 337.81,-190.57"/>
<polygon fill="midnightblue" stroke="midnightblue" points="338.9,-193.89 347.37,-187.52 336.78,-187.22 338.9,-193.89"/>
</g>
<!-- Node32&#45;&gt;Node26 -->
<g id="edge68" class="edge">
<title>Node32&#45;&gt;Node26</title>
<path fill="none" stroke="midnightblue" d="M280.23,-448.37C281.31,-433.87 283.98,-410.85 290.5,-392 309.39,-337.34 346.96,-279.66 366.33,-251.89"/>
<polygon fill="midnightblue" stroke="midnightblue" points="369.23,-253.85 372.15,-243.67 363.51,-249.81 369.23,-253.85"/>
</g>
<!-- Node32&#45;&gt;Node27 -->
<g id="edge69" class="edge">
<title>Node32&#45;&gt;Node27</title>
<path fill="none" stroke="midnightblue" d="M303.2,-448.4C319.23,-438.86 340.3,-426.32 356.24,-416.84"/>
<polygon fill="midnightblue" stroke="midnightblue" points="358.14,-419.78 364.95,-411.66 354.57,-413.76 358.14,-419.78"/>
</g>
<!-- Node33&#45;&gt;Node13 -->
<g id="edge74" class="edge">
<title>Node33&#45;&gt;Node13</title>
<path fill="none" stroke="midnightblue" d="M806.28,-392.49C830.17,-385.53 861.34,-373.88 884.5,-356 933.34,-318.3 947.33,-302.64 966.5,-244 974.24,-220.34 951.63,-168.14 951.5,-168 941.5,-156.45 905.5,-142.5 878.42,-133.23"/>
<polygon fill="midnightblue" stroke="midnightblue" points="879.51,-129.9 868.91,-130.03 877.28,-136.54 879.51,-129.9"/>
</g>
<!-- Node33&#45;&gt;Node23 -->
<g id="edge73" class="edge">
<title>Node33&#45;&gt;Node23</title>
<path fill="none" stroke="midnightblue" d="M789.94,-392.35C844.37,-367.01 990.7,-290.52 933.5,-224 907.39,-193.63 805.68,-183.5 728.5,-180.26"/>
<polygon fill="midnightblue" stroke="midnightblue" points="728.39,-176.76 718.27,-179.87 728.12,-183.75 728.39,-176.76"/>
</g>
<!-- Node33&#45;&gt;Node28 -->
<g id="edge71" class="edge">
<title>Node33&#45;&gt;Node28</title>
<path fill="none" stroke="midnightblue" d="M770.5,-392.08C770.5,-385.01 770.5,-374.86 770.5,-365.99"/>
<polygon fill="midnightblue" stroke="midnightblue" points="774,-365.75 770.5,-355.75 767,-365.75 774,-365.75"/>
</g>
<!-- Node33&#45;&gt;Node30 -->
<g id="edge72" class="edge">
<title>Node33&#45;&gt;Node30</title>
<path fill="none" stroke="midnightblue" d="M762.61,-392.4C754.34,-383.36 740.97,-368.72 729.5,-356 714.71,-339.6 697.92,-320.76 686.23,-307.6"/>
<polygon fill="midnightblue" stroke="midnightblue" points="688.61,-305.01 679.35,-299.86 683.37,-309.66 688.61,-305.01"/>
</g>
</g>
</svg>
