<?xml version="1.0" encoding="UTF-8" standalone="no"?>
<!DOCTYPE svg PUBLIC "-//W3C//DTD SVG 1.1//EN"
 "http://www.w3.org/Graphics/SVG/1.1/DTD/svg11.dtd">
<!-- Generated by graphviz version 2.43.0 (0)
 -->
<!-- Title: KinDynComputations.h Pages: 1 -->
<svg width="1458pt" height="677pt"
 viewBox="0.00 0.00 1458.00 677.00" xmlns="http://www.w3.org/2000/svg" xmlns:xlink="http://www.w3.org/1999/xlink">
<g id="graph0" class="graph" transform="scale(1 1) rotate(0) translate(4 673)">
<title>KinDynComputations.h</title>
<!-- Node1 -->
<g id="node1" class="node">
<title>Node1</title>
<g id="a_node1"><a xlink:title=" ">
<polygon fill="#bfbfbf" stroke="black" points="242.5,-649.5 242.5,-668.5 371.5,-668.5 371.5,-649.5 242.5,-649.5"/>
<text text-anchor="middle" x="307" y="-656.5" font-family="FreeSans.ttf" font-size="10.00">KinDynComputations.h</text>
</a>
</g>
</g>
<!-- Node2 -->
<g id="node2" class="node">
<title>Node2</title>
<g id="a_node2"><a xlink:title=" ">
<polygon fill="none" stroke="#bfbfbf" points="573,-112.5 573,-131.5 617,-131.5 617,-112.5 573,-112.5"/>
<text text-anchor="middle" x="595" y="-119.5" font-family="FreeSans.ttf" font-size="10.00">string</text>
</a>
</g>
</g>
<!-- Node1&#45;&gt;Node2 -->
<g id="edge1" class="edge">
<title>Node1&#45;&gt;Node2</title>
<path fill="none" stroke="midnightblue" d="M304.16,-649.25C298.99,-634.25 286.87,-603.2 269,-582 251.58,-561.34 232.2,-570.11 220,-546 202.54,-511.5 213.47,-497.11 220,-459 224.68,-431.71 285.71,-245.63 303,-224 378.49,-129.56 441.24,-159.4 559,-132 560.27,-131.7 561.57,-131.4 562.87,-131.09"/>
<polygon fill="midnightblue" stroke="midnightblue" points="564.05,-134.4 572.94,-128.64 562.4,-127.6 564.05,-134.4"/>
</g>
<!-- Node3 -->
<g id="node3" class="node">
<title>Node3</title>
<g id="a_node3"><a xlink:title=" ">
<polygon fill="none" stroke="#bfbfbf" points="229.5,-526.5 229.5,-545.5 276.5,-545.5 276.5,-526.5 229.5,-526.5"/>
<text text-anchor="middle" x="253" y="-533.5" font-family="FreeSans.ttf" font-size="10.00">vector</text>
</a>
</g>
</g>
<!-- Node1&#45;&gt;Node3 -->
<g id="edge2" class="edge">
<title>Node1&#45;&gt;Node3</title>
<path fill="none" stroke="midnightblue" d="M308.47,-649.04C310.45,-634.25 312.63,-604.18 302,-582 296.21,-569.92 285.6,-559.54 275.74,-551.81"/>
<polygon fill="midnightblue" stroke="midnightblue" points="277.54,-548.79 267.4,-545.72 273.41,-554.44 277.54,-548.79"/>
</g>
<!-- Node4 -->
<g id="node4" class="node">
<title>Node4</title>
<g id="a_node4"><a xlink:href="VectorFixSize_8h.html" target="_top" xlink:title=" ">
<polygon fill="none" stroke="black" points="959,-168.5 959,-187.5 1121,-187.5 1121,-168.5 959,-168.5"/>
<text text-anchor="middle" x="1040" y="-175.5" font-family="FreeSans.ttf" font-size="10.00">iDynTree/Core/VectorFixSize.h</text>
</a>
</g>
</g>
<!-- Node1&#45;&gt;Node4 -->
<g id="edge3" class="edge">
<title>Node1&#45;&gt;Node4</title>
<path fill="none" stroke="midnightblue" d="M371.76,-657.22C597.49,-653.65 1336,-634.53 1336,-537 1336,-537 1336,-537 1336,-300 1336,-262.43 1329.02,-246.58 1299,-224 1272.86,-204.34 1194.8,-192.59 1131.15,-186.05"/>
<polygon fill="midnightblue" stroke="midnightblue" points="1131.37,-182.56 1121.07,-185.05 1130.68,-189.52 1131.37,-182.56"/>
</g>
<!-- Node5 -->
<g id="node5" class="node">
<title>Node5</title>
<g id="a_node5"><a xlink:href="Utils_8h.html" target="_top" xlink:title=" ">
<polygon fill="none" stroke="black" points="1030.5,-56.5 1030.5,-75.5 1149.5,-75.5 1149.5,-56.5 1030.5,-56.5"/>
<text text-anchor="middle" x="1090" y="-63.5" font-family="FreeSans.ttf" font-size="10.00">iDynTree/Core/Utils.h</text>
</a>
</g>
</g>
<!-- Node1&#45;&gt;Node5 -->
<g id="edge30" class="edge">
<title>Node1&#45;&gt;Node5</title>
<path fill="none" stroke="midnightblue" d="M371.73,-657.99C613.52,-657.13 1450,-646.25 1450,-537 1450,-537 1450,-537 1450,-177 1450,-127.66 1405.54,-131 1360,-112 1295.39,-85.04 1215.72,-74.21 1159.72,-69.87"/>
<polygon fill="midnightblue" stroke="midnightblue" points="1159.78,-66.36 1149.55,-69.13 1159.27,-73.34 1159.78,-66.36"/>
</g>
<!-- Node8 -->
<g id="node8" class="node">
<title>Node8</title>
<g id="a_node8"><a xlink:href="Span_8h.html" target="_top" xlink:title=" ">
<polygon fill="none" stroke="black" points="419.5,-56.5 419.5,-75.5 540.5,-75.5 540.5,-56.5 419.5,-56.5"/>
<text text-anchor="middle" x="480" y="-63.5" font-family="FreeSans.ttf" font-size="10.00">iDynTree/Core/Span.h</text>
</a>
</g>
</g>
<!-- Node1&#45;&gt;Node8 -->
<g id="edge31" class="edge">
<title>Node1&#45;&gt;Node8</title>
<path fill="none" stroke="midnightblue" d="M242.25,-653.43C174.41,-647.53 73.4,-635.28 42,-613 10.52,-590.67 0,-575.59 0,-537 0,-537 0,-537 0,-177 0,-94.09 275.5,-73.67 409.07,-68.64"/>
<polygon fill="midnightblue" stroke="midnightblue" points="409.34,-72.14 419.21,-68.28 409.09,-65.14 409.34,-72.14"/>
</g>
<!-- Node19 -->
<g id="node19" class="node">
<title>Node19</title>
<g id="a_node19"><a xlink:href="MatrixDynSize_8h.html" target="_top" xlink:title=" ">
<polygon fill="none" stroke="black" points="66,-347.5 66,-366.5 234,-366.5 234,-347.5 66,-347.5"/>
<text text-anchor="middle" x="150" y="-354.5" font-family="FreeSans.ttf" font-size="10.00">iDynTree/Core/MatrixDynSize.h</text>
</a>
</g>
</g>
<!-- Node1&#45;&gt;Node19 -->
<g id="edge22" class="edge">
<title>Node1&#45;&gt;Node19</title>
<path fill="none" stroke="midnightblue" d="M242.25,-651.78C187.86,-645.24 115.78,-633.05 95,-613 69.94,-588.83 76,-571.82 76,-537 76,-537 76,-537 76,-473.5 76,-432.32 109.76,-394.08 131.67,-373.59"/>
<polygon fill="midnightblue" stroke="midnightblue" points="134.31,-375.93 139.4,-366.64 129.62,-370.73 134.31,-375.93"/>
</g>
<!-- Node20 -->
<g id="node20" class="node">
<title>Node20</title>
<g id="a_node20"><a xlink:href="MatrixView_8h.html" target="_top" xlink:title=" ">
<polygon fill="none" stroke="black" points="365,-112.5 365,-131.5 517,-131.5 517,-112.5 365,-112.5"/>
<text text-anchor="middle" x="441" y="-119.5" font-family="FreeSans.ttf" font-size="10.00">iDynTree/Core/MatrixView.h</text>
</a>
</g>
</g>
<!-- Node1&#45;&gt;Node20 -->
<g id="edge29" class="edge">
<title>Node1&#45;&gt;Node20</title>
<path fill="none" stroke="midnightblue" d="M242.26,-652.19C182.36,-645.65 98.81,-633.22 73,-613 43.73,-590.06 38,-574.19 38,-537 38,-537 38,-537 38,-238.5 38,-173.17 236.17,-142.67 354.58,-130.27"/>
<polygon fill="midnightblue" stroke="midnightblue" points="355.13,-133.74 364.73,-129.24 354.42,-126.77 355.13,-133.74"/>
</g>
<!-- Node21 -->
<g id="node21" class="node">
<title>Node21</title>
<g id="a_node21"><a xlink:href="Indices_8h.html" target="_top" xlink:title=" ">
<polygon fill="none" stroke="black" points="294.5,-526.5 294.5,-545.5 433.5,-545.5 433.5,-526.5 294.5,-526.5"/>
<text text-anchor="middle" x="364" y="-533.5" font-family="FreeSans.ttf" font-size="10.00">iDynTree/Model/Indices.h</text>
</a>
</g>
</g>
<!-- Node1&#45;&gt;Node21 -->
<g id="edge32" class="edge">
<title>Node1&#45;&gt;Node21</title>
<path fill="none" stroke="midnightblue" d="M311.1,-649.3C320.38,-629.59 343.17,-581.21 355.6,-554.84"/>
<polygon fill="midnightblue" stroke="midnightblue" points="358.84,-556.16 359.94,-545.62 352.51,-553.18 358.84,-556.16"/>
</g>
<!-- Node23 -->
<g id="node23" class="node">
<title>Node23</title>
<g id="a_node23"><a xlink:href="FreeFloatingMatrices_8h.html" target="_top" xlink:title=" ">
<polygon fill="none" stroke="black" points="104,-582.5 104,-612.5 260,-612.5 260,-582.5 104,-582.5"/>
<text text-anchor="start" x="112" y="-600.5" font-family="FreeSans.ttf" font-size="10.00">iDynTree/Model/FreeFloating</text>
<text text-anchor="middle" x="182" y="-589.5" font-family="FreeSans.ttf" font-size="10.00">Matrices.h</text>
</a>
</g>
</g>
<!-- Node1&#45;&gt;Node23 -->
<g id="edge36" class="edge">
<title>Node1&#45;&gt;Node23</title>
<path fill="none" stroke="midnightblue" d="M289.09,-649.48C271.29,-641 243.42,-627.74 220.58,-616.86"/>
<polygon fill="midnightblue" stroke="midnightblue" points="221.99,-613.66 211.46,-612.52 218.99,-619.98 221.99,-613.66"/>
</g>
<!-- Node24 -->
<g id="node24" class="node">
<title>Node24</title>
<g id="a_node24"><a xlink:href="LinkState_8h.html" target="_top" xlink:title=" ">
<polygon fill="none" stroke="black" points="425,-588 425,-607 575,-607 575,-588 425,-588"/>
<text text-anchor="middle" x="500" y="-595" font-family="FreeSans.ttf" font-size="10.00">iDynTree/Model/LinkState.h</text>
</a>
</g>
</g>
<!-- Node1&#45;&gt;Node24 -->
<g id="edge38" class="edge">
<title>Node1&#45;&gt;Node24</title>
<path fill="none" stroke="midnightblue" d="M334.65,-649.48C368.19,-639.14 424.87,-621.66 462.37,-610.1"/>
<polygon fill="midnightblue" stroke="midnightblue" points="463.87,-613.3 472.4,-607.01 461.81,-606.61 463.87,-613.3"/>
</g>
<!-- Node4&#45;&gt;Node2 -->
<g id="edge17" class="edge">
<title>Node4&#45;&gt;Node2</title>
<path fill="none" stroke="midnightblue" d="M969.49,-168.44C871.82,-156.59 699.3,-135.66 627.63,-126.96"/>
<polygon fill="midnightblue" stroke="midnightblue" points="627.76,-123.45 617.41,-125.72 626.92,-130.4 627.76,-123.45"/>
</g>
<!-- Node4&#45;&gt;Node5 -->
<g id="edge4" class="edge">
<title>Node4&#45;&gt;Node5</title>
<path fill="none" stroke="midnightblue" d="M1041.63,-168.27C1044.21,-155.48 1049.91,-131.11 1059,-112 1063.73,-102.06 1070.54,-91.88 1076.57,-83.73"/>
<polygon fill="midnightblue" stroke="midnightblue" points="1079.36,-85.85 1082.68,-75.78 1073.81,-81.58 1079.36,-85.85"/>
</g>
<!-- Node6 -->
<g id="node6" class="node">
<title>Node6</title>
<g id="a_node6"><a xlink:title=" ">
<polygon fill="none" stroke="#bfbfbf" points="910.5,-0.5 910.5,-19.5 963.5,-19.5 963.5,-0.5 910.5,-0.5"/>
<text text-anchor="middle" x="937" y="-7.5" font-family="FreeSans.ttf" font-size="10.00">cstddef</text>
</a>
</g>
</g>
<!-- Node4&#45;&gt;Node6 -->
<g id="edge20" class="edge">
<title>Node4&#45;&gt;Node6</title>
<path fill="none" stroke="midnightblue" d="M1034.46,-168.08C1018.04,-141.61 969.39,-63.21 947.68,-28.21"/>
<polygon fill="midnightblue" stroke="midnightblue" points="950.56,-26.22 942.32,-19.57 944.61,-29.91 950.56,-26.22"/>
</g>
<!-- Node4&#45;&gt;Node8 -->
<g id="edge7" class="edge">
<title>Node4&#45;&gt;Node8</title>
<path fill="none" stroke="midnightblue" d="M1022.77,-168.38C988.18,-151.11 913.07,-113.74 907,-112 785.14,-76.99 636.72,-68.64 550.82,-66.97"/>
<polygon fill="midnightblue" stroke="midnightblue" points="550.72,-63.47 540.66,-66.8 550.6,-70.47 550.72,-63.47"/>
</g>
<!-- Node9 -->
<g id="node9" class="node">
<title>Node9</title>
<g id="a_node9"><a xlink:title=" ">
<polygon fill="none" stroke="#bfbfbf" points="737,-0.5 737,-19.5 789,-19.5 789,-0.5 737,-0.5"/>
<text text-anchor="middle" x="763" y="-7.5" font-family="FreeSans.ttf" font-size="10.00">cassert</text>
</a>
</g>
</g>
<!-- Node4&#45;&gt;Node9 -->
<g id="edge19" class="edge">
<title>Node4&#45;&gt;Node9</title>
<path fill="none" stroke="midnightblue" d="M1027.35,-168.32C1008.69,-155.59 972.58,-131.3 941,-112 887.24,-79.15 822.55,-43.35 787.87,-24.44"/>
<polygon fill="midnightblue" stroke="midnightblue" points="789.37,-21.28 778.91,-19.58 786.03,-27.43 789.37,-21.28"/>
</g>
<!-- Node17 -->
<g id="node17" class="node">
<title>Node17</title>
<g id="a_node17"><a xlink:title=" ">
<polygon fill="none" stroke="#bfbfbf" points="1068,-112.5 1068,-131.5 1124,-131.5 1124,-112.5 1068,-112.5"/>
<text text-anchor="middle" x="1096" y="-119.5" font-family="FreeSans.ttf" font-size="10.00">sstream</text>
</a>
</g>
</g>
<!-- Node4&#45;&gt;Node17 -->
<g id="edge18" class="edge">
<title>Node4&#45;&gt;Node17</title>
<path fill="none" stroke="midnightblue" d="M1049,-168.32C1057.19,-160.42 1069.51,-148.55 1079.47,-138.94"/>
<polygon fill="midnightblue" stroke="midnightblue" points="1082.07,-141.29 1086.84,-131.83 1077.21,-136.26 1082.07,-141.29"/>
</g>
<!-- Node18 -->
<g id="node18" class="node">
<title>Node18</title>
<g id="a_node18"><a xlink:title=" ">
<polygon fill="none" stroke="#bfbfbf" points="848,-112.5 848,-131.5 898,-131.5 898,-112.5 848,-112.5"/>
<text text-anchor="middle" x="873" y="-119.5" font-family="FreeSans.ttf" font-size="10.00">cstring</text>
</a>
</g>
</g>
<!-- Node4&#45;&gt;Node18 -->
<g id="edge21" class="edge">
<title>Node4&#45;&gt;Node18</title>
<path fill="none" stroke="midnightblue" d="M1013.54,-168.44C984.99,-159.21 939.4,-144.47 907.93,-134.29"/>
<polygon fill="midnightblue" stroke="midnightblue" points="908.84,-130.91 898.24,-131.16 906.68,-137.57 908.84,-130.91"/>
</g>
<!-- Node5&#45;&gt;Node6 -->
<g id="edge5" class="edge">
<title>Node5&#45;&gt;Node6</title>
<path fill="none" stroke="midnightblue" d="M1065.76,-56.44C1040.13,-47.4 999.51,-33.06 970.76,-22.92"/>
<polygon fill="midnightblue" stroke="midnightblue" points="971.72,-19.54 961.13,-19.52 969.39,-26.15 971.72,-19.54"/>
</g>
<!-- Node7 -->
<g id="node7" class="node">
<title>Node7</title>
<g id="a_node7"><a xlink:title=" ">
<polygon fill="none" stroke="#bfbfbf" points="1050,-0.5 1050,-19.5 1130,-19.5 1130,-0.5 1050,-0.5"/>
<text text-anchor="middle" x="1090" y="-7.5" font-family="FreeSans.ttf" font-size="10.00">CoreExport.h</text>
</a>
</g>
</g>
<!-- Node5&#45;&gt;Node7 -->
<g id="edge6" class="edge">
<title>Node5&#45;&gt;Node7</title>
<path fill="none" stroke="midnightblue" d="M1090,-56.08C1090,-49.01 1090,-38.86 1090,-29.99"/>
<polygon fill="midnightblue" stroke="midnightblue" points="1093.5,-29.75 1090,-19.75 1086.5,-29.75 1093.5,-29.75"/>
</g>
<!-- Node8&#45;&gt;Node6 -->
<g id="edge11" class="edge">
<title>Node8&#45;&gt;Node6</title>
<path fill="none" stroke="midnightblue" d="M540.69,-57.83C636.81,-46.47 821.22,-24.68 899.92,-15.38"/>
<polygon fill="midnightblue" stroke="midnightblue" points="900.79,-18.8 910.31,-14.15 899.97,-11.85 900.79,-18.8"/>
</g>
<!-- Node8&#45;&gt;Node9 -->
<g id="edge8" class="edge">
<title>Node8&#45;&gt;Node9</title>
<path fill="none" stroke="midnightblue" d="M532.24,-56.49C580.21,-48.45 653.48,-35.6 726.82,-19.91"/>
<polygon fill="midnightblue" stroke="midnightblue" points="727.66,-23.31 736.7,-17.78 726.19,-16.47 727.66,-23.31"/>
</g>
<!-- Node10 -->
<g id="node10" class="node">
<title>Node10</title>
<g id="a_node10"><a xlink:title=" ">
<polygon fill="none" stroke="#bfbfbf" points="377,-0.5 377,-19.5 441,-19.5 441,-0.5 377,-0.5"/>
<text text-anchor="middle" x="409" y="-7.5" font-family="FreeSans.ttf" font-size="10.00">algorithm</text>
</a>
</g>
</g>
<!-- Node8&#45;&gt;Node10 -->
<g id="edge9" class="edge">
<title>Node8&#45;&gt;Node10</title>
<path fill="none" stroke="midnightblue" d="M468.59,-56.32C457.89,-48.18 441.66,-35.84 428.84,-26.09"/>
<polygon fill="midnightblue" stroke="midnightblue" points="430.69,-23.1 420.61,-19.83 426.46,-28.67 430.69,-23.1"/>
</g>
<!-- Node11 -->
<g id="node11" class="node">
<title>Node11</title>
<g id="a_node11"><a xlink:title=" ">
<polygon fill="none" stroke="#bfbfbf" points="459,-0.5 459,-19.5 501,-19.5 501,-0.5 459,-0.5"/>
<text text-anchor="middle" x="480" y="-7.5" font-family="FreeSans.ttf" font-size="10.00">array</text>
</a>
</g>
</g>
<!-- Node8&#45;&gt;Node11 -->
<g id="edge10" class="edge">
<title>Node8&#45;&gt;Node11</title>
<path fill="none" stroke="midnightblue" d="M480,-56.08C480,-49.01 480,-38.86 480,-29.99"/>
<polygon fill="midnightblue" stroke="midnightblue" points="483.5,-29.75 480,-19.75 476.5,-29.75 483.5,-29.75"/>
</g>
<!-- Node12 -->
<g id="node12" class="node">
<title>Node12</title>
<g id="a_node12"><a xlink:title=" ">
<polygon fill="none" stroke="#bfbfbf" points="519.5,-0.5 519.5,-19.5 572.5,-19.5 572.5,-0.5 519.5,-0.5"/>
<text text-anchor="middle" x="546" y="-7.5" font-family="FreeSans.ttf" font-size="10.00">iterator</text>
</a>
</g>
</g>
<!-- Node8&#45;&gt;Node12 -->
<g id="edge12" class="edge">
<title>Node8&#45;&gt;Node12</title>
<path fill="none" stroke="midnightblue" d="M490.6,-56.32C500.46,-48.26 515.35,-36.08 527.22,-26.37"/>
<polygon fill="midnightblue" stroke="midnightblue" points="529.68,-28.88 535.2,-19.83 525.25,-23.46 529.68,-28.88"/>
</g>
<!-- Node13 -->
<g id="node13" class="node">
<title>Node13</title>
<g id="a_node13"><a xlink:title=" ">
<polygon fill="none" stroke="#bfbfbf" points="591,-0.5 591,-19.5 635,-19.5 635,-0.5 591,-0.5"/>
<text text-anchor="middle" x="613" y="-7.5" font-family="FreeSans.ttf" font-size="10.00">limits</text>
</a>
</g>
</g>
<!-- Node8&#45;&gt;Node13 -->
<g id="edge13" class="edge">
<title>Node8&#45;&gt;Node13</title>
<path fill="none" stroke="midnightblue" d="M501.07,-56.44C523.06,-47.52 557.73,-33.44 582.66,-23.32"/>
<polygon fill="midnightblue" stroke="midnightblue" points="584.08,-26.52 592.02,-19.52 581.44,-20.04 584.08,-26.52"/>
</g>
<!-- Node14 -->
<g id="node14" class="node">
<title>Node14</title>
<g id="a_node14"><a xlink:title=" ">
<polygon fill="none" stroke="#bfbfbf" points="653.5,-0.5 653.5,-19.5 718.5,-19.5 718.5,-0.5 653.5,-0.5"/>
<text text-anchor="middle" x="686" y="-7.5" font-family="FreeSans.ttf" font-size="10.00">stdexcept</text>
</a>
</g>
</g>
<!-- Node8&#45;&gt;Node14 -->
<g id="edge14" class="edge">
<title>Node8&#45;&gt;Node14</title>
<path fill="none" stroke="midnightblue" d="M512.64,-56.44C548.05,-47.16 604.71,-32.31 643.55,-22.13"/>
<polygon fill="midnightblue" stroke="midnightblue" points="644.73,-25.44 653.51,-19.52 642.95,-18.67 644.73,-25.44"/>
</g>
<!-- Node15 -->
<g id="node15" class="node">
<title>Node15</title>
<g id="a_node15"><a xlink:title=" ">
<polygon fill="none" stroke="#bfbfbf" points="226.5,-0.5 226.5,-19.5 295.5,-19.5 295.5,-0.5 226.5,-0.5"/>
<text text-anchor="middle" x="261" y="-7.5" font-family="FreeSans.ttf" font-size="10.00">type_traits</text>
</a>
</g>
</g>
<!-- Node8&#45;&gt;Node15 -->
<g id="edge15" class="edge">
<title>Node8&#45;&gt;Node15</title>
<path fill="none" stroke="midnightblue" d="M445.3,-56.44C407.42,-47.1 346.65,-32.12 305.34,-21.93"/>
<polygon fill="midnightblue" stroke="midnightblue" points="306.09,-18.51 295.54,-19.52 304.41,-25.31 306.09,-18.51"/>
</g>
<!-- Node16 -->
<g id="node16" class="node">
<title>Node16</title>
<g id="a_node16"><a xlink:title=" ">
<polygon fill="none" stroke="#bfbfbf" points="313.5,-0.5 313.5,-19.5 358.5,-19.5 358.5,-0.5 313.5,-0.5"/>
<text text-anchor="middle" x="336" y="-7.5" font-family="FreeSans.ttf" font-size="10.00">utility</text>
</a>
</g>
</g>
<!-- Node8&#45;&gt;Node16 -->
<g id="edge16" class="edge">
<title>Node8&#45;&gt;Node16</title>
<path fill="none" stroke="midnightblue" d="M457.18,-56.44C433.17,-47.44 395.17,-33.19 368.13,-23.05"/>
<polygon fill="midnightblue" stroke="midnightblue" points="369.3,-19.75 358.71,-19.52 366.84,-26.3 369.3,-19.75"/>
</g>
<!-- Node19&#45;&gt;Node2 -->
<g id="edge23" class="edge">
<title>Node19&#45;&gt;Node2</title>
<path fill="none" stroke="midnightblue" d="M151.64,-347.39C157.96,-316.86 183.74,-213.23 250,-168 307.1,-129.02 490.99,-144.41 559,-132 560.25,-131.77 561.52,-131.53 562.8,-131.27"/>
<polygon fill="midnightblue" stroke="midnightblue" points="563.63,-134.67 572.63,-129.07 562.11,-127.83 563.63,-134.67"/>
</g>
<!-- Node19&#45;&gt;Node20 -->
<g id="edge24" class="edge">
<title>Node19&#45;&gt;Node20</title>
<path fill="none" stroke="midnightblue" d="M147.97,-347.42C141.53,-317.86 124.76,-219.25 174,-168 198.47,-142.53 286.23,-131.45 354.53,-126.65"/>
<polygon fill="midnightblue" stroke="midnightblue" points="355.14,-130.12 364.89,-125.96 354.67,-123.14 355.14,-130.12"/>
</g>
<!-- Node20&#45;&gt;Node5 -->
<g id="edge28" class="edge">
<title>Node20&#45;&gt;Node5</title>
<path fill="none" stroke="midnightblue" d="M517.04,-114.67C644.01,-104.11 897.35,-83.03 1020.11,-72.82"/>
<polygon fill="midnightblue" stroke="midnightblue" points="1020.47,-76.3 1030.14,-71.98 1019.89,-69.32 1020.47,-76.3"/>
</g>
<!-- Node20&#45;&gt;Node8 -->
<g id="edge27" class="edge">
<title>Node20&#45;&gt;Node8</title>
<path fill="none" stroke="midnightblue" d="M447.44,-112.08C452.95,-104.46 461.03,-93.26 467.76,-83.94"/>
<polygon fill="midnightblue" stroke="midnightblue" points="470.66,-85.91 473.68,-75.75 464.99,-81.81 470.66,-85.91"/>
</g>
<!-- Node20&#45;&gt;Node9 -->
<g id="edge25" class="edge">
<title>Node20&#45;&gt;Node9</title>
<path fill="none" stroke="midnightblue" d="M466,-112.46C522.94,-93.01 662.43,-45.36 727.94,-22.98"/>
<polygon fill="midnightblue" stroke="midnightblue" points="729.46,-26.16 737.8,-19.61 727.2,-19.53 729.46,-26.16"/>
</g>
<!-- Node20&#45;&gt;Node15 -->
<g id="edge26" class="edge">
<title>Node20&#45;&gt;Node15</title>
<path fill="none" stroke="midnightblue" d="M426.88,-112.37C395.86,-93.41 321.55,-48 283.81,-24.94"/>
<polygon fill="midnightblue" stroke="midnightblue" points="285.42,-21.82 275.06,-19.59 281.77,-27.79 285.42,-21.82"/>
</g>
<!-- Node21&#45;&gt;Node2 -->
<g id="edge34" class="edge">
<title>Node21&#45;&gt;Node2</title>
<path fill="none" stroke="midnightblue" d="M358.98,-526.4C337,-487.52 253.33,-325.63 321,-224 335,-202.98 493.22,-153.49 562.66,-132.58"/>
<polygon fill="midnightblue" stroke="midnightblue" points="564.05,-135.82 572.62,-129.6 562.04,-129.12 564.05,-135.82"/>
</g>
<!-- Node21&#45;&gt;Node6 -->
<g id="edge33" class="edge">
<title>Node21&#45;&gt;Node6</title>
<path fill="none" stroke="midnightblue" d="M359.12,-526.45C333.06,-479.58 215.79,-252.92 335,-168 405.36,-117.88 444.43,-160.43 526,-132 544.02,-125.72 546.24,-118.98 564,-112 683.13,-65.18 831.87,-32.05 899.92,-18.21"/>
<polygon fill="midnightblue" stroke="midnightblue" points="901.01,-21.56 910.13,-16.15 899.63,-14.69 901.01,-21.56"/>
</g>
<!-- Node22 -->
<g id="node22" class="node">
<title>Node22</title>
<g id="a_node22"><a xlink:title=" ">
<polygon fill="none" stroke="#bfbfbf" points="229.5,-465 229.5,-484 316.5,-484 316.5,-465 229.5,-465"/>
<text text-anchor="middle" x="273" y="-472" font-family="FreeSans.ttf" font-size="10.00">ModelExport.h</text>
</a>
</g>
</g>
<!-- Node21&#45;&gt;Node22 -->
<g id="edge35" class="edge">
<title>Node21&#45;&gt;Node22</title>
<path fill="none" stroke="midnightblue" d="M350.96,-526.48C336.23,-516.84 312.03,-501.02 294.49,-489.55"/>
<polygon fill="midnightblue" stroke="midnightblue" points="296.3,-486.55 286.01,-484.01 292.47,-492.41 296.3,-486.55"/>
</g>
<!-- Node23&#45;&gt;Node19 -->
<g id="edge37" class="edge">
<title>Node23&#45;&gt;Node19</title>
<path fill="none" stroke="midnightblue" d="M180.09,-582.29C174.61,-541.43 158.8,-423.55 152.57,-377.12"/>
<polygon fill="midnightblue" stroke="midnightblue" points="156,-376.39 151.2,-366.95 149.06,-377.32 156,-376.39"/>
</g>
<!-- Node24&#45;&gt;Node3 -->
<g id="edge85" class="edge">
<title>Node24&#45;&gt;Node3</title>
<path fill="none" stroke="midnightblue" d="M461.43,-587.97C420.32,-578.76 353.12,-563.38 286.55,-546.33"/>
<polygon fill="midnightblue" stroke="midnightblue" points="287.29,-542.9 276.73,-543.8 285.55,-549.68 287.29,-542.9"/>
</g>
<!-- Node24&#45;&gt;Node21 -->
<g id="edge84" class="edge">
<title>Node24&#45;&gt;Node21</title>
<path fill="none" stroke="midnightblue" d="M480.51,-587.98C457.59,-577.95 419.31,-561.2 392.92,-549.65"/>
<polygon fill="midnightblue" stroke="midnightblue" points="394.01,-546.31 383.45,-545.51 391.21,-552.72 394.01,-546.31"/>
</g>
<!-- Node25 -->
<g id="node25" class="node">
<title>Node25</title>
<g id="a_node25"><a xlink:href="Transform_8h.html" target="_top" xlink:title=" ">
<polygon fill="none" stroke="black" points="490,-403.5 490,-422.5 636,-422.5 636,-403.5 490,-403.5"/>
<text text-anchor="middle" x="563" y="-410.5" font-family="FreeSans.ttf" font-size="10.00">iDynTree/Core/Transform.h</text>
</a>
</g>
</g>
<!-- Node24&#45;&gt;Node25 -->
<g id="edge39" class="edge">
<title>Node24&#45;&gt;Node25</title>
<path fill="none" stroke="midnightblue" d="M503.04,-587.7C512.75,-559.57 543.17,-471.46 556.56,-432.66"/>
<polygon fill="midnightblue" stroke="midnightblue" points="560.04,-433.31 559.99,-422.71 553.42,-431.02 560.04,-433.31"/>
</g>
<!-- Node33 -->
<g id="node33" class="node">
<title>Node33</title>
<g id="a_node33"><a xlink:href="Twist_8h.html" target="_top" xlink:title=" ">
<polygon fill="none" stroke="black" points="874,-526.5 874,-545.5 996,-545.5 996,-526.5 874,-526.5"/>
<text text-anchor="middle" x="935" y="-533.5" font-family="FreeSans.ttf" font-size="10.00">iDynTree/Core/Twist.h</text>
</a>
</g>
</g>
<!-- Node24&#45;&gt;Node33 -->
<g id="edge63" class="edge">
<title>Node24&#45;&gt;Node33</title>
<path fill="none" stroke="midnightblue" d="M562.32,-587.98C642.13,-577.06 780.08,-558.19 863.9,-546.73"/>
<polygon fill="midnightblue" stroke="midnightblue" points="864.41,-550.19 873.84,-545.37 863.46,-543.25 864.41,-550.19"/>
</g>
<!-- Node36 -->
<g id="node36" class="node">
<title>Node36</title>
<g id="a_node36"><a xlink:href="SpatialAcc_8h.html" target="_top" xlink:title=" ">
<polygon fill="none" stroke="black" points="1041,-526.5 1041,-545.5 1189,-545.5 1189,-526.5 1041,-526.5"/>
<text text-anchor="middle" x="1115" y="-533.5" font-family="FreeSans.ttf" font-size="10.00">iDynTree/Core/SpatialAcc.h</text>
</a>
</g>
</g>
<!-- Node24&#45;&gt;Node36 -->
<g id="edge74" class="edge">
<title>Node24&#45;&gt;Node36</title>
<path fill="none" stroke="midnightblue" d="M575.1,-589.23C690.31,-578.09 909.93,-556.84 1030.52,-545.17"/>
<polygon fill="midnightblue" stroke="midnightblue" points="1031.19,-548.62 1040.81,-544.18 1030.52,-541.66 1031.19,-548.62"/>
</g>
<!-- Node37 -->
<g id="node37" class="node">
<title>Node37</title>
<g id="a_node37"><a xlink:href="Wrench_8h.html" target="_top" xlink:title=" ">
<polygon fill="none" stroke="black" points="668,-526.5 668,-545.5 802,-545.5 802,-526.5 668,-526.5"/>
<text text-anchor="middle" x="735" y="-533.5" font-family="FreeSans.ttf" font-size="10.00">iDynTree/Core/Wrench.h</text>
</a>
</g>
</g>
<!-- Node24&#45;&gt;Node37 -->
<g id="edge76" class="edge">
<title>Node24&#45;&gt;Node37</title>
<path fill="none" stroke="midnightblue" d="M533.67,-587.98C575.2,-577.46 645.89,-559.56 691.5,-548.01"/>
<polygon fill="midnightblue" stroke="midnightblue" points="692.56,-551.36 701.39,-545.51 690.84,-544.57 692.56,-551.36"/>
</g>
<!-- Node39 -->
<g id="node39" class="node">
<title>Node39</title>
<g id="a_node39"><a xlink:href="ArticulatedBodyInertia_8h.html" target="_top" xlink:title=" ">
<polygon fill="none" stroke="black" points="330.5,-224.5 330.5,-254.5 471.5,-254.5 471.5,-224.5 330.5,-224.5"/>
<text text-anchor="start" x="338.5" y="-242.5" font-family="FreeSans.ttf" font-size="10.00">iDynTree/Core/Articulated</text>
<text text-anchor="middle" x="401" y="-231.5" font-family="FreeSans.ttf" font-size="10.00">BodyInertia.h</text>
</a>
</g>
</g>
<!-- Node24&#45;&gt;Node39 -->
<g id="edge81" class="edge">
<title>Node24&#45;&gt;Node39</title>
<path fill="none" stroke="midnightblue" d="M495.34,-587.98C485.19,-568.62 462,-519.54 462,-475.5 462,-475.5 462,-475.5 462,-356 462,-320.01 438.55,-284.25 420.73,-262.27"/>
<polygon fill="midnightblue" stroke="midnightblue" points="423.35,-259.95 414.24,-254.54 417.99,-264.45 423.35,-259.95"/>
</g>
<!-- Node25&#45;&gt;Node2 -->
<g id="edge62" class="edge">
<title>Node25&#45;&gt;Node2</title>
<path fill="none" stroke="midnightblue" d="M553.7,-403.28C536.18,-385.85 500,-344.69 500,-302 500,-302 500,-302 500,-238.5 500,-193.52 543.51,-156.52 571.64,-137.3"/>
<polygon fill="midnightblue" stroke="midnightblue" points="573.72,-140.12 580.16,-131.7 569.88,-134.27 573.72,-140.12"/>
</g>
<!-- Node26 -->
<g id="node26" class="node">
<title>Node26</title>
<g id="a_node26"><a xlink:href="Position_8h.html" target="_top" xlink:title=" ">
<polygon fill="none" stroke="black" points="614,-347.5 614,-366.5 750,-366.5 750,-347.5 614,-347.5"/>
<text text-anchor="middle" x="682" y="-354.5" font-family="FreeSans.ttf" font-size="10.00">iDynTree/Core/Position.h</text>
</a>
</g>
</g>
<!-- Node25&#45;&gt;Node26 -->
<g id="edge40" class="edge">
<title>Node25&#45;&gt;Node26</title>
<path fill="none" stroke="midnightblue" d="M581.86,-403.44C601.27,-394.64 631.73,-380.81 653.96,-370.72"/>
<polygon fill="midnightblue" stroke="midnightblue" points="655.57,-373.84 663.23,-366.52 652.68,-367.46 655.57,-373.84"/>
</g>
<!-- Node28 -->
<g id="node28" class="node">
<title>Node28</title>
<g id="a_node28"><a xlink:href="Rotation_8h.html" target="_top" xlink:title=" ">
<polygon fill="none" stroke="black" points="826,-291.5 826,-310.5 964,-310.5 964,-291.5 826,-291.5"/>
<text text-anchor="middle" x="895" y="-298.5" font-family="FreeSans.ttf" font-size="10.00">iDynTree/Core/Rotation.h</text>
</a>
</g>
</g>
<!-- Node25&#45;&gt;Node28 -->
<g id="edge60" class="edge">
<title>Node25&#45;&gt;Node28</title>
<path fill="none" stroke="midnightblue" d="M614.22,-403.44C654.28,-395.99 711.04,-383.74 759,-367 799.71,-352.79 844.35,-329.95 871,-315.47"/>
<polygon fill="midnightblue" stroke="midnightblue" points="872.89,-318.43 879.97,-310.55 869.52,-312.29 872.89,-318.43"/>
</g>
<!-- Node31 -->
<g id="node31" class="node">
<title>Node31</title>
<g id="a_node31"><a xlink:href="MatrixFixSize_8h.html" target="_top" xlink:title=" ">
<polygon fill="none" stroke="black" points="718.5,-168.5 718.5,-187.5 881.5,-187.5 881.5,-168.5 718.5,-168.5"/>
<text text-anchor="middle" x="800" y="-175.5" font-family="FreeSans.ttf" font-size="10.00">iDynTree/Core/MatrixFixSize.h</text>
</a>
</g>
</g>
<!-- Node25&#45;&gt;Node31 -->
<g id="edge61" class="edge">
<title>Node25&#45;&gt;Node31</title>
<path fill="none" stroke="midnightblue" d="M561.48,-403.46C556.8,-374.01 545.65,-275.75 595,-224 610.99,-207.23 661.71,-196.01 708.69,-188.97"/>
<polygon fill="midnightblue" stroke="midnightblue" points="709.25,-192.43 718.64,-187.54 708.24,-185.5 709.25,-192.43"/>
</g>
<!-- Node26&#45;&gt;Node2 -->
<g id="edge59" class="edge">
<title>Node26&#45;&gt;Node2</title>
<path fill="none" stroke="midnightblue" d="M670.37,-347.29C650.39,-331.51 610.23,-296 595,-255 580.82,-216.82 586.33,-168.04 591.02,-141.78"/>
<polygon fill="midnightblue" stroke="midnightblue" points="594.51,-142.19 592.99,-131.7 587.64,-140.85 594.51,-142.19"/>
</g>
<!-- Node27 -->
<g id="node27" class="node">
<title>Node27</title>
<g id="a_node27"><a xlink:href="PositionRaw_8h.html" target="_top" xlink:title=" ">
<polygon fill="none" stroke="black" points="604,-230 604,-249 760,-249 760,-230 604,-230"/>
<text text-anchor="middle" x="682" y="-237" font-family="FreeSans.ttf" font-size="10.00">iDynTree/Core/PositionRaw.h</text>
</a>
</g>
</g>
<!-- Node26&#45;&gt;Node27 -->
<g id="edge41" class="edge">
<title>Node26&#45;&gt;Node27</title>
<path fill="none" stroke="midnightblue" d="M682,-347.32C682,-328.76 682,-284.84 682,-259.47"/>
<polygon fill="midnightblue" stroke="midnightblue" points="685.5,-259.28 682,-249.28 678.5,-259.28 685.5,-259.28"/>
</g>
<!-- Node26&#45;&gt;Node28 -->
<g id="edge44" class="edge">
<title>Node26&#45;&gt;Node28</title>
<path fill="none" stroke="midnightblue" d="M715.75,-347.44C752.52,-338.12 811.45,-323.18 851.62,-313"/>
<polygon fill="midnightblue" stroke="midnightblue" points="852.57,-316.37 861.41,-310.52 850.85,-309.58 852.57,-316.37"/>
</g>
<!-- Node27&#45;&gt;Node2 -->
<g id="edge43" class="edge">
<title>Node27&#45;&gt;Node2</title>
<path fill="none" stroke="midnightblue" d="M673.84,-229.86C664.72,-220.03 649.69,-203.36 638,-188 626.13,-172.41 613.93,-153.65 605.57,-140.3"/>
<polygon fill="midnightblue" stroke="midnightblue" points="608.46,-138.32 600.22,-131.66 602.51,-142.01 608.46,-138.32"/>
</g>
<!-- Node27&#45;&gt;Node4 -->
<g id="edge42" class="edge">
<title>Node27&#45;&gt;Node4</title>
<path fill="none" stroke="midnightblue" d="M733.29,-229.98C798.16,-219.19 909.71,-200.65 978.91,-189.15"/>
<polygon fill="midnightblue" stroke="midnightblue" points="979.51,-192.6 988.8,-187.51 978.36,-185.7 979.51,-192.6"/>
</g>
<!-- Node28&#45;&gt;Node2 -->
<g id="edge45" class="edge">
<title>Node28&#45;&gt;Node2</title>
<path fill="none" stroke="midnightblue" d="M875.47,-291.46C857.19,-283.14 829.41,-269.64 807,-255 788.75,-243.08 788,-234.67 769,-224 727.09,-200.46 708.31,-212.59 667,-188 644.74,-174.75 623.24,-153.96 609.62,-139.47"/>
<polygon fill="midnightblue" stroke="midnightblue" points="611.9,-136.78 602.56,-131.77 606.74,-141.51 611.9,-136.78"/>
</g>
<!-- Node28&#45;&gt;Node4 -->
<g id="edge58" class="edge">
<title>Node28&#45;&gt;Node4</title>
<path fill="none" stroke="midnightblue" d="M918.4,-291.47C937.2,-283.84 963.58,-271.36 983,-255 1003.04,-238.12 1020.15,-212.93 1030.26,-196.24"/>
<polygon fill="midnightblue" stroke="midnightblue" points="1033.33,-197.92 1035.37,-187.52 1027.29,-194.38 1033.33,-197.92"/>
</g>
<!-- Node29 -->
<g id="node29" class="node">
<title>Node29</title>
<g id="a_node29"><a xlink:href="GeomVector3_8h.html" target="_top" xlink:title=" ">
<polygon fill="none" stroke="black" points="1068.5,-230 1068.5,-249 1231.5,-249 1231.5,-230 1068.5,-230"/>
<text text-anchor="middle" x="1150" y="-237" font-family="FreeSans.ttf" font-size="10.00">iDynTree/Core/GeomVector3.h</text>
</a>
</g>
</g>
<!-- Node28&#45;&gt;Node29 -->
<g id="edge46" class="edge">
<title>Node28&#45;&gt;Node29</title>
<path fill="none" stroke="midnightblue" d="M931.54,-291.48C976.89,-280.89 1054.28,-262.84 1103.73,-251.3"/>
<polygon fill="midnightblue" stroke="midnightblue" points="1104.59,-254.69 1113.53,-249.01 1103,-247.87 1104.59,-254.69"/>
</g>
<!-- Node30 -->
<g id="node30" class="node">
<title>Node30</title>
<g id="a_node30"><a xlink:href="RotationRaw_8h.html" target="_top" xlink:title=" ">
<polygon fill="none" stroke="black" points="816,-230 816,-249 974,-249 974,-230 816,-230"/>
<text text-anchor="middle" x="895" y="-237" font-family="FreeSans.ttf" font-size="10.00">iDynTree/Core/RotationRaw.h</text>
</a>
</g>
</g>
<!-- Node28&#45;&gt;Node30 -->
<g id="edge48" class="edge">
<title>Node28&#45;&gt;Node30</title>
<path fill="none" stroke="midnightblue" d="M895,-291.48C895,-283.08 895,-269.98 895,-259.16"/>
<polygon fill="midnightblue" stroke="midnightblue" points="898.5,-259.01 895,-249.01 891.5,-259.01 898.5,-259.01"/>
</g>
<!-- Node29&#45;&gt;Node4 -->
<g id="edge47" class="edge">
<title>Node29&#45;&gt;Node4</title>
<path fill="none" stroke="midnightblue" d="M1134.24,-229.98C1116.02,-220.12 1085.83,-203.79 1064.53,-192.27"/>
<polygon fill="midnightblue" stroke="midnightblue" points="1066.19,-189.19 1055.73,-187.51 1062.86,-195.35 1066.19,-189.19"/>
</g>
<!-- Node30&#45;&gt;Node2 -->
<g id="edge57" class="edge">
<title>Node30&#45;&gt;Node2</title>
<path fill="none" stroke="midnightblue" d="M851.5,-229.96C813.14,-221.67 756.16,-207.48 709,-188 674.91,-173.92 638.35,-151.66 616.08,-137.19"/>
<polygon fill="midnightblue" stroke="midnightblue" points="617.73,-134.09 607.45,-131.51 613.88,-139.94 617.73,-134.09"/>
</g>
<!-- Node30&#45;&gt;Node31 -->
<g id="edge49" class="edge">
<title>Node30&#45;&gt;Node31</title>
<path fill="none" stroke="midnightblue" d="M881.39,-229.98C865.94,-220.3 840.51,-204.37 822.18,-192.89"/>
<polygon fill="midnightblue" stroke="midnightblue" points="823.92,-189.85 813.59,-187.51 820.2,-195.78 823.92,-189.85"/>
</g>
<!-- Node31&#45;&gt;Node2 -->
<g id="edge54" class="edge">
<title>Node31&#45;&gt;Node2</title>
<path fill="none" stroke="midnightblue" d="M767.52,-168.44C729.13,-158.33 665.64,-141.61 627.32,-131.51"/>
<polygon fill="midnightblue" stroke="midnightblue" points="627.78,-128.02 617.22,-128.85 626,-134.79 627.78,-128.02"/>
</g>
<!-- Node31&#45;&gt;Node5 -->
<g id="edge50" class="edge">
<title>Node31&#45;&gt;Node5</title>
<path fill="none" stroke="midnightblue" d="M788.16,-168.37C771.61,-155.29 745.25,-130.05 761,-112 777.78,-92.77 928.82,-78.61 1020.31,-71.71"/>
<polygon fill="midnightblue" stroke="midnightblue" points="1020.62,-75.19 1030.34,-70.96 1020.1,-68.21 1020.62,-75.19"/>
</g>
<!-- Node31&#45;&gt;Node9 -->
<g id="edge52" class="edge">
<title>Node31&#45;&gt;Node9</title>
<path fill="none" stroke="midnightblue" d="M785.92,-168.26C774.65,-160.35 759.65,-147.58 753,-132 738.5,-98.04 748.53,-53.9 756.3,-29.41"/>
<polygon fill="midnightblue" stroke="midnightblue" points="759.72,-30.25 759.62,-19.65 753.09,-27.99 759.72,-30.25"/>
</g>
<!-- Node31&#45;&gt;Node17 -->
<g id="edge56" class="edge">
<title>Node31&#45;&gt;Node17</title>
<path fill="none" stroke="midnightblue" d="M846.9,-168.44C905.25,-157.8 1003.76,-139.83 1057.76,-129.98"/>
<polygon fill="midnightblue" stroke="midnightblue" points="1058.41,-133.42 1067.62,-128.18 1057.16,-126.53 1058.41,-133.42"/>
</g>
<!-- Node31&#45;&gt;Node18 -->
<g id="edge53" class="edge">
<title>Node31&#45;&gt;Node18</title>
<path fill="none" stroke="midnightblue" d="M811.73,-168.32C822.84,-160.11 839.74,-147.6 852.98,-137.81"/>
<polygon fill="midnightblue" stroke="midnightblue" points="855.1,-140.59 861.06,-131.83 850.94,-134.97 855.1,-140.59"/>
</g>
<!-- Node31&#45;&gt;Node20 -->
<g id="edge51" class="edge">
<title>Node31&#45;&gt;Node20</title>
<path fill="none" stroke="midnightblue" d="M743.12,-168.44C679.18,-158.83 575.48,-143.23 507.75,-133.04"/>
<polygon fill="midnightblue" stroke="midnightblue" points="508.03,-129.54 497.62,-131.52 506.99,-136.47 508.03,-129.54"/>
</g>
<!-- Node32 -->
<g id="node32" class="node">
<title>Node32</title>
<g id="a_node32"><a xlink:title=" ">
<polygon fill="none" stroke="#bfbfbf" points="770,-112.5 770,-131.5 830,-131.5 830,-112.5 770,-112.5"/>
<text text-anchor="middle" x="800" y="-119.5" font-family="FreeSans.ttf" font-size="10.00">iostream</text>
</a>
</g>
</g>
<!-- Node31&#45;&gt;Node32 -->
<g id="edge55" class="edge">
<title>Node31&#45;&gt;Node32</title>
<path fill="none" stroke="midnightblue" d="M800,-168.08C800,-161.01 800,-150.86 800,-141.99"/>
<polygon fill="midnightblue" stroke="midnightblue" points="803.5,-141.75 800,-131.75 796.5,-141.75 803.5,-141.75"/>
</g>
<!-- Node34 -->
<g id="node34" class="node">
<title>Node34</title>
<g id="a_node34"><a xlink:href="SpatialMotionVector_8h.html" target="_top" xlink:title=" ">
<polygon fill="none" stroke="black" points="1095.5,-459.5 1095.5,-489.5 1250.5,-489.5 1250.5,-459.5 1095.5,-459.5"/>
<text text-anchor="start" x="1103.5" y="-477.5" font-family="FreeSans.ttf" font-size="10.00">iDynTree/Core/SpatialMotion</text>
<text text-anchor="middle" x="1173" y="-466.5" font-family="FreeSans.ttf" font-size="10.00">Vector.h</text>
</a>
</g>
</g>
<!-- Node33&#45;&gt;Node34 -->
<g id="edge64" class="edge">
<title>Node33&#45;&gt;Node34</title>
<path fill="none" stroke="midnightblue" d="M969.1,-526.48C1004.95,-517.51 1062.25,-503.19 1106.99,-492"/>
<polygon fill="midnightblue" stroke="midnightblue" points="1108.06,-495.34 1116.91,-489.52 1106.36,-488.55 1108.06,-495.34"/>
</g>
<!-- Node34&#45;&gt;Node4 -->
<g id="edge65" class="edge">
<title>Node34&#45;&gt;Node4</title>
<path fill="none" stroke="midnightblue" d="M1207.49,-459.38C1244.49,-441.66 1298,-407.49 1298,-358 1298,-358 1298,-358 1298,-300 1298,-264.58 1300.46,-247.55 1274,-224 1252.87,-205.19 1187.51,-193.63 1131.22,-186.95"/>
<polygon fill="midnightblue" stroke="midnightblue" points="1131.53,-183.46 1121.19,-185.8 1130.73,-190.41 1131.53,-183.46"/>
</g>
<!-- Node34&#45;&gt;Node29 -->
<g id="edge66" class="edge">
<title>Node34&#45;&gt;Node29</title>
<path fill="none" stroke="midnightblue" d="M1201.91,-459.45C1215.85,-450.99 1231.2,-438.78 1239,-423 1242.94,-415.03 1241.2,-411.61 1239,-403 1224.18,-345.08 1183.96,-285.6 1163.04,-257.36"/>
<polygon fill="midnightblue" stroke="midnightblue" points="1165.8,-255.2 1156.98,-249.33 1160.21,-259.42 1165.8,-255.2"/>
</g>
<!-- Node35 -->
<g id="node35" class="node">
<title>Node35</title>
<g id="a_node35"><a xlink:href="SpatialVector_8h.html" target="_top" xlink:title=" ">
<polygon fill="none" stroke="black" points="1069.5,-403.5 1069.5,-422.5 1230.5,-422.5 1230.5,-403.5 1069.5,-403.5"/>
<text text-anchor="middle" x="1150" y="-410.5" font-family="FreeSans.ttf" font-size="10.00">iDynTree/Core/SpatialVector.h</text>
</a>
</g>
</g>
<!-- Node34&#45;&gt;Node35 -->
<g id="edge67" class="edge">
<title>Node34&#45;&gt;Node35</title>
<path fill="none" stroke="midnightblue" d="M1167.55,-459.4C1164.38,-451.2 1160.35,-440.78 1156.96,-431.99"/>
<polygon fill="midnightblue" stroke="midnightblue" points="1160.22,-430.72 1153.35,-422.66 1153.69,-433.25 1160.22,-430.72"/>
</g>
<!-- Node35&#45;&gt;Node5 -->
<g id="edge70" class="edge">
<title>Node35&#45;&gt;Node5</title>
<path fill="none" stroke="midnightblue" d="M1230.75,-410.67C1307.73,-404.6 1412,-381.67 1412,-302 1412,-302 1412,-302 1412,-177 1412,-124.13 1254.61,-91.42 1159.9,-76.52"/>
<polygon fill="midnightblue" stroke="midnightblue" points="1160.23,-73.03 1149.81,-74.97 1159.16,-79.95 1160.23,-73.03"/>
</g>
<!-- Node35&#45;&gt;Node17 -->
<g id="edge73" class="edge">
<title>Node35&#45;&gt;Node17</title>
<path fill="none" stroke="midnightblue" d="M1230.55,-404.95C1294.77,-394.37 1374,-367.96 1374,-302 1374,-302 1374,-302 1374,-238.5 1374,-135.92 1210.59,-122.74 1134.34,-122.18"/>
<polygon fill="midnightblue" stroke="midnightblue" points="1134.19,-118.68 1124.19,-122.17 1134.18,-125.68 1134.19,-118.68"/>
</g>
<!-- Node35&#45;&gt;Node26 -->
<g id="edge68" class="edge">
<title>Node35&#45;&gt;Node26</title>
<path fill="none" stroke="midnightblue" d="M1076.1,-403.47C990,-393.54 848.35,-377.19 760.38,-367.04"/>
<polygon fill="midnightblue" stroke="midnightblue" points="760.52,-363.54 750.19,-365.87 759.72,-370.49 760.52,-363.54"/>
</g>
<!-- Node35&#45;&gt;Node28 -->
<g id="edge69" class="edge">
<title>Node35&#45;&gt;Node28</title>
<path fill="none" stroke="midnightblue" d="M1129.99,-403.37C1085.21,-384.05 976.74,-337.26 924.32,-314.65"/>
<polygon fill="midnightblue" stroke="midnightblue" points="925.48,-311.34 914.92,-310.59 922.71,-317.77 925.48,-311.34"/>
</g>
<!-- Node35&#45;&gt;Node29 -->
<g id="edge71" class="edge">
<title>Node35&#45;&gt;Node29</title>
<path fill="none" stroke="midnightblue" d="M1150,-403.26C1150,-376.65 1150,-296.21 1150,-259.34"/>
<polygon fill="midnightblue" stroke="midnightblue" points="1153.5,-259.02 1150,-249.02 1146.5,-259.02 1153.5,-259.02"/>
</g>
<!-- Node35&#45;&gt;Node32 -->
<g id="edge72" class="edge">
<title>Node35&#45;&gt;Node32</title>
<path fill="none" stroke="midnightblue" d="M1160.61,-403.17C1193.93,-374.41 1291.27,-282.03 1240,-224 1197,-175.33 1012.65,-205.08 950,-188 904,-175.46 853.77,-151.38 824.68,-136.31"/>
<polygon fill="midnightblue" stroke="midnightblue" points="826.14,-133.13 815.66,-131.58 822.88,-139.32 826.14,-133.13"/>
</g>
<!-- Node36&#45;&gt;Node34 -->
<g id="edge75" class="edge">
<title>Node36&#45;&gt;Node34</title>
<path fill="none" stroke="midnightblue" d="M1123.31,-526.48C1130.8,-518.79 1142.13,-507.17 1152.08,-496.96"/>
<polygon fill="midnightblue" stroke="midnightblue" points="1154.86,-499.13 1159.33,-489.52 1149.84,-494.24 1154.86,-499.13"/>
</g>
<!-- Node38 -->
<g id="node38" class="node">
<title>Node38</title>
<g id="a_node38"><a xlink:href="SpatialForceVector_8h.html" target="_top" xlink:title=" ">
<polygon fill="none" stroke="black" points="929,-459.5 929,-489.5 1077,-489.5 1077,-459.5 929,-459.5"/>
<text text-anchor="start" x="937" y="-477.5" font-family="FreeSans.ttf" font-size="10.00">iDynTree/Core/SpatialForce</text>
<text text-anchor="middle" x="1003" y="-466.5" font-family="FreeSans.ttf" font-size="10.00">Vector.h</text>
</a>
</g>
</g>
<!-- Node37&#45;&gt;Node38 -->
<g id="edge77" class="edge">
<title>Node37&#45;&gt;Node38</title>
<path fill="none" stroke="midnightblue" d="M773.4,-526.48C814.1,-517.44 879.37,-502.95 929.93,-491.72"/>
<polygon fill="midnightblue" stroke="midnightblue" points="930.83,-495.11 939.84,-489.52 929.32,-488.27 930.83,-495.11"/>
</g>
<!-- Node38&#45;&gt;Node4 -->
<g id="edge78" class="edge">
<title>Node38&#45;&gt;Node4</title>
<path fill="none" stroke="midnightblue" d="M1004.78,-459.3C1010.88,-410.81 1030.85,-251.85 1037.68,-197.45"/>
<polygon fill="midnightblue" stroke="midnightblue" points="1041.16,-197.86 1038.93,-187.51 1034.21,-196.99 1041.16,-197.86"/>
</g>
<!-- Node38&#45;&gt;Node29 -->
<g id="edge79" class="edge">
<title>Node38&#45;&gt;Node29</title>
<path fill="none" stroke="midnightblue" d="M1011.97,-459.28C1037.64,-418.59 1111.3,-301.83 1139.16,-257.69"/>
<polygon fill="midnightblue" stroke="midnightblue" points="1142.13,-259.53 1144.51,-249.2 1136.21,-255.79 1142.13,-259.53"/>
</g>
<!-- Node38&#45;&gt;Node35 -->
<g id="edge80" class="edge">
<title>Node38&#45;&gt;Node35</title>
<path fill="none" stroke="midnightblue" d="M1037.84,-459.4C1062.5,-449.42 1095.29,-436.15 1119.03,-426.53"/>
<polygon fill="midnightblue" stroke="midnightblue" points="1120.65,-429.65 1128.61,-422.66 1118.03,-423.17 1120.65,-429.65"/>
</g>
<!-- Node39&#45;&gt;Node2 -->
<g id="edge83" class="edge">
<title>Node39&#45;&gt;Node2</title>
<path fill="none" stroke="midnightblue" d="M415.31,-224.29C431.42,-208.89 458.9,-184.32 486,-168 510.49,-153.26 540.69,-141.21 563.08,-133.3"/>
<polygon fill="midnightblue" stroke="midnightblue" points="564.46,-136.53 572.78,-129.97 562.18,-129.91 564.46,-136.53"/>
</g>
<!-- Node39&#45;&gt;Node31 -->
<g id="edge82" class="edge">
<title>Node39&#45;&gt;Node31</title>
<path fill="none" stroke="midnightblue" d="M471.87,-227.93C545.66,-216.93 660.38,-199.82 732.78,-189.02"/>
<polygon fill="midnightblue" stroke="midnightblue" points="733.33,-192.48 742.7,-187.54 732.3,-185.56 733.33,-192.48"/>
</g>
</g>
</svg>
