<?xml version="1.0" encoding="UTF-8" standalone="no"?>
<!DOCTYPE svg PUBLIC "-//W3C//DTD SVG 1.1//EN"
 "http://www.w3.org/Graphics/SVG/1.1/DTD/svg11.dtd">
<!-- Generated by graphviz version 2.43.0 (0)
 -->
<!-- Title: L2NormCost.cpp Pages: 1 -->
<svg width="1870pt" height="599pt"
 viewBox="0.00 0.00 1869.51 599.00" xmlns="http://www.w3.org/2000/svg" xmlns:xlink="http://www.w3.org/1999/xlink">
<g id="graph0" class="graph" transform="scale(1 1) rotate(0) translate(4 595)">
<title>L2NormCost.cpp</title>
<!-- Node1 -->
<g id="node1" class="node">
<title>Node1</title>
<g id="a_node1"><a xlink:title=" ">
<polygon fill="#bfbfbf" stroke="black" points="326.5,-571.5 326.5,-590.5 423.5,-590.5 423.5,-571.5 326.5,-571.5"/>
<text text-anchor="middle" x="375" y="-578.5" font-family="FreeSans.ttf" font-size="10.00">L2NormCost.cpp</text>
</a>
</g>
</g>
<!-- Node2 -->
<g id="node2" class="node">
<title>Node2</title>
<g id="a_node2"><a xlink:href="L2NormCost_8h.html" target="_top" xlink:title=" ">
<polygon fill="none" stroke="black" points="495.5,-515.5 495.5,-534.5 626.5,-534.5 626.5,-515.5 495.5,-515.5"/>
<text text-anchor="middle" x="561" y="-522.5" font-family="FreeSans.ttf" font-size="10.00">iDynTree/L2NormCost.h</text>
</a>
</g>
</g>
<!-- Node1&#45;&gt;Node2 -->
<g id="edge1" class="edge">
<title>Node1&#45;&gt;Node2</title>
<path fill="none" stroke="midnightblue" d="M404.47,-571.44C436.17,-562.24 486.73,-547.56 521.77,-537.39"/>
<polygon fill="midnightblue" stroke="midnightblue" points="523.04,-540.67 531.67,-534.52 521.09,-533.94 523.04,-540.67"/>
</g>
<!-- Node6 -->
<g id="node6" class="node">
<title>Node6</title>
<g id="a_node6"><a xlink:href="Utils_8h.html" target="_top" xlink:title=" ">
<polygon fill="none" stroke="black" points="1153.5,-56.5 1153.5,-75.5 1272.5,-75.5 1272.5,-56.5 1153.5,-56.5"/>
<text text-anchor="middle" x="1213" y="-63.5" font-family="FreeSans.ttf" font-size="10.00">iDynTree/Core/Utils.h</text>
</a>
</g>
</g>
<!-- Node1&#45;&gt;Node6 -->
<g id="edge68" class="edge">
<title>Node1&#45;&gt;Node6</title>
<path fill="none" stroke="midnightblue" d="M423.56,-579.29C616.78,-576.28 1331.45,-563.42 1556,-535 1672.41,-520.26 1740.35,-570.35 1814,-479 1922.15,-344.86 1830.2,-210.76 1689,-112 1656.5,-89.27 1407.21,-75.4 1282.95,-69.83"/>
<polygon fill="midnightblue" stroke="midnightblue" points="1282.92,-66.32 1272.77,-69.38 1282.61,-73.31 1282.92,-66.32"/>
</g>
<!-- Node12 -->
<g id="node12" class="node">
<title>Node12</title>
<g id="a_node12"><a xlink:href="VectorDynSize_8h.html" target="_top" xlink:title=" ">
<polygon fill="none" stroke="black" points="216.5,-392.5 216.5,-411.5 383.5,-411.5 383.5,-392.5 216.5,-392.5"/>
<text text-anchor="middle" x="300" y="-399.5" font-family="FreeSans.ttf" font-size="10.00">iDynTree/Core/VectorDynSize.h</text>
</a>
</g>
</g>
<!-- Node1&#45;&gt;Node12 -->
<g id="edge67" class="edge">
<title>Node1&#45;&gt;Node12</title>
<path fill="none" stroke="midnightblue" d="M326.44,-576.02C298.86,-570.99 266.46,-559.78 249,-535 226.73,-503.39 233.1,-483.24 249,-448 254.62,-435.56 265.56,-425.17 275.88,-417.53"/>
<polygon fill="midnightblue" stroke="midnightblue" points="278.01,-420.31 284.27,-411.76 274.04,-414.54 278.01,-420.31"/>
</g>
<!-- Node13 -->
<g id="node13" class="node">
<title>Node13</title>
<g id="a_node13"><a xlink:href="Span_8h.html" target="_top" xlink:title=" ">
<polygon fill="none" stroke="black" points="172.5,-56.5 172.5,-75.5 293.5,-75.5 293.5,-56.5 172.5,-56.5"/>
<text text-anchor="middle" x="233" y="-63.5" font-family="FreeSans.ttf" font-size="10.00">iDynTree/Core/Span.h</text>
</a>
</g>
</g>
<!-- Node1&#45;&gt;Node13 -->
<g id="edge69" class="edge">
<title>Node1&#45;&gt;Node13</title>
<path fill="none" stroke="midnightblue" d="M326.36,-574.67C274.02,-568 195.27,-554.97 173,-535 148.36,-512.9 149,-497.6 149,-464.5 149,-464.5 149,-464.5 149,-177 149,-135.73 186.81,-100.32 211.69,-81.49"/>
<polygon fill="midnightblue" stroke="midnightblue" points="213.85,-84.25 219.88,-75.54 209.73,-78.59 213.85,-84.25"/>
</g>
<!-- Node14 -->
<g id="node14" class="node">
<title>Node14</title>
<g id="a_node14"><a xlink:title=" ">
<polygon fill="none" stroke="#bfbfbf" points="556,-0.5 556,-19.5 608,-19.5 608,-0.5 556,-0.5"/>
<text text-anchor="middle" x="582" y="-7.5" font-family="FreeSans.ttf" font-size="10.00">cassert</text>
</a>
</g>
</g>
<!-- Node1&#45;&gt;Node14 -->
<g id="edge70" class="edge">
<title>Node1&#45;&gt;Node14</title>
<path fill="none" stroke="midnightblue" d="M326.1,-571.81C270.39,-559.36 187,-529.81 187,-464.5 187,-464.5 187,-464.5 187,-289 187,-198.21 218.97,-169.79 289,-112 329.26,-78.77 476.82,-37.89 545.89,-20.05"/>
<polygon fill="midnightblue" stroke="midnightblue" points="547.07,-23.36 555.88,-17.48 545.33,-16.58 547.07,-23.36"/>
</g>
<!-- Node22 -->
<g id="node22" class="node">
<title>Node22</title>
<g id="a_node22"><a xlink:href="MatrixDynSize_8h.html" target="_top" xlink:title=" ">
<polygon fill="none" stroke="black" points="401,-392.5 401,-411.5 569,-411.5 569,-392.5 401,-392.5"/>
<text text-anchor="middle" x="485" y="-399.5" font-family="FreeSans.ttf" font-size="10.00">iDynTree/Core/MatrixDynSize.h</text>
</a>
</g>
</g>
<!-- Node1&#45;&gt;Node22 -->
<g id="edge66" class="edge">
<title>Node1&#45;&gt;Node22</title>
<path fill="none" stroke="midnightblue" d="M360.62,-571.39C326.51,-549.94 246.2,-492.6 282,-448 296.1,-430.43 344.73,-419.29 390.85,-412.49"/>
<polygon fill="midnightblue" stroke="midnightblue" points="391.53,-415.93 400.95,-411.07 390.55,-409 391.53,-415.93"/>
</g>
<!-- Node36 -->
<g id="node36" class="node">
<title>Node36</title>
<g id="a_node36"><a xlink:title=" ">
<polygon fill="none" stroke="#bfbfbf" points="1727.5,-454 1727.5,-473 1804.5,-473 1804.5,-454 1727.5,-454"/>
<text text-anchor="middle" x="1766" y="-461" font-family="FreeSans.ttf" font-size="10.00">Eigen/Dense</text>
</a>
</g>
</g>
<!-- Node1&#45;&gt;Node36 -->
<g id="edge71" class="edge">
<title>Node1&#45;&gt;Node36</title>
<path fill="none" stroke="midnightblue" d="M423.79,-579.38C610.7,-576.81 1281.21,-565.61 1492,-535 1579.27,-522.33 1678.89,-492.76 1730.62,-476.22"/>
<polygon fill="midnightblue" stroke="midnightblue" points="1731.87,-479.5 1740.31,-473.1 1729.72,-472.83 1731.87,-479.5"/>
</g>
<!-- Node37 -->
<g id="node37" class="node">
<title>Node37</title>
<g id="a_node37"><a xlink:href="EigenHelpers_8h.html" target="_top" xlink:title=" ">
<polygon fill="none" stroke="black" points="1322.5,-515.5 1322.5,-534.5 1483.5,-534.5 1483.5,-515.5 1322.5,-515.5"/>
<text text-anchor="middle" x="1403" y="-522.5" font-family="FreeSans.ttf" font-size="10.00">iDynTree/Core/EigenHelpers.h</text>
</a>
</g>
</g>
<!-- Node1&#45;&gt;Node37 -->
<g id="edge72" class="edge">
<title>Node1&#45;&gt;Node37</title>
<path fill="none" stroke="midnightblue" d="M423.55,-577.45C584.39,-569 1101.54,-541.84 1312.31,-530.76"/>
<polygon fill="midnightblue" stroke="midnightblue" points="1312.62,-534.25 1322.42,-530.23 1312.25,-527.26 1312.62,-534.25"/>
</g>
<!-- Node3 -->
<g id="node3" class="node">
<title>Node3</title>
<g id="a_node3"><a xlink:href="Cost_8h.html" target="_top" xlink:title=" ">
<polygon fill="none" stroke="black" points="505.5,-224.5 505.5,-243.5 598.5,-243.5 598.5,-224.5 505.5,-224.5"/>
<text text-anchor="middle" x="552" y="-231.5" font-family="FreeSans.ttf" font-size="10.00">iDynTree/Cost.h</text>
</a>
</g>
</g>
<!-- Node2&#45;&gt;Node3 -->
<g id="edge2" class="edge">
<title>Node2&#45;&gt;Node3</title>
<path fill="none" stroke="midnightblue" d="M565.37,-515.31C569.56,-506.44 575.6,-492.14 578,-479 593.21,-395.7 569.12,-294.65 557.6,-253.64"/>
<polygon fill="midnightblue" stroke="midnightblue" points="560.93,-252.56 554.78,-243.93 554.21,-254.51 560.93,-252.56"/>
</g>
<!-- Node4 -->
<g id="node4" class="node">
<title>Node4</title>
<g id="a_node4"><a xlink:title=" ">
<polygon fill="none" stroke="#bfbfbf" points="762,-112.5 762,-131.5 806,-131.5 806,-112.5 762,-112.5"/>
<text text-anchor="middle" x="784" y="-119.5" font-family="FreeSans.ttf" font-size="10.00">string</text>
</a>
</g>
</g>
<!-- Node2&#45;&gt;Node4 -->
<g id="edge65" class="edge">
<title>Node2&#45;&gt;Node4</title>
<path fill="none" stroke="midnightblue" d="M569.16,-515.46C576.83,-506.92 587.99,-493.08 594,-479 627.29,-400.97 627,-375.83 627,-291 627,-291 627,-291 627,-233 627,-196 649.56,-190.4 679,-168 701.04,-151.23 730.27,-139.37 752.29,-132.05"/>
<polygon fill="midnightblue" stroke="midnightblue" points="753.38,-135.37 761.85,-129 751.26,-128.7 753.38,-135.37"/>
</g>
<!-- Node2&#45;&gt;Node6 -->
<g id="edge63" class="edge">
<title>Node2&#45;&gt;Node6</title>
<path fill="none" stroke="midnightblue" d="M626.5,-524.17C825.56,-524.23 1414.32,-520.82 1489,-479 1603,-415.16 1653,-365.66 1653,-235 1653,-235 1653,-235 1653,-177 1653,-101.66 1407.12,-77.49 1282.97,-70.09"/>
<polygon fill="midnightblue" stroke="midnightblue" points="1282.98,-66.58 1272.8,-69.5 1282.58,-73.57 1282.98,-66.58"/>
</g>
<!-- Node11 -->
<g id="node11" class="node">
<title>Node11</title>
<g id="a_node11"><a xlink:href="TimeVaryingObject_8h.html" target="_top" xlink:title=" ">
<polygon fill="none" stroke="black" points="405,-454 405,-473 569,-473 569,-454 405,-454"/>
<text text-anchor="middle" x="487" y="-461" font-family="FreeSans.ttf" font-size="10.00">iDynTree/TimeVaryingObject.h</text>
</a>
</g>
</g>
<!-- Node2&#45;&gt;Node11 -->
<g id="edge12" class="edge">
<title>Node2&#45;&gt;Node11</title>
<path fill="none" stroke="midnightblue" d="M550.4,-515.48C538.75,-506.11 519.81,-490.88 505.67,-479.51"/>
<polygon fill="midnightblue" stroke="midnightblue" points="507.57,-476.55 497.58,-473.01 503.18,-482 507.57,-476.55"/>
</g>
<!-- Node35 -->
<g id="node35" class="node">
<title>Node35</title>
<g id="a_node35"><a xlink:title=" ">
<polygon fill="none" stroke="#bfbfbf" points="291,-454 291,-473 349,-473 349,-454 291,-454"/>
<text text-anchor="middle" x="320" y="-461" font-family="FreeSans.ttf" font-size="10.00">memory</text>
</a>
</g>
</g>
<!-- Node2&#45;&gt;Node35 -->
<g id="edge64" class="edge">
<title>Node2&#45;&gt;Node35</title>
<path fill="none" stroke="midnightblue" d="M517.42,-515.43C477.09,-507.18 415.6,-493.8 363,-479 359.99,-478.15 356.88,-477.22 353.77,-476.25"/>
<polygon fill="midnightblue" stroke="midnightblue" points="354.56,-472.83 343.97,-473.06 352.4,-479.48 354.56,-472.83"/>
</g>
<!-- Node3&#45;&gt;Node4 -->
<g id="edge3" class="edge">
<title>Node3&#45;&gt;Node4</title>
<path fill="none" stroke="midnightblue" d="M557.64,-224.38C567.27,-210.37 588.27,-182.73 613,-168 616.04,-166.19 703.41,-143.64 752.05,-131.17"/>
<polygon fill="midnightblue" stroke="midnightblue" points="752.98,-134.54 761.8,-128.67 751.25,-127.76 752.98,-134.54"/>
</g>
<!-- Node5 -->
<g id="node5" class="node">
<title>Node5</title>
<g id="a_node5"><a xlink:href="SparsityStructure_8h.html" target="_top" xlink:title=" ">
<polygon fill="none" stroke="black" points="329.5,-168.5 329.5,-187.5 484.5,-187.5 484.5,-168.5 329.5,-168.5"/>
<text text-anchor="middle" x="407" y="-175.5" font-family="FreeSans.ttf" font-size="10.00">iDynTree/SparsityStructure.h</text>
</a>
</g>
</g>
<!-- Node3&#45;&gt;Node5 -->
<g id="edge4" class="edge">
<title>Node3&#45;&gt;Node5</title>
<path fill="none" stroke="midnightblue" d="M529.02,-224.44C504.84,-215.44 466.58,-201.19 439.35,-191.05"/>
<polygon fill="midnightblue" stroke="midnightblue" points="440.46,-187.73 429.87,-187.52 438.02,-194.29 440.46,-187.73"/>
</g>
<!-- Node5&#45;&gt;Node4 -->
<g id="edge11" class="edge">
<title>Node5&#45;&gt;Node4</title>
<path fill="none" stroke="midnightblue" d="M484.6,-169.3C553.97,-161.82 658.25,-149.08 748,-132 749.25,-131.76 750.51,-131.51 751.79,-131.24"/>
<polygon fill="midnightblue" stroke="midnightblue" points="752.64,-134.64 761.62,-129.01 751.09,-127.81 752.64,-134.64"/>
</g>
<!-- Node5&#45;&gt;Node6 -->
<g id="edge5" class="edge">
<title>Node5&#45;&gt;Node6</title>
<path fill="none" stroke="midnightblue" d="M481.13,-168.47C556.65,-159.34 668.42,-144.47 710,-132 730.19,-125.94 732.67,-117.55 753,-112 887.73,-75.23 1051.88,-67.66 1143.17,-66.58"/>
<polygon fill="midnightblue" stroke="midnightblue" points="1143.43,-70.08 1153.4,-66.48 1143.36,-63.08 1143.43,-70.08"/>
</g>
<!-- Node7 -->
<g id="node7" class="node">
<title>Node7</title>
<g id="a_node7"><a xlink:title=" ">
<polygon fill="none" stroke="#bfbfbf" points="921.5,-0.5 921.5,-19.5 974.5,-19.5 974.5,-0.5 921.5,-0.5"/>
<text text-anchor="middle" x="948" y="-7.5" font-family="FreeSans.ttf" font-size="10.00">cstddef</text>
</a>
</g>
</g>
<!-- Node5&#45;&gt;Node7 -->
<g id="edge9" class="edge">
<title>Node5&#45;&gt;Node7</title>
<path fill="none" stroke="midnightblue" d="M484.77,-168.99C537.11,-162.28 607.22,-150.71 667,-132 687.11,-125.7 690.74,-120.56 710,-112 784.32,-78.96 872.67,-42.09 917.96,-23.37"/>
<polygon fill="midnightblue" stroke="midnightblue" points="919.3,-26.6 927.2,-19.55 916.63,-20.13 919.3,-26.6"/>
</g>
<!-- Node9 -->
<g id="node9" class="node">
<title>Node9</title>
<g id="a_node9"><a xlink:title=" ">
<polygon fill="none" stroke="#bfbfbf" points="298.5,-112.5 298.5,-131.5 345.5,-131.5 345.5,-112.5 298.5,-112.5"/>
<text text-anchor="middle" x="322" y="-119.5" font-family="FreeSans.ttf" font-size="10.00">vector</text>
</a>
</g>
</g>
<!-- Node5&#45;&gt;Node9 -->
<g id="edge8" class="edge">
<title>Node5&#45;&gt;Node9</title>
<path fill="none" stroke="midnightblue" d="M393.34,-168.32C380.08,-159.9 359.73,-146.97 344.15,-137.07"/>
<polygon fill="midnightblue" stroke="midnightblue" points="345.94,-134.06 335.62,-131.65 342.19,-139.97 345.94,-134.06"/>
</g>
<!-- Node10 -->
<g id="node10" class="node">
<title>Node10</title>
<g id="a_node10"><a xlink:title=" ">
<polygon fill="none" stroke="#bfbfbf" points="364,-112.5 364,-131.5 450,-131.5 450,-112.5 364,-112.5"/>
<text text-anchor="middle" x="407" y="-119.5" font-family="FreeSans.ttf" font-size="10.00">unordered_set</text>
</a>
</g>
</g>
<!-- Node5&#45;&gt;Node10 -->
<g id="edge10" class="edge">
<title>Node5&#45;&gt;Node10</title>
<path fill="none" stroke="midnightblue" d="M407,-168.08C407,-161.01 407,-150.86 407,-141.99"/>
<polygon fill="midnightblue" stroke="midnightblue" points="410.5,-141.75 407,-131.75 403.5,-141.75 410.5,-141.75"/>
</g>
<!-- Node6&#45;&gt;Node7 -->
<g id="edge6" class="edge">
<title>Node6&#45;&gt;Node7</title>
<path fill="none" stroke="midnightblue" d="M1171.01,-56.44C1119.64,-45.98 1033.51,-28.43 984.69,-18.48"/>
<polygon fill="midnightblue" stroke="midnightblue" points="985.36,-15.04 974.86,-16.47 983.96,-21.9 985.36,-15.04"/>
</g>
<!-- Node8 -->
<g id="node8" class="node">
<title>Node8</title>
<g id="a_node8"><a xlink:title=" ">
<polygon fill="none" stroke="#bfbfbf" points="1173,-0.5 1173,-19.5 1253,-19.5 1253,-0.5 1173,-0.5"/>
<text text-anchor="middle" x="1213" y="-7.5" font-family="FreeSans.ttf" font-size="10.00">CoreExport.h</text>
</a>
</g>
</g>
<!-- Node6&#45;&gt;Node8 -->
<g id="edge7" class="edge">
<title>Node6&#45;&gt;Node8</title>
<path fill="none" stroke="midnightblue" d="M1213,-56.08C1213,-49.01 1213,-38.86 1213,-29.99"/>
<polygon fill="midnightblue" stroke="midnightblue" points="1216.5,-29.75 1213,-19.75 1209.5,-29.75 1216.5,-29.75"/>
</g>
<!-- Node11&#45;&gt;Node12 -->
<g id="edge13" class="edge">
<title>Node11&#45;&gt;Node12</title>
<path fill="none" stroke="midnightblue" d="M460.21,-453.98C427.71,-443.64 372.79,-426.16 336.46,-414.6"/>
<polygon fill="midnightblue" stroke="midnightblue" points="337.33,-411.21 326.74,-411.51 335.21,-417.88 337.33,-411.21"/>
</g>
<!-- Node11&#45;&gt;Node22 -->
<g id="edge25" class="edge">
<title>Node11&#45;&gt;Node22</title>
<path fill="none" stroke="midnightblue" d="M486.71,-453.98C486.43,-445.58 485.99,-432.48 485.63,-421.66"/>
<polygon fill="midnightblue" stroke="midnightblue" points="489.12,-421.39 485.29,-411.51 482.12,-421.62 489.12,-421.39"/>
</g>
<!-- Node24 -->
<g id="node24" class="node">
<title>Node24</title>
<g id="a_node24"><a xlink:href="Transform_8h.html" target="_top" xlink:title=" ">
<polygon fill="none" stroke="black" points="901,-392.5 901,-411.5 1047,-411.5 1047,-392.5 901,-392.5"/>
<text text-anchor="middle" x="974" y="-399.5" font-family="FreeSans.ttf" font-size="10.00">iDynTree/Core/Transform.h</text>
</a>
</g>
</g>
<!-- Node11&#45;&gt;Node24 -->
<g id="edge32" class="edge">
<title>Node11&#45;&gt;Node24</title>
<path fill="none" stroke="midnightblue" d="M556.78,-453.98C646.1,-443.06 800.5,-424.2 894.34,-412.73"/>
<polygon fill="midnightblue" stroke="midnightblue" points="894.85,-416.2 904.35,-411.51 894,-409.25 894.85,-416.2"/>
</g>
<!-- Node12&#45;&gt;Node4 -->
<g id="edge24" class="edge">
<title>Node12&#45;&gt;Node4</title>
<path fill="none" stroke="midnightblue" d="M305.43,-392.37C327.92,-357.45 417.77,-225.8 529,-168 615.75,-122.92 650.16,-151.28 746,-132 747.94,-131.61 749.94,-131.19 751.95,-130.75"/>
<polygon fill="midnightblue" stroke="midnightblue" points="752.97,-134.11 761.95,-128.49 751.43,-127.28 752.97,-134.11"/>
</g>
<!-- Node12&#45;&gt;Node13 -->
<g id="edge14" class="edge">
<title>Node12&#45;&gt;Node13</title>
<path fill="none" stroke="midnightblue" d="M288.61,-392.4C267.63,-375.48 225,-335.61 225,-291 225,-291 225,-291 225,-177 225,-144.86 228.44,-107.58 230.81,-85.72"/>
<polygon fill="midnightblue" stroke="midnightblue" points="234.31,-85.87 231.95,-75.54 227.36,-85.09 234.31,-85.87"/>
</g>
<!-- Node13&#45;&gt;Node7 -->
<g id="edge18" class="edge">
<title>Node13&#45;&gt;Node7</title>
<path fill="none" stroke="midnightblue" d="M293.65,-60.42C437.36,-49.57 795.22,-22.54 911.13,-13.78"/>
<polygon fill="midnightblue" stroke="midnightblue" points="911.56,-17.26 921.27,-13.02 911.03,-10.28 911.56,-17.26"/>
</g>
<!-- Node13&#45;&gt;Node14 -->
<g id="edge15" class="edge">
<title>Node13&#45;&gt;Node14</title>
<path fill="none" stroke="midnightblue" d="M292.44,-56.47C352.63,-47.72 448.38,-33.53 531,-20 535.79,-19.22 540.84,-18.36 545.81,-17.5"/>
<polygon fill="midnightblue" stroke="midnightblue" points="546.57,-20.92 555.81,-15.75 545.36,-14.03 546.57,-20.92"/>
</g>
<!-- Node15 -->
<g id="node15" class="node">
<title>Node15</title>
<g id="a_node15"><a xlink:title=" ">
<polygon fill="none" stroke="#bfbfbf" points="209,-0.5 209,-19.5 273,-19.5 273,-0.5 209,-0.5"/>
<text text-anchor="middle" x="241" y="-7.5" font-family="FreeSans.ttf" font-size="10.00">algorithm</text>
</a>
</g>
</g>
<!-- Node13&#45;&gt;Node15 -->
<g id="edge16" class="edge">
<title>Node13&#45;&gt;Node15</title>
<path fill="none" stroke="midnightblue" d="M234.32,-56.08C235.38,-48.93 236.91,-38.64 238.23,-29.69"/>
<polygon fill="midnightblue" stroke="midnightblue" points="241.7,-30.16 239.7,-19.75 234.78,-29.13 241.7,-30.16"/>
</g>
<!-- Node16 -->
<g id="node16" class="node">
<title>Node16</title>
<g id="a_node16"><a xlink:title=" ">
<polygon fill="none" stroke="#bfbfbf" points="291,-0.5 291,-19.5 333,-19.5 333,-0.5 291,-0.5"/>
<text text-anchor="middle" x="312" y="-7.5" font-family="FreeSans.ttf" font-size="10.00">array</text>
</a>
</g>
</g>
<!-- Node13&#45;&gt;Node16 -->
<g id="edge17" class="edge">
<title>Node13&#45;&gt;Node16</title>
<path fill="none" stroke="midnightblue" d="M245.69,-56.32C257.9,-47.98 276.58,-35.21 291,-25.35"/>
<polygon fill="midnightblue" stroke="midnightblue" points="293.06,-28.19 299.34,-19.65 289.11,-22.41 293.06,-28.19"/>
</g>
<!-- Node17 -->
<g id="node17" class="node">
<title>Node17</title>
<g id="a_node17"><a xlink:title=" ">
<polygon fill="none" stroke="#bfbfbf" points="351.5,-0.5 351.5,-19.5 404.5,-19.5 404.5,-0.5 351.5,-0.5"/>
<text text-anchor="middle" x="378" y="-7.5" font-family="FreeSans.ttf" font-size="10.00">iterator</text>
</a>
</g>
</g>
<!-- Node13&#45;&gt;Node17 -->
<g id="edge19" class="edge">
<title>Node13&#45;&gt;Node17</title>
<path fill="none" stroke="midnightblue" d="M255.98,-56.44C280.16,-47.44 318.42,-33.19 345.65,-23.05"/>
<polygon fill="midnightblue" stroke="midnightblue" points="346.98,-26.29 355.13,-19.52 344.54,-19.73 346.98,-26.29"/>
</g>
<!-- Node18 -->
<g id="node18" class="node">
<title>Node18</title>
<g id="a_node18"><a xlink:title=" ">
<polygon fill="none" stroke="#bfbfbf" points="0,-0.5 0,-19.5 44,-19.5 44,-0.5 0,-0.5"/>
<text text-anchor="middle" x="22" y="-7.5" font-family="FreeSans.ttf" font-size="10.00">limits</text>
</a>
</g>
</g>
<!-- Node13&#45;&gt;Node18 -->
<g id="edge20" class="edge">
<title>Node13&#45;&gt;Node18</title>
<path fill="none" stroke="midnightblue" d="M197.04,-56.43C162.69,-48.15 109.24,-35.03 54.24,-20.27"/>
<polygon fill="midnightblue" stroke="midnightblue" points="54.89,-16.82 44.32,-17.59 53.07,-23.57 54.89,-16.82"/>
</g>
<!-- Node19 -->
<g id="node19" class="node">
<title>Node19</title>
<g id="a_node19"><a xlink:title=" ">
<polygon fill="none" stroke="#bfbfbf" points="62.5,-0.5 62.5,-19.5 127.5,-19.5 127.5,-0.5 62.5,-0.5"/>
<text text-anchor="middle" x="95" y="-7.5" font-family="FreeSans.ttf" font-size="10.00">stdexcept</text>
</a>
</g>
</g>
<!-- Node13&#45;&gt;Node19 -->
<g id="edge21" class="edge">
<title>Node13&#45;&gt;Node19</title>
<path fill="none" stroke="midnightblue" d="M211.13,-56.44C188.22,-47.48 152.02,-33.31 126.13,-23.18"/>
<polygon fill="midnightblue" stroke="midnightblue" points="127.35,-19.9 116.76,-19.52 124.8,-26.42 127.35,-19.9"/>
</g>
<!-- Node20 -->
<g id="node20" class="node">
<title>Node20</title>
<g id="a_node20"><a xlink:title=" ">
<polygon fill="none" stroke="#bfbfbf" points="453.5,-0.5 453.5,-19.5 522.5,-19.5 522.5,-0.5 453.5,-0.5"/>
<text text-anchor="middle" x="488" y="-7.5" font-family="FreeSans.ttf" font-size="10.00">type_traits</text>
</a>
</g>
</g>
<!-- Node13&#45;&gt;Node20 -->
<g id="edge22" class="edge">
<title>Node13&#45;&gt;Node20</title>
<path fill="none" stroke="midnightblue" d="M273.41,-56.44C319.69,-46.64 395.3,-30.63 443.31,-20.46"/>
<polygon fill="midnightblue" stroke="midnightblue" points="444.05,-23.88 453.11,-18.39 442.6,-17.04 444.05,-23.88"/>
</g>
<!-- Node21 -->
<g id="node21" class="node">
<title>Node21</title>
<g id="a_node21"><a xlink:title=" ">
<polygon fill="none" stroke="#bfbfbf" points="145.5,-0.5 145.5,-19.5 190.5,-19.5 190.5,-0.5 145.5,-0.5"/>
<text text-anchor="middle" x="168" y="-7.5" font-family="FreeSans.ttf" font-size="10.00">utility</text>
</a>
</g>
</g>
<!-- Node13&#45;&gt;Node21 -->
<g id="edge23" class="edge">
<title>Node13&#45;&gt;Node21</title>
<path fill="none" stroke="midnightblue" d="M222.56,-56.32C212.85,-48.26 198.18,-36.08 186.5,-26.37"/>
<polygon fill="midnightblue" stroke="midnightblue" points="188.56,-23.53 178.63,-19.83 184.09,-28.92 188.56,-23.53"/>
</g>
<!-- Node22&#45;&gt;Node4 -->
<g id="edge26" class="edge">
<title>Node22&#45;&gt;Node4</title>
<path fill="none" stroke="midnightblue" d="M482.99,-392.47C477.14,-365.48 462.53,-280.4 496,-224 519.85,-183.81 541.79,-185.8 585,-168 652.79,-140.07 674.55,-148.45 746,-132 747.93,-131.56 749.92,-131.09 751.92,-130.63"/>
<polygon fill="midnightblue" stroke="midnightblue" points="752.97,-133.98 761.91,-128.28 751.37,-127.16 752.97,-133.98"/>
</g>
<!-- Node23 -->
<g id="node23" class="node">
<title>Node23</title>
<g id="a_node23"><a xlink:href="MatrixView_8h.html" target="_top" xlink:title=" ">
<polygon fill="none" stroke="black" points="506,-112.5 506,-131.5 658,-131.5 658,-112.5 506,-112.5"/>
<text text-anchor="middle" x="582" y="-119.5" font-family="FreeSans.ttf" font-size="10.00">iDynTree/Core/MatrixView.h</text>
</a>
</g>
</g>
<!-- Node22&#45;&gt;Node23 -->
<g id="edge27" class="edge">
<title>Node22&#45;&gt;Node23</title>
<path fill="none" stroke="midnightblue" d="M431.78,-392.46C377.44,-380.35 301,-352.41 301,-291 301,-291 301,-291 301,-233 301,-202.9 297.54,-188.03 320,-168 333.43,-156.03 427.68,-141.95 499.33,-132.77"/>
<polygon fill="midnightblue" stroke="midnightblue" points="499.8,-136.23 509.28,-131.5 498.92,-129.29 499.8,-136.23"/>
</g>
<!-- Node23&#45;&gt;Node6 -->
<g id="edge31" class="edge">
<title>Node23&#45;&gt;Node6</title>
<path fill="none" stroke="midnightblue" d="M658.11,-114.49C781.53,-103.92 1023.52,-83.22 1142.94,-73"/>
<polygon fill="midnightblue" stroke="midnightblue" points="1143.39,-76.47 1153.06,-72.13 1142.8,-69.5 1143.39,-76.47"/>
</g>
<!-- Node23&#45;&gt;Node13 -->
<g id="edge30" class="edge">
<title>Node23&#45;&gt;Node13</title>
<path fill="none" stroke="midnightblue" d="M526.7,-112.44C464.67,-102.85 364.14,-87.29 298.3,-77.1"/>
<polygon fill="midnightblue" stroke="midnightblue" points="298.46,-73.59 288.04,-75.52 297.39,-80.5 298.46,-73.59"/>
</g>
<!-- Node23&#45;&gt;Node14 -->
<g id="edge28" class="edge">
<title>Node23&#45;&gt;Node14</title>
<path fill="none" stroke="midnightblue" d="M582,-112.37C582,-94.62 582,-53.67 582,-29.6"/>
<polygon fill="midnightblue" stroke="midnightblue" points="585.5,-29.59 582,-19.59 578.5,-29.59 585.5,-29.59"/>
</g>
<!-- Node23&#45;&gt;Node20 -->
<g id="edge29" class="edge">
<title>Node23&#45;&gt;Node20</title>
<path fill="none" stroke="midnightblue" d="M574.62,-112.37C558.97,-94.05 522.22,-51.05 501.98,-27.36"/>
<polygon fill="midnightblue" stroke="midnightblue" points="504.5,-24.92 495.34,-19.59 499.18,-29.47 504.5,-24.92"/>
</g>
<!-- Node24&#45;&gt;Node4 -->
<g id="edge62" class="edge">
<title>Node24&#45;&gt;Node4</title>
<path fill="none" stroke="midnightblue" d="M915.88,-392.46C826.37,-377.66 665,-343.67 665,-291 665,-291 665,-291 665,-233 665,-185.3 717.2,-152.53 752.46,-135.84"/>
<polygon fill="midnightblue" stroke="midnightblue" points="754.23,-138.88 761.9,-131.56 751.34,-132.5 754.23,-138.88"/>
</g>
<!-- Node25 -->
<g id="node25" class="node">
<title>Node25</title>
<g id="a_node25"><a xlink:href="Position_8h.html" target="_top" xlink:title=" ">
<polygon fill="none" stroke="black" points="858,-336.5 858,-355.5 994,-355.5 994,-336.5 858,-336.5"/>
<text text-anchor="middle" x="926" y="-343.5" font-family="FreeSans.ttf" font-size="10.00">iDynTree/Core/Position.h</text>
</a>
</g>
</g>
<!-- Node24&#45;&gt;Node25 -->
<g id="edge33" class="edge">
<title>Node24&#45;&gt;Node25</title>
<path fill="none" stroke="midnightblue" d="M966.07,-392.08C959.15,-384.3 948.93,-372.8 940.55,-363.37"/>
<polygon fill="midnightblue" stroke="midnightblue" points="943.04,-360.9 933.78,-355.75 937.81,-365.55 943.04,-360.9"/>
</g>
<!-- Node30 -->
<g id="node30" class="node">
<title>Node30</title>
<g id="a_node30"><a xlink:href="Rotation_8h.html" target="_top" xlink:title=" ">
<polygon fill="none" stroke="black" points="953,-280.5 953,-299.5 1091,-299.5 1091,-280.5 953,-280.5"/>
<text text-anchor="middle" x="1022" y="-287.5" font-family="FreeSans.ttf" font-size="10.00">iDynTree/Core/Rotation.h</text>
</a>
</g>
</g>
<!-- Node24&#45;&gt;Node30 -->
<g id="edge60" class="edge">
<title>Node24&#45;&gt;Node30</title>
<path fill="none" stroke="midnightblue" d="M980.57,-392.47C987.04,-383.72 996.82,-369.53 1003,-356 1009.87,-340.96 1014.92,-322.83 1018.09,-309.54"/>
<polygon fill="midnightblue" stroke="midnightblue" points="1021.52,-310.22 1020.3,-299.7 1014.69,-308.69 1021.52,-310.22"/>
</g>
<!-- Node33 -->
<g id="node33" class="node">
<title>Node33</title>
<g id="a_node33"><a xlink:href="MatrixFixSize_8h.html" target="_top" xlink:title=" ">
<polygon fill="none" stroke="black" points="1085.5,-168.5 1085.5,-187.5 1248.5,-187.5 1248.5,-168.5 1085.5,-168.5"/>
<text text-anchor="middle" x="1167" y="-175.5" font-family="FreeSans.ttf" font-size="10.00">iDynTree/Core/MatrixFixSize.h</text>
</a>
</g>
</g>
<!-- Node24&#45;&gt;Node33 -->
<g id="edge61" class="edge">
<title>Node24&#45;&gt;Node33</title>
<path fill="none" stroke="midnightblue" d="M988.99,-392.48C1023.57,-371.96 1108.95,-316.09 1148,-244 1155.88,-229.46 1160.83,-211.28 1163.7,-197.85"/>
<polygon fill="midnightblue" stroke="midnightblue" points="1167.17,-198.35 1165.64,-187.87 1160.3,-197.02 1167.17,-198.35"/>
</g>
<!-- Node25&#45;&gt;Node4 -->
<g id="edge59" class="edge">
<title>Node25&#45;&gt;Node4</title>
<path fill="none" stroke="midnightblue" d="M878.69,-336.47C829.84,-324.87 756.08,-298.9 722,-244 699.42,-207.63 739.96,-162.06 765.51,-138.58"/>
<polygon fill="midnightblue" stroke="midnightblue" points="768.02,-141.03 773.18,-131.77 763.38,-135.79 768.02,-141.03"/>
</g>
<!-- Node26 -->
<g id="node26" class="node">
<title>Node26</title>
<g id="a_node26"><a xlink:href="PositionRaw_8h.html" target="_top" xlink:title=" ">
<polygon fill="none" stroke="black" points="731,-224.5 731,-243.5 887,-243.5 887,-224.5 731,-224.5"/>
<text text-anchor="middle" x="809" y="-231.5" font-family="FreeSans.ttf" font-size="10.00">iDynTree/Core/PositionRaw.h</text>
</a>
</g>
</g>
<!-- Node25&#45;&gt;Node26 -->
<g id="edge34" class="edge">
<title>Node25&#45;&gt;Node26</title>
<path fill="none" stroke="midnightblue" d="M916.82,-336.37C897.17,-317.89 850.79,-274.29 825.75,-250.74"/>
<polygon fill="midnightblue" stroke="midnightblue" points="827.82,-247.89 818.14,-243.59 823.03,-252.99 827.82,-247.89"/>
</g>
<!-- Node25&#45;&gt;Node30 -->
<g id="edge44" class="edge">
<title>Node25&#45;&gt;Node30</title>
<path fill="none" stroke="midnightblue" d="M941.42,-336.32C956.54,-327.82 979.82,-314.73 997.47,-304.8"/>
<polygon fill="midnightblue" stroke="midnightblue" points="999.61,-307.61 1006.61,-299.65 996.18,-301.51 999.61,-307.61"/>
</g>
<!-- Node26&#45;&gt;Node4 -->
<g id="edge43" class="edge">
<title>Node26&#45;&gt;Node4</title>
<path fill="none" stroke="midnightblue" d="M807.04,-224.37C803,-206.62 793.7,-165.67 788.23,-141.6"/>
<polygon fill="midnightblue" stroke="midnightblue" points="791.58,-140.57 785.95,-131.59 784.76,-142.12 791.58,-140.57"/>
</g>
<!-- Node27 -->
<g id="node27" class="node">
<title>Node27</title>
<g id="a_node27"><a xlink:href="VectorFixSize_8h.html" target="_top" xlink:title=" ">
<polygon fill="none" stroke="black" points="905,-168.5 905,-187.5 1067,-187.5 1067,-168.5 905,-168.5"/>
<text text-anchor="middle" x="986" y="-175.5" font-family="FreeSans.ttf" font-size="10.00">iDynTree/Core/VectorFixSize.h</text>
</a>
</g>
</g>
<!-- Node26&#45;&gt;Node27 -->
<g id="edge35" class="edge">
<title>Node26&#45;&gt;Node27</title>
<path fill="none" stroke="midnightblue" d="M837.05,-224.44C867.08,-215.28 914.91,-200.69 948.24,-190.52"/>
<polygon fill="midnightblue" stroke="midnightblue" points="949.54,-193.78 958.09,-187.52 947.5,-187.09 949.54,-193.78"/>
</g>
<!-- Node27&#45;&gt;Node4 -->
<g id="edge38" class="edge">
<title>Node27&#45;&gt;Node4</title>
<path fill="none" stroke="midnightblue" d="M953.99,-168.44C916.27,-158.36 853.94,-141.7 816.15,-131.6"/>
<polygon fill="midnightblue" stroke="midnightblue" points="816.75,-128.13 806.19,-128.93 814.94,-134.89 816.75,-128.13"/>
</g>
<!-- Node27&#45;&gt;Node6 -->
<g id="edge36" class="edge">
<title>Node27&#45;&gt;Node6</title>
<path fill="none" stroke="midnightblue" d="M985.9,-168.42C986.22,-154.46 989,-126.9 1005,-112 1024.94,-93.43 1090.95,-81.32 1143.32,-74.39"/>
<polygon fill="midnightblue" stroke="midnightblue" points="1143.79,-77.86 1153.26,-73.12 1142.9,-70.92 1143.79,-77.86"/>
</g>
<!-- Node27&#45;&gt;Node7 -->
<g id="edge41" class="edge">
<title>Node27&#45;&gt;Node7</title>
<path fill="none" stroke="midnightblue" d="M983.96,-168.08C977.98,-141.95 960.41,-65.21 952.25,-29.58"/>
<polygon fill="midnightblue" stroke="midnightblue" points="955.6,-28.53 949.96,-19.57 948.78,-30.1 955.6,-28.53"/>
</g>
<!-- Node27&#45;&gt;Node13 -->
<g id="edge37" class="edge">
<title>Node27&#45;&gt;Node13</title>
<path fill="none" stroke="midnightblue" d="M904.71,-173.37C785.97,-167.42 571.18,-153.98 497,-132 478.7,-126.58 476.99,-118.37 459,-112 408.52,-94.11 349.03,-82.63 303.76,-75.74"/>
<polygon fill="midnightblue" stroke="midnightblue" points="304.15,-72.26 293.74,-74.26 303.12,-79.18 304.15,-72.26"/>
</g>
<!-- Node27&#45;&gt;Node14 -->
<g id="edge40" class="edge">
<title>Node27&#45;&gt;Node14</title>
<path fill="none" stroke="midnightblue" d="M965.13,-168.42C898.5,-141.05 690.67,-55.65 612.31,-23.45"/>
<polygon fill="midnightblue" stroke="midnightblue" points="613.57,-20.19 602.99,-19.62 610.91,-26.66 613.57,-20.19"/>
</g>
<!-- Node28 -->
<g id="node28" class="node">
<title>Node28</title>
<g id="a_node28"><a xlink:title=" ">
<polygon fill="none" stroke="#bfbfbf" points="1129,-112.5 1129,-131.5 1185,-131.5 1185,-112.5 1129,-112.5"/>
<text text-anchor="middle" x="1157" y="-119.5" font-family="FreeSans.ttf" font-size="10.00">sstream</text>
</a>
</g>
</g>
<!-- Node27&#45;&gt;Node28 -->
<g id="edge39" class="edge">
<title>Node27&#45;&gt;Node28</title>
<path fill="none" stroke="midnightblue" d="M1013.1,-168.44C1041.99,-159.32 1087.92,-144.81 1120.11,-134.65"/>
<polygon fill="midnightblue" stroke="midnightblue" points="1121.55,-137.87 1130.03,-131.52 1119.44,-131.19 1121.55,-137.87"/>
</g>
<!-- Node29 -->
<g id="node29" class="node">
<title>Node29</title>
<g id="a_node29"><a xlink:title=" ">
<polygon fill="none" stroke="#bfbfbf" points="1014,-112.5 1014,-131.5 1064,-131.5 1064,-112.5 1014,-112.5"/>
<text text-anchor="middle" x="1039" y="-119.5" font-family="FreeSans.ttf" font-size="10.00">cstring</text>
</a>
</g>
</g>
<!-- Node27&#45;&gt;Node29 -->
<g id="edge42" class="edge">
<title>Node27&#45;&gt;Node29</title>
<path fill="none" stroke="midnightblue" d="M994.75,-168.08C1002.47,-160.22 1013.9,-148.57 1023.22,-139.08"/>
<polygon fill="midnightblue" stroke="midnightblue" points="1025.9,-141.34 1030.41,-131.75 1020.91,-136.44 1025.9,-141.34"/>
</g>
<!-- Node30&#45;&gt;Node4 -->
<g id="edge45" class="edge">
<title>Node30&#45;&gt;Node4</title>
<path fill="none" stroke="midnightblue" d="M1005.05,-280.33C973.9,-264.06 905.95,-227.07 854,-188 833.84,-172.83 812.91,-152.74 799.26,-138.93"/>
<polygon fill="midnightblue" stroke="midnightblue" points="801.61,-136.32 792.12,-131.61 796.6,-141.21 801.61,-136.32"/>
</g>
<!-- Node30&#45;&gt;Node27 -->
<g id="edge58" class="edge">
<title>Node30&#45;&gt;Node27</title>
<path fill="none" stroke="midnightblue" d="M1007.05,-280.47C995.07,-272.7 979.13,-260 972,-244 965.26,-228.87 970.47,-210.29 976.35,-196.88"/>
<polygon fill="midnightblue" stroke="midnightblue" points="979.56,-198.29 980.8,-187.77 973.27,-195.22 979.56,-198.29"/>
</g>
<!-- Node31 -->
<g id="node31" class="node">
<title>Node31</title>
<g id="a_node31"><a xlink:href="GeomVector3_8h.html" target="_top" xlink:title=" ">
<polygon fill="none" stroke="black" points="1233.5,-224.5 1233.5,-243.5 1396.5,-243.5 1396.5,-224.5 1233.5,-224.5"/>
<text text-anchor="middle" x="1315" y="-231.5" font-family="FreeSans.ttf" font-size="10.00">iDynTree/Core/GeomVector3.h</text>
</a>
</g>
</g>
<!-- Node30&#45;&gt;Node31 -->
<g id="edge46" class="edge">
<title>Node30&#45;&gt;Node31</title>
<path fill="none" stroke="midnightblue" d="M1068.43,-280.44C1120.08,-270.92 1203.51,-255.55 1258.81,-245.36"/>
<polygon fill="midnightblue" stroke="midnightblue" points="1259.59,-248.77 1268.79,-243.52 1258.32,-241.89 1259.59,-248.77"/>
</g>
<!-- Node32 -->
<g id="node32" class="node">
<title>Node32</title>
<g id="a_node32"><a xlink:href="RotationRaw_8h.html" target="_top" xlink:title=" ">
<polygon fill="none" stroke="black" points="981,-224.5 981,-243.5 1139,-243.5 1139,-224.5 981,-224.5"/>
<text text-anchor="middle" x="1060" y="-231.5" font-family="FreeSans.ttf" font-size="10.00">iDynTree/Core/RotationRaw.h</text>
</a>
</g>
</g>
<!-- Node30&#45;&gt;Node32 -->
<g id="edge48" class="edge">
<title>Node30&#45;&gt;Node32</title>
<path fill="none" stroke="midnightblue" d="M1028.27,-280.08C1033.64,-272.46 1041.52,-261.26 1048.08,-251.94"/>
<polygon fill="midnightblue" stroke="midnightblue" points="1050.95,-253.94 1053.84,-243.75 1045.22,-249.91 1050.95,-253.94"/>
</g>
<!-- Node31&#45;&gt;Node27 -->
<g id="edge47" class="edge">
<title>Node31&#45;&gt;Node27</title>
<path fill="none" stroke="midnightblue" d="M1262.87,-224.44C1204.51,-214.87 1110.02,-199.36 1047.94,-189.17"/>
<polygon fill="midnightblue" stroke="midnightblue" points="1048.32,-185.68 1037.89,-187.52 1047.19,-192.59 1048.32,-185.68"/>
</g>
<!-- Node32&#45;&gt;Node4 -->
<g id="edge57" class="edge">
<title>Node32&#45;&gt;Node4</title>
<path fill="none" stroke="midnightblue" d="M1017.2,-224.44C983.51,-216.95 935.76,-204.66 896,-188 862.44,-173.93 826.54,-151.67 804.68,-137.2"/>
<polygon fill="midnightblue" stroke="midnightblue" points="806.47,-134.18 796.21,-131.52 802.57,-140 806.47,-134.18"/>
</g>
<!-- Node32&#45;&gt;Node33 -->
<g id="edge49" class="edge">
<title>Node32&#45;&gt;Node33</title>
<path fill="none" stroke="midnightblue" d="M1077.19,-224.32C1094.35,-215.66 1120.95,-202.24 1140.75,-192.25"/>
<polygon fill="midnightblue" stroke="midnightblue" points="1142.5,-195.28 1149.85,-187.65 1139.35,-189.04 1142.5,-195.28"/>
</g>
<!-- Node33&#45;&gt;Node4 -->
<g id="edge54" class="edge">
<title>Node33&#45;&gt;Node4</title>
<path fill="none" stroke="midnightblue" d="M1106.31,-168.44C1024.16,-156.86 880.49,-136.6 816.43,-127.57"/>
<polygon fill="midnightblue" stroke="midnightblue" points="816.53,-124.05 806.14,-126.12 815.55,-130.98 816.53,-124.05"/>
</g>
<!-- Node33&#45;&gt;Node6 -->
<g id="edge50" class="edge">
<title>Node33&#45;&gt;Node6</title>
<path fill="none" stroke="midnightblue" d="M1173.08,-168.4C1179.07,-159.59 1188.16,-145.36 1194,-132 1200.63,-116.85 1205.71,-98.73 1208.94,-85.48"/>
<polygon fill="midnightblue" stroke="midnightblue" points="1212.37,-86.19 1211.21,-75.66 1205.55,-84.61 1212.37,-86.19"/>
</g>
<!-- Node33&#45;&gt;Node14 -->
<g id="edge52" class="edge">
<title>Node33&#45;&gt;Node14</title>
<path fill="none" stroke="midnightblue" d="M1157.37,-168.33C1141.18,-154.25 1106.93,-126.5 1073,-112 912.23,-43.28 701.39,-20.22 618.09,-13.47"/>
<polygon fill="midnightblue" stroke="midnightblue" points="618.36,-9.98 608.12,-12.69 617.82,-16.96 618.36,-9.98"/>
</g>
<!-- Node33&#45;&gt;Node23 -->
<g id="edge51" class="edge">
<title>Node33&#45;&gt;Node23</title>
<path fill="none" stroke="midnightblue" d="M1085.15,-168.87C1082.06,-168.58 1079,-168.29 1076,-168 933.17,-154.43 767.02,-139.46 668.39,-130.67"/>
<polygon fill="midnightblue" stroke="midnightblue" points="668.45,-127.16 658.18,-129.76 667.83,-134.13 668.45,-127.16"/>
</g>
<!-- Node33&#45;&gt;Node28 -->
<g id="edge56" class="edge">
<title>Node33&#45;&gt;Node28</title>
<path fill="none" stroke="midnightblue" d="M1165.35,-168.08C1164.02,-160.93 1162.12,-150.64 1160.46,-141.69"/>
<polygon fill="midnightblue" stroke="midnightblue" points="1163.88,-140.95 1158.62,-131.75 1157,-142.22 1163.88,-140.95"/>
</g>
<!-- Node33&#45;&gt;Node29 -->
<g id="edge53" class="edge">
<title>Node33&#45;&gt;Node29</title>
<path fill="none" stroke="midnightblue" d="M1146.72,-168.44C1125.65,-159.56 1092.48,-145.56 1068.51,-135.45"/>
<polygon fill="midnightblue" stroke="midnightblue" points="1069.76,-132.18 1059.19,-131.52 1067.04,-138.63 1069.76,-132.18"/>
</g>
<!-- Node34 -->
<g id="node34" class="node">
<title>Node34</title>
<g id="a_node34"><a xlink:title=" ">
<polygon fill="none" stroke="#bfbfbf" points="1375,-112.5 1375,-131.5 1435,-131.5 1435,-112.5 1375,-112.5"/>
<text text-anchor="middle" x="1405" y="-119.5" font-family="FreeSans.ttf" font-size="10.00">iostream</text>
</a>
</g>
</g>
<!-- Node33&#45;&gt;Node34 -->
<g id="edge55" class="edge">
<title>Node33&#45;&gt;Node34</title>
<path fill="none" stroke="midnightblue" d="M1204.71,-168.44C1248.37,-158.54 1319.98,-142.29 1364.7,-132.14"/>
<polygon fill="midnightblue" stroke="midnightblue" points="1365.66,-135.51 1374.64,-129.89 1364.11,-128.69 1365.66,-135.51"/>
</g>
<!-- Node37&#45;&gt;Node6 -->
<g id="edge94" class="edge">
<title>Node37&#45;&gt;Node6</title>
<path fill="none" stroke="midnightblue" d="M1456.37,-515.48C1502.23,-507.32 1564.02,-494.05 1584,-479 1678.59,-407.76 1691,-353.41 1691,-235 1691,-235 1691,-235 1691,-177 1691,-146.2 1691.37,-130.83 1667,-112 1637.31,-89.06 1402.86,-75.42 1283.02,-69.89"/>
<polygon fill="midnightblue" stroke="midnightblue" points="1282.99,-66.38 1272.84,-69.43 1282.67,-73.38 1282.99,-66.38"/>
</g>
<!-- Node37&#45;&gt;Node7 -->
<g id="edge73" class="edge">
<title>Node37&#45;&gt;Node7</title>
<path fill="none" stroke="midnightblue" d="M1465.1,-515.48C1518.58,-507.32 1590.98,-494.05 1616,-479 1758.52,-393.3 1814.64,-220.96 1689,-112 1635.11,-65.26 1127.62,-24.33 985.08,-13.69"/>
<polygon fill="midnightblue" stroke="midnightblue" points="984.92,-10.17 974.69,-12.92 984.41,-17.15 984.92,-10.17"/>
</g>
<!-- Node37&#45;&gt;Node12 -->
<g id="edge75" class="edge">
<title>Node37&#45;&gt;Node12</title>
<path fill="none" stroke="midnightblue" d="M1322.27,-523.3C1098.55,-520.96 481.43,-511.59 396,-479 375.64,-471.23 375.06,-461.57 358,-448 345.13,-437.76 330.49,-426.4 319.14,-417.66"/>
<polygon fill="midnightblue" stroke="midnightblue" points="321.24,-414.86 311.18,-411.55 316.98,-420.42 321.24,-414.86"/>
</g>
<!-- Node37&#45;&gt;Node22 -->
<g id="edge77" class="edge">
<title>Node37&#45;&gt;Node22</title>
<path fill="none" stroke="midnightblue" d="M1338.45,-515.49C1173.21,-493.71 735.59,-436.03 559.73,-412.85"/>
<polygon fill="midnightblue" stroke="midnightblue" points="560.16,-409.38 549.79,-411.54 559.24,-416.32 560.16,-409.38"/>
</g>
<!-- Node37&#45;&gt;Node24 -->
<g id="edge93" class="edge">
<title>Node37&#45;&gt;Node24</title>
<path fill="none" stroke="midnightblue" d="M1329.43,-515.5C1278.37,-508.49 1209.18,-496.78 1150,-479 1094.59,-462.35 1033.27,-433.27 999.63,-416.32"/>
<polygon fill="midnightblue" stroke="midnightblue" points="1001,-413.09 990.5,-411.67 997.83,-419.33 1001,-413.09"/>
</g>
<!-- Node37&#45;&gt;Node27 -->
<g id="edge76" class="edge">
<title>Node37&#45;&gt;Node27</title>
<path fill="none" stroke="midnightblue" d="M1433.88,-515.49C1452.71,-508.68 1475.64,-497.21 1489,-479 1557.7,-385.37 1536.46,-274.73 1432,-224 1431.5,-223.76 1207.47,-201.23 1077.16,-188.15"/>
<polygon fill="midnightblue" stroke="midnightblue" points="1077.47,-184.66 1067.17,-187.15 1076.77,-191.63 1077.47,-184.66"/>
</g>
<!-- Node37&#45;&gt;Node33 -->
<g id="edge78" class="edge">
<title>Node37&#45;&gt;Node33</title>
<path fill="none" stroke="midnightblue" d="M1458.08,-515.5C1498.49,-508 1548.41,-495.67 1561,-479 1614.33,-408.36 1598.42,-355.97 1553,-280 1531.47,-243.99 1515.81,-239.94 1477,-224 1407.16,-195.33 1321.91,-184.52 1258.49,-180.63"/>
<polygon fill="midnightblue" stroke="midnightblue" points="1258.69,-177.14 1248.51,-180.06 1258.29,-184.12 1258.69,-177.14"/>
</g>
<!-- Node37&#45;&gt;Node36 -->
<g id="edge74" class="edge">
<title>Node37&#45;&gt;Node36</title>
<path fill="none" stroke="midnightblue" d="M1480.22,-515.47C1543.22,-507.86 1634.34,-495.4 1713,-479 1717.71,-478.02 1722.63,-476.86 1727.48,-475.63"/>
<polygon fill="midnightblue" stroke="midnightblue" points="1728.5,-478.98 1737.27,-473.05 1726.71,-472.21 1728.5,-478.98"/>
</g>
<!-- Node38 -->
<g id="node38" class="node">
<title>Node38</title>
<g id="a_node38"><a xlink:href="SpatialMotionVector_8h.html" target="_top" xlink:title=" ">
<polygon fill="none" stroke="black" points="1325.5,-448.5 1325.5,-478.5 1480.5,-478.5 1480.5,-448.5 1325.5,-448.5"/>
<text text-anchor="start" x="1333.5" y="-466.5" font-family="FreeSans.ttf" font-size="10.00">iDynTree/Core/SpatialMotion</text>
<text text-anchor="middle" x="1403" y="-455.5" font-family="FreeSans.ttf" font-size="10.00">Vector.h</text>
</a>
</g>
</g>
<!-- Node37&#45;&gt;Node38 -->
<g id="edge79" class="edge">
<title>Node37&#45;&gt;Node38</title>
<path fill="none" stroke="midnightblue" d="M1403,-515.48C1403,-508.47 1403,-498.19 1403,-488.7"/>
<polygon fill="midnightblue" stroke="midnightblue" points="1406.5,-488.52 1403,-478.52 1399.5,-488.52 1406.5,-488.52"/>
</g>
<!-- Node40 -->
<g id="node40" class="node">
<title>Node40</title>
<g id="a_node40"><a xlink:href="SpatialForceVector_8h.html" target="_top" xlink:title=" ">
<polygon fill="none" stroke="black" points="1159,-448.5 1159,-478.5 1307,-478.5 1307,-448.5 1159,-448.5"/>
<text text-anchor="start" x="1167" y="-466.5" font-family="FreeSans.ttf" font-size="10.00">iDynTree/Core/SpatialForce</text>
<text text-anchor="middle" x="1233" y="-455.5" font-family="FreeSans.ttf" font-size="10.00">Vector.h</text>
</a>
</g>
</g>
<!-- Node37&#45;&gt;Node40 -->
<g id="edge89" class="edge">
<title>Node37&#45;&gt;Node40</title>
<path fill="none" stroke="midnightblue" d="M1378.64,-515.48C1353.68,-506.74 1314.16,-492.91 1282.59,-481.86"/>
<polygon fill="midnightblue" stroke="midnightblue" points="1283.66,-478.52 1273.07,-478.52 1281.35,-485.13 1283.66,-478.52"/>
</g>
<!-- Node38&#45;&gt;Node27 -->
<g id="edge80" class="edge">
<title>Node38&#45;&gt;Node27</title>
<path fill="none" stroke="midnightblue" d="M1440.31,-448.36C1456.15,-440.28 1473.01,-428.42 1482,-412 1500.06,-379.02 1518.71,-305.87 1405,-224 1401.69,-221.62 1199.88,-200.74 1077.58,-188.27"/>
<polygon fill="midnightblue" stroke="midnightblue" points="1077.76,-184.78 1067.46,-187.24 1077.05,-191.74 1077.76,-184.78"/>
</g>
<!-- Node38&#45;&gt;Node31 -->
<g id="edge81" class="edge">
<title>Node38&#45;&gt;Node31</title>
<path fill="none" stroke="midnightblue" d="M1350.31,-448.45C1332.09,-440.79 1313.6,-429.23 1303,-412 1271.98,-361.58 1294.3,-287.1 1307.36,-253.11"/>
<polygon fill="midnightblue" stroke="midnightblue" points="1310.7,-254.16 1311.19,-243.57 1304.21,-251.55 1310.7,-254.16"/>
</g>
<!-- Node39 -->
<g id="node39" class="node">
<title>Node39</title>
<g id="a_node39"><a xlink:href="SpatialVector_8h.html" target="_top" xlink:title=" ">
<polygon fill="none" stroke="black" points="1312.5,-392.5 1312.5,-411.5 1473.5,-411.5 1473.5,-392.5 1312.5,-392.5"/>
<text text-anchor="middle" x="1393" y="-399.5" font-family="FreeSans.ttf" font-size="10.00">iDynTree/Core/SpatialVector.h</text>
</a>
</g>
</g>
<!-- Node38&#45;&gt;Node39 -->
<g id="edge82" class="edge">
<title>Node38&#45;&gt;Node39</title>
<path fill="none" stroke="midnightblue" d="M1400.63,-448.4C1399.28,-440.38 1397.58,-430.23 1396.12,-421.57"/>
<polygon fill="midnightblue" stroke="midnightblue" points="1399.56,-420.94 1394.46,-411.66 1392.66,-422.1 1399.56,-420.94"/>
</g>
<!-- Node39&#45;&gt;Node6 -->
<g id="edge85" class="edge">
<title>Node39&#45;&gt;Node6</title>
<path fill="none" stroke="midnightblue" d="M1427.69,-392.39C1490.12,-374.58 1615,-327.4 1615,-235 1615,-235 1615,-235 1615,-177 1615,-108.96 1398.03,-81.52 1282.89,-71.75"/>
<polygon fill="midnightblue" stroke="midnightblue" points="1283,-68.25 1272.75,-70.92 1282.43,-75.23 1283,-68.25"/>
</g>
<!-- Node39&#45;&gt;Node25 -->
<g id="edge83" class="edge">
<title>Node39&#45;&gt;Node25</title>
<path fill="none" stroke="midnightblue" d="M1319.26,-392.47C1233.35,-382.54 1091.99,-366.19 1004.21,-356.04"/>
<polygon fill="midnightblue" stroke="midnightblue" points="1004.38,-352.54 994.04,-354.87 1003.57,-359.49 1004.38,-352.54"/>
</g>
<!-- Node39&#45;&gt;Node28 -->
<g id="edge88" class="edge">
<title>Node39&#45;&gt;Node28</title>
<path fill="none" stroke="midnightblue" d="M1397,-392.3C1408.99,-364.82 1441.61,-278.44 1405,-224 1357.74,-153.73 1252.17,-132.32 1195.2,-125.82"/>
<polygon fill="midnightblue" stroke="midnightblue" points="1195.46,-122.33 1185.15,-124.77 1194.73,-129.29 1195.46,-122.33"/>
</g>
<!-- Node39&#45;&gt;Node30 -->
<g id="edge84" class="edge">
<title>Node39&#45;&gt;Node30</title>
<path fill="none" stroke="midnightblue" d="M1364.2,-392.46C1298.1,-372.86 1135.48,-324.65 1060.73,-302.48"/>
<polygon fill="midnightblue" stroke="midnightblue" points="1061.37,-299.02 1050.78,-299.53 1059.38,-305.73 1061.37,-299.02"/>
</g>
<!-- Node39&#45;&gt;Node31 -->
<g id="edge86" class="edge">
<title>Node39&#45;&gt;Node31</title>
<path fill="none" stroke="midnightblue" d="M1388.81,-392.08C1376.42,-365.72 1339.85,-287.88 1323.3,-252.66"/>
<polygon fill="midnightblue" stroke="midnightblue" points="1326.45,-251.13 1319.03,-243.57 1320.11,-254.11 1326.45,-251.13"/>
</g>
<!-- Node39&#45;&gt;Node34 -->
<g id="edge87" class="edge">
<title>Node39&#45;&gt;Node34</title>
<path fill="none" stroke="midnightblue" d="M1401.26,-392.17C1426.92,-364.49 1504.2,-279.14 1515,-244 1524.92,-211.71 1533.83,-196.04 1515,-168 1499.43,-144.81 1469.58,-133.57 1444.89,-128.11"/>
<polygon fill="midnightblue" stroke="midnightblue" points="1445.53,-124.67 1435.04,-126.17 1444.17,-131.54 1445.53,-124.67"/>
</g>
<!-- Node40&#45;&gt;Node27 -->
<g id="edge90" class="edge">
<title>Node40&#45;&gt;Node27</title>
<path fill="none" stroke="midnightblue" d="M1227.2,-448.18C1219,-426.62 1205,-384.35 1205,-347 1205,-347 1205,-347 1205,-289 1205,-228.44 1137.31,-201.22 1077.19,-188.99"/>
<polygon fill="midnightblue" stroke="midnightblue" points="1077.72,-185.52 1067.24,-187.08 1076.4,-192.4 1077.72,-185.52"/>
</g>
<!-- Node40&#45;&gt;Node31 -->
<g id="edge91" class="edge">
<title>Node40&#45;&gt;Node31</title>
<path fill="none" stroke="midnightblue" d="M1232.73,-448.24C1232.71,-416.13 1236.05,-336.54 1267,-280 1273.45,-268.22 1284.1,-257.77 1293.73,-249.91"/>
<polygon fill="midnightblue" stroke="midnightblue" points="1296.01,-252.58 1301.8,-243.71 1291.74,-247.03 1296.01,-252.58"/>
</g>
<!-- Node40&#45;&gt;Node39 -->
<g id="edge92" class="edge">
<title>Node40&#45;&gt;Node39</title>
<path fill="none" stroke="midnightblue" d="M1270.92,-448.4C1298.12,-438.28 1334.4,-424.79 1360.33,-415.15"/>
<polygon fill="midnightblue" stroke="midnightblue" points="1361.57,-418.42 1369.72,-411.66 1359.13,-411.86 1361.57,-418.42"/>
</g>
</g>
</svg>
