<?xml version="1.0" encoding="UTF-8" standalone="no"?>
<!DOCTYPE svg PUBLIC "-//W3C//DTD SVG 1.1//EN"
 "http://www.w3.org/Graphics/SVG/1.1/DTD/svg11.dtd">
<!-- Generated by graphviz version 2.43.0 (0)
 -->
<!-- Title: LinearSystem.h Pages: 1 -->
<svg width="400pt" height="84pt"
 viewBox="0.00 0.00 400.00 84.00" xmlns="http://www.w3.org/2000/svg" xmlns:xlink="http://www.w3.org/1999/xlink">
<g id="graph0" class="graph" transform="scale(1 1) rotate(0) translate(4 80)">
<title>LinearSystem.h</title>
<!-- Node1 -->
<g id="node1" class="node">
<title>Node1</title>
<g id="a_node1"><a xlink:title=" ">
<polygon fill="#bfbfbf" stroke="black" points="124,-56.5 124,-75.5 216,-75.5 216,-56.5 124,-56.5"/>
<text text-anchor="middle" x="170" y="-63.5" font-family="FreeSans.ttf" font-size="10.00">LinearSystem.h</text>
</a>
</g>
</g>
<!-- Node2 -->
<g id="node2" class="node">
<title>Node2</title>
<g id="a_node2"><a xlink:href="OptimalControl_8h.html" target="_top" xlink:title=" ">
<polygon fill="none" stroke="black" points="0,-0.5 0,-19.5 100,-19.5 100,-0.5 0,-0.5"/>
<text text-anchor="middle" x="50" y="-7.5" font-family="FreeSans.ttf" font-size="10.00">OptimalControl.h</text>
</a>
</g>
</g>
<!-- Node1&#45;&gt;Node2 -->
<g id="edge1" class="edge">
<title>Node1&#45;&gt;Node2</title>
<path fill="none" stroke="midnightblue" d="M141.63,-52.23C119.18,-42.13 88.46,-28.31 68.93,-19.52"/>
<polygon fill="midnightblue" stroke="midnightblue" points="140.43,-55.53 150.99,-56.44 143.3,-49.15 140.43,-55.53"/>
</g>
<!-- Node3 -->
<g id="node3" class="node">
<title>Node3</title>
<g id="a_node3"><a xlink:href="LinearSystem_8cpp.html" target="_top" xlink:title=" ">
<polygon fill="none" stroke="black" points="118,-0.5 118,-19.5 222,-19.5 222,-0.5 118,-0.5"/>
<text text-anchor="middle" x="170" y="-7.5" font-family="FreeSans.ttf" font-size="10.00">LinearSystem.cpp</text>
</a>
</g>
</g>
<!-- Node1&#45;&gt;Node3 -->
<g id="edge2" class="edge">
<title>Node1&#45;&gt;Node3</title>
<path fill="none" stroke="midnightblue" d="M170,-45.8C170,-36.91 170,-26.78 170,-19.75"/>
<polygon fill="midnightblue" stroke="midnightblue" points="166.5,-46.08 170,-56.08 173.5,-46.08 166.5,-46.08"/>
</g>
<!-- Node4 -->
<g id="node4" class="node">
<title>Node4</title>
<g id="a_node4"><a xlink:href="OptimalControlProblem_8cpp.html" target="_top" xlink:title=" ">
<polygon fill="none" stroke="black" points="240,-0.5 240,-19.5 392,-19.5 392,-0.5 240,-0.5"/>
<text text-anchor="middle" x="316" y="-7.5" font-family="FreeSans.ttf" font-size="10.00">OptimalControlProblem.cpp</text>
</a>
</g>
</g>
<!-- Node1&#45;&gt;Node4 -->
<g id="edge3" class="edge">
<title>Node1&#45;&gt;Node4</title>
<path fill="none" stroke="midnightblue" d="M202.7,-52.91C230.15,-42.75 268.67,-28.51 292.97,-19.52"/>
<polygon fill="midnightblue" stroke="midnightblue" points="201.3,-49.69 193.13,-56.44 203.73,-56.26 201.3,-49.69"/>
</g>
</g>
</svg>
