<?xml version="1.0" encoding="UTF-8" standalone="no"?>
<!DOCTYPE svg PUBLIC "-//W3C//DTD SVG 1.1//EN"
 "http://www.w3.org/Graphics/SVG/1.1/DTD/svg11.dtd">
<!-- Generated by graphviz version 2.43.0 (0)
 -->
<!-- Title: LinearConstraint.cpp Pages: 1 -->
<svg width="1722pt" height="599pt"
 viewBox="0.00 0.00 1721.50 599.00" xmlns="http://www.w3.org/2000/svg" xmlns:xlink="http://www.w3.org/1999/xlink">
<g id="graph0" class="graph" transform="scale(1 1) rotate(0) translate(4 595)">
<title>LinearConstraint.cpp</title>
<!-- Node1 -->
<g id="node1" class="node">
<title>Node1</title>
<g id="a_node1"><a xlink:title=" ">
<polygon fill="#bfbfbf" stroke="black" points="1014,-571.5 1014,-590.5 1131,-590.5 1131,-571.5 1014,-571.5"/>
<text text-anchor="middle" x="1072.5" y="-578.5" font-family="FreeSans.ttf" font-size="10.00">LinearConstraint.cpp</text>
</a>
</g>
</g>
<!-- Node2 -->
<g id="node2" class="node">
<title>Node2</title>
<g id="a_node2"><a xlink:href="LinearConstraint_8h.html" target="_top" xlink:title=" ">
<polygon fill="none" stroke="black" points="437.5,-515.5 437.5,-534.5 589.5,-534.5 589.5,-515.5 437.5,-515.5"/>
<text text-anchor="middle" x="513.5" y="-522.5" font-family="FreeSans.ttf" font-size="10.00">iDynTree/LinearConstraint.h</text>
</a>
</g>
</g>
<!-- Node1&#45;&gt;Node2 -->
<g id="edge1" class="edge">
<title>Node1&#45;&gt;Node2</title>
<path fill="none" stroke="midnightblue" d="M1014,-574.35C915.21,-564.81 714.87,-545.45 599.88,-534.34"/>
<polygon fill="midnightblue" stroke="midnightblue" points="599.99,-530.84 589.7,-533.36 599.32,-537.81 599.99,-530.84"/>
</g>
<!-- Node8 -->
<g id="node8" class="node">
<title>Node8</title>
<g id="a_node8"><a xlink:title=" ">
<polygon fill="none" stroke="#bfbfbf" points="1122.5,-0.5 1122.5,-19.5 1174.5,-19.5 1174.5,-0.5 1122.5,-0.5"/>
<text text-anchor="middle" x="1148.5" y="-7.5" font-family="FreeSans.ttf" font-size="10.00">cassert</text>
</a>
</g>
</g>
<!-- Node1&#45;&gt;Node8 -->
<g id="edge92" class="edge">
<title>Node1&#45;&gt;Node8</title>
<path fill="none" stroke="midnightblue" d="M1131.08,-575.59C1289.32,-562.89 1713.5,-523.37 1713.5,-464.5 1713.5,-464.5 1713.5,-464.5 1713.5,-121 1713.5,-12.85 1309.62,-8.95 1184.8,-10.32"/>
<polygon fill="midnightblue" stroke="midnightblue" points="1184.57,-6.82 1174.62,-10.45 1184.66,-13.82 1184.57,-6.82"/>
</g>
<!-- Node36 -->
<g id="node36" class="node">
<title>Node36</title>
<g id="a_node36"><a xlink:href="EigenHelpers_8h.html" target="_top" xlink:title=" ">
<polygon fill="none" stroke="black" points="992,-515.5 992,-534.5 1153,-534.5 1153,-515.5 992,-515.5"/>
<text text-anchor="middle" x="1072.5" y="-522.5" font-family="FreeSans.ttf" font-size="10.00">iDynTree/Core/EigenHelpers.h</text>
</a>
</g>
</g>
<!-- Node1&#45;&gt;Node36 -->
<g id="edge69" class="edge">
<title>Node1&#45;&gt;Node36</title>
<path fill="none" stroke="midnightblue" d="M1072.5,-571.08C1072.5,-564.01 1072.5,-553.86 1072.5,-544.99"/>
<polygon fill="midnightblue" stroke="midnightblue" points="1076,-544.75 1072.5,-534.75 1069,-544.75 1076,-544.75"/>
</g>
<!-- Node3 -->
<g id="node3" class="node">
<title>Node3</title>
<g id="a_node3"><a xlink:href="Constraint_8h.html" target="_top" xlink:title=" ">
<polygon fill="none" stroke="black" points="194.5,-224.5 194.5,-243.5 316.5,-243.5 316.5,-224.5 194.5,-224.5"/>
<text text-anchor="middle" x="255.5" y="-231.5" font-family="FreeSans.ttf" font-size="10.00">iDynTree/Constraint.h</text>
</a>
</g>
</g>
<!-- Node2&#45;&gt;Node3 -->
<g id="edge2" class="edge">
<title>Node2&#45;&gt;Node3</title>
<path fill="none" stroke="midnightblue" d="M437.21,-516.04C369.25,-504.23 280.5,-475.02 280.5,-403 280.5,-403 280.5,-403 280.5,-345 280.5,-312 269.67,-274.77 262.26,-253.19"/>
<polygon fill="midnightblue" stroke="midnightblue" points="265.53,-251.93 258.87,-243.69 258.93,-254.28 265.53,-251.93"/>
</g>
<!-- Node5 -->
<g id="node5" class="node">
<title>Node5</title>
<g id="a_node5"><a xlink:title=" ">
<polygon fill="none" stroke="#bfbfbf" points="606.5,-112.5 606.5,-131.5 650.5,-131.5 650.5,-112.5 606.5,-112.5"/>
<text text-anchor="middle" x="628.5" y="-119.5" font-family="FreeSans.ttf" font-size="10.00">string</text>
</a>
</g>
</g>
<!-- Node2&#45;&gt;Node5 -->
<g id="edge67" class="edge">
<title>Node2&#45;&gt;Node5</title>
<path fill="none" stroke="midnightblue" d="M554.24,-515.47C576.68,-508.89 603.54,-497.65 621.5,-479 679.51,-418.76 629.5,-374.63 629.5,-291 629.5,-291 629.5,-291 629.5,-233 629.5,-200.95 629.07,-163.64 628.77,-141.75"/>
<polygon fill="midnightblue" stroke="midnightblue" points="632.27,-141.51 628.63,-131.56 625.27,-141.61 632.27,-141.51"/>
</g>
<!-- Node16 -->
<g id="node16" class="node">
<title>Node16</title>
<g id="a_node16"><a xlink:href="SparsityStructure_8h.html" target="_top" xlink:title=" ">
<polygon fill="none" stroke="black" points="72,-168.5 72,-187.5 227,-187.5 227,-168.5 72,-168.5"/>
<text text-anchor="middle" x="149.5" y="-175.5" font-family="FreeSans.ttf" font-size="10.00">iDynTree/SparsityStructure.h</text>
</a>
</g>
</g>
<!-- Node2&#45;&gt;Node16 -->
<g id="edge66" class="edge">
<title>Node2&#45;&gt;Node16</title>
<path fill="none" stroke="midnightblue" d="M452.26,-515.49C352.65,-499.92 166.5,-462.81 166.5,-403 166.5,-403 166.5,-403 166.5,-289 166.5,-256.58 159.2,-219.42 154.17,-197.64"/>
<polygon fill="midnightblue" stroke="midnightblue" points="157.53,-196.67 151.79,-187.77 150.73,-198.31 157.53,-196.67"/>
</g>
<!-- Node21 -->
<g id="node21" class="node">
<title>Node21</title>
<g id="a_node21"><a xlink:href="MatrixDynSize_8h.html" target="_top" xlink:title=" ">
<polygon fill="none" stroke="black" points="469.5,-392.5 469.5,-411.5 637.5,-411.5 637.5,-392.5 469.5,-392.5"/>
<text text-anchor="middle" x="553.5" y="-399.5" font-family="FreeSans.ttf" font-size="10.00">iDynTree/Core/MatrixDynSize.h</text>
</a>
</g>
</g>
<!-- Node2&#45;&gt;Node21 -->
<g id="edge25" class="edge">
<title>Node2&#45;&gt;Node21</title>
<path fill="none" stroke="midnightblue" d="M551.47,-515.41C570.91,-508.88 592.88,-497.72 604.5,-479 611.77,-467.3 610.17,-460.56 604.5,-448 598.88,-435.56 587.94,-425.17 577.62,-417.53"/>
<polygon fill="midnightblue" stroke="midnightblue" points="579.46,-414.54 569.23,-411.76 575.49,-420.31 579.46,-414.54"/>
</g>
<!-- Node23 -->
<g id="node23" class="node">
<title>Node23</title>
<g id="a_node23"><a xlink:href="TimeVaryingObject_8h.html" target="_top" xlink:title=" ">
<polygon fill="none" stroke="black" points="431.5,-454 431.5,-473 595.5,-473 595.5,-454 431.5,-454"/>
<text text-anchor="middle" x="513.5" y="-461" font-family="FreeSans.ttf" font-size="10.00">iDynTree/TimeVaryingObject.h</text>
</a>
</g>
</g>
<!-- Node2&#45;&gt;Node23 -->
<g id="edge32" class="edge">
<title>Node2&#45;&gt;Node23</title>
<path fill="none" stroke="midnightblue" d="M513.5,-515.48C513.5,-507.08 513.5,-493.98 513.5,-483.16"/>
<polygon fill="midnightblue" stroke="midnightblue" points="517,-483.01 513.5,-473.01 510,-483.01 517,-483.01"/>
</g>
<!-- Node35 -->
<g id="node35" class="node">
<title>Node35</title>
<g id="a_node35"><a xlink:title=" ">
<polygon fill="none" stroke="#bfbfbf" points="80.5,-454 80.5,-473 138.5,-473 138.5,-454 80.5,-454"/>
<text text-anchor="middle" x="109.5" y="-461" font-family="FreeSans.ttf" font-size="10.00">memory</text>
</a>
</g>
</g>
<!-- Node2&#45;&gt;Node35 -->
<g id="edge68" class="edge">
<title>Node2&#45;&gt;Node35</title>
<path fill="none" stroke="midnightblue" d="M437.36,-518.98C363.77,-513.08 249.48,-501.16 152.5,-479 149.02,-478.2 145.41,-477.23 141.85,-476.18"/>
<polygon fill="midnightblue" stroke="midnightblue" points="142.61,-472.75 132.02,-473.04 140.48,-479.42 142.61,-472.75"/>
</g>
<!-- Node4 -->
<g id="node4" class="node">
<title>Node4</title>
<g id="a_node4"><a xlink:title=" ">
<polygon fill="none" stroke="#bfbfbf" points="355,-0.5 355,-19.5 408,-19.5 408,-0.5 355,-0.5"/>
<text text-anchor="middle" x="381.5" y="-7.5" font-family="FreeSans.ttf" font-size="10.00">cstddef</text>
</a>
</g>
</g>
<!-- Node3&#45;&gt;Node4 -->
<g id="edge3" class="edge">
<title>Node3&#45;&gt;Node4</title>
<path fill="none" stroke="midnightblue" d="M253.94,-224.16C249.54,-196.26 239.79,-108.78 279.5,-56 295.14,-35.21 322.48,-23.85 344.92,-17.74"/>
<polygon fill="midnightblue" stroke="midnightblue" points="345.95,-21.09 354.82,-15.29 344.27,-14.3 345.95,-21.09"/>
</g>
<!-- Node3&#45;&gt;Node5 -->
<g id="edge4" class="edge">
<title>Node3&#45;&gt;Node5</title>
<path fill="none" stroke="midnightblue" d="M264.8,-224.4C280.79,-210.15 315.08,-181.85 349.5,-168 434.03,-134 542.74,-125.65 596.06,-123.62"/>
<polygon fill="midnightblue" stroke="midnightblue" points="596.39,-127.12 606.27,-123.29 596.16,-120.12 596.39,-127.12"/>
</g>
<!-- Node6 -->
<g id="node6" class="node">
<title>Node6</title>
<g id="a_node6"><a xlink:href="VectorDynSize_8h.html" target="_top" xlink:title=" ">
<polygon fill="none" stroke="black" points="359,-168.5 359,-187.5 526,-187.5 526,-168.5 359,-168.5"/>
<text text-anchor="middle" x="442.5" y="-175.5" font-family="FreeSans.ttf" font-size="10.00">iDynTree/Core/VectorDynSize.h</text>
</a>
</g>
</g>
<!-- Node3&#45;&gt;Node6 -->
<g id="edge5" class="edge">
<title>Node3&#45;&gt;Node6</title>
<path fill="none" stroke="midnightblue" d="M285.13,-224.44C317,-215.24 367.83,-200.56 403.06,-190.39"/>
<polygon fill="midnightblue" stroke="midnightblue" points="404.37,-193.65 413.01,-187.52 402.43,-186.93 404.37,-193.65"/>
</g>
<!-- Node3&#45;&gt;Node16 -->
<g id="edge17" class="edge">
<title>Node3&#45;&gt;Node16</title>
<path fill="none" stroke="midnightblue" d="M238.47,-224.32C221.47,-215.66 195.12,-202.24 175.51,-192.25"/>
<polygon fill="midnightblue" stroke="midnightblue" points="176.99,-189.08 166.49,-187.65 173.81,-195.31 176.99,-189.08"/>
</g>
<!-- Node6&#45;&gt;Node5 -->
<g id="edge16" class="edge">
<title>Node6&#45;&gt;Node5</title>
<path fill="none" stroke="midnightblue" d="M471.97,-168.44C506,-158.56 561.77,-142.37 596.74,-132.22"/>
<polygon fill="midnightblue" stroke="midnightblue" points="597.82,-135.55 606.45,-129.4 595.87,-128.83 597.82,-135.55"/>
</g>
<!-- Node7 -->
<g id="node7" class="node">
<title>Node7</title>
<g id="a_node7"><a xlink:href="Span_8h.html" target="_top" xlink:title=" ">
<polygon fill="none" stroke="black" points="743,-56.5 743,-75.5 864,-75.5 864,-56.5 743,-56.5"/>
<text text-anchor="middle" x="803.5" y="-63.5" font-family="FreeSans.ttf" font-size="10.00">iDynTree/Core/Span.h</text>
</a>
</g>
</g>
<!-- Node6&#45;&gt;Node7 -->
<g id="edge6" class="edge">
<title>Node6&#45;&gt;Node7</title>
<path fill="none" stroke="midnightblue" d="M460.24,-168.31C488.63,-154.68 546.3,-128.18 597.5,-112 645.23,-96.92 700.73,-85.11 742.1,-77.38"/>
<polygon fill="midnightblue" stroke="midnightblue" points="742.83,-80.81 752.03,-75.55 741.56,-73.92 742.83,-80.81"/>
</g>
<!-- Node7&#45;&gt;Node4 -->
<g id="edge10" class="edge">
<title>Node7&#45;&gt;Node4</title>
<path fill="none" stroke="midnightblue" d="M742.59,-57.21C653.61,-45.82 490.8,-24.99 418.17,-15.69"/>
<polygon fill="midnightblue" stroke="midnightblue" points="418.49,-12.2 408.13,-14.41 417.6,-19.15 418.49,-12.2"/>
</g>
<!-- Node7&#45;&gt;Node8 -->
<g id="edge7" class="edge">
<title>Node7&#45;&gt;Node8</title>
<path fill="none" stroke="midnightblue" d="M864.26,-56.97C936.25,-47.33 1052.94,-31.26 1112.17,-20.05"/>
<polygon fill="midnightblue" stroke="midnightblue" points="1113.06,-23.44 1122.2,-18.09 1111.71,-16.57 1113.06,-23.44"/>
</g>
<!-- Node9 -->
<g id="node9" class="node">
<title>Node9</title>
<g id="a_node9"><a xlink:title=" ">
<polygon fill="none" stroke="#bfbfbf" points="601.5,-0.5 601.5,-19.5 665.5,-19.5 665.5,-0.5 601.5,-0.5"/>
<text text-anchor="middle" x="633.5" y="-7.5" font-family="FreeSans.ttf" font-size="10.00">algorithm</text>
</a>
</g>
</g>
<!-- Node7&#45;&gt;Node9 -->
<g id="edge8" class="edge">
<title>Node7&#45;&gt;Node9</title>
<path fill="none" stroke="midnightblue" d="M776.56,-56.44C747.84,-47.32 702.17,-32.81 670.18,-22.65"/>
<polygon fill="midnightblue" stroke="midnightblue" points="670.9,-19.21 660.31,-19.52 668.78,-25.88 670.9,-19.21"/>
</g>
<!-- Node10 -->
<g id="node10" class="node">
<title>Node10</title>
<g id="a_node10"><a xlink:title=" ">
<polygon fill="none" stroke="#bfbfbf" points="683.5,-0.5 683.5,-19.5 725.5,-19.5 725.5,-0.5 683.5,-0.5"/>
<text text-anchor="middle" x="704.5" y="-7.5" font-family="FreeSans.ttf" font-size="10.00">array</text>
</a>
</g>
</g>
<!-- Node7&#45;&gt;Node10 -->
<g id="edge9" class="edge">
<title>Node7&#45;&gt;Node10</title>
<path fill="none" stroke="midnightblue" d="M787.59,-56.32C771.86,-47.74 747.56,-34.49 729.29,-24.52"/>
<polygon fill="midnightblue" stroke="midnightblue" points="730.82,-21.37 720.37,-19.65 727.47,-27.52 730.82,-21.37"/>
</g>
<!-- Node11 -->
<g id="node11" class="node">
<title>Node11</title>
<g id="a_node11"><a xlink:title=" ">
<polygon fill="none" stroke="#bfbfbf" points="744,-0.5 744,-19.5 797,-19.5 797,-0.5 744,-0.5"/>
<text text-anchor="middle" x="770.5" y="-7.5" font-family="FreeSans.ttf" font-size="10.00">iterator</text>
</a>
</g>
</g>
<!-- Node7&#45;&gt;Node11 -->
<g id="edge11" class="edge">
<title>Node7&#45;&gt;Node11</title>
<path fill="none" stroke="midnightblue" d="M798.05,-56.08C793.49,-48.61 786.83,-37.72 781.21,-28.52"/>
<polygon fill="midnightblue" stroke="midnightblue" points="784.05,-26.46 775.85,-19.75 778.08,-30.11 784.05,-26.46"/>
</g>
<!-- Node12 -->
<g id="node12" class="node">
<title>Node12</title>
<g id="a_node12"><a xlink:title=" ">
<polygon fill="none" stroke="#bfbfbf" points="815.5,-0.5 815.5,-19.5 859.5,-19.5 859.5,-0.5 815.5,-0.5"/>
<text text-anchor="middle" x="837.5" y="-7.5" font-family="FreeSans.ttf" font-size="10.00">limits</text>
</a>
</g>
</g>
<!-- Node7&#45;&gt;Node12 -->
<g id="edge12" class="edge">
<title>Node7&#45;&gt;Node12</title>
<path fill="none" stroke="midnightblue" d="M809.11,-56.08C813.87,-48.53 820.82,-37.49 826.65,-28.23"/>
<polygon fill="midnightblue" stroke="midnightblue" points="829.62,-30.08 831.99,-19.75 823.7,-26.35 829.62,-30.08"/>
</g>
<!-- Node13 -->
<g id="node13" class="node">
<title>Node13</title>
<g id="a_node13"><a xlink:title=" ">
<polygon fill="none" stroke="#bfbfbf" points="878,-0.5 878,-19.5 943,-19.5 943,-0.5 878,-0.5"/>
<text text-anchor="middle" x="910.5" y="-7.5" font-family="FreeSans.ttf" font-size="10.00">stdexcept</text>
</a>
</g>
</g>
<!-- Node7&#45;&gt;Node13 -->
<g id="edge13" class="edge">
<title>Node7&#45;&gt;Node13</title>
<path fill="none" stroke="midnightblue" d="M820.69,-56.32C837.85,-47.66 864.45,-34.24 884.25,-24.25"/>
<polygon fill="midnightblue" stroke="midnightblue" points="886,-27.28 893.35,-19.65 882.85,-21.04 886,-27.28"/>
</g>
<!-- Node14 -->
<g id="node14" class="node">
<title>Node14</title>
<g id="a_node14"><a xlink:title=" ">
<polygon fill="none" stroke="#bfbfbf" points="514,-0.5 514,-19.5 583,-19.5 583,-0.5 514,-0.5"/>
<text text-anchor="middle" x="548.5" y="-7.5" font-family="FreeSans.ttf" font-size="10.00">type_traits</text>
</a>
</g>
</g>
<!-- Node7&#45;&gt;Node14 -->
<g id="edge14" class="edge">
<title>Node7&#45;&gt;Node14</title>
<path fill="none" stroke="midnightblue" d="M763.09,-56.44C716.81,-46.64 641.2,-30.63 593.19,-20.46"/>
<polygon fill="midnightblue" stroke="midnightblue" points="593.9,-17.04 583.39,-18.39 592.45,-23.88 593.9,-17.04"/>
</g>
<!-- Node15 -->
<g id="node15" class="node">
<title>Node15</title>
<g id="a_node15"><a xlink:title=" ">
<polygon fill="none" stroke="#bfbfbf" points="961,-0.5 961,-19.5 1006,-19.5 1006,-0.5 961,-0.5"/>
<text text-anchor="middle" x="983.5" y="-7.5" font-family="FreeSans.ttf" font-size="10.00">utility</text>
</a>
</g>
</g>
<!-- Node7&#45;&gt;Node15 -->
<g id="edge15" class="edge">
<title>Node7&#45;&gt;Node15</title>
<path fill="none" stroke="midnightblue" d="M832.02,-56.44C864.36,-46.74 916.99,-30.95 950.92,-20.77"/>
<polygon fill="midnightblue" stroke="midnightblue" points="952.24,-24.03 960.81,-17.81 950.23,-17.33 952.24,-24.03"/>
</g>
<!-- Node16&#45;&gt;Node4 -->
<g id="edge22" class="edge">
<title>Node16&#45;&gt;Node4</title>
<path fill="none" stroke="midnightblue" d="M153.74,-168.23C164.91,-146.04 197.34,-87.25 241.5,-56 272.54,-34.03 314.85,-22.4 344.81,-16.5"/>
<polygon fill="midnightblue" stroke="midnightblue" points="345.65,-19.91 354.85,-14.65 344.38,-13.02 345.65,-19.91"/>
</g>
<!-- Node16&#45;&gt;Node5 -->
<g id="edge24" class="edge">
<title>Node16&#45;&gt;Node5</title>
<path fill="none" stroke="midnightblue" d="M225.13,-168.47C331.42,-156.49 520.43,-135.18 595.98,-126.67"/>
<polygon fill="midnightblue" stroke="midnightblue" points="596.74,-130.1 606.28,-125.5 595.95,-123.15 596.74,-130.1"/>
</g>
<!-- Node17 -->
<g id="node17" class="node">
<title>Node17</title>
<g id="a_node17"><a xlink:href="Utils_8h.html" target="_top" xlink:title=" ">
<polygon fill="none" stroke="black" points="921,-56.5 921,-75.5 1040,-75.5 1040,-56.5 921,-56.5"/>
<text text-anchor="middle" x="980.5" y="-63.5" font-family="FreeSans.ttf" font-size="10.00">iDynTree/Core/Utils.h</text>
</a>
</g>
</g>
<!-- Node16&#45;&gt;Node17 -->
<g id="edge18" class="edge">
<title>Node16&#45;&gt;Node17</title>
<path fill="none" stroke="midnightblue" d="M204.96,-168.46C289.53,-155.55 455.87,-130.59 597.5,-112 706.77,-97.66 833.87,-83.15 910.69,-74.63"/>
<polygon fill="midnightblue" stroke="midnightblue" points="911.18,-78.09 920.73,-73.51 910.41,-71.14 911.18,-78.09"/>
</g>
<!-- Node19 -->
<g id="node19" class="node">
<title>Node19</title>
<g id="a_node19"><a xlink:title=" ">
<polygon fill="none" stroke="#bfbfbf" points="0,-112.5 0,-131.5 47,-131.5 47,-112.5 0,-112.5"/>
<text text-anchor="middle" x="23.5" y="-119.5" font-family="FreeSans.ttf" font-size="10.00">vector</text>
</a>
</g>
</g>
<!-- Node16&#45;&gt;Node19 -->
<g id="edge21" class="edge">
<title>Node16&#45;&gt;Node19</title>
<path fill="none" stroke="midnightblue" d="M129.53,-168.44C108.89,-159.6 76.44,-145.69 52.87,-135.59"/>
<polygon fill="midnightblue" stroke="midnightblue" points="53.94,-132.24 43.37,-131.52 51.18,-138.67 53.94,-132.24"/>
</g>
<!-- Node20 -->
<g id="node20" class="node">
<title>Node20</title>
<g id="a_node20"><a xlink:title=" ">
<polygon fill="none" stroke="#bfbfbf" points="65.5,-112.5 65.5,-131.5 151.5,-131.5 151.5,-112.5 65.5,-112.5"/>
<text text-anchor="middle" x="108.5" y="-119.5" font-family="FreeSans.ttf" font-size="10.00">unordered_set</text>
</a>
</g>
</g>
<!-- Node16&#45;&gt;Node20 -->
<g id="edge23" class="edge">
<title>Node16&#45;&gt;Node20</title>
<path fill="none" stroke="midnightblue" d="M142.73,-168.08C136.94,-160.46 128.44,-149.26 121.36,-139.94"/>
<polygon fill="midnightblue" stroke="midnightblue" points="123.98,-137.6 115.14,-131.75 118.4,-141.83 123.98,-137.6"/>
</g>
<!-- Node17&#45;&gt;Node4 -->
<g id="edge19" class="edge">
<title>Node17&#45;&gt;Node4</title>
<path fill="none" stroke="midnightblue" d="M920.88,-59.62C797.82,-48.53 518.84,-23.38 418.4,-14.33"/>
<polygon fill="midnightblue" stroke="midnightblue" points="418.43,-10.81 408.15,-13.4 417.8,-17.79 418.43,-10.81"/>
</g>
<!-- Node18 -->
<g id="node18" class="node">
<title>Node18</title>
<g id="a_node18"><a xlink:title=" ">
<polygon fill="none" stroke="#bfbfbf" points="1024.5,-0.5 1024.5,-19.5 1104.5,-19.5 1104.5,-0.5 1024.5,-0.5"/>
<text text-anchor="middle" x="1064.5" y="-7.5" font-family="FreeSans.ttf" font-size="10.00">CoreExport.h</text>
</a>
</g>
</g>
<!-- Node17&#45;&gt;Node18 -->
<g id="edge20" class="edge">
<title>Node17&#45;&gt;Node18</title>
<path fill="none" stroke="midnightblue" d="M994,-56.32C1007.1,-47.9 1027.21,-34.97 1042.61,-25.07"/>
<polygon fill="midnightblue" stroke="midnightblue" points="1044.52,-28.01 1051.04,-19.65 1040.73,-22.12 1044.52,-28.01"/>
</g>
<!-- Node21&#45;&gt;Node5 -->
<g id="edge26" class="edge">
<title>Node21&#45;&gt;Node5</title>
<path fill="none" stroke="midnightblue" d="M553.5,-392.44C553.5,-373.94 553.5,-328.81 553.5,-291 553.5,-291 553.5,-291 553.5,-233 553.5,-202.2 560.09,-193.4 577.5,-168 585.53,-156.28 597.28,-145.64 607.47,-137.65"/>
<polygon fill="midnightblue" stroke="midnightblue" points="609.65,-140.39 615.56,-131.59 605.46,-134.79 609.65,-140.39"/>
</g>
<!-- Node22 -->
<g id="node22" class="node">
<title>Node22</title>
<g id="a_node22"><a xlink:href="MatrixView_8h.html" target="_top" xlink:title=" ">
<polygon fill="none" stroke="black" points="744.5,-112.5 744.5,-131.5 896.5,-131.5 896.5,-112.5 744.5,-112.5"/>
<text text-anchor="middle" x="820.5" y="-119.5" font-family="FreeSans.ttf" font-size="10.00">iDynTree/Core/MatrixView.h</text>
</a>
</g>
</g>
<!-- Node21&#45;&gt;Node22 -->
<g id="edge27" class="edge">
<title>Node21&#45;&gt;Node22</title>
<path fill="none" stroke="midnightblue" d="M558.78,-392.23C569.23,-374.04 591.5,-330.6 591.5,-291 591.5,-291 591.5,-291 591.5,-233 591.5,-167.14 669.42,-140.68 734.36,-130.07"/>
<polygon fill="midnightblue" stroke="midnightblue" points="734.89,-133.53 744.25,-128.56 733.83,-126.61 734.89,-133.53"/>
</g>
<!-- Node22&#45;&gt;Node7 -->
<g id="edge30" class="edge">
<title>Node22&#45;&gt;Node7</title>
<path fill="none" stroke="midnightblue" d="M817.69,-112.08C815.42,-104.85 812.13,-94.41 809.29,-85.4"/>
<polygon fill="midnightblue" stroke="midnightblue" points="812.6,-84.24 806.25,-75.75 805.92,-86.34 812.6,-84.24"/>
</g>
<!-- Node22&#45;&gt;Node8 -->
<g id="edge28" class="edge">
<title>Node22&#45;&gt;Node8</title>
<path fill="none" stroke="midnightblue" d="M829.72,-112.22C845.26,-97.97 878.22,-70.01 911.5,-56 992.68,-21.84 1022.35,-38.15 1112.39,-20.05"/>
<polygon fill="midnightblue" stroke="midnightblue" points="1113.11,-23.47 1122.18,-18 1111.67,-16.62 1113.11,-23.47"/>
</g>
<!-- Node22&#45;&gt;Node14 -->
<g id="edge29" class="edge">
<title>Node22&#45;&gt;Node14</title>
<path fill="none" stroke="midnightblue" d="M803.93,-112.31C774.21,-96.78 712.83,-65.06 690.5,-56 657.38,-42.57 618.63,-30.52 589.99,-22.28"/>
<polygon fill="midnightblue" stroke="midnightblue" points="590.88,-18.9 580.3,-19.53 588.97,-25.63 590.88,-18.9"/>
</g>
<!-- Node22&#45;&gt;Node17 -->
<g id="edge31" class="edge">
<title>Node22&#45;&gt;Node17</title>
<path fill="none" stroke="midnightblue" d="M845.85,-112.44C872.77,-103.36 915.5,-88.94 945.59,-78.78"/>
<polygon fill="midnightblue" stroke="midnightblue" points="946.91,-82.03 955.27,-75.52 944.67,-75.4 946.91,-82.03"/>
</g>
<!-- Node23&#45;&gt;Node6 -->
<g id="edge33" class="edge">
<title>Node23&#45;&gt;Node6</title>
<path fill="none" stroke="midnightblue" d="M501.19,-453.85C489.14,-444.75 471.08,-429.37 460.5,-412 444.85,-386.29 441.5,-377.1 441.5,-347 441.5,-347 441.5,-347 441.5,-289 441.5,-256.95 441.93,-219.64 442.23,-197.75"/>
<polygon fill="midnightblue" stroke="midnightblue" points="445.73,-197.61 442.37,-187.56 438.73,-197.51 445.73,-197.61"/>
</g>
<!-- Node23&#45;&gt;Node21 -->
<g id="edge34" class="edge">
<title>Node23&#45;&gt;Node21</title>
<path fill="none" stroke="midnightblue" d="M519.23,-453.98C525.17,-445.14 534.62,-431.09 542.09,-419.98"/>
<polygon fill="midnightblue" stroke="midnightblue" points="545.11,-421.76 547.78,-411.51 539.3,-417.86 545.11,-421.76"/>
</g>
<!-- Node24 -->
<g id="node24" class="node">
<title>Node24</title>
<g id="a_node24"><a xlink:href="Transform_8h.html" target="_top" xlink:title=" ">
<polygon fill="none" stroke="black" points="740.5,-392.5 740.5,-411.5 886.5,-411.5 886.5,-392.5 740.5,-392.5"/>
<text text-anchor="middle" x="813.5" y="-399.5" font-family="FreeSans.ttf" font-size="10.00">iDynTree/Core/Transform.h</text>
</a>
</g>
</g>
<!-- Node23&#45;&gt;Node24 -->
<g id="edge35" class="edge">
<title>Node23&#45;&gt;Node24</title>
<path fill="none" stroke="midnightblue" d="M556.48,-453.98C610.28,-443.3 702.41,-425.03 760.51,-413.51"/>
<polygon fill="midnightblue" stroke="midnightblue" points="761.47,-416.89 770.6,-411.51 760.11,-410.02 761.47,-416.89"/>
</g>
<!-- Node24&#45;&gt;Node5 -->
<g id="edge65" class="edge">
<title>Node24&#45;&gt;Node5</title>
<path fill="none" stroke="midnightblue" d="M781.46,-392.44C738.48,-378.78 667.5,-347.65 667.5,-291 667.5,-291 667.5,-291 667.5,-233 667.5,-198.72 650.46,-161.7 638.91,-140.54"/>
<polygon fill="midnightblue" stroke="midnightblue" points="641.9,-138.72 633.92,-131.75 635.81,-142.17 641.9,-138.72"/>
</g>
<!-- Node25 -->
<g id="node25" class="node">
<title>Node25</title>
<g id="a_node25"><a xlink:href="Position_8h.html" target="_top" xlink:title=" ">
<polygon fill="none" stroke="black" points="729.5,-336.5 729.5,-355.5 865.5,-355.5 865.5,-336.5 729.5,-336.5"/>
<text text-anchor="middle" x="797.5" y="-343.5" font-family="FreeSans.ttf" font-size="10.00">iDynTree/Core/Position.h</text>
</a>
</g>
</g>
<!-- Node24&#45;&gt;Node25 -->
<g id="edge36" class="edge">
<title>Node24&#45;&gt;Node25</title>
<path fill="none" stroke="midnightblue" d="M810.86,-392.08C808.71,-384.85 805.62,-374.41 802.95,-365.4"/>
<polygon fill="midnightblue" stroke="midnightblue" points="806.29,-364.34 800.09,-355.75 799.58,-366.33 806.29,-364.34"/>
</g>
<!-- Node30 -->
<g id="node30" class="node">
<title>Node30</title>
<g id="a_node30"><a xlink:href="Rotation_8h.html" target="_top" xlink:title=" ">
<polygon fill="none" stroke="black" points="945.5,-280.5 945.5,-299.5 1083.5,-299.5 1083.5,-280.5 945.5,-280.5"/>
<text text-anchor="middle" x="1014.5" y="-287.5" font-family="FreeSans.ttf" font-size="10.00">iDynTree/Core/Rotation.h</text>
</a>
</g>
</g>
<!-- Node24&#45;&gt;Node30 -->
<g id="edge63" class="edge">
<title>Node24&#45;&gt;Node30</title>
<path fill="none" stroke="midnightblue" d="M829.27,-392.37C864.13,-373.29 947.95,-327.42 989.82,-304.51"/>
<polygon fill="midnightblue" stroke="midnightblue" points="991.71,-307.46 998.8,-299.59 988.35,-301.32 991.71,-307.46"/>
</g>
<!-- Node33 -->
<g id="node33" class="node">
<title>Node33</title>
<g id="a_node33"><a xlink:href="MatrixFixSize_8h.html" target="_top" xlink:title=" ">
<polygon fill="none" stroke="black" points="1165,-168.5 1165,-187.5 1328,-187.5 1328,-168.5 1165,-168.5"/>
<text text-anchor="middle" x="1246.5" y="-175.5" font-family="FreeSans.ttf" font-size="10.00">iDynTree/Core/MatrixFixSize.h</text>
</a>
</g>
</g>
<!-- Node24&#45;&gt;Node33 -->
<g id="edge64" class="edge">
<title>Node24&#45;&gt;Node33</title>
<path fill="none" stroke="midnightblue" d="M852.7,-392.48C925.51,-375.07 1083.71,-329.64 1188.5,-244 1205.98,-229.71 1222.8,-209.98 1233.78,-196.02"/>
<polygon fill="midnightblue" stroke="midnightblue" points="1236.79,-197.85 1240.11,-187.79 1231.24,-193.59 1236.79,-197.85"/>
</g>
<!-- Node25&#45;&gt;Node5 -->
<g id="edge62" class="edge">
<title>Node25&#45;&gt;Node5</title>
<path fill="none" stroke="midnightblue" d="M790.72,-336.31C777.4,-319.11 747.16,-279.33 724.5,-244 703.55,-211.33 706.23,-197.91 681.5,-168 672.13,-156.66 659.67,-145.92 649.18,-137.78"/>
<polygon fill="midnightblue" stroke="midnightblue" points="651.05,-134.8 640.95,-131.59 646.84,-140.4 651.05,-134.8"/>
</g>
<!-- Node26 -->
<g id="node26" class="node">
<title>Node26</title>
<g id="a_node26"><a xlink:href="PositionRaw_8h.html" target="_top" xlink:title=" ">
<polygon fill="none" stroke="black" points="733.5,-224.5 733.5,-243.5 889.5,-243.5 889.5,-224.5 733.5,-224.5"/>
<text text-anchor="middle" x="811.5" y="-231.5" font-family="FreeSans.ttf" font-size="10.00">iDynTree/Core/PositionRaw.h</text>
</a>
</g>
</g>
<!-- Node25&#45;&gt;Node26 -->
<g id="edge37" class="edge">
<title>Node25&#45;&gt;Node26</title>
<path fill="none" stroke="midnightblue" d="M798.6,-336.37C800.86,-318.62 806.07,-277.67 809.13,-253.6"/>
<polygon fill="midnightblue" stroke="midnightblue" points="812.62,-253.95 810.41,-243.59 805.67,-253.07 812.62,-253.95"/>
</g>
<!-- Node25&#45;&gt;Node30 -->
<g id="edge47" class="edge">
<title>Node25&#45;&gt;Node30</title>
<path fill="none" stroke="midnightblue" d="M831.88,-336.44C869.42,-327.1 929.63,-312.12 970.57,-301.93"/>
<polygon fill="midnightblue" stroke="midnightblue" points="971.42,-305.33 980.28,-299.52 969.73,-298.53 971.42,-305.33"/>
</g>
<!-- Node26&#45;&gt;Node5 -->
<g id="edge46" class="edge">
<title>Node26&#45;&gt;Node5</title>
<path fill="none" stroke="midnightblue" d="M800.55,-224.41C783.68,-211.38 750.08,-186.21 719.5,-168 699.35,-156 675.56,-144.31 657.35,-135.86"/>
<polygon fill="midnightblue" stroke="midnightblue" points="658.68,-132.62 648.14,-131.63 655.77,-138.98 658.68,-132.62"/>
</g>
<!-- Node27 -->
<g id="node27" class="node">
<title>Node27</title>
<g id="a_node27"><a xlink:href="VectorFixSize_8h.html" target="_top" xlink:title=" ">
<polygon fill="none" stroke="black" points="984.5,-168.5 984.5,-187.5 1146.5,-187.5 1146.5,-168.5 984.5,-168.5"/>
<text text-anchor="middle" x="1065.5" y="-175.5" font-family="FreeSans.ttf" font-size="10.00">iDynTree/Core/VectorFixSize.h</text>
</a>
</g>
</g>
<!-- Node26&#45;&gt;Node27 -->
<g id="edge38" class="edge">
<title>Node26&#45;&gt;Node27</title>
<path fill="none" stroke="midnightblue" d="M851.75,-224.44C896.15,-215 967.65,-199.8 1015.59,-189.61"/>
<polygon fill="midnightblue" stroke="midnightblue" points="1016.39,-193.02 1025.44,-187.52 1014.93,-186.17 1016.39,-193.02"/>
</g>
<!-- Node27&#45;&gt;Node4 -->
<g id="edge44" class="edge">
<title>Node27&#45;&gt;Node4</title>
<path fill="none" stroke="midnightblue" d="M984.41,-170.88C915.41,-164.57 814.01,-152.66 727.5,-132 665.28,-117.14 487.39,-51 413.89,-23.28"/>
<polygon fill="midnightblue" stroke="midnightblue" points="414.82,-19.89 404.23,-19.63 412.35,-26.44 414.82,-19.89"/>
</g>
<!-- Node27&#45;&gt;Node5 -->
<g id="edge41" class="edge">
<title>Node27&#45;&gt;Node5</title>
<path fill="none" stroke="midnightblue" d="M984.32,-169.18C885.36,-159.43 723.96,-142.72 664.5,-132 663.25,-131.77 661.98,-131.53 660.7,-131.27"/>
<polygon fill="midnightblue" stroke="midnightblue" points="661.39,-127.84 650.87,-129.08 659.87,-134.67 661.39,-127.84"/>
</g>
<!-- Node27&#45;&gt;Node7 -->
<g id="edge40" class="edge">
<title>Node27&#45;&gt;Node7</title>
<path fill="none" stroke="midnightblue" d="M984.45,-168.63C889.41,-158.41 743.66,-141.35 735.5,-132 718.57,-112.6 748.28,-92.45 773.6,-79.82"/>
<polygon fill="midnightblue" stroke="midnightblue" points="775.11,-82.98 782.64,-75.53 772.1,-76.66 775.11,-82.98"/>
</g>
<!-- Node27&#45;&gt;Node8 -->
<g id="edge43" class="edge">
<title>Node27&#45;&gt;Node8</title>
<path fill="none" stroke="midnightblue" d="M1067.78,-168.36C1071.26,-155.68 1078.47,-131.45 1087.5,-112 1101.89,-81.03 1123.41,-47.56 1136.67,-27.98"/>
<polygon fill="midnightblue" stroke="midnightblue" points="1139.67,-29.79 1142.45,-19.56 1133.9,-25.83 1139.67,-29.79"/>
</g>
<!-- Node27&#45;&gt;Node17 -->
<g id="edge39" class="edge">
<title>Node27&#45;&gt;Node17</title>
<path fill="none" stroke="midnightblue" d="M1058.83,-168.37C1044.74,-150.14 1011.74,-107.43 993.39,-83.68"/>
<polygon fill="midnightblue" stroke="midnightblue" points="996.02,-81.36 987.14,-75.59 990.48,-85.64 996.02,-81.36"/>
</g>
<!-- Node28 -->
<g id="node28" class="node">
<title>Node28</title>
<g id="a_node28"><a xlink:title=" ">
<polygon fill="none" stroke="#bfbfbf" points="1202.5,-112.5 1202.5,-131.5 1258.5,-131.5 1258.5,-112.5 1202.5,-112.5"/>
<text text-anchor="middle" x="1230.5" y="-119.5" font-family="FreeSans.ttf" font-size="10.00">sstream</text>
</a>
</g>
</g>
<!-- Node27&#45;&gt;Node28 -->
<g id="edge42" class="edge">
<title>Node27&#45;&gt;Node28</title>
<path fill="none" stroke="midnightblue" d="M1091.64,-168.44C1119.52,-159.32 1163.85,-144.81 1194.9,-134.65"/>
<polygon fill="midnightblue" stroke="midnightblue" points="1196.06,-137.95 1204.48,-131.52 1193.88,-131.3 1196.06,-137.95"/>
</g>
<!-- Node29 -->
<g id="node29" class="node">
<title>Node29</title>
<g id="a_node29"><a xlink:title=" ">
<polygon fill="none" stroke="#bfbfbf" points="1096.5,-112.5 1096.5,-131.5 1146.5,-131.5 1146.5,-112.5 1096.5,-112.5"/>
<text text-anchor="middle" x="1121.5" y="-119.5" font-family="FreeSans.ttf" font-size="10.00">cstring</text>
</a>
</g>
</g>
<!-- Node27&#45;&gt;Node29 -->
<g id="edge45" class="edge">
<title>Node27&#45;&gt;Node29</title>
<path fill="none" stroke="midnightblue" d="M1074.5,-168.32C1082.69,-160.42 1095.01,-148.55 1104.97,-138.94"/>
<polygon fill="midnightblue" stroke="midnightblue" points="1107.57,-141.29 1112.34,-131.83 1102.71,-136.26 1107.57,-141.29"/>
</g>
<!-- Node30&#45;&gt;Node5 -->
<g id="edge48" class="edge">
<title>Node30&#45;&gt;Node5</title>
<path fill="none" stroke="midnightblue" d="M1000.93,-280.49C979.63,-267.35 936.82,-241.78 898.5,-224 814.83,-185.18 711.69,-149.91 660.48,-133.2"/>
<polygon fill="midnightblue" stroke="midnightblue" points="661.25,-129.77 650.66,-130.01 659.09,-136.42 661.25,-129.77"/>
</g>
<!-- Node30&#45;&gt;Node27 -->
<g id="edge61" class="edge">
<title>Node30&#45;&gt;Node27</title>
<path fill="none" stroke="midnightblue" d="M1011.82,-280.09C1008.42,-267.09 1003.97,-242.44 1012.5,-224 1018.42,-211.21 1029.97,-200.72 1040.78,-193.1"/>
<polygon fill="midnightblue" stroke="midnightblue" points="1042.71,-196.02 1049.17,-187.61 1038.88,-190.16 1042.71,-196.02"/>
</g>
<!-- Node31 -->
<g id="node31" class="node">
<title>Node31</title>
<g id="a_node31"><a xlink:href="GeomVector3_8h.html" target="_top" xlink:title=" ">
<polygon fill="none" stroke="black" points="1274,-224.5 1274,-243.5 1437,-243.5 1437,-224.5 1274,-224.5"/>
<text text-anchor="middle" x="1355.5" y="-231.5" font-family="FreeSans.ttf" font-size="10.00">iDynTree/Core/GeomVector3.h</text>
</a>
</g>
</g>
<!-- Node30&#45;&gt;Node31 -->
<g id="edge49" class="edge">
<title>Node30&#45;&gt;Node31</title>
<path fill="none" stroke="midnightblue" d="M1068.53,-280.44C1129.14,-270.85 1227.36,-255.29 1291.7,-245.1"/>
<polygon fill="midnightblue" stroke="midnightblue" points="1292.39,-248.54 1301.72,-243.52 1291.3,-241.62 1292.39,-248.54"/>
</g>
<!-- Node32 -->
<g id="node32" class="node">
<title>Node32</title>
<g id="a_node32"><a xlink:href="RotationRaw_8h.html" target="_top" xlink:title=" ">
<polygon fill="none" stroke="black" points="1021.5,-224.5 1021.5,-243.5 1179.5,-243.5 1179.5,-224.5 1021.5,-224.5"/>
<text text-anchor="middle" x="1100.5" y="-231.5" font-family="FreeSans.ttf" font-size="10.00">iDynTree/Core/RotationRaw.h</text>
</a>
</g>
</g>
<!-- Node30&#45;&gt;Node32 -->
<g id="edge51" class="edge">
<title>Node30&#45;&gt;Node32</title>
<path fill="none" stroke="midnightblue" d="M1028.32,-280.32C1041.73,-271.9 1062.32,-258.97 1078.09,-249.07"/>
<polygon fill="midnightblue" stroke="midnightblue" points="1080.11,-251.94 1086.72,-243.65 1076.39,-246.01 1080.11,-251.94"/>
</g>
<!-- Node31&#45;&gt;Node27 -->
<g id="edge50" class="edge">
<title>Node31&#45;&gt;Node27</title>
<path fill="none" stroke="midnightblue" d="M1309.55,-224.44C1258.43,-214.92 1175.85,-199.55 1121.12,-189.36"/>
<polygon fill="midnightblue" stroke="midnightblue" points="1121.71,-185.91 1111.24,-187.52 1120.43,-192.79 1121.71,-185.91"/>
</g>
<!-- Node32&#45;&gt;Node5 -->
<g id="edge60" class="edge">
<title>Node32&#45;&gt;Node5</title>
<path fill="none" stroke="midnightblue" d="M1077.34,-224.43C1039.55,-210.74 962.04,-183.85 894.5,-168 793.77,-144.37 765.9,-152.57 664.5,-132 663.22,-131.74 661.92,-131.47 660.61,-131.18"/>
<polygon fill="midnightblue" stroke="midnightblue" points="661.05,-127.69 650.51,-128.84 659.46,-134.51 661.05,-127.69"/>
</g>
<!-- Node32&#45;&gt;Node33 -->
<g id="edge52" class="edge">
<title>Node32&#45;&gt;Node33</title>
<path fill="none" stroke="midnightblue" d="M1123.63,-224.44C1147.98,-215.44 1186.51,-201.19 1213.92,-191.05"/>
<polygon fill="midnightblue" stroke="midnightblue" points="1215.31,-194.27 1223.47,-187.52 1212.88,-187.7 1215.31,-194.27"/>
</g>
<!-- Node33&#45;&gt;Node5 -->
<g id="edge57" class="edge">
<title>Node33&#45;&gt;Node5</title>
<path fill="none" stroke="midnightblue" d="M1164.65,-168.85C1161.56,-168.56 1158.5,-168.28 1155.5,-168 1106.33,-163.47 767.69,-134.78 660.77,-125.73"/>
<polygon fill="midnightblue" stroke="midnightblue" points="660.86,-122.23 650.6,-124.87 660.27,-129.2 660.86,-122.23"/>
</g>
<!-- Node33&#45;&gt;Node8 -->
<g id="edge55" class="edge">
<title>Node33&#45;&gt;Node8</title>
<path fill="none" stroke="midnightblue" d="M1253.32,-168.34C1262.44,-155.64 1276.47,-131.37 1267.5,-112 1248.6,-71.17 1204.16,-40.82 1175.26,-24.53"/>
<polygon fill="midnightblue" stroke="midnightblue" points="1176.93,-21.45 1166.47,-19.74 1173.58,-27.6 1176.93,-21.45"/>
</g>
<!-- Node33&#45;&gt;Node17 -->
<g id="edge53" class="edge">
<title>Node33&#45;&gt;Node17</title>
<path fill="none" stroke="midnightblue" d="M1237.15,-168.5C1221.44,-154.65 1188.23,-127.25 1155.5,-112 1120.3,-95.6 1078.23,-84.54 1044.16,-77.49"/>
<polygon fill="midnightblue" stroke="midnightblue" points="1044.81,-74.05 1034.32,-75.52 1043.43,-80.91 1044.81,-74.05"/>
</g>
<!-- Node33&#45;&gt;Node22 -->
<g id="edge54" class="edge">
<title>Node33&#45;&gt;Node22</title>
<path fill="none" stroke="midnightblue" d="M1179,-168.44C1102.5,-158.75 978.05,-142.97 897.74,-132.79"/>
<polygon fill="midnightblue" stroke="midnightblue" points="898.05,-129.3 887.69,-131.52 897.17,-136.25 898.05,-129.3"/>
</g>
<!-- Node33&#45;&gt;Node28 -->
<g id="edge59" class="edge">
<title>Node33&#45;&gt;Node28</title>
<path fill="none" stroke="midnightblue" d="M1243.86,-168.08C1241.71,-160.85 1238.62,-150.41 1235.95,-141.4"/>
<polygon fill="midnightblue" stroke="midnightblue" points="1239.29,-140.34 1233.09,-131.75 1232.58,-142.33 1239.29,-140.34"/>
</g>
<!-- Node33&#45;&gt;Node29 -->
<g id="edge56" class="edge">
<title>Node33&#45;&gt;Node29</title>
<path fill="none" stroke="midnightblue" d="M1226.69,-168.44C1206.21,-159.6 1174.02,-145.69 1150.64,-135.59"/>
<polygon fill="midnightblue" stroke="midnightblue" points="1151.78,-132.27 1141.21,-131.52 1149.01,-138.7 1151.78,-132.27"/>
</g>
<!-- Node34 -->
<g id="node34" class="node">
<title>Node34</title>
<g id="a_node34"><a xlink:title=" ">
<polygon fill="none" stroke="#bfbfbf" points="1442.5,-112.5 1442.5,-131.5 1502.5,-131.5 1502.5,-112.5 1442.5,-112.5"/>
<text text-anchor="middle" x="1472.5" y="-119.5" font-family="FreeSans.ttf" font-size="10.00">iostream</text>
</a>
</g>
</g>
<!-- Node33&#45;&gt;Node34 -->
<g id="edge58" class="edge">
<title>Node33&#45;&gt;Node34</title>
<path fill="none" stroke="midnightblue" d="M1282.31,-168.44C1323.22,-158.67 1389.97,-142.72 1432.54,-132.55"/>
<polygon fill="midnightblue" stroke="midnightblue" points="1433.37,-135.95 1442.28,-130.22 1431.74,-129.14 1433.37,-135.95"/>
</g>
<!-- Node36&#45;&gt;Node4 -->
<g id="edge70" class="edge">
<title>Node36&#45;&gt;Node4</title>
<path fill="none" stroke="midnightblue" d="M991.69,-522.43C824.13,-518.61 450.15,-507.04 399.5,-479 363.02,-458.81 344.5,-444.69 344.5,-403 344.5,-403 344.5,-403 344.5,-289 344.5,-235.18 342.99,-221.43 349.5,-168 355.65,-117.54 369.32,-59.12 376.65,-29.82"/>
<polygon fill="midnightblue" stroke="midnightblue" points="380.13,-30.33 379.2,-19.77 373.34,-28.6 380.13,-30.33"/>
</g>
<!-- Node36&#45;&gt;Node6 -->
<g id="edge72" class="edge">
<title>Node36&#45;&gt;Node6</title>
<path fill="none" stroke="midnightblue" d="M991.96,-523.64C827.56,-522.15 465.23,-514.8 422.5,-479 395.81,-456.64 403.5,-437.82 403.5,-403 403.5,-403 403.5,-403 403.5,-289 403.5,-254.72 420.54,-217.7 432.09,-196.54"/>
<polygon fill="midnightblue" stroke="midnightblue" points="435.19,-198.17 437.08,-187.75 429.1,-194.72 435.19,-198.17"/>
</g>
<!-- Node36&#45;&gt;Node17 -->
<g id="edge91" class="edge">
<title>Node36&#45;&gt;Node17</title>
<path fill="none" stroke="midnightblue" d="M1064.84,-515.46C1040.14,-487.29 962.73,-393.76 936.5,-300 914.4,-221.03 953.34,-123.88 971.7,-84.66"/>
<polygon fill="midnightblue" stroke="midnightblue" points="974.88,-86.11 976.07,-75.59 968.58,-83.07 974.88,-86.11"/>
</g>
<!-- Node36&#45;&gt;Node21 -->
<g id="edge74" class="edge">
<title>Node36&#45;&gt;Node21</title>
<path fill="none" stroke="midnightblue" d="M1032.18,-515.48C990.6,-506.63 923.93,-492.24 866.5,-479 770.44,-456.85 658.24,-429.16 597.69,-414.07"/>
<polygon fill="midnightblue" stroke="midnightblue" points="598.26,-410.61 587.71,-411.58 596.57,-417.4 598.26,-410.61"/>
</g>
<!-- Node36&#45;&gt;Node24 -->
<g id="edge90" class="edge">
<title>Node36&#45;&gt;Node24</title>
<path fill="none" stroke="midnightblue" d="M1028.23,-515.47C996.38,-508.31 952.96,-496.43 917.5,-479 884.11,-462.59 850.19,-435.41 830.54,-418.39"/>
<polygon fill="midnightblue" stroke="midnightblue" points="832.61,-415.55 822.8,-411.57 827.98,-420.8 832.61,-415.55"/>
</g>
<!-- Node36&#45;&gt;Node27 -->
<g id="edge73" class="edge">
<title>Node36&#45;&gt;Node27</title>
<path fill="none" stroke="midnightblue" d="M1153.14,-524.59C1255.83,-523.75 1425.81,-516.48 1474.5,-479 1525.89,-439.44 1511.42,-400.36 1503.5,-336 1497.13,-284.24 1509.65,-256.04 1468.5,-224 1465.43,-221.61 1274.81,-201.1 1156.86,-188.61"/>
<polygon fill="midnightblue" stroke="midnightblue" points="1157.06,-185.11 1146.74,-187.54 1156.32,-192.07 1157.06,-185.11"/>
</g>
<!-- Node36&#45;&gt;Node33 -->
<g id="edge75" class="edge">
<title>Node36&#45;&gt;Node33</title>
<path fill="none" stroke="midnightblue" d="M1153.16,-521.81C1259.9,-517.85 1441.58,-507.1 1501.5,-479 1545.32,-458.45 1579.5,-451.4 1579.5,-403 1579.5,-403 1579.5,-403 1579.5,-345 1579.5,-278.5 1547.77,-259.42 1491.5,-224 1466.2,-208.07 1396.77,-196.23 1338.26,-188.7"/>
<polygon fill="midnightblue" stroke="midnightblue" points="1338.58,-185.21 1328.22,-187.43 1337.71,-192.15 1338.58,-185.21"/>
</g>
<!-- Node37 -->
<g id="node37" class="node">
<title>Node37</title>
<g id="a_node37"><a xlink:title=" ">
<polygon fill="none" stroke="#bfbfbf" points="1608,-454 1608,-473 1685,-473 1685,-454 1608,-454"/>
<text text-anchor="middle" x="1646.5" y="-461" font-family="FreeSans.ttf" font-size="10.00">Eigen/Dense</text>
</a>
</g>
</g>
<!-- Node36&#45;&gt;Node37 -->
<g id="edge71" class="edge">
<title>Node36&#45;&gt;Node37</title>
<path fill="none" stroke="midnightblue" d="M1153.42,-521.54C1256.37,-517.38 1439.33,-506.51 1593.5,-479 1598.59,-478.09 1603.91,-476.92 1609.12,-475.63"/>
<polygon fill="midnightblue" stroke="midnightblue" points="1610.15,-478.98 1618.93,-473.06 1608.37,-472.21 1610.15,-478.98"/>
</g>
<!-- Node38 -->
<g id="node38" class="node">
<title>Node38</title>
<g id="a_node38"><a xlink:href="SpatialMotionVector_8h.html" target="_top" xlink:title=" ">
<polygon fill="none" stroke="black" points="1310,-448.5 1310,-478.5 1465,-478.5 1465,-448.5 1310,-448.5"/>
<text text-anchor="start" x="1318" y="-466.5" font-family="FreeSans.ttf" font-size="10.00">iDynTree/Core/SpatialMotion</text>
<text text-anchor="middle" x="1387.5" y="-455.5" font-family="FreeSans.ttf" font-size="10.00">Vector.h</text>
</a>
</g>
</g>
<!-- Node36&#45;&gt;Node38 -->
<g id="edge76" class="edge">
<title>Node36&#45;&gt;Node38</title>
<path fill="none" stroke="midnightblue" d="M1117.63,-515.48C1165.88,-506.36 1243.47,-491.71 1303.1,-480.44"/>
<polygon fill="midnightblue" stroke="midnightblue" points="1304.08,-483.82 1313.26,-478.52 1302.78,-476.94 1304.08,-483.82"/>
</g>
<!-- Node40 -->
<g id="node40" class="node">
<title>Node40</title>
<g id="a_node40"><a xlink:href="SpatialForceVector_8h.html" target="_top" xlink:title=" ">
<polygon fill="none" stroke="black" points="1139.5,-448.5 1139.5,-478.5 1287.5,-478.5 1287.5,-448.5 1139.5,-448.5"/>
<text text-anchor="start" x="1147.5" y="-466.5" font-family="FreeSans.ttf" font-size="10.00">iDynTree/Core/SpatialForce</text>
<text text-anchor="middle" x="1213.5" y="-455.5" font-family="FreeSans.ttf" font-size="10.00">Vector.h</text>
</a>
</g>
</g>
<!-- Node36&#45;&gt;Node40 -->
<g id="edge86" class="edge">
<title>Node36&#45;&gt;Node40</title>
<path fill="none" stroke="midnightblue" d="M1092.7,-515.48C1113.05,-506.89 1145.06,-493.38 1171.01,-482.43"/>
<polygon fill="midnightblue" stroke="midnightblue" points="1172.42,-485.64 1180.27,-478.52 1169.7,-479.19 1172.42,-485.64"/>
</g>
<!-- Node38&#45;&gt;Node27 -->
<g id="edge77" class="edge">
<title>Node38&#45;&gt;Node27</title>
<path fill="none" stroke="midnightblue" d="M1437.88,-448.42C1455.81,-440.71 1474.11,-429.12 1484.5,-412 1492.52,-398.79 1502.38,-274.3 1446.5,-224 1441.13,-219.17 1267.88,-200.2 1156.88,-188.49"/>
<polygon fill="midnightblue" stroke="midnightblue" points="1156.98,-184.98 1146.67,-187.41 1156.25,-191.94 1156.98,-184.98"/>
</g>
<!-- Node38&#45;&gt;Node31 -->
<g id="edge78" class="edge">
<title>Node38&#45;&gt;Node31</title>
<path fill="none" stroke="midnightblue" d="M1348.38,-448.48C1332.07,-440.47 1314.79,-428.64 1305.5,-412 1275.33,-357.98 1319.48,-284.32 1342.73,-251.71"/>
<polygon fill="midnightblue" stroke="midnightblue" points="1345.55,-253.78 1348.65,-243.65 1339.91,-249.64 1345.55,-253.78"/>
</g>
<!-- Node39 -->
<g id="node39" class="node">
<title>Node39</title>
<g id="a_node39"><a xlink:href="SpatialVector_8h.html" target="_top" xlink:title=" ">
<polygon fill="none" stroke="black" points="1314,-392.5 1314,-411.5 1475,-411.5 1475,-392.5 1314,-392.5"/>
<text text-anchor="middle" x="1394.5" y="-399.5" font-family="FreeSans.ttf" font-size="10.00">iDynTree/Core/SpatialVector.h</text>
</a>
</g>
</g>
<!-- Node38&#45;&gt;Node39 -->
<g id="edge79" class="edge">
<title>Node38&#45;&gt;Node39</title>
<path fill="none" stroke="midnightblue" d="M1389.16,-448.4C1390.09,-440.47 1391.27,-430.46 1392.28,-421.86"/>
<polygon fill="midnightblue" stroke="midnightblue" points="1395.79,-422 1393.48,-411.66 1388.84,-421.18 1395.79,-422"/>
</g>
<!-- Node39&#45;&gt;Node17 -->
<g id="edge82" class="edge">
<title>Node39&#45;&gt;Node17</title>
<path fill="none" stroke="midnightblue" d="M1475.29,-399.53C1551.95,-393.34 1655.5,-370.29 1655.5,-291 1655.5,-291 1655.5,-291 1655.5,-177 1655.5,-106.78 1579.46,-129.66 1511.5,-112 1426.26,-89.84 1174.09,-75.75 1050.45,-69.99"/>
<polygon fill="midnightblue" stroke="midnightblue" points="1050.48,-66.48 1040.33,-69.52 1050.16,-73.48 1050.48,-66.48"/>
</g>
<!-- Node39&#45;&gt;Node25 -->
<g id="edge80" class="edge">
<title>Node39&#45;&gt;Node25</title>
<path fill="none" stroke="midnightblue" d="M1313.99,-393.72C1199.06,-383.32 989.33,-364.35 875.7,-354.07"/>
<polygon fill="midnightblue" stroke="midnightblue" points="875.95,-350.58 865.67,-353.17 875.32,-357.55 875.95,-350.58"/>
</g>
<!-- Node39&#45;&gt;Node28 -->
<g id="edge85" class="edge">
<title>Node39&#45;&gt;Node28</title>
<path fill="none" stroke="midnightblue" d="M1401.72,-392.25C1423,-365.31 1481.88,-281.95 1446.5,-224 1408.36,-161.52 1319.86,-137.17 1268.76,-128.08"/>
<polygon fill="midnightblue" stroke="midnightblue" points="1269.2,-124.6 1258.76,-126.41 1268.05,-131.51 1269.2,-124.6"/>
</g>
<!-- Node39&#45;&gt;Node30 -->
<g id="edge81" class="edge">
<title>Node39&#45;&gt;Node30</title>
<path fill="none" stroke="midnightblue" d="M1365,-392.46C1297.16,-372.82 1130.05,-324.45 1053.7,-302.35"/>
<polygon fill="midnightblue" stroke="midnightblue" points="1054.56,-298.95 1043.98,-299.53 1052.62,-305.68 1054.56,-298.95"/>
</g>
<!-- Node39&#45;&gt;Node31 -->
<g id="edge83" class="edge">
<title>Node39&#45;&gt;Node31</title>
<path fill="none" stroke="midnightblue" d="M1392.4,-392.08C1386.26,-365.95 1368.24,-289.21 1359.86,-253.58"/>
<polygon fill="midnightblue" stroke="midnightblue" points="1363.21,-252.5 1357.51,-243.57 1356.39,-254.1 1363.21,-252.5"/>
</g>
<!-- Node39&#45;&gt;Node34 -->
<g id="edge84" class="edge">
<title>Node39&#45;&gt;Node34</title>
<path fill="none" stroke="midnightblue" d="M1418.72,-392.48C1466.03,-374.19 1568.3,-326.03 1593.5,-244 1603.42,-211.71 1612.78,-195.74 1593.5,-168 1575.47,-142.05 1540.6,-131.04 1512.9,-126.38"/>
<polygon fill="midnightblue" stroke="midnightblue" points="1513.09,-122.87 1502.69,-124.88 1512.08,-129.79 1513.09,-122.87"/>
</g>
<!-- Node40&#45;&gt;Node27 -->
<g id="edge87" class="edge">
<title>Node40&#45;&gt;Node27</title>
<path fill="none" stroke="midnightblue" d="M1216.69,-448.27C1224.81,-408.16 1242,-292.62 1188.5,-224 1175.7,-207.59 1156.34,-197.16 1136.73,-190.53"/>
<polygon fill="midnightblue" stroke="midnightblue" points="1137.7,-187.17 1127.11,-187.58 1135.64,-193.86 1137.7,-187.17"/>
</g>
<!-- Node40&#45;&gt;Node31 -->
<g id="edge88" class="edge">
<title>Node40&#45;&gt;Node31</title>
<path fill="none" stroke="midnightblue" d="M1219.13,-448.36C1232.19,-416.51 1266.72,-337.42 1309.5,-280 1317.57,-269.16 1328.29,-258.52 1337.35,-250.31"/>
<polygon fill="midnightblue" stroke="midnightblue" points="1339.88,-252.74 1345.07,-243.51 1335.25,-247.49 1339.88,-252.74"/>
</g>
<!-- Node40&#45;&gt;Node39 -->
<g id="edge89" class="edge">
<title>Node40&#45;&gt;Node39</title>
<path fill="none" stroke="midnightblue" d="M1256.39,-448.4C1287.53,-438.16 1329.19,-424.47 1358.58,-414.81"/>
<polygon fill="midnightblue" stroke="midnightblue" points="1360.02,-418.02 1368.43,-411.57 1357.83,-411.37 1360.02,-418.02"/>
</g>
</g>
</svg>
