<?xml version="1.0" encoding="UTF-8" standalone="no"?>
<!DOCTYPE svg PUBLIC "-//W3C//DTD SVG 1.1//EN"
 "http://www.w3.org/Graphics/SVG/1.1/DTD/svg11.dtd">
<!-- Generated by graphviz version 2.43.0 (0)
 -->
<!-- Title: LinearSystem.h Pages: 1 -->
<svg width="1199pt" height="532pt"
 viewBox="0.00 0.00 1198.50 532.00" xmlns="http://www.w3.org/2000/svg" xmlns:xlink="http://www.w3.org/1999/xlink">
<g id="graph0" class="graph" transform="scale(1 1) rotate(0) translate(4 528)">
<title>LinearSystem.h</title>
<!-- Node1 -->
<g id="node1" class="node">
<title>Node1</title>
<g id="a_node1"><a xlink:title=" ">
<polygon fill="#bfbfbf" stroke="black" points="306.5,-504.5 306.5,-523.5 398.5,-523.5 398.5,-504.5 306.5,-504.5"/>
<text text-anchor="middle" x="352.5" y="-511.5" font-family="FreeSans.ttf" font-size="10.00">LinearSystem.h</text>
</a>
</g>
</g>
<!-- Node2 -->
<g id="node2" class="node">
<title>Node2</title>
<g id="a_node2"><a xlink:href="DynamicalSystem_8h.html" target="_top" xlink:title=" ">
<polygon fill="none" stroke="black" points="108,-224.5 108,-243.5 269,-243.5 269,-224.5 108,-224.5"/>
<text text-anchor="middle" x="188.5" y="-231.5" font-family="FreeSans.ttf" font-size="10.00">iDynTree/DynamicalSystem.h</text>
</a>
</g>
</g>
<!-- Node1&#45;&gt;Node2 -->
<g id="edge1" class="edge">
<title>Node1&#45;&gt;Node2</title>
<path fill="none" stroke="midnightblue" d="M327.52,-504.47C290.27,-489.97 224.5,-456.77 224.5,-403 224.5,-403 224.5,-403 224.5,-345 224.5,-310.98 208.76,-273.85 198.09,-252.6"/>
<polygon fill="midnightblue" stroke="midnightblue" points="201.09,-250.77 193.36,-243.53 194.88,-254.01 201.09,-250.77"/>
</g>
<!-- Node15 -->
<g id="node15" class="node">
<title>Node15</title>
<g id="a_node15"><a xlink:href="SparsityStructure_8h.html" target="_top" xlink:title=" ">
<polygon fill="none" stroke="black" points="185,-168.5 185,-187.5 340,-187.5 340,-168.5 185,-168.5"/>
<text text-anchor="middle" x="262.5" y="-175.5" font-family="FreeSans.ttf" font-size="10.00">iDynTree/SparsityStructure.h</text>
</a>
</g>
</g>
<!-- Node1&#45;&gt;Node15 -->
<g id="edge62" class="edge">
<title>Node1&#45;&gt;Node15</title>
<path fill="none" stroke="midnightblue" d="M343.92,-504.43C335.8,-495.88 323.79,-482.02 316.5,-468 302.61,-441.3 297.5,-433.1 297.5,-403 297.5,-403 297.5,-403 297.5,-289 297.5,-255.07 282.19,-217.91 271.82,-196.63"/>
<polygon fill="midnightblue" stroke="midnightblue" points="274.86,-194.88 267.22,-187.54 268.62,-198.05 274.86,-194.88"/>
</g>
<!-- Node20 -->
<g id="node20" class="node">
<title>Node20</title>
<g id="a_node20"><a xlink:href="TimeVaryingObject_8h.html" target="_top" xlink:title=" ">
<polygon fill="none" stroke="black" points="325.5,-448.5 325.5,-467.5 489.5,-467.5 489.5,-448.5 325.5,-448.5"/>
<text text-anchor="middle" x="407.5" y="-455.5" font-family="FreeSans.ttf" font-size="10.00">iDynTree/TimeVaryingObject.h</text>
</a>
</g>
</g>
<!-- Node1&#45;&gt;Node20 -->
<g id="edge22" class="edge">
<title>Node1&#45;&gt;Node20</title>
<path fill="none" stroke="midnightblue" d="M361.58,-504.08C369.67,-496.14 381.7,-484.34 391.41,-474.8"/>
<polygon fill="midnightblue" stroke="midnightblue" points="393.9,-477.25 398.59,-467.75 389,-472.26 393.9,-477.25"/>
</g>
<!-- Node34 -->
<g id="node34" class="node">
<title>Node34</title>
<g id="a_node34"><a xlink:title=" ">
<polygon fill="none" stroke="#bfbfbf" points="507.5,-448.5 507.5,-467.5 565.5,-467.5 565.5,-448.5 507.5,-448.5"/>
<text text-anchor="middle" x="536.5" y="-455.5" font-family="FreeSans.ttf" font-size="10.00">memory</text>
</a>
</g>
</g>
<!-- Node1&#45;&gt;Node34 -->
<g id="edge63" class="edge">
<title>Node1&#45;&gt;Node34</title>
<path fill="none" stroke="midnightblue" d="M381.66,-504.44C413.01,-495.24 463.03,-480.56 497.7,-470.39"/>
<polygon fill="midnightblue" stroke="midnightblue" points="498.87,-473.69 507.48,-467.52 496.9,-466.97 498.87,-473.69"/>
</g>
<!-- Node3 -->
<g id="node3" class="node">
<title>Node3</title>
<g id="a_node3"><a xlink:href="VectorDynSize_8h.html" target="_top" xlink:title=" ">
<polygon fill="none" stroke="black" points="0,-168.5 0,-187.5 167,-187.5 167,-168.5 0,-168.5"/>
<text text-anchor="middle" x="83.5" y="-175.5" font-family="FreeSans.ttf" font-size="10.00">iDynTree/Core/VectorDynSize.h</text>
</a>
</g>
</g>
<!-- Node2&#45;&gt;Node3 -->
<g id="edge2" class="edge">
<title>Node2&#45;&gt;Node3</title>
<path fill="none" stroke="midnightblue" d="M171.63,-224.32C154.79,-215.66 128.69,-202.24 109.26,-192.25"/>
<polygon fill="midnightblue" stroke="midnightblue" points="110.82,-189.12 100.33,-187.65 107.62,-195.34 110.82,-189.12"/>
</g>
<!-- Node2&#45;&gt;Node15 -->
<g id="edge14" class="edge">
<title>Node2&#45;&gt;Node15</title>
<path fill="none" stroke="midnightblue" d="M200.39,-224.32C211.65,-216.11 228.79,-203.6 242.21,-193.81"/>
<polygon fill="midnightblue" stroke="midnightblue" points="244.38,-196.56 250.39,-187.83 240.25,-190.9 244.38,-196.56"/>
</g>
<!-- Node4 -->
<g id="node4" class="node">
<title>Node4</title>
<g id="a_node4"><a xlink:href="Span_8h.html" target="_top" xlink:title=" ">
<polygon fill="none" stroke="black" points="280,-56.5 280,-75.5 401,-75.5 401,-56.5 280,-56.5"/>
<text text-anchor="middle" x="340.5" y="-63.5" font-family="FreeSans.ttf" font-size="10.00">iDynTree/Core/Span.h</text>
</a>
</g>
</g>
<!-- Node3&#45;&gt;Node4 -->
<g id="edge3" class="edge">
<title>Node3&#45;&gt;Node4</title>
<path fill="none" stroke="midnightblue" d="M103.67,-168.37C148.8,-149.05 258.12,-102.26 310.95,-79.65"/>
<polygon fill="midnightblue" stroke="midnightblue" points="312.61,-82.74 320.43,-75.59 309.86,-76.31 312.61,-82.74"/>
</g>
<!-- Node14 -->
<g id="node14" class="node">
<title>Node14</title>
<g id="a_node14"><a xlink:title=" ">
<polygon fill="none" stroke="#bfbfbf" points="506.5,-112.5 506.5,-131.5 550.5,-131.5 550.5,-112.5 506.5,-112.5"/>
<text text-anchor="middle" x="528.5" y="-119.5" font-family="FreeSans.ttf" font-size="10.00">string</text>
</a>
</g>
</g>
<!-- Node3&#45;&gt;Node14 -->
<g id="edge13" class="edge">
<title>Node3&#45;&gt;Node14</title>
<path fill="none" stroke="midnightblue" d="M167.06,-168.71C271.23,-158.25 441.44,-140.76 496.36,-131.75"/>
<polygon fill="midnightblue" stroke="midnightblue" points="497.04,-135.18 506.26,-129.96 495.8,-128.29 497.04,-135.18"/>
</g>
<!-- Node5 -->
<g id="node5" class="node">
<title>Node5</title>
<g id="a_node5"><a xlink:title=" ">
<polygon fill="none" stroke="#bfbfbf" points="685.5,-0.5 685.5,-19.5 737.5,-19.5 737.5,-0.5 685.5,-0.5"/>
<text text-anchor="middle" x="711.5" y="-7.5" font-family="FreeSans.ttf" font-size="10.00">cassert</text>
</a>
</g>
</g>
<!-- Node4&#45;&gt;Node5 -->
<g id="edge4" class="edge">
<title>Node4&#45;&gt;Node5</title>
<path fill="none" stroke="midnightblue" d="M401.25,-59.06C466.64,-52.17 573.85,-39.45 675.11,-20.08"/>
<polygon fill="midnightblue" stroke="midnightblue" points="676.05,-23.46 685.2,-18.12 674.72,-16.59 676.05,-23.46"/>
</g>
<!-- Node6 -->
<g id="node6" class="node">
<title>Node6</title>
<g id="a_node6"><a xlink:title=" ">
<polygon fill="none" stroke="#bfbfbf" points="104.5,-0.5 104.5,-19.5 168.5,-19.5 168.5,-0.5 104.5,-0.5"/>
<text text-anchor="middle" x="136.5" y="-7.5" font-family="FreeSans.ttf" font-size="10.00">algorithm</text>
</a>
</g>
</g>
<!-- Node4&#45;&gt;Node6 -->
<g id="edge5" class="edge">
<title>Node4&#45;&gt;Node6</title>
<path fill="none" stroke="midnightblue" d="M308.18,-56.44C273.11,-47.16 217,-32.31 178.54,-22.13"/>
<polygon fill="midnightblue" stroke="midnightblue" points="179.24,-18.69 168.67,-19.52 177.44,-25.46 179.24,-18.69"/>
</g>
<!-- Node7 -->
<g id="node7" class="node">
<title>Node7</title>
<g id="a_node7"><a xlink:title=" ">
<polygon fill="none" stroke="#bfbfbf" points="186.5,-0.5 186.5,-19.5 228.5,-19.5 228.5,-0.5 186.5,-0.5"/>
<text text-anchor="middle" x="207.5" y="-7.5" font-family="FreeSans.ttf" font-size="10.00">array</text>
</a>
</g>
</g>
<!-- Node4&#45;&gt;Node7 -->
<g id="edge6" class="edge">
<title>Node4&#45;&gt;Node7</title>
<path fill="none" stroke="midnightblue" d="M319.43,-56.44C297.44,-47.52 262.77,-33.44 237.84,-23.32"/>
<polygon fill="midnightblue" stroke="midnightblue" points="239.06,-20.04 228.48,-19.52 236.42,-26.52 239.06,-20.04"/>
</g>
<!-- Node8 -->
<g id="node8" class="node">
<title>Node8</title>
<g id="a_node8"><a xlink:title=" ">
<polygon fill="none" stroke="#bfbfbf" points="614,-0.5 614,-19.5 667,-19.5 667,-0.5 614,-0.5"/>
<text text-anchor="middle" x="640.5" y="-7.5" font-family="FreeSans.ttf" font-size="10.00">cstddef</text>
</a>
</g>
</g>
<!-- Node4&#45;&gt;Node8 -->
<g id="edge7" class="edge">
<title>Node4&#45;&gt;Node8</title>
<path fill="none" stroke="midnightblue" d="M399.19,-56.47C450.75,-48.66 528,-36.16 603.63,-20.27"/>
<polygon fill="midnightblue" stroke="midnightblue" points="604.75,-23.61 613.8,-18.11 603.29,-16.76 604.75,-23.61"/>
</g>
<!-- Node9 -->
<g id="node9" class="node">
<title>Node9</title>
<g id="a_node9"><a xlink:title=" ">
<polygon fill="none" stroke="#bfbfbf" points="247,-0.5 247,-19.5 300,-19.5 300,-0.5 247,-0.5"/>
<text text-anchor="middle" x="273.5" y="-7.5" font-family="FreeSans.ttf" font-size="10.00">iterator</text>
</a>
</g>
</g>
<!-- Node4&#45;&gt;Node9 -->
<g id="edge8" class="edge">
<title>Node4&#45;&gt;Node9</title>
<path fill="none" stroke="midnightblue" d="M329.74,-56.32C319.73,-48.26 304.61,-36.08 292.57,-26.37"/>
<polygon fill="midnightblue" stroke="midnightblue" points="294.44,-23.38 284.46,-19.83 290.05,-28.83 294.44,-23.38"/>
</g>
<!-- Node10 -->
<g id="node10" class="node">
<title>Node10</title>
<g id="a_node10"><a xlink:title=" ">
<polygon fill="none" stroke="#bfbfbf" points="318.5,-0.5 318.5,-19.5 362.5,-19.5 362.5,-0.5 318.5,-0.5"/>
<text text-anchor="middle" x="340.5" y="-7.5" font-family="FreeSans.ttf" font-size="10.00">limits</text>
</a>
</g>
</g>
<!-- Node4&#45;&gt;Node10 -->
<g id="edge9" class="edge">
<title>Node4&#45;&gt;Node10</title>
<path fill="none" stroke="midnightblue" d="M340.5,-56.08C340.5,-49.01 340.5,-38.86 340.5,-29.99"/>
<polygon fill="midnightblue" stroke="midnightblue" points="344,-29.75 340.5,-19.75 337,-29.75 344,-29.75"/>
</g>
<!-- Node11 -->
<g id="node11" class="node">
<title>Node11</title>
<g id="a_node11"><a xlink:title=" ">
<polygon fill="none" stroke="#bfbfbf" points="381,-0.5 381,-19.5 446,-19.5 446,-0.5 381,-0.5"/>
<text text-anchor="middle" x="413.5" y="-7.5" font-family="FreeSans.ttf" font-size="10.00">stdexcept</text>
</a>
</g>
</g>
<!-- Node4&#45;&gt;Node11 -->
<g id="edge10" class="edge">
<title>Node4&#45;&gt;Node11</title>
<path fill="none" stroke="midnightblue" d="M352.23,-56.32C363.34,-48.11 380.24,-35.6 393.48,-25.81"/>
<polygon fill="midnightblue" stroke="midnightblue" points="395.6,-28.59 401.56,-19.83 391.44,-22.97 395.6,-28.59"/>
</g>
<!-- Node12 -->
<g id="node12" class="node">
<title>Node12</title>
<g id="a_node12"><a xlink:title=" ">
<polygon fill="none" stroke="#bfbfbf" points="527,-0.5 527,-19.5 596,-19.5 596,-0.5 527,-0.5"/>
<text text-anchor="middle" x="561.5" y="-7.5" font-family="FreeSans.ttf" font-size="10.00">type_traits</text>
</a>
</g>
</g>
<!-- Node4&#45;&gt;Node12 -->
<g id="edge11" class="edge">
<title>Node4&#45;&gt;Node12</title>
<path fill="none" stroke="midnightblue" d="M375.52,-56.44C413.75,-47.1 475.07,-32.12 516.76,-21.93"/>
<polygon fill="midnightblue" stroke="midnightblue" points="517.76,-25.29 526.65,-19.52 516.1,-18.49 517.76,-25.29"/>
</g>
<!-- Node13 -->
<g id="node13" class="node">
<title>Node13</title>
<g id="a_node13"><a xlink:title=" ">
<polygon fill="none" stroke="#bfbfbf" points="464,-0.5 464,-19.5 509,-19.5 509,-0.5 464,-0.5"/>
<text text-anchor="middle" x="486.5" y="-7.5" font-family="FreeSans.ttf" font-size="10.00">utility</text>
</a>
</g>
</g>
<!-- Node4&#45;&gt;Node13 -->
<g id="edge12" class="edge">
<title>Node4&#45;&gt;Node13</title>
<path fill="none" stroke="midnightblue" d="M363.63,-56.44C388.13,-47.39 426.96,-33.02 454.41,-22.87"/>
<polygon fill="midnightblue" stroke="midnightblue" points="455.79,-26.09 463.95,-19.34 453.36,-19.53 455.79,-26.09"/>
</g>
<!-- Node15&#45;&gt;Node8 -->
<g id="edge19" class="edge">
<title>Node15&#45;&gt;Node8</title>
<path fill="none" stroke="midnightblue" d="M264.63,-168.45C268.54,-154.53 278.19,-127.03 296.5,-112 302.63,-106.97 516.77,-46.01 604.04,-21.3"/>
<polygon fill="midnightblue" stroke="midnightblue" points="605.12,-24.63 613.79,-18.54 603.21,-17.9 605.12,-24.63"/>
</g>
<!-- Node15&#45;&gt;Node14 -->
<g id="edge21" class="edge">
<title>Node15&#45;&gt;Node14</title>
<path fill="none" stroke="midnightblue" d="M314.6,-168.46C360.18,-160.67 428.34,-148.23 496.21,-132.14"/>
<polygon fill="midnightblue" stroke="midnightblue" points="497.31,-135.48 506.22,-129.74 495.67,-128.67 497.31,-135.48"/>
</g>
<!-- Node16 -->
<g id="node16" class="node">
<title>Node16</title>
<g id="a_node16"><a xlink:href="Utils_8h.html" target="_top" xlink:title=" ">
<polygon fill="none" stroke="black" points="740,-56.5 740,-75.5 859,-75.5 859,-56.5 740,-56.5"/>
<text text-anchor="middle" x="799.5" y="-63.5" font-family="FreeSans.ttf" font-size="10.00">iDynTree/Core/Utils.h</text>
</a>
</g>
</g>
<!-- Node15&#45;&gt;Node16 -->
<g id="edge15" class="edge">
<title>Node15&#45;&gt;Node16</title>
<path fill="none" stroke="midnightblue" d="M268.2,-168.38C278.35,-153.85 301.1,-124.78 328.5,-112 397.89,-79.63 616,-70.54 729.43,-67.99"/>
<polygon fill="midnightblue" stroke="midnightblue" points="729.81,-71.48 739.74,-67.77 729.66,-64.49 729.81,-71.48"/>
</g>
<!-- Node18 -->
<g id="node18" class="node">
<title>Node18</title>
<g id="a_node18"><a xlink:title=" ">
<polygon fill="none" stroke="#bfbfbf" points="337,-112.5 337,-131.5 384,-131.5 384,-112.5 337,-112.5"/>
<text text-anchor="middle" x="360.5" y="-119.5" font-family="FreeSans.ttf" font-size="10.00">vector</text>
</a>
</g>
</g>
<!-- Node15&#45;&gt;Node18 -->
<g id="edge18" class="edge">
<title>Node15&#45;&gt;Node18</title>
<path fill="none" stroke="midnightblue" d="M278.25,-168.32C293.82,-159.74 317.88,-146.49 335.96,-136.52"/>
<polygon fill="midnightblue" stroke="midnightblue" points="337.72,-139.55 344.79,-131.65 334.35,-133.42 337.72,-139.55"/>
</g>
<!-- Node19 -->
<g id="node19" class="node">
<title>Node19</title>
<g id="a_node19"><a xlink:title=" ">
<polygon fill="none" stroke="#bfbfbf" points="402.5,-112.5 402.5,-131.5 488.5,-131.5 488.5,-112.5 402.5,-112.5"/>
<text text-anchor="middle" x="445.5" y="-119.5" font-family="FreeSans.ttf" font-size="10.00">unordered_set</text>
</a>
</g>
</g>
<!-- Node15&#45;&gt;Node19 -->
<g id="edge20" class="edge">
<title>Node15&#45;&gt;Node19</title>
<path fill="none" stroke="midnightblue" d="M291.5,-168.44C322.68,-159.24 372.43,-144.56 406.91,-134.39"/>
<polygon fill="midnightblue" stroke="midnightblue" points="408.04,-137.7 416.64,-131.52 406.06,-130.99 408.04,-137.7"/>
</g>
<!-- Node16&#45;&gt;Node8 -->
<g id="edge16" class="edge">
<title>Node16&#45;&gt;Node8</title>
<path fill="none" stroke="midnightblue" d="M774.31,-56.44C747.56,-47.36 705.1,-32.94 675.19,-22.78"/>
<polygon fill="midnightblue" stroke="midnightblue" points="676.17,-19.42 665.58,-19.52 673.92,-26.05 676.17,-19.42"/>
</g>
<!-- Node17 -->
<g id="node17" class="node">
<title>Node17</title>
<g id="a_node17"><a xlink:title=" ">
<polygon fill="none" stroke="#bfbfbf" points="759.5,-0.5 759.5,-19.5 839.5,-19.5 839.5,-0.5 759.5,-0.5"/>
<text text-anchor="middle" x="799.5" y="-7.5" font-family="FreeSans.ttf" font-size="10.00">CoreExport.h</text>
</a>
</g>
</g>
<!-- Node16&#45;&gt;Node17 -->
<g id="edge17" class="edge">
<title>Node16&#45;&gt;Node17</title>
<path fill="none" stroke="midnightblue" d="M799.5,-56.08C799.5,-49.01 799.5,-38.86 799.5,-29.99"/>
<polygon fill="midnightblue" stroke="midnightblue" points="803,-29.75 799.5,-19.75 796,-29.75 803,-29.75"/>
</g>
<!-- Node20&#45;&gt;Node3 -->
<g id="edge23" class="edge">
<title>Node20&#45;&gt;Node3</title>
<path fill="none" stroke="midnightblue" d="M402.22,-448.23C391.77,-430.04 369.5,-386.6 369.5,-347 369.5,-347 369.5,-347 369.5,-289 369.5,-240.88 226.69,-205.84 142.9,-189.42"/>
<polygon fill="midnightblue" stroke="midnightblue" points="143.47,-185.97 132.99,-187.51 142.15,-192.84 143.47,-185.97"/>
</g>
<!-- Node21 -->
<g id="node21" class="node">
<title>Node21</title>
<g id="a_node21"><a xlink:href="MatrixDynSize_8h.html" target="_top" xlink:title=" ">
<polygon fill="none" stroke="black" points="358.5,-168.5 358.5,-187.5 526.5,-187.5 526.5,-168.5 358.5,-168.5"/>
<text text-anchor="middle" x="442.5" y="-175.5" font-family="FreeSans.ttf" font-size="10.00">iDynTree/Core/MatrixDynSize.h</text>
</a>
</g>
</g>
<!-- Node20&#45;&gt;Node21 -->
<g id="edge24" class="edge">
<title>Node20&#45;&gt;Node21</title>
<path fill="none" stroke="midnightblue" d="M409.79,-448.23C414.43,-429.69 424.5,-385.07 424.5,-347 424.5,-347 424.5,-347 424.5,-289 424.5,-256.54 432.23,-219.38 437.56,-197.63"/>
<polygon fill="midnightblue" stroke="midnightblue" points="440.99,-198.32 440.07,-187.76 434.21,-196.59 440.99,-198.32"/>
</g>
<!-- Node23 -->
<g id="node23" class="node">
<title>Node23</title>
<g id="a_node23"><a xlink:href="Transform_8h.html" target="_top" xlink:title=" ">
<polygon fill="none" stroke="black" points="565.5,-392.5 565.5,-411.5 711.5,-411.5 711.5,-392.5 565.5,-392.5"/>
<text text-anchor="middle" x="638.5" y="-399.5" font-family="FreeSans.ttf" font-size="10.00">iDynTree/Core/Transform.h</text>
</a>
</g>
</g>
<!-- Node20&#45;&gt;Node23 -->
<g id="edge31" class="edge">
<title>Node20&#45;&gt;Node23</title>
<path fill="none" stroke="midnightblue" d="M444.1,-448.44C484.23,-439.06 548.7,-423.99 592.28,-413.8"/>
<polygon fill="midnightblue" stroke="midnightblue" points="593.13,-417.2 602.07,-411.52 591.53,-410.38 593.13,-417.2"/>
</g>
<!-- Node21&#45;&gt;Node14 -->
<g id="edge25" class="edge">
<title>Node21&#45;&gt;Node14</title>
<path fill="none" stroke="midnightblue" d="M456.32,-168.32C469.73,-159.9 490.32,-146.97 506.09,-137.07"/>
<polygon fill="midnightblue" stroke="midnightblue" points="508.11,-139.94 514.72,-131.65 504.39,-134.01 508.11,-139.94"/>
</g>
<!-- Node22 -->
<g id="node22" class="node">
<title>Node22</title>
<g id="a_node22"><a xlink:href="MatrixView_8h.html" target="_top" xlink:title=" ">
<polygon fill="none" stroke="black" points="606.5,-112.5 606.5,-131.5 758.5,-131.5 758.5,-112.5 606.5,-112.5"/>
<text text-anchor="middle" x="682.5" y="-119.5" font-family="FreeSans.ttf" font-size="10.00">iDynTree/Core/MatrixView.h</text>
</a>
</g>
</g>
<!-- Node21&#45;&gt;Node22 -->
<g id="edge26" class="edge">
<title>Node21&#45;&gt;Node22</title>
<path fill="none" stroke="midnightblue" d="M480.53,-168.44C522.31,-159.04 589.48,-143.93 634.77,-133.74"/>
<polygon fill="midnightblue" stroke="midnightblue" points="635.66,-137.13 644.65,-131.52 634.12,-130.3 635.66,-137.13"/>
</g>
<!-- Node22&#45;&gt;Node4 -->
<g id="edge29" class="edge">
<title>Node22&#45;&gt;Node4</title>
<path fill="none" stroke="midnightblue" d="M628.31,-112.44C567.52,-102.85 469.01,-87.29 404.49,-77.1"/>
<polygon fill="midnightblue" stroke="midnightblue" points="404.86,-73.62 394.44,-75.52 403.77,-80.53 404.86,-73.62"/>
</g>
<!-- Node22&#45;&gt;Node5 -->
<g id="edge27" class="edge">
<title>Node22&#45;&gt;Node5</title>
<path fill="none" stroke="midnightblue" d="M684.33,-112.12C686.97,-99.55 692.12,-75.9 697.5,-56 699.91,-47.1 702.91,-37.32 705.51,-29.16"/>
<polygon fill="midnightblue" stroke="midnightblue" points="708.86,-30.16 708.62,-19.57 702.21,-28 708.86,-30.16"/>
</g>
<!-- Node22&#45;&gt;Node12 -->
<g id="edge28" class="edge">
<title>Node22&#45;&gt;Node12</title>
<path fill="none" stroke="midnightblue" d="M673.01,-112.37C652.6,-93.81 604.3,-49.91 578.48,-26.44"/>
<polygon fill="midnightblue" stroke="midnightblue" points="580.7,-23.73 570.95,-19.59 576,-28.91 580.7,-23.73"/>
</g>
<!-- Node22&#45;&gt;Node16 -->
<g id="edge30" class="edge">
<title>Node22&#45;&gt;Node16</title>
<path fill="none" stroke="midnightblue" d="M701.04,-112.44C720.12,-103.64 750.07,-89.81 771.94,-79.72"/>
<polygon fill="midnightblue" stroke="midnightblue" points="773.43,-82.88 781.05,-75.52 770.5,-76.53 773.43,-82.88"/>
</g>
<!-- Node23&#45;&gt;Node14 -->
<g id="edge61" class="edge">
<title>Node23&#45;&gt;Node14</title>
<path fill="none" stroke="midnightblue" d="M612.15,-392.4C594.94,-385.38 573.5,-373.68 561.5,-356 514.13,-286.21 546.94,-251.57 535.5,-168 534.31,-159.28 532.83,-149.63 531.53,-141.51"/>
<polygon fill="midnightblue" stroke="midnightblue" points="534.99,-140.93 529.94,-131.61 528.08,-142.04 534.99,-140.93"/>
</g>
<!-- Node24 -->
<g id="node24" class="node">
<title>Node24</title>
<g id="a_node24"><a xlink:href="Position_8h.html" target="_top" xlink:title=" ">
<polygon fill="none" stroke="black" points="570.5,-336.5 570.5,-355.5 706.5,-355.5 706.5,-336.5 570.5,-336.5"/>
<text text-anchor="middle" x="638.5" y="-343.5" font-family="FreeSans.ttf" font-size="10.00">iDynTree/Core/Position.h</text>
</a>
</g>
</g>
<!-- Node23&#45;&gt;Node24 -->
<g id="edge32" class="edge">
<title>Node23&#45;&gt;Node24</title>
<path fill="none" stroke="midnightblue" d="M638.5,-392.08C638.5,-385.01 638.5,-374.86 638.5,-365.99"/>
<polygon fill="midnightblue" stroke="midnightblue" points="642,-365.75 638.5,-355.75 635,-365.75 642,-365.75"/>
</g>
<!-- Node29 -->
<g id="node29" class="node">
<title>Node29</title>
<g id="a_node29"><a xlink:href="Rotation_8h.html" target="_top" xlink:title=" ">
<polygon fill="none" stroke="black" points="694.5,-280.5 694.5,-299.5 832.5,-299.5 832.5,-280.5 694.5,-280.5"/>
<text text-anchor="middle" x="763.5" y="-287.5" font-family="FreeSans.ttf" font-size="10.00">iDynTree/Core/Rotation.h</text>
</a>
</g>
</g>
<!-- Node23&#45;&gt;Node29 -->
<g id="edge59" class="edge">
<title>Node23&#45;&gt;Node29</title>
<path fill="none" stroke="midnightblue" d="M657.96,-392.38C674.44,-384.47 698.11,-371.62 715.5,-356 730.93,-342.14 744.55,-322.6 753.3,-308.57"/>
<polygon fill="midnightblue" stroke="midnightblue" points="756.38,-310.25 758.55,-299.88 750.39,-306.63 756.38,-310.25"/>
</g>
<!-- Node32 -->
<g id="node32" class="node">
<title>Node32</title>
<g id="a_node32"><a xlink:href="MatrixFixSize_8h.html" target="_top" xlink:title=" ">
<polygon fill="none" stroke="black" points="984,-168.5 984,-187.5 1147,-187.5 1147,-168.5 984,-168.5"/>
<text text-anchor="middle" x="1065.5" y="-175.5" font-family="FreeSans.ttf" font-size="10.00">iDynTree/Core/MatrixFixSize.h</text>
</a>
</g>
</g>
<!-- Node23&#45;&gt;Node32 -->
<g id="edge60" class="edge">
<title>Node23&#45;&gt;Node32</title>
<path fill="none" stroke="midnightblue" d="M695.22,-392.49C818.29,-372.73 1103.3,-319.64 1159.5,-244 1177.36,-219.97 1141.51,-201.69 1109.06,-190.72"/>
<polygon fill="midnightblue" stroke="midnightblue" points="1109.75,-187.27 1099.16,-187.56 1107.62,-193.94 1109.75,-187.27"/>
</g>
<!-- Node24&#45;&gt;Node14 -->
<g id="edge58" class="edge">
<title>Node24&#45;&gt;Node14</title>
<path fill="none" stroke="midnightblue" d="M626.87,-336.29C606.89,-320.51 566.73,-285 551.5,-244 539.45,-211.55 580.8,-200.35 568.5,-168 564.16,-156.6 555.47,-146.24 547.29,-138.34"/>
<polygon fill="midnightblue" stroke="midnightblue" points="549.54,-135.66 539.77,-131.57 544.86,-140.86 549.54,-135.66"/>
</g>
<!-- Node25 -->
<g id="node25" class="node">
<title>Node25</title>
<g id="a_node25"><a xlink:href="PositionRaw_8h.html" target="_top" xlink:title=" ">
<polygon fill="none" stroke="black" points="560.5,-224.5 560.5,-243.5 716.5,-243.5 716.5,-224.5 560.5,-224.5"/>
<text text-anchor="middle" x="638.5" y="-231.5" font-family="FreeSans.ttf" font-size="10.00">iDynTree/Core/PositionRaw.h</text>
</a>
</g>
</g>
<!-- Node24&#45;&gt;Node25 -->
<g id="edge33" class="edge">
<title>Node24&#45;&gt;Node25</title>
<path fill="none" stroke="midnightblue" d="M638.5,-336.37C638.5,-318.62 638.5,-277.67 638.5,-253.6"/>
<polygon fill="midnightblue" stroke="midnightblue" points="642,-253.59 638.5,-243.59 635,-253.59 642,-253.59"/>
</g>
<!-- Node24&#45;&gt;Node29 -->
<g id="edge43" class="edge">
<title>Node24&#45;&gt;Node29</title>
<path fill="none" stroke="midnightblue" d="M658.31,-336.44C678.79,-327.6 710.98,-313.69 734.36,-303.59"/>
<polygon fill="midnightblue" stroke="midnightblue" points="735.99,-306.7 743.79,-299.52 733.22,-300.27 735.99,-306.7"/>
</g>
<!-- Node25&#45;&gt;Node14 -->
<g id="edge42" class="edge">
<title>Node25&#45;&gt;Node14</title>
<path fill="none" stroke="midnightblue" d="M636.08,-224.48C631.93,-211.08 622.32,-184.89 606.5,-168 593.58,-154.2 575.47,-143.4 559.95,-135.84"/>
<polygon fill="midnightblue" stroke="midnightblue" points="561.23,-132.58 550.69,-131.56 558.29,-138.93 561.23,-132.58"/>
</g>
<!-- Node26 -->
<g id="node26" class="node">
<title>Node26</title>
<g id="a_node26"><a xlink:href="VectorFixSize_8h.html" target="_top" xlink:title=" ">
<polygon fill="none" stroke="black" points="803.5,-168.5 803.5,-187.5 965.5,-187.5 965.5,-168.5 803.5,-168.5"/>
<text text-anchor="middle" x="884.5" y="-175.5" font-family="FreeSans.ttf" font-size="10.00">iDynTree/Core/VectorFixSize.h</text>
</a>
</g>
</g>
<!-- Node25&#45;&gt;Node26 -->
<g id="edge34" class="edge">
<title>Node25&#45;&gt;Node26</title>
<path fill="none" stroke="midnightblue" d="M677.48,-224.44C720.39,-215.02 789.45,-199.87 835.87,-189.68"/>
<polygon fill="midnightblue" stroke="midnightblue" points="836.69,-193.08 845.7,-187.52 835.19,-186.24 836.69,-193.08"/>
</g>
<!-- Node26&#45;&gt;Node4 -->
<g id="edge36" class="edge">
<title>Node26&#45;&gt;Node4</title>
<path fill="none" stroke="midnightblue" d="M812.85,-168.49C741.23,-159.5 636.34,-144.87 597.5,-132 579.38,-126 577.47,-118.43 559.5,-112 511.35,-94.78 454.77,-83.36 411.17,-76.34"/>
<polygon fill="midnightblue" stroke="midnightblue" points="411.66,-72.87 401.23,-74.78 410.57,-79.79 411.66,-72.87"/>
</g>
<!-- Node26&#45;&gt;Node5 -->
<g id="edge39" class="edge">
<title>Node26&#45;&gt;Node5</title>
<path fill="none" stroke="midnightblue" d="M868.74,-168.42C833.65,-149.03 750.63,-101.54 731.5,-76 721.33,-62.43 716.28,-43.63 713.8,-29.74"/>
<polygon fill="midnightblue" stroke="midnightblue" points="717.26,-29.21 712.32,-19.84 710.34,-30.25 717.26,-29.21"/>
</g>
<!-- Node26&#45;&gt;Node8 -->
<g id="edge40" class="edge">
<title>Node26&#45;&gt;Node8</title>
<path fill="none" stroke="midnightblue" d="M886.41,-168.26C890.66,-146.15 898.38,-87.53 868.5,-56 810.94,4.75 764.76,-35.39 677.22,-19.85"/>
<polygon fill="midnightblue" stroke="midnightblue" points="677.68,-16.38 667.19,-17.86 676.32,-23.24 677.68,-16.38"/>
</g>
<!-- Node26&#45;&gt;Node14 -->
<g id="edge37" class="edge">
<title>Node26&#45;&gt;Node14</title>
<path fill="none" stroke="midnightblue" d="M807.5,-168.48C742.45,-160.73 646.96,-148.06 564.5,-132 563.22,-131.75 561.92,-131.48 560.6,-131.21"/>
<polygon fill="midnightblue" stroke="midnightblue" points="561.03,-127.71 550.5,-128.89 559.47,-134.54 561.03,-127.71"/>
</g>
<!-- Node26&#45;&gt;Node16 -->
<g id="edge35" class="edge">
<title>Node26&#45;&gt;Node16</title>
<path fill="none" stroke="midnightblue" d="M877.83,-168.37C863.74,-150.14 830.74,-107.43 812.39,-83.68"/>
<polygon fill="midnightblue" stroke="midnightblue" points="815.02,-81.36 806.14,-75.59 809.48,-85.64 815.02,-81.36"/>
</g>
<!-- Node27 -->
<g id="node27" class="node">
<title>Node27</title>
<g id="a_node27"><a xlink:title=" ">
<polygon fill="none" stroke="#bfbfbf" points="912.5,-112.5 912.5,-131.5 968.5,-131.5 968.5,-112.5 912.5,-112.5"/>
<text text-anchor="middle" x="940.5" y="-119.5" font-family="FreeSans.ttf" font-size="10.00">sstream</text>
</a>
</g>
</g>
<!-- Node26&#45;&gt;Node27 -->
<g id="edge38" class="edge">
<title>Node26&#45;&gt;Node27</title>
<path fill="none" stroke="midnightblue" d="M893.5,-168.32C901.69,-160.42 914.01,-148.55 923.97,-138.94"/>
<polygon fill="midnightblue" stroke="midnightblue" points="926.57,-141.29 931.34,-131.83 921.71,-136.26 926.57,-141.29"/>
</g>
<!-- Node28 -->
<g id="node28" class="node">
<title>Node28</title>
<g id="a_node28"><a xlink:title=" ">
<polygon fill="none" stroke="#bfbfbf" points="986.5,-112.5 986.5,-131.5 1036.5,-131.5 1036.5,-112.5 986.5,-112.5"/>
<text text-anchor="middle" x="1011.5" y="-119.5" font-family="FreeSans.ttf" font-size="10.00">cstring</text>
</a>
</g>
</g>
<!-- Node26&#45;&gt;Node28 -->
<g id="edge41" class="edge">
<title>Node26&#45;&gt;Node28</title>
<path fill="none" stroke="midnightblue" d="M904.62,-168.44C925.52,-159.56 958.43,-145.56 982.22,-135.45"/>
<polygon fill="midnightblue" stroke="midnightblue" points="983.64,-138.65 991.47,-131.52 980.9,-132.21 983.64,-138.65"/>
</g>
<!-- Node29&#45;&gt;Node14 -->
<g id="edge44" class="edge">
<title>Node29&#45;&gt;Node14</title>
<path fill="none" stroke="midnightblue" d="M760.24,-280.47C754.77,-267.08 742.63,-240.89 725.5,-224 699.89,-198.76 606.48,-156.46 558.06,-135.52"/>
<polygon fill="midnightblue" stroke="midnightblue" points="559.3,-132.24 548.73,-131.51 556.53,-138.68 559.3,-132.24"/>
</g>
<!-- Node29&#45;&gt;Node26 -->
<g id="edge57" class="edge">
<title>Node29&#45;&gt;Node26</title>
<path fill="none" stroke="midnightblue" d="M766.88,-280.45C772.54,-267.02 785.05,-240.79 802.5,-224 816.88,-210.16 836.35,-199.24 852.71,-191.63"/>
<polygon fill="midnightblue" stroke="midnightblue" points="854.2,-194.79 861.92,-187.53 851.36,-188.39 854.2,-194.79"/>
</g>
<!-- Node30 -->
<g id="node30" class="node">
<title>Node30</title>
<g id="a_node30"><a xlink:href="GeomVector3_8h.html" target="_top" xlink:title=" ">
<polygon fill="none" stroke="black" points="811,-224.5 811,-243.5 974,-243.5 974,-224.5 811,-224.5"/>
<text text-anchor="middle" x="892.5" y="-231.5" font-family="FreeSans.ttf" font-size="10.00">iDynTree/Core/GeomVector3.h</text>
</a>
</g>
</g>
<!-- Node29&#45;&gt;Node30 -->
<g id="edge45" class="edge">
<title>Node29&#45;&gt;Node30</title>
<path fill="none" stroke="midnightblue" d="M783.94,-280.44C805.17,-271.56 838.6,-257.56 862.75,-247.45"/>
<polygon fill="midnightblue" stroke="midnightblue" points="864.28,-250.61 872.16,-243.52 861.58,-244.15 864.28,-250.61"/>
</g>
<!-- Node31 -->
<g id="node31" class="node">
<title>Node31</title>
<g id="a_node31"><a xlink:href="RotationRaw_8h.html" target="_top" xlink:title=" ">
<polygon fill="none" stroke="black" points="992.5,-224.5 992.5,-243.5 1150.5,-243.5 1150.5,-224.5 992.5,-224.5"/>
<text text-anchor="middle" x="1071.5" y="-231.5" font-family="FreeSans.ttf" font-size="10.00">iDynTree/Core/RotationRaw.h</text>
</a>
</g>
</g>
<!-- Node29&#45;&gt;Node31 -->
<g id="edge47" class="edge">
<title>Node29&#45;&gt;Node31</title>
<path fill="none" stroke="midnightblue" d="M812.3,-280.44C866.71,-270.9 954.67,-255.48 1012.79,-245.29"/>
<polygon fill="midnightblue" stroke="midnightblue" points="1013.68,-248.69 1022.92,-243.52 1012.47,-241.8 1013.68,-248.69"/>
</g>
<!-- Node30&#45;&gt;Node26 -->
<g id="edge46" class="edge">
<title>Node30&#45;&gt;Node26</title>
<path fill="none" stroke="midnightblue" d="M891.18,-224.08C890.12,-216.93 888.59,-206.64 887.27,-197.69"/>
<polygon fill="midnightblue" stroke="midnightblue" points="890.72,-197.13 885.8,-187.75 883.8,-198.16 890.72,-197.13"/>
</g>
<!-- Node31&#45;&gt;Node14 -->
<g id="edge56" class="edge">
<title>Node31&#45;&gt;Node14</title>
<path fill="none" stroke="midnightblue" d="M1005.94,-224.46C936.89,-215.09 832.92,-199.81 794.5,-188 774.35,-181.81 771.55,-174.49 751.5,-168 670.97,-141.96 647.14,-150.27 564.5,-132 563.23,-131.72 561.93,-131.43 560.62,-131.12"/>
<polygon fill="midnightblue" stroke="midnightblue" points="561.08,-127.63 550.54,-128.71 559.45,-134.44 561.08,-127.63"/>
</g>
<!-- Node31&#45;&gt;Node32 -->
<g id="edge48" class="edge">
<title>Node31&#45;&gt;Node32</title>
<path fill="none" stroke="midnightblue" d="M1070.51,-224.08C1069.71,-216.93 1068.57,-206.64 1067.58,-197.69"/>
<polygon fill="midnightblue" stroke="midnightblue" points="1071.06,-197.3 1066.47,-187.75 1064.1,-198.08 1071.06,-197.3"/>
</g>
<!-- Node32&#45;&gt;Node5 -->
<g id="edge51" class="edge">
<title>Node32&#45;&gt;Node5</title>
<path fill="none" stroke="midnightblue" d="M1068.41,-168.44C1072.4,-155 1077.77,-128.75 1065.5,-112 1016.74,-45.44 967.85,-78.62 888.5,-56 840.07,-42.2 783.61,-28.2 747.72,-19.56"/>
<polygon fill="midnightblue" stroke="midnightblue" points="748.26,-16.09 737.72,-17.17 746.63,-22.9 748.26,-16.09"/>
</g>
<!-- Node32&#45;&gt;Node14 -->
<g id="edge53" class="edge">
<title>Node32&#45;&gt;Node14</title>
<path fill="none" stroke="midnightblue" d="M983.65,-168.89C980.56,-168.59 977.5,-168.29 974.5,-168 806.97,-151.72 764.75,-150.89 597.5,-132 585.46,-130.64 572.26,-128.96 560.66,-127.43"/>
<polygon fill="midnightblue" stroke="midnightblue" points="560.92,-123.93 550.54,-126.07 559.99,-130.87 560.92,-123.93"/>
</g>
<!-- Node32&#45;&gt;Node16 -->
<g id="edge49" class="edge">
<title>Node32&#45;&gt;Node16</title>
<path fill="none" stroke="midnightblue" d="M1065.51,-168.35C1065.03,-154.29 1061.91,-126.59 1045.5,-112 1019.95,-89.29 932.74,-77.49 869.4,-71.77"/>
<polygon fill="midnightblue" stroke="midnightblue" points="869.33,-68.25 859.06,-70.87 868.72,-75.23 869.33,-68.25"/>
</g>
<!-- Node32&#45;&gt;Node22 -->
<g id="edge50" class="edge">
<title>Node32&#45;&gt;Node22</title>
<path fill="none" stroke="midnightblue" d="M1004.81,-168.44C936.32,-158.79 825.06,-143.1 752.83,-132.92"/>
<polygon fill="midnightblue" stroke="midnightblue" points="753.29,-129.45 742.9,-131.52 752.32,-136.38 753.29,-129.45"/>
</g>
<!-- Node32&#45;&gt;Node27 -->
<g id="edge55" class="edge">
<title>Node32&#45;&gt;Node27</title>
<path fill="none" stroke="midnightblue" d="M1045.69,-168.44C1025.21,-159.6 993.02,-145.69 969.64,-135.59"/>
<polygon fill="midnightblue" stroke="midnightblue" points="970.78,-132.27 960.21,-131.52 968.01,-138.7 970.78,-132.27"/>
</g>
<!-- Node32&#45;&gt;Node28 -->
<g id="edge52" class="edge">
<title>Node32&#45;&gt;Node28</title>
<path fill="none" stroke="midnightblue" d="M1056.58,-168.08C1048.72,-160.22 1037.07,-148.57 1027.58,-139.08"/>
<polygon fill="midnightblue" stroke="midnightblue" points="1029.8,-136.35 1020.25,-131.75 1024.85,-141.3 1029.8,-136.35"/>
</g>
<!-- Node33 -->
<g id="node33" class="node">
<title>Node33</title>
<g id="a_node33"><a xlink:title=" ">
<polygon fill="none" stroke="#bfbfbf" points="1130.5,-112.5 1130.5,-131.5 1190.5,-131.5 1190.5,-112.5 1130.5,-112.5"/>
<text text-anchor="middle" x="1160.5" y="-119.5" font-family="FreeSans.ttf" font-size="10.00">iostream</text>
</a>
</g>
</g>
<!-- Node32&#45;&gt;Node33 -->
<g id="edge54" class="edge">
<title>Node32&#45;&gt;Node33</title>
<path fill="none" stroke="midnightblue" d="M1080.76,-168.32C1095.72,-159.82 1118.75,-146.73 1136.23,-136.8"/>
<polygon fill="midnightblue" stroke="midnightblue" points="1138.31,-139.64 1145.27,-131.65 1134.85,-133.55 1138.31,-139.64"/>
</g>
</g>
</svg>
