<?xml version="1.0" encoding="UTF-8" standalone="no"?>
<!DOCTYPE svg PUBLIC "-//W3C//DTD SVG 1.1//EN"
 "http://www.w3.org/Graphics/SVG/1.1/DTD/svg11.dtd">
<!-- Generated by graphviz version 2.43.0 (0)
 -->
<!-- Title: Link.h Pages: 1 -->
<svg width="5163pt" height="285pt"
 viewBox="0.00 0.00 5163.22 285.00" xmlns="http://www.w3.org/2000/svg" xmlns:xlink="http://www.w3.org/1999/xlink">
<g id="graph0" class="graph" transform="scale(1 1) rotate(0) translate(4 281)">
<title>Link.h</title>
<!-- Node1 -->
<g id="node1" class="node">
<title>Node1</title>
<g id="a_node1"><a xlink:title=" ">
<polygon fill="#bfbfbf" stroke="black" points="2449,-257.5 2449,-276.5 2495,-276.5 2495,-257.5 2449,-257.5"/>
<text text-anchor="middle" x="2472" y="-264.5" font-family="FreeSans.ttf" font-size="10.00">Link.h</text>
</a>
</g>
</g>
<!-- Node2 -->
<g id="node2" class="node">
<title>Node2</title>
<g id="a_node2"><a xlink:href="Model_8h.html" target="_top" xlink:title=" ">
<polygon fill="none" stroke="red" points="2407,-201.5 2407,-220.5 2463,-220.5 2463,-201.5 2407,-201.5"/>
<text text-anchor="middle" x="2435" y="-208.5" font-family="FreeSans.ttf" font-size="10.00">Model.h</text>
</a>
</g>
</g>
<!-- Node1&#45;&gt;Node2 -->
<g id="edge1" class="edge">
<title>Node1&#45;&gt;Node2</title>
<path fill="none" stroke="midnightblue" d="M2460.05,-248.57C2453.69,-239.27 2446.13,-228.25 2441,-220.75"/>
<polygon fill="midnightblue" stroke="midnightblue" points="2457.35,-250.81 2465.89,-257.08 2463.13,-246.86 2457.35,-250.81"/>
</g>
<!-- Node92 -->
<g id="node48" class="node">
<title>Node92</title>
<g id="a_node48"><a xlink:href="Link_8cpp.html" target="_top" xlink:title=" ">
<polygon fill="none" stroke="black" points="2481.5,-201.5 2481.5,-220.5 2538.5,-220.5 2538.5,-201.5 2481.5,-201.5"/>
<text text-anchor="middle" x="2510" y="-208.5" font-family="FreeSans.ttf" font-size="10.00">Link.cpp</text>
</a>
</g>
</g>
<!-- Node1&#45;&gt;Node92 -->
<g id="edge71" class="edge">
<title>Node1&#45;&gt;Node92</title>
<path fill="none" stroke="midnightblue" d="M2484.06,-248.86C2490.64,-239.5 2498.51,-228.33 2503.84,-220.75"/>
<polygon fill="midnightblue" stroke="midnightblue" points="2481.17,-246.89 2478.27,-257.08 2486.89,-250.92 2481.17,-246.89"/>
</g>
<!-- Node93 -->
<g id="node49" class="node">
<title>Node93</title>
<g id="a_node49"><a xlink:href="LinkElement_8h.html" target="_top" xlink:title=" ">
<polygon fill="none" stroke="black" points="1255,-140 1255,-159 1341,-159 1341,-140 1255,-140"/>
<text text-anchor="middle" x="1298" y="-147" font-family="FreeSans.ttf" font-size="10.00">LinkElement.h</text>
</a>
</g>
</g>
<!-- Node1&#45;&gt;Node93 -->
<g id="edge72" class="edge">
<title>Node1&#45;&gt;Node93</title>
<path fill="none" stroke="midnightblue" d="M2438.69,-265.21C2302.51,-261.53 1775.21,-242.75 1350,-165 1341.79,-163.5 1333.01,-161.29 1325.04,-159.05"/>
<polygon fill="midnightblue" stroke="midnightblue" points="2438.79,-268.72 2448.88,-265.48 2438.98,-261.72 2438.79,-268.72"/>
</g>
<!-- Node74 -->
<g id="node50" class="node">
<title>Node74</title>
<g id="a_node50"><a xlink:href="SixAxisForceTorqueSensor_8cpp.html" target="_top" xlink:title=" ">
<polygon fill="none" stroke="black" points="2557,-201.5 2557,-220.5 2721,-220.5 2721,-201.5 2557,-201.5"/>
<text text-anchor="middle" x="2639" y="-208.5" font-family="FreeSans.ttf" font-size="10.00">SixAxisForceTorqueSensor.cpp</text>
</a>
</g>
</g>
<!-- Node1&#45;&gt;Node74 -->
<g id="edge75" class="edge">
<title>Node1&#45;&gt;Node74</title>
<path fill="none" stroke="midnightblue" d="M2504.88,-255.37C2536.45,-245.16 2583.51,-229.94 2612.68,-220.51"/>
<polygon fill="midnightblue" stroke="midnightblue" points="2503.66,-252.08 2495.22,-258.49 2505.81,-258.75 2503.66,-252.08"/>
</g>
<!-- Node3 -->
<g id="node3" class="node">
<title>Node3</title>
<g id="a_node3"><a xlink:href="ExtWrenchesAndJointTorquesEstimator_8h.html" target="_top" xlink:title=" ">
<polygon fill="none" stroke="black" points="597,-67.5 597,-97.5 755,-97.5 755,-67.5 597,-67.5"/>
<text text-anchor="start" x="605" y="-85.5" font-family="FreeSans.ttf" font-size="10.00">ExtWrenchesAndJointTorques</text>
<text text-anchor="middle" x="676" y="-74.5" font-family="FreeSans.ttf" font-size="10.00">Estimator.h</text>
</a>
</g>
</g>
<!-- Node2&#45;&gt;Node3 -->
<g id="edge2" class="edge">
<title>Node2&#45;&gt;Node3</title>
<path fill="none" stroke="midnightblue" d="M2396.71,-210.21C2165.06,-211.3 955.67,-214.55 799,-165 755.53,-151.25 713.04,-117.22 691.19,-97.76"/>
<polygon fill="midnightblue" stroke="midnightblue" points="2397.01,-213.71 2406.99,-210.16 2396.98,-206.71 2397.01,-213.71"/>
</g>
<!-- Node4 -->
<g id="node4" class="node">
<title>Node4</title>
<g id="a_node4"><a xlink:href="ExtWrenchesAndJointTorquesEstimator_8cpp.html" target="_top" xlink:title=" ">
<polygon fill="none" stroke="black" points="669,-0.5 669,-30.5 827,-30.5 827,-0.5 669,-0.5"/>
<text text-anchor="start" x="677" y="-18.5" font-family="FreeSans.ttf" font-size="10.00">ExtWrenchesAndJointTorques</text>
<text text-anchor="middle" x="748" y="-7.5" font-family="FreeSans.ttf" font-size="10.00">Estimator.cpp</text>
</a>
</g>
</g>
<!-- Node2&#45;&gt;Node4 -->
<g id="edge8" class="edge">
<title>Node2&#45;&gt;Node4</title>
<path fill="none" stroke="midnightblue" d="M2396.54,-209.79C2139.5,-208.33 675.23,-198.55 480,-165 385.95,-148.84 331.97,-175.29 276,-98 267.92,-86.84 266.79,-77.25 276,-67 279.26,-63.38 535.31,-37.55 668.87,-24.3"/>
<polygon fill="midnightblue" stroke="midnightblue" points="2396.84,-213.3 2406.86,-209.85 2396.88,-206.3 2396.84,-213.3"/>
</g>
<!-- Node5 -->
<g id="node5" class="node">
<title>Node5</title>
<g id="a_node5"><a xlink:href="GravityCompensationHelpers_8h.html" target="_top" xlink:title=" ">
<polygon fill="none" stroke="red" points="1707,-140 1707,-159 1877,-159 1877,-140 1707,-140"/>
<text text-anchor="middle" x="1792" y="-147" font-family="FreeSans.ttf" font-size="10.00">GravityCompensationHelpers.h</text>
</a>
</g>
</g>
<!-- Node2&#45;&gt;Node5 -->
<g id="edge4" class="edge">
<title>Node2&#45;&gt;Node5</title>
<path fill="none" stroke="midnightblue" d="M2396.72,-207.8C2307.19,-202.46 2077.2,-187.55 1886,-165 1872.06,-163.36 1857.02,-161.2 1843.13,-159.07"/>
<polygon fill="midnightblue" stroke="midnightblue" points="2396.75,-211.31 2406.93,-208.41 2397.16,-204.32 2396.75,-211.31"/>
</g>
<!-- Node7 -->
<g id="node6" class="node">
<title>Node7</title>
<g id="a_node6"><a xlink:href="SimpleLeggedOdometry_8h.html" target="_top" xlink:title=" ">
<polygon fill="none" stroke="red" points="1895,-140 1895,-159 2037,-159 2037,-140 1895,-140"/>
<text text-anchor="middle" x="1966" y="-147" font-family="FreeSans.ttf" font-size="10.00">SimpleLeggedOdometry.h</text>
</a>
</g>
</g>
<!-- Node2&#45;&gt;Node7 -->
<g id="edge5" class="edge">
<title>Node2&#45;&gt;Node7</title>
<path fill="none" stroke="midnightblue" d="M2396.5,-206.37C2326.54,-199.6 2173.93,-183.97 2046,-165 2034.41,-163.28 2021.93,-161.15 2010.35,-159.06"/>
<polygon fill="midnightblue" stroke="midnightblue" points="2396.32,-209.87 2406.61,-207.35 2396.99,-202.9 2396.32,-209.87"/>
</g>
<!-- Node9 -->
<g id="node7" class="node">
<title>Node9</title>
<g id="a_node7"><a xlink:href="BerdyHelper_8cpp.html" target="_top" xlink:title=" ">
<polygon fill="none" stroke="black" points="285.5,-73 285.5,-92 382.5,-92 382.5,-73 285.5,-73"/>
<text text-anchor="middle" x="334" y="-80" font-family="FreeSans.ttf" font-size="10.00">BerdyHelper.cpp</text>
</a>
</g>
</g>
<!-- Node2&#45;&gt;Node9 -->
<g id="edge6" class="edge">
<title>Node2&#45;&gt;Node9</title>
<path fill="none" stroke="midnightblue" d="M2396.55,-209.64C2150.19,-207.26 797.5,-193 616,-165 516.78,-149.7 403.27,-109.68 356.22,-92.05"/>
<polygon fill="midnightblue" stroke="midnightblue" points="2396.77,-213.14 2406.8,-209.74 2396.83,-206.14 2396.77,-213.14"/>
</g>
<!-- Node10 -->
<g id="node8" class="node">
<title>Node10</title>
<g id="a_node8"><a xlink:href="ExternalWrenchesEstimation_8cpp.html" target="_top" xlink:title=" ">
<polygon fill="none" stroke="black" points="401,-73 401,-92 579,-92 579,-73 401,-73"/>
<text text-anchor="middle" x="490" y="-80" font-family="FreeSans.ttf" font-size="10.00">ExternalWrenchesEstimation.cpp</text>
</a>
</g>
</g>
<!-- Node2&#45;&gt;Node10 -->
<g id="edge7" class="edge">
<title>Node2&#45;&gt;Node10</title>
<path fill="none" stroke="midnightblue" d="M2396.48,-209.66C2159.44,-207.48 903.43,-194.57 735,-165 648.02,-149.73 549.83,-109.7 509.18,-92.06"/>
<polygon fill="midnightblue" stroke="midnightblue" points="2396.64,-213.16 2406.68,-209.75 2396.71,-206.16 2396.64,-213.16"/>
</g>
<!-- Node11 -->
<g id="node9" class="node">
<title>Node11</title>
<g id="a_node9"><a xlink:href="KinDynComputations_8cpp.html" target="_top" xlink:title=" ">
<polygon fill="none" stroke="black" points="447,-6 447,-25 587,-25 587,-6 447,-6"/>
<text text-anchor="middle" x="517" y="-13" font-family="FreeSans.ttf" font-size="10.00">KinDynComputations.cpp</text>
</a>
</g>
</g>
<!-- Node2&#45;&gt;Node11 -->
<g id="edge9" class="edge">
<title>Node2&#45;&gt;Node11</title>
<path fill="none" stroke="midnightblue" d="M2396.65,-209.69C2113.47,-207.31 356.38,-191.54 309,-165 267.5,-141.75 235.87,-103.8 266,-67 288.49,-39.53 380.65,-26.68 446.78,-20.9"/>
<polygon fill="midnightblue" stroke="midnightblue" points="2396.81,-213.19 2406.84,-209.77 2396.87,-206.19 2396.81,-213.19"/>
</g>
<!-- Node12 -->
<g id="node10" class="node">
<title>Node12</title>
<g id="a_node10"><a xlink:href="skinDynLibConversionsImplementation_8h.html" target="_top" xlink:title=" ">
<polygon fill="none" stroke="red" points="2055,-140 2055,-159 2273,-159 2273,-140 2055,-140"/>
<text text-anchor="middle" x="2164" y="-147" font-family="FreeSans.ttf" font-size="10.00">skinDynLibConversionsImplementation.h</text>
</a>
</g>
</g>
<!-- Node2&#45;&gt;Node12 -->
<g id="edge10" class="edge">
<title>Node2&#45;&gt;Node12</title>
<path fill="none" stroke="midnightblue" d="M2396.74,-201.6C2345.42,-190.33 2254.76,-170.43 2203.04,-159.07"/>
<polygon fill="midnightblue" stroke="midnightblue" points="2396.25,-205.07 2406.77,-203.8 2397.75,-198.24 2396.25,-205.07"/>
</g>
<!-- Node14 -->
<g id="node11" class="node">
<title>Node14</title>
<g id="a_node11"><a xlink:href="InverseKinematicsData_8h.html" target="_top" xlink:title=" ">
<polygon fill="none" stroke="red" points="2291,-140 2291,-159 2431,-159 2431,-140 2291,-140"/>
<text text-anchor="middle" x="2361" y="-147" font-family="FreeSans.ttf" font-size="10.00">InverseKinematicsData.h</text>
</a>
</g>
</g>
<!-- Node2&#45;&gt;Node14 -->
<g id="edge11" class="edge">
<title>Node2&#45;&gt;Node14</title>
<path fill="none" stroke="midnightblue" d="M2416.31,-194.97C2402.16,-183.59 2383.22,-168.37 2371.58,-159.01"/>
<polygon fill="midnightblue" stroke="midnightblue" points="2414.41,-197.94 2424.4,-201.48 2418.8,-192.48 2414.41,-197.94"/>
</g>
<!-- Node17 -->
<g id="node12" class="node">
<title>Node17</title>
<g id="a_node12"><a xlink:href="DenavitHartenberg_8h.html" target="_top" xlink:title=" ">
<polygon fill="none" stroke="red" points="2449.5,-140 2449.5,-159 2568.5,-159 2568.5,-140 2449.5,-140"/>
<text text-anchor="middle" x="2509" y="-147" font-family="FreeSans.ttf" font-size="10.00">DenavitHartenberg.h</text>
</a>
</g>
</g>
<!-- Node2&#45;&gt;Node17 -->
<g id="edge12" class="edge">
<title>Node2&#45;&gt;Node17</title>
<path fill="none" stroke="midnightblue" d="M2453.69,-194.97C2467.84,-183.59 2486.78,-168.37 2498.42,-159.01"/>
<polygon fill="midnightblue" stroke="midnightblue" points="2451.2,-192.48 2445.6,-201.48 2455.59,-197.94 2451.2,-192.48"/>
</g>
<!-- Node22 -->
<g id="node13" class="node">
<title>Node22</title>
<g id="a_node13"><a xlink:href="ModelTestUtils_8h.html" target="_top" xlink:title=" ">
<polygon fill="none" stroke="red" points="2587,-140 2587,-159 2685,-159 2685,-140 2587,-140"/>
<text text-anchor="middle" x="2636" y="-147" font-family="FreeSans.ttf" font-size="10.00">ModelTestUtils.h</text>
</a>
</g>
</g>
<!-- Node2&#45;&gt;Node22 -->
<g id="edge13" class="edge">
<title>Node2&#45;&gt;Node22</title>
<path fill="none" stroke="midnightblue" d="M2473.3,-198.66C2512.31,-187.11 2571.92,-169.47 2607.12,-159.05"/>
<polygon fill="midnightblue" stroke="midnightblue" points="2471.97,-195.41 2463.37,-201.6 2473.95,-202.12 2471.97,-195.41"/>
</g>
<!-- Node23 -->
<g id="node14" class="node">
<title>Node23</title>
<g id="a_node14"><a xlink:href="ContactWrench_8cpp.html" target="_top" xlink:title=" ">
<polygon fill="none" stroke="black" points="2703.5,-140 2703.5,-159 2814.5,-159 2814.5,-140 2703.5,-140"/>
<text text-anchor="middle" x="2759" y="-147" font-family="FreeSans.ttf" font-size="10.00">ContactWrench.cpp</text>
</a>
</g>
</g>
<!-- Node2&#45;&gt;Node23 -->
<g id="edge14" class="edge">
<title>Node2&#45;&gt;Node23</title>
<path fill="none" stroke="midnightblue" d="M2473.3,-200.87C2571.71,-181.33 2599.01,-183.28 2694,-165 2703.31,-163.21 2713.32,-161.08 2722.64,-159.01"/>
<polygon fill="midnightblue" stroke="midnightblue" points="2472.34,-197.49 2463.23,-202.89 2473.72,-204.35 2472.34,-197.49"/>
</g>
<!-- Node24 -->
<g id="node15" class="node">
<title>Node24</title>
<g id="a_node15"><a xlink:href="Dynamics_8cpp.html" target="_top" xlink:title=" ">
<polygon fill="none" stroke="black" points="2833,-140 2833,-159 2919,-159 2919,-140 2833,-140"/>
<text text-anchor="middle" x="2876" y="-147" font-family="FreeSans.ttf" font-size="10.00">Dynamics.cpp</text>
</a>
</g>
</g>
<!-- Node2&#45;&gt;Node24 -->
<g id="edge15" class="edge">
<title>Node2&#45;&gt;Node24</title>
<path fill="none" stroke="midnightblue" d="M2473.1,-201.04C2628.33,-175.18 2672.01,-193.2 2823,-165 2831.25,-163.46 2840.09,-161.26 2848.14,-159.05"/>
<polygon fill="midnightblue" stroke="midnightblue" points="2472.47,-197.59 2463.2,-202.72 2473.64,-204.5 2472.47,-197.59"/>
</g>
<!-- Node25 -->
<g id="node16" class="node">
<title>Node25</title>
<g id="a_node16"><a xlink:href="DynamicsLinearization_8cpp.html" target="_top" xlink:title=" ">
<polygon fill="none" stroke="black" points="2937.5,-140 2937.5,-159 3086.5,-159 3086.5,-140 2937.5,-140"/>
<text text-anchor="middle" x="3012" y="-147" font-family="FreeSans.ttf" font-size="10.00">DynamicsLinearization.cpp</text>
</a>
</g>
</g>
<!-- Node2&#45;&gt;Node25 -->
<g id="edge16" class="edge">
<title>Node2&#45;&gt;Node25</title>
<path fill="none" stroke="midnightblue" d="M2473.2,-201.06C2674.51,-169.55 2729.54,-189.91 2928,-165 2940.77,-163.4 2954.57,-161.21 2967.21,-159.02"/>
<polygon fill="midnightblue" stroke="midnightblue" points="2472.51,-197.63 2463.19,-202.65 2473.61,-204.54 2472.51,-197.63"/>
</g>
<!-- Node26 -->
<g id="node17" class="node">
<title>Node26</title>
<g id="a_node17"><a xlink:href="ForwardKinematics_8cpp.html" target="_top" xlink:title=" ">
<polygon fill="none" stroke="black" points="3104.5,-140 3104.5,-159 3235.5,-159 3235.5,-140 3104.5,-140"/>
<text text-anchor="middle" x="3170" y="-147" font-family="FreeSans.ttf" font-size="10.00">ForwardKinematics.cpp</text>
</a>
</g>
</g>
<!-- Node2&#45;&gt;Node26 -->
<g id="edge17" class="edge">
<title>Node2&#45;&gt;Node26</title>
<path fill="none" stroke="midnightblue" d="M2473.45,-201.07C2748.14,-161.01 2823.15,-198.98 3095,-165 3106.84,-163.52 3119.63,-161.29 3131.23,-159.02"/>
<polygon fill="midnightblue" stroke="midnightblue" points="2472.56,-197.66 2463.18,-202.59 2473.58,-204.59 2472.56,-197.66"/>
</g>
<!-- Node27 -->
<g id="node18" class="node">
<title>Node27</title>
<g id="a_node18"><a xlink:href="FreeFloatingMatrices_8cpp.html" target="_top" xlink:title=" ">
<polygon fill="none" stroke="black" points="3254,-140 3254,-159 3394,-159 3394,-140 3254,-140"/>
<text text-anchor="middle" x="3324" y="-147" font-family="FreeSans.ttf" font-size="10.00">FreeFloatingMatrices.cpp</text>
</a>
</g>
</g>
<!-- Node2&#45;&gt;Node27 -->
<g id="edge18" class="edge">
<title>Node2&#45;&gt;Node27</title>
<path fill="none" stroke="midnightblue" d="M2473.32,-201.11C2813.79,-153.18 2906.04,-203.34 3244,-165 3256.76,-163.55 3270.56,-161.3 3283.05,-159"/>
<polygon fill="midnightblue" stroke="midnightblue" points="2472.58,-197.68 2463.17,-202.56 2473.57,-204.61 2472.58,-197.68"/>
</g>
<!-- Node28 -->
<g id="node19" class="node">
<title>Node28</title>
<g id="a_node19"><a xlink:href="FreeFloatingState_8cpp.html" target="_top" xlink:title=" ">
<polygon fill="none" stroke="black" points="3412.5,-140 3412.5,-159 3535.5,-159 3535.5,-140 3412.5,-140"/>
<text text-anchor="middle" x="3474" y="-147" font-family="FreeSans.ttf" font-size="10.00">FreeFloatingState.cpp</text>
</a>
</g>
</g>
<!-- Node2&#45;&gt;Node28 -->
<g id="edge19" class="edge">
<title>Node2&#45;&gt;Node28</title>
<path fill="none" stroke="midnightblue" d="M2473.24,-201.14C2883.9,-144.91 2995.21,-214.19 3403,-165 3414.49,-163.61 3426.89,-161.35 3438.07,-159.02"/>
<polygon fill="midnightblue" stroke="midnightblue" points="2472.59,-197.69 2463.17,-202.53 2473.56,-204.63 2472.59,-197.69"/>
</g>
<!-- Node29 -->
<g id="node20" class="node">
<title>Node29</title>
<g id="a_node20"><a xlink:href="Jacobians_8cpp.html" target="_top" xlink:title=" ">
<polygon fill="none" stroke="black" points="3553.5,-140 3553.5,-159 3636.5,-159 3636.5,-140 3553.5,-140"/>
<text text-anchor="middle" x="3595" y="-147" font-family="FreeSans.ttf" font-size="10.00">Jacobians.cpp</text>
</a>
</g>
</g>
<!-- Node2&#45;&gt;Node29 -->
<g id="edge20" class="edge">
<title>Node2&#45;&gt;Node29</title>
<path fill="none" stroke="midnightblue" d="M2473.33,-201.14C2946.15,-137.77 3076.36,-238.21 3544,-165 3552.46,-163.68 3561.5,-161.4 3569.59,-159.04"/>
<polygon fill="midnightblue" stroke="midnightblue" points="2472.61,-197.7 2463.17,-202.52 2473.55,-204.64 2472.61,-197.7"/>
</g>
<!-- Node30 -->
<g id="node21" class="node">
<title>Node30</title>
<g id="a_node21"><a xlink:href="JointState_8cpp.html" target="_top" xlink:title=" ">
<polygon fill="none" stroke="black" points="3655,-140 3655,-159 3739,-159 3739,-140 3655,-140"/>
<text text-anchor="middle" x="3697" y="-147" font-family="FreeSans.ttf" font-size="10.00">JointState.cpp</text>
</a>
</g>
</g>
<!-- Node2&#45;&gt;Node30 -->
<g id="edge21" class="edge">
<title>Node2&#45;&gt;Node30</title>
<path fill="none" stroke="midnightblue" d="M2473.13,-201.17C2990.66,-132.41 3132.65,-243.12 3645,-165 3653.62,-163.69 3662.84,-161.41 3671.08,-159.05"/>
<polygon fill="midnightblue" stroke="midnightblue" points="2472.61,-197.71 2463.17,-202.51 2473.54,-204.65 2472.61,-197.71"/>
</g>
<!-- Node31 -->
<g id="node22" class="node">
<title>Node31</title>
<g id="a_node22"><a xlink:href="LinkState_8cpp.html" target="_top" xlink:title=" ">
<polygon fill="none" stroke="black" points="3757.5,-140 3757.5,-159 3840.5,-159 3840.5,-140 3757.5,-140"/>
<text text-anchor="middle" x="3799" y="-147" font-family="FreeSans.ttf" font-size="10.00">LinkState.cpp</text>
</a>
</g>
</g>
<!-- Node2&#45;&gt;Node31 -->
<g id="edge22" class="edge">
<title>Node2&#45;&gt;Node31</title>
<path fill="none" stroke="midnightblue" d="M2473.16,-201.17C3036.1,-127 3190.54,-250.74 3748,-165 3756.46,-163.7 3765.51,-161.43 3773.59,-159.07"/>
<polygon fill="midnightblue" stroke="midnightblue" points="2472.62,-197.71 2463.17,-202.5 2473.54,-204.65 2472.62,-197.71"/>
</g>
<!-- Node32 -->
<g id="node23" class="node">
<title>Node32</title>
<g id="a_node23"><a xlink:href="LinkTraversalsCache_8cpp.html" target="_top" xlink:title=" ">
<polygon fill="none" stroke="black" points="3858.5,-140 3858.5,-159 3995.5,-159 3995.5,-140 3858.5,-140"/>
<text text-anchor="middle" x="3927" y="-147" font-family="FreeSans.ttf" font-size="10.00">LinkTraversalsCache.cpp</text>
</a>
</g>
</g>
<!-- Node2&#45;&gt;Node32 -->
<g id="edge23" class="edge">
<title>Node2&#45;&gt;Node32</title>
<path fill="none" stroke="midnightblue" d="M2473.49,-201.13C3080.68,-121.41 3243.58,-228.78 3849,-165 3861.74,-163.66 3875.52,-161.38 3887.9,-159.02"/>
<polygon fill="midnightblue" stroke="midnightblue" points="2472.62,-197.71 2463.16,-202.5 2473.54,-204.65 2472.62,-197.71"/>
</g>
<!-- Node33 -->
<g id="node24" class="node">
<title>Node33</title>
<g id="a_node24"><a xlink:href="Model_8cpp.html" target="_top" xlink:title=" ">
<polygon fill="none" stroke="black" points="4013.5,-140 4013.5,-159 4080.5,-159 4080.5,-140 4013.5,-140"/>
<text text-anchor="middle" x="4047" y="-147" font-family="FreeSans.ttf" font-size="10.00">Model.cpp</text>
</a>
</g>
</g>
<!-- Node2&#45;&gt;Node33 -->
<g id="edge24" class="edge">
<title>Node2&#45;&gt;Node33</title>
<path fill="none" stroke="midnightblue" d="M2473.2,-201.21C2825.93,-157.77 3671.82,-223.51 4004,-165 4011.29,-163.72 4019.03,-161.42 4025.9,-159.03"/>
<polygon fill="midnightblue" stroke="midnightblue" points="2472.64,-197.75 2463.16,-202.49 2473.53,-204.69 2472.64,-197.75"/>
</g>
<!-- Node34 -->
<g id="node25" class="node">
<title>Node34</title>
<g id="a_node25"><a xlink:href="ModelTransformers_8cpp.html" target="_top" xlink:title=" ">
<polygon fill="none" stroke="black" points="4098.5,-140 4098.5,-159 4229.5,-159 4229.5,-140 4098.5,-140"/>
<text text-anchor="middle" x="4164" y="-147" font-family="FreeSans.ttf" font-size="10.00">ModelTransformers.cpp</text>
</a>
</g>
</g>
<!-- Node2&#45;&gt;Node34 -->
<g id="edge25" class="edge">
<title>Node2&#45;&gt;Node34</title>
<path fill="none" stroke="midnightblue" d="M2473.17,-201.18C3186.51,-108.74 3377.55,-241.14 4089,-165 4101.26,-163.69 4114.51,-161.42 4126.42,-159.05"/>
<polygon fill="midnightblue" stroke="midnightblue" points="2472.63,-197.72 2463.16,-202.48 2473.53,-204.66 2472.63,-197.72"/>
</g>
<!-- Node35 -->
<g id="node26" class="node">
<title>Node35</title>
<g id="a_node26"><a xlink:href="SolidShapes_8cpp.html" target="_top" xlink:title=" ">
<polygon fill="none" stroke="black" points="4248,-140 4248,-159 4344,-159 4344,-140 4248,-140"/>
<text text-anchor="middle" x="4296" y="-147" font-family="FreeSans.ttf" font-size="10.00">SolidShapes.cpp</text>
</a>
</g>
</g>
<!-- Node2&#45;&gt;Node35 -->
<g id="edge26" class="edge">
<title>Node2&#45;&gt;Node35</title>
<path fill="none" stroke="midnightblue" d="M2473.22,-201.18C3252.28,-101.06 3463.17,-268.41 4238,-165 4247.67,-163.71 4258.06,-161.41 4267.34,-159.02"/>
<polygon fill="midnightblue" stroke="midnightblue" points="2472.63,-197.72 2463.16,-202.48 2473.53,-204.66 2472.63,-197.72"/>
</g>
<!-- Node36 -->
<g id="node27" class="node">
<title>Node36</title>
<g id="a_node27"><a xlink:href="SubModel_8cpp.html" target="_top" xlink:title=" ">
<polygon fill="none" stroke="black" points="4362.5,-140 4362.5,-159 4447.5,-159 4447.5,-140 4362.5,-140"/>
<text text-anchor="middle" x="4405" y="-147" font-family="FreeSans.ttf" font-size="10.00">SubModel.cpp</text>
</a>
</g>
</g>
<!-- Node2&#45;&gt;Node36 -->
<g id="edge27" class="edge">
<title>Node2&#45;&gt;Node36</title>
<path fill="none" stroke="midnightblue" d="M2473.2,-201.21C2903.02,-148.49 3942.58,-225.16 4353,-165 4361.72,-163.72 4371.04,-161.43 4379.36,-159.04"/>
<polygon fill="midnightblue" stroke="midnightblue" points="2472.64,-197.75 2463.16,-202.48 2473.52,-204.69 2472.64,-197.75"/>
</g>
<!-- Node37 -->
<g id="node28" class="node">
<title>Node37</title>
<g id="a_node28"><a xlink:href="Traversal_8cpp.html" target="_top" xlink:title=" ">
<polygon fill="none" stroke="black" points="4465.5,-140 4465.5,-159 4546.5,-159 4546.5,-140 4465.5,-140"/>
<text text-anchor="middle" x="4506" y="-147" font-family="FreeSans.ttf" font-size="10.00">Traversal.cpp</text>
</a>
</g>
</g>
<!-- Node2&#45;&gt;Node37 -->
<g id="edge28" class="edge">
<title>Node2&#45;&gt;Node37</title>
<path fill="none" stroke="midnightblue" d="M2473.41,-201.18C2926.11,-145.85 4023.3,-230.48 4456,-165 4464.4,-163.73 4473.37,-161.44 4481.37,-159.04"/>
<polygon fill="midnightblue" stroke="midnightblue" points="2472.65,-197.75 2463.16,-202.47 2473.52,-204.69 2472.65,-197.75"/>
</g>
<!-- Node38 -->
<g id="node29" class="node">
<title>Node38</title>
<g id="a_node29"><a xlink:href="ModelCalibrationHelper_8h.html" target="_top" xlink:title=" ">
<polygon fill="none" stroke="red" points="152,-6 152,-25 292,-25 292,-6 152,-6"/>
<text text-anchor="middle" x="222" y="-13" font-family="FreeSans.ttf" font-size="10.00">ModelCalibrationHelper.h</text>
</a>
</g>
</g>
<!-- Node2&#45;&gt;Node38 -->
<g id="edge29" class="edge">
<title>Node2&#45;&gt;Node38</title>
<path fill="none" stroke="midnightblue" d="M2396.27,-209.82C2108.33,-208.44 311.15,-198.47 267,-165 221.49,-130.5 220.49,-51.3 221.5,-25.09"/>
<polygon fill="midnightblue" stroke="midnightblue" points="2396.6,-213.33 2406.62,-209.87 2396.64,-206.33 2396.6,-213.33"/>
</g>
<!-- Node40 -->
<g id="node30" class="node">
<title>Node40</title>
<g id="a_node30"><a xlink:href="ModelExporter_8h.html" target="_top" xlink:title=" ">
<polygon fill="none" stroke="red" points="57,-73 57,-92 153,-92 153,-73 57,-73"/>
<text text-anchor="middle" x="105" y="-80" font-family="FreeSans.ttf" font-size="10.00">ModelExporter.h</text>
</a>
</g>
</g>
<!-- Node2&#45;&gt;Node40 -->
<g id="edge30" class="edge">
<title>Node2&#45;&gt;Node40</title>
<path fill="none" stroke="midnightblue" d="M2396.43,-209.7C2101.91,-207.35 218.78,-191.31 167,-165 135.94,-149.21 116.1,-109.83 108.5,-92.23"/>
<polygon fill="midnightblue" stroke="midnightblue" points="2396.59,-213.2 2406.61,-209.78 2396.64,-206.2 2396.59,-213.2"/>
</g>
<!-- Node44 -->
<g id="node31" class="node">
<title>Node44</title>
<g id="a_node31"><a xlink:href="idyntree-model-simplify-shapes_8cpp.html" target="_top" xlink:title=" ">
<polygon fill="none" stroke="black" points="0,-0.5 0,-30.5 134,-30.5 134,-0.5 0,-0.5"/>
<text text-anchor="start" x="8" y="-18.5" font-family="FreeSans.ttf" font-size="10.00">idyntree&#45;model&#45;simplify</text>
<text text-anchor="middle" x="67" y="-7.5" font-family="FreeSans.ttf" font-size="10.00">&#45;shapes.cpp</text>
</a>
</g>
</g>
<!-- Node2&#45;&gt;Node44 -->
<g id="edge67" class="edge">
<title>Node2&#45;&gt;Node44</title>
<path fill="none" stroke="midnightblue" d="M2396.89,-209.96C2105.74,-209.55 241.87,-205.39 131,-165 86.46,-148.77 68.44,-140.77 48,-98 37.41,-75.85 49.08,-47.42 58.24,-30.66"/>
<polygon fill="midnightblue" stroke="midnightblue" points="2396.95,-213.46 2406.96,-209.97 2396.96,-206.46 2396.95,-213.46"/>
</g>
<!-- Node45 -->
<g id="node32" class="node">
<title>Node45</title>
<g id="a_node32"><a xlink:href="ModelLoader_8h.html" target="_top" xlink:title=" ">
<polygon fill="none" stroke="red" points="1435,-73 1435,-92 1523,-92 1523,-73 1435,-73"/>
<text text-anchor="middle" x="1479" y="-80" font-family="FreeSans.ttf" font-size="10.00">ModelLoader.h</text>
</a>
</g>
</g>
<!-- Node2&#45;&gt;Node45 -->
<g id="edge33" class="edge">
<title>Node2&#45;&gt;Node45</title>
<path fill="none" stroke="midnightblue" d="M2396.79,-209.51C2224.42,-207.14 1526.24,-195.65 1492,-165 1471.18,-146.36 1474.54,-108.83 1477.32,-92"/>
<polygon fill="midnightblue" stroke="midnightblue" points="2396.86,-213.01 2406.91,-209.65 2396.96,-206.01 2396.86,-213.01"/>
</g>
<!-- Node46 -->
<g id="node33" class="node">
<title>Node46</title>
<g id="a_node33"><a xlink:href="URDFDocument_8h.html" target="_top" xlink:title=" ">
<polygon fill="none" stroke="red" points="1355,-6 1355,-25 1459,-25 1459,-6 1355,-6"/>
<text text-anchor="middle" x="1407" y="-13" font-family="FreeSans.ttf" font-size="10.00">URDFDocument.h</text>
</a>
</g>
</g>
<!-- Node2&#45;&gt;Node46 -->
<g id="edge44" class="edge">
<title>Node2&#45;&gt;Node46</title>
<path fill="none" stroke="midnightblue" d="M2396.84,-210.18C2228.25,-210.73 1554.93,-210.07 1473,-165 1420.35,-136.04 1409.62,-52.47 1407.5,-25.21"/>
<polygon fill="midnightblue" stroke="midnightblue" points="2396.99,-213.68 2406.98,-210.15 2396.97,-206.68 2396.99,-213.68"/>
</g>
<!-- Node49 -->
<g id="node34" class="node">
<title>Node49</title>
<g id="a_node34"><a xlink:href="URDFDofsImport_8cpp.html" target="_top" xlink:title=" ">
<polygon fill="none" stroke="black" points="1488.5,-6 1488.5,-25 1607.5,-25 1607.5,-6 1488.5,-6"/>
<text text-anchor="middle" x="1548" y="-13" font-family="FreeSans.ttf" font-size="10.00">URDFDofsImport.cpp</text>
</a>
</g>
</g>
<!-- Node2&#45;&gt;Node49 -->
<g id="edge47" class="edge">
<title>Node2&#45;&gt;Node49</title>
<path fill="none" stroke="midnightblue" d="M2396.65,-210.11C2251.71,-210.18 1742.57,-207.41 1685,-165 1647.51,-137.39 1679.12,-101.63 1648,-67 1629.28,-46.17 1599.98,-32.79 1577.92,-25.08"/>
<polygon fill="midnightblue" stroke="midnightblue" points="2396.84,-213.61 2406.84,-210.1 2396.84,-206.61 2396.84,-213.61"/>
</g>
<!-- Node50 -->
<g id="node35" class="node">
<title>Node50</title>
<g id="a_node35"><a xlink:href="idyntree-model-info_8cpp.html" target="_top" xlink:title=" ">
<polygon fill="none" stroke="black" points="1632,-6 1632,-25 1766,-25 1766,-6 1632,-6"/>
<text text-anchor="middle" x="1699" y="-13" font-family="FreeSans.ttf" font-size="10.00">idyntree&#45;model&#45;info.cpp</text>
</a>
</g>
</g>
<!-- Node2&#45;&gt;Node50 -->
<g id="edge66" class="edge">
<title>Node2&#45;&gt;Node50</title>
<path fill="none" stroke="midnightblue" d="M2396.31,-209.09C2247.89,-205.42 1722.13,-190.65 1698,-165 1679.01,-144.81 1692.62,-53.79 1697.47,-25.15"/>
<polygon fill="midnightblue" stroke="midnightblue" points="2396.64,-212.6 2406.72,-209.35 2396.81,-205.6 2396.64,-212.6"/>
</g>
<!-- Node51 -->
<g id="node36" class="node">
<title>Node51</title>
<g id="a_node36"><a xlink:href="idyntree-model-view_8cpp.html" target="_top" xlink:title=" ">
<polygon fill="none" stroke="black" points="3358.5,-6 3358.5,-25 3495.5,-25 3495.5,-6 3358.5,-6"/>
<text text-anchor="middle" x="3427" y="-13" font-family="FreeSans.ttf" font-size="10.00">idyntree&#45;model&#45;view.cpp</text>
</a>
</g>
</g>
<!-- Node2&#45;&gt;Node51 -->
<g id="edge68" class="edge">
<title>Node2&#45;&gt;Node51</title>
<path fill="none" stroke="midnightblue" d="M2473.33,-201.74C2664.36,-193.02 5038.21,-215.48 5088,-165 5144.13,-108.09 5130.58,-110.83 4878,-67 4741.17,-43.26 3764.66,-22.97 3495.53,-17.78"/>
<polygon fill="midnightblue" stroke="midnightblue" points="2472.89,-198.27 2463.16,-202.46 2473.38,-205.25 2472.89,-198.27"/>
</g>
<!-- Node52 -->
<g id="node37" class="node">
<title>Node52</title>
<g id="a_node37"><a xlink:href="ObserverThread_8cpp.html" target="_top" xlink:title=" ">
<polygon fill="none" stroke="black" points="4300.5,-6 4300.5,-25 4415.5,-25 4415.5,-6 4300.5,-6"/>
<text text-anchor="middle" x="4358" y="-13" font-family="FreeSans.ttf" font-size="10.00">ObserverThread.cpp</text>
</a>
</g>
</g>
<!-- Node2&#45;&gt;Node52 -->
<g id="edge69" class="edge">
<title>Node2&#45;&gt;Node52</title>
<path fill="none" stroke="midnightblue" d="M2473.14,-201.75C2663.87,-192.94 5063.69,-216 5114,-165 5191.63,-86.3 5163.98,-118.37 4978,-67 4872.99,-37.99 4548.43,-23.34 4415.58,-18.43"/>
<polygon fill="midnightblue" stroke="midnightblue" points="2472.89,-198.26 2463.16,-202.46 2473.38,-205.24 2472.89,-198.26"/>
</g>
<!-- Node54 -->
<g id="node38" class="node">
<title>Node54</title>
<g id="a_node38"><a xlink:href="InertialElement_8h.html" target="_top" xlink:title=" ">
<polygon fill="none" stroke="red" points="1511.5,-140 1511.5,-159 1612.5,-159 1612.5,-140 1511.5,-140"/>
<text text-anchor="middle" x="1562" y="-147" font-family="FreeSans.ttf" font-size="10.00">InertialElement.h</text>
</a>
</g>
</g>
<!-- Node2&#45;&gt;Node54 -->
<g id="edge42" class="edge">
<title>Node2&#45;&gt;Node54</title>
<path fill="none" stroke="midnightblue" d="M2396.76,-210.09C2280.5,-209.88 1921.2,-205.73 1627,-165 1616.58,-163.56 1605.35,-161.31 1595.21,-159.01"/>
<polygon fill="midnightblue" stroke="midnightblue" points="2396.93,-213.59 2406.93,-210.1 2396.93,-206.59 2396.93,-213.59"/>
</g>
<!-- Node56 -->
<g id="node39" class="node">
<title>Node56</title>
<g id="a_node39"><a xlink:href="LinkElement_8cpp.html" target="_top" xlink:title=" ">
<polygon fill="none" stroke="black" points="1541,-73 1541,-92 1639,-92 1639,-73 1541,-73"/>
<text text-anchor="middle" x="1590" y="-80" font-family="FreeSans.ttf" font-size="10.00">LinkElement.cpp</text>
</a>
</g>
</g>
<!-- Node2&#45;&gt;Node56 -->
<g id="edge45" class="edge">
<title>Node2&#45;&gt;Node56</title>
<path fill="none" stroke="midnightblue" d="M2396.8,-209.61C2225.28,-207.69 1533.35,-197.9 1502,-165 1475.21,-136.89 1534.16,-106.48 1568.14,-92.04"/>
<polygon fill="midnightblue" stroke="midnightblue" points="2396.84,-213.11 2406.87,-209.72 2396.91,-206.11 2396.84,-213.11"/>
</g>
<!-- Node57 -->
<g id="node40" class="node">
<title>Node57</title>
<g id="a_node40"><a xlink:href="RobotElement_8cpp.html" target="_top" xlink:title=" ">
<polygon fill="none" stroke="black" points="1073,-73 1073,-92 1179,-92 1179,-73 1073,-73"/>
<text text-anchor="middle" x="1126" y="-80" font-family="FreeSans.ttf" font-size="10.00">RobotElement.cpp</text>
</a>
</g>
</g>
<!-- Node2&#45;&gt;Node57 -->
<g id="edge46" class="edge">
<title>Node2&#45;&gt;Node57</title>
<path fill="none" stroke="midnightblue" d="M2396.87,-209.81C2205.8,-208.66 1357.36,-201.56 1246,-165 1198.86,-149.52 1153.21,-109.6 1134.67,-92.03"/>
<polygon fill="midnightblue" stroke="midnightblue" points="2396.97,-213.31 2406.99,-209.86 2397.01,-206.31 2396.97,-213.31"/>
</g>
<!-- Node43 -->
<g id="node41" class="node">
<title>Node43</title>
<g id="a_node41"><a xlink:href="URDFModelExport_8cpp.html" target="_top" xlink:title=" ">
<polygon fill="none" stroke="black" points="4565,-140 4565,-159 4691,-159 4691,-140 4565,-140"/>
<text text-anchor="middle" x="4628" y="-147" font-family="FreeSans.ttf" font-size="10.00">URDFModelExport.cpp</text>
</a>
</g>
</g>
<!-- Node2&#45;&gt;Node43 -->
<g id="edge48" class="edge">
<title>Node2&#45;&gt;Node43</title>
<path fill="none" stroke="midnightblue" d="M2473.21,-201.2C2947.61,-142.95 4097.93,-213.95 4555,-165 4567.08,-163.71 4580.13,-161.41 4591.81,-159.02"/>
<polygon fill="midnightblue" stroke="midnightblue" points="2472.64,-197.75 2463.16,-202.47 2473.52,-204.69 2472.64,-197.75"/>
</g>
<!-- Node58 -->
<g id="node42" class="node">
<title>Node58</title>
<g id="a_node42"><a xlink:href="Sensors_8h.html" target="_top" xlink:title=" ">
<polygon fill="none" stroke="red" points="808,-140 808,-159 872,-159 872,-140 808,-140"/>
<text text-anchor="middle" x="840" y="-147" font-family="FreeSans.ttf" font-size="10.00">Sensors.h</text>
</a>
</g>
</g>
<!-- Node2&#45;&gt;Node58 -->
<g id="edge49" class="edge">
<title>Node2&#45;&gt;Node58</title>
<path fill="none" stroke="midnightblue" d="M2396.96,-209.33C2233.92,-206.36 1578.09,-193.17 1040,-165 980.72,-161.9 911.69,-156.5 872.19,-153.23"/>
<polygon fill="midnightblue" stroke="midnightblue" points="2396.91,-212.83 2406.98,-209.51 2397.04,-205.83 2396.91,-212.83"/>
</g>
<!-- Node73 -->
<g id="node43" class="node">
<title>Node73</title>
<g id="a_node43"><a xlink:href="ModelSensorsTransformers_8cpp.html" target="_top" xlink:title=" ">
<polygon fill="none" stroke="black" points="886.5,-73 886.5,-92 1055.5,-92 1055.5,-73 886.5,-73"/>
<text text-anchor="middle" x="971" y="-80" font-family="FreeSans.ttf" font-size="10.00">ModelSensorsTransformers.cpp</text>
</a>
</g>
</g>
<!-- Node2&#45;&gt;Node73 -->
<g id="edge61" class="edge">
<title>Node2&#45;&gt;Node73</title>
<path fill="none" stroke="midnightblue" d="M2396.77,-210.32C2213.47,-211.6 1423.54,-214.13 1183,-165 1106.89,-149.46 1022.38,-109.57 987.46,-92.01"/>
<polygon fill="midnightblue" stroke="midnightblue" points="2397.02,-213.82 2406.99,-210.25 2396.97,-206.82 2397.02,-213.82"/>
</g>
<!-- Node68 -->
<g id="node44" class="node">
<title>Node68</title>
<g id="a_node44"><a xlink:href="PredictSensorsMeasurements_8cpp.html" target="_top" xlink:title=" ">
<polygon fill="none" stroke="black" points="1197,-73 1197,-92 1379,-92 1379,-73 1197,-73"/>
<text text-anchor="middle" x="1288" y="-80" font-family="FreeSans.ttf" font-size="10.00">PredictSensorsMeasurements.cpp</text>
</a>
</g>
</g>
<!-- Node2&#45;&gt;Node68 -->
<g id="edge62" class="edge">
<title>Node2&#45;&gt;Node68</title>
<path fill="none" stroke="midnightblue" d="M2396.85,-209.72C2220.46,-208.25 1488.58,-200.06 1393,-165 1387.5,-162.98 1324.7,-112.92 1298.93,-92.27"/>
<polygon fill="midnightblue" stroke="midnightblue" points="2396.92,-213.22 2406.95,-209.8 2396.98,-206.22 2396.92,-213.22"/>
</g>
<!-- Node79 -->
<g id="node45" class="node">
<title>Node79</title>
<g id="a_node45"><a xlink:href="InertialParametersSolidShapesHelpers_8h.html" target="_top" xlink:title=" ">
<polygon fill="none" stroke="red" points="4747,-134.5 4747,-164.5 4913,-164.5 4913,-134.5 4747,-134.5"/>
<text text-anchor="start" x="4755" y="-152.5" font-family="FreeSans.ttf" font-size="10.00">InertialParametersSolidShapes</text>
<text text-anchor="middle" x="4830" y="-141.5" font-family="FreeSans.ttf" font-size="10.00">Helpers.h</text>
</a>
</g>
</g>
<!-- Node2&#45;&gt;Node79 -->
<g id="edge63" class="edge">
<title>Node2&#45;&gt;Node79</title>
<path fill="none" stroke="midnightblue" d="M2473.29,-201.19C2987.05,-138.13 4235.49,-205.96 4733,-165 4737.5,-164.63 4742.1,-164.18 4746.75,-163.67"/>
<polygon fill="midnightblue" stroke="midnightblue" points="2472.65,-197.75 2463.16,-202.47 2473.52,-204.69 2472.65,-197.75"/>
</g>
<!-- Node81 -->
<g id="node46" class="node">
<title>Node81</title>
<g id="a_node46"><a xlink:href="ModelTransformersSolidShapes_8cpp.html" target="_top" xlink:title=" ">
<polygon fill="none" stroke="black" points="4679,-73 4679,-92 4869,-92 4869,-73 4679,-73"/>
<text text-anchor="middle" x="4774" y="-80" font-family="FreeSans.ttf" font-size="10.00">ModelTransformersSolidShapes.cpp</text>
</a>
</g>
</g>
<!-- Node2&#45;&gt;Node81 -->
<g id="edge65" class="edge">
<title>Node2&#45;&gt;Node81</title>
<path fill="none" stroke="midnightblue" d="M2473.27,-201.49C2673.81,-186.47 4589.47,-215.01 4700,-165 4717.5,-157.08 4753.14,-111.36 4767.64,-92.07"/>
<polygon fill="midnightblue" stroke="midnightblue" points="2472.78,-198.02 2463.16,-202.47 2473.45,-204.99 2472.78,-198.02"/>
</g>
<!-- Node82 -->
<g id="node47" class="node">
<title>Node82</title>
<g id="a_node47"><a xlink:href="DummyImplementations_8h.html" target="_top" xlink:title=" ">
<polygon fill="none" stroke="red" points="4931,-140 4931,-159 5079,-159 5079,-140 4931,-140"/>
<text text-anchor="middle" x="5005" y="-147" font-family="FreeSans.ttf" font-size="10.00">DummyImplementations.h</text>
</a>
</g>
</g>
<!-- Node2&#45;&gt;Node82 -->
<g id="edge70" class="edge">
<title>Node2&#45;&gt;Node82</title>
<path fill="none" stroke="midnightblue" d="M2473.3,-201.19C3028.81,-133.24 4383.2,-215.7 4922,-165 4935.69,-163.71 4950.52,-161.41 4963.8,-159.02"/>
<polygon fill="midnightblue" stroke="midnightblue" points="2472.65,-197.75 2463.16,-202.46 2473.52,-204.69 2472.65,-197.75"/>
</g>
<!-- Node3&#45;&gt;Node4 -->
<g id="edge3" class="edge">
<title>Node3&#45;&gt;Node4</title>
<path fill="none" stroke="midnightblue" d="M699.15,-60.6C710.02,-50.78 722.7,-39.34 732.41,-30.58"/>
<polygon fill="midnightblue" stroke="midnightblue" points="696.7,-58.1 691.62,-67.4 701.39,-63.29 696.7,-58.1"/>
</g>
<!-- Node40&#45;&gt;Node38 -->
<g id="edge31" class="edge">
<title>Node40&#45;&gt;Node38</title>
<path fill="none" stroke="midnightblue" d="M129.68,-67.79C152.87,-54.9 186.86,-36.02 206.47,-25.13"/>
<polygon fill="midnightblue" stroke="midnightblue" points="127.82,-64.82 120.78,-72.73 131.22,-70.94 127.82,-64.82"/>
</g>
<!-- Node40&#45;&gt;Node44 -->
<g id="edge32" class="edge">
<title>Node40&#45;&gt;Node44</title>
<path fill="none" stroke="midnightblue" d="M94.79,-64.03C88.66,-53.56 80.97,-40.4 75.24,-30.59"/>
<polygon fill="midnightblue" stroke="midnightblue" points="91.81,-65.87 99.88,-72.73 97.85,-62.33 91.81,-65.87"/>
</g>
<!-- Node45&#45;&gt;Node4 -->
<g id="edge34" class="edge">
<title>Node45&#45;&gt;Node4</title>
<path fill="none" stroke="midnightblue" d="M1424.72,-72.13C1412.66,-70.25 1399.91,-68.42 1388,-67 1186.57,-43.04 948.07,-27.63 827.02,-20.71"/>
<polygon fill="midnightblue" stroke="midnightblue" points="1424.24,-75.6 1434.66,-73.71 1425.34,-68.68 1424.24,-75.6"/>
</g>
<!-- Node45&#45;&gt;Node11 -->
<g id="edge35" class="edge">
<title>Node45&#45;&gt;Node11</title>
<path fill="none" stroke="midnightblue" d="M1424.75,-71.87C1412.69,-70 1399.93,-68.24 1388,-67 1065.79,-33.46 983.03,-55.35 660,-31 636.24,-29.21 610.3,-26.74 587.12,-24.34"/>
<polygon fill="midnightblue" stroke="midnightblue" points="1424.27,-75.33 1434.69,-73.45 1425.37,-68.42 1424.27,-75.33"/>
</g>
<!-- Node45&#45;&gt;Node44 -->
<g id="edge39" class="edge">
<title>Node45&#45;&gt;Node44</title>
<path fill="none" stroke="midnightblue" d="M1424.77,-71.68C1412.7,-69.83 1399.95,-68.12 1388,-67 836.85,-15.34 693.3,-91.06 143,-31 140.06,-30.68 137.07,-30.31 134.05,-29.89"/>
<polygon fill="midnightblue" stroke="midnightblue" points="1424.29,-75.15 1434.71,-73.27 1425.39,-68.24 1424.29,-75.15"/>
</g>
<!-- Node45&#45;&gt;Node46 -->
<g id="edge36" class="edge">
<title>Node45&#45;&gt;Node46</title>
<path fill="none" stroke="midnightblue" d="M1461.67,-65.86C1447.52,-53.08 1428.04,-35.49 1416.56,-25.13"/>
<polygon fill="midnightblue" stroke="midnightblue" points="1459.52,-68.63 1469.29,-72.73 1464.21,-63.43 1459.52,-68.63"/>
</g>
<!-- Node45&#45;&gt;Node49 -->
<g id="edge37" class="edge">
<title>Node45&#45;&gt;Node49</title>
<path fill="none" stroke="midnightblue" d="M1495.61,-65.86C1509.17,-53.08 1527.84,-35.49 1538.84,-25.13"/>
<polygon fill="midnightblue" stroke="midnightblue" points="1493.18,-63.33 1488.31,-72.73 1497.98,-68.42 1493.18,-63.33"/>
</g>
<!-- Node45&#45;&gt;Node50 -->
<g id="edge38" class="edge">
<title>Node45&#45;&gt;Node50</title>
<path fill="none" stroke="midnightblue" d="M1517.89,-70.01C1561.43,-57.15 1630.99,-36.59 1670.02,-25.06"/>
<polygon fill="midnightblue" stroke="midnightblue" points="1516.81,-66.68 1508.21,-72.87 1518.8,-73.39 1516.81,-66.68"/>
</g>
<!-- Node45&#45;&gt;Node51 -->
<g id="edge40" class="edge">
<title>Node45&#45;&gt;Node51</title>
<path fill="none" stroke="midnightblue" d="M1515.21,-70.36C1520.79,-69 1526.51,-67.81 1532,-67 1894.8,-13.34 3062.21,-14.84 3358.25,-16.12"/>
<polygon fill="midnightblue" stroke="midnightblue" points="1514.21,-67 1505.42,-72.93 1515.99,-73.77 1514.21,-67"/>
</g>
<!-- Node45&#45;&gt;Node52 -->
<g id="edge41" class="edge">
<title>Node45&#45;&gt;Node52</title>
<path fill="none" stroke="midnightblue" d="M1515.03,-70.36C1520.66,-68.99 1526.45,-67.8 1532,-67 1549.77,-64.45 3899.97,-24.3 4300.33,-17.48"/>
<polygon fill="midnightblue" stroke="midnightblue" points="1513.93,-67.03 1505.15,-72.96 1515.71,-73.8 1513.93,-67.03"/>
</g>
<!-- Node54&#45;&gt;Node56 -->
<g id="edge43" class="edge">
<title>Node54&#45;&gt;Node56</title>
<path fill="none" stroke="midnightblue" d="M1569.84,-130.29C1575.22,-117.81 1582.11,-101.81 1586.28,-92.13"/>
<polygon fill="midnightblue" stroke="midnightblue" points="1566.52,-129.16 1565.78,-139.73 1572.95,-131.93 1566.52,-129.16"/>
</g>
<!-- Node58&#45;&gt;Node3 -->
<g id="edge50" class="edge">
<title>Node58&#45;&gt;Node3</title>
<path fill="none" stroke="midnightblue" d="M808.61,-136.06C780.83,-125.05 740.32,-108.99 711.39,-97.53"/>
<polygon fill="midnightblue" stroke="midnightblue" points="807.64,-139.44 818.22,-139.87 810.22,-132.93 807.64,-139.44"/>
</g>
<!-- Node58&#45;&gt;Node4 -->
<g id="edge53" class="edge">
<title>Node58&#45;&gt;Node4</title>
<path fill="none" stroke="midnightblue" d="M832.35,-130.59C824.64,-113.49 811.79,-87.37 797,-67 787.24,-53.55 774.02,-40.14 763.77,-30.52"/>
<polygon fill="midnightblue" stroke="midnightblue" points="829.23,-132.2 836.46,-139.95 835.64,-129.38 829.23,-132.2"/>
</g>
<!-- Node58&#45;&gt;Node9 -->
<g id="edge51" class="edge">
<title>Node58&#45;&gt;Node9</title>
<path fill="none" stroke="midnightblue" d="M797.59,-145.6C717.73,-139.74 539.8,-124.68 392,-98 383.11,-96.4 373.57,-94.21 364.84,-92.02"/>
<polygon fill="midnightblue" stroke="midnightblue" points="797.51,-149.11 807.74,-146.34 798.02,-142.13 797.51,-149.11"/>
</g>
<!-- Node58&#45;&gt;Node10 -->
<g id="edge52" class="edge">
<title>Node58&#45;&gt;Node10</title>
<path fill="none" stroke="midnightblue" d="M797.63,-140.63C731.46,-128.34 604.15,-104.7 535.89,-92.02"/>
<polygon fill="midnightblue" stroke="midnightblue" points="797.23,-144.12 807.7,-142.5 798.51,-137.23 797.23,-144.12"/>
</g>
<!-- Node58&#45;&gt;Node38 -->
<g id="edge54" class="edge">
<title>Node58&#45;&gt;Node38</title>
<path fill="none" stroke="midnightblue" d="M825.66,-131.9C805.88,-109.19 771.78,-70.82 764,-67 743.13,-56.75 433.8,-32.4 292.04,-21.7"/>
<polygon fill="midnightblue" stroke="midnightblue" points="823.25,-134.47 832.45,-139.73 828.54,-129.88 823.25,-134.47"/>
</g>
<!-- Node58&#45;&gt;Node40 -->
<g id="edge55" class="edge">
<title>Node58&#45;&gt;Node40</title>
<path fill="none" stroke="midnightblue" d="M797.79,-144.77C670.11,-133.48 288.47,-99.73 153.19,-87.76"/>
<polygon fill="midnightblue" stroke="midnightblue" points="797.68,-148.27 807.95,-145.67 798.29,-141.3 797.68,-148.27"/>
</g>
<!-- Node58&#45;&gt;Node45 -->
<g id="edge56" class="edge">
<title>Node58&#45;&gt;Node45</title>
<path fill="none" stroke="midnightblue" d="M882.24,-145.56C974.32,-138.95 1199.96,-121.62 1388,-98 1403.24,-96.09 1419.84,-93.57 1434.65,-91.17"/>
<polygon fill="midnightblue" stroke="midnightblue" points="881.93,-142.08 872.2,-146.28 882.42,-149.06 881.93,-142.08"/>
</g>
<!-- Node58&#45;&gt;Node46 -->
<g id="edge57" class="edge">
<title>Node58&#45;&gt;Node46</title>
<path fill="none" stroke="midnightblue" d="M842.94,-129.88C847.02,-110.73 856.38,-81.71 877,-67 915.32,-39.65 1228.37,-23.85 1354.57,-18.53"/>
<polygon fill="midnightblue" stroke="midnightblue" points="839.48,-129.35 841.1,-139.82 846.36,-130.62 839.48,-129.35"/>
</g>
<!-- Node58&#45;&gt;Node57 -->
<g id="edge58" class="edge">
<title>Node58&#45;&gt;Node57</title>
<path fill="none" stroke="midnightblue" d="M882.28,-139.07C927.34,-129 1000.74,-112.53 1064,-98 1072.3,-96.09 1081.21,-94.02 1089.62,-92.06"/>
<polygon fill="midnightblue" stroke="midnightblue" points="881.29,-135.71 872.29,-141.31 882.81,-142.54 881.29,-135.71"/>
</g>
<!-- Node58&#45;&gt;Node73 -->
<g id="edge59" class="edge">
<title>Node58&#45;&gt;Node73</title>
<path fill="none" stroke="midnightblue" d="M866.66,-135.27C892.6,-122.4 931.28,-103.21 953.53,-92.17"/>
<polygon fill="midnightblue" stroke="midnightblue" points="864.8,-132.29 857.4,-139.87 867.91,-138.56 864.8,-132.29"/>
</g>
<!-- Node58&#45;&gt;Node68 -->
<g id="edge60" class="edge">
<title>Node58&#45;&gt;Node68</title>
<path fill="none" stroke="midnightblue" d="M882.47,-142.34C962.91,-130.67 1137.63,-105.32 1229.25,-92.02"/>
<polygon fill="midnightblue" stroke="midnightblue" points="881.61,-138.93 872.22,-143.83 882.62,-145.85 881.61,-138.93"/>
</g>
<!-- Node79&#45;&gt;Node81 -->
<g id="edge64" class="edge">
<title>Node79&#45;&gt;Node81</title>
<path fill="none" stroke="midnightblue" d="M4811.18,-126.66C4801.02,-114.86 4789.05,-100.97 4781.49,-92.19"/>
<polygon fill="midnightblue" stroke="midnightblue" points="4808.67,-129.1 4817.85,-134.4 4813.97,-124.54 4808.67,-129.1"/>
</g>
<!-- Node93&#45;&gt;Node56 -->
<g id="edge73" class="edge">
<title>Node93&#45;&gt;Node56</title>
<path fill="none" stroke="midnightblue" d="M1349.55,-137.88C1397.04,-127.97 1469.4,-112.58 1532,-98 1539.99,-96.14 1548.57,-94.05 1556.61,-92.04"/>
<polygon fill="midnightblue" stroke="midnightblue" points="1348.59,-134.5 1339.51,-139.96 1350.02,-141.35 1348.59,-134.5"/>
</g>
<!-- Node93&#45;&gt;Node57 -->
<g id="edge74" class="edge">
<title>Node93&#45;&gt;Node57</title>
<path fill="none" stroke="midnightblue" d="M1265.64,-136.27C1231.5,-123.37 1178.59,-103.38 1148.66,-92.06"/>
<polygon fill="midnightblue" stroke="midnightblue" points="1264.57,-139.61 1275.16,-139.87 1267.04,-133.06 1264.57,-139.61"/>
</g>
</g>
</svg>
