<?xml version="1.0" encoding="UTF-8" standalone="no"?>
<!DOCTYPE svg PUBLIC "-//W3C//DTD SVG 1.1//EN"
 "http://www.w3.org/Graphics/SVG/1.1/DTD/svg11.dtd">
<!-- Generated by graphviz version 2.43.0 (0)
 -->
<!-- Title: Link.h Pages: 1 -->
<svg width="5219pt" height="285pt"
 viewBox="0.00 0.00 5218.71 285.00" xmlns="http://www.w3.org/2000/svg" xmlns:xlink="http://www.w3.org/1999/xlink">
<g id="graph0" class="graph" transform="scale(1 1) rotate(0) translate(4 281)">
<title>Link.h</title>
<!-- Node1 -->
<g id="node1" class="node">
<title>Node1</title>
<g id="a_node1"><a xlink:title=" ">
<polygon fill="#bfbfbf" stroke="black" points="2563.47,-257.5 2563.47,-276.5 2609.47,-276.5 2609.47,-257.5 2563.47,-257.5"/>
<text text-anchor="middle" x="2586.47" y="-264.5" font-family="FreeSans.ttf" font-size="10.00">Link.h</text>
</a>
</g>
</g>
<!-- Node2 -->
<g id="node2" class="node">
<title>Node2</title>
<g id="a_node2"><a xlink:href="Model_8h.html" target="_top" xlink:title=" ">
<polygon fill="none" stroke="black" points="2521.47,-201.5 2521.47,-220.5 2577.47,-220.5 2577.47,-201.5 2521.47,-201.5"/>
<text text-anchor="middle" x="2549.47" y="-208.5" font-family="FreeSans.ttf" font-size="10.00">Model.h</text>
</a>
</g>
</g>
<!-- Node1&#45;&gt;Node2 -->
<g id="edge1" class="edge">
<title>Node1&#45;&gt;Node2</title>
<path fill="none" stroke="midnightblue" d="M2574.52,-248.57C2568.16,-239.27 2560.6,-228.25 2555.47,-220.75"/>
<polygon fill="midnightblue" stroke="midnightblue" points="2571.82,-250.81 2580.36,-257.08 2577.6,-246.86 2571.82,-250.81"/>
</g>
<!-- Node90 -->
<g id="node48" class="node">
<title>Node90</title>
<g id="a_node48"><a xlink:href="Link_8cpp.html" target="_top" xlink:title=" ">
<polygon fill="none" stroke="black" points="2595.97,-201.5 2595.97,-220.5 2652.97,-220.5 2652.97,-201.5 2595.97,-201.5"/>
<text text-anchor="middle" x="2624.47" y="-208.5" font-family="FreeSans.ttf" font-size="10.00">Link.cpp</text>
</a>
</g>
</g>
<!-- Node1&#45;&gt;Node90 -->
<g id="edge68" class="edge">
<title>Node1&#45;&gt;Node90</title>
<path fill="none" stroke="midnightblue" d="M2598.54,-248.86C2605.12,-239.5 2612.98,-228.33 2618.31,-220.75"/>
<polygon fill="midnightblue" stroke="midnightblue" points="2595.64,-246.89 2592.75,-257.08 2601.36,-250.92 2595.64,-246.89"/>
</g>
<!-- Node91 -->
<g id="node49" class="node">
<title>Node91</title>
<g id="a_node49"><a xlink:href="LinkElement_8h.html" target="_top" xlink:title=" ">
<polygon fill="none" stroke="black" points="1145.47,-140 1145.47,-159 1231.47,-159 1231.47,-140 1145.47,-140"/>
<text text-anchor="middle" x="1188.47" y="-147" font-family="FreeSans.ttf" font-size="10.00">LinkElement.h</text>
</a>
</g>
</g>
<!-- Node1&#45;&gt;Node91 -->
<g id="edge69" class="edge">
<title>Node1&#45;&gt;Node91</title>
<path fill="none" stroke="midnightblue" d="M2553.26,-265.67C2401.71,-263.74 1761.07,-250.62 1244.47,-165 1235.55,-163.52 1225.99,-161.29 1217.33,-159.02"/>
<polygon fill="midnightblue" stroke="midnightblue" points="2553.27,-269.17 2563.31,-265.8 2553.36,-262.18 2553.27,-269.17"/>
</g>
<!-- Node73 -->
<g id="node50" class="node">
<title>Node73</title>
<g id="a_node50"><a xlink:href="SixAxisForceTorqueSensor_8cpp.html" target="_top" xlink:title=" ">
<polygon fill="none" stroke="black" points="2671.47,-201.5 2671.47,-220.5 2835.47,-220.5 2835.47,-201.5 2671.47,-201.5"/>
<text text-anchor="middle" x="2753.47" y="-208.5" font-family="FreeSans.ttf" font-size="10.00">SixAxisForceTorqueSensor.cpp</text>
</a>
</g>
</g>
<!-- Node1&#45;&gt;Node73 -->
<g id="edge72" class="edge">
<title>Node1&#45;&gt;Node73</title>
<path fill="none" stroke="midnightblue" d="M2619.35,-255.37C2650.92,-245.16 2697.98,-229.94 2727.15,-220.51"/>
<polygon fill="midnightblue" stroke="midnightblue" points="2618.13,-252.08 2609.69,-258.49 2620.28,-258.75 2618.13,-252.08"/>
</g>
<!-- Node3 -->
<g id="node3" class="node">
<title>Node3</title>
<g id="a_node3"><a xlink:href="ExtWrenchesAndJointTorquesEstimator_8h.html" target="_top" xlink:title=" ">
<polygon fill="none" stroke="black" points="30.47,-67.5 30.47,-97.5 188.47,-97.5 188.47,-67.5 30.47,-67.5"/>
<text text-anchor="start" x="38.47" y="-85.5" font-family="FreeSans.ttf" font-size="10.00">ExtWrenchesAndJointTorques</text>
<text text-anchor="middle" x="109.47" y="-74.5" font-family="FreeSans.ttf" font-size="10.00">Estimator.h</text>
</a>
</g>
</g>
<!-- Node2&#45;&gt;Node3 -->
<g id="edge2" class="edge">
<title>Node2&#45;&gt;Node3</title>
<path fill="none" stroke="midnightblue" d="M2511.1,-210.01C2215.92,-210.03 314.63,-208.42 202.47,-165 166.83,-151.2 135.79,-117.19 120.19,-97.75"/>
<polygon fill="midnightblue" stroke="midnightblue" points="2511.3,-213.51 2521.3,-210.01 2511.3,-206.51 2511.3,-213.51"/>
</g>
<!-- Node4 -->
<g id="node4" class="node">
<title>Node4</title>
<g id="a_node4"><a xlink:href="ExtWrenchesAndJointTorquesEstimator_8cpp.html" target="_top" xlink:title=" ">
<polygon fill="none" stroke="black" points="79.47,-0.5 79.47,-30.5 237.47,-30.5 237.47,-0.5 79.47,-0.5"/>
<text text-anchor="start" x="87.47" y="-18.5" font-family="FreeSans.ttf" font-size="10.00">ExtWrenchesAndJointTorques</text>
<text text-anchor="middle" x="158.47" y="-7.5" font-family="FreeSans.ttf" font-size="10.00">Estimator.cpp</text>
</a>
</g>
</g>
<!-- Node2&#45;&gt;Node4 -->
<g id="edge8" class="edge">
<title>Node2&#45;&gt;Node4</title>
<path fill="none" stroke="midnightblue" d="M2510.9,-209.83C2199.47,-208.39 105.89,-197.53 50.47,-165 10.04,-141.27 -15.76,-105.15 11.47,-67 27.23,-44.93 53.27,-32.4 79.09,-25.33"/>
<polygon fill="midnightblue" stroke="midnightblue" points="2511.2,-213.33 2521.22,-209.88 2511.24,-206.33 2511.2,-213.33"/>
</g>
<!-- Node5 -->
<g id="node5" class="node">
<title>Node5</title>
<g id="a_node5"><a xlink:href="GravityCompensationHelpers_8h.html" target="_top" xlink:title=" ">
<polygon fill="none" stroke="red" points="1559.47,-140 1559.47,-159 1729.47,-159 1729.47,-140 1559.47,-140"/>
<text text-anchor="middle" x="1644.47" y="-147" font-family="FreeSans.ttf" font-size="10.00">GravityCompensationHelpers.h</text>
</a>
</g>
</g>
<!-- Node2&#45;&gt;Node5 -->
<g id="edge4" class="edge">
<title>Node2&#45;&gt;Node5</title>
<path fill="none" stroke="midnightblue" d="M2511.2,-209.2C2394.81,-206.49 2034.96,-196.02 1738.47,-165 1723.85,-163.47 1708.04,-161.25 1693.63,-159.01"/>
<polygon fill="midnightblue" stroke="midnightblue" points="2511.3,-212.71 2521.38,-209.43 2511.46,-205.71 2511.3,-212.71"/>
</g>
<!-- Node7 -->
<g id="node6" class="node">
<title>Node7</title>
<g id="a_node6"><a xlink:href="SimpleLeggedOdometry_8h.html" target="_top" xlink:title=" ">
<polygon fill="none" stroke="red" points="1747.47,-140 1747.47,-159 1889.47,-159 1889.47,-140 1747.47,-140"/>
<text text-anchor="middle" x="1818.47" y="-147" font-family="FreeSans.ttf" font-size="10.00">SimpleLeggedOdometry.h</text>
</a>
</g>
</g>
<!-- Node2&#45;&gt;Node7 -->
<g id="edge5" class="edge">
<title>Node2&#45;&gt;Node7</title>
<path fill="none" stroke="midnightblue" d="M2511.16,-208.83C2410.45,-205.43 2130.05,-193.9 1898.47,-165 1886.14,-163.46 1872.84,-161.27 1860.69,-159.05"/>
<polygon fill="midnightblue" stroke="midnightblue" points="2511.34,-212.34 2521.45,-209.17 2511.57,-205.34 2511.34,-212.34"/>
</g>
<!-- Node9 -->
<g id="node7" class="node">
<title>Node9</title>
<g id="a_node7"><a xlink:href="BerdyHelper_8cpp.html" target="_top" xlink:title=" ">
<polygon fill="none" stroke="black" points="244.97,-73 244.97,-92 341.97,-92 341.97,-73 244.97,-73"/>
<text text-anchor="middle" x="293.47" y="-80" font-family="FreeSans.ttf" font-size="10.00">BerdyHelper.cpp</text>
</a>
</g>
</g>
<!-- Node2&#45;&gt;Node9 -->
<g id="edge6" class="edge">
<title>Node2&#45;&gt;Node9</title>
<path fill="none" stroke="midnightblue" d="M2511.26,-209.75C2252.86,-207.96 765.15,-196.33 566.47,-165 470.22,-149.82 360.44,-109.74 314.95,-92.07"/>
<polygon fill="midnightblue" stroke="midnightblue" points="2511.27,-213.25 2521.29,-209.82 2511.32,-206.25 2511.27,-213.25"/>
</g>
<!-- Node10 -->
<g id="node8" class="node">
<title>Node10</title>
<g id="a_node8"><a xlink:href="ExternalWrenchesEstimation_8cpp.html" target="_top" xlink:title=" ">
<polygon fill="none" stroke="black" points="360.47,-73 360.47,-92 538.47,-92 538.47,-73 360.47,-73"/>
<text text-anchor="middle" x="449.47" y="-80" font-family="FreeSans.ttf" font-size="10.00">ExternalWrenchesEstimation.cpp</text>
</a>
</g>
</g>
<!-- Node2&#45;&gt;Node10 -->
<g id="edge7" class="edge">
<title>Node2&#45;&gt;Node10</title>
<path fill="none" stroke="midnightblue" d="M2511.08,-209.81C2260.68,-208.46 864.5,-199.43 678.47,-165 596.73,-149.87 505.18,-109.76 467.33,-92.08"/>
<polygon fill="midnightblue" stroke="midnightblue" points="2511.13,-213.31 2521.15,-209.86 2511.17,-206.31 2511.13,-213.31"/>
</g>
<!-- Node11 -->
<g id="node9" class="node">
<title>Node11</title>
<g id="a_node9"><a xlink:href="KinDynComputations_8cpp.html" target="_top" xlink:title=" ">
<polygon fill="none" stroke="black" points="1030.47,-6 1030.47,-25 1170.47,-25 1170.47,-6 1030.47,-6"/>
<text text-anchor="middle" x="1100.47" y="-13" font-family="FreeSans.ttf" font-size="10.00">KinDynComputations.cpp</text>
</a>
</g>
</g>
<!-- Node2&#45;&gt;Node11 -->
<g id="edge9" class="edge">
<title>Node2&#45;&gt;Node11</title>
<path fill="none" stroke="midnightblue" d="M2511.05,-209.93C2318.87,-209.39 1469.65,-204.74 1431.47,-165 1421.93,-155.06 1426.11,-146.69 1431.47,-134 1440.4,-112.86 1459.55,-119.14 1468.47,-98 1473.83,-85.31 1477.57,-77.35 1468.47,-67 1427.35,-20.21 1252.12,-39.96 1190.47,-31 1177.94,-29.18 1164.45,-27.08 1151.83,-25.06"/>
<polygon fill="midnightblue" stroke="midnightblue" points="2511.22,-213.43 2521.23,-209.96 2511.24,-206.43 2511.22,-213.43"/>
</g>
<!-- Node12 -->
<g id="node10" class="node">
<title>Node12</title>
<g id="a_node10"><a xlink:href="skinDynLibConversionsImplementation_8h.html" target="_top" xlink:title=" ">
<polygon fill="none" stroke="red" points="1907.47,-140 1907.47,-159 2125.47,-159 2125.47,-140 1907.47,-140"/>
<text text-anchor="middle" x="2016.47" y="-147" font-family="FreeSans.ttf" font-size="10.00">skinDynLibConversionsImplementation.h</text>
</a>
</g>
</g>
<!-- Node2&#45;&gt;Node12 -->
<g id="edge10" class="edge">
<title>Node2&#45;&gt;Node12</title>
<path fill="none" stroke="midnightblue" d="M2511.15,-206.03C2437.93,-198.4 2273.08,-181.03 2134.47,-165 2118.27,-163.13 2100.84,-161.03 2084.46,-159.02"/>
<polygon fill="midnightblue" stroke="midnightblue" points="2510.97,-209.53 2521.28,-207.08 2511.69,-202.57 2510.97,-209.53"/>
</g>
<!-- Node14 -->
<g id="node11" class="node">
<title>Node14</title>
<g id="a_node11"><a xlink:href="InverseKinematicsData_8h.html" target="_top" xlink:title=" ">
<polygon fill="none" stroke="red" points="2143.47,-140 2143.47,-159 2283.47,-159 2283.47,-140 2143.47,-140"/>
<text text-anchor="middle" x="2213.47" y="-147" font-family="FreeSans.ttf" font-size="10.00">InverseKinematicsData.h</text>
</a>
</g>
</g>
<!-- Node2&#45;&gt;Node14 -->
<g id="edge11" class="edge">
<title>Node2&#45;&gt;Node14</title>
<path fill="none" stroke="midnightblue" d="M2511.39,-203.37C2461.37,-194.65 2370.82,-178.81 2293.47,-165 2282.77,-163.09 2271.27,-161.02 2260.42,-159.05"/>
<polygon fill="midnightblue" stroke="midnightblue" points="2510.98,-206.85 2521.43,-205.12 2512.18,-199.96 2510.98,-206.85"/>
</g>
<!-- Node17 -->
<g id="node12" class="node">
<title>Node17</title>
<g id="a_node12"><a xlink:href="DenavitHartenberg_8h.html" target="_top" xlink:title=" ">
<polygon fill="none" stroke="red" points="2301.97,-140 2301.97,-159 2420.97,-159 2420.97,-140 2301.97,-140"/>
<text text-anchor="middle" x="2361.47" y="-147" font-family="FreeSans.ttf" font-size="10.00">DenavitHartenberg.h</text>
</a>
</g>
</g>
<!-- Node2&#45;&gt;Node17 -->
<g id="edge12" class="edge">
<title>Node2&#45;&gt;Node17</title>
<path fill="none" stroke="midnightblue" d="M2512.76,-198.38C2476.21,-186.82 2421,-169.34 2388.36,-159.01"/>
<polygon fill="midnightblue" stroke="midnightblue" points="2511.94,-201.79 2522.53,-201.48 2514.06,-195.12 2511.94,-201.79"/>
</g>
<!-- Node22 -->
<g id="node13" class="node">
<title>Node22</title>
<g id="a_node13"><a xlink:href="ModelTestUtils_8h.html" target="_top" xlink:title=" ">
<polygon fill="none" stroke="red" points="2439.47,-140 2439.47,-159 2537.47,-159 2537.47,-140 2439.47,-140"/>
<text text-anchor="middle" x="2488.47" y="-147" font-family="FreeSans.ttf" font-size="10.00">ModelTestUtils.h</text>
</a>
</g>
</g>
<!-- Node2&#45;&gt;Node22 -->
<g id="edge13" class="edge">
<title>Node2&#45;&gt;Node22</title>
<path fill="none" stroke="midnightblue" d="M2533.4,-194.32C2521.81,-183.02 2506.61,-168.19 2497.19,-159.01"/>
<polygon fill="midnightblue" stroke="midnightblue" points="2531.13,-197 2540.73,-201.48 2536.02,-191.99 2531.13,-197"/>
</g>
<!-- Node23 -->
<g id="node14" class="node">
<title>Node23</title>
<g id="a_node14"><a xlink:href="ContactWrench_8cpp.html" target="_top" xlink:title=" ">
<polygon fill="none" stroke="black" points="2555.97,-140 2555.97,-159 2666.97,-159 2666.97,-140 2555.97,-140"/>
<text text-anchor="middle" x="2611.47" y="-147" font-family="FreeSans.ttf" font-size="10.00">ContactWrench.cpp</text>
</a>
</g>
</g>
<!-- Node2&#45;&gt;Node23 -->
<g id="edge14" class="edge">
<title>Node2&#45;&gt;Node23</title>
<path fill="none" stroke="midnightblue" d="M2565.8,-194.32C2577.58,-183.02 2593.03,-168.19 2602.6,-159.01"/>
<polygon fill="midnightblue" stroke="midnightblue" points="2563.15,-192.03 2558.35,-201.48 2567.99,-197.08 2563.15,-192.03"/>
</g>
<!-- Node24 -->
<g id="node15" class="node">
<title>Node24</title>
<g id="a_node15"><a xlink:href="Dynamics_8cpp.html" target="_top" xlink:title=" ">
<polygon fill="none" stroke="black" points="2685.47,-140 2685.47,-159 2771.47,-159 2771.47,-140 2685.47,-140"/>
<text text-anchor="middle" x="2728.47" y="-147" font-family="FreeSans.ttf" font-size="10.00">Dynamics.cpp</text>
</a>
</g>
</g>
<!-- Node2&#45;&gt;Node24 -->
<g id="edge15" class="edge">
<title>Node2&#45;&gt;Node24</title>
<path fill="none" stroke="midnightblue" d="M2584.87,-198.23C2619.67,-186.67 2671.92,-169.3 2702.87,-159.01"/>
<polygon fill="midnightblue" stroke="midnightblue" points="2583.5,-195 2575.12,-201.48 2585.71,-201.64 2583.5,-195"/>
</g>
<!-- Node25 -->
<g id="node16" class="node">
<title>Node25</title>
<g id="a_node16"><a xlink:href="DynamicsLinearization_8cpp.html" target="_top" xlink:title=" ">
<polygon fill="none" stroke="black" points="2789.97,-140 2789.97,-159 2938.97,-159 2938.97,-140 2789.97,-140"/>
<text text-anchor="middle" x="2864.47" y="-147" font-family="FreeSans.ttf" font-size="10.00">DynamicsLinearization.cpp</text>
</a>
</g>
</g>
<!-- Node2&#45;&gt;Node25 -->
<g id="edge16" class="edge">
<title>Node2&#45;&gt;Node25</title>
<path fill="none" stroke="midnightblue" d="M2587.17,-201.06C2587.27,-201.04 2587.37,-201.02 2587.47,-201 2630.29,-192.03 2748.66,-170.92 2815.99,-159.02"/>
<polygon fill="midnightblue" stroke="midnightblue" points="2586.67,-197.59 2577.66,-203.15 2588.17,-204.43 2586.67,-197.59"/>
</g>
<!-- Node26 -->
<g id="node17" class="node">
<title>Node26</title>
<g id="a_node17"><a xlink:href="ForwardKinematics_8cpp.html" target="_top" xlink:title=" ">
<polygon fill="none" stroke="black" points="2956.97,-140 2956.97,-159 3087.97,-159 3087.97,-140 2956.97,-140"/>
<text text-anchor="middle" x="3022.47" y="-147" font-family="FreeSans.ttf" font-size="10.00">ForwardKinematics.cpp</text>
</a>
</g>
</g>
<!-- Node2&#45;&gt;Node26 -->
<g id="edge17" class="edge">
<title>Node2&#45;&gt;Node26</title>
<path fill="none" stroke="midnightblue" d="M2587.17,-201.05C2587.27,-201.03 2587.37,-201.02 2587.47,-201 2746.5,-174.36 2788.96,-188.53 2948.47,-165 2959.61,-163.36 2971.61,-161.18 2982.65,-159.02"/>
<polygon fill="midnightblue" stroke="midnightblue" points="2586.76,-197.56 2577.61,-202.9 2588.09,-204.44 2586.76,-197.56"/>
</g>
<!-- Node27 -->
<g id="node18" class="node">
<title>Node27</title>
<g id="a_node18"><a xlink:href="FreeFloatingMatrices_8cpp.html" target="_top" xlink:title=" ">
<polygon fill="none" stroke="black" points="3106.47,-140 3106.47,-159 3246.47,-159 3246.47,-140 3106.47,-140"/>
<text text-anchor="middle" x="3176.47" y="-147" font-family="FreeSans.ttf" font-size="10.00">FreeFloatingMatrices.cpp</text>
</a>
</g>
</g>
<!-- Node2&#45;&gt;Node27 -->
<g id="edge18" class="edge">
<title>Node2&#45;&gt;Node27</title>
<path fill="none" stroke="midnightblue" d="M2587.17,-201.05C2587.27,-201.03 2587.37,-201.02 2587.47,-201 2812.1,-166.7 2872.04,-193.55 3097.47,-165 3109.64,-163.46 3122.78,-161.26 3134.79,-159.05"/>
<polygon fill="midnightblue" stroke="midnightblue" points="2586.8,-197.56 2577.59,-202.8 2588.06,-204.44 2586.8,-197.56"/>
</g>
<!-- Node28 -->
<g id="node19" class="node">
<title>Node28</title>
<g id="a_node19"><a xlink:href="FreeFloatingState_8cpp.html" target="_top" xlink:title=" ">
<polygon fill="none" stroke="black" points="3264.97,-140 3264.97,-159 3387.97,-159 3387.97,-140 3264.97,-140"/>
<text text-anchor="middle" x="3326.47" y="-147" font-family="FreeSans.ttf" font-size="10.00">FreeFloatingState.cpp</text>
</a>
</g>
</g>
<!-- Node2&#45;&gt;Node28 -->
<g id="edge19" class="edge">
<title>Node2&#45;&gt;Node28</title>
<path fill="none" stroke="midnightblue" d="M2587.17,-201.04C2587.27,-201.03 2587.37,-201.01 2587.47,-201 2881.75,-158.57 2960.57,-202.85 3255.47,-165 3266.7,-163.56 3278.81,-161.34 3289.79,-159.07"/>
<polygon fill="midnightblue" stroke="midnightblue" points="2586.82,-197.55 2577.58,-202.75 2588.04,-204.44 2586.82,-197.55"/>
</g>
<!-- Node29 -->
<g id="node20" class="node">
<title>Node29</title>
<g id="a_node20"><a xlink:href="Jacobians_8cpp.html" target="_top" xlink:title=" ">
<polygon fill="none" stroke="black" points="3405.97,-140 3405.97,-159 3488.97,-159 3488.97,-140 3405.97,-140"/>
<text text-anchor="middle" x="3447.47" y="-147" font-family="FreeSans.ttf" font-size="10.00">Jacobians.cpp</text>
</a>
</g>
</g>
<!-- Node2&#45;&gt;Node29 -->
<g id="edge20" class="edge">
<title>Node2&#45;&gt;Node29</title>
<path fill="none" stroke="midnightblue" d="M2587.17,-201.04C2587.27,-201.03 2587.37,-201.01 2587.47,-201 2944.38,-151.26 3041.91,-223.6 3397.47,-165 3405.68,-163.65 3414.44,-161.39 3422.3,-159.06"/>
<polygon fill="midnightblue" stroke="midnightblue" points="2586.83,-197.55 2577.58,-202.72 2588.03,-204.44 2586.83,-197.55"/>
</g>
<!-- Node30 -->
<g id="node21" class="node">
<title>Node30</title>
<g id="a_node21"><a xlink:href="JointState_8cpp.html" target="_top" xlink:title=" ">
<polygon fill="none" stroke="black" points="3507.47,-140 3507.47,-159 3591.47,-159 3591.47,-140 3507.47,-140"/>
<text text-anchor="middle" x="3549.47" y="-147" font-family="FreeSans.ttf" font-size="10.00">JointState.cpp</text>
</a>
</g>
</g>
<!-- Node2&#45;&gt;Node30 -->
<g id="edge21" class="edge">
<title>Node2&#45;&gt;Node30</title>
<path fill="none" stroke="midnightblue" d="M2587.17,-201.04C2587.27,-201.03 2587.37,-201.01 2587.47,-201 2988.93,-146.05 3098.33,-228.86 3498.47,-165 3506.92,-163.65 3515.97,-161.37 3524.05,-159.01"/>
<polygon fill="midnightblue" stroke="midnightblue" points="2586.83,-197.55 2577.58,-202.7 2588.03,-204.44 2586.83,-197.55"/>
</g>
<!-- Node31 -->
<g id="node22" class="node">
<title>Node31</title>
<g id="a_node22"><a xlink:href="LinkState_8cpp.html" target="_top" xlink:title=" ">
<polygon fill="none" stroke="black" points="3609.97,-140 3609.97,-159 3692.97,-159 3692.97,-140 3609.97,-140"/>
<text text-anchor="middle" x="3651.47" y="-147" font-family="FreeSans.ttf" font-size="10.00">LinkState.cpp</text>
</a>
</g>
</g>
<!-- Node2&#45;&gt;Node31 -->
<g id="edge22" class="edge">
<title>Node2&#45;&gt;Node31</title>
<path fill="none" stroke="midnightblue" d="M2587.17,-201.04C2587.27,-201.03 2587.37,-201.01 2587.47,-201 3033.94,-140.79 3155.45,-235.11 3600.47,-165 3608.93,-163.67 3617.97,-161.39 3626.06,-159.03"/>
<polygon fill="midnightblue" stroke="midnightblue" points="2586.84,-197.55 2577.58,-202.69 2588.03,-204.45 2586.84,-197.55"/>
</g>
<!-- Node32 -->
<g id="node23" class="node">
<title>Node32</title>
<g id="a_node23"><a xlink:href="LinkTraversalsCache_8cpp.html" target="_top" xlink:title=" ">
<polygon fill="none" stroke="black" points="3710.97,-140 3710.97,-159 3847.97,-159 3847.97,-140 3710.97,-140"/>
<text text-anchor="middle" x="3779.47" y="-147" font-family="FreeSans.ttf" font-size="10.00">LinkTraversalsCache.cpp</text>
</a>
</g>
</g>
<!-- Node2&#45;&gt;Node32 -->
<g id="edge23" class="edge">
<title>Node2&#45;&gt;Node32</title>
<path fill="none" stroke="midnightblue" d="M2587.17,-201.04C2587.27,-201.03 2587.37,-201.01 2587.47,-201 3078.94,-135.54 3209.61,-219.04 3702.47,-165 3714.91,-163.64 3728.35,-161.38 3740.47,-159.05"/>
<polygon fill="midnightblue" stroke="midnightblue" points="2586.84,-197.55 2577.58,-202.68 2588.02,-204.45 2586.84,-197.55"/>
</g>
<!-- Node33 -->
<g id="node24" class="node">
<title>Node33</title>
<g id="a_node24"><a xlink:href="Model_8cpp.html" target="_top" xlink:title=" ">
<polygon fill="none" stroke="black" points="3865.97,-140 3865.97,-159 3932.97,-159 3932.97,-140 3865.97,-140"/>
<text text-anchor="middle" x="3899.47" y="-147" font-family="FreeSans.ttf" font-size="10.00">Model.cpp</text>
</a>
</g>
</g>
<!-- Node2&#45;&gt;Node33 -->
<g id="edge24" class="edge">
<title>Node2&#45;&gt;Node33</title>
<path fill="none" stroke="midnightblue" d="M2587.17,-201.04C2587.27,-201.03 2587.37,-201.01 2587.47,-201 2867.41,-164.27 3579.72,-215.65 3857.47,-165 3864.6,-163.7 3872.16,-161.4 3878.87,-159.01"/>
<polygon fill="midnightblue" stroke="midnightblue" points="2586.85,-197.54 2577.57,-202.67 2588.02,-204.45 2586.85,-197.54"/>
</g>
<!-- Node34 -->
<g id="node25" class="node">
<title>Node34</title>
<g id="a_node25"><a xlink:href="ModelTransformers_8cpp.html" target="_top" xlink:title=" ">
<polygon fill="none" stroke="black" points="3950.97,-140 3950.97,-159 4081.97,-159 4081.97,-140 3950.97,-140"/>
<text text-anchor="middle" x="4016.47" y="-147" font-family="FreeSans.ttf" font-size="10.00">ModelTransformers.cpp</text>
</a>
</g>
</g>
<!-- Node2&#45;&gt;Node34 -->
<g id="edge25" class="edge">
<title>Node2&#45;&gt;Node34</title>
<path fill="none" stroke="midnightblue" d="M2587.17,-201.04C2587.27,-201.03 2587.37,-201.01 2587.47,-201 3184.86,-123.17 3343.68,-231.15 3942.47,-165 3954.57,-163.66 3967.65,-161.38 3979.39,-159.02"/>
<polygon fill="midnightblue" stroke="midnightblue" points="2586.85,-197.54 2577.57,-202.66 2588.02,-204.45 2586.85,-197.54"/>
</g>
<!-- Node35 -->
<g id="node26" class="node">
<title>Node35</title>
<g id="a_node26"><a xlink:href="SolidShapes_8cpp.html" target="_top" xlink:title=" ">
<polygon fill="none" stroke="black" points="4100.47,-140 4100.47,-159 4196.47,-159 4196.47,-140 4100.47,-140"/>
<text text-anchor="middle" x="4148.47" y="-147" font-family="FreeSans.ttf" font-size="10.00">SolidShapes.cpp</text>
</a>
</g>
</g>
<!-- Node2&#45;&gt;Node35 -->
<g id="edge26" class="edge">
<title>Node2&#45;&gt;Node35</title>
<path fill="none" stroke="midnightblue" d="M2587.17,-201.04C2587.27,-201.03 2587.37,-201.01 2587.47,-201 3250.62,-115.49 3429.06,-256 4091.47,-165 4100.98,-163.69 4111.19,-161.39 4120.31,-159"/>
<polygon fill="midnightblue" stroke="midnightblue" points="2586.85,-197.54 2577.57,-202.65 2588.01,-204.45 2586.85,-197.54"/>
</g>
<!-- Node36 -->
<g id="node27" class="node">
<title>Node36</title>
<g id="a_node27"><a xlink:href="SubModel_8cpp.html" target="_top" xlink:title=" ">
<polygon fill="none" stroke="black" points="4214.97,-140 4214.97,-159 4299.97,-159 4299.97,-140 4214.97,-140"/>
<text text-anchor="middle" x="4257.47" y="-147" font-family="FreeSans.ttf" font-size="10.00">SubModel.cpp</text>
</a>
</g>
</g>
<!-- Node2&#45;&gt;Node36 -->
<g id="edge27" class="edge">
<title>Node2&#45;&gt;Node36</title>
<path fill="none" stroke="midnightblue" d="M2587.17,-201.04C2587.27,-201.03 2587.37,-201.01 2587.47,-201 2944.2,-155.3 3849.71,-217.71 4205.47,-165 4214.19,-163.71 4223.51,-161.41 4231.82,-159.02"/>
<polygon fill="midnightblue" stroke="midnightblue" points="2586.85,-197.54 2577.57,-202.65 2588.01,-204.45 2586.85,-197.54"/>
</g>
<!-- Node37 -->
<g id="node28" class="node">
<title>Node37</title>
<g id="a_node28"><a xlink:href="Traversal_8cpp.html" target="_top" xlink:title=" ">
<polygon fill="none" stroke="black" points="4317.97,-140 4317.97,-159 4398.97,-159 4398.97,-140 4317.97,-140"/>
<text text-anchor="middle" x="4358.47" y="-147" font-family="FreeSans.ttf" font-size="10.00">Traversal.cpp</text>
</a>
</g>
</g>
<!-- Node2&#45;&gt;Node37 -->
<g id="edge28" class="edge">
<title>Node2&#45;&gt;Node37</title>
<path fill="none" stroke="midnightblue" d="M2587.17,-201.04C2587.27,-201.03 2587.37,-201.01 2587.47,-201 2967.15,-152.62 3931.27,-223.83 4309.47,-165 4317.71,-163.72 4326.51,-161.42 4334.34,-159.03"/>
<polygon fill="midnightblue" stroke="midnightblue" points="2586.86,-197.54 2577.57,-202.65 2588.01,-204.45 2586.86,-197.54"/>
</g>
<!-- Node38 -->
<g id="node29" class="node">
<title>Node38</title>
<g id="a_node29"><a xlink:href="ModelCalibrationHelper_8h.html" target="_top" xlink:title=" ">
<polygon fill="none" stroke="red" points="1341.47,-6 1341.47,-25 1481.47,-25 1481.47,-6 1341.47,-6"/>
<text text-anchor="middle" x="1411.47" y="-13" font-family="FreeSans.ttf" font-size="10.00">ModelCalibrationHelper.h</text>
</a>
</g>
</g>
<!-- Node2&#45;&gt;Node38 -->
<g id="edge29" class="edge">
<title>Node2&#45;&gt;Node38</title>
<path fill="none" stroke="midnightblue" d="M2587.17,-201.04C2587.27,-201.03 2587.37,-201.01 2587.47,-201 2659.59,-192.07 5152.44,-216.74 5203.47,-165 5213.15,-155.19 5213.06,-143.89 5203.47,-134 5136.1,-64.51 1993.69,-23.55 1481.66,-17.33"/>
<polygon fill="midnightblue" stroke="midnightblue" points="2586.86,-197.54 2577.57,-202.62 2588,-204.45 2586.86,-197.54"/>
</g>
<!-- Node40 -->
<g id="node30" class="node">
<title>Node40</title>
<g id="a_node30"><a xlink:href="ModelExporter_8h.html" target="_top" xlink:title=" ">
<polygon fill="none" stroke="red" points="1363.47,-73 1363.47,-92 1459.47,-92 1459.47,-73 1363.47,-73"/>
<text text-anchor="middle" x="1411.47" y="-80" font-family="FreeSans.ttf" font-size="10.00">ModelExporter.h</text>
</a>
</g>
</g>
<!-- Node2&#45;&gt;Node40 -->
<g id="edge30" class="edge">
<title>Node2&#45;&gt;Node40</title>
<path fill="none" stroke="midnightblue" d="M2511.04,-209.22C2313.1,-205.14 1417.21,-185.53 1397.47,-165 1378.26,-145.03 1395.97,-108.85 1405.85,-92.25"/>
<polygon fill="midnightblue" stroke="midnightblue" points="2511.17,-212.73 2521.24,-209.43 2511.32,-205.73 2511.17,-212.73"/>
</g>
<!-- Node44 -->
<g id="node31" class="node">
<title>Node44</title>
<g id="a_node31"><a xlink:href="ModelLoader_8h.html" target="_top" xlink:title=" ">
<polygon fill="none" stroke="red" points="632.47,-73 632.47,-92 720.47,-92 720.47,-73 632.47,-73"/>
<text text-anchor="middle" x="676.47" y="-80" font-family="FreeSans.ttf" font-size="10.00">ModelLoader.h</text>
</a>
</g>
</g>
<!-- Node2&#45;&gt;Node44 -->
<g id="edge32" class="edge">
<title>Node2&#45;&gt;Node44</title>
<path fill="none" stroke="midnightblue" d="M2511.31,-209.69C2250.41,-207.46 738.85,-193.34 701.47,-165 678.47,-147.56 676.01,-109.4 676.14,-92.21"/>
<polygon fill="midnightblue" stroke="midnightblue" points="2511.4,-213.19 2521.43,-209.77 2511.46,-206.19 2511.4,-213.19"/>
</g>
<!-- Node45 -->
<g id="node32" class="node">
<title>Node45</title>
<g id="a_node32"><a xlink:href="URDFDocument_8h.html" target="_top" xlink:title=" ">
<polygon fill="none" stroke="red" points="552.47,-6 552.47,-25 656.47,-25 656.47,-6 552.47,-6"/>
<text text-anchor="middle" x="604.47" y="-13" font-family="FreeSans.ttf" font-size="10.00">URDFDocument.h</text>
</a>
</g>
</g>
<!-- Node2&#45;&gt;Node45 -->
<g id="edge42" class="edge">
<title>Node2&#45;&gt;Node45</title>
<path fill="none" stroke="midnightblue" d="M2511.26,-209.88C2242.97,-208.98 646.45,-202.05 434.47,-165 342.54,-148.93 289.92,-173.79 235.47,-98 227.43,-86.81 226.41,-77.38 235.47,-67 236.12,-66.26 450.43,-37.27 552.1,-23.56"/>
<polygon fill="midnightblue" stroke="midnightblue" points="2511.29,-213.38 2521.3,-209.92 2511.31,-206.38 2511.29,-213.38"/>
</g>
<!-- Node48 -->
<g id="node33" class="node">
<title>Node48</title>
<g id="a_node33"><a xlink:href="URDFDofsImport_8cpp.html" target="_top" xlink:title=" ">
<polygon fill="none" stroke="black" points="1198.97,-6 1198.97,-25 1317.97,-25 1317.97,-6 1198.97,-6"/>
<text text-anchor="middle" x="1258.47" y="-13" font-family="FreeSans.ttf" font-size="10.00">URDFDofsImport.cpp</text>
</a>
</g>
</g>
<!-- Node2&#45;&gt;Node48 -->
<g id="edge45" class="edge">
<title>Node2&#45;&gt;Node48</title>
<path fill="none" stroke="midnightblue" d="M2587.17,-201.04C2587.27,-201.03 2587.37,-201.01 2587.47,-201 2659.59,-192.07 5152.44,-216.74 5203.47,-165 5213.15,-155.19 5213.08,-143.87 5203.47,-134 5053.39,20.13 1546.3,-54.63 1332.47,-31 1320.37,-29.66 1307.29,-27.38 1295.55,-25.02"/>
<polygon fill="midnightblue" stroke="midnightblue" points="2586.86,-197.54 2577.57,-202.62 2588,-204.45 2586.86,-197.54"/>
</g>
<!-- Node49 -->
<g id="node34" class="node">
<title>Node49</title>
<g id="a_node34"><a xlink:href="idyntree-model-info_8cpp.html" target="_top" xlink:title=" ">
<polygon fill="none" stroke="black" points="352.47,-6 352.47,-25 486.47,-25 486.47,-6 352.47,-6"/>
<text text-anchor="middle" x="419.47" y="-13" font-family="FreeSans.ttf" font-size="10.00">idyntree&#45;model&#45;info.cpp</text>
</a>
</g>
</g>
<!-- Node2&#45;&gt;Node49 -->
<g id="edge62" class="edge">
<title>Node2&#45;&gt;Node49</title>
<path fill="none" stroke="midnightblue" d="M2510.82,-209.77C2211.41,-207.96 270.67,-195.1 151.47,-165 88.45,-149.09 55.3,-153.5 21.47,-98 14.3,-86.24 12.36,-77.34 21.47,-67 32.29,-54.72 241.86,-33.24 352.43,-22.7"/>
<polygon fill="midnightblue" stroke="midnightblue" points="2511.14,-213.28 2521.16,-209.84 2511.18,-206.28 2511.14,-213.28"/>
</g>
<!-- Node50 -->
<g id="node35" class="node">
<title>Node50</title>
<g id="a_node35"><a xlink:href="idyntree-model-view_8cpp.html" target="_top" xlink:title=" ">
<polygon fill="none" stroke="black" points="680.97,-6 680.97,-25 817.97,-25 817.97,-6 680.97,-6"/>
<text text-anchor="middle" x="749.47" y="-13" font-family="FreeSans.ttf" font-size="10.00">idyntree&#45;model&#45;view.cpp</text>
</a>
</g>
</g>
<!-- Node2&#45;&gt;Node50 -->
<g id="edge63" class="edge">
<title>Node2&#45;&gt;Node50</title>
<path fill="none" stroke="midnightblue" d="M2510.96,-209.49C2311.48,-206.75 1402.88,-192.78 1350.47,-165 1302.72,-139.69 1325.58,-93.49 1278.47,-67 1198.56,-22.06 958.65,-40.59 867.47,-31 850.64,-29.23 832.48,-27.11 815.58,-25.04"/>
<polygon fill="midnightblue" stroke="midnightblue" points="2511.19,-213 2521.24,-209.63 2511.29,-206 2511.19,-213"/>
</g>
<!-- Node51 -->
<g id="node36" class="node">
<title>Node51</title>
<g id="a_node36"><a xlink:href="ObserverThread_8cpp.html" target="_top" xlink:title=" ">
<polygon fill="none" stroke="black" points="876.97,-6 876.97,-25 991.97,-25 991.97,-6 876.97,-6"/>
<text text-anchor="middle" x="934.47" y="-13" font-family="FreeSans.ttf" font-size="10.00">ObserverThread.cpp</text>
</a>
</g>
</g>
<!-- Node2&#45;&gt;Node51 -->
<g id="edge64" class="edge">
<title>Node2&#45;&gt;Node51</title>
<path fill="none" stroke="midnightblue" d="M2511.11,-209.45C2315.39,-206.5 1435.39,-191.81 1384.47,-165 1336.41,-139.7 1358.41,-94.32 1311.47,-67 1199.22,-1.67 1150,-49.68 1021.47,-31 1009.2,-29.22 995.98,-27.11 983.65,-25.06"/>
<polygon fill="midnightblue" stroke="midnightblue" points="2511.16,-212.95 2521.21,-209.6 2511.26,-205.95 2511.16,-212.95"/>
</g>
<!-- Node53 -->
<g id="node37" class="node">
<title>Node53</title>
<g id="a_node37"><a xlink:href="InertialElement_8h.html" target="_top" xlink:title=" ">
<polygon fill="none" stroke="red" points="1439.97,-140 1439.97,-159 1540.97,-159 1540.97,-140 1439.97,-140"/>
<text text-anchor="middle" x="1490.47" y="-147" font-family="FreeSans.ttf" font-size="10.00">InertialElement.h</text>
</a>
</g>
</g>
<!-- Node2&#45;&gt;Node53 -->
<g id="edge40" class="edge">
<title>Node2&#45;&gt;Node53</title>
<path fill="none" stroke="midnightblue" d="M2511.17,-209.26C2351.87,-206.03 1741.18,-192.08 1550.47,-165 1540.71,-163.61 1530.22,-161.35 1520.78,-159.02"/>
<polygon fill="midnightblue" stroke="midnightblue" points="2511.36,-212.76 2521.43,-209.47 2511.5,-205.76 2511.36,-212.76"/>
</g>
<!-- Node55 -->
<g id="node38" class="node">
<title>Node55</title>
<g id="a_node38"><a xlink:href="LinkElement_8cpp.html" target="_top" xlink:title=" ">
<polygon fill="none" stroke="black" points="1515.47,-73 1515.47,-92 1613.47,-92 1613.47,-73 1515.47,-73"/>
<text text-anchor="middle" x="1564.47" y="-80" font-family="FreeSans.ttf" font-size="10.00">LinkElement.cpp</text>
</a>
</g>
</g>
<!-- Node2&#45;&gt;Node55 -->
<g id="edge43" class="edge">
<title>Node2&#45;&gt;Node55</title>
<path fill="none" stroke="midnightblue" d="M2587.17,-201.04C2587.27,-201.03 2587.37,-201.01 2587.47,-201 2659.12,-192.13 5135.77,-216.41 5186.47,-165 5196.15,-155.19 5196.14,-143.81 5186.47,-134 5153.59,-100.65 2043.14,-85.63 1613.48,-83.71"/>
<polygon fill="midnightblue" stroke="midnightblue" points="2586.86,-197.54 2577.57,-202.62 2588,-204.45 2586.86,-197.54"/>
</g>
<!-- Node56 -->
<g id="node39" class="node">
<title>Node56</title>
<g id="a_node39"><a xlink:href="RobotElement_8cpp.html" target="_top" xlink:title=" ">
<polygon fill="none" stroke="black" points="1163.47,-73 1163.47,-92 1269.47,-92 1269.47,-73 1163.47,-73"/>
<text text-anchor="middle" x="1216.47" y="-80" font-family="FreeSans.ttf" font-size="10.00">RobotElement.cpp</text>
</a>
</g>
</g>
<!-- Node2&#45;&gt;Node56 -->
<g id="edge44" class="edge">
<title>Node2&#45;&gt;Node56</title>
<path fill="none" stroke="midnightblue" d="M2511.16,-209.52C2305.53,-206.85 1339.82,-192.86 1283.47,-165 1251.29,-149.09 1229.11,-109.77 1220.48,-92.21"/>
<polygon fill="midnightblue" stroke="midnightblue" points="2511.42,-213.03 2521.46,-209.66 2511.51,-206.03 2511.42,-213.03"/>
</g>
<!-- Node43 -->
<g id="node40" class="node">
<title>Node43</title>
<g id="a_node40"><a xlink:href="URDFModelExport_8cpp.html" target="_top" xlink:title=" ">
<polygon fill="none" stroke="black" points="4417.47,-140 4417.47,-159 4543.47,-159 4543.47,-140 4417.47,-140"/>
<text text-anchor="middle" x="4480.47" y="-147" font-family="FreeSans.ttf" font-size="10.00">URDFModelExport.cpp</text>
</a>
</g>
</g>
<!-- Node2&#45;&gt;Node43 -->
<g id="edge46" class="edge">
<title>Node2&#45;&gt;Node43</title>
<path fill="none" stroke="midnightblue" d="M2587.17,-201.04C2587.27,-201.03 2587.37,-201.01 2587.47,-201 2989,-150.07 4006.14,-209.13 4408.47,-165 4420.39,-163.69 4433.26,-161.39 4444.78,-159"/>
<polygon fill="midnightblue" stroke="midnightblue" points="2586.86,-197.54 2577.57,-202.64 2588.01,-204.45 2586.86,-197.54"/>
</g>
<!-- Node57 -->
<g id="node41" class="node">
<title>Node57</title>
<g id="a_node41"><a xlink:href="Sensors_8h.html" target="_top" xlink:title=" ">
<polygon fill="none" stroke="red" points="710.47,-140 710.47,-159 774.47,-159 774.47,-140 710.47,-140"/>
<text text-anchor="middle" x="742.47" y="-147" font-family="FreeSans.ttf" font-size="10.00">Sensors.h</text>
</a>
</g>
</g>
<!-- Node2&#45;&gt;Node57 -->
<g id="edge47" class="edge">
<title>Node2&#45;&gt;Node57</title>
<path fill="none" stroke="midnightblue" d="M2511.13,-209.67C2331.82,-207.98 1557.96,-198.98 924.47,-165 871.93,-162.18 811,-156.92 774.66,-153.57"/>
<polygon fill="midnightblue" stroke="midnightblue" points="2511.34,-213.17 2521.37,-209.77 2511.4,-206.17 2511.34,-213.17"/>
</g>
<!-- Node72 -->
<g id="node42" class="node">
<title>Node72</title>
<g id="a_node42"><a xlink:href="ModelSensorsTransformers_8cpp.html" target="_top" xlink:title=" ">
<polygon fill="none" stroke="black" points="775.97,-73 775.97,-92 944.97,-92 944.97,-73 775.97,-73"/>
<text text-anchor="middle" x="860.47" y="-80" font-family="FreeSans.ttf" font-size="10.00">ModelSensorsTransformers.cpp</text>
</a>
</g>
</g>
<!-- Node2&#45;&gt;Node72 -->
<g id="edge59" class="edge">
<title>Node2&#45;&gt;Node72</title>
<path fill="none" stroke="midnightblue" d="M2511.07,-209.53C2294.73,-206.78 1232.6,-191.99 1089.47,-165 1007.78,-149.6 916.21,-109.64 878.34,-92.04"/>
<polygon fill="midnightblue" stroke="midnightblue" points="2511.25,-213.03 2521.3,-209.66 2511.34,-206.03 2511.25,-213.03"/>
</g>
<!-- Node67 -->
<g id="node43" class="node">
<title>Node67</title>
<g id="a_node43"><a xlink:href="PredictSensorsMeasurements_8cpp.html" target="_top" xlink:title=" ">
<polygon fill="none" stroke="black" points="963.47,-73 963.47,-92 1145.47,-92 1145.47,-73 963.47,-73"/>
<text text-anchor="middle" x="1054.47" y="-80" font-family="FreeSans.ttf" font-size="10.00">PredictSensorsMeasurements.cpp</text>
</a>
</g>
</g>
<!-- Node2&#45;&gt;Node67 -->
<g id="edge60" class="edge">
<title>Node2&#45;&gt;Node67</title>
<path fill="none" stroke="midnightblue" d="M2511.37,-209.57C2292.37,-207.03 1201.33,-192.97 1136.47,-165 1100.35,-149.42 1071.47,-109.92 1059.92,-92.27"/>
<polygon fill="midnightblue" stroke="midnightblue" points="2511.38,-213.07 2521.42,-209.69 2511.46,-206.07 2511.38,-213.07"/>
</g>
<!-- Node78 -->
<g id="node44" class="node">
<title>Node78</title>
<g id="a_node44"><a xlink:href="InertialParametersSolidShapesHelpers_8h.html" target="_top" xlink:title=" ">
<polygon fill="none" stroke="red" points="4561.47,-134.5 4561.47,-164.5 4727.47,-164.5 4727.47,-134.5 4561.47,-134.5"/>
<text text-anchor="start" x="4569.47" y="-152.5" font-family="FreeSans.ttf" font-size="10.00">InertialParametersSolidShapes</text>
<text text-anchor="middle" x="4644.47" y="-141.5" font-family="FreeSans.ttf" font-size="10.00">Helpers.h</text>
</a>
</g>
</g>
<!-- Node2&#45;&gt;Node78 -->
<g id="edge61" class="edge">
<title>Node2&#45;&gt;Node78</title>
<path fill="none" stroke="midnightblue" d="M2587.17,-201.04C2587.27,-201.03 2587.37,-201.01 2587.47,-201 3020.78,-146.36 4117.39,-203.09 4552.47,-165 4555.37,-164.75 4558.32,-164.46 4561.29,-164.14"/>
<polygon fill="midnightblue" stroke="midnightblue" points="2586.86,-197.54 2577.57,-202.64 2588.01,-204.45 2586.86,-197.54"/>
</g>
<!-- Node80 -->
<g id="node45" class="node">
<title>Node80</title>
<g id="a_node45"><a xlink:href="DummyImplementations_8h.html" target="_top" xlink:title=" ">
<polygon fill="none" stroke="red" points="4745.47,-140 4745.47,-159 4893.47,-159 4893.47,-140 4745.47,-140"/>
<text text-anchor="middle" x="4819.47" y="-147" font-family="FreeSans.ttf" font-size="10.00">DummyImplementations.h</text>
</a>
</g>
</g>
<!-- Node2&#45;&gt;Node80 -->
<g id="edge65" class="edge">
<title>Node2&#45;&gt;Node80</title>
<path fill="none" stroke="midnightblue" d="M2587.17,-201.04C2587.27,-201.03 2587.37,-201.01 2587.47,-201 3061.39,-141.62 4261,-210.24 4736.47,-165 4750.16,-163.7 4764.99,-161.4 4778.27,-159.01"/>
<polygon fill="midnightblue" stroke="midnightblue" points="2586.86,-197.54 2577.57,-202.63 2588.01,-204.45 2586.86,-197.54"/>
</g>
<!-- Node88 -->
<g id="node46" class="node">
<title>Node88</title>
<g id="a_node46"><a xlink:href="JetsVisualization_8cpp.html" target="_top" xlink:title=" ">
<polygon fill="none" stroke="black" points="4911.47,-140 4911.47,-159 5029.47,-159 5029.47,-140 4911.47,-140"/>
<text text-anchor="middle" x="4970.47" y="-147" font-family="FreeSans.ttf" font-size="10.00">JetsVisualization.cpp</text>
</a>
</g>
</g>
<!-- Node2&#45;&gt;Node88 -->
<g id="edge66" class="edge">
<title>Node2&#45;&gt;Node88</title>
<path fill="none" stroke="midnightblue" d="M2587.17,-201.04C2587.27,-201.03 2587.37,-201.01 2587.47,-201 3098.02,-137.34 4391.23,-222.92 4902.47,-165 4913.75,-163.72 4925.91,-161.43 4936.79,-159.04"/>
<polygon fill="midnightblue" stroke="midnightblue" points="2586.86,-197.54 2577.57,-202.63 2588.01,-204.45 2586.86,-197.54"/>
</g>
<!-- Node89 -->
<g id="node47" class="node">
<title>Node89</title>
<g id="a_node47"><a xlink:href="ModelVisualization_8cpp.html" target="_top" xlink:title=" ">
<polygon fill="none" stroke="black" points="5047.47,-140 5047.47,-159 5177.47,-159 5177.47,-140 5047.47,-140"/>
<text text-anchor="middle" x="5112.47" y="-147" font-family="FreeSans.ttf" font-size="10.00">ModelVisualization.cpp</text>
</a>
</g>
</g>
<!-- Node2&#45;&gt;Node89 -->
<g id="edge67" class="edge">
<title>Node2&#45;&gt;Node89</title>
<path fill="none" stroke="midnightblue" d="M2587.17,-201.04C2587.27,-201.03 2587.37,-201.01 2587.47,-201 3128.04,-133.83 4496.69,-221.6 5038.47,-165 5050.71,-163.72 5063.94,-161.43 5075.78,-159.03"/>
<polygon fill="midnightblue" stroke="midnightblue" points="2586.86,-197.54 2577.57,-202.63 2588.01,-204.45 2586.86,-197.54"/>
</g>
<!-- Node3&#45;&gt;Node4 -->
<g id="edge3" class="edge">
<title>Node3&#45;&gt;Node4</title>
<path fill="none" stroke="midnightblue" d="M126.31,-59.16C133.46,-49.68 141.57,-38.92 147.86,-30.58"/>
<polygon fill="midnightblue" stroke="midnightblue" points="123.33,-57.3 120.1,-67.4 128.92,-61.52 123.33,-57.3"/>
</g>
<!-- Node40&#45;&gt;Node38 -->
<g id="edge31" class="edge">
<title>Node40&#45;&gt;Node38</title>
<path fill="none" stroke="midnightblue" d="M1411.47,-62.54C1411.47,-50.17 1411.47,-34.62 1411.47,-25.13"/>
<polygon fill="midnightblue" stroke="midnightblue" points="1407.97,-62.73 1411.47,-72.73 1414.97,-62.73 1407.97,-62.73"/>
</g>
<!-- Node44&#45;&gt;Node4 -->
<g id="edge33" class="edge">
<title>Node44&#45;&gt;Node4</title>
<path fill="none" stroke="midnightblue" d="M621.93,-72.96C608.39,-70.93 593.91,-68.82 580.47,-67 461.1,-50.85 322.37,-34.76 237.51,-25.22"/>
<polygon fill="midnightblue" stroke="midnightblue" points="621.65,-76.46 632.06,-74.5 622.7,-69.54 621.65,-76.46"/>
</g>
<!-- Node44&#45;&gt;Node11 -->
<g id="edge34" class="edge">
<title>Node44&#45;&gt;Node11</title>
<path fill="none" stroke="midnightblue" d="M717.81,-70.57C723.39,-69.27 729.06,-68.04 734.47,-67 851.63,-44.5 882.33,-47.56 1000.47,-31 1014.02,-29.1 1028.6,-27.01 1042.32,-25.03"/>
<polygon fill="midnightblue" stroke="midnightblue" points="716.83,-67.21 707.94,-72.96 718.48,-74.01 716.83,-67.21"/>
</g>
<!-- Node44&#45;&gt;Node45 -->
<g id="edge35" class="edge">
<title>Node44&#45;&gt;Node45</title>
<path fill="none" stroke="midnightblue" d="M659.14,-65.86C644.99,-53.08 625.51,-35.49 614.03,-25.13"/>
<polygon fill="midnightblue" stroke="midnightblue" points="656.99,-68.63 666.76,-72.73 661.68,-63.43 656.99,-68.63"/>
</g>
<!-- Node44&#45;&gt;Node48 -->
<g id="edge36" class="edge">
<title>Node44&#45;&gt;Node48</title>
<path fill="none" stroke="midnightblue" d="M716.54,-70.58C722.52,-69.21 728.63,-67.96 734.47,-67 930.27,-34.83 982.75,-56.94 1179.47,-31 1191.5,-29.41 1204.47,-27.23 1216.37,-25.04"/>
<polygon fill="midnightblue" stroke="midnightblue" points="715.58,-67.21 706.68,-72.95 717.22,-74.01 715.58,-67.21"/>
</g>
<!-- Node44&#45;&gt;Node49 -->
<g id="edge37" class="edge">
<title>Node44&#45;&gt;Node49</title>
<path fill="none" stroke="midnightblue" d="M632.6,-70.4C581.88,-57.58 499.48,-36.74 453.41,-25.08"/>
<polygon fill="midnightblue" stroke="midnightblue" points="632.06,-73.88 642.61,-72.94 633.77,-67.09 632.06,-73.88"/>
</g>
<!-- Node44&#45;&gt;Node50 -->
<g id="edge38" class="edge">
<title>Node44&#45;&gt;Node50</title>
<path fill="none" stroke="midnightblue" d="M694.04,-65.86C708.39,-53.08 728.14,-35.49 739.78,-25.13"/>
<polygon fill="midnightblue" stroke="midnightblue" points="691.46,-63.47 686.32,-72.73 696.11,-68.7 691.46,-63.47"/>
</g>
<!-- Node44&#45;&gt;Node51 -->
<g id="edge39" class="edge">
<title>Node44&#45;&gt;Node51</title>
<path fill="none" stroke="midnightblue" d="M720.2,-70.48C771.09,-57.66 854.05,-36.76 900.4,-25.08"/>
<polygon fill="midnightblue" stroke="midnightblue" points="719.31,-67.1 710.46,-72.94 721.02,-73.89 719.31,-67.1"/>
</g>
<!-- Node53&#45;&gt;Node55 -->
<g id="edge41" class="edge">
<title>Node53&#45;&gt;Node55</title>
<path fill="none" stroke="midnightblue" d="M1508.28,-132.86C1522.83,-120.08 1542.85,-102.49 1554.65,-92.13"/>
<polygon fill="midnightblue" stroke="midnightblue" points="1505.65,-130.5 1500.45,-139.73 1510.27,-135.76 1505.65,-130.5"/>
</g>
<!-- Node57&#45;&gt;Node3 -->
<g id="edge48" class="edge">
<title>Node57&#45;&gt;Node3</title>
<path fill="none" stroke="midnightblue" d="M700.42,-144.53C613.54,-136.28 407.88,-116.51 235.47,-98 220.36,-96.38 204.25,-94.58 188.76,-92.81"/>
<polygon fill="midnightblue" stroke="midnightblue" points="700.14,-148.02 710.42,-145.48 700.8,-141.05 700.14,-148.02"/>
</g>
<!-- Node57&#45;&gt;Node4 -->
<g id="edge51" class="edge">
<title>Node57&#45;&gt;Node4</title>
<path fill="none" stroke="midnightblue" d="M706.29,-136.69C678.35,-127.2 638.94,-113.03 605.47,-98 578.81,-86.03 575.31,-75.92 547.47,-67 491.53,-49.08 334.36,-32.38 237.77,-23.39"/>
<polygon fill="midnightblue" stroke="midnightblue" points="705.44,-140.09 716.03,-139.96 707.67,-133.46 705.44,-140.09"/>
</g>
<!-- Node57&#45;&gt;Node9 -->
<g id="edge49" class="edge">
<title>Node57&#45;&gt;Node9</title>
<path fill="none" stroke="midnightblue" d="M700.31,-144.68C628.37,-137.8 477.43,-121.8 351.47,-98 342.8,-96.36 333.5,-94.21 324.93,-92.07"/>
<polygon fill="midnightblue" stroke="midnightblue" points="700.06,-148.17 710.34,-145.63 700.72,-141.2 700.06,-148.17"/>
</g>
<!-- Node57&#45;&gt;Node10 -->
<g id="edge50" class="edge">
<title>Node57&#45;&gt;Node10</title>
<path fill="none" stroke="midnightblue" d="M700.19,-139.12C643.37,-126.51 543.15,-104.28 488.2,-92.09"/>
<polygon fill="midnightblue" stroke="midnightblue" points="699.76,-142.61 710.28,-141.36 701.27,-135.78 699.76,-142.61"/>
</g>
<!-- Node57&#45;&gt;Node38 -->
<g id="edge52" class="edge">
<title>Node57&#45;&gt;Node38</title>
<path fill="none" stroke="midnightblue" d="M742.25,-129.73C743.14,-110.68 747.78,-81.94 766.47,-67 815.26,-28 1265.44,-38.32 1327.47,-31 1340.4,-29.47 1354.37,-27.28 1367.13,-25.07"/>
<polygon fill="midnightblue" stroke="midnightblue" points="738.75,-129.83 742.08,-139.88 745.74,-129.94 738.75,-129.83"/>
</g>
<!-- Node57&#45;&gt;Node40 -->
<g id="edge53" class="edge">
<title>Node57&#45;&gt;Node40</title>
<path fill="none" stroke="midnightblue" d="M784.64,-144.74C875.13,-136.62 1094.66,-116.68 1278.47,-98 1306.55,-95.15 1337.93,-91.74 1363.16,-88.94"/>
<polygon fill="midnightblue" stroke="midnightblue" points="784.15,-141.27 774.51,-145.65 784.78,-148.24 784.15,-141.27"/>
</g>
<!-- Node57&#45;&gt;Node44 -->
<g id="edge54" class="edge">
<title>Node57&#45;&gt;Node44</title>
<path fill="none" stroke="midnightblue" d="M726.22,-132.5C713.28,-119.75 695.66,-102.39 685.23,-92.13"/>
<polygon fill="midnightblue" stroke="midnightblue" points="723.99,-135.21 733.57,-139.73 728.9,-130.22 723.99,-135.21"/>
</g>
<!-- Node57&#45;&gt;Node45 -->
<g id="edge55" class="edge">
<title>Node57&#45;&gt;Node45</title>
<path fill="none" stroke="midnightblue" d="M700.45,-140.73C674.61,-133.81 642.85,-121.05 623.47,-98 605.52,-76.65 603.81,-41.48 604.07,-25.23"/>
<polygon fill="midnightblue" stroke="midnightblue" points="699.83,-144.19 710.38,-143.19 701.51,-137.39 699.83,-144.19"/>
</g>
<!-- Node57&#45;&gt;Node56 -->
<g id="edge56" class="edge">
<title>Node57&#45;&gt;Node56</title>
<path fill="none" stroke="midnightblue" d="M784.68,-144.84C859.53,-138.02 1020.3,-121.84 1154.47,-98 1163.72,-96.36 1173.66,-94.21 1182.82,-92.07"/>
<polygon fill="midnightblue" stroke="midnightblue" points="784.34,-141.36 774.7,-145.74 784.97,-148.33 784.34,-141.36"/>
</g>
<!-- Node57&#45;&gt;Node72 -->
<g id="edge57" class="edge">
<title>Node57&#45;&gt;Node72</title>
<path fill="none" stroke="midnightblue" d="M767.36,-134.79C790.75,-121.9 825.03,-103.02 844.81,-92.13"/>
<polygon fill="midnightblue" stroke="midnightblue" points="765.45,-131.84 758.38,-139.73 768.83,-137.97 765.45,-131.84"/>
</g>
<!-- Node57&#45;&gt;Node67 -->
<g id="edge58" class="edge">
<title>Node57&#45;&gt;Node67</title>
<path fill="none" stroke="midnightblue" d="M784.6,-139.72C844.67,-127.21 954.24,-104.38 1013.61,-92.01"/>
<polygon fill="midnightblue" stroke="midnightblue" points="783.76,-136.32 774.69,-141.79 785.19,-143.18 783.76,-136.32"/>
</g>
<!-- Node91&#45;&gt;Node55 -->
<g id="edge70" class="edge">
<title>Node91&#45;&gt;Node55</title>
<path fill="none" stroke="midnightblue" d="M1241.5,-139.33C1314.38,-126.73 1444.53,-104.23 1515.32,-92"/>
<polygon fill="midnightblue" stroke="midnightblue" points="1240.86,-135.89 1231.6,-141.04 1242.05,-142.79 1240.86,-135.89"/>
</g>
<!-- Node91&#45;&gt;Node56 -->
<g id="edge71" class="edge">
<title>Node91&#45;&gt;Node56</title>
<path fill="none" stroke="midnightblue" d="M1196.31,-130.29C1201.69,-117.81 1208.58,-101.81 1212.75,-92.13"/>
<polygon fill="midnightblue" stroke="midnightblue" points="1192.99,-129.16 1192.25,-139.73 1199.42,-131.93 1192.99,-129.16"/>
</g>
</g>
</svg>
