<?xml version="1.0" encoding="UTF-8" standalone="no"?>
<!DOCTYPE svg PUBLIC "-//W3C//DTD SVG 1.1//EN"
 "http://www.w3.org/Graphics/SVG/1.1/DTD/svg11.dtd">
<!-- Generated by graphviz version 2.43.0 (0)
 -->
<!-- Title: MaterialElement.h Pages: 1 -->
<svg width="581pt" height="196pt"
 viewBox="0.00 0.00 581.00 196.00" xmlns="http://www.w3.org/2000/svg" xmlns:xlink="http://www.w3.org/1999/xlink">
<g id="graph0" class="graph" transform="scale(1 1) rotate(0) translate(4 192)">
<title>MaterialElement.h</title>
<!-- Node1 -->
<g id="node1" class="node">
<title>Node1</title>
<g id="a_node1"><a xlink:title=" ">
<polygon fill="#bfbfbf" stroke="black" points="316.5,-168.5 316.5,-187.5 423.5,-187.5 423.5,-168.5 316.5,-168.5"/>
<text text-anchor="middle" x="370" y="-175.5" font-family="FreeSans.ttf" font-size="10.00">MaterialElement.h</text>
</a>
</g>
</g>
<!-- Node2 -->
<g id="node2" class="node">
<title>Node2</title>
<g id="a_node2"><a xlink:href="VisualElement_8h.html" target="_top" xlink:title=" ">
<polygon fill="none" stroke="black" points="227,-112.5 227,-131.5 323,-131.5 323,-112.5 227,-112.5"/>
<text text-anchor="middle" x="275" y="-119.5" font-family="FreeSans.ttf" font-size="10.00">VisualElement.h</text>
</a>
</g>
</g>
<!-- Node1&#45;&gt;Node2 -->
<g id="edge1" class="edge">
<title>Node1&#45;&gt;Node2</title>
<path fill="none" stroke="midnightblue" d="M345.68,-163.18C328.2,-153.24 305.17,-140.15 290.23,-131.65"/>
<polygon fill="midnightblue" stroke="midnightblue" points="344.31,-166.43 354.74,-168.32 347.77,-160.34 344.31,-166.43"/>
</g>
<!-- Node5 -->
<g id="node5" class="node">
<title>Node5</title>
<g id="a_node5"><a xlink:href="RobotElement_8cpp.html" target="_top" xlink:title=" ">
<polygon fill="none" stroke="black" points="116,-0.5 116,-19.5 222,-19.5 222,-0.5 116,-0.5"/>
<text text-anchor="middle" x="169" y="-7.5" font-family="FreeSans.ttf" font-size="10.00">RobotElement.cpp</text>
</a>
</g>
</g>
<!-- Node1&#45;&gt;Node5 -->
<g id="edge16" class="edge">
<title>Node1&#45;&gt;Node5</title>
<path fill="none" stroke="midnightblue" d="M306.19,-172.81C244.03,-164.84 153.34,-141.86 114,-76 100.66,-53.66 131.66,-31.32 152.34,-19.53"/>
<polygon fill="midnightblue" stroke="midnightblue" points="305.95,-176.31 316.29,-174.01 306.77,-169.36 305.95,-176.31"/>
</g>
<!-- Node6 -->
<g id="node6" class="node">
<title>Node6</title>
<g id="a_node6"><a xlink:href="RobotElement_8h.html" target="_top" xlink:title=" ">
<polygon fill="none" stroke="black" points="227.5,-56.5 227.5,-75.5 322.5,-75.5 322.5,-56.5 227.5,-56.5"/>
<text text-anchor="middle" x="275" y="-63.5" font-family="FreeSans.ttf" font-size="10.00">RobotElement.h</text>
</a>
</g>
</g>
<!-- Node1&#45;&gt;Node6 -->
<g id="edge13" class="edge">
<title>Node1&#45;&gt;Node6</title>
<path fill="none" stroke="midnightblue" d="M361.78,-159.01C354.98,-145.26 344.44,-126.31 332,-112 319.26,-97.35 301.22,-84.04 288.87,-75.76"/>
<polygon fill="midnightblue" stroke="midnightblue" points="358.77,-160.82 366.22,-168.35 365.09,-157.81 358.77,-160.82"/>
</g>
<!-- Node8 -->
<g id="node8" class="node">
<title>Node8</title>
<g id="a_node8"><a xlink:href="URDFDocument_8h.html" target="_top" xlink:title=" ">
<polygon fill="none" stroke="black" points="341,-56.5 341,-75.5 445,-75.5 445,-56.5 341,-56.5"/>
<text text-anchor="middle" x="393" y="-63.5" font-family="FreeSans.ttf" font-size="10.00">URDFDocument.h</text>
</a>
</g>
</g>
<!-- Node1&#45;&gt;Node8 -->
<g id="edge14" class="edge">
<title>Node1&#45;&gt;Node8</title>
<path fill="none" stroke="midnightblue" d="M373.9,-158.35C378.94,-134.25 387.5,-93.31 391.2,-75.59"/>
<polygon fill="midnightblue" stroke="midnightblue" points="370.43,-157.86 371.8,-168.37 377.28,-159.3 370.43,-157.86"/>
</g>
<!-- Node10 -->
<g id="node10" class="node">
<title>Node10</title>
<g id="a_node10"><a xlink:href="VisualElement_8cpp.html" target="_top" xlink:title=" ">
<polygon fill="none" stroke="black" points="463.5,-56.5 463.5,-75.5 570.5,-75.5 570.5,-56.5 463.5,-56.5"/>
<text text-anchor="middle" x="517" y="-63.5" font-family="FreeSans.ttf" font-size="10.00">VisualElement.cpp</text>
</a>
</g>
</g>
<!-- Node1&#45;&gt;Node10 -->
<g id="edge17" class="edge">
<title>Node1&#45;&gt;Node10</title>
<path fill="none" stroke="midnightblue" d="M386.97,-161.26C402,-147.62 424.79,-127.67 446,-112 464.66,-98.21 487.53,-84.19 502.18,-75.55"/>
<polygon fill="midnightblue" stroke="midnightblue" points="384.48,-158.79 379.47,-168.12 389.21,-163.95 384.48,-158.79"/>
</g>
<!-- Node11 -->
<g id="node11" class="node">
<title>Node11</title>
<g id="a_node11"><a xlink:href="MaterialElement_8cpp.html" target="_top" xlink:title=" ">
<polygon fill="none" stroke="black" points="455,-112.5 455,-131.5 573,-131.5 573,-112.5 455,-112.5"/>
<text text-anchor="middle" x="514" y="-119.5" font-family="FreeSans.ttf" font-size="10.00">MaterialElement.cpp</text>
</a>
</g>
</g>
<!-- Node1&#45;&gt;Node11 -->
<g id="edge15" class="edge">
<title>Node1&#45;&gt;Node11</title>
<path fill="none" stroke="midnightblue" d="M402.25,-164.91C429.32,-154.75 467.32,-140.51 491.29,-131.52"/>
<polygon fill="midnightblue" stroke="midnightblue" points="400.95,-161.66 392.82,-168.44 403.41,-168.21 400.95,-161.66"/>
</g>
<!-- Node3 -->
<g id="node3" class="node">
<title>Node3</title>
<g id="a_node3"><a xlink:href="LinkElement_8h.html" target="_top" xlink:title=" ">
<polygon fill="none" stroke="black" points="123,-56.5 123,-75.5 209,-75.5 209,-56.5 123,-56.5"/>
<text text-anchor="middle" x="166" y="-63.5" font-family="FreeSans.ttf" font-size="10.00">LinkElement.h</text>
</a>
</g>
</g>
<!-- Node2&#45;&gt;Node3 -->
<g id="edge2" class="edge">
<title>Node2&#45;&gt;Node3</title>
<path fill="none" stroke="midnightblue" d="M248.48,-107.86C228.27,-97.85 201.01,-84.35 183.47,-75.65"/>
<polygon fill="midnightblue" stroke="midnightblue" points="246.97,-111.02 257.49,-112.32 250.08,-104.75 246.97,-111.02"/>
</g>
<!-- Node4 -->
<g id="node4" class="node">
<title>Node4</title>
<g id="a_node4"><a xlink:href="LinkElement_8cpp.html" target="_top" xlink:title=" ">
<polygon fill="none" stroke="black" points="0,-0.5 0,-19.5 98,-19.5 98,-0.5 0,-0.5"/>
<text text-anchor="middle" x="49" y="-7.5" font-family="FreeSans.ttf" font-size="10.00">LinkElement.cpp</text>
</a>
</g>
</g>
<!-- Node2&#45;&gt;Node4 -->
<g id="edge11" class="edge">
<title>Node2&#45;&gt;Node4</title>
<path fill="none" stroke="midnightblue" d="M216.6,-112.16C184.71,-105.54 145.43,-94.37 114,-76 88.37,-61.02 65.67,-33.49 55.17,-19.56"/>
<polygon fill="midnightblue" stroke="midnightblue" points="216.19,-115.64 226.68,-114.15 217.54,-108.78 216.19,-115.64"/>
</g>
<!-- Node2&#45;&gt;Node6 -->
<g id="edge5" class="edge">
<title>Node2&#45;&gt;Node6</title>
<path fill="none" stroke="midnightblue" d="M275,-101.8C275,-92.91 275,-82.78 275,-75.75"/>
<polygon fill="midnightblue" stroke="midnightblue" points="271.5,-102.08 275,-112.08 278.5,-102.08 271.5,-102.08"/>
</g>
<!-- Node2&#45;&gt;Node8 -->
<g id="edge8" class="edge">
<title>Node2&#45;&gt;Node8</title>
<path fill="none" stroke="midnightblue" d="M302.9,-108.23C324.97,-98.13 355.18,-84.31 374.39,-75.52"/>
<polygon fill="midnightblue" stroke="midnightblue" points="301.33,-105.1 293.7,-112.44 304.25,-111.46 301.33,-105.1"/>
</g>
<!-- Node2&#45;&gt;Node10 -->
<g id="edge12" class="edge">
<title>Node2&#45;&gt;Node10</title>
<path fill="none" stroke="midnightblue" d="M323.32,-110.22C369.05,-100.01 436.78,-84.9 478.83,-75.52"/>
<polygon fill="midnightblue" stroke="midnightblue" points="322.34,-106.85 313.35,-112.44 323.87,-113.68 322.34,-106.85"/>
</g>
<!-- Node3&#45;&gt;Node4 -->
<g id="edge3" class="edge">
<title>Node3&#45;&gt;Node4</title>
<path fill="none" stroke="midnightblue" d="M138.34,-52.23C116.45,-42.13 86.5,-28.31 67.45,-19.52"/>
<polygon fill="midnightblue" stroke="midnightblue" points="136.91,-55.43 147.46,-56.44 139.85,-49.08 136.91,-55.43"/>
</g>
<!-- Node3&#45;&gt;Node5 -->
<g id="edge4" class="edge">
<title>Node3&#45;&gt;Node5</title>
<path fill="none" stroke="midnightblue" d="M167.07,-45.8C167.56,-36.91 168.12,-26.78 168.51,-19.75"/>
<polygon fill="midnightblue" stroke="midnightblue" points="163.56,-45.9 166.5,-56.08 170.54,-46.29 163.56,-45.9"/>
</g>
<!-- Node6&#45;&gt;Node5 -->
<g id="edge6" class="edge">
<title>Node6&#45;&gt;Node5</title>
<path fill="none" stroke="midnightblue" d="M248.94,-51.73C229.32,-41.73 202.97,-28.31 185.99,-19.65"/>
<polygon fill="midnightblue" stroke="midnightblue" points="247.47,-54.9 257.97,-56.32 250.65,-48.67 247.47,-54.9"/>
</g>
<!-- Node7 -->
<g id="node7" class="node">
<title>Node7</title>
<g id="a_node7"><a xlink:href="URDFDocument_8cpp.html" target="_top" xlink:title=" ">
<polygon fill="none" stroke="black" points="240.5,-0.5 240.5,-19.5 355.5,-19.5 355.5,-0.5 240.5,-0.5"/>
<text text-anchor="middle" x="298" y="-7.5" font-family="FreeSans.ttf" font-size="10.00">URDFDocument.cpp</text>
</a>
</g>
</g>
<!-- Node6&#45;&gt;Node7 -->
<g id="edge7" class="edge">
<title>Node6&#45;&gt;Node7</title>
<path fill="none" stroke="midnightblue" d="M282.8,-46.69C286.68,-37.59 291.18,-27.01 294.27,-19.75"/>
<polygon fill="midnightblue" stroke="midnightblue" points="279.5,-45.51 278.8,-56.08 285.94,-48.25 279.5,-45.51"/>
</g>
<!-- Node8&#45;&gt;Node7 -->
<g id="edge10" class="edge">
<title>Node8&#45;&gt;Node7</title>
<path fill="none" stroke="midnightblue" d="M368.68,-51.18C351.2,-41.24 328.17,-28.15 313.23,-19.65"/>
<polygon fill="midnightblue" stroke="midnightblue" points="367.31,-54.43 377.74,-56.32 370.77,-48.34 367.31,-54.43"/>
</g>
<!-- Node9 -->
<g id="node9" class="node">
<title>Node9</title>
<g id="a_node9"><a xlink:href="ModelLoader_8cpp.html" target="_top" xlink:title=" ">
<polygon fill="none" stroke="black" points="373.5,-0.5 373.5,-19.5 472.5,-19.5 472.5,-0.5 373.5,-0.5"/>
<text text-anchor="middle" x="423" y="-7.5" font-family="FreeSans.ttf" font-size="10.00">ModelLoader.cpp</text>
</a>
</g>
</g>
<!-- Node8&#45;&gt;Node9 -->
<g id="edge9" class="edge">
<title>Node8&#45;&gt;Node9</title>
<path fill="none" stroke="midnightblue" d="M402.85,-47.27C407.97,-38.05 414.02,-27.17 418.14,-19.75"/>
<polygon fill="midnightblue" stroke="midnightblue" points="399.75,-45.64 397.95,-56.08 405.87,-49.04 399.75,-45.64"/>
</g>
</g>
</svg>
