<?xml version="1.0" encoding="UTF-8" standalone="no"?>
<!DOCTYPE svg PUBLIC "-//W3C//DTD SVG 1.1//EN"
 "http://www.w3.org/Graphics/SVG/1.1/DTD/svg11.dtd">
<!-- Generated by graphviz version 2.43.0 (0)
 -->
<!-- Title: ModelTransformers.h Pages: 1 -->
<svg width="658pt" height="95pt"
 viewBox="0.00 0.00 657.50 95.00" xmlns="http://www.w3.org/2000/svg" xmlns:xlink="http://www.w3.org/1999/xlink">
<g id="graph0" class="graph" transform="scale(1 1) rotate(0) translate(4 91)">
<title>ModelTransformers.h</title>
<!-- Node1 -->
<g id="node1" class="node">
<title>Node1</title>
<g id="a_node1"><a xlink:title="Collection of function to modify model in various ways.">
<polygon fill="#bfbfbf" stroke="black" points="269.5,-67.5 269.5,-86.5 388.5,-86.5 388.5,-67.5 269.5,-67.5"/>
<text text-anchor="middle" x="329" y="-74.5" font-family="FreeSans.ttf" font-size="10.00">ModelTransformers.h</text>
</a>
</g>
</g>
<!-- Node2 -->
<g id="node2" class="node">
<title>Node2</title>
<g id="a_node2"><a xlink:href="ExtWrenchesAndJointTorquesEstimator_8cpp.html" target="_top" xlink:title=" ">
<polygon fill="none" stroke="black" points="0,-0.5 0,-30.5 158,-30.5 158,-0.5 0,-0.5"/>
<text text-anchor="start" x="8" y="-18.5" font-family="FreeSans.ttf" font-size="10.00">ExtWrenchesAndJointTorques</text>
<text text-anchor="middle" x="79" y="-7.5" font-family="FreeSans.ttf" font-size="10.00">Estimator.cpp</text>
</a>
</g>
</g>
<!-- Node1&#45;&gt;Node2 -->
<g id="edge1" class="edge">
<title>Node1&#45;&gt;Node2</title>
<path fill="none" stroke="midnightblue" d="M283.23,-65.11C242.39,-55.39 182.34,-41.1 137.92,-30.52"/>
<polygon fill="midnightblue" stroke="midnightblue" points="282.64,-68.56 293.18,-67.48 284.26,-61.75 282.64,-68.56"/>
</g>
<!-- Node3 -->
<g id="node3" class="node">
<title>Node3</title>
<g id="a_node3"><a xlink:href="SimpleLeggedOdometry_8cpp.html" target="_top" xlink:title=" ">
<polygon fill="none" stroke="black" points="176.5,-6 176.5,-25 329.5,-25 329.5,-6 176.5,-6"/>
<text text-anchor="middle" x="253" y="-13" font-family="FreeSans.ttf" font-size="10.00">SimpleLeggedOdometry.cpp</text>
</a>
</g>
</g>
<!-- Node1&#45;&gt;Node3 -->
<g id="edge2" class="edge">
<title>Node1&#45;&gt;Node3</title>
<path fill="none" stroke="midnightblue" d="M310.22,-61.29C295.64,-49.88 275.94,-34.46 263.87,-25.01"/>
<polygon fill="midnightblue" stroke="midnightblue" points="308.08,-64.07 318.11,-67.48 312.39,-58.55 308.08,-64.07"/>
</g>
<!-- Node4 -->
<g id="node4" class="node">
<title>Node4</title>
<g id="a_node4"><a xlink:href="URDFDocument_8cpp.html" target="_top" xlink:title=" ">
<polygon fill="none" stroke="black" points="347.5,-6 347.5,-25 462.5,-25 462.5,-6 347.5,-6"/>
<text text-anchor="middle" x="405" y="-13" font-family="FreeSans.ttf" font-size="10.00">URDFDocument.cpp</text>
</a>
</g>
</g>
<!-- Node1&#45;&gt;Node4 -->
<g id="edge3" class="edge">
<title>Node1&#45;&gt;Node4</title>
<path fill="none" stroke="midnightblue" d="M347.78,-61.29C362.36,-49.88 382.06,-34.46 394.13,-25.01"/>
<polygon fill="midnightblue" stroke="midnightblue" points="345.61,-58.55 339.89,-67.48 349.92,-64.07 345.61,-58.55"/>
</g>
<!-- Node5 -->
<g id="node5" class="node">
<title>Node5</title>
<g id="a_node5"><a xlink:href="ModelSensorsTransformers_8cpp.html" target="_top" xlink:title=" ">
<polygon fill="none" stroke="black" points="480.5,-6 480.5,-25 649.5,-25 649.5,-6 480.5,-6"/>
<text text-anchor="middle" x="565" y="-13" font-family="FreeSans.ttf" font-size="10.00">ModelSensorsTransformers.cpp</text>
</a>
</g>
</g>
<!-- Node1&#45;&gt;Node5 -->
<g id="edge4" class="edge">
<title>Node1&#45;&gt;Node5</title>
<path fill="none" stroke="midnightblue" d="M372.76,-64.97C418.58,-53.41 489.57,-35.52 531.25,-25.01"/>
<polygon fill="midnightblue" stroke="midnightblue" points="371.65,-61.64 362.81,-67.48 373.37,-68.42 371.65,-61.64"/>
</g>
</g>
</svg>
