<?xml version="1.0" encoding="UTF-8" standalone="no"?>
<!DOCTYPE svg PUBLIC "-//W3C//DTD SVG 1.1//EN"
 "http://www.w3.org/Graphics/SVG/1.1/DTD/svg11.dtd">
<!-- Generated by graphviz version 2.43.0 (0)
 -->
<!-- Title: Model.h Pages: 1 -->
<svg width="5351pt" height="229pt"
 viewBox="0.00 0.00 5350.50 229.00" xmlns="http://www.w3.org/2000/svg" xmlns:xlink="http://www.w3.org/1999/xlink">
<g id="graph0" class="graph" transform="scale(1 1) rotate(0) translate(4 225)">
<title>Model.h</title>
<!-- Node1 -->
<g id="node1" class="node">
<title>Node1</title>
<g id="a_node1"><a xlink:title=" ">
<polygon fill="#bfbfbf" stroke="black" points="2467.5,-201.5 2467.5,-220.5 2523.5,-220.5 2523.5,-201.5 2467.5,-201.5"/>
<text text-anchor="middle" x="2495.5" y="-208.5" font-family="FreeSans.ttf" font-size="10.00">Model.h</text>
</a>
</g>
</g>
<!-- Node2 -->
<g id="node2" class="node">
<title>Node2</title>
<g id="a_node2"><a xlink:href="ExtWrenchesAndJointTorquesEstimator_8h.html" target="_top" xlink:title=" ">
<polygon fill="none" stroke="black" points="437.5,-67.5 437.5,-97.5 595.5,-97.5 595.5,-67.5 437.5,-67.5"/>
<text text-anchor="start" x="445.5" y="-85.5" font-family="FreeSans.ttf" font-size="10.00">ExtWrenchesAndJointTorques</text>
<text text-anchor="middle" x="516.5" y="-74.5" font-family="FreeSans.ttf" font-size="10.00">Estimator.h</text>
</a>
</g>
</g>
<!-- Node1&#45;&gt;Node2 -->
<g id="edge1" class="edge">
<title>Node1&#45;&gt;Node2</title>
<path fill="none" stroke="midnightblue" d="M2457.31,-209.82C2215.47,-208.55 901.43,-200.06 726.5,-165 658.05,-151.28 582.96,-117.07 543.77,-97.61"/>
<polygon fill="midnightblue" stroke="midnightblue" points="2457.36,-213.32 2467.38,-209.87 2457.4,-206.32 2457.36,-213.32"/>
</g>
<!-- Node3 -->
<g id="node3" class="node">
<title>Node3</title>
<g id="a_node3"><a xlink:href="ExtWrenchesAndJointTorquesEstimator_8cpp.html" target="_top" xlink:title=" ">
<polygon fill="none" stroke="black" points="636.5,-0.5 636.5,-30.5 794.5,-30.5 794.5,-0.5 636.5,-0.5"/>
<text text-anchor="start" x="644.5" y="-18.5" font-family="FreeSans.ttf" font-size="10.00">ExtWrenchesAndJointTorques</text>
<text text-anchor="middle" x="715.5" y="-7.5" font-family="FreeSans.ttf" font-size="10.00">Estimator.cpp</text>
</a>
</g>
</g>
<!-- Node1&#45;&gt;Node3 -->
<g id="edge9" class="edge">
<title>Node1&#45;&gt;Node3</title>
<path fill="none" stroke="midnightblue" d="M2457.09,-209.78C2206.58,-208.28 809.82,-198.42 623.5,-165 533.3,-148.82 481.74,-172.59 428.5,-98 420.5,-86.79 419.64,-77.55 428.5,-67 430.2,-64.98 551.81,-44.1 636.17,-29.83"/>
<polygon fill="midnightblue" stroke="midnightblue" points="2457.15,-213.28 2467.17,-209.84 2457.19,-206.28 2457.15,-213.28"/>
</g>
<!-- Node4 -->
<g id="node4" class="node">
<title>Node4</title>
<g id="a_node4"><a xlink:href="GravityCompensationHelpers_8h.html" target="_top" xlink:title=" ">
<polygon fill="none" stroke="black" points="1884.5,-140 1884.5,-159 2054.5,-159 2054.5,-140 1884.5,-140"/>
<text text-anchor="middle" x="1969.5" y="-147" font-family="FreeSans.ttf" font-size="10.00">GravityCompensationHelpers.h</text>
</a>
</g>
</g>
<!-- Node1&#45;&gt;Node4 -->
<g id="edge3" class="edge">
<title>Node1&#45;&gt;Node4</title>
<path fill="none" stroke="midnightblue" d="M2457.43,-206.67C2382.08,-199.94 2208.67,-183.75 2063.5,-165 2049.91,-163.24 2035.25,-161.1 2021.64,-159.01"/>
<polygon fill="midnightblue" stroke="midnightblue" points="2457.12,-210.16 2467.39,-207.56 2457.74,-203.18 2457.12,-210.16"/>
</g>
<!-- Node6 -->
<g id="node6" class="node">
<title>Node6</title>
<g id="a_node6"><a xlink:href="SimpleLeggedOdometry_8h.html" target="_top" xlink:title=" ">
<polygon fill="none" stroke="black" points="5.5,-73 5.5,-92 147.5,-92 147.5,-73 5.5,-73"/>
<text text-anchor="middle" x="76.5" y="-80" font-family="FreeSans.ttf" font-size="10.00">SimpleLeggedOdometry.h</text>
</a>
</g>
</g>
<!-- Node1&#45;&gt;Node6 -->
<g id="edge5" class="edge">
<title>Node1&#45;&gt;Node6</title>
<path fill="none" stroke="midnightblue" d="M2457.32,-210.05C2163.65,-210.38 272.04,-210.67 161.5,-165 124.28,-149.62 94.01,-109.65 82.03,-92.04"/>
<polygon fill="midnightblue" stroke="midnightblue" points="2457.47,-213.55 2467.47,-210.04 2457.47,-206.55 2457.47,-213.55"/>
</g>
<!-- Node8 -->
<g id="node8" class="node">
<title>Node8</title>
<g id="a_node8"><a xlink:href="BerdyHelper_8cpp.html" target="_top" xlink:title=" ">
<polygon fill="none" stroke="black" points="613,-73 613,-92 710,-92 710,-73 613,-73"/>
<text text-anchor="middle" x="661.5" y="-80" font-family="FreeSans.ttf" font-size="10.00">BerdyHelper.cpp</text>
</a>
</g>
</g>
<!-- Node1&#45;&gt;Node8 -->
<g id="edge7" class="edge">
<title>Node1&#45;&gt;Node8</title>
<path fill="none" stroke="midnightblue" d="M2457.23,-210.17C2220.45,-211.03 959.63,-213.34 795.5,-165 744.04,-149.84 692.43,-109.75 671.37,-92.08"/>
<polygon fill="midnightblue" stroke="midnightblue" points="2457.43,-213.66 2467.42,-210.13 2457.41,-206.66 2457.43,-213.66"/>
</g>
<!-- Node9 -->
<g id="node9" class="node">
<title>Node9</title>
<g id="a_node9"><a xlink:href="ExternalWrenchesEstimation_8cpp.html" target="_top" xlink:title=" ">
<polygon fill="none" stroke="black" points="872.5,-73 872.5,-92 1050.5,-92 1050.5,-73 872.5,-73"/>
<text text-anchor="middle" x="961.5" y="-80" font-family="FreeSans.ttf" font-size="10.00">ExternalWrenchesEstimation.cpp</text>
</a>
</g>
</g>
<!-- Node1&#45;&gt;Node9 -->
<g id="edge8" class="edge">
<title>Node1&#45;&gt;Node9</title>
<path fill="none" stroke="midnightblue" d="M2457.22,-209.94C2246.06,-209.45 1228.12,-205.01 1094.5,-165 1043.39,-149.7 992.18,-109.68 971.29,-92.05"/>
<polygon fill="midnightblue" stroke="midnightblue" points="2457.49,-213.44 2467.49,-209.96 2457.5,-206.44 2457.49,-213.44"/>
</g>
<!-- Node10 -->
<g id="node10" class="node">
<title>Node10</title>
<g id="a_node10"><a xlink:href="KinDynComputations_8cpp.html" target="_top" xlink:title=" ">
<polygon fill="none" stroke="black" points="171.5,-6 171.5,-25 311.5,-25 311.5,-6 171.5,-6"/>
<text text-anchor="middle" x="241.5" y="-13" font-family="FreeSans.ttf" font-size="10.00">KinDynComputations.cpp</text>
</a>
</g>
</g>
<!-- Node1&#45;&gt;Node10 -->
<g id="edge10" class="edge">
<title>Node1&#45;&gt;Node10</title>
<path fill="none" stroke="midnightblue" d="M2457.24,-209.75C2174.54,-207.87 418.01,-195.01 310.5,-165 253.15,-148.99 224.26,-149.56 194.5,-98 179.15,-71.41 211.69,-39.92 230.06,-25.07"/>
<polygon fill="midnightblue" stroke="midnightblue" points="2457.38,-213.26 2467.4,-209.82 2457.43,-206.26 2457.38,-213.26"/>
</g>
<!-- Node11 -->
<g id="node11" class="node">
<title>Node11</title>
<g id="a_node11"><a xlink:href="skinDynLibConversionsImplementation_8h.html" target="_top" xlink:title=" ">
<polygon fill="none" stroke="black" points="2072.5,-140 2072.5,-159 2290.5,-159 2290.5,-140 2072.5,-140"/>
<text text-anchor="middle" x="2181.5" y="-147" font-family="FreeSans.ttf" font-size="10.00">skinDynLibConversionsImplementation.h</text>
</a>
</g>
</g>
<!-- Node1&#45;&gt;Node11 -->
<g id="edge11" class="edge">
<title>Node1&#45;&gt;Node11</title>
<path fill="none" stroke="midnightblue" d="M2457.47,-202.79C2399.31,-191.77 2288.47,-170.77 2226.43,-159.01"/>
<polygon fill="midnightblue" stroke="midnightblue" points="2456.88,-206.24 2467.36,-204.67 2458.18,-199.37 2456.88,-206.24"/>
</g>
<!-- Node13 -->
<g id="node13" class="node">
<title>Node13</title>
<g id="a_node13"><a xlink:href="InverseKinematicsData_8h.html" target="_top" xlink:title=" ">
<polygon fill="none" stroke="red" points="203.5,-73 203.5,-92 343.5,-92 343.5,-73 203.5,-73"/>
<text text-anchor="middle" x="273.5" y="-80" font-family="FreeSans.ttf" font-size="10.00">InverseKinematicsData.h</text>
</a>
</g>
</g>
<!-- Node1&#45;&gt;Node13 -->
<g id="edge14" class="edge">
<title>Node1&#45;&gt;Node13</title>
<path fill="none" stroke="midnightblue" d="M2457.1,-209.99C2177.12,-209.82 458.18,-207.05 357.5,-165 320.56,-149.57 290.73,-109.63 278.94,-92.03"/>
<polygon fill="midnightblue" stroke="midnightblue" points="2457.17,-213.49 2467.18,-210 2457.18,-206.49 2457.17,-213.49"/>
</g>
<!-- Node16 -->
<g id="node15" class="node">
<title>Node16</title>
<g id="a_node15"><a xlink:href="DenavitHartenberg_8h.html" target="_top" xlink:title=" ">
<polygon fill="none" stroke="red" points="2309,-140 2309,-159 2428,-159 2428,-140 2309,-140"/>
<text text-anchor="middle" x="2368.5" y="-147" font-family="FreeSans.ttf" font-size="10.00">DenavitHartenberg.h</text>
</a>
</g>
</g>
<!-- Node1&#45;&gt;Node16 -->
<g id="edge16" class="edge">
<title>Node1&#45;&gt;Node16</title>
<path fill="none" stroke="midnightblue" d="M2468.12,-197.17C2443.48,-185.63 2407.96,-168.99 2386.66,-159.01"/>
<polygon fill="midnightblue" stroke="midnightblue" points="2466.76,-200.4 2477.3,-201.48 2469.73,-194.06 2466.76,-200.4"/>
</g>
<!-- Node21 -->
<g id="node16" class="node">
<title>Node21</title>
<g id="a_node16"><a xlink:href="ModelTestUtils_8h.html" target="_top" xlink:title=" ">
<polygon fill="none" stroke="red" points="2446.5,-140 2446.5,-159 2544.5,-159 2544.5,-140 2446.5,-140"/>
<text text-anchor="middle" x="2495.5" y="-147" font-family="FreeSans.ttf" font-size="10.00">ModelTestUtils.h</text>
</a>
</g>
</g>
<!-- Node1&#45;&gt;Node21 -->
<g id="edge17" class="edge">
<title>Node1&#45;&gt;Node21</title>
<path fill="none" stroke="midnightblue" d="M2495.5,-191.32C2495.5,-180.5 2495.5,-167.4 2495.5,-159.01"/>
<polygon fill="midnightblue" stroke="midnightblue" points="2492,-191.48 2495.5,-201.48 2499,-191.48 2492,-191.48"/>
</g>
<!-- Node22 -->
<g id="node17" class="node">
<title>Node22</title>
<g id="a_node17"><a xlink:href="ContactWrench_8cpp.html" target="_top" xlink:title=" ">
<polygon fill="none" stroke="black" points="2563,-140 2563,-159 2674,-159 2674,-140 2563,-140"/>
<text text-anchor="middle" x="2618.5" y="-147" font-family="FreeSans.ttf" font-size="10.00">ContactWrench.cpp</text>
</a>
</g>
</g>
<!-- Node1&#45;&gt;Node22 -->
<g id="edge18" class="edge">
<title>Node1&#45;&gt;Node22</title>
<path fill="none" stroke="midnightblue" d="M2522.33,-197.02C2546.19,-185.48 2580.37,-168.94 2600.91,-159.01"/>
<polygon fill="midnightblue" stroke="midnightblue" points="2520.6,-193.97 2513.12,-201.48 2523.65,-200.27 2520.6,-193.97"/>
</g>
<!-- Node23 -->
<g id="node18" class="node">
<title>Node23</title>
<g id="a_node18"><a xlink:href="Dynamics_8cpp.html" target="_top" xlink:title=" ">
<polygon fill="none" stroke="black" points="2692.5,-140 2692.5,-159 2778.5,-159 2778.5,-140 2692.5,-140"/>
<text text-anchor="middle" x="2735.5" y="-147" font-family="FreeSans.ttf" font-size="10.00">Dynamics.cpp</text>
</a>
</g>
</g>
<!-- Node1&#45;&gt;Node23 -->
<g id="edge19" class="edge">
<title>Node1&#45;&gt;Node23</title>
<path fill="none" stroke="midnightblue" d="M2533.84,-201.14C2571.7,-192.3 2631.21,-178.18 2682.5,-165 2689.8,-163.12 2697.64,-161.02 2704.99,-159.02"/>
<polygon fill="midnightblue" stroke="midnightblue" points="2532.71,-197.81 2523.76,-203.49 2534.3,-204.63 2532.71,-197.81"/>
</g>
<!-- Node24 -->
<g id="node19" class="node">
<title>Node24</title>
<g id="a_node19"><a xlink:href="DynamicsLinearization_8cpp.html" target="_top" xlink:title=" ">
<polygon fill="none" stroke="black" points="2797,-140 2797,-159 2946,-159 2946,-140 2797,-140"/>
<text text-anchor="middle" x="2871.5" y="-147" font-family="FreeSans.ttf" font-size="10.00">DynamicsLinearization.cpp</text>
</a>
</g>
</g>
<!-- Node1&#45;&gt;Node24 -->
<g id="edge20" class="edge">
<title>Node1&#45;&gt;Node24</title>
<path fill="none" stroke="midnightblue" d="M2533.86,-204.31C2589.71,-195.98 2696.67,-179.84 2787.5,-165 2799.04,-163.12 2811.45,-161.01 2823.11,-159.01"/>
<polygon fill="midnightblue" stroke="midnightblue" points="2533.09,-200.89 2523.71,-205.82 2534.12,-207.81 2533.09,-200.89"/>
</g>
<!-- Node25 -->
<g id="node20" class="node">
<title>Node25</title>
<g id="a_node20"><a xlink:href="ForwardKinematics_8cpp.html" target="_top" xlink:title=" ">
<polygon fill="none" stroke="black" points="2964,-140 2964,-159 3095,-159 3095,-140 2964,-140"/>
<text text-anchor="middle" x="3029.5" y="-147" font-family="FreeSans.ttf" font-size="10.00">ForwardKinematics.cpp</text>
</a>
</g>
</g>
<!-- Node1&#45;&gt;Node25 -->
<g id="edge21" class="edge">
<title>Node1&#45;&gt;Node25</title>
<path fill="none" stroke="midnightblue" d="M2533.98,-207.45C2613.04,-201.93 2799.36,-187.55 2954.5,-165 2965.79,-163.36 2977.95,-161.18 2989.14,-159.02"/>
<polygon fill="midnightblue" stroke="midnightblue" points="2533.29,-203.99 2523.55,-208.17 2533.77,-210.97 2533.29,-203.99"/>
</g>
<!-- Node26 -->
<g id="node21" class="node">
<title>Node26</title>
<g id="a_node21"><a xlink:href="FreeFloatingMatrices_8cpp.html" target="_top" xlink:title=" ">
<polygon fill="none" stroke="black" points="3113.5,-140 3113.5,-159 3253.5,-159 3253.5,-140 3113.5,-140"/>
<text text-anchor="middle" x="3183.5" y="-147" font-family="FreeSans.ttf" font-size="10.00">FreeFloatingMatrices.cpp</text>
</a>
</g>
</g>
<!-- Node1&#45;&gt;Node26 -->
<g id="edge22" class="edge">
<title>Node1&#45;&gt;Node26</title>
<path fill="none" stroke="midnightblue" d="M2533.91,-208.56C2630.15,-204.66 2889.2,-192.27 3103.5,-165 3115.82,-163.43 3129.13,-161.23 3141.28,-159.01"/>
<polygon fill="midnightblue" stroke="midnightblue" points="2533.64,-205.07 2523.79,-208.97 2533.92,-212.07 2533.64,-205.07"/>
</g>
<!-- Node27 -->
<g id="node22" class="node">
<title>Node27</title>
<g id="a_node22"><a xlink:href="FreeFloatingState_8cpp.html" target="_top" xlink:title=" ">
<polygon fill="none" stroke="black" points="3272,-140 3272,-159 3395,-159 3395,-140 3272,-140"/>
<text text-anchor="middle" x="3333.5" y="-147" font-family="FreeSans.ttf" font-size="10.00">FreeFloatingState.cpp</text>
</a>
</g>
</g>
<!-- Node1&#45;&gt;Node27 -->
<g id="edge23" class="edge">
<title>Node1&#45;&gt;Node27</title>
<path fill="none" stroke="midnightblue" d="M2534.03,-209.68C2646.63,-208.33 2984.78,-201.32 3262.5,-165 3273.73,-163.53 3285.84,-161.3 3296.82,-159.03"/>
<polygon fill="midnightblue" stroke="midnightblue" points="2533.8,-206.18 2523.84,-209.79 2533.88,-213.18 2533.8,-206.18"/>
</g>
<!-- Node28 -->
<g id="node23" class="node">
<title>Node28</title>
<g id="a_node23"><a xlink:href="Jacobians_8cpp.html" target="_top" xlink:title=" ">
<polygon fill="none" stroke="black" points="3413,-140 3413,-159 3496,-159 3496,-140 3413,-140"/>
<text text-anchor="middle" x="3454.5" y="-147" font-family="FreeSans.ttf" font-size="10.00">Jacobians.cpp</text>
</a>
</g>
</g>
<!-- Node1&#45;&gt;Node28 -->
<g id="edge24" class="edge">
<title>Node1&#45;&gt;Node28</title>
<path fill="none" stroke="midnightblue" d="M2533.72,-209.26C2683.67,-206.2 3232.03,-193.25 3403.5,-165 3411.86,-163.62 3420.79,-161.36 3428.81,-159.03"/>
<polygon fill="midnightblue" stroke="midnightblue" points="2533.54,-205.77 2523.62,-209.47 2533.69,-212.76 2533.54,-205.77"/>
</g>
<!-- Node29 -->
<g id="node24" class="node">
<title>Node29</title>
<g id="a_node24"><a xlink:href="JointState_8cpp.html" target="_top" xlink:title=" ">
<polygon fill="none" stroke="black" points="3514.5,-140 3514.5,-159 3598.5,-159 3598.5,-140 3514.5,-140"/>
<text text-anchor="middle" x="3556.5" y="-147" font-family="FreeSans.ttf" font-size="10.00">JointState.cpp</text>
</a>
</g>
</g>
<!-- Node1&#45;&gt;Node29 -->
<g id="edge25" class="edge">
<title>Node1&#45;&gt;Node29</title>
<path fill="none" stroke="midnightblue" d="M2534.21,-209.45C2695.21,-206.98 3312.38,-195.66 3504.5,-165 3513.01,-163.64 3522.13,-161.39 3530.3,-159.05"/>
<polygon fill="midnightblue" stroke="midnightblue" points="2533.79,-205.96 2523.84,-209.61 2533.9,-212.95 2533.79,-205.96"/>
</g>
<!-- Node30 -->
<g id="node25" class="node">
<title>Node30</title>
<g id="a_node25"><a xlink:href="LinkState_8cpp.html" target="_top" xlink:title=" ">
<polygon fill="none" stroke="black" points="3617,-140 3617,-159 3700,-159 3700,-140 3617,-140"/>
<text text-anchor="middle" x="3658.5" y="-147" font-family="FreeSans.ttf" font-size="10.00">LinkState.cpp</text>
</a>
</g>
</g>
<!-- Node1&#45;&gt;Node30 -->
<g id="edge26" class="edge">
<title>Node1&#45;&gt;Node30</title>
<path fill="none" stroke="midnightblue" d="M2533.94,-209.66C2704.54,-207.98 3394.1,-199.16 3607.5,-165 3615.95,-163.65 3625,-161.36 3633.08,-159"/>
<polygon fill="midnightblue" stroke="midnightblue" points="2533.66,-206.17 2523.69,-209.76 2533.73,-213.17 2533.66,-206.17"/>
</g>
<!-- Node31 -->
<g id="node26" class="node">
<title>Node31</title>
<g id="a_node26"><a xlink:href="LinkTraversalsCache_8cpp.html" target="_top" xlink:title=" ">
<polygon fill="none" stroke="black" points="3718,-140 3718,-159 3855,-159 3855,-140 3718,-140"/>
<text text-anchor="middle" x="3786.5" y="-147" font-family="FreeSans.ttf" font-size="10.00">LinkTraversalsCache.cpp</text>
</a>
</g>
</g>
<!-- Node1&#45;&gt;Node31 -->
<g id="edge27" class="edge">
<title>Node1&#45;&gt;Node31</title>
<path fill="none" stroke="midnightblue" d="M2533.56,-209.34C2712.65,-206.12 3472.59,-191.16 3708.5,-165 3721.09,-163.6 3734.71,-161.34 3746.99,-159.01"/>
<polygon fill="midnightblue" stroke="midnightblue" points="2533.49,-205.84 2523.56,-209.52 2533.62,-212.84 2533.49,-205.84"/>
</g>
<!-- Node32 -->
<g id="node27" class="node">
<title>Node32</title>
<g id="a_node27"><a xlink:href="Model_8cpp.html" target="_top" xlink:title=" ">
<polygon fill="none" stroke="black" points="3873,-140 3873,-159 3940,-159 3940,-140 3873,-140"/>
<text text-anchor="middle" x="3906.5" y="-147" font-family="FreeSans.ttf" font-size="10.00">Model.cpp</text>
</a>
</g>
</g>
<!-- Node1&#45;&gt;Node32 -->
<g id="edge28" class="edge">
<title>Node1&#45;&gt;Node32</title>
<path fill="none" stroke="midnightblue" d="M2533.76,-210.25C2727.13,-211.26 3598.01,-213.05 3863.5,-165 3870.63,-163.71 3878.19,-161.47 3884.95,-159.14"/>
<polygon fill="midnightblue" stroke="midnightblue" points="2533.55,-206.75 2523.53,-210.19 2533.51,-213.75 2533.55,-206.75"/>
</g>
<!-- Node33 -->
<g id="node28" class="node">
<title>Node33</title>
<g id="a_node28"><a xlink:href="ModelTransformers_8cpp.html" target="_top" xlink:title=" ">
<polygon fill="none" stroke="black" points="3958,-140 3958,-159 4089,-159 4089,-140 3958,-140"/>
<text text-anchor="middle" x="4023.5" y="-147" font-family="FreeSans.ttf" font-size="10.00">ModelTransformers.cpp</text>
</a>
</g>
</g>
<!-- Node1&#45;&gt;Node33 -->
<g id="edge29" class="edge">
<title>Node1&#45;&gt;Node33</title>
<path fill="none" stroke="midnightblue" d="M2533.79,-209.64C2734.05,-207.66 3662.66,-196.85 3948.5,-165 3960.63,-163.65 3973.72,-161.4 3985.53,-159.06"/>
<polygon fill="midnightblue" stroke="midnightblue" points="2533.71,-206.14 2523.75,-209.74 2533.78,-213.14 2533.71,-206.14"/>
</g>
<!-- Node34 -->
<g id="node29" class="node">
<title>Node34</title>
<g id="a_node29"><a xlink:href="SolidShapes_8cpp.html" target="_top" xlink:title=" ">
<polygon fill="none" stroke="black" points="4107.5,-140 4107.5,-159 4203.5,-159 4203.5,-140 4107.5,-140"/>
<text text-anchor="middle" x="4155.5" y="-147" font-family="FreeSans.ttf" font-size="10.00">SolidShapes.cpp</text>
</a>
</g>
</g>
<!-- Node1&#45;&gt;Node34 -->
<g id="edge30" class="edge">
<title>Node1&#45;&gt;Node34</title>
<path fill="none" stroke="midnightblue" d="M2533.62,-210.05C2745.62,-210.16 3781.37,-208.43 4097.5,-165 4107.06,-163.69 4117.33,-161.41 4126.53,-159.05"/>
<polygon fill="midnightblue" stroke="midnightblue" points="2533.59,-206.55 2523.59,-210.04 2533.59,-213.55 2533.59,-206.55"/>
</g>
<!-- Node35 -->
<g id="node30" class="node">
<title>Node35</title>
<g id="a_node30"><a xlink:href="SubModel_8cpp.html" target="_top" xlink:title=" ">
<polygon fill="none" stroke="black" points="4222,-140 4222,-159 4307,-159 4307,-140 4222,-140"/>
<text text-anchor="middle" x="4264.5" y="-147" font-family="FreeSans.ttf" font-size="10.00">SubModel.cpp</text>
</a>
</g>
</g>
<!-- Node1&#45;&gt;Node35 -->
<g id="edge31" class="edge">
<title>Node1&#45;&gt;Node35</title>
<path fill="none" stroke="midnightblue" d="M2533.88,-210.27C2755.44,-211.66 3873.04,-215.98 4212.5,-165 4221.12,-163.71 4230.34,-161.44 4238.58,-159.08"/>
<polygon fill="midnightblue" stroke="midnightblue" points="2533.74,-206.77 2523.72,-210.21 2533.7,-213.77 2533.74,-206.77"/>
</g>
<!-- Node36 -->
<g id="node31" class="node">
<title>Node36</title>
<g id="a_node31"><a xlink:href="Traversal_8cpp.html" target="_top" xlink:title=" ">
<polygon fill="none" stroke="black" points="4325,-140 4325,-159 4406,-159 4406,-140 4325,-140"/>
<text text-anchor="middle" x="4365.5" y="-147" font-family="FreeSans.ttf" font-size="10.00">Traversal.cpp</text>
</a>
</g>
</g>
<!-- Node1&#45;&gt;Node36 -->
<g id="edge32" class="edge">
<title>Node1&#45;&gt;Node36</title>
<path fill="none" stroke="midnightblue" d="M2533.97,-209.64C2780.47,-207.28 4133.91,-193.09 4315.5,-165 4323.9,-163.7 4332.87,-161.4 4340.86,-159.01"/>
<polygon fill="midnightblue" stroke="midnightblue" points="2533.68,-206.15 2523.72,-209.74 2533.75,-213.15 2533.68,-206.15"/>
</g>
<!-- Node37 -->
<g id="node32" class="node">
<title>Node37</title>
<g id="a_node32"><a xlink:href="ModelCalibrationHelper_8h.html" target="_top" xlink:title=" ">
<polygon fill="none" stroke="red" points="1748.5,-6 1748.5,-25 1888.5,-25 1888.5,-6 1748.5,-6"/>
<text text-anchor="middle" x="1818.5" y="-13" font-family="FreeSans.ttf" font-size="10.00">ModelCalibrationHelper.h</text>
</a>
</g>
</g>
<!-- Node1&#45;&gt;Node37 -->
<g id="edge33" class="edge">
<title>Node1&#45;&gt;Node37</title>
<path fill="none" stroke="midnightblue" d="M2457.17,-210.17C2328.09,-210.36 1915.13,-207.61 1875.5,-165 1866.12,-154.91 1870.51,-146.84 1875.5,-134 1883.37,-113.77 1900.63,-118.23 1908.5,-98 1913.49,-85.16 1915.46,-78.89 1908.5,-67 1895.92,-45.51 1870.46,-32.47 1849.83,-25.04"/>
<polygon fill="midnightblue" stroke="midnightblue" points="2457.37,-213.67 2467.36,-210.15 2457.36,-206.67 2457.37,-213.67"/>
</g>
<!-- Node39 -->
<g id="node33" class="node">
<title>Node39</title>
<g id="a_node33"><a xlink:href="ModelExporter_8h.html" target="_top" xlink:title=" ">
<polygon fill="none" stroke="red" points="1770.5,-73 1770.5,-92 1866.5,-92 1866.5,-73 1770.5,-73"/>
<text text-anchor="middle" x="1818.5" y="-80" font-family="FreeSans.ttf" font-size="10.00">ModelExporter.h</text>
</a>
</g>
</g>
<!-- Node1&#45;&gt;Node39 -->
<g id="edge34" class="edge">
<title>Node1&#45;&gt;Node39</title>
<path fill="none" stroke="midnightblue" d="M2456.97,-210.48C2318.13,-211.83 1849.26,-212.77 1804.5,-165 1785.55,-144.78 1803.13,-108.73 1812.93,-92.2"/>
<polygon fill="midnightblue" stroke="midnightblue" points="2457.17,-213.98 2467.14,-210.38 2457.1,-206.98 2457.17,-213.98"/>
</g>
<!-- Node43 -->
<g id="node34" class="node">
<title>Node43</title>
<g id="a_node34"><a xlink:href="ModelLoader_8h.html" target="_top" xlink:title=" ">
<polygon fill="none" stroke="red" points="728.5,-73 728.5,-92 816.5,-92 816.5,-73 728.5,-73"/>
<text text-anchor="middle" x="772.5" y="-80" font-family="FreeSans.ttf" font-size="10.00">ModelLoader.h</text>
</a>
</g>
</g>
<!-- Node1&#45;&gt;Node43 -->
<g id="edge36" class="edge">
<title>Node1&#45;&gt;Node43</title>
<path fill="none" stroke="midnightblue" d="M2457.23,-209.93C2215.17,-209.37 904.6,-204.49 830.5,-165 800.46,-148.99 782.42,-109.72 775.61,-92.19"/>
<polygon fill="midnightblue" stroke="midnightblue" points="2457.3,-213.43 2467.31,-209.95 2457.31,-206.43 2457.3,-213.43"/>
</g>
<!-- Node44 -->
<g id="node35" class="node">
<title>Node44</title>
<g id="a_node35"><a xlink:href="URDFDocument_8h.html" target="_top" xlink:title=" ">
<polygon fill="none" stroke="red" points="812.5,-6 812.5,-25 916.5,-25 916.5,-6 812.5,-6"/>
<text text-anchor="middle" x="864.5" y="-13" font-family="FreeSans.ttf" font-size="10.00">URDFDocument.h</text>
</a>
</g>
</g>
<!-- Node1&#45;&gt;Node44 -->
<g id="edge48" class="edge">
<title>Node1&#45;&gt;Node44</title>
<path fill="none" stroke="midnightblue" d="M2457.16,-209.65C2240.01,-207.57 1168.96,-195.79 1025.5,-165 949.32,-148.65 906.8,-162.77 863.5,-98 848.48,-75.53 856.43,-41.22 861.43,-25.25"/>
<polygon fill="midnightblue" stroke="midnightblue" points="2457.39,-213.15 2467.42,-209.75 2457.46,-206.15 2457.39,-213.15"/>
</g>
<!-- Node47 -->
<g id="node36" class="node">
<title>Node47</title>
<g id="a_node36"><a xlink:href="URDFDofsImport_8cpp.html" target="_top" xlink:title=" ">
<polygon fill="none" stroke="black" points="499,-6 499,-25 618,-25 618,-6 499,-6"/>
<text text-anchor="middle" x="558.5" y="-13" font-family="FreeSans.ttf" font-size="10.00">URDFDofsImport.cpp</text>
</a>
</g>
</g>
<!-- Node1&#45;&gt;Node47 -->
<g id="edge51" class="edge">
<title>Node1&#45;&gt;Node47</title>
<path fill="none" stroke="midnightblue" d="M2457.18,-210.17C2184.97,-211.26 551.85,-215.67 461.5,-165 420.02,-141.73 391.16,-105.92 418.5,-67 430.49,-49.93 483.07,-34.3 520.26,-25.08"/>
<polygon fill="midnightblue" stroke="midnightblue" points="2457.37,-213.67 2467.36,-210.13 2457.34,-206.67 2457.37,-213.67"/>
</g>
<!-- Node48 -->
<g id="node37" class="node">
<title>Node48</title>
<g id="a_node37"><a xlink:href="idyntree-model-info_8cpp.html" target="_top" xlink:title=" ">
<polygon fill="none" stroke="black" points="981.5,-6 981.5,-25 1115.5,-25 1115.5,-6 981.5,-6"/>
<text text-anchor="middle" x="1048.5" y="-13" font-family="FreeSans.ttf" font-size="10.00">idyntree&#45;model&#45;info.cpp</text>
</a>
</g>
</g>
<!-- Node1&#45;&gt;Node48 -->
<g id="edge68" class="edge">
<title>Node1&#45;&gt;Node48</title>
<path fill="none" stroke="midnightblue" d="M2457.25,-209.52C2314.96,-207.49 1821.19,-198.11 1759.5,-165 1711.41,-139.19 1733.36,-93.24 1685.5,-67 1660.8,-53.46 1274.26,-29.61 1115.64,-20.34"/>
<polygon fill="midnightblue" stroke="midnightblue" points="2457.22,-213.02 2467.26,-209.66 2457.31,-206.02 2457.22,-213.02"/>
</g>
<!-- Node49 -->
<g id="node38" class="node">
<title>Node49</title>
<g id="a_node38"><a xlink:href="idyntree-model-view_8cpp.html" target="_top" xlink:title=" ">
<polygon fill="none" stroke="black" points="1320,-6 1320,-25 1457,-25 1457,-6 1320,-6"/>
<text text-anchor="middle" x="1388.5" y="-13" font-family="FreeSans.ttf" font-size="10.00">idyntree&#45;model&#45;view.cpp</text>
</a>
</g>
</g>
<!-- Node1&#45;&gt;Node49 -->
<g id="edge69" class="edge">
<title>Node1&#45;&gt;Node49</title>
<path fill="none" stroke="midnightblue" d="M2457.18,-209.4C2318.96,-207 1851.14,-196.58 1792.5,-165 1744.45,-139.12 1765.37,-94.96 1718.5,-67 1696.48,-53.86 1547.15,-34.75 1457.09,-24.21"/>
<polygon fill="midnightblue" stroke="midnightblue" points="2457.24,-212.9 2467.29,-209.57 2457.36,-205.91 2457.24,-212.9"/>
</g>
<!-- Node50 -->
<g id="node39" class="node">
<title>Node50</title>
<g id="a_node39"><a xlink:href="ObserverThread_8cpp.html" target="_top" xlink:title=" ">
<polygon fill="none" stroke="black" points="1568,-6 1568,-25 1683,-25 1683,-6 1568,-6"/>
<text text-anchor="middle" x="1625.5" y="-13" font-family="FreeSans.ttf" font-size="10.00">ObserverThread.cpp</text>
</a>
</g>
</g>
<!-- Node1&#45;&gt;Node50 -->
<g id="edge70" class="edge">
<title>Node1&#45;&gt;Node50</title>
<path fill="none" stroke="midnightblue" d="M2457.05,-210.22C2326.61,-210.56 1906.77,-208.26 1866.5,-165 1836.7,-132.99 1903.2,-100.85 1875.5,-67 1863.36,-52.16 1753.15,-34.28 1683.17,-24.27"/>
<polygon fill="midnightblue" stroke="midnightblue" points="2457.36,-213.72 2467.35,-210.18 2457.34,-206.72 2457.36,-213.72"/>
</g>
<!-- Node52 -->
<g id="node40" class="node">
<title>Node52</title>
<g id="a_node40"><a xlink:href="InertialElement_8h.html" target="_top" xlink:title=" ">
<polygon fill="none" stroke="red" points="4463,-140 4463,-159 4564,-159 4564,-140 4463,-140"/>
<text text-anchor="middle" x="4513.5" y="-147" font-family="FreeSans.ttf" font-size="10.00">InertialElement.h</text>
</a>
</g>
</g>
<!-- Node1&#45;&gt;Node52 -->
<g id="edge46" class="edge">
<title>Node1&#45;&gt;Node52</title>
<path fill="none" stroke="midnightblue" d="M2534.06,-210.14C2773.38,-210.88 4058.29,-212.55 4448.5,-165 4459.17,-163.7 4470.67,-161.43 4480.98,-159.07"/>
<polygon fill="midnightblue" stroke="midnightblue" points="2533.78,-206.64 2523.77,-210.11 2533.76,-213.64 2533.78,-206.64"/>
</g>
<!-- Node54 -->
<g id="node41" class="node">
<title>Node54</title>
<g id="a_node41"><a xlink:href="LinkElement_8cpp.html" target="_top" xlink:title=" ">
<polygon fill="none" stroke="black" points="4424.5,-73 4424.5,-92 4522.5,-92 4522.5,-73 4424.5,-73"/>
<text text-anchor="middle" x="4473.5" y="-80" font-family="FreeSans.ttf" font-size="10.00">LinkElement.cpp</text>
</a>
</g>
</g>
<!-- Node1&#45;&gt;Node54 -->
<g id="edge49" class="edge">
<title>Node1&#45;&gt;Node54</title>
<path fill="none" stroke="midnightblue" d="M2534.06,-210.07C2797.86,-210.39 4328.25,-210.32 4414.5,-165 4444.81,-149.07 4463.29,-109.76 4470.29,-92.21"/>
<polygon fill="midnightblue" stroke="midnightblue" points="2533.84,-206.56 2523.83,-210.05 2533.83,-213.56 2533.84,-206.56"/>
</g>
<!-- Node55 -->
<g id="node42" class="node">
<title>Node55</title>
<g id="a_node42"><a xlink:href="RobotElement_8cpp.html" target="_top" xlink:title=" ">
<polygon fill="none" stroke="black" points="1182.5,-73 1182.5,-92 1288.5,-92 1288.5,-73 1182.5,-73"/>
<text text-anchor="middle" x="1235.5" y="-80" font-family="FreeSans.ttf" font-size="10.00">RobotElement.cpp</text>
</a>
</g>
</g>
<!-- Node1&#45;&gt;Node55 -->
<g id="edge50" class="edge">
<title>Node1&#45;&gt;Node55</title>
<path fill="none" stroke="midnightblue" d="M2457.21,-209.39C2300.68,-206.73 1708.92,-194.87 1524.5,-165 1423.38,-148.62 1307.22,-109.37 1258.69,-92.01"/>
<polygon fill="midnightblue" stroke="midnightblue" points="2457.25,-212.89 2467.31,-209.56 2457.37,-205.9 2457.25,-212.89"/>
</g>
<!-- Node42 -->
<g id="node43" class="node">
<title>Node42</title>
<g id="a_node43"><a xlink:href="URDFModelExport_8cpp.html" target="_top" xlink:title=" ">
<polygon fill="none" stroke="black" points="4582.5,-140 4582.5,-159 4708.5,-159 4708.5,-140 4582.5,-140"/>
<text text-anchor="middle" x="4645.5" y="-147" font-family="FreeSans.ttf" font-size="10.00">URDFModelExport.cpp</text>
</a>
</g>
</g>
<!-- Node1&#45;&gt;Node42 -->
<g id="edge52" class="edge">
<title>Node1&#45;&gt;Node42</title>
<path fill="none" stroke="midnightblue" d="M2534.14,-210.1C2782.44,-210.59 4156.48,-211.14 4573.5,-165 4585.29,-163.7 4598.01,-161.43 4609.44,-159.06"/>
<polygon fill="midnightblue" stroke="midnightblue" points="2533.83,-206.6 2523.82,-210.08 2533.81,-213.6 2533.83,-206.6"/>
</g>
<!-- Node56 -->
<g id="node44" class="node">
<title>Node56</title>
<g id="a_node44"><a xlink:href="Sensors_8h.html" target="_top" xlink:title=" ">
<polygon fill="none" stroke="red" points="1103.5,-140 1103.5,-159 1167.5,-159 1167.5,-140 1103.5,-140"/>
<text text-anchor="middle" x="1135.5" y="-147" font-family="FreeSans.ttf" font-size="10.00">Sensors.h</text>
</a>
</g>
</g>
<!-- Node1&#45;&gt;Node56 -->
<g id="edge53" class="edge">
<title>Node1&#45;&gt;Node56</title>
<path fill="none" stroke="midnightblue" d="M2457.1,-209.45C2306.71,-207.13 1743.22,-196.67 1280.5,-165 1241.63,-162.34 1197.05,-157.63 1167.7,-154.3"/>
<polygon fill="midnightblue" stroke="midnightblue" points="2457.16,-212.95 2467.21,-209.61 2457.26,-205.96 2457.16,-212.95"/>
</g>
<!-- Node71 -->
<g id="node45" class="node">
<title>Node71</title>
<g id="a_node45"><a xlink:href="ModelSensorsTransformers_8cpp.html" target="_top" xlink:title=" ">
<polygon fill="none" stroke="black" points="1307,-73 1307,-92 1476,-92 1476,-73 1307,-73"/>
<text text-anchor="middle" x="1391.5" y="-80" font-family="FreeSans.ttf" font-size="10.00">ModelSensorsTransformers.cpp</text>
</a>
</g>
</g>
<!-- Node1&#45;&gt;Node71 -->
<g id="edge65" class="edge">
<title>Node1&#45;&gt;Node71</title>
<path fill="none" stroke="midnightblue" d="M2457.01,-209.35C2311.89,-206.67 1798.03,-195.23 1637.5,-165 1550.62,-148.64 1452.18,-109.38 1411.11,-92.01"/>
<polygon fill="midnightblue" stroke="midnightblue" points="2457.14,-212.85 2467.2,-209.53 2457.26,-205.85 2457.14,-212.85"/>
</g>
<!-- Node66 -->
<g id="node46" class="node">
<title>Node66</title>
<g id="a_node46"><a xlink:href="PredictSensorsMeasurements_8cpp.html" target="_top" xlink:title=" ">
<polygon fill="none" stroke="black" points="1494.5,-73 1494.5,-92 1676.5,-92 1676.5,-73 1494.5,-73"/>
<text text-anchor="middle" x="1585.5" y="-80" font-family="FreeSans.ttf" font-size="10.00">PredictSensorsMeasurements.cpp</text>
</a>
</g>
</g>
<!-- Node1&#45;&gt;Node66 -->
<g id="edge66" class="edge">
<title>Node1&#45;&gt;Node66</title>
<path fill="none" stroke="midnightblue" d="M2456.94,-209.19C2306.35,-205.85 1762.68,-192 1690.5,-165 1648.14,-149.15 1609.09,-109.8 1593.12,-92.22"/>
<polygon fill="midnightblue" stroke="midnightblue" points="2457.02,-212.69 2467.09,-209.41 2457.17,-205.69 2457.02,-212.69"/>
</g>
<!-- Node77 -->
<g id="node47" class="node">
<title>Node77</title>
<g id="a_node47"><a xlink:href="InertialParametersSolidShapesHelpers_8h.html" target="_top" xlink:title=" ">
<polygon fill="none" stroke="red" points="4726.5,-134.5 4726.5,-164.5 4892.5,-164.5 4892.5,-134.5 4726.5,-134.5"/>
<text text-anchor="start" x="4734.5" y="-152.5" font-family="FreeSans.ttf" font-size="10.00">InertialParametersSolidShapes</text>
<text text-anchor="middle" x="4809.5" y="-141.5" font-family="FreeSans.ttf" font-size="10.00">Helpers.h</text>
</a>
</g>
</g>
<!-- Node1&#45;&gt;Node77 -->
<g id="edge67" class="edge">
<title>Node1&#45;&gt;Node77</title>
<path fill="none" stroke="midnightblue" d="M2533.92,-209.94C2791.34,-209.42 4268.98,-204.7 4717.5,-165 4720.4,-164.74 4723.35,-164.45 4726.32,-164.13"/>
<polygon fill="midnightblue" stroke="midnightblue" points="2533.58,-206.44 2523.58,-209.96 2533.59,-213.44 2533.58,-206.44"/>
</g>
<!-- Node79 -->
<g id="node48" class="node">
<title>Node79</title>
<g id="a_node48"><a xlink:href="DummyImplementations_8h.html" target="_top" xlink:title=" ">
<polygon fill="none" stroke="red" points="4910.5,-140 4910.5,-159 5058.5,-159 5058.5,-140 4910.5,-140"/>
<text text-anchor="middle" x="4984.5" y="-147" font-family="FreeSans.ttf" font-size="10.00">DummyImplementations.h</text>
</a>
</g>
</g>
<!-- Node1&#45;&gt;Node79 -->
<g id="edge71" class="edge">
<title>Node1&#45;&gt;Node79</title>
<path fill="none" stroke="midnightblue" d="M2533.69,-210.09C2802.56,-210.63 4414.17,-211.84 4901.5,-165 4915.04,-163.7 4929.7,-161.43 4942.87,-159.07"/>
<polygon fill="midnightblue" stroke="midnightblue" points="2533.65,-206.59 2523.64,-210.07 2533.63,-213.59 2533.65,-206.59"/>
</g>
<!-- Node87 -->
<g id="node49" class="node">
<title>Node87</title>
<g id="a_node49"><a xlink:href="JetsVisualization_8cpp.html" target="_top" xlink:title=" ">
<polygon fill="none" stroke="black" points="5076.5,-140 5076.5,-159 5194.5,-159 5194.5,-140 5076.5,-140"/>
<text text-anchor="middle" x="5135.5" y="-147" font-family="FreeSans.ttf" font-size="10.00">JetsVisualization.cpp</text>
</a>
</g>
</g>
<!-- Node1&#45;&gt;Node87 -->
<g id="edge72" class="edge">
<title>Node1&#45;&gt;Node87</title>
<path fill="none" stroke="midnightblue" d="M2534.08,-209.77C2835.28,-207.95 4805.35,-194.96 5067.5,-165 5078.77,-163.71 5090.94,-161.41 5101.81,-159.02"/>
<polygon fill="midnightblue" stroke="midnightblue" points="2533.66,-206.28 2523.68,-209.84 2533.7,-213.28 2533.66,-206.28"/>
</g>
<!-- Node88 -->
<g id="node50" class="node">
<title>Node88</title>
<g id="a_node50"><a xlink:href="ModelVisualization_8cpp.html" target="_top" xlink:title=" ">
<polygon fill="none" stroke="black" points="5212.5,-140 5212.5,-159 5342.5,-159 5342.5,-140 5212.5,-140"/>
<text text-anchor="middle" x="5277.5" y="-147" font-family="FreeSans.ttf" font-size="10.00">ModelVisualization.cpp</text>
</a>
</g>
</g>
<!-- Node1&#45;&gt;Node88 -->
<g id="edge73" class="edge">
<title>Node1&#45;&gt;Node88</title>
<path fill="none" stroke="midnightblue" d="M2534.17,-209.77C2844.65,-207.88 4926.65,-194.19 5203.5,-165 5215.74,-163.71 5228.97,-161.41 5240.81,-159.02"/>
<polygon fill="midnightblue" stroke="midnightblue" points="2533.86,-206.27 2523.88,-209.83 2533.9,-213.27 2533.86,-206.27"/>
</g>
<!-- Node2&#45;&gt;Node3 -->
<g id="edge2" class="edge">
<title>Node2&#45;&gt;Node3</title>
<path fill="none" stroke="midnightblue" d="M569.38,-64.23C601.57,-53.71 642.17,-40.45 672.4,-30.58"/>
<polygon fill="midnightblue" stroke="midnightblue" points="568.1,-60.96 559.68,-67.4 570.27,-67.62 568.1,-60.96"/>
</g>
<!-- Node5 -->
<g id="node5" class="node">
<title>Node5</title>
<g id="a_node5"><a xlink:href="GravityCompensationHelpers_8cpp.html" target="_top" xlink:title=" ">
<polygon fill="none" stroke="black" points="1961,-73 1961,-92 2142,-92 2142,-73 1961,-73"/>
<text text-anchor="middle" x="2051.5" y="-80" font-family="FreeSans.ttf" font-size="10.00">GravityCompensationHelpers.cpp</text>
</a>
</g>
</g>
<!-- Node4&#45;&gt;Node5 -->
<g id="edge4" class="edge">
<title>Node4&#45;&gt;Node5</title>
<path fill="none" stroke="midnightblue" d="M1988.78,-133.21C2004.94,-120.41 2027.42,-102.59 2040.62,-92.13"/>
<polygon fill="midnightblue" stroke="midnightblue" points="1986.22,-130.78 1980.56,-139.73 1990.57,-136.26 1986.22,-130.78"/>
</g>
<!-- Node7 -->
<g id="node7" class="node">
<title>Node7</title>
<g id="a_node7"><a xlink:href="SimpleLeggedOdometry_8cpp.html" target="_top" xlink:title=" ">
<polygon fill="none" stroke="black" points="0,-6 0,-25 153,-25 153,-6 0,-6"/>
<text text-anchor="middle" x="76.5" y="-13" font-family="FreeSans.ttf" font-size="10.00">SimpleLeggedOdometry.cpp</text>
</a>
</g>
</g>
<!-- Node6&#45;&gt;Node7 -->
<g id="edge6" class="edge">
<title>Node6&#45;&gt;Node7</title>
<path fill="none" stroke="midnightblue" d="M76.5,-62.54C76.5,-50.17 76.5,-34.62 76.5,-25.13"/>
<polygon fill="midnightblue" stroke="midnightblue" points="73,-62.73 76.5,-72.73 80,-62.73 73,-62.73"/>
</g>
<!-- Node12 -->
<g id="node12" class="node">
<title>Node12</title>
<g id="a_node12"><a xlink:href="skinDynLibConversions_8h.html" target="_top" xlink:title=" ">
<polygon fill="none" stroke="black" points="2160.5,-73 2160.5,-92 2300.5,-92 2300.5,-73 2160.5,-73"/>
<text text-anchor="middle" x="2230.5" y="-80" font-family="FreeSans.ttf" font-size="10.00">skinDynLibConversions.h</text>
</a>
</g>
</g>
<!-- Node11&#45;&gt;Node12 -->
<g id="edge12" class="edge">
<title>Node11&#45;&gt;Node12</title>
<path fill="none" stroke="midnightblue" d="M2188.6,-131.03C2196.85,-118.45 2209.68,-102.01 2219.24,-92.13"/>
<polygon fill="midnightblue" stroke="midnightblue" points="2185.52,-129.37 2183.32,-139.73 2191.5,-133 2185.52,-129.37"/>
</g>
<!-- Node12&#45;&gt;Node11 -->
<g id="edge13" class="edge">
<title>Node12&#45;&gt;Node11</title>
<path fill="none" stroke="midnightblue" d="M2223.51,-100.79C2215.31,-113.34 2202.48,-129.79 2192.9,-139.73"/>
<polygon fill="midnightblue" stroke="midnightblue" points="2226.57,-102.49 2228.76,-92.13 2220.58,-98.87 2226.57,-102.49"/>
</g>
<!-- Node14 -->
<g id="node14" class="node">
<title>Node14</title>
<g id="a_node14"><a xlink:href="InverseKinematicsData_8cpp.html" target="_top" xlink:title=" ">
<polygon fill="none" stroke="black" points="330,-6 330,-25 481,-25 481,-6 330,-6"/>
<text text-anchor="middle" x="405.5" y="-13" font-family="FreeSans.ttf" font-size="10.00">InverseKinematicsData.cpp</text>
</a>
</g>
</g>
<!-- Node13&#45;&gt;Node14 -->
<g id="edge15" class="edge">
<title>Node13&#45;&gt;Node14</title>
<path fill="none" stroke="midnightblue" d="M300.01,-68.44C326.16,-55.57 365.38,-36.26 387.9,-25.17"/>
<polygon fill="midnightblue" stroke="midnightblue" points="298.45,-65.31 291.03,-72.87 301.55,-71.59 298.45,-65.31"/>
</g>
<!-- Node39&#45;&gt;Node37 -->
<g id="edge35" class="edge">
<title>Node39&#45;&gt;Node37</title>
<path fill="none" stroke="midnightblue" d="M1818.5,-62.54C1818.5,-50.17 1818.5,-34.62 1818.5,-25.13"/>
<polygon fill="midnightblue" stroke="midnightblue" points="1815,-62.73 1818.5,-72.73 1822,-62.73 1815,-62.73"/>
</g>
<!-- Node43&#45;&gt;Node3 -->
<g id="edge37" class="edge">
<title>Node43&#45;&gt;Node3</title>
<path fill="none" stroke="midnightblue" d="M758.02,-64.99C748.7,-54.36 736.72,-40.7 727.85,-30.59"/>
<polygon fill="midnightblue" stroke="midnightblue" points="755.59,-67.52 764.81,-72.73 760.85,-62.91 755.59,-67.52"/>
</g>
<!-- Node43&#45;&gt;Node7 -->
<g id="edge38" class="edge">
<title>Node43&#45;&gt;Node7</title>
<path fill="none" stroke="midnightblue" d="M735.2,-70.46C729.64,-69.11 723.95,-67.9 718.5,-67 474.17,-26.69 408.47,-59.62 162.5,-31 149.26,-29.46 134.97,-27.27 121.9,-25.05"/>
<polygon fill="midnightblue" stroke="midnightblue" points="734.42,-73.87 744.98,-72.99 736.17,-67.1 734.42,-73.87"/>
</g>
<!-- Node43&#45;&gt;Node10 -->
<g id="edge39" class="edge">
<title>Node43&#45;&gt;Node10</title>
<path fill="none" stroke="midnightblue" d="M734.4,-70.4C729.09,-69.11 723.68,-67.92 718.5,-67 543.64,-35.85 496.47,-55.06 320.5,-31 308.62,-29.38 295.8,-27.21 284.02,-25.04"/>
<polygon fill="midnightblue" stroke="midnightblue" points="733.84,-73.87 744.4,-72.97 735.59,-67.09 733.84,-73.87"/>
</g>
<!-- Node43&#45;&gt;Node14 -->
<g id="edge40" class="edge">
<title>Node43&#45;&gt;Node14</title>
<path fill="none" stroke="midnightblue" d="M733.06,-70.39C728.18,-69.17 723.24,-68.01 718.5,-67 617.72,-45.61 591.15,-47.76 489.5,-31 478.11,-29.12 465.86,-27.04 454.34,-25.06"/>
<polygon fill="midnightblue" stroke="midnightblue" points="732.37,-73.83 742.93,-72.95 734.13,-67.05 732.37,-73.83"/>
</g>
<!-- Node43&#45;&gt;Node44 -->
<g id="edge41" class="edge">
<title>Node43&#45;&gt;Node44</title>
<path fill="none" stroke="midnightblue" d="M793.14,-66.92C811.32,-54.07 837.21,-35.78 852.29,-25.13"/>
<polygon fill="midnightblue" stroke="midnightblue" points="791.06,-64.1 784.91,-72.73 795.09,-69.82 791.06,-64.1"/>
</g>
<!-- Node43&#45;&gt;Node47 -->
<g id="edge42" class="edge">
<title>Node43&#45;&gt;Node47</title>
<path fill="none" stroke="midnightblue" d="M734.4,-69.93C692.03,-57.06 624.58,-36.57 586.69,-25.06"/>
<polygon fill="midnightblue" stroke="midnightblue" points="733.5,-73.31 744.08,-72.87 735.53,-66.61 733.5,-73.31"/>
</g>
<!-- Node43&#45;&gt;Node48 -->
<g id="edge43" class="edge">
<title>Node43&#45;&gt;Node48</title>
<path fill="none" stroke="midnightblue" d="M818.94,-70.56C873.35,-57.75 962.37,-36.78 1012.05,-25.08"/>
<polygon fill="midnightblue" stroke="midnightblue" points="817.8,-67.24 808.87,-72.94 819.4,-74.05 817.8,-67.24"/>
</g>
<!-- Node43&#45;&gt;Node49 -->
<g id="edge44" class="edge">
<title>Node43&#45;&gt;Node49</title>
<path fill="none" stroke="midnightblue" d="M826.8,-72.28C838.86,-70.39 851.6,-68.52 863.5,-67 1026.77,-46.16 1219.59,-29.69 1319.97,-21.73"/>
<polygon fill="midnightblue" stroke="midnightblue" points="826.18,-68.84 816.85,-73.87 827.28,-75.75 826.18,-68.84"/>
</g>
<!-- Node43&#45;&gt;Node50 -->
<g id="edge45" class="edge">
<title>Node43&#45;&gt;Node50</title>
<path fill="none" stroke="midnightblue" d="M826.76,-71.96C838.82,-70.09 851.57,-68.3 863.5,-67 1129.95,-37.88 1198.22,-51.1 1465.5,-31 1499.43,-28.45 1537.36,-25.04 1567.77,-22.16"/>
<polygon fill="midnightblue" stroke="midnightblue" points="826.14,-68.51 816.82,-73.54 827.24,-75.43 826.14,-68.51"/>
</g>
<!-- Node52&#45;&gt;Node54 -->
<g id="edge47" class="edge">
<title>Node52&#45;&gt;Node54</title>
<path fill="none" stroke="midnightblue" d="M4502.75,-131.03C4495.01,-118.45 4484.89,-102.01 4478.81,-92.13"/>
<polygon fill="midnightblue" stroke="midnightblue" points="4499.88,-133.05 4508.11,-139.73 4505.85,-129.38 4499.88,-133.05"/>
</g>
<!-- Node56&#45;&gt;Node2 -->
<g id="edge54" class="edge">
<title>Node56&#45;&gt;Node2</title>
<path fill="none" stroke="midnightblue" d="M1093.23,-145.51C1003.03,-138.89 785.13,-121.73 603.5,-98 600.92,-97.66 598.3,-97.31 595.65,-96.94"/>
<polygon fill="midnightblue" stroke="midnightblue" points="1093.1,-149.01 1103.33,-146.24 1093.61,-142.02 1093.1,-149.01"/>
</g>
<!-- Node56&#45;&gt;Node3 -->
<g id="edge57" class="edge">
<title>Node56&#45;&gt;Node3</title>
<path fill="none" stroke="midnightblue" d="M1121.13,-131.95C1101.32,-109.3 1067.18,-71 1059.5,-67 957.59,-13.94 917.08,-48.34 803.5,-31 800.59,-30.56 797.63,-30.1 794.64,-29.63"/>
<polygon fill="midnightblue" stroke="midnightblue" points="1118.73,-134.52 1127.94,-139.75 1124.01,-129.92 1118.73,-134.52"/>
</g>
<!-- Node56&#45;&gt;Node8 -->
<g id="edge55" class="edge">
<title>Node56&#45;&gt;Node8</title>
<path fill="none" stroke="midnightblue" d="M1093.41,-145.13C1018.02,-138.71 855.13,-123.09 719.5,-98 710.72,-96.38 701.3,-94.21 692.65,-92.04"/>
<polygon fill="midnightblue" stroke="midnightblue" points="1093.2,-148.63 1103.46,-145.98 1093.79,-141.65 1093.2,-148.63"/>
</g>
<!-- Node56&#45;&gt;Node9 -->
<g id="edge56" class="edge">
<title>Node56&#45;&gt;Node9</title>
<path fill="none" stroke="midnightblue" d="M1102.76,-136.27C1068.23,-123.37 1014.71,-103.38 984.42,-92.06"/>
<polygon fill="midnightblue" stroke="midnightblue" points="1101.8,-139.65 1112.39,-139.87 1104.25,-133.09 1101.8,-139.65"/>
</g>
<!-- Node56&#45;&gt;Node37 -->
<g id="edge58" class="edge">
<title>Node56&#45;&gt;Node37</title>
<path fill="none" stroke="midnightblue" d="M1138.6,-129.76C1142.85,-110.51 1152.52,-81.41 1173.5,-67 1221.05,-34.33 1634.05,-36.27 1691.5,-31 1710.06,-29.3 1730.12,-27.15 1748.69,-25.03"/>
<polygon fill="midnightblue" stroke="midnightblue" points="1135.12,-129.28 1136.67,-139.76 1142,-130.6 1135.12,-129.28"/>
</g>
<!-- Node56&#45;&gt;Node39 -->
<g id="edge59" class="edge">
<title>Node56&#45;&gt;Node39</title>
<path fill="none" stroke="midnightblue" d="M1177.82,-144.86C1270.08,-136.88 1496.25,-117 1685.5,-98 1713.58,-95.18 1744.96,-91.77 1770.19,-88.97"/>
<polygon fill="midnightblue" stroke="midnightblue" points="1177.42,-141.38 1167.75,-145.73 1178.02,-148.36 1177.42,-141.38"/>
</g>
<!-- Node56&#45;&gt;Node43 -->
<g id="edge60" class="edge">
<title>Node56&#45;&gt;Node43</title>
<path fill="none" stroke="midnightblue" d="M1093.17,-140.92C1023.9,-128.52 887.01,-104 816.6,-91.4"/>
<polygon fill="midnightblue" stroke="midnightblue" points="1092.83,-144.41 1103.29,-142.73 1094.06,-137.52 1092.83,-144.41"/>
</g>
<!-- Node56&#45;&gt;Node44 -->
<g id="edge61" class="edge">
<title>Node56&#45;&gt;Node44</title>
<path fill="none" stroke="midnightblue" d="M1130.72,-130.02C1124.88,-111.24 1113.13,-82.73 1092.5,-67 1065.34,-46.28 975.16,-30.96 916.68,-22.91"/>
<polygon fill="midnightblue" stroke="midnightblue" points="1127.39,-131.13 1133.5,-139.79 1134.13,-129.21 1127.39,-131.13"/>
</g>
<!-- Node56&#45;&gt;Node55 -->
<g id="edge62" class="edge">
<title>Node56&#45;&gt;Node55</title>
<path fill="none" stroke="midnightblue" d="M1157.39,-134.27C1177.19,-121.4 1205.69,-102.88 1222.23,-92.13"/>
<polygon fill="midnightblue" stroke="midnightblue" points="1155.46,-131.35 1148.99,-139.73 1159.28,-137.22 1155.46,-131.35"/>
</g>
<!-- Node56&#45;&gt;Node71 -->
<g id="edge63" class="edge">
<title>Node56&#45;&gt;Node71</title>
<path fill="none" stroke="midnightblue" d="M1177.58,-137.82C1227.93,-125.03 1311.24,-103.88 1357.64,-92.1"/>
<polygon fill="midnightblue" stroke="midnightblue" points="1176.49,-134.48 1167.66,-140.33 1178.22,-141.26 1176.49,-134.48"/>
</g>
<!-- Node56&#45;&gt;Node66 -->
<g id="edge64" class="edge">
<title>Node56&#45;&gt;Node66</title>
<path fill="none" stroke="midnightblue" d="M1177.76,-142.4C1258.35,-130.75 1434.15,-105.36 1526.36,-92.04"/>
<polygon fill="midnightblue" stroke="midnightblue" points="1176.9,-138.98 1167.5,-143.88 1177.9,-145.91 1176.9,-138.98"/>
</g>
</g>
</svg>
