<?xml version="1.0" encoding="UTF-8" standalone="no"?>
<!DOCTYPE svg PUBLIC "-//W3C//DTD SVG 1.1//EN"
 "http://www.w3.org/Graphics/SVG/1.1/DTD/svg11.dtd">
<!-- Generated by graphviz version 2.43.0 (0)
 -->
<!-- Title: Model.h Pages: 1 -->
<svg width="1472pt" height="733pt"
 viewBox="0.00 0.00 1471.50 733.00" xmlns="http://www.w3.org/2000/svg" xmlns:xlink="http://www.w3.org/1999/xlink">
<g id="graph0" class="graph" transform="scale(1 1) rotate(0) translate(4 729)">
<title>Model.h</title>
<!-- Node1 -->
<g id="node1" class="node">
<title>Node1</title>
<g id="a_node1"><a xlink:title=" ">
<polygon fill="#bfbfbf" stroke="black" points="1162,-705.5 1162,-724.5 1218,-724.5 1218,-705.5 1162,-705.5"/>
<text text-anchor="middle" x="1190" y="-712.5" font-family="FreeSans.ttf" font-size="10.00">Model.h</text>
</a>
</g>
</g>
<!-- Node2 -->
<g id="node2" class="node">
<title>Node2</title>
<g id="a_node2"><a xlink:href="IJoint_8h.html" target="_top" xlink:title=" ">
<polygon fill="none" stroke="black" points="994.5,-649.5 994.5,-668.5 1123.5,-668.5 1123.5,-649.5 994.5,-649.5"/>
<text text-anchor="middle" x="1059" y="-656.5" font-family="FreeSans.ttf" font-size="10.00">iDynTree/Model/IJoint.h</text>
</a>
</g>
</g>
<!-- Node1&#45;&gt;Node2 -->
<g id="edge1" class="edge">
<title>Node1&#45;&gt;Node2</title>
<path fill="none" stroke="midnightblue" d="M1169.24,-705.44C1147.68,-696.56 1113.74,-682.56 1089.21,-672.45"/>
<polygon fill="midnightblue" stroke="midnightblue" points="1090.24,-669.09 1079.66,-668.52 1087.57,-675.56 1090.24,-669.09"/>
</g>
<!-- Node3 -->
<g id="node3" class="node">
<title>Node3</title>
<g id="a_node3"><a xlink:href="Indices_8h.html" target="_top" xlink:title=" ">
<polygon fill="none" stroke="black" points="1000.5,-593.5 1000.5,-612.5 1139.5,-612.5 1139.5,-593.5 1000.5,-593.5"/>
<text text-anchor="middle" x="1070" y="-600.5" font-family="FreeSans.ttf" font-size="10.00">iDynTree/Model/Indices.h</text>
</a>
</g>
</g>
<!-- Node1&#45;&gt;Node3 -->
<g id="edge79" class="edge">
<title>Node1&#45;&gt;Node3</title>
<path fill="none" stroke="midnightblue" d="M1183.38,-705.47C1173.12,-692.52 1152.42,-667.46 1132,-649 1119.46,-637.66 1104.08,-626.48 1091.78,-618.11"/>
<polygon fill="midnightblue" stroke="midnightblue" points="1093.71,-615.19 1083.45,-612.54 1089.82,-621.01 1093.71,-615.19"/>
</g>
<!-- Node7 -->
<g id="node7" class="node">
<title>Node7</title>
<g id="a_node7"><a xlink:href="Link_8h.html" target="_top" xlink:title=" ">
<polygon fill="none" stroke="black" points="851.5,-649.5 851.5,-668.5 976.5,-668.5 976.5,-649.5 851.5,-649.5"/>
<text text-anchor="middle" x="914" y="-656.5" font-family="FreeSans.ttf" font-size="10.00">iDynTree/Model/Link.h</text>
</a>
</g>
</g>
<!-- Node1&#45;&gt;Node7 -->
<g id="edge6" class="edge">
<title>Node1&#45;&gt;Node7</title>
<path fill="none" stroke="midnightblue" d="M1161.76,-708.47C1116.27,-699.57 1025.99,-681.91 967.89,-670.54"/>
<polygon fill="midnightblue" stroke="midnightblue" points="968.27,-667.05 957.78,-668.57 966.93,-673.92 968.27,-667.05"/>
</g>
<!-- Node40 -->
<g id="node40" class="node">
<title>Node40</title>
<g id="a_node40"><a xlink:href="Transform_8h.html" target="_top" xlink:title=" ">
<polygon fill="none" stroke="black" points="1050,-403.5 1050,-422.5 1196,-422.5 1196,-403.5 1050,-403.5"/>
<text text-anchor="middle" x="1123" y="-410.5" font-family="FreeSans.ttf" font-size="10.00">iDynTree/Core/Transform.h</text>
</a>
</g>
</g>
<!-- Node1&#45;&gt;Node40 -->
<g id="edge74" class="edge">
<title>Node1&#45;&gt;Node40</title>
<path fill="none" stroke="midnightblue" d="M1190,-705.44C1190,-686.94 1190,-641.81 1190,-604 1190,-604 1190,-604 1190,-540.5 1190,-496.65 1158.17,-453.15 1138.39,-430.35"/>
<polygon fill="midnightblue" stroke="midnightblue" points="1140.77,-427.77 1131.49,-422.67 1135.56,-432.44 1140.77,-427.77"/>
</g>
<!-- Node41 -->
<g id="node41" class="node">
<title>Node41</title>
<g id="a_node41"><a xlink:href="SolidShapes_8h.html" target="_top" xlink:title=" ">
<polygon fill="none" stroke="black" points="1218,-649.5 1218,-668.5 1382,-668.5 1382,-649.5 1218,-649.5"/>
<text text-anchor="middle" x="1300" y="-656.5" font-family="FreeSans.ttf" font-size="10.00">iDynTree/Model/SolidShapes.h</text>
</a>
</g>
</g>
<!-- Node1&#45;&gt;Node41 -->
<g id="edge80" class="edge">
<title>Node1&#45;&gt;Node41</title>
<path fill="none" stroke="midnightblue" d="M1207.67,-705.32C1225.39,-696.62 1252.9,-683.12 1273.29,-673.11"/>
<polygon fill="midnightblue" stroke="midnightblue" points="1274.94,-676.2 1282.37,-668.65 1271.85,-669.92 1274.94,-676.2"/>
</g>
<!-- Node42 -->
<g id="node42" class="node">
<title>Node42</title>
<g id="a_node42"><a xlink:title=" ">
<polygon fill="none" stroke="#bfbfbf" points="1342.5,-593.5 1342.5,-612.5 1391.5,-612.5 1391.5,-593.5 1342.5,-593.5"/>
<text text-anchor="middle" x="1367" y="-600.5" font-family="FreeSans.ttf" font-size="10.00">cstdlib</text>
</a>
</g>
</g>
<!-- Node1&#45;&gt;Node42 -->
<g id="edge86" class="edge">
<title>Node1&#45;&gt;Node42</title>
<path fill="none" stroke="midnightblue" d="M1218.17,-711.93C1268.27,-707.59 1369.65,-695.66 1391,-669 1402.33,-654.85 1392,-634.83 1381.59,-620.76"/>
<polygon fill="midnightblue" stroke="midnightblue" points="1384.26,-618.5 1375.29,-612.87 1378.79,-622.87 1384.26,-618.5"/>
</g>
<!-- Node43 -->
<g id="node43" class="node">
<title>Node43</title>
<g id="a_node43"><a xlink:title=" ">
<polygon fill="none" stroke="#bfbfbf" points="1416.5,-593.5 1416.5,-612.5 1463.5,-612.5 1463.5,-593.5 1416.5,-593.5"/>
<text text-anchor="middle" x="1440" y="-600.5" font-family="FreeSans.ttf" font-size="10.00">vector</text>
</a>
</g>
</g>
<!-- Node1&#45;&gt;Node43 -->
<g id="edge87" class="edge">
<title>Node1&#45;&gt;Node43</title>
<path fill="none" stroke="midnightblue" d="M1218,-711.22C1269.71,-705.6 1377.58,-691.49 1407,-669 1422.05,-657.5 1430.78,-637.22 1435.44,-622.37"/>
<polygon fill="midnightblue" stroke="midnightblue" points="1438.82,-623.29 1438.14,-612.72 1432.08,-621.4 1438.82,-623.29"/>
</g>
<!-- Node2&#45;&gt;Node3 -->
<g id="edge2" class="edge">
<title>Node2&#45;&gt;Node3</title>
<path fill="none" stroke="midnightblue" d="M1060.82,-649.08C1062.27,-641.93 1064.37,-631.64 1066.19,-622.69"/>
<polygon fill="midnightblue" stroke="midnightblue" points="1069.65,-623.25 1068.22,-612.75 1062.79,-621.85 1069.65,-623.25"/>
</g>
<!-- Node4 -->
<g id="node4" class="node">
<title>Node4</title>
<g id="a_node4"><a xlink:title=" ">
<polygon fill="none" stroke="#bfbfbf" points="250.5,-0.5 250.5,-19.5 303.5,-19.5 303.5,-0.5 250.5,-0.5"/>
<text text-anchor="middle" x="277" y="-7.5" font-family="FreeSans.ttf" font-size="10.00">cstddef</text>
</a>
</g>
</g>
<!-- Node3&#45;&gt;Node4 -->
<g id="edge3" class="edge">
<title>Node3&#45;&gt;Node4</title>
<path fill="none" stroke="midnightblue" d="M1000.42,-600.77C796.26,-596.85 211.18,-583.36 180,-557 151.68,-533.05 162,-512.6 162,-475.5 162,-475.5 162,-475.5 162,-121 162,-73.9 212.99,-40.75 247.07,-23.86"/>
<polygon fill="midnightblue" stroke="midnightblue" points="248.65,-26.98 256.17,-19.53 245.64,-20.66 248.65,-26.98"/>
</g>
<!-- Node5 -->
<g id="node5" class="node">
<title>Node5</title>
<g id="a_node5"><a xlink:title=" ">
<polygon fill="none" stroke="#bfbfbf" points="1126,-112.5 1126,-131.5 1170,-131.5 1170,-112.5 1126,-112.5"/>
<text text-anchor="middle" x="1148" y="-119.5" font-family="FreeSans.ttf" font-size="10.00">string</text>
</a>
</g>
</g>
<!-- Node3&#45;&gt;Node5 -->
<g id="edge4" class="edge">
<title>Node3&#45;&gt;Node5</title>
<path fill="none" stroke="midnightblue" d="M1082.07,-593.25C1093.25,-584.78 1109.92,-571.17 1122,-557 1208.68,-455.34 1262,-424.6 1262,-291 1262,-291 1262,-291 1262,-233 1262,-186.11 1211.45,-152.89 1177.67,-135.93"/>
<polygon fill="midnightblue" stroke="midnightblue" points="1179.17,-132.77 1168.64,-131.58 1176.13,-139.07 1179.17,-132.77"/>
</g>
<!-- Node6 -->
<g id="node6" class="node">
<title>Node6</title>
<g id="a_node6"><a xlink:title=" ">
<polygon fill="none" stroke="#bfbfbf" points="1026.5,-532 1026.5,-551 1113.5,-551 1113.5,-532 1026.5,-532"/>
<text text-anchor="middle" x="1070" y="-539" font-family="FreeSans.ttf" font-size="10.00">ModelExport.h</text>
</a>
</g>
</g>
<!-- Node3&#45;&gt;Node6 -->
<g id="edge5" class="edge">
<title>Node3&#45;&gt;Node6</title>
<path fill="none" stroke="midnightblue" d="M1070,-593.48C1070,-585.08 1070,-571.98 1070,-561.16"/>
<polygon fill="midnightblue" stroke="midnightblue" points="1073.5,-561.01 1070,-551.01 1066.5,-561.01 1073.5,-561.01"/>
</g>
<!-- Node7&#45;&gt;Node3 -->
<g id="edge73" class="edge">
<title>Node7&#45;&gt;Node3</title>
<path fill="none" stroke="midnightblue" d="M938.72,-649.44C964.85,-640.4 1006.26,-626.06 1035.58,-615.92"/>
<polygon fill="midnightblue" stroke="midnightblue" points="1037.09,-619.1 1045.4,-612.52 1034.8,-612.48 1037.09,-619.1"/>
</g>
<!-- Node8 -->
<g id="node8" class="node">
<title>Node8</title>
<g id="a_node8"><a xlink:href="SpatialInertia_8h.html" target="_top" xlink:title=" ">
<polygon fill="none" stroke="black" points="412,-593.5 412,-612.5 574,-612.5 574,-593.5 412,-593.5"/>
<text text-anchor="middle" x="493" y="-600.5" font-family="FreeSans.ttf" font-size="10.00">iDynTree/Core/SpatialInertia.h</text>
</a>
</g>
</g>
<!-- Node7&#45;&gt;Node8 -->
<g id="edge7" class="edge">
<title>Node7&#45;&gt;Node8</title>
<path fill="none" stroke="midnightblue" d="M851.43,-649.97C776.3,-640.34 650.35,-624.18 569.51,-613.81"/>
<polygon fill="midnightblue" stroke="midnightblue" points="569.76,-610.32 559.39,-612.52 568.87,-617.26 569.76,-610.32"/>
</g>
<!-- Node9 -->
<g id="node9" class="node">
<title>Node9</title>
<g id="a_node9"><a xlink:href="SpatialInertiaRaw_8h.html" target="_top" xlink:title=" ">
<polygon fill="none" stroke="black" points="738.5,-526.5 738.5,-556.5 891.5,-556.5 891.5,-526.5 738.5,-526.5"/>
<text text-anchor="start" x="746.5" y="-544.5" font-family="FreeSans.ttf" font-size="10.00">iDynTree/Core/SpatialInertia</text>
<text text-anchor="middle" x="815" y="-533.5" font-family="FreeSans.ttf" font-size="10.00">Raw.h</text>
</a>
</g>
</g>
<!-- Node8&#45;&gt;Node9 -->
<g id="edge8" class="edge">
<title>Node8&#45;&gt;Node9</title>
<path fill="none" stroke="midnightblue" d="M539.13,-593.48C588.55,-584.34 668.1,-569.64 729.1,-558.37"/>
<polygon fill="midnightblue" stroke="midnightblue" points="729.91,-561.78 739.11,-556.52 728.64,-554.9 729.91,-561.78"/>
</g>
<!-- Node27 -->
<g id="node27" class="node">
<title>Node27</title>
<g id="a_node27"><a xlink:href="VectorFixSize_8h.html" target="_top" xlink:title=" ">
<polygon fill="none" stroke="black" points="471,-168.5 471,-187.5 633,-187.5 633,-168.5 471,-168.5"/>
<text text-anchor="middle" x="552" y="-175.5" font-family="FreeSans.ttf" font-size="10.00">iDynTree/Core/VectorFixSize.h</text>
</a>
</g>
</g>
<!-- Node8&#45;&gt;Node27 -->
<g id="edge33" class="edge">
<title>Node8&#45;&gt;Node27</title>
<path fill="none" stroke="midnightblue" d="M468.53,-593.44C452.43,-586.38 432.62,-574.63 423,-557 351.93,-426.82 355.53,-342.3 445,-224 457.27,-207.78 476.49,-197.36 495.28,-190.68"/>
<polygon fill="midnightblue" stroke="midnightblue" points="496.59,-193.93 505.02,-187.52 494.43,-187.27 496.59,-193.93"/>
</g>
<!-- Node28 -->
<g id="node28" class="node">
<title>Node28</title>
<g id="a_node28"><a xlink:href="Twist_8h.html" target="_top" xlink:title=" ">
<polygon fill="none" stroke="black" points="432,-532 432,-551 554,-551 554,-532 432,-532"/>
<text text-anchor="middle" x="493" y="-539" font-family="FreeSans.ttf" font-size="10.00">iDynTree/Core/Twist.h</text>
</a>
</g>
</g>
<!-- Node8&#45;&gt;Node28 -->
<g id="edge41" class="edge">
<title>Node8&#45;&gt;Node28</title>
<path fill="none" stroke="midnightblue" d="M493,-593.48C493,-585.08 493,-571.98 493,-561.16"/>
<polygon fill="midnightblue" stroke="midnightblue" points="496.5,-561.01 493,-551.01 489.5,-561.01 496.5,-561.01"/>
</g>
<!-- Node36 -->
<g id="node36" class="node">
<title>Node36</title>
<g id="a_node36"><a xlink:href="SpatialMomentum_8h.html" target="_top" xlink:title=" ">
<polygon fill="none" stroke="black" points="189.5,-532 189.5,-551 376.5,-551 376.5,-532 189.5,-532"/>
<text text-anchor="middle" x="283" y="-539" font-family="FreeSans.ttf" font-size="10.00">iDynTree/Core/SpatialMomentum.h</text>
</a>
</g>
</g>
<!-- Node8&#45;&gt;Node36 -->
<g id="edge64" class="edge">
<title>Node8&#45;&gt;Node36</title>
<path fill="none" stroke="midnightblue" d="M462.91,-593.48C426.11,-583.05 363.69,-565.36 322.91,-553.81"/>
<polygon fill="midnightblue" stroke="midnightblue" points="323.61,-550.37 313.03,-551.01 321.7,-557.1 323.61,-550.37"/>
</g>
<!-- Node38 -->
<g id="node38" class="node">
<title>Node38</title>
<g id="a_node38"><a xlink:href="SpatialAcc_8h.html" target="_top" xlink:title=" ">
<polygon fill="none" stroke="black" points="572,-532 572,-551 720,-551 720,-532 572,-532"/>
<text text-anchor="middle" x="646" y="-539" font-family="FreeSans.ttf" font-size="10.00">iDynTree/Core/SpatialAcc.h</text>
</a>
</g>
</g>
<!-- Node8&#45;&gt;Node38 -->
<g id="edge69" class="edge">
<title>Node8&#45;&gt;Node38</title>
<path fill="none" stroke="midnightblue" d="M514.92,-593.48C541.05,-583.31 584.91,-566.26 614.63,-554.7"/>
<polygon fill="midnightblue" stroke="midnightblue" points="616.07,-557.9 624.12,-551.01 613.53,-551.37 616.07,-557.9"/>
</g>
<!-- Node39 -->
<g id="node39" class="node">
<title>Node39</title>
<g id="a_node39"><a xlink:href="Wrench_8h.html" target="_top" xlink:title=" ">
<polygon fill="none" stroke="black" points="0,-532 0,-551 134,-551 134,-532 0,-532"/>
<text text-anchor="middle" x="67" y="-539" font-family="FreeSans.ttf" font-size="10.00">iDynTree/Core/Wrench.h</text>
</a>
</g>
</g>
<!-- Node8&#45;&gt;Node39 -->
<g id="edge71" class="edge">
<title>Node8&#45;&gt;Node39</title>
<path fill="none" stroke="midnightblue" d="M419.83,-593.48C349.9,-585.09 241.57,-571.47 148,-557 139.68,-555.71 130.9,-554.25 122.31,-552.76"/>
<polygon fill="midnightblue" stroke="midnightblue" points="122.8,-549.29 112.35,-551.01 121.59,-556.19 122.8,-549.29"/>
</g>
<!-- Node10 -->
<g id="node10" class="node">
<title>Node10</title>
<g id="a_node10"><a xlink:href="RotationalInertiaRaw_8h.html" target="_top" xlink:title=" ">
<polygon fill="none" stroke="black" points="717,-336.5 717,-366.5 855,-366.5 855,-336.5 717,-336.5"/>
<text text-anchor="start" x="725" y="-354.5" font-family="FreeSans.ttf" font-size="10.00">iDynTree/Core/Rotational</text>
<text text-anchor="middle" x="786" y="-343.5" font-family="FreeSans.ttf" font-size="10.00">InertiaRaw.h</text>
</a>
</g>
</g>
<!-- Node9&#45;&gt;Node10 -->
<g id="edge9" class="edge">
<title>Node9&#45;&gt;Node10</title>
<path fill="none" stroke="midnightblue" d="M812.82,-526.37C807.9,-494.44 795.86,-416.44 789.73,-376.67"/>
<polygon fill="midnightblue" stroke="midnightblue" points="793.15,-375.89 788.17,-366.54 786.23,-376.95 793.15,-375.89"/>
</g>
<!-- Node11 -->
<g id="node11" class="node">
<title>Node11</title>
<g id="a_node11"><a xlink:href="MatrixFixSize_8h.html" target="_top" xlink:title=" ">
<polygon fill="none" stroke="black" points="665.5,-168.5 665.5,-187.5 828.5,-187.5 828.5,-168.5 665.5,-168.5"/>
<text text-anchor="middle" x="747" y="-175.5" font-family="FreeSans.ttf" font-size="10.00">iDynTree/Core/MatrixFixSize.h</text>
</a>
</g>
</g>
<!-- Node10&#45;&gt;Node11 -->
<g id="edge10" class="edge">
<title>Node10&#45;&gt;Node11</title>
<path fill="none" stroke="midnightblue" d="M773.79,-336.45C766.07,-326.82 756.53,-313.41 751,-300 738,-268.51 738.74,-257.99 741,-224 741.57,-215.34 742.77,-205.81 743.94,-197.75"/>
<polygon fill="midnightblue" stroke="midnightblue" points="747.44,-198.01 745.51,-187.59 740.52,-196.94 747.44,-198.01"/>
</g>
<!-- Node11&#45;&gt;Node5 -->
<g id="edge30" class="edge">
<title>Node11&#45;&gt;Node5</title>
<path fill="none" stroke="midnightblue" d="M810.54,-168.44C897.15,-156.78 1049.06,-136.32 1115.43,-127.39"/>
<polygon fill="midnightblue" stroke="midnightblue" points="1116.25,-130.81 1125.69,-126 1115.31,-123.87 1116.25,-130.81"/>
</g>
<!-- Node12 -->
<g id="node12" class="node">
<title>Node12</title>
<g id="a_node12"><a xlink:href="Utils_8h.html" target="_top" xlink:title=" ">
<polygon fill="none" stroke="black" points="214.5,-56.5 214.5,-75.5 333.5,-75.5 333.5,-56.5 214.5,-56.5"/>
<text text-anchor="middle" x="274" y="-63.5" font-family="FreeSans.ttf" font-size="10.00">iDynTree/Core/Utils.h</text>
</a>
</g>
</g>
<!-- Node11&#45;&gt;Node12 -->
<g id="edge11" class="edge">
<title>Node11&#45;&gt;Node12</title>
<path fill="none" stroke="midnightblue" d="M733.24,-168.28C706.47,-151.37 649.09,-115.48 639,-112 540.28,-77.94 418.72,-69.03 343.79,-67.04"/>
<polygon fill="midnightblue" stroke="midnightblue" points="343.62,-63.54 333.54,-66.81 343.45,-70.54 343.62,-63.54"/>
</g>
<!-- Node14 -->
<g id="node14" class="node">
<title>Node14</title>
<g id="a_node14"><a xlink:href="MatrixView_8h.html" target="_top" xlink:title=" ">
<polygon fill="none" stroke="black" points="686,-112.5 686,-131.5 838,-131.5 838,-112.5 686,-112.5"/>
<text text-anchor="middle" x="762" y="-119.5" font-family="FreeSans.ttf" font-size="10.00">iDynTree/Core/MatrixView.h</text>
</a>
</g>
</g>
<!-- Node11&#45;&gt;Node14 -->
<g id="edge14" class="edge">
<title>Node11&#45;&gt;Node14</title>
<path fill="none" stroke="midnightblue" d="M749.48,-168.08C751.49,-160.85 754.39,-150.41 756.89,-141.4"/>
<polygon fill="midnightblue" stroke="midnightblue" points="760.26,-142.32 759.57,-131.75 753.52,-140.45 760.26,-142.32"/>
</g>
<!-- Node15 -->
<g id="node15" class="node">
<title>Node15</title>
<g id="a_node15"><a xlink:title=" ">
<polygon fill="none" stroke="#bfbfbf" points="837,-0.5 837,-19.5 889,-19.5 889,-0.5 837,-0.5"/>
<text text-anchor="middle" x="863" y="-7.5" font-family="FreeSans.ttf" font-size="10.00">cassert</text>
</a>
</g>
</g>
<!-- Node11&#45;&gt;Node15 -->
<g id="edge28" class="edge">
<title>Node11&#45;&gt;Node15</title>
<path fill="none" stroke="midnightblue" d="M822.28,-168.42C844.48,-161.98 866.43,-150.92 880,-132 902.17,-101.09 884.95,-54.13 872.63,-28.75"/>
<polygon fill="midnightblue" stroke="midnightblue" points="875.62,-26.9 867.94,-19.6 869.39,-30.09 875.62,-26.9"/>
</g>
<!-- Node24 -->
<g id="node24" class="node">
<title>Node24</title>
<g id="a_node24"><a xlink:title=" ">
<polygon fill="none" stroke="#bfbfbf" points="580,-112.5 580,-131.5 630,-131.5 630,-112.5 580,-112.5"/>
<text text-anchor="middle" x="605" y="-119.5" font-family="FreeSans.ttf" font-size="10.00">cstring</text>
</a>
</g>
</g>
<!-- Node11&#45;&gt;Node24 -->
<g id="edge29" class="edge">
<title>Node11&#45;&gt;Node24</title>
<path fill="none" stroke="midnightblue" d="M724.5,-168.44C700.92,-159.48 663.68,-145.31 637.04,-135.18"/>
<polygon fill="midnightblue" stroke="midnightblue" points="637.99,-131.8 627.4,-131.52 635.5,-138.34 637.99,-131.8"/>
</g>
<!-- Node25 -->
<g id="node25" class="node">
<title>Node25</title>
<g id="a_node25"><a xlink:title=" ">
<polygon fill="none" stroke="#bfbfbf" points="390,-112.5 390,-131.5 450,-131.5 450,-112.5 390,-112.5"/>
<text text-anchor="middle" x="420" y="-119.5" font-family="FreeSans.ttf" font-size="10.00">iostream</text>
</a>
</g>
</g>
<!-- Node11&#45;&gt;Node25 -->
<g id="edge31" class="edge">
<title>Node11&#45;&gt;Node25</title>
<path fill="none" stroke="midnightblue" d="M683.85,-168.46C627.58,-160.55 542.78,-147.89 460.01,-132.08"/>
<polygon fill="midnightblue" stroke="midnightblue" points="460.67,-128.65 450.19,-130.19 459.35,-135.52 460.67,-128.65"/>
</g>
<!-- Node26 -->
<g id="node26" class="node">
<title>Node26</title>
<g id="a_node26"><a xlink:title=" ">
<polygon fill="none" stroke="#bfbfbf" points="468,-112.5 468,-131.5 524,-131.5 524,-112.5 468,-112.5"/>
<text text-anchor="middle" x="496" y="-119.5" font-family="FreeSans.ttf" font-size="10.00">sstream</text>
</a>
</g>
</g>
<!-- Node11&#45;&gt;Node26 -->
<g id="edge32" class="edge">
<title>Node11&#45;&gt;Node26</title>
<path fill="none" stroke="midnightblue" d="M707.23,-168.44C659.81,-158.24 581.1,-141.31 534.33,-131.25"/>
<polygon fill="midnightblue" stroke="midnightblue" points="534.8,-127.77 524.29,-129.09 533.33,-134.61 534.8,-127.77"/>
</g>
<!-- Node12&#45;&gt;Node4 -->
<g id="edge12" class="edge">
<title>Node12&#45;&gt;Node4</title>
<path fill="none" stroke="midnightblue" d="M274.5,-56.08C274.89,-49.01 275.45,-38.86 275.95,-29.99"/>
<polygon fill="midnightblue" stroke="midnightblue" points="279.45,-29.93 276.51,-19.75 272.46,-29.54 279.45,-29.93"/>
</g>
<!-- Node13 -->
<g id="node13" class="node">
<title>Node13</title>
<g id="a_node13"><a xlink:title=" ">
<polygon fill="none" stroke="#bfbfbf" points="152,-0.5 152,-19.5 232,-19.5 232,-0.5 152,-0.5"/>
<text text-anchor="middle" x="192" y="-7.5" font-family="FreeSans.ttf" font-size="10.00">CoreExport.h</text>
</a>
</g>
</g>
<!-- Node12&#45;&gt;Node13 -->
<g id="edge13" class="edge">
<title>Node12&#45;&gt;Node13</title>
<path fill="none" stroke="midnightblue" d="M260.83,-56.32C248.15,-47.98 228.77,-35.21 213.79,-25.35"/>
<polygon fill="midnightblue" stroke="midnightblue" points="215.42,-22.23 205.14,-19.65 211.57,-28.08 215.42,-22.23"/>
</g>
<!-- Node14&#45;&gt;Node12 -->
<g id="edge27" class="edge">
<title>Node14&#45;&gt;Node12</title>
<path fill="none" stroke="midnightblue" d="M685.75,-112.56C592.05,-102.19 434.39,-84.75 343.77,-74.72"/>
<polygon fill="midnightblue" stroke="midnightblue" points="343.92,-71.22 333.59,-73.59 343.15,-78.17 343.92,-71.22"/>
</g>
<!-- Node14&#45;&gt;Node15 -->
<g id="edge15" class="edge">
<title>Node14&#45;&gt;Node15</title>
<path fill="none" stroke="midnightblue" d="M769.93,-112.37C786.81,-93.97 826.57,-50.67 848.26,-27.05"/>
<polygon fill="midnightblue" stroke="midnightblue" points="850.93,-29.32 855.11,-19.59 845.77,-24.59 850.93,-29.32"/>
</g>
<!-- Node16 -->
<g id="node16" class="node">
<title>Node16</title>
<g id="a_node16"><a xlink:title=" ">
<polygon fill="none" stroke="#bfbfbf" points="744.5,-0.5 744.5,-19.5 813.5,-19.5 813.5,-0.5 744.5,-0.5"/>
<text text-anchor="middle" x="779" y="-7.5" font-family="FreeSans.ttf" font-size="10.00">type_traits</text>
</a>
</g>
</g>
<!-- Node14&#45;&gt;Node16 -->
<g id="edge16" class="edge">
<title>Node14&#45;&gt;Node16</title>
<path fill="none" stroke="midnightblue" d="M763.33,-112.37C766.08,-94.62 772.41,-53.67 776.13,-29.6"/>
<polygon fill="midnightblue" stroke="midnightblue" points="779.6,-30.01 777.67,-19.59 772.69,-28.94 779.6,-30.01"/>
</g>
<!-- Node17 -->
<g id="node17" class="node">
<title>Node17</title>
<g id="a_node17"><a xlink:href="Span_8h.html" target="_top" xlink:title=" ">
<polygon fill="none" stroke="black" points="500.5,-56.5 500.5,-75.5 621.5,-75.5 621.5,-56.5 500.5,-56.5"/>
<text text-anchor="middle" x="561" y="-63.5" font-family="FreeSans.ttf" font-size="10.00">iDynTree/Core/Span.h</text>
</a>
</g>
</g>
<!-- Node14&#45;&gt;Node17 -->
<g id="edge17" class="edge">
<title>Node14&#45;&gt;Node17</title>
<path fill="none" stroke="midnightblue" d="M730.15,-112.44C695.6,-103.16 640.32,-88.31 602.42,-78.13"/>
<polygon fill="midnightblue" stroke="midnightblue" points="603.27,-74.73 592.7,-75.52 601.45,-81.49 603.27,-74.73"/>
</g>
<!-- Node17&#45;&gt;Node4 -->
<g id="edge21" class="edge">
<title>Node17&#45;&gt;Node4</title>
<path fill="none" stroke="midnightblue" d="M507.35,-56.47C459.04,-48.52 385.89,-35.84 313.86,-20.29"/>
<polygon fill="midnightblue" stroke="midnightblue" points="314.22,-16.79 303.71,-18.08 312.73,-23.63 314.22,-16.79"/>
</g>
<!-- Node17&#45;&gt;Node15 -->
<g id="edge18" class="edge">
<title>Node17&#45;&gt;Node15</title>
<path fill="none" stroke="midnightblue" d="M614.62,-56.49C667.47,-47.92 750.48,-34.01 822,-20 823.48,-19.71 824.98,-19.41 826.5,-19.1"/>
<polygon fill="midnightblue" stroke="midnightblue" points="827.5,-22.47 836.57,-16.99 826.06,-15.62 827.5,-22.47"/>
</g>
<!-- Node17&#45;&gt;Node16 -->
<g id="edge25" class="edge">
<title>Node17&#45;&gt;Node16</title>
<path fill="none" stroke="midnightblue" d="M595.54,-56.44C633.25,-47.1 693.74,-32.12 734.86,-21.93"/>
<polygon fill="midnightblue" stroke="midnightblue" points="735.75,-25.32 744.62,-19.52 734.07,-18.52 735.75,-25.32"/>
</g>
<!-- Node18 -->
<g id="node18" class="node">
<title>Node18</title>
<g id="a_node18"><a xlink:title=" ">
<polygon fill="none" stroke="#bfbfbf" points="602,-0.5 602,-19.5 666,-19.5 666,-0.5 602,-0.5"/>
<text text-anchor="middle" x="634" y="-7.5" font-family="FreeSans.ttf" font-size="10.00">algorithm</text>
</a>
</g>
</g>
<!-- Node17&#45;&gt;Node18 -->
<g id="edge19" class="edge">
<title>Node17&#45;&gt;Node18</title>
<path fill="none" stroke="midnightblue" d="M572.73,-56.32C583.84,-48.11 600.74,-35.6 613.98,-25.81"/>
<polygon fill="midnightblue" stroke="midnightblue" points="616.1,-28.59 622.06,-19.83 611.94,-22.97 616.1,-28.59"/>
</g>
<!-- Node19 -->
<g id="node19" class="node">
<title>Node19</title>
<g id="a_node19"><a xlink:title=" ">
<polygon fill="none" stroke="#bfbfbf" points="684,-0.5 684,-19.5 726,-19.5 726,-0.5 684,-0.5"/>
<text text-anchor="middle" x="705" y="-7.5" font-family="FreeSans.ttf" font-size="10.00">array</text>
</a>
</g>
</g>
<!-- Node17&#45;&gt;Node19 -->
<g id="edge20" class="edge">
<title>Node17&#45;&gt;Node19</title>
<path fill="none" stroke="midnightblue" d="M583.82,-56.44C608.26,-47.28 647.17,-32.68 674.29,-22.52"/>
<polygon fill="midnightblue" stroke="midnightblue" points="675.56,-25.78 683.7,-18.99 673.11,-19.22 675.56,-25.78"/>
</g>
<!-- Node20 -->
<g id="node20" class="node">
<title>Node20</title>
<g id="a_node20"><a xlink:title=" ">
<polygon fill="none" stroke="#bfbfbf" points="321.5,-0.5 321.5,-19.5 374.5,-19.5 374.5,-0.5 321.5,-0.5"/>
<text text-anchor="middle" x="348" y="-7.5" font-family="FreeSans.ttf" font-size="10.00">iterator</text>
</a>
</g>
</g>
<!-- Node17&#45;&gt;Node20 -->
<g id="edge22" class="edge">
<title>Node17&#45;&gt;Node20</title>
<path fill="none" stroke="midnightblue" d="M527.25,-56.44C488.29,-46.57 424.46,-30.38 384.41,-20.23"/>
<polygon fill="midnightblue" stroke="midnightblue" points="385.08,-16.79 374.53,-17.73 383.36,-23.58 385.08,-16.79"/>
</g>
<!-- Node21 -->
<g id="node21" class="node">
<title>Node21</title>
<g id="a_node21"><a xlink:title=" ">
<polygon fill="none" stroke="#bfbfbf" points="393,-0.5 393,-19.5 437,-19.5 437,-0.5 393,-0.5"/>
<text text-anchor="middle" x="415" y="-7.5" font-family="FreeSans.ttf" font-size="10.00">limits</text>
</a>
</g>
</g>
<!-- Node17&#45;&gt;Node21 -->
<g id="edge23" class="edge">
<title>Node17&#45;&gt;Node21</title>
<path fill="none" stroke="midnightblue" d="M537.87,-56.44C513.23,-47.33 474.08,-32.85 446.61,-22.69"/>
<polygon fill="midnightblue" stroke="midnightblue" points="447.66,-19.35 437.07,-19.16 445.24,-25.91 447.66,-19.35"/>
</g>
<!-- Node22 -->
<g id="node22" class="node">
<title>Node22</title>
<g id="a_node22"><a xlink:title=" ">
<polygon fill="none" stroke="#bfbfbf" points="455.5,-0.5 455.5,-19.5 520.5,-19.5 520.5,-0.5 455.5,-0.5"/>
<text text-anchor="middle" x="488" y="-7.5" font-family="FreeSans.ttf" font-size="10.00">stdexcept</text>
</a>
</g>
</g>
<!-- Node17&#45;&gt;Node22 -->
<g id="edge24" class="edge">
<title>Node17&#45;&gt;Node22</title>
<path fill="none" stroke="midnightblue" d="M549.27,-56.32C538.16,-48.11 521.26,-35.6 508.02,-25.81"/>
<polygon fill="midnightblue" stroke="midnightblue" points="510.06,-22.97 499.94,-19.83 505.9,-28.59 510.06,-22.97"/>
</g>
<!-- Node23 -->
<g id="node23" class="node">
<title>Node23</title>
<g id="a_node23"><a xlink:title=" ">
<polygon fill="none" stroke="#bfbfbf" points="538.5,-0.5 538.5,-19.5 583.5,-19.5 583.5,-0.5 538.5,-0.5"/>
<text text-anchor="middle" x="561" y="-7.5" font-family="FreeSans.ttf" font-size="10.00">utility</text>
</a>
</g>
</g>
<!-- Node17&#45;&gt;Node23 -->
<g id="edge26" class="edge">
<title>Node17&#45;&gt;Node23</title>
<path fill="none" stroke="midnightblue" d="M561,-56.08C561,-49.01 561,-38.86 561,-29.99"/>
<polygon fill="midnightblue" stroke="midnightblue" points="564.5,-29.75 561,-19.75 557.5,-29.75 564.5,-29.75"/>
</g>
<!-- Node27&#45;&gt;Node4 -->
<g id="edge39" class="edge">
<title>Node27&#45;&gt;Node4</title>
<path fill="none" stroke="midnightblue" d="M470.8,-169.75C440.04,-163.6 406.36,-152.39 381,-132 351.41,-108.22 367.02,-84.55 342,-56 331.01,-43.46 315.81,-32.68 302.87,-24.83"/>
<polygon fill="midnightblue" stroke="midnightblue" points="304.34,-21.64 293.94,-19.64 300.83,-27.69 304.34,-21.64"/>
</g>
<!-- Node27&#45;&gt;Node5 -->
<g id="edge36" class="edge">
<title>Node27&#45;&gt;Node5</title>
<path fill="none" stroke="midnightblue" d="M633.31,-169.63C766.46,-157.57 1025.26,-134.12 1115.79,-125.92"/>
<polygon fill="midnightblue" stroke="midnightblue" points="1116.34,-129.38 1125.98,-125 1115.71,-122.41 1116.34,-129.38"/>
</g>
<!-- Node27&#45;&gt;Node12 -->
<g id="edge34" class="edge">
<title>Node27&#45;&gt;Node12</title>
<path fill="none" stroke="midnightblue" d="M470.86,-168.65C432.11,-162.32 386.01,-151.26 348,-132 324.06,-119.87 301.66,-98.19 287.91,-83.22"/>
<polygon fill="midnightblue" stroke="midnightblue" points="290.48,-80.83 281.21,-75.7 285.25,-85.49 290.48,-80.83"/>
</g>
<!-- Node27&#45;&gt;Node15 -->
<g id="edge38" class="edge">
<title>Node27&#45;&gt;Node15</title>
<path fill="none" stroke="midnightblue" d="M633.15,-169.62C715.24,-161.37 832.13,-147.17 847,-132 873.61,-104.86 870.78,-56.35 866.71,-29.74"/>
<polygon fill="midnightblue" stroke="midnightblue" points="870.14,-29.05 864.97,-19.8 863.25,-30.25 870.14,-29.05"/>
</g>
<!-- Node27&#45;&gt;Node17 -->
<g id="edge35" class="edge">
<title>Node27&#45;&gt;Node17</title>
<path fill="none" stroke="midnightblue" d="M552.71,-168.37C554.16,-150.62 557.51,-109.67 559.48,-85.6"/>
<polygon fill="midnightblue" stroke="midnightblue" points="562.97,-85.84 560.3,-75.59 555.99,-85.27 562.97,-85.84"/>
</g>
<!-- Node27&#45;&gt;Node24 -->
<g id="edge40" class="edge">
<title>Node27&#45;&gt;Node24</title>
<path fill="none" stroke="midnightblue" d="M560.75,-168.08C568.47,-160.22 579.9,-148.57 589.22,-139.08"/>
<polygon fill="midnightblue" stroke="midnightblue" points="591.9,-141.34 596.41,-131.75 586.91,-136.44 591.9,-141.34"/>
</g>
<!-- Node27&#45;&gt;Node26 -->
<g id="edge37" class="edge">
<title>Node27&#45;&gt;Node26</title>
<path fill="none" stroke="midnightblue" d="M543,-168.32C534.81,-160.42 522.49,-148.55 512.53,-138.94"/>
<polygon fill="midnightblue" stroke="midnightblue" points="514.79,-136.26 505.16,-131.83 509.93,-141.29 514.79,-136.26"/>
</g>
<!-- Node29 -->
<g id="node29" class="node">
<title>Node29</title>
<g id="a_node29"><a xlink:href="SpatialMotionVector_8h.html" target="_top" xlink:title=" ">
<polygon fill="none" stroke="black" points="544.5,-459.5 544.5,-489.5 699.5,-489.5 699.5,-459.5 544.5,-459.5"/>
<text text-anchor="start" x="552.5" y="-477.5" font-family="FreeSans.ttf" font-size="10.00">iDynTree/Core/SpatialMotion</text>
<text text-anchor="middle" x="622" y="-466.5" font-family="FreeSans.ttf" font-size="10.00">Vector.h</text>
</a>
</g>
</g>
<!-- Node28&#45;&gt;Node29 -->
<g id="edge42" class="edge">
<title>Node28&#45;&gt;Node29</title>
<path fill="none" stroke="midnightblue" d="M510.13,-531.87C529.09,-522.31 560.22,-506.63 584.84,-494.22"/>
<polygon fill="midnightblue" stroke="midnightblue" points="586.56,-497.28 593.91,-489.65 583.41,-491.03 586.56,-497.28"/>
</g>
<!-- Node29&#45;&gt;Node27 -->
<g id="edge43" class="edge">
<title>Node29&#45;&gt;Node27</title>
<path fill="none" stroke="midnightblue" d="M626.84,-459.34C639.63,-419.28 670.38,-302.92 626,-224 617.78,-209.38 602.67,-198.95 588.24,-191.85"/>
<polygon fill="midnightblue" stroke="midnightblue" points="589.48,-188.57 578.93,-187.64 586.6,-194.95 589.48,-188.57"/>
</g>
<!-- Node30 -->
<g id="node30" class="node">
<title>Node30</title>
<g id="a_node30"><a xlink:href="GeomVector3_8h.html" target="_top" xlink:title=" ">
<polygon fill="none" stroke="black" points="454.5,-224.5 454.5,-243.5 617.5,-243.5 617.5,-224.5 454.5,-224.5"/>
<text text-anchor="middle" x="536" y="-231.5" font-family="FreeSans.ttf" font-size="10.00">iDynTree/Core/GeomVector3.h</text>
</a>
</g>
</g>
<!-- Node29&#45;&gt;Node30 -->
<g id="edge44" class="edge">
<title>Node29&#45;&gt;Node30</title>
<path fill="none" stroke="midnightblue" d="M618.42,-459.33C614.69,-445.01 608.51,-422.29 602,-403 583.27,-347.49 556.7,-283.46 543.73,-252.95"/>
<polygon fill="midnightblue" stroke="midnightblue" points="546.89,-251.45 539.74,-243.63 540.45,-254.2 546.89,-251.45"/>
</g>
<!-- Node31 -->
<g id="node31" class="node">
<title>Node31</title>
<g id="a_node31"><a xlink:href="SpatialVector_8h.html" target="_top" xlink:title=" ">
<polygon fill="none" stroke="black" points="432.5,-403.5 432.5,-422.5 593.5,-422.5 593.5,-403.5 432.5,-403.5"/>
<text text-anchor="middle" x="513" y="-410.5" font-family="FreeSans.ttf" font-size="10.00">iDynTree/Core/SpatialVector.h</text>
</a>
</g>
</g>
<!-- Node29&#45;&gt;Node31 -->
<g id="edge46" class="edge">
<title>Node29&#45;&gt;Node31</title>
<path fill="none" stroke="midnightblue" d="M596.17,-459.4C578.53,-449.77 555.3,-437.09 537.87,-427.58"/>
<polygon fill="midnightblue" stroke="midnightblue" points="539.31,-424.38 528.86,-422.66 535.96,-430.52 539.31,-424.38"/>
</g>
<!-- Node30&#45;&gt;Node27 -->
<g id="edge45" class="edge">
<title>Node30&#45;&gt;Node27</title>
<path fill="none" stroke="midnightblue" d="M538.64,-224.08C540.79,-216.85 543.88,-206.41 546.55,-197.4"/>
<polygon fill="midnightblue" stroke="midnightblue" points="549.92,-198.33 549.41,-187.75 543.21,-196.34 549.92,-198.33"/>
</g>
<!-- Node31&#45;&gt;Node12 -->
<g id="edge60" class="edge">
<title>Node31&#45;&gt;Node12</title>
<path fill="none" stroke="midnightblue" d="M447.35,-403.47C421.92,-397.15 394.34,-386.15 375,-367 293.51,-286.28 277.76,-137.77 274.72,-85.66"/>
<polygon fill="midnightblue" stroke="midnightblue" points="278.21,-85.38 274.23,-75.57 271.22,-85.72 278.21,-85.38"/>
</g>
<!-- Node31&#45;&gt;Node25 -->
<g id="edge62" class="edge">
<title>Node31&#45;&gt;Node25</title>
<path fill="none" stroke="midnightblue" d="M464.67,-403.46C442.01,-397.07 416.44,-386.01 400,-367 357.74,-318.14 360.3,-287.13 374,-224 380.75,-192.91 397.92,-159.91 409.27,-140.4"/>
<polygon fill="midnightblue" stroke="midnightblue" points="412.32,-142.12 414.45,-131.74 406.31,-138.53 412.32,-142.12"/>
</g>
<!-- Node31&#45;&gt;Node26 -->
<g id="edge63" class="edge">
<title>Node31&#45;&gt;Node26</title>
<path fill="none" stroke="midnightblue" d="M492.36,-403.46C456.86,-387.24 388,-348.39 388,-291 388,-291 388,-291 388,-233 388,-187.21 436.25,-153.49 468.25,-136.16"/>
<polygon fill="midnightblue" stroke="midnightblue" points="469.93,-139.23 477.19,-131.51 466.7,-133.02 469.93,-139.23"/>
</g>
<!-- Node31&#45;&gt;Node30 -->
<g id="edge61" class="edge">
<title>Node31&#45;&gt;Node30</title>
<path fill="none" stroke="midnightblue" d="M514.11,-403.46C517.62,-376.43 528.56,-292.24 533.52,-254.11"/>
<polygon fill="midnightblue" stroke="midnightblue" points="537.03,-254.24 534.85,-243.87 530.09,-253.33 537.03,-254.24"/>
</g>
<!-- Node32 -->
<g id="node32" class="node">
<title>Node32</title>
<g id="a_node32"><a xlink:href="Position_8h.html" target="_top" xlink:title=" ">
<polygon fill="none" stroke="black" points="971.5,-342 971.5,-361 1036.5,-361 1036.5,-342 971.5,-342"/>
<text text-anchor="middle" x="1004" y="-349" font-family="FreeSans.ttf" font-size="10.00">Position.h</text>
</a>
</g>
</g>
<!-- Node31&#45;&gt;Node32 -->
<g id="edge47" class="edge">
<title>Node31&#45;&gt;Node32</title>
<path fill="none" stroke="midnightblue" d="M583.35,-403.48C686.7,-390.95 876.45,-367.96 961.18,-357.69"/>
<polygon fill="midnightblue" stroke="midnightblue" points="961.71,-361.15 971.22,-356.47 960.87,-354.2 961.71,-361.15"/>
</g>
<!-- Node34 -->
<g id="node34" class="node">
<title>Node34</title>
<g id="a_node34"><a xlink:href="Rotation_8h.html" target="_top" xlink:title=" ">
<polygon fill="none" stroke="black" points="760,-280.5 760,-299.5 898,-299.5 898,-280.5 760,-280.5"/>
<text text-anchor="middle" x="829" y="-287.5" font-family="FreeSans.ttf" font-size="10.00">iDynTree/Core/Rotation.h</text>
</a>
</g>
</g>
<!-- Node31&#45;&gt;Node34 -->
<g id="edge59" class="edge">
<title>Node31&#45;&gt;Node34</title>
<path fill="none" stroke="midnightblue" d="M534.6,-403.46C570.52,-389.27 644.84,-360.05 708,-336 737.82,-324.64 771.9,-312 796.28,-303.01"/>
<polygon fill="midnightblue" stroke="midnightblue" points="797.59,-306.26 805.76,-299.52 795.17,-299.69 797.59,-306.26"/>
</g>
<!-- Node32&#45;&gt;Node5 -->
<g id="edge58" class="edge">
<title>Node32&#45;&gt;Node5</title>
<path fill="none" stroke="midnightblue" d="M1017.41,-341.99C1049.26,-320.79 1128.32,-261.92 1149,-188 1153.23,-172.87 1152.57,-154.97 1151.08,-141.79"/>
<polygon fill="midnightblue" stroke="midnightblue" points="1154.51,-141.03 1149.66,-131.61 1147.57,-142 1154.51,-141.03"/>
</g>
<!-- Node33 -->
<g id="node33" class="node">
<title>Node33</title>
<g id="a_node33"><a xlink:href="PositionRaw_8h.html" target="_top" xlink:title=" ">
<polygon fill="none" stroke="black" points="926,-224.5 926,-243.5 1082,-243.5 1082,-224.5 926,-224.5"/>
<text text-anchor="middle" x="1004" y="-231.5" font-family="FreeSans.ttf" font-size="10.00">iDynTree/Core/PositionRaw.h</text>
</a>
</g>
</g>
<!-- Node32&#45;&gt;Node33 -->
<g id="edge48" class="edge">
<title>Node32&#45;&gt;Node33</title>
<path fill="none" stroke="midnightblue" d="M1004,-341.82C1004,-323.26 1004,-279.34 1004,-253.97"/>
<polygon fill="midnightblue" stroke="midnightblue" points="1007.5,-253.78 1004,-243.78 1000.5,-253.78 1007.5,-253.78"/>
</g>
<!-- Node32&#45;&gt;Node34 -->
<g id="edge51" class="edge">
<title>Node32&#45;&gt;Node34</title>
<path fill="none" stroke="midnightblue" d="M978.93,-341.98C948.65,-331.68 897.56,-314.31 863.56,-302.75"/>
<polygon fill="midnightblue" stroke="midnightblue" points="864.62,-299.41 854.03,-299.51 862.37,-306.04 864.62,-299.41"/>
</g>
<!-- Node33&#45;&gt;Node5 -->
<g id="edge50" class="edge">
<title>Node33&#45;&gt;Node5</title>
<path fill="none" stroke="midnightblue" d="M1015.3,-224.37C1039.8,-205.65 1098.06,-161.15 1128.58,-137.83"/>
<polygon fill="midnightblue" stroke="midnightblue" points="1130.93,-140.44 1136.75,-131.59 1126.68,-134.88 1130.93,-140.44"/>
</g>
<!-- Node33&#45;&gt;Node27 -->
<g id="edge49" class="edge">
<title>Node33&#45;&gt;Node27</title>
<path fill="none" stroke="midnightblue" d="M932.38,-224.44C851.05,-214.73 718.63,-198.91 633.43,-188.73"/>
<polygon fill="midnightblue" stroke="midnightblue" points="633.63,-185.23 623.29,-187.52 632.8,-192.18 633.63,-185.23"/>
</g>
<!-- Node34&#45;&gt;Node5 -->
<g id="edge52" class="edge">
<title>Node34&#45;&gt;Node5</title>
<path fill="none" stroke="midnightblue" d="M898.25,-284.3C965.43,-278.49 1061.43,-266.49 1091,-244 1124.31,-218.66 1138.97,-169.02 1144.73,-141.86"/>
<polygon fill="midnightblue" stroke="midnightblue" points="1148.23,-142.21 1146.68,-131.73 1141.35,-140.89 1148.23,-142.21"/>
</g>
<!-- Node34&#45;&gt;Node27 -->
<g id="edge57" class="edge">
<title>Node34&#45;&gt;Node27</title>
<path fill="none" stroke="midnightblue" d="M807.26,-280.37C758.42,-260.97 639.81,-213.87 583.14,-191.37"/>
<polygon fill="midnightblue" stroke="midnightblue" points="584.22,-188.03 573.63,-187.59 581.64,-194.54 584.22,-188.03"/>
</g>
<!-- Node34&#45;&gt;Node30 -->
<g id="edge53" class="edge">
<title>Node34&#45;&gt;Node30</title>
<path fill="none" stroke="midnightblue" d="M782.57,-280.44C730.92,-270.92 647.49,-255.55 592.19,-245.36"/>
<polygon fill="midnightblue" stroke="midnightblue" points="592.68,-241.89 582.21,-243.52 591.41,-248.77 592.68,-241.89"/>
</g>
<!-- Node35 -->
<g id="node35" class="node">
<title>Node35</title>
<g id="a_node35"><a xlink:href="RotationRaw_8h.html" target="_top" xlink:title=" ">
<polygon fill="none" stroke="black" points="750,-224.5 750,-243.5 908,-243.5 908,-224.5 750,-224.5"/>
<text text-anchor="middle" x="829" y="-231.5" font-family="FreeSans.ttf" font-size="10.00">iDynTree/Core/RotationRaw.h</text>
</a>
</g>
</g>
<!-- Node34&#45;&gt;Node35 -->
<g id="edge54" class="edge">
<title>Node34&#45;&gt;Node35</title>
<path fill="none" stroke="midnightblue" d="M829,-280.08C829,-273.01 829,-262.86 829,-253.99"/>
<polygon fill="midnightblue" stroke="midnightblue" points="832.5,-253.75 829,-243.75 825.5,-253.75 832.5,-253.75"/>
</g>
<!-- Node35&#45;&gt;Node5 -->
<g id="edge56" class="edge">
<title>Node35&#45;&gt;Node5</title>
<path fill="none" stroke="midnightblue" d="M853.77,-224.46C911.01,-204.72 1052.47,-155.94 1116.1,-134"/>
<polygon fill="midnightblue" stroke="midnightblue" points="1117.3,-137.29 1125.61,-130.72 1115.02,-130.67 1117.3,-137.29"/>
</g>
<!-- Node35&#45;&gt;Node11 -->
<g id="edge55" class="edge">
<title>Node35&#45;&gt;Node11</title>
<path fill="none" stroke="midnightblue" d="M815.83,-224.32C803.15,-215.98 783.77,-203.21 768.79,-193.35"/>
<polygon fill="midnightblue" stroke="midnightblue" points="770.42,-190.23 760.14,-187.65 766.57,-196.08 770.42,-190.23"/>
</g>
<!-- Node37 -->
<g id="node37" class="node">
<title>Node37</title>
<g id="a_node37"><a xlink:href="SpatialForceVector_8h.html" target="_top" xlink:title=" ">
<polygon fill="none" stroke="black" points="200,-459.5 200,-489.5 348,-489.5 348,-459.5 200,-459.5"/>
<text text-anchor="start" x="208" y="-477.5" font-family="FreeSans.ttf" font-size="10.00">iDynTree/Core/SpatialForce</text>
<text text-anchor="middle" x="274" y="-466.5" font-family="FreeSans.ttf" font-size="10.00">Vector.h</text>
</a>
</g>
</g>
<!-- Node36&#45;&gt;Node37 -->
<g id="edge65" class="edge">
<title>Node36&#45;&gt;Node37</title>
<path fill="none" stroke="midnightblue" d="M281.79,-531.73C280.65,-523.54 278.9,-510.92 277.35,-499.71"/>
<polygon fill="midnightblue" stroke="midnightblue" points="280.79,-499.01 275.95,-489.59 273.86,-499.97 280.79,-499.01"/>
</g>
<!-- Node37&#45;&gt;Node27 -->
<g id="edge66" class="edge">
<title>Node37&#45;&gt;Node27</title>
<path fill="none" stroke="midnightblue" d="M277.82,-459.23C289.89,-416.82 331.33,-290.35 412,-224 432.45,-207.18 459.32,-196.6 484.04,-189.97"/>
<polygon fill="midnightblue" stroke="midnightblue" points="484.9,-193.36 493.75,-187.53 483.2,-186.57 484.9,-193.36"/>
</g>
<!-- Node37&#45;&gt;Node30 -->
<g id="edge67" class="edge">
<title>Node37&#45;&gt;Node30</title>
<path fill="none" stroke="midnightblue" d="M289.6,-459.29C335.64,-417.39 470.68,-294.46 518.76,-250.69"/>
<polygon fill="midnightblue" stroke="midnightblue" points="521.4,-253.02 526.44,-243.7 516.69,-247.85 521.4,-253.02"/>
</g>
<!-- Node37&#45;&gt;Node31 -->
<g id="edge68" class="edge">
<title>Node37&#45;&gt;Node31</title>
<path fill="none" stroke="midnightblue" d="M330.34,-459.47C372.65,-448.94 429.79,-434.72 468.82,-425"/>
<polygon fill="midnightblue" stroke="midnightblue" points="469.97,-428.32 478.83,-422.51 468.28,-421.53 469.97,-428.32"/>
</g>
<!-- Node38&#45;&gt;Node29 -->
<g id="edge70" class="edge">
<title>Node38&#45;&gt;Node29</title>
<path fill="none" stroke="midnightblue" d="M642.76,-531.73C639.68,-523.37 634.89,-510.4 630.69,-499.02"/>
<polygon fill="midnightblue" stroke="midnightblue" points="633.95,-497.76 627.2,-489.59 627.38,-500.18 633.95,-497.76"/>
</g>
<!-- Node39&#45;&gt;Node37 -->
<g id="edge72" class="edge">
<title>Node39&#45;&gt;Node37</title>
<path fill="none" stroke="midnightblue" d="M94.49,-531.87C126.29,-521.88 179.43,-505.2 219.66,-492.56"/>
<polygon fill="midnightblue" stroke="midnightblue" points="220.83,-495.86 229.33,-489.53 218.74,-489.18 220.83,-495.86"/>
</g>
<!-- Node40&#45;&gt;Node5 -->
<g id="edge78" class="edge">
<title>Node40&#45;&gt;Node5</title>
<path fill="none" stroke="midnightblue" d="M1137.9,-403.49C1166,-386.2 1224,-344.09 1224,-291 1224,-291 1224,-291 1224,-233 1224,-193.28 1190.04,-157.5 1167.52,-138.15"/>
<polygon fill="midnightblue" stroke="midnightblue" points="1169.48,-135.24 1159.54,-131.57 1165.02,-140.63 1169.48,-135.24"/>
</g>
<!-- Node40&#45;&gt;Node11 -->
<g id="edge77" class="edge">
<title>Node40&#45;&gt;Node11</title>
<path fill="none" stroke="midnightblue" d="M1124.67,-403.3C1129.89,-373.34 1142.53,-273.58 1091,-224 1056,-190.32 928.56,-181.22 839.05,-179.09"/>
<polygon fill="midnightblue" stroke="midnightblue" points="838.95,-175.59 828.88,-178.88 838.8,-182.59 838.95,-175.59"/>
</g>
<!-- Node40&#45;&gt;Node32 -->
<g id="edge75" class="edge">
<title>Node40&#45;&gt;Node32</title>
<path fill="none" stroke="midnightblue" d="M1105.95,-403.48C1086.16,-393.58 1053.28,-377.14 1030.23,-365.62"/>
<polygon fill="midnightblue" stroke="midnightblue" points="1031.53,-362.35 1021.02,-361.01 1028.4,-368.61 1031.53,-362.35"/>
</g>
<!-- Node40&#45;&gt;Node34 -->
<g id="edge76" class="edge">
<title>Node40&#45;&gt;Node34</title>
<path fill="none" stroke="midnightblue" d="M1082.04,-403.5C1048.93,-395.93 1001.5,-383.51 962,-367 920.48,-349.65 875.74,-322.03 850.17,-305.3"/>
<polygon fill="midnightblue" stroke="midnightblue" points="851.94,-302.27 841.67,-299.66 848.07,-308.1 851.94,-302.27"/>
</g>
<!-- Node41&#45;&gt;Node3 -->
<g id="edge85" class="edge">
<title>Node41&#45;&gt;Node3</title>
<path fill="none" stroke="midnightblue" d="M1263.56,-649.44C1223.6,-640.06 1159.41,-624.99 1116.02,-614.8"/>
<polygon fill="midnightblue" stroke="midnightblue" points="1116.81,-611.39 1106.27,-612.52 1115.21,-618.21 1116.81,-611.39"/>
</g>
<!-- Node41&#45;&gt;Node5 -->
<g id="edge82" class="edge">
<title>Node41&#45;&gt;Node5</title>
<path fill="none" stroke="midnightblue" d="M1300,-649.31C1300,-630.06 1300,-582.4 1300,-542.5 1300,-542.5 1300,-542.5 1300,-233 1300,-174.22 1224.48,-143.65 1179.91,-130.73"/>
<polygon fill="midnightblue" stroke="midnightblue" points="1180.67,-127.31 1170.1,-128.03 1178.81,-134.06 1180.67,-127.31"/>
</g>
<!-- Node41&#45;&gt;Node40 -->
<g id="edge84" class="edge">
<title>Node41&#45;&gt;Node40</title>
<path fill="none" stroke="midnightblue" d="M1296.56,-649.12C1283.04,-614.6 1232.96,-489.68 1204,-459 1190.83,-445.05 1172.36,-434.33 1156.37,-426.86"/>
<polygon fill="midnightblue" stroke="midnightblue" points="1157.38,-423.48 1146.81,-422.63 1154.54,-429.88 1157.38,-423.48"/>
</g>
<!-- Node41&#45;&gt;Node42 -->
<g id="edge81" class="edge">
<title>Node41&#45;&gt;Node42</title>
<path fill="none" stroke="midnightblue" d="M1310.76,-649.32C1320.77,-641.26 1335.89,-629.08 1347.93,-619.37"/>
<polygon fill="midnightblue" stroke="midnightblue" points="1350.45,-621.83 1356.04,-612.83 1346.06,-616.38 1350.45,-621.83"/>
</g>
<!-- Node41&#45;&gt;Node43 -->
<g id="edge83" class="edge">
<title>Node41&#45;&gt;Node43</title>
<path fill="none" stroke="midnightblue" d="M1322.18,-649.44C1345.43,-640.48 1382.15,-626.31 1408.42,-616.18"/>
<polygon fill="midnightblue" stroke="midnightblue" points="1409.85,-619.38 1417.92,-612.52 1407.33,-612.85 1409.85,-619.38"/>
</g>
</g>
</svg>
