<?xml version="1.0" encoding="UTF-8" standalone="no"?>
<!DOCTYPE svg PUBLIC "-//W3C//DTD SVG 1.1//EN"
 "http://www.w3.org/Graphics/SVG/1.1/DTD/svg11.dtd">
<!-- Generated by graphviz version 2.43.0 (0)
 -->
<!-- Title: ModelLoader.h Pages: 1 -->
<svg width="1969pt" height="151pt"
 viewBox="0.00 0.00 1968.50 151.00" xmlns="http://www.w3.org/2000/svg" xmlns:xlink="http://www.w3.org/1999/xlink">
<g id="graph0" class="graph" transform="scale(1 1) rotate(0) translate(4 147)">
<title>ModelLoader.h</title>
<!-- Node1 -->
<g id="node1" class="node">
<title>Node1</title>
<g id="a_node1"><a xlink:title=" ">
<polygon fill="#bfbfbf" stroke="black" points="945,-123.5 945,-142.5 1033,-142.5 1033,-123.5 945,-123.5"/>
<text text-anchor="middle" x="989" y="-130.5" font-family="FreeSans.ttf" font-size="10.00">ModelLoader.h</text>
</a>
</g>
</g>
<!-- Node2 -->
<g id="node2" class="node">
<title>Node2</title>
<g id="a_node2"><a xlink:href="ExtWrenchesAndJointTorquesEstimator_8cpp.html" target="_top" xlink:title=" ">
<polygon fill="none" stroke="black" points="0,-56.5 0,-86.5 158,-86.5 158,-56.5 0,-56.5"/>
<text text-anchor="start" x="8" y="-74.5" font-family="FreeSans.ttf" font-size="10.00">ExtWrenchesAndJointTorques</text>
<text text-anchor="middle" x="79" y="-63.5" font-family="FreeSans.ttf" font-size="10.00">Estimator.cpp</text>
</a>
</g>
</g>
<!-- Node1&#45;&gt;Node2 -->
<g id="edge1" class="edge">
<title>Node1&#45;&gt;Node2</title>
<path fill="none" stroke="midnightblue" d="M934.51,-131.06C802.47,-128.34 455.07,-118.52 167,-87 164.08,-86.68 161.1,-86.33 158.1,-85.95"/>
<polygon fill="midnightblue" stroke="midnightblue" points="934.69,-134.57 944.75,-131.27 934.83,-127.57 934.69,-134.57"/>
</g>
<!-- Node3 -->
<g id="node3" class="node">
<title>Node3</title>
<g id="a_node3"><a xlink:href="SimpleLeggedOdometry_8cpp.html" target="_top" xlink:title=" ">
<polygon fill="none" stroke="black" points="176.5,-62 176.5,-81 329.5,-81 329.5,-62 176.5,-62"/>
<text text-anchor="middle" x="253" y="-69" font-family="FreeSans.ttf" font-size="10.00">SimpleLeggedOdometry.cpp</text>
</a>
</g>
</g>
<!-- Node1&#45;&gt;Node3 -->
<g id="edge2" class="edge">
<title>Node1&#45;&gt;Node3</title>
<path fill="none" stroke="midnightblue" d="M934.71,-130.04C822.91,-125.61 559.04,-113.1 339,-87 325.77,-85.43 311.47,-83.23 298.41,-81.01"/>
<polygon fill="midnightblue" stroke="midnightblue" points="934.6,-133.54 944.73,-130.43 934.87,-126.54 934.6,-133.54"/>
</g>
<!-- Node4 -->
<g id="node4" class="node">
<title>Node4</title>
<g id="a_node4"><a xlink:href="KinDynComputations_8cpp.html" target="_top" xlink:title=" ">
<polygon fill="none" stroke="black" points="348,-62 348,-81 488,-81 488,-62 348,-62"/>
<text text-anchor="middle" x="418" y="-69" font-family="FreeSans.ttf" font-size="10.00">KinDynComputations.cpp</text>
</a>
</g>
</g>
<!-- Node1&#45;&gt;Node4 -->
<g id="edge3" class="edge">
<title>Node1&#45;&gt;Node4</title>
<path fill="none" stroke="midnightblue" d="M934.68,-128.64C843.81,-122.66 655.33,-108.73 497,-87 485.12,-85.37 472.31,-83.2 460.53,-81.03"/>
<polygon fill="midnightblue" stroke="midnightblue" points="934.54,-132.14 944.75,-129.3 934.99,-125.15 934.54,-132.14"/>
</g>
<!-- Node5 -->
<g id="node5" class="node">
<title>Node5</title>
<g id="a_node5"><a xlink:href="InverseKinematicsData_8cpp.html" target="_top" xlink:title=" ">
<polygon fill="none" stroke="black" points="506.5,-62 506.5,-81 657.5,-81 657.5,-62 506.5,-62"/>
<text text-anchor="middle" x="582" y="-69" font-family="FreeSans.ttf" font-size="10.00">InverseKinematicsData.cpp</text>
</a>
</g>
</g>
<!-- Node1&#45;&gt;Node5 -->
<g id="edge4" class="edge">
<title>Node1&#45;&gt;Node5</title>
<path fill="none" stroke="midnightblue" d="M934.73,-124.61C871.57,-115.94 764.15,-100.96 672,-87 659.64,-85.13 646.34,-83.03 633.85,-81.02"/>
<polygon fill="midnightblue" stroke="midnightblue" points="934.48,-128.11 944.86,-126 935.43,-121.17 934.48,-128.11"/>
</g>
<!-- Node6 -->
<g id="node6" class="node">
<title>Node6</title>
<g id="a_node6"><a xlink:href="URDFDocument_8h.html" target="_top" xlink:title=" ">
<polygon fill="none" stroke="black" points="714,-62 714,-81 818,-81 818,-62 714,-62"/>
<text text-anchor="middle" x="766" y="-69" font-family="FreeSans.ttf" font-size="10.00">URDFDocument.h</text>
</a>
</g>
</g>
<!-- Node1&#45;&gt;Node6 -->
<g id="edge5" class="edge">
<title>Node1&#45;&gt;Node6</title>
<path fill="none" stroke="midnightblue" d="M947.38,-120.9C904.07,-109.34 837.19,-91.5 797.89,-81.01"/>
<polygon fill="midnightblue" stroke="midnightblue" points="946.49,-124.28 957.05,-123.48 948.29,-117.52 946.49,-124.28"/>
</g>
<!-- Node7 -->
<g id="node7" class="node">
<title>Node7</title>
<g id="a_node7"><a xlink:href="ModelLoader_8cpp.html" target="_top" xlink:title=" ">
<polygon fill="none" stroke="black" points="636.5,-0.5 636.5,-19.5 735.5,-19.5 735.5,-0.5 636.5,-0.5"/>
<text text-anchor="middle" x="686" y="-7.5" font-family="FreeSans.ttf" font-size="10.00">ModelLoader.cpp</text>
</a>
</g>
</g>
<!-- Node1&#45;&gt;Node7 -->
<g id="edge9" class="edge">
<title>Node1&#45;&gt;Node7</title>
<path fill="none" stroke="midnightblue" d="M934.51,-130.34C861.6,-126.99 737.68,-116.93 705,-87 685.74,-69.36 684.68,-35.43 685.36,-19.57"/>
<polygon fill="midnightblue" stroke="midnightblue" points="934.73,-133.86 944.88,-130.79 935.04,-126.86 934.73,-133.86"/>
</g>
<!-- Node9 -->
<g id="node9" class="node">
<title>Node9</title>
<g id="a_node9"><a xlink:href="ModelCalibrationHelper_8cpp.html" target="_top" xlink:title=" ">
<polygon fill="none" stroke="black" points="836,-62 836,-81 988,-81 988,-62 836,-62"/>
<text text-anchor="middle" x="912" y="-69" font-family="FreeSans.ttf" font-size="10.00">ModelCalibrationHelper.cpp</text>
</a>
</g>
</g>
<!-- Node1&#45;&gt;Node9 -->
<g id="edge8" class="edge">
<title>Node1&#45;&gt;Node9</title>
<path fill="none" stroke="midnightblue" d="M969.97,-117.29C955.2,-105.88 935.24,-90.46 923.01,-81.01"/>
<polygon fill="midnightblue" stroke="midnightblue" points="967.91,-120.13 977.97,-123.48 972.19,-114.59 967.91,-120.13"/>
</g>
<!-- Node10 -->
<g id="node10" class="node">
<title>Node10</title>
<g id="a_node10"><a xlink:href="URDFDofsImport_8cpp.html" target="_top" xlink:title=" ">
<polygon fill="none" stroke="black" points="1006.5,-62 1006.5,-81 1125.5,-81 1125.5,-62 1006.5,-62"/>
<text text-anchor="middle" x="1066" y="-69" font-family="FreeSans.ttf" font-size="10.00">URDFDofsImport.cpp</text>
</a>
</g>
</g>
<!-- Node1&#45;&gt;Node10 -->
<g id="edge10" class="edge">
<title>Node1&#45;&gt;Node10</title>
<path fill="none" stroke="midnightblue" d="M1008.03,-117.29C1022.8,-105.88 1042.76,-90.46 1054.99,-81.01"/>
<polygon fill="midnightblue" stroke="midnightblue" points="1005.81,-114.59 1000.03,-123.48 1010.09,-120.13 1005.81,-114.59"/>
</g>
<!-- Node11 -->
<g id="node11" class="node">
<title>Node11</title>
<g id="a_node11"><a xlink:href="idyntree-model-info_8cpp.html" target="_top" xlink:title=" ">
<polygon fill="none" stroke="black" points="1144,-62 1144,-81 1278,-81 1278,-62 1144,-62"/>
<text text-anchor="middle" x="1211" y="-69" font-family="FreeSans.ttf" font-size="10.00">idyntree&#45;model&#45;info.cpp</text>
</a>
</g>
</g>
<!-- Node1&#45;&gt;Node11 -->
<g id="edge11" class="edge">
<title>Node1&#45;&gt;Node11</title>
<path fill="none" stroke="midnightblue" d="M1030.7,-120.82C1073.83,-109.26 1140.21,-91.47 1179.25,-81.01"/>
<polygon fill="midnightblue" stroke="midnightblue" points="1029.56,-117.51 1020.81,-123.48 1031.37,-124.27 1029.56,-117.51"/>
</g>
<!-- Node12 -->
<g id="node12" class="node">
<title>Node12</title>
<g id="a_node12"><a xlink:href="idyntree-model-simplify-shapes_8cpp.html" target="_top" xlink:title=" ">
<polygon fill="none" stroke="black" points="1296,-56.5 1296,-86.5 1430,-86.5 1430,-56.5 1296,-56.5"/>
<text text-anchor="start" x="1304" y="-74.5" font-family="FreeSans.ttf" font-size="10.00">idyntree&#45;model&#45;simplify</text>
<text text-anchor="middle" x="1363" y="-63.5" font-family="FreeSans.ttf" font-size="10.00">&#45;shapes.cpp</text>
</a>
</g>
</g>
<!-- Node1&#45;&gt;Node12 -->
<g id="edge12" class="edge">
<title>Node1&#45;&gt;Node12</title>
<path fill="none" stroke="midnightblue" d="M1042.98,-124.49C1102.76,-116.02 1201.92,-101.53 1287,-87 1289.91,-86.5 1292.89,-85.98 1295.89,-85.45"/>
<polygon fill="midnightblue" stroke="midnightblue" points="1042.43,-121.03 1033.01,-125.9 1043.4,-127.96 1042.43,-121.03"/>
</g>
<!-- Node13 -->
<g id="node13" class="node">
<title>Node13</title>
<g id="a_node13"><a xlink:href="idyntree-model-view_8cpp.html" target="_top" xlink:title=" ">
<polygon fill="none" stroke="black" points="1448.5,-62 1448.5,-81 1585.5,-81 1585.5,-62 1448.5,-62"/>
<text text-anchor="middle" x="1517" y="-69" font-family="FreeSans.ttf" font-size="10.00">idyntree&#45;model&#45;view.cpp</text>
</a>
</g>
</g>
<!-- Node1&#45;&gt;Node13 -->
<g id="edge13" class="edge">
<title>Node1&#45;&gt;Node13</title>
<path fill="none" stroke="midnightblue" d="M1043.38,-128.05C1128.16,-121.55 1296.86,-107.28 1439,-87 1450.59,-85.35 1463.08,-83.19 1474.6,-81.05"/>
<polygon fill="midnightblue" stroke="midnightblue" points="1042.93,-124.57 1033.22,-128.82 1043.46,-131.55 1042.93,-124.57"/>
</g>
<!-- Node14 -->
<g id="node14" class="node">
<title>Node14</title>
<g id="a_node14"><a xlink:href="ObserverThread_8cpp.html" target="_top" xlink:title=" ">
<polygon fill="none" stroke="black" points="1603.5,-62 1603.5,-81 1718.5,-81 1718.5,-62 1603.5,-62"/>
<text text-anchor="middle" x="1661" y="-69" font-family="FreeSans.ttf" font-size="10.00">ObserverThread.cpp</text>
</a>
</g>
</g>
<!-- Node1&#45;&gt;Node14 -->
<g id="edge14" class="edge">
<title>Node1&#45;&gt;Node14</title>
<path fill="none" stroke="midnightblue" d="M1043.52,-130.55C1150.01,-127.14 1392.95,-116.54 1595,-87 1605.33,-85.49 1616.46,-83.28 1626.57,-81.03"/>
<polygon fill="midnightblue" stroke="midnightblue" points="1043.22,-127.05 1033.34,-130.86 1043.44,-134.05 1043.22,-127.05"/>
</g>
<!-- Node15 -->
<g id="node15" class="node">
<title>Node15</title>
<g id="a_node15"><a xlink:href="urdf2dh_8cpp.html" target="_top" xlink:title=" ">
<polygon fill="none" stroke="black" points="1737,-62 1737,-81 1811,-81 1811,-62 1737,-62"/>
<text text-anchor="middle" x="1774" y="-69" font-family="FreeSans.ttf" font-size="10.00">urdf2dh.cpp</text>
</a>
</g>
</g>
<!-- Node1&#45;&gt;Node15 -->
<g id="edge15" class="edge">
<title>Node1&#45;&gt;Node15</title>
<path fill="none" stroke="midnightblue" d="M1043.32,-130.41C1190.82,-125.83 1596.55,-111.34 1728,-87 1735.57,-85.6 1743.65,-83.33 1750.88,-81"/>
<polygon fill="midnightblue" stroke="midnightblue" points="1043.04,-126.92 1033.15,-130.73 1043.26,-133.92 1043.04,-126.92"/>
</g>
<!-- Node16 -->
<g id="node16" class="node">
<title>Node16</title>
<g id="a_node16"><a xlink:href="robotstatepublisher_8cpp.html" target="_top" xlink:title=" ">
<polygon fill="none" stroke="black" points="1829.5,-62 1829.5,-81 1960.5,-81 1960.5,-62 1829.5,-62"/>
<text text-anchor="middle" x="1895" y="-69" font-family="FreeSans.ttf" font-size="10.00">robotstatepublisher.cpp</text>
</a>
</g>
</g>
<!-- Node1&#45;&gt;Node16 -->
<g id="edge16" class="edge">
<title>Node1&#45;&gt;Node16</title>
<path fill="none" stroke="midnightblue" d="M1043.67,-131.62C1176.93,-130.14 1528.9,-122.85 1820,-87 1831.85,-85.54 1844.63,-83.32 1856.23,-81.04"/>
<polygon fill="midnightblue" stroke="midnightblue" points="1043.29,-128.13 1033.33,-131.73 1043.37,-135.13 1043.29,-128.13"/>
</g>
<!-- Node6&#45;&gt;Node7 -->
<g id="edge6" class="edge">
<title>Node6&#45;&gt;Node7</title>
<path fill="none" stroke="midnightblue" d="M746.23,-55.79C730.88,-44.38 710.14,-28.96 697.44,-19.51"/>
<polygon fill="midnightblue" stroke="midnightblue" points="744.43,-58.82 754.54,-61.98 748.6,-53.2 744.43,-58.82"/>
</g>
<!-- Node8 -->
<g id="node8" class="node">
<title>Node8</title>
<g id="a_node8"><a xlink:href="URDFDocument_8cpp.html" target="_top" xlink:title=" ">
<polygon fill="none" stroke="black" points="753.5,-0.5 753.5,-19.5 868.5,-19.5 868.5,-0.5 753.5,-0.5"/>
<text text-anchor="middle" x="811" y="-7.5" font-family="FreeSans.ttf" font-size="10.00">URDFDocument.cpp</text>
</a>
</g>
</g>
<!-- Node6&#45;&gt;Node8 -->
<g id="edge7" class="edge">
<title>Node6&#45;&gt;Node8</title>
<path fill="none" stroke="midnightblue" d="M778.6,-53.84C787.05,-42.67 797.82,-28.43 804.56,-19.51"/>
<polygon fill="midnightblue" stroke="midnightblue" points="775.69,-51.89 772.45,-61.98 781.27,-56.11 775.69,-51.89"/>
</g>
</g>
</svg>
