<?xml version="1.0" encoding="UTF-8" standalone="no"?>
<!DOCTYPE svg PUBLIC "-//W3C//DTD SVG 1.1//EN"
 "http://www.w3.org/Graphics/SVG/1.1/DTD/svg11.dtd">
<!-- Generated by graphviz version 2.43.0 (0)
 -->
<!-- Title: ModelLoader.h Pages: 1 -->
<svg width="1817pt" height="151pt"
 viewBox="0.00 0.00 1816.50 151.00" xmlns="http://www.w3.org/2000/svg" xmlns:xlink="http://www.w3.org/1999/xlink">
<g id="graph0" class="graph" transform="scale(1 1) rotate(0) translate(4 147)">
<title>ModelLoader.h</title>
<!-- Node1 -->
<g id="node1" class="node">
<title>Node1</title>
<g id="a_node1"><a xlink:title=" ">
<polygon fill="#bfbfbf" stroke="black" points="868,-123.5 868,-142.5 956,-142.5 956,-123.5 868,-123.5"/>
<text text-anchor="middle" x="912" y="-130.5" font-family="FreeSans.ttf" font-size="10.00">ModelLoader.h</text>
</a>
</g>
</g>
<!-- Node2 -->
<g id="node2" class="node">
<title>Node2</title>
<g id="a_node2"><a xlink:href="ExtWrenchesAndJointTorquesEstimator_8cpp.html" target="_top" xlink:title=" ">
<polygon fill="none" stroke="black" points="0,-56.5 0,-86.5 158,-86.5 158,-56.5 0,-56.5"/>
<text text-anchor="start" x="8" y="-74.5" font-family="FreeSans.ttf" font-size="10.00">ExtWrenchesAndJointTorques</text>
<text text-anchor="middle" x="79" y="-63.5" font-family="FreeSans.ttf" font-size="10.00">Estimator.cpp</text>
</a>
</g>
</g>
<!-- Node1&#45;&gt;Node2 -->
<g id="edge1" class="edge">
<title>Node1&#45;&gt;Node2</title>
<path fill="none" stroke="midnightblue" d="M857.48,-130.63C734.14,-127.11 424.43,-115.91 167,-87 164.08,-86.67 161.1,-86.31 158.1,-85.93"/>
<polygon fill="midnightblue" stroke="midnightblue" points="857.69,-134.14 867.78,-130.92 857.88,-127.14 857.69,-134.14"/>
</g>
<!-- Node3 -->
<g id="node3" class="node">
<title>Node3</title>
<g id="a_node3"><a xlink:href="SimpleLeggedOdometry_8cpp.html" target="_top" xlink:title=" ">
<polygon fill="none" stroke="black" points="176.5,-62 176.5,-81 329.5,-81 329.5,-62 176.5,-62"/>
<text text-anchor="middle" x="253" y="-69" font-family="FreeSans.ttf" font-size="10.00">SimpleLeggedOdometry.cpp</text>
</a>
</g>
</g>
<!-- Node1&#45;&gt;Node3 -->
<g id="edge2" class="edge">
<title>Node1&#45;&gt;Node3</title>
<path fill="none" stroke="midnightblue" d="M857.59,-129.34C755.6,-123.99 528.82,-110.41 339,-87 325.93,-85.39 311.81,-83.2 298.86,-81.01"/>
<polygon fill="midnightblue" stroke="midnightblue" points="857.48,-132.84 867.65,-129.86 857.85,-125.85 857.48,-132.84"/>
</g>
<!-- Node4 -->
<g id="node4" class="node">
<title>Node4</title>
<g id="a_node4"><a xlink:href="KinDynComputations_8cpp.html" target="_top" xlink:title=" ">
<polygon fill="none" stroke="black" points="348,-62 348,-81 488,-81 488,-62 348,-62"/>
<text text-anchor="middle" x="418" y="-69" font-family="FreeSans.ttf" font-size="10.00">KinDynComputations.cpp</text>
</a>
</g>
</g>
<!-- Node1&#45;&gt;Node4 -->
<g id="edge3" class="edge">
<title>Node1&#45;&gt;Node4</title>
<path fill="none" stroke="midnightblue" d="M857.7,-127.4C778.27,-120.37 625.86,-105.79 497,-87 485.41,-85.31 472.92,-83.17 461.37,-81.05"/>
<polygon fill="midnightblue" stroke="midnightblue" points="857.68,-130.91 867.95,-128.3 858.29,-123.93 857.68,-130.91"/>
</g>
<!-- Node5 -->
<g id="node5" class="node">
<title>Node5</title>
<g id="a_node5"><a xlink:href="InverseKinematicsData_8cpp.html" target="_top" xlink:title=" ">
<polygon fill="none" stroke="black" points="506.5,-62 506.5,-81 657.5,-81 657.5,-62 506.5,-62"/>
<text text-anchor="middle" x="582" y="-69" font-family="FreeSans.ttf" font-size="10.00">InverseKinematicsData.cpp</text>
</a>
</g>
</g>
<!-- Node1&#45;&gt;Node5 -->
<g id="edge4" class="edge">
<title>Node1&#45;&gt;Node5</title>
<path fill="none" stroke="midnightblue" d="M857.61,-122.19C794.01,-110.73 689.78,-91.93 629.37,-81.04"/>
<polygon fill="midnightblue" stroke="midnightblue" points="857.37,-125.71 867.84,-124.04 858.62,-118.82 857.37,-125.71"/>
</g>
<!-- Node6 -->
<g id="node6" class="node">
<title>Node6</title>
<g id="a_node6"><a xlink:href="URDFDocument_8h.html" target="_top" xlink:title=" ">
<polygon fill="none" stroke="black" points="714,-62 714,-81 818,-81 818,-62 714,-62"/>
<text text-anchor="middle" x="766" y="-69" font-family="FreeSans.ttf" font-size="10.00">URDFDocument.h</text>
</a>
</g>
</g>
<!-- Node1&#45;&gt;Node6 -->
<g id="edge5" class="edge">
<title>Node1&#45;&gt;Node6</title>
<path fill="none" stroke="midnightblue" d="M881.65,-119.63C853.29,-108.07 811.69,-91.12 786.88,-81.01"/>
<polygon fill="midnightblue" stroke="midnightblue" points="880.5,-122.94 891.08,-123.48 883.14,-116.46 880.5,-122.94"/>
</g>
<!-- Node7 -->
<g id="node7" class="node">
<title>Node7</title>
<g id="a_node7"><a xlink:href="ModelLoader_8cpp.html" target="_top" xlink:title=" ">
<polygon fill="none" stroke="black" points="636.5,-0.5 636.5,-19.5 735.5,-19.5 735.5,-0.5 636.5,-0.5"/>
<text text-anchor="middle" x="686" y="-7.5" font-family="FreeSans.ttf" font-size="10.00">ModelLoader.cpp</text>
</a>
</g>
</g>
<!-- Node1&#45;&gt;Node7 -->
<g id="edge9" class="edge">
<title>Node1&#45;&gt;Node7</title>
<path fill="none" stroke="midnightblue" d="M857.47,-126.65C803.65,-120.26 726.39,-107.74 705,-87 686.35,-68.92 684.95,-35.51 685.45,-19.71"/>
<polygon fill="midnightblue" stroke="midnightblue" points="857.23,-130.14 867.57,-127.81 858.03,-123.19 857.23,-130.14"/>
</g>
<!-- Node9 -->
<g id="node9" class="node">
<title>Node9</title>
<g id="a_node9"><a xlink:href="ModelCalibrationHelper_8cpp.html" target="_top" xlink:title=" ">
<polygon fill="none" stroke="black" points="836,-62 836,-81 988,-81 988,-62 836,-62"/>
<text text-anchor="middle" x="912" y="-69" font-family="FreeSans.ttf" font-size="10.00">ModelCalibrationHelper.cpp</text>
</a>
</g>
</g>
<!-- Node1&#45;&gt;Node9 -->
<g id="edge8" class="edge">
<title>Node1&#45;&gt;Node9</title>
<path fill="none" stroke="midnightblue" d="M912,-113.32C912,-102.5 912,-89.4 912,-81.01"/>
<polygon fill="midnightblue" stroke="midnightblue" points="908.5,-113.48 912,-123.48 915.5,-113.48 908.5,-113.48"/>
</g>
<!-- Node10 -->
<g id="node10" class="node">
<title>Node10</title>
<g id="a_node10"><a xlink:href="URDFDofsImport_8cpp.html" target="_top" xlink:title=" ">
<polygon fill="none" stroke="black" points="1006.5,-62 1006.5,-81 1125.5,-81 1125.5,-62 1006.5,-62"/>
<text text-anchor="middle" x="1066" y="-69" font-family="FreeSans.ttf" font-size="10.00">URDFDofsImport.cpp</text>
</a>
</g>
</g>
<!-- Node1&#45;&gt;Node10 -->
<g id="edge10" class="edge">
<title>Node1&#45;&gt;Node10</title>
<path fill="none" stroke="midnightblue" d="M943.62,-119.78C973.55,-108.22 1017.69,-91.16 1043.98,-81.01"/>
<polygon fill="midnightblue" stroke="midnightblue" points="942.13,-116.61 934.06,-123.48 944.65,-123.14 942.13,-116.61"/>
</g>
<!-- Node11 -->
<g id="node11" class="node">
<title>Node11</title>
<g id="a_node11"><a xlink:href="idyntree-model-info_8cpp.html" target="_top" xlink:title=" ">
<polygon fill="none" stroke="black" points="1144,-62 1144,-81 1278,-81 1278,-62 1144,-62"/>
<text text-anchor="middle" x="1211" y="-69" font-family="FreeSans.ttf" font-size="10.00">idyntree&#45;model&#45;info.cpp</text>
</a>
</g>
</g>
<!-- Node1&#45;&gt;Node11 -->
<g id="edge11" class="edge">
<title>Node1&#45;&gt;Node11</title>
<path fill="none" stroke="midnightblue" d="M964.9,-121.47C1022.84,-109.94 1114.66,-91.67 1168.24,-81.01"/>
<polygon fill="midnightblue" stroke="midnightblue" points="963.96,-118.09 954.84,-123.48 965.33,-124.96 963.96,-118.09"/>
</g>
<!-- Node12 -->
<g id="node12" class="node">
<title>Node12</title>
<g id="a_node12"><a xlink:href="idyntree-model-view_8cpp.html" target="_top" xlink:title=" ">
<polygon fill="none" stroke="black" points="1296.5,-62 1296.5,-81 1433.5,-81 1433.5,-62 1296.5,-62"/>
<text text-anchor="middle" x="1365" y="-69" font-family="FreeSans.ttf" font-size="10.00">idyntree&#45;model&#45;view.cpp</text>
</a>
</g>
</g>
<!-- Node1&#45;&gt;Node12 -->
<g id="edge12" class="edge">
<title>Node1&#45;&gt;Node12</title>
<path fill="none" stroke="midnightblue" d="M966.33,-126.59C1039.41,-119.06 1173.32,-104.37 1287,-87 1298.3,-85.27 1310.47,-83.14 1321.76,-81.05"/>
<polygon fill="midnightblue" stroke="midnightblue" points="965.59,-123.15 956,-127.65 966.31,-130.11 965.59,-123.15"/>
</g>
<!-- Node13 -->
<g id="node13" class="node">
<title>Node13</title>
<g id="a_node13"><a xlink:href="ObserverThread_8cpp.html" target="_top" xlink:title=" ">
<polygon fill="none" stroke="black" points="1451.5,-62 1451.5,-81 1566.5,-81 1566.5,-62 1451.5,-62"/>
<text text-anchor="middle" x="1509" y="-69" font-family="FreeSans.ttf" font-size="10.00">ObserverThread.cpp</text>
</a>
</g>
</g>
<!-- Node1&#45;&gt;Node13 -->
<g id="edge13" class="edge">
<title>Node1&#45;&gt;Node13</title>
<path fill="none" stroke="midnightblue" d="M966.38,-129.76C1062.84,-125.26 1270.02,-113.22 1443,-87 1453.21,-85.45 1464.2,-83.26 1474.22,-81.04"/>
<polygon fill="midnightblue" stroke="midnightblue" points="966.12,-126.27 956.29,-130.22 966.44,-133.26 966.12,-126.27"/>
</g>
<!-- Node14 -->
<g id="node14" class="node">
<title>Node14</title>
<g id="a_node14"><a xlink:href="urdf2dh_8cpp.html" target="_top" xlink:title=" ">
<polygon fill="none" stroke="black" points="1585,-62 1585,-81 1659,-81 1659,-62 1585,-62"/>
<text text-anchor="middle" x="1622" y="-69" font-family="FreeSans.ttf" font-size="10.00">urdf2dh.cpp</text>
</a>
</g>
</g>
<!-- Node1&#45;&gt;Node14 -->
<g id="edge14" class="edge">
<title>Node1&#45;&gt;Node14</title>
<path fill="none" stroke="midnightblue" d="M966.58,-132.66C1080.77,-133.09 1352.77,-129.12 1576,-87 1583.41,-85.6 1591.29,-83.4 1598.4,-81.12"/>
<polygon fill="midnightblue" stroke="midnightblue" points="966.37,-129.16 956.36,-132.61 966.34,-136.16 966.37,-129.16"/>
</g>
<!-- Node15 -->
<g id="node15" class="node">
<title>Node15</title>
<g id="a_node15"><a xlink:href="robotstatepublisher_8cpp.html" target="_top" xlink:title=" ">
<polygon fill="none" stroke="black" points="1677.5,-62 1677.5,-81 1808.5,-81 1808.5,-62 1677.5,-62"/>
<text text-anchor="middle" x="1743" y="-69" font-family="FreeSans.ttf" font-size="10.00">robotstatepublisher.cpp</text>
</a>
</g>
</g>
<!-- Node1&#45;&gt;Node15 -->
<g id="edge15" class="edge">
<title>Node1&#45;&gt;Node15</title>
<path fill="none" stroke="midnightblue" d="M966.11,-131.22C1090.51,-128.89 1406.3,-119.94 1668,-87 1679.84,-85.51 1692.63,-83.27 1704.23,-81"/>
<polygon fill="midnightblue" stroke="midnightblue" points="966.01,-127.72 956.07,-131.4 966.13,-134.72 966.01,-127.72"/>
</g>
<!-- Node6&#45;&gt;Node7 -->
<g id="edge6" class="edge">
<title>Node6&#45;&gt;Node7</title>
<path fill="none" stroke="midnightblue" d="M746.23,-55.79C730.88,-44.38 710.14,-28.96 697.44,-19.51"/>
<polygon fill="midnightblue" stroke="midnightblue" points="744.43,-58.82 754.54,-61.98 748.6,-53.2 744.43,-58.82"/>
</g>
<!-- Node8 -->
<g id="node8" class="node">
<title>Node8</title>
<g id="a_node8"><a xlink:href="URDFDocument_8cpp.html" target="_top" xlink:title=" ">
<polygon fill="none" stroke="black" points="753.5,-0.5 753.5,-19.5 868.5,-19.5 868.5,-0.5 753.5,-0.5"/>
<text text-anchor="middle" x="811" y="-7.5" font-family="FreeSans.ttf" font-size="10.00">URDFDocument.cpp</text>
</a>
</g>
</g>
<!-- Node6&#45;&gt;Node8 -->
<g id="edge7" class="edge">
<title>Node6&#45;&gt;Node8</title>
<path fill="none" stroke="midnightblue" d="M778.6,-53.84C787.05,-42.67 797.82,-28.43 804.56,-19.51"/>
<polygon fill="midnightblue" stroke="midnightblue" points="775.69,-51.89 772.45,-61.98 781.27,-56.11 775.69,-51.89"/>
</g>
</g>
</svg>
