<?xml version="1.0" encoding="UTF-8" standalone="no"?>
<!DOCTYPE svg PUBLIC "-//W3C//DTD SVG 1.1//EN"
 "http://www.w3.org/Graphics/SVG/1.1/DTD/svg11.dtd">
<!-- Generated by graphviz version 2.43.0 (0)
 -->
<!-- Title: MovableJointImpl.h Pages: 1 -->
<svg width="1041pt" height="196pt"
 viewBox="0.00 0.00 1041.00 196.00" xmlns="http://www.w3.org/2000/svg" xmlns:xlink="http://www.w3.org/1999/xlink">
<g id="graph0" class="graph" transform="scale(1 1) rotate(0) translate(4 192)">
<title>MovableJointImpl.h</title>
<!-- Node1 -->
<g id="node1" class="node">
<title>Node1</title>
<g id="a_node1"><a xlink:title=" ">
<polygon fill="#bfbfbf" stroke="black" points="401.5,-168.5 401.5,-187.5 512.5,-187.5 512.5,-168.5 401.5,-168.5"/>
<text text-anchor="middle" x="457" y="-175.5" font-family="FreeSans.ttf" font-size="10.00">MovableJointImpl.h</text>
</a>
</g>
</g>
<!-- Node2 -->
<g id="node2" class="node">
<title>Node2</title>
<g id="a_node2"><a xlink:href="PrismaticJoint_8h.html" target="_top" xlink:title=" ">
<polygon fill="none" stroke="black" points="355.5,-112.5 355.5,-131.5 448.5,-131.5 448.5,-112.5 355.5,-112.5"/>
<text text-anchor="middle" x="402" y="-119.5" font-family="FreeSans.ttf" font-size="10.00">PrismaticJoint.h</text>
</a>
</g>
</g>
<!-- Node1&#45;&gt;Node2 -->
<g id="edge1" class="edge">
<title>Node1&#45;&gt;Node2</title>
<path fill="none" stroke="midnightblue" d="M440.71,-161C430.96,-151.43 418.95,-139.64 410.91,-131.75"/>
<polygon fill="midnightblue" stroke="midnightblue" points="438.33,-163.57 447.92,-168.08 443.23,-158.58 438.33,-163.57"/>
</g>
<!-- Node8 -->
<g id="node8" class="node">
<title>Node8</title>
<g id="a_node8"><a xlink:href="RevoluteJoint_8h.html" target="_top" xlink:title=" ">
<polygon fill="none" stroke="black" points="484.5,-112.5 484.5,-131.5 575.5,-131.5 575.5,-112.5 484.5,-112.5"/>
<text text-anchor="middle" x="530" y="-119.5" font-family="FreeSans.ttf" font-size="10.00">RevoluteJoint.h</text>
</a>
</g>
</g>
<!-- Node1&#45;&gt;Node8 -->
<g id="edge7" class="edge">
<title>Node1&#45;&gt;Node8</title>
<path fill="none" stroke="midnightblue" d="M477.14,-162.1C490.28,-152.38 506.98,-140.03 518.06,-131.83"/>
<polygon fill="midnightblue" stroke="midnightblue" points="474.69,-159.56 468.73,-168.32 478.85,-165.19 474.69,-159.56"/>
</g>
<!-- Node3 -->
<g id="node3" class="node">
<title>Node3</title>
<g id="a_node3"><a xlink:href="ModelTransformers_8cpp.html" target="_top" xlink:title=" ">
<polygon fill="none" stroke="black" points="400.5,-56.5 400.5,-75.5 531.5,-75.5 531.5,-56.5 400.5,-56.5"/>
<text text-anchor="middle" x="466" y="-63.5" font-family="FreeSans.ttf" font-size="10.00">ModelTransformers.cpp</text>
</a>
</g>
</g>
<!-- Node2&#45;&gt;Node3 -->
<g id="edge2" class="edge">
<title>Node2&#45;&gt;Node3</title>
<path fill="none" stroke="midnightblue" d="M419.99,-105.82C431.46,-96.15 445.91,-83.95 455.53,-75.83"/>
<polygon fill="midnightblue" stroke="midnightblue" points="417.67,-103.2 412.28,-112.32 422.18,-108.55 417.67,-103.2"/>
</g>
<!-- Node4 -->
<g id="node4" class="node">
<title>Node4</title>
<g id="a_node4"><a xlink:href="PrismaticJoint_8cpp.html" target="_top" xlink:title=" ">
<polygon fill="none" stroke="black" points="0,-56.5 0,-75.5 104,-75.5 104,-56.5 0,-56.5"/>
<text text-anchor="middle" x="52" y="-63.5" font-family="FreeSans.ttf" font-size="10.00">PrismaticJoint.cpp</text>
</a>
</g>
</g>
<!-- Node2&#45;&gt;Node4 -->
<g id="edge3" class="edge">
<title>Node2&#45;&gt;Node4</title>
<path fill="none" stroke="midnightblue" d="M345.25,-112.24C278.59,-101.96 168.92,-85.04 104.26,-75.06"/>
<polygon fill="midnightblue" stroke="midnightblue" points="344.74,-115.71 355.16,-113.77 345.81,-108.79 344.74,-115.71"/>
</g>
<!-- Node5 -->
<g id="node5" class="node">
<title>Node5</title>
<g id="a_node5"><a xlink:href="JointElement_8cpp.html" target="_top" xlink:title=" ">
<polygon fill="none" stroke="black" points="549.5,-56.5 549.5,-75.5 648.5,-75.5 648.5,-56.5 549.5,-56.5"/>
<text text-anchor="middle" x="599" y="-63.5" font-family="FreeSans.ttf" font-size="10.00">JointElement.cpp</text>
</a>
</g>
</g>
<!-- Node2&#45;&gt;Node5 -->
<g id="edge4" class="edge">
<title>Node2&#45;&gt;Node5</title>
<path fill="none" stroke="midnightblue" d="M443.23,-109.7C480.41,-99.51 534.27,-84.74 567.93,-75.52"/>
<polygon fill="midnightblue" stroke="midnightblue" points="441.93,-106.42 433.22,-112.44 443.78,-113.18 441.93,-106.42"/>
</g>
<!-- Node6 -->
<g id="node6" class="node">
<title>Node6</title>
<g id="a_node6"><a xlink:href="URDFDocument_8cpp.html" target="_top" xlink:title=" ">
<polygon fill="none" stroke="black" points="122.5,-56.5 122.5,-75.5 237.5,-75.5 237.5,-56.5 122.5,-56.5"/>
<text text-anchor="middle" x="180" y="-63.5" font-family="FreeSans.ttf" font-size="10.00">URDFDocument.cpp</text>
</a>
</g>
</g>
<!-- Node2&#45;&gt;Node6 -->
<g id="edge5" class="edge">
<title>Node2&#45;&gt;Node6</title>
<path fill="none" stroke="midnightblue" d="M356.88,-110.02C314.94,-99.82 253.35,-84.84 215.01,-75.52"/>
<polygon fill="midnightblue" stroke="midnightblue" points="356.28,-113.48 366.82,-112.44 357.93,-106.68 356.28,-113.48"/>
</g>
<!-- Node7 -->
<g id="node7" class="node">
<title>Node7</title>
<g id="a_node7"><a xlink:href="URDFModelExport_8cpp.html" target="_top" xlink:title=" ">
<polygon fill="none" stroke="black" points="256,-56.5 256,-75.5 382,-75.5 382,-56.5 256,-56.5"/>
<text text-anchor="middle" x="319" y="-63.5" font-family="FreeSans.ttf" font-size="10.00">URDFModelExport.cpp</text>
</a>
</g>
</g>
<!-- Node2&#45;&gt;Node7 -->
<g id="edge6" class="edge">
<title>Node2&#45;&gt;Node7</title>
<path fill="none" stroke="midnightblue" d="M379.9,-106.62C364.74,-96.76 345.12,-83.99 332.3,-75.65"/>
<polygon fill="midnightblue" stroke="midnightblue" points="378.37,-109.8 388.66,-112.32 382.19,-103.94 378.37,-109.8"/>
</g>
<!-- Node8&#45;&gt;Node3 -->
<g id="edge11" class="edge">
<title>Node8&#45;&gt;Node3</title>
<path fill="none" stroke="midnightblue" d="M512.01,-105.82C500.54,-96.15 486.09,-83.95 476.47,-75.83"/>
<polygon fill="midnightblue" stroke="midnightblue" points="509.82,-108.55 519.72,-112.32 514.33,-103.2 509.82,-108.55"/>
</g>
<!-- Node8&#45;&gt;Node5 -->
<g id="edge13" class="edge">
<title>Node8&#45;&gt;Node5</title>
<path fill="none" stroke="midnightblue" d="M549.04,-106.1C561.46,-96.38 577.24,-84.03 587.71,-75.83"/>
<polygon fill="midnightblue" stroke="midnightblue" points="546.8,-103.4 541.09,-112.32 551.12,-108.92 546.8,-103.4"/>
</g>
<!-- Node8&#45;&gt;Node6 -->
<g id="edge14" class="edge">
<title>Node8&#45;&gt;Node6</title>
<path fill="none" stroke="midnightblue" d="M474.1,-112.38C408.55,-102.26 300.57,-85.6 235.29,-75.53"/>
<polygon fill="midnightblue" stroke="midnightblue" points="473.83,-115.87 484.24,-113.94 474.89,-108.96 473.83,-115.87"/>
</g>
<!-- Node8&#45;&gt;Node7 -->
<g id="edge15" class="edge">
<title>Node8&#45;&gt;Node7</title>
<path fill="none" stroke="midnightblue" d="M486.86,-109.96C447.01,-99.76 388.64,-84.82 352.28,-75.52"/>
<polygon fill="midnightblue" stroke="midnightblue" points="486.01,-113.35 496.57,-112.44 487.75,-106.57 486.01,-113.35"/>
</g>
<!-- Node9 -->
<g id="node9" class="node">
<title>Node9</title>
<g id="a_node9"><a xlink:href="ModelTestUtils_8h.html" target="_top" xlink:title=" ">
<polygon fill="none" stroke="black" points="667,-56.5 667,-75.5 765,-75.5 765,-56.5 667,-56.5"/>
<text text-anchor="middle" x="716" y="-63.5" font-family="FreeSans.ttf" font-size="10.00">ModelTestUtils.h</text>
</a>
</g>
</g>
<!-- Node8&#45;&gt;Node9 -->
<g id="edge8" class="edge">
<title>Node8&#45;&gt;Node9</title>
<path fill="none" stroke="midnightblue" d="M569.38,-109.57C604.47,-99.38 655.02,-84.7 686.67,-75.52"/>
<polygon fill="midnightblue" stroke="midnightblue" points="568.1,-106.29 559.47,-112.44 570.05,-113.02 568.1,-106.29"/>
</g>
<!-- Node11 -->
<g id="node11" class="node">
<title>Node11</title>
<g id="a_node11"><a xlink:href="DenavitHartenberg_8cpp.html" target="_top" xlink:title=" ">
<polygon fill="none" stroke="black" points="783,-56.5 783,-75.5 913,-75.5 913,-56.5 783,-56.5"/>
<text text-anchor="middle" x="848" y="-63.5" font-family="FreeSans.ttf" font-size="10.00">DenavitHartenberg.cpp</text>
</a>
</g>
</g>
<!-- Node8&#45;&gt;Node11 -->
<g id="edge10" class="edge">
<title>Node8&#45;&gt;Node11</title>
<path fill="none" stroke="midnightblue" d="M585.6,-111.56C645.53,-101.38 740.06,-85.33 797.8,-75.52"/>
<polygon fill="midnightblue" stroke="midnightblue" points="584.83,-108.14 575.56,-113.26 586.01,-115.04 584.83,-108.14"/>
</g>
<!-- Node12 -->
<g id="node12" class="node">
<title>Node12</title>
<g id="a_node12"><a xlink:href="RevoluteJoint_8cpp.html" target="_top" xlink:title=" ">
<polygon fill="none" stroke="black" points="931,-56.5 931,-75.5 1033,-75.5 1033,-56.5 931,-56.5"/>
<text text-anchor="middle" x="982" y="-63.5" font-family="FreeSans.ttf" font-size="10.00">RevoluteJoint.cpp</text>
</a>
</g>
</g>
<!-- Node8&#45;&gt;Node12 -->
<g id="edge12" class="edge">
<title>Node8&#45;&gt;Node12</title>
<path fill="none" stroke="midnightblue" d="M585.94,-115.19C662.06,-107.15 802.5,-91.82 922,-76 924.92,-75.61 927.93,-75.2 930.95,-74.78"/>
<polygon fill="midnightblue" stroke="midnightblue" points="585.21,-111.75 575.63,-116.28 585.94,-118.71 585.21,-111.75"/>
</g>
<!-- Node10 -->
<g id="node10" class="node">
<title>Node10</title>
<g id="a_node10"><a xlink:href="urdf2dh_8cpp.html" target="_top" xlink:title=" ">
<polygon fill="none" stroke="black" points="679,-0.5 679,-19.5 753,-19.5 753,-0.5 679,-0.5"/>
<text text-anchor="middle" x="716" y="-7.5" font-family="FreeSans.ttf" font-size="10.00">urdf2dh.cpp</text>
</a>
</g>
</g>
<!-- Node9&#45;&gt;Node10 -->
<g id="edge9" class="edge">
<title>Node9&#45;&gt;Node10</title>
<path fill="none" stroke="midnightblue" d="M716,-45.8C716,-36.91 716,-26.78 716,-19.75"/>
<polygon fill="midnightblue" stroke="midnightblue" points="712.5,-46.08 716,-56.08 719.5,-46.08 712.5,-46.08"/>
</g>
</g>
</svg>
