<?xml version="1.0" encoding="UTF-8" standalone="no"?>
<!DOCTYPE svg PUBLIC "-//W3C//DTD SVG 1.1//EN"
 "http://www.w3.org/Graphics/SVG/1.1/DTD/svg11.dtd">
<!-- Generated by graphviz version 2.43.0 (0)
 -->
<!-- Title: OptimalControlProblem.h Pages: 1 -->
<svg width="1276pt" height="532pt"
 viewBox="0.00 0.00 1276.00 532.00" xmlns="http://www.w3.org/2000/svg" xmlns:xlink="http://www.w3.org/1999/xlink">
<g id="graph0" class="graph" transform="scale(1 1) rotate(0) translate(4 528)">
<title>OptimalControlProblem.h</title>
<!-- Node1 -->
<g id="node1" class="node">
<title>Node1</title>
<g id="a_node1"><a xlink:title=" ">
<polygon fill="#bfbfbf" stroke="black" points="107,-504.5 107,-523.5 247,-523.5 247,-504.5 107,-504.5"/>
<text text-anchor="middle" x="177" y="-511.5" font-family="FreeSans.ttf" font-size="10.00">OptimalControlProblem.h</text>
</a>
</g>
</g>
<!-- Node2 -->
<g id="node2" class="node">
<title>Node2</title>
<g id="a_node2"><a xlink:title=" ">
<polygon fill="none" stroke="#bfbfbf" points="0,-448.5 0,-467.5 58,-467.5 58,-448.5 0,-448.5"/>
<text text-anchor="middle" x="29" y="-455.5" font-family="FreeSans.ttf" font-size="10.00">memory</text>
</a>
</g>
</g>
<!-- Node1&#45;&gt;Node2 -->
<g id="edge1" class="edge">
<title>Node1&#45;&gt;Node2</title>
<path fill="none" stroke="midnightblue" d="M153.55,-504.44C128.87,-495.44 89.81,-481.19 62.02,-471.05"/>
<polygon fill="midnightblue" stroke="midnightblue" points="62.94,-467.66 52.34,-467.52 60.54,-474.23 62.94,-467.66"/>
</g>
<!-- Node3 -->
<g id="node3" class="node">
<title>Node3</title>
<g id="a_node3"><a xlink:title=" ">
<polygon fill="none" stroke="#bfbfbf" points="118.5,-112.5 118.5,-131.5 165.5,-131.5 165.5,-112.5 118.5,-112.5"/>
<text text-anchor="middle" x="142" y="-119.5" font-family="FreeSans.ttf" font-size="10.00">vector</text>
</a>
</g>
</g>
<!-- Node1&#45;&gt;Node3 -->
<g id="edge2" class="edge">
<title>Node1&#45;&gt;Node3</title>
<path fill="none" stroke="midnightblue" d="M169.41,-504.28C154.75,-486.52 124,-444.34 124,-403 124,-403 124,-403 124,-233 124,-200.54 131.73,-163.38 137.06,-141.63"/>
<polygon fill="midnightblue" stroke="midnightblue" points="140.49,-142.32 139.57,-131.76 133.71,-140.59 140.49,-142.32"/>
</g>
<!-- Node4 -->
<g id="node4" class="node">
<title>Node4</title>
<g id="a_node4"><a xlink:title=" ">
<polygon fill="none" stroke="#bfbfbf" points="611,-112.5 611,-131.5 655,-131.5 655,-112.5 611,-112.5"/>
<text text-anchor="middle" x="633" y="-119.5" font-family="FreeSans.ttf" font-size="10.00">string</text>
</a>
</g>
</g>
<!-- Node1&#45;&gt;Node4 -->
<g id="edge3" class="edge">
<title>Node1&#45;&gt;Node4</title>
<path fill="none" stroke="midnightblue" d="M233.65,-504.45C321.86,-489.51 482,-455.21 482,-403 482,-403 482,-403 482,-289 482,-215.68 563.6,-160.45 606.83,-136.34"/>
<polygon fill="midnightblue" stroke="midnightblue" points="608.56,-139.38 615.68,-131.54 605.22,-133.23 608.56,-139.38"/>
</g>
<!-- Node5 -->
<g id="node5" class="node">
<title>Node5</title>
<g id="a_node5"><a xlink:href="Utils_8h.html" target="_top" xlink:title=" ">
<polygon fill="none" stroke="black" points="526.5,-56.5 526.5,-75.5 645.5,-75.5 645.5,-56.5 526.5,-56.5"/>
<text text-anchor="middle" x="586" y="-63.5" font-family="FreeSans.ttf" font-size="10.00">iDynTree/Core/Utils.h</text>
</a>
</g>
</g>
<!-- Node1&#45;&gt;Node5 -->
<g id="edge4" class="edge">
<title>Node1&#45;&gt;Node5</title>
<path fill="none" stroke="midnightblue" d="M162.38,-504.48C136.66,-488.27 86,-450.34 86,-403 86,-403 86,-403 86,-177 86,-146.36 84.84,-130.85 109,-112 140.38,-87.53 391.4,-74.5 516.14,-69.48"/>
<polygon fill="midnightblue" stroke="midnightblue" points="516.5,-72.97 526.36,-69.07 516.23,-65.97 516.5,-72.97"/>
</g>
<!-- Node8 -->
<g id="node8" class="node">
<title>Node8</title>
<g id="a_node8"><a xlink:href="SparsityStructure_8h.html" target="_top" xlink:title=" ">
<polygon fill="none" stroke="black" points="152.5,-168.5 152.5,-187.5 307.5,-187.5 307.5,-168.5 152.5,-168.5"/>
<text text-anchor="middle" x="230" y="-175.5" font-family="FreeSans.ttf" font-size="10.00">iDynTree/SparsityStructure.h</text>
</a>
</g>
</g>
<!-- Node1&#45;&gt;Node8 -->
<g id="edge7" class="edge">
<title>Node1&#45;&gt;Node8</title>
<path fill="none" stroke="midnightblue" d="M180.64,-504.34C188.01,-486 204,-441.74 204,-403 204,-403 204,-403 204,-289 204,-255.93 215.27,-218.73 222.97,-197.17"/>
<polygon fill="midnightblue" stroke="midnightblue" points="226.29,-198.27 226.49,-187.68 219.73,-195.83 226.29,-198.27"/>
</g>
<!-- Node10 -->
<g id="node10" class="node">
<title>Node10</title>
<g id="a_node10"><a xlink:href="TimeVaryingObject_8h.html" target="_top" xlink:title=" ">
<polygon fill="none" stroke="black" points="510,-448.5 510,-467.5 674,-467.5 674,-448.5 510,-448.5"/>
<text text-anchor="middle" x="592" y="-455.5" font-family="FreeSans.ttf" font-size="10.00">iDynTree/TimeVaryingObject.h</text>
</a>
</g>
</g>
<!-- Node1&#45;&gt;Node10 -->
<g id="edge13" class="edge">
<title>Node1&#45;&gt;Node10</title>
<path fill="none" stroke="midnightblue" d="M242.76,-504.44C317.13,-494.77 438.03,-479.04 516.28,-468.85"/>
<polygon fill="midnightblue" stroke="midnightblue" points="517.08,-472.28 526.55,-467.52 516.18,-465.34 517.08,-472.28"/>
</g>
<!-- Node6 -->
<g id="node6" class="node">
<title>Node6</title>
<g id="a_node6"><a xlink:title=" ">
<polygon fill="none" stroke="#bfbfbf" points="559.5,-0.5 559.5,-19.5 612.5,-19.5 612.5,-0.5 559.5,-0.5"/>
<text text-anchor="middle" x="586" y="-7.5" font-family="FreeSans.ttf" font-size="10.00">cstddef</text>
</a>
</g>
</g>
<!-- Node5&#45;&gt;Node6 -->
<g id="edge5" class="edge">
<title>Node5&#45;&gt;Node6</title>
<path fill="none" stroke="midnightblue" d="M586,-56.08C586,-49.01 586,-38.86 586,-29.99"/>
<polygon fill="midnightblue" stroke="midnightblue" points="589.5,-29.75 586,-19.75 582.5,-29.75 589.5,-29.75"/>
</g>
<!-- Node7 -->
<g id="node7" class="node">
<title>Node7</title>
<g id="a_node7"><a xlink:title=" ">
<polygon fill="none" stroke="#bfbfbf" points="461,-0.5 461,-19.5 541,-19.5 541,-0.5 461,-0.5"/>
<text text-anchor="middle" x="501" y="-7.5" font-family="FreeSans.ttf" font-size="10.00">CoreExport.h</text>
</a>
</g>
</g>
<!-- Node5&#45;&gt;Node7 -->
<g id="edge6" class="edge">
<title>Node5&#45;&gt;Node7</title>
<path fill="none" stroke="midnightblue" d="M572.34,-56.32C559.08,-47.9 538.73,-34.97 523.15,-25.07"/>
<polygon fill="midnightblue" stroke="midnightblue" points="524.94,-22.06 514.62,-19.65 521.19,-27.97 524.94,-22.06"/>
</g>
<!-- Node8&#45;&gt;Node3 -->
<g id="edge9" class="edge">
<title>Node8&#45;&gt;Node3</title>
<path fill="none" stroke="midnightblue" d="M215.86,-168.32C202.13,-159.9 181.06,-146.97 164.94,-137.07"/>
<polygon fill="midnightblue" stroke="midnightblue" points="166.46,-133.9 156.1,-131.65 162.8,-139.87 166.46,-133.9"/>
</g>
<!-- Node8&#45;&gt;Node4 -->
<g id="edge12" class="edge">
<title>Node8&#45;&gt;Node4</title>
<path fill="none" stroke="midnightblue" d="M293.86,-168.44C380.9,-156.78 533.57,-136.32 600.27,-127.39"/>
<polygon fill="midnightblue" stroke="midnightblue" points="601.13,-130.8 610.58,-126 600.2,-123.86 601.13,-130.8"/>
</g>
<!-- Node8&#45;&gt;Node5 -->
<g id="edge8" class="edge">
<title>Node8&#45;&gt;Node5</title>
<path fill="none" stroke="midnightblue" d="M273,-168.43C311.4,-160.37 368.98,-147.28 418,-132 467.65,-116.53 523.69,-93.73 556.86,-79.65"/>
<polygon fill="midnightblue" stroke="midnightblue" points="558.57,-82.73 566.39,-75.58 555.82,-76.29 558.57,-82.73"/>
</g>
<!-- Node8&#45;&gt;Node6 -->
<g id="edge10" class="edge">
<title>Node8&#45;&gt;Node6</title>
<path fill="none" stroke="midnightblue" d="M248.64,-168.31C307.27,-140.97 488.21,-56.6 558.07,-24.02"/>
<polygon fill="midnightblue" stroke="midnightblue" points="559.96,-27 567.55,-19.61 557,-20.66 559.96,-27"/>
</g>
<!-- Node9 -->
<g id="node9" class="node">
<title>Node9</title>
<g id="a_node9"><a xlink:title=" ">
<polygon fill="none" stroke="#bfbfbf" points="187,-112.5 187,-131.5 273,-131.5 273,-112.5 187,-112.5"/>
<text text-anchor="middle" x="230" y="-119.5" font-family="FreeSans.ttf" font-size="10.00">unordered_set</text>
</a>
</g>
</g>
<!-- Node8&#45;&gt;Node9 -->
<g id="edge11" class="edge">
<title>Node8&#45;&gt;Node9</title>
<path fill="none" stroke="midnightblue" d="M230,-168.08C230,-161.01 230,-150.86 230,-141.99"/>
<polygon fill="midnightblue" stroke="midnightblue" points="233.5,-141.75 230,-131.75 226.5,-141.75 233.5,-141.75"/>
</g>
<!-- Node11 -->
<g id="node11" class="node">
<title>Node11</title>
<g id="a_node11"><a xlink:href="VectorDynSize_8h.html" target="_top" xlink:title=" ">
<polygon fill="none" stroke="black" points="325.5,-168.5 325.5,-187.5 492.5,-187.5 492.5,-168.5 325.5,-168.5"/>
<text text-anchor="middle" x="409" y="-175.5" font-family="FreeSans.ttf" font-size="10.00">iDynTree/Core/VectorDynSize.h</text>
</a>
</g>
</g>
<!-- Node10&#45;&gt;Node11 -->
<g id="edge14" class="edge">
<title>Node10&#45;&gt;Node11</title>
<path fill="none" stroke="midnightblue" d="M550.79,-448.48C501.92,-435.69 427,-406.39 427,-347 427,-347 427,-347 427,-289 427,-256.54 419.27,-219.38 413.94,-197.63"/>
<polygon fill="midnightblue" stroke="midnightblue" points="417.29,-196.59 411.43,-187.76 410.51,-198.32 417.29,-196.59"/>
</g>
<!-- Node21 -->
<g id="node21" class="node">
<title>Node21</title>
<g id="a_node21"><a xlink:href="MatrixDynSize_8h.html" target="_top" xlink:title=" ">
<polygon fill="none" stroke="black" points="738,-168.5 738,-187.5 906,-187.5 906,-168.5 738,-168.5"/>
<text text-anchor="middle" x="822" y="-175.5" font-family="FreeSans.ttf" font-size="10.00">iDynTree/Core/MatrixDynSize.h</text>
</a>
</g>
</g>
<!-- Node10&#45;&gt;Node21 -->
<g id="edge26" class="edge">
<title>Node10&#45;&gt;Node21</title>
<path fill="none" stroke="midnightblue" d="M589.71,-448.43C581.29,-414.86 555.53,-290.78 615,-224 630.38,-206.72 680.64,-195.56 727.77,-188.67"/>
<polygon fill="midnightblue" stroke="midnightblue" points="728.35,-192.13 737.77,-187.27 727.38,-185.19 728.35,-192.13"/>
</g>
<!-- Node23 -->
<g id="node23" class="node">
<title>Node23</title>
<g id="a_node23"><a xlink:href="Transform_8h.html" target="_top" xlink:title=" ">
<polygon fill="none" stroke="black" points="629,-392.5 629,-411.5 775,-411.5 775,-392.5 629,-392.5"/>
<text text-anchor="middle" x="702" y="-399.5" font-family="FreeSans.ttf" font-size="10.00">iDynTree/Core/Transform.h</text>
</a>
</g>
</g>
<!-- Node10&#45;&gt;Node23 -->
<g id="edge33" class="edge">
<title>Node10&#45;&gt;Node23</title>
<path fill="none" stroke="midnightblue" d="M609.67,-448.32C627.39,-439.62 654.9,-426.12 675.29,-416.11"/>
<polygon fill="midnightblue" stroke="midnightblue" points="676.94,-419.2 684.37,-411.65 673.85,-412.92 676.94,-419.2"/>
</g>
<!-- Node11&#45;&gt;Node4 -->
<g id="edge25" class="edge">
<title>Node11&#45;&gt;Node4</title>
<path fill="none" stroke="midnightblue" d="M444.49,-168.44C487.6,-158.05 559.65,-140.68 601.08,-130.7"/>
<polygon fill="midnightblue" stroke="midnightblue" points="602.01,-134.07 610.91,-128.32 600.37,-127.27 602.01,-134.07"/>
</g>
<!-- Node12 -->
<g id="node12" class="node">
<title>Node12</title>
<g id="a_node12"><a xlink:href="Span_8h.html" target="_top" xlink:title=" ">
<polygon fill="none" stroke="black" points="798.5,-56.5 798.5,-75.5 919.5,-75.5 919.5,-56.5 798.5,-56.5"/>
<text text-anchor="middle" x="859" y="-63.5" font-family="FreeSans.ttf" font-size="10.00">iDynTree/Core/Span.h</text>
</a>
</g>
</g>
<!-- Node11&#45;&gt;Node12 -->
<g id="edge15" class="edge">
<title>Node11&#45;&gt;Node12</title>
<path fill="none" stroke="midnightblue" d="M430.67,-168.5C466.05,-154.89 538.61,-128.13 602,-112 664.25,-96.17 736.38,-84.07 788.36,-76.42"/>
<polygon fill="midnightblue" stroke="midnightblue" points="789.08,-79.85 798.48,-74.95 788.08,-72.93 789.08,-79.85"/>
</g>
<!-- Node12&#45;&gt;Node6 -->
<g id="edge19" class="edge">
<title>Node12&#45;&gt;Node6</title>
<path fill="none" stroke="midnightblue" d="M809.35,-56.43C763.44,-48.31 693.1,-35.38 622.64,-20.04"/>
<polygon fill="midnightblue" stroke="midnightblue" points="623.21,-16.58 612.7,-17.86 621.71,-23.42 623.21,-16.58"/>
</g>
<!-- Node13 -->
<g id="node13" class="node">
<title>Node13</title>
<g id="a_node13"><a xlink:title=" ">
<polygon fill="none" stroke="#bfbfbf" points="1140,-0.5 1140,-19.5 1192,-19.5 1192,-0.5 1140,-0.5"/>
<text text-anchor="middle" x="1166" y="-7.5" font-family="FreeSans.ttf" font-size="10.00">cassert</text>
</a>
</g>
</g>
<!-- Node12&#45;&gt;Node13 -->
<g id="edge16" class="edge">
<title>Node12&#45;&gt;Node13</title>
<path fill="none" stroke="midnightblue" d="M919.51,-56.54C972.55,-48.78 1051.92,-36.31 1129.71,-20.13"/>
<polygon fill="midnightblue" stroke="midnightblue" points="1130.62,-23.51 1139.68,-18.03 1129.18,-16.66 1130.62,-23.51"/>
</g>
<!-- Node14 -->
<g id="node14" class="node">
<title>Node14</title>
<g id="a_node14"><a xlink:title=" ">
<polygon fill="none" stroke="#bfbfbf" points="864,-0.5 864,-19.5 928,-19.5 928,-0.5 864,-0.5"/>
<text text-anchor="middle" x="896" y="-7.5" font-family="FreeSans.ttf" font-size="10.00">algorithm</text>
</a>
</g>
</g>
<!-- Node12&#45;&gt;Node14 -->
<g id="edge17" class="edge">
<title>Node12&#45;&gt;Node14</title>
<path fill="none" stroke="midnightblue" d="M865.11,-56.08C870.28,-48.53 877.85,-37.49 884.19,-28.23"/>
<polygon fill="midnightblue" stroke="midnightblue" points="887.24,-29.98 890,-19.75 881.46,-26.02 887.24,-29.98"/>
</g>
<!-- Node15 -->
<g id="node15" class="node">
<title>Node15</title>
<g id="a_node15"><a xlink:title=" ">
<polygon fill="none" stroke="#bfbfbf" points="946,-0.5 946,-19.5 988,-19.5 988,-0.5 946,-0.5"/>
<text text-anchor="middle" x="967" y="-7.5" font-family="FreeSans.ttf" font-size="10.00">array</text>
</a>
</g>
</g>
<!-- Node12&#45;&gt;Node15 -->
<g id="edge18" class="edge">
<title>Node12&#45;&gt;Node15</title>
<path fill="none" stroke="midnightblue" d="M876.35,-56.32C893.67,-47.66 920.52,-34.24 940.5,-24.25"/>
<polygon fill="midnightblue" stroke="midnightblue" points="942.31,-27.26 949.69,-19.65 939.18,-21 942.31,-27.26"/>
</g>
<!-- Node16 -->
<g id="node16" class="node">
<title>Node16</title>
<g id="a_node16"><a xlink:title=" ">
<polygon fill="none" stroke="#bfbfbf" points="1006.5,-0.5 1006.5,-19.5 1059.5,-19.5 1059.5,-0.5 1006.5,-0.5"/>
<text text-anchor="middle" x="1033" y="-7.5" font-family="FreeSans.ttf" font-size="10.00">iterator</text>
</a>
</g>
</g>
<!-- Node12&#45;&gt;Node16 -->
<g id="edge20" class="edge">
<title>Node12&#45;&gt;Node16</title>
<path fill="none" stroke="midnightblue" d="M886.57,-56.44C916.36,-47.2 963.95,-32.43 996.75,-22.25"/>
<polygon fill="midnightblue" stroke="midnightblue" points="997.9,-25.56 1006.41,-19.25 995.83,-18.87 997.9,-25.56"/>
</g>
<!-- Node17 -->
<g id="node17" class="node">
<title>Node17</title>
<g id="a_node17"><a xlink:title=" ">
<polygon fill="none" stroke="#bfbfbf" points="1078,-0.5 1078,-19.5 1122,-19.5 1122,-0.5 1078,-0.5"/>
<text text-anchor="middle" x="1100" y="-7.5" font-family="FreeSans.ttf" font-size="10.00">limits</text>
</a>
</g>
</g>
<!-- Node12&#45;&gt;Node17 -->
<g id="edge21" class="edge">
<title>Node12&#45;&gt;Node17</title>
<path fill="none" stroke="midnightblue" d="M903.46,-56.43C943.95,-48.42 1005.58,-35.68 1067.73,-20.19"/>
<polygon fill="midnightblue" stroke="midnightblue" points="1068.86,-23.51 1077.7,-17.68 1067.15,-16.73 1068.86,-23.51"/>
</g>
<!-- Node18 -->
<g id="node18" class="node">
<title>Node18</title>
<g id="a_node18"><a xlink:title=" ">
<polygon fill="none" stroke="#bfbfbf" points="717.5,-0.5 717.5,-19.5 782.5,-19.5 782.5,-0.5 717.5,-0.5"/>
<text text-anchor="middle" x="750" y="-7.5" font-family="FreeSans.ttf" font-size="10.00">stdexcept</text>
</a>
</g>
</g>
<!-- Node12&#45;&gt;Node18 -->
<g id="edge22" class="edge">
<title>Node12&#45;&gt;Node18</title>
<path fill="none" stroke="midnightblue" d="M841.49,-56.32C823.93,-47.62 796.67,-34.12 776.47,-24.11"/>
<polygon fill="midnightblue" stroke="midnightblue" points="777.98,-20.96 767.47,-19.65 774.88,-27.23 777.98,-20.96"/>
</g>
<!-- Node19 -->
<g id="node19" class="node">
<title>Node19</title>
<g id="a_node19"><a xlink:title=" ">
<polygon fill="none" stroke="#bfbfbf" points="630.5,-0.5 630.5,-19.5 699.5,-19.5 699.5,-0.5 630.5,-0.5"/>
<text text-anchor="middle" x="665" y="-7.5" font-family="FreeSans.ttf" font-size="10.00">type_traits</text>
</a>
</g>
</g>
<!-- Node12&#45;&gt;Node19 -->
<g id="edge23" class="edge">
<title>Node12&#45;&gt;Node19</title>
<path fill="none" stroke="midnightblue" d="M828.26,-56.44C795.06,-47.2 742.01,-32.44 705.44,-22.26"/>
<polygon fill="midnightblue" stroke="midnightblue" points="706.17,-18.83 695.6,-19.52 704.29,-25.57 706.17,-18.83"/>
</g>
<!-- Node20 -->
<g id="node20" class="node">
<title>Node20</title>
<g id="a_node20"><a xlink:title=" ">
<polygon fill="none" stroke="#bfbfbf" points="800.5,-0.5 800.5,-19.5 845.5,-19.5 845.5,-0.5 800.5,-0.5"/>
<text text-anchor="middle" x="823" y="-7.5" font-family="FreeSans.ttf" font-size="10.00">utility</text>
</a>
</g>
</g>
<!-- Node12&#45;&gt;Node20 -->
<g id="edge24" class="edge">
<title>Node12&#45;&gt;Node20</title>
<path fill="none" stroke="midnightblue" d="M853.06,-56.08C848.02,-48.53 840.66,-37.49 834.49,-28.23"/>
<polygon fill="midnightblue" stroke="midnightblue" points="837.29,-26.13 828.83,-19.75 831.47,-30.01 837.29,-26.13"/>
</g>
<!-- Node21&#45;&gt;Node4 -->
<g id="edge27" class="edge">
<title>Node21&#45;&gt;Node4</title>
<path fill="none" stroke="midnightblue" d="M792.05,-168.44C757.38,-158.54 700.5,-142.28 664.98,-132.14"/>
<polygon fill="midnightblue" stroke="midnightblue" points="665.71,-128.7 655.13,-129.32 663.78,-135.44 665.71,-128.7"/>
</g>
<!-- Node22 -->
<g id="node22" class="node">
<title>Node22</title>
<g id="a_node22"><a xlink:href="MatrixView_8h.html" target="_top" xlink:title=" ">
<polygon fill="none" stroke="black" points="711,-112.5 711,-131.5 863,-131.5 863,-112.5 711,-112.5"/>
<text text-anchor="middle" x="787" y="-119.5" font-family="FreeSans.ttf" font-size="10.00">iDynTree/Core/MatrixView.h</text>
</a>
</g>
</g>
<!-- Node21&#45;&gt;Node22 -->
<g id="edge28" class="edge">
<title>Node21&#45;&gt;Node22</title>
<path fill="none" stroke="midnightblue" d="M816.22,-168.08C811.33,-160.53 804.17,-149.49 798.17,-140.23"/>
<polygon fill="midnightblue" stroke="midnightblue" points="801.05,-138.24 792.67,-131.75 795.17,-142.05 801.05,-138.24"/>
</g>
<!-- Node22&#45;&gt;Node5 -->
<g id="edge32" class="edge">
<title>Node22&#45;&gt;Node5</title>
<path fill="none" stroke="midnightblue" d="M755.15,-112.44C720.6,-103.16 665.32,-88.31 627.42,-78.13"/>
<polygon fill="midnightblue" stroke="midnightblue" points="628.27,-74.73 617.7,-75.52 626.45,-81.49 628.27,-74.73"/>
</g>
<!-- Node22&#45;&gt;Node12 -->
<g id="edge31" class="edge">
<title>Node22&#45;&gt;Node12</title>
<path fill="none" stroke="midnightblue" d="M798.57,-112.32C809.42,-104.18 825.88,-91.84 838.88,-82.09"/>
<polygon fill="midnightblue" stroke="midnightblue" points="841.32,-84.63 847.22,-75.83 837.12,-79.03 841.32,-84.63"/>
</g>
<!-- Node22&#45;&gt;Node13 -->
<g id="edge29" class="edge">
<title>Node22&#45;&gt;Node13</title>
<path fill="none" stroke="midnightblue" d="M817.86,-112.46C846.9,-104.14 891.4,-90.63 929,-76 948.64,-68.36 952.05,-62.81 972,-56 1037.62,-33.6 1058.76,-36.69 1129.77,-20.21"/>
<polygon fill="midnightblue" stroke="midnightblue" points="1130.73,-23.58 1139.65,-17.86 1129.11,-16.77 1130.73,-23.58"/>
</g>
<!-- Node22&#45;&gt;Node19 -->
<g id="edge30" class="edge">
<title>Node22&#45;&gt;Node19</title>
<path fill="none" stroke="midnightblue" d="M777.43,-112.37C756.85,-93.81 708.16,-49.91 682.12,-26.44"/>
<polygon fill="midnightblue" stroke="midnightblue" points="684.3,-23.69 674.53,-19.59 679.61,-28.89 684.3,-23.69"/>
</g>
<!-- Node23&#45;&gt;Node4 -->
<g id="edge63" class="edge">
<title>Node23&#45;&gt;Node4</title>
<path fill="none" stroke="midnightblue" d="M676.12,-392.49C658.89,-385.45 637.24,-373.7 625,-356 577.26,-286.96 584.54,-248.88 607,-168 609.74,-158.13 615.17,-148.16 620.36,-140.12"/>
<polygon fill="midnightblue" stroke="midnightblue" points="623.37,-141.92 626.16,-131.7 617.61,-137.94 623.37,-141.92"/>
</g>
<!-- Node24 -->
<g id="node24" class="node">
<title>Node24</title>
<g id="a_node24"><a xlink:href="Position_8h.html" target="_top" xlink:title=" ">
<polygon fill="none" stroke="black" points="634,-336.5 634,-355.5 770,-355.5 770,-336.5 634,-336.5"/>
<text text-anchor="middle" x="702" y="-343.5" font-family="FreeSans.ttf" font-size="10.00">iDynTree/Core/Position.h</text>
</a>
</g>
</g>
<!-- Node23&#45;&gt;Node24 -->
<g id="edge34" class="edge">
<title>Node23&#45;&gt;Node24</title>
<path fill="none" stroke="midnightblue" d="M702,-392.08C702,-385.01 702,-374.86 702,-365.99"/>
<polygon fill="midnightblue" stroke="midnightblue" points="705.5,-365.75 702,-355.75 698.5,-365.75 705.5,-365.75"/>
</g>
<!-- Node29 -->
<g id="node29" class="node">
<title>Node29</title>
<g id="a_node29"><a xlink:href="Rotation_8h.html" target="_top" xlink:title=" ">
<polygon fill="none" stroke="black" points="792,-280.5 792,-299.5 930,-299.5 930,-280.5 792,-280.5"/>
<text text-anchor="middle" x="861" y="-287.5" font-family="FreeSans.ttf" font-size="10.00">iDynTree/Core/Rotation.h</text>
</a>
</g>
</g>
<!-- Node23&#45;&gt;Node29 -->
<g id="edge61" class="edge">
<title>Node23&#45;&gt;Node29</title>
<path fill="none" stroke="midnightblue" d="M718.03,-392.5C733.89,-383.89 758.68,-369.89 779,-356 802.12,-340.2 827.12,-319.86 843.36,-306.18"/>
<polygon fill="midnightblue" stroke="midnightblue" points="845.65,-308.83 851,-299.69 841.11,-303.5 845.65,-308.83"/>
</g>
<!-- Node32 -->
<g id="node32" class="node">
<title>Node32</title>
<g id="a_node32"><a xlink:href="MatrixFixSize_8h.html" target="_top" xlink:title=" ">
<polygon fill="none" stroke="black" points="924.5,-168.5 924.5,-187.5 1087.5,-187.5 1087.5,-168.5 924.5,-168.5"/>
<text text-anchor="middle" x="1006" y="-175.5" font-family="FreeSans.ttf" font-size="10.00">iDynTree/Core/MatrixFixSize.h</text>
</a>
</g>
</g>
<!-- Node23&#45;&gt;Node32 -->
<g id="edge62" class="edge">
<title>Node23&#45;&gt;Node32</title>
<path fill="none" stroke="midnightblue" d="M758.72,-392.49C881.79,-372.73 1166.8,-319.64 1223,-244 1228.3,-236.87 1228.61,-230.89 1223,-224 1213.59,-212.43 1135.99,-198.37 1076.25,-189.08"/>
<polygon fill="midnightblue" stroke="midnightblue" points="1076.49,-185.58 1066.08,-187.52 1075.43,-192.5 1076.49,-185.58"/>
</g>
<!-- Node24&#45;&gt;Node4 -->
<g id="edge60" class="edge">
<title>Node24&#45;&gt;Node4</title>
<path fill="none" stroke="midnightblue" d="M690.37,-336.29C670.39,-320.51 630.23,-285 615,-244 601.99,-208.97 615.37,-164.93 625.01,-140.81"/>
<polygon fill="midnightblue" stroke="midnightblue" points="628.27,-142.09 628.94,-131.51 621.82,-139.36 628.27,-142.09"/>
</g>
<!-- Node25 -->
<g id="node25" class="node">
<title>Node25</title>
<g id="a_node25"><a xlink:href="PositionRaw_8h.html" target="_top" xlink:title=" ">
<polygon fill="none" stroke="black" points="624,-224.5 624,-243.5 780,-243.5 780,-224.5 624,-224.5"/>
<text text-anchor="middle" x="702" y="-231.5" font-family="FreeSans.ttf" font-size="10.00">iDynTree/Core/PositionRaw.h</text>
</a>
</g>
</g>
<!-- Node24&#45;&gt;Node25 -->
<g id="edge35" class="edge">
<title>Node24&#45;&gt;Node25</title>
<path fill="none" stroke="midnightblue" d="M702,-336.37C702,-318.62 702,-277.67 702,-253.6"/>
<polygon fill="midnightblue" stroke="midnightblue" points="705.5,-253.59 702,-243.59 698.5,-253.59 705.5,-253.59"/>
</g>
<!-- Node24&#45;&gt;Node29 -->
<g id="edge45" class="edge">
<title>Node24&#45;&gt;Node29</title>
<path fill="none" stroke="midnightblue" d="M727.19,-336.44C753.94,-327.36 796.4,-312.94 826.31,-302.78"/>
<polygon fill="midnightblue" stroke="midnightblue" points="827.58,-306.05 835.92,-299.52 825.33,-299.42 827.58,-306.05"/>
</g>
<!-- Node25&#45;&gt;Node4 -->
<g id="edge44" class="edge">
<title>Node25&#45;&gt;Node4</title>
<path fill="none" stroke="midnightblue" d="M691.32,-224.33C681.53,-215.92 667.21,-202.34 658,-188 648.62,-173.39 641.9,-154.72 637.8,-141.14"/>
<polygon fill="midnightblue" stroke="midnightblue" points="641.17,-140.18 635.08,-131.51 634.43,-142.09 641.17,-140.18"/>
</g>
<!-- Node26 -->
<g id="node26" class="node">
<title>Node26</title>
<g id="a_node26"><a xlink:href="VectorFixSize_8h.html" target="_top" xlink:title=" ">
<polygon fill="none" stroke="black" points="1106,-168.5 1106,-187.5 1268,-187.5 1268,-168.5 1106,-168.5"/>
<text text-anchor="middle" x="1187" y="-175.5" font-family="FreeSans.ttf" font-size="10.00">iDynTree/Core/VectorFixSize.h</text>
</a>
</g>
</g>
<!-- Node25&#45;&gt;Node26 -->
<g id="edge36" class="edge">
<title>Node25&#45;&gt;Node26</title>
<path fill="none" stroke="midnightblue" d="M778.58,-224.47C866.06,-214.73 1008.88,-198.83 1100.35,-188.65"/>
<polygon fill="midnightblue" stroke="midnightblue" points="1100.87,-192.11 1110.42,-187.53 1100.09,-185.15 1100.87,-192.11"/>
</g>
<!-- Node26&#45;&gt;Node4 -->
<g id="edge39" class="edge">
<title>Node26&#45;&gt;Node4</title>
<path fill="none" stroke="midnightblue" d="M1105.57,-168.82C1102.68,-168.54 1099.81,-168.27 1097,-168 921.52,-151.23 877.21,-151.4 702,-132 689.96,-130.67 676.76,-129 665.16,-127.46"/>
<polygon fill="midnightblue" stroke="midnightblue" points="665.41,-123.96 655.04,-126.1 664.48,-130.9 665.41,-123.96"/>
</g>
<!-- Node26&#45;&gt;Node5 -->
<g id="edge37" class="edge">
<title>Node26&#45;&gt;Node5</title>
<path fill="none" stroke="midnightblue" d="M1182.41,-168.37C1174.13,-153.8 1155.2,-124.7 1130,-112 1119.53,-106.73 800.23,-82.72 655.78,-72.09"/>
<polygon fill="midnightblue" stroke="midnightblue" points="655.91,-68.59 645.69,-71.35 655.4,-75.57 655.91,-68.59"/>
</g>
<!-- Node26&#45;&gt;Node6 -->
<g id="edge42" class="edge">
<title>Node26&#45;&gt;Node6</title>
<path fill="none" stroke="midnightblue" d="M1185.58,-168.07C1182.77,-153.62 1175.03,-125.36 1156,-112 1089.1,-65.05 870.04,-92.5 790,-76 727.24,-63.07 656.5,-38.08 616.98,-23.13"/>
<polygon fill="midnightblue" stroke="midnightblue" points="618.22,-19.86 607.63,-19.56 615.73,-26.4 618.22,-19.86"/>
</g>
<!-- Node26&#45;&gt;Node12 -->
<g id="edge38" class="edge">
<title>Node26&#45;&gt;Node12</title>
<path fill="none" stroke="midnightblue" d="M1193.02,-168.26C1201.65,-154.56 1215.01,-127.97 1201,-112 1183.43,-91.96 1024.92,-78.03 929.99,-71.41"/>
<polygon fill="midnightblue" stroke="midnightblue" points="930.09,-67.9 919.87,-70.71 929.61,-74.89 930.09,-67.9"/>
</g>
<!-- Node26&#45;&gt;Node13 -->
<g id="edge41" class="edge">
<title>Node26&#45;&gt;Node13</title>
<path fill="none" stroke="midnightblue" d="M1195.48,-168.23C1203.05,-159.75 1213.6,-146.13 1218,-132 1220.64,-123.51 1220.09,-120.64 1218,-112 1210.3,-80.21 1190.75,-47.22 1177.94,-27.92"/>
<polygon fill="midnightblue" stroke="midnightblue" points="1180.8,-25.91 1172.27,-19.62 1175.01,-29.85 1180.8,-25.91"/>
</g>
<!-- Node27 -->
<g id="node27" class="node">
<title>Node27</title>
<g id="a_node27"><a xlink:title=" ">
<polygon fill="none" stroke="#bfbfbf" points="997,-112.5 997,-131.5 1053,-131.5 1053,-112.5 997,-112.5"/>
<text text-anchor="middle" x="1025" y="-119.5" font-family="FreeSans.ttf" font-size="10.00">sstream</text>
</a>
</g>
</g>
<!-- Node26&#45;&gt;Node27 -->
<g id="edge40" class="edge">
<title>Node26&#45;&gt;Node27</title>
<path fill="none" stroke="midnightblue" d="M1161.33,-168.44C1134.08,-159.36 1090.82,-144.94 1060.35,-134.78"/>
<polygon fill="midnightblue" stroke="midnightblue" points="1061.14,-131.36 1050.55,-131.52 1058.93,-138 1061.14,-131.36"/>
</g>
<!-- Node28 -->
<g id="node28" class="node">
<title>Node28</title>
<g id="a_node28"><a xlink:title=" ">
<polygon fill="none" stroke="#bfbfbf" points="1071,-112.5 1071,-131.5 1121,-131.5 1121,-112.5 1071,-112.5"/>
<text text-anchor="middle" x="1096" y="-119.5" font-family="FreeSans.ttf" font-size="10.00">cstring</text>
</a>
</g>
</g>
<!-- Node26&#45;&gt;Node28 -->
<g id="edge43" class="edge">
<title>Node26&#45;&gt;Node28</title>
<path fill="none" stroke="midnightblue" d="M1172.38,-168.32C1158.05,-159.82 1135.99,-146.73 1119.25,-136.8"/>
<polygon fill="midnightblue" stroke="midnightblue" points="1120.97,-133.75 1110.58,-131.65 1117.4,-139.77 1120.97,-133.75"/>
</g>
<!-- Node29&#45;&gt;Node4 -->
<g id="edge46" class="edge">
<title>Node29&#45;&gt;Node4</title>
<path fill="none" stroke="midnightblue" d="M853.43,-280.24C841.16,-266.52 815.6,-239.89 789,-224 748.09,-199.57 727.18,-215.12 688,-188 669.65,-175.3 653.82,-154.98 643.92,-140.44"/>
<polygon fill="midnightblue" stroke="midnightblue" points="646.7,-138.31 638.3,-131.86 640.85,-142.14 646.7,-138.31"/>
</g>
<!-- Node29&#45;&gt;Node26 -->
<g id="edge59" class="edge">
<title>Node29&#45;&gt;Node26</title>
<path fill="none" stroke="midnightblue" d="M893.12,-280.48C922.26,-272.36 966.17,-259.16 1003,-244 1021.01,-236.59 1023.96,-231.36 1042,-224 1075.51,-210.33 1114.79,-198.38 1144.01,-190.23"/>
<polygon fill="midnightblue" stroke="midnightblue" points="1145.18,-193.54 1153.9,-187.51 1143.33,-186.79 1145.18,-193.54"/>
</g>
<!-- Node30 -->
<g id="node30" class="node">
<title>Node30</title>
<g id="a_node30"><a xlink:href="GeomVector3_8h.html" target="_top" xlink:title=" ">
<polygon fill="none" stroke="black" points="1050.5,-224.5 1050.5,-243.5 1213.5,-243.5 1213.5,-224.5 1050.5,-224.5"/>
<text text-anchor="middle" x="1132" y="-231.5" font-family="FreeSans.ttf" font-size="10.00">iDynTree/Core/GeomVector3.h</text>
</a>
</g>
</g>
<!-- Node29&#45;&gt;Node30 -->
<g id="edge47" class="edge">
<title>Node29&#45;&gt;Node30</title>
<path fill="none" stroke="midnightblue" d="M903.94,-280.44C951.51,-270.96 1028.24,-255.67 1079.39,-245.48"/>
<polygon fill="midnightblue" stroke="midnightblue" points="1080.14,-248.9 1089.26,-243.52 1078.77,-242.04 1080.14,-248.9"/>
</g>
<!-- Node31 -->
<g id="node31" class="node">
<title>Node31</title>
<g id="a_node31"><a xlink:href="RotationRaw_8h.html" target="_top" xlink:title=" ">
<polygon fill="none" stroke="black" points="836,-224.5 836,-243.5 994,-243.5 994,-224.5 836,-224.5"/>
<text text-anchor="middle" x="915" y="-231.5" font-family="FreeSans.ttf" font-size="10.00">iDynTree/Core/RotationRaw.h</text>
</a>
</g>
</g>
<!-- Node29&#45;&gt;Node31 -->
<g id="edge49" class="edge">
<title>Node29&#45;&gt;Node31</title>
<path fill="none" stroke="midnightblue" d="M869.92,-280.08C877.78,-272.22 889.43,-260.57 898.92,-251.08"/>
<polygon fill="midnightblue" stroke="midnightblue" points="901.65,-253.3 906.25,-243.75 896.7,-248.35 901.65,-253.3"/>
</g>
<!-- Node30&#45;&gt;Node26 -->
<g id="edge48" class="edge">
<title>Node30&#45;&gt;Node26</title>
<path fill="none" stroke="midnightblue" d="M1141.08,-224.08C1149.17,-216.14 1161.2,-204.34 1170.91,-194.8"/>
<polygon fill="midnightblue" stroke="midnightblue" points="1173.4,-197.25 1178.09,-187.75 1168.5,-192.26 1173.4,-197.25"/>
</g>
<!-- Node31&#45;&gt;Node4 -->
<g id="edge58" class="edge">
<title>Node31&#45;&gt;Node4</title>
<path fill="none" stroke="midnightblue" d="M857.11,-224.5C819.5,-217.66 770.02,-206.14 729,-188 699.44,-174.93 669.19,-152.68 650.75,-137.92"/>
<polygon fill="midnightblue" stroke="midnightblue" points="652.89,-135.14 642.93,-131.53 648.46,-140.56 652.89,-135.14"/>
</g>
<!-- Node31&#45;&gt;Node32 -->
<g id="edge50" class="edge">
<title>Node31&#45;&gt;Node32</title>
<path fill="none" stroke="midnightblue" d="M929.62,-224.32C943.95,-215.82 966.01,-202.73 982.75,-192.8"/>
<polygon fill="midnightblue" stroke="midnightblue" points="984.6,-195.77 991.42,-187.65 981.03,-189.75 984.6,-195.77"/>
</g>
<!-- Node32&#45;&gt;Node4 -->
<g id="edge55" class="edge">
<title>Node32&#45;&gt;Node4</title>
<path fill="none" stroke="midnightblue" d="M924.21,-168.68C855.71,-161.09 755.53,-148.54 669,-132 667.75,-131.76 666.49,-131.51 665.21,-131.24"/>
<polygon fill="midnightblue" stroke="midnightblue" points="665.91,-127.81 655.38,-129.01 664.36,-134.64 665.91,-127.81"/>
</g>
<!-- Node32&#45;&gt;Node5 -->
<g id="edge51" class="edge">
<title>Node32&#45;&gt;Node5</title>
<path fill="none" stroke="midnightblue" d="M926.14,-168.5C850.37,-159.83 742.27,-145.74 702,-132 697.13,-130.34 642.72,-99.43 610.18,-80.84"/>
<polygon fill="midnightblue" stroke="midnightblue" points="611.67,-77.66 601.25,-75.74 608.19,-83.74 611.67,-77.66"/>
</g>
<!-- Node32&#45;&gt;Node13 -->
<g id="edge53" class="edge">
<title>Node32&#45;&gt;Node13</title>
<path fill="none" stroke="midnightblue" d="M999.67,-168.46C990.9,-155.5 977.28,-130.42 988,-112 1004.53,-83.62 1089.99,-43.57 1136.22,-23.49"/>
<polygon fill="midnightblue" stroke="midnightblue" points="1137.65,-26.69 1145.46,-19.52 1134.89,-20.26 1137.65,-26.69"/>
</g>
<!-- Node32&#45;&gt;Node22 -->
<g id="edge52" class="edge">
<title>Node32&#45;&gt;Node22</title>
<path fill="none" stroke="midnightblue" d="M971.3,-168.44C933.42,-159.1 872.65,-144.12 831.34,-133.93"/>
<polygon fill="midnightblue" stroke="midnightblue" points="832.09,-130.51 821.54,-131.52 830.41,-137.31 832.09,-130.51"/>
</g>
<!-- Node32&#45;&gt;Node27 -->
<g id="edge57" class="edge">
<title>Node32&#45;&gt;Node27</title>
<path fill="none" stroke="midnightblue" d="M1009.14,-168.08C1011.68,-160.85 1015.36,-150.41 1018.53,-141.4"/>
<polygon fill="midnightblue" stroke="midnightblue" points="1021.9,-142.35 1021.92,-131.75 1015.3,-140.02 1021.9,-142.35"/>
</g>
<!-- Node32&#45;&gt;Node28 -->
<g id="edge54" class="edge">
<title>Node32&#45;&gt;Node28</title>
<path fill="none" stroke="midnightblue" d="M1020.46,-168.32C1034.5,-159.9 1056.05,-146.97 1072.54,-137.07"/>
<polygon fill="midnightblue" stroke="midnightblue" points="1074.8,-139.8 1081.58,-131.65 1071.2,-133.8 1074.8,-139.8"/>
</g>
<!-- Node33 -->
<g id="node33" class="node">
<title>Node33</title>
<g id="a_node33"><a xlink:title=" ">
<polygon fill="none" stroke="#bfbfbf" points="881,-112.5 881,-131.5 941,-131.5 941,-112.5 881,-112.5"/>
<text text-anchor="middle" x="911" y="-119.5" font-family="FreeSans.ttf" font-size="10.00">iostream</text>
</a>
</g>
</g>
<!-- Node32&#45;&gt;Node33 -->
<g id="edge56" class="edge">
<title>Node32&#45;&gt;Node33</title>
<path fill="none" stroke="midnightblue" d="M990.74,-168.32C975.78,-159.82 952.75,-146.73 935.27,-136.8"/>
<polygon fill="midnightblue" stroke="midnightblue" points="936.65,-133.55 926.23,-131.65 933.19,-139.64 936.65,-133.55"/>
</g>
</g>
</svg>
