<?xml version="1.0" encoding="UTF-8" standalone="no"?>
<!DOCTYPE svg PUBLIC "-//W3C//DTD SVG 1.1//EN"
 "http://www.w3.org/Graphics/SVG/1.1/DTD/svg11.dtd">
<!-- Generated by graphviz version 2.43.0 (0)
 -->
<!-- Title: OptimalControlProblem.h Pages: 1 -->
<svg width="606pt" height="84pt"
 viewBox="0.00 0.00 605.50 84.00" xmlns="http://www.w3.org/2000/svg" xmlns:xlink="http://www.w3.org/1999/xlink">
<g id="graph0" class="graph" transform="scale(1 1) rotate(0) translate(4 80)">
<title>OptimalControlProblem.h</title>
<!-- Node1 -->
<g id="node1" class="node">
<title>Node1</title>
<g id="a_node1"><a xlink:title=" ">
<polygon fill="#bfbfbf" stroke="black" points="207,-56.5 207,-75.5 347,-75.5 347,-56.5 207,-56.5"/>
<text text-anchor="middle" x="277" y="-63.5" font-family="FreeSans.ttf" font-size="10.00">OptimalControlProblem.h</text>
</a>
</g>
</g>
<!-- Node2 -->
<g id="node2" class="node">
<title>Node2</title>
<g id="a_node2"><a xlink:href="OptimalControl_8h.html" target="_top" xlink:title=" ">
<polygon fill="none" stroke="black" points="0,-0.5 0,-19.5 100,-19.5 100,-0.5 0,-0.5"/>
<text text-anchor="middle" x="50" y="-7.5" font-family="FreeSans.ttf" font-size="10.00">OptimalControl.h</text>
</a>
</g>
</g>
<!-- Node1&#45;&gt;Node2 -->
<g id="edge1" class="edge">
<title>Node1&#45;&gt;Node2</title>
<path fill="none" stroke="midnightblue" d="M231.13,-54.09C188.25,-43.89 125.08,-28.86 85.8,-19.52"/>
<polygon fill="midnightblue" stroke="midnightblue" points="230.49,-57.53 241.03,-56.44 232.11,-50.72 230.49,-57.53"/>
</g>
<!-- Node3 -->
<g id="node3" class="node">
<title>Node3</title>
<g id="a_node3"><a xlink:href="MultipleShootingSolver_8cpp.html" target="_top" xlink:title=" ">
<polygon fill="none" stroke="black" points="118.5,-0.5 118.5,-19.5 267.5,-19.5 267.5,-0.5 118.5,-0.5"/>
<text text-anchor="middle" x="193" y="-7.5" font-family="FreeSans.ttf" font-size="10.00">MultipleShootingSolver.cpp</text>
</a>
</g>
</g>
<!-- Node1&#45;&gt;Node3 -->
<g id="edge2" class="edge">
<title>Node1&#45;&gt;Node3</title>
<path fill="none" stroke="midnightblue" d="M255.07,-50.9C239.66,-41 219.55,-28.07 206.46,-19.65"/>
<polygon fill="midnightblue" stroke="midnightblue" points="253.2,-53.86 263.5,-56.32 256.98,-47.97 253.2,-53.86"/>
</g>
<!-- Node4 -->
<g id="node4" class="node">
<title>Node4</title>
<g id="a_node4"><a xlink:href="OptimalControlProblem_8cpp.html" target="_top" xlink:title=" ">
<polygon fill="none" stroke="black" points="286,-0.5 286,-19.5 438,-19.5 438,-0.5 286,-0.5"/>
<text text-anchor="middle" x="362" y="-7.5" font-family="FreeSans.ttf" font-size="10.00">OptimalControlProblem.cpp</text>
</a>
</g>
</g>
<!-- Node1&#45;&gt;Node4 -->
<g id="edge3" class="edge">
<title>Node1&#45;&gt;Node4</title>
<path fill="none" stroke="midnightblue" d="M299.19,-50.9C314.78,-41 335.13,-28.07 348.38,-19.65"/>
<polygon fill="midnightblue" stroke="midnightblue" points="297.22,-48.01 290.66,-56.32 300.97,-53.92 297.22,-48.01"/>
</g>
<!-- Node5 -->
<g id="node5" class="node">
<title>Node5</title>
<g id="a_node5"><a xlink:href="OptimalControlSolver_8cpp.html" target="_top" xlink:title=" ">
<polygon fill="none" stroke="black" points="456.5,-0.5 456.5,-19.5 597.5,-19.5 597.5,-0.5 456.5,-0.5"/>
<text text-anchor="middle" x="527" y="-7.5" font-family="FreeSans.ttf" font-size="10.00">OptimalControlSolver.cpp</text>
</a>
</g>
</g>
<!-- Node1&#45;&gt;Node5 -->
<g id="edge4" class="edge">
<title>Node1&#45;&gt;Node5</title>
<path fill="none" stroke="midnightblue" d="M326.62,-54.28C373.87,-44.08 444.04,-28.92 487.57,-19.52"/>
<polygon fill="midnightblue" stroke="midnightblue" points="325.65,-50.91 316.61,-56.44 327.13,-57.75 325.65,-50.91"/>
</g>
</g>
</svg>
