<?xml version="1.0" encoding="UTF-8" standalone="no"?>
<!DOCTYPE svg PUBLIC "-//W3C//DTD SVG 1.1//EN"
 "http://www.w3.org/Graphics/SVG/1.1/DTD/svg11.dtd">
<!-- Generated by graphviz version 2.43.0 (0)
 -->
<!-- Title: Optimizer.h Pages: 1 -->
<svg width="1495pt" height="140pt"
 viewBox="0.00 0.00 1494.50 140.00" xmlns="http://www.w3.org/2000/svg" xmlns:xlink="http://www.w3.org/1999/xlink">
<g id="graph0" class="graph" transform="scale(1 1) rotate(0) translate(4 136)">
<title>Optimizer.h</title>
<!-- Node1 -->
<g id="node1" class="node">
<title>Node1</title>
<g id="a_node1"><a xlink:title=" ">
<polygon fill="#bfbfbf" stroke="black" points="766,-112.5 766,-131.5 839,-131.5 839,-112.5 766,-112.5"/>
<text text-anchor="middle" x="802.5" y="-119.5" font-family="FreeSans.ttf" font-size="10.00">Optimizer.h</text>
</a>
</g>
</g>
<!-- Node2 -->
<g id="node2" class="node">
<title>Node2</title>
<g id="a_node2"><a xlink:href="MultipleShootingSolver_8h.html" target="_top" xlink:title=" ">
<polygon fill="none" stroke="black" points="95.5,-56.5 95.5,-75.5 233.5,-75.5 233.5,-56.5 95.5,-56.5"/>
<text text-anchor="middle" x="164.5" y="-63.5" font-family="FreeSans.ttf" font-size="10.00">MultipleShootingSolver.h</text>
</a>
</g>
</g>
<!-- Node1&#45;&gt;Node2 -->
<g id="edge1" class="edge">
<title>Node1&#45;&gt;Node2</title>
<path fill="none" stroke="midnightblue" d="M755.69,-117.04C644.54,-107.63 364.29,-83.91 233.6,-72.85"/>
<polygon fill="midnightblue" stroke="midnightblue" points="755.65,-120.55 765.91,-117.9 756.24,-113.57 755.65,-120.55"/>
</g>
<!-- Node4 -->
<g id="node4" class="node">
<title>Node4</title>
<g id="a_node4"><a xlink:href="AlglibInterface_8h.html" target="_top" xlink:title=" ">
<polygon fill="none" stroke="black" points="341,-56.5 341,-75.5 438,-75.5 438,-56.5 341,-56.5"/>
<text text-anchor="middle" x="389.5" y="-63.5" font-family="FreeSans.ttf" font-size="10.00">AlglibInterface.h</text>
</a>
</g>
</g>
<!-- Node1&#45;&gt;Node4 -->
<g id="edge3" class="edge">
<title>Node1&#45;&gt;Node4</title>
<path fill="none" stroke="midnightblue" d="M755.72,-114.88C676.81,-104.57 518.06,-83.81 438.01,-73.34"/>
<polygon fill="midnightblue" stroke="midnightblue" points="755.48,-118.38 765.85,-116.21 756.39,-111.44 755.48,-118.38"/>
</g>
<!-- Node7 -->
<g id="node7" class="node">
<title>Node7</title>
<g id="a_node7"><a xlink:href="IpoptInterface_8h.html" target="_top" xlink:title=" ">
<polygon fill="none" stroke="black" points="673.5,-56.5 673.5,-75.5 767.5,-75.5 767.5,-56.5 673.5,-56.5"/>
<text text-anchor="middle" x="720.5" y="-63.5" font-family="FreeSans.ttf" font-size="10.00">IpoptInterface.h</text>
</a>
</g>
</g>
<!-- Node1&#45;&gt;Node7 -->
<g id="edge6" class="edge">
<title>Node1&#45;&gt;Node7</title>
<path fill="none" stroke="midnightblue" d="M780.67,-106.62C765.69,-96.76 746.3,-83.99 733.64,-75.65"/>
<polygon fill="midnightblue" stroke="midnightblue" points="779.05,-109.75 789.33,-112.32 782.9,-103.9 779.05,-109.75"/>
</g>
<!-- Node10 -->
<g id="node10" class="node">
<title>Node10</title>
<g id="a_node10"><a xlink:href="OsqpInterface_8h.html" target="_top" xlink:title=" ">
<polygon fill="none" stroke="black" points="838.5,-56.5 838.5,-75.5 932.5,-75.5 932.5,-56.5 838.5,-56.5"/>
<text text-anchor="middle" x="885.5" y="-63.5" font-family="FreeSans.ttf" font-size="10.00">OsqpInterface.h</text>
</a>
</g>
</g>
<!-- Node1&#45;&gt;Node10 -->
<g id="edge9" class="edge">
<title>Node1&#45;&gt;Node10</title>
<path fill="none" stroke="midnightblue" d="M824.6,-106.62C839.76,-96.76 859.38,-83.99 872.2,-75.65"/>
<polygon fill="midnightblue" stroke="midnightblue" points="822.31,-103.94 815.84,-112.32 826.13,-109.8 822.31,-103.94"/>
</g>
<!-- Node13 -->
<g id="node13" class="node">
<title>Node13</title>
<g id="a_node13"><a xlink:href="WorhpInterface_8h.html" target="_top" xlink:title=" ">
<polygon fill="none" stroke="black" points="1059.5,-56.5 1059.5,-75.5 1159.5,-75.5 1159.5,-56.5 1059.5,-56.5"/>
<text text-anchor="middle" x="1109.5" y="-63.5" font-family="FreeSans.ttf" font-size="10.00">WorhpInterface.h</text>
</a>
</g>
</g>
<!-- Node1&#45;&gt;Node13 -->
<g id="edge12" class="edge">
<title>Node1&#45;&gt;Node13</title>
<path fill="none" stroke="midnightblue" d="M849.1,-112.8C906.36,-102.73 1003.05,-85.72 1061.12,-75.51"/>
<polygon fill="midnightblue" stroke="midnightblue" points="848.47,-109.36 839.23,-114.54 849.68,-116.25 848.47,-109.36"/>
</g>
<!-- Node16 -->
<g id="node16" class="node">
<title>Node16</title>
<g id="a_node16"><a xlink:href="Optimizer_8cpp.html" target="_top" xlink:title=" ">
<polygon fill="none" stroke="black" points="1177.5,-56.5 1177.5,-75.5 1261.5,-75.5 1261.5,-56.5 1177.5,-56.5"/>
<text text-anchor="middle" x="1219.5" y="-63.5" font-family="FreeSans.ttf" font-size="10.00">Optimizer.cpp</text>
</a>
</g>
</g>
<!-- Node1&#45;&gt;Node16 -->
<g id="edge15" class="edge">
<title>Node1&#45;&gt;Node16</title>
<path fill="none" stroke="midnightblue" d="M849.42,-116.03C919.16,-108.45 1054.23,-93.1 1168.5,-76 1171.35,-75.57 1174.28,-75.11 1177.23,-74.64"/>
<polygon fill="midnightblue" stroke="midnightblue" points="848.78,-112.58 839.21,-117.13 849.53,-119.53 848.78,-112.58"/>
</g>
<!-- Node3 -->
<g id="node3" class="node">
<title>Node3</title>
<g id="a_node3"><a xlink:href="MultipleShootingSolver_8cpp.html" target="_top" xlink:title=" ">
<polygon fill="none" stroke="black" points="0,-0.5 0,-19.5 149,-19.5 149,-0.5 0,-0.5"/>
<text text-anchor="middle" x="74.5" y="-7.5" font-family="FreeSans.ttf" font-size="10.00">MultipleShootingSolver.cpp</text>
</a>
</g>
</g>
<!-- Node2&#45;&gt;Node3 -->
<g id="edge2" class="edge">
<title>Node2&#45;&gt;Node3</title>
<path fill="none" stroke="midnightblue" d="M141.46,-51.18C124.9,-41.24 103.08,-28.15 88.92,-19.65"/>
<polygon fill="midnightblue" stroke="midnightblue" points="139.66,-54.18 150.04,-56.32 143.27,-48.18 139.66,-54.18"/>
</g>
<!-- Node5 -->
<g id="node5" class="node">
<title>Node5</title>
<g id="a_node5"><a xlink:href="AlglibInterface_8cpp.html" target="_top" xlink:title=" ">
<polygon fill="none" stroke="black" points="167.5,-0.5 167.5,-19.5 275.5,-19.5 275.5,-0.5 167.5,-0.5"/>
<text text-anchor="middle" x="221.5" y="-7.5" font-family="FreeSans.ttf" font-size="10.00">AlglibInterface.cpp</text>
</a>
</g>
</g>
<!-- Node4&#45;&gt;Node5 -->
<g id="edge4" class="edge">
<title>Node4&#45;&gt;Node5</title>
<path fill="none" stroke="midnightblue" d="M353.11,-53.3C321.46,-43.13 276.33,-28.62 248,-19.52"/>
<polygon fill="midnightblue" stroke="midnightblue" points="352.29,-56.72 362.88,-56.44 354.43,-50.05 352.29,-56.72"/>
</g>
<!-- Node6 -->
<g id="node6" class="node">
<title>Node6</title>
<g id="a_node6"><a xlink:href="AlglibInterfaceNotImplemented_8cpp.html" target="_top" xlink:title=" ">
<polygon fill="none" stroke="black" points="294,-0.5 294,-19.5 485,-19.5 485,-0.5 294,-0.5"/>
<text text-anchor="middle" x="389.5" y="-7.5" font-family="FreeSans.ttf" font-size="10.00">AlglibInterfaceNotImplemented.cpp</text>
</a>
</g>
</g>
<!-- Node4&#45;&gt;Node6 -->
<g id="edge5" class="edge">
<title>Node4&#45;&gt;Node6</title>
<path fill="none" stroke="midnightblue" d="M389.5,-45.8C389.5,-36.91 389.5,-26.78 389.5,-19.75"/>
<polygon fill="midnightblue" stroke="midnightblue" points="386,-46.08 389.5,-56.08 393,-46.08 386,-46.08"/>
</g>
<!-- Node8 -->
<g id="node8" class="node">
<title>Node8</title>
<g id="a_node8"><a xlink:href="IpoptInterface_8cpp.html" target="_top" xlink:title=" ">
<polygon fill="none" stroke="black" points="503,-0.5 503,-19.5 608,-19.5 608,-0.5 503,-0.5"/>
<text text-anchor="middle" x="555.5" y="-7.5" font-family="FreeSans.ttf" font-size="10.00">IpoptInterface.cpp</text>
</a>
</g>
</g>
<!-- Node7&#45;&gt;Node8 -->
<g id="edge7" class="edge">
<title>Node7&#45;&gt;Node8</title>
<path fill="none" stroke="midnightblue" d="M684.76,-53.3C653.67,-43.13 609.35,-28.62 581.52,-19.52"/>
<polygon fill="midnightblue" stroke="midnightblue" points="683.76,-56.66 694.36,-56.44 685.94,-50.01 683.76,-56.66"/>
</g>
<!-- Node9 -->
<g id="node9" class="node">
<title>Node9</title>
<g id="a_node9"><a xlink:href="IpoptInterfaceNotImplemented_8cpp.html" target="_top" xlink:title=" ">
<polygon fill="none" stroke="black" points="626.5,-0.5 626.5,-19.5 814.5,-19.5 814.5,-0.5 626.5,-0.5"/>
<text text-anchor="middle" x="720.5" y="-7.5" font-family="FreeSans.ttf" font-size="10.00">IpoptInterfaceNotImplemented.cpp</text>
</a>
</g>
</g>
<!-- Node7&#45;&gt;Node9 -->
<g id="edge8" class="edge">
<title>Node7&#45;&gt;Node9</title>
<path fill="none" stroke="midnightblue" d="M720.5,-45.8C720.5,-36.91 720.5,-26.78 720.5,-19.75"/>
<polygon fill="midnightblue" stroke="midnightblue" points="717,-46.08 720.5,-56.08 724,-46.08 717,-46.08"/>
</g>
<!-- Node11 -->
<g id="node11" class="node">
<title>Node11</title>
<g id="a_node11"><a xlink:href="OsqpInterface_8cpp.html" target="_top" xlink:title=" ">
<polygon fill="none" stroke="black" points="833,-0.5 833,-19.5 938,-19.5 938,-0.5 833,-0.5"/>
<text text-anchor="middle" x="885.5" y="-7.5" font-family="FreeSans.ttf" font-size="10.00">OsqpInterface.cpp</text>
</a>
</g>
</g>
<!-- Node10&#45;&gt;Node11 -->
<g id="edge10" class="edge">
<title>Node10&#45;&gt;Node11</title>
<path fill="none" stroke="midnightblue" d="M885.5,-45.8C885.5,-36.91 885.5,-26.78 885.5,-19.75"/>
<polygon fill="midnightblue" stroke="midnightblue" points="882,-46.08 885.5,-56.08 889,-46.08 882,-46.08"/>
</g>
<!-- Node12 -->
<g id="node12" class="node">
<title>Node12</title>
<g id="a_node12"><a xlink:href="OsqpInterfaceNotImplemented_8cpp.html" target="_top" xlink:title=" ">
<polygon fill="none" stroke="black" points="956.5,-0.5 956.5,-19.5 1144.5,-19.5 1144.5,-0.5 956.5,-0.5"/>
<text text-anchor="middle" x="1050.5" y="-7.5" font-family="FreeSans.ttf" font-size="10.00">OsqpInterfaceNotImplemented.cpp</text>
</a>
</g>
</g>
<!-- Node10&#45;&gt;Node12 -->
<g id="edge11" class="edge">
<title>Node10&#45;&gt;Node12</title>
<path fill="none" stroke="midnightblue" d="M921.24,-53.3C952.33,-43.13 996.65,-28.62 1024.48,-19.52"/>
<polygon fill="midnightblue" stroke="midnightblue" points="920.06,-50.01 911.64,-56.44 922.24,-56.66 920.06,-50.01"/>
</g>
<!-- Node14 -->
<g id="node14" class="node">
<title>Node14</title>
<g id="a_node14"><a xlink:href="WorhpInterface_8cpp.html" target="_top" xlink:title=" ">
<polygon fill="none" stroke="black" points="1163,-0.5 1163,-19.5 1274,-19.5 1274,-0.5 1163,-0.5"/>
<text text-anchor="middle" x="1218.5" y="-7.5" font-family="FreeSans.ttf" font-size="10.00">WorhpInterface.cpp</text>
</a>
</g>
</g>
<!-- Node13&#45;&gt;Node14 -->
<g id="edge13" class="edge">
<title>Node13&#45;&gt;Node14</title>
<path fill="none" stroke="midnightblue" d="M1136.02,-51.86C1156.23,-41.85 1183.49,-28.35 1201.03,-19.65"/>
<polygon fill="midnightblue" stroke="midnightblue" points="1134.42,-48.75 1127.01,-56.32 1137.53,-55.02 1134.42,-48.75"/>
</g>
<!-- Node15 -->
<g id="node15" class="node">
<title>Node15</title>
<g id="a_node15"><a xlink:href="WorhpInterfaceNotImplemented_8cpp.html" target="_top" xlink:title=" ">
<polygon fill="none" stroke="black" points="1292.5,-0.5 1292.5,-19.5 1486.5,-19.5 1486.5,-0.5 1292.5,-0.5"/>
<text text-anchor="middle" x="1389.5" y="-7.5" font-family="FreeSans.ttf" font-size="10.00">WorhpInterfaceNotImplemented.cpp</text>
</a>
</g>
</g>
<!-- Node13&#45;&gt;Node15 -->
<g id="edge14" class="edge">
<title>Node13&#45;&gt;Node15</title>
<path fill="none" stroke="midnightblue" d="M1163.75,-54.54C1216.67,-44.33 1296.17,-29 1345.34,-19.52"/>
<polygon fill="midnightblue" stroke="midnightblue" points="1163.02,-51.11 1153.87,-56.44 1164.35,-57.99 1163.02,-51.11"/>
</g>
</g>
</svg>
