<?xml version="1.0" encoding="UTF-8" standalone="no"?>
<!DOCTYPE svg PUBLIC "-//W3C//DTD SVG 1.1//EN"
 "http://www.w3.org/Graphics/SVG/1.1/DTD/svg11.dtd">
<!-- Generated by graphviz version 2.43.0 (0)
 -->
<!-- Title: par2urdf.cpp Pages: 1 -->
<svg width="697pt" height="95pt"
 viewBox="0.00 0.00 697.00 95.00" xmlns="http://www.w3.org/2000/svg" xmlns:xlink="http://www.w3.org/1999/xlink">
<g id="graph0" class="graph" transform="scale(1 1) rotate(0) translate(4 91)">
<title>par2urdf.cpp</title>
<!-- Node1 -->
<g id="node1" class="node">
<title>Node1</title>
<g id="a_node1"><a xlink:title=" ">
<polygon fill="#bfbfbf" stroke="black" points="408,-67.5 408,-86.5 485,-86.5 485,-67.5 408,-67.5"/>
<text text-anchor="middle" x="446.5" y="-74.5" font-family="FreeSans.ttf" font-size="10.00">par2urdf.cpp</text>
</a>
</g>
</g>
<!-- Node2 -->
<g id="node2" class="node">
<title>Node2</title>
<g id="a_node2"><a xlink:title=" ">
<polygon fill="none" stroke="#bfbfbf" points="0,-0.5 0,-30.5 143,-30.5 143,-0.5 0,-0.5"/>
<text text-anchor="start" x="8" y="-18.5" font-family="FreeSans.ttf" font-size="10.00">iDynTree/ModelIO/symoro</text>
<text text-anchor="middle" x="71.5" y="-7.5" font-family="FreeSans.ttf" font-size="10.00">_par_model.hpp</text>
</a>
</g>
</g>
<!-- Node1&#45;&gt;Node2 -->
<g id="edge1" class="edge">
<title>Node1&#45;&gt;Node2</title>
<path fill="none" stroke="midnightblue" d="M407.79,-70.45C353.23,-62.54 250.35,-47.36 153.02,-31.23"/>
<polygon fill="midnightblue" stroke="midnightblue" points="153.45,-27.75 143.01,-29.56 152.3,-34.66 153.45,-27.75"/>
</g>
<!-- Node3 -->
<g id="node3" class="node">
<title>Node3</title>
<g id="a_node3"><a xlink:title=" ">
<polygon fill="none" stroke="#bfbfbf" points="161,-0.5 161,-30.5 304,-30.5 304,-0.5 161,-0.5"/>
<text text-anchor="start" x="169" y="-18.5" font-family="FreeSans.ttf" font-size="10.00">iDynTree/ModelIO/symoro</text>
<text text-anchor="middle" x="232.5" y="-7.5" font-family="FreeSans.ttf" font-size="10.00">_par_import.hpp</text>
</a>
</g>
</g>
<!-- Node1&#45;&gt;Node3 -->
<g id="edge2" class="edge">
<title>Node1&#45;&gt;Node3</title>
<path fill="none" stroke="midnightblue" d="M415.84,-67.48C383.81,-58.57 332.73,-44.37 292.62,-33.22"/>
<polygon fill="midnightblue" stroke="midnightblue" points="293.51,-29.83 282.94,-30.52 291.63,-36.57 293.51,-29.83"/>
</g>
<!-- Node4 -->
<g id="node4" class="node">
<title>Node4</title>
<g id="a_node4"><a xlink:title=" ">
<polygon fill="none" stroke="#bfbfbf" points="322.5,-0.5 322.5,-30.5 450.5,-30.5 450.5,-0.5 322.5,-0.5"/>
<text text-anchor="start" x="330.5" y="-18.5" font-family="FreeSans.ttf" font-size="10.00">iDynTree/ModelIO/impl</text>
<text text-anchor="middle" x="386.5" y="-7.5" font-family="FreeSans.ttf" font-size="10.00">/urdf_export.hpp</text>
</a>
</g>
</g>
<!-- Node1&#45;&gt;Node4 -->
<g id="edge3" class="edge">
<title>Node1&#45;&gt;Node4</title>
<path fill="none" stroke="midnightblue" d="M437.9,-67.48C430.08,-59.72 418.21,-47.94 407.84,-37.66"/>
<polygon fill="midnightblue" stroke="midnightblue" points="410.21,-35.08 400.64,-30.52 405.28,-40.05 410.21,-35.08"/>
</g>
<!-- Node5 -->
<g id="node5" class="node">
<title>Node5</title>
<g id="a_node5"><a xlink:title=" ">
<polygon fill="none" stroke="#bfbfbf" points="469,-6 469,-25 544,-25 544,-6 469,-6"/>
<text text-anchor="middle" x="506.5" y="-13" font-family="FreeSans.ttf" font-size="10.00">kdl/tree.hpp</text>
</a>
</g>
</g>
<!-- Node1&#45;&gt;Node5 -->
<g id="edge4" class="edge">
<title>Node1&#45;&gt;Node5</title>
<path fill="none" stroke="midnightblue" d="M455.1,-67.48C464.36,-58.28 479.32,-43.46 490.71,-32.16"/>
<polygon fill="midnightblue" stroke="midnightblue" points="493.28,-34.54 497.92,-25.01 488.35,-29.57 493.28,-34.54"/>
</g>
<!-- Node6 -->
<g id="node6" class="node">
<title>Node6</title>
<g id="a_node6"><a xlink:title=" ">
<polygon fill="none" stroke="#bfbfbf" points="561.5,-6 561.5,-25 621.5,-25 621.5,-6 561.5,-6"/>
<text text-anchor="middle" x="591.5" y="-13" font-family="FreeSans.ttf" font-size="10.00">iostream</text>
</a>
</g>
</g>
<!-- Node1&#45;&gt;Node6 -->
<g id="edge5" class="edge">
<title>Node1&#45;&gt;Node6</title>
<path fill="none" stroke="midnightblue" d="M467.27,-67.48C491.93,-57.36 533.25,-40.4 561.4,-28.85"/>
<polygon fill="midnightblue" stroke="midnightblue" points="562.84,-32.04 570.76,-25.01 560.18,-25.57 562.84,-32.04"/>
</g>
<!-- Node7 -->
<g id="node7" class="node">
<title>Node7</title>
<g id="a_node7"><a xlink:title=" ">
<polygon fill="none" stroke="#bfbfbf" points="640,-6 640,-25 689,-25 689,-6 640,-6"/>
<text text-anchor="middle" x="664.5" y="-13" font-family="FreeSans.ttf" font-size="10.00">cstdlib</text>
</a>
</g>
</g>
<!-- Node1&#45;&gt;Node7 -->
<g id="edge6" class="edge">
<title>Node1&#45;&gt;Node7</title>
<path fill="none" stroke="midnightblue" d="M485.08,-68.48C522.67,-60.71 581.2,-47.42 630.5,-31 632.42,-30.36 634.38,-29.66 636.34,-28.92"/>
<polygon fill="midnightblue" stroke="midnightblue" points="638.03,-32.01 646.01,-25.03 635.42,-25.52 638.03,-32.01"/>
</g>
</g>
</svg>
