<?xml version="1.0" encoding="UTF-8" standalone="no"?>
<!DOCTYPE svg PUBLIC "-//W3C//DTD SVG 1.1//EN"
 "http://www.w3.org/Graphics/SVG/1.1/DTD/svg11.dtd">
<!-- Generated by graphviz version 2.43.0 (0)
 -->
<!-- Title: PrismaticJoint.h Pages: 1 -->
<svg width="1385pt" height="543pt"
 viewBox="0.00 0.00 1384.50 543.00" xmlns="http://www.w3.org/2000/svg" xmlns:xlink="http://www.w3.org/1999/xlink">
<g id="graph0" class="graph" transform="scale(1 1) rotate(0) translate(4 539)">
<title>PrismaticJoint.h</title>
<!-- Node1 -->
<g id="node1" class="node">
<title>Node1</title>
<g id="a_node1"><a xlink:title=" ">
<polygon fill="#bfbfbf" stroke="black" points="1007.5,-515.5 1007.5,-534.5 1100.5,-534.5 1100.5,-515.5 1007.5,-515.5"/>
<text text-anchor="middle" x="1054" y="-522.5" font-family="FreeSans.ttf" font-size="10.00">PrismaticJoint.h</text>
</a>
</g>
</g>
<!-- Node2 -->
<g id="node2" class="node">
<title>Node2</title>
<g id="a_node2"><a xlink:href="Transform_8h.html" target="_top" xlink:title=" ">
<polygon fill="none" stroke="black" points="732,-392.5 732,-411.5 878,-411.5 878,-392.5 732,-392.5"/>
<text text-anchor="middle" x="805" y="-399.5" font-family="FreeSans.ttf" font-size="10.00">iDynTree/Core/Transform.h</text>
</a>
</g>
</g>
<!-- Node1&#45;&gt;Node2 -->
<g id="edge1" class="edge">
<title>Node1&#45;&gt;Node2</title>
<path fill="none" stroke="midnightblue" d="M1036.49,-515.49C993.64,-494.67 883.29,-441.04 831.97,-416.11"/>
<polygon fill="midnightblue" stroke="midnightblue" points="833.35,-412.88 822.82,-411.66 830.29,-419.18 833.35,-412.88"/>
</g>
<!-- Node27 -->
<g id="node27" class="node">
<title>Node27</title>
<g id="a_node27"><a xlink:href="SpatialMotionVector_8h.html" target="_top" xlink:title=" ">
<polygon fill="none" stroke="black" points="175.5,-448.5 175.5,-478.5 330.5,-478.5 330.5,-448.5 175.5,-448.5"/>
<text text-anchor="start" x="183.5" y="-466.5" font-family="FreeSans.ttf" font-size="10.00">iDynTree/Core/SpatialMotion</text>
<text text-anchor="middle" x="253" y="-455.5" font-family="FreeSans.ttf" font-size="10.00">Vector.h</text>
</a>
</g>
</g>
<!-- Node1&#45;&gt;Node27 -->
<g id="edge47" class="edge">
<title>Node1&#45;&gt;Node27</title>
<path fill="none" stroke="midnightblue" d="M1007.47,-520.54C877.73,-510.91 510.38,-483.62 340.79,-471.02"/>
<polygon fill="midnightblue" stroke="midnightblue" points="340.88,-467.52 330.65,-470.27 340.36,-474.5 340.88,-467.52"/>
</g>
<!-- Node29 -->
<g id="node29" class="node">
<title>Node29</title>
<g id="a_node29"><a xlink:href="Axis_8h.html" target="_top" xlink:title=" ">
<polygon fill="none" stroke="black" points="995,-392.5 995,-411.5 1113,-411.5 1113,-392.5 995,-392.5"/>
<text text-anchor="middle" x="1054" y="-399.5" font-family="FreeSans.ttf" font-size="10.00">iDynTree/Core/Axis.h</text>
</a>
</g>
</g>
<!-- Node1&#45;&gt;Node29 -->
<g id="edge57" class="edge">
<title>Node1&#45;&gt;Node29</title>
<path fill="none" stroke="midnightblue" d="M1054,-515.3C1054,-495.85 1054,-448.49 1054,-421.9"/>
<polygon fill="midnightblue" stroke="midnightblue" points="1057.5,-421.62 1054,-411.62 1050.5,-421.62 1057.5,-421.62"/>
</g>
<!-- Node31 -->
<g id="node31" class="node">
<title>Node31</title>
<g id="a_node31"><a xlink:href="Indices_8h.html" target="_top" xlink:title=" ">
<polygon fill="none" stroke="black" points="1232.5,-336.5 1232.5,-355.5 1371.5,-355.5 1371.5,-336.5 1232.5,-336.5"/>
<text text-anchor="middle" x="1302" y="-343.5" font-family="FreeSans.ttf" font-size="10.00">iDynTree/Model/Indices.h</text>
</a>
</g>
</g>
<!-- Node1&#45;&gt;Node31 -->
<g id="edge65" class="edge">
<title>Node1&#45;&gt;Node31</title>
<path fill="none" stroke="midnightblue" d="M1064.62,-515.23C1091.23,-493.4 1163.22,-435.27 1227,-392 1243.39,-380.88 1262.55,-369.41 1277.4,-360.83"/>
<polygon fill="midnightblue" stroke="midnightblue" points="1279.52,-363.65 1286.46,-355.65 1276.04,-357.58 1279.52,-363.65"/>
</g>
<!-- Node33 -->
<g id="node33" class="node">
<title>Node33</title>
<g id="a_node33"><a xlink:href="MovableJointImpl_8h.html" target="_top" xlink:title=" ">
<polygon fill="none" stroke="black" points="1190.5,-448.5 1190.5,-478.5 1349.5,-478.5 1349.5,-448.5 1190.5,-448.5"/>
<text text-anchor="start" x="1198.5" y="-466.5" font-family="FreeSans.ttf" font-size="10.00">iDynTree/Model/MovableJoint</text>
<text text-anchor="middle" x="1270" y="-455.5" font-family="FreeSans.ttf" font-size="10.00">Impl.h</text>
</a>
</g>
</g>
<!-- Node1&#45;&gt;Node33 -->
<g id="edge69" class="edge">
<title>Node1&#45;&gt;Node33</title>
<path fill="none" stroke="midnightblue" d="M1084.95,-515.48C1117.28,-506.57 1168.83,-492.37 1209.32,-481.22"/>
<polygon fill="midnightblue" stroke="midnightblue" points="1210.38,-484.55 1219.09,-478.52 1208.52,-477.8 1210.38,-484.55"/>
</g>
<!-- Node3 -->
<g id="node3" class="node">
<title>Node3</title>
<g id="a_node3"><a xlink:href="Position_8h.html" target="_top" xlink:title=" ">
<polygon fill="none" stroke="black" points="737,-336.5 737,-355.5 873,-355.5 873,-336.5 737,-336.5"/>
<text text-anchor="middle" x="805" y="-343.5" font-family="FreeSans.ttf" font-size="10.00">iDynTree/Core/Position.h</text>
</a>
</g>
</g>
<!-- Node2&#45;&gt;Node3 -->
<g id="edge2" class="edge">
<title>Node2&#45;&gt;Node3</title>
<path fill="none" stroke="midnightblue" d="M805,-392.08C805,-385.01 805,-374.86 805,-365.99"/>
<polygon fill="midnightblue" stroke="midnightblue" points="808.5,-365.75 805,-355.75 801.5,-365.75 808.5,-365.75"/>
</g>
<!-- Node18 -->
<g id="node18" class="node">
<title>Node18</title>
<g id="a_node18"><a xlink:title=" ">
<polygon fill="none" stroke="#bfbfbf" points="880,-112.5 880,-131.5 924,-131.5 924,-112.5 880,-112.5"/>
<text text-anchor="middle" x="902" y="-119.5" font-family="FreeSans.ttf" font-size="10.00">string</text>
</a>
</g>
</g>
<!-- Node2&#45;&gt;Node18 -->
<g id="edge46" class="edge">
<title>Node2&#45;&gt;Node18</title>
<path fill="none" stroke="midnightblue" d="M836.25,-392.42C878.6,-378.66 949,-347.31 949,-291 949,-291 949,-291 949,-233 949,-197.7 928.28,-160.79 914.36,-139.96"/>
<polygon fill="midnightblue" stroke="midnightblue" points="917.12,-137.8 908.54,-131.59 911.37,-141.8 917.12,-137.8"/>
</g>
<!-- Node21 -->
<g id="node21" class="node">
<title>Node21</title>
<g id="a_node21"><a xlink:href="Rotation_8h.html" target="_top" xlink:title=" ">
<polygon fill="none" stroke="black" points="592,-280.5 592,-299.5 730,-299.5 730,-280.5 592,-280.5"/>
<text text-anchor="middle" x="661" y="-287.5" font-family="FreeSans.ttf" font-size="10.00">iDynTree/Core/Rotation.h</text>
</a>
</g>
</g>
<!-- Node2&#45;&gt;Node21 -->
<g id="edge44" class="edge">
<title>Node2&#45;&gt;Node21</title>
<path fill="none" stroke="midnightblue" d="M787.74,-392.45C771.62,-384.12 747.24,-370.61 728,-356 708.36,-341.09 688.4,-320.94 675.44,-307.05"/>
<polygon fill="midnightblue" stroke="midnightblue" points="678.01,-304.68 668.67,-299.68 672.86,-309.41 678.01,-304.68"/>
</g>
<!-- Node24 -->
<g id="node24" class="node">
<title>Node24</title>
<g id="a_node24"><a xlink:href="MatrixFixSize_8h.html" target="_top" xlink:title=" ">
<polygon fill="none" stroke="black" points="182.5,-168.5 182.5,-187.5 345.5,-187.5 345.5,-168.5 182.5,-168.5"/>
<text text-anchor="middle" x="264" y="-175.5" font-family="FreeSans.ttf" font-size="10.00">iDynTree/Core/MatrixFixSize.h</text>
</a>
</g>
</g>
<!-- Node2&#45;&gt;Node24 -->
<g id="edge45" class="edge">
<title>Node2&#45;&gt;Node24</title>
<path fill="none" stroke="midnightblue" d="M731.97,-399.72C620.15,-393.74 406.6,-365.89 284,-244 271.84,-231.91 267.04,-212.63 265.16,-198.2"/>
<polygon fill="midnightblue" stroke="midnightblue" points="268.62,-197.53 264.2,-187.9 261.65,-198.18 268.62,-197.53"/>
</g>
<!-- Node4 -->
<g id="node4" class="node">
<title>Node4</title>
<g id="a_node4"><a xlink:href="PositionRaw_8h.html" target="_top" xlink:title=" ">
<polygon fill="none" stroke="black" points="727,-224.5 727,-243.5 883,-243.5 883,-224.5 727,-224.5"/>
<text text-anchor="middle" x="805" y="-231.5" font-family="FreeSans.ttf" font-size="10.00">iDynTree/Core/PositionRaw.h</text>
</a>
</g>
</g>
<!-- Node3&#45;&gt;Node4 -->
<g id="edge3" class="edge">
<title>Node3&#45;&gt;Node4</title>
<path fill="none" stroke="midnightblue" d="M805,-336.37C805,-318.62 805,-277.67 805,-253.6"/>
<polygon fill="midnightblue" stroke="midnightblue" points="808.5,-253.59 805,-243.59 801.5,-253.59 808.5,-253.59"/>
</g>
<!-- Node3&#45;&gt;Node18 -->
<g id="edge43" class="edge">
<title>Node3&#45;&gt;Node18</title>
<path fill="none" stroke="midnightblue" d="M815.98,-336.41C835.32,-320.55 875.01,-284.56 892,-244 906.2,-210.1 905.7,-166.24 903.93,-141.72"/>
<polygon fill="midnightblue" stroke="midnightblue" points="907.41,-141.3 903.05,-131.64 900.43,-141.91 907.41,-141.3"/>
</g>
<!-- Node3&#45;&gt;Node21 -->
<g id="edge24" class="edge">
<title>Node3&#45;&gt;Node21</title>
<path fill="none" stroke="midnightblue" d="M782.18,-336.44C758.17,-327.44 720.17,-313.19 693.13,-303.05"/>
<polygon fill="midnightblue" stroke="midnightblue" points="694.3,-299.75 683.71,-299.52 691.84,-306.3 694.3,-299.75"/>
</g>
<!-- Node5 -->
<g id="node5" class="node">
<title>Node5</title>
<g id="a_node5"><a xlink:href="VectorFixSize_8h.html" target="_top" xlink:title=" ">
<polygon fill="none" stroke="black" points="471,-168.5 471,-187.5 633,-187.5 633,-168.5 471,-168.5"/>
<text text-anchor="middle" x="552" y="-175.5" font-family="FreeSans.ttf" font-size="10.00">iDynTree/Core/VectorFixSize.h</text>
</a>
</g>
</g>
<!-- Node4&#45;&gt;Node5 -->
<g id="edge4" class="edge">
<title>Node4&#45;&gt;Node5</title>
<path fill="none" stroke="midnightblue" d="M764.91,-224.44C720.68,-215 649.46,-199.8 601.72,-189.61"/>
<polygon fill="midnightblue" stroke="midnightblue" points="602.41,-186.18 591.9,-187.52 600.95,-193.03 602.41,-186.18"/>
</g>
<!-- Node4&#45;&gt;Node18 -->
<g id="edge23" class="edge">
<title>Node4&#45;&gt;Node18</title>
<path fill="none" stroke="midnightblue" d="M812.61,-224.37C828.76,-206.05 866.68,-163.05 887.57,-139.36"/>
<polygon fill="midnightblue" stroke="midnightblue" points="890.44,-141.41 894.42,-131.59 885.18,-136.78 890.44,-141.41"/>
</g>
<!-- Node6 -->
<g id="node6" class="node">
<title>Node6</title>
<g id="a_node6"><a xlink:href="Utils_8h.html" target="_top" xlink:title=" ">
<polygon fill="none" stroke="black" points="622.5,-56.5 622.5,-75.5 741.5,-75.5 741.5,-56.5 622.5,-56.5"/>
<text text-anchor="middle" x="682" y="-63.5" font-family="FreeSans.ttf" font-size="10.00">iDynTree/Core/Utils.h</text>
</a>
</g>
</g>
<!-- Node5&#45;&gt;Node6 -->
<g id="edge5" class="edge">
<title>Node5&#45;&gt;Node6</title>
<path fill="none" stroke="midnightblue" d="M562.2,-168.37C584.22,-149.73 636.46,-105.53 664.11,-82.13"/>
<polygon fill="midnightblue" stroke="midnightblue" points="666.47,-84.72 671.85,-75.59 661.95,-79.38 666.47,-84.72"/>
</g>
<!-- Node7 -->
<g id="node7" class="node">
<title>Node7</title>
<g id="a_node7"><a xlink:title=" ">
<polygon fill="none" stroke="#bfbfbf" points="844.5,-0.5 844.5,-19.5 897.5,-19.5 897.5,-0.5 844.5,-0.5"/>
<text text-anchor="middle" x="871" y="-7.5" font-family="FreeSans.ttf" font-size="10.00">cstddef</text>
</a>
</g>
</g>
<!-- Node5&#45;&gt;Node7 -->
<g id="edge21" class="edge">
<title>Node5&#45;&gt;Node7</title>
<path fill="none" stroke="midnightblue" d="M569.38,-168.37C604.06,-151.12 684.27,-111 751,-76 784.34,-58.51 822.53,-37.69 846.7,-24.41"/>
<polygon fill="midnightblue" stroke="midnightblue" points="848.46,-27.43 855.54,-19.55 845.09,-21.3 848.46,-27.43"/>
</g>
<!-- Node9 -->
<g id="node9" class="node">
<title>Node9</title>
<g id="a_node9"><a xlink:href="Span_8h.html" target="_top" xlink:title=" ">
<polygon fill="none" stroke="black" points="447.5,-56.5 447.5,-75.5 568.5,-75.5 568.5,-56.5 447.5,-56.5"/>
<text text-anchor="middle" x="508" y="-63.5" font-family="FreeSans.ttf" font-size="10.00">iDynTree/Core/Span.h</text>
</a>
</g>
</g>
<!-- Node5&#45;&gt;Node9 -->
<g id="edge8" class="edge">
<title>Node5&#45;&gt;Node9</title>
<path fill="none" stroke="midnightblue" d="M548.92,-168.1C544.52,-155.51 536.06,-131.84 528,-112 524.33,-102.98 519.97,-93.08 516.26,-84.86"/>
<polygon fill="midnightblue" stroke="midnightblue" points="519.34,-83.19 512,-75.56 512.98,-86.11 519.34,-83.19"/>
</g>
<!-- Node10 -->
<g id="node10" class="node">
<title>Node10</title>
<g id="a_node10"><a xlink:title=" ">
<polygon fill="none" stroke="#bfbfbf" points="166,-0.5 166,-19.5 218,-19.5 218,-0.5 166,-0.5"/>
<text text-anchor="middle" x="192" y="-7.5" font-family="FreeSans.ttf" font-size="10.00">cassert</text>
</a>
</g>
</g>
<!-- Node5&#45;&gt;Node10 -->
<g id="edge20" class="edge">
<title>Node5&#45;&gt;Node10</title>
<path fill="none" stroke="midnightblue" d="M546.47,-168.09C537.39,-154.17 518,-127.28 495,-112 449.99,-82.1 297.87,-39.18 227.83,-20.4"/>
<polygon fill="midnightblue" stroke="midnightblue" points="228.68,-17 218.12,-17.81 226.88,-23.77 228.68,-17"/>
</g>
<!-- Node5&#45;&gt;Node18 -->
<g id="edge18" class="edge">
<title>Node5&#45;&gt;Node18</title>
<path fill="none" stroke="midnightblue" d="M615.31,-168.5C676.9,-160.02 773.05,-146.25 856,-132 860.45,-131.24 865.13,-130.38 869.74,-129.51"/>
<polygon fill="midnightblue" stroke="midnightblue" points="870.43,-132.94 879.58,-127.6 869.09,-126.07 870.43,-132.94"/>
</g>
<!-- Node19 -->
<g id="node19" class="node">
<title>Node19</title>
<g id="a_node19"><a xlink:title=" ">
<polygon fill="none" stroke="#bfbfbf" points="362,-112.5 362,-131.5 418,-131.5 418,-112.5 362,-112.5"/>
<text text-anchor="middle" x="390" y="-119.5" font-family="FreeSans.ttf" font-size="10.00">sstream</text>
</a>
</g>
</g>
<!-- Node5&#45;&gt;Node19 -->
<g id="edge19" class="edge">
<title>Node5&#45;&gt;Node19</title>
<path fill="none" stroke="midnightblue" d="M526.33,-168.44C499.08,-159.36 455.82,-144.94 425.35,-134.78"/>
<polygon fill="midnightblue" stroke="midnightblue" points="426.14,-131.36 415.55,-131.52 423.93,-138 426.14,-131.36"/>
</g>
<!-- Node20 -->
<g id="node20" class="node">
<title>Node20</title>
<g id="a_node20"><a xlink:title=" ">
<polygon fill="none" stroke="#bfbfbf" points="436,-112.5 436,-131.5 486,-131.5 486,-112.5 436,-112.5"/>
<text text-anchor="middle" x="461" y="-119.5" font-family="FreeSans.ttf" font-size="10.00">cstring</text>
</a>
</g>
</g>
<!-- Node5&#45;&gt;Node20 -->
<g id="edge22" class="edge">
<title>Node5&#45;&gt;Node20</title>
<path fill="none" stroke="midnightblue" d="M537.38,-168.32C523.05,-159.82 500.99,-146.73 484.25,-136.8"/>
<polygon fill="midnightblue" stroke="midnightblue" points="485.97,-133.75 475.58,-131.65 482.4,-139.77 485.97,-133.75"/>
</g>
<!-- Node6&#45;&gt;Node7 -->
<g id="edge6" class="edge">
<title>Node6&#45;&gt;Node7</title>
<path fill="none" stroke="midnightblue" d="M711.95,-56.44C745.11,-46.97 798.57,-31.69 834.24,-21.5"/>
<polygon fill="midnightblue" stroke="midnightblue" points="835.59,-24.76 844.25,-18.64 833.67,-18.03 835.59,-24.76"/>
</g>
<!-- Node8 -->
<g id="node8" class="node">
<title>Node8</title>
<g id="a_node8"><a xlink:title=" ">
<polygon fill="none" stroke="#bfbfbf" points="746,-0.5 746,-19.5 826,-19.5 826,-0.5 746,-0.5"/>
<text text-anchor="middle" x="786" y="-7.5" font-family="FreeSans.ttf" font-size="10.00">CoreExport.h</text>
</a>
</g>
</g>
<!-- Node6&#45;&gt;Node8 -->
<g id="edge7" class="edge">
<title>Node6&#45;&gt;Node8</title>
<path fill="none" stroke="midnightblue" d="M698.71,-56.32C715.31,-47.7 741,-34.36 760.22,-24.39"/>
<polygon fill="midnightblue" stroke="midnightblue" points="762.07,-27.37 769.33,-19.65 758.84,-21.16 762.07,-27.37"/>
</g>
<!-- Node9&#45;&gt;Node7 -->
<g id="edge12" class="edge">
<title>Node9&#45;&gt;Node7</title>
<path fill="none" stroke="midnightblue" d="M568.59,-58.65C632.35,-51.52 735.79,-38.69 834.49,-19.9"/>
<polygon fill="midnightblue" stroke="midnightblue" points="835.18,-23.34 844.34,-18.01 833.85,-16.46 835.18,-23.34"/>
</g>
<!-- Node9&#45;&gt;Node10 -->
<g id="edge9" class="edge">
<title>Node9&#45;&gt;Node10</title>
<path fill="none" stroke="midnightblue" d="M447.41,-56.96C392.53,-49.29 309.27,-36.74 228.19,-20.09"/>
<polygon fill="midnightblue" stroke="midnightblue" points="228.81,-16.65 218.31,-18.05 227.39,-23.5 228.81,-16.65"/>
</g>
<!-- Node11 -->
<g id="node11" class="node">
<title>Node11</title>
<g id="a_node11"><a xlink:title=" ">
<polygon fill="none" stroke="#bfbfbf" points="604,-0.5 604,-19.5 668,-19.5 668,-0.5 604,-0.5"/>
<text text-anchor="middle" x="636" y="-7.5" font-family="FreeSans.ttf" font-size="10.00">algorithm</text>
</a>
</g>
</g>
<!-- Node9&#45;&gt;Node11 -->
<g id="edge10" class="edge">
<title>Node9&#45;&gt;Node11</title>
<path fill="none" stroke="midnightblue" d="M528.28,-56.44C549.35,-47.56 582.52,-33.56 606.49,-23.45"/>
<polygon fill="midnightblue" stroke="midnightblue" points="607.96,-26.63 615.81,-19.52 605.24,-20.18 607.96,-26.63"/>
</g>
<!-- Node12 -->
<g id="node12" class="node">
<title>Node12</title>
<g id="a_node12"><a xlink:title=" ">
<polygon fill="none" stroke="#bfbfbf" points="686,-0.5 686,-19.5 728,-19.5 728,-0.5 686,-0.5"/>
<text text-anchor="middle" x="707" y="-7.5" font-family="FreeSans.ttf" font-size="10.00">array</text>
</a>
</g>
</g>
<!-- Node9&#45;&gt;Node12 -->
<g id="edge11" class="edge">
<title>Node9&#45;&gt;Node12</title>
<path fill="none" stroke="midnightblue" d="M541.43,-56.43C573.59,-48.11 623.79,-34.93 675.96,-20.23"/>
<polygon fill="midnightblue" stroke="midnightblue" points="677.05,-23.56 685.72,-17.47 675.14,-16.83 677.05,-23.56"/>
</g>
<!-- Node13 -->
<g id="node13" class="node">
<title>Node13</title>
<g id="a_node13"><a xlink:title=" ">
<polygon fill="none" stroke="#bfbfbf" points="323.5,-0.5 323.5,-19.5 376.5,-19.5 376.5,-0.5 323.5,-0.5"/>
<text text-anchor="middle" x="350" y="-7.5" font-family="FreeSans.ttf" font-size="10.00">iterator</text>
</a>
</g>
</g>
<!-- Node9&#45;&gt;Node13 -->
<g id="edge13" class="edge">
<title>Node9&#45;&gt;Node13</title>
<path fill="none" stroke="midnightblue" d="M482.96,-56.44C456.38,-47.36 414.19,-32.94 384.48,-22.78"/>
<polygon fill="midnightblue" stroke="midnightblue" points="385.51,-19.44 374.92,-19.52 383.25,-26.06 385.51,-19.44"/>
</g>
<!-- Node14 -->
<g id="node14" class="node">
<title>Node14</title>
<g id="a_node14"><a xlink:title=" ">
<polygon fill="none" stroke="#bfbfbf" points="395,-0.5 395,-19.5 439,-19.5 439,-0.5 395,-0.5"/>
<text text-anchor="middle" x="417" y="-7.5" font-family="FreeSans.ttf" font-size="10.00">limits</text>
</a>
</g>
</g>
<!-- Node9&#45;&gt;Node14 -->
<g id="edge14" class="edge">
<title>Node9&#45;&gt;Node14</title>
<path fill="none" stroke="midnightblue" d="M493.38,-56.32C479.05,-47.82 456.99,-34.73 440.25,-24.8"/>
<polygon fill="midnightblue" stroke="midnightblue" points="441.97,-21.75 431.58,-19.65 438.4,-27.77 441.97,-21.75"/>
</g>
<!-- Node15 -->
<g id="node15" class="node">
<title>Node15</title>
<g id="a_node15"><a xlink:title=" ">
<polygon fill="none" stroke="#bfbfbf" points="457.5,-0.5 457.5,-19.5 522.5,-19.5 522.5,-0.5 457.5,-0.5"/>
<text text-anchor="middle" x="490" y="-7.5" font-family="FreeSans.ttf" font-size="10.00">stdexcept</text>
</a>
</g>
</g>
<!-- Node9&#45;&gt;Node15 -->
<g id="edge15" class="edge">
<title>Node9&#45;&gt;Node15</title>
<path fill="none" stroke="midnightblue" d="M505.03,-56.08C502.62,-48.85 499.14,-38.41 496.13,-29.4"/>
<polygon fill="midnightblue" stroke="midnightblue" points="499.4,-28.13 492.92,-19.75 492.76,-30.34 499.4,-28.13"/>
</g>
<!-- Node16 -->
<g id="node16" class="node">
<title>Node16</title>
<g id="a_node16"><a xlink:title=" ">
<polygon fill="none" stroke="#bfbfbf" points="236.5,-0.5 236.5,-19.5 305.5,-19.5 305.5,-0.5 236.5,-0.5"/>
<text text-anchor="middle" x="271" y="-7.5" font-family="FreeSans.ttf" font-size="10.00">type_traits</text>
</a>
</g>
</g>
<!-- Node9&#45;&gt;Node16 -->
<g id="edge16" class="edge">
<title>Node9&#45;&gt;Node16</title>
<path fill="none" stroke="midnightblue" d="M470.45,-56.44C428.43,-46.87 360.4,-31.37 315.68,-21.18"/>
<polygon fill="midnightblue" stroke="midnightblue" points="316.21,-17.71 305.68,-18.9 314.65,-24.54 316.21,-17.71"/>
</g>
<!-- Node17 -->
<g id="node17" class="node">
<title>Node17</title>
<g id="a_node17"><a xlink:title=" ">
<polygon fill="none" stroke="#bfbfbf" points="540.5,-0.5 540.5,-19.5 585.5,-19.5 585.5,-0.5 540.5,-0.5"/>
<text text-anchor="middle" x="563" y="-7.5" font-family="FreeSans.ttf" font-size="10.00">utility</text>
</a>
</g>
</g>
<!-- Node9&#45;&gt;Node17 -->
<g id="edge17" class="edge">
<title>Node9&#45;&gt;Node17</title>
<path fill="none" stroke="midnightblue" d="M517.08,-56.08C525.17,-48.14 537.2,-36.34 546.91,-26.8"/>
<polygon fill="midnightblue" stroke="midnightblue" points="549.4,-29.25 554.09,-19.75 544.5,-24.26 549.4,-29.25"/>
</g>
<!-- Node21&#45;&gt;Node5 -->
<g id="edge42" class="edge">
<title>Node21&#45;&gt;Node5</title>
<path fill="none" stroke="midnightblue" d="M660.63,-280.41C659.62,-266.92 655.87,-240.6 642,-224 629.25,-208.73 610.02,-198.14 592.61,-191.08"/>
<polygon fill="midnightblue" stroke="midnightblue" points="593.77,-187.78 583.18,-187.52 591.3,-194.33 593.77,-187.78"/>
</g>
<!-- Node21&#45;&gt;Node18 -->
<g id="edge25" class="edge">
<title>Node21&#45;&gt;Node18</title>
<path fill="none" stroke="midnightblue" d="M667.2,-280.13C676.88,-266.74 696.7,-241.1 718,-224 767.04,-184.63 833.58,-152.44 871.74,-135.64"/>
<polygon fill="midnightblue" stroke="midnightblue" points="873.48,-138.71 881.26,-131.51 870.69,-132.28 873.48,-138.71"/>
</g>
<!-- Node22 -->
<g id="node22" class="node">
<title>Node22</title>
<g id="a_node22"><a xlink:href="GeomVector3_8h.html" target="_top" xlink:title=" ">
<polygon fill="none" stroke="black" points="293.5,-224.5 293.5,-243.5 456.5,-243.5 456.5,-224.5 293.5,-224.5"/>
<text text-anchor="middle" x="375" y="-231.5" font-family="FreeSans.ttf" font-size="10.00">iDynTree/Core/GeomVector3.h</text>
</a>
</g>
</g>
<!-- Node21&#45;&gt;Node22 -->
<g id="edge26" class="edge">
<title>Node21&#45;&gt;Node22</title>
<path fill="none" stroke="midnightblue" d="M615.68,-280.44C565.37,-270.94 484.16,-255.61 430.19,-245.42"/>
<polygon fill="midnightblue" stroke="midnightblue" points="430.58,-241.93 420.11,-243.52 429.28,-248.81 430.58,-241.93"/>
</g>
<!-- Node23 -->
<g id="node23" class="node">
<title>Node23</title>
<g id="a_node23"><a xlink:href="RotationRaw_8h.html" target="_top" xlink:title=" ">
<polygon fill="none" stroke="black" points="475,-224.5 475,-243.5 633,-243.5 633,-224.5 475,-224.5"/>
<text text-anchor="middle" x="554" y="-231.5" font-family="FreeSans.ttf" font-size="10.00">iDynTree/Core/RotationRaw.h</text>
</a>
</g>
</g>
<!-- Node21&#45;&gt;Node23 -->
<g id="edge28" class="edge">
<title>Node21&#45;&gt;Node23</title>
<path fill="none" stroke="midnightblue" d="M643.81,-280.32C626.65,-271.66 600.05,-258.24 580.25,-248.25"/>
<polygon fill="midnightblue" stroke="midnightblue" points="581.65,-245.04 571.15,-243.65 578.5,-251.28 581.65,-245.04"/>
</g>
<!-- Node22&#45;&gt;Node5 -->
<g id="edge27" class="edge">
<title>Node22&#45;&gt;Node5</title>
<path fill="none" stroke="midnightblue" d="M403.05,-224.44C433.08,-215.28 480.91,-200.69 514.24,-190.52"/>
<polygon fill="midnightblue" stroke="midnightblue" points="515.54,-193.78 524.09,-187.52 513.5,-187.09 515.54,-193.78"/>
</g>
<!-- Node23&#45;&gt;Node18 -->
<g id="edge41" class="edge">
<title>Node23&#45;&gt;Node18</title>
<path fill="none" stroke="midnightblue" d="M570.78,-224.38C603.42,-207.64 673.3,-172.04 685,-168 693.73,-164.98 811.48,-141.17 869.77,-129.46"/>
<polygon fill="midnightblue" stroke="midnightblue" points="870.81,-132.82 879.93,-127.42 869.43,-125.96 870.81,-132.82"/>
</g>
<!-- Node23&#45;&gt;Node24 -->
<g id="edge29" class="edge">
<title>Node23&#45;&gt;Node24</title>
<path fill="none" stroke="midnightblue" d="M508.05,-224.44C456.93,-214.92 374.35,-199.55 319.62,-189.36"/>
<polygon fill="midnightblue" stroke="midnightblue" points="320.21,-185.91 309.74,-187.52 318.93,-192.79 320.21,-185.91"/>
</g>
<!-- Node24&#45;&gt;Node6 -->
<g id="edge30" class="edge">
<title>Node24&#45;&gt;Node6</title>
<path fill="none" stroke="midnightblue" d="M272.92,-168.06C287.97,-153.59 320,-125.31 353,-112 376.49,-102.53 522.75,-84.86 612.17,-74.7"/>
<polygon fill="midnightblue" stroke="midnightblue" points="612.7,-78.17 622.25,-73.57 611.92,-71.21 612.7,-78.17"/>
</g>
<!-- Node24&#45;&gt;Node10 -->
<g id="edge36" class="edge">
<title>Node24&#45;&gt;Node10</title>
<path fill="none" stroke="midnightblue" d="M209.26,-168.45C169.11,-160.93 119.5,-148.59 107,-132 78.49,-94.17 135.23,-48.02 169.15,-25.19"/>
<polygon fill="midnightblue" stroke="midnightblue" points="171.16,-28.05 177.62,-19.65 167.33,-22.19 171.16,-28.05"/>
</g>
<!-- Node24&#45;&gt;Node18 -->
<g id="edge38" class="edge">
<title>Node24&#45;&gt;Node18</title>
<path fill="none" stroke="midnightblue" d="M345.78,-170.08C487.73,-158.06 773.76,-133.85 869.75,-125.73"/>
<polygon fill="midnightblue" stroke="midnightblue" points="870.06,-129.22 879.73,-124.88 869.47,-122.24 870.06,-129.22"/>
</g>
<!-- Node24&#45;&gt;Node19 -->
<g id="edge40" class="edge">
<title>Node24&#45;&gt;Node19</title>
<path fill="none" stroke="midnightblue" d="M283.97,-168.44C304.61,-159.6 337.06,-145.69 360.63,-135.59"/>
<polygon fill="midnightblue" stroke="midnightblue" points="362.32,-138.67 370.13,-131.52 359.56,-132.24 362.32,-138.67"/>
</g>
<!-- Node24&#45;&gt;Node20 -->
<g id="edge37" class="edge">
<title>Node24&#45;&gt;Node20</title>
<path fill="none" stroke="midnightblue" d="M295.22,-168.44C330.82,-158.68 388.88,-142.77 425.99,-132.6"/>
<polygon fill="midnightblue" stroke="midnightblue" points="427.15,-135.91 435.87,-129.89 425.3,-129.16 427.15,-135.91"/>
</g>
<!-- Node25 -->
<g id="node25" class="node">
<title>Node25</title>
<g id="a_node25"><a xlink:href="MatrixView_8h.html" target="_top" xlink:title=" ">
<polygon fill="none" stroke="black" points="116,-112.5 116,-131.5 268,-131.5 268,-112.5 116,-112.5"/>
<text text-anchor="middle" x="192" y="-119.5" font-family="FreeSans.ttf" font-size="10.00">iDynTree/Core/MatrixView.h</text>
</a>
</g>
</g>
<!-- Node24&#45;&gt;Node25 -->
<g id="edge31" class="edge">
<title>Node24&#45;&gt;Node25</title>
<path fill="none" stroke="midnightblue" d="M252.43,-168.32C241.58,-160.18 225.12,-147.84 212.12,-138.09"/>
<polygon fill="midnightblue" stroke="midnightblue" points="213.88,-135.03 203.78,-131.83 209.68,-140.63 213.88,-135.03"/>
</g>
<!-- Node26 -->
<g id="node26" class="node">
<title>Node26</title>
<g id="a_node26"><a xlink:title=" ">
<polygon fill="none" stroke="#bfbfbf" points="0,-112.5 0,-131.5 60,-131.5 60,-112.5 0,-112.5"/>
<text text-anchor="middle" x="30" y="-119.5" font-family="FreeSans.ttf" font-size="10.00">iostream</text>
</a>
</g>
</g>
<!-- Node24&#45;&gt;Node26 -->
<g id="edge39" class="edge">
<title>Node24&#45;&gt;Node26</title>
<path fill="none" stroke="midnightblue" d="M226.92,-168.44C184.12,-158.57 113.98,-142.38 69.99,-132.23"/>
<polygon fill="midnightblue" stroke="midnightblue" points="70.74,-128.81 60.21,-129.97 69.16,-135.63 70.74,-128.81"/>
</g>
<!-- Node25&#45;&gt;Node6 -->
<g id="edge35" class="edge">
<title>Node25&#45;&gt;Node6</title>
<path fill="none" stroke="midnightblue" d="M268.02,-112.62C362.21,-102.24 521.35,-84.7 612.44,-74.67"/>
<polygon fill="midnightblue" stroke="midnightblue" points="612.83,-78.14 622.39,-73.57 612.06,-71.19 612.83,-78.14"/>
</g>
<!-- Node25&#45;&gt;Node9 -->
<g id="edge34" class="edge">
<title>Node25&#45;&gt;Node9</title>
<path fill="none" stroke="midnightblue" d="M242.07,-112.44C298.01,-102.89 388.51,-87.42 448.14,-77.23"/>
<polygon fill="midnightblue" stroke="midnightblue" points="448.9,-80.65 458.16,-75.52 447.72,-73.75 448.9,-80.65"/>
</g>
<!-- Node25&#45;&gt;Node10 -->
<g id="edge32" class="edge">
<title>Node25&#45;&gt;Node10</title>
<path fill="none" stroke="midnightblue" d="M192,-112.37C192,-94.62 192,-53.67 192,-29.6"/>
<polygon fill="midnightblue" stroke="midnightblue" points="195.5,-29.59 192,-19.59 188.5,-29.59 195.5,-29.59"/>
</g>
<!-- Node25&#45;&gt;Node16 -->
<g id="edge33" class="edge">
<title>Node25&#45;&gt;Node16</title>
<path fill="none" stroke="midnightblue" d="M198.2,-112.37C211.24,-94.22 241.7,-51.8 258.8,-27.99"/>
<polygon fill="midnightblue" stroke="midnightblue" points="261.84,-29.76 264.83,-19.59 256.15,-25.67 261.84,-29.76"/>
</g>
<!-- Node27&#45;&gt;Node5 -->
<g id="edge48" class="edge">
<title>Node27&#45;&gt;Node5</title>
<path fill="none" stroke="midnightblue" d="M236.59,-448.4C227.12,-439.14 216.12,-426.16 211,-412 207.98,-403.64 209.28,-400.72 211,-392 217.79,-357.59 271.3,-233.83 284,-224 311.19,-202.95 394.31,-191.29 460.85,-185.14"/>
<polygon fill="midnightblue" stroke="midnightblue" points="461.3,-188.61 470.95,-184.24 460.68,-181.64 461.3,-188.61"/>
</g>
<!-- Node27&#45;&gt;Node22 -->
<g id="edge49" class="edge">
<title>Node27&#45;&gt;Node22</title>
<path fill="none" stroke="midnightblue" d="M237.8,-448.49C224.53,-434.48 208.61,-412.17 217,-392 244.53,-325.84 314.98,-273.2 351.8,-249.17"/>
<polygon fill="midnightblue" stroke="midnightblue" points="353.84,-252.02 360.39,-243.69 350.08,-246.12 353.84,-252.02"/>
</g>
<!-- Node28 -->
<g id="node28" class="node">
<title>Node28</title>
<g id="a_node28"><a xlink:href="SpatialVector_8h.html" target="_top" xlink:title=" ">
<polygon fill="none" stroke="black" points="226.5,-392.5 226.5,-411.5 387.5,-411.5 387.5,-392.5 226.5,-392.5"/>
<text text-anchor="middle" x="307" y="-399.5" font-family="FreeSans.ttf" font-size="10.00">iDynTree/Core/SpatialVector.h</text>
</a>
</g>
</g>
<!-- Node27&#45;&gt;Node28 -->
<g id="edge50" class="edge">
<title>Node27&#45;&gt;Node28</title>
<path fill="none" stroke="midnightblue" d="M265.8,-448.4C273.72,-439.66 283.94,-428.41 292.21,-419.3"/>
<polygon fill="midnightblue" stroke="midnightblue" points="295.01,-421.42 299.14,-411.66 289.83,-416.71 295.01,-421.42"/>
</g>
<!-- Node28&#45;&gt;Node3 -->
<g id="edge51" class="edge">
<title>Node28&#45;&gt;Node3</title>
<path fill="none" stroke="midnightblue" d="M385.63,-392.47C478.89,-382.36 633.4,-365.61 726.57,-355.5"/>
<polygon fill="midnightblue" stroke="midnightblue" points="727.22,-358.95 736.78,-354.4 726.46,-352 727.22,-358.95"/>
</g>
<!-- Node28&#45;&gt;Node6 -->
<g id="edge53" class="edge">
<title>Node28&#45;&gt;Node6</title>
<path fill="none" stroke="midnightblue" d="M294.82,-392.39C252.02,-361.06 114.13,-250.68 173,-168 201.37,-128.16 232.12,-151.45 277,-132 294.51,-124.41 296.79,-117.7 315,-112 342.62,-103.36 513.5,-84.55 612.06,-74.2"/>
<polygon fill="midnightblue" stroke="midnightblue" points="612.66,-77.66 622.24,-73.13 611.93,-70.69 612.66,-77.66"/>
</g>
<!-- Node28&#45;&gt;Node19 -->
<g id="edge56" class="edge">
<title>Node28&#45;&gt;Node19</title>
<path fill="none" stroke="midnightblue" d="M302.36,-392.47C288.37,-365.46 249.62,-280.34 284,-224 302.22,-194.14 328.88,-212.35 354,-188 367.58,-174.83 377.41,-155.43 383.34,-141.25"/>
<polygon fill="midnightblue" stroke="midnightblue" points="386.72,-142.2 387.1,-131.61 380.2,-139.65 386.72,-142.2"/>
</g>
<!-- Node28&#45;&gt;Node21 -->
<g id="edge52" class="edge">
<title>Node28&#45;&gt;Node21</title>
<path fill="none" stroke="midnightblue" d="M334.48,-392.46C397.35,-372.93 551.7,-324.96 623.34,-302.7"/>
<polygon fill="midnightblue" stroke="midnightblue" points="624.78,-305.92 633.29,-299.61 622.7,-299.24 624.78,-305.92"/>
</g>
<!-- Node28&#45;&gt;Node22 -->
<g id="edge54" class="edge">
<title>Node28&#45;&gt;Node22</title>
<path fill="none" stroke="midnightblue" d="M310.66,-392.08C321.41,-365.83 353.07,-288.55 367.58,-253.12"/>
<polygon fill="midnightblue" stroke="midnightblue" points="370.94,-254.15 371.49,-243.57 364.46,-251.5 370.94,-254.15"/>
</g>
<!-- Node28&#45;&gt;Node26 -->
<g id="edge55" class="edge">
<title>Node28&#45;&gt;Node26</title>
<path fill="none" stroke="midnightblue" d="M246.42,-392.5C189.49,-380.69 113,-353.24 113,-291 113,-291 113,-291 113,-233 113,-191.91 75.64,-156.44 51.05,-137.55"/>
<polygon fill="midnightblue" stroke="midnightblue" points="53.09,-134.7 42.97,-131.57 48.93,-140.33 53.09,-134.7"/>
</g>
<!-- Node29&#45;&gt;Node3 -->
<g id="edge63" class="edge">
<title>Node29&#45;&gt;Node3</title>
<path fill="none" stroke="midnightblue" d="M1014.55,-392.44C971.11,-383.02 901.21,-367.87 854.22,-357.68"/>
<polygon fill="midnightblue" stroke="midnightblue" points="854.78,-354.22 844.27,-355.52 853.3,-361.06 854.78,-354.22"/>
</g>
<!-- Node29&#45;&gt;Node6 -->
<g id="edge64" class="edge">
<title>Node29&#45;&gt;Node6</title>
<path fill="none" stroke="midnightblue" d="M1074.72,-392.45C1119.85,-372.3 1223,-317.25 1223,-235 1223,-235 1223,-235 1223,-177 1223,-81.94 898.18,-68.15 751.92,-66.76"/>
<polygon fill="midnightblue" stroke="midnightblue" points="751.73,-63.26 741.7,-66.68 751.68,-70.26 751.73,-63.26"/>
</g>
<!-- Node29&#45;&gt;Node18 -->
<g id="edge58" class="edge">
<title>Node29&#45;&gt;Node18</title>
<path fill="none" stroke="midnightblue" d="M1069.36,-392.31C1095.77,-376.09 1147,-338.51 1147,-291 1147,-291 1147,-291 1147,-233 1147,-140.91 1001.17,-125.44 934.53,-123.18"/>
<polygon fill="midnightblue" stroke="midnightblue" points="934.26,-119.67 924.17,-122.92 934.08,-126.67 934.26,-119.67"/>
</g>
<!-- Node30 -->
<g id="node30" class="node">
<title>Node30</title>
<g id="a_node30"><a xlink:href="Direction_8h.html" target="_top" xlink:title=" ">
<polygon fill="none" stroke="black" points="977.5,-224.5 977.5,-243.5 1118.5,-243.5 1118.5,-224.5 977.5,-224.5"/>
<text text-anchor="middle" x="1048" y="-231.5" font-family="FreeSans.ttf" font-size="10.00">iDynTree/Core/Direction.h</text>
</a>
</g>
</g>
<!-- Node29&#45;&gt;Node30 -->
<g id="edge59" class="edge">
<title>Node29&#45;&gt;Node30</title>
<path fill="none" stroke="midnightblue" d="M1053.68,-392.08C1052.73,-365.95 1049.96,-289.21 1048.67,-253.58"/>
<polygon fill="midnightblue" stroke="midnightblue" points="1052.17,-253.44 1048.31,-243.57 1045.17,-253.69 1052.17,-253.44"/>
</g>
<!-- Node30&#45;&gt;Node5 -->
<g id="edge61" class="edge">
<title>Node30&#45;&gt;Node5</title>
<path fill="none" stroke="midnightblue" d="M977.46,-225.32C888.86,-215.67 736.8,-199.12 640.49,-188.63"/>
<polygon fill="midnightblue" stroke="midnightblue" points="640.8,-185.15 630.48,-187.54 640.04,-192.11 640.8,-185.15"/>
</g>
<!-- Node30&#45;&gt;Node6 -->
<g id="edge62" class="edge">
<title>Node30&#45;&gt;Node6</title>
<path fill="none" stroke="midnightblue" d="M1042.82,-224.45C1028.54,-201.75 986.17,-139.78 933,-112 876.53,-82.5 804.23,-71.95 751.75,-68.36"/>
<polygon fill="midnightblue" stroke="midnightblue" points="751.72,-64.85 741.52,-67.73 751.29,-71.84 751.72,-64.85"/>
</g>
<!-- Node30&#45;&gt;Node18 -->
<g id="edge60" class="edge">
<title>Node30&#45;&gt;Node18</title>
<path fill="none" stroke="midnightblue" d="M1036.77,-224.32C1020.55,-211.79 989.59,-187.97 963,-168 949.42,-157.8 934.02,-146.44 922.09,-137.69"/>
<polygon fill="midnightblue" stroke="midnightblue" points="923.87,-134.65 913.74,-131.57 919.74,-140.3 923.87,-134.65"/>
</g>
<!-- Node31&#45;&gt;Node7 -->
<g id="edge66" class="edge">
<title>Node31&#45;&gt;Node7</title>
<path fill="none" stroke="midnightblue" d="M1296.3,-336.29C1285.03,-318.2 1261,-274.95 1261,-235 1261,-235 1261,-235 1261,-121 1261,-48.11 1005.44,-21.15 908.07,-13.52"/>
<polygon fill="midnightblue" stroke="midnightblue" points="908.04,-10.01 897.81,-12.74 907.51,-16.99 908.04,-10.01"/>
</g>
<!-- Node31&#45;&gt;Node18 -->
<g id="edge67" class="edge">
<title>Node31&#45;&gt;Node18</title>
<path fill="none" stroke="midnightblue" d="M1289.26,-336.32C1277.46,-327.9 1259.85,-314.33 1247,-300 1200.24,-247.88 1219.47,-206.53 1161,-168 1124.15,-143.72 995.17,-130.44 934.29,-125.4"/>
<polygon fill="midnightblue" stroke="midnightblue" points="934.34,-121.89 924.09,-124.58 933.78,-128.87 934.34,-121.89"/>
</g>
<!-- Node32 -->
<g id="node32" class="node">
<title>Node32</title>
<g id="a_node32"><a xlink:title=" ">
<polygon fill="none" stroke="#bfbfbf" points="1289.5,-280.5 1289.5,-299.5 1376.5,-299.5 1376.5,-280.5 1289.5,-280.5"/>
<text text-anchor="middle" x="1333" y="-287.5" font-family="FreeSans.ttf" font-size="10.00">ModelExport.h</text>
</a>
</g>
</g>
<!-- Node31&#45;&gt;Node32 -->
<g id="edge68" class="edge">
<title>Node31&#45;&gt;Node32</title>
<path fill="none" stroke="midnightblue" d="M1307.12,-336.08C1311.41,-328.61 1317.66,-317.72 1322.94,-308.52"/>
<polygon fill="midnightblue" stroke="midnightblue" points="1326.03,-310.17 1327.98,-299.75 1319.96,-306.68 1326.03,-310.17"/>
</g>
<!-- Node34 -->
<g id="node34" class="node">
<title>Node34</title>
<g id="a_node34"><a xlink:href="IJoint_8h.html" target="_top" xlink:title=" ">
<polygon fill="none" stroke="black" points="1235.5,-392.5 1235.5,-411.5 1364.5,-411.5 1364.5,-392.5 1235.5,-392.5"/>
<text text-anchor="middle" x="1300" y="-399.5" font-family="FreeSans.ttf" font-size="10.00">iDynTree/Model/IJoint.h</text>
</a>
</g>
</g>
<!-- Node33&#45;&gt;Node34 -->
<g id="edge70" class="edge">
<title>Node33&#45;&gt;Node34</title>
<path fill="none" stroke="midnightblue" d="M1277.11,-448.4C1281.29,-440.11 1286.61,-429.55 1291.07,-420.71"/>
<polygon fill="midnightblue" stroke="midnightblue" points="1294.26,-422.16 1295.63,-411.66 1288.01,-419.01 1294.26,-422.16"/>
</g>
<!-- Node34&#45;&gt;Node31 -->
<g id="edge71" class="edge">
<title>Node34&#45;&gt;Node31</title>
<path fill="none" stroke="midnightblue" d="M1300.33,-392.08C1300.59,-385.01 1300.97,-374.86 1301.3,-365.99"/>
<polygon fill="midnightblue" stroke="midnightblue" points="1304.8,-365.87 1301.68,-355.75 1297.81,-365.61 1304.8,-365.87"/>
</g>
</g>
</svg>
