<?xml version="1.0" encoding="UTF-8" standalone="no"?>
<!DOCTYPE svg PUBLIC "-//W3C//DTD SVG 1.1//EN"
 "http://www.w3.org/Graphics/SVG/1.1/DTD/svg11.dtd">
<!-- Generated by graphviz version 2.43.0 (0)
 -->
<!-- Title: PrivateUtils.h Pages: 1 -->
<svg width="922pt" height="84pt"
 viewBox="0.00 0.00 922.00 84.00" xmlns="http://www.w3.org/2000/svg" xmlns:xlink="http://www.w3.org/1999/xlink">
<g id="graph0" class="graph" transform="scale(1 1) rotate(0) translate(4 80)">
<title>PrivateUtils.h</title>
<!-- Node1 -->
<g id="node1" class="node">
<title>Node1</title>
<g id="a_node1"><a xlink:title=" ">
<polygon fill="#bfbfbf" stroke="black" points="454.5,-56.5 454.5,-75.5 537.5,-75.5 537.5,-56.5 454.5,-56.5"/>
<text text-anchor="middle" x="496" y="-63.5" font-family="FreeSans.ttf" font-size="10.00">PrivateUtils.h</text>
</a>
</g>
</g>
<!-- Node2 -->
<g id="node2" class="node">
<title>Node2</title>
<g id="a_node2"><a xlink:href="PrivateUtils_8cpp.html" target="_top" xlink:title=" ">
<polygon fill="none" stroke="black" points="0,-0.5 0,-19.5 94,-19.5 94,-0.5 0,-0.5"/>
<text text-anchor="middle" x="47" y="-7.5" font-family="FreeSans.ttf" font-size="10.00">PrivateUtils.cpp</text>
</a>
</g>
</g>
<!-- Node1&#45;&gt;Node2 -->
<g id="edge1" class="edge">
<title>Node1&#45;&gt;Node2</title>
<path fill="none" stroke="midnightblue" d="M444.18,-59.82C368.91,-52.13 225,-36.78 103,-20 100.07,-19.6 97.06,-19.17 94.03,-18.72"/>
<polygon fill="midnightblue" stroke="midnightblue" points="444.03,-63.33 454.33,-60.86 444.74,-56.36 444.03,-63.33"/>
</g>
<!-- Node3 -->
<g id="node3" class="node">
<title>Node3</title>
<g id="a_node3"><a xlink:href="SpatialAcc_8cpp.html" target="_top" xlink:title=" ">
<polygon fill="none" stroke="black" points="112,-0.5 112,-19.5 200,-19.5 200,-0.5 112,-0.5"/>
<text text-anchor="middle" x="156" y="-7.5" font-family="FreeSans.ttf" font-size="10.00">SpatialAcc.cpp</text>
</a>
</g>
</g>
<!-- Node1&#45;&gt;Node3 -->
<g id="edge2" class="edge">
<title>Node1&#45;&gt;Node3</title>
<path fill="none" stroke="midnightblue" d="M444.21,-57.08C386.72,-48.24 291.17,-33.42 209,-20 206.14,-19.53 203.2,-19.05 200.24,-18.56"/>
<polygon fill="midnightblue" stroke="midnightblue" points="443.73,-60.55 454.15,-58.61 444.79,-53.63 443.73,-60.55"/>
</g>
<!-- Node4 -->
<g id="node4" class="node">
<title>Node4</title>
<g id="a_node4"><a xlink:href="SpatialInertiaRaw_8cpp.html" target="_top" xlink:title=" ">
<polygon fill="none" stroke="black" points="218,-0.5 218,-19.5 340,-19.5 340,-0.5 218,-0.5"/>
<text text-anchor="middle" x="279" y="-7.5" font-family="FreeSans.ttf" font-size="10.00">SpatialInertiaRaw.cpp</text>
</a>
</g>
</g>
<!-- Node1&#45;&gt;Node4 -->
<g id="edge3" class="edge">
<title>Node1&#45;&gt;Node4</title>
<path fill="none" stroke="midnightblue" d="M451.89,-54.02C410.9,-43.82 350.7,-28.84 313.22,-19.52"/>
<polygon fill="midnightblue" stroke="midnightblue" points="451.07,-57.43 461.62,-56.44 452.76,-50.63 451.07,-57.43"/>
</g>
<!-- Node5 -->
<g id="node5" class="node">
<title>Node5</title>
<g id="a_node5"><a xlink:href="SpatialMomentum_8cpp.html" target="_top" xlink:title=" ">
<polygon fill="none" stroke="black" points="358.5,-0.5 358.5,-19.5 485.5,-19.5 485.5,-0.5 358.5,-0.5"/>
<text text-anchor="middle" x="422" y="-7.5" font-family="FreeSans.ttf" font-size="10.00">SpatialMomentum.cpp</text>
</a>
</g>
</g>
<!-- Node1&#45;&gt;Node5 -->
<g id="edge4" class="edge">
<title>Node1&#45;&gt;Node5</title>
<path fill="none" stroke="midnightblue" d="M475.97,-50.38C462.59,-40.62 445.44,-28.11 434.11,-19.83"/>
<polygon fill="midnightblue" stroke="midnightblue" points="473.97,-53.26 484.11,-56.32 478.1,-47.6 473.97,-53.26"/>
</g>
<!-- Node6 -->
<g id="node6" class="node">
<title>Node6</title>
<g id="a_node6"><a xlink:href="SpatialMotionVector_8cpp.html" target="_top" xlink:title=" ">
<polygon fill="none" stroke="black" points="504,-0.5 504,-19.5 638,-19.5 638,-0.5 504,-0.5"/>
<text text-anchor="middle" x="571" y="-7.5" font-family="FreeSans.ttf" font-size="10.00">SpatialMotionVector.cpp</text>
</a>
</g>
</g>
<!-- Node1&#45;&gt;Node6 -->
<g id="edge5" class="edge">
<title>Node1&#45;&gt;Node6</title>
<path fill="none" stroke="midnightblue" d="M516.31,-50.38C529.86,-40.62 547.24,-28.11 558.73,-19.83"/>
<polygon fill="midnightblue" stroke="midnightblue" points="514.12,-47.64 508.05,-56.32 518.21,-53.32 514.12,-47.64"/>
</g>
<!-- Node7 -->
<g id="node7" class="node">
<title>Node7</title>
<g id="a_node7"><a xlink:href="Transform_8cpp.html" target="_top" xlink:title=" ">
<polygon fill="none" stroke="black" points="656,-0.5 656,-19.5 742,-19.5 742,-0.5 656,-0.5"/>
<text text-anchor="middle" x="699" y="-7.5" font-family="FreeSans.ttf" font-size="10.00">Transform.cpp</text>
</a>
</g>
</g>
<!-- Node1&#45;&gt;Node7 -->
<g id="edge6" class="edge">
<title>Node1&#45;&gt;Node7</title>
<path fill="none" stroke="midnightblue" d="M537.99,-53.83C576.32,-43.63 632.15,-28.78 666.98,-19.52"/>
<polygon fill="midnightblue" stroke="midnightblue" points="536.93,-50.49 528.17,-56.44 538.73,-57.26 536.93,-50.49"/>
</g>
<!-- Node8 -->
<g id="node8" class="node">
<title>Node8</title>
<g id="a_node8"><a xlink:href="Twist_8cpp.html" target="_top" xlink:title=" ">
<polygon fill="none" stroke="black" points="760,-0.5 760,-19.5 822,-19.5 822,-0.5 760,-0.5"/>
<text text-anchor="middle" x="791" y="-7.5" font-family="FreeSans.ttf" font-size="10.00">Twist.cpp</text>
</a>
</g>
</g>
<!-- Node1&#45;&gt;Node8 -->
<g id="edge7" class="edge">
<title>Node1&#45;&gt;Node8</title>
<path fill="none" stroke="midnightblue" d="M547.54,-56.63C599.14,-48.08 680.75,-34.09 751,-20 753.79,-19.44 756.69,-18.84 759.59,-18.21"/>
<polygon fill="midnightblue" stroke="midnightblue" points="546.93,-53.18 537.63,-58.27 548.07,-60.09 546.93,-53.18"/>
</g>
<!-- Node9 -->
<g id="node9" class="node">
<title>Node9</title>
<g id="a_node9"><a xlink:href="Wrench_8cpp.html" target="_top" xlink:title=" ">
<polygon fill="none" stroke="black" points="840,-0.5 840,-19.5 914,-19.5 914,-0.5 840,-0.5"/>
<text text-anchor="middle" x="877" y="-7.5" font-family="FreeSans.ttf" font-size="10.00">Wrench.cpp</text>
</a>
</g>
</g>
<!-- Node1&#45;&gt;Node9 -->
<g id="edge8" class="edge">
<title>Node1&#45;&gt;Node9</title>
<path fill="none" stroke="midnightblue" d="M547.77,-59.02C613.71,-51.18 731.11,-36.47 831,-20 833.89,-19.52 836.88,-19 839.88,-18.46"/>
<polygon fill="midnightblue" stroke="midnightblue" points="547.16,-55.57 537.64,-60.22 547.98,-62.52 547.16,-55.57"/>
</g>
</g>
</svg>
