<?xml version="1.0" encoding="UTF-8" standalone="no"?>
<!DOCTYPE svg PUBLIC "-//W3C//DTD SVG 1.1//EN"
 "http://www.w3.org/Graphics/SVG/1.1/DTD/svg11.dtd">
<!-- Generated by graphviz version 2.43.0 (0)
 -->
<!-- Title: PrivateUtils.h Pages: 1 -->
<svg width="1372pt" height="599pt"
 viewBox="0.00 0.00 1372.00 599.00" xmlns="http://www.w3.org/2000/svg" xmlns:xlink="http://www.w3.org/1999/xlink">
<g id="graph0" class="graph" transform="scale(1 1) rotate(0) translate(4 595)">
<title>PrivateUtils.h</title>
<!-- Node1 -->
<g id="node1" class="node">
<title>Node1</title>
<g id="a_node1"><a xlink:title=" ">
<polygon fill="#bfbfbf" stroke="black" points="126,-571.5 126,-590.5 209,-590.5 209,-571.5 126,-571.5"/>
<text text-anchor="middle" x="167.5" y="-578.5" font-family="FreeSans.ttf" font-size="10.00">PrivateUtils.h</text>
</a>
</g>
</g>
<!-- Node2 -->
<g id="node2" class="node">
<title>Node2</title>
<g id="a_node2"><a xlink:title=" ">
<polygon fill="none" stroke="#bfbfbf" points="0,-454 0,-473 77,-473 77,-454 0,-454"/>
<text text-anchor="middle" x="38.5" y="-461" font-family="FreeSans.ttf" font-size="10.00">Eigen/Dense</text>
</a>
</g>
</g>
<!-- Node1&#45;&gt;Node2 -->
<g id="edge1" class="edge">
<title>Node1&#45;&gt;Node2</title>
<path fill="none" stroke="midnightblue" d="M157.8,-571.32C136.14,-551.92 83.55,-504.83 55.99,-480.16"/>
<polygon fill="midnightblue" stroke="midnightblue" points="58.09,-477.34 48.31,-473.28 53.42,-482.56 58.09,-477.34"/>
</g>
<!-- Node3 -->
<g id="node3" class="node">
<title>Node3</title>
<g id="a_node3"><a xlink:href="EigenHelpers_8h.html" target="_top" xlink:title=" ">
<polygon fill="none" stroke="black" points="217,-515.5 217,-534.5 378,-534.5 378,-515.5 217,-515.5"/>
<text text-anchor="middle" x="297.5" y="-522.5" font-family="FreeSans.ttf" font-size="10.00">iDynTree/Core/EigenHelpers.h</text>
</a>
</g>
</g>
<!-- Node1&#45;&gt;Node3 -->
<g id="edge2" class="edge">
<title>Node1&#45;&gt;Node3</title>
<path fill="none" stroke="midnightblue" d="M188.1,-571.44C209.49,-562.56 243.18,-548.56 267.52,-538.45"/>
<polygon fill="midnightblue" stroke="midnightblue" points="269.11,-541.58 277,-534.52 266.42,-535.12 269.11,-541.58"/>
</g>
<!-- Node3&#45;&gt;Node2 -->
<g id="edge4" class="edge">
<title>Node3&#45;&gt;Node2</title>
<path fill="none" stroke="midnightblue" d="M255.53,-515.5C213.8,-506.89 148.02,-492.9 91.5,-479 87.33,-477.98 82.99,-476.86 78.67,-475.72"/>
<polygon fill="midnightblue" stroke="midnightblue" points="79.26,-472.26 68.7,-473.05 77.45,-479.02 79.26,-472.26"/>
</g>
<!-- Node4 -->
<g id="node4" class="node">
<title>Node4</title>
<g id="a_node4"><a xlink:title=" ">
<polygon fill="none" stroke="#bfbfbf" points="244,-0.5 244,-19.5 297,-19.5 297,-0.5 244,-0.5"/>
<text text-anchor="middle" x="270.5" y="-7.5" font-family="FreeSans.ttf" font-size="10.00">cstddef</text>
</a>
</g>
</g>
<!-- Node3&#45;&gt;Node4 -->
<g id="edge3" class="edge">
<title>Node3&#45;&gt;Node4</title>
<path fill="none" stroke="midnightblue" d="M236.75,-515.49C208.56,-509.13 175.96,-498.09 151.5,-479 120.38,-454.71 105.5,-442.48 105.5,-403 105.5,-403 105.5,-403 105.5,-121 105.5,-59.61 185.55,-30.37 234.14,-18.28"/>
<polygon fill="midnightblue" stroke="midnightblue" points="235.06,-21.66 243.99,-15.96 233.45,-14.85 235.06,-21.66"/>
</g>
<!-- Node5 -->
<g id="node5" class="node">
<title>Node5</title>
<g id="a_node5"><a xlink:href="VectorDynSize_8h.html" target="_top" xlink:title=" ">
<polygon fill="none" stroke="black" points="1197,-168.5 1197,-187.5 1364,-187.5 1364,-168.5 1197,-168.5"/>
<text text-anchor="middle" x="1280.5" y="-175.5" font-family="FreeSans.ttf" font-size="10.00">iDynTree/Core/VectorDynSize.h</text>
</a>
</g>
</g>
<!-- Node3&#45;&gt;Node5 -->
<g id="edge5" class="edge">
<title>Node3&#45;&gt;Node5</title>
<path fill="none" stroke="midnightblue" d="M378.16,-522.1C606.92,-515.66 1243.5,-489.93 1243.5,-403 1243.5,-403 1243.5,-403 1243.5,-289 1243.5,-254.89 1259.68,-217.79 1270.64,-196.57"/>
<polygon fill="midnightblue" stroke="midnightblue" points="1273.86,-197.98 1275.51,-187.51 1267.69,-194.66 1273.86,-197.98"/>
</g>
<!-- Node16 -->
<g id="node16" class="node">
<title>Node16</title>
<g id="a_node16"><a xlink:href="VectorFixSize_8h.html" target="_top" xlink:title=" ">
<polygon fill="none" stroke="black" points="335.5,-168.5 335.5,-187.5 497.5,-187.5 497.5,-168.5 335.5,-168.5"/>
<text text-anchor="middle" x="416.5" y="-175.5" font-family="FreeSans.ttf" font-size="10.00">iDynTree/Core/VectorFixSize.h</text>
</a>
</g>
</g>
<!-- Node3&#45;&gt;Node16 -->
<g id="edge17" class="edge">
<title>Node3&#45;&gt;Node16</title>
<path fill="none" stroke="midnightblue" d="M270.25,-515.46C251.51,-508.36 227.27,-496.54 211.5,-479 187.22,-452 181.5,-439.31 181.5,-403 181.5,-403 181.5,-403 181.5,-345 181.5,-254.66 298.79,-209.12 367.64,-190.16"/>
<polygon fill="midnightblue" stroke="midnightblue" points="368.67,-193.51 377.43,-187.55 366.87,-186.75 368.67,-193.51"/>
</g>
<!-- Node17 -->
<g id="node17" class="node">
<title>Node17</title>
<g id="a_node17"><a xlink:href="Utils_8h.html" target="_top" xlink:title=" ">
<polygon fill="none" stroke="black" points="303,-56.5 303,-75.5 422,-75.5 422,-56.5 303,-56.5"/>
<text text-anchor="middle" x="362.5" y="-63.5" font-family="FreeSans.ttf" font-size="10.00">iDynTree/Core/Utils.h</text>
</a>
</g>
</g>
<!-- Node3&#45;&gt;Node17 -->
<g id="edge73" class="edge">
<title>Node3&#45;&gt;Node17</title>
<path fill="none" stroke="midnightblue" d="M257.76,-515.45C234.26,-508.75 205.16,-497.4 184.5,-479 155.84,-453.48 143.5,-441.38 143.5,-403 143.5,-403 143.5,-403 143.5,-177 143.5,-109.05 228.73,-83.07 292.85,-73.14"/>
<polygon fill="midnightblue" stroke="midnightblue" points="293.55,-76.58 302.95,-71.68 292.55,-69.65 293.55,-76.58"/>
</g>
<!-- Node21 -->
<g id="node21" class="node">
<title>Node21</title>
<g id="a_node21"><a xlink:href="MatrixDynSize_8h.html" target="_top" xlink:title=" ">
<polygon fill="none" stroke="black" points="744.5,-168.5 744.5,-187.5 912.5,-187.5 912.5,-168.5 744.5,-168.5"/>
<text text-anchor="middle" x="828.5" y="-175.5" font-family="FreeSans.ttf" font-size="10.00">iDynTree/Core/MatrixDynSize.h</text>
</a>
</g>
</g>
<!-- Node3&#45;&gt;Node21 -->
<g id="edge27" class="edge">
<title>Node3&#45;&gt;Node21</title>
<path fill="none" stroke="midnightblue" d="M378.21,-520.12C580.57,-509.3 1093.5,-474.81 1093.5,-403 1093.5,-403 1093.5,-403 1093.5,-289 1093.5,-258.9 1096.85,-244.15 1074.5,-224 1052.25,-203.94 982.49,-192.43 922.91,-186.08"/>
<polygon fill="midnightblue" stroke="midnightblue" points="922.99,-182.57 912.69,-185.03 922.28,-189.53 922.99,-182.57"/>
</g>
<!-- Node23 -->
<g id="node23" class="node">
<title>Node23</title>
<g id="a_node23"><a xlink:href="MatrixFixSize_8h.html" target="_top" xlink:title=" ">
<polygon fill="none" stroke="black" points="516,-168.5 516,-187.5 679,-187.5 679,-168.5 516,-168.5"/>
<text text-anchor="middle" x="597.5" y="-175.5" font-family="FreeSans.ttf" font-size="10.00">iDynTree/Core/MatrixFixSize.h</text>
</a>
</g>
</g>
<!-- Node3&#45;&gt;Node23 -->
<g id="edge34" class="edge">
<title>Node3&#45;&gt;Node23</title>
<path fill="none" stroke="midnightblue" d="M378.24,-518.87C445.27,-513.07 533.93,-501.38 561.5,-479 589.69,-456.11 591.5,-439.31 591.5,-403 591.5,-403 591.5,-403 591.5,-289 591.5,-256.9 594.08,-219.61 595.86,-197.73"/>
<polygon fill="midnightblue" stroke="midnightblue" points="599.36,-197.81 596.72,-187.55 592.39,-197.22 599.36,-197.81"/>
</g>
<!-- Node25 -->
<g id="node25" class="node">
<title>Node25</title>
<g id="a_node25"><a xlink:href="SpatialMotionVector_8h.html" target="_top" xlink:title=" ">
<polygon fill="none" stroke="black" points="220,-448.5 220,-478.5 375,-478.5 375,-448.5 220,-448.5"/>
<text text-anchor="start" x="228" y="-466.5" font-family="FreeSans.ttf" font-size="10.00">iDynTree/Core/SpatialMotion</text>
<text text-anchor="middle" x="297.5" y="-455.5" font-family="FreeSans.ttf" font-size="10.00">Vector.h</text>
</a>
</g>
</g>
<!-- Node3&#45;&gt;Node25 -->
<g id="edge42" class="edge">
<title>Node3&#45;&gt;Node25</title>
<path fill="none" stroke="midnightblue" d="M297.5,-515.48C297.5,-508.47 297.5,-498.19 297.5,-488.7"/>
<polygon fill="midnightblue" stroke="midnightblue" points="301,-488.52 297.5,-478.52 294,-488.52 301,-488.52"/>
</g>
<!-- Node32 -->
<g id="node32" class="node">
<title>Node32</title>
<g id="a_node32"><a xlink:href="SpatialForceVector_8h.html" target="_top" xlink:title=" ">
<polygon fill="none" stroke="black" points="404.5,-448.5 404.5,-478.5 552.5,-478.5 552.5,-448.5 404.5,-448.5"/>
<text text-anchor="start" x="412.5" y="-466.5" font-family="FreeSans.ttf" font-size="10.00">iDynTree/Core/SpatialForce</text>
<text text-anchor="middle" x="478.5" y="-455.5" font-family="FreeSans.ttf" font-size="10.00">Vector.h</text>
</a>
</g>
</g>
<!-- Node3&#45;&gt;Node32 -->
<g id="edge64" class="edge">
<title>Node3&#45;&gt;Node32</title>
<path fill="none" stroke="midnightblue" d="M323.43,-515.48C350.12,-506.7 392.45,-492.79 426.14,-481.71"/>
<polygon fill="midnightblue" stroke="midnightblue" points="427.44,-484.97 435.84,-478.52 425.25,-478.32 427.44,-484.97"/>
</g>
<!-- Node33 -->
<g id="node33" class="node">
<title>Node33</title>
<g id="a_node33"><a xlink:href="Transform_8h.html" target="_top" xlink:title=" ">
<polygon fill="none" stroke="black" points="666.5,-392.5 666.5,-411.5 812.5,-411.5 812.5,-392.5 666.5,-392.5"/>
<text text-anchor="middle" x="739.5" y="-399.5" font-family="FreeSans.ttf" font-size="10.00">iDynTree/Core/Transform.h</text>
</a>
</g>
</g>
<!-- Node3&#45;&gt;Node33 -->
<g id="edge68" class="edge">
<title>Node3&#45;&gt;Node33</title>
<path fill="none" stroke="midnightblue" d="M378.22,-520.37C441.49,-515.6 531,-504.56 605.5,-479 648.76,-464.16 694.02,-435.23 719.3,-417.66"/>
<polygon fill="midnightblue" stroke="midnightblue" points="721.52,-420.38 727.67,-411.75 717.48,-414.66 721.52,-420.38"/>
</g>
<!-- Node6 -->
<g id="node6" class="node">
<title>Node6</title>
<g id="a_node6"><a xlink:href="Span_8h.html" target="_top" xlink:title=" ">
<polygon fill="none" stroke="black" points="780,-56.5 780,-75.5 901,-75.5 901,-56.5 780,-56.5"/>
<text text-anchor="middle" x="840.5" y="-63.5" font-family="FreeSans.ttf" font-size="10.00">iDynTree/Core/Span.h</text>
</a>
</g>
</g>
<!-- Node5&#45;&gt;Node6 -->
<g id="edge6" class="edge">
<title>Node5&#45;&gt;Node6</title>
<path fill="none" stroke="midnightblue" d="M1246.34,-168.46C1167.39,-148.72 972.32,-99.96 884.55,-78.01"/>
<polygon fill="midnightblue" stroke="midnightblue" points="885.19,-74.56 874.64,-75.53 883.49,-81.36 885.19,-74.56"/>
</g>
<!-- Node15 -->
<g id="node15" class="node">
<title>Node15</title>
<g id="a_node15"><a xlink:title=" ">
<polygon fill="none" stroke="#bfbfbf" points="918.5,-112.5 918.5,-131.5 962.5,-131.5 962.5,-112.5 918.5,-112.5"/>
<text text-anchor="middle" x="940.5" y="-119.5" font-family="FreeSans.ttf" font-size="10.00">string</text>
</a>
</g>
</g>
<!-- Node5&#45;&gt;Node15 -->
<g id="edge16" class="edge">
<title>Node5&#45;&gt;Node15</title>
<path fill="none" stroke="midnightblue" d="M1226.63,-168.44C1155.23,-157.1 1031.5,-137.45 972.97,-128.16"/>
<polygon fill="midnightblue" stroke="midnightblue" points="973.26,-124.66 962.83,-126.55 972.16,-131.57 973.26,-124.66"/>
</g>
<!-- Node6&#45;&gt;Node4 -->
<g id="edge10" class="edge">
<title>Node6&#45;&gt;Node4</title>
<path fill="none" stroke="midnightblue" d="M779.76,-62.21C681.4,-57.15 481.35,-44.64 313.5,-20 311.44,-19.7 309.32,-19.36 307.19,-18.99"/>
<polygon fill="midnightblue" stroke="midnightblue" points="307.72,-15.53 297.25,-17.12 306.43,-22.41 307.72,-15.53"/>
</g>
<!-- Node7 -->
<g id="node7" class="node">
<title>Node7</title>
<g id="a_node7"><a xlink:title=" ">
<polygon fill="none" stroke="#bfbfbf" points="598.5,-0.5 598.5,-19.5 650.5,-19.5 650.5,-0.5 598.5,-0.5"/>
<text text-anchor="middle" x="624.5" y="-7.5" font-family="FreeSans.ttf" font-size="10.00">cassert</text>
</a>
</g>
</g>
<!-- Node6&#45;&gt;Node7 -->
<g id="edge7" class="edge">
<title>Node6&#45;&gt;Node7</title>
<path fill="none" stroke="midnightblue" d="M806.27,-56.44C766.47,-46.49 701.04,-30.14 660.49,-20"/>
<polygon fill="midnightblue" stroke="midnightblue" points="661.3,-16.59 650.75,-17.56 659.6,-23.38 661.3,-16.59"/>
</g>
<!-- Node8 -->
<g id="node8" class="node">
<title>Node8</title>
<g id="a_node8"><a xlink:title=" ">
<polygon fill="none" stroke="#bfbfbf" points="1097.5,-0.5 1097.5,-19.5 1161.5,-19.5 1161.5,-0.5 1097.5,-0.5"/>
<text text-anchor="middle" x="1129.5" y="-7.5" font-family="FreeSans.ttf" font-size="10.00">algorithm</text>
</a>
</g>
</g>
<!-- Node6&#45;&gt;Node8 -->
<g id="edge8" class="edge">
<title>Node6&#45;&gt;Node8</title>
<path fill="none" stroke="midnightblue" d="M890.48,-56.48C938.48,-48.18 1013.29,-34.92 1087.33,-20.18"/>
<polygon fill="midnightblue" stroke="midnightblue" points="1088.18,-23.58 1097.29,-18.19 1086.8,-16.72 1088.18,-23.58"/>
</g>
<!-- Node9 -->
<g id="node9" class="node">
<title>Node9</title>
<g id="a_node9"><a xlink:title=" ">
<polygon fill="none" stroke="#bfbfbf" points="756.5,-0.5 756.5,-19.5 798.5,-19.5 798.5,-0.5 756.5,-0.5"/>
<text text-anchor="middle" x="777.5" y="-7.5" font-family="FreeSans.ttf" font-size="10.00">array</text>
</a>
</g>
</g>
<!-- Node6&#45;&gt;Node9 -->
<g id="edge9" class="edge">
<title>Node6&#45;&gt;Node9</title>
<path fill="none" stroke="midnightblue" d="M830.38,-56.32C820.97,-48.26 806.76,-36.08 795.43,-26.37"/>
<polygon fill="midnightblue" stroke="midnightblue" points="797.68,-23.68 787.81,-19.83 793.12,-29 797.68,-23.68"/>
</g>
<!-- Node10 -->
<g id="node10" class="node">
<title>Node10</title>
<g id="a_node10"><a xlink:title=" ">
<polygon fill="none" stroke="#bfbfbf" points="817,-0.5 817,-19.5 870,-19.5 870,-0.5 817,-0.5"/>
<text text-anchor="middle" x="843.5" y="-7.5" font-family="FreeSans.ttf" font-size="10.00">iterator</text>
</a>
</g>
</g>
<!-- Node6&#45;&gt;Node10 -->
<g id="edge11" class="edge">
<title>Node6&#45;&gt;Node10</title>
<path fill="none" stroke="midnightblue" d="M841,-56.08C841.39,-49.01 841.95,-38.86 842.45,-29.99"/>
<polygon fill="midnightblue" stroke="midnightblue" points="845.95,-29.93 843.01,-19.75 838.96,-29.54 845.95,-29.93"/>
</g>
<!-- Node11 -->
<g id="node11" class="node">
<title>Node11</title>
<g id="a_node11"><a xlink:title=" ">
<polygon fill="none" stroke="#bfbfbf" points="888.5,-0.5 888.5,-19.5 932.5,-19.5 932.5,-0.5 888.5,-0.5"/>
<text text-anchor="middle" x="910.5" y="-7.5" font-family="FreeSans.ttf" font-size="10.00">limits</text>
</a>
</g>
</g>
<!-- Node6&#45;&gt;Node11 -->
<g id="edge12" class="edge">
<title>Node6&#45;&gt;Node11</title>
<path fill="none" stroke="midnightblue" d="M851.75,-56.32C862.3,-48.18 878.3,-35.84 890.94,-26.09"/>
<polygon fill="midnightblue" stroke="midnightblue" points="893.27,-28.71 899.05,-19.83 888.99,-23.17 893.27,-28.71"/>
</g>
<!-- Node12 -->
<g id="node12" class="node">
<title>Node12</title>
<g id="a_node12"><a xlink:title=" ">
<polygon fill="none" stroke="#bfbfbf" points="951,-0.5 951,-19.5 1016,-19.5 1016,-0.5 951,-0.5"/>
<text text-anchor="middle" x="983.5" y="-7.5" font-family="FreeSans.ttf" font-size="10.00">stdexcept</text>
</a>
</g>
</g>
<!-- Node6&#45;&gt;Node12 -->
<g id="edge13" class="edge">
<title>Node6&#45;&gt;Node12</title>
<path fill="none" stroke="midnightblue" d="M863.16,-56.44C886.9,-47.48 924.41,-33.31 951.24,-23.18"/>
<polygon fill="midnightblue" stroke="midnightblue" points="952.83,-26.32 960.95,-19.52 950.36,-19.77 952.83,-26.32"/>
</g>
<!-- Node13 -->
<g id="node13" class="node">
<title>Node13</title>
<g id="a_node13"><a xlink:title=" ">
<polygon fill="none" stroke="#bfbfbf" points="669,-0.5 669,-19.5 738,-19.5 738,-0.5 669,-0.5"/>
<text text-anchor="middle" x="703.5" y="-7.5" font-family="FreeSans.ttf" font-size="10.00">type_traits</text>
</a>
</g>
</g>
<!-- Node6&#45;&gt;Node13 -->
<g id="edge14" class="edge">
<title>Node6&#45;&gt;Node13</title>
<path fill="none" stroke="midnightblue" d="M818.79,-56.44C796.15,-47.52 760.43,-33.44 734.75,-23.32"/>
<polygon fill="midnightblue" stroke="midnightblue" points="735.69,-19.93 725.11,-19.52 733.13,-26.44 735.69,-19.93"/>
</g>
<!-- Node14 -->
<g id="node14" class="node">
<title>Node14</title>
<g id="a_node14"><a xlink:title=" ">
<polygon fill="none" stroke="#bfbfbf" points="1034,-0.5 1034,-19.5 1079,-19.5 1079,-0.5 1034,-0.5"/>
<text text-anchor="middle" x="1056.5" y="-7.5" font-family="FreeSans.ttf" font-size="10.00">utility</text>
</a>
</g>
</g>
<!-- Node6&#45;&gt;Node14 -->
<g id="edge15" class="edge">
<title>Node6&#45;&gt;Node14</title>
<path fill="none" stroke="midnightblue" d="M877.83,-56.43C913.23,-48.19 968.14,-35.11 1024.12,-20.29"/>
<polygon fill="midnightblue" stroke="midnightblue" points="1025.08,-23.66 1033.85,-17.7 1023.28,-16.89 1025.08,-23.66"/>
</g>
<!-- Node16&#45;&gt;Node4 -->
<g id="edge25" class="edge">
<title>Node16&#45;&gt;Node4</title>
<path fill="none" stroke="midnightblue" d="M336.09,-168.41C313.39,-161.92 290.96,-150.83 276.5,-132 253.74,-102.35 259.69,-55.56 265.45,-29.71"/>
<polygon fill="midnightblue" stroke="midnightblue" points="268.92,-30.28 267.91,-19.74 262.12,-28.61 268.92,-30.28"/>
</g>
<!-- Node16&#45;&gt;Node6 -->
<g id="edge21" class="edge">
<title>Node16&#45;&gt;Node6</title>
<path fill="none" stroke="midnightblue" d="M497.55,-168.47C614.07,-156.13 815.39,-134.5 818.5,-132 832.25,-120.92 837.46,-100.89 839.4,-85.97"/>
<polygon fill="midnightblue" stroke="midnightblue" points="842.9,-86.08 840.34,-75.8 835.93,-85.44 842.9,-86.08"/>
</g>
<!-- Node16&#45;&gt;Node7 -->
<g id="edge24" class="edge">
<title>Node16&#45;&gt;Node7</title>
<path fill="none" stroke="midnightblue" d="M427.39,-168.31C461.02,-141.47 563.49,-59.69 605.86,-25.88"/>
<polygon fill="midnightblue" stroke="midnightblue" points="608.08,-28.58 613.72,-19.61 603.72,-23.11 608.08,-28.58"/>
</g>
<!-- Node16&#45;&gt;Node15 -->
<g id="edge22" class="edge">
<title>Node16&#45;&gt;Node15</title>
<path fill="none" stroke="midnightblue" d="M497.85,-168.63C585.61,-159.61 729.46,-144.8 853.5,-132 871.59,-130.13 891.8,-128.04 908.18,-126.35"/>
<polygon fill="midnightblue" stroke="midnightblue" points="908.74,-129.81 918.33,-125.3 908.02,-122.84 908.74,-129.81"/>
</g>
<!-- Node16&#45;&gt;Node17 -->
<g id="edge18" class="edge">
<title>Node16&#45;&gt;Node17</title>
<path fill="none" stroke="midnightblue" d="M410.45,-168.3C404.42,-159.43 395.15,-145.14 388.5,-132 380.78,-116.75 373.7,-98.64 368.88,-85.42"/>
<polygon fill="midnightblue" stroke="midnightblue" points="372.05,-83.88 365.4,-75.62 365.45,-86.22 372.05,-83.88"/>
</g>
<!-- Node19 -->
<g id="node19" class="node">
<title>Node19</title>
<g id="a_node19"><a xlink:title=" ">
<polygon fill="none" stroke="#bfbfbf" points="285.5,-112.5 285.5,-131.5 341.5,-131.5 341.5,-112.5 285.5,-112.5"/>
<text text-anchor="middle" x="313.5" y="-119.5" font-family="FreeSans.ttf" font-size="10.00">sstream</text>
</a>
</g>
</g>
<!-- Node16&#45;&gt;Node19 -->
<g id="edge23" class="edge">
<title>Node16&#45;&gt;Node19</title>
<path fill="none" stroke="midnightblue" d="M399.95,-168.32C383.51,-159.7 358.07,-146.36 339.03,-136.39"/>
<polygon fill="midnightblue" stroke="midnightblue" points="340.49,-133.2 330.01,-131.65 337.24,-139.4 340.49,-133.2"/>
</g>
<!-- Node20 -->
<g id="node20" class="node">
<title>Node20</title>
<g id="a_node20"><a xlink:title=" ">
<polygon fill="none" stroke="#bfbfbf" points="513.5,-112.5 513.5,-131.5 563.5,-131.5 563.5,-112.5 513.5,-112.5"/>
<text text-anchor="middle" x="538.5" y="-119.5" font-family="FreeSans.ttf" font-size="10.00">cstring</text>
</a>
</g>
</g>
<!-- Node16&#45;&gt;Node20 -->
<g id="edge26" class="edge">
<title>Node16&#45;&gt;Node20</title>
<path fill="none" stroke="midnightblue" d="M435.83,-168.44C455.82,-159.6 487.24,-145.69 510.06,-135.59"/>
<polygon fill="midnightblue" stroke="midnightblue" points="511.53,-138.76 519.26,-131.52 508.7,-132.36 511.53,-138.76"/>
</g>
<!-- Node17&#45;&gt;Node4 -->
<g id="edge19" class="edge">
<title>Node17&#45;&gt;Node4</title>
<path fill="none" stroke="midnightblue" d="M347.72,-56.32C333.23,-47.82 310.93,-34.73 294.01,-24.8"/>
<polygon fill="midnightblue" stroke="midnightblue" points="295.64,-21.7 285.24,-19.65 292.1,-27.74 295.64,-21.7"/>
</g>
<!-- Node18 -->
<g id="node18" class="node">
<title>Node18</title>
<g id="a_node18"><a xlink:title=" ">
<polygon fill="none" stroke="#bfbfbf" points="322.5,-0.5 322.5,-19.5 402.5,-19.5 402.5,-0.5 322.5,-0.5"/>
<text text-anchor="middle" x="362.5" y="-7.5" font-family="FreeSans.ttf" font-size="10.00">CoreExport.h</text>
</a>
</g>
</g>
<!-- Node17&#45;&gt;Node18 -->
<g id="edge20" class="edge">
<title>Node17&#45;&gt;Node18</title>
<path fill="none" stroke="midnightblue" d="M362.5,-56.08C362.5,-49.01 362.5,-38.86 362.5,-29.99"/>
<polygon fill="midnightblue" stroke="midnightblue" points="366,-29.75 362.5,-19.75 359,-29.75 366,-29.75"/>
</g>
<!-- Node21&#45;&gt;Node15 -->
<g id="edge28" class="edge">
<title>Node21&#45;&gt;Node15</title>
<path fill="none" stroke="midnightblue" d="M846.49,-168.32C864.54,-159.62 892.55,-146.12 913.3,-136.11"/>
<polygon fill="midnightblue" stroke="midnightblue" points="915.06,-139.15 922.55,-131.65 912.02,-132.84 915.06,-139.15"/>
</g>
<!-- Node22 -->
<g id="node22" class="node">
<title>Node22</title>
<g id="a_node22"><a xlink:href="MatrixView_8h.html" target="_top" xlink:title=" ">
<polygon fill="none" stroke="black" points="657.5,-112.5 657.5,-131.5 809.5,-131.5 809.5,-112.5 657.5,-112.5"/>
<text text-anchor="middle" x="733.5" y="-119.5" font-family="FreeSans.ttf" font-size="10.00">iDynTree/Core/MatrixView.h</text>
</a>
</g>
</g>
<!-- Node21&#45;&gt;Node22 -->
<g id="edge29" class="edge">
<title>Node21&#45;&gt;Node22</title>
<path fill="none" stroke="midnightblue" d="M813.24,-168.32C798.28,-159.82 775.25,-146.73 757.77,-136.8"/>
<polygon fill="midnightblue" stroke="midnightblue" points="759.15,-133.55 748.73,-131.65 755.69,-139.64 759.15,-133.55"/>
</g>
<!-- Node22&#45;&gt;Node6 -->
<g id="edge32" class="edge">
<title>Node22&#45;&gt;Node6</title>
<path fill="none" stroke="midnightblue" d="M750.69,-112.32C767.85,-103.66 794.45,-90.24 814.25,-80.25"/>
<polygon fill="midnightblue" stroke="midnightblue" points="816,-83.28 823.35,-75.65 812.85,-77.04 816,-83.28"/>
</g>
<!-- Node22&#45;&gt;Node7 -->
<g id="edge30" class="edge">
<title>Node22&#45;&gt;Node7</title>
<path fill="none" stroke="midnightblue" d="M724.95,-112.37C706.64,-93.89 663.44,-50.29 640.1,-26.74"/>
<polygon fill="midnightblue" stroke="midnightblue" points="642.54,-24.23 633.01,-19.59 637.57,-29.16 642.54,-24.23"/>
</g>
<!-- Node22&#45;&gt;Node13 -->
<g id="edge31" class="edge">
<title>Node22&#45;&gt;Node13</title>
<path fill="none" stroke="midnightblue" d="M731.15,-112.37C726.28,-94.54 715.04,-53.3 708.48,-29.27"/>
<polygon fill="midnightblue" stroke="midnightblue" points="711.85,-28.32 705.84,-19.59 705.1,-30.16 711.85,-28.32"/>
</g>
<!-- Node22&#45;&gt;Node17 -->
<g id="edge33" class="edge">
<title>Node22&#45;&gt;Node17</title>
<path fill="none" stroke="midnightblue" d="M674.71,-112.44C608.5,-102.81 501.03,-87.16 431.05,-76.98"/>
<polygon fill="midnightblue" stroke="midnightblue" points="431.41,-73.49 421.01,-75.52 430.4,-80.42 431.41,-73.49"/>
</g>
<!-- Node23&#45;&gt;Node7 -->
<g id="edge37" class="edge">
<title>Node23&#45;&gt;Node7</title>
<path fill="none" stroke="midnightblue" d="M598.95,-168.08C603.2,-141.95 615.68,-65.21 621.48,-29.58"/>
<polygon fill="midnightblue" stroke="midnightblue" points="624.96,-30 623.11,-19.57 618.05,-28.88 624.96,-30"/>
</g>
<!-- Node23&#45;&gt;Node15 -->
<g id="edge39" class="edge">
<title>Node23&#45;&gt;Node15</title>
<path fill="none" stroke="midnightblue" d="M651.85,-168.44C724.05,-157.08 849.31,-137.36 908.18,-128.09"/>
<polygon fill="midnightblue" stroke="midnightblue" points="909.03,-131.5 918.37,-126.48 907.95,-124.58 909.03,-131.5"/>
</g>
<!-- Node23&#45;&gt;Node17 -->
<g id="edge35" class="edge">
<title>Node23&#45;&gt;Node17</title>
<path fill="none" stroke="midnightblue" d="M596.75,-168.36C595.05,-154.3 589.59,-126.61 572.5,-112 551.57,-94.1 484.86,-81.88 432.18,-74.74"/>
<polygon fill="midnightblue" stroke="midnightblue" points="432.56,-71.25 422.19,-73.42 431.65,-78.19 432.56,-71.25"/>
</g>
<!-- Node23&#45;&gt;Node19 -->
<g id="edge41" class="edge">
<title>Node23&#45;&gt;Node19</title>
<path fill="none" stroke="midnightblue" d="M552.5,-168.44C496.93,-157.88 403.38,-140.09 351.34,-130.19"/>
<polygon fill="midnightblue" stroke="midnightblue" points="351.98,-126.75 341.5,-128.32 350.67,-133.63 351.98,-126.75"/>
</g>
<!-- Node23&#45;&gt;Node20 -->
<g id="edge38" class="edge">
<title>Node23&#45;&gt;Node20</title>
<path fill="none" stroke="midnightblue" d="M588.02,-168.32C579.3,-160.34 566.16,-148.31 555.6,-138.65"/>
<polygon fill="midnightblue" stroke="midnightblue" points="557.89,-136 548.15,-131.83 553.17,-141.17 557.89,-136"/>
</g>
<!-- Node23&#45;&gt;Node22 -->
<g id="edge36" class="edge">
<title>Node23&#45;&gt;Node22</title>
<path fill="none" stroke="midnightblue" d="M619.05,-168.44C641.53,-159.52 676.99,-145.44 702.48,-135.32"/>
<polygon fill="midnightblue" stroke="midnightblue" points="704.05,-138.46 712.05,-131.52 701.47,-131.95 704.05,-138.46"/>
</g>
<!-- Node24 -->
<g id="node24" class="node">
<title>Node24</title>
<g id="a_node24"><a xlink:title=" ">
<polygon fill="none" stroke="#bfbfbf" points="397.5,-112.5 397.5,-131.5 457.5,-131.5 457.5,-112.5 397.5,-112.5"/>
<text text-anchor="middle" x="427.5" y="-119.5" font-family="FreeSans.ttf" font-size="10.00">iostream</text>
</a>
</g>
</g>
<!-- Node23&#45;&gt;Node24 -->
<g id="edge40" class="edge">
<title>Node23&#45;&gt;Node24</title>
<path fill="none" stroke="midnightblue" d="M570.56,-168.44C541.84,-159.32 496.17,-144.81 464.18,-134.65"/>
<polygon fill="midnightblue" stroke="midnightblue" points="464.9,-131.21 454.31,-131.52 462.78,-137.88 464.9,-131.21"/>
</g>
<!-- Node25&#45;&gt;Node16 -->
<g id="edge43" class="edge">
<title>Node25&#45;&gt;Node16</title>
<path fill="none" stroke="midnightblue" d="M297.27,-448.38C297.31,-409.04 302.18,-296.32 353.5,-224 362.76,-210.95 377.04,-200.3 389.67,-192.64"/>
<polygon fill="midnightblue" stroke="midnightblue" points="391.53,-195.61 398.47,-187.61 388.05,-189.54 391.53,-195.61"/>
</g>
<!-- Node26 -->
<g id="node26" class="node">
<title>Node26</title>
<g id="a_node26"><a xlink:href="GeomVector3_8h.html" target="_top" xlink:title=" ">
<polygon fill="none" stroke="black" points="362,-224.5 362,-243.5 525,-243.5 525,-224.5 362,-224.5"/>
<text text-anchor="middle" x="443.5" y="-231.5" font-family="FreeSans.ttf" font-size="10.00">iDynTree/Core/GeomVector3.h</text>
</a>
</g>
</g>
<!-- Node25&#45;&gt;Node26 -->
<g id="edge44" class="edge">
<title>Node25&#45;&gt;Node26</title>
<path fill="none" stroke="midnightblue" d="M299.79,-448.37C302.55,-433.68 308.05,-410.32 317.5,-392 347.27,-334.3 400.19,-277.66 426.98,-250.93"/>
<polygon fill="midnightblue" stroke="midnightblue" points="429.73,-253.14 434.4,-243.63 424.82,-248.15 429.73,-253.14"/>
</g>
<!-- Node27 -->
<g id="node27" class="node">
<title>Node27</title>
<g id="a_node27"><a xlink:href="SpatialVector_8h.html" target="_top" xlink:title=" ">
<polygon fill="none" stroke="black" points="326,-392.5 326,-411.5 487,-411.5 487,-392.5 326,-392.5"/>
<text text-anchor="middle" x="406.5" y="-399.5" font-family="FreeSans.ttf" font-size="10.00">iDynTree/Core/SpatialVector.h</text>
</a>
</g>
</g>
<!-- Node25&#45;&gt;Node27 -->
<g id="edge46" class="edge">
<title>Node25&#45;&gt;Node27</title>
<path fill="none" stroke="midnightblue" d="M323.33,-448.4C340.97,-438.77 364.2,-426.09 381.63,-416.58"/>
<polygon fill="midnightblue" stroke="midnightblue" points="383.54,-419.52 390.64,-411.66 380.19,-413.38 383.54,-419.52"/>
</g>
<!-- Node26&#45;&gt;Node16 -->
<g id="edge45" class="edge">
<title>Node26&#45;&gt;Node16</title>
<path fill="none" stroke="midnightblue" d="M439.04,-224.08C435.35,-216.69 429.98,-205.95 425.41,-196.81"/>
<polygon fill="midnightblue" stroke="midnightblue" points="428.48,-195.13 420.88,-187.75 422.22,-198.26 428.48,-195.13"/>
</g>
<!-- Node27&#45;&gt;Node17 -->
<g id="edge60" class="edge">
<title>Node27&#45;&gt;Node17</title>
<path fill="none" stroke="midnightblue" d="M392.76,-392.3C380.54,-384.06 362.77,-370.78 350.5,-356 283.53,-275.33 289.89,-235.99 276.5,-132 275.36,-123.18 271.9,-119.6 276.5,-112 285.91,-96.46 302.65,-86.02 318.88,-79.15"/>
<polygon fill="midnightblue" stroke="midnightblue" points="320.25,-82.37 328.32,-75.51 317.73,-75.85 320.25,-82.37"/>
</g>
<!-- Node27&#45;&gt;Node19 -->
<g id="edge63" class="edge">
<title>Node27&#45;&gt;Node19</title>
<path fill="none" stroke="midnightblue" d="M362.97,-392.47C337.3,-385.79 305.28,-374.46 281.5,-356 257.74,-337.56 252.33,-328.75 243.5,-300 224.87,-239.37 273.53,-170.15 299.05,-139.31"/>
<polygon fill="midnightblue" stroke="midnightblue" points="301.74,-141.55 305.56,-131.67 296.41,-137.01 301.74,-141.55"/>
</g>
<!-- Node27&#45;&gt;Node24 -->
<g id="edge62" class="edge">
<title>Node27&#45;&gt;Node24</title>
<path fill="none" stroke="midnightblue" d="M398.38,-392.29C369.44,-360.18 275.73,-246.2 326.5,-168 340.01,-147.2 365.61,-135.93 387.66,-129.87"/>
<polygon fill="midnightblue" stroke="midnightblue" points="388.61,-133.24 397.48,-127.44 386.93,-126.45 388.61,-133.24"/>
</g>
<!-- Node27&#45;&gt;Node26 -->
<g id="edge61" class="edge">
<title>Node27&#45;&gt;Node26</title>
<path fill="none" stroke="midnightblue" d="M408.49,-392.08C414.31,-365.95 431.42,-289.21 439.36,-253.58"/>
<polygon fill="midnightblue" stroke="midnightblue" points="442.83,-254.09 441.59,-243.57 436,-252.57 442.83,-254.09"/>
</g>
<!-- Node28 -->
<g id="node28" class="node">
<title>Node28</title>
<g id="a_node28"><a xlink:href="Position_8h.html" target="_top" xlink:title=" ">
<polygon fill="none" stroke="black" points="768,-336.5 768,-355.5 833,-355.5 833,-336.5 768,-336.5"/>
<text text-anchor="middle" x="800.5" y="-343.5" font-family="FreeSans.ttf" font-size="10.00">Position.h</text>
</a>
</g>
</g>
<!-- Node27&#45;&gt;Node28 -->
<g id="edge47" class="edge">
<title>Node27&#45;&gt;Node28</title>
<path fill="none" stroke="midnightblue" d="M468.93,-392.44C549.63,-381.38 688.04,-362.41 757.74,-352.86"/>
<polygon fill="midnightblue" stroke="midnightblue" points="758.48,-356.29 767.91,-351.47 757.53,-349.36 758.48,-356.29"/>
</g>
<!-- Node30 -->
<g id="node30" class="node">
<title>Node30</title>
<g id="a_node30"><a xlink:href="Rotation_8h.html" target="_top" xlink:title=" ">
<polygon fill="none" stroke="black" points="676.5,-280.5 676.5,-299.5 814.5,-299.5 814.5,-280.5 676.5,-280.5"/>
<text text-anchor="middle" x="745.5" y="-287.5" font-family="FreeSans.ttf" font-size="10.00">iDynTree/Core/Rotation.h</text>
</a>
</g>
</g>
<!-- Node27&#45;&gt;Node30 -->
<g id="edge59" class="edge">
<title>Node27&#45;&gt;Node30</title>
<path fill="none" stroke="midnightblue" d="M432.82,-392.46C493.02,-372.93 640.83,-324.96 709.44,-302.7"/>
<polygon fill="midnightblue" stroke="midnightblue" points="710.53,-306.03 718.96,-299.61 708.37,-299.37 710.53,-306.03"/>
</g>
<!-- Node28&#45;&gt;Node15 -->
<g id="edge58" class="edge">
<title>Node28&#45;&gt;Node15</title>
<path fill="none" stroke="midnightblue" d="M833.34,-344.16C893.2,-340.65 1018.98,-323.64 1074.5,-244 1107.87,-196.13 1021.84,-153.89 972.42,-134.41"/>
<polygon fill="midnightblue" stroke="midnightblue" points="973.37,-131.03 962.78,-130.71 970.86,-137.56 973.37,-131.03"/>
</g>
<!-- Node29 -->
<g id="node29" class="node">
<title>Node29</title>
<g id="a_node29"><a xlink:href="PositionRaw_8h.html" target="_top" xlink:title=" ">
<polygon fill="none" stroke="black" points="733.5,-224.5 733.5,-243.5 889.5,-243.5 889.5,-224.5 733.5,-224.5"/>
<text text-anchor="middle" x="811.5" y="-231.5" font-family="FreeSans.ttf" font-size="10.00">iDynTree/Core/PositionRaw.h</text>
</a>
</g>
</g>
<!-- Node28&#45;&gt;Node29 -->
<g id="edge48" class="edge">
<title>Node28&#45;&gt;Node29</title>
<path fill="none" stroke="midnightblue" d="M806.6,-336.19C812.25,-327.46 820.26,-313.48 823.5,-300 827.24,-284.49 823.37,-266.65 819.06,-253.59"/>
<polygon fill="midnightblue" stroke="midnightblue" points="822.23,-252.07 815.49,-243.89 815.66,-254.49 822.23,-252.07"/>
</g>
<!-- Node28&#45;&gt;Node30 -->
<g id="edge51" class="edge">
<title>Node28&#45;&gt;Node30</title>
<path fill="none" stroke="midnightblue" d="M791.42,-336.08C783.33,-328.14 771.3,-316.34 761.59,-306.8"/>
<polygon fill="midnightblue" stroke="midnightblue" points="764,-304.26 754.41,-299.75 759.1,-309.25 764,-304.26"/>
</g>
<!-- Node29&#45;&gt;Node15 -->
<g id="edge50" class="edge">
<title>Node29&#45;&gt;Node15</title>
<path fill="none" stroke="midnightblue" d="M855.96,-224.45C878.45,-217.98 904.51,-206.85 921.5,-188 932.93,-175.32 937.5,-156.12 939.33,-141.87"/>
<polygon fill="midnightblue" stroke="midnightblue" points="942.83,-142 940.27,-131.72 935.86,-141.35 942.83,-142"/>
</g>
<!-- Node29&#45;&gt;Node16 -->
<g id="edge49" class="edge">
<title>Node29&#45;&gt;Node16</title>
<path fill="none" stroke="midnightblue" d="M748.91,-224.44C678.27,-214.79 563.52,-199.1 489.03,-188.92"/>
<polygon fill="midnightblue" stroke="midnightblue" points="489.18,-185.4 478.8,-187.52 488.23,-192.34 489.18,-185.4"/>
</g>
<!-- Node30&#45;&gt;Node15 -->
<g id="edge52" class="edge">
<title>Node30&#45;&gt;Node15</title>
<path fill="none" stroke="midnightblue" d="M740.12,-280.44C734.94,-271.68 727.49,-257.47 724.5,-244 717.11,-210.68 711.64,-192.4 735.5,-168 759.17,-143.8 856.45,-131.03 908.04,-125.84"/>
<polygon fill="midnightblue" stroke="midnightblue" points="908.69,-129.29 918.31,-124.84 908.02,-122.32 908.69,-129.29"/>
</g>
<!-- Node30&#45;&gt;Node16 -->
<g id="edge57" class="edge">
<title>Node30&#45;&gt;Node16</title>
<path fill="none" stroke="midnightblue" d="M723.45,-280.46C689.96,-267.6 624.18,-242.78 567.5,-224 530.29,-211.67 487.42,-199.05 456.89,-190.32"/>
<polygon fill="midnightblue" stroke="midnightblue" points="457.61,-186.88 447.04,-187.51 455.7,-193.62 457.61,-186.88"/>
</g>
<!-- Node30&#45;&gt;Node26 -->
<g id="edge53" class="edge">
<title>Node30&#45;&gt;Node26</title>
<path fill="none" stroke="midnightblue" d="M697.65,-280.44C644.3,-270.9 558.06,-255.48 501.06,-245.29"/>
<polygon fill="midnightblue" stroke="midnightblue" points="501.59,-241.83 491.13,-243.52 500.36,-248.72 501.59,-241.83"/>
</g>
<!-- Node31 -->
<g id="node31" class="node">
<title>Node31</title>
<g id="a_node31"><a xlink:href="RotationRaw_8h.html" target="_top" xlink:title=" ">
<polygon fill="none" stroke="black" points="907.5,-224.5 907.5,-243.5 1065.5,-243.5 1065.5,-224.5 907.5,-224.5"/>
<text text-anchor="middle" x="986.5" y="-231.5" font-family="FreeSans.ttf" font-size="10.00">iDynTree/Core/RotationRaw.h</text>
</a>
</g>
</g>
<!-- Node30&#45;&gt;Node31 -->
<g id="edge54" class="edge">
<title>Node30&#45;&gt;Node31</title>
<path fill="none" stroke="midnightblue" d="M783.69,-280.44C825.64,-271.04 893.09,-255.93 938.57,-245.74"/>
<polygon fill="midnightblue" stroke="midnightblue" points="939.5,-249.12 948.49,-243.52 937.97,-242.29 939.5,-249.12"/>
</g>
<!-- Node31&#45;&gt;Node15 -->
<g id="edge56" class="edge">
<title>Node31&#45;&gt;Node15</title>
<path fill="none" stroke="midnightblue" d="M982.89,-224.37C975.4,-206.46 958.03,-164.92 948.01,-140.95"/>
<polygon fill="midnightblue" stroke="midnightblue" points="951.18,-139.47 944.09,-131.59 944.72,-142.17 951.18,-139.47"/>
</g>
<!-- Node31&#45;&gt;Node23 -->
<g id="edge55" class="edge">
<title>Node31&#45;&gt;Node23</title>
<path fill="none" stroke="midnightblue" d="M924.86,-224.44C855.29,-214.79 742.29,-199.1 668.93,-188.92"/>
<polygon fill="midnightblue" stroke="midnightblue" points="669.24,-185.42 658.85,-187.52 668.27,-192.36 669.24,-185.42"/>
</g>
<!-- Node32&#45;&gt;Node16 -->
<g id="edge65" class="edge">
<title>Node32&#45;&gt;Node16</title>
<path fill="none" stroke="midnightblue" d="M495.52,-448.38C517.65,-428.33 553.5,-389.32 553.5,-347 553.5,-347 553.5,-347 553.5,-289 553.5,-258.9 554.91,-246.12 534.5,-224 519.35,-207.59 497.57,-197.11 476.84,-190.45"/>
<polygon fill="midnightblue" stroke="midnightblue" points="477.68,-187.05 467.1,-187.56 475.69,-193.76 477.68,-187.05"/>
</g>
<!-- Node32&#45;&gt;Node26 -->
<g id="edge66" class="edge">
<title>Node32&#45;&gt;Node26</title>
<path fill="none" stroke="midnightblue" d="M485.7,-448.34C492.02,-434.22 499.76,-411.82 496.5,-392 487.94,-339.89 464.41,-281.8 451.78,-253.09"/>
<polygon fill="midnightblue" stroke="midnightblue" points="454.81,-251.29 447.52,-243.6 448.42,-254.15 454.81,-251.29"/>
</g>
<!-- Node32&#45;&gt;Node27 -->
<g id="edge67" class="edge">
<title>Node32&#45;&gt;Node27</title>
<path fill="none" stroke="midnightblue" d="M461.44,-448.4C450.44,-439.31 436.13,-427.49 424.88,-418.19"/>
<polygon fill="midnightblue" stroke="midnightblue" points="426.91,-415.33 416.98,-411.66 422.46,-420.73 426.91,-415.33"/>
</g>
<!-- Node33&#45;&gt;Node15 -->
<g id="edge72" class="edge">
<title>Node33&#45;&gt;Node15</title>
<path fill="none" stroke="midnightblue" d="M812.93,-397.27C935.74,-389.01 1169.5,-363.72 1169.5,-291 1169.5,-291 1169.5,-291 1169.5,-233 1169.5,-189.86 1035.8,-148.42 972.72,-131.27"/>
<polygon fill="midnightblue" stroke="midnightblue" points="973.44,-127.84 962.87,-128.64 971.63,-134.61 973.44,-127.84"/>
</g>
<!-- Node33&#45;&gt;Node23 -->
<g id="edge71" class="edge">
<title>Node33&#45;&gt;Node23</title>
<path fill="none" stroke="midnightblue" d="M732.85,-392.28C719.8,-375.02 690.11,-335.13 667.5,-300 644.4,-264.11 620,-220.42 606.99,-196.59"/>
<polygon fill="midnightblue" stroke="midnightblue" points="610,-194.79 602.15,-187.68 603.84,-198.13 610,-194.79"/>
</g>
<!-- Node33&#45;&gt;Node28 -->
<g id="edge69" class="edge">
<title>Node33&#45;&gt;Node28</title>
<path fill="none" stroke="midnightblue" d="M749.3,-392.32C758.32,-384.34 771.91,-372.31 782.82,-362.65"/>
<polygon fill="midnightblue" stroke="midnightblue" points="785.35,-365.08 790.52,-355.83 780.71,-359.84 785.35,-365.08"/>
</g>
<!-- Node33&#45;&gt;Node30 -->
<g id="edge70" class="edge">
<title>Node33&#45;&gt;Node30</title>
<path fill="none" stroke="midnightblue" d="M739.97,-392.37C740.94,-374.62 743.17,-333.67 744.49,-309.6"/>
<polygon fill="midnightblue" stroke="midnightblue" points="747.98,-309.77 745.03,-299.59 740.99,-309.39 747.98,-309.77"/>
</g>
</g>
</svg>
