<?xml version="1.0" encoding="UTF-8" standalone="no"?>
<!DOCTYPE svg PUBLIC "-//W3C//DTD SVG 1.1//EN"
 "http://www.w3.org/Graphics/SVG/1.1/DTD/svg11.dtd">
<!-- Generated by graphviz version 2.43.0 (0)
 -->
<!-- Title: RotationRaw.cpp Pages: 1 -->
<svg width="1171pt" height="554pt"
 viewBox="0.00 0.00 1170.50 554.00" xmlns="http://www.w3.org/2000/svg" xmlns:xlink="http://www.w3.org/1999/xlink">
<g id="graph0" class="graph" transform="scale(1 1) rotate(0) translate(4 550)">
<title>RotationRaw.cpp</title>
<!-- Node1 -->
<g id="node1" class="node">
<title>Node1</title>
<g id="a_node1"><a xlink:title=" ">
<polygon fill="#bfbfbf" stroke="black" points="574,-526.5 574,-545.5 672,-545.5 672,-526.5 574,-526.5"/>
<text text-anchor="middle" x="623" y="-533.5" font-family="FreeSans.ttf" font-size="10.00">RotationRaw.cpp</text>
</a>
</g>
</g>
<!-- Node2 -->
<g id="node2" class="node">
<title>Node2</title>
<g id="a_node2"><a xlink:href="ClassicalAcc_8h.html" target="_top" xlink:title=" ">
<polygon fill="none" stroke="black" points="28,-403.5 28,-422.5 186,-422.5 186,-403.5 28,-403.5"/>
<text text-anchor="middle" x="107" y="-410.5" font-family="FreeSans.ttf" font-size="10.00">iDynTree/Core/ClassicalAcc.h</text>
</a>
</g>
</g>
<!-- Node1&#45;&gt;Node2 -->
<g id="edge1" class="edge">
<title>Node1&#45;&gt;Node2</title>
<path fill="none" stroke="midnightblue" d="M573.71,-533.28C477.1,-529.33 266.45,-517.75 200,-490 167.96,-476.62 138.26,-448.5 121.41,-430.47"/>
<polygon fill="midnightblue" stroke="midnightblue" points="123.92,-428.03 114.6,-422.98 118.74,-432.74 123.92,-428.03"/>
</g>
<!-- Node4 -->
<g id="node4" class="node">
<title>Node4</title>
<g id="a_node4"><a xlink:href="Utils_8h.html" target="_top" xlink:title=" ">
<polygon fill="none" stroke="black" points="105.5,-56.5 105.5,-75.5 224.5,-75.5 224.5,-56.5 105.5,-56.5"/>
<text text-anchor="middle" x="165" y="-63.5" font-family="FreeSans.ttf" font-size="10.00">iDynTree/Core/Utils.h</text>
</a>
</g>
</g>
<!-- Node1&#45;&gt;Node4 -->
<g id="edge62" class="edge">
<title>Node1&#45;&gt;Node4</title>
<path fill="none" stroke="midnightblue" d="M573.85,-535.86C426.74,-537.12 0,-530.72 0,-414 0,-414 0,-414 0,-177 0,-121.44 65.57,-92.22 114.04,-78.2"/>
<polygon fill="midnightblue" stroke="midnightblue" points="115.08,-81.55 123.79,-75.52 113.22,-74.8 115.08,-81.55"/>
</g>
<!-- Node17 -->
<g id="node17" class="node">
<title>Node17</title>
<g id="a_node17"><a xlink:title=" ">
<polygon fill="none" stroke="#bfbfbf" points="878,-112.5 878,-131.5 934,-131.5 934,-112.5 878,-112.5"/>
<text text-anchor="middle" x="906" y="-119.5" font-family="FreeSans.ttf" font-size="10.00">sstream</text>
</a>
</g>
</g>
<!-- Node1&#45;&gt;Node17 -->
<g id="edge65" class="edge">
<title>Node1&#45;&gt;Node17</title>
<path fill="none" stroke="midnightblue" d="M672.1,-527C762.02,-510.96 944,-471.4 944,-414 944,-414 944,-414 944,-233 944,-198.81 927.4,-161.76 916.14,-140.57"/>
<polygon fill="midnightblue" stroke="midnightblue" points="919.18,-138.83 911.28,-131.77 913.05,-142.22 919.18,-138.83"/>
</g>
<!-- Node19 -->
<g id="node19" class="node">
<title>Node19</title>
<g id="a_node19"><a xlink:href="RotationRaw_8h.html" target="_top" xlink:title=" ">
<polygon fill="none" stroke="black" points="572,-224.5 572,-243.5 730,-243.5 730,-224.5 572,-224.5"/>
<text text-anchor="middle" x="651" y="-231.5" font-family="FreeSans.ttf" font-size="10.00">iDynTree/Core/RotationRaw.h</text>
</a>
</g>
</g>
<!-- Node1&#45;&gt;Node19 -->
<g id="edge21" class="edge">
<title>Node1&#45;&gt;Node19</title>
<path fill="none" stroke="midnightblue" d="M629.46,-526.42C643.18,-507.32 674,-459.37 674,-414 674,-414 674,-414 674,-350.5 674,-315.53 663.74,-275.74 656.92,-253.17"/>
<polygon fill="midnightblue" stroke="midnightblue" points="660.24,-252.07 653.91,-243.58 653.56,-254.17 660.24,-252.07"/>
</g>
<!-- Node23 -->
<g id="node23" class="node">
<title>Node23</title>
<g id="a_node23"><a xlink:href="PositionRaw_8h.html" target="_top" xlink:title=" ">
<polygon fill="none" stroke="black" points="144,-280.5 144,-299.5 300,-299.5 300,-280.5 144,-280.5"/>
<text text-anchor="middle" x="222" y="-287.5" font-family="FreeSans.ttf" font-size="10.00">iDynTree/Core/PositionRaw.h</text>
</a>
</g>
</g>
<!-- Node1&#45;&gt;Node23 -->
<g id="edge35" class="edge">
<title>Node1&#45;&gt;Node23</title>
<path fill="none" stroke="midnightblue" d="M573.93,-532.56C476.47,-527.24 265.87,-513.16 243,-490 194.69,-441.07 208.53,-348.84 217.29,-309.52"/>
<polygon fill="midnightblue" stroke="midnightblue" points="220.72,-310.25 219.63,-299.71 213.91,-308.63 220.72,-310.25"/>
</g>
<!-- Node24 -->
<g id="node24" class="node">
<title>Node24</title>
<g id="a_node24"><a xlink:href="RotationalInertiaRaw_8h.html" target="_top" xlink:title=" ">
<polygon fill="none" stroke="black" points="740,-336.5 740,-366.5 878,-366.5 878,-336.5 740,-336.5"/>
<text text-anchor="start" x="748" y="-354.5" font-family="FreeSans.ttf" font-size="10.00">iDynTree/Core/Rotational</text>
<text text-anchor="middle" x="809" y="-343.5" font-family="FreeSans.ttf" font-size="10.00">InertiaRaw.h</text>
</a>
</g>
</g>
<!-- Node1&#45;&gt;Node24 -->
<g id="edge38" class="edge">
<title>Node1&#45;&gt;Node24</title>
<path fill="none" stroke="midnightblue" d="M637.42,-526.44C651.1,-518.01 671.9,-504.33 688,-490 729.11,-453.4 769.95,-403.43 792.08,-374.91"/>
<polygon fill="midnightblue" stroke="midnightblue" points="795.01,-376.84 798.33,-366.78 789.46,-372.58 795.01,-376.84"/>
</g>
<!-- Node25 -->
<g id="node25" class="node">
<title>Node25</title>
<g id="a_node25"><a xlink:href="SpatialMotionVector_8h.html" target="_top" xlink:title=" ">
<polygon fill="none" stroke="black" points="251.5,-459.5 251.5,-489.5 406.5,-489.5 406.5,-459.5 251.5,-459.5"/>
<text text-anchor="start" x="259.5" y="-477.5" font-family="FreeSans.ttf" font-size="10.00">iDynTree/Core/SpatialMotion</text>
<text text-anchor="middle" x="329" y="-466.5" font-family="FreeSans.ttf" font-size="10.00">Vector.h</text>
</a>
</g>
</g>
<!-- Node1&#45;&gt;Node25 -->
<g id="edge40" class="edge">
<title>Node1&#45;&gt;Node25</title>
<path fill="none" stroke="midnightblue" d="M580.88,-526.48C535.94,-517.38 463.73,-502.77 408.12,-491.51"/>
<polygon fill="midnightblue" stroke="midnightblue" points="408.79,-488.08 398.29,-489.52 407.4,-494.94 408.79,-488.08"/>
</g>
<!-- Node30 -->
<g id="node30" class="node">
<title>Node30</title>
<g id="a_node30"><a xlink:href="SpatialForceVector_8h.html" target="_top" xlink:title=" ">
<polygon fill="none" stroke="black" points="466,-459.5 466,-489.5 614,-489.5 614,-459.5 466,-459.5"/>
<text text-anchor="start" x="474" y="-477.5" font-family="FreeSans.ttf" font-size="10.00">iDynTree/Core/SpatialForce</text>
<text text-anchor="middle" x="540" y="-466.5" font-family="FreeSans.ttf" font-size="10.00">Vector.h</text>
</a>
</g>
</g>
<!-- Node1&#45;&gt;Node30 -->
<g id="edge58" class="edge">
<title>Node1&#45;&gt;Node30</title>
<path fill="none" stroke="midnightblue" d="M611.11,-526.48C599.87,-518.42 582.58,-506.02 567.86,-495.47"/>
<polygon fill="midnightblue" stroke="midnightblue" points="569.73,-492.5 559.56,-489.52 565.65,-498.19 569.73,-492.5"/>
</g>
<!-- Node31 -->
<g id="node31" class="node">
<title>Node31</title>
<g id="a_node31"><a xlink:title=" ">
<polygon fill="none" stroke="#bfbfbf" points="972.5,-465 972.5,-484 1049.5,-484 1049.5,-465 972.5,-465"/>
<text text-anchor="middle" x="1011" y="-472" font-family="FreeSans.ttf" font-size="10.00">Eigen/Dense</text>
</a>
</g>
</g>
<!-- Node1&#45;&gt;Node31 -->
<g id="edge63" class="edge">
<title>Node1&#45;&gt;Node31</title>
<path fill="none" stroke="midnightblue" d="M672.16,-530.47C737.77,-523.96 857.36,-510.43 958,-490 962.77,-489.03 967.75,-487.87 972.66,-486.64"/>
<polygon fill="midnightblue" stroke="midnightblue" points="973.78,-489.96 982.56,-484.03 972,-483.19 973.78,-489.96"/>
</g>
<!-- Node32 -->
<g id="node32" class="node">
<title>Node32</title>
<g id="a_node32"><a xlink:title=" ">
<polygon fill="none" stroke="#bfbfbf" points="1067.5,-465 1067.5,-484 1162.5,-484 1162.5,-465 1067.5,-465"/>
<text text-anchor="middle" x="1115" y="-472" font-family="FreeSans.ttf" font-size="10.00">Eigen/Geometry</text>
</a>
</g>
</g>
<!-- Node1&#45;&gt;Node32 -->
<g id="edge64" class="edge">
<title>Node1&#45;&gt;Node32</title>
<path fill="none" stroke="midnightblue" d="M672.05,-532.35C753.11,-527.44 919.89,-515.04 1059,-490 1064.44,-489.02 1070.12,-487.79 1075.7,-486.47"/>
<polygon fill="midnightblue" stroke="midnightblue" points="1076.68,-489.83 1085.54,-484.01 1074.99,-483.04 1076.68,-489.83"/>
</g>
<!-- Node3 -->
<g id="node3" class="node">
<title>Node3</title>
<g id="a_node3"><a xlink:href="VectorFixSize_8h.html" target="_top" xlink:title=" ">
<polygon fill="none" stroke="black" points="211,-168.5 211,-187.5 373,-187.5 373,-168.5 211,-168.5"/>
<text text-anchor="middle" x="292" y="-175.5" font-family="FreeSans.ttf" font-size="10.00">iDynTree/Core/VectorFixSize.h</text>
</a>
</g>
</g>
<!-- Node2&#45;&gt;Node3 -->
<g id="edge2" class="edge">
<title>Node2&#45;&gt;Node3</title>
<path fill="none" stroke="midnightblue" d="M100.53,-403.36C79.69,-374.42 18.29,-279.61 64,-224 81.46,-202.76 144.93,-191.38 200.49,-185.39"/>
<polygon fill="midnightblue" stroke="midnightblue" points="201.17,-188.83 210.75,-184.33 200.45,-181.87 201.17,-188.83"/>
</g>
<!-- Node3&#45;&gt;Node4 -->
<g id="edge3" class="edge">
<title>Node3&#45;&gt;Node4</title>
<path fill="none" stroke="midnightblue" d="M282.03,-168.37C260.61,-149.81 209.93,-105.91 182.82,-82.44"/>
<polygon fill="midnightblue" stroke="midnightblue" points="184.77,-79.49 174.92,-75.59 180.19,-84.78 184.77,-79.49"/>
</g>
<!-- Node5 -->
<g id="node5" class="node">
<title>Node5</title>
<g id="a_node5"><a xlink:title=" ">
<polygon fill="none" stroke="#bfbfbf" points="138.5,-0.5 138.5,-19.5 191.5,-19.5 191.5,-0.5 138.5,-0.5"/>
<text text-anchor="middle" x="165" y="-7.5" font-family="FreeSans.ttf" font-size="10.00">cstddef</text>
</a>
</g>
</g>
<!-- Node3&#45;&gt;Node5 -->
<g id="edge19" class="edge">
<title>Node3&#45;&gt;Node5</title>
<path fill="none" stroke="midnightblue" d="M289.67,-168.47C283.56,-147.35 265.33,-91.73 234,-56 222.58,-42.98 206.53,-32.21 192.79,-24.48"/>
<polygon fill="midnightblue" stroke="midnightblue" points="194.19,-21.26 183.72,-19.62 190.88,-27.43 194.19,-21.26"/>
</g>
<!-- Node7 -->
<g id="node7" class="node">
<title>Node7</title>
<g id="a_node7"><a xlink:href="Span_8h.html" target="_top" xlink:title=" ">
<polygon fill="none" stroke="black" points="316.5,-56.5 316.5,-75.5 437.5,-75.5 437.5,-56.5 316.5,-56.5"/>
<text text-anchor="middle" x="377" y="-63.5" font-family="FreeSans.ttf" font-size="10.00">iDynTree/Core/Span.h</text>
</a>
</g>
</g>
<!-- Node3&#45;&gt;Node7 -->
<g id="edge6" class="edge">
<title>Node3&#45;&gt;Node7</title>
<path fill="none" stroke="midnightblue" d="M298.67,-168.37C312.76,-150.14 345.76,-107.43 364.11,-83.68"/>
<polygon fill="midnightblue" stroke="midnightblue" points="367.02,-85.64 370.36,-75.59 361.48,-81.36 367.02,-85.64"/>
</g>
<!-- Node8 -->
<g id="node8" class="node">
<title>Node8</title>
<g id="a_node8"><a xlink:title=" ">
<polygon fill="none" stroke="#bfbfbf" points="720,-0.5 720,-19.5 772,-19.5 772,-0.5 720,-0.5"/>
<text text-anchor="middle" x="746" y="-7.5" font-family="FreeSans.ttf" font-size="10.00">cassert</text>
</a>
</g>
</g>
<!-- Node3&#45;&gt;Node8 -->
<g id="edge18" class="edge">
<title>Node3&#45;&gt;Node8</title>
<path fill="none" stroke="midnightblue" d="M305.97,-168.49C328.35,-155.11 373.92,-128.94 415,-112 469.64,-89.47 635.8,-41.91 709.79,-21.11"/>
<polygon fill="midnightblue" stroke="midnightblue" points="710.92,-24.43 719.6,-18.35 709.03,-17.69 710.92,-24.43"/>
</g>
<!-- Node16 -->
<g id="node16" class="node">
<title>Node16</title>
<g id="a_node16"><a xlink:title=" ">
<polygon fill="none" stroke="#bfbfbf" points="492,-112.5 492,-131.5 536,-131.5 536,-112.5 492,-112.5"/>
<text text-anchor="middle" x="514" y="-119.5" font-family="FreeSans.ttf" font-size="10.00">string</text>
</a>
</g>
</g>
<!-- Node3&#45;&gt;Node16 -->
<g id="edge16" class="edge">
<title>Node3&#45;&gt;Node16</title>
<path fill="none" stroke="midnightblue" d="M330.92,-168.44C367.5,-160.26 424.01,-147.28 481.67,-132.25"/>
<polygon fill="midnightblue" stroke="midnightblue" points="482.9,-135.55 491.69,-129.63 481.13,-128.78 482.9,-135.55"/>
</g>
<!-- Node3&#45;&gt;Node17 -->
<g id="edge17" class="edge">
<title>Node3&#45;&gt;Node17</title>
<path fill="none" stroke="midnightblue" d="M373.35,-171.13C478.96,-163.3 668.92,-148.49 831,-132 843.01,-130.78 856.08,-129.27 867.89,-127.84"/>
<polygon fill="midnightblue" stroke="midnightblue" points="868.39,-131.31 877.89,-126.62 867.54,-124.36 868.39,-131.31"/>
</g>
<!-- Node18 -->
<g id="node18" class="node">
<title>Node18</title>
<g id="a_node18"><a xlink:title=" ">
<polygon fill="none" stroke="#bfbfbf" points="424,-112.5 424,-131.5 474,-131.5 474,-112.5 424,-112.5"/>
<text text-anchor="middle" x="449" y="-119.5" font-family="FreeSans.ttf" font-size="10.00">cstring</text>
</a>
</g>
</g>
<!-- Node3&#45;&gt;Node18 -->
<g id="edge20" class="edge">
<title>Node3&#45;&gt;Node18</title>
<path fill="none" stroke="midnightblue" d="M316.88,-168.44C343.29,-159.36 385.22,-144.94 414.74,-134.78"/>
<polygon fill="midnightblue" stroke="midnightblue" points="415.92,-138.08 424.24,-131.52 413.64,-131.46 415.92,-138.08"/>
</g>
<!-- Node4&#45;&gt;Node5 -->
<g id="edge4" class="edge">
<title>Node4&#45;&gt;Node5</title>
<path fill="none" stroke="midnightblue" d="M165,-56.08C165,-49.01 165,-38.86 165,-29.99"/>
<polygon fill="midnightblue" stroke="midnightblue" points="168.5,-29.75 165,-19.75 161.5,-29.75 168.5,-29.75"/>
</g>
<!-- Node6 -->
<g id="node6" class="node">
<title>Node6</title>
<g id="a_node6"><a xlink:title=" ">
<polygon fill="none" stroke="#bfbfbf" points="40,-0.5 40,-19.5 120,-19.5 120,-0.5 40,-0.5"/>
<text text-anchor="middle" x="80" y="-7.5" font-family="FreeSans.ttf" font-size="10.00">CoreExport.h</text>
</a>
</g>
</g>
<!-- Node4&#45;&gt;Node6 -->
<g id="edge5" class="edge">
<title>Node4&#45;&gt;Node6</title>
<path fill="none" stroke="midnightblue" d="M151.34,-56.32C138.08,-47.9 117.73,-34.97 102.15,-25.07"/>
<polygon fill="midnightblue" stroke="midnightblue" points="103.94,-22.06 93.62,-19.65 100.19,-27.97 103.94,-22.06"/>
</g>
<!-- Node7&#45;&gt;Node5 -->
<g id="edge10" class="edge">
<title>Node7&#45;&gt;Node5</title>
<path fill="none" stroke="midnightblue" d="M343.41,-56.44C304.74,-46.59 241.45,-30.47 201.57,-20.32"/>
<polygon fill="midnightblue" stroke="midnightblue" points="202.28,-16.88 191.72,-17.81 200.55,-23.67 202.28,-16.88"/>
</g>
<!-- Node7&#45;&gt;Node8 -->
<g id="edge7" class="edge">
<title>Node7&#45;&gt;Node8</title>
<path fill="none" stroke="midnightblue" d="M437.58,-57.71C514.87,-48.26 645.34,-31.8 709.61,-20.04"/>
<polygon fill="midnightblue" stroke="midnightblue" points="710.53,-23.42 719.7,-18.12 709.22,-16.55 710.53,-23.42"/>
</g>
<!-- Node9 -->
<g id="node9" class="node">
<title>Node9</title>
<g id="a_node9"><a xlink:title=" ">
<polygon fill="none" stroke="#bfbfbf" points="356,-0.5 356,-19.5 420,-19.5 420,-0.5 356,-0.5"/>
<text text-anchor="middle" x="388" y="-7.5" font-family="FreeSans.ttf" font-size="10.00">algorithm</text>
</a>
</g>
</g>
<!-- Node7&#45;&gt;Node9 -->
<g id="edge8" class="edge">
<title>Node7&#45;&gt;Node9</title>
<path fill="none" stroke="midnightblue" d="M378.82,-56.08C380.27,-48.93 382.37,-38.64 384.19,-29.69"/>
<polygon fill="midnightblue" stroke="midnightblue" points="387.65,-30.25 386.22,-19.75 380.79,-28.85 387.65,-30.25"/>
</g>
<!-- Node10 -->
<g id="node10" class="node">
<title>Node10</title>
<g id="a_node10"><a xlink:title=" ">
<polygon fill="none" stroke="#bfbfbf" points="438,-0.5 438,-19.5 480,-19.5 480,-0.5 438,-0.5"/>
<text text-anchor="middle" x="459" y="-7.5" font-family="FreeSans.ttf" font-size="10.00">array</text>
</a>
</g>
</g>
<!-- Node7&#45;&gt;Node10 -->
<g id="edge9" class="edge">
<title>Node7&#45;&gt;Node10</title>
<path fill="none" stroke="midnightblue" d="M390.17,-56.32C402.85,-47.98 422.23,-35.21 437.21,-25.35"/>
<polygon fill="midnightblue" stroke="midnightblue" points="439.43,-28.08 445.86,-19.65 435.58,-22.23 439.43,-28.08"/>
</g>
<!-- Node11 -->
<g id="node11" class="node">
<title>Node11</title>
<g id="a_node11"><a xlink:title=" ">
<polygon fill="none" stroke="#bfbfbf" points="498.5,-0.5 498.5,-19.5 551.5,-19.5 551.5,-0.5 498.5,-0.5"/>
<text text-anchor="middle" x="525" y="-7.5" font-family="FreeSans.ttf" font-size="10.00">iterator</text>
</a>
</g>
</g>
<!-- Node7&#45;&gt;Node11 -->
<g id="edge11" class="edge">
<title>Node7&#45;&gt;Node11</title>
<path fill="none" stroke="midnightblue" d="M400.45,-56.44C425.13,-47.44 464.19,-33.19 491.98,-23.05"/>
<polygon fill="midnightblue" stroke="midnightblue" points="493.46,-26.23 501.66,-19.52 491.06,-19.66 493.46,-26.23"/>
</g>
<!-- Node12 -->
<g id="node12" class="node">
<title>Node12</title>
<g id="a_node12"><a xlink:title=" ">
<polygon fill="none" stroke="#bfbfbf" points="570,-0.5 570,-19.5 614,-19.5 614,-0.5 570,-0.5"/>
<text text-anchor="middle" x="592" y="-7.5" font-family="FreeSans.ttf" font-size="10.00">limits</text>
</a>
</g>
</g>
<!-- Node7&#45;&gt;Node12 -->
<g id="edge12" class="edge">
<title>Node7&#45;&gt;Node12</title>
<path fill="none" stroke="midnightblue" d="M413.77,-56.49C448.96,-48.25 503.76,-35.12 559.92,-20.21"/>
<polygon fill="midnightblue" stroke="midnightblue" points="560.92,-23.56 569.68,-17.6 559.12,-16.8 560.92,-23.56"/>
</g>
<!-- Node13 -->
<g id="node13" class="node">
<title>Node13</title>
<g id="a_node13"><a xlink:title=" ">
<polygon fill="none" stroke="#bfbfbf" points="209.5,-0.5 209.5,-19.5 274.5,-19.5 274.5,-0.5 209.5,-0.5"/>
<text text-anchor="middle" x="242" y="-7.5" font-family="FreeSans.ttf" font-size="10.00">stdexcept</text>
</a>
</g>
</g>
<!-- Node7&#45;&gt;Node13 -->
<g id="edge13" class="edge">
<title>Node7&#45;&gt;Node13</title>
<path fill="none" stroke="midnightblue" d="M355.61,-56.44C333.29,-47.52 298.1,-33.44 272.79,-23.32"/>
<polygon fill="midnightblue" stroke="midnightblue" points="273.88,-19.98 263.29,-19.52 271.28,-26.48 273.88,-19.98"/>
</g>
<!-- Node14 -->
<g id="node14" class="node">
<title>Node14</title>
<g id="a_node14"><a xlink:title=" ">
<polygon fill="none" stroke="#bfbfbf" points="632.5,-0.5 632.5,-19.5 701.5,-19.5 701.5,-0.5 632.5,-0.5"/>
<text text-anchor="middle" x="667" y="-7.5" font-family="FreeSans.ttf" font-size="10.00">type_traits</text>
</a>
</g>
</g>
<!-- Node7&#45;&gt;Node14 -->
<g id="edge14" class="edge">
<title>Node7&#45;&gt;Node14</title>
<path fill="none" stroke="midnightblue" d="M425.6,-56.42C473.13,-47.96 547.83,-34.47 622.39,-20.09"/>
<polygon fill="midnightblue" stroke="midnightblue" points="623.27,-23.48 632.43,-18.14 621.94,-16.61 623.27,-23.48"/>
</g>
<!-- Node15 -->
<g id="node15" class="node">
<title>Node15</title>
<g id="a_node15"><a xlink:title=" ">
<polygon fill="none" stroke="#bfbfbf" points="292.5,-0.5 292.5,-19.5 337.5,-19.5 337.5,-0.5 292.5,-0.5"/>
<text text-anchor="middle" x="315" y="-7.5" font-family="FreeSans.ttf" font-size="10.00">utility</text>
</a>
</g>
</g>
<!-- Node7&#45;&gt;Node15 -->
<g id="edge15" class="edge">
<title>Node7&#45;&gt;Node15</title>
<path fill="none" stroke="midnightblue" d="M367.04,-56.32C357.87,-48.34 344.06,-36.31 332.97,-26.65"/>
<polygon fill="midnightblue" stroke="midnightblue" points="334.98,-23.76 325.14,-19.83 330.38,-29.04 334.98,-23.76"/>
</g>
<!-- Node19&#45;&gt;Node16 -->
<g id="edge34" class="edge">
<title>Node19&#45;&gt;Node16</title>
<path fill="none" stroke="midnightblue" d="M640.25,-224.37C617.04,-205.73 561.99,-161.53 532.85,-138.13"/>
<polygon fill="midnightblue" stroke="midnightblue" points="534.69,-135.12 524.7,-131.59 530.31,-140.58 534.69,-135.12"/>
</g>
<!-- Node20 -->
<g id="node20" class="node">
<title>Node20</title>
<g id="a_node20"><a xlink:href="MatrixFixSize_8h.html" target="_top" xlink:title=" ">
<polygon fill="none" stroke="black" points="710.5,-168.5 710.5,-187.5 873.5,-187.5 873.5,-168.5 710.5,-168.5"/>
<text text-anchor="middle" x="792" y="-175.5" font-family="FreeSans.ttf" font-size="10.00">iDynTree/Core/MatrixFixSize.h</text>
</a>
</g>
</g>
<!-- Node19&#45;&gt;Node20 -->
<g id="edge22" class="edge">
<title>Node19&#45;&gt;Node20</title>
<path fill="none" stroke="midnightblue" d="M673.34,-224.44C696.75,-215.48 733.74,-201.31 760.19,-191.18"/>
<polygon fill="midnightblue" stroke="midnightblue" points="761.68,-194.36 769.76,-187.52 759.17,-187.82 761.68,-194.36"/>
</g>
<!-- Node20&#45;&gt;Node4 -->
<g id="edge23" class="edge">
<title>Node20&#45;&gt;Node4</title>
<path fill="none" stroke="midnightblue" d="M763.16,-168.49C736.29,-160.24 695.33,-146.83 661,-132 643.48,-124.43 641.28,-117.48 623,-112 586.79,-101.15 353.86,-81.75 234.82,-72.37"/>
<polygon fill="midnightblue" stroke="midnightblue" points="234.95,-68.87 224.71,-71.58 234.4,-75.85 234.95,-68.87"/>
</g>
<!-- Node20&#45;&gt;Node8 -->
<g id="edge29" class="edge">
<title>Node20&#45;&gt;Node8</title>
<path fill="none" stroke="midnightblue" d="M803.37,-168.3C817.53,-156.32 838.94,-133.76 831,-112 817.88,-76.05 785.71,-44.02 764.92,-26.1"/>
<polygon fill="midnightblue" stroke="midnightblue" points="766.98,-23.25 757.06,-19.52 762.48,-28.62 766.98,-23.25"/>
</g>
<!-- Node20&#45;&gt;Node16 -->
<g id="edge31" class="edge">
<title>Node20&#45;&gt;Node16</title>
<path fill="none" stroke="midnightblue" d="M735.75,-168.44C687.72,-160.74 616.65,-148.46 546.21,-132.1"/>
<polygon fill="midnightblue" stroke="midnightblue" points="546.81,-128.65 536.28,-129.76 545.21,-135.46 546.81,-128.65"/>
</g>
<!-- Node20&#45;&gt;Node17 -->
<g id="edge33" class="edge">
<title>Node20&#45;&gt;Node17</title>
<path fill="none" stroke="midnightblue" d="M810.06,-168.44C828.57,-159.68 857.58,-145.94 878.86,-135.86"/>
<polygon fill="midnightblue" stroke="midnightblue" points="880.48,-138.96 888.02,-131.52 877.49,-132.63 880.48,-138.96"/>
</g>
<!-- Node20&#45;&gt;Node18 -->
<g id="edge30" class="edge">
<title>Node20&#45;&gt;Node18</title>
<path fill="none" stroke="midnightblue" d="M716.66,-168.47C656.16,-161.06 568.9,-149.11 483.98,-132.01"/>
<polygon fill="midnightblue" stroke="midnightblue" points="484.67,-128.58 474.18,-130.01 483.27,-135.43 484.67,-128.58"/>
</g>
<!-- Node21 -->
<g id="node21" class="node">
<title>Node21</title>
<g id="a_node21"><a xlink:href="MatrixView_8h.html" target="_top" xlink:title=" ">
<polygon fill="none" stroke="black" points="670,-112.5 670,-131.5 822,-131.5 822,-112.5 670,-112.5"/>
<text text-anchor="middle" x="746" y="-119.5" font-family="FreeSans.ttf" font-size="10.00">iDynTree/Core/MatrixView.h</text>
</a>
</g>
</g>
<!-- Node20&#45;&gt;Node21 -->
<g id="edge24" class="edge">
<title>Node20&#45;&gt;Node21</title>
<path fill="none" stroke="midnightblue" d="M784.4,-168.08C777.77,-160.3 767.98,-148.8 759.94,-139.37"/>
<polygon fill="midnightblue" stroke="midnightblue" points="762.6,-137.09 753.45,-131.75 757.27,-141.63 762.6,-137.09"/>
</g>
<!-- Node22 -->
<g id="node22" class="node">
<title>Node22</title>
<g id="a_node22"><a xlink:title=" ">
<polygon fill="none" stroke="#bfbfbf" points="554,-112.5 554,-131.5 614,-131.5 614,-112.5 554,-112.5"/>
<text text-anchor="middle" x="584" y="-119.5" font-family="FreeSans.ttf" font-size="10.00">iostream</text>
</a>
</g>
</g>
<!-- Node20&#45;&gt;Node22 -->
<g id="edge32" class="edge">
<title>Node20&#45;&gt;Node22</title>
<path fill="none" stroke="midnightblue" d="M759.04,-168.44C722.37,-158.92 663.12,-143.54 623.87,-133.35"/>
<polygon fill="midnightblue" stroke="midnightblue" points="624.66,-129.94 614.1,-130.82 622.9,-136.72 624.66,-129.94"/>
</g>
<!-- Node21&#45;&gt;Node4 -->
<g id="edge28" class="edge">
<title>Node21&#45;&gt;Node4</title>
<path fill="none" stroke="midnightblue" d="M669.9,-113.34C665.19,-112.89 660.53,-112.43 656,-112 505.96,-97.62 330.03,-81.73 234.81,-73.21"/>
<polygon fill="midnightblue" stroke="midnightblue" points="235,-69.72 224.72,-72.31 234.37,-76.69 235,-69.72"/>
</g>
<!-- Node21&#45;&gt;Node7 -->
<g id="edge27" class="edge">
<title>Node21&#45;&gt;Node7</title>
<path fill="none" stroke="midnightblue" d="M687.53,-112.44C621.68,-102.81 514.78,-87.16 445.18,-76.98"/>
<polygon fill="midnightblue" stroke="midnightblue" points="445.6,-73.5 435.2,-75.52 444.58,-80.43 445.6,-73.5"/>
</g>
<!-- Node21&#45;&gt;Node8 -->
<g id="edge25" class="edge">
<title>Node21&#45;&gt;Node8</title>
<path fill="none" stroke="midnightblue" d="M746,-112.37C746,-94.62 746,-53.67 746,-29.6"/>
<polygon fill="midnightblue" stroke="midnightblue" points="749.5,-29.59 746,-19.59 742.5,-29.59 749.5,-29.59"/>
</g>
<!-- Node21&#45;&gt;Node14 -->
<g id="edge26" class="edge">
<title>Node21&#45;&gt;Node14</title>
<path fill="none" stroke="midnightblue" d="M739.8,-112.37C726.76,-94.22 696.3,-51.8 679.2,-27.99"/>
<polygon fill="midnightblue" stroke="midnightblue" points="681.85,-25.67 673.17,-19.59 676.16,-29.76 681.85,-25.67"/>
</g>
<!-- Node23&#45;&gt;Node3 -->
<g id="edge36" class="edge">
<title>Node23&#45;&gt;Node3</title>
<path fill="none" stroke="midnightblue" d="M213.38,-280.1C201.89,-267.1 184.26,-242.46 196,-224 206.16,-208.01 223.68,-197.6 240.98,-190.87"/>
<polygon fill="midnightblue" stroke="midnightblue" points="242.27,-194.13 250.53,-187.5 239.93,-187.53 242.27,-194.13"/>
</g>
<!-- Node23&#45;&gt;Node16 -->
<g id="edge37" class="edge">
<title>Node23&#45;&gt;Node16</title>
<path fill="none" stroke="midnightblue" d="M220.23,-280.17C218.02,-266.35 216.04,-239.58 230,-224 276.32,-172.28 316.67,-211.48 382,-188 421.43,-173.83 464.53,-151.13 490.4,-136.65"/>
<polygon fill="midnightblue" stroke="midnightblue" points="492.46,-139.51 499.43,-131.54 489.01,-133.42 492.46,-139.51"/>
</g>
<!-- Node24&#45;&gt;Node20 -->
<g id="edge39" class="edge">
<title>Node24&#45;&gt;Node20</title>
<path fill="none" stroke="midnightblue" d="M807.61,-336.47C804.56,-305.7 797.29,-232.33 793.85,-197.7"/>
<polygon fill="midnightblue" stroke="midnightblue" points="797.32,-197.17 792.85,-187.56 790.35,-197.86 797.32,-197.17"/>
</g>
<!-- Node25&#45;&gt;Node3 -->
<g id="edge41" class="edge">
<title>Node25&#45;&gt;Node3</title>
<path fill="none" stroke="midnightblue" d="M302.19,-459.49C257.58,-434.46 169.59,-377.34 135,-300 110.13,-244.4 194.69,-207.85 249.26,-190.58"/>
<polygon fill="midnightblue" stroke="midnightblue" points="250.52,-193.85 259.06,-187.58 248.48,-187.15 250.52,-193.85"/>
</g>
<!-- Node26 -->
<g id="node26" class="node">
<title>Node26</title>
<g id="a_node26"><a xlink:href="GeomVector3_8h.html" target="_top" xlink:title=" ">
<polygon fill="none" stroke="black" points="238.5,-224.5 238.5,-243.5 401.5,-243.5 401.5,-224.5 238.5,-224.5"/>
<text text-anchor="middle" x="320" y="-231.5" font-family="FreeSans.ttf" font-size="10.00">iDynTree/Core/GeomVector3.h</text>
</a>
</g>
</g>
<!-- Node25&#45;&gt;Node26 -->
<g id="edge42" class="edge">
<title>Node25&#45;&gt;Node26</title>
<path fill="none" stroke="midnightblue" d="M322.09,-459.31C317.65,-449.4 312.31,-435.72 310,-423 298.86,-361.75 309.83,-287.57 316.18,-253.61"/>
<polygon fill="midnightblue" stroke="midnightblue" points="319.63,-254.2 318.12,-243.71 312.76,-252.85 319.63,-254.2"/>
</g>
<!-- Node27 -->
<g id="node27" class="node">
<title>Node27</title>
<g id="a_node27"><a xlink:href="SpatialVector_8h.html" target="_top" xlink:title=" ">
<polygon fill="none" stroke="black" points="318.5,-403.5 318.5,-422.5 479.5,-422.5 479.5,-403.5 318.5,-403.5"/>
<text text-anchor="middle" x="399" y="-410.5" font-family="FreeSans.ttf" font-size="10.00">iDynTree/Core/SpatialVector.h</text>
</a>
</g>
</g>
<!-- Node25&#45;&gt;Node27 -->
<g id="edge44" class="edge">
<title>Node25&#45;&gt;Node27</title>
<path fill="none" stroke="midnightblue" d="M345.59,-459.4C356.29,-450.31 370.19,-438.49 381.13,-429.19"/>
<polygon fill="midnightblue" stroke="midnightblue" points="383.46,-431.8 388.81,-422.66 378.93,-426.47 383.46,-431.8"/>
</g>
<!-- Node26&#45;&gt;Node3 -->
<g id="edge43" class="edge">
<title>Node26&#45;&gt;Node3</title>
<path fill="none" stroke="midnightblue" d="M315.38,-224.08C311.54,-216.69 305.98,-205.95 301.24,-196.81"/>
<polygon fill="midnightblue" stroke="midnightblue" points="304.25,-195.02 296.54,-187.75 298.03,-198.24 304.25,-195.02"/>
</g>
<!-- Node27&#45;&gt;Node4 -->
<g id="edge54" class="edge">
<title>Node27&#45;&gt;Node4</title>
<path fill="none" stroke="midnightblue" d="M370.92,-403.46C309.9,-384.4 168.01,-337.11 135,-300 115,-277.51 116,-265.1 116,-235 116,-235 116,-235 116,-177 116,-141.47 137.6,-104.63 152.12,-83.88"/>
<polygon fill="midnightblue" stroke="midnightblue" points="155.13,-85.69 158.19,-75.54 149.47,-81.57 155.13,-85.69"/>
</g>
<!-- Node27&#45;&gt;Node17 -->
<g id="edge57" class="edge">
<title>Node27&#45;&gt;Node17</title>
<path fill="none" stroke="midnightblue" d="M479.66,-409.6C610.33,-404.97 856.81,-392.89 887,-367 913.43,-344.33 906,-325.82 906,-291 906,-291 906,-291 906,-233 906,-200.95 906,-163.64 906,-141.75"/>
<polygon fill="midnightblue" stroke="midnightblue" points="909.5,-141.56 906,-131.56 902.5,-141.56 909.5,-141.56"/>
</g>
<!-- Node27&#45;&gt;Node22 -->
<g id="edge56" class="edge">
<title>Node27&#45;&gt;Node22</title>
<path fill="none" stroke="midnightblue" d="M453.12,-403.44C532.22,-387.68 676.77,-345.82 739,-244 743.64,-236.42 743.24,-231.81 739,-224 724.9,-197.99 650.82,-157.11 610.39,-136.23"/>
<polygon fill="midnightblue" stroke="midnightblue" points="611.86,-133.05 601.37,-131.61 608.67,-139.28 611.86,-133.05"/>
</g>
<!-- Node27&#45;&gt;Node26 -->
<g id="edge55" class="edge">
<title>Node27&#45;&gt;Node26</title>
<path fill="none" stroke="midnightblue" d="M395.41,-403.29C386.61,-382.06 363.18,-326.04 342,-280 337.81,-270.9 332.94,-260.88 328.85,-252.61"/>
<polygon fill="midnightblue" stroke="midnightblue" points="331.93,-250.96 324.34,-243.57 325.67,-254.08 331.93,-250.96"/>
</g>
<!-- Node28 -->
<g id="node28" class="node">
<title>Node28</title>
<g id="a_node28"><a xlink:href="Position_8h.html" target="_top" xlink:title=" ">
<polygon fill="none" stroke="black" points="396.5,-342 396.5,-361 461.5,-361 461.5,-342 396.5,-342"/>
<text text-anchor="middle" x="429" y="-349" font-family="FreeSans.ttf" font-size="10.00">Position.h</text>
</a>
</g>
</g>
<!-- Node27&#45;&gt;Node28 -->
<g id="edge45" class="edge">
<title>Node27&#45;&gt;Node28</title>
<path fill="none" stroke="midnightblue" d="M403.3,-403.48C407.66,-394.82 414.56,-381.15 420.1,-370.15"/>
<polygon fill="midnightblue" stroke="midnightblue" points="423.33,-371.51 424.71,-361.01 417.08,-368.36 423.33,-371.51"/>
</g>
<!-- Node29 -->
<g id="node29" class="node">
<title>Node29</title>
<g id="a_node29"><a xlink:href="Rotation_8h.html" target="_top" xlink:title=" ">
<polygon fill="none" stroke="black" points="470,-280.5 470,-299.5 608,-299.5 608,-280.5 470,-280.5"/>
<text text-anchor="middle" x="539" y="-287.5" font-family="FreeSans.ttf" font-size="10.00">iDynTree/Core/Rotation.h</text>
</a>
</g>
</g>
<!-- Node27&#45;&gt;Node29 -->
<g id="edge53" class="edge">
<title>Node27&#45;&gt;Node29</title>
<path fill="none" stroke="midnightblue" d="M415.62,-403.38C430.81,-395.11 453.52,-381.71 471,-367 492.48,-348.91 513.45,-324.06 526.29,-307.77"/>
<polygon fill="midnightblue" stroke="midnightblue" points="529.19,-309.75 532.55,-299.7 523.66,-305.46 529.19,-309.75"/>
</g>
<!-- Node28&#45;&gt;Node16 -->
<g id="edge52" class="edge">
<title>Node28&#45;&gt;Node16</title>
<path fill="none" stroke="midnightblue" d="M432.23,-341.86C444.69,-308.5 489.85,-187.64 507.17,-141.28"/>
<polygon fill="midnightblue" stroke="midnightblue" points="510.55,-142.24 510.77,-131.65 503.99,-139.79 510.55,-142.24"/>
</g>
<!-- Node28&#45;&gt;Node23 -->
<g id="edge46" class="edge">
<title>Node28&#45;&gt;Node23</title>
<path fill="none" stroke="midnightblue" d="M399.34,-341.98C363.07,-331.55 301.54,-313.86 261.34,-302.31"/>
<polygon fill="midnightblue" stroke="midnightblue" points="262.18,-298.91 251.6,-299.51 260.25,-305.64 262.18,-298.91"/>
</g>
<!-- Node28&#45;&gt;Node29 -->
<g id="edge47" class="edge">
<title>Node28&#45;&gt;Node29</title>
<path fill="none" stroke="midnightblue" d="M444.76,-341.98C462.98,-332.12 493.17,-315.79 514.47,-304.27"/>
<polygon fill="midnightblue" stroke="midnightblue" points="516.14,-307.35 523.27,-299.51 512.81,-301.19 516.14,-307.35"/>
</g>
<!-- Node29&#45;&gt;Node3 -->
<g id="edge51" class="edge">
<title>Node29&#45;&gt;Node3</title>
<path fill="none" stroke="midnightblue" d="M523.5,-280.44C499.69,-267.44 452.5,-242.32 411,-224 383.06,-211.67 350.6,-199.53 326.64,-190.98"/>
<polygon fill="midnightblue" stroke="midnightblue" points="327.52,-187.58 316.93,-187.54 325.19,-194.18 327.52,-187.58"/>
</g>
<!-- Node29&#45;&gt;Node16 -->
<g id="edge48" class="edge">
<title>Node29&#45;&gt;Node16</title>
<path fill="none" stroke="midnightblue" d="M537.66,-280.08C533.72,-253.95 522.16,-177.21 516.8,-141.58"/>
<polygon fill="midnightblue" stroke="midnightblue" points="520.24,-140.94 515.29,-131.57 513.32,-141.98 520.24,-140.94"/>
</g>
<!-- Node29&#45;&gt;Node19 -->
<g id="edge50" class="edge">
<title>Node29&#45;&gt;Node19</title>
<path fill="none" stroke="midnightblue" d="M556.99,-280.32C575.04,-271.62 603.05,-258.12 623.8,-248.11"/>
<polygon fill="midnightblue" stroke="midnightblue" points="625.56,-251.15 633.05,-243.65 622.52,-244.84 625.56,-251.15"/>
</g>
<!-- Node29&#45;&gt;Node26 -->
<g id="edge49" class="edge">
<title>Node29&#45;&gt;Node26</title>
<path fill="none" stroke="midnightblue" d="M504.3,-280.44C466.42,-271.1 405.65,-256.12 364.34,-245.93"/>
<polygon fill="midnightblue" stroke="midnightblue" points="365.09,-242.51 354.54,-243.52 363.41,-249.31 365.09,-242.51"/>
</g>
<!-- Node30&#45;&gt;Node3 -->
<g id="edge59" class="edge">
<title>Node30&#45;&gt;Node3</title>
<path fill="none" stroke="midnightblue" d="M554.57,-459.19C587.18,-425.39 659.96,-339.06 617,-280 585.94,-237.3 439.83,-204.99 354.46,-189.38"/>
<polygon fill="midnightblue" stroke="midnightblue" points="354.82,-185.89 344.36,-187.56 353.58,-192.78 354.82,-185.89"/>
</g>
<!-- Node30&#45;&gt;Node26 -->
<g id="edge60" class="edge">
<title>Node30&#45;&gt;Node26</title>
<path fill="none" stroke="midnightblue" d="M535.58,-459.22C526.78,-432.57 504.94,-374.45 471,-336 435.67,-295.97 381.03,-264.72 348.07,-248.14"/>
<polygon fill="midnightblue" stroke="midnightblue" points="349.51,-244.94 338.99,-243.66 346.41,-251.22 349.51,-244.94"/>
</g>
<!-- Node30&#45;&gt;Node27 -->
<g id="edge61" class="edge">
<title>Node30&#45;&gt;Node27</title>
<path fill="none" stroke="midnightblue" d="M506.58,-459.4C483.03,-449.46 451.76,-436.26 429.01,-426.66"/>
<polygon fill="midnightblue" stroke="midnightblue" points="430.09,-423.32 419.52,-422.66 427.37,-429.77 430.09,-423.32"/>
</g>
</g>
</svg>
