<?xml version="1.0" encoding="UTF-8" standalone="no"?>
<!DOCTYPE svg PUBLIC "-//W3C//DTD SVG 1.1//EN"
 "http://www.w3.org/Graphics/SVG/1.1/DTD/svg11.dtd">
<!-- Generated by graphviz version 2.43.0 (0)
 -->
<!-- Title: Rotation.h Pages: 1 -->
<svg width="869pt" height="308pt"
 viewBox="0.00 0.00 869.00 308.00" xmlns="http://www.w3.org/2000/svg" xmlns:xlink="http://www.w3.org/1999/xlink">
<g id="graph0" class="graph" transform="scale(1 1) rotate(0) translate(4 304)">
<title>Rotation.h</title>
<!-- Node1 -->
<g id="node1" class="node">
<title>Node1</title>
<g id="a_node1"><a xlink:title=" ">
<polygon fill="#bfbfbf" stroke="black" points="317.5,-280.5 317.5,-299.5 384.5,-299.5 384.5,-280.5 317.5,-280.5"/>
<text text-anchor="middle" x="351" y="-287.5" font-family="FreeSans.ttf" font-size="10.00">Rotation.h</text>
</a>
</g>
</g>
<!-- Node2 -->
<g id="node2" class="node">
<title>Node2</title>
<g id="a_node2"><a xlink:title=" ">
<polygon fill="none" stroke="#bfbfbf" points="351,-112.5 351,-131.5 395,-131.5 395,-112.5 351,-112.5"/>
<text text-anchor="middle" x="373" y="-119.5" font-family="FreeSans.ttf" font-size="10.00">string</text>
</a>
</g>
</g>
<!-- Node1&#45;&gt;Node2 -->
<g id="edge1" class="edge">
<title>Node1&#45;&gt;Node2</title>
<path fill="none" stroke="midnightblue" d="M361.16,-280.19C369.91,-271.87 381.9,-258.54 387,-244 399.2,-209.22 388.3,-165.71 380.09,-141.48"/>
<polygon fill="midnightblue" stroke="midnightblue" points="383.29,-140.02 376.61,-131.8 376.71,-142.4 383.29,-140.02"/>
</g>
<!-- Node3 -->
<g id="node3" class="node">
<title>Node3</title>
<g id="a_node3"><a xlink:href="GeomVector3_8h.html" target="_top" xlink:title=" ">
<polygon fill="none" stroke="black" points="214.5,-224.5 214.5,-243.5 377.5,-243.5 377.5,-224.5 214.5,-224.5"/>
<text text-anchor="middle" x="296" y="-231.5" font-family="FreeSans.ttf" font-size="10.00">iDynTree/Core/GeomVector3.h</text>
</a>
</g>
</g>
<!-- Node1&#45;&gt;Node3 -->
<g id="edge2" class="edge">
<title>Node1&#45;&gt;Node3</title>
<path fill="none" stroke="midnightblue" d="M341.92,-280.08C333.83,-272.14 321.8,-260.34 312.09,-250.8"/>
<polygon fill="midnightblue" stroke="midnightblue" points="314.5,-248.26 304.91,-243.75 309.6,-253.25 314.5,-248.26"/>
</g>
<!-- Node4 -->
<g id="node4" class="node">
<title>Node4</title>
<g id="a_node4"><a xlink:href="VectorFixSize_8h.html" target="_top" xlink:title=" ">
<polygon fill="none" stroke="black" points="215,-168.5 215,-187.5 377,-187.5 377,-168.5 215,-168.5"/>
<text text-anchor="middle" x="296" y="-175.5" font-family="FreeSans.ttf" font-size="10.00">iDynTree/Core/VectorFixSize.h</text>
</a>
</g>
</g>
<!-- Node1&#45;&gt;Node4 -->
<g id="edge36" class="edge">
<title>Node1&#45;&gt;Node4</title>
<path fill="none" stroke="midnightblue" d="M317.36,-289.27C282.85,-287.52 230.68,-278.78 205,-244 187.5,-220.29 222.75,-201.84 254.34,-190.76"/>
<polygon fill="midnightblue" stroke="midnightblue" points="255.58,-194.03 263.97,-187.55 253.37,-187.39 255.58,-194.03"/>
</g>
<!-- Node19 -->
<g id="node19" class="node">
<title>Node19</title>
<g id="a_node19"><a xlink:href="RotationRaw_8h.html" target="_top" xlink:title=" ">
<polygon fill="none" stroke="black" points="434,-224.5 434,-243.5 592,-243.5 592,-224.5 434,-224.5"/>
<text text-anchor="middle" x="513" y="-231.5" font-family="FreeSans.ttf" font-size="10.00">iDynTree/Core/RotationRaw.h</text>
</a>
</g>
</g>
<!-- Node1&#45;&gt;Node19 -->
<g id="edge22" class="edge">
<title>Node1&#45;&gt;Node19</title>
<path fill="none" stroke="midnightblue" d="M376.67,-280.44C403.92,-271.36 447.18,-256.94 477.65,-246.78"/>
<polygon fill="midnightblue" stroke="midnightblue" points="479.07,-250 487.45,-243.52 476.86,-243.36 479.07,-250"/>
</g>
<!-- Node3&#45;&gt;Node4 -->
<g id="edge3" class="edge">
<title>Node3&#45;&gt;Node4</title>
<path fill="none" stroke="midnightblue" d="M296,-224.08C296,-217.01 296,-206.86 296,-197.99"/>
<polygon fill="midnightblue" stroke="midnightblue" points="299.5,-197.75 296,-187.75 292.5,-197.75 299.5,-197.75"/>
</g>
<!-- Node4&#45;&gt;Node2 -->
<g id="edge17" class="edge">
<title>Node4&#45;&gt;Node2</title>
<path fill="none" stroke="midnightblue" d="M308.37,-168.32C320.16,-160.06 338.13,-147.45 352.14,-137.63"/>
<polygon fill="midnightblue" stroke="midnightblue" points="354.48,-140.26 360.66,-131.65 350.46,-134.53 354.48,-140.26"/>
</g>
<!-- Node5 -->
<g id="node5" class="node">
<title>Node5</title>
<g id="a_node5"><a xlink:href="Utils_8h.html" target="_top" xlink:title=" ">
<polygon fill="none" stroke="black" points="187.5,-56.5 187.5,-75.5 306.5,-75.5 306.5,-56.5 187.5,-56.5"/>
<text text-anchor="middle" x="247" y="-63.5" font-family="FreeSans.ttf" font-size="10.00">iDynTree/Core/Utils.h</text>
</a>
</g>
</g>
<!-- Node4&#45;&gt;Node5 -->
<g id="edge4" class="edge">
<title>Node4&#45;&gt;Node5</title>
<path fill="none" stroke="midnightblue" d="M290.61,-168.24C285.24,-159.32 276.97,-145 271,-132 263.94,-116.63 257.4,-98.53 252.93,-85.34"/>
<polygon fill="midnightblue" stroke="midnightblue" points="256.17,-83.98 249.7,-75.58 249.52,-86.18 256.17,-83.98"/>
</g>
<!-- Node6 -->
<g id="node6" class="node">
<title>Node6</title>
<g id="a_node6"><a xlink:title=" ">
<polygon fill="none" stroke="#bfbfbf" points="98.5,-0.5 98.5,-19.5 151.5,-19.5 151.5,-0.5 98.5,-0.5"/>
<text text-anchor="middle" x="125" y="-7.5" font-family="FreeSans.ttf" font-size="10.00">cstddef</text>
</a>
</g>
</g>
<!-- Node4&#45;&gt;Node6 -->
<g id="edge20" class="edge">
<title>Node4&#45;&gt;Node6</title>
<path fill="none" stroke="midnightblue" d="M284.68,-168.43C262.96,-151.73 214.36,-113.24 178,-76 163.12,-60.76 147.95,-41.72 137.67,-28.2"/>
<polygon fill="midnightblue" stroke="midnightblue" points="140.2,-25.73 131.4,-19.83 134.59,-29.93 140.2,-25.73"/>
</g>
<!-- Node8 -->
<g id="node8" class="node">
<title>Node8</title>
<g id="a_node8"><a xlink:href="Span_8h.html" target="_top" xlink:title=" ">
<polygon fill="none" stroke="black" points="330.5,-56.5 330.5,-75.5 451.5,-75.5 451.5,-56.5 330.5,-56.5"/>
<text text-anchor="middle" x="391" y="-63.5" font-family="FreeSans.ttf" font-size="10.00">iDynTree/Core/Span.h</text>
</a>
</g>
</g>
<!-- Node4&#45;&gt;Node8 -->
<g id="edge7" class="edge">
<title>Node4&#45;&gt;Node8</title>
<path fill="none" stroke="midnightblue" d="M295.52,-168.08C295.26,-154.61 296.61,-128.89 309,-112 319.9,-97.15 337.24,-86.62 353.18,-79.5"/>
<polygon fill="midnightblue" stroke="midnightblue" points="354.95,-82.56 362.85,-75.5 352.27,-76.09 354.95,-82.56"/>
</g>
<!-- Node9 -->
<g id="node9" class="node">
<title>Node9</title>
<g id="a_node9"><a xlink:title=" ">
<polygon fill="none" stroke="#bfbfbf" points="681,-0.5 681,-19.5 733,-19.5 733,-0.5 681,-0.5"/>
<text text-anchor="middle" x="707" y="-7.5" font-family="FreeSans.ttf" font-size="10.00">cassert</text>
</a>
</g>
</g>
<!-- Node4&#45;&gt;Node9 -->
<g id="edge19" class="edge">
<title>Node4&#45;&gt;Node9</title>
<path fill="none" stroke="midnightblue" d="M299.72,-168.39C306.21,-154.4 320.96,-126.78 342,-112 348.91,-107.14 580.1,-44.96 670.9,-20.65"/>
<polygon fill="midnightblue" stroke="midnightblue" points="672,-23.98 680.75,-18.01 670.19,-17.21 672,-23.98"/>
</g>
<!-- Node17 -->
<g id="node17" class="node">
<title>Node17</title>
<g id="a_node17"><a xlink:title=" ">
<polygon fill="none" stroke="#bfbfbf" points="481,-112.5 481,-131.5 537,-131.5 537,-112.5 481,-112.5"/>
<text text-anchor="middle" x="509" y="-119.5" font-family="FreeSans.ttf" font-size="10.00">sstream</text>
</a>
</g>
</g>
<!-- Node4&#45;&gt;Node17 -->
<g id="edge18" class="edge">
<title>Node4&#45;&gt;Node17</title>
<path fill="none" stroke="midnightblue" d="M329.75,-168.44C368.17,-158.7 430.78,-142.83 470.91,-132.66"/>
<polygon fill="midnightblue" stroke="midnightblue" points="472.02,-135.99 480.85,-130.14 470.3,-129.2 472.02,-135.99"/>
</g>
<!-- Node18 -->
<g id="node18" class="node">
<title>Node18</title>
<g id="a_node18"><a xlink:title=" ">
<polygon fill="none" stroke="#bfbfbf" points="413,-112.5 413,-131.5 463,-131.5 463,-112.5 413,-112.5"/>
<text text-anchor="middle" x="438" y="-119.5" font-family="FreeSans.ttf" font-size="10.00">cstring</text>
</a>
</g>
</g>
<!-- Node4&#45;&gt;Node18 -->
<g id="edge21" class="edge">
<title>Node4&#45;&gt;Node18</title>
<path fill="none" stroke="midnightblue" d="M318.5,-168.44C342.08,-159.48 379.32,-145.31 405.96,-135.18"/>
<polygon fill="midnightblue" stroke="midnightblue" points="407.5,-138.34 415.6,-131.52 405.01,-131.8 407.5,-138.34"/>
</g>
<!-- Node5&#45;&gt;Node6 -->
<g id="edge5" class="edge">
<title>Node5&#45;&gt;Node6</title>
<path fill="none" stroke="midnightblue" d="M227.67,-56.44C207.68,-47.6 176.26,-33.69 153.44,-23.59"/>
<polygon fill="midnightblue" stroke="midnightblue" points="154.8,-20.36 144.24,-19.52 151.97,-26.76 154.8,-20.36"/>
</g>
<!-- Node7 -->
<g id="node7" class="node">
<title>Node7</title>
<g id="a_node7"><a xlink:title=" ">
<polygon fill="none" stroke="#bfbfbf" points="0,-0.5 0,-19.5 80,-19.5 80,-0.5 0,-0.5"/>
<text text-anchor="middle" x="40" y="-7.5" font-family="FreeSans.ttf" font-size="10.00">CoreExport.h</text>
</a>
</g>
</g>
<!-- Node5&#45;&gt;Node7 -->
<g id="edge6" class="edge">
<title>Node5&#45;&gt;Node7</title>
<path fill="none" stroke="midnightblue" d="M214.2,-56.44C178.62,-47.16 121.69,-32.31 82.65,-22.13"/>
<polygon fill="midnightblue" stroke="midnightblue" points="83.21,-18.65 72.65,-19.52 81.44,-25.43 83.21,-18.65"/>
</g>
<!-- Node8&#45;&gt;Node6 -->
<g id="edge11" class="edge">
<title>Node8&#45;&gt;Node6</title>
<path fill="none" stroke="midnightblue" d="M343.72,-56.49C299.3,-48.33 230.75,-35.31 161.86,-20.1"/>
<polygon fill="midnightblue" stroke="midnightblue" points="162.22,-16.59 151.7,-17.84 160.7,-23.43 162.22,-16.59"/>
</g>
<!-- Node8&#45;&gt;Node9 -->
<g id="edge8" class="edge">
<title>Node8&#45;&gt;Node9</title>
<path fill="none" stroke="midnightblue" d="M451.59,-56.96C506.47,-49.29 589.73,-36.74 670.81,-20.09"/>
<polygon fill="midnightblue" stroke="midnightblue" points="671.61,-23.5 680.69,-18.05 670.19,-16.65 671.61,-23.5"/>
</g>
<!-- Node10 -->
<g id="node10" class="node">
<title>Node10</title>
<g id="a_node10"><a xlink:title=" ">
<polygon fill="none" stroke="#bfbfbf" points="511,-0.5 511,-19.5 575,-19.5 575,-0.5 511,-0.5"/>
<text text-anchor="middle" x="543" y="-7.5" font-family="FreeSans.ttf" font-size="10.00">algorithm</text>
</a>
</g>
</g>
<!-- Node8&#45;&gt;Node10 -->
<g id="edge9" class="edge">
<title>Node8&#45;&gt;Node10</title>
<path fill="none" stroke="midnightblue" d="M415.08,-56.44C440.54,-47.4 480.89,-33.06 509.46,-22.92"/>
<polygon fill="midnightblue" stroke="midnightblue" points="510.78,-26.16 519.03,-19.52 508.43,-19.57 510.78,-26.16"/>
</g>
<!-- Node11 -->
<g id="node11" class="node">
<title>Node11</title>
<g id="a_node11"><a xlink:title=" ">
<polygon fill="none" stroke="#bfbfbf" points="170,-0.5 170,-19.5 212,-19.5 212,-0.5 170,-0.5"/>
<text text-anchor="middle" x="191" y="-7.5" font-family="FreeSans.ttf" font-size="10.00">array</text>
</a>
</g>
</g>
<!-- Node8&#45;&gt;Node11 -->
<g id="edge10" class="edge">
<title>Node8&#45;&gt;Node11</title>
<path fill="none" stroke="midnightblue" d="M357.37,-56.44C325.02,-48.14 274.52,-34.97 222.09,-20.24"/>
<polygon fill="midnightblue" stroke="midnightblue" points="222.85,-16.82 212.28,-17.48 220.95,-23.56 222.85,-16.82"/>
</g>
<!-- Node12 -->
<g id="node12" class="node">
<title>Node12</title>
<g id="a_node12"><a xlink:title=" ">
<polygon fill="none" stroke="#bfbfbf" points="230.5,-0.5 230.5,-19.5 283.5,-19.5 283.5,-0.5 230.5,-0.5"/>
<text text-anchor="middle" x="257" y="-7.5" font-family="FreeSans.ttf" font-size="10.00">iterator</text>
</a>
</g>
</g>
<!-- Node8&#45;&gt;Node12 -->
<g id="edge12" class="edge">
<title>Node8&#45;&gt;Node12</title>
<path fill="none" stroke="midnightblue" d="M369.77,-56.44C347.62,-47.52 312.68,-33.44 287.56,-23.32"/>
<polygon fill="midnightblue" stroke="midnightblue" points="288.72,-20.01 278.13,-19.52 286.1,-26.5 288.72,-20.01"/>
</g>
<!-- Node13 -->
<g id="node13" class="node">
<title>Node13</title>
<g id="a_node13"><a xlink:title=" ">
<polygon fill="none" stroke="#bfbfbf" points="302,-0.5 302,-19.5 346,-19.5 346,-0.5 302,-0.5"/>
<text text-anchor="middle" x="324" y="-7.5" font-family="FreeSans.ttf" font-size="10.00">limits</text>
</a>
</g>
</g>
<!-- Node8&#45;&gt;Node13 -->
<g id="edge13" class="edge">
<title>Node8&#45;&gt;Node13</title>
<path fill="none" stroke="midnightblue" d="M380.24,-56.32C370.23,-48.26 355.11,-36.08 343.07,-26.37"/>
<polygon fill="midnightblue" stroke="midnightblue" points="344.94,-23.38 334.96,-19.83 340.55,-28.83 344.94,-23.38"/>
</g>
<!-- Node14 -->
<g id="node14" class="node">
<title>Node14</title>
<g id="a_node14"><a xlink:title=" ">
<polygon fill="none" stroke="#bfbfbf" points="364.5,-0.5 364.5,-19.5 429.5,-19.5 429.5,-0.5 364.5,-0.5"/>
<text text-anchor="middle" x="397" y="-7.5" font-family="FreeSans.ttf" font-size="10.00">stdexcept</text>
</a>
</g>
</g>
<!-- Node8&#45;&gt;Node14 -->
<g id="edge14" class="edge">
<title>Node8&#45;&gt;Node14</title>
<path fill="none" stroke="midnightblue" d="M391.99,-56.08C392.79,-48.93 393.93,-38.64 394.92,-29.69"/>
<polygon fill="midnightblue" stroke="midnightblue" points="398.4,-30.08 396.03,-19.75 391.44,-29.3 398.4,-30.08"/>
</g>
<!-- Node15 -->
<g id="node15" class="node">
<title>Node15</title>
<g id="a_node15"><a xlink:title=" ">
<polygon fill="none" stroke="#bfbfbf" points="593.5,-0.5 593.5,-19.5 662.5,-19.5 662.5,-0.5 593.5,-0.5"/>
<text text-anchor="middle" x="628" y="-7.5" font-family="FreeSans.ttf" font-size="10.00">type_traits</text>
</a>
</g>
</g>
<!-- Node8&#45;&gt;Node15 -->
<g id="edge15" class="edge">
<title>Node8&#45;&gt;Node15</title>
<path fill="none" stroke="midnightblue" d="M428.55,-56.44C470.57,-46.87 538.6,-31.37 583.32,-21.18"/>
<polygon fill="midnightblue" stroke="midnightblue" points="584.35,-24.54 593.32,-18.9 582.79,-17.71 584.35,-24.54"/>
</g>
<!-- Node16 -->
<g id="node16" class="node">
<title>Node16</title>
<g id="a_node16"><a xlink:title=" ">
<polygon fill="none" stroke="#bfbfbf" points="447.5,-0.5 447.5,-19.5 492.5,-19.5 492.5,-0.5 447.5,-0.5"/>
<text text-anchor="middle" x="470" y="-7.5" font-family="FreeSans.ttf" font-size="10.00">utility</text>
</a>
</g>
</g>
<!-- Node8&#45;&gt;Node16 -->
<g id="edge16" class="edge">
<title>Node8&#45;&gt;Node16</title>
<path fill="none" stroke="midnightblue" d="M403.69,-56.32C415.9,-47.98 434.58,-35.21 449,-25.35"/>
<polygon fill="midnightblue" stroke="midnightblue" points="451.06,-28.19 457.34,-19.65 447.11,-22.41 451.06,-28.19"/>
</g>
<!-- Node19&#45;&gt;Node2 -->
<g id="edge35" class="edge">
<title>Node19&#45;&gt;Node2</title>
<path fill="none" stroke="midnightblue" d="M502.01,-224.37C478.19,-205.65 421.56,-161.15 391.88,-137.83"/>
<polygon fill="midnightblue" stroke="midnightblue" points="393.96,-135.02 383.93,-131.59 389.64,-140.52 393.96,-135.02"/>
</g>
<!-- Node20 -->
<g id="node20" class="node">
<title>Node20</title>
<g id="a_node20"><a xlink:href="MatrixFixSize_8h.html" target="_top" xlink:title=" ">
<polygon fill="none" stroke="black" points="480.5,-168.5 480.5,-187.5 643.5,-187.5 643.5,-168.5 480.5,-168.5"/>
<text text-anchor="middle" x="562" y="-175.5" font-family="FreeSans.ttf" font-size="10.00">iDynTree/Core/MatrixFixSize.h</text>
</a>
</g>
</g>
<!-- Node19&#45;&gt;Node20 -->
<g id="edge23" class="edge">
<title>Node19&#45;&gt;Node20</title>
<path fill="none" stroke="midnightblue" d="M521.09,-224.08C528.16,-216.3 538.59,-204.8 547.15,-195.37"/>
<polygon fill="midnightblue" stroke="midnightblue" points="549.93,-197.51 554.06,-187.75 544.75,-192.8 549.93,-197.51"/>
</g>
<!-- Node20&#45;&gt;Node2 -->
<g id="edge32" class="edge">
<title>Node20&#45;&gt;Node2</title>
<path fill="none" stroke="midnightblue" d="M531.7,-168.42C501.81,-159.94 454.57,-146.52 404.68,-132.19"/>
<polygon fill="midnightblue" stroke="midnightblue" points="405.59,-128.81 395.01,-129.41 403.65,-135.53 405.59,-128.81"/>
</g>
<!-- Node20&#45;&gt;Node5 -->
<g id="edge24" class="edge">
<title>Node20&#45;&gt;Node5</title>
<path fill="none" stroke="midnightblue" d="M562.65,-168.35C563.18,-154.28 561.97,-126.57 546,-112 537.56,-104.3 402.3,-86.26 316.63,-75.51"/>
<polygon fill="midnightblue" stroke="midnightblue" points="317.05,-72.03 306.69,-74.26 316.18,-78.98 317.05,-72.03"/>
</g>
<!-- Node20&#45;&gt;Node9 -->
<g id="edge30" class="edge">
<title>Node20&#45;&gt;Node9</title>
<path fill="none" stroke="midnightblue" d="M640.51,-168.48C687.04,-161.63 739.64,-150.11 754,-132 779.53,-99.79 744.83,-52.06 722.76,-27.27"/>
<polygon fill="midnightblue" stroke="midnightblue" points="725.22,-24.78 715.86,-19.8 720.07,-29.52 725.22,-24.78"/>
</g>
<!-- Node20&#45;&gt;Node17 -->
<g id="edge34" class="edge">
<title>Node20&#45;&gt;Node17</title>
<path fill="none" stroke="midnightblue" d="M553.25,-168.08C545.53,-160.22 534.1,-148.57 524.78,-139.08"/>
<polygon fill="midnightblue" stroke="midnightblue" points="527.09,-136.44 517.59,-131.75 522.1,-141.34 527.09,-136.44"/>
</g>
<!-- Node20&#45;&gt;Node18 -->
<g id="edge31" class="edge">
<title>Node20&#45;&gt;Node18</title>
<path fill="none" stroke="midnightblue" d="M542.35,-168.44C522.04,-159.6 490.1,-145.69 466.9,-135.59"/>
<polygon fill="midnightblue" stroke="midnightblue" points="468.12,-132.3 457.56,-131.52 465.33,-138.72 468.12,-132.3"/>
</g>
<!-- Node21 -->
<g id="node21" class="node">
<title>Node21</title>
<g id="a_node21"><a xlink:href="MatrixView_8h.html" target="_top" xlink:title=" ">
<polygon fill="none" stroke="black" points="593,-112.5 593,-131.5 745,-131.5 745,-112.5 593,-112.5"/>
<text text-anchor="middle" x="669" y="-119.5" font-family="FreeSans.ttf" font-size="10.00">iDynTree/Core/MatrixView.h</text>
</a>
</g>
</g>
<!-- Node20&#45;&gt;Node21 -->
<g id="edge25" class="edge">
<title>Node20&#45;&gt;Node21</title>
<path fill="none" stroke="midnightblue" d="M579.19,-168.32C596.35,-159.66 622.95,-146.24 642.75,-136.25"/>
<polygon fill="midnightblue" stroke="midnightblue" points="644.5,-139.28 651.85,-131.65 641.35,-133.04 644.5,-139.28"/>
</g>
<!-- Node22 -->
<g id="node22" class="node">
<title>Node22</title>
<g id="a_node22"><a xlink:title=" ">
<polygon fill="none" stroke="#bfbfbf" points="801,-112.5 801,-131.5 861,-131.5 861,-112.5 801,-112.5"/>
<text text-anchor="middle" x="831" y="-119.5" font-family="FreeSans.ttf" font-size="10.00">iostream</text>
</a>
</g>
</g>
<!-- Node20&#45;&gt;Node22 -->
<g id="edge33" class="edge">
<title>Node20&#45;&gt;Node22</title>
<path fill="none" stroke="midnightblue" d="M605.15,-168.43C650.45,-159.42 723.75,-144.79 787,-132 788.25,-131.75 789.51,-131.49 790.79,-131.23"/>
<polygon fill="midnightblue" stroke="midnightblue" points="791.61,-134.64 800.71,-129.21 790.21,-127.78 791.61,-134.64"/>
</g>
<!-- Node21&#45;&gt;Node5 -->
<g id="edge29" class="edge">
<title>Node21&#45;&gt;Node5</title>
<path fill="none" stroke="midnightblue" d="M602.13,-112.44C524.29,-102.48 396.3,-86.1 317.1,-75.97"/>
<polygon fill="midnightblue" stroke="midnightblue" points="317.09,-72.44 306.73,-74.64 316.21,-79.38 317.09,-72.44"/>
</g>
<!-- Node21&#45;&gt;Node8 -->
<g id="edge28" class="edge">
<title>Node21&#45;&gt;Node8</title>
<path fill="none" stroke="midnightblue" d="M624.95,-112.44C576.15,-102.96 497.44,-87.67 444.97,-77.48"/>
<polygon fill="midnightblue" stroke="midnightblue" points="445.33,-73.99 434.84,-75.52 443.99,-80.86 445.33,-73.99"/>
</g>
<!-- Node21&#45;&gt;Node9 -->
<g id="edge26" class="edge">
<title>Node21&#45;&gt;Node9</title>
<path fill="none" stroke="midnightblue" d="M671.98,-112.37C678.14,-94.54 692.39,-53.3 700.69,-29.27"/>
<polygon fill="midnightblue" stroke="midnightblue" points="704.07,-30.19 704.03,-19.59 697.46,-27.9 704.07,-30.19"/>
</g>
<!-- Node21&#45;&gt;Node15 -->
<g id="edge27" class="edge">
<title>Node21&#45;&gt;Node15</title>
<path fill="none" stroke="midnightblue" d="M665.78,-112.37C659.14,-94.54 643.76,-53.3 634.81,-29.27"/>
<polygon fill="midnightblue" stroke="midnightblue" points="637.97,-27.74 631.2,-19.59 631.42,-30.18 637.97,-27.74"/>
</g>
</g>
</svg>
