<?xml version="1.0" encoding="UTF-8" standalone="no"?>
<!DOCTYPE svg PUBLIC "-//W3C//DTD SVG 1.1//EN"
 "http://www.w3.org/Graphics/SVG/1.1/DTD/svg11.dtd">
<!-- Generated by graphviz version 2.43.0 (0)
 -->
<!-- Title: SolidShapes.h Pages: 1 -->
<svg width="4797pt" height="285pt"
 viewBox="0.00 0.00 4797.00 285.00" xmlns="http://www.w3.org/2000/svg" xmlns:xlink="http://www.w3.org/1999/xlink">
<g id="graph0" class="graph" transform="scale(1 1) rotate(0) translate(4 281)">
<title>SolidShapes.h</title>
<!-- Node1 -->
<g id="node1" class="node">
<title>Node1</title>
<g id="a_node1"><a xlink:title=" ">
<polygon fill="#bfbfbf" stroke="black" points="4418.5,-257.5 4418.5,-276.5 4503.5,-276.5 4503.5,-257.5 4418.5,-257.5"/>
<text text-anchor="middle" x="4461" y="-264.5" font-family="FreeSans.ttf" font-size="10.00">SolidShapes.h</text>
</a>
</g>
</g>
<!-- Node2 -->
<g id="node2" class="node">
<title>Node2</title>
<g id="a_node2"><a xlink:href="Model_8h.html" target="_top" xlink:title=" ">
<polygon fill="none" stroke="red" points="2796,-201.5 2796,-220.5 2852,-220.5 2852,-201.5 2796,-201.5"/>
<text text-anchor="middle" x="2824" y="-208.5" font-family="FreeSans.ttf" font-size="10.00">Model.h</text>
</a>
</g>
</g>
<!-- Node1&#45;&gt;Node2 -->
<g id="edge1" class="edge">
<title>Node1&#45;&gt;Node2</title>
<path fill="none" stroke="midnightblue" d="M4408.33,-264.26C4152.4,-255.82 3043.21,-219.23 2852.09,-212.93"/>
<polygon fill="midnightblue" stroke="midnightblue" points="4408.36,-267.77 4418.47,-264.6 4408.59,-260.77 4408.36,-267.77"/>
</g>
<!-- Node35 -->
<g id="node26" class="node">
<title>Node35</title>
<g id="a_node26"><a xlink:href="SolidShapes_8cpp.html" target="_top" xlink:title=" ">
<polygon fill="none" stroke="black" points="4413,-140 4413,-159 4509,-159 4509,-140 4413,-140"/>
<text text-anchor="middle" x="4461" y="-147" font-family="FreeSans.ttf" font-size="10.00">SolidShapes.cpp</text>
</a>
</g>
</g>
<!-- Node1&#45;&gt;Node35 -->
<g id="edge71" class="edge">
<title>Node1&#45;&gt;Node35</title>
<path fill="none" stroke="midnightblue" d="M4461,-247.16C4461,-221.87 4461,-177.94 4461,-159.28"/>
<polygon fill="midnightblue" stroke="midnightblue" points="4457.5,-247.32 4461,-257.32 4464.5,-247.32 4457.5,-247.32"/>
</g>
<!-- Node79 -->
<g id="node45" class="node">
<title>Node79</title>
<g id="a_node45"><a xlink:href="InertialParametersSolidShapesHelpers_8h.html" target="_top" xlink:title=" ">
<polygon fill="none" stroke="black" points="4229,-134.5 4229,-164.5 4395,-164.5 4395,-134.5 4229,-134.5"/>
<text text-anchor="start" x="4237" y="-152.5" font-family="FreeSans.ttf" font-size="10.00">InertialParametersSolidShapes</text>
<text text-anchor="middle" x="4312" y="-141.5" font-family="FreeSans.ttf" font-size="10.00">Helpers.h</text>
</a>
</g>
</g>
<!-- Node1&#45;&gt;Node79 -->
<g id="edge76" class="edge">
<title>Node1&#45;&gt;Node79</title>
<path fill="none" stroke="midnightblue" d="M4441.68,-251.02C4412.7,-228.56 4358.38,-186.45 4330.12,-164.55"/>
<polygon fill="midnightblue" stroke="midnightblue" points="4439.75,-253.96 4449.8,-257.32 4444.04,-248.43 4439.75,-253.96"/>
</g>
<!-- Node80 -->
<g id="node46" class="node">
<title>Node80</title>
<g id="a_node46"><a xlink:href="InertialParametersSolidShapesHelpers_8cpp.html" target="_top" xlink:title=" ">
<polygon fill="none" stroke="black" points="4433,-67.5 4433,-97.5 4599,-97.5 4599,-67.5 4433,-67.5"/>
<text text-anchor="start" x="4441" y="-85.5" font-family="FreeSans.ttf" font-size="10.00">InertialParametersSolidShapes</text>
<text text-anchor="middle" x="4516" y="-74.5" font-family="FreeSans.ttf" font-size="10.00">Helpers.cpp</text>
</a>
</g>
</g>
<!-- Node1&#45;&gt;Node80 -->
<g id="edge77" class="edge">
<title>Node1&#45;&gt;Node80</title>
<path fill="none" stroke="midnightblue" d="M4474.07,-249.27C4488.1,-230.14 4509.51,-197.3 4518,-165 4524.04,-142 4521.29,-114.09 4518.69,-97.62"/>
<polygon fill="midnightblue" stroke="midnightblue" points="4471.09,-247.4 4467.86,-257.49 4476.68,-251.61 4471.09,-247.4"/>
</g>
<!-- Node92 -->
<g id="node48" class="node">
<title>Node92</title>
<g id="a_node48"><a xlink:href="VisualElement_8h.html" target="_top" xlink:title=" ">
<polygon fill="none" stroke="red" points="0,-140 0,-159 96,-159 96,-140 0,-140"/>
<text text-anchor="middle" x="48" y="-147" font-family="FreeSans.ttf" font-size="10.00">VisualElement.h</text>
</a>
</g>
</g>
<!-- Node1&#45;&gt;Node92 -->
<g id="edge72" class="edge">
<title>Node1&#45;&gt;Node92</title>
<path fill="none" stroke="midnightblue" d="M4408.29,-265.44C3943.87,-260.39 556.68,-221.8 110,-165 99.8,-163.7 88.83,-161.44 78.99,-159.07"/>
<polygon fill="midnightblue" stroke="midnightblue" points="4408.36,-268.94 4418.4,-265.55 4408.44,-261.94 4408.36,-268.94"/>
</g>
<!-- Node96 -->
<g id="node49" class="node">
<title>Node96</title>
<g id="a_node49"><a xlink:href="GeometryElement_8cpp.html" target="_top" xlink:title=" ">
<polygon fill="none" stroke="black" points="4565,-201.5 4565,-220.5 4691,-220.5 4691,-201.5 4565,-201.5"/>
<text text-anchor="middle" x="4628" y="-208.5" font-family="FreeSans.ttf" font-size="10.00">GeometryElement.cpp</text>
</a>
</g>
</g>
<!-- Node1&#45;&gt;Node96 -->
<g id="edge75" class="edge">
<title>Node1&#45;&gt;Node96</title>
<path fill="none" stroke="midnightblue" d="M4497.17,-254.3C4528.64,-244.13 4573.49,-229.62 4601.66,-220.52"/>
<polygon fill="midnightblue" stroke="midnightblue" points="4495.9,-251.04 4487.46,-257.44 4498.05,-257.7 4495.9,-251.04"/>
</g>
<!-- Node97 -->
<g id="node50" class="node">
<title>Node97</title>
<g id="a_node50"><a xlink:href="IrrlichtUtils_8h.html" target="_top" xlink:title=" ">
<polygon fill="none" stroke="red" points="4709,-201.5 4709,-220.5 4789,-220.5 4789,-201.5 4709,-201.5"/>
<text text-anchor="middle" x="4749" y="-208.5" font-family="FreeSans.ttf" font-size="10.00">IrrlichtUtils.h</text>
</a>
</g>
</g>
<!-- Node1&#45;&gt;Node97 -->
<g id="edge78" class="edge">
<title>Node1&#45;&gt;Node97</title>
<path fill="none" stroke="midnightblue" d="M4513.93,-256.08C4570.18,-245.53 4657.88,-229.09 4708.75,-219.55"/>
<polygon fill="midnightblue" stroke="midnightblue" points="4512.99,-252.69 4503.81,-257.97 4514.28,-259.57 4512.99,-252.69"/>
</g>
<!-- Node3 -->
<g id="node3" class="node">
<title>Node3</title>
<g id="a_node3"><a xlink:href="ExtWrenchesAndJointTorquesEstimator_8h.html" target="_top" xlink:title=" ">
<polygon fill="none" stroke="black" points="842,-67.5 842,-97.5 1000,-97.5 1000,-67.5 842,-67.5"/>
<text text-anchor="start" x="850" y="-85.5" font-family="FreeSans.ttf" font-size="10.00">ExtWrenchesAndJointTorques</text>
<text text-anchor="middle" x="921" y="-74.5" font-family="FreeSans.ttf" font-size="10.00">Estimator.h</text>
</a>
</g>
</g>
<!-- Node2&#45;&gt;Node3 -->
<g id="edge2" class="edge">
<title>Node2&#45;&gt;Node3</title>
<path fill="none" stroke="midnightblue" d="M2785.77,-209.93C2501.6,-209.32 728.15,-203.97 690,-165 680.36,-155.16 681.36,-144.73 690,-134 699.75,-121.89 778.86,-106.43 841.82,-95.82"/>
<polygon fill="midnightblue" stroke="midnightblue" points="2785.98,-213.43 2795.99,-209.95 2786,-206.43 2785.98,-213.43"/>
</g>
<!-- Node4 -->
<g id="node4" class="node">
<title>Node4</title>
<g id="a_node4"><a xlink:href="ExtWrenchesAndJointTorquesEstimator_8cpp.html" target="_top" xlink:title=" ">
<polygon fill="none" stroke="black" points="898,-0.5 898,-30.5 1056,-30.5 1056,-0.5 898,-0.5"/>
<text text-anchor="start" x="906" y="-18.5" font-family="FreeSans.ttf" font-size="10.00">ExtWrenchesAndJointTorques</text>
<text text-anchor="middle" x="977" y="-7.5" font-family="FreeSans.ttf" font-size="10.00">Estimator.cpp</text>
</a>
</g>
</g>
<!-- Node2&#45;&gt;Node4 -->
<g id="edge8" class="edge">
<title>Node2&#45;&gt;Node4</title>
<path fill="none" stroke="midnightblue" d="M2785.48,-209.92C2502.93,-209.21 760.52,-203.33 723,-165 713.36,-155.15 713.89,-144.33 723,-134 807.74,-37.92 924.26,-194.08 1009,-98 1026.29,-78.39 1005.9,-48.34 990.66,-30.73"/>
<polygon fill="midnightblue" stroke="midnightblue" points="2785.64,-213.42 2795.65,-209.94 2785.66,-206.42 2785.64,-213.42"/>
</g>
<!-- Node5 -->
<g id="node5" class="node">
<title>Node5</title>
<g id="a_node5"><a xlink:href="GravityCompensationHelpers_8h.html" target="_top" xlink:title=" ">
<polygon fill="none" stroke="red" points="732,-140 732,-159 902,-159 902,-140 732,-140"/>
<text text-anchor="middle" x="817" y="-147" font-family="FreeSans.ttf" font-size="10.00">GravityCompensationHelpers.h</text>
</a>
</g>
</g>
<!-- Node2&#45;&gt;Node5 -->
<g id="edge4" class="edge">
<title>Node2&#45;&gt;Node5</title>
<path fill="none" stroke="midnightblue" d="M2785.52,-209.78C2549.39,-208.29 1294.14,-198.91 911,-165 895.7,-163.65 879.12,-161.36 864.19,-159"/>
<polygon fill="midnightblue" stroke="midnightblue" points="2785.65,-213.28 2795.67,-209.84 2785.7,-206.28 2785.65,-213.28"/>
</g>
<!-- Node7 -->
<g id="node6" class="node">
<title>Node7</title>
<g id="a_node6"><a xlink:href="SimpleLeggedOdometry_8h.html" target="_top" xlink:title=" ">
<polygon fill="none" stroke="red" points="920,-140 920,-159 1062,-159 1062,-140 920,-140"/>
<text text-anchor="middle" x="991" y="-147" font-family="FreeSans.ttf" font-size="10.00">SimpleLeggedOdometry.h</text>
</a>
</g>
</g>
<!-- Node2&#45;&gt;Node7 -->
<g id="edge5" class="edge">
<title>Node2&#45;&gt;Node7</title>
<path fill="none" stroke="midnightblue" d="M2785.6,-209.82C2561.45,-208.63 1419.99,-200.89 1071,-165 1057.94,-163.66 1043.81,-161.38 1031.12,-159.02"/>
<polygon fill="midnightblue" stroke="midnightblue" points="2785.85,-213.32 2795.87,-209.87 2785.89,-206.32 2785.85,-213.32"/>
</g>
<!-- Node9 -->
<g id="node7" class="node">
<title>Node9</title>
<g id="a_node7"><a xlink:href="BerdyHelper_8cpp.html" target="_top" xlink:title=" ">
<polygon fill="none" stroke="black" points="143.5,-73 143.5,-92 240.5,-92 240.5,-73 143.5,-73"/>
<text text-anchor="middle" x="192" y="-80" font-family="FreeSans.ttf" font-size="10.00">BerdyHelper.cpp</text>
</a>
</g>
</g>
<!-- Node2&#45;&gt;Node9 -->
<g id="edge6" class="edge">
<title>Node2&#45;&gt;Node9</title>
<path fill="none" stroke="midnightblue" d="M2785.49,-209.98C2496.87,-209.72 676.68,-206.46 436,-165 349.29,-150.06 251.54,-109.85 211.09,-92.11"/>
<polygon fill="midnightblue" stroke="midnightblue" points="2785.86,-213.48 2795.86,-209.99 2785.86,-206.48 2785.86,-213.48"/>
</g>
<!-- Node10 -->
<g id="node8" class="node">
<title>Node10</title>
<g id="a_node8"><a xlink:href="ExternalWrenchesEstimation_8cpp.html" target="_top" xlink:title=" ">
<polygon fill="none" stroke="black" points="259,-73 259,-92 437,-92 437,-73 259,-73"/>
<text text-anchor="middle" x="348" y="-80" font-family="FreeSans.ttf" font-size="10.00">ExternalWrenchesEstimation.cpp</text>
</a>
</g>
</g>
<!-- Node2&#45;&gt;Node10 -->
<g id="edge7" class="edge">
<title>Node2&#45;&gt;Node10</title>
<path fill="none" stroke="midnightblue" d="M2785.57,-209.7C2494.01,-207.36 638.73,-191.45 524,-165 459.36,-150.1 389.98,-109.87 361.44,-92.12"/>
<polygon fill="midnightblue" stroke="midnightblue" points="2785.63,-213.2 2795.66,-209.78 2785.69,-206.2 2785.63,-213.2"/>
</g>
<!-- Node11 -->
<g id="node9" class="node">
<title>Node11</title>
<g id="a_node9"><a xlink:href="KinDynComputations_8cpp.html" target="_top" xlink:title=" ">
<polygon fill="none" stroke="black" points="3907,-6 3907,-25 4047,-25 4047,-6 3907,-6"/>
<text text-anchor="middle" x="3977" y="-13" font-family="FreeSans.ttf" font-size="10.00">KinDynComputations.cpp</text>
</a>
</g>
</g>
<!-- Node2&#45;&gt;Node11 -->
<g id="edge9" class="edge">
<title>Node2&#45;&gt;Node11</title>
<path fill="none" stroke="midnightblue" d="M2862.27,-209.4C3056.52,-206.26 3926.26,-190.79 3977,-165 4021.14,-142.56 4049.5,-112.52 4030,-67 4022.19,-48.78 4004.22,-34.01 3991.37,-25.25"/>
<polygon fill="midnightblue" stroke="midnightblue" points="2862.18,-205.9 2852.24,-209.56 2862.29,-212.9 2862.18,-205.9"/>
</g>
<!-- Node12 -->
<g id="node10" class="node">
<title>Node12</title>
<g id="a_node10"><a xlink:href="skinDynLibConversionsImplementation_8h.html" target="_top" xlink:title=" ">
<polygon fill="none" stroke="red" points="1080,-140 1080,-159 1298,-159 1298,-140 1080,-140"/>
<text text-anchor="middle" x="1189" y="-147" font-family="FreeSans.ttf" font-size="10.00">skinDynLibConversionsImplementation.h</text>
</a>
</g>
</g>
<!-- Node2&#45;&gt;Node12 -->
<g id="edge10" class="edge">
<title>Node2&#45;&gt;Node12</title>
<path fill="none" stroke="midnightblue" d="M2785.41,-210.17C2612.81,-210.65 1894.37,-209.7 1307,-165 1288.27,-163.57 1267.95,-161.33 1249.53,-159.03"/>
<polygon fill="midnightblue" stroke="midnightblue" points="2785.54,-213.67 2795.53,-210.14 2785.52,-206.67 2785.54,-213.67"/>
</g>
<!-- Node14 -->
<g id="node11" class="node">
<title>Node14</title>
<g id="a_node11"><a xlink:href="InverseKinematicsData_8h.html" target="_top" xlink:title=" ">
<polygon fill="none" stroke="red" points="1316,-140 1316,-159 1456,-159 1456,-140 1316,-140"/>
<text text-anchor="middle" x="1386" y="-147" font-family="FreeSans.ttf" font-size="10.00">InverseKinematicsData.h</text>
</a>
</g>
</g>
<!-- Node2&#45;&gt;Node14 -->
<g id="edge11" class="edge">
<title>Node2&#45;&gt;Node14</title>
<path fill="none" stroke="midnightblue" d="M2785.78,-209.5C2593.59,-206.88 1731.35,-193.69 1465,-165 1452.24,-163.63 1438.45,-161.37 1426.02,-159.04"/>
<polygon fill="midnightblue" stroke="midnightblue" points="2785.91,-213 2795.96,-209.64 2786.01,-206 2785.91,-213"/>
</g>
<!-- Node17 -->
<g id="node12" class="node">
<title>Node17</title>
<g id="a_node12"><a xlink:href="DenavitHartenberg_8h.html" target="_top" xlink:title=" ">
<polygon fill="none" stroke="red" points="1474.5,-140 1474.5,-159 1593.5,-159 1593.5,-140 1474.5,-140"/>
<text text-anchor="middle" x="1534" y="-147" font-family="FreeSans.ttf" font-size="10.00">DenavitHartenberg.h</text>
</a>
</g>
</g>
<!-- Node2&#45;&gt;Node17 -->
<g id="edge12" class="edge">
<title>Node2&#45;&gt;Node17</title>
<path fill="none" stroke="midnightblue" d="M2785.68,-209.47C2605.34,-206.82 1840.14,-194.07 1603,-165 1591.82,-163.63 1579.77,-161.37 1568.91,-159.04"/>
<polygon fill="midnightblue" stroke="midnightblue" points="2785.7,-212.97 2795.75,-209.61 2785.8,-205.97 2785.7,-212.97"/>
</g>
<!-- Node22 -->
<g id="node13" class="node">
<title>Node22</title>
<g id="a_node13"><a xlink:href="ModelTestUtils_8h.html" target="_top" xlink:title=" ">
<polygon fill="none" stroke="red" points="1612,-140 1612,-159 1710,-159 1710,-140 1612,-140"/>
<text text-anchor="middle" x="1661" y="-147" font-family="FreeSans.ttf" font-size="10.00">ModelTestUtils.h</text>
</a>
</g>
</g>
<!-- Node2&#45;&gt;Node22 -->
<g id="edge13" class="edge">
<title>Node2&#45;&gt;Node22</title>
<path fill="none" stroke="midnightblue" d="M2785.27,-209.48C2614.91,-207.05 1931.33,-195.54 1719,-165 1709.55,-163.64 1699.4,-161.39 1690.27,-159.05"/>
<polygon fill="midnightblue" stroke="midnightblue" points="2785.46,-212.99 2795.51,-209.63 2785.56,-205.99 2785.46,-212.99"/>
</g>
<!-- Node23 -->
<g id="node14" class="node">
<title>Node23</title>
<g id="a_node14"><a xlink:href="ContactWrench_8cpp.html" target="_top" xlink:title=" ">
<polygon fill="none" stroke="black" points="1728.5,-140 1728.5,-159 1839.5,-159 1839.5,-140 1728.5,-140"/>
<text text-anchor="middle" x="1784" y="-147" font-family="FreeSans.ttf" font-size="10.00">ContactWrench.cpp</text>
</a>
</g>
</g>
<!-- Node2&#45;&gt;Node23 -->
<g id="edge14" class="edge">
<title>Node2&#45;&gt;Node23</title>
<path fill="none" stroke="midnightblue" d="M2785.6,-209.12C2628.58,-205.37 2034.94,-189.84 1849,-165 1838.57,-163.61 1827.34,-161.37 1817.2,-159.07"/>
<polygon fill="midnightblue" stroke="midnightblue" points="2785.64,-212.62 2795.72,-209.36 2785.81,-205.62 2785.64,-212.62"/>
</g>
<!-- Node24 -->
<g id="node15" class="node">
<title>Node24</title>
<g id="a_node15"><a xlink:href="Dynamics_8cpp.html" target="_top" xlink:title=" ">
<polygon fill="none" stroke="black" points="1858,-140 1858,-159 1944,-159 1944,-140 1858,-140"/>
<text text-anchor="middle" x="1901" y="-147" font-family="FreeSans.ttf" font-size="10.00">Dynamics.cpp</text>
</a>
</g>
</g>
<!-- Node2&#45;&gt;Node24 -->
<g id="edge15" class="edge">
<title>Node2&#45;&gt;Node24</title>
<path fill="none" stroke="midnightblue" d="M2785.46,-209.14C2638.97,-205.69 2116.83,-191.74 1953,-165 1944.49,-163.61 1935.38,-161.35 1927.2,-159.02"/>
<polygon fill="midnightblue" stroke="midnightblue" points="2785.66,-212.64 2795.74,-209.38 2785.82,-205.65 2785.66,-212.64"/>
</g>
<!-- Node25 -->
<g id="node16" class="node">
<title>Node25</title>
<g id="a_node16"><a xlink:href="DynamicsLinearization_8cpp.html" target="_top" xlink:title=" ">
<polygon fill="none" stroke="black" points="1962.5,-140 1962.5,-159 2111.5,-159 2111.5,-140 1962.5,-140"/>
<text text-anchor="middle" x="2037" y="-147" font-family="FreeSans.ttf" font-size="10.00">DynamicsLinearization.cpp</text>
</a>
</g>
</g>
<!-- Node2&#45;&gt;Node25 -->
<g id="edge16" class="edge">
<title>Node2&#45;&gt;Node25</title>
<path fill="none" stroke="midnightblue" d="M2785.5,-209.01C2679.2,-205.98 2372.79,-195.07 2120,-165 2107.22,-163.48 2093.42,-161.29 2080.81,-159.07"/>
<polygon fill="midnightblue" stroke="midnightblue" points="2785.64,-212.52 2795.73,-209.3 2785.83,-205.52 2785.64,-212.52"/>
</g>
<!-- Node26 -->
<g id="node17" class="node">
<title>Node26</title>
<g id="a_node17"><a xlink:href="ForwardKinematics_8cpp.html" target="_top" xlink:title=" ">
<polygon fill="none" stroke="black" points="2129.5,-140 2129.5,-159 2260.5,-159 2260.5,-140 2129.5,-140"/>
<text text-anchor="middle" x="2195" y="-147" font-family="FreeSans.ttf" font-size="10.00">ForwardKinematics.cpp</text>
</a>
</g>
</g>
<!-- Node2&#45;&gt;Node26 -->
<g id="edge17" class="edge">
<title>Node2&#45;&gt;Node26</title>
<path fill="none" stroke="midnightblue" d="M2785.91,-208.35C2695.85,-204.14 2462.9,-191.4 2270,-165 2258.57,-163.44 2246.25,-161.26 2234.96,-159.07"/>
<polygon fill="midnightblue" stroke="midnightblue" points="2785.77,-211.85 2795.92,-208.81 2786.09,-204.86 2785.77,-211.85"/>
</g>
<!-- Node27 -->
<g id="node18" class="node">
<title>Node27</title>
<g id="a_node18"><a xlink:href="FreeFloatingMatrices_8cpp.html" target="_top" xlink:title=" ">
<polygon fill="none" stroke="black" points="2279,-140 2279,-159 2419,-159 2419,-140 2279,-140"/>
<text text-anchor="middle" x="2349" y="-147" font-family="FreeSans.ttf" font-size="10.00">FreeFloatingMatrices.cpp</text>
</a>
</g>
</g>
<!-- Node2&#45;&gt;Node27 -->
<g id="edge18" class="edge">
<title>Node2&#45;&gt;Node27</title>
<path fill="none" stroke="midnightblue" d="M2785.34,-206.49C2714.35,-199.85 2558.53,-184.37 2428,-165 2416.41,-163.28 2403.93,-161.13 2392.37,-159.01"/>
<polygon fill="midnightblue" stroke="midnightblue" points="2785.3,-210 2795.58,-207.44 2785.95,-203.03 2785.3,-210"/>
</g>
<!-- Node28 -->
<g id="node19" class="node">
<title>Node28</title>
<g id="a_node19"><a xlink:href="FreeFloatingState_8cpp.html" target="_top" xlink:title=" ">
<polygon fill="none" stroke="black" points="2437.5,-140 2437.5,-159 2560.5,-159 2560.5,-140 2437.5,-140"/>
<text text-anchor="middle" x="2499" y="-147" font-family="FreeSans.ttf" font-size="10.00">FreeFloatingState.cpp</text>
</a>
</g>
</g>
<!-- Node2&#45;&gt;Node28 -->
<g id="edge19" class="edge">
<title>Node2&#45;&gt;Node28</title>
<path fill="none" stroke="midnightblue" d="M2785.61,-203.59C2735.65,-195.16 2645.67,-179.7 2569,-165 2559.37,-163.15 2549.02,-161.07 2539.31,-159.06"/>
<polygon fill="midnightblue" stroke="midnightblue" points="2785.21,-207.07 2795.65,-205.28 2786.37,-200.17 2785.21,-207.07"/>
</g>
<!-- Node29 -->
<g id="node20" class="node">
<title>Node29</title>
<g id="a_node20"><a xlink:href="Jacobians_8cpp.html" target="_top" xlink:title=" ">
<polygon fill="none" stroke="black" points="2578.5,-140 2578.5,-159 2661.5,-159 2661.5,-140 2578.5,-140"/>
<text text-anchor="middle" x="2620" y="-147" font-family="FreeSans.ttf" font-size="10.00">Jacobians.cpp</text>
</a>
</g>
</g>
<!-- Node2&#45;&gt;Node29 -->
<g id="edge20" class="edge">
<title>Node2&#45;&gt;Node29</title>
<path fill="none" stroke="midnightblue" d="M2785.83,-198.87C2746.31,-187.34 2685.4,-169.58 2649.45,-159.09"/>
<polygon fill="midnightblue" stroke="midnightblue" points="2785.05,-202.29 2795.63,-201.73 2787.01,-195.57 2785.05,-202.29"/>
</g>
<!-- Node30 -->
<g id="node21" class="node">
<title>Node30</title>
<g id="a_node21"><a xlink:href="JointState_8cpp.html" target="_top" xlink:title=" ">
<polygon fill="none" stroke="black" points="2680,-140 2680,-159 2764,-159 2764,-140 2680,-140"/>
<text text-anchor="middle" x="2722" y="-147" font-family="FreeSans.ttf" font-size="10.00">JointState.cpp</text>
</a>
</g>
</g>
<!-- Node2&#45;&gt;Node30 -->
<g id="edge21" class="edge">
<title>Node2&#45;&gt;Node30</title>
<path fill="none" stroke="midnightblue" d="M2800.69,-196.4C2780.96,-184.9 2753.31,-168.77 2736.59,-159.01"/>
<polygon fill="midnightblue" stroke="midnightblue" points="2798.98,-199.46 2809.39,-201.48 2802.51,-193.41 2798.98,-199.46"/>
</g>
<!-- Node31 -->
<g id="node22" class="node">
<title>Node31</title>
<g id="a_node22"><a xlink:href="LinkState_8cpp.html" target="_top" xlink:title=" ">
<polygon fill="none" stroke="black" points="2782.5,-140 2782.5,-159 2865.5,-159 2865.5,-140 2782.5,-140"/>
<text text-anchor="middle" x="2824" y="-147" font-family="FreeSans.ttf" font-size="10.00">LinkState.cpp</text>
</a>
</g>
</g>
<!-- Node2&#45;&gt;Node31 -->
<g id="edge22" class="edge">
<title>Node2&#45;&gt;Node31</title>
<path fill="none" stroke="midnightblue" d="M2824,-191.32C2824,-180.5 2824,-167.4 2824,-159.01"/>
<polygon fill="midnightblue" stroke="midnightblue" points="2820.5,-191.48 2824,-201.48 2827.5,-191.48 2820.5,-191.48"/>
</g>
<!-- Node32 -->
<g id="node23" class="node">
<title>Node32</title>
<g id="a_node23"><a xlink:href="LinkTraversalsCache_8cpp.html" target="_top" xlink:title=" ">
<polygon fill="none" stroke="black" points="2883.5,-140 2883.5,-159 3020.5,-159 3020.5,-140 2883.5,-140"/>
<text text-anchor="middle" x="2952" y="-147" font-family="FreeSans.ttf" font-size="10.00">LinkTraversalsCache.cpp</text>
</a>
</g>
</g>
<!-- Node2&#45;&gt;Node32 -->
<g id="edge23" class="edge">
<title>Node2&#45;&gt;Node32</title>
<path fill="none" stroke="midnightblue" d="M2851.59,-197.17C2876.43,-185.63 2912.23,-168.99 2933.69,-159.01"/>
<polygon fill="midnightblue" stroke="midnightblue" points="2849.93,-194.09 2842.34,-201.48 2852.88,-200.43 2849.93,-194.09"/>
</g>
<!-- Node33 -->
<g id="node24" class="node">
<title>Node33</title>
<g id="a_node24"><a xlink:href="Model_8cpp.html" target="_top" xlink:title=" ">
<polygon fill="none" stroke="black" points="3038.5,-140 3038.5,-159 3105.5,-159 3105.5,-140 3038.5,-140"/>
<text text-anchor="middle" x="3072" y="-147" font-family="FreeSans.ttf" font-size="10.00">Model.cpp</text>
</a>
</g>
</g>
<!-- Node2&#45;&gt;Node33 -->
<g id="edge24" class="edge">
<title>Node2&#45;&gt;Node33</title>
<path fill="none" stroke="midnightblue" d="M2862.02,-202.95C2903.4,-194.97 2971.38,-180.99 3029,-165 3035.23,-163.27 3041.87,-161.16 3048.04,-159.1"/>
<polygon fill="midnightblue" stroke="midnightblue" points="2861.26,-199.53 2852.09,-204.84 2862.57,-206.4 2861.26,-199.53"/>
</g>
<!-- Node34 -->
<g id="node25" class="node">
<title>Node34</title>
<g id="a_node25"><a xlink:href="ModelTransformers_8cpp.html" target="_top" xlink:title=" ">
<polygon fill="none" stroke="black" points="3123.5,-140 3123.5,-159 3254.5,-159 3254.5,-140 3123.5,-140"/>
<text text-anchor="middle" x="3189" y="-147" font-family="FreeSans.ttf" font-size="10.00">ModelTransformers.cpp</text>
</a>
</g>
</g>
<!-- Node2&#45;&gt;Node34 -->
<g id="edge25" class="edge">
<title>Node2&#45;&gt;Node34</title>
<path fill="none" stroke="midnightblue" d="M2862.14,-204.54C2917.65,-196.49 3023.93,-180.69 3114,-165 3124.45,-163.18 3135.7,-161.08 3146.22,-159.06"/>
<polygon fill="midnightblue" stroke="midnightblue" points="2861.45,-201.11 2852.05,-206 2862.45,-208.03 2861.45,-201.11"/>
</g>
<!-- Node2&#45;&gt;Node35 -->
<g id="edge26" class="edge">
<title>Node2&#45;&gt;Node35</title>
<path fill="none" stroke="midnightblue" d="M2862.24,-210.05C3072.81,-210.18 4092.62,-208.5 4404,-165 4413.4,-163.69 4423.5,-161.41 4432.54,-159.05"/>
<polygon fill="midnightblue" stroke="midnightblue" points="2862.01,-206.55 2852,-210.05 2862,-213.55 2862.01,-206.55"/>
</g>
<!-- Node36 -->
<g id="node27" class="node">
<title>Node36</title>
<g id="a_node27"><a xlink:href="SubModel_8cpp.html" target="_top" xlink:title=" ">
<polygon fill="none" stroke="black" points="3272.5,-140 3272.5,-159 3357.5,-159 3357.5,-140 3272.5,-140"/>
<text text-anchor="middle" x="3315" y="-147" font-family="FreeSans.ttf" font-size="10.00">SubModel.cpp</text>
</a>
</g>
</g>
<!-- Node2&#45;&gt;Node36 -->
<g id="edge27" class="edge">
<title>Node2&#45;&gt;Node36</title>
<path fill="none" stroke="midnightblue" d="M2862.37,-208.26C2939.06,-204.3 3116.51,-192.72 3263,-165 3271.1,-163.47 3279.78,-161.27 3287.68,-159.06"/>
<polygon fill="midnightblue" stroke="midnightblue" points="2862.04,-204.77 2852.23,-208.77 2862.39,-211.76 2862.04,-204.77"/>
</g>
<!-- Node37 -->
<g id="node28" class="node">
<title>Node37</title>
<g id="a_node28"><a xlink:href="Traversal_8cpp.html" target="_top" xlink:title=" ">
<polygon fill="none" stroke="black" points="3375.5,-140 3375.5,-159 3456.5,-159 3456.5,-140 3375.5,-140"/>
<text text-anchor="middle" x="3416" y="-147" font-family="FreeSans.ttf" font-size="10.00">Traversal.cpp</text>
</a>
</g>
</g>
<!-- Node2&#45;&gt;Node37 -->
<g id="edge28" class="edge">
<title>Node2&#45;&gt;Node37</title>
<path fill="none" stroke="midnightblue" d="M2862.36,-209.43C2951.51,-207.55 3179.3,-199.47 3366,-165 3374,-163.52 3382.55,-161.29 3390.28,-159.02"/>
<polygon fill="midnightblue" stroke="midnightblue" points="2862.11,-205.94 2852.19,-209.63 2862.25,-212.94 2862.11,-205.94"/>
</g>
<!-- Node38 -->
<g id="node29" class="node">
<title>Node38</title>
<g id="a_node29"><a xlink:href="ModelCalibrationHelper_8h.html" target="_top" xlink:title=" ">
<polygon fill="none" stroke="red" points="3463,-6 3463,-25 3603,-25 3603,-6 3463,-6"/>
<text text-anchor="middle" x="3533" y="-13" font-family="FreeSans.ttf" font-size="10.00">ModelCalibrationHelper.h</text>
</a>
</g>
</g>
<!-- Node2&#45;&gt;Node38 -->
<g id="edge29" class="edge">
<title>Node2&#45;&gt;Node38</title>
<path fill="none" stroke="midnightblue" d="M2862.26,-209.74C3041.31,-208.33 3789.22,-200.34 3823,-165 3871.19,-114.59 3790.4,-90.16 3745,-67 3716.61,-52.51 3633.74,-35.22 3580.42,-25.09"/>
<polygon fill="midnightblue" stroke="midnightblue" points="2861.98,-206.24 2852.01,-209.82 2862.04,-213.24 2861.98,-206.24"/>
</g>
<!-- Node40 -->
<g id="node30" class="node">
<title>Node40</title>
<g id="a_node30"><a xlink:href="ModelExporter_8h.html" target="_top" xlink:title=" ">
<polygon fill="none" stroke="red" points="3640,-73 3640,-92 3736,-92 3736,-73 3640,-73"/>
<text text-anchor="middle" x="3688" y="-80" font-family="FreeSans.ttf" font-size="10.00">ModelExporter.h</text>
</a>
</g>
</g>
<!-- Node2&#45;&gt;Node40 -->
<g id="edge30" class="edge">
<title>Node2&#45;&gt;Node40</title>
<path fill="none" stroke="midnightblue" d="M2862.15,-209.71C3039,-208.16 3771.88,-199.68 3805,-165 3835.95,-132.6 3764.65,-105.27 3720.21,-92.04"/>
<polygon fill="midnightblue" stroke="midnightblue" points="2861.99,-206.21 2852.02,-209.79 2862.05,-213.21 2861.99,-206.21"/>
</g>
<!-- Node44 -->
<g id="node31" class="node">
<title>Node44</title>
<g id="a_node31"><a xlink:href="idyntree-model-simplify-shapes_8cpp.html" target="_top" xlink:title=" ">
<polygon fill="none" stroke="black" points="3621,-0.5 3621,-30.5 3755,-30.5 3755,-0.5 3621,-0.5"/>
<text text-anchor="start" x="3629" y="-18.5" font-family="FreeSans.ttf" font-size="10.00">idyntree&#45;model&#45;simplify</text>
<text text-anchor="middle" x="3688" y="-7.5" font-family="FreeSans.ttf" font-size="10.00">&#45;shapes.cpp</text>
</a>
</g>
</g>
<!-- Node2&#45;&gt;Node44 -->
<g id="edge68" class="edge">
<title>Node2&#45;&gt;Node44</title>
<path fill="none" stroke="midnightblue" d="M2862.24,-209.78C3043.67,-208.53 3810.4,-201.16 3845,-165 3894.41,-113.36 3783.35,-56.34 3723.28,-30.55"/>
<polygon fill="midnightblue" stroke="midnightblue" points="2862.08,-206.28 2852.1,-209.84 2862.12,-213.28 2862.08,-206.28"/>
</g>
<!-- Node45 -->
<g id="node32" class="node">
<title>Node45</title>
<g id="a_node32"><a xlink:href="ModelLoader_8h.html" target="_top" xlink:title=" ">
<polygon fill="none" stroke="red" points="3933,-73 3933,-92 4021,-92 4021,-73 3933,-73"/>
<text text-anchor="middle" x="3977" y="-80" font-family="FreeSans.ttf" font-size="10.00">ModelLoader.h</text>
</a>
</g>
</g>
<!-- Node2&#45;&gt;Node45 -->
<g id="edge33" class="edge">
<title>Node2&#45;&gt;Node45</title>
<path fill="none" stroke="midnightblue" d="M2862.28,-209.72C3054.74,-208.14 3909.08,-199.23 3953,-165 3975.68,-147.32 3977.74,-109.29 3977.43,-92.16"/>
<polygon fill="midnightblue" stroke="midnightblue" points="2862.06,-206.22 2852.09,-209.8 2862.12,-213.22 2862.06,-206.22"/>
</g>
<!-- Node46 -->
<g id="node33" class="node">
<title>Node46</title>
<g id="a_node33"><a xlink:href="URDFDocument_8h.html" target="_top" xlink:title=" ">
<polygon fill="none" stroke="red" points="394,-6 394,-25 498,-25 498,-6 394,-6"/>
<text text-anchor="middle" x="446" y="-13" font-family="FreeSans.ttf" font-size="10.00">URDFDocument.h</text>
</a>
</g>
</g>
<!-- Node2&#45;&gt;Node46 -->
<g id="edge44" class="edge">
<title>Node2&#45;&gt;Node46</title>
<path fill="none" stroke="midnightblue" d="M2785.42,-210.08C2488.37,-210.6 569.57,-212.12 317,-165 231.86,-149.11 183.61,-169 134,-98 126.11,-86.71 125.07,-77.49 134,-67 166.76,-28.51 313.98,-19.26 393.93,-17.11"/>
<polygon fill="midnightblue" stroke="midnightblue" points="2785.69,-213.58 2795.68,-210.06 2785.68,-206.58 2785.69,-213.58"/>
</g>
<!-- Node49 -->
<g id="node34" class="node">
<title>Node49</title>
<g id="a_node34"><a xlink:href="URDFDofsImport_8cpp.html" target="_top" xlink:title=" ">
<polygon fill="none" stroke="black" points="4065.5,-6 4065.5,-25 4184.5,-25 4184.5,-6 4065.5,-6"/>
<text text-anchor="middle" x="4125" y="-13" font-family="FreeSans.ttf" font-size="10.00">URDFDofsImport.cpp</text>
</a>
</g>
</g>
<!-- Node2&#45;&gt;Node49 -->
<g id="edge47" class="edge">
<title>Node2&#45;&gt;Node49</title>
<path fill="none" stroke="midnightblue" d="M2862.5,-209.47C3060.94,-206.62 3960.89,-192.21 4013,-165 4073.68,-133.31 4110.67,-52.27 4121.59,-25.34"/>
<polygon fill="midnightblue" stroke="midnightblue" points="2862.22,-205.97 2852.27,-209.61 2862.32,-212.97 2862.22,-205.97"/>
</g>
<!-- Node50 -->
<g id="node35" class="node">
<title>Node50</title>
<g id="a_node35"><a xlink:href="idyntree-model-info_8cpp.html" target="_top" xlink:title=" ">
<polygon fill="none" stroke="black" points="4203,-6 4203,-25 4337,-25 4337,-6 4203,-6"/>
<text text-anchor="middle" x="4270" y="-13" font-family="FreeSans.ttf" font-size="10.00">idyntree&#45;model&#45;info.cpp</text>
</a>
</g>
</g>
<!-- Node2&#45;&gt;Node50 -->
<g id="edge67" class="edge">
<title>Node2&#45;&gt;Node50</title>
<path fill="none" stroke="midnightblue" d="M2862.11,-210.21C3056.84,-211.04 3935.78,-212.17 4047,-165 4104.88,-140.46 4096.43,-101.47 4149,-67 4178.31,-47.78 4216.15,-33.41 4241.64,-25.01"/>
<polygon fill="midnightblue" stroke="midnightblue" points="2862.09,-206.71 2852.07,-210.16 2862.05,-213.71 2862.09,-206.71"/>
</g>
<!-- Node51 -->
<g id="node36" class="node">
<title>Node51</title>
<g id="a_node36"><a xlink:href="idyntree-model-view_8cpp.html" target="_top" xlink:title=" ">
<polygon fill="none" stroke="black" points="4355.5,-6 4355.5,-25 4492.5,-25 4492.5,-6 4355.5,-6"/>
<text text-anchor="middle" x="4424" y="-13" font-family="FreeSans.ttf" font-size="10.00">idyntree&#45;model&#45;view.cpp</text>
</a>
</g>
</g>
<!-- Node2&#45;&gt;Node51 -->
<g id="edge69" class="edge">
<title>Node2&#45;&gt;Node51</title>
<path fill="none" stroke="midnightblue" d="M2862.23,-210.15C3060.52,-210.74 3967.2,-210.89 4083,-165 4144.49,-140.63 4135.97,-96.83 4195,-67 4211.35,-58.74 4317.92,-37.13 4379.76,-25.02"/>
<polygon fill="midnightblue" stroke="midnightblue" points="2862.02,-206.65 2852.01,-210.12 2862,-213.65 2862.02,-206.65"/>
</g>
<!-- Node52 -->
<g id="node37" class="node">
<title>Node52</title>
<g id="a_node37"><a xlink:href="ObserverThread_8cpp.html" target="_top" xlink:title=" ">
<polygon fill="none" stroke="black" points="3773.5,-6 3773.5,-25 3888.5,-25 3888.5,-6 3773.5,-6"/>
<text text-anchor="middle" x="3831" y="-13" font-family="FreeSans.ttf" font-size="10.00">ObserverThread.cpp</text>
</a>
</g>
</g>
<!-- Node2&#45;&gt;Node52 -->
<g id="edge70" class="edge">
<title>Node2&#45;&gt;Node52</title>
<path fill="none" stroke="midnightblue" d="M2862.15,-209.81C3045.7,-208.73 3830.62,-201.94 3866,-165 3904.47,-124.83 3856.27,-50.64 3837.71,-25.27"/>
<polygon fill="midnightblue" stroke="midnightblue" points="2862.13,-206.31 2852.15,-209.87 2862.17,-213.31 2862.13,-206.31"/>
</g>
<!-- Node54 -->
<g id="node38" class="node">
<title>Node54</title>
<g id="a_node38"><a xlink:href="InertialElement_8h.html" target="_top" xlink:title=" ">
<polygon fill="none" stroke="red" points="3695.5,-140 3695.5,-159 3796.5,-159 3796.5,-140 3695.5,-140"/>
<text text-anchor="middle" x="3746" y="-147" font-family="FreeSans.ttf" font-size="10.00">InertialElement.h</text>
</a>
</g>
</g>
<!-- Node2&#45;&gt;Node54 -->
<g id="edge42" class="edge">
<title>Node2&#45;&gt;Node54</title>
<path fill="none" stroke="midnightblue" d="M2862.51,-210.26C2983.6,-210.59 3367.2,-207.93 3681,-165 3691.42,-163.57 3702.65,-161.33 3712.79,-159.03"/>
<polygon fill="midnightblue" stroke="midnightblue" points="2862.29,-206.76 2852.27,-210.22 2862.26,-213.76 2862.29,-206.76"/>
</g>
<!-- Node56 -->
<g id="node39" class="node">
<title>Node56</title>
<g id="a_node39"><a xlink:href="LinkElement_8cpp.html" target="_top" xlink:title=" ">
<polygon fill="none" stroke="black" points="3524,-73 3524,-92 3622,-92 3622,-73 3524,-73"/>
<text text-anchor="middle" x="3573" y="-80" font-family="FreeSans.ttf" font-size="10.00">LinkElement.cpp</text>
</a>
</g>
</g>
<!-- Node2&#45;&gt;Node56 -->
<g id="edge45" class="edge">
<title>Node2&#45;&gt;Node56</title>
<path fill="none" stroke="midnightblue" d="M2862.09,-209.31C3018.11,-206.29 3601.39,-193.14 3628,-165 3650.4,-141.31 3608.76,-107.6 3586.17,-92.01"/>
<polygon fill="midnightblue" stroke="midnightblue" points="2861.95,-205.81 2852.02,-209.5 2862.09,-212.81 2861.95,-205.81"/>
</g>
<!-- Node57 -->
<g id="node40" class="node">
<title>Node57</title>
<g id="a_node40"><a xlink:href="RobotElement_8cpp.html" target="_top" xlink:title=" ">
<polygon fill="none" stroke="black" points="455,-73 455,-92 561,-92 561,-73 455,-73"/>
<text text-anchor="middle" x="508" y="-80" font-family="FreeSans.ttf" font-size="10.00">RobotElement.cpp</text>
</a>
</g>
</g>
<!-- Node2&#45;&gt;Node57 -->
<g id="edge46" class="edge">
<title>Node2&#45;&gt;Node57</title>
<path fill="none" stroke="midnightblue" d="M2785.82,-209.77C2492.29,-207.91 603.93,-194.82 554,-165 526.66,-148.67 514.22,-109.57 509.89,-92.14"/>
<polygon fill="midnightblue" stroke="midnightblue" points="2785.95,-213.27 2795.97,-209.83 2785.99,-206.27 2785.95,-213.27"/>
</g>
<!-- Node43 -->
<g id="node41" class="node">
<title>Node43</title>
<g id="a_node41"><a xlink:href="URDFModelExport_8cpp.html" target="_top" xlink:title=" ">
<polygon fill="none" stroke="black" points="3475,-140 3475,-159 3601,-159 3601,-140 3475,-140"/>
<text text-anchor="middle" x="3538" y="-147" font-family="FreeSans.ttf" font-size="10.00">URDFModelExport.cpp</text>
</a>
</g>
</g>
<!-- Node2&#45;&gt;Node43 -->
<g id="edge48" class="edge">
<title>Node2&#45;&gt;Node43</title>
<path fill="none" stroke="midnightblue" d="M2862.45,-208.99C2962.27,-206 3237.76,-195.42 3465,-165 3476.4,-163.47 3488.69,-161.26 3499.89,-159.01"/>
<polygon fill="midnightblue" stroke="midnightblue" points="2862.14,-205.5 2852.24,-209.29 2862.34,-212.49 2862.14,-205.5"/>
</g>
<!-- Node58 -->
<g id="node42" class="node">
<title>Node58</title>
<g id="a_node42"><a xlink:href="Sensors_8h.html" target="_top" xlink:title=" ">
<polygon fill="none" stroke="red" points="574,-140 574,-159 638,-159 638,-140 574,-140"/>
<text text-anchor="middle" x="606" y="-147" font-family="FreeSans.ttf" font-size="10.00">Sensors.h</text>
</a>
</g>
</g>
<!-- Node2&#45;&gt;Node58 -->
<g id="edge49" class="edge">
<title>Node2&#45;&gt;Node58</title>
<path fill="none" stroke="midnightblue" d="M2785.63,-209.86C2512.76,-208.79 870.29,-200.91 652,-165 644.23,-163.72 635.97,-161.43 628.62,-159.04"/>
<polygon fill="midnightblue" stroke="midnightblue" points="2785.82,-213.36 2795.83,-209.9 2785.84,-206.36 2785.82,-213.36"/>
</g>
<!-- Node73 -->
<g id="node43" class="node">
<title>Node73</title>
<g id="a_node43"><a xlink:href="ModelSensorsTransformers_8cpp.html" target="_top" xlink:title=" ">
<polygon fill="none" stroke="black" points="579.5,-73 579.5,-92 748.5,-92 748.5,-73 579.5,-73"/>
<text text-anchor="middle" x="664" y="-80" font-family="FreeSans.ttf" font-size="10.00">ModelSensorsTransformers.cpp</text>
</a>
</g>
</g>
<!-- Node2&#45;&gt;Node73 -->
<g id="edge61" class="edge">
<title>Node2&#45;&gt;Node73</title>
<path fill="none" stroke="midnightblue" d="M2785.84,-209.98C2492.47,-209.7 605.52,-206.33 565,-165 536.17,-135.59 600.71,-106.12 638.73,-92.04"/>
<polygon fill="midnightblue" stroke="midnightblue" points="2785.98,-213.48 2795.98,-209.98 2785.98,-206.48 2785.98,-213.48"/>
</g>
<!-- Node68 -->
<g id="node44" class="node">
<title>Node68</title>
<g id="a_node44"><a xlink:href="PredictSensorsMeasurements_8cpp.html" target="_top" xlink:title=" ">
<polygon fill="none" stroke="black" points="2767,-73 2767,-92 2949,-92 2949,-73 2767,-73"/>
<text text-anchor="middle" x="2858" y="-80" font-family="FreeSans.ttf" font-size="10.00">PredictSensorsMeasurements.cpp</text>
</a>
</g>
</g>
<!-- Node2&#45;&gt;Node68 -->
<g id="edge62" class="edge">
<title>Node2&#45;&gt;Node68</title>
<path fill="none" stroke="midnightblue" d="M2862.72,-209.24C3017.41,-206.04 3584.08,-192.45 3610,-165 3619.46,-154.98 3619.41,-144.06 3610,-134 3565.73,-86.66 3139.57,-82.35 2949.14,-82.82"/>
<polygon fill="midnightblue" stroke="midnightblue" points="2862.23,-205.75 2852.3,-209.46 2862.37,-212.75 2862.23,-205.75"/>
</g>
<!-- Node2&#45;&gt;Node79 -->
<g id="edge63" class="edge">
<title>Node2&#45;&gt;Node79</title>
<path fill="none" stroke="midnightblue" d="M2862.01,-210.38C3024.88,-211.69 3679.91,-213.48 4215,-165 4219.49,-164.59 4224.1,-164.11 4228.74,-163.58"/>
<polygon fill="midnightblue" stroke="midnightblue" points="2862.03,-206.88 2852,-210.3 2861.97,-213.88 2862.03,-206.88"/>
</g>
<!-- Node81 -->
<g id="node47" class="node">
<title>Node81</title>
<g id="a_node47"><a xlink:href="ModelTransformersSolidShapes_8cpp.html" target="_top" xlink:title=" ">
<polygon fill="none" stroke="black" points="4204,-73 4204,-92 4394,-92 4394,-73 4204,-73"/>
<text text-anchor="middle" x="4299" y="-80" font-family="FreeSans.ttf" font-size="10.00">ModelTransformersSolidShapes.cpp</text>
</a>
</g>
</g>
<!-- Node2&#45;&gt;Node81 -->
<g id="edge66" class="edge">
<title>Node2&#45;&gt;Node81</title>
<path fill="none" stroke="midnightblue" d="M2862.34,-210.05C3069.44,-210.17 4049.79,-208.42 4177,-165 4199.3,-157.39 4200.51,-147.24 4220,-134 4242.49,-118.72 4269.25,-101.89 4285.15,-92.03"/>
<polygon fill="midnightblue" stroke="midnightblue" points="2862.25,-206.55 2852.25,-210.05 2862.25,-213.55 2862.25,-206.55"/>
</g>
<!-- Node3&#45;&gt;Node4 -->
<g id="edge3" class="edge">
<title>Node3&#45;&gt;Node4</title>
<path fill="none" stroke="midnightblue" d="M939.75,-59.74C948.04,-50.12 957.54,-39.09 964.87,-30.58"/>
<polygon fill="midnightblue" stroke="midnightblue" points="937.03,-57.54 933.15,-67.4 942.33,-62.1 937.03,-57.54"/>
</g>
<!-- Node40&#45;&gt;Node38 -->
<g id="edge31" class="edge">
<title>Node40&#45;&gt;Node38</title>
<path fill="none" stroke="midnightblue" d="M3658.07,-68.95C3627.38,-56.08 3580.46,-36.4 3553.67,-25.17"/>
<polygon fill="midnightblue" stroke="midnightblue" points="3656.84,-72.23 3667.42,-72.87 3659.55,-65.77 3656.84,-72.23"/>
</g>
<!-- Node40&#45;&gt;Node44 -->
<g id="edge32" class="edge">
<title>Node40&#45;&gt;Node44</title>
<path fill="none" stroke="midnightblue" d="M3688,-62.41C3688,-52.22 3688,-39.9 3688,-30.59"/>
<polygon fill="midnightblue" stroke="midnightblue" points="3684.5,-62.73 3688,-72.73 3691.5,-62.73 3684.5,-62.73"/>
</g>
<!-- Node45&#45;&gt;Node4 -->
<g id="edge34" class="edge">
<title>Node45&#45;&gt;Node4</title>
<path fill="none" stroke="midnightblue" d="M3922.73,-77.43C3875.73,-74.06 3805.92,-69.46 3745,-67 2680.96,-24.06 1385.35,-17.62 1056.03,-16.66"/>
<polygon fill="midnightblue" stroke="midnightblue" points="3922.76,-80.94 3932.99,-78.17 3923.26,-73.96 3922.76,-80.94"/>
</g>
<!-- Node45&#45;&gt;Node11 -->
<g id="edge35" class="edge">
<title>Node45&#45;&gt;Node11</title>
<path fill="none" stroke="midnightblue" d="M3977,-62.54C3977,-50.17 3977,-34.62 3977,-25.13"/>
<polygon fill="midnightblue" stroke="midnightblue" points="3973.5,-62.73 3977,-72.73 3980.5,-62.73 3973.5,-62.73"/>
</g>
<!-- Node45&#45;&gt;Node44 -->
<g id="edge39" class="edge">
<title>Node45&#45;&gt;Node44</title>
<path fill="none" stroke="midnightblue" d="M3928.92,-70.69C3880.02,-59.69 3804.05,-42.6 3750.51,-30.56"/>
<polygon fill="midnightblue" stroke="midnightblue" points="3928.4,-74.16 3938.92,-72.94 3929.93,-67.33 3928.4,-74.16"/>
</g>
<!-- Node45&#45;&gt;Node46 -->
<g id="edge36" class="edge">
<title>Node45&#45;&gt;Node46</title>
<path fill="none" stroke="midnightblue" d="M3922.73,-77.34C3875.74,-73.92 3805.93,-69.29 3745,-67 2476.46,-19.39 2158.11,-59.77 889,-31 747.64,-27.8 580.98,-21.72 498.16,-18.55"/>
<polygon fill="midnightblue" stroke="midnightblue" points="3922.76,-80.85 3932.99,-78.09 3923.27,-73.87 3922.76,-80.85"/>
</g>
<!-- Node45&#45;&gt;Node49 -->
<g id="edge37" class="edge">
<title>Node45&#45;&gt;Node49</title>
<path fill="none" stroke="midnightblue" d="M4005.96,-68.78C4035.27,-55.91 4079.79,-36.35 4105.27,-25.17"/>
<polygon fill="midnightblue" stroke="midnightblue" points="4004.4,-65.64 3996.65,-72.87 4007.22,-72.05 4004.4,-65.64"/>
</g>
<!-- Node45&#45;&gt;Node50 -->
<g id="edge38" class="edge">
<title>Node45&#45;&gt;Node50</title>
<path fill="none" stroke="midnightblue" d="M4025.58,-70.72C4083.27,-57.92 4178.34,-36.83 4231.31,-25.08"/>
<polygon fill="midnightblue" stroke="midnightblue" points="4024.61,-67.35 4015.61,-72.94 4026.13,-74.19 4024.61,-67.35"/>
</g>
<!-- Node45&#45;&gt;Node51 -->
<g id="edge40" class="edge">
<title>Node45&#45;&gt;Node51</title>
<path fill="none" stroke="midnightblue" d="M4031.32,-74.89C4103.38,-65.93 4234.51,-48.98 4346,-31 4357.01,-29.22 4368.87,-27.12 4379.93,-25.07"/>
<polygon fill="midnightblue" stroke="midnightblue" points="4030.62,-71.45 4021.12,-76.15 4031.48,-78.4 4030.62,-71.45"/>
</g>
<!-- Node45&#45;&gt;Node52 -->
<g id="edge41" class="edge">
<title>Node45&#45;&gt;Node52</title>
<path fill="none" stroke="midnightblue" d="M3948.43,-68.78C3919.52,-55.91 3875.6,-36.35 3850.47,-25.17"/>
<polygon fill="midnightblue" stroke="midnightblue" points="3947.05,-72 3957.61,-72.87 3949.9,-65.6 3947.05,-72"/>
</g>
<!-- Node54&#45;&gt;Node56 -->
<g id="edge43" class="edge">
<title>Node54&#45;&gt;Node56</title>
<path fill="none" stroke="midnightblue" d="M3713.45,-136.27C3679.12,-123.37 3625.9,-103.38 3595.79,-92.06"/>
<polygon fill="midnightblue" stroke="midnightblue" points="3712.43,-139.63 3723.03,-139.87 3714.9,-133.07 3712.43,-139.63"/>
</g>
<!-- Node58&#45;&gt;Node3 -->
<g id="edge50" class="edge">
<title>Node58&#45;&gt;Node3</title>
<path fill="none" stroke="midnightblue" d="M640.88,-137.03C644.62,-135.94 648.38,-134.91 652,-134 715.26,-118.15 788.01,-104.78 841.89,-95.79"/>
<polygon fill="midnightblue" stroke="midnightblue" points="639.71,-133.72 631.15,-139.97 641.74,-140.42 639.71,-133.72"/>
</g>
<!-- Node58&#45;&gt;Node4 -->
<g id="edge53" class="edge">
<title>Node58&#45;&gt;Node4</title>
<path fill="none" stroke="midnightblue" d="M642.39,-136.95C645.64,-135.95 648.88,-134.95 652,-134 706.5,-117.44 722.27,-119.54 775,-98 802.06,-86.95 806.24,-78.76 833,-67 865.14,-52.88 902.58,-39.84 931.23,-30.56"/>
<polygon fill="midnightblue" stroke="midnightblue" points="641.23,-133.65 632.73,-139.97 643.32,-140.33 641.23,-133.65"/>
</g>
<!-- Node58&#45;&gt;Node9 -->
<g id="edge51" class="edge">
<title>Node58&#45;&gt;Node9</title>
<path fill="none" stroke="midnightblue" d="M563.75,-143.95C496.84,-136.42 362.53,-119.99 250,-98 241.34,-96.31 232.04,-94.14 223.47,-92"/>
<polygon fill="midnightblue" stroke="midnightblue" points="563.58,-147.45 573.9,-145.08 564.35,-140.49 563.58,-147.45"/>
</g>
<!-- Node58&#45;&gt;Node10 -->
<g id="edge52" class="edge">
<title>Node58&#45;&gt;Node10</title>
<path fill="none" stroke="midnightblue" d="M563.84,-137.88C513,-125.07 428.56,-103.8 381.79,-92.01"/>
<polygon fill="midnightblue" stroke="midnightblue" points="563.29,-141.35 573.85,-140.4 565,-134.56 563.29,-141.35"/>
</g>
<!-- Node58&#45;&gt;Node38 -->
<g id="edge54" class="edge">
<title>Node58&#45;&gt;Node38</title>
<path fill="none" stroke="midnightblue" d="M648.31,-142.41C670.5,-139.43 698.17,-136.05 723,-134 1812.4,-43.87 3145.42,-21.52 3462.82,-17.33"/>
<polygon fill="midnightblue" stroke="midnightblue" points="647.64,-138.97 638.21,-143.79 648.59,-145.91 647.64,-138.97"/>
</g>
<!-- Node58&#45;&gt;Node40 -->
<g id="edge55" class="edge">
<title>Node58&#45;&gt;Node40</title>
<path fill="none" stroke="midnightblue" d="M648.28,-142.11C670.47,-139.05 698.14,-135.69 723,-134 1045.39,-112.09 3310.62,-140.13 3631,-98 3640.52,-96.75 3650.73,-94.46 3659.84,-92.07"/>
<polygon fill="midnightblue" stroke="midnightblue" points="647.6,-138.67 638.19,-143.54 648.58,-145.6 647.6,-138.67"/>
</g>
<!-- Node58&#45;&gt;Node45 -->
<g id="edge56" class="edge">
<title>Node58&#45;&gt;Node45</title>
<path fill="none" stroke="midnightblue" d="M648.28,-142.11C670.47,-139.04 698.14,-135.68 723,-134 1393.07,-88.63 3073.86,-122.95 3745,-98 3810.53,-95.56 3886.35,-90.38 3932.99,-86.91"/>
<polygon fill="midnightblue" stroke="midnightblue" points="647.6,-138.67 638.19,-143.53 648.58,-145.6 647.6,-138.67"/>
</g>
<!-- Node58&#45;&gt;Node46 -->
<g id="edge57" class="edge">
<title>Node58&#45;&gt;Node46</title>
<path fill="none" stroke="midnightblue" d="M642.48,-136.88C686.6,-122.73 755.25,-100.43 757,-98 765.05,-86.82 765.93,-77.49 757,-67 724.39,-28.67 577.99,-19.35 498.23,-17.14"/>
<polygon fill="midnightblue" stroke="midnightblue" points="641.39,-133.55 632.93,-139.93 643.52,-140.22 641.39,-133.55"/>
</g>
<!-- Node58&#45;&gt;Node57 -->
<g id="edge58" class="edge">
<title>Node58&#45;&gt;Node57</title>
<path fill="none" stroke="midnightblue" d="M584.28,-134.09C564.89,-121.24 537.14,-102.83 521.01,-92.13"/>
<polygon fill="midnightblue" stroke="midnightblue" points="582.52,-137.12 592.78,-139.73 586.38,-131.29 582.52,-137.12"/>
</g>
<!-- Node58&#45;&gt;Node73 -->
<g id="edge59" class="edge">
<title>Node58&#45;&gt;Node73</title>
<path fill="none" stroke="midnightblue" d="M620.6,-132.13C631.95,-119.42 647.23,-102.3 656.3,-92.13"/>
<polygon fill="midnightblue" stroke="midnightblue" points="617.87,-129.94 613.82,-139.73 623.09,-134.6 617.87,-129.94"/>
</g>
<!-- Node58&#45;&gt;Node68 -->
<g id="edge60" class="edge">
<title>Node58&#45;&gt;Node68</title>
<path fill="none" stroke="midnightblue" d="M648.29,-142.23C670.48,-139.2 698.15,-135.83 723,-134 1129.51,-104.08 2412.69,-88.3 2766.74,-84.45"/>
<polygon fill="midnightblue" stroke="midnightblue" points="647.62,-138.79 638.19,-143.63 648.58,-145.72 647.62,-138.79"/>
</g>
<!-- Node79&#45;&gt;Node80 -->
<g id="edge64" class="edge">
<title>Node79&#45;&gt;Node80</title>
<path fill="none" stroke="midnightblue" d="M4365.96,-131.31C4398.96,-120.79 4440.66,-107.51 4471.71,-97.61"/>
<polygon fill="midnightblue" stroke="midnightblue" points="4364.48,-128.11 4356.01,-134.48 4366.6,-134.77 4364.48,-128.11"/>
</g>
<!-- Node79&#45;&gt;Node81 -->
<g id="edge65" class="edge">
<title>Node79&#45;&gt;Node81</title>
<path fill="none" stroke="midnightblue" d="M4307.15,-124.25C4304.9,-113.02 4302.38,-100.38 4300.74,-92.19"/>
<polygon fill="midnightblue" stroke="midnightblue" points="4303.79,-125.28 4309.18,-134.4 4310.65,-123.9 4303.79,-125.28"/>
</g>
<!-- Node92&#45;&gt;Node46 -->
<g id="edge73" class="edge">
<title>Node92&#45;&gt;Node46</title>
<path fill="none" stroke="midnightblue" d="M54.51,-130.46C62.4,-111.37 77.62,-81.98 101,-67 148.47,-36.59 309.48,-23.7 393.69,-18.93"/>
<polygon fill="midnightblue" stroke="midnightblue" points="51.22,-129.26 50.87,-139.85 57.75,-131.79 51.22,-129.26"/>
</g>
<!-- Node92&#45;&gt;Node56 -->
<g id="edge74" class="edge">
<title>Node92&#45;&gt;Node56</title>
<path fill="none" stroke="midnightblue" d="M106.16,-146.62C201.84,-143.59 398.48,-137.59 565,-134 1628.43,-111.09 1894.52,-118.54 2958,-98 3168.62,-93.93 3419.79,-87.52 3523.98,-84.8"/>
<polygon fill="midnightblue" stroke="midnightblue" points="105.99,-143.13 96.11,-146.94 106.21,-150.12 105.99,-143.13"/>
</g>
</g>
</svg>
