<?xml version="1.0" encoding="UTF-8" standalone="no"?>
<!DOCTYPE svg PUBLIC "-//W3C//DTD SVG 1.1//EN"
 "http://www.w3.org/Graphics/SVG/1.1/DTD/svg11.dtd">
<!-- Generated by graphviz version 2.43.0 (0)
 -->
<!-- Title: Span.h Pages: 1 -->
<svg width="641pt" height="84pt"
 viewBox="0.00 0.00 640.50 84.00" xmlns="http://www.w3.org/2000/svg" xmlns:xlink="http://www.w3.org/1999/xlink">
<g id="graph0" class="graph" transform="scale(1 1) rotate(0) translate(4 80)">
<title>Span.h</title>
<!-- Node1 -->
<g id="node1" class="node">
<title>Node1</title>
<g id="a_node1"><a xlink:title=" ">
<polygon fill="#bfbfbf" stroke="black" points="285,-56.5 285,-75.5 335,-75.5 335,-56.5 285,-56.5"/>
<text text-anchor="middle" x="310" y="-63.5" font-family="FreeSans.ttf" font-size="10.00">Span.h</text>
</a>
</g>
</g>
<!-- Node2 -->
<g id="node2" class="node">
<title>Node2</title>
<g id="a_node2"><a xlink:title=" ">
<polygon fill="none" stroke="#bfbfbf" points="0,-0.5 0,-19.5 52,-19.5 52,-0.5 0,-0.5"/>
<text text-anchor="middle" x="26" y="-7.5" font-family="FreeSans.ttf" font-size="10.00">cassert</text>
</a>
</g>
</g>
<!-- Node1&#45;&gt;Node2 -->
<g id="edge1" class="edge">
<title>Node1&#45;&gt;Node2</title>
<path fill="none" stroke="midnightblue" d="M284.79,-61.07C241.32,-54.15 149.29,-38.93 62.11,-20.12"/>
<polygon fill="midnightblue" stroke="midnightblue" points="62.84,-16.7 52.32,-17.99 61.35,-23.54 62.84,-16.7"/>
</g>
<!-- Node3 -->
<g id="node3" class="node">
<title>Node3</title>
<g id="a_node3"><a xlink:title=" ">
<polygon fill="none" stroke="#bfbfbf" points="70,-0.5 70,-19.5 134,-19.5 134,-0.5 70,-0.5"/>
<text text-anchor="middle" x="102" y="-7.5" font-family="FreeSans.ttf" font-size="10.00">algorithm</text>
</a>
</g>
</g>
<!-- Node1&#45;&gt;Node3 -->
<g id="edge2" class="edge">
<title>Node1&#45;&gt;Node3</title>
<path fill="none" stroke="midnightblue" d="M284.91,-58.49C250,-49.42 186.31,-32.89 144.07,-21.92"/>
<polygon fill="midnightblue" stroke="midnightblue" points="144.9,-18.52 134.35,-19.4 143.15,-25.3 144.9,-18.52"/>
</g>
<!-- Node4 -->
<g id="node4" class="node">
<title>Node4</title>
<g id="a_node4"><a xlink:title=" ">
<polygon fill="none" stroke="#bfbfbf" points="152,-0.5 152,-19.5 194,-19.5 194,-0.5 152,-0.5"/>
<text text-anchor="middle" x="173" y="-7.5" font-family="FreeSans.ttf" font-size="10.00">array</text>
</a>
</g>
</g>
<!-- Node1&#45;&gt;Node4 -->
<g id="edge3" class="edge">
<title>Node1&#45;&gt;Node4</title>
<path fill="none" stroke="midnightblue" d="M288.29,-56.44C265.51,-47.46 229.51,-33.27 203.8,-23.14"/>
<polygon fill="midnightblue" stroke="midnightblue" points="204.74,-19.75 194.16,-19.34 202.18,-26.26 204.74,-19.75"/>
</g>
<!-- Node5 -->
<g id="node5" class="node">
<title>Node5</title>
<g id="a_node5"><a xlink:title=" ">
<polygon fill="none" stroke="#bfbfbf" points="212.5,-0.5 212.5,-19.5 265.5,-19.5 265.5,-0.5 212.5,-0.5"/>
<text text-anchor="middle" x="239" y="-7.5" font-family="FreeSans.ttf" font-size="10.00">cstddef</text>
</a>
</g>
</g>
<!-- Node1&#45;&gt;Node5 -->
<g id="edge4" class="edge">
<title>Node1&#45;&gt;Node5</title>
<path fill="none" stroke="midnightblue" d="M298.59,-56.32C287.89,-48.18 271.66,-35.84 258.84,-26.09"/>
<polygon fill="midnightblue" stroke="midnightblue" points="260.69,-23.1 250.61,-19.83 256.46,-28.67 260.69,-23.1"/>
</g>
<!-- Node6 -->
<g id="node6" class="node">
<title>Node6</title>
<g id="a_node6"><a xlink:title=" ">
<polygon fill="none" stroke="#bfbfbf" points="283.5,-0.5 283.5,-19.5 336.5,-19.5 336.5,-0.5 283.5,-0.5"/>
<text text-anchor="middle" x="310" y="-7.5" font-family="FreeSans.ttf" font-size="10.00">iterator</text>
</a>
</g>
</g>
<!-- Node1&#45;&gt;Node6 -->
<g id="edge5" class="edge">
<title>Node1&#45;&gt;Node6</title>
<path fill="none" stroke="midnightblue" d="M310,-56.08C310,-49.01 310,-38.86 310,-29.99"/>
<polygon fill="midnightblue" stroke="midnightblue" points="313.5,-29.75 310,-19.75 306.5,-29.75 313.5,-29.75"/>
</g>
<!-- Node7 -->
<g id="node7" class="node">
<title>Node7</title>
<g id="a_node7"><a xlink:title=" ">
<polygon fill="none" stroke="#bfbfbf" points="355,-0.5 355,-19.5 399,-19.5 399,-0.5 355,-0.5"/>
<text text-anchor="middle" x="377" y="-7.5" font-family="FreeSans.ttf" font-size="10.00">limits</text>
</a>
</g>
</g>
<!-- Node1&#45;&gt;Node7 -->
<g id="edge6" class="edge">
<title>Node1&#45;&gt;Node7</title>
<path fill="none" stroke="midnightblue" d="M320.76,-56.32C330.77,-48.26 345.89,-36.08 357.93,-26.37"/>
<polygon fill="midnightblue" stroke="midnightblue" points="360.45,-28.83 366.04,-19.83 356.06,-23.38 360.45,-28.83"/>
</g>
<!-- Node8 -->
<g id="node8" class="node">
<title>Node8</title>
<g id="a_node8"><a xlink:title=" ">
<polygon fill="none" stroke="#bfbfbf" points="417.5,-0.5 417.5,-19.5 482.5,-19.5 482.5,-0.5 417.5,-0.5"/>
<text text-anchor="middle" x="450" y="-7.5" font-family="FreeSans.ttf" font-size="10.00">stdexcept</text>
</a>
</g>
</g>
<!-- Node1&#45;&gt;Node8 -->
<g id="edge7" class="edge">
<title>Node1&#45;&gt;Node8</title>
<path fill="none" stroke="midnightblue" d="M332.18,-56.44C355.43,-47.48 392.15,-33.31 418.42,-23.18"/>
<polygon fill="midnightblue" stroke="midnightblue" points="419.85,-26.38 427.92,-19.52 417.33,-19.85 419.85,-26.38"/>
</g>
<!-- Node9 -->
<g id="node9" class="node">
<title>Node9</title>
<g id="a_node9"><a xlink:title=" ">
<polygon fill="none" stroke="#bfbfbf" points="500.5,-0.5 500.5,-19.5 569.5,-19.5 569.5,-0.5 500.5,-0.5"/>
<text text-anchor="middle" x="535" y="-7.5" font-family="FreeSans.ttf" font-size="10.00">type_traits</text>
</a>
</g>
</g>
<!-- Node1&#45;&gt;Node9 -->
<g id="edge8" class="edge">
<title>Node1&#45;&gt;Node9</title>
<path fill="none" stroke="midnightblue" d="M335.37,-58.91C372.96,-49.89 443.96,-32.85 490.37,-21.71"/>
<polygon fill="midnightblue" stroke="midnightblue" points="491.26,-25.1 500.16,-19.36 489.62,-18.29 491.26,-25.1"/>
</g>
<!-- Node10 -->
<g id="node10" class="node">
<title>Node10</title>
<g id="a_node10"><a xlink:title=" ">
<polygon fill="none" stroke="#bfbfbf" points="587.5,-0.5 587.5,-19.5 632.5,-19.5 632.5,-0.5 587.5,-0.5"/>
<text text-anchor="middle" x="610" y="-7.5" font-family="FreeSans.ttf" font-size="10.00">utility</text>
</a>
</g>
</g>
<!-- Node1&#45;&gt;Node10 -->
<g id="edge9" class="edge">
<title>Node1&#45;&gt;Node10</title>
<path fill="none" stroke="midnightblue" d="M335.04,-61.81C381.18,-55.71 482.86,-41.29 577.39,-20.16"/>
<polygon fill="midnightblue" stroke="midnightblue" points="578.41,-23.52 587.39,-17.89 576.87,-16.69 578.41,-23.52"/>
</g>
</g>
</svg>
