<?xml version="1.0" encoding="UTF-8" standalone="no"?>
<!DOCTYPE svg PUBLIC "-//W3C//DTD SVG 1.1//EN"
 "http://www.w3.org/Graphics/SVG/1.1/DTD/svg11.dtd">
<!-- Generated by graphviz version 2.43.0 (0)
 -->
<!-- Title: SparsityStructure.h Pages: 1 -->
<svg width="412pt" height="140pt"
 viewBox="0.00 0.00 411.50 140.00" xmlns="http://www.w3.org/2000/svg" xmlns:xlink="http://www.w3.org/1999/xlink">
<g id="graph0" class="graph" transform="scale(1 1) rotate(0) translate(4 136)">
<title>SparsityStructure.h</title>
<!-- Node1 -->
<g id="node1" class="node">
<title>Node1</title>
<g id="a_node1"><a xlink:title=" ">
<polygon fill="#bfbfbf" stroke="black" points="158.5,-112.5 158.5,-131.5 268.5,-131.5 268.5,-112.5 158.5,-112.5"/>
<text text-anchor="middle" x="213.5" y="-119.5" font-family="FreeSans.ttf" font-size="10.00">SparsityStructure.h</text>
</a>
</g>
</g>
<!-- Node2 -->
<g id="node2" class="node">
<title>Node2</title>
<g id="a_node2"><a xlink:href="Utils_8h.html" target="_top" xlink:title=" ">
<polygon fill="none" stroke="black" points="53,-56.5 53,-75.5 172,-75.5 172,-56.5 53,-56.5"/>
<text text-anchor="middle" x="112.5" y="-63.5" font-family="FreeSans.ttf" font-size="10.00">iDynTree/Core/Utils.h</text>
</a>
</g>
</g>
<!-- Node1&#45;&gt;Node2 -->
<g id="edge1" class="edge">
<title>Node1&#45;&gt;Node2</title>
<path fill="none" stroke="midnightblue" d="M197.27,-112.32C181.15,-103.7 156.2,-90.36 137.54,-80.39"/>
<polygon fill="midnightblue" stroke="midnightblue" points="139.16,-77.28 128.69,-75.65 135.86,-83.46 139.16,-77.28"/>
</g>
<!-- Node3 -->
<g id="node3" class="node">
<title>Node3</title>
<g id="a_node3"><a xlink:title=" ">
<polygon fill="none" stroke="#bfbfbf" points="0,-0.5 0,-19.5 53,-19.5 53,-0.5 0,-0.5"/>
<text text-anchor="middle" x="26.5" y="-7.5" font-family="FreeSans.ttf" font-size="10.00">cstddef</text>
</a>
</g>
</g>
<!-- Node1&#45;&gt;Node3 -->
<g id="edge5" class="edge">
<title>Node1&#45;&gt;Node3</title>
<path fill="none" stroke="midnightblue" d="M158.21,-120.22C121.01,-116.74 73.46,-106.05 43.5,-76 31.54,-64.01 27.68,-44.71 26.58,-30.25"/>
<polygon fill="midnightblue" stroke="midnightblue" points="30.06,-29.78 26.18,-19.93 23.07,-30.05 30.06,-29.78"/>
</g>
<!-- Node5 -->
<g id="node5" class="node">
<title>Node5</title>
<g id="a_node5"><a xlink:title=" ">
<polygon fill="none" stroke="#bfbfbf" points="190,-56.5 190,-75.5 237,-75.5 237,-56.5 190,-56.5"/>
<text text-anchor="middle" x="213.5" y="-63.5" font-family="FreeSans.ttf" font-size="10.00">vector</text>
</a>
</g>
</g>
<!-- Node1&#45;&gt;Node5 -->
<g id="edge4" class="edge">
<title>Node1&#45;&gt;Node5</title>
<path fill="none" stroke="midnightblue" d="M213.5,-112.08C213.5,-105.01 213.5,-94.86 213.5,-85.99"/>
<polygon fill="midnightblue" stroke="midnightblue" points="217,-85.75 213.5,-75.75 210,-85.75 217,-85.75"/>
</g>
<!-- Node6 -->
<g id="node6" class="node">
<title>Node6</title>
<g id="a_node6"><a xlink:title=" ">
<polygon fill="none" stroke="#bfbfbf" points="255.5,-56.5 255.5,-75.5 341.5,-75.5 341.5,-56.5 255.5,-56.5"/>
<text text-anchor="middle" x="298.5" y="-63.5" font-family="FreeSans.ttf" font-size="10.00">unordered_set</text>
</a>
</g>
</g>
<!-- Node1&#45;&gt;Node6 -->
<g id="edge6" class="edge">
<title>Node1&#45;&gt;Node6</title>
<path fill="none" stroke="midnightblue" d="M227.16,-112.32C240.42,-103.9 260.77,-90.97 276.35,-81.07"/>
<polygon fill="midnightblue" stroke="midnightblue" points="278.31,-83.97 284.88,-75.65 274.56,-78.06 278.31,-83.97"/>
</g>
<!-- Node7 -->
<g id="node7" class="node">
<title>Node7</title>
<g id="a_node7"><a xlink:title=" ">
<polygon fill="none" stroke="#bfbfbf" points="359.5,-56.5 359.5,-75.5 403.5,-75.5 403.5,-56.5 359.5,-56.5"/>
<text text-anchor="middle" x="381.5" y="-63.5" font-family="FreeSans.ttf" font-size="10.00">string</text>
</a>
</g>
</g>
<!-- Node1&#45;&gt;Node7 -->
<g id="edge7" class="edge">
<title>Node1&#45;&gt;Node7</title>
<path fill="none" stroke="midnightblue" d="M240.12,-112.44C269.84,-102.89 317.92,-87.44 349.62,-77.25"/>
<polygon fill="midnightblue" stroke="midnightblue" points="350.85,-80.53 359.3,-74.14 348.71,-73.86 350.85,-80.53"/>
</g>
<!-- Node2&#45;&gt;Node3 -->
<g id="edge2" class="edge">
<title>Node2&#45;&gt;Node3</title>
<path fill="none" stroke="midnightblue" d="M98.68,-56.32C85.27,-47.9 64.68,-34.97 48.91,-25.07"/>
<polygon fill="midnightblue" stroke="midnightblue" points="50.61,-22.01 40.28,-19.65 46.89,-27.94 50.61,-22.01"/>
</g>
<!-- Node4 -->
<g id="node4" class="node">
<title>Node4</title>
<g id="a_node4"><a xlink:title=" ">
<polygon fill="none" stroke="#bfbfbf" points="72.5,-0.5 72.5,-19.5 152.5,-19.5 152.5,-0.5 72.5,-0.5"/>
<text text-anchor="middle" x="112.5" y="-7.5" font-family="FreeSans.ttf" font-size="10.00">CoreExport.h</text>
</a>
</g>
</g>
<!-- Node2&#45;&gt;Node4 -->
<g id="edge3" class="edge">
<title>Node2&#45;&gt;Node4</title>
<path fill="none" stroke="midnightblue" d="M112.5,-56.08C112.5,-49.01 112.5,-38.86 112.5,-29.99"/>
<polygon fill="midnightblue" stroke="midnightblue" points="116,-29.75 112.5,-19.75 109,-29.75 116,-29.75"/>
</g>
</g>
</svg>
