<?xml version="1.0" encoding="UTF-8" standalone="no"?>
<!DOCTYPE svg PUBLIC "-//W3C//DTD SVG 1.1//EN"
 "http://www.w3.org/Graphics/SVG/1.1/DTD/svg11.dtd">
<!-- Generated by graphviz version 2.43.0 (0)
 -->
<!-- Title: SparseMatrix.h Pages: 1 -->
<svg width="495pt" height="140pt"
 viewBox="0.00 0.00 495.00 140.00" xmlns="http://www.w3.org/2000/svg" xmlns:xlink="http://www.w3.org/1999/xlink">
<g id="graph0" class="graph" transform="scale(1 1) rotate(0) translate(4 136)">
<title>SparseMatrix.h</title>
<!-- Node1 -->
<g id="node1" class="node">
<title>Node1</title>
<g id="a_node1"><a xlink:title=" ">
<polygon fill="#bfbfbf" stroke="black" points="185.5,-112.5 185.5,-131.5 275.5,-131.5 275.5,-112.5 185.5,-112.5"/>
<text text-anchor="middle" x="230.5" y="-119.5" font-family="FreeSans.ttf" font-size="10.00">SparseMatrix.h</text>
</a>
</g>
</g>
<!-- Node2 -->
<g id="node2" class="node">
<title>Node2</title>
<g id="a_node2"><a xlink:href="EigenSparseHelpers_8h.html" target="_top" xlink:title=" ">
<polygon fill="none" stroke="black" points="0,-56.5 0,-75.5 123,-75.5 123,-56.5 0,-56.5"/>
<text text-anchor="middle" x="61.5" y="-63.5" font-family="FreeSans.ttf" font-size="10.00">EigenSparseHelpers.h</text>
</a>
</g>
</g>
<!-- Node1&#45;&gt;Node2 -->
<g id="edge1" class="edge">
<title>Node1&#45;&gt;Node2</title>
<path fill="none" stroke="midnightblue" d="M193.9,-109.3C162.05,-99.13 116.66,-84.62 88.15,-75.52"/>
<polygon fill="midnightblue" stroke="midnightblue" points="193.13,-112.73 203.72,-112.44 195.26,-106.07 193.13,-112.73"/>
</g>
<!-- Node3 -->
<g id="node3" class="node">
<title>Node3</title>
<g id="a_node3"><a xlink:href="BerdySparseMAPSolver_8cpp.html" target="_top" xlink:title=" ">
<polygon fill="none" stroke="black" points="31.5,-0.5 31.5,-19.5 181.5,-19.5 181.5,-0.5 31.5,-0.5"/>
<text text-anchor="middle" x="106.5" y="-7.5" font-family="FreeSans.ttf" font-size="10.00">BerdySparseMAPSolver.cpp</text>
</a>
</g>
</g>
<!-- Node1&#45;&gt;Node3 -->
<g id="edge6" class="edge">
<title>Node1&#45;&gt;Node3</title>
<path fill="none" stroke="midnightblue" d="M210.17,-106.54C198.55,-98.02 183.86,-86.81 171.5,-76 149.87,-57.09 126.53,-32.64 114.57,-19.79"/>
<polygon fill="midnightblue" stroke="midnightblue" points="208.23,-109.45 218.38,-112.49 212.33,-103.78 208.23,-109.45"/>
</g>
<!-- Node4 -->
<g id="node4" class="node">
<title>Node4</title>
<g id="a_node4"><a xlink:href="SparseMatrix_8cpp.html" target="_top" xlink:title=" ">
<polygon fill="none" stroke="black" points="180,-56.5 180,-75.5 281,-75.5 281,-56.5 180,-56.5"/>
<text text-anchor="middle" x="230.5" y="-63.5" font-family="FreeSans.ttf" font-size="10.00">SparseMatrix.cpp</text>
</a>
</g>
</g>
<!-- Node1&#45;&gt;Node4 -->
<g id="edge3" class="edge">
<title>Node1&#45;&gt;Node4</title>
<path fill="none" stroke="midnightblue" d="M230.5,-101.8C230.5,-92.91 230.5,-82.78 230.5,-75.75"/>
<polygon fill="midnightblue" stroke="midnightblue" points="227,-102.08 230.5,-112.08 234,-102.08 227,-102.08"/>
</g>
<!-- Node5 -->
<g id="node5" class="node">
<title>Node5</title>
<g id="a_node5"><a xlink:href="Triplets_8cpp.html" target="_top" xlink:title=" ">
<polygon fill="none" stroke="black" points="299.5,-56.5 299.5,-75.5 371.5,-75.5 371.5,-56.5 299.5,-56.5"/>
<text text-anchor="middle" x="335.5" y="-63.5" font-family="FreeSans.ttf" font-size="10.00">Triplets.cpp</text>
</a>
</g>
</g>
<!-- Node1&#45;&gt;Node5 -->
<g id="edge4" class="edge">
<title>Node1&#45;&gt;Node5</title>
<path fill="none" stroke="midnightblue" d="M256.31,-107.73C275.75,-97.73 301.85,-84.31 318.67,-75.65"/>
<polygon fill="midnightblue" stroke="midnightblue" points="254.66,-104.64 247.37,-112.32 257.86,-110.86 254.66,-104.64"/>
</g>
<!-- Node6 -->
<g id="node6" class="node">
<title>Node6</title>
<g id="a_node6"><a xlink:href="BerdyHelper_8cpp.html" target="_top" xlink:title=" ">
<polygon fill="none" stroke="black" points="390,-56.5 390,-75.5 487,-75.5 487,-56.5 390,-56.5"/>
<text text-anchor="middle" x="438.5" y="-63.5" font-family="FreeSans.ttf" font-size="10.00">BerdyHelper.cpp</text>
</a>
</g>
</g>
<!-- Node1&#45;&gt;Node6 -->
<g id="edge5" class="edge">
<title>Node1&#45;&gt;Node6</title>
<path fill="none" stroke="midnightblue" d="M273.28,-109.89C312.56,-99.7 369.93,-84.8 405.7,-75.52"/>
<polygon fill="midnightblue" stroke="midnightblue" points="272.26,-106.54 263.46,-112.44 274.02,-113.32 272.26,-106.54"/>
</g>
<!-- Node2&#45;&gt;Node3 -->
<g id="edge2" class="edge">
<title>Node2&#45;&gt;Node3</title>
<path fill="none" stroke="midnightblue" d="M75.55,-48.14C83.39,-38.74 92.83,-27.4 99.21,-19.75"/>
<polygon fill="midnightblue" stroke="midnightblue" points="72.64,-46.16 68.93,-56.08 78.02,-50.64 72.64,-46.16"/>
</g>
</g>
</svg>
