<?xml version="1.0" encoding="UTF-8" standalone="no"?>
<!DOCTYPE svg PUBLIC "-//W3C//DTD SVG 1.1//EN"
 "http://www.w3.org/Graphics/SVG/1.1/DTD/svg11.dtd">
<!-- Generated by graphviz version 2.43.0 (0)
 -->
<!-- Title: SpatialInertia.cpp Pages: 1 -->
<svg width="1460pt" height="677pt"
 viewBox="0.00 0.00 1460.12 677.00" xmlns="http://www.w3.org/2000/svg" xmlns:xlink="http://www.w3.org/1999/xlink">
<g id="graph0" class="graph" transform="scale(1 1) rotate(0) translate(4 673)">
<title>SpatialInertia.cpp</title>
<!-- Node1 -->
<g id="node1" class="node">
<title>Node1</title>
<g id="a_node1"><a xlink:title=" ">
<polygon fill="#bfbfbf" stroke="black" points="656,-649.5 656,-668.5 758,-668.5 758,-649.5 656,-649.5"/>
<text text-anchor="middle" x="707" y="-656.5" font-family="FreeSans.ttf" font-size="10.00">SpatialInertia.cpp</text>
</a>
</g>
</g>
<!-- Node2 -->
<g id="node2" class="node">
<title>Node2</title>
<g id="a_node2"><a xlink:href="Position_8h.html" target="_top" xlink:title=" ">
<polygon fill="none" stroke="black" points="928,-342 928,-361 1064,-361 1064,-342 928,-342"/>
<text text-anchor="middle" x="996" y="-349" font-family="FreeSans.ttf" font-size="10.00">iDynTree/Core/Position.h</text>
</a>
</g>
</g>
<!-- Node1&#45;&gt;Node2 -->
<g id="edge1" class="edge">
<title>Node1&#45;&gt;Node2</title>
<path fill="none" stroke="midnightblue" d="M758.31,-658.15C895.95,-657.2 1263,-645.03 1263,-542.5 1263,-542.5 1263,-542.5 1263,-473.5 1263,-389.97 1153.25,-363.81 1074.48,-355.79"/>
<polygon fill="midnightblue" stroke="midnightblue" points="1074.35,-352.27 1064.07,-354.82 1073.7,-359.23 1074.35,-352.27"/>
</g>
<!-- Node9 -->
<g id="node9" class="node">
<title>Node9</title>
<g id="a_node9"><a xlink:title=" ">
<polygon fill="none" stroke="#bfbfbf" points="660,-0.5 660,-19.5 712,-19.5 712,-0.5 660,-0.5"/>
<text text-anchor="middle" x="686" y="-7.5" font-family="FreeSans.ttf" font-size="10.00">cassert</text>
</a>
</g>
</g>
<!-- Node1&#45;&gt;Node9 -->
<g id="edge92" class="edge">
<title>Node1&#45;&gt;Node9</title>
<path fill="none" stroke="midnightblue" d="M655.9,-656.28C536.52,-651.88 242.22,-638.71 147,-613 77.05,-594.11 0,-614.96 0,-542.5 0,-542.5 0,-542.5 0,-121 0,-112.69 508.85,-37.1 650.05,-16.28"/>
<polygon fill="midnightblue" stroke="midnightblue" points="650.56,-19.75 659.95,-14.83 649.54,-12.82 650.56,-19.75"/>
</g>
<!-- Node18 -->
<g id="node18" class="node">
<title>Node18</title>
<g id="a_node18"><a xlink:title=" ">
<polygon fill="none" stroke="#bfbfbf" points="203,-112.5 203,-131.5 259,-131.5 259,-112.5 203,-112.5"/>
<text text-anchor="middle" x="231" y="-119.5" font-family="FreeSans.ttf" font-size="10.00">sstream</text>
</a>
</g>
</g>
<!-- Node1&#45;&gt;Node18 -->
<g id="edge94" class="edge">
<title>Node1&#45;&gt;Node18</title>
<path fill="none" stroke="midnightblue" d="M655.89,-654.57C499.5,-643.41 38,-605.15 38,-542.5 38,-542.5 38,-542.5 38,-350.5 38,-247.86 153.65,-167.8 205.9,-136.87"/>
<polygon fill="midnightblue" stroke="midnightblue" points="207.98,-139.71 214.88,-131.67 204.47,-133.66 207.98,-139.71"/>
</g>
<!-- Node25 -->
<g id="node25" class="node">
<title>Node25</title>
<g id="a_node25"><a xlink:title=" ">
<polygon fill="none" stroke="#bfbfbf" points="729,-112.5 729,-131.5 789,-131.5 789,-112.5 729,-112.5"/>
<text text-anchor="middle" x="759" y="-119.5" font-family="FreeSans.ttf" font-size="10.00">iostream</text>
</a>
</g>
</g>
<!-- Node1&#45;&gt;Node25 -->
<g id="edge93" class="edge">
<title>Node1&#45;&gt;Node25</title>
<path fill="none" stroke="midnightblue" d="M758.16,-658.84C902.24,-659.85 1301,-652.68 1301,-542.5 1301,-542.5 1301,-542.5 1301,-473.5 1301,-410.49 1201.34,-298.13 1083,-224 1034.78,-193.79 874.86,-151.67 799.26,-132.81"/>
<polygon fill="midnightblue" stroke="midnightblue" points="799.72,-129.32 789.17,-130.3 798.04,-136.11 799.72,-129.32"/>
</g>
<!-- Node26 -->
<g id="node26" class="node">
<title>Node26</title>
<g id="a_node26"><a xlink:href="SpatialInertia_8h.html" target="_top" xlink:title=" ">
<polygon fill="none" stroke="black" points="457,-593.5 457,-612.5 619,-612.5 619,-593.5 457,-593.5"/>
<text text-anchor="middle" x="538" y="-600.5" font-family="FreeSans.ttf" font-size="10.00">iDynTree/Core/SpatialInertia.h</text>
</a>
</g>
</g>
<!-- Node1&#45;&gt;Node26 -->
<g id="edge43" class="edge">
<title>Node1&#45;&gt;Node26</title>
<path fill="none" stroke="midnightblue" d="M680.22,-649.44C651.67,-640.32 606.27,-625.81 574.46,-615.65"/>
<polygon fill="midnightblue" stroke="midnightblue" points="575.24,-612.23 564.65,-612.52 573.11,-618.89 575.24,-612.23"/>
</g>
<!-- Node29 -->
<g id="node29" class="node">
<title>Node29</title>
<g id="a_node29"><a xlink:href="Twist_8h.html" target="_top" xlink:title=" ">
<polygon fill="none" stroke="black" points="799,-532 799,-551 921,-551 921,-532 799,-532"/>
<text text-anchor="middle" x="860" y="-539" font-family="FreeSans.ttf" font-size="10.00">iDynTree/Core/Twist.h</text>
</a>
</g>
</g>
<!-- Node1&#45;&gt;Node29 -->
<g id="edge69" class="edge">
<title>Node1&#45;&gt;Node29</title>
<path fill="none" stroke="midnightblue" d="M718.5,-649.32C744.42,-629.75 807.65,-582.02 840.09,-557.53"/>
<polygon fill="midnightblue" stroke="midnightblue" points="842.49,-560.1 848.37,-551.28 838.28,-554.51 842.49,-560.1"/>
</g>
<!-- Node32 -->
<g id="node32" class="node">
<title>Node32</title>
<g id="a_node32"><a xlink:href="SpatialMomentum_8h.html" target="_top" xlink:title=" ">
<polygon fill="none" stroke="black" points="256.5,-532 256.5,-551 443.5,-551 443.5,-532 256.5,-532"/>
<text text-anchor="middle" x="350" y="-539" font-family="FreeSans.ttf" font-size="10.00">iDynTree/Core/SpatialMomentum.h</text>
</a>
</g>
</g>
<!-- Node1&#45;&gt;Node32 -->
<g id="edge68" class="edge">
<title>Node1&#45;&gt;Node32</title>
<path fill="none" stroke="midnightblue" d="M655.95,-655.87C602.3,-652.12 516.37,-641.73 448,-613 416.16,-599.62 384.71,-574.26 366.34,-557.88"/>
<polygon fill="midnightblue" stroke="midnightblue" points="368.61,-555.22 358.86,-551.07 363.89,-560.39 368.61,-555.22"/>
</g>
<!-- Node34 -->
<g id="node34" class="node">
<title>Node34</title>
<g id="a_node34"><a xlink:href="SpatialAcc_8h.html" target="_top" xlink:title=" ">
<polygon fill="none" stroke="black" points="633,-532 633,-551 781,-551 781,-532 633,-532"/>
<text text-anchor="middle" x="707" y="-539" font-family="FreeSans.ttf" font-size="10.00">iDynTree/Core/SpatialAcc.h</text>
</a>
</g>
</g>
<!-- Node1&#45;&gt;Node34 -->
<g id="edge70" class="edge">
<title>Node1&#45;&gt;Node34</title>
<path fill="none" stroke="midnightblue" d="M707,-649.32C707,-630.76 707,-586.84 707,-561.47"/>
<polygon fill="midnightblue" stroke="midnightblue" points="710.5,-561.28 707,-551.28 703.5,-561.28 710.5,-561.28"/>
</g>
<!-- Node35 -->
<g id="node35" class="node">
<title>Node35</title>
<g id="a_node35"><a xlink:href="Wrench_8h.html" target="_top" xlink:title=" ">
<polygon fill="none" stroke="black" points="104,-532 104,-551 238,-551 238,-532 104,-532"/>
<text text-anchor="middle" x="171" y="-539" font-family="FreeSans.ttf" font-size="10.00">iDynTree/Core/Wrench.h</text>
</a>
</g>
</g>
<!-- Node1&#45;&gt;Node35 -->
<g id="edge71" class="edge">
<title>Node1&#45;&gt;Node35</title>
<path fill="none" stroke="midnightblue" d="M655.9,-652.41C596.41,-645.4 495.4,-631.97 410,-613 336.03,-596.57 251.4,-569.62 205.33,-554.24"/>
<polygon fill="midnightblue" stroke="midnightblue" points="206.42,-550.91 195.83,-551.05 204.19,-557.55 206.42,-550.91"/>
</g>
<!-- Node36 -->
<g id="node36" class="node">
<title>Node36</title>
<g id="a_node36"><a xlink:title=" ">
<polygon fill="none" stroke="#bfbfbf" points="1157.5,-465 1157.5,-484 1234.5,-484 1234.5,-465 1157.5,-465"/>
<text text-anchor="middle" x="1196" y="-472" font-family="FreeSans.ttf" font-size="10.00">Eigen/Dense</text>
</a>
</g>
</g>
<!-- Node1&#45;&gt;Node36 -->
<g id="edge72" class="edge">
<title>Node1&#45;&gt;Node36</title>
<path fill="none" stroke="midnightblue" d="M758.07,-653.58C837.65,-644.9 994.13,-620.61 1110,-557 1140.2,-540.42 1167.69,-510.65 1183.09,-492.05"/>
<polygon fill="midnightblue" stroke="midnightblue" points="1185.91,-494.13 1189.47,-484.15 1180.46,-489.73 1185.91,-494.13"/>
</g>
<!-- Node37 -->
<g id="node37" class="node">
<title>Node37</title>
<g id="a_node37"><a xlink:href="EigenHelpers_8h.html" target="_top" xlink:title=" ">
<polygon fill="none" stroke="black" points="939.5,-532 939.5,-551 1100.5,-551 1100.5,-532 939.5,-532"/>
<text text-anchor="middle" x="1020" y="-539" font-family="FreeSans.ttf" font-size="10.00">iDynTree/Core/EigenHelpers.h</text>
</a>
</g>
</g>
<!-- Node1&#45;&gt;Node37 -->
<g id="edge73" class="edge">
<title>Node1&#45;&gt;Node37</title>
<path fill="none" stroke="midnightblue" d="M730.27,-649.41C785.27,-629.12 923.45,-578.13 987.04,-554.66"/>
<polygon fill="midnightblue" stroke="midnightblue" points="988.41,-557.89 996.58,-551.14 985.98,-551.32 988.41,-557.89"/>
</g>
<!-- Node3 -->
<g id="node3" class="node">
<title>Node3</title>
<g id="a_node3"><a xlink:href="PositionRaw_8h.html" target="_top" xlink:title=" ">
<polygon fill="none" stroke="black" points="918,-224.5 918,-243.5 1074,-243.5 1074,-224.5 918,-224.5"/>
<text text-anchor="middle" x="996" y="-231.5" font-family="FreeSans.ttf" font-size="10.00">iDynTree/Core/PositionRaw.h</text>
</a>
</g>
</g>
<!-- Node2&#45;&gt;Node3 -->
<g id="edge2" class="edge">
<title>Node2&#45;&gt;Node3</title>
<path fill="none" stroke="midnightblue" d="M996,-341.82C996,-323.26 996,-279.34 996,-253.97"/>
<polygon fill="midnightblue" stroke="midnightblue" points="999.5,-253.78 996,-243.78 992.5,-253.78 999.5,-253.78"/>
</g>
<!-- Node17 -->
<g id="node17" class="node">
<title>Node17</title>
<g id="a_node17"><a xlink:title=" ">
<polygon fill="none" stroke="#bfbfbf" points="977,-112.5 977,-131.5 1021,-131.5 1021,-112.5 977,-112.5"/>
<text text-anchor="middle" x="999" y="-119.5" font-family="FreeSans.ttf" font-size="10.00">string</text>
</a>
</g>
</g>
<!-- Node2&#45;&gt;Node17 -->
<g id="edge42" class="edge">
<title>Node2&#45;&gt;Node17</title>
<path fill="none" stroke="midnightblue" d="M1006.71,-341.96C1026.37,-325.49 1067.61,-287.18 1083,-244 1085.99,-235.63 1087.67,-231.56 1083,-224 1064.19,-193.57 1032.5,-216.59 1011,-188 1001.08,-174.82 998.52,-155.94 998.18,-141.93"/>
<polygon fill="midnightblue" stroke="midnightblue" points="1001.68,-141.57 998.3,-131.53 994.68,-141.49 1001.68,-141.57"/>
</g>
<!-- Node20 -->
<g id="node20" class="node">
<title>Node20</title>
<g id="a_node20"><a xlink:href="Rotation_8h.html" target="_top" xlink:title=" ">
<polygon fill="none" stroke="black" points="716,-280.5 716,-299.5 854,-299.5 854,-280.5 716,-280.5"/>
<text text-anchor="middle" x="785" y="-287.5" font-family="FreeSans.ttf" font-size="10.00">iDynTree/Core/Rotation.h</text>
</a>
</g>
</g>
<!-- Node2&#45;&gt;Node20 -->
<g id="edge23" class="edge">
<title>Node2&#45;&gt;Node20</title>
<path fill="none" stroke="midnightblue" d="M965.77,-341.98C928.71,-331.53 865.81,-313.79 824.84,-302.23"/>
<polygon fill="midnightblue" stroke="midnightblue" points="825.75,-298.85 815.18,-299.51 823.85,-305.59 825.75,-298.85"/>
</g>
<!-- Node4 -->
<g id="node4" class="node">
<title>Node4</title>
<g id="a_node4"><a xlink:href="VectorFixSize_8h.html" target="_top" xlink:title=" ">
<polygon fill="none" stroke="black" points="367,-168.5 367,-187.5 529,-187.5 529,-168.5 367,-168.5"/>
<text text-anchor="middle" x="448" y="-175.5" font-family="FreeSans.ttf" font-size="10.00">iDynTree/Core/VectorFixSize.h</text>
</a>
</g>
</g>
<!-- Node3&#45;&gt;Node4 -->
<g id="edge3" class="edge">
<title>Node3&#45;&gt;Node4</title>
<path fill="none" stroke="midnightblue" d="M917.78,-225.29C817.79,-215.44 645.01,-198.41 539.17,-187.98"/>
<polygon fill="midnightblue" stroke="midnightblue" points="539.44,-184.49 529.14,-187 538.75,-191.46 539.44,-184.49"/>
</g>
<!-- Node3&#45;&gt;Node17 -->
<g id="edge22" class="edge">
<title>Node3&#45;&gt;Node17</title>
<path fill="none" stroke="midnightblue" d="M990.75,-224.24C983.95,-211.82 973.49,-188.35 978,-168 980.12,-158.43 984.51,-148.48 988.72,-140.37"/>
<polygon fill="midnightblue" stroke="midnightblue" points="991.82,-142 993.62,-131.56 985.7,-138.6 991.82,-142"/>
</g>
<!-- Node5 -->
<g id="node5" class="node">
<title>Node5</title>
<g id="a_node5"><a xlink:href="Utils_8h.html" target="_top" xlink:title=" ">
<polygon fill="none" stroke="black" points="512.5,-56.5 512.5,-75.5 631.5,-75.5 631.5,-56.5 512.5,-56.5"/>
<text text-anchor="middle" x="572" y="-63.5" font-family="FreeSans.ttf" font-size="10.00">iDynTree/Core/Utils.h</text>
</a>
</g>
</g>
<!-- Node4&#45;&gt;Node5 -->
<g id="edge4" class="edge">
<title>Node4&#45;&gt;Node5</title>
<path fill="none" stroke="midnightblue" d="M454.39,-168.37C464.33,-155.28 484.48,-130.04 505,-112 518.34,-100.27 534.89,-89.13 548.21,-80.86"/>
<polygon fill="midnightblue" stroke="midnightblue" points="550.1,-83.81 556.83,-75.63 546.47,-77.83 550.1,-83.81"/>
</g>
<!-- Node6 -->
<g id="node6" class="node">
<title>Node6</title>
<g id="a_node6"><a xlink:title=" ">
<polygon fill="none" stroke="#bfbfbf" points="730.5,-0.5 730.5,-19.5 783.5,-19.5 783.5,-0.5 730.5,-0.5"/>
<text text-anchor="middle" x="757" y="-7.5" font-family="FreeSans.ttf" font-size="10.00">cstddef</text>
</a>
</g>
</g>
<!-- Node4&#45;&gt;Node6 -->
<g id="edge20" class="edge">
<title>Node4&#45;&gt;Node6</title>
<path fill="none" stroke="midnightblue" d="M449.16,-168.26C452.65,-145.65 465.27,-84.92 503,-56 578.43,1.81 621.98,-37.22 720.31,-19.85"/>
<polygon fill="midnightblue" stroke="midnightblue" points="721.16,-23.26 730.32,-17.93 719.84,-16.38 721.16,-23.26"/>
</g>
<!-- Node8 -->
<g id="node8" class="node">
<title>Node8</title>
<g id="a_node8"><a xlink:href="Span_8h.html" target="_top" xlink:title=" ">
<polygon fill="none" stroke="black" points="973.5,-56.5 973.5,-75.5 1094.5,-75.5 1094.5,-56.5 973.5,-56.5"/>
<text text-anchor="middle" x="1034" y="-63.5" font-family="FreeSans.ttf" font-size="10.00">iDynTree/Core/Span.h</text>
</a>
</g>
</g>
<!-- Node4&#45;&gt;Node8 -->
<g id="edge7" class="edge">
<title>Node4&#45;&gt;Node8</title>
<path fill="none" stroke="midnightblue" d="M460.77,-168.46C483.07,-154.03 531.02,-125.12 576,-112 646.75,-91.36 853.39,-77.1 963.32,-70.74"/>
<polygon fill="midnightblue" stroke="midnightblue" points="963.54,-74.23 973.32,-70.17 963.14,-67.24 963.54,-74.23"/>
</g>
<!-- Node4&#45;&gt;Node9 -->
<g id="edge19" class="edge">
<title>Node4&#45;&gt;Node9</title>
<path fill="none" stroke="midnightblue" d="M442.7,-168.48C430.01,-146.89 400.96,-89.38 429,-56 436.08,-47.57 580.78,-25.97 649.87,-16.08"/>
<polygon fill="midnightblue" stroke="midnightblue" points="650.48,-19.53 659.89,-14.65 649.49,-12.6 650.48,-19.53"/>
</g>
<!-- Node4&#45;&gt;Node17 -->
<g id="edge17" class="edge">
<title>Node4&#45;&gt;Node17</title>
<path fill="none" stroke="midnightblue" d="M529.07,-171.94C649.21,-164.11 869.89,-148.43 966.7,-131.84"/>
<polygon fill="midnightblue" stroke="midnightblue" points="967.55,-135.24 976.77,-130.02 966.31,-128.35 967.55,-135.24"/>
</g>
<!-- Node4&#45;&gt;Node18 -->
<g id="edge18" class="edge">
<title>Node4&#45;&gt;Node18</title>
<path fill="none" stroke="midnightblue" d="M413.62,-168.44C374.17,-158.63 309.7,-142.59 268.86,-132.42"/>
<polygon fill="midnightblue" stroke="midnightblue" points="269.56,-128.99 259.01,-129.97 267.87,-135.78 269.56,-128.99"/>
</g>
<!-- Node19 -->
<g id="node19" class="node">
<title>Node19</title>
<g id="a_node19"><a xlink:title=" ">
<polygon fill="none" stroke="#bfbfbf" points="585,-112.5 585,-131.5 635,-131.5 635,-112.5 585,-112.5"/>
<text text-anchor="middle" x="610" y="-119.5" font-family="FreeSans.ttf" font-size="10.00">cstring</text>
</a>
</g>
</g>
<!-- Node4&#45;&gt;Node19 -->
<g id="edge21" class="edge">
<title>Node4&#45;&gt;Node19</title>
<path fill="none" stroke="midnightblue" d="M473.67,-168.44C501.08,-159.31 544.69,-144.77 575.19,-134.6"/>
<polygon fill="midnightblue" stroke="midnightblue" points="576.6,-137.82 584.98,-131.34 574.39,-131.18 576.6,-137.82"/>
</g>
<!-- Node5&#45;&gt;Node6 -->
<g id="edge5" class="edge">
<title>Node5&#45;&gt;Node6</title>
<path fill="none" stroke="midnightblue" d="M601.31,-56.44C633.58,-47.02 685.51,-31.87 720.42,-21.68"/>
<polygon fill="midnightblue" stroke="midnightblue" points="721.61,-24.98 730.23,-18.82 719.65,-18.26 721.61,-24.98"/>
</g>
<!-- Node7 -->
<g id="node7" class="node">
<title>Node7</title>
<g id="a_node7"><a xlink:title=" ">
<polygon fill="none" stroke="#bfbfbf" points="532,-0.5 532,-19.5 612,-19.5 612,-0.5 532,-0.5"/>
<text text-anchor="middle" x="572" y="-7.5" font-family="FreeSans.ttf" font-size="10.00">CoreExport.h</text>
</a>
</g>
</g>
<!-- Node5&#45;&gt;Node7 -->
<g id="edge6" class="edge">
<title>Node5&#45;&gt;Node7</title>
<path fill="none" stroke="midnightblue" d="M572,-56.08C572,-49.01 572,-38.86 572,-29.99"/>
<polygon fill="midnightblue" stroke="midnightblue" points="575.5,-29.75 572,-19.75 568.5,-29.75 575.5,-29.75"/>
</g>
<!-- Node8&#45;&gt;Node6 -->
<g id="edge11" class="edge">
<title>Node8&#45;&gt;Node6</title>
<path fill="none" stroke="midnightblue" d="M982.34,-56.44C935.41,-48.43 864.06,-35.66 793.64,-20.26"/>
<polygon fill="midnightblue" stroke="midnightblue" points="794.23,-16.8 783.71,-18.07 792.72,-23.64 794.23,-16.8"/>
</g>
<!-- Node8&#45;&gt;Node9 -->
<g id="edge8" class="edge">
<title>Node8&#45;&gt;Node9</title>
<path fill="none" stroke="midnightblue" d="M973.37,-58.27C912.24,-51.03 815,-38.31 722.14,-20.05"/>
<polygon fill="midnightblue" stroke="midnightblue" points="722.79,-16.61 712.3,-18.09 721.43,-23.48 722.79,-16.61"/>
</g>
<!-- Node10 -->
<g id="node10" class="node">
<title>Node10</title>
<g id="a_node10"><a xlink:title=" ">
<polygon fill="none" stroke="#bfbfbf" points="865,-0.5 865,-19.5 929,-19.5 929,-0.5 865,-0.5"/>
<text text-anchor="middle" x="897" y="-7.5" font-family="FreeSans.ttf" font-size="10.00">algorithm</text>
</a>
</g>
</g>
<!-- Node8&#45;&gt;Node10 -->
<g id="edge9" class="edge">
<title>Node8&#45;&gt;Node10</title>
<path fill="none" stroke="midnightblue" d="M1012.29,-56.44C989.65,-47.52 953.93,-33.44 928.25,-23.32"/>
<polygon fill="midnightblue" stroke="midnightblue" points="929.19,-19.93 918.61,-19.52 926.63,-26.44 929.19,-19.93"/>
</g>
<!-- Node11 -->
<g id="node11" class="node">
<title>Node11</title>
<g id="a_node11"><a xlink:title=" ">
<polygon fill="none" stroke="#bfbfbf" points="947,-0.5 947,-19.5 989,-19.5 989,-0.5 947,-0.5"/>
<text text-anchor="middle" x="968" y="-7.5" font-family="FreeSans.ttf" font-size="10.00">array</text>
</a>
</g>
</g>
<!-- Node8&#45;&gt;Node11 -->
<g id="edge10" class="edge">
<title>Node8&#45;&gt;Node11</title>
<path fill="none" stroke="midnightblue" d="M1023.4,-56.32C1013.54,-48.26 998.65,-36.08 986.78,-26.37"/>
<polygon fill="midnightblue" stroke="midnightblue" points="988.75,-23.46 978.8,-19.83 984.32,-28.88 988.75,-23.46"/>
</g>
<!-- Node12 -->
<g id="node12" class="node">
<title>Node12</title>
<g id="a_node12"><a xlink:title=" ">
<polygon fill="none" stroke="#bfbfbf" points="1007.5,-0.5 1007.5,-19.5 1060.5,-19.5 1060.5,-0.5 1007.5,-0.5"/>
<text text-anchor="middle" x="1034" y="-7.5" font-family="FreeSans.ttf" font-size="10.00">iterator</text>
</a>
</g>
</g>
<!-- Node8&#45;&gt;Node12 -->
<g id="edge12" class="edge">
<title>Node8&#45;&gt;Node12</title>
<path fill="none" stroke="midnightblue" d="M1034,-56.08C1034,-49.01 1034,-38.86 1034,-29.99"/>
<polygon fill="midnightblue" stroke="midnightblue" points="1037.5,-29.75 1034,-19.75 1030.5,-29.75 1037.5,-29.75"/>
</g>
<!-- Node13 -->
<g id="node13" class="node">
<title>Node13</title>
<g id="a_node13"><a xlink:title=" ">
<polygon fill="none" stroke="#bfbfbf" points="1079,-0.5 1079,-19.5 1123,-19.5 1123,-0.5 1079,-0.5"/>
<text text-anchor="middle" x="1101" y="-7.5" font-family="FreeSans.ttf" font-size="10.00">limits</text>
</a>
</g>
</g>
<!-- Node8&#45;&gt;Node13 -->
<g id="edge13" class="edge">
<title>Node8&#45;&gt;Node13</title>
<path fill="none" stroke="midnightblue" d="M1044.76,-56.32C1054.77,-48.26 1069.89,-36.08 1081.93,-26.37"/>
<polygon fill="midnightblue" stroke="midnightblue" points="1084.45,-28.83 1090.04,-19.83 1080.06,-23.38 1084.45,-28.83"/>
</g>
<!-- Node14 -->
<g id="node14" class="node">
<title>Node14</title>
<g id="a_node14"><a xlink:title=" ">
<polygon fill="none" stroke="#bfbfbf" points="1141.5,-0.5 1141.5,-19.5 1206.5,-19.5 1206.5,-0.5 1141.5,-0.5"/>
<text text-anchor="middle" x="1174" y="-7.5" font-family="FreeSans.ttf" font-size="10.00">stdexcept</text>
</a>
</g>
</g>
<!-- Node8&#45;&gt;Node14 -->
<g id="edge14" class="edge">
<title>Node8&#45;&gt;Node14</title>
<path fill="none" stroke="midnightblue" d="M1056.18,-56.44C1079.43,-47.48 1116.15,-33.31 1142.42,-23.18"/>
<polygon fill="midnightblue" stroke="midnightblue" points="1143.85,-26.38 1151.92,-19.52 1141.33,-19.85 1143.85,-26.38"/>
</g>
<!-- Node15 -->
<g id="node15" class="node">
<title>Node15</title>
<g id="a_node15"><a xlink:title=" ">
<polygon fill="none" stroke="#bfbfbf" points="1224.5,-0.5 1224.5,-19.5 1293.5,-19.5 1293.5,-0.5 1224.5,-0.5"/>
<text text-anchor="middle" x="1259" y="-7.5" font-family="FreeSans.ttf" font-size="10.00">type_traits</text>
</a>
</g>
</g>
<!-- Node8&#45;&gt;Node15 -->
<g id="edge15" class="edge">
<title>Node8&#45;&gt;Node15</title>
<path fill="none" stroke="midnightblue" d="M1069.65,-56.44C1108.89,-47.03 1172,-31.88 1214.46,-21.69"/>
<polygon fill="midnightblue" stroke="midnightblue" points="1215.35,-25.08 1224.25,-19.34 1213.71,-18.27 1215.35,-25.08"/>
</g>
<!-- Node16 -->
<g id="node16" class="node">
<title>Node16</title>
<g id="a_node16"><a xlink:title=" ">
<polygon fill="none" stroke="#bfbfbf" points="801.5,-0.5 801.5,-19.5 846.5,-19.5 846.5,-0.5 801.5,-0.5"/>
<text text-anchor="middle" x="824" y="-7.5" font-family="FreeSans.ttf" font-size="10.00">utility</text>
</a>
</g>
</g>
<!-- Node8&#45;&gt;Node16 -->
<g id="edge16" class="edge">
<title>Node8&#45;&gt;Node16</title>
<path fill="none" stroke="midnightblue" d="M999.14,-56.48C965.24,-48.12 912.04,-34.85 856.69,-20.13"/>
<polygon fill="midnightblue" stroke="midnightblue" points="857.27,-16.66 846.71,-17.47 855.46,-23.43 857.27,-16.66"/>
</g>
<!-- Node20&#45;&gt;Node4 -->
<g id="edge41" class="edge">
<title>Node20&#45;&gt;Node4</title>
<path fill="none" stroke="midnightblue" d="M758.84,-280.46C699.12,-260.97 552.65,-213.16 484.27,-190.84"/>
<polygon fill="midnightblue" stroke="midnightblue" points="484.97,-187.39 474.38,-187.61 482.8,-194.04 484.97,-187.39"/>
</g>
<!-- Node20&#45;&gt;Node17 -->
<g id="edge24" class="edge">
<title>Node20&#45;&gt;Node17</title>
<path fill="none" stroke="midnightblue" d="M805.02,-280.44C823.04,-272.29 849.87,-259.07 871,-244 916.4,-211.61 962.08,-163.96 984.6,-139.23"/>
<polygon fill="midnightblue" stroke="midnightblue" points="987.22,-141.55 991.31,-131.78 982.02,-136.86 987.22,-141.55"/>
</g>
<!-- Node21 -->
<g id="node21" class="node">
<title>Node21</title>
<g id="a_node21"><a xlink:href="GeomVector3_8h.html" target="_top" xlink:title=" ">
<polygon fill="none" stroke="black" points="256.5,-224.5 256.5,-243.5 419.5,-243.5 419.5,-224.5 256.5,-224.5"/>
<text text-anchor="middle" x="338" y="-231.5" font-family="FreeSans.ttf" font-size="10.00">iDynTree/Core/GeomVector3.h</text>
</a>
</g>
</g>
<!-- Node20&#45;&gt;Node21 -->
<g id="edge25" class="edge">
<title>Node20&#45;&gt;Node21</title>
<path fill="none" stroke="midnightblue" d="M715.65,-280.62C635.41,-270.93 503.5,-254.99 418.72,-244.75"/>
<polygon fill="midnightblue" stroke="midnightblue" points="418.97,-241.26 408.62,-243.53 418.13,-248.21 418.97,-241.26"/>
</g>
<!-- Node22 -->
<g id="node22" class="node">
<title>Node22</title>
<g id="a_node22"><a xlink:href="RotationRaw_8h.html" target="_top" xlink:title=" ">
<polygon fill="none" stroke="black" points="704,-224.5 704,-243.5 862,-243.5 862,-224.5 704,-224.5"/>
<text text-anchor="middle" x="783" y="-231.5" font-family="FreeSans.ttf" font-size="10.00">iDynTree/Core/RotationRaw.h</text>
</a>
</g>
</g>
<!-- Node20&#45;&gt;Node22 -->
<g id="edge27" class="edge">
<title>Node20&#45;&gt;Node22</title>
<path fill="none" stroke="midnightblue" d="M784.67,-280.08C784.41,-273.01 784.03,-262.86 783.7,-253.99"/>
<polygon fill="midnightblue" stroke="midnightblue" points="787.19,-253.61 783.32,-243.75 780.2,-253.87 787.19,-253.61"/>
</g>
<!-- Node21&#45;&gt;Node4 -->
<g id="edge26" class="edge">
<title>Node21&#45;&gt;Node4</title>
<path fill="none" stroke="midnightblue" d="M355.67,-224.32C373.39,-215.62 400.9,-202.12 421.29,-192.11"/>
<polygon fill="midnightblue" stroke="midnightblue" points="422.94,-195.2 430.37,-187.65 419.85,-188.92 422.94,-195.2"/>
</g>
<!-- Node22&#45;&gt;Node17 -->
<g id="edge40" class="edge">
<title>Node22&#45;&gt;Node17</title>
<path fill="none" stroke="midnightblue" d="M791.7,-224.23C805.77,-210.51 834.87,-183.88 864,-168 873.25,-162.96 930.04,-144.68 966.96,-133.02"/>
<polygon fill="midnightblue" stroke="midnightblue" points="968.3,-136.27 976.79,-129.93 966.2,-129.59 968.3,-136.27"/>
</g>
<!-- Node23 -->
<g id="node23" class="node">
<title>Node23</title>
<g id="a_node23"><a xlink:href="MatrixFixSize_8h.html" target="_top" xlink:title=" ">
<polygon fill="none" stroke="black" points="623.5,-168.5 623.5,-187.5 786.5,-187.5 786.5,-168.5 623.5,-168.5"/>
<text text-anchor="middle" x="705" y="-175.5" font-family="FreeSans.ttf" font-size="10.00">iDynTree/Core/MatrixFixSize.h</text>
</a>
</g>
</g>
<!-- Node22&#45;&gt;Node23 -->
<g id="edge28" class="edge">
<title>Node22&#45;&gt;Node23</title>
<path fill="none" stroke="midnightblue" d="M770.47,-224.32C758.41,-215.98 739.97,-203.21 725.73,-193.35"/>
<polygon fill="midnightblue" stroke="midnightblue" points="727.72,-190.47 717.5,-187.65 723.73,-196.22 727.72,-190.47"/>
</g>
<!-- Node23&#45;&gt;Node5 -->
<g id="edge29" class="edge">
<title>Node23&#45;&gt;Node5</title>
<path fill="none" stroke="midnightblue" d="M698.11,-168.33C687.41,-155.19 665.76,-129.88 644,-112 629.43,-100.02 611.43,-88.78 597.08,-80.52"/>
<polygon fill="midnightblue" stroke="midnightblue" points="598.67,-77.4 588.24,-75.55 595.24,-83.51 598.67,-77.4"/>
</g>
<!-- Node23&#45;&gt;Node9 -->
<g id="edge35" class="edge">
<title>Node23&#45;&gt;Node9</title>
<path fill="none" stroke="midnightblue" d="M703.98,-168.08C700.99,-141.95 692.2,-65.21 688.13,-29.58"/>
<polygon fill="midnightblue" stroke="midnightblue" points="691.6,-29.11 686.98,-19.57 684.64,-29.9 691.6,-29.11"/>
</g>
<!-- Node23&#45;&gt;Node17 -->
<g id="edge37" class="edge">
<title>Node23&#45;&gt;Node17</title>
<path fill="none" stroke="midnightblue" d="M766.5,-168.49C817.75,-160.94 892.82,-148.82 966.78,-132.08"/>
<polygon fill="midnightblue" stroke="midnightblue" points="967.76,-135.44 976.73,-129.79 966.2,-128.62 967.76,-135.44"/>
</g>
<!-- Node23&#45;&gt;Node18 -->
<g id="edge39" class="edge">
<title>Node23&#45;&gt;Node18</title>
<path fill="none" stroke="midnightblue" d="M630.15,-168.47C527.87,-156.82 348.19,-136.35 269.61,-127.4"/>
<polygon fill="midnightblue" stroke="midnightblue" points="269.55,-123.87 259.21,-126.21 268.75,-130.82 269.55,-123.87"/>
</g>
<!-- Node23&#45;&gt;Node19 -->
<g id="edge36" class="edge">
<title>Node23&#45;&gt;Node19</title>
<path fill="none" stroke="midnightblue" d="M689.74,-168.32C674.78,-159.82 651.75,-146.73 634.27,-136.8"/>
<polygon fill="midnightblue" stroke="midnightblue" points="635.65,-133.55 625.23,-131.65 632.19,-139.64 635.65,-133.55"/>
</g>
<!-- Node24 -->
<g id="node24" class="node">
<title>Node24</title>
<g id="a_node24"><a xlink:href="MatrixView_8h.html" target="_top" xlink:title=" ">
<polygon fill="none" stroke="black" points="807,-112.5 807,-131.5 959,-131.5 959,-112.5 807,-112.5"/>
<text text-anchor="middle" x="883" y="-119.5" font-family="FreeSans.ttf" font-size="10.00">iDynTree/Core/MatrixView.h</text>
</a>
</g>
</g>
<!-- Node23&#45;&gt;Node24 -->
<g id="edge30" class="edge">
<title>Node23&#45;&gt;Node24</title>
<path fill="none" stroke="midnightblue" d="M733.2,-168.44C763.41,-159.28 811.51,-144.69 845.03,-134.52"/>
<polygon fill="midnightblue" stroke="midnightblue" points="846.37,-137.77 854.93,-131.52 844.34,-131.07 846.37,-137.77"/>
</g>
<!-- Node23&#45;&gt;Node25 -->
<g id="edge38" class="edge">
<title>Node23&#45;&gt;Node25</title>
<path fill="none" stroke="midnightblue" d="M713.92,-168.08C721.78,-160.22 733.43,-148.57 742.92,-139.08"/>
<polygon fill="midnightblue" stroke="midnightblue" points="745.65,-141.3 750.25,-131.75 740.7,-136.35 745.65,-141.3"/>
</g>
<!-- Node24&#45;&gt;Node5 -->
<g id="edge34" class="edge">
<title>Node24&#45;&gt;Node5</title>
<path fill="none" stroke="midnightblue" d="M833.72,-112.44C778.67,-102.89 689.6,-87.42 630.92,-77.23"/>
<polygon fill="midnightblue" stroke="midnightblue" points="631.5,-73.78 621.05,-75.52 630.3,-80.68 631.5,-73.78"/>
</g>
<!-- Node24&#45;&gt;Node8 -->
<g id="edge33" class="edge">
<title>Node24&#45;&gt;Node8</title>
<path fill="none" stroke="midnightblue" d="M906.93,-112.44C932.22,-103.4 972.3,-89.06 1000.68,-78.92"/>
<polygon fill="midnightblue" stroke="midnightblue" points="1001.95,-82.18 1010.19,-75.52 999.59,-75.59 1001.95,-82.18"/>
</g>
<!-- Node24&#45;&gt;Node9 -->
<g id="edge31" class="edge">
<title>Node24&#45;&gt;Node9</title>
<path fill="none" stroke="midnightblue" d="M867.54,-112.37C833.38,-93.29 751.23,-47.42 710.19,-24.51"/>
<polygon fill="midnightblue" stroke="midnightblue" points="711.82,-21.41 701.39,-19.59 708.41,-27.52 711.82,-21.41"/>
</g>
<!-- Node24&#45;&gt;Node15 -->
<g id="edge32" class="edge">
<title>Node24&#45;&gt;Node15</title>
<path fill="none" stroke="midnightblue" d="M940.55,-112.46C985.61,-105.02 1049.56,-92.78 1104,-76 1150.55,-61.65 1202.3,-38.38 1232.67,-23.92"/>
<polygon fill="midnightblue" stroke="midnightblue" points="1234.25,-27.04 1241.75,-19.56 1231.22,-20.73 1234.25,-27.04"/>
</g>
<!-- Node26&#45;&gt;Node4 -->
<g id="edge47" class="edge">
<title>Node26&#45;&gt;Node4</title>
<path fill="none" stroke="midnightblue" d="M456.96,-598.81C336.52,-593.32 121.55,-580.36 95,-557 67.07,-532.43 76,-512.69 76,-475.5 76,-475.5 76,-475.5 76,-412 76,-313.11 112.9,-279.12 195,-224 221.14,-206.45 295.36,-194.57 356.7,-187.45"/>
<polygon fill="midnightblue" stroke="midnightblue" points="357.27,-190.91 366.81,-186.3 356.48,-183.95 357.27,-190.91"/>
</g>
<!-- Node27 -->
<g id="node27" class="node">
<title>Node27</title>
<g id="a_node27"><a xlink:href="SpatialInertiaRaw_8h.html" target="_top" xlink:title=" ">
<polygon fill="none" stroke="black" points="461.5,-526.5 461.5,-556.5 614.5,-556.5 614.5,-526.5 461.5,-526.5"/>
<text text-anchor="start" x="469.5" y="-544.5" font-family="FreeSans.ttf" font-size="10.00">iDynTree/Core/SpatialInertia</text>
<text text-anchor="middle" x="538" y="-533.5" font-family="FreeSans.ttf" font-size="10.00">Raw.h</text>
</a>
</g>
</g>
<!-- Node26&#45;&gt;Node27 -->
<g id="edge44" class="edge">
<title>Node26&#45;&gt;Node27</title>
<path fill="none" stroke="midnightblue" d="M538,-593.48C538,-586.47 538,-576.19 538,-566.7"/>
<polygon fill="midnightblue" stroke="midnightblue" points="541.5,-566.52 538,-556.52 534.5,-566.52 541.5,-566.52"/>
</g>
<!-- Node26&#45;&gt;Node29 -->
<g id="edge48" class="edge">
<title>Node26&#45;&gt;Node29</title>
<path fill="none" stroke="midnightblue" d="M588.28,-593.44C639.2,-584.68 720.18,-570.46 790,-557 796.32,-555.78 802.95,-554.46 809.5,-553.13"/>
<polygon fill="midnightblue" stroke="midnightblue" points="810.6,-556.48 819.69,-551.05 809.19,-549.62 810.6,-556.48"/>
</g>
<!-- Node26&#45;&gt;Node32 -->
<g id="edge59" class="edge">
<title>Node26&#45;&gt;Node32</title>
<path fill="none" stroke="midnightblue" d="M511.06,-593.48C478.4,-583.14 423.18,-565.66 386.66,-554.1"/>
<polygon fill="midnightblue" stroke="midnightblue" points="387.48,-550.69 376.89,-551.01 385.36,-557.36 387.48,-550.69"/>
</g>
<!-- Node26&#45;&gt;Node34 -->
<g id="edge64" class="edge">
<title>Node26&#45;&gt;Node34</title>
<path fill="none" stroke="midnightblue" d="M562.21,-593.48C591.33,-583.22 640.37,-565.96 673.2,-554.4"/>
<polygon fill="midnightblue" stroke="midnightblue" points="674.56,-557.63 682.83,-551.01 672.24,-551.03 674.56,-557.63"/>
</g>
<!-- Node26&#45;&gt;Node35 -->
<g id="edge66" class="edge">
<title>Node26&#45;&gt;Node35</title>
<path fill="none" stroke="midnightblue" d="M478.82,-593.47C419.95,-584.84 327.1,-570.83 247,-557 239.64,-555.73 231.89,-554.33 224.26,-552.91"/>
<polygon fill="midnightblue" stroke="midnightblue" points="224.83,-549.45 214.36,-551.04 223.54,-556.33 224.83,-549.45"/>
</g>
<!-- Node28 -->
<g id="node28" class="node">
<title>Node28</title>
<g id="a_node28"><a xlink:href="RotationalInertiaRaw_8h.html" target="_top" xlink:title=" ">
<polygon fill="none" stroke="black" points="370,-336.5 370,-366.5 508,-366.5 508,-336.5 370,-336.5"/>
<text text-anchor="start" x="378" y="-354.5" font-family="FreeSans.ttf" font-size="10.00">iDynTree/Core/Rotational</text>
<text text-anchor="middle" x="439" y="-343.5" font-family="FreeSans.ttf" font-size="10.00">InertiaRaw.h</text>
</a>
</g>
</g>
<!-- Node27&#45;&gt;Node28 -->
<g id="edge45" class="edge">
<title>Node27&#45;&gt;Node28</title>
<path fill="none" stroke="midnightblue" d="M468.02,-526.46C431.35,-517.53 391.84,-504.87 381,-490 372.89,-478.87 377.6,-472.35 381,-459 388.97,-427.72 408.19,-395.71 422.33,-375.06"/>
<polygon fill="midnightblue" stroke="midnightblue" points="425.34,-376.87 428.23,-366.68 419.61,-372.85 425.34,-376.87"/>
</g>
<!-- Node28&#45;&gt;Node23 -->
<g id="edge46" class="edge">
<title>Node28&#45;&gt;Node23</title>
<path fill="none" stroke="midnightblue" d="M458.32,-336.41C491.54,-312.38 561.94,-262.35 624,-224 642.3,-212.69 663.59,-200.92 679.75,-192.25"/>
<polygon fill="midnightblue" stroke="midnightblue" points="681.43,-195.32 688.61,-187.53 678.14,-189.14 681.43,-195.32"/>
</g>
<!-- Node30 -->
<g id="node30" class="node">
<title>Node30</title>
<g id="a_node30"><a xlink:href="SpatialMotionVector_8h.html" target="_top" xlink:title=" ">
<polygon fill="none" stroke="black" points="390.5,-459.5 390.5,-489.5 545.5,-489.5 545.5,-459.5 390.5,-459.5"/>
<text text-anchor="start" x="398.5" y="-477.5" font-family="FreeSans.ttf" font-size="10.00">iDynTree/Core/SpatialMotion</text>
<text text-anchor="middle" x="468" y="-466.5" font-family="FreeSans.ttf" font-size="10.00">Vector.h</text>
</a>
</g>
</g>
<!-- Node29&#45;&gt;Node30 -->
<g id="edge49" class="edge">
<title>Node29&#45;&gt;Node30</title>
<path fill="none" stroke="midnightblue" d="M820.45,-531.96C810.53,-529.91 799.89,-527.8 790,-526 688.2,-507.5 662.21,-506.05 560,-490 558.7,-489.8 557.38,-489.59 556.06,-489.38"/>
<polygon fill="midnightblue" stroke="midnightblue" points="556.22,-485.86 545.8,-487.77 555.13,-492.78 556.22,-485.86"/>
</g>
<!-- Node30&#45;&gt;Node4 -->
<g id="edge50" class="edge">
<title>Node30&#45;&gt;Node4</title>
<path fill="none" stroke="midnightblue" d="M478.81,-459.37C496.28,-434.81 527.74,-382.42 517,-336 506.74,-291.65 489.91,-285.85 472,-244 465.35,-228.45 458.76,-210.37 454.18,-197.23"/>
<polygon fill="midnightblue" stroke="midnightblue" points="457.4,-195.84 450.84,-187.52 450.78,-198.12 457.4,-195.84"/>
</g>
<!-- Node30&#45;&gt;Node21 -->
<g id="edge51" class="edge">
<title>Node30&#45;&gt;Node21</title>
<path fill="none" stroke="midnightblue" d="M451.34,-459.2C424.2,-435.54 372.32,-388.74 361,-367 341.81,-330.16 338.2,-280.48 337.77,-253.81"/>
<polygon fill="midnightblue" stroke="midnightblue" points="341.27,-253.59 337.75,-243.59 334.27,-253.6 341.27,-253.59"/>
</g>
<!-- Node31 -->
<g id="node31" class="node">
<title>Node31</title>
<g id="a_node31"><a xlink:href="SpatialVector_8h.html" target="_top" xlink:title=" ">
<polygon fill="none" stroke="black" points="218.5,-403.5 218.5,-422.5 379.5,-422.5 379.5,-403.5 218.5,-403.5"/>
<text text-anchor="middle" x="299" y="-410.5" font-family="FreeSans.ttf" font-size="10.00">iDynTree/Core/SpatialVector.h</text>
</a>
</g>
</g>
<!-- Node30&#45;&gt;Node31 -->
<g id="edge52" class="edge">
<title>Node30&#45;&gt;Node31</title>
<path fill="none" stroke="midnightblue" d="M427.95,-459.4C399.09,-449.24 360.55,-435.67 333.15,-426.02"/>
<polygon fill="midnightblue" stroke="midnightblue" points="334.19,-422.68 323.59,-422.66 331.86,-429.28 334.19,-422.68"/>
</g>
<!-- Node31&#45;&gt;Node2 -->
<g id="edge53" class="edge">
<title>Node31&#45;&gt;Node2</title>
<path fill="none" stroke="midnightblue" d="M379.64,-405.12C514.53,-393.6 784.26,-370.58 917.63,-359.19"/>
<polygon fill="midnightblue" stroke="midnightblue" points="918.1,-362.66 927.77,-358.32 917.51,-355.69 918.1,-362.66"/>
</g>
<!-- Node31&#45;&gt;Node5 -->
<g id="edge55" class="edge">
<title>Node31&#45;&gt;Node5</title>
<path fill="none" stroke="midnightblue" d="M276.01,-403.49C259.48,-396.23 237.9,-384.2 225,-367 156.5,-275.66 118.19,-197.37 194,-112 214.07,-89.4 398.43,-76.12 502.06,-70.38"/>
<polygon fill="midnightblue" stroke="midnightblue" points="502.34,-73.87 512.14,-69.84 501.96,-66.88 502.34,-73.87"/>
</g>
<!-- Node31&#45;&gt;Node18 -->
<g id="edge58" class="edge">
<title>Node31&#45;&gt;Node18</title>
<path fill="none" stroke="midnightblue" d="M288.43,-403.46C278.3,-394.92 262.96,-381.08 252,-367 230.97,-339.99 222.73,-333.1 214,-300 199.14,-243.66 215.43,-174.18 225.02,-141.56"/>
<polygon fill="midnightblue" stroke="midnightblue" points="228.47,-142.23 228.07,-131.65 221.78,-140.18 228.47,-142.23"/>
</g>
<!-- Node31&#45;&gt;Node20 -->
<g id="edge54" class="edge">
<title>Node31&#45;&gt;Node20</title>
<path fill="none" stroke="midnightblue" d="M345.15,-403.48C389.42,-395.08 458.07,-381.42 517,-367 600.02,-346.69 696.13,-318.2 747.7,-302.51"/>
<polygon fill="midnightblue" stroke="midnightblue" points="748.86,-305.81 757.4,-299.55 746.81,-299.12 748.86,-305.81"/>
</g>
<!-- Node31&#45;&gt;Node21 -->
<g id="edge56" class="edge">
<title>Node31&#45;&gt;Node21</title>
<path fill="none" stroke="midnightblue" d="M300.89,-403.35C305.51,-382.26 317.72,-326.51 328,-280 329.92,-271.3 332.07,-261.65 333.87,-253.53"/>
<polygon fill="midnightblue" stroke="midnightblue" points="337.32,-254.15 336.08,-243.63 330.49,-252.63 337.32,-254.15"/>
</g>
<!-- Node31&#45;&gt;Node25 -->
<g id="edge57" class="edge">
<title>Node31&#45;&gt;Node25</title>
<path fill="none" stroke="midnightblue" d="M294.52,-403.09C277.96,-369.61 222.44,-251.78 247,-224 290.15,-175.18 474.2,-201.24 538,-188 573.41,-180.65 669.08,-151.25 722.2,-134.62"/>
<polygon fill="midnightblue" stroke="midnightblue" points="723.42,-137.9 731.91,-131.57 721.32,-131.22 723.42,-137.9"/>
</g>
<!-- Node33 -->
<g id="node33" class="node">
<title>Node33</title>
<g id="a_node33"><a xlink:href="SpatialForceVector_8h.html" target="_top" xlink:title=" ">
<polygon fill="none" stroke="black" points="151,-459.5 151,-489.5 299,-489.5 299,-459.5 151,-459.5"/>
<text text-anchor="start" x="159" y="-477.5" font-family="FreeSans.ttf" font-size="10.00">iDynTree/Core/SpatialForce</text>
<text text-anchor="middle" x="225" y="-466.5" font-family="FreeSans.ttf" font-size="10.00">Vector.h</text>
</a>
</g>
</g>
<!-- Node32&#45;&gt;Node33 -->
<g id="edge60" class="edge">
<title>Node32&#45;&gt;Node33</title>
<path fill="none" stroke="midnightblue" d="M333.4,-531.87C315.11,-522.36 285.13,-506.77 261.32,-494.39"/>
<polygon fill="midnightblue" stroke="midnightblue" points="262.7,-491.16 252.21,-489.65 259.47,-497.37 262.7,-491.16"/>
</g>
<!-- Node33&#45;&gt;Node4 -->
<g id="edge61" class="edge">
<title>Node33&#45;&gt;Node4</title>
<path fill="none" stroke="midnightblue" d="M217,-459.44C211.87,-449.59 205.69,-435.92 203,-423 189.41,-357.77 107.33,-345.35 214,-224 232.84,-202.57 299.34,-191.16 356.65,-185.21"/>
<polygon fill="midnightblue" stroke="midnightblue" points="357.26,-188.66 366.87,-184.19 356.57,-181.7 357.26,-188.66"/>
</g>
<!-- Node33&#45;&gt;Node21 -->
<g id="edge62" class="edge">
<title>Node33&#45;&gt;Node21</title>
<path fill="none" stroke="midnightblue" d="M217.34,-459.48C210.51,-445.08 202.5,-422.13 209,-403 231.27,-337.44 290.57,-277.43 320.38,-250.28"/>
<polygon fill="midnightblue" stroke="midnightblue" points="322.82,-252.79 327.95,-243.51 318.16,-247.57 322.82,-252.79"/>
</g>
<!-- Node33&#45;&gt;Node31 -->
<g id="edge63" class="edge">
<title>Node33&#45;&gt;Node31</title>
<path fill="none" stroke="midnightblue" d="M242.54,-459.4C253.84,-450.31 268.54,-438.49 280.11,-429.19"/>
<polygon fill="midnightblue" stroke="midnightblue" points="282.63,-431.65 288.23,-422.66 278.25,-426.2 282.63,-431.65"/>
</g>
<!-- Node34&#45;&gt;Node30 -->
<g id="edge65" class="edge">
<title>Node34&#45;&gt;Node30</title>
<path fill="none" stroke="midnightblue" d="M675.26,-531.87C638.16,-521.78 575.89,-504.84 529.28,-492.16"/>
<polygon fill="midnightblue" stroke="midnightblue" points="530.15,-488.78 519.58,-489.53 528.31,-495.53 530.15,-488.78"/>
</g>
<!-- Node35&#45;&gt;Node33 -->
<g id="edge67" class="edge">
<title>Node35&#45;&gt;Node33</title>
<path fill="none" stroke="midnightblue" d="M178.28,-531.73C185.58,-522.95 197.1,-509.08 206.88,-497.31"/>
<polygon fill="midnightblue" stroke="midnightblue" points="209.6,-499.52 213.3,-489.59 204.21,-495.04 209.6,-499.52"/>
</g>
<!-- Node37&#45;&gt;Node4 -->
<g id="edge79" class="edge">
<title>Node37&#45;&gt;Node4</title>
<path fill="none" stroke="midnightblue" d="M970.08,-531.99C957.06,-529.89 943.02,-527.75 930,-526 765.62,-503.86 574,-579.87 574,-414 574,-414 574,-414 574,-350.5 574,-280.68 505.33,-220.48 469.38,-193.75"/>
<polygon fill="midnightblue" stroke="midnightblue" points="471.16,-190.72 461.01,-187.69 467.06,-196.39 471.16,-190.72"/>
</g>
<!-- Node37&#45;&gt;Node5 -->
<g id="edge91" class="edge">
<title>Node37&#45;&gt;Node5</title>
<path fill="none" stroke="midnightblue" d="M966.94,-531.97C885.31,-518.77 737.11,-494.43 726,-490 669.43,-467.47 612,-474.89 612,-414 612,-414 612,-414 612,-350.5 612,-252.08 587.04,-229.8 576,-132 574.25,-116.53 573.23,-98.9 572.65,-85.91"/>
<polygon fill="midnightblue" stroke="midnightblue" points="576.15,-85.71 572.26,-75.86 569.16,-85.99 576.15,-85.71"/>
</g>
<!-- Node37&#45;&gt;Node6 -->
<g id="edge74" class="edge">
<title>Node37&#45;&gt;Node6</title>
<path fill="none" stroke="midnightblue" d="M1034.7,-531.9C1050.58,-522.37 1076.39,-506.2 1097,-490 1256.37,-364.74 1548.35,-324.9 1420,-168 1289.37,-8.31 1164.84,-127.28 965,-76 902.88,-60.06 831.82,-36.73 790.9,-22.78"/>
<polygon fill="midnightblue" stroke="midnightblue" points="792.01,-19.46 781.42,-19.53 789.74,-26.09 792.01,-19.46"/>
</g>
<!-- Node37&#45;&gt;Node23 -->
<g id="edge83" class="edge">
<title>Node37&#45;&gt;Node23</title>
<path fill="none" stroke="midnightblue" d="M983.51,-531.99C890.16,-509.72 650,-449 650,-414 650,-414 650,-414 650,-350.5 650,-291.79 679.59,-226.94 695.36,-196.54"/>
<polygon fill="midnightblue" stroke="midnightblue" points="698.51,-198.08 700.12,-187.61 692.33,-194.79 698.51,-198.08"/>
</g>
<!-- Node37&#45;&gt;Node30 -->
<g id="edge84" class="edge">
<title>Node37&#45;&gt;Node30</title>
<path fill="none" stroke="midnightblue" d="M970.57,-531.96C957.41,-529.85 943.18,-527.7 930,-526 766.14,-504.85 723.9,-510.87 560,-490 558.69,-489.83 557.37,-489.66 556.05,-489.49"/>
<polygon fill="midnightblue" stroke="midnightblue" points="556.13,-485.97 545.75,-488.09 555.19,-492.9 556.13,-485.97"/>
</g>
<!-- Node37&#45;&gt;Node33 -->
<g id="edge85" class="edge">
<title>Node37&#45;&gt;Node33</title>
<path fill="none" stroke="midnightblue" d="M972.47,-531.98C958.8,-529.77 943.84,-527.57 930,-526 687.02,-498.52 624.76,-509.32 381,-490 357.73,-488.16 332.54,-485.92 309.32,-483.76"/>
<polygon fill="midnightblue" stroke="midnightblue" points="309.44,-480.26 299.16,-482.81 308.79,-487.23 309.44,-480.26"/>
</g>
<!-- Node37&#45;&gt;Node36 -->
<g id="edge75" class="edge">
<title>Node37&#45;&gt;Node36</title>
<path fill="none" stroke="midnightblue" d="M1043.37,-531.87C1074.09,-520.52 1128.24,-500.52 1163.1,-487.65"/>
<polygon fill="midnightblue" stroke="midnightblue" points="1164.64,-490.81 1172.81,-484.06 1162.22,-484.24 1164.64,-490.81"/>
</g>
<!-- Node38 -->
<g id="node38" class="node">
<title>Node38</title>
<g id="a_node38"><a xlink:href="VectorDynSize_8h.html" target="_top" xlink:title=" ">
<polygon fill="none" stroke="black" points="1243.5,-168.5 1243.5,-187.5 1410.5,-187.5 1410.5,-168.5 1243.5,-168.5"/>
<text text-anchor="middle" x="1327" y="-175.5" font-family="FreeSans.ttf" font-size="10.00">iDynTree/Core/VectorDynSize.h</text>
</a>
</g>
</g>
<!-- Node37&#45;&gt;Node38 -->
<g id="edge76" class="edge">
<title>Node37&#45;&gt;Node38</title>
<path fill="none" stroke="midnightblue" d="M1029.31,-531.83C1039.75,-521.98 1057.06,-505.28 1071,-490 1169.51,-382 1277.83,-243.03 1314.26,-195.66"/>
<polygon fill="midnightblue" stroke="midnightblue" points="1317.07,-197.74 1320.38,-187.68 1311.52,-193.48 1317.07,-197.74"/>
</g>
<!-- Node39 -->
<g id="node39" class="node">
<title>Node39</title>
<g id="a_node39"><a xlink:href="MatrixDynSize_8h.html" target="_top" xlink:title=" ">
<polygon fill="none" stroke="black" points="1020,-168.5 1020,-187.5 1188,-187.5 1188,-168.5 1020,-168.5"/>
<text text-anchor="middle" x="1104" y="-175.5" font-family="FreeSans.ttf" font-size="10.00">iDynTree/Core/MatrixDynSize.h</text>
</a>
</g>
</g>
<!-- Node37&#45;&gt;Node39 -->
<g id="edge80" class="edge">
<title>Node37&#45;&gt;Node39</title>
<path fill="none" stroke="midnightblue" d="M1025.63,-531.8C1037.57,-512.88 1065.34,-466.23 1078,-423 1101.81,-341.71 1104.32,-239.49 1104.25,-197.9"/>
<polygon fill="midnightblue" stroke="midnightblue" points="1107.75,-197.62 1104.18,-187.64 1100.75,-197.67 1107.75,-197.62"/>
</g>
<!-- Node40 -->
<g id="node40" class="node">
<title>Node40</title>
<g id="a_node40"><a xlink:href="Transform_8h.html" target="_top" xlink:title=" ">
<polygon fill="none" stroke="black" points="923,-403.5 923,-422.5 1069,-422.5 1069,-403.5 923,-403.5"/>
<text text-anchor="middle" x="996" y="-410.5" font-family="FreeSans.ttf" font-size="10.00">iDynTree/Core/Transform.h</text>
</a>
</g>
</g>
<!-- Node37&#45;&gt;Node40 -->
<g id="edge86" class="edge">
<title>Node37&#45;&gt;Node40</title>
<path fill="none" stroke="midnightblue" d="M1018.35,-531.81C1014.5,-511.49 1004.83,-460.55 999.56,-432.78"/>
<polygon fill="midnightblue" stroke="midnightblue" points="1002.96,-431.93 997.66,-422.76 996.09,-433.23 1002.96,-431.93"/>
</g>
<!-- Node38&#45;&gt;Node8 -->
<g id="edge77" class="edge">
<title>Node38&#45;&gt;Node8</title>
<path fill="none" stroke="midnightblue" d="M1304.01,-168.37C1252.23,-148.93 1126.36,-101.67 1066.57,-79.23"/>
<polygon fill="midnightblue" stroke="midnightblue" points="1067.48,-75.83 1056.88,-75.59 1065.02,-82.38 1067.48,-75.83"/>
</g>
<!-- Node38&#45;&gt;Node17 -->
<g id="edge78" class="edge">
<title>Node38&#45;&gt;Node17</title>
<path fill="none" stroke="midnightblue" d="M1275.03,-168.44C1206.64,-157.18 1088.46,-137.73 1031.52,-128.35"/>
<polygon fill="midnightblue" stroke="midnightblue" points="1031.74,-124.84 1021.31,-126.67 1030.6,-131.75 1031.74,-124.84"/>
</g>
<!-- Node39&#45;&gt;Node17 -->
<g id="edge81" class="edge">
<title>Node39&#45;&gt;Node17</title>
<path fill="none" stroke="midnightblue" d="M1087.13,-168.32C1070.29,-159.66 1044.19,-146.24 1024.76,-136.25"/>
<polygon fill="midnightblue" stroke="midnightblue" points="1026.32,-133.12 1015.83,-131.65 1023.12,-139.34 1026.32,-133.12"/>
</g>
<!-- Node39&#45;&gt;Node24 -->
<g id="edge82" class="edge">
<title>Node39&#45;&gt;Node24</title>
<path fill="none" stroke="midnightblue" d="M1068.98,-168.44C1030.75,-159.1 969.43,-144.12 927.74,-133.93"/>
<polygon fill="midnightblue" stroke="midnightblue" points="928.4,-130.49 917.85,-131.52 926.74,-137.29 928.4,-130.49"/>
</g>
<!-- Node40&#45;&gt;Node2 -->
<g id="edge87" class="edge">
<title>Node40&#45;&gt;Node2</title>
<path fill="none" stroke="midnightblue" d="M996,-403.48C996,-395.08 996,-381.98 996,-371.16"/>
<polygon fill="midnightblue" stroke="midnightblue" points="999.5,-371.01 996,-361.01 992.5,-371.01 999.5,-371.01"/>
</g>
<!-- Node40&#45;&gt;Node17 -->
<g id="edge90" class="edge">
<title>Node40&#45;&gt;Node17</title>
<path fill="none" stroke="midnightblue" d="M1013.32,-403.43C1074.31,-372.19 1271.47,-261.29 1197,-168 1176.62,-142.47 1081.99,-130.32 1031.29,-125.56"/>
<polygon fill="midnightblue" stroke="midnightblue" points="1031.45,-122.06 1021.18,-124.65 1030.82,-129.03 1031.45,-122.06"/>
</g>
<!-- Node40&#45;&gt;Node20 -->
<g id="edge88" class="edge">
<title>Node40&#45;&gt;Node20</title>
<path fill="none" stroke="midnightblue" d="M981.16,-403.49C945.16,-382.84 852.89,-329.93 808.95,-304.74"/>
<polygon fill="midnightblue" stroke="midnightblue" points="810.52,-301.6 800.1,-299.66 807.04,-307.67 810.52,-301.6"/>
</g>
<!-- Node40&#45;&gt;Node23 -->
<g id="edge89" class="edge">
<title>Node40&#45;&gt;Node23</title>
<path fill="none" stroke="midnightblue" d="M922.81,-403.88C856.15,-392.43 760.24,-365.07 707,-300 683.13,-270.83 691.73,-223.13 699.02,-197.19"/>
<polygon fill="midnightblue" stroke="midnightblue" points="702.4,-198.11 701.96,-187.52 695.7,-196.07 702.4,-198.11"/>
</g>
</g>
</svg>
