<?xml version="1.0" encoding="UTF-8" standalone="no"?>
<!DOCTYPE svg PUBLIC "-//W3C//DTD SVG 1.1//EN"
 "http://www.w3.org/Graphics/SVG/1.1/DTD/svg11.dtd">
<!-- Generated by graphviz version 2.43.0 (0)
 -->
<!-- Title: SpatialMotionVector.h Pages: 1 -->
<svg width="5894pt" height="207pt"
 viewBox="0.00 0.00 5894.03 207.00" xmlns="http://www.w3.org/2000/svg" xmlns:xlink="http://www.w3.org/1999/xlink">
<g id="graph0" class="graph" transform="scale(1 1) rotate(0) translate(4 203)">
<title>SpatialMotionVector.h</title>
<!-- Node1 -->
<g id="node1" class="node">
<title>Node1</title>
<g id="a_node1"><a xlink:title=" ">
<polygon fill="#bfbfbf" stroke="black" points="5129.53,-179.5 5129.53,-198.5 5252.53,-198.5 5252.53,-179.5 5129.53,-179.5"/>
<text text-anchor="middle" x="5191.03" y="-186.5" font-family="FreeSans.ttf" font-size="10.00">SpatialMotionVector.h</text>
</a>
</g>
</g>
<!-- Node2 -->
<g id="node2" class="node">
<title>Node2</title>
<g id="a_node2"><a xlink:href="EigenHelpers_8h.html" target="_top" xlink:title=" ">
<polygon fill="none" stroke="red" points="2793.03,-123.5 2793.03,-142.5 2883.03,-142.5 2883.03,-123.5 2793.03,-123.5"/>
<text text-anchor="middle" x="2838.03" y="-130.5" font-family="FreeSans.ttf" font-size="10.00">EigenHelpers.h</text>
</a>
</g>
</g>
<!-- Node1&#45;&gt;Node2 -->
<g id="edge1" class="edge">
<title>Node1&#45;&gt;Node2</title>
<path fill="none" stroke="midnightblue" d="M5119.05,-186.35C4760.51,-178.12 3172.89,-141.68 2883.41,-135.04"/>
<polygon fill="midnightblue" stroke="midnightblue" points="5119.22,-189.85 5129.3,-186.58 5119.38,-182.85 5119.22,-189.85"/>
</g>
<!-- Node6 -->
<g id="node4" class="node">
<title>Node6</title>
<g id="a_node4"><a xlink:href="SpatialInertiaRaw_8cpp.html" target="_top" xlink:title=" ">
<polygon fill="none" stroke="black" points="1666.03,-0.5 1666.03,-19.5 1788.03,-19.5 1788.03,-0.5 1666.03,-0.5"/>
<text text-anchor="middle" x="1727.03" y="-7.5" font-family="FreeSans.ttf" font-size="10.00">SpatialInertiaRaw.cpp</text>
</a>
</g>
</g>
<!-- Node1&#45;&gt;Node6 -->
<g id="edge57" class="edge">
<title>Node1&#45;&gt;Node6</title>
<path fill="none" stroke="midnightblue" d="M5119.04,-187.9C4557.81,-187.01 891.84,-179.86 402.03,-143 225.22,-129.69 123.27,-220.89 7.03,-87 -2,-76.6 -2.59,-65.87 7.03,-56 36.57,-25.68 1363.19,-13.77 1665.95,-11.44"/>
<polygon fill="midnightblue" stroke="midnightblue" points="5119.41,-191.4 5129.41,-187.91 5119.42,-184.4 5119.41,-191.4"/>
</g>
<!-- Node8 -->
<g id="node5" class="node">
<title>Node8</title>
<g id="a_node5"><a xlink:href="SpatialMotionVector_8cpp.html" target="_top" xlink:title=" ">
<polygon fill="none" stroke="black" points="4866.03,-0.5 4866.03,-19.5 5000.03,-19.5 5000.03,-0.5 4866.03,-0.5"/>
<text text-anchor="middle" x="4933.03" y="-7.5" font-family="FreeSans.ttf" font-size="10.00">SpatialMotionVector.cpp</text>
</a>
</g>
</g>
<!-- Node1&#45;&gt;Node8 -->
<g id="edge58" class="edge">
<title>Node1&#45;&gt;Node8</title>
<path fill="none" stroke="midnightblue" d="M5207.22,-171.88C5232.18,-145.07 5274.2,-90.86 5244.03,-56 5213.14,-20.32 5081.97,-12.31 5000.16,-10.87"/>
<polygon fill="midnightblue" stroke="midnightblue" points="5204.52,-169.63 5200.12,-179.26 5209.57,-174.48 5204.52,-169.63"/>
</g>
<!-- Node65 -->
<g id="node40" class="node">
<title>Node65</title>
<g id="a_node40"><a xlink:href="PredictSensorsMeasurements_8cpp.html" target="_top" xlink:title=" ">
<polygon fill="none" stroke="black" points="818.03,-62 818.03,-81 1000.03,-81 1000.03,-62 818.03,-62"/>
<text text-anchor="middle" x="909.03" y="-69" font-family="FreeSans.ttf" font-size="10.00">PredictSensorsMeasurements.cpp</text>
</a>
</g>
</g>
<!-- Node1&#45;&gt;Node65 -->
<g id="edge68" class="edge">
<title>Node1&#45;&gt;Node65</title>
<path fill="none" stroke="midnightblue" d="M5119.18,-186.99C4827.88,-182.84 3706.4,-166.17 2784.03,-143 1995,-123.18 1795.27,-156.18 1009.03,-87 993.04,-85.59 975.7,-83.34 960.03,-81.02"/>
<polygon fill="midnightblue" stroke="midnightblue" points="5119.14,-190.49 5129.19,-187.14 5119.24,-183.49 5119.14,-190.49"/>
</g>
<!-- Node81 -->
<g id="node41" class="node">
<title>Node81</title>
<g id="a_node41"><a xlink:href="SpatialAcc_8h.html" target="_top" xlink:title=" ">
<polygon fill="none" stroke="red" points="552.53,-123.5 552.53,-142.5 629.53,-142.5 629.53,-123.5 552.53,-123.5"/>
<text text-anchor="middle" x="591.03" y="-130.5" font-family="FreeSans.ttf" font-size="10.00">SpatialAcc.h</text>
</a>
</g>
</g>
<!-- Node1&#45;&gt;Node81 -->
<g id="edge41" class="edge">
<title>Node1&#45;&gt;Node81</title>
<path fill="none" stroke="midnightblue" d="M5119.32,-187.16C4569.96,-180.71 1038.91,-139.26 629.69,-134.45"/>
<polygon fill="midnightblue" stroke="midnightblue" points="5119.44,-190.66 5129.48,-187.28 5119.52,-183.66 5119.44,-190.66"/>
</g>
<!-- Node184 -->
<g id="node42" class="node">
<title>Node184</title>
<g id="a_node42"><a xlink:href="Twist_8h.html" target="_top" xlink:title=" ">
<polygon fill="none" stroke="red" points="411.03,-123.5 411.03,-142.5 461.03,-142.5 461.03,-123.5 411.03,-123.5"/>
<text text-anchor="middle" x="436.03" y="-130.5" font-family="FreeSans.ttf" font-size="10.00">Twist.h</text>
</a>
</g>
</g>
<!-- Node1&#45;&gt;Node184 -->
<g id="edge49" class="edge">
<title>Node1&#45;&gt;Node184</title>
<path fill="none" stroke="midnightblue" d="M5119.07,-188.04C4605.44,-188.19 1488.72,-187.29 543.03,-143 514.91,-141.68 482.74,-138.79 461.07,-136.64"/>
<polygon fill="midnightblue" stroke="midnightblue" points="5119.31,-191.54 5129.31,-188.03 5119.31,-184.54 5119.31,-191.54"/>
</g>
<!-- Node186 -->
<g id="node43" class="node">
<title>Node186</title>
<g id="a_node43"><a xlink:href="PositionRaw_8cpp.html" target="_top" xlink:title=" ">
<polygon fill="none" stroke="black" points="5257.03,-123.5 5257.03,-142.5 5353.03,-142.5 5353.03,-123.5 5257.03,-123.5"/>
<text text-anchor="middle" x="5305.03" y="-130.5" font-family="FreeSans.ttf" font-size="10.00">PositionRaw.cpp</text>
</a>
</g>
</g>
<!-- Node1&#45;&gt;Node186 -->
<g id="edge55" class="edge">
<title>Node1&#45;&gt;Node186</title>
<path fill="none" stroke="midnightblue" d="M5218.27,-175.1C5239.57,-165.01 5268.57,-151.27 5287.05,-142.52"/>
<polygon fill="midnightblue" stroke="midnightblue" points="5216.63,-172 5209.09,-179.44 5219.63,-178.33 5216.63,-172"/>
</g>
<!-- Node187 -->
<g id="node44" class="node">
<title>Node187</title>
<g id="a_node44"><a xlink:href="RotationRaw_8cpp.html" target="_top" xlink:title=" ">
<polygon fill="none" stroke="black" points="5371.03,-123.5 5371.03,-142.5 5469.03,-142.5 5469.03,-123.5 5371.03,-123.5"/>
<text text-anchor="middle" x="5420.03" y="-130.5" font-family="FreeSans.ttf" font-size="10.00">RotationRaw.cpp</text>
</a>
</g>
</g>
<!-- Node1&#45;&gt;Node187 -->
<g id="edge56" class="edge">
<title>Node1&#45;&gt;Node187</title>
<path fill="none" stroke="midnightblue" d="M5237.3,-177.09C5280.57,-166.89 5344.28,-151.86 5383.91,-142.52"/>
<polygon fill="midnightblue" stroke="midnightblue" points="5236.24,-173.74 5227.31,-179.44 5237.85,-180.55 5236.24,-173.74"/>
</g>
<!-- Node83 -->
<g id="node45" class="node">
<title>Node83</title>
<g id="a_node45"><a xlink:href="TestUtils_8cpp.html" target="_top" xlink:title=" ">
<polygon fill="none" stroke="black" points="5487.53,-123.5 5487.53,-142.5 5566.53,-142.5 5566.53,-123.5 5487.53,-123.5"/>
<text text-anchor="middle" x="5527.03" y="-130.5" font-family="FreeSans.ttf" font-size="10.00">TestUtils.cpp</text>
</a>
</g>
</g>
<!-- Node1&#45;&gt;Node83 -->
<g id="edge59" class="edge">
<title>Node1&#45;&gt;Node83</title>
<path fill="none" stroke="midnightblue" d="M5258.45,-177.94C5316.66,-169.13 5402.98,-155.77 5478.03,-143 5481.1,-142.48 5484.27,-141.92 5487.46,-141.36"/>
<polygon fill="midnightblue" stroke="midnightblue" points="5257.64,-174.52 5248.28,-179.47 5258.69,-181.44 5257.64,-174.52"/>
</g>
<!-- Node84 -->
<g id="node46" class="node">
<title>Node84</title>
<g id="a_node46"><a xlink:href="DynamicsUtils_8h.html" target="_top" xlink:title=" ">
<polygon fill="none" stroke="black" points="5584.53,-123.5 5584.53,-142.5 5681.53,-142.5 5681.53,-123.5 5584.53,-123.5"/>
<text text-anchor="middle" x="5633.03" y="-130.5" font-family="FreeSans.ttf" font-size="10.00">DynamicsUtils.h</text>
</a>
</g>
</g>
<!-- Node1&#45;&gt;Node84 -->
<g id="edge60" class="edge">
<title>Node1&#45;&gt;Node84</title>
<path fill="none" stroke="midnightblue" d="M5262.93,-180.47C5340.35,-172.16 5467.08,-157.96 5576.03,-143 5578.71,-142.63 5581.46,-142.24 5584.23,-141.84"/>
<polygon fill="midnightblue" stroke="midnightblue" points="5262.38,-177.01 5252.8,-181.55 5263.12,-183.97 5262.38,-177.01"/>
</g>
<!-- Node188 -->
<g id="node47" class="node">
<title>Node188</title>
<g id="a_node47"><a xlink:href="PrismaticJoint_8h.html" target="_top" xlink:title=" ">
<polygon fill="none" stroke="red" points="5107.53,-123.5 5107.53,-142.5 5200.53,-142.5 5200.53,-123.5 5107.53,-123.5"/>
<text text-anchor="middle" x="5154.03" y="-130.5" font-family="FreeSans.ttf" font-size="10.00">PrismaticJoint.h</text>
</a>
</g>
</g>
<!-- Node1&#45;&gt;Node188 -->
<g id="edge61" class="edge">
<title>Node1&#45;&gt;Node188</title>
<path fill="none" stroke="midnightblue" d="M5179.08,-170.57C5172.72,-161.27 5165.16,-150.25 5160.03,-142.75"/>
<polygon fill="midnightblue" stroke="midnightblue" points="5176.38,-172.81 5184.92,-179.08 5182.15,-168.86 5176.38,-172.81"/>
</g>
<!-- Node190 -->
<g id="node48" class="node">
<title>Node190</title>
<g id="a_node48"><a xlink:href="RevoluteJoint_8h.html" target="_top" xlink:title=" ">
<polygon fill="none" stroke="red" points="4998.53,-123.5 4998.53,-142.5 5089.53,-142.5 5089.53,-123.5 4998.53,-123.5"/>
<text text-anchor="middle" x="5044.03" y="-130.5" font-family="FreeSans.ttf" font-size="10.00">RevoluteJoint.h</text>
</a>
</g>
</g>
<!-- Node1&#45;&gt;Node190 -->
<g id="edge63" class="edge">
<title>Node1&#45;&gt;Node190</title>
<path fill="none" stroke="midnightblue" d="M5158.11,-175.91C5130.47,-165.75 5091.68,-151.51 5067.21,-142.52"/>
<polygon fill="midnightblue" stroke="midnightblue" points="5157.14,-179.28 5167.74,-179.44 5159.56,-172.71 5157.14,-179.28"/>
</g>
<!-- Node170 -->
<g id="node49" class="node">
<title>Node170</title>
<g id="a_node49"><a xlink:href="FixedJoint_8cpp.html" target="_top" xlink:title=" ">
<polygon fill="none" stroke="black" points="5700.03,-123.5 5700.03,-142.5 5784.03,-142.5 5784.03,-123.5 5700.03,-123.5"/>
<text text-anchor="middle" x="5742.03" y="-130.5" font-family="FreeSans.ttf" font-size="10.00">FixedJoint.cpp</text>
</a>
</g>
</g>
<!-- Node1&#45;&gt;Node170 -->
<g id="edge66" class="edge">
<title>Node1&#45;&gt;Node170</title>
<path fill="none" stroke="midnightblue" d="M5262.81,-183.46C5360.12,-176.87 5539.16,-163.2 5691.03,-143 5693.88,-142.62 5696.82,-142.2 5699.77,-141.74"/>
<polygon fill="midnightblue" stroke="midnightblue" points="5262.54,-179.97 5252.8,-184.14 5263.01,-186.96 5262.54,-179.97"/>
</g>
<!-- Node101 -->
<g id="node50" class="node">
<title>Node101</title>
<g id="a_node50"><a xlink:href="JointState_8cpp.html" target="_top" xlink:title=" ">
<polygon fill="none" stroke="black" points="5802.03,-123.5 5802.03,-142.5 5886.03,-142.5 5886.03,-123.5 5802.03,-123.5"/>
<text text-anchor="middle" x="5844.03" y="-130.5" font-family="FreeSans.ttf" font-size="10.00">JointState.cpp</text>
</a>
</g>
</g>
<!-- Node1&#45;&gt;Node101 -->
<g id="edge67" class="edge">
<title>Node1&#45;&gt;Node101</title>
<path fill="none" stroke="midnightblue" d="M5263.02,-184.95C5376.18,-179.63 5602.43,-166.88 5793.03,-143 5795.88,-142.64 5798.82,-142.23 5801.78,-141.79"/>
<polygon fill="midnightblue" stroke="midnightblue" points="5262.59,-181.47 5252.76,-185.43 5262.91,-188.46 5262.59,-181.47"/>
</g>
<!-- Node3 -->
<g id="node3" class="node">
<title>Node3</title>
<g id="a_node3"><a xlink:href="PrivateUtils_8h.html" target="_top" xlink:title=" ">
<polygon fill="none" stroke="red" points="3424.53,-62 3424.53,-81 3507.53,-81 3507.53,-62 3424.53,-62"/>
<text text-anchor="middle" x="3466.03" y="-69" font-family="FreeSans.ttf" font-size="10.00">PrivateUtils.h</text>
</a>
</g>
</g>
<!-- Node2&#45;&gt;Node3 -->
<g id="edge2" class="edge">
<title>Node2&#45;&gt;Node3</title>
<path fill="none" stroke="midnightblue" d="M2893.51,-131.33C2996.89,-129.29 3225.71,-120.95 3415.03,-87 3423.18,-85.54 3431.91,-83.31 3439.79,-81.04"/>
<polygon fill="midnightblue" stroke="midnightblue" points="2893.24,-127.84 2883.31,-131.52 2893.37,-134.84 2893.24,-127.84"/>
</g>
<!-- Node2&#45;&gt;Node8 -->
<g id="edge14" class="edge">
<title>Node2&#45;&gt;Node8</title>
<path fill="none" stroke="midnightblue" d="M2893.47,-131.72C3219.42,-129.96 4873.4,-119.44 4914.03,-87 4934.44,-70.71 4934.92,-36.1 4933.89,-19.82"/>
<polygon fill="midnightblue" stroke="midnightblue" points="2893.31,-128.22 2883.33,-131.77 2893.35,-135.22 2893.31,-128.22"/>
</g>
<!-- Node12 -->
<g id="node6" class="node">
<title>Node12</title>
<g id="a_node6"><a xlink:href="ArticulatedBodyInertia_8cpp.html" target="_top" xlink:title=" ">
<polygon fill="none" stroke="black" points="654.03,-62 654.03,-81 800.03,-81 800.03,-62 654.03,-62"/>
<text text-anchor="middle" x="727.03" y="-69" font-family="FreeSans.ttf" font-size="10.00">ArticulatedBodyInertia.cpp</text>
</a>
</g>
</g>
<!-- Node2&#45;&gt;Node12 -->
<g id="edge5" class="edge">
<title>Node2&#45;&gt;Node12</title>
<path fill="none" stroke="midnightblue" d="M2782.79,-131.92C2499.52,-131.32 1207.77,-126.44 809.03,-87 795.65,-85.68 781.17,-83.4 768.15,-81.04"/>
<polygon fill="midnightblue" stroke="midnightblue" points="2782.82,-135.42 2792.83,-131.94 2782.83,-128.42 2782.82,-135.42"/>
</g>
<!-- Node13 -->
<g id="node7" class="node">
<title>Node13</title>
<g id="a_node7"><a xlink:href="CubicSpline_8cpp.html" target="_top" xlink:title=" ">
<polygon fill="none" stroke="black" points="4499.03,-62 4499.03,-81 4593.03,-81 4593.03,-62 4499.03,-62"/>
<text text-anchor="middle" x="4546.03" y="-69" font-family="FreeSans.ttf" font-size="10.00">CubicSpline.cpp</text>
</a>
</g>
</g>
<!-- Node2&#45;&gt;Node13 -->
<g id="edge6" class="edge">
<title>Node2&#45;&gt;Node13</title>
<path fill="none" stroke="midnightblue" d="M2893.54,-132.14C3144.04,-132.51 4170.72,-131.26 4489.03,-87 4498.43,-85.69 4508.53,-83.42 4517.57,-81.06"/>
<polygon fill="midnightblue" stroke="midnightblue" points="2893.23,-128.64 2883.23,-132.12 2893.22,-135.64 2893.23,-128.64"/>
</g>
<!-- Node14 -->
<g id="node8" class="node">
<title>Node14</title>
<g id="a_node8"><a xlink:href="Direction_8cpp.html" target="_top" xlink:title=" ">
<polygon fill="none" stroke="black" points="4611.53,-62 4611.53,-81 4692.53,-81 4692.53,-62 4611.53,-62"/>
<text text-anchor="middle" x="4652.03" y="-69" font-family="FreeSans.ttf" font-size="10.00">Direction.cpp</text>
</a>
</g>
</g>
<!-- Node2&#45;&gt;Node14 -->
<g id="edge7" class="edge">
<title>Node2&#45;&gt;Node14</title>
<path fill="none" stroke="midnightblue" d="M2893.44,-131.43C3173.88,-128.45 4430.08,-113.67 4602.03,-87 4610.42,-85.7 4619.4,-83.4 4627.39,-81.01"/>
<polygon fill="midnightblue" stroke="midnightblue" points="2893.07,-127.94 2883.11,-131.54 2893.15,-134.94 2893.07,-127.94"/>
</g>
<!-- Node15 -->
<g id="node9" class="node">
<title>Node15</title>
<g id="a_node9"><a xlink:href="InertiaNonLinearParametrization_8cpp.html" target="_top" xlink:title=" ">
<polygon fill="none" stroke="black" points="4710.53,-62 4710.53,-81 4905.53,-81 4905.53,-62 4710.53,-62"/>
<text text-anchor="middle" x="4808.03" y="-69" font-family="FreeSans.ttf" font-size="10.00">InertiaNonLinearParametrization.cpp</text>
</a>
</g>
</g>
<!-- Node2&#45;&gt;Node15 -->
<g id="edge8" class="edge">
<title>Node2&#45;&gt;Node15</title>
<path fill="none" stroke="midnightblue" d="M2893.4,-131.49C3162.59,-128.88 4336.42,-116.02 4701.03,-87 4718.31,-85.62 4737.08,-83.35 4754,-81.01"/>
<polygon fill="midnightblue" stroke="midnightblue" points="2893.06,-127.99 2883.1,-131.59 2893.13,-134.99 2893.06,-127.99"/>
</g>
<!-- Node16 -->
<g id="node10" class="node">
<title>Node16</title>
<g id="a_node10"><a xlink:href="Position_8cpp.html" target="_top" xlink:title=" ">
<polygon fill="none" stroke="black" points="464.03,-62 464.03,-81 540.03,-81 540.03,-62 464.03,-62"/>
<text text-anchor="middle" x="502.03" y="-69" font-family="FreeSans.ttf" font-size="10.00">Position.cpp</text>
</a>
</g>
</g>
<!-- Node2&#45;&gt;Node16 -->
<g id="edge9" class="edge">
<title>Node2&#45;&gt;Node16</title>
<path fill="none" stroke="midnightblue" d="M2782.73,-131.84C2455.13,-130.75 775.53,-123.42 549.03,-87 541.1,-85.73 532.66,-83.43 525.15,-81.04"/>
<polygon fill="midnightblue" stroke="midnightblue" points="2782.91,-135.34 2792.92,-131.87 2782.93,-128.34 2782.91,-135.34"/>
</g>
<!-- Node17 -->
<g id="node11" class="node">
<title>Node17</title>
<g id="a_node11"><a xlink:href="Rotation_8cpp.html" target="_top" xlink:title=" ">
<polygon fill="none" stroke="black" points="558.03,-62 558.03,-81 636.03,-81 636.03,-62 558.03,-62"/>
<text text-anchor="middle" x="597.03" y="-69" font-family="FreeSans.ttf" font-size="10.00">Rotation.cpp</text>
</a>
</g>
</g>
<!-- Node2&#45;&gt;Node17 -->
<g id="edge10" class="edge">
<title>Node2&#45;&gt;Node17</title>
<path fill="none" stroke="midnightblue" d="M2782.54,-131.77C2462.74,-130.3 861.55,-121.26 645.03,-87 636.95,-85.72 628.33,-83.43 620.66,-81.03"/>
<polygon fill="midnightblue" stroke="midnightblue" points="2782.92,-135.27 2792.94,-131.81 2782.95,-128.27 2782.92,-135.27"/>
</g>
<!-- Node18 -->
<g id="node12" class="node">
<title>Node18</title>
<g id="a_node12"><a xlink:href="SO3Utils_8cpp.html" target="_top" xlink:title=" ">
<polygon fill="none" stroke="black" points="1018.53,-62 1018.53,-81 1097.53,-81 1097.53,-62 1018.53,-62"/>
<text text-anchor="middle" x="1058.03" y="-69" font-family="FreeSans.ttf" font-size="10.00">SO3Utils.cpp</text>
</a>
</g>
</g>
<!-- Node2&#45;&gt;Node18 -->
<g id="edge11" class="edge">
<title>Node2&#45;&gt;Node18</title>
<path fill="none" stroke="midnightblue" d="M2782.72,-131.44C2505.56,-128.53 1274.53,-114.14 1106.03,-87 1097.95,-85.7 1089.33,-83.4 1081.66,-81.01"/>
<polygon fill="midnightblue" stroke="midnightblue" points="2782.89,-134.94 2792.93,-131.55 2782.97,-127.94 2782.89,-134.94"/>
</g>
<!-- Node19 -->
<g id="node13" class="node">
<title>Node19</title>
<g id="a_node13"><a xlink:href="SpatialForceVector_8cpp.html" target="_top" xlink:title=" ">
<polygon fill="none" stroke="black" points="1115.53,-62 1115.53,-81 1242.53,-81 1242.53,-62 1115.53,-62"/>
<text text-anchor="middle" x="1179.03" y="-69" font-family="FreeSans.ttf" font-size="10.00">SpatialForceVector.cpp</text>
</a>
</g>
</g>
<!-- Node2&#45;&gt;Node19 -->
<g id="edge12" class="edge">
<title>Node2&#45;&gt;Node19</title>
<path fill="none" stroke="midnightblue" d="M2782.72,-131.7C2538.71,-130.16 1557.12,-121.9 1251.03,-87 1239.25,-85.66 1226.52,-83.38 1215.1,-81.02"/>
<polygon fill="midnightblue" stroke="midnightblue" points="2782.75,-135.2 2792.77,-131.76 2782.79,-128.2 2782.75,-135.2"/>
</g>
<!-- Node20 -->
<g id="node14" class="node">
<title>Node20</title>
<g id="a_node14"><a xlink:href="SpatialInertia_8cpp.html" target="_top" xlink:title=" ">
<polygon fill="none" stroke="black" points="16.03,-62 16.03,-81 118.03,-81 118.03,-62 16.03,-62"/>
<text text-anchor="middle" x="67.03" y="-69" font-family="FreeSans.ttf" font-size="10.00">SpatialInertia.cpp</text>
</a>
</g>
</g>
<!-- Node2&#45;&gt;Node20 -->
<g id="edge13" class="edge">
<title>Node2&#45;&gt;Node20</title>
<path fill="none" stroke="midnightblue" d="M2782.68,-131.81C2420.83,-130.51 398.97,-121.68 127.03,-87 117.04,-85.73 106.29,-83.43 96.7,-81.04"/>
<polygon fill="midnightblue" stroke="midnightblue" points="2782.88,-135.32 2792.9,-131.85 2782.91,-128.32 2782.88,-135.32"/>
</g>
<!-- Node21 -->
<g id="node15" class="node">
<title>Node21</title>
<g id="a_node15"><a xlink:href="TransformDerivative_8cpp.html" target="_top" xlink:title=" ">
<polygon fill="none" stroke="black" points="1260.53,-62 1260.53,-81 1397.53,-81 1397.53,-62 1260.53,-62"/>
<text text-anchor="middle" x="1329.03" y="-69" font-family="FreeSans.ttf" font-size="10.00">TransformDerivative.cpp</text>
</a>
</g>
</g>
<!-- Node2&#45;&gt;Node21 -->
<g id="edge15" class="edge">
<title>Node2&#45;&gt;Node21</title>
<path fill="none" stroke="midnightblue" d="M2782.65,-131.39C2553.8,-128.68 1680.99,-116.6 1407.03,-87 1394.43,-85.64 1380.81,-83.38 1368.54,-81.05"/>
<polygon fill="midnightblue" stroke="midnightblue" points="2782.7,-134.89 2792.74,-131.51 2782.79,-127.89 2782.7,-134.89"/>
</g>
<!-- Node22 -->
<g id="node16" class="node">
<title>Node22</title>
<g id="a_node16"><a xlink:href="AttitudeEstimatorUtils_8h.html" target="_top" xlink:title=" ">
<polygon fill="none" stroke="red" points="1416.03,-62 1416.03,-81 1550.03,-81 1550.03,-62 1416.03,-62"/>
<text text-anchor="middle" x="1483.03" y="-69" font-family="FreeSans.ttf" font-size="10.00">AttitudeEstimatorUtils.h</text>
</a>
</g>
</g>
<!-- Node2&#45;&gt;Node22 -->
<g id="edge16" class="edge">
<title>Node2&#45;&gt;Node22</title>
<path fill="none" stroke="midnightblue" d="M2782.71,-131.18C2569.58,-127.86 1801.54,-114.24 1559.03,-87 1546.75,-85.62 1533.48,-83.36 1521.52,-81.03"/>
<polygon fill="midnightblue" stroke="midnightblue" points="2782.97,-134.69 2793.02,-131.34 2783.08,-127.69 2782.97,-134.69"/>
</g>
<!-- Node26 -->
<g id="node17" class="node">
<title>Node26</title>
<g id="a_node17"><a xlink:href="GravityCompensationHelpers_8h.html" target="_top" xlink:title=" ">
<polygon fill="none" stroke="red" points="1568.03,-62 1568.03,-81 1738.03,-81 1738.03,-62 1568.03,-62"/>
<text text-anchor="middle" x="1653.03" y="-69" font-family="FreeSans.ttf" font-size="10.00">GravityCompensationHelpers.h</text>
</a>
</g>
</g>
<!-- Node2&#45;&gt;Node26 -->
<g id="edge17" class="edge">
<title>Node2&#45;&gt;Node26</title>
<path fill="none" stroke="midnightblue" d="M2782.86,-131.9C2622.51,-131.14 2142.82,-125.57 1747.03,-87 1732.24,-85.56 1716.23,-83.34 1701.69,-81.07"/>
<polygon fill="midnightblue" stroke="midnightblue" points="2782.94,-135.4 2792.96,-131.94 2782.97,-128.4 2782.94,-135.4"/>
</g>
<!-- Node28 -->
<g id="node18" class="node">
<title>Node28</title>
<g id="a_node18"><a xlink:href="KalmanFilter_8h.html" target="_top" xlink:title=" ">
<polygon fill="none" stroke="red" points="1756.53,-62 1756.53,-81 1843.53,-81 1843.53,-62 1756.53,-62"/>
<text text-anchor="middle" x="1800.03" y="-69" font-family="FreeSans.ttf" font-size="10.00">KalmanFilter.h</text>
</a>
</g>
</g>
<!-- Node2&#45;&gt;Node28 -->
<g id="edge18" class="edge">
<title>Node2&#45;&gt;Node28</title>
<path fill="none" stroke="midnightblue" d="M2782.91,-131.12C2602.89,-128.01 2033.47,-116.05 1852.03,-87 1843.51,-85.64 1834.4,-83.38 1826.23,-81.05"/>
<polygon fill="midnightblue" stroke="midnightblue" points="2782.89,-134.62 2792.94,-131.3 2783,-127.63 2782.89,-134.62"/>
</g>
<!-- Node30 -->
<g id="node19" class="node">
<title>Node30</title>
<g id="a_node19"><a xlink:href="BerdyHelper_8cpp.html" target="_top" xlink:title=" ">
<polygon fill="none" stroke="black" points="1861.53,-62 1861.53,-81 1958.53,-81 1958.53,-62 1861.53,-62"/>
<text text-anchor="middle" x="1910.03" y="-69" font-family="FreeSans.ttf" font-size="10.00">BerdyHelper.cpp</text>
</a>
</g>
</g>
<!-- Node2&#45;&gt;Node30 -->
<g id="edge19" class="edge">
<title>Node2&#45;&gt;Node30</title>
<path fill="none" stroke="midnightblue" d="M2782.31,-130.53C2616.2,-125.91 2126.11,-110.62 1968.03,-87 1958.69,-85.6 1948.66,-83.37 1939.61,-81.07"/>
<polygon fill="midnightblue" stroke="midnightblue" points="2782.69,-134.04 2792.78,-130.82 2782.88,-127.04 2782.69,-134.04"/>
</g>
<!-- Node31 -->
<g id="node20" class="node">
<title>Node31</title>
<g id="a_node20"><a xlink:href="BerdySparseMAPSolver_8cpp.html" target="_top" xlink:title=" ">
<polygon fill="none" stroke="black" points="1977.03,-62 1977.03,-81 2127.03,-81 2127.03,-62 1977.03,-62"/>
<text text-anchor="middle" x="2052.03" y="-69" font-family="FreeSans.ttf" font-size="10.00">BerdySparseMAPSolver.cpp</text>
</a>
</g>
</g>
<!-- Node2&#45;&gt;Node31 -->
<g id="edge20" class="edge">
<title>Node2&#45;&gt;Node31</title>
<path fill="none" stroke="midnightblue" d="M2782.4,-130.46C2663.44,-126.71 2375.61,-115.27 2136.03,-87 2123.1,-85.47 2109.13,-83.28 2096.37,-81.07"/>
<polygon fill="midnightblue" stroke="midnightblue" points="2782.6,-133.96 2792.71,-130.77 2782.82,-126.97 2782.6,-133.96"/>
</g>
<!-- Node32 -->
<g id="node21" class="node">
<title>Node32</title>
<g id="a_node21"><a xlink:href="ExtendedKalmanFilter_8cpp.html" target="_top" xlink:title=" ">
<polygon fill="none" stroke="black" points="2145.03,-62 2145.03,-81 2289.03,-81 2289.03,-62 2145.03,-62"/>
<text text-anchor="middle" x="2217.03" y="-69" font-family="FreeSans.ttf" font-size="10.00">ExtendedKalmanFilter.cpp</text>
</a>
</g>
</g>
<!-- Node2&#45;&gt;Node32 -->
<g id="edge21" class="edge">
<title>Node2&#45;&gt;Node32</title>
<path fill="none" stroke="midnightblue" d="M2782.45,-129.1C2684.35,-123.59 2474.2,-110.06 2298.03,-87 2285.71,-85.39 2272.4,-83.2 2260.21,-81.01"/>
<polygon fill="midnightblue" stroke="midnightblue" points="2782.54,-132.61 2792.72,-129.67 2782.93,-125.62 2782.54,-132.61"/>
</g>
<!-- Node33 -->
<g id="node22" class="node">
<title>Node33</title>
<g id="a_node22"><a xlink:href="ExternalWrenchesEstimation_8cpp.html" target="_top" xlink:title=" ">
<polygon fill="none" stroke="black" points="2307.03,-62 2307.03,-81 2485.03,-81 2485.03,-62 2307.03,-62"/>
<text text-anchor="middle" x="2396.03" y="-69" font-family="FreeSans.ttf" font-size="10.00">ExternalWrenchesEstimation.cpp</text>
</a>
</g>
</g>
<!-- Node2&#45;&gt;Node33 -->
<g id="edge22" class="edge">
<title>Node2&#45;&gt;Node33</title>
<path fill="none" stroke="midnightblue" d="M2782.86,-125.07C2714.89,-116.47 2595.88,-101.2 2494.03,-87 2480.57,-85.12 2466.09,-83.03 2452.49,-81.02"/>
<polygon fill="midnightblue" stroke="midnightblue" points="2782.56,-128.56 2792.92,-126.34 2783.44,-121.62 2782.56,-128.56"/>
</g>
<!-- Node34 -->
<g id="node23" class="node">
<title>Node34</title>
<g id="a_node23"><a xlink:href="ExtWrenchesAndJointTorquesEstimator_8cpp.html" target="_top" xlink:title=" ">
<polygon fill="none" stroke="black" points="2503.03,-56.5 2503.03,-86.5 2661.03,-86.5 2661.03,-56.5 2503.03,-56.5"/>
<text text-anchor="start" x="2511.03" y="-74.5" font-family="FreeSans.ttf" font-size="10.00">ExtWrenchesAndJointTorques</text>
<text text-anchor="middle" x="2582.03" y="-63.5" font-family="FreeSans.ttf" font-size="10.00">Estimator.cpp</text>
</a>
</g>
</g>
<!-- Node2&#45;&gt;Node34 -->
<g id="edge23" class="edge">
<title>Node2&#45;&gt;Node34</title>
<path fill="none" stroke="midnightblue" d="M2791.43,-121.17C2749.6,-111.45 2687.95,-97.12 2642.36,-86.52"/>
<polygon fill="midnightblue" stroke="midnightblue" points="2790.82,-124.62 2801.35,-123.48 2792.4,-117.8 2790.82,-124.62"/>
</g>
<!-- Node35 -->
<g id="node24" class="node">
<title>Node35</title>
<g id="a_node24"><a xlink:href="SimpleLeggedOdometry_8cpp.html" target="_top" xlink:title=" ">
<polygon fill="none" stroke="black" points="2679.53,-62 2679.53,-81 2832.53,-81 2832.53,-62 2679.53,-62"/>
<text text-anchor="middle" x="2756.03" y="-69" font-family="FreeSans.ttf" font-size="10.00">SimpleLeggedOdometry.cpp</text>
</a>
</g>
</g>
<!-- Node2&#45;&gt;Node35 -->
<g id="edge24" class="edge">
<title>Node2&#45;&gt;Node35</title>
<path fill="none" stroke="midnightblue" d="M2817.76,-117.29C2802.03,-105.88 2780.78,-90.46 2767.76,-81.01"/>
<polygon fill="midnightblue" stroke="midnightblue" points="2816.13,-120.43 2826.28,-123.48 2820.24,-114.77 2816.13,-120.43"/>
</g>
<!-- Node36 -->
<g id="node25" class="node">
<title>Node36</title>
<g id="a_node25"><a xlink:href="KinDynComputations_8cpp.html" target="_top" xlink:title=" ">
<polygon fill="none" stroke="black" points="136.03,-62 136.03,-81 276.03,-81 276.03,-62 136.03,-62"/>
<text text-anchor="middle" x="206.03" y="-69" font-family="FreeSans.ttf" font-size="10.00">KinDynComputations.cpp</text>
</a>
</g>
</g>
<!-- Node2&#45;&gt;Node36 -->
<g id="edge25" class="edge">
<title>Node2&#45;&gt;Node36</title>
<path fill="none" stroke="midnightblue" d="M2782.73,-132.26C2457.77,-133.6 793.67,-137.82 285.03,-87 271.99,-85.7 257.87,-83.4 245.23,-81.01"/>
<polygon fill="midnightblue" stroke="midnightblue" points="2782.85,-135.76 2792.84,-132.22 2782.82,-128.76 2782.85,-135.76"/>
</g>
<!-- Node37 -->
<g id="node26" class="node">
<title>Node37</title>
<g id="a_node26"><a xlink:href="BoundingBoxHelpers_8cpp.html" target="_top" xlink:title=" ">
<polygon fill="none" stroke="black" points="2850.53,-62 2850.53,-81 2989.53,-81 2989.53,-62 2850.53,-62"/>
<text text-anchor="middle" x="2920.03" y="-69" font-family="FreeSans.ttf" font-size="10.00">BoundingBoxHelpers.cpp</text>
</a>
</g>
</g>
<!-- Node2&#45;&gt;Node37 -->
<g id="edge26" class="edge">
<title>Node2&#45;&gt;Node37</title>
<path fill="none" stroke="midnightblue" d="M2858.3,-117.29C2874.03,-105.88 2895.28,-90.46 2908.3,-81.01"/>
<polygon fill="midnightblue" stroke="midnightblue" points="2855.82,-114.77 2849.78,-123.48 2859.93,-120.43 2855.82,-114.77"/>
</g>
<!-- Node38 -->
<g id="node27" class="node">
<title>Node38</title>
<g id="a_node27"><a xlink:href="ConvexHullHelpers_8cpp.html" target="_top" xlink:title=" ">
<polygon fill="none" stroke="black" points="3007.53,-62 3007.53,-81 3138.53,-81 3138.53,-62 3007.53,-62"/>
<text text-anchor="middle" x="3073.03" y="-69" font-family="FreeSans.ttf" font-size="10.00">ConvexHullHelpers.cpp</text>
</a>
</g>
</g>
<!-- Node2&#45;&gt;Node38 -->
<g id="edge27" class="edge">
<title>Node2&#45;&gt;Node38</title>
<path fill="none" stroke="midnightblue" d="M2881.6,-120.97C2927.23,-109.41 2997.92,-91.52 3039.42,-81.01"/>
<polygon fill="midnightblue" stroke="midnightblue" points="2880.53,-117.63 2871.7,-123.48 2882.25,-124.41 2880.53,-117.63"/>
</g>
<!-- Node39 -->
<g id="node28" class="node">
<title>Node39</title>
<g id="a_node28"><a xlink:href="InverseKinematicsData_8cpp.html" target="_top" xlink:title=" ">
<polygon fill="none" stroke="black" points="294.53,-62 294.53,-81 445.53,-81 445.53,-62 294.53,-62"/>
<text text-anchor="middle" x="370.03" y="-69" font-family="FreeSans.ttf" font-size="10.00">InverseKinematicsData.cpp</text>
</a>
</g>
</g>
<!-- Node2&#45;&gt;Node39 -->
<g id="edge28" class="edge">
<title>Node2&#45;&gt;Node39</title>
<path fill="none" stroke="midnightblue" d="M2782.49,-132.08C2469.98,-132.39 928.05,-131.56 455.03,-87 441.17,-85.69 426.16,-83.42 412.67,-81.06"/>
<polygon fill="midnightblue" stroke="midnightblue" points="2782.66,-135.58 2792.66,-132.07 2782.65,-128.58 2782.66,-135.58"/>
</g>
<!-- Node40 -->
<g id="node29" class="node">
<title>Node40</title>
<g id="a_node29"><a xlink:href="InverseKinematicsNLP_8cpp.html" target="_top" xlink:title=" ">
<polygon fill="none" stroke="black" points="3156.53,-62 3156.53,-81 3301.53,-81 3301.53,-62 3156.53,-62"/>
<text text-anchor="middle" x="3229.03" y="-69" font-family="FreeSans.ttf" font-size="10.00">InverseKinematicsNLP.cpp</text>
</a>
</g>
</g>
<!-- Node2&#45;&gt;Node40 -->
<g id="edge29" class="edge">
<title>Node2&#45;&gt;Node40</title>
<path fill="none" stroke="midnightblue" d="M2893.06,-124.5C2954.92,-115.95 3058.31,-101.3 3147.03,-87 3158.45,-85.16 3170.74,-83.05 3182.24,-81.03"/>
<polygon fill="midnightblue" stroke="midnightblue" points="2892.56,-121.04 2883.13,-125.87 2893.51,-127.97 2892.56,-121.04"/>
</g>
<!-- Node41 -->
<g id="node30" class="node">
<title>Node41</title>
<g id="a_node30"><a xlink:href="DenavitHartenberg_8cpp.html" target="_top" xlink:title=" ">
<polygon fill="none" stroke="black" points="4961.03,-62 4961.03,-81 5091.03,-81 5091.03,-62 4961.03,-62"/>
<text text-anchor="middle" x="5026.03" y="-69" font-family="FreeSans.ttf" font-size="10.00">DenavitHartenberg.cpp</text>
</a>
</g>
</g>
<!-- Node2&#45;&gt;Node41 -->
<g id="edge30" class="edge">
<title>Node2&#45;&gt;Node41</title>
<path fill="none" stroke="midnightblue" d="M2893.55,-132.02C3184.07,-131.94 4531.8,-129.26 4947.03,-87 4959.93,-85.69 4973.88,-83.41 4986.42,-81.05"/>
<polygon fill="midnightblue" stroke="midnightblue" points="2893.26,-128.52 2883.26,-132.02 2893.27,-135.52 2893.26,-128.52"/>
</g>
<!-- Node42 -->
<g id="node31" class="node">
<title>Node42</title>
<g id="a_node31"><a xlink:href="Dynamics_8cpp.html" target="_top" xlink:title=" ">
<polygon fill="none" stroke="black" points="3320.03,-62 3320.03,-81 3406.03,-81 3406.03,-62 3320.03,-62"/>
<text text-anchor="middle" x="3363.03" y="-69" font-family="FreeSans.ttf" font-size="10.00">Dynamics.cpp</text>
</a>
</g>
</g>
<!-- Node2&#45;&gt;Node42 -->
<g id="edge31" class="edge">
<title>Node2&#45;&gt;Node42</title>
<path fill="none" stroke="midnightblue" d="M2893.38,-129.81C2981.99,-125.61 3160.88,-114.3 3310.03,-87 3318.38,-85.47 3327.33,-83.25 3335.45,-81.01"/>
<polygon fill="midnightblue" stroke="midnightblue" points="2893.12,-126.32 2883.29,-130.28 2893.44,-133.31 2893.12,-126.32"/>
</g>
<!-- Node43 -->
<g id="node32" class="node">
<title>Node43</title>
<g id="a_node32"><a xlink:href="DynamicsLinearization_8cpp.html" target="_top" xlink:title=" ">
<polygon fill="none" stroke="black" points="3525.53,-62 3525.53,-81 3674.53,-81 3674.53,-62 3525.53,-62"/>
<text text-anchor="middle" x="3600.03" y="-69" font-family="FreeSans.ttf" font-size="10.00">DynamicsLinearization.cpp</text>
</a>
</g>
</g>
<!-- Node2&#45;&gt;Node43 -->
<g id="edge32" class="edge">
<title>Node2&#45;&gt;Node43</title>
<path fill="none" stroke="midnightblue" d="M2893.46,-130.29C3009.38,-126.27 3285.77,-114.44 3516.03,-87 3528.96,-85.46 3542.93,-83.26 3555.69,-81.05"/>
<polygon fill="midnightblue" stroke="midnightblue" points="2893.28,-126.79 2883.41,-130.63 2893.52,-133.79 2893.28,-126.79"/>
</g>
<!-- Node44 -->
<g id="node33" class="node">
<title>Node44</title>
<g id="a_node33"><a xlink:href="DynamicsLinearizationHelpers_8cpp.html" target="_top" xlink:title=" ">
<polygon fill="none" stroke="black" points="3692.03,-62 3692.03,-81 3878.03,-81 3878.03,-62 3692.03,-62"/>
<text text-anchor="middle" x="3785.03" y="-69" font-family="FreeSans.ttf" font-size="10.00">DynamicsLinearizationHelpers.cpp</text>
</a>
</g>
</g>
<!-- Node2&#45;&gt;Node44 -->
<g id="edge33" class="edge">
<title>Node2&#45;&gt;Node44</title>
<path fill="none" stroke="midnightblue" d="M2893.6,-130.73C3028.92,-127.28 3386.27,-115.94 3683.03,-87 3698.78,-85.46 3715.84,-83.26 3731.4,-81.03"/>
<polygon fill="midnightblue" stroke="midnightblue" points="2893.39,-127.24 2883.48,-130.99 2893.56,-134.23 2893.39,-127.24"/>
</g>
<!-- Node45 -->
<g id="node34" class="node">
<title>Node45</title>
<g id="a_node34"><a xlink:href="Jacobians_8cpp.html" target="_top" xlink:title=" ">
<polygon fill="none" stroke="black" points="3896.53,-62 3896.53,-81 3979.53,-81 3979.53,-62 3896.53,-62"/>
<text text-anchor="middle" x="3938.03" y="-69" font-family="FreeSans.ttf" font-size="10.00">Jacobians.cpp</text>
</a>
</g>
</g>
<!-- Node2&#45;&gt;Node45 -->
<g id="edge34" class="edge">
<title>Node2&#45;&gt;Node45</title>
<path fill="none" stroke="midnightblue" d="M2893.47,-131.33C3081.35,-128.8 3692.97,-118.31 3887.03,-87 3895.39,-85.65 3904.33,-83.4 3912.35,-81.07"/>
<polygon fill="midnightblue" stroke="midnightblue" points="2893.23,-127.84 2883.28,-131.47 2893.32,-134.83 2893.23,-127.84"/>
</g>
<!-- Node46 -->
<g id="node35" class="node">
<title>Node46</title>
<g id="a_node35"><a xlink:href="Model_8cpp.html" target="_top" xlink:title=" ">
<polygon fill="none" stroke="black" points="3997.53,-62 3997.53,-81 4064.53,-81 4064.53,-62 3997.53,-62"/>
<text text-anchor="middle" x="4031.03" y="-69" font-family="FreeSans.ttf" font-size="10.00">Model.cpp</text>
</a>
</g>
</g>
<!-- Node2&#45;&gt;Node46 -->
<g id="edge35" class="edge">
<title>Node2&#45;&gt;Node46</title>
<path fill="none" stroke="midnightblue" d="M2893.44,-131.92C3092.98,-131.33 3774.23,-126.38 3988.03,-87 3995.16,-85.69 4002.72,-83.44 4009.47,-81.11"/>
<polygon fill="midnightblue" stroke="midnightblue" points="2893.19,-128.43 2883.2,-131.95 2893.21,-135.43 2893.19,-128.43"/>
</g>
<!-- Node47 -->
<g id="node36" class="node">
<title>Node47</title>
<g id="a_node36"><a xlink:href="URDFModelExport_8cpp.html" target="_top" xlink:title=" ">
<polygon fill="none" stroke="black" points="5109.03,-62 5109.03,-81 5235.03,-81 5235.03,-62 5109.03,-62"/>
<text text-anchor="middle" x="5172.03" y="-69" font-family="FreeSans.ttf" font-size="10.00">URDFModelExport.cpp</text>
</a>
</g>
</g>
<!-- Node2&#45;&gt;Node47 -->
<g id="edge36" class="edge">
<title>Node2&#45;&gt;Node47</title>
<path fill="none" stroke="midnightblue" d="M2893.64,-132.24C3196.84,-133.36 4653.15,-136.04 5100.03,-87 5111.82,-85.71 5124.54,-83.44 5135.97,-81.08"/>
<polygon fill="midnightblue" stroke="midnightblue" points="2893.36,-128.74 2883.35,-132.2 2893.33,-135.74 2893.36,-128.74"/>
</g>
<!-- Node48 -->
<g id="node37" class="node">
<title>Node48</title>
<g id="a_node37"><a xlink:href="AlglibInterface_8cpp.html" target="_top" xlink:title=" ">
<polygon fill="none" stroke="black" points="4083.03,-62 4083.03,-81 4191.03,-81 4191.03,-62 4083.03,-62"/>
<text text-anchor="middle" x="4137.03" y="-69" font-family="FreeSans.ttf" font-size="10.00">AlglibInterface.cpp</text>
</a>
</g>
</g>
<!-- Node2&#45;&gt;Node48 -->
<g id="edge37" class="edge">
<title>Node2&#45;&gt;Node48</title>
<path fill="none" stroke="midnightblue" d="M2893.22,-131.36C3101.53,-128.71 3840.01,-117.37 4073.03,-87 4083.42,-85.65 4094.61,-83.39 4104.68,-81.06"/>
<polygon fill="midnightblue" stroke="midnightblue" points="2893.08,-127.86 2883.13,-131.48 2893.17,-134.86 2893.08,-127.86"/>
</g>
<!-- Node49 -->
<g id="node38" class="node">
<title>Node49</title>
<g id="a_node38"><a xlink:href="ConstraintsGroup_8cpp.html" target="_top" xlink:title=" ">
<polygon fill="none" stroke="black" points="4209.03,-62 4209.03,-81 4331.03,-81 4331.03,-62 4209.03,-62"/>
<text text-anchor="middle" x="4270.03" y="-69" font-family="FreeSans.ttf" font-size="10.00">ConstraintsGroup.cpp</text>
</a>
</g>
</g>
<!-- Node2&#45;&gt;Node49 -->
<g id="edge38" class="edge">
<title>Node2&#45;&gt;Node49</title>
<path fill="none" stroke="midnightblue" d="M2893.28,-131.44C3114.99,-128.98 3940.59,-117.93 4200.03,-87 4211.37,-85.65 4223.6,-83.4 4234.61,-81.06"/>
<polygon fill="midnightblue" stroke="midnightblue" points="2893.14,-127.94 2883.18,-131.55 2893.22,-134.94 2893.14,-127.94"/>
</g>
<!-- Node50 -->
<g id="node39" class="node">
<title>Node50</title>
<g id="a_node39"><a xlink:href="FixedStepIntegrator_8cpp.html" target="_top" xlink:title=" ">
<polygon fill="none" stroke="black" points="4349.53,-62 4349.53,-81 4480.53,-81 4480.53,-62 4349.53,-62"/>
<text text-anchor="middle" x="4415.03" y="-69" font-family="FreeSans.ttf" font-size="10.00">FixedStepIntegrator.cpp</text>
</a>
</g>
</g>
<!-- Node2&#45;&gt;Node50 -->
<g id="edge39" class="edge">
<title>Node2&#45;&gt;Node50</title>
<path fill="none" stroke="midnightblue" d="M2893.43,-131.54C3129.37,-129.37 4051.48,-119 4340.03,-87 4352.16,-85.65 4365.25,-83.4 4377.06,-81.07"/>
<polygon fill="midnightblue" stroke="midnightblue" points="2893.33,-128.04 2883.37,-131.63 2893.4,-135.04 2893.33,-128.04"/>
</g>
<!-- Node2&#45;&gt;Node65 -->
<g id="edge40" class="edge">
<title>Node2&#45;&gt;Node65</title>
<path fill="none" stroke="midnightblue" d="M2782.8,-131.53C2516.85,-129.14 1366.45,-117.2 1009.03,-87 992.86,-85.63 975.32,-83.36 959.51,-81.02"/>
<polygon fill="midnightblue" stroke="midnightblue" points="2782.95,-135.03 2792.98,-131.62 2783.01,-128.03 2782.95,-135.03"/>
</g>
<!-- Node3&#45;&gt;Node6 -->
<g id="edge3" class="edge">
<title>Node3&#45;&gt;Node6</title>
<path fill="none" stroke="midnightblue" d="M3430.8,-59.25C3425.56,-57.94 3420.19,-56.79 3415.03,-56 3252.02,-31.06 2071.61,-15.2 1788.12,-11.72"/>
<polygon fill="midnightblue" stroke="midnightblue" points="3430.05,-62.68 3440.62,-61.93 3431.89,-55.92 3430.05,-62.68"/>
</g>
<!-- Node3&#45;&gt;Node8 -->
<g id="edge4" class="edge">
<title>Node3&#45;&gt;Node8</title>
<path fill="none" stroke="midnightblue" d="M3500.96,-59.17C3505.97,-57.9 3511.1,-56.78 3516.03,-56 3780.86,-14.08 4621.28,-10.92 4865.73,-10.91"/>
<polygon fill="midnightblue" stroke="midnightblue" points="3499.63,-55.91 3490.93,-61.95 3501.5,-62.65 3499.63,-55.91"/>
</g>
<!-- Node81&#45;&gt;Node12 -->
<g id="edge42" class="edge">
<title>Node81&#45;&gt;Node12</title>
<path fill="none" stroke="midnightblue" d="M620,-119.33C646.4,-107.78 684.67,-91.03 707.58,-81.01"/>
<polygon fill="midnightblue" stroke="midnightblue" points="618.27,-116.26 610.51,-123.48 621.08,-122.67 618.27,-116.26"/>
</g>
<!-- Node81&#45;&gt;Node16 -->
<g id="edge43" class="edge">
<title>Node81&#45;&gt;Node16</title>
<path fill="none" stroke="midnightblue" d="M569.51,-117.61C552.39,-106.17 529.02,-90.55 514.76,-81.01"/>
<polygon fill="midnightblue" stroke="midnightblue" points="568.02,-120.83 578.28,-123.48 571.91,-115.01 568.02,-120.83"/>
</g>
<!-- Node81&#45;&gt;Node17 -->
<g id="edge44" class="edge">
<title>Node81&#45;&gt;Node17</title>
<path fill="none" stroke="midnightblue" d="M592.91,-113.32C594,-102.5 595.32,-89.4 596.17,-81.01"/>
<polygon fill="midnightblue" stroke="midnightblue" points="589.41,-113.17 591.89,-123.48 596.37,-113.88 589.41,-113.17"/>
</g>
<!-- Node81&#45;&gt;Node20 -->
<g id="edge45" class="edge">
<title>Node81&#45;&gt;Node20</title>
<path fill="none" stroke="midnightblue" d="M542.46,-128.16C440.28,-119.94 206.02,-100.31 127.03,-87 117.73,-85.43 107.73,-83.23 98.62,-81.01"/>
<polygon fill="midnightblue" stroke="midnightblue" points="542.26,-131.66 552.51,-128.97 542.82,-124.68 542.26,-131.66"/>
</g>
<!-- Node81&#45;&gt;Node36 -->
<g id="edge46" class="edge">
<title>Node81&#45;&gt;Node36</title>
<path fill="none" stroke="midnightblue" d="M542.3,-125.38C481.85,-117.04 375.67,-101.98 285.03,-87 274.02,-85.18 262.18,-83.08 251.1,-81.06"/>
<polygon fill="midnightblue" stroke="midnightblue" points="541.93,-128.86 552.32,-126.76 542.89,-121.93 541.93,-128.86"/>
</g>
<!-- Node81&#45;&gt;Node39 -->
<g id="edge47" class="edge">
<title>Node81&#45;&gt;Node39</title>
<path fill="none" stroke="midnightblue" d="M549.51,-120.82C506.58,-109.26 440.5,-91.47 401.63,-81.01"/>
<polygon fill="midnightblue" stroke="midnightblue" points="548.8,-124.25 559.37,-123.48 550.62,-117.5 548.8,-124.25"/>
</g>
<!-- Node81&#45;&gt;Node65 -->
<g id="edge48" class="edge">
<title>Node81&#45;&gt;Node65</title>
<path fill="none" stroke="midnightblue" d="M639.83,-122.87C700.74,-111.47 804.09,-92.14 863.45,-81.03"/>
<polygon fill="midnightblue" stroke="midnightblue" points="638.89,-119.48 629.7,-124.76 640.18,-126.36 638.89,-119.48"/>
</g>
<!-- Node184&#45;&gt;Node16 -->
<g id="edge50" class="edge">
<title>Node184&#45;&gt;Node16</title>
<path fill="none" stroke="midnightblue" d="M453.06,-116.65C465.64,-105.31 482.31,-90.28 492.59,-81.01"/>
<polygon fill="midnightblue" stroke="midnightblue" points="450.57,-114.18 445.49,-123.48 455.26,-119.38 450.57,-114.18"/>
</g>
<!-- Node184&#45;&gt;Node17 -->
<g id="edge51" class="edge">
<title>Node184&#45;&gt;Node17</title>
<path fill="none" stroke="midnightblue" d="M468.68,-119.93C499.97,-108.37 546.41,-91.21 574,-81.01"/>
<polygon fill="midnightblue" stroke="midnightblue" points="467.26,-116.73 459.1,-123.48 469.69,-123.29 467.26,-116.73"/>
</g>
<!-- Node184&#45;&gt;Node20 -->
<g id="edge52" class="edge">
<title>Node184&#45;&gt;Node20</title>
<path fill="none" stroke="midnightblue" d="M400.62,-127.92C343,-121.05 225.49,-106.02 127.03,-87 118.19,-85.29 108.69,-83.14 99.92,-81.03"/>
<polygon fill="midnightblue" stroke="midnightblue" points="400.32,-131.41 410.66,-129.11 401.14,-124.46 400.32,-131.41"/>
</g>
<!-- Node184&#45;&gt;Node36 -->
<g id="edge53" class="edge">
<title>Node184&#45;&gt;Node36</title>
<path fill="none" stroke="midnightblue" d="M401.04,-122.95C357.09,-111.58 282.25,-92.22 239.19,-81.08"/>
<polygon fill="midnightblue" stroke="midnightblue" points="400.42,-126.4 410.98,-125.52 402.17,-119.63 400.42,-126.4"/>
</g>
<!-- Node184&#45;&gt;Node39 -->
<g id="edge54" class="edge">
<title>Node184&#45;&gt;Node39</title>
<path fill="none" stroke="midnightblue" d="M419,-116.65C406.42,-105.31 389.75,-90.28 379.47,-81.01"/>
<polygon fill="midnightblue" stroke="midnightblue" points="416.8,-119.38 426.57,-123.48 421.49,-114.18 416.8,-119.38"/>
</g>
<!-- Node188&#45;&gt;Node47 -->
<g id="edge62" class="edge">
<title>Node188&#45;&gt;Node47</title>
<path fill="none" stroke="midnightblue" d="M5159.58,-113.66C5162.87,-102.77 5166.89,-89.49 5169.45,-81.01"/>
<polygon fill="midnightblue" stroke="midnightblue" points="5156.15,-112.89 5156.61,-123.48 5162.85,-114.92 5156.15,-112.89"/>
</g>
<!-- Node190&#45;&gt;Node41 -->
<g id="edge64" class="edge">
<title>Node190&#45;&gt;Node41</title>
<path fill="none" stroke="midnightblue" d="M5038.48,-113.66C5035.19,-102.77 5031.17,-89.49 5028.6,-81.01"/>
<polygon fill="midnightblue" stroke="midnightblue" points="5035.2,-114.92 5041.45,-123.48 5041.9,-112.89 5035.2,-114.92"/>
</g>
<!-- Node190&#45;&gt;Node47 -->
<g id="edge65" class="edge">
<title>Node190&#45;&gt;Node47</title>
<path fill="none" stroke="midnightblue" d="M5071.62,-119.17C5096.46,-107.63 5132.26,-90.99 5153.72,-81.01"/>
<polygon fill="midnightblue" stroke="midnightblue" points="5069.96,-116.09 5062.37,-123.48 5072.91,-122.43 5069.96,-116.09"/>
</g>
</g>
</svg>
