<?xml version="1.0" encoding="UTF-8" standalone="no"?>
<!DOCTYPE svg PUBLIC "-//W3C//DTD SVG 1.1//EN"
 "http://www.w3.org/Graphics/SVG/1.1/DTD/svg11.dtd">
<!-- Generated by graphviz version 2.43.0 (0)
 -->
<!-- Title: SpatialInertiaRaw.h Pages: 1 -->
<svg width="4913pt" height="341pt"
 viewBox="0.00 0.00 4913.00 341.00" xmlns="http://www.w3.org/2000/svg" xmlns:xlink="http://www.w3.org/1999/xlink">
<g id="graph0" class="graph" transform="scale(1 1) rotate(0) translate(4 337)">
<title>SpatialInertiaRaw.h</title>
<!-- Node1 -->
<g id="node1" class="node">
<title>Node1</title>
<g id="a_node1"><a xlink:title=" ">
<polygon fill="#bfbfbf" stroke="black" points="715.5,-313.5 715.5,-332.5 826.5,-332.5 826.5,-313.5 715.5,-313.5"/>
<text text-anchor="middle" x="771" y="-320.5" font-family="FreeSans.ttf" font-size="10.00">SpatialInertiaRaw.h</text>
</a>
</g>
</g>
<!-- Node2 -->
<g id="node2" class="node">
<title>Node2</title>
<g id="a_node2"><a xlink:href="SpatialInertia_8h.html" target="_top" xlink:title=" ">
<polygon fill="none" stroke="black" points="663.5,-257.5 663.5,-276.5 754.5,-276.5 754.5,-257.5 663.5,-257.5"/>
<text text-anchor="middle" x="709" y="-264.5" font-family="FreeSans.ttf" font-size="10.00">SpatialInertia.h</text>
</a>
</g>
</g>
<!-- Node1&#45;&gt;Node2 -->
<g id="edge1" class="edge">
<title>Node1&#45;&gt;Node2</title>
<path fill="none" stroke="midnightblue" d="M753.25,-306.54C742.19,-296.91 728.37,-284.87 719.14,-276.83"/>
<polygon fill="midnightblue" stroke="midnightblue" points="751.2,-309.4 761.04,-313.32 755.8,-304.12 751.2,-309.4"/>
</g>
<!-- Node102 -->
<g id="node50" class="node">
<title>Node102</title>
<g id="a_node50"><a xlink:href="SpatialInertiaRaw_8cpp.html" target="_top" xlink:title=" ">
<polygon fill="none" stroke="black" points="773,-257.5 773,-276.5 895,-276.5 895,-257.5 773,-257.5"/>
<text text-anchor="middle" x="834" y="-264.5" font-family="FreeSans.ttf" font-size="10.00">SpatialInertiaRaw.cpp</text>
</a>
</g>
</g>
<!-- Node1&#45;&gt;Node102 -->
<g id="edge61" class="edge">
<title>Node1&#45;&gt;Node102</title>
<path fill="none" stroke="midnightblue" d="M789.04,-306.54C800.27,-296.91 814.32,-284.87 823.69,-276.83"/>
<polygon fill="midnightblue" stroke="midnightblue" points="786.44,-304.16 781.12,-313.32 790.99,-309.47 786.44,-304.16"/>
</g>
<!-- Node3 -->
<g id="node3" class="node">
<title>Node3</title>
<g id="a_node3"><a xlink:href="ArticulatedBodyInertia_8cpp.html" target="_top" xlink:title=" ">
<polygon fill="none" stroke="black" points="0,-196 0,-215 146,-215 146,-196 0,-196"/>
<text text-anchor="middle" x="73" y="-203" font-family="FreeSans.ttf" font-size="10.00">ArticulatedBodyInertia.cpp</text>
</a>
</g>
</g>
<!-- Node2&#45;&gt;Node3 -->
<g id="edge2" class="edge">
<title>Node2&#45;&gt;Node3</title>
<path fill="none" stroke="midnightblue" d="M653.05,-263.2C552.88,-257.79 336.41,-244.35 155,-221 142.53,-219.39 129.06,-217.2 116.72,-215.01"/>
<polygon fill="midnightblue" stroke="midnightblue" points="653.07,-266.7 663.25,-263.74 653.45,-259.71 653.07,-266.7"/>
</g>
<!-- Node4 -->
<g id="node4" class="node">
<title>Node4</title>
<g id="a_node4"><a xlink:href="InertiaNonLinearParametrization_8cpp.html" target="_top" xlink:title=" ">
<polygon fill="none" stroke="black" points="164.5,-196 164.5,-215 359.5,-215 359.5,-196 164.5,-196"/>
<text text-anchor="middle" x="262" y="-203" font-family="FreeSans.ttf" font-size="10.00">InertiaNonLinearParametrization.cpp</text>
</a>
</g>
</g>
<!-- Node2&#45;&gt;Node4 -->
<g id="edge3" class="edge">
<title>Node2&#45;&gt;Node4</title>
<path fill="none" stroke="midnightblue" d="M653.5,-258.76C586,-249.93 468.62,-234.52 368,-221 353.73,-219.08 338.39,-217 323.93,-215.02"/>
<polygon fill="midnightblue" stroke="midnightblue" points="653.12,-262.24 663.49,-260.06 654.02,-255.3 653.12,-262.24"/>
</g>
<!-- Node5 -->
<g id="node5" class="node">
<title>Node5</title>
<g id="a_node5"><a xlink:href="SpatialInertia_8cpp.html" target="_top" xlink:title=" ">
<polygon fill="none" stroke="black" points="377,-196 377,-215 479,-215 479,-196 377,-196"/>
<text text-anchor="middle" x="428" y="-203" font-family="FreeSans.ttf" font-size="10.00">SpatialInertia.cpp</text>
</a>
</g>
</g>
<!-- Node2&#45;&gt;Node5 -->
<g id="edge4" class="edge">
<title>Node2&#45;&gt;Node5</title>
<path fill="none" stroke="midnightblue" d="M654.37,-255.45C609.57,-246.66 544.56,-233.59 488,-221 479.74,-219.16 470.86,-217.08 462.53,-215.07"/>
<polygon fill="midnightblue" stroke="midnightblue" points="653.97,-258.94 664.45,-257.42 655.31,-252.07 653.97,-258.94"/>
</g>
<!-- Node6 -->
<g id="node6" class="node">
<title>Node6</title>
<g id="a_node6"><a xlink:href="TestUtils_8cpp.html" target="_top" xlink:title=" ">
<polygon fill="none" stroke="black" points="497.5,-196 497.5,-215 576.5,-215 576.5,-196 497.5,-196"/>
<text text-anchor="middle" x="537" y="-203" font-family="FreeSans.ttf" font-size="10.00">TestUtils.cpp</text>
</a>
</g>
</g>
<!-- Node2&#45;&gt;Node6 -->
<g id="edge5" class="edge">
<title>Node2&#45;&gt;Node6</title>
<path fill="none" stroke="midnightblue" d="M674.55,-254.08C641.12,-242.52 591.21,-225.25 561.6,-215.01"/>
<polygon fill="midnightblue" stroke="midnightblue" points="673.76,-257.51 684.36,-257.48 676.05,-250.9 673.76,-257.51"/>
</g>
<!-- Node7 -->
<g id="node7" class="node">
<title>Node7</title>
<g id="a_node7"><a xlink:href="Transform_8cpp.html" target="_top" xlink:title=" ">
<polygon fill="none" stroke="black" points="595,-196 595,-215 681,-215 681,-196 595,-196"/>
<text text-anchor="middle" x="638" y="-203" font-family="FreeSans.ttf" font-size="10.00">Transform.cpp</text>
</a>
</g>
</g>
<!-- Node2&#45;&gt;Node7 -->
<g id="edge6" class="edge">
<title>Node2&#45;&gt;Node7</title>
<path fill="none" stroke="midnightblue" d="M691.07,-250.97C677.49,-239.59 659.32,-224.37 648.15,-215.01"/>
<polygon fill="midnightblue" stroke="midnightblue" points="688.91,-253.73 698.83,-257.48 693.41,-248.37 688.91,-253.73"/>
</g>
<!-- Node8 -->
<g id="node8" class="node">
<title>Node8</title>
<g id="a_node8"><a xlink:href="KinDynComputations_8cpp.html" target="_top" xlink:title=" ">
<polygon fill="none" stroke="black" points="722,-6 722,-25 862,-25 862,-6 722,-6"/>
<text text-anchor="middle" x="792" y="-13" font-family="FreeSans.ttf" font-size="10.00">KinDynComputations.cpp</text>
</a>
</g>
</g>
<!-- Node2&#45;&gt;Node8 -->
<g id="edge7" class="edge">
<title>Node2&#45;&gt;Node8</title>
<path fill="none" stroke="midnightblue" d="M705.02,-247.41C696.13,-203.92 676.82,-96.96 695,-67 708.2,-45.25 734.16,-32.43 755.9,-25.16"/>
<polygon fill="midnightblue" stroke="midnightblue" points="701.6,-248.16 707.07,-257.23 708.46,-246.73 701.6,-248.16"/>
</g>
<!-- Node9 -->
<g id="node9" class="node">
<title>Node9</title>
<g id="a_node9"><a xlink:href="DynamicsUtils_8h.html" target="_top" xlink:title=" ">
<polygon fill="none" stroke="black" points="3279.5,-196 3279.5,-215 3376.5,-215 3376.5,-196 3279.5,-196"/>
<text text-anchor="middle" x="3328" y="-203" font-family="FreeSans.ttf" font-size="10.00">DynamicsUtils.h</text>
</a>
</g>
</g>
<!-- Node2&#45;&gt;Node9 -->
<g id="edge8" class="edge">
<title>Node2&#45;&gt;Node9</title>
<path fill="none" stroke="midnightblue" d="M764.54,-257.15C1333.99,-208.91 2716.42,-287.32 3265,-221 3275.47,-219.73 3286.75,-217.44 3296.83,-215.05"/>
<polygon fill="midnightblue" stroke="midnightblue" points="764.21,-253.66 754.55,-258.01 764.82,-260.64 764.21,-253.66"/>
</g>
<!-- Node10 -->
<g id="node10" class="node">
<title>Node10</title>
<g id="a_node10"><a xlink:href="Link_8h.html" target="_top" xlink:title=" ">
<polygon fill="none" stroke="black" points="2899,-196 2899,-215 2945,-215 2945,-196 2899,-196"/>
<text text-anchor="middle" x="2922" y="-203" font-family="FreeSans.ttf" font-size="10.00">Link.h</text>
</a>
</g>
</g>
<!-- Node2&#45;&gt;Node10 -->
<g id="edge9" class="edge">
<title>Node2&#45;&gt;Node10</title>
<path fill="none" stroke="midnightblue" d="M764.7,-257.12C1230.21,-215.51 2696.26,-207.52 2898.73,-206.6"/>
<polygon fill="midnightblue" stroke="midnightblue" points="764.2,-253.65 754.56,-258.05 764.83,-260.62 764.2,-253.65"/>
</g>
<!-- Node32 -->
<g id="node23" class="node">
<title>Node32</title>
<g id="a_node23"><a xlink:href="Dynamics_8cpp.html" target="_top" xlink:title=" ">
<polygon fill="none" stroke="black" points="704,-73 704,-92 790,-92 790,-73 704,-73"/>
<text text-anchor="middle" x="747" y="-80" font-family="FreeSans.ttf" font-size="10.00">Dynamics.cpp</text>
</a>
</g>
</g>
<!-- Node2&#45;&gt;Node32 -->
<g id="edge58" class="edge">
<title>Node2&#45;&gt;Node32</title>
<path fill="none" stroke="midnightblue" d="M715.22,-247.9C717.86,-239.75 720.83,-229.96 723,-221 734.62,-172.95 742.96,-114.17 745.87,-92.27"/>
<polygon fill="midnightblue" stroke="midnightblue" points="711.87,-246.87 712.02,-257.47 718.51,-249.09 711.87,-246.87"/>
</g>
<!-- Node51 -->
<g id="node45" class="node">
<title>Node51</title>
<g id="a_node45"><a xlink:href="URDFModelExport_8cpp.html" target="_top" xlink:title=" ">
<polygon fill="none" stroke="black" points="4779,-73 4779,-92 4905,-92 4905,-73 4779,-73"/>
<text text-anchor="middle" x="4842" y="-80" font-family="FreeSans.ttf" font-size="10.00">URDFModelExport.cpp</text>
</a>
</g>
</g>
<!-- Node2&#45;&gt;Node51 -->
<g id="edge59" class="edge">
<title>Node2&#45;&gt;Node51</title>
<path fill="none" stroke="midnightblue" d="M764.57,-257.13C1735.29,-170.89 1985.44,-276.23 2954,-221 3095.33,-212.94 3129.89,-201.28 3271,-190 3927.95,-137.48 4095.94,-170.38 4751,-98 4764.99,-96.45 4780.12,-94.26 4793.95,-92.04"/>
<polygon fill="midnightblue" stroke="midnightblue" points="764.2,-253.65 754.55,-258.02 764.83,-260.62 764.2,-253.65"/>
</g>
<!-- Node88 -->
<g id="node49" class="node">
<title>Node88</title>
<g id="a_node49"><a xlink:href="InertialParametersSolidShapesHelpers_8cpp.html" target="_top" xlink:title=" ">
<polygon fill="none" stroke="black" points="3395,-190.5 3395,-220.5 3561,-220.5 3561,-190.5 3395,-190.5"/>
<text text-anchor="start" x="3403" y="-208.5" font-family="FreeSans.ttf" font-size="10.00">InertialParametersSolidShapes</text>
<text text-anchor="middle" x="3478" y="-197.5" font-family="FreeSans.ttf" font-size="10.00">Helpers.cpp</text>
</a>
</g>
</g>
<!-- Node2&#45;&gt;Node88 -->
<g id="edge60" class="edge">
<title>Node2&#45;&gt;Node88</title>
<path fill="none" stroke="midnightblue" d="M764.82,-257.11C1926.7,-155.58 2228.17,-319.68 3386,-221 3388.9,-220.75 3391.85,-220.47 3394.82,-220.15"/>
<polygon fill="midnightblue" stroke="midnightblue" points="764.21,-253.65 754.55,-258.01 764.82,-260.62 764.21,-253.65"/>
</g>
<!-- Node11 -->
<g id="node11" class="node">
<title>Node11</title>
<g id="a_node11"><a xlink:href="Model_8h.html" target="_top" xlink:title=" ">
<polygon fill="none" stroke="red" points="2805,-134.5 2805,-153.5 2861,-153.5 2861,-134.5 2805,-134.5"/>
<text text-anchor="middle" x="2833" y="-141.5" font-family="FreeSans.ttf" font-size="10.00">Model.h</text>
</a>
</g>
</g>
<!-- Node10&#45;&gt;Node11 -->
<g id="edge10" class="edge">
<title>Node10&#45;&gt;Node11</title>
<path fill="none" stroke="midnightblue" d="M2900.48,-190.11C2883.36,-178.67 2859.99,-163.05 2845.73,-153.51"/>
<polygon fill="midnightblue" stroke="midnightblue" points="2898.99,-193.33 2909.25,-195.98 2902.88,-187.51 2898.99,-193.33"/>
</g>
<!-- Node100 -->
<g id="node46" class="node">
<title>Node100</title>
<g id="a_node46"><a xlink:href="Link_8cpp.html" target="_top" xlink:title=" ">
<polygon fill="none" stroke="black" points="2983.5,-134.5 2983.5,-153.5 3040.5,-153.5 3040.5,-134.5 2983.5,-134.5"/>
<text text-anchor="middle" x="3012" y="-141.5" font-family="FreeSans.ttf" font-size="10.00">Link.cpp</text>
</a>
</g>
</g>
<!-- Node10&#45;&gt;Node100 -->
<g id="edge53" class="edge">
<title>Node10&#45;&gt;Node100</title>
<path fill="none" stroke="midnightblue" d="M2943.28,-190.43C2960.63,-178.96 2984.57,-163.13 2999.13,-153.51"/>
<polygon fill="midnightblue" stroke="midnightblue" points="2941.31,-187.54 2934.89,-195.98 2945.17,-193.38 2941.31,-187.54"/>
</g>
<!-- Node101 -->
<g id="node47" class="node">
<title>Node101</title>
<g id="a_node47"><a xlink:href="LinkElement_8h.html" target="_top" xlink:title=" ">
<polygon fill="none" stroke="black" points="2879,-134.5 2879,-153.5 2965,-153.5 2965,-134.5 2879,-134.5"/>
<text text-anchor="middle" x="2922" y="-141.5" font-family="FreeSans.ttf" font-size="10.00">LinkElement.h</text>
</a>
</g>
</g>
<!-- Node10&#45;&gt;Node101 -->
<g id="edge54" class="edge">
<title>Node10&#45;&gt;Node101</title>
<path fill="none" stroke="midnightblue" d="M2922,-185.82C2922,-175 2922,-161.9 2922,-153.51"/>
<polygon fill="midnightblue" stroke="midnightblue" points="2918.5,-185.98 2922,-195.98 2925.5,-185.98 2918.5,-185.98"/>
</g>
<!-- Node82 -->
<g id="node48" class="node">
<title>Node82</title>
<g id="a_node48"><a xlink:href="SixAxisForceTorqueSensor_8cpp.html" target="_top" xlink:title=" ">
<polygon fill="none" stroke="black" points="3059,-134.5 3059,-153.5 3223,-153.5 3223,-134.5 3059,-134.5"/>
<text text-anchor="middle" x="3141" y="-141.5" font-family="FreeSans.ttf" font-size="10.00">SixAxisForceTorqueSensor.cpp</text>
</a>
</g>
</g>
<!-- Node10&#45;&gt;Node82 -->
<g id="edge57" class="edge">
<title>Node10&#45;&gt;Node82</title>
<path fill="none" stroke="midnightblue" d="M2954.71,-195.61C2996.5,-184.26 3068.33,-164.74 3109.52,-153.55"/>
<polygon fill="midnightblue" stroke="midnightblue" points="2953.76,-192.25 2945.02,-198.24 2955.59,-199 2953.76,-192.25"/>
</g>
<!-- Node11&#45;&gt;Node8 -->
<g id="edge18" class="edge">
<title>Node11&#45;&gt;Node8</title>
<path fill="none" stroke="midnightblue" d="M2794.35,-142.99C2526.63,-142.79 955.85,-139.84 865,-98 831.18,-82.43 806.36,-42.93 796.58,-25.27"/>
<polygon fill="midnightblue" stroke="midnightblue" points="2794.73,-146.49 2804.73,-142.99 2794.73,-139.49 2794.73,-146.49"/>
</g>
<!-- Node12 -->
<g id="node12" class="node">
<title>Node12</title>
<g id="a_node12"><a xlink:href="ExtWrenchesAndJointTorquesEstimator_8h.html" target="_top" xlink:title=" ">
<polygon fill="none" stroke="black" points="884,-67.5 884,-97.5 1042,-97.5 1042,-67.5 884,-67.5"/>
<text text-anchor="start" x="892" y="-85.5" font-family="FreeSans.ttf" font-size="10.00">ExtWrenchesAndJointTorques</text>
<text text-anchor="middle" x="963" y="-74.5" font-family="FreeSans.ttf" font-size="10.00">Estimator.h</text>
</a>
</g>
</g>
<!-- Node11&#45;&gt;Node12 -->
<g id="edge11" class="edge">
<title>Node11&#45;&gt;Node12</title>
<path fill="none" stroke="midnightblue" d="M2794.68,-142.75C2568.56,-141.19 1406.41,-131.61 1051,-98 1048.07,-97.72 1045.09,-97.41 1042.09,-97.06"/>
<polygon fill="midnightblue" stroke="midnightblue" points="2794.71,-146.25 2804.73,-142.82 2794.75,-139.25 2794.71,-146.25"/>
</g>
<!-- Node13 -->
<g id="node13" class="node">
<title>Node13</title>
<g id="a_node13"><a xlink:href="ExtWrenchesAndJointTorquesEstimator_8cpp.html" target="_top" xlink:title=" ">
<polygon fill="none" stroke="black" points="880,-0.5 880,-30.5 1038,-30.5 1038,-0.5 880,-0.5"/>
<text text-anchor="start" x="888" y="-18.5" font-family="FreeSans.ttf" font-size="10.00">ExtWrenchesAndJointTorques</text>
<text text-anchor="middle" x="959" y="-7.5" font-family="FreeSans.ttf" font-size="10.00">Estimator.cpp</text>
</a>
</g>
</g>
<!-- Node11&#45;&gt;Node13 -->
<g id="edge17" class="edge">
<title>Node11&#45;&gt;Node13</title>
<path fill="none" stroke="midnightblue" d="M2794.6,-142.86C2523.67,-141.74 909.83,-133.64 875,-98 851.35,-73.8 894,-46.61 926.71,-30.55"/>
<polygon fill="midnightblue" stroke="midnightblue" points="2794.72,-146.36 2804.73,-142.9 2794.75,-139.36 2794.72,-146.36"/>
</g>
<!-- Node14 -->
<g id="node14" class="node">
<title>Node14</title>
<g id="a_node14"><a xlink:href="GravityCompensationHelpers_8h.html" target="_top" xlink:title=" ">
<polygon fill="none" stroke="red" points="1242,-73 1242,-92 1412,-92 1412,-73 1242,-73"/>
<text text-anchor="middle" x="1327" y="-80" font-family="FreeSans.ttf" font-size="10.00">GravityCompensationHelpers.h</text>
</a>
</g>
</g>
<!-- Node11&#45;&gt;Node14 -->
<g id="edge13" class="edge">
<title>Node11&#45;&gt;Node14</title>
<path fill="none" stroke="midnightblue" d="M2794.57,-142.41C2597.49,-139.26 1698.72,-123.75 1421,-98 1405.87,-96.6 1389.48,-94.33 1374.68,-92"/>
<polygon fill="midnightblue" stroke="midnightblue" points="2794.67,-145.91 2804.73,-142.57 2794.78,-138.91 2794.67,-145.91"/>
</g>
<!-- Node16 -->
<g id="node15" class="node">
<title>Node16</title>
<g id="a_node15"><a xlink:href="SimpleLeggedOdometry_8h.html" target="_top" xlink:title=" ">
<polygon fill="none" stroke="red" points="1430,-73 1430,-92 1572,-92 1572,-73 1430,-73"/>
<text text-anchor="middle" x="1501" y="-80" font-family="FreeSans.ttf" font-size="10.00">SimpleLeggedOdometry.h</text>
</a>
</g>
</g>
<!-- Node11&#45;&gt;Node16 -->
<g id="edge14" class="edge">
<title>Node11&#45;&gt;Node16</title>
<path fill="none" stroke="midnightblue" d="M2794.62,-142.36C2611.45,-139.21 1824.96,-124.36 1581,-98 1568.09,-96.61 1554.13,-94.34 1541.53,-92.01"/>
<polygon fill="midnightblue" stroke="midnightblue" points="2794.78,-145.87 2804.84,-142.54 2794.9,-138.87 2794.78,-145.87"/>
</g>
<!-- Node18 -->
<g id="node16" class="node">
<title>Node18</title>
<g id="a_node16"><a xlink:href="BerdyHelper_8cpp.html" target="_top" xlink:title=" ">
<polygon fill="none" stroke="black" points="1590.5,-73 1590.5,-92 1687.5,-92 1687.5,-73 1590.5,-73"/>
<text text-anchor="middle" x="1639" y="-80" font-family="FreeSans.ttf" font-size="10.00">BerdyHelper.cpp</text>
</a>
</g>
</g>
<!-- Node11&#45;&gt;Node18 -->
<g id="edge15" class="edge">
<title>Node11&#45;&gt;Node18</title>
<path fill="none" stroke="midnightblue" d="M2794.86,-142.54C2622.6,-140.31 1916.01,-129.37 1697,-98 1687.55,-96.65 1677.4,-94.39 1668.27,-92.06"/>
<polygon fill="midnightblue" stroke="midnightblue" points="2794.93,-146.04 2804.97,-142.67 2795.02,-139.04 2794.93,-146.04"/>
</g>
<!-- Node19 -->
<g id="node17" class="node">
<title>Node19</title>
<g id="a_node17"><a xlink:href="ExternalWrenchesEstimation_8cpp.html" target="_top" xlink:title=" ">
<polygon fill="none" stroke="black" points="1706,-73 1706,-92 1884,-92 1884,-73 1706,-73"/>
<text text-anchor="middle" x="1795" y="-80" font-family="FreeSans.ttf" font-size="10.00">ExternalWrenchesEstimation.cpp</text>
</a>
</g>
</g>
<!-- Node11&#45;&gt;Node19 -->
<g id="edge16" class="edge">
<title>Node11&#45;&gt;Node19</title>
<path fill="none" stroke="midnightblue" d="M2794.78,-142.53C2666.87,-140.66 2242.14,-132.1 1893,-98 1877.68,-96.5 1861.09,-94.28 1846,-92.02"/>
<polygon fill="midnightblue" stroke="midnightblue" points="2794.81,-146.03 2804.86,-142.67 2794.91,-139.03 2794.81,-146.03"/>
</g>
<!-- Node20 -->
<g id="node18" class="node">
<title>Node20</title>
<g id="a_node18"><a xlink:href="skinDynLibConversionsImplementation_8h.html" target="_top" xlink:title=" ">
<polygon fill="none" stroke="red" points="1902,-73 1902,-92 2120,-92 2120,-73 1902,-73"/>
<text text-anchor="middle" x="2011" y="-80" font-family="FreeSans.ttf" font-size="10.00">skinDynLibConversionsImplementation.h</text>
</a>
</g>
</g>
<!-- Node11&#45;&gt;Node20 -->
<g id="edge19" class="edge">
<title>Node11&#45;&gt;Node20</title>
<path fill="none" stroke="midnightblue" d="M2794.57,-141.33C2688.46,-136.56 2382.47,-121.65 2129,-98 2111.33,-96.35 2092.21,-94.17 2074.62,-92.01"/>
<polygon fill="midnightblue" stroke="midnightblue" points="2794.64,-144.84 2804.79,-141.79 2794.95,-137.85 2794.64,-144.84"/>
</g>
<!-- Node22 -->
<g id="node19" class="node">
<title>Node22</title>
<g id="a_node19"><a xlink:href="InverseKinematicsData_8h.html" target="_top" xlink:title=" ">
<polygon fill="none" stroke="red" points="2138,-73 2138,-92 2278,-92 2278,-73 2138,-73"/>
<text text-anchor="middle" x="2208" y="-80" font-family="FreeSans.ttf" font-size="10.00">InverseKinematicsData.h</text>
</a>
</g>
</g>
<!-- Node11&#45;&gt;Node22 -->
<g id="edge20" class="edge">
<title>Node11&#45;&gt;Node22</title>
<path fill="none" stroke="midnightblue" d="M2794.57,-141.15C2705.2,-136.55 2476.59,-123.15 2287,-98 2274.97,-96.4 2262,-94.22 2250.11,-92.03"/>
<polygon fill="midnightblue" stroke="midnightblue" points="2794.6,-144.65 2804.76,-141.66 2794.95,-137.66 2794.6,-144.65"/>
</g>
<!-- Node25 -->
<g id="node20" class="node">
<title>Node25</title>
<g id="a_node20"><a xlink:href="DenavitHartenberg_8h.html" target="_top" xlink:title=" ">
<polygon fill="none" stroke="red" points="2296.5,-73 2296.5,-92 2415.5,-92 2415.5,-73 2296.5,-73"/>
<text text-anchor="middle" x="2356" y="-80" font-family="FreeSans.ttf" font-size="10.00">DenavitHartenberg.h</text>
</a>
</g>
</g>
<!-- Node11&#45;&gt;Node25 -->
<g id="edge21" class="edge">
<title>Node11&#45;&gt;Node25</title>
<path fill="none" stroke="midnightblue" d="M2794.65,-140.02C2722.15,-134.12 2560.15,-119.6 2425,-98 2414.73,-96.36 2403.67,-94.21 2393.48,-92.07"/>
<polygon fill="midnightblue" stroke="midnightblue" points="2794.43,-143.52 2804.68,-140.83 2794.99,-136.54 2794.43,-143.52"/>
</g>
<!-- Node30 -->
<g id="node21" class="node">
<title>Node30</title>
<g id="a_node21"><a xlink:href="ModelTestUtils_8h.html" target="_top" xlink:title=" ">
<polygon fill="none" stroke="red" points="2434,-73 2434,-92 2532,-92 2532,-73 2434,-73"/>
<text text-anchor="middle" x="2483" y="-80" font-family="FreeSans.ttf" font-size="10.00">ModelTestUtils.h</text>
</a>
</g>
</g>
<!-- Node11&#45;&gt;Node30 -->
<g id="edge22" class="edge">
<title>Node11&#45;&gt;Node30</title>
<path fill="none" stroke="midnightblue" d="M2794.48,-138.21C2738.42,-130.99 2631.22,-116.19 2541,-98 2532.45,-96.28 2523.27,-94.12 2514.79,-92.01"/>
<polygon fill="midnightblue" stroke="midnightblue" points="2794.3,-141.72 2804.66,-139.51 2795.18,-134.78 2794.3,-141.72"/>
</g>
<!-- Node31 -->
<g id="node22" class="node">
<title>Node31</title>
<g id="a_node22"><a xlink:href="ContactWrench_8cpp.html" target="_top" xlink:title=" ">
<polygon fill="none" stroke="black" points="2550.5,-73 2550.5,-92 2661.5,-92 2661.5,-73 2550.5,-73"/>
<text text-anchor="middle" x="2606" y="-80" font-family="FreeSans.ttf" font-size="10.00">ContactWrench.cpp</text>
</a>
</g>
</g>
<!-- Node11&#45;&gt;Node31 -->
<g id="edge23" class="edge">
<title>Node11&#45;&gt;Node31</title>
<path fill="none" stroke="midnightblue" d="M2795.01,-133.04C2751.25,-121.57 2680.08,-102.92 2638.69,-92.07"/>
<polygon fill="midnightblue" stroke="midnightblue" points="2794.15,-136.43 2804.71,-135.58 2795.92,-129.66 2794.15,-136.43"/>
</g>
<!-- Node11&#45;&gt;Node32 -->
<g id="edge24" class="edge">
<title>Node11&#45;&gt;Node32</title>
<path fill="none" stroke="midnightblue" d="M2794.75,-142.67C2532.83,-140.37 1008.13,-125.86 804,-98 794.49,-96.7 784.28,-94.4 775.16,-92.01"/>
<polygon fill="midnightblue" stroke="midnightblue" points="2794.88,-146.18 2804.91,-142.76 2794.94,-139.18 2794.88,-146.18"/>
</g>
<!-- Node33 -->
<g id="node24" class="node">
<title>Node33</title>
<g id="a_node24"><a xlink:href="DynamicsLinearization_8cpp.html" target="_top" xlink:title=" ">
<polygon fill="none" stroke="black" points="2679.5,-73 2679.5,-92 2828.5,-92 2828.5,-73 2679.5,-73"/>
<text text-anchor="middle" x="2754" y="-80" font-family="FreeSans.ttf" font-size="10.00">DynamicsLinearization.cpp</text>
</a>
</g>
</g>
<!-- Node11&#45;&gt;Node33 -->
<g id="edge25" class="edge">
<title>Node11&#45;&gt;Node33</title>
<path fill="none" stroke="midnightblue" d="M2813.47,-128.29C2798.32,-116.88 2777.84,-101.46 2765.3,-92.01"/>
<polygon fill="midnightblue" stroke="midnightblue" points="2811.59,-131.25 2821.68,-134.48 2815.8,-125.66 2811.59,-131.25"/>
</g>
<!-- Node34 -->
<g id="node25" class="node">
<title>Node34</title>
<g id="a_node25"><a xlink:href="ForwardKinematics_8cpp.html" target="_top" xlink:title=" ">
<polygon fill="none" stroke="black" points="2846.5,-73 2846.5,-92 2977.5,-92 2977.5,-73 2846.5,-73"/>
<text text-anchor="middle" x="2912" y="-80" font-family="FreeSans.ttf" font-size="10.00">ForwardKinematics.cpp</text>
</a>
</g>
</g>
<!-- Node11&#45;&gt;Node34 -->
<g id="edge26" class="edge">
<title>Node11&#45;&gt;Node34</title>
<path fill="none" stroke="midnightblue" d="M2852.53,-128.29C2867.68,-116.88 2888.16,-101.46 2900.7,-92.01"/>
<polygon fill="midnightblue" stroke="midnightblue" points="2850.2,-125.66 2844.32,-134.48 2854.41,-131.25 2850.2,-125.66"/>
</g>
<!-- Node35 -->
<g id="node26" class="node">
<title>Node35</title>
<g id="a_node26"><a xlink:href="FreeFloatingMatrices_8cpp.html" target="_top" xlink:title=" ">
<polygon fill="none" stroke="black" points="2996,-73 2996,-92 3136,-92 3136,-73 2996,-73"/>
<text text-anchor="middle" x="3066" y="-80" font-family="FreeSans.ttf" font-size="10.00">FreeFloatingMatrices.cpp</text>
</a>
</g>
</g>
<!-- Node11&#45;&gt;Node35 -->
<g id="edge27" class="edge">
<title>Node11&#45;&gt;Node35</title>
<path fill="none" stroke="midnightblue" d="M2871.03,-133.29C2915.89,-121.83 2989.75,-102.97 3032.53,-92.05"/>
<polygon fill="midnightblue" stroke="midnightblue" points="2869.93,-129.96 2861.11,-135.82 2871.66,-136.74 2869.93,-129.96"/>
</g>
<!-- Node36 -->
<g id="node27" class="node">
<title>Node36</title>
<g id="a_node27"><a xlink:href="FreeFloatingState_8cpp.html" target="_top" xlink:title=" ">
<polygon fill="none" stroke="black" points="3154.5,-73 3154.5,-92 3277.5,-92 3277.5,-73 3154.5,-73"/>
<text text-anchor="middle" x="3216" y="-80" font-family="FreeSans.ttf" font-size="10.00">FreeFloatingState.cpp</text>
</a>
</g>
</g>
<!-- Node11&#45;&gt;Node36 -->
<g id="edge28" class="edge">
<title>Node11&#45;&gt;Node36</title>
<path fill="none" stroke="midnightblue" d="M2871.29,-133.94C2992.94,-111.75 3026.63,-117.81 3145,-98 3155.3,-96.28 3166.38,-94.15 3176.66,-92.05"/>
<polygon fill="midnightblue" stroke="midnightblue" points="2870.41,-130.54 2861.21,-135.8 2871.68,-137.42 2870.41,-130.54"/>
</g>
<!-- Node37 -->
<g id="node28" class="node">
<title>Node37</title>
<g id="a_node28"><a xlink:href="Jacobians_8cpp.html" target="_top" xlink:title=" ">
<polygon fill="none" stroke="black" points="3295.5,-73 3295.5,-92 3378.5,-92 3378.5,-73 3295.5,-73"/>
<text text-anchor="middle" x="3337" y="-80" font-family="FreeSans.ttf" font-size="10.00">Jacobians.cpp</text>
</a>
</g>
</g>
<!-- Node11&#45;&gt;Node37 -->
<g id="edge29" class="edge">
<title>Node11&#45;&gt;Node37</title>
<path fill="none" stroke="midnightblue" d="M2871.21,-134.05C3055.39,-104.9 3107.34,-131.47 3287,-98 3295,-96.51 3303.55,-94.28 3311.28,-92"/>
<polygon fill="midnightblue" stroke="midnightblue" points="2870.5,-130.62 2861.19,-135.67 2871.62,-137.53 2870.5,-130.62"/>
</g>
<!-- Node38 -->
<g id="node29" class="node">
<title>Node38</title>
<g id="a_node29"><a xlink:href="JointState_8cpp.html" target="_top" xlink:title=" ">
<polygon fill="none" stroke="black" points="3397,-73 3397,-92 3481,-92 3481,-73 3397,-73"/>
<text text-anchor="middle" x="3439" y="-80" font-family="FreeSans.ttf" font-size="10.00">JointState.cpp</text>
</a>
</g>
</g>
<!-- Node11&#45;&gt;Node38 -->
<g id="edge30" class="edge">
<title>Node11&#45;&gt;Node38</title>
<path fill="none" stroke="midnightblue" d="M2871.14,-134.1C3099.85,-99.69 3163.89,-137.21 3388,-98 3396.25,-96.56 3405.08,-94.31 3413.03,-92.01"/>
<polygon fill="midnightblue" stroke="midnightblue" points="2870.54,-130.65 2861.18,-135.62 2871.6,-137.57 2870.54,-130.65"/>
</g>
<!-- Node39 -->
<g id="node30" class="node">
<title>Node39</title>
<g id="a_node30"><a xlink:href="LinkState_8cpp.html" target="_top" xlink:title=" ">
<polygon fill="none" stroke="black" points="3499.5,-73 3499.5,-92 3582.5,-92 3582.5,-73 3499.5,-73"/>
<text text-anchor="middle" x="3541" y="-80" font-family="FreeSans.ttf" font-size="10.00">LinkState.cpp</text>
</a>
</g>
</g>
<!-- Node11&#45;&gt;Node39 -->
<g id="edge31" class="edge">
<title>Node11&#45;&gt;Node39</title>
<path fill="none" stroke="midnightblue" d="M2871.41,-134.08C3144.85,-94.44 3221.17,-143.46 3490,-98 3498.26,-96.6 3507.09,-94.37 3515.04,-92.07"/>
<polygon fill="midnightblue" stroke="midnightblue" points="2870.56,-130.67 2861.18,-135.59 2871.58,-137.59 2870.56,-130.67"/>
</g>
<!-- Node40 -->
<g id="node31" class="node">
<title>Node40</title>
<g id="a_node31"><a xlink:href="LinkTraversalsCache_8cpp.html" target="_top" xlink:title=" ">
<polygon fill="none" stroke="black" points="3600.5,-73 3600.5,-92 3737.5,-92 3737.5,-73 3600.5,-73"/>
<text text-anchor="middle" x="3669" y="-80" font-family="FreeSans.ttf" font-size="10.00">LinkTraversalsCache.cpp</text>
</a>
</g>
</g>
<!-- Node11&#45;&gt;Node40 -->
<g id="edge32" class="edge">
<title>Node11&#45;&gt;Node40</title>
<path fill="none" stroke="midnightblue" d="M2871.15,-134.13C3189.72,-88.8 3276.22,-135.43 3592,-98 3604.16,-96.56 3617.28,-94.34 3629.19,-92.07"/>
<polygon fill="midnightblue" stroke="midnightblue" points="2870.57,-130.67 2861.17,-135.57 2871.57,-137.6 2870.57,-130.67"/>
</g>
<!-- Node41 -->
<g id="node32" class="node">
<title>Node41</title>
<g id="a_node32"><a xlink:href="Model_8cpp.html" target="_top" xlink:title=" ">
<polygon fill="none" stroke="black" points="3755.5,-73 3755.5,-92 3822.5,-92 3822.5,-73 3755.5,-73"/>
<text text-anchor="middle" x="3789" y="-80" font-family="FreeSans.ttf" font-size="10.00">Model.cpp</text>
</a>
</g>
</g>
<!-- Node11&#45;&gt;Node41 -->
<g id="edge33" class="edge">
<title>Node11&#45;&gt;Node41</title>
<path fill="none" stroke="midnightblue" d="M2871.24,-134.14C3258.15,-81.17 3366.95,-169.8 3747,-98 3753.97,-96.68 3761.36,-94.44 3767.96,-92.11"/>
<polygon fill="midnightblue" stroke="midnightblue" points="2870.59,-130.69 2861.17,-135.54 2871.56,-137.63 2870.59,-130.69"/>
</g>
<!-- Node42 -->
<g id="node33" class="node">
<title>Node42</title>
<g id="a_node33"><a xlink:href="ModelTransformers_8cpp.html" target="_top" xlink:title=" ">
<polygon fill="none" stroke="black" points="3840.5,-73 3840.5,-92 3971.5,-92 3971.5,-73 3840.5,-73"/>
<text text-anchor="middle" x="3906" y="-80" font-family="FreeSans.ttf" font-size="10.00">ModelTransformers.cpp</text>
</a>
</g>
</g>
<!-- Node11&#45;&gt;Node42 -->
<g id="edge34" class="edge">
<title>Node11&#45;&gt;Node42</title>
<path fill="none" stroke="midnightblue" d="M2871.25,-134.14C3295.57,-76.26 3410.31,-146.9 3832,-98 3843.96,-96.61 3856.89,-94.35 3868.53,-92.02"/>
<polygon fill="midnightblue" stroke="midnightblue" points="2870.6,-130.7 2861.17,-135.53 2871.55,-137.63 2870.6,-130.7"/>
</g>
<!-- Node43 -->
<g id="node34" class="node">
<title>Node43</title>
<g id="a_node34"><a xlink:href="SolidShapes_8cpp.html" target="_top" xlink:title=" ">
<polygon fill="none" stroke="black" points="3990,-73 3990,-92 4086,-92 4086,-73 3990,-73"/>
<text text-anchor="middle" x="4038" y="-80" font-family="FreeSans.ttf" font-size="10.00">SolidShapes.cpp</text>
</a>
</g>
</g>
<!-- Node11&#45;&gt;Node43 -->
<g id="edge35" class="edge">
<title>Node11&#45;&gt;Node43</title>
<path fill="none" stroke="midnightblue" d="M2871.34,-134.14C3361.33,-68.62 3495.19,-166.83 3981,-98 3990.4,-96.67 4000.5,-94.39 4009.54,-92.03"/>
<polygon fill="midnightblue" stroke="midnightblue" points="2870.61,-130.71 2861.17,-135.51 2871.55,-137.64 2870.61,-130.71"/>
</g>
<!-- Node44 -->
<g id="node35" class="node">
<title>Node44</title>
<g id="a_node35"><a xlink:href="SubModel_8cpp.html" target="_top" xlink:title=" ">
<polygon fill="none" stroke="black" points="4104.5,-73 4104.5,-92 4189.5,-92 4189.5,-73 4104.5,-73"/>
<text text-anchor="middle" x="4147" y="-80" font-family="FreeSans.ttf" font-size="10.00">SubModel.cpp</text>
</a>
</g>
</g>
<!-- Node11&#45;&gt;Node44 -->
<g id="edge36" class="edge">
<title>Node11&#45;&gt;Node44</title>
<path fill="none" stroke="midnightblue" d="M2871.17,-134.17C3411.6,-62.67 3559.78,-179.25 4095,-98 4103.62,-96.69 4112.84,-94.42 4121.08,-92.06"/>
<polygon fill="midnightblue" stroke="midnightblue" points="2870.61,-130.71 2861.17,-135.51 2871.54,-137.65 2870.61,-130.71"/>
</g>
<!-- Node45 -->
<g id="node36" class="node">
<title>Node45</title>
<g id="a_node36"><a xlink:href="Traversal_8cpp.html" target="_top" xlink:title=" ">
<polygon fill="none" stroke="black" points="4207.5,-73 4207.5,-92 4288.5,-92 4288.5,-73 4207.5,-73"/>
<text text-anchor="middle" x="4248" y="-80" font-family="FreeSans.ttf" font-size="10.00">Traversal.cpp</text>
</a>
</g>
</g>
<!-- Node11&#45;&gt;Node45 -->
<g id="edge37" class="edge">
<title>Node11&#45;&gt;Node45</title>
<path fill="none" stroke="midnightblue" d="M2871.14,-134.18C3457.48,-57.24 3618.7,-190.1 4199,-98 4207.24,-96.69 4216.03,-94.39 4223.86,-92"/>
<polygon fill="midnightblue" stroke="midnightblue" points="2870.62,-130.71 2861.16,-135.5 2871.54,-137.65 2870.62,-130.71"/>
</g>
<!-- Node46 -->
<g id="node37" class="node">
<title>Node46</title>
<g id="a_node37"><a xlink:href="ModelCalibrationHelper_8h.html" target="_top" xlink:title=" ">
<polygon fill="none" stroke="red" points="4285,-6 4285,-25 4425,-25 4425,-6 4285,-6"/>
<text text-anchor="middle" x="4355" y="-13" font-family="FreeSans.ttf" font-size="10.00">ModelCalibrationHelper.h</text>
</a>
</g>
</g>
<!-- Node11&#45;&gt;Node46 -->
<g id="edge38" class="edge">
<title>Node11&#45;&gt;Node46</title>
<path fill="none" stroke="midnightblue" d="M2871.41,-134.54C3020.17,-124.2 4230.07,-134.48 4298,-98 4327.81,-81.99 4345.39,-42.72 4351.99,-25.19"/>
<polygon fill="midnightblue" stroke="midnightblue" points="2870.8,-131.08 2861.16,-135.49 2871.45,-138.05 2870.8,-131.08"/>
</g>
<!-- Node48 -->
<g id="node38" class="node">
<title>Node48</title>
<g id="a_node38"><a xlink:href="ModelExporter_8h.html" target="_top" xlink:title=" ">
<polygon fill="none" stroke="red" points="4345,-73 4345,-92 4441,-92 4441,-73 4345,-73"/>
<text text-anchor="middle" x="4393" y="-80" font-family="FreeSans.ttf" font-size="10.00">ModelExporter.h</text>
</a>
</g>
</g>
<!-- Node11&#45;&gt;Node48 -->
<g id="edge39" class="edge">
<title>Node11&#45;&gt;Node48</title>
<path fill="none" stroke="midnightblue" d="M2871.17,-134.17C3515.7,-50.1 3690.02,-179.97 4331,-98 4341.2,-96.7 4352.17,-94.43 4362,-92.06"/>
<polygon fill="midnightblue" stroke="midnightblue" points="2870.62,-130.72 2861.16,-135.49 2871.54,-137.66 2870.62,-130.72"/>
</g>
<!-- Node53 -->
<g id="node39" class="node">
<title>Node53</title>
<g id="a_node39"><a xlink:href="ModelLoader_8h.html" target="_top" xlink:title=" ">
<polygon fill="none" stroke="red" points="1060,-73 1060,-92 1148,-92 1148,-73 1060,-73"/>
<text text-anchor="middle" x="1104" y="-80" font-family="FreeSans.ttf" font-size="10.00">ModelLoader.h</text>
</a>
</g>
</g>
<!-- Node11&#45;&gt;Node53 -->
<g id="edge41" class="edge">
<title>Node11&#45;&gt;Node53</title>
<path fill="none" stroke="midnightblue" d="M2794.65,-143.1C2576.75,-143.51 1492.47,-143.21 1162,-98 1152.44,-96.69 1142.17,-94.42 1132.97,-92.06"/>
<polygon fill="midnightblue" stroke="midnightblue" points="2794.95,-146.6 2804.94,-143.08 2794.93,-139.6 2794.95,-146.6"/>
</g>
<!-- Node54 -->
<g id="node40" class="node">
<title>Node54</title>
<g id="a_node40"><a xlink:href="URDFDocument_8h.html" target="_top" xlink:title=" ">
<polygon fill="none" stroke="red" points="1056,-6 1056,-25 1160,-25 1160,-6 1056,-6"/>
<text text-anchor="middle" x="1108" y="-13" font-family="FreeSans.ttf" font-size="10.00">URDFDocument.h</text>
</a>
</g>
</g>
<!-- Node11&#45;&gt;Node54 -->
<g id="edge48" class="edge">
<title>Node11&#45;&gt;Node54</title>
<path fill="none" stroke="midnightblue" d="M2794.55,-142.58C2556.93,-139.88 1295.83,-124.37 1219,-98 1174.45,-82.71 1132.73,-42.69 1115.87,-25.06"/>
<polygon fill="midnightblue" stroke="midnightblue" points="2794.74,-146.08 2804.78,-142.69 2794.82,-139.08 2794.74,-146.08"/>
</g>
<!-- Node57 -->
<g id="node41" class="node">
<title>Node57</title>
<g id="a_node41"><a xlink:href="URDFDofsImport_8cpp.html" target="_top" xlink:title=" ">
<polygon fill="none" stroke="black" points="1178.5,-6 1178.5,-25 1297.5,-25 1297.5,-6 1178.5,-6"/>
<text text-anchor="middle" x="1238" y="-13" font-family="FreeSans.ttf" font-size="10.00">URDFDofsImport.cpp</text>
</a>
</g>
</g>
<!-- Node11&#45;&gt;Node57 -->
<g id="edge51" class="edge">
<title>Node11&#45;&gt;Node57</title>
<path fill="none" stroke="midnightblue" d="M2794.73,-142.65C2554.26,-140.39 1261.11,-126.91 1233,-98 1213.83,-78.28 1226.59,-41.65 1233.89,-25.06"/>
<polygon fill="midnightblue" stroke="midnightblue" points="2794.72,-146.15 2804.75,-142.75 2794.78,-139.15 2794.72,-146.15"/>
</g>
<!-- Node62 -->
<g id="node42" class="node">
<title>Node62</title>
<g id="a_node42"><a xlink:href="InertialElement_8h.html" target="_top" xlink:title=" ">
<polygon fill="none" stroke="red" points="4497.5,-73 4497.5,-92 4598.5,-92 4598.5,-73 4497.5,-73"/>
<text text-anchor="middle" x="4548" y="-80" font-family="FreeSans.ttf" font-size="10.00">InertialElement.h</text>
</a>
</g>
</g>
<!-- Node11&#45;&gt;Node62 -->
<g id="edge46" class="edge">
<title>Node11&#45;&gt;Node62</title>
<path fill="none" stroke="midnightblue" d="M2871.15,-134.18C3582.75,-42.04 3774.47,-184.08 4483,-98 4493.67,-96.7 4505.17,-94.43 4515.48,-92.07"/>
<polygon fill="midnightblue" stroke="midnightblue" points="2870.63,-130.72 2861.16,-135.48 2871.53,-137.66 2870.63,-130.72"/>
</g>
<!-- Node64 -->
<g id="node43" class="node">
<title>Node64</title>
<g id="a_node43"><a xlink:href="LinkElement_8cpp.html" target="_top" xlink:title=" ">
<polygon fill="none" stroke="black" points="4499,-6 4499,-25 4597,-25 4597,-6 4499,-6"/>
<text text-anchor="middle" x="4548" y="-13" font-family="FreeSans.ttf" font-size="10.00">LinkElement.cpp</text>
</a>
</g>
</g>
<!-- Node11&#45;&gt;Node64 -->
<g id="edge49" class="edge">
<title>Node11&#45;&gt;Node64</title>
<path fill="none" stroke="midnightblue" d="M2871.14,-134.33C3085.03,-112.69 4288.28,-158.55 4450,-98 4455.26,-96.03 4513.8,-45.94 4537.81,-25.28"/>
<polygon fill="midnightblue" stroke="midnightblue" points="2870.69,-130.86 2861.16,-135.49 2871.5,-137.81 2870.69,-130.86"/>
</g>
<!-- Node65 -->
<g id="node44" class="node">
<title>Node65</title>
<g id="a_node44"><a xlink:href="RobotElement_8cpp.html" target="_top" xlink:title=" ">
<polygon fill="none" stroke="black" points="4617,-73 4617,-92 4723,-92 4723,-73 4617,-73"/>
<text text-anchor="middle" x="4670" y="-80" font-family="FreeSans.ttf" font-size="10.00">RobotElement.cpp</text>
</a>
</g>
</g>
<!-- Node11&#45;&gt;Node65 -->
<g id="edge50" class="edge">
<title>Node11&#45;&gt;Node65</title>
<path fill="none" stroke="midnightblue" d="M2871.35,-134.16C3637.94,-35.51 3844.81,-194.07 4608,-98 4618.31,-96.7 4629.41,-94.4 4639.32,-92.01"/>
<polygon fill="midnightblue" stroke="midnightblue" points="2870.63,-130.72 2861.16,-135.48 2871.53,-137.66 2870.63,-130.72"/>
</g>
<!-- Node11&#45;&gt;Node51 -->
<g id="edge52" class="edge">
<title>Node11&#45;&gt;Node51</title>
<path fill="none" stroke="midnightblue" d="M2871.1,-134.21C3296.61,-81.52 4322.54,-128.85 4732,-98 4749.86,-96.65 4769.27,-94.37 4786.73,-92.01"/>
<polygon fill="midnightblue" stroke="midnightblue" points="2870.64,-130.74 2861.16,-135.48 2871.52,-137.69 2870.64,-130.74"/>
</g>
<!-- Node12&#45;&gt;Node13 -->
<g id="edge12" class="edge">
<title>Node12&#45;&gt;Node13</title>
<path fill="none" stroke="midnightblue" d="M961.52,-57.4C960.96,-48.37 960.35,-38.41 959.87,-30.58"/>
<polygon fill="midnightblue" stroke="midnightblue" points="958.02,-57.63 962.13,-67.4 965.01,-57.2 958.02,-57.63"/>
</g>
<!-- Node48&#45;&gt;Node46 -->
<g id="edge40" class="edge">
<title>Node48&#45;&gt;Node46</title>
<path fill="none" stroke="midnightblue" d="M4382.79,-64.03C4375.43,-51.45 4365.82,-35.01 4360.04,-25.13"/>
<polygon fill="midnightblue" stroke="midnightblue" points="4379.81,-65.87 4387.88,-72.73 4385.85,-62.33 4379.81,-65.87"/>
</g>
<!-- Node53&#45;&gt;Node8 -->
<g id="edge43" class="edge">
<title>Node53&#45;&gt;Node8</title>
<path fill="none" stroke="midnightblue" d="M1064.55,-70.36C1059.99,-69.18 1055.4,-68.03 1051,-67 1011.19,-57.69 900.97,-36.81 837.89,-25.02"/>
<polygon fill="midnightblue" stroke="midnightblue" points="1063.82,-73.79 1074.39,-72.98 1065.62,-67.02 1063.82,-73.79"/>
</g>
<!-- Node53&#45;&gt;Node13 -->
<g id="edge42" class="edge">
<title>Node53&#45;&gt;Node13</title>
<path fill="none" stroke="midnightblue" d="M1075.6,-68.77C1051.05,-57.77 1015.64,-41.89 990.29,-30.53"/>
<polygon fill="midnightblue" stroke="midnightblue" points="1074.19,-71.97 1084.75,-72.87 1077.05,-65.58 1074.19,-71.97"/>
</g>
<!-- Node53&#45;&gt;Node54 -->
<g id="edge44" class="edge">
<title>Node53&#45;&gt;Node54</title>
<path fill="none" stroke="midnightblue" d="M1105.17,-62.54C1105.93,-50.17 1106.88,-34.62 1107.47,-25.13"/>
<polygon fill="midnightblue" stroke="midnightblue" points="1101.66,-62.54 1104.54,-72.73 1108.65,-62.97 1101.66,-62.54"/>
</g>
<!-- Node53&#45;&gt;Node57 -->
<g id="edge45" class="edge">
<title>Node53&#45;&gt;Node57</title>
<path fill="none" stroke="midnightblue" d="M1130.92,-68.44C1157.46,-55.57 1197.27,-36.26 1220.13,-25.17"/>
<polygon fill="midnightblue" stroke="midnightblue" points="1129.26,-65.35 1121.79,-72.87 1132.32,-71.65 1129.26,-65.35"/>
</g>
<!-- Node62&#45;&gt;Node64 -->
<g id="edge47" class="edge">
<title>Node62&#45;&gt;Node64</title>
<path fill="none" stroke="midnightblue" d="M4548,-62.54C4548,-50.17 4548,-34.62 4548,-25.13"/>
<polygon fill="midnightblue" stroke="midnightblue" points="4544.5,-62.73 4548,-72.73 4551.5,-62.73 4544.5,-62.73"/>
</g>
<!-- Node101&#45;&gt;Node64 -->
<g id="edge55" class="edge">
<title>Node101&#45;&gt;Node64</title>
<path fill="none" stroke="midnightblue" d="M2975.1,-134.52C3125.72,-129.51 4698.89,-131.8 4732,-98 4776.32,-52.77 4665.65,-30.73 4597.24,-21.72"/>
<polygon fill="midnightblue" stroke="midnightblue" points="2974.87,-131.03 2965.06,-135.03 2975.23,-138.02 2974.87,-131.03"/>
</g>
<!-- Node101&#45;&gt;Node65 -->
<g id="edge56" class="edge">
<title>Node101&#45;&gt;Node65</title>
<path fill="none" stroke="midnightblue" d="M2975.21,-134.06C3698.78,-65.02 3890.69,-188.78 4608,-98 4618.31,-96.7 4629.41,-94.39 4639.32,-92"/>
<polygon fill="midnightblue" stroke="midnightblue" points="2974.68,-130.59 2965.06,-135.04 2975.35,-137.56 2974.68,-130.59"/>
</g>
</g>
</svg>
