<?xml version="1.0" encoding="UTF-8" standalone="no"?>
<!DOCTYPE svg PUBLIC "-//W3C//DTD SVG 1.1//EN"
 "http://www.w3.org/Graphics/SVG/1.1/DTD/svg11.dtd">
<!-- Generated by graphviz version 2.43.0 (0)
 -->
<!-- Title: iDynTree::details::is_span_oracle&lt; T &gt; Pages: 1 -->
<svg width="170pt" height="264pt"
 viewBox="0.00 0.00 169.50 264.00" xmlns="http://www.w3.org/2000/svg" xmlns:xlink="http://www.w3.org/1999/xlink">
<g id="graph0" class="graph" transform="scale(1 1) rotate(0) translate(4 260)">
<title>iDynTree::details::is_span_oracle&lt; T &gt;</title>
<!-- Node1 -->
<g id="node1" class="node">
<title>Node1</title>
<g id="a_node1"><a xlink:title=" ">
<polygon fill="#bfbfbf" stroke="black" points="4,-168.5 4,-198.5 121,-198.5 121,-168.5 4,-168.5"/>
<text text-anchor="start" x="12" y="-186.5" font-family="FreeSans.ttf" font-size="10.00">iDynTree::details::</text>
<text text-anchor="middle" x="62.5" y="-175.5" font-family="FreeSans.ttf" font-size="10.00">is_span_oracle&lt; T &gt;</text>
</a>
</g>
</g>
<!-- Node3 -->
<g id="node3" class="node">
<title>Node3</title>
<g id="a_node3"><a xlink:href="structiDynTree_1_1details_1_1is__span__oracle.html" target="_top" xlink:title=" ">
<polygon fill="none" stroke="black" points="0,-68.5 0,-109.5 125,-109.5 125,-68.5 0,-68.5"/>
<text text-anchor="start" x="8" y="-97.5" font-family="FreeSans.ttf" font-size="10.00">iDynTree::details::</text>
<text text-anchor="start" x="8" y="-86.5" font-family="FreeSans.ttf" font-size="10.00">is_span_oracle&lt; std</text>
<text text-anchor="middle" x="62.5" y="-75.5" font-family="FreeSans.ttf" font-size="10.00">::remove_cv_t&lt; T &gt; &gt;</text>
</a>
</g>
</g>
<!-- Node1&#45;&gt;Node3 -->
<g id="edge2" class="edge">
<title>Node1&#45;&gt;Node3</title>
<path fill="none" stroke="orange" stroke-dasharray="5,2" d="M62.5,-158.28C62.5,-143.14 62.5,-123.88 62.5,-109.68"/>
<polygon fill="orange" stroke="orange" points="59,-158.45 62.5,-168.45 66,-158.45 59,-158.45"/>
<text text-anchor="start" x="62.5" y="-142" font-family="FreeSans.ttf" font-size="10.00"> &lt; std::remove_cv_t</text>
<text text-anchor="middle" x="112" y="-131" font-family="FreeSans.ttf" font-size="10.00">&lt; T &gt; &gt;</text>
</g>
<!-- Node2 -->
<g id="node2" class="node">
<title>Node2</title>
<g id="a_node2"><a xlink:title=" ">
<polygon fill="none" stroke="#bfbfbf" points="28.5,-236.5 28.5,-255.5 96.5,-255.5 96.5,-236.5 28.5,-236.5"/>
<text text-anchor="middle" x="62.5" y="-243.5" font-family="FreeSans.ttf" font-size="10.00">false_type</text>
</a>
</g>
</g>
<!-- Node2&#45;&gt;Node1 -->
<g id="edge1" class="edge">
<title>Node2&#45;&gt;Node1</title>
<path fill="none" stroke="midnightblue" d="M62.5,-226.22C62.5,-217.36 62.5,-206.96 62.5,-198.76"/>
<polygon fill="midnightblue" stroke="midnightblue" points="59,-226.33 62.5,-236.33 66,-226.33 59,-226.33"/>
</g>
<!-- Node4 -->
<g id="node4" class="node">
<title>Node4</title>
<g id="a_node4"><a xlink:href="structiDynTree_1_1details_1_1is__span.html" target="_top" xlink:title=" ">
<polygon fill="none" stroke="black" points="10.5,-0.5 10.5,-30.5 114.5,-30.5 114.5,-0.5 10.5,-0.5"/>
<text text-anchor="start" x="18.5" y="-18.5" font-family="FreeSans.ttf" font-size="10.00">iDynTree::details::</text>
<text text-anchor="middle" x="62.5" y="-7.5" font-family="FreeSans.ttf" font-size="10.00">is_span&lt; T &gt;</text>
</a>
</g>
</g>
<!-- Node3&#45;&gt;Node4 -->
<g id="edge3" class="edge">
<title>Node3&#45;&gt;Node4</title>
<path fill="none" stroke="midnightblue" d="M62.5,-58.16C62.5,-48.69 62.5,-38.65 62.5,-30.8"/>
<polygon fill="midnightblue" stroke="midnightblue" points="59,-58.46 62.5,-68.46 66,-58.46 59,-58.46"/>
</g>
</g>
</svg>
