<?xml version="1.0" encoding="UTF-8" standalone="no"?>
<!DOCTYPE svg PUBLIC "-//W3C//DTD SVG 1.1//EN"
 "http://www.w3.org/Graphics/SVG/1.1/DTD/svg11.dtd">
<!-- Generated by graphviz version 2.43.0 (0)
 -->
<!-- Title: iDynTree::optimalcontrol::TimedCost Pages: 1 -->
<svg width="434pt" height="191pt"
 viewBox="0.00 0.00 434.00 190.50" xmlns="http://www.w3.org/2000/svg" xmlns:xlink="http://www.w3.org/1999/xlink">
<g id="graph0" class="graph" transform="scale(1 1) rotate(0) translate(4 186.5)">
<title>iDynTree::optimalcontrol::TimedCost</title>
<!-- Node1 -->
<g id="node1" class="node">
<title>Node1</title>
<g id="a_node1"><a xlink:title=" ">
<polygon fill="#bfbfbf" stroke="black" points="289,-68 289,-98 426,-98 426,-68 289,-68"/>
<text text-anchor="start" x="297" y="-86" font-family="FreeSans.ttf" font-size="10.00">iDynTree::optimalcontrol</text>
<text text-anchor="middle" x="357.5" y="-75" font-family="FreeSans.ttf" font-size="10.00">::TimedCost</text>
</a>
</g>
</g>
<!-- Node2 -->
<g id="node2" class="node">
<title>Node2</title>
<g id="a_node2"><a xlink:href="classiDynTree_1_1optimalcontrol_1_1TimeRange.html" target="_top" xlink:title=" ">
<polygon fill="none" stroke="black" points="0,-152 0,-182 137,-182 137,-152 0,-152"/>
<text text-anchor="start" x="8" y="-170" font-family="FreeSans.ttf" font-size="10.00">iDynTree::optimalcontrol</text>
<text text-anchor="middle" x="68.5" y="-159" font-family="FreeSans.ttf" font-size="10.00">::TimeRange</text>
</a>
</g>
</g>
<!-- Node2&#45;&gt;Node1 -->
<g id="edge1" class="edge">
<title>Node2&#45;&gt;Node1</title>
<path fill="none" stroke="#9a32cd" stroke-dasharray="5,2" d="M147.12,-163.6C185.38,-159.99 231.64,-152.69 271,-138 296.13,-128.62 321.56,-110.99 338.08,-98.21"/>
<polygon fill="#9a32cd" stroke="#9a32cd" points="146.73,-160.12 137.07,-164.48 147.34,-167.09 146.73,-160.12"/>
<text text-anchor="middle" x="213" y="-165" font-family="FreeSans.ttf" font-size="10.00"> timeRange</text>
</g>
<!-- Node3 -->
<g id="node3" class="node">
<title>Node3</title>
<g id="a_node3"><a xlink:href="classiDynTree_1_1MatrixDynSize.html" target="_top" xlink:title="Class providing a simple form of matrix with dynamic size.">
<polygon fill="none" stroke="black" points="0,-101.5 0,-120.5 137,-120.5 137,-101.5 0,-101.5"/>
<text text-anchor="middle" x="68.5" y="-108.5" font-family="FreeSans.ttf" font-size="10.00">iDynTree::MatrixDynSize</text>
</a>
</g>
</g>
<!-- Node3&#45;&gt;Node1 -->
<g id="edge2" class="edge">
<title>Node3&#45;&gt;Node1</title>
<path fill="none" stroke="#9a32cd" stroke-dasharray="5,2" d="M147.28,-103.41C191.51,-99.1 246.36,-93.75 288.81,-89.6"/>
<polygon fill="#9a32cd" stroke="#9a32cd" points="146.76,-99.95 137.15,-104.4 147.44,-106.91 146.76,-99.95"/>
<text text-anchor="middle" x="213" y="-126" font-family="FreeSans.ttf" font-size="10.00"> stateHessianBuffer</text>
<text text-anchor="middle" x="213" y="-115" font-family="FreeSans.ttf" font-size="10.00">controlHessianBuffer</text>
<text text-anchor="middle" x="213" y="-104" font-family="FreeSans.ttf" font-size="10.00">mixedHessianBuffer</text>
</g>
<!-- Node4 -->
<g id="node4" class="node">
<title>Node4</title>
<g id="a_node4"><a xlink:href="classiDynTree_1_1optimalcontrol_1_1SparsityStructure.html" target="_top" xlink:title=" ">
<polygon fill="none" stroke="black" points="0,-40 0,-70 137,-70 137,-40 0,-40"/>
<text text-anchor="start" x="8" y="-58" font-family="FreeSans.ttf" font-size="10.00">iDynTree::optimalcontrol</text>
<text text-anchor="middle" x="68.5" y="-47" font-family="FreeSans.ttf" font-size="10.00">::SparsityStructure</text>
</a>
</g>
</g>
<!-- Node4&#45;&gt;Node1 -->
<g id="edge3" class="edge">
<title>Node4&#45;&gt;Node1</title>
<path fill="none" stroke="#9a32cd" stroke-dasharray="5,2" d="M147.46,-49.3C185.02,-48 230.58,-48.55 271,-55 287.2,-57.58 304.49,-62.76 319.26,-67.96"/>
<polygon fill="#9a32cd" stroke="#9a32cd" points="146.94,-45.81 137.09,-49.71 147.22,-52.81 146.94,-45.81"/>
<text text-anchor="middle" x="213" y="-80" font-family="FreeSans.ttf" font-size="10.00"> controlHessianSparsity</text>
<text text-anchor="middle" x="213" y="-69" font-family="FreeSans.ttf" font-size="10.00">mixedHessianSparsity</text>
<text text-anchor="middle" x="213" y="-58" font-family="FreeSans.ttf" font-size="10.00">stateHessianSparsity</text>
</g>
<!-- Node5 -->
<g id="node5" class="node">
<title>Node5</title>
<g id="a_node5"><a xlink:href="classiDynTree_1_1VectorDynSize.html" target="_top" xlink:title="Class providing a simple form of vector with dynamic size.">
<polygon fill="none" stroke="black" points="0.5,-0.5 0.5,-19.5 136.5,-19.5 136.5,-0.5 0.5,-0.5"/>
<text text-anchor="middle" x="68.5" y="-7.5" font-family="FreeSans.ttf" font-size="10.00">iDynTree::VectorDynSize</text>
</a>
</g>
</g>
<!-- Node5&#45;&gt;Node1 -->
<g id="edge4" class="edge">
<title>Node5&#45;&gt;Node1</title>
<path fill="none" stroke="#9a32cd" stroke-dasharray="5,2" d="M146.72,-5.29C185.08,-5.36 231.54,-9.12 271,-23 298.2,-32.57 324.59,-53.39 340.69,-67.81"/>
<polygon fill="#9a32cd" stroke="#9a32cd" points="146.62,-1.79 136.65,-5.36 146.67,-8.79 146.62,-1.79"/>
<text text-anchor="middle" x="213" y="-37" font-family="FreeSans.ttf" font-size="10.00"> stateJacobianBuffer</text>
<text text-anchor="middle" x="213" y="-26" font-family="FreeSans.ttf" font-size="10.00">controlJacobianBuffer</text>
</g>
</g>
</svg>
