<?xml version="1.0" encoding="UTF-8" standalone="no"?>
<!DOCTYPE svg PUBLIC "-//W3C//DTD SVG 1.1//EN"
 "http://www.w3.org/Graphics/SVG/1.1/DTD/svg11.dtd">
<!-- Generated by graphviz version 2.43.0 (0)
 -->
<!-- Title: iDynTree::Visualizer::VisualizerPimpl Pages: 1 -->
<svg width="661pt" height="218pt"
 viewBox="0.00 0.00 661.00 218.00" xmlns="http://www.w3.org/2000/svg" xmlns:xlink="http://www.w3.org/1999/xlink">
<g id="graph0" class="graph" transform="scale(1 1) rotate(0) translate(4 214)">
<title>iDynTree::Visualizer::VisualizerPimpl</title>
<!-- Node1 -->
<g id="node1" class="node">
<title>Node1</title>
<g id="a_node1"><a xlink:title=" ">
<polygon fill="#bfbfbf" stroke="black" points="540,-90 540,-120 653,-120 653,-90 540,-90"/>
<text text-anchor="start" x="548" y="-108" font-family="FreeSans.ttf" font-size="10.00">iDynTree::Visualizer</text>
<text text-anchor="middle" x="596.5" y="-97" font-family="FreeSans.ttf" font-size="10.00">::VisualizerPimpl</text>
</a>
</g>
</g>
<!-- Node2 -->
<g id="node2" class="node">
<title>Node2</title>
<g id="a_node2"><a xlink:href="classiDynTree_1_1DummyFrameVisualization.html" target="_top" xlink:title=" ">
<polygon fill="none" stroke="black" points="206.5,-190.5 206.5,-209.5 404.5,-209.5 404.5,-190.5 206.5,-190.5"/>
<text text-anchor="middle" x="305.5" y="-197.5" font-family="FreeSans.ttf" font-size="10.00">iDynTree::DummyFrameVisualization</text>
</a>
</g>
</g>
<!-- Node2&#45;&gt;Node1 -->
<g id="edge1" class="edge">
<title>Node2&#45;&gt;Node1</title>
<path fill="none" stroke="#9a32cd" stroke-dasharray="5,2" d="M415.03,-192.05C450.25,-186.7 488.78,-177.8 522,-163 545.02,-152.75 567.1,-133.65 580.95,-120.17"/>
<polygon fill="#9a32cd" stroke="#9a32cd" points="414.11,-188.65 404.71,-193.53 415.1,-195.57 414.11,-188.65"/>
<text text-anchor="middle" x="473.5" y="-192" font-family="FreeSans.ttf" font-size="10.00"> m_invalidFrames</text>
</g>
<!-- Node3 -->
<g id="node3" class="node">
<title>Node3</title>
<g id="a_node3"><a xlink:href="classiDynTree_1_1IFrameVisualization.html" target="_top" xlink:title="Interface to the visualization of frames.">
<polygon fill="none" stroke="black" points="2.5,-190.5 2.5,-209.5 164.5,-209.5 164.5,-190.5 2.5,-190.5"/>
<text text-anchor="middle" x="83.5" y="-197.5" font-family="FreeSans.ttf" font-size="10.00">iDynTree::IFrameVisualization</text>
</a>
</g>
</g>
<!-- Node3&#45;&gt;Node2 -->
<g id="edge2" class="edge">
<title>Node3&#45;&gt;Node2</title>
<path fill="none" stroke="midnightblue" d="M174.79,-200C185.13,-200 195.71,-200 206.15,-200"/>
<polygon fill="midnightblue" stroke="midnightblue" points="174.55,-196.5 164.55,-200 174.55,-203.5 174.55,-196.5"/>
</g>
<!-- Node4 -->
<g id="node4" class="node">
<title>Node4</title>
<g id="a_node4"><a xlink:href="classiDynTree_1_1DummyCamera.html" target="_top" xlink:title="Dummy camera.">
<polygon fill="none" stroke="black" points="234,-152.5 234,-171.5 377,-171.5 377,-152.5 234,-152.5"/>
<text text-anchor="middle" x="305.5" y="-159.5" font-family="FreeSans.ttf" font-size="10.00">iDynTree::DummyCamera</text>
</a>
</g>
</g>
<!-- Node4&#45;&gt;Node1 -->
<g id="edge3" class="edge">
<title>Node4&#45;&gt;Node1</title>
<path fill="none" stroke="#9a32cd" stroke-dasharray="5,2" d="M387.21,-154.21C427.98,-149.31 478.01,-141.83 522,-131 533.7,-128.12 546.14,-124.1 557.41,-120.08"/>
<polygon fill="#9a32cd" stroke="#9a32cd" points="386.57,-150.76 377.05,-155.4 387.39,-157.71 386.57,-150.76"/>
<text text-anchor="middle" x="473.5" y="-151" font-family="FreeSans.ttf" font-size="10.00"> m_camera</text>
</g>
<!-- Node5 -->
<g id="node5" class="node">
<title>Node5</title>
<g id="a_node5"><a xlink:href="classiDynTree_1_1ICamera.html" target="_top" xlink:title="Interface to manipulate the camera parameters.">
<polygon fill="none" stroke="black" points="30,-152.5 30,-171.5 137,-171.5 137,-152.5 30,-152.5"/>
<text text-anchor="middle" x="83.5" y="-159.5" font-family="FreeSans.ttf" font-size="10.00">iDynTree::ICamera</text>
</a>
</g>
</g>
<!-- Node5&#45;&gt;Node4 -->
<g id="edge4" class="edge">
<title>Node5&#45;&gt;Node4</title>
<path fill="none" stroke="midnightblue" d="M147.31,-162C174.35,-162 206.08,-162 233.93,-162"/>
<polygon fill="midnightblue" stroke="midnightblue" points="147.2,-158.5 137.2,-162 147.2,-165.5 147.2,-158.5"/>
</g>
<!-- Node6 -->
<g id="node6" class="node">
<title>Node6</title>
<g id="a_node6"><a xlink:href="classiDynTree_1_1DummyEnvironment.html" target="_top" xlink:title="Dummy environment.">
<polygon fill="none" stroke="black" points="222,-114.5 222,-133.5 389,-133.5 389,-114.5 222,-114.5"/>
<text text-anchor="middle" x="305.5" y="-121.5" font-family="FreeSans.ttf" font-size="10.00">iDynTree::DummyEnvironment</text>
</a>
</g>
</g>
<!-- Node6&#45;&gt;Node1 -->
<g id="edge5" class="edge">
<title>Node6&#45;&gt;Node1</title>
<path fill="none" stroke="#9a32cd" stroke-dasharray="5,2" d="M399.35,-117.9C445.57,-114.86 499.91,-111.28 539.66,-108.67"/>
<polygon fill="#9a32cd" stroke="#9a32cd" points="399.06,-114.41 389.32,-118.56 399.52,-121.39 399.06,-114.41"/>
<text text-anchor="middle" x="473.5" y="-119" font-family="FreeSans.ttf" font-size="10.00"> m_environment</text>
</g>
<!-- Node7 -->
<g id="node7" class="node">
<title>Node7</title>
<g id="a_node7"><a xlink:href="classiDynTree_1_1IEnvironment.html" target="_top" xlink:title="Interface to manipulate the elements in the enviroment (background, root frame, reference lines)">
<polygon fill="none" stroke="black" points="18,-114.5 18,-133.5 149,-133.5 149,-114.5 18,-114.5"/>
<text text-anchor="middle" x="83.5" y="-121.5" font-family="FreeSans.ttf" font-size="10.00">iDynTree::IEnvironment</text>
</a>
</g>
</g>
<!-- Node7&#45;&gt;Node6 -->
<g id="edge6" class="edge">
<title>Node7&#45;&gt;Node6</title>
<path fill="none" stroke="midnightblue" d="M159.1,-124C179.32,-124 201.32,-124 221.95,-124"/>
<polygon fill="midnightblue" stroke="midnightblue" points="159.02,-120.5 149.02,-124 159.02,-127.5 159.02,-120.5"/>
</g>
<!-- Node8 -->
<g id="node8" class="node">
<title>Node8</title>
<g id="a_node8"><a xlink:href="classiDynTree_1_1DummyTexturesHandler.html" target="_top" xlink:title=" ">
<polygon fill="none" stroke="black" points="213.5,-76.5 213.5,-95.5 397.5,-95.5 397.5,-76.5 213.5,-76.5"/>
<text text-anchor="middle" x="305.5" y="-83.5" font-family="FreeSans.ttf" font-size="10.00">iDynTree::DummyTexturesHandler</text>
</a>
</g>
</g>
<!-- Node8&#45;&gt;Node1 -->
<g id="edge7" class="edge">
<title>Node8&#45;&gt;Node1</title>
<path fill="none" stroke="#9a32cd" stroke-dasharray="5,2" d="M407.64,-88.27C443.77,-89.6 484.75,-91.7 522,-95 527.77,-95.51 533.79,-96.15 539.78,-96.86"/>
<polygon fill="#9a32cd" stroke="#9a32cd" points="407.7,-84.77 397.58,-87.92 407.46,-91.77 407.7,-84.77"/>
<text text-anchor="middle" x="473.5" y="-98" font-family="FreeSans.ttf" font-size="10.00"> m_invalidTextures</text>
</g>
<!-- Node9 -->
<g id="node9" class="node">
<title>Node9</title>
<g id="a_node9"><a xlink:href="classiDynTree_1_1ITexturesHandler.html" target="_top" xlink:title=" ">
<polygon fill="none" stroke="black" points="9.5,-76.5 9.5,-95.5 157.5,-95.5 157.5,-76.5 9.5,-76.5"/>
<text text-anchor="middle" x="83.5" y="-83.5" font-family="FreeSans.ttf" font-size="10.00">iDynTree::ITexturesHandler</text>
</a>
</g>
</g>
<!-- Node9&#45;&gt;Node8 -->
<g id="edge8" class="edge">
<title>Node9&#45;&gt;Node8</title>
<path fill="none" stroke="midnightblue" d="M167.88,-86C182.68,-86 198.16,-86 213.17,-86"/>
<polygon fill="midnightblue" stroke="midnightblue" points="167.76,-82.5 157.76,-86 167.76,-89.5 167.76,-82.5"/>
</g>
<!-- Node10 -->
<g id="node10" class="node">
<title>Node10</title>
<g id="a_node10"><a xlink:href="classiDynTree_1_1DummyVectorsVisualization.html" target="_top" xlink:title=" ">
<polygon fill="none" stroke="black" points="204,-38.5 204,-57.5 407,-57.5 407,-38.5 204,-38.5"/>
<text text-anchor="middle" x="305.5" y="-45.5" font-family="FreeSans.ttf" font-size="10.00">iDynTree::DummyVectorsVisualization</text>
</a>
</g>
</g>
<!-- Node10&#45;&gt;Node1 -->
<g id="edge9" class="edge">
<title>Node10&#45;&gt;Node1</title>
<path fill="none" stroke="#9a32cd" stroke-dasharray="5,2" d="M417.08,-55.36C451.11,-59.22 488.44,-65.09 522,-74 536.59,-77.87 552.08,-84.07 565.06,-89.91"/>
<polygon fill="#9a32cd" stroke="#9a32cd" points="417.43,-51.88 407.11,-54.28 416.67,-58.84 417.43,-51.88"/>
<text text-anchor="middle" x="473.5" y="-77" font-family="FreeSans.ttf" font-size="10.00"> m_invalidVectors</text>
</g>
<!-- Node11 -->
<g id="node11" class="node">
<title>Node11</title>
<g id="a_node11"><a xlink:href="classiDynTree_1_1IVectorsVisualization.html" target="_top" xlink:title="Interface to the visualization of vectors.">
<polygon fill="none" stroke="black" points="0,-38.5 0,-57.5 167,-57.5 167,-38.5 0,-38.5"/>
<text text-anchor="middle" x="83.5" y="-45.5" font-family="FreeSans.ttf" font-size="10.00">iDynTree::IVectorsVisualization</text>
</a>
</g>
</g>
<!-- Node11&#45;&gt;Node10 -->
<g id="edge10" class="edge">
<title>Node11&#45;&gt;Node10</title>
<path fill="none" stroke="midnightblue" d="M177.22,-48C185.96,-48 194.85,-48 203.66,-48"/>
<polygon fill="midnightblue" stroke="midnightblue" points="177.05,-44.5 167.05,-48 177.05,-51.5 177.05,-44.5"/>
</g>
<!-- Node12 -->
<g id="node12" class="node">
<title>Node12</title>
<g id="a_node12"><a xlink:href="classiDynTree_1_1DummyModelVisualization.html" target="_top" xlink:title="Dummy model visualization.">
<polygon fill="none" stroke="black" points="207,-0.5 207,-19.5 404,-19.5 404,-0.5 207,-0.5"/>
<text text-anchor="middle" x="305.5" y="-7.5" font-family="FreeSans.ttf" font-size="10.00">iDynTree::DummyModelVisualization</text>
</a>
</g>
</g>
<!-- Node12&#45;&gt;Node1 -->
<g id="edge11" class="edge">
<title>Node12&#45;&gt;Node1</title>
<path fill="none" stroke="#9a32cd" stroke-dasharray="5,2" d="M414.63,-13.42C450.08,-17.67 488.85,-25.81 522,-41 546.77,-52.35 569.45,-74.74 582.88,-89.79"/>
<polygon fill="#9a32cd" stroke="#9a32cd" points="414.56,-9.89 404.24,-12.27 413.79,-16.84 414.56,-9.89"/>
<text text-anchor="middle" x="473.5" y="-44" font-family="FreeSans.ttf" font-size="10.00"> m_invalidModelViz</text>
</g>
<!-- Node13 -->
<g id="node13" class="node">
<title>Node13</title>
<g id="a_node13"><a xlink:href="classiDynTree_1_1IModelVisualization.html" target="_top" xlink:title="Interface to the visualization of a model istance.">
<polygon fill="none" stroke="black" points="3,-0.5 3,-19.5 164,-19.5 164,-0.5 3,-0.5"/>
<text text-anchor="middle" x="83.5" y="-7.5" font-family="FreeSans.ttf" font-size="10.00">iDynTree::IModelVisualization</text>
</a>
</g>
</g>
<!-- Node13&#45;&gt;Node12 -->
<g id="edge12" class="edge">
<title>Node13&#45;&gt;Node12</title>
<path fill="none" stroke="midnightblue" d="M174.35,-10C185,-10 195.9,-10 206.65,-10"/>
<polygon fill="midnightblue" stroke="midnightblue" points="174.24,-6.5 164.24,-10 174.24,-13.5 174.24,-6.5"/>
</g>
</g>
</svg>
