<?xml version="1.0" encoding="UTF-8" standalone="no"?>
<!DOCTYPE svg PUBLIC "-//W3C//DTD SVG 1.1//EN"
 "http://www.w3.org/Graphics/SVG/1.1/DTD/svg11.dtd">
<!-- Generated by graphviz version 2.43.0 (0)
 -->
<!-- Title: iDynTree::optimalcontrol::TimedConstraint Pages: 1 -->
<svg width="423pt" height="124pt"
 viewBox="0.00 0.00 423.00 123.50" xmlns="http://www.w3.org/2000/svg" xmlns:xlink="http://www.w3.org/1999/xlink">
<g id="graph0" class="graph" transform="scale(1 1) rotate(0) translate(4 119.5)">
<title>iDynTree::optimalcontrol::TimedConstraint</title>
<!-- Node1 -->
<g id="node1" class="node">
<title>Node1</title>
<g id="a_node1"><a xlink:title=" ">
<polygon fill="#bfbfbf" stroke="black" points="278,-40 278,-70 415,-70 415,-40 278,-40"/>
<text text-anchor="start" x="286" y="-58" font-family="FreeSans.ttf" font-size="10.00">iDynTree::optimalcontrol</text>
<text text-anchor="middle" x="346.5" y="-47" font-family="FreeSans.ttf" font-size="10.00">::TimedConstraint</text>
</a>
</g>
</g>
<!-- Node2 -->
<g id="node2" class="node">
<title>Node2</title>
<g id="a_node2"><a xlink:href="classiDynTree_1_1optimalcontrol_1_1TimeRange.html" target="_top" xlink:title=" ">
<polygon fill="none" stroke="black" points="0,-85 0,-115 137,-115 137,-85 0,-85"/>
<text text-anchor="start" x="8" y="-103" font-family="FreeSans.ttf" font-size="10.00">iDynTree::optimalcontrol</text>
<text text-anchor="middle" x="68.5" y="-92" font-family="FreeSans.ttf" font-size="10.00">::TimeRange</text>
</a>
</g>
</g>
<!-- Node2&#45;&gt;Node1 -->
<g id="edge1" class="edge">
<title>Node2&#45;&gt;Node1</title>
<path fill="none" stroke="#9a32cd" stroke-dasharray="5,2" d="M147.38,-93.63C182.04,-90.12 223.24,-85.03 260,-78 271.17,-75.86 283.03,-73.04 294.24,-70.11"/>
<polygon fill="#9a32cd" stroke="#9a32cd" points="146.92,-90.16 137.31,-94.62 147.61,-97.13 146.92,-90.16"/>
<text text-anchor="middle" x="207.5" y="-95" font-family="FreeSans.ttf" font-size="10.00"> timeRange</text>
</g>
<!-- Node3 -->
<g id="node3" class="node">
<title>Node3</title>
<g id="a_node3"><a xlink:href="classiDynTree_1_1MatrixDynSize.html" target="_top" xlink:title="Class providing a simple form of matrix with dynamic size.">
<polygon fill="none" stroke="black" points="0,-45.5 0,-64.5 137,-64.5 137,-45.5 0,-45.5"/>
<text text-anchor="middle" x="68.5" y="-52.5" font-family="FreeSans.ttf" font-size="10.00">iDynTree::MatrixDynSize</text>
</a>
</g>
</g>
<!-- Node3&#45;&gt;Node1 -->
<g id="edge2" class="edge">
<title>Node3&#45;&gt;Node1</title>
<path fill="none" stroke="#9a32cd" stroke-dasharray="5,2" d="M147.26,-55C188.32,-55 238.25,-55 277.72,-55"/>
<polygon fill="#9a32cd" stroke="#9a32cd" points="147.02,-51.5 137.02,-55 147.02,-58.5 147.02,-51.5"/>
<text text-anchor="middle" x="207.5" y="-69" font-family="FreeSans.ttf" font-size="10.00"> stateJacobianBuffer</text>
<text text-anchor="middle" x="207.5" y="-58" font-family="FreeSans.ttf" font-size="10.00">controlJacobianBuffer</text>
</g>
<!-- Node4 -->
<g id="node4" class="node">
<title>Node4</title>
<g id="a_node4"><a xlink:href="classiDynTree_1_1VectorDynSize.html" target="_top" xlink:title="Class providing a simple form of vector with dynamic size.">
<polygon fill="none" stroke="black" points="0.5,-0.5 0.5,-19.5 136.5,-19.5 136.5,-0.5 0.5,-0.5"/>
<text text-anchor="middle" x="68.5" y="-7.5" font-family="FreeSans.ttf" font-size="10.00">iDynTree::VectorDynSize</text>
</a>
</g>
</g>
<!-- Node4&#45;&gt;Node1 -->
<g id="edge3" class="edge">
<title>Node4&#45;&gt;Node1</title>
<path fill="none" stroke="#9a32cd" stroke-dasharray="5,2" d="M146.65,-14.25C181.51,-17.05 223.07,-21.62 260,-29 273.84,-31.77 288.65,-35.85 301.98,-39.97"/>
<polygon fill="#9a32cd" stroke="#9a32cd" points="146.77,-10.75 136.54,-13.47 146.24,-17.73 146.77,-10.75"/>
<text text-anchor="middle" x="207.5" y="-43" font-family="FreeSans.ttf" font-size="10.00"> constraintBuffer</text>
<text text-anchor="middle" x="207.5" y="-32" font-family="FreeSans.ttf" font-size="10.00">lambdaBuffer</text>
</g>
</g>
</svg>
