<?xml version="1.0" encoding="UTF-8" standalone="no"?>
<!DOCTYPE svg PUBLIC "-//W3C//DTD SVG 1.1//EN"
 "http://www.w3.org/Graphics/SVG/1.1/DTD/svg11.dtd">
<!-- Generated by graphviz version 2.43.0 (0)
 -->
<!-- Title: iDynTree::estimateExternalWrenchesBuffers Pages: 1 -->
<svg width="307pt" height="106pt"
 viewBox="0.00 0.00 307.00 106.00" xmlns="http://www.w3.org/2000/svg" xmlns:xlink="http://www.w3.org/1999/xlink">
<g id="graph0" class="graph" transform="scale(1 1) rotate(0) translate(4 102)">
<title>iDynTree::estimateExternalWrenchesBuffers</title>
<!-- Node1 -->
<g id="node1" class="node">
<title>Node1</title>
<g id="a_node1"><a xlink:title=" ">
<polygon fill="#bfbfbf" stroke="black" points="65.5,-0.5 65.5,-30.5 214.5,-30.5 214.5,-0.5 65.5,-0.5"/>
<text text-anchor="start" x="73.5" y="-18.5" font-family="FreeSans.ttf" font-size="10.00">iDynTree::estimateExternal</text>
<text text-anchor="middle" x="140" y="-7.5" font-family="FreeSans.ttf" font-size="10.00">WrenchesBuffers</text>
</a>
</g>
</g>
<!-- Node2 -->
<g id="node2" class="node">
<title>Node2</title>
<g id="a_node2"><a xlink:href="classiDynTree_1_1LinkPositions.html" target="_top" xlink:title=" ">
<polygon fill="none" stroke="black" points="0,-78.5 0,-97.5 130,-97.5 130,-78.5 0,-78.5"/>
<text text-anchor="middle" x="65" y="-85.5" font-family="FreeSans.ttf" font-size="10.00">iDynTree::LinkPositions</text>
</a>
</g>
</g>
<!-- Node2&#45;&gt;Node1 -->
<g id="edge1" class="edge">
<title>Node2&#45;&gt;Node1</title>
<path fill="none" stroke="#9a32cd" stroke-dasharray="5,2" d="M70.52,-68.53C73.2,-61.82 76.95,-54.53 82,-49 88.77,-41.59 97.64,-35.46 106.4,-30.6"/>
<polygon fill="#9a32cd" stroke="#9a32cd" points="67.12,-67.67 67.18,-78.26 73.74,-69.94 67.12,-67.67"/>
<text text-anchor="middle" x="137.5" y="-52" font-family="FreeSans.ttf" font-size="10.00"> subModelBase_H_link</text>
</g>
<!-- Node3 -->
<g id="node3" class="node">
<title>Node3</title>
<g id="a_node3"><a xlink:href="classiDynTree_1_1LinkWrenches.html" target="_top" xlink:title="Vector of wrenches connected in some way to the link of a model.">
<polygon fill="none" stroke="black" points="148,-78.5 148,-97.5 282,-97.5 282,-78.5 148,-78.5"/>
<text text-anchor="middle" x="215" y="-85.5" font-family="FreeSans.ttf" font-size="10.00">iDynTree::LinkWrenches</text>
</a>
</g>
</g>
<!-- Node3&#45;&gt;Node1 -->
<g id="edge2" class="edge">
<title>Node3&#45;&gt;Node1</title>
<path fill="none" stroke="#9a32cd" stroke-dasharray="5,2" d="M207.02,-69.14C203.4,-62.32 198.65,-54.79 193,-49 185.99,-41.81 177.08,-35.56 168.58,-30.51"/>
<polygon fill="#9a32cd" stroke="#9a32cd" points="203.97,-70.88 211.49,-78.35 210.27,-67.82 203.97,-70.88"/>
<text text-anchor="middle" x="250" y="-52" font-family="FreeSans.ttf" font-size="10.00"> b_contacts_subtree</text>
</g>
</g>
</svg>
