<?xml version="1.0" encoding="UTF-8" standalone="no"?>
<!DOCTYPE svg PUBLIC "-//W3C//DTD SVG 1.1//EN"
 "http://www.w3.org/Graphics/SVG/1.1/DTD/svg11.dtd">
<!-- Generated by graphviz version 2.43.0 (0)
 -->
<!-- Title: SubModel.h Pages: 1 -->
<svg width="301pt" height="140pt"
 viewBox="0.00 0.00 301.00 140.00" xmlns="http://www.w3.org/2000/svg" xmlns:xlink="http://www.w3.org/1999/xlink">
<g id="graph0" class="graph" transform="scale(1 1) rotate(0) translate(4 136)">
<title>SubModel.h</title>
<!-- Node1 -->
<g id="node1" class="node">
<title>Node1</title>
<g id="a_node1"><a xlink:title=" ">
<polygon fill="#bfbfbf" stroke="black" points="131.5,-112.5 131.5,-131.5 205.5,-131.5 205.5,-112.5 131.5,-112.5"/>
<text text-anchor="middle" x="168.5" y="-119.5" font-family="FreeSans.ttf" font-size="10.00">SubModel.h</text>
</a>
</g>
</g>
<!-- Node2 -->
<g id="node2" class="node">
<title>Node2</title>
<g id="a_node2"><a xlink:href="Indices_8h.html" target="_top" xlink:title=" ">
<polygon fill="none" stroke="black" points="50,-56.5 50,-75.5 189,-75.5 189,-56.5 50,-56.5"/>
<text text-anchor="middle" x="119.5" y="-63.5" font-family="FreeSans.ttf" font-size="10.00">iDynTree/Model/Indices.h</text>
</a>
</g>
</g>
<!-- Node1&#45;&gt;Node2 -->
<g id="edge1" class="edge">
<title>Node1&#45;&gt;Node2</title>
<path fill="none" stroke="midnightblue" d="M160.41,-112.08C153.34,-104.3 142.91,-92.8 134.35,-83.37"/>
<polygon fill="midnightblue" stroke="midnightblue" points="136.75,-80.8 127.44,-75.75 131.57,-85.51 136.75,-80.8"/>
</g>
<!-- Node3 -->
<g id="node3" class="node">
<title>Node3</title>
<g id="a_node3"><a xlink:title=" ">
<polygon fill="none" stroke="#bfbfbf" points="0,-0.5 0,-19.5 53,-19.5 53,-0.5 0,-0.5"/>
<text text-anchor="middle" x="26.5" y="-7.5" font-family="FreeSans.ttf" font-size="10.00">cstddef</text>
</a>
</g>
</g>
<!-- Node1&#45;&gt;Node3 -->
<g id="edge7" class="edge">
<title>Node1&#45;&gt;Node3</title>
<path fill="none" stroke="midnightblue" d="M131.49,-117.43C102.87,-112.69 64.39,-101.66 41.5,-76 30.31,-63.45 26.98,-44.23 26.21,-29.94"/>
<polygon fill="midnightblue" stroke="midnightblue" points="29.7,-29.7 26.03,-19.76 22.7,-29.82 29.7,-29.7"/>
</g>
<!-- Node4 -->
<g id="node4" class="node">
<title>Node4</title>
<g id="a_node4"><a xlink:title=" ">
<polygon fill="none" stroke="#bfbfbf" points="188.5,-0.5 188.5,-19.5 232.5,-19.5 232.5,-0.5 188.5,-0.5"/>
<text text-anchor="middle" x="210.5" y="-7.5" font-family="FreeSans.ttf" font-size="10.00">string</text>
</a>
</g>
</g>
<!-- Node1&#45;&gt;Node4 -->
<g id="edge6" class="edge">
<title>Node1&#45;&gt;Node4</title>
<path fill="none" stroke="midnightblue" d="M175.87,-112.31C182.8,-103.67 192.92,-89.75 198.5,-76 204.5,-61.2 207.53,-43.27 209.04,-30"/>
<polygon fill="midnightblue" stroke="midnightblue" points="212.55,-30.01 210.01,-19.72 205.58,-29.35 212.55,-30.01"/>
</g>
<!-- Node6 -->
<g id="node6" class="node">
<title>Node6</title>
<g id="a_node6"><a xlink:title=" ">
<polygon fill="none" stroke="#bfbfbf" points="246,-56.5 246,-75.5 293,-75.5 293,-56.5 246,-56.5"/>
<text text-anchor="middle" x="269.5" y="-63.5" font-family="FreeSans.ttf" font-size="10.00">vector</text>
</a>
</g>
</g>
<!-- Node1&#45;&gt;Node6 -->
<g id="edge5" class="edge">
<title>Node1&#45;&gt;Node6</title>
<path fill="none" stroke="midnightblue" d="M184.73,-112.32C200.85,-103.7 225.8,-90.36 244.46,-80.39"/>
<polygon fill="midnightblue" stroke="midnightblue" points="246.14,-83.46 253.31,-75.65 242.84,-77.28 246.14,-83.46"/>
</g>
<!-- Node2&#45;&gt;Node3 -->
<g id="edge2" class="edge">
<title>Node2&#45;&gt;Node3</title>
<path fill="none" stroke="midnightblue" d="M104.56,-56.32C89.91,-47.82 67.37,-34.73 50.26,-24.8"/>
<polygon fill="midnightblue" stroke="midnightblue" points="51.81,-21.65 41.4,-19.65 48.3,-27.7 51.81,-21.65"/>
</g>
<!-- Node2&#45;&gt;Node4 -->
<g id="edge3" class="edge">
<title>Node2&#45;&gt;Node4</title>
<path fill="none" stroke="midnightblue" d="M134.12,-56.32C148.45,-47.82 170.51,-34.73 187.25,-24.8"/>
<polygon fill="midnightblue" stroke="midnightblue" points="189.1,-27.77 195.92,-19.65 185.53,-21.75 189.1,-27.77"/>
</g>
<!-- Node5 -->
<g id="node5" class="node">
<title>Node5</title>
<g id="a_node5"><a xlink:title=" ">
<polygon fill="none" stroke="#bfbfbf" points="76,-0.5 76,-19.5 163,-19.5 163,-0.5 76,-0.5"/>
<text text-anchor="middle" x="119.5" y="-7.5" font-family="FreeSans.ttf" font-size="10.00">ModelExport.h</text>
</a>
</g>
</g>
<!-- Node2&#45;&gt;Node5 -->
<g id="edge4" class="edge">
<title>Node2&#45;&gt;Node5</title>
<path fill="none" stroke="midnightblue" d="M119.5,-56.08C119.5,-49.01 119.5,-38.86 119.5,-29.99"/>
<polygon fill="midnightblue" stroke="midnightblue" points="123,-29.75 119.5,-19.75 116,-29.75 123,-29.75"/>
</g>
</g>
</svg>
