<?xml version="1.0" encoding="UTF-8" standalone="no"?>
<!DOCTYPE svg PUBLIC "-//W3C//DTD SVG 1.1//EN"
 "http://www.w3.org/Graphics/SVG/1.1/DTD/svg11.dtd">
<!-- Generated by graphviz version 2.43.0 (0)
 -->
<!-- Title: TestUtils.h Pages: 1 -->
<svg width="878pt" height="252pt"
 viewBox="0.00 0.00 878.00 252.00" xmlns="http://www.w3.org/2000/svg" xmlns:xlink="http://www.w3.org/1999/xlink">
<g id="graph0" class="graph" transform="scale(1 1) rotate(0) translate(4 248)">
<title>TestUtils.h</title>
<!-- Node1 -->
<g id="node1" class="node">
<title>Node1</title>
<g id="a_node1"><a xlink:title=" ">
<polygon fill="#bfbfbf" stroke="black" points="532.5,-224.5 532.5,-243.5 600.5,-243.5 600.5,-224.5 532.5,-224.5"/>
<text text-anchor="middle" x="566.5" y="-231.5" font-family="FreeSans.ttf" font-size="10.00">TestUtils.h</text>
</a>
</g>
</g>
<!-- Node2 -->
<g id="node2" class="node">
<title>Node2</title>
<g id="a_node2"><a xlink:href="MatrixDynSize_8h.html" target="_top" xlink:title=" ">
<polygon fill="none" stroke="black" points="256.5,-168.5 256.5,-187.5 424.5,-187.5 424.5,-168.5 256.5,-168.5"/>
<text text-anchor="middle" x="340.5" y="-175.5" font-family="FreeSans.ttf" font-size="10.00">iDynTree/Core/MatrixDynSize.h</text>
</a>
</g>
</g>
<!-- Node1&#45;&gt;Node2 -->
<g id="edge1" class="edge">
<title>Node1&#45;&gt;Node2</title>
<path fill="none" stroke="midnightblue" d="M532.18,-224.8C493.19,-215.48 429.41,-200.24 386.23,-189.93"/>
<polygon fill="midnightblue" stroke="midnightblue" points="386.81,-186.47 376.27,-187.55 385.18,-193.27 386.81,-186.47"/>
</g>
<!-- Node3 -->
<g id="node3" class="node">
<title>Node3</title>
<g id="a_node3"><a xlink:title=" ">
<polygon fill="none" stroke="#bfbfbf" points="202.5,-112.5 202.5,-131.5 246.5,-131.5 246.5,-112.5 202.5,-112.5"/>
<text text-anchor="middle" x="224.5" y="-119.5" font-family="FreeSans.ttf" font-size="10.00">string</text>
</a>
</g>
</g>
<!-- Node1&#45;&gt;Node3 -->
<g id="edge23" class="edge">
<title>Node1&#45;&gt;Node3</title>
<path fill="none" stroke="midnightblue" d="M532.23,-232.53C459.02,-230.86 290.53,-223.18 247.5,-188 233.76,-176.77 228.22,-156.75 225.99,-141.89"/>
<polygon fill="midnightblue" stroke="midnightblue" points="229.45,-141.31 224.85,-131.76 222.49,-142.09 229.45,-141.31"/>
</g>
<!-- Node8 -->
<g id="node8" class="node">
<title>Node8</title>
<g id="a_node8"><a xlink:title=" ">
<polygon fill="none" stroke="#bfbfbf" points="498.5,-0.5 498.5,-19.5 562.5,-19.5 562.5,-0.5 498.5,-0.5"/>
<text text-anchor="middle" x="530.5" y="-7.5" font-family="FreeSans.ttf" font-size="10.00">algorithm</text>
</a>
</g>
</g>
<!-- Node1&#45;&gt;Node8 -->
<g id="edge20" class="edge">
<title>Node1&#45;&gt;Node8</title>
<path fill="none" stroke="midnightblue" d="M553.72,-224.37C543.11,-216.36 528.77,-203.38 522.5,-188 500.38,-133.75 515.61,-62.24 524.85,-29.19"/>
<polygon fill="midnightblue" stroke="midnightblue" points="528.22,-30.12 527.69,-19.54 521.51,-28.14 528.22,-30.12"/>
</g>
<!-- Node15 -->
<g id="node15" class="node">
<title>Node15</title>
<g id="a_node15"><a xlink:href="Utils_8h.html" target="_top" xlink:title=" ">
<polygon fill="none" stroke="black" points="542,-56.5 542,-75.5 661,-75.5 661,-56.5 542,-56.5"/>
<text text-anchor="middle" x="601.5" y="-63.5" font-family="FreeSans.ttf" font-size="10.00">iDynTree/Core/Utils.h</text>
</a>
</g>
</g>
<!-- Node1&#45;&gt;Node15 -->
<g id="edge19" class="edge">
<title>Node1&#45;&gt;Node15</title>
<path fill="none" stroke="midnightblue" d="M556.06,-224.24C547.08,-215.97 534.75,-202.66 529.5,-188 526.5,-179.63 526.79,-176.47 529.5,-168 540.42,-133.88 567.56,-101.45 585.22,-82.92"/>
<polygon fill="midnightblue" stroke="midnightblue" points="587.85,-85.24 592.36,-75.65 582.85,-80.34 587.85,-85.24"/>
</g>
<!-- Node17 -->
<g id="node17" class="node">
<title>Node17</title>
<g id="a_node17"><a xlink:title=" ">
<polygon fill="none" stroke="#bfbfbf" points="538.5,-168.5 538.5,-187.5 594.5,-187.5 594.5,-168.5 538.5,-168.5"/>
<text text-anchor="middle" x="566.5" y="-175.5" font-family="FreeSans.ttf" font-size="10.00">iomanip</text>
</a>
</g>
</g>
<!-- Node1&#45;&gt;Node17 -->
<g id="edge21" class="edge">
<title>Node1&#45;&gt;Node17</title>
<path fill="none" stroke="midnightblue" d="M566.5,-224.08C566.5,-217.01 566.5,-206.86 566.5,-197.99"/>
<polygon fill="midnightblue" stroke="midnightblue" points="570,-197.75 566.5,-187.75 563,-197.75 570,-197.75"/>
</g>
<!-- Node18 -->
<g id="node18" class="node">
<title>Node18</title>
<g id="a_node18"><a xlink:title=" ">
<polygon fill="none" stroke="#bfbfbf" points="612.5,-168.5 612.5,-187.5 672.5,-187.5 672.5,-168.5 612.5,-168.5"/>
<text text-anchor="middle" x="642.5" y="-175.5" font-family="FreeSans.ttf" font-size="10.00">iostream</text>
</a>
</g>
</g>
<!-- Node1&#45;&gt;Node18 -->
<g id="edge22" class="edge">
<title>Node1&#45;&gt;Node18</title>
<path fill="none" stroke="midnightblue" d="M578.71,-224.32C590.28,-216.11 607.88,-203.6 621.66,-193.81"/>
<polygon fill="midnightblue" stroke="midnightblue" points="623.94,-196.48 630.07,-187.83 619.89,-190.77 623.94,-196.48"/>
</g>
<!-- Node19 -->
<g id="node19" class="node">
<title>Node19</title>
<g id="a_node19"><a xlink:title=" ">
<polygon fill="none" stroke="#bfbfbf" points="691,-168.5 691,-187.5 738,-187.5 738,-168.5 691,-168.5"/>
<text text-anchor="middle" x="714.5" y="-175.5" font-family="FreeSans.ttf" font-size="10.00">vector</text>
</a>
</g>
</g>
<!-- Node1&#45;&gt;Node19 -->
<g id="edge24" class="edge">
<title>Node1&#45;&gt;Node19</title>
<path fill="none" stroke="midnightblue" d="M589.95,-224.44C614.63,-215.44 653.69,-201.19 681.48,-191.05"/>
<polygon fill="midnightblue" stroke="midnightblue" points="682.96,-194.23 691.16,-187.52 680.56,-187.66 682.96,-194.23"/>
</g>
<!-- Node20 -->
<g id="node20" class="node">
<title>Node20</title>
<g id="a_node20"><a xlink:title=" ">
<polygon fill="none" stroke="#bfbfbf" points="756,-168.5 756,-187.5 805,-187.5 805,-168.5 756,-168.5"/>
<text text-anchor="middle" x="780.5" y="-175.5" font-family="FreeSans.ttf" font-size="10.00">cstdlib</text>
</a>
</g>
</g>
<!-- Node1&#45;&gt;Node20 -->
<g id="edge25" class="edge">
<title>Node1&#45;&gt;Node20</title>
<path fill="none" stroke="midnightblue" d="M600.58,-224.77C635.02,-216.4 690,-202.89 745.94,-188.37"/>
<polygon fill="midnightblue" stroke="midnightblue" points="746.85,-191.75 755.65,-185.84 745.09,-184.97 746.85,-191.75"/>
</g>
<!-- Node21 -->
<g id="node21" class="node">
<title>Node21</title>
<g id="a_node21"><a xlink:title=" ">
<polygon fill="none" stroke="#bfbfbf" points="823,-168.5 823,-187.5 870,-187.5 870,-168.5 823,-168.5"/>
<text text-anchor="middle" x="846.5" y="-175.5" font-family="FreeSans.ttf" font-size="10.00">cmath</text>
</a>
</g>
</g>
<!-- Node1&#45;&gt;Node21 -->
<g id="edge26" class="edge">
<title>Node1&#45;&gt;Node21</title>
<path fill="none" stroke="midnightblue" d="M600.81,-227.83C646.98,-220.64 731.85,-206.62 812.93,-188.2"/>
<polygon fill="midnightblue" stroke="midnightblue" points="813.84,-191.59 822.8,-185.94 812.27,-184.76 813.84,-191.59"/>
</g>
<!-- Node2&#45;&gt;Node3 -->
<g id="edge2" class="edge">
<title>Node2&#45;&gt;Node3</title>
<path fill="none" stroke="midnightblue" d="M322.12,-168.44C303.28,-159.68 273.77,-145.94 252.12,-135.86"/>
<polygon fill="midnightblue" stroke="midnightblue" points="253.34,-132.56 242.79,-131.52 250.38,-138.91 253.34,-132.56"/>
</g>
<!-- Node4 -->
<g id="node4" class="node">
<title>Node4</title>
<g id="a_node4"><a xlink:href="MatrixView_8h.html" target="_top" xlink:title=" ">
<polygon fill="none" stroke="black" points="264.5,-112.5 264.5,-131.5 416.5,-131.5 416.5,-112.5 264.5,-112.5"/>
<text text-anchor="middle" x="340.5" y="-119.5" font-family="FreeSans.ttf" font-size="10.00">iDynTree/Core/MatrixView.h</text>
</a>
</g>
</g>
<!-- Node2&#45;&gt;Node4 -->
<g id="edge3" class="edge">
<title>Node2&#45;&gt;Node4</title>
<path fill="none" stroke="midnightblue" d="M340.5,-168.08C340.5,-161.01 340.5,-150.86 340.5,-141.99"/>
<polygon fill="midnightblue" stroke="midnightblue" points="344,-141.75 340.5,-131.75 337,-141.75 344,-141.75"/>
</g>
<!-- Node5 -->
<g id="node5" class="node">
<title>Node5</title>
<g id="a_node5"><a xlink:title=" ">
<polygon fill="none" stroke="#bfbfbf" points="87.5,-0.5 87.5,-19.5 139.5,-19.5 139.5,-0.5 87.5,-0.5"/>
<text text-anchor="middle" x="113.5" y="-7.5" font-family="FreeSans.ttf" font-size="10.00">cassert</text>
</a>
</g>
</g>
<!-- Node4&#45;&gt;Node5 -->
<g id="edge4" class="edge">
<title>Node4&#45;&gt;Node5</title>
<path fill="none" stroke="midnightblue" d="M322.69,-112.37C283.07,-93.17 187.46,-46.84 140.48,-24.07"/>
<polygon fill="midnightblue" stroke="midnightblue" points="141.75,-20.8 131.23,-19.59 138.7,-27.1 141.75,-20.8"/>
</g>
<!-- Node6 -->
<g id="node6" class="node">
<title>Node6</title>
<g id="a_node6"><a xlink:title=" ">
<polygon fill="none" stroke="#bfbfbf" points="0,-0.5 0,-19.5 69,-19.5 69,-0.5 0,-0.5"/>
<text text-anchor="middle" x="34.5" y="-7.5" font-family="FreeSans.ttf" font-size="10.00">type_traits</text>
</a>
</g>
</g>
<!-- Node4&#45;&gt;Node6 -->
<g id="edge5" class="edge">
<title>Node4&#45;&gt;Node6</title>
<path fill="none" stroke="midnightblue" d="M313.07,-112.43C285.31,-103.66 241.23,-89.44 203.5,-76 154.72,-58.62 98.74,-36.69 65.02,-23.27"/>
<polygon fill="midnightblue" stroke="midnightblue" points="66.3,-20.01 55.72,-19.55 63.71,-26.51 66.3,-20.01"/>
</g>
<!-- Node7 -->
<g id="node7" class="node">
<title>Node7</title>
<g id="a_node7"><a xlink:href="Span_8h.html" target="_top" xlink:title=" ">
<polygon fill="none" stroke="black" points="270,-56.5 270,-75.5 391,-75.5 391,-56.5 270,-56.5"/>
<text text-anchor="middle" x="330.5" y="-63.5" font-family="FreeSans.ttf" font-size="10.00">iDynTree/Core/Span.h</text>
</a>
</g>
</g>
<!-- Node4&#45;&gt;Node7 -->
<g id="edge6" class="edge">
<title>Node4&#45;&gt;Node7</title>
<path fill="none" stroke="midnightblue" d="M338.85,-112.08C337.52,-104.93 335.62,-94.64 333.96,-85.69"/>
<polygon fill="midnightblue" stroke="midnightblue" points="337.38,-84.95 332.12,-75.75 330.5,-86.22 337.38,-84.95"/>
</g>
<!-- Node4&#45;&gt;Node15 -->
<g id="edge16" class="edge">
<title>Node4&#45;&gt;Node15</title>
<path fill="none" stroke="midnightblue" d="M381.86,-112.44C427.58,-102.98 501.26,-87.74 550.52,-77.55"/>
<polygon fill="midnightblue" stroke="midnightblue" points="551.25,-80.97 560.34,-75.52 549.84,-74.12 551.25,-80.97"/>
</g>
<!-- Node7&#45;&gt;Node5 -->
<g id="edge7" class="edge">
<title>Node7&#45;&gt;Node5</title>
<path fill="none" stroke="midnightblue" d="M295.59,-56.47C260.93,-47.98 206.05,-34.47 149.66,-20.28"/>
<polygon fill="midnightblue" stroke="midnightblue" points="150.42,-16.86 139.87,-17.81 148.71,-23.65 150.42,-16.86"/>
</g>
<!-- Node7&#45;&gt;Node6 -->
<g id="edge14" class="edge">
<title>Node7&#45;&gt;Node6</title>
<path fill="none" stroke="midnightblue" d="M280.7,-56.49C232.01,-48.08 155.48,-34.63 79.32,-20.12"/>
<polygon fill="midnightblue" stroke="midnightblue" points="79.55,-16.6 69.07,-18.16 78.24,-23.47 79.55,-16.6"/>
</g>
<!-- Node7&#45;&gt;Node8 -->
<g id="edge8" class="edge">
<title>Node7&#45;&gt;Node8</title>
<path fill="none" stroke="midnightblue" d="M362.19,-56.44C396.57,-47.16 451.58,-32.31 489.29,-22.13"/>
<polygon fill="midnightblue" stroke="midnightblue" points="490.22,-25.5 498.96,-19.52 488.39,-18.74 490.22,-25.5"/>
</g>
<!-- Node9 -->
<g id="node9" class="node">
<title>Node9</title>
<g id="a_node9"><a xlink:title=" ">
<polygon fill="none" stroke="#bfbfbf" points="304.5,-0.5 304.5,-19.5 346.5,-19.5 346.5,-0.5 304.5,-0.5"/>
<text text-anchor="middle" x="325.5" y="-7.5" font-family="FreeSans.ttf" font-size="10.00">array</text>
</a>
</g>
</g>
<!-- Node7&#45;&gt;Node9 -->
<g id="edge9" class="edge">
<title>Node7&#45;&gt;Node9</title>
<path fill="none" stroke="midnightblue" d="M329.67,-56.08C329.02,-49.01 328.08,-38.86 327.26,-29.99"/>
<polygon fill="midnightblue" stroke="midnightblue" points="330.72,-29.39 326.31,-19.75 323.75,-30.03 330.72,-29.39"/>
</g>
<!-- Node10 -->
<g id="node10" class="node">
<title>Node10</title>
<g id="a_node10"><a xlink:title=" ">
<polygon fill="none" stroke="#bfbfbf" points="581,-0.5 581,-19.5 634,-19.5 634,-0.5 581,-0.5"/>
<text text-anchor="middle" x="607.5" y="-7.5" font-family="FreeSans.ttf" font-size="10.00">cstddef</text>
</a>
</g>
</g>
<!-- Node7&#45;&gt;Node10 -->
<g id="edge10" class="edge">
<title>Node7&#45;&gt;Node10</title>
<path fill="none" stroke="midnightblue" d="M380.99,-56.49C427.68,-48.41 499.22,-35.51 570.72,-20.06"/>
<polygon fill="midnightblue" stroke="midnightblue" points="571.78,-23.41 580.81,-17.86 570.29,-16.57 571.78,-23.41"/>
</g>
<!-- Node11 -->
<g id="node11" class="node">
<title>Node11</title>
<g id="a_node11"><a xlink:title=" ">
<polygon fill="none" stroke="#bfbfbf" points="365,-0.5 365,-19.5 418,-19.5 418,-0.5 365,-0.5"/>
<text text-anchor="middle" x="391.5" y="-7.5" font-family="FreeSans.ttf" font-size="10.00">iterator</text>
</a>
</g>
</g>
<!-- Node7&#45;&gt;Node11 -->
<g id="edge11" class="edge">
<title>Node7&#45;&gt;Node11</title>
<path fill="none" stroke="midnightblue" d="M340.3,-56.32C349.32,-48.34 362.91,-36.31 373.82,-26.65"/>
<polygon fill="midnightblue" stroke="midnightblue" points="376.35,-29.08 381.52,-19.83 371.71,-23.84 376.35,-29.08"/>
</g>
<!-- Node12 -->
<g id="node12" class="node">
<title>Node12</title>
<g id="a_node12"><a xlink:title=" ">
<polygon fill="none" stroke="#bfbfbf" points="436.5,-0.5 436.5,-19.5 480.5,-19.5 480.5,-0.5 436.5,-0.5"/>
<text text-anchor="middle" x="458.5" y="-7.5" font-family="FreeSans.ttf" font-size="10.00">limits</text>
</a>
</g>
</g>
<!-- Node7&#45;&gt;Node12 -->
<g id="edge12" class="edge">
<title>Node7&#45;&gt;Node12</title>
<path fill="none" stroke="midnightblue" d="M350.78,-56.44C371.85,-47.56 405.02,-33.56 428.99,-23.45"/>
<polygon fill="midnightblue" stroke="midnightblue" points="430.46,-26.63 438.31,-19.52 427.74,-20.18 430.46,-26.63"/>
</g>
<!-- Node13 -->
<g id="node13" class="node">
<title>Node13</title>
<g id="a_node13"><a xlink:title=" ">
<polygon fill="none" stroke="#bfbfbf" points="158,-0.5 158,-19.5 223,-19.5 223,-0.5 158,-0.5"/>
<text text-anchor="middle" x="190.5" y="-7.5" font-family="FreeSans.ttf" font-size="10.00">stdexcept</text>
</a>
</g>
</g>
<!-- Node7&#45;&gt;Node13 -->
<g id="edge13" class="edge">
<title>Node7&#45;&gt;Node13</title>
<path fill="none" stroke="midnightblue" d="M308.32,-56.44C285.07,-47.48 248.35,-33.31 222.08,-23.18"/>
<polygon fill="midnightblue" stroke="midnightblue" points="223.17,-19.85 212.58,-19.52 220.65,-26.38 223.17,-19.85"/>
</g>
<!-- Node14 -->
<g id="node14" class="node">
<title>Node14</title>
<g id="a_node14"><a xlink:title=" ">
<polygon fill="none" stroke="#bfbfbf" points="241,-0.5 241,-19.5 286,-19.5 286,-0.5 241,-0.5"/>
<text text-anchor="middle" x="263.5" y="-7.5" font-family="FreeSans.ttf" font-size="10.00">utility</text>
</a>
</g>
</g>
<!-- Node7&#45;&gt;Node14 -->
<g id="edge15" class="edge">
<title>Node7&#45;&gt;Node14</title>
<path fill="none" stroke="midnightblue" d="M319.74,-56.32C309.73,-48.26 294.61,-36.08 282.57,-26.37"/>
<polygon fill="midnightblue" stroke="midnightblue" points="284.44,-23.38 274.46,-19.83 280.05,-28.83 284.44,-23.38"/>
</g>
<!-- Node15&#45;&gt;Node10 -->
<g id="edge17" class="edge">
<title>Node15&#45;&gt;Node10</title>
<path fill="none" stroke="midnightblue" d="M602.49,-56.08C603.29,-48.93 604.43,-38.64 605.42,-29.69"/>
<polygon fill="midnightblue" stroke="midnightblue" points="608.9,-30.08 606.53,-19.75 601.94,-29.3 608.9,-30.08"/>
</g>
<!-- Node16 -->
<g id="node16" class="node">
<title>Node16</title>
<g id="a_node16"><a xlink:title=" ">
<polygon fill="none" stroke="#bfbfbf" points="652.5,-0.5 652.5,-19.5 732.5,-19.5 732.5,-0.5 652.5,-0.5"/>
<text text-anchor="middle" x="692.5" y="-7.5" font-family="FreeSans.ttf" font-size="10.00">CoreExport.h</text>
</a>
</g>
</g>
<!-- Node15&#45;&gt;Node16 -->
<g id="edge18" class="edge">
<title>Node15&#45;&gt;Node16</title>
<path fill="none" stroke="midnightblue" d="M616.12,-56.32C630.45,-47.82 652.51,-34.73 669.25,-24.8"/>
<polygon fill="midnightblue" stroke="midnightblue" points="671.1,-27.77 677.92,-19.65 667.53,-21.75 671.1,-27.77"/>
</g>
</g>
</svg>
