<?xml version="1.0" encoding="UTF-8" standalone="no"?>
<!DOCTYPE svg PUBLIC "-//W3C//DTD SVG 1.1//EN"
 "http://www.w3.org/Graphics/SVG/1.1/DTD/svg11.dtd">
<!-- Generated by graphviz version 2.43.0 (0)
 -->
<!-- Title: TimeRange.h Pages: 1 -->
<svg width="696pt" height="84pt"
 viewBox="0.00 0.00 696.00 84.00" xmlns="http://www.w3.org/2000/svg" xmlns:xlink="http://www.w3.org/1999/xlink">
<g id="graph0" class="graph" transform="scale(1 1) rotate(0) translate(4 80)">
<title>TimeRange.h</title>
<!-- Node1 -->
<g id="node1" class="node">
<title>Node1</title>
<g id="a_node1"><a xlink:title=" ">
<polygon fill="#bfbfbf" stroke="black" points="292.5,-56.5 292.5,-75.5 373.5,-75.5 373.5,-56.5 292.5,-56.5"/>
<text text-anchor="middle" x="333" y="-63.5" font-family="FreeSans.ttf" font-size="10.00">TimeRange.h</text>
</a>
</g>
</g>
<!-- Node2 -->
<g id="node2" class="node">
<title>Node2</title>
<g id="a_node2"><a xlink:href="OptimalControl_8h.html" target="_top" xlink:title=" ">
<polygon fill="none" stroke="black" points="0,-0.5 0,-19.5 100,-19.5 100,-0.5 0,-0.5"/>
<text text-anchor="middle" x="50" y="-7.5" font-family="FreeSans.ttf" font-size="10.00">OptimalControl.h</text>
</a>
</g>
</g>
<!-- Node1&#45;&gt;Node2 -->
<g id="edge1" class="edge">
<title>Node1&#45;&gt;Node2</title>
<path fill="none" stroke="midnightblue" d="M282.52,-55.37C229.15,-45.18 145.74,-29.27 94.67,-19.52"/>
<polygon fill="midnightblue" stroke="midnightblue" points="281.97,-58.83 292.45,-57.26 283.29,-51.95 281.97,-58.83"/>
</g>
<!-- Node3 -->
<g id="node3" class="node">
<title>Node3</title>
<g id="a_node3"><a xlink:href="ConstraintsGroup_8cpp.html" target="_top" xlink:title=" ">
<polygon fill="none" stroke="black" points="118,-0.5 118,-19.5 240,-19.5 240,-0.5 118,-0.5"/>
<text text-anchor="middle" x="179" y="-7.5" font-family="FreeSans.ttf" font-size="10.00">ConstraintsGroup.cpp</text>
</a>
</g>
</g>
<!-- Node1&#45;&gt;Node3 -->
<g id="edge2" class="edge">
<title>Node1&#45;&gt;Node3</title>
<path fill="none" stroke="midnightblue" d="M298.89,-53.04C269.91,-42.88 229.04,-28.55 203.29,-19.52"/>
<polygon fill="midnightblue" stroke="midnightblue" points="298,-56.44 308.6,-56.44 300.32,-49.83 298,-56.44"/>
</g>
<!-- Node4 -->
<g id="node4" class="node">
<title>Node4</title>
<g id="a_node4"><a xlink:href="MultipleShootingSolver_8cpp.html" target="_top" xlink:title=" ">
<polygon fill="none" stroke="black" points="258.5,-0.5 258.5,-19.5 407.5,-19.5 407.5,-0.5 258.5,-0.5"/>
<text text-anchor="middle" x="333" y="-7.5" font-family="FreeSans.ttf" font-size="10.00">MultipleShootingSolver.cpp</text>
</a>
</g>
</g>
<!-- Node1&#45;&gt;Node4 -->
<g id="edge3" class="edge">
<title>Node1&#45;&gt;Node4</title>
<path fill="none" stroke="midnightblue" d="M333,-45.8C333,-36.91 333,-26.78 333,-19.75"/>
<polygon fill="midnightblue" stroke="midnightblue" points="329.5,-46.08 333,-56.08 336.5,-46.08 329.5,-46.08"/>
</g>
<!-- Node5 -->
<g id="node5" class="node">
<title>Node5</title>
<g id="a_node5"><a xlink:href="OptimalControlProblem_8cpp.html" target="_top" xlink:title=" ">
<polygon fill="none" stroke="black" points="426,-0.5 426,-19.5 578,-19.5 578,-0.5 426,-0.5"/>
<text text-anchor="middle" x="502" y="-7.5" font-family="FreeSans.ttf" font-size="10.00">OptimalControlProblem.cpp</text>
</a>
</g>
</g>
<!-- Node1&#45;&gt;Node5 -->
<g id="edge4" class="edge">
<title>Node1&#45;&gt;Node5</title>
<path fill="none" stroke="midnightblue" d="M369.6,-53.3C401.45,-43.13 446.84,-28.62 475.35,-19.52"/>
<polygon fill="midnightblue" stroke="midnightblue" points="368.24,-50.07 359.78,-56.44 370.37,-56.73 368.24,-50.07"/>
</g>
<!-- Node6 -->
<g id="node6" class="node">
<title>Node6</title>
<g id="a_node6"><a xlink:href="TimeRange_8cpp.html" target="_top" xlink:title=" ">
<polygon fill="none" stroke="black" points="596,-0.5 596,-19.5 688,-19.5 688,-0.5 596,-0.5"/>
<text text-anchor="middle" x="642" y="-7.5" font-family="FreeSans.ttf" font-size="10.00">TimeRange.cpp</text>
</a>
</g>
</g>
<!-- Node1&#45;&gt;Node6 -->
<g id="edge5" class="edge">
<title>Node1&#45;&gt;Node6</title>
<path fill="none" stroke="midnightblue" d="M383.91,-56.1C442.85,-45.8 539.09,-28.98 595.9,-19.06"/>
<polygon fill="midnightblue" stroke="midnightblue" points="382.96,-52.72 373.71,-57.88 384.17,-59.61 382.96,-52.72"/>
</g>
</g>
</svg>
