<?xml version="1.0" encoding="UTF-8" standalone="no"?>
<!DOCTYPE svg PUBLIC "-//W3C//DTD SVG 1.1//EN"
 "http://www.w3.org/Graphics/SVG/1.1/DTD/svg11.dtd">
<!-- Generated by graphviz version 2.43.0 (0)
 -->
<!-- Title: TimeRange.cpp Pages: 1 -->
<svg width="295pt" height="140pt"
 viewBox="0.00 0.00 294.50 140.00" xmlns="http://www.w3.org/2000/svg" xmlns:xlink="http://www.w3.org/1999/xlink">
<g id="graph0" class="graph" transform="scale(1 1) rotate(0) translate(4 136)">
<title>TimeRange.cpp</title>
<!-- Node1 -->
<g id="node1" class="node">
<title>Node1</title>
<g id="a_node1"><a xlink:title=" ">
<polygon fill="#bfbfbf" stroke="black" points="87.5,-112.5 87.5,-131.5 179.5,-131.5 179.5,-112.5 87.5,-112.5"/>
<text text-anchor="middle" x="133.5" y="-119.5" font-family="FreeSans.ttf" font-size="10.00">TimeRange.cpp</text>
</a>
</g>
</g>
<!-- Node2 -->
<g id="node2" class="node">
<title>Node2</title>
<g id="a_node2"><a xlink:href="TimeRange_8h.html" target="_top" xlink:title=" ">
<polygon fill="none" stroke="black" points="0,-56.5 0,-75.5 127,-75.5 127,-56.5 0,-56.5"/>
<text text-anchor="middle" x="63.5" y="-63.5" font-family="FreeSans.ttf" font-size="10.00">iDynTree/TimeRange.h</text>
</a>
</g>
</g>
<!-- Node1&#45;&gt;Node2 -->
<g id="edge1" class="edge">
<title>Node1&#45;&gt;Node2</title>
<path fill="none" stroke="midnightblue" d="M122.25,-112.32C111.7,-104.18 95.7,-91.84 83.06,-82.09"/>
<polygon fill="midnightblue" stroke="midnightblue" points="85.01,-79.17 74.95,-75.83 80.73,-84.71 85.01,-79.17"/>
</g>
<!-- Node3 -->
<g id="node3" class="node">
<title>Node3</title>
<g id="a_node3"><a xlink:href="Utils_8h.html" target="_top" xlink:title=" ">
<polygon fill="none" stroke="black" points="145,-56.5 145,-75.5 264,-75.5 264,-56.5 145,-56.5"/>
<text text-anchor="middle" x="204.5" y="-63.5" font-family="FreeSans.ttf" font-size="10.00">iDynTree/Core/Utils.h</text>
</a>
</g>
</g>
<!-- Node1&#45;&gt;Node3 -->
<g id="edge2" class="edge">
<title>Node1&#45;&gt;Node3</title>
<path fill="none" stroke="midnightblue" d="M144.91,-112.32C155.61,-104.18 171.84,-91.84 184.66,-82.09"/>
<polygon fill="midnightblue" stroke="midnightblue" points="187.04,-84.67 192.89,-75.83 182.81,-79.1 187.04,-84.67"/>
</g>
<!-- Node4 -->
<g id="node4" class="node">
<title>Node4</title>
<g id="a_node4"><a xlink:title=" ">
<polygon fill="none" stroke="#bfbfbf" points="135,-0.5 135,-19.5 188,-19.5 188,-0.5 135,-0.5"/>
<text text-anchor="middle" x="161.5" y="-7.5" font-family="FreeSans.ttf" font-size="10.00">cstddef</text>
</a>
</g>
</g>
<!-- Node3&#45;&gt;Node4 -->
<g id="edge3" class="edge">
<title>Node3&#45;&gt;Node4</title>
<path fill="none" stroke="midnightblue" d="M197.4,-56.08C191.26,-48.38 182.23,-37.03 174.76,-27.65"/>
<polygon fill="midnightblue" stroke="midnightblue" points="177.44,-25.39 168.47,-19.75 171.96,-29.75 177.44,-25.39"/>
</g>
<!-- Node5 -->
<g id="node5" class="node">
<title>Node5</title>
<g id="a_node5"><a xlink:title=" ">
<polygon fill="none" stroke="#bfbfbf" points="206.5,-0.5 206.5,-19.5 286.5,-19.5 286.5,-0.5 206.5,-0.5"/>
<text text-anchor="middle" x="246.5" y="-7.5" font-family="FreeSans.ttf" font-size="10.00">CoreExport.h</text>
</a>
</g>
</g>
<!-- Node3&#45;&gt;Node5 -->
<g id="edge4" class="edge">
<title>Node3&#45;&gt;Node5</title>
<path fill="none" stroke="midnightblue" d="M211.44,-56.08C217.43,-48.38 226.25,-37.03 233.55,-27.65"/>
<polygon fill="midnightblue" stroke="midnightblue" points="236.32,-29.79 239.69,-19.75 230.79,-25.5 236.32,-29.79"/>
</g>
</g>
</svg>
