<?xml version="1.0" encoding="UTF-8" standalone="no"?>
<!DOCTYPE svg PUBLIC "-//W3C//DTD SVG 1.1//EN"
 "http://www.w3.org/Graphics/SVG/1.1/DTD/svg11.dtd">
<!-- Generated by graphviz version 2.43.0 (0)
 -->
<!-- Title: TransformConstraint.h Pages: 1 -->
<svg width="1170pt" height="588pt"
 viewBox="0.00 0.00 1170.00 588.00" xmlns="http://www.w3.org/2000/svg" xmlns:xlink="http://www.w3.org/1999/xlink">
<g id="graph0" class="graph" transform="scale(1 1) rotate(0) translate(4 584)">
<title>TransformConstraint.h</title>
<!-- Node1 -->
<g id="node1" class="node">
<title>Node1</title>
<g id="a_node1"><a xlink:title=" ">
<polygon fill="#bfbfbf" stroke="black" points="540,-560.5 540,-579.5 665,-579.5 665,-560.5 540,-560.5"/>
<text text-anchor="middle" x="602.5" y="-567.5" font-family="FreeSans.ttf" font-size="10.00">TransformConstraint.h</text>
</a>
</g>
</g>
<!-- Node2 -->
<g id="node2" class="node">
<title>Node2</title>
<g id="a_node2"><a xlink:href="Transform_8h.html" target="_top" xlink:title=" ">
<polygon fill="none" stroke="black" points="545.5,-392.5 545.5,-411.5 691.5,-411.5 691.5,-392.5 545.5,-392.5"/>
<text text-anchor="middle" x="618.5" y="-399.5" font-family="FreeSans.ttf" font-size="10.00">iDynTree/Core/Transform.h</text>
</a>
</g>
</g>
<!-- Node1&#45;&gt;Node2 -->
<g id="edge1" class="edge">
<title>Node1&#45;&gt;Node2</title>
<path fill="none" stroke="midnightblue" d="M603.36,-560.08C605.88,-533.95 613.27,-457.21 616.71,-421.58"/>
<polygon fill="midnightblue" stroke="midnightblue" points="620.2,-421.86 617.67,-411.57 613.23,-421.19 620.2,-421.86"/>
</g>
<!-- Node27 -->
<g id="node27" class="node">
<title>Node27</title>
<g id="a_node27"><a xlink:href="InverseKinematics_8h.html" target="_top" xlink:title=" ">
<polygon fill="none" stroke="black" points="814.5,-504.5 814.5,-523.5 976.5,-523.5 976.5,-504.5 814.5,-504.5"/>
<text text-anchor="middle" x="895.5" y="-511.5" font-family="FreeSans.ttf" font-size="10.00">iDynTree/InverseKinematics.h</text>
</a>
</g>
</g>
<!-- Node1&#45;&gt;Node27 -->
<g id="edge47" class="edge">
<title>Node1&#45;&gt;Node27</title>
<path fill="none" stroke="midnightblue" d="M648.93,-560.44C700.58,-550.92 784.01,-535.55 839.31,-525.36"/>
<polygon fill="midnightblue" stroke="midnightblue" points="840.09,-528.77 849.29,-523.52 838.82,-521.89 840.09,-528.77"/>
</g>
<!-- Node3 -->
<g id="node3" class="node">
<title>Node3</title>
<g id="a_node3"><a xlink:href="Position_8h.html" target="_top" xlink:title=" ">
<polygon fill="none" stroke="black" points="679.5,-336.5 679.5,-355.5 815.5,-355.5 815.5,-336.5 679.5,-336.5"/>
<text text-anchor="middle" x="747.5" y="-343.5" font-family="FreeSans.ttf" font-size="10.00">iDynTree/Core/Position.h</text>
</a>
</g>
</g>
<!-- Node2&#45;&gt;Node3 -->
<g id="edge2" class="edge">
<title>Node2&#45;&gt;Node3</title>
<path fill="none" stroke="midnightblue" d="M638.94,-392.44C660.17,-383.56 693.6,-369.56 717.75,-359.45"/>
<polygon fill="midnightblue" stroke="midnightblue" points="719.28,-362.61 727.16,-355.52 716.58,-356.15 719.28,-362.61"/>
</g>
<!-- Node18 -->
<g id="node18" class="node">
<title>Node18</title>
<g id="a_node18"><a xlink:title=" ">
<polygon fill="none" stroke="#bfbfbf" points="718.5,-112.5 718.5,-131.5 762.5,-131.5 762.5,-112.5 718.5,-112.5"/>
<text text-anchor="middle" x="740.5" y="-119.5" font-family="FreeSans.ttf" font-size="10.00">string</text>
</a>
</g>
</g>
<!-- Node2&#45;&gt;Node18 -->
<g id="edge46" class="edge">
<title>Node2&#45;&gt;Node18</title>
<path fill="none" stroke="midnightblue" d="M618.25,-392.26C617.89,-364.63 620.2,-277.86 660.5,-224 679.82,-198.18 703.89,-213.6 723.5,-188 733.69,-174.7 737.79,-155.87 739.44,-141.9"/>
<polygon fill="midnightblue" stroke="midnightblue" points="742.92,-142.19 740.3,-131.93 735.95,-141.59 742.92,-142.19"/>
</g>
<!-- Node21 -->
<g id="node21" class="node">
<title>Node21</title>
<g id="a_node21"><a xlink:href="Rotation_8h.html" target="_top" xlink:title=" ">
<polygon fill="none" stroke="black" points="450.5,-280.5 450.5,-299.5 588.5,-299.5 588.5,-280.5 450.5,-280.5"/>
<text text-anchor="middle" x="519.5" y="-287.5" font-family="FreeSans.ttf" font-size="10.00">iDynTree/Core/Rotation.h</text>
</a>
</g>
</g>
<!-- Node2&#45;&gt;Node21 -->
<g id="edge44" class="edge">
<title>Node2&#45;&gt;Node21</title>
<path fill="none" stroke="midnightblue" d="M610.73,-392.37C594.18,-373.97 555.2,-330.67 533.95,-307.05"/>
<polygon fill="midnightblue" stroke="midnightblue" points="536.52,-304.68 527.23,-299.59 531.32,-309.37 536.52,-304.68"/>
</g>
<!-- Node24 -->
<g id="node24" class="node">
<title>Node24</title>
<g id="a_node24"><a xlink:href="MatrixFixSize_8h.html" target="_top" xlink:title=" ">
<polygon fill="none" stroke="black" points="268,-168.5 268,-187.5 431,-187.5 431,-168.5 268,-168.5"/>
<text text-anchor="middle" x="349.5" y="-175.5" font-family="FreeSans.ttf" font-size="10.00">iDynTree/Core/MatrixFixSize.h</text>
</a>
</g>
</g>
<!-- Node2&#45;&gt;Node24 -->
<g id="edge45" class="edge">
<title>Node2&#45;&gt;Node24</title>
<path fill="none" stroke="midnightblue" d="M597.7,-392.45C562.77,-377.4 491.26,-343.61 441.5,-300 405.76,-268.68 374.77,-221.54 359.54,-196.34"/>
<polygon fill="midnightblue" stroke="midnightblue" points="362.44,-194.38 354.33,-187.56 356.42,-197.94 362.44,-194.38"/>
</g>
<!-- Node4 -->
<g id="node4" class="node">
<title>Node4</title>
<g id="a_node4"><a xlink:href="PositionRaw_8h.html" target="_top" xlink:title=" ">
<polygon fill="none" stroke="black" points="669.5,-224.5 669.5,-243.5 825.5,-243.5 825.5,-224.5 669.5,-224.5"/>
<text text-anchor="middle" x="747.5" y="-231.5" font-family="FreeSans.ttf" font-size="10.00">iDynTree/Core/PositionRaw.h</text>
</a>
</g>
</g>
<!-- Node3&#45;&gt;Node4 -->
<g id="edge3" class="edge">
<title>Node3&#45;&gt;Node4</title>
<path fill="none" stroke="midnightblue" d="M747.5,-336.37C747.5,-318.62 747.5,-277.67 747.5,-253.6"/>
<polygon fill="midnightblue" stroke="midnightblue" points="751,-253.59 747.5,-243.59 744,-253.59 751,-253.59"/>
</g>
<!-- Node3&#45;&gt;Node18 -->
<g id="edge43" class="edge">
<title>Node3&#45;&gt;Node18</title>
<path fill="none" stroke="midnightblue" d="M762.01,-336.31C791.02,-317.73 851.94,-271.9 834.5,-224 820.84,-186.48 785.11,-154.99 761.85,-137.6"/>
<polygon fill="midnightblue" stroke="midnightblue" points="763.77,-134.67 753.61,-131.64 759.66,-140.34 763.77,-134.67"/>
</g>
<!-- Node3&#45;&gt;Node21 -->
<g id="edge24" class="edge">
<title>Node3&#45;&gt;Node21</title>
<path fill="none" stroke="midnightblue" d="M711.37,-336.44C671.85,-327.08 608.4,-312.06 565.39,-301.87"/>
<polygon fill="midnightblue" stroke="midnightblue" points="566,-298.42 555.46,-299.52 564.38,-305.23 566,-298.42"/>
</g>
<!-- Node5 -->
<g id="node5" class="node">
<title>Node5</title>
<g id="a_node5"><a xlink:href="VectorFixSize_8h.html" target="_top" xlink:title=" ">
<polygon fill="none" stroke="black" points="87.5,-168.5 87.5,-187.5 249.5,-187.5 249.5,-168.5 87.5,-168.5"/>
<text text-anchor="middle" x="168.5" y="-175.5" font-family="FreeSans.ttf" font-size="10.00">iDynTree/Core/VectorFixSize.h</text>
</a>
</g>
</g>
<!-- Node4&#45;&gt;Node5 -->
<g id="edge4" class="edge">
<title>Node4&#45;&gt;Node5</title>
<path fill="none" stroke="midnightblue" d="M669.31,-225.95C574.99,-217.41 411.34,-202.48 259.82,-188.02"/>
<polygon fill="midnightblue" stroke="midnightblue" points="260.15,-184.54 249.86,-187.07 259.48,-191.51 260.15,-184.54"/>
</g>
<!-- Node4&#45;&gt;Node18 -->
<g id="edge23" class="edge">
<title>Node4&#45;&gt;Node18</title>
<path fill="none" stroke="midnightblue" d="M755.14,-224.3C765.03,-211.95 780.23,-188.56 773.5,-168 770.01,-157.34 762.93,-147.12 756.21,-139.12"/>
<polygon fill="midnightblue" stroke="midnightblue" points="758.8,-136.76 749.52,-131.66 753.6,-141.44 758.8,-136.76"/>
</g>
<!-- Node6 -->
<g id="node6" class="node">
<title>Node6</title>
<g id="a_node6"><a xlink:href="Utils_8h.html" target="_top" xlink:title=" ">
<polygon fill="none" stroke="black" points="38,-56.5 38,-75.5 157,-75.5 157,-56.5 38,-56.5"/>
<text text-anchor="middle" x="97.5" y="-63.5" font-family="FreeSans.ttf" font-size="10.00">iDynTree/Core/Utils.h</text>
</a>
</g>
</g>
<!-- Node5&#45;&gt;Node6 -->
<g id="edge5" class="edge">
<title>Node5&#45;&gt;Node6</title>
<path fill="none" stroke="midnightblue" d="M156.61,-168.19C146.11,-159.88 131.04,-146.55 121.5,-132 112.12,-117.7 105.76,-99.23 101.95,-85.64"/>
<polygon fill="midnightblue" stroke="midnightblue" points="105.24,-84.37 99.35,-75.56 98.46,-86.12 105.24,-84.37"/>
</g>
<!-- Node7 -->
<g id="node7" class="node">
<title>Node7</title>
<g id="a_node7"><a xlink:title=" ">
<polygon fill="none" stroke="#bfbfbf" points="28,-0.5 28,-19.5 81,-19.5 81,-0.5 28,-0.5"/>
<text text-anchor="middle" x="54.5" y="-7.5" font-family="FreeSans.ttf" font-size="10.00">cstddef</text>
</a>
</g>
</g>
<!-- Node5&#45;&gt;Node7 -->
<g id="edge21" class="edge">
<title>Node5&#45;&gt;Node7</title>
<path fill="none" stroke="midnightblue" d="M145.58,-168.39C112.63,-154.62 53.14,-124.16 28.5,-76 20.33,-60.02 30.23,-40.85 40.08,-27.49"/>
<polygon fill="midnightblue" stroke="midnightblue" points="42.84,-29.63 46.35,-19.64 37.38,-25.26 42.84,-29.63"/>
</g>
<!-- Node9 -->
<g id="node9" class="node">
<title>Node9</title>
<g id="a_node9"><a xlink:href="Span_8h.html" target="_top" xlink:title=" ">
<polygon fill="none" stroke="black" points="536,-56.5 536,-75.5 657,-75.5 657,-56.5 536,-56.5"/>
<text text-anchor="middle" x="596.5" y="-63.5" font-family="FreeSans.ttf" font-size="10.00">iDynTree/Core/Span.h</text>
</a>
</g>
</g>
<!-- Node5&#45;&gt;Node9 -->
<g id="edge8" class="edge">
<title>Node5&#45;&gt;Node9</title>
<path fill="none" stroke="midnightblue" d="M168.95,-168.17C170.19,-153.85 174.88,-125.79 192.5,-112 242.81,-72.63 423.99,-66.44 525.8,-66.19"/>
<polygon fill="midnightblue" stroke="midnightblue" points="526,-69.69 536,-66.18 525.99,-62.69 526,-69.69"/>
</g>
<!-- Node10 -->
<g id="node10" class="node">
<title>Node10</title>
<g id="a_node10"><a xlink:title=" ">
<polygon fill="none" stroke="#bfbfbf" points="322.5,-0.5 322.5,-19.5 374.5,-19.5 374.5,-0.5 322.5,-0.5"/>
<text text-anchor="middle" x="348.5" y="-7.5" font-family="FreeSans.ttf" font-size="10.00">cassert</text>
</a>
</g>
</g>
<!-- Node5&#45;&gt;Node10 -->
<g id="edge20" class="edge">
<title>Node5&#45;&gt;Node10</title>
<path fill="none" stroke="midnightblue" d="M166.76,-168.22C164.63,-154.93 162.52,-129.43 173.5,-112 205.11,-61.82 271.29,-33.87 312.59,-20.67"/>
<polygon fill="midnightblue" stroke="midnightblue" points="313.74,-23.98 322.27,-17.7 311.68,-17.29 313.74,-23.98"/>
</g>
<!-- Node5&#45;&gt;Node18 -->
<g id="edge18" class="edge">
<title>Node5&#45;&gt;Node18</title>
<path fill="none" stroke="midnightblue" d="M249.86,-168.91C253.12,-168.6 256.34,-168.29 259.5,-168 442.07,-150.98 488.19,-151.7 670.5,-132 682.94,-130.66 696.59,-128.95 708.51,-127.39"/>
<polygon fill="midnightblue" stroke="midnightblue" points="709.01,-130.85 718.46,-126.07 708.08,-123.92 709.01,-130.85"/>
</g>
<!-- Node19 -->
<g id="node19" class="node">
<title>Node19</title>
<g id="a_node19"><a xlink:title=" ">
<polygon fill="none" stroke="#bfbfbf" points="201.5,-112.5 201.5,-131.5 257.5,-131.5 257.5,-112.5 201.5,-112.5"/>
<text text-anchor="middle" x="229.5" y="-119.5" font-family="FreeSans.ttf" font-size="10.00">sstream</text>
</a>
</g>
</g>
<!-- Node5&#45;&gt;Node19 -->
<g id="edge19" class="edge">
<title>Node5&#45;&gt;Node19</title>
<path fill="none" stroke="midnightblue" d="M178.3,-168.32C187.32,-160.34 200.91,-148.31 211.82,-138.65"/>
<polygon fill="midnightblue" stroke="midnightblue" points="214.35,-141.08 219.52,-131.83 209.71,-135.84 214.35,-141.08"/>
</g>
<!-- Node20 -->
<g id="node20" class="node">
<title>Node20</title>
<g id="a_node20"><a xlink:title=" ">
<polygon fill="none" stroke="#bfbfbf" points="275.5,-112.5 275.5,-131.5 325.5,-131.5 325.5,-112.5 275.5,-112.5"/>
<text text-anchor="middle" x="300.5" y="-119.5" font-family="FreeSans.ttf" font-size="10.00">cstring</text>
</a>
</g>
</g>
<!-- Node5&#45;&gt;Node20 -->
<g id="edge22" class="edge">
<title>Node5&#45;&gt;Node20</title>
<path fill="none" stroke="midnightblue" d="M189.42,-168.44C211.24,-159.52 245.65,-145.44 270.39,-135.32"/>
<polygon fill="midnightblue" stroke="midnightblue" points="271.75,-138.54 279.68,-131.52 269.1,-132.06 271.75,-138.54"/>
</g>
<!-- Node6&#45;&gt;Node7 -->
<g id="edge6" class="edge">
<title>Node6&#45;&gt;Node7</title>
<path fill="none" stroke="midnightblue" d="M90.4,-56.08C84.26,-48.38 75.23,-37.03 67.76,-27.65"/>
<polygon fill="midnightblue" stroke="midnightblue" points="70.44,-25.39 61.47,-19.75 64.96,-29.75 70.44,-25.39"/>
</g>
<!-- Node8 -->
<g id="node8" class="node">
<title>Node8</title>
<g id="a_node8"><a xlink:title=" ">
<polygon fill="none" stroke="#bfbfbf" points="99.5,-0.5 99.5,-19.5 179.5,-19.5 179.5,-0.5 99.5,-0.5"/>
<text text-anchor="middle" x="139.5" y="-7.5" font-family="FreeSans.ttf" font-size="10.00">CoreExport.h</text>
</a>
</g>
</g>
<!-- Node6&#45;&gt;Node8 -->
<g id="edge7" class="edge">
<title>Node6&#45;&gt;Node8</title>
<path fill="none" stroke="midnightblue" d="M104.44,-56.08C110.43,-48.38 119.25,-37.03 126.55,-27.65"/>
<polygon fill="midnightblue" stroke="midnightblue" points="129.32,-29.79 132.69,-19.75 123.79,-25.5 129.32,-29.79"/>
</g>
<!-- Node9&#45;&gt;Node7 -->
<g id="edge12" class="edge">
<title>Node9&#45;&gt;Node7</title>
<path fill="none" stroke="midnightblue" d="M535.75,-62.67C442.22,-58.4 257.28,-47.28 91.05,-19.81"/>
<polygon fill="midnightblue" stroke="midnightblue" points="91.58,-16.35 81.14,-18.15 90.42,-23.26 91.58,-16.35"/>
</g>
<!-- Node9&#45;&gt;Node10 -->
<g id="edge9" class="edge">
<title>Node9&#45;&gt;Node10</title>
<path fill="none" stroke="midnightblue" d="M554.17,-56.48C513.4,-48.17 449.75,-34.93 384.83,-20.01"/>
<polygon fill="midnightblue" stroke="midnightblue" points="385.35,-16.54 374.82,-17.7 383.78,-23.36 385.35,-16.54"/>
</g>
<!-- Node11 -->
<g id="node11" class="node">
<title>Node11</title>
<g id="a_node11"><a xlink:title=" ">
<polygon fill="none" stroke="#bfbfbf" points="673.5,-0.5 673.5,-19.5 737.5,-19.5 737.5,-0.5 673.5,-0.5"/>
<text text-anchor="middle" x="705.5" y="-7.5" font-family="FreeSans.ttf" font-size="10.00">algorithm</text>
</a>
</g>
</g>
<!-- Node9&#45;&gt;Node11 -->
<g id="edge10" class="edge">
<title>Node9&#45;&gt;Node11</title>
<path fill="none" stroke="midnightblue" d="M614.01,-56.32C631.57,-47.62 658.83,-34.12 679.03,-24.11"/>
<polygon fill="midnightblue" stroke="midnightblue" points="680.62,-27.23 688.03,-19.65 677.52,-20.96 680.62,-27.23"/>
</g>
<!-- Node12 -->
<g id="node12" class="node">
<title>Node12</title>
<g id="a_node12"><a xlink:title=" ">
<polygon fill="none" stroke="#bfbfbf" points="755.5,-0.5 755.5,-19.5 797.5,-19.5 797.5,-0.5 755.5,-0.5"/>
<text text-anchor="middle" x="776.5" y="-7.5" font-family="FreeSans.ttf" font-size="10.00">array</text>
</a>
</g>
</g>
<!-- Node9&#45;&gt;Node12 -->
<g id="edge11" class="edge">
<title>Node9&#45;&gt;Node12</title>
<path fill="none" stroke="midnightblue" d="M625.02,-56.44C657.9,-46.58 711.75,-30.42 745.61,-20.27"/>
<polygon fill="midnightblue" stroke="midnightblue" points="746.85,-23.55 755.42,-17.32 744.84,-16.84 746.85,-23.55"/>
</g>
<!-- Node13 -->
<g id="node13" class="node">
<title>Node13</title>
<g id="a_node13"><a xlink:title=" ">
<polygon fill="none" stroke="#bfbfbf" points="393,-0.5 393,-19.5 446,-19.5 446,-0.5 393,-0.5"/>
<text text-anchor="middle" x="419.5" y="-7.5" font-family="FreeSans.ttf" font-size="10.00">iterator</text>
</a>
</g>
</g>
<!-- Node9&#45;&gt;Node13 -->
<g id="edge13" class="edge">
<title>Node9&#45;&gt;Node13</title>
<path fill="none" stroke="midnightblue" d="M568.45,-56.44C538.06,-47.17 489.46,-32.34 456.09,-22.16"/>
<polygon fill="midnightblue" stroke="midnightblue" points="456.84,-18.73 446.26,-19.16 454.8,-25.43 456.84,-18.73"/>
</g>
<!-- Node14 -->
<g id="node14" class="node">
<title>Node14</title>
<g id="a_node14"><a xlink:title=" ">
<polygon fill="none" stroke="#bfbfbf" points="464.5,-0.5 464.5,-19.5 508.5,-19.5 508.5,-0.5 464.5,-0.5"/>
<text text-anchor="middle" x="486.5" y="-7.5" font-family="FreeSans.ttf" font-size="10.00">limits</text>
</a>
</g>
</g>
<!-- Node9&#45;&gt;Node14 -->
<g id="edge14" class="edge">
<title>Node9&#45;&gt;Node14</title>
<path fill="none" stroke="midnightblue" d="M578.83,-56.32C561.11,-47.62 533.6,-34.12 513.21,-24.11"/>
<polygon fill="midnightblue" stroke="midnightblue" points="514.65,-20.92 504.13,-19.65 511.56,-27.2 514.65,-20.92"/>
</g>
<!-- Node15 -->
<g id="node15" class="node">
<title>Node15</title>
<g id="a_node15"><a xlink:title=" ">
<polygon fill="none" stroke="#bfbfbf" points="527,-0.5 527,-19.5 592,-19.5 592,-0.5 527,-0.5"/>
<text text-anchor="middle" x="559.5" y="-7.5" font-family="FreeSans.ttf" font-size="10.00">stdexcept</text>
</a>
</g>
</g>
<!-- Node9&#45;&gt;Node15 -->
<g id="edge15" class="edge">
<title>Node9&#45;&gt;Node15</title>
<path fill="none" stroke="midnightblue" d="M590.39,-56.08C585.22,-48.53 577.65,-37.49 571.31,-28.23"/>
<polygon fill="midnightblue" stroke="midnightblue" points="574.04,-26.02 565.5,-19.75 568.26,-29.98 574.04,-26.02"/>
</g>
<!-- Node16 -->
<g id="node16" class="node">
<title>Node16</title>
<g id="a_node16"><a xlink:title=" ">
<polygon fill="none" stroke="#bfbfbf" points="816,-0.5 816,-19.5 885,-19.5 885,-0.5 816,-0.5"/>
<text text-anchor="middle" x="850.5" y="-7.5" font-family="FreeSans.ttf" font-size="10.00">type_traits</text>
</a>
</g>
</g>
<!-- Node9&#45;&gt;Node16 -->
<g id="edge16" class="edge">
<title>Node9&#45;&gt;Node16</title>
<path fill="none" stroke="midnightblue" d="M636.75,-56.44C682.75,-46.66 757.85,-30.7 805.68,-20.53"/>
<polygon fill="midnightblue" stroke="midnightblue" points="806.69,-23.89 815.75,-18.39 805.24,-17.04 806.69,-23.89"/>
</g>
<!-- Node17 -->
<g id="node17" class="node">
<title>Node17</title>
<g id="a_node17"><a xlink:title=" ">
<polygon fill="none" stroke="#bfbfbf" points="610,-0.5 610,-19.5 655,-19.5 655,-0.5 610,-0.5"/>
<text text-anchor="middle" x="632.5" y="-7.5" font-family="FreeSans.ttf" font-size="10.00">utility</text>
</a>
</g>
</g>
<!-- Node9&#45;&gt;Node17 -->
<g id="edge17" class="edge">
<title>Node9&#45;&gt;Node17</title>
<path fill="none" stroke="midnightblue" d="M602.44,-56.08C607.48,-48.53 614.84,-37.49 621.01,-28.23"/>
<polygon fill="midnightblue" stroke="midnightblue" points="624.03,-30.01 626.67,-19.75 618.21,-26.13 624.03,-30.01"/>
</g>
<!-- Node21&#45;&gt;Node5 -->
<g id="edge42" class="edge">
<title>Node21&#45;&gt;Node5</title>
<path fill="none" stroke="midnightblue" d="M450.22,-283.48C359.36,-275.65 209.12,-260.42 189.5,-244 176.02,-232.72 171.11,-212.71 169.37,-197.86"/>
<polygon fill="midnightblue" stroke="midnightblue" points="172.84,-197.44 168.56,-187.75 165.86,-197.99 172.84,-197.44"/>
</g>
<!-- Node21&#45;&gt;Node18 -->
<g id="edge25" class="edge">
<title>Node21&#45;&gt;Node18</title>
<path fill="none" stroke="midnightblue" d="M532.9,-280.37C553.08,-267.51 592.64,-242.8 627.5,-224 660.04,-206.45 675.31,-213.06 702.5,-188 716.73,-174.88 727.21,-155.2 733.52,-140.93"/>
<polygon fill="midnightblue" stroke="midnightblue" points="736.76,-142.24 737.37,-131.66 730.3,-139.56 736.76,-142.24"/>
</g>
<!-- Node22 -->
<g id="node22" class="node">
<title>Node22</title>
<g id="a_node22"><a xlink:href="GeomVector3_8h.html" target="_top" xlink:title=" ">
<polygon fill="none" stroke="black" points="198,-224.5 198,-243.5 361,-243.5 361,-224.5 198,-224.5"/>
<text text-anchor="middle" x="279.5" y="-231.5" font-family="FreeSans.ttf" font-size="10.00">iDynTree/Core/GeomVector3.h</text>
</a>
</g>
</g>
<!-- Node21&#45;&gt;Node22 -->
<g id="edge26" class="edge">
<title>Node21&#45;&gt;Node22</title>
<path fill="none" stroke="midnightblue" d="M481.47,-280.44C439.69,-271.04 372.52,-255.93 327.23,-245.74"/>
<polygon fill="midnightblue" stroke="midnightblue" points="327.88,-242.3 317.35,-243.52 326.34,-249.13 327.88,-242.3"/>
</g>
<!-- Node23 -->
<g id="node23" class="node">
<title>Node23</title>
<g id="a_node23"><a xlink:href="RotationRaw_8h.html" target="_top" xlink:title=" ">
<polygon fill="none" stroke="black" points="417.5,-224.5 417.5,-243.5 575.5,-243.5 575.5,-224.5 417.5,-224.5"/>
<text text-anchor="middle" x="496.5" y="-231.5" font-family="FreeSans.ttf" font-size="10.00">iDynTree/Core/RotationRaw.h</text>
</a>
</g>
</g>
<!-- Node21&#45;&gt;Node23 -->
<g id="edge28" class="edge">
<title>Node21&#45;&gt;Node23</title>
<path fill="none" stroke="midnightblue" d="M515.7,-280.08C512.59,-272.77 508.08,-262.18 504.21,-253.1"/>
<polygon fill="midnightblue" stroke="midnightblue" points="507.37,-251.58 500.23,-243.75 500.93,-254.32 507.37,-251.58"/>
</g>
<!-- Node22&#45;&gt;Node5 -->
<g id="edge27" class="edge">
<title>Node22&#45;&gt;Node5</title>
<path fill="none" stroke="midnightblue" d="M261.67,-224.32C243.78,-215.62 216.02,-202.12 195.45,-192.11"/>
<polygon fill="midnightblue" stroke="midnightblue" points="196.81,-188.88 186.29,-187.65 193.75,-195.18 196.81,-188.88"/>
</g>
<!-- Node23&#45;&gt;Node18 -->
<g id="edge41" class="edge">
<title>Node23&#45;&gt;Node18</title>
<path fill="none" stroke="midnightblue" d="M496.52,-224.38C497.04,-210.37 500.21,-182.73 516.5,-168 530.62,-155.23 649.62,-136.29 708.19,-127.63"/>
<polygon fill="midnightblue" stroke="midnightblue" points="709,-131.05 718.39,-126.14 707.98,-124.12 709,-131.05"/>
</g>
<!-- Node23&#45;&gt;Node24 -->
<g id="edge29" class="edge">
<title>Node23&#45;&gt;Node24</title>
<path fill="none" stroke="midnightblue" d="M473.21,-224.44C448.69,-215.44 409.9,-201.19 382.3,-191.05"/>
<polygon fill="midnightblue" stroke="midnightblue" points="383.28,-187.68 372.68,-187.52 380.86,-194.25 383.28,-187.68"/>
</g>
<!-- Node24&#45;&gt;Node6 -->
<g id="edge30" class="edge">
<title>Node24&#45;&gt;Node6</title>
<path fill="none" stroke="midnightblue" d="M368.59,-168.46C393.21,-156.3 430.83,-133.13 412.5,-112 381.4,-76.14 250.13,-68.15 167.18,-66.77"/>
<polygon fill="midnightblue" stroke="midnightblue" points="167.11,-63.27 157.06,-66.63 167.01,-70.26 167.11,-63.27"/>
</g>
<!-- Node24&#45;&gt;Node10 -->
<g id="edge36" class="edge">
<title>Node24&#45;&gt;Node10</title>
<path fill="none" stroke="midnightblue" d="M379.38,-168.39C397.04,-161.59 417.95,-150.15 428.5,-132 432.97,-124.31 431.42,-120.39 428.5,-112 416.28,-76.88 386.19,-44.78 366.6,-26.59"/>
<polygon fill="midnightblue" stroke="midnightblue" points="368.7,-23.77 358.92,-19.67 364.01,-28.97 368.7,-23.77"/>
</g>
<!-- Node24&#45;&gt;Node18 -->
<g id="edge38" class="edge">
<title>Node24&#45;&gt;Node18</title>
<path fill="none" stroke="midnightblue" d="M411.46,-168.44C495.7,-156.81 643.31,-136.42 708.27,-127.45"/>
<polygon fill="midnightblue" stroke="midnightblue" points="708.9,-130.9 718.33,-126.06 707.94,-123.96 708.9,-130.9"/>
</g>
<!-- Node24&#45;&gt;Node19 -->
<g id="edge40" class="edge">
<title>Node24&#45;&gt;Node19</title>
<path fill="none" stroke="midnightblue" d="M330.49,-168.44C310.91,-159.64 280.19,-145.81 257.77,-135.72"/>
<polygon fill="midnightblue" stroke="midnightblue" points="258.98,-132.43 248.43,-131.52 256.11,-138.81 258.98,-132.43"/>
</g>
<!-- Node24&#45;&gt;Node20 -->
<g id="edge37" class="edge">
<title>Node24&#45;&gt;Node20</title>
<path fill="none" stroke="midnightblue" d="M341.41,-168.08C334.34,-160.3 323.91,-148.8 315.35,-139.37"/>
<polygon fill="midnightblue" stroke="midnightblue" points="317.75,-136.8 308.44,-131.75 312.57,-141.51 317.75,-136.8"/>
</g>
<!-- Node25 -->
<g id="node25" class="node">
<title>Node25</title>
<g id="a_node25"><a xlink:href="MatrixView_8h.html" target="_top" xlink:title=" ">
<polygon fill="none" stroke="black" points="509.5,-112.5 509.5,-131.5 661.5,-131.5 661.5,-112.5 509.5,-112.5"/>
<text text-anchor="middle" x="585.5" y="-119.5" font-family="FreeSans.ttf" font-size="10.00">iDynTree/Core/MatrixView.h</text>
</a>
</g>
</g>
<!-- Node24&#45;&gt;Node25 -->
<g id="edge31" class="edge">
<title>Node24&#45;&gt;Node25</title>
<path fill="none" stroke="midnightblue" d="M386.89,-168.44C427.89,-159.06 493.75,-143.99 538.28,-133.8"/>
<polygon fill="midnightblue" stroke="midnightblue" points="539.31,-137.16 548.28,-131.52 537.75,-130.34 539.31,-137.16"/>
</g>
<!-- Node26 -->
<g id="node26" class="node">
<title>Node26</title>
<g id="a_node26"><a xlink:title=" ">
<polygon fill="none" stroke="#bfbfbf" points="343.5,-112.5 343.5,-131.5 403.5,-131.5 403.5,-112.5 343.5,-112.5"/>
<text text-anchor="middle" x="373.5" y="-119.5" font-family="FreeSans.ttf" font-size="10.00">iostream</text>
</a>
</g>
</g>
<!-- Node24&#45;&gt;Node26 -->
<g id="edge39" class="edge">
<title>Node24&#45;&gt;Node26</title>
<path fill="none" stroke="midnightblue" d="M353.46,-168.08C356.71,-160.77 361.42,-150.18 365.45,-141.1"/>
<polygon fill="midnightblue" stroke="midnightblue" points="368.75,-142.31 369.61,-131.75 362.35,-139.47 368.75,-142.31"/>
</g>
<!-- Node25&#45;&gt;Node6 -->
<g id="edge35" class="edge">
<title>Node25&#45;&gt;Node6</title>
<path fill="none" stroke="midnightblue" d="M509.25,-112.56C415.55,-102.19 257.89,-84.75 167.27,-74.72"/>
<polygon fill="midnightblue" stroke="midnightblue" points="167.42,-71.22 157.09,-73.59 166.65,-78.17 167.42,-71.22"/>
</g>
<!-- Node25&#45;&gt;Node9 -->
<g id="edge34" class="edge">
<title>Node25&#45;&gt;Node9</title>
<path fill="none" stroke="midnightblue" d="M587.32,-112.08C588.77,-104.93 590.87,-94.64 592.69,-85.69"/>
<polygon fill="midnightblue" stroke="midnightblue" points="596.15,-86.25 594.72,-75.75 589.29,-84.85 596.15,-86.25"/>
</g>
<!-- Node25&#45;&gt;Node10 -->
<g id="edge32" class="edge">
<title>Node25&#45;&gt;Node10</title>
<path fill="none" stroke="midnightblue" d="M574.11,-112.41C555.81,-98.93 518.38,-72.62 483.5,-56 451.12,-40.58 412.05,-28.17 384.29,-20.33"/>
<polygon fill="midnightblue" stroke="midnightblue" points="385.18,-16.94 374.61,-17.64 383.31,-23.69 385.18,-16.94"/>
</g>
<!-- Node25&#45;&gt;Node16 -->
<g id="edge33" class="edge">
<title>Node25&#45;&gt;Node16</title>
<path fill="none" stroke="midnightblue" d="M606.29,-112.37C652.93,-93.01 766.03,-46.06 820.37,-23.51"/>
<polygon fill="midnightblue" stroke="midnightblue" points="821.91,-26.66 829.8,-19.59 819.22,-20.19 821.91,-26.66"/>
</g>
<!-- Node27&#45;&gt;Node18 -->
<g id="edge48" class="edge">
<title>Node27&#45;&gt;Node18</title>
<path fill="none" stroke="midnightblue" d="M929.75,-504.48C953.47,-497.41 984.91,-485.64 1008.5,-468 1033.85,-449.05 1042.15,-441.91 1052.5,-412 1070.54,-359.85 967.5,-368.56 967.5,-291 967.5,-291 967.5,-291 967.5,-233 967.5,-186.84 927.28,-189.63 886.5,-168 849.71,-148.49 803.14,-135.99 772.62,-129.23"/>
<polygon fill="midnightblue" stroke="midnightblue" points="773.04,-125.74 762.53,-127.08 771.58,-132.59 773.04,-125.74"/>
</g>
<!-- Node28 -->
<g id="node28" class="node">
<title>Node28</title>
<g id="a_node28"><a xlink:title=" ">
<polygon fill="none" stroke="#bfbfbf" points="996,-392.5 996,-411.5 1043,-411.5 1043,-392.5 996,-392.5"/>
<text text-anchor="middle" x="1019.5" y="-399.5" font-family="FreeSans.ttf" font-size="10.00">vector</text>
</a>
</g>
</g>
<!-- Node27&#45;&gt;Node28 -->
<g id="edge49" class="edge">
<title>Node27&#45;&gt;Node28</title>
<path fill="none" stroke="midnightblue" d="M924.19,-504.48C944.01,-497.39 969.88,-485.58 987.5,-468 1000.56,-454.98 1009.16,-435.55 1014.12,-421.32"/>
<polygon fill="midnightblue" stroke="midnightblue" points="1017.5,-422.25 1017.22,-411.65 1010.83,-420.11 1017.5,-422.25"/>
</g>
<!-- Node29 -->
<g id="node29" class="node">
<title>Node29</title>
<g id="a_node29"><a xlink:href="ConvexHullHelpers_8h.html" target="_top" xlink:title=" ">
<polygon fill="none" stroke="black" points="813,-448.5 813,-467.5 978,-467.5 978,-448.5 813,-448.5"/>
<text text-anchor="middle" x="895.5" y="-455.5" font-family="FreeSans.ttf" font-size="10.00">iDynTree/ConvexHullHelpers.h</text>
</a>
</g>
</g>
<!-- Node27&#45;&gt;Node29 -->
<g id="edge50" class="edge">
<title>Node27&#45;&gt;Node29</title>
<path fill="none" stroke="midnightblue" d="M895.5,-504.08C895.5,-497.01 895.5,-486.86 895.5,-477.99"/>
<polygon fill="midnightblue" stroke="midnightblue" points="899,-477.75 895.5,-467.75 892,-477.75 899,-477.75"/>
</g>
<!-- Node32 -->
<g id="node32" class="node">
<title>Node32</title>
<g id="a_node32"><a xlink:href="Direction_8h.html" target="_top" xlink:title=" ">
<polygon fill="none" stroke="black" points="0,-224.5 0,-243.5 141,-243.5 141,-224.5 0,-224.5"/>
<text text-anchor="middle" x="70.5" y="-231.5" font-family="FreeSans.ttf" font-size="10.00">iDynTree/Core/Direction.h</text>
</a>
</g>
</g>
<!-- Node27&#45;&gt;Node32 -->
<g id="edge61" class="edge">
<title>Node27&#45;&gt;Node32</title>
<path fill="none" stroke="midnightblue" d="M814.35,-513.21C662.7,-511.38 351.5,-496.28 351.5,-403 351.5,-403 351.5,-403 351.5,-345 351.5,-297.54 210.73,-262.16 128.46,-245.53"/>
<polygon fill="midnightblue" stroke="midnightblue" points="128.98,-242.06 118.49,-243.55 127.61,-248.93 128.98,-242.06"/>
</g>
<!-- Node29&#45;&gt;Node2 -->
<g id="edge57" class="edge">
<title>Node29&#45;&gt;Node2</title>
<path fill="none" stroke="midnightblue" d="M851.61,-448.44C802.98,-438.96 724.55,-423.67 672.28,-413.48"/>
<polygon fill="midnightblue" stroke="midnightblue" points="672.67,-409.99 662.19,-411.52 671.33,-416.87 672.67,-409.99"/>
</g>
<!-- Node29&#45;&gt;Node3 -->
<g id="edge56" class="edge">
<title>Node29&#45;&gt;Node3</title>
<path fill="none" stroke="midnightblue" d="M883.89,-448.37C858.71,-429.65 798.83,-385.15 767.46,-361.83"/>
<polygon fill="midnightblue" stroke="midnightblue" points="769.17,-358.75 759.06,-355.59 765,-364.37 769.17,-358.75"/>
</g>
<!-- Node29&#45;&gt;Node18 -->
<g id="edge51" class="edge">
<title>Node29&#45;&gt;Node18</title>
<path fill="none" stroke="midnightblue" d="M900.09,-448.44C909.37,-430.29 929.5,-386.38 929.5,-347 929.5,-347 929.5,-347 929.5,-233 929.5,-196.99 825.73,-153.95 771.97,-134.07"/>
<polygon fill="midnightblue" stroke="midnightblue" points="773.14,-130.77 762.55,-130.63 770.75,-137.35 773.14,-130.77"/>
</g>
<!-- Node29&#45;&gt;Node28 -->
<g id="edge52" class="edge">
<title>Node29&#45;&gt;Node28</title>
<path fill="none" stroke="midnightblue" d="M915.15,-448.44C935.46,-439.6 967.4,-425.69 990.6,-415.59"/>
<polygon fill="midnightblue" stroke="midnightblue" points="992.17,-418.72 999.94,-411.52 989.38,-412.3 992.17,-418.72"/>
</g>
<!-- Node30 -->
<g id="node30" class="node">
<title>Node30</title>
<g id="a_node30"><a xlink:href="MatrixDynSize_8h.html" target="_top" xlink:title=" ">
<polygon fill="none" stroke="black" points="525.5,-168.5 525.5,-187.5 693.5,-187.5 693.5,-168.5 525.5,-168.5"/>
<text text-anchor="middle" x="609.5" y="-175.5" font-family="FreeSans.ttf" font-size="10.00">iDynTree/Core/MatrixDynSize.h</text>
</a>
</g>
</g>
<!-- Node29&#45;&gt;Node30 -->
<g id="edge53" class="edge">
<title>Node29&#45;&gt;Node30</title>
<path fill="none" stroke="midnightblue" d="M894.98,-448.45C893.89,-429.95 891.5,-384.84 891.5,-347 891.5,-347 891.5,-347 891.5,-289 891.5,-250.58 867.77,-243.23 834.5,-224 795.07,-201.21 745.98,-189.8 703.72,-184.15"/>
<polygon fill="midnightblue" stroke="midnightblue" points="704.06,-180.66 693.7,-182.9 703.19,-187.61 704.06,-180.66"/>
</g>
<!-- Node31 -->
<g id="node31" class="node">
<title>Node31</title>
<g id="a_node31"><a xlink:href="VectorDynSize_8h.html" target="_top" xlink:title=" ">
<polygon fill="none" stroke="black" points="995,-168.5 995,-187.5 1162,-187.5 1162,-168.5 995,-168.5"/>
<text text-anchor="middle" x="1078.5" y="-175.5" font-family="FreeSans.ttf" font-size="10.00">iDynTree/Core/VectorDynSize.h</text>
</a>
</g>
</g>
<!-- Node29&#45;&gt;Node31 -->
<g id="edge58" class="edge">
<title>Node29&#45;&gt;Node31</title>
<path fill="none" stroke="midnightblue" d="M906.28,-448.48C916.62,-439.96 932.27,-426.13 943.5,-412 1001.82,-338.59 1051.61,-237.21 1070.45,-196.73"/>
<polygon fill="midnightblue" stroke="midnightblue" points="1073.65,-198.15 1074.65,-187.6 1067.29,-195.22 1073.65,-198.15"/>
</g>
<!-- Node30&#45;&gt;Node18 -->
<g id="edge54" class="edge">
<title>Node30&#45;&gt;Node18</title>
<path fill="none" stroke="midnightblue" d="M630.26,-168.44C651.82,-159.56 685.76,-145.56 710.29,-135.45"/>
<polygon fill="midnightblue" stroke="midnightblue" points="711.93,-138.56 719.84,-131.52 709.26,-132.09 711.93,-138.56"/>
</g>
<!-- Node30&#45;&gt;Node25 -->
<g id="edge55" class="edge">
<title>Node30&#45;&gt;Node25</title>
<path fill="none" stroke="midnightblue" d="M605.54,-168.08C602.29,-160.77 597.58,-150.18 593.55,-141.1"/>
<polygon fill="midnightblue" stroke="midnightblue" points="596.65,-139.47 589.39,-131.75 590.25,-142.31 596.65,-139.47"/>
</g>
<!-- Node31&#45;&gt;Node9 -->
<g id="edge59" class="edge">
<title>Node31&#45;&gt;Node9</title>
<path fill="none" stroke="midnightblue" d="M1041.08,-168.46C954.33,-148.66 739.6,-99.66 643.88,-77.81"/>
<polygon fill="midnightblue" stroke="midnightblue" points="644.42,-74.35 633.9,-75.53 642.87,-81.17 644.42,-74.35"/>
</g>
<!-- Node31&#45;&gt;Node18 -->
<g id="edge60" class="edge">
<title>Node31&#45;&gt;Node18</title>
<path fill="none" stroke="midnightblue" d="M1024.94,-168.44C953.97,-157.1 830.97,-137.45 772.78,-128.16"/>
<polygon fill="midnightblue" stroke="midnightblue" points="773.13,-124.67 762.7,-126.55 772.02,-131.58 773.13,-124.67"/>
</g>
<!-- Node32&#45;&gt;Node5 -->
<g id="edge63" class="edge">
<title>Node32&#45;&gt;Node5</title>
<path fill="none" stroke="midnightblue" d="M86.25,-224.32C101.82,-215.74 125.88,-202.49 143.96,-192.52"/>
<polygon fill="midnightblue" stroke="midnightblue" points="145.72,-195.55 152.79,-187.65 142.35,-189.42 145.72,-195.55"/>
</g>
<!-- Node32&#45;&gt;Node6 -->
<g id="edge64" class="edge">
<title>Node32&#45;&gt;Node6</title>
<path fill="none" stroke="midnightblue" d="M71.41,-224.14C72.74,-211.61 75.39,-188 78.5,-168 82.99,-139.13 89.51,-105.86 93.63,-85.64"/>
<polygon fill="midnightblue" stroke="midnightblue" points="97.1,-86.11 95.69,-75.61 90.25,-84.7 97.1,-86.11"/>
</g>
<!-- Node32&#45;&gt;Node18 -->
<g id="edge62" class="edge">
<title>Node32&#45;&gt;Node18</title>
<path fill="none" stroke="midnightblue" d="M141.21,-226.15C232.23,-217.03 385.21,-200.59 440.5,-188 467.5,-181.85 472.71,-175 499.5,-168 573.23,-148.72 661.72,-134.4 708.25,-127.53"/>
<polygon fill="midnightblue" stroke="midnightblue" points="708.95,-130.96 718.34,-126.06 707.94,-124.04 708.95,-130.96"/>
</g>
</g>
</svg>
