<?xml version="1.0" encoding="UTF-8" standalone="no"?>
<!DOCTYPE svg PUBLIC "-//W3C//DTD SVG 1.1//EN"
 "http://www.w3.org/Graphics/SVG/1.1/DTD/svg11.dtd">
<!-- Generated by graphviz version 2.43.0 (0)
 -->
<!-- Title: Transform.h Pages: 1 -->
<svg width="893pt" height="420pt"
 viewBox="0.00 0.00 893.39 420.00" xmlns="http://www.w3.org/2000/svg" xmlns:xlink="http://www.w3.org/1999/xlink">
<g id="graph0" class="graph" transform="scale(1 1) rotate(0) translate(4 416)">
<title>Transform.h</title>
<!-- Node1 -->
<g id="node1" class="node">
<title>Node1</title>
<g id="a_node1"><a xlink:title=" ">
<polygon fill="#bfbfbf" stroke="black" points="617.39,-392.5 617.39,-411.5 691.39,-411.5 691.39,-392.5 617.39,-392.5"/>
<text text-anchor="middle" x="654.39" y="-399.5" font-family="FreeSans.ttf" font-size="10.00">Transform.h</text>
</a>
</g>
</g>
<!-- Node2 -->
<g id="node2" class="node">
<title>Node2</title>
<g id="a_node2"><a xlink:href="Position_8h.html" target="_top" xlink:title=" ">
<polygon fill="none" stroke="black" points="593.39,-336.5 593.39,-355.5 729.39,-355.5 729.39,-336.5 593.39,-336.5"/>
<text text-anchor="middle" x="661.39" y="-343.5" font-family="FreeSans.ttf" font-size="10.00">iDynTree/Core/Position.h</text>
</a>
</g>
</g>
<!-- Node1&#45;&gt;Node2 -->
<g id="edge1" class="edge">
<title>Node1&#45;&gt;Node2</title>
<path fill="none" stroke="midnightblue" d="M655.55,-392.08C656.47,-384.93 657.81,-374.64 658.97,-365.69"/>
<polygon fill="midnightblue" stroke="midnightblue" points="662.44,-366.12 660.26,-355.75 655.5,-365.22 662.44,-366.12"/>
</g>
<!-- Node17 -->
<g id="node17" class="node">
<title>Node17</title>
<g id="a_node17"><a xlink:title=" ">
<polygon fill="none" stroke="#bfbfbf" points="613.39,-112.5 613.39,-131.5 657.39,-131.5 657.39,-112.5 613.39,-112.5"/>
<text text-anchor="middle" x="635.39" y="-119.5" font-family="FreeSans.ttf" font-size="10.00">string</text>
</a>
</g>
</g>
<!-- Node1&#45;&gt;Node17 -->
<g id="edge45" class="edge">
<title>Node1&#45;&gt;Node17</title>
<path fill="none" stroke="midnightblue" d="M691.5,-399.74C756.8,-395.32 885.39,-375.84 885.39,-291 885.39,-291 885.39,-291 885.39,-233 885.39,-138.93 735.25,-124.6 667.68,-122.91"/>
<polygon fill="midnightblue" stroke="midnightblue" points="667.63,-119.41 657.58,-122.74 667.52,-126.41 667.63,-119.41"/>
</g>
<!-- Node20 -->
<g id="node20" class="node">
<title>Node20</title>
<g id="a_node20"><a xlink:href="Rotation_8h.html" target="_top" xlink:title=" ">
<polygon fill="none" stroke="black" points="472.39,-280.5 472.39,-299.5 610.39,-299.5 610.39,-280.5 472.39,-280.5"/>
<text text-anchor="middle" x="541.39" y="-287.5" font-family="FreeSans.ttf" font-size="10.00">iDynTree/Core/Rotation.h</text>
</a>
</g>
</g>
<!-- Node1&#45;&gt;Node20 -->
<g id="edge43" class="edge">
<title>Node1&#45;&gt;Node20</title>
<path fill="none" stroke="midnightblue" d="M636.86,-392.39C621.77,-384.4 600.02,-371.43 584.39,-356 570.29,-342.08 558.25,-322.81 550.53,-308.87"/>
<polygon fill="midnightblue" stroke="midnightblue" points="553.49,-307 545.7,-299.82 547.31,-310.29 553.49,-307"/>
</g>
<!-- Node23 -->
<g id="node23" class="node">
<title>Node23</title>
<g id="a_node23"><a xlink:href="MatrixFixSize_8h.html" target="_top" xlink:title=" ">
<polygon fill="none" stroke="black" points="225.89,-168.5 225.89,-187.5 388.89,-187.5 388.89,-168.5 225.89,-168.5"/>
<text text-anchor="middle" x="307.39" y="-175.5" font-family="FreeSans.ttf" font-size="10.00">iDynTree/Core/MatrixFixSize.h</text>
</a>
</g>
</g>
<!-- Node1&#45;&gt;Node23 -->
<g id="edge44" class="edge">
<title>Node1&#45;&gt;Node23</title>
<path fill="none" stroke="midnightblue" d="M617.1,-400.64C530.1,-397.55 314.12,-376.26 221.39,-244 205.05,-220.7 238.46,-202.15 268.28,-190.92"/>
<polygon fill="midnightblue" stroke="midnightblue" points="269.53,-194.2 277.77,-187.54 267.18,-187.6 269.53,-194.2"/>
</g>
<!-- Node3 -->
<g id="node3" class="node">
<title>Node3</title>
<g id="a_node3"><a xlink:href="PositionRaw_8h.html" target="_top" xlink:title=" ">
<polygon fill="none" stroke="black" points="663.39,-224.5 663.39,-243.5 819.39,-243.5 819.39,-224.5 663.39,-224.5"/>
<text text-anchor="middle" x="741.39" y="-231.5" font-family="FreeSans.ttf" font-size="10.00">iDynTree/Core/PositionRaw.h</text>
</a>
</g>
</g>
<!-- Node2&#45;&gt;Node3 -->
<g id="edge2" class="edge">
<title>Node2&#45;&gt;Node3</title>
<path fill="none" stroke="midnightblue" d="M667.67,-336.37C680.87,-318.22 711.72,-275.8 729.03,-251.99"/>
<polygon fill="midnightblue" stroke="midnightblue" points="732.09,-253.74 735.14,-243.59 726.43,-249.62 732.09,-253.74"/>
</g>
<!-- Node2&#45;&gt;Node17 -->
<g id="edge42" class="edge">
<title>Node2&#45;&gt;Node17</title>
<path fill="none" stroke="midnightblue" d="M696.46,-336.5C755.14,-320.46 863.53,-282.04 828.39,-224 793.23,-165.92 712.48,-139.63 667.36,-129.11"/>
<polygon fill="midnightblue" stroke="midnightblue" points="668.03,-125.67 657.51,-126.93 666.52,-132.5 668.03,-125.67"/>
</g>
<!-- Node2&#45;&gt;Node20 -->
<g id="edge23" class="edge">
<title>Node2&#45;&gt;Node20</title>
<path fill="none" stroke="midnightblue" d="M642.38,-336.44C622.8,-327.64 592.08,-313.81 569.66,-303.72"/>
<polygon fill="midnightblue" stroke="midnightblue" points="570.87,-300.43 560.32,-299.52 568,-306.81 570.87,-300.43"/>
</g>
<!-- Node4 -->
<g id="node4" class="node">
<title>Node4</title>
<g id="a_node4"><a xlink:href="VectorFixSize_8h.html" target="_top" xlink:title=" ">
<polygon fill="none" stroke="black" points="407.39,-168.5 407.39,-187.5 569.39,-187.5 569.39,-168.5 407.39,-168.5"/>
<text text-anchor="middle" x="488.39" y="-175.5" font-family="FreeSans.ttf" font-size="10.00">iDynTree/Core/VectorFixSize.h</text>
</a>
</g>
</g>
<!-- Node3&#45;&gt;Node4 -->
<g id="edge3" class="edge">
<title>Node3&#45;&gt;Node4</title>
<path fill="none" stroke="midnightblue" d="M701.3,-224.44C657.07,-215 585.85,-199.8 538.11,-189.61"/>
<polygon fill="midnightblue" stroke="midnightblue" points="538.8,-186.18 528.29,-187.52 537.34,-193.03 538.8,-186.18"/>
</g>
<!-- Node3&#45;&gt;Node17 -->
<g id="edge22" class="edge">
<title>Node3&#45;&gt;Node17</title>
<path fill="none" stroke="midnightblue" d="M733.07,-224.37C715.35,-205.97 673.62,-162.67 650.86,-139.05"/>
<polygon fill="midnightblue" stroke="midnightblue" points="653.13,-136.36 643.67,-131.59 648.09,-141.22 653.13,-136.36"/>
</g>
<!-- Node5 -->
<g id="node5" class="node">
<title>Node5</title>
<g id="a_node5"><a xlink:href="Utils_8h.html" target="_top" xlink:title=" ">
<polygon fill="none" stroke="black" points="254.89,-56.5 254.89,-75.5 373.89,-75.5 373.89,-56.5 254.89,-56.5"/>
<text text-anchor="middle" x="314.39" y="-63.5" font-family="FreeSans.ttf" font-size="10.00">iDynTree/Core/Utils.h</text>
</a>
</g>
</g>
<!-- Node4&#45;&gt;Node5 -->
<g id="edge4" class="edge">
<title>Node4&#45;&gt;Node5</title>
<path fill="none" stroke="midnightblue" d="M489.3,-168.15C490.21,-154.31 489.79,-127.52 475.39,-112 452.15,-86.94 416.22,-75.42 384.2,-70.27"/>
<polygon fill="midnightblue" stroke="midnightblue" points="384.36,-66.76 373.96,-68.82 383.37,-73.69 384.36,-66.76"/>
</g>
<!-- Node6 -->
<g id="node6" class="node">
<title>Node6</title>
<g id="a_node6"><a xlink:title=" ">
<polygon fill="none" stroke="#bfbfbf" points="367.89,-0.5 367.89,-19.5 420.89,-19.5 420.89,-0.5 367.89,-0.5"/>
<text text-anchor="middle" x="394.39" y="-7.5" font-family="FreeSans.ttf" font-size="10.00">cstddef</text>
</a>
</g>
</g>
<!-- Node4&#45;&gt;Node6 -->
<g id="edge20" class="edge">
<title>Node4&#45;&gt;Node6</title>
<path fill="none" stroke="midnightblue" d="M491.71,-168.2C496.03,-155.34 502.15,-130.87 494.39,-112 478.67,-73.79 440.74,-42.36 416.37,-25.18"/>
<polygon fill="midnightblue" stroke="midnightblue" points="418.31,-22.26 408.07,-19.51 414.36,-28.04 418.31,-22.26"/>
</g>
<!-- Node8 -->
<g id="node8" class="node">
<title>Node8</title>
<g id="a_node8"><a xlink:href="Span_8h.html" target="_top" xlink:title=" ">
<polygon fill="none" stroke="black" points="531.89,-56.5 531.89,-75.5 652.89,-75.5 652.89,-56.5 531.89,-56.5"/>
<text text-anchor="middle" x="592.39" y="-63.5" font-family="FreeSans.ttf" font-size="10.00">iDynTree/Core/Span.h</text>
</a>
</g>
</g>
<!-- Node4&#45;&gt;Node8 -->
<g id="edge7" class="edge">
<title>Node4&#45;&gt;Node8</title>
<path fill="none" stroke="midnightblue" d="M501.73,-168.34C514.11,-159.93 532.64,-146.36 546.39,-132 560.39,-117.37 573.43,-98.21 582.02,-84.48"/>
<polygon fill="midnightblue" stroke="midnightblue" points="585.22,-85.96 587.44,-75.6 579.25,-82.31 585.22,-85.96"/>
</g>
<!-- Node9 -->
<g id="node9" class="node">
<title>Node9</title>
<g id="a_node9"><a xlink:title=" ">
<polygon fill="none" stroke="#bfbfbf" points="97.39,-0.5 97.39,-19.5 149.39,-19.5 149.39,-0.5 97.39,-0.5"/>
<text text-anchor="middle" x="123.39" y="-7.5" font-family="FreeSans.ttf" font-size="10.00">cassert</text>
</a>
</g>
</g>
<!-- Node4&#45;&gt;Node9 -->
<g id="edge19" class="edge">
<title>Node4&#45;&gt;Node9</title>
<path fill="none" stroke="midnightblue" d="M409.14,-168.48C303.76,-156.96 130.11,-137.26 125.39,-132 100.2,-103.97 109.33,-55.81 117.05,-29.5"/>
<polygon fill="midnightblue" stroke="midnightblue" points="120.48,-30.27 120.17,-19.68 113.81,-28.15 120.48,-30.27"/>
</g>
<!-- Node4&#45;&gt;Node17 -->
<g id="edge17" class="edge">
<title>Node4&#45;&gt;Node17</title>
<path fill="none" stroke="midnightblue" d="M511.68,-168.44C536.49,-159.33 575.9,-144.85 603.56,-134.69"/>
<polygon fill="midnightblue" stroke="midnightblue" points="604.99,-137.9 613.17,-131.16 602.58,-131.33 604.99,-137.9"/>
</g>
<!-- Node18 -->
<g id="node18" class="node">
<title>Node18</title>
<g id="a_node18"><a xlink:title=" ">
<polygon fill="none" stroke="#bfbfbf" points="410.39,-112.5 410.39,-131.5 466.39,-131.5 466.39,-112.5 410.39,-112.5"/>
<text text-anchor="middle" x="438.39" y="-119.5" font-family="FreeSans.ttf" font-size="10.00">sstream</text>
</a>
</g>
</g>
<!-- Node4&#45;&gt;Node18 -->
<g id="edge18" class="edge">
<title>Node4&#45;&gt;Node18</title>
<path fill="none" stroke="midnightblue" d="M480.13,-168.08C472.93,-160.3 462.28,-148.8 453.54,-139.37"/>
<polygon fill="midnightblue" stroke="midnightblue" points="455.86,-136.71 446.49,-131.75 450.72,-141.47 455.86,-136.71"/>
</g>
<!-- Node19 -->
<g id="node19" class="node">
<title>Node19</title>
<g id="a_node19"><a xlink:title=" ">
<polygon fill="none" stroke="#bfbfbf" points="342.39,-112.5 342.39,-131.5 392.39,-131.5 392.39,-112.5 342.39,-112.5"/>
<text text-anchor="middle" x="367.39" y="-119.5" font-family="FreeSans.ttf" font-size="10.00">cstring</text>
</a>
</g>
</g>
<!-- Node4&#45;&gt;Node19 -->
<g id="edge21" class="edge">
<title>Node4&#45;&gt;Node19</title>
<path fill="none" stroke="midnightblue" d="M469.22,-168.44C449.48,-159.64 418.51,-145.81 395.9,-135.72"/>
<polygon fill="midnightblue" stroke="midnightblue" points="397.03,-132.4 386.47,-131.52 394.18,-138.79 397.03,-132.4"/>
</g>
<!-- Node5&#45;&gt;Node6 -->
<g id="edge5" class="edge">
<title>Node5&#45;&gt;Node6</title>
<path fill="none" stroke="midnightblue" d="M327.24,-56.32C339.61,-47.98 358.52,-35.21 373.13,-25.35"/>
<polygon fill="midnightblue" stroke="midnightblue" points="375.24,-28.15 381.57,-19.65 371.32,-22.35 375.24,-28.15"/>
</g>
<!-- Node7 -->
<g id="node7" class="node">
<title>Node7</title>
<g id="a_node7"><a xlink:title=" ">
<polygon fill="none" stroke="#bfbfbf" points="269.39,-0.5 269.39,-19.5 349.39,-19.5 349.39,-0.5 269.39,-0.5"/>
<text text-anchor="middle" x="309.39" y="-7.5" font-family="FreeSans.ttf" font-size="10.00">CoreExport.h</text>
</a>
</g>
</g>
<!-- Node5&#45;&gt;Node7 -->
<g id="edge6" class="edge">
<title>Node5&#45;&gt;Node7</title>
<path fill="none" stroke="midnightblue" d="M313.57,-56.08C312.91,-49.01 311.97,-38.86 311.15,-29.99"/>
<polygon fill="midnightblue" stroke="midnightblue" points="314.61,-29.39 310.2,-19.75 307.64,-30.03 314.61,-29.39"/>
</g>
<!-- Node8&#45;&gt;Node6 -->
<g id="edge11" class="edge">
<title>Node8&#45;&gt;Node6</title>
<path fill="none" stroke="midnightblue" d="M561.02,-56.44C525.73,-46.82 468.49,-31.21 431.15,-21.02"/>
<polygon fill="midnightblue" stroke="midnightblue" points="431.74,-17.56 421.17,-18.3 429.9,-24.31 431.74,-17.56"/>
</g>
<!-- Node8&#45;&gt;Node9 -->
<g id="edge8" class="edge">
<title>Node8&#45;&gt;Node9</title>
<path fill="none" stroke="midnightblue" d="M531.74,-60.12C449.59,-53.16 298.47,-39.06 170.39,-20 166.92,-19.48 163.31,-18.89 159.7,-18.26"/>
<polygon fill="midnightblue" stroke="midnightblue" points="160.14,-14.79 149.67,-16.43 158.88,-21.67 160.14,-14.79"/>
</g>
<!-- Node10 -->
<g id="node10" class="node">
<title>Node10</title>
<g id="a_node10"><a xlink:title=" ">
<polygon fill="none" stroke="#bfbfbf" points="719.39,-0.5 719.39,-19.5 783.39,-19.5 783.39,-0.5 719.39,-0.5"/>
<text text-anchor="middle" x="751.39" y="-7.5" font-family="FreeSans.ttf" font-size="10.00">algorithm</text>
</a>
</g>
</g>
<!-- Node8&#45;&gt;Node10 -->
<g id="edge9" class="edge">
<title>Node8&#45;&gt;Node10</title>
<path fill="none" stroke="midnightblue" d="M617.58,-56.44C644.33,-47.36 686.79,-32.94 716.7,-22.78"/>
<polygon fill="midnightblue" stroke="midnightblue" points="717.97,-26.05 726.31,-19.52 715.72,-19.42 717.97,-26.05"/>
</g>
<!-- Node11 -->
<g id="node11" class="node">
<title>Node11</title>
<g id="a_node11"><a xlink:title=" ">
<polygon fill="none" stroke="#bfbfbf" points="801.39,-0.5 801.39,-19.5 843.39,-19.5 843.39,-0.5 801.39,-0.5"/>
<text text-anchor="middle" x="822.39" y="-7.5" font-family="FreeSans.ttf" font-size="10.00">array</text>
</a>
</g>
</g>
<!-- Node8&#45;&gt;Node11 -->
<g id="edge10" class="edge">
<title>Node8&#45;&gt;Node11</title>
<path fill="none" stroke="midnightblue" d="M634.35,-56.45C672.82,-48.42 731.56,-35.65 791.18,-20.18"/>
<polygon fill="midnightblue" stroke="midnightblue" points="792.35,-23.5 801.14,-17.58 790.58,-16.72 792.35,-23.5"/>
</g>
<!-- Node12 -->
<g id="node12" class="node">
<title>Node12</title>
<g id="a_node12"><a xlink:title=" ">
<polygon fill="none" stroke="#bfbfbf" points="438.89,-0.5 438.89,-19.5 491.89,-19.5 491.89,-0.5 438.89,-0.5"/>
<text text-anchor="middle" x="465.39" y="-7.5" font-family="FreeSans.ttf" font-size="10.00">iterator</text>
</a>
</g>
</g>
<!-- Node8&#45;&gt;Node12 -->
<g id="edge12" class="edge">
<title>Node8&#45;&gt;Node12</title>
<path fill="none" stroke="midnightblue" d="M572.27,-56.44C551.37,-47.56 518.46,-33.56 494.67,-23.45"/>
<polygon fill="midnightblue" stroke="midnightblue" points="495.99,-20.21 485.42,-19.52 493.25,-26.65 495.99,-20.21"/>
</g>
<!-- Node13 -->
<g id="node13" class="node">
<title>Node13</title>
<g id="a_node13"><a xlink:title=" ">
<polygon fill="none" stroke="#bfbfbf" points="510.39,-0.5 510.39,-19.5 554.39,-19.5 554.39,-0.5 510.39,-0.5"/>
<text text-anchor="middle" x="532.39" y="-7.5" font-family="FreeSans.ttf" font-size="10.00">limits</text>
</a>
</g>
</g>
<!-- Node8&#45;&gt;Node13 -->
<g id="edge13" class="edge">
<title>Node8&#45;&gt;Node13</title>
<path fill="none" stroke="midnightblue" d="M582.75,-56.32C573.88,-48.34 560.52,-36.31 549.78,-26.65"/>
<polygon fill="midnightblue" stroke="midnightblue" points="551.98,-23.92 542.21,-19.83 547.3,-29.13 551.98,-23.92"/>
</g>
<!-- Node14 -->
<g id="node14" class="node">
<title>Node14</title>
<g id="a_node14"><a xlink:title=" ">
<polygon fill="none" stroke="#bfbfbf" points="572.89,-0.5 572.89,-19.5 637.89,-19.5 637.89,-0.5 572.89,-0.5"/>
<text text-anchor="middle" x="605.39" y="-7.5" font-family="FreeSans.ttf" font-size="10.00">stdexcept</text>
</a>
</g>
</g>
<!-- Node8&#45;&gt;Node14 -->
<g id="edge14" class="edge">
<title>Node8&#45;&gt;Node14</title>
<path fill="none" stroke="midnightblue" d="M594.54,-56.08C596.26,-48.93 598.74,-38.64 600.89,-29.69"/>
<polygon fill="midnightblue" stroke="midnightblue" points="604.35,-30.29 603.28,-19.75 597.54,-28.65 604.35,-30.29"/>
</g>
<!-- Node15 -->
<g id="node15" class="node">
<title>Node15</title>
<g id="a_node15"><a xlink:title=" ">
<polygon fill="none" stroke="#bfbfbf" points="179.89,-0.5 179.89,-19.5 248.89,-19.5 248.89,-0.5 179.89,-0.5"/>
<text text-anchor="middle" x="214.39" y="-7.5" font-family="FreeSans.ttf" font-size="10.00">type_traits</text>
</a>
</g>
</g>
<!-- Node8&#45;&gt;Node15 -->
<g id="edge15" class="edge">
<title>Node8&#45;&gt;Node15</title>
<path fill="none" stroke="midnightblue" d="M531.65,-57.85C464.96,-49.75 354.79,-35.62 260.39,-20 259.93,-19.92 259.47,-19.85 259,-19.77"/>
<polygon fill="midnightblue" stroke="midnightblue" points="259.47,-16.3 249.01,-18 258.25,-23.19 259.47,-16.3"/>
</g>
<!-- Node16 -->
<g id="node16" class="node">
<title>Node16</title>
<g id="a_node16"><a xlink:title=" ">
<polygon fill="none" stroke="#bfbfbf" points="655.89,-0.5 655.89,-19.5 700.89,-19.5 700.89,-0.5 655.89,-0.5"/>
<text text-anchor="middle" x="678.39" y="-7.5" font-family="FreeSans.ttf" font-size="10.00">utility</text>
</a>
</g>
</g>
<!-- Node8&#45;&gt;Node16 -->
<g id="edge16" class="edge">
<title>Node8&#45;&gt;Node16</title>
<path fill="none" stroke="midnightblue" d="M606.21,-56.32C619.62,-47.9 640.21,-34.97 655.98,-25.07"/>
<polygon fill="midnightblue" stroke="midnightblue" points="658,-27.94 664.61,-19.65 654.28,-22.01 658,-27.94"/>
</g>
<!-- Node20&#45;&gt;Node4 -->
<g id="edge41" class="edge">
<title>Node20&#45;&gt;Node4</title>
<path fill="none" stroke="midnightblue" d="M495.74,-280.43C475.15,-274.04 452.73,-263 440.39,-244 428.71,-226 448.12,-206.3 465.65,-193.36"/>
<polygon fill="midnightblue" stroke="midnightblue" points="467.74,-196.17 473.95,-187.59 463.74,-190.43 467.74,-196.17"/>
</g>
<!-- Node20&#45;&gt;Node17 -->
<g id="edge24" class="edge">
<title>Node20&#45;&gt;Node17</title>
<path fill="none" stroke="midnightblue" d="M566.68,-280.36C583.5,-273.27 604.59,-261.5 616.39,-244 637.31,-212.96 638.44,-167.39 637.11,-141.95"/>
<polygon fill="midnightblue" stroke="midnightblue" points="640.59,-141.53 636.39,-131.81 633.61,-142.03 640.59,-141.53"/>
</g>
<!-- Node21 -->
<g id="node21" class="node">
<title>Node21</title>
<g id="a_node21"><a xlink:href="GeomVector3_8h.html" target="_top" xlink:title=" ">
<polygon fill="none" stroke="black" points="229.89,-224.5 229.89,-243.5 392.89,-243.5 392.89,-224.5 229.89,-224.5"/>
<text text-anchor="middle" x="311.39" y="-231.5" font-family="FreeSans.ttf" font-size="10.00">iDynTree/Core/GeomVector3.h</text>
</a>
</g>
</g>
<!-- Node20&#45;&gt;Node21 -->
<g id="edge25" class="edge">
<title>Node20&#45;&gt;Node21</title>
<path fill="none" stroke="midnightblue" d="M504.95,-280.44C464.99,-271.06 400.8,-255.99 357.41,-245.8"/>
<polygon fill="midnightblue" stroke="midnightblue" points="358.2,-242.39 347.66,-243.52 356.6,-249.21 358.2,-242.39"/>
</g>
<!-- Node22 -->
<g id="node22" class="node">
<title>Node22</title>
<g id="a_node22"><a xlink:href="RotationRaw_8h.html" target="_top" xlink:title=" ">
<polygon fill="none" stroke="black" points="449.39,-224.5 449.39,-243.5 607.39,-243.5 607.39,-224.5 449.39,-224.5"/>
<text text-anchor="middle" x="528.39" y="-231.5" font-family="FreeSans.ttf" font-size="10.00">iDynTree/Core/RotationRaw.h</text>
</a>
</g>
</g>
<!-- Node20&#45;&gt;Node22 -->
<g id="edge27" class="edge">
<title>Node20&#45;&gt;Node22</title>
<path fill="none" stroke="midnightblue" d="M539.24,-280.08C537.52,-272.93 535.04,-262.64 532.89,-253.69"/>
<polygon fill="midnightblue" stroke="midnightblue" points="536.24,-252.65 530.5,-243.75 529.44,-254.29 536.24,-252.65"/>
</g>
<!-- Node21&#45;&gt;Node4 -->
<g id="edge26" class="edge">
<title>Node21&#45;&gt;Node4</title>
<path fill="none" stroke="midnightblue" d="M339.44,-224.44C369.47,-215.28 417.3,-200.69 450.63,-190.52"/>
<polygon fill="midnightblue" stroke="midnightblue" points="451.93,-193.78 460.48,-187.52 449.89,-187.09 451.93,-193.78"/>
</g>
<!-- Node22&#45;&gt;Node17 -->
<g id="edge40" class="edge">
<title>Node22&#45;&gt;Node17</title>
<path fill="none" stroke="midnightblue" d="M538.67,-224.37C549.01,-215.55 565.26,-201.3 578.39,-188 593.96,-172.23 610.53,-153.03 621.77,-139.6"/>
<polygon fill="midnightblue" stroke="midnightblue" points="624.63,-141.63 628.32,-131.7 619.24,-137.16 624.63,-141.63"/>
</g>
<!-- Node22&#45;&gt;Node23 -->
<g id="edge28" class="edge">
<title>Node22&#45;&gt;Node23</title>
<path fill="none" stroke="midnightblue" d="M493.37,-224.44C455.14,-215.1 393.82,-200.12 352.13,-189.93"/>
<polygon fill="midnightblue" stroke="midnightblue" points="352.79,-186.49 342.25,-187.52 351.13,-193.29 352.79,-186.49"/>
</g>
<!-- Node23&#45;&gt;Node5 -->
<g id="edge29" class="edge">
<title>Node23&#45;&gt;Node5</title>
<path fill="none" stroke="midnightblue" d="M307.94,-168.37C309.07,-150.62 311.68,-109.67 313.21,-85.6"/>
<polygon fill="midnightblue" stroke="midnightblue" points="316.7,-85.79 313.84,-75.59 309.72,-85.35 316.7,-85.79"/>
</g>
<!-- Node23&#45;&gt;Node9 -->
<g id="edge35" class="edge">
<title>Node23&#45;&gt;Node9</title>
<path fill="none" stroke="midnightblue" d="M225.72,-176.19C147.3,-173.47 36.82,-163.88 9.39,-132 -25.68,-91.23 50.69,-45.71 94.86,-23.95"/>
<polygon fill="midnightblue" stroke="midnightblue" points="96.51,-27.04 104.01,-19.56 93.48,-20.73 96.51,-27.04"/>
</g>
<!-- Node23&#45;&gt;Node17 -->
<g id="edge37" class="edge">
<title>Node23&#45;&gt;Node17</title>
<path fill="none" stroke="midnightblue" d="M359.36,-168.44C427.75,-157.18 545.93,-137.73 602.87,-128.35"/>
<polygon fill="midnightblue" stroke="midnightblue" points="603.79,-131.75 613.08,-126.67 602.65,-124.84 603.79,-131.75"/>
</g>
<!-- Node23&#45;&gt;Node18 -->
<g id="edge39" class="edge">
<title>Node23&#45;&gt;Node18</title>
<path fill="none" stroke="midnightblue" d="M328.15,-168.44C349.71,-159.56 383.65,-145.56 408.18,-135.45"/>
<polygon fill="midnightblue" stroke="midnightblue" points="409.82,-138.56 417.73,-131.52 407.15,-132.09 409.82,-138.56"/>
</g>
<!-- Node23&#45;&gt;Node19 -->
<g id="edge36" class="edge">
<title>Node23&#45;&gt;Node19</title>
<path fill="none" stroke="midnightblue" d="M317.03,-168.32C325.9,-160.34 339.27,-148.31 350,-138.65"/>
<polygon fill="midnightblue" stroke="midnightblue" points="352.48,-141.13 357.58,-131.83 347.8,-135.92 352.48,-141.13"/>
</g>
<!-- Node24 -->
<g id="node24" class="node">
<title>Node24</title>
<g id="a_node24"><a xlink:href="MatrixView_8h.html" target="_top" xlink:title=" ">
<polygon fill="none" stroke="black" points="134.39,-112.5 134.39,-131.5 286.39,-131.5 286.39,-112.5 134.39,-112.5"/>
<text text-anchor="middle" x="210.39" y="-119.5" font-family="FreeSans.ttf" font-size="10.00">iDynTree/Core/MatrixView.h</text>
</a>
</g>
</g>
<!-- Node23&#45;&gt;Node24 -->
<g id="edge30" class="edge">
<title>Node23&#45;&gt;Node24</title>
<path fill="none" stroke="midnightblue" d="M291.81,-168.32C276.39,-159.74 252.58,-146.49 234.68,-136.52"/>
<polygon fill="midnightblue" stroke="midnightblue" points="236.38,-133.46 225.94,-131.65 232.97,-139.58 236.38,-133.46"/>
</g>
<!-- Node25 -->
<g id="node25" class="node">
<title>Node25</title>
<g id="a_node25"><a xlink:title=" ">
<polygon fill="none" stroke="#bfbfbf" points="18.39,-112.5 18.39,-131.5 78.39,-131.5 78.39,-112.5 18.39,-112.5"/>
<text text-anchor="middle" x="48.39" y="-119.5" font-family="FreeSans.ttf" font-size="10.00">iostream</text>
</a>
</g>
</g>
<!-- Node23&#45;&gt;Node25 -->
<g id="edge38" class="edge">
<title>Node23&#45;&gt;Node25</title>
<path fill="none" stroke="midnightblue" d="M266.35,-168.44C217.61,-158.28 136.85,-141.44 88.52,-131.37"/>
<polygon fill="midnightblue" stroke="midnightblue" points="89.22,-127.94 78.72,-129.32 87.79,-134.79 89.22,-127.94"/>
</g>
<!-- Node24&#45;&gt;Node5 -->
<g id="edge34" class="edge">
<title>Node24&#45;&gt;Node5</title>
<path fill="none" stroke="midnightblue" d="M227.1,-112.32C243.7,-103.7 269.39,-90.36 288.61,-80.39"/>
<polygon fill="midnightblue" stroke="midnightblue" points="290.46,-83.37 297.72,-75.65 287.23,-77.16 290.46,-83.37"/>
</g>
<!-- Node24&#45;&gt;Node8 -->
<g id="edge33" class="edge">
<title>Node24&#45;&gt;Node8</title>
<path fill="none" stroke="midnightblue" d="M270.92,-112.44C339.1,-102.81 449.75,-87.16 521.8,-76.98"/>
<polygon fill="midnightblue" stroke="midnightblue" points="522.73,-80.38 532.14,-75.52 521.75,-73.45 522.73,-80.38"/>
</g>
<!-- Node24&#45;&gt;Node9 -->
<g id="edge31" class="edge">
<title>Node24&#45;&gt;Node9</title>
<path fill="none" stroke="midnightblue" d="M203.56,-112.37C189.14,-94.14 155.36,-51.43 136.58,-27.68"/>
<polygon fill="midnightblue" stroke="midnightblue" points="139.13,-25.26 130.19,-19.59 133.64,-29.61 139.13,-25.26"/>
</g>
<!-- Node24&#45;&gt;Node15 -->
<g id="edge32" class="edge">
<title>Node24&#45;&gt;Node15</title>
<path fill="none" stroke="midnightblue" d="M210.7,-112.37C211.35,-94.62 212.84,-53.67 213.71,-29.6"/>
<polygon fill="midnightblue" stroke="midnightblue" points="217.21,-29.71 214.08,-19.59 210.22,-29.46 217.21,-29.71"/>
</g>
</g>
</svg>
