<?xml version="1.0" encoding="UTF-8" standalone="no"?>
<!-- Created with Inkscape (http://www.inkscape.org/) -->

<svg
   xmlns:dc="http://purl.org/dc/elements/1.1/"
   xmlns:cc="http://creativecommons.org/ns#"
   xmlns:rdf="http://www.w3.org/1999/02/22-rdf-syntax-ns#"
   xmlns:svg="http://www.w3.org/2000/svg"
   xmlns="http://www.w3.org/2000/svg"
   xmlns:sodipodi="http://sodipodi.sourceforge.net/DTD/sodipodi-0.dtd"
   xmlns:inkscape="http://www.inkscape.org/namespaces/inkscape"
   width="994.82147"
   height="651.94525"
   id="svg2"
   version="1.1"
   inkscape:version="0.48.4 r9939"
   sodipodi:docname="transform.svg">
  <sodipodi:namedview
     id="base"
     pagecolor="#ffffff"
     bordercolor="#666666"
     borderopacity="1.0"
     inkscape:pageopacity="0.0"
     inkscape:pageshadow="2"
     inkscape:zoom="0.50008185"
     inkscape:cx="169.75532"
     inkscape:cy="288.88991"
     inkscape:document-units="px"
     inkscape:current-layer="layer2"
     showgrid="false"
     inkscape:window-width="1366"
     inkscape:window-height="721"
     inkscape:window-x="0"
     inkscape:window-y="25"
     inkscape:window-maximized="1"
     fit-margin-top="0"
     fit-margin-left="0"
     fit-margin-right="0"
     fit-margin-bottom="0" />
  <defs
     id="defs4">
    <marker
       inkscape:stockid="Arrow2Mend"
       orient="auto"
       refY="0"
       refX="0"
       id="Arrow2Mend"
       style="overflow:visible">
      <path
         id="path3819"
         style="fill-rule:evenodd;stroke-width:0.625;stroke-linejoin:round"
         d="M 8.7185878,4.0337352 -2.2072895,0.01601326 8.7185884,-4.0017078 c -1.7454984,2.3720609 -1.7354408,5.6174519 -6e-7,8.035443 z"
         transform="scale(-0.6,-0.6)"
         inkscape:connector-curvature="0" />
    </marker>
    <marker
       inkscape:stockid="Arrow1Mend"
       orient="auto"
       refY="0"
       refX="0"
       id="Arrow1Mend"
       style="overflow:visible">
      <path
         id="path3801"
         d="M 0,0 5,-5 -12.5,0 5,5 0,0 z"
         style="fill-rule:evenodd;stroke:#000000;stroke-width:1pt"
         transform="matrix(-0.4,0,0,-0.4,-4,0)"
         inkscape:connector-curvature="0" />
    </marker>
    <marker
       inkscape:stockid="Arrow1Lend"
       orient="auto"
       refY="0"
       refX="0"
       id="Arrow1Lend"
       style="overflow:visible">
      <path
         id="path3795"
         d="M 0,0 5,-5 -12.5,0 5,5 0,0 z"
         style="fill-rule:evenodd;stroke:#000000;stroke-width:1pt"
         transform="matrix(-0.8,0,0,-0.8,-10,0)"
         inkscape:connector-curvature="0" />
    </marker>
    <marker
       inkscape:stockid="Arrow1Mstart"
       orient="auto"
       refY="0"
       refX="0"
       id="Arrow1Mstart"
       style="overflow:visible">
      <path
         id="path3798"
         d="M 0,0 5,-5 -12.5,0 5,5 0,0 z"
         style="fill-rule:evenodd;stroke:#000000;stroke-width:1pt"
         transform="matrix(0.4,0,0,0.4,4,0)"
         inkscape:connector-curvature="0" />
    </marker>
    <marker
       inkscape:stockid="Arrow1Lstart"
       orient="auto"
       refY="0"
       refX="0"
       id="Arrow1Lstart"
       style="overflow:visible">
      <path
         id="path3792"
         d="M 0,0 5,-5 -12.5,0 5,5 0,0 z"
         style="fill-rule:evenodd;stroke:#000000;stroke-width:1pt"
         transform="matrix(0.8,0,0,0.8,10,0)"
         inkscape:connector-curvature="0" />
    </marker>
    <marker
       inkscape:stockid="Arrow2Lend"
       orient="auto"
       refY="0"
       refX="0"
       id="Arrow2Lend"
       style="overflow:visible">
      <path
         id="path3813"
         style="fill-rule:evenodd;stroke-width:0.625;stroke-linejoin:round"
         d="M 8.7185878,4.0337352 -2.2072895,0.01601326 8.7185884,-4.0017078 c -1.7454984,2.3720609 -1.7354408,5.6174519 -6e-7,8.035443 z"
         transform="matrix(-1.1,0,0,-1.1,-1.1,0)"
         inkscape:connector-curvature="0" />
    </marker>
    <marker
       inkscape:stockid="Arrow2Lend"
       orient="auto"
       refY="0"
       refX="0"
       id="Arrow2Lend-7"
       style="overflow:visible">
      <path
         inkscape:connector-curvature="0"
         id="path3813-5"
         style="fill-rule:evenodd;stroke-width:0.625;stroke-linejoin:round"
         d="M 8.7185878,4.0337352 -2.2072895,0.01601326 8.7185884,-4.0017078 c -1.7454984,2.3720609 -1.7354408,5.6174519 -6e-7,8.035443 z"
         transform="matrix(-1.1,0,0,-1.1,-1.1,0)" />
    </marker>
    <marker
       inkscape:stockid="Arrow2Lend"
       orient="auto"
       refY="0"
       refX="0"
       id="Arrow2Lend-9"
       style="overflow:visible">
      <path
         inkscape:connector-curvature="0"
         id="path3813-54"
         style="fill-rule:evenodd;stroke-width:0.625;stroke-linejoin:round"
         d="M 8.7185878,4.0337352 -2.2072895,0.01601326 8.7185884,-4.0017078 c -1.7454984,2.3720609 -1.7354408,5.6174519 -6e-7,8.035443 z"
         transform="matrix(-1.1,0,0,-1.1,-1.1,0)" />
    </marker>
    <marker
       inkscape:stockid="Arrow1Mend"
       orient="auto"
       refY="0"
       refX="0"
       id="Arrow1Mend-0"
       style="overflow:visible">
      <path
         inkscape:connector-curvature="0"
         id="path3801-7"
         d="M 0,0 5,-5 -12.5,0 5,5 0,0 z"
         style="fill-rule:evenodd;stroke:#000000;stroke-width:1pt"
         transform="matrix(-0.4,0,0,-0.4,-4,0)" />
    </marker>
    <marker
       inkscape:stockid="Arrow1Mstart"
       orient="auto"
       refY="0"
       refX="0"
       id="Arrow1Mstart-8"
       style="overflow:visible">
      <path
         inkscape:connector-curvature="0"
         id="path3798-4"
         d="M 0,0 5,-5 -12.5,0 5,5 0,0 z"
         style="fill-rule:evenodd;stroke:#000000;stroke-width:1pt"
         transform="matrix(0.4,0,0,0.4,4,0)" />
    </marker>
    <marker
       inkscape:stockid="Arrow1Mend"
       orient="auto"
       refY="0"
       refX="0"
       id="marker3090"
       style="overflow:visible">
      <path
         inkscape:connector-curvature="0"
         id="path3092"
         d="M 0,0 5,-5 -12.5,0 5,5 0,0 z"
         style="fill-rule:evenodd;stroke:#000000;stroke-width:1pt"
         transform="matrix(-0.4,0,0,-0.4,-4,0)" />
    </marker>
    <marker
       inkscape:stockid="Arrow2Lend"
       orient="auto"
       refY="0"
       refX="0"
       id="Arrow2Lend-2"
       style="overflow:visible">
      <path
         inkscape:connector-curvature="0"
         id="path3813-3"
         style="fill-rule:evenodd;stroke-width:0.625;stroke-linejoin:round"
         d="M 8.7185878,4.0337352 -2.2072895,0.01601326 8.7185884,-4.0017078 c -1.7454984,2.3720609 -1.7354408,5.6174519 -6e-7,8.035443 z"
         transform="matrix(-1.1,0,0,-1.1,-1.1,0)" />
    </marker>
    <marker
       inkscape:stockid="Arrow1Mend"
       orient="auto"
       refY="0"
       refX="0"
       id="Arrow1Mend-9"
       style="overflow:visible">
      <path
         id="path3801-5"
         d="M 0,0 5,-5 -12.5,0 5,5 0,0 z"
         style="fill-rule:evenodd;stroke:#000000;stroke-width:1pt"
         transform="matrix(-0.4,0,0,-0.4,-4,0)"
         inkscape:connector-curvature="0" />
    </marker>
    <marker
       inkscape:stockid="Arrow1Mstart"
       orient="auto"
       refY="0"
       refX="0"
       id="Arrow1Mstart-1"
       style="overflow:visible">
      <path
         id="path3798-0"
         d="M 0,0 5,-5 -12.5,0 5,5 0,0 z"
         style="fill-rule:evenodd;stroke:#000000;stroke-width:1pt"
         transform="matrix(0.4,0,0,0.4,4,0)"
         inkscape:connector-curvature="0" />
    </marker>
    <marker
       inkscape:stockid="Arrow1Mend"
       orient="auto"
       refY="0"
       refX="0"
       id="marker3124"
       style="overflow:visible">
      <path
         id="path3126"
         d="M 0,0 5,-5 -12.5,0 5,5 0,0 z"
         style="fill-rule:evenodd;stroke:#000000;stroke-width:1pt"
         transform="matrix(-0.4,0,0,-0.4,-4,0)"
         inkscape:connector-curvature="0" />
    </marker>
    <marker
       inkscape:stockid="Arrow1Mstart"
       orient="auto"
       refY="0"
       refX="0"
       id="Arrow1Mstart-1-0"
       style="overflow:visible">
      <path
         id="path3798-0-4"
         d="M 0,0 5,-5 -12.5,0 5,5 0,0 z"
         style="fill-rule:evenodd;stroke:#000000;stroke-width:1pt"
         transform="matrix(0.4,0,0,0.4,4,0)"
         inkscape:connector-curvature="0" />
    </marker>
    <marker
       inkscape:stockid="Arrow1Mend"
       orient="auto"
       refY="0"
       refX="0"
       id="Arrow1Mend-2"
       style="overflow:visible">
      <path
         id="path3801-8"
         d="M 0,0 5,-5 -12.5,0 5,5 0,0 z"
         style="fill-rule:evenodd;stroke:#000000;stroke-width:1pt"
         transform="matrix(-0.4,0,0,-0.4,-4,0)"
         inkscape:connector-curvature="0" />
    </marker>
    <marker
       inkscape:stockid="Arrow1Mend"
       orient="auto"
       refY="0"
       refX="0"
       id="Arrow1Mend-5"
       style="overflow:visible">
      <path
         id="path3801-56"
         d="M 0,0 5,-5 -12.5,0 5,5 0,0 z"
         style="fill-rule:evenodd;stroke:#000000;stroke-width:1pt"
         transform="matrix(-0.4,0,0,-0.4,-4,0)"
         inkscape:connector-curvature="0" />
    </marker>
    <marker
       inkscape:stockid="Arrow1Mstart"
       orient="auto"
       refY="0"
       refX="0"
       id="Arrow1Mstart-1-7"
       style="overflow:visible">
      <path
         id="path3798-0-0"
         d="M 0,0 5,-5 -12.5,0 5,5 0,0 z"
         style="fill-rule:evenodd;stroke:#000000;stroke-width:1pt"
         transform="matrix(0.4,0,0,0.4,4,0)"
         inkscape:connector-curvature="0" />
    </marker>
    <marker
       inkscape:stockid="Arrow1Mend"
       orient="auto"
       refY="0"
       refX="0"
       id="Arrow1Mend-92"
       style="overflow:visible">
      <path
         id="path3801-1"
         d="M 0,0 5,-5 -12.5,0 5,5 0,0 z"
         style="fill-rule:evenodd;stroke:#000000;stroke-width:1pt"
         transform="matrix(-0.4,0,0,-0.4,-4,0)"
         inkscape:connector-curvature="0" />
    </marker>
    <marker
       inkscape:stockid="Arrow1Mend"
       orient="auto"
       refY="0"
       refX="0"
       id="Arrow1Mend-8"
       style="overflow:visible">
      <path
         id="path3801-0"
         d="M 0,0 5,-5 -12.5,0 5,5 0,0 z"
         style="fill-rule:evenodd;stroke:#000000;stroke-width:1pt"
         transform="matrix(-0.4,0,0,-0.4,-4,0)"
         inkscape:connector-curvature="0" />
    </marker>
    <marker
       inkscape:stockid="Arrow1Mstart"
       orient="auto"
       refY="0"
       refX="0"
       id="Arrow1Mstart-1-08"
       style="overflow:visible">
      <path
         id="path3798-0-09"
         d="M 0,0 5,-5 -12.5,0 5,5 0,0 z"
         style="fill-rule:evenodd;stroke:#000000;stroke-width:1pt"
         transform="matrix(0.4,0,0,0.4,4,0)"
         inkscape:connector-curvature="0" />
    </marker>
    <marker
       inkscape:stockid="Arrow1Mend"
       orient="auto"
       refY="0"
       refX="0"
       id="marker5662"
       style="overflow:visible">
      <path
         id="path5664"
         d="M 0,0 5,-5 -12.5,0 5,5 0,0 z"
         style="fill-rule:evenodd;stroke:#000000;stroke-width:1pt"
         transform="matrix(-0.4,0,0,-0.4,-4,0)"
         inkscape:connector-curvature="0" />
    </marker>
    <marker
       inkscape:stockid="Arrow1Mend"
       orient="auto"
       refY="0"
       refX="0"
       id="Arrow1Mend-86"
       style="overflow:visible">
      <path
         id="path3801-3"
         d="M 0,0 5,-5 -12.5,0 5,5 0,0 z"
         style="fill-rule:evenodd;stroke:#000000;stroke-width:1pt"
         transform="matrix(-0.4,0,0,-0.4,-4,0)"
         inkscape:connector-curvature="0" />
    </marker>
    <marker
       inkscape:stockid="Arrow1Mend"
       orient="auto"
       refY="0"
       refX="0"
       id="Arrow1Mend-4"
       style="overflow:visible">
      <path
         id="path3801-09"
         d="M 0,0 5,-5 -12.5,0 5,5 0,0 z"
         style="fill-rule:evenodd;stroke:#000000;stroke-width:1pt"
         transform="matrix(-0.4,0,0,-0.4,-4,0)"
         inkscape:connector-curvature="0" />
    </marker>
    <marker
       inkscape:stockid="Arrow1Mend"
       orient="auto"
       refY="0"
       refX="0"
       id="Arrow1Mend-7"
       style="overflow:visible">
      <path
         id="path3801-73"
         d="M 0,0 5,-5 -12.5,0 5,5 0,0 z"
         style="fill-rule:evenodd;stroke:#000000;stroke-width:1pt"
         transform="matrix(-0.4,0,0,-0.4,-4,0)"
         inkscape:connector-curvature="0" />
    </marker>
    <marker
       inkscape:stockid="Arrow1Mend"
       orient="auto"
       refY="0"
       refX="0"
       id="Arrow1Mend-48"
       style="overflow:visible">
      <path
         id="path3801-6"
         d="M 0,0 5,-5 -12.5,0 5,5 0,0 z"
         style="fill-rule:evenodd;stroke:#000000;stroke-width:1pt"
         transform="matrix(-0.4,0,0,-0.4,-4,0)"
         inkscape:connector-curvature="0" />
    </marker>
    <marker
       inkscape:stockid="Arrow1Mstart"
       orient="auto"
       refY="0"
       refX="0"
       id="Arrow1Mstart-1-8"
       style="overflow:visible">
      <path
         id="path3798-0-5"
         d="M 0,0 5,-5 -12.5,0 5,5 0,0 z"
         style="fill-rule:evenodd;stroke:#000000;stroke-width:1pt"
         transform="matrix(0.4,0,0,0.4,4,0)"
         inkscape:connector-curvature="0" />
    </marker>
    <marker
       inkscape:stockid="Arrow1Mend"
       orient="auto"
       refY="0"
       refX="0"
       id="marker5765"
       style="overflow:visible">
      <path
         id="path5767"
         d="M 0,0 5,-5 -12.5,0 5,5 0,0 z"
         style="fill-rule:evenodd;stroke:#000000;stroke-width:1pt"
         transform="matrix(-0.4,0,0,-0.4,-4,0)"
         inkscape:connector-curvature="0" />
    </marker>
    <marker
       inkscape:stockid="Arrow2Lend"
       orient="auto"
       refY="0"
       refX="0"
       id="Arrow2Lend-95"
       style="overflow:visible">
      <path
         id="path3813-8"
         style="fill-rule:evenodd;stroke-width:0.625;stroke-linejoin:round"
         d="M 8.7185878,4.0337352 -2.2072895,0.01601326 8.7185884,-4.0017078 c -1.7454984,2.3720609 -1.7354408,5.6174519 -6e-7,8.035443 z"
         transform="matrix(-1.1,0,0,-1.1,-1.1,0)"
         inkscape:connector-curvature="0" />
    </marker>
    <marker
       inkscape:stockid="Arrow2Lend"
       orient="auto"
       refY="0"
       refX="0"
       id="Arrow2Lend-4"
       style="overflow:visible">
      <path
         id="path3813-4"
         style="fill-rule:evenodd;stroke-width:0.625;stroke-linejoin:round"
         d="M 8.7185878,4.0337352 -2.2072895,0.01601326 8.7185884,-4.0017078 c -1.7454984,2.3720609 -1.7354408,5.6174519 -6e-7,8.035443 z"
         transform="matrix(-1.1,0,0,-1.1,-1.1,0)"
         inkscape:connector-curvature="0" />
    </marker>
    <marker
       inkscape:stockid="Arrow1Mend"
       orient="auto"
       refY="0"
       refX="0"
       id="Arrow1Mend-82"
       style="overflow:visible">
      <path
         id="path3801-2"
         d="M 0,0 5,-5 -12.5,0 5,5 0,0 z"
         style="fill-rule:evenodd;stroke:#000000;stroke-width:1pt"
         transform="matrix(-0.4,0,0,-0.4,-4,0)"
         inkscape:connector-curvature="0" />
    </marker>
    <marker
       inkscape:stockid="Arrow1Mstart"
       orient="auto"
       refY="0"
       refX="0"
       id="Arrow1Mstart-1-4"
       style="overflow:visible">
      <path
         id="path3798-0-06"
         d="M 0,0 5,-5 -12.5,0 5,5 0,0 z"
         style="fill-rule:evenodd;stroke:#000000;stroke-width:1pt"
         transform="matrix(0.4,0,0,0.4,4,0)"
         inkscape:connector-curvature="0" />
    </marker>
    <marker
       inkscape:stockid="Arrow1Mend"
       orient="auto"
       refY="0"
       refX="0"
       id="marker9937"
       style="overflow:visible">
      <path
         id="path9939"
         d="M 0,0 5,-5 -12.5,0 5,5 0,0 z"
         style="fill-rule:evenodd;stroke:#000000;stroke-width:1pt"
         transform="matrix(-0.4,0,0,-0.4,-4,0)"
         inkscape:connector-curvature="0" />
    </marker>
    <marker
       inkscape:stockid="Arrow1Mend"
       orient="auto"
       refY="0"
       refX="0"
       id="marker9941"
       style="overflow:visible">
      <path
         id="path9943"
         d="M 0,0 5,-5 -12.5,0 5,5 0,0 z"
         style="fill-rule:evenodd;stroke:#000000;stroke-width:1pt"
         transform="matrix(-0.4,0,0,-0.4,-4,0)"
         inkscape:connector-curvature="0" />
    </marker>
    <marker
       inkscape:stockid="Arrow1Mstart"
       orient="auto"
       refY="0"
       refX="0"
       id="marker9945"
       style="overflow:visible">
      <path
         id="path9947"
         d="M 0,0 5,-5 -12.5,0 5,5 0,0 z"
         style="fill-rule:evenodd;stroke:#000000;stroke-width:1pt"
         transform="matrix(0.4,0,0,0.4,4,0)"
         inkscape:connector-curvature="0" />
    </marker>
    <marker
       inkscape:stockid="Arrow1Mend"
       orient="auto"
       refY="0"
       refX="0"
       id="marker9949"
       style="overflow:visible">
      <path
         id="path9951"
         d="M 0,0 5,-5 -12.5,0 5,5 0,0 z"
         style="fill-rule:evenodd;stroke:#000000;stroke-width:1pt"
         transform="matrix(-0.4,0,0,-0.4,-4,0)"
         inkscape:connector-curvature="0" />
    </marker>
  </defs>
  <metadata
     id="metadata7">
    <rdf:RDF>
      <cc:Work
         rdf:about="">
        <dc:format>image/svg+xml</dc:format>
        <dc:type
           rdf:resource="http://purl.org/dc/dcmitype/StillImage" />
        <dc:title></dc:title>
      </cc:Work>
    </rdf:RDF>
  </metadata>
  <g
     inkscape:groupmode="layer"
     id="layer3"
     inkscape:label="Layer#1"
     transform="translate(60.45303,-171.36907)" />
  <g
     inkscape:label="Layer 1"
     inkscape:groupmode="layer"
     id="layer1"
     transform="translate(60.45303,-171.36907)" />
  <g
     inkscape:groupmode="layer"
     id="layer2"
     inkscape:label="Layer"
     transform="translate(60.45303,-171.36907)">
    <path
       style="fill:none;stroke:#0000ff;stroke-width:6.81844425;stroke-linecap:butt;stroke-linejoin:round;stroke-miterlimit:4;stroke-opacity:1;stroke-dasharray:none"
       d="m -1042.8007,705.61165 c -194.8329,-88.73608 213.21315,-222.6469 334.52408,-150.04464 127.50555,119.58232 -67.66618,205.1184 -334.52408,150.04464 z"
       id="path3008-2"
       inkscape:connector-curvature="0"
       sodipodi:nodetypes="ccc" />
    <path
       sodipodi:type="arc"
       style="fill:#0000ff;fill-opacity:1;stroke:#0000ff;stroke-width:4;stroke-linejoin:round;stroke-miterlimit:4;stroke-opacity:1;stroke-dasharray:none"
       id="path4414-1"
       sodipodi:cx="205.71428"
       sodipodi:cy="535.93359"
       sodipodi:rx="7.1428571"
       sodipodi:ry="7.8571429"
       d="m 212.85714,535.93359 c 0,4.33938 -3.19797,7.85715 -7.14286,7.85715 -3.94489,0 -7.14286,-3.51777 -7.14286,-7.85715 0,-4.33938 3.19797,-7.85714 7.14286,-7.85714 3.94489,0 7.14286,3.51776 7.14286,7.85714 z"
       transform="matrix(1,0,0,-1,-1107.3531,1151.0457)" />
    <path
       sodipodi:type="arc"
       style="fill:#ff0000;fill-opacity:1;stroke:#ff0000;stroke-width:4;stroke-linejoin:round;stroke-miterlimit:4;stroke-opacity:1;stroke-dasharray:none"
       id="path4414-5-6"
       sodipodi:cx="205.71428"
       sodipodi:cy="535.93359"
       sodipodi:rx="7.1428571"
       sodipodi:ry="7.8571429"
       d="m 212.85714,535.93359 c 0,4.33938 -3.19797,7.85715 -7.14286,7.85715 -3.94489,0 -7.14286,-3.51777 -7.14286,-7.85715 0,-4.33938 3.19797,-7.85714 7.14286,-7.85714 3.94489,0 7.14286,3.51776 7.14286,7.85714 z"
       transform="matrix(1,0,0,-1,-751.95135,898.0617)" />
    <path
       style="fill:none;stroke:#ff0000;stroke-width:6.21084976;stroke-linecap:butt;stroke-linejoin:round;stroke-miterlimit:4;stroke-opacity:1;stroke-dasharray:none"
       d="M -581.45677,421.50183 C -737.44286,270.07635 -410.75506,41.561523 -313.63165,165.45511 -211.54873,369.51877 -367.80624,515.48354 -581.45677,421.50183 z"
       id="path3008-6-7"
       inkscape:connector-curvature="0"
       sodipodi:nodetypes="ccc" />
    <flowRoot
       xml:space="preserve"
       id="flowRoot4466-3"
       style="font-size:40px;font-style:normal;font-weight:normal;line-height:125%;letter-spacing:0px;word-spacing:0px;fill:#000000;fill-opacity:1;stroke:none;font-family:Sans"
       transform="translate(-1200.7683,28.044434)"><flowRegion
         id="flowRegion4468-3"><rect
           id="rect4470-6"
           width="255.71428"
           height="51.42857"
           x="77.14286"
           y="702.36218" /></flowRegion><flowPara
         id="flowPara4472-9"
         style="fill:#0000ff">refBody</flowPara></flowRoot>    <flowRoot
       transform="translate(-355.1479,-570.28908)"
       xml:space="preserve"
       id="flowRoot4466-7-9"
       style="font-size:40px;font-style:normal;font-weight:normal;line-height:125%;letter-spacing:0px;word-spacing:0px;fill:#000000;fill-opacity:1;stroke:none;font-family:Sans"><flowRegion
         id="flowRegion4468-6-36"><rect
           id="rect4470-9-3"
           width="255.71428"
           height="51.42857"
           x="77.14286"
           y="702.36218" /></flowRegion><flowPara
         id="flowPara4472-0-4"
         style="fill:#ff0000">body</flowPara></flowRoot>    <flowRoot
       transform="translate(-620.17973,-331.34352)"
       xml:space="preserve"
       id="flowRoot4466-7-1-6"
       style="font-size:40px;font-style:normal;font-weight:normal;line-height:125%;letter-spacing:0px;word-spacing:0px;fill:#000000;fill-opacity:1;stroke:none;font-family:Sans"><flowRegion
         id="flowRegion4468-6-7-7"><rect
           id="rect4470-9-2-0"
           width="255.71428"
           height="51.42857"
           x="77.14286"
           y="702.36218" /></flowRegion><flowPara
         id="flowPara4472-0-2-6"
         style="fill:#ff0000">point</flowPara></flowRoot>    <flowRoot
       transform="translate(-959.32417,-95.193806)"
       xml:space="preserve"
       id="flowRoot4466-7-6-3"
       style="font-size:40px;font-style:normal;font-weight:normal;line-height:125%;letter-spacing:0px;word-spacing:0px;fill:#000000;fill-opacity:1;stroke:none;font-family:Sans"><flowRegion
         id="flowRegion4468-6-3-5"><rect
           id="rect4470-9-7-0"
           width="255.71428"
           height="51.42857"
           x="77.14286"
           y="702.36218" /></flowRegion><flowPara
         id="flowPara4472-0-1-5"
         style="fill:#0000ff">refPoint</flowPara><flowPara
         style="fill:#ff0000"
         id="flowPara4567-6" /></flowRoot>    <flowRoot
       transform="translate(-1252.2545,-283.57029)"
       xml:space="preserve"
       id="flowRoot4466-7-0-3"
       style="font-size:40px;font-style:normal;font-weight:normal;line-height:125%;letter-spacing:0px;word-spacing:0px;fill:#000000;fill-opacity:1;stroke:none;font-family:Sans"><flowRegion
         id="flowRegion4468-6-30-0"><rect
           id="rect4470-9-75-7"
           width="266.56052"
           height="153.26448"
           x="77.14286"
           y="702.36218" /></flowRegion><flowPara
         id="flowPara4472-0-7-4"
         style="fill:#000000">coordFrame </flowPara><flowPara
         style="fill:#000000"
         id="flowPara5821">        =</flowPara><flowPara
         style="fill:#0000ff"
         id="flowPara5819"> refOrient</flowPara></flowRoot>    <path
       style="fill:none;stroke:#ff0000;stroke-width:4.03900003;stroke-linecap:butt;stroke-linejoin:miter;stroke-miterlimit:4;stroke-opacity:1;stroke-dasharray:none;marker-start:url(#Arrow1Mstart-1);marker-end:url(#Arrow1Mend)"
       d="m -548.76943,252.53087 c 0,108.73675 0,109.84632 0,109.84632 l 103.79956,0"
       id="path4607-5"
       inkscape:connector-curvature="0" />
    <path
       style="fill:#ff0000;stroke:#ff0000;stroke-width:4;stroke-linecap:butt;stroke-linejoin:miter;stroke-miterlimit:4;stroke-opacity:1;stroke-dasharray:none;marker-end:url(#Arrow1Mend)"
       d="m -550.46538,364.32291 c 91.28878,-90.28828 91.28878,-90.28828 91.28878,-90.28828"
       id="path3018-7-0"
       inkscape:connector-curvature="0" />
    <path
       sodipodi:type="arc"
       style="fill:#0000ff;fill-opacity:1;stroke:#0000ff;stroke-width:4;stroke-linejoin:round;stroke-miterlimit:4;stroke-opacity:1;stroke-dasharray:none"
       id="path4414-5-6-6"
       sodipodi:cx="205.71428"
       sodipodi:cy="535.93359"
       sodipodi:rx="7.1428571"
       sodipodi:ry="7.8571429"
       d="m 212.85714,535.93359 c 0,4.33938 -3.19797,7.85715 -7.14286,7.85715 -3.94489,0 -7.14286,-3.51777 -7.14286,-7.85715 0,-4.33938 3.19797,-7.85714 7.14286,-7.85714 3.94489,0 7.14286,3.51776 7.14286,7.85714 z"
       transform="matrix(0.88133924,-0.47248401,-0.47248401,-0.88133924,-829.88401,1185.519)" />
    <path
       style="fill:none;stroke:#0000ff;stroke-width:4.05776119;stroke-linecap:butt;stroke-linejoin:miter;stroke-miterlimit:4;stroke-opacity:1;stroke-dasharray:none;marker-start:url(#Arrow1Mstart-1);marker-end:url(#Arrow1Mend)"
       d="m -955.79687,520.59598 c 51.86457,95.81587 52.3938,96.79359 52.3938,96.79359 l 92.35191,-49.03437"
       id="path4607-5-7"
       inkscape:connector-curvature="0" />
    <path
       style="fill:#000000;fill-opacity:1;stroke:#0000ff;stroke-width:3.70470834;stroke-linecap:butt;stroke-linejoin:miter;stroke-miterlimit:4;stroke-opacity:1;stroke-dasharray:none;marker-end:url(#Arrow1Mend)"
       d="m -904.63719,620.06275 c 33.86841,-117.467 33.86841,-117.467 33.86841,-117.467"
       id="path3018-7-0-7"
       inkscape:connector-curvature="0" />
    <path
       style="fill:none;stroke:#000000;stroke-width:5.21500015;stroke-linecap:butt;stroke-linejoin:miter;stroke-miterlimit:4;stroke-opacity:1;stroke-dasharray:none;marker-end:url(#Arrow2Lend)"
       d="M -898.21213,609.69596 C -552.22006,367.90934 -552.22006,367.90934 -552.22006,367.90934"
       id="path3018-8-1"
       inkscape:connector-curvature="0" />
    <flowRoot
       transform="translate(-619.26484,-490.74141)"
       xml:space="preserve"
       id="flowRoot4466-7-1-6-5"
       style="font-size:40px;font-style:normal;font-weight:normal;line-height:125%;letter-spacing:0px;word-spacing:0px;fill:#000000;fill-opacity:1;stroke:none;font-family:Sans"><flowRegion
         id="flowRegion4468-6-7-7-8"><rect
           id="rect4470-9-2-0-2"
           width="255.71428"
           height="51.42857"
           x="77.14286"
           y="702.36218" /></flowRegion><flowPara
         id="flowPara4472-0-2-6-7"
         style="fill:#ff0000">orient</flowPara></flowRoot>    <path
       style="font-size:medium;font-style:normal;font-variant:normal;font-weight:normal;font-stretch:normal;text-indent:0;text-align:start;text-decoration:none;line-height:normal;letter-spacing:normal;word-spacing:normal;text-transform:none;direction:ltr;block-progression:tb;writing-mode:lr-tb;text-anchor:start;baseline-shift:baseline;color:#000000;fill:#0000ff;fill-opacity:1;stroke:none;stroke-width:6.81844425;marker:none;visibility:visible;display:inline;overflow:visible;enable-background:accumulate;font-family:Sans;-inkscape-font-specification:Sans"
       d="m 313.8125,576.125 c -12.46462,-0.2415 -25.37018,0.15432 -38.53125,1.09375 -52.64429,3.75771 -109.17491,16.4932 -155.9375,34.375 -46.762594,17.8818 -83.899254,40.54124 -97.5,66.03125 -6.800373,12.745 -7.28028,26.62297 0.53125,39.5625 7.81153,12.93953 23.356962,24.96668 48.0625,36.21875 a 3.409563,3.409563 0 0 0 0.71875,0.25 c 133.93224,27.64075 249.86103,20.20716 317.21875,-9.75 33.67886,-14.97858 55.58106,-35.87479 60.40625,-61.375 4.82519,-25.50021 -7.75289,-54.41881 -40.09375,-84.75 a 3.409563,3.409563 0 0 0 -0.5625,-0.4375 C 384.54002,583.22859 351.20635,576.84949 313.8125,576.125 z m -0.125,6.875 c 36.5303,0.77518 68.72352,7.03758 90.625,20.03125 31.17803,29.34635 41.98415,55.8733 37.75,78.25 -4.24788,22.44927 -23.93564,41.93724 -56.46875,56.40625 -65.00483,28.91071 -179.92095,36.68446 -312.6875,9.34375 -23.77065,-10.87977 -38.031617,-22.34976 -44.6875,-33.375 -6.691815,-11.08476 -6.294801,-21.65926 -0.34375,-32.8125 11.902103,-22.30647 47.847578,-45.26237 93.90625,-62.875 C 167.83992,600.35612 223.85548,587.70419 275.75,584 c 12.97363,-0.92605 25.70698,-1.25953 37.9375,-1 z"
       id="path3008-2-6"
       inkscape:connector-curvature="0" />
    <path
       style="font-size:medium;font-style:normal;font-variant:normal;font-weight:normal;font-stretch:normal;text-indent:0;text-align:start;text-decoration:none;line-height:normal;letter-spacing:normal;word-spacing:normal;text-transform:none;direction:ltr;block-progression:tb;writing-mode:lr-tb;text-anchor:start;baseline-shift:baseline;color:#000000;fill:#0000ff;fill-opacity:1;fill-rule:nonzero;stroke:none;stroke-width:4;marker:none;visibility:visible;display:inline;overflow:visible;enable-background:accumulate;font-family:Sans;-inkscape-font-specification:Sans"
       d="m 213.01087,669.6878 c -5.13386,0 -9.15625,-4.553 -9.15625,-9.875 0,-5.322 4.02239,-9.84375 9.15625,-9.84375 5.13386,0 9.125,4.52175 9.125,9.84375 0,5.322 -3.99114,9.875 -9.125,9.875 z m 0,-4 c 2.75592,0 5.125,-2.51824 5.125,-5.875 0,-3.35676 -2.36908,-5.84375 -5.125,-5.84375 -2.75592,0 -5.15625,2.48699 -5.15625,5.84375 0,3.35676 2.40033,5.875 5.15625,5.875 z"
       id="path4414-1-0"
       inkscape:connector-curvature="0" />
    <path
       style="font-size:medium;font-style:normal;font-variant:normal;font-weight:normal;font-stretch:normal;text-indent:0;text-align:start;text-decoration:none;line-height:normal;letter-spacing:normal;word-spacing:normal;text-transform:none;direction:ltr;block-progression:tb;writing-mode:lr-tb;text-anchor:start;baseline-shift:baseline;color:#000000;fill:#ff0000;fill-opacity:1;fill-rule:nonzero;stroke:none;stroke-width:4;marker:none;visibility:visible;display:inline;overflow:visible;enable-background:accumulate;font-family:Sans;-inkscape-font-specification:Sans"
       d="m 568.41265,416.7038 c -5.13386,0 -9.15625,-4.553 -9.15625,-9.875 0,-5.322 4.02239,-9.84375 9.15625,-9.84375 5.13386,0 9.125,4.52175 9.125,9.84375 0,5.322 -3.99114,9.875 -9.125,9.875 z m 0,-4 c 2.75592,0 5.125,-2.51824 5.125,-5.875 0,-3.35676 -2.36908,-5.84375 -5.125,-5.84375 -2.75592,0 -5.15625,2.48699 -5.15625,5.84375 0,3.35676 2.40033,5.875 5.15625,5.875 z"
       id="path4414-5-6-3"
       inkscape:connector-curvature="0" />
    <path
       style="font-size:medium;font-style:normal;font-variant:normal;font-weight:normal;font-stretch:normal;text-indent:0;text-align:start;text-decoration:none;line-height:normal;letter-spacing:normal;word-spacing:normal;text-transform:none;direction:ltr;block-progression:tb;writing-mode:lr-tb;text-anchor:start;baseline-shift:baseline;color:#000000;fill:#ff0000;fill-opacity:1;stroke:none;stroke-width:6.21084976;marker:none;visibility:visible;display:inline;overflow:visible;enable-background:accumulate;font-family:Sans;-inkscape-font-specification:Sans"
       d="M 727.46875,171.53125 C 596.29607,165.241 402.11895,343.29424 531.03125,468.4375 a 3.1057354,3.1057354 0 0 0 0.90625,0.625 c 107.62307,47.3418 201.5625,34.46435 255.6875,-16.84375 54.125,-51.3081 67.61389,-140.57372 16.15625,-243.4375 a 3.1057354,3.1057354 0 0 0 -0.3125,-0.53125 c -18.81624,-24.00257 -45.72938,-35.26715 -76,-36.71875 z m -1.1875,6.5625 c 28.94405,1.10958 54.49415,11.45121 72.09375,33.75 50.45907,101.07719 36.84745,186.69467 -15,235.84375 -51.80801,49.11169 -142.60857,62.26599 -248.40625,15.90625 -123.78362,-120.89869 65.58904,-290.31967 191.3125,-285.5 z"
       id="path3008-6-7-3"
       inkscape:connector-curvature="0" />
    <g
       transform="translate(-86.123083,72.749026)"
       style="font-size:40px;font-style:normal;font-weight:normal;line-height:125%;letter-spacing:0px;word-spacing:0px;fill:#000000;fill-opacity:1;stroke:none;font-family:Sans"
       id="flowRoot4466-3-9">
      <path
         d="m 93.601562,723.72934 c -0.403661,-0.23435 -0.846369,-0.40363 -1.328125,-0.50781 -0.468764,-0.11717 -0.989597,-0.17576 -1.5625,-0.17578 -2.031261,2e-5 -3.593759,0.66408 -4.6875,1.99219 -1.080736,1.31512 -1.6211,3.20964 -1.621093,5.68359 l 0,11.52344 -3.613282,0 0,-21.875 3.613282,0 0,3.39843 c 0.7552,-1.3281 1.738272,-2.31117 2.949218,-2.94921 1.210927,-0.65102 2.682279,-0.97654 4.414063,-0.97657 0.247381,3e-5 0.520818,0.0196 0.820312,0.0586 0.299464,0.0261 0.631495,0.0716 0.996094,0.13672 l 0.01953,3.6914"
         style="fill:#0000ff"
         id="path10190" />
      <path
         d="m 115.26172,730.40903 0,1.75781 -16.523439,0 c 0.156244,2.47397 0.898431,4.36199 2.226559,5.66406 1.34114,1.28907 3.20312,1.9336 5.58594,1.9336 1.38019,0 2.71483,-0.16927 4.00391,-0.50781 1.30206,-0.33854 2.59112,-0.84636 3.86719,-1.52344 l 0,3.39844 c -1.28909,0.54687 -2.6107,0.96354 -3.96485,1.25 -1.35418,0.28645 -2.72788,0.42968 -4.12109,0.42968 -3.4896,0 -6.25652,-1.01562 -8.300784,-3.04687 -2.031253,-2.03125 -3.046877,-4.77864 -3.046875,-8.24219 -2e-6,-3.58071 0.963539,-6.41925 2.890625,-8.51562 1.940097,-2.10936 4.550774,-3.16404 7.832034,-3.16407 2.94269,3e-5 5.26691,0.95054 6.97265,2.85157 1.71873,1.88803 2.57811,4.45965 2.57813,7.71484 m -3.59375,-1.05469 c -0.0261,-1.96613 -0.57945,-3.53514 -1.66016,-4.70703 -1.06772,-1.17186 -2.48699,-1.75779 -4.25781,-1.75781 -2.00522,2e-5 -3.61329,0.56642 -4.82422,1.69922 -1.197922,1.13283 -1.888026,2.72788 -2.070311,4.78515 l 12.812501,-0.0195"
         style="fill:#0000ff"
         id="path10192" />
      <path
         d="m 132.23437,711.85434 0,2.98828 -3.4375,0 c -1.28907,3e-5 -2.1875,0.26045 -2.69531,0.78125 -0.4948,0.52086 -0.74219,1.45836 -0.74218,2.8125 l 0,1.9336 5.91796,0 0,2.79297 -5.91796,0 0,19.08203 -3.61329,0 0,-19.08203 -3.4375,0 0,-2.79297 3.4375,0 0,-1.52344 c 0,-2.43487 0.56641,-4.2057 1.69922,-5.3125 1.13281,-1.11976 2.92968,-1.67966 5.39063,-1.67969 l 3.39843,0"
         style="fill:#0000ff"
         id="path10194" />
      <path
         d="m 139.32422,728.31919 0,10.68359 6.32812,0 c 2.12238,0 3.69139,-0.4362 4.70703,-1.30859 1.02863,-0.88542 1.54295,-2.23307 1.54297,-4.04297 -2e-5,-1.82291 -0.51434,-3.16405 -1.54297,-4.02344 -1.01564,-0.87238 -2.58465,-1.30858 -4.70703,-1.30859 l -6.32812,0 m 0,-11.99219 0,8.78906 5.83984,0 c 1.92707,2e-5 3.35936,-0.35806 4.29688,-1.07422 0.9505,-0.72915 1.42576,-1.83592 1.42578,-3.32031 -2e-5,-1.47133 -0.47528,-2.57159 -1.42578,-3.30078 -0.93752,-0.72914 -2.36981,-1.09373 -4.29688,-1.09375 l -5.83984,0 m -3.94531,-3.24219 10.07812,0 c 3.0078,3e-5 5.3255,0.62503 6.95313,1.875 1.62758,1.25003 2.44138,3.02737 2.4414,5.33203 -2e-5,1.78388 -0.41669,3.20315 -1.25,4.25781 -0.83335,1.05471 -2.05731,1.71226 -3.67187,1.97266 1.94008,0.41668 3.44399,1.28908 4.51172,2.61719 1.0807,1.31511 1.62107,2.96225 1.62109,4.9414 -2e-5,2.60418 -0.88544,4.61589 -2.65625,6.03516 -1.77085,1.41927 -4.29038,2.12891 -7.55859,2.12891 l -10.46875,0 0,-29.16016"
         style="fill:#0000ff"
         id="path10196" />
      <path
         d="m 171.12109,722.8895 c -1.92709,2e-5 -3.45053,0.75522 -4.57031,2.26562 -1.1198,1.49741 -1.67969,3.5547 -1.67969,6.17188 0,2.61719 0.55338,4.68099 1.66016,6.1914 1.11978,1.4974 2.64973,2.2461 4.58984,2.2461 1.91405,0 3.43098,-0.75521 4.55078,-2.26563 1.11978,-1.51041 1.67967,-3.5677 1.67969,-6.17187 -2e-5,-2.59113 -0.55991,-4.64191 -1.67969,-6.15235 -1.1198,-1.52341 -2.63673,-2.28513 -4.55078,-2.28515 m 0,-3.04688 c 3.12499,3e-5 5.57941,1.01565 7.36328,3.04688 1.78384,2.03127 2.67576,4.84376 2.67579,8.4375 -3e-5,3.58073 -0.89195,6.39323 -2.67579,8.4375 -1.78387,2.03125 -4.23829,3.04687 -7.36328,3.04687 -3.13803,0 -5.59896,-1.01562 -7.38281,-3.04687 -1.77084,-2.04427 -2.65625,-4.85677 -2.65625,-8.4375 0,-3.59374 0.88541,-6.40623 2.65625,-8.4375 1.78385,-2.03123 4.24478,-3.04685 7.38281,-3.04688"
         style="fill:#0000ff"
         id="path10198" />
      <path
         d="m 201.49219,723.69028 0,-11.83594 3.59375,0 0,30.39063 -3.59375,0 0,-3.28125 c -0.75523,1.30208 -1.71226,2.27213 -2.8711,2.91015 -1.14584,0.625 -2.52605,0.9375 -4.14062,0.9375 -2.64324,0 -4.79818,-1.05468 -6.46485,-3.16406 -1.65364,-2.10937 -2.48047,-4.8828 -2.48046,-8.32031 -1e-5,-3.43749 0.82682,-6.21092 2.48046,-8.32031 1.66667,-2.10936 3.82161,-3.16404 6.46485,-3.16407 1.61457,3e-5 2.99478,0.31904 4.14062,0.95703 1.15884,0.62502 2.11587,1.58857 2.8711,2.89063 m -12.2461,7.63672 c 0,2.64324 0.54036,4.72006 1.6211,6.23047 1.09374,1.4974 2.59113,2.24609 4.49218,2.24609 1.90103,0 3.39843,-0.74869 4.49219,-2.24609 1.09373,-1.51041 1.64061,-3.58723 1.64063,-6.23047 -2e-5,-2.64322 -0.5469,-4.71353 -1.64063,-6.21094 -1.09376,-1.5104 -2.59116,-2.26561 -4.49219,-2.26562 -1.90105,10e-6 -3.39844,0.75522 -4.49218,2.26562 -1.08074,1.49741 -1.6211,3.56772 -1.6211,6.21094"
         style="fill:#0000ff"
         id="path10200" />
      <path
         d="m 221.58984,744.27622 c -1.01563,2.60416 -2.00522,4.30338 -2.96875,5.09765 -0.96355,0.79427 -2.25261,1.1914 -3.86718,1.19141 l -2.8711,0 0,-3.00781 2.10938,0 c 0.98957,-10e-6 1.7578,-0.23438 2.30468,-0.70313 0.54687,-0.46875 1.15234,-1.57552 1.81641,-3.32031 l 0.64453,-1.64063 -8.84765,-21.52343 3.80859,0 6.83594,17.10937 6.83593,-17.10937 3.8086,0 -9.60938,23.90625"
         style="fill:#0000ff"
         id="path10202" />
    </g>
    <g
       transform="translate(759.49735,-525.58448)"
       style="font-size:40px;font-style:normal;font-weight:normal;line-height:125%;letter-spacing:0px;word-spacing:0px;fill:#000000;fill-opacity:1;stroke:none;font-family:Sans"
       id="flowRoot4466-7-9-5">
      <path
         d="m 96.628906,731.327 c -1.9e-5,-2.64322 -0.546894,-4.71353 -1.640625,-6.21094 -1.080746,-1.5104 -2.57163,-2.26561 -4.472656,-2.26562 -1.901053,10e-6 -3.398447,0.75522 -4.492188,2.26562 -1.080736,1.49741 -1.6211,3.56772 -1.621093,6.21094 -7e-6,2.64324 0.540357,4.72006 1.621093,6.23047 1.093741,1.4974 2.591135,2.24609 4.492188,2.24609 1.901026,0 3.39191,-0.74869 4.472656,-2.24609 1.093731,-1.51041 1.640606,-3.58723 1.640625,-6.23047 m -12.226562,-7.63672 c 0.7552,-1.30206 1.70572,-2.26561 2.851562,-2.89063 1.158843,-0.63799 2.53905,-0.957 4.140625,-0.95703 2.656233,3e-5 4.811179,1.05471 6.464844,3.16407 1.666644,2.10939 2.499975,4.88282 2.500005,8.32031 -3e-5,3.43751 -0.833361,6.21094 -2.500005,8.32031 -1.653665,2.10938 -3.808611,3.16406 -6.464844,3.16406 -1.601575,0 -2.981782,-0.3125 -4.140625,-0.9375 -1.145842,-0.63802 -2.096362,-1.60807 -2.851562,-2.91015 l 0,3.28125 -3.613282,0 0,-30.39063 3.613282,0 0,11.83594"
         style="fill:#ff0000"
         id="path10181" />
      <path
         d="m 114.79297,722.8895 c -1.92709,2e-5 -3.45053,0.75522 -4.57031,2.26562 -1.1198,1.49741 -1.6797,3.5547 -1.67969,6.17188 -1e-5,2.61719 0.55338,4.68099 1.66016,6.1914 1.11978,1.4974 2.64972,2.2461 4.58984,2.2461 1.91405,0 3.43097,-0.75521 4.55078,-2.26563 1.11977,-1.51041 1.67967,-3.5677 1.67969,-6.17187 -2e-5,-2.59113 -0.55992,-4.64191 -1.67969,-6.15235 -1.11981,-1.52341 -2.63673,-2.28513 -4.55078,-2.28515 m 0,-3.04688 c 3.12498,3e-5 5.57941,1.01565 7.36328,3.04688 1.78383,2.03127 2.67576,4.84376 2.67578,8.4375 -2e-5,3.58073 -0.89195,6.39323 -2.67578,8.4375 -1.78387,2.03125 -4.2383,3.04687 -7.36328,3.04687 -3.13803,0 -5.59897,-1.01562 -7.38281,-3.04687 -1.77084,-2.04427 -2.65626,-4.85677 -2.65625,-8.4375 -1e-5,-3.59374 0.88541,-6.40623 2.65625,-8.4375 1.78384,-2.03123 4.24478,-3.04685 7.38281,-3.04688"
         style="fill:#ff0000"
         id="path10183" />
      <path
         d="m 145.16406,723.69028 0,-11.83594 3.59375,0 0,30.39063 -3.59375,0 0,-3.28125 c -0.75522,1.30208 -1.71225,2.27213 -2.87109,2.91015 -1.14585,0.625 -2.52606,0.9375 -4.14063,0.9375 -2.64323,0 -4.79818,-1.05468 -6.46484,-3.16406 -1.65365,-2.10937 -2.48047,-4.8828 -2.48047,-8.32031 0,-3.43749 0.82682,-6.21092 2.48047,-8.32031 1.66666,-2.10936 3.82161,-3.16404 6.46484,-3.16407 1.61457,3e-5 2.99478,0.31904 4.14063,0.95703 1.15884,0.62502 2.11587,1.58857 2.87109,2.89063 m -12.24609,7.63672 c -1e-5,2.64324 0.54036,4.72006 1.62109,6.23047 1.09374,1.4974 2.59114,2.24609 4.49219,2.24609 1.90103,0 3.39842,-0.74869 4.49219,-2.24609 1.09373,-1.51041 1.6406,-3.58723 1.64062,-6.23047 -2e-5,-2.64322 -0.54689,-4.71353 -1.64062,-6.21094 -1.09377,-1.5104 -2.59116,-2.26561 -4.49219,-2.26562 -1.90105,10e-6 -3.39845,0.75522 -4.49219,2.26562 -1.08073,1.49741 -1.6211,3.56772 -1.62109,6.21094"
         style="fill:#ff0000"
         id="path10185" />
      <path
         d="m 165.26172,744.27622 c -1.01564,2.60416 -2.00522,4.30338 -2.96875,5.09765 -0.96355,0.79427 -2.25261,1.1914 -3.86719,1.19141 l -2.87109,0 0,-3.00781 2.10937,0 c 0.98958,-10e-6 1.75781,-0.23438 2.30469,-0.70313 0.54687,-0.46875 1.15234,-1.57552 1.81641,-3.32031 l 0.64453,-1.64063 -8.84766,-21.52343 3.80859,0 6.83594,17.10937 6.83594,-17.10937 3.80859,0 -9.60937,23.90625"
         style="fill:#ff0000"
         id="path10187" />
    </g>
    <g
       transform="translate(494.46552,-286.63892)"
       style="font-size:40px;font-style:normal;font-weight:normal;line-height:125%;letter-spacing:0px;word-spacing:0px;fill:#000000;fill-opacity:1;stroke:none;font-family:Sans"
       id="flowRoot4466-7-1-6-50">
      <path
         d="m 84.402344,738.96372 0,11.60156 -3.613282,0 0,-30.19531 3.613282,0 0,3.32031 c 0.7552,-1.30206 1.70572,-2.26561 2.851562,-2.89063 1.158843,-0.63799 2.53905,-0.957 4.140625,-0.95703 2.656233,3e-5 4.811179,1.05471 6.464844,3.16407 1.666644,2.10939 2.499975,4.88282 2.500005,8.32031 -3e-5,3.43751 -0.833361,6.21094 -2.500005,8.32031 -1.653665,2.10938 -3.808611,3.16406 -6.464844,3.16406 -1.601575,0 -2.981782,-0.3125 -4.140625,-0.9375 -1.145842,-0.63802 -2.096362,-1.60807 -2.851562,-2.91015 M 96.628906,731.327 c -1.9e-5,-2.64322 -0.546894,-4.71353 -1.640625,-6.21094 -1.080746,-1.5104 -2.57163,-2.26561 -4.472656,-2.26562 -1.901053,10e-6 -3.398447,0.75522 -4.492188,2.26562 -1.080736,1.49741 -1.6211,3.56772 -1.621093,6.21094 -7e-6,2.64324 0.540357,4.72006 1.621093,6.23047 1.093741,1.4974 2.591135,2.24609 4.492188,2.24609 1.901026,0 3.39191,-0.74869 4.472656,-2.24609 1.093731,-1.51041 1.640606,-3.58723 1.640625,-6.23047"
         style="fill:#ff0000"
         id="path10170" />
      <path
         d="m 114.79297,722.8895 c -1.92709,2e-5 -3.45053,0.75522 -4.57031,2.26562 -1.1198,1.49741 -1.6797,3.5547 -1.67969,6.17188 -1e-5,2.61719 0.55338,4.68099 1.66016,6.1914 1.11978,1.4974 2.64972,2.2461 4.58984,2.2461 1.91405,0 3.43097,-0.75521 4.55078,-2.26563 1.11977,-1.51041 1.67967,-3.5677 1.67969,-6.17187 -2e-5,-2.59113 -0.55992,-4.64191 -1.67969,-6.15235 -1.11981,-1.52341 -2.63673,-2.28513 -4.55078,-2.28515 m 0,-3.04688 c 3.12498,3e-5 5.57941,1.01565 7.36328,3.04688 1.78383,2.03127 2.67576,4.84376 2.67578,8.4375 -2e-5,3.58073 -0.89195,6.39323 -2.67578,8.4375 -1.78387,2.03125 -4.2383,3.04687 -7.36328,3.04687 -3.13803,0 -5.59897,-1.01562 -7.38281,-3.04687 -1.77084,-2.04427 -2.65626,-4.85677 -2.65625,-8.4375 -1e-5,-3.59374 0.88541,-6.40623 2.65625,-8.4375 1.78384,-2.03123 4.24478,-3.04685 7.38281,-3.04688"
         style="fill:#ff0000"
         id="path10172" />
      <path
         d="m 130.76953,720.36997 3.59375,0 0,21.875 -3.59375,0 0,-21.875 m 0,-8.51563 3.59375,0 0,4.55078 -3.59375,0 0,-4.55078"
         style="fill:#ff0000"
         id="path10174" />
      <path
         d="m 160.04687,729.04184 0,13.20313 -3.59375,0 0,-13.08594 c -1e-5,-2.0703 -0.40366,-3.61978 -1.21093,-4.64844 -0.80731,-1.02863 -2.01825,-1.54295 -3.63282,-1.54297 -1.94011,2e-5 -3.47006,0.61851 -4.58984,1.85547 -1.1198,1.237 -1.67969,2.92319 -1.67969,5.0586 l 0,12.36328 -3.61328,0 0,-21.875 3.61328,0 0,3.39843 c 0.85937,-1.31508 1.86848,-2.29815 3.02735,-2.94921 1.17186,-0.65102 2.51952,-0.97654 4.04297,-0.97657 2.513,3e-5 4.41404,0.78127 5.70312,2.34375 1.28904,1.5495 1.93357,3.83465 1.93359,6.85547"
         style="fill:#ff0000"
         id="path10176" />
      <path
         d="m 170.80859,714.15903 0,6.21094 7.40235,0 0,2.79297 -7.40235,0 0,11.875 c 0,1.78385 0.24088,2.92969 0.72266,3.4375 0.49478,0.50781 1.49088,0.76172 2.98828,0.76171 l 3.69141,0 0,3.00782 -3.69141,0 c -2.77344,0 -4.68751,-0.51433 -5.74219,-1.54297 -1.05469,-1.04167 -1.58203,-2.92969 -1.58203,-5.66406 l 0,-11.875 -2.63672,0 0,-2.79297 2.63672,0 0,-6.21094 3.61328,0"
         style="fill:#ff0000"
         id="path10178" />
    </g>
    <g
       transform="translate(155.32108,-50.489214)"
       style="font-size:40px;font-style:normal;font-weight:normal;line-height:125%;letter-spacing:0px;word-spacing:0px;fill:#000000;fill-opacity:1;stroke:none;font-family:Sans"
       id="flowRoot4466-7-6-3-6">
      <path
         d="m 93.601562,723.72934 c -0.403661,-0.23435 -0.846369,-0.40363 -1.328125,-0.50781 -0.468764,-0.11717 -0.989597,-0.17576 -1.5625,-0.17578 -2.031261,2e-5 -3.593759,0.66408 -4.6875,1.99219 -1.080736,1.31512 -1.6211,3.20964 -1.621093,5.68359 l 0,11.52344 -3.613282,0 0,-21.875 3.613282,0 0,3.39843 c 0.7552,-1.3281 1.738272,-2.31117 2.949218,-2.94921 1.210927,-0.65102 2.682279,-0.97654 4.414063,-0.97657 0.247381,3e-5 0.520818,0.0196 0.820312,0.0586 0.299464,0.0261 0.631495,0.0716 0.996094,0.13672 l 0.01953,3.6914"
         style="fill:#0000ff"
         id="path10153" />
      <path
         d="m 115.26172,730.40903 0,1.75781 -16.523439,0 c 0.156244,2.47397 0.898431,4.36199 2.226559,5.66406 1.34114,1.28907 3.20312,1.9336 5.58594,1.9336 1.38019,0 2.71483,-0.16927 4.00391,-0.50781 1.30206,-0.33854 2.59112,-0.84636 3.86719,-1.52344 l 0,3.39844 c -1.28909,0.54687 -2.6107,0.96354 -3.96485,1.25 -1.35418,0.28645 -2.72788,0.42968 -4.12109,0.42968 -3.4896,0 -6.25652,-1.01562 -8.300784,-3.04687 -2.031253,-2.03125 -3.046877,-4.77864 -3.046875,-8.24219 -2e-6,-3.58071 0.963539,-6.41925 2.890625,-8.51562 1.940097,-2.10936 4.550774,-3.16404 7.832034,-3.16407 2.94269,3e-5 5.26691,0.95054 6.97265,2.85157 1.71873,1.88803 2.57811,4.45965 2.57813,7.71484 m -3.59375,-1.05469 c -0.0261,-1.96613 -0.57945,-3.53514 -1.66016,-4.70703 -1.06772,-1.17186 -2.48699,-1.75779 -4.25781,-1.75781 -2.00522,2e-5 -3.61329,0.56642 -4.82422,1.69922 -1.197922,1.13283 -1.888026,2.72788 -2.070311,4.78515 l 12.812501,-0.0195"
         style="fill:#0000ff"
         id="path10155" />
      <path
         d="m 132.23437,711.85434 0,2.98828 -3.4375,0 c -1.28907,3e-5 -2.1875,0.26045 -2.69531,0.78125 -0.4948,0.52086 -0.74219,1.45836 -0.74218,2.8125 l 0,1.9336 5.91796,0 0,2.79297 -5.91796,0 0,19.08203 -3.61329,0 0,-19.08203 -3.4375,0 0,-2.79297 3.4375,0 0,-1.52344 c 0,-2.43487 0.56641,-4.2057 1.69922,-5.3125 1.13281,-1.11976 2.92968,-1.67966 5.39063,-1.67969 l 3.39843,0"
         style="fill:#0000ff"
         id="path10157" />
      <path
         d="m 139.32422,716.327 0,10.95703 4.96094,0 c 1.83592,10e-6 3.25519,-0.47525 4.25781,-1.42578 1.00258,-0.95051 1.50389,-2.30467 1.5039,-4.0625 -1e-5,-1.74477 -0.50132,-3.09243 -1.5039,-4.04297 -1.00262,-0.9505 -2.42189,-1.42576 -4.25781,-1.42578 l -4.96094,0 m -3.94531,-3.24219 8.90625,0 c 3.26821,3e-5 5.73565,0.74222 7.40234,2.22656 1.67967,1.47138 2.51951,3.63284 2.51953,6.48438 -2e-5,2.87762 -0.83986,5.0521 -2.51953,6.52344 -1.66669,1.47136 -4.13413,2.20704 -7.40234,2.20703 l -4.96094,0 0,11.71875 -3.94531,0 0,-29.16016"
         style="fill:#0000ff"
         id="path10159" />
      <path
         d="m 166.43359,722.8895 c -1.92709,2e-5 -3.45053,0.75522 -4.57031,2.26562 -1.1198,1.49741 -1.67969,3.5547 -1.67969,6.17188 0,2.61719 0.55338,4.68099 1.66016,6.1914 1.11978,1.4974 2.64973,2.2461 4.58984,2.2461 1.91405,0 3.43098,-0.75521 4.55078,-2.26563 1.11978,-1.51041 1.67967,-3.5677 1.67969,-6.17187 -2e-5,-2.59113 -0.55991,-4.64191 -1.67969,-6.15235 -1.1198,-1.52341 -2.63673,-2.28513 -4.55078,-2.28515 m 0,-3.04688 c 3.12499,3e-5 5.57941,1.01565 7.36328,3.04688 1.78384,2.03127 2.67576,4.84376 2.67579,8.4375 -3e-5,3.58073 -0.89195,6.39323 -2.67579,8.4375 -1.78387,2.03125 -4.23829,3.04687 -7.36328,3.04687 -3.13803,0 -5.59896,-1.01562 -7.38281,-3.04687 -1.77084,-2.04427 -2.65625,-4.85677 -2.65625,-8.4375 0,-3.59374 0.88541,-6.40623 2.65625,-8.4375 1.78385,-2.03123 4.24478,-3.04685 7.38281,-3.04688"
         style="fill:#0000ff"
         id="path10161" />
      <path
         d="m 182.41016,720.36997 3.59375,0 0,21.875 -3.59375,0 0,-21.875 m 0,-8.51563 3.59375,0 0,4.55078 -3.59375,0 0,-4.55078"
         style="fill:#0000ff"
         id="path10163" />
      <path
         d="m 211.6875,729.04184 0,13.20313 -3.59375,0 0,-13.08594 c -2e-5,-2.0703 -0.40366,-3.61978 -1.21094,-4.64844 -0.80731,-1.02863 -2.01824,-1.54295 -3.63281,-1.54297 -1.94012,2e-5 -3.47006,0.61851 -4.58984,1.85547 -1.1198,1.237 -1.6797,2.92319 -1.67969,5.0586 l 0,12.36328 -3.61328,0 0,-21.875 3.61328,0 0,3.39843 c 0.85937,-1.31508 1.86848,-2.29815 3.02734,-2.94921 1.17187,-0.65102 2.51952,-0.97654 4.04297,-0.97657 2.51301,3e-5 4.41405,0.78127 5.70313,2.34375 1.28904,1.5495 1.93357,3.83465 1.93359,6.85547"
         style="fill:#0000ff"
         id="path10165" />
      <path
         d="m 222.44922,714.15903 0,6.21094 7.40234,0 0,2.79297 -7.40234,0 0,11.875 c -1e-5,1.78385 0.24088,2.92969 0.72265,3.4375 0.49479,0.50781 1.49088,0.76172 2.98829,0.76171 l 3.6914,0 0,3.00782 -3.6914,0 c -2.77345,0 -4.68751,-0.51433 -5.74219,-1.54297 -1.05469,-1.04167 -1.58204,-2.92969 -1.58203,-5.66406 l 0,-11.875 -2.63672,0 0,-2.79297 2.63672,0 0,-6.21094 3.61328,0"
         style="fill:#0000ff"
         id="path10167" />
    </g>
    <g
       transform="translate(-137.60928,-238.86569)"
       style="font-size:40px;font-style:normal;font-weight:normal;line-height:125%;letter-spacing:0px;word-spacing:0px;fill:#000000;fill-opacity:1;stroke:none;font-family:Sans"
       id="flowRoot4466-7-0-3-3">
      <path
         d="m 96.667969,721.20981 0,3.35938 c -1.015644,-0.55988 -2.037778,-0.97655 -3.066407,-1.25 -1.01564,-0.28644 -2.044285,-0.42967 -3.085937,-0.42969 -2.33074,2e-5 -4.140634,0.7422 -5.429688,2.22656 -1.289069,1.47137 -1.933599,3.54168 -1.933593,6.21094 -6e-6,2.66928 0.644524,4.7461 1.933593,6.23047 1.289054,1.47135 3.098948,2.20703 5.429688,2.20703 1.041652,0 2.070297,-0.13672 3.085937,-0.41016 1.028629,-0.28645 2.050763,-0.70963 3.066407,-1.26953 l 0,3.32031 c -1.002623,0.46875 -2.044289,0.82032 -3.125,1.05469 -1.067724,0.23437 -2.207046,0.35156 -3.417969,0.35156 -3.294281,0 -5.911465,-1.03515 -7.851563,-3.10547 -1.940107,-2.0703 -2.910158,-4.86327 -2.910156,-8.3789 -2e-6,-3.5677 0.97656,-6.37368 2.929688,-8.41797 1.966138,-2.04425 4.654938,-3.06638 8.066406,-3.06641 1.106757,3e-5 2.187485,0.11721 3.242187,0.35157 1.054671,0.22137 2.076805,0.55991 3.066407,1.01562"
         style="fill:#000000"
         id="path10112" />
      <path
         d="m 111.43359,722.8895 c -1.92709,2e-5 -3.45053,0.75522 -4.57031,2.26562 -1.1198,1.49741 -1.67969,3.5547 -1.67969,6.17188 0,2.61719 0.55338,4.68099 1.66016,6.1914 1.11978,1.4974 2.64973,2.2461 4.58984,2.2461 1.91405,0 3.43098,-0.75521 4.55079,-2.26563 1.11977,-1.51041 1.67966,-3.5677 1.67968,-6.17187 -2e-5,-2.59113 -0.55991,-4.64191 -1.67968,-6.15235 -1.11981,-1.52341 -2.63674,-2.28513 -4.55079,-2.28515 m 0,-3.04688 c 3.12499,3e-5 5.57941,1.01565 7.36329,3.04688 1.78383,2.03127 2.67575,4.84376 2.67578,8.4375 -3e-5,3.58073 -0.89195,6.39323 -2.67578,8.4375 -1.78388,2.03125 -4.2383,3.04687 -7.36329,3.04687 -3.13803,0 -5.59896,-1.01562 -7.38281,-3.04687 -1.77084,-2.04427 -2.65625,-4.85677 -2.65625,-8.4375 0,-3.59374 0.88541,-6.40623 2.65625,-8.4375 1.78385,-2.03123 4.24478,-3.04685 7.38281,-3.04688"
         style="fill:#000000"
         id="path10114" />
      <path
         d="m 135.88672,722.8895 c -1.92709,2e-5 -3.45053,0.75522 -4.57031,2.26562 -1.1198,1.49741 -1.6797,3.5547 -1.67969,6.17188 -1e-5,2.61719 0.55338,4.68099 1.66015,6.1914 1.11979,1.4974 2.64973,2.2461 4.58985,2.2461 1.91405,0 3.43097,-0.75521 4.55078,-2.26563 1.11977,-1.51041 1.67967,-3.5677 1.67969,-6.17187 -2e-5,-2.59113 -0.55992,-4.64191 -1.67969,-6.15235 -1.11981,-1.52341 -2.63673,-2.28513 -4.55078,-2.28515 m 0,-3.04688 c 3.12498,3e-5 5.57941,1.01565 7.36328,3.04688 1.78383,2.03127 2.67576,4.84376 2.67578,8.4375 -2e-5,3.58073 -0.89195,6.39323 -2.67578,8.4375 -1.78387,2.03125 -4.2383,3.04687 -7.36328,3.04687 -3.13803,0 -5.59897,-1.01562 -7.38281,-3.04687 -1.77084,-2.04427 -2.65626,-4.85677 -2.65625,-8.4375 -1e-5,-3.59374 0.88541,-6.40623 2.65625,-8.4375 1.78384,-2.03123 4.24478,-3.04685 7.38281,-3.04688"
         style="fill:#000000"
         id="path10116" />
      <path
         d="m 164.53906,723.72934 c -0.40366,-0.23435 -0.84637,-0.40363 -1.32812,-0.50781 -0.46877,-0.11717 -0.9896,-0.17576 -1.5625,-0.17578 -2.03126,2e-5 -3.59376,0.66408 -4.6875,1.99219 -1.08074,1.31512 -1.6211,3.20964 -1.6211,5.68359 l 0,11.52344 -3.61328,0 0,-21.875 3.61328,0 0,3.39843 c 0.7552,-1.3281 1.73828,-2.31117 2.94922,-2.94921 1.21093,-0.65102 2.68228,-0.97654 4.41406,-0.97657 0.24739,3e-5 0.52082,0.0196 0.82032,0.0586 0.29946,0.0261 0.63149,0.0716 0.99609,0.13672 l 0.0195,3.6914"
         style="fill:#000000"
         id="path10118" />
      <path
         d="m 182.03906,723.69028 0,-11.83594 3.59375,0 0,30.39063 -3.59375,0 0,-3.28125 c -0.75522,1.30208 -1.71225,2.27213 -2.87109,2.91015 -1.14585,0.625 -2.52606,0.9375 -4.14063,0.9375 -2.64323,0 -4.79818,-1.05468 -6.46484,-3.16406 -1.65365,-2.10937 -2.48047,-4.8828 -2.48047,-8.32031 0,-3.43749 0.82682,-6.21092 2.48047,-8.32031 1.66666,-2.10936 3.82161,-3.16404 6.46484,-3.16407 1.61457,3e-5 2.99478,0.31904 4.14063,0.95703 1.15884,0.62502 2.11587,1.58857 2.87109,2.89063 m -12.24609,7.63672 c -1e-5,2.64324 0.54036,4.72006 1.62109,6.23047 1.09374,1.4974 2.59114,2.24609 4.49219,2.24609 1.90103,0 3.39842,-0.74869 4.49219,-2.24609 1.09373,-1.51041 1.6406,-3.58723 1.64062,-6.23047 -2e-5,-2.64322 -0.54689,-4.71353 -1.64062,-6.21094 -1.09377,-1.5104 -2.59116,-2.26561 -4.49219,-2.26562 -1.90105,10e-6 -3.39845,0.75522 -4.49219,2.26562 -1.08073,1.49741 -1.6211,3.56772 -1.62109,6.21094"
         style="fill:#000000"
         id="path10120" />
      <path
         d="m 193.19141,713.08481 16.75781,0 0,3.32031 -12.8125,0 0,8.59375 11.5625,0 0,3.32032 -11.5625,0 0,13.92578 -3.94531,0 0,-29.16016"
         style="fill:#000000"
         id="path10122" />
      <path
         d="m 225.86719,723.72934 c -0.40366,-0.23435 -0.84637,-0.40363 -1.32813,-0.50781 -0.46876,-0.11717 -0.98959,-0.17576 -1.5625,-0.17578 -2.03126,2e-5 -3.59376,0.66408 -4.6875,1.99219 -1.08073,1.31512 -1.6211,3.20964 -1.62109,5.68359 l 0,11.52344 -3.61328,0 0,-21.875 3.61328,0 0,3.39843 c 0.7552,-1.3281 1.73827,-2.31117 2.94922,-2.94921 1.21092,-0.65102 2.68228,-0.97654 4.41406,-0.97657 0.24738,3e-5 0.52082,0.0196 0.82031,0.0586 0.29947,0.0261 0.6315,0.0716 0.9961,0.13672 l 0.0195,3.6914"
         style="fill:#000000"
         id="path10124" />
      <path
         d="m 239.61719,731.24887 c -2.90366,10e-6 -4.91538,0.33204 -6.03516,0.9961 -1.1198,0.66407 -1.67969,1.79688 -1.67969,3.39843 0,1.27605 0.41666,2.29167 1.25,3.04688 0.84635,0.74219 1.99218,1.11328 3.4375,1.11328 1.99218,0 3.58723,-0.70312 4.78516,-2.10937 1.21092,-1.41927 1.81639,-3.30078 1.81641,-5.64454 l 0,-0.80078 -3.57422,0 m 7.16797,-1.48437 0,12.48047 -3.59375,0 0,-3.32032 c -0.82033,1.32813 -1.84247,2.3112 -3.06641,2.94922 -1.22397,0.625 -2.72137,0.9375 -4.49219,0.9375 -2.23959,0 -4.02344,-0.625 -5.35156,-1.875 -1.31511,-1.26302 -1.97266,-2.94921 -1.97266,-5.05859 0,-2.46093 0.82031,-4.3164 2.46094,-5.56641 1.65364,-1.24998 4.11458,-1.87498 7.38281,-1.875 l 5.03907,0 0,-0.35156 c -2e-5,-1.65363 -0.5469,-2.92967 -1.64063,-3.82812 -1.08074,-0.91144 -2.60418,-1.36717 -4.57031,-1.36719 -1.25001,2e-5 -2.46746,0.14976 -3.65235,0.44922 -1.1849,0.29949 -2.32422,0.74871 -3.41796,1.34765 l 0,-3.32031 c 1.3151,-0.50779 2.59114,-0.88539 3.82812,-1.13281 1.23697,-0.2604 2.4414,-0.3906 3.61328,-0.39063 3.16405,3e-5 5.52733,0.82034 7.08985,2.46094 1.56248,1.64064 2.34373,4.12762 2.34375,7.46094"
         style="fill:#000000"
         id="path10126" />
      <path
         d="m 271.23828,724.56919 c 0.89842,-1.61457 1.97263,-2.80597 3.22266,-3.57422 1.24997,-0.76821 2.72132,-1.15232 4.41406,-1.15235 2.27862,3e-5 4.03643,0.80081 5.27344,2.40235 1.23694,1.58856 1.85543,3.85418 1.85547,6.79687 l 0,13.20313 -3.61329,0 0,-13.08594 c -3e-5,-2.09634 -0.37112,-3.65233 -1.11328,-4.66797 -0.74221,-1.01561 -1.87503,-1.52342 -3.39843,-1.52344 -1.86201,2e-5 -3.33336,0.61851 -4.41407,1.85547 -1.08075,1.237 -1.62111,2.92319 -1.62109,5.0586 l 0,12.36328 -3.61328,0 0,-13.08594 c -2e-5,-2.10936 -0.37111,-3.66535 -1.11328,-4.66797 -0.74221,-1.01561 -1.88804,-1.52342 -3.4375,-1.52344 -1.83595,2e-5 -3.29428,0.62502 -4.375,1.875 -1.08074,1.237 -1.6211,2.91668 -1.6211,5.03907 l 0,12.36328 -3.61328,0 0,-21.875 3.61328,0 0,3.39843 c 0.82031,-1.34112 1.80338,-2.3307 2.94922,-2.96875 1.14582,-0.63799 2.5065,-0.957 4.08203,-0.95703 1.58853,3e-5 2.93618,0.40367 4.04297,1.21094 1.11977,0.80731 1.9466,1.97919 2.48047,3.51563"
         style="fill:#000000"
         id="path10128" />
      <path
         d="m 311.90234,730.40903 0,1.75781 -16.52343,0 c 0.15624,2.47397 0.89843,4.36199 2.22656,5.66406 1.34114,1.28907 3.20311,1.9336 5.58594,1.9336 1.38019,0 2.71482,-0.16927 4.0039,-0.50781 1.30207,-0.33854 2.59113,-0.84636 3.86719,-1.52344 l 0,3.39844 c -1.28908,0.54687 -2.6107,0.96354 -3.96484,1.25 -1.35419,0.28645 -2.72788,0.42968 -4.1211,0.42968 -3.48959,0 -6.25652,-1.01562 -8.30078,-3.04687 -2.03125,-2.03125 -3.04688,-4.77864 -3.04687,-8.24219 -1e-5,-3.58071 0.96353,-6.41925 2.89062,-8.51562 1.9401,-2.10936 4.55077,-3.16404 7.83203,-3.16407 2.94269,3e-5 5.26691,0.95054 6.97266,2.85157 1.71873,1.88803 2.5781,4.45965 2.57812,7.71484 m -3.59375,-1.05469 c -0.0261,-1.96613 -0.57944,-3.53514 -1.66015,-4.70703 -1.06773,-1.17186 -2.487,-1.75779 -4.25782,-1.75781 -2.00521,2e-5 -3.61329,0.56642 -4.82421,1.69922 -1.19793,1.13283 -1.88803,2.72788 -2.07032,4.78515 l 12.8125,-0.0195"
         style="fill:#000000"
         id="path10130" />
      <path
         d="m 183.26953,774.0809 25.03906,0 0,3.28125 -25.03906,0 0,-3.28125 m 0,7.96875 25.03906,0 0,3.32032 -25.03906,0 0,-3.32032"
         style="fill:#000000"
         id="path10132" />
      <path
         d="m 106.33594,823.72934 c -0.40366,-0.23435 -0.84637,-0.40363 -1.32813,-0.50781 -0.46876,-0.11717 -0.98959,-0.17576 -1.5625,-0.17578 -2.03126,2e-5 -3.593757,0.66408 -4.687498,1.99219 -1.080736,1.31512 -1.6211,3.20964 -1.621093,5.68359 l 0,11.52344 -3.613282,0 0,-21.875 3.613282,0 0,3.39843 c 0.7552,-1.3281 1.738272,-2.31117 2.949221,-2.94921 1.21092,-0.65102 2.68228,-0.97654 4.41406,-0.97657 0.24738,3e-5 0.52082,0.0196 0.82031,0.0586 0.29947,0.0261 0.6315,0.0716 0.9961,0.13672 l 0.0195,3.6914"
         style="fill:#0000ff"
         id="path10134" />
      <path
         d="m 127.99609,830.40903 0,1.75781 -16.52343,0 c 0.15624,2.47397 0.89843,4.36199 2.22656,5.66406 1.34114,1.28907 3.20311,1.9336 5.58594,1.9336 1.38019,0 2.71482,-0.16927 4.0039,-0.50781 1.30207,-0.33854 2.59113,-0.84636 3.86719,-1.52344 l 0,3.39844 c -1.28908,0.54687 -2.6107,0.96354 -3.96484,1.25 -1.35419,0.28645 -2.72788,0.42968 -4.1211,0.42968 -3.48959,0 -6.25652,-1.01562 -8.30078,-3.04687 -2.03125,-2.03125 -3.04688,-4.77864 -3.04687,-8.24219 -1e-5,-3.58071 0.96353,-6.41925 2.89062,-8.51562 1.9401,-2.10936 4.55077,-3.16404 7.83203,-3.16407 2.94269,3e-5 5.26691,0.95054 6.97266,2.85157 1.71873,1.88803 2.5781,4.45965 2.57812,7.71484 m -3.59375,-1.05469 c -0.0261,-1.96613 -0.57944,-3.53514 -1.66015,-4.70703 -1.06773,-1.17186 -2.487,-1.75779 -4.25781,-1.75781 -2.00522,2e-5 -3.6133,0.56642 -4.82422,1.69922 -1.19793,1.13283 -1.88803,2.72788 -2.07032,4.78515 l 12.8125,-0.0195"
         style="fill:#0000ff"
         id="path10136" />
      <path
         d="m 144.96875,811.85434 0,2.98828 -3.4375,0 c -1.28907,3e-5 -2.18751,0.26045 -2.69531,0.78125 -0.4948,0.52086 -0.7422,1.45836 -0.74219,2.8125 l 0,1.9336 5.91797,0 0,2.79297 -5.91797,0 0,19.08203 -3.61328,0 0,-19.08203 -3.4375,0 0,-2.79297 3.4375,0 0,-1.52344 c -1e-5,-2.43487 0.5664,-4.2057 1.69922,-5.3125 1.1328,-1.11976 2.92968,-1.67966 5.39062,-1.67969 l 3.39844,0"
         style="fill:#0000ff"
         id="path10138" />
      <path
         d="m 159.94922,815.76059 c -2.8646,3e-5 -5.14324,1.06774 -6.83594,3.20313 -1.67969,2.13543 -2.51954,5.04559 -2.51953,8.73047 -1e-5,3.67188 0.83984,6.57552 2.51953,8.71093 1.6927,2.13542 3.97134,3.20313 6.83594,3.20313 2.86456,0 5.13019,-1.06771 6.79687,-3.20313 1.67967,-2.13541 2.51951,-5.03905 2.51953,-8.71093 -2e-5,-3.68488 -0.83986,-6.59504 -2.51953,-8.73047 -1.66668,-2.13539 -3.93231,-3.2031 -6.79687,-3.20313 m 0,-3.20312 c 4.08852,3e-5 7.35675,1.37372 9.80469,4.12109 2.44788,2.7344 3.67184,6.40627 3.67187,11.01563 -3e-5,4.59636 -1.22399,8.26823 -3.67187,11.01562 -2.44794,2.73438 -5.71617,4.10156 -9.80469,4.10156 -4.10158,0 -7.38282,-1.36718 -9.84375,-4.10156 -2.44792,-2.73437 -3.67188,-6.40624 -3.67188,-11.01562 0,-4.60936 1.22396,-8.28123 3.67188,-11.01563 2.46093,-2.74737 5.74217,-4.12106 9.84375,-4.12109"
         style="fill:#0000ff"
         id="path10140" />
      <path
         d="m 192.11719,823.72934 c -0.40366,-0.23435 -0.84637,-0.40363 -1.32813,-0.50781 -0.46876,-0.11717 -0.98959,-0.17576 -1.5625,-0.17578 -2.03126,2e-5 -3.59376,0.66408 -4.6875,1.99219 -1.08073,1.31512 -1.6211,3.20964 -1.62109,5.68359 l 0,11.52344 -3.61328,0 0,-21.875 3.61328,0 0,3.39843 c 0.7552,-1.3281 1.73827,-2.31117 2.94922,-2.94921 1.21092,-0.65102 2.68228,-0.97654 4.41406,-0.97657 0.24738,3e-5 0.52082,0.0196 0.82031,0.0586 0.29947,0.0261 0.6315,0.0716 0.9961,0.13672 l 0.0195,3.6914"
         style="fill:#0000ff"
         id="path10142" />
      <path
         d="m 195.92578,820.36997 3.59375,0 0,21.875 -3.59375,0 0,-21.875 m 0,-8.51563 3.59375,0 0,4.55078 -3.59375,0 0,-4.55078"
         style="fill:#0000ff"
         id="path10144" />
      <path
         d="m 225.73047,830.40903 0,1.75781 -16.52344,0 c 0.15625,2.47397 0.89843,4.36199 2.22656,5.66406 1.34114,1.28907 3.20312,1.9336 5.58594,1.9336 1.38019,0 2.71483,-0.16927 4.00391,-0.50781 1.30206,-0.33854 2.59112,-0.84636 3.86718,-1.52344 l 0,3.39844 c -1.28908,0.54687 -2.61069,0.96354 -3.96484,1.25 -1.35418,0.28645 -2.72788,0.42968 -4.12109,0.42968 -3.4896,0 -6.25652,-1.01562 -8.30078,-3.04687 -2.03126,-2.03125 -3.04688,-4.77864 -3.04688,-8.24219 0,-3.58071 0.96354,-6.41925 2.89063,-8.51562 1.94009,-2.10936 4.55077,-3.16404 7.83203,-3.16407 2.94269,3e-5 5.26691,0.95054 6.97265,2.85157 1.71873,1.88803 2.57811,4.45965 2.57813,7.71484 m -3.59375,-1.05469 c -0.0261,-1.96613 -0.57945,-3.53514 -1.66016,-4.70703 -1.06772,-1.17186 -2.48699,-1.75779 -4.25781,-1.75781 -2.00522,2e-5 -3.61329,0.56642 -4.82422,1.69922 -1.19792,1.13283 -1.88803,2.72788 -2.07031,4.78515 l 12.8125,-0.0195"
         style="fill:#0000ff"
         id="path10146" />
      <path
         d="m 249.8125,829.04184 0,13.20313 -3.59375,0 0,-13.08594 c -2e-5,-2.0703 -0.40366,-3.61978 -1.21094,-4.64844 -0.80731,-1.02863 -2.01824,-1.54295 -3.63281,-1.54297 -1.94012,2e-5 -3.47006,0.61851 -4.58984,1.85547 -1.1198,1.237 -1.6797,2.92319 -1.67969,5.0586 l 0,12.36328 -3.61328,0 0,-21.875 3.61328,0 0,3.39843 c 0.85937,-1.31508 1.86848,-2.29815 3.02734,-2.94921 1.17187,-0.65102 2.51952,-0.97654 4.04297,-0.97657 2.51301,3e-5 4.41405,0.78127 5.70313,2.34375 1.28904,1.5495 1.93357,3.83465 1.93359,6.85547"
         style="fill:#0000ff"
         id="path10148" />
      <path
         d="m 260.57422,814.15903 0,6.21094 7.40234,0 0,2.79297 -7.40234,0 0,11.875 c -1e-5,1.78385 0.24088,2.92969 0.72265,3.4375 0.49479,0.50781 1.49088,0.76172 2.98829,0.76171 l 3.6914,0 0,3.00782 -3.6914,0 c -2.77345,0 -4.68751,-0.51433 -5.74219,-1.54297 -1.05469,-1.04167 -1.58204,-2.92969 -1.58203,-5.66406 l 0,-11.875 -2.63672,0 0,-2.79297 2.63672,0 0,-6.21094 3.61328,0"
         style="fill:#0000ff"
         id="path10150" />
    </g>
    <g
       id="g10214">
      <path
         style="font-size:medium;font-style:normal;font-variant:normal;font-weight:normal;font-stretch:normal;text-indent:0;text-align:start;text-decoration:none;line-height:normal;letter-spacing:normal;word-spacing:normal;text-transform:none;direction:ltr;block-progression:tb;writing-mode:lr-tb;text-anchor:start;baseline-shift:baseline;color:#000000;fill:#ff0000;fill-opacity:1;stroke:none;stroke-width:4.03900003;marker:none;visibility:visible;display:inline;overflow:visible;enable-background:accumulate;font-family:Sans;-inkscape-font-specification:Sans"
         d="m 563.84375,297.25 0,109.84375 0,2 2.03125,0 103.8125,0 0,-4.03125 -101.78125,0 0,-107.8125 -4.0625,0 z"
         id="path4607-5-8"
         inkscape:connector-curvature="0" />
      <path
         inkscape:connector-curvature="0"
         style="fill-rule:evenodd;stroke:#000000;stroke-width:1.61560001pt"
         d="m 565.87582,313.39147 8.078,8.078 -8.078,-28.273 -8.078,28.273 8.078,-8.078 z"
         id="path10220" />
      <path
         inkscape:connector-curvature="0"
         style="fill-rule:evenodd;stroke:#000000;stroke-width:1.61560001pt"
         d="m 653.51938,407.08179 -8.078,8.078 28.273,-8.078 -28.273,-8.078 8.078,8.078 z"
         id="path10222" />
    </g>
    <g
       id="g10224">
      <path
         style="font-size:medium;font-style:normal;font-variant:normal;font-weight:normal;font-stretch:normal;text-indent:0;text-align:start;text-decoration:none;line-height:normal;letter-spacing:normal;word-spacing:normal;text-transform:none;direction:ltr;block-progression:tb;writing-mode:lr-tb;text-anchor:start;baseline-shift:baseline;color:#000000;fill:#ff0000;fill-opacity:1;fill-rule:nonzero;stroke:none;stroke-width:4;marker:none;visibility:visible;display:inline;overflow:visible;enable-background:accumulate;font-family:Sans;-inkscape-font-specification:Sans"
         d="m 654.0625,317.3125 -91.28125,90.28125 2.8125,2.84375 91.28125,-90.28125 -2.8125,-2.84375 z"
         id="path3018-7-0-2"
         inkscape:connector-curvature="0" />
      <path
         inkscape:connector-curvature="0"
         style="fill-rule:evenodd;stroke:#000000;stroke-width:1.6pt"
         d="m 644.09278,329.99043 -0.0623,11.31354 14.28218,-25.37754 -25.53338,14.00166 11.31354,0.0623 z"
         id="path10230" />
    </g>
    <path
       style="font-size:medium;font-style:normal;font-variant:normal;font-weight:normal;font-stretch:normal;text-indent:0;text-align:start;text-decoration:none;line-height:normal;letter-spacing:normal;word-spacing:normal;text-transform:none;direction:ltr;block-progression:tb;writing-mode:lr-tb;text-anchor:start;baseline-shift:baseline;color:#000000;fill:#0000ff;fill-opacity:1;fill-rule:nonzero;stroke:none;stroke-width:4;marker:none;visibility:visible;display:inline;overflow:visible;enable-background:accumulate;font-family:Sans;-inkscape-font-specification:Sans"
       d="m 217.51313,669.38526 c -4.52468,2.42566 -10.22098,0.31344 -12.73554,-4.37705 -2.51456,-4.69048 -1.10593,-10.5762 3.41874,-13.00186 4.52468,-2.42567 10.17868,-0.32622 12.69324,4.36426 2.51456,4.69049 1.14823,10.58898 -3.37644,13.01465 z m -1.88994,-3.52536 c 2.4289,-1.30213 3.32704,-4.64091 1.74102,-7.59935 -1.58601,-2.95844 -4.84904,-4.03097 -7.27794,-2.72885 -2.4289,1.30213 -3.36934,4.62813 -1.78333,7.58658 1.58602,2.95844 4.89135,4.04375 7.32025,2.74162 z"
       id="path4414-5-6-6-0"
       inkscape:connector-curvature="0" />
    <g
       id="g10232">
      <path
         style="font-size:medium;font-style:normal;font-variant:normal;font-weight:normal;font-stretch:normal;text-indent:0;text-align:start;text-decoration:none;line-height:normal;letter-spacing:normal;word-spacing:normal;text-transform:none;direction:ltr;block-progression:tb;writing-mode:lr-tb;text-anchor:start;baseline-shift:baseline;color:#000000;fill:#0000ff;fill-opacity:1;stroke:none;stroke-width:4.05776119;marker:none;visibility:visible;display:inline;overflow:visible;enable-background:accumulate;font-family:Sans;-inkscape-font-specification:Sans"
         d="m 160.625,564.34375 -3.5625,1.9375 52.40625,96.78125 0.9375,1.78125 1.78125,-0.96875 92.34375,-49.03125 -1.875,-3.5625 L 212.0625,659.375 160.625,564.34375 z"
         id="path4607-5-7-0"
         inkscape:connector-curvature="0" />
      <path
         inkscape:connector-curvature="0"
         style="fill-rule:evenodd;stroke:#000000;stroke-width:1.62310448pt"
         d="m 166.57484,579.57463 11.00026,3.2738 -20.65834,-21.11636 6.38429,28.84282 3.27379,-11.00026 z"
         id="path10238" />
      <path
         inkscape:connector-curvature="0"
         style="fill-rule:evenodd;stroke:#000000;stroke-width:1.62310448pt"
         d="m 289.25843,620.67134 -3.36207,10.9736 21.28165,-20.48803 -28.89319,6.15237 10.97361,3.36206 z"
         id="path10240" />
    </g>
    <g
       id="g10242">
      <path
         style="font-size:medium;font-style:normal;font-variant:normal;font-weight:normal;font-stretch:normal;text-indent:0;text-align:start;text-decoration:none;line-height:normal;letter-spacing:normal;word-spacing:normal;text-transform:none;direction:ltr;block-progression:tb;writing-mode:lr-tb;text-anchor:start;baseline-shift:baseline;color:#000000;fill:#0000ff;fill-opacity:1;fill-rule:nonzero;stroke:none;stroke-width:3.70470834;marker:none;visibility:visible;display:inline;overflow:visible;enable-background:accumulate;font-family:Sans;-inkscape-font-specification:Sans"
         d="m 242.09375,546.78125 -33.875,117.46875 3.5625,1.03125 33.875,-117.46875 -3.5625,-1.03125 z"
         id="path3018-7-0-7-8"
         inkscape:connector-curvature="0" />
      <path
         inkscape:connector-curvature="0"
         style="fill-rule:evenodd;stroke:#000000;stroke-width:1.48188334pt"
         d="m 239.7711,561.53916 5.06672,9.17209 0.065,-26.9706 -14.30381,22.86523 9.1721,-5.06672 z"
         id="path10248" />
    </g>
    <g
       id="g10250">
      <path
         style="font-size:medium;font-style:normal;font-variant:normal;font-weight:normal;font-stretch:normal;text-indent:0;text-align:start;text-decoration:none;line-height:normal;letter-spacing:normal;word-spacing:normal;text-transform:none;direction:ltr;block-progression:tb;writing-mode:lr-tb;text-anchor:start;baseline-shift:baseline;color:#000000;fill:#000000;fill-opacity:1;stroke:none;stroke-width:5.21500015;marker:none;visibility:visible;display:inline;overflow:visible;enable-background:accumulate;font-family:Sans;-inkscape-font-specification:Sans"
         d="m 560.9375,410.46875 -346,241.78125 3,4.28125 L 563.90625,414.75 560.9375,410.46875 z"
         id="path3018-8-1-4"
         inkscape:connector-curvature="0" />
      <path
         inkscape:connector-curvature="0"
         d="m 503.47253,425.58156 64.57687,-17.01 -38.17285,54.79367 c 0.41309,-16.88934 -10.29838,-32.11653 -26.40402,-37.78367 z"
         style="fill-rule:evenodd;stroke-width:0.625;stroke-linejoin:round"
         id="path10256" />
    </g>
    <g
       transform="translate(495.38041,-446.03681)"
       style="font-size:40px;font-style:normal;font-weight:normal;line-height:125%;letter-spacing:0px;word-spacing:0px;fill:#000000;fill-opacity:1;stroke:none;font-family:Sans"
       id="flowRoot4466-7-1-6-5-9">
      <path
         d="m 89.402344,722.8895 c -1.927094,2e-5 -3.45053,0.75522 -4.570313,2.26562 -1.119798,1.49741 -1.679693,3.5547 -1.679687,6.17188 -6e-6,2.61719 0.553379,4.68099 1.660156,6.1914 1.119783,1.4974 2.649729,2.2461 4.589844,2.2461 1.914048,0 3.430974,-0.75521 4.550781,-2.26563 1.119774,-1.51041 1.679669,-3.5677 1.679687,-6.17187 -1.8e-5,-2.59113 -0.559913,-4.64191 -1.679687,-6.15235 -1.119807,-1.52341 -2.636733,-2.28513 -4.550781,-2.28515 m 0,-3.04688 c 3.124984,3e-5 5.579409,1.01565 7.363281,3.04688 1.783833,2.03127 2.675759,4.84376 2.675781,8.4375 -2.2e-5,3.58073 -0.891948,6.39323 -2.675781,8.4375 -1.783872,2.03125 -4.238297,3.04687 -7.363281,3.04687 -3.13803,0 -5.598965,-1.01562 -7.382813,-3.04687 -1.770836,-2.04427 -2.656252,-4.85677 -2.65625,-8.4375 -2e-6,-3.59374 0.885414,-6.40623 2.65625,-8.4375 1.783848,-2.03123 4.244783,-3.04685 7.382813,-3.04688"
         style="fill:#ff0000"
         id="path10098" />
      <path
         d="m 118.05469,723.72934 c -0.40366,-0.23435 -0.84637,-0.40363 -1.32813,-0.50781 -0.46876,-0.11717 -0.98959,-0.17576 -1.5625,-0.17578 -2.03126,2e-5 -3.59376,0.66408 -4.6875,1.99219 -1.08073,1.31512 -1.6211,3.20964 -1.62109,5.68359 l 0,11.52344 -3.61328,0 0,-21.875 3.61328,0 0,3.39843 c 0.7552,-1.3281 1.73827,-2.31117 2.94922,-2.94921 1.21092,-0.65102 2.68228,-0.97654 4.41406,-0.97657 0.24738,3e-5 0.52082,0.0196 0.82031,0.0586 0.29947,0.0261 0.6315,0.0716 0.9961,0.13672 l 0.0195,3.6914"
         style="fill:#ff0000"
         id="path10100" />
      <path
         d="m 121.86328,720.36997 3.59375,0 0,21.875 -3.59375,0 0,-21.875 m 0,-8.51563 3.59375,0 0,4.55078 -3.59375,0 0,-4.55078"
         style="fill:#ff0000"
         id="path10102" />
      <path
         d="m 151.66797,730.40903 0,1.75781 -16.52344,0 c 0.15625,2.47397 0.89843,4.36199 2.22656,5.66406 1.34114,1.28907 3.20312,1.9336 5.58594,1.9336 1.38019,0 2.71483,-0.16927 4.00391,-0.50781 1.30206,-0.33854 2.59112,-0.84636 3.86718,-1.52344 l 0,3.39844 c -1.28908,0.54687 -2.61069,0.96354 -3.96484,1.25 -1.35418,0.28645 -2.72788,0.42968 -4.12109,0.42968 -3.4896,0 -6.25652,-1.01562 -8.30078,-3.04687 -2.03126,-2.03125 -3.04688,-4.77864 -3.04688,-8.24219 0,-3.58071 0.96354,-6.41925 2.89063,-8.51562 1.94009,-2.10936 4.55077,-3.16404 7.83203,-3.16407 2.94269,3e-5 5.26691,0.95054 6.97265,2.85157 1.71873,1.88803 2.57811,4.45965 2.57813,7.71484 m -3.59375,-1.05469 c -0.0261,-1.96613 -0.57945,-3.53514 -1.66016,-4.70703 -1.06772,-1.17186 -2.48699,-1.75779 -4.25781,-1.75781 -2.00522,2e-5 -3.61329,0.56642 -4.82422,1.69922 -1.19792,1.13283 -1.88803,2.72788 -2.07031,4.78515 l 12.8125,-0.0195"
         style="fill:#ff0000"
         id="path10104" />
      <path
         d="m 175.75,729.04184 0,13.20313 -3.59375,0 0,-13.08594 c -2e-5,-2.0703 -0.40366,-3.61978 -1.21094,-4.64844 -0.80731,-1.02863 -2.01824,-1.54295 -3.63281,-1.54297 -1.94012,2e-5 -3.47006,0.61851 -4.58984,1.85547 -1.1198,1.237 -1.6797,2.92319 -1.67969,5.0586 l 0,12.36328 -3.61328,0 0,-21.875 3.61328,0 0,3.39843 c 0.85937,-1.31508 1.86848,-2.29815 3.02734,-2.94921 1.17187,-0.65102 2.51952,-0.97654 4.04297,-0.97657 2.51301,3e-5 4.41405,0.78127 5.70313,2.34375 1.28904,1.5495 1.93357,3.83465 1.93359,6.85547"
         style="fill:#ff0000"
         id="path10106" />
      <path
         d="m 186.51172,714.15903 0,6.21094 7.40234,0 0,2.79297 -7.40234,0 0,11.875 c -1e-5,1.78385 0.24088,2.92969 0.72265,3.4375 0.49479,0.50781 1.49088,0.76172 2.98829,0.76171 l 3.6914,0 0,3.00782 -3.6914,0 c -2.77345,0 -4.68751,-0.51433 -5.74219,-1.54297 -1.05469,-1.04167 -1.58204,-2.92969 -1.58203,-5.66406 l 0,-11.875 -2.63672,0 0,-2.79297 2.63672,0 0,-6.21094 3.61328,0"
         style="fill:#ff0000"
         id="path10108" />
    </g>
  </g>
</svg>
