<?xml version="1.0" encoding="UTF-8" standalone="no"?>
<!DOCTYPE svg PUBLIC "-//W3C//DTD SVG 1.1//EN"
 "http://www.w3.org/Graphics/SVG/1.1/DTD/svg11.dtd">
<!-- Generated by graphviz version 2.43.0 (0)
 -->
<!-- Title: TransformConstraint.h Pages: 1 -->
<svg width="477pt" height="84pt"
 viewBox="0.00 0.00 476.50 84.00" xmlns="http://www.w3.org/2000/svg" xmlns:xlink="http://www.w3.org/1999/xlink">
<g id="graph0" class="graph" transform="scale(1 1) rotate(0) translate(4 80)">
<title>TransformConstraint.h</title>
<!-- Node1 -->
<g id="node1" class="node">
<title>Node1</title>
<g id="a_node1"><a xlink:title=" ">
<polygon fill="#bfbfbf" stroke="black" points="179,-56.5 179,-75.5 304,-75.5 304,-56.5 179,-56.5"/>
<text text-anchor="middle" x="241.5" y="-63.5" font-family="FreeSans.ttf" font-size="10.00">TransformConstraint.h</text>
</a>
</g>
</g>
<!-- Node2 -->
<g id="node2" class="node">
<title>Node2</title>
<g id="a_node2"><a xlink:href="InverseKinematicsData_8cpp.html" target="_top" xlink:title=" ">
<polygon fill="none" stroke="black" points="0,-0.5 0,-19.5 151,-19.5 151,-0.5 0,-0.5"/>
<text text-anchor="middle" x="75.5" y="-7.5" font-family="FreeSans.ttf" font-size="10.00">InverseKinematicsData.cpp</text>
</a>
</g>
</g>
<!-- Node1&#45;&gt;Node2 -->
<g id="edge1" class="edge">
<title>Node1&#45;&gt;Node2</title>
<path fill="none" stroke="midnightblue" d="M205.55,-53.3C174.27,-43.13 129.68,-28.62 101.68,-19.52"/>
<polygon fill="midnightblue" stroke="midnightblue" points="204.6,-56.68 215.2,-56.44 206.77,-50.02 204.6,-56.68"/>
</g>
<!-- Node3 -->
<g id="node3" class="node">
<title>Node3</title>
<g id="a_node3"><a xlink:href="InverseKinematicsNLP_8cpp.html" target="_top" xlink:title=" ">
<polygon fill="none" stroke="black" points="169,-0.5 169,-19.5 314,-19.5 314,-0.5 169,-0.5"/>
<text text-anchor="middle" x="241.5" y="-7.5" font-family="FreeSans.ttf" font-size="10.00">InverseKinematicsNLP.cpp</text>
</a>
</g>
</g>
<!-- Node1&#45;&gt;Node3 -->
<g id="edge2" class="edge">
<title>Node1&#45;&gt;Node3</title>
<path fill="none" stroke="midnightblue" d="M241.5,-45.8C241.5,-36.91 241.5,-26.78 241.5,-19.75"/>
<polygon fill="midnightblue" stroke="midnightblue" points="238,-46.08 241.5,-56.08 245,-46.08 238,-46.08"/>
</g>
<!-- Node4 -->
<g id="node4" class="node">
<title>Node4</title>
<g id="a_node4"><a xlink:href="TransformConstraint_8cpp.html" target="_top" xlink:title=" ">
<polygon fill="none" stroke="black" points="332.5,-0.5 332.5,-19.5 468.5,-19.5 468.5,-0.5 332.5,-0.5"/>
<text text-anchor="middle" x="400.5" y="-7.5" font-family="FreeSans.ttf" font-size="10.00">TransformConstraint.cpp</text>
</a>
</g>
</g>
<!-- Node1&#45;&gt;Node4 -->
<g id="edge3" class="edge">
<title>Node1&#45;&gt;Node4</title>
<path fill="none" stroke="midnightblue" d="M276.33,-53.17C306.27,-43 348.72,-28.59 375.42,-19.52"/>
<polygon fill="midnightblue" stroke="midnightblue" points="275.04,-49.91 266.69,-56.44 277.29,-56.54 275.04,-49.91"/>
</g>
</g>
</svg>
