<?xml version="1.0" encoding="UTF-8" standalone="no"?>
<!DOCTYPE svg PUBLIC "-//W3C//DTD SVG 1.1//EN"
 "http://www.w3.org/Graphics/SVG/1.1/DTD/svg11.dtd">
<!-- Generated by graphviz version 2.43.0 (0)
 -->
<!-- Title: Triplets.h Pages: 1 -->
<svg width="769pt" height="252pt"
 viewBox="0.00 0.00 768.50 252.00" xmlns="http://www.w3.org/2000/svg" xmlns:xlink="http://www.w3.org/1999/xlink">
<g id="graph0" class="graph" transform="scale(1 1) rotate(0) translate(4 248)">
<title>Triplets.h</title>
<!-- Node1 -->
<g id="node1" class="node">
<title>Node1</title>
<g id="a_node1"><a xlink:title=" ">
<polygon fill="#bfbfbf" stroke="black" points="604.5,-224.5 604.5,-243.5 665.5,-243.5 665.5,-224.5 604.5,-224.5"/>
<text text-anchor="middle" x="635" y="-231.5" font-family="FreeSans.ttf" font-size="10.00">Triplets.h</text>
</a>
</g>
</g>
<!-- Node2 -->
<g id="node2" class="node">
<title>Node2</title>
<g id="a_node2"><a xlink:href="MatrixFixSize_8h.html" target="_top" xlink:title=" ">
<polygon fill="none" stroke="black" points="347.5,-168.5 347.5,-187.5 510.5,-187.5 510.5,-168.5 347.5,-168.5"/>
<text text-anchor="middle" x="429" y="-175.5" font-family="FreeSans.ttf" font-size="10.00">iDynTree/Core/MatrixFixSize.h</text>
</a>
</g>
</g>
<!-- Node1&#45;&gt;Node2 -->
<g id="edge1" class="edge">
<title>Node1&#45;&gt;Node2</title>
<path fill="none" stroke="midnightblue" d="M604.16,-224.92C568.95,-215.69 511.13,-200.53 471.63,-190.17"/>
<polygon fill="midnightblue" stroke="midnightblue" points="472.32,-186.74 461.76,-187.59 470.54,-193.51 472.32,-186.74"/>
</g>
<!-- Node3 -->
<g id="node3" class="node">
<title>Node3</title>
<g id="a_node3"><a xlink:href="Utils_8h.html" target="_top" xlink:title=" ">
<polygon fill="none" stroke="black" points="65.5,-56.5 65.5,-75.5 184.5,-75.5 184.5,-56.5 65.5,-56.5"/>
<text text-anchor="middle" x="125" y="-63.5" font-family="FreeSans.ttf" font-size="10.00">iDynTree/Core/Utils.h</text>
</a>
</g>
</g>
<!-- Node1&#45;&gt;Node3 -->
<g id="edge24" class="edge">
<title>Node1&#45;&gt;Node3</title>
<path fill="none" stroke="midnightblue" d="M604.43,-231.32C506.32,-225.25 202.05,-201.09 138,-132 126.64,-119.75 123.98,-100.49 123.81,-86.11"/>
<polygon fill="midnightblue" stroke="midnightblue" points="127.32,-85.94 124.09,-75.85 120.32,-85.75 127.32,-85.94"/>
</g>
<!-- Node12 -->
<g id="node12" class="node">
<title>Node12</title>
<g id="a_node12"><a xlink:title=" ">
<polygon fill="none" stroke="#bfbfbf" points="678.5,-0.5 678.5,-19.5 731.5,-19.5 731.5,-0.5 678.5,-0.5"/>
<text text-anchor="middle" x="705" y="-7.5" font-family="FreeSans.ttf" font-size="10.00">iterator</text>
</a>
</g>
</g>
<!-- Node1&#45;&gt;Node12 -->
<g id="edge25" class="edge">
<title>Node1&#45;&gt;Node12</title>
<path fill="none" stroke="midnightblue" d="M637.74,-224.3C648.07,-191.56 684.7,-75.38 699.11,-29.67"/>
<polygon fill="midnightblue" stroke="midnightblue" points="702.53,-30.47 702.2,-19.88 695.85,-28.37 702.53,-30.47"/>
</g>
<!-- Node17 -->
<g id="node17" class="node">
<title>Node17</title>
<g id="a_node17"><a xlink:title=" ">
<polygon fill="none" stroke="#bfbfbf" points="613,-112.5 613,-131.5 657,-131.5 657,-112.5 613,-112.5"/>
<text text-anchor="middle" x="635" y="-119.5" font-family="FreeSans.ttf" font-size="10.00">string</text>
</a>
</g>
</g>
<!-- Node1&#45;&gt;Node17 -->
<g id="edge26" class="edge">
<title>Node1&#45;&gt;Node17</title>
<path fill="none" stroke="midnightblue" d="M635,-224.37C635,-206.62 635,-165.67 635,-141.6"/>
<polygon fill="midnightblue" stroke="midnightblue" points="638.5,-141.59 635,-131.59 631.5,-141.59 638.5,-141.59"/>
</g>
<!-- Node20 -->
<g id="node20" class="node">
<title>Node20</title>
<g id="a_node20"><a xlink:title=" ">
<polygon fill="none" stroke="#bfbfbf" points="713.5,-168.5 713.5,-187.5 760.5,-187.5 760.5,-168.5 713.5,-168.5"/>
<text text-anchor="middle" x="737" y="-175.5" font-family="FreeSans.ttf" font-size="10.00">vector</text>
</a>
</g>
</g>
<!-- Node1&#45;&gt;Node20 -->
<g id="edge27" class="edge">
<title>Node1&#45;&gt;Node20</title>
<path fill="none" stroke="midnightblue" d="M651.39,-224.32C667.67,-215.7 692.87,-202.36 711.72,-192.39"/>
<polygon fill="midnightblue" stroke="midnightblue" points="713.45,-195.43 720.65,-187.65 710.18,-189.24 713.45,-195.43"/>
</g>
<!-- Node2&#45;&gt;Node3 -->
<g id="edge2" class="edge">
<title>Node2&#45;&gt;Node3</title>
<path fill="none" stroke="midnightblue" d="M422.21,-168.21C410.67,-153.95 385.77,-125.97 358,-112 306.97,-86.33 242.88,-75.27 194.84,-70.52"/>
<polygon fill="midnightblue" stroke="midnightblue" points="195.12,-67.03 184.84,-69.6 194.48,-74 195.12,-67.03"/>
</g>
<!-- Node6 -->
<g id="node6" class="node">
<title>Node6</title>
<g id="a_node6"><a xlink:href="MatrixView_8h.html" target="_top" xlink:title=" ">
<polygon fill="none" stroke="black" points="405,-112.5 405,-131.5 557,-131.5 557,-112.5 405,-112.5"/>
<text text-anchor="middle" x="481" y="-119.5" font-family="FreeSans.ttf" font-size="10.00">iDynTree/Core/MatrixView.h</text>
</a>
</g>
</g>
<!-- Node2&#45;&gt;Node6 -->
<g id="edge5" class="edge">
<title>Node2&#45;&gt;Node6</title>
<path fill="none" stroke="midnightblue" d="M437.59,-168.08C445.16,-160.22 456.38,-148.57 465.51,-139.08"/>
<polygon fill="midnightblue" stroke="midnightblue" points="468.16,-141.38 472.57,-131.75 463.12,-136.53 468.16,-141.38"/>
</g>
<!-- Node7 -->
<g id="node7" class="node">
<title>Node7</title>
<g id="a_node7"><a xlink:title=" ">
<polygon fill="none" stroke="#bfbfbf" points="608,-0.5 608,-19.5 660,-19.5 660,-0.5 608,-0.5"/>
<text text-anchor="middle" x="634" y="-7.5" font-family="FreeSans.ttf" font-size="10.00">cassert</text>
</a>
</g>
</g>
<!-- Node2&#45;&gt;Node7 -->
<g id="edge19" class="edge">
<title>Node2&#45;&gt;Node7</title>
<path fill="none" stroke="midnightblue" d="M484.6,-168.47C511.5,-162.07 542.89,-151 566,-132 599.54,-104.43 619.55,-55.73 628.46,-29.3"/>
<polygon fill="midnightblue" stroke="midnightblue" points="631.8,-30.35 631.52,-19.76 625.14,-28.21 631.8,-30.35"/>
</g>
<!-- Node16 -->
<g id="node16" class="node">
<title>Node16</title>
<g id="a_node16"><a xlink:title=" ">
<polygon fill="none" stroke="#bfbfbf" points="147,-112.5 147,-131.5 197,-131.5 197,-112.5 147,-112.5"/>
<text text-anchor="middle" x="172" y="-119.5" font-family="FreeSans.ttf" font-size="10.00">cstring</text>
</a>
</g>
</g>
<!-- Node2&#45;&gt;Node16 -->
<g id="edge20" class="edge">
<title>Node2&#45;&gt;Node16</title>
<path fill="none" stroke="midnightblue" d="M382.7,-168.49C339.6,-160.38 273.35,-147.45 207,-132.13"/>
<polygon fill="midnightblue" stroke="midnightblue" points="207.74,-128.71 197.21,-129.85 206.16,-135.53 207.74,-128.71"/>
</g>
<!-- Node2&#45;&gt;Node17 -->
<g id="edge21" class="edge">
<title>Node2&#45;&gt;Node17</title>
<path fill="none" stroke="midnightblue" d="M461.64,-168.44C500.32,-158.3 564.36,-141.52 602.83,-131.43"/>
<polygon fill="midnightblue" stroke="midnightblue" points="604.18,-134.7 612.96,-128.78 602.4,-127.93 604.18,-134.7"/>
</g>
<!-- Node18 -->
<g id="node18" class="node">
<title>Node18</title>
<g id="a_node18"><a xlink:title=" ">
<polygon fill="none" stroke="#bfbfbf" points="215,-112.5 215,-131.5 275,-131.5 275,-112.5 215,-112.5"/>
<text text-anchor="middle" x="245" y="-119.5" font-family="FreeSans.ttf" font-size="10.00">iostream</text>
</a>
</g>
</g>
<!-- Node2&#45;&gt;Node18 -->
<g id="edge22" class="edge">
<title>Node2&#45;&gt;Node18</title>
<path fill="none" stroke="midnightblue" d="M399.84,-168.44C368.49,-159.24 318.47,-144.56 283.8,-134.39"/>
<polygon fill="midnightblue" stroke="midnightblue" points="284.6,-130.97 274.02,-131.52 282.63,-137.69 284.6,-130.97"/>
</g>
<!-- Node19 -->
<g id="node19" class="node">
<title>Node19</title>
<g id="a_node19"><a xlink:title=" ">
<polygon fill="none" stroke="#bfbfbf" points="293,-112.5 293,-131.5 349,-131.5 349,-112.5 293,-112.5"/>
<text text-anchor="middle" x="321" y="-119.5" font-family="FreeSans.ttf" font-size="10.00">sstream</text>
</a>
</g>
</g>
<!-- Node2&#45;&gt;Node19 -->
<g id="edge23" class="edge">
<title>Node2&#45;&gt;Node19</title>
<path fill="none" stroke="midnightblue" d="M411.65,-168.32C394.33,-159.66 367.48,-146.24 347.5,-136.25"/>
<polygon fill="midnightblue" stroke="midnightblue" points="348.82,-133 338.31,-131.65 345.69,-139.26 348.82,-133"/>
</g>
<!-- Node4 -->
<g id="node4" class="node">
<title>Node4</title>
<g id="a_node4"><a xlink:title=" ">
<polygon fill="none" stroke="#bfbfbf" points="98.5,-0.5 98.5,-19.5 151.5,-19.5 151.5,-0.5 98.5,-0.5"/>
<text text-anchor="middle" x="125" y="-7.5" font-family="FreeSans.ttf" font-size="10.00">cstddef</text>
</a>
</g>
</g>
<!-- Node3&#45;&gt;Node4 -->
<g id="edge3" class="edge">
<title>Node3&#45;&gt;Node4</title>
<path fill="none" stroke="midnightblue" d="M125,-56.08C125,-49.01 125,-38.86 125,-29.99"/>
<polygon fill="midnightblue" stroke="midnightblue" points="128.5,-29.75 125,-19.75 121.5,-29.75 128.5,-29.75"/>
</g>
<!-- Node5 -->
<g id="node5" class="node">
<title>Node5</title>
<g id="a_node5"><a xlink:title=" ">
<polygon fill="none" stroke="#bfbfbf" points="0,-0.5 0,-19.5 80,-19.5 80,-0.5 0,-0.5"/>
<text text-anchor="middle" x="40" y="-7.5" font-family="FreeSans.ttf" font-size="10.00">CoreExport.h</text>
</a>
</g>
</g>
<!-- Node3&#45;&gt;Node5 -->
<g id="edge4" class="edge">
<title>Node3&#45;&gt;Node5</title>
<path fill="none" stroke="midnightblue" d="M111.34,-56.32C98.08,-47.9 77.73,-34.97 62.15,-25.07"/>
<polygon fill="midnightblue" stroke="midnightblue" points="63.94,-22.06 53.62,-19.65 60.19,-27.97 63.94,-22.06"/>
</g>
<!-- Node6&#45;&gt;Node3 -->
<g id="edge18" class="edge">
<title>Node6&#45;&gt;Node3</title>
<path fill="none" stroke="midnightblue" d="M424.59,-112.44C361.19,-102.83 258.35,-87.23 191.2,-77.04"/>
<polygon fill="midnightblue" stroke="midnightblue" points="191.56,-73.56 181.15,-75.52 190.51,-80.48 191.56,-73.56"/>
</g>
<!-- Node6&#45;&gt;Node7 -->
<g id="edge6" class="edge">
<title>Node6&#45;&gt;Node7</title>
<path fill="none" stroke="midnightblue" d="M492.92,-112.36C510.14,-99.89 542.98,-76.13 571,-56 585.23,-45.78 601.31,-34.3 613.65,-25.49"/>
<polygon fill="midnightblue" stroke="midnightblue" points="615.8,-28.26 621.91,-19.61 611.73,-22.56 615.8,-28.26"/>
</g>
<!-- Node8 -->
<g id="node8" class="node">
<title>Node8</title>
<g id="a_node8"><a xlink:title=" ">
<polygon fill="none" stroke="#bfbfbf" points="169.5,-0.5 169.5,-19.5 238.5,-19.5 238.5,-0.5 169.5,-0.5"/>
<text text-anchor="middle" x="204" y="-7.5" font-family="FreeSans.ttf" font-size="10.00">type_traits</text>
</a>
</g>
</g>
<!-- Node6&#45;&gt;Node8 -->
<g id="edge7" class="edge">
<title>Node6&#45;&gt;Node8</title>
<path fill="none" stroke="midnightblue" d="M456.58,-112.35C431.86,-103.51 392.61,-89.24 359,-76 314.9,-58.63 264.37,-37.14 233.31,-23.74"/>
<polygon fill="midnightblue" stroke="midnightblue" points="234.52,-20.45 223.95,-19.7 231.74,-26.88 234.52,-20.45"/>
</g>
<!-- Node9 -->
<g id="node9" class="node">
<title>Node9</title>
<g id="a_node9"><a xlink:href="Span_8h.html" target="_top" xlink:title=" ">
<polygon fill="none" stroke="black" points="367.5,-56.5 367.5,-75.5 488.5,-75.5 488.5,-56.5 367.5,-56.5"/>
<text text-anchor="middle" x="428" y="-63.5" font-family="FreeSans.ttf" font-size="10.00">iDynTree/Core/Span.h</text>
</a>
</g>
</g>
<!-- Node6&#45;&gt;Node9 -->
<g id="edge8" class="edge">
<title>Node6&#45;&gt;Node9</title>
<path fill="none" stroke="midnightblue" d="M472.25,-112.08C464.53,-104.22 453.1,-92.57 443.78,-83.08"/>
<polygon fill="midnightblue" stroke="midnightblue" points="446.09,-80.44 436.59,-75.75 441.1,-85.34 446.09,-80.44"/>
</g>
<!-- Node9&#45;&gt;Node4 -->
<g id="edge12" class="edge">
<title>Node9&#45;&gt;Node4</title>
<path fill="none" stroke="midnightblue" d="M368.38,-56.48C316.12,-48.68 237.93,-36.18 161.49,-20.19"/>
<polygon fill="midnightblue" stroke="midnightblue" points="162.21,-16.76 151.7,-18.12 160.76,-23.61 162.21,-16.76"/>
</g>
<!-- Node9&#45;&gt;Node7 -->
<g id="edge9" class="edge">
<title>Node9&#45;&gt;Node7</title>
<path fill="none" stroke="midnightblue" d="M460.64,-56.44C498.03,-46.64 559.11,-30.63 597.89,-20.47"/>
<polygon fill="midnightblue" stroke="midnightblue" points="598.94,-23.81 607.72,-17.89 597.16,-17.04 598.94,-23.81"/>
</g>
<!-- Node9&#45;&gt;Node8 -->
<g id="edge16" class="edge">
<title>Node9&#45;&gt;Node8</title>
<path fill="none" stroke="midnightblue" d="M392.51,-56.44C353.45,-47.03 290.61,-31.88 248.34,-21.69"/>
<polygon fill="midnightblue" stroke="midnightblue" points="249.13,-18.28 238.59,-19.34 247.49,-25.09 249.13,-18.28"/>
</g>
<!-- Node10 -->
<g id="node10" class="node">
<title>Node10</title>
<g id="a_node10"><a xlink:title=" ">
<polygon fill="none" stroke="#bfbfbf" points="320,-0.5 320,-19.5 384,-19.5 384,-0.5 320,-0.5"/>
<text text-anchor="middle" x="352" y="-7.5" font-family="FreeSans.ttf" font-size="10.00">algorithm</text>
</a>
</g>
</g>
<!-- Node9&#45;&gt;Node10 -->
<g id="edge10" class="edge">
<title>Node9&#45;&gt;Node10</title>
<path fill="none" stroke="midnightblue" d="M415.79,-56.32C404.22,-48.11 386.62,-35.6 372.84,-25.81"/>
<polygon fill="midnightblue" stroke="midnightblue" points="374.61,-22.77 364.43,-19.83 370.56,-28.48 374.61,-22.77"/>
</g>
<!-- Node11 -->
<g id="node11" class="node">
<title>Node11</title>
<g id="a_node11"><a xlink:title=" ">
<polygon fill="none" stroke="#bfbfbf" points="402,-0.5 402,-19.5 444,-19.5 444,-0.5 402,-0.5"/>
<text text-anchor="middle" x="423" y="-7.5" font-family="FreeSans.ttf" font-size="10.00">array</text>
</a>
</g>
</g>
<!-- Node9&#45;&gt;Node11 -->
<g id="edge11" class="edge">
<title>Node9&#45;&gt;Node11</title>
<path fill="none" stroke="midnightblue" d="M427.17,-56.08C426.52,-49.01 425.58,-38.86 424.76,-29.99"/>
<polygon fill="midnightblue" stroke="midnightblue" points="428.22,-29.39 423.81,-19.75 421.25,-30.03 428.22,-29.39"/>
</g>
<!-- Node9&#45;&gt;Node12 -->
<g id="edge13" class="edge">
<title>Node9&#45;&gt;Node12</title>
<path fill="none" stroke="midnightblue" d="M478.49,-56.49C525.18,-48.41 596.72,-35.51 668.22,-20.06"/>
<polygon fill="midnightblue" stroke="midnightblue" points="669.28,-23.41 678.31,-17.86 667.79,-16.57 669.28,-23.41"/>
</g>
<!-- Node13 -->
<g id="node13" class="node">
<title>Node13</title>
<g id="a_node13"><a xlink:title=" ">
<polygon fill="none" stroke="#bfbfbf" points="462,-0.5 462,-19.5 506,-19.5 506,-0.5 462,-0.5"/>
<text text-anchor="middle" x="484" y="-7.5" font-family="FreeSans.ttf" font-size="10.00">limits</text>
</a>
</g>
</g>
<!-- Node9&#45;&gt;Node13 -->
<g id="edge14" class="edge">
<title>Node9&#45;&gt;Node13</title>
<path fill="none" stroke="midnightblue" d="M437,-56.32C445.19,-48.42 457.51,-36.55 467.47,-26.94"/>
<polygon fill="midnightblue" stroke="midnightblue" points="470.07,-29.29 474.84,-19.83 465.21,-24.26 470.07,-29.29"/>
</g>
<!-- Node14 -->
<g id="node14" class="node">
<title>Node14</title>
<g id="a_node14"><a xlink:title=" ">
<polygon fill="none" stroke="#bfbfbf" points="524.5,-0.5 524.5,-19.5 589.5,-19.5 589.5,-0.5 524.5,-0.5"/>
<text text-anchor="middle" x="557" y="-7.5" font-family="FreeSans.ttf" font-size="10.00">stdexcept</text>
</a>
</g>
</g>
<!-- Node9&#45;&gt;Node14 -->
<g id="edge15" class="edge">
<title>Node9&#45;&gt;Node14</title>
<path fill="none" stroke="midnightblue" d="M448.44,-56.44C469.67,-47.56 503.1,-33.56 527.25,-23.45"/>
<polygon fill="midnightblue" stroke="midnightblue" points="528.78,-26.61 536.66,-19.52 526.08,-20.15 528.78,-26.61"/>
</g>
<!-- Node15 -->
<g id="node15" class="node">
<title>Node15</title>
<g id="a_node15"><a xlink:title=" ">
<polygon fill="none" stroke="#bfbfbf" points="256.5,-0.5 256.5,-19.5 301.5,-19.5 301.5,-0.5 256.5,-0.5"/>
<text text-anchor="middle" x="279" y="-7.5" font-family="FreeSans.ttf" font-size="10.00">utility</text>
</a>
</g>
</g>
<!-- Node9&#45;&gt;Node15 -->
<g id="edge17" class="edge">
<title>Node9&#45;&gt;Node15</title>
<path fill="none" stroke="midnightblue" d="M404.39,-56.44C379.25,-47.33 339.3,-32.85 311.26,-22.69"/>
<polygon fill="midnightblue" stroke="midnightblue" points="312.12,-19.28 301.52,-19.16 309.73,-25.86 312.12,-19.28"/>
</g>
</g>
</svg>
