<?xml version="1.0" encoding="UTF-8" standalone="no"?>
<!DOCTYPE svg PUBLIC "-//W3C//DTD SVG 1.1//EN"
 "http://www.w3.org/Graphics/SVG/1.1/DTD/svg11.dtd">
<!-- Generated by graphviz version 2.43.0 (0)
 -->
<!-- Title: Twist.cpp Pages: 1 -->
<svg width="1361pt" height="655pt"
 viewBox="0.00 0.00 1361.00 655.00" xmlns="http://www.w3.org/2000/svg" xmlns:xlink="http://www.w3.org/1999/xlink">
<g id="graph0" class="graph" transform="scale(1 1) rotate(0) translate(4 651)">
<title>Twist.cpp</title>
<!-- Node1 -->
<g id="node1" class="node">
<title>Node1</title>
<g id="a_node1"><a xlink:title=" ">
<polygon fill="#bfbfbf" stroke="black" points="991.5,-627.5 991.5,-646.5 1053.5,-646.5 1053.5,-627.5 991.5,-627.5"/>
<text text-anchor="middle" x="1022.5" y="-634.5" font-family="FreeSans.ttf" font-size="10.00">Twist.cpp</text>
</a>
</g>
</g>
<!-- Node2 -->
<g id="node2" class="node">
<title>Node2</title>
<g id="a_node2"><a xlink:href="Twist_8h.html" target="_top" xlink:title=" ">
<polygon fill="none" stroke="black" points="696.5,-515.5 696.5,-534.5 818.5,-534.5 818.5,-515.5 696.5,-515.5"/>
<text text-anchor="middle" x="757.5" y="-522.5" font-family="FreeSans.ttf" font-size="10.00">iDynTree/Core/Twist.h</text>
</a>
</g>
</g>
<!-- Node1&#45;&gt;Node2 -->
<g id="edge1" class="edge">
<title>Node1&#45;&gt;Node2</title>
<path fill="none" stroke="midnightblue" d="M991.2,-634.69C930.8,-631.51 801.38,-621.24 770.5,-591 758.43,-579.18 755.93,-559.55 755.99,-544.95"/>
<polygon fill="midnightblue" stroke="midnightblue" points="759.5,-544.71 756.45,-534.56 752.51,-544.4 759.5,-544.71"/>
</g>
<!-- Node29 -->
<g id="node29" class="node">
<title>Node29</title>
<g id="a_node29"><a xlink:href="Wrench_8h.html" target="_top" xlink:title=" ">
<polygon fill="none" stroke="black" points="1057.5,-515.5 1057.5,-534.5 1191.5,-534.5 1191.5,-515.5 1057.5,-515.5"/>
<text text-anchor="middle" x="1124.5" y="-522.5" font-family="FreeSans.ttf" font-size="10.00">iDynTree/Core/Wrench.h</text>
</a>
</g>
</g>
<!-- Node1&#45;&gt;Node29 -->
<g id="edge53" class="edge">
<title>Node1&#45;&gt;Node29</title>
<path fill="none" stroke="midnightblue" d="M1052.15,-627.49C1070.97,-620.61 1094.36,-609.03 1108.5,-591 1118.91,-577.72 1122.66,-558.6 1123.95,-544.53"/>
<polygon fill="midnightblue" stroke="midnightblue" points="1127.45,-544.73 1124.55,-534.54 1120.46,-544.32 1127.45,-544.73"/>
</g>
<!-- Node31 -->
<g id="node31" class="node">
<title>Node31</title>
<g id="a_node31"><a xlink:href="SpatialAcc_8h.html" target="_top" xlink:title=" ">
<polygon fill="none" stroke="black" points="779.5,-571.5 779.5,-590.5 927.5,-590.5 927.5,-571.5 779.5,-571.5"/>
<text text-anchor="middle" x="853.5" y="-578.5" font-family="FreeSans.ttf" font-size="10.00">iDynTree/Core/SpatialAcc.h</text>
</a>
</g>
</g>
<!-- Node1&#45;&gt;Node31 -->
<g id="edge58" class="edge">
<title>Node1&#45;&gt;Node31</title>
<path fill="none" stroke="midnightblue" d="M995.72,-627.44C967.17,-618.32 921.77,-603.81 889.96,-593.65"/>
<polygon fill="midnightblue" stroke="midnightblue" points="890.74,-590.23 880.15,-590.52 888.61,-596.89 890.74,-590.23"/>
</g>
<!-- Node32 -->
<g id="node32" class="node">
<title>Node32</title>
<g id="a_node32"><a xlink:href="SpatialMomentum_8h.html" target="_top" xlink:title=" ">
<polygon fill="none" stroke="black" points="1158,-571.5 1158,-590.5 1345,-590.5 1345,-571.5 1158,-571.5"/>
<text text-anchor="middle" x="1251.5" y="-578.5" font-family="FreeSans.ttf" font-size="10.00">iDynTree/Core/SpatialMomentum.h</text>
</a>
</g>
</g>
<!-- Node1&#45;&gt;Node32 -->
<g id="edge60" class="edge">
<title>Node1&#45;&gt;Node32</title>
<path fill="none" stroke="midnightblue" d="M1053.86,-628.6C1093.04,-619.37 1160.38,-603.49 1205.42,-592.87"/>
<polygon fill="midnightblue" stroke="midnightblue" points="1206.31,-596.25 1215.24,-590.55 1204.7,-589.44 1206.31,-596.25"/>
</g>
<!-- Node33 -->
<g id="node33" class="node">
<title>Node33</title>
<g id="a_node33"><a xlink:href="PrivateUtils_8h.html" target="_top" xlink:title=" ">
<polygon fill="none" stroke="black" points="945.5,-571.5 945.5,-590.5 1099.5,-590.5 1099.5,-571.5 945.5,-571.5"/>
<text text-anchor="middle" x="1022.5" y="-578.5" font-family="FreeSans.ttf" font-size="10.00">iDynTree/Core/PrivateUtils.h</text>
</a>
</g>
</g>
<!-- Node1&#45;&gt;Node33 -->
<g id="edge62" class="edge">
<title>Node1&#45;&gt;Node33</title>
<path fill="none" stroke="midnightblue" d="M1022.5,-627.08C1022.5,-620.01 1022.5,-609.86 1022.5,-600.99"/>
<polygon fill="midnightblue" stroke="midnightblue" points="1026,-600.75 1022.5,-590.75 1019,-600.75 1026,-600.75"/>
</g>
<!-- Node3 -->
<g id="node3" class="node">
<title>Node3</title>
<g id="a_node3"><a xlink:href="SpatialMotionVector_8h.html" target="_top" xlink:title=" ">
<polygon fill="none" stroke="black" points="772,-448.5 772,-478.5 927,-478.5 927,-448.5 772,-448.5"/>
<text text-anchor="start" x="780" y="-466.5" font-family="FreeSans.ttf" font-size="10.00">iDynTree/Core/SpatialMotion</text>
<text text-anchor="middle" x="849.5" y="-455.5" font-family="FreeSans.ttf" font-size="10.00">Vector.h</text>
</a>
</g>
</g>
<!-- Node2&#45;&gt;Node3 -->
<g id="edge2" class="edge">
<title>Node2&#45;&gt;Node3</title>
<path fill="none" stroke="midnightblue" d="M770.68,-515.48C783.26,-507.34 802.66,-494.79 819.07,-484.18"/>
<polygon fill="midnightblue" stroke="midnightblue" points="821.32,-486.89 827.82,-478.52 817.52,-481.01 821.32,-486.89"/>
</g>
<!-- Node4 -->
<g id="node4" class="node">
<title>Node4</title>
<g id="a_node4"><a xlink:href="VectorFixSize_8h.html" target="_top" xlink:title=" ">
<polygon fill="none" stroke="black" points="840.5,-168.5 840.5,-187.5 1002.5,-187.5 1002.5,-168.5 840.5,-168.5"/>
<text text-anchor="middle" x="921.5" y="-175.5" font-family="FreeSans.ttf" font-size="10.00">iDynTree/Core/VectorFixSize.h</text>
</a>
</g>
</g>
<!-- Node3&#45;&gt;Node4 -->
<g id="edge3" class="edge">
<title>Node3&#45;&gt;Node4</title>
<path fill="none" stroke="midnightblue" d="M841.63,-448.41C830.5,-427.13 811.5,-385.21 811.5,-347 811.5,-347 811.5,-347 811.5,-289 811.5,-258.9 811.16,-247.06 830.5,-224 843.31,-208.73 862.55,-198.17 880.05,-191.14"/>
<polygon fill="midnightblue" stroke="midnightblue" points="881.4,-194.37 889.54,-187.59 878.95,-187.82 881.4,-194.37"/>
</g>
<!-- Node20 -->
<g id="node20" class="node">
<title>Node20</title>
<g id="a_node20"><a xlink:href="GeomVector3_8h.html" target="_top" xlink:title=" ">
<polygon fill="none" stroke="black" points="840,-224.5 840,-243.5 1003,-243.5 1003,-224.5 840,-224.5"/>
<text text-anchor="middle" x="921.5" y="-231.5" font-family="FreeSans.ttf" font-size="10.00">iDynTree/Core/GeomVector3.h</text>
</a>
</g>
</g>
<!-- Node3&#45;&gt;Node20 -->
<g id="edge22" class="edge">
<title>Node3&#45;&gt;Node20</title>
<path fill="none" stroke="midnightblue" d="M853.31,-448.4C857.2,-434.13 863.52,-411.46 869.5,-392 884.98,-341.62 904.99,-282.77 915.08,-253.5"/>
<polygon fill="midnightblue" stroke="midnightblue" points="918.47,-254.4 918.43,-243.81 911.86,-252.12 918.47,-254.4"/>
</g>
<!-- Node21 -->
<g id="node21" class="node">
<title>Node21</title>
<g id="a_node21"><a xlink:href="SpatialVector_8h.html" target="_top" xlink:title=" ">
<polygon fill="none" stroke="black" points="878,-392.5 878,-411.5 1039,-411.5 1039,-392.5 878,-392.5"/>
<text text-anchor="middle" x="958.5" y="-399.5" font-family="FreeSans.ttf" font-size="10.00">iDynTree/Core/SpatialVector.h</text>
</a>
</g>
</g>
<!-- Node3&#45;&gt;Node21 -->
<g id="edge24" class="edge">
<title>Node3&#45;&gt;Node21</title>
<path fill="none" stroke="midnightblue" d="M875.33,-448.4C892.97,-438.77 916.2,-426.09 933.63,-416.58"/>
<polygon fill="midnightblue" stroke="midnightblue" points="935.54,-419.52 942.64,-411.66 932.19,-413.38 935.54,-419.52"/>
</g>
<!-- Node5 -->
<g id="node5" class="node">
<title>Node5</title>
<g id="a_node5"><a xlink:href="Utils_8h.html" target="_top" xlink:title=" ">
<polygon fill="none" stroke="black" points="1044,-56.5 1044,-75.5 1163,-75.5 1163,-56.5 1044,-56.5"/>
<text text-anchor="middle" x="1103.5" y="-63.5" font-family="FreeSans.ttf" font-size="10.00">iDynTree/Core/Utils.h</text>
</a>
</g>
</g>
<!-- Node4&#45;&gt;Node5 -->
<g id="edge4" class="edge">
<title>Node4&#45;&gt;Node5</title>
<path fill="none" stroke="midnightblue" d="M948.87,-168.38C971.45,-160.64 1003.82,-148.02 1029.5,-132 1051.82,-118.08 1074.03,-97.42 1088.21,-83.15"/>
<polygon fill="midnightblue" stroke="midnightblue" points="1091.1,-85.19 1095.57,-75.58 1086.09,-80.31 1091.1,-85.19"/>
</g>
<!-- Node6 -->
<g id="node6" class="node">
<title>Node6</title>
<g id="a_node6"><a xlink:title=" ">
<polygon fill="none" stroke="#bfbfbf" points="991,-0.5 991,-19.5 1044,-19.5 1044,-0.5 991,-0.5"/>
<text text-anchor="middle" x="1017.5" y="-7.5" font-family="FreeSans.ttf" font-size="10.00">cstddef</text>
</a>
</g>
</g>
<!-- Node4&#45;&gt;Node6 -->
<g id="edge20" class="edge">
<title>Node4&#45;&gt;Node6</title>
<path fill="none" stroke="midnightblue" d="M943.5,-168.37C959.28,-161.04 979.74,-148.99 991.5,-132 1013.03,-100.9 1017.24,-55.36 1017.78,-29.94"/>
<polygon fill="midnightblue" stroke="midnightblue" points="1021.28,-29.81 1017.81,-19.8 1014.28,-29.79 1021.28,-29.81"/>
</g>
<!-- Node8 -->
<g id="node8" class="node">
<title>Node8</title>
<g id="a_node8"><a xlink:href="Span_8h.html" target="_top" xlink:title=" ">
<polygon fill="none" stroke="black" points="456,-56.5 456,-75.5 577,-75.5 577,-56.5 456,-56.5"/>
<text text-anchor="middle" x="516.5" y="-63.5" font-family="FreeSans.ttf" font-size="10.00">iDynTree/Core/Span.h</text>
</a>
</g>
</g>
<!-- Node4&#45;&gt;Node8 -->
<g id="edge7" class="edge">
<title>Node4&#45;&gt;Node8</title>
<path fill="none" stroke="midnightblue" d="M914.29,-168.04C902.06,-153.54 875.7,-125.21 846.5,-112 801.55,-91.67 669.91,-78.45 587.12,-71.89"/>
<polygon fill="midnightblue" stroke="midnightblue" points="587.27,-68.39 577.02,-71.11 586.72,-75.37 587.27,-68.39"/>
</g>
<!-- Node9 -->
<g id="node9" class="node">
<title>Node9</title>
<g id="a_node9"><a xlink:title=" ">
<polygon fill="none" stroke="#bfbfbf" points="749.5,-0.5 749.5,-19.5 801.5,-19.5 801.5,-0.5 749.5,-0.5"/>
<text text-anchor="middle" x="775.5" y="-7.5" font-family="FreeSans.ttf" font-size="10.00">cassert</text>
</a>
</g>
</g>
<!-- Node4&#45;&gt;Node9 -->
<g id="edge19" class="edge">
<title>Node4&#45;&gt;Node9</title>
<path fill="none" stroke="midnightblue" d="M932.98,-168.12C947.77,-155.55 970.25,-131.9 958.5,-112 926.82,-58.33 855.29,-31.22 811.63,-19.18"/>
<polygon fill="midnightblue" stroke="midnightblue" points="812.27,-15.73 801.71,-16.57 810.49,-22.5 812.27,-15.73"/>
</g>
<!-- Node17 -->
<g id="node17" class="node">
<title>Node17</title>
<g id="a_node17"><a xlink:title=" ">
<polygon fill="none" stroke="#bfbfbf" points="325.5,-112.5 325.5,-131.5 369.5,-131.5 369.5,-112.5 325.5,-112.5"/>
<text text-anchor="middle" x="347.5" y="-119.5" font-family="FreeSans.ttf" font-size="10.00">string</text>
</a>
</g>
</g>
<!-- Node4&#45;&gt;Node17 -->
<g id="edge17" class="edge">
<title>Node4&#45;&gt;Node17</title>
<path fill="none" stroke="midnightblue" d="M840.48,-169.38C712.02,-157.29 467.22,-134.26 379.65,-126.02"/>
<polygon fill="midnightblue" stroke="midnightblue" points="379.81,-122.52 369.53,-125.07 379.16,-129.49 379.81,-122.52"/>
</g>
<!-- Node18 -->
<g id="node18" class="node">
<title>Node18</title>
<g id="a_node18"><a xlink:title=" ">
<polygon fill="none" stroke="#bfbfbf" points="893.5,-112.5 893.5,-131.5 949.5,-131.5 949.5,-112.5 893.5,-112.5"/>
<text text-anchor="middle" x="921.5" y="-119.5" font-family="FreeSans.ttf" font-size="10.00">sstream</text>
</a>
</g>
</g>
<!-- Node4&#45;&gt;Node18 -->
<g id="edge18" class="edge">
<title>Node4&#45;&gt;Node18</title>
<path fill="none" stroke="midnightblue" d="M921.5,-168.08C921.5,-161.01 921.5,-150.86 921.5,-141.99"/>
<polygon fill="midnightblue" stroke="midnightblue" points="925,-141.75 921.5,-131.75 918,-141.75 925,-141.75"/>
</g>
<!-- Node19 -->
<g id="node19" class="node">
<title>Node19</title>
<g id="a_node19"><a xlink:title=" ">
<polygon fill="none" stroke="#bfbfbf" points="787.5,-112.5 787.5,-131.5 837.5,-131.5 837.5,-112.5 787.5,-112.5"/>
<text text-anchor="middle" x="812.5" y="-119.5" font-family="FreeSans.ttf" font-size="10.00">cstring</text>
</a>
</g>
</g>
<!-- Node4&#45;&gt;Node19 -->
<g id="edge21" class="edge">
<title>Node4&#45;&gt;Node19</title>
<path fill="none" stroke="midnightblue" d="M903.99,-168.32C886.43,-159.62 859.17,-146.12 838.97,-136.11"/>
<polygon fill="midnightblue" stroke="midnightblue" points="840.48,-132.96 829.97,-131.65 837.38,-139.23 840.48,-132.96"/>
</g>
<!-- Node5&#45;&gt;Node6 -->
<g id="edge5" class="edge">
<title>Node5&#45;&gt;Node6</title>
<path fill="none" stroke="midnightblue" d="M1089.68,-56.32C1076.27,-47.9 1055.68,-34.97 1039.91,-25.07"/>
<polygon fill="midnightblue" stroke="midnightblue" points="1041.61,-22.01 1031.28,-19.65 1037.89,-27.94 1041.61,-22.01"/>
</g>
<!-- Node7 -->
<g id="node7" class="node">
<title>Node7</title>
<g id="a_node7"><a xlink:title=" ">
<polygon fill="none" stroke="#bfbfbf" points="1063.5,-0.5 1063.5,-19.5 1143.5,-19.5 1143.5,-0.5 1063.5,-0.5"/>
<text text-anchor="middle" x="1103.5" y="-7.5" font-family="FreeSans.ttf" font-size="10.00">CoreExport.h</text>
</a>
</g>
</g>
<!-- Node5&#45;&gt;Node7 -->
<g id="edge6" class="edge">
<title>Node5&#45;&gt;Node7</title>
<path fill="none" stroke="midnightblue" d="M1103.5,-56.08C1103.5,-49.01 1103.5,-38.86 1103.5,-29.99"/>
<polygon fill="midnightblue" stroke="midnightblue" points="1107,-29.75 1103.5,-19.75 1100,-29.75 1107,-29.75"/>
</g>
<!-- Node8&#45;&gt;Node6 -->
<g id="edge11" class="edge">
<title>Node8&#45;&gt;Node6</title>
<path fill="none" stroke="midnightblue" d="M577.43,-58.43C682.7,-47.09 895.52,-24.15 980.87,-14.95"/>
<polygon fill="midnightblue" stroke="midnightblue" points="981.3,-18.42 990.87,-13.87 980.55,-11.46 981.3,-18.42"/>
</g>
<!-- Node8&#45;&gt;Node9 -->
<g id="edge8" class="edge">
<title>Node8&#45;&gt;Node9</title>
<path fill="none" stroke="midnightblue" d="M562.56,-56.49C605.82,-48.33 672.59,-35.32 739.32,-20.18"/>
<polygon fill="midnightblue" stroke="midnightblue" points="740.19,-23.57 749.16,-17.93 738.64,-16.75 740.19,-23.57"/>
</g>
<!-- Node10 -->
<g id="node10" class="node">
<title>Node10</title>
<g id="a_node10"><a xlink:title=" ">
<polygon fill="none" stroke="#bfbfbf" points="667.5,-0.5 667.5,-19.5 731.5,-19.5 731.5,-0.5 667.5,-0.5"/>
<text text-anchor="middle" x="699.5" y="-7.5" font-family="FreeSans.ttf" font-size="10.00">algorithm</text>
</a>
</g>
</g>
<!-- Node8&#45;&gt;Node10 -->
<g id="edge9" class="edge">
<title>Node8&#45;&gt;Node10</title>
<path fill="none" stroke="midnightblue" d="M545.5,-56.44C576.68,-47.24 626.43,-32.56 660.91,-22.39"/>
<polygon fill="midnightblue" stroke="midnightblue" points="662.04,-25.7 670.64,-19.52 660.06,-18.99 662.04,-25.7"/>
</g>
<!-- Node11 -->
<g id="node11" class="node">
<title>Node11</title>
<g id="a_node11"><a xlink:title=" ">
<polygon fill="none" stroke="#bfbfbf" points="326.5,-0.5 326.5,-19.5 368.5,-19.5 368.5,-0.5 326.5,-0.5"/>
<text text-anchor="middle" x="347.5" y="-7.5" font-family="FreeSans.ttf" font-size="10.00">array</text>
</a>
</g>
</g>
<!-- Node8&#45;&gt;Node11 -->
<g id="edge10" class="edge">
<title>Node8&#45;&gt;Node11</title>
<path fill="none" stroke="midnightblue" d="M489.72,-56.44C459.4,-46.76 410.09,-31 378.23,-20.82"/>
<polygon fill="midnightblue" stroke="midnightblue" points="379.14,-17.43 368.55,-17.73 377.01,-24.1 379.14,-17.43"/>
</g>
<!-- Node12 -->
<g id="node12" class="node">
<title>Node12</title>
<g id="a_node12"><a xlink:title=" ">
<polygon fill="none" stroke="#bfbfbf" points="387,-0.5 387,-19.5 440,-19.5 440,-0.5 387,-0.5"/>
<text text-anchor="middle" x="413.5" y="-7.5" font-family="FreeSans.ttf" font-size="10.00">iterator</text>
</a>
</g>
</g>
<!-- Node8&#45;&gt;Node12 -->
<g id="edge12" class="edge">
<title>Node8&#45;&gt;Node12</title>
<path fill="none" stroke="midnightblue" d="M499.95,-56.32C483.51,-47.7 458.07,-34.36 439.03,-24.39"/>
<polygon fill="midnightblue" stroke="midnightblue" points="440.49,-21.2 430.01,-19.65 437.24,-27.4 440.49,-21.2"/>
</g>
<!-- Node13 -->
<g id="node13" class="node">
<title>Node13</title>
<g id="a_node13"><a xlink:title=" ">
<polygon fill="none" stroke="#bfbfbf" points="458.5,-0.5 458.5,-19.5 502.5,-19.5 502.5,-0.5 458.5,-0.5"/>
<text text-anchor="middle" x="480.5" y="-7.5" font-family="FreeSans.ttf" font-size="10.00">limits</text>
</a>
</g>
</g>
<!-- Node8&#45;&gt;Node13 -->
<g id="edge13" class="edge">
<title>Node8&#45;&gt;Node13</title>
<path fill="none" stroke="midnightblue" d="M510.56,-56.08C505.52,-48.53 498.16,-37.49 491.99,-28.23"/>
<polygon fill="midnightblue" stroke="midnightblue" points="494.79,-26.13 486.33,-19.75 488.97,-30.01 494.79,-26.13"/>
</g>
<!-- Node14 -->
<g id="node14" class="node">
<title>Node14</title>
<g id="a_node14"><a xlink:title=" ">
<polygon fill="none" stroke="#bfbfbf" points="521,-0.5 521,-19.5 586,-19.5 586,-0.5 521,-0.5"/>
<text text-anchor="middle" x="553.5" y="-7.5" font-family="FreeSans.ttf" font-size="10.00">stdexcept</text>
</a>
</g>
</g>
<!-- Node8&#45;&gt;Node14 -->
<g id="edge14" class="edge">
<title>Node8&#45;&gt;Node14</title>
<path fill="none" stroke="midnightblue" d="M522.61,-56.08C527.78,-48.53 535.35,-37.49 541.69,-28.23"/>
<polygon fill="midnightblue" stroke="midnightblue" points="544.74,-29.98 547.5,-19.75 538.96,-26.02 544.74,-29.98"/>
</g>
<!-- Node15 -->
<g id="node15" class="node">
<title>Node15</title>
<g id="a_node15"><a xlink:title=" ">
<polygon fill="none" stroke="#bfbfbf" points="239,-0.5 239,-19.5 308,-19.5 308,-0.5 239,-0.5"/>
<text text-anchor="middle" x="273.5" y="-7.5" font-family="FreeSans.ttf" font-size="10.00">type_traits</text>
</a>
</g>
</g>
<!-- Node8&#45;&gt;Node15 -->
<g id="edge15" class="edge">
<title>Node8&#45;&gt;Node15</title>
<path fill="none" stroke="midnightblue" d="M478,-56.44C434.57,-46.79 364.06,-31.12 318.23,-20.94"/>
<polygon fill="midnightblue" stroke="midnightblue" points="318.8,-17.48 308.28,-18.73 317.28,-24.32 318.8,-17.48"/>
</g>
<!-- Node16 -->
<g id="node16" class="node">
<title>Node16</title>
<g id="a_node16"><a xlink:title=" ">
<polygon fill="none" stroke="#bfbfbf" points="604,-0.5 604,-19.5 649,-19.5 649,-0.5 604,-0.5"/>
<text text-anchor="middle" x="626.5" y="-7.5" font-family="FreeSans.ttf" font-size="10.00">utility</text>
</a>
</g>
</g>
<!-- Node8&#45;&gt;Node16 -->
<g id="edge16" class="edge">
<title>Node8&#45;&gt;Node16</title>
<path fill="none" stroke="midnightblue" d="M534.17,-56.32C551.89,-47.62 579.4,-34.12 599.79,-24.11"/>
<polygon fill="midnightblue" stroke="midnightblue" points="601.44,-27.2 608.87,-19.65 598.35,-20.92 601.44,-27.2"/>
</g>
<!-- Node20&#45;&gt;Node4 -->
<g id="edge23" class="edge">
<title>Node20&#45;&gt;Node4</title>
<path fill="none" stroke="midnightblue" d="M921.5,-224.08C921.5,-217.01 921.5,-206.86 921.5,-197.99"/>
<polygon fill="midnightblue" stroke="midnightblue" points="925,-197.75 921.5,-187.75 918,-197.75 925,-197.75"/>
</g>
<!-- Node21&#45;&gt;Node5 -->
<g id="edge49" class="edge">
<title>Node21&#45;&gt;Node5</title>
<path fill="none" stroke="midnightblue" d="M969.77,-392.36C980.12,-383.97 995.35,-370.41 1005.5,-356 1068.19,-266.97 1093.39,-134.62 1100.88,-85.89"/>
<polygon fill="midnightblue" stroke="midnightblue" points="1104.37,-86.25 1102.36,-75.85 1097.44,-85.24 1104.37,-86.25"/>
</g>
<!-- Node21&#45;&gt;Node18 -->
<g id="edge52" class="edge">
<title>Node21&#45;&gt;Node18</title>
<path fill="none" stroke="midnightblue" d="M964.84,-392.18C987.38,-359.67 1059.73,-244.5 1011.5,-168 999.92,-149.63 978.36,-138.49 959.24,-131.89"/>
<polygon fill="midnightblue" stroke="midnightblue" points="960.13,-128.5 949.54,-128.83 958.03,-135.17 960.13,-128.5"/>
</g>
<!-- Node21&#45;&gt;Node20 -->
<g id="edge50" class="edge">
<title>Node21&#45;&gt;Node20</title>
<path fill="none" stroke="midnightblue" d="M956.51,-392.08C950.69,-365.95 933.58,-289.21 925.64,-253.58"/>
<polygon fill="midnightblue" stroke="midnightblue" points="929,-252.57 923.41,-243.57 922.17,-254.09 929,-252.57"/>
</g>
<!-- Node22 -->
<g id="node22" class="node">
<title>Node22</title>
<g id="a_node22"><a xlink:href="Position_8h.html" target="_top" xlink:title=" ">
<polygon fill="none" stroke="black" points="435,-336.5 435,-355.5 500,-355.5 500,-336.5 435,-336.5"/>
<text text-anchor="middle" x="467.5" y="-343.5" font-family="FreeSans.ttf" font-size="10.00">Position.h</text>
</a>
</g>
</g>
<!-- Node21&#45;&gt;Node22 -->
<g id="edge25" class="edge">
<title>Node21&#45;&gt;Node22</title>
<path fill="none" stroke="midnightblue" d="M880.97,-392.47C776.14,-380.94 592.82,-360.78 510.12,-351.69"/>
<polygon fill="midnightblue" stroke="midnightblue" points="510.39,-348.2 500.07,-350.58 509.63,-355.15 510.39,-348.2"/>
</g>
<!-- Node24 -->
<g id="node24" class="node">
<title>Node24</title>
<g id="a_node24"><a xlink:href="Rotation_8h.html" target="_top" xlink:title=" ">
<polygon fill="none" stroke="black" points="521.5,-280.5 521.5,-299.5 659.5,-299.5 659.5,-280.5 521.5,-280.5"/>
<text text-anchor="middle" x="590.5" y="-287.5" font-family="FreeSans.ttf" font-size="10.00">iDynTree/Core/Rotation.h</text>
</a>
</g>
</g>
<!-- Node21&#45;&gt;Node24 -->
<g id="edge48" class="edge">
<title>Node21&#45;&gt;Node24</title>
<path fill="none" stroke="midnightblue" d="M886.16,-392.49C838.54,-385.62 775.29,-374.07 721.5,-356 681.81,-342.66 638.88,-319.53 613.37,-304.76"/>
<polygon fill="midnightblue" stroke="midnightblue" points="614.88,-301.59 604.49,-299.55 611.34,-307.63 614.88,-301.59"/>
</g>
<!-- Node28 -->
<g id="node28" class="node">
<title>Node28</title>
<g id="a_node28"><a xlink:title=" ">
<polygon fill="none" stroke="#bfbfbf" points="709.5,-112.5 709.5,-131.5 769.5,-131.5 769.5,-112.5 709.5,-112.5"/>
<text text-anchor="middle" x="739.5" y="-119.5" font-family="FreeSans.ttf" font-size="10.00">iostream</text>
</a>
</g>
</g>
<!-- Node21&#45;&gt;Node28 -->
<g id="edge51" class="edge">
<title>Node21&#45;&gt;Node28</title>
<path fill="none" stroke="midnightblue" d="M949.19,-392.46C924.87,-369.87 858.24,-305.97 813.5,-244 790.91,-212.71 792.05,-200.67 771.5,-168 765.5,-158.47 758.27,-148.2 752.2,-139.89"/>
<polygon fill="midnightblue" stroke="midnightblue" points="754.94,-137.72 746.18,-131.76 749.32,-141.88 754.94,-137.72"/>
</g>
<!-- Node22&#45;&gt;Node17 -->
<g id="edge47" class="edge">
<title>Node22&#45;&gt;Node17</title>
<path fill="none" stroke="midnightblue" d="M434.89,-337.15C392.89,-325.08 321.59,-297.54 290.5,-244 269.44,-207.74 306.46,-162.42 330.09,-138.87"/>
<polygon fill="midnightblue" stroke="midnightblue" points="332.7,-141.22 337.49,-131.77 327.86,-136.17 332.7,-141.22"/>
</g>
<!-- Node23 -->
<g id="node23" class="node">
<title>Node23</title>
<g id="a_node23"><a xlink:href="PositionRaw_8h.html" target="_top" xlink:title=" ">
<polygon fill="none" stroke="black" points="299.5,-224.5 299.5,-243.5 455.5,-243.5 455.5,-224.5 299.5,-224.5"/>
<text text-anchor="middle" x="377.5" y="-231.5" font-family="FreeSans.ttf" font-size="10.00">iDynTree/Core/PositionRaw.h</text>
</a>
</g>
</g>
<!-- Node22&#45;&gt;Node23 -->
<g id="edge26" class="edge">
<title>Node22&#45;&gt;Node23</title>
<path fill="none" stroke="midnightblue" d="M460.44,-336.37C445.45,-318.05 410.27,-275.05 390.89,-251.36"/>
<polygon fill="midnightblue" stroke="midnightblue" points="393.57,-249.11 384.53,-243.59 388.15,-253.55 393.57,-249.11"/>
</g>
<!-- Node22&#45;&gt;Node24 -->
<g id="edge29" class="edge">
<title>Node22&#45;&gt;Node24</title>
<path fill="none" stroke="midnightblue" d="M486.99,-336.44C507.14,-327.6 538.82,-313.69 561.83,-303.59"/>
<polygon fill="midnightblue" stroke="midnightblue" points="563.35,-306.74 571.1,-299.52 560.54,-300.33 563.35,-306.74"/>
</g>
<!-- Node23&#45;&gt;Node4 -->
<g id="edge27" class="edge">
<title>Node23&#45;&gt;Node4</title>
<path fill="none" stroke="midnightblue" d="M455.73,-225.23C554.75,-215.41 725.03,-198.5 829.98,-188.08"/>
<polygon fill="midnightblue" stroke="midnightblue" points="830.64,-191.54 840.24,-187.07 829.95,-184.57 830.64,-191.54"/>
</g>
<!-- Node23&#45;&gt;Node17 -->
<g id="edge28" class="edge">
<title>Node23&#45;&gt;Node17</title>
<path fill="none" stroke="midnightblue" d="M364.72,-224.37C354.11,-216.36 339.77,-203.38 333.5,-188 327.25,-172.67 332.4,-154.11 338.14,-140.76"/>
<polygon fill="midnightblue" stroke="midnightblue" points="341.31,-142.23 342.46,-131.7 334.99,-139.22 341.31,-142.23"/>
</g>
<!-- Node24&#45;&gt;Node4 -->
<g id="edge46" class="edge">
<title>Node24&#45;&gt;Node4</title>
<path fill="none" stroke="midnightblue" d="M616.2,-280.46C674.86,-260.97 818.71,-213.16 885.88,-190.84"/>
<polygon fill="midnightblue" stroke="midnightblue" points="887.2,-194.09 895.59,-187.61 885,-187.44 887.2,-194.09"/>
</g>
<!-- Node24&#45;&gt;Node17 -->
<g id="edge30" class="edge">
<title>Node24&#45;&gt;Node17</title>
<path fill="none" stroke="midnightblue" d="M573.6,-280.43C555.86,-271.42 527.18,-256.8 502.5,-244 485.56,-235.21 481.94,-231.75 464.5,-224 422.1,-205.15 398.18,-221.9 366.5,-188 354.85,-175.53 350.3,-156.3 348.55,-141.98"/>
<polygon fill="midnightblue" stroke="midnightblue" points="352.01,-141.44 347.66,-131.78 345.04,-142.05 352.01,-141.44"/>
</g>
<!-- Node24&#45;&gt;Node20 -->
<g id="edge31" class="edge">
<title>Node24&#45;&gt;Node20</title>
<path fill="none" stroke="midnightblue" d="M642.95,-280.44C701.66,-270.87 796.73,-255.36 859.18,-245.17"/>
<polygon fill="midnightblue" stroke="midnightblue" points="859.99,-248.58 869.3,-243.52 858.86,-241.67 859.99,-248.58"/>
</g>
<!-- Node25 -->
<g id="node25" class="node">
<title>Node25</title>
<g id="a_node25"><a xlink:href="RotationRaw_8h.html" target="_top" xlink:title=" ">
<polygon fill="none" stroke="black" points="511.5,-224.5 511.5,-243.5 669.5,-243.5 669.5,-224.5 511.5,-224.5"/>
<text text-anchor="middle" x="590.5" y="-231.5" font-family="FreeSans.ttf" font-size="10.00">iDynTree/Core/RotationRaw.h</text>
</a>
</g>
</g>
<!-- Node24&#45;&gt;Node25 -->
<g id="edge32" class="edge">
<title>Node24&#45;&gt;Node25</title>
<path fill="none" stroke="midnightblue" d="M590.5,-280.08C590.5,-273.01 590.5,-262.86 590.5,-253.99"/>
<polygon fill="midnightblue" stroke="midnightblue" points="594,-253.75 590.5,-243.75 587,-253.75 594,-253.75"/>
</g>
<!-- Node25&#45;&gt;Node17 -->
<g id="edge45" class="edge">
<title>Node25&#45;&gt;Node17</title>
<path fill="none" stroke="midnightblue" d="M587.94,-224.29C583.31,-210.13 572.16,-182.3 552.5,-168 525.27,-148.19 430.48,-133.52 379.89,-126.9"/>
<polygon fill="midnightblue" stroke="midnightblue" points="380.17,-123.41 369.81,-125.62 379.28,-130.36 380.17,-123.41"/>
</g>
<!-- Node26 -->
<g id="node26" class="node">
<title>Node26</title>
<g id="a_node26"><a xlink:href="MatrixFixSize_8h.html" target="_top" xlink:title=" ">
<polygon fill="none" stroke="black" points="600,-168.5 600,-187.5 763,-187.5 763,-168.5 600,-168.5"/>
<text text-anchor="middle" x="681.5" y="-175.5" font-family="FreeSans.ttf" font-size="10.00">iDynTree/Core/MatrixFixSize.h</text>
</a>
</g>
</g>
<!-- Node25&#45;&gt;Node26 -->
<g id="edge33" class="edge">
<title>Node25&#45;&gt;Node26</title>
<path fill="none" stroke="midnightblue" d="M605.12,-224.32C619.45,-215.82 641.51,-202.73 658.25,-192.8"/>
<polygon fill="midnightblue" stroke="midnightblue" points="660.1,-195.77 666.92,-187.65 656.53,-189.75 660.1,-195.77"/>
</g>
<!-- Node26&#45;&gt;Node5 -->
<g id="edge34" class="edge">
<title>Node26&#45;&gt;Node5</title>
<path fill="none" stroke="midnightblue" d="M681.23,-168.23C681.31,-154.01 683.76,-126.07 700.5,-112 725.43,-91.05 924.85,-76.88 1033.51,-70.63"/>
<polygon fill="midnightblue" stroke="midnightblue" points="1033.94,-74.11 1043.73,-70.05 1033.55,-67.12 1033.94,-74.11"/>
</g>
<!-- Node26&#45;&gt;Node9 -->
<g id="edge40" class="edge">
<title>Node26&#45;&gt;Node9</title>
<path fill="none" stroke="midnightblue" d="M679.91,-168.2C677.98,-155.32 675.87,-130.84 683.5,-112 698.35,-75.32 732.93,-43.55 755.2,-25.87"/>
<polygon fill="midnightblue" stroke="midnightblue" points="757.56,-28.47 763.35,-19.6 753.29,-22.92 757.56,-28.47"/>
</g>
<!-- Node26&#45;&gt;Node17 -->
<g id="edge42" class="edge">
<title>Node26&#45;&gt;Node17</title>
<path fill="none" stroke="midnightblue" d="M628.58,-168.44C558.62,-157.13 437.5,-137.55 379.83,-128.23"/>
<polygon fill="midnightblue" stroke="midnightblue" points="380.25,-124.75 369.82,-126.61 379.14,-131.66 380.25,-124.75"/>
</g>
<!-- Node26&#45;&gt;Node18 -->
<g id="edge44" class="edge">
<title>Node26&#45;&gt;Node18</title>
<path fill="none" stroke="midnightblue" d="M719.53,-168.44C764.41,-158.35 838.59,-141.65 883.47,-131.56"/>
<polygon fill="midnightblue" stroke="midnightblue" points="884.41,-134.93 893.4,-129.32 882.87,-128.1 884.41,-134.93"/>
</g>
<!-- Node26&#45;&gt;Node19 -->
<g id="edge41" class="edge">
<title>Node26&#45;&gt;Node19</title>
<path fill="none" stroke="midnightblue" d="M702.26,-168.44C723.82,-159.56 757.76,-145.56 782.29,-135.45"/>
<polygon fill="midnightblue" stroke="midnightblue" points="783.93,-138.56 791.84,-131.52 781.26,-132.09 783.93,-138.56"/>
</g>
<!-- Node27 -->
<g id="node27" class="node">
<title>Node27</title>
<g id="a_node27"><a xlink:href="MatrixView_8h.html" target="_top" xlink:title=" ">
<polygon fill="none" stroke="black" points="452.5,-112.5 452.5,-131.5 604.5,-131.5 604.5,-112.5 452.5,-112.5"/>
<text text-anchor="middle" x="528.5" y="-119.5" font-family="FreeSans.ttf" font-size="10.00">iDynTree/Core/MatrixView.h</text>
</a>
</g>
</g>
<!-- Node26&#45;&gt;Node27 -->
<g id="edge35" class="edge">
<title>Node26&#45;&gt;Node27</title>
<path fill="none" stroke="midnightblue" d="M657.26,-168.44C631.63,-159.4 591.01,-145.06 562.26,-134.92"/>
<polygon fill="midnightblue" stroke="midnightblue" points="563.22,-131.54 552.63,-131.52 560.89,-138.15 563.22,-131.54"/>
</g>
<!-- Node26&#45;&gt;Node28 -->
<g id="edge43" class="edge">
<title>Node26&#45;&gt;Node28</title>
<path fill="none" stroke="midnightblue" d="M690.82,-168.32C699.39,-160.34 712.31,-148.31 722.69,-138.65"/>
<polygon fill="midnightblue" stroke="midnightblue" points="725.08,-141.21 730.01,-131.83 720.31,-136.09 725.08,-141.21"/>
</g>
<!-- Node27&#45;&gt;Node5 -->
<g id="edge39" class="edge">
<title>Node27&#45;&gt;Node5</title>
<path fill="none" stroke="midnightblue" d="M604.56,-113.86C716.77,-103.32 925.09,-83.76 1033.64,-73.56"/>
<polygon fill="midnightblue" stroke="midnightblue" points="1034.19,-77.02 1043.82,-72.6 1033.54,-70.05 1034.19,-77.02"/>
</g>
<!-- Node27&#45;&gt;Node8 -->
<g id="edge38" class="edge">
<title>Node27&#45;&gt;Node8</title>
<path fill="none" stroke="midnightblue" d="M526.52,-112.08C524.93,-104.93 522.64,-94.64 520.65,-85.69"/>
<polygon fill="midnightblue" stroke="midnightblue" points="524.03,-84.75 518.44,-75.75 517.2,-86.27 524.03,-84.75"/>
</g>
<!-- Node27&#45;&gt;Node9 -->
<g id="edge36" class="edge">
<title>Node27&#45;&gt;Node9</title>
<path fill="none" stroke="midnightblue" d="M539.72,-112.31C557.75,-98.68 594.71,-72.18 629.5,-56 649.12,-46.87 703.04,-31.1 739.56,-20.86"/>
<polygon fill="midnightblue" stroke="midnightblue" points="740.67,-24.19 749.36,-18.13 738.79,-17.44 740.67,-24.19"/>
</g>
<!-- Node27&#45;&gt;Node15 -->
<g id="edge37" class="edge">
<title>Node27&#45;&gt;Node15</title>
<path fill="none" stroke="midnightblue" d="M508.49,-112.37C463.71,-93.05 355.24,-46.26 302.82,-23.65"/>
<polygon fill="midnightblue" stroke="midnightblue" points="303.98,-20.34 293.42,-19.59 301.21,-26.77 303.98,-20.34"/>
</g>
<!-- Node30 -->
<g id="node30" class="node">
<title>Node30</title>
<g id="a_node30"><a xlink:href="SpatialForceVector_8h.html" target="_top" xlink:title=" ">
<polygon fill="none" stroke="black" points="1033.5,-448.5 1033.5,-478.5 1181.5,-478.5 1181.5,-448.5 1033.5,-448.5"/>
<text text-anchor="start" x="1041.5" y="-466.5" font-family="FreeSans.ttf" font-size="10.00">iDynTree/Core/SpatialForce</text>
<text text-anchor="middle" x="1107.5" y="-455.5" font-family="FreeSans.ttf" font-size="10.00">Vector.h</text>
</a>
</g>
</g>
<!-- Node29&#45;&gt;Node30 -->
<g id="edge54" class="edge">
<title>Node29&#45;&gt;Node30</title>
<path fill="none" stroke="midnightblue" d="M1122.06,-515.48C1120.04,-508.4 1117.06,-497.97 1114.33,-488.39"/>
<polygon fill="midnightblue" stroke="midnightblue" points="1117.62,-487.18 1111.51,-478.52 1110.89,-489.1 1117.62,-487.18"/>
</g>
<!-- Node30&#45;&gt;Node4 -->
<g id="edge55" class="edge">
<title>Node30&#45;&gt;Node4</title>
<path fill="none" stroke="midnightblue" d="M1108.27,-448.42C1109.69,-407.68 1108.01,-288.53 1045.5,-224 1029.47,-207.45 1006.89,-196.96 985.39,-190.32"/>
<polygon fill="midnightblue" stroke="midnightblue" points="986.19,-186.91 975.61,-187.54 984.27,-193.64 986.19,-186.91"/>
</g>
<!-- Node30&#45;&gt;Node20 -->
<g id="edge56" class="edge">
<title>Node30&#45;&gt;Node20</title>
<path fill="none" stroke="midnightblue" d="M1104.27,-448.42C1100.43,-433.55 1093.05,-409.86 1081.5,-392 1041.92,-330.8 974.63,-275.13 941.35,-249.64"/>
<polygon fill="midnightblue" stroke="midnightblue" points="943.37,-246.79 933.29,-243.55 939.16,-252.37 943.37,-246.79"/>
</g>
<!-- Node30&#45;&gt;Node21 -->
<g id="edge57" class="edge">
<title>Node30&#45;&gt;Node21</title>
<path fill="none" stroke="midnightblue" d="M1072.19,-448.4C1047.08,-438.37 1013.66,-425.03 989.56,-415.4"/>
<polygon fill="midnightblue" stroke="midnightblue" points="990.77,-412.12 980.18,-411.66 988.17,-418.62 990.77,-412.12"/>
</g>
<!-- Node31&#45;&gt;Node3 -->
<g id="edge59" class="edge">
<title>Node31&#45;&gt;Node3</title>
<path fill="none" stroke="midnightblue" d="M853.2,-571.32C852.6,-553.97 851.23,-514.46 850.34,-488.66"/>
<polygon fill="midnightblue" stroke="midnightblue" points="853.83,-488.42 849.99,-478.55 846.83,-488.66 853.83,-488.42"/>
</g>
<!-- Node32&#45;&gt;Node30 -->
<g id="edge61" class="edge">
<title>Node32&#45;&gt;Node30</title>
<path fill="none" stroke="midnightblue" d="M1246.18,-571.07C1237.81,-557.59 1220.44,-531.85 1200.5,-515 1185.46,-502.29 1166.72,-491.38 1150.01,-482.98"/>
<polygon fill="midnightblue" stroke="midnightblue" points="1151.49,-479.81 1140.97,-478.58 1148.42,-486.1 1151.49,-479.81"/>
</g>
<!-- Node34 -->
<g id="node34" class="node">
<title>Node34</title>
<g id="a_node34"><a xlink:title=" ">
<polygon fill="none" stroke="#bfbfbf" points="1276,-454 1276,-473 1353,-473 1353,-454 1276,-454"/>
<text text-anchor="middle" x="1314.5" y="-461" font-family="FreeSans.ttf" font-size="10.00">Eigen/Dense</text>
</a>
</g>
</g>
<!-- Node33&#45;&gt;Node34 -->
<g id="edge63" class="edge">
<title>Node33&#45;&gt;Node34</title>
<path fill="none" stroke="midnightblue" d="M1073.32,-571.45C1109.67,-564.32 1159.26,-552.47 1200.5,-535 1235.9,-520 1273.1,-494.99 1295.02,-479.15"/>
<polygon fill="midnightblue" stroke="midnightblue" points="1297.18,-481.91 1303.17,-473.17 1293.04,-476.26 1297.18,-481.91"/>
</g>
<!-- Node35 -->
<g id="node35" class="node">
<title>Node35</title>
<g id="a_node35"><a xlink:href="EigenHelpers_8h.html" target="_top" xlink:title=" ">
<polygon fill="none" stroke="black" points="878,-515.5 878,-534.5 1039,-534.5 1039,-515.5 878,-515.5"/>
<text text-anchor="middle" x="958.5" y="-522.5" font-family="FreeSans.ttf" font-size="10.00">iDynTree/Core/EigenHelpers.h</text>
</a>
</g>
</g>
<!-- Node33&#45;&gt;Node35 -->
<g id="edge64" class="edge">
<title>Node33&#45;&gt;Node35</title>
<path fill="none" stroke="midnightblue" d="M1012.22,-571.32C1002.66,-563.26 988.22,-551.08 976.72,-541.37"/>
<polygon fill="midnightblue" stroke="midnightblue" points="978.87,-538.61 968.97,-534.83 974.36,-543.96 978.87,-538.61"/>
</g>
<!-- Node35&#45;&gt;Node3 -->
<g id="edge75" class="edge">
<title>Node35&#45;&gt;Node3</title>
<path fill="none" stroke="midnightblue" d="M942.88,-515.48C927.64,-507.15 903.92,-494.21 884.21,-483.45"/>
<polygon fill="midnightblue" stroke="midnightblue" points="885.64,-480.24 875.19,-478.52 882.29,-486.39 885.64,-480.24"/>
</g>
<!-- Node35&#45;&gt;Node4 -->
<g id="edge70" class="edge">
<title>Node35&#45;&gt;Node4</title>
<path fill="none" stroke="midnightblue" d="M966.05,-515.3C986.92,-491.16 1044.17,-424.29 1048.5,-412 1051.45,-403.62 1049.44,-400.84 1048.5,-392 1040.46,-316.06 1059.4,-284.26 1012.5,-224 1000.44,-208.51 981.65,-197.98 964.27,-191.03"/>
<polygon fill="midnightblue" stroke="midnightblue" points="965.4,-187.71 954.81,-187.52 962.97,-194.28 965.4,-187.71"/>
</g>
<!-- Node35&#45;&gt;Node5 -->
<g id="edge82" class="edge">
<title>Node35&#45;&gt;Node5</title>
<path fill="none" stroke="midnightblue" d="M1039.35,-515.54C1112.83,-507.01 1211.57,-493.13 1223.5,-479 1232.39,-468.47 1224.78,-461.72 1223.5,-448 1214.57,-352.09 1183.5,-331.32 1183.5,-235 1183.5,-235 1183.5,-235 1183.5,-177 1183.5,-136.62 1147.81,-101.11 1124.1,-81.97"/>
<polygon fill="midnightblue" stroke="midnightblue" points="1126.05,-79.05 1116,-75.69 1121.76,-84.58 1126.05,-79.05"/>
</g>
<!-- Node35&#45;&gt;Node6 -->
<g id="edge65" class="edge">
<title>Node35&#45;&gt;Node6</title>
<path fill="none" stroke="midnightblue" d="M1022.4,-515.5C1087.02,-506.29 1179,-491.28 1190.5,-479 1265.24,-399.22 1221.5,-344.32 1221.5,-235 1221.5,-235 1221.5,-235 1221.5,-121 1221.5,-84.82 1202.28,-76.54 1172.5,-56 1162.62,-49.19 1096.59,-31.35 1053.95,-20.29"/>
<polygon fill="midnightblue" stroke="midnightblue" points="1054.75,-16.88 1044.19,-17.77 1053,-23.66 1054.75,-16.88"/>
</g>
<!-- Node35&#45;&gt;Node26 -->
<g id="edge74" class="edge">
<title>Node35&#45;&gt;Node26</title>
<path fill="none" stroke="midnightblue" d="M877.71,-519.64C801.05,-510.62 697.5,-483.54 697.5,-403 697.5,-403 697.5,-403 697.5,-289 697.5,-256.63 690.63,-219.44 685.89,-197.66"/>
<polygon fill="midnightblue" stroke="midnightblue" points="689.28,-196.76 683.66,-187.78 682.45,-198.3 689.28,-196.76"/>
</g>
<!-- Node35&#45;&gt;Node30 -->
<g id="edge76" class="edge">
<title>Node35&#45;&gt;Node30</title>
<path fill="none" stroke="midnightblue" d="M979.85,-515.48C1001.44,-506.85 1035.47,-493.26 1062.96,-482.29"/>
<polygon fill="midnightblue" stroke="midnightblue" points="1064.39,-485.48 1072.38,-478.52 1061.8,-478.98 1064.39,-485.48"/>
</g>
<!-- Node35&#45;&gt;Node34 -->
<g id="edge66" class="edge">
<title>Node35&#45;&gt;Node34</title>
<path fill="none" stroke="midnightblue" d="M1032.72,-515.49C1094.34,-507.83 1184.09,-495.28 1261.5,-479 1266.21,-478.01 1271.13,-476.85 1275.98,-475.62"/>
<polygon fill="midnightblue" stroke="midnightblue" points="1276.99,-478.97 1285.77,-473.03 1275.21,-472.2 1276.99,-478.97"/>
</g>
<!-- Node36 -->
<g id="node36" class="node">
<title>Node36</title>
<g id="a_node36"><a xlink:href="VectorDynSize_8h.html" target="_top" xlink:title=" ">
<polygon fill="none" stroke="black" points="0,-168.5 0,-187.5 167,-187.5 167,-168.5 0,-168.5"/>
<text text-anchor="middle" x="83.5" y="-175.5" font-family="FreeSans.ttf" font-size="10.00">iDynTree/Core/VectorDynSize.h</text>
</a>
</g>
</g>
<!-- Node35&#45;&gt;Node36 -->
<g id="edge67" class="edge">
<title>Node35&#45;&gt;Node36</title>
<path fill="none" stroke="midnightblue" d="M877.99,-518.4C709.4,-506.66 334.16,-480.42 327.5,-479 231.26,-458.41 119.5,-501.42 119.5,-403 119.5,-403 119.5,-403 119.5,-289 119.5,-254.98 103.76,-217.85 93.09,-196.6"/>
<polygon fill="midnightblue" stroke="midnightblue" points="96.09,-194.77 88.36,-187.53 89.88,-198.01 96.09,-194.77"/>
</g>
<!-- Node37 -->
<g id="node37" class="node">
<title>Node37</title>
<g id="a_node37"><a xlink:href="MatrixDynSize_8h.html" target="_top" xlink:title=" ">
<polygon fill="none" stroke="black" points="375.5,-168.5 375.5,-187.5 543.5,-187.5 543.5,-168.5 375.5,-168.5"/>
<text text-anchor="middle" x="459.5" y="-175.5" font-family="FreeSans.ttf" font-size="10.00">iDynTree/Core/MatrixDynSize.h</text>
</a>
</g>
</g>
<!-- Node35&#45;&gt;Node37 -->
<g id="edge71" class="edge">
<title>Node35&#45;&gt;Node37</title>
<path fill="none" stroke="midnightblue" d="M877.66,-515.99C674.28,-495.29 157.5,-439.15 157.5,-403 157.5,-403 157.5,-403 157.5,-345 157.5,-245.52 284.89,-205.24 374.2,-189.22"/>
<polygon fill="midnightblue" stroke="midnightblue" points="374.81,-192.67 384.07,-187.52 373.62,-185.77 374.81,-192.67"/>
</g>
<!-- Node38 -->
<g id="node38" class="node">
<title>Node38</title>
<g id="a_node38"><a xlink:href="Transform_8h.html" target="_top" xlink:title=" ">
<polygon fill="none" stroke="black" points="394.5,-392.5 394.5,-411.5 540.5,-411.5 540.5,-392.5 394.5,-392.5"/>
<text text-anchor="middle" x="467.5" y="-399.5" font-family="FreeSans.ttf" font-size="10.00">iDynTree/Core/Transform.h</text>
</a>
</g>
</g>
<!-- Node35&#45;&gt;Node38 -->
<g id="edge77" class="edge">
<title>Node35&#45;&gt;Node38</title>
<path fill="none" stroke="midnightblue" d="M884.53,-515.49C828.75,-508.21 750.64,-496.16 683.5,-479 615.54,-461.63 538.65,-432.1 497.42,-415.42"/>
<polygon fill="midnightblue" stroke="midnightblue" points="498.56,-412.11 487.98,-411.57 495.92,-418.59 498.56,-412.11"/>
</g>
<!-- Node36&#45;&gt;Node8 -->
<g id="edge68" class="edge">
<title>Node36&#45;&gt;Node8</title>
<path fill="none" stroke="midnightblue" d="M112.43,-168.42C156.36,-155.51 242.58,-130.61 316.5,-112 367.09,-99.26 425.31,-86.36 465.85,-77.65"/>
<polygon fill="midnightblue" stroke="midnightblue" points="466.71,-81.05 475.75,-75.53 465.24,-74.2 466.71,-81.05"/>
</g>
<!-- Node36&#45;&gt;Node17 -->
<g id="edge69" class="edge">
<title>Node36&#45;&gt;Node17</title>
<path fill="none" stroke="midnightblue" d="M125.33,-168.44C178.05,-157.66 267.52,-139.36 315.25,-129.6"/>
<polygon fill="midnightblue" stroke="midnightblue" points="316.23,-132.97 325.33,-127.54 314.83,-126.11 316.23,-132.97"/>
</g>
<!-- Node37&#45;&gt;Node17 -->
<g id="edge72" class="edge">
<title>Node37&#45;&gt;Node17</title>
<path fill="none" stroke="midnightblue" d="M441.51,-168.32C423.46,-159.62 395.45,-146.12 374.7,-136.11"/>
<polygon fill="midnightblue" stroke="midnightblue" points="375.98,-132.84 365.45,-131.65 372.94,-139.15 375.98,-132.84"/>
</g>
<!-- Node37&#45;&gt;Node27 -->
<g id="edge73" class="edge">
<title>Node37&#45;&gt;Node27</title>
<path fill="none" stroke="midnightblue" d="M470.59,-168.32C480.99,-160.18 496.76,-147.84 509.22,-138.09"/>
<polygon fill="midnightblue" stroke="midnightblue" points="511.49,-140.75 517.21,-131.83 507.18,-135.24 511.49,-140.75"/>
</g>
<!-- Node38&#45;&gt;Node17 -->
<g id="edge81" class="edge">
<title>Node38&#45;&gt;Node17</title>
<path fill="none" stroke="midnightblue" d="M422.43,-392.44C375.84,-380.77 306.36,-354.71 280.5,-300 255.37,-246.84 257.37,-217.25 289.5,-168 297.82,-155.24 311.02,-144.59 322.72,-136.85"/>
<polygon fill="midnightblue" stroke="midnightblue" points="324.64,-139.78 331.27,-131.52 320.94,-133.84 324.64,-139.78"/>
</g>
<!-- Node38&#45;&gt;Node22 -->
<g id="edge78" class="edge">
<title>Node38&#45;&gt;Node22</title>
<path fill="none" stroke="midnightblue" d="M467.5,-392.08C467.5,-385.01 467.5,-374.86 467.5,-365.99"/>
<polygon fill="midnightblue" stroke="midnightblue" points="471,-365.75 467.5,-355.75 464,-365.75 471,-365.75"/>
</g>
<!-- Node38&#45;&gt;Node24 -->
<g id="edge79" class="edge">
<title>Node38&#45;&gt;Node24</title>
<path fill="none" stroke="midnightblue" d="M477.15,-392.37C497.9,-373.81 546.99,-329.91 573.24,-306.44"/>
<polygon fill="midnightblue" stroke="midnightblue" points="575.77,-308.87 580.89,-299.59 571.11,-303.65 575.77,-308.87"/>
</g>
<!-- Node38&#45;&gt;Node26 -->
<g id="edge80" class="edge">
<title>Node38&#45;&gt;Node26</title>
<path fill="none" stroke="midnightblue" d="M446.11,-392.33C387.03,-367.23 229.91,-291.96 290.5,-224 300.39,-212.91 477.46,-196.1 589.89,-186.48"/>
<polygon fill="midnightblue" stroke="midnightblue" points="590.22,-189.96 599.89,-185.63 589.63,-182.99 590.22,-189.96"/>
</g>
</g>
</svg>
