<?xml version="1.0" encoding="UTF-8" standalone="no"?>
<!DOCTYPE svg PUBLIC "-//W3C//DTD SVG 1.1//EN"
 "http://www.w3.org/Graphics/SVG/1.1/DTD/svg11.dtd">
<!-- Generated by graphviz version 2.43.0 (0)
 -->
<!-- Title: WorhpInterfaceNotImplemented.cpp Pages: 1 -->
<svg width="356pt" height="263pt"
 viewBox="0.00 0.00 355.50 263.00" xmlns="http://www.w3.org/2000/svg" xmlns:xlink="http://www.w3.org/1999/xlink">
<g id="graph0" class="graph" transform="scale(1 1) rotate(0) translate(4 259)">
<title>WorhpInterfaceNotImplemented.cpp</title>
<!-- Node1 -->
<g id="node1" class="node">
<title>Node1</title>
<g id="a_node1"><a xlink:title=" ">
<polygon fill="#bfbfbf" stroke="black" points="78,-235.5 78,-254.5 272,-254.5 272,-235.5 78,-235.5"/>
<text text-anchor="middle" x="175" y="-242.5" font-family="FreeSans.ttf" font-size="10.00">WorhpInterfaceNotImplemented.cpp</text>
</a>
</g>
</g>
<!-- Node2 -->
<g id="node2" class="node">
<title>Node2</title>
<g id="a_node2"><a xlink:href="WorhpInterface_8h.html" target="_top" xlink:title=" ">
<polygon fill="none" stroke="black" points="49,-168.5 49,-198.5 165,-198.5 165,-168.5 49,-168.5"/>
<text text-anchor="start" x="57" y="-186.5" font-family="FreeSans.ttf" font-size="10.00">iDynTree/Optimizers</text>
<text text-anchor="middle" x="107" y="-175.5" font-family="FreeSans.ttf" font-size="10.00">/WorhpInterface.h</text>
</a>
</g>
</g>
<!-- Node1&#45;&gt;Node2 -->
<g id="edge1" class="edge">
<title>Node1&#45;&gt;Node2</title>
<path fill="none" stroke="midnightblue" d="M165.26,-235.48C156.31,-227.64 142.67,-215.71 130.85,-205.37"/>
<polygon fill="midnightblue" stroke="midnightblue" points="132.86,-202.47 123.03,-198.52 128.25,-207.74 132.86,-202.47"/>
</g>
<!-- Node9 -->
<g id="node9" class="node">
<title>Node9</title>
<g id="a_node9"><a xlink:href="Utils_8h.html" target="_top" xlink:title=" ">
<polygon fill="none" stroke="black" points="218.5,-174 218.5,-193 337.5,-193 337.5,-174 218.5,-174"/>
<text text-anchor="middle" x="278" y="-181" font-family="FreeSans.ttf" font-size="10.00">iDynTree/Core/Utils.h</text>
</a>
</g>
</g>
<!-- Node1&#45;&gt;Node9 -->
<g id="edge10" class="edge">
<title>Node1&#45;&gt;Node9</title>
<path fill="none" stroke="midnightblue" d="M189.76,-235.48C206.66,-225.71 234.58,-209.58 254.49,-198.08"/>
<polygon fill="midnightblue" stroke="midnightblue" points="256.36,-201.04 263.27,-193.01 252.86,-194.98 256.36,-201.04"/>
</g>
<!-- Node3 -->
<g id="node3" class="node">
<title>Node3</title>
<g id="a_node3"><a xlink:href="Optimizer_8h.html" target="_top" xlink:title=" ">
<polygon fill="none" stroke="black" points="100.5,-112.5 100.5,-131.5 219.5,-131.5 219.5,-112.5 100.5,-112.5"/>
<text text-anchor="middle" x="160" y="-119.5" font-family="FreeSans.ttf" font-size="10.00">iDynTree/Optimizer.h</text>
</a>
</g>
</g>
<!-- Node2&#45;&gt;Node3 -->
<g id="edge2" class="edge">
<title>Node2&#45;&gt;Node3</title>
<path fill="none" stroke="midnightblue" d="M119.56,-168.4C127.34,-159.66 137.36,-148.41 145.48,-139.3"/>
<polygon fill="midnightblue" stroke="midnightblue" points="148.25,-141.45 152.29,-131.66 143.02,-136.8 148.25,-141.45"/>
</g>
<!-- Node4 -->
<g id="node4" class="node">
<title>Node4</title>
<g id="a_node4"><a xlink:title=" ">
<polygon fill="none" stroke="#bfbfbf" points="83,-0.5 83,-19.5 141,-19.5 141,-0.5 83,-0.5"/>
<text text-anchor="middle" x="112" y="-7.5" font-family="FreeSans.ttf" font-size="10.00">memory</text>
</a>
</g>
</g>
<!-- Node2&#45;&gt;Node4 -->
<g id="edge8" class="edge">
<title>Node2&#45;&gt;Node4</title>
<path fill="none" stroke="midnightblue" d="M101.17,-168.2C97.44,-158.24 92.94,-144.54 91,-132 85.35,-95.46 96.99,-52.89 105.09,-29.24"/>
<polygon fill="midnightblue" stroke="midnightblue" points="108.4,-30.38 108.49,-19.79 101.81,-28.01 108.4,-30.38"/>
</g>
<!-- Node8 -->
<g id="node8" class="node">
<title>Node8</title>
<g id="a_node8"><a xlink:title=" ">
<polygon fill="none" stroke="#bfbfbf" points="0,-112.5 0,-131.5 44,-131.5 44,-112.5 0,-112.5"/>
<text text-anchor="middle" x="22" y="-119.5" font-family="FreeSans.ttf" font-size="10.00">string</text>
</a>
</g>
</g>
<!-- Node2&#45;&gt;Node8 -->
<g id="edge9" class="edge">
<title>Node2&#45;&gt;Node8</title>
<path fill="none" stroke="midnightblue" d="M86.86,-168.4C73.61,-159.13 56.32,-147.03 42.92,-137.65"/>
<polygon fill="midnightblue" stroke="midnightblue" points="44.57,-134.53 34.37,-131.66 40.55,-140.26 44.57,-134.53"/>
</g>
<!-- Node3&#45;&gt;Node4 -->
<g id="edge3" class="edge">
<title>Node3&#45;&gt;Node4</title>
<path fill="none" stroke="midnightblue" d="M153.43,-112.47C146.96,-103.72 137.18,-89.53 131,-76 124.13,-60.96 119.08,-42.83 115.91,-29.54"/>
<polygon fill="midnightblue" stroke="midnightblue" points="119.31,-28.69 113.7,-19.7 112.48,-30.22 119.31,-28.69"/>
</g>
<!-- Node5 -->
<g id="node5" class="node">
<title>Node5</title>
<g id="a_node5"><a xlink:href="OptimizationProblem_8h.html" target="_top" xlink:title=" ">
<polygon fill="none" stroke="black" points="140.5,-56.5 140.5,-75.5 315.5,-75.5 315.5,-56.5 140.5,-56.5"/>
<text text-anchor="middle" x="228" y="-63.5" font-family="FreeSans.ttf" font-size="10.00">iDynTree/OptimizationProblem.h</text>
</a>
</g>
</g>
<!-- Node3&#45;&gt;Node5 -->
<g id="edge4" class="edge">
<title>Node3&#45;&gt;Node5</title>
<path fill="none" stroke="midnightblue" d="M170.93,-112.32C181.17,-104.18 196.72,-91.84 209,-82.09"/>
<polygon fill="midnightblue" stroke="midnightblue" points="211.22,-84.79 216.88,-75.83 206.87,-79.31 211.22,-84.79"/>
</g>
<!-- Node5&#45;&gt;Node4 -->
<g id="edge6" class="edge">
<title>Node5&#45;&gt;Node4</title>
<path fill="none" stroke="midnightblue" d="M209.62,-56.44C190.78,-47.68 161.27,-33.94 139.62,-23.86"/>
<polygon fill="midnightblue" stroke="midnightblue" points="140.84,-20.56 130.29,-19.52 137.88,-26.91 140.84,-20.56"/>
</g>
<!-- Node6 -->
<g id="node6" class="node">
<title>Node6</title>
<g id="a_node6"><a xlink:title=" ">
<polygon fill="none" stroke="#bfbfbf" points="204.5,-0.5 204.5,-19.5 251.5,-19.5 251.5,-0.5 204.5,-0.5"/>
<text text-anchor="middle" x="228" y="-7.5" font-family="FreeSans.ttf" font-size="10.00">vector</text>
</a>
</g>
</g>
<!-- Node5&#45;&gt;Node6 -->
<g id="edge5" class="edge">
<title>Node5&#45;&gt;Node6</title>
<path fill="none" stroke="midnightblue" d="M228,-56.08C228,-49.01 228,-38.86 228,-29.99"/>
<polygon fill="midnightblue" stroke="midnightblue" points="231.5,-29.75 228,-19.75 224.5,-29.75 231.5,-29.75"/>
</g>
<!-- Node7 -->
<g id="node7" class="node">
<title>Node7</title>
<g id="a_node7"><a xlink:title=" ">
<polygon fill="none" stroke="#bfbfbf" points="294.5,-0.5 294.5,-19.5 347.5,-19.5 347.5,-0.5 294.5,-0.5"/>
<text text-anchor="middle" x="321" y="-7.5" font-family="FreeSans.ttf" font-size="10.00">cstddef</text>
</a>
</g>
</g>
<!-- Node5&#45;&gt;Node7 -->
<g id="edge7" class="edge">
<title>Node5&#45;&gt;Node7</title>
<path fill="none" stroke="midnightblue" d="M242.94,-56.32C257.59,-47.82 280.13,-34.73 297.24,-24.8"/>
<polygon fill="midnightblue" stroke="midnightblue" points="299.2,-27.7 306.1,-19.65 295.69,-21.65 299.2,-27.7"/>
</g>
<!-- Node9&#45;&gt;Node7 -->
<g id="edge11" class="edge">
<title>Node9&#45;&gt;Node7</title>
<path fill="none" stroke="midnightblue" d="M290.86,-173.83C302.78,-164.93 319.75,-149.89 327,-132 340.84,-97.86 332.93,-53.78 326.56,-29.36"/>
<polygon fill="midnightblue" stroke="midnightblue" points="329.9,-28.3 323.82,-19.62 323.16,-30.2 329.9,-28.3"/>
</g>
<!-- Node10 -->
<g id="node10" class="node">
<title>Node10</title>
<g id="a_node10"><a xlink:title=" ">
<polygon fill="none" stroke="#bfbfbf" points="238,-112.5 238,-131.5 318,-131.5 318,-112.5 238,-112.5"/>
<text text-anchor="middle" x="278" y="-119.5" font-family="FreeSans.ttf" font-size="10.00">CoreExport.h</text>
</a>
</g>
</g>
<!-- Node9&#45;&gt;Node10 -->
<g id="edge12" class="edge">
<title>Node9&#45;&gt;Node10</title>
<path fill="none" stroke="midnightblue" d="M278,-173.98C278,-165.58 278,-152.48 278,-141.66"/>
<polygon fill="midnightblue" stroke="midnightblue" points="281.5,-141.51 278,-131.51 274.5,-141.51 281.5,-141.51"/>
</g>
</g>
</svg>
