<?xml version="1.0" encoding="UTF-8" standalone="no"?>
<!DOCTYPE svg PUBLIC "-//W3C//DTD SVG 1.1//EN"
 "http://www.w3.org/Graphics/SVG/1.1/DTD/svg11.dtd">
<!-- Generated by graphviz version 2.43.0 (0)
 -->
<!-- Title: XMLDocument.h Pages: 1 -->
<svg width="403pt" height="140pt"
 viewBox="0.00 0.00 403.00 140.00" xmlns="http://www.w3.org/2000/svg" xmlns:xlink="http://www.w3.org/1999/xlink">
<g id="graph0" class="graph" transform="scale(1 1) rotate(0) translate(4 136)">
<title>XMLDocument.h</title>
<!-- Node1 -->
<g id="node1" class="node">
<title>Node1</title>
<g id="a_node1"><a xlink:title=" ">
<polygon fill="#bfbfbf" stroke="black" points="187,-112.5 187,-131.5 284,-131.5 284,-112.5 187,-112.5"/>
<text text-anchor="middle" x="235.5" y="-119.5" font-family="FreeSans.ttf" font-size="10.00">XMLDocument.h</text>
</a>
</g>
</g>
<!-- Node2 -->
<g id="node2" class="node">
<title>Node2</title>
<g id="a_node2"><a xlink:href="URDFDocument_8h.html" target="_top" xlink:title=" ">
<polygon fill="none" stroke="black" points="59.5,-56.5 59.5,-75.5 163.5,-75.5 163.5,-56.5 59.5,-56.5"/>
<text text-anchor="middle" x="111.5" y="-63.5" font-family="FreeSans.ttf" font-size="10.00">URDFDocument.h</text>
</a>
</g>
</g>
<!-- Node1&#45;&gt;Node2 -->
<g id="edge1" class="edge">
<title>Node1&#45;&gt;Node2</title>
<path fill="none" stroke="midnightblue" d="M206.49,-108.37C183.27,-98.26 151.34,-84.35 131.06,-75.52"/>
<polygon fill="midnightblue" stroke="midnightblue" points="205.29,-111.66 215.85,-112.44 208.08,-105.24 205.29,-111.66"/>
</g>
<!-- Node5 -->
<g id="node5" class="node">
<title>Node5</title>
<g id="a_node5"><a xlink:href="XMLDocument_8cpp.html" target="_top" xlink:title=" ">
<polygon fill="none" stroke="black" points="181.5,-56.5 181.5,-75.5 289.5,-75.5 289.5,-56.5 181.5,-56.5"/>
<text text-anchor="middle" x="235.5" y="-63.5" font-family="FreeSans.ttf" font-size="10.00">XMLDocument.cpp</text>
</a>
</g>
</g>
<!-- Node1&#45;&gt;Node5 -->
<g id="edge4" class="edge">
<title>Node1&#45;&gt;Node5</title>
<path fill="none" stroke="midnightblue" d="M235.5,-101.8C235.5,-92.91 235.5,-82.78 235.5,-75.75"/>
<polygon fill="midnightblue" stroke="midnightblue" points="232,-102.08 235.5,-112.08 239,-102.08 232,-102.08"/>
</g>
<!-- Node6 -->
<g id="node6" class="node">
<title>Node6</title>
<g id="a_node6"><a xlink:href="XMLParser_8cpp.html" target="_top" xlink:title=" ">
<polygon fill="none" stroke="black" points="308,-56.5 308,-75.5 395,-75.5 395,-56.5 308,-56.5"/>
<text text-anchor="middle" x="351.5" y="-63.5" font-family="FreeSans.ttf" font-size="10.00">XMLParser.cpp</text>
</a>
</g>
</g>
<!-- Node1&#45;&gt;Node6 -->
<g id="edge5" class="edge">
<title>Node1&#45;&gt;Node6</title>
<path fill="none" stroke="midnightblue" d="M263.22,-108.1C284.89,-98.01 314.4,-84.27 333.21,-75.52"/>
<polygon fill="midnightblue" stroke="midnightblue" points="261.47,-105.05 253.88,-112.44 264.42,-111.4 261.47,-105.05"/>
</g>
<!-- Node3 -->
<g id="node3" class="node">
<title>Node3</title>
<g id="a_node3"><a xlink:href="ModelLoader_8cpp.html" target="_top" xlink:title=" ">
<polygon fill="none" stroke="black" points="0,-0.5 0,-19.5 99,-19.5 99,-0.5 0,-0.5"/>
<text text-anchor="middle" x="49.5" y="-7.5" font-family="FreeSans.ttf" font-size="10.00">ModelLoader.cpp</text>
</a>
</g>
</g>
<!-- Node2&#45;&gt;Node3 -->
<g id="edge2" class="edge">
<title>Node2&#45;&gt;Node3</title>
<path fill="none" stroke="midnightblue" d="M93.75,-49.54C82.69,-39.91 68.87,-27.87 59.64,-19.83"/>
<polygon fill="midnightblue" stroke="midnightblue" points="91.7,-52.4 101.54,-56.32 96.3,-47.12 91.7,-52.4"/>
</g>
<!-- Node4 -->
<g id="node4" class="node">
<title>Node4</title>
<g id="a_node4"><a xlink:href="URDFDocument_8cpp.html" target="_top" xlink:title=" ">
<polygon fill="none" stroke="black" points="117,-0.5 117,-19.5 232,-19.5 232,-0.5 117,-0.5"/>
<text text-anchor="middle" x="174.5" y="-7.5" font-family="FreeSans.ttf" font-size="10.00">URDFDocument.cpp</text>
</a>
</g>
</g>
<!-- Node2&#45;&gt;Node4 -->
<g id="edge3" class="edge">
<title>Node2&#45;&gt;Node4</title>
<path fill="none" stroke="midnightblue" d="M129.54,-49.54C140.77,-39.91 154.82,-27.87 164.19,-19.83"/>
<polygon fill="midnightblue" stroke="midnightblue" points="126.94,-47.16 121.62,-56.32 131.49,-52.47 126.94,-47.16"/>
</g>
</g>
</svg>
