<?xml version="1.0" encoding="UTF-8" standalone="no"?>
<!DOCTYPE svg PUBLIC "-//W3C//DTD SVG 1.1//EN"
 "http://www.w3.org/Graphics/SVG/1.1/DTD/svg11.dtd">
<!-- Generated by graphviz version 2.43.0 (0)
 -->
<!-- Title: XMLDocument.cpp Pages: 1 -->
<svg width="388pt" height="140pt"
 viewBox="0.00 0.00 387.50 140.00" xmlns="http://www.w3.org/2000/svg" xmlns:xlink="http://www.w3.org/1999/xlink">
<g id="graph0" class="graph" transform="scale(1 1) rotate(0) translate(4 136)">
<title>XMLDocument.cpp</title>
<!-- Node1 -->
<g id="node1" class="node">
<title>Node1</title>
<g id="a_node1"><a xlink:title=" ">
<polygon fill="#bfbfbf" stroke="black" points="117,-112.5 117,-131.5 225,-131.5 225,-112.5 117,-112.5"/>
<text text-anchor="middle" x="171" y="-119.5" font-family="FreeSans.ttf" font-size="10.00">XMLDocument.cpp</text>
</a>
</g>
</g>
<!-- Node2 -->
<g id="node2" class="node">
<title>Node2</title>
<g id="a_node2"><a xlink:href="XMLDocument_8h.html" target="_top" xlink:title=" ">
<polygon fill="none" stroke="black" points="12.5,-56.5 12.5,-75.5 109.5,-75.5 109.5,-56.5 12.5,-56.5"/>
<text text-anchor="middle" x="61" y="-63.5" font-family="FreeSans.ttf" font-size="10.00">XMLDocument.h</text>
</a>
</g>
</g>
<!-- Node1&#45;&gt;Node2 -->
<g id="edge1" class="edge">
<title>Node1&#45;&gt;Node2</title>
<path fill="none" stroke="midnightblue" d="M153.33,-112.32C135.61,-103.62 108.1,-90.12 87.71,-80.11"/>
<polygon fill="midnightblue" stroke="midnightblue" points="89.15,-76.92 78.63,-75.65 86.06,-83.2 89.15,-76.92"/>
</g>
<!-- Node5 -->
<g id="node5" class="node">
<title>Node5</title>
<g id="a_node5"><a xlink:href="XMLElement_8h.html" target="_top" xlink:title=" ">
<polygon fill="none" stroke="black" points="127.5,-56.5 127.5,-75.5 214.5,-75.5 214.5,-56.5 127.5,-56.5"/>
<text text-anchor="middle" x="171" y="-63.5" font-family="FreeSans.ttf" font-size="10.00">XMLElement.h</text>
</a>
</g>
</g>
<!-- Node1&#45;&gt;Node5 -->
<g id="edge4" class="edge">
<title>Node1&#45;&gt;Node5</title>
<path fill="none" stroke="midnightblue" d="M171,-112.08C171,-105.01 171,-94.86 171,-85.99"/>
<polygon fill="midnightblue" stroke="midnightblue" points="174.5,-85.75 171,-75.75 167.5,-85.75 174.5,-85.75"/>
</g>
<!-- Node9 -->
<g id="node9" class="node">
<title>Node9</title>
<g id="a_node9"><a xlink:title=" ">
<polygon fill="none" stroke="#bfbfbf" points="233,-56.5 233,-75.5 289,-75.5 289,-56.5 233,-56.5"/>
<text text-anchor="middle" x="261" y="-63.5" font-family="FreeSans.ttf" font-size="10.00">sstream</text>
</a>
</g>
</g>
<!-- Node1&#45;&gt;Node9 -->
<g id="edge10" class="edge">
<title>Node1&#45;&gt;Node9</title>
<path fill="none" stroke="midnightblue" d="M185.46,-112.32C199.5,-103.9 221.05,-90.97 237.54,-81.07"/>
<polygon fill="midnightblue" stroke="midnightblue" points="239.8,-83.8 246.58,-75.65 236.2,-77.8 239.8,-83.8"/>
</g>
<!-- Node3 -->
<g id="node3" class="node">
<title>Node3</title>
<g id="a_node3"><a xlink:title=" ">
<polygon fill="none" stroke="#bfbfbf" points="62,-0.5 62,-19.5 120,-19.5 120,-0.5 62,-0.5"/>
<text text-anchor="middle" x="91" y="-7.5" font-family="FreeSans.ttf" font-size="10.00">memory</text>
</a>
</g>
</g>
<!-- Node2&#45;&gt;Node3 -->
<g id="edge2" class="edge">
<title>Node2&#45;&gt;Node3</title>
<path fill="none" stroke="midnightblue" d="M65.95,-56.08C70.1,-48.61 76.15,-37.72 81.27,-28.52"/>
<polygon fill="midnightblue" stroke="midnightblue" points="84.34,-30.19 86.14,-19.75 78.22,-26.79 84.34,-30.19"/>
</g>
<!-- Node4 -->
<g id="node4" class="node">
<title>Node4</title>
<g id="a_node4"><a xlink:title=" ">
<polygon fill="none" stroke="#bfbfbf" points="0,-0.5 0,-19.5 44,-19.5 44,-0.5 0,-0.5"/>
<text text-anchor="middle" x="22" y="-7.5" font-family="FreeSans.ttf" font-size="10.00">string</text>
</a>
</g>
</g>
<!-- Node2&#45;&gt;Node4 -->
<g id="edge3" class="edge">
<title>Node2&#45;&gt;Node4</title>
<path fill="none" stroke="midnightblue" d="M54.56,-56.08C49.05,-48.46 40.97,-37.26 34.24,-27.94"/>
<polygon fill="midnightblue" stroke="midnightblue" points="37.01,-25.81 28.32,-19.75 31.34,-29.91 37.01,-25.81"/>
</g>
<!-- Node5&#45;&gt;Node3 -->
<g id="edge6" class="edge">
<title>Node5&#45;&gt;Node3</title>
<path fill="none" stroke="midnightblue" d="M158.15,-56.32C145.78,-47.98 126.87,-35.21 112.26,-25.35"/>
<polygon fill="midnightblue" stroke="midnightblue" points="114.07,-22.35 103.82,-19.65 110.15,-28.15 114.07,-22.35"/>
</g>
<!-- Node5&#45;&gt;Node4 -->
<g id="edge7" class="edge">
<title>Node5&#45;&gt;Node4</title>
<path fill="none" stroke="midnightblue" d="M147.39,-56.44C122.1,-47.28 81.83,-32.68 53.78,-22.52"/>
<polygon fill="midnightblue" stroke="midnightblue" points="54.64,-19.11 44.04,-18.99 52.25,-25.69 54.64,-19.11"/>
</g>
<!-- Node6 -->
<g id="node6" class="node">
<title>Node6</title>
<g id="a_node6"><a xlink:title=" ">
<polygon fill="none" stroke="#bfbfbf" points="138.5,-0.5 138.5,-19.5 203.5,-19.5 203.5,-0.5 138.5,-0.5"/>
<text text-anchor="middle" x="171" y="-7.5" font-family="FreeSans.ttf" font-size="10.00">functional</text>
</a>
</g>
</g>
<!-- Node5&#45;&gt;Node6 -->
<g id="edge5" class="edge">
<title>Node5&#45;&gt;Node6</title>
<path fill="none" stroke="midnightblue" d="M171,-56.08C171,-49.01 171,-38.86 171,-29.99"/>
<polygon fill="midnightblue" stroke="midnightblue" points="174.5,-29.75 171,-19.75 167.5,-29.75 174.5,-29.75"/>
</g>
<!-- Node7 -->
<g id="node7" class="node">
<title>Node7</title>
<g id="a_node7"><a xlink:title=" ">
<polygon fill="none" stroke="#bfbfbf" points="221.5,-0.5 221.5,-19.5 314.5,-19.5 314.5,-0.5 221.5,-0.5"/>
<text text-anchor="middle" x="268" y="-7.5" font-family="FreeSans.ttf" font-size="10.00">unordered_map</text>
</a>
</g>
</g>
<!-- Node5&#45;&gt;Node7 -->
<g id="edge8" class="edge">
<title>Node5&#45;&gt;Node7</title>
<path fill="none" stroke="midnightblue" d="M186.58,-56.32C202,-47.74 225.81,-34.49 243.71,-24.52"/>
<polygon fill="midnightblue" stroke="midnightblue" points="245.42,-27.58 252.45,-19.65 242.01,-21.46 245.42,-27.58"/>
</g>
<!-- Node8 -->
<g id="node8" class="node">
<title>Node8</title>
<g id="a_node8"><a xlink:title=" ">
<polygon fill="none" stroke="#bfbfbf" points="332.5,-0.5 332.5,-19.5 379.5,-19.5 379.5,-0.5 332.5,-0.5"/>
<text text-anchor="middle" x="356" y="-7.5" font-family="FreeSans.ttf" font-size="10.00">vector</text>
</a>
</g>
</g>
<!-- Node5&#45;&gt;Node8 -->
<g id="edge9" class="edge">
<title>Node5&#45;&gt;Node8</title>
<path fill="none" stroke="midnightblue" d="M200.31,-56.44C233.6,-46.73 287.81,-30.9 322.68,-20.73"/>
<polygon fill="midnightblue" stroke="midnightblue" points="323.78,-24.05 332.4,-17.89 321.82,-17.33 323.78,-24.05"/>
</g>
</g>
</svg>
