<?xml version="1.0" encoding="UTF-8" standalone="no"?>
<!DOCTYPE svg PUBLIC "-//W3C//DTD SVG 1.1//EN"
 "http://www.w3.org/Graphics/SVG/1.1/DTD/svg11.dtd">
<!-- Generated by graphviz version 2.43.0 (0)
 -->
<!-- Title: XMLElement.h Pages: 1 -->
<svg width="1523pt" height="252pt"
 viewBox="0.00 0.00 1523.00 252.00" xmlns="http://www.w3.org/2000/svg" xmlns:xlink="http://www.w3.org/1999/xlink">
<g id="graph0" class="graph" transform="scale(1 1) rotate(0) translate(4 248)">
<title>XMLElement.h</title>
<!-- Node1 -->
<g id="node1" class="node">
<title>Node1</title>
<g id="a_node1"><a xlink:title=" ">
<polygon fill="#bfbfbf" stroke="black" points="904,-224.5 904,-243.5 991,-243.5 991,-224.5 904,-224.5"/>
<text text-anchor="middle" x="947.5" y="-231.5" font-family="FreeSans.ttf" font-size="10.00">XMLElement.h</text>
</a>
</g>
</g>
<!-- Node2 -->
<g id="node2" class="node">
<title>Node2</title>
<g id="a_node2"><a xlink:href="ForceTorqueSensorElement_8h.html" target="_top" xlink:title=" ">
<polygon fill="none" stroke="black" points="101.5,-112.5 101.5,-131.5 259.5,-131.5 259.5,-112.5 101.5,-112.5"/>
<text text-anchor="middle" x="180.5" y="-119.5" font-family="FreeSans.ttf" font-size="10.00">ForceTorqueSensorElement.h</text>
</a>
</g>
</g>
<!-- Node1&#45;&gt;Node2 -->
<g id="edge1" class="edge">
<title>Node1&#45;&gt;Node2</title>
<path fill="none" stroke="midnightblue" d="M893.8,-233.48C753.57,-234.09 379.28,-231.49 264.5,-188 232.08,-175.72 201.98,-146.42 188.27,-131.72"/>
<polygon fill="midnightblue" stroke="midnightblue" points="893.9,-236.98 903.88,-233.43 893.86,-229.98 893.9,-236.98"/>
</g>
<!-- Node5 -->
<g id="node5" class="node">
<title>Node5</title>
<g id="a_node5"><a xlink:href="SensorElement_8h.html" target="_top" xlink:title=" ">
<polygon fill="none" stroke="black" points="274,-168.5 274,-187.5 373,-187.5 373,-168.5 274,-168.5"/>
<text text-anchor="middle" x="323.5" y="-175.5" font-family="FreeSans.ttf" font-size="10.00">SensorElement.h</text>
</a>
</g>
</g>
<!-- Node1&#45;&gt;Node5 -->
<g id="edge4" class="edge">
<title>Node1&#45;&gt;Node5</title>
<path fill="none" stroke="midnightblue" d="M893.7,-229.75C793.79,-223.47 572.89,-208.47 387.5,-188 382.82,-187.48 377.95,-186.89 373.08,-186.27"/>
<polygon fill="midnightblue" stroke="midnightblue" points="893.65,-233.25 903.85,-230.38 894.09,-226.26 893.65,-233.25"/>
</g>
<!-- Node10 -->
<g id="node10" class="node">
<title>Node10</title>
<g id="a_node10"><a xlink:href="GeometryElement_8h.html" target="_top" xlink:title=" ">
<polygon fill="none" stroke="black" points="976,-168.5 976,-187.5 1091,-187.5 1091,-168.5 976,-168.5"/>
<text text-anchor="middle" x="1033.5" y="-175.5" font-family="FreeSans.ttf" font-size="10.00">GeometryElement.h</text>
</a>
</g>
</g>
<!-- Node1&#45;&gt;Node10 -->
<g id="edge11" class="edge">
<title>Node1&#45;&gt;Node10</title>
<path fill="none" stroke="midnightblue" d="M969.95,-218.9C985.72,-209 1006.31,-196.07 1019.72,-187.65"/>
<polygon fill="midnightblue" stroke="midnightblue" points="967.93,-216.04 961.32,-224.32 971.65,-221.97 967.93,-216.04"/>
</g>
<!-- Node13 -->
<g id="node13" class="node">
<title>Node13</title>
<g id="a_node13"><a xlink:href="InertialElement_8h.html" target="_top" xlink:title=" ">
<polygon fill="none" stroke="black" points="1271,-112.5 1271,-131.5 1372,-131.5 1372,-112.5 1271,-112.5"/>
<text text-anchor="middle" x="1321.5" y="-119.5" font-family="FreeSans.ttf" font-size="10.00">InertialElement.h</text>
</a>
</g>
</g>
<!-- Node1&#45;&gt;Node13 -->
<g id="edge14" class="edge">
<title>Node1&#45;&gt;Node13</title>
<path fill="none" stroke="midnightblue" d="M1001.31,-222.71C1038.64,-214.89 1089.23,-202.95 1132.5,-188 1152.8,-180.99 1156.42,-175.64 1176.5,-168 1214.93,-153.37 1260.37,-139.86 1290,-131.54"/>
<polygon fill="midnightblue" stroke="midnightblue" points="1000.24,-219.35 991.15,-224.8 1001.65,-226.21 1000.24,-219.35"/>
</g>
<!-- Node16 -->
<g id="node16" class="node">
<title>Node16</title>
<g id="a_node16"><a xlink:href="JointElement_8h.html" target="_top" xlink:title=" ">
<polygon fill="none" stroke="black" points="467.5,-112.5 467.5,-131.5 555.5,-131.5 555.5,-112.5 467.5,-112.5"/>
<text text-anchor="middle" x="511.5" y="-119.5" font-family="FreeSans.ttf" font-size="10.00">JointElement.h</text>
</a>
</g>
</g>
<!-- Node1&#45;&gt;Node16 -->
<g id="edge17" class="edge">
<title>Node1&#45;&gt;Node16</title>
<path fill="none" stroke="midnightblue" d="M893.56,-225.97C842.16,-218.65 762.83,-205.78 695.5,-188 634.9,-172 565.8,-145.18 532.13,-131.53"/>
<polygon fill="midnightblue" stroke="midnightblue" points="893.39,-229.48 903.78,-227.4 894.36,-222.54 893.39,-229.48"/>
</g>
<!-- Node17 -->
<g id="node17" class="node">
<title>Node17</title>
<g id="a_node17"><a xlink:href="RobotElement_8h.html" target="_top" xlink:title=" ">
<polygon fill="none" stroke="black" points="591,-56.5 591,-75.5 686,-75.5 686,-56.5 591,-56.5"/>
<text text-anchor="middle" x="638.5" y="-63.5" font-family="FreeSans.ttf" font-size="10.00">RobotElement.h</text>
</a>
</g>
</g>
<!-- Node1&#45;&gt;Node17 -->
<g id="edge46" class="edge">
<title>Node1&#45;&gt;Node17</title>
<path fill="none" stroke="midnightblue" d="M893.51,-230.62C777.16,-224.18 509.18,-201.92 458.5,-132 423.45,-83.64 526.36,-71.15 590.78,-67.99"/>
<polygon fill="midnightblue" stroke="midnightblue" points="893.45,-234.12 903.62,-231.16 893.82,-227.13 893.45,-234.12"/>
</g>
<!-- Node19 -->
<g id="node19" class="node">
<title>Node19</title>
<g id="a_node19"><a xlink:href="LinkElement_8h.html" target="_top" xlink:title=" ">
<polygon fill="none" stroke="black" points="904.5,-56.5 904.5,-75.5 990.5,-75.5 990.5,-56.5 904.5,-56.5"/>
<text text-anchor="middle" x="947.5" y="-63.5" font-family="FreeSans.ttf" font-size="10.00">LinkElement.h</text>
</a>
</g>
</g>
<!-- Node1&#45;&gt;Node19 -->
<g id="edge24" class="edge">
<title>Node1&#45;&gt;Node19</title>
<path fill="none" stroke="midnightblue" d="M947.5,-213.93C947.5,-177.92 947.5,-101.23 947.5,-75.57"/>
<polygon fill="midnightblue" stroke="midnightblue" points="944,-214.08 947.5,-224.08 951,-214.08 944,-214.08"/>
</g>
<!-- Node20 -->
<g id="node20" class="node">
<title>Node20</title>
<g id="a_node20"><a xlink:href="VisualElement_8h.html" target="_top" xlink:title=" ">
<polygon fill="none" stroke="black" points="785.5,-112.5 785.5,-131.5 881.5,-131.5 881.5,-112.5 785.5,-112.5"/>
<text text-anchor="middle" x="833.5" y="-119.5" font-family="FreeSans.ttf" font-size="10.00">VisualElement.h</text>
</a>
</g>
</g>
<!-- Node1&#45;&gt;Node20 -->
<g id="edge27" class="edge">
<title>Node1&#45;&gt;Node20</title>
<path fill="none" stroke="midnightblue" d="M931.13,-217.21C906.7,-193.63 861.51,-150.03 842.4,-131.59"/>
<polygon fill="midnightblue" stroke="midnightblue" points="928.93,-219.94 938.55,-224.37 933.79,-214.91 928.93,-219.94"/>
</g>
<!-- Node21 -->
<g id="node21" class="node">
<title>Node21</title>
<g id="a_node21"><a xlink:href="MaterialElement_8h.html" target="_top" xlink:title=" ">
<polygon fill="none" stroke="black" points="704,-168.5 704,-187.5 811,-187.5 811,-168.5 704,-168.5"/>
<text text-anchor="middle" x="757.5" y="-175.5" font-family="FreeSans.ttf" font-size="10.00">MaterialElement.h</text>
</a>
</g>
</g>
<!-- Node1&#45;&gt;Node21 -->
<g id="edge33" class="edge">
<title>Node1&#45;&gt;Node21</title>
<path fill="none" stroke="midnightblue" d="M907.74,-221.7C871.88,-211.51 819.93,-196.74 787.47,-187.52"/>
<polygon fill="midnightblue" stroke="midnightblue" points="906.82,-225.08 917.39,-224.44 908.73,-218.34 906.82,-225.08"/>
</g>
<!-- Node23 -->
<g id="node23" class="node">
<title>Node23</title>
<g id="a_node23"><a xlink:href="OriginElement_8h.html" target="_top" xlink:title=" ">
<polygon fill="none" stroke="black" points="1158,-112.5 1158,-131.5 1253,-131.5 1253,-112.5 1158,-112.5"/>
<text text-anchor="middle" x="1205.5" y="-119.5" font-family="FreeSans.ttf" font-size="10.00">OriginElement.h</text>
</a>
</g>
</g>
<!-- Node1&#45;&gt;Node23 -->
<g id="edge40" class="edge">
<title>Node1&#45;&gt;Node23</title>
<path fill="none" stroke="midnightblue" d="M997.19,-221.98C1027.72,-214.34 1067.23,-202.87 1100.5,-188 1136.52,-171.91 1175,-145.37 1193.8,-131.71"/>
<polygon fill="midnightblue" stroke="midnightblue" points="996.09,-218.65 987.2,-224.43 997.75,-225.45 996.09,-218.65"/>
</g>
<!-- Node25 -->
<g id="node25" class="node">
<title>Node25</title>
<g id="a_node25"><a xlink:href="XMLDocument_8cpp.html" target="_top" xlink:title=" ">
<polygon fill="none" stroke="black" points="1185.5,-168.5 1185.5,-187.5 1293.5,-187.5 1293.5,-168.5 1185.5,-168.5"/>
<text text-anchor="middle" x="1239.5" y="-175.5" font-family="FreeSans.ttf" font-size="10.00">XMLDocument.cpp</text>
</a>
</g>
</g>
<!-- Node1&#45;&gt;Node25 -->
<g id="edge47" class="edge">
<title>Node1&#45;&gt;Node25</title>
<path fill="none" stroke="midnightblue" d="M1001.13,-223.08C1056.14,-212.91 1140.84,-197.25 1193.07,-187.59"/>
<polygon fill="midnightblue" stroke="midnightblue" points="1000.41,-219.66 991.22,-224.92 1001.69,-226.54 1000.41,-219.66"/>
</g>
<!-- Node26 -->
<g id="node26" class="node">
<title>Node26</title>
<g id="a_node26"><a xlink:href="XMLElement_8cpp.html" target="_top" xlink:title=" ">
<polygon fill="none" stroke="black" points="1311.5,-168.5 1311.5,-187.5 1409.5,-187.5 1409.5,-168.5 1311.5,-168.5"/>
<text text-anchor="middle" x="1360.5" y="-175.5" font-family="FreeSans.ttf" font-size="10.00">XMLElement.cpp</text>
</a>
</g>
</g>
<!-- Node1&#45;&gt;Node26 -->
<g id="edge48" class="edge">
<title>Node1&#45;&gt;Node26</title>
<path fill="none" stroke="midnightblue" d="M1001.55,-226.62C1071.21,-218.3 1196.01,-203.01 1302.5,-188 1305.43,-187.59 1308.43,-187.15 1311.47,-186.71"/>
<polygon fill="midnightblue" stroke="midnightblue" points="1000.79,-223.19 991.27,-227.85 1001.62,-230.14 1000.79,-223.19"/>
</g>
<!-- Node27 -->
<g id="node27" class="node">
<title>Node27</title>
<g id="a_node27"><a xlink:href="XMLParser_8cpp.html" target="_top" xlink:title=" ">
<polygon fill="none" stroke="black" points="1428,-168.5 1428,-187.5 1515,-187.5 1515,-168.5 1428,-168.5"/>
<text text-anchor="middle" x="1471.5" y="-175.5" font-family="FreeSans.ttf" font-size="10.00">XMLParser.cpp</text>
</a>
</g>
</g>
<!-- Node1&#45;&gt;Node27 -->
<g id="edge49" class="edge">
<title>Node1&#45;&gt;Node27</title>
<path fill="none" stroke="midnightblue" d="M1001.36,-229.14C1089,-222.57 1267.87,-207.96 1418.5,-188 1421.55,-187.6 1424.7,-187.15 1427.87,-186.67"/>
<polygon fill="midnightblue" stroke="midnightblue" points="1000.84,-225.67 991.13,-229.9 1001.36,-232.65 1000.84,-225.67"/>
</g>
<!-- Node3 -->
<g id="node3" class="node">
<title>Node3</title>
<g id="a_node3"><a xlink:href="ForceTorqueSensorElement_8cpp.html" target="_top" xlink:title=" ">
<polygon fill="none" stroke="black" points="0,-56.5 0,-75.5 169,-75.5 169,-56.5 0,-56.5"/>
<text text-anchor="middle" x="84.5" y="-63.5" font-family="FreeSans.ttf" font-size="10.00">ForceTorqueSensorElement.cpp</text>
</a>
</g>
</g>
<!-- Node2&#45;&gt;Node3 -->
<g id="edge2" class="edge">
<title>Node2&#45;&gt;Node3</title>
<path fill="none" stroke="midnightblue" d="M155.93,-107.18C138.26,-97.24 114.99,-84.15 99.89,-75.65"/>
<polygon fill="midnightblue" stroke="midnightblue" points="154.64,-110.47 165.08,-112.32 158.08,-104.37 154.64,-110.47"/>
</g>
<!-- Node4 -->
<g id="node4" class="node">
<title>Node4</title>
<g id="a_node4"><a xlink:href="SensorElement_8cpp.html" target="_top" xlink:title=" ">
<polygon fill="none" stroke="black" points="187.5,-56.5 187.5,-75.5 297.5,-75.5 297.5,-56.5 187.5,-56.5"/>
<text text-anchor="middle" x="242.5" y="-63.5" font-family="FreeSans.ttf" font-size="10.00">SensorElement.cpp</text>
</a>
</g>
</g>
<!-- Node2&#45;&gt;Node4 -->
<g id="edge3" class="edge">
<title>Node2&#45;&gt;Node4</title>
<path fill="none" stroke="midnightblue" d="M198.25,-105.54C209.31,-95.91 223.13,-83.87 232.36,-75.83"/>
<polygon fill="midnightblue" stroke="midnightblue" points="195.7,-103.12 190.46,-112.32 200.3,-108.4 195.7,-103.12"/>
</g>
<!-- Node5&#45;&gt;Node2 -->
<g id="edge5" class="edge">
<title>Node5&#45;&gt;Node2</title>
<path fill="none" stroke="midnightblue" d="M291.47,-164.91C264.59,-154.75 226.86,-140.51 203.05,-131.52"/>
<polygon fill="midnightblue" stroke="midnightblue" points="290.25,-168.19 300.84,-168.44 292.72,-161.64 290.25,-168.19"/>
</g>
<!-- Node5&#45;&gt;Node4 -->
<g id="edge10" class="edge">
<title>Node5&#45;&gt;Node4</title>
<path fill="none" stroke="midnightblue" d="M311.18,-160.27C293.67,-136.49 262.23,-93.79 248.83,-75.59"/>
<polygon fill="midnightblue" stroke="midnightblue" points="308.4,-162.39 317.14,-168.37 314.03,-158.24 308.4,-162.39"/>
</g>
<!-- Node6 -->
<g id="node6" class="node">
<title>Node6</title>
<g id="a_node6"><a xlink:href="URDFDocument_8h.html" target="_top" xlink:title=" ">
<polygon fill="none" stroke="black" points="394.5,-56.5 394.5,-75.5 498.5,-75.5 498.5,-56.5 394.5,-56.5"/>
<text text-anchor="middle" x="446.5" y="-63.5" font-family="FreeSans.ttf" font-size="10.00">URDFDocument.h</text>
</a>
</g>
</g>
<!-- Node5&#45;&gt;Node6 -->
<g id="edge6" class="edge">
<title>Node5&#45;&gt;Node6</title>
<path fill="none" stroke="midnightblue" d="M338.4,-160.62C351,-147.08 369.79,-127.61 387.5,-112 402.77,-98.54 421.67,-84.56 433.89,-75.82"/>
<polygon fill="midnightblue" stroke="midnightblue" points="335.62,-158.47 331.42,-168.2 340.77,-163.22 335.62,-158.47"/>
</g>
<!-- Node9 -->
<g id="node9" class="node">
<title>Node9</title>
<g id="a_node9"><a xlink:href="RobotElement_8cpp.html" target="_top" xlink:title=" ">
<polygon fill="none" stroke="black" points="616.5,-0.5 616.5,-19.5 722.5,-19.5 722.5,-0.5 616.5,-0.5"/>
<text text-anchor="middle" x="669.5" y="-7.5" font-family="FreeSans.ttf" font-size="10.00">RobotElement.cpp</text>
</a>
</g>
</g>
<!-- Node5&#45;&gt;Node9 -->
<g id="edge9" class="edge">
<title>Node5&#45;&gt;Node9</title>
<path fill="none" stroke="midnightblue" d="M327.43,-158.41C334.23,-131.21 350.9,-81.08 385.5,-56 390.15,-52.63 535.22,-30.8 616.17,-18.83"/>
<polygon fill="midnightblue" stroke="midnightblue" points="324.01,-157.69 325.17,-168.22 330.83,-159.27 324.01,-157.69"/>
</g>
<!-- Node7 -->
<g id="node7" class="node">
<title>Node7</title>
<g id="a_node7"><a xlink:href="ModelLoader_8cpp.html" target="_top" xlink:title=" ">
<polygon fill="none" stroke="black" points="366,-0.5 366,-19.5 465,-19.5 465,-0.5 366,-0.5"/>
<text text-anchor="middle" x="415.5" y="-7.5" font-family="FreeSans.ttf" font-size="10.00">ModelLoader.cpp</text>
</a>
</g>
</g>
<!-- Node6&#45;&gt;Node7 -->
<g id="edge7" class="edge">
<title>Node6&#45;&gt;Node7</title>
<path fill="none" stroke="midnightblue" d="M436.32,-47.27C431.03,-38.05 424.78,-27.17 420.52,-19.75"/>
<polygon fill="midnightblue" stroke="midnightblue" points="433.37,-49.15 441.38,-56.08 439.44,-45.67 433.37,-49.15"/>
</g>
<!-- Node8 -->
<g id="node8" class="node">
<title>Node8</title>
<g id="a_node8"><a xlink:href="URDFDocument_8cpp.html" target="_top" xlink:title=" ">
<polygon fill="none" stroke="black" points="483,-0.5 483,-19.5 598,-19.5 598,-0.5 483,-0.5"/>
<text text-anchor="middle" x="540.5" y="-7.5" font-family="FreeSans.ttf" font-size="10.00">URDFDocument.cpp</text>
</a>
</g>
</g>
<!-- Node6&#45;&gt;Node8 -->
<g id="edge8" class="edge">
<title>Node6&#45;&gt;Node8</title>
<path fill="none" stroke="midnightblue" d="M470.56,-51.18C487.86,-41.24 510.65,-28.15 525.43,-19.65"/>
<polygon fill="midnightblue" stroke="midnightblue" points="468.53,-48.31 461.6,-56.32 472.02,-54.38 468.53,-48.31"/>
</g>
<!-- Node11 -->
<g id="node11" class="node">
<title>Node11</title>
<g id="a_node11"><a xlink:href="GeometryElement_8cpp.html" target="_top" xlink:title=" ">
<polygon fill="none" stroke="black" points="975.5,-112.5 975.5,-131.5 1101.5,-131.5 1101.5,-112.5 975.5,-112.5"/>
<text text-anchor="middle" x="1038.5" y="-119.5" font-family="FreeSans.ttf" font-size="10.00">GeometryElement.cpp</text>
</a>
</g>
</g>
<!-- Node10&#45;&gt;Node11 -->
<g id="edge12" class="edge">
<title>Node10&#45;&gt;Node11</title>
<path fill="none" stroke="midnightblue" d="M1035.25,-158.1C1036.08,-149.14 1037.03,-138.86 1037.69,-131.75"/>
<polygon fill="midnightblue" stroke="midnightblue" points="1031.76,-157.8 1034.33,-168.08 1038.73,-158.45 1031.76,-157.8"/>
</g>
<!-- Node12 -->
<g id="node12" class="node">
<title>Node12</title>
<g id="a_node12"><a xlink:href="VisualElement_8cpp.html" target="_top" xlink:title=" ">
<polygon fill="none" stroke="black" points="1009,-56.5 1009,-75.5 1116,-75.5 1116,-56.5 1009,-56.5"/>
<text text-anchor="middle" x="1062.5" y="-63.5" font-family="FreeSans.ttf" font-size="10.00">VisualElement.cpp</text>
</a>
</g>
</g>
<!-- Node10&#45;&gt;Node12 -->
<g id="edge13" class="edge">
<title>Node10&#45;&gt;Node12</title>
<path fill="none" stroke="midnightblue" d="M1071.07,-164.54C1086.11,-157.5 1101.88,-147.01 1110.5,-132 1122.86,-110.46 1095.18,-87.64 1076.92,-75.6"/>
<polygon fill="midnightblue" stroke="midnightblue" points="1069.68,-161.33 1061.87,-168.49 1072.44,-167.76 1069.68,-161.33"/>
</g>
<!-- Node14 -->
<g id="node14" class="node">
<title>Node14</title>
<g id="a_node14"><a xlink:href="InertialElement_8cpp.html" target="_top" xlink:title=" ">
<polygon fill="none" stroke="black" points="1259.5,-56.5 1259.5,-75.5 1371.5,-75.5 1371.5,-56.5 1259.5,-56.5"/>
<text text-anchor="middle" x="1315.5" y="-63.5" font-family="FreeSans.ttf" font-size="10.00">InertialElement.cpp</text>
</a>
</g>
</g>
<!-- Node13&#45;&gt;Node14 -->
<g id="edge15" class="edge">
<title>Node13&#45;&gt;Node14</title>
<path fill="none" stroke="midnightblue" d="M1319.4,-102.1C1318.4,-93.14 1317.26,-82.86 1316.47,-75.75"/>
<polygon fill="midnightblue" stroke="midnightblue" points="1315.93,-102.53 1320.51,-112.08 1322.88,-101.76 1315.93,-102.53"/>
</g>
<!-- Node15 -->
<g id="node15" class="node">
<title>Node15</title>
<g id="a_node15"><a xlink:href="LinkElement_8cpp.html" target="_top" xlink:title=" ">
<polygon fill="none" stroke="black" points="898.5,-0.5 898.5,-19.5 996.5,-19.5 996.5,-0.5 898.5,-0.5"/>
<text text-anchor="middle" x="947.5" y="-7.5" font-family="FreeSans.ttf" font-size="10.00">LinkElement.cpp</text>
</a>
</g>
</g>
<!-- Node13&#45;&gt;Node15 -->
<g id="edge16" class="edge">
<title>Node13&#45;&gt;Node15</title>
<path fill="none" stroke="midnightblue" d="M1348.2,-107.41C1370.59,-94.28 1396.55,-73.81 1380.5,-56 1355.17,-27.9 1104.52,-16.23 996.56,-12.47"/>
<polygon fill="midnightblue" stroke="midnightblue" points="1346.29,-104.47 1339.26,-112.4 1349.7,-110.58 1346.29,-104.47"/>
</g>
<!-- Node16&#45;&gt;Node6 -->
<g id="edge21" class="edge">
<title>Node16&#45;&gt;Node6</title>
<path fill="none" stroke="midnightblue" d="M493.23,-105.82C481.58,-96.15 466.9,-83.95 457.13,-75.83"/>
<polygon fill="midnightblue" stroke="midnightblue" points="491.13,-108.63 501.06,-112.32 495.6,-103.24 491.13,-108.63"/>
</g>
<!-- Node16&#45;&gt;Node9 -->
<g id="edge23" class="edge">
<title>Node16&#45;&gt;Node9</title>
<path fill="none" stroke="midnightblue" d="M526.78,-104.77C540.51,-90.76 561.65,-70.55 582.5,-56 603.97,-41.01 631.1,-27.77 649.3,-19.6"/>
<polygon fill="midnightblue" stroke="midnightblue" points="524.03,-102.58 519.62,-112.21 529.07,-107.44 524.03,-102.58"/>
</g>
<!-- Node16&#45;&gt;Node17 -->
<g id="edge18" class="edge">
<title>Node16&#45;&gt;Node17</title>
<path fill="none" stroke="midnightblue" d="M540.89,-108.5C564.7,-98.38 597.61,-84.39 618.47,-75.52"/>
<polygon fill="midnightblue" stroke="midnightblue" points="539.46,-105.31 531.62,-112.44 542.2,-111.75 539.46,-105.31"/>
</g>
<!-- Node18 -->
<g id="node18" class="node">
<title>Node18</title>
<g id="a_node18"><a xlink:href="JointElement_8cpp.html" target="_top" xlink:title=" ">
<polygon fill="none" stroke="black" points="749,-56.5 749,-75.5 848,-75.5 848,-56.5 749,-56.5"/>
<text text-anchor="middle" x="798.5" y="-63.5" font-family="FreeSans.ttf" font-size="10.00">JointElement.cpp</text>
</a>
</g>
</g>
<!-- Node16&#45;&gt;Node18 -->
<g id="edge22" class="edge">
<title>Node16&#45;&gt;Node18</title>
<path fill="none" stroke="midnightblue" d="M565.84,-110.78C620.09,-100.57 702.5,-85.06 753.29,-75.51"/>
<polygon fill="midnightblue" stroke="midnightblue" points="564.9,-107.39 555.71,-112.68 566.19,-114.27 564.9,-107.39"/>
</g>
<!-- Node17&#45;&gt;Node8 -->
<g id="edge20" class="edge">
<title>Node17&#45;&gt;Node8</title>
<path fill="none" stroke="midnightblue" d="M613.91,-51.45C595.82,-41.48 571.77,-28.23 556.21,-19.65"/>
<polygon fill="midnightblue" stroke="midnightblue" points="612.31,-54.56 622.75,-56.32 615.69,-48.43 612.31,-54.56"/>
</g>
<!-- Node17&#45;&gt;Node9 -->
<g id="edge19" class="edge">
<title>Node17&#45;&gt;Node9</title>
<path fill="none" stroke="midnightblue" d="M648.68,-47.27C653.97,-38.05 660.22,-27.17 664.48,-19.75"/>
<polygon fill="midnightblue" stroke="midnightblue" points="645.56,-45.67 643.62,-56.08 651.63,-49.15 645.56,-45.67"/>
</g>
<!-- Node19&#45;&gt;Node9 -->
<g id="edge26" class="edge">
<title>Node19&#45;&gt;Node9</title>
<path fill="none" stroke="midnightblue" d="M894.26,-54.66C841.83,-44.47 762.69,-29.1 713.65,-19.58"/>
<polygon fill="midnightblue" stroke="midnightblue" points="893.88,-58.15 904.37,-56.62 895.22,-51.28 893.88,-58.15"/>
</g>
<!-- Node19&#45;&gt;Node15 -->
<g id="edge25" class="edge">
<title>Node19&#45;&gt;Node15</title>
<path fill="none" stroke="midnightblue" d="M947.5,-45.8C947.5,-36.91 947.5,-26.78 947.5,-19.75"/>
<polygon fill="midnightblue" stroke="midnightblue" points="944,-46.08 947.5,-56.08 951,-46.08 944,-46.08"/>
</g>
<!-- Node20&#45;&gt;Node6 -->
<g id="edge30" class="edge">
<title>Node20&#45;&gt;Node6</title>
<path fill="none" stroke="midnightblue" d="M775.04,-112.84C699.94,-102.36 570.71,-84.33 498.74,-74.29"/>
<polygon fill="midnightblue" stroke="midnightblue" points="774.88,-116.35 785.27,-114.27 775.85,-109.42 774.88,-116.35"/>
</g>
<!-- Node20&#45;&gt;Node12 -->
<g id="edge32" class="edge">
<title>Node20&#45;&gt;Node12</title>
<path fill="none" stroke="midnightblue" d="M879.77,-110.09C923.04,-99.89 986.76,-84.86 1026.38,-75.52"/>
<polygon fill="midnightblue" stroke="midnightblue" points="878.72,-106.74 869.79,-112.44 880.32,-113.55 878.72,-106.74"/>
</g>
<!-- Node20&#45;&gt;Node15 -->
<g id="edge31" class="edge">
<title>Node20&#45;&gt;Node15</title>
<path fill="none" stroke="midnightblue" d="M848.11,-104.84C860.42,-91.43 878.67,-72.03 895.5,-56 909.33,-42.82 926.19,-28.54 936.88,-19.68"/>
<polygon fill="midnightblue" stroke="midnightblue" points="845.43,-102.59 841.27,-112.33 850.6,-107.3 845.43,-102.59"/>
</g>
<!-- Node20&#45;&gt;Node17 -->
<g id="edge29" class="edge">
<title>Node20&#45;&gt;Node17</title>
<path fill="none" stroke="midnightblue" d="M792.69,-109.7C755.89,-99.51 702.57,-84.74 669.25,-75.52"/>
<polygon fill="midnightblue" stroke="midnightblue" points="792.03,-113.15 802.6,-112.44 793.9,-106.4 792.03,-113.15"/>
</g>
<!-- Node20&#45;&gt;Node19 -->
<g id="edge28" class="edge">
<title>Node20&#45;&gt;Node19</title>
<path fill="none" stroke="midnightblue" d="M860.74,-108.1C882.04,-98.01 911.04,-84.27 929.52,-75.52"/>
<polygon fill="midnightblue" stroke="midnightblue" points="859.1,-105 851.56,-112.44 862.1,-111.33 859.1,-105"/>
</g>
<!-- Node21&#45;&gt;Node6 -->
<g id="edge36" class="edge">
<title>Node21&#45;&gt;Node6</title>
<path fill="none" stroke="midnightblue" d="M693.54,-175.82C615.84,-172.99 491.09,-163.52 458.5,-132 443.16,-117.16 443.78,-89.57 445.26,-75.59"/>
<polygon fill="midnightblue" stroke="midnightblue" points="693.59,-179.32 703.7,-176.16 693.83,-172.33 693.59,-179.32"/>
</g>
<!-- Node21&#45;&gt;Node9 -->
<g id="edge38" class="edge">
<title>Node21&#45;&gt;Node9</title>
<path fill="none" stroke="midnightblue" d="M748.76,-159.26C737,-135.54 715.27,-92.29 695.5,-56 688.51,-43.16 679.95,-28.55 674.61,-19.55"/>
<polygon fill="midnightblue" stroke="midnightblue" points="745.72,-161 753.29,-168.41 751.99,-157.9 745.72,-161"/>
</g>
<!-- Node21&#45;&gt;Node12 -->
<g id="edge39" class="edge">
<title>Node21&#45;&gt;Node12</title>
<path fill="none" stroke="midnightblue" d="M793.32,-165.26C820.15,-156.37 857.74,-143.73 890.5,-132 944.75,-112.58 1008.01,-88.23 1040.6,-75.56"/>
<polygon fill="midnightblue" stroke="midnightblue" points="791.99,-162.01 783.59,-168.47 794.18,-168.66 791.99,-162.01"/>
</g>
<!-- Node21&#45;&gt;Node17 -->
<g id="edge35" class="edge">
<title>Node21&#45;&gt;Node17</title>
<path fill="none" stroke="midnightblue" d="M744.68,-160.41C733.69,-146.69 717.06,-127.1 700.5,-112 684.97,-97.84 664.99,-84.02 651.97,-75.51"/>
<polygon fill="midnightblue" stroke="midnightblue" points="742.09,-162.77 751.02,-168.46 747.58,-158.44 742.09,-162.77"/>
</g>
<!-- Node21&#45;&gt;Node20 -->
<g id="edge34" class="edge">
<title>Node21&#45;&gt;Node20</title>
<path fill="none" stroke="midnightblue" d="M778.08,-162.38C791.81,-152.62 809.43,-140.11 821.07,-131.83"/>
<polygon fill="midnightblue" stroke="midnightblue" points="775.84,-159.68 769.71,-168.32 779.89,-165.38 775.84,-159.68"/>
</g>
<!-- Node22 -->
<g id="node22" class="node">
<title>Node22</title>
<g id="a_node22"><a xlink:href="MaterialElement_8cpp.html" target="_top" xlink:title=" ">
<polygon fill="none" stroke="black" points="573.5,-112.5 573.5,-131.5 691.5,-131.5 691.5,-112.5 573.5,-112.5"/>
<text text-anchor="middle" x="632.5" y="-119.5" font-family="FreeSans.ttf" font-size="10.00">MaterialElement.cpp</text>
</a>
</g>
</g>
<!-- Node21&#45;&gt;Node22 -->
<g id="edge37" class="edge">
<title>Node21&#45;&gt;Node22</title>
<path fill="none" stroke="midnightblue" d="M728.26,-164.37C704.85,-154.26 672.66,-140.35 652.21,-131.52"/>
<polygon fill="midnightblue" stroke="midnightblue" points="727.13,-167.69 737.69,-168.44 729.9,-161.26 727.13,-167.69"/>
</g>
<!-- Node23&#45;&gt;Node4 -->
<g id="edge44" class="edge">
<title>Node23&#45;&gt;Node4</title>
<path fill="none" stroke="midnightblue" d="M1147.59,-115.1C1135.35,-113.97 1122.51,-112.87 1110.5,-112 788.72,-88.78 707.61,-94.13 385.5,-76 356.57,-74.37 324.35,-72.36 297.83,-70.65"/>
<polygon fill="midnightblue" stroke="midnightblue" points="1147.41,-118.6 1157.69,-116.05 1148.07,-111.63 1147.41,-118.6"/>
</g>
<!-- Node23&#45;&gt;Node12 -->
<g id="edge45" class="edge">
<title>Node23&#45;&gt;Node12</title>
<path fill="none" stroke="midnightblue" d="M1173.47,-108.91C1146.59,-98.75 1108.86,-84.51 1085.05,-75.52"/>
<polygon fill="midnightblue" stroke="midnightblue" points="1172.25,-112.19 1182.84,-112.44 1174.72,-105.64 1172.25,-112.19"/>
</g>
<!-- Node23&#45;&gt;Node14 -->
<g id="edge41" class="edge">
<title>Node23&#45;&gt;Node14</title>
<path fill="none" stroke="midnightblue" d="M1232.26,-107.86C1252.66,-97.85 1280.17,-84.35 1297.87,-75.65"/>
<polygon fill="midnightblue" stroke="midnightblue" points="1230.61,-104.78 1223.17,-112.32 1233.69,-111.06 1230.61,-104.78"/>
</g>
<!-- Node23&#45;&gt;Node18 -->
<g id="edge42" class="edge">
<title>Node23&#45;&gt;Node18</title>
<path fill="none" stroke="midnightblue" d="M1147.68,-113.33C1067.45,-102.68 923.71,-83.61 848.11,-73.58"/>
<polygon fill="midnightblue" stroke="midnightblue" points="1147.24,-116.8 1157.62,-114.65 1148.16,-109.86 1147.24,-116.8"/>
</g>
<!-- Node24 -->
<g id="node24" class="node">
<title>Node24</title>
<g id="a_node24"><a xlink:href="OriginElement_8cpp.html" target="_top" xlink:title=" ">
<polygon fill="none" stroke="black" points="1134,-56.5 1134,-75.5 1241,-75.5 1241,-56.5 1134,-56.5"/>
<text text-anchor="middle" x="1187.5" y="-63.5" font-family="FreeSans.ttf" font-size="10.00">OriginElement.cpp</text>
</a>
</g>
</g>
<!-- Node23&#45;&gt;Node24 -->
<g id="edge43" class="edge">
<title>Node23&#45;&gt;Node24</title>
<path fill="none" stroke="midnightblue" d="M1199.3,-102.4C1196.29,-93.36 1192.81,-82.94 1190.42,-75.75"/>
<polygon fill="midnightblue" stroke="midnightblue" points="1196.04,-103.7 1202.53,-112.08 1202.69,-101.49 1196.04,-103.7"/>
</g>
</g>
</svg>
