<?xml version="1.0" encoding="UTF-8" standalone="no"?>
<!DOCTYPE svg PUBLIC "-//W3C//DTD SVG 1.1//EN"
 "http://www.w3.org/Graphics/SVG/1.1/DTD/svg11.dtd">
<!-- Generated by graphviz version 2.43.0 (0)
 -->
<!-- Title: YARPConversions.h Pages: 1 -->
<svg width="576pt" height="196pt"
 viewBox="0.00 0.00 575.50 196.00" xmlns="http://www.w3.org/2000/svg" xmlns:xlink="http://www.w3.org/1999/xlink">
<g id="graph0" class="graph" transform="scale(1 1) rotate(0) translate(4 192)">
<title>YARPConversions.h</title>
<!-- Node1 -->
<g id="node1" class="node">
<title>Node1</title>
<g id="a_node1"><a xlink:title=" ">
<polygon fill="#bfbfbf" stroke="black" points="254,-168.5 254,-187.5 364,-187.5 364,-168.5 254,-168.5"/>
<text text-anchor="middle" x="309" y="-175.5" font-family="FreeSans.ttf" font-size="10.00">YARPConversions.h</text>
</a>
</g>
</g>
<!-- Node2 -->
<g id="node2" class="node">
<title>Node2</title>
<g id="a_node2"><a xlink:href="iKinConversionsImplementation_8h.html" target="_top" xlink:title=" ">
<polygon fill="none" stroke="black" points="0,-112.5 0,-131.5 182,-131.5 182,-112.5 0,-112.5"/>
<text text-anchor="middle" x="91" y="-119.5" font-family="FreeSans.ttf" font-size="10.00">iKinConversionsImplementation.h</text>
</a>
</g>
</g>
<!-- Node1&#45;&gt;Node2 -->
<g id="edge1" class="edge">
<title>Node1&#45;&gt;Node2</title>
<path fill="none" stroke="midnightblue" d="M264.69,-166.02C223.51,-155.82 163.03,-140.84 125.38,-131.52"/>
<polygon fill="midnightblue" stroke="midnightblue" points="263.91,-169.44 274.46,-168.44 265.59,-162.64 263.91,-169.44"/>
</g>
<!-- Node5 -->
<g id="node5" class="node">
<title>Node5</title>
<g id="a_node5"><a xlink:href="skinDynLibConversionsImplementation_8h.html" target="_top" xlink:title=" ">
<polygon fill="none" stroke="black" points="200,-112.5 200,-131.5 418,-131.5 418,-112.5 200,-112.5"/>
<text text-anchor="middle" x="309" y="-119.5" font-family="FreeSans.ttf" font-size="10.00">skinDynLibConversionsImplementation.h</text>
</a>
</g>
</g>
<!-- Node1&#45;&gt;Node5 -->
<g id="edge5" class="edge">
<title>Node1&#45;&gt;Node5</title>
<path fill="none" stroke="midnightblue" d="M309,-157.8C309,-148.91 309,-138.78 309,-131.75"/>
<polygon fill="midnightblue" stroke="midnightblue" points="305.5,-158.08 309,-168.08 312.5,-158.08 305.5,-158.08"/>
</g>
<!-- Node7 -->
<g id="node7" class="node">
<title>Node7</title>
<g id="a_node7"><a xlink:href="robotstatepublisher_8cpp.html" target="_top" xlink:title=" ">
<polygon fill="none" stroke="black" points="436.5,-112.5 436.5,-131.5 567.5,-131.5 567.5,-112.5 436.5,-112.5"/>
<text text-anchor="middle" x="502" y="-119.5" font-family="FreeSans.ttf" font-size="10.00">robotstatepublisher.cpp</text>
</a>
</g>
</g>
<!-- Node1&#45;&gt;Node7 -->
<g id="edge8" class="edge">
<title>Node1&#45;&gt;Node7</title>
<path fill="none" stroke="midnightblue" d="M349.39,-165.7C385.82,-155.51 438.59,-140.74 471.56,-131.52"/>
<polygon fill="midnightblue" stroke="midnightblue" points="348.27,-162.38 339.58,-168.44 350.15,-169.12 348.27,-162.38"/>
</g>
<!-- Node3 -->
<g id="node3" class="node">
<title>Node3</title>
<g id="a_node3"><a xlink:href="iKinConversions_8h.html" target="_top" xlink:title=" ">
<polygon fill="none" stroke="black" points="39,-56.5 39,-75.5 143,-75.5 143,-56.5 39,-56.5"/>
<text text-anchor="middle" x="91" y="-63.5" font-family="FreeSans.ttf" font-size="10.00">iKinConversions.h</text>
</a>
</g>
</g>
<!-- Node2&#45;&gt;Node3 -->
<g id="edge2" class="edge">
<title>Node2&#45;&gt;Node3</title>
<path fill="none" stroke="midnightblue" d="M84.53,-102.1C83.9,-93.14 84.34,-82.86 85.87,-75.75"/>
<polygon fill="midnightblue" stroke="midnightblue" points="81.07,-102.62 85.83,-112.08 88.01,-101.71 81.07,-102.62"/>
</g>
<!-- Node3&#45;&gt;Node2 -->
<g id="edge3" class="edge">
<title>Node3&#45;&gt;Node2</title>
<path fill="none" stroke="midnightblue" d="M97.46,-85.69C98.11,-94.64 97.68,-104.93 96.17,-112.08"/>
<polygon fill="midnightblue" stroke="midnightblue" points="100.92,-85.2 96.13,-75.75 93.98,-86.13 100.92,-85.2"/>
</g>
<!-- Node4 -->
<g id="node4" class="node">
<title>Node4</title>
<g id="a_node4"><a xlink:href="urdf2dh_8cpp.html" target="_top" xlink:title=" ">
<polygon fill="none" stroke="black" points="54,-0.5 54,-19.5 128,-19.5 128,-0.5 54,-0.5"/>
<text text-anchor="middle" x="91" y="-7.5" font-family="FreeSans.ttf" font-size="10.00">urdf2dh.cpp</text>
</a>
</g>
</g>
<!-- Node3&#45;&gt;Node4 -->
<g id="edge4" class="edge">
<title>Node3&#45;&gt;Node4</title>
<path fill="none" stroke="midnightblue" d="M91,-45.8C91,-36.91 91,-26.78 91,-19.75"/>
<polygon fill="midnightblue" stroke="midnightblue" points="87.5,-46.08 91,-56.08 94.5,-46.08 87.5,-46.08"/>
</g>
<!-- Node6 -->
<g id="node6" class="node">
<title>Node6</title>
<g id="a_node6"><a xlink:href="skinDynLibConversions_8h.html" target="_top" xlink:title=" ">
<polygon fill="none" stroke="black" points="239,-56.5 239,-75.5 379,-75.5 379,-56.5 239,-56.5"/>
<text text-anchor="middle" x="309" y="-63.5" font-family="FreeSans.ttf" font-size="10.00">skinDynLibConversions.h</text>
</a>
</g>
</g>
<!-- Node5&#45;&gt;Node6 -->
<g id="edge6" class="edge">
<title>Node5&#45;&gt;Node6</title>
<path fill="none" stroke="midnightblue" d="M302.53,-102.1C301.9,-93.14 302.34,-82.86 303.87,-75.75"/>
<polygon fill="midnightblue" stroke="midnightblue" points="299.07,-102.62 303.83,-112.08 306.01,-101.71 299.07,-102.62"/>
</g>
<!-- Node6&#45;&gt;Node5 -->
<g id="edge7" class="edge">
<title>Node6&#45;&gt;Node5</title>
<path fill="none" stroke="midnightblue" d="M315.46,-85.69C316.11,-94.64 315.68,-104.93 314.17,-112.08"/>
<polygon fill="midnightblue" stroke="midnightblue" points="318.92,-85.2 314.13,-75.75 311.98,-86.13 318.92,-85.2"/>
</g>
</g>
</svg>
