<?xml version="1.0" encoding="UTF-8" standalone="no"?>
<!DOCTYPE svg PUBLIC "-//W3C//DTD SVG 1.1//EN"
 "http://www.w3.org/Graphics/SVG/1.1/DTD/svg11.dtd">
<!-- Generated by graphviz version 2.43.0 (0)
 -->
<!-- Title: YARPEigenConversions.h Pages: 1 -->
<svg width="319pt" height="84pt"
 viewBox="0.00 0.00 319.00 84.00" xmlns="http://www.w3.org/2000/svg" xmlns:xlink="http://www.w3.org/1999/xlink">
<g id="graph0" class="graph" transform="scale(1 1) rotate(0) translate(4 80)">
<title>YARPEigenConversions.h</title>
<!-- Node1 -->
<g id="node1" class="node">
<title>Node1</title>
<g id="a_node1"><a xlink:title=" ">
<polygon fill="#bfbfbf" stroke="black" points="98,-56.5 98,-75.5 235,-75.5 235,-56.5 98,-56.5"/>
<text text-anchor="middle" x="166.5" y="-63.5" font-family="FreeSans.ttf" font-size="10.00">YARPEigenConversions.h</text>
</a>
</g>
</g>
<!-- Node2 -->
<g id="node2" class="node">
<title>Node2</title>
<g id="a_node2"><a xlink:title=" ">
<polygon fill="none" stroke="#bfbfbf" points="0,-0.5 0,-19.5 99,-19.5 99,-0.5 0,-0.5"/>
<text text-anchor="middle" x="49.5" y="-7.5" font-family="FreeSans.ttf" font-size="10.00">yarp/sig/Matrix.h</text>
</a>
</g>
</g>
<!-- Node1&#45;&gt;Node2 -->
<g id="edge1" class="edge">
<title>Node1&#45;&gt;Node2</title>
<path fill="none" stroke="midnightblue" d="M147.96,-56.44C128.88,-47.64 98.93,-33.81 77.06,-23.72"/>
<polygon fill="midnightblue" stroke="midnightblue" points="78.5,-20.53 67.95,-19.52 75.57,-26.88 78.5,-20.53"/>
</g>
<!-- Node3 -->
<g id="node3" class="node">
<title>Node3</title>
<g id="a_node3"><a xlink:title=" ">
<polygon fill="none" stroke="#bfbfbf" points="117.5,-0.5 117.5,-19.5 215.5,-19.5 215.5,-0.5 117.5,-0.5"/>
<text text-anchor="middle" x="166.5" y="-7.5" font-family="FreeSans.ttf" font-size="10.00">yarp/sig/Vector.h</text>
</a>
</g>
</g>
<!-- Node1&#45;&gt;Node3 -->
<g id="edge2" class="edge">
<title>Node1&#45;&gt;Node3</title>
<path fill="none" stroke="midnightblue" d="M166.5,-56.08C166.5,-49.01 166.5,-38.86 166.5,-29.99"/>
<polygon fill="midnightblue" stroke="midnightblue" points="170,-29.75 166.5,-19.75 163,-29.75 170,-29.75"/>
</g>
<!-- Node4 -->
<g id="node4" class="node">
<title>Node4</title>
<g id="a_node4"><a xlink:title=" ">
<polygon fill="none" stroke="#bfbfbf" points="234,-0.5 234,-19.5 311,-19.5 311,-0.5 234,-0.5"/>
<text text-anchor="middle" x="272.5" y="-7.5" font-family="FreeSans.ttf" font-size="10.00">Eigen/Dense</text>
</a>
</g>
</g>
<!-- Node1&#45;&gt;Node4 -->
<g id="edge3" class="edge">
<title>Node1&#45;&gt;Node4</title>
<path fill="none" stroke="midnightblue" d="M183.53,-56.32C200.53,-47.66 226.88,-34.24 246.49,-24.25"/>
<polygon fill="midnightblue" stroke="midnightblue" points="248.19,-27.31 255.51,-19.65 245.01,-21.08 248.19,-27.31"/>
</g>
</g>
</svg>
