<?xml version="1.0" encoding="UTF-8" standalone="no"?>
<!DOCTYPE svg PUBLIC "-//W3C//DTD SVG 1.1//EN"
 "http://www.w3.org/Graphics/SVG/1.1/DTD/svg11.dtd">
<!-- Generated by graphviz version 2.43.0 (0)
 -->
<!-- Title: YARPConversions.h Pages: 1 -->
<svg width="1237pt" height="599pt"
 viewBox="0.00 0.00 1236.50 599.00" xmlns="http://www.w3.org/2000/svg" xmlns:xlink="http://www.w3.org/1999/xlink">
<g id="graph0" class="graph" transform="scale(1 1) rotate(0) translate(4 595)">
<title>YARPConversions.h</title>
<!-- Node1 -->
<g id="node1" class="node">
<title>Node1</title>
<g id="a_node1"><a xlink:title=" ">
<polygon fill="#bfbfbf" stroke="black" points="218,-571.5 218,-590.5 328,-590.5 328,-571.5 218,-571.5"/>
<text text-anchor="middle" x="273" y="-578.5" font-family="FreeSans.ttf" font-size="10.00">YARPConversions.h</text>
</a>
</g>
</g>
<!-- Node2 -->
<g id="node2" class="node">
<title>Node2</title>
<g id="a_node2"><a xlink:title=" ">
<polygon fill="none" stroke="#bfbfbf" points="39.5,-515.5 39.5,-534.5 138.5,-534.5 138.5,-515.5 39.5,-515.5"/>
<text text-anchor="middle" x="89" y="-522.5" font-family="FreeSans.ttf" font-size="10.00">yarp/sig/Matrix.h</text>
</a>
</g>
</g>
<!-- Node1&#45;&gt;Node2 -->
<g id="edge1" class="edge">
<title>Node1&#45;&gt;Node2</title>
<path fill="none" stroke="midnightblue" d="M243.84,-571.44C212.49,-562.24 162.47,-547.56 127.8,-537.39"/>
<polygon fill="midnightblue" stroke="midnightblue" points="128.6,-533.97 118.02,-534.52 126.63,-540.69 128.6,-533.97"/>
</g>
<!-- Node3 -->
<g id="node3" class="node">
<title>Node3</title>
<g id="a_node3"><a xlink:title=" ">
<polygon fill="none" stroke="#bfbfbf" points="157,-515.5 157,-534.5 255,-534.5 255,-515.5 157,-515.5"/>
<text text-anchor="middle" x="206" y="-522.5" font-family="FreeSans.ttf" font-size="10.00">yarp/sig/Vector.h</text>
</a>
</g>
</g>
<!-- Node1&#45;&gt;Node3 -->
<g id="edge2" class="edge">
<title>Node1&#45;&gt;Node3</title>
<path fill="none" stroke="midnightblue" d="M262.24,-571.32C252.23,-563.26 237.11,-551.08 225.07,-541.37"/>
<polygon fill="midnightblue" stroke="midnightblue" points="226.94,-538.38 216.96,-534.83 222.55,-543.83 226.94,-538.38"/>
</g>
<!-- Node4 -->
<g id="node4" class="node">
<title>Node4</title>
<g id="a_node4"><a xlink:href="Wrench_8h.html" target="_top" xlink:title=" ">
<polygon fill="none" stroke="black" points="273,-515.5 273,-534.5 407,-534.5 407,-515.5 273,-515.5"/>
<text text-anchor="middle" x="340" y="-522.5" font-family="FreeSans.ttf" font-size="10.00">iDynTree/Core/Wrench.h</text>
</a>
</g>
</g>
<!-- Node1&#45;&gt;Node4 -->
<g id="edge3" class="edge">
<title>Node1&#45;&gt;Node4</title>
<path fill="none" stroke="midnightblue" d="M283.76,-571.32C293.77,-563.26 308.89,-551.08 320.93,-541.37"/>
<polygon fill="midnightblue" stroke="midnightblue" points="323.45,-543.83 329.04,-534.83 319.06,-538.38 323.45,-543.83"/>
</g>
<!-- Node31 -->
<g id="node31" class="node">
<title>Node31</title>
<g id="a_node31"><a xlink:href="YARPConversionsImplementation_8h.html" target="_top" xlink:title=" ">
<polygon fill="none" stroke="black" points="418,-454 418,-473 606,-473 606,-454 418,-454"/>
<text text-anchor="middle" x="512" y="-461" font-family="FreeSans.ttf" font-size="10.00">YARPConversionsImplementation.h</text>
</a>
</g>
</g>
<!-- Node1&#45;&gt;Node31 -->
<g id="edge55" class="edge">
<title>Node1&#45;&gt;Node31</title>
<path fill="none" stroke="midnightblue" d="M311.97,-571.43C341.5,-564.07 382.57,-551.95 416,-535 445.8,-519.9 476.22,-495.78 494.61,-480.04"/>
<polygon fill="midnightblue" stroke="midnightblue" points="497.38,-482.27 502.62,-473.06 492.78,-476.99 497.38,-482.27"/>
</g>
<!-- Node5 -->
<g id="node5" class="node">
<title>Node5</title>
<g id="a_node5"><a xlink:href="SpatialForceVector_8h.html" target="_top" xlink:title=" ">
<polygon fill="none" stroke="black" points="241,-448.5 241,-478.5 389,-478.5 389,-448.5 241,-448.5"/>
<text text-anchor="start" x="249" y="-466.5" font-family="FreeSans.ttf" font-size="10.00">iDynTree/Core/SpatialForce</text>
<text text-anchor="middle" x="315" y="-455.5" font-family="FreeSans.ttf" font-size="10.00">Vector.h</text>
</a>
</g>
</g>
<!-- Node4&#45;&gt;Node5 -->
<g id="edge4" class="edge">
<title>Node4&#45;&gt;Node5</title>
<path fill="none" stroke="midnightblue" d="M336.42,-515.48C333.38,-508.25 328.88,-497.53 324.78,-487.78"/>
<polygon fill="midnightblue" stroke="midnightblue" points="327.99,-486.39 320.89,-478.52 321.54,-489.1 327.99,-486.39"/>
</g>
<!-- Node6 -->
<g id="node6" class="node">
<title>Node6</title>
<g id="a_node6"><a xlink:href="VectorFixSize_8h.html" target="_top" xlink:title=" ">
<polygon fill="none" stroke="black" points="481,-168.5 481,-187.5 643,-187.5 643,-168.5 481,-168.5"/>
<text text-anchor="middle" x="562" y="-175.5" font-family="FreeSans.ttf" font-size="10.00">iDynTree/Core/VectorFixSize.h</text>
</a>
</g>
</g>
<!-- Node5&#45;&gt;Node6 -->
<g id="edge5" class="edge">
<title>Node5&#45;&gt;Node6</title>
<path fill="none" stroke="midnightblue" d="M315.07,-448.25C316.08,-407.08 324.84,-286.86 391,-224 412.5,-203.57 442.13,-192.15 470.68,-185.85"/>
<polygon fill="midnightblue" stroke="midnightblue" points="471.61,-189.24 480.72,-183.83 470.23,-182.38 471.61,-189.24"/>
</g>
<!-- Node22 -->
<g id="node22" class="node">
<title>Node22</title>
<g id="a_node22"><a xlink:href="GeomVector3_8h.html" target="_top" xlink:title=" ">
<polygon fill="none" stroke="black" points="142.5,-224.5 142.5,-243.5 305.5,-243.5 305.5,-224.5 142.5,-224.5"/>
<text text-anchor="middle" x="224" y="-231.5" font-family="FreeSans.ttf" font-size="10.00">iDynTree/Core/GeomVector3.h</text>
</a>
</g>
</g>
<!-- Node5&#45;&gt;Node22 -->
<g id="edge24" class="edge">
<title>Node5&#45;&gt;Node22</title>
<path fill="none" stroke="midnightblue" d="M309.31,-448.27C293.49,-408.73 249.02,-297.55 231.36,-253.4"/>
<polygon fill="midnightblue" stroke="midnightblue" points="234.53,-251.91 227.57,-243.93 228.04,-254.51 234.53,-251.91"/>
</g>
<!-- Node23 -->
<g id="node23" class="node">
<title>Node23</title>
<g id="a_node23"><a xlink:href="SpatialVector_8h.html" target="_top" xlink:title=" ">
<polygon fill="none" stroke="black" points="106.5,-392.5 106.5,-411.5 267.5,-411.5 267.5,-392.5 106.5,-392.5"/>
<text text-anchor="middle" x="187" y="-399.5" font-family="FreeSans.ttf" font-size="10.00">iDynTree/Core/SpatialVector.h</text>
</a>
</g>
</g>
<!-- Node5&#45;&gt;Node23 -->
<g id="edge26" class="edge">
<title>Node5&#45;&gt;Node23</title>
<path fill="none" stroke="midnightblue" d="M284.67,-448.4C263.48,-438.55 235.41,-425.5 214.8,-415.92"/>
<polygon fill="midnightblue" stroke="midnightblue" points="216.17,-412.7 205.63,-411.66 213.22,-419.05 216.17,-412.7"/>
</g>
<!-- Node7 -->
<g id="node7" class="node">
<title>Node7</title>
<g id="a_node7"><a xlink:href="Utils_8h.html" target="_top" xlink:title=" ">
<polygon fill="none" stroke="black" points="280.5,-56.5 280.5,-75.5 399.5,-75.5 399.5,-56.5 280.5,-56.5"/>
<text text-anchor="middle" x="340" y="-63.5" font-family="FreeSans.ttf" font-size="10.00">iDynTree/Core/Utils.h</text>
</a>
</g>
</g>
<!-- Node6&#45;&gt;Node7 -->
<g id="edge6" class="edge">
<title>Node6&#45;&gt;Node7</title>
<path fill="none" stroke="midnightblue" d="M551.07,-168.48C533.5,-155.09 497.55,-128.91 464,-112 436.77,-98.27 404.32,-86.65 379.45,-78.66"/>
<polygon fill="midnightblue" stroke="midnightblue" points="380.22,-75.23 369.63,-75.57 378.12,-81.91 380.22,-75.23"/>
</g>
<!-- Node8 -->
<g id="node8" class="node">
<title>Node8</title>
<g id="a_node8"><a xlink:title=" ">
<polygon fill="none" stroke="#bfbfbf" points="278.5,-0.5 278.5,-19.5 331.5,-19.5 331.5,-0.5 278.5,-0.5"/>
<text text-anchor="middle" x="305" y="-7.5" font-family="FreeSans.ttf" font-size="10.00">cstddef</text>
</a>
</g>
</g>
<!-- Node6&#45;&gt;Node8 -->
<g id="edge22" class="edge">
<title>Node6&#45;&gt;Node8</title>
<path fill="none" stroke="midnightblue" d="M554.23,-168.44C542.22,-155.46 518.1,-130.34 495,-112 458.99,-83.41 448.53,-77.72 408,-56 384.94,-43.64 357.79,-31.89 337.15,-23.49"/>
<polygon fill="midnightblue" stroke="midnightblue" points="338.17,-20.13 327.59,-19.65 335.56,-26.63 338.17,-20.13"/>
</g>
<!-- Node10 -->
<g id="node10" class="node">
<title>Node10</title>
<g id="a_node10"><a xlink:href="Span_8h.html" target="_top" xlink:title=" ">
<polygon fill="none" stroke="black" points="554.5,-56.5 554.5,-75.5 675.5,-75.5 675.5,-56.5 554.5,-56.5"/>
<text text-anchor="middle" x="615" y="-63.5" font-family="FreeSans.ttf" font-size="10.00">iDynTree/Core/Span.h</text>
</a>
</g>
</g>
<!-- Node6&#45;&gt;Node10 -->
<g id="edge9" class="edge">
<title>Node6&#45;&gt;Node10</title>
<path fill="none" stroke="midnightblue" d="M563.92,-168.26C566.93,-155.46 573.42,-131.08 583,-112 587.99,-102.06 595.03,-91.89 601.24,-83.73"/>
<polygon fill="midnightblue" stroke="midnightblue" points="604.06,-85.8 607.51,-75.78 598.57,-81.47 604.06,-85.8"/>
</g>
<!-- Node11 -->
<g id="node11" class="node">
<title>Node11</title>
<g id="a_node11"><a xlink:title=" ">
<polygon fill="none" stroke="#bfbfbf" points="861,-0.5 861,-19.5 913,-19.5 913,-0.5 861,-0.5"/>
<text text-anchor="middle" x="887" y="-7.5" font-family="FreeSans.ttf" font-size="10.00">cassert</text>
</a>
</g>
</g>
<!-- Node6&#45;&gt;Node11 -->
<g id="edge21" class="edge">
<title>Node6&#45;&gt;Node11</title>
<path fill="none" stroke="midnightblue" d="M635.5,-168.49C693.17,-160.76 767.91,-148.12 794,-132 835.17,-106.56 864.94,-55.82 878.61,-28.84"/>
<polygon fill="midnightblue" stroke="midnightblue" points="881.8,-30.28 883.06,-19.76 875.52,-27.2 881.8,-30.28"/>
</g>
<!-- Node19 -->
<g id="node19" class="node">
<title>Node19</title>
<g id="a_node19"><a xlink:title=" ">
<polygon fill="none" stroke="#bfbfbf" points="846,-112.5 846,-131.5 890,-131.5 890,-112.5 846,-112.5"/>
<text text-anchor="middle" x="868" y="-119.5" font-family="FreeSans.ttf" font-size="10.00">string</text>
</a>
</g>
</g>
<!-- Node6&#45;&gt;Node19 -->
<g id="edge19" class="edge">
<title>Node6&#45;&gt;Node19</title>
<path fill="none" stroke="midnightblue" d="M621.51,-168.48C676.39,-160.29 760,-146.97 832,-132 833.28,-131.73 834.58,-131.45 835.89,-131.16"/>
<polygon fill="midnightblue" stroke="midnightblue" points="837.04,-134.49 845.98,-128.8 835.44,-127.67 837.04,-134.49"/>
</g>
<!-- Node20 -->
<g id="node20" class="node">
<title>Node20</title>
<g id="a_node20"><a xlink:title=" ">
<polygon fill="none" stroke="#bfbfbf" points="256,-112.5 256,-131.5 312,-131.5 312,-112.5 256,-112.5"/>
<text text-anchor="middle" x="284" y="-119.5" font-family="FreeSans.ttf" font-size="10.00">sstream</text>
</a>
</g>
</g>
<!-- Node6&#45;&gt;Node20 -->
<g id="edge20" class="edge">
<title>Node6&#45;&gt;Node20</title>
<path fill="none" stroke="midnightblue" d="M517.95,-168.44C463.95,-157.95 373.33,-140.35 322.17,-130.41"/>
<polygon fill="midnightblue" stroke="midnightblue" points="322.66,-126.94 312.18,-128.47 321.33,-133.82 322.66,-126.94"/>
</g>
<!-- Node21 -->
<g id="node21" class="node">
<title>Node21</title>
<g id="a_node21"><a xlink:title=" ">
<polygon fill="none" stroke="#bfbfbf" points="368,-112.5 368,-131.5 418,-131.5 418,-112.5 368,-112.5"/>
<text text-anchor="middle" x="393" y="-119.5" font-family="FreeSans.ttf" font-size="10.00">cstring</text>
</a>
</g>
</g>
<!-- Node6&#45;&gt;Node21 -->
<g id="edge23" class="edge">
<title>Node6&#45;&gt;Node21</title>
<path fill="none" stroke="midnightblue" d="M535.22,-168.44C506.16,-159.16 459.66,-144.3 427.79,-134.12"/>
<polygon fill="midnightblue" stroke="midnightblue" points="428.59,-130.7 418,-130.99 426.46,-137.37 428.59,-130.7"/>
</g>
<!-- Node7&#45;&gt;Node8 -->
<g id="edge7" class="edge">
<title>Node7&#45;&gt;Node8</title>
<path fill="none" stroke="midnightblue" d="M334.22,-56.08C329.33,-48.53 322.17,-37.49 316.17,-28.23"/>
<polygon fill="midnightblue" stroke="midnightblue" points="319.05,-26.24 310.67,-19.75 313.17,-30.05 319.05,-26.24"/>
</g>
<!-- Node9 -->
<g id="node9" class="node">
<title>Node9</title>
<g id="a_node9"><a xlink:title=" ">
<polygon fill="none" stroke="#bfbfbf" points="180,-0.5 180,-19.5 260,-19.5 260,-0.5 180,-0.5"/>
<text text-anchor="middle" x="220" y="-7.5" font-family="FreeSans.ttf" font-size="10.00">CoreExport.h</text>
</a>
</g>
</g>
<!-- Node7&#45;&gt;Node9 -->
<g id="edge8" class="edge">
<title>Node7&#45;&gt;Node9</title>
<path fill="none" stroke="midnightblue" d="M320.99,-56.44C301.41,-47.64 270.69,-33.81 248.27,-23.72"/>
<polygon fill="midnightblue" stroke="midnightblue" points="249.48,-20.43 238.93,-19.52 246.61,-26.81 249.48,-20.43"/>
</g>
<!-- Node10&#45;&gt;Node8 -->
<g id="edge13" class="edge">
<title>Node10&#45;&gt;Node8</title>
<path fill="none" stroke="midnightblue" d="M554.33,-56.5C500.92,-48.68 420.84,-36.16 341.81,-20.02"/>
<polygon fill="midnightblue" stroke="midnightblue" points="342.18,-16.52 331.68,-17.93 340.77,-23.38 342.18,-16.52"/>
</g>
<!-- Node10&#45;&gt;Node11 -->
<g id="edge10" class="edge">
<title>Node10&#45;&gt;Node11</title>
<path fill="none" stroke="midnightblue" d="M665.13,-56.44C711.07,-48.39 781.18,-35.55 850.85,-20.15"/>
<polygon fill="midnightblue" stroke="midnightblue" points="851.67,-23.55 860.67,-17.96 850.15,-16.72 851.67,-23.55"/>
</g>
<!-- Node12 -->
<g id="node12" class="node">
<title>Node12</title>
<g id="a_node12"><a xlink:title=" ">
<polygon fill="none" stroke="#bfbfbf" points="691,-0.5 691,-19.5 755,-19.5 755,-0.5 691,-0.5"/>
<text text-anchor="middle" x="723" y="-7.5" font-family="FreeSans.ttf" font-size="10.00">algorithm</text>
</a>
</g>
</g>
<!-- Node10&#45;&gt;Node12 -->
<g id="edge11" class="edge">
<title>Node10&#45;&gt;Node12</title>
<path fill="none" stroke="midnightblue" d="M632.35,-56.32C649.67,-47.66 676.52,-34.24 696.5,-24.25"/>
<polygon fill="midnightblue" stroke="midnightblue" points="698.31,-27.26 705.69,-19.65 695.18,-21 698.31,-27.26"/>
</g>
<!-- Node13 -->
<g id="node13" class="node">
<title>Node13</title>
<g id="a_node13"><a xlink:title=" ">
<polygon fill="none" stroke="#bfbfbf" points="350,-0.5 350,-19.5 392,-19.5 392,-0.5 350,-0.5"/>
<text text-anchor="middle" x="371" y="-7.5" font-family="FreeSans.ttf" font-size="10.00">array</text>
</a>
</g>
</g>
<!-- Node10&#45;&gt;Node13 -->
<g id="edge12" class="edge">
<title>Node10&#45;&gt;Node13</title>
<path fill="none" stroke="midnightblue" d="M568.82,-56.46C527.43,-48.54 464.87,-35.92 401.94,-20.08"/>
<polygon fill="midnightblue" stroke="midnightblue" points="402.8,-16.69 392.24,-17.61 401.07,-23.47 402.8,-16.69"/>
</g>
<!-- Node14 -->
<g id="node14" class="node">
<title>Node14</title>
<g id="a_node14"><a xlink:title=" ">
<polygon fill="none" stroke="#bfbfbf" points="410.5,-0.5 410.5,-19.5 463.5,-19.5 463.5,-0.5 410.5,-0.5"/>
<text text-anchor="middle" x="437" y="-7.5" font-family="FreeSans.ttf" font-size="10.00">iterator</text>
</a>
</g>
</g>
<!-- Node10&#45;&gt;Node14 -->
<g id="edge14" class="edge">
<title>Node10&#45;&gt;Node14</title>
<path fill="none" stroke="midnightblue" d="M586.8,-56.44C556.15,-47.15 507.07,-32.26 473.5,-22.07"/>
<polygon fill="midnightblue" stroke="midnightblue" points="474.2,-18.63 463.62,-19.08 472.17,-25.33 474.2,-18.63"/>
</g>
<!-- Node15 -->
<g id="node15" class="node">
<title>Node15</title>
<g id="a_node15"><a xlink:title=" ">
<polygon fill="none" stroke="#bfbfbf" points="482,-0.5 482,-19.5 526,-19.5 526,-0.5 482,-0.5"/>
<text text-anchor="middle" x="504" y="-7.5" font-family="FreeSans.ttf" font-size="10.00">limits</text>
</a>
</g>
</g>
<!-- Node10&#45;&gt;Node15 -->
<g id="edge15" class="edge">
<title>Node10&#45;&gt;Node15</title>
<path fill="none" stroke="midnightblue" d="M597.17,-56.32C579.28,-47.62 551.52,-34.12 530.95,-24.11"/>
<polygon fill="midnightblue" stroke="midnightblue" points="532.31,-20.88 521.79,-19.65 529.25,-27.18 532.31,-20.88"/>
</g>
<!-- Node16 -->
<g id="node16" class="node">
<title>Node16</title>
<g id="a_node16"><a xlink:title=" ">
<polygon fill="none" stroke="#bfbfbf" points="544.5,-0.5 544.5,-19.5 609.5,-19.5 609.5,-0.5 544.5,-0.5"/>
<text text-anchor="middle" x="577" y="-7.5" font-family="FreeSans.ttf" font-size="10.00">stdexcept</text>
</a>
</g>
</g>
<!-- Node10&#45;&gt;Node16 -->
<g id="edge16" class="edge">
<title>Node10&#45;&gt;Node16</title>
<path fill="none" stroke="midnightblue" d="M608.73,-56.08C603.36,-48.46 595.48,-37.26 588.92,-27.94"/>
<polygon fill="midnightblue" stroke="midnightblue" points="591.78,-25.91 583.16,-19.75 586.05,-29.94 591.78,-25.91"/>
</g>
<!-- Node17 -->
<g id="node17" class="node">
<title>Node17</title>
<g id="a_node17"><a xlink:title=" ">
<polygon fill="none" stroke="#bfbfbf" points="773.5,-0.5 773.5,-19.5 842.5,-19.5 842.5,-0.5 773.5,-0.5"/>
<text text-anchor="middle" x="808" y="-7.5" font-family="FreeSans.ttf" font-size="10.00">type_traits</text>
</a>
</g>
</g>
<!-- Node10&#45;&gt;Node17 -->
<g id="edge17" class="edge">
<title>Node10&#45;&gt;Node17</title>
<path fill="none" stroke="midnightblue" d="M645.58,-56.44C678.61,-47.2 731.39,-32.44 767.77,-22.26"/>
<polygon fill="midnightblue" stroke="midnightblue" points="768.87,-25.58 777.56,-19.52 766.99,-18.84 768.87,-25.58"/>
</g>
<!-- Node18 -->
<g id="node18" class="node">
<title>Node18</title>
<g id="a_node18"><a xlink:title=" ">
<polygon fill="none" stroke="#bfbfbf" points="627.5,-0.5 627.5,-19.5 672.5,-19.5 672.5,-0.5 627.5,-0.5"/>
<text text-anchor="middle" x="650" y="-7.5" font-family="FreeSans.ttf" font-size="10.00">utility</text>
</a>
</g>
</g>
<!-- Node10&#45;&gt;Node18 -->
<g id="edge18" class="edge">
<title>Node10&#45;&gt;Node18</title>
<path fill="none" stroke="midnightblue" d="M620.78,-56.08C625.67,-48.53 632.83,-37.49 638.83,-28.23"/>
<polygon fill="midnightblue" stroke="midnightblue" points="641.83,-30.05 644.33,-19.75 635.95,-26.24 641.83,-30.05"/>
</g>
<!-- Node22&#45;&gt;Node6 -->
<g id="edge25" class="edge">
<title>Node22&#45;&gt;Node6</title>
<path fill="none" stroke="midnightblue" d="M277.56,-224.44C337.63,-214.85 434.99,-199.29 498.76,-189.1"/>
<polygon fill="midnightblue" stroke="midnightblue" points="499.37,-192.55 508.69,-187.52 498.27,-185.64 499.37,-192.55"/>
</g>
<!-- Node23&#45;&gt;Node7 -->
<g id="edge51" class="edge">
<title>Node23&#45;&gt;Node7</title>
<path fill="none" stroke="midnightblue" d="M131.65,-392.47C76.51,-380.46 0,-352.68 0,-291 0,-291 0,-291 0,-177 0,-120.69 170.93,-88.93 270.4,-75.22"/>
<polygon fill="midnightblue" stroke="midnightblue" points="270.95,-78.68 280.39,-73.87 270.01,-71.74 270.95,-78.68"/>
</g>
<!-- Node23&#45;&gt;Node20 -->
<g id="edge54" class="edge">
<title>Node23&#45;&gt;Node20</title>
<path fill="none" stroke="midnightblue" d="M167.16,-392.39C135.23,-377.04 76,-341.73 76,-291 76,-291 76,-291 76,-233 76,-202.2 77.02,-188.5 100,-168 121.32,-148.98 198.46,-135.05 245.83,-128.06"/>
<polygon fill="midnightblue" stroke="midnightblue" points="246.34,-131.52 255.74,-126.64 245.34,-124.59 246.34,-131.52"/>
</g>
<!-- Node23&#45;&gt;Node22 -->
<g id="edge52" class="edge">
<title>Node23&#45;&gt;Node22</title>
<path fill="none" stroke="midnightblue" d="M188.99,-392.08C194.81,-365.95 211.92,-289.21 219.86,-253.58"/>
<polygon fill="midnightblue" stroke="midnightblue" points="223.33,-254.09 222.09,-243.57 216.5,-252.57 223.33,-254.09"/>
</g>
<!-- Node24 -->
<g id="node24" class="node">
<title>Node24</title>
<g id="a_node24"><a xlink:href="Position_8h.html" target="_top" xlink:title=" ">
<polygon fill="none" stroke="black" points="552.5,-336.5 552.5,-355.5 617.5,-355.5 617.5,-336.5 552.5,-336.5"/>
<text text-anchor="middle" x="585" y="-343.5" font-family="FreeSans.ttf" font-size="10.00">Position.h</text>
</a>
</g>
</g>
<!-- Node23&#45;&gt;Node24 -->
<g id="edge27" class="edge">
<title>Node23&#45;&gt;Node24</title>
<path fill="none" stroke="midnightblue" d="M250.06,-392.44C331.69,-381.37 471.75,-362.36 542.07,-352.82"/>
<polygon fill="midnightblue" stroke="midnightblue" points="542.9,-356.24 552.34,-351.43 541.96,-349.31 542.9,-356.24"/>
</g>
<!-- Node26 -->
<g id="node26" class="node">
<title>Node26</title>
<g id="a_node26"><a xlink:href="Rotation_8h.html" target="_top" xlink:title=" ">
<polygon fill="none" stroke="black" points="455,-280.5 455,-299.5 593,-299.5 593,-280.5 455,-280.5"/>
<text text-anchor="middle" x="524" y="-287.5" font-family="FreeSans.ttf" font-size="10.00">iDynTree/Core/Rotation.h</text>
</a>
</g>
</g>
<!-- Node23&#45;&gt;Node26 -->
<g id="edge50" class="edge">
<title>Node23&#45;&gt;Node26</title>
<path fill="none" stroke="midnightblue" d="M213.16,-392.46C272.88,-372.97 419.35,-325.16 487.73,-302.84"/>
<polygon fill="midnightblue" stroke="midnightblue" points="489.2,-306.04 497.62,-299.61 487.03,-299.39 489.2,-306.04"/>
</g>
<!-- Node30 -->
<g id="node30" class="node">
<title>Node30</title>
<g id="a_node30"><a xlink:title=" ">
<polygon fill="none" stroke="#bfbfbf" points="106,-112.5 106,-131.5 166,-131.5 166,-112.5 106,-112.5"/>
<text text-anchor="middle" x="136" y="-119.5" font-family="FreeSans.ttf" font-size="10.00">iostream</text>
</a>
</g>
</g>
<!-- Node23&#45;&gt;Node30 -->
<g id="edge53" class="edge">
<title>Node23&#45;&gt;Node30</title>
<path fill="none" stroke="midnightblue" d="M133.72,-392.5C109.15,-386.13 81.24,-375.09 62,-356 40.14,-334.31 38,-321.8 38,-291 38,-291 38,-291 38,-233 38,-202.2 42.42,-191.77 62,-168 73.37,-154.2 90.15,-143.5 104.86,-136.01"/>
<polygon fill="midnightblue" stroke="midnightblue" points="106.65,-139.04 114.15,-131.55 103.62,-132.73 106.65,-139.04"/>
</g>
<!-- Node24&#45;&gt;Node19 -->
<g id="edge49" class="edge">
<title>Node24&#45;&gt;Node19</title>
<path fill="none" stroke="midnightblue" d="M617.69,-341.63C703.64,-332.05 932.44,-301.49 977,-244 1009.12,-202.55 937.49,-157.65 895.57,-136.05"/>
<polygon fill="midnightblue" stroke="midnightblue" points="897.14,-132.92 886.63,-131.57 894,-139.18 897.14,-132.92"/>
</g>
<!-- Node25 -->
<g id="node25" class="node">
<title>Node25</title>
<g id="a_node25"><a xlink:href="PositionRaw_8h.html" target="_top" xlink:title=" ">
<polygon fill="none" stroke="black" points="812,-224.5 812,-243.5 968,-243.5 968,-224.5 812,-224.5"/>
<text text-anchor="middle" x="890" y="-231.5" font-family="FreeSans.ttf" font-size="10.00">iDynTree/Core/PositionRaw.h</text>
</a>
</g>
</g>
<!-- Node24&#45;&gt;Node25 -->
<g id="edge28" class="edge">
<title>Node24&#45;&gt;Node25</title>
<path fill="none" stroke="midnightblue" d="M608.68,-336.46C662.51,-317.05 794.2,-269.55 856.41,-247.12"/>
<polygon fill="midnightblue" stroke="midnightblue" points="857.91,-250.3 866.13,-243.61 855.53,-243.71 857.91,-250.3"/>
</g>
<!-- Node24&#45;&gt;Node26 -->
<g id="edge31" class="edge">
<title>Node24&#45;&gt;Node26</title>
<path fill="none" stroke="midnightblue" d="M575.2,-336.32C566.18,-328.34 552.59,-316.31 541.68,-306.65"/>
<polygon fill="midnightblue" stroke="midnightblue" points="543.79,-303.84 533.98,-299.83 539.15,-309.08 543.79,-303.84"/>
</g>
<!-- Node25&#45;&gt;Node6 -->
<g id="edge29" class="edge">
<title>Node25&#45;&gt;Node6</title>
<path fill="none" stroke="midnightblue" d="M838.03,-224.44C779.85,-214.87 685.64,-199.36 623.75,-189.17"/>
<polygon fill="midnightblue" stroke="midnightblue" points="624.17,-185.69 613.73,-187.52 623.03,-192.59 624.17,-185.69"/>
</g>
<!-- Node25&#45;&gt;Node19 -->
<g id="edge30" class="edge">
<title>Node25&#45;&gt;Node19</title>
<path fill="none" stroke="midnightblue" d="M888.27,-224.37C884.72,-206.62 876.53,-165.67 871.72,-141.6"/>
<polygon fill="midnightblue" stroke="midnightblue" points="875.11,-140.71 869.72,-131.59 868.25,-142.08 875.11,-140.71"/>
</g>
<!-- Node26&#45;&gt;Node6 -->
<g id="edge48" class="edge">
<title>Node26&#45;&gt;Node6</title>
<path fill="none" stroke="midnightblue" d="M593.24,-282.82C645.26,-276.58 710.31,-264.8 727,-244 753.39,-211.12 704.34,-194.82 653.01,-186.77"/>
<polygon fill="midnightblue" stroke="midnightblue" points="653.48,-183.3 643.08,-185.31 652.46,-190.22 653.48,-183.3"/>
</g>
<!-- Node26&#45;&gt;Node19 -->
<g id="edge32" class="edge">
<title>Node26&#45;&gt;Node19</title>
<path fill="none" stroke="midnightblue" d="M593.32,-284.92C638.43,-279.9 697.33,-268.74 744,-244 792.97,-218.04 835.69,-166.76 855.79,-140.06"/>
<polygon fill="midnightblue" stroke="midnightblue" points="858.81,-141.85 861.92,-131.72 853.18,-137.7 858.81,-141.85"/>
</g>
<!-- Node26&#45;&gt;Node22 -->
<g id="edge33" class="edge">
<title>Node26&#45;&gt;Node22</title>
<path fill="none" stroke="midnightblue" d="M476.46,-280.44C423.47,-270.9 337.8,-255.48 281.18,-245.29"/>
<polygon fill="midnightblue" stroke="midnightblue" points="281.78,-241.84 271.31,-243.52 280.54,-248.73 281.78,-241.84"/>
</g>
<!-- Node27 -->
<g id="node27" class="node">
<title>Node27</title>
<g id="a_node27"><a xlink:href="RotationRaw_8h.html" target="_top" xlink:title=" ">
<polygon fill="none" stroke="black" points="400,-224.5 400,-243.5 558,-243.5 558,-224.5 400,-224.5"/>
<text text-anchor="middle" x="479" y="-231.5" font-family="FreeSans.ttf" font-size="10.00">iDynTree/Core/RotationRaw.h</text>
</a>
</g>
</g>
<!-- Node26&#45;&gt;Node27 -->
<g id="edge34" class="edge">
<title>Node26&#45;&gt;Node27</title>
<path fill="none" stroke="midnightblue" d="M516.57,-280.08C510.15,-272.38 500.69,-261.03 492.88,-251.65"/>
<polygon fill="midnightblue" stroke="midnightblue" points="495.38,-249.19 486.29,-243.75 490.01,-253.67 495.38,-249.19"/>
</g>
<!-- Node27&#45;&gt;Node19 -->
<g id="edge47" class="edge">
<title>Node27&#45;&gt;Node19</title>
<path fill="none" stroke="midnightblue" d="M513.24,-224.5C548.22,-215.72 604.04,-201.45 652,-188 717.66,-169.59 793.94,-146.15 836.01,-133.04"/>
<polygon fill="midnightblue" stroke="midnightblue" points="837.19,-136.34 845.69,-130.02 835.1,-129.66 837.19,-136.34"/>
</g>
<!-- Node28 -->
<g id="node28" class="node">
<title>Node28</title>
<g id="a_node28"><a xlink:href="MatrixFixSize_8h.html" target="_top" xlink:title=" ">
<polygon fill="none" stroke="black" points="258.5,-168.5 258.5,-187.5 421.5,-187.5 421.5,-168.5 258.5,-168.5"/>
<text text-anchor="middle" x="340" y="-175.5" font-family="FreeSans.ttf" font-size="10.00">iDynTree/Core/MatrixFixSize.h</text>
</a>
</g>
</g>
<!-- Node27&#45;&gt;Node28 -->
<g id="edge35" class="edge">
<title>Node27&#45;&gt;Node28</title>
<path fill="none" stroke="midnightblue" d="M456.98,-224.44C433.9,-215.48 397.44,-201.31 371.36,-191.18"/>
<polygon fill="midnightblue" stroke="midnightblue" points="372.51,-187.88 361.92,-187.52 369.98,-194.4 372.51,-187.88"/>
</g>
<!-- Node28&#45;&gt;Node7 -->
<g id="edge36" class="edge">
<title>Node28&#45;&gt;Node7</title>
<path fill="none" stroke="midnightblue" d="M340,-168.37C340,-150.62 340,-109.67 340,-85.6"/>
<polygon fill="midnightblue" stroke="midnightblue" points="343.5,-85.59 340,-75.59 336.5,-85.59 343.5,-85.59"/>
</g>
<!-- Node28&#45;&gt;Node11 -->
<g id="edge42" class="edge">
<title>Node28&#45;&gt;Node11</title>
<path fill="none" stroke="midnightblue" d="M421.62,-170.82C533.36,-161.94 723.55,-145.21 753,-132 780.58,-119.63 842.66,-57.22 871.6,-27.19"/>
<polygon fill="midnightblue" stroke="midnightblue" points="874.44,-29.29 878.83,-19.65 869.39,-24.45 874.44,-29.29"/>
</g>
<!-- Node28&#45;&gt;Node19 -->
<g id="edge44" class="edge">
<title>Node28&#45;&gt;Node19</title>
<path fill="none" stroke="midnightblue" d="M421.66,-169.46C512.59,-160.93 663.9,-146.36 794,-132 807.67,-130.49 822.74,-128.69 835.69,-127.09"/>
<polygon fill="midnightblue" stroke="midnightblue" points="836.5,-130.51 846,-125.81 835.64,-123.57 836.5,-130.51"/>
</g>
<!-- Node28&#45;&gt;Node20 -->
<g id="edge46" class="edge">
<title>Node28&#45;&gt;Node20</title>
<path fill="none" stroke="midnightblue" d="M331,-168.32C322.81,-160.42 310.49,-148.55 300.53,-138.94"/>
<polygon fill="midnightblue" stroke="midnightblue" points="302.79,-136.26 293.16,-131.83 297.93,-141.29 302.79,-136.26"/>
</g>
<!-- Node28&#45;&gt;Node21 -->
<g id="edge43" class="edge">
<title>Node28&#45;&gt;Node21</title>
<path fill="none" stroke="midnightblue" d="M348.75,-168.08C356.47,-160.22 367.9,-148.57 377.22,-139.08"/>
<polygon fill="midnightblue" stroke="midnightblue" points="379.9,-141.34 384.41,-131.75 374.91,-136.44 379.9,-141.34"/>
</g>
<!-- Node29 -->
<g id="node29" class="node">
<title>Node29</title>
<g id="a_node29"><a xlink:href="MatrixView_8h.html" target="_top" xlink:title=" ">
<polygon fill="none" stroke="black" points="592,-112.5 592,-131.5 744,-131.5 744,-112.5 592,-112.5"/>
<text text-anchor="middle" x="668" y="-119.5" font-family="FreeSans.ttf" font-size="10.00">iDynTree/Core/MatrixView.h</text>
</a>
</g>
</g>
<!-- Node28&#45;&gt;Node29 -->
<g id="edge37" class="edge">
<title>Node28&#45;&gt;Node29</title>
<path fill="none" stroke="midnightblue" d="M391.97,-168.44C450.15,-158.87 544.36,-143.36 606.25,-133.17"/>
<polygon fill="midnightblue" stroke="midnightblue" points="606.97,-136.59 616.27,-131.52 605.83,-129.69 606.97,-136.59"/>
</g>
<!-- Node28&#45;&gt;Node30 -->
<g id="edge45" class="edge">
<title>Node28&#45;&gt;Node30</title>
<path fill="none" stroke="midnightblue" d="M307.68,-168.44C271.99,-159 214.51,-143.78 176.02,-133.59"/>
<polygon fill="midnightblue" stroke="midnightblue" points="176.74,-130.16 166.18,-130.99 174.95,-136.93 176.74,-130.16"/>
</g>
<!-- Node29&#45;&gt;Node7 -->
<g id="edge41" class="edge">
<title>Node29&#45;&gt;Node7</title>
<path fill="none" stroke="midnightblue" d="M616.03,-112.44C557.85,-102.87 463.64,-87.36 401.75,-77.17"/>
<polygon fill="midnightblue" stroke="midnightblue" points="402.17,-73.69 391.73,-75.52 401.03,-80.59 402.17,-73.69"/>
</g>
<!-- Node29&#45;&gt;Node10 -->
<g id="edge40" class="edge">
<title>Node29&#45;&gt;Node10</title>
<path fill="none" stroke="midnightblue" d="M659.25,-112.08C651.53,-104.22 640.1,-92.57 630.78,-83.08"/>
<polygon fill="midnightblue" stroke="midnightblue" points="633.09,-80.44 623.59,-75.75 628.1,-85.34 633.09,-80.44"/>
</g>
<!-- Node29&#45;&gt;Node11 -->
<g id="edge38" class="edge">
<title>Node29&#45;&gt;Node11</title>
<path fill="none" stroke="midnightblue" d="M679.24,-112.29C696.93,-98.88 732.7,-72.95 766,-56 793.56,-41.97 826.57,-29.99 851.14,-21.93"/>
<polygon fill="midnightblue" stroke="midnightblue" points="852.33,-25.22 860.78,-18.82 850.19,-18.56 852.33,-25.22"/>
</g>
<!-- Node29&#45;&gt;Node17 -->
<g id="edge39" class="edge">
<title>Node29&#45;&gt;Node17</title>
<path fill="none" stroke="midnightblue" d="M674.65,-112.19C685,-98.87 706.07,-73.33 728,-56 743.84,-43.48 763.6,-32.33 779.51,-24.26"/>
<polygon fill="midnightblue" stroke="midnightblue" points="781.44,-27.21 788.86,-19.65 778.34,-20.94 781.44,-27.21"/>
</g>
<!-- Node31&#45;&gt;Node21 -->
<g id="edge69" class="edge">
<title>Node31&#45;&gt;Node21</title>
<path fill="none" stroke="midnightblue" d="M473.68,-453.94C393.19,-433.65 207.8,-374.24 133,-244 128.57,-236.29 128.27,-231.53 133,-224 157.86,-184.39 293.24,-147.05 358.19,-131.11"/>
<polygon fill="midnightblue" stroke="midnightblue" points="359.09,-134.49 367.99,-128.74 357.44,-127.69 359.09,-134.49"/>
</g>
<!-- Node32 -->
<g id="node32" class="node">
<title>Node32</title>
<g id="a_node32"><a xlink:href="Direction_8h.html" target="_top" xlink:title=" ">
<polygon fill="none" stroke="black" points="576.5,-224.5 576.5,-243.5 717.5,-243.5 717.5,-224.5 576.5,-224.5"/>
<text text-anchor="middle" x="647" y="-231.5" font-family="FreeSans.ttf" font-size="10.00">iDynTree/Core/Direction.h</text>
</a>
</g>
</g>
<!-- Node31&#45;&gt;Node32 -->
<g id="edge56" class="edge">
<title>Node31&#45;&gt;Node32</title>
<path fill="none" stroke="midnightblue" d="M491.2,-453.99C474.51,-445.91 452.24,-432.01 442,-412 426.34,-381.4 363.91,-378.83 446,-280 454.93,-269.25 527.86,-254.86 583.32,-245.27"/>
<polygon fill="midnightblue" stroke="midnightblue" points="584.19,-248.68 593.45,-243.54 583.01,-241.78 584.19,-248.68"/>
</g>
<!-- Node33 -->
<g id="node33" class="node">
<title>Node33</title>
<g id="a_node33"><a xlink:href="Transform_8h.html" target="_top" xlink:title=" ">
<polygon fill="none" stroke="black" points="451,-392.5 451,-411.5 597,-411.5 597,-392.5 451,-392.5"/>
<text text-anchor="middle" x="524" y="-399.5" font-family="FreeSans.ttf" font-size="10.00">iDynTree/Core/Transform.h</text>
</a>
</g>
</g>
<!-- Node31&#45;&gt;Node33 -->
<g id="edge60" class="edge">
<title>Node31&#45;&gt;Node33</title>
<path fill="none" stroke="midnightblue" d="M513.72,-453.98C515.43,-445.49 518.11,-432.2 520.3,-421.32"/>
<polygon fill="midnightblue" stroke="midnightblue" points="523.74,-422 522.28,-411.51 516.88,-420.62 523.74,-422"/>
</g>
<!-- Node34 -->
<g id="node34" class="node">
<title>Node34</title>
<g id="a_node34"><a xlink:href="VectorDynSize_8h.html" target="_top" xlink:title=" ">
<polygon fill="none" stroke="black" points="1061.5,-168.5 1061.5,-187.5 1228.5,-187.5 1228.5,-168.5 1061.5,-168.5"/>
<text text-anchor="middle" x="1145" y="-175.5" font-family="FreeSans.ttf" font-size="10.00">iDynTree/Core/VectorDynSize.h</text>
</a>
</g>
</g>
<!-- Node31&#45;&gt;Node34 -->
<g id="edge65" class="edge">
<title>Node31&#45;&gt;Node34</title>
<path fill="none" stroke="midnightblue" d="M606.05,-462.2C765.55,-459.13 1072,-440.99 1072,-347 1072,-347 1072,-347 1072,-289 1072,-249.78 1104.62,-213.84 1126.25,-194.32"/>
<polygon fill="midnightblue" stroke="midnightblue" points="1128.65,-196.87 1133.91,-187.67 1124.07,-191.58 1128.65,-196.87"/>
</g>
<!-- Node35 -->
<g id="node35" class="node">
<title>Node35</title>
<g id="a_node35"><a xlink:title=" ">
<polygon fill="none" stroke="#bfbfbf" points="1100,-392.5 1100,-411.5 1204,-411.5 1204,-392.5 1100,-392.5"/>
<text text-anchor="middle" x="1152" y="-399.5" font-family="FreeSans.ttf" font-size="10.00">yarp/math/Math.h</text>
</a>
</g>
</g>
<!-- Node31&#45;&gt;Node35 -->
<g id="edge68" class="edge">
<title>Node31&#45;&gt;Node35</title>
<path fill="none" stroke="midnightblue" d="M606.1,-455.61C719.91,-446.95 917.24,-430.92 1086,-412 1087.26,-411.86 1088.53,-411.71 1089.82,-411.56"/>
<polygon fill="midnightblue" stroke="midnightblue" points="1090.28,-415.03 1099.79,-410.35 1089.44,-408.08 1090.28,-415.03"/>
</g>
<!-- Node32&#45;&gt;Node6 -->
<g id="edge58" class="edge">
<title>Node32&#45;&gt;Node6</title>
<path fill="none" stroke="midnightblue" d="M633.34,-224.32C620.08,-215.9 599.73,-202.97 584.15,-193.07"/>
<polygon fill="midnightblue" stroke="midnightblue" points="585.94,-190.06 575.62,-187.65 582.19,-195.97 585.94,-190.06"/>
</g>
<!-- Node32&#45;&gt;Node7 -->
<g id="edge59" class="edge">
<title>Node32&#45;&gt;Node7</title>
<path fill="none" stroke="midnightblue" d="M596.71,-224.49C552.27,-216.19 491.57,-202.69 472,-188 440.61,-164.43 455.54,-138.95 427,-112 412.12,-97.95 391.99,-87.16 374.85,-79.67"/>
<polygon fill="midnightblue" stroke="midnightblue" points="375.74,-76.25 365.16,-75.65 373.05,-82.72 375.74,-76.25"/>
</g>
<!-- Node32&#45;&gt;Node19 -->
<g id="edge57" class="edge">
<title>Node32&#45;&gt;Node19</title>
<path fill="none" stroke="midnightblue" d="M662.78,-224.3C686.04,-211.56 731.01,-187.23 770,-168 792.98,-156.66 819.4,-144.58 839.02,-135.8"/>
<polygon fill="midnightblue" stroke="midnightblue" points="840.62,-138.92 848.33,-131.65 837.77,-132.52 840.62,-138.92"/>
</g>
<!-- Node33&#45;&gt;Node19 -->
<g id="edge64" class="edge">
<title>Node33&#45;&gt;Node19</title>
<path fill="none" stroke="midnightblue" d="M597.07,-400.28C738.09,-396.91 1034,-379.31 1034,-291 1034,-291 1034,-291 1034,-233 1034,-193.08 1004.75,-190.83 972,-168 959.76,-159.47 925.54,-145.26 899.66,-135.09"/>
<polygon fill="midnightblue" stroke="midnightblue" points="900.81,-131.78 890.22,-131.41 898.27,-138.3 900.81,-131.78"/>
</g>
<!-- Node33&#45;&gt;Node24 -->
<g id="edge61" class="edge">
<title>Node33&#45;&gt;Node24</title>
<path fill="none" stroke="midnightblue" d="M533.8,-392.32C542.82,-384.34 556.41,-372.31 567.32,-362.65"/>
<polygon fill="midnightblue" stroke="midnightblue" points="569.85,-365.08 575.02,-355.83 565.21,-359.84 569.85,-365.08"/>
</g>
<!-- Node33&#45;&gt;Node26 -->
<g id="edge62" class="edge">
<title>Node33&#45;&gt;Node26</title>
<path fill="none" stroke="midnightblue" d="M524,-392.37C524,-374.62 524,-333.67 524,-309.6"/>
<polygon fill="midnightblue" stroke="midnightblue" points="527.5,-309.59 524,-299.59 520.5,-309.59 527.5,-309.59"/>
</g>
<!-- Node33&#45;&gt;Node28 -->
<g id="edge63" class="edge">
<title>Node33&#45;&gt;Node28</title>
<path fill="none" stroke="midnightblue" d="M516.38,-392.24C495.85,-368.59 437.73,-301.31 391,-244 377.89,-227.92 363.32,-209.27 353.12,-196.07"/>
<polygon fill="midnightblue" stroke="midnightblue" points="355.7,-193.7 346.83,-187.91 350.16,-197.97 355.7,-193.7"/>
</g>
<!-- Node34&#45;&gt;Node10 -->
<g id="edge66" class="edge">
<title>Node34&#45;&gt;Node10</title>
<path fill="none" stroke="midnightblue" d="M1116.44,-168.45C1070.82,-155.01 978.53,-128.76 899,-112 826.88,-96.8 743.49,-84.17 685.82,-76.19"/>
<polygon fill="midnightblue" stroke="midnightblue" points="686.1,-72.7 675.71,-74.81 685.14,-79.63 686.1,-72.7"/>
</g>
<!-- Node34&#45;&gt;Node19 -->
<g id="edge67" class="edge">
<title>Node34&#45;&gt;Node19</title>
<path fill="none" stroke="midnightblue" d="M1101.11,-168.44C1045.14,-157.53 949.68,-138.92 900.07,-129.25"/>
<polygon fill="midnightblue" stroke="midnightblue" points="900.69,-125.81 890.21,-127.33 899.35,-132.68 900.69,-125.81"/>
</g>
</g>
</svg>
