<?xml version="1.0" encoding="UTF-8" standalone="no"?>
<!DOCTYPE svg PUBLIC "-//W3C//DTD SVG 1.1//EN"
 "http://www.w3.org/Graphics/SVG/1.1/DTD/svg11.dtd">
<!-- Generated by graphviz version 2.43.0 (0)
 -->
<!-- Title: ArticulatedBodyInertia.cpp Pages: 1 -->
<svg width="1674pt" height="688pt"
 viewBox="0.00 0.00 1673.79 688.00" xmlns="http://www.w3.org/2000/svg" xmlns:xlink="http://www.w3.org/1999/xlink">
<g id="graph0" class="graph" transform="scale(1 1) rotate(0) translate(4 684)">
<title>ArticulatedBodyInertia.cpp</title>
<!-- Node1 -->
<g id="node1" class="node">
<title>Node1</title>
<g id="a_node1"><a xlink:title=" ">
<polygon fill="#bfbfbf" stroke="black" points="392,-660.5 392,-679.5 538,-679.5 538,-660.5 392,-660.5"/>
<text text-anchor="middle" x="465" y="-667.5" font-family="FreeSans.ttf" font-size="10.00">ArticulatedBodyInertia.cpp</text>
</a>
</g>
</g>
<!-- Node2 -->
<g id="node2" class="node">
<title>Node2</title>
<g id="a_node2"><a xlink:href="ArticulatedBodyInertia_8h.html" target="_top" xlink:title=" ">
<polygon fill="none" stroke="black" points="1324.5,-224.5 1324.5,-254.5 1465.5,-254.5 1465.5,-224.5 1324.5,-224.5"/>
<text text-anchor="start" x="1332.5" y="-242.5" font-family="FreeSans.ttf" font-size="10.00">iDynTree/Core/Articulated</text>
<text text-anchor="middle" x="1395" y="-231.5" font-family="FreeSans.ttf" font-size="10.00">BodyInertia.h</text>
</a>
</g>
</g>
<!-- Node1&#45;&gt;Node2 -->
<g id="edge1" class="edge">
<title>Node1&#45;&gt;Node2</title>
<path fill="none" stroke="midnightblue" d="M538.21,-664.25C785.15,-647.49 1576.02,-587.38 1647,-501 1726.77,-403.92 1528.77,-299.79 1437.8,-258.68"/>
<polygon fill="midnightblue" stroke="midnightblue" points="1439.12,-255.44 1428.56,-254.55 1436.27,-261.83 1439.12,-255.44"/>
</g>
<!-- Node8 -->
<g id="node8" class="node">
<title>Node8</title>
<g id="a_node8"><a xlink:title=" ">
<polygon fill="none" stroke="#bfbfbf" points="693,-0.5 693,-19.5 745,-19.5 745,-0.5 693,-0.5"/>
<text text-anchor="middle" x="719" y="-7.5" font-family="FreeSans.ttf" font-size="10.00">cassert</text>
</a>
</g>
</g>
<!-- Node1&#45;&gt;Node8 -->
<g id="edge94" class="edge">
<title>Node1&#45;&gt;Node8</title>
<path fill="none" stroke="midnightblue" d="M391.69,-666.51C293.21,-662.17 124.17,-650.97 69,-624 29.61,-604.75 0,-597.34 0,-553.5 0,-553.5 0,-553.5 0,-121 0,-51.16 536.88,-19.88 682.78,-12.67"/>
<polygon fill="midnightblue" stroke="midnightblue" points="683.17,-16.16 692.99,-12.18 682.83,-9.17 683.17,-16.16"/>
</g>
<!-- Node19 -->
<g id="node19" class="node">
<title>Node19</title>
<g id="a_node19"><a xlink:title=" ">
<polygon fill="none" stroke="#bfbfbf" points="182,-112.5 182,-131.5 242,-131.5 242,-112.5 182,-112.5"/>
<text text-anchor="middle" x="212" y="-119.5" font-family="FreeSans.ttf" font-size="10.00">iostream</text>
</a>
</g>
</g>
<!-- Node1&#45;&gt;Node19 -->
<g id="edge92" class="edge">
<title>Node1&#45;&gt;Node19</title>
<path fill="none" stroke="midnightblue" d="M391.98,-664.31C305.75,-657.93 168.08,-644.86 121,-624 76.75,-604.39 38,-601.9 38,-553.5 38,-553.5 38,-553.5 38,-238.5 38,-174.6 120.48,-143.94 171.86,-131.04"/>
<polygon fill="midnightblue" stroke="midnightblue" points="172.78,-134.42 181.69,-128.69 171.15,-127.61 172.78,-134.42"/>
</g>
<!-- Node20 -->
<g id="node20" class="node">
<title>Node20</title>
<g id="a_node20"><a xlink:title=" ">
<polygon fill="none" stroke="#bfbfbf" points="417,-112.5 417,-131.5 473,-131.5 473,-112.5 417,-112.5"/>
<text text-anchor="middle" x="445" y="-119.5" font-family="FreeSans.ttf" font-size="10.00">sstream</text>
</a>
</g>
</g>
<!-- Node1&#45;&gt;Node20 -->
<g id="edge93" class="edge">
<title>Node1&#45;&gt;Node20</title>
<path fill="none" stroke="midnightblue" d="M391.83,-662.31C279.15,-649.96 76,-618.67 76,-553.5 76,-553.5 76,-553.5 76,-423 76,-253.52 313.25,-162.95 407.27,-133.71"/>
<polygon fill="midnightblue" stroke="midnightblue" points="408.42,-137.02 416.96,-130.75 406.38,-130.32 408.42,-137.02"/>
</g>
<!-- Node21 -->
<g id="node21" class="node">
<title>Node21</title>
<g id="a_node21"><a xlink:href="SpatialInertia_8h.html" target="_top" xlink:title=" ">
<polygon fill="none" stroke="black" points="384,-604.5 384,-623.5 546,-623.5 546,-604.5 384,-604.5"/>
<text text-anchor="middle" x="465" y="-611.5" font-family="FreeSans.ttf" font-size="10.00">iDynTree/Core/SpatialInertia.h</text>
</a>
</g>
</g>
<!-- Node1&#45;&gt;Node21 -->
<g id="edge26" class="edge">
<title>Node1&#45;&gt;Node21</title>
<path fill="none" stroke="midnightblue" d="M465,-660.08C465,-653.01 465,-642.86 465,-633.99"/>
<polygon fill="midnightblue" stroke="midnightblue" points="468.5,-633.75 465,-623.75 461.5,-633.75 468.5,-633.75"/>
</g>
<!-- Node35 -->
<g id="node35" class="node">
<title>Node35</title>
<g id="a_node35"><a xlink:href="SpatialAcc_8h.html" target="_top" xlink:title=" ">
<polygon fill="none" stroke="black" points="811,-543 811,-562 959,-562 959,-543 811,-543"/>
<text text-anchor="middle" x="885" y="-550" font-family="FreeSans.ttf" font-size="10.00">iDynTree/Core/SpatialAcc.h</text>
</a>
</g>
</g>
<!-- Node1&#45;&gt;Node35 -->
<g id="edge70" class="edge">
<title>Node1&#45;&gt;Node35</title>
<path fill="none" stroke="midnightblue" d="M496.23,-660.41C571.03,-639.84 760.5,-587.74 844.19,-564.72"/>
<polygon fill="midnightblue" stroke="midnightblue" points="845.14,-568.09 853.85,-562.06 843.28,-561.34 845.14,-568.09"/>
</g>
<!-- Node36 -->
<g id="node36" class="node">
<title>Node36</title>
<g id="a_node36"><a xlink:href="Wrench_8h.html" target="_top" xlink:title=" ">
<polygon fill="none" stroke="black" points="142,-543 142,-562 276,-562 276,-543 142,-543"/>
<text text-anchor="middle" x="209" y="-550" font-family="FreeSans.ttf" font-size="10.00">iDynTree/Core/Wrench.h</text>
</a>
</g>
</g>
<!-- Node1&#45;&gt;Node36 -->
<g id="edge71" class="edge">
<title>Node1&#45;&gt;Node36</title>
<path fill="none" stroke="midnightblue" d="M445.76,-660.32C401.08,-640.16 290.12,-590.1 237.52,-566.37"/>
<polygon fill="midnightblue" stroke="midnightblue" points="238.67,-563.05 228.12,-562.12 235.79,-569.43 238.67,-563.05"/>
</g>
<!-- Node37 -->
<g id="node37" class="node">
<title>Node37</title>
<g id="a_node37"><a xlink:href="EigenHelpers_8h.html" target="_top" xlink:title=" ">
<polygon fill="none" stroke="black" points="1036.5,-543 1036.5,-562 1197.5,-562 1197.5,-543 1036.5,-543"/>
<text text-anchor="middle" x="1117" y="-550" font-family="FreeSans.ttf" font-size="10.00">iDynTree/Core/EigenHelpers.h</text>
</a>
</g>
</g>
<!-- Node1&#45;&gt;Node37 -->
<g id="edge72" class="edge">
<title>Node1&#45;&gt;Node37</title>
<path fill="none" stroke="midnightblue" d="M513.21,-660.46C630.67,-639.65 931.33,-586.39 1058.64,-563.84"/>
<polygon fill="midnightblue" stroke="midnightblue" points="1059.36,-567.27 1068.6,-562.07 1058.14,-560.37 1059.36,-567.27"/>
</g>
<!-- Node38 -->
<g id="node38" class="node">
<title>Node38</title>
<g id="a_node38"><a xlink:title=" ">
<polygon fill="none" stroke="#bfbfbf" points="1560.5,-476 1560.5,-495 1637.5,-495 1637.5,-476 1560.5,-476"/>
<text text-anchor="middle" x="1599" y="-483" font-family="FreeSans.ttf" font-size="10.00">Eigen/Dense</text>
</a>
</g>
</g>
<!-- Node1&#45;&gt;Node38 -->
<g id="edge91" class="edge">
<title>Node1&#45;&gt;Node38</title>
<path fill="none" stroke="midnightblue" d="M538.15,-660.52C671.49,-644.72 962.87,-608.7 1207,-568 1358.49,-542.74 1396.5,-536.18 1546,-501 1550.4,-499.96 1554.99,-498.81 1559.55,-497.63"/>
<polygon fill="midnightblue" stroke="midnightblue" points="1560.62,-500.97 1569.38,-495.01 1558.82,-494.2 1560.62,-500.97"/>
</g>
<!-- Node3 -->
<g id="node3" class="node">
<title>Node3</title>
<g id="a_node3"><a xlink:href="MatrixFixSize_8h.html" target="_top" xlink:title=" ">
<polygon fill="none" stroke="black" points="728.5,-168.5 728.5,-187.5 891.5,-187.5 891.5,-168.5 728.5,-168.5"/>
<text text-anchor="middle" x="810" y="-175.5" font-family="FreeSans.ttf" font-size="10.00">iDynTree/Core/MatrixFixSize.h</text>
</a>
</g>
</g>
<!-- Node2&#45;&gt;Node3 -->
<g id="edge2" class="edge">
<title>Node2&#45;&gt;Node3</title>
<path fill="none" stroke="midnightblue" d="M1324.44,-231.32C1218.58,-220.56 1018.63,-200.22 901.63,-188.32"/>
<polygon fill="midnightblue" stroke="midnightblue" points="901.92,-184.83 891.61,-187.3 901.21,-191.79 901.92,-184.83"/>
</g>
<!-- Node18 -->
<g id="node18" class="node">
<title>Node18</title>
<g id="a_node18"><a xlink:title=" ">
<polygon fill="none" stroke="#bfbfbf" points="1141,-112.5 1141,-131.5 1185,-131.5 1185,-112.5 1141,-112.5"/>
<text text-anchor="middle" x="1163" y="-119.5" font-family="FreeSans.ttf" font-size="10.00">string</text>
</a>
</g>
</g>
<!-- Node2&#45;&gt;Node18 -->
<g id="edge25" class="edge">
<title>Node2&#45;&gt;Node18</title>
<path fill="none" stroke="midnightblue" d="M1376.09,-224.4C1354.94,-209.08 1319.28,-184.59 1286,-168 1256.31,-153.2 1220.51,-140.65 1195.21,-132.6"/>
<polygon fill="midnightblue" stroke="midnightblue" points="1195.98,-129.17 1185.39,-129.53 1193.89,-135.85 1195.98,-129.17"/>
</g>
<!-- Node4 -->
<g id="node4" class="node">
<title>Node4</title>
<g id="a_node4"><a xlink:href="Utils_8h.html" target="_top" xlink:title=" ">
<polygon fill="none" stroke="black" points="823.5,-56.5 823.5,-75.5 942.5,-75.5 942.5,-56.5 823.5,-56.5"/>
<text text-anchor="middle" x="883" y="-63.5" font-family="FreeSans.ttf" font-size="10.00">iDynTree/Core/Utils.h</text>
</a>
</g>
</g>
<!-- Node3&#45;&gt;Node4 -->
<g id="edge3" class="edge">
<title>Node3&#45;&gt;Node4</title>
<path fill="none" stroke="midnightblue" d="M815.73,-168.37C827.78,-150.22 855.92,-107.8 871.72,-83.99"/>
<polygon fill="midnightblue" stroke="midnightblue" points="874.69,-85.86 877.3,-75.59 868.85,-81.99 874.69,-85.86"/>
</g>
<!-- Node7 -->
<g id="node7" class="node">
<title>Node7</title>
<g id="a_node7"><a xlink:href="MatrixView_8h.html" target="_top" xlink:title=" ">
<polygon fill="none" stroke="black" points="913,-112.5 913,-131.5 1065,-131.5 1065,-112.5 913,-112.5"/>
<text text-anchor="middle" x="989" y="-119.5" font-family="FreeSans.ttf" font-size="10.00">iDynTree/Core/MatrixView.h</text>
</a>
</g>
</g>
<!-- Node3&#45;&gt;Node7 -->
<g id="edge6" class="edge">
<title>Node3&#45;&gt;Node7</title>
<path fill="none" stroke="midnightblue" d="M838.36,-168.44C868.74,-159.28 917.11,-144.69 950.82,-134.52"/>
<polygon fill="midnightblue" stroke="midnightblue" points="952.21,-137.76 960.77,-131.52 950.18,-131.05 952.21,-137.76"/>
</g>
<!-- Node3&#45;&gt;Node8 -->
<g id="edge20" class="edge">
<title>Node3&#45;&gt;Node8</title>
<path fill="none" stroke="midnightblue" d="M810.44,-168.19C810.74,-155.3 810.07,-130.81 802,-112 799.9,-107.11 756.27,-55.1 733.13,-27.69"/>
<polygon fill="midnightblue" stroke="midnightblue" points="735.54,-25.13 726.41,-19.75 730.2,-29.65 735.54,-25.13"/>
</g>
<!-- Node17 -->
<g id="node17" class="node">
<title>Node17</title>
<g id="a_node17"><a xlink:title=" ">
<polygon fill="none" stroke="#bfbfbf" points="743,-112.5 743,-131.5 793,-131.5 793,-112.5 743,-112.5"/>
<text text-anchor="middle" x="768" y="-119.5" font-family="FreeSans.ttf" font-size="10.00">cstring</text>
</a>
</g>
</g>
<!-- Node3&#45;&gt;Node17 -->
<g id="edge21" class="edge">
<title>Node3&#45;&gt;Node17</title>
<path fill="none" stroke="midnightblue" d="M803.06,-168.08C797.07,-160.38 788.25,-149.03 780.95,-139.65"/>
<polygon fill="midnightblue" stroke="midnightblue" points="783.71,-137.5 774.81,-131.75 778.18,-141.79 783.71,-137.5"/>
</g>
<!-- Node3&#45;&gt;Node18 -->
<g id="edge22" class="edge">
<title>Node3&#45;&gt;Node18</title>
<path fill="none" stroke="midnightblue" d="M865.93,-168.44C940.58,-157.03 1070.32,-137.18 1130.56,-127.96"/>
<polygon fill="midnightblue" stroke="midnightblue" points="1131.27,-131.39 1140.63,-126.42 1130.21,-124.48 1131.27,-131.39"/>
</g>
<!-- Node3&#45;&gt;Node19 -->
<g id="edge23" class="edge">
<title>Node3&#45;&gt;Node19</title>
<path fill="none" stroke="midnightblue" d="M728.15,-168.87C725.06,-168.57 722,-168.28 719,-168 545.23,-151.7 337.8,-133.76 252.09,-126.42"/>
<polygon fill="midnightblue" stroke="midnightblue" points="252.27,-122.92 242.01,-125.56 251.68,-129.9 252.27,-122.92"/>
</g>
<!-- Node3&#45;&gt;Node20 -->
<g id="edge24" class="edge">
<title>Node3&#45;&gt;Node20</title>
<path fill="none" stroke="midnightblue" d="M752.16,-168.44C676.95,-157.32 547.62,-138.18 483.44,-128.69"/>
<polygon fill="midnightblue" stroke="midnightblue" points="483.75,-125.2 473.35,-127.19 482.73,-132.12 483.75,-125.2"/>
</g>
<!-- Node5 -->
<g id="node5" class="node">
<title>Node5</title>
<g id="a_node5"><a xlink:title=" ">
<polygon fill="none" stroke="#bfbfbf" points="926.5,-0.5 926.5,-19.5 979.5,-19.5 979.5,-0.5 926.5,-0.5"/>
<text text-anchor="middle" x="953" y="-7.5" font-family="FreeSans.ttf" font-size="10.00">cstddef</text>
</a>
</g>
</g>
<!-- Node4&#45;&gt;Node5 -->
<g id="edge4" class="edge">
<title>Node4&#45;&gt;Node5</title>
<path fill="none" stroke="midnightblue" d="M894.25,-56.32C904.8,-48.18 920.8,-35.84 933.44,-26.09"/>
<polygon fill="midnightblue" stroke="midnightblue" points="935.77,-28.71 941.55,-19.83 931.49,-23.17 935.77,-28.71"/>
</g>
<!-- Node6 -->
<g id="node6" class="node">
<title>Node6</title>
<g id="a_node6"><a xlink:title=" ">
<polygon fill="none" stroke="#bfbfbf" points="828,-0.5 828,-19.5 908,-19.5 908,-0.5 828,-0.5"/>
<text text-anchor="middle" x="868" y="-7.5" font-family="FreeSans.ttf" font-size="10.00">CoreExport.h</text>
</a>
</g>
</g>
<!-- Node4&#45;&gt;Node6 -->
<g id="edge5" class="edge">
<title>Node4&#45;&gt;Node6</title>
<path fill="none" stroke="midnightblue" d="M880.52,-56.08C878.51,-48.85 875.61,-38.41 873.11,-29.4"/>
<polygon fill="midnightblue" stroke="midnightblue" points="876.48,-28.45 870.43,-19.75 869.74,-30.32 876.48,-28.45"/>
</g>
<!-- Node7&#45;&gt;Node4 -->
<g id="edge19" class="edge">
<title>Node7&#45;&gt;Node4</title>
<path fill="none" stroke="midnightblue" d="M971.97,-112.32C954.97,-103.66 928.62,-90.24 909.01,-80.25"/>
<polygon fill="midnightblue" stroke="midnightblue" points="910.49,-77.08 899.99,-75.65 907.31,-83.31 910.49,-77.08"/>
</g>
<!-- Node7&#45;&gt;Node8 -->
<g id="edge7" class="edge">
<title>Node7&#45;&gt;Node8</title>
<path fill="none" stroke="midnightblue" d="M937.19,-112.43C901.74,-105.41 854.24,-93.72 815,-76 785.7,-62.77 755.6,-40.75 737.09,-26.06"/>
<polygon fill="midnightblue" stroke="midnightblue" points="739.2,-23.26 729.23,-19.69 734.8,-28.7 739.2,-23.26"/>
</g>
<!-- Node9 -->
<g id="node9" class="node">
<title>Node9</title>
<g id="a_node9"><a xlink:title=" ">
<polygon fill="none" stroke="#bfbfbf" points="997.5,-0.5 997.5,-19.5 1066.5,-19.5 1066.5,-0.5 997.5,-0.5"/>
<text text-anchor="middle" x="1032" y="-7.5" font-family="FreeSans.ttf" font-size="10.00">type_traits</text>
</a>
</g>
</g>
<!-- Node7&#45;&gt;Node9 -->
<g id="edge8" class="edge">
<title>Node7&#45;&gt;Node9</title>
<path fill="none" stroke="midnightblue" d="M992.37,-112.37C999.38,-94.46 1015.61,-52.92 1024.98,-28.95"/>
<polygon fill="midnightblue" stroke="midnightblue" points="1028.26,-30.18 1028.64,-19.59 1021.74,-27.63 1028.26,-30.18"/>
</g>
<!-- Node10 -->
<g id="node10" class="node">
<title>Node10</title>
<g id="a_node10"><a xlink:href="Span_8h.html" target="_top" xlink:title=" ">
<polygon fill="none" stroke="black" points="1190.5,-56.5 1190.5,-75.5 1311.5,-75.5 1311.5,-56.5 1190.5,-56.5"/>
<text text-anchor="middle" x="1251" y="-63.5" font-family="FreeSans.ttf" font-size="10.00">iDynTree/Core/Span.h</text>
</a>
</g>
</g>
<!-- Node7&#45;&gt;Node10 -->
<g id="edge9" class="edge">
<title>Node7&#45;&gt;Node10</title>
<path fill="none" stroke="midnightblue" d="M1030.51,-112.44C1076.41,-102.98 1150.38,-87.74 1199.83,-77.55"/>
<polygon fill="midnightblue" stroke="midnightblue" points="1200.59,-80.96 1209.68,-75.52 1199.18,-74.11 1200.59,-80.96"/>
</g>
<!-- Node10&#45;&gt;Node5 -->
<g id="edge13" class="edge">
<title>Node10&#45;&gt;Node5</title>
<path fill="none" stroke="midnightblue" d="M1194.04,-56.48C1142.99,-48.55 1065.87,-35.88 989.48,-19.97"/>
<polygon fill="midnightblue" stroke="midnightblue" points="990.19,-16.54 979.68,-17.91 988.75,-23.39 990.19,-16.54"/>
</g>
<!-- Node10&#45;&gt;Node8 -->
<g id="edge10" class="edge">
<title>Node10&#45;&gt;Node8</title>
<path fill="none" stroke="midnightblue" d="M1190.49,-58.86C1079.16,-47.56 845.02,-23.79 755.17,-14.67"/>
<polygon fill="midnightblue" stroke="midnightblue" points="755.49,-11.19 745.19,-13.66 754.78,-18.15 755.49,-11.19"/>
</g>
<!-- Node10&#45;&gt;Node9 -->
<g id="edge17" class="edge">
<title>Node10&#45;&gt;Node9</title>
<path fill="none" stroke="midnightblue" d="M1216.3,-56.44C1178.42,-47.1 1117.65,-32.12 1076.34,-21.93"/>
<polygon fill="midnightblue" stroke="midnightblue" points="1077.09,-18.51 1066.54,-19.52 1075.41,-25.31 1077.09,-18.51"/>
</g>
<!-- Node11 -->
<g id="node11" class="node">
<title>Node11</title>
<g id="a_node11"><a xlink:title=" ">
<polygon fill="none" stroke="#bfbfbf" points="1148,-0.5 1148,-19.5 1212,-19.5 1212,-0.5 1148,-0.5"/>
<text text-anchor="middle" x="1180" y="-7.5" font-family="FreeSans.ttf" font-size="10.00">algorithm</text>
</a>
</g>
</g>
<!-- Node10&#45;&gt;Node11 -->
<g id="edge11" class="edge">
<title>Node10&#45;&gt;Node11</title>
<path fill="none" stroke="midnightblue" d="M1239.59,-56.32C1228.89,-48.18 1212.66,-35.84 1199.84,-26.09"/>
<polygon fill="midnightblue" stroke="midnightblue" points="1201.69,-23.1 1191.61,-19.83 1197.46,-28.67 1201.69,-23.1"/>
</g>
<!-- Node12 -->
<g id="node12" class="node">
<title>Node12</title>
<g id="a_node12"><a xlink:title=" ">
<polygon fill="none" stroke="#bfbfbf" points="1230,-0.5 1230,-19.5 1272,-19.5 1272,-0.5 1230,-0.5"/>
<text text-anchor="middle" x="1251" y="-7.5" font-family="FreeSans.ttf" font-size="10.00">array</text>
</a>
</g>
</g>
<!-- Node10&#45;&gt;Node12 -->
<g id="edge12" class="edge">
<title>Node10&#45;&gt;Node12</title>
<path fill="none" stroke="midnightblue" d="M1251,-56.08C1251,-49.01 1251,-38.86 1251,-29.99"/>
<polygon fill="midnightblue" stroke="midnightblue" points="1254.5,-29.75 1251,-19.75 1247.5,-29.75 1254.5,-29.75"/>
</g>
<!-- Node13 -->
<g id="node13" class="node">
<title>Node13</title>
<g id="a_node13"><a xlink:title=" ">
<polygon fill="none" stroke="#bfbfbf" points="1290.5,-0.5 1290.5,-19.5 1343.5,-19.5 1343.5,-0.5 1290.5,-0.5"/>
<text text-anchor="middle" x="1317" y="-7.5" font-family="FreeSans.ttf" font-size="10.00">iterator</text>
</a>
</g>
</g>
<!-- Node10&#45;&gt;Node13 -->
<g id="edge14" class="edge">
<title>Node10&#45;&gt;Node13</title>
<path fill="none" stroke="midnightblue" d="M1261.6,-56.32C1271.46,-48.26 1286.35,-36.08 1298.22,-26.37"/>
<polygon fill="midnightblue" stroke="midnightblue" points="1300.68,-28.88 1306.2,-19.83 1296.25,-23.46 1300.68,-28.88"/>
</g>
<!-- Node14 -->
<g id="node14" class="node">
<title>Node14</title>
<g id="a_node14"><a xlink:title=" ">
<polygon fill="none" stroke="#bfbfbf" points="1362,-0.5 1362,-19.5 1406,-19.5 1406,-0.5 1362,-0.5"/>
<text text-anchor="middle" x="1384" y="-7.5" font-family="FreeSans.ttf" font-size="10.00">limits</text>
</a>
</g>
</g>
<!-- Node10&#45;&gt;Node14 -->
<g id="edge15" class="edge">
<title>Node10&#45;&gt;Node14</title>
<path fill="none" stroke="midnightblue" d="M1272.07,-56.44C1294.06,-47.52 1328.73,-33.44 1353.66,-23.32"/>
<polygon fill="midnightblue" stroke="midnightblue" points="1355.08,-26.52 1363.02,-19.52 1352.44,-20.04 1355.08,-26.52"/>
</g>
<!-- Node15 -->
<g id="node15" class="node">
<title>Node15</title>
<g id="a_node15"><a xlink:title=" ">
<polygon fill="none" stroke="#bfbfbf" points="1424.5,-0.5 1424.5,-19.5 1489.5,-19.5 1489.5,-0.5 1424.5,-0.5"/>
<text text-anchor="middle" x="1457" y="-7.5" font-family="FreeSans.ttf" font-size="10.00">stdexcept</text>
</a>
</g>
</g>
<!-- Node10&#45;&gt;Node15 -->
<g id="edge16" class="edge">
<title>Node10&#45;&gt;Node15</title>
<path fill="none" stroke="midnightblue" d="M1283.64,-56.44C1319.05,-47.16 1375.71,-32.31 1414.55,-22.13"/>
<polygon fill="midnightblue" stroke="midnightblue" points="1415.73,-25.44 1424.51,-19.52 1413.95,-18.67 1415.73,-25.44"/>
</g>
<!-- Node16 -->
<g id="node16" class="node">
<title>Node16</title>
<g id="a_node16"><a xlink:title=" ">
<polygon fill="none" stroke="#bfbfbf" points="1084.5,-0.5 1084.5,-19.5 1129.5,-19.5 1129.5,-0.5 1084.5,-0.5"/>
<text text-anchor="middle" x="1107" y="-7.5" font-family="FreeSans.ttf" font-size="10.00">utility</text>
</a>
</g>
</g>
<!-- Node10&#45;&gt;Node16 -->
<g id="edge18" class="edge">
<title>Node10&#45;&gt;Node16</title>
<path fill="none" stroke="midnightblue" d="M1228.18,-56.44C1204.17,-47.44 1166.17,-33.19 1139.13,-23.05"/>
<polygon fill="midnightblue" stroke="midnightblue" points="1140.3,-19.75 1129.71,-19.52 1137.84,-26.3 1140.3,-19.75"/>
</g>
<!-- Node22 -->
<g id="node22" class="node">
<title>Node22</title>
<g id="a_node22"><a xlink:href="SpatialInertiaRaw_8h.html" target="_top" xlink:title=" ">
<polygon fill="none" stroke="black" points="294.5,-537.5 294.5,-567.5 447.5,-567.5 447.5,-537.5 294.5,-537.5"/>
<text text-anchor="start" x="302.5" y="-555.5" font-family="FreeSans.ttf" font-size="10.00">iDynTree/Core/SpatialInertia</text>
<text text-anchor="middle" x="371" y="-544.5" font-family="FreeSans.ttf" font-size="10.00">Raw.h</text>
</a>
</g>
</g>
<!-- Node21&#45;&gt;Node22 -->
<g id="edge27" class="edge">
<title>Node21&#45;&gt;Node22</title>
<path fill="none" stroke="midnightblue" d="M451.53,-604.48C438.56,-596.27 418.49,-583.56 401.62,-572.88"/>
<polygon fill="midnightblue" stroke="midnightblue" points="403.48,-569.91 393.15,-567.52 399.73,-575.83 403.48,-569.91"/>
</g>
<!-- Node24 -->
<g id="node24" class="node">
<title>Node24</title>
<g id="a_node24"><a xlink:href="VectorFixSize_8h.html" target="_top" xlink:title=" ">
<polygon fill="none" stroke="black" points="548,-168.5 548,-187.5 710,-187.5 710,-168.5 548,-168.5"/>
<text text-anchor="middle" x="629" y="-175.5" font-family="FreeSans.ttf" font-size="10.00">iDynTree/Core/VectorFixSize.h</text>
</a>
</g>
</g>
<!-- Node21&#45;&gt;Node24 -->
<g id="edge30" class="edge">
<title>Node21&#45;&gt;Node24</title>
<path fill="none" stroke="midnightblue" d="M383.99,-612.27C297.7,-609.77 168.71,-600.49 133,-568 105.49,-542.97 114,-523.69 114,-486.5 114,-486.5 114,-486.5 114,-423 114,-237.55 390.1,-192.86 537.98,-182.22"/>
<polygon fill="midnightblue" stroke="midnightblue" points="538.23,-185.72 547.96,-181.54 537.75,-178.73 538.23,-185.72"/>
</g>
<!-- Node25 -->
<g id="node25" class="node">
<title>Node25</title>
<g id="a_node25"><a xlink:href="Twist_8h.html" target="_top" xlink:title=" ">
<polygon fill="none" stroke="black" points="671,-543 671,-562 793,-562 793,-543 671,-543"/>
<text text-anchor="middle" x="732" y="-550" font-family="FreeSans.ttf" font-size="10.00">iDynTree/Core/Twist.h</text>
</a>
</g>
</g>
<!-- Node21&#45;&gt;Node25 -->
<g id="edge38" class="edge">
<title>Node21&#45;&gt;Node25</title>
<path fill="none" stroke="midnightblue" d="M503.25,-604.48C550.84,-593.87 632.11,-575.76 683.88,-564.22"/>
<polygon fill="midnightblue" stroke="midnightblue" points="684.82,-567.6 693.82,-562.01 683.29,-560.77 684.82,-567.6"/>
</g>
<!-- Node33 -->
<g id="node33" class="node">
<title>Node33</title>
<g id="a_node33"><a xlink:href="SpatialMomentum_8h.html" target="_top" xlink:title=" ">
<polygon fill="none" stroke="black" points="465.5,-543 465.5,-562 652.5,-562 652.5,-543 465.5,-543"/>
<text text-anchor="middle" x="559" y="-550" font-family="FreeSans.ttf" font-size="10.00">iDynTree/Core/SpatialMomentum.h</text>
</a>
</g>
</g>
<!-- Node21&#45;&gt;Node33 -->
<g id="edge61" class="edge">
<title>Node21&#45;&gt;Node33</title>
<path fill="none" stroke="midnightblue" d="M478.47,-604.48C493.68,-594.84 518.69,-579.02 536.8,-567.55"/>
<polygon fill="midnightblue" stroke="midnightblue" points="538.98,-570.31 545.56,-562.01 535.24,-564.4 538.98,-570.31"/>
</g>
<!-- Node21&#45;&gt;Node35 -->
<g id="edge66" class="edge">
<title>Node21&#45;&gt;Node35</title>
<path fill="none" stroke="midnightblue" d="M535.15,-604.47C603.4,-595.97 709.97,-582.18 802,-568 810.42,-566.7 819.3,-565.25 828,-563.77"/>
<polygon fill="midnightblue" stroke="midnightblue" points="828.82,-567.18 838.09,-562.03 827.64,-560.28 828.82,-567.18"/>
</g>
<!-- Node21&#45;&gt;Node36 -->
<g id="edge68" class="edge">
<title>Node21&#45;&gt;Node36</title>
<path fill="none" stroke="midnightblue" d="M428.32,-604.48C382.79,-593.89 305.1,-575.84 255.45,-564.3"/>
<polygon fill="midnightblue" stroke="midnightblue" points="256.14,-560.86 245.61,-562.01 254.56,-567.68 256.14,-560.86"/>
</g>
<!-- Node23 -->
<g id="node23" class="node">
<title>Node23</title>
<g id="a_node23"><a xlink:href="RotationalInertiaRaw_8h.html" target="_top" xlink:title=" ">
<polygon fill="none" stroke="black" points="142,-347.5 142,-377.5 280,-377.5 280,-347.5 142,-347.5"/>
<text text-anchor="start" x="150" y="-365.5" font-family="FreeSans.ttf" font-size="10.00">iDynTree/Core/Rotational</text>
<text text-anchor="middle" x="211" y="-354.5" font-family="FreeSans.ttf" font-size="10.00">InertiaRaw.h</text>
</a>
</g>
</g>
<!-- Node22&#45;&gt;Node23 -->
<g id="edge28" class="edge">
<title>Node22&#45;&gt;Node23</title>
<path fill="none" stroke="midnightblue" d="M358.97,-537.37C331.22,-504.76 262.56,-424.09 229.45,-385.18"/>
<polygon fill="midnightblue" stroke="midnightblue" points="232.09,-382.89 222.95,-377.54 226.76,-387.42 232.09,-382.89"/>
</g>
<!-- Node23&#45;&gt;Node3 -->
<g id="edge29" class="edge">
<title>Node23&#45;&gt;Node3</title>
<path fill="none" stroke="midnightblue" d="M228.48,-347.47C265.29,-318.79 354.52,-253.63 441,-224 466.64,-215.22 617.51,-198.58 718.22,-188.19"/>
<polygon fill="midnightblue" stroke="midnightblue" points="718.83,-191.64 728.42,-187.14 718.11,-184.68 718.83,-191.64"/>
</g>
<!-- Node24&#45;&gt;Node4 -->
<g id="edge31" class="edge">
<title>Node24&#45;&gt;Node4</title>
<path fill="none" stroke="midnightblue" d="M636,-168.37C647.86,-154.35 673.34,-126.7 701,-112 735.66,-93.58 778.06,-82.53 813.21,-75.99"/>
<polygon fill="midnightblue" stroke="midnightblue" points="814.15,-79.38 823.39,-74.19 812.93,-72.49 814.15,-79.38"/>
</g>
<!-- Node24&#45;&gt;Node5 -->
<g id="edge36" class="edge">
<title>Node24&#45;&gt;Node5</title>
<path fill="none" stroke="midnightblue" d="M632.26,-168.16C637.78,-154.34 650.24,-127.57 669,-112 707.78,-79.82 848.98,-38.89 916.52,-20.59"/>
<polygon fill="midnightblue" stroke="midnightblue" points="917.57,-23.93 926.32,-17.96 915.75,-17.17 917.57,-23.93"/>
</g>
<!-- Node24&#45;&gt;Node8 -->
<g id="edge35" class="edge">
<title>Node24&#45;&gt;Node8</title>
<path fill="none" stroke="midnightblue" d="M626.18,-168.22C622.55,-155.38 617.55,-130.94 625,-112 639.62,-74.84 675.06,-43.25 698,-25.73"/>
<polygon fill="midnightblue" stroke="midnightblue" points="700.16,-28.49 706.12,-19.72 696,-22.86 700.16,-28.49"/>
</g>
<!-- Node24&#45;&gt;Node10 -->
<g id="edge32" class="edge">
<title>Node24&#45;&gt;Node10</title>
<path fill="none" stroke="midnightblue" d="M642.76,-168.37C670.67,-150.87 731.49,-112.83 734,-112 814.8,-85.17 1058.07,-73.43 1179.89,-69.12"/>
<polygon fill="midnightblue" stroke="midnightblue" points="1180.35,-72.61 1190.22,-68.76 1180.11,-65.61 1180.35,-72.61"/>
</g>
<!-- Node24&#45;&gt;Node17 -->
<g id="edge37" class="edge">
<title>Node24&#45;&gt;Node17</title>
<path fill="none" stroke="midnightblue" d="M651.02,-168.44C674.1,-159.48 710.56,-145.31 736.64,-135.18"/>
<polygon fill="midnightblue" stroke="midnightblue" points="738.02,-138.4 746.08,-131.52 735.49,-131.88 738.02,-138.4"/>
</g>
<!-- Node24&#45;&gt;Node18 -->
<g id="edge33" class="edge">
<title>Node24&#45;&gt;Node18</title>
<path fill="none" stroke="midnightblue" d="M710.1,-168.8C829.88,-156.69 1048.73,-134.56 1130.79,-126.26"/>
<polygon fill="midnightblue" stroke="midnightblue" points="1131.17,-129.74 1140.77,-125.25 1130.47,-122.77 1131.17,-129.74"/>
</g>
<!-- Node24&#45;&gt;Node20 -->
<g id="edge34" class="edge">
<title>Node24&#45;&gt;Node20</title>
<path fill="none" stroke="midnightblue" d="M599.84,-168.44C568.21,-159.16 517.59,-144.3 482.89,-134.12"/>
<polygon fill="midnightblue" stroke="midnightblue" points="483.69,-130.71 473.11,-131.25 481.72,-137.43 483.69,-130.71"/>
</g>
<!-- Node26 -->
<g id="node26" class="node">
<title>Node26</title>
<g id="a_node26"><a xlink:href="SpatialMotionVector_8h.html" target="_top" xlink:title=" ">
<polygon fill="none" stroke="black" points="562.5,-470.5 562.5,-500.5 717.5,-500.5 717.5,-470.5 562.5,-470.5"/>
<text text-anchor="start" x="570.5" y="-488.5" font-family="FreeSans.ttf" font-size="10.00">iDynTree/Core/SpatialMotion</text>
<text text-anchor="middle" x="640" y="-477.5" font-family="FreeSans.ttf" font-size="10.00">Vector.h</text>
</a>
</g>
</g>
<!-- Node25&#45;&gt;Node26 -->
<g id="edge39" class="edge">
<title>Node25&#45;&gt;Node26</title>
<path fill="none" stroke="midnightblue" d="M719.59,-542.73C706.56,-533.53 685.62,-518.73 668.49,-506.63"/>
<polygon fill="midnightblue" stroke="midnightblue" points="670.13,-503.5 659.94,-500.59 666.09,-509.22 670.13,-503.5"/>
</g>
<!-- Node26&#45;&gt;Node24 -->
<g id="edge40" class="edge">
<title>Node26&#45;&gt;Node24</title>
<path fill="none" stroke="midnightblue" d="M639.64,-470.45C639.27,-456.22 638.65,-433.58 638,-414 635.31,-333.41 631.42,-237.29 629.77,-197.58"/>
<polygon fill="midnightblue" stroke="midnightblue" points="633.27,-197.38 629.36,-187.54 626.28,-197.67 633.27,-197.38"/>
</g>
<!-- Node27 -->
<g id="node27" class="node">
<title>Node27</title>
<g id="a_node27"><a xlink:href="GeomVector3_8h.html" target="_top" xlink:title=" ">
<polygon fill="none" stroke="black" points="450.5,-230 450.5,-249 613.5,-249 613.5,-230 450.5,-230"/>
<text text-anchor="middle" x="532" y="-237" font-family="FreeSans.ttf" font-size="10.00">iDynTree/Core/GeomVector3.h</text>
</a>
</g>
</g>
<!-- Node26&#45;&gt;Node27 -->
<g id="edge41" class="edge">
<title>Node26&#45;&gt;Node27</title>
<path fill="none" stroke="midnightblue" d="M636.86,-470.46C633.45,-456.04 627.46,-433.08 620,-414 596.79,-354.68 560.02,-288.6 542.26,-257.92"/>
<polygon fill="midnightblue" stroke="midnightblue" points="545.27,-256.12 537.21,-249.25 539.22,-259.65 545.27,-256.12"/>
</g>
<!-- Node28 -->
<g id="node28" class="node">
<title>Node28</title>
<g id="a_node28"><a xlink:href="SpatialVector_8h.html" target="_top" xlink:title=" ">
<polygon fill="none" stroke="black" points="450.5,-414.5 450.5,-433.5 611.5,-433.5 611.5,-414.5 450.5,-414.5"/>
<text text-anchor="middle" x="531" y="-421.5" font-family="FreeSans.ttf" font-size="10.00">iDynTree/Core/SpatialVector.h</text>
</a>
</g>
</g>
<!-- Node26&#45;&gt;Node28 -->
<g id="edge43" class="edge">
<title>Node26&#45;&gt;Node28</title>
<path fill="none" stroke="midnightblue" d="M614.17,-470.4C596.53,-460.77 573.3,-448.09 555.87,-438.58"/>
<polygon fill="midnightblue" stroke="midnightblue" points="557.31,-435.38 546.86,-433.66 553.96,-441.52 557.31,-435.38"/>
</g>
<!-- Node27&#45;&gt;Node24 -->
<g id="edge42" class="edge">
<title>Node27&#45;&gt;Node24</title>
<path fill="none" stroke="midnightblue" d="M545.9,-229.98C561.67,-220.3 587.64,-204.37 606.35,-192.89"/>
<polygon fill="midnightblue" stroke="midnightblue" points="608.43,-195.72 615.13,-187.51 604.77,-189.75 608.43,-195.72"/>
</g>
<!-- Node28&#45;&gt;Node4 -->
<g id="edge57" class="edge">
<title>Node28&#45;&gt;Node4</title>
<path fill="none" stroke="midnightblue" d="M517.38,-414.5C505.36,-406.39 488.07,-393.19 477,-378 405.09,-279.28 325.81,-202.34 408,-112 434.7,-82.65 687.54,-72.02 813.04,-68.54"/>
<polygon fill="midnightblue" stroke="midnightblue" points="813.41,-72.03 823.31,-68.26 813.22,-65.03 813.41,-72.03"/>
</g>
<!-- Node28&#45;&gt;Node19 -->
<g id="edge59" class="edge">
<title>Node28&#45;&gt;Node19</title>
<path fill="none" stroke="midnightblue" d="M450.23,-418.01C411.83,-412.47 366.83,-401.11 332,-378 247.83,-322.16 221.37,-190.54 214.29,-141.69"/>
<polygon fill="midnightblue" stroke="midnightblue" points="217.73,-141.06 212.94,-131.61 210.8,-141.99 217.73,-141.06"/>
</g>
<!-- Node28&#45;&gt;Node20 -->
<g id="edge60" class="edge">
<title>Node28&#45;&gt;Node20</title>
<path fill="none" stroke="midnightblue" d="M524.2,-414.19C506.23,-390.27 457.67,-321.43 441,-255 431.08,-215.48 436.86,-167.22 441.32,-141.4"/>
<polygon fill="midnightblue" stroke="midnightblue" points="444.77,-141.98 443.16,-131.51 437.89,-140.7 444.77,-141.98"/>
</g>
<!-- Node28&#45;&gt;Node27 -->
<g id="edge58" class="edge">
<title>Node28&#45;&gt;Node27</title>
<path fill="none" stroke="midnightblue" d="M531.05,-414.2C531.2,-386.19 531.68,-298.71 531.9,-259.66"/>
<polygon fill="midnightblue" stroke="midnightblue" points="535.4,-259.23 531.95,-249.21 528.4,-259.19 535.4,-259.23"/>
</g>
<!-- Node29 -->
<g id="node29" class="node">
<title>Node29</title>
<g id="a_node29"><a xlink:href="Position_8h.html" target="_top" xlink:title=" ">
<polygon fill="none" stroke="black" points="1043.5,-353 1043.5,-372 1108.5,-372 1108.5,-353 1043.5,-353"/>
<text text-anchor="middle" x="1076" y="-360" font-family="FreeSans.ttf" font-size="10.00">Position.h</text>
</a>
</g>
</g>
<!-- Node28&#45;&gt;Node29 -->
<g id="edge44" class="edge">
<title>Node28&#45;&gt;Node29</title>
<path fill="none" stroke="midnightblue" d="M609.09,-414.48C725.85,-401.73 941.98,-378.13 1033.4,-368.15"/>
<polygon fill="midnightblue" stroke="midnightblue" points="1033.84,-371.62 1043.4,-367.06 1033.08,-364.67 1033.84,-371.62"/>
</g>
<!-- Node31 -->
<g id="node31" class="node">
<title>Node31</title>
<g id="a_node31"><a xlink:href="Rotation_8h.html" target="_top" xlink:title=" ">
<polygon fill="none" stroke="black" points="794,-291.5 794,-310.5 932,-310.5 932,-291.5 794,-291.5"/>
<text text-anchor="middle" x="863" y="-298.5" font-family="FreeSans.ttf" font-size="10.00">iDynTree/Core/Rotation.h</text>
</a>
</g>
</g>
<!-- Node28&#45;&gt;Node31 -->
<g id="edge56" class="edge">
<title>Node28&#45;&gt;Node31</title>
<path fill="none" stroke="midnightblue" d="M554.35,-414.49C612.19,-393.41 762.3,-338.7 829.56,-314.19"/>
<polygon fill="midnightblue" stroke="midnightblue" points="831.04,-317.37 839.24,-310.66 828.64,-310.8 831.04,-317.37"/>
</g>
<!-- Node29&#45;&gt;Node18 -->
<g id="edge55" class="edge">
<title>Node29&#45;&gt;Node18</title>
<path fill="none" stroke="midnightblue" d="M1085.72,-352.93C1104.07,-336.14 1143.75,-296.86 1163,-255 1179.31,-219.54 1180.07,-206.7 1175,-168 1173.84,-159.18 1171.47,-149.63 1169.13,-141.61"/>
<polygon fill="midnightblue" stroke="midnightblue" points="1172.4,-140.34 1166.09,-131.83 1165.71,-142.42 1172.4,-140.34"/>
</g>
<!-- Node30 -->
<g id="node30" class="node">
<title>Node30</title>
<g id="a_node30"><a xlink:href="PositionRaw_8h.html" target="_top" xlink:title=" ">
<polygon fill="none" stroke="black" points="998,-230 998,-249 1154,-249 1154,-230 998,-230"/>
<text text-anchor="middle" x="1076" y="-237" font-family="FreeSans.ttf" font-size="10.00">iDynTree/Core/PositionRaw.h</text>
</a>
</g>
</g>
<!-- Node29&#45;&gt;Node30 -->
<g id="edge45" class="edge">
<title>Node29&#45;&gt;Node30</title>
<path fill="none" stroke="midnightblue" d="M1076,-352.8C1076,-333.35 1076,-285.99 1076,-259.4"/>
<polygon fill="midnightblue" stroke="midnightblue" points="1079.5,-259.12 1076,-249.12 1072.5,-259.12 1079.5,-259.12"/>
</g>
<!-- Node29&#45;&gt;Node31 -->
<g id="edge48" class="edge">
<title>Node29&#45;&gt;Node31</title>
<path fill="none" stroke="midnightblue" d="M1045.48,-352.98C1008.08,-342.53 944.57,-324.79 903.21,-313.23"/>
<polygon fill="midnightblue" stroke="midnightblue" points="904.03,-309.83 893.46,-310.51 902.15,-316.57 904.03,-309.83"/>
</g>
<!-- Node30&#45;&gt;Node18 -->
<g id="edge47" class="edge">
<title>Node30&#45;&gt;Node18</title>
<path fill="none" stroke="midnightblue" d="M1101.76,-229.92C1120.74,-222.15 1145.37,-208.7 1158,-188 1166.38,-174.26 1166.99,-155.73 1165.88,-141.97"/>
<polygon fill="midnightblue" stroke="midnightblue" points="1169.32,-141.27 1164.68,-131.75 1162.37,-142.09 1169.32,-141.27"/>
</g>
<!-- Node30&#45;&gt;Node24 -->
<g id="edge46" class="edge">
<title>Node30&#45;&gt;Node24</title>
<path fill="none" stroke="midnightblue" d="M1011.96,-229.98C930.22,-219.09 789.11,-200.31 702.9,-188.84"/>
<polygon fill="midnightblue" stroke="midnightblue" points="703.3,-185.36 692.93,-187.51 702.38,-192.3 703.3,-185.36"/>
</g>
<!-- Node31&#45;&gt;Node18 -->
<g id="edge49" class="edge">
<title>Node31&#45;&gt;Node18</title>
<path fill="none" stroke="midnightblue" d="M882.53,-291.46C900.81,-283.14 928.59,-269.64 951,-255 969.25,-243.08 969.68,-234.09 989,-224 1040.62,-197.04 1067.15,-221.2 1115,-188 1132.42,-175.92 1146,-155.45 1154.2,-140.7"/>
<polygon fill="midnightblue" stroke="midnightblue" points="1157.44,-142.06 1159,-131.59 1151.25,-138.8 1157.44,-142.06"/>
</g>
<!-- Node31&#45;&gt;Node24 -->
<g id="edge54" class="edge">
<title>Node31&#45;&gt;Node24</title>
<path fill="none" stroke="midnightblue" d="M846.11,-291.41C828.38,-282.38 799.7,-267.75 775,-255 732.79,-233.22 683.85,-207.69 654.71,-192.45"/>
<polygon fill="midnightblue" stroke="midnightblue" points="656.1,-189.23 645.62,-187.7 652.86,-195.44 656.1,-189.23"/>
</g>
<!-- Node31&#45;&gt;Node27 -->
<g id="edge50" class="edge">
<title>Node31&#45;&gt;Node27</title>
<path fill="none" stroke="midnightblue" d="M815.58,-291.48C755.85,-280.74 653.31,-262.31 589.27,-250.79"/>
<polygon fill="midnightblue" stroke="midnightblue" points="589.8,-247.33 579.34,-249.01 588.56,-254.22 589.8,-247.33"/>
</g>
<!-- Node32 -->
<g id="node32" class="node">
<title>Node32</title>
<g id="a_node32"><a xlink:href="RotationRaw_8h.html" target="_top" xlink:title=" ">
<polygon fill="none" stroke="black" points="784,-230 784,-249 942,-249 942,-230 784,-230"/>
<text text-anchor="middle" x="863" y="-237" font-family="FreeSans.ttf" font-size="10.00">iDynTree/Core/RotationRaw.h</text>
</a>
</g>
</g>
<!-- Node31&#45;&gt;Node32 -->
<g id="edge51" class="edge">
<title>Node31&#45;&gt;Node32</title>
<path fill="none" stroke="midnightblue" d="M863,-291.48C863,-283.08 863,-269.98 863,-259.16"/>
<polygon fill="midnightblue" stroke="midnightblue" points="866.5,-259.01 863,-249.01 859.5,-259.01 866.5,-259.01"/>
</g>
<!-- Node32&#45;&gt;Node3 -->
<g id="edge52" class="edge">
<title>Node32&#45;&gt;Node3</title>
<path fill="none" stroke="midnightblue" d="M855.41,-229.98C847.3,-220.87 834.27,-206.24 824.24,-194.98"/>
<polygon fill="midnightblue" stroke="midnightblue" points="826.84,-192.65 817.58,-187.51 821.62,-197.3 826.84,-192.65"/>
</g>
<!-- Node32&#45;&gt;Node18 -->
<g id="edge53" class="edge">
<title>Node32&#45;&gt;Node18</title>
<path fill="none" stroke="midnightblue" d="M913.85,-229.98C970.21,-220.01 1057.11,-202.98 1087,-188 1111.36,-175.79 1134.41,-154.12 1148.61,-139.18"/>
<polygon fill="midnightblue" stroke="midnightblue" points="1151.33,-141.4 1155.54,-131.68 1146.18,-136.65 1151.33,-141.4"/>
</g>
<!-- Node34 -->
<g id="node34" class="node">
<title>Node34</title>
<g id="a_node34"><a xlink:href="SpatialForceVector_8h.html" target="_top" xlink:title=" ">
<polygon fill="none" stroke="black" points="372,-470.5 372,-500.5 520,-500.5 520,-470.5 372,-470.5"/>
<text text-anchor="start" x="380" y="-488.5" font-family="FreeSans.ttf" font-size="10.00">iDynTree/Core/SpatialForce</text>
<text text-anchor="middle" x="446" y="-477.5" font-family="FreeSans.ttf" font-size="10.00">Vector.h</text>
</a>
</g>
</g>
<!-- Node33&#45;&gt;Node34 -->
<g id="edge62" class="edge">
<title>Node33&#45;&gt;Node34</title>
<path fill="none" stroke="midnightblue" d="M543.76,-542.73C527.31,-533.27 500.61,-517.91 479.27,-505.64"/>
<polygon fill="midnightblue" stroke="midnightblue" points="480.91,-502.54 470.49,-500.59 477.42,-508.61 480.91,-502.54"/>
</g>
<!-- Node34&#45;&gt;Node24 -->
<g id="edge63" class="edge">
<title>Node34&#45;&gt;Node24</title>
<path fill="none" stroke="midnightblue" d="M433.15,-470.43C414.99,-449.02 384,-406.22 384,-363.5 384,-363.5 384,-363.5 384,-300 384,-228.9 467.98,-199.58 537.6,-187.49"/>
<polygon fill="midnightblue" stroke="midnightblue" points="538.46,-190.89 547.76,-185.82 537.32,-183.98 538.46,-190.89"/>
</g>
<!-- Node34&#45;&gt;Node27 -->
<g id="edge64" class="edge">
<title>Node34&#45;&gt;Node27</title>
<path fill="none" stroke="midnightblue" d="M442.44,-470.24C439.43,-455.84 436.3,-433.06 441,-414 456.27,-352.01 498.06,-287.66 519.28,-257.73"/>
<polygon fill="midnightblue" stroke="midnightblue" points="522.37,-259.42 525.39,-249.27 516.7,-255.33 522.37,-259.42"/>
</g>
<!-- Node34&#45;&gt;Node28 -->
<g id="edge65" class="edge">
<title>Node34&#45;&gt;Node28</title>
<path fill="none" stroke="midnightblue" d="M466.14,-470.4C479.39,-461.13 496.68,-449.03 510.08,-439.65"/>
<polygon fill="midnightblue" stroke="midnightblue" points="512.45,-442.26 518.63,-433.66 508.43,-436.53 512.45,-442.26"/>
</g>
<!-- Node35&#45;&gt;Node26 -->
<g id="edge67" class="edge">
<title>Node35&#45;&gt;Node26</title>
<path fill="none" stroke="midnightblue" d="M852.72,-542.94C814.75,-532.86 750.83,-515.9 702.95,-503.2"/>
<polygon fill="midnightblue" stroke="midnightblue" points="703.56,-499.74 692.99,-500.56 701.76,-506.51 703.56,-499.74"/>
</g>
<!-- Node36&#45;&gt;Node34 -->
<g id="edge69" class="edge">
<title>Node36&#45;&gt;Node34</title>
<path fill="none" stroke="midnightblue" d="M240.47,-542.87C277.19,-532.8 338.75,-515.91 384.95,-503.24"/>
<polygon fill="midnightblue" stroke="midnightblue" points="386.13,-506.55 394.85,-500.53 384.28,-499.8 386.13,-506.55"/>
</g>
<!-- Node37&#45;&gt;Node3 -->
<g id="edge82" class="edge">
<title>Node37&#45;&gt;Node3</title>
<path fill="none" stroke="midnightblue" d="M1095.53,-542.9C1035.31,-517.57 864.05,-437.01 785,-311 764.32,-278.03 762.37,-260.81 775,-224 778.72,-213.16 786.23,-202.92 793.35,-194.96"/>
<polygon fill="midnightblue" stroke="midnightblue" points="796.05,-197.19 800.44,-187.55 791,-192.35 796.05,-197.19"/>
</g>
<!-- Node37&#45;&gt;Node4 -->
<g id="edge90" class="edge">
<title>Node37&#45;&gt;Node4</title>
<path fill="none" stroke="midnightblue" d="M1142.34,-542.93C1240.31,-508.45 1583.48,-374.51 1475,-224 1445.42,-182.95 1414.21,-206.19 1367,-188 1288.64,-157.8 1274.74,-135.11 1194,-112 1113.14,-88.85 1016.88,-77.26 953.1,-71.71"/>
<polygon fill="midnightblue" stroke="midnightblue" points="953.01,-68.19 942.75,-70.84 952.42,-75.16 953.01,-68.19"/>
</g>
<!-- Node37&#45;&gt;Node5 -->
<g id="edge73" class="edge">
<title>Node37&#45;&gt;Node5</title>
<path fill="none" stroke="midnightblue" d="M1165.15,-542.99C1177.47,-540.92 1190.71,-538.79 1203,-537 1268.14,-527.53 1441.09,-535.73 1497,-501 1555.78,-464.5 1570,-432.69 1570,-363.5 1570,-363.5 1570,-363.5 1570,-238.5 1570,-51.54 1362.67,-124.09 1182,-76 1113.68,-57.82 1034.42,-34.91 989.34,-21.71"/>
<polygon fill="midnightblue" stroke="midnightblue" points="990.3,-18.35 979.72,-18.89 988.33,-25.06 990.3,-18.35"/>
</g>
<!-- Node37&#45;&gt;Node24 -->
<g id="edge78" class="edge">
<title>Node37&#45;&gt;Node24</title>
<path fill="none" stroke="midnightblue" d="M1072.61,-542.95C1038.47,-535.2 990.89,-521.75 953,-501 804.71,-419.78 678.7,-250.51 640.71,-196.18"/>
<polygon fill="midnightblue" stroke="midnightblue" points="643.4,-193.92 634.83,-187.68 637.64,-197.9 643.4,-193.92"/>
</g>
<!-- Node37&#45;&gt;Node26 -->
<g id="edge83" class="edge">
<title>Node37&#45;&gt;Node26</title>
<path fill="none" stroke="midnightblue" d="M1047.72,-542.96C970.59,-533.33 842.26,-516.92 732,-501 730.69,-500.81 729.38,-500.62 728.06,-500.43"/>
<polygon fill="midnightblue" stroke="midnightblue" points="728.18,-496.91 717.78,-498.9 727.16,-503.83 728.18,-496.91"/>
</g>
<!-- Node37&#45;&gt;Node34 -->
<g id="edge84" class="edge">
<title>Node37&#45;&gt;Node34</title>
<path fill="none" stroke="midnightblue" d="M1036.21,-543.48C1014.1,-541.33 990.13,-539.04 968,-537 783.64,-520.03 737.01,-521.44 553,-501 545.62,-500.18 537.95,-499.27 530.28,-498.31"/>
<polygon fill="midnightblue" stroke="midnightblue" points="530.56,-494.82 520.2,-497.03 529.67,-501.76 530.56,-494.82"/>
</g>
<!-- Node37&#45;&gt;Node38 -->
<g id="edge74" class="edge">
<title>Node37&#45;&gt;Node38</title>
<path fill="none" stroke="midnightblue" d="M1197.81,-545.62C1284.47,-538.47 1425.83,-524.38 1546,-501 1550.84,-500.06 1555.88,-498.91 1560.85,-497.67"/>
<polygon fill="midnightblue" stroke="midnightblue" points="1562.07,-500.97 1570.85,-495.04 1560.29,-494.2 1562.07,-500.97"/>
</g>
<!-- Node39 -->
<g id="node39" class="node">
<title>Node39</title>
<g id="a_node39"><a xlink:href="VectorDynSize_8h.html" target="_top" xlink:title=" ">
<polygon fill="none" stroke="black" points="1375.5,-168.5 1375.5,-187.5 1542.5,-187.5 1542.5,-168.5 1375.5,-168.5"/>
<text text-anchor="middle" x="1459" y="-175.5" font-family="FreeSans.ttf" font-size="10.00">iDynTree/Core/VectorDynSize.h</text>
</a>
</g>
</g>
<!-- Node37&#45;&gt;Node39 -->
<g id="edge75" class="edge">
<title>Node37&#45;&gt;Node39</title>
<path fill="none" stroke="midnightblue" d="M1166.07,-542.94C1178.13,-540.91 1191.02,-538.82 1203,-537 1262.19,-528.02 1426.35,-541.97 1470,-501 1560.61,-415.96 1557.98,-337.77 1508,-224 1502.61,-211.73 1492.04,-201.34 1482.1,-193.65"/>
<polygon fill="midnightblue" stroke="midnightblue" points="1483.83,-190.58 1473.66,-187.6 1479.75,-196.27 1483.83,-190.58"/>
</g>
<!-- Node40 -->
<g id="node40" class="node">
<title>Node40</title>
<g id="a_node40"><a xlink:href="MatrixDynSize_8h.html" target="_top" xlink:title=" ">
<polygon fill="none" stroke="black" points="910,-168.5 910,-187.5 1078,-187.5 1078,-168.5 910,-168.5"/>
<text text-anchor="middle" x="994" y="-175.5" font-family="FreeSans.ttf" font-size="10.00">iDynTree/Core/MatrixDynSize.h</text>
</a>
</g>
</g>
<!-- Node37&#45;&gt;Node40 -->
<g id="edge79" class="edge">
<title>Node37&#45;&gt;Node40</title>
<path fill="none" stroke="midnightblue" d="M1140.6,-542.94C1180.74,-526.69 1258,-487.32 1258,-425 1258,-425 1258,-425 1258,-300 1258,-223.04 1164.14,-194.84 1088.35,-184.61"/>
<polygon fill="midnightblue" stroke="midnightblue" points="1088.62,-181.12 1078.26,-183.34 1087.74,-188.06 1088.62,-181.12"/>
</g>
<!-- Node41 -->
<g id="node41" class="node">
<title>Node41</title>
<g id="a_node41"><a xlink:href="Transform_8h.html" target="_top" xlink:title=" ">
<polygon fill="none" stroke="black" points="1044,-414.5 1044,-433.5 1190,-433.5 1190,-414.5 1044,-414.5"/>
<text text-anchor="middle" x="1117" y="-421.5" font-family="FreeSans.ttf" font-size="10.00">iDynTree/Core/Transform.h</text>
</a>
</g>
</g>
<!-- Node37&#45;&gt;Node41 -->
<g id="edge85" class="edge">
<title>Node37&#45;&gt;Node41</title>
<path fill="none" stroke="midnightblue" d="M1117,-542.81C1117,-522.49 1117,-471.55 1117,-443.78"/>
<polygon fill="midnightblue" stroke="midnightblue" points="1120.5,-443.76 1117,-433.76 1113.5,-443.76 1120.5,-443.76"/>
</g>
<!-- Node39&#45;&gt;Node10 -->
<g id="edge76" class="edge">
<title>Node39&#45;&gt;Node10</title>
<path fill="none" stroke="midnightblue" d="M1447.83,-168.4C1430.26,-155.13 1394.77,-129.39 1362,-112 1337.36,-98.93 1308.06,-87.2 1285.76,-78.99"/>
<polygon fill="midnightblue" stroke="midnightblue" points="1286.94,-75.7 1276.35,-75.59 1284.56,-82.28 1286.94,-75.7"/>
</g>
<!-- Node39&#45;&gt;Node18 -->
<g id="edge77" class="edge">
<title>Node39&#45;&gt;Node18</title>
<path fill="none" stroke="midnightblue" d="M1412.1,-168.44C1351.55,-157.4 1247.77,-138.46 1195.33,-128.9"/>
<polygon fill="midnightblue" stroke="midnightblue" points="1195.73,-125.41 1185.26,-127.06 1194.47,-132.3 1195.73,-125.41"/>
</g>
<!-- Node40&#45;&gt;Node7 -->
<g id="edge81" class="edge">
<title>Node40&#45;&gt;Node7</title>
<path fill="none" stroke="midnightblue" d="M993.17,-168.08C992.52,-161.01 991.58,-150.86 990.76,-141.99"/>
<polygon fill="midnightblue" stroke="midnightblue" points="994.22,-141.39 989.81,-131.75 987.25,-142.03 994.22,-141.39"/>
</g>
<!-- Node40&#45;&gt;Node18 -->
<g id="edge80" class="edge">
<title>Node40&#45;&gt;Node18</title>
<path fill="none" stroke="midnightblue" d="M1020.78,-168.44C1050.76,-158.86 1099.31,-143.35 1131.2,-133.16"/>
<polygon fill="midnightblue" stroke="midnightblue" points="1132.46,-136.43 1140.92,-130.05 1130.33,-129.76 1132.46,-136.43"/>
</g>
<!-- Node41&#45;&gt;Node3 -->
<g id="edge88" class="edge">
<title>Node41&#45;&gt;Node3</title>
<path fill="none" stroke="midnightblue" d="M1123.73,-414.15C1146.07,-383.63 1213.62,-281.48 1163,-224 1158.6,-219 999.84,-200.31 896.75,-188.64"/>
<polygon fill="midnightblue" stroke="midnightblue" points="896.98,-185.15 886.65,-187.5 896.19,-192.1 896.98,-185.15"/>
</g>
<!-- Node41&#45;&gt;Node18 -->
<g id="edge89" class="edge">
<title>Node41&#45;&gt;Node18</title>
<path fill="none" stroke="midnightblue" d="M1130.17,-414.44C1162.34,-392.59 1244.35,-331.09 1272,-255 1290.58,-203.89 1226.9,-158.4 1189.07,-136.61"/>
<polygon fill="midnightblue" stroke="midnightblue" points="1190.51,-133.41 1180.08,-131.59 1187.1,-139.52 1190.51,-133.41"/>
</g>
<!-- Node41&#45;&gt;Node29 -->
<g id="edge86" class="edge">
<title>Node41&#45;&gt;Node29</title>
<path fill="none" stroke="midnightblue" d="M1111.13,-414.48C1105.04,-405.64 1095.36,-391.59 1087.7,-380.48"/>
<polygon fill="midnightblue" stroke="midnightblue" points="1090.42,-378.26 1081.86,-372.01 1084.66,-382.23 1090.42,-378.26"/>
</g>
<!-- Node41&#45;&gt;Node31 -->
<g id="edge87" class="edge">
<title>Node41&#45;&gt;Node31</title>
<path fill="none" stroke="midnightblue" d="M1099.14,-414.49C1055.43,-393.67 942.86,-340.04 890.52,-315.11"/>
<polygon fill="midnightblue" stroke="midnightblue" points="891.71,-311.8 881.18,-310.66 888.7,-318.12 891.71,-311.8"/>
</g>
</g>
</svg>
