<?xml version="1.0" encoding="UTF-8" standalone="no"?>
<!DOCTYPE svg PUBLIC "-//W3C//DTD SVG 1.1//EN"
 "http://www.w3.org/Graphics/SVG/1.1/DTD/svg11.dtd">
<!-- Generated by graphviz version 2.43.0 (0)
 -->
<!-- Title: AttitudeMahonyFilter.cpp Pages: 1 -->
<svg width="1655pt" height="688pt"
 viewBox="0.00 0.00 1654.74 688.00" xmlns="http://www.w3.org/2000/svg" xmlns:xlink="http://www.w3.org/1999/xlink">
<g id="graph0" class="graph" transform="scale(1 1) rotate(0) translate(4 684)">
<title>AttitudeMahonyFilter.cpp</title>
<!-- Node1 -->
<g id="node1" class="node">
<title>Node1</title>
<g id="a_node1"><a xlink:title=" ">
<polygon fill="#bfbfbf" stroke="black" points="172.24,-660.5 172.24,-679.5 311.24,-679.5 311.24,-660.5 172.24,-660.5"/>
<text text-anchor="middle" x="241.74" y="-667.5" font-family="FreeSans.ttf" font-size="10.00">AttitudeMahonyFilter.cpp</text>
</a>
</g>
</g>
<!-- Node2 -->
<g id="node2" class="node">
<title>Node2</title>
<g id="a_node2"><a xlink:href="AttitudeMahonyFilter_8h.html" target="_top" xlink:title=" ">
<polygon fill="none" stroke="black" points="30.24,-403.5 30.24,-433.5 161.24,-433.5 161.24,-403.5 30.24,-403.5"/>
<text text-anchor="start" x="38.24" y="-421.5" font-family="FreeSans.ttf" font-size="10.00">iDynTree/Estimation</text>
<text text-anchor="middle" x="95.74" y="-410.5" font-family="FreeSans.ttf" font-size="10.00">/AttitudeMahonyFilter.h</text>
</a>
</g>
</g>
<!-- Node1&#45;&gt;Node2 -->
<g id="edge1" class="edge">
<title>Node1&#45;&gt;Node2</title>
<path fill="none" stroke="midnightblue" d="M217.46,-660.41C200.24,-653.17 177.77,-641.2 163.74,-624 119.33,-569.56 103.48,-484.95 98.19,-443.73"/>
<polygon fill="midnightblue" stroke="midnightblue" points="101.64,-443.06 96.99,-433.54 94.68,-443.88 101.64,-443.06"/>
</g>
<!-- Node27 -->
<g id="node27" class="node">
<title>Node27</title>
<g id="a_node27"><a xlink:href="AttitudeEstimatorUtils_8h.html" target="_top" xlink:title=" ">
<polygon fill="none" stroke="black" points="173.24,-593.5 173.24,-623.5 310.24,-623.5 310.24,-593.5 173.24,-593.5"/>
<text text-anchor="start" x="181.24" y="-611.5" font-family="FreeSans.ttf" font-size="10.00">iDynTree/Estimation</text>
<text text-anchor="middle" x="241.74" y="-600.5" font-family="FreeSans.ttf" font-size="10.00">/AttitudeEstimatorUtils.h</text>
</a>
</g>
</g>
<!-- Node1&#45;&gt;Node27 -->
<g id="edge46" class="edge">
<title>Node1&#45;&gt;Node27</title>
<path fill="none" stroke="midnightblue" d="M241.74,-660.48C241.74,-653.47 241.74,-643.19 241.74,-633.7"/>
<polygon fill="midnightblue" stroke="midnightblue" points="245.24,-633.52 241.74,-623.52 238.24,-633.52 245.24,-633.52"/>
</g>
<!-- Node40 -->
<g id="node40" class="node">
<title>Node40</title>
<g id="a_node40"><a xlink:title=" ">
<polygon fill="none" stroke="#bfbfbf" points="328.74,-599 328.74,-618 372.74,-618 372.74,-599 328.74,-599"/>
<text text-anchor="middle" x="350.74" y="-606" font-family="FreeSans.ttf" font-size="10.00">ctime</text>
</a>
</g>
</g>
<!-- Node1&#45;&gt;Node40 -->
<g id="edge86" class="edge">
<title>Node1&#45;&gt;Node40</title>
<path fill="none" stroke="midnightblue" d="M257.36,-660.48C275.32,-650.67 305.06,-634.43 326.15,-622.92"/>
<polygon fill="midnightblue" stroke="midnightblue" points="328.05,-625.87 335.15,-618.01 324.7,-619.73 328.05,-625.87"/>
</g>
<!-- Node3 -->
<g id="node3" class="node">
<title>Node3</title>
<g id="a_node3"><a xlink:href="AttitudeEstimator_8h.html" target="_top" xlink:title=" ">
<polygon fill="none" stroke="black" points="132.24,-336.5 132.24,-366.5 247.24,-366.5 247.24,-336.5 132.24,-336.5"/>
<text text-anchor="start" x="140.24" y="-354.5" font-family="FreeSans.ttf" font-size="10.00">iDynTree/Estimation</text>
<text text-anchor="middle" x="189.74" y="-343.5" font-family="FreeSans.ttf" font-size="10.00">/AttitudeEstimator.h</text>
</a>
</g>
</g>
<!-- Node2&#45;&gt;Node3 -->
<g id="edge2" class="edge">
<title>Node2&#45;&gt;Node3</title>
<path fill="none" stroke="midnightblue" d="M116.14,-403.4C129.19,-394.37 146.33,-382.51 160.79,-372.52"/>
<polygon fill="midnightblue" stroke="midnightblue" points="163.15,-375.14 169.38,-366.58 159.17,-369.39 163.15,-375.14"/>
</g>
<!-- Node26 -->
<g id="node26" class="node">
<title>Node26</title>
<g id="a_node26"><a xlink:href="Direction_8h.html" target="_top" xlink:title=" ">
<polygon fill="none" stroke="black" points="106.24,-224.5 106.24,-243.5 247.24,-243.5 247.24,-224.5 106.24,-224.5"/>
<text text-anchor="middle" x="176.74" y="-231.5" font-family="FreeSans.ttf" font-size="10.00">iDynTree/Core/Direction.h</text>
</a>
</g>
</g>
<!-- Node2&#45;&gt;Node26 -->
<g id="edge42" class="edge">
<title>Node2&#45;&gt;Node26</title>
<path fill="none" stroke="midnightblue" d="M99.62,-403.39C104.32,-386.92 112.86,-359.01 122.74,-336 135.75,-305.68 154.59,-272.22 166.23,-252.44"/>
<polygon fill="midnightblue" stroke="midnightblue" points="169.34,-254.05 171.45,-243.67 163.33,-250.47 169.34,-254.05"/>
</g>
<!-- Node4 -->
<g id="node4" class="node">
<title>Node4</title>
<g id="a_node4"><a xlink:href="VectorFixSize_8h.html" target="_top" xlink:title=" ">
<polygon fill="none" stroke="black" points="538.74,-168.5 538.74,-187.5 700.74,-187.5 700.74,-168.5 538.74,-168.5"/>
<text text-anchor="middle" x="619.74" y="-175.5" font-family="FreeSans.ttf" font-size="10.00">iDynTree/Core/VectorFixSize.h</text>
</a>
</g>
</g>
<!-- Node3&#45;&gt;Node4 -->
<g id="edge3" class="edge">
<title>Node3&#45;&gt;Node4</title>
<path fill="none" stroke="midnightblue" d="M205.32,-336.49C235.71,-310 306.02,-252.64 375.74,-224 424.09,-204.14 481.42,-192.99 528.36,-186.77"/>
<polygon fill="midnightblue" stroke="midnightblue" points="529.04,-190.21 538.52,-185.47 528.16,-183.26 529.04,-190.21"/>
</g>
<!-- Node20 -->
<g id="node20" class="node">
<title>Node20</title>
<g id="a_node20"><a xlink:href="Rotation_8h.html" target="_top" xlink:title=" ">
<polygon fill="none" stroke="black" points="675.74,-280.5 675.74,-299.5 813.74,-299.5 813.74,-280.5 675.74,-280.5"/>
<text text-anchor="middle" x="744.74" y="-287.5" font-family="FreeSans.ttf" font-size="10.00">iDynTree/Core/Rotation.h</text>
</a>
</g>
</g>
<!-- Node3&#45;&gt;Node20 -->
<g id="edge22" class="edge">
<title>Node3&#45;&gt;Node20</title>
<path fill="none" stroke="midnightblue" d="M247.3,-344.33C347.03,-333.64 552.1,-311.65 665.31,-299.52"/>
<polygon fill="midnightblue" stroke="midnightblue" points="665.73,-302.99 675.3,-298.44 664.98,-296.03 665.73,-302.99"/>
</g>
<!-- Node25 -->
<g id="node25" class="node">
<title>Node25</title>
<g id="a_node25"><a xlink:title=" ">
<polygon fill="none" stroke="#bfbfbf" points="283.74,-112.5 283.74,-131.5 343.74,-131.5 343.74,-112.5 283.74,-112.5"/>
<text text-anchor="middle" x="313.74" y="-119.5" font-family="FreeSans.ttf" font-size="10.00">iostream</text>
</a>
</g>
</g>
<!-- Node3&#45;&gt;Node25 -->
<g id="edge41" class="edge">
<title>Node3&#45;&gt;Node25</title>
<path fill="none" stroke="midnightblue" d="M165.7,-336.33C129.94,-313.39 69.7,-266.41 96.74,-224 135.72,-162.86 222.37,-138.15 273.6,-128.6"/>
<polygon fill="midnightblue" stroke="midnightblue" points="274.41,-132.02 283.65,-126.84 273.2,-125.12 274.41,-132.02"/>
</g>
<!-- Node5 -->
<g id="node5" class="node">
<title>Node5</title>
<g id="a_node5"><a xlink:href="Utils_8h.html" target="_top" xlink:title=" ">
<polygon fill="none" stroke="black" points="483.24,-56.5 483.24,-75.5 602.24,-75.5 602.24,-56.5 483.24,-56.5"/>
<text text-anchor="middle" x="542.74" y="-63.5" font-family="FreeSans.ttf" font-size="10.00">iDynTree/Core/Utils.h</text>
</a>
</g>
</g>
<!-- Node4&#45;&gt;Node5 -->
<g id="edge4" class="edge">
<title>Node4&#45;&gt;Node5</title>
<path fill="none" stroke="midnightblue" d="M613.7,-168.37C600.99,-150.22 571.3,-107.8 554.63,-83.99"/>
<polygon fill="midnightblue" stroke="midnightblue" points="557.35,-81.78 548.75,-75.59 551.62,-85.79 557.35,-81.78"/>
</g>
<!-- Node6 -->
<g id="node6" class="node">
<title>Node6</title>
<g id="a_node6"><a xlink:title=" ">
<polygon fill="none" stroke="#bfbfbf" points="811.24,-0.5 811.24,-19.5 864.24,-19.5 864.24,-0.5 811.24,-0.5"/>
<text text-anchor="middle" x="837.74" y="-7.5" font-family="FreeSans.ttf" font-size="10.00">cstddef</text>
</a>
</g>
</g>
<!-- Node4&#45;&gt;Node6 -->
<g id="edge20" class="edge">
<title>Node4&#45;&gt;Node6</title>
<path fill="none" stroke="midnightblue" d="M619.5,-168.2C619.41,-145.96 622.4,-87.05 654.74,-56 675.42,-36.14 753.54,-22.38 800.77,-15.68"/>
<polygon fill="midnightblue" stroke="midnightblue" points="801.49,-19.11 810.92,-14.28 800.53,-12.18 801.49,-19.11"/>
</g>
<!-- Node8 -->
<g id="node8" class="node">
<title>Node8</title>
<g id="a_node8"><a xlink:href="Span_8h.html" target="_top" xlink:title=" ">
<polygon fill="none" stroke="black" points="1253.24,-56.5 1253.24,-75.5 1374.24,-75.5 1374.24,-56.5 1253.24,-56.5"/>
<text text-anchor="middle" x="1313.74" y="-63.5" font-family="FreeSans.ttf" font-size="10.00">iDynTree/Core/Span.h</text>
</a>
</g>
</g>
<!-- Node4&#45;&gt;Node8 -->
<g id="edge7" class="edge">
<title>Node4&#45;&gt;Node8</title>
<path fill="none" stroke="midnightblue" d="M646.03,-168.46C690.27,-154.43 782.61,-126.61 862.74,-112 995.98,-87.7 1153.92,-75.73 1243.12,-70.5"/>
<polygon fill="midnightblue" stroke="midnightblue" points="1243.34,-73.99 1253.12,-69.93 1242.94,-67.01 1243.34,-73.99"/>
</g>
<!-- Node9 -->
<g id="node9" class="node">
<title>Node9</title>
<g id="a_node9"><a xlink:title=" ">
<polygon fill="none" stroke="#bfbfbf" points="1084.74,-0.5 1084.74,-19.5 1136.74,-19.5 1136.74,-0.5 1084.74,-0.5"/>
<text text-anchor="middle" x="1110.74" y="-7.5" font-family="FreeSans.ttf" font-size="10.00">cassert</text>
</a>
</g>
</g>
<!-- Node4&#45;&gt;Node9 -->
<g id="edge19" class="edge">
<title>Node4&#45;&gt;Node9</title>
<path fill="none" stroke="midnightblue" d="M626.23,-168.34C637.25,-154.26 661.06,-126.53 687.74,-112 818.2,-40.96 997.98,-19.46 1074.21,-13.31"/>
<polygon fill="midnightblue" stroke="midnightblue" points="1074.56,-16.79 1084.27,-12.54 1074.03,-9.81 1074.56,-16.79"/>
</g>
<!-- Node17 -->
<g id="node17" class="node">
<title>Node17</title>
<g id="a_node17"><a xlink:title=" ">
<polygon fill="none" stroke="#bfbfbf" points="960.74,-112.5 960.74,-131.5 1004.74,-131.5 1004.74,-112.5 960.74,-112.5"/>
<text text-anchor="middle" x="982.74" y="-119.5" font-family="FreeSans.ttf" font-size="10.00">string</text>
</a>
</g>
</g>
<!-- Node4&#45;&gt;Node17 -->
<g id="edge17" class="edge">
<title>Node4&#45;&gt;Node17</title>
<path fill="none" stroke="midnightblue" d="M682.07,-168.5C744.91,-159.8 844.67,-145.67 930.74,-132 937.15,-130.98 944,-129.84 950.55,-128.71"/>
<polygon fill="midnightblue" stroke="midnightblue" points="951.24,-132.15 960.49,-126.99 950.04,-125.25 951.24,-132.15"/>
</g>
<!-- Node18 -->
<g id="node18" class="node">
<title>Node18</title>
<g id="a_node18"><a xlink:title=" ">
<polygon fill="none" stroke="#bfbfbf" points="696.74,-112.5 696.74,-131.5 752.74,-131.5 752.74,-112.5 696.74,-112.5"/>
<text text-anchor="middle" x="724.74" y="-119.5" font-family="FreeSans.ttf" font-size="10.00">sstream</text>
</a>
</g>
</g>
<!-- Node4&#45;&gt;Node18 -->
<g id="edge18" class="edge">
<title>Node4&#45;&gt;Node18</title>
<path fill="none" stroke="midnightblue" d="M636.61,-168.32C653.45,-159.66 679.55,-146.24 698.98,-136.25"/>
<polygon fill="midnightblue" stroke="midnightblue" points="700.62,-139.34 707.91,-131.65 697.42,-133.12 700.62,-139.34"/>
</g>
<!-- Node19 -->
<g id="node19" class="node">
<title>Node19</title>
<g id="a_node19"><a xlink:title=" ">
<polygon fill="none" stroke="#bfbfbf" points="871.74,-112.5 871.74,-131.5 921.74,-131.5 921.74,-112.5 871.74,-112.5"/>
<text text-anchor="middle" x="896.74" y="-119.5" font-family="FreeSans.ttf" font-size="10.00">cstring</text>
</a>
</g>
</g>
<!-- Node4&#45;&gt;Node19 -->
<g id="edge21" class="edge">
<title>Node4&#45;&gt;Node19</title>
<path fill="none" stroke="midnightblue" d="M663.63,-168.44C718.46,-157.75 811.19,-139.68 861.59,-129.85"/>
<polygon fill="midnightblue" stroke="midnightblue" points="862.52,-133.24 871.67,-127.89 861.18,-126.37 862.52,-133.24"/>
</g>
<!-- Node5&#45;&gt;Node6 -->
<g id="edge5" class="edge">
<title>Node5&#45;&gt;Node6</title>
<path fill="none" stroke="midnightblue" d="M589.48,-56.44C648.12,-45.71 747.46,-27.53 800.97,-17.73"/>
<polygon fill="midnightblue" stroke="midnightblue" points="801.83,-21.13 811.04,-15.89 800.57,-14.25 801.83,-21.13"/>
</g>
<!-- Node7 -->
<g id="node7" class="node">
<title>Node7</title>
<g id="a_node7"><a xlink:title=" ">
<polygon fill="none" stroke="#bfbfbf" points="502.74,-0.5 502.74,-19.5 582.74,-19.5 582.74,-0.5 502.74,-0.5"/>
<text text-anchor="middle" x="542.74" y="-7.5" font-family="FreeSans.ttf" font-size="10.00">CoreExport.h</text>
</a>
</g>
</g>
<!-- Node5&#45;&gt;Node7 -->
<g id="edge6" class="edge">
<title>Node5&#45;&gt;Node7</title>
<path fill="none" stroke="midnightblue" d="M542.74,-56.08C542.74,-49.01 542.74,-38.86 542.74,-29.99"/>
<polygon fill="midnightblue" stroke="midnightblue" points="546.24,-29.75 542.74,-19.75 539.24,-29.75 546.24,-29.75"/>
</g>
<!-- Node8&#45;&gt;Node6 -->
<g id="edge11" class="edge">
<title>Node8&#45;&gt;Node6</title>
<path fill="none" stroke="midnightblue" d="M1252.97,-58.11C1152.83,-46.75 956.11,-24.43 874.53,-15.17"/>
<polygon fill="midnightblue" stroke="midnightblue" points="874.59,-11.66 864.26,-14.01 873.8,-18.61 874.59,-11.66"/>
</g>
<!-- Node8&#45;&gt;Node9 -->
<g id="edge8" class="edge">
<title>Node8&#45;&gt;Node9</title>
<path fill="none" stroke="midnightblue" d="M1281.57,-56.44C1244.83,-46.67 1184.88,-30.72 1146.64,-20.55"/>
<polygon fill="midnightblue" stroke="midnightblue" points="1147.51,-17.16 1136.94,-17.97 1145.71,-23.92 1147.51,-17.16"/>
</g>
<!-- Node10 -->
<g id="node10" class="node">
<title>Node10</title>
<g id="a_node10"><a xlink:title=" ">
<polygon fill="none" stroke="#bfbfbf" points="1388.74,-0.5 1388.74,-19.5 1452.74,-19.5 1452.74,-0.5 1388.74,-0.5"/>
<text text-anchor="middle" x="1420.74" y="-7.5" font-family="FreeSans.ttf" font-size="10.00">algorithm</text>
</a>
</g>
</g>
<!-- Node8&#45;&gt;Node10 -->
<g id="edge9" class="edge">
<title>Node8&#45;&gt;Node10</title>
<path fill="none" stroke="midnightblue" d="M1330.93,-56.32C1348.09,-47.66 1374.68,-34.24 1394.49,-24.25"/>
<polygon fill="midnightblue" stroke="midnightblue" points="1396.24,-27.28 1403.59,-19.65 1393.09,-21.04 1396.24,-27.28"/>
</g>
<!-- Node11 -->
<g id="node11" class="node">
<title>Node11</title>
<g id="a_node11"><a xlink:title=" ">
<polygon fill="none" stroke="#bfbfbf" points="1470.74,-0.5 1470.74,-19.5 1512.74,-19.5 1512.74,-0.5 1470.74,-0.5"/>
<text text-anchor="middle" x="1491.74" y="-7.5" font-family="FreeSans.ttf" font-size="10.00">array</text>
</a>
</g>
</g>
<!-- Node8&#45;&gt;Node11 -->
<g id="edge10" class="edge">
<title>Node8&#45;&gt;Node11</title>
<path fill="none" stroke="midnightblue" d="M1341.94,-56.44C1374.37,-46.61 1427.42,-30.51 1460.91,-20.35"/>
<polygon fill="midnightblue" stroke="midnightblue" points="1462.08,-23.66 1470.63,-17.4 1460.05,-16.96 1462.08,-23.66"/>
</g>
<!-- Node12 -->
<g id="node12" class="node">
<title>Node12</title>
<g id="a_node12"><a xlink:title=" ">
<polygon fill="none" stroke="#bfbfbf" points="1531.24,-0.5 1531.24,-19.5 1584.24,-19.5 1584.24,-0.5 1531.24,-0.5"/>
<text text-anchor="middle" x="1557.74" y="-7.5" font-family="FreeSans.ttf" font-size="10.00">iterator</text>
</a>
</g>
</g>
<!-- Node8&#45;&gt;Node12 -->
<g id="edge12" class="edge">
<title>Node8&#45;&gt;Node12</title>
<path fill="none" stroke="midnightblue" d="M1355.26,-56.42C1395.26,-48.07 1457.7,-34.8 1521.23,-20.06"/>
<polygon fill="midnightblue" stroke="midnightblue" points="1522.08,-23.46 1531.03,-17.78 1520.49,-16.64 1522.08,-23.46"/>
</g>
<!-- Node13 -->
<g id="node13" class="node">
<title>Node13</title>
<g id="a_node13"><a xlink:title=" ">
<polygon fill="none" stroke="#bfbfbf" points="1602.74,-0.5 1602.74,-19.5 1646.74,-19.5 1646.74,-0.5 1602.74,-0.5"/>
<text text-anchor="middle" x="1624.74" y="-7.5" font-family="FreeSans.ttf" font-size="10.00">limits</text>
</a>
</g>
</g>
<!-- Node8&#45;&gt;Node13 -->
<g id="edge13" class="edge">
<title>Node8&#45;&gt;Node13</title>
<path fill="none" stroke="midnightblue" d="M1374.5,-57.43C1429.27,-50.12 1512.14,-37.81 1592.67,-20.02"/>
<polygon fill="midnightblue" stroke="midnightblue" points="1593.48,-23.42 1602.47,-17.82 1591.95,-16.59 1593.48,-23.42"/>
</g>
<!-- Node14 -->
<g id="node14" class="node">
<title>Node14</title>
<g id="a_node14"><a xlink:title=" ">
<polygon fill="none" stroke="#bfbfbf" points="1242.24,-0.5 1242.24,-19.5 1307.24,-19.5 1307.24,-0.5 1242.24,-0.5"/>
<text text-anchor="middle" x="1274.74" y="-7.5" font-family="FreeSans.ttf" font-size="10.00">stdexcept</text>
</a>
</g>
</g>
<!-- Node8&#45;&gt;Node14 -->
<g id="edge14" class="edge">
<title>Node8&#45;&gt;Node14</title>
<path fill="none" stroke="midnightblue" d="M1307.3,-56.08C1301.79,-48.46 1293.71,-37.26 1286.97,-27.94"/>
<polygon fill="midnightblue" stroke="midnightblue" points="1289.75,-25.81 1281.06,-19.75 1284.08,-29.91 1289.75,-25.81"/>
</g>
<!-- Node15 -->
<g id="node15" class="node">
<title>Node15</title>
<g id="a_node15"><a xlink:title=" ">
<polygon fill="none" stroke="#bfbfbf" points="1155.24,-0.5 1155.24,-19.5 1224.24,-19.5 1224.24,-0.5 1155.24,-0.5"/>
<text text-anchor="middle" x="1189.74" y="-7.5" font-family="FreeSans.ttf" font-size="10.00">type_traits</text>
</a>
</g>
</g>
<!-- Node8&#45;&gt;Node15 -->
<g id="edge15" class="edge">
<title>Node8&#45;&gt;Node15</title>
<path fill="none" stroke="midnightblue" d="M1294.09,-56.44C1273.77,-47.6 1241.84,-33.69 1218.64,-23.59"/>
<polygon fill="midnightblue" stroke="midnightblue" points="1219.86,-20.3 1209.3,-19.52 1217.07,-26.72 1219.86,-20.3"/>
</g>
<!-- Node16 -->
<g id="node16" class="node">
<title>Node16</title>
<g id="a_node16"><a xlink:title=" ">
<polygon fill="none" stroke="#bfbfbf" points="1325.24,-0.5 1325.24,-19.5 1370.24,-19.5 1370.24,-0.5 1325.24,-0.5"/>
<text text-anchor="middle" x="1347.74" y="-7.5" font-family="FreeSans.ttf" font-size="10.00">utility</text>
</a>
</g>
</g>
<!-- Node8&#45;&gt;Node16 -->
<g id="edge16" class="edge">
<title>Node8&#45;&gt;Node16</title>
<path fill="none" stroke="midnightblue" d="M1319.35,-56.08C1324.11,-48.53 1331.06,-37.49 1336.89,-28.23"/>
<polygon fill="midnightblue" stroke="midnightblue" points="1339.86,-30.08 1342.23,-19.75 1333.94,-26.35 1339.86,-30.08"/>
</g>
<!-- Node20&#45;&gt;Node4 -->
<g id="edge40" class="edge">
<title>Node20&#45;&gt;Node4</title>
<path fill="none" stroke="midnightblue" d="M734.93,-280.37C713.85,-261.81 663.96,-217.91 637.28,-194.44"/>
<polygon fill="midnightblue" stroke="midnightblue" points="639.32,-191.57 629.5,-187.59 634.7,-196.83 639.32,-191.57"/>
</g>
<!-- Node20&#45;&gt;Node17 -->
<g id="edge23" class="edge">
<title>Node20&#45;&gt;Node17</title>
<path fill="none" stroke="midnightblue" d="M741.48,-280.14C737.18,-266.75 731.37,-241.12 742.74,-224 766.91,-187.6 891.43,-148.58 950.97,-131.65"/>
<polygon fill="midnightblue" stroke="midnightblue" points="951.93,-135.02 960.61,-128.94 950.04,-128.28 951.93,-135.02"/>
</g>
<!-- Node21 -->
<g id="node21" class="node">
<title>Node21</title>
<g id="a_node21"><a xlink:href="GeomVector3_8h.html" target="_top" xlink:title=" ">
<polygon fill="none" stroke="black" points="418.24,-224.5 418.24,-243.5 581.24,-243.5 581.24,-224.5 418.24,-224.5"/>
<text text-anchor="middle" x="499.74" y="-231.5" font-family="FreeSans.ttf" font-size="10.00">iDynTree/Core/GeomVector3.h</text>
</a>
</g>
</g>
<!-- Node20&#45;&gt;Node21 -->
<g id="edge24" class="edge">
<title>Node20&#45;&gt;Node21</title>
<path fill="none" stroke="midnightblue" d="M705.92,-280.44C663.18,-271.02 594.41,-255.87 548.17,-245.68"/>
<polygon fill="midnightblue" stroke="midnightblue" points="548.9,-242.25 538.38,-243.52 547.39,-249.09 548.9,-242.25"/>
</g>
<!-- Node22 -->
<g id="node22" class="node">
<title>Node22</title>
<g id="a_node22"><a xlink:href="RotationRaw_8h.html" target="_top" xlink:title=" ">
<polygon fill="none" stroke="black" points="925.74,-224.5 925.74,-243.5 1083.74,-243.5 1083.74,-224.5 925.74,-224.5"/>
<text text-anchor="middle" x="1004.74" y="-231.5" font-family="FreeSans.ttf" font-size="10.00">iDynTree/Core/RotationRaw.h</text>
</a>
</g>
</g>
<!-- Node20&#45;&gt;Node22 -->
<g id="edge26" class="edge">
<title>Node20&#45;&gt;Node22</title>
<path fill="none" stroke="midnightblue" d="M785.94,-280.44C831.39,-271 904.58,-255.8 953.65,-245.61"/>
<polygon fill="midnightblue" stroke="midnightblue" points="954.65,-248.98 963.73,-243.52 953.23,-242.12 954.65,-248.98"/>
</g>
<!-- Node21&#45;&gt;Node4 -->
<g id="edge25" class="edge">
<title>Node21&#45;&gt;Node4</title>
<path fill="none" stroke="midnightblue" d="M518.75,-224.44C538.33,-215.64 569.05,-201.81 591.47,-191.72"/>
<polygon fill="midnightblue" stroke="midnightblue" points="593.13,-194.81 600.81,-187.52 590.26,-188.43 593.13,-194.81"/>
</g>
<!-- Node22&#45;&gt;Node17 -->
<g id="edge39" class="edge">
<title>Node22&#45;&gt;Node17</title>
<path fill="none" stroke="midnightblue" d="M1001.88,-224.47C998.96,-215.48 994.48,-200.89 991.74,-188 988.48,-172.66 986.12,-155.02 984.64,-141.99"/>
<polygon fill="midnightblue" stroke="midnightblue" points="988.1,-141.47 983.56,-131.9 981.14,-142.22 988.1,-141.47"/>
</g>
<!-- Node23 -->
<g id="node23" class="node">
<title>Node23</title>
<g id="a_node23"><a xlink:href="MatrixFixSize_8h.html" target="_top" xlink:title=" ">
<polygon fill="none" stroke="black" points="1034.24,-168.5 1034.24,-187.5 1197.24,-187.5 1197.24,-168.5 1034.24,-168.5"/>
<text text-anchor="middle" x="1115.74" y="-175.5" font-family="FreeSans.ttf" font-size="10.00">iDynTree/Core/MatrixFixSize.h</text>
</a>
</g>
</g>
<!-- Node22&#45;&gt;Node23 -->
<g id="edge27" class="edge">
<title>Node22&#45;&gt;Node23</title>
<path fill="none" stroke="midnightblue" d="M1022.57,-224.32C1040.45,-215.62 1068.21,-202.12 1088.78,-192.11"/>
<polygon fill="midnightblue" stroke="midnightblue" points="1090.49,-195.18 1097.95,-187.65 1087.43,-188.88 1090.49,-195.18"/>
</g>
<!-- Node23&#45;&gt;Node5 -->
<g id="edge28" class="edge">
<title>Node23&#45;&gt;Node5</title>
<path fill="none" stroke="midnightblue" d="M1105.87,-168.4C1088.58,-153.88 1051.07,-124.84 1013.74,-112 941.43,-87.13 725.16,-74.63 612.58,-69.66"/>
<polygon fill="midnightblue" stroke="midnightblue" points="612.49,-66.16 602.35,-69.22 612.19,-73.15 612.49,-66.16"/>
</g>
<!-- Node23&#45;&gt;Node9 -->
<g id="edge34" class="edge">
<title>Node23&#45;&gt;Node9</title>
<path fill="none" stroke="midnightblue" d="M1115.47,-168.08C1114.68,-141.95 1112.37,-65.21 1111.3,-29.58"/>
<polygon fill="midnightblue" stroke="midnightblue" points="1114.8,-29.46 1111,-19.57 1107.8,-29.67 1114.8,-29.46"/>
</g>
<!-- Node23&#45;&gt;Node17 -->
<g id="edge36" class="edge">
<title>Node23&#45;&gt;Node17</title>
<path fill="none" stroke="midnightblue" d="M1094.66,-168.44C1072.68,-159.52 1038,-145.44 1013.07,-135.32"/>
<polygon fill="midnightblue" stroke="midnightblue" points="1014.3,-132.04 1003.71,-131.52 1011.66,-138.52 1014.3,-132.04"/>
</g>
<!-- Node23&#45;&gt;Node18 -->
<g id="edge38" class="edge">
<title>Node23&#45;&gt;Node18</title>
<path fill="none" stroke="midnightblue" d="M1053.78,-168.44C972.23,-157.18 831.28,-137.71 763.43,-128.34"/>
<polygon fill="midnightblue" stroke="midnightblue" points="763.58,-124.83 753.19,-126.93 762.62,-131.76 763.58,-124.83"/>
</g>
<!-- Node23&#45;&gt;Node19 -->
<g id="edge35" class="edge">
<title>Node23&#45;&gt;Node19</title>
<path fill="none" stroke="midnightblue" d="M1081.04,-168.44C1040.12,-158.35 972.51,-141.68 931.55,-131.58"/>
<polygon fill="midnightblue" stroke="midnightblue" points="932.29,-128.16 921.74,-129.16 930.61,-134.96 932.29,-128.16"/>
</g>
<!-- Node24 -->
<g id="node24" class="node">
<title>Node24</title>
<g id="a_node24"><a xlink:href="MatrixView_8h.html" target="_top" xlink:title=" ">
<polygon fill="none" stroke="black" points="1181.74,-112.5 1181.74,-131.5 1333.74,-131.5 1333.74,-112.5 1181.74,-112.5"/>
<text text-anchor="middle" x="1257.74" y="-119.5" font-family="FreeSans.ttf" font-size="10.00">iDynTree/Core/MatrixView.h</text>
</a>
</g>
</g>
<!-- Node23&#45;&gt;Node24 -->
<g id="edge29" class="edge">
<title>Node23&#45;&gt;Node24</title>
<path fill="none" stroke="midnightblue" d="M1138.24,-168.44C1161.82,-159.48 1199.06,-145.31 1225.7,-135.18"/>
<polygon fill="midnightblue" stroke="midnightblue" points="1227.24,-138.34 1235.34,-131.52 1224.75,-131.8 1227.24,-138.34"/>
</g>
<!-- Node23&#45;&gt;Node25 -->
<g id="edge37" class="edge">
<title>Node23&#45;&gt;Node25</title>
<path fill="none" stroke="midnightblue" d="M1034.05,-171.5C864.55,-160.09 479.95,-134.19 354.29,-125.73"/>
<polygon fill="midnightblue" stroke="midnightblue" points="354.19,-122.22 343.97,-125.04 353.72,-129.2 354.19,-122.22"/>
</g>
<!-- Node24&#45;&gt;Node5 -->
<g id="edge33" class="edge">
<title>Node24&#45;&gt;Node5</title>
<path fill="none" stroke="midnightblue" d="M1181.56,-115.25C1041.98,-104.71 747.23,-82.44 612.54,-72.27"/>
<polygon fill="midnightblue" stroke="midnightblue" points="612.58,-68.76 602.35,-71.5 612.05,-75.75 612.58,-68.76"/>
</g>
<!-- Node24&#45;&gt;Node8 -->
<g id="edge32" class="edge">
<title>Node24&#45;&gt;Node8</title>
<path fill="none" stroke="midnightblue" d="M1266.74,-112.32C1274.93,-104.42 1287.24,-92.55 1297.21,-82.94"/>
<polygon fill="midnightblue" stroke="midnightblue" points="1299.81,-85.29 1304.58,-75.83 1294.95,-80.26 1299.81,-85.29"/>
</g>
<!-- Node24&#45;&gt;Node9 -->
<g id="edge30" class="edge">
<title>Node24&#45;&gt;Node9</title>
<path fill="none" stroke="midnightblue" d="M1246.2,-112.37C1221.19,-93.65 1161.72,-49.15 1130.56,-25.83"/>
<polygon fill="midnightblue" stroke="midnightblue" points="1132.32,-22.78 1122.22,-19.59 1128.13,-28.39 1132.32,-22.78"/>
</g>
<!-- Node24&#45;&gt;Node15 -->
<g id="edge31" class="edge">
<title>Node24&#45;&gt;Node15</title>
<path fill="none" stroke="midnightblue" d="M1252.4,-112.37C1241.23,-94.3 1215.19,-52.18 1200.44,-28.31"/>
<polygon fill="midnightblue" stroke="midnightblue" points="1203.29,-26.26 1195.05,-19.59 1197.33,-29.94 1203.29,-26.26"/>
</g>
<!-- Node26&#45;&gt;Node4 -->
<g id="edge44" class="edge">
<title>Node26&#45;&gt;Node4</title>
<path fill="none" stroke="midnightblue" d="M246.93,-224.44C326.64,-214.73 456.43,-198.91 539.93,-188.73"/>
<polygon fill="midnightblue" stroke="midnightblue" points="540.37,-192.2 549.87,-187.52 539.52,-185.25 540.37,-192.2"/>
</g>
<!-- Node26&#45;&gt;Node5 -->
<g id="edge45" class="edge">
<title>Node26&#45;&gt;Node5</title>
<path fill="none" stroke="midnightblue" d="M180.82,-224.5C192.16,-201.91 226.41,-140.2 274.74,-112 307.54,-92.86 405.07,-80 472.95,-73.09"/>
<polygon fill="midnightblue" stroke="midnightblue" points="473.55,-76.54 483.15,-72.07 472.85,-69.58 473.55,-76.54"/>
</g>
<!-- Node26&#45;&gt;Node17 -->
<g id="edge43" class="edge">
<title>Node26&#45;&gt;Node17</title>
<path fill="none" stroke="midnightblue" d="M216.25,-224.49C281.31,-210.75 415.21,-183.65 529.74,-168 707.03,-143.77 753.32,-155.28 930.74,-132 937.18,-131.16 944.04,-130.09 950.59,-128.99"/>
<polygon fill="midnightblue" stroke="midnightblue" points="951.28,-132.42 960.53,-127.26 950.08,-125.52 951.28,-132.42"/>
</g>
<!-- Node27&#45;&gt;Node3 -->
<g id="edge47" class="edge">
<title>Node27&#45;&gt;Node3</title>
<path fill="none" stroke="midnightblue" d="M229.88,-593.48C222.45,-583.86 213.43,-570.45 208.74,-557 187.04,-494.82 186.76,-415.91 188.29,-376.78"/>
<polygon fill="midnightblue" stroke="midnightblue" points="191.79,-376.78 188.76,-366.63 184.8,-376.45 191.79,-376.78"/>
</g>
<!-- Node28 -->
<g id="node28" class="node">
<title>Node28</title>
<g id="a_node28"><a xlink:href="EigenHelpers_8h.html" target="_top" xlink:title=" ">
<polygon fill="none" stroke="black" points="981.24,-537.5 981.24,-556.5 1142.24,-556.5 1142.24,-537.5 981.24,-537.5"/>
<text text-anchor="middle" x="1061.74" y="-544.5" font-family="FreeSans.ttf" font-size="10.00">iDynTree/Core/EigenHelpers.h</text>
</a>
</g>
</g>
<!-- Node27&#45;&gt;Node28 -->
<g id="edge48" class="edge">
<title>Node27&#45;&gt;Node28</title>
<path fill="none" stroke="midnightblue" d="M310.57,-594.23C313.66,-593.78 316.73,-593.37 319.74,-593 553.27,-564.32 830.5,-553.67 970.75,-549.91"/>
<polygon fill="midnightblue" stroke="midnightblue" points="971.11,-553.4 981.02,-549.64 970.93,-546.4 971.11,-553.4"/>
</g>
<!-- Node38 -->
<g id="node38" class="node">
<title>Node38</title>
<g id="a_node38"><a xlink:title=" ">
<polygon fill="none" stroke="#bfbfbf" points="218.24,-537.5 218.24,-556.5 265.24,-556.5 265.24,-537.5 218.24,-537.5"/>
<text text-anchor="middle" x="241.74" y="-544.5" font-family="FreeSans.ttf" font-size="10.00">cmath</text>
</a>
</g>
</g>
<!-- Node27&#45;&gt;Node38 -->
<g id="edge84" class="edge">
<title>Node27&#45;&gt;Node38</title>
<path fill="none" stroke="midnightblue" d="M241.74,-593.4C241.74,-585.47 241.74,-575.46 241.74,-566.86"/>
<polygon fill="midnightblue" stroke="midnightblue" points="245.24,-566.66 241.74,-556.66 238.24,-566.66 245.24,-566.66"/>
</g>
<!-- Node39 -->
<g id="node39" class="node">
<title>Node39</title>
<g id="a_node39"><a xlink:title=" ">
<polygon fill="none" stroke="#bfbfbf" points="283.24,-537.5 283.24,-556.5 330.24,-556.5 330.24,-537.5 283.24,-537.5"/>
<text text-anchor="middle" x="306.74" y="-544.5" font-family="FreeSans.ttf" font-size="10.00">vector</text>
</a>
</g>
</g>
<!-- Node27&#45;&gt;Node39 -->
<g id="edge85" class="edge">
<title>Node27&#45;&gt;Node39</title>
<path fill="none" stroke="midnightblue" d="M257.14,-593.4C266.98,-584.4 279.73,-572.72 289.84,-563.47"/>
<polygon fill="midnightblue" stroke="midnightblue" points="292.27,-565.99 297.28,-556.66 287.54,-560.83 292.27,-565.99"/>
</g>
<!-- Node28&#45;&gt;Node4 -->
<g id="edge54" class="edge">
<title>Node28&#45;&gt;Node4</title>
<path fill="none" stroke="midnightblue" d="M980.93,-537.9C860.45,-523.55 647.74,-488.46 647.74,-419.5 647.74,-419.5 647.74,-419.5 647.74,-289 647.74,-255.79 635.6,-218.63 627.31,-197.12"/>
<polygon fill="midnightblue" stroke="midnightblue" points="630.49,-195.63 623.52,-187.65 623.99,-198.23 630.49,-195.63"/>
</g>
<!-- Node28&#45;&gt;Node5 -->
<g id="edge83" class="edge">
<title>Node28&#45;&gt;Node5</title>
<path fill="none" stroke="midnightblue" d="M981.05,-546.6C838.3,-546.51 532.28,-541.08 277.74,-501 161.14,-482.64 103.11,-518.54 20.74,-434 -5.22,-407.36 1.74,-389.69 1.74,-352.5 1.74,-352.5 1.74,-352.5 1.74,-177 1.74,-134.87 32.36,-129.38 70.74,-112 140.63,-80.34 359.05,-70.93 472.6,-68.15"/>
<polygon fill="midnightblue" stroke="midnightblue" points="473,-71.64 482.92,-67.91 472.84,-64.64 473,-71.64"/>
</g>
<!-- Node28&#45;&gt;Node6 -->
<g id="edge49" class="edge">
<title>Node28&#45;&gt;Node6</title>
<path fill="none" stroke="midnightblue" d="M1087.83,-537.47C1128.05,-522.93 1204.73,-489.42 1244.74,-434 1266.51,-403.84 1263.74,-389.69 1263.74,-352.5 1263.74,-352.5 1263.74,-352.5 1263.74,-233 1263.74,-199.98 1252.48,-189.87 1227.74,-168 1172.24,-118.94 959.6,-48.99 873.87,-22.11"/>
<polygon fill="midnightblue" stroke="midnightblue" points="874.89,-18.76 864.31,-19.12 872.81,-25.44 874.89,-18.76"/>
</g>
<!-- Node28&#45;&gt;Node23 -->
<g id="edge58" class="edge">
<title>Node28&#45;&gt;Node23</title>
<path fill="none" stroke="midnightblue" d="M1062.75,-537.27C1065.37,-514.91 1072.75,-453.72 1080.74,-403 1091.92,-332.04 1099.98,-315.17 1109.74,-244 1111.86,-228.54 1113.43,-210.91 1114.44,-197.92"/>
<polygon fill="midnightblue" stroke="midnightblue" points="1117.93,-198.09 1115.17,-187.86 1110.95,-197.58 1117.93,-198.09"/>
</g>
<!-- Node29 -->
<g id="node29" class="node">
<title>Node29</title>
<g id="a_node29"><a xlink:title=" ">
<polygon fill="none" stroke="#bfbfbf" points="1281.24,-476 1281.24,-495 1358.24,-495 1358.24,-476 1281.24,-476"/>
<text text-anchor="middle" x="1319.74" y="-483" font-family="FreeSans.ttf" font-size="10.00">Eigen/Dense</text>
</a>
</g>
</g>
<!-- Node28&#45;&gt;Node29 -->
<g id="edge50" class="edge">
<title>Node28&#45;&gt;Node29</title>
<path fill="none" stroke="midnightblue" d="M1103.5,-537.48C1145.03,-528.86 1210.49,-514.86 1266.74,-501 1270.91,-499.97 1275.25,-498.86 1279.57,-497.72"/>
<polygon fill="midnightblue" stroke="midnightblue" points="1280.79,-501.02 1289.54,-495.05 1278.97,-494.26 1280.79,-501.02"/>
</g>
<!-- Node30 -->
<g id="node30" class="node">
<title>Node30</title>
<g id="a_node30"><a xlink:href="VectorDynSize_8h.html" target="_top" xlink:title=" ">
<polygon fill="none" stroke="black" points="1477.24,-168.5 1477.24,-187.5 1644.24,-187.5 1644.24,-168.5 1477.24,-168.5"/>
<text text-anchor="middle" x="1560.74" y="-175.5" font-family="FreeSans.ttf" font-size="10.00">iDynTree/Core/VectorDynSize.h</text>
</a>
</g>
</g>
<!-- Node28&#45;&gt;Node30 -->
<g id="edge51" class="edge">
<title>Node28&#45;&gt;Node30</title>
<path fill="none" stroke="midnightblue" d="M1142.59,-539.89C1225.24,-532.78 1347.42,-519.57 1390.74,-501 1444.07,-478.13 1492.74,-477.53 1492.74,-419.5 1492.74,-419.5 1492.74,-419.5 1492.74,-289 1492.74,-250.55 1523.17,-214.31 1543.32,-194.54"/>
<polygon fill="midnightblue" stroke="midnightblue" points="1545.84,-196.98 1550.71,-187.57 1541.03,-191.89 1545.84,-196.98"/>
</g>
<!-- Node31 -->
<g id="node31" class="node">
<title>Node31</title>
<g id="a_node31"><a xlink:href="MatrixDynSize_8h.html" target="_top" xlink:title=" ">
<polygon fill="none" stroke="black" points="1291.74,-168.5 1291.74,-187.5 1459.74,-187.5 1459.74,-168.5 1291.74,-168.5"/>
<text text-anchor="middle" x="1375.74" y="-175.5" font-family="FreeSans.ttf" font-size="10.00">iDynTree/Core/MatrixDynSize.h</text>
</a>
</g>
</g>
<!-- Node28&#45;&gt;Node31 -->
<g id="edge55" class="edge">
<title>Node28&#45;&gt;Node31</title>
<path fill="none" stroke="midnightblue" d="M1142.27,-544.17C1221.7,-540.65 1335.73,-530.45 1367.74,-501 1395.11,-475.81 1386.74,-456.69 1386.74,-419.5 1386.74,-419.5 1386.74,-419.5 1386.74,-289 1386.74,-256.79 1382.01,-219.53 1378.75,-197.69"/>
<polygon fill="midnightblue" stroke="midnightblue" points="1382.17,-196.87 1377.18,-187.53 1375.25,-197.95 1382.17,-196.87"/>
</g>
<!-- Node32 -->
<g id="node32" class="node">
<title>Node32</title>
<g id="a_node32"><a xlink:href="SpatialMotionVector_8h.html" target="_top" xlink:title=" ">
<polygon fill="none" stroke="black" points="287.24,-470.5 287.24,-500.5 442.24,-500.5 442.24,-470.5 287.24,-470.5"/>
<text text-anchor="start" x="295.24" y="-488.5" font-family="FreeSans.ttf" font-size="10.00">iDynTree/Core/SpatialMotion</text>
<text text-anchor="middle" x="364.74" y="-477.5" font-family="FreeSans.ttf" font-size="10.00">Vector.h</text>
</a>
</g>
</g>
<!-- Node28&#45;&gt;Node32 -->
<g id="edge59" class="edge">
<title>Node28&#45;&gt;Node32</title>
<path fill="none" stroke="midnightblue" d="M981.15,-541.79C865.98,-535.36 647.75,-521.61 462.74,-501 459.45,-500.63 456.1,-500.24 452.72,-499.83"/>
<polygon fill="midnightblue" stroke="midnightblue" points="452.87,-496.32 442.51,-498.53 451.98,-503.26 452.87,-496.32"/>
</g>
<!-- Node36 -->
<g id="node36" class="node">
<title>Node36</title>
<g id="a_node36"><a xlink:href="SpatialForceVector_8h.html" target="_top" xlink:title=" ">
<polygon fill="none" stroke="black" points="471.74,-470.5 471.74,-500.5 619.74,-500.5 619.74,-470.5 471.74,-470.5"/>
<text text-anchor="start" x="479.74" y="-488.5" font-family="FreeSans.ttf" font-size="10.00">iDynTree/Core/SpatialForce</text>
<text text-anchor="middle" x="545.74" y="-477.5" font-family="FreeSans.ttf" font-size="10.00">Vector.h</text>
</a>
</g>
</g>
<!-- Node28&#45;&gt;Node36 -->
<g id="edge74" class="edge">
<title>Node28&#45;&gt;Node36</title>
<path fill="none" stroke="midnightblue" d="M981.11,-538.94C894.95,-531.07 754.43,-517.27 633.74,-501 632.63,-500.85 631.51,-500.7 630.38,-500.54"/>
<polygon fill="midnightblue" stroke="midnightblue" points="630.51,-497.02 620.11,-499.07 629.51,-503.95 630.51,-497.02"/>
</g>
<!-- Node37 -->
<g id="node37" class="node">
<title>Node37</title>
<g id="a_node37"><a xlink:href="Transform_8h.html" target="_top" xlink:title=" ">
<polygon fill="none" stroke="black" points="1089.74,-409 1089.74,-428 1235.74,-428 1235.74,-409 1089.74,-409"/>
<text text-anchor="middle" x="1162.74" y="-416" font-family="FreeSans.ttf" font-size="10.00">iDynTree/Core/Transform.h</text>
</a>
</g>
</g>
<!-- Node28&#45;&gt;Node37 -->
<g id="edge78" class="edge">
<title>Node28&#45;&gt;Node37</title>
<path fill="none" stroke="midnightblue" d="M1068.68,-537.31C1085.33,-516.45 1127.76,-463.31 1149.48,-436.11"/>
<polygon fill="midnightblue" stroke="midnightblue" points="1152.24,-438.25 1155.75,-428.26 1146.77,-433.89 1152.24,-438.25"/>
</g>
<!-- Node30&#45;&gt;Node8 -->
<g id="edge52" class="edge">
<title>Node30&#45;&gt;Node8</title>
<path fill="none" stroke="midnightblue" d="M1541.36,-168.37C1498.07,-149.09 1393.35,-102.45 1342.46,-79.79"/>
<polygon fill="midnightblue" stroke="midnightblue" points="1343.59,-76.46 1333.03,-75.59 1340.74,-82.86 1343.59,-76.46"/>
</g>
<!-- Node30&#45;&gt;Node17 -->
<g id="edge53" class="edge">
<title>Node30&#45;&gt;Node17</title>
<path fill="none" stroke="midnightblue" d="M1477,-168.79C1474.22,-168.52 1471.45,-168.26 1468.74,-168 1297.94,-151.74 1093.3,-133.05 1015.19,-125.95"/>
<polygon fill="midnightblue" stroke="midnightblue" points="1015.3,-122.44 1005.03,-125.02 1014.67,-129.41 1015.3,-122.44"/>
</g>
<!-- Node31&#45;&gt;Node17 -->
<g id="edge56" class="edge">
<title>Node31&#45;&gt;Node17</title>
<path fill="none" stroke="midnightblue" d="M1313.47,-168.44C1228.79,-156.81 1080.42,-136.42 1015.13,-127.45"/>
<polygon fill="midnightblue" stroke="midnightblue" points="1015.41,-123.96 1005.03,-126.06 1014.46,-130.89 1015.41,-123.96"/>
</g>
<!-- Node31&#45;&gt;Node24 -->
<g id="edge57" class="edge">
<title>Node31&#45;&gt;Node24</title>
<path fill="none" stroke="midnightblue" d="M1357.04,-168.44C1337.79,-159.64 1307.59,-145.81 1285.54,-135.72"/>
<polygon fill="midnightblue" stroke="midnightblue" points="1286.9,-132.5 1276.35,-131.52 1283.99,-138.86 1286.9,-132.5"/>
</g>
<!-- Node32&#45;&gt;Node4 -->
<g id="edge60" class="edge">
<title>Node32&#45;&gt;Node4</title>
<path fill="none" stroke="midnightblue" d="M362.01,-470.32C354.46,-426.36 338.23,-291.29 408.74,-224 426.23,-207.31 479.74,-196.01 528.5,-188.9"/>
<polygon fill="midnightblue" stroke="midnightblue" points="529.08,-192.36 538.49,-187.5 528.1,-185.42 529.08,-192.36"/>
</g>
<!-- Node32&#45;&gt;Node21 -->
<g id="edge61" class="edge">
<title>Node32&#45;&gt;Node21</title>
<path fill="none" stroke="midnightblue" d="M363.85,-470.41C363.31,-453.73 363.99,-425.38 372.74,-403 397.69,-339.15 454.22,-278.71 482.68,-250.94"/>
<polygon fill="midnightblue" stroke="midnightblue" points="485.44,-253.14 490.24,-243.69 480.59,-248.09 485.44,-253.14"/>
</g>
<!-- Node33 -->
<g id="node33" class="node">
<title>Node33</title>
<g id="a_node33"><a xlink:href="SpatialVector_8h.html" target="_top" xlink:title=" ">
<polygon fill="none" stroke="black" points="382.24,-409 382.24,-428 543.24,-428 543.24,-409 382.24,-409"/>
<text text-anchor="middle" x="462.74" y="-416" font-family="FreeSans.ttf" font-size="10.00">iDynTree/Core/SpatialVector.h</text>
</a>
</g>
</g>
<!-- Node32&#45;&gt;Node33 -->
<g id="edge62" class="edge">
<title>Node32&#45;&gt;Node33</title>
<path fill="none" stroke="midnightblue" d="M386,-470.4C402.44,-459.5 425.08,-444.48 441.51,-433.58"/>
<polygon fill="midnightblue" stroke="midnightblue" points="443.51,-436.45 449.91,-428.01 439.64,-430.62 443.51,-436.45"/>
</g>
<!-- Node33&#45;&gt;Node5 -->
<g id="edge70" class="edge">
<title>Node33&#45;&gt;Node5</title>
<path fill="none" stroke="midnightblue" d="M382.02,-410.99C296.36,-403.12 167.32,-388.23 122.74,-367 77.58,-345.5 39.74,-341.02 39.74,-291 39.74,-291 39.74,-291 39.74,-177 39.74,-89.36 334.87,-71.44 473,-67.85"/>
<polygon fill="midnightblue" stroke="midnightblue" points="473.15,-71.35 483.06,-67.61 472.98,-64.35 473.15,-71.35"/>
</g>
<!-- Node33&#45;&gt;Node18 -->
<g id="edge73" class="edge">
<title>Node33&#45;&gt;Node18</title>
<path fill="none" stroke="midnightblue" d="M455.61,-408.66C433.29,-379.85 368.55,-286.89 408.74,-224 439.21,-176.32 609.1,-142.33 686.41,-129.1"/>
<polygon fill="midnightblue" stroke="midnightblue" points="687.4,-132.49 696.68,-127.38 686.24,-125.58 687.4,-132.49"/>
</g>
<!-- Node33&#45;&gt;Node20 -->
<g id="edge69" class="edge">
<title>Node33&#45;&gt;Node20</title>
<path fill="none" stroke="midnightblue" d="M482.12,-408.81C530.94,-386.91 659.13,-329.4 716.4,-303.71"/>
<polygon fill="midnightblue" stroke="midnightblue" points="717.9,-306.87 725.59,-299.59 715.04,-300.49 717.9,-306.87"/>
</g>
<!-- Node33&#45;&gt;Node21 -->
<g id="edge71" class="edge">
<title>Node33&#45;&gt;Node21</title>
<path fill="none" stroke="midnightblue" d="M464.52,-408.7C470.23,-380.57 488.09,-292.46 495.96,-253.66"/>
<polygon fill="midnightblue" stroke="midnightblue" points="499.42,-254.21 497.97,-243.71 492.56,-252.82 499.42,-254.21"/>
</g>
<!-- Node33&#45;&gt;Node25 -->
<g id="edge72" class="edge">
<title>Node33&#45;&gt;Node25</title>
<path fill="none" stroke="midnightblue" d="M436.79,-408.97C394.1,-393.11 313.74,-354.79 313.74,-291 313.74,-291 313.74,-291 313.74,-233 313.74,-200.95 313.74,-163.64 313.74,-141.75"/>
<polygon fill="midnightblue" stroke="midnightblue" points="317.24,-141.56 313.74,-131.56 310.24,-141.56 317.24,-141.56"/>
</g>
<!-- Node34 -->
<g id="node34" class="node">
<title>Node34</title>
<g id="a_node34"><a xlink:href="Position_8h.html" target="_top" xlink:title=" ">
<polygon fill="none" stroke="black" points="809.24,-342 809.24,-361 874.24,-361 874.24,-342 809.24,-342"/>
<text text-anchor="middle" x="841.74" y="-349" font-family="FreeSans.ttf" font-size="10.00">Position.h</text>
</a>
</g>
</g>
<!-- Node33&#45;&gt;Node34 -->
<g id="edge63" class="edge">
<title>Node33&#45;&gt;Node34</title>
<path fill="none" stroke="midnightblue" d="M512.68,-408.94C587.87,-396.04 728.86,-371.86 799.35,-359.77"/>
<polygon fill="midnightblue" stroke="midnightblue" points="799.96,-363.22 809.22,-358.08 798.78,-356.32 799.96,-363.22"/>
</g>
<!-- Node34&#45;&gt;Node17 -->
<g id="edge68" class="edge">
<title>Node34&#45;&gt;Node17</title>
<path fill="none" stroke="midnightblue" d="M874.61,-347.71C930.68,-340.98 1043.48,-318.4 1092.74,-244 1121.65,-200.33 1038.53,-199.67 1025.74,-188 1010.94,-174.5 998.88,-154.87 991.33,-140.72"/>
<polygon fill="midnightblue" stroke="midnightblue" points="994.32,-138.87 986.67,-131.55 988.08,-142.05 994.32,-138.87"/>
</g>
<!-- Node34&#45;&gt;Node20 -->
<g id="edge67" class="edge">
<title>Node34&#45;&gt;Node20</title>
<path fill="none" stroke="midnightblue" d="M827.84,-341.98C812.07,-332.3 786.1,-316.37 767.39,-304.89"/>
<polygon fill="midnightblue" stroke="midnightblue" points="768.97,-301.75 758.61,-299.51 765.3,-307.72 768.97,-301.75"/>
</g>
<!-- Node35 -->
<g id="node35" class="node">
<title>Node35</title>
<g id="a_node35"><a xlink:href="PositionRaw_8h.html" target="_top" xlink:title=" ">
<polygon fill="none" stroke="black" points="751.74,-224.5 751.74,-243.5 907.74,-243.5 907.74,-224.5 751.74,-224.5"/>
<text text-anchor="middle" x="829.74" y="-231.5" font-family="FreeSans.ttf" font-size="10.00">iDynTree/Core/PositionRaw.h</text>
</a>
</g>
</g>
<!-- Node34&#45;&gt;Node35 -->
<g id="edge64" class="edge">
<title>Node34&#45;&gt;Node35</title>
<path fill="none" stroke="midnightblue" d="M840.84,-341.82C838.91,-323.26 834.35,-279.34 831.71,-253.97"/>
<polygon fill="midnightblue" stroke="midnightblue" points="835.17,-253.37 830.65,-243.78 828.2,-254.09 835.17,-253.37"/>
</g>
<!-- Node35&#45;&gt;Node4 -->
<g id="edge65" class="edge">
<title>Node35&#45;&gt;Node4</title>
<path fill="none" stroke="midnightblue" d="M796.46,-224.44C760.29,-215.14 702.36,-200.25 662.76,-190.06"/>
<polygon fill="midnightblue" stroke="midnightblue" points="663.42,-186.62 652.86,-187.52 661.67,-193.4 663.42,-186.62"/>
</g>
<!-- Node35&#45;&gt;Node17 -->
<g id="edge66" class="edge">
<title>Node35&#45;&gt;Node17</title>
<path fill="none" stroke="midnightblue" d="M841.74,-224.37C867.89,-205.57 930.21,-160.77 962.52,-137.53"/>
<polygon fill="midnightblue" stroke="midnightblue" points="964.71,-140.27 970.79,-131.59 960.63,-134.59 964.71,-140.27"/>
</g>
<!-- Node36&#45;&gt;Node4 -->
<g id="edge75" class="edge">
<title>Node36&#45;&gt;Node4</title>
<path fill="none" stroke="midnightblue" d="M558.08,-470.17C576.68,-447.05 609.74,-399.36 609.74,-352.5 609.74,-352.5 609.74,-352.5 609.74,-289 609.74,-256.82 614.04,-219.55 617,-197.7"/>
<polygon fill="midnightblue" stroke="midnightblue" points="620.5,-197.92 618.43,-187.53 613.57,-196.95 620.5,-197.92"/>
</g>
<!-- Node36&#45;&gt;Node21 -->
<g id="edge76" class="edge">
<title>Node36&#45;&gt;Node21</title>
<path fill="none" stroke="midnightblue" d="M549,-470.3C552.27,-453.98 556.35,-426.44 552.74,-403 544.07,-346.73 519.99,-283.47 507.49,-253.13"/>
<polygon fill="midnightblue" stroke="midnightblue" points="510.55,-251.39 503.46,-243.52 504.1,-254.1 510.55,-251.39"/>
</g>
<!-- Node36&#45;&gt;Node33 -->
<g id="edge77" class="edge">
<title>Node36&#45;&gt;Node33</title>
<path fill="none" stroke="midnightblue" d="M527.73,-470.4C514.15,-459.76 495.56,-445.2 481.74,-434.38"/>
<polygon fill="midnightblue" stroke="midnightblue" points="483.87,-431.6 473.84,-428.19 479.56,-437.12 483.87,-431.6"/>
</g>
<!-- Node37&#45;&gt;Node17 -->
<g id="edge82" class="edge">
<title>Node37&#45;&gt;Node17</title>
<path fill="none" stroke="midnightblue" d="M1170.72,-408.74C1187.67,-389.18 1225.74,-339.82 1225.74,-291 1225.74,-291 1225.74,-291 1225.74,-233 1225.74,-202.9 1228.92,-188.35 1206.74,-168 1179.13,-142.67 1070.3,-130.22 1015.14,-125.43"/>
<polygon fill="midnightblue" stroke="midnightblue" points="1015.13,-121.92 1004.87,-124.58 1014.54,-128.9 1015.13,-121.92"/>
</g>
<!-- Node37&#45;&gt;Node20 -->
<g id="edge80" class="edge">
<title>Node37&#45;&gt;Node20</title>
<path fill="none" stroke="midnightblue" d="M1089.71,-413.97C998.36,-408.43 848.17,-395.25 800.74,-367 778.03,-353.48 761.71,-326.84 752.74,-308.97"/>
<polygon fill="midnightblue" stroke="midnightblue" points="755.87,-307.39 748.42,-299.86 749.54,-310.39 755.87,-307.39"/>
</g>
<!-- Node37&#45;&gt;Node23 -->
<g id="edge81" class="edge">
<title>Node37&#45;&gt;Node23</title>
<path fill="none" stroke="midnightblue" d="M1165.12,-408.91C1172.42,-380.86 1192.32,-289.97 1163.74,-224 1158.47,-211.84 1148.12,-201.46 1138.37,-193.74"/>
<polygon fill="midnightblue" stroke="midnightblue" points="1140.24,-190.77 1130.11,-187.67 1136.1,-196.41 1140.24,-190.77"/>
</g>
<!-- Node37&#45;&gt;Node34 -->
<g id="edge79" class="edge">
<title>Node37&#45;&gt;Node34</title>
<path fill="none" stroke="midnightblue" d="M1120.44,-408.94C1059.13,-396.52 946.16,-373.65 884.56,-361.17"/>
<polygon fill="midnightblue" stroke="midnightblue" points="884.9,-357.67 874.4,-359.11 883.51,-364.53 884.9,-357.67"/>
</g>
</g>
</svg>
