<?xml version="1.0" encoding="UTF-8" standalone="no"?>
<!DOCTYPE svg PUBLIC "-//W3C//DTD SVG 1.1//EN"
 "http://www.w3.org/Graphics/SVG/1.1/DTD/svg11.dtd">
<!-- Generated by graphviz version 2.43.0 (0)
 -->
<!-- Title: AttitudeEstimator.h Pages: 1 -->
<svg width="819pt" height="364pt"
 viewBox="0.00 0.00 819.00 364.00" xmlns="http://www.w3.org/2000/svg" xmlns:xlink="http://www.w3.org/1999/xlink">
<g id="graph0" class="graph" transform="scale(1 1) rotate(0) translate(4 360)">
<title>AttitudeEstimator.h</title>
<!-- Node1 -->
<g id="node1" class="node">
<title>Node1</title>
<g id="a_node1"><a xlink:title=" ">
<polygon fill="#bfbfbf" stroke="black" points="111,-336.5 111,-355.5 222,-355.5 222,-336.5 111,-336.5"/>
<text text-anchor="middle" x="166.5" y="-343.5" font-family="FreeSans.ttf" font-size="10.00">AttitudeEstimator.h</text>
</a>
</g>
</g>
<!-- Node2 -->
<g id="node2" class="node">
<title>Node2</title>
<g id="a_node2"><a xlink:href="VectorFixSize_8h.html" target="_top" xlink:title=" ">
<polygon fill="none" stroke="black" points="19.5,-168.5 19.5,-187.5 181.5,-187.5 181.5,-168.5 19.5,-168.5"/>
<text text-anchor="middle" x="100.5" y="-175.5" font-family="FreeSans.ttf" font-size="10.00">iDynTree/Core/VectorFixSize.h</text>
</a>
</g>
</g>
<!-- Node1&#45;&gt;Node2 -->
<g id="edge1" class="edge">
<title>Node1&#45;&gt;Node2</title>
<path fill="none" stroke="midnightblue" d="M138.53,-336.4C101.51,-323.29 37.95,-294.37 12.5,-244 -0.04,-219.17 30.56,-201.48 59.05,-190.88"/>
<polygon fill="midnightblue" stroke="midnightblue" points="60.28,-194.16 68.57,-187.56 57.97,-187.55 60.28,-194.16"/>
</g>
<!-- Node18 -->
<g id="node18" class="node">
<title>Node18</title>
<g id="a_node18"><a xlink:href="Rotation_8h.html" target="_top" xlink:title=" ">
<polygon fill="none" stroke="black" points="97.5,-280.5 97.5,-299.5 235.5,-299.5 235.5,-280.5 97.5,-280.5"/>
<text text-anchor="middle" x="166.5" y="-287.5" font-family="FreeSans.ttf" font-size="10.00">iDynTree/Core/Rotation.h</text>
</a>
</g>
</g>
<!-- Node1&#45;&gt;Node18 -->
<g id="edge20" class="edge">
<title>Node1&#45;&gt;Node18</title>
<path fill="none" stroke="midnightblue" d="M166.5,-336.08C166.5,-329.01 166.5,-318.86 166.5,-309.99"/>
<polygon fill="midnightblue" stroke="midnightblue" points="170,-309.75 166.5,-299.75 163,-309.75 170,-309.75"/>
</g>
<!-- Node23 -->
<g id="node23" class="node">
<title>Node23</title>
<g id="a_node23"><a xlink:title=" ">
<polygon fill="none" stroke="#bfbfbf" points="605.5,-112.5 605.5,-131.5 665.5,-131.5 665.5,-112.5 605.5,-112.5"/>
<text text-anchor="middle" x="635.5" y="-119.5" font-family="FreeSans.ttf" font-size="10.00">iostream</text>
</a>
</g>
</g>
<!-- Node1&#45;&gt;Node23 -->
<g id="edge39" class="edge">
<title>Node1&#45;&gt;Node23</title>
<path fill="none" stroke="midnightblue" d="M190.35,-336.46C235.3,-320.13 335.35,-282.64 416.5,-244 489.9,-209.05 573.02,-160.54 612.42,-136.97"/>
<polygon fill="midnightblue" stroke="midnightblue" points="614.69,-139.69 621.46,-131.54 611.09,-133.69 614.69,-139.69"/>
</g>
<!-- Node3 -->
<g id="node3" class="node">
<title>Node3</title>
<g id="a_node3"><a xlink:href="Utils_8h.html" target="_top" xlink:title=" ">
<polygon fill="none" stroke="black" points="17,-56.5 17,-75.5 136,-75.5 136,-56.5 17,-56.5"/>
<text text-anchor="middle" x="76.5" y="-63.5" font-family="FreeSans.ttf" font-size="10.00">iDynTree/Core/Utils.h</text>
</a>
</g>
</g>
<!-- Node2&#45;&gt;Node3 -->
<g id="edge2" class="edge">
<title>Node2&#45;&gt;Node3</title>
<path fill="none" stroke="midnightblue" d="M93.87,-168.27C87.73,-159.61 79.04,-145.67 75.5,-132 71.56,-116.79 72.2,-98.9 73.61,-85.74"/>
<polygon fill="midnightblue" stroke="midnightblue" points="77.11,-85.96 74.94,-75.59 70.17,-85.04 77.11,-85.96"/>
</g>
<!-- Node4 -->
<g id="node4" class="node">
<title>Node4</title>
<g id="a_node4"><a xlink:title=" ">
<polygon fill="none" stroke="#bfbfbf" points="0,-0.5 0,-19.5 53,-19.5 53,-0.5 0,-0.5"/>
<text text-anchor="middle" x="26.5" y="-7.5" font-family="FreeSans.ttf" font-size="10.00">cstddef</text>
</a>
</g>
</g>
<!-- Node2&#45;&gt;Node4 -->
<g id="edge18" class="edge">
<title>Node2&#45;&gt;Node4</title>
<path fill="none" stroke="midnightblue" d="M88.09,-168.49C66.76,-153.02 23.88,-117.97 7.5,-76 1.37,-60.29 8.07,-41.78 15.15,-28.54"/>
<polygon fill="midnightblue" stroke="midnightblue" points="18.38,-29.96 20.44,-19.57 12.34,-26.41 18.38,-29.96"/>
</g>
<!-- Node6 -->
<g id="node6" class="node">
<title>Node6</title>
<g id="a_node6"><a xlink:href="Span_8h.html" target="_top" xlink:title=" ">
<polygon fill="none" stroke="black" points="462,-56.5 462,-75.5 583,-75.5 583,-56.5 462,-56.5"/>
<text text-anchor="middle" x="522.5" y="-63.5" font-family="FreeSans.ttf" font-size="10.00">iDynTree/Core/Span.h</text>
</a>
</g>
</g>
<!-- Node2&#45;&gt;Node6 -->
<g id="edge5" class="edge">
<title>Node2&#45;&gt;Node6</title>
<path fill="none" stroke="midnightblue" d="M103.79,-168.49C109.83,-154.12 124.17,-125.3 146.5,-112 196.57,-82.19 357.63,-72.08 451.93,-68.69"/>
<polygon fill="midnightblue" stroke="midnightblue" points="452.09,-72.19 461.96,-68.35 451.84,-65.19 452.09,-72.19"/>
</g>
<!-- Node7 -->
<g id="node7" class="node">
<title>Node7</title>
<g id="a_node7"><a xlink:title=" ">
<polygon fill="none" stroke="#bfbfbf" points="249.5,-0.5 249.5,-19.5 301.5,-19.5 301.5,-0.5 249.5,-0.5"/>
<text text-anchor="middle" x="275.5" y="-7.5" font-family="FreeSans.ttf" font-size="10.00">cassert</text>
</a>
</g>
</g>
<!-- Node2&#45;&gt;Node7 -->
<g id="edge17" class="edge">
<title>Node2&#45;&gt;Node7</title>
<path fill="none" stroke="midnightblue" d="M101.63,-168.15C103.73,-154.78 109.26,-129.17 122.5,-112 154.96,-69.9 210.19,-39.75 244.66,-23.87"/>
<polygon fill="midnightblue" stroke="midnightblue" points="246.52,-26.87 254.22,-19.58 243.66,-20.48 246.52,-26.87"/>
</g>
<!-- Node15 -->
<g id="node15" class="node">
<title>Node15</title>
<g id="a_node15"><a xlink:title=" ">
<polygon fill="none" stroke="#bfbfbf" points="155.5,-112.5 155.5,-131.5 199.5,-131.5 199.5,-112.5 155.5,-112.5"/>
<text text-anchor="middle" x="177.5" y="-119.5" font-family="FreeSans.ttf" font-size="10.00">string</text>
</a>
</g>
</g>
<!-- Node2&#45;&gt;Node15 -->
<g id="edge15" class="edge">
<title>Node2&#45;&gt;Node15</title>
<path fill="none" stroke="midnightblue" d="M112.87,-168.32C124.66,-160.06 142.63,-147.45 156.64,-137.63"/>
<polygon fill="midnightblue" stroke="midnightblue" points="158.98,-140.26 165.16,-131.65 154.96,-134.53 158.98,-140.26"/>
</g>
<!-- Node16 -->
<g id="node16" class="node">
<title>Node16</title>
<g id="a_node16"><a xlink:title=" ">
<polygon fill="none" stroke="#bfbfbf" points="217.5,-112.5 217.5,-131.5 273.5,-131.5 273.5,-112.5 217.5,-112.5"/>
<text text-anchor="middle" x="245.5" y="-119.5" font-family="FreeSans.ttf" font-size="10.00">sstream</text>
</a>
</g>
</g>
<!-- Node2&#45;&gt;Node16 -->
<g id="edge16" class="edge">
<title>Node2&#45;&gt;Node16</title>
<path fill="none" stroke="midnightblue" d="M123.48,-168.44C147.66,-159.44 185.92,-145.19 213.15,-135.05"/>
<polygon fill="midnightblue" stroke="midnightblue" points="214.48,-138.29 222.63,-131.52 212.04,-131.73 214.48,-138.29"/>
</g>
<!-- Node17 -->
<g id="node17" class="node">
<title>Node17</title>
<g id="a_node17"><a xlink:title=" ">
<polygon fill="none" stroke="#bfbfbf" points="291.5,-112.5 291.5,-131.5 341.5,-131.5 341.5,-112.5 291.5,-112.5"/>
<text text-anchor="middle" x="316.5" y="-119.5" font-family="FreeSans.ttf" font-size="10.00">cstring</text>
</a>
</g>
</g>
<!-- Node2&#45;&gt;Node17 -->
<g id="edge19" class="edge">
<title>Node2&#45;&gt;Node17</title>
<path fill="none" stroke="midnightblue" d="M135.77,-168.46C170.46,-160.02 225.18,-146.6 281.48,-132.23"/>
<polygon fill="midnightblue" stroke="midnightblue" points="282.44,-135.6 291.26,-129.73 280.71,-128.82 282.44,-135.6"/>
</g>
<!-- Node3&#45;&gt;Node4 -->
<g id="edge3" class="edge">
<title>Node3&#45;&gt;Node4</title>
<path fill="none" stroke="midnightblue" d="M68.24,-56.08C61.04,-48.3 50.39,-36.8 41.65,-27.37"/>
<polygon fill="midnightblue" stroke="midnightblue" points="43.97,-24.71 34.6,-19.75 38.83,-29.47 43.97,-24.71"/>
</g>
<!-- Node5 -->
<g id="node5" class="node">
<title>Node5</title>
<g id="a_node5"><a xlink:title=" ">
<polygon fill="none" stroke="#bfbfbf" points="71.5,-0.5 71.5,-19.5 151.5,-19.5 151.5,-0.5 71.5,-0.5"/>
<text text-anchor="middle" x="111.5" y="-7.5" font-family="FreeSans.ttf" font-size="10.00">CoreExport.h</text>
</a>
</g>
</g>
<!-- Node3&#45;&gt;Node5 -->
<g id="edge4" class="edge">
<title>Node3&#45;&gt;Node5</title>
<path fill="none" stroke="midnightblue" d="M82.28,-56.08C87.17,-48.53 94.33,-37.49 100.33,-28.23"/>
<polygon fill="midnightblue" stroke="midnightblue" points="103.33,-30.05 105.83,-19.75 97.45,-26.24 103.33,-30.05"/>
</g>
<!-- Node6&#45;&gt;Node4 -->
<g id="edge9" class="edge">
<title>Node6&#45;&gt;Node4</title>
<path fill="none" stroke="midnightblue" d="M461.84,-61.92C375.46,-56.91 211.98,-45.09 63.36,-19.88"/>
<polygon fill="midnightblue" stroke="midnightblue" points="63.59,-16.37 53.14,-18.13 62.4,-23.27 63.59,-16.37"/>
</g>
<!-- Node6&#45;&gt;Node7 -->
<g id="edge6" class="edge">
<title>Node6&#45;&gt;Node7</title>
<path fill="none" stroke="midnightblue" d="M479.75,-56.48C438.94,-48.23 375.5,-35.07 311.67,-20.2"/>
<polygon fill="midnightblue" stroke="midnightblue" points="312.38,-16.77 301.84,-17.9 310.78,-23.59 312.38,-16.77"/>
</g>
<!-- Node8 -->
<g id="node8" class="node">
<title>Node8</title>
<g id="a_node8"><a xlink:title=" ">
<polygon fill="none" stroke="#bfbfbf" points="319.5,-0.5 319.5,-19.5 383.5,-19.5 383.5,-0.5 319.5,-0.5"/>
<text text-anchor="middle" x="351.5" y="-7.5" font-family="FreeSans.ttf" font-size="10.00">algorithm</text>
</a>
</g>
</g>
<!-- Node6&#45;&gt;Node8 -->
<g id="edge7" class="edge">
<title>Node6&#45;&gt;Node8</title>
<path fill="none" stroke="midnightblue" d="M495.4,-56.44C466.51,-47.32 420.58,-32.81 388.39,-22.65"/>
<polygon fill="midnightblue" stroke="midnightblue" points="389.06,-19.19 378.47,-19.52 386.95,-25.87 389.06,-19.19"/>
</g>
<!-- Node9 -->
<g id="node9" class="node">
<title>Node9</title>
<g id="a_node9"><a xlink:title=" ">
<polygon fill="none" stroke="#bfbfbf" points="401.5,-0.5 401.5,-19.5 443.5,-19.5 443.5,-0.5 401.5,-0.5"/>
<text text-anchor="middle" x="422.5" y="-7.5" font-family="FreeSans.ttf" font-size="10.00">array</text>
</a>
</g>
</g>
<!-- Node6&#45;&gt;Node9 -->
<g id="edge8" class="edge">
<title>Node6&#45;&gt;Node9</title>
<path fill="none" stroke="midnightblue" d="M506.43,-56.32C490.54,-47.74 465.99,-34.49 447.54,-24.52"/>
<polygon fill="midnightblue" stroke="midnightblue" points="448.99,-21.33 438.53,-19.65 445.66,-27.49 448.99,-21.33"/>
</g>
<!-- Node10 -->
<g id="node10" class="node">
<title>Node10</title>
<g id="a_node10"><a xlink:title=" ">
<polygon fill="none" stroke="#bfbfbf" points="462,-0.5 462,-19.5 515,-19.5 515,-0.5 462,-0.5"/>
<text text-anchor="middle" x="488.5" y="-7.5" font-family="FreeSans.ttf" font-size="10.00">iterator</text>
</a>
</g>
</g>
<!-- Node6&#45;&gt;Node10 -->
<g id="edge10" class="edge">
<title>Node6&#45;&gt;Node10</title>
<path fill="none" stroke="midnightblue" d="M516.89,-56.08C512.13,-48.53 505.18,-37.49 499.35,-28.23"/>
<polygon fill="midnightblue" stroke="midnightblue" points="502.3,-26.35 494.01,-19.75 496.38,-30.08 502.3,-26.35"/>
</g>
<!-- Node11 -->
<g id="node11" class="node">
<title>Node11</title>
<g id="a_node11"><a xlink:title=" ">
<polygon fill="none" stroke="#bfbfbf" points="533.5,-0.5 533.5,-19.5 577.5,-19.5 577.5,-0.5 533.5,-0.5"/>
<text text-anchor="middle" x="555.5" y="-7.5" font-family="FreeSans.ttf" font-size="10.00">limits</text>
</a>
</g>
</g>
<!-- Node6&#45;&gt;Node11 -->
<g id="edge11" class="edge">
<title>Node6&#45;&gt;Node11</title>
<path fill="none" stroke="midnightblue" d="M527.95,-56.08C532.51,-48.61 539.17,-37.72 544.79,-28.52"/>
<polygon fill="midnightblue" stroke="midnightblue" points="547.92,-30.11 550.15,-19.75 541.95,-26.46 547.92,-30.11"/>
</g>
<!-- Node12 -->
<g id="node12" class="node">
<title>Node12</title>
<g id="a_node12"><a xlink:title=" ">
<polygon fill="none" stroke="#bfbfbf" points="596,-0.5 596,-19.5 661,-19.5 661,-0.5 596,-0.5"/>
<text text-anchor="middle" x="628.5" y="-7.5" font-family="FreeSans.ttf" font-size="10.00">stdexcept</text>
</a>
</g>
</g>
<!-- Node6&#45;&gt;Node12 -->
<g id="edge12" class="edge">
<title>Node6&#45;&gt;Node12</title>
<path fill="none" stroke="midnightblue" d="M539.53,-56.32C556.53,-47.66 582.88,-34.24 602.49,-24.25"/>
<polygon fill="midnightblue" stroke="midnightblue" points="604.19,-27.31 611.51,-19.65 601.01,-21.08 604.19,-27.31"/>
</g>
<!-- Node13 -->
<g id="node13" class="node">
<title>Node13</title>
<g id="a_node13"><a xlink:title=" ">
<polygon fill="none" stroke="#bfbfbf" points="742,-0.5 742,-19.5 811,-19.5 811,-0.5 742,-0.5"/>
<text text-anchor="middle" x="776.5" y="-7.5" font-family="FreeSans.ttf" font-size="10.00">type_traits</text>
</a>
</g>
</g>
<!-- Node6&#45;&gt;Node13 -->
<g id="edge13" class="edge">
<title>Node6&#45;&gt;Node13</title>
<path fill="none" stroke="midnightblue" d="M562.75,-56.44C608.75,-46.66 683.85,-30.7 731.68,-20.53"/>
<polygon fill="midnightblue" stroke="midnightblue" points="732.69,-23.89 741.75,-18.39 731.24,-17.04 732.69,-23.89"/>
</g>
<!-- Node14 -->
<g id="node14" class="node">
<title>Node14</title>
<g id="a_node14"><a xlink:title=" ">
<polygon fill="none" stroke="#bfbfbf" points="679,-0.5 679,-19.5 724,-19.5 724,-0.5 679,-0.5"/>
<text text-anchor="middle" x="701.5" y="-7.5" font-family="FreeSans.ttf" font-size="10.00">utility</text>
</a>
</g>
</g>
<!-- Node6&#45;&gt;Node14 -->
<g id="edge14" class="edge">
<title>Node6&#45;&gt;Node14</title>
<path fill="none" stroke="midnightblue" d="M550.86,-56.44C583.02,-46.74 635.36,-30.95 669.11,-20.77"/>
<polygon fill="midnightblue" stroke="midnightblue" points="670.37,-24.05 678.94,-17.81 668.35,-17.34 670.37,-24.05"/>
</g>
<!-- Node18&#45;&gt;Node2 -->
<g id="edge38" class="edge">
<title>Node18&#45;&gt;Node2</title>
<path fill="none" stroke="midnightblue" d="M97.39,-285.14C68.83,-279.71 38.3,-268.11 20.5,-244 4.17,-221.88 36.25,-202.9 64.52,-191.26"/>
<polygon fill="midnightblue" stroke="midnightblue" points="65.85,-194.5 73.89,-187.6 63.3,-187.98 65.85,-194.5"/>
</g>
<!-- Node18&#45;&gt;Node15 -->
<g id="edge21" class="edge">
<title>Node18&#45;&gt;Node15</title>
<path fill="none" stroke="midnightblue" d="M176.06,-280.45C184.59,-272.12 196.49,-258.6 201.5,-244 213.67,-208.53 197.97,-164.98 186.82,-140.99"/>
<polygon fill="midnightblue" stroke="midnightblue" points="189.82,-139.16 182.28,-131.72 183.54,-142.24 189.82,-139.16"/>
</g>
<!-- Node19 -->
<g id="node19" class="node">
<title>Node19</title>
<g id="a_node19"><a xlink:href="GeomVector3_8h.html" target="_top" xlink:title=" ">
<polygon fill="none" stroke="black" points="30,-224.5 30,-243.5 193,-243.5 193,-224.5 30,-224.5"/>
<text text-anchor="middle" x="111.5" y="-231.5" font-family="FreeSans.ttf" font-size="10.00">iDynTree/Core/GeomVector3.h</text>
</a>
</g>
</g>
<!-- Node18&#45;&gt;Node19 -->
<g id="edge22" class="edge">
<title>Node18&#45;&gt;Node19</title>
<path fill="none" stroke="midnightblue" d="M157.42,-280.08C149.33,-272.14 137.3,-260.34 127.59,-250.8"/>
<polygon fill="midnightblue" stroke="midnightblue" points="130,-248.26 120.41,-243.75 125.1,-253.25 130,-248.26"/>
</g>
<!-- Node20 -->
<g id="node20" class="node">
<title>Node20</title>
<g id="a_node20"><a xlink:href="RotationRaw_8h.html" target="_top" xlink:title=" ">
<polygon fill="none" stroke="black" points="249.5,-224.5 249.5,-243.5 407.5,-243.5 407.5,-224.5 249.5,-224.5"/>
<text text-anchor="middle" x="328.5" y="-231.5" font-family="FreeSans.ttf" font-size="10.00">iDynTree/Core/RotationRaw.h</text>
</a>
</g>
</g>
<!-- Node18&#45;&gt;Node20 -->
<g id="edge24" class="edge">
<title>Node18&#45;&gt;Node20</title>
<path fill="none" stroke="midnightblue" d="M192.17,-280.44C219.42,-271.36 262.68,-256.94 293.15,-246.78"/>
<polygon fill="midnightblue" stroke="midnightblue" points="294.57,-250 302.95,-243.52 292.36,-243.36 294.57,-250"/>
</g>
<!-- Node19&#45;&gt;Node2 -->
<g id="edge23" class="edge">
<title>Node19&#45;&gt;Node2</title>
<path fill="none" stroke="midnightblue" d="M109.68,-224.08C108.23,-216.93 106.13,-206.64 104.31,-197.69"/>
<polygon fill="midnightblue" stroke="midnightblue" points="107.71,-196.85 102.28,-187.75 100.85,-198.25 107.71,-196.85"/>
</g>
<!-- Node20&#45;&gt;Node15 -->
<g id="edge37" class="edge">
<title>Node20&#45;&gt;Node15</title>
<path fill="none" stroke="midnightblue" d="M316.65,-224.37C290.85,-205.57 229.35,-160.77 197.45,-137.53"/>
<polygon fill="midnightblue" stroke="midnightblue" points="199.44,-134.65 189.29,-131.59 195.32,-140.31 199.44,-134.65"/>
</g>
<!-- Node21 -->
<g id="node21" class="node">
<title>Node21</title>
<g id="a_node21"><a xlink:href="MatrixFixSize_8h.html" target="_top" xlink:title=" ">
<polygon fill="none" stroke="black" points="288,-168.5 288,-187.5 451,-187.5 451,-168.5 288,-168.5"/>
<text text-anchor="middle" x="369.5" y="-175.5" font-family="FreeSans.ttf" font-size="10.00">iDynTree/Core/MatrixFixSize.h</text>
</a>
</g>
</g>
<!-- Node20&#45;&gt;Node21 -->
<g id="edge25" class="edge">
<title>Node20&#45;&gt;Node21</title>
<path fill="none" stroke="midnightblue" d="M335.27,-224.08C341.06,-216.46 349.56,-205.26 356.64,-195.94"/>
<polygon fill="midnightblue" stroke="midnightblue" points="359.6,-197.83 362.86,-187.75 354.02,-193.6 359.6,-197.83"/>
</g>
<!-- Node21&#45;&gt;Node3 -->
<g id="edge26" class="edge">
<title>Node21&#45;&gt;Node3</title>
<path fill="none" stroke="midnightblue" d="M369.69,-168.33C369.48,-154.24 366.87,-126.49 350.5,-112 321,-85.88 217.46,-74.77 146.46,-70.15"/>
<polygon fill="midnightblue" stroke="midnightblue" points="146.43,-66.64 136.23,-69.52 146,-73.63 146.43,-66.64"/>
</g>
<!-- Node21&#45;&gt;Node7 -->
<g id="edge32" class="edge">
<title>Node21&#45;&gt;Node7</title>
<path fill="none" stroke="midnightblue" d="M371.69,-168.21C374.45,-155.35 377.99,-130.89 370.5,-112 355.71,-74.69 319.9,-43.15 296.71,-25.68"/>
<polygon fill="midnightblue" stroke="midnightblue" points="298.66,-22.76 288.52,-19.69 294.53,-28.41 298.66,-22.76"/>
</g>
<!-- Node21&#45;&gt;Node15 -->
<g id="edge34" class="edge">
<title>Node21&#45;&gt;Node15</title>
<path fill="none" stroke="midnightblue" d="M338.61,-168.46C308.14,-160.02 260,-146.63 209.33,-132.22"/>
<polygon fill="midnightblue" stroke="midnightblue" points="210.08,-128.79 199.51,-129.42 208.17,-135.52 210.08,-128.79"/>
</g>
<!-- Node21&#45;&gt;Node16 -->
<g id="edge36" class="edge">
<title>Node21&#45;&gt;Node16</title>
<path fill="none" stroke="midnightblue" d="M349.85,-168.44C329.54,-159.6 297.6,-145.69 274.4,-135.59"/>
<polygon fill="midnightblue" stroke="midnightblue" points="275.62,-132.3 265.06,-131.52 272.83,-138.72 275.62,-132.3"/>
</g>
<!-- Node21&#45;&gt;Node17 -->
<g id="edge33" class="edge">
<title>Node21&#45;&gt;Node17</title>
<path fill="none" stroke="midnightblue" d="M360.75,-168.08C353.03,-160.22 341.6,-148.57 332.28,-139.08"/>
<polygon fill="midnightblue" stroke="midnightblue" points="334.59,-136.44 325.09,-131.75 329.6,-141.34 334.59,-136.44"/>
</g>
<!-- Node22 -->
<g id="node22" class="node">
<title>Node22</title>
<g id="a_node22"><a xlink:href="MatrixView_8h.html" target="_top" xlink:title=" ">
<polygon fill="none" stroke="black" points="435.5,-112.5 435.5,-131.5 587.5,-131.5 587.5,-112.5 435.5,-112.5"/>
<text text-anchor="middle" x="511.5" y="-119.5" font-family="FreeSans.ttf" font-size="10.00">iDynTree/Core/MatrixView.h</text>
</a>
</g>
</g>
<!-- Node21&#45;&gt;Node22 -->
<g id="edge27" class="edge">
<title>Node21&#45;&gt;Node22</title>
<path fill="none" stroke="midnightblue" d="M392,-168.44C415.58,-159.48 452.82,-145.31 479.46,-135.18"/>
<polygon fill="midnightblue" stroke="midnightblue" points="481,-138.34 489.1,-131.52 478.51,-131.8 481,-138.34"/>
</g>
<!-- Node21&#45;&gt;Node23 -->
<g id="edge35" class="edge">
<title>Node21&#45;&gt;Node23</title>
<path fill="none" stroke="midnightblue" d="M414.81,-168.45C458.54,-160.1 526.87,-146.8 595.21,-132.23"/>
<polygon fill="midnightblue" stroke="midnightblue" points="596.24,-135.59 605.29,-130.07 594.78,-128.74 596.24,-135.59"/>
</g>
<!-- Node22&#45;&gt;Node3 -->
<g id="edge31" class="edge">
<title>Node22&#45;&gt;Node3</title>
<path fill="none" stroke="midnightblue" d="M442.57,-112.44C361.47,-102.38 227.59,-85.76 146.17,-75.65"/>
<polygon fill="midnightblue" stroke="midnightblue" points="146.37,-72.15 136.02,-74.39 145.51,-79.09 146.37,-72.15"/>
</g>
<!-- Node22&#45;&gt;Node6 -->
<g id="edge30" class="edge">
<title>Node22&#45;&gt;Node6</title>
<path fill="none" stroke="midnightblue" d="M513.32,-112.08C514.77,-104.93 516.87,-94.64 518.69,-85.69"/>
<polygon fill="midnightblue" stroke="midnightblue" points="522.15,-86.25 520.72,-75.75 515.29,-84.85 522.15,-86.25"/>
</g>
<!-- Node22&#45;&gt;Node7 -->
<g id="edge28" class="edge">
<title>Node22&#45;&gt;Node7</title>
<path fill="none" stroke="midnightblue" d="M500.11,-112.42C481.8,-98.95 444.36,-72.66 409.5,-56 377.59,-40.76 339.15,-28.42 311.64,-20.54"/>
<polygon fill="midnightblue" stroke="midnightblue" points="312.24,-17.07 301.67,-17.74 310.35,-23.81 312.24,-17.07"/>
</g>
<!-- Node22&#45;&gt;Node13 -->
<g id="edge29" class="edge">
<title>Node22&#45;&gt;Node13</title>
<path fill="none" stroke="midnightblue" d="M532.29,-112.37C578.93,-93.01 692.03,-46.06 746.37,-23.51"/>
<polygon fill="midnightblue" stroke="midnightblue" points="747.91,-26.66 755.8,-19.59 745.22,-20.19 747.91,-26.66"/>
</g>
</g>
</svg>
