<?xml version="1.0" encoding="UTF-8" standalone="no"?>
<!DOCTYPE svg PUBLIC "-//W3C//DTD SVG 1.1//EN"
 "http://www.w3.org/Graphics/SVG/1.1/DTD/svg11.dtd">
<!-- Generated by graphviz version 2.43.0 (0)
 -->
<!-- Title: Axis.h Pages: 1 -->
<svg width="1895pt" height="196pt"
 viewBox="0.00 0.00 1895.00 196.00" xmlns="http://www.w3.org/2000/svg" xmlns:xlink="http://www.w3.org/1999/xlink">
<g id="graph0" class="graph" transform="scale(1 1) rotate(0) translate(4 192)">
<title>Axis.h</title>
<!-- Node1 -->
<g id="node1" class="node">
<title>Node1</title>
<g id="a_node1"><a xlink:title=" ">
<polygon fill="#bfbfbf" stroke="black" points="652.5,-168.5 652.5,-187.5 699.5,-187.5 699.5,-168.5 652.5,-168.5"/>
<text text-anchor="middle" x="676" y="-175.5" font-family="FreeSans.ttf" font-size="10.00">Axis.h</text>
</a>
</g>
</g>
<!-- Node2 -->
<g id="node2" class="node">
<title>Node2</title>
<g id="a_node2"><a xlink:href="Axis_8cpp.html" target="_top" xlink:title=" ">
<polygon fill="none" stroke="black" points="0,-112.5 0,-131.5 58,-131.5 58,-112.5 0,-112.5"/>
<text text-anchor="middle" x="29" y="-119.5" font-family="FreeSans.ttf" font-size="10.00">Axis.cpp</text>
</a>
</g>
</g>
<!-- Node1&#45;&gt;Node2 -->
<g id="edge1" class="edge">
<title>Node1&#45;&gt;Node2</title>
<path fill="none" stroke="midnightblue" d="M642.16,-176.38C549.57,-174.28 284.45,-165.57 67,-132 64.19,-131.57 61.27,-131.03 58.37,-130.44"/>
<polygon fill="midnightblue" stroke="midnightblue" points="642.26,-179.88 652.33,-176.6 642.41,-172.89 642.26,-179.88"/>
</g>
<!-- Node3 -->
<g id="node3" class="node">
<title>Node3</title>
<g id="a_node3"><a xlink:href="Rotation_8cpp.html" target="_top" xlink:title=" ">
<polygon fill="none" stroke="black" points="76,-112.5 76,-131.5 154,-131.5 154,-112.5 76,-112.5"/>
<text text-anchor="middle" x="115" y="-119.5" font-family="FreeSans.ttf" font-size="10.00">Rotation.cpp</text>
</a>
</g>
</g>
<!-- Node1&#45;&gt;Node3 -->
<g id="edge2" class="edge">
<title>Node1&#45;&gt;Node3</title>
<path fill="none" stroke="midnightblue" d="M642.38,-175.19C560.23,-170.53 342.89,-156.69 163,-132 160.14,-131.61 157.2,-131.16 154.24,-130.68"/>
<polygon fill="midnightblue" stroke="midnightblue" points="642.21,-178.69 652.39,-175.75 642.6,-171.7 642.21,-178.69"/>
</g>
<!-- Node4 -->
<g id="node4" class="node">
<title>Node4</title>
<g id="a_node4"><a xlink:href="TestUtils_8cpp.html" target="_top" xlink:title=" ">
<polygon fill="none" stroke="black" points="172.5,-112.5 172.5,-131.5 251.5,-131.5 251.5,-112.5 172.5,-112.5"/>
<text text-anchor="middle" x="212" y="-119.5" font-family="FreeSans.ttf" font-size="10.00">TestUtils.cpp</text>
</a>
</g>
</g>
<!-- Node1&#45;&gt;Node4 -->
<g id="edge3" class="edge">
<title>Node1&#45;&gt;Node4</title>
<path fill="none" stroke="midnightblue" d="M641.91,-174.16C570.87,-168.05 401.85,-152.54 261,-132 257.92,-131.55 254.74,-131.05 251.54,-130.52"/>
<polygon fill="midnightblue" stroke="midnightblue" points="641.8,-177.66 652.06,-175.03 642.4,-170.69 641.8,-177.66"/>
</g>
<!-- Node5 -->
<g id="node5" class="node">
<title>Node5</title>
<g id="a_node5"><a xlink:href="Transform_8cpp.html" target="_top" xlink:title=" ">
<polygon fill="none" stroke="black" points="270,-112.5 270,-131.5 356,-131.5 356,-112.5 270,-112.5"/>
<text text-anchor="middle" x="313" y="-119.5" font-family="FreeSans.ttf" font-size="10.00">Transform.cpp</text>
</a>
</g>
</g>
<!-- Node1&#45;&gt;Node5 -->
<g id="edge4" class="edge">
<title>Node1&#45;&gt;Node5</title>
<path fill="none" stroke="midnightblue" d="M642.24,-172.43C585.09,-164.62 465.68,-147.99 365,-132 362.1,-131.54 359.12,-131.05 356.11,-130.56"/>
<polygon fill="midnightblue" stroke="midnightblue" points="641.78,-175.9 652.17,-173.78 642.73,-168.96 641.78,-175.9"/>
</g>
<!-- Node6 -->
<g id="node6" class="node">
<title>Node6</title>
<g id="a_node6"><a xlink:href="BoundingBoxHelpers_8cpp.html" target="_top" xlink:title=" ">
<polygon fill="none" stroke="black" points="374.5,-112.5 374.5,-131.5 513.5,-131.5 513.5,-112.5 374.5,-112.5"/>
<text text-anchor="middle" x="444" y="-119.5" font-family="FreeSans.ttf" font-size="10.00">BoundingBoxHelpers.cpp</text>
</a>
</g>
</g>
<!-- Node1&#45;&gt;Node6 -->
<g id="edge5" class="edge">
<title>Node1&#45;&gt;Node6</title>
<path fill="none" stroke="midnightblue" d="M642.53,-169.21C599.6,-159.22 525.4,-141.95 480.88,-131.59"/>
<polygon fill="midnightblue" stroke="midnightblue" points="641.94,-172.67 652.48,-171.53 643.53,-165.85 641.94,-172.67"/>
</g>
<!-- Node7 -->
<g id="node7" class="node">
<title>Node7</title>
<g id="a_node7"><a xlink:href="ConvexHullHelpers_8cpp.html" target="_top" xlink:title=" ">
<polygon fill="none" stroke="black" points="531.5,-112.5 531.5,-131.5 662.5,-131.5 662.5,-112.5 531.5,-112.5"/>
<text text-anchor="middle" x="597" y="-119.5" font-family="FreeSans.ttf" font-size="10.00">ConvexHullHelpers.cpp</text>
</a>
</g>
</g>
<!-- Node1&#45;&gt;Node7 -->
<g id="edge6" class="edge">
<title>Node1&#45;&gt;Node7</title>
<path fill="none" stroke="midnightblue" d="M654.97,-162.62C640.53,-152.76 621.86,-139.99 609.66,-131.65"/>
<polygon fill="midnightblue" stroke="midnightblue" points="653.08,-165.57 663.31,-168.32 657.03,-159.79 653.08,-165.57"/>
</g>
<!-- Node8 -->
<g id="node8" class="node">
<title>Node8</title>
<g id="a_node8"><a xlink:href="InverseKinematicsData_8cpp.html" target="_top" xlink:title=" ">
<polygon fill="none" stroke="black" points="680.5,-112.5 680.5,-131.5 831.5,-131.5 831.5,-112.5 680.5,-112.5"/>
<text text-anchor="middle" x="756" y="-119.5" font-family="FreeSans.ttf" font-size="10.00">InverseKinematicsData.cpp</text>
</a>
</g>
</g>
<!-- Node1&#45;&gt;Node8 -->
<g id="edge7" class="edge">
<title>Node1&#45;&gt;Node8</title>
<path fill="none" stroke="midnightblue" d="M697.3,-162.62C711.92,-152.76 730.83,-139.99 743.18,-131.65"/>
<polygon fill="midnightblue" stroke="midnightblue" points="695.18,-159.83 688.85,-168.32 699.1,-165.63 695.18,-159.83"/>
</g>
<!-- Node9 -->
<g id="node9" class="node">
<title>Node9</title>
<g id="a_node9"><a xlink:href="PrismaticJoint_8h.html" target="_top" xlink:title=" ">
<polygon fill="none" stroke="black" points="1036.5,-112.5 1036.5,-131.5 1129.5,-131.5 1129.5,-112.5 1036.5,-112.5"/>
<text text-anchor="middle" x="1083" y="-119.5" font-family="FreeSans.ttf" font-size="10.00">PrismaticJoint.h</text>
</a>
</g>
</g>
<!-- Node1&#45;&gt;Node9 -->
<g id="edge8" class="edge">
<title>Node1&#45;&gt;Node9</title>
<path fill="none" stroke="midnightblue" d="M709.6,-172.54C782.1,-162.92 953.37,-140.2 1036.34,-129.19"/>
<polygon fill="midnightblue" stroke="midnightblue" points="709.09,-169.08 699.64,-173.86 710.01,-176.02 709.09,-169.08"/>
</g>
<!-- Node11 -->
<g id="node11" class="node">
<title>Node11</title>
<g id="a_node11"><a xlink:href="PrismaticJoint_8cpp.html" target="_top" xlink:title=" ">
<polygon fill="none" stroke="black" points="912,-56.5 912,-75.5 1016,-75.5 1016,-56.5 912,-56.5"/>
<text text-anchor="middle" x="964" y="-63.5" font-family="FreeSans.ttf" font-size="10.00">PrismaticJoint.cpp</text>
</a>
</g>
</g>
<!-- Node1&#45;&gt;Node11 -->
<g id="edge22" class="edge">
<title>Node1&#45;&gt;Node11</title>
<path fill="none" stroke="midnightblue" d="M709.78,-175.86C774.55,-172.97 912.8,-163.22 947,-132 963.02,-117.37 964.74,-89.69 964.48,-75.64"/>
<polygon fill="midnightblue" stroke="midnightblue" points="709.53,-172.36 699.68,-176.28 709.82,-179.36 709.53,-172.36"/>
</g>
<!-- Node15 -->
<g id="node15" class="node">
<title>Node15</title>
<g id="a_node15"><a xlink:href="RevoluteJoint_8h.html" target="_top" xlink:title=" ">
<polygon fill="none" stroke="black" points="1401.5,-112.5 1401.5,-131.5 1492.5,-131.5 1492.5,-112.5 1401.5,-112.5"/>
<text text-anchor="middle" x="1447" y="-119.5" font-family="FreeSans.ttf" font-size="10.00">RevoluteJoint.h</text>
</a>
</g>
</g>
<!-- Node1&#45;&gt;Node15 -->
<g id="edge14" class="edge">
<title>Node1&#45;&gt;Node15</title>
<path fill="none" stroke="midnightblue" d="M709.95,-174.62C833.62,-165.96 1260.21,-136.08 1401.29,-126.2"/>
<polygon fill="midnightblue" stroke="midnightblue" points="709.65,-171.13 699.92,-175.32 710.14,-178.12 709.65,-171.13"/>
</g>
<!-- Node18 -->
<g id="node18" class="node">
<title>Node18</title>
<g id="a_node18"><a xlink:href="RevoluteJoint_8cpp.html" target="_top" xlink:title=" ">
<polygon fill="none" stroke="black" points="1785,-56.5 1785,-75.5 1887,-75.5 1887,-56.5 1785,-56.5"/>
<text text-anchor="middle" x="1836" y="-63.5" font-family="FreeSans.ttf" font-size="10.00">RevoluteJoint.cpp</text>
</a>
</g>
</g>
<!-- Node1&#45;&gt;Node18 -->
<g id="edge23" class="edge">
<title>Node1&#45;&gt;Node18</title>
<path fill="none" stroke="midnightblue" d="M709.86,-176.82C822.71,-175.88 1196.17,-169.91 1502,-132 1611.92,-118.38 1740,-89.84 1800.67,-75.54"/>
<polygon fill="midnightblue" stroke="midnightblue" points="709.73,-173.32 699.76,-176.9 709.79,-180.32 709.73,-173.32"/>
</g>
<!-- Node19 -->
<g id="node19" class="node">
<title>Node19</title>
<g id="a_node19"><a xlink:href="JointElement_8h.html" target="_top" xlink:title=" ">
<polygon fill="none" stroke="black" points="850,-112.5 850,-131.5 938,-131.5 938,-112.5 850,-112.5"/>
<text text-anchor="middle" x="894" y="-119.5" font-family="FreeSans.ttf" font-size="10.00">JointElement.h</text>
</a>
</g>
</g>
<!-- Node1&#45;&gt;Node19 -->
<g id="edge24" class="edge">
<title>Node1&#45;&gt;Node19</title>
<path fill="none" stroke="midnightblue" d="M709.46,-168.71C750.14,-158.63 818.45,-141.72 859.56,-131.53"/>
<polygon fill="midnightblue" stroke="midnightblue" points="708.61,-165.32 699.74,-171.12 710.29,-172.11 708.61,-165.32"/>
</g>
<!-- Node10 -->
<g id="node10" class="node">
<title>Node10</title>
<g id="a_node10"><a xlink:href="ModelTransformers_8cpp.html" target="_top" xlink:title=" ">
<polygon fill="none" stroke="black" points="1189.5,-56.5 1189.5,-75.5 1320.5,-75.5 1320.5,-56.5 1189.5,-56.5"/>
<text text-anchor="middle" x="1255" y="-63.5" font-family="FreeSans.ttf" font-size="10.00">ModelTransformers.cpp</text>
</a>
</g>
</g>
<!-- Node9&#45;&gt;Node10 -->
<g id="edge9" class="edge">
<title>Node9&#45;&gt;Node10</title>
<path fill="none" stroke="midnightblue" d="M1119.83,-109.44C1152.26,-99.26 1198.74,-84.66 1227.87,-75.52"/>
<polygon fill="midnightblue" stroke="midnightblue" points="1118.75,-106.11 1110.25,-112.44 1120.84,-112.79 1118.75,-106.11"/>
</g>
<!-- Node9&#45;&gt;Node11 -->
<g id="edge10" class="edge">
<title>Node9&#45;&gt;Node11</title>
<path fill="none" stroke="midnightblue" d="M1054.86,-108.23C1032.6,-98.13 1002.14,-84.31 982.77,-75.52"/>
<polygon fill="midnightblue" stroke="midnightblue" points="1053.59,-111.5 1064.14,-112.44 1056.48,-105.12 1053.59,-111.5"/>
</g>
<!-- Node12 -->
<g id="node12" class="node">
<title>Node12</title>
<g id="a_node12"><a xlink:href="JointElement_8cpp.html" target="_top" xlink:title=" ">
<polygon fill="none" stroke="black" points="1072.5,-56.5 1072.5,-75.5 1171.5,-75.5 1171.5,-56.5 1072.5,-56.5"/>
<text text-anchor="middle" x="1122" y="-63.5" font-family="FreeSans.ttf" font-size="10.00">JointElement.cpp</text>
</a>
</g>
</g>
<!-- Node9&#45;&gt;Node12 -->
<g id="edge11" class="edge">
<title>Node9&#45;&gt;Node12</title>
<path fill="none" stroke="midnightblue" d="M1095.38,-103.86C1102.14,-94.5 1110.21,-83.33 1115.68,-75.75"/>
<polygon fill="midnightblue" stroke="midnightblue" points="1092.46,-101.93 1089.44,-112.08 1098.13,-106.03 1092.46,-101.93"/>
</g>
<!-- Node13 -->
<g id="node13" class="node">
<title>Node13</title>
<g id="a_node13"><a xlink:href="URDFDocument_8cpp.html" target="_top" xlink:title=" ">
<polygon fill="none" stroke="black" points="947.5,-0.5 947.5,-19.5 1062.5,-19.5 1062.5,-0.5 947.5,-0.5"/>
<text text-anchor="middle" x="1005" y="-7.5" font-family="FreeSans.ttf" font-size="10.00">URDFDocument.cpp</text>
</a>
</g>
</g>
<!-- Node9&#45;&gt;Node13 -->
<g id="edge12" class="edge">
<title>Node9&#45;&gt;Node13</title>
<path fill="none" stroke="midnightblue" d="M1070.92,-103.96C1054.01,-80.12 1023.94,-37.71 1011.09,-19.59"/>
<polygon fill="midnightblue" stroke="midnightblue" points="1068.24,-106.24 1076.88,-112.37 1073.95,-102.19 1068.24,-106.24"/>
</g>
<!-- Node14 -->
<g id="node14" class="node">
<title>Node14</title>
<g id="a_node14"><a xlink:href="URDFModelExport_8cpp.html" target="_top" xlink:title=" ">
<polygon fill="none" stroke="black" points="1339,-56.5 1339,-75.5 1465,-75.5 1465,-56.5 1339,-56.5"/>
<text text-anchor="middle" x="1402" y="-63.5" font-family="FreeSans.ttf" font-size="10.00">URDFModelExport.cpp</text>
</a>
</g>
</g>
<!-- Node9&#45;&gt;Node14 -->
<g id="edge13" class="edge">
<title>Node9&#45;&gt;Node14</title>
<path fill="none" stroke="midnightblue" d="M1139.82,-111.38C1200.01,-101.19 1294.14,-85.26 1351.72,-75.51"/>
<polygon fill="midnightblue" stroke="midnightblue" points="1139,-107.97 1129.73,-113.09 1140.17,-114.87 1139,-107.97"/>
</g>
<!-- Node15&#45;&gt;Node10 -->
<g id="edge17" class="edge">
<title>Node15&#45;&gt;Node10</title>
<path fill="none" stroke="midnightblue" d="M1406.82,-109.7C1370.58,-99.51 1318.09,-84.74 1285.28,-75.52"/>
<polygon fill="midnightblue" stroke="midnightblue" points="1406,-113.11 1416.58,-112.44 1407.9,-106.37 1406,-113.11"/>
</g>
<!-- Node15&#45;&gt;Node12 -->
<g id="edge19" class="edge">
<title>Node15&#45;&gt;Node12</title>
<path fill="none" stroke="midnightblue" d="M1391.52,-111.78C1329.82,-101.53 1231.04,-85.12 1171.75,-75.27"/>
<polygon fill="midnightblue" stroke="midnightblue" points="1391.03,-115.25 1401.47,-113.43 1392.18,-108.34 1391.03,-115.25"/>
</g>
<!-- Node15&#45;&gt;Node13 -->
<g id="edge20" class="edge">
<title>Node15&#45;&gt;Node13</title>
<path fill="none" stroke="midnightblue" d="M1462.51,-104.85C1474.34,-90.57 1486.64,-69.91 1474,-56 1446.81,-26.07 1181.77,-15.53 1062.57,-12.28"/>
<polygon fill="midnightblue" stroke="midnightblue" points="1459.82,-102.61 1455.79,-112.42 1465.05,-107.26 1459.82,-102.61"/>
</g>
<!-- Node15&#45;&gt;Node14 -->
<g id="edge21" class="edge">
<title>Node15&#45;&gt;Node14</title>
<path fill="none" stroke="midnightblue" d="M1432.95,-104.14C1425.11,-94.74 1415.67,-83.4 1409.29,-75.75"/>
<polygon fill="midnightblue" stroke="midnightblue" points="1430.48,-106.64 1439.57,-112.08 1435.86,-102.16 1430.48,-106.64"/>
</g>
<!-- Node16 -->
<g id="node16" class="node">
<title>Node16</title>
<g id="a_node16"><a xlink:href="ModelTestUtils_8h.html" target="_top" xlink:title=" ">
<polygon fill="none" stroke="black" points="1521,-56.5 1521,-75.5 1619,-75.5 1619,-56.5 1521,-56.5"/>
<text text-anchor="middle" x="1570" y="-63.5" font-family="FreeSans.ttf" font-size="10.00">ModelTestUtils.h</text>
</a>
</g>
</g>
<!-- Node15&#45;&gt;Node16 -->
<g id="edge15" class="edge">
<title>Node15&#45;&gt;Node16</title>
<path fill="none" stroke="midnightblue" d="M1475.77,-108.37C1498.81,-98.26 1530.48,-84.35 1550.6,-75.52"/>
<polygon fill="midnightblue" stroke="midnightblue" points="1474.24,-105.22 1466.49,-112.44 1477.05,-111.63 1474.24,-105.22"/>
</g>
<!-- Node17 -->
<g id="node17" class="node">
<title>Node17</title>
<g id="a_node17"><a xlink:href="DenavitHartenberg_8cpp.html" target="_top" xlink:title=" ">
<polygon fill="none" stroke="black" points="1637,-56.5 1637,-75.5 1767,-75.5 1767,-56.5 1637,-56.5"/>
<text text-anchor="middle" x="1702" y="-63.5" font-family="FreeSans.ttf" font-size="10.00">DenavitHartenberg.cpp</text>
</a>
</g>
</g>
<!-- Node15&#45;&gt;Node17 -->
<g id="edge16" class="edge">
<title>Node15&#45;&gt;Node17</title>
<path fill="none" stroke="midnightblue" d="M1497.31,-110.35C1545.5,-100.14 1617.28,-84.94 1661.78,-75.52"/>
<polygon fill="midnightblue" stroke="midnightblue" points="1496.46,-106.95 1487.41,-112.44 1497.91,-113.8 1496.46,-106.95"/>
</g>
<!-- Node15&#45;&gt;Node18 -->
<g id="edge18" class="edge">
<title>Node15&#45;&gt;Node18</title>
<path fill="none" stroke="midnightblue" d="M1502.62,-113.62C1568.07,-104.88 1679.99,-89.77 1776,-76 1778.92,-75.58 1781.92,-75.15 1784.94,-74.7"/>
<polygon fill="midnightblue" stroke="midnightblue" points="1501.98,-110.17 1492.53,-114.96 1502.9,-117.11 1501.98,-110.17"/>
</g>
<!-- Node19&#45;&gt;Node12 -->
<g id="edge31" class="edge">
<title>Node19&#45;&gt;Node12</title>
<path fill="none" stroke="midnightblue" d="M940.07,-110.09C983.15,-99.89 1046.59,-84.86 1086.04,-75.52"/>
<polygon fill="midnightblue" stroke="midnightblue" points="939.05,-106.73 930.13,-112.44 940.66,-113.54 939.05,-106.73"/>
</g>
<!-- Node20 -->
<g id="node20" class="node">
<title>Node20</title>
<g id="a_node20"><a xlink:href="RobotElement_8h.html" target="_top" xlink:title=" ">
<polygon fill="none" stroke="black" points="676.5,-56.5 676.5,-75.5 771.5,-75.5 771.5,-56.5 676.5,-56.5"/>
<text text-anchor="middle" x="724" y="-63.5" font-family="FreeSans.ttf" font-size="10.00">RobotElement.h</text>
</a>
</g>
</g>
<!-- Node19&#45;&gt;Node20 -->
<g id="edge25" class="edge">
<title>Node19&#45;&gt;Node20</title>
<path fill="none" stroke="midnightblue" d="M857.18,-109.3C825.15,-99.13 779.48,-84.62 750.81,-75.52"/>
<polygon fill="midnightblue" stroke="midnightblue" points="856.47,-112.75 867.06,-112.44 858.59,-106.08 856.47,-112.75"/>
</g>
<!-- Node21 -->
<g id="node21" class="node">
<title>Node21</title>
<g id="a_node21"><a xlink:href="RobotElement_8cpp.html" target="_top" xlink:title=" ">
<polygon fill="none" stroke="black" points="632,-0.5 632,-19.5 738,-19.5 738,-0.5 632,-0.5"/>
<text text-anchor="middle" x="685" y="-7.5" font-family="FreeSans.ttf" font-size="10.00">RobotElement.cpp</text>
</a>
</g>
</g>
<!-- Node19&#45;&gt;Node21 -->
<g id="edge32" class="edge">
<title>Node19&#45;&gt;Node21</title>
<path fill="none" stroke="midnightblue" d="M839.98,-111.16C773.72,-98.97 669.77,-79.38 667,-76 653.33,-59.35 668.61,-33.06 678.28,-19.58"/>
<polygon fill="midnightblue" stroke="midnightblue" points="839.4,-114.61 849.86,-112.98 840.66,-107.73 839.4,-114.61"/>
</g>
<!-- Node22 -->
<g id="node22" class="node">
<title>Node22</title>
<g id="a_node22"><a xlink:href="URDFDocument_8h.html" target="_top" xlink:title=" ">
<polygon fill="none" stroke="black" points="790,-56.5 790,-75.5 894,-75.5 894,-56.5 790,-56.5"/>
<text text-anchor="middle" x="842" y="-63.5" font-family="FreeSans.ttf" font-size="10.00">URDFDocument.h</text>
</a>
</g>
</g>
<!-- Node19&#45;&gt;Node22 -->
<g id="edge28" class="edge">
<title>Node19&#45;&gt;Node22</title>
<path fill="none" stroke="midnightblue" d="M878.32,-104.72C869.16,-95.2 857.95,-83.56 850.43,-75.75"/>
<polygon fill="midnightblue" stroke="midnightblue" points="875.96,-107.31 885.41,-112.08 881,-102.45 875.96,-107.31"/>
</g>
<!-- Node20&#45;&gt;Node13 -->
<g id="edge27" class="edge">
<title>Node20&#45;&gt;Node13</title>
<path fill="none" stroke="midnightblue" d="M778.45,-54.54C831.55,-44.33 911.34,-29 960.68,-19.52"/>
<polygon fill="midnightblue" stroke="midnightblue" points="777.69,-51.12 768.53,-56.44 779.01,-57.99 777.69,-51.12"/>
</g>
<!-- Node20&#45;&gt;Node21 -->
<g id="edge26" class="edge">
<title>Node20&#45;&gt;Node21</title>
<path fill="none" stroke="midnightblue" d="M711.62,-47.86C704.86,-38.5 696.79,-27.33 691.32,-19.75"/>
<polygon fill="midnightblue" stroke="midnightblue" points="708.87,-50.03 717.56,-56.08 714.54,-45.93 708.87,-50.03"/>
</g>
<!-- Node22&#45;&gt;Node13 -->
<g id="edge30" class="edge">
<title>Node22&#45;&gt;Node13</title>
<path fill="none" stroke="midnightblue" d="M877.7,-53.17C908.4,-43 951.92,-28.59 979.29,-19.52"/>
<polygon fill="midnightblue" stroke="midnightblue" points="876.22,-49.98 867.83,-56.44 878.42,-56.62 876.22,-49.98"/>
</g>
<!-- Node23 -->
<g id="node23" class="node">
<title>Node23</title>
<g id="a_node23"><a xlink:href="ModelLoader_8cpp.html" target="_top" xlink:title=" ">
<polygon fill="none" stroke="black" points="792.5,-0.5 792.5,-19.5 891.5,-19.5 891.5,-0.5 792.5,-0.5"/>
<text text-anchor="middle" x="842" y="-7.5" font-family="FreeSans.ttf" font-size="10.00">ModelLoader.cpp</text>
</a>
</g>
</g>
<!-- Node22&#45;&gt;Node23 -->
<g id="edge29" class="edge">
<title>Node22&#45;&gt;Node23</title>
<path fill="none" stroke="midnightblue" d="M842,-45.8C842,-36.91 842,-26.78 842,-19.75"/>
<polygon fill="midnightblue" stroke="midnightblue" points="838.5,-46.08 842,-56.08 845.5,-46.08 838.5,-46.08"/>
</g>
</g>
</svg>
