<?xml version="1.0" encoding="UTF-8" standalone="no"?>
<!DOCTYPE svg PUBLIC "-//W3C//DTD SVG 1.1//EN"
 "http://www.w3.org/Graphics/SVG/1.1/DTD/svg11.dtd">
<!-- Generated by graphviz version 2.43.0 (0)
 -->
<!-- Title: Axis.cpp Pages: 1 -->
<svg width="1531pt" height="599pt"
 viewBox="0.00 0.00 1531.00 599.00" xmlns="http://www.w3.org/2000/svg" xmlns:xlink="http://www.w3.org/1999/xlink">
<g id="graph0" class="graph" transform="scale(1 1) rotate(0) translate(4 595)">
<title>Axis.cpp</title>
<!-- Node1 -->
<g id="node1" class="node">
<title>Node1</title>
<g id="a_node1"><a xlink:title=" ">
<polygon fill="#bfbfbf" stroke="black" points="1221,-571.5 1221,-590.5 1279,-590.5 1279,-571.5 1221,-571.5"/>
<text text-anchor="middle" x="1250" y="-578.5" font-family="FreeSans.ttf" font-size="10.00">Axis.cpp</text>
</a>
</g>
</g>
<!-- Node2 -->
<g id="node2" class="node">
<title>Node2</title>
<g id="a_node2"><a xlink:href="Axis_8h.html" target="_top" xlink:title=" ">
<polygon fill="none" stroke="black" points="78,-392.5 78,-411.5 196,-411.5 196,-392.5 78,-392.5"/>
<text text-anchor="middle" x="137" y="-399.5" font-family="FreeSans.ttf" font-size="10.00">iDynTree/Core/Axis.h</text>
</a>
</g>
</g>
<!-- Node1&#45;&gt;Node2 -->
<g id="edge1" class="edge">
<title>Node1&#45;&gt;Node2</title>
<path fill="none" stroke="midnightblue" d="M1220.92,-577.15C1157.3,-570.77 1001.09,-554.4 871,-535 614.36,-496.72 309.71,-437.48 189.5,-413.56"/>
<polygon fill="midnightblue" stroke="midnightblue" points="189.95,-410.08 179.46,-411.55 188.59,-416.94 189.95,-410.08"/>
</g>
<!-- Node18 -->
<g id="node18" class="node">
<title>Node18</title>
<g id="a_node18"><a xlink:title=" ">
<polygon fill="none" stroke="#bfbfbf" points="1246,-112.5 1246,-131.5 1302,-131.5 1302,-112.5 1246,-112.5"/>
<text text-anchor="middle" x="1274" y="-119.5" font-family="FreeSans.ttf" font-size="10.00">sstream</text>
</a>
</g>
</g>
<!-- Node1&#45;&gt;Node18 -->
<g id="edge74" class="edge">
<title>Node1&#45;&gt;Node18</title>
<path fill="none" stroke="midnightblue" d="M1253.47,-571.2C1256.82,-562.25 1261.72,-547.89 1264,-535 1290.93,-382.96 1277.22,-342.36 1281,-188 1281.22,-179.11 1281.69,-176.86 1281,-168 1280.32,-159.22 1278.91,-149.56 1277.53,-141.45"/>
<polygon fill="midnightblue" stroke="midnightblue" points="1280.97,-140.8 1275.74,-131.58 1274.08,-142.04 1280.97,-140.8"/>
</g>
<!-- Node28 -->
<g id="node28" class="node">
<title>Node28</title>
<g id="a_node28"><a xlink:href="Transform_8h.html" target="_top" xlink:title=" ">
<polygon fill="none" stroke="black" points="611,-392.5 611,-411.5 757,-411.5 757,-392.5 611,-392.5"/>
<text text-anchor="middle" x="684" y="-399.5" font-family="FreeSans.ttf" font-size="10.00">iDynTree/Core/Transform.h</text>
</a>
</g>
</g>
<!-- Node1&#45;&gt;Node28 -->
<g id="edge50" class="edge">
<title>Node1&#45;&gt;Node28</title>
<path fill="none" stroke="midnightblue" d="M1220.95,-579.48C1163.14,-577.69 1030.19,-569.78 925,-535 837.18,-505.96 744.14,-445.19 704.16,-417.41"/>
<polygon fill="midnightblue" stroke="midnightblue" points="706.01,-414.43 695.81,-411.55 701.99,-420.16 706.01,-414.43"/>
</g>
<!-- Node29 -->
<g id="node29" class="node">
<title>Node29</title>
<g id="a_node29"><a xlink:href="TransformDerivative_8h.html" target="_top" xlink:title=" ">
<polygon fill="none" stroke="black" points="1024.5,-224.5 1024.5,-243.5 1221.5,-243.5 1221.5,-224.5 1024.5,-224.5"/>
<text text-anchor="middle" x="1123" y="-231.5" font-family="FreeSans.ttf" font-size="10.00">iDynTree/Core/TransformDerivative.h</text>
</a>
</g>
</g>
<!-- Node1&#45;&gt;Node29 -->
<g id="edge55" class="edge">
<title>Node1&#45;&gt;Node29</title>
<path fill="none" stroke="midnightblue" d="M1250,-571.31C1250,-552.06 1250,-504.4 1250,-464.5 1250,-464.5 1250,-464.5 1250,-345 1250,-295.87 1195.01,-263.77 1157.4,-247.56"/>
<polygon fill="midnightblue" stroke="midnightblue" points="1158.37,-244.17 1147.79,-243.59 1155.7,-250.64 1158.37,-244.17"/>
</g>
<!-- Node30 -->
<g id="node30" class="node">
<title>Node30</title>
<g id="a_node30"><a xlink:href="Twist_8h.html" target="_top" xlink:title=" ">
<polygon fill="none" stroke="black" points="934,-515.5 934,-534.5 1056,-534.5 1056,-515.5 934,-515.5"/>
<text text-anchor="middle" x="995" y="-522.5" font-family="FreeSans.ttf" font-size="10.00">iDynTree/Core/Twist.h</text>
</a>
</g>
</g>
<!-- Node1&#45;&gt;Node30 -->
<g id="edge58" class="edge">
<title>Node1&#45;&gt;Node30</title>
<path fill="none" stroke="midnightblue" d="M1220.75,-573.81C1177.95,-564.74 1097.66,-547.74 1045.28,-536.65"/>
<polygon fill="midnightblue" stroke="midnightblue" points="1045.7,-533.16 1035.19,-534.51 1044.25,-540.01 1045.7,-533.16"/>
</g>
<!-- Node33 -->
<g id="node33" class="node">
<title>Node33</title>
<g id="a_node33"><a xlink:href="SpatialAcc_8h.html" target="_top" xlink:title=" ">
<polygon fill="none" stroke="black" points="1074,-515.5 1074,-534.5 1222,-534.5 1222,-515.5 1074,-515.5"/>
<text text-anchor="middle" x="1148" y="-522.5" font-family="FreeSans.ttf" font-size="10.00">iDynTree/Core/SpatialAcc.h</text>
</a>
</g>
</g>
<!-- Node1&#45;&gt;Node33 -->
<g id="edge69" class="edge">
<title>Node1&#45;&gt;Node33</title>
<path fill="none" stroke="midnightblue" d="M1233.61,-571.32C1217.33,-562.7 1192.13,-549.36 1173.28,-539.39"/>
<polygon fill="midnightblue" stroke="midnightblue" points="1174.82,-536.24 1164.35,-534.65 1171.55,-542.43 1174.82,-536.24"/>
</g>
<!-- Node34 -->
<g id="node34" class="node">
<title>Node34</title>
<g id="a_node34"><a xlink:title=" ">
<polygon fill="none" stroke="#bfbfbf" points="1316.5,-515.5 1316.5,-534.5 1393.5,-534.5 1393.5,-515.5 1316.5,-515.5"/>
<text text-anchor="middle" x="1355" y="-522.5" font-family="FreeSans.ttf" font-size="10.00">Eigen/Dense</text>
</a>
</g>
</g>
<!-- Node1&#45;&gt;Node34 -->
<g id="edge71" class="edge">
<title>Node1&#45;&gt;Node34</title>
<path fill="none" stroke="midnightblue" d="M1266.87,-571.32C1283.71,-562.66 1309.81,-549.24 1329.24,-539.25"/>
<polygon fill="midnightblue" stroke="midnightblue" points="1330.88,-542.34 1338.17,-534.65 1327.68,-536.12 1330.88,-542.34"/>
</g>
<!-- Node35 -->
<g id="node35" class="node">
<title>Node35</title>
<g id="a_node35"><a xlink:title=" ">
<polygon fill="none" stroke="#bfbfbf" points="1411.5,-515.5 1411.5,-534.5 1458.5,-534.5 1458.5,-515.5 1411.5,-515.5"/>
<text text-anchor="middle" x="1435" y="-522.5" font-family="FreeSans.ttf" font-size="10.00">cmath</text>
</a>
</g>
</g>
<!-- Node1&#45;&gt;Node35 -->
<g id="edge72" class="edge">
<title>Node1&#45;&gt;Node35</title>
<path fill="none" stroke="midnightblue" d="M1279.31,-571.44C1312.6,-561.73 1366.81,-545.9 1401.68,-535.73"/>
<polygon fill="midnightblue" stroke="midnightblue" points="1402.78,-539.05 1411.4,-532.89 1400.82,-532.33 1402.78,-539.05"/>
</g>
<!-- Node36 -->
<g id="node36" class="node">
<title>Node36</title>
<g id="a_node36"><a xlink:title=" ">
<polygon fill="none" stroke="#bfbfbf" points="1477,-515.5 1477,-534.5 1523,-534.5 1523,-515.5 1477,-515.5"/>
<text text-anchor="middle" x="1500" y="-522.5" font-family="FreeSans.ttf" font-size="10.00">cstdio</text>
</a>
</g>
</g>
<!-- Node1&#45;&gt;Node36 -->
<g id="edge73" class="edge">
<title>Node1&#45;&gt;Node36</title>
<path fill="none" stroke="midnightblue" d="M1279.06,-574.68C1319.19,-567.18 1394,-552.68 1467.14,-535.07"/>
<polygon fill="midnightblue" stroke="midnightblue" points="1468.09,-538.45 1476.98,-532.68 1466.44,-531.64 1468.09,-538.45"/>
</g>
<!-- Node3 -->
<g id="node3" class="node">
<title>Node3</title>
<g id="a_node3"><a xlink:title=" ">
<polygon fill="none" stroke="#bfbfbf" points="358,-112.5 358,-131.5 402,-131.5 402,-112.5 358,-112.5"/>
<text text-anchor="middle" x="380" y="-119.5" font-family="FreeSans.ttf" font-size="10.00">string</text>
</a>
</g>
</g>
<!-- Node2&#45;&gt;Node3 -->
<g id="edge2" class="edge">
<title>Node2&#45;&gt;Node3</title>
<path fill="none" stroke="midnightblue" d="M127.24,-392.4C98.35,-365.91 17.7,-283.72 57,-224 89.63,-174.41 271.98,-140.18 347.37,-127.96"/>
<polygon fill="midnightblue" stroke="midnightblue" points="348.36,-131.34 357.69,-126.31 347.26,-124.43 348.36,-131.34"/>
</g>
<!-- Node4 -->
<g id="node4" class="node">
<title>Node4</title>
<g id="a_node4"><a xlink:href="Direction_8h.html" target="_top" xlink:title=" ">
<polygon fill="none" stroke="black" points="66.5,-224.5 66.5,-243.5 207.5,-243.5 207.5,-224.5 66.5,-224.5"/>
<text text-anchor="middle" x="137" y="-231.5" font-family="FreeSans.ttf" font-size="10.00">iDynTree/Core/Direction.h</text>
</a>
</g>
</g>
<!-- Node2&#45;&gt;Node4 -->
<g id="edge3" class="edge">
<title>Node2&#45;&gt;Node4</title>
<path fill="none" stroke="midnightblue" d="M137,-392.08C137,-365.95 137,-289.21 137,-253.58"/>
<polygon fill="midnightblue" stroke="midnightblue" points="140.5,-253.57 137,-243.57 133.5,-253.57 140.5,-253.57"/>
</g>
<!-- Node6 -->
<g id="node6" class="node">
<title>Node6</title>
<g id="a_node6"><a xlink:href="Utils_8h.html" target="_top" xlink:title=" ">
<polygon fill="none" stroke="black" points="494.5,-56.5 494.5,-75.5 613.5,-75.5 613.5,-56.5 494.5,-56.5"/>
<text text-anchor="middle" x="554" y="-63.5" font-family="FreeSans.ttf" font-size="10.00">iDynTree/Core/Utils.h</text>
</a>
</g>
</g>
<!-- Node2&#45;&gt;Node6 -->
<g id="edge49" class="edge">
<title>Node2&#45;&gt;Node6</title>
<path fill="none" stroke="midnightblue" d="M108.61,-392.42C68.49,-378.34 0,-346.21 0,-291 0,-291 0,-291 0,-177 0,-79.38 335.09,-67.07 484.05,-66.42"/>
<polygon fill="midnightblue" stroke="midnightblue" points="484.46,-69.92 494.45,-66.39 484.44,-62.92 484.46,-69.92"/>
</g>
<!-- Node20 -->
<g id="node20" class="node">
<title>Node20</title>
<g id="a_node20"><a xlink:href="Position_8h.html" target="_top" xlink:title=" ">
<polygon fill="none" stroke="black" points="348,-336.5 348,-355.5 484,-355.5 484,-336.5 348,-336.5"/>
<text text-anchor="middle" x="416" y="-343.5" font-family="FreeSans.ttf" font-size="10.00">iDynTree/Core/Position.h</text>
</a>
</g>
</g>
<!-- Node2&#45;&gt;Node20 -->
<g id="edge25" class="edge">
<title>Node2&#45;&gt;Node20</title>
<path fill="none" stroke="midnightblue" d="M181.21,-392.44C230.29,-382.94 309.51,-367.61 362.16,-357.42"/>
<polygon fill="midnightblue" stroke="midnightblue" points="362.85,-360.85 372,-355.52 361.52,-353.98 362.85,-360.85"/>
</g>
<!-- Node4&#45;&gt;Node3 -->
<g id="edge4" class="edge">
<title>Node4&#45;&gt;Node3</title>
<path fill="none" stroke="midnightblue" d="M146.14,-224.11C160.9,-210.2 191.45,-183.33 222,-168 263.06,-147.39 315,-134.9 347.87,-128.47"/>
<polygon fill="midnightblue" stroke="midnightblue" points="348.66,-131.89 357.84,-126.6 347.36,-125.01 348.66,-131.89"/>
</g>
<!-- Node5 -->
<g id="node5" class="node">
<title>Node5</title>
<g id="a_node5"><a xlink:href="VectorFixSize_8h.html" target="_top" xlink:title=" ">
<polygon fill="none" stroke="black" points="657,-168.5 657,-187.5 819,-187.5 819,-168.5 657,-168.5"/>
<text text-anchor="middle" x="738" y="-175.5" font-family="FreeSans.ttf" font-size="10.00">iDynTree/Core/VectorFixSize.h</text>
</a>
</g>
</g>
<!-- Node4&#45;&gt;Node5 -->
<g id="edge5" class="edge">
<title>Node4&#45;&gt;Node5</title>
<path fill="none" stroke="midnightblue" d="M207.71,-226.65C316.7,-216.85 525.74,-198.07 646.25,-187.24"/>
<polygon fill="midnightblue" stroke="midnightblue" points="646.91,-190.7 656.56,-186.32 646.28,-183.73 646.91,-190.7"/>
</g>
<!-- Node4&#45;&gt;Node6 -->
<g id="edge24" class="edge">
<title>Node4&#45;&gt;Node6</title>
<path fill="none" stroke="midnightblue" d="M141.6,-224.1C149.21,-210.19 165.74,-183.31 187,-168 276.44,-103.61 405.09,-80.25 483.91,-71.79"/>
<polygon fill="midnightblue" stroke="midnightblue" points="484.62,-75.24 494.22,-70.74 483.91,-68.27 484.62,-75.24"/>
</g>
<!-- Node5&#45;&gt;Node3 -->
<g id="edge19" class="edge">
<title>Node5&#45;&gt;Node3</title>
<path fill="none" stroke="midnightblue" d="M681.27,-168.44C605.39,-157 473.34,-137.08 412.45,-127.9"/>
<polygon fill="midnightblue" stroke="midnightblue" points="412.69,-124.39 402.28,-126.36 411.65,-131.31 412.69,-124.39"/>
</g>
<!-- Node5&#45;&gt;Node6 -->
<g id="edge6" class="edge">
<title>Node5&#45;&gt;Node6</title>
<path fill="none" stroke="midnightblue" d="M710.11,-168.47C687.11,-160.78 654.14,-148.19 628,-132 605.64,-118.15 583.44,-97.48 569.27,-83.18"/>
<polygon fill="midnightblue" stroke="midnightblue" points="571.39,-80.34 561.92,-75.6 566.37,-85.22 571.39,-80.34"/>
</g>
<!-- Node7 -->
<g id="node7" class="node">
<title>Node7</title>
<g id="a_node7"><a xlink:title=" ">
<polygon fill="none" stroke="#bfbfbf" points="615.5,-0.5 615.5,-19.5 668.5,-19.5 668.5,-0.5 615.5,-0.5"/>
<text text-anchor="middle" x="642" y="-7.5" font-family="FreeSans.ttf" font-size="10.00">cstddef</text>
</a>
</g>
</g>
<!-- Node5&#45;&gt;Node7 -->
<g id="edge22" class="edge">
<title>Node5&#45;&gt;Node7</title>
<path fill="none" stroke="midnightblue" d="M711.68,-168.38C694.48,-161.35 673.04,-149.65 661,-132 639.8,-100.93 638.82,-55.02 640.25,-29.62"/>
<polygon fill="midnightblue" stroke="midnightblue" points="643.75,-29.75 641.01,-19.51 636.77,-29.22 643.75,-29.75"/>
</g>
<!-- Node9 -->
<g id="node9" class="node">
<title>Node9</title>
<g id="a_node9"><a xlink:href="Span_8h.html" target="_top" xlink:title=" ">
<polygon fill="none" stroke="black" points="1022.5,-56.5 1022.5,-75.5 1143.5,-75.5 1143.5,-56.5 1022.5,-56.5"/>
<text text-anchor="middle" x="1083" y="-63.5" font-family="FreeSans.ttf" font-size="10.00">iDynTree/Core/Span.h</text>
</a>
</g>
</g>
<!-- Node5&#45;&gt;Node9 -->
<g id="edge9" class="edge">
<title>Node5&#45;&gt;Node9</title>
<path fill="none" stroke="midnightblue" d="M815.49,-168.49C861.43,-161.86 920.21,-150.56 970,-132 1004.51,-119.14 1040.82,-96.36 1062.68,-81.47"/>
<polygon fill="midnightblue" stroke="midnightblue" points="1064.89,-84.19 1071.12,-75.62 1060.91,-78.44 1064.89,-84.19"/>
</g>
<!-- Node10 -->
<g id="node10" class="node">
<title>Node10</title>
<g id="a_node10"><a xlink:title=" ">
<polygon fill="none" stroke="#bfbfbf" points="923,-0.5 923,-19.5 975,-19.5 975,-0.5 923,-0.5"/>
<text text-anchor="middle" x="949" y="-7.5" font-family="FreeSans.ttf" font-size="10.00">cassert</text>
</a>
</g>
</g>
<!-- Node5&#45;&gt;Node10 -->
<g id="edge21" class="edge">
<title>Node5&#45;&gt;Node10</title>
<path fill="none" stroke="midnightblue" d="M817.94,-168.47C866.09,-161.58 921.08,-150.02 937,-132 961.96,-103.75 957.94,-56.03 953.22,-29.76"/>
<polygon fill="midnightblue" stroke="midnightblue" points="956.59,-28.74 951.17,-19.63 949.72,-30.13 956.59,-28.74"/>
</g>
<!-- Node5&#45;&gt;Node18 -->
<g id="edge20" class="edge">
<title>Node5&#45;&gt;Node18</title>
<path fill="none" stroke="midnightblue" d="M819.37,-170.28C913.35,-162.27 1072.55,-147.96 1209,-132 1217.7,-130.98 1227.04,-129.76 1235.85,-128.56"/>
<polygon fill="midnightblue" stroke="midnightblue" points="1236.46,-132.01 1245.88,-127.16 1235.49,-125.07 1236.46,-132.01"/>
</g>
<!-- Node19 -->
<g id="node19" class="node">
<title>Node19</title>
<g id="a_node19"><a xlink:title=" ">
<polygon fill="none" stroke="#bfbfbf" points="670,-112.5 670,-131.5 720,-131.5 720,-112.5 670,-112.5"/>
<text text-anchor="middle" x="695" y="-119.5" font-family="FreeSans.ttf" font-size="10.00">cstring</text>
</a>
</g>
</g>
<!-- Node5&#45;&gt;Node19 -->
<g id="edge23" class="edge">
<title>Node5&#45;&gt;Node19</title>
<path fill="none" stroke="midnightblue" d="M730.9,-168.08C724.76,-160.38 715.73,-149.03 708.26,-139.65"/>
<polygon fill="midnightblue" stroke="midnightblue" points="710.94,-137.39 701.97,-131.75 705.46,-141.75 710.94,-137.39"/>
</g>
<!-- Node6&#45;&gt;Node7 -->
<g id="edge7" class="edge">
<title>Node6&#45;&gt;Node7</title>
<path fill="none" stroke="midnightblue" d="M568.14,-56.32C581.87,-47.9 602.94,-34.97 619.06,-25.07"/>
<polygon fill="midnightblue" stroke="midnightblue" points="621.2,-27.87 627.9,-19.65 617.54,-21.9 621.2,-27.87"/>
</g>
<!-- Node8 -->
<g id="node8" class="node">
<title>Node8</title>
<g id="a_node8"><a xlink:title=" ">
<polygon fill="none" stroke="#bfbfbf" points="514,-0.5 514,-19.5 594,-19.5 594,-0.5 514,-0.5"/>
<text text-anchor="middle" x="554" y="-7.5" font-family="FreeSans.ttf" font-size="10.00">CoreExport.h</text>
</a>
</g>
</g>
<!-- Node6&#45;&gt;Node8 -->
<g id="edge8" class="edge">
<title>Node6&#45;&gt;Node8</title>
<path fill="none" stroke="midnightblue" d="M554,-56.08C554,-49.01 554,-38.86 554,-29.99"/>
<polygon fill="midnightblue" stroke="midnightblue" points="557.5,-29.75 554,-19.75 550.5,-29.75 557.5,-29.75"/>
</g>
<!-- Node9&#45;&gt;Node7 -->
<g id="edge13" class="edge">
<title>Node9&#45;&gt;Node7</title>
<path fill="none" stroke="midnightblue" d="M1022.14,-57.55C929.17,-46.16 754.57,-24.78 678.73,-15.5"/>
<polygon fill="midnightblue" stroke="midnightblue" points="679.05,-12.01 668.7,-14.27 678.2,-18.96 679.05,-12.01"/>
</g>
<!-- Node9&#45;&gt;Node10 -->
<g id="edge10" class="edge">
<title>Node9&#45;&gt;Node10</title>
<path fill="none" stroke="midnightblue" d="M1061.77,-56.44C1039.62,-47.52 1004.68,-33.44 979.56,-23.32"/>
<polygon fill="midnightblue" stroke="midnightblue" points="980.72,-20.01 970.13,-19.52 978.1,-26.5 980.72,-20.01"/>
</g>
<!-- Node11 -->
<g id="node11" class="node">
<title>Node11</title>
<g id="a_node11"><a xlink:title=" ">
<polygon fill="none" stroke="#bfbfbf" points="1334,-0.5 1334,-19.5 1398,-19.5 1398,-0.5 1334,-0.5"/>
<text text-anchor="middle" x="1366" y="-7.5" font-family="FreeSans.ttf" font-size="10.00">algorithm</text>
</a>
</g>
</g>
<!-- Node9&#45;&gt;Node11 -->
<g id="edge11" class="edge">
<title>Node9&#45;&gt;Node11</title>
<path fill="none" stroke="midnightblue" d="M1131.3,-56.49C1178.01,-48.16 1251.06,-34.84 1323.57,-20.24"/>
<polygon fill="midnightblue" stroke="midnightblue" points="1324.68,-23.59 1333.79,-18.17 1323.3,-16.73 1324.68,-23.59"/>
</g>
<!-- Node12 -->
<g id="node12" class="node">
<title>Node12</title>
<g id="a_node12"><a xlink:title=" ">
<polygon fill="none" stroke="#bfbfbf" points="993,-0.5 993,-19.5 1035,-19.5 1035,-0.5 993,-0.5"/>
<text text-anchor="middle" x="1014" y="-7.5" font-family="FreeSans.ttf" font-size="10.00">array</text>
</a>
</g>
</g>
<!-- Node9&#45;&gt;Node12 -->
<g id="edge12" class="edge">
<title>Node9&#45;&gt;Node12</title>
<path fill="none" stroke="midnightblue" d="M1071.91,-56.32C1061.51,-48.18 1045.74,-35.84 1033.28,-26.09"/>
<polygon fill="midnightblue" stroke="midnightblue" points="1035.32,-23.24 1025.29,-19.83 1031.01,-28.75 1035.32,-23.24"/>
</g>
<!-- Node13 -->
<g id="node13" class="node">
<title>Node13</title>
<g id="a_node13"><a xlink:title=" ">
<polygon fill="none" stroke="#bfbfbf" points="1053.5,-0.5 1053.5,-19.5 1106.5,-19.5 1106.5,-0.5 1053.5,-0.5"/>
<text text-anchor="middle" x="1080" y="-7.5" font-family="FreeSans.ttf" font-size="10.00">iterator</text>
</a>
</g>
</g>
<!-- Node9&#45;&gt;Node13 -->
<g id="edge14" class="edge">
<title>Node9&#45;&gt;Node13</title>
<path fill="none" stroke="midnightblue" d="M1082.5,-56.08C1082.11,-49.01 1081.55,-38.86 1081.05,-29.99"/>
<polygon fill="midnightblue" stroke="midnightblue" points="1084.54,-29.54 1080.49,-19.75 1077.55,-29.93 1084.54,-29.54"/>
</g>
<!-- Node14 -->
<g id="node14" class="node">
<title>Node14</title>
<g id="a_node14"><a xlink:title=" ">
<polygon fill="none" stroke="#bfbfbf" points="1125,-0.5 1125,-19.5 1169,-19.5 1169,-0.5 1125,-0.5"/>
<text text-anchor="middle" x="1147" y="-7.5" font-family="FreeSans.ttf" font-size="10.00">limits</text>
</a>
</g>
</g>
<!-- Node9&#45;&gt;Node14 -->
<g id="edge15" class="edge">
<title>Node9&#45;&gt;Node14</title>
<path fill="none" stroke="midnightblue" d="M1093.28,-56.32C1102.84,-48.26 1117.28,-36.08 1128.78,-26.37"/>
<polygon fill="midnightblue" stroke="midnightblue" points="1131.14,-28.96 1136.53,-19.83 1126.63,-23.61 1131.14,-28.96"/>
</g>
<!-- Node15 -->
<g id="node15" class="node">
<title>Node15</title>
<g id="a_node15"><a xlink:title=" ">
<polygon fill="none" stroke="#bfbfbf" points="1187.5,-0.5 1187.5,-19.5 1252.5,-19.5 1252.5,-0.5 1187.5,-0.5"/>
<text text-anchor="middle" x="1220" y="-7.5" font-family="FreeSans.ttf" font-size="10.00">stdexcept</text>
</a>
</g>
</g>
<!-- Node9&#45;&gt;Node15 -->
<g id="edge16" class="edge">
<title>Node9&#45;&gt;Node15</title>
<path fill="none" stroke="midnightblue" d="M1104.71,-56.44C1127.35,-47.52 1163.07,-33.44 1188.75,-23.32"/>
<polygon fill="midnightblue" stroke="midnightblue" points="1190.37,-26.44 1198.39,-19.52 1187.81,-19.93 1190.37,-26.44"/>
</g>
<!-- Node16 -->
<g id="node16" class="node">
<title>Node16</title>
<g id="a_node16"><a xlink:title=" ">
<polygon fill="none" stroke="#bfbfbf" points="825.5,-0.5 825.5,-19.5 894.5,-19.5 894.5,-0.5 825.5,-0.5"/>
<text text-anchor="middle" x="860" y="-7.5" font-family="FreeSans.ttf" font-size="10.00">type_traits</text>
</a>
</g>
</g>
<!-- Node9&#45;&gt;Node16 -->
<g id="edge17" class="edge">
<title>Node9&#45;&gt;Node16</title>
<path fill="none" stroke="midnightblue" d="M1047.66,-56.44C1008.98,-47.07 946.85,-32.03 904.78,-21.84"/>
<polygon fill="midnightblue" stroke="midnightblue" points="905.35,-18.38 894.8,-19.43 903.7,-25.18 905.35,-18.38"/>
</g>
<!-- Node17 -->
<g id="node17" class="node">
<title>Node17</title>
<g id="a_node17"><a xlink:title=" ">
<polygon fill="none" stroke="#bfbfbf" points="1270.5,-0.5 1270.5,-19.5 1315.5,-19.5 1315.5,-0.5 1270.5,-0.5"/>
<text text-anchor="middle" x="1293" y="-7.5" font-family="FreeSans.ttf" font-size="10.00">utility</text>
</a>
</g>
</g>
<!-- Node9&#45;&gt;Node17 -->
<g id="edge18" class="edge">
<title>Node9&#45;&gt;Node17</title>
<path fill="none" stroke="midnightblue" d="M1118.42,-56.5C1152.55,-48.21 1205.88,-35.04 1260.49,-20.34"/>
<polygon fill="midnightblue" stroke="midnightblue" points="1261.6,-23.67 1270.34,-17.68 1259.77,-16.91 1261.6,-23.67"/>
</g>
<!-- Node20&#45;&gt;Node3 -->
<g id="edge48" class="edge">
<title>Node20&#45;&gt;Node3</title>
<path fill="none" stroke="midnightblue" d="M397.44,-336.43C368.77,-322.03 314.73,-289.96 293,-244 272.98,-201.67 324.75,-158.71 356.81,-137.18"/>
<polygon fill="midnightblue" stroke="midnightblue" points="358.78,-140.07 365.25,-131.69 354.96,-134.2 358.78,-140.07"/>
</g>
<!-- Node21 -->
<g id="node21" class="node">
<title>Node21</title>
<g id="a_node21"><a xlink:href="PositionRaw_8h.html" target="_top" xlink:title=" ">
<polygon fill="none" stroke="black" points="302,-224.5 302,-243.5 458,-243.5 458,-224.5 302,-224.5"/>
<text text-anchor="middle" x="380" y="-231.5" font-family="FreeSans.ttf" font-size="10.00">iDynTree/Core/PositionRaw.h</text>
</a>
</g>
</g>
<!-- Node20&#45;&gt;Node21 -->
<g id="edge26" class="edge">
<title>Node20&#45;&gt;Node21</title>
<path fill="none" stroke="midnightblue" d="M413.18,-336.37C407.34,-318.54 393.84,-277.3 385.98,-253.27"/>
<polygon fill="midnightblue" stroke="midnightblue" points="389.25,-252.01 382.81,-243.59 382.6,-254.18 389.25,-252.01"/>
</g>
<!-- Node22 -->
<g id="node22" class="node">
<title>Node22</title>
<g id="a_node22"><a xlink:href="Rotation_8h.html" target="_top" xlink:title=" ">
<polygon fill="none" stroke="black" points="615,-280.5 615,-299.5 753,-299.5 753,-280.5 615,-280.5"/>
<text text-anchor="middle" x="684" y="-287.5" font-family="FreeSans.ttf" font-size="10.00">iDynTree/Core/Rotation.h</text>
</a>
</g>
</g>
<!-- Node20&#45;&gt;Node22 -->
<g id="edge29" class="edge">
<title>Node20&#45;&gt;Node22</title>
<path fill="none" stroke="midnightblue" d="M458.47,-336.44C505.41,-326.98 581.08,-311.74 631.65,-301.55"/>
<polygon fill="midnightblue" stroke="midnightblue" points="632.62,-304.92 641.73,-299.52 631.24,-298.06 632.62,-304.92"/>
</g>
<!-- Node21&#45;&gt;Node3 -->
<g id="edge28" class="edge">
<title>Node21&#45;&gt;Node3</title>
<path fill="none" stroke="midnightblue" d="M380,-224.37C380,-206.62 380,-165.67 380,-141.6"/>
<polygon fill="midnightblue" stroke="midnightblue" points="383.5,-141.59 380,-131.59 376.5,-141.59 383.5,-141.59"/>
</g>
<!-- Node21&#45;&gt;Node5 -->
<g id="edge27" class="edge">
<title>Node21&#45;&gt;Node5</title>
<path fill="none" stroke="midnightblue" d="M436.73,-224.44C500.49,-214.83 603.9,-199.23 671.43,-189.04"/>
<polygon fill="midnightblue" stroke="midnightblue" points="672.17,-192.47 681.54,-187.52 671.13,-185.55 672.17,-192.47"/>
</g>
<!-- Node22&#45;&gt;Node3 -->
<g id="edge30" class="edge">
<title>Node22&#45;&gt;Node3</title>
<path fill="none" stroke="midnightblue" d="M645.86,-280.47C616.71,-273.09 576.04,-260.94 543,-244 484.74,-214.13 425.19,-163.89 396.91,-138.57"/>
<polygon fill="midnightblue" stroke="midnightblue" points="398.94,-135.69 389.18,-131.57 394.24,-140.88 398.94,-135.69"/>
</g>
<!-- Node22&#45;&gt;Node5 -->
<g id="edge47" class="edge">
<title>Node22&#45;&gt;Node5</title>
<path fill="none" stroke="midnightblue" d="M692.33,-280.39C700.22,-271.8 711.88,-257.92 719,-244 726.53,-229.28 731.52,-211.12 734.49,-197.74"/>
<polygon fill="midnightblue" stroke="midnightblue" points="737.94,-198.3 736.52,-187.8 731.09,-196.9 737.94,-198.3"/>
</g>
<!-- Node23 -->
<g id="node23" class="node">
<title>Node23</title>
<g id="a_node23"><a xlink:href="GeomVector3_8h.html" target="_top" xlink:title=" ">
<polygon fill="none" stroke="black" points="766.5,-224.5 766.5,-243.5 929.5,-243.5 929.5,-224.5 766.5,-224.5"/>
<text text-anchor="middle" x="848" y="-231.5" font-family="FreeSans.ttf" font-size="10.00">iDynTree/Core/GeomVector3.h</text>
</a>
</g>
</g>
<!-- Node22&#45;&gt;Node23 -->
<g id="edge31" class="edge">
<title>Node22&#45;&gt;Node23</title>
<path fill="none" stroke="midnightblue" d="M709.99,-280.44C737.7,-271.32 781.75,-256.81 812.62,-246.65"/>
<polygon fill="midnightblue" stroke="midnightblue" points="813.73,-249.97 822.14,-243.52 811.54,-243.32 813.73,-249.97"/>
</g>
<!-- Node24 -->
<g id="node24" class="node">
<title>Node24</title>
<g id="a_node24"><a xlink:href="RotationRaw_8h.html" target="_top" xlink:title=" ">
<polygon fill="none" stroke="black" points="552,-224.5 552,-243.5 710,-243.5 710,-224.5 552,-224.5"/>
<text text-anchor="middle" x="631" y="-231.5" font-family="FreeSans.ttf" font-size="10.00">iDynTree/Core/RotationRaw.h</text>
</a>
</g>
</g>
<!-- Node22&#45;&gt;Node24 -->
<g id="edge33" class="edge">
<title>Node22&#45;&gt;Node24</title>
<path fill="none" stroke="midnightblue" d="M675.25,-280.08C667.53,-272.22 656.1,-260.57 646.78,-251.08"/>
<polygon fill="midnightblue" stroke="midnightblue" points="649.09,-248.44 639.59,-243.75 644.1,-253.34 649.09,-248.44"/>
</g>
<!-- Node23&#45;&gt;Node5 -->
<g id="edge32" class="edge">
<title>Node23&#45;&gt;Node5</title>
<path fill="none" stroke="midnightblue" d="M830.33,-224.32C812.61,-215.62 785.1,-202.12 764.71,-192.11"/>
<polygon fill="midnightblue" stroke="midnightblue" points="766.15,-188.92 755.63,-187.65 763.06,-195.2 766.15,-188.92"/>
</g>
<!-- Node24&#45;&gt;Node3 -->
<g id="edge46" class="edge">
<title>Node24&#45;&gt;Node3</title>
<path fill="none" stroke="midnightblue" d="M611.3,-224.37C567.22,-205.05 460.46,-158.26 408.86,-135.65"/>
<polygon fill="midnightblue" stroke="midnightblue" points="410.17,-132.4 399.6,-131.59 407.36,-138.81 410.17,-132.4"/>
</g>
<!-- Node25 -->
<g id="node25" class="node">
<title>Node25</title>
<g id="a_node25"><a xlink:href="MatrixFixSize_8h.html" target="_top" xlink:title=" ">
<polygon fill="none" stroke="black" points="882.5,-168.5 882.5,-187.5 1045.5,-187.5 1045.5,-168.5 882.5,-168.5"/>
<text text-anchor="middle" x="964" y="-175.5" font-family="FreeSans.ttf" font-size="10.00">iDynTree/Core/MatrixFixSize.h</text>
</a>
</g>
</g>
<!-- Node24&#45;&gt;Node25 -->
<g id="edge34" class="edge">
<title>Node24&#45;&gt;Node25</title>
<path fill="none" stroke="midnightblue" d="M683.76,-224.44C742.83,-214.87 838.47,-199.36 901.31,-189.17"/>
<polygon fill="midnightblue" stroke="midnightblue" points="902.17,-192.57 911.48,-187.52 901.05,-185.66 902.17,-192.57"/>
</g>
<!-- Node25&#45;&gt;Node3 -->
<g id="edge43" class="edge">
<title>Node25&#45;&gt;Node3</title>
<path fill="none" stroke="midnightblue" d="M882.49,-169.46C751.83,-157.38 501.15,-134.2 412.25,-125.98"/>
<polygon fill="midnightblue" stroke="midnightblue" points="412.5,-122.49 402.23,-125.06 411.86,-129.46 412.5,-122.49"/>
</g>
<!-- Node25&#45;&gt;Node6 -->
<g id="edge35" class="edge">
<title>Node25&#45;&gt;Node6</title>
<path fill="none" stroke="midnightblue" d="M909.39,-168.46C869.22,-161.25 813.72,-149.29 767,-132 749.1,-125.37 746.81,-118.87 729,-112 689.84,-96.9 643.81,-85.29 608.79,-77.65"/>
<polygon fill="midnightblue" stroke="midnightblue" points="609.27,-74.17 598.76,-75.5 607.81,-81.02 609.27,-74.17"/>
</g>
<!-- Node25&#45;&gt;Node10 -->
<g id="edge41" class="edge">
<title>Node25&#45;&gt;Node10</title>
<path fill="none" stroke="midnightblue" d="M965.98,-168.36C970.24,-148.33 979.16,-97.27 970,-56 967.88,-46.43 963.49,-36.48 959.28,-28.37"/>
<polygon fill="midnightblue" stroke="midnightblue" points="962.3,-26.6 954.38,-19.56 956.18,-30 962.3,-26.6"/>
</g>
<!-- Node25&#45;&gt;Node18 -->
<g id="edge45" class="edge">
<title>Node25&#45;&gt;Node18</title>
<path fill="none" stroke="midnightblue" d="M1013.12,-168.44C1075,-157.66 1180,-139.37 1236.06,-129.61"/>
<polygon fill="midnightblue" stroke="midnightblue" points="1236.69,-133.05 1245.94,-127.89 1235.49,-126.16 1236.69,-133.05"/>
</g>
<!-- Node25&#45;&gt;Node19 -->
<g id="edge42" class="edge">
<title>Node25&#45;&gt;Node19</title>
<path fill="none" stroke="midnightblue" d="M918.09,-168.49C871.6,-159.76 797.67,-145.57 734,-132 732.74,-131.73 731.45,-131.45 730.16,-131.17"/>
<polygon fill="midnightblue" stroke="midnightblue" points="730.67,-127.7 720.15,-128.93 729.14,-134.53 730.67,-127.7"/>
</g>
<!-- Node26 -->
<g id="node26" class="node">
<title>Node26</title>
<g id="a_node26"><a xlink:href="MatrixView_8h.html" target="_top" xlink:title=" ">
<polygon fill="none" stroke="black" points="776,-112.5 776,-131.5 928,-131.5 928,-112.5 776,-112.5"/>
<text text-anchor="middle" x="852" y="-119.5" font-family="FreeSans.ttf" font-size="10.00">iDynTree/Core/MatrixView.h</text>
</a>
</g>
</g>
<!-- Node25&#45;&gt;Node26 -->
<g id="edge36" class="edge">
<title>Node25&#45;&gt;Node26</title>
<path fill="none" stroke="midnightblue" d="M946.01,-168.32C927.96,-159.62 899.95,-146.12 879.2,-136.11"/>
<polygon fill="midnightblue" stroke="midnightblue" points="880.48,-132.84 869.95,-131.65 877.44,-139.15 880.48,-132.84"/>
</g>
<!-- Node27 -->
<g id="node27" class="node">
<title>Node27</title>
<g id="a_node27"><a xlink:title=" ">
<polygon fill="none" stroke="#bfbfbf" points="1140,-112.5 1140,-131.5 1200,-131.5 1200,-112.5 1140,-112.5"/>
<text text-anchor="middle" x="1170" y="-119.5" font-family="FreeSans.ttf" font-size="10.00">iostream</text>
</a>
</g>
</g>
<!-- Node25&#45;&gt;Node27 -->
<g id="edge44" class="edge">
<title>Node25&#45;&gt;Node27</title>
<path fill="none" stroke="midnightblue" d="M996.64,-168.44C1032.78,-158.97 1091.05,-143.7 1129.93,-133.5"/>
<polygon fill="midnightblue" stroke="midnightblue" points="1131.07,-136.82 1139.86,-130.9 1129.3,-130.05 1131.07,-136.82"/>
</g>
<!-- Node26&#45;&gt;Node6 -->
<g id="edge40" class="edge">
<title>Node26&#45;&gt;Node6</title>
<path fill="none" stroke="midnightblue" d="M804.78,-112.44C752.25,-102.92 667.39,-87.55 611.15,-77.36"/>
<polygon fill="midnightblue" stroke="midnightblue" points="611.46,-73.86 601,-75.52 610.21,-80.74 611.46,-73.86"/>
</g>
<!-- Node26&#45;&gt;Node9 -->
<g id="edge39" class="edge">
<title>Node26&#45;&gt;Node9</title>
<path fill="none" stroke="midnightblue" d="M888.6,-112.44C928.73,-103.06 993.2,-87.99 1036.78,-77.8"/>
<polygon fill="midnightblue" stroke="midnightblue" points="1037.63,-81.2 1046.57,-75.52 1036.03,-74.38 1037.63,-81.2"/>
</g>
<!-- Node26&#45;&gt;Node10 -->
<g id="edge37" class="edge">
<title>Node26&#45;&gt;Node10</title>
<path fill="none" stroke="midnightblue" d="M859.61,-112.37C875.76,-94.05 913.68,-51.05 934.57,-27.36"/>
<polygon fill="midnightblue" stroke="midnightblue" points="937.44,-29.41 941.42,-19.59 932.18,-24.78 937.44,-29.41"/>
</g>
<!-- Node26&#45;&gt;Node16 -->
<g id="edge38" class="edge">
<title>Node26&#45;&gt;Node16</title>
<path fill="none" stroke="midnightblue" d="M852.63,-112.37C853.92,-94.62 856.9,-53.67 858.65,-29.6"/>
<polygon fill="midnightblue" stroke="midnightblue" points="862.14,-29.82 859.38,-19.59 855.16,-29.31 862.14,-29.82"/>
</g>
<!-- Node28&#45;&gt;Node3 -->
<g id="edge54" class="edge">
<title>Node28&#45;&gt;Node3</title>
<path fill="none" stroke="midnightblue" d="M610.77,-398.05C483.75,-390.92 236,-367.23 236,-291 236,-291 236,-291 236,-233 236,-176.94 305.78,-145.62 348.19,-131.77"/>
<polygon fill="midnightblue" stroke="midnightblue" points="349.31,-135.09 357.82,-128.77 347.23,-128.4 349.31,-135.09"/>
</g>
<!-- Node28&#45;&gt;Node20 -->
<g id="edge51" class="edge">
<title>Node28&#45;&gt;Node20</title>
<path fill="none" stroke="midnightblue" d="M641.53,-392.44C594.59,-382.98 518.92,-367.74 468.35,-357.55"/>
<polygon fill="midnightblue" stroke="midnightblue" points="468.76,-354.06 458.27,-355.52 467.38,-360.92 468.76,-354.06"/>
</g>
<!-- Node28&#45;&gt;Node22 -->
<g id="edge52" class="edge">
<title>Node28&#45;&gt;Node22</title>
<path fill="none" stroke="midnightblue" d="M684,-392.37C684,-374.62 684,-333.67 684,-309.6"/>
<polygon fill="midnightblue" stroke="midnightblue" points="687.5,-309.59 684,-299.59 680.5,-309.59 687.5,-309.59"/>
</g>
<!-- Node28&#45;&gt;Node25 -->
<g id="edge53" class="edge">
<title>Node28&#45;&gt;Node25</title>
<path fill="none" stroke="midnightblue" d="M707.96,-392.38C757.83,-373.29 873.57,-322.79 939,-244 950.09,-230.64 956.61,-211.82 960.19,-197.86"/>
<polygon fill="midnightblue" stroke="midnightblue" points="963.65,-198.44 962.46,-187.91 956.82,-196.88 963.65,-198.44"/>
</g>
<!-- Node29&#45;&gt;Node5 -->
<g id="edge56" class="edge">
<title>Node29&#45;&gt;Node5</title>
<path fill="none" stroke="midnightblue" d="M1062,-224.44C993.14,-214.79 881.3,-199.1 808.7,-188.92"/>
<polygon fill="midnightblue" stroke="midnightblue" points="809.11,-185.44 798.72,-187.52 808.14,-192.37 809.11,-185.44"/>
</g>
<!-- Node29&#45;&gt;Node25 -->
<g id="edge57" class="edge">
<title>Node29&#45;&gt;Node25</title>
<path fill="none" stroke="midnightblue" d="M1097.81,-224.44C1071.06,-215.36 1028.6,-200.94 998.69,-190.78"/>
<polygon fill="midnightblue" stroke="midnightblue" points="999.67,-187.42 989.08,-187.52 997.42,-194.05 999.67,-187.42"/>
</g>
<!-- Node31 -->
<g id="node31" class="node">
<title>Node31</title>
<g id="a_node31"><a xlink:href="SpatialMotionVector_8h.html" target="_top" xlink:title=" ">
<polygon fill="none" stroke="black" points="1066.5,-448.5 1066.5,-478.5 1221.5,-478.5 1221.5,-448.5 1066.5,-448.5"/>
<text text-anchor="start" x="1074.5" y="-466.5" font-family="FreeSans.ttf" font-size="10.00">iDynTree/Core/SpatialMotion</text>
<text text-anchor="middle" x="1144" y="-455.5" font-family="FreeSans.ttf" font-size="10.00">Vector.h</text>
</a>
</g>
</g>
<!-- Node30&#45;&gt;Node31 -->
<g id="edge59" class="edge">
<title>Node30&#45;&gt;Node31</title>
<path fill="none" stroke="midnightblue" d="M1016.35,-515.48C1037.94,-506.85 1071.97,-493.26 1099.46,-482.29"/>
<polygon fill="midnightblue" stroke="midnightblue" points="1100.89,-485.48 1108.88,-478.52 1098.3,-478.98 1100.89,-485.48"/>
</g>
<!-- Node31&#45;&gt;Node5 -->
<g id="edge60" class="edge">
<title>Node31&#45;&gt;Node5</title>
<path fill="none" stroke="midnightblue" d="M1146.64,-448.42C1148.75,-433.77 1150.29,-410.44 1143,-392 1116.66,-325.38 954.19,-230.89 939,-224 901.19,-206.84 856.32,-195.99 818.58,-189.25"/>
<polygon fill="midnightblue" stroke="midnightblue" points="819.09,-185.79 808.64,-187.54 817.91,-192.69 819.09,-185.79"/>
</g>
<!-- Node31&#45;&gt;Node23 -->
<g id="edge61" class="edge">
<title>Node31&#45;&gt;Node23</title>
<path fill="none" stroke="midnightblue" d="M1143.13,-448.37C1141.52,-433.03 1136.95,-408.52 1124,-392 1061.81,-312.69 947.68,-266.59 887.52,-246.71"/>
<polygon fill="midnightblue" stroke="midnightblue" points="888.58,-243.38 877.99,-243.63 886.43,-250.04 888.58,-243.38"/>
</g>
<!-- Node32 -->
<g id="node32" class="node">
<title>Node32</title>
<g id="a_node32"><a xlink:href="SpatialVector_8h.html" target="_top" xlink:title=" ">
<polygon fill="none" stroke="black" points="953.5,-392.5 953.5,-411.5 1114.5,-411.5 1114.5,-392.5 953.5,-392.5"/>
<text text-anchor="middle" x="1034" y="-399.5" font-family="FreeSans.ttf" font-size="10.00">iDynTree/Core/SpatialVector.h</text>
</a>
</g>
</g>
<!-- Node31&#45;&gt;Node32 -->
<g id="edge62" class="edge">
<title>Node31&#45;&gt;Node32</title>
<path fill="none" stroke="midnightblue" d="M1117.93,-448.4C1100.13,-438.77 1076.69,-426.09 1059.1,-416.58"/>
<polygon fill="midnightblue" stroke="midnightblue" points="1060.47,-413.34 1050.01,-411.66 1057.14,-419.49 1060.47,-413.34"/>
</g>
<!-- Node32&#45;&gt;Node6 -->
<g id="edge65" class="edge">
<title>Node32&#45;&gt;Node6</title>
<path fill="none" stroke="midnightblue" d="M953.16,-394.34C863.72,-384.22 717.51,-359.42 606,-300 572.94,-282.38 558.35,-278.18 543,-244 518.98,-190.5 536.79,-118.63 547.48,-85.34"/>
<polygon fill="midnightblue" stroke="midnightblue" points="550.89,-86.21 550.77,-75.61 544.25,-83.97 550.89,-86.21"/>
</g>
<!-- Node32&#45;&gt;Node18 -->
<g id="edge68" class="edge">
<title>Node32&#45;&gt;Node18</title>
<path fill="none" stroke="midnightblue" d="M1056.43,-392.48C1102.16,-373.74 1205.39,-324.11 1247,-244 1264.3,-210.69 1270.56,-166.62 1272.79,-141.9"/>
<polygon fill="midnightblue" stroke="midnightblue" points="1276.3,-141.97 1273.58,-131.73 1269.32,-141.43 1276.3,-141.97"/>
</g>
<!-- Node32&#45;&gt;Node20 -->
<g id="edge63" class="edge">
<title>Node32&#45;&gt;Node20</title>
<path fill="none" stroke="midnightblue" d="M953.19,-394.31C850.25,-385.72 666.86,-370.24 510,-356 504.88,-355.53 499.6,-355.05 494.27,-354.55"/>
<polygon fill="midnightblue" stroke="midnightblue" points="494.3,-351.04 484.02,-353.59 493.65,-358.01 494.3,-351.04"/>
</g>
<!-- Node32&#45;&gt;Node22 -->
<g id="edge64" class="edge">
<title>Node32&#45;&gt;Node22</title>
<path fill="none" stroke="midnightblue" d="M1006.83,-392.46C944.67,-372.93 792.06,-324.96 721.23,-302.7"/>
<polygon fill="midnightblue" stroke="midnightblue" points="721.99,-299.27 711.4,-299.61 719.89,-305.95 721.99,-299.27"/>
</g>
<!-- Node32&#45;&gt;Node23 -->
<g id="edge66" class="edge">
<title>Node32&#45;&gt;Node23</title>
<path fill="none" stroke="midnightblue" d="M1024.26,-392.31C994.38,-365.64 903.71,-284.72 865.39,-250.52"/>
<polygon fill="midnightblue" stroke="midnightblue" points="867.43,-247.65 857.64,-243.61 862.77,-252.88 867.43,-247.65"/>
</g>
<!-- Node32&#45;&gt;Node27 -->
<g id="edge67" class="edge">
<title>Node32&#45;&gt;Node27</title>
<path fill="none" stroke="midnightblue" d="M1041.12,-392.45C1052.15,-379.47 1074.36,-354.36 1096,-336 1151.36,-289.02 1197.07,-308.19 1231,-244 1250.86,-206.44 1212.34,-161.66 1187.93,-138.54"/>
<polygon fill="midnightblue" stroke="midnightblue" points="1190.04,-135.72 1180.3,-131.57 1185.32,-140.89 1190.04,-135.72"/>
</g>
<!-- Node33&#45;&gt;Node31 -->
<g id="edge70" class="edge">
<title>Node33&#45;&gt;Node31</title>
<path fill="none" stroke="midnightblue" d="M1147.43,-515.48C1146.96,-508.47 1146.27,-498.19 1145.63,-488.7"/>
<polygon fill="midnightblue" stroke="midnightblue" points="1149.11,-488.27 1144.94,-478.52 1142.12,-488.74 1149.11,-488.27"/>
</g>
</g>
</svg>
