<?xml version="1.0" encoding="UTF-8" standalone="no"?>
<!DOCTYPE svg PUBLIC "-//W3C//DTD SVG 1.1//EN"
 "http://www.w3.org/Graphics/SVG/1.1/DTD/svg11.dtd">
<!-- Generated by graphviz version 2.43.0 (0)
 -->
<!-- Title: BerdyHelper.h Pages: 1 -->
<svg width="274pt" height="84pt"
 viewBox="0.00 0.00 273.50 84.00" xmlns="http://www.w3.org/2000/svg" xmlns:xlink="http://www.w3.org/1999/xlink">
<g id="graph0" class="graph" transform="scale(1 1) rotate(0) translate(4 80)">
<title>BerdyHelper.h</title>
<!-- Node1 -->
<g id="node1" class="node">
<title>Node1</title>
<g id="a_node1"><a xlink:title=" ">
<polygon fill="#bfbfbf" stroke="black" points="76.5,-56.5 76.5,-75.5 162.5,-75.5 162.5,-56.5 76.5,-56.5"/>
<text text-anchor="middle" x="119.5" y="-63.5" font-family="FreeSans.ttf" font-size="10.00">BerdyHelper.h</text>
</a>
</g>
</g>
<!-- Node2 -->
<g id="node2" class="node">
<title>Node2</title>
<g id="a_node2"><a xlink:href="BerdyHelper_8cpp.html" target="_top" xlink:title=" ">
<polygon fill="none" stroke="black" points="0,-0.5 0,-19.5 97,-19.5 97,-0.5 0,-0.5"/>
<text text-anchor="middle" x="48.5" y="-7.5" font-family="FreeSans.ttf" font-size="10.00">BerdyHelper.cpp</text>
</a>
</g>
</g>
<!-- Node1&#45;&gt;Node2 -->
<g id="edge1" class="edge">
<title>Node1&#45;&gt;Node2</title>
<path fill="none" stroke="midnightblue" d="M99.91,-50.1C87.13,-40.38 70.89,-28.03 60.11,-19.83"/>
<polygon fill="midnightblue" stroke="midnightblue" points="98.01,-53.06 108.09,-56.32 102.25,-47.48 98.01,-53.06"/>
</g>
<!-- Node3 -->
<g id="node3" class="node">
<title>Node3</title>
<g id="a_node3"><a xlink:href="BerdySparseMAPSolver_8cpp.html" target="_top" xlink:title=" ">
<polygon fill="none" stroke="black" points="115.5,-0.5 115.5,-19.5 265.5,-19.5 265.5,-0.5 115.5,-0.5"/>
<text text-anchor="middle" x="190.5" y="-7.5" font-family="FreeSans.ttf" font-size="10.00">BerdySparseMAPSolver.cpp</text>
</a>
</g>
</g>
<!-- Node1&#45;&gt;Node3 -->
<g id="edge2" class="edge">
<title>Node1&#45;&gt;Node3</title>
<path fill="none" stroke="midnightblue" d="M139.09,-50.1C151.87,-40.38 168.11,-28.03 178.89,-19.83"/>
<polygon fill="midnightblue" stroke="midnightblue" points="136.75,-47.48 130.91,-56.32 140.99,-53.06 136.75,-47.48"/>
</g>
</g>
</svg>
