<?xml version="1.0" encoding="UTF-8" standalone="no"?>
<!DOCTYPE svg PUBLIC "-//W3C//DTD SVG 1.1//EN"
 "http://www.w3.org/Graphics/SVG/1.1/DTD/svg11.dtd">
<!-- Generated by graphviz version 2.43.0 (0)
 -->
<!-- Title: BoundingBoxHelpers.cpp Pages: 1 -->
<svg width="1694pt" height="599pt"
 viewBox="0.00 0.00 1693.50 599.00" xmlns="http://www.w3.org/2000/svg" xmlns:xlink="http://www.w3.org/1999/xlink">
<g id="graph0" class="graph" transform="scale(1 1) rotate(0) translate(4 595)">
<title>BoundingBoxHelpers.cpp</title>
<!-- Node1 -->
<g id="node1" class="node">
<title>Node1</title>
<g id="a_node1"><a xlink:title=" ">
<polygon fill="#bfbfbf" stroke="black" points="998.5,-571.5 998.5,-590.5 1137.5,-590.5 1137.5,-571.5 998.5,-571.5"/>
<text text-anchor="middle" x="1068" y="-578.5" font-family="FreeSans.ttf" font-size="10.00">BoundingBoxHelpers.cpp</text>
</a>
</g>
</g>
<!-- Node2 -->
<g id="node2" class="node">
<title>Node2</title>
<g id="a_node2"><a xlink:href="BoundingBoxHelpers_8h.html" target="_top" xlink:title=" ">
<polygon fill="none" stroke="black" points="296.5,-515.5 296.5,-534.5 469.5,-534.5 469.5,-515.5 296.5,-515.5"/>
<text text-anchor="middle" x="383" y="-522.5" font-family="FreeSans.ttf" font-size="10.00">iDynTree/BoundingBoxHelpers.h</text>
</a>
</g>
</g>
<!-- Node1&#45;&gt;Node2 -->
<g id="edge1" class="edge">
<title>Node1&#45;&gt;Node2</title>
<path fill="none" stroke="midnightblue" d="M998.23,-574.5C875.3,-564.81 619.91,-544.68 479.93,-533.64"/>
<polygon fill="midnightblue" stroke="midnightblue" points="479.89,-530.13 469.64,-532.83 479.34,-537.11 479.89,-530.13"/>
</g>
<!-- Node10 -->
<g id="node10" class="node">
<title>Node10</title>
<g id="a_node10"><a xlink:title=" ">
<polygon fill="none" stroke="#bfbfbf" points="1412,-0.5 1412,-19.5 1476,-19.5 1476,-0.5 1412,-0.5"/>
<text text-anchor="middle" x="1444" y="-7.5" font-family="FreeSans.ttf" font-size="10.00">algorithm</text>
</a>
</g>
</g>
<!-- Node1&#45;&gt;Node10 -->
<g id="edge96" class="edge">
<title>Node1&#45;&gt;Node10</title>
<path fill="none" stroke="midnightblue" d="M1137.59,-578.95C1279.29,-574.93 1588,-555.71 1588,-464.5 1588,-464.5 1588,-464.5 1588,-121 1588,-68.76 1527.41,-38.01 1484.83,-22.85"/>
<polygon fill="midnightblue" stroke="midnightblue" points="1485.84,-19.49 1475.25,-19.58 1483.59,-26.12 1485.84,-19.49"/>
</g>
<!-- Node32 -->
<g id="node32" class="node">
<title>Node32</title>
<g id="a_node32"><a xlink:href="Axis_8h.html" target="_top" xlink:title=" ">
<polygon fill="none" stroke="black" points="742,-392.5 742,-411.5 860,-411.5 860,-392.5 742,-392.5"/>
<text text-anchor="middle" x="801" y="-399.5" font-family="FreeSans.ttf" font-size="10.00">iDynTree/Core/Axis.h</text>
</a>
</g>
</g>
<!-- Node1&#45;&gt;Node32 -->
<g id="edge64" class="edge">
<title>Node1&#45;&gt;Node32</title>
<path fill="none" stroke="midnightblue" d="M1045.96,-571.4C1008.45,-556.17 930.78,-521.96 874,-479 850.86,-461.49 828.37,-436.5 814.61,-420.02"/>
<polygon fill="midnightblue" stroke="midnightblue" points="816.95,-417.36 807.91,-411.85 811.54,-421.8 816.95,-417.36"/>
</g>
<!-- Node34 -->
<g id="node34" class="node">
<title>Node34</title>
<g id="a_node34"><a xlink:href="EigenHelpers_8h.html" target="_top" xlink:title=" ">
<polygon fill="none" stroke="black" points="987.5,-515.5 987.5,-534.5 1148.5,-534.5 1148.5,-515.5 987.5,-515.5"/>
<text text-anchor="middle" x="1068" y="-522.5" font-family="FreeSans.ttf" font-size="10.00">iDynTree/Core/EigenHelpers.h</text>
</a>
</g>
</g>
<!-- Node1&#45;&gt;Node34 -->
<g id="edge72" class="edge">
<title>Node1&#45;&gt;Node34</title>
<path fill="none" stroke="midnightblue" d="M1068,-571.08C1068,-564.01 1068,-553.86 1068,-544.99"/>
<polygon fill="midnightblue" stroke="midnightblue" points="1071.5,-544.75 1068,-534.75 1064.5,-544.75 1071.5,-544.75"/>
</g>
<!-- Node39 -->
<g id="node39" class="node">
<title>Node39</title>
<g id="a_node39"><a xlink:title=" ">
<polygon fill="none" stroke="#bfbfbf" points="1616.5,-515.5 1616.5,-534.5 1685.5,-534.5 1685.5,-515.5 1616.5,-515.5"/>
<text text-anchor="middle" x="1651" y="-522.5" font-family="FreeSans.ttf" font-size="10.00">Eigen/Core</text>
</a>
</g>
</g>
<!-- Node1&#45;&gt;Node39 -->
<g id="edge95" class="edge">
<title>Node1&#45;&gt;Node39</title>
<path fill="none" stroke="midnightblue" d="M1137.78,-576.3C1239.99,-570.38 1436.24,-557.15 1602,-535 1603.3,-534.83 1604.62,-534.64 1605.95,-534.45"/>
<polygon fill="midnightblue" stroke="midnightblue" points="1606.94,-537.83 1616.27,-532.81 1605.84,-530.92 1606.94,-537.83"/>
</g>
<!-- Node3 -->
<g id="node3" class="node">
<title>Node3</title>
<g id="a_node3"><a xlink:title=" ">
<polygon fill="none" stroke="#bfbfbf" points="410,-112.5 410,-131.5 454,-131.5 454,-112.5 410,-112.5"/>
<text text-anchor="middle" x="432" y="-119.5" font-family="FreeSans.ttf" font-size="10.00">string</text>
</a>
</g>
</g>
<!-- Node2&#45;&gt;Node3 -->
<g id="edge2" class="edge">
<title>Node2&#45;&gt;Node3</title>
<path fill="none" stroke="midnightblue" d="M305.95,-515.48C194.11,-500.94 0,-466.54 0,-403 0,-403 0,-403 0,-345 0,-247.92 45.02,-218.4 128,-168 173.23,-140.53 330.93,-128.61 399.61,-124.64"/>
<polygon fill="midnightblue" stroke="midnightblue" points="400.05,-128.12 409.84,-124.07 399.66,-121.13 400.05,-128.12"/>
</g>
<!-- Node4 -->
<g id="node4" class="node">
<title>Node4</title>
<g id="a_node4"><a xlink:title=" ">
<polygon fill="none" stroke="#bfbfbf" points="212.5,-392.5 212.5,-411.5 259.5,-411.5 259.5,-392.5 212.5,-392.5"/>
<text text-anchor="middle" x="236" y="-399.5" font-family="FreeSans.ttf" font-size="10.00">vector</text>
</a>
</g>
</g>
<!-- Node2&#45;&gt;Node4 -->
<g id="edge3" class="edge">
<title>Node2&#45;&gt;Node4</title>
<path fill="none" stroke="midnightblue" d="M296.33,-516.59C272.71,-510.12 249.63,-498.74 235,-479 222.75,-462.48 225.79,-437.9 230.04,-421.2"/>
<polygon fill="midnightblue" stroke="midnightblue" points="233.42,-422.11 232.86,-411.53 226.7,-420.15 233.42,-422.11"/>
</g>
<!-- Node5 -->
<g id="node5" class="node">
<title>Node5</title>
<g id="a_node5"><a xlink:href="MatrixDynSize_8h.html" target="_top" xlink:title=" ">
<polygon fill="none" stroke="black" points="354,-392.5 354,-411.5 522,-411.5 522,-392.5 354,-392.5"/>
<text text-anchor="middle" x="438" y="-399.5" font-family="FreeSans.ttf" font-size="10.00">iDynTree/Core/MatrixDynSize.h</text>
</a>
</g>
</g>
<!-- Node2&#45;&gt;Node5 -->
<g id="edge4" class="edge">
<title>Node2&#45;&gt;Node5</title>
<path fill="none" stroke="midnightblue" d="M391.41,-515.43C399.36,-506.87 411.07,-493.02 418,-479 427.05,-460.69 432.35,-437.82 435.2,-421.97"/>
<polygon fill="midnightblue" stroke="midnightblue" points="438.7,-422.27 436.85,-411.84 431.79,-421.14 438.7,-422.27"/>
</g>
<!-- Node19 -->
<g id="node19" class="node">
<title>Node19</title>
<g id="a_node19"><a xlink:href="Position_8h.html" target="_top" xlink:title=" ">
<polygon fill="none" stroke="black" points="485,-336.5 485,-355.5 621,-355.5 621,-336.5 485,-336.5"/>
<text text-anchor="middle" x="553" y="-343.5" font-family="FreeSans.ttf" font-size="10.00">iDynTree/Core/Position.h</text>
</a>
</g>
</g>
<!-- Node2&#45;&gt;Node19 -->
<g id="edge22" class="edge">
<title>Node2&#45;&gt;Node19</title>
<path fill="none" stroke="midnightblue" d="M400.3,-515.41C431.01,-499.3 495.2,-461.66 531,-412 541.01,-398.12 546.71,-379.36 549.79,-365.56"/>
<polygon fill="midnightblue" stroke="midnightblue" points="553.22,-366.23 551.73,-355.74 546.36,-364.88 553.22,-366.23"/>
</g>
<!-- Node29 -->
<g id="node29" class="node">
<title>Node29</title>
<g id="a_node29"><a xlink:href="Transform_8h.html" target="_top" xlink:title=" ">
<polygon fill="none" stroke="black" points="578,-392.5 578,-411.5 724,-411.5 724,-392.5 578,-392.5"/>
<text text-anchor="middle" x="651" y="-399.5" font-family="FreeSans.ttf" font-size="10.00">iDynTree/Core/Transform.h</text>
</a>
</g>
</g>
<!-- Node2&#45;&gt;Node29 -->
<g id="edge49" class="edge">
<title>Node2&#45;&gt;Node29</title>
<path fill="none" stroke="midnightblue" d="M448.06,-515.49C483.77,-508.98 527.97,-497.8 564,-479 593.34,-463.69 621,-436.55 636.96,-419.18"/>
<polygon fill="midnightblue" stroke="midnightblue" points="639.74,-421.32 643.81,-411.54 634.53,-416.65 639.74,-421.32"/>
</g>
<!-- Node30 -->
<g id="node30" class="node">
<title>Node30</title>
<g id="a_node30"><a xlink:href="VectorDynSize_8h.html" target="_top" xlink:title=" ">
<polygon fill="none" stroke="black" points="27.5,-392.5 27.5,-411.5 194.5,-411.5 194.5,-392.5 27.5,-392.5"/>
<text text-anchor="middle" x="111" y="-399.5" font-family="FreeSans.ttf" font-size="10.00">iDynTree/Core/VectorDynSize.h</text>
</a>
</g>
</g>
<!-- Node2&#45;&gt;Node30 -->
<g id="edge54" class="edge">
<title>Node2&#45;&gt;Node30</title>
<path fill="none" stroke="midnightblue" d="M305.68,-515.49C249.68,-508.07 179.82,-495.86 156,-479 136.1,-464.91 123.56,-439.01 116.91,-421.4"/>
<polygon fill="midnightblue" stroke="midnightblue" points="120.12,-419.97 113.53,-411.69 113.52,-422.28 120.12,-419.97"/>
</g>
<!-- Node31 -->
<g id="node31" class="node">
<title>Node31</title>
<g id="a_node31"><a xlink:href="ConvexHullHelpers_8h.html" target="_top" xlink:title=" ">
<polygon fill="none" stroke="black" points="244.5,-454 244.5,-473 409.5,-473 409.5,-454 244.5,-454"/>
<text text-anchor="middle" x="327" y="-461" font-family="FreeSans.ttf" font-size="10.00">iDynTree/ConvexHullHelpers.h</text>
</a>
</g>
</g>
<!-- Node2&#45;&gt;Node31 -->
<g id="edge57" class="edge">
<title>Node2&#45;&gt;Node31</title>
<path fill="none" stroke="midnightblue" d="M374.98,-515.48C366.41,-506.37 352.64,-491.74 342.04,-480.48"/>
<polygon fill="midnightblue" stroke="midnightblue" points="344.41,-477.89 335.01,-473.01 339.31,-482.69 344.41,-477.89"/>
</g>
<!-- Node5&#45;&gt;Node3 -->
<g id="edge5" class="edge">
<title>Node5&#45;&gt;Node3</title>
<path fill="none" stroke="midnightblue" d="M367.02,-392.47C316.96,-385.13 255.48,-373.02 236,-356 212.81,-335.74 212,-321.8 212,-291 212,-291 212,-291 212,-233 212,-150.22 338.16,-129.73 399.41,-124.66"/>
<polygon fill="midnightblue" stroke="midnightblue" points="399.98,-128.13 409.69,-123.91 399.46,-121.15 399.98,-128.13"/>
</g>
<!-- Node6 -->
<g id="node6" class="node">
<title>Node6</title>
<g id="a_node6"><a xlink:href="MatrixView_8h.html" target="_top" xlink:title=" ">
<polygon fill="none" stroke="black" points="610,-112.5 610,-131.5 762,-131.5 762,-112.5 610,-112.5"/>
<text text-anchor="middle" x="686" y="-119.5" font-family="FreeSans.ttf" font-size="10.00">iDynTree/Core/MatrixView.h</text>
</a>
</g>
</g>
<!-- Node5&#45;&gt;Node6 -->
<g id="edge6" class="edge">
<title>Node5&#45;&gt;Node6</title>
<path fill="none" stroke="midnightblue" d="M385.72,-392.48C364.41,-386.15 341.81,-375.14 329,-356 308.79,-325.79 253.24,-330.24 345,-224 381.33,-181.93 535.25,-149.07 623.38,-133.28"/>
<polygon fill="midnightblue" stroke="midnightblue" points="624.02,-136.72 633.26,-131.53 622.8,-129.83 624.02,-136.72"/>
</g>
<!-- Node7 -->
<g id="node7" class="node">
<title>Node7</title>
<g id="a_node7"><a xlink:title=" ">
<polygon fill="none" stroke="#bfbfbf" points="849,-0.5 849,-19.5 901,-19.5 901,-0.5 849,-0.5"/>
<text text-anchor="middle" x="875" y="-7.5" font-family="FreeSans.ttf" font-size="10.00">cassert</text>
</a>
</g>
</g>
<!-- Node6&#45;&gt;Node7 -->
<g id="edge7" class="edge">
<title>Node6&#45;&gt;Node7</title>
<path fill="none" stroke="midnightblue" d="M698.8,-112.45C718.08,-99.68 755.83,-75.1 789,-56 808.53,-44.75 831.13,-32.97 848.26,-24.29"/>
<polygon fill="midnightblue" stroke="midnightblue" points="850.29,-27.19 857.65,-19.56 847.14,-20.93 850.29,-27.19"/>
</g>
<!-- Node8 -->
<g id="node8" class="node">
<title>Node8</title>
<g id="a_node8"><a xlink:title=" ">
<polygon fill="none" stroke="#bfbfbf" points="421.5,-0.5 421.5,-19.5 490.5,-19.5 490.5,-0.5 421.5,-0.5"/>
<text text-anchor="middle" x="456" y="-7.5" font-family="FreeSans.ttf" font-size="10.00">type_traits</text>
</a>
</g>
</g>
<!-- Node6&#45;&gt;Node8 -->
<g id="edge8" class="edge">
<title>Node6&#45;&gt;Node8</title>
<path fill="none" stroke="midnightblue" d="M667.95,-112.37C627.73,-93.13 530.54,-46.65 483.04,-23.93"/>
<polygon fill="midnightblue" stroke="midnightblue" points="484.5,-20.75 473.96,-19.59 481.48,-27.06 484.5,-20.75"/>
</g>
<!-- Node9 -->
<g id="node9" class="node">
<title>Node9</title>
<g id="a_node9"><a xlink:href="Span_8h.html" target="_top" xlink:title=" ">
<polygon fill="none" stroke="black" points="615.5,-56.5 615.5,-75.5 736.5,-75.5 736.5,-56.5 615.5,-56.5"/>
<text text-anchor="middle" x="676" y="-63.5" font-family="FreeSans.ttf" font-size="10.00">iDynTree/Core/Span.h</text>
</a>
</g>
</g>
<!-- Node6&#45;&gt;Node9 -->
<g id="edge9" class="edge">
<title>Node6&#45;&gt;Node9</title>
<path fill="none" stroke="midnightblue" d="M684.35,-112.08C683.02,-104.93 681.12,-94.64 679.46,-85.69"/>
<polygon fill="midnightblue" stroke="midnightblue" points="682.88,-84.95 677.62,-75.75 676,-86.22 682.88,-84.95"/>
</g>
<!-- Node17 -->
<g id="node17" class="node">
<title>Node17</title>
<g id="a_node17"><a xlink:href="Utils_8h.html" target="_top" xlink:title=" ">
<polygon fill="none" stroke="black" points="1150.5,-56.5 1150.5,-75.5 1269.5,-75.5 1269.5,-56.5 1150.5,-56.5"/>
<text text-anchor="middle" x="1210" y="-63.5" font-family="FreeSans.ttf" font-size="10.00">iDynTree/Core/Utils.h</text>
</a>
</g>
</g>
<!-- Node6&#45;&gt;Node17 -->
<g id="edge19" class="edge">
<title>Node6&#45;&gt;Node17</title>
<path fill="none" stroke="midnightblue" d="M762.19,-113.15C863.77,-102.68 1042.1,-84.3 1140.28,-74.19"/>
<polygon fill="midnightblue" stroke="midnightblue" points="1140.81,-77.65 1150.39,-73.14 1140.09,-70.69 1140.81,-77.65"/>
</g>
<!-- Node9&#45;&gt;Node7 -->
<g id="edge10" class="edge">
<title>Node9&#45;&gt;Node7</title>
<path fill="none" stroke="midnightblue" d="M707.53,-56.44C743.2,-46.77 801.17,-31.03 838.69,-20.85"/>
<polygon fill="midnightblue" stroke="midnightblue" points="839.97,-24.13 848.7,-18.14 838.13,-17.38 839.97,-24.13"/>
</g>
<!-- Node9&#45;&gt;Node8 -->
<g id="edge17" class="edge">
<title>Node9&#45;&gt;Node8</title>
<path fill="none" stroke="midnightblue" d="M641.14,-56.44C603.08,-47.1 542.04,-32.12 500.54,-21.93"/>
<polygon fill="midnightblue" stroke="midnightblue" points="501.24,-18.5 490.7,-19.52 499.57,-25.3 501.24,-18.5"/>
</g>
<!-- Node9&#45;&gt;Node10 -->
<g id="edge11" class="edge">
<title>Node9&#45;&gt;Node10</title>
<path fill="none" stroke="midnightblue" d="M736.58,-60.74C886.62,-50.19 1272.6,-23.05 1401.43,-13.99"/>
<polygon fill="midnightblue" stroke="midnightblue" points="1401.94,-17.47 1411.67,-13.27 1401.45,-10.48 1401.94,-17.47"/>
</g>
<!-- Node11 -->
<g id="node11" class="node">
<title>Node11</title>
<g id="a_node11"><a xlink:title=" ">
<polygon fill="none" stroke="#bfbfbf" points="655,-0.5 655,-19.5 697,-19.5 697,-0.5 655,-0.5"/>
<text text-anchor="middle" x="676" y="-7.5" font-family="FreeSans.ttf" font-size="10.00">array</text>
</a>
</g>
</g>
<!-- Node9&#45;&gt;Node11 -->
<g id="edge12" class="edge">
<title>Node9&#45;&gt;Node11</title>
<path fill="none" stroke="midnightblue" d="M676,-56.08C676,-49.01 676,-38.86 676,-29.99"/>
<polygon fill="midnightblue" stroke="midnightblue" points="679.5,-29.75 676,-19.75 672.5,-29.75 679.5,-29.75"/>
</g>
<!-- Node12 -->
<g id="node12" class="node">
<title>Node12</title>
<g id="a_node12"><a xlink:title=" ">
<polygon fill="none" stroke="#bfbfbf" points="1081.5,-0.5 1081.5,-19.5 1134.5,-19.5 1134.5,-0.5 1081.5,-0.5"/>
<text text-anchor="middle" x="1108" y="-7.5" font-family="FreeSans.ttf" font-size="10.00">cstddef</text>
</a>
</g>
</g>
<!-- Node9&#45;&gt;Node12 -->
<g id="edge13" class="edge">
<title>Node9&#45;&gt;Node12</title>
<path fill="none" stroke="midnightblue" d="M736.52,-57.43C827.49,-46.06 996.72,-24.91 1071.2,-15.6"/>
<polygon fill="midnightblue" stroke="midnightblue" points="1071.99,-19.03 1081.48,-14.32 1071.12,-12.08 1071.99,-19.03"/>
</g>
<!-- Node13 -->
<g id="node13" class="node">
<title>Node13</title>
<g id="a_node13"><a xlink:title=" ">
<polygon fill="none" stroke="#bfbfbf" points="715.5,-0.5 715.5,-19.5 768.5,-19.5 768.5,-0.5 715.5,-0.5"/>
<text text-anchor="middle" x="742" y="-7.5" font-family="FreeSans.ttf" font-size="10.00">iterator</text>
</a>
</g>
</g>
<!-- Node9&#45;&gt;Node13 -->
<g id="edge14" class="edge">
<title>Node9&#45;&gt;Node13</title>
<path fill="none" stroke="midnightblue" d="M686.6,-56.32C696.46,-48.26 711.35,-36.08 723.22,-26.37"/>
<polygon fill="midnightblue" stroke="midnightblue" points="725.68,-28.88 731.2,-19.83 721.25,-23.46 725.68,-28.88"/>
</g>
<!-- Node14 -->
<g id="node14" class="node">
<title>Node14</title>
<g id="a_node14"><a xlink:title=" ">
<polygon fill="none" stroke="#bfbfbf" points="787,-0.5 787,-19.5 831,-19.5 831,-0.5 787,-0.5"/>
<text text-anchor="middle" x="809" y="-7.5" font-family="FreeSans.ttf" font-size="10.00">limits</text>
</a>
</g>
</g>
<!-- Node9&#45;&gt;Node14 -->
<g id="edge15" class="edge">
<title>Node9&#45;&gt;Node14</title>
<path fill="none" stroke="midnightblue" d="M697.07,-56.44C719.06,-47.52 753.73,-33.44 778.66,-23.32"/>
<polygon fill="midnightblue" stroke="midnightblue" points="780.08,-26.52 788.02,-19.52 777.44,-20.04 780.08,-26.52"/>
</g>
<!-- Node15 -->
<g id="node15" class="node">
<title>Node15</title>
<g id="a_node15"><a xlink:title=" ">
<polygon fill="none" stroke="#bfbfbf" points="508.5,-0.5 508.5,-19.5 573.5,-19.5 573.5,-0.5 508.5,-0.5"/>
<text text-anchor="middle" x="541" y="-7.5" font-family="FreeSans.ttf" font-size="10.00">stdexcept</text>
</a>
</g>
</g>
<!-- Node9&#45;&gt;Node15 -->
<g id="edge16" class="edge">
<title>Node9&#45;&gt;Node15</title>
<path fill="none" stroke="midnightblue" d="M654.61,-56.44C632.29,-47.52 597.1,-33.44 571.79,-23.32"/>
<polygon fill="midnightblue" stroke="midnightblue" points="572.88,-19.98 562.29,-19.52 570.28,-26.48 572.88,-19.98"/>
</g>
<!-- Node16 -->
<g id="node16" class="node">
<title>Node16</title>
<g id="a_node16"><a xlink:title=" ">
<polygon fill="none" stroke="#bfbfbf" points="591.5,-0.5 591.5,-19.5 636.5,-19.5 636.5,-0.5 591.5,-0.5"/>
<text text-anchor="middle" x="614" y="-7.5" font-family="FreeSans.ttf" font-size="10.00">utility</text>
</a>
</g>
</g>
<!-- Node9&#45;&gt;Node16 -->
<g id="edge18" class="edge">
<title>Node9&#45;&gt;Node16</title>
<path fill="none" stroke="midnightblue" d="M666.04,-56.32C656.87,-48.34 643.06,-36.31 631.97,-26.65"/>
<polygon fill="midnightblue" stroke="midnightblue" points="633.98,-23.76 624.14,-19.83 629.38,-29.04 633.98,-23.76"/>
</g>
<!-- Node17&#45;&gt;Node12 -->
<g id="edge20" class="edge">
<title>Node17&#45;&gt;Node12</title>
<path fill="none" stroke="midnightblue" d="M1193.61,-56.32C1177.33,-47.7 1152.13,-34.36 1133.28,-24.39"/>
<polygon fill="midnightblue" stroke="midnightblue" points="1134.82,-21.24 1124.35,-19.65 1131.55,-27.43 1134.82,-21.24"/>
</g>
<!-- Node18 -->
<g id="node18" class="node">
<title>Node18</title>
<g id="a_node18"><a xlink:title=" ">
<polygon fill="none" stroke="#bfbfbf" points="1170,-0.5 1170,-19.5 1250,-19.5 1250,-0.5 1170,-0.5"/>
<text text-anchor="middle" x="1210" y="-7.5" font-family="FreeSans.ttf" font-size="10.00">CoreExport.h</text>
</a>
</g>
</g>
<!-- Node17&#45;&gt;Node18 -->
<g id="edge21" class="edge">
<title>Node17&#45;&gt;Node18</title>
<path fill="none" stroke="midnightblue" d="M1210,-56.08C1210,-49.01 1210,-38.86 1210,-29.99"/>
<polygon fill="midnightblue" stroke="midnightblue" points="1213.5,-29.75 1210,-19.75 1206.5,-29.75 1213.5,-29.75"/>
</g>
<!-- Node19&#45;&gt;Node3 -->
<g id="edge48" class="edge">
<title>Node19&#45;&gt;Node3</title>
<path fill="none" stroke="midnightblue" d="M503.42,-336.44C453.64,-324.92 379.51,-299.12 345,-244 319.9,-203.91 375.01,-159.37 408.58,-137.18"/>
<polygon fill="midnightblue" stroke="midnightblue" points="410.86,-139.88 417.39,-131.54 407.08,-133.99 410.86,-139.88"/>
</g>
<!-- Node20 -->
<g id="node20" class="node">
<title>Node20</title>
<g id="a_node20"><a xlink:href="PositionRaw_8h.html" target="_top" xlink:title=" ">
<polygon fill="none" stroke="black" points="354,-224.5 354,-243.5 510,-243.5 510,-224.5 354,-224.5"/>
<text text-anchor="middle" x="432" y="-231.5" font-family="FreeSans.ttf" font-size="10.00">iDynTree/Core/PositionRaw.h</text>
</a>
</g>
</g>
<!-- Node19&#45;&gt;Node20 -->
<g id="edge23" class="edge">
<title>Node19&#45;&gt;Node20</title>
<path fill="none" stroke="midnightblue" d="M543.51,-336.37C523.1,-317.81 474.8,-273.91 448.98,-250.44"/>
<polygon fill="midnightblue" stroke="midnightblue" points="451.2,-247.73 441.45,-243.59 446.5,-252.91 451.2,-247.73"/>
</g>
<!-- Node24 -->
<g id="node24" class="node">
<title>Node24</title>
<g id="a_node24"><a xlink:href="Rotation_8h.html" target="_top" xlink:title=" ">
<polygon fill="none" stroke="black" points="679,-280.5 679,-299.5 817,-299.5 817,-280.5 679,-280.5"/>
<text text-anchor="middle" x="748" y="-287.5" font-family="FreeSans.ttf" font-size="10.00">iDynTree/Core/Rotation.h</text>
</a>
</g>
</g>
<!-- Node19&#45;&gt;Node24 -->
<g id="edge33" class="edge">
<title>Node19&#45;&gt;Node24</title>
<path fill="none" stroke="midnightblue" d="M583.9,-336.44C617.27,-327.2 670.59,-312.44 707.35,-302.26"/>
<polygon fill="midnightblue" stroke="midnightblue" points="708.54,-305.56 717.25,-299.52 706.67,-298.81 708.54,-305.56"/>
</g>
<!-- Node20&#45;&gt;Node3 -->
<g id="edge32" class="edge">
<title>Node20&#45;&gt;Node3</title>
<path fill="none" stroke="midnightblue" d="M432,-224.37C432,-206.62 432,-165.67 432,-141.6"/>
<polygon fill="midnightblue" stroke="midnightblue" points="435.5,-141.59 432,-131.59 428.5,-141.59 435.5,-141.59"/>
</g>
<!-- Node21 -->
<g id="node21" class="node">
<title>Node21</title>
<g id="a_node21"><a xlink:href="VectorFixSize_8h.html" target="_top" xlink:title=" ">
<polygon fill="none" stroke="black" points="991,-168.5 991,-187.5 1153,-187.5 1153,-168.5 991,-168.5"/>
<text text-anchor="middle" x="1072" y="-175.5" font-family="FreeSans.ttf" font-size="10.00">iDynTree/Core/VectorFixSize.h</text>
</a>
</g>
</g>
<!-- Node20&#45;&gt;Node21 -->
<g id="edge24" class="edge">
<title>Node20&#45;&gt;Node21</title>
<path fill="none" stroke="midnightblue" d="M510.16,-226.41C628.98,-216.38 854.57,-197.35 980.74,-186.7"/>
<polygon fill="midnightblue" stroke="midnightblue" points="981.1,-190.18 990.77,-185.85 980.51,-183.21 981.1,-190.18"/>
</g>
<!-- Node21&#45;&gt;Node3 -->
<g id="edge27" class="edge">
<title>Node21&#45;&gt;Node3</title>
<path fill="none" stroke="midnightblue" d="M990.94,-170.16C848.78,-158.17 560.44,-133.84 464.13,-125.71"/>
<polygon fill="midnightblue" stroke="midnightblue" points="464.39,-122.22 454.13,-124.87 463.8,-129.2 464.39,-122.22"/>
</g>
<!-- Node21&#45;&gt;Node7 -->
<g id="edge29" class="edge">
<title>Node21&#45;&gt;Node7</title>
<path fill="none" stroke="midnightblue" d="M1067.06,-168.26C1059.29,-155.04 1043.22,-129.62 1025,-112 986.35,-74.62 932.27,-42.05 900.71,-24.58"/>
<polygon fill="midnightblue" stroke="midnightblue" points="902.14,-21.37 891.68,-19.66 898.78,-27.52 902.14,-21.37"/>
</g>
<!-- Node21&#45;&gt;Node9 -->
<g id="edge26" class="edge">
<title>Node21&#45;&gt;Node9</title>
<path fill="none" stroke="midnightblue" d="M1064.66,-168.06C1052.22,-153.57 1025.44,-125.27 996,-112 952.78,-92.51 827.14,-79.14 746.75,-72.3"/>
<polygon fill="midnightblue" stroke="midnightblue" points="746.95,-68.81 736.69,-71.46 746.37,-75.78 746.95,-68.81"/>
</g>
<!-- Node21&#45;&gt;Node12 -->
<g id="edge30" class="edge">
<title>Node21&#45;&gt;Node12</title>
<path fill="none" stroke="midnightblue" d="M1073.94,-168.08C1079.6,-141.95 1096.24,-65.21 1103.97,-29.58"/>
<polygon fill="midnightblue" stroke="midnightblue" points="1107.44,-30.08 1106.14,-19.57 1100.6,-28.6 1107.44,-30.08"/>
</g>
<!-- Node21&#45;&gt;Node17 -->
<g id="edge25" class="edge">
<title>Node21&#45;&gt;Node17</title>
<path fill="none" stroke="midnightblue" d="M1081.63,-168.33C1095.86,-155.62 1123.46,-131.35 1148,-112 1161.45,-101.4 1177.05,-90.08 1189.24,-81.44"/>
<polygon fill="midnightblue" stroke="midnightblue" points="1191.27,-84.3 1197.43,-75.68 1187.24,-78.57 1191.27,-84.3"/>
</g>
<!-- Node22 -->
<g id="node22" class="node">
<title>Node22</title>
<g id="a_node22"><a xlink:title=" ">
<polygon fill="none" stroke="#bfbfbf" points="1157,-112.5 1157,-131.5 1213,-131.5 1213,-112.5 1157,-112.5"/>
<text text-anchor="middle" x="1185" y="-119.5" font-family="FreeSans.ttf" font-size="10.00">sstream</text>
</a>
</g>
</g>
<!-- Node21&#45;&gt;Node22 -->
<g id="edge28" class="edge">
<title>Node21&#45;&gt;Node22</title>
<path fill="none" stroke="midnightblue" d="M1089.91,-168.44C1108.25,-159.68 1137.01,-145.94 1158.09,-135.86"/>
<polygon fill="midnightblue" stroke="midnightblue" points="1159.67,-138.99 1167.18,-131.52 1156.65,-132.67 1159.67,-138.99"/>
</g>
<!-- Node23 -->
<g id="node23" class="node">
<title>Node23</title>
<g id="a_node23"><a xlink:title=" ">
<polygon fill="none" stroke="#bfbfbf" points="937,-112.5 937,-131.5 987,-131.5 987,-112.5 937,-112.5"/>
<text text-anchor="middle" x="962" y="-119.5" font-family="FreeSans.ttf" font-size="10.00">cstring</text>
</a>
</g>
</g>
<!-- Node21&#45;&gt;Node23 -->
<g id="edge31" class="edge">
<title>Node21&#45;&gt;Node23</title>
<path fill="none" stroke="midnightblue" d="M1054.33,-168.32C1036.61,-159.62 1009.1,-146.12 988.71,-136.11"/>
<polygon fill="midnightblue" stroke="midnightblue" points="990.15,-132.92 979.63,-131.65 987.06,-139.2 990.15,-132.92"/>
</g>
<!-- Node24&#45;&gt;Node3 -->
<g id="edge34" class="edge">
<title>Node24&#45;&gt;Node3</title>
<path fill="none" stroke="midnightblue" d="M683.09,-280.44C653.96,-274.09 620.5,-263.07 595,-244 562.81,-219.93 577.07,-193.49 546,-168 522.11,-148.4 488.63,-136.55 464.13,-129.97"/>
<polygon fill="midnightblue" stroke="midnightblue" points="464.79,-126.53 454.24,-127.47 463.07,-133.32 464.79,-126.53"/>
</g>
<!-- Node24&#45;&gt;Node21 -->
<g id="edge47" class="edge">
<title>Node24&#45;&gt;Node21</title>
<path fill="none" stroke="midnightblue" d="M769.8,-280.48C802.92,-267.64 867.97,-242.85 924,-224 960.48,-211.73 1002.49,-199.1 1032.41,-190.35"/>
<polygon fill="midnightblue" stroke="midnightblue" points="1033.45,-193.7 1042.07,-187.54 1031.49,-186.97 1033.45,-193.7"/>
</g>
<!-- Node25 -->
<g id="node25" class="node">
<title>Node25</title>
<g id="a_node25"><a xlink:href="GeomVector3_8h.html" target="_top" xlink:title=" ">
<polygon fill="none" stroke="black" points="1206.5,-224.5 1206.5,-243.5 1369.5,-243.5 1369.5,-224.5 1206.5,-224.5"/>
<text text-anchor="middle" x="1288" y="-231.5" font-family="FreeSans.ttf" font-size="10.00">iDynTree/Core/GeomVector3.h</text>
</a>
</g>
</g>
<!-- Node24&#45;&gt;Node25 -->
<g id="edge35" class="edge">
<title>Node24&#45;&gt;Node25</title>
<path fill="none" stroke="midnightblue" d="M817.21,-282.08C913.71,-272.43 1088.86,-254.91 1196.18,-244.18"/>
<polygon fill="midnightblue" stroke="midnightblue" points="1196.74,-247.64 1206.35,-243.17 1196.05,-240.68 1196.74,-247.64"/>
</g>
<!-- Node26 -->
<g id="node26" class="node">
<title>Node26</title>
<g id="a_node26"><a xlink:href="RotationRaw_8h.html" target="_top" xlink:title=" ">
<polygon fill="none" stroke="black" points="604,-224.5 604,-243.5 762,-243.5 762,-224.5 604,-224.5"/>
<text text-anchor="middle" x="683" y="-231.5" font-family="FreeSans.ttf" font-size="10.00">iDynTree/Core/RotationRaw.h</text>
</a>
</g>
</g>
<!-- Node24&#45;&gt;Node26 -->
<g id="edge37" class="edge">
<title>Node24&#45;&gt;Node26</title>
<path fill="none" stroke="midnightblue" d="M737.56,-280.32C727.85,-272.26 713.18,-260.08 701.5,-250.37"/>
<polygon fill="midnightblue" stroke="midnightblue" points="703.56,-247.53 693.63,-243.83 699.09,-252.92 703.56,-247.53"/>
</g>
<!-- Node25&#45;&gt;Node21 -->
<g id="edge36" class="edge">
<title>Node25&#45;&gt;Node21</title>
<path fill="none" stroke="midnightblue" d="M1253.77,-224.44C1216.49,-215.12 1156.73,-200.18 1115.99,-190"/>
<polygon fill="midnightblue" stroke="midnightblue" points="1116.62,-186.55 1106.07,-187.52 1114.92,-193.34 1116.62,-186.55"/>
</g>
<!-- Node26&#45;&gt;Node3 -->
<g id="edge46" class="edge">
<title>Node26&#45;&gt;Node3</title>
<path fill="none" stroke="midnightblue" d="M672.34,-224.47C654.84,-210.83 618.5,-184.01 584,-168 544.41,-149.63 495.55,-136.75 464.09,-129.61"/>
<polygon fill="midnightblue" stroke="midnightblue" points="464.64,-126.15 454.12,-127.41 463.13,-132.98 464.64,-126.15"/>
</g>
<!-- Node27 -->
<g id="node27" class="node">
<title>Node27</title>
<g id="a_node27"><a xlink:href="MatrixFixSize_8h.html" target="_top" xlink:title=" ">
<polygon fill="none" stroke="black" points="712.5,-168.5 712.5,-187.5 875.5,-187.5 875.5,-168.5 712.5,-168.5"/>
<text text-anchor="middle" x="794" y="-175.5" font-family="FreeSans.ttf" font-size="10.00">iDynTree/Core/MatrixFixSize.h</text>
</a>
</g>
</g>
<!-- Node26&#45;&gt;Node27 -->
<g id="edge38" class="edge">
<title>Node26&#45;&gt;Node27</title>
<path fill="none" stroke="midnightblue" d="M700.83,-224.32C718.72,-215.62 746.48,-202.12 767.05,-192.11"/>
<polygon fill="midnightblue" stroke="midnightblue" points="768.75,-195.18 776.21,-187.65 765.69,-188.88 768.75,-195.18"/>
</g>
<!-- Node27&#45;&gt;Node3 -->
<g id="edge43" class="edge">
<title>Node27&#45;&gt;Node3</title>
<path fill="none" stroke="midnightblue" d="M736.64,-168.44C659.72,-156.97 525.73,-136.98 464.37,-127.83"/>
<polygon fill="midnightblue" stroke="midnightblue" points="464.53,-124.31 454.13,-126.3 463.5,-131.24 464.53,-124.31"/>
</g>
<!-- Node27&#45;&gt;Node6 -->
<g id="edge40" class="edge">
<title>Node27&#45;&gt;Node6</title>
<path fill="none" stroke="midnightblue" d="M776.65,-168.32C759.33,-159.66 732.48,-146.24 712.5,-136.25"/>
<polygon fill="midnightblue" stroke="midnightblue" points="713.82,-133 703.31,-131.65 710.69,-139.26 713.82,-133"/>
</g>
<!-- Node27&#45;&gt;Node7 -->
<g id="edge41" class="edge">
<title>Node27&#45;&gt;Node7</title>
<path fill="none" stroke="midnightblue" d="M797.42,-168.49C802.5,-155.99 812.48,-131.96 822,-112 836.22,-82.18 854.41,-48.34 865.36,-28.38"/>
<polygon fill="midnightblue" stroke="midnightblue" points="868.47,-29.98 870.24,-19.53 862.34,-26.6 868.47,-29.98"/>
</g>
<!-- Node27&#45;&gt;Node17 -->
<g id="edge39" class="edge">
<title>Node27&#45;&gt;Node17</title>
<path fill="none" stroke="midnightblue" d="M798.53,-168.48C806.69,-154.08 825.32,-125.23 850,-112 898.71,-85.89 1049.81,-74.43 1140.03,-69.81"/>
<polygon fill="midnightblue" stroke="midnightblue" points="1140.36,-73.29 1150.18,-69.3 1140.02,-66.3 1140.36,-73.29"/>
</g>
<!-- Node27&#45;&gt;Node22 -->
<g id="edge45" class="edge">
<title>Node27&#45;&gt;Node22</title>
<path fill="none" stroke="midnightblue" d="M855.96,-168.44C937.51,-157.18 1078.46,-137.71 1146.31,-128.34"/>
<polygon fill="midnightblue" stroke="midnightblue" points="1147.12,-131.76 1156.55,-126.93 1146.16,-124.83 1147.12,-131.76"/>
</g>
<!-- Node27&#45;&gt;Node23 -->
<g id="edge42" class="edge">
<title>Node27&#45;&gt;Node23</title>
<path fill="none" stroke="midnightblue" d="M820.62,-168.44C849.42,-159.19 895.47,-144.39 927.14,-134.21"/>
<polygon fill="midnightblue" stroke="midnightblue" points="928.43,-137.47 936.88,-131.08 926.29,-130.8 928.43,-137.47"/>
</g>
<!-- Node28 -->
<g id="node28" class="node">
<title>Node28</title>
<g id="a_node28"><a xlink:title=" ">
<polygon fill="none" stroke="#bfbfbf" points="859,-112.5 859,-131.5 919,-131.5 919,-112.5 859,-112.5"/>
<text text-anchor="middle" x="889" y="-119.5" font-family="FreeSans.ttf" font-size="10.00">iostream</text>
</a>
</g>
</g>
<!-- Node27&#45;&gt;Node28 -->
<g id="edge44" class="edge">
<title>Node27&#45;&gt;Node28</title>
<path fill="none" stroke="midnightblue" d="M809.26,-168.32C824.22,-159.82 847.25,-146.73 864.73,-136.8"/>
<polygon fill="midnightblue" stroke="midnightblue" points="866.81,-139.64 873.77,-131.65 863.35,-133.55 866.81,-139.64"/>
</g>
<!-- Node29&#45;&gt;Node3 -->
<g id="edge53" class="edge">
<title>Node29&#45;&gt;Node3</title>
<path fill="none" stroke="midnightblue" d="M577.98,-393.81C471.98,-381.32 288,-351.01 288,-291 288,-291 288,-291 288,-233 288,-176.94 357.78,-145.62 400.19,-131.77"/>
<polygon fill="midnightblue" stroke="midnightblue" points="401.31,-135.09 409.82,-128.77 399.23,-128.4 401.31,-135.09"/>
</g>
<!-- Node29&#45;&gt;Node19 -->
<g id="edge50" class="edge">
<title>Node29&#45;&gt;Node19</title>
<path fill="none" stroke="midnightblue" d="M635.25,-392.32C619.68,-383.74 595.62,-370.49 577.54,-360.52"/>
<polygon fill="midnightblue" stroke="midnightblue" points="579.15,-357.42 568.71,-355.65 575.78,-363.55 579.15,-357.42"/>
</g>
<!-- Node29&#45;&gt;Node24 -->
<g id="edge51" class="edge">
<title>Node29&#45;&gt;Node24</title>
<path fill="none" stroke="midnightblue" d="M658.61,-392.37C674.76,-374.05 712.68,-331.05 733.57,-307.36"/>
<polygon fill="midnightblue" stroke="midnightblue" points="736.44,-309.41 740.42,-299.59 731.18,-304.78 736.44,-309.41"/>
</g>
<!-- Node29&#45;&gt;Node27 -->
<g id="edge52" class="edge">
<title>Node29&#45;&gt;Node27</title>
<path fill="none" stroke="midnightblue" d="M649.61,-392.18C646.69,-370.4 642.32,-313.4 670,-280 700.41,-243.31 737.34,-277.74 771,-244 783.27,-231.7 789.02,-212.44 791.7,-198.08"/>
<polygon fill="midnightblue" stroke="midnightblue" points="795.22,-198.24 793.26,-187.83 788.3,-197.19 795.22,-198.24"/>
</g>
<!-- Node30&#45;&gt;Node3 -->
<g id="edge56" class="edge">
<title>Node30&#45;&gt;Node3</title>
<path fill="none" stroke="midnightblue" d="M111.39,-392.44C112.21,-373.94 114,-328.83 114,-291 114,-291 114,-291 114,-233 114,-197.61 130,-186.78 160,-168 199.5,-143.27 336.29,-130.12 399.51,-125.25"/>
<polygon fill="midnightblue" stroke="midnightblue" points="400,-128.72 409.71,-124.49 399.47,-121.74 400,-128.72"/>
</g>
<!-- Node30&#45;&gt;Node9 -->
<g id="edge55" class="edge">
<title>Node30&#45;&gt;Node9</title>
<path fill="none" stroke="midnightblue" d="M99.91,-392.33C79.49,-375.29 38,-335.24 38,-291 38,-291 38,-291 38,-177 38,-119.96 439.17,-84.21 605.28,-71.86"/>
<polygon fill="midnightblue" stroke="midnightblue" points="605.69,-75.34 615.4,-71.11 605.17,-68.36 605.69,-75.34"/>
</g>
<!-- Node31&#45;&gt;Node3 -->
<g id="edge58" class="edge">
<title>Node31&#45;&gt;Node3</title>
<path fill="none" stroke="midnightblue" d="M320.77,-453.6C310.68,-439.56 289.69,-411.8 268,-392 222.71,-350.66 174,-352.32 174,-291 174,-291 174,-291 174,-233 174,-136.17 329.68,-123.4 399.18,-122.52"/>
<polygon fill="midnightblue" stroke="midnightblue" points="399.57,-126.02 409.56,-122.47 399.54,-119.02 399.57,-126.02"/>
</g>
<!-- Node31&#45;&gt;Node4 -->
<g id="edge59" class="edge">
<title>Node31&#45;&gt;Node4</title>
<path fill="none" stroke="midnightblue" d="M313.96,-453.98C299.23,-444.34 275.03,-428.52 257.49,-417.05"/>
<polygon fill="midnightblue" stroke="midnightblue" points="259.3,-414.05 249.01,-411.51 255.47,-419.91 259.3,-414.05"/>
</g>
<!-- Node31&#45;&gt;Node5 -->
<g id="edge60" class="edge">
<title>Node31&#45;&gt;Node5</title>
<path fill="none" stroke="midnightblue" d="M342.9,-453.98C361.28,-444.12 391.76,-427.79 413.24,-416.27"/>
<polygon fill="midnightblue" stroke="midnightblue" points="414.97,-419.32 422.13,-411.51 411.66,-413.15 414.97,-419.32"/>
</g>
<!-- Node31&#45;&gt;Node19 -->
<g id="edge61" class="edge">
<title>Node31&#45;&gt;Node19</title>
<path fill="none" stroke="midnightblue" d="M326.52,-453.71C326.21,-438.78 327.9,-408.48 345,-392 363.58,-374.09 423.81,-362.33 474.71,-355.34"/>
<polygon fill="midnightblue" stroke="midnightblue" points="475.3,-358.79 484.75,-354 474.38,-351.85 475.3,-358.79"/>
</g>
<!-- Node31&#45;&gt;Node29 -->
<g id="edge62" class="edge">
<title>Node31&#45;&gt;Node29</title>
<path fill="none" stroke="midnightblue" d="M373.42,-453.98C431.77,-443.26 531.84,-424.88 594.55,-413.37"/>
<polygon fill="midnightblue" stroke="midnightblue" points="595.46,-416.76 604.66,-411.51 594.2,-409.87 595.46,-416.76"/>
</g>
<!-- Node31&#45;&gt;Node30 -->
<g id="edge63" class="edge">
<title>Node31&#45;&gt;Node30</title>
<path fill="none" stroke="midnightblue" d="M296.05,-453.98C258.12,-443.53 193.72,-425.79 151.78,-414.23"/>
<polygon fill="midnightblue" stroke="midnightblue" points="152.46,-410.79 141.89,-411.51 150.6,-417.54 152.46,-410.79"/>
</g>
<!-- Node32&#45;&gt;Node3 -->
<g id="edge65" class="edge">
<title>Node32&#45;&gt;Node3</title>
<path fill="none" stroke="midnightblue" d="M787.62,-392.42C752.04,-369.48 652.45,-304.31 574,-244 527.2,-208.02 475.05,-161.93 448.9,-138.37"/>
<polygon fill="midnightblue" stroke="midnightblue" points="451.13,-135.67 441.37,-131.56 446.43,-140.86 451.13,-135.67"/>
</g>
<!-- Node32&#45;&gt;Node17 -->
<g id="edge71" class="edge">
<title>Node32&#45;&gt;Node17</title>
<path fill="none" stroke="midnightblue" d="M823.62,-392.4C886.75,-367.65 1068.35,-291.38 1192,-188 1216.5,-167.52 1226.4,-162.12 1237,-132 1242.87,-115.33 1233.49,-96.75 1224.22,-83.74"/>
<polygon fill="midnightblue" stroke="midnightblue" points="1226.89,-81.48 1218,-75.71 1221.36,-85.76 1226.89,-81.48"/>
</g>
<!-- Node32&#45;&gt;Node19 -->
<g id="edge70" class="edge">
<title>Node32&#45;&gt;Node19</title>
<path fill="none" stroke="midnightblue" d="M761.7,-392.44C718.44,-383.02 648.83,-367.87 602.03,-357.68"/>
<polygon fill="midnightblue" stroke="midnightblue" points="602.63,-354.22 592.11,-355.52 601.14,-361.06 602.63,-354.22"/>
</g>
<!-- Node33 -->
<g id="node33" class="node">
<title>Node33</title>
<g id="a_node33"><a xlink:href="Direction_8h.html" target="_top" xlink:title=" ">
<polygon fill="none" stroke="black" points="932.5,-224.5 932.5,-243.5 1073.5,-243.5 1073.5,-224.5 932.5,-224.5"/>
<text text-anchor="middle" x="1003" y="-231.5" font-family="FreeSans.ttf" font-size="10.00">iDynTree/Core/Direction.h</text>
</a>
</g>
</g>
<!-- Node32&#45;&gt;Node33 -->
<g id="edge66" class="edge">
<title>Node32&#45;&gt;Node33</title>
<path fill="none" stroke="midnightblue" d="M811.58,-392.31C844.16,-365.53 943.33,-284.03 984.64,-250.09"/>
<polygon fill="midnightblue" stroke="midnightblue" points="987.02,-252.66 992.53,-243.61 982.58,-247.25 987.02,-252.66"/>
</g>
<!-- Node33&#45;&gt;Node3 -->
<g id="edge67" class="edge">
<title>Node33&#45;&gt;Node3</title>
<path fill="none" stroke="midnightblue" d="M934.8,-224.48C873.81,-216.46 782.1,-203.39 703,-188 679.56,-183.44 531.08,-147.25 464.38,-130.93"/>
<polygon fill="midnightblue" stroke="midnightblue" points="464.95,-127.47 454.4,-128.49 463.29,-134.27 464.95,-127.47"/>
</g>
<!-- Node33&#45;&gt;Node17 -->
<g id="edge69" class="edge">
<title>Node33&#45;&gt;Node17</title>
<path fill="none" stroke="midnightblue" d="M1056.29,-224.49C1088.39,-217.81 1129.26,-206.46 1162,-188 1193.77,-170.09 1207.46,-165.45 1222,-132 1228.5,-117.05 1224.09,-98.68 1218.88,-85.29"/>
<polygon fill="midnightblue" stroke="midnightblue" points="1221.93,-83.54 1214.72,-75.78 1215.52,-86.34 1221.93,-83.54"/>
</g>
<!-- Node33&#45;&gt;Node21 -->
<g id="edge68" class="edge">
<title>Node33&#45;&gt;Node21</title>
<path fill="none" stroke="midnightblue" d="M1014.09,-224.32C1024.49,-216.18 1040.26,-203.84 1052.72,-194.09"/>
<polygon fill="midnightblue" stroke="midnightblue" points="1054.99,-196.75 1060.71,-187.83 1050.68,-191.24 1054.99,-196.75"/>
</g>
<!-- Node34&#45;&gt;Node5 -->
<g id="edge77" class="edge">
<title>Node34&#45;&gt;Node5</title>
<path fill="none" stroke="midnightblue" d="M1021.13,-515.42C972.36,-506.46 893.79,-491.94 826,-479 706.06,-456.1 565.47,-428.33 490.83,-413.52"/>
<polygon fill="midnightblue" stroke="midnightblue" points="491.24,-410.03 480.75,-411.51 489.87,-416.89 491.24,-410.03"/>
</g>
<!-- Node34&#45;&gt;Node12 -->
<g id="edge73" class="edge">
<title>Node34&#45;&gt;Node12</title>
<path fill="none" stroke="midnightblue" d="M1148.83,-524.31C1258.9,-523.29 1448.8,-516 1506,-479 1538.77,-457.8 1550,-442.03 1550,-403 1550,-403 1550,-403 1550,-121 1550,-100.17 1250.49,-39.1 1144.57,-18.15"/>
<polygon fill="midnightblue" stroke="midnightblue" points="1145.14,-14.69 1134.65,-16.19 1143.79,-21.56 1145.14,-14.69"/>
</g>
<!-- Node34&#45;&gt;Node17 -->
<g id="edge94" class="edge">
<title>Node34&#45;&gt;Node17</title>
<path fill="none" stroke="midnightblue" d="M1148.68,-524.65C1253.54,-523.92 1429.23,-516.84 1480,-479 1509.39,-457.1 1512,-439.65 1512,-403 1512,-403 1512,-403 1512,-177 1512,-127.03 1364.19,-93.14 1275.38,-77.29"/>
<polygon fill="midnightblue" stroke="midnightblue" points="1275.85,-73.82 1265.39,-75.54 1274.64,-80.71 1275.85,-73.82"/>
</g>
<!-- Node34&#45;&gt;Node21 -->
<g id="edge76" class="edge">
<title>Node34&#45;&gt;Node21</title>
<path fill="none" stroke="midnightblue" d="M1072.17,-515.43C1081.25,-495.95 1102,-446.64 1102,-403 1102,-403 1102,-403 1102,-289 1102,-255.64 1089,-218.53 1080.11,-197.07"/>
<polygon fill="midnightblue" stroke="midnightblue" points="1083.22,-195.42 1076.05,-187.62 1076.79,-198.19 1083.22,-195.42"/>
</g>
<!-- Node34&#45;&gt;Node27 -->
<g id="edge78" class="edge">
<title>Node34&#45;&gt;Node27</title>
<path fill="none" stroke="midnightblue" d="M1046.47,-515.36C1029.24,-507.67 1005.18,-495.15 988,-479 893.71,-390.35 824.24,-246.91 801.78,-196.89"/>
<polygon fill="midnightblue" stroke="midnightblue" points="804.95,-195.41 797.7,-187.69 798.55,-198.25 804.95,-195.41"/>
</g>
<!-- Node34&#45;&gt;Node29 -->
<g id="edge93" class="edge">
<title>Node34&#45;&gt;Node29</title>
<path fill="none" stroke="midnightblue" d="M1007.32,-515.47C968.2,-508.64 916.82,-497.14 874,-479 850.62,-469.09 849.26,-458.18 826,-448 789.51,-432.03 746.17,-420.83 711.75,-413.6"/>
<polygon fill="midnightblue" stroke="midnightblue" points="712.33,-410.15 701.83,-411.57 710.93,-417.01 712.33,-410.15"/>
</g>
<!-- Node34&#45;&gt;Node30 -->
<g id="edge75" class="edge">
<title>Node34&#45;&gt;Node30</title>
<path fill="none" stroke="midnightblue" d="M987.41,-524.66C806.61,-525.33 373.71,-522.2 235,-479 193.53,-466.08 151.8,-436.21 128.89,-418"/>
<polygon fill="midnightblue" stroke="midnightblue" points="131.04,-415.24 121.07,-411.65 126.63,-420.67 131.04,-415.24"/>
</g>
<!-- Node35 -->
<g id="node35" class="node">
<title>Node35</title>
<g id="a_node35"><a xlink:title=" ">
<polygon fill="none" stroke="#bfbfbf" points="996.5,-454 996.5,-473 1073.5,-473 1073.5,-454 996.5,-454"/>
<text text-anchor="middle" x="1035" y="-461" font-family="FreeSans.ttf" font-size="10.00">Eigen/Dense</text>
</a>
</g>
</g>
<!-- Node34&#45;&gt;Node35 -->
<g id="edge74" class="edge">
<title>Node34&#45;&gt;Node35</title>
<path fill="none" stroke="midnightblue" d="M1063.27,-515.48C1058.42,-506.73 1050.73,-492.87 1044.6,-481.81"/>
<polygon fill="midnightblue" stroke="midnightblue" points="1047.63,-480.06 1039.72,-473.01 1041.51,-483.45 1047.63,-480.06"/>
</g>
<!-- Node36 -->
<g id="node36" class="node">
<title>Node36</title>
<g id="a_node36"><a xlink:href="SpatialMotionVector_8h.html" target="_top" xlink:title=" ">
<polygon fill="none" stroke="black" points="1315.5,-448.5 1315.5,-478.5 1470.5,-478.5 1470.5,-448.5 1315.5,-448.5"/>
<text text-anchor="start" x="1323.5" y="-466.5" font-family="FreeSans.ttf" font-size="10.00">iDynTree/Core/SpatialMotion</text>
<text text-anchor="middle" x="1393" y="-455.5" font-family="FreeSans.ttf" font-size="10.00">Vector.h</text>
</a>
</g>
</g>
<!-- Node34&#45;&gt;Node36 -->
<g id="edge79" class="edge">
<title>Node34&#45;&gt;Node36</title>
<path fill="none" stroke="midnightblue" d="M1114.56,-515.48C1164.44,-506.34 1244.73,-491.64 1306.3,-480.37"/>
<polygon fill="midnightblue" stroke="midnightblue" points="1307.2,-483.77 1316.4,-478.52 1305.94,-476.88 1307.2,-483.77"/>
</g>
<!-- Node38 -->
<g id="node38" class="node">
<title>Node38</title>
<g id="a_node38"><a xlink:href="SpatialForceVector_8h.html" target="_top" xlink:title=" ">
<polygon fill="none" stroke="black" points="1136,-448.5 1136,-478.5 1284,-478.5 1284,-448.5 1136,-448.5"/>
<text text-anchor="start" x="1144" y="-466.5" font-family="FreeSans.ttf" font-size="10.00">iDynTree/Core/SpatialForce</text>
<text text-anchor="middle" x="1210" y="-455.5" font-family="FreeSans.ttf" font-size="10.00">Vector.h</text>
</a>
</g>
</g>
<!-- Node34&#45;&gt;Node38 -->
<g id="edge89" class="edge">
<title>Node34&#45;&gt;Node38</title>
<path fill="none" stroke="midnightblue" d="M1088.35,-515.48C1108.84,-506.89 1141.07,-493.38 1167.21,-482.43"/>
<polygon fill="midnightblue" stroke="midnightblue" points="1168.66,-485.62 1176.53,-478.52 1165.96,-479.16 1168.66,-485.62"/>
</g>
<!-- Node36&#45;&gt;Node21 -->
<g id="edge80" class="edge">
<title>Node36&#45;&gt;Node21</title>
<path fill="none" stroke="midnightblue" d="M1407.11,-448.46C1415.55,-439.03 1425.47,-425.84 1430,-412 1451.73,-345.57 1499.18,-327.46 1379,-224 1347.45,-196.84 1242.09,-186.07 1163.55,-181.8"/>
<polygon fill="midnightblue" stroke="midnightblue" points="1163.31,-178.29 1153.14,-181.27 1162.95,-185.28 1163.31,-178.29"/>
</g>
<!-- Node36&#45;&gt;Node25 -->
<g id="edge81" class="edge">
<title>Node36&#45;&gt;Node25</title>
<path fill="none" stroke="midnightblue" d="M1402.85,-448.35C1411.54,-434.04 1421.84,-411.34 1415,-392 1393.39,-330.94 1336.82,-276.24 1307.01,-250.52"/>
<polygon fill="midnightblue" stroke="midnightblue" points="1308.92,-247.55 1299.02,-243.77 1304.41,-252.9 1308.92,-247.55"/>
</g>
<!-- Node37 -->
<g id="node37" class="node">
<title>Node37</title>
<g id="a_node37"><a xlink:href="SpatialVector_8h.html" target="_top" xlink:title=" ">
<polygon fill="none" stroke="black" points="1244.5,-392.5 1244.5,-411.5 1405.5,-411.5 1405.5,-392.5 1244.5,-392.5"/>
<text text-anchor="middle" x="1325" y="-399.5" font-family="FreeSans.ttf" font-size="10.00">iDynTree/Core/SpatialVector.h</text>
</a>
</g>
</g>
<!-- Node36&#45;&gt;Node37 -->
<g id="edge82" class="edge">
<title>Node36&#45;&gt;Node37</title>
<path fill="none" stroke="midnightblue" d="M1376.88,-448.4C1366.6,-439.4 1353.25,-427.72 1342.67,-418.47"/>
<polygon fill="midnightblue" stroke="midnightblue" points="1344.73,-415.61 1334.89,-411.66 1340.12,-420.88 1344.73,-415.61"/>
</g>
<!-- Node37&#45;&gt;Node17 -->
<g id="edge85" class="edge">
<title>Node37&#45;&gt;Node17</title>
<path fill="none" stroke="midnightblue" d="M1334.89,-392.28C1343.92,-383.82 1357.03,-370.23 1365,-356 1394.36,-303.6 1409.22,-282.11 1394,-224 1379.53,-168.75 1374.41,-149.11 1331,-112 1312,-95.76 1286.6,-85.13 1263.98,-78.31"/>
<polygon fill="midnightblue" stroke="midnightblue" points="1264.72,-74.88 1254.14,-75.52 1262.81,-81.61 1264.72,-74.88"/>
</g>
<!-- Node37&#45;&gt;Node19 -->
<g id="edge83" class="edge">
<title>Node37&#45;&gt;Node19</title>
<path fill="none" stroke="midnightblue" d="M1244.2,-395.35C1095.15,-384.92 778.71,-362.79 631.44,-352.49"/>
<polygon fill="midnightblue" stroke="midnightblue" points="631.35,-348.97 621.13,-351.77 630.86,-355.95 631.35,-348.97"/>
</g>
<!-- Node37&#45;&gt;Node22 -->
<g id="edge88" class="edge">
<title>Node37&#45;&gt;Node22</title>
<path fill="none" stroke="midnightblue" d="M1329.42,-392.44C1345.23,-361.24 1397.17,-253.94 1379,-224 1345.12,-168.17 1269.2,-141.77 1223.02,-130.45"/>
<polygon fill="midnightblue" stroke="midnightblue" points="1223.61,-127 1213.08,-128.14 1222.03,-133.82 1223.61,-127"/>
</g>
<!-- Node37&#45;&gt;Node24 -->
<g id="edge84" class="edge">
<title>Node37&#45;&gt;Node24</title>
<path fill="none" stroke="midnightblue" d="M1244.19,-400.45C1155.75,-398.07 1010.5,-388.85 890,-356 846.24,-344.07 799.04,-319.98 771.58,-304.71"/>
<polygon fill="midnightblue" stroke="midnightblue" points="773.15,-301.58 762.73,-299.71 769.71,-307.68 773.15,-301.58"/>
</g>
<!-- Node37&#45;&gt;Node25 -->
<g id="edge86" class="edge">
<title>Node37&#45;&gt;Node25</title>
<path fill="none" stroke="midnightblue" d="M1323.01,-392.08C1317.19,-365.95 1300.08,-289.21 1292.14,-253.58"/>
<polygon fill="midnightblue" stroke="midnightblue" points="1295.5,-252.57 1289.91,-243.57 1288.67,-254.09 1295.5,-252.57"/>
</g>
<!-- Node37&#45;&gt;Node28 -->
<g id="edge87" class="edge">
<title>Node37&#45;&gt;Node28</title>
<path fill="none" stroke="midnightblue" d="M1244.33,-396.32C1122.08,-386.99 904,-360.59 904,-291 904,-291 904,-291 904,-233 904,-200.5 897.49,-163.1 893.05,-141.34"/>
<polygon fill="midnightblue" stroke="midnightblue" points="896.46,-140.56 890.96,-131.5 889.61,-142.01 896.46,-140.56"/>
</g>
<!-- Node38&#45;&gt;Node21 -->
<g id="edge90" class="edge">
<title>Node38&#45;&gt;Node21</title>
<path fill="none" stroke="midnightblue" d="M1203.37,-448.27C1194,-426.8 1178,-384.66 1178,-347 1178,-347 1178,-347 1178,-289 1178,-243.81 1131.05,-210.05 1099.64,-192.52"/>
<polygon fill="midnightblue" stroke="midnightblue" points="1100.93,-189.24 1090.46,-187.61 1097.63,-195.41 1100.93,-189.24"/>
</g>
<!-- Node38&#45;&gt;Node25 -->
<g id="edge91" class="edge">
<title>Node38&#45;&gt;Node25</title>
<path fill="none" stroke="midnightblue" d="M1214.88,-448.27C1228.44,-408.73 1266.56,-297.55 1281.69,-253.4"/>
<polygon fill="midnightblue" stroke="midnightblue" points="1285.01,-254.52 1284.94,-243.93 1278.39,-252.25 1285.01,-254.52"/>
</g>
<!-- Node38&#45;&gt;Node37 -->
<g id="edge92" class="edge">
<title>Node38&#45;&gt;Node37</title>
<path fill="none" stroke="midnightblue" d="M1237.25,-448.4C1256.03,-438.68 1280.83,-425.86 1299.27,-416.31"/>
<polygon fill="midnightblue" stroke="midnightblue" points="1300.99,-419.36 1308.27,-411.66 1297.78,-413.14 1300.99,-419.36"/>
</g>
</g>
</svg>
