<?xml version="1.0" encoding="UTF-8" standalone="no"?>
<!DOCTYPE svg PUBLIC "-//W3C//DTD SVG 1.1//EN"
 "http://www.w3.org/Graphics/SVG/1.1/DTD/svg11.dtd">
<!-- Generated by graphviz version 2.43.0 (0)
 -->
<!-- Title: ChartsManager.h Pages: 1 -->
<svg width="1087pt" height="140pt"
 viewBox="0.00 0.00 1086.50 140.00" xmlns="http://www.w3.org/2000/svg" xmlns:xlink="http://www.w3.org/1999/xlink">
<g id="graph0" class="graph" transform="scale(1 1) rotate(0) translate(4 136)">
<title>ChartsManager.h</title>
<!-- Node1 -->
<g id="node1" class="node">
<title>Node1</title>
<g id="a_node1"><a xlink:title=" ">
<polygon fill="#bfbfbf" stroke="black" points="553,-112.5 553,-131.5 652,-131.5 652,-112.5 553,-112.5"/>
<text text-anchor="middle" x="602.5" y="-119.5" font-family="FreeSans.ttf" font-size="10.00">ChartsManager.h</text>
</a>
</g>
</g>
<!-- Node2 -->
<g id="node2" class="node">
<title>Node2</title>
<g id="a_node2"><a xlink:title=" ">
<polygon fill="none" stroke="#bfbfbf" points="0,-56.5 0,-75.5 93,-75.5 93,-56.5 0,-56.5"/>
<text text-anchor="middle" x="46.5" y="-63.5" font-family="FreeSans.ttf" font-size="10.00">ChartsService.h</text>
</a>
</g>
</g>
<!-- Node1&#45;&gt;Node2 -->
<g id="edge1" class="edge">
<title>Node1&#45;&gt;Node2</title>
<path fill="none" stroke="midnightblue" d="M552.7,-117.67C464.36,-111.52 274.23,-97.13 103.16,-76"/>
<polygon fill="midnightblue" stroke="midnightblue" points="103.57,-72.52 93.22,-74.76 102.71,-79.47 103.57,-72.52"/>
</g>
<!-- Node3 -->
<g id="node3" class="node">
<title>Node3</title>
<g id="a_node3"><a xlink:title=" ">
<polygon fill="none" stroke="#bfbfbf" points="111,-56.5 111,-75.5 242,-75.5 242,-56.5 111,-56.5"/>
<text text-anchor="middle" x="176.5" y="-63.5" font-family="FreeSans.ttf" font-size="10.00">RealTimeStreamData.h</text>
</a>
</g>
</g>
<!-- Node1&#45;&gt;Node3 -->
<g id="edge2" class="edge">
<title>Node1&#45;&gt;Node3</title>
<path fill="none" stroke="midnightblue" d="M552.8,-114.7C478.8,-105.32 339.09,-87.61 252.29,-76.61"/>
<polygon fill="midnightblue" stroke="midnightblue" points="252.6,-73.12 242.24,-75.33 251.72,-80.06 252.6,-73.12"/>
</g>
<!-- Node4 -->
<g id="node4" class="node">
<title>Node4</title>
<g id="a_node4"><a xlink:title=" ">
<polygon fill="none" stroke="#bfbfbf" points="260.5,-56.5 260.5,-75.5 344.5,-75.5 344.5,-56.5 260.5,-56.5"/>
<text text-anchor="middle" x="302.5" y="-63.5" font-family="FreeSans.ttf" font-size="10.00">yarp/os/Port.h</text>
</a>
</g>
</g>
<!-- Node1&#45;&gt;Node4 -->
<g id="edge3" class="edge">
<title>Node1&#45;&gt;Node4</title>
<path fill="none" stroke="midnightblue" d="M554.96,-112.44C500.53,-102.64 411.6,-86.64 355.12,-76.47"/>
<polygon fill="midnightblue" stroke="midnightblue" points="355.42,-72.97 344.96,-74.64 354.18,-79.86 355.42,-72.97"/>
</g>
<!-- Node5 -->
<g id="node5" class="node">
<title>Node5</title>
<g id="a_node5"><a xlink:title=" ">
<polygon fill="none" stroke="#bfbfbf" points="362,-56.5 362,-75.5 487,-75.5 487,-56.5 362,-56.5"/>
<text text-anchor="middle" x="424.5" y="-63.5" font-family="FreeSans.ttf" font-size="10.00">yarp/os/BufferedPort.h</text>
</a>
</g>
</g>
<!-- Node1&#45;&gt;Node5 -->
<g id="edge4" class="edge">
<title>Node1&#45;&gt;Node5</title>
<path fill="none" stroke="midnightblue" d="M574.3,-112.44C544.09,-103.28 495.99,-88.69 462.47,-78.52"/>
<polygon fill="midnightblue" stroke="midnightblue" points="463.16,-75.07 452.57,-75.52 461.13,-81.77 463.16,-75.07"/>
</g>
<!-- Node6 -->
<g id="node6" class="node">
<title>Node6</title>
<g id="a_node6"><a xlink:title=" ">
<polygon fill="none" stroke="#bfbfbf" points="505.5,-56.5 505.5,-75.5 603.5,-75.5 603.5,-56.5 505.5,-56.5"/>
<text text-anchor="middle" x="554.5" y="-63.5" font-family="FreeSans.ttf" font-size="10.00">yarp/sig/Vector.h</text>
</a>
</g>
</g>
<!-- Node1&#45;&gt;Node6 -->
<g id="edge5" class="edge">
<title>Node1&#45;&gt;Node6</title>
<path fill="none" stroke="midnightblue" d="M594.57,-112.08C587.65,-104.3 577.43,-92.8 569.05,-83.37"/>
<polygon fill="midnightblue" stroke="midnightblue" points="571.54,-80.9 562.28,-75.75 566.31,-85.55 571.54,-80.9"/>
</g>
<!-- Node7 -->
<g id="node7" class="node">
<title>Node7</title>
<g id="a_node7"><a xlink:title=" ">
<polygon fill="none" stroke="#bfbfbf" points="621.5,-56.5 621.5,-75.5 679.5,-75.5 679.5,-56.5 621.5,-56.5"/>
<text text-anchor="middle" x="650.5" y="-63.5" font-family="FreeSans.ttf" font-size="10.00">memory</text>
</a>
</g>
</g>
<!-- Node1&#45;&gt;Node7 -->
<g id="edge6" class="edge">
<title>Node1&#45;&gt;Node7</title>
<path fill="none" stroke="midnightblue" d="M610.43,-112.08C617.35,-104.3 627.57,-92.8 635.95,-83.37"/>
<polygon fill="midnightblue" stroke="midnightblue" points="638.69,-85.55 642.72,-75.75 633.46,-80.9 638.69,-85.55"/>
</g>
<!-- Node8 -->
<g id="node8" class="node">
<title>Node8</title>
<g id="a_node8"><a xlink:title=" ">
<polygon fill="none" stroke="#bfbfbf" points="697.5,-56.5 697.5,-75.5 745.5,-75.5 745.5,-56.5 697.5,-56.5"/>
<text text-anchor="middle" x="721.5" y="-63.5" font-family="FreeSans.ttf" font-size="10.00">mutex</text>
</a>
</g>
</g>
<!-- Node1&#45;&gt;Node8 -->
<g id="edge7" class="edge">
<title>Node1&#45;&gt;Node8</title>
<path fill="none" stroke="midnightblue" d="M621.36,-112.44C640.77,-103.64 671.23,-89.81 693.46,-79.72"/>
<polygon fill="midnightblue" stroke="midnightblue" points="695.07,-82.84 702.73,-75.52 692.18,-76.46 695.07,-82.84"/>
</g>
<!-- Node9 -->
<g id="node9" class="node">
<title>Node9</title>
<g id="a_node9"><a xlink:title=" ">
<polygon fill="none" stroke="#bfbfbf" points="764,-56.5 764,-75.5 857,-75.5 857,-56.5 764,-56.5"/>
<text text-anchor="middle" x="810.5" y="-63.5" font-family="FreeSans.ttf" font-size="10.00">unordered_map</text>
</a>
</g>
</g>
<!-- Node1&#45;&gt;Node9 -->
<g id="edge8" class="edge">
<title>Node1&#45;&gt;Node9</title>
<path fill="none" stroke="midnightblue" d="M635.46,-112.44C671.29,-103.14 728.66,-88.25 767.89,-78.06"/>
<polygon fill="midnightblue" stroke="midnightblue" points="768.9,-81.42 777.7,-75.52 767.14,-74.64 768.9,-81.42"/>
</g>
<!-- Node10 -->
<g id="node10" class="node">
<title>Node10</title>
<g id="a_node10"><a xlink:title=" ">
<polygon fill="none" stroke="#bfbfbf" points="875,-56.5 875,-75.5 922,-75.5 922,-56.5 875,-56.5"/>
<text text-anchor="middle" x="898.5" y="-63.5" font-family="FreeSans.ttf" font-size="10.00">vector</text>
</a>
</g>
</g>
<!-- Node1&#45;&gt;Node10 -->
<g id="edge9" class="edge">
<title>Node1&#45;&gt;Node10</title>
<path fill="none" stroke="midnightblue" d="M652.44,-114.09C703.57,-106.66 785.5,-93.76 864.67,-76.24"/>
<polygon fill="midnightblue" stroke="midnightblue" points="865.81,-79.57 874.81,-73.96 864.28,-72.74 865.81,-79.57"/>
</g>
<!-- Node11 -->
<g id="node11" class="node">
<title>Node11</title>
<g id="a_node11"><a xlink:href="ChartsManagerWindow_8h.html" target="_top" xlink:title=" ">
<polygon fill="none" stroke="black" points="940.5,-56.5 940.5,-75.5 1078.5,-75.5 1078.5,-56.5 940.5,-56.5"/>
<text text-anchor="middle" x="1009.5" y="-63.5" font-family="FreeSans.ttf" font-size="10.00">ChartsManagerWindow.h</text>
</a>
</g>
</g>
<!-- Node1&#45;&gt;Node11 -->
<g id="edge10" class="edge">
<title>Node1&#45;&gt;Node11</title>
<path fill="none" stroke="midnightblue" d="M652.41,-114.38C723.11,-105 852.97,-87.77 935.08,-76.87"/>
<polygon fill="midnightblue" stroke="midnightblue" points="935.64,-80.33 945.09,-75.55 934.72,-73.39 935.64,-80.33"/>
</g>
<!-- Node12 -->
<g id="node12" class="node">
<title>Node12</title>
<g id="a_node12"><a xlink:title=" ">
<polygon fill="none" stroke="#bfbfbf" points="966,-0.5 966,-19.5 1053,-19.5 1053,-0.5 966,-0.5"/>
<text text-anchor="middle" x="1009.5" y="-7.5" font-family="FreeSans.ttf" font-size="10.00">QMainWindow</text>
</a>
</g>
</g>
<!-- Node11&#45;&gt;Node12 -->
<g id="edge11" class="edge">
<title>Node11&#45;&gt;Node12</title>
<path fill="none" stroke="midnightblue" d="M1009.5,-56.08C1009.5,-49.01 1009.5,-38.86 1009.5,-29.99"/>
<polygon fill="midnightblue" stroke="midnightblue" points="1013,-29.75 1009.5,-19.75 1006,-29.75 1013,-29.75"/>
</g>
</g>
</svg>
