<?xml version="1.0" encoding="UTF-8" standalone="no"?>
<!DOCTYPE svg PUBLIC "-//W3C//DTD SVG 1.1//EN"
 "http://www.w3.org/Graphics/SVG/1.1/DTD/svg11.dtd">
<!-- Generated by graphviz version 2.43.0 (0)
 -->
<!-- Title: ChartsManagerWindow.cpp Pages: 1 -->
<svg width="388pt" height="140pt"
 viewBox="0.00 0.00 388.00 140.00" xmlns="http://www.w3.org/2000/svg" xmlns:xlink="http://www.w3.org/1999/xlink">
<g id="graph0" class="graph" transform="scale(1 1) rotate(0) translate(4 136)">
<title>ChartsManagerWindow.cpp</title>
<!-- Node1 -->
<g id="node1" class="node">
<title>Node1</title>
<g id="a_node1"><a xlink:title=" ">
<polygon fill="#bfbfbf" stroke="black" points="160.5,-112.5 160.5,-131.5 309.5,-131.5 309.5,-112.5 160.5,-112.5"/>
<text text-anchor="middle" x="235" y="-119.5" font-family="FreeSans.ttf" font-size="10.00">ChartsManagerWindow.cpp</text>
</a>
</g>
</g>
<!-- Node2 -->
<g id="node2" class="node">
<title>Node2</title>
<g id="a_node2"><a xlink:href="ChartsManagerWindow_8h.html" target="_top" xlink:title=" ">
<polygon fill="none" stroke="black" points="0,-56.5 0,-75.5 138,-75.5 138,-56.5 0,-56.5"/>
<text text-anchor="middle" x="69" y="-63.5" font-family="FreeSans.ttf" font-size="10.00">ChartsManagerWindow.h</text>
</a>
</g>
</g>
<!-- Node1&#45;&gt;Node2 -->
<g id="edge1" class="edge">
<title>Node1&#45;&gt;Node2</title>
<path fill="none" stroke="midnightblue" d="M208.7,-112.44C180.65,-103.32 136.06,-88.81 104.82,-78.65"/>
<polygon fill="midnightblue" stroke="midnightblue" points="105.77,-75.28 95.18,-75.52 103.61,-81.94 105.77,-75.28"/>
</g>
<!-- Node4 -->
<g id="node4" class="node">
<title>Node4</title>
<g id="a_node4"><a xlink:title=" ">
<polygon fill="none" stroke="#bfbfbf" points="156,-56.5 156,-75.5 232,-75.5 232,-56.5 156,-56.5"/>
<text text-anchor="middle" x="194" y="-63.5" font-family="FreeSans.ttf" font-size="10.00">QListWidget</text>
</a>
</g>
</g>
<!-- Node1&#45;&gt;Node4 -->
<g id="edge3" class="edge">
<title>Node1&#45;&gt;Node4</title>
<path fill="none" stroke="midnightblue" d="M228.23,-112.08C222.44,-104.46 213.94,-93.26 206.86,-83.94"/>
<polygon fill="midnightblue" stroke="midnightblue" points="209.48,-81.6 200.64,-75.75 203.9,-85.83 209.48,-81.6"/>
</g>
<!-- Node5 -->
<g id="node5" class="node">
<title>Node5</title>
<g id="a_node5"><a xlink:title=" ">
<polygon fill="none" stroke="#bfbfbf" points="250,-56.5 250,-75.5 302,-75.5 302,-56.5 250,-56.5"/>
<text text-anchor="middle" x="276" y="-63.5" font-family="FreeSans.ttf" font-size="10.00">QEvent</text>
</a>
</g>
</g>
<!-- Node1&#45;&gt;Node5 -->
<g id="edge4" class="edge">
<title>Node1&#45;&gt;Node5</title>
<path fill="none" stroke="midnightblue" d="M241.77,-112.08C247.56,-104.46 256.06,-93.26 263.14,-83.94"/>
<polygon fill="midnightblue" stroke="midnightblue" points="266.1,-85.83 269.36,-75.75 260.52,-81.6 266.1,-85.83"/>
</g>
<!-- Node6 -->
<g id="node6" class="node">
<title>Node6</title>
<g id="a_node6"><a xlink:title=" ">
<polygon fill="none" stroke="#bfbfbf" points="320,-56.5 320,-75.5 380,-75.5 380,-56.5 320,-56.5"/>
<text text-anchor="middle" x="350" y="-63.5" font-family="FreeSans.ttf" font-size="10.00">iostream</text>
</a>
</g>
</g>
<!-- Node1&#45;&gt;Node6 -->
<g id="edge5" class="edge">
<title>Node1&#45;&gt;Node6</title>
<path fill="none" stroke="midnightblue" d="M253.22,-112.44C271.9,-103.68 301.16,-89.94 322.62,-79.86"/>
<polygon fill="midnightblue" stroke="midnightblue" points="324.3,-82.93 331.86,-75.52 321.32,-76.6 324.3,-82.93"/>
</g>
<!-- Node3 -->
<g id="node3" class="node">
<title>Node3</title>
<g id="a_node3"><a xlink:title=" ">
<polygon fill="none" stroke="#bfbfbf" points="25.5,-0.5 25.5,-19.5 112.5,-19.5 112.5,-0.5 25.5,-0.5"/>
<text text-anchor="middle" x="69" y="-7.5" font-family="FreeSans.ttf" font-size="10.00">QMainWindow</text>
</a>
</g>
</g>
<!-- Node2&#45;&gt;Node3 -->
<g id="edge2" class="edge">
<title>Node2&#45;&gt;Node3</title>
<path fill="none" stroke="midnightblue" d="M69,-56.08C69,-49.01 69,-38.86 69,-29.99"/>
<polygon fill="midnightblue" stroke="midnightblue" points="72.5,-29.75 69,-19.75 65.5,-29.75 72.5,-29.75"/>
</g>
</g>
</svg>
