<?xml version="1.0" encoding="UTF-8" standalone="no"?>
<!DOCTYPE svg PUBLIC "-//W3C//DTD SVG 1.1//EN"
 "http://www.w3.org/Graphics/SVG/1.1/DTD/svg11.dtd">
<!-- Generated by graphviz version 2.43.0 (0)
 -->
<!-- Title: iDynTree::SpatialInertia Pages: 1 -->
<svg width="176pt" height="209pt"
 viewBox="0.00 0.00 176.00 209.00" xmlns="http://www.w3.org/2000/svg" xmlns:xlink="http://www.w3.org/1999/xlink">
<g id="graph0" class="graph" transform="scale(1 1) rotate(0) translate(4 205)">
<title>iDynTree::SpatialInertia</title>
<!-- Node1 -->
<g id="node1" class="node">
<title>Node1</title>
<g id="a_node1"><a xlink:title="Class representing a six dimensional inertia.">
<polygon fill="#bfbfbf" stroke="black" points="18.5,-0.5 18.5,-19.5 149.5,-19.5 149.5,-0.5 18.5,-0.5"/>
<text text-anchor="middle" x="84" y="-7.5" font-family="FreeSans.ttf" font-size="10.00">iDynTree::SpatialInertia</text>
</a>
</g>
</g>
<!-- Node2 -->
<g id="node2" class="node">
<title>Node2</title>
<g id="a_node2"><a xlink:href="classiDynTree_1_1SpatialInertiaRaw.html" target="_top" xlink:title="Class providing the raw coordinates for a spatial inertia, i.e.">
<polygon fill="none" stroke="black" points="8,-57.5 8,-76.5 160,-76.5 160,-57.5 8,-57.5"/>
<text text-anchor="middle" x="84" y="-64.5" font-family="FreeSans.ttf" font-size="10.00">iDynTree::SpatialInertiaRaw</text>
</a>
</g>
</g>
<!-- Node2&#45;&gt;Node1 -->
<g id="edge1" class="edge">
<title>Node2&#45;&gt;Node1</title>
<path fill="none" stroke="midnightblue" d="M84,-47.12C84,-37.82 84,-27.06 84,-19.71"/>
<polygon fill="midnightblue" stroke="midnightblue" points="80.5,-47.41 84,-57.41 87.5,-47.41 80.5,-47.41"/>
</g>
<!-- Node3 -->
<g id="node3" class="node">
<title>Node3</title>
<g id="a_node3"><a xlink:href="classiDynTree_1_1RotationalInertiaRaw.html" target="_top" xlink:title="Class providing the raw coordinates for a 3d inertia matrix.">
<polygon fill="none" stroke="black" points="0,-124.5 0,-143.5 168,-143.5 168,-124.5 0,-124.5"/>
<text text-anchor="middle" x="84" y="-131.5" font-family="FreeSans.ttf" font-size="10.00">iDynTree::RotationalInertiaRaw</text>
</a>
</g>
</g>
<!-- Node3&#45;&gt;Node2 -->
<g id="edge2" class="edge">
<title>Node3&#45;&gt;Node2</title>
<path fill="none" stroke="#9a32cd" stroke-dasharray="5,2" d="M84,-114.04C84,-101.67 84,-86.12 84,-76.63"/>
<polygon fill="#9a32cd" stroke="#9a32cd" points="80.5,-114.23 84,-124.23 87.5,-114.23 80.5,-114.23"/>
<text text-anchor="middle" x="116" y="-98" font-family="FreeSans.ttf" font-size="10.00"> m_rotInertia</text>
</g>
<!-- Node4 -->
<g id="node4" class="node">
<title>Node4</title>
<g id="a_node4"><a xlink:href="classiDynTree_1_1MatrixFixSize.html" target="_top" xlink:title="Class providing a simple form of matrix with dynamic size.">
<polygon fill="none" stroke="black" points="51,-181.5 51,-200.5 117,-200.5 117,-181.5 51,-181.5"/>
<text text-anchor="middle" x="84" y="-188.5" font-family="FreeSans.ttf" font-size="10.00">Matrix3x3</text>
</a>
</g>
</g>
<!-- Node4&#45;&gt;Node3 -->
<g id="edge3" class="edge">
<title>Node4&#45;&gt;Node3</title>
<path fill="none" stroke="midnightblue" d="M84,-171.12C84,-161.82 84,-151.06 84,-143.71"/>
<polygon fill="midnightblue" stroke="midnightblue" points="80.5,-171.41 84,-181.41 87.5,-171.41 80.5,-171.41"/>
</g>
</g>
</svg>
