<?xml version="1.0" encoding="UTF-8" standalone="no"?>
<!DOCTYPE svg PUBLIC "-//W3C//DTD SVG 1.1//EN"
 "http://www.w3.org/Graphics/SVG/1.1/DTD/svg11.dtd">
<!-- Generated by graphviz version 2.43.0 (0)
 -->
<!-- Title: iDynTree::VectorFixSize&lt; VecSize &gt; Pages: 1 -->
<svg width="508pt" height="218pt"
 viewBox="0.00 0.00 508.00 218.00" xmlns="http://www.w3.org/2000/svg" xmlns:xlink="http://www.w3.org/1999/xlink">
<g id="graph0" class="graph" transform="scale(1 1) rotate(0) translate(4 214)">
<title>iDynTree::VectorFixSize&lt; VecSize &gt;</title>
<!-- Node1 -->
<g id="node1" class="node">
<title>Node1</title>
<g id="a_node1"><a xlink:title="Class providing a simple vector of N elements.">
<polygon fill="#bfbfbf" stroke="black" points="0,-96 0,-126 131,-126 131,-96 0,-96"/>
<text text-anchor="start" x="8" y="-114" font-family="FreeSans.ttf" font-size="10.00">iDynTree::VectorFixSize</text>
<text text-anchor="middle" x="65.5" y="-103" font-family="FreeSans.ttf" font-size="10.00">&lt; VecSize &gt;</text>
</a>
</g>
</g>
<!-- Node2 -->
<g id="node2" class="node">
<title>Node2</title>
<g id="a_node2"><a xlink:href="classiDynTree_1_1ClassicalAcc.html" target="_top" xlink:title="Class representing a classical 6D acceleration, i.e.">
<polygon fill="none" stroke="black" points="201.5,-190.5 201.5,-209.5 356.5,-209.5 356.5,-190.5 201.5,-190.5"/>
<text text-anchor="middle" x="279" y="-197.5" font-family="FreeSans.ttf" font-size="10.00">iDynTree::ClassicalAcc&lt; 6 &gt;</text>
</a>
</g>
</g>
<!-- Node1&#45;&gt;Node2 -->
<g id="edge1" class="edge">
<title>Node1&#45;&gt;Node2</title>
<path fill="none" stroke="midnightblue" d="M99.29,-131.29C125.47,-146.76 163.51,-167.6 199,-181 208.77,-184.69 219.49,-187.83 229.79,-190.44"/>
<polygon fill="midnightblue" stroke="midnightblue" points="100.93,-128.2 90.55,-126.07 97.34,-134.21 100.93,-128.2"/>
</g>
<!-- Node3 -->
<g id="node3" class="node">
<title>Node3</title>
<g id="a_node3"><a xlink:href="classiDynTree_1_1Direction.html" target="_top" xlink:title="Class representing the coordinates of a direction in the 3D space.">
<polygon fill="none" stroke="black" points="210,-152.5 210,-171.5 348,-171.5 348,-152.5 210,-152.5"/>
<text text-anchor="middle" x="279" y="-159.5" font-family="FreeSans.ttf" font-size="10.00">iDynTree::Direction&lt; 3 &gt;</text>
</a>
</g>
</g>
<!-- Node1&#45;&gt;Node3 -->
<g id="edge2" class="edge">
<title>Node1&#45;&gt;Node3</title>
<path fill="none" stroke="midnightblue" d="M138.61,-128.49C142.13,-129.34 145.6,-130.18 149,-131 178.89,-138.21 212.69,-146.34 238.19,-152.45"/>
<polygon fill="midnightblue" stroke="midnightblue" points="139.2,-125.03 128.66,-126.08 137.56,-131.84 139.2,-125.03"/>
</g>
<!-- Node4 -->
<g id="node4" class="node">
<title>Node4</title>
<g id="a_node4"><a xlink:href="classiDynTree_1_1GeomVector3.html" target="_top" xlink:title=" ">
<polygon fill="none" stroke="black" points="199,-114.5 199,-133.5 359,-133.5 359,-114.5 199,-114.5"/>
<text text-anchor="middle" x="279" y="-121.5" font-family="FreeSans.ttf" font-size="10.00">iDynTree::GeomVector3&lt; 3 &gt;</text>
</a>
</g>
</g>
<!-- Node1&#45;&gt;Node4 -->
<g id="edge3" class="edge">
<title>Node1&#45;&gt;Node4</title>
<path fill="none" stroke="midnightblue" d="M141.31,-115.6C159.96,-116.74 180.02,-117.98 198.87,-119.14"/>
<polygon fill="midnightblue" stroke="midnightblue" points="141.3,-112.09 131.11,-114.97 140.87,-119.08 141.3,-112.09"/>
</g>
<!-- Node5 -->
<g id="node5" class="node">
<title>Node5</title>
<g id="a_node5"><a xlink:href="classiDynTree_1_1PositionRaw.html" target="_top" xlink:title="Class providing the raw coordinates for iDynTree::Position class.">
<polygon fill="none" stroke="black" points="202,-76.5 202,-95.5 356,-95.5 356,-76.5 202,-76.5"/>
<text text-anchor="middle" x="279" y="-83.5" font-family="FreeSans.ttf" font-size="10.00">iDynTree::PositionRaw&lt; 3 &gt;</text>
</a>
</g>
</g>
<!-- Node1&#45;&gt;Node5 -->
<g id="edge4" class="edge">
<title>Node1&#45;&gt;Node5</title>
<path fill="none" stroke="midnightblue" d="M141.24,-102.17C160.91,-99.84 182.16,-97.33 201.91,-94.99"/>
<polygon fill="midnightblue" stroke="midnightblue" points="140.63,-98.71 131.11,-103.36 141.45,-105.67 140.63,-98.71"/>
</g>
<!-- Node7 -->
<g id="node7" class="node">
<title>Node7</title>
<g id="a_node7"><a xlink:href="classiDynTree_1_1VectorFixSize.html" target="_top" xlink:title=" ">
<polygon fill="none" stroke="black" points="199.5,-38.5 199.5,-57.5 358.5,-57.5 358.5,-38.5 199.5,-38.5"/>
<text text-anchor="middle" x="279" y="-45.5" font-family="FreeSans.ttf" font-size="10.00">iDynTree::VectorFixSize&lt; 3 &gt;</text>
</a>
</g>
</g>
<!-- Node1&#45;&gt;Node7 -->
<g id="edge6" class="edge">
<title>Node1&#45;&gt;Node7</title>
<path fill="none" stroke="orange" stroke-dasharray="5,2" d="M117.35,-92.61C141.83,-84.14 171.73,-74.36 199,-67 211.12,-63.73 224.36,-60.43 236.48,-57.53"/>
<polygon fill="orange" stroke="orange" points="116.19,-89.3 107.9,-95.9 118.5,-95.91 116.19,-89.3"/>
<text text-anchor="middle" x="165" y="-85" font-family="FreeSans.ttf" font-size="10.00"> &lt; 3 &gt;</text>
</g>
<!-- Node8 -->
<g id="node8" class="node">
<title>Node8</title>
<g id="a_node8"><a xlink:href="classiDynTree_1_1VectorFixSize.html" target="_top" xlink:title=" ">
<polygon fill="none" stroke="black" points="199.5,-0.5 199.5,-19.5 358.5,-19.5 358.5,-0.5 199.5,-0.5"/>
<text text-anchor="middle" x="279" y="-7.5" font-family="FreeSans.ttf" font-size="10.00">iDynTree::VectorFixSize&lt; 4 &gt;</text>
</a>
</g>
</g>
<!-- Node1&#45;&gt;Node8 -->
<g id="edge7" class="edge">
<title>Node1&#45;&gt;Node8</title>
<path fill="none" stroke="orange" stroke-dasharray="5,2" d="M94.16,-89.89C119.95,-71.2 160.19,-44.54 199,-29 208.3,-25.28 218.52,-22.16 228.43,-19.59"/>
<polygon fill="orange" stroke="orange" points="91.97,-87.15 85.98,-95.89 96.11,-92.79 91.97,-87.15"/>
<text text-anchor="middle" x="165" y="-57" font-family="FreeSans.ttf" font-size="10.00"> &lt; 4 &gt;</text>
</g>
<!-- Node6 -->
<g id="node6" class="node">
<title>Node6</title>
<g id="a_node6"><a xlink:href="classiDynTree_1_1Position.html" target="_top" xlink:title="Class representation the coordinates of the Position of a point with respect to another point.">
<polygon fill="none" stroke="black" points="396,-76.5 396,-95.5 500,-95.5 500,-76.5 396,-76.5"/>
<text text-anchor="middle" x="448" y="-83.5" font-family="FreeSans.ttf" font-size="10.00">iDynTree::Position</text>
</a>
</g>
</g>
<!-- Node5&#45;&gt;Node6 -->
<g id="edge5" class="edge">
<title>Node5&#45;&gt;Node6</title>
<path fill="none" stroke="midnightblue" d="M366.26,-86C376.35,-86 386.4,-86 395.79,-86"/>
<polygon fill="midnightblue" stroke="midnightblue" points="366.17,-82.5 356.17,-86 366.17,-89.5 366.17,-82.5"/>
</g>
</g>
</svg>
