<?xml version="1.0" encoding="UTF-8" standalone="no"?>
<!DOCTYPE svg PUBLIC "-//W3C//DTD SVG 1.1//EN"
 "http://www.w3.org/Graphics/SVG/1.1/DTD/svg11.dtd">
<!-- Generated by graphviz version 2.43.0 (0)
 -->
<!-- Title: iDynTree::optimalcontrol::integrators::FixedStepIntegrator Pages: 1 -->
<svg width="185pt" height="185pt"
 viewBox="0.00 0.00 185.00 185.00" xmlns="http://www.w3.org/2000/svg" xmlns:xlink="http://www.w3.org/1999/xlink">
<g id="graph0" class="graph" transform="scale(1 1) rotate(0) translate(4 181)">
<title>iDynTree::optimalcontrol::integrators::FixedStepIntegrator</title>
<!-- Node1 -->
<g id="node1" class="node">
<title>Node1</title>
<g id="a_node1"><a xlink:title=" ">
<polygon fill="#bfbfbf" stroke="black" points="0,-0.5 0,-30.5 177,-30.5 177,-0.5 0,-0.5"/>
<text text-anchor="start" x="8" y="-18.5" font-family="FreeSans.ttf" font-size="10.00">iDynTree::optimalcontrol</text>
<text text-anchor="middle" x="88.5" y="-7.5" font-family="FreeSans.ttf" font-size="10.00">::integrators::FixedStepIntegrator</text>
</a>
</g>
</g>
<!-- Node2 -->
<g id="node2" class="node">
<title>Node2</title>
<g id="a_node2"><a xlink:href="classiDynTree_1_1optimalcontrol_1_1integrators_1_1Integrator.html" target="_top" xlink:title="The Integrator base class.">
<polygon fill="none" stroke="black" points="20,-68.5 20,-98.5 157,-98.5 157,-68.5 20,-68.5"/>
<text text-anchor="start" x="28" y="-86.5" font-family="FreeSans.ttf" font-size="10.00">iDynTree::optimalcontrol</text>
<text text-anchor="middle" x="88.5" y="-75.5" font-family="FreeSans.ttf" font-size="10.00">::integrators::Integrator</text>
</a>
</g>
</g>
<!-- Node2&#45;&gt;Node1 -->
<g id="edge1" class="edge">
<title>Node2&#45;&gt;Node1</title>
<path fill="none" stroke="midnightblue" d="M88.5,-58.03C88.5,-48.86 88.5,-38.74 88.5,-30.79"/>
<polygon fill="midnightblue" stroke="midnightblue" points="85,-58.18 88.5,-68.18 92,-58.18 85,-58.18"/>
</g>
<!-- Node3 -->
<g id="node3" class="node">
<title>Node3</title>
<g id="a_node3"><a xlink:href="classiDynTree_1_1optimalcontrol_1_1integrators_1_1IntegratorInfo.html" target="_top" xlink:title="Class containing infos about the implemented integrator.">
<polygon fill="none" stroke="black" points="14,-146.5 14,-176.5 163,-176.5 163,-146.5 14,-146.5"/>
<text text-anchor="start" x="22" y="-164.5" font-family="FreeSans.ttf" font-size="10.00">iDynTree::optimalcontrol</text>
<text text-anchor="middle" x="88.5" y="-153.5" font-family="FreeSans.ttf" font-size="10.00">::integrators::IntegratorInfo</text>
</a>
</g>
</g>
<!-- Node3&#45;&gt;Node2 -->
<g id="edge2" class="edge">
<title>Node3&#45;&gt;Node2</title>
<path fill="none" stroke="#9a32cd" stroke-dasharray="5,2" d="M88.5,-136.09C88.5,-123.76 88.5,-109.22 88.5,-98.73"/>
<polygon fill="#9a32cd" stroke="#9a32cd" points="85,-136.2 88.5,-146.2 92,-136.21 85,-136.2"/>
<text text-anchor="middle" x="107" y="-120" font-family="FreeSans.ttf" font-size="10.00"> m_info</text>
</g>
</g>
</svg>
