<?xml version="1.0" encoding="UTF-8" standalone="no"?>
<!DOCTYPE svg PUBLIC "-//W3C//DTD SVG 1.1//EN"
 "http://www.w3.org/Graphics/SVG/1.1/DTD/svg11.dtd">
<!-- Generated by graphviz version 2.43.0 (0)
 -->
<!-- Title: iDynTree::SolidShape Pages: 1 -->
<svg width="484pt" height="84pt"
 viewBox="0.00 0.00 483.50 84.00" xmlns="http://www.w3.org/2000/svg" xmlns:xlink="http://www.w3.org/1999/xlink">
<g id="graph0" class="graph" transform="scale(1 1) rotate(0) translate(4 80)">
<title>iDynTree::SolidShape</title>
<!-- Node1 -->
<g id="node1" class="node">
<title>Node1</title>
<g id="a_node1"><a xlink:title=" ">
<polygon fill="#bfbfbf" stroke="black" points="163.5,-56.5 163.5,-75.5 282.5,-75.5 282.5,-56.5 163.5,-56.5"/>
<text text-anchor="middle" x="223" y="-63.5" font-family="FreeSans.ttf" font-size="10.00">iDynTree::SolidShape</text>
</a>
</g>
</g>
<!-- Node2 -->
<g id="node2" class="node">
<title>Node2</title>
<g id="a_node2"><a xlink:href="classiDynTree_1_1Box.html" target="_top" xlink:title="Box, i.e.">
<polygon fill="none" stroke="black" points="0,-0.5 0,-19.5 84,-19.5 84,-0.5 0,-0.5"/>
<text text-anchor="middle" x="42" y="-7.5" font-family="FreeSans.ttf" font-size="10.00">iDynTree::Box</text>
</a>
</g>
</g>
<!-- Node1&#45;&gt;Node2 -->
<g id="edge1" class="edge">
<title>Node1&#45;&gt;Node2</title>
<path fill="none" stroke="midnightblue" d="M184.68,-53.57C150.54,-43.38 101.34,-28.7 70.55,-19.52"/>
<polygon fill="midnightblue" stroke="midnightblue" points="183.74,-56.94 194.32,-56.44 185.74,-50.23 183.74,-56.94"/>
</g>
<!-- Node3 -->
<g id="node3" class="node">
<title>Node3</title>
<g id="a_node3"><a xlink:href="classiDynTree_1_1Cylinder.html" target="_top" xlink:title=" ">
<polygon fill="none" stroke="black" points="102,-0.5 102,-19.5 208,-19.5 208,-0.5 102,-0.5"/>
<text text-anchor="middle" x="155" y="-7.5" font-family="FreeSans.ttf" font-size="10.00">iDynTree::Cylinder</text>
</a>
</g>
</g>
<!-- Node1&#45;&gt;Node3 -->
<g id="edge2" class="edge">
<title>Node1&#45;&gt;Node3</title>
<path fill="none" stroke="midnightblue" d="M204.24,-50.1C192,-40.38 176.44,-28.03 166.12,-19.83"/>
<polygon fill="midnightblue" stroke="midnightblue" points="202.07,-52.85 212.07,-56.32 206.42,-47.36 202.07,-52.85"/>
</g>
<!-- Node4 -->
<g id="node4" class="node">
<title>Node4</title>
<g id="a_node4"><a xlink:href="classiDynTree_1_1ExternalMesh.html" target="_top" xlink:title=" ">
<polygon fill="none" stroke="black" points="226,-0.5 226,-19.5 358,-19.5 358,-0.5 226,-0.5"/>
<text text-anchor="middle" x="292" y="-7.5" font-family="FreeSans.ttf" font-size="10.00">iDynTree::ExternalMesh</text>
</a>
</g>
</g>
<!-- Node1&#45;&gt;Node4 -->
<g id="edge3" class="edge">
<title>Node1&#45;&gt;Node4</title>
<path fill="none" stroke="midnightblue" d="M242.04,-50.1C254.46,-40.38 270.24,-28.03 280.71,-19.83"/>
<polygon fill="midnightblue" stroke="midnightblue" points="239.8,-47.4 234.09,-56.32 244.12,-52.92 239.8,-47.4"/>
</g>
<!-- Node5 -->
<g id="node5" class="node">
<title>Node5</title>
<g id="a_node5"><a xlink:href="classiDynTree_1_1Sphere.html" target="_top" xlink:title=" ">
<polygon fill="none" stroke="black" points="376.5,-0.5 376.5,-19.5 475.5,-19.5 475.5,-0.5 376.5,-0.5"/>
<text text-anchor="middle" x="426" y="-7.5" font-family="FreeSans.ttf" font-size="10.00">iDynTree::Sphere</text>
</a>
</g>
</g>
<!-- Node1&#45;&gt;Node5 -->
<g id="edge4" class="edge">
<title>Node1&#45;&gt;Node5</title>
<path fill="none" stroke="midnightblue" d="M264.99,-53.83C303.32,-43.63 359.15,-28.78 393.98,-19.52"/>
<polygon fill="midnightblue" stroke="midnightblue" points="263.93,-50.49 255.17,-56.44 265.73,-57.26 263.93,-50.49"/>
</g>
</g>
</svg>
