<?xml version="1.0" encoding="UTF-8" standalone="no"?>
<!DOCTYPE svg PUBLIC "-//W3C//DTD SVG 1.1//EN"
 "http://www.w3.org/Graphics/SVG/1.1/DTD/svg11.dtd">
<!-- Generated by graphviz version 2.43.0 (0)
 -->
<!-- Title: iDynTree::optimization::NLPImplementation Pages: 1 -->
<svg width="245pt" height="161pt"
 viewBox="0.00 0.00 244.50 161.00" xmlns="http://www.w3.org/2000/svg" xmlns:xlink="http://www.w3.org/1999/xlink">
<g id="graph0" class="graph" transform="scale(1 1) rotate(0) translate(4 157)">
<title>iDynTree::optimization::NLPImplementation</title>
<!-- Node1 -->
<g id="node1" class="node">
<title>Node1</title>
<g id="a_node1"><a xlink:title=" ">
<polygon fill="#bfbfbf" stroke="black" points="10,-0.5 10,-30.5 137,-30.5 137,-0.5 10,-0.5"/>
<text text-anchor="start" x="18" y="-18.5" font-family="FreeSans.ttf" font-size="10.00">iDynTree::optimization</text>
<text text-anchor="middle" x="73.5" y="-7.5" font-family="FreeSans.ttf" font-size="10.00">::NLPImplementation</text>
</a>
</g>
</g>
<!-- Node2 -->
<g id="node2" class="node">
<title>Node2</title>
<g id="a_node2"><a xlink:title=" ">
<polygon fill="none" stroke="#bfbfbf" points="0,-133.5 0,-152.5 41,-152.5 41,-133.5 0,-133.5"/>
<text text-anchor="middle" x="20.5" y="-140.5" font-family="FreeSans.ttf" font-size="10.00">TNLP</text>
</a>
</g>
</g>
<!-- Node2&#45;&gt;Node1 -->
<g id="edge1" class="edge">
<title>Node2&#45;&gt;Node1</title>
<path fill="none" stroke="midnightblue" d="M28.13,-123.94C38.75,-98.78 57.78,-53.72 67.47,-30.77"/>
<polygon fill="midnightblue" stroke="midnightblue" points="24.81,-122.8 24.14,-133.37 31.26,-125.52 24.81,-122.8"/>
</g>
<!-- Node3 -->
<g id="node3" class="node">
<title>Node3</title>
<g id="a_node3"><a xlink:href="classiDynTree_1_1VectorDynSize.html" target="_top" xlink:title="Class providing a simple form of vector with dynamic size.">
<polygon fill="none" stroke="black" points="59.5,-133.5 59.5,-152.5 195.5,-152.5 195.5,-133.5 59.5,-133.5"/>
<text text-anchor="middle" x="127.5" y="-140.5" font-family="FreeSans.ttf" font-size="10.00">iDynTree::VectorDynSize</text>
</a>
</g>
</g>
<!-- Node3&#45;&gt;Node1 -->
<g id="edge2" class="edge">
<title>Node3&#45;&gt;Node1</title>
<path fill="none" stroke="#9a32cd" stroke-dasharray="5,2" d="M119.73,-123.94C108.9,-98.78 89.52,-53.72 79.64,-30.77"/>
<polygon fill="#9a32cd" stroke="#9a32cd" points="116.62,-125.57 123.79,-133.37 123.05,-122.8 116.62,-125.57"/>
<text text-anchor="middle" x="176" y="-107" font-family="FreeSans.ttf" font-size="10.00"> upperBoundMultipliers</text>
<text text-anchor="middle" x="176" y="-96" font-family="FreeSans.ttf" font-size="10.00">lowerBoundMultipliers</text>
<text text-anchor="middle" x="176" y="-85" font-family="FreeSans.ttf" font-size="10.00">initialGuess</text>
<text text-anchor="middle" x="176" y="-74" font-family="FreeSans.ttf" font-size="10.00">constraintMultipliers</text>
<text text-anchor="middle" x="176" y="-63" font-family="FreeSans.ttf" font-size="10.00">solution</text>
<text text-anchor="middle" x="176" y="-52" font-family="FreeSans.ttf" font-size="10.00">optimalConstraintsValue</text>
</g>
</g>
</svg>
