<?xml version="1.0" encoding="UTF-8" standalone="no"?>
<!DOCTYPE svg PUBLIC "-//W3C//DTD SVG 1.1//EN"
 "http://www.w3.org/Graphics/SVG/1.1/DTD/svg11.dtd">
<!-- Generated by graphviz version 2.43.0 (0)
 -->
<!-- Title: iDynTree::AttitudeQuaternionEKF Pages: 1 -->
<svg width="334pt" height="95pt"
 viewBox="0.00 0.00 333.50 95.00" xmlns="http://www.w3.org/2000/svg" xmlns:xlink="http://www.w3.org/1999/xlink">
<g id="graph0" class="graph" transform="scale(1 1) rotate(0) translate(4 91)">
<title>iDynTree::AttitudeQuaternionEKF</title>
<!-- Node1 -->
<g id="node1" class="node">
<title>Node1</title>
<g id="a_node1"><a xlink:title=" ">
<polygon fill="#bfbfbf" stroke="black" points="75,-0.5 75,-19.5 252,-19.5 252,-0.5 75,-0.5"/>
<text text-anchor="middle" x="163.5" y="-7.5" font-family="FreeSans.ttf" font-size="10.00">iDynTree::AttitudeQuaternionEKF</text>
</a>
</g>
</g>
<!-- Node2 -->
<g id="node2" class="node">
<title>Node2</title>
<g id="a_node2"><a xlink:href="classiDynTree_1_1IAttitudeEstimator.html" target="_top" xlink:title=" ">
<polygon fill="none" stroke="black" points="0,-62 0,-81 155,-81 155,-62 0,-62"/>
<text text-anchor="middle" x="77.5" y="-69" font-family="FreeSans.ttf" font-size="10.00">iDynTree::IAttitudeEstimator</text>
</a>
</g>
</g>
<!-- Node2&#45;&gt;Node1 -->
<g id="edge1" class="edge">
<title>Node2&#45;&gt;Node1</title>
<path fill="none" stroke="midnightblue" d="M98.3,-56.11C114.84,-44.67 137.42,-29.05 151.2,-19.51"/>
<polygon fill="midnightblue" stroke="midnightblue" points="96.05,-53.41 89.82,-61.98 100.04,-59.16 96.05,-53.41"/>
</g>
<!-- Node3 -->
<g id="node3" class="node">
<title>Node3</title>
<g id="a_node3"><a xlink:href="classiDynTree_1_1DiscreteExtendedKalmanFilterHelper.html" target="_top" xlink:title=" ">
<polygon fill="none" stroke="black" points="173.5,-56.5 173.5,-86.5 325.5,-86.5 325.5,-56.5 173.5,-56.5"/>
<text text-anchor="start" x="181.5" y="-74.5" font-family="FreeSans.ttf" font-size="10.00">iDynTree::DiscreteExtended</text>
<text text-anchor="middle" x="249.5" y="-63.5" font-family="FreeSans.ttf" font-size="10.00">KalmanFilterHelper</text>
</a>
</g>
</g>
<!-- Node3&#45;&gt;Node1 -->
<g id="edge2" class="edge">
<title>Node3&#45;&gt;Node1</title>
<path fill="none" stroke="midnightblue" d="M220.57,-50.48C205.42,-40 187.65,-27.71 176.01,-19.66"/>
<polygon fill="midnightblue" stroke="midnightblue" points="218.9,-53.59 229.12,-56.4 222.89,-47.83 218.9,-53.59"/>
</g>
</g>
</svg>
