<?xml version="1.0" encoding="UTF-8" standalone="no"?>
<!DOCTYPE svg PUBLIC "-//W3C//DTD SVG 1.1//EN"
 "http://www.w3.org/Graphics/SVG/1.1/DTD/svg11.dtd">
<!-- Generated by graphviz version 2.43.0 (0)
 -->
<!-- Title: iDynTree::IAttitudeEstimator Pages: 1 -->
<svg width="346pt" height="95pt"
 viewBox="0.00 0.00 346.00 95.00" xmlns="http://www.w3.org/2000/svg" xmlns:xlink="http://www.w3.org/1999/xlink">
<g id="graph0" class="graph" transform="scale(1 1) rotate(0) translate(4 91)">
<title>iDynTree::IAttitudeEstimator</title>
<!-- Node1 -->
<g id="node1" class="node">
<title>Node1</title>
<g id="a_node1"><a xlink:title=" ">
<polygon fill="#bfbfbf" stroke="black" points="83,-67.5 83,-86.5 238,-86.5 238,-67.5 83,-67.5"/>
<text text-anchor="middle" x="160.5" y="-74.5" font-family="FreeSans.ttf" font-size="10.00">iDynTree::IAttitudeEstimator</text>
</a>
</g>
</g>
<!-- Node2 -->
<g id="node2" class="node">
<title>Node2</title>
<g id="a_node2"><a xlink:href="classiDynTree_1_1AttitudeMahonyFilter.html" target="_top" xlink:title=" ">
<polygon fill="none" stroke="black" points="0,-0.5 0,-30.5 143,-30.5 143,-0.5 0,-0.5"/>
<text text-anchor="start" x="8" y="-18.5" font-family="FreeSans.ttf" font-size="10.00">iDynTree::AttitudeMahony</text>
<text text-anchor="middle" x="71.5" y="-7.5" font-family="FreeSans.ttf" font-size="10.00">Filter</text>
</a>
</g>
</g>
<!-- Node1&#45;&gt;Node2 -->
<g id="edge1" class="edge">
<title>Node1&#45;&gt;Node2</title>
<path fill="none" stroke="midnightblue" d="M139.17,-61.74C125.02,-52.28 106.55,-39.93 92.48,-30.52"/>
<polygon fill="midnightblue" stroke="midnightblue" points="137.49,-64.83 147.75,-67.48 141.38,-59.01 137.49,-64.83"/>
</g>
<!-- Node3 -->
<g id="node3" class="node">
<title>Node3</title>
<g id="a_node3"><a xlink:href="classiDynTree_1_1AttitudeQuaternionEKF.html" target="_top" xlink:title=" ">
<polygon fill="none" stroke="black" points="161,-6 161,-25 338,-25 338,-6 161,-6"/>
<text text-anchor="middle" x="249.5" y="-13" font-family="FreeSans.ttf" font-size="10.00">iDynTree::AttitudeQuaternionEKF</text>
</a>
</g>
</g>
<!-- Node1&#45;&gt;Node3 -->
<g id="edge2" class="edge">
<title>Node1&#45;&gt;Node3</title>
<path fill="none" stroke="midnightblue" d="M182.02,-61.61C199.14,-50.17 222.51,-34.55 236.77,-25.01"/>
<polygon fill="midnightblue" stroke="midnightblue" points="179.62,-59.01 173.25,-67.48 183.51,-64.83 179.62,-59.01"/>
</g>
</g>
</svg>
