<?xml version="1.0" encoding="UTF-8" standalone="no"?>
<!DOCTYPE svg PUBLIC "-//W3C//DTD SVG 1.1//EN"
 "http://www.w3.org/Graphics/SVG/1.1/DTD/svg11.dtd">
<!-- Generated by graphviz version 2.43.0 (0)
 -->
<!-- Title: iDynTree::optimization::WorhpInterface::WorhpInterfaceImplementation Pages: 1 -->
<svg width="473pt" height="205pt"
 viewBox="0.00 0.00 472.50 205.00" xmlns="http://www.w3.org/2000/svg" xmlns:xlink="http://www.w3.org/1999/xlink">
<g id="graph0" class="graph" transform="scale(1 1) rotate(0) translate(4 201)">
<title>iDynTree::optimization::WorhpInterface::WorhpInterfaceImplementation</title>
<!-- Node1 -->
<g id="node1" class="node">
<title>Node1</title>
<g id="a_node1"><a xlink:title=" ">
<polygon fill="#bfbfbf" stroke="black" points="128,-0.5 128,-41.5 305,-41.5 305,-0.5 128,-0.5"/>
<text text-anchor="start" x="136" y="-29.5" font-family="FreeSans.ttf" font-size="10.00">iDynTree::optimization</text>
<text text-anchor="start" x="136" y="-18.5" font-family="FreeSans.ttf" font-size="10.00">::WorhpInterface::WorhpInterface</text>
<text text-anchor="middle" x="216.5" y="-7.5" font-family="FreeSans.ttf" font-size="10.00">Implementation</text>
</a>
</g>
</g>
<!-- Node2 -->
<g id="node2" class="node">
<title>Node2</title>
<g id="a_node2"><a xlink:href="classiDynTree_1_1MatrixDynSize.html" target="_top" xlink:title="Class providing a simple form of matrix with dynamic size.">
<polygon fill="none" stroke="black" points="0,-177.5 0,-196.5 137,-196.5 137,-177.5 0,-177.5"/>
<text text-anchor="middle" x="68.5" y="-184.5" font-family="FreeSans.ttf" font-size="10.00">iDynTree::MatrixDynSize</text>
</a>
</g>
</g>
<!-- Node2&#45;&gt;Node1 -->
<g id="edge1" class="edge">
<title>Node2&#45;&gt;Node1</title>
<path fill="none" stroke="#9a32cd" stroke-dasharray="5,2" d="M65.62,-167.33C62.57,-140.25 61.3,-90.06 87.5,-60 98.16,-47.77 112.54,-39.38 127.84,-33.64"/>
<polygon fill="#9a32cd" stroke="#9a32cd" points="62.17,-167.94 66.96,-177.39 69.11,-167.01 62.17,-167.94"/>
<text text-anchor="middle" x="150" y="-118" font-family="FreeSans.ttf" font-size="10.00"> costHessianBuffer</text>
<text text-anchor="middle" x="150" y="-107" font-family="FreeSans.ttf" font-size="10.00">constraintsHessianBuffer</text>
<text text-anchor="middle" x="150" y="-96" font-family="FreeSans.ttf" font-size="10.00">constraintsJacobianBuffer</text>
</g>
<!-- Node3 -->
<g id="node3" class="node">
<title>Node3</title>
<g id="a_node3"><a xlink:href="structWorhpVariables.html" target="_top" xlink:title=" ">
<polygon fill="none" stroke="black" points="170.5,-177.5 170.5,-196.5 262.5,-196.5 262.5,-177.5 170.5,-177.5"/>
<text text-anchor="middle" x="216.5" y="-184.5" font-family="FreeSans.ttf" font-size="10.00">WorhpVariables</text>
</a>
</g>
</g>
<!-- Node3&#45;&gt;Node1 -->
<g id="edge2" class="edge">
<title>Node3&#45;&gt;Node1</title>
<path fill="none" stroke="#9a32cd" stroke-dasharray="5,2" d="M216.5,-166.77C216.5,-135.38 216.5,-73.45 216.5,-41.74"/>
<polygon fill="#9a32cd" stroke="#9a32cd" points="213,-167.18 216.5,-177.18 220,-167.18 213,-167.18"/>
<text text-anchor="middle" x="233.5" y="-107" font-family="FreeSans.ttf" font-size="10.00"> worhp</text>
</g>
<!-- Node4 -->
<g id="node4" class="node">
<title>Node4</title>
<g id="a_node4"><a xlink:href="classiDynTree_1_1VectorDynSize.html" target="_top" xlink:title="Class providing a simple form of vector with dynamic size.">
<polygon fill="none" stroke="black" points="280.5,-177.5 280.5,-196.5 416.5,-196.5 416.5,-177.5 280.5,-177.5"/>
<text text-anchor="middle" x="348.5" y="-184.5" font-family="FreeSans.ttf" font-size="10.00">iDynTree::VectorDynSize</text>
</a>
</g>
</g>
<!-- Node4&#45;&gt;Node1 -->
<g id="edge3" class="edge">
<title>Node4&#45;&gt;Node1</title>
<path fill="none" stroke="#9a32cd" stroke-dasharray="5,2" d="M337.06,-169.1C320.06,-144.35 286.64,-97.15 254.5,-60 249.13,-53.79 242.96,-47.36 237.18,-41.59"/>
<polygon fill="#9a32cd" stroke="#9a32cd" points="334.21,-171.14 342.74,-177.42 340,-167.19 334.21,-171.14"/>
<text text-anchor="middle" x="396.5" y="-151" font-family="FreeSans.ttf" font-size="10.00"> constraintsUpperBounds</text>
<text text-anchor="middle" x="396.5" y="-140" font-family="FreeSans.ttf" font-size="10.00">costGradientBuffer</text>
<text text-anchor="middle" x="396.5" y="-129" font-family="FreeSans.ttf" font-size="10.00">variablesUpperBounds</text>
<text text-anchor="middle" x="396.5" y="-118" font-family="FreeSans.ttf" font-size="10.00">constraintsLowerBounds</text>
<text text-anchor="middle" x="396.5" y="-107" font-family="FreeSans.ttf" font-size="10.00">variablesBuffer</text>
<text text-anchor="middle" x="396.5" y="-96" font-family="FreeSans.ttf" font-size="10.00">constraintsMultipliersBuffer</text>
<text text-anchor="middle" x="396.5" y="-85" font-family="FreeSans.ttf" font-size="10.00">constraintsEvaluationBuffer</text>
<text text-anchor="middle" x="396.5" y="-74" font-family="FreeSans.ttf" font-size="10.00">variablesLowerBounds</text>
<text text-anchor="middle" x="396.5" y="-63" font-family="FreeSans.ttf" font-size="10.00">initialPoint</text>
</g>
</g>
</svg>
