<?xml version="1.0" encoding="UTF-8" standalone="no"?>
<!DOCTYPE svg PUBLIC "-//W3C//DTD SVG 1.1//EN"
 "http://www.w3.org/Graphics/SVG/1.1/DTD/svg11.dtd">
<!-- Generated by graphviz version 2.43.0 (0)
 -->
<!-- Title: iDynTree::MatrixFixSize&lt; nRows, nCols &gt; Pages: 1 -->
<svg width="678pt" height="382pt"
 viewBox="0.00 0.00 678.00 382.00" xmlns="http://www.w3.org/2000/svg" xmlns:xlink="http://www.w3.org/1999/xlink">
<g id="graph0" class="graph" transform="scale(1 1) rotate(0) translate(4 378)">
<title>iDynTree::MatrixFixSize&lt; nRows, nCols &gt;</title>
<!-- Node1 -->
<g id="node1" class="node">
<title>Node1</title>
<g id="a_node1"><a xlink:title="Class providing a simple form of matrix with dynamic size.">
<polygon fill="#bfbfbf" stroke="black" points="0,-171.5 0,-201.5 131,-201.5 131,-171.5 0,-171.5"/>
<text text-anchor="start" x="8" y="-189.5" font-family="FreeSans.ttf" font-size="10.00">iDynTree::MatrixFixSize</text>
<text text-anchor="middle" x="65.5" y="-178.5" font-family="FreeSans.ttf" font-size="10.00">&lt; nRows, nCols &gt;</text>
</a>
</g>
</g>
<!-- Node2 -->
<g id="node2" class="node">
<title>Node2</title>
<g id="a_node2"><a xlink:href="classiDynTree_1_1RotationalInertiaRaw.html" target="_top" xlink:title="Class providing the raw coordinates for a 3d inertia matrix.">
<polygon fill="none" stroke="black" points="212.5,-343.5 212.5,-373.5 359.5,-373.5 359.5,-343.5 212.5,-343.5"/>
<text text-anchor="start" x="220.5" y="-361.5" font-family="FreeSans.ttf" font-size="10.00">iDynTree::RotationalInertia</text>
<text text-anchor="middle" x="286" y="-350.5" font-family="FreeSans.ttf" font-size="10.00">Raw&lt; 3, 3 &gt;</text>
</a>
</g>
</g>
<!-- Node1&#45;&gt;Node2 -->
<g id="edge1" class="edge">
<title>Node1&#45;&gt;Node2</title>
<path fill="none" stroke="midnightblue" d="M82.83,-209.75C107.04,-242.5 155.63,-301.85 211,-334.5 216.7,-337.86 222.93,-340.82 229.28,-343.4"/>
<polygon fill="midnightblue" stroke="midnightblue" points="85.64,-207.67 76.93,-201.65 79.98,-211.79 85.64,-207.67"/>
</g>
<!-- Node3 -->
<g id="node3" class="node">
<title>Node3</title>
<g id="a_node3"><a xlink:href="classiDynTree_1_1SpatialForceWrtMotionDerivative.html" target="_top" xlink:title="Class representing the derivative of a spatial force vector with respect to a spatial motion vector.">
<polygon fill="none" stroke="black" points="214.5,-294.5 214.5,-324.5 357.5,-324.5 357.5,-294.5 214.5,-294.5"/>
<text text-anchor="start" x="222.5" y="-312.5" font-family="FreeSans.ttf" font-size="10.00">iDynTree::SpatialForceWrt</text>
<text text-anchor="middle" x="286" y="-301.5" font-family="FreeSans.ttf" font-size="10.00">MotionDerivative&lt; 6, 6 &gt;</text>
</a>
</g>
</g>
<!-- Node1&#45;&gt;Node3 -->
<g id="edge2" class="edge">
<title>Node1&#45;&gt;Node3</title>
<path fill="none" stroke="midnightblue" d="M93.12,-208.23C121.06,-230.17 166.98,-263.85 211,-285.5 217.67,-288.78 224.88,-291.76 232.11,-294.41"/>
<polygon fill="midnightblue" stroke="midnightblue" points="95.05,-205.29 85.04,-201.82 90.7,-210.78 95.05,-205.29"/>
</g>
<!-- Node4 -->
<g id="node4" class="node">
<title>Node4</title>
<g id="a_node4"><a xlink:href="classiDynTree_1_1SpatialMotionWrtMotionDerivative.html" target="_top" xlink:title="Class representing the derivative of a spatial motion vector with respect to another spatial motion v...">
<polygon fill="none" stroke="black" points="211,-245.5 211,-275.5 361,-275.5 361,-245.5 211,-245.5"/>
<text text-anchor="start" x="219" y="-263.5" font-family="FreeSans.ttf" font-size="10.00">iDynTree::SpatialMotionWrt</text>
<text text-anchor="middle" x="286" y="-252.5" font-family="FreeSans.ttf" font-size="10.00">MotionDerivative&lt; 6, 6 &gt;</text>
</a>
</g>
</g>
<!-- Node1&#45;&gt;Node4 -->
<g id="edge3" class="edge">
<title>Node1&#45;&gt;Node4</title>
<path fill="none" stroke="midnightblue" d="M119.18,-205C146.53,-214.54 180.51,-226.28 211,-236.5 219.71,-239.42 229.01,-242.48 237.98,-245.4"/>
<polygon fill="midnightblue" stroke="midnightblue" points="120.02,-201.59 109.42,-201.6 117.71,-208.2 120.02,-201.59"/>
</g>
<!-- Node5 -->
<g id="node5" class="node">
<title>Node5</title>
<g id="a_node5"><a xlink:href="classiDynTree_1_1MatrixFixSize.html" target="_top" xlink:title=" ">
<polygon fill="none" stroke="black" points="220.5,-196.5 220.5,-226.5 351.5,-226.5 351.5,-196.5 220.5,-196.5"/>
<text text-anchor="start" x="228.5" y="-214.5" font-family="FreeSans.ttf" font-size="10.00">iDynTree::MatrixFixSize</text>
<text text-anchor="middle" x="286" y="-203.5" font-family="FreeSans.ttf" font-size="10.00">&lt; 2, 3 &gt;</text>
</a>
</g>
</g>
<!-- Node1&#45;&gt;Node5 -->
<g id="edge4" class="edge">
<title>Node1&#45;&gt;Node5</title>
<path fill="none" stroke="orange" stroke-dasharray="5,2" d="M141.26,-195.05C167.02,-198 195.63,-201.27 220.5,-204.12"/>
<polygon fill="orange" stroke="orange" points="141.5,-191.56 131.17,-193.9 140.71,-198.51 141.5,-191.56"/>
<text text-anchor="middle" x="171" y="-202.5" font-family="FreeSans.ttf" font-size="10.00"> &lt; 2, 3 &gt;</text>
</g>
<!-- Node6 -->
<g id="node6" class="node">
<title>Node6</title>
<g id="a_node6"><a xlink:href="classiDynTree_1_1MatrixFixSize.html" target="_top" xlink:title=" ">
<polygon fill="none" stroke="black" points="220.5,-147.5 220.5,-177.5 351.5,-177.5 351.5,-147.5 220.5,-147.5"/>
<text text-anchor="start" x="228.5" y="-165.5" font-family="FreeSans.ttf" font-size="10.00">iDynTree::MatrixFixSize</text>
<text text-anchor="middle" x="286" y="-154.5" font-family="FreeSans.ttf" font-size="10.00">&lt; 4, 4 &gt;</text>
</a>
</g>
</g>
<!-- Node1&#45;&gt;Node6 -->
<g id="edge5" class="edge">
<title>Node1&#45;&gt;Node6</title>
<path fill="none" stroke="orange" stroke-dasharray="5,2" d="M141.26,-178.29C167.02,-175.46 195.63,-172.32 220.5,-169.59"/>
<polygon fill="orange" stroke="orange" points="140.73,-174.83 131.17,-179.4 141.49,-181.78 140.73,-174.83"/>
<text text-anchor="middle" x="171" y="-179.5" font-family="FreeSans.ttf" font-size="10.00"> &lt; 4, 4 &gt;</text>
</g>
<!-- Node7 -->
<g id="node7" class="node">
<title>Node7</title>
<g id="a_node7"><a xlink:href="classiDynTree_1_1MatrixFixSize.html" target="_top" xlink:title=" ">
<polygon fill="none" stroke="black" points="220.5,-98.5 220.5,-128.5 351.5,-128.5 351.5,-98.5 220.5,-98.5"/>
<text text-anchor="start" x="228.5" y="-116.5" font-family="FreeSans.ttf" font-size="10.00">iDynTree::MatrixFixSize</text>
<text text-anchor="middle" x="286" y="-105.5" font-family="FreeSans.ttf" font-size="10.00">&lt; 3, 4 &gt;</text>
</a>
</g>
</g>
<!-- Node1&#45;&gt;Node7 -->
<g id="edge6" class="edge">
<title>Node1&#45;&gt;Node7</title>
<path fill="none" stroke="orange" stroke-dasharray="5,2" d="M118.38,-168.04C128.52,-164.5 139.08,-160.85 149,-157.5 178.27,-147.62 211.24,-136.94 237.38,-128.58"/>
<polygon fill="orange" stroke="orange" points="117.1,-164.78 108.82,-171.39 119.42,-171.38 117.1,-164.78"/>
<text text-anchor="middle" x="171" y="-160.5" font-family="FreeSans.ttf" font-size="10.00"> &lt; 3, 4 &gt;</text>
</g>
<!-- Node8 -->
<g id="node8" class="node">
<title>Node8</title>
<g id="a_node8"><a xlink:href="classiDynTree_1_1MatrixFixSize.html" target="_top" xlink:title=" ">
<polygon fill="none" stroke="black" points="220.5,-49.5 220.5,-79.5 351.5,-79.5 351.5,-49.5 220.5,-49.5"/>
<text text-anchor="start" x="228.5" y="-67.5" font-family="FreeSans.ttf" font-size="10.00">iDynTree::MatrixFixSize</text>
<text text-anchor="middle" x="286" y="-56.5" font-family="FreeSans.ttf" font-size="10.00">&lt; 4, 3 &gt;</text>
</a>
</g>
</g>
<!-- Node1&#45;&gt;Node8 -->
<g id="edge7" class="edge">
<title>Node1&#45;&gt;Node8</title>
<path fill="none" stroke="orange" stroke-dasharray="5,2" d="M93.11,-165.09C121.06,-143.49 166.98,-110.42 211,-89.5 218.59,-85.89 226.85,-82.56 235,-79.59"/>
<polygon fill="orange" stroke="orange" points="90.76,-162.49 85.04,-171.4 95.08,-168 90.76,-162.49"/>
<text text-anchor="middle" x="171" y="-125.5" font-family="FreeSans.ttf" font-size="10.00"> &lt; 4, 3 &gt;</text>
</g>
<!-- Node9 -->
<g id="node9" class="node">
<title>Node9</title>
<g id="a_node9"><a xlink:href="classiDynTree_1_1MatrixFixSize.html" target="_top" xlink:title=" ">
<polygon fill="none" stroke="black" points="220.5,-0.5 220.5,-30.5 351.5,-30.5 351.5,-0.5 220.5,-0.5"/>
<text text-anchor="start" x="228.5" y="-18.5" font-family="FreeSans.ttf" font-size="10.00">iDynTree::MatrixFixSize</text>
<text text-anchor="middle" x="286" y="-7.5" font-family="FreeSans.ttf" font-size="10.00">&lt; 3, 3 &gt;</text>
</a>
</g>
</g>
<!-- Node1&#45;&gt;Node9 -->
<g id="edge8" class="edge">
<title>Node1&#45;&gt;Node9</title>
<path fill="none" stroke="orange" stroke-dasharray="5,2" d="M82.7,-162.92C98.27,-141.2 123.17,-108.75 149,-84.5 173.63,-61.37 180.9,-55.85 211,-40.5 218.25,-36.8 226.16,-33.47 234.04,-30.52"/>
<polygon fill="orange" stroke="orange" points="79.74,-161.05 76.82,-171.24 85.45,-165.09 79.74,-161.05"/>
<text text-anchor="middle" x="171" y="-87.5" font-family="FreeSans.ttf" font-size="10.00"> &lt; 3, 3 &gt;</text>
</g>
<!-- Node10 -->
<g id="node10" class="node">
<title>Node10</title>
<g id="a_node10"><a xlink:href="classiDynTree_1_1RotationRaw.html" target="_top" xlink:title="Class providing the raw coordinates for iDynTree::Rotation class.">
<polygon fill="none" stroke="black" points="398,-6 398,-25 526,-25 526,-6 398,-6"/>
<text text-anchor="middle" x="462" y="-13" font-family="FreeSans.ttf" font-size="10.00">iDynTree::RotationRaw</text>
</a>
</g>
</g>
<!-- Node9&#45;&gt;Node10 -->
<g id="edge9" class="edge">
<title>Node9&#45;&gt;Node10</title>
<path fill="none" stroke="midnightblue" d="M361.8,-15.5C373.83,-15.5 386.17,-15.5 397.89,-15.5"/>
<polygon fill="midnightblue" stroke="midnightblue" points="361.79,-12 351.79,-15.5 361.79,-19 361.79,-12"/>
</g>
<!-- Node11 -->
<g id="node11" class="node">
<title>Node11</title>
<g id="a_node11"><a xlink:href="classiDynTree_1_1Rotation.html" target="_top" xlink:title="Class representation the rotation of an orientation frame with respect to a reference orientation fra...">
<polygon fill="none" stroke="black" points="563,-6 563,-25 670,-25 670,-6 563,-6"/>
<text text-anchor="middle" x="616.5" y="-13" font-family="FreeSans.ttf" font-size="10.00">iDynTree::Rotation</text>
</a>
</g>
</g>
<!-- Node10&#45;&gt;Node11 -->
<g id="edge10" class="edge">
<title>Node10&#45;&gt;Node11</title>
<path fill="none" stroke="midnightblue" d="M536.36,-15.5C545.27,-15.5 554.23,-15.5 562.75,-15.5"/>
<polygon fill="midnightblue" stroke="midnightblue" points="536.35,-12 526.35,-15.5 536.35,-19 536.35,-12"/>
</g>
</g>
</svg>
