<?xml version="1.0" encoding="UTF-8" standalone="no"?>
<!DOCTYPE svg PUBLIC "-//W3C//DTD SVG 1.1//EN"
 "http://www.w3.org/Graphics/SVG/1.1/DTD/svg11.dtd">
<!-- Generated by graphviz version 2.43.0 (0)
 -->
<!-- Title: iDynTree::RotationRaw Pages: 1 -->
<svg width="139pt" height="163pt"
 viewBox="0.00 0.00 139.00 163.00" xmlns="http://www.w3.org/2000/svg" xmlns:xlink="http://www.w3.org/1999/xlink">
<g id="graph0" class="graph" transform="scale(1 1) rotate(0) translate(4 159)">
<title>iDynTree::RotationRaw</title>
<!-- Node1 -->
<g id="node1" class="node">
<title>Node1</title>
<g id="a_node1"><a xlink:title="Class providing the raw coordinates for iDynTree::Rotation class.">
<polygon fill="#bfbfbf" stroke="black" points="1.5,-0.5 1.5,-19.5 129.5,-19.5 129.5,-0.5 1.5,-0.5"/>
<text text-anchor="middle" x="65.5" y="-7.5" font-family="FreeSans.ttf" font-size="10.00">iDynTree::RotationRaw</text>
</a>
</g>
</g>
<!-- Node2 -->
<g id="node2" class="node">
<title>Node2</title>
<g id="a_node2"><a xlink:href="classiDynTree_1_1MatrixFixSize.html" target="_top" xlink:title=" ">
<polygon fill="none" stroke="black" points="32.5,-57.5 32.5,-76.5 98.5,-76.5 98.5,-57.5 32.5,-57.5"/>
<text text-anchor="middle" x="65.5" y="-64.5" font-family="FreeSans.ttf" font-size="10.00">Matrix3x3</text>
</a>
</g>
</g>
<!-- Node2&#45;&gt;Node1 -->
<g id="edge1" class="edge">
<title>Node2&#45;&gt;Node1</title>
<path fill="none" stroke="midnightblue" d="M65.5,-47.12C65.5,-37.82 65.5,-27.06 65.5,-19.71"/>
<polygon fill="midnightblue" stroke="midnightblue" points="62,-47.41 65.5,-57.41 69,-47.41 62,-47.41"/>
</g>
<!-- Node3 -->
<g id="node3" class="node">
<title>Node3</title>
<g id="a_node3"><a xlink:href="classiDynTree_1_1MatrixFixSize.html" target="_top" xlink:title="Class providing a simple form of matrix with dynamic size.">
<polygon fill="none" stroke="black" points="0,-124.5 0,-154.5 131,-154.5 131,-124.5 0,-124.5"/>
<text text-anchor="start" x="8" y="-142.5" font-family="FreeSans.ttf" font-size="10.00">iDynTree::MatrixFixSize</text>
<text text-anchor="middle" x="65.5" y="-131.5" font-family="FreeSans.ttf" font-size="10.00">&lt; nRows, nCols &gt;</text>
</a>
</g>
</g>
<!-- Node3&#45;&gt;Node2 -->
<g id="edge2" class="edge">
<title>Node3&#45;&gt;Node2</title>
<path fill="none" stroke="orange" stroke-dasharray="5,2" d="M65.5,-114.09C65.5,-101.21 65.5,-86.2 65.5,-76.89"/>
<polygon fill="orange" stroke="orange" points="62,-114.23 65.5,-124.23 69,-114.23 62,-114.23"/>
<text text-anchor="middle" x="87.5" y="-98" font-family="FreeSans.ttf" font-size="10.00"> &lt; 3, 3 &gt;</text>
</g>
</g>
</svg>
