<?xml version="1.0" encoding="UTF-8" standalone="no"?>
<!DOCTYPE svg PUBLIC "-//W3C//DTD SVG 1.1//EN"
 "http://www.w3.org/Graphics/SVG/1.1/DTD/svg11.dtd">
<!-- Generated by graphviz version 2.43.0 (0)
 -->
<!-- Title: iDynTree::BerdySparseMAPSolver::BerdySparseMAPSolverPimpl Pages: 1 -->
<svg width="870pt" height="367pt"
 viewBox="0.00 0.00 870.00 366.50" xmlns="http://www.w3.org/2000/svg" xmlns:xlink="http://www.w3.org/1999/xlink">
<g id="graph0" class="graph" transform="scale(1 1) rotate(0) translate(4 362.5)">
<title>iDynTree::BerdySparseMAPSolver::BerdySparseMAPSolverPimpl</title>
<!-- Node1 -->
<g id="node1" class="node">
<title>Node1</title>
<g id="a_node1"><a xlink:title=" ">
<polygon fill="#bfbfbf" stroke="black" points="683,-150.5 683,-180.5 862,-180.5 862,-150.5 683,-150.5"/>
<text text-anchor="start" x="691" y="-168.5" font-family="FreeSans.ttf" font-size="10.00">iDynTree::BerdySparseMAPSolver</text>
<text text-anchor="middle" x="772.5" y="-157.5" font-family="FreeSans.ttf" font-size="10.00">::BerdySparseMAPSolverPimpl</text>
</a>
</g>
</g>
<!-- Node2 -->
<g id="node2" class="node">
<title>Node2</title>
<g id="a_node2"><a xlink:href="classiDynTree_1_1JointPosDoubleArray.html" target="_top" xlink:title="Class for storing a vector of scalar values, one for each internal position coordinate in a model.">
<polygon fill="none" stroke="black" points="319,-199.5 319,-229.5 458,-229.5 458,-199.5 319,-199.5"/>
<text text-anchor="start" x="327" y="-217.5" font-family="FreeSans.ttf" font-size="10.00">iDynTree::JointPosDouble</text>
<text text-anchor="middle" x="388.5" y="-206.5" font-family="FreeSans.ttf" font-size="10.00">Array</text>
</a>
</g>
</g>
<!-- Node2&#45;&gt;Node1 -->
<g id="edge1" class="edge">
<title>Node2&#45;&gt;Node1</title>
<path fill="none" stroke="#9a32cd" stroke-dasharray="5,2" d="M468.09,-205.16C523.23,-198.52 598.66,-189.27 665,-180.5 670.83,-179.73 676.84,-178.92 682.89,-178.1"/>
<polygon fill="#9a32cd" stroke="#9a32cd" points="467.55,-201.7 458.04,-206.37 468.39,-208.65 467.55,-201.7"/>
<text text-anchor="middle" x="574" y="-205.5" font-family="FreeSans.ttf" font-size="10.00"> jointsConfiguration</text>
</g>
<!-- Node3 -->
<g id="node3" class="node">
<title>Node3</title>
<g id="a_node3"><a xlink:href="classiDynTree_1_1VectorDynSize.html" target="_top" xlink:title="Class providing a simple form of vector with dynamic size.">
<polygon fill="none" stroke="black" points="0,-205 0,-224 136,-224 136,-205 0,-205"/>
<text text-anchor="middle" x="68" y="-212" font-family="FreeSans.ttf" font-size="10.00">iDynTree::VectorDynSize</text>
</a>
</g>
</g>
<!-- Node3&#45;&gt;Node1 -->
<g id="edge6" class="edge">
<title>Node3&#45;&gt;Node1</title>
<path fill="none" stroke="#9a32cd" stroke-dasharray="5,2" d="M128.73,-225.73C237.83,-243.87 475.56,-272.36 665,-217.5 694.45,-208.97 725.69,-192.76 746.67,-180.69"/>
<polygon fill="#9a32cd" stroke="#9a32cd" points="129.02,-222.23 118.57,-224.01 127.85,-229.13 129.02,-222.23"/>
<text text-anchor="middle" x="388.5" y="-350.5" font-family="FreeSans.ttf" font-size="10.00"> measurements</text>
<text text-anchor="start" x="314.5" y="-339.5" font-family="FreeSans.ttf" font-size="10.00">expectedDynamicsAPosteriori</text>
<text text-anchor="middle" x="388.5" y="-328.5" font-family="FreeSans.ttf" font-size="10.00">RHS</text>
<text text-anchor="start" x="314.5" y="-317.5" font-family="FreeSans.ttf" font-size="10.00">priorDynamicsRegularization</text>
<text text-anchor="middle" x="388.5" y="-306.5" font-family="FreeSans.ttf" font-size="10.00">ExpectedValue</text>
<text text-anchor="middle" x="388.5" y="-295.5" font-family="FreeSans.ttf" font-size="10.00">measurementsBias</text>
<text text-anchor="middle" x="388.5" y="-284.5" font-family="FreeSans.ttf" font-size="10.00">expectedDynamicsAPosteriori</text>
<text text-anchor="middle" x="388.5" y="-273.5" font-family="FreeSans.ttf" font-size="10.00">dynamicsConstraintsBias</text>
<text text-anchor="middle" x="388.5" y="-262.5" font-family="FreeSans.ttf" font-size="10.00">expectedDynamicsPriorRHS</text>
<text text-anchor="middle" x="388.5" y="-251.5" font-family="FreeSans.ttf" font-size="10.00">expectedDynamicsPrior</text>
</g>
<!-- Node3&#45;&gt;Node2 -->
<g id="edge2" class="edge">
<title>Node3&#45;&gt;Node2</title>
<path fill="none" stroke="midnightblue" d="M146.46,-214.5C199.1,-214.5 268.1,-214.5 318.79,-214.5"/>
<polygon fill="midnightblue" stroke="midnightblue" points="146.16,-211 136.16,-214.5 146.16,-218 146.16,-211"/>
</g>
<!-- Node4 -->
<g id="node4" class="node">
<title>Node4</title>
<g id="a_node4"><a xlink:href="classiDynTree_1_1JointDOFsDoubleArray.html" target="_top" xlink:title="Class for storing a vector of scalar values, one for each internal coordinate in a model.">
<polygon fill="none" stroke="black" points="314.5,-150.5 314.5,-180.5 462.5,-180.5 462.5,-150.5 314.5,-150.5"/>
<text text-anchor="start" x="322.5" y="-168.5" font-family="FreeSans.ttf" font-size="10.00">iDynTree::JointDOFsDouble</text>
<text text-anchor="middle" x="388.5" y="-157.5" font-family="FreeSans.ttf" font-size="10.00">Array</text>
</a>
</g>
</g>
<!-- Node3&#45;&gt;Node4 -->
<g id="edge4" class="edge">
<title>Node3&#45;&gt;Node4</title>
<path fill="none" stroke="midnightblue" d="M140.9,-203.44C192.71,-195.47 262.37,-184.75 314.44,-176.74"/>
<polygon fill="midnightblue" stroke="midnightblue" points="140.14,-200.01 130.79,-204.99 141.2,-206.93 140.14,-200.01"/>
</g>
<!-- Node4&#45;&gt;Node1 -->
<g id="edge3" class="edge">
<title>Node4&#45;&gt;Node1</title>
<path fill="none" stroke="#9a32cd" stroke-dasharray="5,2" d="M472.85,-165.5C534.9,-165.5 619.46,-165.5 682.77,-165.5"/>
<polygon fill="#9a32cd" stroke="#9a32cd" points="472.7,-162 462.7,-165.5 472.7,-169 472.7,-162"/>
<text text-anchor="middle" x="574" y="-168.5" font-family="FreeSans.ttf" font-size="10.00"> jointsVelocity</text>
</g>
<!-- Node5 -->
<g id="node5" class="node">
<title>Node5</title>
<g id="a_node5"><a xlink:href="classiDynTree_1_1BerdyHelper.html" target="_top" xlink:title="Helper class for computing Berdy matrices.">
<polygon fill="none" stroke="black" points="325.5,-112 325.5,-131 451.5,-131 451.5,-112 325.5,-112"/>
<text text-anchor="middle" x="388.5" y="-119" font-family="FreeSans.ttf" font-size="10.00">iDynTree::BerdyHelper</text>
</a>
</g>
</g>
<!-- Node5&#45;&gt;Node1 -->
<g id="edge5" class="edge">
<title>Node5&#45;&gt;Node1</title>
<path fill="none" stroke="#9a32cd" stroke-dasharray="5,2" d="M461.77,-128.41C517.39,-133.89 596.13,-142.03 665,-150.5 670.84,-151.22 676.85,-151.99 682.91,-152.78"/>
<polygon fill="#9a32cd" stroke="#9a32cd" points="461.96,-124.91 451.66,-127.42 461.27,-131.88 461.96,-124.91"/>
<text text-anchor="middle" x="574" y="-153.5" font-family="FreeSans.ttf" font-size="10.00"> berdy</text>
</g>
<!-- Node6 -->
<g id="node6" class="node">
<title>Node6</title>
<g id="a_node6"><a xlink:href="classiDynTree_1_1SparseMatrix.html" target="_top" xlink:title=" ">
<polygon fill="none" stroke="black" points="312,-0.5 312,-30.5 465,-30.5 465,-0.5 312,-0.5"/>
<text text-anchor="start" x="320" y="-18.5" font-family="FreeSans.ttf" font-size="10.00">iDynTree::SparseMatrix</text>
<text text-anchor="middle" x="388.5" y="-7.5" font-family="FreeSans.ttf" font-size="10.00">&lt; iDynTree::ColumnMajor &gt;</text>
</a>
</g>
</g>
<!-- Node6&#45;&gt;Node1 -->
<g id="edge7" class="edge">
<title>Node6&#45;&gt;Node1</title>
<path fill="none" stroke="#9a32cd" stroke-dasharray="5,2" d="M475.17,-6.17C532.06,-3.8 606.71,-8.29 665,-38.5 714.05,-63.92 749.43,-122.65 764.06,-150.42"/>
<polygon fill="#9a32cd" stroke="#9a32cd" points="474.93,-2.67 465.12,-6.66 475.28,-9.66 474.93,-2.67"/>
<text text-anchor="start" x="483" y="-118.5" font-family="FreeSans.ttf" font-size="10.00"> priorMeasurementsCovariance</text>
<text text-anchor="middle" x="574" y="-107.5" font-family="FreeSans.ttf" font-size="10.00">Inverse</text>
<text text-anchor="middle" x="574" y="-96.5" font-family="FreeSans.ttf" font-size="10.00">dynamicsConstraintsMatrix</text>
<text text-anchor="middle" x="574" y="-85.5" font-family="FreeSans.ttf" font-size="10.00">measurementsMatrix</text>
<text text-anchor="start" x="483" y="-74.5" font-family="FreeSans.ttf" font-size="10.00">priorDynamicsRegularization</text>
<text text-anchor="middle" x="574" y="-63.5" font-family="FreeSans.ttf" font-size="10.00">CovarianceInverse</text>
<text text-anchor="start" x="483" y="-52.5" font-family="FreeSans.ttf" font-size="10.00">priorDynamicsConstraintsCovariance</text>
<text text-anchor="middle" x="574" y="-41.5" font-family="FreeSans.ttf" font-size="10.00">Inverse</text>
</g>
<!-- Node7 -->
<g id="node7" class="node">
<title>Node7</title>
<g id="a_node7"><a xlink:href="classiDynTree_1_1SparseMatrix.html" target="_top" xlink:title="Sparse Matrix class.">
<polygon fill="none" stroke="black" points="3,-0.5 3,-30.5 133,-30.5 133,-0.5 3,-0.5"/>
<text text-anchor="start" x="11" y="-18.5" font-family="FreeSans.ttf" font-size="10.00">iDynTree::SparseMatrix</text>
<text text-anchor="middle" x="68" y="-7.5" font-family="FreeSans.ttf" font-size="10.00">&lt; ordering &gt;</text>
</a>
</g>
</g>
<!-- Node7&#45;&gt;Node6 -->
<g id="edge8" class="edge">
<title>Node7&#45;&gt;Node6</title>
<path fill="none" stroke="orange" stroke-dasharray="5,2" d="M143.3,-15.5C193.95,-15.5 260.81,-15.5 311.76,-15.5"/>
<polygon fill="orange" stroke="orange" points="143.07,-12 133.07,-15.5 143.07,-19 143.07,-12"/>
<text text-anchor="middle" x="224" y="-18.5" font-family="FreeSans.ttf" font-size="10.00"> &lt; iDynTree::ColumnMajor &gt;</text>
</g>
</g>
</svg>
