<?xml version="1.0" encoding="UTF-8" standalone="no"?>
<!DOCTYPE svg PUBLIC "-//W3C//DTD SVG 1.1//EN"
 "http://www.w3.org/Graphics/SVG/1.1/DTD/svg11.dtd">
<!-- Generated by graphviz version 2.43.0 (0)
 -->
<!-- Title: iDynTree::optimization::AlglibInterface::AlglibInterfaceImplementation Pages: 1 -->
<svg width="406pt" height="252pt"
 viewBox="0.00 0.00 405.50 252.00" xmlns="http://www.w3.org/2000/svg" xmlns:xlink="http://www.w3.org/1999/xlink">
<g id="graph0" class="graph" transform="scale(1 1) rotate(0) translate(4 248)">
<title>iDynTree::optimization::AlglibInterface::AlglibInterfaceImplementation</title>
<!-- Node1 -->
<g id="node1" class="node">
<title>Node1</title>
<g id="a_node1"><a xlink:title=" ">
<polygon fill="#bfbfbf" stroke="black" points="150,-0.5 150,-41.5 321,-41.5 321,-0.5 150,-0.5"/>
<text text-anchor="start" x="158" y="-29.5" font-family="FreeSans.ttf" font-size="10.00">iDynTree::optimization</text>
<text text-anchor="start" x="158" y="-18.5" font-family="FreeSans.ttf" font-size="10.00">::AlglibInterface::AlglibInterface</text>
<text text-anchor="middle" x="235.5" y="-7.5" font-family="FreeSans.ttf" font-size="10.00">Implementation</text>
</a>
</g>
</g>
<!-- Node2 -->
<g id="node2" class="node">
<title>Node2</title>
<g id="a_node2"><a xlink:href="structiDynTree_1_1optimization_1_1SharedData.html" target="_top" xlink:title=" ">
<polygon fill="none" stroke="black" points="119,-107 119,-137 246,-137 246,-107 119,-107"/>
<text text-anchor="start" x="127" y="-125" font-family="FreeSans.ttf" font-size="10.00">iDynTree::optimization</text>
<text text-anchor="middle" x="182.5" y="-114" font-family="FreeSans.ttf" font-size="10.00">::SharedData</text>
</a>
</g>
</g>
<!-- Node2&#45;&gt;Node1 -->
<g id="edge1" class="edge">
<title>Node2&#45;&gt;Node1</title>
<path fill="none" stroke="#9a32cd" stroke-dasharray="5,2" d="M195.06,-97.54C204.18,-80.5 216.39,-57.7 225,-41.62"/>
<polygon fill="#9a32cd" stroke="#9a32cd" points="191.73,-96.35 190.09,-106.82 197.9,-99.65 191.73,-96.35"/>
<text text-anchor="middle" x="235.5" y="-63" font-family="FreeSans.ttf" font-size="10.00"> nlpData</text>
</g>
<!-- Node3 -->
<g id="node3" class="node">
<title>Node3</title>
<g id="a_node3"><a xlink:href="classiDynTree_1_1MatrixDynSize.html" target="_top" xlink:title="Class providing a simple form of matrix with dynamic size.">
<polygon fill="none" stroke="black" points="0,-224.5 0,-243.5 137,-243.5 137,-224.5 0,-224.5"/>
<text text-anchor="middle" x="68.5" y="-231.5" font-family="FreeSans.ttf" font-size="10.00">iDynTree::MatrixDynSize</text>
</a>
</g>
</g>
<!-- Node3&#45;&gt;Node2 -->
<g id="edge2" class="edge">
<title>Node3&#45;&gt;Node2</title>
<path fill="none" stroke="#9a32cd" stroke-dasharray="5,2" d="M67.71,-214.26C68.11,-201.45 70.58,-184.74 79.5,-173 92.25,-156.23 112.1,-144.77 130.99,-137.11"/>
<polygon fill="#9a32cd" stroke="#9a32cd" points="64.21,-214.31 67.78,-224.29 71.21,-214.26 64.21,-214.31"/>
<text text-anchor="middle" x="125" y="-198" font-family="FreeSans.ttf" font-size="10.00"> jacBuffer</text>
<text text-anchor="middle" x="125" y="-187" font-family="FreeSans.ttf" font-size="10.00">constraintJacobian</text>
<text text-anchor="middle" x="125" y="-176" font-family="FreeSans.ttf" font-size="10.00">zeroMatrix</text>
</g>
<!-- Node4 -->
<g id="node4" class="node">
<title>Node4</title>
<g id="a_node4"><a xlink:href="classiDynTree_1_1VectorDynSize.html" target="_top" xlink:title="Class providing a simple form of vector with dynamic size.">
<polygon fill="none" stroke="black" points="187.5,-224.5 187.5,-243.5 323.5,-243.5 323.5,-224.5 187.5,-224.5"/>
<text text-anchor="middle" x="255.5" y="-231.5" font-family="FreeSans.ttf" font-size="10.00">iDynTree::VectorDynSize</text>
</a>
</g>
</g>
<!-- Node4&#45;&gt;Node1 -->
<g id="edge4" class="edge">
<title>Node4&#45;&gt;Node1</title>
<path fill="none" stroke="#9a32cd" stroke-dasharray="5,2" d="M269.67,-216.11C271.66,-212.93 273.39,-209.49 274.5,-206 278.93,-192.02 275.4,-187.64 274.5,-173 271.38,-122.49 277.98,-107.49 260.5,-60 258.15,-53.63 254.56,-47.25 250.83,-41.58"/>
<polygon fill="#9a32cd" stroke="#9a32cd" points="266.78,-214.13 263.73,-224.27 272.45,-218.24 266.78,-214.13"/>
<text text-anchor="middle" x="336" y="-147" font-family="FreeSans.ttf" font-size="10.00"> constraintsUpperBounds</text>
<text text-anchor="middle" x="336" y="-136" font-family="FreeSans.ttf" font-size="10.00">variablesUpperBounds</text>
<text text-anchor="middle" x="336" y="-125" font-family="FreeSans.ttf" font-size="10.00">constraintsLowerBounds</text>
<text text-anchor="middle" x="336" y="-114" font-family="FreeSans.ttf" font-size="10.00">solution</text>
<text text-anchor="middle" x="336" y="-103" font-family="FreeSans.ttf" font-size="10.00">x0</text>
<text text-anchor="middle" x="336" y="-92" font-family="FreeSans.ttf" font-size="10.00">variablesLowerBounds</text>
</g>
<!-- Node4&#45;&gt;Node2 -->
<g id="edge3" class="edge">
<title>Node4&#45;&gt;Node2</title>
<path fill="none" stroke="#9a32cd" stroke-dasharray="5,2" d="M198.94,-219.8C192.91,-216.24 187.52,-211.73 183.5,-206 169.18,-185.59 173.76,-154.86 178.23,-137.08"/>
<polygon fill="#9a32cd" stroke="#9a32cd" points="197.64,-223.06 208.16,-224.35 200.74,-216.78 197.64,-223.06"/>
<text text-anchor="middle" x="229" y="-198" font-family="FreeSans.ttf" font-size="10.00"> constraintsBuffer</text>
<text text-anchor="middle" x="229" y="-187" font-family="FreeSans.ttf" font-size="10.00">costJacobianBuffer</text>
<text text-anchor="middle" x="229" y="-176" font-family="FreeSans.ttf" font-size="10.00">variablesBuffer</text>
</g>
</g>
</svg>
