<?xml version="1.0" encoding="UTF-8" standalone="no"?>
<!DOCTYPE svg PUBLIC "-//W3C//DTD SVG 1.1//EN"
 "http://www.w3.org/Graphics/SVG/1.1/DTD/svg11.dtd">
<!-- Generated by graphviz version 2.43.0 (0)
 -->
<!-- Title: iDynTree::details::extent_type&lt; Ext &gt; Pages: 1 -->
<svg width="548pt" height="61pt"
 viewBox="0.00 0.00 548.00 61.00" xmlns="http://www.w3.org/2000/svg" xmlns:xlink="http://www.w3.org/1999/xlink">
<g id="graph0" class="graph" transform="scale(1 1) rotate(0) translate(4 57)">
<title>iDynTree::details::extent_type&lt; Ext &gt;</title>
<!-- Node1 -->
<g id="node1" class="node">
<title>Node1</title>
<g id="a_node1"><a xlink:title=" ">
<polygon fill="#bfbfbf" stroke="black" points="0,-11.5 0,-41.5 113,-41.5 113,-11.5 0,-11.5"/>
<text text-anchor="start" x="8" y="-29.5" font-family="FreeSans.ttf" font-size="10.00">iDynTree::details::</text>
<text text-anchor="middle" x="56.5" y="-18.5" font-family="FreeSans.ttf" font-size="10.00">extent_type&lt; Ext &gt;</text>
</a>
</g>
</g>
<!-- Node2 -->
<g id="node2" class="node">
<title>Node2</title>
<g id="a_node2"><a xlink:href="classiDynTree_1_1details_1_1extent__type.html" target="_top" xlink:title=" ">
<polygon fill="none" stroke="black" points="207,-11.5 207,-41.5 336,-41.5 336,-11.5 207,-11.5"/>
<text text-anchor="start" x="215" y="-29.5" font-family="FreeSans.ttf" font-size="10.00">iDynTree::details::</text>
<text text-anchor="middle" x="271.5" y="-18.5" font-family="FreeSans.ttf" font-size="10.00">extent_type&lt; Extent &gt;</text>
</a>
</g>
</g>
<!-- Node1&#45;&gt;Node2 -->
<g id="edge1" class="edge">
<title>Node1&#45;&gt;Node2</title>
<path fill="none" stroke="orange" stroke-dasharray="5,2" d="M123.53,-26.5C150.07,-26.5 180.56,-26.5 206.86,-26.5"/>
<polygon fill="orange" stroke="orange" points="123.19,-23 113.19,-26.5 123.18,-30 123.19,-23"/>
<text text-anchor="middle" x="160" y="-29.5" font-family="FreeSans.ttf" font-size="10.00"> &lt; Extent &gt;</text>
</g>
<!-- Node3 -->
<g id="node3" class="node">
<title>Node3</title>
<g id="a_node3"><a xlink:title=" ">
<polygon fill="none" stroke="#bfbfbf" points="373,-0.5 373,-52.5 540,-52.5 540,-0.5 373,-0.5"/>
<text text-anchor="start" x="381" y="-40.5" font-family="FreeSans.ttf" font-size="10.00">iDynTree::Span&lt; ElementType,</text>
<text text-anchor="start" x="381" y="-29.5" font-family="FreeSans.ttf" font-size="10.00"> Extent &gt;::storage_type</text>
<text text-anchor="start" x="381" y="-18.5" font-family="FreeSans.ttf" font-size="10.00">&lt; iDynTree::details::extent</text>
<text text-anchor="middle" x="456.5" y="-7.5" font-family="FreeSans.ttf" font-size="10.00">_type&lt; Extent &gt; &gt;</text>
</a>
</g>
</g>
<!-- Node2&#45;&gt;Node3 -->
<g id="edge2" class="edge">
<title>Node2&#45;&gt;Node3</title>
<path fill="none" stroke="midnightblue" d="M346.4,-26.5C355.15,-26.5 364.13,-26.5 372.99,-26.5"/>
<polygon fill="midnightblue" stroke="midnightblue" points="346.25,-23 336.25,-26.5 346.25,-30 346.25,-23"/>
</g>
</g>
</svg>
