<?xml version="1.0" encoding="UTF-8" standalone="no"?>
<!DOCTYPE svg PUBLIC "-//W3C//DTD SVG 1.1//EN"
 "http://www.w3.org/Graphics/SVG/1.1/DTD/svg11.dtd">
<!-- Generated by graphviz version 2.43.0 (0)
 -->
<!-- Title: iDynTree::IEnvironment Pages: 1 -->
<svg width="322pt" height="84pt"
 viewBox="0.00 0.00 321.50 84.00" xmlns="http://www.w3.org/2000/svg" xmlns:xlink="http://www.w3.org/1999/xlink">
<g id="graph0" class="graph" transform="scale(1 1) rotate(0) translate(4 80)">
<title>iDynTree::IEnvironment</title>
<!-- Node1 -->
<g id="node1" class="node">
<title>Node1</title>
<g id="a_node1"><a xlink:title="Interface to manipulate the elements in the enviroment (background, root frame, reference lines)">
<polygon fill="#bfbfbf" stroke="black" points="101,-56.5 101,-75.5 232,-75.5 232,-56.5 101,-56.5"/>
<text text-anchor="middle" x="166.5" y="-63.5" font-family="FreeSans.ttf" font-size="10.00">iDynTree::IEnvironment</text>
</a>
</g>
</g>
<!-- Node2 -->
<g id="node2" class="node">
<title>Node2</title>
<g id="a_node2"><a xlink:href="classiDynTree_1_1DummyEnvironment.html" target="_top" xlink:title="Dummy environment.">
<polygon fill="none" stroke="black" points="0,-0.5 0,-19.5 167,-19.5 167,-0.5 0,-0.5"/>
<text text-anchor="middle" x="83.5" y="-7.5" font-family="FreeSans.ttf" font-size="10.00">iDynTree::DummyEnvironment</text>
</a>
</g>
</g>
<!-- Node1&#45;&gt;Node2 -->
<g id="edge1" class="edge">
<title>Node1&#45;&gt;Node2</title>
<path fill="none" stroke="midnightblue" d="M144.4,-50.62C129.24,-40.76 109.62,-27.99 96.8,-19.65"/>
<polygon fill="midnightblue" stroke="midnightblue" points="142.87,-53.8 153.16,-56.32 146.69,-47.94 142.87,-53.8"/>
</g>
<!-- Node3 -->
<g id="node3" class="node">
<title>Node3</title>
<g id="a_node3"><a xlink:href="classiDynTree_1_1Environment.html" target="_top" xlink:title=" ">
<polygon fill="none" stroke="black" points="185.5,-0.5 185.5,-19.5 313.5,-19.5 313.5,-0.5 185.5,-0.5"/>
<text text-anchor="middle" x="249.5" y="-7.5" font-family="FreeSans.ttf" font-size="10.00">iDynTree::Environment</text>
</a>
</g>
</g>
<!-- Node1&#45;&gt;Node3 -->
<g id="edge2" class="edge">
<title>Node1&#45;&gt;Node3</title>
<path fill="none" stroke="midnightblue" d="M188.6,-50.62C203.76,-40.76 223.38,-27.99 236.2,-19.65"/>
<polygon fill="midnightblue" stroke="midnightblue" points="186.31,-47.94 179.84,-56.32 190.13,-53.8 186.31,-47.94"/>
</g>
</g>
</svg>
