<?xml version="1.0" encoding="UTF-8" standalone="no"?>
<!DOCTYPE svg PUBLIC "-//W3C//DTD SVG 1.1//EN"
 "http://www.w3.org/Graphics/SVG/1.1/DTD/svg11.dtd">
<!-- Generated by graphviz version 2.43.0 (0)
 -->
<!-- Title: iDynTree::optimalcontrol::LinearConstraint::LinearConstraintImplementation Pages: 1 -->
<svg width="333pt" height="139pt"
 viewBox="0.00 0.00 332.50 139.00" xmlns="http://www.w3.org/2000/svg" xmlns:xlink="http://www.w3.org/1999/xlink">
<g id="graph0" class="graph" transform="scale(1 1) rotate(0) translate(4 135)">
<title>iDynTree::optimalcontrol::LinearConstraint::LinearConstraintImplementation</title>
<!-- Node1 -->
<g id="node1" class="node">
<title>Node1</title>
<g id="a_node1"><a xlink:title=" ">
<polygon fill="#bfbfbf" stroke="black" points="51,-0.5 51,-41.5 240,-41.5 240,-0.5 51,-0.5"/>
<text text-anchor="start" x="59" y="-29.5" font-family="FreeSans.ttf" font-size="10.00">iDynTree::optimalcontrol</text>
<text text-anchor="start" x="59" y="-18.5" font-family="FreeSans.ttf" font-size="10.00">::LinearConstraint::LinearConstraint</text>
<text text-anchor="middle" x="145.5" y="-7.5" font-family="FreeSans.ttf" font-size="10.00">Implementation</text>
</a>
</g>
</g>
<!-- Node2 -->
<g id="node2" class="node">
<title>Node2</title>
<g id="a_node2"><a xlink:href="classiDynTree_1_1optimalcontrol_1_1SparsityStructure.html" target="_top" xlink:title=" ">
<polygon fill="none" stroke="black" points="0,-100.5 0,-130.5 137,-130.5 137,-100.5 0,-100.5"/>
<text text-anchor="start" x="8" y="-118.5" font-family="FreeSans.ttf" font-size="10.00">iDynTree::optimalcontrol</text>
<text text-anchor="middle" x="68.5" y="-107.5" font-family="FreeSans.ttf" font-size="10.00">::SparsityStructure</text>
</a>
</g>
</g>
<!-- Node2&#45;&gt;Node1 -->
<g id="edge1" class="edge">
<title>Node2&#45;&gt;Node1</title>
<path fill="none" stroke="#9a32cd" stroke-dasharray="5,2" d="M86.85,-92.46C99.7,-77.02 116.72,-56.57 129.12,-41.68"/>
<polygon fill="#9a32cd" stroke="#9a32cd" points="83.9,-90.53 80.19,-100.45 89.28,-95 83.9,-90.53"/>
<text text-anchor="middle" x="149.5" y="-74" font-family="FreeSans.ttf" font-size="10.00"> stateSparsity</text>
<text text-anchor="middle" x="149.5" y="-63" font-family="FreeSans.ttf" font-size="10.00">controlSparsity</text>
</g>
<!-- Node3 -->
<g id="node3" class="node">
<title>Node3</title>
<g id="a_node3"><a xlink:href="classiDynTree_1_1VectorDynSize.html" target="_top" xlink:title="Class providing a simple form of vector with dynamic size.">
<polygon fill="none" stroke="black" points="155.5,-106 155.5,-125 291.5,-125 291.5,-106 155.5,-106"/>
<text text-anchor="middle" x="223.5" y="-113" font-family="FreeSans.ttf" font-size="10.00">iDynTree::VectorDynSize</text>
</a>
</g>
</g>
<!-- Node3&#45;&gt;Node1 -->
<g id="edge2" class="edge">
<title>Node3&#45;&gt;Node1</title>
<path fill="none" stroke="#9a32cd" stroke-dasharray="5,2" d="M214.61,-96.65C208.62,-85.51 200.07,-71.2 190.5,-60 184.92,-53.47 178.16,-47.13 171.59,-41.57"/>
<polygon fill="#9a32cd" stroke="#9a32cd" points="211.65,-98.54 219.36,-105.81 217.87,-95.32 211.65,-98.54"/>
<text text-anchor="middle" x="265" y="-74" font-family="FreeSans.ttf" font-size="10.00"> stateConstraintsBuffer</text>
<text text-anchor="middle" x="265" y="-63" font-family="FreeSans.ttf" font-size="10.00">controlConstraintsBuffer</text>
</g>
</g>
</svg>
