<?xml version="1.0" encoding="UTF-8" standalone="no"?>
<!DOCTYPE svg PUBLIC "-//W3C//DTD SVG 1.1//EN"
 "http://www.w3.org/Graphics/SVG/1.1/DTD/svg11.dtd">
<!-- Generated by graphviz version 2.43.0 (0)
 -->
<!-- Title: iDynTree::SpatialForceVector Pages: 1 -->
<svg width="284pt" height="220pt"
 viewBox="0.00 0.00 283.50 220.00" xmlns="http://www.w3.org/2000/svg" xmlns:xlink="http://www.w3.org/1999/xlink">
<g id="graph0" class="graph" transform="scale(1 1) rotate(0) translate(4 216)">
<title>iDynTree::SpatialForceVector</title>
<!-- Node1 -->
<g id="node1" class="node">
<title>Node1</title>
<g id="a_node1"><a xlink:title="Class providing the raw coordinates for any spatial force vector, (i.e.">
<polygon fill="#bfbfbf" stroke="black" points="72.5,-57.5 72.5,-76.5 228.5,-76.5 228.5,-57.5 72.5,-57.5"/>
<text text-anchor="middle" x="150.5" y="-64.5" font-family="FreeSans.ttf" font-size="10.00">iDynTree::SpatialForceVector</text>
</a>
</g>
</g>
<!-- Node4 -->
<g id="node4" class="node">
<title>Node4</title>
<g id="a_node4"><a xlink:href="classiDynTree_1_1SpatialMomentum.html" target="_top" xlink:title="Class representing a spatial momentum, i.e.">
<polygon fill="none" stroke="black" points="0,-0.5 0,-19.5 155,-19.5 155,-0.5 0,-0.5"/>
<text text-anchor="middle" x="77.5" y="-7.5" font-family="FreeSans.ttf" font-size="10.00">iDynTree::SpatialMomentum</text>
</a>
</g>
</g>
<!-- Node1&#45;&gt;Node4 -->
<g id="edge3" class="edge">
<title>Node1&#45;&gt;Node4</title>
<path fill="none" stroke="midnightblue" d="M130.97,-51.29C117.6,-41.21 100.31,-28.19 89.07,-19.71"/>
<polygon fill="midnightblue" stroke="midnightblue" points="129,-54.18 139.09,-57.41 133.21,-48.59 129,-54.18"/>
</g>
<!-- Node5 -->
<g id="node5" class="node">
<title>Node5</title>
<g id="a_node5"><a xlink:href="classiDynTree_1_1Wrench.html" target="_top" xlink:title="Class representing a wrench, i.e.">
<polygon fill="none" stroke="black" points="173.5,-0.5 173.5,-19.5 275.5,-19.5 275.5,-0.5 173.5,-0.5"/>
<text text-anchor="middle" x="224.5" y="-7.5" font-family="FreeSans.ttf" font-size="10.00">iDynTree::Wrench</text>
</a>
</g>
</g>
<!-- Node1&#45;&gt;Node5 -->
<g id="edge4" class="edge">
<title>Node1&#45;&gt;Node5</title>
<path fill="none" stroke="midnightblue" d="M170.3,-51.29C183.85,-41.21 201.38,-28.19 212.77,-19.71"/>
<polygon fill="midnightblue" stroke="midnightblue" points="168,-48.63 162.06,-57.41 172.18,-54.25 168,-48.63"/>
</g>
<!-- Node2 -->
<g id="node2" class="node">
<title>Node2</title>
<g id="a_node2"><a xlink:href="classiDynTree_1_1SpatialVector.html" target="_top" xlink:title=" ">
<polygon fill="none" stroke="black" points="85.5,-114.5 85.5,-144.5 215.5,-144.5 215.5,-114.5 85.5,-114.5"/>
<text text-anchor="start" x="93.5" y="-132.5" font-family="FreeSans.ttf" font-size="10.00">iDynTree::SpatialVector</text>
<text text-anchor="middle" x="150.5" y="-121.5" font-family="FreeSans.ttf" font-size="10.00">&lt; SpatialForceVector &gt;</text>
</a>
</g>
</g>
<!-- Node2&#45;&gt;Node1 -->
<g id="edge1" class="edge">
<title>Node2&#45;&gt;Node1</title>
<path fill="none" stroke="midnightblue" d="M150.5,-104.35C150.5,-94.51 150.5,-83.78 150.5,-76.54"/>
<polygon fill="midnightblue" stroke="midnightblue" points="147,-104.47 150.5,-114.47 154,-104.47 147,-104.47"/>
</g>
<!-- Node3 -->
<g id="node3" class="node">
<title>Node3</title>
<g id="a_node3"><a xlink:href="classiDynTree_1_1SpatialVector.html" target="_top" xlink:title=" ">
<polygon fill="none" stroke="black" points="85.5,-192.5 85.5,-211.5 215.5,-211.5 215.5,-192.5 85.5,-192.5"/>
<text text-anchor="middle" x="150.5" y="-199.5" font-family="FreeSans.ttf" font-size="10.00">iDynTree::SpatialVector</text>
</a>
</g>
</g>
<!-- Node3&#45;&gt;Node2 -->
<g id="edge2" class="edge">
<title>Node3&#45;&gt;Node2</title>
<path fill="none" stroke="orange" stroke-dasharray="5,2" d="M150.5,-182.24C150.5,-170.41 150.5,-155.38 150.5,-144.58"/>
<polygon fill="orange" stroke="orange" points="147,-182.36 150.5,-192.36 154,-182.36 147,-182.36"/>
<text text-anchor="middle" x="209" y="-166" font-family="FreeSans.ttf" font-size="10.00"> &lt; SpatialForceVector &gt;</text>
</g>
</g>
</svg>
