<?xml version="1.0" encoding="UTF-8" standalone="no"?>
<!DOCTYPE svg PUBLIC "-//W3C//DTD SVG 1.1//EN"
 "http://www.w3.org/Graphics/SVG/1.1/DTD/svg11.dtd">
<!-- Generated by graphviz version 2.43.0 (0)
 -->
<!-- Title: iDynTree::LinkSensor Pages: 1 -->
<svg width="467pt" height="165pt"
 viewBox="0.00 0.00 467.00 164.50" xmlns="http://www.w3.org/2000/svg" xmlns:xlink="http://www.w3.org/1999/xlink">
<g id="graph0" class="graph" transform="scale(1 1) rotate(0) translate(4 160.5)">
<title>iDynTree::LinkSensor</title>
<!-- Node1 -->
<g id="node1" class="node">
<title>Node1</title>
<g id="a_node1"><a xlink:title="Interface for Sensor that are associated to a Link.">
<polygon fill="#bfbfbf" stroke="black" points="134,-77 134,-96 253,-96 253,-77 134,-77"/>
<text text-anchor="middle" x="193.5" y="-84" font-family="FreeSans.ttf" font-size="10.00">iDynTree::LinkSensor</text>
</a>
</g>
</g>
<!-- Node3 -->
<g id="node3" class="node">
<title>Node3</title>
<g id="a_node3"><a xlink:href="classiDynTree_1_1AccelerometerSensor.html" target="_top" xlink:title="Interface to the Accelerometer class.">
<polygon fill="none" stroke="black" points="289,-137 289,-156 459,-156 459,-137 289,-137"/>
<text text-anchor="middle" x="374" y="-144" font-family="FreeSans.ttf" font-size="10.00">iDynTree::AccelerometerSensor</text>
</a>
</g>
</g>
<!-- Node1&#45;&gt;Node3 -->
<g id="edge2" class="edge">
<title>Node1&#45;&gt;Node3</title>
<path fill="none" stroke="midnightblue" d="M222.68,-100.38C241.19,-109.08 266.13,-120.02 289,-127.5 300.09,-131.12 312.21,-134.3 323.72,-136.97"/>
<polygon fill="midnightblue" stroke="midnightblue" points="224.17,-97.21 213.63,-96.07 221.15,-103.53 224.17,-97.21"/>
</g>
<!-- Node4 -->
<g id="node4" class="node">
<title>Node4</title>
<g id="a_node4"><a xlink:href="classiDynTree_1_1GyroscopeSensor.html" target="_top" xlink:title="Interface to the Gyroscope class.">
<polygon fill="none" stroke="black" points="299,-99 299,-118 449,-118 449,-99 299,-99"/>
<text text-anchor="middle" x="374" y="-106" font-family="FreeSans.ttf" font-size="10.00">iDynTree::GyroscopeSensor</text>
</a>
</g>
</g>
<!-- Node1&#45;&gt;Node4 -->
<g id="edge3" class="edge">
<title>Node1&#45;&gt;Node4</title>
<path fill="none" stroke="midnightblue" d="M263.48,-95C275.06,-96.43 287.13,-97.92 298.84,-99.36"/>
<polygon fill="midnightblue" stroke="midnightblue" points="263.8,-91.51 253.44,-93.76 262.94,-98.46 263.8,-91.51"/>
</g>
<!-- Node5 -->
<g id="node5" class="node">
<title>Node5</title>
<g id="a_node5"><a xlink:href="classiDynTree_1_1ThreeAxisAngularAccelerometerSensor.html" target="_top" xlink:title="Class representing a three axis angular accelerometer, i.e.">
<polygon fill="none" stroke="black" points="298,-49.5 298,-79.5 450,-79.5 450,-49.5 298,-49.5"/>
<text text-anchor="start" x="306" y="-67.5" font-family="FreeSans.ttf" font-size="10.00">iDynTree::ThreeAxisAngular</text>
<text text-anchor="middle" x="374" y="-56.5" font-family="FreeSans.ttf" font-size="10.00">AccelerometerSensor</text>
</a>
</g>
</g>
<!-- Node1&#45;&gt;Node5 -->
<g id="edge4" class="edge">
<title>Node1&#45;&gt;Node5</title>
<path fill="none" stroke="midnightblue" d="M263.61,-77.98C274.84,-76.6 286.52,-75.16 297.89,-73.76"/>
<polygon fill="midnightblue" stroke="midnightblue" points="262.94,-74.54 253.44,-79.24 263.8,-81.49 262.94,-74.54"/>
</g>
<!-- Node6 -->
<g id="node6" class="node">
<title>Node6</title>
<g id="a_node6"><a xlink:href="classiDynTree_1_1ThreeAxisForceTorqueContactSensor.html" target="_top" xlink:title="Class representing a three axis force&#45;torque contact sensor.">
<polygon fill="none" stroke="black" points="304,-0.5 304,-30.5 444,-30.5 444,-0.5 304,-0.5"/>
<text text-anchor="start" x="312" y="-18.5" font-family="FreeSans.ttf" font-size="10.00">iDynTree::ThreeAxisForce</text>
<text text-anchor="middle" x="374" y="-7.5" font-family="FreeSans.ttf" font-size="10.00">TorqueContactSensor</text>
</a>
</g>
</g>
<!-- Node1&#45;&gt;Node6 -->
<g id="edge5" class="edge">
<title>Node1&#45;&gt;Node6</title>
<path fill="none" stroke="midnightblue" d="M220.27,-72.07C238.95,-62.02 265.03,-48.79 289,-39.5 297.34,-36.26 306.3,-33.25 315.15,-30.52"/>
<polygon fill="midnightblue" stroke="midnightblue" points="218.59,-69 211.49,-76.86 221.94,-75.15 218.59,-69"/>
</g>
<!-- Node2 -->
<g id="node2" class="node">
<title>Node2</title>
<g id="a_node2"><a xlink:href="classiDynTree_1_1Sensor.html" target="_top" xlink:title="Interface for Sensor classes in iDynTree .">
<polygon fill="none" stroke="black" points="0,-77 0,-96 98,-96 98,-77 0,-77"/>
<text text-anchor="middle" x="49" y="-84" font-family="FreeSans.ttf" font-size="10.00">iDynTree::Sensor</text>
</a>
</g>
</g>
<!-- Node2&#45;&gt;Node1 -->
<g id="edge1" class="edge">
<title>Node2&#45;&gt;Node1</title>
<path fill="none" stroke="midnightblue" d="M108.38,-86.5C116.81,-86.5 125.5,-86.5 133.94,-86.5"/>
<polygon fill="midnightblue" stroke="midnightblue" points="108.24,-83 98.24,-86.5 108.24,-90 108.24,-83"/>
</g>
</g>
</svg>
