<?xml version="1.0" encoding="UTF-8" standalone="no"?>
<!DOCTYPE svg PUBLIC "-//W3C//DTD SVG 1.1//EN"
 "http://www.w3.org/Graphics/SVG/1.1/DTD/svg11.dtd">
<!-- Generated by graphviz version 2.43.0 (0)
 -->
<!-- Title: iDynTree::VectorDynSize Pages: 1 -->
<svg width="314pt" height="95pt"
 viewBox="0.00 0.00 313.50 95.00" xmlns="http://www.w3.org/2000/svg" xmlns:xlink="http://www.w3.org/1999/xlink">
<g id="graph0" class="graph" transform="scale(1 1) rotate(0) translate(4 91)">
<title>iDynTree::VectorDynSize</title>
<!-- Node1 -->
<g id="node1" class="node">
<title>Node1</title>
<g id="a_node1"><a xlink:title="Class providing a simple form of vector with dynamic size.">
<polygon fill="#bfbfbf" stroke="black" points="87,-67.5 87,-86.5 223,-86.5 223,-67.5 87,-67.5"/>
<text text-anchor="middle" x="155" y="-74.5" font-family="FreeSans.ttf" font-size="10.00">iDynTree::VectorDynSize</text>
</a>
</g>
</g>
<!-- Node2 -->
<g id="node2" class="node">
<title>Node2</title>
<g id="a_node2"><a xlink:href="classiDynTree_1_1JointDOFsDoubleArray.html" target="_top" xlink:title="Class for storing a vector of scalar values, one for each internal coordinate in a model.">
<polygon fill="none" stroke="black" points="0,-0.5 0,-30.5 148,-30.5 148,-0.5 0,-0.5"/>
<text text-anchor="start" x="8" y="-18.5" font-family="FreeSans.ttf" font-size="10.00">iDynTree::JointDOFsDouble</text>
<text text-anchor="middle" x="74" y="-7.5" font-family="FreeSans.ttf" font-size="10.00">Array</text>
</a>
</g>
</g>
<!-- Node1&#45;&gt;Node2 -->
<g id="edge1" class="edge">
<title>Node1&#45;&gt;Node2</title>
<path fill="none" stroke="midnightblue" d="M135.22,-61.47C122.39,-52.05 105.77,-39.84 93.09,-30.52"/>
<polygon fill="midnightblue" stroke="midnightblue" points="133.26,-64.38 143.39,-67.48 137.41,-58.73 133.26,-64.38"/>
</g>
<!-- Node3 -->
<g id="node3" class="node">
<title>Node3</title>
<g id="a_node3"><a xlink:href="classiDynTree_1_1JointPosDoubleArray.html" target="_top" xlink:title="Class for storing a vector of scalar values, one for each internal position coordinate in a model.">
<polygon fill="none" stroke="black" points="166.5,-0.5 166.5,-30.5 305.5,-30.5 305.5,-0.5 166.5,-0.5"/>
<text text-anchor="start" x="174.5" y="-18.5" font-family="FreeSans.ttf" font-size="10.00">iDynTree::JointPosDouble</text>
<text text-anchor="middle" x="236" y="-7.5" font-family="FreeSans.ttf" font-size="10.00">Array</text>
</a>
</g>
</g>
<!-- Node1&#45;&gt;Node3 -->
<g id="edge2" class="edge">
<title>Node1&#45;&gt;Node3</title>
<path fill="none" stroke="midnightblue" d="M174.78,-61.47C187.61,-52.05 204.23,-39.84 216.91,-30.52"/>
<polygon fill="midnightblue" stroke="midnightblue" points="172.59,-58.73 166.61,-67.48 176.74,-64.38 172.59,-58.73"/>
</g>
</g>
</svg>
