<?xml version="1.0" encoding="UTF-8" standalone="no"?>
<!DOCTYPE svg PUBLIC "-//W3C//DTD SVG 1.1//EN"
 "http://www.w3.org/Graphics/SVG/1.1/DTD/svg11.dtd">
<!-- Generated by graphviz version 2.43.0 (0)
 -->
<!-- Title: ConstraintsGroup.h Pages: 1 -->
<svg width="462pt" height="196pt"
 viewBox="0.00 0.00 462.00 196.00" xmlns="http://www.w3.org/2000/svg" xmlns:xlink="http://www.w3.org/1999/xlink">
<g id="graph0" class="graph" transform="scale(1 1) rotate(0) translate(4 192)">
<title>ConstraintsGroup.h</title>
<!-- Node1 -->
<g id="node1" class="node">
<title>Node1</title>
<g id="a_node1"><a xlink:title=" ">
<polygon fill="#bfbfbf" stroke="black" points="50,-168.5 50,-187.5 160,-187.5 160,-168.5 50,-168.5"/>
<text text-anchor="middle" x="105" y="-175.5" font-family="FreeSans.ttf" font-size="10.00">ConstraintsGroup.h</text>
</a>
</g>
</g>
<!-- Node2 -->
<g id="node2" class="node">
<title>Node2</title>
<g id="a_node2"><a xlink:title=" ">
<polygon fill="none" stroke="#bfbfbf" points="0,-112.5 0,-131.5 58,-131.5 58,-112.5 0,-112.5"/>
<text text-anchor="middle" x="29" y="-119.5" font-family="FreeSans.ttf" font-size="10.00">memory</text>
</a>
</g>
</g>
<!-- Node1&#45;&gt;Node2 -->
<g id="edge1" class="edge">
<title>Node1&#45;&gt;Node2</title>
<path fill="none" stroke="midnightblue" d="M92.79,-168.32C81.22,-160.11 63.62,-147.6 49.84,-137.81"/>
<polygon fill="midnightblue" stroke="midnightblue" points="51.61,-134.77 41.43,-131.83 47.56,-140.48 51.61,-134.77"/>
</g>
<!-- Node3 -->
<g id="node3" class="node">
<title>Node3</title>
<g id="a_node3"><a xlink:title=" ">
<polygon fill="none" stroke="#bfbfbf" points="64,-56.5 64,-75.5 108,-75.5 108,-56.5 64,-56.5"/>
<text text-anchor="middle" x="86" y="-63.5" font-family="FreeSans.ttf" font-size="10.00">string</text>
</a>
</g>
</g>
<!-- Node1&#45;&gt;Node3 -->
<g id="edge2" class="edge">
<title>Node1&#45;&gt;Node3</title>
<path fill="none" stroke="midnightblue" d="M103.51,-168.37C100.44,-150.62 93.37,-109.67 89.21,-85.6"/>
<polygon fill="midnightblue" stroke="midnightblue" points="92.64,-84.85 87.48,-75.59 85.74,-86.04 92.64,-84.85"/>
</g>
<!-- Node4 -->
<g id="node4" class="node">
<title>Node4</title>
<g id="a_node4"><a xlink:title=" ">
<polygon fill="none" stroke="#bfbfbf" points="126.5,-56.5 126.5,-75.5 173.5,-75.5 173.5,-56.5 126.5,-56.5"/>
<text text-anchor="middle" x="150" y="-63.5" font-family="FreeSans.ttf" font-size="10.00">vector</text>
</a>
</g>
</g>
<!-- Node1&#45;&gt;Node4 -->
<g id="edge3" class="edge">
<title>Node1&#45;&gt;Node4</title>
<path fill="none" stroke="midnightblue" d="M108.53,-168.37C115.86,-150.46 132.85,-108.92 142.66,-84.95"/>
<polygon fill="midnightblue" stroke="midnightblue" points="145.94,-86.17 146.49,-75.59 139.46,-83.52 145.94,-86.17"/>
</g>
<!-- Node5 -->
<g id="node5" class="node">
<title>Node5</title>
<g id="a_node5"><a xlink:href="SparsityStructure_8h.html" target="_top" xlink:title=" ">
<polygon fill="none" stroke="black" points="152.5,-112.5 152.5,-131.5 307.5,-131.5 307.5,-112.5 152.5,-112.5"/>
<text text-anchor="middle" x="230" y="-119.5" font-family="FreeSans.ttf" font-size="10.00">iDynTree/SparsityStructure.h</text>
</a>
</g>
</g>
<!-- Node1&#45;&gt;Node5 -->
<g id="edge4" class="edge">
<title>Node1&#45;&gt;Node5</title>
<path fill="none" stroke="midnightblue" d="M124.81,-168.44C145.29,-159.6 177.48,-145.69 200.86,-135.59"/>
<polygon fill="midnightblue" stroke="midnightblue" points="202.49,-138.7 210.29,-131.52 199.72,-132.27 202.49,-138.7"/>
</g>
<!-- Node5&#45;&gt;Node3 -->
<g id="edge11" class="edge">
<title>Node5&#45;&gt;Node3</title>
<path fill="none" stroke="midnightblue" d="M207.18,-112.44C183.03,-103.39 144.72,-89.02 117.65,-78.87"/>
<polygon fill="midnightblue" stroke="midnightblue" points="118.83,-75.57 108.24,-75.34 116.37,-82.13 118.83,-75.57"/>
</g>
<!-- Node5&#45;&gt;Node4 -->
<g id="edge8" class="edge">
<title>Node5&#45;&gt;Node4</title>
<path fill="none" stroke="midnightblue" d="M217.15,-112.32C204.78,-103.98 185.87,-91.21 171.26,-81.35"/>
<polygon fill="midnightblue" stroke="midnightblue" points="173.07,-78.35 162.82,-75.65 169.15,-84.15 173.07,-78.35"/>
</g>
<!-- Node6 -->
<g id="node6" class="node">
<title>Node6</title>
<g id="a_node6"><a xlink:href="Utils_8h.html" target="_top" xlink:title=" ">
<polygon fill="none" stroke="black" points="230.5,-56.5 230.5,-75.5 349.5,-75.5 349.5,-56.5 230.5,-56.5"/>
<text text-anchor="middle" x="290" y="-63.5" font-family="FreeSans.ttf" font-size="10.00">iDynTree/Core/Utils.h</text>
</a>
</g>
</g>
<!-- Node5&#45;&gt;Node6 -->
<g id="edge5" class="edge">
<title>Node5&#45;&gt;Node6</title>
<path fill="none" stroke="midnightblue" d="M239.64,-112.32C248.51,-104.34 261.87,-92.31 272.61,-82.65"/>
<polygon fill="midnightblue" stroke="midnightblue" points="275.09,-85.13 280.18,-75.83 270.41,-79.92 275.09,-85.13"/>
</g>
<!-- Node7 -->
<g id="node7" class="node">
<title>Node7</title>
<g id="a_node7"><a xlink:title=" ">
<polygon fill="none" stroke="#bfbfbf" points="177.5,-0.5 177.5,-19.5 230.5,-19.5 230.5,-0.5 177.5,-0.5"/>
<text text-anchor="middle" x="204" y="-7.5" font-family="FreeSans.ttf" font-size="10.00">cstddef</text>
</a>
</g>
</g>
<!-- Node5&#45;&gt;Node7 -->
<g id="edge9" class="edge">
<title>Node5&#45;&gt;Node7</title>
<path fill="none" stroke="midnightblue" d="M227.96,-112.37C223.76,-94.62 214.08,-53.67 208.4,-29.6"/>
<polygon fill="midnightblue" stroke="midnightblue" points="211.74,-28.52 206.03,-19.59 204.92,-30.13 211.74,-28.52"/>
</g>
<!-- Node9 -->
<g id="node9" class="node">
<title>Node9</title>
<g id="a_node9"><a xlink:title=" ">
<polygon fill="none" stroke="#bfbfbf" points="368,-56.5 368,-75.5 454,-75.5 454,-56.5 368,-56.5"/>
<text text-anchor="middle" x="411" y="-63.5" font-family="FreeSans.ttf" font-size="10.00">unordered_set</text>
</a>
</g>
</g>
<!-- Node5&#45;&gt;Node9 -->
<g id="edge10" class="edge">
<title>Node5&#45;&gt;Node9</title>
<path fill="none" stroke="midnightblue" d="M258.68,-112.44C289.53,-103.24 338.73,-88.56 372.83,-78.39"/>
<polygon fill="midnightblue" stroke="midnightblue" points="373.87,-81.73 382.45,-75.52 371.87,-75.02 373.87,-81.73"/>
</g>
<!-- Node6&#45;&gt;Node7 -->
<g id="edge6" class="edge">
<title>Node6&#45;&gt;Node7</title>
<path fill="none" stroke="midnightblue" d="M276.18,-56.32C262.77,-47.9 242.18,-34.97 226.41,-25.07"/>
<polygon fill="midnightblue" stroke="midnightblue" points="228.11,-22.01 217.78,-19.65 224.39,-27.94 228.11,-22.01"/>
</g>
<!-- Node8 -->
<g id="node8" class="node">
<title>Node8</title>
<g id="a_node8"><a xlink:title=" ">
<polygon fill="none" stroke="#bfbfbf" points="250,-0.5 250,-19.5 330,-19.5 330,-0.5 250,-0.5"/>
<text text-anchor="middle" x="290" y="-7.5" font-family="FreeSans.ttf" font-size="10.00">CoreExport.h</text>
</a>
</g>
</g>
<!-- Node6&#45;&gt;Node8 -->
<g id="edge7" class="edge">
<title>Node6&#45;&gt;Node8</title>
<path fill="none" stroke="midnightblue" d="M290,-56.08C290,-49.01 290,-38.86 290,-29.99"/>
<polygon fill="midnightblue" stroke="midnightblue" points="293.5,-29.75 290,-19.75 286.5,-29.75 293.5,-29.75"/>
</g>
</g>
</svg>
