<?xml version="1.0" encoding="UTF-8" standalone="no"?>
<!DOCTYPE svg PUBLIC "-//W3C//DTD SVG 1.1//EN"
 "http://www.w3.org/Graphics/SVG/1.1/DTD/svg11.dtd">
<!-- Generated by graphviz version 2.43.0 (0)
 -->
<!-- Title: Constraint.h Pages: 1 -->
<svg width="522pt" height="140pt"
 viewBox="0.00 0.00 521.50 140.00" xmlns="http://www.w3.org/2000/svg" xmlns:xlink="http://www.w3.org/1999/xlink">
<g id="graph0" class="graph" transform="scale(1 1) rotate(0) translate(4 136)">
<title>Constraint.h</title>
<!-- Node1 -->
<g id="node1" class="node">
<title>Node1</title>
<g id="a_node1"><a xlink:title=" ">
<polygon fill="#bfbfbf" stroke="black" points="242,-112.5 242,-131.5 318,-131.5 318,-112.5 242,-112.5"/>
<text text-anchor="middle" x="280" y="-119.5" font-family="FreeSans.ttf" font-size="10.00">Constraint.h</text>
</a>
</g>
</g>
<!-- Node2 -->
<g id="node2" class="node">
<title>Node2</title>
<g id="a_node2"><a xlink:href="LinearConstraint_8h.html" target="_top" xlink:title=" ">
<polygon fill="none" stroke="black" points="146,-56.5 146,-75.5 252,-75.5 252,-56.5 146,-56.5"/>
<text text-anchor="middle" x="199" y="-63.5" font-family="FreeSans.ttf" font-size="10.00">LinearConstraint.h</text>
</a>
</g>
</g>
<!-- Node1&#45;&gt;Node2 -->
<g id="edge1" class="edge">
<title>Node1&#45;&gt;Node2</title>
<path fill="none" stroke="midnightblue" d="M258.43,-106.62C243.64,-96.76 224.49,-83.99 211.98,-75.65"/>
<polygon fill="midnightblue" stroke="midnightblue" points="256.72,-109.69 266.99,-112.32 260.61,-103.86 256.72,-109.69"/>
</g>
<!-- Node3 -->
<g id="node3" class="node">
<title>Node3</title>
<g id="a_node3"><a xlink:href="ConstraintsGroup_8cpp.html" target="_top" xlink:title=" ">
<polygon fill="none" stroke="black" points="0,-0.5 0,-19.5 122,-19.5 122,-0.5 0,-0.5"/>
<text text-anchor="middle" x="61" y="-7.5" font-family="FreeSans.ttf" font-size="10.00">ConstraintsGroup.cpp</text>
</a>
</g>
</g>
<!-- Node1&#45;&gt;Node3 -->
<g id="edge7" class="edge">
<title>Node1&#45;&gt;Node3</title>
<path fill="none" stroke="midnightblue" d="M232.08,-111.05C203.34,-103.86 166.73,-92.48 137,-76 109.06,-60.51 82.02,-33.71 69.02,-19.86"/>
<polygon fill="midnightblue" stroke="midnightblue" points="231.35,-114.47 241.89,-113.42 232.99,-107.67 231.35,-114.47"/>
</g>
<!-- Node5 -->
<g id="node5" class="node">
<title>Node5</title>
<g id="a_node5"><a xlink:href="OptimalControlProblem_8cpp.html" target="_top" xlink:title=" ">
<polygon fill="none" stroke="black" points="276,-0.5 276,-19.5 428,-19.5 428,-0.5 276,-0.5"/>
<text text-anchor="middle" x="352" y="-7.5" font-family="FreeSans.ttf" font-size="10.00">OptimalControlProblem.cpp</text>
</a>
</g>
</g>
<!-- Node1&#45;&gt;Node5 -->
<g id="edge8" class="edge">
<title>Node1&#45;&gt;Node5</title>
<path fill="none" stroke="midnightblue" d="M282.53,-102.2C285.05,-88.52 289.9,-70.02 299,-56 308.99,-40.61 325.8,-27.63 337.81,-19.63"/>
<polygon fill="midnightblue" stroke="midnightblue" points="279.03,-101.92 280.93,-112.35 285.95,-103.02 279.03,-101.92"/>
</g>
<!-- Node6 -->
<g id="node6" class="node">
<title>Node6</title>
<g id="a_node6"><a xlink:href="OptimalControl_8h.html" target="_top" xlink:title=" ">
<polygon fill="none" stroke="black" points="308,-56.5 308,-75.5 408,-75.5 408,-56.5 308,-56.5"/>
<text text-anchor="middle" x="358" y="-63.5" font-family="FreeSans.ttf" font-size="10.00">OptimalControl.h</text>
</a>
</g>
</g>
<!-- Node1&#45;&gt;Node6 -->
<g id="edge5" class="edge">
<title>Node1&#45;&gt;Node6</title>
<path fill="none" stroke="midnightblue" d="M300.77,-106.62C315.02,-96.76 333.46,-83.99 345.5,-75.65"/>
<polygon fill="midnightblue" stroke="midnightblue" points="298.76,-103.75 292.53,-112.32 302.75,-109.51 298.76,-103.75"/>
</g>
<!-- Node7 -->
<g id="node7" class="node">
<title>Node7</title>
<g id="a_node7"><a xlink:href="Constraint_8cpp.html" target="_top" xlink:title=" ">
<polygon fill="none" stroke="black" points="426.5,-56.5 426.5,-75.5 513.5,-75.5 513.5,-56.5 426.5,-56.5"/>
<text text-anchor="middle" x="470" y="-63.5" font-family="FreeSans.ttf" font-size="10.00">Constraint.cpp</text>
</a>
</g>
</g>
<!-- Node1&#45;&gt;Node7 -->
<g id="edge6" class="edge">
<title>Node1&#45;&gt;Node7</title>
<path fill="none" stroke="midnightblue" d="M319.76,-109.7C355.62,-99.51 407.57,-84.74 440.03,-75.52"/>
<polygon fill="midnightblue" stroke="midnightblue" points="318.77,-106.34 310.11,-112.44 320.68,-113.08 318.77,-106.34"/>
</g>
<!-- Node2&#45;&gt;Node3 -->
<g id="edge2" class="edge">
<title>Node2&#45;&gt;Node3</title>
<path fill="none" stroke="midnightblue" d="M167.75,-52.77C141.83,-42.63 105.64,-28.47 82.76,-19.52"/>
<polygon fill="midnightblue" stroke="midnightblue" points="166.55,-56.06 177.13,-56.44 169.1,-49.54 166.55,-56.06"/>
</g>
<!-- Node4 -->
<g id="node4" class="node">
<title>Node4</title>
<g id="a_node4"><a xlink:href="LinearConstraint_8cpp.html" target="_top" xlink:title=" ">
<polygon fill="none" stroke="black" points="140.5,-0.5 140.5,-19.5 257.5,-19.5 257.5,-0.5 140.5,-0.5"/>
<text text-anchor="middle" x="199" y="-7.5" font-family="FreeSans.ttf" font-size="10.00">LinearConstraint.cpp</text>
</a>
</g>
</g>
<!-- Node2&#45;&gt;Node4 -->
<g id="edge3" class="edge">
<title>Node2&#45;&gt;Node4</title>
<path fill="none" stroke="midnightblue" d="M199,-45.8C199,-36.91 199,-26.78 199,-19.75"/>
<polygon fill="midnightblue" stroke="midnightblue" points="195.5,-46.08 199,-56.08 202.5,-46.08 195.5,-46.08"/>
</g>
<!-- Node2&#45;&gt;Node5 -->
<g id="edge4" class="edge">
<title>Node2&#45;&gt;Node5</title>
<path fill="none" stroke="midnightblue" d="M232.89,-53.04C261.68,-42.88 302.29,-28.55 327.87,-19.52"/>
<polygon fill="midnightblue" stroke="midnightblue" points="231.51,-49.81 223.24,-56.44 233.84,-56.42 231.51,-49.81"/>
</g>
</g>
</svg>
