<?xml version="1.0" encoding="UTF-8" standalone="no"?>
<!DOCTYPE svg PUBLIC "-//W3C//DTD SVG 1.1//EN"
 "http://www.w3.org/Graphics/SVG/1.1/DTD/svg11.dtd">
<!-- Generated by graphviz version 2.43.0 (0)
 -->
<!-- Title: ControlledDynamicalSystem.h Pages: 1 -->
<svg width="864pt" height="252pt"
 viewBox="0.00 0.00 863.50 252.00" xmlns="http://www.w3.org/2000/svg" xmlns:xlink="http://www.w3.org/1999/xlink">
<g id="graph0" class="graph" transform="scale(1 1) rotate(0) translate(4 248)">
<title>ControlledDynamicalSystem.h</title>
<!-- Node1 -->
<g id="node1" class="node">
<title>Node1</title>
<g id="a_node1"><a xlink:title=" ">
<polygon fill="#bfbfbf" stroke="black" points="672.5,-224.5 672.5,-243.5 837.5,-243.5 837.5,-224.5 672.5,-224.5"/>
<text text-anchor="middle" x="755" y="-231.5" font-family="FreeSans.ttf" font-size="10.00">ControlledDynamicalSystem.h</text>
</a>
</g>
</g>
<!-- Node2 -->
<g id="node2" class="node">
<title>Node2</title>
<g id="a_node2"><a xlink:href="DynamicalSystem_8h.html" target="_top" xlink:title=" ">
<polygon fill="none" stroke="black" points="542.5,-168.5 542.5,-187.5 703.5,-187.5 703.5,-168.5 542.5,-168.5"/>
<text text-anchor="middle" x="623" y="-175.5" font-family="FreeSans.ttf" font-size="10.00">iDynTree/DynamicalSystem.h</text>
</a>
</g>
</g>
<!-- Node1&#45;&gt;Node2 -->
<g id="edge1" class="edge">
<title>Node1&#45;&gt;Node2</title>
<path fill="none" stroke="midnightblue" d="M734.08,-224.44C712.26,-215.52 677.85,-201.44 653.11,-191.32"/>
<polygon fill="midnightblue" stroke="midnightblue" points="654.4,-188.06 643.82,-187.52 651.75,-194.54 654.4,-188.06"/>
</g>
<!-- Node20 -->
<g id="node20" class="node">
<title>Node20</title>
<g id="a_node20"><a xlink:href="Controller_8h.html" target="_top" xlink:title=" ">
<polygon fill="none" stroke="black" points="736.5,-112.5 736.5,-131.5 855.5,-131.5 855.5,-112.5 736.5,-112.5"/>
<text text-anchor="middle" x="796" y="-119.5" font-family="FreeSans.ttf" font-size="10.00">iDynTree/Controller.h</text>
</a>
</g>
</g>
<!-- Node1&#45;&gt;Node20 -->
<g id="edge22" class="edge">
<title>Node1&#45;&gt;Node20</title>
<path fill="none" stroke="midnightblue" d="M757.01,-224.43C760.07,-211.85 766.36,-187.73 774,-168 777.57,-158.78 782.31,-148.86 786.48,-140.7"/>
<polygon fill="midnightblue" stroke="midnightblue" points="789.62,-142.25 791.16,-131.76 783.42,-139 789.62,-142.25"/>
</g>
<!-- Node21 -->
<g id="node21" class="node">
<title>Node21</title>
<g id="a_node21"><a xlink:title=" ">
<polygon fill="none" stroke="#bfbfbf" points="783,-168.5 783,-187.5 841,-187.5 841,-168.5 783,-168.5"/>
<text text-anchor="middle" x="812" y="-175.5" font-family="FreeSans.ttf" font-size="10.00">memory</text>
</a>
</g>
</g>
<!-- Node1&#45;&gt;Node21 -->
<g id="edge24" class="edge">
<title>Node1&#45;&gt;Node21</title>
<path fill="none" stroke="midnightblue" d="M764.16,-224.32C772.5,-216.42 785.03,-204.55 795.18,-194.94"/>
<polygon fill="midnightblue" stroke="midnightblue" points="797.82,-197.25 802.68,-187.83 793.01,-192.17 797.82,-197.25"/>
</g>
<!-- Node3 -->
<g id="node3" class="node">
<title>Node3</title>
<g id="a_node3"><a xlink:href="VectorDynSize_8h.html" target="_top" xlink:title=" ">
<polygon fill="none" stroke="black" points="335.5,-112.5 335.5,-131.5 502.5,-131.5 502.5,-112.5 335.5,-112.5"/>
<text text-anchor="middle" x="419" y="-119.5" font-family="FreeSans.ttf" font-size="10.00">iDynTree/Core/VectorDynSize.h</text>
</a>
</g>
</g>
<!-- Node2&#45;&gt;Node3 -->
<g id="edge2" class="edge">
<title>Node2&#45;&gt;Node3</title>
<path fill="none" stroke="midnightblue" d="M590.68,-168.44C555.61,-159.16 499.5,-144.31 461.04,-134.13"/>
<polygon fill="midnightblue" stroke="midnightblue" points="461.74,-130.69 451.17,-131.52 459.94,-137.46 461.74,-130.69"/>
</g>
<!-- Node15 -->
<g id="node15" class="node">
<title>Node15</title>
<g id="a_node15"><a xlink:href="SparsityStructure_8h.html" target="_top" xlink:title=" ">
<polygon fill="none" stroke="black" points="545.5,-112.5 545.5,-131.5 700.5,-131.5 700.5,-112.5 545.5,-112.5"/>
<text text-anchor="middle" x="623" y="-119.5" font-family="FreeSans.ttf" font-size="10.00">iDynTree/SparsityStructure.h</text>
</a>
</g>
</g>
<!-- Node2&#45;&gt;Node15 -->
<g id="edge14" class="edge">
<title>Node2&#45;&gt;Node15</title>
<path fill="none" stroke="midnightblue" d="M623,-168.08C623,-161.01 623,-150.86 623,-141.99"/>
<polygon fill="midnightblue" stroke="midnightblue" points="626.5,-141.75 623,-131.75 619.5,-141.75 626.5,-141.75"/>
</g>
<!-- Node4 -->
<g id="node4" class="node">
<title>Node4</title>
<g id="a_node4"><a xlink:href="Span_8h.html" target="_top" xlink:title=" ">
<polygon fill="none" stroke="black" points="257.5,-56.5 257.5,-75.5 378.5,-75.5 378.5,-56.5 257.5,-56.5"/>
<text text-anchor="middle" x="318" y="-63.5" font-family="FreeSans.ttf" font-size="10.00">iDynTree/Core/Span.h</text>
</a>
</g>
</g>
<!-- Node3&#45;&gt;Node4 -->
<g id="edge3" class="edge">
<title>Node3&#45;&gt;Node4</title>
<path fill="none" stroke="midnightblue" d="M402.77,-112.32C386.65,-103.7 361.7,-90.36 343.04,-80.39"/>
<polygon fill="midnightblue" stroke="midnightblue" points="344.66,-77.28 334.19,-75.65 341.36,-83.46 344.66,-77.28"/>
</g>
<!-- Node14 -->
<g id="node14" class="node">
<title>Node14</title>
<g id="a_node14"><a xlink:title=" ">
<polygon fill="none" stroke="#bfbfbf" points="397,-56.5 397,-75.5 441,-75.5 441,-56.5 397,-56.5"/>
<text text-anchor="middle" x="419" y="-63.5" font-family="FreeSans.ttf" font-size="10.00">string</text>
</a>
</g>
</g>
<!-- Node3&#45;&gt;Node14 -->
<g id="edge13" class="edge">
<title>Node3&#45;&gt;Node14</title>
<path fill="none" stroke="midnightblue" d="M419,-112.08C419,-105.01 419,-94.86 419,-85.99"/>
<polygon fill="midnightblue" stroke="midnightblue" points="422.5,-85.75 419,-75.75 415.5,-85.75 422.5,-85.75"/>
</g>
<!-- Node5 -->
<g id="node5" class="node">
<title>Node5</title>
<g id="a_node5"><a xlink:title=" ">
<polygon fill="none" stroke="#bfbfbf" points="296,-0.5 296,-19.5 348,-19.5 348,-0.5 296,-0.5"/>
<text text-anchor="middle" x="322" y="-7.5" font-family="FreeSans.ttf" font-size="10.00">cassert</text>
</a>
</g>
</g>
<!-- Node4&#45;&gt;Node5 -->
<g id="edge4" class="edge">
<title>Node4&#45;&gt;Node5</title>
<path fill="none" stroke="midnightblue" d="M318.66,-56.08C319.18,-49.01 319.94,-38.86 320.59,-29.99"/>
<polygon fill="midnightblue" stroke="midnightblue" points="324.1,-29.98 321.35,-19.75 317.12,-29.47 324.1,-29.98"/>
</g>
<!-- Node6 -->
<g id="node6" class="node">
<title>Node6</title>
<g id="a_node6"><a xlink:title=" ">
<polygon fill="none" stroke="#bfbfbf" points="366,-0.5 366,-19.5 430,-19.5 430,-0.5 366,-0.5"/>
<text text-anchor="middle" x="398" y="-7.5" font-family="FreeSans.ttf" font-size="10.00">algorithm</text>
</a>
</g>
</g>
<!-- Node4&#45;&gt;Node6 -->
<g id="edge5" class="edge">
<title>Node4&#45;&gt;Node6</title>
<path fill="none" stroke="midnightblue" d="M330.85,-56.32C343.22,-47.98 362.13,-35.21 376.74,-25.35"/>
<polygon fill="midnightblue" stroke="midnightblue" points="378.85,-28.15 385.18,-19.65 374.93,-22.35 378.85,-28.15"/>
</g>
<!-- Node7 -->
<g id="node7" class="node">
<title>Node7</title>
<g id="a_node7"><a xlink:title=" ">
<polygon fill="none" stroke="#bfbfbf" points="448,-0.5 448,-19.5 490,-19.5 490,-0.5 448,-0.5"/>
<text text-anchor="middle" x="469" y="-7.5" font-family="FreeSans.ttf" font-size="10.00">array</text>
</a>
</g>
</g>
<!-- Node4&#45;&gt;Node7 -->
<g id="edge6" class="edge">
<title>Node4&#45;&gt;Node7</title>
<path fill="none" stroke="midnightblue" d="M341.93,-56.44C367.96,-47.13 409.67,-32.22 438.15,-22.03"/>
<polygon fill="midnightblue" stroke="midnightblue" points="439.39,-25.31 447.63,-18.64 437.03,-18.72 439.39,-25.31"/>
</g>
<!-- Node8 -->
<g id="node8" class="node">
<title>Node8</title>
<g id="a_node8"><a xlink:title=" ">
<polygon fill="none" stroke="#bfbfbf" points="715.5,-0.5 715.5,-19.5 768.5,-19.5 768.5,-0.5 715.5,-0.5"/>
<text text-anchor="middle" x="742" y="-7.5" font-family="FreeSans.ttf" font-size="10.00">cstddef</text>
</a>
</g>
</g>
<!-- Node4&#45;&gt;Node8 -->
<g id="edge7" class="edge">
<title>Node4&#45;&gt;Node8</title>
<path fill="none" stroke="midnightblue" d="M378.71,-57.19C381.85,-56.79 384.96,-56.39 388,-56 514.21,-39.89 545.79,-36.11 672,-20 682.87,-18.61 694.69,-17.1 705.46,-15.71"/>
<polygon fill="midnightblue" stroke="midnightblue" points="705.94,-19.18 715.41,-14.43 705.04,-12.24 705.94,-19.18"/>
</g>
<!-- Node9 -->
<g id="node9" class="node">
<title>Node9</title>
<g id="a_node9"><a xlink:title=" ">
<polygon fill="none" stroke="#bfbfbf" points="508.5,-0.5 508.5,-19.5 561.5,-19.5 561.5,-0.5 508.5,-0.5"/>
<text text-anchor="middle" x="535" y="-7.5" font-family="FreeSans.ttf" font-size="10.00">iterator</text>
</a>
</g>
</g>
<!-- Node4&#45;&gt;Node9 -->
<g id="edge8" class="edge">
<title>Node4&#45;&gt;Node9</title>
<path fill="none" stroke="midnightblue" d="M352.37,-56.47C386.78,-47.92 441.54,-34.32 498.38,-20.15"/>
<polygon fill="midnightblue" stroke="midnightblue" points="499.41,-23.5 508.26,-17.69 497.71,-16.71 499.41,-23.5"/>
</g>
<!-- Node10 -->
<g id="node10" class="node">
<title>Node10</title>
<g id="a_node10"><a xlink:title=" ">
<polygon fill="none" stroke="#bfbfbf" points="0,-0.5 0,-19.5 44,-19.5 44,-0.5 0,-0.5"/>
<text text-anchor="middle" x="22" y="-7.5" font-family="FreeSans.ttf" font-size="10.00">limits</text>
</a>
</g>
</g>
<!-- Node4&#45;&gt;Node10 -->
<g id="edge9" class="edge">
<title>Node4&#45;&gt;Node10</title>
<path fill="none" stroke="midnightblue" d="M257.36,-56.72C205.71,-49.21 129.38,-37.03 54.37,-20.1"/>
<polygon fill="midnightblue" stroke="midnightblue" points="54.8,-16.61 44.27,-17.8 53.24,-23.44 54.8,-16.61"/>
</g>
<!-- Node11 -->
<g id="node11" class="node">
<title>Node11</title>
<g id="a_node11"><a xlink:title=" ">
<polygon fill="none" stroke="#bfbfbf" points="62.5,-0.5 62.5,-19.5 127.5,-19.5 127.5,-0.5 62.5,-0.5"/>
<text text-anchor="middle" x="95" y="-7.5" font-family="FreeSans.ttf" font-size="10.00">stdexcept</text>
</a>
</g>
</g>
<!-- Node4&#45;&gt;Node11 -->
<g id="edge10" class="edge">
<title>Node4&#45;&gt;Node11</title>
<path fill="none" stroke="midnightblue" d="M282.66,-56.44C243.3,-46.91 179.66,-31.5 137.57,-21.31"/>
<polygon fill="midnightblue" stroke="midnightblue" points="138.17,-17.85 127.63,-18.9 136.53,-24.66 138.17,-17.85"/>
</g>
<!-- Node12 -->
<g id="node12" class="node">
<title>Node12</title>
<g id="a_node12"><a xlink:title=" ">
<polygon fill="none" stroke="#bfbfbf" points="145.5,-0.5 145.5,-19.5 214.5,-19.5 214.5,-0.5 145.5,-0.5"/>
<text text-anchor="middle" x="180" y="-7.5" font-family="FreeSans.ttf" font-size="10.00">type_traits</text>
</a>
</g>
</g>
<!-- Node4&#45;&gt;Node12 -->
<g id="edge11" class="edge">
<title>Node4&#45;&gt;Node12</title>
<path fill="none" stroke="midnightblue" d="M296.13,-56.44C273.22,-47.48 237.02,-33.31 211.13,-23.18"/>
<polygon fill="midnightblue" stroke="midnightblue" points="212.35,-19.9 201.76,-19.52 209.8,-26.42 212.35,-19.9"/>
</g>
<!-- Node13 -->
<g id="node13" class="node">
<title>Node13</title>
<g id="a_node13"><a xlink:title=" ">
<polygon fill="none" stroke="#bfbfbf" points="232.5,-0.5 232.5,-19.5 277.5,-19.5 277.5,-0.5 232.5,-0.5"/>
<text text-anchor="middle" x="255" y="-7.5" font-family="FreeSans.ttf" font-size="10.00">utility</text>
</a>
</g>
</g>
<!-- Node4&#45;&gt;Node13 -->
<g id="edge12" class="edge">
<title>Node4&#45;&gt;Node13</title>
<path fill="none" stroke="midnightblue" d="M307.88,-56.32C298.47,-48.26 284.26,-36.08 272.93,-26.37"/>
<polygon fill="midnightblue" stroke="midnightblue" points="275.18,-23.68 265.31,-19.83 270.62,-29 275.18,-23.68"/>
</g>
<!-- Node15&#45;&gt;Node8 -->
<g id="edge19" class="edge">
<title>Node15&#45;&gt;Node8</title>
<path fill="none" stroke="midnightblue" d="M698.28,-112.42C720.48,-105.98 742.43,-94.92 756,-76 765.85,-62.26 759.85,-42.97 752.91,-28.97"/>
<polygon fill="midnightblue" stroke="midnightblue" points="755.79,-26.95 747.9,-19.87 749.66,-30.32 755.79,-26.95"/>
</g>
<!-- Node15&#45;&gt;Node14 -->
<g id="edge21" class="edge">
<title>Node15&#45;&gt;Node14</title>
<path fill="none" stroke="midnightblue" d="M589.11,-112.48C556.16,-104.14 504.45,-90.87 450.98,-76.22"/>
<polygon fill="midnightblue" stroke="midnightblue" points="451.9,-72.84 441.33,-73.56 450.04,-79.59 451.9,-72.84"/>
</g>
<!-- Node16 -->
<g id="node16" class="node">
<title>Node16</title>
<g id="a_node16"><a xlink:href="Utils_8h.html" target="_top" xlink:title=" ">
<polygon fill="none" stroke="black" points="563.5,-56.5 563.5,-75.5 682.5,-75.5 682.5,-56.5 563.5,-56.5"/>
<text text-anchor="middle" x="623" y="-63.5" font-family="FreeSans.ttf" font-size="10.00">iDynTree/Core/Utils.h</text>
</a>
</g>
</g>
<!-- Node15&#45;&gt;Node16 -->
<g id="edge15" class="edge">
<title>Node15&#45;&gt;Node16</title>
<path fill="none" stroke="midnightblue" d="M623,-112.08C623,-105.01 623,-94.86 623,-85.99"/>
<polygon fill="midnightblue" stroke="midnightblue" points="626.5,-85.75 623,-75.75 619.5,-85.75 626.5,-85.75"/>
</g>
<!-- Node18 -->
<g id="node18" class="node">
<title>Node18</title>
<g id="a_node18"><a xlink:title=" ">
<polygon fill="none" stroke="#bfbfbf" points="700.5,-56.5 700.5,-75.5 747.5,-75.5 747.5,-56.5 700.5,-56.5"/>
<text text-anchor="middle" x="724" y="-63.5" font-family="FreeSans.ttf" font-size="10.00">vector</text>
</a>
</g>
</g>
<!-- Node15&#45;&gt;Node18 -->
<g id="edge18" class="edge">
<title>Node15&#45;&gt;Node18</title>
<path fill="none" stroke="midnightblue" d="M639.23,-112.32C655.35,-103.7 680.3,-90.36 698.96,-80.39"/>
<polygon fill="midnightblue" stroke="midnightblue" points="700.64,-83.46 707.81,-75.65 697.34,-77.28 700.64,-83.46"/>
</g>
<!-- Node19 -->
<g id="node19" class="node">
<title>Node19</title>
<g id="a_node19"><a xlink:title=" ">
<polygon fill="none" stroke="#bfbfbf" points="459,-56.5 459,-75.5 545,-75.5 545,-56.5 459,-56.5"/>
<text text-anchor="middle" x="502" y="-63.5" font-family="FreeSans.ttf" font-size="10.00">unordered_set</text>
</a>
</g>
</g>
<!-- Node15&#45;&gt;Node19 -->
<g id="edge20" class="edge">
<title>Node15&#45;&gt;Node19</title>
<path fill="none" stroke="midnightblue" d="M603.83,-112.44C584.09,-103.64 553.11,-89.81 530.51,-79.72"/>
<polygon fill="midnightblue" stroke="midnightblue" points="531.64,-76.4 521.08,-75.52 528.79,-82.79 531.64,-76.4"/>
</g>
<!-- Node16&#45;&gt;Node8 -->
<g id="edge16" class="edge">
<title>Node16&#45;&gt;Node8</title>
<path fill="none" stroke="midnightblue" d="M641.86,-56.44C661.27,-47.64 691.73,-33.81 713.96,-23.72"/>
<polygon fill="midnightblue" stroke="midnightblue" points="715.57,-26.84 723.23,-19.52 712.68,-20.46 715.57,-26.84"/>
</g>
<!-- Node17 -->
<g id="node17" class="node">
<title>Node17</title>
<g id="a_node17"><a xlink:title=" ">
<polygon fill="none" stroke="#bfbfbf" points="583,-0.5 583,-19.5 663,-19.5 663,-0.5 583,-0.5"/>
<text text-anchor="middle" x="623" y="-7.5" font-family="FreeSans.ttf" font-size="10.00">CoreExport.h</text>
</a>
</g>
</g>
<!-- Node16&#45;&gt;Node17 -->
<g id="edge17" class="edge">
<title>Node16&#45;&gt;Node17</title>
<path fill="none" stroke="midnightblue" d="M623,-56.08C623,-49.01 623,-38.86 623,-29.99"/>
<polygon fill="midnightblue" stroke="midnightblue" points="626.5,-29.75 623,-19.75 619.5,-29.75 626.5,-29.75"/>
</g>
<!-- Node20&#45;&gt;Node8 -->
<g id="edge23" class="edge">
<title>Node20&#45;&gt;Node8</title>
<path fill="none" stroke="midnightblue" d="M797.06,-112.49C798.27,-99.56 799.06,-74.53 790,-56 784.1,-43.94 773.5,-33.46 763.75,-25.66"/>
<polygon fill="midnightblue" stroke="midnightblue" points="765.66,-22.71 755.55,-19.52 761.46,-28.32 765.66,-22.71"/>
</g>
</g>
</svg>
