<?xml version="1.0" encoding="UTF-8" standalone="no"?>
<!DOCTYPE svg PUBLIC "-//W3C//DTD SVG 1.1//EN"
 "http://www.w3.org/Graphics/SVG/1.1/DTD/svg11.dtd">
<!-- Generated by graphviz version 2.43.0 (0)
 -->
<!-- Title: ConvexHullHelpers.h Pages: 1 -->
<svg width="617pt" height="196pt"
 viewBox="0.00 0.00 616.50 196.00" xmlns="http://www.w3.org/2000/svg" xmlns:xlink="http://www.w3.org/1999/xlink">
<g id="graph0" class="graph" transform="scale(1 1) rotate(0) translate(4 192)">
<title>ConvexHullHelpers.h</title>
<!-- Node1 -->
<g id="node1" class="node">
<title>Node1</title>
<g id="a_node1"><a xlink:title=" ">
<polygon fill="#bfbfbf" stroke="black" points="211,-168.5 211,-187.5 330,-187.5 330,-168.5 211,-168.5"/>
<text text-anchor="middle" x="270.5" y="-175.5" font-family="FreeSans.ttf" font-size="10.00">ConvexHullHelpers.h</text>
</a>
</g>
</g>
<!-- Node2 -->
<g id="node2" class="node">
<title>Node2</title>
<g id="a_node2"><a xlink:href="BoundingBoxHelpers_8h.html" target="_top" xlink:title=" ">
<polygon fill="none" stroke="black" points="38.5,-112.5 38.5,-131.5 166.5,-131.5 166.5,-112.5 38.5,-112.5"/>
<text text-anchor="middle" x="102.5" y="-119.5" font-family="FreeSans.ttf" font-size="10.00">BoundingBoxHelpers.h</text>
</a>
</g>
</g>
<!-- Node1&#45;&gt;Node2 -->
<g id="edge1" class="edge">
<title>Node1&#45;&gt;Node2</title>
<path fill="none" stroke="midnightblue" d="M234.11,-165.3C202.46,-155.13 157.33,-140.62 129,-131.52"/>
<polygon fill="midnightblue" stroke="midnightblue" points="233.29,-168.72 243.88,-168.44 235.43,-162.05 233.29,-168.72"/>
</g>
<!-- Node4 -->
<g id="node4" class="node">
<title>Node4</title>
<g id="a_node4"><a xlink:href="InverseKinematics_8h.html" target="_top" xlink:title=" ">
<polygon fill="none" stroke="black" points="255.5,-112.5 255.5,-131.5 371.5,-131.5 371.5,-112.5 255.5,-112.5"/>
<text text-anchor="middle" x="313.5" y="-119.5" font-family="FreeSans.ttf" font-size="10.00">InverseKinematics.h</text>
</a>
</g>
</g>
<!-- Node1&#45;&gt;Node4 -->
<g id="edge3" class="edge">
<title>Node1&#45;&gt;Node4</title>
<path fill="none" stroke="midnightblue" d="M283.92,-160.14C291.41,-150.74 300.44,-139.4 306.53,-131.75"/>
<polygon fill="midnightblue" stroke="midnightblue" points="281.09,-158.08 277.6,-168.08 286.57,-162.44 281.09,-158.08"/>
</g>
<!-- Node5 -->
<g id="node5" class="node">
<title>Node5</title>
<g id="a_node5"><a xlink:href="InverseKinematicsData_8h.html" target="_top" xlink:title=" ">
<polygon fill="none" stroke="black" points="157.5,-56.5 157.5,-75.5 297.5,-75.5 297.5,-56.5 157.5,-56.5"/>
<text text-anchor="middle" x="227.5" y="-63.5" font-family="FreeSans.ttf" font-size="10.00">InverseKinematicsData.h</text>
</a>
</g>
</g>
<!-- Node1&#45;&gt;Node5 -->
<g id="edge12" class="edge">
<title>Node1&#45;&gt;Node5</title>
<path fill="none" stroke="midnightblue" d="M260.03,-159.4C255.46,-151.25 250.3,-141.33 246.5,-132 238.51,-112.4 232.36,-88.23 229.42,-75.6"/>
<polygon fill="midnightblue" stroke="midnightblue" points="257.13,-161.38 265.16,-168.3 263.2,-157.89 257.13,-161.38"/>
</g>
<!-- Node11 -->
<g id="node11" class="node">
<title>Node11</title>
<g id="a_node11"><a xlink:href="ConvexHullHelpers_8cpp.html" target="_top" xlink:title=" ">
<polygon fill="none" stroke="black" points="390,-112.5 390,-131.5 521,-131.5 521,-112.5 390,-112.5"/>
<text text-anchor="middle" x="455.5" y="-119.5" font-family="FreeSans.ttf" font-size="10.00">ConvexHullHelpers.cpp</text>
</a>
</g>
</g>
<!-- Node1&#45;&gt;Node11 -->
<g id="edge13" class="edge">
<title>Node1&#45;&gt;Node11</title>
<path fill="none" stroke="midnightblue" d="M309.67,-165.57C344.57,-155.38 394.85,-140.7 426.32,-131.52"/>
<polygon fill="midnightblue" stroke="midnightblue" points="308.43,-162.28 299.81,-168.44 310.39,-169 308.43,-162.28"/>
</g>
<!-- Node3 -->
<g id="node3" class="node">
<title>Node3</title>
<g id="a_node3"><a xlink:href="BoundingBoxHelpers_8cpp.html" target="_top" xlink:title=" ">
<polygon fill="none" stroke="black" points="0,-56.5 0,-75.5 139,-75.5 139,-56.5 0,-56.5"/>
<text text-anchor="middle" x="69.5" y="-63.5" font-family="FreeSans.ttf" font-size="10.00">BoundingBoxHelpers.cpp</text>
</a>
</g>
</g>
<!-- Node2&#45;&gt;Node3 -->
<g id="edge2" class="edge">
<title>Node2&#45;&gt;Node3</title>
<path fill="none" stroke="midnightblue" d="M91.67,-103.27C86.03,-94.05 79.38,-83.17 74.85,-75.75"/>
<polygon fill="midnightblue" stroke="midnightblue" points="88.85,-105.38 97.05,-112.08 94.82,-101.73 88.85,-105.38"/>
</g>
<!-- Node4&#45;&gt;Node5 -->
<g id="edge4" class="edge">
<title>Node4&#45;&gt;Node5</title>
<path fill="none" stroke="midnightblue" d="M291.05,-106.9C275.28,-97 254.69,-84.07 241.28,-75.65"/>
<polygon fill="midnightblue" stroke="midnightblue" points="289.35,-109.97 299.68,-112.32 293.07,-104.04 289.35,-109.97"/>
</g>
<!-- Node8 -->
<g id="node8" class="node">
<title>Node8</title>
<g id="a_node8"><a xlink:href="TransformConstraint_8h.html" target="_top" xlink:title=" ">
<polygon fill="none" stroke="black" points="316,-56.5 316,-75.5 441,-75.5 441,-56.5 316,-56.5"/>
<text text-anchor="middle" x="378.5" y="-63.5" font-family="FreeSans.ttf" font-size="10.00">TransformConstraint.h</text>
</a>
</g>
</g>
<!-- Node4&#45;&gt;Node8 -->
<g id="edge7" class="edge">
<title>Node4&#45;&gt;Node8</title>
<path fill="none" stroke="midnightblue" d="M331.77,-105.82C343.42,-96.15 358.1,-83.95 367.87,-75.83"/>
<polygon fill="midnightblue" stroke="midnightblue" points="329.4,-103.24 323.94,-112.32 333.87,-108.63 329.4,-103.24"/>
</g>
<!-- Node10 -->
<g id="node10" class="node">
<title>Node10</title>
<g id="a_node10"><a xlink:href="InverseKinematics_8cpp.html" target="_top" xlink:title=" ">
<polygon fill="none" stroke="black" points="459.5,-56.5 459.5,-75.5 587.5,-75.5 587.5,-56.5 459.5,-56.5"/>
<text text-anchor="middle" x="523.5" y="-63.5" font-family="FreeSans.ttf" font-size="10.00">InverseKinematics.cpp</text>
</a>
</g>
</g>
<!-- Node4&#45;&gt;Node10 -->
<g id="edge11" class="edge">
<title>Node4&#45;&gt;Node10</title>
<path fill="none" stroke="midnightblue" d="M356.69,-109.89C396.35,-99.7 454.27,-84.8 490.38,-75.52"/>
<polygon fill="midnightblue" stroke="midnightblue" points="355.59,-106.56 346.78,-112.44 357.33,-113.34 355.59,-106.56"/>
</g>
<!-- Node6 -->
<g id="node6" class="node">
<title>Node6</title>
<g id="a_node6"><a xlink:href="InverseKinematicsData_8cpp.html" target="_top" xlink:title=" ">
<polygon fill="none" stroke="black" points="303,-0.5 303,-19.5 454,-19.5 454,-0.5 303,-0.5"/>
<text text-anchor="middle" x="378.5" y="-7.5" font-family="FreeSans.ttf" font-size="10.00">InverseKinematicsData.cpp</text>
</a>
</g>
</g>
<!-- Node5&#45;&gt;Node6 -->
<g id="edge5" class="edge">
<title>Node5&#45;&gt;Node6</title>
<path fill="none" stroke="midnightblue" d="M260.95,-53.04C289.36,-42.88 329.44,-28.55 354.69,-19.52"/>
<polygon fill="midnightblue" stroke="midnightblue" points="259.66,-49.78 251.43,-56.44 262.02,-56.37 259.66,-49.78"/>
</g>
<!-- Node7 -->
<g id="node7" class="node">
<title>Node7</title>
<g id="a_node7"><a xlink:href="InverseKinematicsNLP_8cpp.html" target="_top" xlink:title=" ">
<polygon fill="none" stroke="black" points="140,-0.5 140,-19.5 285,-19.5 285,-0.5 140,-0.5"/>
<text text-anchor="middle" x="212.5" y="-7.5" font-family="FreeSans.ttf" font-size="10.00">InverseKinematicsNLP.cpp</text>
</a>
</g>
</g>
<!-- Node5&#45;&gt;Node7 -->
<g id="edge6" class="edge">
<title>Node5&#45;&gt;Node7</title>
<path fill="none" stroke="midnightblue" d="M222.33,-46.4C219.82,-37.36 216.93,-26.94 214.93,-19.75"/>
<polygon fill="midnightblue" stroke="midnightblue" points="218.97,-47.38 225.02,-56.08 225.72,-45.51 218.97,-47.38"/>
</g>
<!-- Node8&#45;&gt;Node6 -->
<g id="edge8" class="edge">
<title>Node8&#45;&gt;Node6</title>
<path fill="none" stroke="midnightblue" d="M378.5,-45.8C378.5,-36.91 378.5,-26.78 378.5,-19.75"/>
<polygon fill="midnightblue" stroke="midnightblue" points="375,-46.08 378.5,-56.08 382,-46.08 375,-46.08"/>
</g>
<!-- Node8&#45;&gt;Node7 -->
<g id="edge9" class="edge">
<title>Node8&#45;&gt;Node7</title>
<path fill="none" stroke="midnightblue" d="M342.55,-53.3C311.27,-43.13 266.68,-28.62 238.68,-19.52"/>
<polygon fill="midnightblue" stroke="midnightblue" points="341.6,-56.68 352.2,-56.44 343.77,-50.02 341.6,-56.68"/>
</g>
<!-- Node9 -->
<g id="node9" class="node">
<title>Node9</title>
<g id="a_node9"><a xlink:href="TransformConstraint_8cpp.html" target="_top" xlink:title=" ">
<polygon fill="none" stroke="black" points="472.5,-0.5 472.5,-19.5 608.5,-19.5 608.5,-0.5 472.5,-0.5"/>
<text text-anchor="middle" x="540.5" y="-7.5" font-family="FreeSans.ttf" font-size="10.00">TransformConstraint.cpp</text>
</a>
</g>
</g>
<!-- Node8&#45;&gt;Node9 -->
<g id="edge10" class="edge">
<title>Node8&#45;&gt;Node9</title>
<path fill="none" stroke="midnightblue" d="M413.98,-53.17C444.49,-43 487.74,-28.59 514.95,-19.52"/>
<polygon fill="midnightblue" stroke="midnightblue" points="412.55,-49.96 404.17,-56.44 414.76,-56.6 412.55,-49.96"/>
</g>
</g>
</svg>
