<?xml version="1.0" encoding="UTF-8" standalone="no"?>
<!DOCTYPE svg PUBLIC "-//W3C//DTD SVG 1.1//EN"
 "http://www.w3.org/Graphics/SVG/1.1/DTD/svg11.dtd">
<!-- Generated by graphviz version 2.43.0 (0)
 -->
<!-- Title: ConvexHullHelpers.h Pages: 1 -->
<svg width="955pt" height="207pt"
 viewBox="0.00 0.00 954.50 207.00" xmlns="http://www.w3.org/2000/svg" xmlns:xlink="http://www.w3.org/1999/xlink">
<g id="graph0" class="graph" transform="scale(1 1) rotate(0) translate(4 203)">
<title>ConvexHullHelpers.h</title>
<!-- Node1 -->
<g id="node1" class="node">
<title>Node1</title>
<g id="a_node1"><a xlink:title=" ">
<polygon fill="#bfbfbf" stroke="black" points="374,-179.5 374,-198.5 493,-198.5 493,-179.5 374,-179.5"/>
<text text-anchor="middle" x="433.5" y="-186.5" font-family="FreeSans.ttf" font-size="10.00">ConvexHullHelpers.h</text>
</a>
</g>
</g>
<!-- Node2 -->
<g id="node2" class="node">
<title>Node2</title>
<g id="a_node2"><a xlink:href="BoundingBoxHelpers_8h.html" target="_top" xlink:title=" ">
<polygon fill="none" stroke="black" points="55.5,-123.5 55.5,-142.5 183.5,-142.5 183.5,-123.5 55.5,-123.5"/>
<text text-anchor="middle" x="119.5" y="-130.5" font-family="FreeSans.ttf" font-size="10.00">BoundingBoxHelpers.h</text>
</a>
</g>
</g>
<!-- Node1&#45;&gt;Node2 -->
<g id="edge1" class="edge">
<title>Node1&#45;&gt;Node2</title>
<path fill="none" stroke="midnightblue" d="M373.77,-177.73C314.43,-167.52 224.51,-152.06 169.02,-142.52"/>
<polygon fill="midnightblue" stroke="midnightblue" points="373.3,-181.2 383.75,-179.44 374.48,-174.3 373.3,-181.2"/>
</g>
<!-- Node4 -->
<g id="node4" class="node">
<title>Node4</title>
<g id="a_node4"><a xlink:href="InverseKinematics_8h.html" target="_top" xlink:title=" ">
<polygon fill="none" stroke="black" points="304.5,-123.5 304.5,-142.5 420.5,-142.5 420.5,-123.5 304.5,-123.5"/>
<text text-anchor="middle" x="362.5" y="-130.5" font-family="FreeSans.ttf" font-size="10.00">InverseKinematics.h</text>
</a>
</g>
</g>
<!-- Node1&#45;&gt;Node4 -->
<g id="edge3" class="edge">
<title>Node1&#45;&gt;Node4</title>
<path fill="none" stroke="midnightblue" d="M413.91,-173.1C401.13,-163.38 384.89,-151.03 374.11,-142.83"/>
<polygon fill="midnightblue" stroke="midnightblue" points="412.01,-176.06 422.09,-179.32 416.25,-170.48 412.01,-176.06"/>
</g>
<!-- Node5 -->
<g id="node5" class="node">
<title>Node5</title>
<g id="a_node5"><a xlink:href="InverseKinematicsData_8h.html" target="_top" xlink:title=" ">
<polygon fill="none" stroke="black" points="157.5,-67.5 157.5,-86.5 297.5,-86.5 297.5,-67.5 157.5,-67.5"/>
<text text-anchor="middle" x="227.5" y="-74.5" font-family="FreeSans.ttf" font-size="10.00">InverseKinematicsData.h</text>
</a>
</g>
</g>
<!-- Node1&#45;&gt;Node5 -->
<g id="edge12" class="edge">
<title>Node1&#45;&gt;Node5</title>
<path fill="none" stroke="midnightblue" d="M381.29,-176.88C354.42,-169.73 321.87,-158.77 295.5,-143 269.71,-127.58 245.86,-100.74 234.49,-86.87"/>
<polygon fill="midnightblue" stroke="midnightblue" points="380.73,-180.35 391.28,-179.43 382.46,-173.56 380.73,-180.35"/>
</g>
<!-- Node11 -->
<g id="node11" class="node">
<title>Node11</title>
<g id="a_node11"><a xlink:href="ConvexHullHelpers_8cpp.html" target="_top" xlink:title=" ">
<polygon fill="none" stroke="black" points="439,-123.5 439,-142.5 570,-142.5 570,-123.5 439,-123.5"/>
<text text-anchor="middle" x="504.5" y="-130.5" font-family="FreeSans.ttf" font-size="10.00">ConvexHullHelpers.cpp</text>
</a>
</g>
</g>
<!-- Node1&#45;&gt;Node11 -->
<g id="edge13" class="edge">
<title>Node1&#45;&gt;Node11</title>
<path fill="none" stroke="midnightblue" d="M453.09,-173.1C465.87,-163.38 482.11,-151.03 492.89,-142.83"/>
<polygon fill="midnightblue" stroke="midnightblue" points="450.75,-170.48 444.91,-179.32 454.99,-176.06 450.75,-170.48"/>
</g>
<!-- Node12 -->
<g id="node12" class="node">
<title>Node12</title>
<g id="a_node12"><a xlink:href="ObserverThread_8h.html" target="_top" xlink:title=" ">
<polygon fill="none" stroke="black" points="626.5,-123.5 626.5,-142.5 730.5,-142.5 730.5,-123.5 626.5,-123.5"/>
<text text-anchor="middle" x="678.5" y="-130.5" font-family="FreeSans.ttf" font-size="10.00">ObserverThread.h</text>
</a>
</g>
</g>
<!-- Node1&#45;&gt;Node12 -->
<g id="edge14" class="edge">
<title>Node1&#45;&gt;Node12</title>
<path fill="none" stroke="midnightblue" d="M482.13,-177.28C528.43,-167.08 597.19,-151.92 639.86,-142.52"/>
<polygon fill="midnightblue" stroke="midnightblue" points="481.33,-173.87 472.32,-179.44 482.84,-180.71 481.33,-173.87"/>
</g>
<!-- Node13 -->
<g id="node13" class="node">
<title>Node13</title>
<g id="a_node13"><a xlink:href="ObserverThread_8cpp.html" target="_top" xlink:title=" ">
<polygon fill="none" stroke="black" points="606,-67.5 606,-86.5 721,-86.5 721,-67.5 606,-67.5"/>
<text text-anchor="middle" x="663.5" y="-74.5" font-family="FreeSans.ttf" font-size="10.00">ObserverThread.cpp</text>
</a>
</g>
</g>
<!-- Node1&#45;&gt;Node13 -->
<g id="edge19" class="edge">
<title>Node1&#45;&gt;Node13</title>
<path fill="none" stroke="midnightblue" d="M483.88,-177.02C512.58,-169.64 548.65,-158.42 578.5,-143 608.87,-127.31 639.49,-100.6 654.32,-86.81"/>
<polygon fill="midnightblue" stroke="midnightblue" points="482.91,-173.66 474.06,-179.47 484.61,-180.45 482.91,-173.66"/>
</g>
<!-- Node3 -->
<g id="node3" class="node">
<title>Node3</title>
<g id="a_node3"><a xlink:href="BoundingBoxHelpers_8cpp.html" target="_top" xlink:title=" ">
<polygon fill="none" stroke="black" points="0,-67.5 0,-86.5 139,-86.5 139,-67.5 0,-67.5"/>
<text text-anchor="middle" x="69.5" y="-74.5" font-family="FreeSans.ttf" font-size="10.00">BoundingBoxHelpers.cpp</text>
</a>
</g>
</g>
<!-- Node2&#45;&gt;Node3 -->
<g id="edge2" class="edge">
<title>Node2&#45;&gt;Node3</title>
<path fill="none" stroke="midnightblue" d="M104.42,-115.72C95.61,-106.2 84.83,-94.56 77.6,-86.75"/>
<polygon fill="midnightblue" stroke="midnightblue" points="101.88,-118.12 111.24,-123.08 107.02,-113.37 101.88,-118.12"/>
</g>
<!-- Node4&#45;&gt;Node5 -->
<g id="edge4" class="edge">
<title>Node4&#45;&gt;Node5</title>
<path fill="none" stroke="midnightblue" d="M331.59,-119.64C306.26,-109.5 271.07,-95.43 248.79,-86.52"/>
<polygon fill="midnightblue" stroke="midnightblue" points="330.52,-122.98 341.11,-123.44 333.12,-116.48 330.52,-122.98"/>
</g>
<!-- Node8 -->
<g id="node8" class="node">
<title>Node8</title>
<g id="a_node8"><a xlink:href="TransformConstraint_8h.html" target="_top" xlink:title=" ">
<polygon fill="none" stroke="black" points="316,-67.5 316,-86.5 441,-86.5 441,-67.5 316,-67.5"/>
<text text-anchor="middle" x="378.5" y="-74.5" font-family="FreeSans.ttf" font-size="10.00">TransformConstraint.h</text>
</a>
</g>
</g>
<!-- Node4&#45;&gt;Node8 -->
<g id="edge7" class="edge">
<title>Node4&#45;&gt;Node8</title>
<path fill="none" stroke="midnightblue" d="M368.01,-113.4C370.69,-104.36 373.78,-93.94 375.91,-86.75"/>
<polygon fill="midnightblue" stroke="midnightblue" points="364.63,-112.5 365.14,-123.08 371.34,-114.49 364.63,-112.5"/>
</g>
<!-- Node10 -->
<g id="node10" class="node">
<title>Node10</title>
<g id="a_node10"><a xlink:href="InverseKinematics_8cpp.html" target="_top" xlink:title=" ">
<polygon fill="none" stroke="black" points="459.5,-67.5 459.5,-86.5 587.5,-86.5 587.5,-67.5 459.5,-67.5"/>
<text text-anchor="middle" x="523.5" y="-74.5" font-family="FreeSans.ttf" font-size="10.00">InverseKinematics.cpp</text>
</a>
</g>
</g>
<!-- Node4&#45;&gt;Node10 -->
<g id="edge11" class="edge">
<title>Node4&#45;&gt;Node10</title>
<path fill="none" stroke="midnightblue" d="M397.76,-120.17C428.08,-110 471.07,-95.59 498.11,-86.52"/>
<polygon fill="midnightblue" stroke="midnightblue" points="396.38,-116.95 388.01,-123.44 398.6,-123.58 396.38,-116.95"/>
</g>
<!-- Node6 -->
<g id="node6" class="node">
<title>Node6</title>
<g id="a_node6"><a xlink:href="InverseKinematicsData_8cpp.html" target="_top" xlink:title=" ">
<polygon fill="none" stroke="black" points="303,-6 303,-25 454,-25 454,-6 303,-6"/>
<text text-anchor="middle" x="378.5" y="-13" font-family="FreeSans.ttf" font-size="10.00">InverseKinematicsData.cpp</text>
</a>
</g>
</g>
<!-- Node5&#45;&gt;Node6 -->
<g id="edge5" class="edge">
<title>Node5&#45;&gt;Node6</title>
<path fill="none" stroke="midnightblue" d="M258.51,-63.78C287.85,-52.22 331.13,-35.16 356.91,-25.01"/>
<polygon fill="midnightblue" stroke="midnightblue" points="257.16,-60.55 249.13,-67.48 259.72,-67.07 257.16,-60.55"/>
</g>
<!-- Node7 -->
<g id="node7" class="node">
<title>Node7</title>
<g id="a_node7"><a xlink:href="InverseKinematicsNLP_8cpp.html" target="_top" xlink:title=" ">
<polygon fill="none" stroke="black" points="140,-6 140,-25 285,-25 285,-6 140,-6"/>
<text text-anchor="middle" x="212.5" y="-13" font-family="FreeSans.ttf" font-size="10.00">InverseKinematicsNLP.cpp</text>
</a>
</g>
</g>
<!-- Node5&#45;&gt;Node7 -->
<g id="edge6" class="edge">
<title>Node5&#45;&gt;Node7</title>
<path fill="none" stroke="midnightblue" d="M222.88,-57.66C220.13,-46.77 216.78,-33.49 214.65,-25.01"/>
<polygon fill="midnightblue" stroke="midnightblue" points="219.51,-58.63 225.35,-67.48 226.3,-56.92 219.51,-58.63"/>
</g>
<!-- Node8&#45;&gt;Node6 -->
<g id="edge8" class="edge">
<title>Node8&#45;&gt;Node6</title>
<path fill="none" stroke="midnightblue" d="M378.5,-57.32C378.5,-46.5 378.5,-33.4 378.5,-25.01"/>
<polygon fill="midnightblue" stroke="midnightblue" points="375,-57.48 378.5,-67.48 382,-57.48 375,-57.48"/>
</g>
<!-- Node8&#45;&gt;Node7 -->
<g id="edge9" class="edge">
<title>Node8&#45;&gt;Node7</title>
<path fill="none" stroke="midnightblue" d="M345.25,-64.08C312.98,-52.52 264.82,-35.25 236.24,-25.01"/>
<polygon fill="midnightblue" stroke="midnightblue" points="344.12,-67.4 354.72,-67.48 346.48,-60.81 344.12,-67.4"/>
</g>
<!-- Node9 -->
<g id="node9" class="node">
<title>Node9</title>
<g id="a_node9"><a xlink:href="TransformConstraint_8cpp.html" target="_top" xlink:title=" ">
<polygon fill="none" stroke="black" points="472.5,-6 472.5,-25 608.5,-25 608.5,-6 472.5,-6"/>
<text text-anchor="middle" x="540.5" y="-13" font-family="FreeSans.ttf" font-size="10.00">TransformConstraint.cpp</text>
</a>
</g>
</g>
<!-- Node8&#45;&gt;Node9 -->
<g id="edge10" class="edge">
<title>Node8&#45;&gt;Node9</title>
<path fill="none" stroke="midnightblue" d="M411.35,-63.93C442.84,-52.37 489.56,-35.21 517.33,-25.01"/>
<polygon fill="midnightblue" stroke="midnightblue" points="409.89,-60.74 401.71,-67.48 412.3,-67.31 409.89,-60.74"/>
</g>
<!-- Node12&#45;&gt;Node13 -->
<g id="edge15" class="edge">
<title>Node12&#45;&gt;Node13</title>
<path fill="none" stroke="midnightblue" d="M673.33,-113.4C670.82,-104.36 667.93,-93.94 665.93,-86.75"/>
<polygon fill="midnightblue" stroke="midnightblue" points="669.97,-114.38 676.02,-123.08 676.72,-112.51 669.97,-114.38"/>
</g>
<!-- Node14 -->
<g id="node14" class="node">
<title>Node14</title>
<g id="a_node14"><a xlink:href="qticubskinguiplugin_8h.html" target="_top" xlink:title=" ">
<polygon fill="none" stroke="black" points="739,-67.5 739,-86.5 860,-86.5 860,-67.5 739,-67.5"/>
<text text-anchor="middle" x="799.5" y="-74.5" font-family="FreeSans.ttf" font-size="10.00">qticubskinguiplugin.h</text>
</a>
</g>
</g>
<!-- Node12&#45;&gt;Node14 -->
<g id="edge16" class="edge">
<title>Node12&#45;&gt;Node14</title>
<path fill="none" stroke="midnightblue" d="M706.81,-119.37C729.47,-109.26 760.63,-95.35 780.42,-86.52"/>
<polygon fill="midnightblue" stroke="midnightblue" points="705.38,-116.17 697.67,-123.44 708.23,-122.56 705.38,-116.17"/>
</g>
<!-- Node15 -->
<g id="node15" class="node">
<title>Node15</title>
<g id="a_node15"><a xlink:href="qticubskinguiplugin_8cpp.html" target="_top" xlink:title=" ">
<polygon fill="none" stroke="black" points="814.5,-6 814.5,-25 946.5,-25 946.5,-6 814.5,-6"/>
<text text-anchor="middle" x="880.5" y="-13" font-family="FreeSans.ttf" font-size="10.00">qticubskinguiplugin.cpp</text>
</a>
</g>
</g>
<!-- Node14&#45;&gt;Node15 -->
<g id="edge17" class="edge">
<title>Node14&#45;&gt;Node15</title>
<path fill="none" stroke="midnightblue" d="M819.52,-61.29C835.06,-49.88 856.05,-34.46 868.92,-25.01"/>
<polygon fill="midnightblue" stroke="midnightblue" points="817.09,-58.73 811.11,-67.48 821.24,-64.38 817.09,-58.73"/>
</g>
<!-- Node16 -->
<g id="node16" class="node">
<title>Node16</title>
<g id="a_node16"><a xlink:href="qticubskinguiplugin__plugin_8cpp.html" target="_top" xlink:title=" ">
<polygon fill="none" stroke="black" points="684.5,-0.5 684.5,-30.5 796.5,-30.5 796.5,-0.5 684.5,-0.5"/>
<text text-anchor="start" x="692.5" y="-18.5" font-family="FreeSans.ttf" font-size="10.00">qticubskinguiplugin</text>
<text text-anchor="middle" x="740.5" y="-7.5" font-family="FreeSans.ttf" font-size="10.00">_plugin.cpp</text>
</a>
</g>
</g>
<!-- Node14&#45;&gt;Node16 -->
<g id="edge18" class="edge">
<title>Node14&#45;&gt;Node16</title>
<path fill="none" stroke="midnightblue" d="M784,-60.37C774.82,-51.11 763.29,-39.48 754.41,-30.52"/>
<polygon fill="midnightblue" stroke="midnightblue" points="781.52,-62.84 791.05,-67.48 786.49,-57.91 781.52,-62.84"/>
</g>
</g>
</svg>
