<?xml version="1.0" encoding="UTF-8" standalone="no"?>
<!DOCTYPE svg PUBLIC "-//W3C//DTD SVG 1.1//EN"
 "http://www.w3.org/Graphics/SVG/1.1/DTD/svg11.dtd">
<!-- Generated by graphviz version 2.43.0 (0)
 -->
<!-- Title: Cost.h Pages: 1 -->
<svg width="397pt" height="196pt"
 viewBox="0.00 0.00 397.00 196.00" xmlns="http://www.w3.org/2000/svg" xmlns:xlink="http://www.w3.org/1999/xlink">
<g id="graph0" class="graph" transform="scale(1 1) rotate(0) translate(4 192)">
<title>Cost.h</title>
<!-- Node1 -->
<g id="node1" class="node">
<title>Node1</title>
<g id="a_node1"><a xlink:title=" ">
<polygon fill="#bfbfbf" stroke="black" points="67.5,-168.5 67.5,-187.5 114.5,-187.5 114.5,-168.5 67.5,-168.5"/>
<text text-anchor="middle" x="91" y="-175.5" font-family="FreeSans.ttf" font-size="10.00">Cost.h</text>
</a>
</g>
</g>
<!-- Node2 -->
<g id="node2" class="node">
<title>Node2</title>
<g id="a_node2"><a xlink:title=" ">
<polygon fill="none" stroke="#bfbfbf" points="0,-56.5 0,-75.5 44,-75.5 44,-56.5 0,-56.5"/>
<text text-anchor="middle" x="22" y="-63.5" font-family="FreeSans.ttf" font-size="10.00">string</text>
</a>
</g>
</g>
<!-- Node1&#45;&gt;Node2 -->
<g id="edge1" class="edge">
<title>Node1&#45;&gt;Node2</title>
<path fill="none" stroke="midnightblue" d="M85.59,-168.37C74.25,-150.3 47.83,-108.18 32.86,-84.31"/>
<polygon fill="midnightblue" stroke="midnightblue" points="35.67,-82.2 27.39,-75.59 29.74,-85.92 35.67,-82.2"/>
</g>
<!-- Node3 -->
<g id="node3" class="node">
<title>Node3</title>
<g id="a_node3"><a xlink:href="SparsityStructure_8h.html" target="_top" xlink:title=" ">
<polygon fill="none" stroke="black" points="74.5,-112.5 74.5,-131.5 229.5,-131.5 229.5,-112.5 74.5,-112.5"/>
<text text-anchor="middle" x="152" y="-119.5" font-family="FreeSans.ttf" font-size="10.00">iDynTree/SparsityStructure.h</text>
</a>
</g>
</g>
<!-- Node1&#45;&gt;Node3 -->
<g id="edge2" class="edge">
<title>Node1&#45;&gt;Node3</title>
<path fill="none" stroke="midnightblue" d="M100.8,-168.32C109.82,-160.34 123.41,-148.31 134.32,-138.65"/>
<polygon fill="midnightblue" stroke="midnightblue" points="136.85,-141.08 142.02,-131.83 132.21,-135.84 136.85,-141.08"/>
</g>
<!-- Node3&#45;&gt;Node2 -->
<g id="edge9" class="edge">
<title>Node3&#45;&gt;Node2</title>
<path fill="none" stroke="midnightblue" d="M131.4,-112.44C110.01,-103.56 76.32,-89.56 51.98,-79.45"/>
<polygon fill="midnightblue" stroke="midnightblue" points="53.08,-76.12 42.5,-75.52 50.39,-82.58 53.08,-76.12"/>
</g>
<!-- Node4 -->
<g id="node4" class="node">
<title>Node4</title>
<g id="a_node4"><a xlink:href="Utils_8h.html" target="_top" xlink:title=" ">
<polygon fill="none" stroke="black" points="100.5,-56.5 100.5,-75.5 219.5,-75.5 219.5,-56.5 100.5,-56.5"/>
<text text-anchor="middle" x="160" y="-63.5" font-family="FreeSans.ttf" font-size="10.00">iDynTree/Core/Utils.h</text>
</a>
</g>
</g>
<!-- Node3&#45;&gt;Node4 -->
<g id="edge3" class="edge">
<title>Node3&#45;&gt;Node4</title>
<path fill="none" stroke="midnightblue" d="M153.32,-112.08C154.38,-104.93 155.91,-94.64 157.23,-85.69"/>
<polygon fill="midnightblue" stroke="midnightblue" points="160.7,-86.16 158.7,-75.75 153.78,-85.13 160.7,-86.16"/>
</g>
<!-- Node5 -->
<g id="node5" class="node">
<title>Node5</title>
<g id="a_node5"><a xlink:title=" ">
<polygon fill="none" stroke="#bfbfbf" points="47.5,-0.5 47.5,-19.5 100.5,-19.5 100.5,-0.5 47.5,-0.5"/>
<text text-anchor="middle" x="74" y="-7.5" font-family="FreeSans.ttf" font-size="10.00">cstddef</text>
</a>
</g>
</g>
<!-- Node3&#45;&gt;Node5 -->
<g id="edge7" class="edge">
<title>Node3&#45;&gt;Node5</title>
<path fill="none" stroke="midnightblue" d="M134.7,-112.5C120.86,-104.81 102,-92.23 91,-76 81.7,-62.27 77.48,-43.74 75.58,-29.98"/>
<polygon fill="midnightblue" stroke="midnightblue" points="79.02,-29.31 74.46,-19.75 72.07,-30.07 79.02,-29.31"/>
</g>
<!-- Node7 -->
<g id="node7" class="node">
<title>Node7</title>
<g id="a_node7"><a xlink:title=" ">
<polygon fill="none" stroke="#bfbfbf" points="237.5,-56.5 237.5,-75.5 284.5,-75.5 284.5,-56.5 237.5,-56.5"/>
<text text-anchor="middle" x="261" y="-63.5" font-family="FreeSans.ttf" font-size="10.00">vector</text>
</a>
</g>
</g>
<!-- Node3&#45;&gt;Node7 -->
<g id="edge6" class="edge">
<title>Node3&#45;&gt;Node7</title>
<path fill="none" stroke="midnightblue" d="M169.51,-112.32C187.07,-103.62 214.33,-90.12 234.53,-80.11"/>
<polygon fill="midnightblue" stroke="midnightblue" points="236.12,-83.23 243.53,-75.65 233.02,-76.96 236.12,-83.23"/>
</g>
<!-- Node8 -->
<g id="node8" class="node">
<title>Node8</title>
<g id="a_node8"><a xlink:title=" ">
<polygon fill="none" stroke="#bfbfbf" points="303,-56.5 303,-75.5 389,-75.5 389,-56.5 303,-56.5"/>
<text text-anchor="middle" x="346" y="-63.5" font-family="FreeSans.ttf" font-size="10.00">unordered_set</text>
</a>
</g>
</g>
<!-- Node3&#45;&gt;Node8 -->
<g id="edge8" class="edge">
<title>Node3&#45;&gt;Node8</title>
<path fill="none" stroke="midnightblue" d="M182.74,-112.44C215.94,-103.2 268.99,-88.44 305.56,-78.26"/>
<polygon fill="midnightblue" stroke="midnightblue" points="306.71,-81.57 315.4,-75.52 304.83,-74.83 306.71,-81.57"/>
</g>
<!-- Node4&#45;&gt;Node5 -->
<g id="edge4" class="edge">
<title>Node4&#45;&gt;Node5</title>
<path fill="none" stroke="midnightblue" d="M146.18,-56.32C132.77,-47.9 112.18,-34.97 96.41,-25.07"/>
<polygon fill="midnightblue" stroke="midnightblue" points="98.11,-22.01 87.78,-19.65 94.39,-27.94 98.11,-22.01"/>
</g>
<!-- Node6 -->
<g id="node6" class="node">
<title>Node6</title>
<g id="a_node6"><a xlink:title=" ">
<polygon fill="none" stroke="#bfbfbf" points="120,-0.5 120,-19.5 200,-19.5 200,-0.5 120,-0.5"/>
<text text-anchor="middle" x="160" y="-7.5" font-family="FreeSans.ttf" font-size="10.00">CoreExport.h</text>
</a>
</g>
</g>
<!-- Node4&#45;&gt;Node6 -->
<g id="edge5" class="edge">
<title>Node4&#45;&gt;Node6</title>
<path fill="none" stroke="midnightblue" d="M160,-56.08C160,-49.01 160,-38.86 160,-29.99"/>
<polygon fill="midnightblue" stroke="midnightblue" points="163.5,-29.75 160,-19.75 156.5,-29.75 163.5,-29.75"/>
</g>
</g>
</svg>
