<?xml version="1.0" encoding="UTF-8" standalone="no"?>
<!DOCTYPE svg PUBLIC "-//W3C//DTD SVG 1.1//EN"
 "http://www.w3.org/Graphics/SVG/1.1/DTD/svg11.dtd">
<!-- Generated by graphviz version 2.43.0 (0)
 -->
<!-- Title: DenavitHartenberg.h Pages: 1 -->
<svg width="376pt" height="196pt"
 viewBox="0.00 0.00 376.00 196.00" xmlns="http://www.w3.org/2000/svg" xmlns:xlink="http://www.w3.org/1999/xlink">
<g id="graph0" class="graph" transform="scale(1 1) rotate(0) translate(4 192)">
<title>DenavitHartenberg.h</title>
<!-- Node1 -->
<g id="node1" class="node">
<title>Node1</title>
<g id="a_node1"><a xlink:title=" ">
<polygon fill="#bfbfbf" stroke="black" points="150.5,-168.5 150.5,-187.5 269.5,-187.5 269.5,-168.5 150.5,-168.5"/>
<text text-anchor="middle" x="210" y="-175.5" font-family="FreeSans.ttf" font-size="10.00">DenavitHartenberg.h</text>
</a>
</g>
</g>
<!-- Node2 -->
<g id="node2" class="node">
<title>Node2</title>
<g id="a_node2"><a xlink:href="iKinConversionsImplementation_8h.html" target="_top" xlink:title=" ">
<polygon fill="none" stroke="black" points="0,-112.5 0,-131.5 182,-131.5 182,-112.5 0,-112.5"/>
<text text-anchor="middle" x="91" y="-119.5" font-family="FreeSans.ttf" font-size="10.00">iKinConversionsImplementation.h</text>
</a>
</g>
</g>
<!-- Node1&#45;&gt;Node2 -->
<g id="edge1" class="edge">
<title>Node1&#45;&gt;Node2</title>
<path fill="none" stroke="midnightblue" d="M181.86,-164.23C159.6,-154.13 129.14,-140.31 109.77,-131.52"/>
<polygon fill="midnightblue" stroke="midnightblue" points="180.59,-167.5 191.14,-168.44 183.48,-161.12 180.59,-167.5"/>
</g>
<!-- Node4 -->
<g id="node4" class="node">
<title>Node4</title>
<g id="a_node4"><a xlink:href="urdf2dh_8cpp.html" target="_top" xlink:title=" ">
<polygon fill="none" stroke="black" points="113,-0.5 113,-19.5 187,-19.5 187,-0.5 113,-0.5"/>
<text text-anchor="middle" x="150" y="-7.5" font-family="FreeSans.ttf" font-size="10.00">urdf2dh.cpp</text>
</a>
</g>
</g>
<!-- Node1&#45;&gt;Node4 -->
<g id="edge6" class="edge">
<title>Node1&#45;&gt;Node4</title>
<path fill="none" stroke="midnightblue" d="M205.21,-158.81C201.63,-145.69 196.44,-127.61 191,-112 178.87,-77.15 161.43,-36.79 153.81,-19.53"/>
<polygon fill="midnightblue" stroke="midnightblue" points="201.84,-159.75 207.81,-168.5 208.6,-157.93 201.84,-159.75"/>
</g>
<!-- Node5 -->
<g id="node5" class="node">
<title>Node5</title>
<g id="a_node5"><a xlink:href="DenavitHartenberg_8cpp.html" target="_top" xlink:title=" ">
<polygon fill="none" stroke="black" points="238,-112.5 238,-131.5 368,-131.5 368,-112.5 238,-112.5"/>
<text text-anchor="middle" x="303" y="-119.5" font-family="FreeSans.ttf" font-size="10.00">DenavitHartenberg.cpp</text>
</a>
</g>
</g>
<!-- Node1&#45;&gt;Node5 -->
<g id="edge5" class="edge">
<title>Node1&#45;&gt;Node5</title>
<path fill="none" stroke="midnightblue" d="M233.81,-163.18C250.92,-153.24 273.47,-140.15 288.1,-131.65"/>
<polygon fill="midnightblue" stroke="midnightblue" points="231.83,-160.28 224.94,-168.32 235.35,-166.33 231.83,-160.28"/>
</g>
<!-- Node3 -->
<g id="node3" class="node">
<title>Node3</title>
<g id="a_node3"><a xlink:href="iKinConversions_8h.html" target="_top" xlink:title=" ">
<polygon fill="none" stroke="black" points="39,-56.5 39,-75.5 143,-75.5 143,-56.5 39,-56.5"/>
<text text-anchor="middle" x="91" y="-63.5" font-family="FreeSans.ttf" font-size="10.00">iKinConversions.h</text>
</a>
</g>
</g>
<!-- Node2&#45;&gt;Node3 -->
<g id="edge2" class="edge">
<title>Node2&#45;&gt;Node3</title>
<path fill="none" stroke="midnightblue" d="M84.53,-102.1C83.9,-93.14 84.34,-82.86 85.87,-75.75"/>
<polygon fill="midnightblue" stroke="midnightblue" points="81.07,-102.62 85.83,-112.08 88.01,-101.71 81.07,-102.62"/>
</g>
<!-- Node3&#45;&gt;Node2 -->
<g id="edge3" class="edge">
<title>Node3&#45;&gt;Node2</title>
<path fill="none" stroke="midnightblue" d="M97.46,-85.69C98.11,-94.64 97.68,-104.93 96.17,-112.08"/>
<polygon fill="midnightblue" stroke="midnightblue" points="100.92,-85.2 96.13,-75.75 93.98,-86.13 100.92,-85.2"/>
</g>
<!-- Node3&#45;&gt;Node4 -->
<g id="edge4" class="edge">
<title>Node3&#45;&gt;Node4</title>
<path fill="none" stroke="midnightblue" d="M107.89,-49.54C118.41,-39.91 131.57,-27.87 140.35,-19.83"/>
<polygon fill="midnightblue" stroke="midnightblue" points="105.49,-46.99 100.48,-56.32 110.22,-52.15 105.49,-46.99"/>
</g>
</g>
</svg>
