<?xml version="1.0" encoding="UTF-8" standalone="no"?>
<!DOCTYPE svg PUBLIC "-//W3C//DTD SVG 1.1//EN"
 "http://www.w3.org/Graphics/SVG/1.1/DTD/svg11.dtd">
<!-- Generated by graphviz version 2.43.0 (0)
 -->
<!-- Title: include Pages: 1 -->
<svg width="158pt" height="223pt"
 viewBox="0.00 0.00 158.00 223.00" xmlns="http://www.w3.org/2000/svg" xmlns:xlink="http://www.w3.org/1999/xlink">
<g id="graph0" class="graph" transform="scale(1 1) rotate(0) translate(4 219)">
<title>include</title>
<g id="clust1" class="cluster">
<title>clusterdir_d32611501a8b9f9ee5f85682f67560af</title>
<g id="a_clust1"><a xlink:href="dir_d32611501a8b9f9ee5f85682f67560af.html" target="_top" xlink:title="yarprobotstatepublisher">
<polygon fill="#ddddee" stroke="black" points="8,-136 8,-207 142,-207 142,-136 8,-136"/>
<text text-anchor="middle" x="75" y="-195" font-family="FreeSans.ttf" font-size="10.00">yarprobotstatepublisher</text>
</a>
</g>
</g>
<!-- dir_517fac0de58368127e466407b6b31ec8 -->
<g id="node1" class="node">
<title>dir_517fac0de58368127e466407b6b31ec8</title>
<g id="a_node1"><a xlink:href="dir_517fac0de58368127e466407b6b31ec8.html" target="_top" xlink:title="include">
<polygon fill="#eeeeff" stroke="black" points="102,-180 48,-180 48,-144 102,-144 102,-180"/>
<text text-anchor="middle" x="75" y="-159.5" font-family="FreeSans.ttf" font-size="10.00">include</text>
</a>
</g>
</g>
<!-- dir_355314d08763ddbf0e6d36531a48f7ae -->
<g id="node2" class="node">
<title>dir_355314d08763ddbf0e6d36531a48f7ae</title>
<g id="a_node2"><a xlink:href="dir_355314d08763ddbf0e6d36531a48f7ae.html" target="_top" xlink:title="high&#45;level">
<polygon fill="none" stroke="red" points="76.5,-108 11.5,-108 11.5,-72 76.5,-72 76.5,-108"/>
<text text-anchor="middle" x="44" y="-87.5" font-family="FreeSans.ttf" font-size="10.00">high&#45;level</text>
</a>
</g>
</g>
<!-- dir_517fac0de58368127e466407b6b31ec8&#45;&gt;dir_355314d08763ddbf0e6d36531a48f7ae -->
<g id="edge2" class="edge">
<title>dir_517fac0de58368127e466407b6b31ec8&#45;&gt;dir_355314d08763ddbf0e6d36531a48f7ae</title>
<path fill="none" stroke="black" d="M67.34,-143.7C63.81,-135.73 59.54,-126.1 55.63,-117.26"/>
<polygon fill="black" stroke="black" points="58.82,-115.83 51.57,-108.1 52.42,-118.67 58.82,-115.83"/>
<g id="a_edge2&#45;headlabel"><a xlink:href="dir_000067_000053.html" target="_top" xlink:title="1">
<text text-anchor="middle" x="62.88" y="-115.47" font-family="FreeSans.ttf" font-size="10.00">1</text>
</a>
</g>
</g>
<!-- dir_aebb8dcc11953d78e620bbef0b9e2183 -->
<g id="node3" class="node">
<title>dir_aebb8dcc11953d78e620bbef0b9e2183</title>
<g id="a_node3"><a xlink:href="dir_aebb8dcc11953d78e620bbef0b9e2183.html" target="_top" xlink:title="core">
<polygon fill="none" stroke="red" points="101,-36 47,-36 47,0 101,0 101,-36"/>
<text text-anchor="middle" x="74" y="-15.5" font-family="FreeSans.ttf" font-size="10.00">core</text>
</a>
</g>
</g>
<!-- dir_517fac0de58368127e466407b6b31ec8&#45;&gt;dir_aebb8dcc11953d78e620bbef0b9e2183 -->
<g id="edge3" class="edge">
<title>dir_517fac0de58368127e466407b6b31ec8&#45;&gt;dir_aebb8dcc11953d78e620bbef0b9e2183</title>
<path fill="none" stroke="black" d="M79.46,-143.95C81.94,-133.63 84.75,-120.15 86,-108 87.63,-92.08 87.78,-87.9 86,-72 85.04,-63.43 83.24,-54.22 81.31,-45.93"/>
<polygon fill="black" stroke="black" points="84.66,-44.89 78.87,-36.02 77.87,-46.57 84.66,-44.89"/>
<g id="a_edge3&#45;headlabel"><a xlink:href="dir_000067_000011.html" target="_top" xlink:title="1">
<text text-anchor="middle" x="88.28" y="-45.2" font-family="FreeSans.ttf" font-size="10.00">1</text>
</a>
</g>
</g>
<!-- dir_355314d08763ddbf0e6d36531a48f7ae&#45;&gt;dir_aebb8dcc11953d78e620bbef0b9e2183 -->
<g id="edge1" class="edge">
<title>dir_355314d08763ddbf0e6d36531a48f7ae&#45;&gt;dir_aebb8dcc11953d78e620bbef0b9e2183</title>
<path fill="none" stroke="black" d="M51.42,-71.7C54.79,-63.81 58.87,-54.3 62.62,-45.55"/>
<polygon fill="black" stroke="black" points="65.95,-46.67 66.67,-36.1 59.51,-43.92 65.95,-46.67"/>
<g id="a_edge1&#45;headlabel"><a xlink:href="dir_000053_000011.html" target="_top" xlink:title="16">
<text text-anchor="middle" x="67.14" y="-48.6" font-family="FreeSans.ttf" font-size="10.00">16</text>
</a>
</g>
</g>
</g>
</svg>
