<?xml version="1.0" encoding="UTF-8" standalone="no"?>
<!DOCTYPE svg PUBLIC "-//W3C//DTD SVG 1.1//EN"
 "http://www.w3.org/Graphics/SVG/1.1/DTD/svg11.dtd">
<!-- Generated by graphviz version 2.43.0 (0)
 -->
<!-- Title: iDynTree Pages: 1 -->
<svg width="217pt" height="303pt"
 viewBox="0.00 0.00 217.00 303.00" xmlns="http://www.w3.org/2000/svg" xmlns:xlink="http://www.w3.org/1999/xlink">
<g id="graph0" class="graph" transform="scale(1 1) rotate(0) translate(4 299)">
<title>iDynTree</title>
<g id="clust1" class="cluster">
<title>clusterdir_78fffd686f5438be918918eb345e2fa3</title>
<g id="a_clust1"><a xlink:href="dir_78fffd686f5438be918918eb345e2fa3.html" target="_top" xlink:title="include">
<polygon fill="#ddddee" stroke="black" points="22,-200 22,-287 201,-287 201,-200 22,-200"/>
<text text-anchor="middle" x="111.5" y="-275" font-family="FreeSans.ttf" font-size="10.00">include</text>
</a>
</g>
</g>
<g id="clust2" class="cluster">
<title>clusterdir_353eda84f30183659a170273efa23586</title>
<g id="a_clust2"><a xlink:href="dir_353eda84f30183659a170273efa23586.html" target="_top">
<polygon fill="#eeeeff" stroke="black" points="30,-208 30,-260 193,-260 193,-208 30,-208"/>
</a>
</g>
</g>
<!-- dir_353eda84f30183659a170273efa23586 -->
<g id="node1" class="node">
<title>dir_353eda84f30183659a170273efa23586</title>
<text text-anchor="middle" x="155" y="-231.5" font-family="FreeSans.ttf" font-size="10.00">iDynTree</text>
</g>
<!-- dir_b150590bf3cb0aeeb6e2dfe5b34738cd -->
<g id="node2" class="node">
<title>dir_b150590bf3cb0aeeb6e2dfe5b34738cd</title>
<g id="a_node2"><a xlink:href="dir_b150590bf3cb0aeeb6e2dfe5b34738cd.html" target="_top" xlink:title="Estimation">
<polygon fill="white" stroke="black" points="107.5,-252 38.5,-252 38.5,-216 107.5,-216 107.5,-252"/>
<text text-anchor="middle" x="73" y="-231.5" font-family="FreeSans.ttf" font-size="10.00">Estimation</text>
</a>
</g>
</g>
<!-- dir_7349e89ef19c117195f8e371603e1b1f -->
<g id="node3" class="node">
<title>dir_7349e89ef19c117195f8e371603e1b1f</title>
<g id="a_node3"><a xlink:href="dir_7349e89ef19c117195f8e371603e1b1f.html" target="_top" xlink:title="sensors">
<polygon fill="none" stroke="red" points="100,-180 46,-180 46,-144 100,-144 100,-180"/>
<text text-anchor="middle" x="73" y="-159.5" font-family="FreeSans.ttf" font-size="10.00">sensors</text>
</a>
</g>
</g>
<!-- dir_b150590bf3cb0aeeb6e2dfe5b34738cd&#45;&gt;dir_7349e89ef19c117195f8e371603e1b1f -->
<g id="edge4" class="edge">
<title>dir_b150590bf3cb0aeeb6e2dfe5b34738cd&#45;&gt;dir_7349e89ef19c117195f8e371603e1b1f</title>
<path fill="none" stroke="black" d="M73,-215.7C73,-207.98 73,-198.71 73,-190.11"/>
<polygon fill="black" stroke="black" points="76.5,-190.1 73,-180.1 69.5,-190.1 76.5,-190.1"/>
<g id="a_edge4&#45;headlabel"><a xlink:href="dir_000020_000001.html" target="_top" xlink:title="2">
<text text-anchor="middle" x="79.34" y="-191.2" font-family="FreeSans.ttf" font-size="10.00">2</text>
</a>
</g>
</g>
<!-- dir_5dd65160827af56e6353642206b80129 -->
<g id="node4" class="node">
<title>dir_5dd65160827af56e6353642206b80129</title>
<g id="a_node4"><a xlink:href="dir_5dd65160827af56e6353642206b80129.html" target="_top" xlink:title="model">
<polygon fill="none" stroke="red" points="54,-108 0,-108 0,-72 54,-72 54,-108"/>
<text text-anchor="middle" x="27" y="-87.5" font-family="FreeSans.ttf" font-size="10.00">model</text>
</a>
</g>
</g>
<!-- dir_b150590bf3cb0aeeb6e2dfe5b34738cd&#45;&gt;dir_5dd65160827af56e6353642206b80129 -->
<g id="edge5" class="edge">
<title>dir_b150590bf3cb0aeeb6e2dfe5b34738cd&#45;&gt;dir_5dd65160827af56e6353642206b80129</title>
<path fill="none" stroke="black" d="M57.97,-215.58C50.38,-205.78 41.78,-192.94 37,-180 29.68,-160.22 27.31,-136.42 26.7,-118.41"/>
<polygon fill="black" stroke="black" points="30.2,-118.23 26.52,-108.29 23.2,-118.35 30.2,-118.23"/>
<g id="a_edge5&#45;headlabel"><a xlink:href="dir_000020_000027.html" target="_top" xlink:title="24">
<text text-anchor="middle" x="33.1" y="-119.27" font-family="FreeSans.ttf" font-size="10.00">24</text>
</a>
</g>
</g>
<!-- dir_aebb8dcc11953d78e620bbef0b9e2183 -->
<g id="node5" class="node">
<title>dir_aebb8dcc11953d78e620bbef0b9e2183</title>
<g id="a_node5"><a xlink:href="dir_aebb8dcc11953d78e620bbef0b9e2183.html" target="_top" xlink:title="core">
<polygon fill="none" stroke="red" points="109,-36 55,-36 55,0 109,0 109,-36"/>
<text text-anchor="middle" x="82" y="-15.5" font-family="FreeSans.ttf" font-size="10.00">core</text>
</a>
</g>
</g>
<!-- dir_b150590bf3cb0aeeb6e2dfe5b34738cd&#45;&gt;dir_aebb8dcc11953d78e620bbef0b9e2183 -->
<g id="edge6" class="edge">
<title>dir_b150590bf3cb0aeeb6e2dfe5b34738cd&#45;&gt;dir_aebb8dcc11953d78e620bbef0b9e2183</title>
<path fill="none" stroke="black" d="M88.61,-215.77C96.37,-206.03 104.95,-193.18 109,-180 123.13,-134.04 106.68,-78.3 93.97,-45.91"/>
<polygon fill="black" stroke="black" points="97.05,-44.19 90.02,-36.26 90.57,-46.84 97.05,-44.19"/>
<g id="a_edge6&#45;headlabel"><a xlink:href="dir_000020_000011.html" target="_top" xlink:title="30">
<text text-anchor="middle" x="101.04" y="-43.94" font-family="FreeSans.ttf" font-size="10.00">30</text>
</a>
</g>
</g>
<!-- dir_7349e89ef19c117195f8e371603e1b1f&#45;&gt;dir_5dd65160827af56e6353642206b80129 -->
<g id="edge1" class="edge">
<title>dir_7349e89ef19c117195f8e371603e1b1f&#45;&gt;dir_5dd65160827af56e6353642206b80129</title>
<path fill="none" stroke="black" d="M61.63,-143.7C56.28,-135.56 49.8,-125.69 43.89,-116.7"/>
<polygon fill="black" stroke="black" points="46.66,-114.54 38.24,-108.1 40.81,-118.38 46.66,-114.54"/>
<g id="a_edge1&#45;headlabel"><a xlink:href="dir_000001_000027.html" target="_top" xlink:title="13">
<text text-anchor="middle" x="51" y="-113.48" font-family="FreeSans.ttf" font-size="10.00">13</text>
</a>
</g>
</g>
<!-- dir_7349e89ef19c117195f8e371603e1b1f&#45;&gt;dir_aebb8dcc11953d78e620bbef0b9e2183 -->
<g id="edge2" class="edge">
<title>dir_7349e89ef19c117195f8e371603e1b1f&#45;&gt;dir_aebb8dcc11953d78e620bbef0b9e2183</title>
<path fill="none" stroke="black" d="M74.09,-143.87C75.62,-119.67 78.44,-75.21 80.26,-46.39"/>
<polygon fill="black" stroke="black" points="83.77,-46.39 80.91,-36.19 76.78,-45.95 83.77,-46.39"/>
<g id="a_edge2&#45;headlabel"><a xlink:href="dir_000001_000011.html" target="_top" xlink:title="29">
<text text-anchor="middle" x="86.38" y="-47.66" font-family="FreeSans.ttf" font-size="10.00">29</text>
</a>
</g>
</g>
<!-- dir_5dd65160827af56e6353642206b80129&#45;&gt;dir_aebb8dcc11953d78e620bbef0b9e2183 -->
<g id="edge3" class="edge">
<title>dir_5dd65160827af56e6353642206b80129&#45;&gt;dir_aebb8dcc11953d78e620bbef0b9e2183</title>
<path fill="none" stroke="black" d="M40.6,-71.7C47.12,-63.39 55.07,-53.28 62.25,-44.14"/>
<polygon fill="black" stroke="black" points="65.13,-46.13 68.56,-36.1 59.63,-41.81 65.13,-46.13"/>
<g id="a_edge3&#45;headlabel"><a xlink:href="dir_000027_000011.html" target="_top" xlink:title="59">
<text text-anchor="middle" x="65.15" y="-48.21" font-family="FreeSans.ttf" font-size="10.00">59</text>
</a>
</g>
</g>
</g>
</svg>
