<?xml version="1.0" encoding="UTF-8" standalone="no"?>
<!DOCTYPE svg PUBLIC "-//W3C//DTD SVG 1.1//EN"
 "http://www.w3.org/Graphics/SVG/1.1/DTD/svg11.dtd">
<!-- Generated by graphviz version 2.43.0 (0)
 -->
<!-- Title: src Pages: 1 -->
<svg width="261pt" height="367pt"
 viewBox="0.00 0.00 260.85 367.00" xmlns="http://www.w3.org/2000/svg" xmlns:xlink="http://www.w3.org/1999/xlink">
<g id="graph0" class="graph" transform="scale(1 1) rotate(0) translate(4 363)">
<title>src</title>
<g id="clust1" class="cluster">
<title>clusterdir_e61ef99cd1a074c2cfa816a0d2d03a98</title>
<g id="a_clust1"><a xlink:href="dir_e61ef99cd1a074c2cfa816a0d2d03a98.html" target="_top" xlink:title="codecs">
<polygon fill="#ddddee" stroke="black" points="59.85,-280 59.85,-351 129.85,-351 129.85,-280 59.85,-280"/>
<text text-anchor="middle" x="94.85" y="-339" font-family="FreeSans.ttf" font-size="10.00">codecs</text>
</a>
</g>
</g>
<!-- dir_2f69b934ed9ce84d87cd3e9864f61d23 -->
<g id="node1" class="node">
<title>dir_2f69b934ed9ce84d87cd3e9864f61d23</title>
<g id="a_node1"><a xlink:href="dir_2f69b934ed9ce84d87cd3e9864f61d23.html" target="_top" xlink:title="src">
<polygon fill="#eeeeff" stroke="black" points="121.85,-324 67.85,-324 67.85,-288 121.85,-288 121.85,-324"/>
<text text-anchor="middle" x="94.85" y="-303.5" font-family="FreeSans.ttf" font-size="10.00">src</text>
</a>
</g>
</g>
<!-- dir_7349e89ef19c117195f8e371603e1b1f -->
<g id="node2" class="node">
<title>dir_7349e89ef19c117195f8e371603e1b1f</title>
<g id="a_node2"><a xlink:href="dir_7349e89ef19c117195f8e371603e1b1f.html" target="_top" xlink:title="sensors">
<polygon fill="none" stroke="red" points="66.85,-180 12.85,-180 12.85,-144 66.85,-144 66.85,-180"/>
<text text-anchor="middle" x="39.85" y="-159.5" font-family="FreeSans.ttf" font-size="10.00">sensors</text>
</a>
</g>
</g>
<!-- dir_2f69b934ed9ce84d87cd3e9864f61d23&#45;&gt;dir_7349e89ef19c117195f8e371603e1b1f -->
<g id="edge1" class="edge">
<title>dir_2f69b934ed9ce84d87cd3e9864f61d23&#45;&gt;dir_7349e89ef19c117195f8e371603e1b1f</title>
<path fill="none" stroke="black" d="M88.21,-287.87C78.76,-263.46 61.32,-218.43 50.17,-189.64"/>
<polygon fill="black" stroke="black" points="53.38,-188.25 46.51,-180.19 46.85,-190.78 53.38,-188.25"/>
<g id="a_edge1&#45;headlabel"><a xlink:href="dir_000039_000001.html" target="_top" xlink:title="7">
<text text-anchor="middle" x="57.33" y="-188.08" font-family="FreeSans.ttf" font-size="10.00">7</text>
</a>
</g>
</g>
<!-- dir_5dd65160827af56e6353642206b80129 -->
<g id="node3" class="node">
<title>dir_5dd65160827af56e6353642206b80129</title>
<g id="a_node3"><a xlink:href="dir_5dd65160827af56e6353642206b80129.html" target="_top" xlink:title="model">
<polygon fill="none" stroke="red" points="121.85,-108 67.85,-108 67.85,-72 121.85,-72 121.85,-108"/>
<text text-anchor="middle" x="94.85" y="-87.5" font-family="FreeSans.ttf" font-size="10.00">model</text>
</a>
</g>
</g>
<!-- dir_2f69b934ed9ce84d87cd3e9864f61d23&#45;&gt;dir_5dd65160827af56e6353642206b80129 -->
<g id="edge2" class="edge">
<title>dir_2f69b934ed9ce84d87cd3e9864f61d23&#45;&gt;dir_5dd65160827af56e6353642206b80129</title>
<path fill="none" stroke="black" d="M94.85,-287.85C94.85,-250.83 94.85,-163.18 94.85,-118.39"/>
<polygon fill="black" stroke="black" points="98.35,-118.23 94.85,-108.23 91.35,-118.23 98.35,-118.23"/>
<g id="a_edge2&#45;headlabel"><a xlink:href="dir_000039_000027.html" target="_top" xlink:title="18">
<text text-anchor="middle" x="101.19" y="-119.33" font-family="FreeSans.ttf" font-size="10.00">18</text>
</a>
</g>
</g>
<!-- dir_2cebb095d9654587036b8dcc7ebbbc4d -->
<g id="node4" class="node">
<title>dir_2cebb095d9654587036b8dcc7ebbbc4d</title>
<g id="a_node4"><a xlink:href="dir_2cebb095d9654587036b8dcc7ebbbc4d.html" target="_top" xlink:title="include">
<polygon fill="none" stroke="red" points="176.85,-252 122.85,-252 122.85,-216 176.85,-216 176.85,-252"/>
<text text-anchor="middle" x="149.85" y="-231.5" font-family="FreeSans.ttf" font-size="10.00">include</text>
</a>
</g>
</g>
<!-- dir_2f69b934ed9ce84d87cd3e9864f61d23&#45;&gt;dir_2cebb095d9654587036b8dcc7ebbbc4d -->
<g id="edge3" class="edge">
<title>dir_2f69b934ed9ce84d87cd3e9864f61d23&#45;&gt;dir_2cebb095d9654587036b8dcc7ebbbc4d</title>
<path fill="none" stroke="black" d="M108.44,-287.7C114.97,-279.39 122.92,-269.28 130.1,-260.14"/>
<polygon fill="black" stroke="black" points="132.98,-262.13 136.41,-252.1 127.48,-257.81 132.98,-262.13"/>
<g id="a_edge3&#45;headlabel"><a xlink:href="dir_000039_000040.html" target="_top" xlink:title="41">
<text text-anchor="middle" x="133" y="-264.21" font-family="FreeSans.ttf" font-size="10.00">41</text>
</a>
</g>
</g>
<!-- dir_aebb8dcc11953d78e620bbef0b9e2183 -->
<g id="node5" class="node">
<title>dir_aebb8dcc11953d78e620bbef0b9e2183</title>
<g id="a_node5"><a xlink:href="dir_aebb8dcc11953d78e620bbef0b9e2183.html" target="_top" xlink:title="core">
<polygon fill="none" stroke="red" points="121.85,-36 67.85,-36 67.85,0 121.85,0 121.85,-36"/>
<text text-anchor="middle" x="94.85" y="-15.5" font-family="FreeSans.ttf" font-size="10.00">core</text>
</a>
</g>
</g>
<!-- dir_2f69b934ed9ce84d87cd3e9864f61d23&#45;&gt;dir_aebb8dcc11953d78e620bbef0b9e2183 -->
<g id="edge4" class="edge">
<title>dir_2f69b934ed9ce84d87cd3e9864f61d23&#45;&gt;dir_aebb8dcc11953d78e620bbef0b9e2183</title>
<path fill="none" stroke="black" d="M76.5,-287.64C54.3,-265.24 18.14,-223.9 3.85,-180 -13.22,-127.57 33.57,-73.03 66.21,-42.81"/>
<polygon fill="black" stroke="black" points="68.66,-45.31 73.75,-36.02 63.98,-40.11 68.66,-45.31"/>
<g id="a_edge4&#45;headlabel"><a xlink:href="dir_000039_000011.html" target="_top" xlink:title="9">
<text text-anchor="middle" x="67.89" y="-47.33" font-family="FreeSans.ttf" font-size="10.00">9</text>
</a>
</g>
</g>
<!-- dir_5f57de5bbe3f948f16e791110ccbe302 -->
<g id="node6" class="node">
<title>dir_5f57de5bbe3f948f16e791110ccbe302</title>
<g id="a_node6"><a xlink:href="dir_5f57de5bbe3f948f16e791110ccbe302.html" target="_top" xlink:title="xml">
<polygon fill="none" stroke="red" points="252.85,-180 198.85,-180 198.85,-144 252.85,-144 252.85,-180"/>
<text text-anchor="middle" x="225.85" y="-159.5" font-family="FreeSans.ttf" font-size="10.00">xml</text>
</a>
</g>
</g>
<!-- dir_2f69b934ed9ce84d87cd3e9864f61d23&#45;&gt;dir_5f57de5bbe3f948f16e791110ccbe302 -->
<g id="edge5" class="edge">
<title>dir_2f69b934ed9ce84d87cd3e9864f61d23&#45;&gt;dir_5f57de5bbe3f948f16e791110ccbe302</title>
<path fill="none" stroke="black" d="M122.16,-294.5C142.01,-285.69 168.36,-271.43 185.85,-252 201.89,-234.18 212.42,-208.85 218.63,-189.77"/>
<polygon fill="black" stroke="black" points="221.99,-190.75 221.57,-180.17 215.3,-188.71 221.99,-190.75"/>
<g id="a_edge5&#45;headlabel"><a xlink:href="dir_000039_000060.html" target="_top" xlink:title="9">
<text text-anchor="middle" x="223.66" y="-192.52" font-family="FreeSans.ttf" font-size="10.00">9</text>
</a>
</g>
</g>
<!-- dir_7349e89ef19c117195f8e371603e1b1f&#45;&gt;dir_5dd65160827af56e6353642206b80129 -->
<g id="edge6" class="edge">
<title>dir_7349e89ef19c117195f8e371603e1b1f&#45;&gt;dir_5dd65160827af56e6353642206b80129</title>
<path fill="none" stroke="black" d="M53.44,-143.7C59.97,-135.39 67.92,-125.28 75.1,-116.14"/>
<polygon fill="black" stroke="black" points="77.98,-118.13 81.41,-108.1 72.48,-113.81 77.98,-118.13"/>
<g id="a_edge6&#45;headlabel"><a xlink:href="dir_000001_000027.html" target="_top" xlink:title="13">
<text text-anchor="middle" x="78" y="-120.21" font-family="FreeSans.ttf" font-size="10.00">13</text>
</a>
</g>
</g>
<!-- dir_7349e89ef19c117195f8e371603e1b1f&#45;&gt;dir_aebb8dcc11953d78e620bbef0b9e2183 -->
<g id="edge7" class="edge">
<title>dir_7349e89ef19c117195f8e371603e1b1f&#45;&gt;dir_aebb8dcc11953d78e620bbef0b9e2183</title>
<path fill="none" stroke="black" d="M41.55,-143.67C43.8,-125.29 48.74,-95.69 58.85,-72 62.93,-62.43 68.84,-52.78 74.69,-44.39"/>
<polygon fill="black" stroke="black" points="77.63,-46.29 80.68,-36.15 71.97,-42.17 77.63,-46.29"/>
<g id="a_edge7&#45;headlabel"><a xlink:href="dir_000001_000011.html" target="_top" xlink:title="29">
<text text-anchor="middle" x="77.81" y="-48.37" font-family="FreeSans.ttf" font-size="10.00">29</text>
</a>
</g>
</g>
<!-- dir_5dd65160827af56e6353642206b80129&#45;&gt;dir_aebb8dcc11953d78e620bbef0b9e2183 -->
<g id="edge8" class="edge">
<title>dir_5dd65160827af56e6353642206b80129&#45;&gt;dir_aebb8dcc11953d78e620bbef0b9e2183</title>
<path fill="none" stroke="black" d="M94.85,-71.7C94.85,-63.98 94.85,-54.71 94.85,-46.11"/>
<polygon fill="black" stroke="black" points="98.35,-46.1 94.85,-36.1 91.35,-46.1 98.35,-46.1"/>
<g id="a_edge8&#45;headlabel"><a xlink:href="dir_000027_000011.html" target="_top" xlink:title="59">
<text text-anchor="middle" x="101.19" y="-47.2" font-family="FreeSans.ttf" font-size="10.00">59</text>
</a>
</g>
</g>
<!-- dir_2cebb095d9654587036b8dcc7ebbbc4d&#45;&gt;dir_7349e89ef19c117195f8e371603e1b1f -->
<g id="edge9" class="edge">
<title>dir_2cebb095d9654587036b8dcc7ebbbc4d&#45;&gt;dir_7349e89ef19c117195f8e371603e1b1f</title>
<path fill="none" stroke="black" d="M122.94,-215.88C108.69,-206.81 91,-195.55 75.61,-185.76"/>
<polygon fill="black" stroke="black" points="77.18,-182.61 66.86,-180.19 73.42,-188.51 77.18,-182.61"/>
<g id="a_edge9&#45;headlabel"><a xlink:href="dir_000040_000001.html" target="_top" xlink:title="5">
<text text-anchor="middle" x="81.73" y="-179.64" font-family="FreeSans.ttf" font-size="10.00">5</text>
</a>
</g>
</g>
<!-- dir_2cebb095d9654587036b8dcc7ebbbc4d&#45;&gt;dir_5dd65160827af56e6353642206b80129 -->
<g id="edge10" class="edge">
<title>dir_2cebb095d9654587036b8dcc7ebbbc4d&#45;&gt;dir_5dd65160827af56e6353642206b80129</title>
<path fill="none" stroke="black" d="M143.21,-215.87C133.76,-191.46 116.32,-146.43 105.17,-117.64"/>
<polygon fill="black" stroke="black" points="108.38,-116.25 101.51,-108.19 101.85,-118.78 108.38,-116.25"/>
<g id="a_edge10&#45;headlabel"><a xlink:href="dir_000040_000027.html" target="_top" xlink:title="7">
<text text-anchor="middle" x="112.33" y="-116.08" font-family="FreeSans.ttf" font-size="10.00">7</text>
</a>
</g>
</g>
<!-- dir_2cebb095d9654587036b8dcc7ebbbc4d&#45;&gt;dir_aebb8dcc11953d78e620bbef0b9e2183 -->
<g id="edge11" class="edge">
<title>dir_2cebb095d9654587036b8dcc7ebbbc4d&#45;&gt;dir_aebb8dcc11953d78e620bbef0b9e2183</title>
<path fill="none" stroke="black" d="M150.45,-215.93C150.94,-185.84 149.44,-121.84 130.85,-72 127.27,-62.41 121.61,-52.86 115.83,-44.57"/>
<polygon fill="black" stroke="black" points="118.59,-42.42 109.85,-36.43 112.95,-46.56 118.59,-42.42"/>
<g id="a_edge11&#45;headlabel"><a xlink:href="dir_000040_000011.html" target="_top" xlink:title="8">
<text text-anchor="middle" x="123.01" y="-41.13" font-family="FreeSans.ttf" font-size="10.00">8</text>
</a>
</g>
</g>
<!-- dir_2cebb095d9654587036b8dcc7ebbbc4d&#45;&gt;dir_5f57de5bbe3f948f16e791110ccbe302 -->
<g id="edge12" class="edge">
<title>dir_2cebb095d9654587036b8dcc7ebbbc4d&#45;&gt;dir_5f57de5bbe3f948f16e791110ccbe302</title>
<path fill="none" stroke="black" d="M168.64,-215.7C178.02,-207.05 189.53,-196.45 199.76,-187.03"/>
<polygon fill="black" stroke="black" points="202.29,-189.45 207.28,-180.1 197.55,-184.3 202.29,-189.45"/>
<g id="a_edge12&#45;headlabel"><a xlink:href="dir_000040_000060.html" target="_top" xlink:title="11">
<text text-anchor="middle" x="201.57" y="-191.48" font-family="FreeSans.ttf" font-size="10.00">11</text>
</a>
</g>
</g>
<!-- dir_5f57de5bbe3f948f16e791110ccbe302&#45;&gt;dir_aebb8dcc11953d78e620bbef0b9e2183 -->
<g id="edge13" class="edge">
<title>dir_5f57de5bbe3f948f16e791110ccbe302&#45;&gt;dir_aebb8dcc11953d78e620bbef0b9e2183</title>
<path fill="none" stroke="black" d="M221.34,-143.85C215.55,-124.53 203.9,-93.07 184.85,-72 170.14,-55.74 149.25,-43.01 131.29,-34.11"/>
<polygon fill="black" stroke="black" points="132.76,-30.93 122.22,-29.81 129.76,-37.26 132.76,-30.93"/>
<g id="a_edge13&#45;headlabel"><a xlink:href="dir_000060_000011.html" target="_top" xlink:title="1">
<text text-anchor="middle" x="137.22" y="-27.41" font-family="FreeSans.ttf" font-size="10.00">1</text>
</a>
</g>
</g>
</g>
</svg>
