<?xml version="1.0" encoding="UTF-8" standalone="no"?>
<!DOCTYPE svg PUBLIC "-//W3C//DTD SVG 1.1//EN"
 "http://www.w3.org/Graphics/SVG/1.1/DTD/svg11.dtd">
<!-- Generated by graphviz version 2.43.0 (0)
 -->
<!-- Title: urdf Pages: 1 -->
<svg width="241pt" height="375pt"
 viewBox="0.00 0.00 240.76 375.00" xmlns="http://www.w3.org/2000/svg" xmlns:xlink="http://www.w3.org/1999/xlink">
<g id="graph0" class="graph" transform="scale(1 1) rotate(0) translate(4 371)">
<title>urdf</title>
<g id="clust1" class="cluster">
<title>clusterdir_fb93052291ccda37fd41b6d18f3dfcc9</title>
<g id="a_clust1"><a xlink:href="dir_fb93052291ccda37fd41b6d18f3dfcc9.html" target="_top" xlink:title="model_io">
<polygon fill="#ddddee" stroke="black" points="66.76,-200 66.76,-359 224.76,-359 224.76,-200 66.76,-200"/>
<text text-anchor="middle" x="145.76" y="-347" font-family="FreeSans.ttf" font-size="10.00">model_io</text>
</a>
</g>
</g>
<g id="clust2" class="cluster">
<title>clusterdir_3938e606227a31511fafb56cc7259e7a</title>
<g id="a_clust2"><a xlink:href="dir_3938e606227a31511fafb56cc7259e7a.html" target="_top">
<polygon fill="#eeeeff" stroke="black" points="74.76,-208 74.76,-332 216.76,-332 216.76,-208 74.76,-208"/>
</a>
</g>
</g>
<!-- dir_3938e606227a31511fafb56cc7259e7a -->
<g id="node1" class="node">
<title>dir_3938e606227a31511fafb56cc7259e7a</title>
<text text-anchor="middle" x="181.76" y="-303.5" font-family="FreeSans.ttf" font-size="10.00">urdf</text>
</g>
<!-- dir_628badb9184463bddab600e550de0bc5 -->
<g id="node2" class="node">
<title>dir_628badb9184463bddab600e550de0bc5</title>
<g id="a_node2"><a xlink:href="dir_628badb9184463bddab600e550de0bc5.html" target="_top" xlink:title="include">
<polygon fill="white" stroke="red" points="136.76,-252 82.76,-252 82.76,-216 136.76,-216 136.76,-252"/>
<text text-anchor="middle" x="109.76" y="-231.5" font-family="FreeSans.ttf" font-size="10.00">include</text>
</a>
</g>
</g>
<!-- dir_7349e89ef19c117195f8e371603e1b1f -->
<g id="node4" class="node">
<title>dir_7349e89ef19c117195f8e371603e1b1f</title>
<g id="a_node4"><a xlink:href="dir_7349e89ef19c117195f8e371603e1b1f.html" target="_top" xlink:title="sensors">
<polygon fill="none" stroke="red" points="67.76,-180 13.76,-180 13.76,-144 67.76,-144 67.76,-180"/>
<text text-anchor="middle" x="40.76" y="-159.5" font-family="FreeSans.ttf" font-size="10.00">sensors</text>
</a>
</g>
</g>
<!-- dir_628badb9184463bddab600e550de0bc5&#45;&gt;dir_7349e89ef19c117195f8e371603e1b1f -->
<g id="edge1" class="edge">
<title>dir_628badb9184463bddab600e550de0bc5&#45;&gt;dir_7349e89ef19c117195f8e371603e1b1f</title>
<path fill="none" stroke="black" d="M92.7,-215.7C84.26,-207.14 73.93,-196.66 64.72,-187.3"/>
<polygon fill="black" stroke="black" points="67.13,-184.77 57.62,-180.1 62.15,-189.68 67.13,-184.77"/>
<g id="a_edge1&#45;headlabel"><a xlink:href="dir_000043_000001.html" target="_top" xlink:title="5">
<text text-anchor="middle" x="71.68" y="-182.84" font-family="FreeSans.ttf" font-size="10.00">5</text>
</a>
</g>
</g>
<!-- dir_5dd65160827af56e6353642206b80129 -->
<g id="node5" class="node">
<title>dir_5dd65160827af56e6353642206b80129</title>
<g id="a_node5"><a xlink:href="dir_5dd65160827af56e6353642206b80129.html" target="_top" xlink:title="model">
<polygon fill="none" stroke="red" points="105.76,-108 51.76,-108 51.76,-72 105.76,-72 105.76,-108"/>
<text text-anchor="middle" x="78.76" y="-87.5" font-family="FreeSans.ttf" font-size="10.00">model</text>
</a>
</g>
</g>
<!-- dir_628badb9184463bddab600e550de0bc5&#45;&gt;dir_5dd65160827af56e6353642206b80129 -->
<g id="edge2" class="edge">
<title>dir_628badb9184463bddab600e550de0bc5&#45;&gt;dir_5dd65160827af56e6353642206b80129</title>
<path fill="none" stroke="black" d="M106.02,-215.87C100.71,-191.56 90.94,-146.82 84.66,-118.01"/>
<polygon fill="black" stroke="black" points="88.06,-117.21 82.51,-108.19 81.22,-118.71 88.06,-117.21"/>
<g id="a_edge2&#45;headlabel"><a xlink:href="dir_000043_000027.html" target="_top" xlink:title="7">
<text text-anchor="middle" x="91.6" y="-117.62" font-family="FreeSans.ttf" font-size="10.00">7</text>
</a>
</g>
</g>
<!-- dir_aebb8dcc11953d78e620bbef0b9e2183 -->
<g id="node6" class="node">
<title>dir_aebb8dcc11953d78e620bbef0b9e2183</title>
<g id="a_node6"><a xlink:href="dir_aebb8dcc11953d78e620bbef0b9e2183.html" target="_top" xlink:title="core">
<polygon fill="none" stroke="red" points="160.76,-36 106.76,-36 106.76,0 160.76,0 160.76,-36"/>
<text text-anchor="middle" x="133.76" y="-15.5" font-family="FreeSans.ttf" font-size="10.00">core</text>
</a>
</g>
</g>
<!-- dir_628badb9184463bddab600e550de0bc5&#45;&gt;dir_aebb8dcc11953d78e620bbef0b9e2183 -->
<g id="edge3" class="edge">
<title>dir_628badb9184463bddab600e550de0bc5&#45;&gt;dir_aebb8dcc11953d78e620bbef0b9e2183</title>
<path fill="none" stroke="black" d="M111.68,-215.85C115.83,-178.83 125.66,-91.18 130.69,-46.39"/>
<polygon fill="black" stroke="black" points="134.19,-46.56 131.83,-36.23 127.23,-45.78 134.19,-46.56"/>
<g id="a_edge3&#45;headlabel"><a xlink:href="dir_000043_000011.html" target="_top" xlink:title="8">
<text text-anchor="middle" x="136.61" y="-47.95" font-family="FreeSans.ttf" font-size="10.00">8</text>
</a>
</g>
</g>
<!-- dir_5f57de5bbe3f948f16e791110ccbe302 -->
<g id="node7" class="node">
<title>dir_5f57de5bbe3f948f16e791110ccbe302</title>
<g id="a_node7"><a xlink:href="dir_5f57de5bbe3f948f16e791110ccbe302.html" target="_top" xlink:title="xml">
<polygon fill="none" stroke="red" points="215.76,-180 161.76,-180 161.76,-144 215.76,-144 215.76,-180"/>
<text text-anchor="middle" x="188.76" y="-159.5" font-family="FreeSans.ttf" font-size="10.00">xml</text>
</a>
</g>
</g>
<!-- dir_628badb9184463bddab600e550de0bc5&#45;&gt;dir_5f57de5bbe3f948f16e791110ccbe302 -->
<g id="edge4" class="edge">
<title>dir_628badb9184463bddab600e550de0bc5&#45;&gt;dir_5f57de5bbe3f948f16e791110ccbe302</title>
<path fill="none" stroke="black" d="M129.29,-215.7C139.14,-206.97 151.24,-196.24 161.95,-186.75"/>
<polygon fill="black" stroke="black" points="164.29,-189.36 169.46,-180.1 159.65,-184.12 164.29,-189.36"/>
<g id="a_edge4&#45;headlabel"><a xlink:href="dir_000043_000070.html" target="_top" xlink:title="11">
<text text-anchor="middle" x="163.48" y="-191.36" font-family="FreeSans.ttf" font-size="10.00">11</text>
</a>
</g>
</g>
<!-- dir_7bc8f591e845082dc66e6658a344f988 -->
<g id="node3" class="node">
<title>dir_7bc8f591e845082dc66e6658a344f988</title>
<g id="a_node3"><a xlink:href="dir_7bc8f591e845082dc66e6658a344f988.html" target="_top" xlink:title="src">
<polygon fill="white" stroke="black" points="136.76,-324 82.76,-324 82.76,-288 136.76,-288 136.76,-324"/>
<text text-anchor="middle" x="109.76" y="-303.5" font-family="FreeSans.ttf" font-size="10.00">src</text>
</a>
</g>
</g>
<!-- dir_7bc8f591e845082dc66e6658a344f988&#45;&gt;dir_628badb9184463bddab600e550de0bc5 -->
<g id="edge5" class="edge">
<title>dir_7bc8f591e845082dc66e6658a344f988&#45;&gt;dir_628badb9184463bddab600e550de0bc5</title>
<path fill="none" stroke="black" d="M109.76,-287.7C109.76,-279.98 109.76,-270.71 109.76,-262.11"/>
<polygon fill="black" stroke="black" points="113.26,-262.1 109.76,-252.1 106.26,-262.1 113.26,-262.1"/>
<g id="a_edge5&#45;headlabel"><a xlink:href="dir_000042_000043.html" target="_top" xlink:title="41">
<text text-anchor="middle" x="116.1" y="-263.2" font-family="FreeSans.ttf" font-size="10.00">41</text>
</a>
</g>
</g>
<!-- dir_7bc8f591e845082dc66e6658a344f988&#45;&gt;dir_7349e89ef19c117195f8e371603e1b1f -->
<g id="edge6" class="edge">
<title>dir_7bc8f591e845082dc66e6658a344f988&#45;&gt;dir_7349e89ef19c117195f8e371603e1b1f</title>
<path fill="none" stroke="black" d="M96.65,-287.99C89.28,-277.91 80.28,-264.66 73.76,-252 63.42,-231.95 54.71,-207.89 48.83,-189.85"/>
<polygon fill="black" stroke="black" points="52.15,-188.72 45.79,-180.25 45.47,-190.84 52.15,-188.72"/>
<g id="a_edge6&#45;headlabel"><a xlink:href="dir_000042_000001.html" target="_top" xlink:title="7">
<text text-anchor="middle" x="55.94" y="-188.79" font-family="FreeSans.ttf" font-size="10.00">7</text>
</a>
</g>
</g>
<!-- dir_7bc8f591e845082dc66e6658a344f988&#45;&gt;dir_5dd65160827af56e6353642206b80129 -->
<g id="edge7" class="edge">
<title>dir_7bc8f591e845082dc66e6658a344f988&#45;&gt;dir_5dd65160827af56e6353642206b80129</title>
<path fill="none" stroke="black" d="M86.67,-287.84C59.99,-266.24 18.04,-226.31 4.76,-180 0.35,-164.62 -2.55,-158.23 4.76,-144 12.89,-128.17 28.19,-116.01 42.78,-107.36"/>
<polygon fill="black" stroke="black" points="44.64,-110.32 51.7,-102.42 41.25,-104.2 44.64,-110.32"/>
<g id="a_edge7&#45;headlabel"><a xlink:href="dir_000042_000027.html" target="_top" xlink:title="17">
<text text-anchor="middle" x="42.87" y="-112.05" font-family="FreeSans.ttf" font-size="10.00">17</text>
</a>
</g>
</g>
<!-- dir_7bc8f591e845082dc66e6658a344f988&#45;&gt;dir_aebb8dcc11953d78e620bbef0b9e2183 -->
<g id="edge8" class="edge">
<title>dir_7bc8f591e845082dc66e6658a344f988&#45;&gt;dir_aebb8dcc11953d78e620bbef0b9e2183</title>
<path fill="none" stroke="black" d="M135.19,-287.91C164.07,-266.66 209.21,-227.35 224.76,-180 241.96,-127.61 195.13,-73.06 162.44,-42.82"/>
<polygon fill="black" stroke="black" points="164.67,-40.12 154.89,-36.03 159.98,-45.32 164.67,-40.12"/>
<g id="a_edge8&#45;headlabel"><a xlink:href="dir_000042_000011.html" target="_top" xlink:title="9">
<text text-anchor="middle" x="169.24" y="-37.91" font-family="FreeSans.ttf" font-size="10.00">9</text>
</a>
</g>
</g>
<!-- dir_7bc8f591e845082dc66e6658a344f988&#45;&gt;dir_5f57de5bbe3f948f16e791110ccbe302 -->
<g id="edge9" class="edge">
<title>dir_7bc8f591e845082dc66e6658a344f988&#45;&gt;dir_5f57de5bbe3f948f16e791110ccbe302</title>
<path fill="none" stroke="black" d="M122.42,-287.75C129.64,-277.58 138.64,-264.33 145.76,-252 157.55,-231.56 169.09,-207.39 177.23,-189.41"/>
<polygon fill="black" stroke="black" points="180.5,-190.67 181.39,-180.11 174.11,-187.81 180.5,-190.67"/>
<g id="a_edge9&#45;headlabel"><a xlink:href="dir_000042_000070.html" target="_top" xlink:title="9">
<text text-anchor="middle" x="181.63" y="-192.61" font-family="FreeSans.ttf" font-size="10.00">9</text>
</a>
</g>
</g>
<!-- dir_7349e89ef19c117195f8e371603e1b1f&#45;&gt;dir_5dd65160827af56e6353642206b80129 -->
<g id="edge10" class="edge">
<title>dir_7349e89ef19c117195f8e371603e1b1f&#45;&gt;dir_5dd65160827af56e6353642206b80129</title>
<path fill="none" stroke="black" d="M50.15,-143.7C54.52,-135.64 59.82,-125.89 64.65,-116.98"/>
<polygon fill="black" stroke="black" points="67.78,-118.56 69.47,-108.1 61.63,-115.22 67.78,-118.56"/>
<g id="a_edge10&#45;headlabel"><a xlink:href="dir_000001_000027.html" target="_top" xlink:title="13">
<text text-anchor="middle" x="68.56" y="-120.58" font-family="FreeSans.ttf" font-size="10.00">13</text>
</a>
</g>
</g>
<!-- dir_7349e89ef19c117195f8e371603e1b1f&#45;&gt;dir_aebb8dcc11953d78e620bbef0b9e2183 -->
<g id="edge11" class="edge">
<title>dir_7349e89ef19c117195f8e371603e1b1f&#45;&gt;dir_aebb8dcc11953d78e620bbef0b9e2183</title>
<path fill="none" stroke="black" d="M36.49,-143.93C32.75,-124.96 29.72,-94.1 42.76,-72 54.65,-51.84 77.42,-38.58 97.2,-30.37"/>
<polygon fill="black" stroke="black" points="98.54,-33.61 106.61,-26.74 96.02,-27.08 98.54,-33.61"/>
<g id="a_edge11&#45;headlabel"><a xlink:href="dir_000001_000011.html" target="_top" xlink:title="29">
<text text-anchor="middle" x="96.21" y="-35.05" font-family="FreeSans.ttf" font-size="10.00">29</text>
</a>
</g>
</g>
<!-- dir_5dd65160827af56e6353642206b80129&#45;&gt;dir_aebb8dcc11953d78e620bbef0b9e2183 -->
<g id="edge12" class="edge">
<title>dir_5dd65160827af56e6353642206b80129&#45;&gt;dir_aebb8dcc11953d78e620bbef0b9e2183</title>
<path fill="none" stroke="black" d="M92.35,-71.7C98.88,-63.39 106.83,-53.28 114.01,-44.14"/>
<polygon fill="black" stroke="black" points="116.89,-46.13 120.32,-36.1 111.39,-41.81 116.89,-46.13"/>
<g id="a_edge12&#45;headlabel"><a xlink:href="dir_000027_000011.html" target="_top" xlink:title="59">
<text text-anchor="middle" x="116.91" y="-48.21" font-family="FreeSans.ttf" font-size="10.00">59</text>
</a>
</g>
</g>
<!-- dir_5f57de5bbe3f948f16e791110ccbe302&#45;&gt;dir_aebb8dcc11953d78e620bbef0b9e2183 -->
<g id="edge13" class="edge">
<title>dir_5f57de5bbe3f948f16e791110ccbe302&#45;&gt;dir_aebb8dcc11953d78e620bbef0b9e2183</title>
<path fill="none" stroke="black" d="M182.12,-143.87C172.67,-119.46 155.23,-74.43 144.08,-45.64"/>
<polygon fill="black" stroke="black" points="147.29,-44.25 140.42,-36.19 140.76,-46.78 147.29,-44.25"/>
<g id="a_edge13&#45;headlabel"><a xlink:href="dir_000070_000011.html" target="_top" xlink:title="1">
<text text-anchor="middle" x="151.24" y="-44.08" font-family="FreeSans.ttf" font-size="10.00">1</text>
</a>
</g>
</g>
</g>
</svg>
