<?xml version="1.0" encoding="UTF-8" standalone="no"?>
<!DOCTYPE svg PUBLIC "-//W3C//DTD SVG 1.1//EN"
 "http://www.w3.org/Graphics/SVG/1.1/DTD/svg11.dtd">
<!-- Generated by graphviz version 2.43.0 (0)
 -->
<!-- Title: model_io Pages: 1 -->
<svg width="265pt" height="303pt"
 viewBox="0.00 0.00 265.04 303.00" xmlns="http://www.w3.org/2000/svg" xmlns:xlink="http://www.w3.org/1999/xlink">
<g id="graph0" class="graph" transform="scale(1 1) rotate(0) translate(4 299)">
<title>model_io</title>
<g id="clust1" class="cluster">
<title>clusterdir_68267d1309a1af8e8297ef4c3efbcdba</title>
<g id="a_clust1"><a xlink:href="dir_68267d1309a1af8e8297ef4c3efbcdba.html" target="_top" xlink:title="src">
<polygon fill="#ddddee" stroke="black" points="8,-128 8,-287 174,-287 174,-128 8,-128"/>
<text text-anchor="middle" x="91" y="-275" font-family="FreeSans.ttf" font-size="10.00">src</text>
</a>
</g>
</g>
<g id="clust2" class="cluster">
<title>clusterdir_fb93052291ccda37fd41b6d18f3dfcc9</title>
<g id="a_clust2"><a xlink:href="dir_fb93052291ccda37fd41b6d18f3dfcc9.html" target="_top">
<polygon fill="#eeeeff" stroke="black" points="16,-136 16,-260 166,-260 166,-136 16,-136"/>
</a>
</g>
</g>
<!-- dir_fb93052291ccda37fd41b6d18f3dfcc9 -->
<g id="node1" class="node">
<title>dir_fb93052291ccda37fd41b6d18f3dfcc9</title>
<text text-anchor="middle" x="127" y="-231.5" font-family="FreeSans.ttf" font-size="10.00">model_io</text>
</g>
<!-- dir_e61ef99cd1a074c2cfa816a0d2d03a98 -->
<g id="node2" class="node">
<title>dir_e61ef99cd1a074c2cfa816a0d2d03a98</title>
<g id="a_node2"><a xlink:href="dir_e61ef99cd1a074c2cfa816a0d2d03a98.html" target="_top" xlink:title="codecs">
<polygon fill="white" stroke="red" points="78,-252 24,-252 24,-216 78,-216 78,-252"/>
<text text-anchor="middle" x="51" y="-231.5" font-family="FreeSans.ttf" font-size="10.00">codecs</text>
</a>
</g>
</g>
<!-- dir_5f57de5bbe3f948f16e791110ccbe302 -->
<g id="node3" class="node">
<title>dir_5f57de5bbe3f948f16e791110ccbe302</title>
<g id="a_node3"><a xlink:href="dir_5f57de5bbe3f948f16e791110ccbe302.html" target="_top" xlink:title="xml">
<polygon fill="white" stroke="red" points="90,-180 36,-180 36,-144 90,-144 90,-180"/>
<text text-anchor="middle" x="63" y="-159.5" font-family="FreeSans.ttf" font-size="10.00">xml</text>
</a>
</g>
</g>
<!-- dir_e61ef99cd1a074c2cfa816a0d2d03a98&#45;&gt;dir_5f57de5bbe3f948f16e791110ccbe302 -->
<g id="edge8" class="edge">
<title>dir_e61ef99cd1a074c2cfa816a0d2d03a98&#45;&gt;dir_5f57de5bbe3f948f16e791110ccbe302</title>
<path fill="none" stroke="black" d="M53.97,-215.7C55.29,-207.98 56.88,-198.71 58.35,-190.11"/>
<polygon fill="black" stroke="black" points="61.83,-190.55 60.07,-180.1 54.93,-189.37 61.83,-190.55"/>
<g id="a_edge8&#45;headlabel"><a xlink:href="dir_000041_000070.html" target="_top" xlink:title="20">
<text text-anchor="middle" x="64.02" y="-192.07" font-family="FreeSans.ttf" font-size="10.00">20</text>
</a>
</g>
</g>
<!-- dir_7349e89ef19c117195f8e371603e1b1f -->
<g id="node4" class="node">
<title>dir_7349e89ef19c117195f8e371603e1b1f</title>
<g id="a_node4"><a xlink:href="dir_7349e89ef19c117195f8e371603e1b1f.html" target="_top" xlink:title="sensors">
<polygon fill="none" stroke="red" points="236,-180 182,-180 182,-144 236,-144 236,-180"/>
<text text-anchor="middle" x="209" y="-159.5" font-family="FreeSans.ttf" font-size="10.00">sensors</text>
</a>
</g>
</g>
<!-- dir_e61ef99cd1a074c2cfa816a0d2d03a98&#45;&gt;dir_7349e89ef19c117195f8e371603e1b1f -->
<g id="edge5" class="edge">
<title>dir_e61ef99cd1a074c2cfa816a0d2d03a98&#45;&gt;dir_7349e89ef19c117195f8e371603e1b1f</title>
<path fill="none" stroke="black" d="M78.08,-220.1C81.09,-218.7 84.1,-217.31 87,-216 123.63,-199.41 133.13,-196.03 170,-180 170.83,-179.64 171.67,-179.27 172.52,-178.91"/>
<polygon fill="black" stroke="black" points="173.96,-182.1 181.73,-174.9 171.16,-175.68 173.96,-182.1"/>
<g id="a_edge5&#45;headlabel"><a xlink:href="dir_000041_000001.html" target="_top" xlink:title="12">
<text text-anchor="middle" x="171.79" y="-183.63" font-family="FreeSans.ttf" font-size="10.00">12</text>
</a>
</g>
</g>
<!-- dir_5dd65160827af56e6353642206b80129 -->
<g id="node5" class="node">
<title>dir_5dd65160827af56e6353642206b80129</title>
<g id="a_node5"><a xlink:href="dir_5dd65160827af56e6353642206b80129.html" target="_top" xlink:title="model">
<polygon fill="none" stroke="red" points="181,-108 127,-108 127,-72 181,-72 181,-108"/>
<text text-anchor="middle" x="154" y="-87.5" font-family="FreeSans.ttf" font-size="10.00">model</text>
</a>
</g>
</g>
<!-- dir_e61ef99cd1a074c2cfa816a0d2d03a98&#45;&gt;dir_5dd65160827af56e6353642206b80129 -->
<g id="edge6" class="edge">
<title>dir_e61ef99cd1a074c2cfa816a0d2d03a98&#45;&gt;dir_5dd65160827af56e6353642206b80129</title>
<path fill="none" stroke="black" d="M68.29,-215.55C77.82,-205.54 89.6,-192.5 99,-180 114.15,-159.85 129.04,-135.39 139.5,-117.21"/>
<polygon fill="black" stroke="black" points="142.65,-118.76 144.54,-108.33 136.56,-115.3 142.65,-118.76"/>
<g id="a_edge6&#45;headlabel"><a xlink:href="dir_000041_000027.html" target="_top" xlink:title="25">
<text text-anchor="middle" x="143.34" y="-120.79" font-family="FreeSans.ttf" font-size="10.00">25</text>
</a>
</g>
</g>
<!-- dir_aebb8dcc11953d78e620bbef0b9e2183 -->
<g id="node6" class="node">
<title>dir_aebb8dcc11953d78e620bbef0b9e2183</title>
<g id="a_node6"><a xlink:href="dir_aebb8dcc11953d78e620bbef0b9e2183.html" target="_top" xlink:title="core">
<polygon fill="none" stroke="red" points="208,-36 154,-36 154,0 208,0 208,-36"/>
<text text-anchor="middle" x="181" y="-15.5" font-family="FreeSans.ttf" font-size="10.00">core</text>
</a>
</g>
</g>
<!-- dir_e61ef99cd1a074c2cfa816a0d2d03a98&#45;&gt;dir_aebb8dcc11953d78e620bbef0b9e2183 -->
<g id="edge7" class="edge">
<title>dir_e61ef99cd1a074c2cfa816a0d2d03a98&#45;&gt;dir_aebb8dcc11953d78e620bbef0b9e2183</title>
<path fill="none" stroke="black" d="M78.26,-219.38C81.18,-218.15 84.13,-216.99 87,-216 155.07,-192.48 200.08,-236.3 245,-180 278.17,-138.42 234.98,-77.47 205.1,-43.74"/>
<polygon fill="black" stroke="black" points="207.53,-41.22 198.21,-36.18 202.36,-45.93 207.53,-41.22"/>
<g id="a_edge7&#45;headlabel"><a xlink:href="dir_000041_000011.html" target="_top" xlink:title="17">
<text text-anchor="middle" x="212.05" y="-39.47" font-family="FreeSans.ttf" font-size="10.00">17</text>
</a>
</g>
</g>
<!-- dir_5f57de5bbe3f948f16e791110ccbe302&#45;&gt;dir_aebb8dcc11953d78e620bbef0b9e2183 -->
<g id="edge4" class="edge">
<title>dir_5f57de5bbe3f948f16e791110ccbe302&#45;&gt;dir_aebb8dcc11953d78e620bbef0b9e2183</title>
<path fill="none" stroke="black" d="M71.48,-143.85C81.22,-125.1 98.41,-94.68 118,-72 127.23,-61.31 138.72,-50.98 149.35,-42.32"/>
<polygon fill="black" stroke="black" points="151.61,-45 157.26,-36.04 147.26,-39.52 151.61,-45"/>
<g id="a_edge4&#45;headlabel"><a xlink:href="dir_000070_000011.html" target="_top" xlink:title="1">
<text text-anchor="middle" x="150.55" y="-46.96" font-family="FreeSans.ttf" font-size="10.00">1</text>
</a>
</g>
</g>
<!-- dir_7349e89ef19c117195f8e371603e1b1f&#45;&gt;dir_5dd65160827af56e6353642206b80129 -->
<g id="edge1" class="edge">
<title>dir_7349e89ef19c117195f8e371603e1b1f&#45;&gt;dir_5dd65160827af56e6353642206b80129</title>
<path fill="none" stroke="black" d="M195.4,-143.7C188.88,-135.39 180.93,-125.28 173.75,-116.14"/>
<polygon fill="black" stroke="black" points="176.37,-113.81 167.44,-108.1 170.87,-118.13 176.37,-113.81"/>
<g id="a_edge1&#45;headlabel"><a xlink:href="dir_000001_000027.html" target="_top" xlink:title="13">
<text text-anchor="middle" x="180.82" y="-112.38" font-family="FreeSans.ttf" font-size="10.00">13</text>
</a>
</g>
</g>
<!-- dir_7349e89ef19c117195f8e371603e1b1f&#45;&gt;dir_aebb8dcc11953d78e620bbef0b9e2183 -->
<g id="edge2" class="edge">
<title>dir_7349e89ef19c117195f8e371603e1b1f&#45;&gt;dir_aebb8dcc11953d78e620bbef0b9e2183</title>
<path fill="none" stroke="black" d="M205.62,-143.87C200.83,-119.56 192.01,-74.82 186.33,-46.01"/>
<polygon fill="black" stroke="black" points="189.76,-45.32 184.39,-36.19 182.89,-46.68 189.76,-45.32"/>
<g id="a_edge2&#45;headlabel"><a xlink:href="dir_000001_000011.html" target="_top" xlink:title="29">
<text text-anchor="middle" x="193.24" y="-45.8" font-family="FreeSans.ttf" font-size="10.00">29</text>
</a>
</g>
</g>
<!-- dir_5dd65160827af56e6353642206b80129&#45;&gt;dir_aebb8dcc11953d78e620bbef0b9e2183 -->
<g id="edge3" class="edge">
<title>dir_5dd65160827af56e6353642206b80129&#45;&gt;dir_aebb8dcc11953d78e620bbef0b9e2183</title>
<path fill="none" stroke="black" d="M160.67,-71.7C163.71,-63.81 167.38,-54.3 170.76,-45.55"/>
<polygon fill="black" stroke="black" points="174.07,-46.69 174.4,-36.1 167.54,-44.17 174.07,-46.69"/>
<g id="a_edge3&#45;headlabel"><a xlink:href="dir_000027_000011.html" target="_top" xlink:title="59">
<text text-anchor="middle" x="175.42" y="-48.57" font-family="FreeSans.ttf" font-size="10.00">59</text>
</a>
</g>
</g>
</g>
</svg>
