<?xml version="1.0" encoding="UTF-8" standalone="no"?>
<!DOCTYPE svg PUBLIC "-//W3C//DTD SVG 1.1//EN"
 "http://www.w3.org/Graphics/SVG/1.1/DTD/svg11.dtd">
<!-- Generated by graphviz version 2.43.0 (0)
 -->
<!-- Title: src Pages: 1 -->
<svg width="207pt" height="367pt"
 viewBox="0.00 0.00 206.92 367.00" xmlns="http://www.w3.org/2000/svg" xmlns:xlink="http://www.w3.org/1999/xlink">
<g id="graph0" class="graph" transform="scale(1 1) rotate(0) translate(4 363)">
<title>src</title>
<g id="clust1" class="cluster">
<title>clusterdir_d32611501a8b9f9ee5f85682f67560af</title>
<g id="a_clust1"><a xlink:href="dir_d32611501a8b9f9ee5f85682f67560af.html" target="_top" xlink:title="yarprobotstatepublisher">
<polygon fill="#ddddee" stroke="black" points="10,-280 10,-351 144,-351 144,-280 10,-280"/>
<text text-anchor="middle" x="77" y="-339" font-family="FreeSans.ttf" font-size="10.00">yarprobotstatepublisher</text>
</a>
</g>
</g>
<!-- dir_4c35f201f486dab9f9f20c2676597da0 -->
<g id="node1" class="node">
<title>dir_4c35f201f486dab9f9f20c2676597da0</title>
<g id="a_node1"><a xlink:href="dir_4c35f201f486dab9f9f20c2676597da0.html" target="_top" xlink:title="src">
<polygon fill="#eeeeff" stroke="black" points="104,-324 50,-324 50,-288 104,-288 104,-324"/>
<text text-anchor="middle" x="77" y="-303.5" font-family="FreeSans.ttf" font-size="10.00">src</text>
</a>
</g>
</g>
<!-- dir_355314d08763ddbf0e6d36531a48f7ae -->
<g id="node2" class="node">
<title>dir_355314d08763ddbf0e6d36531a48f7ae</title>
<g id="a_node2"><a xlink:href="dir_355314d08763ddbf0e6d36531a48f7ae.html" target="_top" xlink:title="high&#45;level">
<polygon fill="none" stroke="red" points="93.5,-180 28.5,-180 28.5,-144 93.5,-144 93.5,-180"/>
<text text-anchor="middle" x="61" y="-159.5" font-family="FreeSans.ttf" font-size="10.00">high&#45;level</text>
</a>
</g>
</g>
<!-- dir_4c35f201f486dab9f9f20c2676597da0&#45;&gt;dir_355314d08763ddbf0e6d36531a48f7ae -->
<g id="edge3" class="edge">
<title>dir_4c35f201f486dab9f9f20c2676597da0&#45;&gt;dir_355314d08763ddbf0e6d36531a48f7ae</title>
<path fill="none" stroke="black" d="M61.39,-287.77C53.63,-278.03 45.05,-265.18 41,-252 34.64,-231.31 40.77,-207.34 47.87,-189.49"/>
<polygon fill="black" stroke="black" points="51.1,-190.84 51.84,-180.27 44.67,-188.07 51.1,-190.84"/>
<g id="a_edge3&#45;headlabel"><a xlink:href="dir_000060_000053.html" target="_top" xlink:title="1">
<text text-anchor="middle" x="52.29" y="-192.76" font-family="FreeSans.ttf" font-size="10.00">1</text>
</a>
</g>
</g>
<!-- dir_fb93052291ccda37fd41b6d18f3dfcc9 -->
<g id="node3" class="node">
<title>dir_fb93052291ccda37fd41b6d18f3dfcc9</title>
<g id="a_node3"><a xlink:href="dir_fb93052291ccda37fd41b6d18f3dfcc9.html" target="_top" xlink:title="model_io">
<polygon fill="none" stroke="red" points="62,-108 0,-108 0,-72 62,-72 62,-108"/>
<text text-anchor="middle" x="31" y="-87.5" font-family="FreeSans.ttf" font-size="10.00">model_io</text>
</a>
</g>
</g>
<!-- dir_4c35f201f486dab9f9f20c2676597da0&#45;&gt;dir_fb93052291ccda37fd41b6d18f3dfcc9 -->
<g id="edge4" class="edge">
<title>dir_4c35f201f486dab9f9f20c2676597da0&#45;&gt;dir_fb93052291ccda37fd41b6d18f3dfcc9</title>
<path fill="none" stroke="black" d="M60.01,-287.74C51.31,-277.99 41.26,-265.14 35,-252 14.14,-208.19 13.61,-192.22 19,-144 19.96,-135.43 21.76,-126.22 23.69,-117.93"/>
<polygon fill="black" stroke="black" points="27.13,-118.57 26.13,-108.02 20.34,-116.89 27.13,-118.57"/>
<g id="a_edge4&#45;headlabel"><a xlink:href="dir_000060_000040.html" target="_top" xlink:title="1">
<text text-anchor="middle" x="29.03" y="-120.24" font-family="FreeSans.ttf" font-size="10.00">1</text>
</a>
</g>
</g>
<!-- dir_5dd65160827af56e6353642206b80129 -->
<g id="node4" class="node">
<title>dir_5dd65160827af56e6353642206b80129</title>
<g id="a_node4"><a xlink:href="dir_5dd65160827af56e6353642206b80129.html" target="_top" xlink:title="model">
<polygon fill="none" stroke="red" points="117,-36 63,-36 63,0 117,0 117,-36"/>
<text text-anchor="middle" x="90" y="-15.5" font-family="FreeSans.ttf" font-size="10.00">model</text>
</a>
</g>
</g>
<!-- dir_4c35f201f486dab9f9f20c2676597da0&#45;&gt;dir_5dd65160827af56e6353642206b80129 -->
<g id="edge5" class="edge">
<title>dir_4c35f201f486dab9f9f20c2676597da0&#45;&gt;dir_5dd65160827af56e6353642206b80129</title>
<path fill="none" stroke="black" d="M104.2,-300.08C130.03,-293.8 167.44,-280.18 185,-252 228.92,-181.53 155.24,-87.25 114.38,-43.37"/>
<polygon fill="black" stroke="black" points="116.84,-40.87 107.41,-36.03 111.76,-45.69 116.84,-40.87"/>
<g id="a_edge5&#45;headlabel"><a xlink:href="dir_000060_000027.html" target="_top" xlink:title="1">
<text text-anchor="middle" x="121.37" y="-39.02" font-family="FreeSans.ttf" font-size="10.00">1</text>
</a>
</g>
</g>
<!-- dir_ca655c1e93447bcdfcc1afb2c793c8bd -->
<g id="node5" class="node">
<title>dir_ca655c1e93447bcdfcc1afb2c793c8bd</title>
<g id="a_node5"><a xlink:href="dir_ca655c1e93447bcdfcc1afb2c793c8bd.html" target="_top" xlink:title="yarp">
<polygon fill="none" stroke="red" points="176,-252 122,-252 122,-216 176,-216 176,-252"/>
<text text-anchor="middle" x="149" y="-231.5" font-family="FreeSans.ttf" font-size="10.00">yarp</text>
</a>
</g>
</g>
<!-- dir_4c35f201f486dab9f9f20c2676597da0&#45;&gt;dir_ca655c1e93447bcdfcc1afb2c793c8bd -->
<g id="edge6" class="edge">
<title>dir_4c35f201f486dab9f9f20c2676597da0&#45;&gt;dir_ca655c1e93447bcdfcc1afb2c793c8bd</title>
<path fill="none" stroke="black" d="M94.8,-287.7C103.6,-279.14 114.38,-268.66 124,-259.3"/>
<polygon fill="black" stroke="black" points="126.68,-261.58 131.41,-252.1 121.8,-256.57 126.68,-261.58"/>
<g id="a_edge6&#45;headlabel"><a xlink:href="dir_000060_000074.html" target="_top" xlink:title="1">
<text text-anchor="middle" x="126.08" y="-263.63" font-family="FreeSans.ttf" font-size="10.00">1</text>
</a>
</g>
</g>
<!-- dir_517fac0de58368127e466407b6b31ec8 -->
<g id="node6" class="node">
<title>dir_517fac0de58368127e466407b6b31ec8</title>
<g id="a_node6"><a xlink:href="dir_517fac0de58368127e466407b6b31ec8.html" target="_top" xlink:title="include">
<polygon fill="none" stroke="black" points="104,-252 50,-252 50,-216 104,-216 104,-252"/>
<text text-anchor="middle" x="77" y="-231.5" font-family="FreeSans.ttf" font-size="10.00">include</text>
</a>
</g>
</g>
<!-- dir_4c35f201f486dab9f9f20c2676597da0&#45;&gt;dir_517fac0de58368127e466407b6b31ec8 -->
<g id="edge7" class="edge">
<title>dir_4c35f201f486dab9f9f20c2676597da0&#45;&gt;dir_517fac0de58368127e466407b6b31ec8</title>
<path fill="none" stroke="black" d="M77,-287.7C77,-279.98 77,-270.71 77,-262.11"/>
<polygon fill="black" stroke="black" points="80.5,-262.1 77,-252.1 73.5,-262.1 80.5,-262.1"/>
<g id="a_edge7&#45;headlabel"><a xlink:href="dir_000060_000067.html" target="_top" xlink:title="2">
<text text-anchor="middle" x="83.34" y="-263.2" font-family="FreeSans.ttf" font-size="10.00">2</text>
</a>
</g>
</g>
<!-- dir_355314d08763ddbf0e6d36531a48f7ae&#45;&gt;dir_fb93052291ccda37fd41b6d18f3dfcc9 -->
<g id="edge1" class="edge">
<title>dir_355314d08763ddbf0e6d36531a48f7ae&#45;&gt;dir_fb93052291ccda37fd41b6d18f3dfcc9</title>
<path fill="none" stroke="black" d="M53.58,-143.7C50.21,-135.81 46.13,-126.3 42.38,-117.55"/>
<polygon fill="black" stroke="black" points="45.49,-115.92 38.33,-108.1 39.05,-118.67 45.49,-115.92"/>
<g id="a_edge1&#45;headlabel"><a xlink:href="dir_000053_000040.html" target="_top" xlink:title="1">
<text text-anchor="middle" x="49.51" y="-115.6" font-family="FreeSans.ttf" font-size="10.00">1</text>
</a>
</g>
</g>
<!-- dir_355314d08763ddbf0e6d36531a48f7ae&#45;&gt;dir_5dd65160827af56e6353642206b80129 -->
<g id="edge2" class="edge">
<title>dir_355314d08763ddbf0e6d36531a48f7ae&#45;&gt;dir_5dd65160827af56e6353642206b80129</title>
<path fill="none" stroke="black" d="M64.5,-143.87C69.46,-119.56 78.6,-74.82 84.48,-46.01"/>
<polygon fill="black" stroke="black" points="87.92,-46.69 86.49,-36.19 81.06,-45.29 87.92,-46.69"/>
<g id="a_edge2&#45;headlabel"><a xlink:href="dir_000053_000027.html" target="_top" xlink:title="11">
<text text-anchor="middle" x="89.98" y="-48.28" font-family="FreeSans.ttf" font-size="10.00">11</text>
</a>
</g>
</g>
<!-- dir_fb93052291ccda37fd41b6d18f3dfcc9&#45;&gt;dir_5dd65160827af56e6353642206b80129 -->
<g id="edge8" class="edge">
<title>dir_fb93052291ccda37fd41b6d18f3dfcc9&#45;&gt;dir_5dd65160827af56e6353642206b80129</title>
<path fill="none" stroke="black" d="M45.58,-71.7C52.66,-63.3 61.28,-53.07 69.05,-43.86"/>
<polygon fill="black" stroke="black" points="71.81,-46.01 75.58,-36.1 66.46,-41.49 71.81,-46.01"/>
<g id="a_edge8&#45;headlabel"><a xlink:href="dir_000040_000027.html" target="_top" xlink:title="25">
<text text-anchor="middle" x="71.67" y="-48.08" font-family="FreeSans.ttf" font-size="10.00">25</text>
</a>
</g>
</g>
<!-- dir_517fac0de58368127e466407b6b31ec8&#45;&gt;dir_355314d08763ddbf0e6d36531a48f7ae -->
<g id="edge9" class="edge">
<title>dir_517fac0de58368127e466407b6b31ec8&#45;&gt;dir_355314d08763ddbf0e6d36531a48f7ae</title>
<path fill="none" stroke="black" d="M73.04,-215.7C71.28,-207.98 69.16,-198.71 67.2,-190.11"/>
<polygon fill="black" stroke="black" points="70.55,-189.07 64.91,-180.1 63.73,-190.63 70.55,-189.07"/>
<g id="a_edge9&#45;headlabel"><a xlink:href="dir_000067_000053.html" target="_top" xlink:title="1">
<text text-anchor="middle" x="74.12" y="-189.44" font-family="FreeSans.ttf" font-size="10.00">1</text>
</a>
</g>
</g>
</g>
</svg>
