<?xml version="1.0" encoding="UTF-8" standalone="no"?>
<!DOCTYPE svg PUBLIC "-//W3C//DTD SVG 1.1//EN"
 "http://www.w3.org/Graphics/SVG/1.1/DTD/svg11.dtd">
<!-- Generated by graphviz version 2.43.0 (0)
 -->
<!-- Title: private Pages: 1 -->
<svg width="248pt" height="367pt"
 viewBox="0.00 0.00 248.00 367.00" xmlns="http://www.w3.org/2000/svg" xmlns:xlink="http://www.w3.org/1999/xlink">
<g id="graph0" class="graph" transform="scale(1 1) rotate(0) translate(4 363)">
<title>private</title>
<g id="clust1" class="cluster">
<title>clusterdir_2cebb095d9654587036b8dcc7ebbbc4d</title>
<g id="a_clust1"><a xlink:href="dir_2cebb095d9654587036b8dcc7ebbbc4d.html" target="_top" xlink:title="include">
<polygon fill="#ddddee" stroke="black" points="85,-280 85,-351 155,-351 155,-280 85,-280"/>
<text text-anchor="middle" x="120" y="-339" font-family="FreeSans.ttf" font-size="10.00">include</text>
</a>
</g>
</g>
<!-- dir_d5d512a5df73702cc22b268130b830ea -->
<g id="node1" class="node">
<title>dir_d5d512a5df73702cc22b268130b830ea</title>
<g id="a_node1"><a xlink:href="dir_d5d512a5df73702cc22b268130b830ea.html" target="_top" xlink:title="private">
<polygon fill="#eeeeff" stroke="black" points="147,-324 93,-324 93,-288 147,-288 147,-324"/>
<text text-anchor="middle" x="120" y="-303.5" font-family="FreeSans.ttf" font-size="10.00">private</text>
</a>
</g>
</g>
<!-- dir_7349e89ef19c117195f8e371603e1b1f -->
<g id="node2" class="node">
<title>dir_7349e89ef19c117195f8e371603e1b1f</title>
<g id="a_node2"><a xlink:href="dir_7349e89ef19c117195f8e371603e1b1f.html" target="_top" xlink:title="sensors">
<polygon fill="none" stroke="red" points="54,-180 0,-180 0,-144 54,-144 54,-180"/>
<text text-anchor="middle" x="27" y="-159.5" font-family="FreeSans.ttf" font-size="10.00">sensors</text>
</a>
</g>
</g>
<!-- dir_d5d512a5df73702cc22b268130b830ea&#45;&gt;dir_7349e89ef19c117195f8e371603e1b1f -->
<g id="edge6" class="edge">
<title>dir_d5d512a5df73702cc22b268130b830ea&#45;&gt;dir_7349e89ef19c117195f8e371603e1b1f</title>
<path fill="none" stroke="black" d="M92.8,-298.43C69.7,-291.25 37.98,-277.25 23,-252 11.95,-233.37 14.19,-208.48 18.48,-189.76"/>
<polygon fill="black" stroke="black" points="21.87,-190.64 21.01,-180.08 15.1,-188.87 21.87,-190.64"/>
<g id="a_edge6&#45;headlabel"><a xlink:href="dir_000041_000001.html" target="_top" xlink:title="2">
<text text-anchor="middle" x="23.71" y="-192.33" font-family="FreeSans.ttf" font-size="10.00">2</text>
</a>
</g>
</g>
<!-- dir_bee4db886efdb85971375e4ac361013b -->
<g id="node3" class="node">
<title>dir_bee4db886efdb85971375e4ac361013b</title>
<g id="a_node3"><a xlink:href="dir_bee4db886efdb85971375e4ac361013b.html" target="_top" xlink:title="iDynTree">
<polygon fill="none" stroke="red" points="91.5,-252 32.5,-252 32.5,-216 91.5,-216 91.5,-252"/>
<text text-anchor="middle" x="62" y="-231.5" font-family="FreeSans.ttf" font-size="10.00">iDynTree</text>
</a>
</g>
</g>
<!-- dir_d5d512a5df73702cc22b268130b830ea&#45;&gt;dir_bee4db886efdb85971375e4ac361013b -->
<g id="edge7" class="edge">
<title>dir_d5d512a5df73702cc22b268130b830ea&#45;&gt;dir_bee4db886efdb85971375e4ac361013b</title>
<path fill="none" stroke="black" d="M105.66,-287.7C98.71,-279.3 90.23,-269.07 82.6,-259.86"/>
<polygon fill="black" stroke="black" points="85.25,-257.57 76.17,-252.1 79.86,-262.04 85.25,-257.57"/>
<g id="a_edge7&#45;headlabel"><a xlink:href="dir_000041_000055.html" target="_top" xlink:title="2">
<text text-anchor="middle" x="89.73" y="-256.03" font-family="FreeSans.ttf" font-size="10.00">2</text>
</a>
</g>
</g>
<!-- dir_5dd65160827af56e6353642206b80129 -->
<g id="node4" class="node">
<title>dir_5dd65160827af56e6353642206b80129</title>
<g id="a_node4"><a xlink:href="dir_5dd65160827af56e6353642206b80129.html" target="_top" xlink:title="model">
<polygon fill="none" stroke="red" points="125,-108 71,-108 71,-72 125,-72 125,-108"/>
<text text-anchor="middle" x="98" y="-87.5" font-family="FreeSans.ttf" font-size="10.00">model</text>
</a>
</g>
</g>
<!-- dir_d5d512a5df73702cc22b268130b830ea&#45;&gt;dir_5dd65160827af56e6353642206b80129 -->
<g id="edge8" class="edge">
<title>dir_d5d512a5df73702cc22b268130b830ea&#45;&gt;dir_5dd65160827af56e6353642206b80129</title>
<path fill="none" stroke="black" d="M118.24,-287.85C114.43,-250.83 105.42,-163.18 100.82,-118.39"/>
<polygon fill="black" stroke="black" points="104.28,-117.82 99.77,-108.23 97.31,-118.54 104.28,-117.82"/>
<g id="a_edge8&#45;headlabel"><a xlink:href="dir_000041_000027.html" target="_top" xlink:title="4">
<text text-anchor="middle" x="107.47" y="-118.61" font-family="FreeSans.ttf" font-size="10.00">4</text>
</a>
</g>
</g>
<!-- dir_aebb8dcc11953d78e620bbef0b9e2183 -->
<g id="node5" class="node">
<title>dir_aebb8dcc11953d78e620bbef0b9e2183</title>
<g id="a_node5"><a xlink:href="dir_aebb8dcc11953d78e620bbef0b9e2183.html" target="_top" xlink:title="core">
<polygon fill="none" stroke="red" points="152,-36 98,-36 98,0 152,0 152,-36"/>
<text text-anchor="middle" x="125" y="-15.5" font-family="FreeSans.ttf" font-size="10.00">core</text>
</a>
</g>
</g>
<!-- dir_d5d512a5df73702cc22b268130b830ea&#45;&gt;dir_aebb8dcc11953d78e620bbef0b9e2183 -->
<g id="edge9" class="edge">
<title>dir_d5d512a5df73702cc22b268130b830ea&#45;&gt;dir_aebb8dcc11953d78e620bbef0b9e2183</title>
<path fill="none" stroke="black" d="M122.74,-287.73C128.5,-249.06 140.79,-152.56 134,-72 133.28,-63.5 131.93,-54.31 130.49,-46.01"/>
<polygon fill="black" stroke="black" points="133.91,-45.29 128.65,-36.09 127.03,-46.56 133.91,-45.29"/>
<g id="a_edge9&#45;headlabel"><a xlink:href="dir_000041_000011.html" target="_top" xlink:title="8">
<text text-anchor="middle" x="137.36" y="-45.81" font-family="FreeSans.ttf" font-size="10.00">8</text>
</a>
</g>
</g>
<!-- dir_5f57de5bbe3f948f16e791110ccbe302 -->
<g id="node6" class="node">
<title>dir_5f57de5bbe3f948f16e791110ccbe302</title>
<g id="a_node6"><a xlink:href="dir_5f57de5bbe3f948f16e791110ccbe302.html" target="_top" xlink:title="xml">
<polygon fill="none" stroke="red" points="240,-252 186,-252 186,-216 240,-216 240,-252"/>
<text text-anchor="middle" x="213" y="-231.5" font-family="FreeSans.ttf" font-size="10.00">xml</text>
</a>
</g>
</g>
<!-- dir_d5d512a5df73702cc22b268130b830ea&#45;&gt;dir_5f57de5bbe3f948f16e791110ccbe302 -->
<g id="edge10" class="edge">
<title>dir_d5d512a5df73702cc22b268130b830ea&#45;&gt;dir_5f57de5bbe3f948f16e791110ccbe302</title>
<path fill="none" stroke="black" d="M142.99,-287.7C154.81,-278.8 169.39,-267.82 182.18,-258.2"/>
<polygon fill="black" stroke="black" points="184.39,-260.91 190.28,-252.1 180.18,-255.32 184.39,-260.91"/>
<g id="a_edge10&#45;headlabel"><a xlink:href="dir_000041_000060.html" target="_top" xlink:title="11">
<text text-anchor="middle" x="183.23" y="-262.84" font-family="FreeSans.ttf" font-size="10.00">11</text>
</a>
</g>
</g>
<!-- dir_7349e89ef19c117195f8e371603e1b1f&#45;&gt;dir_5dd65160827af56e6353642206b80129 -->
<g id="edge1" class="edge">
<title>dir_7349e89ef19c117195f8e371603e1b1f&#45;&gt;dir_5dd65160827af56e6353642206b80129</title>
<path fill="none" stroke="black" d="M44.55,-143.7C53.23,-135.14 63.86,-124.66 73.35,-115.3"/>
<polygon fill="black" stroke="black" points="75.99,-117.62 80.65,-108.1 71.07,-112.63 75.99,-117.62"/>
<g id="a_edge1&#45;headlabel"><a xlink:href="dir_000001_000027.html" target="_top" xlink:title="13">
<text text-anchor="middle" x="75.42" y="-119.66" font-family="FreeSans.ttf" font-size="10.00">13</text>
</a>
</g>
</g>
<!-- dir_7349e89ef19c117195f8e371603e1b1f&#45;&gt;dir_aebb8dcc11953d78e620bbef0b9e2183 -->
<g id="edge2" class="edge">
<title>dir_7349e89ef19c117195f8e371603e1b1f&#45;&gt;dir_aebb8dcc11953d78e620bbef0b9e2183</title>
<path fill="none" stroke="black" d="M31.06,-143.69C36.1,-124.79 46.01,-94.25 62,-72 69.9,-61.01 80.57,-50.9 90.89,-42.52"/>
<polygon fill="black" stroke="black" points="93.28,-45.09 99.02,-36.19 88.98,-39.57 93.28,-45.09"/>
<g id="a_edge2&#45;headlabel"><a xlink:href="dir_000001_000011.html" target="_top" xlink:title="29">
<text text-anchor="middle" x="92.19" y="-47.04" font-family="FreeSans.ttf" font-size="10.00">29</text>
</a>
</g>
</g>
<!-- dir_bee4db886efdb85971375e4ac361013b&#45;&gt;dir_7349e89ef19c117195f8e371603e1b1f -->
<g id="edge3" class="edge">
<title>dir_bee4db886efdb85971375e4ac361013b&#45;&gt;dir_7349e89ef19c117195f8e371603e1b1f</title>
<path fill="none" stroke="black" d="M53.35,-215.7C49.36,-207.73 44.55,-198.1 40.13,-189.26"/>
<polygon fill="black" stroke="black" points="43.15,-187.48 35.55,-180.1 36.89,-190.61 43.15,-187.48"/>
<g id="a_edge3&#45;headlabel"><a xlink:href="dir_000055_000001.html" target="_top" xlink:title="3">
<text text-anchor="middle" x="47.3" y="-186.93" font-family="FreeSans.ttf" font-size="10.00">3</text>
</a>
</g>
</g>
<!-- dir_bee4db886efdb85971375e4ac361013b&#45;&gt;dir_5dd65160827af56e6353642206b80129 -->
<g id="edge4" class="edge">
<title>dir_bee4db886efdb85971375e4ac361013b&#45;&gt;dir_5dd65160827af56e6353642206b80129</title>
<path fill="none" stroke="black" d="M66.34,-215.87C72.5,-191.56 83.85,-146.82 91.15,-118.01"/>
<polygon fill="black" stroke="black" points="94.58,-118.74 93.64,-108.19 87.79,-117.02 94.58,-118.74"/>
<g id="a_edge4&#45;headlabel"><a xlink:href="dir_000055_000027.html" target="_top" xlink:title="3">
<text text-anchor="middle" x="96.45" y="-120.42" font-family="FreeSans.ttf" font-size="10.00">3</text>
</a>
</g>
</g>
<!-- dir_5dd65160827af56e6353642206b80129&#45;&gt;dir_aebb8dcc11953d78e620bbef0b9e2183 -->
<g id="edge5" class="edge">
<title>dir_5dd65160827af56e6353642206b80129&#45;&gt;dir_aebb8dcc11953d78e620bbef0b9e2183</title>
<path fill="none" stroke="black" d="M104.67,-71.7C107.71,-63.81 111.38,-54.3 114.76,-45.55"/>
<polygon fill="black" stroke="black" points="118.07,-46.69 118.4,-36.1 111.54,-44.17 118.07,-46.69"/>
<g id="a_edge5&#45;headlabel"><a xlink:href="dir_000027_000011.html" target="_top" xlink:title="59">
<text text-anchor="middle" x="119.42" y="-48.57" font-family="FreeSans.ttf" font-size="10.00">59</text>
</a>
</g>
</g>
<!-- dir_5f57de5bbe3f948f16e791110ccbe302&#45;&gt;dir_aebb8dcc11953d78e620bbef0b9e2183 -->
<g id="edge11" class="edge">
<title>dir_5f57de5bbe3f948f16e791110ccbe302&#45;&gt;dir_aebb8dcc11953d78e620bbef0b9e2183</title>
<path fill="none" stroke="black" d="M211.29,-215.59C207.71,-184.97 197.53,-120.17 172,-72 166.62,-61.85 158.91,-52.05 151.28,-43.7"/>
<polygon fill="black" stroke="black" points="153.81,-41.28 144.38,-36.47 148.75,-46.11 153.81,-41.28"/>
<g id="a_edge11&#45;headlabel"><a xlink:href="dir_000060_000011.html" target="_top" xlink:title="1">
<text text-anchor="middle" x="158.35" y="-39.42" font-family="FreeSans.ttf" font-size="10.00">1</text>
</a>
</g>
</g>
</g>
</svg>
