<?xml version="1.0" encoding="UTF-8" standalone="no"?>
<!DOCTYPE svg PUBLIC "-//W3C//DTD SVG 1.1//EN"
 "http://www.w3.org/Graphics/SVG/1.1/DTD/svg11.dtd">
<!-- Generated by graphviz version 2.43.0 (0)
 -->
<!-- Title: src Pages: 1 -->
<svg width="137pt" height="295pt"
 viewBox="0.00 0.00 137.00 295.00" xmlns="http://www.w3.org/2000/svg" xmlns:xlink="http://www.w3.org/1999/xlink">
<g id="graph0" class="graph" transform="scale(1 1) rotate(0) translate(4 291)">
<title>src</title>
<g id="clust1" class="cluster">
<title>clusterdir_316a0dddb2dbe91a12d5288b17ad5f68</title>
<g id="a_clust1"><a xlink:href="dir_316a0dddb2dbe91a12d5288b17ad5f68.html" target="_top" xlink:title="solid&#45;shapes">
<polygon fill="#ddddee" stroke="black" points="43,-208 43,-279 121,-279 121,-208 43,-208"/>
<text text-anchor="middle" x="82" y="-267" font-family="FreeSans.ttf" font-size="10.00">solid&#45;shapes</text>
</a>
</g>
</g>
<!-- dir_599f6a56bfc752d2c332f7ca56b1dfaa -->
<g id="node1" class="node">
<title>dir_599f6a56bfc752d2c332f7ca56b1dfaa</title>
<g id="a_node1"><a xlink:href="dir_599f6a56bfc752d2c332f7ca56b1dfaa.html" target="_top" xlink:title="src">
<polygon fill="#eeeeff" stroke="black" points="109,-252 55,-252 55,-216 109,-216 109,-252"/>
<text text-anchor="middle" x="82" y="-231.5" font-family="FreeSans.ttf" font-size="10.00">src</text>
</a>
</g>
</g>
<!-- dir_015bc75052cfc2d812e3326d1dee41f1 -->
<g id="node2" class="node">
<title>dir_015bc75052cfc2d812e3326d1dee41f1</title>
<g id="a_node2"><a xlink:href="dir_015bc75052cfc2d812e3326d1dee41f1.html" target="_top" xlink:title="include">
<polygon fill="none" stroke="red" points="54,-180 0,-180 0,-144 54,-144 54,-180"/>
<text text-anchor="middle" x="27" y="-159.5" font-family="FreeSans.ttf" font-size="10.00">include</text>
</a>
</g>
</g>
<!-- dir_599f6a56bfc752d2c332f7ca56b1dfaa&#45;&gt;dir_015bc75052cfc2d812e3326d1dee41f1 -->
<g id="edge1" class="edge">
<title>dir_599f6a56bfc752d2c332f7ca56b1dfaa&#45;&gt;dir_015bc75052cfc2d812e3326d1dee41f1</title>
<path fill="none" stroke="black" d="M68.4,-215.7C61.88,-207.39 53.93,-197.28 46.75,-188.14"/>
<polygon fill="black" stroke="black" points="49.37,-185.81 40.44,-180.1 43.87,-190.13 49.37,-185.81"/>
<g id="a_edge1&#45;headlabel"><a xlink:href="dir_000049_000050.html" target="_top" xlink:title="1">
<text text-anchor="middle" x="53.82" y="-184.38" font-family="FreeSans.ttf" font-size="10.00">1</text>
</a>
</g>
</g>
<!-- dir_5dd65160827af56e6353642206b80129 -->
<g id="node3" class="node">
<title>dir_5dd65160827af56e6353642206b80129</title>
<g id="a_node3"><a xlink:href="dir_5dd65160827af56e6353642206b80129.html" target="_top" xlink:title="model">
<polygon fill="none" stroke="red" points="92,-108 38,-108 38,-72 92,-72 92,-108"/>
<text text-anchor="middle" x="65" y="-87.5" font-family="FreeSans.ttf" font-size="10.00">model</text>
</a>
</g>
</g>
<!-- dir_599f6a56bfc752d2c332f7ca56b1dfaa&#45;&gt;dir_5dd65160827af56e6353642206b80129 -->
<g id="edge2" class="edge">
<title>dir_599f6a56bfc752d2c332f7ca56b1dfaa&#45;&gt;dir_5dd65160827af56e6353642206b80129</title>
<path fill="none" stroke="black" d="M79.95,-215.87C77.05,-191.67 71.73,-147.21 68.28,-118.39"/>
<polygon fill="black" stroke="black" points="71.72,-117.7 67.06,-108.19 64.77,-118.53 71.72,-117.7"/>
<g id="a_edge2&#45;headlabel"><a xlink:href="dir_000049_000027.html" target="_top" xlink:title="1">
<text text-anchor="middle" x="74.97" y="-118.43" font-family="FreeSans.ttf" font-size="10.00">1</text>
</a>
</g>
</g>
<!-- dir_aebb8dcc11953d78e620bbef0b9e2183 -->
<g id="node4" class="node">
<title>dir_aebb8dcc11953d78e620bbef0b9e2183</title>
<g id="a_node4"><a xlink:href="dir_aebb8dcc11953d78e620bbef0b9e2183.html" target="_top" xlink:title="core">
<polygon fill="none" stroke="red" points="119,-36 65,-36 65,0 119,0 119,-36"/>
<text text-anchor="middle" x="92" y="-15.5" font-family="FreeSans.ttf" font-size="10.00">core</text>
</a>
</g>
</g>
<!-- dir_599f6a56bfc752d2c332f7ca56b1dfaa&#45;&gt;dir_aebb8dcc11953d78e620bbef0b9e2183 -->
<g id="edge3" class="edge">
<title>dir_599f6a56bfc752d2c332f7ca56b1dfaa&#45;&gt;dir_aebb8dcc11953d78e620bbef0b9e2183</title>
<path fill="none" stroke="black" d="M86.36,-215.65C93.25,-186.18 105.42,-124.45 101,-72 100.28,-63.5 98.93,-54.31 97.49,-46.01"/>
<polygon fill="black" stroke="black" points="100.91,-45.29 95.65,-36.09 94.03,-46.56 100.91,-45.29"/>
<g id="a_edge3&#45;headlabel"><a xlink:href="dir_000049_000011.html" target="_top" xlink:title="5">
<text text-anchor="middle" x="104.36" y="-45.81" font-family="FreeSans.ttf" font-size="10.00">5</text>
</a>
</g>
</g>
<!-- dir_015bc75052cfc2d812e3326d1dee41f1&#45;&gt;dir_5dd65160827af56e6353642206b80129 -->
<g id="edge4" class="edge">
<title>dir_015bc75052cfc2d812e3326d1dee41f1&#45;&gt;dir_5dd65160827af56e6353642206b80129</title>
<path fill="none" stroke="black" d="M36.39,-143.7C40.76,-135.64 46.06,-125.89 50.9,-116.98"/>
<polygon fill="black" stroke="black" points="54.02,-118.56 55.71,-108.1 47.87,-115.22 54.02,-118.56"/>
<g id="a_edge4&#45;headlabel"><a xlink:href="dir_000050_000027.html" target="_top" xlink:title="2">
<text text-anchor="middle" x="54.8" y="-120.58" font-family="FreeSans.ttf" font-size="10.00">2</text>
</a>
</g>
</g>
<!-- dir_5dd65160827af56e6353642206b80129&#45;&gt;dir_aebb8dcc11953d78e620bbef0b9e2183 -->
<g id="edge5" class="edge">
<title>dir_5dd65160827af56e6353642206b80129&#45;&gt;dir_aebb8dcc11953d78e620bbef0b9e2183</title>
<path fill="none" stroke="black" d="M71.67,-71.7C74.71,-63.81 78.38,-54.3 81.76,-45.55"/>
<polygon fill="black" stroke="black" points="85.07,-46.69 85.4,-36.1 78.54,-44.17 85.07,-46.69"/>
<g id="a_edge5&#45;headlabel"><a xlink:href="dir_000027_000011.html" target="_top" xlink:title="59">
<text text-anchor="middle" x="86.42" y="-48.57" font-family="FreeSans.ttf" font-size="10.00">59</text>
</a>
</g>
</g>
</g>
</svg>
