<?xml version="1.0" encoding="UTF-8" standalone="no"?>
<!DOCTYPE svg PUBLIC "-//W3C//DTD SVG 1.1//EN"
 "http://www.w3.org/Graphics/SVG/1.1/DTD/svg11.dtd">
<!-- Generated by graphviz version 2.43.0 (0)
 -->
<!-- Title: src Pages: 1 -->
<svg width="546pt" height="508pt"
 viewBox="0.00 0.00 546.00 508.00" xmlns="http://www.w3.org/2000/svg" xmlns:xlink="http://www.w3.org/1999/xlink">
<g id="graph0" class="graph" transform="scale(1 1) rotate(0) translate(4 504)">
<title>src</title>
<g id="clust1" class="cluster">
<title>clusterdir_68267d1309a1af8e8297ef4c3efbcdba</title>
<g id="a_clust1"><a xlink:href="dir_68267d1309a1af8e8297ef4c3efbcdba.html" target="_top">
<polygon fill="#eeeeff" stroke="black" points="8,-8 8,-492 530,-492 530,-8 8,-8"/>
</a>
</g>
</g>
<!-- dir_68267d1309a1af8e8297ef4c3efbcdba -->
<g id="node1" class="node">
<title>dir_68267d1309a1af8e8297ef4c3efbcdba</title>
<text text-anchor="middle" x="428" y="-463.5" font-family="FreeSans.ttf" font-size="10.00">src</text>
</g>
<!-- dir_aebb8dcc11953d78e620bbef0b9e2183 -->
<g id="node2" class="node">
<title>dir_aebb8dcc11953d78e620bbef0b9e2183</title>
<g id="a_node2"><a xlink:href="dir_aebb8dcc11953d78e620bbef0b9e2183.html" target="_top" xlink:title="core">
<polygon fill="white" stroke="red" points="226,-52 172,-52 172,-16 226,-16 226,-52"/>
<text text-anchor="middle" x="199" y="-31.5" font-family="FreeSans.ttf" font-size="10.00">core</text>
</a>
</g>
</g>
<!-- dir_710615f1fcb70e449001c5bcbae9c23a -->
<g id="node3" class="node">
<title>dir_710615f1fcb70e449001c5bcbae9c23a</title>
<g id="a_node3"><a xlink:href="dir_710615f1fcb70e449001c5bcbae9c23a.html" target="_top" xlink:title="estimation">
<polygon fill="white" stroke="red" points="249.5,-340 180.5,-340 180.5,-304 249.5,-304 249.5,-340"/>
<text text-anchor="middle" x="215" y="-319.5" font-family="FreeSans.ttf" font-size="10.00">estimation</text>
</a>
</g>
</g>
<!-- dir_710615f1fcb70e449001c5bcbae9c23a&#45;&gt;dir_aebb8dcc11953d78e620bbef0b9e2183 -->
<g id="edge18" class="edge">
<title>dir_710615f1fcb70e449001c5bcbae9c23a&#45;&gt;dir_aebb8dcc11953d78e620bbef0b9e2183</title>
<path fill="none" stroke="black" d="M213.86,-303.88C211.62,-269.69 206.52,-190.55 203,-124 201.9,-103.28 200.86,-79.83 200.11,-62.21"/>
<polygon fill="black" stroke="black" points="203.6,-61.91 199.69,-52.07 196.61,-62.2 203.6,-61.91"/>
<g id="a_edge18&#45;headlabel"><a xlink:href="dir_000016_000011.html" target="_top" xlink:title="47">
<text text-anchor="middle" x="206.59" y="-62.88" font-family="FreeSans.ttf" font-size="10.00">47</text>
</a>
</g>
</g>
<!-- dir_5dd65160827af56e6353642206b80129 -->
<g id="node7" class="node">
<title>dir_5dd65160827af56e6353642206b80129</title>
<g id="a_node7"><a xlink:href="dir_5dd65160827af56e6353642206b80129.html" target="_top" xlink:title="model">
<polygon fill="white" stroke="red" points="266,-124 212,-124 212,-88 266,-88 266,-124"/>
<text text-anchor="middle" x="239" y="-103.5" font-family="FreeSans.ttf" font-size="10.00">model</text>
</a>
</g>
</g>
<!-- dir_710615f1fcb70e449001c5bcbae9c23a&#45;&gt;dir_5dd65160827af56e6353642206b80129 -->
<g id="edge17" class="edge">
<title>dir_710615f1fcb70e449001c5bcbae9c23a&#45;&gt;dir_5dd65160827af56e6353642206b80129</title>
<path fill="none" stroke="black" d="M216.92,-303.85C221.07,-266.83 230.9,-179.18 235.93,-134.39"/>
<polygon fill="black" stroke="black" points="239.43,-134.56 237.07,-124.23 232.47,-133.78 239.43,-134.56"/>
<g id="a_edge17&#45;headlabel"><a xlink:href="dir_000016_000027.html" target="_top" xlink:title="46">
<text text-anchor="middle" x="241.85" y="-135.95" font-family="FreeSans.ttf" font-size="10.00">46</text>
</a>
</g>
</g>
<!-- dir_fb93052291ccda37fd41b6d18f3dfcc9 -->
<g id="node8" class="node">
<title>dir_fb93052291ccda37fd41b6d18f3dfcc9</title>
<g id="a_node8"><a xlink:href="dir_fb93052291ccda37fd41b6d18f3dfcc9.html" target="_top" xlink:title="model_io">
<polygon fill="white" stroke="red" points="150,-268 88,-268 88,-232 150,-232 150,-268"/>
<text text-anchor="middle" x="119" y="-247.5" font-family="FreeSans.ttf" font-size="10.00">model_io</text>
</a>
</g>
</g>
<!-- dir_710615f1fcb70e449001c5bcbae9c23a&#45;&gt;dir_fb93052291ccda37fd41b6d18f3dfcc9 -->
<g id="edge16" class="edge">
<title>dir_710615f1fcb70e449001c5bcbae9c23a&#45;&gt;dir_fb93052291ccda37fd41b6d18f3dfcc9</title>
<path fill="none" stroke="black" d="M191.27,-303.7C179.06,-294.8 164.01,-283.82 150.82,-274.2"/>
<polygon fill="black" stroke="black" points="152.6,-271.17 142.46,-268.1 148.48,-276.82 152.6,-271.17"/>
<g id="a_edge16&#45;headlabel"><a xlink:href="dir_000016_000040.html" target="_top" xlink:title="2">
<text text-anchor="middle" x="157.18" y="-268.49" font-family="FreeSans.ttf" font-size="10.00">2</text>
</a>
</g>
</g>
<!-- dir_7349e89ef19c117195f8e371603e1b1f -->
<g id="node10" class="node">
<title>dir_7349e89ef19c117195f8e371603e1b1f</title>
<g id="a_node10"><a xlink:href="dir_7349e89ef19c117195f8e371603e1b1f.html" target="_top" xlink:title="sensors">
<polygon fill="white" stroke="red" points="150,-196 96,-196 96,-160 150,-160 150,-196"/>
<text text-anchor="middle" x="123" y="-175.5" font-family="FreeSans.ttf" font-size="10.00">sensors</text>
</a>
</g>
</g>
<!-- dir_710615f1fcb70e449001c5bcbae9c23a&#45;&gt;dir_7349e89ef19c117195f8e371603e1b1f -->
<g id="edge15" class="edge">
<title>dir_710615f1fcb70e449001c5bcbae9c23a&#45;&gt;dir_7349e89ef19c117195f8e371603e1b1f</title>
<path fill="none" stroke="black" d="M204.44,-303.82C193.31,-285.82 175.19,-256.75 159,-232 153.06,-222.92 146.43,-213.07 140.49,-204.35"/>
<polygon fill="black" stroke="black" points="143.36,-202.36 134.83,-196.08 137.59,-206.31 143.36,-202.36"/>
<g id="a_edge15&#45;headlabel"><a xlink:href="dir_000016_000001.html" target="_top" xlink:title="10">
<text text-anchor="middle" x="147.74" y="-201.22" font-family="FreeSans.ttf" font-size="10.00">10</text>
</a>
</g>
</g>
<!-- dir_355314d08763ddbf0e6d36531a48f7ae -->
<g id="node4" class="node">
<title>dir_355314d08763ddbf0e6d36531a48f7ae</title>
<g id="a_node4"><a xlink:href="dir_355314d08763ddbf0e6d36531a48f7ae.html" target="_top" xlink:title="high&#45;level">
<polygon fill="white" stroke="red" points="141.5,-340 76.5,-340 76.5,-304 141.5,-304 141.5,-340"/>
<text text-anchor="middle" x="109" y="-319.5" font-family="FreeSans.ttf" font-size="10.00">high&#45;level</text>
</a>
</g>
</g>
<!-- dir_355314d08763ddbf0e6d36531a48f7ae&#45;&gt;dir_aebb8dcc11953d78e620bbef0b9e2183 -->
<g id="edge11" class="edge">
<title>dir_355314d08763ddbf0e6d36531a48f7ae&#45;&gt;dir_aebb8dcc11953d78e620bbef0b9e2183</title>
<path fill="none" stroke="black" d="M96.27,-303.85C89.71,-293.92 82.39,-280.88 79,-268 58.47,-190.06 49.96,-150.37 101,-88 116.86,-68.62 141.75,-55.28 162.48,-46.84"/>
<polygon fill="black" stroke="black" points="163.88,-50.04 171.96,-43.19 161.37,-43.51 163.88,-50.04"/>
<g id="a_edge11&#45;headlabel"><a xlink:href="dir_000053_000011.html" target="_top" xlink:title="16">
<text text-anchor="middle" x="161.55" y="-51.49" font-family="FreeSans.ttf" font-size="10.00">16</text>
</a>
</g>
</g>
<!-- dir_355314d08763ddbf0e6d36531a48f7ae&#45;&gt;dir_5dd65160827af56e6353642206b80129 -->
<g id="edge10" class="edge">
<title>dir_355314d08763ddbf0e6d36531a48f7ae&#45;&gt;dir_5dd65160827af56e6353642206b80129</title>
<path fill="none" stroke="black" d="M127.54,-303.99C137.63,-294.12 149.89,-281.08 159,-268 189.57,-224.14 215.04,-166.9 228.56,-133.82"/>
<polygon fill="black" stroke="black" points="231.87,-134.95 232.36,-124.37 225.38,-132.34 231.87,-134.95"/>
<g id="a_edge10&#45;headlabel"><a xlink:href="dir_000053_000027.html" target="_top" xlink:title="11">
<text text-anchor="middle" x="233.17" y="-136.85" font-family="FreeSans.ttf" font-size="10.00">11</text>
</a>
</g>
</g>
<!-- dir_355314d08763ddbf0e6d36531a48f7ae&#45;&gt;dir_fb93052291ccda37fd41b6d18f3dfcc9 -->
<g id="edge9" class="edge">
<title>dir_355314d08763ddbf0e6d36531a48f7ae&#45;&gt;dir_fb93052291ccda37fd41b6d18f3dfcc9</title>
<path fill="none" stroke="black" d="M111.47,-303.7C112.57,-295.98 113.9,-286.71 115.13,-278.11"/>
<polygon fill="black" stroke="black" points="118.61,-278.5 116.56,-268.1 111.68,-277.51 118.61,-278.5"/>
<g id="a_edge9&#45;headlabel"><a xlink:href="dir_000053_000040.html" target="_top" xlink:title="1">
<text text-anchor="middle" x="120.91" y="-279.96" font-family="FreeSans.ttf" font-size="10.00">1</text>
</a>
</g>
</g>
<!-- dir_2a3c79a8659119928eb3cfb9c5637ece -->
<g id="node5" class="node">
<title>dir_2a3c79a8659119928eb3cfb9c5637ece</title>
<g id="a_node5"><a xlink:href="dir_2a3c79a8659119928eb3cfb9c5637ece.html" target="_top" xlink:title="icub">
<polygon fill="white" stroke="red" points="362,-412 308,-412 308,-376 362,-376 362,-412"/>
<text text-anchor="middle" x="335" y="-391.5" font-family="FreeSans.ttf" font-size="10.00">icub</text>
</a>
</g>
</g>
<!-- dir_2a3c79a8659119928eb3cfb9c5637ece&#45;&gt;dir_aebb8dcc11953d78e620bbef0b9e2183 -->
<g id="edge6" class="edge">
<title>dir_2a3c79a8659119928eb3cfb9c5637ece&#45;&gt;dir_aebb8dcc11953d78e620bbef0b9e2183</title>
<path fill="none" stroke="black" d="M347.42,-375.7C374.46,-335.75 433.28,-234.73 395,-160 362.79,-97.12 282.99,-61.79 235.74,-45.73"/>
<polygon fill="black" stroke="black" points="236.77,-42.39 226.18,-42.59 234.59,-49.04 236.77,-42.39"/>
<g id="a_edge6&#45;headlabel"><a xlink:href="dir_000045_000011.html" target="_top" xlink:title="2">
<text text-anchor="middle" x="241.07" y="-38.31" font-family="FreeSans.ttf" font-size="10.00">2</text>
</a>
</g>
</g>
<!-- dir_2a3c79a8659119928eb3cfb9c5637ece&#45;&gt;dir_710615f1fcb70e449001c5bcbae9c23a -->
<g id="edge3" class="edge">
<title>dir_2a3c79a8659119928eb3cfb9c5637ece&#45;&gt;dir_710615f1fcb70e449001c5bcbae9c23a</title>
<path fill="none" stroke="black" d="M307.77,-377.12C291.64,-367.7 270.94,-355.63 253.19,-345.28"/>
<polygon fill="black" stroke="black" points="254.62,-342.06 244.22,-340.04 251.09,-348.11 254.62,-342.06"/>
<g id="a_edge3&#45;headlabel"><a xlink:href="dir_000045_000016.html" target="_top" xlink:title="1">
<text text-anchor="middle" x="259.16" y="-338.92" font-family="FreeSans.ttf" font-size="10.00">1</text>
</a>
</g>
</g>
<!-- dir_2a3c79a8659119928eb3cfb9c5637ece&#45;&gt;dir_5dd65160827af56e6353642206b80129 -->
<g id="edge4" class="edge">
<title>dir_2a3c79a8659119928eb3cfb9c5637ece&#45;&gt;dir_5dd65160827af56e6353642206b80129</title>
<path fill="none" stroke="black" d="M332.51,-375.98C326.33,-336.62 308.26,-236.75 274,-160 269.8,-150.58 263.99,-140.97 258.32,-132.57"/>
<polygon fill="black" stroke="black" points="261.13,-130.49 252.53,-124.31 255.4,-134.5 261.13,-130.49"/>
<g id="a_edge4&#45;headlabel"><a xlink:href="dir_000045_000027.html" target="_top" xlink:title="5">
<text text-anchor="middle" x="265.52" y="-129.3" font-family="FreeSans.ttf" font-size="10.00">5</text>
</a>
</g>
</g>
<!-- dir_ca655c1e93447bcdfcc1afb2c793c8bd -->
<g id="node14" class="node">
<title>dir_ca655c1e93447bcdfcc1afb2c793c8bd</title>
<g id="a_node14"><a xlink:href="dir_ca655c1e93447bcdfcc1afb2c793c8bd.html" target="_top" xlink:title="yarp">
<polygon fill="white" stroke="red" points="498,-340 444,-340 444,-304 498,-304 498,-340"/>
<text text-anchor="middle" x="471" y="-319.5" font-family="FreeSans.ttf" font-size="10.00">yarp</text>
</a>
</g>
</g>
<!-- dir_2a3c79a8659119928eb3cfb9c5637ece&#45;&gt;dir_ca655c1e93447bcdfcc1afb2c793c8bd -->
<g id="edge5" class="edge">
<title>dir_2a3c79a8659119928eb3cfb9c5637ece&#45;&gt;dir_ca655c1e93447bcdfcc1afb2c793c8bd</title>
<path fill="none" stroke="black" d="M362.19,-379C383.04,-368.27 412.01,-353.36 434.81,-341.62"/>
<polygon fill="black" stroke="black" points="436.56,-344.66 443.85,-336.97 433.36,-338.44 436.56,-344.66"/>
<g id="a_edge5&#45;headlabel"><a xlink:href="dir_000045_000074.html" target="_top" xlink:title="2">
<text text-anchor="middle" x="434.67" y="-346.33" font-family="FreeSans.ttf" font-size="10.00">2</text>
</a>
</g>
</g>
<!-- dir_b7c18fbf081229a9716e24d71701f6e8 -->
<g id="node6" class="node">
<title>dir_b7c18fbf081229a9716e24d71701f6e8</title>
<g id="a_node6"><a xlink:href="dir_b7c18fbf081229a9716e24d71701f6e8.html" target="_top" xlink:title="inverse&#45;kinematics">
<polygon fill="white" stroke="red" points="238,-412 128,-412 128,-376 238,-376 238,-412"/>
<text text-anchor="middle" x="183" y="-391.5" font-family="FreeSans.ttf" font-size="10.00">inverse&#45;kinematics</text>
</a>
</g>
</g>
<!-- dir_b7c18fbf081229a9716e24d71701f6e8&#45;&gt;dir_aebb8dcc11953d78e620bbef0b9e2183 -->
<g id="edge35" class="edge">
<title>dir_b7c18fbf081229a9716e24d71701f6e8&#45;&gt;dir_aebb8dcc11953d78e620bbef0b9e2183</title>
<path fill="none" stroke="black" d="M127.75,-380.69C105.53,-372.83 81.92,-360.17 68,-340 22.49,-274.06 49.79,-239.7 58,-160 61.35,-127.49 52.22,-113.23 73,-88 95.17,-61.08 133.41,-47.6 161.96,-41"/>
<polygon fill="black" stroke="black" points="162.94,-44.37 171.99,-38.87 161.48,-37.53 162.94,-44.37"/>
<g id="a_edge35&#45;headlabel"><a xlink:href="dir_000021_000011.html" target="_top" xlink:title="30">
<text text-anchor="middle" x="160.01" y="-45.4" font-family="FreeSans.ttf" font-size="10.00">30</text>
</a>
</g>
</g>
<!-- dir_b7c18fbf081229a9716e24d71701f6e8&#45;&gt;dir_355314d08763ddbf0e6d36531a48f7ae -->
<g id="edge32" class="edge">
<title>dir_b7c18fbf081229a9716e24d71701f6e8&#45;&gt;dir_355314d08763ddbf0e6d36531a48f7ae</title>
<path fill="none" stroke="black" d="M164.71,-375.7C155.57,-367.05 144.36,-356.45 134.4,-347.03"/>
<polygon fill="black" stroke="black" points="136.75,-344.43 127.08,-340.1 131.94,-349.52 136.75,-344.43"/>
<g id="a_edge32&#45;headlabel"><a xlink:href="dir_000021_000053.html" target="_top" xlink:title="1">
<text text-anchor="middle" x="141.31" y="-342.34" font-family="FreeSans.ttf" font-size="10.00">1</text>
</a>
</g>
</g>
<!-- dir_b7c18fbf081229a9716e24d71701f6e8&#45;&gt;dir_5dd65160827af56e6353642206b80129 -->
<g id="edge34" class="edge">
<title>dir_b7c18fbf081229a9716e24d71701f6e8&#45;&gt;dir_5dd65160827af56e6353642206b80129</title>
<path fill="none" stroke="black" d="M221.78,-375.78C236.18,-367.24 250.96,-355.4 259,-340 277.36,-304.82 256.02,-187.52 244.9,-134.02"/>
<polygon fill="black" stroke="black" points="248.32,-133.27 242.83,-124.21 241.48,-134.72 248.32,-133.27"/>
<g id="a_edge34&#45;headlabel"><a xlink:href="dir_000021_000027.html" target="_top" xlink:title="1">
<text text-anchor="middle" x="251.85" y="-133.7" font-family="FreeSans.ttf" font-size="10.00">1</text>
</a>
</g>
</g>
<!-- dir_b7c18fbf081229a9716e24d71701f6e8&#45;&gt;dir_fb93052291ccda37fd41b6d18f3dfcc9 -->
<g id="edge33" class="edge">
<title>dir_b7c18fbf081229a9716e24d71701f6e8&#45;&gt;dir_fb93052291ccda37fd41b6d18f3dfcc9</title>
<path fill="none" stroke="black" d="M177.95,-375.87C172.33,-357.64 162.5,-328.17 151,-304 146.66,-294.88 141.19,-285.31 136.01,-276.85"/>
<polygon fill="black" stroke="black" points="138.85,-274.79 130.57,-268.18 132.92,-278.51 138.85,-274.79"/>
<g id="a_edge33&#45;headlabel"><a xlink:href="dir_000021_000040.html" target="_top" xlink:title="1">
<text text-anchor="middle" x="143.16" y="-273.82" font-family="FreeSans.ttf" font-size="10.00">1</text>
</a>
</g>
</g>
<!-- dir_5dd65160827af56e6353642206b80129&#45;&gt;dir_aebb8dcc11953d78e620bbef0b9e2183 -->
<g id="edge21" class="edge">
<title>dir_5dd65160827af56e6353642206b80129&#45;&gt;dir_aebb8dcc11953d78e620bbef0b9e2183</title>
<path fill="none" stroke="black" d="M229.11,-87.7C224.51,-79.64 218.94,-69.89 213.85,-60.98"/>
<polygon fill="black" stroke="black" points="216.77,-59.05 208.77,-52.1 210.7,-62.52 216.77,-59.05"/>
<g id="a_edge21&#45;headlabel"><a xlink:href="dir_000027_000011.html" target="_top" xlink:title="59">
<text text-anchor="middle" x="221.02" y="-58.26" font-family="FreeSans.ttf" font-size="10.00">59</text>
</a>
</g>
</g>
<!-- dir_fb93052291ccda37fd41b6d18f3dfcc9&#45;&gt;dir_aebb8dcc11953d78e620bbef0b9e2183 -->
<g id="edge14" class="edge">
<title>dir_fb93052291ccda37fd41b6d18f3dfcc9&#45;&gt;dir_aebb8dcc11953d78e620bbef0b9e2183</title>
<path fill="none" stroke="black" d="M105.44,-231.97C98.44,-222.09 90.63,-209.05 87,-196 82.71,-180.59 81.87,-175.16 87,-160 101.36,-117.54 138.9,-80.98 166.58,-58.55"/>
<polygon fill="black" stroke="black" points="168.77,-61.28 174.45,-52.34 164.44,-55.79 168.77,-61.28"/>
<g id="a_edge14&#45;headlabel"><a xlink:href="dir_000040_000011.html" target="_top" xlink:title="18">
<text text-anchor="middle" x="167.71" y="-63.24" font-family="FreeSans.ttf" font-size="10.00">18</text>
</a>
</g>
</g>
<!-- dir_fb93052291ccda37fd41b6d18f3dfcc9&#45;&gt;dir_5dd65160827af56e6353642206b80129 -->
<g id="edge13" class="edge">
<title>dir_fb93052291ccda37fd41b6d18f3dfcc9&#45;&gt;dir_5dd65160827af56e6353642206b80129</title>
<path fill="none" stroke="black" d="M133.47,-231.87C154.47,-207.03 193.5,-160.85 217.75,-132.14"/>
<polygon fill="black" stroke="black" points="220.69,-134.09 224.47,-124.19 215.35,-129.57 220.69,-134.09"/>
<g id="a_edge13&#45;headlabel"><a xlink:href="dir_000040_000027.html" target="_top" xlink:title="24">
<text text-anchor="middle" x="220.54" y="-136.16" font-family="FreeSans.ttf" font-size="10.00">24</text>
</a>
</g>
</g>
<!-- dir_fb93052291ccda37fd41b6d18f3dfcc9&#45;&gt;dir_7349e89ef19c117195f8e371603e1b1f -->
<g id="edge12" class="edge">
<title>dir_fb93052291ccda37fd41b6d18f3dfcc9&#45;&gt;dir_7349e89ef19c117195f8e371603e1b1f</title>
<path fill="none" stroke="black" d="M119.99,-231.7C120.43,-223.98 120.96,-214.71 121.45,-206.11"/>
<polygon fill="black" stroke="black" points="124.95,-206.29 122.02,-196.1 117.96,-205.89 124.95,-206.29"/>
<g id="a_edge12&#45;headlabel"><a xlink:href="dir_000040_000001.html" target="_top" xlink:title="12">
<text text-anchor="middle" x="127.58" y="-207.54" font-family="FreeSans.ttf" font-size="10.00">12</text>
</a>
</g>
</g>
<!-- dir_e126f7cbd61d2153f67b9bffb0e3dc03 -->
<g id="node9" class="node">
<title>dir_e126f7cbd61d2153f67b9bffb0e3dc03</title>
<g id="a_node9"><a xlink:href="dir_e126f7cbd61d2153f67b9bffb0e3dc03.html" target="_top" xlink:title="optimalcontrol">
<polygon fill="white" stroke="red" points="522,-124 434,-124 434,-88 522,-88 522,-124"/>
<text text-anchor="middle" x="478" y="-103.5" font-family="FreeSans.ttf" font-size="10.00">optimalcontrol</text>
</a>
</g>
</g>
<!-- dir_e126f7cbd61d2153f67b9bffb0e3dc03&#45;&gt;dir_aebb8dcc11953d78e620bbef0b9e2183 -->
<g id="edge31" class="edge">
<title>dir_e126f7cbd61d2153f67b9bffb0e3dc03&#45;&gt;dir_aebb8dcc11953d78e620bbef0b9e2183</title>
<path fill="none" stroke="black" d="M433.73,-91.78C429.1,-90.47 424.46,-89.19 420,-88 355.76,-70.89 280.35,-53.35 236.3,-43.35"/>
<polygon fill="black" stroke="black" points="236.85,-39.89 226.33,-41.09 235.31,-46.71 236.85,-39.89"/>
<g id="a_edge31&#45;headlabel"><a xlink:href="dir_000006_000011.html" target="_top" xlink:title="81">
<text text-anchor="middle" x="240.99" y="-35.41" font-family="FreeSans.ttf" font-size="10.00">81</text>
</a>
</g>
</g>
<!-- dir_7349e89ef19c117195f8e371603e1b1f&#45;&gt;dir_aebb8dcc11953d78e620bbef0b9e2183 -->
<g id="edge8" class="edge">
<title>dir_7349e89ef19c117195f8e371603e1b1f&#45;&gt;dir_aebb8dcc11953d78e620bbef0b9e2183</title>
<path fill="none" stroke="black" d="M129.96,-159.89C137.58,-141.69 150.52,-112.23 164,-88 169.09,-78.85 175.23,-69.19 180.92,-60.66"/>
<polygon fill="black" stroke="black" points="183.91,-62.49 186.65,-52.25 178.13,-58.55 183.91,-62.49"/>
<g id="a_edge8&#45;headlabel"><a xlink:href="dir_000001_000011.html" target="_top" xlink:title="29">
<text text-anchor="middle" x="184.24" y="-64.56" font-family="FreeSans.ttf" font-size="10.00">29</text>
</a>
</g>
</g>
<!-- dir_7349e89ef19c117195f8e371603e1b1f&#45;&gt;dir_5dd65160827af56e6353642206b80129 -->
<g id="edge7" class="edge">
<title>dir_7349e89ef19c117195f8e371603e1b1f&#45;&gt;dir_5dd65160827af56e6353642206b80129</title>
<path fill="none" stroke="black" d="M150.2,-160.59C166.05,-151.02 186.23,-138.85 203.34,-128.52"/>
<polygon fill="black" stroke="black" points="205.22,-131.47 211.97,-123.31 201.6,-125.48 205.22,-131.47"/>
<g id="a_edge7&#45;headlabel"><a xlink:href="dir_000001_000027.html" target="_top" xlink:title="13">
<text text-anchor="middle" x="203.61" y="-133.26" font-family="FreeSans.ttf" font-size="10.00">13</text>
</a>
</g>
</g>
<!-- dir_316a0dddb2dbe91a12d5288b17ad5f68 -->
<g id="node11" class="node">
<title>dir_316a0dddb2dbe91a12d5288b17ad5f68</title>
<g id="a_node11"><a xlink:href="dir_316a0dddb2dbe91a12d5288b17ad5f68.html" target="_top" xlink:title="solid&#45;shapes">
<polygon fill="white" stroke="red" points="386,-196 308,-196 308,-160 386,-160 386,-196"/>
<text text-anchor="middle" x="347" y="-175.5" font-family="FreeSans.ttf" font-size="10.00">solid&#45;shapes</text>
</a>
</g>
</g>
<!-- dir_316a0dddb2dbe91a12d5288b17ad5f68&#45;&gt;dir_aebb8dcc11953d78e620bbef0b9e2183 -->
<g id="edge2" class="edge">
<title>dir_316a0dddb2dbe91a12d5288b17ad5f68&#45;&gt;dir_aebb8dcc11953d78e620bbef0b9e2183</title>
<path fill="none" stroke="black" d="M335.27,-159.73C321.97,-140.86 299,-110.35 275,-88 262.74,-76.58 247.87,-65.68 234.54,-56.76"/>
<polygon fill="black" stroke="black" points="236.34,-53.75 226.06,-51.21 232.51,-59.61 236.34,-53.75"/>
<g id="a_edge2&#45;headlabel"><a xlink:href="dir_000048_000011.html" target="_top" xlink:title="5">
<text text-anchor="middle" x="240.9" y="-50.85" font-family="FreeSans.ttf" font-size="10.00">5</text>
</a>
</g>
</g>
<!-- dir_316a0dddb2dbe91a12d5288b17ad5f68&#45;&gt;dir_5dd65160827af56e6353642206b80129 -->
<g id="edge1" class="edge">
<title>dir_316a0dddb2dbe91a12d5288b17ad5f68&#45;&gt;dir_5dd65160827af56e6353642206b80129</title>
<path fill="none" stroke="black" d="M320.58,-159.88C306.59,-150.81 289.22,-139.55 274.11,-129.76"/>
<polygon fill="black" stroke="black" points="275.82,-126.69 265.52,-124.19 272.01,-132.57 275.82,-126.69"/>
<g id="a_edge1&#45;headlabel"><a xlink:href="dir_000048_000027.html" target="_top" xlink:title="3">
<text text-anchor="middle" x="280.38" y="-123.76" font-family="FreeSans.ttf" font-size="10.00">3</text>
</a>
</g>
</g>
<!-- dir_1563a38af0d3a5e4a6330d6d45e9792a -->
<g id="node12" class="node">
<title>dir_1563a38af0d3a5e4a6330d6d45e9792a</title>
<g id="a_node12"><a xlink:href="dir_1563a38af0d3a5e4a6330d6d45e9792a.html" target="_top" xlink:title="tools">
<polygon fill="white" stroke="red" points="263,-484 209,-484 209,-448 263,-448 263,-484"/>
<text text-anchor="middle" x="236" y="-463.5" font-family="FreeSans.ttf" font-size="10.00">tools</text>
</a>
</g>
</g>
<!-- dir_1563a38af0d3a5e4a6330d6d45e9792a&#45;&gt;dir_aebb8dcc11953d78e620bbef0b9e2183 -->
<g id="edge28" class="edge">
<title>dir_1563a38af0d3a5e4a6330d6d45e9792a&#45;&gt;dir_aebb8dcc11953d78e620bbef0b9e2183</title>
<path fill="none" stroke="black" d="M208.81,-462.66C172.79,-458.29 108.91,-445.99 67,-412 31.76,-383.42 17,-368.37 17,-323 17,-323 17,-323 17,-177 17,-134.16 23.06,-117.62 54,-88 83.61,-59.65 129.6,-46.26 161.82,-40.07"/>
<polygon fill="black" stroke="black" points="162.53,-43.5 171.76,-38.3 161.31,-36.61 162.53,-43.5"/>
<g id="a_edge28&#45;headlabel"><a xlink:href="dir_000031_000011.html" target="_top" xlink:title="5">
<text text-anchor="middle" x="159.49" y="-44.42" font-family="FreeSans.ttf" font-size="10.00">5</text>
</a>
</g>
</g>
<!-- dir_1563a38af0d3a5e4a6330d6d45e9792a&#45;&gt;dir_355314d08763ddbf0e6d36531a48f7ae -->
<g id="edge23" class="edge">
<title>dir_1563a38af0d3a5e4a6330d6d45e9792a&#45;&gt;dir_355314d08763ddbf0e6d36531a48f7ae</title>
<path fill="none" stroke="black" d="M208.85,-460.63C181.45,-454.68 140.24,-441.22 119,-412 106.18,-394.36 104.4,-369.34 105.42,-350.31"/>
<polygon fill="black" stroke="black" points="108.92,-350.43 106.25,-340.18 101.94,-349.86 108.92,-350.43"/>
<g id="a_edge23&#45;headlabel"><a xlink:href="dir_000031_000053.html" target="_top" xlink:title="5">
<text text-anchor="middle" x="111.46" y="-351.74" font-family="FreeSans.ttf" font-size="10.00">5</text>
</a>
</g>
</g>
<!-- dir_1563a38af0d3a5e4a6330d6d45e9792a&#45;&gt;dir_2a3c79a8659119928eb3cfb9c5637ece -->
<g id="edge22" class="edge">
<title>dir_1563a38af0d3a5e4a6330d6d45e9792a&#45;&gt;dir_2a3c79a8659119928eb3cfb9c5637ece</title>
<path fill="none" stroke="black" d="M260.22,-447.88C272.92,-438.89 288.66,-427.76 302.42,-418.03"/>
<polygon fill="black" stroke="black" points="304.54,-420.82 310.69,-412.19 300.5,-415.11 304.54,-420.82"/>
<g id="a_edge22&#45;headlabel"><a xlink:href="dir_000031_000045.html" target="_top" xlink:title="1">
<text text-anchor="middle" x="303.25" y="-422.71" font-family="FreeSans.ttf" font-size="10.00">1</text>
</a>
</g>
</g>
<!-- dir_1563a38af0d3a5e4a6330d6d45e9792a&#45;&gt;dir_b7c18fbf081229a9716e24d71701f6e8 -->
<g id="edge29" class="edge">
<title>dir_1563a38af0d3a5e4a6330d6d45e9792a&#45;&gt;dir_b7c18fbf081229a9716e24d71701f6e8</title>
<path fill="none" stroke="black" d="M222.9,-447.7C216.61,-439.39 208.95,-429.28 202.04,-420.14"/>
<polygon fill="black" stroke="black" points="204.78,-417.96 195.95,-412.1 199.2,-422.19 204.78,-417.96"/>
<g id="a_edge29&#45;headlabel"><a xlink:href="dir_000031_000021.html" target="_top" xlink:title="2">
<text text-anchor="middle" x="209.21" y="-416.62" font-family="FreeSans.ttf" font-size="10.00">2</text>
</a>
</g>
</g>
<!-- dir_1563a38af0d3a5e4a6330d6d45e9792a&#45;&gt;dir_5dd65160827af56e6353642206b80129 -->
<g id="edge26" class="edge">
<title>dir_1563a38af0d3a5e4a6330d6d45e9792a&#45;&gt;dir_5dd65160827af56e6353642206b80129</title>
<path fill="none" stroke="black" d="M241.59,-447.85C249.05,-423.98 261.93,-379.25 267,-340 277.26,-260.56 277.13,-237.78 258,-160 255.88,-151.36 252.86,-142.17 249.86,-133.91"/>
<polygon fill="black" stroke="black" points="253.07,-132.5 246.26,-124.39 246.52,-134.98 253.07,-132.5"/>
<g id="a_edge26&#45;headlabel"><a xlink:href="dir_000031_000027.html" target="_top" xlink:title="6">
<text text-anchor="middle" x="257" y="-132.36" font-family="FreeSans.ttf" font-size="10.00">6</text>
</a>
</g>
</g>
<!-- dir_1563a38af0d3a5e4a6330d6d45e9792a&#45;&gt;dir_fb93052291ccda37fd41b6d18f3dfcc9 -->
<g id="edge24" class="edge">
<title>dir_1563a38af0d3a5e4a6330d6d45e9792a&#45;&gt;dir_fb93052291ccda37fd41b6d18f3dfcc9</title>
<path fill="none" stroke="black" d="M208.93,-460.43C179.36,-454.17 132.21,-440.32 102,-412 65.29,-377.58 49.19,-350.67 68,-304 72.35,-293.21 80.06,-283.39 88.19,-275.21"/>
<polygon fill="black" stroke="black" points="90.79,-277.57 95.7,-268.18 86,-272.46 90.79,-277.57"/>
<g id="a_edge24&#45;headlabel"><a xlink:href="dir_000031_000040.html" target="_top" xlink:title="5">
<text text-anchor="middle" x="90.11" y="-279.6" font-family="FreeSans.ttf" font-size="10.00">5</text>
</a>
</g>
</g>
<!-- dir_b00de47ad7e2e13a637d9aa605dec95e -->
<g id="node13" class="node">
<title>dir_b00de47ad7e2e13a637d9aa605dec95e</title>
<g id="a_node13"><a xlink:href="dir_b00de47ad7e2e13a637d9aa605dec95e.html" target="_top" xlink:title="visualization">
<polygon fill="white" stroke="red" points="502.5,-196 423.5,-196 423.5,-160 502.5,-160 502.5,-196"/>
<text text-anchor="middle" x="463" y="-175.5" font-family="FreeSans.ttf" font-size="10.00">visualization</text>
</a>
</g>
</g>
<!-- dir_1563a38af0d3a5e4a6330d6d45e9792a&#45;&gt;dir_b00de47ad7e2e13a637d9aa605dec95e -->
<g id="edge25" class="edge">
<title>dir_1563a38af0d3a5e4a6330d6d45e9792a&#45;&gt;dir_b00de47ad7e2e13a637d9aa605dec95e</title>
<path fill="none" stroke="black" d="M263.25,-460.1C292.8,-453.59 339.88,-439.53 371,-412 403.06,-383.64 440.2,-261.17 455.66,-206.06"/>
<polygon fill="black" stroke="black" points="459.07,-206.85 458.37,-196.28 452.33,-204.98 459.07,-206.85"/>
<g id="a_edge25&#45;headlabel"><a xlink:href="dir_000031_000025.html" target="_top" xlink:title="1">
<text text-anchor="middle" x="460.85" y="-208.58" font-family="FreeSans.ttf" font-size="10.00">1</text>
</a>
</g>
</g>
<!-- dir_1563a38af0d3a5e4a6330d6d45e9792a&#45;&gt;dir_ca655c1e93447bcdfcc1afb2c793c8bd -->
<g id="edge27" class="edge">
<title>dir_1563a38af0d3a5e4a6330d6d45e9792a&#45;&gt;dir_ca655c1e93447bcdfcc1afb2c793c8bd</title>
<path fill="none" stroke="black" d="M263.11,-464.57C303.92,-462.54 381.52,-453.08 430,-412 448.79,-396.08 459.44,-369.7 465.15,-349.79"/>
<polygon fill="black" stroke="black" points="468.55,-350.61 467.7,-340.05 461.78,-348.84 468.55,-350.61"/>
<g id="a_edge27&#45;headlabel"><a xlink:href="dir_000031_000074.html" target="_top" xlink:title="1">
<text text-anchor="middle" x="470.38" y="-352.31" font-family="FreeSans.ttf" font-size="10.00">1</text>
</a>
</g>
</g>
<!-- dir_b00de47ad7e2e13a637d9aa605dec95e&#45;&gt;dir_aebb8dcc11953d78e620bbef0b9e2183 -->
<g id="edge20" class="edge">
<title>dir_b00de47ad7e2e13a637d9aa605dec95e&#45;&gt;dir_aebb8dcc11953d78e620bbef0b9e2183</title>
<path fill="none" stroke="black" d="M444.92,-159.72C434.48,-149.55 421.23,-136.3 410,-124 395.96,-108.62 397.42,-99.42 380,-88 335.7,-58.95 275.1,-45.45 236.5,-39.45"/>
<polygon fill="black" stroke="black" points="236.63,-35.93 226.23,-37.95 235.62,-42.86 236.63,-35.93"/>
<g id="a_edge20&#45;headlabel"><a xlink:href="dir_000025_000011.html" target="_top" xlink:title="4">
<text text-anchor="middle" x="240.59" y="-31.14" font-family="FreeSans.ttf" font-size="10.00">4</text>
</a>
</g>
</g>
<!-- dir_b00de47ad7e2e13a637d9aa605dec95e&#45;&gt;dir_5dd65160827af56e6353642206b80129 -->
<g id="edge19" class="edge">
<title>dir_b00de47ad7e2e13a637d9aa605dec95e&#45;&gt;dir_5dd65160827af56e6353642206b80129</title>
<path fill="none" stroke="black" d="M423.47,-164.65C381.79,-151.62 316.63,-131.26 275.95,-118.55"/>
<polygon fill="black" stroke="black" points="276.75,-115.13 266.17,-115.49 274.67,-121.81 276.75,-115.13"/>
<g id="a_edge19&#45;headlabel"><a xlink:href="dir_000025_000027.html" target="_top" xlink:title="9">
<text text-anchor="middle" x="281.03" y="-110.99" font-family="FreeSans.ttf" font-size="10.00">9</text>
</a>
</g>
</g>
<!-- dir_ca655c1e93447bcdfcc1afb2c793c8bd&#45;&gt;dir_aebb8dcc11953d78e620bbef0b9e2183 -->
<g id="edge30" class="edge">
<title>dir_ca655c1e93447bcdfcc1afb2c793c8bd&#45;&gt;dir_aebb8dcc11953d78e620bbef0b9e2183</title>
<path fill="none" stroke="black" d="M483.51,-303.99C504.72,-272.88 542.62,-205.8 512,-160 488.75,-125.21 457.59,-150.25 425,-124 409.83,-111.78 415.96,-99.17 400,-88 350.29,-53.2 279.18,-41.25 236.21,-37.15"/>
<polygon fill="black" stroke="black" points="236.45,-33.65 226.19,-36.28 235.85,-40.63 236.45,-33.65"/>
<g id="a_edge30&#45;headlabel"><a xlink:href="dir_000074_000011.html" target="_top" xlink:title="5">
<text text-anchor="middle" x="240.28" y="-28.63" font-family="FreeSans.ttf" font-size="10.00">5</text>
</a>
</g>
</g>
</g>
</svg>
