<?xml version="1.0" encoding="UTF-8" standalone="no"?>
<!DOCTYPE svg PUBLIC "-//W3C//DTD SVG 1.1//EN"
 "http://www.w3.org/Graphics/SVG/1.1/DTD/svg11.dtd">
<!-- Generated by graphviz version 2.43.0 (0)
 -->
<!-- Title: src Pages: 1 -->
<svg width="527pt" height="436pt"
 viewBox="0.00 0.00 527.00 436.00" xmlns="http://www.w3.org/2000/svg" xmlns:xlink="http://www.w3.org/1999/xlink">
<g id="graph0" class="graph" transform="scale(1 1) rotate(0) translate(4 432)">
<title>src</title>
<g id="clust1" class="cluster">
<title>clusterdir_68267d1309a1af8e8297ef4c3efbcdba</title>
<g id="a_clust1"><a xlink:href="dir_68267d1309a1af8e8297ef4c3efbcdba.html" target="_top">
<polygon fill="#eeeeff" stroke="black" points="8,-8 8,-420 511,-420 511,-8 8,-8"/>
</a>
</g>
</g>
<!-- dir_68267d1309a1af8e8297ef4c3efbcdba -->
<g id="node1" class="node">
<title>dir_68267d1309a1af8e8297ef4c3efbcdba</title>
<text text-anchor="middle" x="470" y="-391.5" font-family="FreeSans.ttf" font-size="10.00">src</text>
</g>
<!-- dir_aebb8dcc11953d78e620bbef0b9e2183 -->
<g id="node2" class="node">
<title>dir_aebb8dcc11953d78e620bbef0b9e2183</title>
<g id="a_node2"><a xlink:href="dir_aebb8dcc11953d78e620bbef0b9e2183.html" target="_top" xlink:title="core">
<polygon fill="white" stroke="red" points="343,-52 289,-52 289,-16 343,-16 343,-52"/>
<text text-anchor="middle" x="316" y="-31.5" font-family="FreeSans.ttf" font-size="10.00">core</text>
</a>
</g>
</g>
<!-- dir_710615f1fcb70e449001c5bcbae9c23a -->
<g id="node3" class="node">
<title>dir_710615f1fcb70e449001c5bcbae9c23a</title>
<g id="a_node3"><a xlink:href="dir_710615f1fcb70e449001c5bcbae9c23a.html" target="_top" xlink:title="estimation">
<polygon fill="white" stroke="red" points="390.5,-340 321.5,-340 321.5,-304 390.5,-304 390.5,-340"/>
<text text-anchor="middle" x="356" y="-319.5" font-family="FreeSans.ttf" font-size="10.00">estimation</text>
</a>
</g>
</g>
<!-- dir_710615f1fcb70e449001c5bcbae9c23a&#45;&gt;dir_aebb8dcc11953d78e620bbef0b9e2183 -->
<g id="edge18" class="edge">
<title>dir_710615f1fcb70e449001c5bcbae9c23a&#45;&gt;dir_aebb8dcc11953d78e620bbef0b9e2183</title>
<path fill="none" stroke="black" d="M371.89,-303.94C407.44,-263.64 486.68,-160.46 439,-88 420.1,-59.28 382.01,-46.06 353.19,-40.01"/>
<polygon fill="black" stroke="black" points="353.53,-36.51 343.05,-38.09 352.23,-43.39 353.53,-36.51"/>
<g id="a_edge18&#45;headlabel"><a xlink:href="dir_000016_000011.html" target="_top" xlink:title="47">
<text text-anchor="middle" x="357.59" y="-31.89" font-family="FreeSans.ttf" font-size="10.00">47</text>
</a>
</g>
</g>
<!-- dir_5dd65160827af56e6353642206b80129 -->
<g id="node7" class="node">
<title>dir_5dd65160827af56e6353642206b80129</title>
<g id="a_node7"><a xlink:href="dir_5dd65160827af56e6353642206b80129.html" target="_top" xlink:title="model">
<polygon fill="white" stroke="red" points="277,-124 223,-124 223,-88 277,-88 277,-124"/>
<text text-anchor="middle" x="250" y="-103.5" font-family="FreeSans.ttf" font-size="10.00">model</text>
</a>
</g>
</g>
<!-- dir_710615f1fcb70e449001c5bcbae9c23a&#45;&gt;dir_5dd65160827af56e6353642206b80129 -->
<g id="edge17" class="edge">
<title>dir_710615f1fcb70e449001c5bcbae9c23a&#45;&gt;dir_5dd65160827af56e6353642206b80129</title>
<path fill="none" stroke="black" d="M354.45,-303.89C352.45,-285.69 348.2,-256.24 340,-232 328.47,-197.92 324.2,-189.07 303,-160 295.59,-149.83 286.21,-139.79 277.42,-131.22"/>
<polygon fill="black" stroke="black" points="279.57,-128.44 269.9,-124.11 274.76,-133.52 279.57,-128.44"/>
<g id="a_edge17&#45;headlabel"><a xlink:href="dir_000016_000027.html" target="_top" xlink:title="46">
<text text-anchor="middle" x="284.13" y="-126.35" font-family="FreeSans.ttf" font-size="10.00">46</text>
</a>
</g>
</g>
<!-- dir_fb93052291ccda37fd41b6d18f3dfcc9 -->
<g id="node8" class="node">
<title>dir_fb93052291ccda37fd41b6d18f3dfcc9</title>
<g id="a_node8"><a xlink:href="dir_fb93052291ccda37fd41b6d18f3dfcc9.html" target="_top" xlink:title="model_io">
<polygon fill="white" stroke="red" points="331,-268 269,-268 269,-232 331,-232 331,-268"/>
<text text-anchor="middle" x="300" y="-247.5" font-family="FreeSans.ttf" font-size="10.00">model_io</text>
</a>
</g>
</g>
<!-- dir_710615f1fcb70e449001c5bcbae9c23a&#45;&gt;dir_fb93052291ccda37fd41b6d18f3dfcc9 -->
<g id="edge16" class="edge">
<title>dir_710615f1fcb70e449001c5bcbae9c23a&#45;&gt;dir_fb93052291ccda37fd41b6d18f3dfcc9</title>
<path fill="none" stroke="black" d="M342.16,-303.7C335.51,-295.39 327.42,-285.28 320.11,-276.14"/>
<polygon fill="black" stroke="black" points="322.66,-273.73 313.68,-268.1 317.2,-278.1 322.66,-273.73"/>
<g id="a_edge16&#45;headlabel"><a xlink:href="dir_000016_000037.html" target="_top" xlink:title="2">
<text text-anchor="middle" x="327.13" y="-272.26" font-family="FreeSans.ttf" font-size="10.00">2</text>
</a>
</g>
</g>
<!-- dir_7349e89ef19c117195f8e371603e1b1f -->
<g id="node10" class="node">
<title>dir_7349e89ef19c117195f8e371603e1b1f</title>
<g id="a_node10"><a xlink:href="dir_7349e89ef19c117195f8e371603e1b1f.html" target="_top" xlink:title="sensors">
<polygon fill="white" stroke="red" points="423,-196 369,-196 369,-160 423,-160 423,-196"/>
<text text-anchor="middle" x="396" y="-175.5" font-family="FreeSans.ttf" font-size="10.00">sensors</text>
</a>
</g>
</g>
<!-- dir_710615f1fcb70e449001c5bcbae9c23a&#45;&gt;dir_7349e89ef19c117195f8e371603e1b1f -->
<g id="edge15" class="edge">
<title>dir_710615f1fcb70e449001c5bcbae9c23a&#45;&gt;dir_7349e89ef19c117195f8e371603e1b1f</title>
<path fill="none" stroke="black" d="M360.82,-303.87C367.67,-279.56 380.28,-234.82 388.39,-206.01"/>
<polygon fill="black" stroke="black" points="391.82,-206.76 391.16,-196.19 385.08,-204.87 391.82,-206.76"/>
<g id="a_edge15&#45;headlabel"><a xlink:href="dir_000016_000001.html" target="_top" xlink:title="10">
<text text-anchor="middle" x="393.57" y="-208.49" font-family="FreeSans.ttf" font-size="10.00">10</text>
</a>
</g>
</g>
<!-- dir_355314d08763ddbf0e6d36531a48f7ae -->
<g id="node4" class="node">
<title>dir_355314d08763ddbf0e6d36531a48f7ae</title>
<g id="a_node4"><a xlink:href="dir_355314d08763ddbf0e6d36531a48f7ae.html" target="_top" xlink:title="high&#45;level">
<polygon fill="white" stroke="red" points="222.5,-340 157.5,-340 157.5,-304 222.5,-304 222.5,-340"/>
<text text-anchor="middle" x="190" y="-319.5" font-family="FreeSans.ttf" font-size="10.00">high&#45;level</text>
</a>
</g>
</g>
<!-- dir_355314d08763ddbf0e6d36531a48f7ae&#45;&gt;dir_aebb8dcc11953d78e620bbef0b9e2183 -->
<g id="edge11" class="edge">
<title>dir_355314d08763ddbf0e6d36531a48f7ae&#45;&gt;dir_aebb8dcc11953d78e620bbef0b9e2183</title>
<path fill="none" stroke="black" d="M191.32,-303.88C195.4,-251.58 207.93,-96.93 214,-88 229.05,-65.86 256.34,-52.37 278.9,-44.54"/>
<polygon fill="black" stroke="black" points="280.11,-47.83 288.55,-41.43 277.96,-41.17 280.11,-47.83"/>
<g id="a_edge11&#45;headlabel"><a xlink:href="dir_000050_000011.html" target="_top" xlink:title="16">
<text text-anchor="middle" x="277.56" y="-49.14" font-family="FreeSans.ttf" font-size="10.00">16</text>
</a>
</g>
</g>
<!-- dir_355314d08763ddbf0e6d36531a48f7ae&#45;&gt;dir_5dd65160827af56e6353642206b80129 -->
<g id="edge10" class="edge">
<title>dir_355314d08763ddbf0e6d36531a48f7ae&#45;&gt;dir_5dd65160827af56e6353642206b80129</title>
<path fill="none" stroke="black" d="M197.25,-303.92C207.1,-280.13 224.65,-235.49 235,-196 240.35,-175.57 244.23,-151.98 246.7,-134.22"/>
<polygon fill="black" stroke="black" points="250.17,-134.63 248.02,-124.25 243.23,-133.71 250.17,-134.63"/>
<g id="a_edge10&#45;headlabel"><a xlink:href="dir_000050_000027.html" target="_top" xlink:title="11">
<text text-anchor="middle" x="252.51" y="-136.07" font-family="FreeSans.ttf" font-size="10.00">11</text>
</a>
</g>
</g>
<!-- dir_355314d08763ddbf0e6d36531a48f7ae&#45;&gt;dir_fb93052291ccda37fd41b6d18f3dfcc9 -->
<g id="edge9" class="edge">
<title>dir_355314d08763ddbf0e6d36531a48f7ae&#45;&gt;dir_fb93052291ccda37fd41b6d18f3dfcc9</title>
<path fill="none" stroke="black" d="M216.91,-303.88C231.16,-294.81 248.85,-283.55 264.24,-273.76"/>
<polygon fill="black" stroke="black" points="266.43,-276.51 272.99,-268.19 262.67,-270.61 266.43,-276.51"/>
<g id="a_edge9&#45;headlabel"><a xlink:href="dir_000050_000037.html" target="_top" xlink:title="1">
<text text-anchor="middle" x="264.92" y="-278.34" font-family="FreeSans.ttf" font-size="10.00">1</text>
</a>
</g>
</g>
<!-- dir_2a3c79a8659119928eb3cfb9c5637ece -->
<g id="node5" class="node">
<title>dir_2a3c79a8659119928eb3cfb9c5637ece</title>
<g id="a_node5"><a xlink:href="dir_2a3c79a8659119928eb3cfb9c5637ece.html" target="_top" xlink:title="icub">
<polygon fill="white" stroke="red" points="415,-412 361,-412 361,-376 415,-376 415,-412"/>
<text text-anchor="middle" x="388" y="-391.5" font-family="FreeSans.ttf" font-size="10.00">icub</text>
</a>
</g>
</g>
<!-- dir_2a3c79a8659119928eb3cfb9c5637ece&#45;&gt;dir_aebb8dcc11953d78e620bbef0b9e2183 -->
<g id="edge6" class="edge">
<title>dir_2a3c79a8659119928eb3cfb9c5637ece&#45;&gt;dir_aebb8dcc11953d78e620bbef0b9e2183</title>
<path fill="none" stroke="black" d="M395.24,-375.97C399.5,-365.66 404.85,-352.18 409,-340 425.11,-292.73 425.21,-279.7 440,-232 444.99,-215.89 449.3,-212.65 452,-196 454.56,-180.21 452.22,-176 452,-160 451.56,-127.99 468.36,-114.22 450,-88 428.14,-56.79 384.87,-43.96 353.4,-38.68"/>
<polygon fill="black" stroke="black" points="353.63,-35.18 343.23,-37.17 352.6,-42.1 353.63,-35.18"/>
<g id="a_edge6&#45;headlabel"><a xlink:href="dir_000042_000011.html" target="_top" xlink:title="2">
<text text-anchor="middle" x="357.61" y="-30.4" font-family="FreeSans.ttf" font-size="10.00">2</text>
</a>
</g>
</g>
<!-- dir_2a3c79a8659119928eb3cfb9c5637ece&#45;&gt;dir_710615f1fcb70e449001c5bcbae9c23a -->
<g id="edge3" class="edge">
<title>dir_2a3c79a8659119928eb3cfb9c5637ece&#45;&gt;dir_710615f1fcb70e449001c5bcbae9c23a</title>
<path fill="none" stroke="black" d="M380.09,-375.7C376.45,-367.73 372.05,-358.1 368.01,-349.26"/>
<polygon fill="black" stroke="black" points="371.16,-347.74 363.82,-340.1 364.79,-350.65 371.16,-347.74"/>
<g id="a_edge3&#45;headlabel"><a xlink:href="dir_000042_000016.html" target="_top" xlink:title="1">
<text text-anchor="middle" x="375.24" y="-347.33" font-family="FreeSans.ttf" font-size="10.00">1</text>
</a>
</g>
</g>
<!-- dir_2a3c79a8659119928eb3cfb9c5637ece&#45;&gt;dir_5dd65160827af56e6353642206b80129 -->
<g id="edge4" class="edge">
<title>dir_2a3c79a8659119928eb3cfb9c5637ece&#45;&gt;dir_5dd65160827af56e6353642206b80129</title>
<path fill="none" stroke="black" d="M360.75,-377.14C328.85,-356.7 278.07,-317.78 260,-268 251.35,-244.18 249.93,-173.57 249.84,-134.24"/>
<polygon fill="black" stroke="black" points="253.34,-134.04 249.85,-124.03 246.34,-134.03 253.34,-134.04"/>
<g id="a_edge4&#45;headlabel"><a xlink:href="dir_000042_000027.html" target="_top" xlink:title="5">
<text text-anchor="middle" x="256.18" y="-135.13" font-family="FreeSans.ttf" font-size="10.00">5</text>
</a>
</g>
</g>
<!-- dir_ca655c1e93447bcdfcc1afb2c793c8bd -->
<g id="node14" class="node">
<title>dir_ca655c1e93447bcdfcc1afb2c793c8bd</title>
<g id="a_node14"><a xlink:href="dir_ca655c1e93447bcdfcc1afb2c793c8bd.html" target="_top" xlink:title="yarp">
<polygon fill="white" stroke="red" points="503,-268 449,-268 449,-232 503,-232 503,-268"/>
<text text-anchor="middle" x="476" y="-247.5" font-family="FreeSans.ttf" font-size="10.00">yarp</text>
</a>
</g>
</g>
<!-- dir_2a3c79a8659119928eb3cfb9c5637ece&#45;&gt;dir_ca655c1e93447bcdfcc1afb2c793c8bd -->
<g id="edge5" class="edge">
<title>dir_2a3c79a8659119928eb3cfb9c5637ece&#45;&gt;dir_ca655c1e93447bcdfcc1afb2c793c8bd</title>
<path fill="none" stroke="black" d="M405.5,-375.92C415.01,-366.02 426.53,-352.97 435,-340 447.87,-320.29 458.81,-295.89 466.14,-277.62"/>
<polygon fill="black" stroke="black" points="469.45,-278.76 469.83,-268.17 462.93,-276.21 469.45,-278.76"/>
<g id="a_edge5&#45;headlabel"><a xlink:href="dir_000042_000064.html" target="_top" xlink:title="2">
<text text-anchor="middle" x="470.79" y="-280.64" font-family="FreeSans.ttf" font-size="10.00">2</text>
</a>
</g>
</g>
<!-- dir_b7c18fbf081229a9716e24d71701f6e8 -->
<g id="node6" class="node">
<title>dir_b7c18fbf081229a9716e24d71701f6e8</title>
<g id="a_node6"><a xlink:href="dir_b7c18fbf081229a9716e24d71701f6e8.html" target="_top" xlink:title="inverse&#45;kinematics">
<polygon fill="white" stroke="red" points="322,-412 212,-412 212,-376 322,-376 322,-412"/>
<text text-anchor="middle" x="267" y="-391.5" font-family="FreeSans.ttf" font-size="10.00">inverse&#45;kinematics</text>
</a>
</g>
</g>
<!-- dir_b7c18fbf081229a9716e24d71701f6e8&#45;&gt;dir_aebb8dcc11953d78e620bbef0b9e2183 -->
<g id="edge32" class="edge">
<title>dir_b7c18fbf081229a9716e24d71701f6e8&#45;&gt;dir_aebb8dcc11953d78e620bbef0b9e2183</title>
<path fill="none" stroke="black" d="M322.02,-383.62C349.22,-376.21 380.35,-363.09 400,-340 402.66,-336.88 431.55,-200.07 432,-196 433.75,-180.1 441.32,-173.01 432,-160 403.02,-119.56 357.19,-162.76 326,-124 312.18,-106.83 310.6,-81.39 311.94,-62.1"/>
<polygon fill="black" stroke="black" points="315.43,-62.4 312.93,-52.11 308.46,-61.71 315.43,-62.4"/>
<g id="a_edge32&#45;headlabel"><a xlink:href="dir_000021_000011.html" target="_top" xlink:title="30">
<text text-anchor="middle" x="317.9" y="-63.76" font-family="FreeSans.ttf" font-size="10.00">30</text>
</a>
</g>
</g>
<!-- dir_b7c18fbf081229a9716e24d71701f6e8&#45;&gt;dir_355314d08763ddbf0e6d36531a48f7ae -->
<g id="edge29" class="edge">
<title>dir_b7c18fbf081229a9716e24d71701f6e8&#45;&gt;dir_355314d08763ddbf0e6d36531a48f7ae</title>
<path fill="none" stroke="black" d="M247.97,-375.7C238.46,-367.05 226.79,-356.45 216.43,-347.03"/>
<polygon fill="black" stroke="black" points="218.57,-344.24 208.81,-340.1 213.86,-349.42 218.57,-344.24"/>
<g id="a_edge29&#45;headlabel"><a xlink:href="dir_000021_000050.html" target="_top" xlink:title="1">
<text text-anchor="middle" x="223.14" y="-342.06" font-family="FreeSans.ttf" font-size="10.00">1</text>
</a>
</g>
</g>
<!-- dir_b7c18fbf081229a9716e24d71701f6e8&#45;&gt;dir_5dd65160827af56e6353642206b80129 -->
<g id="edge31" class="edge">
<title>dir_b7c18fbf081229a9716e24d71701f6e8&#45;&gt;dir_5dd65160827af56e6353642206b80129</title>
<path fill="none" stroke="black" d="M262.98,-375.74C257.61,-351.74 248.39,-306.85 245,-268 240.91,-221.19 244.34,-166.48 247.19,-134.4"/>
<polygon fill="black" stroke="black" points="250.67,-134.71 248.11,-124.43 243.7,-134.06 250.67,-134.71"/>
<g id="a_edge31&#45;headlabel"><a xlink:href="dir_000021_000027.html" target="_top" xlink:title="1">
<text text-anchor="middle" x="253.16" y="-136.05" font-family="FreeSans.ttf" font-size="10.00">1</text>
</a>
</g>
</g>
<!-- dir_b7c18fbf081229a9716e24d71701f6e8&#45;&gt;dir_fb93052291ccda37fd41b6d18f3dfcc9 -->
<g id="edge30" class="edge">
<title>dir_b7c18fbf081229a9716e24d71701f6e8&#45;&gt;dir_fb93052291ccda37fd41b6d18f3dfcc9</title>
<path fill="none" stroke="black" d="M270.98,-375.87C276.63,-351.56 287.03,-306.82 293.72,-278.01"/>
<polygon fill="black" stroke="black" points="297.15,-278.72 296.01,-268.19 290.33,-277.14 297.15,-278.72"/>
<g id="a_edge30&#45;headlabel"><a xlink:href="dir_000021_000037.html" target="_top" xlink:title="1">
<text text-anchor="middle" x="299.1" y="-280.37" font-family="FreeSans.ttf" font-size="10.00">1</text>
</a>
</g>
</g>
<!-- dir_5dd65160827af56e6353642206b80129&#45;&gt;dir_aebb8dcc11953d78e620bbef0b9e2183 -->
<g id="edge21" class="edge">
<title>dir_5dd65160827af56e6353642206b80129&#45;&gt;dir_aebb8dcc11953d78e620bbef0b9e2183</title>
<path fill="none" stroke="black" d="M266.31,-87.7C274.31,-79.22 284.07,-68.86 292.82,-59.58"/>
<polygon fill="black" stroke="black" points="295.56,-61.78 299.87,-52.1 290.47,-56.98 295.56,-61.78"/>
<g id="a_edge21&#45;headlabel"><a xlink:href="dir_000027_000011.html" target="_top" xlink:title="59">
<text text-anchor="middle" x="295.16" y="-63.84" font-family="FreeSans.ttf" font-size="10.00">59</text>
</a>
</g>
</g>
<!-- dir_fb93052291ccda37fd41b6d18f3dfcc9&#45;&gt;dir_aebb8dcc11953d78e620bbef0b9e2183 -->
<g id="edge14" class="edge">
<title>dir_fb93052291ccda37fd41b6d18f3dfcc9&#45;&gt;dir_aebb8dcc11953d78e620bbef0b9e2183</title>
<path fill="none" stroke="black" d="M301.04,-231.6C302.84,-202.06 306.75,-140.22 311,-88 311.68,-79.67 312.5,-70.62 313.28,-62.39"/>
<polygon fill="black" stroke="black" points="316.79,-62.47 314.27,-52.18 309.82,-61.79 316.79,-62.47"/>
<g id="a_edge14&#45;headlabel"><a xlink:href="dir_000037_000011.html" target="_top" xlink:title="18">
<text text-anchor="middle" x="319.27" y="-63.82" font-family="FreeSans.ttf" font-size="10.00">18</text>
</a>
</g>
</g>
<!-- dir_fb93052291ccda37fd41b6d18f3dfcc9&#45;&gt;dir_5dd65160827af56e6353642206b80129 -->
<g id="edge13" class="edge">
<title>dir_fb93052291ccda37fd41b6d18f3dfcc9&#45;&gt;dir_5dd65160827af56e6353642206b80129</title>
<path fill="none" stroke="black" d="M302.17,-231.91C303.82,-213.47 304.41,-183.57 295,-160 290.86,-149.64 283.84,-139.85 276.56,-131.57"/>
<polygon fill="black" stroke="black" points="278.98,-129.03 269.59,-124.12 273.87,-133.81 278.98,-129.03"/>
<g id="a_edge13&#45;headlabel"><a xlink:href="dir_000037_000027.html" target="_top" xlink:title="25">
<text text-anchor="middle" x="283.51" y="-127.21" font-family="FreeSans.ttf" font-size="10.00">25</text>
</a>
</g>
</g>
<!-- dir_fb93052291ccda37fd41b6d18f3dfcc9&#45;&gt;dir_7349e89ef19c117195f8e371603e1b1f -->
<g id="edge12" class="edge">
<title>dir_fb93052291ccda37fd41b6d18f3dfcc9&#45;&gt;dir_7349e89ef19c117195f8e371603e1b1f</title>
<path fill="none" stroke="black" d="M323.73,-231.7C335.94,-222.8 350.99,-211.82 364.18,-202.2"/>
<polygon fill="black" stroke="black" points="366.52,-204.82 372.54,-196.1 362.4,-199.17 366.52,-204.82"/>
<g id="a_edge12&#45;headlabel"><a xlink:href="dir_000037_000001.html" target="_top" xlink:title="12">
<text text-anchor="middle" x="365.29" y="-206.74" font-family="FreeSans.ttf" font-size="10.00">12</text>
</a>
</g>
</g>
<!-- dir_e126f7cbd61d2153f67b9bffb0e3dc03 -->
<g id="node9" class="node">
<title>dir_e126f7cbd61d2153f67b9bffb0e3dc03</title>
<g id="a_node9"><a xlink:href="dir_e126f7cbd61d2153f67b9bffb0e3dc03.html" target="_top" xlink:title="optimalcontrol">
<polygon fill="white" stroke="red" points="423,-124 335,-124 335,-88 423,-88 423,-124"/>
<text text-anchor="middle" x="379" y="-103.5" font-family="FreeSans.ttf" font-size="10.00">optimalcontrol</text>
</a>
</g>
</g>
<!-- dir_e126f7cbd61d2153f67b9bffb0e3dc03&#45;&gt;dir_aebb8dcc11953d78e620bbef0b9e2183 -->
<g id="edge28" class="edge">
<title>dir_e126f7cbd61d2153f67b9bffb0e3dc03&#45;&gt;dir_aebb8dcc11953d78e620bbef0b9e2183</title>
<path fill="none" stroke="black" d="M363.43,-87.7C355.8,-79.22 346.48,-68.86 338.12,-59.58"/>
<polygon fill="black" stroke="black" points="340.69,-57.2 331.39,-52.1 335.48,-61.88 340.69,-57.2"/>
<g id="a_edge28&#45;headlabel"><a xlink:href="dir_000006_000011.html" target="_top" xlink:title="81">
<text text-anchor="middle" x="345.2" y="-55.47" font-family="FreeSans.ttf" font-size="10.00">81</text>
</a>
</g>
</g>
<!-- dir_7349e89ef19c117195f8e371603e1b1f&#45;&gt;dir_aebb8dcc11953d78e620bbef0b9e2183 -->
<g id="edge8" class="edge">
<title>dir_7349e89ef19c117195f8e371603e1b1f&#45;&gt;dir_aebb8dcc11953d78e620bbef0b9e2183</title>
<path fill="none" stroke="black" d="M412.33,-159.69C427.85,-141.05 446.78,-111 432,-88 414.7,-61.08 379.96,-47.66 352.98,-41.08"/>
<polygon fill="black" stroke="black" points="353.6,-37.63 343.08,-38.88 352.08,-44.47 353.6,-37.63"/>
<g id="a_edge8&#45;headlabel"><a xlink:href="dir_000001_000011.html" target="_top" xlink:title="29">
<text text-anchor="middle" x="357.73" y="-33.14" font-family="FreeSans.ttf" font-size="10.00">29</text>
</a>
</g>
</g>
<!-- dir_7349e89ef19c117195f8e371603e1b1f&#45;&gt;dir_5dd65160827af56e6353642206b80129 -->
<g id="edge7" class="edge">
<title>dir_7349e89ef19c117195f8e371603e1b1f&#45;&gt;dir_5dd65160827af56e6353642206b80129</title>
<path fill="none" stroke="black" d="M368.88,-164C345.67,-152.87 312.06,-136.75 286.49,-124.5"/>
<polygon fill="black" stroke="black" points="288,-121.34 277.47,-120.17 284.97,-127.65 288,-121.34"/>
<g id="a_edge7&#45;headlabel"><a xlink:href="dir_000001_000027.html" target="_top" xlink:title="13">
<text text-anchor="middle" x="292.47" y="-117.83" font-family="FreeSans.ttf" font-size="10.00">13</text>
</a>
</g>
</g>
<!-- dir_316a0dddb2dbe91a12d5288b17ad5f68 -->
<g id="node11" class="node">
<title>dir_316a0dddb2dbe91a12d5288b17ad5f68</title>
<g id="a_node11"><a xlink:href="dir_316a0dddb2dbe91a12d5288b17ad5f68.html" target="_top" xlink:title="solid&#45;shapes">
<polygon fill="white" stroke="red" points="191,-196 113,-196 113,-160 191,-160 191,-196"/>
<text text-anchor="middle" x="152" y="-175.5" font-family="FreeSans.ttf" font-size="10.00">solid&#45;shapes</text>
</a>
</g>
</g>
<!-- dir_316a0dddb2dbe91a12d5288b17ad5f68&#45;&gt;dir_aebb8dcc11953d78e620bbef0b9e2183 -->
<g id="edge2" class="edge">
<title>dir_316a0dddb2dbe91a12d5288b17ad5f68&#45;&gt;dir_aebb8dcc11953d78e620bbef0b9e2183</title>
<path fill="none" stroke="black" d="M157.27,-159.81C164.06,-140.16 177.62,-108.12 199,-88 221.55,-66.78 254.06,-52.98 279.09,-44.8"/>
<polygon fill="black" stroke="black" points="280.46,-48.05 288.97,-41.74 278.38,-41.36 280.46,-48.05"/>
<g id="a_edge2&#45;headlabel"><a xlink:href="dir_000045_000011.html" target="_top" xlink:title="5">
<text text-anchor="middle" x="277.87" y="-49.32" font-family="FreeSans.ttf" font-size="10.00">5</text>
</a>
</g>
</g>
<!-- dir_316a0dddb2dbe91a12d5288b17ad5f68&#45;&gt;dir_5dd65160827af56e6353642206b80129 -->
<g id="edge1" class="edge">
<title>dir_316a0dddb2dbe91a12d5288b17ad5f68&#45;&gt;dir_5dd65160827af56e6353642206b80129</title>
<path fill="none" stroke="black" d="M175.97,-159.88C188.55,-150.89 204.13,-139.76 217.75,-130.03"/>
<polygon fill="black" stroke="black" points="219.83,-132.85 225.93,-124.19 215.76,-127.15 219.83,-132.85"/>
<g id="a_edge1&#45;headlabel"><a xlink:href="dir_000045_000027.html" target="_top" xlink:title="4">
<text text-anchor="middle" x="218.56" y="-134.75" font-family="FreeSans.ttf" font-size="10.00">4</text>
</a>
</g>
</g>
<!-- dir_1563a38af0d3a5e4a6330d6d45e9792a -->
<g id="node12" class="node">
<title>dir_1563a38af0d3a5e4a6330d6d45e9792a</title>
<g id="a_node12"><a xlink:href="dir_1563a38af0d3a5e4a6330d6d45e9792a.html" target="_top" xlink:title="tools">
<polygon fill="white" stroke="black" points="165,-412 111,-412 111,-376 165,-376 165,-412"/>
<text text-anchor="middle" x="138" y="-391.5" font-family="FreeSans.ttf" font-size="10.00">tools</text>
</a>
</g>
</g>
<!-- dir_1563a38af0d3a5e4a6330d6d45e9792a&#45;&gt;dir_355314d08763ddbf0e6d36531a48f7ae -->
<g id="edge23" class="edge">
<title>dir_1563a38af0d3a5e4a6330d6d45e9792a&#45;&gt;dir_355314d08763ddbf0e6d36531a48f7ae</title>
<path fill="none" stroke="black" d="M150.85,-375.7C157.03,-367.39 164.54,-357.28 171.32,-348.14"/>
<polygon fill="black" stroke="black" points="174.14,-350.22 177.29,-340.1 168.52,-346.04 174.14,-350.22"/>
<g id="a_edge23&#45;headlabel"><a xlink:href="dir_000034_000050.html" target="_top" xlink:title="1">
<text text-anchor="middle" x="174.28" y="-352.3" font-family="FreeSans.ttf" font-size="10.00">1</text>
</a>
</g>
</g>
<!-- dir_1563a38af0d3a5e4a6330d6d45e9792a&#45;&gt;dir_5dd65160827af56e6353642206b80129 -->
<g id="edge26" class="edge">
<title>dir_1563a38af0d3a5e4a6330d6d45e9792a&#45;&gt;dir_5dd65160827af56e6353642206b80129</title>
<path fill="none" stroke="black" d="M138.35,-375.9C139.12,-357.71 141.54,-328.26 149,-304 159.71,-269.19 209.91,-177.95 235.27,-132.91"/>
<polygon fill="black" stroke="black" points="238.41,-134.47 240.28,-124.04 232.32,-131.03 238.41,-134.47"/>
<g id="a_edge26&#45;headlabel"><a xlink:href="dir_000034_000027.html" target="_top" xlink:title="3">
<text text-anchor="middle" x="239.12" y="-136.5" font-family="FreeSans.ttf" font-size="10.00">3</text>
</a>
</g>
</g>
<!-- dir_1563a38af0d3a5e4a6330d6d45e9792a&#45;&gt;dir_fb93052291ccda37fd41b6d18f3dfcc9 -->
<g id="edge24" class="edge">
<title>dir_1563a38af0d3a5e4a6330d6d45e9792a&#45;&gt;dir_fb93052291ccda37fd41b6d18f3dfcc9</title>
<path fill="none" stroke="black" d="M165.38,-381.22C185.2,-371.86 211.93,-357.46 232,-340 253.15,-321.6 272.05,-295.7 284.52,-276.58"/>
<polygon fill="black" stroke="black" points="287.52,-278.38 289.94,-268.06 281.62,-274.62 287.52,-278.38"/>
<g id="a_edge24&#45;headlabel"><a xlink:href="dir_000034_000037.html" target="_top" xlink:title="4">
<text text-anchor="middle" x="287.99" y="-280.44" font-family="FreeSans.ttf" font-size="10.00">4</text>
</a>
</g>
</g>
<!-- dir_1563a38af0d3a5e4a6330d6d45e9792a&#45;&gt;dir_316a0dddb2dbe91a12d5288b17ad5f68 -->
<g id="edge22" class="edge">
<title>dir_1563a38af0d3a5e4a6330d6d45e9792a&#45;&gt;dir_316a0dddb2dbe91a12d5288b17ad5f68</title>
<path fill="none" stroke="black" d="M135.97,-375.84C134.85,-365.48 133.56,-352 133,-340 132.25,-324.02 131.79,-319.95 133,-304 135.56,-270.1 141.98,-231.47 146.65,-206.24"/>
<polygon fill="black" stroke="black" points="150.11,-206.77 148.52,-196.3 143.23,-205.47 150.11,-206.77"/>
<g id="a_edge22&#45;headlabel"><a xlink:href="dir_000034_000045.html" target="_top" xlink:title="1">
<text text-anchor="middle" x="152.23" y="-208.33" font-family="FreeSans.ttf" font-size="10.00">1</text>
</a>
</g>
</g>
<!-- dir_b00de47ad7e2e13a637d9aa605dec95e -->
<g id="node13" class="node">
<title>dir_b00de47ad7e2e13a637d9aa605dec95e</title>
<g id="a_node13"><a xlink:href="dir_b00de47ad7e2e13a637d9aa605dec95e.html" target="_top" xlink:title="visualization">
<polygon fill="white" stroke="red" points="94.5,-196 15.5,-196 15.5,-160 94.5,-160 94.5,-196"/>
<text text-anchor="middle" x="55" y="-175.5" font-family="FreeSans.ttf" font-size="10.00">visualization</text>
</a>
</g>
</g>
<!-- dir_1563a38af0d3a5e4a6330d6d45e9792a&#45;&gt;dir_b00de47ad7e2e13a637d9aa605dec95e -->
<g id="edge25" class="edge">
<title>dir_1563a38af0d3a5e4a6330d6d45e9792a&#45;&gt;dir_b00de47ad7e2e13a637d9aa605dec95e</title>
<path fill="none" stroke="black" d="M131.35,-375.85C116.93,-338.68 82.71,-250.44 65.4,-205.82"/>
<polygon fill="black" stroke="black" points="68.56,-204.29 61.68,-196.23 62.04,-206.82 68.56,-204.29"/>
<g id="a_edge25&#45;headlabel"><a xlink:href="dir_000034_000025.html" target="_top" xlink:title="1">
<text text-anchor="middle" x="72.51" y="-204.11" font-family="FreeSans.ttf" font-size="10.00">1</text>
</a>
</g>
</g>
<!-- dir_b00de47ad7e2e13a637d9aa605dec95e&#45;&gt;dir_aebb8dcc11953d78e620bbef0b9e2183 -->
<g id="edge20" class="edge">
<title>dir_b00de47ad7e2e13a637d9aa605dec95e&#45;&gt;dir_aebb8dcc11953d78e620bbef0b9e2183</title>
<path fill="none" stroke="black" d="M73.06,-159.91C94.52,-140.35 132.07,-108.39 169,-88 204.42,-68.44 248.46,-53.69 279.06,-44.77"/>
<polygon fill="black" stroke="black" points="280.23,-48.08 288.89,-41.98 278.31,-41.35 280.23,-48.08"/>
<g id="a_edge20&#45;headlabel"><a xlink:href="dir_000025_000011.html" target="_top" xlink:title="4">
<text text-anchor="middle" x="277.55" y="-49.29" font-family="FreeSans.ttf" font-size="10.00">4</text>
</a>
</g>
</g>
<!-- dir_b00de47ad7e2e13a637d9aa605dec95e&#45;&gt;dir_5dd65160827af56e6353642206b80129 -->
<g id="edge19" class="edge">
<title>dir_b00de47ad7e2e13a637d9aa605dec95e&#45;&gt;dir_5dd65160827af56e6353642206b80129</title>
<path fill="none" stroke="black" d="M94.93,-162.67C129.72,-150.18 179.73,-132.22 213.47,-120.11"/>
<polygon fill="black" stroke="black" points="214.73,-123.38 222.96,-116.71 212.37,-116.79 214.73,-123.38"/>
<g id="a_edge19&#45;headlabel"><a xlink:href="dir_000025_000027.html" target="_top" xlink:title="9">
<text text-anchor="middle" x="212.31" y="-124.77" font-family="FreeSans.ttf" font-size="10.00">9</text>
</a>
</g>
</g>
<!-- dir_ca655c1e93447bcdfcc1afb2c793c8bd&#45;&gt;dir_aebb8dcc11953d78e620bbef0b9e2183 -->
<g id="edge27" class="edge">
<title>dir_ca655c1e93447bcdfcc1afb2c793c8bd&#45;&gt;dir_aebb8dcc11953d78e620bbef0b9e2183</title>
<path fill="none" stroke="black" d="M483.7,-231.96C496.77,-200.21 518.91,-131.3 487,-88 456.38,-46.46 393.54,-36.51 353.16,-34.64"/>
<polygon fill="black" stroke="black" points="353.27,-31.15 343.16,-34.33 353.05,-38.14 353.27,-31.15"/>
<g id="a_edge27&#45;headlabel"><a xlink:href="dir_000064_000011.html" target="_top" xlink:title="5">
<text text-anchor="middle" x="356.95" y="-25.92" font-family="FreeSans.ttf" font-size="10.00">5</text>
</a>
</g>
</g>
</g>
</svg>
