<?xml version="1.0" encoding="UTF-8" standalone="no"?>
<!DOCTYPE svg PUBLIC "-//W3C//DTD SVG 1.1//EN"
 "http://www.w3.org/Graphics/SVG/1.1/DTD/svg11.dtd">
<!-- Generated by graphviz version 2.43.0 (0)
 -->
<!-- Title: estimation Pages: 1 -->
<svg width="260pt" height="375pt"
 viewBox="0.00 0.00 260.00 375.00" xmlns="http://www.w3.org/2000/svg" xmlns:xlink="http://www.w3.org/1999/xlink">
<g id="graph0" class="graph" transform="scale(1 1) rotate(0) translate(4 371)">
<title>estimation</title>
<g id="clust1" class="cluster">
<title>clusterdir_68267d1309a1af8e8297ef4c3efbcdba</title>
<g id="a_clust1"><a xlink:href="dir_68267d1309a1af8e8297ef4c3efbcdba.html" target="_top" xlink:title="src">
<polygon fill="#ddddee" stroke="black" points="8,-200 8,-359 182,-359 182,-200 8,-200"/>
<text text-anchor="middle" x="95" y="-347" font-family="FreeSans.ttf" font-size="10.00">src</text>
</a>
</g>
</g>
<g id="clust2" class="cluster">
<title>clusterdir_710615f1fcb70e449001c5bcbae9c23a</title>
<g id="a_clust2"><a xlink:href="dir_710615f1fcb70e449001c5bcbae9c23a.html" target="_top">
<polygon fill="#eeeeff" stroke="black" points="16,-208 16,-332 174,-332 174,-208 16,-208"/>
</a>
</g>
</g>
<!-- dir_710615f1fcb70e449001c5bcbae9c23a -->
<g id="node1" class="node">
<title>dir_710615f1fcb70e449001c5bcbae9c23a</title>
<text text-anchor="middle" x="131" y="-303.5" font-family="FreeSans.ttf" font-size="10.00">estimation</text>
</g>
<!-- dir_78fffd686f5438be918918eb345e2fa3 -->
<g id="node2" class="node">
<title>dir_78fffd686f5438be918918eb345e2fa3</title>
<g id="a_node2"><a xlink:href="dir_78fffd686f5438be918918eb345e2fa3.html" target="_top" xlink:title="include">
<polygon fill="white" stroke="red" points="78,-252 24,-252 24,-216 78,-216 78,-252"/>
<text text-anchor="middle" x="51" y="-231.5" font-family="FreeSans.ttf" font-size="10.00">include</text>
</a>
</g>
</g>
<!-- dir_7349e89ef19c117195f8e371603e1b1f -->
<g id="node4" class="node">
<title>dir_7349e89ef19c117195f8e371603e1b1f</title>
<g id="a_node4"><a xlink:href="dir_7349e89ef19c117195f8e371603e1b1f.html" target="_top" xlink:title="sensors">
<polygon fill="none" stroke="red" points="133,-180 79,-180 79,-144 133,-144 133,-180"/>
<text text-anchor="middle" x="106" y="-159.5" font-family="FreeSans.ttf" font-size="10.00">sensors</text>
</a>
</g>
</g>
<!-- dir_78fffd686f5438be918918eb345e2fa3&#45;&gt;dir_7349e89ef19c117195f8e371603e1b1f -->
<g id="edge1" class="edge">
<title>dir_78fffd686f5438be918918eb345e2fa3&#45;&gt;dir_7349e89ef19c117195f8e371603e1b1f</title>
<path fill="none" stroke="black" d="M64.6,-215.7C71.12,-207.39 79.07,-197.28 86.25,-188.14"/>
<polygon fill="black" stroke="black" points="89.13,-190.13 92.56,-180.1 83.63,-185.81 89.13,-190.13"/>
<g id="a_edge1&#45;headlabel"><a xlink:href="dir_000018_000001.html" target="_top" xlink:title="2">
<text text-anchor="middle" x="89.15" y="-192.21" font-family="FreeSans.ttf" font-size="10.00">2</text>
</a>
</g>
</g>
<!-- dir_5dd65160827af56e6353642206b80129 -->
<g id="node6" class="node">
<title>dir_5dd65160827af56e6353642206b80129</title>
<g id="a_node6"><a xlink:href="dir_5dd65160827af56e6353642206b80129.html" target="_top" xlink:title="model">
<polygon fill="none" stroke="red" points="160,-108 106,-108 106,-72 160,-72 160,-108"/>
<text text-anchor="middle" x="133" y="-87.5" font-family="FreeSans.ttf" font-size="10.00">model</text>
</a>
</g>
</g>
<!-- dir_78fffd686f5438be918918eb345e2fa3&#45;&gt;dir_5dd65160827af56e6353642206b80129 -->
<g id="edge2" class="edge">
<title>dir_78fffd686f5438be918918eb345e2fa3&#45;&gt;dir_5dd65160827af56e6353642206b80129</title>
<path fill="none" stroke="black" d="M51.41,-215.73C52.56,-196.86 56.58,-166.35 70,-144 76.91,-132.49 87.23,-122.3 97.52,-114"/>
<polygon fill="black" stroke="black" points="99.87,-116.61 105.71,-107.76 95.63,-111.04 99.87,-116.61"/>
<g id="a_edge2&#45;headlabel"><a xlink:href="dir_000018_000027.html" target="_top" xlink:title="24">
<text text-anchor="middle" x="98.74" y="-118.54" font-family="FreeSans.ttf" font-size="10.00">24</text>
</a>
</g>
</g>
<!-- dir_aebb8dcc11953d78e620bbef0b9e2183 -->
<g id="node7" class="node">
<title>dir_aebb8dcc11953d78e620bbef0b9e2183</title>
<g id="a_node7"><a xlink:href="dir_aebb8dcc11953d78e620bbef0b9e2183.html" target="_top" xlink:title="core">
<polygon fill="none" stroke="red" points="105,-36 51,-36 51,0 105,0 105,-36"/>
<text text-anchor="middle" x="78" y="-15.5" font-family="FreeSans.ttf" font-size="10.00">core</text>
</a>
</g>
</g>
<!-- dir_78fffd686f5438be918918eb345e2fa3&#45;&gt;dir_aebb8dcc11953d78e620bbef0b9e2183 -->
<g id="edge3" class="edge">
<title>dir_78fffd686f5438be918918eb345e2fa3&#45;&gt;dir_aebb8dcc11953d78e620bbef0b9e2183</title>
<path fill="none" stroke="black" d="M50.5,-215.88C50.18,-197.92 50.25,-168.89 53,-144 56.76,-109.93 65.12,-71.33 71.14,-46.16"/>
<polygon fill="black" stroke="black" points="74.59,-46.79 73.55,-36.24 67.79,-45.13 74.59,-46.79"/>
<g id="a_edge3&#45;headlabel"><a xlink:href="dir_000018_000011.html" target="_top" xlink:title="30">
<text text-anchor="middle" x="76.5" y="-48.45" font-family="FreeSans.ttf" font-size="10.00">30</text>
</a>
</g>
</g>
<!-- dir_c0a19cd8a90bd2ff9eaf571ff5da9093 -->
<g id="node3" class="node">
<title>dir_c0a19cd8a90bd2ff9eaf571ff5da9093</title>
<g id="a_node3"><a xlink:href="dir_c0a19cd8a90bd2ff9eaf571ff5da9093.html" target="_top" xlink:title="src">
<polygon fill="white" stroke="black" points="78,-324 24,-324 24,-288 78,-288 78,-324"/>
<text text-anchor="middle" x="51" y="-303.5" font-family="FreeSans.ttf" font-size="10.00">src</text>
</a>
</g>
</g>
<!-- dir_c0a19cd8a90bd2ff9eaf571ff5da9093&#45;&gt;dir_78fffd686f5438be918918eb345e2fa3 -->
<g id="edge4" class="edge">
<title>dir_c0a19cd8a90bd2ff9eaf571ff5da9093&#45;&gt;dir_78fffd686f5438be918918eb345e2fa3</title>
<path fill="none" stroke="black" d="M51,-287.7C51,-279.98 51,-270.71 51,-262.11"/>
<polygon fill="black" stroke="black" points="54.5,-262.1 51,-252.1 47.5,-262.1 54.5,-262.1"/>
<g id="a_edge4&#45;headlabel"><a xlink:href="dir_000017_000018.html" target="_top" xlink:title="20">
<text text-anchor="middle" x="57.34" y="-263.2" font-family="FreeSans.ttf" font-size="10.00">20</text>
</a>
</g>
</g>
<!-- dir_c0a19cd8a90bd2ff9eaf571ff5da9093&#45;&gt;dir_7349e89ef19c117195f8e371603e1b1f -->
<g id="edge5" class="edge">
<title>dir_c0a19cd8a90bd2ff9eaf571ff5da9093&#45;&gt;dir_7349e89ef19c117195f8e371603e1b1f</title>
<path fill="none" stroke="black" d="M65.16,-287.85C72.69,-277.93 81.5,-264.89 87,-252 95.41,-232.29 100.24,-208.49 102.93,-190.46"/>
<polygon fill="black" stroke="black" points="106.43,-190.71 104.3,-180.33 99.49,-189.76 106.43,-190.71"/>
<g id="a_edge5&#45;headlabel"><a xlink:href="dir_000017_000001.html" target="_top" xlink:title="8">
<text text-anchor="middle" x="108.76" y="-192.15" font-family="FreeSans.ttf" font-size="10.00">8</text>
</a>
</g>
</g>
<!-- dir_fb93052291ccda37fd41b6d18f3dfcc9 -->
<g id="node5" class="node">
<title>dir_fb93052291ccda37fd41b6d18f3dfcc9</title>
<g id="a_node5"><a xlink:href="dir_fb93052291ccda37fd41b6d18f3dfcc9.html" target="_top" xlink:title="model_io">
<polygon fill="none" stroke="red" points="252,-252 190,-252 190,-216 252,-216 252,-252"/>
<text text-anchor="middle" x="221" y="-231.5" font-family="FreeSans.ttf" font-size="10.00">model_io</text>
</a>
</g>
</g>
<!-- dir_c0a19cd8a90bd2ff9eaf571ff5da9093&#45;&gt;dir_fb93052291ccda37fd41b6d18f3dfcc9 -->
<g id="edge6" class="edge">
<title>dir_c0a19cd8a90bd2ff9eaf571ff5da9093&#45;&gt;dir_fb93052291ccda37fd41b6d18f3dfcc9</title>
<path fill="none" stroke="black" d="M78.04,-292C81.05,-290.62 84.08,-289.26 87,-288 88.16,-287.5 141.38,-266.46 180.39,-251.05"/>
<polygon fill="black" stroke="black" points="181.94,-254.19 189.96,-247.26 179.37,-247.68 181.94,-254.19"/>
<g id="a_edge6&#45;headlabel"><a xlink:href="dir_000017_000040.html" target="_top" xlink:title="2">
<text text-anchor="middle" x="179.64" y="-255.66" font-family="FreeSans.ttf" font-size="10.00">2</text>
</a>
</g>
</g>
<!-- dir_c0a19cd8a90bd2ff9eaf571ff5da9093&#45;&gt;dir_5dd65160827af56e6353642206b80129 -->
<g id="edge7" class="edge">
<title>dir_c0a19cd8a90bd2ff9eaf571ff5da9093&#45;&gt;dir_5dd65160827af56e6353642206b80129</title>
<path fill="none" stroke="black" d="M73.69,-287.92C85.34,-278.32 99.11,-265.56 109,-252 129.74,-223.56 134.49,-214.39 142,-180 146.46,-159.55 143.73,-135.96 140.14,-118.21"/>
<polygon fill="black" stroke="black" points="143.51,-117.24 137.92,-108.24 136.68,-118.77 143.51,-117.24"/>
<g id="a_edge7&#45;headlabel"><a xlink:href="dir_000017_000027.html" target="_top" xlink:title="22">
<text text-anchor="middle" x="147.07" y="-117.63" font-family="FreeSans.ttf" font-size="10.00">22</text>
</a>
</g>
</g>
<!-- dir_c0a19cd8a90bd2ff9eaf571ff5da9093&#45;&gt;dir_aebb8dcc11953d78e620bbef0b9e2183 -->
<g id="edge8" class="edge">
<title>dir_c0a19cd8a90bd2ff9eaf571ff5da9093&#45;&gt;dir_aebb8dcc11953d78e620bbef0b9e2183</title>
<path fill="none" stroke="black" d="M35.39,-287.77C27.63,-278.03 19.05,-265.18 15,-252 8.21,-229.91 11.51,-222.85 15,-200 23.68,-143.12 49.38,-80.49 65.15,-45.84"/>
<polygon fill="black" stroke="black" points="68.48,-46.97 69.5,-36.43 62.12,-44.03 68.48,-46.97"/>
<g id="a_edge8&#45;headlabel"><a xlink:href="dir_000017_000011.html" target="_top" xlink:title="17">
<text text-anchor="middle" x="69.55" y="-48.93" font-family="FreeSans.ttf" font-size="10.00">17</text>
</a>
</g>
</g>
<!-- dir_7349e89ef19c117195f8e371603e1b1f&#45;&gt;dir_5dd65160827af56e6353642206b80129 -->
<g id="edge9" class="edge">
<title>dir_7349e89ef19c117195f8e371603e1b1f&#45;&gt;dir_5dd65160827af56e6353642206b80129</title>
<path fill="none" stroke="black" d="M112.67,-143.7C115.71,-135.81 119.38,-126.3 122.76,-117.55"/>
<polygon fill="black" stroke="black" points="126.07,-118.69 126.4,-108.1 119.54,-116.17 126.07,-118.69"/>
<g id="a_edge9&#45;headlabel"><a xlink:href="dir_000001_000027.html" target="_top" xlink:title="13">
<text text-anchor="middle" x="127.42" y="-120.57" font-family="FreeSans.ttf" font-size="10.00">13</text>
</a>
</g>
</g>
<!-- dir_7349e89ef19c117195f8e371603e1b1f&#45;&gt;dir_aebb8dcc11953d78e620bbef0b9e2183 -->
<g id="edge10" class="edge">
<title>dir_7349e89ef19c117195f8e371603e1b1f&#45;&gt;dir_aebb8dcc11953d78e620bbef0b9e2183</title>
<path fill="none" stroke="black" d="M102.62,-143.87C97.83,-119.56 89.01,-74.82 83.33,-46.01"/>
<polygon fill="black" stroke="black" points="86.76,-45.32 81.39,-36.19 79.89,-46.68 86.76,-45.32"/>
<g id="a_edge10&#45;headlabel"><a xlink:href="dir_000001_000011.html" target="_top" xlink:title="29">
<text text-anchor="middle" x="90.24" y="-45.8" font-family="FreeSans.ttf" font-size="10.00">29</text>
</a>
</g>
</g>
<!-- dir_fb93052291ccda37fd41b6d18f3dfcc9&#45;&gt;dir_7349e89ef19c117195f8e371603e1b1f -->
<g id="edge11" class="edge">
<title>dir_fb93052291ccda37fd41b6d18f3dfcc9&#45;&gt;dir_7349e89ef19c117195f8e371603e1b1f</title>
<path fill="none" stroke="black" d="M200.11,-215.77C193.26,-210.44 185.47,-204.73 178,-200 166.76,-192.88 153.98,-185.96 142.35,-180.08"/>
<polygon fill="black" stroke="black" points="143.82,-176.9 133.31,-175.59 140.71,-183.17 143.82,-176.9"/>
<g id="a_edge11&#45;headlabel"><a xlink:href="dir_000040_000001.html" target="_top" xlink:title="12">
<text text-anchor="middle" x="148.3" y="-173.46" font-family="FreeSans.ttf" font-size="10.00">12</text>
</a>
</g>
</g>
<!-- dir_fb93052291ccda37fd41b6d18f3dfcc9&#45;&gt;dir_5dd65160827af56e6353642206b80129 -->
<g id="edge12" class="edge">
<title>dir_fb93052291ccda37fd41b6d18f3dfcc9&#45;&gt;dir_5dd65160827af56e6353642206b80129</title>
<path fill="none" stroke="black" d="M213.29,-215.73C204.83,-197.38 190.38,-167.81 175,-144 168.82,-134.43 161.29,-124.51 154.33,-115.87"/>
<polygon fill="black" stroke="black" points="156.94,-113.53 147.88,-108.03 151.53,-117.98 156.94,-113.53"/>
<g id="a_edge12&#45;headlabel"><a xlink:href="dir_000040_000027.html" target="_top" xlink:title="25">
<text text-anchor="middle" x="161.42" y="-112.01" font-family="FreeSans.ttf" font-size="10.00">25</text>
</a>
</g>
</g>
<!-- dir_fb93052291ccda37fd41b6d18f3dfcc9&#45;&gt;dir_aebb8dcc11953d78e620bbef0b9e2183 -->
<g id="edge13" class="edge">
<title>dir_fb93052291ccda37fd41b6d18f3dfcc9&#45;&gt;dir_aebb8dcc11953d78e620bbef0b9e2183</title>
<path fill="none" stroke="black" d="M219.84,-215.8C216.82,-183.78 206.15,-114.43 169,-72 154.23,-55.13 132.73,-42.26 114.34,-33.43"/>
<polygon fill="black" stroke="black" points="115.6,-30.16 105.06,-29.18 112.69,-36.53 115.6,-30.16"/>
<g id="a_edge13&#45;headlabel"><a xlink:href="dir_000040_000011.html" target="_top" xlink:title="18">
<text text-anchor="middle" x="120.05" y="-26.58" font-family="FreeSans.ttf" font-size="10.00">18</text>
</a>
</g>
</g>
<!-- dir_5dd65160827af56e6353642206b80129&#45;&gt;dir_aebb8dcc11953d78e620bbef0b9e2183 -->
<g id="edge14" class="edge">
<title>dir_5dd65160827af56e6353642206b80129&#45;&gt;dir_aebb8dcc11953d78e620bbef0b9e2183</title>
<path fill="none" stroke="black" d="M119.4,-71.7C112.88,-63.39 104.93,-53.28 97.75,-44.14"/>
<polygon fill="black" stroke="black" points="100.37,-41.81 91.44,-36.1 94.87,-46.13 100.37,-41.81"/>
<g id="a_edge14&#45;headlabel"><a xlink:href="dir_000027_000011.html" target="_top" xlink:title="59">
<text text-anchor="middle" x="104.82" y="-40.38" font-family="FreeSans.ttf" font-size="10.00">59</text>
</a>
</g>
</g>
</g>
</svg>
