<?xml version="1.0" encoding="UTF-8" standalone="no"?>
<!DOCTYPE svg PUBLIC "-//W3C//DTD SVG 1.1//EN"
 "http://www.w3.org/Graphics/SVG/1.1/DTD/svg11.dtd">
<!-- Generated by graphviz version 2.43.0 (0)
 -->
<!-- Title: iDynTree Pages: 1 -->
<svg width="188pt" height="159pt"
 viewBox="0.00 0.00 188.00 159.00" xmlns="http://www.w3.org/2000/svg" xmlns:xlink="http://www.w3.org/1999/xlink">
<g id="graph0" class="graph" transform="scale(1 1) rotate(0) translate(4 155)">
<title>iDynTree</title>
<g id="clust1" class="cluster">
<title>clusterdir_4e42d8d7040e5636217fe339fb7064ec</title>
<g id="a_clust1"><a xlink:href="dir_4e42d8d7040e5636217fe339fb7064ec.html" target="_top" xlink:title="include">
<polygon fill="#ddddee" stroke="black" points="8,-56 8,-143 172,-143 172,-56 8,-56"/>
<text text-anchor="middle" x="90" y="-131" font-family="FreeSans.ttf" font-size="10.00">include</text>
</a>
</g>
</g>
<g id="clust2" class="cluster">
<title>clusterdir_6cbc0da72a45ae4a04ea9a67ef3f69a4</title>
<g id="a_clust2"><a xlink:href="dir_6cbc0da72a45ae4a04ea9a67ef3f69a4.html" target="_top">
<polygon fill="#eeeeff" stroke="black" points="16,-64 16,-116 164,-116 164,-64 16,-64"/>
</a>
</g>
</g>
<!-- dir_6cbc0da72a45ae4a04ea9a67ef3f69a4 -->
<g id="node1" class="node">
<title>dir_6cbc0da72a45ae4a04ea9a67ef3f69a4</title>
<text text-anchor="middle" x="126" y="-87.5" font-family="FreeSans.ttf" font-size="10.00">iDynTree</text>
</g>
<!-- dir_77cdb3a72d5a00eea7dab51220307fb7 -->
<g id="node2" class="node">
<title>dir_77cdb3a72d5a00eea7dab51220307fb7</title>
<g id="a_node2"><a xlink:href="dir_77cdb3a72d5a00eea7dab51220307fb7.html" target="_top" xlink:title="Model">
<polygon fill="white" stroke="black" points="78,-108 24,-108 24,-72 78,-72 78,-108"/>
<text text-anchor="middle" x="51" y="-87.5" font-family="FreeSans.ttf" font-size="10.00">Model</text>
</a>
</g>
</g>
<!-- dir_aebb8dcc11953d78e620bbef0b9e2183 -->
<g id="node3" class="node">
<title>dir_aebb8dcc11953d78e620bbef0b9e2183</title>
<g id="a_node3"><a xlink:href="dir_aebb8dcc11953d78e620bbef0b9e2183.html" target="_top" xlink:title="core">
<polygon fill="none" stroke="red" points="78,-36 24,-36 24,0 78,0 78,-36"/>
<text text-anchor="middle" x="51" y="-15.5" font-family="FreeSans.ttf" font-size="10.00">core</text>
</a>
</g>
</g>
<!-- dir_77cdb3a72d5a00eea7dab51220307fb7&#45;&gt;dir_aebb8dcc11953d78e620bbef0b9e2183 -->
<g id="edge1" class="edge">
<title>dir_77cdb3a72d5a00eea7dab51220307fb7&#45;&gt;dir_aebb8dcc11953d78e620bbef0b9e2183</title>
<path fill="none" stroke="black" d="M51,-71.7C51,-63.98 51,-54.71 51,-46.11"/>
<polygon fill="black" stroke="black" points="54.5,-46.1 51,-36.1 47.5,-46.1 54.5,-46.1"/>
<g id="a_edge1&#45;headlabel"><a xlink:href="dir_000030_000011.html" target="_top" xlink:title="33">
<text text-anchor="middle" x="57.34" y="-47.2" font-family="FreeSans.ttf" font-size="10.00">33</text>
</a>
</g>
</g>
</g>
</svg>
