<?xml version="1.0" encoding="UTF-8" standalone="no"?>
<!DOCTYPE svg PUBLIC "-//W3C//DTD SVG 1.1//EN"
 "http://www.w3.org/Graphics/SVG/1.1/DTD/svg11.dtd">
<!-- Generated by graphviz version 2.43.0 (0)
 -->
<!-- Title: src Pages: 1 -->
<svg width="221pt" height="367pt"
 viewBox="0.00 0.00 220.90 367.00" xmlns="http://www.w3.org/2000/svg" xmlns:xlink="http://www.w3.org/1999/xlink">
<g id="graph0" class="graph" transform="scale(1 1) rotate(0) translate(4 363)">
<title>src</title>
<g id="clust1" class="cluster">
<title>clusterdir_710615f1fcb70e449001c5bcbae9c23a</title>
<g id="a_clust1"><a xlink:href="dir_710615f1fcb70e449001c5bcbae9c23a.html" target="_top" xlink:title="estimation">
<polygon fill="#ddddee" stroke="black" points="69.16,-280 69.16,-351 139.16,-351 139.16,-280 69.16,-280"/>
<text text-anchor="middle" x="104.16" y="-339" font-family="FreeSans.ttf" font-size="10.00">estimation</text>
</a>
</g>
</g>
<!-- dir_c0a19cd8a90bd2ff9eaf571ff5da9093 -->
<g id="node1" class="node">
<title>dir_c0a19cd8a90bd2ff9eaf571ff5da9093</title>
<g id="a_node1"><a xlink:href="dir_c0a19cd8a90bd2ff9eaf571ff5da9093.html" target="_top" xlink:title="src">
<polygon fill="#eeeeff" stroke="black" points="131.16,-324 77.16,-324 77.16,-288 131.16,-288 131.16,-324"/>
<text text-anchor="middle" x="104.16" y="-303.5" font-family="FreeSans.ttf" font-size="10.00">src</text>
</a>
</g>
</g>
<!-- dir_78fffd686f5438be918918eb345e2fa3 -->
<g id="node2" class="node">
<title>dir_78fffd686f5438be918918eb345e2fa3</title>
<g id="a_node2"><a xlink:href="dir_78fffd686f5438be918918eb345e2fa3.html" target="_top" xlink:title="include">
<polygon fill="none" stroke="red" points="76.16,-252 22.16,-252 22.16,-216 76.16,-216 76.16,-252"/>
<text text-anchor="middle" x="49.16" y="-231.5" font-family="FreeSans.ttf" font-size="10.00">include</text>
</a>
</g>
</g>
<!-- dir_c0a19cd8a90bd2ff9eaf571ff5da9093&#45;&gt;dir_78fffd686f5438be918918eb345e2fa3 -->
<g id="edge4" class="edge">
<title>dir_c0a19cd8a90bd2ff9eaf571ff5da9093&#45;&gt;dir_78fffd686f5438be918918eb345e2fa3</title>
<path fill="none" stroke="black" d="M90.57,-287.7C84.04,-279.39 76.09,-269.28 68.92,-260.14"/>
<polygon fill="black" stroke="black" points="71.53,-257.81 62.6,-252.1 66.03,-262.13 71.53,-257.81"/>
<g id="a_edge4&#45;headlabel"><a xlink:href="dir_000017_000018.html" target="_top" xlink:title="20">
<text text-anchor="middle" x="75.99" y="-256.38" font-family="FreeSans.ttf" font-size="10.00">20</text>
</a>
</g>
</g>
<!-- dir_7349e89ef19c117195f8e371603e1b1f -->
<g id="node3" class="node">
<title>dir_7349e89ef19c117195f8e371603e1b1f</title>
<g id="a_node3"><a xlink:href="dir_7349e89ef19c117195f8e371603e1b1f.html" target="_top" xlink:title="sensors">
<polygon fill="none" stroke="red" points="152.16,-180 98.16,-180 98.16,-144 152.16,-144 152.16,-180"/>
<text text-anchor="middle" x="125.16" y="-159.5" font-family="FreeSans.ttf" font-size="10.00">sensors</text>
</a>
</g>
</g>
<!-- dir_c0a19cd8a90bd2ff9eaf571ff5da9093&#45;&gt;dir_7349e89ef19c117195f8e371603e1b1f -->
<g id="edge5" class="edge">
<title>dir_c0a19cd8a90bd2ff9eaf571ff5da9093&#45;&gt;dir_7349e89ef19c117195f8e371603e1b1f</title>
<path fill="none" stroke="black" d="M106.7,-287.87C110.27,-263.67 116.85,-219.21 121.11,-190.39"/>
<polygon fill="black" stroke="black" points="124.62,-190.59 122.62,-180.19 117.7,-189.57 124.62,-190.59"/>
<g id="a_edge5&#45;headlabel"><a xlink:href="dir_000017_000001.html" target="_top" xlink:title="8">
<text text-anchor="middle" x="126.9" y="-192.07" font-family="FreeSans.ttf" font-size="10.00">8</text>
</a>
</g>
</g>
<!-- dir_fb93052291ccda37fd41b6d18f3dfcc9 -->
<g id="node4" class="node">
<title>dir_fb93052291ccda37fd41b6d18f3dfcc9</title>
<g id="a_node4"><a xlink:href="dir_fb93052291ccda37fd41b6d18f3dfcc9.html" target="_top" xlink:title="model_io">
<polygon fill="none" stroke="red" points="194.16,-252 132.16,-252 132.16,-216 194.16,-216 194.16,-252"/>
<text text-anchor="middle" x="163.16" y="-231.5" font-family="FreeSans.ttf" font-size="10.00">model_io</text>
</a>
</g>
</g>
<!-- dir_c0a19cd8a90bd2ff9eaf571ff5da9093&#45;&gt;dir_fb93052291ccda37fd41b6d18f3dfcc9 -->
<g id="edge6" class="edge">
<title>dir_c0a19cd8a90bd2ff9eaf571ff5da9093&#45;&gt;dir_fb93052291ccda37fd41b6d18f3dfcc9</title>
<path fill="none" stroke="black" d="M118.75,-287.7C125.82,-279.3 134.45,-269.07 142.21,-259.86"/>
<polygon fill="black" stroke="black" points="144.98,-262.01 148.75,-252.1 139.63,-257.49 144.98,-262.01"/>
<g id="a_edge6&#45;headlabel"><a xlink:href="dir_000017_000037.html" target="_top" xlink:title="2">
<text text-anchor="middle" x="144.83" y="-264.08" font-family="FreeSans.ttf" font-size="10.00">2</text>
</a>
</g>
</g>
<!-- dir_5dd65160827af56e6353642206b80129 -->
<g id="node5" class="node">
<title>dir_5dd65160827af56e6353642206b80129</title>
<g id="a_node5"><a xlink:href="dir_5dd65160827af56e6353642206b80129.html" target="_top" xlink:title="model">
<polygon fill="none" stroke="red" points="179.16,-108 125.16,-108 125.16,-72 179.16,-72 179.16,-108"/>
<text text-anchor="middle" x="152.16" y="-87.5" font-family="FreeSans.ttf" font-size="10.00">model</text>
</a>
</g>
</g>
<!-- dir_c0a19cd8a90bd2ff9eaf571ff5da9093&#45;&gt;dir_5dd65160827af56e6353642206b80129 -->
<g id="edge7" class="edge">
<title>dir_c0a19cd8a90bd2ff9eaf571ff5da9093&#45;&gt;dir_5dd65160827af56e6353642206b80129</title>
<path fill="none" stroke="black" d="M131.44,-298.73C155.04,-291.7 187.74,-277.76 203.16,-252 229.44,-208.13 196.24,-149.3 172.41,-116.27"/>
<polygon fill="black" stroke="black" points="175.07,-113.99 166.29,-108.06 169.46,-118.17 175.07,-113.99"/>
<g id="a_edge7&#45;headlabel"><a xlink:href="dir_000017_000027.html" target="_top" xlink:title="22">
<text text-anchor="middle" x="179.5" y="-112.67" font-family="FreeSans.ttf" font-size="10.00">22</text>
</a>
</g>
</g>
<!-- dir_aebb8dcc11953d78e620bbef0b9e2183 -->
<g id="node6" class="node">
<title>dir_aebb8dcc11953d78e620bbef0b9e2183</title>
<g id="a_node6"><a xlink:href="dir_aebb8dcc11953d78e620bbef0b9e2183.html" target="_top" xlink:title="core">
<polygon fill="none" stroke="red" points="124.16,-36 70.16,-36 70.16,0 124.16,0 124.16,-36"/>
<text text-anchor="middle" x="97.16" y="-15.5" font-family="FreeSans.ttf" font-size="10.00">core</text>
</a>
</g>
</g>
<!-- dir_c0a19cd8a90bd2ff9eaf571ff5da9093&#45;&gt;dir_aebb8dcc11953d78e620bbef0b9e2183 -->
<g id="edge8" class="edge">
<title>dir_c0a19cd8a90bd2ff9eaf571ff5da9093&#45;&gt;dir_aebb8dcc11953d78e620bbef0b9e2183</title>
<path fill="none" stroke="black" d="M76.87,-297.34C55.34,-289.7 26.74,-275.62 13.16,-252 -27.39,-181.46 37.9,-87.9 74.72,-43.89"/>
<polygon fill="black" stroke="black" points="77.4,-46.14 81.23,-36.27 72.08,-41.6 77.4,-46.14"/>
<g id="a_edge8&#45;headlabel"><a xlink:href="dir_000017_000011.html" target="_top" xlink:title="17">
<text text-anchor="middle" x="77.22" y="-48.22" font-family="FreeSans.ttf" font-size="10.00">17</text>
</a>
</g>
</g>
<!-- dir_78fffd686f5438be918918eb345e2fa3&#45;&gt;dir_7349e89ef19c117195f8e371603e1b1f -->
<g id="edge1" class="edge">
<title>dir_78fffd686f5438be918918eb345e2fa3&#45;&gt;dir_7349e89ef19c117195f8e371603e1b1f</title>
<path fill="none" stroke="black" d="M67.95,-215.7C77.34,-207.05 88.85,-196.45 99.08,-187.03"/>
<polygon fill="black" stroke="black" points="101.61,-189.45 106.59,-180.1 96.87,-184.3 101.61,-189.45"/>
<g id="a_edge1&#45;headlabel"><a xlink:href="dir_000018_000001.html" target="_top" xlink:title="2">
<text text-anchor="middle" x="100.89" y="-191.48" font-family="FreeSans.ttf" font-size="10.00">2</text>
</a>
</g>
</g>
<!-- dir_78fffd686f5438be918918eb345e2fa3&#45;&gt;dir_5dd65160827af56e6353642206b80129 -->
<g id="edge2" class="edge">
<title>dir_78fffd686f5438be918918eb345e2fa3&#45;&gt;dir_5dd65160827af56e6353642206b80129</title>
<path fill="none" stroke="black" d="M54.35,-215.71C60.57,-196.83 72.32,-166.3 89.16,-144 97.39,-133.11 108.24,-122.97 118.62,-114.54"/>
<polygon fill="black" stroke="black" points="121.06,-117.07 126.78,-108.16 116.74,-111.56 121.06,-117.07"/>
<g id="a_edge2&#45;headlabel"><a xlink:href="dir_000018_000027.html" target="_top" xlink:title="24">
<text text-anchor="middle" x="119.97" y="-119.03" font-family="FreeSans.ttf" font-size="10.00">24</text>
</a>
</g>
</g>
<!-- dir_78fffd686f5438be918918eb345e2fa3&#45;&gt;dir_aebb8dcc11953d78e620bbef0b9e2183 -->
<g id="edge3" class="edge">
<title>dir_78fffd686f5438be918918eb345e2fa3&#45;&gt;dir_aebb8dcc11953d78e620bbef0b9e2183</title>
<path fill="none" stroke="black" d="M51.86,-215.87C54.78,-197.89 59.76,-168.85 65.16,-144 72.54,-110.1 82.7,-71.47 89.58,-46.24"/>
<polygon fill="black" stroke="black" points="93.04,-46.87 92.31,-36.3 86.29,-45.01 93.04,-46.87"/>
<g id="a_edge3&#45;headlabel"><a xlink:href="dir_000018_000011.html" target="_top" xlink:title="30">
<text text-anchor="middle" x="94.82" y="-48.58" font-family="FreeSans.ttf" font-size="10.00">30</text>
</a>
</g>
</g>
<!-- dir_7349e89ef19c117195f8e371603e1b1f&#45;&gt;dir_5dd65160827af56e6353642206b80129 -->
<g id="edge9" class="edge">
<title>dir_7349e89ef19c117195f8e371603e1b1f&#45;&gt;dir_5dd65160827af56e6353642206b80129</title>
<path fill="none" stroke="black" d="M131.84,-143.7C134.88,-135.81 138.55,-126.3 141.92,-117.55"/>
<polygon fill="black" stroke="black" points="145.23,-118.69 145.57,-108.1 138.7,-116.17 145.23,-118.69"/>
<g id="a_edge9&#45;headlabel"><a xlink:href="dir_000001_000027.html" target="_top" xlink:title="13">
<text text-anchor="middle" x="146.59" y="-120.57" font-family="FreeSans.ttf" font-size="10.00">13</text>
</a>
</g>
</g>
<!-- dir_7349e89ef19c117195f8e371603e1b1f&#45;&gt;dir_aebb8dcc11953d78e620bbef0b9e2183 -->
<g id="edge10" class="edge">
<title>dir_7349e89ef19c117195f8e371603e1b1f&#45;&gt;dir_aebb8dcc11953d78e620bbef0b9e2183</title>
<path fill="none" stroke="black" d="M121.79,-143.87C116.99,-119.56 108.17,-74.82 102.49,-46.01"/>
<polygon fill="black" stroke="black" points="105.92,-45.32 100.55,-36.19 99.05,-46.68 105.92,-45.32"/>
<g id="a_edge10&#45;headlabel"><a xlink:href="dir_000001_000011.html" target="_top" xlink:title="29">
<text text-anchor="middle" x="109.4" y="-45.8" font-family="FreeSans.ttf" font-size="10.00">29</text>
</a>
</g>
</g>
<!-- dir_fb93052291ccda37fd41b6d18f3dfcc9&#45;&gt;dir_7349e89ef19c117195f8e371603e1b1f -->
<g id="edge11" class="edge">
<title>dir_fb93052291ccda37fd41b6d18f3dfcc9&#45;&gt;dir_7349e89ef19c117195f8e371603e1b1f</title>
<path fill="none" stroke="black" d="M153.77,-215.7C149.4,-207.64 144.11,-197.89 139.27,-188.98"/>
<polygon fill="black" stroke="black" points="142.3,-187.22 134.45,-180.1 136.14,-190.56 142.3,-187.22"/>
<g id="a_edge11&#45;headlabel"><a xlink:href="dir_000037_000001.html" target="_top" xlink:title="12">
<text text-anchor="middle" x="146.51" y="-186.53" font-family="FreeSans.ttf" font-size="10.00">12</text>
</a>
</g>
</g>
<!-- dir_fb93052291ccda37fd41b6d18f3dfcc9&#45;&gt;dir_5dd65160827af56e6353642206b80129 -->
<g id="edge12" class="edge">
<title>dir_fb93052291ccda37fd41b6d18f3dfcc9&#45;&gt;dir_5dd65160827af56e6353642206b80129</title>
<path fill="none" stroke="black" d="M163.52,-215.89C163.71,-197.94 163.55,-168.92 161.16,-144 160.35,-135.51 158.97,-126.32 157.53,-118.02"/>
<polygon fill="black" stroke="black" points="160.96,-117.31 155.72,-108.1 154.07,-118.57 160.96,-117.31"/>
<g id="a_edge12&#45;headlabel"><a xlink:href="dir_000037_000027.html" target="_top" xlink:title="25">
<text text-anchor="middle" x="164.4" y="-117.83" font-family="FreeSans.ttf" font-size="10.00">25</text>
</a>
</g>
</g>
<!-- dir_fb93052291ccda37fd41b6d18f3dfcc9&#45;&gt;dir_aebb8dcc11953d78e620bbef0b9e2183 -->
<g id="edge13" class="edge">
<title>dir_fb93052291ccda37fd41b6d18f3dfcc9&#45;&gt;dir_aebb8dcc11953d78e620bbef0b9e2183</title>
<path fill="none" stroke="black" d="M172.63,-215.71C188.2,-184.71 214.95,-118.59 188.16,-72 176.5,-51.7 153.73,-38.45 133.89,-30.27"/>
<polygon fill="black" stroke="black" points="135.04,-26.97 124.45,-26.66 132.54,-33.5 135.04,-26.97"/>
<g id="a_edge13&#45;headlabel"><a xlink:href="dir_000037_000011.html" target="_top" xlink:title="18">
<text text-anchor="middle" x="139.41" y="-23.1" font-family="FreeSans.ttf" font-size="10.00">18</text>
</a>
</g>
</g>
<!-- dir_5dd65160827af56e6353642206b80129&#45;&gt;dir_aebb8dcc11953d78e620bbef0b9e2183 -->
<g id="edge14" class="edge">
<title>dir_5dd65160827af56e6353642206b80129&#45;&gt;dir_aebb8dcc11953d78e620bbef0b9e2183</title>
<path fill="none" stroke="black" d="M138.57,-71.7C132.04,-63.39 124.09,-53.28 116.92,-44.14"/>
<polygon fill="black" stroke="black" points="119.53,-41.81 110.6,-36.1 114.03,-46.13 119.53,-41.81"/>
<g id="a_edge14&#45;headlabel"><a xlink:href="dir_000027_000011.html" target="_top" xlink:title="59">
<text text-anchor="middle" x="123.99" y="-40.38" font-family="FreeSans.ttf" font-size="10.00">59</text>
</a>
</g>
</g>
</g>
</svg>
