<?xml version="1.0" encoding="UTF-8" standalone="no"?>
<!DOCTYPE svg PUBLIC "-//W3C//DTD SVG 1.1//EN"
 "http://www.w3.org/Graphics/SVG/1.1/DTD/svg11.dtd">
<!-- Generated by graphviz version 2.43.0 (0)
 -->
<!-- Title: DummyImplementations.h Pages: 1 -->
<svg width="335pt" height="252pt"
 viewBox="0.00 0.00 334.50 252.00" xmlns="http://www.w3.org/2000/svg" xmlns:xlink="http://www.w3.org/1999/xlink">
<g id="graph0" class="graph" transform="scale(1 1) rotate(0) translate(4 248)">
<title>DummyImplementations.h</title>
<!-- Node1 -->
<g id="node1" class="node">
<title>Node1</title>
<g id="a_node1"><a xlink:title=" ">
<polygon fill="#bfbfbf" stroke="black" points="140.5,-224.5 140.5,-243.5 288.5,-243.5 288.5,-224.5 140.5,-224.5"/>
<text text-anchor="middle" x="214.5" y="-231.5" font-family="FreeSans.ttf" font-size="10.00">DummyImplementations.h</text>
</a>
</g>
</g>
<!-- Node2 -->
<g id="node2" class="node">
<title>Node2</title>
<g id="a_node2"><a xlink:href="Environment_8h.html" target="_top" xlink:title=" ">
<polygon fill="none" stroke="black" points="98.5,-168.5 98.5,-187.5 186.5,-187.5 186.5,-168.5 98.5,-168.5"/>
<text text-anchor="middle" x="142.5" y="-175.5" font-family="FreeSans.ttf" font-size="10.00">Environment.h</text>
</a>
</g>
</g>
<!-- Node1&#45;&gt;Node2 -->
<g id="edge1" class="edge">
<title>Node1&#45;&gt;Node2</title>
<path fill="none" stroke="midnightblue" d="M194.63,-218.1C181.68,-208.38 165.2,-196.03 154.28,-187.83"/>
<polygon fill="midnightblue" stroke="midnightblue" points="192.83,-221.12 202.93,-224.32 197.03,-215.52 192.83,-221.12"/>
</g>
<!-- Node5 -->
<g id="node5" class="node">
<title>Node5</title>
<g id="a_node5"><a xlink:href="Texture_8cpp.html" target="_top" xlink:title=" ">
<polygon fill="none" stroke="black" points="178,-56.5 178,-75.5 251,-75.5 251,-56.5 178,-56.5"/>
<text text-anchor="middle" x="214.5" y="-63.5" font-family="FreeSans.ttf" font-size="10.00">Texture.cpp</text>
</a>
</g>
</g>
<!-- Node1&#45;&gt;Node5 -->
<g id="edge7" class="edge">
<title>Node1&#45;&gt;Node5</title>
<path fill="none" stroke="midnightblue" d="M214.5,-213.93C214.5,-177.92 214.5,-101.23 214.5,-75.57"/>
<polygon fill="midnightblue" stroke="midnightblue" points="211,-214.08 214.5,-224.08 218,-214.08 211,-214.08"/>
</g>
<!-- Node8 -->
<g id="node8" class="node">
<title>Node8</title>
<g id="a_node8"><a xlink:href="Visualizer_8cpp.html" target="_top" xlink:title=" ">
<polygon fill="none" stroke="black" points="242.5,-168.5 242.5,-187.5 326.5,-187.5 326.5,-168.5 242.5,-168.5"/>
<text text-anchor="middle" x="284.5" y="-175.5" font-family="FreeSans.ttf" font-size="10.00">Visualizer.cpp</text>
</a>
</g>
</g>
<!-- Node1&#45;&gt;Node8 -->
<g id="edge8" class="edge">
<title>Node1&#45;&gt;Node8</title>
<path fill="none" stroke="midnightblue" d="M233.81,-218.1C246.41,-208.38 262.43,-196.03 273.05,-187.83"/>
<polygon fill="midnightblue" stroke="midnightblue" points="231.53,-215.44 225.75,-224.32 235.8,-220.99 231.53,-215.44"/>
</g>
<!-- Node3 -->
<g id="node3" class="node">
<title>Node3</title>
<g id="a_node3"><a xlink:href="Environment_8cpp.html" target="_top" xlink:title=" ">
<polygon fill="none" stroke="black" points="0,-112.5 0,-131.5 99,-131.5 99,-112.5 0,-112.5"/>
<text text-anchor="middle" x="49.5" y="-119.5" font-family="FreeSans.ttf" font-size="10.00">Environment.cpp</text>
</a>
</g>
</g>
<!-- Node2&#45;&gt;Node3 -->
<g id="edge2" class="edge">
<title>Node2&#45;&gt;Node3</title>
<path fill="none" stroke="midnightblue" d="M118.69,-163.18C101.58,-153.24 79.03,-140.15 64.4,-131.65"/>
<polygon fill="midnightblue" stroke="midnightblue" points="117.15,-166.33 127.56,-168.32 120.67,-160.28 117.15,-166.33"/>
</g>
<!-- Node4 -->
<g id="node4" class="node">
<title>Node4</title>
<g id="a_node4"><a xlink:href="Texture_8h.html" target="_top" xlink:title=" ">
<polygon fill="none" stroke="black" points="117.5,-112.5 117.5,-131.5 179.5,-131.5 179.5,-112.5 117.5,-112.5"/>
<text text-anchor="middle" x="148.5" y="-119.5" font-family="FreeSans.ttf" font-size="10.00">Texture.h</text>
</a>
</g>
</g>
<!-- Node2&#45;&gt;Node4 -->
<g id="edge3" class="edge">
<title>Node2&#45;&gt;Node4</title>
<path fill="none" stroke="midnightblue" d="M144.6,-158.1C145.6,-149.14 146.74,-138.86 147.53,-131.75"/>
<polygon fill="midnightblue" stroke="midnightblue" points="141.12,-157.76 143.49,-168.08 148.07,-158.53 141.12,-157.76"/>
</g>
<!-- Node4&#45;&gt;Node5 -->
<g id="edge4" class="edge">
<title>Node4&#45;&gt;Node5</title>
<path fill="none" stroke="midnightblue" d="M167.05,-105.82C178.88,-96.15 193.79,-83.95 203.7,-75.83"/>
<polygon fill="midnightblue" stroke="midnightblue" points="164.63,-103.28 159.1,-112.32 169.06,-108.7 164.63,-103.28"/>
</g>
<!-- Node6 -->
<g id="node6" class="node">
<title>Node6</title>
<g id="a_node6"><a xlink:href="TexturesHandler_8h.html" target="_top" xlink:title=" ">
<polygon fill="none" stroke="black" points="55.5,-56.5 55.5,-75.5 159.5,-75.5 159.5,-56.5 55.5,-56.5"/>
<text text-anchor="middle" x="107.5" y="-63.5" font-family="FreeSans.ttf" font-size="10.00">TexturesHandler.h</text>
</a>
</g>
</g>
<!-- Node4&#45;&gt;Node6 -->
<g id="edge5" class="edge">
<title>Node4&#45;&gt;Node6</title>
<path fill="none" stroke="midnightblue" d="M135.48,-103.86C128.38,-94.5 119.9,-83.33 114.14,-75.75"/>
<polygon fill="midnightblue" stroke="midnightblue" points="132.89,-106.24 141.73,-112.08 138.47,-102 132.89,-106.24"/>
</g>
<!-- Node7 -->
<g id="node7" class="node">
<title>Node7</title>
<g id="a_node7"><a xlink:href="TexturesHandler_8cpp.html" target="_top" xlink:title=" ">
<polygon fill="none" stroke="black" points="49.5,-0.5 49.5,-19.5 165.5,-19.5 165.5,-0.5 49.5,-0.5"/>
<text text-anchor="middle" x="107.5" y="-7.5" font-family="FreeSans.ttf" font-size="10.00">TexturesHandler.cpp</text>
</a>
</g>
</g>
<!-- Node6&#45;&gt;Node7 -->
<g id="edge6" class="edge">
<title>Node6&#45;&gt;Node7</title>
<path fill="none" stroke="midnightblue" d="M107.5,-45.8C107.5,-36.91 107.5,-26.78 107.5,-19.75"/>
<polygon fill="midnightblue" stroke="midnightblue" points="104,-46.08 107.5,-56.08 111,-46.08 104,-46.08"/>
</g>
</g>
</svg>
