<?xml version="1.0" encoding="UTF-8" standalone="no"?>
<!DOCTYPE svg PUBLIC "-//W3C//DTD SVG 1.1//EN"
 "http://www.w3.org/Graphics/SVG/1.1/DTD/svg11.dtd">
<!-- Generated by graphviz version 2.43.0 (0)
 -->
<!-- Title: DynamicalSystem.cpp Pages: 1 -->
<svg width="831pt" height="252pt"
 viewBox="0.00 0.00 831.00 252.00" xmlns="http://www.w3.org/2000/svg" xmlns:xlink="http://www.w3.org/1999/xlink">
<g id="graph0" class="graph" transform="scale(1 1) rotate(0) translate(4 248)">
<title>DynamicalSystem.cpp</title>
<!-- Node1 -->
<g id="node1" class="node">
<title>Node1</title>
<g id="a_node1"><a xlink:title=" ">
<polygon fill="#bfbfbf" stroke="black" points="78.5,-224.5 78.5,-243.5 204.5,-243.5 204.5,-224.5 78.5,-224.5"/>
<text text-anchor="middle" x="141.5" y="-231.5" font-family="FreeSans.ttf" font-size="10.00">DynamicalSystem.cpp</text>
</a>
</g>
</g>
<!-- Node2 -->
<g id="node2" class="node">
<title>Node2</title>
<g id="a_node2"><a xlink:href="DynamicalSystem_8h.html" target="_top" xlink:title=" ">
<polygon fill="none" stroke="black" points="214,-168.5 214,-187.5 375,-187.5 375,-168.5 214,-168.5"/>
<text text-anchor="middle" x="294.5" y="-175.5" font-family="FreeSans.ttf" font-size="10.00">iDynTree/DynamicalSystem.h</text>
</a>
</g>
</g>
<!-- Node1&#45;&gt;Node2 -->
<g id="edge1" class="edge">
<title>Node1&#45;&gt;Node2</title>
<path fill="none" stroke="midnightblue" d="M165.74,-224.44C191.37,-215.4 231.99,-201.06 260.74,-190.92"/>
<polygon fill="midnightblue" stroke="midnightblue" points="262.11,-194.15 270.37,-187.52 259.78,-187.54 262.11,-194.15"/>
</g>
<!-- Node8 -->
<g id="node8" class="node">
<title>Node8</title>
<g id="a_node8"><a xlink:title=" ">
<polygon fill="none" stroke="#bfbfbf" points="159,-0.5 159,-19.5 212,-19.5 212,-0.5 159,-0.5"/>
<text text-anchor="middle" x="185.5" y="-7.5" font-family="FreeSans.ttf" font-size="10.00">cstddef</text>
</a>
</g>
</g>
<!-- Node1&#45;&gt;Node8 -->
<g id="edge25" class="edge">
<title>Node1&#45;&gt;Node8</title>
<path fill="none" stroke="midnightblue" d="M147.81,-224.18C153.71,-215.45 162.23,-201.46 166.5,-188 184.05,-132.64 186.07,-63.18 185.91,-30.15"/>
<polygon fill="midnightblue" stroke="midnightblue" points="189.4,-29.68 185.77,-19.72 182.4,-29.77 189.4,-29.68"/>
</g>
<!-- Node16 -->
<g id="node16" class="node">
<title>Node16</title>
<g id="a_node16"><a xlink:href="Utils_8h.html" target="_top" xlink:title=" ">
<polygon fill="none" stroke="black" points="0,-56.5 0,-75.5 119,-75.5 119,-56.5 0,-56.5"/>
<text text-anchor="middle" x="59.5" y="-63.5" font-family="FreeSans.ttf" font-size="10.00">iDynTree/Core/Utils.h</text>
</a>
</g>
</g>
<!-- Node1&#45;&gt;Node16 -->
<g id="edge24" class="edge">
<title>Node1&#45;&gt;Node16</title>
<path fill="none" stroke="midnightblue" d="M85.59,-224.46C64.03,-218.14 41.48,-207.14 28.5,-188 6.59,-155.69 30.82,-109 47.13,-84.12"/>
<polygon fill="midnightblue" stroke="midnightblue" points="50.12,-85.95 52.89,-75.73 44.35,-82 50.12,-85.95"/>
</g>
<!-- Node20 -->
<g id="node20" class="node">
<title>Node20</title>
<g id="a_node20"><a xlink:href="Controller_8h.html" target="_top" xlink:title=" ">
<polygon fill="none" stroke="black" points="38,-168.5 38,-187.5 157,-187.5 157,-168.5 38,-168.5"/>
<text text-anchor="middle" x="97.5" y="-175.5" font-family="FreeSans.ttf" font-size="10.00">iDynTree/Controller.h</text>
</a>
</g>
</g>
<!-- Node1&#45;&gt;Node20 -->
<g id="edge22" class="edge">
<title>Node1&#45;&gt;Node20</title>
<path fill="none" stroke="midnightblue" d="M134.23,-224.08C127.96,-216.38 118.71,-205.03 111.07,-195.65"/>
<polygon fill="midnightblue" stroke="midnightblue" points="113.66,-193.29 104.63,-187.75 108.23,-197.71 113.66,-193.29"/>
</g>
<!-- Node3 -->
<g id="node3" class="node">
<title>Node3</title>
<g id="a_node3"><a xlink:href="VectorDynSize_8h.html" target="_top" xlink:title=" ">
<polygon fill="none" stroke="black" points="387,-112.5 387,-131.5 554,-131.5 554,-112.5 387,-112.5"/>
<text text-anchor="middle" x="470.5" y="-119.5" font-family="FreeSans.ttf" font-size="10.00">iDynTree/Core/VectorDynSize.h</text>
</a>
</g>
</g>
<!-- Node2&#45;&gt;Node3 -->
<g id="edge2" class="edge">
<title>Node2&#45;&gt;Node3</title>
<path fill="none" stroke="midnightblue" d="M322.39,-168.44C352.25,-159.28 399.81,-144.69 432.96,-134.52"/>
<polygon fill="midnightblue" stroke="midnightblue" points="434.21,-137.8 442.74,-131.52 432.16,-131.1 434.21,-137.8"/>
</g>
<!-- Node15 -->
<g id="node15" class="node">
<title>Node15</title>
<g id="a_node15"><a xlink:href="SparsityStructure_8h.html" target="_top" xlink:title=" ">
<polygon fill="none" stroke="black" points="214,-112.5 214,-131.5 369,-131.5 369,-112.5 214,-112.5"/>
<text text-anchor="middle" x="291.5" y="-119.5" font-family="FreeSans.ttf" font-size="10.00">iDynTree/SparsityStructure.h</text>
</a>
</g>
</g>
<!-- Node2&#45;&gt;Node15 -->
<g id="edge14" class="edge">
<title>Node2&#45;&gt;Node15</title>
<path fill="none" stroke="midnightblue" d="M294,-168.08C293.61,-161.01 293.05,-150.86 292.55,-141.99"/>
<polygon fill="midnightblue" stroke="midnightblue" points="296.04,-141.54 291.99,-131.75 289.05,-141.93 296.04,-141.54"/>
</g>
<!-- Node4 -->
<g id="node4" class="node">
<title>Node4</title>
<g id="a_node4"><a xlink:href="Span_8h.html" target="_top" xlink:title=" ">
<polygon fill="none" stroke="black" points="484,-56.5 484,-75.5 605,-75.5 605,-56.5 484,-56.5"/>
<text text-anchor="middle" x="544.5" y="-63.5" font-family="FreeSans.ttf" font-size="10.00">iDynTree/Core/Span.h</text>
</a>
</g>
</g>
<!-- Node3&#45;&gt;Node4 -->
<g id="edge3" class="edge">
<title>Node3&#45;&gt;Node4</title>
<path fill="none" stroke="midnightblue" d="M482.39,-112.32C493.65,-104.11 510.79,-91.6 524.21,-81.81"/>
<polygon fill="midnightblue" stroke="midnightblue" points="526.38,-84.56 532.39,-75.83 522.25,-78.9 526.38,-84.56"/>
</g>
<!-- Node14 -->
<g id="node14" class="node">
<title>Node14</title>
<g id="a_node14"><a xlink:title=" ">
<polygon fill="none" stroke="#bfbfbf" points="421.5,-56.5 421.5,-75.5 465.5,-75.5 465.5,-56.5 421.5,-56.5"/>
<text text-anchor="middle" x="443.5" y="-63.5" font-family="FreeSans.ttf" font-size="10.00">string</text>
</a>
</g>
</g>
<!-- Node3&#45;&gt;Node14 -->
<g id="edge13" class="edge">
<title>Node3&#45;&gt;Node14</title>
<path fill="none" stroke="midnightblue" d="M466.04,-112.08C462.35,-104.69 456.98,-93.95 452.41,-84.81"/>
<polygon fill="midnightblue" stroke="midnightblue" points="455.48,-83.13 447.88,-75.75 449.22,-86.26 455.48,-83.13"/>
</g>
<!-- Node5 -->
<g id="node5" class="node">
<title>Node5</title>
<g id="a_node5"><a xlink:title=" ">
<polygon fill="none" stroke="#bfbfbf" points="411.5,-0.5 411.5,-19.5 463.5,-19.5 463.5,-0.5 411.5,-0.5"/>
<text text-anchor="middle" x="437.5" y="-7.5" font-family="FreeSans.ttf" font-size="10.00">cassert</text>
</a>
</g>
</g>
<!-- Node4&#45;&gt;Node5 -->
<g id="edge4" class="edge">
<title>Node4&#45;&gt;Node5</title>
<path fill="none" stroke="midnightblue" d="M527.31,-56.32C510.15,-47.66 483.55,-34.24 463.75,-24.25"/>
<polygon fill="midnightblue" stroke="midnightblue" points="465.15,-21.04 454.65,-19.65 462,-27.28 465.15,-21.04"/>
</g>
<!-- Node6 -->
<g id="node6" class="node">
<title>Node6</title>
<g id="a_node6"><a xlink:title=" ">
<polygon fill="none" stroke="#bfbfbf" points="481.5,-0.5 481.5,-19.5 545.5,-19.5 545.5,-0.5 481.5,-0.5"/>
<text text-anchor="middle" x="513.5" y="-7.5" font-family="FreeSans.ttf" font-size="10.00">algorithm</text>
</a>
</g>
</g>
<!-- Node4&#45;&gt;Node6 -->
<g id="edge5" class="edge">
<title>Node4&#45;&gt;Node6</title>
<path fill="none" stroke="midnightblue" d="M539.38,-56.08C535.09,-48.61 528.84,-37.72 523.56,-28.52"/>
<polygon fill="midnightblue" stroke="midnightblue" points="526.54,-26.68 518.52,-19.75 520.47,-30.17 526.54,-26.68"/>
</g>
<!-- Node7 -->
<g id="node7" class="node">
<title>Node7</title>
<g id="a_node7"><a xlink:title=" ">
<polygon fill="none" stroke="#bfbfbf" points="563.5,-0.5 563.5,-19.5 605.5,-19.5 605.5,-0.5 563.5,-0.5"/>
<text text-anchor="middle" x="584.5" y="-7.5" font-family="FreeSans.ttf" font-size="10.00">array</text>
</a>
</g>
</g>
<!-- Node4&#45;&gt;Node7 -->
<g id="edge6" class="edge">
<title>Node4&#45;&gt;Node7</title>
<path fill="none" stroke="midnightblue" d="M551.11,-56.08C556.76,-48.46 565.04,-37.26 571.95,-27.94"/>
<polygon fill="midnightblue" stroke="midnightblue" points="574.88,-29.87 578.02,-19.75 569.25,-25.7 574.88,-29.87"/>
</g>
<!-- Node4&#45;&gt;Node8 -->
<g id="edge7" class="edge">
<title>Node4&#45;&gt;Node8</title>
<path fill="none" stroke="midnightblue" d="M487.62,-56.44C413.23,-45.25 285.03,-25.97 222.27,-16.53"/>
<polygon fill="midnightblue" stroke="midnightblue" points="222.47,-13.02 212.06,-15 221.43,-19.94 222.47,-13.02"/>
</g>
<!-- Node9 -->
<g id="node9" class="node">
<title>Node9</title>
<g id="a_node9"><a xlink:title=" ">
<polygon fill="none" stroke="#bfbfbf" points="624,-0.5 624,-19.5 677,-19.5 677,-0.5 624,-0.5"/>
<text text-anchor="middle" x="650.5" y="-7.5" font-family="FreeSans.ttf" font-size="10.00">iterator</text>
</a>
</g>
</g>
<!-- Node4&#45;&gt;Node9 -->
<g id="edge8" class="edge">
<title>Node4&#45;&gt;Node9</title>
<path fill="none" stroke="midnightblue" d="M561.53,-56.32C578.53,-47.66 604.88,-34.24 624.49,-24.25"/>
<polygon fill="midnightblue" stroke="midnightblue" points="626.19,-27.31 633.51,-19.65 623.01,-21.08 626.19,-27.31"/>
</g>
<!-- Node10 -->
<g id="node10" class="node">
<title>Node10</title>
<g id="a_node10"><a xlink:title=" ">
<polygon fill="none" stroke="#bfbfbf" points="695.5,-0.5 695.5,-19.5 739.5,-19.5 739.5,-0.5 695.5,-0.5"/>
<text text-anchor="middle" x="717.5" y="-7.5" font-family="FreeSans.ttf" font-size="10.00">limits</text>
</a>
</g>
</g>
<!-- Node4&#45;&gt;Node10 -->
<g id="edge9" class="edge">
<title>Node4&#45;&gt;Node10</title>
<path fill="none" stroke="midnightblue" d="M571.91,-56.44C602.78,-46.81 652.86,-31.18 685.5,-20.99"/>
<polygon fill="midnightblue" stroke="midnightblue" points="686.93,-24.21 695.43,-17.89 684.84,-17.53 686.93,-24.21"/>
</g>
<!-- Node11 -->
<g id="node11" class="node">
<title>Node11</title>
<g id="a_node11"><a xlink:title=" ">
<polygon fill="none" stroke="#bfbfbf" points="758,-0.5 758,-19.5 823,-19.5 823,-0.5 758,-0.5"/>
<text text-anchor="middle" x="790.5" y="-7.5" font-family="FreeSans.ttf" font-size="10.00">stdexcept</text>
</a>
</g>
</g>
<!-- Node4&#45;&gt;Node11 -->
<g id="edge10" class="edge">
<title>Node4&#45;&gt;Node11</title>
<path fill="none" stroke="midnightblue" d="M583.48,-56.44C628.32,-46.6 701.69,-30.49 747.98,-20.33"/>
<polygon fill="midnightblue" stroke="midnightblue" points="748.97,-23.7 757.99,-18.14 747.47,-16.86 748.97,-23.7"/>
</g>
<!-- Node12 -->
<g id="node12" class="node">
<title>Node12</title>
<g id="a_node12"><a xlink:title=" ">
<polygon fill="none" stroke="#bfbfbf" points="261,-0.5 261,-19.5 330,-19.5 330,-0.5 261,-0.5"/>
<text text-anchor="middle" x="295.5" y="-7.5" font-family="FreeSans.ttf" font-size="10.00">type_traits</text>
</a>
</g>
</g>
<!-- Node4&#45;&gt;Node12 -->
<g id="edge11" class="edge">
<title>Node4&#45;&gt;Node12</title>
<path fill="none" stroke="midnightblue" d="M505.05,-56.44C460.2,-46.72 387.16,-30.88 340.24,-20.7"/>
<polygon fill="midnightblue" stroke="midnightblue" points="340.87,-17.26 330.35,-18.56 339.38,-24.1 340.87,-17.26"/>
</g>
<!-- Node13 -->
<g id="node13" class="node">
<title>Node13</title>
<g id="a_node13"><a xlink:title=" ">
<polygon fill="none" stroke="#bfbfbf" points="348,-0.5 348,-19.5 393,-19.5 393,-0.5 348,-0.5"/>
<text text-anchor="middle" x="370.5" y="-7.5" font-family="FreeSans.ttf" font-size="10.00">utility</text>
</a>
</g>
</g>
<!-- Node4&#45;&gt;Node13 -->
<g id="edge12" class="edge">
<title>Node4&#45;&gt;Node13</title>
<path fill="none" stroke="midnightblue" d="M516.93,-56.44C485.93,-46.82 435.64,-31.21 402.81,-21.03"/>
<polygon fill="midnightblue" stroke="midnightblue" points="403.82,-17.68 393.23,-18.05 401.74,-24.36 403.82,-17.68"/>
</g>
<!-- Node15&#45;&gt;Node8 -->
<g id="edge19" class="edge">
<title>Node15&#45;&gt;Node8</title>
<path fill="none" stroke="midnightblue" d="M281.7,-112.28C271.82,-103.39 256.26,-89.08 243.5,-76 227.9,-60.02 211,-40.85 199.49,-27.48"/>
<polygon fill="midnightblue" stroke="midnightblue" points="201.93,-24.95 192.77,-19.63 196.62,-29.51 201.93,-24.95"/>
</g>
<!-- Node15&#45;&gt;Node14 -->
<g id="edge21" class="edge">
<title>Node15&#45;&gt;Node14</title>
<path fill="none" stroke="midnightblue" d="M315.58,-112.44C341.49,-103.24 382.82,-88.56 411.46,-78.38"/>
<polygon fill="midnightblue" stroke="midnightblue" points="412.76,-81.63 421.01,-74.99 410.42,-75.04 412.76,-81.63"/>
</g>
<!-- Node15&#45;&gt;Node16 -->
<g id="edge15" class="edge">
<title>Node15&#45;&gt;Node16</title>
<path fill="none" stroke="midnightblue" d="M254.74,-112.44C214.44,-103.06 149.69,-87.99 105.92,-77.8"/>
<polygon fill="midnightblue" stroke="midnightblue" points="106.62,-74.37 96.09,-75.52 105.04,-81.19 106.62,-74.37"/>
</g>
<!-- Node18 -->
<g id="node18" class="node">
<title>Node18</title>
<g id="a_node18"><a xlink:title=" ">
<polygon fill="none" stroke="#bfbfbf" points="252,-56.5 252,-75.5 299,-75.5 299,-56.5 252,-56.5"/>
<text text-anchor="middle" x="275.5" y="-63.5" font-family="FreeSans.ttf" font-size="10.00">vector</text>
</a>
</g>
</g>
<!-- Node15&#45;&gt;Node18 -->
<g id="edge18" class="edge">
<title>Node15&#45;&gt;Node18</title>
<path fill="none" stroke="midnightblue" d="M288.86,-112.08C286.71,-104.85 283.62,-94.41 280.95,-85.4"/>
<polygon fill="midnightblue" stroke="midnightblue" points="284.29,-84.34 278.09,-75.75 277.58,-86.33 284.29,-84.34"/>
</g>
<!-- Node19 -->
<g id="node19" class="node">
<title>Node19</title>
<g id="a_node19"><a xlink:title=" ">
<polygon fill="none" stroke="#bfbfbf" points="317.5,-56.5 317.5,-75.5 403.5,-75.5 403.5,-56.5 317.5,-56.5"/>
<text text-anchor="middle" x="360.5" y="-63.5" font-family="FreeSans.ttf" font-size="10.00">unordered_set</text>
</a>
</g>
</g>
<!-- Node15&#45;&gt;Node19 -->
<g id="edge20" class="edge">
<title>Node15&#45;&gt;Node19</title>
<path fill="none" stroke="midnightblue" d="M302.59,-112.32C312.99,-104.18 328.76,-91.84 341.22,-82.09"/>
<polygon fill="midnightblue" stroke="midnightblue" points="343.49,-84.75 349.21,-75.83 339.18,-79.24 343.49,-84.75"/>
</g>
<!-- Node16&#45;&gt;Node8 -->
<g id="edge16" class="edge">
<title>Node16&#45;&gt;Node8</title>
<path fill="none" stroke="midnightblue" d="M79.47,-56.44C100.11,-47.6 132.56,-33.69 156.13,-23.59"/>
<polygon fill="midnightblue" stroke="midnightblue" points="157.82,-26.67 165.63,-19.52 155.06,-20.24 157.82,-26.67"/>
</g>
<!-- Node17 -->
<g id="node17" class="node">
<title>Node17</title>
<g id="a_node17"><a xlink:title=" ">
<polygon fill="none" stroke="#bfbfbf" points="19.5,-0.5 19.5,-19.5 99.5,-19.5 99.5,-0.5 19.5,-0.5"/>
<text text-anchor="middle" x="59.5" y="-7.5" font-family="FreeSans.ttf" font-size="10.00">CoreExport.h</text>
</a>
</g>
</g>
<!-- Node16&#45;&gt;Node17 -->
<g id="edge17" class="edge">
<title>Node16&#45;&gt;Node17</title>
<path fill="none" stroke="midnightblue" d="M59.5,-56.08C59.5,-49.01 59.5,-38.86 59.5,-29.99"/>
<polygon fill="midnightblue" stroke="midnightblue" points="63,-29.75 59.5,-19.75 56,-29.75 63,-29.75"/>
</g>
<!-- Node20&#45;&gt;Node8 -->
<g id="edge23" class="edge">
<title>Node20&#45;&gt;Node8</title>
<path fill="none" stroke="midnightblue" d="M102.23,-168.08C116.2,-141.72 157.47,-63.88 176.14,-28.66"/>
<polygon fill="midnightblue" stroke="midnightblue" points="179.37,-30.04 180.96,-19.57 173.18,-26.76 179.37,-30.04"/>
</g>
</g>
</svg>
