<?xml version="1.0" encoding="UTF-8" standalone="no"?>
<!DOCTYPE svg PUBLIC "-//W3C//DTD SVG 1.1//EN"
 "http://www.w3.org/Graphics/SVG/1.1/DTD/svg11.dtd">
<!-- Generated by graphviz version 2.43.0 (0)
 -->
<!-- Title: Dynamics.h Pages: 1 -->
<svg width="1170pt" height="207pt"
 viewBox="0.00 0.00 1169.50 207.00" xmlns="http://www.w3.org/2000/svg" xmlns:xlink="http://www.w3.org/1999/xlink">
<g id="graph0" class="graph" transform="scale(1 1) rotate(0) translate(4 203)">
<title>Dynamics.h</title>
<!-- Node1 -->
<g id="node1" class="node">
<title>Node1</title>
<g id="a_node1"><a xlink:title=" ">
<polygon fill="#bfbfbf" stroke="black" points="567.5,-179.5 567.5,-198.5 641.5,-198.5 641.5,-179.5 567.5,-179.5"/>
<text text-anchor="middle" x="604.5" y="-186.5" font-family="FreeSans.ttf" font-size="10.00">Dynamics.h</text>
</a>
</g>
</g>
<!-- Node2 -->
<g id="node2" class="node">
<title>Node2</title>
<g id="a_node2"><a xlink:href="GravityCompensationHelpers_8h.html" target="_top" xlink:title=" ">
<polygon fill="none" stroke="black" points="5.5,-118 5.5,-137 175.5,-137 175.5,-118 5.5,-118"/>
<text text-anchor="middle" x="90.5" y="-125" font-family="FreeSans.ttf" font-size="10.00">GravityCompensationHelpers.h</text>
</a>
</g>
</g>
<!-- Node1&#45;&gt;Node2 -->
<g id="edge1" class="edge">
<title>Node1&#45;&gt;Node2</title>
<path fill="none" stroke="midnightblue" d="M557.38,-183.67C479.6,-176.36 319.51,-160.64 184.5,-143 171.07,-141.25 156.6,-139.13 143.14,-137.06"/>
<polygon fill="midnightblue" stroke="midnightblue" points="557.07,-187.16 567.35,-184.6 557.72,-180.19 557.07,-187.16"/>
</g>
<!-- Node4 -->
<g id="node4" class="node">
<title>Node4</title>
<g id="a_node4"><a xlink:href="BerdyHelper_8cpp.html" target="_top" xlink:title=" ">
<polygon fill="none" stroke="black" points="194,-118 194,-137 291,-137 291,-118 194,-118"/>
<text text-anchor="middle" x="242.5" y="-125" font-family="FreeSans.ttf" font-size="10.00">BerdyHelper.cpp</text>
</a>
</g>
</g>
<!-- Node1&#45;&gt;Node4 -->
<g id="edge3" class="edge">
<title>Node1&#45;&gt;Node4</title>
<path fill="none" stroke="midnightblue" d="M557.03,-182.44C497,-175.07 390.6,-160.89 300.5,-143 291.95,-141.3 282.76,-139.16 274.28,-137.04"/>
<polygon fill="midnightblue" stroke="midnightblue" points="556.98,-185.96 567.33,-183.69 557.83,-179.01 556.98,-185.96"/>
</g>
<!-- Node5 -->
<g id="node5" class="node">
<title>Node5</title>
<g id="a_node5"><a xlink:href="ExtWrenchesAndJointTorquesEstimator_8cpp.html" target="_top" xlink:title=" ">
<polygon fill="none" stroke="black" points="309.5,-112.5 309.5,-142.5 467.5,-142.5 467.5,-112.5 309.5,-112.5"/>
<text text-anchor="start" x="317.5" y="-130.5" font-family="FreeSans.ttf" font-size="10.00">ExtWrenchesAndJointTorques</text>
<text text-anchor="middle" x="388.5" y="-119.5" font-family="FreeSans.ttf" font-size="10.00">Estimator.cpp</text>
</a>
</g>
</g>
<!-- Node1&#45;&gt;Node5 -->
<g id="edge4" class="edge">
<title>Node1&#45;&gt;Node5</title>
<path fill="none" stroke="midnightblue" d="M563.6,-176.73C528.35,-167.02 477.3,-152.96 439.41,-142.52"/>
<polygon fill="midnightblue" stroke="midnightblue" points="562.98,-180.19 573.55,-179.48 564.84,-173.44 562.98,-180.19"/>
</g>
<!-- Node6 -->
<g id="node6" class="node">
<title>Node6</title>
<g id="a_node6"><a xlink:href="KinDynComputations_8cpp.html" target="_top" xlink:title=" ">
<polygon fill="none" stroke="black" points="485.5,-118 485.5,-137 625.5,-137 625.5,-118 485.5,-118"/>
<text text-anchor="middle" x="555.5" y="-125" font-family="FreeSans.ttf" font-size="10.00">KinDynComputations.cpp</text>
</a>
</g>
</g>
<!-- Node1&#45;&gt;Node6 -->
<g id="edge5" class="edge">
<title>Node1&#45;&gt;Node6</title>
<path fill="none" stroke="midnightblue" d="M591.05,-171.67C581.81,-160.45 569.93,-146.02 562.51,-137.01"/>
<polygon fill="midnightblue" stroke="midnightblue" points="588.42,-173.98 597.48,-179.48 593.82,-169.53 588.42,-173.98"/>
</g>
<!-- Node7 -->
<g id="node7" class="node">
<title>Node7</title>
<g id="a_node7"><a xlink:href="DynamicsLinearization_8h.html" target="_top" xlink:title=" ">
<polygon fill="none" stroke="black" points="585,-56.5 585,-75.5 722,-75.5 722,-56.5 585,-56.5"/>
<text text-anchor="middle" x="653.5" y="-63.5" font-family="FreeSans.ttf" font-size="10.00">DynamicsLinearization.h</text>
</a>
</g>
</g>
<!-- Node1&#45;&gt;Node7 -->
<g id="edge6" class="edge">
<title>Node1&#45;&gt;Node7</title>
<path fill="none" stroke="midnightblue" d="M617.83,-171.03C623.66,-162.92 630.14,-152.86 634.5,-143 644.73,-119.87 650.13,-90.23 652.31,-75.75"/>
<polygon fill="midnightblue" stroke="midnightblue" points="614.88,-169.13 611.68,-179.23 620.48,-173.33 614.88,-169.13"/>
</g>
<!-- Node9 -->
<g id="node9" class="node">
<title>Node9</title>
<g id="a_node9"><a xlink:href="DynamicsLinearizationHelpers_8h.html" target="_top" xlink:title=" ">
<polygon fill="none" stroke="black" points="682,-118 682,-137 857,-137 857,-118 682,-118"/>
<text text-anchor="middle" x="769.5" y="-125" font-family="FreeSans.ttf" font-size="10.00">DynamicsLinearizationHelpers.h</text>
</a>
</g>
</g>
<!-- Node1&#45;&gt;Node9 -->
<g id="edge8" class="edge">
<title>Node1&#45;&gt;Node9</title>
<path fill="none" stroke="midnightblue" d="M637.55,-176.08C669.62,-164.52 717.5,-147.25 745.9,-137.01"/>
<polygon fill="midnightblue" stroke="midnightblue" points="636.36,-172.79 628.14,-179.48 638.73,-179.38 636.36,-172.79"/>
</g>
<!-- Node11 -->
<g id="node11" class="node">
<title>Node11</title>
<g id="a_node11"><a xlink:href="Dynamics_8cpp.html" target="_top" xlink:title=" ">
<polygon fill="none" stroke="black" points="875.5,-118 875.5,-137 961.5,-137 961.5,-118 875.5,-118"/>
<text text-anchor="middle" x="918.5" y="-125" font-family="FreeSans.ttf" font-size="10.00">Dynamics.cpp</text>
</a>
</g>
</g>
<!-- Node1&#45;&gt;Node11 -->
<g id="edge11" class="edge">
<title>Node1&#45;&gt;Node11</title>
<path fill="none" stroke="midnightblue" d="M651.67,-181.38C704.34,-173.64 791.99,-159.74 866.5,-143 874.18,-141.27 882.42,-139.12 890.02,-137"/>
<polygon fill="midnightblue" stroke="midnightblue" points="651.01,-177.94 641.61,-182.84 652.01,-184.86 651.01,-177.94"/>
</g>
<!-- Node12 -->
<g id="node12" class="node">
<title>Node12</title>
<g id="a_node12"><a xlink:href="PredictSensorsMeasurements_8cpp.html" target="_top" xlink:title=" ">
<polygon fill="none" stroke="black" points="979.5,-118 979.5,-137 1161.5,-137 1161.5,-118 979.5,-118"/>
<text text-anchor="middle" x="1070.5" y="-125" font-family="FreeSans.ttf" font-size="10.00">PredictSensorsMeasurements.cpp</text>
</a>
</g>
</g>
<!-- Node1&#45;&gt;Node12 -->
<g id="edge12" class="edge">
<title>Node1&#45;&gt;Node12</title>
<path fill="none" stroke="midnightblue" d="M651.91,-182.5C721.73,-174.33 856.28,-158.3 970.5,-143 984.32,-141.15 999.2,-139.05 1013.15,-137.03"/>
<polygon fill="midnightblue" stroke="midnightblue" points="651.21,-179.06 641.68,-183.7 652.02,-186.01 651.21,-179.06"/>
</g>
<!-- Node3 -->
<g id="node3" class="node">
<title>Node3</title>
<g id="a_node3"><a xlink:href="GravityCompensationHelpers_8cpp.html" target="_top" xlink:title=" ">
<polygon fill="none" stroke="black" points="0,-56.5 0,-75.5 181,-75.5 181,-56.5 0,-56.5"/>
<text text-anchor="middle" x="90.5" y="-63.5" font-family="FreeSans.ttf" font-size="10.00">GravityCompensationHelpers.cpp</text>
</a>
</g>
</g>
<!-- Node2&#45;&gt;Node3 -->
<g id="edge2" class="edge">
<title>Node2&#45;&gt;Node3</title>
<path fill="none" stroke="midnightblue" d="M90.5,-107.82C90.5,-97 90.5,-83.9 90.5,-75.51"/>
<polygon fill="midnightblue" stroke="midnightblue" points="87,-107.98 90.5,-117.98 94,-107.98 87,-107.98"/>
</g>
<!-- Node8 -->
<g id="node8" class="node">
<title>Node8</title>
<g id="a_node8"><a xlink:href="DynamicsLinearization_8cpp.html" target="_top" xlink:title=" ">
<polygon fill="none" stroke="black" points="579,-0.5 579,-19.5 728,-19.5 728,-0.5 579,-0.5"/>
<text text-anchor="middle" x="653.5" y="-7.5" font-family="FreeSans.ttf" font-size="10.00">DynamicsLinearization.cpp</text>
</a>
</g>
</g>
<!-- Node7&#45;&gt;Node8 -->
<g id="edge7" class="edge">
<title>Node7&#45;&gt;Node8</title>
<path fill="none" stroke="midnightblue" d="M653.5,-45.8C653.5,-36.91 653.5,-26.78 653.5,-19.75"/>
<polygon fill="midnightblue" stroke="midnightblue" points="650,-46.08 653.5,-56.08 657,-46.08 650,-46.08"/>
</g>
<!-- Node9&#45;&gt;Node7 -->
<g id="edge9" class="edge">
<title>Node9&#45;&gt;Node7</title>
<path fill="none" stroke="midnightblue" d="M743.9,-113.37C721.41,-101.83 689.37,-85.4 670.09,-75.51"/>
<polygon fill="midnightblue" stroke="midnightblue" points="742.38,-116.53 752.88,-117.98 745.58,-110.3 742.38,-116.53"/>
</g>
<!-- Node10 -->
<g id="node10" class="node">
<title>Node10</title>
<g id="a_node10"><a xlink:href="DynamicsLinearizationHelpers_8cpp.html" target="_top" xlink:title=" ">
<polygon fill="none" stroke="black" points="740.5,-56.5 740.5,-75.5 926.5,-75.5 926.5,-56.5 740.5,-56.5"/>
<text text-anchor="middle" x="833.5" y="-63.5" font-family="FreeSans.ttf" font-size="10.00">DynamicsLinearizationHelpers.cpp</text>
</a>
</g>
</g>
<!-- Node9&#45;&gt;Node10 -->
<g id="edge10" class="edge">
<title>Node9&#45;&gt;Node10</title>
<path fill="none" stroke="midnightblue" d="M786.01,-111.15C798.21,-99.81 814.37,-84.78 824.35,-75.51"/>
<polygon fill="midnightblue" stroke="midnightblue" points="783.61,-108.6 778.67,-117.98 788.38,-113.73 783.61,-108.6"/>
</g>
</g>
</svg>
