<?xml version="1.0" encoding="UTF-8" standalone="no"?>
<!DOCTYPE svg PUBLIC "-//W3C//DTD SVG 1.1//EN"
 "http://www.w3.org/Graphics/SVG/1.1/DTD/svg11.dtd">
<!-- Generated by graphviz version 2.43.0 (0)
 -->
<!-- Title: EigenMathHelpers.h Pages: 1 -->
<svg width="362pt" height="95pt"
 viewBox="0.00 0.00 362.00 95.00" xmlns="http://www.w3.org/2000/svg" xmlns:xlink="http://www.w3.org/1999/xlink">
<g id="graph0" class="graph" transform="scale(1 1) rotate(0) translate(4 91)">
<title>EigenMathHelpers.h</title>
<!-- Node1 -->
<g id="node1" class="node">
<title>Node1</title>
<g id="a_node1"><a xlink:title=" ">
<polygon fill="#bfbfbf" stroke="black" points="124.5,-67.5 124.5,-86.5 239.5,-86.5 239.5,-67.5 124.5,-67.5"/>
<text text-anchor="middle" x="182" y="-74.5" font-family="FreeSans.ttf" font-size="10.00">EigenMathHelpers.h</text>
</a>
</g>
</g>
<!-- Node2 -->
<g id="node2" class="node">
<title>Node2</title>
<g id="a_node2"><a xlink:href="ExternalWrenchesEstimation_8cpp.html" target="_top" xlink:title=" ">
<polygon fill="none" stroke="black" points="0,-6 0,-25 178,-25 178,-6 0,-6"/>
<text text-anchor="middle" x="89" y="-13" font-family="FreeSans.ttf" font-size="10.00">ExternalWrenchesEstimation.cpp</text>
</a>
</g>
</g>
<!-- Node1&#45;&gt;Node2 -->
<g id="edge1" class="edge">
<title>Node1&#45;&gt;Node2</title>
<path fill="none" stroke="midnightblue" d="M160.01,-61.93C142.08,-50.46 117.34,-34.63 102.3,-25.01"/>
<polygon fill="midnightblue" stroke="midnightblue" points="158.37,-65.03 168.68,-67.48 162.14,-59.14 158.37,-65.03"/>
</g>
<!-- Node3 -->
<g id="node3" class="node">
<title>Node3</title>
<g id="a_node3"><a xlink:href="ExtWrenchesAndJointTorquesEstimator_8cpp.html" target="_top" xlink:title=" ">
<polygon fill="none" stroke="black" points="196,-0.5 196,-30.5 354,-30.5 354,-0.5 196,-0.5"/>
<text text-anchor="start" x="204" y="-18.5" font-family="FreeSans.ttf" font-size="10.00">ExtWrenchesAndJointTorques</text>
<text text-anchor="middle" x="275" y="-7.5" font-family="FreeSans.ttf" font-size="10.00">Estimator.cpp</text>
</a>
</g>
</g>
<!-- Node1&#45;&gt;Node3 -->
<g id="edge2" class="edge">
<title>Node1&#45;&gt;Node3</title>
<path fill="none" stroke="midnightblue" d="M203.87,-62.01C218.7,-52.52 238.24,-40.02 253.08,-30.52"/>
<polygon fill="midnightblue" stroke="midnightblue" points="201.86,-59.14 195.32,-67.48 205.63,-65.03 201.86,-59.14"/>
</g>
</g>
</svg>
