<?xml version="1.0" encoding="UTF-8" standalone="no"?>
<!DOCTYPE svg PUBLIC "-//W3C//DTD SVG 1.1//EN"
 "http://www.w3.org/Graphics/SVG/1.1/DTD/svg11.dtd">
<!-- Generated by graphviz version 2.43.0 (0)
 -->
<!-- Title: Environment.h Pages: 1 -->
<svg width="269pt" height="196pt"
 viewBox="0.00 0.00 268.50 196.00" xmlns="http://www.w3.org/2000/svg" xmlns:xlink="http://www.w3.org/1999/xlink">
<g id="graph0" class="graph" transform="scale(1 1) rotate(0) translate(4 192)">
<title>Environment.h</title>
<!-- Node1 -->
<g id="node1" class="node">
<title>Node1</title>
<g id="a_node1"><a xlink:title=" ">
<polygon fill="#bfbfbf" stroke="black" points="54.5,-168.5 54.5,-187.5 142.5,-187.5 142.5,-168.5 54.5,-168.5"/>
<text text-anchor="middle" x="98.5" y="-175.5" font-family="FreeSans.ttf" font-size="10.00">Environment.h</text>
</a>
</g>
</g>
<!-- Node2 -->
<g id="node2" class="node">
<title>Node2</title>
<g id="a_node2"><a xlink:href="Environment_8cpp.html" target="_top" xlink:title=" ">
<polygon fill="none" stroke="black" points="0,-112.5 0,-131.5 99,-131.5 99,-112.5 0,-112.5"/>
<text text-anchor="middle" x="49.5" y="-119.5" font-family="FreeSans.ttf" font-size="10.00">Environment.cpp</text>
</a>
</g>
</g>
<!-- Node1&#45;&gt;Node2 -->
<g id="edge1" class="edge">
<title>Node1&#45;&gt;Node2</title>
<path fill="none" stroke="midnightblue" d="M83.47,-160.43C74.88,-150.97 64.46,-139.48 57.44,-131.75"/>
<polygon fill="midnightblue" stroke="midnightblue" points="81.1,-163.03 90.41,-168.08 86.28,-158.33 81.1,-163.03"/>
</g>
<!-- Node3 -->
<g id="node3" class="node">
<title>Node3</title>
<g id="a_node3"><a xlink:href="Texture_8h.html" target="_top" xlink:title=" ">
<polygon fill="none" stroke="black" points="117.5,-112.5 117.5,-131.5 179.5,-131.5 179.5,-112.5 117.5,-112.5"/>
<text text-anchor="middle" x="148.5" y="-119.5" font-family="FreeSans.ttf" font-size="10.00">Texture.h</text>
</a>
</g>
</g>
<!-- Node1&#45;&gt;Node3 -->
<g id="edge2" class="edge">
<title>Node1&#45;&gt;Node3</title>
<path fill="none" stroke="midnightblue" d="M113.58,-160.72C122.39,-151.2 133.17,-139.56 140.4,-131.75"/>
<polygon fill="midnightblue" stroke="midnightblue" points="110.98,-158.37 106.76,-168.08 116.12,-163.12 110.98,-158.37"/>
</g>
<!-- Node4 -->
<g id="node4" class="node">
<title>Node4</title>
<g id="a_node4"><a xlink:href="Texture_8cpp.html" target="_top" xlink:title=" ">
<polygon fill="none" stroke="black" points="59,-56.5 59,-75.5 132,-75.5 132,-56.5 59,-56.5"/>
<text text-anchor="middle" x="95.5" y="-63.5" font-family="FreeSans.ttf" font-size="10.00">Texture.cpp</text>
</a>
</g>
</g>
<!-- Node3&#45;&gt;Node4 -->
<g id="edge3" class="edge">
<title>Node3&#45;&gt;Node4</title>
<path fill="none" stroke="midnightblue" d="M132.52,-104.72C123.18,-95.2 111.75,-83.56 104.09,-75.75"/>
<polygon fill="midnightblue" stroke="midnightblue" points="130.25,-107.4 139.75,-112.08 135.24,-102.49 130.25,-107.4"/>
</g>
<!-- Node5 -->
<g id="node5" class="node">
<title>Node5</title>
<g id="a_node5"><a xlink:href="TexturesHandler_8h.html" target="_top" xlink:title=" ">
<polygon fill="none" stroke="black" points="150.5,-56.5 150.5,-75.5 254.5,-75.5 254.5,-56.5 150.5,-56.5"/>
<text text-anchor="middle" x="202.5" y="-63.5" font-family="FreeSans.ttf" font-size="10.00">TexturesHandler.h</text>
</a>
</g>
</g>
<!-- Node3&#45;&gt;Node5 -->
<g id="edge4" class="edge">
<title>Node3&#45;&gt;Node5</title>
<path fill="none" stroke="midnightblue" d="M164.5,-105C174.07,-95.43 185.86,-83.64 193.75,-75.75"/>
<polygon fill="midnightblue" stroke="midnightblue" points="162.01,-102.54 157.42,-112.08 166.96,-107.49 162.01,-102.54"/>
</g>
<!-- Node6 -->
<g id="node6" class="node">
<title>Node6</title>
<g id="a_node6"><a xlink:href="TexturesHandler_8cpp.html" target="_top" xlink:title=" ">
<polygon fill="none" stroke="black" points="144.5,-0.5 144.5,-19.5 260.5,-19.5 260.5,-0.5 144.5,-0.5"/>
<text text-anchor="middle" x="202.5" y="-7.5" font-family="FreeSans.ttf" font-size="10.00">TexturesHandler.cpp</text>
</a>
</g>
</g>
<!-- Node5&#45;&gt;Node6 -->
<g id="edge5" class="edge">
<title>Node5&#45;&gt;Node6</title>
<path fill="none" stroke="midnightblue" d="M202.5,-45.8C202.5,-36.91 202.5,-26.78 202.5,-19.75"/>
<polygon fill="midnightblue" stroke="midnightblue" points="199,-46.08 202.5,-56.08 206,-46.08 199,-46.08"/>
</g>
</g>
</svg>
