<?xml version="1.0" encoding="UTF-8" standalone="no"?>
<!DOCTYPE svg PUBLIC "-//W3C//DTD SVG 1.1//EN"
 "http://www.w3.org/Graphics/SVG/1.1/DTD/svg11.dtd">
<!-- Generated by graphviz version 2.43.0 (0)
 -->
<!-- Title: ExtendedKalmanFilter.h Pages: 1 -->
<svg width="740pt" height="252pt"
 viewBox="0.00 0.00 740.00 252.00" xmlns="http://www.w3.org/2000/svg" xmlns:xlink="http://www.w3.org/1999/xlink">
<g id="graph0" class="graph" transform="scale(1 1) rotate(0) translate(4 248)">
<title>ExtendedKalmanFilter.h</title>
<!-- Node1 -->
<g id="node1" class="node">
<title>Node1</title>
<g id="a_node1"><a xlink:title=" ">
<polygon fill="#bfbfbf" stroke="black" points="375.5,-224.5 375.5,-243.5 508.5,-243.5 508.5,-224.5 375.5,-224.5"/>
<text text-anchor="middle" x="442" y="-231.5" font-family="FreeSans.ttf" font-size="10.00">ExtendedKalmanFilter.h</text>
</a>
</g>
</g>
<!-- Node2 -->
<g id="node2" class="node">
<title>Node2</title>
<g id="a_node2"><a xlink:href="VectorDynSize_8h.html" target="_top" xlink:title=" ">
<polygon fill="none" stroke="black" points="303.5,-168.5 303.5,-187.5 470.5,-187.5 470.5,-168.5 303.5,-168.5"/>
<text text-anchor="middle" x="387" y="-175.5" font-family="FreeSans.ttf" font-size="10.00">iDynTree/Core/VectorDynSize.h</text>
</a>
</g>
</g>
<!-- Node1&#45;&gt;Node2 -->
<g id="edge1" class="edge">
<title>Node1&#45;&gt;Node2</title>
<path fill="none" stroke="midnightblue" d="M432.92,-224.08C424.83,-216.14 412.8,-204.34 403.09,-194.8"/>
<polygon fill="midnightblue" stroke="midnightblue" points="405.5,-192.26 395.91,-187.75 400.6,-197.25 405.5,-192.26"/>
</g>
<!-- Node14 -->
<g id="node14" class="node">
<title>Node14</title>
<g id="a_node14"><a xlink:href="MatrixDynSize_8h.html" target="_top" xlink:title=" ">
<polygon fill="none" stroke="black" points="118,-168.5 118,-187.5 286,-187.5 286,-168.5 118,-168.5"/>
<text text-anchor="middle" x="202" y="-175.5" font-family="FreeSans.ttf" font-size="10.00">iDynTree/Core/MatrixDynSize.h</text>
</a>
</g>
</g>
<!-- Node1&#45;&gt;Node14 -->
<g id="edge13" class="edge">
<title>Node1&#45;&gt;Node14</title>
<path fill="none" stroke="midnightblue" d="M403.97,-224.44C362.19,-215.04 295.02,-199.93 249.73,-189.74"/>
<polygon fill="midnightblue" stroke="midnightblue" points="250.38,-186.3 239.85,-187.52 248.84,-193.13 250.38,-186.3"/>
</g>
<!-- Node16 -->
<g id="node16" class="node">
<title>Node16</title>
<g id="a_node16"><a xlink:href="Utils_8h.html" target="_top" xlink:title=" ">
<polygon fill="none" stroke="black" points="480.5,-56.5 480.5,-75.5 599.5,-75.5 599.5,-56.5 480.5,-56.5"/>
<text text-anchor="middle" x="540" y="-63.5" font-family="FreeSans.ttf" font-size="10.00">iDynTree/Core/Utils.h</text>
</a>
</g>
</g>
<!-- Node1&#45;&gt;Node16 -->
<g id="edge22" class="edge">
<title>Node1&#45;&gt;Node16</title>
<path fill="none" stroke="midnightblue" d="M449.98,-224.48C457.92,-215.75 470.16,-201.56 479,-188 501.6,-153.32 521.95,-109.15 532.47,-84.92"/>
<polygon fill="midnightblue" stroke="midnightblue" points="535.75,-86.14 536.47,-75.57 529.32,-83.38 535.75,-86.14"/>
</g>
<!-- Node18 -->
<g id="node18" class="node">
<title>Node18</title>
<g id="a_node18"><a xlink:title=" ">
<polygon fill="none" stroke="#bfbfbf" points="526.5,-168.5 526.5,-187.5 573.5,-187.5 573.5,-168.5 526.5,-168.5"/>
<text text-anchor="middle" x="550" y="-175.5" font-family="FreeSans.ttf" font-size="10.00">vector</text>
</a>
</g>
</g>
<!-- Node1&#45;&gt;Node18 -->
<g id="edge23" class="edge">
<title>Node1&#45;&gt;Node18</title>
<path fill="none" stroke="midnightblue" d="M459.35,-224.32C476.67,-215.66 503.52,-202.24 523.5,-192.25"/>
<polygon fill="midnightblue" stroke="midnightblue" points="525.31,-195.26 532.69,-187.65 522.18,-189 525.31,-195.26"/>
</g>
<!-- Node3 -->
<g id="node3" class="node">
<title>Node3</title>
<g id="a_node3"><a xlink:href="Span_8h.html" target="_top" xlink:title=" ">
<polygon fill="none" stroke="black" points="275.5,-56.5 275.5,-75.5 396.5,-75.5 396.5,-56.5 275.5,-56.5"/>
<text text-anchor="middle" x="336" y="-63.5" font-family="FreeSans.ttf" font-size="10.00">iDynTree/Core/Span.h</text>
</a>
</g>
</g>
<!-- Node2&#45;&gt;Node3 -->
<g id="edge2" class="edge">
<title>Node2&#45;&gt;Node3</title>
<path fill="none" stroke="midnightblue" d="M383,-168.37C374.69,-150.46 355.44,-108.92 344.32,-84.95"/>
<polygon fill="midnightblue" stroke="midnightblue" points="347.36,-83.19 339.98,-75.59 341.01,-86.14 347.36,-83.19"/>
</g>
<!-- Node13 -->
<g id="node13" class="node">
<title>Node13</title>
<g id="a_node13"><a xlink:title=" ">
<polygon fill="none" stroke="#bfbfbf" points="301,-112.5 301,-131.5 345,-131.5 345,-112.5 301,-112.5"/>
<text text-anchor="middle" x="323" y="-119.5" font-family="FreeSans.ttf" font-size="10.00">string</text>
</a>
</g>
</g>
<!-- Node2&#45;&gt;Node13 -->
<g id="edge12" class="edge">
<title>Node2&#45;&gt;Node13</title>
<path fill="none" stroke="midnightblue" d="M376.72,-168.32C367.16,-160.26 352.72,-148.08 341.22,-138.37"/>
<polygon fill="midnightblue" stroke="midnightblue" points="343.37,-135.61 333.47,-131.83 338.86,-140.96 343.37,-135.61"/>
</g>
<!-- Node4 -->
<g id="node4" class="node">
<title>Node4</title>
<g id="a_node4"><a xlink:title=" ">
<polygon fill="none" stroke="#bfbfbf" points="0,-0.5 0,-19.5 52,-19.5 52,-0.5 0,-0.5"/>
<text text-anchor="middle" x="26" y="-7.5" font-family="FreeSans.ttf" font-size="10.00">cassert</text>
</a>
</g>
</g>
<!-- Node3&#45;&gt;Node4 -->
<g id="edge3" class="edge">
<title>Node3&#45;&gt;Node4</title>
<path fill="none" stroke="midnightblue" d="M275.36,-56.67C221.74,-48.94 141.21,-36.46 62.41,-20.15"/>
<polygon fill="midnightblue" stroke="midnightblue" points="62.82,-16.66 52.31,-18.04 61.38,-23.51 62.82,-16.66"/>
</g>
<!-- Node5 -->
<g id="node5" class="node">
<title>Node5</title>
<g id="a_node5"><a xlink:title=" ">
<polygon fill="none" stroke="#bfbfbf" points="304,-0.5 304,-19.5 368,-19.5 368,-0.5 304,-0.5"/>
<text text-anchor="middle" x="336" y="-7.5" font-family="FreeSans.ttf" font-size="10.00">algorithm</text>
</a>
</g>
</g>
<!-- Node3&#45;&gt;Node5 -->
<g id="edge4" class="edge">
<title>Node3&#45;&gt;Node5</title>
<path fill="none" stroke="midnightblue" d="M336,-56.08C336,-49.01 336,-38.86 336,-29.99"/>
<polygon fill="midnightblue" stroke="midnightblue" points="339.5,-29.75 336,-19.75 332.5,-29.75 339.5,-29.75"/>
</g>
<!-- Node6 -->
<g id="node6" class="node">
<title>Node6</title>
<g id="a_node6"><a xlink:title=" ">
<polygon fill="none" stroke="#bfbfbf" points="386,-0.5 386,-19.5 428,-19.5 428,-0.5 386,-0.5"/>
<text text-anchor="middle" x="407" y="-7.5" font-family="FreeSans.ttf" font-size="10.00">array</text>
</a>
</g>
</g>
<!-- Node3&#45;&gt;Node6 -->
<g id="edge5" class="edge">
<title>Node3&#45;&gt;Node6</title>
<path fill="none" stroke="midnightblue" d="M347.41,-56.32C358.11,-48.18 374.34,-35.84 387.16,-26.09"/>
<polygon fill="midnightblue" stroke="midnightblue" points="389.54,-28.67 395.39,-19.83 385.31,-23.1 389.54,-28.67"/>
</g>
<!-- Node7 -->
<g id="node7" class="node">
<title>Node7</title>
<g id="a_node7"><a xlink:title=" ">
<polygon fill="none" stroke="#bfbfbf" points="580.5,-0.5 580.5,-19.5 633.5,-19.5 633.5,-0.5 580.5,-0.5"/>
<text text-anchor="middle" x="607" y="-7.5" font-family="FreeSans.ttf" font-size="10.00">cstddef</text>
</a>
</g>
</g>
<!-- Node3&#45;&gt;Node7 -->
<g id="edge6" class="edge">
<title>Node3&#45;&gt;Node7</title>
<path fill="none" stroke="midnightblue" d="M384.77,-56.48C430.27,-48.35 500.27,-35.37 570.41,-20.03"/>
<polygon fill="midnightblue" stroke="midnightblue" points="571.29,-23.42 580.3,-17.85 569.78,-16.58 571.29,-23.42"/>
</g>
<!-- Node8 -->
<g id="node8" class="node">
<title>Node8</title>
<g id="a_node8"><a xlink:title=" ">
<polygon fill="none" stroke="#bfbfbf" points="446.5,-0.5 446.5,-19.5 499.5,-19.5 499.5,-0.5 446.5,-0.5"/>
<text text-anchor="middle" x="473" y="-7.5" font-family="FreeSans.ttf" font-size="10.00">iterator</text>
</a>
</g>
</g>
<!-- Node3&#45;&gt;Node8 -->
<g id="edge7" class="edge">
<title>Node3&#45;&gt;Node8</title>
<path fill="none" stroke="midnightblue" d="M357.71,-56.44C380.35,-47.52 416.07,-33.44 441.75,-23.32"/>
<polygon fill="midnightblue" stroke="midnightblue" points="443.37,-26.44 451.39,-19.52 440.81,-19.93 443.37,-26.44"/>
</g>
<!-- Node9 -->
<g id="node9" class="node">
<title>Node9</title>
<g id="a_node9"><a xlink:title=" ">
<polygon fill="none" stroke="#bfbfbf" points="518,-0.5 518,-19.5 562,-19.5 562,-0.5 518,-0.5"/>
<text text-anchor="middle" x="540" y="-7.5" font-family="FreeSans.ttf" font-size="10.00">limits</text>
</a>
</g>
</g>
<!-- Node3&#45;&gt;Node9 -->
<g id="edge8" class="edge">
<title>Node3&#45;&gt;Node9</title>
<path fill="none" stroke="midnightblue" d="M369.89,-56.48C402.84,-48.14 454.55,-34.87 508.02,-20.22"/>
<polygon fill="midnightblue" stroke="midnightblue" points="508.96,-23.59 517.67,-17.56 507.1,-16.84 508.96,-23.59"/>
</g>
<!-- Node10 -->
<g id="node10" class="node">
<title>Node10</title>
<g id="a_node10"><a xlink:title=" ">
<polygon fill="none" stroke="#bfbfbf" points="157.5,-0.5 157.5,-19.5 222.5,-19.5 222.5,-0.5 157.5,-0.5"/>
<text text-anchor="middle" x="190" y="-7.5" font-family="FreeSans.ttf" font-size="10.00">stdexcept</text>
</a>
</g>
</g>
<!-- Node3&#45;&gt;Node10 -->
<g id="edge9" class="edge">
<title>Node3&#45;&gt;Node10</title>
<path fill="none" stroke="midnightblue" d="M312.87,-56.44C288.52,-47.44 249.99,-33.19 222.58,-23.05"/>
<polygon fill="midnightblue" stroke="midnightblue" points="223.62,-19.7 213.03,-19.52 221.19,-26.27 223.62,-19.7"/>
</g>
<!-- Node11 -->
<g id="node11" class="node">
<title>Node11</title>
<g id="a_node11"><a xlink:title=" ">
<polygon fill="none" stroke="#bfbfbf" points="70.5,-0.5 70.5,-19.5 139.5,-19.5 139.5,-0.5 70.5,-0.5"/>
<text text-anchor="middle" x="105" y="-7.5" font-family="FreeSans.ttf" font-size="10.00">type_traits</text>
</a>
</g>
</g>
<!-- Node3&#45;&gt;Node11 -->
<g id="edge10" class="edge">
<title>Node3&#45;&gt;Node11</title>
<path fill="none" stroke="midnightblue" d="M299.4,-56.44C258.68,-46.92 192.9,-31.55 149.31,-21.36"/>
<polygon fill="midnightblue" stroke="midnightblue" points="150.08,-17.94 139.54,-19.08 148.49,-24.76 150.08,-17.94"/>
</g>
<!-- Node12 -->
<g id="node12" class="node">
<title>Node12</title>
<g id="a_node12"><a xlink:title=" ">
<polygon fill="none" stroke="#bfbfbf" points="240.5,-0.5 240.5,-19.5 285.5,-19.5 285.5,-0.5 240.5,-0.5"/>
<text text-anchor="middle" x="263" y="-7.5" font-family="FreeSans.ttf" font-size="10.00">utility</text>
</a>
</g>
</g>
<!-- Node3&#45;&gt;Node12 -->
<g id="edge11" class="edge">
<title>Node3&#45;&gt;Node12</title>
<path fill="none" stroke="midnightblue" d="M324.27,-56.32C313.16,-48.11 296.26,-35.6 283.02,-25.81"/>
<polygon fill="midnightblue" stroke="midnightblue" points="285.06,-22.97 274.94,-19.83 280.9,-28.59 285.06,-22.97"/>
</g>
<!-- Node14&#45;&gt;Node13 -->
<g id="edge14" class="edge">
<title>Node14&#45;&gt;Node13</title>
<path fill="none" stroke="midnightblue" d="M221.17,-168.44C240.91,-159.64 271.89,-145.81 294.49,-135.72"/>
<polygon fill="midnightblue" stroke="midnightblue" points="296.21,-138.79 303.92,-131.52 293.36,-132.4 296.21,-138.79"/>
</g>
<!-- Node15 -->
<g id="node15" class="node">
<title>Node15</title>
<g id="a_node15"><a xlink:href="MatrixView_8h.html" target="_top" xlink:title=" ">
<polygon fill="none" stroke="black" points="126,-112.5 126,-131.5 278,-131.5 278,-112.5 126,-112.5"/>
<text text-anchor="middle" x="202" y="-119.5" font-family="FreeSans.ttf" font-size="10.00">iDynTree/Core/MatrixView.h</text>
</a>
</g>
</g>
<!-- Node14&#45;&gt;Node15 -->
<g id="edge15" class="edge">
<title>Node14&#45;&gt;Node15</title>
<path fill="none" stroke="midnightblue" d="M202,-168.08C202,-161.01 202,-150.86 202,-141.99"/>
<polygon fill="midnightblue" stroke="midnightblue" points="205.5,-141.75 202,-131.75 198.5,-141.75 205.5,-141.75"/>
</g>
<!-- Node15&#45;&gt;Node3 -->
<g id="edge18" class="edge">
<title>Node15&#45;&gt;Node3</title>
<path fill="none" stroke="midnightblue" d="M223.23,-112.44C245.38,-103.52 280.32,-89.44 305.44,-79.32"/>
<polygon fill="midnightblue" stroke="midnightblue" points="306.9,-82.5 314.87,-75.52 304.28,-76.01 306.9,-82.5"/>
</g>
<!-- Node15&#45;&gt;Node4 -->
<g id="edge16" class="edge">
<title>Node15&#45;&gt;Node4</title>
<path fill="none" stroke="midnightblue" d="M188.19,-112.37C157.86,-93.41 85.2,-48 48.31,-24.94"/>
<polygon fill="midnightblue" stroke="midnightblue" points="50.08,-21.92 39.75,-19.59 46.37,-27.86 50.08,-21.92"/>
</g>
<!-- Node15&#45;&gt;Node11 -->
<g id="edge17" class="edge">
<title>Node15&#45;&gt;Node11</title>
<path fill="none" stroke="midnightblue" d="M194.39,-112.37C178.24,-94.05 140.32,-51.05 119.43,-27.36"/>
<polygon fill="midnightblue" stroke="midnightblue" points="121.82,-24.78 112.58,-19.59 116.56,-29.41 121.82,-24.78"/>
</g>
<!-- Node15&#45;&gt;Node16 -->
<g id="edge19" class="edge">
<title>Node15&#45;&gt;Node16</title>
<path fill="none" stroke="midnightblue" d="M255.56,-112.44C315.63,-102.85 412.99,-87.29 476.76,-77.1"/>
<polygon fill="midnightblue" stroke="midnightblue" points="477.37,-80.55 486.69,-75.52 476.27,-73.64 477.37,-80.55"/>
</g>
<!-- Node16&#45;&gt;Node7 -->
<g id="edge20" class="edge">
<title>Node16&#45;&gt;Node7</title>
<path fill="none" stroke="midnightblue" d="M550.76,-56.32C560.77,-48.26 575.89,-36.08 587.93,-26.37"/>
<polygon fill="midnightblue" stroke="midnightblue" points="590.45,-28.83 596.04,-19.83 586.06,-23.38 590.45,-28.83"/>
</g>
<!-- Node17 -->
<g id="node17" class="node">
<title>Node17</title>
<g id="a_node17"><a xlink:title=" ">
<polygon fill="none" stroke="#bfbfbf" points="652,-0.5 652,-19.5 732,-19.5 732,-0.5 652,-0.5"/>
<text text-anchor="middle" x="692" y="-7.5" font-family="FreeSans.ttf" font-size="10.00">CoreExport.h</text>
</a>
</g>
</g>
<!-- Node16&#45;&gt;Node17 -->
<g id="edge21" class="edge">
<title>Node16&#45;&gt;Node17</title>
<path fill="none" stroke="midnightblue" d="M564.08,-56.44C589.54,-47.4 629.89,-33.06 658.46,-22.92"/>
<polygon fill="midnightblue" stroke="midnightblue" points="659.78,-26.16 668.03,-19.52 657.43,-19.57 659.78,-26.16"/>
</g>
</g>
</svg>
