<?xml version="1.0" encoding="UTF-8" standalone="no"?>
<!DOCTYPE svg PUBLIC "-//W3C//DTD SVG 1.1//EN"
 "http://www.w3.org/Graphics/SVG/1.1/DTD/svg11.dtd">
<!-- Generated by graphviz version 2.43.0 (0)
 -->
<!-- Title: ExtendedKalmanFilter.cpp Pages: 1 -->
<svg width="1445pt" height="610pt"
 viewBox="0.00 0.00 1444.50 610.00" xmlns="http://www.w3.org/2000/svg" xmlns:xlink="http://www.w3.org/1999/xlink">
<g id="graph0" class="graph" transform="scale(1 1) rotate(0) translate(4 606)">
<title>ExtendedKalmanFilter.cpp</title>
<!-- Node1 -->
<g id="node1" class="node">
<title>Node1</title>
<g id="a_node1"><a xlink:title=" ">
<polygon fill="#bfbfbf" stroke="black" points="753,-582.5 753,-601.5 897,-601.5 897,-582.5 753,-582.5"/>
<text text-anchor="middle" x="825" y="-589.5" font-family="FreeSans.ttf" font-size="10.00">ExtendedKalmanFilter.cpp</text>
</a>
</g>
</g>
<!-- Node2 -->
<g id="node2" class="node">
<title>Node2</title>
<g id="a_node2"><a xlink:href="ExtendedKalmanFilter_8h.html" target="_top" xlink:title=" ">
<polygon fill="none" stroke="black" points="1134,-224.5 1134,-254.5 1270,-254.5 1270,-224.5 1134,-224.5"/>
<text text-anchor="start" x="1142" y="-242.5" font-family="FreeSans.ttf" font-size="10.00">iDynTree/Estimation</text>
<text text-anchor="middle" x="1202" y="-231.5" font-family="FreeSans.ttf" font-size="10.00">/ExtendedKalmanFilter.h</text>
</a>
</g>
</g>
<!-- Node1&#45;&gt;Node2 -->
<g id="edge1" class="edge">
<title>Node1&#45;&gt;Node2</title>
<path fill="none" stroke="midnightblue" d="M893.34,-582.45C994.69,-567.83 1173,-533.83 1173,-475.5 1173,-475.5 1173,-475.5 1173,-356 1173,-323.55 1183.9,-287.47 1192.34,-264.41"/>
<polygon fill="midnightblue" stroke="midnightblue" points="1195.71,-265.39 1195.99,-254.8 1189.17,-262.9 1195.71,-265.39"/>
</g>
<!-- Node20 -->
<g id="node20" class="node">
<title>Node20</title>
<g id="a_node20"><a xlink:href="EigenHelpers_8h.html" target="_top" xlink:title=" ">
<polygon fill="none" stroke="black" points="430.5,-526.5 430.5,-545.5 591.5,-545.5 591.5,-526.5 430.5,-526.5"/>
<text text-anchor="middle" x="511" y="-533.5" font-family="FreeSans.ttf" font-size="10.00">iDynTree/Core/EigenHelpers.h</text>
</a>
</g>
</g>
<!-- Node1&#45;&gt;Node20 -->
<g id="edge25" class="edge">
<title>Node1&#45;&gt;Node20</title>
<path fill="none" stroke="midnightblue" d="M775.25,-582.44C719.67,-572.89 629.74,-557.42 570.48,-547.23"/>
<polygon fill="midnightblue" stroke="midnightblue" points="570.97,-543.76 560.52,-545.52 569.78,-550.66 570.97,-543.76"/>
</g>
<!-- Node3 -->
<g id="node3" class="node">
<title>Node3</title>
<g id="a_node3"><a xlink:href="VectorDynSize_8h.html" target="_top" xlink:title=" ">
<polygon fill="none" stroke="black" points="1269.5,-168.5 1269.5,-187.5 1436.5,-187.5 1436.5,-168.5 1269.5,-168.5"/>
<text text-anchor="middle" x="1353" y="-175.5" font-family="FreeSans.ttf" font-size="10.00">iDynTree/Core/VectorDynSize.h</text>
</a>
</g>
</g>
<!-- Node2&#45;&gt;Node3 -->
<g id="edge2" class="edge">
<title>Node2&#45;&gt;Node3</title>
<path fill="none" stroke="midnightblue" d="M1237.78,-224.4C1263.23,-214.37 1297.1,-201.03 1321.52,-191.4"/>
<polygon fill="midnightblue" stroke="midnightblue" points="1323.01,-194.58 1331.03,-187.66 1320.44,-188.07 1323.01,-194.58"/>
</g>
<!-- Node15 -->
<g id="node15" class="node">
<title>Node15</title>
<g id="a_node15"><a xlink:href="MatrixDynSize_8h.html" target="_top" xlink:title=" ">
<polygon fill="none" stroke="black" points="980,-168.5 980,-187.5 1148,-187.5 1148,-168.5 980,-168.5"/>
<text text-anchor="middle" x="1064" y="-175.5" font-family="FreeSans.ttf" font-size="10.00">iDynTree/Core/MatrixDynSize.h</text>
</a>
</g>
</g>
<!-- Node2&#45;&gt;Node15 -->
<g id="edge14" class="edge">
<title>Node2&#45;&gt;Node15</title>
<path fill="none" stroke="midnightblue" d="M1169.3,-224.4C1146.25,-214.46 1115.64,-201.26 1093.37,-191.66"/>
<polygon fill="midnightblue" stroke="midnightblue" points="1094.65,-188.4 1084.08,-187.66 1091.88,-194.83 1094.65,-188.4"/>
</g>
<!-- Node17 -->
<g id="node17" class="node">
<title>Node17</title>
<g id="a_node17"><a xlink:href="Utils_8h.html" target="_top" xlink:title=" ">
<polygon fill="none" stroke="black" points="345.5,-56.5 345.5,-75.5 464.5,-75.5 464.5,-56.5 345.5,-56.5"/>
<text text-anchor="middle" x="405" y="-63.5" font-family="FreeSans.ttf" font-size="10.00">iDynTree/Core/Utils.h</text>
</a>
</g>
</g>
<!-- Node2&#45;&gt;Node17 -->
<g id="edge23" class="edge">
<title>Node2&#45;&gt;Node17</title>
<path fill="none" stroke="midnightblue" d="M1196.95,-224.42C1190.37,-208.16 1177.24,-181.88 1157,-168 1090.44,-122.35 1057.49,-150.81 979,-132 946.7,-124.26 939.67,-117.95 907,-112 754.22,-84.17 572.02,-73.3 474.61,-69.25"/>
<polygon fill="midnightblue" stroke="midnightblue" points="474.72,-65.75 464.59,-68.84 474.44,-72.75 474.72,-65.75"/>
</g>
<!-- Node19 -->
<g id="node19" class="node">
<title>Node19</title>
<g id="a_node19"><a xlink:title=" ">
<polygon fill="none" stroke="#bfbfbf" points="1204.5,-168.5 1204.5,-187.5 1251.5,-187.5 1251.5,-168.5 1204.5,-168.5"/>
<text text-anchor="middle" x="1228" y="-175.5" font-family="FreeSans.ttf" font-size="10.00">vector</text>
</a>
</g>
</g>
<!-- Node2&#45;&gt;Node19 -->
<g id="edge24" class="edge">
<title>Node2&#45;&gt;Node19</title>
<path fill="none" stroke="midnightblue" d="M1208.16,-224.4C1211.74,-216.2 1216.3,-205.78 1220.14,-196.99"/>
<polygon fill="midnightblue" stroke="midnightblue" points="1223.42,-198.22 1224.22,-187.66 1217.01,-195.42 1223.42,-198.22"/>
</g>
<!-- Node4 -->
<g id="node4" class="node">
<title>Node4</title>
<g id="a_node4"><a xlink:href="Span_8h.html" target="_top" xlink:title=" ">
<polygon fill="none" stroke="black" points="891.5,-56.5 891.5,-75.5 1012.5,-75.5 1012.5,-56.5 891.5,-56.5"/>
<text text-anchor="middle" x="952" y="-63.5" font-family="FreeSans.ttf" font-size="10.00">iDynTree/Core/Span.h</text>
</a>
</g>
</g>
<!-- Node3&#45;&gt;Node4 -->
<g id="edge3" class="edge">
<title>Node3&#45;&gt;Node4</title>
<path fill="none" stroke="midnightblue" d="M1328.39,-168.42C1290.25,-155.29 1214.44,-129.87 1149,-112 1100.28,-98.7 1044.05,-86.13 1004.17,-77.67"/>
<polygon fill="midnightblue" stroke="midnightblue" points="1004.65,-74.19 994.14,-75.56 1003.21,-81.04 1004.65,-74.19"/>
</g>
<!-- Node14 -->
<g id="node14" class="node">
<title>Node14</title>
<g id="a_node14"><a xlink:title=" ">
<polygon fill="none" stroke="#bfbfbf" points="854,-112.5 854,-131.5 898,-131.5 898,-112.5 854,-112.5"/>
<text text-anchor="middle" x="876" y="-119.5" font-family="FreeSans.ttf" font-size="10.00">string</text>
</a>
</g>
</g>
<!-- Node3&#45;&gt;Node14 -->
<g id="edge13" class="edge">
<title>Node3&#45;&gt;Node14</title>
<path fill="none" stroke="midnightblue" d="M1277.68,-168.47C1171.84,-156.49 983.62,-135.18 908.38,-126.67"/>
<polygon fill="midnightblue" stroke="midnightblue" points="908.46,-123.15 898.13,-125.5 907.67,-130.11 908.46,-123.15"/>
</g>
<!-- Node5 -->
<g id="node5" class="node">
<title>Node5</title>
<g id="a_node5"><a xlink:title=" ">
<polygon fill="none" stroke="#bfbfbf" points="652,-0.5 652,-19.5 704,-19.5 704,-0.5 652,-0.5"/>
<text text-anchor="middle" x="678" y="-7.5" font-family="FreeSans.ttf" font-size="10.00">cassert</text>
</a>
</g>
</g>
<!-- Node4&#45;&gt;Node5 -->
<g id="edge4" class="edge">
<title>Node4&#45;&gt;Node5</title>
<path fill="none" stroke="midnightblue" d="M902.14,-56.44C856.04,-48.33 785.39,-35.42 714.33,-19.96"/>
<polygon fill="midnightblue" stroke="midnightblue" points="714.82,-16.49 704.3,-17.76 713.32,-23.32 714.82,-16.49"/>
</g>
<!-- Node6 -->
<g id="node6" class="node">
<title>Node6</title>
<g id="a_node6"><a xlink:title=" ">
<polygon fill="none" stroke="#bfbfbf" points="869,-0.5 869,-19.5 933,-19.5 933,-0.5 869,-0.5"/>
<text text-anchor="middle" x="901" y="-7.5" font-family="FreeSans.ttf" font-size="10.00">algorithm</text>
</a>
</g>
</g>
<!-- Node4&#45;&gt;Node6 -->
<g id="edge5" class="edge">
<title>Node4&#45;&gt;Node6</title>
<path fill="none" stroke="midnightblue" d="M943.58,-56.08C936.15,-48.22 925.15,-36.57 916.19,-27.08"/>
<polygon fill="midnightblue" stroke="midnightblue" points="918.68,-24.62 909.26,-19.75 913.59,-29.42 918.68,-24.62"/>
</g>
<!-- Node7 -->
<g id="node7" class="node">
<title>Node7</title>
<g id="a_node7"><a xlink:title=" ">
<polygon fill="none" stroke="#bfbfbf" points="951,-0.5 951,-19.5 993,-19.5 993,-0.5 951,-0.5"/>
<text text-anchor="middle" x="972" y="-7.5" font-family="FreeSans.ttf" font-size="10.00">array</text>
</a>
</g>
</g>
<!-- Node4&#45;&gt;Node7 -->
<g id="edge6" class="edge">
<title>Node4&#45;&gt;Node7</title>
<path fill="none" stroke="midnightblue" d="M955.3,-56.08C957.98,-48.85 961.85,-38.41 965.19,-29.4"/>
<polygon fill="midnightblue" stroke="midnightblue" points="968.57,-30.34 968.76,-19.75 962,-27.91 968.57,-30.34"/>
</g>
<!-- Node8 -->
<g id="node8" class="node">
<title>Node8</title>
<g id="a_node8"><a xlink:title=" ">
<polygon fill="none" stroke="#bfbfbf" points="291.5,-0.5 291.5,-19.5 344.5,-19.5 344.5,-0.5 291.5,-0.5"/>
<text text-anchor="middle" x="318" y="-7.5" font-family="FreeSans.ttf" font-size="10.00">cstddef</text>
</a>
</g>
</g>
<!-- Node4&#45;&gt;Node8 -->
<g id="edge7" class="edge">
<title>Node4&#45;&gt;Node8</title>
<path fill="none" stroke="midnightblue" d="M891.15,-63.56C782.91,-60.3 550.06,-50.11 356,-20 355.66,-19.95 355.32,-19.89 354.98,-19.84"/>
<polygon fill="midnightblue" stroke="midnightblue" points="355.36,-16.35 344.88,-17.92 354.05,-23.22 355.36,-16.35"/>
</g>
<!-- Node9 -->
<g id="node9" class="node">
<title>Node9</title>
<g id="a_node9"><a xlink:title=" ">
<polygon fill="none" stroke="#bfbfbf" points="1011.5,-0.5 1011.5,-19.5 1064.5,-19.5 1064.5,-0.5 1011.5,-0.5"/>
<text text-anchor="middle" x="1038" y="-7.5" font-family="FreeSans.ttf" font-size="10.00">iterator</text>
</a>
</g>
</g>
<!-- Node4&#45;&gt;Node9 -->
<g id="edge8" class="edge">
<title>Node4&#45;&gt;Node9</title>
<path fill="none" stroke="midnightblue" d="M965.82,-56.32C979.23,-47.9 999.82,-34.97 1015.59,-25.07"/>
<polygon fill="midnightblue" stroke="midnightblue" points="1017.61,-27.94 1024.22,-19.65 1013.89,-22.01 1017.61,-27.94"/>
</g>
<!-- Node10 -->
<g id="node10" class="node">
<title>Node10</title>
<g id="a_node10"><a xlink:title=" ">
<polygon fill="none" stroke="#bfbfbf" points="1083,-0.5 1083,-19.5 1127,-19.5 1127,-0.5 1083,-0.5"/>
<text text-anchor="middle" x="1105" y="-7.5" font-family="FreeSans.ttf" font-size="10.00">limits</text>
</a>
</g>
</g>
<!-- Node4&#45;&gt;Node10 -->
<g id="edge9" class="edge">
<title>Node4&#45;&gt;Node10</title>
<path fill="none" stroke="midnightblue" d="M976.24,-56.44C1002.47,-47.19 1044.4,-32.39 1073.25,-22.21"/>
<polygon fill="midnightblue" stroke="midnightblue" points="1074.59,-25.44 1082.86,-18.82 1072.26,-18.84 1074.59,-25.44"/>
</g>
<!-- Node11 -->
<g id="node11" class="node">
<title>Node11</title>
<g id="a_node11"><a xlink:title=" ">
<polygon fill="none" stroke="#bfbfbf" points="722.5,-0.5 722.5,-19.5 787.5,-19.5 787.5,-0.5 722.5,-0.5"/>
<text text-anchor="middle" x="755" y="-7.5" font-family="FreeSans.ttf" font-size="10.00">stdexcept</text>
</a>
</g>
</g>
<!-- Node4&#45;&gt;Node11 -->
<g id="edge10" class="edge">
<title>Node4&#45;&gt;Node11</title>
<path fill="none" stroke="midnightblue" d="M920.78,-56.44C887.07,-47.2 833.2,-32.44 796.07,-22.26"/>
<polygon fill="midnightblue" stroke="midnightblue" points="796.64,-18.78 786.07,-19.52 794.79,-25.54 796.64,-18.78"/>
</g>
<!-- Node12 -->
<g id="node12" class="node">
<title>Node12</title>
<g id="a_node12"><a xlink:title=" ">
<polygon fill="none" stroke="#bfbfbf" points="1145.5,-0.5 1145.5,-19.5 1214.5,-19.5 1214.5,-0.5 1145.5,-0.5"/>
<text text-anchor="middle" x="1180" y="-7.5" font-family="FreeSans.ttf" font-size="10.00">type_traits</text>
</a>
</g>
</g>
<!-- Node4&#45;&gt;Node12 -->
<g id="edge11" class="edge">
<title>Node4&#45;&gt;Node12</title>
<path fill="none" stroke="midnightblue" d="M988.13,-56.44C1028,-47 1092.22,-31.79 1135.25,-21.6"/>
<polygon fill="midnightblue" stroke="midnightblue" points="1136.24,-24.96 1145.16,-19.25 1134.63,-18.15 1136.24,-24.96"/>
</g>
<!-- Node13 -->
<g id="node13" class="node">
<title>Node13</title>
<g id="a_node13"><a xlink:title=" ">
<polygon fill="none" stroke="#bfbfbf" points="805.5,-0.5 805.5,-19.5 850.5,-19.5 850.5,-0.5 805.5,-0.5"/>
<text text-anchor="middle" x="828" y="-7.5" font-family="FreeSans.ttf" font-size="10.00">utility</text>
</a>
</g>
</g>
<!-- Node4&#45;&gt;Node13 -->
<g id="edge12" class="edge">
<title>Node4&#45;&gt;Node13</title>
<path fill="none" stroke="midnightblue" d="M932.35,-56.44C912.04,-47.6 880.1,-33.69 856.9,-23.59"/>
<polygon fill="midnightblue" stroke="midnightblue" points="858.12,-20.3 847.56,-19.52 855.33,-26.72 858.12,-20.3"/>
</g>
<!-- Node15&#45;&gt;Node14 -->
<g id="edge15" class="edge">
<title>Node15&#45;&gt;Node14</title>
<path fill="none" stroke="midnightblue" d="M1034.21,-168.44C999.72,-158.54 943.14,-142.28 907.81,-132.14"/>
<polygon fill="midnightblue" stroke="midnightblue" points="908.59,-128.72 898.01,-129.32 906.66,-135.45 908.59,-128.72"/>
</g>
<!-- Node16 -->
<g id="node16" class="node">
<title>Node16</title>
<g id="a_node16"><a xlink:href="MatrixView_8h.html" target="_top" xlink:title=" ">
<polygon fill="none" stroke="black" points="988,-112.5 988,-131.5 1140,-131.5 1140,-112.5 988,-112.5"/>
<text text-anchor="middle" x="1064" y="-119.5" font-family="FreeSans.ttf" font-size="10.00">iDynTree/Core/MatrixView.h</text>
</a>
</g>
</g>
<!-- Node15&#45;&gt;Node16 -->
<g id="edge16" class="edge">
<title>Node15&#45;&gt;Node16</title>
<path fill="none" stroke="midnightblue" d="M1064,-168.08C1064,-161.01 1064,-150.86 1064,-141.99"/>
<polygon fill="midnightblue" stroke="midnightblue" points="1067.5,-141.75 1064,-131.75 1060.5,-141.75 1067.5,-141.75"/>
</g>
<!-- Node16&#45;&gt;Node4 -->
<g id="edge19" class="edge">
<title>Node16&#45;&gt;Node4</title>
<path fill="none" stroke="midnightblue" d="M1046.01,-112.32C1027.96,-103.62 999.95,-90.12 979.2,-80.11"/>
<polygon fill="midnightblue" stroke="midnightblue" points="980.48,-76.84 969.95,-75.65 977.44,-83.15 980.48,-76.84"/>
</g>
<!-- Node16&#45;&gt;Node5 -->
<g id="edge17" class="edge">
<title>Node16&#45;&gt;Node5</title>
<path fill="none" stroke="midnightblue" d="M1026.73,-112.46C990,-103.88 932.39,-89.95 883,-76 822.72,-58.97 753.4,-36.34 712.78,-22.77"/>
<polygon fill="midnightblue" stroke="midnightblue" points="713.69,-19.38 703.09,-19.52 711.46,-26.02 713.69,-19.38"/>
</g>
<!-- Node16&#45;&gt;Node12 -->
<g id="edge18" class="edge">
<title>Node16&#45;&gt;Node12</title>
<path fill="none" stroke="midnightblue" d="M1073.1,-112.37C1092.58,-93.89 1138.56,-50.29 1163.4,-26.74"/>
<polygon fill="midnightblue" stroke="midnightblue" points="1166.09,-29.01 1170.94,-19.59 1161.28,-23.93 1166.09,-29.01"/>
</g>
<!-- Node16&#45;&gt;Node17 -->
<g id="edge20" class="edge">
<title>Node16&#45;&gt;Node17</title>
<path fill="none" stroke="midnightblue" d="M987.9,-113.28C983.2,-112.84 978.54,-112.41 974,-112 794.25,-95.91 582.27,-79.94 474.9,-72.06"/>
<polygon fill="midnightblue" stroke="midnightblue" points="475.07,-68.56 464.84,-71.32 474.55,-75.54 475.07,-68.56"/>
</g>
<!-- Node17&#45;&gt;Node8 -->
<g id="edge21" class="edge">
<title>Node17&#45;&gt;Node8</title>
<path fill="none" stroke="midnightblue" d="M391.02,-56.32C377.45,-47.9 356.62,-34.97 340.68,-25.07"/>
<polygon fill="midnightblue" stroke="midnightblue" points="342.29,-21.95 331.94,-19.65 338.59,-27.9 342.29,-21.95"/>
</g>
<!-- Node18 -->
<g id="node18" class="node">
<title>Node18</title>
<g id="a_node18"><a xlink:title=" ">
<polygon fill="none" stroke="#bfbfbf" points="365,-0.5 365,-19.5 445,-19.5 445,-0.5 365,-0.5"/>
<text text-anchor="middle" x="405" y="-7.5" font-family="FreeSans.ttf" font-size="10.00">CoreExport.h</text>
</a>
</g>
</g>
<!-- Node17&#45;&gt;Node18 -->
<g id="edge22" class="edge">
<title>Node17&#45;&gt;Node18</title>
<path fill="none" stroke="midnightblue" d="M405,-56.08C405,-49.01 405,-38.86 405,-29.99"/>
<polygon fill="midnightblue" stroke="midnightblue" points="408.5,-29.75 405,-19.75 401.5,-29.75 408.5,-29.75"/>
</g>
<!-- Node20&#45;&gt;Node3 -->
<g id="edge28" class="edge">
<title>Node20&#45;&gt;Node3</title>
<path fill="none" stroke="midnightblue" d="M591.84,-531.19C795.22,-520.52 1312,-486.3 1312,-414 1312,-414 1312,-414 1312,-300 1312,-261.55 1330.8,-219.69 1342.94,-196.67"/>
<polygon fill="midnightblue" stroke="midnightblue" points="1346.08,-198.21 1347.81,-187.76 1339.94,-194.86 1346.08,-198.21"/>
</g>
<!-- Node20&#45;&gt;Node8 -->
<g id="edge26" class="edge">
<title>Node20&#45;&gt;Node8</title>
<path fill="none" stroke="midnightblue" d="M430.24,-531.73C302.86,-525.93 66.45,-512.29 35,-490 4.66,-468.49 0,-451.19 0,-414 0,-414 0,-414 0,-121 0,-62.04 197.73,-27.67 281.36,-15.77"/>
<polygon fill="midnightblue" stroke="midnightblue" points="282.01,-19.21 291.43,-14.36 281.05,-12.28 282.01,-19.21"/>
</g>
<!-- Node20&#45;&gt;Node15 -->
<g id="edge37" class="edge">
<title>Node20&#45;&gt;Node15</title>
<path fill="none" stroke="midnightblue" d="M591.55,-535.22C754.1,-533.49 1106,-517.77 1106,-414 1106,-414 1106,-414 1106,-300 1106,-261.45 1086.74,-219.63 1074.31,-196.64"/>
<polygon fill="midnightblue" stroke="midnightblue" points="1077.26,-194.75 1069.32,-187.74 1071.16,-198.18 1077.26,-194.75"/>
</g>
<!-- Node20&#45;&gt;Node17 -->
<g id="edge77" class="edge">
<title>Node20&#45;&gt;Node17</title>
<path fill="none" stroke="midnightblue" d="M430.01,-531.97C307.05,-526.64 84.58,-513.81 57,-490 30.65,-467.24 38,-448.82 38,-414 38,-414 38,-414 38,-177 38,-115.62 228.72,-85.57 335.19,-73.58"/>
<polygon fill="midnightblue" stroke="midnightblue" points="335.66,-77.05 345.22,-72.48 334.9,-70.09 335.66,-77.05"/>
</g>
<!-- Node21 -->
<g id="node21" class="node">
<title>Node21</title>
<g id="a_node21"><a xlink:title=" ">
<polygon fill="none" stroke="#bfbfbf" points="405.5,-465 405.5,-484 482.5,-484 482.5,-465 405.5,-465"/>
<text text-anchor="middle" x="444" y="-472" font-family="FreeSans.ttf" font-size="10.00">Eigen/Dense</text>
</a>
</g>
</g>
<!-- Node20&#45;&gt;Node21 -->
<g id="edge27" class="edge">
<title>Node20&#45;&gt;Node21</title>
<path fill="none" stroke="midnightblue" d="M501.4,-526.48C490.95,-517.2 474.03,-502.17 461.26,-490.83"/>
<polygon fill="midnightblue" stroke="midnightblue" points="463.38,-488.03 453.58,-484.01 458.73,-493.27 463.38,-488.03"/>
</g>
<!-- Node22 -->
<g id="node22" class="node">
<title>Node22</title>
<g id="a_node22"><a xlink:href="VectorFixSize_8h.html" target="_top" xlink:title=" ">
<polygon fill="none" stroke="black" points="356,-168.5 356,-187.5 518,-187.5 518,-168.5 356,-168.5"/>
<text text-anchor="middle" x="437" y="-175.5" font-family="FreeSans.ttf" font-size="10.00">iDynTree/Core/VectorFixSize.h</text>
</a>
</g>
</g>
<!-- Node20&#45;&gt;Node22 -->
<g id="edge29" class="edge">
<title>Node20&#45;&gt;Node22</title>
<path fill="none" stroke="midnightblue" d="M510.74,-526.32C509.38,-489.03 501.6,-338.99 462,-224 458.65,-214.28 453.27,-204.21 448.35,-196.07"/>
<polygon fill="midnightblue" stroke="midnightblue" points="451.25,-194.11 442.95,-187.53 445.34,-197.86 451.25,-194.11"/>
</g>
<!-- Node25 -->
<g id="node25" class="node">
<title>Node25</title>
<g id="a_node25"><a xlink:href="MatrixFixSize_8h.html" target="_top" xlink:title=" ">
<polygon fill="none" stroke="black" points="536.5,-168.5 536.5,-187.5 699.5,-187.5 699.5,-168.5 536.5,-168.5"/>
<text text-anchor="middle" x="618" y="-175.5" font-family="FreeSans.ttf" font-size="10.00">iDynTree/Core/MatrixFixSize.h</text>
</a>
</g>
</g>
<!-- Node20&#45;&gt;Node25 -->
<g id="edge38" class="edge">
<title>Node20&#45;&gt;Node25</title>
<path fill="none" stroke="midnightblue" d="M513.64,-526.2C527.61,-479.74 592.85,-262.67 612.43,-197.53"/>
<polygon fill="midnightblue" stroke="midnightblue" points="615.83,-198.4 615.35,-187.81 609.12,-196.38 615.83,-198.4"/>
</g>
<!-- Node27 -->
<g id="node27" class="node">
<title>Node27</title>
<g id="a_node27"><a xlink:href="SpatialMotionVector_8h.html" target="_top" xlink:title=" ">
<polygon fill="none" stroke="black" points="232.5,-459.5 232.5,-489.5 387.5,-489.5 387.5,-459.5 232.5,-459.5"/>
<text text-anchor="start" x="240.5" y="-477.5" font-family="FreeSans.ttf" font-size="10.00">iDynTree/Core/SpatialMotion</text>
<text text-anchor="middle" x="310" y="-466.5" font-family="FreeSans.ttf" font-size="10.00">Vector.h</text>
</a>
</g>
</g>
<!-- Node20&#45;&gt;Node27 -->
<g id="edge46" class="edge">
<title>Node20&#45;&gt;Node27</title>
<path fill="none" stroke="midnightblue" d="M482.2,-526.48C452.31,-517.63 404.75,-503.55 367.18,-492.43"/>
<polygon fill="midnightblue" stroke="midnightblue" points="367.95,-489.01 357.37,-489.52 365.97,-495.72 367.95,-489.01"/>
</g>
<!-- Node34 -->
<g id="node34" class="node">
<title>Node34</title>
<g id="a_node34"><a xlink:href="SpatialForceVector_8h.html" target="_top" xlink:title=" ">
<polygon fill="none" stroke="black" points="66,-459.5 66,-489.5 214,-489.5 214,-459.5 66,-459.5"/>
<text text-anchor="start" x="74" y="-477.5" font-family="FreeSans.ttf" font-size="10.00">iDynTree/Core/SpatialForce</text>
<text text-anchor="middle" x="140" y="-466.5" font-family="FreeSans.ttf" font-size="10.00">Vector.h</text>
</a>
</g>
</g>
<!-- Node20&#45;&gt;Node34 -->
<g id="edge68" class="edge">
<title>Node20&#45;&gt;Node34</title>
<path fill="none" stroke="midnightblue" d="M454.39,-526.46C398.44,-517.95 310.11,-504.34 224.13,-490.17"/>
<polygon fill="midnightblue" stroke="midnightblue" points="224.64,-486.71 214.2,-488.53 223.5,-493.61 224.64,-486.71"/>
</g>
<!-- Node35 -->
<g id="node35" class="node">
<title>Node35</title>
<g id="a_node35"><a xlink:href="Transform_8h.html" target="_top" xlink:title=" ">
<polygon fill="none" stroke="black" points="599,-403.5 599,-422.5 745,-422.5 745,-403.5 599,-403.5"/>
<text text-anchor="middle" x="672" y="-410.5" font-family="FreeSans.ttf" font-size="10.00">iDynTree/Core/Transform.h</text>
</a>
</g>
</g>
<!-- Node20&#45;&gt;Node35 -->
<g id="edge72" class="edge">
<title>Node20&#45;&gt;Node35</title>
<path fill="none" stroke="midnightblue" d="M522.32,-526.49C549.39,-506.15 618.14,-454.48 652.22,-428.86"/>
<polygon fill="midnightblue" stroke="midnightblue" points="654.58,-431.47 660.48,-422.66 650.38,-425.87 654.58,-431.47"/>
</g>
<!-- Node22&#45;&gt;Node4 -->
<g id="edge31" class="edge">
<title>Node22&#45;&gt;Node4</title>
<path fill="none" stroke="midnightblue" d="M457.72,-168.47C478.66,-159.73 511.86,-145.53 540,-132 557.2,-123.73 559.78,-117.68 578,-112 680.12,-80.17 804.41,-70.65 880.86,-67.92"/>
<polygon fill="midnightblue" stroke="midnightblue" points="881.45,-71.4 891.33,-67.57 881.22,-64.4 881.45,-71.4"/>
</g>
<!-- Node22&#45;&gt;Node5 -->
<g id="edge34" class="edge">
<title>Node22&#45;&gt;Node5</title>
<path fill="none" stroke="midnightblue" d="M438.22,-168.33C440.55,-154.73 446.83,-128.27 462,-112 511.57,-58.82 594.78,-31.07 642.15,-18.89"/>
<polygon fill="midnightblue" stroke="midnightblue" points="643.1,-22.26 651.97,-16.46 641.42,-15.47 643.1,-22.26"/>
</g>
<!-- Node22&#45;&gt;Node8 -->
<g id="edge35" class="edge">
<title>Node22&#45;&gt;Node8</title>
<path fill="none" stroke="midnightblue" d="M425.05,-168.44C403.87,-152.62 359.73,-116.7 336,-76 327.62,-61.62 322.99,-43.16 320.54,-29.59"/>
<polygon fill="midnightblue" stroke="midnightblue" points="323.97,-28.87 318.95,-19.54 317.05,-29.96 323.97,-28.87"/>
</g>
<!-- Node22&#45;&gt;Node14 -->
<g id="edge32" class="edge">
<title>Node22&#45;&gt;Node14</title>
<path fill="none" stroke="midnightblue" d="M506.56,-168.44C602.92,-156.59 773.11,-135.66 843.81,-126.96"/>
<polygon fill="midnightblue" stroke="midnightblue" points="844.39,-130.41 853.89,-125.72 843.54,-123.47 844.39,-130.41"/>
</g>
<!-- Node22&#45;&gt;Node17 -->
<g id="edge30" class="edge">
<title>Node22&#45;&gt;Node17</title>
<path fill="none" stroke="midnightblue" d="M434.49,-168.37C429.3,-150.54 417.3,-109.3 410.32,-85.27"/>
<polygon fill="midnightblue" stroke="midnightblue" points="413.65,-84.22 407.5,-75.59 406.93,-86.17 413.65,-84.22"/>
</g>
<!-- Node23 -->
<g id="node23" class="node">
<title>Node23</title>
<g id="a_node23"><a xlink:title=" ">
<polygon fill="none" stroke="#bfbfbf" points="233,-112.5 233,-131.5 289,-131.5 289,-112.5 233,-112.5"/>
<text text-anchor="middle" x="261" y="-119.5" font-family="FreeSans.ttf" font-size="10.00">sstream</text>
</a>
</g>
</g>
<!-- Node22&#45;&gt;Node23 -->
<g id="edge33" class="edge">
<title>Node22&#45;&gt;Node23</title>
<path fill="none" stroke="midnightblue" d="M409.11,-168.44C379.25,-159.28 331.69,-144.69 298.54,-134.52"/>
<polygon fill="midnightblue" stroke="midnightblue" points="299.34,-131.1 288.76,-131.52 297.29,-137.8 299.34,-131.1"/>
</g>
<!-- Node24 -->
<g id="node24" class="node">
<title>Node24</title>
<g id="a_node24"><a xlink:title=" ">
<polygon fill="none" stroke="#bfbfbf" points="587,-112.5 587,-131.5 637,-131.5 637,-112.5 587,-112.5"/>
<text text-anchor="middle" x="612" y="-119.5" font-family="FreeSans.ttf" font-size="10.00">cstring</text>
</a>
</g>
</g>
<!-- Node22&#45;&gt;Node24 -->
<g id="edge36" class="edge">
<title>Node22&#45;&gt;Node24</title>
<path fill="none" stroke="midnightblue" d="M464.73,-168.44C495.21,-159.04 544.23,-143.91 577.26,-133.72"/>
<polygon fill="midnightblue" stroke="midnightblue" points="578.43,-137.02 586.95,-130.73 576.36,-130.33 578.43,-137.02"/>
</g>
<!-- Node25&#45;&gt;Node5 -->
<g id="edge41" class="edge">
<title>Node25&#45;&gt;Node5</title>
<path fill="none" stroke="midnightblue" d="M629.88,-168.47C640.21,-160.34 654.64,-147.13 662,-132 678.17,-98.77 679.73,-54.67 679.09,-29.92"/>
<polygon fill="midnightblue" stroke="midnightblue" points="682.58,-29.59 678.66,-19.74 675.58,-29.88 682.58,-29.59"/>
</g>
<!-- Node25&#45;&gt;Node14 -->
<g id="edge43" class="edge">
<title>Node25&#45;&gt;Node14</title>
<path fill="none" stroke="midnightblue" d="M658.88,-168.44C710.27,-157.69 797.39,-139.45 844.12,-129.67"/>
<polygon fill="midnightblue" stroke="midnightblue" points="844.93,-133.08 854,-127.6 843.49,-126.23 844.93,-133.08"/>
</g>
<!-- Node25&#45;&gt;Node16 -->
<g id="edge40" class="edge">
<title>Node25&#45;&gt;Node16</title>
<path fill="none" stroke="midnightblue" d="M688.67,-168.44C768.92,-158.73 899.59,-142.91 983.65,-132.73"/>
<polygon fill="midnightblue" stroke="midnightblue" points="984.15,-136.19 993.66,-131.52 983.31,-129.24 984.15,-136.19"/>
</g>
<!-- Node25&#45;&gt;Node17 -->
<g id="edge39" class="edge">
<title>Node25&#45;&gt;Node17</title>
<path fill="none" stroke="midnightblue" d="M627.25,-168.16C640.11,-154.8 660.29,-129.2 646,-112 624.59,-86.22 538.32,-75.13 475.09,-70.41"/>
<polygon fill="midnightblue" stroke="midnightblue" points="474.98,-66.89 464.76,-69.68 474.49,-73.88 474.98,-66.89"/>
</g>
<!-- Node25&#45;&gt;Node23 -->
<g id="edge45" class="edge">
<title>Node25&#45;&gt;Node23</title>
<path fill="none" stroke="midnightblue" d="M561.43,-168.44C488.05,-157.34 362.01,-138.28 299.08,-128.76"/>
<polygon fill="midnightblue" stroke="midnightblue" points="299.58,-125.3 289.17,-127.26 298.54,-132.22 299.58,-125.3"/>
</g>
<!-- Node25&#45;&gt;Node24 -->
<g id="edge42" class="edge">
<title>Node25&#45;&gt;Node24</title>
<path fill="none" stroke="midnightblue" d="M617.01,-168.08C616.21,-160.93 615.07,-150.64 614.08,-141.69"/>
<polygon fill="midnightblue" stroke="midnightblue" points="617.56,-141.3 612.97,-131.75 610.6,-142.08 617.56,-141.3"/>
</g>
<!-- Node26 -->
<g id="node26" class="node">
<title>Node26</title>
<g id="a_node26"><a xlink:title=" ">
<polygon fill="none" stroke="#bfbfbf" points="471,-112.5 471,-131.5 531,-131.5 531,-112.5 471,-112.5"/>
<text text-anchor="middle" x="501" y="-119.5" font-family="FreeSans.ttf" font-size="10.00">iostream</text>
</a>
</g>
</g>
<!-- Node25&#45;&gt;Node26 -->
<g id="edge44" class="edge">
<title>Node25&#45;&gt;Node26</title>
<path fill="none" stroke="midnightblue" d="M599.46,-168.44C580.38,-159.64 550.43,-145.81 528.56,-135.72"/>
<polygon fill="midnightblue" stroke="midnightblue" points="530,-132.53 519.45,-131.52 527.07,-138.88 530,-132.53"/>
</g>
<!-- Node27&#45;&gt;Node22 -->
<g id="edge47" class="edge">
<title>Node27&#45;&gt;Node22</title>
<path fill="none" stroke="midnightblue" d="M352.6,-459.35C394.43,-442.46 452,-409.8 452,-358 452,-358 452,-358 452,-300 452,-263.62 445.24,-221.55 440.79,-197.83"/>
<polygon fill="midnightblue" stroke="midnightblue" points="444.18,-196.91 438.84,-187.76 437.31,-198.24 444.18,-196.91"/>
</g>
<!-- Node28 -->
<g id="node28" class="node">
<title>Node28</title>
<g id="a_node28"><a xlink:href="GeomVector3_8h.html" target="_top" xlink:title=" ">
<polygon fill="none" stroke="black" points="260.5,-230 260.5,-249 423.5,-249 423.5,-230 260.5,-230"/>
<text text-anchor="middle" x="342" y="-237" font-family="FreeSans.ttf" font-size="10.00">iDynTree/Core/GeomVector3.h</text>
</a>
</g>
</g>
<!-- Node27&#45;&gt;Node28 -->
<g id="edge48" class="edge">
<title>Node27&#45;&gt;Node28</title>
<path fill="none" stroke="midnightblue" d="M350.49,-459.5C367.06,-451.54 384.53,-439.74 394,-423 425.58,-367.17 379.05,-290.7 354.95,-257.28"/>
<polygon fill="midnightblue" stroke="midnightblue" points="357.61,-254.99 348.83,-249.05 351.99,-259.16 357.61,-254.99"/>
</g>
<!-- Node29 -->
<g id="node29" class="node">
<title>Node29</title>
<g id="a_node29"><a xlink:href="SpatialVector_8h.html" target="_top" xlink:title=" ">
<polygon fill="none" stroke="black" points="224.5,-403.5 224.5,-422.5 385.5,-422.5 385.5,-403.5 224.5,-403.5"/>
<text text-anchor="middle" x="305" y="-410.5" font-family="FreeSans.ttf" font-size="10.00">iDynTree/Core/SpatialVector.h</text>
</a>
</g>
</g>
<!-- Node27&#45;&gt;Node29 -->
<g id="edge50" class="edge">
<title>Node27&#45;&gt;Node29</title>
<path fill="none" stroke="midnightblue" d="M308.82,-459.4C308.15,-451.47 307.31,-441.46 306.58,-432.86"/>
<polygon fill="midnightblue" stroke="midnightblue" points="310.05,-432.33 305.73,-422.66 303.08,-432.92 310.05,-432.33"/>
</g>
<!-- Node28&#45;&gt;Node22 -->
<g id="edge49" class="edge">
<title>Node28&#45;&gt;Node22</title>
<path fill="none" stroke="midnightblue" d="M355.61,-229.98C371.06,-220.3 396.49,-204.37 414.82,-192.89"/>
<polygon fill="midnightblue" stroke="midnightblue" points="416.8,-195.78 423.41,-187.51 413.08,-189.85 416.8,-195.78"/>
</g>
<!-- Node29&#45;&gt;Node17 -->
<g id="edge64" class="edge">
<title>Node29&#45;&gt;Node17</title>
<path fill="none" stroke="midnightblue" d="M249.65,-403.47C194.51,-391.46 118,-363.68 118,-302 118,-302 118,-302 118,-177 118,-128.8 260.92,-93.85 345.05,-77.45"/>
<polygon fill="midnightblue" stroke="midnightblue" points="345.85,-80.86 355.01,-75.54 344.53,-73.99 345.85,-80.86"/>
</g>
<!-- Node29&#45;&gt;Node23 -->
<g id="edge67" class="edge">
<title>Node29&#45;&gt;Node23</title>
<path fill="none" stroke="midnightblue" d="M251.72,-403.5C227.15,-397.13 199.24,-386.09 180,-367 158.14,-345.31 156,-332.8 156,-302 156,-302 156,-302 156,-238.5 156,-205.4 158.78,-193.4 180,-168 192.04,-153.58 209.95,-142.96 225.87,-135.66"/>
<polygon fill="midnightblue" stroke="midnightblue" points="227.64,-138.71 235.45,-131.55 224.88,-132.28 227.64,-138.71"/>
</g>
<!-- Node29&#45;&gt;Node26 -->
<g id="edge66" class="edge">
<title>Node29&#45;&gt;Node26</title>
<path fill="none" stroke="midnightblue" d="M285.16,-403.39C253.23,-388.04 194,-352.73 194,-302 194,-302 194,-302 194,-238.5 194,-182.13 377.63,-143.86 460.85,-129.42"/>
<polygon fill="midnightblue" stroke="midnightblue" points="461.45,-132.87 470.72,-127.74 460.28,-125.97 461.45,-132.87"/>
</g>
<!-- Node29&#45;&gt;Node28 -->
<g id="edge65" class="edge">
<title>Node29&#45;&gt;Node28</title>
<path fill="none" stroke="midnightblue" d="M306.89,-403.26C312.65,-376.54 330.13,-295.52 338.04,-258.86"/>
<polygon fill="midnightblue" stroke="midnightblue" points="341.47,-259.53 340.16,-249.02 334.63,-258.06 341.47,-259.53"/>
</g>
<!-- Node30 -->
<g id="node30" class="node">
<title>Node30</title>
<g id="a_node30"><a xlink:href="Position_8h.html" target="_top" xlink:title=" ">
<polygon fill="none" stroke="black" points="700.5,-347.5 700.5,-366.5 765.5,-366.5 765.5,-347.5 700.5,-347.5"/>
<text text-anchor="middle" x="733" y="-354.5" font-family="FreeSans.ttf" font-size="10.00">Position.h</text>
</a>
</g>
</g>
<!-- Node29&#45;&gt;Node30 -->
<g id="edge51" class="edge">
<title>Node29&#45;&gt;Node30</title>
<path fill="none" stroke="midnightblue" d="M372.82,-403.44C461.97,-392.2 615.95,-372.77 690.33,-363.38"/>
<polygon fill="midnightblue" stroke="midnightblue" points="690.8,-366.85 700.29,-362.13 689.93,-359.91 690.8,-366.85"/>
</g>
<!-- Node32 -->
<g id="node32" class="node">
<title>Node32</title>
<g id="a_node32"><a xlink:href="Rotation_8h.html" target="_top" xlink:title=" ">
<polygon fill="none" stroke="black" points="624,-291.5 624,-310.5 762,-310.5 762,-291.5 624,-291.5"/>
<text text-anchor="middle" x="693" y="-298.5" font-family="FreeSans.ttf" font-size="10.00">iDynTree/Core/Rotation.h</text>
</a>
</g>
</g>
<!-- Node29&#45;&gt;Node32 -->
<g id="edge63" class="edge">
<title>Node29&#45;&gt;Node32</title>
<path fill="none" stroke="midnightblue" d="M335.12,-403.46C404.39,-383.82 575.01,-335.45 652.97,-313.35"/>
<polygon fill="midnightblue" stroke="midnightblue" points="654.23,-316.63 662.9,-310.53 652.32,-309.89 654.23,-316.63"/>
</g>
<!-- Node30&#45;&gt;Node14 -->
<g id="edge62" class="edge">
<title>Node30&#45;&gt;Node14</title>
<path fill="none" stroke="midnightblue" d="M765.83,-355.36C826.34,-352.19 954.43,-335.75 1011,-255 1018.91,-243.72 1018.28,-235.7 1011,-224 991.9,-193.28 967.15,-209.42 938,-188 918.85,-173.93 900.53,-153.58 888.84,-139.41"/>
<polygon fill="midnightblue" stroke="midnightblue" points="891.46,-137.09 882.47,-131.5 886.01,-141.48 891.46,-137.09"/>
</g>
<!-- Node31 -->
<g id="node31" class="node">
<title>Node31</title>
<g id="a_node31"><a xlink:href="PositionRaw_8h.html" target="_top" xlink:title=" ">
<polygon fill="none" stroke="black" points="670,-230 670,-249 826,-249 826,-230 670,-230"/>
<text text-anchor="middle" x="748" y="-237" font-family="FreeSans.ttf" font-size="10.00">iDynTree/Core/PositionRaw.h</text>
</a>
</g>
</g>
<!-- Node30&#45;&gt;Node31 -->
<g id="edge52" class="edge">
<title>Node30&#45;&gt;Node31</title>
<path fill="none" stroke="midnightblue" d="M743.71,-347.3C752.94,-339.07 765.59,-325.79 771,-311 777.54,-293.12 768.85,-272.37 760.34,-258.04"/>
<polygon fill="midnightblue" stroke="midnightblue" points="763.04,-255.75 754.67,-249.25 757.15,-259.55 763.04,-255.75"/>
</g>
<!-- Node30&#45;&gt;Node32 -->
<g id="edge55" class="edge">
<title>Node30&#45;&gt;Node32</title>
<path fill="none" stroke="midnightblue" d="M726.39,-347.08C720.74,-339.46 712.46,-328.26 705.55,-318.94"/>
<polygon fill="midnightblue" stroke="midnightblue" points="708.25,-316.7 699.48,-310.75 702.62,-320.87 708.25,-316.7"/>
</g>
<!-- Node31&#45;&gt;Node14 -->
<g id="edge54" class="edge">
<title>Node31&#45;&gt;Node14</title>
<path fill="none" stroke="midnightblue" d="M757.62,-229.82C779.12,-210.42 831.3,-163.33 858.64,-138.66"/>
<polygon fill="midnightblue" stroke="midnightblue" points="861.19,-141.08 866.27,-131.78 856.5,-135.88 861.19,-141.08"/>
</g>
<!-- Node31&#45;&gt;Node22 -->
<g id="edge53" class="edge">
<title>Node31&#45;&gt;Node22</title>
<path fill="none" stroke="midnightblue" d="M703.44,-229.98C647.55,-219.28 551.77,-200.96 491.56,-189.44"/>
<polygon fill="midnightblue" stroke="midnightblue" points="491.96,-185.95 481.48,-187.51 490.64,-192.83 491.96,-185.95"/>
</g>
<!-- Node32&#45;&gt;Node14 -->
<g id="edge56" class="edge">
<title>Node32&#45;&gt;Node14</title>
<path fill="none" stroke="midnightblue" d="M683.93,-291.1C670.09,-276.41 646.72,-246.48 661,-224 681.97,-190.98 789.91,-151.44 844.42,-133.17"/>
<polygon fill="midnightblue" stroke="midnightblue" points="845.55,-136.48 853.94,-130.01 843.35,-129.84 845.55,-136.48"/>
</g>
<!-- Node32&#45;&gt;Node22 -->
<g id="edge61" class="edge">
<title>Node32&#45;&gt;Node22</title>
<path fill="none" stroke="midnightblue" d="M675,-291.49C630.86,-270.63 517.01,-216.82 464.4,-191.95"/>
<polygon fill="midnightblue" stroke="midnightblue" points="465.86,-188.77 455.32,-187.66 462.87,-195.1 465.86,-188.77"/>
</g>
<!-- Node32&#45;&gt;Node28 -->
<g id="edge57" class="edge">
<title>Node32&#45;&gt;Node28</title>
<path fill="none" stroke="midnightblue" d="M642.71,-291.48C579.24,-280.72 470.19,-262.23 402.31,-250.72"/>
<polygon fill="midnightblue" stroke="midnightblue" points="402.64,-247.23 392.2,-249.01 401.47,-254.13 402.64,-247.23"/>
</g>
<!-- Node33 -->
<g id="node33" class="node">
<title>Node33</title>
<g id="a_node33"><a xlink:href="RotationRaw_8h.html" target="_top" xlink:title=" ">
<polygon fill="none" stroke="black" points="844,-230 844,-249 1002,-249 1002,-230 844,-230"/>
<text text-anchor="middle" x="923" y="-237" font-family="FreeSans.ttf" font-size="10.00">iDynTree/Core/RotationRaw.h</text>
</a>
</g>
</g>
<!-- Node32&#45;&gt;Node33 -->
<g id="edge58" class="edge">
<title>Node32&#45;&gt;Node33</title>
<path fill="none" stroke="midnightblue" d="M725.95,-291.48C766.6,-280.96 835.79,-263.06 880.42,-251.51"/>
<polygon fill="midnightblue" stroke="midnightblue" points="881.3,-254.9 890.11,-249.01 879.55,-248.13 881.3,-254.9"/>
</g>
<!-- Node33&#45;&gt;Node14 -->
<g id="edge60" class="edge">
<title>Node33&#45;&gt;Node14</title>
<path fill="none" stroke="midnightblue" d="M918.73,-229.65C913.95,-219.63 906.09,-202.79 900,-188 893.63,-172.53 887.1,-154.69 882.46,-141.61"/>
<polygon fill="midnightblue" stroke="midnightblue" points="885.67,-140.19 879.06,-131.91 879.07,-142.51 885.67,-140.19"/>
</g>
<!-- Node33&#45;&gt;Node25 -->
<g id="edge59" class="edge">
<title>Node33&#45;&gt;Node25</title>
<path fill="none" stroke="midnightblue" d="M879.3,-229.98C824.49,-219.28 730.56,-200.96 671.5,-189.44"/>
<polygon fill="midnightblue" stroke="midnightblue" points="672.1,-185.99 661.62,-187.51 670.76,-192.86 672.1,-185.99"/>
</g>
<!-- Node34&#45;&gt;Node22 -->
<g id="edge69" class="edge">
<title>Node34&#45;&gt;Node22</title>
<path fill="none" stroke="midnightblue" d="M141.91,-459.32C148.46,-416.62 173.97,-288.2 251,-224 277.37,-202.03 312.75,-190.46 345.57,-184.48"/>
<polygon fill="midnightblue" stroke="midnightblue" points="346.37,-187.89 355.66,-182.79 345.22,-180.99 346.37,-187.89"/>
</g>
<!-- Node34&#45;&gt;Node28 -->
<g id="edge70" class="edge">
<title>Node34&#45;&gt;Node28</title>
<path fill="none" stroke="midnightblue" d="M152.33,-459.28C187.83,-418.33 290.1,-300.36 327.81,-256.86"/>
<polygon fill="midnightblue" stroke="midnightblue" points="330.55,-259.05 334.46,-249.2 325.26,-254.46 330.55,-259.05"/>
</g>
<!-- Node34&#45;&gt;Node29 -->
<g id="edge71" class="edge">
<title>Node34&#45;&gt;Node29</title>
<path fill="none" stroke="midnightblue" d="M179.1,-459.4C207.16,-449.28 244.57,-435.79 271.31,-426.15"/>
<polygon fill="midnightblue" stroke="midnightblue" points="272.77,-429.34 280.99,-422.66 270.4,-422.76 272.77,-429.34"/>
</g>
<!-- Node35&#45;&gt;Node14 -->
<g id="edge76" class="edge">
<title>Node35&#45;&gt;Node14</title>
<path fill="none" stroke="midnightblue" d="M745.3,-407.61C836.31,-397.49 984.73,-364.19 1027,-255 1031.97,-242.15 1033.6,-236.09 1027,-224 1012.82,-198.03 995.66,-204.36 971,-188 945.12,-170.83 915.66,-150.56 896.5,-137.27"/>
<polygon fill="midnightblue" stroke="midnightblue" points="898.43,-134.36 888.22,-131.53 894.44,-140.11 898.43,-134.36"/>
</g>
<!-- Node35&#45;&gt;Node25 -->
<g id="edge75" class="edge">
<title>Node35&#45;&gt;Node25</title>
<path fill="none" stroke="midnightblue" d="M665.14,-403.49C652.26,-386.9 624.87,-348.58 615,-311 604.65,-271.6 610.11,-223.3 614.43,-197.43"/>
<polygon fill="midnightblue" stroke="midnightblue" points="617.88,-197.99 616.21,-187.53 610.99,-196.75 617.88,-197.99"/>
</g>
<!-- Node35&#45;&gt;Node30 -->
<g id="edge73" class="edge">
<title>Node35&#45;&gt;Node30</title>
<path fill="none" stroke="midnightblue" d="M681.8,-403.32C690.82,-395.34 704.41,-383.31 715.32,-373.65"/>
<polygon fill="midnightblue" stroke="midnightblue" points="717.85,-376.08 723.02,-366.83 713.21,-370.84 717.85,-376.08"/>
</g>
<!-- Node35&#45;&gt;Node32 -->
<g id="edge74" class="edge">
<title>Node35&#45;&gt;Node32</title>
<path fill="none" stroke="midnightblue" d="M673.65,-403.37C677.04,-385.62 684.85,-344.67 689.45,-320.6"/>
<polygon fill="midnightblue" stroke="midnightblue" points="692.92,-321.07 691.36,-310.59 686.05,-319.76 692.92,-321.07"/>
</g>
</g>
</svg>
