<?xml version="1.0" encoding="UTF-8" standalone="no"?>
<!DOCTYPE svg PUBLIC "-//W3C//DTD SVG 1.1//EN"
 "http://www.w3.org/Graphics/SVG/1.1/DTD/svg11.dtd">
<!-- Generated by graphviz version 2.43.0 (0)
 -->
<!-- Title: FixedStepIntegrator.h Pages: 1 -->
<svg width="463pt" height="140pt"
 viewBox="0.00 0.00 462.50 140.00" xmlns="http://www.w3.org/2000/svg" xmlns:xlink="http://www.w3.org/1999/xlink">
<g id="graph0" class="graph" transform="scale(1 1) rotate(0) translate(4 136)">
<title>FixedStepIntegrator.h</title>
<!-- Node1 -->
<g id="node1" class="node">
<title>Node1</title>
<g id="a_node1"><a xlink:title=" ">
<polygon fill="#bfbfbf" stroke="black" points="173,-112.5 173,-131.5 293,-131.5 293,-112.5 173,-112.5"/>
<text text-anchor="middle" x="233" y="-119.5" font-family="FreeSans.ttf" font-size="10.00">FixedStepIntegrator.h</text>
</a>
</g>
</g>
<!-- Node2 -->
<g id="node2" class="node">
<title>Node2</title>
<g id="a_node2"><a xlink:href="ForwardEuler_8h.html" target="_top" xlink:title=" ">
<polygon fill="none" stroke="black" points="11.5,-56.5 11.5,-75.5 100.5,-75.5 100.5,-56.5 11.5,-56.5"/>
<text text-anchor="middle" x="56" y="-63.5" font-family="FreeSans.ttf" font-size="10.00">ForwardEuler.h</text>
</a>
</g>
</g>
<!-- Node1&#45;&gt;Node2 -->
<g id="edge1" class="edge">
<title>Node1&#45;&gt;Node2</title>
<path fill="none" stroke="midnightblue" d="M195.1,-109.44C161.72,-99.26 113.9,-84.66 83.91,-75.52"/>
<polygon fill="midnightblue" stroke="midnightblue" points="194.37,-112.87 204.95,-112.44 196.41,-106.18 194.37,-112.87"/>
</g>
<!-- Node4 -->
<g id="node4" class="node">
<title>Node4</title>
<g id="a_node4"><a xlink:href="ImplicitTrapezoidal_8h.html" target="_top" xlink:title=" ">
<polygon fill="none" stroke="black" points="124,-56.5 124,-75.5 242,-75.5 242,-56.5 124,-56.5"/>
<text text-anchor="middle" x="183" y="-63.5" font-family="FreeSans.ttf" font-size="10.00">ImplicitTrapezoidal.h</text>
</a>
</g>
</g>
<!-- Node1&#45;&gt;Node4 -->
<g id="edge3" class="edge">
<title>Node1&#45;&gt;Node4</title>
<path fill="none" stroke="midnightblue" d="M217.92,-104.72C209.11,-95.2 198.33,-83.56 191.1,-75.75"/>
<polygon fill="midnightblue" stroke="midnightblue" points="215.38,-107.12 224.74,-112.08 220.52,-102.37 215.38,-107.12"/>
</g>
<!-- Node6 -->
<g id="node6" class="node">
<title>Node6</title>
<g id="a_node6"><a xlink:href="RK4_8h.html" target="_top" xlink:title=" ">
<polygon fill="none" stroke="black" points="260.5,-56.5 260.5,-75.5 305.5,-75.5 305.5,-56.5 260.5,-56.5"/>
<text text-anchor="middle" x="283" y="-63.5" font-family="FreeSans.ttf" font-size="10.00">RK4.h</text>
</a>
</g>
</g>
<!-- Node1&#45;&gt;Node6 -->
<g id="edge5" class="edge">
<title>Node1&#45;&gt;Node6</title>
<path fill="none" stroke="midnightblue" d="M248.08,-104.72C256.89,-95.2 267.67,-83.56 274.9,-75.75"/>
<polygon fill="midnightblue" stroke="midnightblue" points="245.48,-102.37 241.26,-112.08 250.62,-107.12 245.48,-102.37"/>
</g>
<!-- Node8 -->
<g id="node8" class="node">
<title>Node8</title>
<g id="a_node8"><a xlink:href="FixedStepIntegrator_8cpp.html" target="_top" xlink:title=" ">
<polygon fill="none" stroke="black" points="323.5,-56.5 323.5,-75.5 454.5,-75.5 454.5,-56.5 323.5,-56.5"/>
<text text-anchor="middle" x="389" y="-63.5" font-family="FreeSans.ttf" font-size="10.00">FixedStepIntegrator.cpp</text>
</a>
</g>
</g>
<!-- Node1&#45;&gt;Node8 -->
<g id="edge7" class="edge">
<title>Node1&#45;&gt;Node8</title>
<path fill="none" stroke="midnightblue" d="M267.17,-109.17C296.54,-99 338.2,-84.59 364.4,-75.52"/>
<polygon fill="midnightblue" stroke="midnightblue" points="266.02,-105.86 257.72,-112.44 268.31,-112.48 266.02,-105.86"/>
</g>
<!-- Node3 -->
<g id="node3" class="node">
<title>Node3</title>
<g id="a_node3"><a xlink:href="ForwardEuler_8cpp.html" target="_top" xlink:title=" ">
<polygon fill="none" stroke="black" points="0,-0.5 0,-19.5 100,-19.5 100,-0.5 0,-0.5"/>
<text text-anchor="middle" x="50" y="-7.5" font-family="FreeSans.ttf" font-size="10.00">ForwardEuler.cpp</text>
</a>
</g>
</g>
<!-- Node2&#45;&gt;Node3 -->
<g id="edge2" class="edge">
<title>Node2&#45;&gt;Node3</title>
<path fill="none" stroke="midnightblue" d="M53.9,-46.1C52.9,-37.14 51.76,-26.86 50.97,-19.75"/>
<polygon fill="midnightblue" stroke="midnightblue" points="50.43,-46.53 55.01,-56.08 57.38,-45.76 50.43,-46.53"/>
</g>
<!-- Node5 -->
<g id="node5" class="node">
<title>Node5</title>
<g id="a_node5"><a xlink:href="ImplicitTrapezoidal_8cpp.html" target="_top" xlink:title=" ">
<polygon fill="none" stroke="black" points="118.5,-0.5 118.5,-19.5 247.5,-19.5 247.5,-0.5 118.5,-0.5"/>
<text text-anchor="middle" x="183" y="-7.5" font-family="FreeSans.ttf" font-size="10.00">ImplicitTrapezoidal.cpp</text>
</a>
</g>
</g>
<!-- Node4&#45;&gt;Node5 -->
<g id="edge4" class="edge">
<title>Node4&#45;&gt;Node5</title>
<path fill="none" stroke="midnightblue" d="M183,-45.8C183,-36.91 183,-26.78 183,-19.75"/>
<polygon fill="midnightblue" stroke="midnightblue" points="179.5,-46.08 183,-56.08 186.5,-46.08 179.5,-46.08"/>
</g>
<!-- Node7 -->
<g id="node7" class="node">
<title>Node7</title>
<g id="a_node7"><a xlink:href="RK4_8cpp.html" target="_top" xlink:title=" ">
<polygon fill="none" stroke="black" points="266,-0.5 266,-19.5 322,-19.5 322,-0.5 266,-0.5"/>
<text text-anchor="middle" x="294" y="-7.5" font-family="FreeSans.ttf" font-size="10.00">RK4.cpp</text>
</a>
</g>
</g>
<!-- Node6&#45;&gt;Node7 -->
<g id="edge6" class="edge">
<title>Node6&#45;&gt;Node7</title>
<path fill="none" stroke="midnightblue" d="M286.85,-46.1C288.68,-37.14 290.77,-26.86 292.22,-19.75"/>
<polygon fill="midnightblue" stroke="midnightblue" points="283.38,-45.59 284.82,-56.08 290.24,-46.98 283.38,-45.59"/>
</g>
</g>
</svg>
