<?xml version="1.0" encoding="UTF-8" standalone="no"?>
<!DOCTYPE svg PUBLIC "-//W3C//DTD SVG 1.1//EN"
 "http://www.w3.org/Graphics/SVG/1.1/DTD/svg11.dtd">
<!-- Generated by graphviz version 2.43.0 (0)
 -->
<!-- Title: FixedJoint.h Pages: 1 -->
<svg width="767pt" height="140pt"
 viewBox="0.00 0.00 767.00 140.00" xmlns="http://www.w3.org/2000/svg" xmlns:xlink="http://www.w3.org/1999/xlink">
<g id="graph0" class="graph" transform="scale(1 1) rotate(0) translate(4 136)">
<title>FixedJoint.h</title>
<!-- Node1 -->
<g id="node1" class="node">
<title>Node1</title>
<g id="a_node1"><a xlink:title=" ">
<polygon fill="#bfbfbf" stroke="black" points="332.5,-112.5 332.5,-131.5 405.5,-131.5 405.5,-112.5 332.5,-112.5"/>
<text text-anchor="middle" x="369" y="-119.5" font-family="FreeSans.ttf" font-size="10.00">FixedJoint.h</text>
</a>
</g>
</g>
<!-- Node2 -->
<g id="node2" class="node">
<title>Node2</title>
<g id="a_node2"><a xlink:href="ModelTestUtils_8h.html" target="_top" xlink:title=" ">
<polygon fill="none" stroke="black" points="0,-56.5 0,-75.5 98,-75.5 98,-56.5 0,-56.5"/>
<text text-anchor="middle" x="49" y="-63.5" font-family="FreeSans.ttf" font-size="10.00">ModelTestUtils.h</text>
</a>
</g>
</g>
<!-- Node1&#45;&gt;Node2 -->
<g id="edge1" class="edge">
<title>Node1&#45;&gt;Node2</title>
<path fill="none" stroke="midnightblue" d="M322.35,-113.13C262.48,-103.02 159.06,-85.57 98.05,-75.28"/>
<polygon fill="midnightblue" stroke="midnightblue" points="321.85,-116.59 332.29,-114.81 323.01,-109.69 321.85,-116.59"/>
</g>
<!-- Node4 -->
<g id="node4" class="node">
<title>Node4</title>
<g id="a_node4"><a xlink:href="DenavitHartenberg_8cpp.html" target="_top" xlink:title=" ">
<polygon fill="none" stroke="black" points="116,-56.5 116,-75.5 246,-75.5 246,-56.5 116,-56.5"/>
<text text-anchor="middle" x="181" y="-63.5" font-family="FreeSans.ttf" font-size="10.00">DenavitHartenberg.cpp</text>
</a>
</g>
</g>
<!-- Node1&#45;&gt;Node4 -->
<g id="edge3" class="edge">
<title>Node1&#45;&gt;Node4</title>
<path fill="none" stroke="midnightblue" d="M329.2,-109.57C293.73,-99.38 242.63,-84.7 210.65,-75.52"/>
<polygon fill="midnightblue" stroke="midnightblue" points="328.63,-113.05 339.21,-112.44 330.57,-106.32 328.63,-113.05"/>
</g>
<!-- Node5 -->
<g id="node5" class="node">
<title>Node5</title>
<g id="a_node5"><a xlink:href="FixedJoint_8cpp.html" target="_top" xlink:title=" ">
<polygon fill="none" stroke="black" points="264,-56.5 264,-75.5 348,-75.5 348,-56.5 264,-56.5"/>
<text text-anchor="middle" x="306" y="-63.5" font-family="FreeSans.ttf" font-size="10.00">FixedJoint.cpp</text>
</a>
</g>
</g>
<!-- Node1&#45;&gt;Node5 -->
<g id="edge4" class="edge">
<title>Node1&#45;&gt;Node5</title>
<path fill="none" stroke="midnightblue" d="M350.96,-105.54C339.73,-95.91 325.68,-83.87 316.31,-75.83"/>
<polygon fill="midnightblue" stroke="midnightblue" points="349.01,-108.47 358.88,-112.32 353.56,-103.16 349.01,-108.47"/>
</g>
<!-- Node6 -->
<g id="node6" class="node">
<title>Node6</title>
<g id="a_node6"><a xlink:href="ModelTransformers_8cpp.html" target="_top" xlink:title=" ">
<polygon fill="none" stroke="black" points="366.5,-56.5 366.5,-75.5 497.5,-75.5 497.5,-56.5 366.5,-56.5"/>
<text text-anchor="middle" x="432" y="-63.5" font-family="FreeSans.ttf" font-size="10.00">ModelTransformers.cpp</text>
</a>
</g>
</g>
<!-- Node1&#45;&gt;Node6 -->
<g id="edge5" class="edge">
<title>Node1&#45;&gt;Node6</title>
<path fill="none" stroke="midnightblue" d="M387.04,-105.54C398.27,-95.91 412.32,-83.87 421.69,-75.83"/>
<polygon fill="midnightblue" stroke="midnightblue" points="384.44,-103.16 379.12,-112.32 388.99,-108.47 384.44,-103.16"/>
</g>
<!-- Node7 -->
<g id="node7" class="node">
<title>Node7</title>
<g id="a_node7"><a xlink:href="JointElement_8cpp.html" target="_top" xlink:title=" ">
<polygon fill="none" stroke="black" points="515.5,-56.5 515.5,-75.5 614.5,-75.5 614.5,-56.5 515.5,-56.5"/>
<text text-anchor="middle" x="565" y="-63.5" font-family="FreeSans.ttf" font-size="10.00">JointElement.cpp</text>
</a>
</g>
</g>
<!-- Node1&#45;&gt;Node7 -->
<g id="edge6" class="edge">
<title>Node1&#45;&gt;Node7</title>
<path fill="none" stroke="midnightblue" d="M410.02,-109.7C447.01,-99.51 500.6,-84.74 534.09,-75.52"/>
<polygon fill="midnightblue" stroke="midnightblue" points="408.77,-106.41 400.06,-112.44 410.63,-113.16 408.77,-106.41"/>
</g>
<!-- Node8 -->
<g id="node8" class="node">
<title>Node8</title>
<g id="a_node8"><a xlink:href="URDFModelExport_8cpp.html" target="_top" xlink:title=" ">
<polygon fill="none" stroke="black" points="633,-56.5 633,-75.5 759,-75.5 759,-56.5 633,-56.5"/>
<text text-anchor="middle" x="696" y="-63.5" font-family="FreeSans.ttf" font-size="10.00">URDFModelExport.cpp</text>
</a>
</g>
</g>
<!-- Node1&#45;&gt;Node8 -->
<g id="edge7" class="edge">
<title>Node1&#45;&gt;Node8</title>
<path fill="none" stroke="midnightblue" d="M415.6,-113.3C476.14,-103.31 581.51,-85.91 644.4,-75.52"/>
<polygon fill="midnightblue" stroke="midnightblue" points="414.86,-109.88 405.56,-114.96 416,-116.79 414.86,-109.88"/>
</g>
<!-- Node3 -->
<g id="node3" class="node">
<title>Node3</title>
<g id="a_node3"><a xlink:href="urdf2dh_8cpp.html" target="_top" xlink:title=" ">
<polygon fill="none" stroke="black" points="12,-0.5 12,-19.5 86,-19.5 86,-0.5 12,-0.5"/>
<text text-anchor="middle" x="49" y="-7.5" font-family="FreeSans.ttf" font-size="10.00">urdf2dh.cpp</text>
</a>
</g>
</g>
<!-- Node2&#45;&gt;Node3 -->
<g id="edge2" class="edge">
<title>Node2&#45;&gt;Node3</title>
<path fill="none" stroke="midnightblue" d="M49,-45.8C49,-36.91 49,-26.78 49,-19.75"/>
<polygon fill="midnightblue" stroke="midnightblue" points="45.5,-46.08 49,-56.08 52.5,-46.08 45.5,-46.08"/>
</g>
</g>
</svg>
