<?xml version="1.0" encoding="UTF-8" standalone="no"?>
<!DOCTYPE svg PUBLIC "-//W3C//DTD SVG 1.1//EN"
 "http://www.w3.org/Graphics/SVG/1.1/DTD/svg11.dtd">
<!-- Generated by graphviz version 2.43.0 (0)
 -->
<!-- Title: FloorGridSceneNode.h Pages: 1 -->
<svg width="1321pt" height="252pt"
 viewBox="0.00 0.00 1320.50 252.00" xmlns="http://www.w3.org/2000/svg" xmlns:xlink="http://www.w3.org/1999/xlink">
<g id="graph0" class="graph" transform="scale(1 1) rotate(0) translate(4 248)">
<title>FloorGridSceneNode.h</title>
<!-- Node1 -->
<g id="node1" class="node">
<title>Node1</title>
<g id="a_node1"><a xlink:title=" ">
<polygon fill="#bfbfbf" stroke="black" points="531,-224.5 531,-243.5 656,-243.5 656,-224.5 531,-224.5"/>
<text text-anchor="middle" x="593.5" y="-231.5" font-family="FreeSans.ttf" font-size="10.00">FloorGridSceneNode.h</text>
</a>
</g>
</g>
<!-- Node2 -->
<g id="node2" class="node">
<title>Node2</title>
<g id="a_node2"><a xlink:href="IrrlichtUtils_8h.html" target="_top" xlink:title=" ">
<polygon fill="none" stroke="black" points="553.5,-168.5 553.5,-187.5 633.5,-187.5 633.5,-168.5 553.5,-168.5"/>
<text text-anchor="middle" x="593.5" y="-175.5" font-family="FreeSans.ttf" font-size="10.00">IrrlichtUtils.h</text>
</a>
</g>
</g>
<!-- Node1&#45;&gt;Node2 -->
<g id="edge1" class="edge">
<title>Node1&#45;&gt;Node2</title>
<path fill="none" stroke="midnightblue" d="M593.5,-213.8C593.5,-204.91 593.5,-194.78 593.5,-187.75"/>
<polygon fill="midnightblue" stroke="midnightblue" points="590,-214.08 593.5,-224.08 597,-214.08 590,-214.08"/>
</g>
<!-- Node6 -->
<g id="node6" class="node">
<title>Node6</title>
<g id="a_node6"><a xlink:href="FloorGridSceneNode_8cpp.html" target="_top" xlink:title=" ">
<polygon fill="none" stroke="black" points="0,-112.5 0,-131.5 137,-131.5 137,-112.5 0,-112.5"/>
<text text-anchor="middle" x="68.5" y="-119.5" font-family="FreeSans.ttf" font-size="10.00">FloorGridSceneNode.cpp</text>
</a>
</g>
</g>
<!-- Node1&#45;&gt;Node6 -->
<g id="edge17" class="edge">
<title>Node1&#45;&gt;Node6</title>
<path fill="none" stroke="midnightblue" d="M542.82,-222.38C439,-200.63 203.99,-151.39 109.23,-131.53"/>
<polygon fill="midnightblue" stroke="midnightblue" points="542.24,-225.83 552.74,-224.46 543.67,-218.98 542.24,-225.83"/>
</g>
<!-- Node12 -->
<g id="node12" class="node">
<title>Node12</title>
<g id="a_node12"><a xlink:href="Environment_8h.html" target="_top" xlink:title=" ">
<polygon fill="none" stroke="black" points="1058.5,-168.5 1058.5,-187.5 1146.5,-187.5 1146.5,-168.5 1058.5,-168.5"/>
<text text-anchor="middle" x="1102.5" y="-175.5" font-family="FreeSans.ttf" font-size="10.00">Environment.h</text>
</a>
</g>
</g>
<!-- Node1&#45;&gt;Node12 -->
<g id="edge11" class="edge">
<title>Node1&#45;&gt;Node12</title>
<path fill="none" stroke="midnightblue" d="M666.25,-225.28C773.43,-213.91 970.51,-193 1058.3,-183.69"/>
<polygon fill="midnightblue" stroke="midnightblue" points="665.74,-221.82 656.17,-226.35 666.48,-228.78 665.74,-221.82"/>
</g>
<!-- Node3 -->
<g id="node3" class="node">
<title>Node3</title>
<g id="a_node3"><a xlink:href="Camera_8cpp.html" target="_top" xlink:title=" ">
<polygon fill="none" stroke="black" points="155,-112.5 155,-131.5 230,-131.5 230,-112.5 155,-112.5"/>
<text text-anchor="middle" x="192.5" y="-119.5" font-family="FreeSans.ttf" font-size="10.00">Camera.cpp</text>
</a>
</g>
</g>
<!-- Node2&#45;&gt;Node3 -->
<g id="edge2" class="edge">
<title>Node2&#45;&gt;Node3</title>
<path fill="none" stroke="midnightblue" d="M543.18,-171.61C474.42,-164.01 347.31,-149.16 239.5,-132 236.46,-131.52 233.32,-130.99 230.17,-130.43"/>
<polygon fill="midnightblue" stroke="midnightblue" points="542.98,-175.11 553.3,-172.72 543.74,-168.15 542.98,-175.11"/>
</g>
<!-- Node4 -->
<g id="node4" class="node">
<title>Node4</title>
<g id="a_node4"><a xlink:href="CameraAnimator_8cpp.html" target="_top" xlink:title=" ">
<polygon fill="none" stroke="black" points="248,-112.5 248,-131.5 367,-131.5 367,-112.5 248,-112.5"/>
<text text-anchor="middle" x="307.5" y="-119.5" font-family="FreeSans.ttf" font-size="10.00">CameraAnimator.cpp</text>
</a>
</g>
</g>
<!-- Node2&#45;&gt;Node4 -->
<g id="edge3" class="edge">
<title>Node2&#45;&gt;Node4</title>
<path fill="none" stroke="midnightblue" d="M543.43,-167.55C489.64,-157.39 404.9,-141.39 352.96,-131.58"/>
<polygon fill="midnightblue" stroke="midnightblue" points="542.96,-171.02 553.43,-169.43 544.25,-164.14 542.96,-171.02"/>
</g>
<!-- Node5 -->
<g id="node5" class="node">
<title>Node5</title>
<g id="a_node5"><a xlink:href="Environment_8cpp.html" target="_top" xlink:title=" ">
<polygon fill="none" stroke="black" points="1053,-112.5 1053,-131.5 1152,-131.5 1152,-112.5 1053,-112.5"/>
<text text-anchor="middle" x="1102.5" y="-119.5" font-family="FreeSans.ttf" font-size="10.00">Environment.cpp</text>
</a>
</g>
</g>
<!-- Node2&#45;&gt;Node5 -->
<g id="edge4" class="edge">
<title>Node2&#45;&gt;Node5</title>
<path fill="none" stroke="midnightblue" d="M643.8,-172.82C727.08,-165.72 898.76,-150.26 1043.5,-132 1046.58,-131.61 1049.76,-131.19 1052.95,-130.75"/>
<polygon fill="midnightblue" stroke="midnightblue" points="643.28,-169.36 633.61,-173.69 643.87,-176.33 643.28,-169.36"/>
</g>
<!-- Node2&#45;&gt;Node6 -->
<g id="edge5" class="edge">
<title>Node2&#45;&gt;Node6</title>
<path fill="none" stroke="midnightblue" d="M543.17,-172.21C460.24,-164.27 289.7,-147.67 145.5,-132 142.82,-131.71 140.1,-131.41 137.34,-131.1"/>
<polygon fill="midnightblue" stroke="midnightblue" points="543.03,-175.72 553.32,-173.18 543.7,-168.75 543.03,-175.72"/>
</g>
<!-- Node7 -->
<g id="node7" class="node">
<title>Node7</title>
<g id="a_node7"><a xlink:href="FrameVisualization_8cpp.html" target="_top" xlink:title=" ">
<polygon fill="none" stroke="black" points="385,-112.5 385,-131.5 516,-131.5 516,-112.5 385,-112.5"/>
<text text-anchor="middle" x="450.5" y="-119.5" font-family="FreeSans.ttf" font-size="10.00">FrameVisualization.cpp</text>
</a>
</g>
</g>
<!-- Node2&#45;&gt;Node7 -->
<g id="edge6" class="edge">
<title>Node2&#45;&gt;Node7</title>
<path fill="none" stroke="midnightblue" d="M561.47,-164.91C534.59,-154.75 496.86,-140.51 473.05,-131.52"/>
<polygon fill="midnightblue" stroke="midnightblue" points="560.25,-168.19 570.84,-168.44 562.72,-161.64 560.25,-168.19"/>
</g>
<!-- Node8 -->
<g id="node8" class="node">
<title>Node8</title>
<g id="a_node8"><a xlink:href="JetsVisualization_8cpp.html" target="_top" xlink:title=" ">
<polygon fill="none" stroke="black" points="534.5,-112.5 534.5,-131.5 652.5,-131.5 652.5,-112.5 534.5,-112.5"/>
<text text-anchor="middle" x="593.5" y="-119.5" font-family="FreeSans.ttf" font-size="10.00">JetsVisualization.cpp</text>
</a>
</g>
</g>
<!-- Node2&#45;&gt;Node8 -->
<g id="edge7" class="edge">
<title>Node2&#45;&gt;Node8</title>
<path fill="none" stroke="midnightblue" d="M593.5,-157.8C593.5,-148.91 593.5,-138.78 593.5,-131.75"/>
<polygon fill="midnightblue" stroke="midnightblue" points="590,-158.08 593.5,-168.08 597,-158.08 590,-158.08"/>
</g>
<!-- Node9 -->
<g id="node9" class="node">
<title>Node9</title>
<g id="a_node9"><a xlink:href="Light_8cpp.html" target="_top" xlink:title=" ">
<polygon fill="none" stroke="black" points="671,-112.5 671,-131.5 732,-131.5 732,-112.5 671,-112.5"/>
<text text-anchor="middle" x="701.5" y="-119.5" font-family="FreeSans.ttf" font-size="10.00">Light.cpp</text>
</a>
</g>
</g>
<!-- Node2&#45;&gt;Node9 -->
<g id="edge8" class="edge">
<title>Node2&#45;&gt;Node9</title>
<path fill="none" stroke="midnightblue" d="M620.05,-163.73C640.05,-153.73 666.89,-140.31 684.19,-131.65"/>
<polygon fill="midnightblue" stroke="midnightblue" points="618.23,-160.72 610.85,-168.32 621.36,-166.98 618.23,-160.72"/>
</g>
<!-- Node10 -->
<g id="node10" class="node">
<title>Node10</title>
<g id="a_node10"><a xlink:href="ModelVisualization_8cpp.html" target="_top" xlink:title=" ">
<polygon fill="none" stroke="black" points="750.5,-112.5 750.5,-131.5 880.5,-131.5 880.5,-112.5 750.5,-112.5"/>
<text text-anchor="middle" x="815.5" y="-119.5" font-family="FreeSans.ttf" font-size="10.00">ModelVisualization.cpp</text>
</a>
</g>
</g>
<!-- Node2&#45;&gt;Node10 -->
<g id="edge9" class="edge">
<title>Node2&#45;&gt;Node10</title>
<path fill="none" stroke="midnightblue" d="M638.62,-166.02C680.56,-155.82 742.15,-140.84 780.49,-131.52"/>
<polygon fill="midnightblue" stroke="midnightblue" points="637.57,-162.68 628.68,-168.44 639.22,-169.48 637.57,-162.68"/>
</g>
<!-- Node11 -->
<g id="node11" class="node">
<title>Node11</title>
<g id="a_node11"><a xlink:href="VectorsVisualization_8cpp.html" target="_top" xlink:title=" ">
<polygon fill="none" stroke="black" points="898.5,-112.5 898.5,-131.5 1034.5,-131.5 1034.5,-112.5 898.5,-112.5"/>
<text text-anchor="middle" x="966.5" y="-119.5" font-family="FreeSans.ttf" font-size="10.00">VectorsVisualization.cpp</text>
</a>
</g>
</g>
<!-- Node2&#45;&gt;Node11 -->
<g id="edge10" class="edge">
<title>Node2&#45;&gt;Node11</title>
<path fill="none" stroke="midnightblue" d="M643.9,-169.7C712.51,-159.77 835.09,-142.03 907.78,-131.5"/>
<polygon fill="midnightblue" stroke="midnightblue" points="643.17,-166.27 633.77,-171.17 644.17,-173.2 643.17,-166.27"/>
</g>
<!-- Node12&#45;&gt;Node5 -->
<g id="edge12" class="edge">
<title>Node12&#45;&gt;Node5</title>
<path fill="none" stroke="midnightblue" d="M1102.5,-157.8C1102.5,-148.91 1102.5,-138.78 1102.5,-131.75"/>
<polygon fill="midnightblue" stroke="midnightblue" points="1099,-158.08 1102.5,-168.08 1106,-158.08 1099,-158.08"/>
</g>
<!-- Node13 -->
<g id="node13" class="node">
<title>Node13</title>
<g id="a_node13"><a xlink:href="Texture_8h.html" target="_top" xlink:title=" ">
<polygon fill="none" stroke="black" points="1170.5,-112.5 1170.5,-131.5 1232.5,-131.5 1232.5,-112.5 1170.5,-112.5"/>
<text text-anchor="middle" x="1201.5" y="-119.5" font-family="FreeSans.ttf" font-size="10.00">Texture.h</text>
</a>
</g>
</g>
<!-- Node12&#45;&gt;Node13 -->
<g id="edge13" class="edge">
<title>Node12&#45;&gt;Node13</title>
<path fill="none" stroke="midnightblue" d="M1127.34,-163.45C1145.61,-153.48 1169.92,-140.23 1185.63,-131.65"/>
<polygon fill="midnightblue" stroke="midnightblue" points="1125.51,-160.46 1118.41,-168.32 1128.86,-166.61 1125.51,-160.46"/>
</g>
<!-- Node14 -->
<g id="node14" class="node">
<title>Node14</title>
<g id="a_node14"><a xlink:href="Texture_8cpp.html" target="_top" xlink:title=" ">
<polygon fill="none" stroke="black" points="1111,-56.5 1111,-75.5 1184,-75.5 1184,-56.5 1111,-56.5"/>
<text text-anchor="middle" x="1147.5" y="-63.5" font-family="FreeSans.ttf" font-size="10.00">Texture.cpp</text>
</a>
</g>
</g>
<!-- Node13&#45;&gt;Node14 -->
<g id="edge14" class="edge">
<title>Node13&#45;&gt;Node14</title>
<path fill="none" stroke="midnightblue" d="M1185.5,-105C1175.93,-95.43 1164.14,-83.64 1156.25,-75.75"/>
<polygon fill="midnightblue" stroke="midnightblue" points="1183.04,-107.49 1192.58,-112.08 1187.99,-102.54 1183.04,-107.49"/>
</g>
<!-- Node15 -->
<g id="node15" class="node">
<title>Node15</title>
<g id="a_node15"><a xlink:href="TexturesHandler_8h.html" target="_top" xlink:title=" ">
<polygon fill="none" stroke="black" points="1202.5,-56.5 1202.5,-75.5 1306.5,-75.5 1306.5,-56.5 1202.5,-56.5"/>
<text text-anchor="middle" x="1254.5" y="-63.5" font-family="FreeSans.ttf" font-size="10.00">TexturesHandler.h</text>
</a>
</g>
</g>
<!-- Node13&#45;&gt;Node15 -->
<g id="edge15" class="edge">
<title>Node13&#45;&gt;Node15</title>
<path fill="none" stroke="midnightblue" d="M1217.48,-104.72C1226.82,-95.2 1238.25,-83.56 1245.91,-75.75"/>
<polygon fill="midnightblue" stroke="midnightblue" points="1214.76,-102.49 1210.25,-112.08 1219.75,-107.4 1214.76,-102.49"/>
</g>
<!-- Node16 -->
<g id="node16" class="node">
<title>Node16</title>
<g id="a_node16"><a xlink:href="TexturesHandler_8cpp.html" target="_top" xlink:title=" ">
<polygon fill="none" stroke="black" points="1196.5,-0.5 1196.5,-19.5 1312.5,-19.5 1312.5,-0.5 1196.5,-0.5"/>
<text text-anchor="middle" x="1254.5" y="-7.5" font-family="FreeSans.ttf" font-size="10.00">TexturesHandler.cpp</text>
</a>
</g>
</g>
<!-- Node15&#45;&gt;Node16 -->
<g id="edge16" class="edge">
<title>Node15&#45;&gt;Node16</title>
<path fill="none" stroke="midnightblue" d="M1254.5,-45.8C1254.5,-36.91 1254.5,-26.78 1254.5,-19.75"/>
<polygon fill="midnightblue" stroke="midnightblue" points="1251,-46.08 1254.5,-56.08 1258,-46.08 1251,-46.08"/>
</g>
</g>
</svg>
