<?xml version="1.0" encoding="UTF-8" standalone="no"?>
<!DOCTYPE svg PUBLIC "-//W3C//DTD SVG 1.1//EN"
 "http://www.w3.org/Graphics/SVG/1.1/DTD/svg11.dtd">
<!-- Generated by graphviz version 2.43.0 (0)
 -->
<!-- Title: FloorGridSceneNode.h Pages: 1 -->
<svg width="1402pt" height="252pt"
 viewBox="0.00 0.00 1401.50 252.00" xmlns="http://www.w3.org/2000/svg" xmlns:xlink="http://www.w3.org/1999/xlink">
<g id="graph0" class="graph" transform="scale(1 1) rotate(0) translate(4 248)">
<title>FloorGridSceneNode.h</title>
<!-- Node1 -->
<g id="node1" class="node">
<title>Node1</title>
<g id="a_node1"><a xlink:title=" ">
<polygon fill="#bfbfbf" stroke="black" points="585,-224.5 585,-243.5 710,-243.5 710,-224.5 585,-224.5"/>
<text text-anchor="middle" x="647.5" y="-231.5" font-family="FreeSans.ttf" font-size="10.00">FloorGridSceneNode.h</text>
</a>
</g>
</g>
<!-- Node2 -->
<g id="node2" class="node">
<title>Node2</title>
<g id="a_node2"><a xlink:href="IrrlichtUtils_8h.html" target="_top" xlink:title=" ">
<polygon fill="none" stroke="black" points="607.5,-168.5 607.5,-187.5 687.5,-187.5 687.5,-168.5 607.5,-168.5"/>
<text text-anchor="middle" x="647.5" y="-175.5" font-family="FreeSans.ttf" font-size="10.00">IrrlichtUtils.h</text>
</a>
</g>
</g>
<!-- Node1&#45;&gt;Node2 -->
<g id="edge1" class="edge">
<title>Node1&#45;&gt;Node2</title>
<path fill="none" stroke="midnightblue" d="M647.5,-213.8C647.5,-204.91 647.5,-194.78 647.5,-187.75"/>
<polygon fill="midnightblue" stroke="midnightblue" points="644,-214.08 647.5,-224.08 651,-214.08 644,-214.08"/>
</g>
<!-- Node6 -->
<g id="node6" class="node">
<title>Node6</title>
<g id="a_node6"><a xlink:href="FloorGridSceneNode_8cpp.html" target="_top" xlink:title=" ">
<polygon fill="none" stroke="black" points="0,-112.5 0,-131.5 137,-131.5 137,-112.5 0,-112.5"/>
<text text-anchor="middle" x="68.5" y="-119.5" font-family="FreeSans.ttf" font-size="10.00">FloorGridSceneNode.cpp</text>
</a>
</g>
</g>
<!-- Node1&#45;&gt;Node6 -->
<g id="edge18" class="edge">
<title>Node1&#45;&gt;Node6</title>
<path fill="none" stroke="midnightblue" d="M592.64,-222.58C478.68,-200.93 218.24,-151.45 113.42,-131.53"/>
<polygon fill="midnightblue" stroke="midnightblue" points="592.07,-226.03 602.55,-224.46 593.38,-219.15 592.07,-226.03"/>
</g>
<!-- Node13 -->
<g id="node13" class="node">
<title>Node13</title>
<g id="a_node13"><a xlink:href="Environment_8h.html" target="_top" xlink:title=" ">
<polygon fill="none" stroke="black" points="1139.5,-168.5 1139.5,-187.5 1227.5,-187.5 1227.5,-168.5 1139.5,-168.5"/>
<text text-anchor="middle" x="1183.5" y="-175.5" font-family="FreeSans.ttf" font-size="10.00">Environment.h</text>
</a>
</g>
</g>
<!-- Node1&#45;&gt;Node13 -->
<g id="edge12" class="edge">
<title>Node1&#45;&gt;Node13</title>
<path fill="none" stroke="midnightblue" d="M720.3,-225.67C833.13,-214.3 1046.83,-192.77 1139.16,-183.47"/>
<polygon fill="midnightblue" stroke="midnightblue" points="719.63,-222.21 710.04,-226.7 720.34,-229.18 719.63,-222.21"/>
</g>
<!-- Node3 -->
<g id="node3" class="node">
<title>Node3</title>
<g id="a_node3"><a xlink:href="Camera_8cpp.html" target="_top" xlink:title=" ">
<polygon fill="none" stroke="black" points="155,-112.5 155,-131.5 230,-131.5 230,-112.5 155,-112.5"/>
<text text-anchor="middle" x="192.5" y="-119.5" font-family="FreeSans.ttf" font-size="10.00">Camera.cpp</text>
</a>
</g>
</g>
<!-- Node2&#45;&gt;Node3 -->
<g id="edge2" class="edge">
<title>Node2&#45;&gt;Node3</title>
<path fill="none" stroke="midnightblue" d="M597.01,-172.73C519.77,-165.91 367.71,-151.31 239.5,-132 236.46,-131.54 233.32,-131.03 230.16,-130.48"/>
<polygon fill="midnightblue" stroke="midnightblue" points="597.14,-176.25 607.4,-173.64 597.75,-169.28 597.14,-176.25"/>
</g>
<!-- Node4 -->
<g id="node4" class="node">
<title>Node4</title>
<g id="a_node4"><a xlink:href="CameraAnimator_8cpp.html" target="_top" xlink:title=" ">
<polygon fill="none" stroke="black" points="248,-112.5 248,-131.5 367,-131.5 367,-112.5 248,-112.5"/>
<text text-anchor="middle" x="307.5" y="-119.5" font-family="FreeSans.ttf" font-size="10.00">CameraAnimator.cpp</text>
</a>
</g>
</g>
<!-- Node2&#45;&gt;Node4 -->
<g id="edge3" class="edge">
<title>Node2&#45;&gt;Node4</title>
<path fill="none" stroke="midnightblue" d="M597.37,-169.04C534.13,-158.99 425.83,-141.79 361.02,-131.5"/>
<polygon fill="midnightblue" stroke="midnightblue" points="597.07,-172.53 607.5,-170.65 598.17,-165.62 597.07,-172.53"/>
</g>
<!-- Node5 -->
<g id="node5" class="node">
<title>Node5</title>
<g id="a_node5"><a xlink:href="Environment_8cpp.html" target="_top" xlink:title=" ">
<polygon fill="none" stroke="black" points="1134,-112.5 1134,-131.5 1233,-131.5 1233,-112.5 1134,-112.5"/>
<text text-anchor="middle" x="1183.5" y="-119.5" font-family="FreeSans.ttf" font-size="10.00">Environment.cpp</text>
</a>
</g>
</g>
<!-- Node2&#45;&gt;Node5 -->
<g id="edge4" class="edge">
<title>Node2&#45;&gt;Node5</title>
<path fill="none" stroke="midnightblue" d="M697.93,-173.2C785.07,-166.42 969.41,-151.13 1124.5,-132 1127.59,-131.62 1130.76,-131.2 1133.95,-130.77"/>
<polygon fill="midnightblue" stroke="midnightblue" points="697.49,-169.72 687.79,-173.98 698.03,-176.7 697.49,-169.72"/>
</g>
<!-- Node2&#45;&gt;Node6 -->
<g id="edge5" class="edge">
<title>Node2&#45;&gt;Node6</title>
<path fill="none" stroke="midnightblue" d="M597.21,-172.94C506.75,-165.55 310.65,-149.05 145.5,-132 142.82,-131.72 140.09,-131.44 137.34,-131.14"/>
<polygon fill="midnightblue" stroke="midnightblue" points="597.19,-176.45 607.45,-173.78 597.76,-169.48 597.19,-176.45"/>
</g>
<!-- Node7 -->
<g id="node7" class="node">
<title>Node7</title>
<g id="a_node7"><a xlink:href="FrameVisualization_8cpp.html" target="_top" xlink:title=" ">
<polygon fill="none" stroke="black" points="385,-112.5 385,-131.5 516,-131.5 516,-112.5 385,-112.5"/>
<text text-anchor="middle" x="450.5" y="-119.5" font-family="FreeSans.ttf" font-size="10.00">FrameVisualization.cpp</text>
</a>
</g>
</g>
<!-- Node2&#45;&gt;Node7 -->
<g id="edge6" class="edge">
<title>Node2&#45;&gt;Node7</title>
<path fill="none" stroke="midnightblue" d="M606.27,-165.7C569.09,-155.51 515.23,-140.74 481.57,-131.52"/>
<polygon fill="midnightblue" stroke="midnightblue" points="605.72,-169.18 616.28,-168.44 607.57,-162.42 605.72,-169.18"/>
</g>
<!-- Node8 -->
<g id="node8" class="node">
<title>Node8</title>
<g id="a_node8"><a xlink:href="JetsVisualization_8cpp.html" target="_top" xlink:title=" ">
<polygon fill="none" stroke="black" points="534.5,-112.5 534.5,-131.5 652.5,-131.5 652.5,-112.5 534.5,-112.5"/>
<text text-anchor="middle" x="593.5" y="-119.5" font-family="FreeSans.ttf" font-size="10.00">JetsVisualization.cpp</text>
</a>
</g>
</g>
<!-- Node2&#45;&gt;Node8 -->
<g id="edge7" class="edge">
<title>Node2&#45;&gt;Node8</title>
<path fill="none" stroke="midnightblue" d="M631.5,-161C621.93,-151.43 610.14,-139.64 602.25,-131.75"/>
<polygon fill="midnightblue" stroke="midnightblue" points="629.04,-163.49 638.58,-168.08 633.99,-158.54 629.04,-163.49"/>
</g>
<!-- Node9 -->
<g id="node9" class="node">
<title>Node9</title>
<g id="a_node9"><a xlink:href="Label_8cpp.html" target="_top" xlink:title=" ">
<polygon fill="none" stroke="black" points="671,-112.5 671,-131.5 734,-131.5 734,-112.5 671,-112.5"/>
<text text-anchor="middle" x="702.5" y="-119.5" font-family="FreeSans.ttf" font-size="10.00">Label.cpp</text>
</a>
</g>
</g>
<!-- Node2&#45;&gt;Node9 -->
<g id="edge8" class="edge">
<title>Node2&#45;&gt;Node9</title>
<path fill="none" stroke="midnightblue" d="M663.79,-161C673.54,-151.43 685.55,-139.64 693.59,-131.75"/>
<polygon fill="midnightblue" stroke="midnightblue" points="661.27,-158.58 656.58,-168.08 666.17,-163.57 661.27,-158.58"/>
</g>
<!-- Node10 -->
<g id="node10" class="node">
<title>Node10</title>
<g id="a_node10"><a xlink:href="Light_8cpp.html" target="_top" xlink:title=" ">
<polygon fill="none" stroke="black" points="752,-112.5 752,-131.5 813,-131.5 813,-112.5 752,-112.5"/>
<text text-anchor="middle" x="782.5" y="-119.5" font-family="FreeSans.ttf" font-size="10.00">Light.cpp</text>
</a>
</g>
</g>
<!-- Node2&#45;&gt;Node10 -->
<g id="edge9" class="edge">
<title>Node2&#45;&gt;Node10</title>
<path fill="none" stroke="midnightblue" d="M678.41,-164.64C703.74,-154.5 738.93,-140.43 761.21,-131.52"/>
<polygon fill="midnightblue" stroke="midnightblue" points="676.88,-161.48 668.89,-168.44 679.48,-167.98 676.88,-161.48"/>
</g>
<!-- Node11 -->
<g id="node11" class="node">
<title>Node11</title>
<g id="a_node11"><a xlink:href="ModelVisualization_8cpp.html" target="_top" xlink:title=" ">
<polygon fill="none" stroke="black" points="831.5,-112.5 831.5,-131.5 961.5,-131.5 961.5,-112.5 831.5,-112.5"/>
<text text-anchor="middle" x="896.5" y="-119.5" font-family="FreeSans.ttf" font-size="10.00">ModelVisualization.cpp</text>
</a>
</g>
</g>
<!-- Node2&#45;&gt;Node11 -->
<g id="edge10" class="edge">
<title>Node2&#45;&gt;Node11</title>
<path fill="none" stroke="midnightblue" d="M696.92,-166.28C743.98,-156.08 813.87,-140.92 857.23,-131.52"/>
<polygon fill="midnightblue" stroke="midnightblue" points="695.99,-162.9 686.95,-168.44 697.47,-169.74 695.99,-162.9"/>
</g>
<!-- Node12 -->
<g id="node12" class="node">
<title>Node12</title>
<g id="a_node12"><a xlink:href="VectorsVisualization_8cpp.html" target="_top" xlink:title=" ">
<polygon fill="none" stroke="black" points="979.5,-112.5 979.5,-131.5 1115.5,-131.5 1115.5,-112.5 979.5,-112.5"/>
<text text-anchor="middle" x="1047.5" y="-119.5" font-family="FreeSans.ttf" font-size="10.00">VectorsVisualization.cpp</text>
</a>
</g>
</g>
<!-- Node2&#45;&gt;Node12 -->
<g id="edge11" class="edge">
<title>Node2&#45;&gt;Node12</title>
<path fill="none" stroke="midnightblue" d="M697.97,-170.19C770.78,-160.36 905.24,-142.21 984.48,-131.51"/>
<polygon fill="midnightblue" stroke="midnightblue" points="697.13,-166.77 687.68,-171.58 698.06,-173.71 697.13,-166.77"/>
</g>
<!-- Node13&#45;&gt;Node5 -->
<g id="edge13" class="edge">
<title>Node13&#45;&gt;Node5</title>
<path fill="none" stroke="midnightblue" d="M1183.5,-157.8C1183.5,-148.91 1183.5,-138.78 1183.5,-131.75"/>
<polygon fill="midnightblue" stroke="midnightblue" points="1180,-158.08 1183.5,-168.08 1187,-158.08 1180,-158.08"/>
</g>
<!-- Node14 -->
<g id="node14" class="node">
<title>Node14</title>
<g id="a_node14"><a xlink:href="Texture_8h.html" target="_top" xlink:title=" ">
<polygon fill="none" stroke="black" points="1251.5,-112.5 1251.5,-131.5 1313.5,-131.5 1313.5,-112.5 1251.5,-112.5"/>
<text text-anchor="middle" x="1282.5" y="-119.5" font-family="FreeSans.ttf" font-size="10.00">Texture.h</text>
</a>
</g>
</g>
<!-- Node13&#45;&gt;Node14 -->
<g id="edge14" class="edge">
<title>Node13&#45;&gt;Node14</title>
<path fill="none" stroke="midnightblue" d="M1208.34,-163.45C1226.61,-153.48 1250.92,-140.23 1266.63,-131.65"/>
<polygon fill="midnightblue" stroke="midnightblue" points="1206.51,-160.46 1199.41,-168.32 1209.86,-166.61 1206.51,-160.46"/>
</g>
<!-- Node15 -->
<g id="node15" class="node">
<title>Node15</title>
<g id="a_node15"><a xlink:href="Texture_8cpp.html" target="_top" xlink:title=" ">
<polygon fill="none" stroke="black" points="1192,-56.5 1192,-75.5 1265,-75.5 1265,-56.5 1192,-56.5"/>
<text text-anchor="middle" x="1228.5" y="-63.5" font-family="FreeSans.ttf" font-size="10.00">Texture.cpp</text>
</a>
</g>
</g>
<!-- Node14&#45;&gt;Node15 -->
<g id="edge15" class="edge">
<title>Node14&#45;&gt;Node15</title>
<path fill="none" stroke="midnightblue" d="M1266.5,-105C1256.93,-95.43 1245.14,-83.64 1237.25,-75.75"/>
<polygon fill="midnightblue" stroke="midnightblue" points="1264.04,-107.49 1273.58,-112.08 1268.99,-102.54 1264.04,-107.49"/>
</g>
<!-- Node16 -->
<g id="node16" class="node">
<title>Node16</title>
<g id="a_node16"><a xlink:href="TexturesHandler_8h.html" target="_top" xlink:title=" ">
<polygon fill="none" stroke="black" points="1283.5,-56.5 1283.5,-75.5 1387.5,-75.5 1387.5,-56.5 1283.5,-56.5"/>
<text text-anchor="middle" x="1335.5" y="-63.5" font-family="FreeSans.ttf" font-size="10.00">TexturesHandler.h</text>
</a>
</g>
</g>
<!-- Node14&#45;&gt;Node16 -->
<g id="edge16" class="edge">
<title>Node14&#45;&gt;Node16</title>
<path fill="none" stroke="midnightblue" d="M1298.48,-104.72C1307.82,-95.2 1319.25,-83.56 1326.91,-75.75"/>
<polygon fill="midnightblue" stroke="midnightblue" points="1295.76,-102.49 1291.25,-112.08 1300.75,-107.4 1295.76,-102.49"/>
</g>
<!-- Node17 -->
<g id="node17" class="node">
<title>Node17</title>
<g id="a_node17"><a xlink:href="TexturesHandler_8cpp.html" target="_top" xlink:title=" ">
<polygon fill="none" stroke="black" points="1277.5,-0.5 1277.5,-19.5 1393.5,-19.5 1393.5,-0.5 1277.5,-0.5"/>
<text text-anchor="middle" x="1335.5" y="-7.5" font-family="FreeSans.ttf" font-size="10.00">TexturesHandler.cpp</text>
</a>
</g>
</g>
<!-- Node16&#45;&gt;Node17 -->
<g id="edge17" class="edge">
<title>Node16&#45;&gt;Node17</title>
<path fill="none" stroke="midnightblue" d="M1335.5,-45.8C1335.5,-36.91 1335.5,-26.78 1335.5,-19.75"/>
<polygon fill="midnightblue" stroke="midnightblue" points="1332,-46.08 1335.5,-56.08 1339,-46.08 1332,-46.08"/>
</g>
</g>
</svg>
