<?xml version="1.0" encoding="UTF-8" standalone="no"?>
<!DOCTYPE svg PUBLIC "-//W3C//DTD SVG 1.1//EN"
 "http://www.w3.org/Graphics/SVG/1.1/DTD/svg11.dtd">
<!-- Generated by graphviz version 2.43.0 (0)
 -->
<!-- Title: ForwardKinematics.h Pages: 1 -->
<svg width="1081pt" height="84pt"
 viewBox="0.00 0.00 1080.50 84.00" xmlns="http://www.w3.org/2000/svg" xmlns:xlink="http://www.w3.org/1999/xlink">
<g id="graph0" class="graph" transform="scale(1 1) rotate(0) translate(4 80)">
<title>ForwardKinematics.h</title>
<!-- Node1 -->
<g id="node1" class="node">
<title>Node1</title>
<g id="a_node1"><a xlink:title=" ">
<polygon fill="#bfbfbf" stroke="black" points="450,-56.5 450,-75.5 569,-75.5 569,-56.5 450,-56.5"/>
<text text-anchor="middle" x="509.5" y="-63.5" font-family="FreeSans.ttf" font-size="10.00">ForwardKinematics.h</text>
</a>
</g>
</g>
<!-- Node2 -->
<g id="node2" class="node">
<title>Node2</title>
<g id="a_node2"><a xlink:href="BerdyHelper_8cpp.html" target="_top" xlink:title=" ">
<polygon fill="none" stroke="black" points="0,-0.5 0,-19.5 97,-19.5 97,-0.5 0,-0.5"/>
<text text-anchor="middle" x="48.5" y="-7.5" font-family="FreeSans.ttf" font-size="10.00">BerdyHelper.cpp</text>
</a>
</g>
</g>
<!-- Node1&#45;&gt;Node2 -->
<g id="edge1" class="edge">
<title>Node1&#45;&gt;Node2</title>
<path fill="none" stroke="midnightblue" d="M439.81,-58.21C359.2,-50.14 222.54,-35.75 105.5,-20 102.82,-19.64 100.07,-19.25 97.3,-18.85"/>
<polygon fill="midnightblue" stroke="midnightblue" points="439.54,-61.7 449.84,-59.22 440.24,-54.74 439.54,-61.7"/>
</g>
<!-- Node3 -->
<g id="node3" class="node">
<title>Node3</title>
<g id="a_node3"><a xlink:href="SimpleLeggedOdometry_8cpp.html" target="_top" xlink:title=" ">
<polygon fill="none" stroke="black" points="115,-0.5 115,-19.5 268,-19.5 268,-0.5 115,-0.5"/>
<text text-anchor="middle" x="191.5" y="-7.5" font-family="FreeSans.ttf" font-size="10.00">SimpleLeggedOdometry.cpp</text>
</a>
</g>
</g>
<!-- Node1&#45;&gt;Node3 -->
<g id="edge2" class="edge">
<title>Node1&#45;&gt;Node3</title>
<path fill="none" stroke="midnightblue" d="M449.01,-54.73C388.91,-44.52 297.84,-29.06 241.65,-19.52"/>
<polygon fill="midnightblue" stroke="midnightblue" points="448.67,-58.22 459.11,-56.44 449.84,-51.32 448.67,-58.22"/>
</g>
<!-- Node4 -->
<g id="node4" class="node">
<title>Node4</title>
<g id="a_node4"><a xlink:href="KinDynComputations_8cpp.html" target="_top" xlink:title=" ">
<polygon fill="none" stroke="black" points="286.5,-0.5 286.5,-19.5 426.5,-19.5 426.5,-0.5 286.5,-0.5"/>
<text text-anchor="middle" x="356.5" y="-7.5" font-family="FreeSans.ttf" font-size="10.00">KinDynComputations.cpp</text>
</a>
</g>
</g>
<!-- Node1&#45;&gt;Node4 -->
<g id="edge3" class="edge">
<title>Node1&#45;&gt;Node4</title>
<path fill="none" stroke="midnightblue" d="M475.61,-53.04C446.82,-42.88 406.21,-28.55 380.63,-19.52"/>
<polygon fill="midnightblue" stroke="midnightblue" points="474.66,-56.42 485.26,-56.44 476.99,-49.81 474.66,-56.42"/>
</g>
<!-- Node5 -->
<g id="node5" class="node">
<title>Node5</title>
<g id="a_node5"><a xlink:href="DenavitHartenberg_8cpp.html" target="_top" xlink:title=" ">
<polygon fill="none" stroke="black" points="444.5,-0.5 444.5,-19.5 574.5,-19.5 574.5,-0.5 444.5,-0.5"/>
<text text-anchor="middle" x="509.5" y="-7.5" font-family="FreeSans.ttf" font-size="10.00">DenavitHartenberg.cpp</text>
</a>
</g>
</g>
<!-- Node1&#45;&gt;Node5 -->
<g id="edge4" class="edge">
<title>Node1&#45;&gt;Node5</title>
<path fill="none" stroke="midnightblue" d="M509.5,-45.8C509.5,-36.91 509.5,-26.78 509.5,-19.75"/>
<polygon fill="midnightblue" stroke="midnightblue" points="506,-46.08 509.5,-56.08 513,-46.08 506,-46.08"/>
</g>
<!-- Node6 -->
<g id="node6" class="node">
<title>Node6</title>
<g id="a_node6"><a xlink:href="ForwardKinematics_8cpp.html" target="_top" xlink:title=" ">
<polygon fill="none" stroke="black" points="593,-0.5 593,-19.5 724,-19.5 724,-0.5 593,-0.5"/>
<text text-anchor="middle" x="658.5" y="-7.5" font-family="FreeSans.ttf" font-size="10.00">ForwardKinematics.cpp</text>
</a>
</g>
</g>
<!-- Node1&#45;&gt;Node6 -->
<g id="edge5" class="edge">
<title>Node1&#45;&gt;Node6</title>
<path fill="none" stroke="midnightblue" d="M542.87,-52.91C570.88,-42.75 610.2,-28.51 635,-19.52"/>
<polygon fill="midnightblue" stroke="midnightblue" points="541.32,-49.75 533.11,-56.44 543.7,-56.33 541.32,-49.75"/>
</g>
<!-- Node7 -->
<g id="node7" class="node">
<title>Node7</title>
<g id="a_node7"><a xlink:href="PredictSensorsMeasurements_8cpp.html" target="_top" xlink:title=" ">
<polygon fill="none" stroke="black" points="742.5,-0.5 742.5,-19.5 924.5,-19.5 924.5,-0.5 742.5,-0.5"/>
<text text-anchor="middle" x="833.5" y="-7.5" font-family="FreeSans.ttf" font-size="10.00">PredictSensorsMeasurements.cpp</text>
</a>
</g>
</g>
<!-- Node1&#45;&gt;Node7 -->
<g id="edge6" class="edge">
<title>Node1&#45;&gt;Node7</title>
<path fill="none" stroke="midnightblue" d="M570.76,-54.79C631.98,-44.59 725.03,-29.08 782.4,-19.52"/>
<polygon fill="midnightblue" stroke="midnightblue" points="570.13,-51.35 560.84,-56.44 571.28,-58.25 570.13,-51.35"/>
</g>
<!-- Node8 -->
<g id="node8" class="node">
<title>Node8</title>
<g id="a_node8"><a xlink:href="ModelVisualization_8cpp.html" target="_top" xlink:title=" ">
<polygon fill="none" stroke="black" points="942.5,-0.5 942.5,-19.5 1072.5,-19.5 1072.5,-0.5 942.5,-0.5"/>
<text text-anchor="middle" x="1007.5" y="-7.5" font-family="FreeSans.ttf" font-size="10.00">ModelVisualization.cpp</text>
</a>
</g>
</g>
<!-- Node1&#45;&gt;Node8 -->
<g id="edge7" class="edge">
<title>Node1&#45;&gt;Node8</title>
<path fill="none" stroke="midnightblue" d="M579.41,-57.91C663.49,-49.31 808.88,-34.19 933.5,-20 936.33,-19.68 939.22,-19.34 942.14,-19"/>
<polygon fill="midnightblue" stroke="midnightblue" points="578.81,-54.45 569.22,-58.95 579.52,-61.42 578.81,-54.45"/>
</g>
</g>
</svg>
