<?xml version="1.0" encoding="UTF-8" standalone="no"?>
<!DOCTYPE svg PUBLIC "-//W3C//DTD SVG 1.1//EN"
 "http://www.w3.org/Graphics/SVG/1.1/DTD/svg11.dtd">
<!-- Generated by graphviz version 2.43.0 (0)
 -->
<!-- Title: ForwardKinematics.h Pages: 1 -->
<svg width="229pt" height="140pt"
 viewBox="0.00 0.00 229.00 140.00" xmlns="http://www.w3.org/2000/svg" xmlns:xlink="http://www.w3.org/1999/xlink">
<g id="graph0" class="graph" transform="scale(1 1) rotate(0) translate(4 136)">
<title>ForwardKinematics.h</title>
<!-- Node1 -->
<g id="node1" class="node">
<title>Node1</title>
<g id="a_node1"><a xlink:title=" ">
<polygon fill="#bfbfbf" stroke="black" points="34,-112.5 34,-131.5 153,-131.5 153,-112.5 34,-112.5"/>
<text text-anchor="middle" x="93.5" y="-119.5" font-family="FreeSans.ttf" font-size="10.00">ForwardKinematics.h</text>
</a>
</g>
</g>
<!-- Node2 -->
<g id="node2" class="node">
<title>Node2</title>
<g id="a_node2"><a xlink:href="Indices_8h.html" target="_top" xlink:title=" ">
<polygon fill="none" stroke="black" points="24,-56.5 24,-75.5 163,-75.5 163,-56.5 24,-56.5"/>
<text text-anchor="middle" x="93.5" y="-63.5" font-family="FreeSans.ttf" font-size="10.00">iDynTree/Model/Indices.h</text>
</a>
</g>
</g>
<!-- Node1&#45;&gt;Node2 -->
<g id="edge1" class="edge">
<title>Node1&#45;&gt;Node2</title>
<path fill="none" stroke="midnightblue" d="M93.5,-112.08C93.5,-105.01 93.5,-94.86 93.5,-85.99"/>
<polygon fill="midnightblue" stroke="midnightblue" points="97,-85.75 93.5,-75.75 90,-85.75 97,-85.75"/>
</g>
<!-- Node3 -->
<g id="node3" class="node">
<title>Node3</title>
<g id="a_node3"><a xlink:title=" ">
<polygon fill="none" stroke="#bfbfbf" points="0,-0.5 0,-19.5 53,-19.5 53,-0.5 0,-0.5"/>
<text text-anchor="middle" x="26.5" y="-7.5" font-family="FreeSans.ttf" font-size="10.00">cstddef</text>
</a>
</g>
</g>
<!-- Node2&#45;&gt;Node3 -->
<g id="edge2" class="edge">
<title>Node2&#45;&gt;Node3</title>
<path fill="none" stroke="midnightblue" d="M82.74,-56.32C72.73,-48.26 57.61,-36.08 45.57,-26.37"/>
<polygon fill="midnightblue" stroke="midnightblue" points="47.44,-23.38 37.46,-19.83 43.05,-28.83 47.44,-23.38"/>
</g>
<!-- Node4 -->
<g id="node4" class="node">
<title>Node4</title>
<g id="a_node4"><a xlink:title=" ">
<polygon fill="none" stroke="#bfbfbf" points="71.5,-0.5 71.5,-19.5 115.5,-19.5 115.5,-0.5 71.5,-0.5"/>
<text text-anchor="middle" x="93.5" y="-7.5" font-family="FreeSans.ttf" font-size="10.00">string</text>
</a>
</g>
</g>
<!-- Node2&#45;&gt;Node4 -->
<g id="edge3" class="edge">
<title>Node2&#45;&gt;Node4</title>
<path fill="none" stroke="midnightblue" d="M93.5,-56.08C93.5,-49.01 93.5,-38.86 93.5,-29.99"/>
<polygon fill="midnightblue" stroke="midnightblue" points="97,-29.75 93.5,-19.75 90,-29.75 97,-29.75"/>
</g>
<!-- Node5 -->
<g id="node5" class="node">
<title>Node5</title>
<g id="a_node5"><a xlink:title=" ">
<polygon fill="none" stroke="#bfbfbf" points="134,-0.5 134,-19.5 221,-19.5 221,-0.5 134,-0.5"/>
<text text-anchor="middle" x="177.5" y="-7.5" font-family="FreeSans.ttf" font-size="10.00">ModelExport.h</text>
</a>
</g>
</g>
<!-- Node2&#45;&gt;Node5 -->
<g id="edge4" class="edge">
<title>Node2&#45;&gt;Node5</title>
<path fill="none" stroke="midnightblue" d="M107,-56.32C120.1,-47.9 140.21,-34.97 155.61,-25.07"/>
<polygon fill="midnightblue" stroke="midnightblue" points="157.52,-28.01 164.04,-19.65 153.73,-22.12 157.52,-28.01"/>
</g>
</g>
</svg>
