<?xml version="1.0" encoding="UTF-8" standalone="no"?>
<!DOCTYPE svg PUBLIC "-//W3C//DTD SVG 1.1//EN"
 "http://www.w3.org/Graphics/SVG/1.1/DTD/svg11.dtd">
<!-- Generated by graphviz version 2.43.0 (0)
 -->
<!-- Title: FrameVisualization.h Pages: 1 -->
<svg width="1639pt" height="722pt"
 viewBox="0.00 0.00 1639.00 722.00" xmlns="http://www.w3.org/2000/svg" xmlns:xlink="http://www.w3.org/1999/xlink">
<g id="graph0" class="graph" transform="scale(1 1) rotate(0) translate(4 718)">
<title>FrameVisualization.h</title>
<!-- Node1 -->
<g id="node1" class="node">
<title>Node1</title>
<g id="a_node1"><a xlink:title=" ">
<polygon fill="#bfbfbf" stroke="black" points="1376.5,-694.5 1376.5,-713.5 1495.5,-713.5 1495.5,-694.5 1376.5,-694.5"/>
<text text-anchor="middle" x="1436" y="-701.5" font-family="FreeSans.ttf" font-size="10.00">FrameVisualization.h</text>
</a>
</g>
</g>
<!-- Node2 -->
<g id="node2" class="node">
<title>Node2</title>
<g id="a_node2"><a xlink:href="Visualizer_8h.html" target="_top" xlink:title=" ">
<polygon fill="none" stroke="black" points="930.5,-638.5 930.5,-657.5 1049.5,-657.5 1049.5,-638.5 930.5,-638.5"/>
<text text-anchor="middle" x="990" y="-645.5" font-family="FreeSans.ttf" font-size="10.00">iDynTree/Visualizer.h</text>
</a>
</g>
</g>
<!-- Node1&#45;&gt;Node2 -->
<g id="edge1" class="edge">
<title>Node1&#45;&gt;Node2</title>
<path fill="none" stroke="midnightblue" d="M1376.31,-695.77C1294.23,-685.84 1146.8,-667.98 1059.74,-657.44"/>
<polygon fill="midnightblue" stroke="midnightblue" points="1060.04,-653.95 1049.69,-656.23 1059.2,-660.9 1060.04,-653.95"/>
</g>
<!-- Node4 -->
<g id="node4" class="node">
<title>Node4</title>
<g id="a_node4"><a xlink:title=" ">
<polygon fill="none" stroke="#bfbfbf" points="1412.5,-526.5 1412.5,-545.5 1459.5,-545.5 1459.5,-526.5 1412.5,-526.5"/>
<text text-anchor="middle" x="1436" y="-533.5" font-family="FreeSans.ttf" font-size="10.00">vector</text>
</a>
</g>
</g>
<!-- Node1&#45;&gt;Node4 -->
<g id="edge89" class="edge">
<title>Node1&#45;&gt;Node4</title>
<path fill="none" stroke="midnightblue" d="M1436,-694.08C1436,-667.95 1436,-591.21 1436,-555.58"/>
<polygon fill="midnightblue" stroke="midnightblue" points="1439.5,-555.57 1436,-545.57 1432.5,-555.57 1439.5,-555.57"/>
</g>
<!-- Node42 -->
<g id="node42" class="node">
<title>Node42</title>
<g id="a_node42"><a xlink:title=" ">
<polygon fill="none" stroke="#bfbfbf" points="1464.5,-638.5 1464.5,-657.5 1521.5,-657.5 1521.5,-638.5 1464.5,-638.5"/>
<text text-anchor="middle" x="1493" y="-645.5" font-family="FreeSans.ttf" font-size="10.00">irrlicht.h</text>
</a>
</g>
</g>
<!-- Node1&#45;&gt;Node42 -->
<g id="edge90" class="edge">
<title>Node1&#45;&gt;Node42</title>
<path fill="none" stroke="midnightblue" d="M1445.16,-694.32C1453.5,-686.42 1466.03,-674.55 1476.18,-664.94"/>
<polygon fill="midnightblue" stroke="midnightblue" points="1478.82,-667.25 1483.68,-657.83 1474.01,-662.17 1478.82,-667.25"/>
</g>
<!-- Node3 -->
<g id="node3" class="node">
<title>Node3</title>
<g id="a_node3"><a xlink:title=" ">
<polygon fill="none" stroke="#bfbfbf" points="564,-112.5 564,-131.5 608,-131.5 608,-112.5 564,-112.5"/>
<text text-anchor="middle" x="586" y="-119.5" font-family="FreeSans.ttf" font-size="10.00">string</text>
</a>
</g>
</g>
<!-- Node2&#45;&gt;Node3 -->
<g id="edge2" class="edge">
<title>Node2&#45;&gt;Node3</title>
<path fill="none" stroke="midnightblue" d="M930.3,-646.67C716.26,-644.72 0,-631.14 0,-537 0,-537 0,-537 0,-238.5 0,-124.76 430.34,-121.14 553.46,-122.43"/>
<polygon fill="midnightblue" stroke="midnightblue" points="553.7,-125.93 563.74,-122.56 553.79,-118.94 553.7,-125.93"/>
</g>
<!-- Node2&#45;&gt;Node4 -->
<g id="edge3" class="edge">
<title>Node2&#45;&gt;Node4</title>
<path fill="none" stroke="midnightblue" d="M1049.55,-645.3C1144,-641.76 1323.16,-631.29 1379,-602 1399.69,-591.15 1416.3,-569.45 1426.14,-554.12"/>
<polygon fill="midnightblue" stroke="midnightblue" points="1429.14,-555.91 1431.36,-545.55 1423.17,-552.26 1429.14,-555.91"/>
</g>
<!-- Node5 -->
<g id="node5" class="node">
<title>Node5</title>
<g id="a_node5"><a xlink:href="Direction_8h.html" target="_top" xlink:title=" ">
<polygon fill="none" stroke="black" points="28.5,-230 28.5,-249 169.5,-249 169.5,-230 28.5,-230"/>
<text text-anchor="middle" x="99" y="-237" font-family="FreeSans.ttf" font-size="10.00">iDynTree/Core/Direction.h</text>
</a>
</g>
</g>
<!-- Node2&#45;&gt;Node5 -->
<g id="edge4" class="edge">
<title>Node2&#45;&gt;Node5</title>
<path fill="none" stroke="midnightblue" d="M930.21,-645.65C735.18,-640.45 130,-617.81 130,-537 130,-537 130,-537 130,-356 130,-320.51 116.18,-280.92 106.99,-258.53"/>
<polygon fill="midnightblue" stroke="midnightblue" points="110.19,-257.1 103.05,-249.27 103.75,-259.84 110.19,-257.1"/>
</g>
<!-- Node21 -->
<g id="node21" class="node">
<title>Node21</title>
<g id="a_node21"><a xlink:href="Position_8h.html" target="_top" xlink:title=" ">
<polygon fill="none" stroke="black" points="487,-347.5 487,-366.5 623,-366.5 623,-347.5 487,-347.5"/>
<text text-anchor="middle" x="555" y="-354.5" font-family="FreeSans.ttf" font-size="10.00">iDynTree/Core/Position.h</text>
</a>
</g>
</g>
<!-- Node2&#45;&gt;Node21 -->
<g id="edge26" class="edge">
<title>Node2&#45;&gt;Node21</title>
<path fill="none" stroke="midnightblue" d="M930.33,-642.18C779.7,-629.23 396,-590.95 396,-537 396,-537 396,-537 396,-473.5 396,-416.64 463.38,-384.87 510.41,-369.61"/>
<polygon fill="midnightblue" stroke="midnightblue" points="511.59,-372.91 520.11,-366.6 509.52,-366.22 511.59,-372.91"/>
</g>
<!-- Node29 -->
<g id="node29" class="node">
<title>Node29</title>
<g id="a_node29"><a xlink:href="JointState_8h.html" target="_top" xlink:title=" ">
<polygon fill="none" stroke="black" points="1218,-582.5 1218,-601.5 1370,-601.5 1370,-582.5 1218,-582.5"/>
<text text-anchor="middle" x="1294" y="-589.5" font-family="FreeSans.ttf" font-size="10.00">iDynTree/Model/JointState.h</text>
</a>
</g>
</g>
<!-- Node2&#45;&gt;Node29 -->
<g id="edge50" class="edge">
<title>Node2&#45;&gt;Node29</title>
<path fill="none" stroke="midnightblue" d="M1038.17,-638.44C1091.87,-628.9 1178.69,-613.48 1236.05,-603.29"/>
<polygon fill="midnightblue" stroke="midnightblue" points="1236.82,-606.71 1246.06,-601.52 1235.6,-599.82 1236.82,-606.71"/>
</g>
<!-- Node33 -->
<g id="node33" class="node">
<title>Node33</title>
<g id="a_node33"><a xlink:href="LinkState_8h.html" target="_top" xlink:title=" ">
<polygon fill="none" stroke="black" points="915,-582.5 915,-601.5 1065,-601.5 1065,-582.5 915,-582.5"/>
<text text-anchor="middle" x="990" y="-589.5" font-family="FreeSans.ttf" font-size="10.00">iDynTree/Model/LinkState.h</text>
</a>
</g>
</g>
<!-- Node2&#45;&gt;Node33 -->
<g id="edge66" class="edge">
<title>Node2&#45;&gt;Node33</title>
<path fill="none" stroke="midnightblue" d="M990,-638.08C990,-631.01 990,-620.86 990,-611.99"/>
<polygon fill="midnightblue" stroke="midnightblue" points="993.5,-611.75 990,-601.75 986.5,-611.75 993.5,-611.75"/>
</g>
<!-- Node5&#45;&gt;Node3 -->
<g id="edge5" class="edge">
<title>Node5&#45;&gt;Node3</title>
<path fill="none" stroke="midnightblue" d="M106.35,-229.7C119.89,-214.18 150.48,-182.25 184,-168 250.64,-139.67 470.76,-127.78 553.86,-124.23"/>
<polygon fill="midnightblue" stroke="midnightblue" points="554.13,-127.72 563.97,-123.81 553.84,-120.73 554.13,-127.72"/>
</g>
<!-- Node6 -->
<g id="node6" class="node">
<title>Node6</title>
<g id="a_node6"><a xlink:href="VectorFixSize_8h.html" target="_top" xlink:title=" ">
<polygon fill="none" stroke="black" points="890,-168.5 890,-187.5 1052,-187.5 1052,-168.5 890,-168.5"/>
<text text-anchor="middle" x="971" y="-175.5" font-family="FreeSans.ttf" font-size="10.00">iDynTree/Core/VectorFixSize.h</text>
</a>
</g>
</g>
<!-- Node5&#45;&gt;Node6 -->
<g id="edge6" class="edge">
<title>Node5&#45;&gt;Node6</title>
<path fill="none" stroke="midnightblue" d="M162.53,-229.99C180.44,-227.8 199.97,-225.61 218,-224 496.9,-199.05 567.57,-206.14 847,-188 857.64,-187.31 868.78,-186.55 879.85,-185.78"/>
<polygon fill="midnightblue" stroke="midnightblue" points="880.24,-189.26 889.97,-185.06 879.75,-182.27 880.24,-189.26"/>
</g>
<!-- Node7 -->
<g id="node7" class="node">
<title>Node7</title>
<g id="a_node7"><a xlink:href="Utils_8h.html" target="_top" xlink:title=" ">
<polygon fill="none" stroke="black" points="937.5,-56.5 937.5,-75.5 1056.5,-75.5 1056.5,-56.5 937.5,-56.5"/>
<text text-anchor="middle" x="997" y="-63.5" font-family="FreeSans.ttf" font-size="10.00">iDynTree/Core/Utils.h</text>
</a>
</g>
</g>
<!-- Node5&#45;&gt;Node7 -->
<g id="edge25" class="edge">
<title>Node5&#45;&gt;Node7</title>
<path fill="none" stroke="midnightblue" d="M102.28,-229.81C108.56,-214.47 123.86,-182.8 148,-168 278.34,-88.08 748.66,-71.38 927.41,-67.91"/>
<polygon fill="midnightblue" stroke="midnightblue" points="927.55,-71.41 937.48,-67.72 927.42,-64.41 927.55,-71.41"/>
</g>
<!-- Node6&#45;&gt;Node3 -->
<g id="edge20" class="edge">
<title>Node6&#45;&gt;Node3</title>
<path fill="none" stroke="midnightblue" d="M910,-168.44C827.25,-156.84 682.4,-136.52 618.2,-127.52"/>
<polygon fill="midnightblue" stroke="midnightblue" points="618.64,-124.04 608.25,-126.12 617.67,-130.98 618.64,-124.04"/>
</g>
<!-- Node6&#45;&gt;Node7 -->
<g id="edge7" class="edge">
<title>Node6&#45;&gt;Node7</title>
<path fill="none" stroke="midnightblue" d="M973.99,-168.46C977.06,-159.47 981.82,-144.87 985,-132 988.79,-116.66 991.97,-99.02 994.11,-85.99"/>
<polygon fill="midnightblue" stroke="midnightblue" points="997.6,-86.33 995.7,-75.9 990.68,-85.23 997.6,-86.33"/>
</g>
<!-- Node8 -->
<g id="node8" class="node">
<title>Node8</title>
<g id="a_node8"><a xlink:title=" ">
<polygon fill="none" stroke="#bfbfbf" points="1068.5,-0.5 1068.5,-19.5 1121.5,-19.5 1121.5,-0.5 1068.5,-0.5"/>
<text text-anchor="middle" x="1095" y="-7.5" font-family="FreeSans.ttf" font-size="10.00">cstddef</text>
</a>
</g>
</g>
<!-- Node6&#45;&gt;Node8 -->
<g id="edge23" class="edge">
<title>Node6&#45;&gt;Node8</title>
<path fill="none" stroke="midnightblue" d="M1039.11,-168.48C1061.24,-162.12 1083.55,-151.08 1097,-132 1118.6,-101.34 1109.11,-54.61 1101.38,-29.13"/>
<polygon fill="midnightblue" stroke="midnightblue" points="1104.7,-28.03 1098.27,-19.61 1098.05,-30.21 1104.7,-28.03"/>
</g>
<!-- Node10 -->
<g id="node10" class="node">
<title>Node10</title>
<g id="a_node10"><a xlink:href="Span_8h.html" target="_top" xlink:title=" ">
<polygon fill="none" stroke="black" points="1336.5,-56.5 1336.5,-75.5 1457.5,-75.5 1457.5,-56.5 1336.5,-56.5"/>
<text text-anchor="middle" x="1397" y="-63.5" font-family="FreeSans.ttf" font-size="10.00">iDynTree/Core/Span.h</text>
</a>
</g>
</g>
<!-- Node6&#45;&gt;Node10 -->
<g id="edge10" class="edge">
<title>Node6&#45;&gt;Node10</title>
<path fill="none" stroke="midnightblue" d="M1007.52,-168.43C1040.1,-160.37 1088.85,-147.28 1130,-132 1149.76,-124.66 1152.97,-118.57 1173,-112 1223.11,-95.57 1281.58,-84.07 1326.22,-76.81"/>
<polygon fill="midnightblue" stroke="midnightblue" points="1326.78,-80.26 1336.1,-75.23 1325.68,-73.35 1326.78,-80.26"/>
</g>
<!-- Node11 -->
<g id="node11" class="node">
<title>Node11</title>
<g id="a_node11"><a xlink:title=" ">
<polygon fill="none" stroke="#bfbfbf" points="796,-0.5 796,-19.5 848,-19.5 848,-0.5 796,-0.5"/>
<text text-anchor="middle" x="822" y="-7.5" font-family="FreeSans.ttf" font-size="10.00">cassert</text>
</a>
</g>
</g>
<!-- Node6&#45;&gt;Node11 -->
<g id="edge22" class="edge">
<title>Node6&#45;&gt;Node11</title>
<path fill="none" stroke="midnightblue" d="M917.01,-168.48C877.04,-160.94 827.46,-148.56 815,-132 792.42,-101.99 804.73,-55 814.26,-29.3"/>
<polygon fill="midnightblue" stroke="midnightblue" points="817.63,-30.29 818.06,-19.7 811.12,-27.71 817.63,-30.29"/>
</g>
<!-- Node19 -->
<g id="node19" class="node">
<title>Node19</title>
<g id="a_node19"><a xlink:title=" ">
<polygon fill="none" stroke="#bfbfbf" points="1032,-112.5 1032,-131.5 1088,-131.5 1088,-112.5 1032,-112.5"/>
<text text-anchor="middle" x="1060" y="-119.5" font-family="FreeSans.ttf" font-size="10.00">sstream</text>
</a>
</g>
</g>
<!-- Node6&#45;&gt;Node19 -->
<g id="edge21" class="edge">
<title>Node6&#45;&gt;Node19</title>
<path fill="none" stroke="midnightblue" d="M985.3,-168.32C999.18,-159.9 1020.49,-146.97 1036.8,-137.07"/>
<polygon fill="midnightblue" stroke="midnightblue" points="1039,-139.83 1045.74,-131.65 1035.37,-133.85 1039,-139.83"/>
</g>
<!-- Node20 -->
<g id="node20" class="node">
<title>Node20</title>
<g id="a_node20"><a xlink:title=" ">
<polygon fill="none" stroke="#bfbfbf" points="718,-112.5 718,-131.5 768,-131.5 768,-112.5 718,-112.5"/>
<text text-anchor="middle" x="743" y="-119.5" font-family="FreeSans.ttf" font-size="10.00">cstring</text>
</a>
</g>
</g>
<!-- Node6&#45;&gt;Node20 -->
<g id="edge24" class="edge">
<title>Node6&#45;&gt;Node20</title>
<path fill="none" stroke="midnightblue" d="M934.87,-168.44C891.84,-158.25 820.44,-141.34 777.93,-131.27"/>
<polygon fill="midnightblue" stroke="midnightblue" points="778.58,-127.83 768.04,-128.93 776.97,-134.64 778.58,-127.83"/>
</g>
<!-- Node7&#45;&gt;Node8 -->
<g id="edge8" class="edge">
<title>Node7&#45;&gt;Node8</title>
<path fill="none" stroke="midnightblue" d="M1012.75,-56.32C1028.32,-47.74 1052.38,-34.49 1070.46,-24.52"/>
<polygon fill="midnightblue" stroke="midnightblue" points="1072.22,-27.55 1079.29,-19.65 1068.85,-21.42 1072.22,-27.55"/>
</g>
<!-- Node9 -->
<g id="node9" class="node">
<title>Node9</title>
<g id="a_node9"><a xlink:title=" ">
<polygon fill="none" stroke="#bfbfbf" points="957,-0.5 957,-19.5 1037,-19.5 1037,-0.5 957,-0.5"/>
<text text-anchor="middle" x="997" y="-7.5" font-family="FreeSans.ttf" font-size="10.00">CoreExport.h</text>
</a>
</g>
</g>
<!-- Node7&#45;&gt;Node9 -->
<g id="edge9" class="edge">
<title>Node7&#45;&gt;Node9</title>
<path fill="none" stroke="midnightblue" d="M997,-56.08C997,-49.01 997,-38.86 997,-29.99"/>
<polygon fill="midnightblue" stroke="midnightblue" points="1000.5,-29.75 997,-19.75 993.5,-29.75 1000.5,-29.75"/>
</g>
<!-- Node10&#45;&gt;Node8 -->
<g id="edge14" class="edge">
<title>Node10&#45;&gt;Node8</title>
<path fill="none" stroke="midnightblue" d="M1338.9,-56.5C1287.07,-48.61 1208.91,-35.98 1131.6,-19.99"/>
<polygon fill="midnightblue" stroke="midnightblue" points="1132.19,-16.53 1121.68,-17.92 1130.76,-23.39 1132.19,-16.53"/>
</g>
<!-- Node10&#45;&gt;Node11 -->
<g id="edge11" class="edge">
<title>Node10&#45;&gt;Node11</title>
<path fill="none" stroke="midnightblue" d="M1336.28,-59.3C1216.77,-48.07 954.3,-23.43 858.19,-14.4"/>
<polygon fill="midnightblue" stroke="midnightblue" points="858.38,-10.9 848.1,-13.45 857.73,-17.87 858.38,-10.9"/>
</g>
<!-- Node12 -->
<g id="node12" class="node">
<title>Node12</title>
<g id="a_node12"><a xlink:title=" ">
<polygon fill="none" stroke="#bfbfbf" points="1373,-0.5 1373,-19.5 1437,-19.5 1437,-0.5 1373,-0.5"/>
<text text-anchor="middle" x="1405" y="-7.5" font-family="FreeSans.ttf" font-size="10.00">algorithm</text>
</a>
</g>
</g>
<!-- Node10&#45;&gt;Node12 -->
<g id="edge12" class="edge">
<title>Node10&#45;&gt;Node12</title>
<path fill="none" stroke="midnightblue" d="M1398.32,-56.08C1399.38,-48.93 1400.91,-38.64 1402.23,-29.69"/>
<polygon fill="midnightblue" stroke="midnightblue" points="1405.7,-30.16 1403.7,-19.75 1398.78,-29.13 1405.7,-30.16"/>
</g>
<!-- Node13 -->
<g id="node13" class="node">
<title>Node13</title>
<g id="a_node13"><a xlink:title=" ">
<polygon fill="none" stroke="#bfbfbf" points="1455,-0.5 1455,-19.5 1497,-19.5 1497,-0.5 1455,-0.5"/>
<text text-anchor="middle" x="1476" y="-7.5" font-family="FreeSans.ttf" font-size="10.00">array</text>
</a>
</g>
</g>
<!-- Node10&#45;&gt;Node13 -->
<g id="edge13" class="edge">
<title>Node10&#45;&gt;Node13</title>
<path fill="none" stroke="midnightblue" d="M1409.69,-56.32C1421.9,-47.98 1440.58,-35.21 1455,-25.35"/>
<polygon fill="midnightblue" stroke="midnightblue" points="1457.06,-28.19 1463.34,-19.65 1453.11,-22.41 1457.06,-28.19"/>
</g>
<!-- Node14 -->
<g id="node14" class="node">
<title>Node14</title>
<g id="a_node14"><a xlink:title=" ">
<polygon fill="none" stroke="#bfbfbf" points="1515.5,-0.5 1515.5,-19.5 1568.5,-19.5 1568.5,-0.5 1515.5,-0.5"/>
<text text-anchor="middle" x="1542" y="-7.5" font-family="FreeSans.ttf" font-size="10.00">iterator</text>
</a>
</g>
</g>
<!-- Node10&#45;&gt;Node14 -->
<g id="edge15" class="edge">
<title>Node10&#45;&gt;Node14</title>
<path fill="none" stroke="midnightblue" d="M1419.98,-56.44C1444.16,-47.44 1482.42,-33.19 1509.65,-23.05"/>
<polygon fill="midnightblue" stroke="midnightblue" points="1510.98,-26.29 1519.13,-19.52 1508.54,-19.73 1510.98,-26.29"/>
</g>
<!-- Node15 -->
<g id="node15" class="node">
<title>Node15</title>
<g id="a_node15"><a xlink:title=" ">
<polygon fill="none" stroke="#bfbfbf" points="1587,-0.5 1587,-19.5 1631,-19.5 1631,-0.5 1587,-0.5"/>
<text text-anchor="middle" x="1609" y="-7.5" font-family="FreeSans.ttf" font-size="10.00">limits</text>
</a>
</g>
</g>
<!-- Node10&#45;&gt;Node15 -->
<g id="edge16" class="edge">
<title>Node10&#45;&gt;Node15</title>
<path fill="none" stroke="midnightblue" d="M1433.17,-56.45C1467.7,-48.18 1521.45,-35.07 1576.71,-20.27"/>
<polygon fill="midnightblue" stroke="midnightblue" points="1577.93,-23.57 1586.68,-17.59 1576.11,-16.81 1577.93,-23.57"/>
</g>
<!-- Node16 -->
<g id="node16" class="node">
<title>Node16</title>
<g id="a_node16"><a xlink:title=" ">
<polygon fill="none" stroke="#bfbfbf" points="1226.5,-0.5 1226.5,-19.5 1291.5,-19.5 1291.5,-0.5 1226.5,-0.5"/>
<text text-anchor="middle" x="1259" y="-7.5" font-family="FreeSans.ttf" font-size="10.00">stdexcept</text>
</a>
</g>
</g>
<!-- Node10&#45;&gt;Node16 -->
<g id="edge17" class="edge">
<title>Node10&#45;&gt;Node16</title>
<path fill="none" stroke="midnightblue" d="M1375.13,-56.44C1352.22,-47.48 1316.02,-33.31 1290.13,-23.18"/>
<polygon fill="midnightblue" stroke="midnightblue" points="1291.35,-19.9 1280.76,-19.52 1288.8,-26.42 1291.35,-19.9"/>
</g>
<!-- Node17 -->
<g id="node17" class="node">
<title>Node17</title>
<g id="a_node17"><a xlink:title=" ">
<polygon fill="none" stroke="#bfbfbf" points="1139.5,-0.5 1139.5,-19.5 1208.5,-19.5 1208.5,-0.5 1139.5,-0.5"/>
<text text-anchor="middle" x="1174" y="-7.5" font-family="FreeSans.ttf" font-size="10.00">type_traits</text>
</a>
</g>
</g>
<!-- Node10&#45;&gt;Node17 -->
<g id="edge18" class="edge">
<title>Node10&#45;&gt;Node17</title>
<path fill="none" stroke="midnightblue" d="M1361.66,-56.44C1322.98,-47.07 1260.85,-32.03 1218.78,-21.84"/>
<polygon fill="midnightblue" stroke="midnightblue" points="1219.35,-18.38 1208.8,-19.43 1217.7,-25.18 1219.35,-18.38"/>
</g>
<!-- Node18 -->
<g id="node18" class="node">
<title>Node18</title>
<g id="a_node18"><a xlink:title=" ">
<polygon fill="none" stroke="#bfbfbf" points="1309.5,-0.5 1309.5,-19.5 1354.5,-19.5 1354.5,-0.5 1309.5,-0.5"/>
<text text-anchor="middle" x="1332" y="-7.5" font-family="FreeSans.ttf" font-size="10.00">utility</text>
</a>
</g>
</g>
<!-- Node10&#45;&gt;Node18 -->
<g id="edge19" class="edge">
<title>Node10&#45;&gt;Node18</title>
<path fill="none" stroke="midnightblue" d="M1386.56,-56.32C1376.85,-48.26 1362.18,-36.08 1350.5,-26.37"/>
<polygon fill="midnightblue" stroke="midnightblue" points="1352.56,-23.53 1342.63,-19.83 1348.09,-28.92 1352.56,-23.53"/>
</g>
<!-- Node21&#45;&gt;Node3 -->
<g id="edge49" class="edge">
<title>Node21&#45;&gt;Node3</title>
<path fill="none" stroke="midnightblue" d="M531.29,-347.45C483.38,-328.75 382.3,-281.3 415,-224 444.86,-171.69 513.6,-143.74 554.25,-131.26"/>
<polygon fill="midnightblue" stroke="midnightblue" points="555.33,-134.59 563.93,-128.42 553.35,-127.88 555.33,-134.59"/>
</g>
<!-- Node22 -->
<g id="node22" class="node">
<title>Node22</title>
<g id="a_node22"><a xlink:href="PositionRaw_8h.html" target="_top" xlink:title=" ">
<polygon fill="none" stroke="black" points="424,-230 424,-249 580,-249 580,-230 424,-230"/>
<text text-anchor="middle" x="502" y="-237" font-family="FreeSans.ttf" font-size="10.00">iDynTree/Core/PositionRaw.h</text>
</a>
</g>
</g>
<!-- Node21&#45;&gt;Node22 -->
<g id="edge27" class="edge">
<title>Node21&#45;&gt;Node22</title>
<path fill="none" stroke="midnightblue" d="M551.02,-347.32C542.38,-328.51 521.8,-283.65 510.24,-258.46"/>
<polygon fill="midnightblue" stroke="midnightblue" points="513.38,-256.91 506.03,-249.28 507.02,-259.83 513.38,-256.91"/>
</g>
<!-- Node23 -->
<g id="node23" class="node">
<title>Node23</title>
<g id="a_node23"><a xlink:href="Rotation_8h.html" target="_top" xlink:title=" ">
<polygon fill="none" stroke="black" points="732,-291.5 732,-310.5 870,-310.5 870,-291.5 732,-291.5"/>
<text text-anchor="middle" x="801" y="-298.5" font-family="FreeSans.ttf" font-size="10.00">iDynTree/Core/Rotation.h</text>
</a>
</g>
</g>
<!-- Node21&#45;&gt;Node23 -->
<g id="edge30" class="edge">
<title>Node21&#45;&gt;Node23</title>
<path fill="none" stroke="midnightblue" d="M593.98,-347.44C636.89,-338.02 705.95,-322.87 752.37,-312.68"/>
<polygon fill="midnightblue" stroke="midnightblue" points="753.19,-316.08 762.2,-310.52 751.69,-309.24 753.19,-316.08"/>
</g>
<!-- Node22&#45;&gt;Node3 -->
<g id="edge29" class="edge">
<title>Node22&#45;&gt;Node3</title>
<path fill="none" stroke="midnightblue" d="M508.31,-229.82C522.18,-210.76 555.49,-164.95 573.67,-139.96"/>
<polygon fill="midnightblue" stroke="midnightblue" points="576.56,-141.93 579.61,-131.78 570.9,-137.81 576.56,-141.93"/>
</g>
<!-- Node22&#45;&gt;Node6 -->
<g id="edge28" class="edge">
<title>Node22&#45;&gt;Node6</title>
<path fill="none" stroke="midnightblue" d="M569.2,-229.98C655.04,-219.08 803.31,-200.27 893.74,-188.8"/>
<polygon fill="midnightblue" stroke="midnightblue" points="894.45,-192.24 903.93,-187.51 893.57,-185.3 894.45,-192.24"/>
</g>
<!-- Node23&#45;&gt;Node3 -->
<g id="edge31" class="edge">
<title>Node23&#45;&gt;Node3</title>
<path fill="none" stroke="midnightblue" d="M731.83,-297.68C696.37,-292.99 654.9,-281.59 627,-255 595.24,-224.73 587.93,-170.38 586.35,-141.78"/>
<polygon fill="midnightblue" stroke="midnightblue" points="589.84,-141.41 585.97,-131.55 582.84,-141.67 589.84,-141.41"/>
</g>
<!-- Node23&#45;&gt;Node6 -->
<g id="edge48" class="edge">
<title>Node23&#45;&gt;Node6</title>
<path fill="none" stroke="midnightblue" d="M809.08,-291.21C823.24,-276.16 853.88,-245.02 884,-224 902.12,-211.35 924.26,-199.95 941.67,-191.79"/>
<polygon fill="midnightblue" stroke="midnightblue" points="943.17,-194.95 950.8,-187.6 940.25,-188.59 943.17,-194.95"/>
</g>
<!-- Node24 -->
<g id="node24" class="node">
<title>Node24</title>
<g id="a_node24"><a xlink:href="GeomVector3_8h.html" target="_top" xlink:title=" ">
<polygon fill="none" stroke="black" points="926.5,-230 926.5,-249 1089.5,-249 1089.5,-230 926.5,-230"/>
<text text-anchor="middle" x="1008" y="-237" font-family="FreeSans.ttf" font-size="10.00">iDynTree/Core/GeomVector3.h</text>
</a>
</g>
</g>
<!-- Node23&#45;&gt;Node24 -->
<g id="edge32" class="edge">
<title>Node23&#45;&gt;Node24</title>
<path fill="none" stroke="midnightblue" d="M830.66,-291.48C866.93,-281.05 928.46,-263.36 968.66,-251.81"/>
<polygon fill="midnightblue" stroke="midnightblue" points="969.75,-255.14 978.4,-249.01 967.82,-248.41 969.75,-255.14"/>
</g>
<!-- Node25 -->
<g id="node25" class="node">
<title>Node25</title>
<g id="a_node25"><a xlink:href="RotationRaw_8h.html" target="_top" xlink:title=" ">
<polygon fill="none" stroke="black" points="636,-230 636,-249 794,-249 794,-230 636,-230"/>
<text text-anchor="middle" x="715" y="-237" font-family="FreeSans.ttf" font-size="10.00">iDynTree/Core/RotationRaw.h</text>
</a>
</g>
</g>
<!-- Node23&#45;&gt;Node25 -->
<g id="edge34" class="edge">
<title>Node23&#45;&gt;Node25</title>
<path fill="none" stroke="midnightblue" d="M788.68,-291.48C774.88,-281.93 752.3,-266.31 735.77,-254.87"/>
<polygon fill="midnightblue" stroke="midnightblue" points="737.51,-251.82 727.3,-249.01 733.53,-257.58 737.51,-251.82"/>
</g>
<!-- Node24&#45;&gt;Node6 -->
<g id="edge33" class="edge">
<title>Node24&#45;&gt;Node6</title>
<path fill="none" stroke="midnightblue" d="M1002.7,-229.98C997.26,-221.23 988.64,-207.37 981.76,-196.31"/>
<polygon fill="midnightblue" stroke="midnightblue" points="984.54,-194.15 976.29,-187.51 978.6,-197.85 984.54,-194.15"/>
</g>
<!-- Node25&#45;&gt;Node3 -->
<g id="edge47" class="edge">
<title>Node25&#45;&gt;Node3</title>
<path fill="none" stroke="midnightblue" d="M705.3,-229.82C683.64,-210.42 631.05,-163.33 603.49,-138.66"/>
<polygon fill="midnightblue" stroke="midnightblue" points="605.59,-135.84 595.81,-131.78 600.92,-141.06 605.59,-135.84"/>
</g>
<!-- Node26 -->
<g id="node26" class="node">
<title>Node26</title>
<g id="a_node26"><a xlink:href="MatrixFixSize_8h.html" target="_top" xlink:title=" ">
<polygon fill="none" stroke="black" points="674.5,-168.5 674.5,-187.5 837.5,-187.5 837.5,-168.5 674.5,-168.5"/>
<text text-anchor="middle" x="756" y="-175.5" font-family="FreeSans.ttf" font-size="10.00">iDynTree/Core/MatrixFixSize.h</text>
</a>
</g>
</g>
<!-- Node25&#45;&gt;Node26 -->
<g id="edge35" class="edge">
<title>Node25&#45;&gt;Node26</title>
<path fill="none" stroke="midnightblue" d="M720.87,-229.98C726.96,-221.14 736.64,-207.09 744.3,-195.98"/>
<polygon fill="midnightblue" stroke="midnightblue" points="747.34,-197.73 750.14,-187.51 741.58,-193.76 747.34,-197.73"/>
</g>
<!-- Node26&#45;&gt;Node3 -->
<g id="edge44" class="edge">
<title>Node26&#45;&gt;Node3</title>
<path fill="none" stroke="midnightblue" d="M729.06,-168.44C698.9,-158.86 650.06,-143.35 617.99,-133.16"/>
<polygon fill="midnightblue" stroke="midnightblue" points="618.8,-129.75 608.21,-130.05 616.68,-136.42 618.8,-129.75"/>
</g>
<!-- Node26&#45;&gt;Node7 -->
<g id="edge36" class="edge">
<title>Node26&#45;&gt;Node7</title>
<path fill="none" stroke="midnightblue" d="M742.04,-168.46C722.89,-155.71 692.61,-131.15 709,-112 736.56,-79.8 851.32,-70.47 927.39,-67.87"/>
<polygon fill="midnightblue" stroke="midnightblue" points="927.51,-71.37 937.4,-67.56 927.29,-64.37 927.51,-71.37"/>
</g>
<!-- Node26&#45;&gt;Node11 -->
<g id="edge42" class="edge">
<title>Node26&#45;&gt;Node11</title>
<path fill="none" stroke="midnightblue" d="M739.05,-168.48C718.8,-157.05 688.97,-135.45 700,-112 719.43,-70.69 764.97,-40.48 794.59,-24.35"/>
<polygon fill="midnightblue" stroke="midnightblue" points="796.37,-27.36 803.59,-19.61 793.11,-21.17 796.37,-27.36"/>
</g>
<!-- Node26&#45;&gt;Node19 -->
<g id="edge46" class="edge">
<title>Node26&#45;&gt;Node19</title>
<path fill="none" stroke="midnightblue" d="M804.17,-168.44C864.41,-157.74 966.33,-139.64 1021.59,-129.82"/>
<polygon fill="midnightblue" stroke="midnightblue" points="1022.44,-133.23 1031.67,-128.03 1021.22,-126.33 1022.44,-133.23"/>
</g>
<!-- Node26&#45;&gt;Node20 -->
<g id="edge43" class="edge">
<title>Node26&#45;&gt;Node20</title>
<path fill="none" stroke="midnightblue" d="M753.85,-168.08C752.13,-160.93 749.65,-150.64 747.5,-141.69"/>
<polygon fill="midnightblue" stroke="midnightblue" points="750.85,-140.65 745.11,-131.75 744.04,-142.29 750.85,-140.65"/>
</g>
<!-- Node27 -->
<g id="node27" class="node">
<title>Node27</title>
<g id="a_node27"><a xlink:href="MatrixView_8h.html" target="_top" xlink:title=" ">
<polygon fill="none" stroke="black" points="824,-112.5 824,-131.5 976,-131.5 976,-112.5 824,-112.5"/>
<text text-anchor="middle" x="900" y="-119.5" font-family="FreeSans.ttf" font-size="10.00">iDynTree/Core/MatrixView.h</text>
</a>
</g>
</g>
<!-- Node26&#45;&gt;Node27 -->
<g id="edge37" class="edge">
<title>Node26&#45;&gt;Node27</title>
<path fill="none" stroke="midnightblue" d="M778.82,-168.44C802.83,-159.44 840.83,-145.19 867.87,-135.05"/>
<polygon fill="midnightblue" stroke="midnightblue" points="869.16,-138.3 877.29,-131.52 866.7,-131.75 869.16,-138.3"/>
</g>
<!-- Node28 -->
<g id="node28" class="node">
<title>Node28</title>
<g id="a_node28"><a xlink:title=" ">
<polygon fill="none" stroke="#bfbfbf" points="1182,-112.5 1182,-131.5 1242,-131.5 1242,-112.5 1182,-112.5"/>
<text text-anchor="middle" x="1212" y="-119.5" font-family="FreeSans.ttf" font-size="10.00">iostream</text>
</a>
</g>
</g>
<!-- Node26&#45;&gt;Node28 -->
<g id="edge45" class="edge">
<title>Node26&#45;&gt;Node28</title>
<path fill="none" stroke="midnightblue" d="M828,-168.47C924.96,-156.99 1094.23,-136.95 1171.48,-127.8"/>
<polygon fill="midnightblue" stroke="midnightblue" points="1172.23,-131.23 1181.75,-126.58 1171.41,-124.28 1172.23,-131.23"/>
</g>
<!-- Node27&#45;&gt;Node7 -->
<g id="edge41" class="edge">
<title>Node27&#45;&gt;Node7</title>
<path fill="none" stroke="midnightblue" d="M915.58,-112.32C931,-103.74 954.81,-90.49 972.71,-80.52"/>
<polygon fill="midnightblue" stroke="midnightblue" points="974.42,-83.58 981.45,-75.65 971.01,-77.46 974.42,-83.58"/>
</g>
<!-- Node27&#45;&gt;Node10 -->
<g id="edge40" class="edge">
<title>Node27&#45;&gt;Node10</title>
<path fill="none" stroke="midnightblue" d="M976.02,-112.74C1071.3,-102.39 1233.31,-84.79 1326.11,-74.7"/>
<polygon fill="midnightblue" stroke="midnightblue" points="1326.68,-78.16 1336.25,-73.6 1325.93,-71.2 1326.68,-78.16"/>
</g>
<!-- Node27&#45;&gt;Node11 -->
<g id="edge38" class="edge">
<title>Node27&#45;&gt;Node11</title>
<path fill="none" stroke="midnightblue" d="M893.88,-112.37C881.01,-94.22 850.93,-51.8 834.05,-27.99"/>
<polygon fill="midnightblue" stroke="midnightblue" points="836.73,-25.72 828.09,-19.59 831.02,-29.77 836.73,-25.72"/>
</g>
<!-- Node27&#45;&gt;Node17 -->
<g id="edge39" class="edge">
<title>Node27&#45;&gt;Node17</title>
<path fill="none" stroke="midnightblue" d="M944.45,-112.46C978.54,-105.09 1026.31,-92.93 1066,-76 1098.44,-62.16 1132.83,-39.99 1153.87,-25.46"/>
<polygon fill="midnightblue" stroke="midnightblue" points="1156.1,-28.17 1162.28,-19.56 1152.08,-22.44 1156.1,-28.17"/>
</g>
<!-- Node29&#45;&gt;Node4 -->
<g id="edge65" class="edge">
<title>Node29&#45;&gt;Node4</title>
<path fill="none" stroke="midnightblue" d="M1316.5,-582.44C1340.08,-573.48 1377.32,-559.31 1403.96,-549.18"/>
<polygon fill="midnightblue" stroke="midnightblue" points="1405.5,-552.34 1413.6,-545.52 1403.01,-545.8 1405.5,-552.34"/>
</g>
<!-- Node29&#45;&gt;Node6 -->
<g id="edge51" class="edge">
<title>Node29&#45;&gt;Node6</title>
<path fill="none" stroke="midnightblue" d="M1301.01,-582.33C1315.21,-563.87 1346,-518.82 1346,-475.5 1346,-475.5 1346,-475.5 1346,-356 1346,-231.04 1173.59,-194.16 1062.58,-183.37"/>
<polygon fill="midnightblue" stroke="midnightblue" points="1062.65,-179.86 1052.37,-182.43 1062.01,-186.83 1062.65,-179.86"/>
</g>
<!-- Node30 -->
<g id="node30" class="node">
<title>Node30</title>
<g id="a_node30"><a xlink:href="VectorDynSize_8h.html" target="_top" xlink:title=" ">
<polygon fill="none" stroke="black" points="1455.5,-168.5 1455.5,-187.5 1622.5,-187.5 1622.5,-168.5 1455.5,-168.5"/>
<text text-anchor="middle" x="1539" y="-175.5" font-family="FreeSans.ttf" font-size="10.00">iDynTree/Core/VectorDynSize.h</text>
</a>
</g>
</g>
<!-- Node29&#45;&gt;Node30 -->
<g id="edge52" class="edge">
<title>Node29&#45;&gt;Node30</title>
<path fill="none" stroke="midnightblue" d="M1312.69,-582.45C1327.46,-574.82 1347.57,-562.34 1360,-546 1380.04,-519.66 1384,-508.6 1384,-475.5 1384,-475.5 1384,-475.5 1384,-300 1384,-241.64 1453.12,-207.26 1499.05,-190.87"/>
<polygon fill="midnightblue" stroke="midnightblue" points="1500.42,-194.1 1508.75,-187.54 1498.15,-187.47 1500.42,-194.1"/>
</g>
<!-- Node31 -->
<g id="node31" class="node">
<title>Node31</title>
<g id="a_node31"><a xlink:href="SpatialForceVector_8h.html" target="_top" xlink:title=" ">
<polygon fill="none" stroke="black" points="1075,-459.5 1075,-489.5 1223,-489.5 1223,-459.5 1075,-459.5"/>
<text text-anchor="start" x="1083" y="-477.5" font-family="FreeSans.ttf" font-size="10.00">iDynTree/Core/SpatialForce</text>
<text text-anchor="middle" x="1149" y="-466.5" font-family="FreeSans.ttf" font-size="10.00">Vector.h</text>
</a>
</g>
</g>
<!-- Node29&#45;&gt;Node31 -->
<g id="edge55" class="edge">
<title>Node29&#45;&gt;Node31</title>
<path fill="none" stroke="midnightblue" d="M1285.5,-582.09C1272.89,-569.07 1248.2,-544.42 1225,-526 1211.16,-515.01 1194.95,-504.01 1181.06,-495.09"/>
<polygon fill="midnightblue" stroke="midnightblue" points="1182.64,-491.95 1172.32,-489.56 1178.89,-497.86 1182.64,-491.95"/>
</g>
<!-- Node30&#45;&gt;Node3 -->
<g id="edge54" class="edge">
<title>Node30&#45;&gt;Node3</title>
<path fill="none" stroke="midnightblue" d="M1455.28,-168.64C1452.49,-168.41 1449.72,-168.2 1447,-168 1119.49,-144.01 1036.78,-151.98 709,-132 678.28,-130.13 643.29,-127.52 618.5,-125.59"/>
<polygon fill="midnightblue" stroke="midnightblue" points="618.45,-122.08 608.21,-124.79 617.91,-129.06 618.45,-122.08"/>
</g>
<!-- Node30&#45;&gt;Node10 -->
<g id="edge53" class="edge">
<title>Node30&#45;&gt;Node10</title>
<path fill="none" stroke="midnightblue" d="M1527.86,-168.37C1503.7,-149.65 1446.25,-105.15 1416.15,-81.83"/>
<polygon fill="midnightblue" stroke="midnightblue" points="1418.14,-78.95 1408.09,-75.59 1413.85,-84.48 1418.14,-78.95"/>
</g>
<!-- Node31&#45;&gt;Node6 -->
<g id="edge56" class="edge">
<title>Node31&#45;&gt;Node6</title>
<path fill="none" stroke="midnightblue" d="M1165.8,-459.47C1175.48,-450.24 1186.75,-437.26 1192,-423 1195.07,-414.66 1194.11,-411.63 1192,-403 1170.73,-315.91 1166.7,-282.77 1099,-224 1079.93,-207.45 1054.39,-196.87 1031.14,-190.16"/>
<polygon fill="midnightblue" stroke="midnightblue" points="1031.91,-186.74 1021.34,-187.52 1030.09,-193.5 1031.91,-186.74"/>
</g>
<!-- Node31&#45;&gt;Node24 -->
<g id="edge57" class="edge">
<title>Node31&#45;&gt;Node24</title>
<path fill="none" stroke="midnightblue" d="M1074.66,-462.69C1051.14,-455.42 1027.51,-443.27 1013,-423 994.53,-397.2 1001.89,-300.16 1005.98,-259.07"/>
<polygon fill="midnightblue" stroke="midnightblue" points="1009.46,-259.38 1007.02,-249.07 1002.5,-258.65 1009.46,-259.38"/>
</g>
<!-- Node32 -->
<g id="node32" class="node">
<title>Node32</title>
<g id="a_node32"><a xlink:href="SpatialVector_8h.html" target="_top" xlink:title=" ">
<polygon fill="none" stroke="black" points="1021.5,-403.5 1021.5,-422.5 1182.5,-422.5 1182.5,-403.5 1021.5,-403.5"/>
<text text-anchor="middle" x="1102" y="-410.5" font-family="FreeSans.ttf" font-size="10.00">iDynTree/Core/SpatialVector.h</text>
</a>
</g>
</g>
<!-- Node31&#45;&gt;Node32 -->
<g id="edge58" class="edge">
<title>Node31&#45;&gt;Node32</title>
<path fill="none" stroke="midnightblue" d="M1137.86,-459.4C1131.03,-450.75 1122.26,-439.64 1115.09,-430.58"/>
<polygon fill="midnightblue" stroke="midnightblue" points="1117.78,-428.34 1108.84,-422.66 1112.29,-432.67 1117.78,-428.34"/>
</g>
<!-- Node32&#45;&gt;Node7 -->
<g id="edge61" class="edge">
<title>Node32&#45;&gt;Node7</title>
<path fill="none" stroke="midnightblue" d="M1145.26,-403.39C1195.04,-390.67 1270,-361.61 1270,-302 1270,-302 1270,-302 1270,-177 1270,-146.9 1273.41,-132.09 1251,-112 1224.45,-88.2 1132.66,-76.6 1067.06,-71.23"/>
<polygon fill="midnightblue" stroke="midnightblue" points="1067.02,-67.71 1056.77,-70.42 1066.47,-74.69 1067.02,-67.71"/>
</g>
<!-- Node32&#45;&gt;Node19 -->
<g id="edge64" class="edge">
<title>Node32&#45;&gt;Node19</title>
<path fill="none" stroke="midnightblue" d="M1109.74,-403.31C1124.67,-385.59 1156,-343.48 1156,-302 1156,-302 1156,-302 1156,-238.5 1156,-193.33 1112.03,-156.4 1083.61,-137.24"/>
<polygon fill="midnightblue" stroke="midnightblue" points="1085.29,-134.17 1075,-131.66 1081.49,-140.04 1085.29,-134.17"/>
</g>
<!-- Node32&#45;&gt;Node21 -->
<g id="edge59" class="edge">
<title>Node32&#45;&gt;Node21</title>
<path fill="none" stroke="midnightblue" d="M1021.29,-404.03C916.89,-393.73 736.23,-375.89 633.11,-365.71"/>
<polygon fill="midnightblue" stroke="midnightblue" points="633.37,-362.22 623.08,-364.72 632.68,-369.19 633.37,-362.22"/>
</g>
<!-- Node32&#45;&gt;Node23 -->
<g id="edge60" class="edge">
<title>Node32&#45;&gt;Node23</title>
<path fill="none" stroke="midnightblue" d="M1078.38,-403.37C1025.08,-383.89 895.35,-336.48 834.08,-314.09"/>
<polygon fill="midnightblue" stroke="midnightblue" points="835.1,-310.74 824.51,-310.59 832.7,-317.31 835.1,-310.74"/>
</g>
<!-- Node32&#45;&gt;Node24 -->
<g id="edge62" class="edge">
<title>Node32&#45;&gt;Node24</title>
<path fill="none" stroke="midnightblue" d="M1097.21,-403.26C1082.44,-376.31 1037.39,-294.12 1017.55,-257.92"/>
<polygon fill="midnightblue" stroke="midnightblue" points="1020.55,-256.11 1012.67,-249.02 1014.41,-259.47 1020.55,-256.11"/>
</g>
<!-- Node32&#45;&gt;Node28 -->
<g id="edge63" class="edge">
<title>Node32&#45;&gt;Node28</title>
<path fill="none" stroke="midnightblue" d="M1127.68,-403.47C1165.57,-389.07 1232,-356.1 1232,-302 1232,-302 1232,-302 1232,-238.5 1232,-203.86 1223.16,-164.21 1217.23,-141.54"/>
<polygon fill="midnightblue" stroke="midnightblue" points="1220.53,-140.34 1214.53,-131.61 1213.78,-142.17 1220.53,-140.34"/>
</g>
<!-- Node33&#45;&gt;Node4 -->
<g id="edge88" class="edge">
<title>Node33&#45;&gt;Node4</title>
<path fill="none" stroke="midnightblue" d="M1060.67,-582.44C1158.06,-570.65 1329.7,-549.87 1402.19,-541.09"/>
<polygon fill="midnightblue" stroke="midnightblue" points="1402.63,-544.57 1412.14,-539.89 1401.79,-537.62 1402.63,-544.57"/>
</g>
<!-- Node34 -->
<g id="node34" class="node">
<title>Node34</title>
<g id="a_node34"><a xlink:href="Transform_8h.html" target="_top" xlink:title=" ">
<polygon fill="none" stroke="black" points="631,-403.5 631,-422.5 777,-422.5 777,-403.5 631,-403.5"/>
<text text-anchor="middle" x="704" y="-410.5" font-family="FreeSans.ttf" font-size="10.00">iDynTree/Core/Transform.h</text>
</a>
</g>
</g>
<!-- Node33&#45;&gt;Node34 -->
<g id="edge67" class="edge">
<title>Node33&#45;&gt;Node34</title>
<path fill="none" stroke="midnightblue" d="M914.74,-583.07C859.31,-575.91 789.78,-563.76 767,-546 730.23,-517.33 713.8,-461.87 707.44,-432.81"/>
<polygon fill="midnightblue" stroke="midnightblue" points="710.82,-431.87 705.42,-422.76 703.96,-433.25 710.82,-431.87"/>
</g>
<!-- Node35 -->
<g id="node35" class="node">
<title>Node35</title>
<g id="a_node35"><a xlink:href="Twist_8h.html" target="_top" xlink:title=" ">
<polygon fill="none" stroke="black" points="776,-526.5 776,-545.5 898,-545.5 898,-526.5 776,-526.5"/>
<text text-anchor="middle" x="837" y="-533.5" font-family="FreeSans.ttf" font-size="10.00">iDynTree/Core/Twist.h</text>
</a>
</g>
</g>
<!-- Node33&#45;&gt;Node35 -->
<g id="edge72" class="edge">
<title>Node33&#45;&gt;Node35</title>
<path fill="none" stroke="midnightblue" d="M965.76,-582.44C940.13,-573.4 899.51,-559.06 870.76,-548.92"/>
<polygon fill="midnightblue" stroke="midnightblue" points="871.72,-545.54 861.13,-545.52 869.39,-552.15 871.72,-545.54"/>
</g>
<!-- Node37 -->
<g id="node37" class="node">
<title>Node37</title>
<g id="a_node37"><a xlink:href="SpatialAcc_8h.html" target="_top" xlink:title=" ">
<polygon fill="none" stroke="black" points="916,-526.5 916,-545.5 1064,-545.5 1064,-526.5 916,-526.5"/>
<text text-anchor="middle" x="990" y="-533.5" font-family="FreeSans.ttf" font-size="10.00">iDynTree/Core/SpatialAcc.h</text>
</a>
</g>
</g>
<!-- Node33&#45;&gt;Node37 -->
<g id="edge77" class="edge">
<title>Node33&#45;&gt;Node37</title>
<path fill="none" stroke="midnightblue" d="M990,-582.08C990,-575.01 990,-564.86 990,-555.99"/>
<polygon fill="midnightblue" stroke="midnightblue" points="993.5,-555.75 990,-545.75 986.5,-555.75 993.5,-555.75"/>
</g>
<!-- Node38 -->
<g id="node38" class="node">
<title>Node38</title>
<g id="a_node38"><a xlink:href="Wrench_8h.html" target="_top" xlink:title=" ">
<polygon fill="none" stroke="black" points="1082,-526.5 1082,-545.5 1216,-545.5 1216,-526.5 1082,-526.5"/>
<text text-anchor="middle" x="1149" y="-533.5" font-family="FreeSans.ttf" font-size="10.00">iDynTree/Core/Wrench.h</text>
</a>
</g>
</g>
<!-- Node33&#45;&gt;Node38 -->
<g id="edge79" class="edge">
<title>Node33&#45;&gt;Node38</title>
<path fill="none" stroke="midnightblue" d="M1015.19,-582.44C1041.94,-573.36 1084.4,-558.94 1114.31,-548.78"/>
<polygon fill="midnightblue" stroke="midnightblue" points="1115.58,-552.05 1123.92,-545.52 1113.33,-545.42 1115.58,-552.05"/>
</g>
<!-- Node39 -->
<g id="node39" class="node">
<title>Node39</title>
<g id="a_node39"><a xlink:href="ArticulatedBodyInertia_8h.html" target="_top" xlink:title=" ">
<polygon fill="none" stroke="black" points="226.5,-224.5 226.5,-254.5 367.5,-254.5 367.5,-224.5 226.5,-224.5"/>
<text text-anchor="start" x="234.5" y="-242.5" font-family="FreeSans.ttf" font-size="10.00">iDynTree/Core/Articulated</text>
<text text-anchor="middle" x="297" y="-231.5" font-family="FreeSans.ttf" font-size="10.00">BodyInertia.h</text>
</a>
</g>
</g>
<!-- Node33&#45;&gt;Node39 -->
<g id="edge81" class="edge">
<title>Node33&#45;&gt;Node39</title>
<path fill="none" stroke="midnightblue" d="M914.8,-585.42C864.66,-579.76 798.09,-568.46 743,-546 562.93,-472.58 382.18,-317.88 319.81,-261.57"/>
<polygon fill="midnightblue" stroke="midnightblue" points="321.89,-258.73 312.14,-254.6 317.19,-263.91 321.89,-258.73"/>
</g>
<!-- Node40 -->
<g id="node40" class="node">
<title>Node40</title>
<g id="a_node40"><a xlink:href="Indices_8h.html" target="_top" xlink:title=" ">
<polygon fill="none" stroke="black" points="1298.5,-168.5 1298.5,-187.5 1437.5,-187.5 1437.5,-168.5 1298.5,-168.5"/>
<text text-anchor="middle" x="1368" y="-175.5" font-family="FreeSans.ttf" font-size="10.00">iDynTree/Model/Indices.h</text>
</a>
</g>
</g>
<!-- Node33&#45;&gt;Node40 -->
<g id="edge84" class="edge">
<title>Node33&#45;&gt;Node40</title>
<path fill="none" stroke="midnightblue" d="M1065.04,-586.46C1112.76,-581.25 1174.8,-570.04 1225,-546 1268.65,-525.09 1308,-523.9 1308,-475.5 1308,-475.5 1308,-475.5 1308,-300 1308,-259.01 1335.97,-217.59 1353.72,-195.43"/>
<polygon fill="midnightblue" stroke="midnightblue" points="1356.46,-197.6 1360.16,-187.67 1351.08,-193.13 1356.46,-197.6"/>
</g>
<!-- Node34&#45;&gt;Node3 -->
<g id="edge71" class="edge">
<title>Node34&#45;&gt;Node3</title>
<path fill="none" stroke="midnightblue" d="M630.96,-411.16C490.84,-407.55 198,-389.54 198,-302 198,-302 198,-302 198,-238.5 198,-164.48 460.66,-134.08 553.76,-125.62"/>
<polygon fill="midnightblue" stroke="midnightblue" points="554.09,-129.11 563.75,-124.74 553.48,-122.13 554.09,-129.11"/>
</g>
<!-- Node34&#45;&gt;Node21 -->
<g id="edge68" class="edge">
<title>Node34&#45;&gt;Node21</title>
<path fill="none" stroke="midnightblue" d="M680.39,-403.44C655.54,-394.44 616.23,-380.19 588.25,-370.05"/>
<polygon fill="midnightblue" stroke="midnightblue" points="589.09,-366.63 578.5,-366.52 586.71,-373.21 589.09,-366.63"/>
</g>
<!-- Node34&#45;&gt;Node23 -->
<g id="edge69" class="edge">
<title>Node34&#45;&gt;Node23</title>
<path fill="none" stroke="midnightblue" d="M711.61,-403.37C727.76,-385.05 765.68,-342.05 786.57,-318.36"/>
<polygon fill="midnightblue" stroke="midnightblue" points="789.44,-320.41 793.42,-310.59 784.18,-315.78 789.44,-320.41"/>
</g>
<!-- Node34&#45;&gt;Node26 -->
<g id="edge70" class="edge">
<title>Node34&#45;&gt;Node26</title>
<path fill="none" stroke="midnightblue" d="M702.78,-403.32C700.24,-381.85 696.68,-325.48 723,-291 746.65,-260 781.83,-287.74 803,-255 810.48,-243.43 808.41,-236.67 803,-224 797.85,-211.95 787.72,-201.58 778.17,-193.84"/>
<polygon fill="midnightblue" stroke="midnightblue" points="780.17,-190.96 770.08,-187.74 775.96,-196.55 780.17,-190.96"/>
</g>
<!-- Node36 -->
<g id="node36" class="node">
<title>Node36</title>
<g id="a_node36"><a xlink:href="SpatialMotionVector_8h.html" target="_top" xlink:title=" ">
<polygon fill="none" stroke="black" points="858.5,-459.5 858.5,-489.5 1013.5,-489.5 1013.5,-459.5 858.5,-459.5"/>
<text text-anchor="start" x="866.5" y="-477.5" font-family="FreeSans.ttf" font-size="10.00">iDynTree/Core/SpatialMotion</text>
<text text-anchor="middle" x="936" y="-466.5" font-family="FreeSans.ttf" font-size="10.00">Vector.h</text>
</a>
</g>
</g>
<!-- Node35&#45;&gt;Node36 -->
<g id="edge73" class="edge">
<title>Node35&#45;&gt;Node36</title>
<path fill="none" stroke="midnightblue" d="M851.18,-526.48C864.84,-518.27 885.99,-505.56 903.75,-494.88"/>
<polygon fill="midnightblue" stroke="midnightblue" points="905.9,-497.67 912.67,-489.52 902.29,-491.67 905.9,-497.67"/>
</g>
<!-- Node36&#45;&gt;Node6 -->
<g id="edge74" class="edge">
<title>Node36&#45;&gt;Node6</title>
<path fill="none" stroke="midnightblue" d="M928.13,-459.41C917,-438.13 898,-396.21 898,-358 898,-358 898,-358 898,-300 898,-265.07 899.39,-253.55 918,-224 925.64,-211.87 937.6,-201.31 948.22,-193.48"/>
<polygon fill="midnightblue" stroke="midnightblue" points="950.51,-196.15 956.71,-187.56 946.5,-190.41 950.51,-196.15"/>
</g>
<!-- Node36&#45;&gt;Node24 -->
<g id="edge75" class="edge">
<title>Node36&#45;&gt;Node24</title>
<path fill="none" stroke="midnightblue" d="M940.4,-459.28C952.86,-418.93 988.44,-303.79 1002.34,-258.81"/>
<polygon fill="midnightblue" stroke="midnightblue" points="1005.7,-259.79 1005.31,-249.2 999.01,-257.72 1005.7,-259.79"/>
</g>
<!-- Node36&#45;&gt;Node32 -->
<g id="edge76" class="edge">
<title>Node36&#45;&gt;Node32</title>
<path fill="none" stroke="midnightblue" d="M975.34,-459.4C1003.56,-449.28 1041.21,-435.79 1068.1,-426.15"/>
<polygon fill="midnightblue" stroke="midnightblue" points="1069.61,-429.33 1077.85,-422.66 1067.25,-422.74 1069.61,-429.33"/>
</g>
<!-- Node37&#45;&gt;Node36 -->
<g id="edge78" class="edge">
<title>Node37&#45;&gt;Node36</title>
<path fill="none" stroke="midnightblue" d="M982.26,-526.48C975.29,-518.79 964.74,-507.17 955.48,-496.96"/>
<polygon fill="midnightblue" stroke="midnightblue" points="958.04,-494.58 948.73,-489.52 952.86,-499.28 958.04,-494.58"/>
</g>
<!-- Node38&#45;&gt;Node31 -->
<g id="edge80" class="edge">
<title>Node38&#45;&gt;Node31</title>
<path fill="none" stroke="midnightblue" d="M1149,-526.48C1149,-519.47 1149,-509.19 1149,-499.7"/>
<polygon fill="midnightblue" stroke="midnightblue" points="1152.5,-499.52 1149,-489.52 1145.5,-499.52 1152.5,-499.52"/>
</g>
<!-- Node39&#45;&gt;Node3 -->
<g id="edge83" class="edge">
<title>Node39&#45;&gt;Node3</title>
<path fill="none" stroke="midnightblue" d="M309.97,-224.25C325.5,-208.09 353.06,-182.15 382,-168 438.5,-140.38 512.06,-129.53 553.64,-125.4"/>
<polygon fill="midnightblue" stroke="midnightblue" points="554.1,-128.88 563.74,-124.47 553.46,-121.91 554.1,-128.88"/>
</g>
<!-- Node39&#45;&gt;Node26 -->
<g id="edge82" class="edge">
<title>Node39&#45;&gt;Node26</title>
<path fill="none" stroke="midnightblue" d="M367.71,-229.33C452.38,-218.36 593.59,-200.05 680.37,-188.8"/>
<polygon fill="midnightblue" stroke="midnightblue" points="680.95,-192.26 690.42,-187.5 680.05,-185.32 680.95,-192.26"/>
</g>
<!-- Node40&#45;&gt;Node3 -->
<g id="edge86" class="edge">
<title>Node40&#45;&gt;Node3</title>
<path fill="none" stroke="midnightblue" d="M1298.25,-172.35C1177.97,-164.3 923.77,-147.19 709,-132 678.3,-129.83 643.3,-127.26 618.51,-125.42"/>
<polygon fill="midnightblue" stroke="midnightblue" points="618.45,-121.91 608.22,-124.66 617.93,-128.89 618.45,-121.91"/>
</g>
<!-- Node40&#45;&gt;Node8 -->
<g id="edge85" class="edge">
<title>Node40&#45;&gt;Node8</title>
<path fill="none" stroke="midnightblue" d="M1358.06,-168.42C1342.74,-155.4 1312.17,-130.24 1284,-112 1228.96,-76.36 1160.12,-41.92 1122.57,-23.92"/>
<polygon fill="midnightblue" stroke="midnightblue" points="1123.82,-20.64 1113.29,-19.5 1120.81,-26.96 1123.82,-20.64"/>
</g>
<!-- Node41 -->
<g id="node41" class="node">
<title>Node41</title>
<g id="a_node41"><a xlink:title=" ">
<polygon fill="none" stroke="#bfbfbf" points="1336.5,-112.5 1336.5,-131.5 1423.5,-131.5 1423.5,-112.5 1336.5,-112.5"/>
<text text-anchor="middle" x="1380" y="-119.5" font-family="FreeSans.ttf" font-size="10.00">ModelExport.h</text>
</a>
</g>
</g>
<!-- Node40&#45;&gt;Node41 -->
<g id="edge87" class="edge">
<title>Node40&#45;&gt;Node41</title>
<path fill="none" stroke="midnightblue" d="M1369.98,-168.08C1371.57,-160.93 1373.86,-150.64 1375.85,-141.69"/>
<polygon fill="midnightblue" stroke="midnightblue" points="1379.3,-142.27 1378.06,-131.75 1372.47,-140.75 1379.3,-142.27"/>
</g>
</g>
</svg>
