<?xml version="1.0" encoding="UTF-8" standalone="no"?>
<!DOCTYPE svg PUBLIC "-//W3C//DTD SVG 1.1//EN"
 "http://www.w3.org/Graphics/SVG/1.1/DTD/svg11.dtd">
<!-- Generated by graphviz version 2.43.0 (0)
 -->
<!-- Title: FreeFloatingMatrices.h Pages: 1 -->
<svg width="904pt" height="263pt"
 viewBox="0.00 0.00 903.50 263.00" xmlns="http://www.w3.org/2000/svg" xmlns:xlink="http://www.w3.org/1999/xlink">
<g id="graph0" class="graph" transform="scale(1 1) rotate(0) translate(4 259)">
<title>FreeFloatingMatrices.h</title>
<!-- Node1 -->
<g id="node1" class="node">
<title>Node1</title>
<g id="a_node1"><a xlink:title=" ">
<polygon fill="#bfbfbf" stroke="black" points="582,-235.5 582,-254.5 710,-254.5 710,-235.5 582,-235.5"/>
<text text-anchor="middle" x="646" y="-242.5" font-family="FreeSans.ttf" font-size="10.00">FreeFloatingMatrices.h</text>
</a>
</g>
</g>
<!-- Node2 -->
<g id="node2" class="node">
<title>Node2</title>
<g id="a_node2"><a xlink:href="KinDynComputations_8h.html" target="_top" xlink:title=" ">
<polygon fill="none" stroke="black" points="455.5,-179.5 455.5,-198.5 584.5,-198.5 584.5,-179.5 455.5,-179.5"/>
<text text-anchor="middle" x="520" y="-186.5" font-family="FreeSans.ttf" font-size="10.00">KinDynComputations.h</text>
</a>
</g>
</g>
<!-- Node1&#45;&gt;Node2 -->
<g id="edge1" class="edge">
<title>Node1&#45;&gt;Node2</title>
<path fill="none" stroke="midnightblue" d="M616.84,-231.5C593.22,-221.38 560.57,-207.39 539.87,-198.52"/>
<polygon fill="midnightblue" stroke="midnightblue" points="615.46,-234.72 626.03,-235.44 618.22,-228.29 615.46,-234.72"/>
</g>
<!-- Node17 -->
<g id="node17" class="node">
<title>Node17</title>
<g id="a_node17"><a xlink:href="Dynamics_8cpp.html" target="_top" xlink:title=" ">
<polygon fill="none" stroke="black" points="603,-179.5 603,-198.5 689,-198.5 689,-179.5 603,-179.5"/>
<text text-anchor="middle" x="646" y="-186.5" font-family="FreeSans.ttf" font-size="10.00">Dynamics.cpp</text>
</a>
</g>
</g>
<!-- Node1&#45;&gt;Node17 -->
<g id="edge17" class="edge">
<title>Node1&#45;&gt;Node17</title>
<path fill="none" stroke="midnightblue" d="M646,-224.8C646,-215.91 646,-205.78 646,-198.75"/>
<polygon fill="midnightblue" stroke="midnightblue" points="642.5,-225.08 646,-235.08 649.5,-225.08 642.5,-225.08"/>
</g>
<!-- Node18 -->
<g id="node18" class="node">
<title>Node18</title>
<g id="a_node18"><a xlink:href="FreeFloatingMatrices_8cpp.html" target="_top" xlink:title=" ">
<polygon fill="none" stroke="black" points="707,-179.5 707,-198.5 847,-198.5 847,-179.5 707,-179.5"/>
<text text-anchor="middle" x="777" y="-186.5" font-family="FreeSans.ttf" font-size="10.00">FreeFloatingMatrices.cpp</text>
</a>
</g>
</g>
<!-- Node1&#45;&gt;Node18 -->
<g id="edge18" class="edge">
<title>Node1&#45;&gt;Node18</title>
<path fill="none" stroke="midnightblue" d="M676.32,-231.5C700.88,-221.38 734.82,-207.39 756.34,-198.52"/>
<polygon fill="midnightblue" stroke="midnightblue" points="674.67,-228.4 666.76,-235.44 677.34,-234.87 674.67,-228.4"/>
</g>
<!-- Node3 -->
<g id="node3" class="node">
<title>Node3</title>
<g id="a_node3"><a xlink:href="KinDynComputations_8cpp.html" target="_top" xlink:title=" ">
<polygon fill="none" stroke="black" points="0,-123.5 0,-142.5 140,-142.5 140,-123.5 0,-123.5"/>
<text text-anchor="middle" x="70" y="-130.5" font-family="FreeSans.ttf" font-size="10.00">KinDynComputations.cpp</text>
</a>
</g>
</g>
<!-- Node2&#45;&gt;Node3 -->
<g id="edge2" class="edge">
<title>Node2&#45;&gt;Node3</title>
<path fill="none" stroke="midnightblue" d="M444.96,-179C360.08,-168.81 222.92,-152.35 140.12,-142.41"/>
<polygon fill="midnightblue" stroke="midnightblue" points="444.7,-182.49 455.05,-180.21 445.53,-175.54 444.7,-182.49"/>
</g>
<!-- Node4 -->
<g id="node4" class="node">
<title>Node4</title>
<g id="a_node4"><a xlink:href="InverseKinematicsData_8h.html" target="_top" xlink:title=" ">
<polygon fill="none" stroke="black" points="158,-123.5 158,-142.5 298,-142.5 298,-123.5 158,-123.5"/>
<text text-anchor="middle" x="228" y="-130.5" font-family="FreeSans.ttf" font-size="10.00">InverseKinematicsData.h</text>
</a>
</g>
</g>
<!-- Node2&#45;&gt;Node4 -->
<g id="edge3" class="edge">
<title>Node2&#45;&gt;Node4</title>
<path fill="none" stroke="midnightblue" d="M463.77,-177.6C408.58,-167.4 325.44,-152.02 274.05,-142.52"/>
<polygon fill="midnightblue" stroke="midnightblue" points="463.26,-181.07 473.73,-179.44 464.53,-174.18 463.26,-181.07"/>
</g>
<!-- Node7 -->
<g id="node7" class="node">
<title>Node7</title>
<g id="a_node7"><a xlink:href="idyntree-model-info_8cpp.html" target="_top" xlink:title=" ">
<polygon fill="none" stroke="black" points="316,-123.5 316,-142.5 450,-142.5 450,-123.5 316,-123.5"/>
<text text-anchor="middle" x="383" y="-130.5" font-family="FreeSans.ttf" font-size="10.00">idyntree&#45;model&#45;info.cpp</text>
</a>
</g>
</g>
<!-- Node2&#45;&gt;Node7 -->
<g id="edge6" class="edge">
<title>Node2&#45;&gt;Node7</title>
<path fill="none" stroke="midnightblue" d="M488.98,-175.77C463.24,-165.63 427.31,-151.47 404.61,-142.52"/>
<polygon fill="midnightblue" stroke="midnightblue" points="487.71,-179.03 498.29,-179.44 490.27,-172.52 487.71,-179.03"/>
</g>
<!-- Node8 -->
<g id="node8" class="node">
<title>Node8</title>
<g id="a_node8"><a xlink:href="ObserverThread_8h.html" target="_top" xlink:title=" ">
<polygon fill="none" stroke="black" points="468,-123.5 468,-142.5 572,-142.5 572,-123.5 468,-123.5"/>
<text text-anchor="middle" x="520" y="-130.5" font-family="FreeSans.ttf" font-size="10.00">ObserverThread.h</text>
</a>
</g>
</g>
<!-- Node2&#45;&gt;Node8 -->
<g id="edge7" class="edge">
<title>Node2&#45;&gt;Node8</title>
<path fill="none" stroke="midnightblue" d="M520,-168.8C520,-159.91 520,-149.78 520,-142.75"/>
<polygon fill="midnightblue" stroke="midnightblue" points="516.5,-169.08 520,-179.08 523.5,-169.08 516.5,-169.08"/>
</g>
<!-- Node13 -->
<g id="node13" class="node">
<title>Node13</title>
<g id="a_node13"><a xlink:href="urdf2dh_8cpp.html" target="_top" xlink:title=" ">
<polygon fill="none" stroke="black" points="590,-123.5 590,-142.5 664,-142.5 664,-123.5 590,-123.5"/>
<text text-anchor="middle" x="627" y="-130.5" font-family="FreeSans.ttf" font-size="10.00">urdf2dh.cpp</text>
</a>
</g>
</g>
<!-- Node2&#45;&gt;Node13 -->
<g id="edge12" class="edge">
<title>Node2&#45;&gt;Node13</title>
<path fill="none" stroke="midnightblue" d="M546.3,-174.73C566.11,-164.73 592.71,-151.31 609.85,-142.65"/>
<polygon fill="midnightblue" stroke="midnightblue" points="544.54,-171.69 537.19,-179.32 547.7,-177.94 544.54,-171.69"/>
</g>
<!-- Node14 -->
<g id="node14" class="node">
<title>Node14</title>
<g id="a_node14"><a xlink:href="robotstatepublisher_8h.html" target="_top" xlink:title=" ">
<polygon fill="none" stroke="black" points="682,-123.5 682,-142.5 802,-142.5 802,-123.5 682,-123.5"/>
<text text-anchor="middle" x="742" y="-130.5" font-family="FreeSans.ttf" font-size="10.00">robotstatepublisher.h</text>
</a>
</g>
</g>
<!-- Node2&#45;&gt;Node14 -->
<g id="edge13" class="edge">
<title>Node2&#45;&gt;Node14</title>
<path fill="none" stroke="midnightblue" d="M565.12,-177.02C607.06,-166.82 668.65,-151.84 706.99,-142.52"/>
<polygon fill="midnightblue" stroke="midnightblue" points="564.07,-173.68 555.18,-179.44 565.72,-180.48 564.07,-173.68"/>
</g>
<!-- Node16 -->
<g id="node16" class="node">
<title>Node16</title>
<g id="a_node16"><a xlink:href="robotstatepublisher_8cpp.html" target="_top" xlink:title=" ">
<polygon fill="none" stroke="black" points="764.5,-67.5 764.5,-86.5 895.5,-86.5 895.5,-67.5 764.5,-67.5"/>
<text text-anchor="middle" x="830" y="-74.5" font-family="FreeSans.ttf" font-size="10.00">robotstatepublisher.cpp</text>
</a>
</g>
</g>
<!-- Node2&#45;&gt;Node16 -->
<g id="edge16" class="edge">
<title>Node2&#45;&gt;Node16</title>
<path fill="none" stroke="midnightblue" d="M594.63,-178.48C678.12,-167.53 802.86,-150.14 811,-143 827.44,-128.58 830.02,-100.8 830.2,-86.69"/>
<polygon fill="midnightblue" stroke="midnightblue" points="594.12,-175.01 584.66,-179.78 595.03,-181.96 594.12,-175.01"/>
</g>
<!-- Node5 -->
<g id="node5" class="node">
<title>Node5</title>
<g id="a_node5"><a xlink:href="InverseKinematicsData_8cpp.html" target="_top" xlink:title=" ">
<polygon fill="none" stroke="black" points="10.5,-67.5 10.5,-86.5 161.5,-86.5 161.5,-67.5 10.5,-67.5"/>
<text text-anchor="middle" x="86" y="-74.5" font-family="FreeSans.ttf" font-size="10.00">InverseKinematicsData.cpp</text>
</a>
</g>
</g>
<!-- Node4&#45;&gt;Node5 -->
<g id="edge4" class="edge">
<title>Node4&#45;&gt;Node5</title>
<path fill="none" stroke="midnightblue" d="M195.84,-119.77C169.17,-109.63 131.93,-95.47 108.4,-86.52"/>
<polygon fill="midnightblue" stroke="midnightblue" points="194.91,-123.16 205.5,-123.44 197.4,-116.62 194.91,-123.16"/>
</g>
<!-- Node6 -->
<g id="node6" class="node">
<title>Node6</title>
<g id="a_node6"><a xlink:href="InverseKinematicsNLP_8cpp.html" target="_top" xlink:title=" ">
<polygon fill="none" stroke="black" points="179.5,-67.5 179.5,-86.5 324.5,-86.5 324.5,-67.5 179.5,-67.5"/>
<text text-anchor="middle" x="252" y="-74.5" font-family="FreeSans.ttf" font-size="10.00">InverseKinematicsNLP.cpp</text>
</a>
</g>
</g>
<!-- Node4&#45;&gt;Node6 -->
<g id="edge5" class="edge">
<title>Node4&#45;&gt;Node6</title>
<path fill="none" stroke="midnightblue" d="M236.14,-113.69C240.18,-104.59 244.88,-94.01 248.11,-86.75"/>
<polygon fill="midnightblue" stroke="midnightblue" points="232.83,-112.52 231.96,-123.08 239.22,-115.37 232.83,-112.52"/>
</g>
<!-- Node9 -->
<g id="node9" class="node">
<title>Node9</title>
<g id="a_node9"><a xlink:href="ObserverThread_8cpp.html" target="_top" xlink:title=" ">
<polygon fill="none" stroke="black" points="388.5,-67.5 388.5,-86.5 503.5,-86.5 503.5,-67.5 388.5,-67.5"/>
<text text-anchor="middle" x="446" y="-74.5" font-family="FreeSans.ttf" font-size="10.00">ObserverThread.cpp</text>
</a>
</g>
</g>
<!-- Node8&#45;&gt;Node9 -->
<g id="edge8" class="edge">
<title>Node8&#45;&gt;Node9</title>
<path fill="none" stroke="midnightblue" d="M499.97,-117.38C486.59,-107.62 469.44,-95.11 458.11,-86.83"/>
<polygon fill="midnightblue" stroke="midnightblue" points="497.97,-120.26 508.11,-123.32 502.1,-114.6 497.97,-120.26"/>
</g>
<!-- Node10 -->
<g id="node10" class="node">
<title>Node10</title>
<g id="a_node10"><a xlink:href="qticubskinguiplugin_8h.html" target="_top" xlink:title=" ">
<polygon fill="none" stroke="black" points="521.5,-67.5 521.5,-86.5 642.5,-86.5 642.5,-67.5 521.5,-67.5"/>
<text text-anchor="middle" x="582" y="-74.5" font-family="FreeSans.ttf" font-size="10.00">qticubskinguiplugin.h</text>
</a>
</g>
</g>
<!-- Node8&#45;&gt;Node10 -->
<g id="edge9" class="edge">
<title>Node8&#45;&gt;Node10</title>
<path fill="none" stroke="midnightblue" d="M537.75,-116.54C548.81,-106.91 562.63,-94.87 571.86,-86.83"/>
<polygon fill="midnightblue" stroke="midnightblue" points="535.2,-114.12 529.96,-123.32 539.8,-119.4 535.2,-114.12"/>
</g>
<!-- Node11 -->
<g id="node11" class="node">
<title>Node11</title>
<g id="a_node11"><a xlink:href="qticubskinguiplugin_8cpp.html" target="_top" xlink:title=" ">
<polygon fill="none" stroke="black" points="446,-6 446,-25 578,-25 578,-6 446,-6"/>
<text text-anchor="middle" x="512" y="-13" font-family="FreeSans.ttf" font-size="10.00">qticubskinguiplugin.cpp</text>
</a>
</g>
</g>
<!-- Node10&#45;&gt;Node11 -->
<g id="edge10" class="edge">
<title>Node10&#45;&gt;Node11</title>
<path fill="none" stroke="midnightblue" d="M564.32,-60.97C550.93,-49.59 533.02,-34.37 522.01,-25.01"/>
<polygon fill="midnightblue" stroke="midnightblue" points="562.08,-63.67 571.97,-67.48 566.62,-58.33 562.08,-63.67"/>
</g>
<!-- Node12 -->
<g id="node12" class="node">
<title>Node12</title>
<g id="a_node12"><a xlink:href="qticubskinguiplugin__plugin_8cpp.html" target="_top" xlink:title=" ">
<polygon fill="none" stroke="black" points="596,-0.5 596,-30.5 708,-30.5 708,-0.5 596,-0.5"/>
<text text-anchor="start" x="604" y="-18.5" font-family="FreeSans.ttf" font-size="10.00">qticubskinguiplugin</text>
<text text-anchor="middle" x="652" y="-7.5" font-family="FreeSans.ttf" font-size="10.00">_plugin.cpp</text>
</a>
</g>
</g>
<!-- Node10&#45;&gt;Node12 -->
<g id="edge11" class="edge">
<title>Node10&#45;&gt;Node12</title>
<path fill="none" stroke="midnightblue" d="M599.74,-60.92C610.73,-51.58 624.75,-39.66 635.5,-30.52"/>
<polygon fill="midnightblue" stroke="midnightblue" points="597.38,-58.33 592.03,-67.48 601.92,-63.67 597.38,-58.33"/>
</g>
<!-- Node15 -->
<g id="node15" class="node">
<title>Node15</title>
<g id="a_node15"><a xlink:href="yarprobotstatepublisher_2src_2main_8cpp.html" target="_top" xlink:title=" ">
<polygon fill="none" stroke="black" points="684,-67.5 684,-86.5 746,-86.5 746,-67.5 684,-67.5"/>
<text text-anchor="middle" x="715" y="-74.5" font-family="FreeSans.ttf" font-size="10.00">main.cpp</text>
</a>
</g>
</g>
<!-- Node14&#45;&gt;Node15 -->
<g id="edge14" class="edge">
<title>Node14&#45;&gt;Node15</title>
<path fill="none" stroke="midnightblue" d="M732.99,-113.98C728.41,-104.82 723.05,-94.09 719.38,-86.75"/>
<polygon fill="midnightblue" stroke="midnightblue" points="729.94,-115.7 737.54,-123.08 736.2,-112.57 729.94,-115.7"/>
</g>
<!-- Node14&#45;&gt;Node16 -->
<g id="edge15" class="edge">
<title>Node14&#45;&gt;Node16</title>
<path fill="none" stroke="midnightblue" d="M764.98,-117.9C781.11,-108 802.18,-95.07 815.9,-86.65"/>
<polygon fill="midnightblue" stroke="midnightblue" points="762.83,-115.11 756.14,-123.32 766.49,-121.08 762.83,-115.11"/>
</g>
</g>
</svg>
