<?xml version="1.0" encoding="UTF-8" standalone="no"?>
<!DOCTYPE svg PUBLIC "-//W3C//DTD SVG 1.1//EN"
 "http://www.w3.org/Graphics/SVG/1.1/DTD/svg11.dtd">
<!-- Generated by graphviz version 2.43.0 (0)
 -->
<!-- Title: FreeFloatingMatrices.h Pages: 1 -->
<svg width="563pt" height="196pt"
 viewBox="0.00 0.00 563.00 196.00" xmlns="http://www.w3.org/2000/svg" xmlns:xlink="http://www.w3.org/1999/xlink">
<g id="graph0" class="graph" transform="scale(1 1) rotate(0) translate(4 192)">
<title>FreeFloatingMatrices.h</title>
<!-- Node1 -->
<g id="node1" class="node">
<title>Node1</title>
<g id="a_node1"><a xlink:title=" ">
<polygon fill="#bfbfbf" stroke="black" points="290,-168.5 290,-187.5 418,-187.5 418,-168.5 290,-168.5"/>
<text text-anchor="middle" x="354" y="-175.5" font-family="FreeSans.ttf" font-size="10.00">FreeFloatingMatrices.h</text>
</a>
</g>
</g>
<!-- Node2 -->
<g id="node2" class="node">
<title>Node2</title>
<g id="a_node2"><a xlink:href="KinDynComputations_8h.html" target="_top" xlink:title=" ">
<polygon fill="none" stroke="black" points="163.5,-112.5 163.5,-131.5 292.5,-131.5 292.5,-112.5 163.5,-112.5"/>
<text text-anchor="middle" x="228" y="-119.5" font-family="FreeSans.ttf" font-size="10.00">KinDynComputations.h</text>
</a>
</g>
</g>
<!-- Node1&#45;&gt;Node2 -->
<g id="edge1" class="edge">
<title>Node1&#45;&gt;Node2</title>
<path fill="none" stroke="midnightblue" d="M324.84,-164.5C301.22,-154.38 268.57,-140.39 247.87,-131.52"/>
<polygon fill="midnightblue" stroke="midnightblue" points="323.46,-167.72 334.03,-168.44 326.22,-161.29 323.46,-167.72"/>
</g>
<!-- Node8 -->
<g id="node8" class="node">
<title>Node8</title>
<g id="a_node8"><a xlink:href="Dynamics_8cpp.html" target="_top" xlink:title=" ">
<polygon fill="none" stroke="black" points="311,-112.5 311,-131.5 397,-131.5 397,-112.5 311,-112.5"/>
<text text-anchor="middle" x="354" y="-119.5" font-family="FreeSans.ttf" font-size="10.00">Dynamics.cpp</text>
</a>
</g>
</g>
<!-- Node1&#45;&gt;Node8 -->
<g id="edge7" class="edge">
<title>Node1&#45;&gt;Node8</title>
<path fill="none" stroke="midnightblue" d="M354,-157.8C354,-148.91 354,-138.78 354,-131.75"/>
<polygon fill="midnightblue" stroke="midnightblue" points="350.5,-158.08 354,-168.08 357.5,-158.08 350.5,-158.08"/>
</g>
<!-- Node9 -->
<g id="node9" class="node">
<title>Node9</title>
<g id="a_node9"><a xlink:href="FreeFloatingMatrices_8cpp.html" target="_top" xlink:title=" ">
<polygon fill="none" stroke="black" points="415,-112.5 415,-131.5 555,-131.5 555,-112.5 415,-112.5"/>
<text text-anchor="middle" x="485" y="-119.5" font-family="FreeSans.ttf" font-size="10.00">FreeFloatingMatrices.cpp</text>
</a>
</g>
</g>
<!-- Node1&#45;&gt;Node9 -->
<g id="edge8" class="edge">
<title>Node1&#45;&gt;Node9</title>
<path fill="none" stroke="midnightblue" d="M384.32,-164.5C408.88,-154.38 442.82,-140.39 464.34,-131.52"/>
<polygon fill="midnightblue" stroke="midnightblue" points="382.67,-161.4 374.76,-168.44 385.34,-167.87 382.67,-161.4"/>
</g>
<!-- Node3 -->
<g id="node3" class="node">
<title>Node3</title>
<g id="a_node3"><a xlink:href="KinDynComputations_8cpp.html" target="_top" xlink:title=" ">
<polygon fill="none" stroke="black" points="0,-56.5 0,-75.5 140,-75.5 140,-56.5 0,-56.5"/>
<text text-anchor="middle" x="70" y="-63.5" font-family="FreeSans.ttf" font-size="10.00">KinDynComputations.cpp</text>
</a>
</g>
</g>
<!-- Node2&#45;&gt;Node3 -->
<g id="edge2" class="edge">
<title>Node2&#45;&gt;Node3</title>
<path fill="none" stroke="midnightblue" d="M193.39,-109.17C163.64,-99 121.45,-84.59 94.92,-75.52"/>
<polygon fill="midnightblue" stroke="midnightblue" points="192.37,-112.52 202.96,-112.44 194.63,-105.9 192.37,-112.52"/>
</g>
<!-- Node4 -->
<g id="node4" class="node">
<title>Node4</title>
<g id="a_node4"><a xlink:href="InverseKinematicsData_8h.html" target="_top" xlink:title=" ">
<polygon fill="none" stroke="black" points="158,-56.5 158,-75.5 298,-75.5 298,-56.5 158,-56.5"/>
<text text-anchor="middle" x="228" y="-63.5" font-family="FreeSans.ttf" font-size="10.00">InverseKinematicsData.h</text>
</a>
</g>
</g>
<!-- Node2&#45;&gt;Node4 -->
<g id="edge3" class="edge">
<title>Node2&#45;&gt;Node4</title>
<path fill="none" stroke="midnightblue" d="M228,-101.8C228,-92.91 228,-82.78 228,-75.75"/>
<polygon fill="midnightblue" stroke="midnightblue" points="224.5,-102.08 228,-112.08 231.5,-102.08 224.5,-102.08"/>
</g>
<!-- Node7 -->
<g id="node7" class="node">
<title>Node7</title>
<g id="a_node7"><a xlink:href="idyntree-model-info_8cpp.html" target="_top" xlink:title=" ">
<polygon fill="none" stroke="black" points="316,-56.5 316,-75.5 450,-75.5 450,-56.5 316,-56.5"/>
<text text-anchor="middle" x="383" y="-63.5" font-family="FreeSans.ttf" font-size="10.00">idyntree&#45;model&#45;info.cpp</text>
</a>
</g>
</g>
<!-- Node2&#45;&gt;Node7 -->
<g id="edge6" class="edge">
<title>Node2&#45;&gt;Node7</title>
<path fill="none" stroke="midnightblue" d="M262.33,-109.04C291.5,-98.88 332.64,-84.55 358.55,-75.52"/>
<polygon fill="midnightblue" stroke="midnightblue" points="260.85,-105.85 252.56,-112.44 263.16,-112.46 260.85,-105.85"/>
</g>
<!-- Node5 -->
<g id="node5" class="node">
<title>Node5</title>
<g id="a_node5"><a xlink:href="InverseKinematicsData_8cpp.html" target="_top" xlink:title=" ">
<polygon fill="none" stroke="black" points="69.5,-0.5 69.5,-19.5 220.5,-19.5 220.5,-0.5 69.5,-0.5"/>
<text text-anchor="middle" x="145" y="-7.5" font-family="FreeSans.ttf" font-size="10.00">InverseKinematicsData.cpp</text>
</a>
</g>
</g>
<!-- Node4&#45;&gt;Node5 -->
<g id="edge4" class="edge">
<title>Node4&#45;&gt;Node5</title>
<path fill="none" stroke="midnightblue" d="M205.9,-50.62C190.74,-40.76 171.12,-27.99 158.3,-19.65"/>
<polygon fill="midnightblue" stroke="midnightblue" points="204.37,-53.8 214.66,-56.32 208.19,-47.94 204.37,-53.8"/>
</g>
<!-- Node6 -->
<g id="node6" class="node">
<title>Node6</title>
<g id="a_node6"><a xlink:href="InverseKinematicsNLP_8cpp.html" target="_top" xlink:title=" ">
<polygon fill="none" stroke="black" points="238.5,-0.5 238.5,-19.5 383.5,-19.5 383.5,-0.5 238.5,-0.5"/>
<text text-anchor="middle" x="311" y="-7.5" font-family="FreeSans.ttf" font-size="10.00">InverseKinematicsNLP.cpp</text>
</a>
</g>
</g>
<!-- Node4&#45;&gt;Node6 -->
<g id="edge5" class="edge">
<title>Node4&#45;&gt;Node6</title>
<path fill="none" stroke="midnightblue" d="M250.1,-50.62C265.26,-40.76 284.88,-27.99 297.7,-19.65"/>
<polygon fill="midnightblue" stroke="midnightblue" points="247.81,-47.94 241.34,-56.32 251.63,-53.8 247.81,-47.94"/>
</g>
</g>
</svg>
