<?xml version="1.0" encoding="UTF-8" standalone="no"?>
<!DOCTYPE svg PUBLIC "-//W3C//DTD SVG 1.1//EN"
 "http://www.w3.org/Graphics/SVG/1.1/DTD/svg11.dtd">
<!-- Generated by graphviz version 2.43.0 (0)
 -->
<!-- Title: GeomVector3.cpp Pages: 1 -->
<svg width="839pt" height="364pt"
 viewBox="0.00 0.00 839.00 364.00" xmlns="http://www.w3.org/2000/svg" xmlns:xlink="http://www.w3.org/1999/xlink">
<g id="graph0" class="graph" transform="scale(1 1) rotate(0) translate(4 360)">
<title>GeomVector3.cpp</title>
<!-- Node1 -->
<g id="node1" class="node">
<title>Node1</title>
<g id="a_node1"><a xlink:title=" ">
<polygon fill="#bfbfbf" stroke="black" points="140,-336.5 140,-355.5 243,-355.5 243,-336.5 140,-336.5"/>
<text text-anchor="middle" x="191.5" y="-343.5" font-family="FreeSans.ttf" font-size="10.00">GeomVector3.cpp</text>
</a>
</g>
</g>
<!-- Node2 -->
<g id="node2" class="node">
<title>Node2</title>
<g id="a_node2"><a xlink:href="GeomVector3_8h.html" target="_top" xlink:title=" ">
<polygon fill="none" stroke="black" points="0,-224.5 0,-243.5 163,-243.5 163,-224.5 0,-224.5"/>
<text text-anchor="middle" x="81.5" y="-231.5" font-family="FreeSans.ttf" font-size="10.00">iDynTree/Core/GeomVector3.h</text>
</a>
</g>
</g>
<!-- Node1&#45;&gt;Node2 -->
<g id="edge1" class="edge">
<title>Node1&#45;&gt;Node2</title>
<path fill="none" stroke="midnightblue" d="M169.31,-336.44C152.28,-328.96 129.1,-316.66 113.5,-300 100.9,-286.54 92.23,-267.17 87.13,-253.08"/>
<polygon fill="midnightblue" stroke="midnightblue" points="90.42,-251.89 83.92,-243.52 83.78,-254.12 90.42,-251.89"/>
</g>
<!-- Node19 -->
<g id="node19" class="node">
<title>Node19</title>
<g id="a_node19"><a xlink:href="Rotation_8h.html" target="_top" xlink:title=" ">
<polygon fill="none" stroke="black" points="122.5,-280.5 122.5,-299.5 260.5,-299.5 260.5,-280.5 122.5,-280.5"/>
<text text-anchor="middle" x="191.5" y="-287.5" font-family="FreeSans.ttf" font-size="10.00">iDynTree/Core/Rotation.h</text>
</a>
</g>
</g>
<!-- Node1&#45;&gt;Node19 -->
<g id="edge21" class="edge">
<title>Node1&#45;&gt;Node19</title>
<path fill="none" stroke="midnightblue" d="M191.5,-336.08C191.5,-329.01 191.5,-318.86 191.5,-309.99"/>
<polygon fill="midnightblue" stroke="midnightblue" points="195,-309.75 191.5,-299.75 188,-309.75 195,-309.75"/>
</g>
<!-- Node24 -->
<g id="node24" class="node">
<title>Node24</title>
<g id="a_node24"><a xlink:title=" ">
<polygon fill="none" stroke="#bfbfbf" points="279,-280.5 279,-299.5 356,-299.5 356,-280.5 279,-280.5"/>
<text text-anchor="middle" x="317.5" y="-287.5" font-family="FreeSans.ttf" font-size="10.00">Eigen/Dense</text>
</a>
</g>
</g>
<!-- Node1&#45;&gt;Node24 -->
<g id="edge39" class="edge">
<title>Node1&#45;&gt;Node24</title>
<path fill="none" stroke="midnightblue" d="M211.47,-336.44C232.11,-327.6 264.56,-313.69 288.13,-303.59"/>
<polygon fill="midnightblue" stroke="midnightblue" points="289.82,-306.67 297.63,-299.52 287.06,-300.24 289.82,-306.67"/>
</g>
<!-- Node3 -->
<g id="node3" class="node">
<title>Node3</title>
<g id="a_node3"><a xlink:href="VectorFixSize_8h.html" target="_top" xlink:title=" ">
<polygon fill="none" stroke="black" points="39.5,-168.5 39.5,-187.5 201.5,-187.5 201.5,-168.5 39.5,-168.5"/>
<text text-anchor="middle" x="120.5" y="-175.5" font-family="FreeSans.ttf" font-size="10.00">iDynTree/Core/VectorFixSize.h</text>
</a>
</g>
</g>
<!-- Node2&#45;&gt;Node3 -->
<g id="edge2" class="edge">
<title>Node2&#45;&gt;Node3</title>
<path fill="none" stroke="midnightblue" d="M87.94,-224.08C93.45,-216.46 101.53,-205.26 108.26,-195.94"/>
<polygon fill="midnightblue" stroke="midnightblue" points="111.16,-197.91 114.18,-187.75 105.49,-193.81 111.16,-197.91"/>
</g>
<!-- Node4 -->
<g id="node4" class="node">
<title>Node4</title>
<g id="a_node4"><a xlink:href="Utils_8h.html" target="_top" xlink:title=" ">
<polygon fill="none" stroke="black" points="37,-56.5 37,-75.5 156,-75.5 156,-56.5 37,-56.5"/>
<text text-anchor="middle" x="96.5" y="-63.5" font-family="FreeSans.ttf" font-size="10.00">iDynTree/Core/Utils.h</text>
</a>
</g>
</g>
<!-- Node3&#45;&gt;Node4 -->
<g id="edge3" class="edge">
<title>Node3&#45;&gt;Node4</title>
<path fill="none" stroke="midnightblue" d="M113.87,-168.27C107.73,-159.61 99.04,-145.67 95.5,-132 91.56,-116.79 92.2,-98.9 93.61,-85.74"/>
<polygon fill="midnightblue" stroke="midnightblue" points="97.11,-85.96 94.94,-75.59 90.17,-85.04 97.11,-85.96"/>
</g>
<!-- Node5 -->
<g id="node5" class="node">
<title>Node5</title>
<g id="a_node5"><a xlink:title=" ">
<polygon fill="none" stroke="#bfbfbf" points="20,-0.5 20,-19.5 73,-19.5 73,-0.5 20,-0.5"/>
<text text-anchor="middle" x="46.5" y="-7.5" font-family="FreeSans.ttf" font-size="10.00">cstddef</text>
</a>
</g>
</g>
<!-- Node3&#45;&gt;Node5 -->
<g id="edge19" class="edge">
<title>Node3&#45;&gt;Node5</title>
<path fill="none" stroke="midnightblue" d="M108.09,-168.49C86.76,-153.02 43.88,-117.97 27.5,-76 21.37,-60.29 28.07,-41.78 35.15,-28.54"/>
<polygon fill="midnightblue" stroke="midnightblue" points="38.38,-29.96 40.44,-19.57 32.34,-26.41 38.38,-29.96"/>
</g>
<!-- Node7 -->
<g id="node7" class="node">
<title>Node7</title>
<g id="a_node7"><a xlink:href="Span_8h.html" target="_top" xlink:title=" ">
<polygon fill="none" stroke="black" points="482,-56.5 482,-75.5 603,-75.5 603,-56.5 482,-56.5"/>
<text text-anchor="middle" x="542.5" y="-63.5" font-family="FreeSans.ttf" font-size="10.00">iDynTree/Core/Span.h</text>
</a>
</g>
</g>
<!-- Node3&#45;&gt;Node7 -->
<g id="edge6" class="edge">
<title>Node3&#45;&gt;Node7</title>
<path fill="none" stroke="midnightblue" d="M123.79,-168.49C129.83,-154.12 144.17,-125.3 166.5,-112 216.57,-82.19 377.63,-72.08 471.93,-68.69"/>
<polygon fill="midnightblue" stroke="midnightblue" points="472.09,-72.19 481.96,-68.35 471.84,-65.19 472.09,-72.19"/>
</g>
<!-- Node8 -->
<g id="node8" class="node">
<title>Node8</title>
<g id="a_node8"><a xlink:title=" ">
<polygon fill="none" stroke="#bfbfbf" points="269.5,-0.5 269.5,-19.5 321.5,-19.5 321.5,-0.5 269.5,-0.5"/>
<text text-anchor="middle" x="295.5" y="-7.5" font-family="FreeSans.ttf" font-size="10.00">cassert</text>
</a>
</g>
</g>
<!-- Node3&#45;&gt;Node8 -->
<g id="edge18" class="edge">
<title>Node3&#45;&gt;Node8</title>
<path fill="none" stroke="midnightblue" d="M121.63,-168.15C123.73,-154.78 129.26,-129.17 142.5,-112 174.96,-69.9 230.19,-39.75 264.66,-23.87"/>
<polygon fill="midnightblue" stroke="midnightblue" points="266.52,-26.87 274.22,-19.58 263.66,-20.48 266.52,-26.87"/>
</g>
<!-- Node16 -->
<g id="node16" class="node">
<title>Node16</title>
<g id="a_node16"><a xlink:title=" ">
<polygon fill="none" stroke="#bfbfbf" points="175.5,-112.5 175.5,-131.5 219.5,-131.5 219.5,-112.5 175.5,-112.5"/>
<text text-anchor="middle" x="197.5" y="-119.5" font-family="FreeSans.ttf" font-size="10.00">string</text>
</a>
</g>
</g>
<!-- Node3&#45;&gt;Node16 -->
<g id="edge16" class="edge">
<title>Node3&#45;&gt;Node16</title>
<path fill="none" stroke="midnightblue" d="M132.87,-168.32C144.66,-160.06 162.63,-147.45 176.64,-137.63"/>
<polygon fill="midnightblue" stroke="midnightblue" points="178.98,-140.26 185.16,-131.65 174.96,-134.53 178.98,-140.26"/>
</g>
<!-- Node17 -->
<g id="node17" class="node">
<title>Node17</title>
<g id="a_node17"><a xlink:title=" ">
<polygon fill="none" stroke="#bfbfbf" points="237.5,-112.5 237.5,-131.5 293.5,-131.5 293.5,-112.5 237.5,-112.5"/>
<text text-anchor="middle" x="265.5" y="-119.5" font-family="FreeSans.ttf" font-size="10.00">sstream</text>
</a>
</g>
</g>
<!-- Node3&#45;&gt;Node17 -->
<g id="edge17" class="edge">
<title>Node3&#45;&gt;Node17</title>
<path fill="none" stroke="midnightblue" d="M143.48,-168.44C167.66,-159.44 205.92,-145.19 233.15,-135.05"/>
<polygon fill="midnightblue" stroke="midnightblue" points="234.48,-138.29 242.63,-131.52 232.04,-131.73 234.48,-138.29"/>
</g>
<!-- Node18 -->
<g id="node18" class="node">
<title>Node18</title>
<g id="a_node18"><a xlink:title=" ">
<polygon fill="none" stroke="#bfbfbf" points="311.5,-112.5 311.5,-131.5 361.5,-131.5 361.5,-112.5 311.5,-112.5"/>
<text text-anchor="middle" x="336.5" y="-119.5" font-family="FreeSans.ttf" font-size="10.00">cstring</text>
</a>
</g>
</g>
<!-- Node3&#45;&gt;Node18 -->
<g id="edge20" class="edge">
<title>Node3&#45;&gt;Node18</title>
<path fill="none" stroke="midnightblue" d="M155.77,-168.46C190.46,-160.02 245.18,-146.6 301.48,-132.23"/>
<polygon fill="midnightblue" stroke="midnightblue" points="302.44,-135.6 311.26,-129.73 300.71,-128.82 302.44,-135.6"/>
</g>
<!-- Node4&#45;&gt;Node5 -->
<g id="edge4" class="edge">
<title>Node4&#45;&gt;Node5</title>
<path fill="none" stroke="midnightblue" d="M88.24,-56.08C81.04,-48.3 70.39,-36.8 61.65,-27.37"/>
<polygon fill="midnightblue" stroke="midnightblue" points="63.97,-24.71 54.6,-19.75 58.83,-29.47 63.97,-24.71"/>
</g>
<!-- Node6 -->
<g id="node6" class="node">
<title>Node6</title>
<g id="a_node6"><a xlink:title=" ">
<polygon fill="none" stroke="#bfbfbf" points="91.5,-0.5 91.5,-19.5 171.5,-19.5 171.5,-0.5 91.5,-0.5"/>
<text text-anchor="middle" x="131.5" y="-7.5" font-family="FreeSans.ttf" font-size="10.00">CoreExport.h</text>
</a>
</g>
</g>
<!-- Node4&#45;&gt;Node6 -->
<g id="edge5" class="edge">
<title>Node4&#45;&gt;Node6</title>
<path fill="none" stroke="midnightblue" d="M102.28,-56.08C107.17,-48.53 114.33,-37.49 120.33,-28.23"/>
<polygon fill="midnightblue" stroke="midnightblue" points="123.33,-30.05 125.83,-19.75 117.45,-26.24 123.33,-30.05"/>
</g>
<!-- Node7&#45;&gt;Node5 -->
<g id="edge10" class="edge">
<title>Node7&#45;&gt;Node5</title>
<path fill="none" stroke="midnightblue" d="M481.84,-61.92C395.46,-56.91 231.98,-45.09 83.36,-19.88"/>
<polygon fill="midnightblue" stroke="midnightblue" points="83.59,-16.37 73.14,-18.13 82.4,-23.27 83.59,-16.37"/>
</g>
<!-- Node7&#45;&gt;Node8 -->
<g id="edge7" class="edge">
<title>Node7&#45;&gt;Node8</title>
<path fill="none" stroke="midnightblue" d="M499.75,-56.48C458.94,-48.23 395.5,-35.07 331.67,-20.2"/>
<polygon fill="midnightblue" stroke="midnightblue" points="332.38,-16.77 321.84,-17.9 330.78,-23.59 332.38,-16.77"/>
</g>
<!-- Node9 -->
<g id="node9" class="node">
<title>Node9</title>
<g id="a_node9"><a xlink:title=" ">
<polygon fill="none" stroke="#bfbfbf" points="339.5,-0.5 339.5,-19.5 403.5,-19.5 403.5,-0.5 339.5,-0.5"/>
<text text-anchor="middle" x="371.5" y="-7.5" font-family="FreeSans.ttf" font-size="10.00">algorithm</text>
</a>
</g>
</g>
<!-- Node7&#45;&gt;Node9 -->
<g id="edge8" class="edge">
<title>Node7&#45;&gt;Node9</title>
<path fill="none" stroke="midnightblue" d="M515.4,-56.44C486.51,-47.32 440.58,-32.81 408.39,-22.65"/>
<polygon fill="midnightblue" stroke="midnightblue" points="409.06,-19.19 398.47,-19.52 406.95,-25.87 409.06,-19.19"/>
</g>
<!-- Node10 -->
<g id="node10" class="node">
<title>Node10</title>
<g id="a_node10"><a xlink:title=" ">
<polygon fill="none" stroke="#bfbfbf" points="421.5,-0.5 421.5,-19.5 463.5,-19.5 463.5,-0.5 421.5,-0.5"/>
<text text-anchor="middle" x="442.5" y="-7.5" font-family="FreeSans.ttf" font-size="10.00">array</text>
</a>
</g>
</g>
<!-- Node7&#45;&gt;Node10 -->
<g id="edge9" class="edge">
<title>Node7&#45;&gt;Node10</title>
<path fill="none" stroke="midnightblue" d="M526.43,-56.32C510.54,-47.74 485.99,-34.49 467.54,-24.52"/>
<polygon fill="midnightblue" stroke="midnightblue" points="468.99,-21.33 458.53,-19.65 465.66,-27.49 468.99,-21.33"/>
</g>
<!-- Node11 -->
<g id="node11" class="node">
<title>Node11</title>
<g id="a_node11"><a xlink:title=" ">
<polygon fill="none" stroke="#bfbfbf" points="482,-0.5 482,-19.5 535,-19.5 535,-0.5 482,-0.5"/>
<text text-anchor="middle" x="508.5" y="-7.5" font-family="FreeSans.ttf" font-size="10.00">iterator</text>
</a>
</g>
</g>
<!-- Node7&#45;&gt;Node11 -->
<g id="edge11" class="edge">
<title>Node7&#45;&gt;Node11</title>
<path fill="none" stroke="midnightblue" d="M536.89,-56.08C532.13,-48.53 525.18,-37.49 519.35,-28.23"/>
<polygon fill="midnightblue" stroke="midnightblue" points="522.3,-26.35 514.01,-19.75 516.38,-30.08 522.3,-26.35"/>
</g>
<!-- Node12 -->
<g id="node12" class="node">
<title>Node12</title>
<g id="a_node12"><a xlink:title=" ">
<polygon fill="none" stroke="#bfbfbf" points="553.5,-0.5 553.5,-19.5 597.5,-19.5 597.5,-0.5 553.5,-0.5"/>
<text text-anchor="middle" x="575.5" y="-7.5" font-family="FreeSans.ttf" font-size="10.00">limits</text>
</a>
</g>
</g>
<!-- Node7&#45;&gt;Node12 -->
<g id="edge12" class="edge">
<title>Node7&#45;&gt;Node12</title>
<path fill="none" stroke="midnightblue" d="M547.95,-56.08C552.51,-48.61 559.17,-37.72 564.79,-28.52"/>
<polygon fill="midnightblue" stroke="midnightblue" points="567.92,-30.11 570.15,-19.75 561.95,-26.46 567.92,-30.11"/>
</g>
<!-- Node13 -->
<g id="node13" class="node">
<title>Node13</title>
<g id="a_node13"><a xlink:title=" ">
<polygon fill="none" stroke="#bfbfbf" points="616,-0.5 616,-19.5 681,-19.5 681,-0.5 616,-0.5"/>
<text text-anchor="middle" x="648.5" y="-7.5" font-family="FreeSans.ttf" font-size="10.00">stdexcept</text>
</a>
</g>
</g>
<!-- Node7&#45;&gt;Node13 -->
<g id="edge13" class="edge">
<title>Node7&#45;&gt;Node13</title>
<path fill="none" stroke="midnightblue" d="M559.53,-56.32C576.53,-47.66 602.88,-34.24 622.49,-24.25"/>
<polygon fill="midnightblue" stroke="midnightblue" points="624.19,-27.31 631.51,-19.65 621.01,-21.08 624.19,-27.31"/>
</g>
<!-- Node14 -->
<g id="node14" class="node">
<title>Node14</title>
<g id="a_node14"><a xlink:title=" ">
<polygon fill="none" stroke="#bfbfbf" points="762,-0.5 762,-19.5 831,-19.5 831,-0.5 762,-0.5"/>
<text text-anchor="middle" x="796.5" y="-7.5" font-family="FreeSans.ttf" font-size="10.00">type_traits</text>
</a>
</g>
</g>
<!-- Node7&#45;&gt;Node14 -->
<g id="edge14" class="edge">
<title>Node7&#45;&gt;Node14</title>
<path fill="none" stroke="midnightblue" d="M582.75,-56.44C628.75,-46.66 703.85,-30.7 751.68,-20.53"/>
<polygon fill="midnightblue" stroke="midnightblue" points="752.69,-23.89 761.75,-18.39 751.24,-17.04 752.69,-23.89"/>
</g>
<!-- Node15 -->
<g id="node15" class="node">
<title>Node15</title>
<g id="a_node15"><a xlink:title=" ">
<polygon fill="none" stroke="#bfbfbf" points="699,-0.5 699,-19.5 744,-19.5 744,-0.5 699,-0.5"/>
<text text-anchor="middle" x="721.5" y="-7.5" font-family="FreeSans.ttf" font-size="10.00">utility</text>
</a>
</g>
</g>
<!-- Node7&#45;&gt;Node15 -->
<g id="edge15" class="edge">
<title>Node7&#45;&gt;Node15</title>
<path fill="none" stroke="midnightblue" d="M570.86,-56.44C603.02,-46.74 655.36,-30.95 689.11,-20.77"/>
<polygon fill="midnightblue" stroke="midnightblue" points="690.37,-24.05 698.94,-17.81 688.35,-17.34 690.37,-24.05"/>
</g>
<!-- Node19&#45;&gt;Node2 -->
<g id="edge23" class="edge">
<title>Node19&#45;&gt;Node2</title>
<path fill="none" stroke="midnightblue" d="M173.83,-280.32C156.11,-271.62 128.6,-258.12 108.21,-248.11"/>
<polygon fill="midnightblue" stroke="midnightblue" points="109.65,-244.92 99.13,-243.65 106.56,-251.2 109.65,-244.92"/>
</g>
<!-- Node19&#45;&gt;Node3 -->
<g id="edge38" class="edge">
<title>Node19&#45;&gt;Node3</title>
<path fill="none" stroke="midnightblue" d="M190.37,-280.37C188.35,-267.29 183.15,-242.05 171.5,-224 163.9,-212.22 152.37,-201.68 142.2,-193.78"/>
<polygon fill="midnightblue" stroke="midnightblue" points="144.21,-190.91 134.09,-187.78 140.05,-196.54 144.21,-190.91"/>
</g>
<!-- Node19&#45;&gt;Node16 -->
<g id="edge22" class="edge">
<title>Node19&#45;&gt;Node16</title>
<path fill="none" stroke="midnightblue" d="M194.69,-280.21C201.51,-260.28 216.46,-210.11 210.5,-168 209.23,-159.04 206.61,-149.37 204.05,-141.3"/>
<polygon fill="midnightblue" stroke="midnightblue" points="207.36,-140.16 200.84,-131.8 200.73,-142.4 207.36,-140.16"/>
</g>
<!-- Node20 -->
<g id="node20" class="node">
<title>Node20</title>
<g id="a_node20"><a xlink:href="RotationRaw_8h.html" target="_top" xlink:title=" ">
<polygon fill="none" stroke="black" points="257.5,-224.5 257.5,-243.5 415.5,-243.5 415.5,-224.5 257.5,-224.5"/>
<text text-anchor="middle" x="336.5" y="-231.5" font-family="FreeSans.ttf" font-size="10.00">iDynTree/Core/RotationRaw.h</text>
</a>
</g>
</g>
<!-- Node19&#45;&gt;Node20 -->
<g id="edge24" class="edge">
<title>Node19&#45;&gt;Node20</title>
<path fill="none" stroke="midnightblue" d="M214.48,-280.44C238.66,-271.44 276.92,-257.19 304.15,-247.05"/>
<polygon fill="midnightblue" stroke="midnightblue" points="305.48,-250.29 313.63,-243.52 303.04,-243.73 305.48,-250.29"/>
</g>
<!-- Node20&#45;&gt;Node16 -->
<g id="edge37" class="edge">
<title>Node20&#45;&gt;Node16</title>
<path fill="none" stroke="midnightblue" d="M325.59,-224.37C301.94,-205.65 245.71,-161.15 216.24,-137.83"/>
<polygon fill="midnightblue" stroke="midnightblue" points="218.37,-135.05 208.36,-131.59 214.03,-140.54 218.37,-135.05"/>
</g>
<!-- Node21 -->
<g id="node21" class="node">
<title>Node21</title>
<g id="a_node21"><a xlink:href="MatrixFixSize_8h.html" target="_top" xlink:title=" ">
<polygon fill="none" stroke="black" points="305,-168.5 305,-187.5 468,-187.5 468,-168.5 305,-168.5"/>
<text text-anchor="middle" x="386.5" y="-175.5" font-family="FreeSans.ttf" font-size="10.00">iDynTree/Core/MatrixFixSize.h</text>
</a>
</g>
</g>
<!-- Node20&#45;&gt;Node21 -->
<g id="edge25" class="edge">
<title>Node20&#45;&gt;Node21</title>
<path fill="none" stroke="midnightblue" d="M344.76,-224.08C351.96,-216.3 362.61,-204.8 371.35,-195.37"/>
<polygon fill="midnightblue" stroke="midnightblue" points="374.17,-197.47 378.4,-187.75 369.03,-192.71 374.17,-197.47"/>
</g>
<!-- Node21&#45;&gt;Node4 -->
<g id="edge26" class="edge">
<title>Node21&#45;&gt;Node4</title>
<path fill="none" stroke="midnightblue" d="M387.13,-168.37C387.63,-154.34 386.37,-126.67 370.5,-112 341.53,-85.22 237.57,-74.29 166.37,-69.89"/>
<polygon fill="midnightblue" stroke="midnightblue" points="166.31,-66.38 156.12,-69.28 165.9,-73.36 166.31,-66.38"/>
</g>
<!-- Node21&#45;&gt;Node8 -->
<g id="edge32" class="edge">
<title>Node21&#45;&gt;Node8</title>
<path fill="none" stroke="midnightblue" d="M389.56,-168.22C393.51,-155.37 399.06,-130.92 391.5,-112 376.54,-74.55 340.36,-43.04 316.93,-25.62"/>
<polygon fill="midnightblue" stroke="midnightblue" points="318.81,-22.66 308.65,-19.65 314.72,-28.34 318.81,-22.66"/>
</g>
<!-- Node21&#45;&gt;Node16 -->
<g id="edge34" class="edge">
<title>Node21&#45;&gt;Node16</title>
<path fill="none" stroke="midnightblue" d="M356.2,-168.42C326.31,-159.94 279.07,-146.52 229.18,-132.19"/>
<polygon fill="midnightblue" stroke="midnightblue" points="230.09,-128.81 219.51,-129.41 228.15,-135.53 230.09,-128.81"/>
</g>
<!-- Node21&#45;&gt;Node17 -->
<g id="edge36" class="edge">
<title>Node21&#45;&gt;Node17</title>
<path fill="none" stroke="midnightblue" d="M367.33,-168.44C347.59,-159.64 316.61,-145.81 294.01,-135.72"/>
<polygon fill="midnightblue" stroke="midnightblue" points="295.14,-132.4 284.58,-131.52 292.29,-138.79 295.14,-132.4"/>
</g>
<!-- Node21&#45;&gt;Node18 -->
<g id="edge33" class="edge">
<title>Node21&#45;&gt;Node18</title>
<path fill="none" stroke="midnightblue" d="M378.24,-168.08C371.04,-160.3 360.39,-148.8 351.65,-139.37"/>
<polygon fill="midnightblue" stroke="midnightblue" points="353.97,-136.71 344.6,-131.75 348.83,-141.47 353.97,-136.71"/>
</g>
<!-- Node22 -->
<g id="node22" class="node">
<title>Node22</title>
<g id="a_node22"><a xlink:href="MatrixView_8h.html" target="_top" xlink:title=" ">
<polygon fill="none" stroke="black" points="455.5,-112.5 455.5,-131.5 607.5,-131.5 607.5,-112.5 455.5,-112.5"/>
<text text-anchor="middle" x="531.5" y="-119.5" font-family="FreeSans.ttf" font-size="10.00">iDynTree/Core/MatrixView.h</text>
</a>
</g>
</g>
<!-- Node21&#45;&gt;Node22 -->
<g id="edge27" class="edge">
<title>Node21&#45;&gt;Node22</title>
<path fill="none" stroke="midnightblue" d="M409.48,-168.44C433.66,-159.44 471.92,-145.19 499.15,-135.05"/>
<polygon fill="midnightblue" stroke="midnightblue" points="500.48,-138.29 508.63,-131.52 498.04,-131.73 500.48,-138.29"/>
</g>
<!-- Node23 -->
<g id="node23" class="node">
<title>Node23</title>
<g id="a_node23"><a xlink:title=" ">
<polygon fill="none" stroke="#bfbfbf" points="625.5,-112.5 625.5,-131.5 685.5,-131.5 685.5,-112.5 625.5,-112.5"/>
<text text-anchor="middle" x="655.5" y="-119.5" font-family="FreeSans.ttf" font-size="10.00">iostream</text>
</a>
</g>
</g>
<!-- Node21&#45;&gt;Node23 -->
<g id="edge35" class="edge">
<title>Node21&#45;&gt;Node23</title>
<path fill="none" stroke="midnightblue" d="M432.41,-168.49C476.72,-160.17 545.96,-146.89 615.09,-132.25"/>
<polygon fill="midnightblue" stroke="midnightblue" points="616.24,-135.58 625.29,-130.08 614.78,-128.74 616.24,-135.58"/>
</g>
<!-- Node22&#45;&gt;Node4 -->
<g id="edge31" class="edge">
<title>Node22&#45;&gt;Node4</title>
<path fill="none" stroke="midnightblue" d="M462.57,-112.44C381.47,-102.38 247.59,-85.76 166.17,-75.65"/>
<polygon fill="midnightblue" stroke="midnightblue" points="166.37,-72.15 156.02,-74.39 165.51,-79.09 166.37,-72.15"/>
</g>
<!-- Node22&#45;&gt;Node7 -->
<g id="edge30" class="edge">
<title>Node22&#45;&gt;Node7</title>
<path fill="none" stroke="midnightblue" d="M533.32,-112.08C534.77,-104.93 536.87,-94.64 538.69,-85.69"/>
<polygon fill="midnightblue" stroke="midnightblue" points="542.15,-86.25 540.72,-75.75 535.29,-84.85 542.15,-86.25"/>
</g>
<!-- Node22&#45;&gt;Node8 -->
<g id="edge28" class="edge">
<title>Node22&#45;&gt;Node8</title>
<path fill="none" stroke="midnightblue" d="M520.11,-112.42C501.8,-98.95 464.36,-72.66 429.5,-56 397.59,-40.76 359.15,-28.42 331.64,-20.54"/>
<polygon fill="midnightblue" stroke="midnightblue" points="332.24,-17.07 321.67,-17.74 330.35,-23.81 332.24,-17.07"/>
</g>
<!-- Node22&#45;&gt;Node14 -->
<g id="edge29" class="edge">
<title>Node22&#45;&gt;Node14</title>
<path fill="none" stroke="midnightblue" d="M552.29,-112.37C598.93,-93.01 712.03,-46.06 766.37,-23.51"/>
<polygon fill="midnightblue" stroke="midnightblue" points="767.91,-26.66 775.8,-19.59 765.22,-20.19 767.91,-26.66"/>
</g>
</g>
</svg>
