<?xml version="1.0" encoding="UTF-8" standalone="no"?>
<!DOCTYPE svg PUBLIC "-//W3C//DTD SVG 1.1//EN"
 "http://www.w3.org/Graphics/SVG/1.1/DTD/svg11.dtd">
<!-- Generated by graphviz version 2.43.0 (0)
 -->
<!-- Title: InertiaNonLinearParametrization.cpp Pages: 1 -->
<svg width="1563pt" height="677pt"
 viewBox="0.00 0.00 1562.71 677.00" xmlns="http://www.w3.org/2000/svg" xmlns:xlink="http://www.w3.org/1999/xlink">
<g id="graph0" class="graph" transform="scale(1 1) rotate(0) translate(4 673)">
<title>InertiaNonLinearParametrization.cpp</title>
<!-- Node1 -->
<g id="node1" class="node">
<title>Node1</title>
<g id="a_node1"><a xlink:title=" ">
<polygon fill="#bfbfbf" stroke="black" points="920.71,-649.5 920.71,-668.5 1115.71,-668.5 1115.71,-649.5 920.71,-649.5"/>
<text text-anchor="middle" x="1018.21" y="-656.5" font-family="FreeSans.ttf" font-size="10.00">InertiaNonLinearParametrization.cpp</text>
</a>
</g>
</g>
<!-- Node2 -->
<g id="node2" class="node">
<title>Node2</title>
<g id="a_node2"><a xlink:href="InertiaNonLinearParametrization_8h.html" target="_top" xlink:title=" ">
<polygon fill="none" stroke="black" points="674.71,-459.5 674.71,-489.5 813.71,-489.5 813.71,-459.5 674.71,-459.5"/>
<text text-anchor="start" x="682.71" y="-477.5" font-family="FreeSans.ttf" font-size="10.00">iDynTree/Core/InertiaNon</text>
<text text-anchor="middle" x="744.21" y="-466.5" font-family="FreeSans.ttf" font-size="10.00">LinearParametrization.h</text>
</a>
</g>
</g>
<!-- Node1&#45;&gt;Node2 -->
<g id="edge1" class="edge">
<title>Node1&#45;&gt;Node2</title>
<path fill="none" stroke="midnightblue" d="M1011.85,-649.27C994.47,-625.99 943.68,-561.75 887.21,-526 864.33,-511.52 836.75,-500.52 811.94,-492.55"/>
<polygon fill="midnightblue" stroke="midnightblue" points="812.82,-489.15 802.23,-489.53 810.74,-495.84 812.82,-489.15"/>
</g>
<!-- Node28 -->
<g id="node28" class="node">
<title>Node28</title>
<g id="a_node28"><a xlink:href="SpatialInertia_8h.html" target="_top" xlink:title=" ">
<polygon fill="none" stroke="black" points="349.21,-593.5 349.21,-612.5 511.21,-612.5 511.21,-593.5 349.21,-593.5"/>
<text text-anchor="middle" x="430.21" y="-600.5" font-family="FreeSans.ttf" font-size="10.00">iDynTree/Core/SpatialInertia.h</text>
</a>
</g>
</g>
<!-- Node1&#45;&gt;Node28 -->
<g id="edge50" class="edge">
<title>Node1&#45;&gt;Node28</title>
<path fill="none" stroke="midnightblue" d="M925.36,-649.47C814.74,-639.31 631.12,-622.45 521.28,-612.36"/>
<polygon fill="midnightblue" stroke="midnightblue" points="521.49,-608.87 511.21,-611.44 520.85,-615.84 521.49,-608.87"/>
</g>
<!-- Node38 -->
<g id="node38" class="node">
<title>Node38</title>
<g id="a_node38"><a xlink:title=" ">
<polygon fill="none" stroke="#bfbfbf" points="1427.71,-465 1427.71,-484 1504.71,-484 1504.71,-465 1427.71,-465"/>
<text text-anchor="middle" x="1466.21" y="-472" font-family="FreeSans.ttf" font-size="10.00">Eigen/Dense</text>
</a>
</g>
</g>
<!-- Node1&#45;&gt;Node38 -->
<g id="edge75" class="edge">
<title>Node1&#45;&gt;Node38</title>
<path fill="none" stroke="midnightblue" d="M1039.21,-649.44C1111.6,-619.96 1350.86,-522.49 1435.89,-487.85"/>
<polygon fill="midnightblue" stroke="midnightblue" points="1437.3,-491.05 1445.24,-484.04 1434.66,-484.57 1437.3,-491.05"/>
</g>
<!-- Node39 -->
<g id="node39" class="node">
<title>Node39</title>
<g id="a_node39"><a xlink:href="EigenHelpers_8h.html" target="_top" xlink:title=" ">
<polygon fill="none" stroke="black" points="1021.71,-532 1021.71,-551 1182.71,-551 1182.71,-532 1021.71,-532"/>
<text text-anchor="middle" x="1102.21" y="-539" font-family="FreeSans.ttf" font-size="10.00">iDynTree/Core/EigenHelpers.h</text>
</a>
</g>
</g>
<!-- Node1&#45;&gt;Node39 -->
<g id="edge76" class="edge">
<title>Node1&#45;&gt;Node39</title>
<path fill="none" stroke="midnightblue" d="M1024.52,-649.32C1038.38,-630.26 1071.7,-584.45 1089.87,-559.46"/>
<polygon fill="midnightblue" stroke="midnightblue" points="1092.77,-561.43 1095.82,-551.28 1087.11,-557.31 1092.77,-561.43"/>
</g>
<!-- Node3 -->
<g id="node3" class="node">
<title>Node3</title>
<g id="a_node3"><a xlink:href="VectorFixSize_8h.html" target="_top" xlink:title=" ">
<polygon fill="none" stroke="black" points="394.21,-168.5 394.21,-187.5 556.21,-187.5 556.21,-168.5 394.21,-168.5"/>
<text text-anchor="middle" x="475.21" y="-175.5" font-family="FreeSans.ttf" font-size="10.00">iDynTree/Core/VectorFixSize.h</text>
</a>
</g>
</g>
<!-- Node2&#45;&gt;Node3 -->
<g id="edge2" class="edge">
<title>Node2&#45;&gt;Node3</title>
<path fill="none" stroke="midnightblue" d="M674.59,-462.73C576.71,-445.59 410.21,-408.24 410.21,-352.5 410.21,-352.5 410.21,-352.5 410.21,-289 410.21,-258.9 413.72,-249.81 429.21,-224 435.98,-212.7 446.27,-202.27 455.41,-194.3"/>
<polygon fill="midnightblue" stroke="midnightblue" points="457.88,-196.79 463.33,-187.71 453.4,-191.41 457.88,-196.79"/>
</g>
<!-- Node19 -->
<g id="node19" class="node">
<title>Node19</title>
<g id="a_node19"><a xlink:href="Rotation_8h.html" target="_top" xlink:title=" ">
<polygon fill="none" stroke="black" points="650.21,-280.5 650.21,-299.5 788.21,-299.5 788.21,-280.5 650.21,-280.5"/>
<text text-anchor="middle" x="719.21" y="-287.5" font-family="FreeSans.ttf" font-size="10.00">iDynTree/Core/Rotation.h</text>
</a>
</g>
</g>
<!-- Node2&#45;&gt;Node19 -->
<g id="edge21" class="edge">
<title>Node2&#45;&gt;Node19</title>
<path fill="none" stroke="midnightblue" d="M742.29,-459.48C737.85,-427.1 726.88,-347.04 721.83,-310.16"/>
<polygon fill="midnightblue" stroke="midnightblue" points="725.24,-309.25 720.41,-299.82 718.3,-310.2 725.24,-309.25"/>
</g>
<!-- Node25 -->
<g id="node25" class="node">
<title>Node25</title>
<g id="a_node25"><a xlink:href="Transform_8h.html" target="_top" xlink:title=" ">
<polygon fill="none" stroke="black" points="759.21,-403.5 759.21,-422.5 905.21,-422.5 905.21,-403.5 759.21,-403.5"/>
<text text-anchor="middle" x="832.21" y="-410.5" font-family="FreeSans.ttf" font-size="10.00">iDynTree/Core/Transform.h</text>
</a>
</g>
</g>
<!-- Node2&#45;&gt;Node25 -->
<g id="edge40" class="edge">
<title>Node2&#45;&gt;Node25</title>
<path fill="none" stroke="midnightblue" d="M765.06,-459.4C778.9,-450.04 797.02,-437.79 810.94,-428.38"/>
<polygon fill="midnightblue" stroke="midnightblue" points="813.08,-431.16 819.4,-422.66 809.16,-425.36 813.08,-431.16"/>
</g>
<!-- Node4 -->
<g id="node4" class="node">
<title>Node4</title>
<g id="a_node4"><a xlink:href="Utils_8h.html" target="_top" xlink:title=" ">
<polygon fill="none" stroke="black" points="876.71,-56.5 876.71,-75.5 995.71,-75.5 995.71,-56.5 876.71,-56.5"/>
<text text-anchor="middle" x="936.21" y="-63.5" font-family="FreeSans.ttf" font-size="10.00">iDynTree/Core/Utils.h</text>
</a>
</g>
</g>
<!-- Node3&#45;&gt;Node4 -->
<g id="edge3" class="edge">
<title>Node3&#45;&gt;Node4</title>
<path fill="none" stroke="midnightblue" d="M507.98,-168.46C538.27,-160.23 584.33,-146.87 623.21,-132 642.89,-124.47 646.07,-118.23 666.21,-112 732.66,-91.43 811.4,-79.67 866.65,-73.37"/>
<polygon fill="midnightblue" stroke="midnightblue" points="867.13,-76.84 876.68,-72.26 866.35,-69.88 867.13,-76.84"/>
</g>
<!-- Node5 -->
<g id="node5" class="node">
<title>Node5</title>
<g id="a_node5"><a xlink:title=" ">
<polygon fill="none" stroke="#bfbfbf" points="990.71,-0.5 990.71,-19.5 1043.71,-19.5 1043.71,-0.5 990.71,-0.5"/>
<text text-anchor="middle" x="1017.21" y="-7.5" font-family="FreeSans.ttf" font-size="10.00">cstddef</text>
</a>
</g>
</g>
<!-- Node3&#45;&gt;Node5 -->
<g id="edge19" class="edge">
<title>Node3&#45;&gt;Node5</title>
<path fill="none" stroke="midnightblue" d="M481.9,-168.26C493.28,-154.08 517.82,-126.19 545.21,-112 718.12,-22.38 785.96,-63.06 980.53,-20.05"/>
<polygon fill="midnightblue" stroke="midnightblue" points="981.51,-23.41 990.5,-17.79 979.97,-16.58 981.51,-23.41"/>
</g>
<!-- Node7 -->
<g id="node7" class="node">
<title>Node7</title>
<g id="a_node7"><a xlink:href="Span_8h.html" target="_top" xlink:title=" ">
<polygon fill="none" stroke="black" points="1211.71,-56.5 1211.71,-75.5 1332.71,-75.5 1332.71,-56.5 1211.71,-56.5"/>
<text text-anchor="middle" x="1272.21" y="-63.5" font-family="FreeSans.ttf" font-size="10.00">iDynTree/Core/Span.h</text>
</a>
</g>
</g>
<!-- Node3&#45;&gt;Node7 -->
<g id="edge6" class="edge">
<title>Node3&#45;&gt;Node7</title>
<path fill="none" stroke="midnightblue" d="M522.57,-168.45C560.26,-160.94 613.98,-148.6 659.21,-132 677.86,-125.15 680.05,-117.32 699.21,-112 791.76,-86.28 1069.21,-73.8 1201.08,-69.18"/>
<polygon fill="midnightblue" stroke="midnightblue" points="1201.6,-72.67 1211.47,-68.83 1201.36,-65.67 1201.6,-72.67"/>
</g>
<!-- Node8 -->
<g id="node8" class="node">
<title>Node8</title>
<g id="a_node8"><a xlink:title=" ">
<polygon fill="none" stroke="#bfbfbf" points="822.21,-0.5 822.21,-19.5 874.21,-19.5 874.21,-0.5 822.21,-0.5"/>
<text text-anchor="middle" x="848.21" y="-7.5" font-family="FreeSans.ttf" font-size="10.00">cassert</text>
</a>
</g>
</g>
<!-- Node3&#45;&gt;Node8 -->
<g id="edge18" class="edge">
<title>Node3&#45;&gt;Node8</title>
<path fill="none" stroke="midnightblue" d="M462.83,-168.49C446.82,-156.37 422.22,-133.24 433.21,-112 452.97,-73.77 472.16,-71.76 512.21,-56 615.23,-15.46 748.28,-10.2 811.59,-10.26"/>
<polygon fill="midnightblue" stroke="midnightblue" points="811.84,-13.76 821.86,-10.32 811.88,-6.76 811.84,-13.76"/>
</g>
<!-- Node16 -->
<g id="node16" class="node">
<title>Node16</title>
<g id="a_node16"><a xlink:title=" ">
<polygon fill="none" stroke="#bfbfbf" points="776.21,-112.5 776.21,-131.5 820.21,-131.5 820.21,-112.5 776.21,-112.5"/>
<text text-anchor="middle" x="798.21" y="-119.5" font-family="FreeSans.ttf" font-size="10.00">string</text>
</a>
</g>
</g>
<!-- Node3&#45;&gt;Node16 -->
<g id="edge16" class="edge">
<title>Node3&#45;&gt;Node16</title>
<path fill="none" stroke="midnightblue" d="M547.69,-168.49C604.64,-161.19 686.07,-149.41 765.73,-132.09"/>
<polygon fill="midnightblue" stroke="midnightblue" points="766.93,-135.41 775.94,-129.84 765.42,-128.58 766.93,-135.41"/>
</g>
<!-- Node17 -->
<g id="node17" class="node">
<title>Node17</title>
<g id="a_node17"><a xlink:title=" ">
<polygon fill="none" stroke="#bfbfbf" points="442.21,-112.5 442.21,-131.5 498.21,-131.5 498.21,-112.5 442.21,-112.5"/>
<text text-anchor="middle" x="470.21" y="-119.5" font-family="FreeSans.ttf" font-size="10.00">sstream</text>
</a>
</g>
</g>
<!-- Node3&#45;&gt;Node17 -->
<g id="edge17" class="edge">
<title>Node3&#45;&gt;Node17</title>
<path fill="none" stroke="midnightblue" d="M474.38,-168.08C473.72,-161.01 472.79,-150.86 471.96,-141.99"/>
<polygon fill="midnightblue" stroke="midnightblue" points="475.42,-141.39 471.02,-131.75 468.45,-142.03 475.42,-141.39"/>
</g>
<!-- Node18 -->
<g id="node18" class="node">
<title>Node18</title>
<g id="a_node18"><a xlink:title=" ">
<polygon fill="none" stroke="#bfbfbf" points="708.21,-112.5 708.21,-131.5 758.21,-131.5 758.21,-112.5 708.21,-112.5"/>
<text text-anchor="middle" x="733.21" y="-119.5" font-family="FreeSans.ttf" font-size="10.00">cstring</text>
</a>
</g>
</g>
<!-- Node3&#45;&gt;Node18 -->
<g id="edge20" class="edge">
<title>Node3&#45;&gt;Node18</title>
<path fill="none" stroke="midnightblue" d="M518.49,-168.43C562.71,-159.59 633.34,-145.27 694.21,-132 695.47,-131.73 696.75,-131.44 698.04,-131.16"/>
<polygon fill="midnightblue" stroke="midnightblue" points="699.07,-134.51 708.05,-128.9 697.53,-127.68 699.07,-134.51"/>
</g>
<!-- Node4&#45;&gt;Node5 -->
<g id="edge4" class="edge">
<title>Node4&#45;&gt;Node5</title>
<path fill="none" stroke="midnightblue" d="M949.22,-56.32C961.74,-47.98 980.89,-35.21 995.68,-25.35"/>
<polygon fill="midnightblue" stroke="midnightblue" points="997.84,-28.11 1004.22,-19.65 993.96,-22.29 997.84,-28.11"/>
</g>
<!-- Node6 -->
<g id="node6" class="node">
<title>Node6</title>
<g id="a_node6"><a xlink:title=" ">
<polygon fill="none" stroke="#bfbfbf" points="892.21,-0.5 892.21,-19.5 972.21,-19.5 972.21,-0.5 892.21,-0.5"/>
<text text-anchor="middle" x="932.21" y="-7.5" font-family="FreeSans.ttf" font-size="10.00">CoreExport.h</text>
</a>
</g>
</g>
<!-- Node4&#45;&gt;Node6 -->
<g id="edge5" class="edge">
<title>Node4&#45;&gt;Node6</title>
<path fill="none" stroke="midnightblue" d="M935.55,-56.08C935.02,-49.01 934.27,-38.86 933.61,-29.99"/>
<polygon fill="midnightblue" stroke="midnightblue" points="937.08,-29.47 932.85,-19.75 930.1,-29.98 937.08,-29.47"/>
</g>
<!-- Node7&#45;&gt;Node5 -->
<g id="edge10" class="edge">
<title>Node7&#45;&gt;Node5</title>
<path fill="none" stroke="midnightblue" d="M1228.04,-56.5C1185.81,-48.23 1120.09,-35.05 1053.71,-20.04"/>
<polygon fill="midnightblue" stroke="midnightblue" points="1054.44,-16.61 1043.91,-17.81 1052.89,-23.44 1054.44,-16.61"/>
</g>
<!-- Node7&#45;&gt;Node8 -->
<g id="edge7" class="edge">
<title>Node7&#45;&gt;Node8</title>
<path fill="none" stroke="midnightblue" d="M1211.52,-60.56C1136.75,-54.52 1005.76,-42.07 884.68,-20.05"/>
<polygon fill="midnightblue" stroke="midnightblue" points="884.96,-16.54 874.49,-18.17 883.69,-23.43 884.96,-16.54"/>
</g>
<!-- Node9 -->
<g id="node9" class="node">
<title>Node9</title>
<g id="a_node9"><a xlink:title=" ">
<polygon fill="none" stroke="#bfbfbf" points="1403.21,-0.5 1403.21,-19.5 1467.21,-19.5 1467.21,-0.5 1403.21,-0.5"/>
<text text-anchor="middle" x="1435.21" y="-7.5" font-family="FreeSans.ttf" font-size="10.00">algorithm</text>
</a>
</g>
</g>
<!-- Node7&#45;&gt;Node9 -->
<g id="edge8" class="edge">
<title>Node7&#45;&gt;Node9</title>
<path fill="none" stroke="midnightblue" d="M1298.03,-56.44C1325.46,-47.36 1368.98,-32.94 1399.64,-22.78"/>
<polygon fill="midnightblue" stroke="midnightblue" points="1401.11,-25.98 1409.5,-19.52 1398.91,-19.34 1401.11,-25.98"/>
</g>
<!-- Node10 -->
<g id="node10" class="node">
<title>Node10</title>
<g id="a_node10"><a xlink:title=" ">
<polygon fill="none" stroke="#bfbfbf" points="1062.21,-0.5 1062.21,-19.5 1104.21,-19.5 1104.21,-0.5 1062.21,-0.5"/>
<text text-anchor="middle" x="1083.21" y="-7.5" font-family="FreeSans.ttf" font-size="10.00">array</text>
</a>
</g>
</g>
<!-- Node7&#45;&gt;Node10 -->
<g id="edge9" class="edge">
<title>Node7&#45;&gt;Node10</title>
<path fill="none" stroke="midnightblue" d="M1241.9,-56.42C1210.09,-47.4 1158.61,-32.77 1114.21,-20 1114.1,-19.97 1114,-19.94 1113.9,-19.91"/>
<polygon fill="midnightblue" stroke="midnightblue" points="1114.79,-16.53 1104.21,-17.11 1112.85,-23.25 1114.79,-16.53"/>
</g>
<!-- Node11 -->
<g id="node11" class="node">
<title>Node11</title>
<g id="a_node11"><a xlink:title=" ">
<polygon fill="none" stroke="#bfbfbf" points="1122.71,-0.5 1122.71,-19.5 1175.71,-19.5 1175.71,-0.5 1122.71,-0.5"/>
<text text-anchor="middle" x="1149.21" y="-7.5" font-family="FreeSans.ttf" font-size="10.00">iterator</text>
</a>
</g>
</g>
<!-- Node7&#45;&gt;Node11 -->
<g id="edge11" class="edge">
<title>Node7&#45;&gt;Node11</title>
<path fill="none" stroke="midnightblue" d="M1252.72,-56.44C1232.56,-47.6 1200.88,-33.69 1177.87,-23.59"/>
<polygon fill="midnightblue" stroke="midnightblue" points="1179.17,-20.33 1168.6,-19.52 1176.35,-26.74 1179.17,-20.33"/>
</g>
<!-- Node12 -->
<g id="node12" class="node">
<title>Node12</title>
<g id="a_node12"><a xlink:title=" ">
<polygon fill="none" stroke="#bfbfbf" points="1194.21,-0.5 1194.21,-19.5 1238.21,-19.5 1238.21,-0.5 1194.21,-0.5"/>
<text text-anchor="middle" x="1216.21" y="-7.5" font-family="FreeSans.ttf" font-size="10.00">limits</text>
</a>
</g>
</g>
<!-- Node7&#45;&gt;Node12 -->
<g id="edge12" class="edge">
<title>Node7&#45;&gt;Node12</title>
<path fill="none" stroke="midnightblue" d="M1263.21,-56.32C1255.01,-48.42 1242.7,-36.55 1232.73,-26.94"/>
<polygon fill="midnightblue" stroke="midnightblue" points="1234.99,-24.26 1225.37,-19.83 1230.14,-29.29 1234.99,-24.26"/>
</g>
<!-- Node13 -->
<g id="node13" class="node">
<title>Node13</title>
<g id="a_node13"><a xlink:title=" ">
<polygon fill="none" stroke="#bfbfbf" points="1256.71,-0.5 1256.71,-19.5 1321.71,-19.5 1321.71,-0.5 1256.71,-0.5"/>
<text text-anchor="middle" x="1289.21" y="-7.5" font-family="FreeSans.ttf" font-size="10.00">stdexcept</text>
</a>
</g>
</g>
<!-- Node7&#45;&gt;Node13 -->
<g id="edge13" class="edge">
<title>Node7&#45;&gt;Node13</title>
<path fill="none" stroke="midnightblue" d="M1275.01,-56.08C1277.29,-48.85 1280.58,-38.41 1283.41,-29.4"/>
<polygon fill="midnightblue" stroke="midnightblue" points="1286.79,-30.34 1286.45,-19.75 1280.11,-28.24 1286.79,-30.34"/>
</g>
<!-- Node14 -->
<g id="node14" class="node">
<title>Node14</title>
<g id="a_node14"><a xlink:title=" ">
<polygon fill="none" stroke="#bfbfbf" points="1485.71,-0.5 1485.71,-19.5 1554.71,-19.5 1554.71,-0.5 1485.71,-0.5"/>
<text text-anchor="middle" x="1520.21" y="-7.5" font-family="FreeSans.ttf" font-size="10.00">type_traits</text>
</a>
</g>
</g>
<!-- Node7&#45;&gt;Node14 -->
<g id="edge14" class="edge">
<title>Node7&#45;&gt;Node14</title>
<path fill="none" stroke="midnightblue" d="M1311.5,-56.44C1356.16,-46.72 1428.91,-30.88 1475.65,-20.7"/>
<polygon fill="midnightblue" stroke="midnightblue" points="1476.47,-24.11 1485.49,-18.56 1474.98,-17.27 1476.47,-24.11"/>
</g>
<!-- Node15 -->
<g id="node15" class="node">
<title>Node15</title>
<g id="a_node15"><a xlink:title=" ">
<polygon fill="none" stroke="#bfbfbf" points="1339.71,-0.5 1339.71,-19.5 1384.71,-19.5 1384.71,-0.5 1339.71,-0.5"/>
<text text-anchor="middle" x="1362.21" y="-7.5" font-family="FreeSans.ttf" font-size="10.00">utility</text>
</a>
</g>
</g>
<!-- Node7&#45;&gt;Node15 -->
<g id="edge15" class="edge">
<title>Node7&#45;&gt;Node15</title>
<path fill="none" stroke="midnightblue" d="M1286.67,-56.32C1300.71,-47.9 1322.25,-34.97 1338.75,-25.07"/>
<polygon fill="midnightblue" stroke="midnightblue" points="1341.01,-27.8 1347.78,-19.65 1337.41,-21.8 1341.01,-27.8"/>
</g>
<!-- Node19&#45;&gt;Node3 -->
<g id="edge39" class="edge">
<title>Node19&#45;&gt;Node3</title>
<path fill="none" stroke="midnightblue" d="M705.68,-280.4C684.44,-267.14 641.7,-241.4 603.21,-224 573.93,-210.77 539.51,-198.86 513.75,-190.63"/>
<polygon fill="midnightblue" stroke="midnightblue" points="514.56,-187.21 503.97,-187.55 512.46,-193.89 514.56,-187.21"/>
</g>
<!-- Node19&#45;&gt;Node16 -->
<g id="edge22" class="edge">
<title>Node19&#45;&gt;Node16</title>
<path fill="none" stroke="midnightblue" d="M719.21,-280.4C719.58,-259.58 722.81,-205.43 745.21,-168 752.47,-155.86 764.19,-145.41 774.76,-137.64"/>
<polygon fill="midnightblue" stroke="midnightblue" points="777.02,-140.33 783.25,-131.77 773.04,-134.58 777.02,-140.33"/>
</g>
<!-- Node20 -->
<g id="node20" class="node">
<title>Node20</title>
<g id="a_node20"><a xlink:href="GeomVector3_8h.html" target="_top" xlink:title=" ">
<polygon fill="none" stroke="black" points="180.71,-224.5 180.71,-243.5 343.71,-243.5 343.71,-224.5 180.71,-224.5"/>
<text text-anchor="middle" x="262.21" y="-231.5" font-family="FreeSans.ttf" font-size="10.00">iDynTree/Core/GeomVector3.h</text>
</a>
</g>
</g>
<!-- Node19&#45;&gt;Node20 -->
<g id="edge23" class="edge">
<title>Node19&#45;&gt;Node20</title>
<path fill="none" stroke="midnightblue" d="M649.8,-280.8C567.77,-271.11 431.45,-255 344.27,-244.7"/>
<polygon fill="midnightblue" stroke="midnightblue" points="344.5,-241.2 334.16,-243.5 343.68,-248.15 344.5,-241.2"/>
</g>
<!-- Node21 -->
<g id="node21" class="node">
<title>Node21</title>
<g id="a_node21"><a xlink:href="RotationRaw_8h.html" target="_top" xlink:title=" ">
<polygon fill="none" stroke="black" points="764.21,-224.5 764.21,-243.5 922.21,-243.5 922.21,-224.5 764.21,-224.5"/>
<text text-anchor="middle" x="843.21" y="-231.5" font-family="FreeSans.ttf" font-size="10.00">iDynTree/Core/RotationRaw.h</text>
</a>
</g>
</g>
<!-- Node19&#45;&gt;Node21 -->
<g id="edge25" class="edge">
<title>Node19&#45;&gt;Node21</title>
<path fill="none" stroke="midnightblue" d="M738.85,-280.44C759.17,-271.6 791.11,-257.69 814.3,-247.59"/>
<polygon fill="midnightblue" stroke="midnightblue" points="815.88,-250.72 823.65,-243.52 813.08,-244.3 815.88,-250.72"/>
</g>
<!-- Node20&#45;&gt;Node3 -->
<g id="edge24" class="edge">
<title>Node20&#45;&gt;Node3</title>
<path fill="none" stroke="midnightblue" d="M295.96,-224.44C332.72,-215.12 391.65,-200.18 431.83,-190"/>
<polygon fill="midnightblue" stroke="midnightblue" points="432.78,-193.37 441.61,-187.52 431.06,-186.58 432.78,-193.37"/>
</g>
<!-- Node21&#45;&gt;Node16 -->
<g id="edge38" class="edge">
<title>Node21&#45;&gt;Node16</title>
<path fill="none" stroke="midnightblue" d="M806.1,-224.46C786.76,-217.92 764.78,-206.72 753.21,-188 742.27,-170.3 760.06,-150.77 776.39,-137.79"/>
<polygon fill="midnightblue" stroke="midnightblue" points="778.72,-140.42 784.64,-131.64 774.53,-134.81 778.72,-140.42"/>
</g>
<!-- Node22 -->
<g id="node22" class="node">
<title>Node22</title>
<g id="a_node22"><a xlink:href="MatrixFixSize_8h.html" target="_top" xlink:title=" ">
<polygon fill="none" stroke="black" points="761.71,-168.5 761.71,-187.5 924.71,-187.5 924.71,-168.5 761.71,-168.5"/>
<text text-anchor="middle" x="843.21" y="-175.5" font-family="FreeSans.ttf" font-size="10.00">iDynTree/Core/MatrixFixSize.h</text>
</a>
</g>
</g>
<!-- Node21&#45;&gt;Node22 -->
<g id="edge26" class="edge">
<title>Node21&#45;&gt;Node22</title>
<path fill="none" stroke="midnightblue" d="M843.21,-224.08C843.21,-217.01 843.21,-206.86 843.21,-197.99"/>
<polygon fill="midnightblue" stroke="midnightblue" points="846.71,-197.75 843.21,-187.75 839.71,-197.75 846.71,-197.75"/>
</g>
<!-- Node22&#45;&gt;Node4 -->
<g id="edge27" class="edge">
<title>Node22&#45;&gt;Node4</title>
<path fill="none" stroke="midnightblue" d="M850.5,-168.37C865.99,-150.05 902.35,-107.05 922.37,-83.36"/>
<polygon fill="midnightblue" stroke="midnightblue" points="925.16,-85.49 928.94,-75.59 919.81,-80.97 925.16,-85.49"/>
</g>
<!-- Node22&#45;&gt;Node8 -->
<g id="edge33" class="edge">
<title>Node22&#45;&gt;Node8</title>
<path fill="none" stroke="midnightblue" d="M843.47,-168.08C844.26,-141.95 846.57,-65.21 847.65,-29.58"/>
<polygon fill="midnightblue" stroke="midnightblue" points="851.14,-29.67 847.95,-19.57 844.15,-29.46 851.14,-29.67"/>
</g>
<!-- Node22&#45;&gt;Node16 -->
<g id="edge35" class="edge">
<title>Node22&#45;&gt;Node16</title>
<path fill="none" stroke="midnightblue" d="M835.77,-168.08C829.35,-160.38 819.9,-149.03 812.08,-139.65"/>
<polygon fill="midnightblue" stroke="midnightblue" points="814.59,-137.19 805.5,-131.75 809.21,-141.67 814.59,-137.19"/>
</g>
<!-- Node22&#45;&gt;Node17 -->
<g id="edge37" class="edge">
<title>Node22&#45;&gt;Node17</title>
<path fill="none" stroke="midnightblue" d="M784.1,-168.44C706.85,-157.26 573.74,-137.99 508.5,-128.54"/>
<polygon fill="midnightblue" stroke="midnightblue" points="508.66,-125.03 498.26,-127.06 507.65,-131.96 508.66,-125.03"/>
</g>
<!-- Node22&#45;&gt;Node18 -->
<g id="edge34" class="edge">
<title>Node22&#45;&gt;Node18</title>
<path fill="none" stroke="midnightblue" d="M825.53,-168.32C807.81,-159.62 780.3,-146.12 759.92,-136.11"/>
<polygon fill="midnightblue" stroke="midnightblue" points="761.35,-132.92 750.84,-131.65 758.27,-139.2 761.35,-132.92"/>
</g>
<!-- Node23 -->
<g id="node23" class="node">
<title>Node23</title>
<g id="a_node23"><a xlink:href="MatrixView_8h.html" target="_top" xlink:title=" ">
<polygon fill="none" stroke="black" points="1092.21,-112.5 1092.21,-131.5 1244.21,-131.5 1244.21,-112.5 1092.21,-112.5"/>
<text text-anchor="middle" x="1168.21" y="-119.5" font-family="FreeSans.ttf" font-size="10.00">iDynTree/Core/MatrixView.h</text>
</a>
</g>
</g>
<!-- Node22&#45;&gt;Node23 -->
<g id="edge28" class="edge">
<title>Node22&#45;&gt;Node23</title>
<path fill="none" stroke="midnightblue" d="M894.7,-168.44C952.35,-158.87 1045.7,-143.36 1107.02,-133.17"/>
<polygon fill="midnightblue" stroke="midnightblue" points="1107.66,-136.61 1116.95,-131.52 1106.51,-129.7 1107.66,-136.61"/>
</g>
<!-- Node24 -->
<g id="node24" class="node">
<title>Node24</title>
<g id="a_node24"><a xlink:title=" ">
<polygon fill="none" stroke="#bfbfbf" points="554.21,-112.5 554.21,-131.5 614.21,-131.5 614.21,-112.5 554.21,-112.5"/>
<text text-anchor="middle" x="584.21" y="-119.5" font-family="FreeSans.ttf" font-size="10.00">iostream</text>
</a>
</g>
</g>
<!-- Node22&#45;&gt;Node24 -->
<g id="edge36" class="edge">
<title>Node22&#45;&gt;Node24</title>
<path fill="none" stroke="midnightblue" d="M802.17,-168.44C753.43,-158.28 672.67,-141.44 624.33,-131.37"/>
<polygon fill="midnightblue" stroke="midnightblue" points="625.04,-127.94 614.53,-129.32 623.61,-134.79 625.04,-127.94"/>
</g>
<!-- Node23&#45;&gt;Node4 -->
<g id="edge32" class="edge">
<title>Node23&#45;&gt;Node4</title>
<path fill="none" stroke="midnightblue" d="M1131.44,-112.44C1091.14,-103.06 1026.4,-87.99 982.62,-77.8"/>
<polygon fill="midnightblue" stroke="midnightblue" points="983.33,-74.37 972.79,-75.52 981.74,-81.19 983.33,-74.37"/>
</g>
<!-- Node23&#45;&gt;Node7 -->
<g id="edge31" class="edge">
<title>Node23&#45;&gt;Node7</title>
<path fill="none" stroke="midnightblue" d="M1184.92,-112.32C1201.52,-103.7 1227.21,-90.36 1246.43,-80.39"/>
<polygon fill="midnightblue" stroke="midnightblue" points="1248.28,-83.37 1255.54,-75.65 1245.05,-77.16 1248.28,-83.37"/>
</g>
<!-- Node23&#45;&gt;Node8 -->
<g id="edge29" class="edge">
<title>Node23&#45;&gt;Node8</title>
<path fill="none" stroke="midnightblue" d="M1148.37,-112.34C1117.92,-99.22 1057.67,-73.93 1005.21,-56 982.92,-48.38 923.42,-31.7 884.41,-20.92"/>
<polygon fill="midnightblue" stroke="midnightblue" points="885.05,-17.47 874.48,-18.19 883.19,-24.22 885.05,-17.47"/>
</g>
<!-- Node23&#45;&gt;Node14 -->
<g id="edge30" class="edge">
<title>Node23&#45;&gt;Node14</title>
<path fill="none" stroke="midnightblue" d="M1205.5,-112.46C1240.93,-104.09 1295.58,-90.51 1342.21,-76 1394.39,-59.77 1453.79,-37.23 1489.08,-23.41"/>
<polygon fill="midnightblue" stroke="midnightblue" points="1490.77,-26.51 1498.79,-19.59 1488.2,-19.99 1490.77,-26.51"/>
</g>
<!-- Node25&#45;&gt;Node16 -->
<g id="edge49" class="edge">
<title>Node25&#45;&gt;Node16</title>
<path fill="none" stroke="midnightblue" d="M838.65,-403.21C861.97,-371.31 940.91,-262.47 946.21,-244 948.66,-235.46 947.14,-232.84 946.21,-224 943.52,-198.69 951.2,-186.95 934.21,-168 907.84,-138.61 861.86,-128.36 830.74,-124.82"/>
<polygon fill="midnightblue" stroke="midnightblue" points="830.7,-121.3 820.41,-123.83 830.03,-128.27 830.7,-121.3"/>
</g>
<!-- Node25&#45;&gt;Node19 -->
<g id="edge47" class="edge">
<title>Node25&#45;&gt;Node19</title>
<path fill="none" stroke="midnightblue" d="M824.08,-403.3C805.27,-383.15 758.48,-333.06 734.26,-307.12"/>
<polygon fill="midnightblue" stroke="midnightblue" points="736.64,-304.54 727.26,-299.62 731.53,-309.32 736.64,-304.54"/>
</g>
<!-- Node25&#45;&gt;Node22 -->
<g id="edge48" class="edge">
<title>Node25&#45;&gt;Node22</title>
<path fill="none" stroke="midnightblue" d="M833.87,-403.14C836.85,-388.51 843.98,-358.65 856.21,-336 881.26,-289.58 913.51,-293.7 931.21,-244 934.19,-235.63 935.84,-231.58 931.21,-224 921.7,-208.46 904.94,-198.07 888.59,-191.23"/>
<polygon fill="midnightblue" stroke="midnightblue" points="889.65,-187.89 879.06,-187.6 887.16,-194.43 889.65,-187.89"/>
</g>
<!-- Node26 -->
<g id="node26" class="node">
<title>Node26</title>
<g id="a_node26"><a xlink:href="Position_8h.html" target="_top" xlink:title=" ">
<polygon fill="none" stroke="black" points="529.21,-342 529.21,-361 665.21,-361 665.21,-342 529.21,-342"/>
<text text-anchor="middle" x="597.21" y="-349" font-family="FreeSans.ttf" font-size="10.00">iDynTree/Core/Position.h</text>
</a>
</g>
</g>
<!-- Node25&#45;&gt;Node26 -->
<g id="edge41" class="edge">
<title>Node25&#45;&gt;Node26</title>
<path fill="none" stroke="midnightblue" d="M798.54,-403.48C757,-392.96 686.31,-375.06 640.71,-363.51"/>
<polygon fill="midnightblue" stroke="midnightblue" points="641.37,-360.07 630.81,-361.01 639.65,-366.86 641.37,-360.07"/>
</g>
<!-- Node26&#45;&gt;Node16 -->
<g id="edge46" class="edge">
<title>Node26&#45;&gt;Node16</title>
<path fill="none" stroke="midnightblue" d="M601.9,-341.98C617.5,-314.26 670.12,-225.08 732.21,-168 745.02,-156.22 761.14,-145.17 774.24,-136.97"/>
<polygon fill="midnightblue" stroke="midnightblue" points="776.44,-139.73 783.15,-131.53 772.79,-133.75 776.44,-139.73"/>
</g>
<!-- Node26&#45;&gt;Node19 -->
<g id="edge45" class="edge">
<title>Node26&#45;&gt;Node19</title>
<path fill="none" stroke="midnightblue" d="M614.69,-341.98C635.07,-332.03 668.98,-315.49 692.63,-303.96"/>
<polygon fill="midnightblue" stroke="midnightblue" points="694.3,-307.04 701.76,-299.51 691.24,-300.75 694.3,-307.04"/>
</g>
<!-- Node27 -->
<g id="node27" class="node">
<title>Node27</title>
<g id="a_node27"><a xlink:href="PositionRaw_8h.html" target="_top" xlink:title=" ">
<polygon fill="none" stroke="black" points="438.21,-224.5 438.21,-243.5 594.21,-243.5 594.21,-224.5 438.21,-224.5"/>
<text text-anchor="middle" x="516.21" y="-231.5" font-family="FreeSans.ttf" font-size="10.00">iDynTree/Core/PositionRaw.h</text>
</a>
</g>
</g>
<!-- Node26&#45;&gt;Node27 -->
<g id="edge42" class="edge">
<title>Node26&#45;&gt;Node27</title>
<path fill="none" stroke="midnightblue" d="M591.12,-341.82C577.81,-322.84 545.9,-277.35 528.33,-252.29"/>
<polygon fill="midnightblue" stroke="midnightblue" points="530.97,-249.96 522.36,-243.78 525.24,-253.98 530.97,-249.96"/>
</g>
<!-- Node27&#45;&gt;Node3 -->
<g id="edge43" class="edge">
<title>Node27&#45;&gt;Node3</title>
<path fill="none" stroke="midnightblue" d="M509.44,-224.08C503.64,-216.46 495.15,-205.26 488.07,-195.94"/>
<polygon fill="midnightblue" stroke="midnightblue" points="490.68,-193.6 481.85,-187.75 485.11,-197.83 490.68,-193.6"/>
</g>
<!-- Node27&#45;&gt;Node16 -->
<g id="edge44" class="edge">
<title>Node27&#45;&gt;Node16</title>
<path fill="none" stroke="midnightblue" d="M525.63,-224.4C541.47,-210.4 574.98,-182.79 608.21,-168 671.55,-139.8 695.02,-149.19 766.04,-132.12"/>
<polygon fill="midnightblue" stroke="midnightblue" points="767.05,-135.47 775.9,-129.65 765.35,-128.68 767.05,-135.47"/>
</g>
<!-- Node28&#45;&gt;Node3 -->
<g id="edge54" class="edge">
<title>Node28&#45;&gt;Node3</title>
<path fill="none" stroke="midnightblue" d="M348.89,-598.05C236.62,-591.84 45.19,-578.27 21.21,-557 -6.62,-532.32 2.21,-512.69 2.21,-475.5 2.21,-475.5 2.21,-475.5 2.21,-350.5 2.21,-264.64 70,-259.43 148.21,-224 189,-205.52 301.9,-192.83 383.63,-185.75"/>
<polygon fill="midnightblue" stroke="midnightblue" points="384.27,-189.21 393.94,-184.87 383.68,-182.23 384.27,-189.21"/>
</g>
<!-- Node29 -->
<g id="node29" class="node">
<title>Node29</title>
<g id="a_node29"><a xlink:href="SpatialInertiaRaw_8h.html" target="_top" xlink:title=" ">
<polygon fill="none" stroke="black" points="724.71,-526.5 724.71,-556.5 877.71,-556.5 877.71,-526.5 724.71,-526.5"/>
<text text-anchor="start" x="732.71" y="-544.5" font-family="FreeSans.ttf" font-size="10.00">iDynTree/Core/SpatialInertia</text>
<text text-anchor="middle" x="801.21" y="-533.5" font-family="FreeSans.ttf" font-size="10.00">Raw.h</text>
</a>
</g>
</g>
<!-- Node28&#45;&gt;Node29 -->
<g id="edge51" class="edge">
<title>Node28&#45;&gt;Node29</title>
<path fill="none" stroke="midnightblue" d="M483.36,-593.48C543.74,-583.79 643.14,-567.85 714.72,-556.37"/>
<polygon fill="midnightblue" stroke="midnightblue" points="715.3,-559.82 724.62,-554.78 714.2,-552.91 715.3,-559.82"/>
</g>
<!-- Node31 -->
<g id="node31" class="node">
<title>Node31</title>
<g id="a_node31"><a xlink:href="Twist_8h.html" target="_top" xlink:title=" ">
<polygon fill="none" stroke="black" points="196.21,-532 196.21,-551 318.21,-551 318.21,-532 196.21,-532"/>
<text text-anchor="middle" x="257.21" y="-539" font-family="FreeSans.ttf" font-size="10.00">iDynTree/Core/Twist.h</text>
</a>
</g>
</g>
<!-- Node28&#45;&gt;Node31 -->
<g id="edge55" class="edge">
<title>Node28&#45;&gt;Node31</title>
<path fill="none" stroke="midnightblue" d="M405.42,-593.48C375.61,-583.22 325.41,-565.96 291.8,-554.4"/>
<polygon fill="midnightblue" stroke="midnightblue" points="292.54,-550.95 281.95,-551.01 290.26,-557.57 292.54,-550.95"/>
</g>
<!-- Node34 -->
<g id="node34" class="node">
<title>Node34</title>
<g id="a_node34"><a xlink:href="SpatialMomentum_8h.html" target="_top" xlink:title=" ">
<polygon fill="none" stroke="black" points="336.71,-532 336.71,-551 523.71,-551 523.71,-532 336.71,-532"/>
<text text-anchor="middle" x="430.21" y="-539" font-family="FreeSans.ttf" font-size="10.00">iDynTree/Core/SpatialMomentum.h</text>
</a>
</g>
</g>
<!-- Node28&#45;&gt;Node34 -->
<g id="edge66" class="edge">
<title>Node28&#45;&gt;Node34</title>
<path fill="none" stroke="midnightblue" d="M430.21,-593.48C430.21,-585.08 430.21,-571.98 430.21,-561.16"/>
<polygon fill="midnightblue" stroke="midnightblue" points="433.71,-561.01 430.21,-551.01 426.71,-561.01 433.71,-561.01"/>
</g>
<!-- Node36 -->
<g id="node36" class="node">
<title>Node36</title>
<g id="a_node36"><a xlink:href="SpatialAcc_8h.html" target="_top" xlink:title=" ">
<polygon fill="none" stroke="black" points="30.21,-532 30.21,-551 178.21,-551 178.21,-532 30.21,-532"/>
<text text-anchor="middle" x="104.21" y="-539" font-family="FreeSans.ttf" font-size="10.00">iDynTree/Core/SpatialAcc.h</text>
</a>
</g>
</g>
<!-- Node28&#45;&gt;Node36 -->
<g id="edge71" class="edge">
<title>Node28&#45;&gt;Node36</title>
<path fill="none" stroke="midnightblue" d="M383.5,-593.48C324.79,-582.76 224.1,-564.38 161,-552.87"/>
<polygon fill="midnightblue" stroke="midnightblue" points="161.29,-549.36 150.83,-551.01 160.04,-556.25 161.29,-549.36"/>
</g>
<!-- Node37 -->
<g id="node37" class="node">
<title>Node37</title>
<g id="a_node37"><a xlink:href="Wrench_8h.html" target="_top" xlink:title=" ">
<polygon fill="none" stroke="black" points="542.21,-532 542.21,-551 676.21,-551 676.21,-532 542.21,-532"/>
<text text-anchor="middle" x="609.21" y="-539" font-family="FreeSans.ttf" font-size="10.00">iDynTree/Core/Wrench.h</text>
</a>
</g>
</g>
<!-- Node28&#45;&gt;Node37 -->
<g id="edge73" class="edge">
<title>Node28&#45;&gt;Node37</title>
<path fill="none" stroke="midnightblue" d="M455.85,-593.48C486.82,-583.18 539.08,-565.81 573.86,-554.25"/>
<polygon fill="midnightblue" stroke="midnightblue" points="575.22,-557.48 583.61,-551.01 573.01,-550.84 575.22,-557.48"/>
</g>
<!-- Node30 -->
<g id="node30" class="node">
<title>Node30</title>
<g id="a_node30"><a xlink:href="RotationalInertiaRaw_8h.html" target="_top" xlink:title=" ">
<polygon fill="none" stroke="black" points="898.21,-336.5 898.21,-366.5 1036.21,-366.5 1036.21,-336.5 898.21,-336.5"/>
<text text-anchor="start" x="906.21" y="-354.5" font-family="FreeSans.ttf" font-size="10.00">iDynTree/Core/Rotational</text>
<text text-anchor="middle" x="967.21" y="-343.5" font-family="FreeSans.ttf" font-size="10.00">InertiaRaw.h</text>
</a>
</g>
</g>
<!-- Node29&#45;&gt;Node30 -->
<g id="edge52" class="edge">
<title>Node29&#45;&gt;Node30</title>
<path fill="none" stroke="midnightblue" d="M816.07,-526.2C838.26,-504.59 881,-462.01 914.21,-423 927.44,-407.45 941.27,-388.98 951.48,-374.84"/>
<polygon fill="midnightblue" stroke="midnightblue" points="954.35,-376.83 957.33,-366.66 948.66,-372.76 954.35,-376.83"/>
</g>
<!-- Node30&#45;&gt;Node22 -->
<g id="edge53" class="edge">
<title>Node30&#45;&gt;Node22</title>
<path fill="none" stroke="midnightblue" d="M971.54,-336.39C978.35,-311.21 988.43,-257.99 964.21,-224 952.58,-207.68 934.31,-197.28 915.47,-190.64"/>
<polygon fill="midnightblue" stroke="midnightblue" points="916.49,-187.29 905.9,-187.59 914.36,-193.96 916.49,-187.29"/>
</g>
<!-- Node32 -->
<g id="node32" class="node">
<title>Node32</title>
<g id="a_node32"><a xlink:href="SpatialMotionVector_8h.html" target="_top" xlink:title=" ">
<polygon fill="none" stroke="black" points="93.71,-459.5 93.71,-489.5 248.71,-489.5 248.71,-459.5 93.71,-459.5"/>
<text text-anchor="start" x="101.71" y="-477.5" font-family="FreeSans.ttf" font-size="10.00">iDynTree/Core/SpatialMotion</text>
<text text-anchor="middle" x="171.21" y="-466.5" font-family="FreeSans.ttf" font-size="10.00">Vector.h</text>
</a>
</g>
</g>
<!-- Node31&#45;&gt;Node32 -->
<g id="edge56" class="edge">
<title>Node31&#45;&gt;Node32</title>
<path fill="none" stroke="midnightblue" d="M245.61,-531.73C233.43,-522.53 213.85,-507.73 197.84,-495.63"/>
<polygon fill="midnightblue" stroke="midnightblue" points="199.93,-492.83 189.85,-489.59 195.71,-498.41 199.93,-492.83"/>
</g>
<!-- Node32&#45;&gt;Node3 -->
<g id="edge57" class="edge">
<title>Node32&#45;&gt;Node3</title>
<path fill="none" stroke="midnightblue" d="M155.17,-459.32C145.94,-450.04 135.19,-437.05 130.21,-423 106.95,-357.46 14.31,-369.08 171.21,-224 201.43,-196.05 305.69,-185.45 383.73,-181.43"/>
<polygon fill="midnightblue" stroke="midnightblue" points="384.26,-184.91 394.08,-180.93 383.92,-177.92 384.26,-184.91"/>
</g>
<!-- Node32&#45;&gt;Node20 -->
<g id="edge58" class="edge">
<title>Node32&#45;&gt;Node20</title>
<path fill="none" stroke="midnightblue" d="M156.38,-459.47C143.63,-445.62 128.3,-423.59 135.21,-403 157.1,-337.73 215.5,-277.59 244.85,-250.34"/>
<polygon fill="midnightblue" stroke="midnightblue" points="247.27,-252.87 252.31,-243.55 242.56,-247.7 247.27,-252.87"/>
</g>
<!-- Node33 -->
<g id="node33" class="node">
<title>Node33</title>
<g id="a_node33"><a xlink:href="SpatialVector_8h.html" target="_top" xlink:title=" ">
<polygon fill="none" stroke="black" points="144.71,-403.5 144.71,-422.5 305.71,-422.5 305.71,-403.5 144.71,-403.5"/>
<text text-anchor="middle" x="225.21" y="-410.5" font-family="FreeSans.ttf" font-size="10.00">iDynTree/Core/SpatialVector.h</text>
</a>
</g>
</g>
<!-- Node32&#45;&gt;Node33 -->
<g id="edge59" class="edge">
<title>Node32&#45;&gt;Node33</title>
<path fill="none" stroke="midnightblue" d="M184,-459.4C191.93,-450.66 202.14,-439.41 210.42,-430.3"/>
<polygon fill="midnightblue" stroke="midnightblue" points="213.22,-432.42 217.35,-422.66 208.04,-427.71 213.22,-432.42"/>
</g>
<!-- Node33&#45;&gt;Node4 -->
<g id="edge62" class="edge">
<title>Node33&#45;&gt;Node4</title>
<path fill="none" stroke="midnightblue" d="M210.66,-403.49C198.37,-395.56 181.2,-382.62 171.21,-367 136.78,-313.21 122.11,-277.35 157.21,-224 235.13,-105.55 690.05,-76.1 866.4,-69.09"/>
<polygon fill="midnightblue" stroke="midnightblue" points="866.74,-72.58 876.6,-68.7 866.47,-65.58 866.74,-72.58"/>
</g>
<!-- Node33&#45;&gt;Node17 -->
<g id="edge65" class="edge">
<title>Node33&#45;&gt;Node17</title>
<path fill="none" stroke="midnightblue" d="M200.92,-403.47C182.54,-396.07 157.57,-383.87 140.21,-367 115.65,-343.15 110.94,-333.1 102.21,-300 89.38,-251.39 113.49,-188.7 138.21,-168 182.02,-131.3 354.19,-124.43 431.85,-123.22"/>
<polygon fill="midnightblue" stroke="midnightblue" points="432.2,-126.71 442.15,-123.08 432.11,-119.71 432.2,-126.71"/>
</g>
<!-- Node33&#45;&gt;Node19 -->
<g id="edge61" class="edge">
<title>Node33&#45;&gt;Node19</title>
<path fill="none" stroke="midnightblue" d="M306.12,-412.48C418.58,-411.71 615.02,-404.77 674.21,-367 694.85,-353.82 707.26,-327.5 713.66,-309.56"/>
<polygon fill="midnightblue" stroke="midnightblue" points="717.04,-310.5 716.83,-299.91 710.39,-308.32 717.04,-310.5"/>
</g>
<!-- Node33&#45;&gt;Node20 -->
<g id="edge63" class="edge">
<title>Node33&#45;&gt;Node20</title>
<path fill="none" stroke="midnightblue" d="M226.99,-403.46C232.64,-376.43 250.24,-292.24 258.21,-254.11"/>
<polygon fill="midnightblue" stroke="midnightblue" points="261.73,-254.37 260.35,-243.87 254.88,-252.94 261.73,-254.37"/>
</g>
<!-- Node33&#45;&gt;Node24 -->
<g id="edge64" class="edge">
<title>Node33&#45;&gt;Node24</title>
<path fill="none" stroke="midnightblue" d="M217.74,-403.12C194.37,-374.25 126.8,-281.52 171.21,-224 194.3,-194.09 444.65,-147.41 543.96,-129.93"/>
<polygon fill="midnightblue" stroke="midnightblue" points="544.67,-133.35 553.92,-128.18 543.46,-126.46 544.67,-133.35"/>
</g>
<!-- Node33&#45;&gt;Node26 -->
<g id="edge60" class="edge">
<title>Node33&#45;&gt;Node26</title>
<path fill="none" stroke="midnightblue" d="M278.5,-403.48C345.91,-392.69 461.82,-374.15 533.73,-362.65"/>
<polygon fill="midnightblue" stroke="midnightblue" points="534.68,-366.04 544.01,-361.01 533.58,-359.13 534.68,-366.04"/>
</g>
<!-- Node35 -->
<g id="node35" class="node">
<title>Node35</title>
<g id="a_node35"><a xlink:href="SpatialForceVector_8h.html" target="_top" xlink:title=" ">
<polygon fill="none" stroke="black" points="339.21,-459.5 339.21,-489.5 487.21,-489.5 487.21,-459.5 339.21,-459.5"/>
<text text-anchor="start" x="347.21" y="-477.5" font-family="FreeSans.ttf" font-size="10.00">iDynTree/Core/SpatialForce</text>
<text text-anchor="middle" x="413.21" y="-466.5" font-family="FreeSans.ttf" font-size="10.00">Vector.h</text>
</a>
</g>
</g>
<!-- Node34&#45;&gt;Node35 -->
<g id="edge67" class="edge">
<title>Node34&#45;&gt;Node35</title>
<path fill="none" stroke="midnightblue" d="M427.91,-531.73C425.75,-523.46 422.4,-510.66 419.45,-499.37"/>
<polygon fill="midnightblue" stroke="midnightblue" points="422.81,-498.38 416.89,-489.59 416.03,-500.15 422.81,-498.38"/>
</g>
<!-- Node35&#45;&gt;Node3 -->
<g id="edge68" class="edge">
<title>Node35&#45;&gt;Node3</title>
<path fill="none" stroke="midnightblue" d="M405.11,-459.5C393.16,-437.48 372.21,-393.09 372.21,-352.5 372.21,-352.5 372.21,-352.5 372.21,-289 372.21,-258.2 376.29,-247.49 396.21,-224 408.3,-209.74 426.1,-199.05 441.76,-191.67"/>
<polygon fill="midnightblue" stroke="midnightblue" points="443.43,-194.76 451.15,-187.5 440.59,-188.36 443.43,-194.76"/>
</g>
<!-- Node35&#45;&gt;Node20 -->
<g id="edge69" class="edge">
<title>Node35&#45;&gt;Node20</title>
<path fill="none" stroke="midnightblue" d="M394.8,-459.45C383.3,-450.02 368.72,-436.83 358.21,-423 315.39,-366.69 282.56,-288.41 269,-253.31"/>
<polygon fill="midnightblue" stroke="midnightblue" points="272.24,-251.98 265.42,-243.87 265.7,-254.46 272.24,-251.98"/>
</g>
<!-- Node35&#45;&gt;Node33 -->
<g id="edge70" class="edge">
<title>Node35&#45;&gt;Node33</title>
<path fill="none" stroke="midnightblue" d="M368.65,-459.4C336.17,-449.12 292.67,-435.35 262.12,-425.68"/>
<polygon fill="midnightblue" stroke="midnightblue" points="262.88,-422.25 252.29,-422.57 260.76,-428.93 262.88,-422.25"/>
</g>
<!-- Node36&#45;&gt;Node32 -->
<g id="edge72" class="edge">
<title>Node36&#45;&gt;Node32</title>
<path fill="none" stroke="midnightblue" d="M113.24,-531.73C122.47,-522.78 137.15,-508.54 149.42,-496.63"/>
<polygon fill="midnightblue" stroke="midnightblue" points="151.94,-499.06 156.68,-489.59 147.07,-494.04 151.94,-499.06"/>
</g>
<!-- Node37&#45;&gt;Node35 -->
<g id="edge74" class="edge">
<title>Node37&#45;&gt;Node35</title>
<path fill="none" stroke="midnightblue" d="M583.18,-531.87C553.26,-521.95 503.39,-505.41 465.39,-492.81"/>
<polygon fill="midnightblue" stroke="midnightblue" points="466.1,-489.35 455.51,-489.53 463.9,-496 466.1,-489.35"/>
</g>
<!-- Node39&#45;&gt;Node3 -->
<g id="edge82" class="edge">
<title>Node39&#45;&gt;Node3</title>
<path fill="none" stroke="midnightblue" d="M1097.7,-531.87C1087.63,-511.79 1064.21,-460.09 1064.21,-414 1064.21,-414 1064.21,-414 1064.21,-350.5 1064.21,-339.88 1054.72,-340.72 1045.21,-336 951.16,-289.37 643.53,-217.03 523.64,-189.83"/>
<polygon fill="midnightblue" stroke="midnightblue" points="524.18,-186.36 513.65,-187.57 522.63,-193.19 524.18,-186.36"/>
</g>
<!-- Node39&#45;&gt;Node4 -->
<g id="edge90" class="edge">
<title>Node39&#45;&gt;Node4</title>
<path fill="none" stroke="midnightblue" d="M1182.74,-534.45C1258.77,-523.83 1361.21,-494.57 1361.21,-414 1361.21,-414 1361.21,-414 1361.21,-233 1361.21,-203.02 1365.76,-187.75 1343.21,-168 1299.32,-129.58 1139.31,-147.95 1083.21,-132 1038.11,-119.18 988.89,-95.19 960.39,-80.22"/>
<polygon fill="midnightblue" stroke="midnightblue" points="962.02,-77.12 951.55,-75.51 958.73,-83.3 962.02,-77.12"/>
</g>
<!-- Node39&#45;&gt;Node5 -->
<g id="edge77" class="edge">
<title>Node39&#45;&gt;Node5</title>
<path fill="none" stroke="midnightblue" d="M1182.95,-538.74C1233.47,-534.21 1297.9,-521.85 1346.21,-490 1380.58,-467.33 1399.21,-455.18 1399.21,-414 1399.21,-414 1399.21,-414 1399.21,-233 1399.21,-200.19 1387.71,-190.89 1364.21,-168 1316.49,-121.54 1128.99,-50.98 1051.25,-23.02"/>
<polygon fill="midnightblue" stroke="midnightblue" points="1052.06,-19.59 1041.47,-19.51 1049.7,-26.18 1052.06,-19.59"/>
</g>
<!-- Node39&#45;&gt;Node22 -->
<g id="edge86" class="edge">
<title>Node39&#45;&gt;Node22</title>
<path fill="none" stroke="midnightblue" d="M1102.21,-531.91C1102.21,-511.48 1102.21,-458.36 1102.21,-414 1102.21,-414 1102.21,-414 1102.21,-350.5 1102.21,-317.4 1099.16,-305.62 1078.21,-280 1035.6,-227.89 961.07,-202.08 907.35,-189.7"/>
<polygon fill="midnightblue" stroke="midnightblue" points="908.1,-186.28 897.58,-187.54 906.59,-193.11 908.1,-186.28"/>
</g>
<!-- Node39&#45;&gt;Node25 -->
<g id="edge89" class="edge">
<title>Node39&#45;&gt;Node25</title>
<path fill="none" stroke="midnightblue" d="M1083.65,-531.81C1037,-509.95 914.68,-452.64 859.68,-426.87"/>
<polygon fill="midnightblue" stroke="midnightblue" points="861.08,-423.66 850.54,-422.59 858.11,-430 861.08,-423.66"/>
</g>
<!-- Node39&#45;&gt;Node32 -->
<g id="edge87" class="edge">
<title>Node39&#45;&gt;Node32</title>
<path fill="none" stroke="midnightblue" d="M1021.55,-535.01C981.21,-532.27 931.63,-528.93 887.21,-526 639.67,-509.65 577.53,-509.27 330.21,-490 307.1,-488.2 282.12,-486.03 258.96,-483.92"/>
<polygon fill="midnightblue" stroke="midnightblue" points="259.09,-480.42 248.81,-482.99 258.45,-487.39 259.09,-480.42"/>
</g>
<!-- Node39&#45;&gt;Node35 -->
<g id="edge88" class="edge">
<title>Node39&#45;&gt;Node35</title>
<path fill="none" stroke="midnightblue" d="M1021.48,-532.88C890.05,-520.49 631.08,-496.05 497.42,-483.45"/>
<polygon fill="midnightblue" stroke="midnightblue" points="497.52,-479.94 487.24,-482.48 496.87,-486.91 497.52,-479.94"/>
</g>
<!-- Node39&#45;&gt;Node38 -->
<g id="edge78" class="edge">
<title>Node39&#45;&gt;Node38</title>
<path fill="none" stroke="midnightblue" d="M1167.21,-531.99C1230.39,-523.24 1328.88,-508.33 1413.21,-490 1417.85,-488.99 1422.7,-487.82 1427.5,-486.6"/>
<polygon fill="midnightblue" stroke="midnightblue" points="1428.41,-489.98 1437.18,-484.04 1426.62,-483.21 1428.41,-489.98"/>
</g>
<!-- Node40 -->
<g id="node40" class="node">
<title>Node40</title>
<g id="a_node40"><a xlink:href="VectorDynSize_8h.html" target="_top" xlink:title=" ">
<polygon fill="none" stroke="black" points="1166.71,-168.5 1166.71,-187.5 1333.71,-187.5 1333.71,-168.5 1166.71,-168.5"/>
<text text-anchor="middle" x="1250.21" y="-175.5" font-family="FreeSans.ttf" font-size="10.00">iDynTree/Core/VectorDynSize.h</text>
</a>
</g>
</g>
<!-- Node39&#45;&gt;Node40 -->
<g id="edge79" class="edge">
<title>Node39&#45;&gt;Node40</title>
<path fill="none" stroke="midnightblue" d="M1118.73,-531.85C1149.89,-514.21 1214.21,-470.91 1214.21,-414 1214.21,-414 1214.21,-414 1214.21,-289 1214.21,-254.98 1229.95,-217.85 1240.61,-196.6"/>
<polygon fill="midnightblue" stroke="midnightblue" points="1243.83,-198.01 1245.35,-187.53 1237.62,-194.77 1243.83,-198.01"/>
</g>
<!-- Node41 -->
<g id="node41" class="node">
<title>Node41</title>
<g id="a_node41"><a xlink:href="MatrixDynSize_8h.html" target="_top" xlink:title=" ">
<polygon fill="none" stroke="black" points="981.21,-168.5 981.21,-187.5 1149.21,-187.5 1149.21,-168.5 981.21,-168.5"/>
<text text-anchor="middle" x="1065.21" y="-175.5" font-family="FreeSans.ttf" font-size="10.00">iDynTree/Core/MatrixDynSize.h</text>
</a>
</g>
</g>
<!-- Node39&#45;&gt;Node41 -->
<g id="edge83" class="edge">
<title>Node39&#45;&gt;Node41</title>
<path fill="none" stroke="midnightblue" d="M1106.71,-531.87C1116.78,-511.79 1140.21,-460.09 1140.21,-414 1140.21,-414 1140.21,-414 1140.21,-289 1140.21,-249.44 1106.69,-213.62 1084.47,-194.21"/>
<polygon fill="midnightblue" stroke="midnightblue" points="1086.51,-191.35 1076.6,-187.6 1082,-196.71 1086.51,-191.35"/>
</g>
<!-- Node40&#45;&gt;Node7 -->
<g id="edge80" class="edge">
<title>Node40&#45;&gt;Node7</title>
<path fill="none" stroke="midnightblue" d="M1251.93,-168.37C1255.48,-150.62 1263.67,-109.67 1268.49,-85.6"/>
<polygon fill="midnightblue" stroke="midnightblue" points="1271.96,-86.08 1270.49,-75.59 1265.09,-84.71 1271.96,-86.08"/>
</g>
<!-- Node40&#45;&gt;Node16 -->
<g id="edge81" class="edge">
<title>Node40&#45;&gt;Node16</title>
<path fill="none" stroke="midnightblue" d="M1178.58,-168.44C1079.14,-156.56 903.3,-135.56 830.83,-126.9"/>
<polygon fill="midnightblue" stroke="midnightblue" points="830.85,-123.38 820.51,-125.66 830.02,-130.33 830.85,-123.38"/>
</g>
<!-- Node41&#45;&gt;Node16 -->
<g id="edge84" class="edge">
<title>Node41&#45;&gt;Node16</title>
<path fill="none" stroke="midnightblue" d="M1022.9,-168.44C969.33,-157.61 878.25,-139.19 830.15,-129.46"/>
<polygon fill="midnightblue" stroke="midnightblue" points="830.78,-126.02 820.29,-127.47 829.4,-132.88 830.78,-126.02"/>
</g>
<!-- Node41&#45;&gt;Node23 -->
<g id="edge85" class="edge">
<title>Node41&#45;&gt;Node23</title>
<path fill="none" stroke="midnightblue" d="M1081.75,-168.32C1098.2,-159.7 1123.64,-146.36 1142.67,-136.39"/>
<polygon fill="midnightblue" stroke="midnightblue" points="1144.47,-139.4 1151.7,-131.65 1141.22,-133.2 1144.47,-139.4"/>
</g>
</g>
</svg>
