<?xml version="1.0" encoding="UTF-8" standalone="no"?>
<!DOCTYPE svg PUBLIC "-//W3C//DTD SVG 1.1//EN"
 "http://www.w3.org/Graphics/SVG/1.1/DTD/svg11.dtd">
<!-- Generated by graphviz version 2.43.0 (0)
 -->
<!-- Title: InertialElement.h Pages: 1 -->
<svg width="236pt" height="84pt"
 viewBox="0.00 0.00 236.00 84.00" xmlns="http://www.w3.org/2000/svg" xmlns:xlink="http://www.w3.org/1999/xlink">
<g id="graph0" class="graph" transform="scale(1 1) rotate(0) translate(4 80)">
<title>InertialElement.h</title>
<!-- Node1 -->
<g id="node1" class="node">
<title>Node1</title>
<g id="a_node1"><a xlink:title=" ">
<polygon fill="#bfbfbf" stroke="black" points="66.5,-56.5 66.5,-75.5 167.5,-75.5 167.5,-56.5 66.5,-56.5"/>
<text text-anchor="middle" x="117" y="-63.5" font-family="FreeSans.ttf" font-size="10.00">InertialElement.h</text>
</a>
</g>
</g>
<!-- Node2 -->
<g id="node2" class="node">
<title>Node2</title>
<g id="a_node2"><a xlink:href="InertialElement_8cpp.html" target="_top" xlink:title=" ">
<polygon fill="none" stroke="black" points="0,-0.5 0,-19.5 112,-19.5 112,-0.5 0,-0.5"/>
<text text-anchor="middle" x="56" y="-7.5" font-family="FreeSans.ttf" font-size="10.00">InertialElement.cpp</text>
</a>
</g>
</g>
<!-- Node1&#45;&gt;Node2 -->
<g id="edge1" class="edge">
<title>Node1&#45;&gt;Node2</title>
<path fill="none" stroke="midnightblue" d="M99.53,-49.54C88.66,-39.91 75.06,-27.87 65.98,-19.83"/>
<polygon fill="midnightblue" stroke="midnightblue" points="97.39,-52.32 107.2,-56.32 102.03,-47.07 97.39,-52.32"/>
</g>
<!-- Node3 -->
<g id="node3" class="node">
<title>Node3</title>
<g id="a_node3"><a xlink:href="LinkElement_8cpp.html" target="_top" xlink:title=" ">
<polygon fill="none" stroke="black" points="130,-0.5 130,-19.5 228,-19.5 228,-0.5 130,-0.5"/>
<text text-anchor="middle" x="179" y="-7.5" font-family="FreeSans.ttf" font-size="10.00">LinkElement.cpp</text>
</a>
</g>
</g>
<!-- Node1&#45;&gt;Node3 -->
<g id="edge2" class="edge">
<title>Node1&#45;&gt;Node3</title>
<path fill="none" stroke="midnightblue" d="M134.75,-49.54C145.81,-39.91 159.63,-27.87 168.86,-19.83"/>
<polygon fill="midnightblue" stroke="midnightblue" points="132.2,-47.12 126.96,-56.32 136.8,-52.4 132.2,-47.12"/>
</g>
</g>
</svg>
