<?xml version="1.0" encoding="UTF-8" standalone="no"?>
<!DOCTYPE svg PUBLIC "-//W3C//DTD SVG 1.1//EN"
 "http://www.w3.org/Graphics/SVG/1.1/DTD/svg11.dtd">
<!-- Generated by graphviz version 2.43.0 (0)
 -->
<!-- Title: Graphical Class Hierarchy Pages: 1 -->
<svg width="309pt" height="242pt"
 viewBox="0.00 0.00 309.00 242.00" xmlns="http://www.w3.org/2000/svg" xmlns:xlink="http://www.w3.org/1999/xlink">
<g id="graph0" class="graph" transform="scale(1 1) rotate(0) translate(4 238)">
<title>Graphical Class Hierarchy</title>
<!-- Node232 -->
<g id="node1" class="node">
<title>Node232</title>
<g id="a_node1"><a xlink:title=" ">
<polygon fill="none" stroke="#bfbfbf" points="0,-104.5 0,-123.5 101,-123.5 101,-104.5 0,-104.5"/>
<text text-anchor="middle" x="50.5" y="-111.5" font-family="FreeSans.ttf" font-size="10.00">integral_constant</text>
</a>
</g>
</g>
<!-- Node0 -->
<g id="node2" class="node">
<title>Node0</title>
<g id="a_node2"><a xlink:href="structiDynTree_1_1details_1_1calculate__byte__size.html" target="_top" xlink:title=" ">
<polygon fill="none" stroke="black" points="149,-192.5 149,-233.5 289,-233.5 289,-192.5 149,-192.5"/>
<text text-anchor="start" x="157" y="-221.5" font-family="FreeSans.ttf" font-size="10.00">iDynTree::details::</text>
<text text-anchor="start" x="157" y="-210.5" font-family="FreeSans.ttf" font-size="10.00">calculate_byte_size</text>
<text text-anchor="middle" x="219" y="-199.5" font-family="FreeSans.ttf" font-size="10.00">&lt; ElementType, Extent &gt;</text>
</a>
</g>
</g>
<!-- Node232&#45;&gt;Node0 -->
<g id="edge1" class="edge">
<title>Node232&#45;&gt;Node0</title>
<path fill="none" stroke="midnightblue" d="M68.93,-130.93C85.38,-146.18 111.3,-168.39 137,-183 143,-186.41 149.45,-189.56 156.01,-192.44"/>
<polygon fill="midnightblue" stroke="midnightblue" points="70.91,-127.99 61.24,-123.66 66.1,-133.07 70.91,-127.99"/>
</g>
<!-- Node234 -->
<g id="node3" class="node">
<title>Node234</title>
<g id="a_node3"><a xlink:href="structiDynTree_1_1details_1_1calculate__byte__size_3_01ElementType_00_01dynamic__extent_01_4.html" target="_top" xlink:title=" ">
<polygon fill="none" stroke="black" points="149.5,-121 149.5,-173 288.5,-173 288.5,-121 149.5,-121"/>
<text text-anchor="start" x="157.5" y="-161" font-family="FreeSans.ttf" font-size="10.00">iDynTree::details::</text>
<text text-anchor="start" x="157.5" y="-150" font-family="FreeSans.ttf" font-size="10.00">calculate_byte_size</text>
<text text-anchor="start" x="157.5" y="-139" font-family="FreeSans.ttf" font-size="10.00">&lt; ElementType, dynamic</text>
<text text-anchor="middle" x="219" y="-128" font-family="FreeSans.ttf" font-size="10.00">_extent &gt;</text>
</a>
</g>
</g>
<!-- Node232&#45;&gt;Node234 -->
<g id="edge2" class="edge">
<title>Node232&#45;&gt;Node234</title>
<path fill="none" stroke="midnightblue" d="M109.68,-125.53C122.44,-128.06 136.07,-130.76 149.21,-133.37"/>
<polygon fill="midnightblue" stroke="midnightblue" points="110.15,-122.06 99.66,-123.54 108.79,-128.92 110.15,-122.06"/>
</g>
<!-- Node235 -->
<g id="node4" class="node">
<title>Node235</title>
<g id="a_node4"><a xlink:href="structiDynTree_1_1details_1_1is__allowed__element__type__conversion.html" target="_top" xlink:title=" ">
<polygon fill="none" stroke="black" points="148.5,-60.5 148.5,-101.5 289.5,-101.5 289.5,-60.5 148.5,-60.5"/>
<text text-anchor="start" x="156.5" y="-89.5" font-family="FreeSans.ttf" font-size="10.00">iDynTree::details::</text>
<text text-anchor="start" x="156.5" y="-78.5" font-family="FreeSans.ttf" font-size="10.00">is_allowed_element_type</text>
<text text-anchor="middle" x="219" y="-67.5" font-family="FreeSans.ttf" font-size="10.00">_conversion&lt; From, To &gt;</text>
</a>
</g>
</g>
<!-- Node232&#45;&gt;Node235 -->
<g id="edge3" class="edge">
<title>Node232&#45;&gt;Node235</title>
<path fill="none" stroke="midnightblue" d="M109.49,-102.51C122.01,-100.03 135.36,-97.38 148.27,-94.82"/>
<polygon fill="midnightblue" stroke="midnightblue" points="108.79,-99.08 99.66,-104.46 110.15,-105.94 108.79,-99.08"/>
</g>
<!-- Node236 -->
<g id="node5" class="node">
<title>Node236</title>
<g id="a_node5"><a xlink:href="structiDynTree_1_1details_1_1is__allowed__extent__conversion.html" target="_top" xlink:title=" ">
<polygon fill="none" stroke="black" points="137,-0.5 137,-41.5 301,-41.5 301,-0.5 137,-0.5"/>
<text text-anchor="start" x="145" y="-29.5" font-family="FreeSans.ttf" font-size="10.00">iDynTree::details::</text>
<text text-anchor="start" x="145" y="-18.5" font-family="FreeSans.ttf" font-size="10.00">is_allowed_extent_conversion</text>
<text text-anchor="middle" x="219" y="-7.5" font-family="FreeSans.ttf" font-size="10.00">&lt; From, To &gt;</text>
</a>
</g>
</g>
<!-- Node232&#45;&gt;Node236 -->
<g id="edge4" class="edge">
<title>Node232&#45;&gt;Node236</title>
<path fill="none" stroke="midnightblue" d="M70.29,-97.73C86.96,-83.91 112.4,-64.27 137,-51 143.2,-47.65 149.86,-44.52 156.59,-41.64"/>
<polygon fill="midnightblue" stroke="midnightblue" points="67.82,-95.24 62.43,-104.36 72.33,-100.59 67.82,-95.24"/>
</g>
</g>
</svg>
