<?xml version="1.0" encoding="UTF-8" standalone="no"?>
<!DOCTYPE svg PUBLIC "-//W3C//DTD SVG 1.1//EN"
 "http://www.w3.org/Graphics/SVG/1.1/DTD/svg11.dtd">
<!-- Generated by graphviz version 2.43.0 (0)
 -->
<!-- Title: Graphical Class Hierarchy Pages: 1 -->
<svg width="446pt" height="39pt"
 viewBox="0.00 0.00 446.00 39.00" xmlns="http://www.w3.org/2000/svg" xmlns:xlink="http://www.w3.org/1999/xlink">
<g id="graph0" class="graph" transform="scale(1 1) rotate(0) translate(4 35)">
<title>Graphical Class Hierarchy</title>
<!-- Node0 -->
<g id="node1" class="node">
<title>Node0</title>
<g id="a_node1"><a xlink:href="classiDynTree_1_1MatrixFixSize.html" target="_top" xlink:title=" ">
<polygon fill="none" stroke="black" points="0,-0.5 0,-30.5 131,-30.5 131,-0.5 0,-0.5"/>
<text text-anchor="start" x="8" y="-18.5" font-family="FreeSans.ttf" font-size="10.00">iDynTree::MatrixFixSize</text>
<text text-anchor="middle" x="65.5" y="-7.5" font-family="FreeSans.ttf" font-size="10.00">&lt; 3, 3 &gt;</text>
</a>
</g>
</g>
<!-- Node1 -->
<g id="node2" class="node">
<title>Node1</title>
<g id="a_node2"><a xlink:href="classiDynTree_1_1RotationRaw.html" target="_top" xlink:title="Class providing the raw coordinates for iDynTree::Rotation class.">
<polygon fill="none" stroke="black" points="167,-6 167,-25 295,-25 295,-6 167,-6"/>
<text text-anchor="middle" x="231" y="-13" font-family="FreeSans.ttf" font-size="10.00">iDynTree::RotationRaw</text>
</a>
</g>
</g>
<!-- Node0&#45;&gt;Node1 -->
<g id="edge1" class="edge">
<title>Node0&#45;&gt;Node1</title>
<path fill="none" stroke="midnightblue" d="M141.16,-15.5C149.77,-15.5 158.48,-15.5 166.92,-15.5"/>
<polygon fill="midnightblue" stroke="midnightblue" points="141.12,-12 131.12,-15.5 141.12,-19 141.12,-12"/>
</g>
<!-- Node2 -->
<g id="node3" class="node">
<title>Node2</title>
<g id="a_node3"><a xlink:href="classiDynTree_1_1Rotation.html" target="_top" xlink:title="Class representation the rotation of an orientation frame with respect to a reference orientation fra...">
<polygon fill="none" stroke="black" points="331,-6 331,-25 438,-25 438,-6 331,-6"/>
<text text-anchor="middle" x="384.5" y="-13" font-family="FreeSans.ttf" font-size="10.00">iDynTree::Rotation</text>
</a>
</g>
</g>
<!-- Node1&#45;&gt;Node2 -->
<g id="edge2" class="edge">
<title>Node1&#45;&gt;Node2</title>
<path fill="none" stroke="midnightblue" d="M305.43,-15.5C314.04,-15.5 322.69,-15.5 330.93,-15.5"/>
<polygon fill="midnightblue" stroke="midnightblue" points="305.37,-12 295.37,-15.5 305.37,-19 305.37,-12"/>
</g>
</g>
</svg>
