<?xml version="1.0" encoding="UTF-8" standalone="no"?>
<!DOCTYPE svg PUBLIC "-//W3C//DTD SVG 1.1//EN"
 "http://www.w3.org/Graphics/SVG/1.1/DTD/svg11.dtd">
<!-- Generated by graphviz version 2.43.0 (0)
 -->
<!-- Title: Graphical Class Hierarchy Pages: 1 -->
<svg width="345pt" height="66pt"
 viewBox="0.00 0.00 345.00 66.00" xmlns="http://www.w3.org/2000/svg" xmlns:xlink="http://www.w3.org/1999/xlink">
<g id="graph0" class="graph" transform="scale(1 1) rotate(0) translate(4 62)">
<title>Graphical Class Hierarchy</title>
<!-- Node264 -->
<g id="node1" class="node">
<title>Node264</title>
<g id="a_node1"><a xlink:href="classiDynTree_1_1ICameraAnimator.html" target="_top" xlink:title="Interface to animate the camera and control it via the mouse.">
<polygon fill="none" stroke="black" points="0,-38.5 0,-57.5 152,-57.5 152,-38.5 0,-38.5"/>
<text text-anchor="middle" x="76" y="-45.5" font-family="FreeSans.ttf" font-size="10.00">iDynTree::ICameraAnimator</text>
</a>
</g>
</g>
<!-- Node0 -->
<g id="node2" class="node">
<title>Node0</title>
<g id="a_node2"><a xlink:href="classiDynTree_1_1CameraAnimator.html" target="_top" xlink:title=" ">
<polygon fill="none" stroke="black" points="188,-19.5 188,-38.5 337,-38.5 337,-19.5 188,-19.5"/>
<text text-anchor="middle" x="262.5" y="-26.5" font-family="FreeSans.ttf" font-size="10.00">iDynTree::CameraAnimator</text>
</a>
</g>
</g>
<!-- Node264&#45;&gt;Node0 -->
<g id="edge1" class="edge">
<title>Node264&#45;&gt;Node0</title>
<path fill="none" stroke="midnightblue" d="M162.05,-39.24C170.62,-38.36 179.28,-37.47 187.72,-36.6"/>
<polygon fill="midnightblue" stroke="midnightblue" points="161.63,-35.77 152.04,-40.27 162.35,-42.73 161.63,-35.77"/>
</g>
<!-- Node216 -->
<g id="node3" class="node">
<title>Node216</title>
<g id="a_node3"><a xlink:title=" ">
<polygon fill="none" stroke="#bfbfbf" points="16.5,-0.5 16.5,-19.5 135.5,-19.5 135.5,-0.5 16.5,-0.5"/>
<text text-anchor="middle" x="76" y="-7.5" font-family="FreeSans.ttf" font-size="10.00">ISceneNodeAnimator</text>
</a>
</g>
</g>
<!-- Node216&#45;&gt;Node0 -->
<g id="edge2" class="edge">
<title>Node216&#45;&gt;Node0</title>
<path fill="none" stroke="midnightblue" d="M145.91,-17.1C159.57,-18.5 173.96,-19.98 187.77,-21.41"/>
<polygon fill="midnightblue" stroke="midnightblue" points="145.94,-13.58 135.63,-16.04 145.22,-20.54 145.94,-13.58"/>
</g>
</g>
</svg>
