<?xml version="1.0" encoding="UTF-8" standalone="no"?>
<!DOCTYPE svg PUBLIC "-//W3C//DTD SVG 1.1//EN"
 "http://www.w3.org/Graphics/SVG/1.1/DTD/svg11.dtd">
<!-- Generated by graphviz version 2.43.0 (0)
 -->
<!-- Title: Graphical Class Hierarchy Pages: 1 -->
<svg width="308pt" height="527pt"
 viewBox="0.00 0.00 308.00 527.00" xmlns="http://www.w3.org/2000/svg" xmlns:xlink="http://www.w3.org/1999/xlink">
<g id="graph0" class="graph" transform="scale(1 1) rotate(0) translate(4 523)">
<title>Graphical Class Hierarchy</title>
<!-- Node38 -->
<g id="node1" class="node">
<title>Node38</title>
<g id="a_node1"><a xlink:title=" ">
<polygon fill="none" stroke="#bfbfbf" points="0,-254.5 0,-273.5 63,-273.5 63,-254.5 0,-254.5"/>
<text text-anchor="middle" x="31.5" y="-261.5" font-family="FreeSans.ttf" font-size="10.00">true_type</text>
</a>
</g>
</g>
<!-- Node0 -->
<g id="node2" class="node">
<title>Node0</title>
<g id="a_node2"><a xlink:href="structiDynTree_1_1details_1_1is__span__oracle_3_01iDynTree_1_1Span_3_01ElementType_00_01Extent_01_4_01_4.html" target="_top" xlink:title=" ">
<polygon fill="none" stroke="black" points="109,-477.5 109,-518.5 290,-518.5 290,-477.5 109,-477.5"/>
<text text-anchor="start" x="117" y="-506.5" font-family="FreeSans.ttf" font-size="10.00">iDynTree::details::</text>
<text text-anchor="start" x="117" y="-495.5" font-family="FreeSans.ttf" font-size="10.00">is_span_oracle&lt; iDynTree</text>
<text text-anchor="middle" x="199.5" y="-484.5" font-family="FreeSans.ttf" font-size="10.00">::Span&lt; ElementType, Extent &gt; &gt;</text>
</a>
</g>
</g>
<!-- Node38&#45;&gt;Node0 -->
<g id="edge1" class="edge">
<title>Node38&#45;&gt;Node0</title>
<path fill="none" stroke="midnightblue" d="M33.14,-283.89C35.54,-324.39 46.77,-416.92 99,-468 102.61,-471.53 106.62,-474.65 110.91,-477.4"/>
<polygon fill="midnightblue" stroke="midnightblue" points="36.63,-283.54 32.66,-273.71 29.64,-283.87 36.63,-283.54"/>
</g>
<!-- Node40 -->
<g id="node3" class="node">
<title>Node40</title>
<g id="a_node3"><a xlink:href="structiDynTree_1_1details_1_1is__std__array__oracle_3_01std_1_1array_3_01ElementType_00_01Extent_01_4_01_4.html" target="_top" xlink:title=" ">
<polygon fill="none" stroke="black" points="123.5,-406 123.5,-458 275.5,-458 275.5,-406 123.5,-406"/>
<text text-anchor="start" x="131.5" y="-446" font-family="FreeSans.ttf" font-size="10.00">iDynTree::details::</text>
<text text-anchor="start" x="131.5" y="-435" font-family="FreeSans.ttf" font-size="10.00">is_std_array_oracle</text>
<text text-anchor="start" x="131.5" y="-424" font-family="FreeSans.ttf" font-size="10.00">&lt; std::array&lt; ElementType,</text>
<text text-anchor="middle" x="199.5" y="-413" font-family="FreeSans.ttf" font-size="10.00"> Extent &gt; &gt;</text>
</a>
</g>
</g>
<!-- Node38&#45;&gt;Node40 -->
<g id="edge2" class="edge">
<title>Node38&#45;&gt;Node40</title>
<path fill="none" stroke="midnightblue" d="M37.45,-283.84C45.59,-312.49 64.43,-365.33 99,-396 106.15,-402.34 114.49,-407.59 123.26,-411.93"/>
<polygon fill="midnightblue" stroke="midnightblue" points="40.74,-282.58 34.77,-273.83 33.98,-284.39 40.74,-282.58"/>
</g>
<!-- Node41 -->
<g id="node4" class="node">
<title>Node41</title>
<g id="a_node4"><a xlink:href="structiDynTree_1_1MatrixViewInternal_1_1has__IsRowMajor_3_01T_00_01SpanUtils_1_1void__t_3_01decl7e9aca95d34952fed609ee84e1af283d.html" target="_top" xlink:title="has_IsRowMajor is used to build a type&#45;dependent expression that check if an element has IsRowMajor a...">
<polygon fill="none" stroke="black" points="99,-345.5 99,-386.5 300,-386.5 300,-345.5 99,-345.5"/>
<text text-anchor="start" x="107" y="-374.5" font-family="FreeSans.ttf" font-size="10.00">iDynTree::MatrixViewInternal</text>
<text text-anchor="start" x="107" y="-363.5" font-family="FreeSans.ttf" font-size="10.00">::has_IsRowMajor&lt; T, SpanUtils</text>
<text text-anchor="middle" x="199.5" y="-352.5" font-family="FreeSans.ttf" font-size="10.00">::void_t&lt; decltype(T::IsRowMajor)&gt; &gt;</text>
</a>
</g>
</g>
<!-- Node38&#45;&gt;Node41 -->
<g id="edge3" class="edge">
<title>Node38&#45;&gt;Node41</title>
<path fill="none" stroke="midnightblue" d="M44.89,-282.17C56.91,-298.49 76.6,-321.99 99,-336 104.66,-339.54 110.76,-342.68 117.06,-345.47"/>
<polygon fill="midnightblue" stroke="midnightblue" points="47.68,-280.05 39.02,-273.94 41.98,-284.12 47.68,-280.05"/>
</g>
<!-- Node42 -->
<g id="node5" class="node">
<title>Node42</title>
<g id="a_node5"><a xlink:href="structiDynTree_1_1SpanUtils_1_1has__data__method_3_01T_00_01void__t_3_01decltype_07std_1_1declvab6b1e478fbc78504ead5a4d656be7ada.html" target="_top" xlink:title=" ">
<polygon fill="none" stroke="black" points="125,-274 125,-326 274,-326 274,-274 125,-274"/>
<text text-anchor="start" x="133" y="-314" font-family="FreeSans.ttf" font-size="10.00">iDynTree::SpanUtils</text>
<text text-anchor="start" x="133" y="-303" font-family="FreeSans.ttf" font-size="10.00">::has_data_method&lt; T,</text>
<text text-anchor="start" x="133" y="-292" font-family="FreeSans.ttf" font-size="10.00"> void_t&lt; decltype(std</text>
<text text-anchor="middle" x="199.5" y="-281" font-family="FreeSans.ttf" font-size="10.00">::declval&lt; T &gt;().data())&gt; &gt;</text>
</a>
</g>
</g>
<!-- Node38&#45;&gt;Node42 -->
<g id="edge4" class="edge">
<title>Node38&#45;&gt;Node42</title>
<path fill="none" stroke="midnightblue" d="M73.15,-272.81C88.72,-276.19 107.02,-280.16 124.75,-284.01"/>
<polygon fill="midnightblue" stroke="midnightblue" points="73.85,-269.39 63.33,-270.69 72.37,-276.23 73.85,-269.39"/>
</g>
<!-- Node43 -->
<g id="node6" class="node">
<title>Node43</title>
<g id="a_node6"><a xlink:href="structiDynTree_1_1SpanUtils_1_1has__size__method_3_01T_00_01void__t_3_01decltype_07std_1_1declvae1bc7a5e579508da24d014f467d8f210.html" target="_top" xlink:title=" ">
<polygon fill="none" stroke="black" points="126,-203 126,-255 273,-255 273,-203 126,-203"/>
<text text-anchor="start" x="134" y="-243" font-family="FreeSans.ttf" font-size="10.00">iDynTree::SpanUtils</text>
<text text-anchor="start" x="134" y="-232" font-family="FreeSans.ttf" font-size="10.00">::has_size_method&lt; T,</text>
<text text-anchor="start" x="134" y="-221" font-family="FreeSans.ttf" font-size="10.00"> void_t&lt; decltype(std</text>
<text text-anchor="middle" x="199.5" y="-210" font-family="FreeSans.ttf" font-size="10.00">::declval&lt; T &gt;().size())&gt; &gt;</text>
</a>
</g>
</g>
<!-- Node38&#45;&gt;Node43 -->
<g id="edge5" class="edge">
<title>Node38&#45;&gt;Node43</title>
<path fill="none" stroke="midnightblue" d="M73.31,-255.4C89.16,-252.05 107.81,-248.12 125.8,-244.33"/>
<polygon fill="midnightblue" stroke="midnightblue" points="72.4,-252.01 63.33,-257.5 73.84,-258.86 72.4,-252.01"/>
</g>
<!-- Node44 -->
<g id="node7" class="node">
<title>Node44</title>
<g id="a_node7"><a xlink:href="structiDynTree_1_1SpanUtils_1_1is__element__defined_3_01T_00_01void__t_3_01typename_01T_1_1element__type_01_4_01_4.html" target="_top" xlink:title=" ">
<polygon fill="none" stroke="black" points="134,-132 134,-184 265,-184 265,-132 134,-132"/>
<text text-anchor="start" x="142" y="-172" font-family="FreeSans.ttf" font-size="10.00">iDynTree::SpanUtils</text>
<text text-anchor="start" x="142" y="-161" font-family="FreeSans.ttf" font-size="10.00">::is_element_defined</text>
<text text-anchor="start" x="142" y="-150" font-family="FreeSans.ttf" font-size="10.00">&lt; T, void_t&lt; typename</text>
<text text-anchor="middle" x="199.5" y="-139" font-family="FreeSans.ttf" font-size="10.00"> T::element_type &gt; &gt;</text>
</a>
</g>
</g>
<!-- Node38&#45;&gt;Node44 -->
<g id="edge6" class="edge">
<title>Node38&#45;&gt;Node44</title>
<path fill="none" stroke="midnightblue" d="M45.92,-245.68C58.19,-230.05 77.66,-207.96 99,-194 109.61,-187.06 121.73,-181.25 133.77,-176.46"/>
<polygon fill="midnightblue" stroke="midnightblue" points="42.83,-243.94 39.56,-254.02 48.4,-248.19 42.83,-243.94"/>
</g>
<!-- Node45 -->
<g id="node8" class="node">
<title>Node45</title>
<g id="a_node8"><a xlink:href="structiDynTree_1_1SpanUtils_1_1is__value__defined_3_01T_00_01void__t_3_01typename_01T_1_1value__type_01_4_01_4.html" target="_top" xlink:title=" ">
<polygon fill="none" stroke="black" points="138.5,-61 138.5,-113 260.5,-113 260.5,-61 138.5,-61"/>
<text text-anchor="start" x="146.5" y="-101" font-family="FreeSans.ttf" font-size="10.00">iDynTree::SpanUtils</text>
<text text-anchor="start" x="146.5" y="-90" font-family="FreeSans.ttf" font-size="10.00">::is_value_defined&lt;</text>
<text text-anchor="start" x="146.5" y="-79" font-family="FreeSans.ttf" font-size="10.00"> T, void_t&lt; typename</text>
<text text-anchor="middle" x="199.5" y="-68" font-family="FreeSans.ttf" font-size="10.00"> T::value_type &gt; &gt;</text>
</a>
</g>
</g>
<!-- Node38&#45;&gt;Node45 -->
<g id="edge7" class="edge">
<title>Node38&#45;&gt;Node45</title>
<path fill="none" stroke="midnightblue" d="M36.65,-244.51C44.04,-214.37 62.28,-156.43 99,-123 110.07,-112.92 124.18,-105.61 138.26,-100.33"/>
<polygon fill="midnightblue" stroke="midnightblue" points="33.24,-243.73 34.4,-254.26 40.06,-245.3 33.24,-243.73"/>
</g>
<!-- Node46 -->
<g id="node9" class="node">
<title>Node46</title>
<g id="a_node9"><a xlink:href="structinternal_1_1kinematics_1_1is__matrixfixsize_3_01iDynTree_1_1MatrixFixSize_3_01row_00_01col_01_4_01_4.html" target="_top" xlink:title=" ">
<polygon fill="none" stroke="black" points="119,-0.5 119,-41.5 280,-41.5 280,-0.5 119,-0.5"/>
<text text-anchor="start" x="127" y="-29.5" font-family="FreeSans.ttf" font-size="10.00">internal::kinematics</text>
<text text-anchor="start" x="127" y="-18.5" font-family="FreeSans.ttf" font-size="10.00">::is_matrixfixsize&lt; iDynTree</text>
<text text-anchor="middle" x="199.5" y="-7.5" font-family="FreeSans.ttf" font-size="10.00">::MatrixFixSize&lt; row, col &gt; &gt;</text>
</a>
</g>
</g>
<!-- Node38&#45;&gt;Node46 -->
<g id="edge8" class="edge">
<title>Node38&#45;&gt;Node46</title>
<path fill="none" stroke="midnightblue" d="M32.89,-244.24C34.78,-202.71 45.1,-105.8 99,-52 104.76,-46.25 111.57,-41.56 118.89,-37.74"/>
<polygon fill="midnightblue" stroke="midnightblue" points="29.38,-244.29 32.54,-254.4 36.38,-244.52 29.38,-244.29"/>
</g>
</g>
</svg>
