<?xml version="1.0" encoding="UTF-8" standalone="no"?>
<!DOCTYPE svg PUBLIC "-//W3C//DTD SVG 1.1//EN"
 "http://www.w3.org/Graphics/SVG/1.1/DTD/svg11.dtd">
<!-- Generated by graphviz version 2.43.0 (0)
 -->
<!-- Title: Graphical Class Hierarchy Pages: 1 -->
<svg width="376pt" height="66pt"
 viewBox="0.00 0.00 376.00 66.00" xmlns="http://www.w3.org/2000/svg" xmlns:xlink="http://www.w3.org/1999/xlink">
<g id="graph0" class="graph" transform="scale(1 1) rotate(0) translate(4 62)">
<title>Graphical Class Hierarchy</title>
<!-- Node0 -->
<g id="node1" class="node">
<title>Node0</title>
<g id="a_node1"><a xlink:href="classiDynTree_1_1ITexturesHandler.html" target="_top" xlink:title=" ">
<polygon fill="none" stroke="black" points="0,-19.5 0,-38.5 148,-38.5 148,-19.5 0,-19.5"/>
<text text-anchor="middle" x="74" y="-26.5" font-family="FreeSans.ttf" font-size="10.00">iDynTree::ITexturesHandler</text>
</a>
</g>
</g>
<!-- Node1 -->
<g id="node2" class="node">
<title>Node1</title>
<g id="a_node2"><a xlink:href="classiDynTree_1_1DummyTexturesHandler.html" target="_top" xlink:title=" ">
<polygon fill="none" stroke="black" points="184,-38.5 184,-57.5 368,-57.5 368,-38.5 184,-38.5"/>
<text text-anchor="middle" x="276" y="-45.5" font-family="FreeSans.ttf" font-size="10.00">iDynTree::DummyTexturesHandler</text>
</a>
</g>
</g>
<!-- Node0&#45;&gt;Node1 -->
<g id="edge1" class="edge">
<title>Node0&#45;&gt;Node1</title>
<path fill="none" stroke="midnightblue" d="M158.23,-36.91C166.66,-37.71 175.24,-38.52 183.75,-39.33"/>
<polygon fill="midnightblue" stroke="midnightblue" points="158.34,-33.4 148.05,-35.94 157.68,-40.37 158.34,-33.4"/>
</g>
<!-- Node2 -->
<g id="node3" class="node">
<title>Node2</title>
<g id="a_node3"><a xlink:href="classiDynTree_1_1TexturesHandler.html" target="_top" xlink:title=" ">
<polygon fill="none" stroke="black" points="203.5,-0.5 203.5,-19.5 348.5,-19.5 348.5,-0.5 203.5,-0.5"/>
<text text-anchor="middle" x="276" y="-7.5" font-family="FreeSans.ttf" font-size="10.00">iDynTree::TexturesHandler</text>
</a>
</g>
</g>
<!-- Node0&#45;&gt;Node2 -->
<g id="edge2" class="edge">
<title>Node0&#45;&gt;Node2</title>
<path fill="none" stroke="midnightblue" d="M158.34,-21.08C173.34,-19.66 188.85,-18.18 203.48,-16.79"/>
<polygon fill="midnightblue" stroke="midnightblue" points="157.68,-17.63 148.05,-22.06 158.34,-24.6 157.68,-17.63"/>
</g>
</g>
</svg>
