<?xml version="1.0" encoding="UTF-8" standalone="no"?>
<!DOCTYPE svg PUBLIC "-//W3C//DTD SVG 1.1//EN"
 "http://www.w3.org/Graphics/SVG/1.1/DTD/svg11.dtd">
<!-- Generated by graphviz version 2.43.0 (0)
 -->
<!-- Title: Graphical Class Hierarchy Pages: 1 -->
<svg width="217pt" height="88pt"
 viewBox="0.00 0.00 217.00 88.00" xmlns="http://www.w3.org/2000/svg" xmlns:xlink="http://www.w3.org/1999/xlink">
<g id="graph0" class="graph" transform="scale(1 1) rotate(0) translate(4 84)">
<title>Graphical Class Hierarchy</title>
<!-- Node55 -->
<g id="node1" class="node">
<title>Node55</title>
<g id="a_node1"><a xlink:title=" ">
<polygon fill="none" stroke="#bfbfbf" points="0,-30 0,-49 41,-49 41,-30 0,-30"/>
<text text-anchor="middle" x="20.5" y="-37" font-family="FreeSans.ttf" font-size="10.00">TNLP</text>
</a>
</g>
</g>
<!-- Node0 -->
<g id="node2" class="node">
<title>Node0</title>
<g id="a_node2"><a xlink:href="classiDynTree_1_1optimization_1_1NLPImplementation.html" target="_top" xlink:title=" ">
<polygon fill="none" stroke="black" points="79.5,-49.5 79.5,-79.5 206.5,-79.5 206.5,-49.5 79.5,-49.5"/>
<text text-anchor="start" x="87.5" y="-67.5" font-family="FreeSans.ttf" font-size="10.00">iDynTree::optimization</text>
<text text-anchor="middle" x="143" y="-56.5" font-family="FreeSans.ttf" font-size="10.00">::NLPImplementation</text>
</a>
</g>
</g>
<!-- Node55&#45;&gt;Node0 -->
<g id="edge1" class="edge">
<title>Node55&#45;&gt;Node0</title>
<path fill="none" stroke="midnightblue" d="M51.04,-45.63C59.69,-47.42 69.5,-49.46 79.39,-51.51"/>
<polygon fill="midnightblue" stroke="midnightblue" points="51.63,-42.18 41.13,-43.57 50.21,-49.03 51.63,-42.18"/>
</g>
<!-- Node57 -->
<g id="node3" class="node">
<title>Node57</title>
<g id="a_node3"><a xlink:href="classinternal_1_1kinematics_1_1InverseKinematicsNLP.html" target="_top" xlink:title="Implementation of the inverse kinematics with IPOPT.">
<polygon fill="none" stroke="black" points="77,-0.5 77,-30.5 209,-30.5 209,-0.5 77,-0.5"/>
<text text-anchor="start" x="85" y="-18.5" font-family="FreeSans.ttf" font-size="10.00">internal::kinematics</text>
<text text-anchor="middle" x="143" y="-7.5" font-family="FreeSans.ttf" font-size="10.00">::InverseKinematicsNLP</text>
</a>
</g>
</g>
<!-- Node55&#45;&gt;Node57 -->
<g id="edge2" class="edge">
<title>Node55&#45;&gt;Node57</title>
<path fill="none" stroke="midnightblue" d="M51.18,-33.59C59.03,-32.02 67.83,-30.27 76.77,-28.49"/>
<polygon fill="midnightblue" stroke="midnightblue" points="50.25,-30.2 41.13,-35.59 51.62,-37.07 50.25,-30.2"/>
</g>
</g>
</svg>
