<?xml version="1.0" encoding="UTF-8" standalone="no"?>
<!DOCTYPE svg PUBLIC "-//W3C//DTD SVG 1.1//EN"
 "http://www.w3.org/Graphics/SVG/1.1/DTD/svg11.dtd">
<!-- Generated by graphviz version 2.43.0 (0)
 -->
<!-- Title: Graphical Class Hierarchy Pages: 1 -->
<svg width="376pt" height="83pt"
 viewBox="0.00 0.00 376.00 83.00" xmlns="http://www.w3.org/2000/svg" xmlns:xlink="http://www.w3.org/1999/xlink">
<g id="graph0" class="graph" transform="scale(1 1) rotate(0) translate(4 79)">
<title>Graphical Class Hierarchy</title>
<!-- Node320 -->
<g id="node1" class="node">
<title>Node320</title>
<g id="a_node1"><a xlink:href="classiDynTree_1_1DiscreteExtendedKalmanFilterHelper.html" target="_top" xlink:title=" ">
<polygon fill="none" stroke="black" points="1.5,-44.5 1.5,-74.5 153.5,-74.5 153.5,-44.5 1.5,-44.5"/>
<text text-anchor="start" x="9.5" y="-62.5" font-family="FreeSans.ttf" font-size="10.00">iDynTree::DiscreteExtended</text>
<text text-anchor="middle" x="77.5" y="-51.5" font-family="FreeSans.ttf" font-size="10.00">KalmanFilterHelper</text>
</a>
</g>
</g>
<!-- Node2 -->
<g id="node2" class="node">
<title>Node2</title>
<g id="a_node2"><a xlink:href="classiDynTree_1_1AttitudeQuaternionEKF.html" target="_top" xlink:title=" ">
<polygon fill="none" stroke="black" points="191,-50 191,-69 368,-69 368,-50 191,-50"/>
<text text-anchor="middle" x="279.5" y="-57" font-family="FreeSans.ttf" font-size="10.00">iDynTree::AttitudeQuaternionEKF</text>
</a>
</g>
</g>
<!-- Node320&#45;&gt;Node2 -->
<g id="edge1" class="edge">
<title>Node320&#45;&gt;Node2</title>
<path fill="none" stroke="midnightblue" d="M163.65,-59.5C172.67,-59.5 181.86,-59.5 190.92,-59.5"/>
<polygon fill="midnightblue" stroke="midnightblue" points="163.54,-56 153.54,-59.5 163.54,-63 163.54,-56"/>
</g>
<!-- Node0 -->
<g id="node3" class="node">
<title>Node0</title>
<g id="a_node3"><a xlink:href="classiDynTree_1_1IAttitudeEstimator.html" target="_top" xlink:title=" ">
<polygon fill="none" stroke="black" points="0,-6 0,-25 155,-25 155,-6 0,-6"/>
<text text-anchor="middle" x="77.5" y="-13" font-family="FreeSans.ttf" font-size="10.00">iDynTree::IAttitudeEstimator</text>
</a>
</g>
</g>
<!-- Node0&#45;&gt;Node2 -->
<g id="edge3" class="edge">
<title>Node0&#45;&gt;Node2</title>
<path fill="none" stroke="midnightblue" d="M132.06,-27.28C164.35,-34.39 204.94,-43.32 235.19,-49.97"/>
<polygon fill="midnightblue" stroke="midnightblue" points="132.42,-23.78 121.9,-25.05 130.91,-30.61 132.42,-23.78"/>
</g>
<!-- Node1 -->
<g id="node4" class="node">
<title>Node1</title>
<g id="a_node4"><a xlink:href="classiDynTree_1_1AttitudeMahonyFilter.html" target="_top" xlink:title=" ">
<polygon fill="none" stroke="black" points="208,-0.5 208,-30.5 351,-30.5 351,-0.5 208,-0.5"/>
<text text-anchor="start" x="216" y="-18.5" font-family="FreeSans.ttf" font-size="10.00">iDynTree::AttitudeMahony</text>
<text text-anchor="middle" x="279.5" y="-7.5" font-family="FreeSans.ttf" font-size="10.00">Filter</text>
</a>
</g>
</g>
<!-- Node0&#45;&gt;Node1 -->
<g id="edge2" class="edge">
<title>Node0&#45;&gt;Node1</title>
<path fill="none" stroke="midnightblue" d="M165.48,-15.5C179.64,-15.5 194.15,-15.5 207.86,-15.5"/>
<polygon fill="midnightblue" stroke="midnightblue" points="165.25,-12 155.25,-15.5 165.25,-19 165.25,-12"/>
</g>
</g>
</svg>
