<?xml version="1.0" encoding="UTF-8" standalone="no"?>
<!DOCTYPE svg PUBLIC "-//W3C//DTD SVG 1.1//EN"
 "http://www.w3.org/Graphics/SVG/1.1/DTD/svg11.dtd">
<!-- Generated by graphviz version 2.43.0 (0)
 -->
<!-- Title: Graphical Class Hierarchy Pages: 1 -->
<svg width="497pt" height="66pt"
 viewBox="0.00 0.00 497.00 66.00" xmlns="http://www.w3.org/2000/svg" xmlns:xlink="http://www.w3.org/1999/xlink">
<g id="graph0" class="graph" transform="scale(1 1) rotate(0) translate(4 62)">
<title>Graphical Class Hierarchy</title>
<!-- Node0 -->
<g id="node1" class="node">
<title>Node0</title>
<g id="a_node1"><a xlink:href="classiDynTree_1_1SpatialVector.html" target="_top" xlink:title=" ">
<polygon fill="none" stroke="black" points="0,-14 0,-44 137,-44 137,-14 0,-14"/>
<text text-anchor="start" x="8" y="-32" font-family="FreeSans.ttf" font-size="10.00">iDynTree::SpatialVector</text>
<text text-anchor="middle" x="68.5" y="-21" font-family="FreeSans.ttf" font-size="10.00">&lt; SpatialMotionVector &gt;</text>
</a>
</g>
</g>
<!-- Node1 -->
<g id="node2" class="node">
<title>Node1</title>
<g id="a_node2"><a xlink:href="classiDynTree_1_1SpatialMotionVector.html" target="_top" xlink:title="Class providing the raw coordinates for any motion spatial vector (i.e.">
<polygon fill="none" stroke="black" points="173,-19.5 173,-38.5 337,-38.5 337,-19.5 173,-19.5"/>
<text text-anchor="middle" x="255" y="-26.5" font-family="FreeSans.ttf" font-size="10.00">iDynTree::SpatialMotionVector</text>
</a>
</g>
</g>
<!-- Node0&#45;&gt;Node1 -->
<g id="edge1" class="edge">
<title>Node0&#45;&gt;Node1</title>
<path fill="none" stroke="midnightblue" d="M147.35,-29C155.8,-29 164.41,-29 172.89,-29"/>
<polygon fill="midnightblue" stroke="midnightblue" points="147.15,-25.5 137.15,-29 147.15,-32.5 147.15,-25.5"/>
</g>
<!-- Node2 -->
<g id="node3" class="node">
<title>Node2</title>
<g id="a_node3"><a xlink:href="classiDynTree_1_1SpatialAcc.html" target="_top" xlink:title="Class representing a spatial acceleration, i.e.">
<polygon fill="none" stroke="black" points="373,-38.5 373,-57.5 489,-57.5 489,-38.5 373,-38.5"/>
<text text-anchor="middle" x="431" y="-45.5" font-family="FreeSans.ttf" font-size="10.00">iDynTree::SpatialAcc</text>
</a>
</g>
</g>
<!-- Node1&#45;&gt;Node2 -->
<g id="edge2" class="edge">
<title>Node1&#45;&gt;Node2</title>
<path fill="none" stroke="midnightblue" d="M347.32,-38.97C355.99,-39.92 364.6,-40.86 372.81,-41.76"/>
<polygon fill="midnightblue" stroke="midnightblue" points="347.46,-35.47 337.14,-37.86 346.7,-42.43 347.46,-35.47"/>
</g>
<!-- Node3 -->
<g id="node4" class="node">
<title>Node3</title>
<g id="a_node4"><a xlink:href="classiDynTree_1_1Twist.html" target="_top" xlink:title="Class representing a twist, i.e.">
<polygon fill="none" stroke="black" points="386,-0.5 386,-19.5 476,-19.5 476,-0.5 386,-0.5"/>
<text text-anchor="middle" x="431" y="-7.5" font-family="FreeSans.ttf" font-size="10.00">iDynTree::Twist</text>
</a>
</g>
</g>
<!-- Node1&#45;&gt;Node3 -->
<g id="edge3" class="edge">
<title>Node1&#45;&gt;Node3</title>
<path fill="none" stroke="midnightblue" d="M347.41,-19.02C360.84,-17.55 374.13,-16.1 385.99,-14.81"/>
<polygon fill="midnightblue" stroke="midnightblue" points="346.7,-15.57 337.14,-20.14 347.46,-22.53 346.7,-15.57"/>
</g>
</g>
</svg>
