<?xml version="1.0" encoding="UTF-8" standalone="no"?>
<!DOCTYPE svg PUBLIC "-//W3C//DTD SVG 1.1//EN"
 "http://www.w3.org/Graphics/SVG/1.1/DTD/svg11.dtd">
<!-- Generated by graphviz version 2.43.0 (0)
 -->
<!-- Title: Graphical Class Hierarchy Pages: 1 -->
<svg width="491pt" height="112pt"
 viewBox="0.00 0.00 491.00 112.00" xmlns="http://www.w3.org/2000/svg" xmlns:xlink="http://www.w3.org/1999/xlink">
<g id="graph0" class="graph" transform="scale(1 1) rotate(0) translate(4 108)">
<title>Graphical Class Hierarchy</title>
<!-- Node0 -->
<g id="node1" class="node">
<title>Node0</title>
<g id="a_node1"><a xlink:href="classiDynTree_1_1optimalcontrol_1_1Cost.html" target="_top" xlink:title="The Cost virtual class definition.">
<polygon fill="none" stroke="black" points="0,-48.5 0,-78.5 137,-78.5 137,-48.5 0,-48.5"/>
<text text-anchor="start" x="8" y="-66.5" font-family="FreeSans.ttf" font-size="10.00">iDynTree::optimalcontrol</text>
<text text-anchor="middle" x="68.5" y="-55.5" font-family="FreeSans.ttf" font-size="10.00">::Cost</text>
</a>
</g>
</g>
<!-- Node1 -->
<g id="node2" class="node">
<title>Node1</title>
<g id="a_node2"><a xlink:href="classiDynTree_1_1optimalcontrol_1_1L2NormCost.html" target="_top" xlink:title=" ">
<polygon fill="none" stroke="black" points="173,-73.5 173,-103.5 310,-103.5 310,-73.5 173,-73.5"/>
<text text-anchor="start" x="181" y="-91.5" font-family="FreeSans.ttf" font-size="10.00">iDynTree::optimalcontrol</text>
<text text-anchor="middle" x="241.5" y="-80.5" font-family="FreeSans.ttf" font-size="10.00">::L2NormCost</text>
</a>
</g>
</g>
<!-- Node0&#45;&gt;Node1 -->
<g id="edge1" class="edge">
<title>Node0&#45;&gt;Node1</title>
<path fill="none" stroke="midnightblue" d="M147.1,-74.85C155.69,-76.1 164.39,-77.37 172.85,-78.61"/>
<polygon fill="midnightblue" stroke="midnightblue" points="147.48,-71.36 137.08,-73.38 146.47,-78.29 147.48,-71.36"/>
</g>
<!-- Node2 -->
<g id="node3" class="node">
<title>Node2</title>
<g id="a_node3"><a xlink:href="classiDynTree_1_1optimalcontrol_1_1QuadraticLikeCost.html" target="_top" xlink:title=" ">
<polygon fill="none" stroke="black" points="173,-24.5 173,-54.5 310,-54.5 310,-24.5 173,-24.5"/>
<text text-anchor="start" x="181" y="-42.5" font-family="FreeSans.ttf" font-size="10.00">iDynTree::optimalcontrol</text>
<text text-anchor="middle" x="241.5" y="-31.5" font-family="FreeSans.ttf" font-size="10.00">::QuadraticLikeCost</text>
</a>
</g>
</g>
<!-- Node0&#45;&gt;Node2 -->
<g id="edge2" class="edge">
<title>Node0&#45;&gt;Node2</title>
<path fill="none" stroke="midnightblue" d="M147.1,-52.61C155.69,-51.4 164.39,-50.18 172.85,-49"/>
<polygon fill="midnightblue" stroke="midnightblue" points="146.5,-49.16 137.08,-54.01 147.47,-56.09 146.5,-49.16"/>
</g>
<!-- Node3 -->
<g id="node4" class="node">
<title>Node3</title>
<g id="a_node4"><a xlink:href="classiDynTree_1_1optimalcontrol_1_1LinearCost.html" target="_top" xlink:title=" ">
<polygon fill="none" stroke="black" points="346,-49.5 346,-79.5 483,-79.5 483,-49.5 346,-49.5"/>
<text text-anchor="start" x="354" y="-67.5" font-family="FreeSans.ttf" font-size="10.00">iDynTree::optimalcontrol</text>
<text text-anchor="middle" x="414.5" y="-56.5" font-family="FreeSans.ttf" font-size="10.00">::LinearCost</text>
</a>
</g>
</g>
<!-- Node2&#45;&gt;Node3 -->
<g id="edge3" class="edge">
<title>Node2&#45;&gt;Node3</title>
<path fill="none" stroke="midnightblue" d="M320.1,-50.85C328.69,-52.1 337.39,-53.37 345.85,-54.61"/>
<polygon fill="midnightblue" stroke="midnightblue" points="320.48,-47.36 310.08,-49.38 319.47,-54.29 320.48,-47.36"/>
</g>
<!-- Node4 -->
<g id="node5" class="node">
<title>Node4</title>
<g id="a_node5"><a xlink:href="classiDynTree_1_1optimalcontrol_1_1QuadraticCost.html" target="_top" xlink:title=" ">
<polygon fill="none" stroke="black" points="346,-0.5 346,-30.5 483,-30.5 483,-0.5 346,-0.5"/>
<text text-anchor="start" x="354" y="-18.5" font-family="FreeSans.ttf" font-size="10.00">iDynTree::optimalcontrol</text>
<text text-anchor="middle" x="414.5" y="-7.5" font-family="FreeSans.ttf" font-size="10.00">::QuadraticCost</text>
</a>
</g>
</g>
<!-- Node2&#45;&gt;Node4 -->
<g id="edge4" class="edge">
<title>Node2&#45;&gt;Node4</title>
<path fill="none" stroke="midnightblue" d="M320.1,-28.61C328.69,-27.4 337.39,-26.18 345.85,-25"/>
<polygon fill="midnightblue" stroke="midnightblue" points="319.5,-25.16 310.08,-30.01 320.47,-32.09 319.5,-25.16"/>
</g>
</g>
</svg>
