<?xml version="1.0" encoding="UTF-8" standalone="no"?>
<!DOCTYPE svg PUBLIC "-//W3C//DTD SVG 1.1//EN"
 "http://www.w3.org/Graphics/SVG/1.1/DTD/svg11.dtd">
<!-- Generated by graphviz version 2.43.0 (0)
 -->
<!-- Title: Graphical Class Hierarchy Pages: 1 -->
<svg width="343pt" height="127pt"
 viewBox="0.00 0.00 343.00 126.50" xmlns="http://www.w3.org/2000/svg" xmlns:xlink="http://www.w3.org/1999/xlink">
<g id="graph0" class="graph" transform="scale(1 1) rotate(0) translate(4 122.5)">
<title>Graphical Class Hierarchy</title>
<!-- Node0 -->
<g id="node1" class="node">
<title>Node0</title>
<g id="a_node1"><a xlink:href="classiDynTree_1_1MatrixFixSize.html" target="_top" xlink:title="Class providing a simple form of matrix with dynamic size.">
<polygon fill="none" stroke="black" points="0,-49.5 0,-79.5 131,-79.5 131,-49.5 0,-49.5"/>
<text text-anchor="start" x="8" y="-67.5" font-family="FreeSans.ttf" font-size="10.00">iDynTree::MatrixFixSize</text>
<text text-anchor="middle" x="65.5" y="-56.5" font-family="FreeSans.ttf" font-size="10.00">&lt; nRows, nCols &gt;</text>
</a>
</g>
</g>
<!-- Node1 -->
<g id="node2" class="node">
<title>Node1</title>
<g id="a_node2"><a xlink:href="classiDynTree_1_1RotationalInertiaRaw.html" target="_top" xlink:title="Class providing the raw coordinates for a 3d inertia matrix.">
<polygon fill="none" stroke="black" points="167,-99 167,-118 335,-118 335,-99 167,-99"/>
<text text-anchor="middle" x="251" y="-106" font-family="FreeSans.ttf" font-size="10.00">iDynTree::RotationalInertiaRaw</text>
</a>
</g>
</g>
<!-- Node0&#45;&gt;Node1 -->
<g id="edge1" class="edge">
<title>Node0&#45;&gt;Node1</title>
<path fill="none" stroke="midnightblue" d="M136.08,-81.99C146.44,-84.54 156.99,-87.11 167,-89.5 180.23,-92.66 194.67,-96 207.74,-98.99"/>
<polygon fill="midnightblue" stroke="midnightblue" points="136.79,-78.56 126.24,-79.56 135.11,-85.35 136.79,-78.56"/>
</g>
<!-- Node2 -->
<g id="node3" class="node">
<title>Node2</title>
<g id="a_node3"><a xlink:href="classiDynTree_1_1SpatialForceWrtMotionDerivative.html" target="_top" xlink:title="Class representing the derivative of a spatial force vector with respect to a spatial motion vector.">
<polygon fill="none" stroke="black" points="179.5,-49.5 179.5,-79.5 322.5,-79.5 322.5,-49.5 179.5,-49.5"/>
<text text-anchor="start" x="187.5" y="-67.5" font-family="FreeSans.ttf" font-size="10.00">iDynTree::SpatialForceWrt</text>
<text text-anchor="middle" x="251" y="-56.5" font-family="FreeSans.ttf" font-size="10.00">MotionDerivative</text>
</a>
</g>
</g>
<!-- Node0&#45;&gt;Node2 -->
<g id="edge2" class="edge">
<title>Node0&#45;&gt;Node2</title>
<path fill="none" stroke="midnightblue" d="M141.56,-64.5C154.05,-64.5 166.96,-64.5 179.34,-64.5"/>
<polygon fill="midnightblue" stroke="midnightblue" points="141.2,-61 131.2,-64.5 141.2,-68 141.2,-61"/>
</g>
<!-- Node3 -->
<g id="node4" class="node">
<title>Node3</title>
<g id="a_node4"><a xlink:href="classiDynTree_1_1SpatialMotionWrtMotionDerivative.html" target="_top" xlink:title="Class representing the derivative of a spatial motion vector with respect to another spatial motion v...">
<polygon fill="none" stroke="black" points="176,-0.5 176,-30.5 326,-30.5 326,-0.5 176,-0.5"/>
<text text-anchor="start" x="184" y="-18.5" font-family="FreeSans.ttf" font-size="10.00">iDynTree::SpatialMotionWrt</text>
<text text-anchor="middle" x="251" y="-7.5" font-family="FreeSans.ttf" font-size="10.00">MotionDerivative</text>
</a>
</g>
</g>
<!-- Node0&#45;&gt;Node3 -->
<g id="edge3" class="edge">
<title>Node0&#45;&gt;Node3</title>
<path fill="none" stroke="midnightblue" d="M132.5,-46.88C152.57,-41.52 174.44,-35.68 193.8,-30.51"/>
<polygon fill="midnightblue" stroke="midnightblue" points="131.56,-43.5 122.8,-49.47 133.37,-50.27 131.56,-43.5"/>
</g>
</g>
</svg>
