<?xml version="1.0" encoding="UTF-8" standalone="no"?>
<!DOCTYPE svg PUBLIC "-//W3C//DTD SVG 1.1//EN"
 "http://www.w3.org/Graphics/SVG/1.1/DTD/svg11.dtd">
<!-- Generated by graphviz version 2.43.0 (0)
 -->
<!-- Title: Graphical Class Hierarchy Pages: 1 -->
<svg width="224pt" height="88pt"
 viewBox="0.00 0.00 224.00 88.00" xmlns="http://www.w3.org/2000/svg" xmlns:xlink="http://www.w3.org/1999/xlink">
<g id="graph0" class="graph" transform="scale(1 1) rotate(0) translate(4 84)">
<title>Graphical Class Hierarchy</title>
<!-- Node212 -->
<g id="node1" class="node">
<title>Node212</title>
<g id="a_node1"><a xlink:title=" ">
<polygon fill="none" stroke="#bfbfbf" points="0,-30 0,-49 53,-49 53,-30 0,-30"/>
<text text-anchor="middle" x="26.5" y="-37" font-family="FreeSans.ttf" font-size="10.00">iterator</text>
</a>
</g>
</g>
<!-- Node0 -->
<g id="node2" class="node">
<title>Node0</title>
<g id="a_node2"><a xlink:href="classiDynTree_1_1optimization_1_1DenseIterator.html" target="_top" xlink:title=" ">
<polygon fill="none" stroke="black" points="89,-49.5 89,-79.5 216,-79.5 216,-49.5 89,-49.5"/>
<text text-anchor="start" x="97" y="-67.5" font-family="FreeSans.ttf" font-size="10.00">iDynTree::optimization</text>
<text text-anchor="middle" x="152.5" y="-56.5" font-family="FreeSans.ttf" font-size="10.00">::DenseIterator</text>
</a>
</g>
</g>
<!-- Node212&#45;&gt;Node0 -->
<g id="edge1" class="edge">
<title>Node212&#45;&gt;Node0</title>
<path fill="none" stroke="midnightblue" d="M63.26,-46.71C71.27,-48.32 80,-50.08 88.75,-51.85"/>
<polygon fill="midnightblue" stroke="midnightblue" points="63.69,-43.23 53.19,-44.68 62.3,-50.09 63.69,-43.23"/>
</g>
<!-- Node214 -->
<g id="node3" class="node">
<title>Node214</title>
<g id="a_node3"><a xlink:href="classiDynTree_1_1optimization_1_1TripletIterator.html" target="_top" xlink:title=" ">
<polygon fill="none" stroke="black" points="89,-0.5 89,-30.5 216,-30.5 216,-0.5 89,-0.5"/>
<text text-anchor="start" x="97" y="-18.5" font-family="FreeSans.ttf" font-size="10.00">iDynTree::optimization</text>
<text text-anchor="middle" x="152.5" y="-7.5" font-family="FreeSans.ttf" font-size="10.00">::TripletIterator</text>
</a>
</g>
</g>
<!-- Node212&#45;&gt;Node214 -->
<g id="edge2" class="edge">
<title>Node212&#45;&gt;Node214</title>
<path fill="none" stroke="midnightblue" d="M63.26,-32.58C71.27,-31.03 80,-29.34 88.75,-27.65"/>
<polygon fill="midnightblue" stroke="midnightblue" points="62.35,-29.19 53.19,-34.53 63.68,-36.06 62.35,-29.19"/>
</g>
</g>
</svg>
