<?xml version="1.0" encoding="UTF-8" standalone="no"?>
<!DOCTYPE svg PUBLIC "-//W3C//DTD SVG 1.1//EN"
 "http://www.w3.org/Graphics/SVG/1.1/DTD/svg11.dtd">
<!-- Generated by graphviz version 2.43.0 (0)
 -->
<!-- Title: Graphical Class Hierarchy Pages: 1 -->
<svg width="318pt" height="88pt"
 viewBox="0.00 0.00 318.00 88.00" xmlns="http://www.w3.org/2000/svg" xmlns:xlink="http://www.w3.org/1999/xlink">
<g id="graph0" class="graph" transform="scale(1 1) rotate(0) translate(4 84)">
<title>Graphical Class Hierarchy</title>
<!-- Node0 -->
<g id="node1" class="node">
<title>Node0</title>
<g id="a_node1"><a xlink:href="classiDynTree_1_1optimalcontrol_1_1Selector.html" target="_top" xlink:title=" ">
<polygon fill="none" stroke="black" points="0,-24.5 0,-54.5 137,-54.5 137,-24.5 0,-24.5"/>
<text text-anchor="start" x="8" y="-42.5" font-family="FreeSans.ttf" font-size="10.00">iDynTree::optimalcontrol</text>
<text text-anchor="middle" x="68.5" y="-31.5" font-family="FreeSans.ttf" font-size="10.00">::Selector</text>
</a>
</g>
</g>
<!-- Node1 -->
<g id="node2" class="node">
<title>Node1</title>
<g id="a_node2"><a xlink:href="classiDynTree_1_1optimalcontrol_1_1IndexSelector.html" target="_top" xlink:title=" ">
<polygon fill="none" stroke="black" points="173,-49.5 173,-79.5 310,-79.5 310,-49.5 173,-49.5"/>
<text text-anchor="start" x="181" y="-67.5" font-family="FreeSans.ttf" font-size="10.00">iDynTree::optimalcontrol</text>
<text text-anchor="middle" x="241.5" y="-56.5" font-family="FreeSans.ttf" font-size="10.00">::IndexSelector</text>
</a>
</g>
</g>
<!-- Node0&#45;&gt;Node1 -->
<g id="edge1" class="edge">
<title>Node0&#45;&gt;Node1</title>
<path fill="none" stroke="midnightblue" d="M147.1,-50.85C155.69,-52.1 164.39,-53.37 172.85,-54.61"/>
<polygon fill="midnightblue" stroke="midnightblue" points="147.48,-47.36 137.08,-49.38 146.47,-54.29 147.48,-47.36"/>
</g>
<!-- Node2 -->
<g id="node3" class="node">
<title>Node2</title>
<g id="a_node3"><a xlink:href="classiDynTree_1_1optimalcontrol_1_1MatrixSelector.html" target="_top" xlink:title=" ">
<polygon fill="none" stroke="black" points="173,-0.5 173,-30.5 310,-30.5 310,-0.5 173,-0.5"/>
<text text-anchor="start" x="181" y="-18.5" font-family="FreeSans.ttf" font-size="10.00">iDynTree::optimalcontrol</text>
<text text-anchor="middle" x="241.5" y="-7.5" font-family="FreeSans.ttf" font-size="10.00">::MatrixSelector</text>
</a>
</g>
</g>
<!-- Node0&#45;&gt;Node2 -->
<g id="edge2" class="edge">
<title>Node0&#45;&gt;Node2</title>
<path fill="none" stroke="midnightblue" d="M147.1,-28.61C155.69,-27.4 164.39,-26.18 172.85,-25"/>
<polygon fill="midnightblue" stroke="midnightblue" points="146.5,-25.16 137.08,-30.01 147.47,-32.09 146.5,-25.16"/>
</g>
</g>
</svg>
