<?xml version="1.0" encoding="UTF-8" standalone="no"?>
<!DOCTYPE svg PUBLIC "-//W3C//DTD SVG 1.1//EN"
 "http://www.w3.org/Graphics/SVG/1.1/DTD/svg11.dtd">
<!-- Generated by graphviz version 2.43.0 (0)
 -->
<!-- Title: Graphical Class Hierarchy Pages: 1 -->
<svg width="264pt" height="66pt"
 viewBox="0.00 0.00 264.00 66.00" xmlns="http://www.w3.org/2000/svg" xmlns:xlink="http://www.w3.org/1999/xlink">
<g id="graph0" class="graph" transform="scale(1 1) rotate(0) translate(4 62)">
<title>Graphical Class Hierarchy</title>
<!-- Node0 -->
<g id="node1" class="node">
<title>Node0</title>
<g id="a_node1"><a xlink:href="classiDynTree_1_1ILight.html" target="_top" xlink:title="Interface to a light visualization.">
<polygon fill="none" stroke="black" points="0,-19.5 0,-38.5 92,-38.5 92,-19.5 0,-19.5"/>
<text text-anchor="middle" x="46" y="-26.5" font-family="FreeSans.ttf" font-size="10.00">iDynTree::ILight</text>
</a>
</g>
</g>
<!-- Node1 -->
<g id="node2" class="node">
<title>Node1</title>
<g id="a_node2"><a xlink:href="classiDynTree_1_1DummyLight.html" target="_top" xlink:title="Dummy light.">
<polygon fill="none" stroke="black" points="128,-38.5 128,-57.5 256,-57.5 256,-38.5 128,-38.5"/>
<text text-anchor="middle" x="192" y="-45.5" font-family="FreeSans.ttf" font-size="10.00">iDynTree::DummyLight</text>
</a>
</g>
</g>
<!-- Node0&#45;&gt;Node1 -->
<g id="edge1" class="edge">
<title>Node0&#45;&gt;Node1</title>
<path fill="none" stroke="midnightblue" d="M102.19,-36.28C110.57,-37.39 119.26,-38.53 127.79,-39.66"/>
<polygon fill="midnightblue" stroke="midnightblue" points="102.54,-32.8 92.17,-34.96 101.62,-39.74 102.54,-32.8"/>
</g>
<!-- Node2 -->
<g id="node3" class="node">
<title>Node2</title>
<g id="a_node3"><a xlink:href="classiDynTree_1_1Light.html" target="_top" xlink:title=" ">
<polygon fill="none" stroke="black" points="147.5,-0.5 147.5,-19.5 236.5,-19.5 236.5,-0.5 147.5,-0.5"/>
<text text-anchor="middle" x="192" y="-7.5" font-family="FreeSans.ttf" font-size="10.00">iDynTree::Light</text>
</a>
</g>
</g>
<!-- Node0&#45;&gt;Node2 -->
<g id="edge2" class="edge">
<title>Node0&#45;&gt;Node2</title>
<path fill="none" stroke="midnightblue" d="M102.33,-21.7C117.29,-19.73 133.26,-17.62 147.47,-15.74"/>
<polygon fill="midnightblue" stroke="midnightblue" points="101.62,-18.26 92.17,-23.04 102.54,-25.2 101.62,-18.26"/>
</g>
</g>
</svg>
