<?xml version="1.0" encoding="UTF-8" standalone="no"?>
<!DOCTYPE svg PUBLIC "-//W3C//DTD SVG 1.1//EN"
 "http://www.w3.org/Graphics/SVG/1.1/DTD/svg11.dtd">
<!-- Generated by graphviz version 2.43.0 (0)
 -->
<!-- Title: Graphical Class Hierarchy Pages: 1 -->
<svg width="404pt" height="66pt"
 viewBox="0.00 0.00 404.00 66.00" xmlns="http://www.w3.org/2000/svg" xmlns:xlink="http://www.w3.org/1999/xlink">
<g id="graph0" class="graph" transform="scale(1 1) rotate(0) translate(4 62)">
<title>Graphical Class Hierarchy</title>
<!-- Node0 -->
<g id="node1" class="node">
<title>Node0</title>
<g id="a_node1"><a xlink:href="classiDynTree_1_1IFrameVisualization.html" target="_top" xlink:title="Interface to the visualization of frames.">
<polygon fill="none" stroke="black" points="0,-19.5 0,-38.5 162,-38.5 162,-19.5 0,-19.5"/>
<text text-anchor="middle" x="81" y="-26.5" font-family="FreeSans.ttf" font-size="10.00">iDynTree::IFrameVisualization</text>
</a>
</g>
</g>
<!-- Node1 -->
<g id="node2" class="node">
<title>Node1</title>
<g id="a_node2"><a xlink:href="classiDynTree_1_1DummyFrameVisualization.html" target="_top" xlink:title=" ">
<polygon fill="none" stroke="black" points="198,-38.5 198,-57.5 396,-57.5 396,-38.5 198,-38.5"/>
<text text-anchor="middle" x="297" y="-45.5" font-family="FreeSans.ttf" font-size="10.00">iDynTree::DummyFrameVisualization</text>
</a>
</g>
</g>
<!-- Node0&#45;&gt;Node1 -->
<g id="edge1" class="edge">
<title>Node0&#45;&gt;Node1</title>
<path fill="none" stroke="midnightblue" d="M172.47,-37.03C180.88,-37.78 189.44,-38.54 197.91,-39.29"/>
<polygon fill="midnightblue" stroke="midnightblue" points="172.56,-33.53 162.29,-36.13 171.95,-40.5 172.56,-33.53"/>
</g>
<!-- Node2 -->
<g id="node3" class="node">
<title>Node2</title>
<g id="a_node3"><a xlink:href="classiDynTree_1_1FrameVisualization.html" target="_top" xlink:title=" ">
<polygon fill="none" stroke="black" points="217.5,-0.5 217.5,-19.5 376.5,-19.5 376.5,-0.5 217.5,-0.5"/>
<text text-anchor="middle" x="297" y="-7.5" font-family="FreeSans.ttf" font-size="10.00">iDynTree::FrameVisualization</text>
</a>
</g>
</g>
<!-- Node0&#45;&gt;Node2 -->
<g id="edge2" class="edge">
<title>Node0&#45;&gt;Node2</title>
<path fill="none" stroke="midnightblue" d="M172.53,-20.96C187.45,-19.64 202.8,-18.28 217.39,-16.98"/>
<polygon fill="midnightblue" stroke="midnightblue" points="171.95,-17.5 162.29,-21.87 172.56,-24.47 171.95,-17.5"/>
</g>
</g>
</svg>
