<?xml version="1.0" encoding="UTF-8" standalone="no"?>
<!DOCTYPE svg PUBLIC "-//W3C//DTD SVG 1.1//EN"
 "http://www.w3.org/Graphics/SVG/1.1/DTD/svg11.dtd">
<!-- Generated by graphviz version 2.43.0 (0)
 -->
<!-- Title: IpoptInterface.h Pages: 1 -->
<svg width="320pt" height="84pt"
 viewBox="0.00 0.00 319.50 84.00" xmlns="http://www.w3.org/2000/svg" xmlns:xlink="http://www.w3.org/1999/xlink">
<g id="graph0" class="graph" transform="scale(1 1) rotate(0) translate(4 80)">
<title>IpoptInterface.h</title>
<!-- Node1 -->
<g id="node1" class="node">
<title>Node1</title>
<g id="a_node1"><a xlink:title=" ">
<polygon fill="#bfbfbf" stroke="black" points="87.5,-56.5 87.5,-75.5 181.5,-75.5 181.5,-56.5 87.5,-56.5"/>
<text text-anchor="middle" x="134.5" y="-63.5" font-family="FreeSans.ttf" font-size="10.00">IpoptInterface.h</text>
</a>
</g>
</g>
<!-- Node2 -->
<g id="node2" class="node">
<title>Node2</title>
<g id="a_node2"><a xlink:href="IpoptInterface_8cpp.html" target="_top" xlink:title=" ">
<polygon fill="none" stroke="black" points="0,-0.5 0,-19.5 105,-19.5 105,-0.5 0,-0.5"/>
<text text-anchor="middle" x="52.5" y="-7.5" font-family="FreeSans.ttf" font-size="10.00">IpoptInterface.cpp</text>
</a>
</g>
</g>
<!-- Node1&#45;&gt;Node2 -->
<g id="edge1" class="edge">
<title>Node1&#45;&gt;Node2</title>
<path fill="none" stroke="midnightblue" d="M112.67,-50.62C97.69,-40.76 78.3,-27.99 65.64,-19.65"/>
<polygon fill="midnightblue" stroke="midnightblue" points="111.05,-53.75 121.33,-56.32 114.9,-47.9 111.05,-53.75"/>
</g>
<!-- Node3 -->
<g id="node3" class="node">
<title>Node3</title>
<g id="a_node3"><a xlink:href="IpoptInterfaceNotImplemented_8cpp.html" target="_top" xlink:title=" ">
<polygon fill="none" stroke="black" points="123.5,-0.5 123.5,-19.5 311.5,-19.5 311.5,-0.5 123.5,-0.5"/>
<text text-anchor="middle" x="217.5" y="-7.5" font-family="FreeSans.ttf" font-size="10.00">IpoptInterfaceNotImplemented.cpp</text>
</a>
</g>
</g>
<!-- Node1&#45;&gt;Node3 -->
<g id="edge2" class="edge">
<title>Node1&#45;&gt;Node3</title>
<path fill="none" stroke="midnightblue" d="M156.6,-50.62C171.76,-40.76 191.38,-27.99 204.2,-19.65"/>
<polygon fill="midnightblue" stroke="midnightblue" points="154.31,-47.94 147.84,-56.32 158.13,-53.8 154.31,-47.94"/>
</g>
</g>
</svg>
