<?xml version="1.0" encoding="UTF-8" standalone="no"?>
<!DOCTYPE svg PUBLIC "-//W3C//DTD SVG 1.1//EN"
 "http://www.w3.org/Graphics/SVG/1.1/DTD/svg11.dtd">
<!-- Generated by graphviz version 2.43.0 (0)
 -->
<!-- Title: IpoptInterface.h Pages: 1 -->
<svg width="247pt" height="196pt"
 viewBox="0.00 0.00 246.50 196.00" xmlns="http://www.w3.org/2000/svg" xmlns:xlink="http://www.w3.org/1999/xlink">
<g id="graph0" class="graph" transform="scale(1 1) rotate(0) translate(4 192)">
<title>IpoptInterface.h</title>
<!-- Node1 -->
<g id="node1" class="node">
<title>Node1</title>
<g id="a_node1"><a xlink:title=" ">
<polygon fill="#bfbfbf" stroke="black" points="0,-168.5 0,-187.5 94,-187.5 94,-168.5 0,-168.5"/>
<text text-anchor="middle" x="47" y="-175.5" font-family="FreeSans.ttf" font-size="10.00">IpoptInterface.h</text>
</a>
</g>
</g>
<!-- Node2 -->
<g id="node2" class="node">
<title>Node2</title>
<g id="a_node2"><a xlink:title=" ">
<polygon fill="none" stroke="#bfbfbf" points="6,-0.5 6,-19.5 64,-19.5 64,-0.5 6,-0.5"/>
<text text-anchor="middle" x="35" y="-7.5" font-family="FreeSans.ttf" font-size="10.00">memory</text>
</a>
</g>
</g>
<!-- Node1&#45;&gt;Node2 -->
<g id="edge1" class="edge">
<title>Node1&#45;&gt;Node2</title>
<path fill="none" stroke="midnightblue" d="M38.52,-168.23C30.95,-159.75 20.4,-146.13 16,-132 4.94,-96.45 17.9,-52.93 27.19,-28.97"/>
<polygon fill="midnightblue" stroke="midnightblue" points="30.43,-30.28 30.99,-19.7 23.96,-27.63 30.43,-30.28"/>
</g>
<!-- Node3 -->
<g id="node3" class="node">
<title>Node3</title>
<g id="a_node3"><a xlink:title=" ">
<polygon fill="none" stroke="#bfbfbf" points="25,-112.5 25,-131.5 69,-131.5 69,-112.5 25,-112.5"/>
<text text-anchor="middle" x="47" y="-119.5" font-family="FreeSans.ttf" font-size="10.00">string</text>
</a>
</g>
</g>
<!-- Node1&#45;&gt;Node3 -->
<g id="edge2" class="edge">
<title>Node1&#45;&gt;Node3</title>
<path fill="none" stroke="midnightblue" d="M47,-168.08C47,-161.01 47,-150.86 47,-141.99"/>
<polygon fill="midnightblue" stroke="midnightblue" points="50.5,-141.75 47,-131.75 43.5,-141.75 50.5,-141.75"/>
</g>
<!-- Node4 -->
<g id="node4" class="node">
<title>Node4</title>
<g id="a_node4"><a xlink:href="Optimizer_8h.html" target="_top" xlink:title=" ">
<polygon fill="none" stroke="black" points="87.5,-112.5 87.5,-131.5 206.5,-131.5 206.5,-112.5 87.5,-112.5"/>
<text text-anchor="middle" x="147" y="-119.5" font-family="FreeSans.ttf" font-size="10.00">iDynTree/Optimizer.h</text>
</a>
</g>
</g>
<!-- Node1&#45;&gt;Node4 -->
<g id="edge3" class="edge">
<title>Node1&#45;&gt;Node4</title>
<path fill="none" stroke="midnightblue" d="M63.07,-168.32C78.96,-159.74 103.51,-146.49 121.96,-136.52"/>
<polygon fill="midnightblue" stroke="midnightblue" points="123.84,-139.49 130.97,-131.65 120.51,-133.33 123.84,-139.49"/>
</g>
<!-- Node4&#45;&gt;Node2 -->
<g id="edge4" class="edge">
<title>Node4&#45;&gt;Node2</title>
<path fill="none" stroke="midnightblue" d="M113.9,-112.43C93.91,-105.65 69.41,-94.21 54,-76 42.97,-62.97 38.34,-43.81 36.4,-29.67"/>
<polygon fill="midnightblue" stroke="midnightblue" points="39.87,-29.19 35.35,-19.61 32.91,-29.92 39.87,-29.19"/>
</g>
<!-- Node5 -->
<g id="node5" class="node">
<title>Node5</title>
<g id="a_node5"><a xlink:href="OptimizationProblem_8h.html" target="_top" xlink:title=" ">
<polygon fill="none" stroke="black" points="63.5,-56.5 63.5,-75.5 238.5,-75.5 238.5,-56.5 63.5,-56.5"/>
<text text-anchor="middle" x="151" y="-63.5" font-family="FreeSans.ttf" font-size="10.00">iDynTree/OptimizationProblem.h</text>
</a>
</g>
</g>
<!-- Node4&#45;&gt;Node5 -->
<g id="edge5" class="edge">
<title>Node4&#45;&gt;Node5</title>
<path fill="none" stroke="midnightblue" d="M147.66,-112.08C148.18,-105.01 148.94,-94.86 149.59,-85.99"/>
<polygon fill="midnightblue" stroke="midnightblue" points="153.1,-85.98 150.35,-75.75 146.12,-85.47 153.1,-85.98"/>
</g>
<!-- Node5&#45;&gt;Node2 -->
<g id="edge7" class="edge">
<title>Node5&#45;&gt;Node2</title>
<path fill="none" stroke="midnightblue" d="M132.62,-56.44C113.78,-47.68 84.27,-33.94 62.62,-23.86"/>
<polygon fill="midnightblue" stroke="midnightblue" points="63.84,-20.56 53.29,-19.52 60.88,-26.91 63.84,-20.56"/>
</g>
<!-- Node6 -->
<g id="node6" class="node">
<title>Node6</title>
<g id="a_node6"><a xlink:title=" ">
<polygon fill="none" stroke="#bfbfbf" points="104.5,-0.5 104.5,-19.5 151.5,-19.5 151.5,-0.5 104.5,-0.5"/>
<text text-anchor="middle" x="128" y="-7.5" font-family="FreeSans.ttf" font-size="10.00">vector</text>
</a>
</g>
</g>
<!-- Node5&#45;&gt;Node6 -->
<g id="edge6" class="edge">
<title>Node5&#45;&gt;Node6</title>
<path fill="none" stroke="midnightblue" d="M147.2,-56.08C144.09,-48.77 139.58,-38.18 135.71,-29.1"/>
<polygon fill="midnightblue" stroke="midnightblue" points="138.87,-27.58 131.73,-19.75 132.43,-30.32 138.87,-27.58"/>
</g>
<!-- Node7 -->
<g id="node7" class="node">
<title>Node7</title>
<g id="a_node7"><a xlink:title=" ">
<polygon fill="none" stroke="#bfbfbf" points="169.5,-0.5 169.5,-19.5 222.5,-19.5 222.5,-0.5 169.5,-0.5"/>
<text text-anchor="middle" x="196" y="-7.5" font-family="FreeSans.ttf" font-size="10.00">cstddef</text>
</a>
</g>
</g>
<!-- Node5&#45;&gt;Node7 -->
<g id="edge8" class="edge">
<title>Node5&#45;&gt;Node7</title>
<path fill="none" stroke="midnightblue" d="M158.43,-56.08C164.85,-48.38 174.31,-37.03 182.12,-27.65"/>
<polygon fill="midnightblue" stroke="midnightblue" points="184.99,-29.67 188.71,-19.75 179.62,-25.19 184.99,-29.67"/>
</g>
</g>
</svg>
