<?xml version="1.0" encoding="UTF-8" standalone="no"?>
<!DOCTYPE svg PUBLIC "-//W3C//DTD SVG 1.1//EN"
 "http://www.w3.org/Graphics/SVG/1.1/DTD/svg11.dtd">
<!-- Generated by graphviz version 2.43.0 (0)
 -->
<!-- Title: JointState.h Pages: 1 -->
<svg width="3474pt" height="330pt"
 viewBox="0.00 0.00 3474.47 330.00" xmlns="http://www.w3.org/2000/svg" xmlns:xlink="http://www.w3.org/1999/xlink">
<g id="graph0" class="graph" transform="scale(1 1) rotate(0) translate(4 326)">
<title>JointState.h</title>
<!-- Node1 -->
<g id="node1" class="node">
<title>Node1</title>
<g id="a_node1"><a xlink:title=" ">
<polygon fill="#bfbfbf" stroke="black" points="1300.78,-302.5 1300.78,-321.5 1373.78,-321.5 1373.78,-302.5 1300.78,-302.5"/>
<text text-anchor="middle" x="1337.28" y="-309.5" font-family="FreeSans.ttf" font-size="10.00">JointState.h</text>
</a>
</g>
</g>
<!-- Node2 -->
<g id="node2" class="node">
<title>Node2</title>
<g id="a_node2"><a xlink:href="ExtWrenchesAndJointTorquesEstimator_8h.html" target="_top" xlink:title=" ">
<polygon fill="none" stroke="black" points="15.28,-179.5 15.28,-209.5 173.28,-209.5 173.28,-179.5 15.28,-179.5"/>
<text text-anchor="start" x="23.28" y="-197.5" font-family="FreeSans.ttf" font-size="10.00">ExtWrenchesAndJointTorques</text>
<text text-anchor="middle" x="94.28" y="-186.5" font-family="FreeSans.ttf" font-size="10.00">Estimator.h</text>
</a>
</g>
</g>
<!-- Node1&#45;&gt;Node2 -->
<g id="edge1" class="edge">
<title>Node1&#45;&gt;Node2</title>
<path fill="none" stroke="midnightblue" d="M1290.31,-309.96C1166.82,-306.89 822.9,-296.08 538.28,-266 406.91,-252.12 255.18,-225.78 167.43,-209.52"/>
<polygon fill="midnightblue" stroke="midnightblue" points="1290.46,-313.47 1300.54,-310.21 1290.63,-306.47 1290.46,-313.47"/>
</g>
<!-- Node3 -->
<g id="node3" class="node">
<title>Node3</title>
<g id="a_node3"><a xlink:href="ExtWrenchesAndJointTorquesEstimator_8cpp.html" target="_top" xlink:title=" ">
<polygon fill="none" stroke="black" points="5.28,-112.5 5.28,-142.5 163.28,-142.5 163.28,-112.5 5.28,-112.5"/>
<text text-anchor="start" x="13.28" y="-130.5" font-family="FreeSans.ttf" font-size="10.00">ExtWrenchesAndJointTorques</text>
<text text-anchor="middle" x="84.28" y="-119.5" font-family="FreeSans.ttf" font-size="10.00">Estimator.cpp</text>
</a>
</g>
</g>
<!-- Node1&#45;&gt;Node3 -->
<g id="edge6" class="edge">
<title>Node1&#45;&gt;Node3</title>
<path fill="none" stroke="midnightblue" d="M1290.37,-311.25C1063.98,-311.94 91.88,-309.1 6.28,-210 -14.97,-185.4 24.13,-158.43 54.26,-142.51"/>
<polygon fill="midnightblue" stroke="midnightblue" points="1290.59,-314.75 1300.58,-311.21 1290.56,-307.75 1290.59,-314.75"/>
</g>
<!-- Node4 -->
<g id="node4" class="node">
<title>Node4</title>
<g id="a_node4"><a xlink:href="SimpleLeggedOdometry_8h.html" target="_top" xlink:title=" ">
<polygon fill="none" stroke="black" points="1266.28,-246.5 1266.28,-265.5 1408.28,-265.5 1408.28,-246.5 1266.28,-246.5"/>
<text text-anchor="middle" x="1337.28" y="-253.5" font-family="FreeSans.ttf" font-size="10.00">SimpleLeggedOdometry.h</text>
</a>
</g>
</g>
<!-- Node1&#45;&gt;Node4 -->
<g id="edge3" class="edge">
<title>Node1&#45;&gt;Node4</title>
<path fill="none" stroke="midnightblue" d="M1337.28,-291.8C1337.28,-282.91 1337.28,-272.78 1337.28,-265.75"/>
<polygon fill="midnightblue" stroke="midnightblue" points="1333.78,-292.08 1337.28,-302.08 1340.78,-292.08 1333.78,-292.08"/>
</g>
<!-- Node6 -->
<g id="node6" class="node">
<title>Node6</title>
<g id="a_node6"><a xlink:href="ExternalWrenchesEstimation_8cpp.html" target="_top" xlink:title=" ">
<polygon fill="none" stroke="black" points="1426.28,-246.5 1426.28,-265.5 1604.28,-265.5 1604.28,-246.5 1426.28,-246.5"/>
<text text-anchor="middle" x="1515.28" y="-253.5" font-family="FreeSans.ttf" font-size="10.00">ExternalWrenchesEstimation.cpp</text>
</a>
</g>
</g>
<!-- Node1&#45;&gt;Node6 -->
<g id="edge5" class="edge">
<title>Node1&#45;&gt;Node6</title>
<path fill="none" stroke="midnightblue" d="M1375.4,-299.44C1408.96,-289.26 1457.05,-274.66 1487.21,-265.52"/>
<polygon fill="midnightblue" stroke="midnightblue" points="1374.04,-296.19 1365.48,-302.44 1376.07,-302.89 1374.04,-296.19"/>
</g>
<!-- Node7 -->
<g id="node7" class="node">
<title>Node7</title>
<g id="a_node7"><a xlink:href="Dynamics_8h.html" target="_top" xlink:title=" ">
<polygon fill="none" stroke="black" points="547.28,-246.5 547.28,-265.5 621.28,-265.5 621.28,-246.5 547.28,-246.5"/>
<text text-anchor="middle" x="584.28" y="-253.5" font-family="FreeSans.ttf" font-size="10.00">Dynamics.h</text>
</a>
</g>
</g>
<!-- Node1&#45;&gt;Node7 -->
<g id="edge7" class="edge">
<title>Node1&#45;&gt;Node7</title>
<path fill="none" stroke="midnightblue" d="M1290.44,-307.64C1152.01,-297.71 746.67,-268.65 621.52,-259.67"/>
<polygon fill="midnightblue" stroke="midnightblue" points="1290.48,-311.15 1300.71,-308.38 1290.98,-304.17 1290.48,-311.15"/>
</g>
<!-- Node16 -->
<g id="node16" class="node">
<title>Node16</title>
<g id="a_node16"><a xlink:href="Dynamics_8cpp.html" target="_top" xlink:title=" ">
<polygon fill="none" stroke="black" points="1045.28,-185 1045.28,-204 1131.28,-204 1131.28,-185 1045.28,-185"/>
<text text-anchor="middle" x="1088.28" y="-192" font-family="FreeSans.ttf" font-size="10.00">Dynamics.cpp</text>
</a>
</g>
</g>
<!-- Node1&#45;&gt;Node16 -->
<g id="edge36" class="edge">
<title>Node1&#45;&gt;Node16</title>
<path fill="none" stroke="midnightblue" d="M1290.76,-305.58C1237.03,-298.54 1152.74,-284.89 1127.28,-266 1106.16,-250.33 1095.03,-219.66 1090.6,-204.46"/>
<polygon fill="midnightblue" stroke="midnightblue" points="1290.38,-309.06 1300.75,-306.85 1291.27,-302.11 1290.38,-309.06"/>
</g>
<!-- Node18 -->
<g id="node18" class="node">
<title>Node18</title>
<g id="a_node18"><a xlink:href="FreeFloatingState_8h.html" target="_top" xlink:title=" ">
<polygon fill="none" stroke="black" points="1136.28,-246.5 1136.28,-265.5 1248.28,-265.5 1248.28,-246.5 1136.28,-246.5"/>
<text text-anchor="middle" x="1192.28" y="-253.5" font-family="FreeSans.ttf" font-size="10.00">FreeFloatingState.h</text>
</a>
</g>
</g>
<!-- Node1&#45;&gt;Node18 -->
<g id="edge20" class="edge">
<title>Node1&#45;&gt;Node18</title>
<path fill="none" stroke="midnightblue" d="M1304.8,-298.91C1277.54,-288.75 1239.29,-274.51 1215.15,-265.52"/>
<polygon fill="midnightblue" stroke="midnightblue" points="1303.71,-302.23 1314.3,-302.44 1306.15,-295.67 1303.71,-302.23"/>
</g>
<!-- Node27 -->
<g id="node27" class="node">
<title>Node27</title>
<g id="a_node27"><a xlink:href="JointState_8cpp.html" target="_top" xlink:title=" ">
<polygon fill="none" stroke="black" points="1622.28,-246.5 1622.28,-265.5 1706.28,-265.5 1706.28,-246.5 1622.28,-246.5"/>
<text text-anchor="middle" x="1664.28" y="-253.5" font-family="FreeSans.ttf" font-size="10.00">JointState.cpp</text>
</a>
</g>
</g>
<!-- Node1&#45;&gt;Node27 -->
<g id="edge37" class="edge">
<title>Node1&#45;&gt;Node27</title>
<path fill="none" stroke="midnightblue" d="M1384.03,-303.57C1438.95,-294.79 1532.79,-279.66 1613.28,-266 1616.2,-265.5 1619.22,-264.99 1622.26,-264.46"/>
<polygon fill="midnightblue" stroke="midnightblue" points="1383.24,-300.15 1373.91,-305.18 1384.34,-307.06 1383.24,-300.15"/>
</g>
<!-- Node28 -->
<g id="node28" class="node">
<title>Node28</title>
<g id="a_node28"><a xlink:href="SubModel_8cpp.html" target="_top" xlink:title=" ">
<polygon fill="none" stroke="black" points="1724.78,-246.5 1724.78,-265.5 1809.78,-265.5 1809.78,-246.5 1724.78,-246.5"/>
<text text-anchor="middle" x="1767.28" y="-253.5" font-family="FreeSans.ttf" font-size="10.00">SubModel.cpp</text>
</a>
</g>
</g>
<!-- Node1&#45;&gt;Node28 -->
<g id="edge38" class="edge">
<title>Node1&#45;&gt;Node28</title>
<path fill="none" stroke="midnightblue" d="M1383.88,-306.25C1455.35,-298.8 1596.23,-283.38 1715.28,-266 1718.36,-265.55 1721.54,-265.06 1724.74,-264.55"/>
<polygon fill="midnightblue" stroke="midnightblue" points="1383.44,-302.78 1373.85,-307.3 1384.16,-309.74 1383.44,-302.78"/>
</g>
<!-- Node29 -->
<g id="node29" class="node">
<title>Node29</title>
<g id="a_node29"><a xlink:href="Visualizer_8h.html" target="_top" xlink:title=" ">
<polygon fill="none" stroke="black" points="2774.78,-246.5 2774.78,-265.5 2847.78,-265.5 2847.78,-246.5 2774.78,-246.5"/>
<text text-anchor="middle" x="2811.28" y="-253.5" font-family="FreeSans.ttf" font-size="10.00">Visualizer.h</text>
</a>
</g>
</g>
<!-- Node1&#45;&gt;Node29 -->
<g id="edge39" class="edge">
<title>Node1&#45;&gt;Node29</title>
<path fill="none" stroke="midnightblue" d="M1384.23,-309.28C1609.11,-301.04 2573.55,-265.71 2774.5,-258.35"/>
<polygon fill="midnightblue" stroke="midnightblue" points="1383.95,-305.79 1374.08,-309.65 1384.2,-312.78 1383.95,-305.79"/>
</g>
<!-- Node51 -->
<g id="node44" class="node">
<title>Node51</title>
<g id="a_node44"><a xlink:href="Visualizer_8cpp.html" target="_top" xlink:title=" ">
<polygon fill="none" stroke="black" points="2139.28,-118 2139.28,-137 2223.28,-137 2223.28,-118 2139.28,-118"/>
<text text-anchor="middle" x="2181.28" y="-125" font-family="FreeSans.ttf" font-size="10.00">Visualizer.cpp</text>
</a>
</g>
</g>
<!-- Node1&#45;&gt;Node51 -->
<g id="edge77" class="edge">
<title>Node1&#45;&gt;Node51</title>
<path fill="none" stroke="midnightblue" d="M1384.19,-308.26C1549.44,-298.2 2097.75,-261.2 2156.28,-210 2177.89,-191.1 2181.1,-154.04 2181.39,-137.2"/>
<polygon fill="midnightblue" stroke="midnightblue" points="1383.64,-304.79 1373.87,-308.88 1384.06,-311.77 1383.64,-304.79"/>
</g>
<!-- Node2&#45;&gt;Node3 -->
<g id="edge2" class="edge">
<title>Node2&#45;&gt;Node3</title>
<path fill="none" stroke="midnightblue" d="M90.57,-169.4C89.18,-160.37 87.65,-150.41 86.45,-142.58"/>
<polygon fill="midnightblue" stroke="midnightblue" points="87.13,-170.04 92.11,-179.4 94.05,-168.98 87.13,-170.04"/>
</g>
<!-- Node5 -->
<g id="node5" class="node">
<title>Node5</title>
<g id="a_node5"><a xlink:href="SimpleLeggedOdometry_8cpp.html" target="_top" xlink:title=" ">
<polygon fill="none" stroke="black" points="1994.78,-185 1994.78,-204 2147.78,-204 2147.78,-185 1994.78,-185"/>
<text text-anchor="middle" x="2071.28" y="-192" font-family="FreeSans.ttf" font-size="10.00">SimpleLeggedOdometry.cpp</text>
</a>
</g>
</g>
<!-- Node4&#45;&gt;Node5 -->
<g id="edge4" class="edge">
<title>Node4&#45;&gt;Node5</title>
<path fill="none" stroke="midnightblue" d="M1418.58,-245.93C1671,-224.25 1737.32,-238.68 1985.28,-210 1998.52,-208.47 2012.81,-206.28 2025.88,-204.06"/>
<polygon fill="midnightblue" stroke="midnightblue" points="1418.02,-242.47 1408.36,-246.82 1418.63,-249.44 1418.02,-242.47"/>
</g>
<!-- Node7&#45;&gt;Node3 -->
<g id="edge11" class="edge">
<title>Node7&#45;&gt;Node3</title>
<path fill="none" stroke="midnightblue" d="M536.95,-253.91C469.91,-251.21 344.12,-241.93 242.28,-210 213.64,-201.02 208.95,-192.76 182.28,-179 158.47,-166.71 131.39,-152.76 111.74,-142.64"/>
<polygon fill="midnightblue" stroke="midnightblue" points="537.07,-257.41 547.19,-254.28 537.33,-250.42 537.07,-257.41"/>
</g>
<!-- Node8 -->
<g id="node8" class="node">
<title>Node8</title>
<g id="a_node8"><a xlink:href="GravityCompensationHelpers_8h.html" target="_top" xlink:title=" ">
<polygon fill="none" stroke="black" points="499.28,-185 499.28,-204 669.28,-204 669.28,-185 499.28,-185"/>
<text text-anchor="middle" x="584.28" y="-192" font-family="FreeSans.ttf" font-size="10.00">GravityCompensationHelpers.h</text>
</a>
</g>
</g>
<!-- Node7&#45;&gt;Node8 -->
<g id="edge8" class="edge">
<title>Node7&#45;&gt;Node8</title>
<path fill="none" stroke="midnightblue" d="M584.28,-236.32C584.28,-225.5 584.28,-212.4 584.28,-204.01"/>
<polygon fill="midnightblue" stroke="midnightblue" points="580.78,-236.48 584.28,-246.48 587.78,-236.48 580.78,-236.48"/>
</g>
<!-- Node10 -->
<g id="node10" class="node">
<title>Node10</title>
<g id="a_node10"><a xlink:href="BerdyHelper_8cpp.html" target="_top" xlink:title=" ">
<polygon fill="none" stroke="black" points="860.78,-118 860.78,-137 957.78,-137 957.78,-118 860.78,-118"/>
<text text-anchor="middle" x="909.28" y="-125" font-family="FreeSans.ttf" font-size="10.00">BerdyHelper.cpp</text>
</a>
</g>
</g>
<!-- Node7&#45;&gt;Node10 -->
<g id="edge10" class="edge">
<title>Node7&#45;&gt;Node10</title>
<path fill="none" stroke="midnightblue" d="M537.21,-244C519.34,-237.29 500.78,-226.66 490.28,-210 482.94,-198.34 481.14,-189.31 490.28,-179 502.46,-165.26 752.58,-142.07 860.46,-132.65"/>
<polygon fill="midnightblue" stroke="midnightblue" points="536.42,-247.43 547.02,-247.34 538.68,-240.81 536.42,-247.43"/>
</g>
<!-- Node11 -->
<g id="node11" class="node">
<title>Node11</title>
<g id="a_node11"><a xlink:href="KinDynComputations_8cpp.html" target="_top" xlink:title=" ">
<polygon fill="none" stroke="black" points="887.28,-185 887.28,-204 1027.28,-204 1027.28,-185 887.28,-185"/>
<text text-anchor="middle" x="957.28" y="-192" font-family="FreeSans.ttf" font-size="10.00">KinDynComputations.cpp</text>
</a>
</g>
</g>
<!-- Node7&#45;&gt;Node11 -->
<g id="edge12" class="edge">
<title>Node7&#45;&gt;Node11</title>
<path fill="none" stroke="midnightblue" d="M631.45,-248.22C689.58,-239.76 791.33,-224.63 878.28,-210 889.28,-208.15 901.12,-206.04 912.2,-204.01"/>
<polygon fill="midnightblue" stroke="midnightblue" points="630.86,-244.77 621.46,-249.67 631.86,-251.7 630.86,-244.77"/>
</g>
<!-- Node12 -->
<g id="node12" class="node">
<title>Node12</title>
<g id="a_node12"><a xlink:href="DynamicsLinearization_8h.html" target="_top" xlink:title=" ">
<polygon fill="none" stroke="black" points="181.78,-118 181.78,-137 318.78,-137 318.78,-118 181.78,-118"/>
<text text-anchor="middle" x="250.28" y="-125" font-family="FreeSans.ttf" font-size="10.00">DynamicsLinearization.h</text>
</a>
</g>
</g>
<!-- Node7&#45;&gt;Node12 -->
<g id="edge13" class="edge">
<title>Node7&#45;&gt;Node12</title>
<path fill="none" stroke="midnightblue" d="M536.68,-255.36C455.58,-254.9 295.7,-248.92 258.28,-210 239.16,-190.12 244.43,-153.57 248.1,-137.03"/>
<polygon fill="midnightblue" stroke="midnightblue" points="537.1,-258.87 547.11,-255.4 537.13,-251.87 537.1,-258.87"/>
</g>
<!-- Node14 -->
<g id="node14" class="node">
<title>Node14</title>
<g id="a_node14"><a xlink:href="DynamicsLinearizationHelpers_8h.html" target="_top" xlink:title=" ">
<polygon fill="none" stroke="black" points="267.78,-185 267.78,-204 442.78,-204 442.78,-185 267.78,-185"/>
<text text-anchor="middle" x="355.28" y="-192" font-family="FreeSans.ttf" font-size="10.00">DynamicsLinearizationHelpers.h</text>
</a>
</g>
</g>
<!-- Node7&#45;&gt;Node14 -->
<g id="edge15" class="edge">
<title>Node7&#45;&gt;Node14</title>
<path fill="none" stroke="midnightblue" d="M541.54,-243.9C497.07,-232.34 428.39,-214.5 388.03,-204.01"/>
<polygon fill="midnightblue" stroke="midnightblue" points="540.91,-247.35 551.47,-246.48 542.67,-240.57 540.91,-247.35"/>
</g>
<!-- Node7&#45;&gt;Node16 -->
<g id="edge18" class="edge">
<title>Node7&#45;&gt;Node16</title>
<path fill="none" stroke="midnightblue" d="M631.59,-252.98C714.28,-248.86 890.23,-237.42 1036.28,-210 1044.39,-208.48 1053.06,-206.29 1060.96,-204.07"/>
<polygon fill="midnightblue" stroke="midnightblue" points="631.32,-249.49 621.5,-253.47 631.66,-256.48 631.32,-249.49"/>
</g>
<!-- Node17 -->
<g id="node17" class="node">
<title>Node17</title>
<g id="a_node17"><a xlink:href="PredictSensorsMeasurements_8cpp.html" target="_top" xlink:title=" ">
<polygon fill="none" stroke="black" points="687.28,-185 687.28,-204 869.28,-204 869.28,-185 687.28,-185"/>
<text text-anchor="middle" x="778.28" y="-192" font-family="FreeSans.ttf" font-size="10.00">PredictSensorsMeasurements.cpp</text>
</a>
</g>
</g>
<!-- Node7&#45;&gt;Node17 -->
<g id="edge19" class="edge">
<title>Node7&#45;&gt;Node17</title>
<path fill="none" stroke="midnightblue" d="M621.68,-243.53C659.39,-231.96 716.71,-214.38 750.54,-204.01"/>
<polygon fill="midnightblue" stroke="midnightblue" points="620.61,-240.2 612.07,-246.48 622.66,-246.89 620.61,-240.2"/>
</g>
<!-- Node9 -->
<g id="node9" class="node">
<title>Node9</title>
<g id="a_node9"><a xlink:href="GravityCompensationHelpers_8cpp.html" target="_top" xlink:title=" ">
<polygon fill="none" stroke="black" points="541.78,-118 541.78,-137 722.78,-137 722.78,-118 541.78,-118"/>
<text text-anchor="middle" x="632.28" y="-125" font-family="FreeSans.ttf" font-size="10.00">GravityCompensationHelpers.cpp</text>
</a>
</g>
</g>
<!-- Node8&#45;&gt;Node9 -->
<g id="edge9" class="edge">
<title>Node8&#45;&gt;Node9</title>
<path fill="none" stroke="midnightblue" d="M596.9,-176.4C606.23,-163.77 618.54,-147.1 625.91,-137.13"/>
<polygon fill="midnightblue" stroke="midnightblue" points="593.88,-174.61 590.75,-184.73 599.51,-178.77 593.88,-174.61"/>
</g>
<!-- Node13 -->
<g id="node13" class="node">
<title>Node13</title>
<g id="a_node13"><a xlink:href="DynamicsLinearization_8cpp.html" target="_top" xlink:title=" ">
<polygon fill="none" stroke="black" points="687.78,-56.5 687.78,-75.5 836.78,-75.5 836.78,-56.5 687.78,-56.5"/>
<text text-anchor="middle" x="762.28" y="-63.5" font-family="FreeSans.ttf" font-size="10.00">DynamicsLinearization.cpp</text>
</a>
</g>
</g>
<!-- Node12&#45;&gt;Node13 -->
<g id="edge14" class="edge">
<title>Node12&#45;&gt;Node13</title>
<path fill="none" stroke="midnightblue" d="M302.59,-116.18C311.16,-114.66 319.95,-113.2 328.28,-112 453.86,-93.85 600.9,-80.18 687.56,-72.91"/>
<polygon fill="midnightblue" stroke="midnightblue" points="301.9,-112.75 292.68,-117.98 303.15,-119.63 301.9,-112.75"/>
</g>
<!-- Node14&#45;&gt;Node12 -->
<g id="edge16" class="edge">
<title>Node14&#45;&gt;Node12</title>
<path fill="none" stroke="midnightblue" d="M332.57,-179.44C311.78,-166.57 281.66,-147.93 264.22,-137.13"/>
<polygon fill="midnightblue" stroke="midnightblue" points="330.77,-182.45 341.12,-184.73 334.46,-176.49 330.77,-182.45"/>
</g>
<!-- Node15 -->
<g id="node15" class="node">
<title>Node15</title>
<g id="a_node15"><a xlink:href="DynamicsLinearizationHelpers_8cpp.html" target="_top" xlink:title=" ">
<polygon fill="none" stroke="black" points="337.28,-118 337.28,-137 523.28,-137 523.28,-118 337.28,-118"/>
<text text-anchor="middle" x="430.28" y="-125" font-family="FreeSans.ttf" font-size="10.00">DynamicsLinearizationHelpers.cpp</text>
</a>
</g>
</g>
<!-- Node14&#45;&gt;Node15 -->
<g id="edge17" class="edge">
<title>Node14&#45;&gt;Node15</title>
<path fill="none" stroke="midnightblue" d="M373.33,-177.86C388.07,-165.08 408.37,-147.49 420.32,-137.13"/>
<polygon fill="midnightblue" stroke="midnightblue" points="370.66,-175.54 365.39,-184.73 375.24,-180.83 370.66,-175.54"/>
</g>
<!-- Node18&#45;&gt;Node2 -->
<g id="edge24" class="edge">
<title>Node18&#45;&gt;Node2</title>
<path fill="none" stroke="midnightblue" d="M1126.01,-252.72C973.02,-247.26 583.44,-232.2 258.28,-210 230.62,-208.11 200.37,-205.57 173.47,-203.15"/>
<polygon fill="midnightblue" stroke="midnightblue" points="1126.06,-256.22 1136.17,-253.08 1126.3,-249.23 1126.06,-256.22"/>
</g>
<!-- Node18&#45;&gt;Node8 -->
<g id="edge25" class="edge">
<title>Node18&#45;&gt;Node8</title>
<path fill="none" stroke="midnightblue" d="M1126.2,-250.61C1028.21,-243.78 838.68,-229.37 678.28,-210 664.35,-208.32 649.3,-206.15 635.42,-204.01"/>
<polygon fill="midnightblue" stroke="midnightblue" points="1126.03,-254.11 1136.25,-251.31 1126.52,-247.12 1126.03,-254.11"/>
</g>
<!-- Node18&#45;&gt;Node11 -->
<g id="edge26" class="edge">
<title>Node18&#45;&gt;Node11</title>
<path fill="none" stroke="midnightblue" d="M1148.71,-243.97C1103.08,-232.41 1032.39,-214.52 990.89,-204.01"/>
<polygon fill="midnightblue" stroke="midnightblue" points="1148.06,-247.41 1158.61,-246.48 1149.77,-240.63 1148.06,-247.41"/>
</g>
<!-- Node18&#45;&gt;Node13 -->
<g id="edge31" class="edge">
<title>Node18&#45;&gt;Node13</title>
<path fill="none" stroke="midnightblue" d="M1216.65,-240.73C1227.23,-233.09 1238.5,-222.64 1244.28,-210 1262.39,-170.39 1273.61,-144.2 1244.28,-112 1217.43,-82.53 965.58,-72.02 837.02,-68.56"/>
<polygon fill="midnightblue" stroke="midnightblue" points="1214.43,-238 1208.06,-246.47 1218.32,-243.82 1214.43,-238"/>
</g>
<!-- Node18&#45;&gt;Node16 -->
<g id="edge30" class="edge">
<title>Node18&#45;&gt;Node16</title>
<path fill="none" stroke="midnightblue" d="M1168.51,-241.4C1148.4,-229.9 1120.21,-213.77 1103.15,-204.01"/>
<polygon fill="midnightblue" stroke="midnightblue" points="1166.96,-244.55 1177.38,-246.48 1170.44,-238.47 1166.96,-244.55"/>
</g>
<!-- Node18&#45;&gt;Node17 -->
<g id="edge35" class="edge">
<title>Node18&#45;&gt;Node17</title>
<path fill="none" stroke="midnightblue" d="M1125.84,-245.51C1062.28,-236.43 963.73,-222.32 878.28,-210 864.91,-208.07 850.54,-205.99 836.97,-204.03"/>
<polygon fill="midnightblue" stroke="midnightblue" points="1125.73,-249.03 1136.12,-246.98 1126.72,-242.1 1125.73,-249.03"/>
</g>
<!-- Node19 -->
<g id="node19" class="node">
<title>Node19</title>
<g id="a_node19"><a xlink:href="BerdyHelper_8h.html" target="_top" xlink:title=" ">
<polygon fill="none" stroke="black" points="1149.28,-185 1149.28,-204 1235.28,-204 1235.28,-185 1149.28,-185"/>
<text text-anchor="middle" x="1192.28" y="-192" font-family="FreeSans.ttf" font-size="10.00">BerdyHelper.h</text>
</a>
</g>
</g>
<!-- Node18&#45;&gt;Node19 -->
<g id="edge21" class="edge">
<title>Node18&#45;&gt;Node19</title>
<path fill="none" stroke="midnightblue" d="M1192.28,-236.32C1192.28,-225.5 1192.28,-212.4 1192.28,-204.01"/>
<polygon fill="midnightblue" stroke="midnightblue" points="1188.78,-236.48 1192.28,-246.48 1195.78,-236.48 1188.78,-236.48"/>
</g>
<!-- Node21 -->
<g id="node21" class="node">
<title>Node21</title>
<g id="a_node21"><a xlink:href="ModelTestUtils_8h.html" target="_top" xlink:title=" ">
<polygon fill="none" stroke="black" points="1291.28,-185 1291.28,-204 1389.28,-204 1389.28,-185 1291.28,-185"/>
<text text-anchor="middle" x="1340.28" y="-192" font-family="FreeSans.ttf" font-size="10.00">ModelTestUtils.h</text>
</a>
</g>
</g>
<!-- Node18&#45;&gt;Node21 -->
<g id="edge27" class="edge">
<title>Node18&#45;&gt;Node21</title>
<path fill="none" stroke="midnightblue" d="M1223.05,-242.63C1251.8,-231.07 1293.96,-214.12 1319.11,-204.01"/>
<polygon fill="midnightblue" stroke="midnightblue" points="1221.46,-239.5 1213.48,-246.48 1224.07,-245.99 1221.46,-239.5"/>
</g>
<!-- Node23 -->
<g id="node23" class="node">
<title>Node23</title>
<g id="a_node23"><a xlink:href="DenavitHartenberg_8cpp.html" target="_top" xlink:title=" ">
<polygon fill="none" stroke="black" points="1407.28,-185 1407.28,-204 1537.28,-204 1537.28,-185 1407.28,-185"/>
<text text-anchor="middle" x="1472.28" y="-192" font-family="FreeSans.ttf" font-size="10.00">DenavitHartenberg.cpp</text>
</a>
</g>
</g>
<!-- Node18&#45;&gt;Node23 -->
<g id="edge29" class="edge">
<title>Node18&#45;&gt;Node23</title>
<path fill="none" stroke="midnightblue" d="M1242.49,-244.33C1296.79,-232.79 1382.27,-214.63 1432.24,-204.01"/>
<polygon fill="midnightblue" stroke="midnightblue" points="1241.45,-240.97 1232.4,-246.48 1242.91,-247.82 1241.45,-240.97"/>
</g>
<!-- Node24 -->
<g id="node24" class="node">
<title>Node24</title>
<g id="a_node24"><a xlink:href="ForwardKinematics_8cpp.html" target="_top" xlink:title=" ">
<polygon fill="none" stroke="black" points="1555.78,-185 1555.78,-204 1686.78,-204 1686.78,-185 1555.78,-185"/>
<text text-anchor="middle" x="1621.28" y="-192" font-family="FreeSans.ttf" font-size="10.00">ForwardKinematics.cpp</text>
</a>
</g>
</g>
<!-- Node18&#45;&gt;Node24 -->
<g id="edge32" class="edge">
<title>Node18&#45;&gt;Node24</title>
<path fill="none" stroke="midnightblue" d="M1258.55,-245.85C1387.34,-229.17 1421.69,-229.78 1546.28,-210 1557.15,-208.27 1568.86,-206.14 1579.71,-204.05"/>
<polygon fill="midnightblue" stroke="midnightblue" points="1257.76,-242.43 1248.29,-247.19 1258.66,-249.37 1257.76,-242.43"/>
</g>
<!-- Node25 -->
<g id="node25" class="node">
<title>Node25</title>
<g id="a_node25"><a xlink:href="FreeFloatingState_8cpp.html" target="_top" xlink:title=" ">
<polygon fill="none" stroke="black" points="1704.78,-185 1704.78,-204 1827.78,-204 1827.78,-185 1704.78,-185"/>
<text text-anchor="middle" x="1766.28" y="-192" font-family="FreeSans.ttf" font-size="10.00">FreeFloatingState.cpp</text>
</a>
</g>
</g>
<!-- Node18&#45;&gt;Node25 -->
<g id="edge33" class="edge">
<title>Node18&#45;&gt;Node25</title>
<path fill="none" stroke="midnightblue" d="M1258.6,-245.92C1453.14,-225.02 1505.13,-237.13 1695.28,-210 1706.24,-208.44 1718.05,-206.23 1728.84,-204.02"/>
<polygon fill="midnightblue" stroke="midnightblue" points="1258.19,-242.44 1248.63,-247 1258.95,-249.4 1258.19,-242.44"/>
</g>
<!-- Node26 -->
<g id="node26" class="node">
<title>Node26</title>
<g id="a_node26"><a xlink:href="ModelTransformers_8cpp.html" target="_top" xlink:title=" ">
<polygon fill="none" stroke="black" points="1845.78,-185 1845.78,-204 1976.78,-204 1976.78,-185 1845.78,-185"/>
<text text-anchor="middle" x="1911.28" y="-192" font-family="FreeSans.ttf" font-size="10.00">ModelTransformers.cpp</text>
</a>
</g>
</g>
<!-- Node18&#45;&gt;Node26 -->
<g id="edge34" class="edge">
<title>Node18&#45;&gt;Node26</title>
<path fill="none" stroke="midnightblue" d="M1258.62,-245.94C1515.55,-220.86 1583.76,-242.12 1836.28,-210 1847.99,-208.51 1860.62,-206.3 1872.12,-204.06"/>
<polygon fill="midnightblue" stroke="midnightblue" points="1258.22,-242.47 1248.62,-246.93 1258.91,-249.43 1258.22,-242.47"/>
</g>
<!-- Node19&#45;&gt;Node10 -->
<g id="edge22" class="edge">
<title>Node19&#45;&gt;Node10</title>
<path fill="none" stroke="midnightblue" d="M1152.88,-182.26C1148.63,-181.12 1144.37,-180.02 1140.28,-179 1074.74,-162.71 998.05,-146.51 951.6,-137"/>
<polygon fill="midnightblue" stroke="midnightblue" points="1152.09,-185.67 1162.66,-184.93 1153.93,-178.92 1152.09,-185.67"/>
</g>
<!-- Node20 -->
<g id="node20" class="node">
<title>Node20</title>
<g id="a_node20"><a xlink:href="BerdySparseMAPSolver_8cpp.html" target="_top" xlink:title=" ">
<polygon fill="none" stroke="black" points="1085.28,-118 1085.28,-137 1235.28,-137 1235.28,-118 1085.28,-118"/>
<text text-anchor="middle" x="1160.28" y="-125" font-family="FreeSans.ttf" font-size="10.00">BerdySparseMAPSolver.cpp</text>
</a>
</g>
</g>
<!-- Node19&#45;&gt;Node20 -->
<g id="edge23" class="edge">
<title>Node19&#45;&gt;Node20</title>
<path fill="none" stroke="midnightblue" d="M1183.5,-175.66C1177.33,-163.13 1169.34,-146.91 1164.53,-137.13"/>
<polygon fill="midnightblue" stroke="midnightblue" points="1180.41,-177.31 1187.96,-184.73 1186.69,-174.22 1180.41,-177.31"/>
</g>
<!-- Node22 -->
<g id="node22" class="node">
<title>Node22</title>
<g id="a_node22"><a xlink:href="urdf2dh_8cpp.html" target="_top" xlink:title=" ">
<polygon fill="none" stroke="black" points="1303.28,-118 1303.28,-137 1377.28,-137 1377.28,-118 1303.28,-118"/>
<text text-anchor="middle" x="1340.28" y="-125" font-family="FreeSans.ttf" font-size="10.00">urdf2dh.cpp</text>
</a>
</g>
</g>
<!-- Node21&#45;&gt;Node22 -->
<g id="edge28" class="edge">
<title>Node21&#45;&gt;Node22</title>
<path fill="none" stroke="midnightblue" d="M1340.28,-174.54C1340.28,-162.17 1340.28,-146.62 1340.28,-137.13"/>
<polygon fill="midnightblue" stroke="midnightblue" points="1336.78,-174.73 1340.28,-184.73 1343.78,-174.73 1336.78,-174.73"/>
</g>
<!-- Node30 -->
<g id="node30" class="node">
<title>Node30</title>
<g id="a_node30"><a xlink:href="idyntree-model-view_8cpp.html" target="_top" xlink:title=" ">
<polygon fill="none" stroke="black" points="2388.78,-185 2388.78,-204 2525.78,-204 2525.78,-185 2388.78,-185"/>
<text text-anchor="middle" x="2457.28" y="-192" font-family="FreeSans.ttf" font-size="10.00">idyntree&#45;model&#45;view.cpp</text>
</a>
</g>
</g>
<!-- Node29&#45;&gt;Node30 -->
<g id="edge40" class="edge">
<title>Node29&#45;&gt;Node30</title>
<path fill="none" stroke="midnightblue" d="M2764.5,-247.7C2709.56,-239.05 2615.71,-224.03 2535.28,-210 2524.56,-208.13 2513.03,-206.03 2502.21,-204.03"/>
<polygon fill="midnightblue" stroke="midnightblue" points="2764.2,-251.19 2774.63,-249.29 2765.29,-244.28 2764.2,-251.19"/>
</g>
<!-- Node31 -->
<g id="node31" class="node">
<title>Node31</title>
<g id="a_node31"><a xlink:href="Camera_8h.html" target="_top" xlink:title=" ">
<polygon fill="none" stroke="black" points="3300.28,-118 3300.28,-137 3364.28,-137 3364.28,-118 3300.28,-118"/>
<text text-anchor="middle" x="3332.28" y="-125" font-family="FreeSans.ttf" font-size="10.00">Camera.h</text>
</a>
</g>
</g>
<!-- Node29&#45;&gt;Node31 -->
<g id="edge41" class="edge">
<title>Node29&#45;&gt;Node31</title>
<path fill="none" stroke="midnightblue" d="M2858.2,-254.83C2987.61,-253.88 3342.35,-247.81 3377.28,-210 3398.23,-187.32 3362.87,-153.12 3343.56,-137.21"/>
<polygon fill="midnightblue" stroke="midnightblue" points="2857.81,-251.33 2847.83,-254.9 2857.86,-258.33 2857.81,-251.33"/>
</g>
<!-- Node33 -->
<g id="node33" class="node">
<title>Node33</title>
<g id="a_node33"><a xlink:href="TexturesHandler_8h.html" target="_top" xlink:title=" ">
<polygon fill="none" stroke="red" points="3360.28,-0.5 3360.28,-19.5 3464.28,-19.5 3464.28,-0.5 3360.28,-0.5"/>
<text text-anchor="middle" x="3412.28" y="-7.5" font-family="FreeSans.ttf" font-size="10.00">TexturesHandler.h</text>
</a>
</g>
</g>
<!-- Node29&#45;&gt;Node33 -->
<g id="edge74" class="edge">
<title>Node29&#45;&gt;Node33</title>
<path fill="none" stroke="midnightblue" d="M2858.24,-254.6C2993.1,-253.05 3374.67,-245.51 3417.28,-210 3471.2,-165.07 3477.22,-121.61 3452.28,-56 3446.56,-40.95 3433.25,-27.73 3423.54,-19.57"/>
<polygon fill="midnightblue" stroke="midnightblue" points="2857.8,-251.11 2847.84,-254.72 2857.87,-258.11 2857.8,-251.11"/>
</g>
<!-- Node35 -->
<g id="node34" class="node">
<title>Node35</title>
<g id="a_node34"><a xlink:href="CameraAnimator_8h.html" target="_top" xlink:title=" ">
<polygon fill="none" stroke="black" points="3260.28,-185 3260.28,-204 3368.28,-204 3368.28,-185 3260.28,-185"/>
<text text-anchor="middle" x="3314.28" y="-192" font-family="FreeSans.ttf" font-size="10.00">CameraAnimator.h</text>
</a>
</g>
</g>
<!-- Node29&#45;&gt;Node35 -->
<g id="edge44" class="edge">
<title>Node29&#45;&gt;Node35</title>
<path fill="none" stroke="midnightblue" d="M2858.32,-252.12C2939.09,-246.74 3109.18,-233.53 3251.28,-210 3260.91,-208.41 3271.27,-206.22 3280.76,-204.03"/>
<polygon fill="midnightblue" stroke="midnightblue" points="2857.74,-248.65 2847.99,-252.79 2858.2,-255.63 2857.74,-248.65"/>
</g>
<!-- Node37 -->
<g id="node36" class="node">
<title>Node37</title>
<g id="a_node36"><a xlink:href="IrrlichtUtils_8h.html" target="_top" xlink:title=" ">
<polygon fill="none" stroke="red" points="2839.28,-118 2839.28,-137 2919.28,-137 2919.28,-118 2839.28,-118"/>
<text text-anchor="middle" x="2879.28" y="-125" font-family="FreeSans.ttf" font-size="10.00">IrrlichtUtils.h</text>
</a>
</g>
</g>
<!-- Node29&#45;&gt;Node37 -->
<g id="edge47" class="edge">
<title>Node29&#45;&gt;Node37</title>
<path fill="none" stroke="midnightblue" d="M2776.68,-241.92C2762.76,-234.75 2748.17,-224.34 2740.28,-210 2733.64,-197.93 2732.37,-190.28 2740.28,-179 2762.45,-147.35 2806.6,-135.46 2839.21,-131.04"/>
<polygon fill="midnightblue" stroke="midnightblue" points="2775.58,-245.27 2786.12,-246.38 2778.57,-238.94 2775.58,-245.27"/>
</g>
<!-- Node46 -->
<g id="node40" class="node">
<title>Node46</title>
<g id="a_node40"><a xlink:href="FloorGridSceneNode_8h.html" target="_top" xlink:title=" ">
<polygon fill="none" stroke="black" points="2748.78,-185 2748.78,-204 2873.78,-204 2873.78,-185 2748.78,-185"/>
<text text-anchor="middle" x="2811.28" y="-192" font-family="FreeSans.ttf" font-size="10.00">FloorGridSceneNode.h</text>
</a>
</g>
</g>
<!-- Node29&#45;&gt;Node46 -->
<g id="edge53" class="edge">
<title>Node29&#45;&gt;Node46</title>
<path fill="none" stroke="midnightblue" d="M2811.28,-236.32C2811.28,-225.5 2811.28,-212.4 2811.28,-204.01"/>
<polygon fill="midnightblue" stroke="midnightblue" points="2807.78,-236.48 2811.28,-246.48 2814.78,-236.48 2807.78,-236.48"/>
</g>
<!-- Node47 -->
<g id="node41" class="node">
<title>Node47</title>
<g id="a_node41"><a xlink:href="Environment_8h.html" target="_top" xlink:title=" ">
<polygon fill="none" stroke="black" points="3046.28,-118 3046.28,-137 3134.28,-137 3134.28,-118 3046.28,-118"/>
<text text-anchor="middle" x="3090.28" y="-125" font-family="FreeSans.ttf" font-size="10.00">Environment.h</text>
</a>
</g>
</g>
<!-- Node29&#45;&gt;Node47 -->
<g id="edge63" class="edge">
<title>Node29&#45;&gt;Node47</title>
<path fill="none" stroke="midnightblue" d="M2858.04,-255.91C2940.96,-256.4 3108.53,-252.03 3145.28,-210 3166.63,-185.58 3125.99,-152.52 3103.62,-137.09"/>
<polygon fill="midnightblue" stroke="midnightblue" points="2857.91,-252.41 2847.88,-255.82 2857.85,-259.41 2857.91,-252.41"/>
</g>
<!-- Node48 -->
<g id="node42" class="node">
<title>Node48</title>
<g id="a_node42"><a xlink:href="Texture_8h.html" target="_top" xlink:title=" ">
<polygon fill="none" stroke="red" points="3381.28,-56.5 3381.28,-75.5 3443.28,-75.5 3443.28,-56.5 3381.28,-56.5"/>
<text text-anchor="middle" x="3412.28" y="-63.5" font-family="FreeSans.ttf" font-size="10.00">Texture.h</text>
</a>
</g>
</g>
<!-- Node29&#45;&gt;Node48 -->
<g id="edge73" class="edge">
<title>Node29&#45;&gt;Node48</title>
<path fill="none" stroke="midnightblue" d="M2858.05,-254.72C2989.59,-253.47 3355.77,-246.69 3394.28,-210 3432.32,-173.75 3420.06,-100.75 3414.43,-75.68"/>
<polygon fill="midnightblue" stroke="midnightblue" points="2857.86,-251.22 2847.89,-254.81 2857.92,-258.22 2857.86,-251.22"/>
</g>
<!-- Node50 -->
<g id="node43" class="node">
<title>Node50</title>
<g id="a_node43"><a xlink:href="DummyImplementations_8h.html" target="_top" xlink:title=" ">
<polygon fill="none" stroke="red" points="2544.28,-185 2544.28,-204 2692.28,-204 2692.28,-185 2544.28,-185"/>
<text text-anchor="middle" x="2618.28" y="-192" font-family="FreeSans.ttf" font-size="10.00">DummyImplementations.h</text>
</a>
</g>
</g>
<!-- Node29&#45;&gt;Node50 -->
<g id="edge60" class="edge">
<title>Node29&#45;&gt;Node50</title>
<path fill="none" stroke="midnightblue" d="M2774.07,-243.53C2736.56,-231.96 2679.54,-214.38 2645.88,-204.01"/>
<polygon fill="midnightblue" stroke="midnightblue" points="2773.04,-246.87 2783.63,-246.48 2775.1,-240.18 2773.04,-246.87"/>
</g>
<!-- Node29&#45;&gt;Node51 -->
<g id="edge76" class="edge">
<title>Node29&#45;&gt;Node51</title>
<path fill="none" stroke="midnightblue" d="M2764.42,-255.32C2648.27,-255.44 2350.03,-251.59 2261.28,-210 2226.09,-193.51 2197.89,-154.5 2186.6,-137.12"/>
<polygon fill="midnightblue" stroke="midnightblue" points="2764.76,-258.81 2774.75,-255.29 2764.75,-251.81 2764.76,-258.81"/>
</g>
<!-- Node52 -->
<g id="node45" class="node">
<title>Node52</title>
<g id="a_node45"><a xlink:href="Light_8h.html" target="_top" xlink:title=" ">
<polygon fill="none" stroke="red" points="3192.28,-185 3192.28,-204 3242.28,-204 3242.28,-185 3192.28,-185"/>
<text text-anchor="middle" x="3217.28" y="-192" font-family="FreeSans.ttf" font-size="10.00">Light.h</text>
</a>
</g>
</g>
<!-- Node29&#45;&gt;Node52 -->
<g id="edge64" class="edge">
<title>Node29&#45;&gt;Node52</title>
<path fill="none" stroke="midnightblue" d="M2858.3,-252.76C2928.73,-248.61 3065.42,-237.5 3178.28,-210 3184.46,-208.5 3190.99,-206.31 3196.92,-204.09"/>
<polygon fill="midnightblue" stroke="midnightblue" points="2857.78,-249.28 2847.99,-253.34 2858.17,-256.27 2857.78,-249.28"/>
</g>
<!-- Node53 -->
<g id="node46" class="node">
<title>Node53</title>
<g id="a_node46"><a xlink:href="FrameVisualization_8h.html" target="_top" xlink:title=" ">
<polygon fill="none" stroke="black" points="2241.78,-118 2241.78,-137 2360.78,-137 2360.78,-118 2241.78,-118"/>
<text text-anchor="middle" x="2301.28" y="-125" font-family="FreeSans.ttf" font-size="10.00">FrameVisualization.h</text>
</a>
</g>
</g>
<!-- Node29&#45;&gt;Node53 -->
<g id="edge66" class="edge">
<title>Node29&#45;&gt;Node53</title>
<path fill="none" stroke="midnightblue" d="M2764.33,-254.64C2639.09,-253.18 2304.35,-245.94 2271.28,-210 2251.68,-188.7 2278.35,-153.5 2292.92,-137.24"/>
<polygon fill="midnightblue" stroke="midnightblue" points="2764.35,-258.14 2774.38,-254.75 2764.42,-251.14 2764.35,-258.14"/>
</g>
<!-- Node54 -->
<g id="node47" class="node">
<title>Node54</title>
<g id="a_node47"><a xlink:href="Label_8h.html" target="_top" xlink:title=" ">
<polygon fill="none" stroke="red" points="2280.28,-185 2280.28,-204 2332.28,-204 2332.28,-185 2280.28,-185"/>
<text text-anchor="middle" x="2306.28" y="-192" font-family="FreeSans.ttf" font-size="10.00">Label.h</text>
</a>
</g>
</g>
<!-- Node29&#45;&gt;Node54 -->
<g id="edge68" class="edge">
<title>Node29&#45;&gt;Node54</title>
<path fill="none" stroke="midnightblue" d="M2764.56,-254.34C2680.07,-252.3 2496.65,-243.96 2346.28,-210 2339.79,-208.54 2332.93,-206.31 2326.74,-204.04"/>
<polygon fill="midnightblue" stroke="midnightblue" points="2764.54,-257.84 2774.61,-254.56 2764.69,-250.84 2764.54,-257.84"/>
</g>
<!-- Node55 -->
<g id="node48" class="node">
<title>Node55</title>
<g id="a_node48"><a xlink:href="VectorsVisualization_8h.html" target="_top" xlink:title=" ">
<polygon fill="none" stroke="red" points="2378.78,-118 2378.78,-137 2503.78,-137 2503.78,-118 2378.78,-118"/>
<text text-anchor="middle" x="2441.28" y="-125" font-family="FreeSans.ttf" font-size="10.00">VectorsVisualization.h</text>
</a>
</g>
</g>
<!-- Node29&#45;&gt;Node55 -->
<g id="edge75" class="edge">
<title>Node29&#45;&gt;Node55</title>
<path fill="none" stroke="midnightblue" d="M2764.4,-253.59C2657.85,-249.9 2404.71,-238.22 2379.28,-210 2356.78,-185.04 2401.3,-152.51 2426.14,-137.2"/>
<polygon fill="midnightblue" stroke="midnightblue" points="2764.43,-257.09 2774.54,-253.93 2764.66,-250.1 2764.43,-257.09"/>
</g>
<!-- Node56 -->
<g id="node49" class="node">
<title>Node56</title>
<g id="a_node49"><a xlink:href="JetsVisualization_8h.html" target="_top" xlink:title=" ">
<polygon fill="none" stroke="red" points="2891.78,-185 2891.78,-204 2998.78,-204 2998.78,-185 2891.78,-185"/>
<text text-anchor="middle" x="2945.28" y="-192" font-family="FreeSans.ttf" font-size="10.00">JetsVisualization.h</text>
</a>
</g>
</g>
<!-- Node29&#45;&gt;Node56 -->
<g id="edge71" class="edge">
<title>Node29&#45;&gt;Node56</title>
<path fill="none" stroke="midnightblue" d="M2839.82,-242.33C2865.83,-230.78 2903.54,-214.03 2926.12,-204.01"/>
<polygon fill="midnightblue" stroke="midnightblue" points="2838.2,-239.22 2830.48,-246.48 2841.04,-245.62 2838.2,-239.22"/>
</g>
<!-- Node57 -->
<g id="node50" class="node">
<title>Node57</title>
<g id="a_node50"><a xlink:href="ModelVisualization_8h.html" target="_top" xlink:title=" ">
<polygon fill="none" stroke="red" points="3016.78,-185 3016.78,-204 3135.78,-204 3135.78,-185 3016.78,-185"/>
<text text-anchor="middle" x="3076.28" y="-192" font-family="FreeSans.ttf" font-size="10.00">ModelVisualization.h</text>
</a>
</g>
</g>
<!-- Node29&#45;&gt;Node57 -->
<g id="edge72" class="edge">
<title>Node29&#45;&gt;Node57</title>
<path fill="none" stroke="midnightblue" d="M2857.69,-244.58C2909.02,-233.06 2990.74,-214.71 3038.37,-204.01"/>
<polygon fill="midnightblue" stroke="midnightblue" points="2856.84,-241.18 2847.85,-246.79 2858.37,-248.01 2856.84,-241.18"/>
</g>
<!-- Node32 -->
<g id="node32" class="node">
<title>Node32</title>
<g id="a_node32"><a xlink:href="Camera_8cpp.html" target="_top" xlink:title=" ">
<polygon fill="none" stroke="black" points="3243.78,-56.5 3243.78,-75.5 3318.78,-75.5 3318.78,-56.5 3243.78,-56.5"/>
<text text-anchor="middle" x="3281.28" y="-63.5" font-family="FreeSans.ttf" font-size="10.00">Camera.cpp</text>
</a>
</g>
</g>
<!-- Node31&#45;&gt;Node32 -->
<g id="edge42" class="edge">
<title>Node31&#45;&gt;Node32</title>
<path fill="none" stroke="midnightblue" d="M3318.28,-110.17C3308.67,-98.95 3296.29,-84.52 3288.57,-75.51"/>
<polygon fill="midnightblue" stroke="midnightblue" points="3315.81,-112.66 3324.97,-117.98 3321.12,-108.1 3315.81,-112.66"/>
</g>
<!-- Node31&#45;&gt;Node33 -->
<g id="edge43" class="edge">
<title>Node31&#45;&gt;Node33</title>
<path fill="none" stroke="midnightblue" d="M3340.93,-108.93C3348.45,-94.28 3360.03,-73.11 3372.28,-56 3382.02,-42.4 3395.21,-28.22 3403.73,-19.5"/>
<polygon fill="midnightblue" stroke="midnightblue" points="3337.78,-107.4 3336.41,-117.9 3344.04,-110.54 3337.78,-107.4"/>
</g>
<!-- Node35&#45;&gt;Node31 -->
<g id="edge45" class="edge">
<title>Node35&#45;&gt;Node31</title>
<path fill="none" stroke="midnightblue" d="M3319.43,-174.91C3322.87,-162.49 3327.23,-146.72 3329.89,-137.13"/>
<polygon fill="midnightblue" stroke="midnightblue" points="3316,-174.16 3316.71,-184.73 3322.75,-176.03 3316,-174.16"/>
</g>
<!-- Node36 -->
<g id="node35" class="node">
<title>Node36</title>
<g id="a_node35"><a xlink:href="CameraAnimator_8cpp.html" target="_top" xlink:title=" ">
<polygon fill="none" stroke="black" points="3098.78,-56.5 3098.78,-75.5 3217.78,-75.5 3217.78,-56.5 3098.78,-56.5"/>
<text text-anchor="middle" x="3158.28" y="-63.5" font-family="FreeSans.ttf" font-size="10.00">CameraAnimator.cpp</text>
</a>
</g>
</g>
<!-- Node35&#45;&gt;Node36 -->
<g id="edge46" class="edge">
<title>Node35&#45;&gt;Node36</title>
<path fill="none" stroke="midnightblue" d="M3295.61,-178.36C3262.69,-151.67 3195.32,-97.03 3169.08,-75.76"/>
<polygon fill="midnightblue" stroke="midnightblue" points="3293.59,-181.23 3303.56,-184.81 3297.99,-175.79 3293.59,-181.23"/>
</g>
<!-- Node37&#45;&gt;Node32 -->
<g id="edge48" class="edge">
<title>Node37&#45;&gt;Node32</title>
<path fill="none" stroke="midnightblue" d="M2929.48,-119.55C2997.16,-110.11 3121.42,-92.5 3227.28,-76 3232.54,-75.18 3238.08,-74.29 3243.53,-73.4"/>
<polygon fill="midnightblue" stroke="midnightblue" points="2928.93,-116.1 2919.51,-120.94 2929.9,-123.03 2928.93,-116.1"/>
</g>
<!-- Node37&#45;&gt;Node36 -->
<g id="edge49" class="edge">
<title>Node37&#45;&gt;Node36</title>
<path fill="none" stroke="midnightblue" d="M2929.31,-115.83C2983.42,-104.29 3068.59,-86.13 3118.38,-75.51"/>
<polygon fill="midnightblue" stroke="midnightblue" points="2928.3,-112.47 2919.25,-117.98 2929.76,-119.31 2928.3,-112.47"/>
</g>
<!-- Node38 -->
<g id="node37" class="node">
<title>Node38</title>
<g id="a_node37"><a xlink:href="Environment_8cpp.html" target="_top" xlink:title=" ">
<polygon fill="none" stroke="black" points="2966.78,-56.5 2966.78,-75.5 3065.78,-75.5 3065.78,-56.5 2966.78,-56.5"/>
<text text-anchor="middle" x="3016.28" y="-63.5" font-family="FreeSans.ttf" font-size="10.00">Environment.cpp</text>
</a>
</g>
</g>
<!-- Node37&#45;&gt;Node38 -->
<g id="edge50" class="edge">
<title>Node37&#45;&gt;Node38</title>
<path fill="none" stroke="midnightblue" d="M2908.11,-113.98C2934.72,-102.42 2973.51,-85.58 2996.69,-75.51"/>
<polygon fill="midnightblue" stroke="midnightblue" points="2906.69,-110.78 2898.91,-117.98 2909.47,-117.2 2906.69,-110.78"/>
</g>
<!-- Node39 -->
<g id="node38" class="node">
<title>Node39</title>
<g id="a_node38"><a xlink:href="FloorGridSceneNode_8cpp.html" target="_top" xlink:title=" ">
<polygon fill="none" stroke="black" points="2776.78,-56.5 2776.78,-75.5 2913.78,-75.5 2913.78,-56.5 2776.78,-56.5"/>
<text text-anchor="middle" x="2845.28" y="-63.5" font-family="FreeSans.ttf" font-size="10.00">FloorGridSceneNode.cpp</text>
</a>
</g>
</g>
<!-- Node37&#45;&gt;Node39 -->
<g id="edge51" class="edge">
<title>Node37&#45;&gt;Node39</title>
<path fill="none" stroke="midnightblue" d="M2869.38,-109.17C2863.06,-98.11 2855.14,-84.25 2850.14,-75.51"/>
<polygon fill="midnightblue" stroke="midnightblue" points="2866.41,-111.03 2874.41,-117.98 2872.49,-107.56 2866.41,-111.03"/>
</g>
<!-- Node40 -->
<g id="node39" class="node">
<title>Node40</title>
<g id="a_node39"><a xlink:href="FrameVisualization_8cpp.html" target="_top" xlink:title=" ">
<polygon fill="none" stroke="black" points="2412.78,-56.5 2412.78,-75.5 2543.78,-75.5 2543.78,-56.5 2412.78,-56.5"/>
<text text-anchor="middle" x="2478.28" y="-63.5" font-family="FreeSans.ttf" font-size="10.00">FrameVisualization.cpp</text>
</a>
</g>
</g>
<!-- Node37&#45;&gt;Node40 -->
<g id="edge52" class="edge">
<title>Node37&#45;&gt;Node40</title>
<path fill="none" stroke="midnightblue" d="M2828.9,-119.02C2754.22,-107.94 2614.51,-87.21 2535.87,-75.55"/>
<polygon fill="midnightblue" stroke="midnightblue" points="2828.59,-122.52 2838.99,-120.52 2829.62,-115.59 2828.59,-122.52"/>
</g>
<!-- Node46&#45;&gt;Node37 -->
<g id="edge54" class="edge">
<title>Node46&#45;&gt;Node37</title>
<path fill="none" stroke="midnightblue" d="M2828.02,-177.5C2841.36,-164.75 2859.51,-147.39 2870.25,-137.13"/>
<polygon fill="midnightblue" stroke="midnightblue" points="2825.26,-175.29 2820.45,-184.73 2830.1,-180.35 2825.26,-175.29"/>
</g>
<!-- Node46&#45;&gt;Node39 -->
<g id="edge59" class="edge">
<title>Node46&#45;&gt;Node39</title>
<path fill="none" stroke="midnightblue" d="M2815.11,-174.84C2818.65,-158.24 2824.24,-133.36 2830.28,-112 2833.91,-99.16 2838.95,-84.55 2842.16,-75.55"/>
<polygon fill="midnightblue" stroke="midnightblue" points="2811.64,-174.36 2813.02,-184.87 2818.49,-175.8 2811.64,-174.36"/>
</g>
<!-- Node46&#45;&gt;Node47 -->
<g id="edge55" class="edge">
<title>Node46&#45;&gt;Node47</title>
<path fill="none" stroke="midnightblue" d="M2857.88,-182.64C2912.85,-169.84 3003.11,-148.81 3053.44,-137.08"/>
<polygon fill="midnightblue" stroke="midnightblue" points="2856.99,-179.26 2848.04,-184.94 2858.57,-186.08 2856.99,-179.26"/>
</g>
<!-- Node47&#45;&gt;Node38 -->
<g id="edge56" class="edge">
<title>Node47&#45;&gt;Node38</title>
<path fill="none" stroke="midnightblue" d="M3071.59,-111.47C3057.44,-100.09 3038.5,-84.87 3026.86,-75.51"/>
<polygon fill="midnightblue" stroke="midnightblue" points="3069.69,-114.44 3079.68,-117.98 3074.08,-108.98 3069.69,-114.44"/>
</g>
<!-- Node47&#45;&gt;Node48 -->
<g id="edge57" class="edge">
<title>Node47&#45;&gt;Node48</title>
<path fill="none" stroke="midnightblue" d="M3144.46,-116.49C3212.4,-103.93 3326.57,-82.84 3381.26,-72.73"/>
<polygon fill="midnightblue" stroke="midnightblue" points="3143.57,-113.09 3134.38,-118.35 3144.85,-119.98 3143.57,-113.09"/>
</g>
<!-- Node48&#45;&gt;Node33 -->
<g id="edge58" class="edge">
<title>Node48&#45;&gt;Node33</title>
<path fill="none" stroke="midnightblue" d="M3412.28,-45.8C3412.28,-36.91 3412.28,-26.78 3412.28,-19.75"/>
<polygon fill="midnightblue" stroke="midnightblue" points="3408.78,-46.08 3412.28,-56.08 3415.78,-46.08 3408.78,-46.08"/>
</g>
<!-- Node50&#45;&gt;Node47 -->
<g id="edge61" class="edge">
<title>Node50&#45;&gt;Node47</title>
<path fill="none" stroke="midnightblue" d="M2690.4,-183.57C2789.49,-169.92 2964.71,-145.79 3046.25,-134.56"/>
<polygon fill="midnightblue" stroke="midnightblue" points="2689.9,-180.1 2680.47,-184.94 2690.85,-187.04 2689.9,-180.1"/>
</g>
<!-- Node50&#45;&gt;Node51 -->
<g id="edge62" class="edge">
<title>Node50&#45;&gt;Node51</title>
<path fill="none" stroke="midnightblue" d="M2561.22,-183.24C2552.22,-181.74 2543,-180.27 2534.28,-179 2400.52,-159.5 2364.82,-169.57 2232.28,-143 2224.43,-141.43 2216.02,-139.25 2208.35,-137.06"/>
<polygon fill="midnightblue" stroke="midnightblue" points="2560.81,-186.72 2571.26,-184.94 2561.98,-179.82 2560.81,-186.72"/>
</g>
<!-- Node52&#45;&gt;Node47 -->
<g id="edge65" class="edge">
<title>Node52&#45;&gt;Node47</title>
<path fill="none" stroke="midnightblue" d="M3191.44,-180.27C3166.28,-167.4 3128.79,-148.21 3107.21,-137.17"/>
<polygon fill="midnightblue" stroke="midnightblue" points="3189.92,-183.43 3200.41,-184.87 3193.11,-177.2 3189.92,-183.43"/>
</g>
<!-- Node53&#45;&gt;Node40 -->
<g id="edge67" class="edge">
<title>Node53&#45;&gt;Node40</title>
<path fill="none" stroke="midnightblue" d="M2336.29,-114.73C2370.69,-103.17 2422.36,-85.8 2452.97,-75.51"/>
<polygon fill="midnightblue" stroke="midnightblue" points="2335,-111.47 2326.64,-117.98 2337.23,-118.11 2335,-111.47"/>
</g>
<!-- Node54&#45;&gt;Node53 -->
<g id="edge69" class="edge">
<title>Node54&#45;&gt;Node53</title>
<path fill="none" stroke="midnightblue" d="M2304.82,-174.54C2303.87,-162.17 2302.67,-146.62 2301.94,-137.13"/>
<polygon fill="midnightblue" stroke="midnightblue" points="2301.35,-175.03 2305.61,-184.73 2308.33,-174.49 2301.35,-175.03"/>
</g>
<!-- Node54&#45;&gt;Node55 -->
<g id="edge70" class="edge">
<title>Node54&#45;&gt;Node55</title>
<path fill="none" stroke="midnightblue" d="M2333.4,-180.44C2360.14,-167.57 2400.25,-148.26 2423.28,-137.17"/>
<polygon fill="midnightblue" stroke="midnightblue" points="2331.7,-177.38 2324.21,-184.87 2334.73,-183.68 2331.7,-177.38"/>
</g>
</g>
</svg>
