<?xml version="1.0" encoding="UTF-8" standalone="no"?>
<!DOCTYPE svg PUBLIC "-//W3C//DTD SVG 1.1//EN"
 "http://www.w3.org/Graphics/SVG/1.1/DTD/svg11.dtd">
<!-- Generated by graphviz version 2.43.0 (0)
 -->
<!-- Title: LinearCost.h Pages: 1 -->
<svg width="268pt" height="84pt"
 viewBox="0.00 0.00 267.50 84.00" xmlns="http://www.w3.org/2000/svg" xmlns:xlink="http://www.w3.org/1999/xlink">
<g id="graph0" class="graph" transform="scale(1 1) rotate(0) translate(4 80)">
<title>LinearCost.h</title>
<!-- Node1 -->
<g id="node1" class="node">
<title>Node1</title>
<g id="a_node1"><a xlink:title=" ">
<polygon fill="#bfbfbf" stroke="black" points="75,-56.5 75,-75.5 152,-75.5 152,-56.5 75,-56.5"/>
<text text-anchor="middle" x="113.5" y="-63.5" font-family="FreeSans.ttf" font-size="10.00">LinearCost.h</text>
</a>
</g>
</g>
<!-- Node2 -->
<g id="node2" class="node">
<title>Node2</title>
<g id="a_node2"><a xlink:href="LinearCost_8cpp.html" target="_top" xlink:title=" ">
<polygon fill="none" stroke="black" points="0,-0.5 0,-19.5 89,-19.5 89,-0.5 0,-0.5"/>
<text text-anchor="middle" x="44.5" y="-7.5" font-family="FreeSans.ttf" font-size="10.00">LinearCost.cpp</text>
</a>
</g>
</g>
<!-- Node1&#45;&gt;Node2 -->
<g id="edge1" class="edge">
<title>Node1&#45;&gt;Node2</title>
<path fill="none" stroke="midnightblue" d="M94.46,-50.1C82.04,-40.38 66.26,-28.03 55.79,-19.83"/>
<polygon fill="midnightblue" stroke="midnightblue" points="92.38,-52.92 102.41,-56.32 96.7,-47.4 92.38,-52.92"/>
</g>
<!-- Node3 -->
<g id="node3" class="node">
<title>Node3</title>
<g id="a_node3"><a xlink:href="OptimalControlProblem_8cpp.html" target="_top" xlink:title=" ">
<polygon fill="none" stroke="black" points="107.5,-0.5 107.5,-19.5 259.5,-19.5 259.5,-0.5 107.5,-0.5"/>
<text text-anchor="middle" x="183.5" y="-7.5" font-family="FreeSans.ttf" font-size="10.00">OptimalControlProblem.cpp</text>
</a>
</g>
</g>
<!-- Node1&#45;&gt;Node3 -->
<g id="edge2" class="edge">
<title>Node1&#45;&gt;Node3</title>
<path fill="none" stroke="midnightblue" d="M132.81,-50.1C145.41,-40.38 161.43,-28.03 172.05,-19.83"/>
<polygon fill="midnightblue" stroke="midnightblue" points="130.53,-47.44 124.75,-56.32 134.8,-52.99 130.53,-47.44"/>
</g>
</g>
</svg>
