<?xml version="1.0" encoding="UTF-8" standalone="no"?>
<!DOCTYPE svg PUBLIC "-//W3C//DTD SVG 1.1//EN"
 "http://www.w3.org/Graphics/SVG/1.1/DTD/svg11.dtd">
<!-- Generated by graphviz version 2.43.0 (0)
 -->
<!-- Title: LinearCost.cpp Pages: 1 -->
<svg width="1152pt" height="644pt"
 viewBox="0.00 0.00 1152.00 644.00" xmlns="http://www.w3.org/2000/svg" xmlns:xlink="http://www.w3.org/1999/xlink">
<g id="graph0" class="graph" transform="scale(1 1) rotate(0) translate(4 640)">
<title>LinearCost.cpp</title>
<!-- Node1 -->
<g id="node1" class="node">
<title>Node1</title>
<g id="a_node1"><a xlink:title=" ">
<polygon fill="#bfbfbf" stroke="black" points="1023.5,-616.5 1023.5,-635.5 1112.5,-635.5 1112.5,-616.5 1023.5,-616.5"/>
<text text-anchor="middle" x="1068" y="-623.5" font-family="FreeSans.ttf" font-size="10.00">LinearCost.cpp</text>
</a>
</g>
</g>
<!-- Node2 -->
<g id="node2" class="node">
<title>Node2</title>
<g id="a_node2"><a xlink:href="LinearCost_8h.html" target="_top" xlink:title=" ">
<polygon fill="none" stroke="black" points="914.5,-560.5 914.5,-579.5 1037.5,-579.5 1037.5,-560.5 914.5,-560.5"/>
<text text-anchor="middle" x="976" y="-567.5" font-family="FreeSans.ttf" font-size="10.00">iDynTree/LinearCost.h</text>
</a>
</g>
</g>
<!-- Node1&#45;&gt;Node2 -->
<g id="edge1" class="edge">
<title>Node1&#45;&gt;Node2</title>
<path fill="none" stroke="midnightblue" d="M1053.22,-616.32C1038.73,-607.82 1016.43,-594.73 999.51,-584.8"/>
<polygon fill="midnightblue" stroke="midnightblue" points="1001.14,-581.7 990.74,-579.65 997.6,-587.74 1001.14,-581.7"/>
</g>
<!-- Node7 -->
<g id="node7" class="node">
<title>Node7</title>
<g id="a_node7"><a xlink:href="Utils_8h.html" target="_top" xlink:title=" ">
<polygon fill="none" stroke="black" points="540.5,-56.5 540.5,-75.5 659.5,-75.5 659.5,-56.5 540.5,-56.5"/>
<text text-anchor="middle" x="600" y="-63.5" font-family="FreeSans.ttf" font-size="10.00">iDynTree/Core/Utils.h</text>
</a>
</g>
</g>
<!-- Node1&#45;&gt;Node7 -->
<g id="edge66" class="edge">
<title>Node1&#45;&gt;Node7</title>
<path fill="none" stroke="midnightblue" d="M1079.54,-616.43C1100.8,-599.57 1144,-559.8 1144,-515 1144,-515 1144,-515 1144,-177 1144,-145.54 1141.5,-130.42 1116,-112 1080.65,-86.47 802.7,-73.8 670.02,-69.15"/>
<polygon fill="midnightblue" stroke="midnightblue" points="670.07,-65.65 659.96,-68.8 669.83,-72.65 670.07,-65.65"/>
</g>
<!-- Node3 -->
<g id="node3" class="node">
<title>Node3</title>
<g id="a_node3"><a xlink:href="QuadraticLikeCost_8h.html" target="_top" xlink:title=" ">
<polygon fill="none" stroke="black" points="896,-504.5 896,-523.5 1056,-523.5 1056,-504.5 896,-504.5"/>
<text text-anchor="middle" x="976" y="-511.5" font-family="FreeSans.ttf" font-size="10.00">iDynTree/QuadraticLikeCost.h</text>
</a>
</g>
</g>
<!-- Node2&#45;&gt;Node3 -->
<g id="edge2" class="edge">
<title>Node2&#45;&gt;Node3</title>
<path fill="none" stroke="midnightblue" d="M976,-560.08C976,-553.01 976,-542.86 976,-533.99"/>
<polygon fill="midnightblue" stroke="midnightblue" points="979.5,-533.75 976,-523.75 972.5,-533.75 979.5,-533.75"/>
</g>
<!-- Node12 -->
<g id="node12" class="node">
<title>Node12</title>
<g id="a_node12"><a xlink:href="TimeVaryingObject_8h.html" target="_top" xlink:title=" ">
<polygon fill="none" stroke="black" points="784,-448.5 784,-467.5 948,-467.5 948,-448.5 784,-448.5"/>
<text text-anchor="middle" x="866" y="-455.5" font-family="FreeSans.ttf" font-size="10.00">iDynTree/TimeVaryingObject.h</text>
</a>
</g>
</g>
<!-- Node2&#45;&gt;Node12 -->
<g id="edge65" class="edge">
<title>Node2&#45;&gt;Node12</title>
<path fill="none" stroke="midnightblue" d="M945.76,-560.4C926.47,-553.48 902.31,-541.89 887,-524 875.81,-510.92 870.56,-491.77 868.11,-477.64"/>
<polygon fill="midnightblue" stroke="midnightblue" points="871.55,-477.01 866.68,-467.6 864.62,-477.99 871.55,-477.01"/>
</g>
<!-- Node4 -->
<g id="node4" class="node">
<title>Node4</title>
<g id="a_node4"><a xlink:href="Cost_8h.html" target="_top" xlink:title=" ">
<polygon fill="none" stroke="black" points="929.5,-224.5 929.5,-243.5 1022.5,-243.5 1022.5,-224.5 929.5,-224.5"/>
<text text-anchor="middle" x="976" y="-231.5" font-family="FreeSans.ttf" font-size="10.00">iDynTree/Cost.h</text>
</a>
</g>
</g>
<!-- Node3&#45;&gt;Node4 -->
<g id="edge3" class="edge">
<title>Node3&#45;&gt;Node4</title>
<path fill="none" stroke="midnightblue" d="M976,-504.44C976,-485.94 976,-440.81 976,-403 976,-403 976,-403 976,-345 976,-312.95 976,-275.64 976,-253.75"/>
<polygon fill="midnightblue" stroke="midnightblue" points="979.5,-253.56 976,-243.56 972.5,-253.56 979.5,-253.56"/>
</g>
<!-- Node3&#45;&gt;Node12 -->
<g id="edge13" class="edge">
<title>Node3&#45;&gt;Node12</title>
<path fill="none" stroke="midnightblue" d="M958.33,-504.32C940.61,-495.62 913.1,-482.12 892.71,-472.11"/>
<polygon fill="midnightblue" stroke="midnightblue" points="894.15,-468.92 883.63,-467.65 891.06,-475.2 894.15,-468.92"/>
</g>
<!-- Node36 -->
<g id="node36" class="node">
<title>Node36</title>
<g id="a_node36"><a xlink:title=" ">
<polygon fill="none" stroke="#bfbfbf" points="1004,-448.5 1004,-467.5 1062,-467.5 1062,-448.5 1004,-448.5"/>
<text text-anchor="middle" x="1033" y="-455.5" font-family="FreeSans.ttf" font-size="10.00">memory</text>
</a>
</g>
</g>
<!-- Node3&#45;&gt;Node36 -->
<g id="edge64" class="edge">
<title>Node3&#45;&gt;Node36</title>
<path fill="none" stroke="midnightblue" d="M985.16,-504.32C993.5,-496.42 1006.03,-484.55 1016.18,-474.94"/>
<polygon fill="midnightblue" stroke="midnightblue" points="1018.82,-477.25 1023.68,-467.83 1014.01,-472.17 1018.82,-477.25"/>
</g>
<!-- Node5 -->
<g id="node5" class="node">
<title>Node5</title>
<g id="a_node5"><a xlink:title=" ">
<polygon fill="none" stroke="#bfbfbf" points="677,-112.5 677,-131.5 721,-131.5 721,-112.5 677,-112.5"/>
<text text-anchor="middle" x="699" y="-119.5" font-family="FreeSans.ttf" font-size="10.00">string</text>
</a>
</g>
</g>
<!-- Node4&#45;&gt;Node5 -->
<g id="edge4" class="edge">
<title>Node4&#45;&gt;Node5</title>
<path fill="none" stroke="midnightblue" d="M970.19,-224.25C960.25,-210.03 938.59,-182.12 913,-168 854.34,-135.64 774.88,-126.51 731.16,-123.96"/>
<polygon fill="midnightblue" stroke="midnightblue" points="731.27,-120.46 721.1,-123.46 730.91,-127.45 731.27,-120.46"/>
</g>
<!-- Node6 -->
<g id="node6" class="node">
<title>Node6</title>
<g id="a_node6"><a xlink:href="SparsityStructure_8h.html" target="_top" xlink:title=" ">
<polygon fill="none" stroke="black" points="960.5,-168.5 960.5,-187.5 1115.5,-187.5 1115.5,-168.5 960.5,-168.5"/>
<text text-anchor="middle" x="1038" y="-175.5" font-family="FreeSans.ttf" font-size="10.00">iDynTree/SparsityStructure.h</text>
</a>
</g>
</g>
<!-- Node4&#45;&gt;Node6 -->
<g id="edge5" class="edge">
<title>Node4&#45;&gt;Node6</title>
<path fill="none" stroke="midnightblue" d="M985.96,-224.32C995.13,-216.34 1008.94,-204.31 1020.03,-194.65"/>
<polygon fill="midnightblue" stroke="midnightblue" points="1022.62,-197.04 1027.86,-187.83 1018.02,-191.76 1022.62,-197.04"/>
</g>
<!-- Node6&#45;&gt;Node5 -->
<g id="edge12" class="edge">
<title>Node6&#45;&gt;Node5</title>
<path fill="none" stroke="midnightblue" d="M984.28,-168.44C913.1,-157.1 789.74,-137.45 731.38,-128.16"/>
<polygon fill="midnightblue" stroke="midnightblue" points="731.69,-124.66 721.26,-126.55 730.59,-131.58 731.69,-124.66"/>
</g>
<!-- Node6&#45;&gt;Node7 -->
<g id="edge6" class="edge">
<title>Node6&#45;&gt;Node7</title>
<path fill="none" stroke="midnightblue" d="M1004,-168.46C925.4,-148.72 731.22,-99.96 643.85,-78.01"/>
<polygon fill="midnightblue" stroke="midnightblue" points="644.53,-74.58 633.98,-75.53 642.83,-81.36 644.53,-74.58"/>
</g>
<!-- Node8 -->
<g id="node8" class="node">
<title>Node8</title>
<g id="a_node8"><a xlink:title=" ">
<polygon fill="none" stroke="#bfbfbf" points="743.5,-0.5 743.5,-19.5 796.5,-19.5 796.5,-0.5 743.5,-0.5"/>
<text text-anchor="middle" x="770" y="-7.5" font-family="FreeSans.ttf" font-size="10.00">cstddef</text>
</a>
</g>
</g>
<!-- Node6&#45;&gt;Node8 -->
<g id="edge10" class="edge">
<title>Node6&#45;&gt;Node8</title>
<path fill="none" stroke="midnightblue" d="M1018.54,-168.49C999.62,-159.99 970.26,-146.17 946,-132 886.59,-97.3 820.84,-49.33 789.15,-25.56"/>
<polygon fill="midnightblue" stroke="midnightblue" points="791.24,-22.76 781.15,-19.53 787.03,-28.34 791.24,-22.76"/>
</g>
<!-- Node10 -->
<g id="node10" class="node">
<title>Node10</title>
<g id="a_node10"><a xlink:title=" ">
<polygon fill="none" stroke="#bfbfbf" points="955.5,-112.5 955.5,-131.5 1002.5,-131.5 1002.5,-112.5 955.5,-112.5"/>
<text text-anchor="middle" x="979" y="-119.5" font-family="FreeSans.ttf" font-size="10.00">vector</text>
</a>
</g>
</g>
<!-- Node6&#45;&gt;Node10 -->
<g id="edge9" class="edge">
<title>Node6&#45;&gt;Node10</title>
<path fill="none" stroke="midnightblue" d="M1028.52,-168.32C1019.8,-160.34 1006.66,-148.31 996.1,-138.65"/>
<polygon fill="midnightblue" stroke="midnightblue" points="998.39,-136 988.65,-131.83 993.67,-141.17 998.39,-136"/>
</g>
<!-- Node11 -->
<g id="node11" class="node">
<title>Node11</title>
<g id="a_node11"><a xlink:title=" ">
<polygon fill="none" stroke="#bfbfbf" points="1021,-112.5 1021,-131.5 1107,-131.5 1107,-112.5 1021,-112.5"/>
<text text-anchor="middle" x="1064" y="-119.5" font-family="FreeSans.ttf" font-size="10.00">unordered_set</text>
</a>
</g>
</g>
<!-- Node6&#45;&gt;Node11 -->
<g id="edge11" class="edge">
<title>Node6&#45;&gt;Node11</title>
<path fill="none" stroke="midnightblue" d="M1042.29,-168.08C1045.85,-160.69 1051.02,-149.95 1055.42,-140.81"/>
<polygon fill="midnightblue" stroke="midnightblue" points="1058.6,-142.28 1059.79,-131.75 1052.29,-139.24 1058.6,-142.28"/>
</g>
<!-- Node7&#45;&gt;Node8 -->
<g id="edge7" class="edge">
<title>Node7&#45;&gt;Node8</title>
<path fill="none" stroke="midnightblue" d="M626.94,-56.44C655.74,-47.29 701.6,-32.73 733.6,-22.56"/>
<polygon fill="midnightblue" stroke="midnightblue" points="735,-25.79 743.47,-19.43 732.88,-19.12 735,-25.79"/>
</g>
<!-- Node9 -->
<g id="node9" class="node">
<title>Node9</title>
<g id="a_node9"><a xlink:title=" ">
<polygon fill="none" stroke="#bfbfbf" points="645,-0.5 645,-19.5 725,-19.5 725,-0.5 645,-0.5"/>
<text text-anchor="middle" x="685" y="-7.5" font-family="FreeSans.ttf" font-size="10.00">CoreExport.h</text>
</a>
</g>
</g>
<!-- Node7&#45;&gt;Node9 -->
<g id="edge8" class="edge">
<title>Node7&#45;&gt;Node9</title>
<path fill="none" stroke="midnightblue" d="M613.66,-56.32C626.92,-47.9 647.27,-34.97 662.85,-25.07"/>
<polygon fill="midnightblue" stroke="midnightblue" points="664.81,-27.97 671.38,-19.65 661.06,-22.06 664.81,-27.97"/>
</g>
<!-- Node13 -->
<g id="node13" class="node">
<title>Node13</title>
<g id="a_node13"><a xlink:href="VectorDynSize_8h.html" target="_top" xlink:title=" ">
<polygon fill="none" stroke="black" points="737.5,-168.5 737.5,-187.5 904.5,-187.5 904.5,-168.5 737.5,-168.5"/>
<text text-anchor="middle" x="821" y="-175.5" font-family="FreeSans.ttf" font-size="10.00">iDynTree/Core/VectorDynSize.h</text>
</a>
</g>
</g>
<!-- Node12&#45;&gt;Node13 -->
<g id="edge14" class="edge">
<title>Node12&#45;&gt;Node13</title>
<path fill="none" stroke="midnightblue" d="M868.43,-448.24C873.34,-429.71 884,-385.12 884,-347 884,-347 884,-347 884,-289 884,-251.48 856.05,-215.14 837.39,-195.05"/>
<polygon fill="midnightblue" stroke="midnightblue" points="839.76,-192.48 830.3,-187.72 834.73,-197.34 839.76,-192.48"/>
</g>
<!-- Node23 -->
<g id="node23" class="node">
<title>Node23</title>
<g id="a_node23"><a xlink:href="MatrixDynSize_8h.html" target="_top" xlink:title=" ">
<polygon fill="none" stroke="black" points="0,-168.5 0,-187.5 168,-187.5 168,-168.5 0,-168.5"/>
<text text-anchor="middle" x="84" y="-175.5" font-family="FreeSans.ttf" font-size="10.00">iDynTree/Core/MatrixDynSize.h</text>
</a>
</g>
</g>
<!-- Node12&#45;&gt;Node23 -->
<g id="edge26" class="edge">
<title>Node12&#45;&gt;Node23</title>
<path fill="none" stroke="midnightblue" d="M783.73,-453.63C586.69,-444.47 104,-415.08 104,-347 104,-347 104,-347 104,-289 104,-256.44 95.41,-219.32 89.49,-197.59"/>
<polygon fill="midnightblue" stroke="midnightblue" points="92.79,-196.41 86.7,-187.74 86.06,-198.32 92.79,-196.41"/>
</g>
<!-- Node25 -->
<g id="node25" class="node">
<title>Node25</title>
<g id="a_node25"><a xlink:href="Transform_8h.html" target="_top" xlink:title=" ">
<polygon fill="none" stroke="black" points="561,-392.5 561,-411.5 707,-411.5 707,-392.5 561,-392.5"/>
<text text-anchor="middle" x="634" y="-399.5" font-family="FreeSans.ttf" font-size="10.00">iDynTree/Core/Transform.h</text>
</a>
</g>
</g>
<!-- Node12&#45;&gt;Node25 -->
<g id="edge33" class="edge">
<title>Node12&#45;&gt;Node25</title>
<path fill="none" stroke="midnightblue" d="M829.24,-448.44C788.94,-439.06 724.19,-423.99 680.42,-413.8"/>
<polygon fill="midnightblue" stroke="midnightblue" points="681.12,-410.37 670.59,-411.52 679.54,-417.19 681.12,-410.37"/>
</g>
<!-- Node13&#45;&gt;Node5 -->
<g id="edge25" class="edge">
<title>Node13&#45;&gt;Node5</title>
<path fill="none" stroke="midnightblue" d="M801.67,-168.44C781.68,-159.6 750.26,-145.69 727.44,-135.59"/>
<polygon fill="midnightblue" stroke="midnightblue" points="728.8,-132.36 718.24,-131.52 725.97,-138.76 728.8,-132.36"/>
</g>
<!-- Node14 -->
<g id="node14" class="node">
<title>Node14</title>
<g id="a_node14"><a xlink:href="Span_8h.html" target="_top" xlink:title=" ">
<polygon fill="none" stroke="black" points="401.5,-56.5 401.5,-75.5 522.5,-75.5 522.5,-56.5 401.5,-56.5"/>
<text text-anchor="middle" x="462" y="-63.5" font-family="FreeSans.ttf" font-size="10.00">iDynTree/Core/Span.h</text>
</a>
</g>
</g>
<!-- Node13&#45;&gt;Node14 -->
<g id="edge15" class="edge">
<title>Node13&#45;&gt;Node14</title>
<path fill="none" stroke="midnightblue" d="M811.79,-168.18C796.28,-153.88 763.35,-125.84 730,-112 711.92,-104.5 604.67,-87.81 531.45,-77"/>
<polygon fill="midnightblue" stroke="midnightblue" points="531.76,-73.51 521.36,-75.52 530.74,-80.44 531.76,-73.51"/>
</g>
<!-- Node14&#45;&gt;Node8 -->
<g id="edge19" class="edge">
<title>Node14&#45;&gt;Node8</title>
<path fill="none" stroke="midnightblue" d="M522.22,-56.47C575.24,-48.63 654.74,-36.1 733.25,-20.01"/>
<polygon fill="midnightblue" stroke="midnightblue" points="734.24,-23.38 743.32,-17.93 732.82,-16.53 734.24,-23.38"/>
</g>
<!-- Node15 -->
<g id="node15" class="node">
<title>Node15</title>
<g id="a_node15"><a xlink:title=" ">
<polygon fill="none" stroke="#bfbfbf" points="152,-0.5 152,-19.5 204,-19.5 204,-0.5 152,-0.5"/>
<text text-anchor="middle" x="178" y="-7.5" font-family="FreeSans.ttf" font-size="10.00">cassert</text>
</a>
</g>
</g>
<!-- Node14&#45;&gt;Node15 -->
<g id="edge16" class="edge">
<title>Node14&#45;&gt;Node15</title>
<path fill="none" stroke="midnightblue" d="M408.35,-56.47C360.04,-48.52 286.89,-35.84 214.53,-20.21"/>
<polygon fill="midnightblue" stroke="midnightblue" points="214.84,-16.7 204.32,-17.99 213.35,-23.54 214.84,-16.7"/>
</g>
<!-- Node16 -->
<g id="node16" class="node">
<title>Node16</title>
<g id="a_node16"><a xlink:title=" ">
<polygon fill="none" stroke="#bfbfbf" points="503,-0.5 503,-19.5 567,-19.5 567,-0.5 503,-0.5"/>
<text text-anchor="middle" x="535" y="-7.5" font-family="FreeSans.ttf" font-size="10.00">algorithm</text>
</a>
</g>
</g>
<!-- Node14&#45;&gt;Node16 -->
<g id="edge17" class="edge">
<title>Node14&#45;&gt;Node16</title>
<path fill="none" stroke="midnightblue" d="M473.73,-56.32C484.84,-48.11 501.74,-35.6 514.98,-25.81"/>
<polygon fill="midnightblue" stroke="midnightblue" points="517.1,-28.59 523.06,-19.83 512.94,-22.97 517.1,-28.59"/>
</g>
<!-- Node17 -->
<g id="node17" class="node">
<title>Node17</title>
<g id="a_node17"><a xlink:title=" ">
<polygon fill="none" stroke="#bfbfbf" points="585,-0.5 585,-19.5 627,-19.5 627,-0.5 585,-0.5"/>
<text text-anchor="middle" x="606" y="-7.5" font-family="FreeSans.ttf" font-size="10.00">array</text>
</a>
</g>
</g>
<!-- Node14&#45;&gt;Node17 -->
<g id="edge18" class="edge">
<title>Node14&#45;&gt;Node17</title>
<path fill="none" stroke="midnightblue" d="M484.82,-56.44C509.26,-47.28 548.17,-32.68 575.29,-22.52"/>
<polygon fill="midnightblue" stroke="midnightblue" points="576.56,-25.78 584.7,-18.99 574.11,-19.22 576.56,-25.78"/>
</g>
<!-- Node18 -->
<g id="node18" class="node">
<title>Node18</title>
<g id="a_node18"><a xlink:title=" ">
<polygon fill="none" stroke="#bfbfbf" points="222.5,-0.5 222.5,-19.5 275.5,-19.5 275.5,-0.5 222.5,-0.5"/>
<text text-anchor="middle" x="249" y="-7.5" font-family="FreeSans.ttf" font-size="10.00">iterator</text>
</a>
</g>
</g>
<!-- Node14&#45;&gt;Node18 -->
<g id="edge20" class="edge">
<title>Node14&#45;&gt;Node18</title>
<path fill="none" stroke="midnightblue" d="M428.25,-56.44C389.29,-46.57 325.46,-30.38 285.41,-20.23"/>
<polygon fill="midnightblue" stroke="midnightblue" points="286.08,-16.79 275.53,-17.73 284.36,-23.58 286.08,-16.79"/>
</g>
<!-- Node19 -->
<g id="node19" class="node">
<title>Node19</title>
<g id="a_node19"><a xlink:title=" ">
<polygon fill="none" stroke="#bfbfbf" points="294,-0.5 294,-19.5 338,-19.5 338,-0.5 294,-0.5"/>
<text text-anchor="middle" x="316" y="-7.5" font-family="FreeSans.ttf" font-size="10.00">limits</text>
</a>
</g>
</g>
<!-- Node14&#45;&gt;Node19 -->
<g id="edge21" class="edge">
<title>Node14&#45;&gt;Node19</title>
<path fill="none" stroke="midnightblue" d="M438.87,-56.44C414.23,-47.33 375.08,-32.85 347.61,-22.69"/>
<polygon fill="midnightblue" stroke="midnightblue" points="348.66,-19.35 338.07,-19.16 346.24,-25.91 348.66,-19.35"/>
</g>
<!-- Node20 -->
<g id="node20" class="node">
<title>Node20</title>
<g id="a_node20"><a xlink:title=" ">
<polygon fill="none" stroke="#bfbfbf" points="356.5,-0.5 356.5,-19.5 421.5,-19.5 421.5,-0.5 356.5,-0.5"/>
<text text-anchor="middle" x="389" y="-7.5" font-family="FreeSans.ttf" font-size="10.00">stdexcept</text>
</a>
</g>
</g>
<!-- Node14&#45;&gt;Node20 -->
<g id="edge22" class="edge">
<title>Node14&#45;&gt;Node20</title>
<path fill="none" stroke="midnightblue" d="M450.27,-56.32C439.16,-48.11 422.26,-35.6 409.02,-25.81"/>
<polygon fill="midnightblue" stroke="midnightblue" points="411.06,-22.97 400.94,-19.83 406.9,-28.59 411.06,-22.97"/>
</g>
<!-- Node21 -->
<g id="node21" class="node">
<title>Node21</title>
<g id="a_node21"><a xlink:title=" ">
<polygon fill="none" stroke="#bfbfbf" points="61.5,-0.5 61.5,-19.5 130.5,-19.5 130.5,-0.5 61.5,-0.5"/>
<text text-anchor="middle" x="96" y="-7.5" font-family="FreeSans.ttf" font-size="10.00">type_traits</text>
</a>
</g>
</g>
<!-- Node14&#45;&gt;Node21 -->
<g id="edge23" class="edge">
<title>Node14&#45;&gt;Node21</title>
<path fill="none" stroke="midnightblue" d="M401.3,-57.34C337.03,-49.01 232.66,-34.9 143,-20 142.25,-19.87 141.49,-19.75 140.72,-19.62"/>
<polygon fill="midnightblue" stroke="midnightblue" points="141.07,-16.12 130.62,-17.83 139.85,-23.02 141.07,-16.12"/>
</g>
<!-- Node22 -->
<g id="node22" class="node">
<title>Node22</title>
<g id="a_node22"><a xlink:title=" ">
<polygon fill="none" stroke="#bfbfbf" points="439.5,-0.5 439.5,-19.5 484.5,-19.5 484.5,-0.5 439.5,-0.5"/>
<text text-anchor="middle" x="462" y="-7.5" font-family="FreeSans.ttf" font-size="10.00">utility</text>
</a>
</g>
</g>
<!-- Node14&#45;&gt;Node22 -->
<g id="edge24" class="edge">
<title>Node14&#45;&gt;Node22</title>
<path fill="none" stroke="midnightblue" d="M462,-56.08C462,-49.01 462,-38.86 462,-29.99"/>
<polygon fill="midnightblue" stroke="midnightblue" points="465.5,-29.75 462,-19.75 458.5,-29.75 465.5,-29.75"/>
</g>
<!-- Node23&#45;&gt;Node5 -->
<g id="edge27" class="edge">
<title>Node23&#45;&gt;Node5</title>
<path fill="none" stroke="midnightblue" d="M168.15,-168.82C171.13,-168.54 174.09,-168.27 177,-168 362.3,-151.05 584.78,-132.45 666.69,-125.67"/>
<polygon fill="midnightblue" stroke="midnightblue" points="667.18,-129.14 676.86,-124.83 666.61,-122.16 667.18,-129.14"/>
</g>
<!-- Node24 -->
<g id="node24" class="node">
<title>Node24</title>
<g id="a_node24"><a xlink:href="MatrixView_8h.html" target="_top" xlink:title=" ">
<polygon fill="none" stroke="black" points="2,-112.5 2,-131.5 154,-131.5 154,-112.5 2,-112.5"/>
<text text-anchor="middle" x="78" y="-119.5" font-family="FreeSans.ttf" font-size="10.00">iDynTree/Core/MatrixView.h</text>
</a>
</g>
</g>
<!-- Node23&#45;&gt;Node24 -->
<g id="edge28" class="edge">
<title>Node23&#45;&gt;Node24</title>
<path fill="none" stroke="midnightblue" d="M83.01,-168.08C82.21,-160.93 81.07,-150.64 80.08,-141.69"/>
<polygon fill="midnightblue" stroke="midnightblue" points="83.56,-141.3 78.97,-131.75 76.6,-142.08 83.56,-141.3"/>
</g>
<!-- Node24&#45;&gt;Node7 -->
<g id="edge32" class="edge">
<title>Node24&#45;&gt;Node7</title>
<path fill="none" stroke="midnightblue" d="M154.22,-114.15C242.19,-106.08 391.5,-91.88 530.21,-76.06"/>
<polygon fill="midnightblue" stroke="midnightblue" points="530.64,-79.53 540.17,-74.92 529.84,-72.58 530.64,-79.53"/>
</g>
<!-- Node24&#45;&gt;Node14 -->
<g id="edge31" class="edge">
<title>Node24&#45;&gt;Node14</title>
<path fill="none" stroke="midnightblue" d="M138.85,-112.44C207.52,-102.79 319.07,-87.1 391.49,-76.92"/>
<polygon fill="midnightblue" stroke="midnightblue" points="392.02,-80.37 401.44,-75.52 391.05,-73.44 392.02,-80.37"/>
</g>
<!-- Node24&#45;&gt;Node15 -->
<g id="edge29" class="edge">
<title>Node24&#45;&gt;Node15</title>
<path fill="none" stroke="midnightblue" d="M85.85,-112.37C102.57,-93.97 141.94,-50.67 163.41,-27.05"/>
<polygon fill="midnightblue" stroke="midnightblue" points="166.05,-29.35 170.19,-19.59 160.87,-24.64 166.05,-29.35"/>
</g>
<!-- Node24&#45;&gt;Node21 -->
<g id="edge30" class="edge">
<title>Node24&#45;&gt;Node21</title>
<path fill="none" stroke="midnightblue" d="M79.41,-112.37C82.32,-94.62 89.02,-53.67 92.96,-29.6"/>
<polygon fill="midnightblue" stroke="midnightblue" points="96.43,-30.03 94.59,-19.59 89.53,-28.89 96.43,-30.03"/>
</g>
<!-- Node25&#45;&gt;Node5 -->
<g id="edge63" class="edge">
<title>Node25&#45;&gt;Node5</title>
<path fill="none" stroke="midnightblue" d="M634,-392.44C634,-373.94 634,-328.81 634,-291 634,-291 634,-291 634,-233 634,-195.18 662.84,-158.94 682.09,-138.96"/>
<polygon fill="midnightblue" stroke="midnightblue" points="684.8,-141.2 689.41,-131.66 679.86,-136.24 684.8,-141.2"/>
</g>
<!-- Node26 -->
<g id="node26" class="node">
<title>Node26</title>
<g id="a_node26"><a xlink:href="Position_8h.html" target="_top" xlink:title=" ">
<polygon fill="none" stroke="black" points="664,-336.5 664,-355.5 800,-355.5 800,-336.5 664,-336.5"/>
<text text-anchor="middle" x="732" y="-343.5" font-family="FreeSans.ttf" font-size="10.00">iDynTree/Core/Position.h</text>
</a>
</g>
</g>
<!-- Node25&#45;&gt;Node26 -->
<g id="edge34" class="edge">
<title>Node25&#45;&gt;Node26</title>
<path fill="none" stroke="midnightblue" d="M649.75,-392.32C665.32,-383.74 689.38,-370.49 707.46,-360.52"/>
<polygon fill="midnightblue" stroke="midnightblue" points="709.22,-363.55 716.29,-355.65 705.85,-357.42 709.22,-363.55"/>
</g>
<!-- Node31 -->
<g id="node31" class="node">
<title>Node31</title>
<g id="a_node31"><a xlink:href="Rotation_8h.html" target="_top" xlink:title=" ">
<polygon fill="none" stroke="black" points="442,-280.5 442,-299.5 580,-299.5 580,-280.5 442,-280.5"/>
<text text-anchor="middle" x="511" y="-287.5" font-family="FreeSans.ttf" font-size="10.00">iDynTree/Core/Rotation.h</text>
</a>
</g>
</g>
<!-- Node25&#45;&gt;Node31 -->
<g id="edge61" class="edge">
<title>Node25&#45;&gt;Node31</title>
<path fill="none" stroke="midnightblue" d="M624.35,-392.37C603.6,-373.81 554.51,-329.91 528.26,-306.44"/>
<polygon fill="midnightblue" stroke="midnightblue" points="530.39,-303.65 520.61,-299.59 525.73,-308.87 530.39,-303.65"/>
</g>
<!-- Node34 -->
<g id="node34" class="node">
<title>Node34</title>
<g id="a_node34"><a xlink:href="MatrixFixSize_8h.html" target="_top" xlink:title=" ">
<polygon fill="none" stroke="black" points="186.5,-168.5 186.5,-187.5 349.5,-187.5 349.5,-168.5 186.5,-168.5"/>
<text text-anchor="middle" x="268" y="-175.5" font-family="FreeSans.ttf" font-size="10.00">iDynTree/Core/MatrixFixSize.h</text>
</a>
</g>
</g>
<!-- Node25&#45;&gt;Node34 -->
<g id="edge62" class="edge">
<title>Node25&#45;&gt;Node34</title>
<path fill="none" stroke="midnightblue" d="M560.9,-399.98C456.54,-394.09 267.88,-366.06 181,-244 164.38,-220.65 198.19,-202.1 228.39,-190.9"/>
<polygon fill="midnightblue" stroke="midnightblue" points="229.73,-194.14 238,-187.52 227.41,-187.53 229.73,-194.14"/>
</g>
<!-- Node26&#45;&gt;Node5 -->
<g id="edge60" class="edge">
<title>Node26&#45;&gt;Node5</title>
<path fill="none" stroke="midnightblue" d="M748.05,-336.44C782.42,-316.99 857.64,-267.75 827,-224 800.14,-185.65 762.26,-219.91 728,-188 714.74,-175.65 707.16,-156.12 703.1,-141.69"/>
<polygon fill="midnightblue" stroke="midnightblue" points="706.46,-140.71 700.64,-131.86 699.67,-142.4 706.46,-140.71"/>
</g>
<!-- Node27 -->
<g id="node27" class="node">
<title>Node27</title>
<g id="a_node27"><a xlink:href="PositionRaw_8h.html" target="_top" xlink:title=" ">
<polygon fill="none" stroke="black" points="662,-224.5 662,-243.5 818,-243.5 818,-224.5 662,-224.5"/>
<text text-anchor="middle" x="740" y="-231.5" font-family="FreeSans.ttf" font-size="10.00">iDynTree/Core/PositionRaw.h</text>
</a>
</g>
</g>
<!-- Node26&#45;&gt;Node27 -->
<g id="edge35" class="edge">
<title>Node26&#45;&gt;Node27</title>
<path fill="none" stroke="midnightblue" d="M732.63,-336.37C733.92,-318.62 736.9,-277.67 738.65,-253.6"/>
<polygon fill="midnightblue" stroke="midnightblue" points="742.14,-253.82 739.38,-243.59 735.16,-253.31 742.14,-253.82"/>
</g>
<!-- Node26&#45;&gt;Node31 -->
<g id="edge45" class="edge">
<title>Node26&#45;&gt;Node31</title>
<path fill="none" stroke="midnightblue" d="M696.98,-336.44C658.75,-327.1 597.43,-312.12 555.74,-301.93"/>
<polygon fill="midnightblue" stroke="midnightblue" points="556.4,-298.49 545.85,-299.52 554.74,-305.29 556.4,-298.49"/>
</g>
<!-- Node27&#45;&gt;Node5 -->
<g id="edge44" class="edge">
<title>Node27&#45;&gt;Node5</title>
<path fill="none" stroke="midnightblue" d="M727.22,-224.37C716.61,-216.36 702.27,-203.38 696,-188 690,-173.29 691.5,-155.13 694.07,-141.74"/>
<polygon fill="midnightblue" stroke="midnightblue" points="697.52,-142.33 696.33,-131.81 690.7,-140.78 697.52,-142.33"/>
</g>
<!-- Node28 -->
<g id="node28" class="node">
<title>Node28</title>
<g id="a_node28"><a xlink:href="VectorFixSize_8h.html" target="_top" xlink:title=" ">
<polygon fill="none" stroke="black" points="368,-168.5 368,-187.5 530,-187.5 530,-168.5 368,-168.5"/>
<text text-anchor="middle" x="449" y="-175.5" font-family="FreeSans.ttf" font-size="10.00">iDynTree/Core/VectorFixSize.h</text>
</a>
</g>
</g>
<!-- Node27&#45;&gt;Node28 -->
<g id="edge36" class="edge">
<title>Node27&#45;&gt;Node28</title>
<path fill="none" stroke="midnightblue" d="M693.89,-224.44C642.59,-214.92 559.73,-199.55 504.81,-189.36"/>
<polygon fill="midnightblue" stroke="midnightblue" points="505.36,-185.9 494.89,-187.52 504.09,-192.78 505.36,-185.9"/>
</g>
<!-- Node28&#45;&gt;Node5 -->
<g id="edge39" class="edge">
<title>Node28&#45;&gt;Node5</title>
<path fill="none" stroke="midnightblue" d="M492.14,-168.43C535.44,-159.7 603.99,-145.58 663,-132 664.27,-131.71 665.57,-131.4 666.87,-131.1"/>
<polygon fill="midnightblue" stroke="midnightblue" points="668.05,-134.41 676.95,-128.65 666.4,-127.61 668.05,-134.41"/>
</g>
<!-- Node28&#45;&gt;Node7 -->
<g id="edge37" class="edge">
<title>Node28&#45;&gt;Node7</title>
<path fill="none" stroke="midnightblue" d="M460.85,-168.37C486.65,-149.57 548.15,-104.77 580.05,-81.53"/>
<polygon fill="midnightblue" stroke="midnightblue" points="582.18,-84.31 588.21,-75.59 578.06,-78.65 582.18,-84.31"/>
</g>
<!-- Node28&#45;&gt;Node8 -->
<g id="edge42" class="edge">
<title>Node28&#45;&gt;Node8</title>
<path fill="none" stroke="midnightblue" d="M469.99,-168.44C509.53,-152.07 597.44,-114.52 668,-76 697.09,-60.12 729.08,-39.11 749.34,-25.34"/>
<polygon fill="midnightblue" stroke="midnightblue" points="751.5,-28.1 757.77,-19.56 747.54,-22.33 751.5,-28.1"/>
</g>
<!-- Node28&#45;&gt;Node14 -->
<g id="edge38" class="edge">
<title>Node28&#45;&gt;Node14</title>
<path fill="none" stroke="midnightblue" d="M461.5,-168.3C471.87,-160.25 485.89,-147.24 492,-132 498.75,-115.16 488.04,-96.38 477.59,-83.36"/>
<polygon fill="midnightblue" stroke="midnightblue" points="480.15,-80.96 470.95,-75.71 474.87,-85.55 480.15,-80.96"/>
</g>
<!-- Node28&#45;&gt;Node15 -->
<g id="edge41" class="edge">
<title>Node28&#45;&gt;Node15</title>
<path fill="none" stroke="midnightblue" d="M454.02,-168.11C460.86,-154.68 470.95,-129 459,-112 444.33,-91.14 286.24,-42.69 213.84,-21.38"/>
<polygon fill="midnightblue" stroke="midnightblue" points="214.79,-18.01 204.21,-18.55 212.82,-24.73 214.79,-18.01"/>
</g>
<!-- Node29 -->
<g id="node29" class="node">
<title>Node29</title>
<g id="a_node29"><a xlink:title=" ">
<polygon fill="none" stroke="#bfbfbf" points="326,-112.5 326,-131.5 382,-131.5 382,-112.5 326,-112.5"/>
<text text-anchor="middle" x="354" y="-119.5" font-family="FreeSans.ttf" font-size="10.00">sstream</text>
</a>
</g>
</g>
<!-- Node28&#45;&gt;Node29 -->
<g id="edge40" class="edge">
<title>Node28&#45;&gt;Node29</title>
<path fill="none" stroke="midnightblue" d="M433.74,-168.32C418.78,-159.82 395.75,-146.73 378.27,-136.8"/>
<polygon fill="midnightblue" stroke="midnightblue" points="379.65,-133.55 369.23,-131.65 376.19,-139.64 379.65,-133.55"/>
</g>
<!-- Node30 -->
<g id="node30" class="node">
<title>Node30</title>
<g id="a_node30"><a xlink:title=" ">
<polygon fill="none" stroke="#bfbfbf" points="400,-112.5 400,-131.5 450,-131.5 450,-112.5 400,-112.5"/>
<text text-anchor="middle" x="425" y="-119.5" font-family="FreeSans.ttf" font-size="10.00">cstring</text>
</a>
</g>
</g>
<!-- Node28&#45;&gt;Node30 -->
<g id="edge43" class="edge">
<title>Node28&#45;&gt;Node30</title>
<path fill="none" stroke="midnightblue" d="M445.04,-168.08C441.79,-160.77 437.08,-150.18 433.05,-141.1"/>
<polygon fill="midnightblue" stroke="midnightblue" points="436.15,-139.47 428.89,-131.75 429.75,-142.31 436.15,-139.47"/>
</g>
<!-- Node31&#45;&gt;Node5 -->
<g id="edge46" class="edge">
<title>Node31&#45;&gt;Node5</title>
<path fill="none" stroke="midnightblue" d="M527.46,-280.35C541.59,-272.32 561.86,-259.34 576,-244 602.46,-215.31 592.3,-195.5 620,-168 633.63,-154.46 652.17,-143.62 667.85,-135.98"/>
<polygon fill="midnightblue" stroke="midnightblue" points="669.6,-139.03 677.18,-131.64 666.64,-132.68 669.6,-139.03"/>
</g>
<!-- Node31&#45;&gt;Node28 -->
<g id="edge59" class="edge">
<title>Node31&#45;&gt;Node28</title>
<path fill="none" stroke="midnightblue" d="M452.43,-280.48C430.67,-274.16 408.12,-263.16 395,-244 382.28,-225.42 404.22,-205.75 423.84,-192.98"/>
<polygon fill="midnightblue" stroke="midnightblue" points="425.87,-195.84 432.56,-187.63 422.2,-189.88 425.87,-195.84"/>
</g>
<!-- Node32 -->
<g id="node32" class="node">
<title>Node32</title>
<g id="a_node32"><a xlink:href="GeomVector3_8h.html" target="_top" xlink:title=" ">
<polygon fill="none" stroke="black" points="404.5,-224.5 404.5,-243.5 567.5,-243.5 567.5,-224.5 404.5,-224.5"/>
<text text-anchor="middle" x="486" y="-231.5" font-family="FreeSans.ttf" font-size="10.00">iDynTree/Core/GeomVector3.h</text>
</a>
</g>
</g>
<!-- Node31&#45;&gt;Node32 -->
<g id="edge47" class="edge">
<title>Node31&#45;&gt;Node32</title>
<path fill="none" stroke="midnightblue" d="M506.87,-280.08C503.49,-272.77 498.58,-262.18 494.38,-253.1"/>
<polygon fill="midnightblue" stroke="midnightblue" points="497.43,-251.36 490.05,-243.75 491.08,-254.3 497.43,-251.36"/>
</g>
<!-- Node33 -->
<g id="node33" class="node">
<title>Node33</title>
<g id="a_node33"><a xlink:href="RotationRaw_8h.html" target="_top" xlink:title=" ">
<polygon fill="none" stroke="black" points="190,-224.5 190,-243.5 348,-243.5 348,-224.5 190,-224.5"/>
<text text-anchor="middle" x="269" y="-231.5" font-family="FreeSans.ttf" font-size="10.00">iDynTree/Core/RotationRaw.h</text>
</a>
</g>
</g>
<!-- Node31&#45;&gt;Node33 -->
<g id="edge49" class="edge">
<title>Node31&#45;&gt;Node33</title>
<path fill="none" stroke="midnightblue" d="M472.65,-280.44C430.53,-271.04 362.79,-255.93 317.13,-245.74"/>
<polygon fill="midnightblue" stroke="midnightblue" points="317.69,-242.28 307.17,-243.52 316.16,-249.11 317.69,-242.28"/>
</g>
<!-- Node32&#45;&gt;Node28 -->
<g id="edge48" class="edge">
<title>Node32&#45;&gt;Node28</title>
<path fill="none" stroke="midnightblue" d="M479.89,-224.08C474.72,-216.53 467.15,-205.49 460.81,-196.23"/>
<polygon fill="midnightblue" stroke="midnightblue" points="463.54,-194.02 455,-187.75 457.76,-197.98 463.54,-194.02"/>
</g>
<!-- Node33&#45;&gt;Node5 -->
<g id="edge58" class="edge">
<title>Node33&#45;&gt;Node5</title>
<path fill="none" stroke="midnightblue" d="M348.28,-225.49C402.79,-218.96 476.35,-207.4 539,-188 559.13,-181.77 562.6,-176.23 582,-168 610.57,-155.88 643.63,-143.29 667.3,-134.53"/>
<polygon fill="midnightblue" stroke="midnightblue" points="668.65,-137.76 676.83,-131.02 666.23,-131.19 668.65,-137.76"/>
</g>
<!-- Node33&#45;&gt;Node34 -->
<g id="edge50" class="edge">
<title>Node33&#45;&gt;Node34</title>
<path fill="none" stroke="midnightblue" d="M268.83,-224.08C268.7,-217.01 268.52,-206.86 268.35,-197.99"/>
<polygon fill="midnightblue" stroke="midnightblue" points="271.85,-197.68 268.16,-187.75 264.85,-197.81 271.85,-197.68"/>
</g>
<!-- Node34&#45;&gt;Node5 -->
<g id="edge55" class="edge">
<title>Node34&#45;&gt;Node5</title>
<path fill="none" stroke="midnightblue" d="M336.29,-168.44C430.67,-156.62 597.19,-135.76 666.9,-127.02"/>
<polygon fill="midnightblue" stroke="midnightblue" points="667.36,-130.49 676.85,-125.78 666.49,-123.55 667.36,-130.49"/>
</g>
<!-- Node34&#45;&gt;Node7 -->
<g id="edge51" class="edge">
<title>Node34&#45;&gt;Node7</title>
<path fill="none" stroke="midnightblue" d="M271.93,-168.12C278.81,-153.72 294.47,-125.54 317,-112 326.11,-106.52 449.23,-88.3 530.05,-76.79"/>
<polygon fill="midnightblue" stroke="midnightblue" points="530.76,-80.22 540.17,-75.35 529.78,-73.29 530.76,-80.22"/>
</g>
<!-- Node34&#45;&gt;Node15 -->
<g id="edge53" class="edge">
<title>Node34&#45;&gt;Node15</title>
<path fill="none" stroke="midnightblue" d="M247.13,-168.37C231.93,-160.97 212.12,-148.84 201,-132 180.26,-100.59 177.17,-55.16 177.26,-29.85"/>
<polygon fill="midnightblue" stroke="midnightblue" points="180.76,-29.83 177.47,-19.75 173.76,-29.68 180.76,-29.83"/>
</g>
<!-- Node34&#45;&gt;Node24 -->
<g id="edge52" class="edge">
<title>Node34&#45;&gt;Node24</title>
<path fill="none" stroke="midnightblue" d="M237.89,-168.44C205.37,-159.2 153.42,-144.44 117.61,-134.26"/>
<polygon fill="midnightblue" stroke="midnightblue" points="118.54,-130.88 107.97,-131.52 116.63,-137.62 118.54,-130.88"/>
</g>
<!-- Node34&#45;&gt;Node29 -->
<g id="edge57" class="edge">
<title>Node34&#45;&gt;Node29</title>
<path fill="none" stroke="midnightblue" d="M281.82,-168.32C295.23,-159.9 315.82,-146.97 331.59,-137.07"/>
<polygon fill="midnightblue" stroke="midnightblue" points="333.61,-139.94 340.22,-131.65 329.89,-134.01 333.61,-139.94"/>
</g>
<!-- Node34&#45;&gt;Node30 -->
<g id="edge54" class="edge">
<title>Node34&#45;&gt;Node30</title>
<path fill="none" stroke="midnightblue" d="M292.88,-168.44C319.29,-159.36 361.22,-144.94 390.74,-134.78"/>
<polygon fill="midnightblue" stroke="midnightblue" points="391.92,-138.08 400.24,-131.52 389.64,-131.46 391.92,-138.08"/>
</g>
<!-- Node35 -->
<g id="node35" class="node">
<title>Node35</title>
<g id="a_node35"><a xlink:title=" ">
<polygon fill="none" stroke="#bfbfbf" points="210,-112.5 210,-131.5 270,-131.5 270,-112.5 210,-112.5"/>
<text text-anchor="middle" x="240" y="-119.5" font-family="FreeSans.ttf" font-size="10.00">iostream</text>
</a>
</g>
</g>
<!-- Node34&#45;&gt;Node35 -->
<g id="edge56" class="edge">
<title>Node34&#45;&gt;Node35</title>
<path fill="none" stroke="midnightblue" d="M263.38,-168.08C259.54,-160.69 253.98,-149.95 249.24,-140.81"/>
<polygon fill="midnightblue" stroke="midnightblue" points="252.25,-139.02 244.54,-131.75 246.03,-142.24 252.25,-139.02"/>
</g>
</g>
</svg>
