<?xml version="1.0" encoding="UTF-8" standalone="no"?>
<!DOCTYPE svg PUBLIC "-//W3C//DTD SVG 1.1//EN"
 "http://www.w3.org/Graphics/SVG/1.1/DTD/svg11.dtd">
<!-- Generated by graphviz version 2.43.0 (0)
 -->
<!-- Title: Link.h Pages: 1 -->
<svg width="5325pt" height="285pt"
 viewBox="0.00 0.00 5324.75 285.00" xmlns="http://www.w3.org/2000/svg" xmlns:xlink="http://www.w3.org/1999/xlink">
<g id="graph0" class="graph" transform="scale(1 1) rotate(0) translate(4 281)">
<title>Link.h</title>
<!-- Node1 -->
<g id="node1" class="node">
<title>Node1</title>
<g id="a_node1"><a xlink:title=" ">
<polygon fill="#bfbfbf" stroke="black" points="2478,-257.5 2478,-276.5 2524,-276.5 2524,-257.5 2478,-257.5"/>
<text text-anchor="middle" x="2501" y="-264.5" font-family="FreeSans.ttf" font-size="10.00">Link.h</text>
</a>
</g>
</g>
<!-- Node2 -->
<g id="node2" class="node">
<title>Node2</title>
<g id="a_node2"><a xlink:href="Model_8h.html" target="_top" xlink:title=" ">
<polygon fill="none" stroke="red" points="2436,-201.5 2436,-220.5 2492,-220.5 2492,-201.5 2436,-201.5"/>
<text text-anchor="middle" x="2464" y="-208.5" font-family="FreeSans.ttf" font-size="10.00">Model.h</text>
</a>
</g>
</g>
<!-- Node1&#45;&gt;Node2 -->
<g id="edge1" class="edge">
<title>Node1&#45;&gt;Node2</title>
<path fill="none" stroke="midnightblue" d="M2489.05,-248.57C2482.69,-239.27 2475.13,-228.25 2470,-220.75"/>
<polygon fill="midnightblue" stroke="midnightblue" points="2486.35,-250.81 2494.89,-257.08 2492.13,-246.86 2486.35,-250.81"/>
</g>
<!-- Node89 -->
<g id="node48" class="node">
<title>Node89</title>
<g id="a_node48"><a xlink:href="Link_8cpp.html" target="_top" xlink:title=" ">
<polygon fill="none" stroke="black" points="2510.5,-201.5 2510.5,-220.5 2567.5,-220.5 2567.5,-201.5 2510.5,-201.5"/>
<text text-anchor="middle" x="2539" y="-208.5" font-family="FreeSans.ttf" font-size="10.00">Link.cpp</text>
</a>
</g>
</g>
<!-- Node1&#45;&gt;Node89 -->
<g id="edge70" class="edge">
<title>Node1&#45;&gt;Node89</title>
<path fill="none" stroke="midnightblue" d="M2513.06,-248.86C2519.64,-239.5 2527.51,-228.33 2532.84,-220.75"/>
<polygon fill="midnightblue" stroke="midnightblue" points="2510.17,-246.89 2507.27,-257.08 2515.89,-250.92 2510.17,-246.89"/>
</g>
<!-- Node90 -->
<g id="node49" class="node">
<title>Node90</title>
<g id="a_node49"><a xlink:href="LinkElement_8h.html" target="_top" xlink:title=" ">
<polygon fill="none" stroke="black" points="1208,-140 1208,-159 1294,-159 1294,-140 1208,-140"/>
<text text-anchor="middle" x="1251" y="-147" font-family="FreeSans.ttf" font-size="10.00">LinkElement.h</text>
</a>
</g>
</g>
<!-- Node1&#45;&gt;Node90 -->
<g id="edge71" class="edge">
<title>Node1&#45;&gt;Node90</title>
<path fill="none" stroke="midnightblue" d="M2467.48,-265.18C2325.86,-261.3 1762.98,-241.59 1308,-165 1299.04,-163.49 1289.42,-161.28 1280.68,-159.03"/>
<polygon fill="midnightblue" stroke="midnightblue" points="2467.59,-268.68 2477.68,-265.45 2467.77,-261.69 2467.59,-268.68"/>
</g>
<!-- Node71 -->
<g id="node50" class="node">
<title>Node71</title>
<g id="a_node50"><a xlink:href="SixAxisForceTorqueSensor_8cpp.html" target="_top" xlink:title=" ">
<polygon fill="none" stroke="black" points="2586,-201.5 2586,-220.5 2750,-220.5 2750,-201.5 2586,-201.5"/>
<text text-anchor="middle" x="2668" y="-208.5" font-family="FreeSans.ttf" font-size="10.00">SixAxisForceTorqueSensor.cpp</text>
</a>
</g>
</g>
<!-- Node1&#45;&gt;Node71 -->
<g id="edge74" class="edge">
<title>Node1&#45;&gt;Node71</title>
<path fill="none" stroke="midnightblue" d="M2533.88,-255.37C2565.45,-245.16 2612.51,-229.94 2641.68,-220.51"/>
<polygon fill="midnightblue" stroke="midnightblue" points="2532.66,-252.08 2524.22,-258.49 2534.81,-258.75 2532.66,-252.08"/>
</g>
<!-- Node3 -->
<g id="node3" class="node">
<title>Node3</title>
<g id="a_node3"><a xlink:href="ExtWrenchesAndJointTorquesEstimator_8h.html" target="_top" xlink:title=" ">
<polygon fill="none" stroke="black" points="364,-67.5 364,-97.5 522,-97.5 522,-67.5 364,-67.5"/>
<text text-anchor="start" x="372" y="-85.5" font-family="FreeSans.ttf" font-size="10.00">ExtWrenchesAndJointTorques</text>
<text text-anchor="middle" x="443" y="-74.5" font-family="FreeSans.ttf" font-size="10.00">Estimator.h</text>
</a>
</g>
</g>
<!-- Node2&#45;&gt;Node3 -->
<g id="edge2" class="edge">
<title>Node2&#45;&gt;Node3</title>
<path fill="none" stroke="midnightblue" d="M2425.64,-209.93C2178.37,-209.36 813.7,-204.44 633,-165 570.41,-151.34 502.73,-117.1 467.49,-97.63"/>
<polygon fill="midnightblue" stroke="midnightblue" points="2425.91,-213.43 2435.92,-209.95 2425.93,-206.43 2425.91,-213.43"/>
</g>
<!-- Node4 -->
<g id="node4" class="node">
<title>Node4</title>
<g id="a_node4"><a xlink:href="ExtWrenchesAndJointTorquesEstimator_8cpp.html" target="_top" xlink:title=" ">
<polygon fill="none" stroke="black" points="468,-0.5 468,-30.5 626,-30.5 626,-0.5 468,-0.5"/>
<text text-anchor="start" x="476" y="-18.5" font-family="FreeSans.ttf" font-size="10.00">ExtWrenchesAndJointTorques</text>
<text text-anchor="middle" x="547" y="-7.5" font-family="FreeSans.ttf" font-size="10.00">Estimator.cpp</text>
</a>
</g>
</g>
<!-- Node2&#45;&gt;Node4 -->
<g id="edge8" class="edge">
<title>Node2&#45;&gt;Node4</title>
<path fill="none" stroke="midnightblue" d="M2425.71,-209.85C2171.41,-208.78 730.58,-201.11 539,-165 453.48,-148.88 404.91,-169.29 355,-98 347.1,-86.71 346.59,-77.91 355,-67 362.77,-56.92 425.53,-41.65 477.21,-30.54"/>
<polygon fill="midnightblue" stroke="midnightblue" points="2425.91,-213.35 2435.93,-209.9 2425.94,-206.35 2425.91,-213.35"/>
</g>
<!-- Node5 -->
<g id="node5" class="node">
<title>Node5</title>
<g id="a_node5"><a xlink:href="GravityCompensationHelpers_8h.html" target="_top" xlink:title=" ">
<polygon fill="none" stroke="red" points="1736,-140 1736,-159 1906,-159 1906,-140 1736,-140"/>
<text text-anchor="middle" x="1821" y="-147" font-family="FreeSans.ttf" font-size="10.00">GravityCompensationHelpers.h</text>
</a>
</g>
</g>
<!-- Node2&#45;&gt;Node5 -->
<g id="edge4" class="edge">
<title>Node2&#45;&gt;Node5</title>
<path fill="none" stroke="midnightblue" d="M2425.72,-207.8C2336.19,-202.46 2106.2,-187.55 1915,-165 1901.06,-163.36 1886.02,-161.2 1872.13,-159.07"/>
<polygon fill="midnightblue" stroke="midnightblue" points="2425.75,-211.31 2435.93,-208.41 2426.16,-204.32 2425.75,-211.31"/>
</g>
<!-- Node7 -->
<g id="node6" class="node">
<title>Node7</title>
<g id="a_node6"><a xlink:href="SimpleLeggedOdometry_8h.html" target="_top" xlink:title=" ">
<polygon fill="none" stroke="red" points="1924,-140 1924,-159 2066,-159 2066,-140 1924,-140"/>
<text text-anchor="middle" x="1995" y="-147" font-family="FreeSans.ttf" font-size="10.00">SimpleLeggedOdometry.h</text>
</a>
</g>
</g>
<!-- Node2&#45;&gt;Node7 -->
<g id="edge5" class="edge">
<title>Node2&#45;&gt;Node7</title>
<path fill="none" stroke="midnightblue" d="M2425.5,-206.37C2355.54,-199.6 2202.93,-183.97 2075,-165 2063.41,-163.28 2050.93,-161.15 2039.35,-159.06"/>
<polygon fill="midnightblue" stroke="midnightblue" points="2425.32,-209.87 2435.61,-207.35 2425.99,-202.9 2425.32,-209.87"/>
</g>
<!-- Node9 -->
<g id="node7" class="node">
<title>Node9</title>
<g id="a_node7"><a xlink:href="BerdyHelper_8cpp.html" target="_top" xlink:title=" ">
<polygon fill="none" stroke="black" points="722.5,-73 722.5,-92 819.5,-92 819.5,-73 722.5,-73"/>
<text text-anchor="middle" x="771" y="-80" font-family="FreeSans.ttf" font-size="10.00">BerdyHelper.cpp</text>
</a>
</g>
</g>
<!-- Node2&#45;&gt;Node9 -->
<g id="edge6" class="edge">
<title>Node2&#45;&gt;Node9</title>
<path fill="none" stroke="midnightblue" d="M2425.8,-209.38C2241.8,-206.29 1445.75,-191.59 1199,-165 1032.84,-147.09 992.38,-133.17 829,-98 820.68,-96.21 811.74,-94.08 803.43,-92.01"/>
<polygon fill="midnightblue" stroke="midnightblue" points="2425.76,-212.88 2435.81,-209.55 2425.87,-205.88 2425.76,-212.88"/>
</g>
<!-- Node10 -->
<g id="node8" class="node">
<title>Node10</title>
<g id="a_node8"><a xlink:href="ExternalWrenchesEstimation_8cpp.html" target="_top" xlink:title=" ">
<polygon fill="none" stroke="black" points="962,-73 962,-92 1140,-92 1140,-73 962,-73"/>
<text text-anchor="middle" x="1051" y="-80" font-family="FreeSans.ttf" font-size="10.00">ExternalWrenchesEstimation.cpp</text>
</a>
</g>
</g>
<!-- Node2&#45;&gt;Node10 -->
<g id="edge7" class="edge">
<title>Node2&#45;&gt;Node10</title>
<path fill="none" stroke="midnightblue" d="M2425.84,-209.85C2244.42,-208.95 1473.88,-202.91 1374,-165 1353.62,-157.27 1355.81,-143.08 1336,-134 1315.62,-124.66 1185.1,-103.79 1107.94,-92.01"/>
<polygon fill="midnightblue" stroke="midnightblue" points="2425.95,-213.35 2435.97,-209.9 2425.98,-206.35 2425.95,-213.35"/>
</g>
<!-- Node11 -->
<g id="node9" class="node">
<title>Node11</title>
<g id="a_node9"><a xlink:href="KinDynComputations_8cpp.html" target="_top" xlink:title=" ">
<polygon fill="none" stroke="black" points="158,-6 158,-25 298,-25 298,-6 158,-6"/>
<text text-anchor="middle" x="228" y="-13" font-family="FreeSans.ttf" font-size="10.00">KinDynComputations.cpp</text>
</a>
</g>
</g>
<!-- Node2&#45;&gt;Node11 -->
<g id="edge9" class="edge">
<title>Node2&#45;&gt;Node11</title>
<path fill="none" stroke="midnightblue" d="M2425.39,-209.94C2136.27,-209.41 318.29,-204.47 210,-165 156.37,-145.45 96.99,-115.55 127,-67 140.6,-44.99 167.03,-32.25 189.44,-25.07"/>
<polygon fill="midnightblue" stroke="midnightblue" points="2425.77,-213.44 2435.78,-209.96 2425.78,-206.44 2425.77,-213.44"/>
</g>
<!-- Node12 -->
<g id="node10" class="node">
<title>Node12</title>
<g id="a_node10"><a xlink:href="skinDynLibConversionsImplementation_8h.html" target="_top" xlink:title=" ">
<polygon fill="none" stroke="red" points="2084,-140 2084,-159 2302,-159 2302,-140 2084,-140"/>
<text text-anchor="middle" x="2193" y="-147" font-family="FreeSans.ttf" font-size="10.00">skinDynLibConversionsImplementation.h</text>
</a>
</g>
</g>
<!-- Node2&#45;&gt;Node12 -->
<g id="edge10" class="edge">
<title>Node2&#45;&gt;Node12</title>
<path fill="none" stroke="midnightblue" d="M2425.74,-201.6C2374.42,-190.33 2283.76,-170.43 2232.04,-159.07"/>
<polygon fill="midnightblue" stroke="midnightblue" points="2425.25,-205.07 2435.77,-203.8 2426.75,-198.24 2425.25,-205.07"/>
</g>
<!-- Node14 -->
<g id="node11" class="node">
<title>Node14</title>
<g id="a_node11"><a xlink:href="InverseKinematicsData_8h.html" target="_top" xlink:title=" ">
<polygon fill="none" stroke="red" points="2320,-140 2320,-159 2460,-159 2460,-140 2320,-140"/>
<text text-anchor="middle" x="2390" y="-147" font-family="FreeSans.ttf" font-size="10.00">InverseKinematicsData.h</text>
</a>
</g>
</g>
<!-- Node2&#45;&gt;Node14 -->
<g id="edge11" class="edge">
<title>Node2&#45;&gt;Node14</title>
<path fill="none" stroke="midnightblue" d="M2445.31,-194.97C2431.16,-183.59 2412.22,-168.37 2400.58,-159.01"/>
<polygon fill="midnightblue" stroke="midnightblue" points="2443.41,-197.94 2453.4,-201.48 2447.8,-192.48 2443.41,-197.94"/>
</g>
<!-- Node17 -->
<g id="node12" class="node">
<title>Node17</title>
<g id="a_node12"><a xlink:href="DenavitHartenberg_8h.html" target="_top" xlink:title=" ">
<polygon fill="none" stroke="red" points="2478.5,-140 2478.5,-159 2597.5,-159 2597.5,-140 2478.5,-140"/>
<text text-anchor="middle" x="2538" y="-147" font-family="FreeSans.ttf" font-size="10.00">DenavitHartenberg.h</text>
</a>
</g>
</g>
<!-- Node2&#45;&gt;Node17 -->
<g id="edge12" class="edge">
<title>Node2&#45;&gt;Node17</title>
<path fill="none" stroke="midnightblue" d="M2482.69,-194.97C2496.84,-183.59 2515.78,-168.37 2527.42,-159.01"/>
<polygon fill="midnightblue" stroke="midnightblue" points="2480.2,-192.48 2474.6,-201.48 2484.59,-197.94 2480.2,-192.48"/>
</g>
<!-- Node21 -->
<g id="node13" class="node">
<title>Node21</title>
<g id="a_node13"><a xlink:href="ModelTestUtils_8h.html" target="_top" xlink:title=" ">
<polygon fill="none" stroke="black" points="2616,-140 2616,-159 2714,-159 2714,-140 2616,-140"/>
<text text-anchor="middle" x="2665" y="-147" font-family="FreeSans.ttf" font-size="10.00">ModelTestUtils.h</text>
</a>
</g>
</g>
<!-- Node2&#45;&gt;Node21 -->
<g id="edge13" class="edge">
<title>Node2&#45;&gt;Node21</title>
<path fill="none" stroke="midnightblue" d="M2502.3,-198.66C2541.31,-187.11 2600.92,-169.47 2636.12,-159.05"/>
<polygon fill="midnightblue" stroke="midnightblue" points="2500.97,-195.41 2492.37,-201.6 2502.95,-202.12 2500.97,-195.41"/>
</g>
<!-- Node22 -->
<g id="node14" class="node">
<title>Node22</title>
<g id="a_node14"><a xlink:href="ContactWrench_8cpp.html" target="_top" xlink:title=" ">
<polygon fill="none" stroke="black" points="2732.5,-140 2732.5,-159 2843.5,-159 2843.5,-140 2732.5,-140"/>
<text text-anchor="middle" x="2788" y="-147" font-family="FreeSans.ttf" font-size="10.00">ContactWrench.cpp</text>
</a>
</g>
</g>
<!-- Node2&#45;&gt;Node22 -->
<g id="edge14" class="edge">
<title>Node2&#45;&gt;Node22</title>
<path fill="none" stroke="midnightblue" d="M2502.3,-200.87C2600.71,-181.33 2628.01,-183.28 2723,-165 2732.31,-163.21 2742.32,-161.08 2751.64,-159.01"/>
<polygon fill="midnightblue" stroke="midnightblue" points="2501.34,-197.49 2492.23,-202.89 2502.72,-204.35 2501.34,-197.49"/>
</g>
<!-- Node23 -->
<g id="node15" class="node">
<title>Node23</title>
<g id="a_node15"><a xlink:href="Dynamics_8cpp.html" target="_top" xlink:title=" ">
<polygon fill="none" stroke="black" points="2862,-140 2862,-159 2948,-159 2948,-140 2862,-140"/>
<text text-anchor="middle" x="2905" y="-147" font-family="FreeSans.ttf" font-size="10.00">Dynamics.cpp</text>
</a>
</g>
</g>
<!-- Node2&#45;&gt;Node23 -->
<g id="edge15" class="edge">
<title>Node2&#45;&gt;Node23</title>
<path fill="none" stroke="midnightblue" d="M2502.1,-201.04C2657.33,-175.18 2701.01,-193.2 2852,-165 2860.25,-163.46 2869.09,-161.26 2877.14,-159.05"/>
<polygon fill="midnightblue" stroke="midnightblue" points="2501.47,-197.59 2492.2,-202.72 2502.64,-204.5 2501.47,-197.59"/>
</g>
<!-- Node24 -->
<g id="node16" class="node">
<title>Node24</title>
<g id="a_node16"><a xlink:href="DynamicsLinearization_8cpp.html" target="_top" xlink:title=" ">
<polygon fill="none" stroke="black" points="2966.5,-140 2966.5,-159 3115.5,-159 3115.5,-140 2966.5,-140"/>
<text text-anchor="middle" x="3041" y="-147" font-family="FreeSans.ttf" font-size="10.00">DynamicsLinearization.cpp</text>
</a>
</g>
</g>
<!-- Node2&#45;&gt;Node24 -->
<g id="edge16" class="edge">
<title>Node2&#45;&gt;Node24</title>
<path fill="none" stroke="midnightblue" d="M2502.2,-201.06C2703.51,-169.55 2758.54,-189.91 2957,-165 2969.77,-163.4 2983.57,-161.21 2996.21,-159.02"/>
<polygon fill="midnightblue" stroke="midnightblue" points="2501.51,-197.63 2492.19,-202.65 2502.61,-204.54 2501.51,-197.63"/>
</g>
<!-- Node25 -->
<g id="node17" class="node">
<title>Node25</title>
<g id="a_node17"><a xlink:href="ForwardKinematics_8cpp.html" target="_top" xlink:title=" ">
<polygon fill="none" stroke="black" points="3133.5,-140 3133.5,-159 3264.5,-159 3264.5,-140 3133.5,-140"/>
<text text-anchor="middle" x="3199" y="-147" font-family="FreeSans.ttf" font-size="10.00">ForwardKinematics.cpp</text>
</a>
</g>
</g>
<!-- Node2&#45;&gt;Node25 -->
<g id="edge17" class="edge">
<title>Node2&#45;&gt;Node25</title>
<path fill="none" stroke="midnightblue" d="M2502.45,-201.07C2777.14,-161.01 2852.15,-198.98 3124,-165 3135.84,-163.52 3148.63,-161.29 3160.23,-159.02"/>
<polygon fill="midnightblue" stroke="midnightblue" points="2501.56,-197.66 2492.18,-202.59 2502.58,-204.59 2501.56,-197.66"/>
</g>
<!-- Node26 -->
<g id="node18" class="node">
<title>Node26</title>
<g id="a_node18"><a xlink:href="FreeFloatingMatrices_8cpp.html" target="_top" xlink:title=" ">
<polygon fill="none" stroke="black" points="3283,-140 3283,-159 3423,-159 3423,-140 3283,-140"/>
<text text-anchor="middle" x="3353" y="-147" font-family="FreeSans.ttf" font-size="10.00">FreeFloatingMatrices.cpp</text>
</a>
</g>
</g>
<!-- Node2&#45;&gt;Node26 -->
<g id="edge18" class="edge">
<title>Node2&#45;&gt;Node26</title>
<path fill="none" stroke="midnightblue" d="M2502.32,-201.11C2842.79,-153.18 2935.04,-203.34 3273,-165 3285.76,-163.55 3299.56,-161.3 3312.05,-159"/>
<polygon fill="midnightblue" stroke="midnightblue" points="2501.58,-197.68 2492.17,-202.56 2502.57,-204.61 2501.58,-197.68"/>
</g>
<!-- Node27 -->
<g id="node19" class="node">
<title>Node27</title>
<g id="a_node19"><a xlink:href="FreeFloatingState_8cpp.html" target="_top" xlink:title=" ">
<polygon fill="none" stroke="black" points="3441.5,-140 3441.5,-159 3564.5,-159 3564.5,-140 3441.5,-140"/>
<text text-anchor="middle" x="3503" y="-147" font-family="FreeSans.ttf" font-size="10.00">FreeFloatingState.cpp</text>
</a>
</g>
</g>
<!-- Node2&#45;&gt;Node27 -->
<g id="edge19" class="edge">
<title>Node2&#45;&gt;Node27</title>
<path fill="none" stroke="midnightblue" d="M2502.24,-201.14C2912.9,-144.91 3024.21,-214.19 3432,-165 3443.49,-163.61 3455.89,-161.35 3467.07,-159.02"/>
<polygon fill="midnightblue" stroke="midnightblue" points="2501.59,-197.69 2492.17,-202.53 2502.56,-204.63 2501.59,-197.69"/>
</g>
<!-- Node28 -->
<g id="node20" class="node">
<title>Node28</title>
<g id="a_node20"><a xlink:href="Jacobians_8cpp.html" target="_top" xlink:title=" ">
<polygon fill="none" stroke="black" points="3582.5,-140 3582.5,-159 3665.5,-159 3665.5,-140 3582.5,-140"/>
<text text-anchor="middle" x="3624" y="-147" font-family="FreeSans.ttf" font-size="10.00">Jacobians.cpp</text>
</a>
</g>
</g>
<!-- Node2&#45;&gt;Node28 -->
<g id="edge20" class="edge">
<title>Node2&#45;&gt;Node28</title>
<path fill="none" stroke="midnightblue" d="M2502.33,-201.14C2975.15,-137.77 3105.36,-238.21 3573,-165 3581.46,-163.68 3590.5,-161.4 3598.59,-159.04"/>
<polygon fill="midnightblue" stroke="midnightblue" points="2501.61,-197.7 2492.17,-202.52 2502.55,-204.64 2501.61,-197.7"/>
</g>
<!-- Node29 -->
<g id="node21" class="node">
<title>Node29</title>
<g id="a_node21"><a xlink:href="JointState_8cpp.html" target="_top" xlink:title=" ">
<polygon fill="none" stroke="black" points="3684,-140 3684,-159 3768,-159 3768,-140 3684,-140"/>
<text text-anchor="middle" x="3726" y="-147" font-family="FreeSans.ttf" font-size="10.00">JointState.cpp</text>
</a>
</g>
</g>
<!-- Node2&#45;&gt;Node29 -->
<g id="edge21" class="edge">
<title>Node2&#45;&gt;Node29</title>
<path fill="none" stroke="midnightblue" d="M2502.13,-201.17C3019.66,-132.41 3161.65,-243.12 3674,-165 3682.62,-163.69 3691.84,-161.41 3700.08,-159.05"/>
<polygon fill="midnightblue" stroke="midnightblue" points="2501.61,-197.71 2492.17,-202.51 2502.54,-204.65 2501.61,-197.71"/>
</g>
<!-- Node30 -->
<g id="node22" class="node">
<title>Node30</title>
<g id="a_node22"><a xlink:href="LinkState_8cpp.html" target="_top" xlink:title=" ">
<polygon fill="none" stroke="black" points="3786.5,-140 3786.5,-159 3869.5,-159 3869.5,-140 3786.5,-140"/>
<text text-anchor="middle" x="3828" y="-147" font-family="FreeSans.ttf" font-size="10.00">LinkState.cpp</text>
</a>
</g>
</g>
<!-- Node2&#45;&gt;Node30 -->
<g id="edge22" class="edge">
<title>Node2&#45;&gt;Node30</title>
<path fill="none" stroke="midnightblue" d="M2502.16,-201.17C3065.1,-127 3219.54,-250.74 3777,-165 3785.46,-163.7 3794.51,-161.43 3802.59,-159.07"/>
<polygon fill="midnightblue" stroke="midnightblue" points="2501.62,-197.71 2492.17,-202.5 2502.54,-204.65 2501.62,-197.71"/>
</g>
<!-- Node31 -->
<g id="node23" class="node">
<title>Node31</title>
<g id="a_node23"><a xlink:href="LinkTraversalsCache_8cpp.html" target="_top" xlink:title=" ">
<polygon fill="none" stroke="black" points="3887.5,-140 3887.5,-159 4024.5,-159 4024.5,-140 3887.5,-140"/>
<text text-anchor="middle" x="3956" y="-147" font-family="FreeSans.ttf" font-size="10.00">LinkTraversalsCache.cpp</text>
</a>
</g>
</g>
<!-- Node2&#45;&gt;Node31 -->
<g id="edge23" class="edge">
<title>Node2&#45;&gt;Node31</title>
<path fill="none" stroke="midnightblue" d="M2502.49,-201.13C3109.68,-121.41 3272.58,-228.78 3878,-165 3890.74,-163.66 3904.52,-161.38 3916.9,-159.02"/>
<polygon fill="midnightblue" stroke="midnightblue" points="2501.62,-197.71 2492.16,-202.5 2502.54,-204.65 2501.62,-197.71"/>
</g>
<!-- Node32 -->
<g id="node24" class="node">
<title>Node32</title>
<g id="a_node24"><a xlink:href="Model_8cpp.html" target="_top" xlink:title=" ">
<polygon fill="none" stroke="black" points="4042.5,-140 4042.5,-159 4109.5,-159 4109.5,-140 4042.5,-140"/>
<text text-anchor="middle" x="4076" y="-147" font-family="FreeSans.ttf" font-size="10.00">Model.cpp</text>
</a>
</g>
</g>
<!-- Node2&#45;&gt;Node32 -->
<g id="edge24" class="edge">
<title>Node2&#45;&gt;Node32</title>
<path fill="none" stroke="midnightblue" d="M2502.2,-201.21C2854.93,-157.77 3700.82,-223.51 4033,-165 4040.29,-163.72 4048.03,-161.42 4054.9,-159.03"/>
<polygon fill="midnightblue" stroke="midnightblue" points="2501.64,-197.75 2492.16,-202.49 2502.53,-204.69 2501.64,-197.75"/>
</g>
<!-- Node33 -->
<g id="node25" class="node">
<title>Node33</title>
<g id="a_node25"><a xlink:href="ModelTransformers_8cpp.html" target="_top" xlink:title=" ">
<polygon fill="none" stroke="black" points="4127.5,-140 4127.5,-159 4258.5,-159 4258.5,-140 4127.5,-140"/>
<text text-anchor="middle" x="4193" y="-147" font-family="FreeSans.ttf" font-size="10.00">ModelTransformers.cpp</text>
</a>
</g>
</g>
<!-- Node2&#45;&gt;Node33 -->
<g id="edge25" class="edge">
<title>Node2&#45;&gt;Node33</title>
<path fill="none" stroke="midnightblue" d="M2502.17,-201.18C3215.51,-108.74 3406.55,-241.14 4118,-165 4130.26,-163.69 4143.51,-161.42 4155.42,-159.05"/>
<polygon fill="midnightblue" stroke="midnightblue" points="2501.63,-197.72 2492.16,-202.48 2502.53,-204.66 2501.63,-197.72"/>
</g>
<!-- Node34 -->
<g id="node26" class="node">
<title>Node34</title>
<g id="a_node26"><a xlink:href="SolidShapes_8cpp.html" target="_top" xlink:title=" ">
<polygon fill="none" stroke="black" points="4277,-140 4277,-159 4373,-159 4373,-140 4277,-140"/>
<text text-anchor="middle" x="4325" y="-147" font-family="FreeSans.ttf" font-size="10.00">SolidShapes.cpp</text>
</a>
</g>
</g>
<!-- Node2&#45;&gt;Node34 -->
<g id="edge26" class="edge">
<title>Node2&#45;&gt;Node34</title>
<path fill="none" stroke="midnightblue" d="M2502.22,-201.18C3281.28,-101.06 3492.17,-268.41 4267,-165 4276.67,-163.71 4287.06,-161.41 4296.34,-159.02"/>
<polygon fill="midnightblue" stroke="midnightblue" points="2501.63,-197.72 2492.16,-202.48 2502.53,-204.66 2501.63,-197.72"/>
</g>
<!-- Node35 -->
<g id="node27" class="node">
<title>Node35</title>
<g id="a_node27"><a xlink:href="SubModel_8cpp.html" target="_top" xlink:title=" ">
<polygon fill="none" stroke="black" points="4391.5,-140 4391.5,-159 4476.5,-159 4476.5,-140 4391.5,-140"/>
<text text-anchor="middle" x="4434" y="-147" font-family="FreeSans.ttf" font-size="10.00">SubModel.cpp</text>
</a>
</g>
</g>
<!-- Node2&#45;&gt;Node35 -->
<g id="edge27" class="edge">
<title>Node2&#45;&gt;Node35</title>
<path fill="none" stroke="midnightblue" d="M2502.2,-201.21C2932.02,-148.49 3971.58,-225.16 4382,-165 4390.72,-163.72 4400.04,-161.43 4408.36,-159.04"/>
<polygon fill="midnightblue" stroke="midnightblue" points="2501.64,-197.75 2492.16,-202.48 2502.52,-204.69 2501.64,-197.75"/>
</g>
<!-- Node36 -->
<g id="node28" class="node">
<title>Node36</title>
<g id="a_node28"><a xlink:href="Traversal_8cpp.html" target="_top" xlink:title=" ">
<polygon fill="none" stroke="black" points="4494.5,-140 4494.5,-159 4575.5,-159 4575.5,-140 4494.5,-140"/>
<text text-anchor="middle" x="4535" y="-147" font-family="FreeSans.ttf" font-size="10.00">Traversal.cpp</text>
</a>
</g>
</g>
<!-- Node2&#45;&gt;Node36 -->
<g id="edge28" class="edge">
<title>Node2&#45;&gt;Node36</title>
<path fill="none" stroke="midnightblue" d="M2502.41,-201.18C2955.11,-145.85 4052.3,-230.48 4485,-165 4493.4,-163.73 4502.37,-161.44 4510.37,-159.04"/>
<polygon fill="midnightblue" stroke="midnightblue" points="2501.65,-197.75 2492.16,-202.47 2502.52,-204.69 2501.65,-197.75"/>
</g>
<!-- Node37 -->
<g id="node29" class="node">
<title>Node37</title>
<g id="a_node29"><a xlink:href="ModelCalibrationHelper_8h.html" target="_top" xlink:title=" ">
<polygon fill="none" stroke="red" points="0,-6 0,-25 140,-25 140,-6 0,-6"/>
<text text-anchor="middle" x="70" y="-13" font-family="FreeSans.ttf" font-size="10.00">ModelCalibrationHelper.h</text>
</a>
</g>
</g>
<!-- Node2&#45;&gt;Node37 -->
<g id="edge29" class="edge">
<title>Node2&#45;&gt;Node37</title>
<path fill="none" stroke="midnightblue" d="M2425.44,-209.8C2126.88,-208.23 194.26,-196.79 144,-165 92.39,-132.36 75.51,-51.94 71.23,-25.26"/>
<polygon fill="midnightblue" stroke="midnightblue" points="2425.73,-213.31 2435.75,-209.86 2425.77,-206.31 2425.73,-213.31"/>
</g>
<!-- Node39 -->
<g id="node30" class="node">
<title>Node39</title>
<g id="a_node30"><a xlink:href="ModelExporter_8h.html" target="_top" xlink:title=" ">
<polygon fill="none" stroke="red" points="136,-73 136,-92 232,-92 232,-73 136,-73"/>
<text text-anchor="middle" x="184" y="-80" font-family="FreeSans.ttf" font-size="10.00">ModelExporter.h</text>
</a>
</g>
</g>
<!-- Node2&#45;&gt;Node39 -->
<g id="edge30" class="edge">
<title>Node2&#45;&gt;Node39</title>
<path fill="none" stroke="midnightblue" d="M2425.45,-210.17C2138.76,-211.31 347.05,-216.38 246,-165 214.94,-149.21 195.1,-109.82 187.5,-92.23"/>
<polygon fill="midnightblue" stroke="midnightblue" points="2425.77,-213.67 2435.76,-210.13 2425.74,-206.67 2425.77,-213.67"/>
</g>
<!-- Node43 -->
<g id="node31" class="node">
<title>Node43</title>
<g id="a_node31"><a xlink:href="idyntree-model-simplify-shapes_8cpp.html" target="_top" xlink:title=" ">
<polygon fill="none" stroke="black" points="316,-0.5 316,-30.5 450,-30.5 450,-0.5 316,-0.5"/>
<text text-anchor="start" x="324" y="-18.5" font-family="FreeSans.ttf" font-size="10.00">idyntree&#45;model&#45;simplify</text>
<text text-anchor="middle" x="383" y="-7.5" font-family="FreeSans.ttf" font-size="10.00">&#45;shapes.cpp</text>
</a>
</g>
</g>
<!-- Node2&#45;&gt;Node43 -->
<g id="edge66" class="edge">
<title>Node2&#45;&gt;Node43</title>
<path fill="none" stroke="midnightblue" d="M2425.64,-209.68C2146.09,-207.27 431.97,-191.42 386,-165 345.07,-141.47 330.03,-111.78 345,-67 349.59,-53.26 359.55,-40.27 368.12,-30.9"/>
<polygon fill="midnightblue" stroke="midnightblue" points="2425.67,-213.18 2435.7,-209.76 2425.73,-206.18 2425.67,-213.18"/>
</g>
<!-- Node44 -->
<g id="node32" class="node">
<title>Node44</title>
<g id="a_node32"><a xlink:href="ModelLoader_8h.html" target="_top" xlink:title=" ">
<polygon fill="none" stroke="red" points="578,-73 578,-92 666,-92 666,-73 578,-73"/>
<text text-anchor="middle" x="622" y="-80" font-family="FreeSans.ttf" font-size="10.00">ModelLoader.h</text>
</a>
</g>
</g>
<!-- Node2&#45;&gt;Node44 -->
<g id="edge33" class="edge">
<title>Node2&#45;&gt;Node44</title>
<path fill="none" stroke="midnightblue" d="M2425.71,-210.17C2171.7,-211.18 737.64,-214.63 661,-165 635.19,-148.29 626.04,-109.39 623.17,-92.08"/>
<polygon fill="midnightblue" stroke="midnightblue" points="2425.93,-213.67 2435.92,-210.13 2425.9,-206.67 2425.93,-213.67"/>
</g>
<!-- Node45 -->
<g id="node33" class="node">
<title>Node45</title>
<g id="a_node33"><a xlink:href="URDFDocument_8h.html" target="_top" xlink:title=" ">
<polygon fill="none" stroke="red" points="644,-6 644,-25 748,-25 748,-6 644,-6"/>
<text text-anchor="middle" x="696" y="-13" font-family="FreeSans.ttf" font-size="10.00">URDFDocument.h</text>
</a>
</g>
</g>
<!-- Node2&#45;&gt;Node45 -->
<g id="edge43" class="edge">
<title>Node2&#45;&gt;Node45</title>
<path fill="none" stroke="midnightblue" d="M2425.25,-210.07C2277.56,-210.03 1755.24,-206.92 1695,-165 1655.96,-137.83 1691.12,-94.05 1652,-67 1633.27,-54.05 945.4,-26.24 748.29,-18.52"/>
<polygon fill="midnightblue" stroke="midnightblue" points="2425.62,-213.57 2435.62,-210.07 2425.62,-206.57 2425.62,-213.57"/>
</g>
<!-- Node48 -->
<g id="node34" class="node">
<title>Node48</title>
<g id="a_node34"><a xlink:href="URDFDofsImport_8cpp.html" target="_top" xlink:title=" ">
<polygon fill="none" stroke="black" points="1154.5,-6 1154.5,-25 1273.5,-25 1273.5,-6 1154.5,-6"/>
<text text-anchor="middle" x="1214" y="-13" font-family="FreeSans.ttf" font-size="10.00">URDFDofsImport.cpp</text>
</a>
</g>
</g>
<!-- Node2&#45;&gt;Node48 -->
<g id="edge46" class="edge">
<title>Node2&#45;&gt;Node48</title>
<path fill="none" stroke="midnightblue" d="M2425.56,-210.23C2280.26,-210.78 1769.98,-209.49 1714,-165 1678.44,-136.74 1719.89,-96.09 1685,-67 1654.01,-41.16 1393.74,-25.26 1273.93,-19.25"/>
<polygon fill="midnightblue" stroke="midnightblue" points="2425.78,-213.73 2435.77,-210.19 2425.75,-206.73 2425.78,-213.73"/>
</g>
<!-- Node49 -->
<g id="node35" class="node">
<title>Node49</title>
<g id="a_node35"><a xlink:href="idyntree-model-info_8cpp.html" target="_top" xlink:title=" ">
<polygon fill="none" stroke="black" points="1486,-6 1486,-25 1620,-25 1620,-6 1486,-6"/>
<text text-anchor="middle" x="1553" y="-13" font-family="FreeSans.ttf" font-size="10.00">idyntree&#45;model&#45;info.cpp</text>
</a>
</g>
</g>
<!-- Node2&#45;&gt;Node49 -->
<g id="edge65" class="edge">
<title>Node2&#45;&gt;Node49</title>
<path fill="none" stroke="midnightblue" d="M2425.34,-209.06C2277.04,-205.28 1751.65,-190.15 1727,-165 1696.49,-133.87 1749.78,-101.4 1723,-67 1698.89,-36.02 1656.63,-23.38 1620.27,-18.48"/>
<polygon fill="midnightblue" stroke="midnightblue" points="2425.66,-212.57 2435.75,-209.32 2425.84,-205.57 2425.66,-212.57"/>
</g>
<!-- Node50 -->
<g id="node36" class="node">
<title>Node50</title>
<g id="a_node36"><a xlink:href="idyntree-model-view_8cpp.html" target="_top" xlink:title=" ">
<polygon fill="none" stroke="black" points="3420.5,-6 3420.5,-25 3557.5,-25 3557.5,-6 3420.5,-6"/>
<text text-anchor="middle" x="3489" y="-13" font-family="FreeSans.ttf" font-size="10.00">idyntree&#45;model&#45;view.cpp</text>
</a>
</g>
</g>
<!-- Node2&#45;&gt;Node50 -->
<g id="edge67" class="edge">
<title>Node2&#45;&gt;Node50</title>
<path fill="none" stroke="midnightblue" d="M2502.23,-201.74C2698.36,-192.67 5200.55,-218.14 5253,-165 5323.27,-93.81 5428.5,-128.95 4980,-67 4699.7,-28.28 3811.7,-18.87 3557.56,-16.94"/>
<polygon fill="midnightblue" stroke="midnightblue" points="2501.89,-198.26 2492.16,-202.46 2502.38,-205.24 2501.89,-198.26"/>
</g>
<!-- Node51 -->
<g id="node37" class="node">
<title>Node51</title>
<g id="a_node37"><a xlink:href="InertialElement_8h.html" target="_top" xlink:title=" ">
<polygon fill="none" stroke="red" points="1464.5,-140 1464.5,-159 1565.5,-159 1565.5,-140 1464.5,-140"/>
<text text-anchor="middle" x="1515" y="-147" font-family="FreeSans.ttf" font-size="10.00">InertialElement.h</text>
</a>
</g>
</g>
<!-- Node2&#45;&gt;Node51 -->
<g id="edge41" class="edge">
<title>Node2&#45;&gt;Node51</title>
<path fill="none" stroke="midnightblue" d="M2425.92,-210.35C2302.89,-210.98 1905.14,-209.22 1580,-165 1569.57,-163.58 1558.35,-161.34 1548.21,-159.04"/>
<polygon fill="midnightblue" stroke="midnightblue" points="2425.99,-213.85 2435.97,-210.29 2425.95,-206.85 2425.99,-213.85"/>
</g>
<!-- Node53 -->
<g id="node38" class="node">
<title>Node53</title>
<g id="a_node38"><a xlink:href="LinkElement_8cpp.html" target="_top" xlink:title=" ">
<polygon fill="none" stroke="black" points="1545,-73 1545,-92 1643,-92 1643,-73 1545,-73"/>
<text text-anchor="middle" x="1594" y="-80" font-family="FreeSans.ttf" font-size="10.00">LinkElement.cpp</text>
</a>
</g>
</g>
<!-- Node2&#45;&gt;Node53 -->
<g id="edge44" class="edge">
<title>Node2&#45;&gt;Node53</title>
<path fill="none" stroke="midnightblue" d="M2425.21,-209.18C2263.51,-205.58 1650.04,-190.32 1618,-165 1595.43,-147.17 1593.32,-109.21 1593.59,-92.14"/>
<polygon fill="midnightblue" stroke="midnightblue" points="2425.55,-212.68 2435.63,-209.4 2425.71,-205.69 2425.55,-212.68"/>
</g>
<!-- Node54 -->
<g id="node39" class="node">
<title>Node54</title>
<g id="a_node39"><a xlink:href="RobotElement_8cpp.html" target="_top" xlink:title=" ">
<polygon fill="none" stroke="black" points="838,-73 838,-92 944,-92 944,-73 838,-73"/>
<text text-anchor="middle" x="891" y="-80" font-family="FreeSans.ttf" font-size="10.00">RobotElement.cpp</text>
</a>
</g>
</g>
<!-- Node2&#45;&gt;Node54 -->
<g id="edge45" class="edge">
<title>Node2&#45;&gt;Node54</title>
<path fill="none" stroke="midnightblue" d="M2425.64,-210.05C2239.83,-210.11 1438.17,-207.84 1336,-165 1317.44,-157.22 1321.31,-142.36 1303,-134 1160.75,-69.05 1107.22,-123.86 953,-98 943.52,-96.41 933.32,-94.23 923.98,-92.04"/>
<polygon fill="midnightblue" stroke="midnightblue" points="2425.76,-213.55 2435.75,-210.05 2425.75,-206.55 2425.76,-213.55"/>
</g>
<!-- Node42 -->
<g id="node40" class="node">
<title>Node42</title>
<g id="a_node40"><a xlink:href="URDFModelExport_8cpp.html" target="_top" xlink:title=" ">
<polygon fill="none" stroke="black" points="4594,-140 4594,-159 4720,-159 4720,-140 4594,-140"/>
<text text-anchor="middle" x="4657" y="-147" font-family="FreeSans.ttf" font-size="10.00">URDFModelExport.cpp</text>
</a>
</g>
</g>
<!-- Node2&#45;&gt;Node42 -->
<g id="edge47" class="edge">
<title>Node2&#45;&gt;Node42</title>
<path fill="none" stroke="midnightblue" d="M2502.21,-201.2C2976.61,-142.95 4126.93,-213.95 4584,-165 4596.08,-163.71 4609.13,-161.41 4620.81,-159.02"/>
<polygon fill="midnightblue" stroke="midnightblue" points="2501.64,-197.75 2492.16,-202.47 2502.52,-204.69 2501.64,-197.75"/>
</g>
<!-- Node55 -->
<g id="node41" class="node">
<title>Node55</title>
<g id="a_node41"><a xlink:href="Sensors_8h.html" target="_top" xlink:title=" ">
<polygon fill="none" stroke="red" points="670,-140 670,-159 734,-159 734,-140 670,-140"/>
<text text-anchor="middle" x="702" y="-147" font-family="FreeSans.ttf" font-size="10.00">Sensors.h</text>
</a>
</g>
</g>
<!-- Node2&#45;&gt;Node55 -->
<g id="edge48" class="edge">
<title>Node2&#45;&gt;Node55</title>
<path fill="none" stroke="midnightblue" d="M2425.82,-209.22C2255.05,-205.67 1544.1,-190.05 961,-165 879.34,-161.49 783.28,-155.67 734.29,-152.58"/>
<polygon fill="midnightblue" stroke="midnightblue" points="2425.76,-212.72 2435.83,-209.43 2425.91,-205.72 2425.76,-212.72"/>
</g>
<!-- Node70 -->
<g id="node42" class="node">
<title>Node70</title>
<g id="a_node42"><a xlink:href="ModelSensorsTransformers_8cpp.html" target="_top" xlink:title=" ">
<polygon fill="none" stroke="black" points="1157.5,-73 1157.5,-92 1326.5,-92 1326.5,-73 1157.5,-73"/>
<text text-anchor="middle" x="1242" y="-80" font-family="FreeSans.ttf" font-size="10.00">ModelSensorsTransformers.cpp</text>
</a>
</g>
</g>
<!-- Node2&#45;&gt;Node70 -->
<g id="edge60" class="edge">
<title>Node2&#45;&gt;Node70</title>
<path fill="none" stroke="midnightblue" d="M2425.84,-209.31C2251.04,-205.99 1531.14,-190.87 1434,-165 1405,-157.28 1401.39,-146.27 1374,-134 1337.28,-117.55 1293.43,-101.45 1266.66,-92"/>
<polygon fill="midnightblue" stroke="midnightblue" points="2425.79,-212.8 2435.86,-209.49 2425.93,-205.81 2425.79,-212.8"/>
</g>
<!-- Node65 -->
<g id="node43" class="node">
<title>Node65</title>
<g id="a_node43"><a xlink:href="PredictSensorsMeasurements_8cpp.html" target="_top" xlink:title=" ">
<polygon fill="none" stroke="black" points="1345,-73 1345,-92 1527,-92 1527,-73 1345,-73"/>
<text text-anchor="middle" x="1436" y="-80" font-family="FreeSans.ttf" font-size="10.00">PredictSensorsMeasurements.cpp</text>
</a>
</g>
</g>
<!-- Node2&#45;&gt;Node65 -->
<g id="edge61" class="edge">
<title>Node2&#45;&gt;Node65</title>
<path fill="none" stroke="midnightblue" d="M2425.79,-209.58C2246.19,-207.43 1493,-196.57 1455,-165 1433.21,-146.9 1433.59,-109.09 1435.01,-92.09"/>
<polygon fill="midnightblue" stroke="midnightblue" points="2425.79,-213.08 2435.83,-209.7 2425.87,-206.08 2425.79,-213.08"/>
</g>
<!-- Node76 -->
<g id="node44" class="node">
<title>Node76</title>
<g id="a_node44"><a xlink:href="InertialParametersSolidShapesHelpers_8h.html" target="_top" xlink:title=" ">
<polygon fill="none" stroke="red" points="4738,-134.5 4738,-164.5 4904,-164.5 4904,-134.5 4738,-134.5"/>
<text text-anchor="start" x="4746" y="-152.5" font-family="FreeSans.ttf" font-size="10.00">InertialParametersSolidShapes</text>
<text text-anchor="middle" x="4821" y="-141.5" font-family="FreeSans.ttf" font-size="10.00">Helpers.h</text>
</a>
</g>
</g>
<!-- Node2&#45;&gt;Node76 -->
<g id="edge62" class="edge">
<title>Node2&#45;&gt;Node76</title>
<path fill="none" stroke="midnightblue" d="M2502.14,-201.21C3008.52,-139.01 4238.92,-207.37 4729,-165 4731.9,-164.75 4734.85,-164.46 4737.82,-164.14"/>
<polygon fill="midnightblue" stroke="midnightblue" points="2501.65,-197.75 2492.16,-202.47 2502.52,-204.69 2501.65,-197.75"/>
</g>
<!-- Node78 -->
<g id="node45" class="node">
<title>Node78</title>
<g id="a_node45"><a xlink:href="ModelTransformersSolidShapes_8cpp.html" target="_top" xlink:title=" ">
<polygon fill="none" stroke="black" points="4781,-73 4781,-92 4971,-92 4971,-73 4781,-73"/>
<text text-anchor="middle" x="4876" y="-80" font-family="FreeSans.ttf" font-size="10.00">ModelTransformersSolidShapes.cpp</text>
</a>
</g>
</g>
<!-- Node2&#45;&gt;Node78 -->
<g id="edge64" class="edge">
<title>Node2&#45;&gt;Node78</title>
<path fill="none" stroke="midnightblue" d="M2502.4,-201.75C2684.93,-193.53 4867.19,-211.5 4913,-165 4933.94,-143.75 4902.66,-108.53 4885.71,-92.25"/>
<polygon fill="midnightblue" stroke="midnightblue" points="2501.89,-198.28 2492.16,-202.46 2502.38,-205.26 2501.89,-198.28"/>
</g>
<!-- Node79 -->
<g id="node46" class="node">
<title>Node79</title>
<g id="a_node46"><a xlink:href="DummyImplementations_8h.html" target="_top" xlink:title=" ">
<polygon fill="none" stroke="red" points="4960,-140 4960,-159 5108,-159 5108,-140 4960,-140"/>
<text text-anchor="middle" x="5034" y="-147" font-family="FreeSans.ttf" font-size="10.00">DummyImplementations.h</text>
</a>
</g>
</g>
<!-- Node2&#45;&gt;Node79 -->
<g id="edge68" class="edge">
<title>Node2&#45;&gt;Node79</title>
<path fill="none" stroke="midnightblue" d="M2502.28,-201.2C3056.67,-133.34 4408.06,-213.01 4946,-165 4960.5,-163.71 4976.21,-161.41 4990.3,-159.02"/>
<polygon fill="midnightblue" stroke="midnightblue" points="2501.65,-197.75 2492.16,-202.46 2502.52,-204.69 2501.65,-197.75"/>
</g>
<!-- Node87 -->
<g id="node47" class="node">
<title>Node87</title>
<g id="a_node47"><a xlink:href="JetsVisualization_8cpp.html" target="_top" xlink:title=" ">
<polygon fill="none" stroke="black" points="5126,-140 5126,-159 5244,-159 5244,-140 5126,-140"/>
<text text-anchor="middle" x="5185" y="-147" font-family="FreeSans.ttf" font-size="10.00">JetsVisualization.cpp</text>
</a>
</g>
</g>
<!-- Node2&#45;&gt;Node87 -->
<g id="edge69" class="edge">
<title>Node2&#45;&gt;Node87</title>
<path fill="none" stroke="midnightblue" d="M2502.11,-201.22C3094.15,-128.97 4542.49,-229.57 5117,-165 5128.28,-163.73 5140.44,-161.44 5151.32,-159.05"/>
<polygon fill="midnightblue" stroke="midnightblue" points="2501.65,-197.75 2492.16,-202.46 2502.52,-204.69 2501.65,-197.75"/>
</g>
<!-- Node3&#45;&gt;Node4 -->
<g id="edge3" class="edge">
<title>Node3&#45;&gt;Node4</title>
<path fill="none" stroke="midnightblue" d="M474.18,-62.02C490.36,-51.9 509.77,-39.77 524.48,-30.58"/>
<polygon fill="midnightblue" stroke="midnightblue" points="472.19,-59.13 465.57,-67.4 475.9,-65.06 472.19,-59.13"/>
</g>
<!-- Node39&#45;&gt;Node37 -->
<g id="edge31" class="edge">
<title>Node39&#45;&gt;Node37</title>
<path fill="none" stroke="midnightblue" d="M159.65,-67.62C137.06,-54.74 104.16,-35.98 85.13,-25.13"/>
<polygon fill="midnightblue" stroke="midnightblue" points="158.2,-70.82 168.63,-72.73 161.67,-64.74 158.2,-70.82"/>
</g>
<!-- Node39&#45;&gt;Node43 -->
<g id="edge32" class="edge">
<title>Node39&#45;&gt;Node43</title>
<path fill="none" stroke="midnightblue" d="M220.33,-69.63C254.07,-58.61 304.34,-42.19 340.05,-30.53"/>
<polygon fill="midnightblue" stroke="midnightblue" points="218.84,-66.44 210.43,-72.87 221.02,-73.09 218.84,-66.44"/>
</g>
<!-- Node44&#45;&gt;Node4 -->
<g id="edge34" class="edge">
<title>Node44&#45;&gt;Node4</title>
<path fill="none" stroke="midnightblue" d="M604.03,-65.93C591.63,-55.18 575.27,-41 563.26,-30.59"/>
<polygon fill="midnightblue" stroke="midnightblue" points="602.04,-68.83 611.89,-72.73 606.62,-63.54 602.04,-68.83"/>
</g>
<!-- Node44&#45;&gt;Node11 -->
<g id="edge35" class="edge">
<title>Node44&#45;&gt;Node11</title>
<path fill="none" stroke="midnightblue" d="M567.92,-72.86C481.28,-59.02 319.73,-33.19 307,-31 296.14,-29.13 284.46,-27.04 273.5,-25.03"/>
<polygon fill="midnightblue" stroke="midnightblue" points="567.42,-76.33 577.85,-74.45 568.53,-69.42 567.42,-76.33"/>
</g>
<!-- Node44&#45;&gt;Node43 -->
<g id="edge39" class="edge">
<title>Node44&#45;&gt;Node43</title>
<path fill="none" stroke="midnightblue" d="M580.44,-70.2C539.93,-59.18 478.21,-42.39 434.58,-30.53"/>
<polygon fill="midnightblue" stroke="midnightblue" points="579.69,-73.62 590.26,-72.87 581.53,-66.87 579.69,-73.62"/>
</g>
<!-- Node44&#45;&gt;Node45 -->
<g id="edge36" class="edge">
<title>Node44&#45;&gt;Node45</title>
<path fill="none" stroke="midnightblue" d="M639.81,-65.86C654.36,-53.08 674.38,-35.49 686.18,-25.13"/>
<polygon fill="midnightblue" stroke="midnightblue" points="637.18,-63.5 631.98,-72.73 641.8,-68.76 637.18,-63.5"/>
</g>
<!-- Node44&#45;&gt;Node48 -->
<g id="edge37" class="edge">
<title>Node44&#45;&gt;Node48</title>
<path fill="none" stroke="midnightblue" d="M676.3,-72.32C688.36,-70.43 701.1,-68.55 713,-67 872.08,-46.33 1060.52,-29.34 1154.49,-21.38"/>
<polygon fill="midnightblue" stroke="midnightblue" points="675.68,-68.88 666.36,-73.91 676.79,-75.79 675.68,-68.88"/>
</g>
<!-- Node44&#45;&gt;Node49 -->
<g id="edge38" class="edge">
<title>Node44&#45;&gt;Node49</title>
<path fill="none" stroke="midnightblue" d="M676.26,-71.96C688.32,-70.09 701.07,-68.31 713,-67 788.84,-58.7 1300.13,-30.32 1485.8,-20.16"/>
<polygon fill="midnightblue" stroke="midnightblue" points="675.64,-68.52 666.32,-73.55 676.74,-75.43 675.64,-68.52"/>
</g>
<!-- Node44&#45;&gt;Node50 -->
<g id="edge40" class="edge">
<title>Node44&#45;&gt;Node50</title>
<path fill="none" stroke="midnightblue" d="M676.22,-71.59C688.29,-69.74 701.05,-68.06 713,-67 1262.33,-18.48 3047.36,-16.35 3420.31,-16.45"/>
<polygon fill="midnightblue" stroke="midnightblue" points="675.6,-68.14 666.28,-73.17 676.71,-75.05 675.6,-68.14"/>
</g>
<!-- Node51&#45;&gt;Node53 -->
<g id="edge42" class="edge">
<title>Node51&#45;&gt;Node53</title>
<path fill="none" stroke="midnightblue" d="M1533.58,-133.21C1549.14,-120.41 1570.8,-102.59 1583.51,-92.13"/>
<polygon fill="midnightblue" stroke="midnightblue" points="1531.15,-130.68 1525.65,-139.73 1535.6,-136.08 1531.15,-130.68"/>
</g>
<!-- Node55&#45;&gt;Node3 -->
<g id="edge49" class="edge">
<title>Node55&#45;&gt;Node3</title>
<path fill="none" stroke="midnightblue" d="M660.24,-138.02C616.48,-127.04 547.48,-109.72 499.02,-97.56"/>
<polygon fill="midnightblue" stroke="midnightblue" points="659.43,-141.43 669.98,-140.46 661.13,-134.64 659.43,-141.43"/>
</g>
<!-- Node55&#45;&gt;Node4 -->
<g id="edge52" class="edge">
<title>Node55&#45;&gt;Node4</title>
<path fill="none" stroke="midnightblue" d="M659.96,-142.76C630.53,-136.57 592.43,-123.88 569,-98 551.98,-79.2 547.92,-48.59 547.07,-30.72"/>
<polygon fill="midnightblue" stroke="midnightblue" points="659.48,-146.23 669.97,-144.68 660.81,-139.36 659.48,-146.23"/>
</g>
<!-- Node55&#45;&gt;Node9 -->
<g id="edge50" class="edge">
<title>Node55&#45;&gt;Node9</title>
<path fill="none" stroke="midnightblue" d="M718.61,-132.86C732.17,-120.08 750.84,-102.49 761.84,-92.13"/>
<polygon fill="midnightblue" stroke="midnightblue" points="716.18,-130.33 711.31,-139.73 720.98,-135.42 716.18,-130.33"/>
</g>
<!-- Node55&#45;&gt;Node10 -->
<g id="edge51" class="edge">
<title>Node55&#45;&gt;Node10</title>
<path fill="none" stroke="midnightblue" d="M744.25,-140.63C810.23,-128.34 937.18,-104.7 1005.24,-92.02"/>
<polygon fill="midnightblue" stroke="midnightblue" points="743.4,-137.23 734.21,-142.5 744.68,-144.11 743.4,-137.23"/>
</g>
<!-- Node55&#45;&gt;Node37 -->
<g id="edge53" class="edge">
<title>Node55&#45;&gt;Node37</title>
<path fill="none" stroke="midnightblue" d="M659.72,-144.2C594.05,-137.1 463.76,-121.35 355,-98 329.59,-92.54 166.83,-44.95 99.3,-25.12"/>
<polygon fill="midnightblue" stroke="midnightblue" points="659.38,-147.68 669.69,-145.26 660.12,-140.72 659.38,-147.68"/>
</g>
<!-- Node55&#45;&gt;Node39 -->
<g id="edge54" class="edge">
<title>Node55&#45;&gt;Node39</title>
<path fill="none" stroke="midnightblue" d="M659.86,-143.21C564.53,-131.25 332.84,-102.18 232.1,-89.54"/>
<polygon fill="midnightblue" stroke="midnightblue" points="659.63,-146.71 669.99,-144.48 660.5,-139.77 659.63,-146.71"/>
</g>
<!-- Node55&#45;&gt;Node44 -->
<g id="edge55" class="edge">
<title>Node55&#45;&gt;Node44</title>
<path fill="none" stroke="midnightblue" d="M683.19,-133.21C667.42,-120.41 645.49,-102.59 632.62,-92.13"/>
<polygon fill="midnightblue" stroke="midnightblue" points="681.24,-136.14 691.21,-139.73 685.66,-130.71 681.24,-136.14"/>
</g>
<!-- Node55&#45;&gt;Node45 -->
<g id="edge56" class="edge">
<title>Node55&#45;&gt;Node45</title>
<path fill="none" stroke="midnightblue" d="M701.15,-129.78C699.83,-100.75 697.34,-46.04 696.39,-25.02"/>
<polygon fill="midnightblue" stroke="midnightblue" points="697.66,-130.01 701.61,-139.84 704.65,-129.69 697.66,-130.01"/>
</g>
<!-- Node55&#45;&gt;Node54 -->
<g id="edge57" class="edge">
<title>Node55&#45;&gt;Node54</title>
<path fill="none" stroke="midnightblue" d="M736.6,-136.6C774.07,-123.71 832.93,-103.47 866.1,-92.06"/>
<polygon fill="midnightblue" stroke="midnightblue" points="735.42,-133.31 727.1,-139.87 737.69,-139.93 735.42,-133.31"/>
</g>
<!-- Node55&#45;&gt;Node70 -->
<g id="edge58" class="edge">
<title>Node55&#45;&gt;Node70</title>
<path fill="none" stroke="midnightblue" d="M744.12,-144.34C823.47,-136.37 1000.48,-117.96 1149,-98 1162.28,-96.22 1176.59,-94.09 1189.92,-92.02"/>
<polygon fill="midnightblue" stroke="midnightblue" points="743.64,-140.87 734.04,-145.35 744.34,-147.84 743.64,-140.87"/>
</g>
<!-- Node55&#45;&gt;Node65 -->
<g id="edge59" class="edge">
<title>Node55&#45;&gt;Node65</title>
<path fill="none" stroke="midnightblue" d="M744.19,-146.06C845.98,-139.96 1113.04,-122.76 1335,-98 1349.96,-96.33 1366.13,-94.17 1381.04,-92.03"/>
<polygon fill="midnightblue" stroke="midnightblue" points="743.79,-142.57 734.01,-146.66 744.2,-149.56 743.79,-142.57"/>
</g>
<!-- Node76&#45;&gt;Node78 -->
<g id="edge63" class="edge">
<title>Node76&#45;&gt;Node78</title>
<path fill="none" stroke="midnightblue" d="M4839.48,-126.66C4849.46,-114.86 4861.22,-100.97 4868.64,-92.19"/>
<polygon fill="midnightblue" stroke="midnightblue" points="4836.72,-124.5 4832.93,-134.4 4842.07,-129.02 4836.72,-124.5"/>
</g>
<!-- Node90&#45;&gt;Node53 -->
<g id="edge72" class="edge">
<title>Node90&#45;&gt;Node53</title>
<path fill="none" stroke="midnightblue" d="M1304.08,-140.23C1361.48,-131.02 1455.56,-115.16 1536,-98 1544.32,-96.22 1553.27,-94.1 1561.58,-92.03"/>
<polygon fill="midnightblue" stroke="midnightblue" points="1303.48,-136.78 1294.15,-141.81 1304.58,-143.69 1303.48,-136.78"/>
</g>
<!-- Node90&#45;&gt;Node54 -->
<g id="edge73" class="edge">
<title>Node90&#45;&gt;Node54</title>
<path fill="none" stroke="midnightblue" d="M1197.96,-140.53C1138.22,-131.31 1038.34,-115.19 953,-98 944.11,-96.21 934.56,-94.08 925.68,-92.01"/>
<polygon fill="midnightblue" stroke="midnightblue" points="1197.5,-144 1207.91,-142.06 1198.56,-137.08 1197.5,-144"/>
</g>
</g>
</svg>
