<?xml version="1.0" encoding="UTF-8" standalone="no"?>
<!DOCTYPE svg PUBLIC "-//W3C//DTD SVG 1.1//EN"
 "http://www.w3.org/Graphics/SVG/1.1/DTD/svg11.dtd">
<!-- Generated by graphviz version 2.43.0 (0)
 -->
<!-- Title: Link.h Pages: 1 -->
<svg width="4523pt" height="285pt"
 viewBox="0.00 0.00 4523.32 285.00" xmlns="http://www.w3.org/2000/svg" xmlns:xlink="http://www.w3.org/1999/xlink">
<g id="graph0" class="graph" transform="scale(1 1) rotate(0) translate(4 281)">
<title>Link.h</title>
<!-- Node1 -->
<g id="node1" class="node">
<title>Node1</title>
<g id="a_node1"><a xlink:title=" ">
<polygon fill="#bfbfbf" stroke="black" points="3650.5,-257.5 3650.5,-276.5 3696.5,-276.5 3696.5,-257.5 3650.5,-257.5"/>
<text text-anchor="middle" x="3673.5" y="-264.5" font-family="FreeSans.ttf" font-size="10.00">Link.h</text>
</a>
</g>
</g>
<!-- Node2 -->
<g id="node2" class="node">
<title>Node2</title>
<g id="a_node2"><a xlink:href="Model_8h.html" target="_top" xlink:title=" ">
<polygon fill="none" stroke="black" points="2789.5,-201.5 2789.5,-220.5 2845.5,-220.5 2845.5,-201.5 2789.5,-201.5"/>
<text text-anchor="middle" x="2817.5" y="-208.5" font-family="FreeSans.ttf" font-size="10.00">Model.h</text>
</a>
</g>
</g>
<!-- Node1&#45;&gt;Node2 -->
<g id="edge1" class="edge">
<title>Node1&#45;&gt;Node2</title>
<path fill="none" stroke="midnightblue" d="M3640.16,-263.9C3501.83,-255.17 2974.4,-221.9 2845.87,-213.79"/>
<polygon fill="midnightblue" stroke="midnightblue" points="3639.96,-267.39 3650.16,-264.53 3640.4,-260.4 3639.96,-267.39"/>
</g>
<!-- Node87 -->
<g id="node48" class="node">
<title>Node87</title>
<g id="a_node48"><a xlink:href="Link_8cpp.html" target="_top" xlink:title=" ">
<polygon fill="none" stroke="black" points="3617,-201.5 3617,-220.5 3674,-220.5 3674,-201.5 3617,-201.5"/>
<text text-anchor="middle" x="3645.5" y="-208.5" font-family="FreeSans.ttf" font-size="10.00">Link.cpp</text>
</a>
</g>
</g>
<!-- Node1&#45;&gt;Node87 -->
<g id="edge67" class="edge">
<title>Node1&#45;&gt;Node87</title>
<path fill="none" stroke="midnightblue" d="M3664.16,-247.98C3659.41,-238.82 3653.84,-228.09 3650.04,-220.75"/>
<polygon fill="midnightblue" stroke="midnightblue" points="3661.17,-249.82 3668.88,-257.08 3667.38,-246.59 3661.17,-249.82"/>
</g>
<!-- Node88 -->
<g id="node49" class="node">
<title>Node88</title>
<g id="a_node49"><a xlink:href="LinkElement_8h.html" target="_top" xlink:title=" ">
<polygon fill="none" stroke="black" points="4413.5,-140 4413.5,-159 4499.5,-159 4499.5,-140 4413.5,-140"/>
<text text-anchor="middle" x="4456.5" y="-147" font-family="FreeSans.ttf" font-size="10.00">LinkElement.h</text>
</a>
</g>
</g>
<!-- Node1&#45;&gt;Node88 -->
<g id="edge68" class="edge">
<title>Node1&#45;&gt;Node88</title>
<path fill="none" stroke="midnightblue" d="M3681.19,-248.21C3688.93,-232.74 3702.45,-211.25 3721.5,-201 3788.42,-164.99 4329.5,-177.28 4404.5,-165 4413.01,-163.61 4422.12,-161.34 4430.3,-159.01"/>
<polygon fill="midnightblue" stroke="midnightblue" points="3678,-246.78 3676.95,-257.32 3684.34,-249.74 3678,-246.78"/>
</g>
<!-- Node70 -->
<g id="node50" class="node">
<title>Node70</title>
<g id="a_node50"><a xlink:href="SixAxisForceTorqueSensor_8cpp.html" target="_top" xlink:title=" ">
<polygon fill="none" stroke="black" points="3730.5,-201.5 3730.5,-220.5 3894.5,-220.5 3894.5,-201.5 3730.5,-201.5"/>
<text text-anchor="middle" x="3812.5" y="-208.5" font-family="FreeSans.ttf" font-size="10.00">SixAxisForceTorqueSensor.cpp</text>
</a>
</g>
</g>
<!-- Node1&#45;&gt;Node70 -->
<g id="edge71" class="edge">
<title>Node1&#45;&gt;Node70</title>
<path fill="none" stroke="midnightblue" d="M3704.98,-253.77C3731.09,-243.63 3767.54,-229.47 3790.58,-220.52"/>
<polygon fill="midnightblue" stroke="midnightblue" points="3703.58,-250.56 3695.52,-257.44 3706.11,-257.08 3703.58,-250.56"/>
</g>
<!-- Node3 -->
<g id="node3" class="node">
<title>Node3</title>
<g id="a_node3"><a xlink:href="ExtWrenchesAndJointTorquesEstimator_8h.html" target="_top" xlink:title=" ">
<polygon fill="none" stroke="black" points="3717.5,-67.5 3717.5,-97.5 3875.5,-97.5 3875.5,-67.5 3717.5,-67.5"/>
<text text-anchor="start" x="3725.5" y="-85.5" font-family="FreeSans.ttf" font-size="10.00">ExtWrenchesAndJointTorques</text>
<text text-anchor="middle" x="3796.5" y="-74.5" font-family="FreeSans.ttf" font-size="10.00">Estimator.h</text>
</a>
</g>
</g>
<!-- Node2&#45;&gt;Node3 -->
<g id="edge2" class="edge">
<title>Node2&#45;&gt;Node3</title>
<path fill="none" stroke="midnightblue" d="M2856.03,-210.31C2985.59,-210.93 3404.47,-209.36 3530.5,-165 3553.07,-157.06 3552.64,-143.73 3574.5,-134 3600.41,-122.47 3667.03,-108 3720.57,-97.51"/>
<polygon fill="midnightblue" stroke="midnightblue" points="2855.82,-206.81 2845.8,-210.25 2855.78,-213.81 2855.82,-206.81"/>
</g>
<!-- Node4 -->
<g id="node4" class="node">
<title>Node4</title>
<g id="a_node4"><a xlink:href="ExtWrenchesAndJointTorquesEstimator_8cpp.html" target="_top" xlink:title=" ">
<polygon fill="none" stroke="black" points="3641.5,-0.5 3641.5,-30.5 3799.5,-30.5 3799.5,-0.5 3641.5,-0.5"/>
<text text-anchor="start" x="3649.5" y="-18.5" font-family="FreeSans.ttf" font-size="10.00">ExtWrenchesAndJointTorques</text>
<text text-anchor="middle" x="3720.5" y="-7.5" font-family="FreeSans.ttf" font-size="10.00">Estimator.cpp</text>
</a>
</g>
</g>
<!-- Node2&#45;&gt;Node4 -->
<g id="edge9" class="edge">
<title>Node2&#45;&gt;Node4</title>
<path fill="none" stroke="midnightblue" d="M2855.86,-209.49C3077.41,-206.44 4184.3,-189.99 4208.5,-165 4331.31,-38.15 3966.84,-18.81 3799.59,-16.46"/>
<polygon fill="midnightblue" stroke="midnightblue" points="2855.65,-205.99 2845.7,-209.63 2855.74,-212.99 2855.65,-205.99"/>
</g>
<!-- Node5 -->
<g id="node5" class="node">
<title>Node5</title>
<g id="a_node5"><a xlink:href="GravityCompensationHelpers_8h.html" target="_top" xlink:title=" ">
<polygon fill="none" stroke="black" points="5.5,-140 5.5,-159 175.5,-159 175.5,-140 5.5,-140"/>
<text text-anchor="middle" x="90.5" y="-147" font-family="FreeSans.ttf" font-size="10.00">GravityCompensationHelpers.h</text>
</a>
</g>
</g>
<!-- Node2&#45;&gt;Node5 -->
<g id="edge4" class="edge">
<title>Node2&#45;&gt;Node5</title>
<path fill="none" stroke="midnightblue" d="M2779.33,-210.06C2496.32,-210.41 720.54,-210.71 184.5,-165 169.2,-163.7 152.61,-161.42 137.69,-159.06"/>
<polygon fill="midnightblue" stroke="midnightblue" points="2779.5,-213.56 2789.5,-210.05 2779.49,-206.56 2779.5,-213.56"/>
</g>
<!-- Node7 -->
<g id="node7" class="node">
<title>Node7</title>
<g id="a_node7"><a xlink:href="SimpleLeggedOdometry_8h.html" target="_top" xlink:title=" ">
<polygon fill="none" stroke="red" points="193.5,-140 193.5,-159 335.5,-159 335.5,-140 193.5,-140"/>
<text text-anchor="middle" x="264.5" y="-147" font-family="FreeSans.ttf" font-size="10.00">SimpleLeggedOdometry.h</text>
</a>
</g>
</g>
<!-- Node2&#45;&gt;Node7 -->
<g id="edge6" class="edge">
<title>Node2&#45;&gt;Node7</title>
<path fill="none" stroke="midnightblue" d="M2779.19,-210.09C2506.02,-210.65 850.01,-211.98 349.5,-165 335.64,-163.7 320.63,-161.43 307.14,-159.07"/>
<polygon fill="midnightblue" stroke="midnightblue" points="2779.4,-213.59 2789.39,-210.07 2779.39,-206.59 2779.4,-213.59"/>
</g>
<!-- Node9 -->
<g id="node8" class="node">
<title>Node9</title>
<g id="a_node8"><a xlink:href="BerdyHelper_8cpp.html" target="_top" xlink:title=" ">
<polygon fill="none" stroke="black" points="2723,-73 2723,-92 2820,-92 2820,-73 2723,-73"/>
<text text-anchor="middle" x="2771.5" y="-80" font-family="FreeSans.ttf" font-size="10.00">BerdyHelper.cpp</text>
</a>
</g>
</g>
<!-- Node2&#45;&gt;Node9 -->
<g id="edge7" class="edge">
<title>Node2&#45;&gt;Node9</title>
<path fill="none" stroke="midnightblue" d="M2855.7,-209.53C2931.91,-207.28 3091.23,-195.35 3039.5,-134 3008.98,-97.8 2875.83,-107.75 2829.5,-98 2821.17,-96.25 2812.23,-94.13 2803.92,-92.06"/>
<polygon fill="midnightblue" stroke="midnightblue" points="2855.44,-206.03 2845.53,-209.78 2855.62,-213.03 2855.44,-206.03"/>
</g>
<!-- Node10 -->
<g id="node9" class="node">
<title>Node10</title>
<g id="a_node9"><a xlink:href="ExternalWrenchesEstimation_8cpp.html" target="_top" xlink:title=" ">
<polygon fill="none" stroke="black" points="2838.5,-73 2838.5,-92 3016.5,-92 3016.5,-73 2838.5,-73"/>
<text text-anchor="middle" x="2927.5" y="-80" font-family="FreeSans.ttf" font-size="10.00">ExternalWrenchesEstimation.cpp</text>
</a>
</g>
</g>
<!-- Node2&#45;&gt;Node10 -->
<g id="edge8" class="edge">
<title>Node2&#45;&gt;Node10</title>
<path fill="none" stroke="midnightblue" d="M2855.81,-208.59C2917.16,-205.43 3033.18,-195.49 3058.5,-165 3088.36,-129.04 3016.65,-104.24 2967.96,-92.09"/>
<polygon fill="midnightblue" stroke="midnightblue" points="2855.56,-205.1 2845.73,-209.07 2855.89,-212.09 2855.56,-205.1"/>
</g>
<!-- Node11 -->
<g id="node10" class="node">
<title>Node11</title>
<g id="a_node10"><a xlink:href="KinDynComputations_8cpp.html" target="_top" xlink:title=" ">
<polygon fill="none" stroke="black" points="3408.5,-6 3408.5,-25 3548.5,-25 3548.5,-6 3408.5,-6"/>
<text text-anchor="middle" x="3478.5" y="-13" font-family="FreeSans.ttf" font-size="10.00">KinDynComputations.cpp</text>
</a>
</g>
</g>
<!-- Node2&#45;&gt;Node11 -->
<g id="edge10" class="edge">
<title>Node2&#45;&gt;Node11</title>
<path fill="none" stroke="midnightblue" d="M2855.89,-209.17C2957.09,-206.56 3229.05,-196.72 3312.5,-165 3334.19,-156.76 3332.91,-142.49 3354.5,-134 3420.27,-108.14 3623.44,-150.73 3670.5,-98 3710.35,-53.36 3618.75,-32.39 3548.8,-23.13"/>
<polygon fill="midnightblue" stroke="midnightblue" points="2855.72,-205.67 2845.81,-209.42 2855.89,-212.67 2855.72,-205.67"/>
</g>
<!-- Node12 -->
<g id="node11" class="node">
<title>Node12</title>
<g id="a_node11"><a xlink:href="skinDynLibConversionsImplementation_8h.html" target="_top" xlink:title=" ">
<polygon fill="none" stroke="red" points="467.5,-140 467.5,-159 685.5,-159 685.5,-140 467.5,-140"/>
<text text-anchor="middle" x="576.5" y="-147" font-family="FreeSans.ttf" font-size="10.00">skinDynLibConversionsImplementation.h</text>
</a>
</g>
</g>
<!-- Node2&#45;&gt;Node12 -->
<g id="edge11" class="edge">
<title>Node2&#45;&gt;Node12</title>
<path fill="none" stroke="midnightblue" d="M2779.24,-209.72C2528.98,-207.8 1122.71,-195.77 694.5,-165 675.46,-163.63 654.77,-161.36 636.11,-159.01"/>
<polygon fill="midnightblue" stroke="midnightblue" points="2779.27,-213.22 2789.3,-209.8 2779.32,-206.22 2779.27,-213.22"/>
</g>
<!-- Node14 -->
<g id="node12" class="node">
<title>Node14</title>
<g id="a_node12"><a xlink:href="InverseKinematicsData_8h.html" target="_top" xlink:title=" ">
<polygon fill="none" stroke="red" points="703.5,-140 703.5,-159 843.5,-159 843.5,-140 703.5,-140"/>
<text text-anchor="middle" x="773.5" y="-147" font-family="FreeSans.ttf" font-size="10.00">InverseKinematicsData.h</text>
</a>
</g>
</g>
<!-- Node2&#45;&gt;Node14 -->
<g id="edge12" class="edge">
<title>Node2&#45;&gt;Node14</title>
<path fill="none" stroke="midnightblue" d="M2779.11,-209.95C2539.44,-209.53 1246.16,-205.38 852.5,-165 839.6,-163.68 825.65,-161.4 813.11,-159.04"/>
<polygon fill="midnightblue" stroke="midnightblue" points="2779.4,-213.45 2789.41,-209.97 2779.41,-206.45 2779.4,-213.45"/>
</g>
<!-- Node17 -->
<g id="node13" class="node">
<title>Node17</title>
<g id="a_node13"><a xlink:href="DenavitHartenberg_8h.html" target="_top" xlink:title=" ">
<polygon fill="none" stroke="red" points="862,-140 862,-159 981,-159 981,-140 862,-140"/>
<text text-anchor="middle" x="921.5" y="-147" font-family="FreeSans.ttf" font-size="10.00">DenavitHartenberg.h</text>
</a>
</g>
</g>
<!-- Node2&#45;&gt;Node17 -->
<g id="edge13" class="edge">
<title>Node2&#45;&gt;Node17</title>
<path fill="none" stroke="midnightblue" d="M2779.29,-210.01C2550.03,-209.92 1354.63,-207.39 990.5,-165 979.19,-163.68 966.99,-161.41 956.05,-159.05"/>
<polygon fill="midnightblue" stroke="midnightblue" points="2779.47,-213.51 2789.47,-210.01 2779.47,-206.51 2779.47,-213.51"/>
</g>
<!-- Node21 -->
<g id="node14" class="node">
<title>Node21</title>
<g id="a_node14"><a xlink:href="ModelTestUtils_8h.html" target="_top" xlink:title=" ">
<polygon fill="none" stroke="black" points="999.5,-140 999.5,-159 1097.5,-159 1097.5,-140 999.5,-140"/>
<text text-anchor="middle" x="1048.5" y="-147" font-family="FreeSans.ttf" font-size="10.00">ModelTestUtils.h</text>
</a>
</g>
</g>
<!-- Node2&#45;&gt;Node21 -->
<g id="edge14" class="edge">
<title>Node2&#45;&gt;Node21</title>
<path fill="none" stroke="midnightblue" d="M2779.3,-210.11C2558.77,-210.57 1446.32,-210.55 1107.5,-165 1097.78,-163.69 1087.33,-161.42 1077.97,-159.06"/>
<polygon fill="midnightblue" stroke="midnightblue" points="2779.42,-213.61 2789.41,-210.09 2779.41,-206.61 2779.42,-213.61"/>
</g>
<!-- Node22 -->
<g id="node15" class="node">
<title>Node22</title>
<g id="a_node15"><a xlink:href="ContactWrench_8cpp.html" target="_top" xlink:title=" ">
<polygon fill="none" stroke="black" points="1116,-140 1116,-159 1227,-159 1227,-140 1116,-140"/>
<text text-anchor="middle" x="1171.5" y="-147" font-family="FreeSans.ttf" font-size="10.00">ContactWrench.cpp</text>
</a>
</g>
</g>
<!-- Node2&#45;&gt;Node22 -->
<g id="edge15" class="edge">
<title>Node2&#45;&gt;Node22</title>
<path fill="none" stroke="midnightblue" d="M2779.25,-209.9C2568.66,-209.22 1548.69,-203.9 1236.5,-165 1225.83,-163.67 1214.33,-161.39 1204.02,-159.03"/>
<polygon fill="midnightblue" stroke="midnightblue" points="2779.48,-213.4 2789.49,-209.93 2779.5,-206.4 2779.48,-213.4"/>
</g>
<!-- Node23 -->
<g id="node16" class="node">
<title>Node23</title>
<g id="a_node16"><a xlink:href="Dynamics_8cpp.html" target="_top" xlink:title=" ">
<polygon fill="none" stroke="black" points="1245.5,-140 1245.5,-159 1331.5,-159 1331.5,-140 1245.5,-140"/>
<text text-anchor="middle" x="1288.5" y="-147" font-family="FreeSans.ttf" font-size="10.00">Dynamics.cpp</text>
</a>
</g>
</g>
<!-- Node2&#45;&gt;Node23 -->
<g id="edge16" class="edge">
<title>Node2&#45;&gt;Node23</title>
<path fill="none" stroke="midnightblue" d="M2779.21,-210.06C2576.9,-210.17 1630.75,-208.35 1341.5,-165 1332.73,-163.69 1323.33,-161.41 1314.93,-159.05"/>
<polygon fill="midnightblue" stroke="midnightblue" points="2779.35,-213.56 2789.35,-210.05 2779.35,-206.56 2779.35,-213.56"/>
</g>
<!-- Node24 -->
<g id="node17" class="node">
<title>Node24</title>
<g id="a_node17"><a xlink:href="DynamicsLinearization_8cpp.html" target="_top" xlink:title=" ">
<polygon fill="none" stroke="black" points="1350,-140 1350,-159 1499,-159 1499,-140 1350,-140"/>
<text text-anchor="middle" x="1424.5" y="-147" font-family="FreeSans.ttf" font-size="10.00">DynamicsLinearization.cpp</text>
</a>
</g>
</g>
<!-- Node2&#45;&gt;Node24 -->
<g id="edge17" class="edge">
<title>Node2&#45;&gt;Node24</title>
<path fill="none" stroke="midnightblue" d="M2779.21,-209.39C2591.18,-206.29 1764.5,-191.37 1508.5,-165 1494.96,-163.6 1480.3,-161.34 1467.08,-159.01"/>
<polygon fill="midnightblue" stroke="midnightblue" points="2779.37,-212.89 2789.43,-209.56 2779.48,-205.89 2779.37,-212.89"/>
</g>
<!-- Node25 -->
<g id="node18" class="node">
<title>Node25</title>
<g id="a_node18"><a xlink:href="ForwardKinematics_8cpp.html" target="_top" xlink:title=" ">
<polygon fill="none" stroke="black" points="1517,-140 1517,-159 1648,-159 1648,-140 1517,-140"/>
<text text-anchor="middle" x="1582.5" y="-147" font-family="FreeSans.ttf" font-size="10.00">ForwardKinematics.cpp</text>
</a>
</g>
</g>
<!-- Node2&#45;&gt;Node25 -->
<g id="edge18" class="edge">
<title>Node2&#45;&gt;Node25</title>
<path fill="none" stroke="midnightblue" d="M2779.17,-209.3C2604.43,-205.98 1882.16,-190.92 1657.5,-165 1645.38,-163.6 1632.28,-161.34 1620.48,-159.01"/>
<polygon fill="midnightblue" stroke="midnightblue" points="2779.35,-212.8 2789.41,-209.49 2779.48,-205.8 2779.35,-212.8"/>
</g>
<!-- Node26 -->
<g id="node19" class="node">
<title>Node26</title>
<g id="a_node19"><a xlink:href="FreeFloatingMatrices_8cpp.html" target="_top" xlink:title=" ">
<polygon fill="none" stroke="black" points="1666.5,-140 1666.5,-159 1806.5,-159 1806.5,-140 1666.5,-140"/>
<text text-anchor="middle" x="1736.5" y="-147" font-family="FreeSans.ttf" font-size="10.00">FreeFloatingMatrices.cpp</text>
</a>
</g>
</g>
<!-- Node2&#45;&gt;Node26 -->
<g id="edge19" class="edge">
<title>Node2&#45;&gt;Node26</title>
<path fill="none" stroke="midnightblue" d="M2778.99,-210.13C2645.4,-210.17 2189.73,-207.02 1816.5,-165 1803.74,-163.56 1789.94,-161.32 1777.45,-159.02"/>
<polygon fill="midnightblue" stroke="midnightblue" points="2779.13,-213.63 2789.13,-210.12 2779.12,-206.63 2779.13,-213.63"/>
</g>
<!-- Node27 -->
<g id="node20" class="node">
<title>Node27</title>
<g id="a_node20"><a xlink:href="FreeFloatingState_8cpp.html" target="_top" xlink:title=" ">
<polygon fill="none" stroke="black" points="1825,-140 1825,-159 1948,-159 1948,-140 1825,-140"/>
<text text-anchor="middle" x="1886.5" y="-147" font-family="FreeSans.ttf" font-size="10.00">FreeFloatingState.cpp</text>
</a>
</g>
</g>
<!-- Node2&#45;&gt;Node27 -->
<g id="edge20" class="edge">
<title>Node2&#45;&gt;Node27</title>
<path fill="none" stroke="midnightblue" d="M2778.89,-210.03C2657.47,-209.67 2272.78,-205.21 1957.5,-165 1946.14,-163.55 1933.89,-161.3 1922.81,-159"/>
<polygon fill="midnightblue" stroke="midnightblue" points="2779.15,-213.53 2789.15,-210.05 2779.16,-206.53 2779.15,-213.53"/>
</g>
<!-- Node28 -->
<g id="node21" class="node">
<title>Node28</title>
<g id="a_node21"><a xlink:href="Jacobians_8cpp.html" target="_top" xlink:title=" ">
<polygon fill="none" stroke="black" points="1966,-140 1966,-159 2049,-159 2049,-140 1966,-140"/>
<text text-anchor="middle" x="2007.5" y="-147" font-family="FreeSans.ttf" font-size="10.00">Jacobians.cpp</text>
</a>
</g>
</g>
<!-- Node2&#45;&gt;Node28 -->
<g id="edge21" class="edge">
<title>Node2&#45;&gt;Node28</title>
<path fill="none" stroke="midnightblue" d="M2779.22,-210.66C2667.38,-211.95 2331.77,-211.38 2058.5,-165 2050.24,-163.6 2041.41,-161.36 2033.46,-159.06"/>
<polygon fill="midnightblue" stroke="midnightblue" points="2779.38,-214.15 2789.34,-210.53 2779.29,-207.16 2779.38,-214.15"/>
</g>
<!-- Node29 -->
<g id="node22" class="node">
<title>Node29</title>
<g id="a_node22"><a xlink:href="JointState_8cpp.html" target="_top" xlink:title=" ">
<polygon fill="none" stroke="black" points="2067.5,-140 2067.5,-159 2151.5,-159 2151.5,-140 2067.5,-140"/>
<text text-anchor="middle" x="2109.5" y="-147" font-family="FreeSans.ttf" font-size="10.00">JointState.cpp</text>
</a>
</g>
</g>
<!-- Node2&#45;&gt;Node29 -->
<g id="edge22" class="edge">
<title>Node2&#45;&gt;Node29</title>
<path fill="none" stroke="midnightblue" d="M2779.38,-210.08C2678.03,-209.72 2393.76,-204.92 2161.5,-165 2153.09,-163.56 2144.09,-161.31 2135.98,-159.01"/>
<polygon fill="midnightblue" stroke="midnightblue" points="2779.44,-213.58 2789.44,-210.1 2779.45,-206.58 2779.44,-213.58"/>
</g>
<!-- Node30 -->
<g id="node23" class="node">
<title>Node30</title>
<g id="a_node23"><a xlink:href="LinkState_8cpp.html" target="_top" xlink:title=" ">
<polygon fill="none" stroke="black" points="2170,-140 2170,-159 2253,-159 2253,-140 2170,-140"/>
<text text-anchor="middle" x="2211.5" y="-147" font-family="FreeSans.ttf" font-size="10.00">LinkState.cpp</text>
</a>
</g>
</g>
<!-- Node2&#45;&gt;Node30 -->
<g id="edge23" class="edge">
<title>Node2&#45;&gt;Node30</title>
<path fill="none" stroke="midnightblue" d="M2779.16,-209.47C2688.57,-207.66 2454.43,-199.72 2262.5,-165 2254.35,-163.53 2245.62,-161.3 2237.74,-159.02"/>
<polygon fill="midnightblue" stroke="midnightblue" points="2779.17,-212.97 2789.24,-209.66 2779.3,-205.97 2779.17,-212.97"/>
</g>
<!-- Node31 -->
<g id="node24" class="node">
<title>Node31</title>
<g id="a_node24"><a xlink:href="LinkTraversalsCache_8cpp.html" target="_top" xlink:title=" ">
<polygon fill="none" stroke="black" points="2271,-140 2271,-159 2408,-159 2408,-140 2271,-140"/>
<text text-anchor="middle" x="2339.5" y="-147" font-family="FreeSans.ttf" font-size="10.00">LinkTraversalsCache.cpp</text>
</a>
</g>
</g>
<!-- Node2&#45;&gt;Node31 -->
<g id="edge24" class="edge">
<title>Node2&#45;&gt;Node31</title>
<path fill="none" stroke="midnightblue" d="M2778.97,-206.59C2707.51,-200.07 2549.65,-184.69 2417.5,-165 2406.06,-163.29 2393.72,-161.15 2382.32,-159.03"/>
<polygon fill="midnightblue" stroke="midnightblue" points="2779.01,-210.11 2789.28,-207.53 2779.64,-203.14 2779.01,-210.11"/>
</g>
<!-- Node32 -->
<g id="node25" class="node">
<title>Node32</title>
<g id="a_node25"><a xlink:href="Model_8cpp.html" target="_top" xlink:title=" ">
<polygon fill="none" stroke="black" points="2426,-140 2426,-159 2493,-159 2493,-140 2426,-140"/>
<text text-anchor="middle" x="2459.5" y="-147" font-family="FreeSans.ttf" font-size="10.00">Model.cpp</text>
</a>
</g>
</g>
<!-- Node2&#45;&gt;Node32 -->
<g id="edge25" class="edge">
<title>Node2&#45;&gt;Node32</title>
<path fill="none" stroke="midnightblue" d="M2779.27,-206.82C2719.57,-201.34 2600.86,-188.4 2502.5,-165 2495.91,-163.43 2488.89,-161.28 2482.48,-159.12"/>
<polygon fill="midnightblue" stroke="midnightblue" points="2779.09,-210.32 2789.37,-207.72 2779.72,-203.34 2779.09,-210.32"/>
</g>
<!-- Node33 -->
<g id="node26" class="node">
<title>Node33</title>
<g id="a_node26"><a xlink:href="ModelTransformers_8cpp.html" target="_top" xlink:title=" ">
<polygon fill="none" stroke="black" points="2511,-140 2511,-159 2642,-159 2642,-140 2511,-140"/>
<text text-anchor="middle" x="2576.5" y="-147" font-family="FreeSans.ttf" font-size="10.00">ModelTransformers.cpp</text>
</a>
</g>
</g>
<!-- Node2&#45;&gt;Node33 -->
<g id="edge26" class="edge">
<title>Node2&#45;&gt;Node33</title>
<path fill="none" stroke="midnightblue" d="M2779.44,-200.6C2733.15,-189.17 2655.67,-170.05 2611.03,-159.03"/>
<polygon fill="midnightblue" stroke="midnightblue" points="2778.84,-204.06 2789.38,-203.06 2780.51,-197.26 2778.84,-204.06"/>
</g>
<!-- Node34 -->
<g id="node27" class="node">
<title>Node34</title>
<g id="a_node27"><a xlink:href="SolidShapes_8cpp.html" target="_top" xlink:title=" ">
<polygon fill="none" stroke="black" points="2660.5,-140 2660.5,-159 2756.5,-159 2756.5,-140 2660.5,-140"/>
<text text-anchor="middle" x="2708.5" y="-147" font-family="FreeSans.ttf" font-size="10.00">SolidShapes.cpp</text>
</a>
</g>
</g>
<!-- Node2&#45;&gt;Node34 -->
<g id="edge27" class="edge">
<title>Node2&#45;&gt;Node34</title>
<path fill="none" stroke="midnightblue" d="M2792.87,-196.56C2771.78,-185.04 2742.04,-168.81 2724.09,-159.01"/>
<polygon fill="midnightblue" stroke="midnightblue" points="2791.43,-199.76 2801.88,-201.48 2794.78,-193.61 2791.43,-199.76"/>
</g>
<!-- Node35 -->
<g id="node28" class="node">
<title>Node35</title>
<g id="a_node28"><a xlink:href="SubModel_8cpp.html" target="_top" xlink:title=" ">
<polygon fill="none" stroke="black" points="2775,-140 2775,-159 2860,-159 2860,-140 2775,-140"/>
<text text-anchor="middle" x="2817.5" y="-147" font-family="FreeSans.ttf" font-size="10.00">SubModel.cpp</text>
</a>
</g>
</g>
<!-- Node2&#45;&gt;Node35 -->
<g id="edge28" class="edge">
<title>Node2&#45;&gt;Node35</title>
<path fill="none" stroke="midnightblue" d="M2817.5,-191.32C2817.5,-180.5 2817.5,-167.4 2817.5,-159.01"/>
<polygon fill="midnightblue" stroke="midnightblue" points="2814,-191.48 2817.5,-201.48 2821,-191.48 2814,-191.48"/>
</g>
<!-- Node36 -->
<g id="node29" class="node">
<title>Node36</title>
<g id="a_node29"><a xlink:href="Traversal_8cpp.html" target="_top" xlink:title=" ">
<polygon fill="none" stroke="black" points="2878,-140 2878,-159 2959,-159 2959,-140 2878,-140"/>
<text text-anchor="middle" x="2918.5" y="-147" font-family="FreeSans.ttf" font-size="10.00">Traversal.cpp</text>
</a>
</g>
</g>
<!-- Node2&#45;&gt;Node36 -->
<g id="edge29" class="edge">
<title>Node2&#45;&gt;Node36</title>
<path fill="none" stroke="midnightblue" d="M2840.85,-196.24C2860.36,-184.75 2887.57,-168.72 2904.06,-159.01"/>
<polygon fill="midnightblue" stroke="midnightblue" points="2838.81,-193.38 2831.97,-201.48 2842.36,-199.41 2838.81,-193.38"/>
</g>
<!-- Node37 -->
<g id="node30" class="node">
<title>Node37</title>
<g id="a_node30"><a xlink:href="ModelCalibrationHelper_8h.html" target="_top" xlink:title=" ">
<polygon fill="none" stroke="red" points="369.5,-6 369.5,-25 509.5,-25 509.5,-6 369.5,-6"/>
<text text-anchor="middle" x="439.5" y="-13" font-family="FreeSans.ttf" font-size="10.00">ModelCalibrationHelper.h</text>
</a>
</g>
</g>
<!-- Node2&#45;&gt;Node37 -->
<g id="edge30" class="edge">
<title>Node2&#45;&gt;Node37</title>
<path fill="none" stroke="midnightblue" d="M2779.43,-209.85C2476.37,-208.56 465.22,-198.74 413.5,-165 375.24,-140.04 363.75,-108.66 382.5,-67 390.91,-48.31 410.03,-33.74 423.81,-25.15"/>
<polygon fill="midnightblue" stroke="midnightblue" points="2779.46,-213.35 2789.48,-209.89 2779.49,-206.35 2779.46,-213.35"/>
</g>
<!-- Node39 -->
<g id="node31" class="node">
<title>Node39</title>
<g id="a_node31"><a xlink:href="ModelExporter_8h.html" target="_top" xlink:title=" ">
<polygon fill="none" stroke="red" points="391.5,-73 391.5,-92 487.5,-92 487.5,-73 391.5,-73"/>
<text text-anchor="middle" x="439.5" y="-80" font-family="FreeSans.ttf" font-size="10.00">ModelExporter.h</text>
</a>
</g>
</g>
<!-- Node2&#45;&gt;Node39 -->
<g id="edge31" class="edge">
<title>Node2&#45;&gt;Node39</title>
<path fill="none" stroke="midnightblue" d="M2779,-210.02C2474.71,-210.08 468.51,-208.83 425.5,-165 405.99,-145.12 424.09,-108.57 434,-92.03"/>
<polygon fill="midnightblue" stroke="midnightblue" points="2779.1,-213.52 2789.1,-210.02 2779.1,-206.52 2779.1,-213.52"/>
</g>
<!-- Node43 -->
<g id="node32" class="node">
<title>Node43</title>
<g id="a_node32"><a xlink:href="ModelLoader_8h.html" target="_top" xlink:title=" ">
<polygon fill="none" stroke="red" points="3072.5,-73 3072.5,-92 3160.5,-92 3160.5,-73 3072.5,-73"/>
<text text-anchor="middle" x="3116.5" y="-80" font-family="FreeSans.ttf" font-size="10.00">ModelLoader.h</text>
</a>
</g>
</g>
<!-- Node2&#45;&gt;Node43 -->
<g id="edge33" class="edge">
<title>Node2&#45;&gt;Node43</title>
<path fill="none" stroke="midnightblue" d="M2856.01,-207.49C2919.21,-202.7 3041.34,-190.37 3075.5,-165 3100.3,-146.59 3111.11,-108.94 3114.85,-92.04"/>
<polygon fill="midnightblue" stroke="midnightblue" points="2855.38,-204.03 2845.66,-208.25 2855.89,-211.01 2855.38,-204.03"/>
</g>
<!-- Node44 -->
<g id="node33" class="node">
<title>Node44</title>
<g id="a_node33"><a xlink:href="URDFDocument_8h.html" target="_top" xlink:title=" ">
<polygon fill="none" stroke="red" points="3136.5,-6 3136.5,-25 3240.5,-25 3240.5,-6 3136.5,-6"/>
<text text-anchor="middle" x="3188.5" y="-13" font-family="FreeSans.ttf" font-size="10.00">URDFDocument.h</text>
</a>
</g>
</g>
<!-- Node2&#45;&gt;Node44 -->
<g id="edge42" class="edge">
<title>Node2&#45;&gt;Node44</title>
<path fill="none" stroke="midnightblue" d="M2856.12,-206.82C2923.46,-200.79 3059.2,-186.36 3101.5,-165 3139.37,-145.88 3148.75,-135.01 3169.5,-98 3183,-73.92 3186.93,-40.69 3188.05,-25.16"/>
<polygon fill="midnightblue" stroke="midnightblue" points="2855.58,-203.35 2845.93,-207.71 2856.19,-210.32 2855.58,-203.35"/>
</g>
<!-- Node47 -->
<g id="node34" class="node">
<title>Node47</title>
<g id="a_node34"><a xlink:href="URDFDofsImport_8cpp.html" target="_top" xlink:title=" ">
<polygon fill="none" stroke="black" points="1436,-6 1436,-25 1555,-25 1555,-6 1436,-6"/>
<text text-anchor="middle" x="1495.5" y="-13" font-family="FreeSans.ttf" font-size="10.00">URDFDofsImport.cpp</text>
</a>
</g>
</g>
<!-- Node2&#45;&gt;Node47 -->
<g id="edge45" class="edge">
<title>Node2&#45;&gt;Node47</title>
<path fill="none" stroke="midnightblue" d="M2779.08,-210.01C2477.48,-209.99 500.89,-208.21 458.5,-165 448.85,-155.17 449.32,-144.28 458.5,-134 524.05,-60.6 1225.17,-27.16 1435.92,-18.72"/>
<polygon fill="midnightblue" stroke="midnightblue" points="2779.49,-213.51 2789.49,-210.01 2779.49,-206.51 2779.49,-213.51"/>
</g>
<!-- Node48 -->
<g id="node35" class="node">
<title>Node48</title>
<g id="a_node35"><a xlink:href="idyntree-model-info_8cpp.html" target="_top" xlink:title=" ">
<polygon fill="none" stroke="black" points="2649.5,-6 2649.5,-25 2783.5,-25 2783.5,-6 2649.5,-6"/>
<text text-anchor="middle" x="2716.5" y="-13" font-family="FreeSans.ttf" font-size="10.00">idyntree&#45;model&#45;info.cpp</text>
</a>
</g>
</g>
<!-- Node2&#45;&gt;Node48 -->
<g id="edge62" class="edge">
<title>Node2&#45;&gt;Node48</title>
<path fill="none" stroke="midnightblue" d="M2855.48,-204.89C2911.03,-195.93 3004.16,-174.39 2968.5,-134 2883.13,-37.29 2765.87,-194.71 2680.5,-98 2660.85,-75.74 2690.92,-41.02 2707.19,-25.06"/>
<polygon fill="midnightblue" stroke="midnightblue" points="2854.93,-201.43 2845.59,-206.42 2856,-208.35 2854.93,-201.43"/>
</g>
<!-- Node49 -->
<g id="node36" class="node">
<title>Node49</title>
<g id="a_node36"><a xlink:href="idyntree-model-view_8cpp.html" target="_top" xlink:title=" ">
<polygon fill="none" stroke="black" points="2921,-6 2921,-25 3058,-25 3058,-6 2921,-6"/>
<text text-anchor="middle" x="2989.5" y="-13" font-family="FreeSans.ttf" font-size="10.00">idyntree&#45;model&#45;view.cpp</text>
</a>
</g>
</g>
<!-- Node2&#45;&gt;Node49 -->
<g id="edge63" class="edge">
<title>Node2&#45;&gt;Node49</title>
<path fill="none" stroke="midnightblue" d="M2855.96,-206.25C2916.92,-198.86 3024.98,-179.07 2985.5,-134 2905.44,-42.6 2794.56,-189.4 2714.5,-98 2705.42,-87.64 2705.68,-77.59 2714.5,-67 2740.29,-36.05 2848.26,-24 2920.99,-19.36"/>
<polygon fill="midnightblue" stroke="midnightblue" points="2855.43,-202.79 2845.89,-207.41 2856.23,-209.74 2855.43,-202.79"/>
</g>
<!-- Node50 -->
<g id="node37" class="node">
<title>Node50</title>
<g id="a_node37"><a xlink:href="InertialElement_8h.html" target="_top" xlink:title=" ">
<polygon fill="none" stroke="red" points="4294,-140 4294,-159 4395,-159 4395,-140 4294,-140"/>
<text text-anchor="middle" x="4344.5" y="-147" font-family="FreeSans.ttf" font-size="10.00">InertialElement.h</text>
</a>
</g>
</g>
<!-- Node2&#45;&gt;Node50 -->
<g id="edge40" class="edge">
<title>Node2&#45;&gt;Node50</title>
<path fill="none" stroke="midnightblue" d="M2855.72,-209.8C3056.63,-208.6 3992.22,-201.14 4279.5,-165 4290.17,-163.66 4301.66,-161.38 4311.98,-159.02"/>
<polygon fill="midnightblue" stroke="midnightblue" points="2855.63,-206.3 2845.65,-209.86 2855.67,-213.3 2855.63,-206.3"/>
</g>
<!-- Node52 -->
<g id="node38" class="node">
<title>Node52</title>
<g id="a_node38"><a xlink:href="LinkElement_8cpp.html" target="_top" xlink:title=" ">
<polygon fill="none" stroke="black" points="4407.5,-73 4407.5,-92 4505.5,-92 4505.5,-73 4407.5,-73"/>
<text text-anchor="middle" x="4456.5" y="-80" font-family="FreeSans.ttf" font-size="10.00">LinkElement.cpp</text>
</a>
</g>
</g>
<!-- Node2&#45;&gt;Node52 -->
<g id="edge43" class="edge">
<title>Node2&#45;&gt;Node52</title>
<path fill="none" stroke="midnightblue" d="M2855.95,-209.71C3104.83,-207.76 4478.69,-195.61 4508.5,-165 4530.86,-142.03 4490.91,-107.97 4469.18,-92.15"/>
<polygon fill="midnightblue" stroke="midnightblue" points="2855.57,-206.21 2845.6,-209.79 2855.63,-213.21 2855.57,-206.21"/>
</g>
<!-- Node53 -->
<g id="node39" class="node">
<title>Node53</title>
<g id="a_node39"><a xlink:href="RobotElement_8cpp.html" target="_top" xlink:title=" ">
<polygon fill="none" stroke="black" points="4255.5,-73 4255.5,-92 4361.5,-92 4361.5,-73 4255.5,-73"/>
<text text-anchor="middle" x="4308.5" y="-80" font-family="FreeSans.ttf" font-size="10.00">RobotElement.cpp</text>
</a>
</g>
</g>
<!-- Node2&#45;&gt;Node53 -->
<g id="edge44" class="edge">
<title>Node2&#45;&gt;Node53</title>
<path fill="none" stroke="midnightblue" d="M2855.94,-209.68C3076.91,-207.72 4177.63,-196.42 4241.5,-165 4273.71,-149.15 4295.87,-109.8 4304.49,-92.22"/>
<polygon fill="midnightblue" stroke="midnightblue" points="2855.77,-206.18 2845.8,-209.77 2855.83,-213.18 2855.77,-206.18"/>
</g>
<!-- Node42 -->
<g id="node40" class="node">
<title>Node42</title>
<g id="a_node40"><a xlink:href="URDFModelExport_8cpp.html" target="_top" xlink:title=" ">
<polygon fill="none" stroke="black" points="3363.5,-140 3363.5,-159 3489.5,-159 3489.5,-140 3363.5,-140"/>
<text text-anchor="middle" x="3426.5" y="-147" font-family="FreeSans.ttf" font-size="10.00">URDFModelExport.cpp</text>
</a>
</g>
</g>
<!-- Node2&#45;&gt;Node42 -->
<g id="edge46" class="edge">
<title>Node2&#45;&gt;Node42</title>
<path fill="none" stroke="midnightblue" d="M2855.58,-208.11C2943.11,-203.48 3165.26,-190.07 3349.5,-165 3361.23,-163.4 3373.88,-161.22 3385.47,-159.03"/>
<polygon fill="midnightblue" stroke="midnightblue" points="2855.39,-204.62 2845.59,-208.63 2855.75,-211.61 2855.39,-204.62"/>
</g>
<!-- Node54 -->
<g id="node41" class="node">
<title>Node54</title>
<g id="a_node41"><a xlink:href="Sensors_8h.html" target="_top" xlink:title=" ">
<polygon fill="none" stroke="red" points="3205.5,-140 3205.5,-159 3269.5,-159 3269.5,-140 3205.5,-140"/>
<text text-anchor="middle" x="3237.5" y="-147" font-family="FreeSans.ttf" font-size="10.00">Sensors.h</text>
</a>
</g>
</g>
<!-- Node2&#45;&gt;Node54 -->
<g id="edge47" class="edge">
<title>Node2&#45;&gt;Node54</title>
<path fill="none" stroke="midnightblue" d="M2856.23,-207.72C2924.57,-203.16 3070.75,-191.06 3191.5,-165 3198.7,-163.45 3206.39,-161.25 3213.38,-159.03"/>
<polygon fill="midnightblue" stroke="midnightblue" points="2855.7,-204.24 2845.95,-208.38 2856.15,-211.23 2855.7,-204.24"/>
</g>
<!-- Node69 -->
<g id="node42" class="node">
<title>Node69</title>
<g id="a_node42"><a xlink:href="ModelSensorsTransformers_8cpp.html" target="_top" xlink:title=" ">
<polygon fill="none" stroke="black" points="3292,-73 3292,-92 3461,-92 3461,-73 3292,-73"/>
<text text-anchor="middle" x="3376.5" y="-80" font-family="FreeSans.ttf" font-size="10.00">ModelSensorsTransformers.cpp</text>
</a>
</g>
</g>
<!-- Node2&#45;&gt;Node69 -->
<g id="edge59" class="edge">
<title>Node2&#45;&gt;Node69</title>
<path fill="none" stroke="midnightblue" d="M2855.95,-209.14C2952.42,-206.52 3202.41,-196.77 3278.5,-165 3298.92,-156.47 3347.25,-111.53 3367.41,-92.27"/>
<polygon fill="midnightblue" stroke="midnightblue" points="2855.67,-205.64 2845.77,-209.4 2855.86,-212.64 2855.67,-205.64"/>
</g>
<!-- Node64 -->
<g id="node43" class="node">
<title>Node64</title>
<g id="a_node43"><a xlink:href="PredictSensorsMeasurements_8cpp.html" target="_top" xlink:title=" ">
<polygon fill="none" stroke="black" points="3479.5,-73 3479.5,-92 3661.5,-92 3661.5,-73 3479.5,-73"/>
<text text-anchor="middle" x="3570.5" y="-80" font-family="FreeSans.ttf" font-size="10.00">PredictSensorsMeasurements.cpp</text>
</a>
</g>
</g>
<!-- Node2&#45;&gt;Node64 -->
<g id="edge60" class="edge">
<title>Node2&#45;&gt;Node64</title>
<path fill="none" stroke="midnightblue" d="M2855.86,-209.16C2991.11,-205.98 3440.77,-193.36 3498.5,-165 3531.71,-148.68 3556.27,-109.58 3565.96,-92.14"/>
<polygon fill="midnightblue" stroke="midnightblue" points="2855.49,-205.67 2845.58,-209.4 2855.65,-212.67 2855.49,-205.67"/>
</g>
<!-- Node75 -->
<g id="node44" class="node">
<title>Node75</title>
<g id="a_node44"><a xlink:href="InertialParametersSolidShapesHelpers_8h.html" target="_top" xlink:title=" ">
<polygon fill="none" stroke="red" points="3583.5,-134.5 3583.5,-164.5 3749.5,-164.5 3749.5,-134.5 3583.5,-134.5"/>
<text text-anchor="start" x="3591.5" y="-152.5" font-family="FreeSans.ttf" font-size="10.00">InertialParametersSolidShapes</text>
<text text-anchor="middle" x="3666.5" y="-141.5" font-family="FreeSans.ttf" font-size="10.00">Helpers.h</text>
</a>
</g>
</g>
<!-- Node2&#45;&gt;Node75 -->
<g id="edge61" class="edge">
<title>Node2&#45;&gt;Node75</title>
<path fill="none" stroke="midnightblue" d="M2855.57,-208.91C2966.14,-205.51 3296.67,-193.5 3569.5,-165 3574.07,-164.52 3578.76,-163.98 3583.49,-163.4"/>
<polygon fill="midnightblue" stroke="midnightblue" points="2855.46,-205.42 2845.57,-209.22 2855.67,-212.41 2855.46,-205.42"/>
</g>
<!-- Node77 -->
<g id="node45" class="node">
<title>Node77</title>
<g id="a_node45"><a xlink:href="DummyImplementations_8h.html" target="_top" xlink:title=" ">
<polygon fill="none" stroke="red" points="3767.5,-140 3767.5,-159 3915.5,-159 3915.5,-140 3767.5,-140"/>
<text text-anchor="middle" x="3841.5" y="-147" font-family="FreeSans.ttf" font-size="10.00">DummyImplementations.h</text>
</a>
</g>
</g>
<!-- Node2&#45;&gt;Node77 -->
<g id="edge64" class="edge">
<title>Node2&#45;&gt;Node77</title>
<path fill="none" stroke="midnightblue" d="M2855.8,-209.88C2983.96,-209.13 3409.46,-203.68 3758.5,-165 3771.59,-163.55 3785.73,-161.33 3798.57,-159.05"/>
<polygon fill="midnightblue" stroke="midnightblue" points="2855.68,-206.38 2845.7,-209.94 2855.72,-213.38 2855.68,-206.38"/>
</g>
<!-- Node85 -->
<g id="node46" class="node">
<title>Node85</title>
<g id="a_node46"><a xlink:href="JetsVisualization_8cpp.html" target="_top" xlink:title=" ">
<polygon fill="none" stroke="black" points="3933.5,-140 3933.5,-159 4051.5,-159 4051.5,-140 3933.5,-140"/>
<text text-anchor="middle" x="3992.5" y="-147" font-family="FreeSans.ttf" font-size="10.00">JetsVisualization.cpp</text>
</a>
</g>
</g>
<!-- Node2&#45;&gt;Node85 -->
<g id="edge65" class="edge">
<title>Node2&#45;&gt;Node85</title>
<path fill="none" stroke="midnightblue" d="M2855.72,-209.32C3025.34,-206.15 3711.05,-191.9 3924.5,-165 3935.52,-163.61 3947.4,-161.35 3958.1,-159.02"/>
<polygon fill="midnightblue" stroke="midnightblue" points="2855.46,-205.82 2845.53,-209.5 2855.59,-212.82 2855.46,-205.82"/>
</g>
<!-- Node86 -->
<g id="node47" class="node">
<title>Node86</title>
<g id="a_node47"><a xlink:href="ModelVisualization_8cpp.html" target="_top" xlink:title=" ">
<polygon fill="none" stroke="black" points="4069.5,-140 4069.5,-159 4199.5,-159 4199.5,-140 4069.5,-140"/>
<text text-anchor="middle" x="4134.5" y="-147" font-family="FreeSans.ttf" font-size="10.00">ModelVisualization.cpp</text>
</a>
</g>
</g>
<!-- Node2&#45;&gt;Node86 -->
<g id="edge66" class="edge">
<title>Node2&#45;&gt;Node86</title>
<path fill="none" stroke="midnightblue" d="M2855.91,-209.42C3038.35,-206.56 3818.62,-192.9 4060.5,-165 4072.46,-163.62 4085.39,-161.36 4097.03,-159.03"/>
<polygon fill="midnightblue" stroke="midnightblue" points="2855.67,-205.93 2845.73,-209.58 2855.78,-212.93 2855.67,-205.93"/>
</g>
<!-- Node3&#45;&gt;Node4 -->
<g id="edge3" class="edge">
<title>Node3&#45;&gt;Node4</title>
<path fill="none" stroke="midnightblue" d="M3772.39,-60.88C3760.84,-51.01 3747.31,-39.43 3736.96,-30.58"/>
<polygon fill="midnightblue" stroke="midnightblue" points="3770.13,-63.56 3780.01,-67.4 3774.68,-58.24 3770.13,-63.56"/>
</g>
<!-- Node6 -->
<g id="node6" class="node">
<title>Node6</title>
<g id="a_node6"><a xlink:href="GravityCompensationHelpers_8cpp.html" target="_top" xlink:title=" ">
<polygon fill="none" stroke="black" points="0,-73 0,-92 181,-92 181,-73 0,-73"/>
<text text-anchor="middle" x="90.5" y="-80" font-family="FreeSans.ttf" font-size="10.00">GravityCompensationHelpers.cpp</text>
</a>
</g>
</g>
<!-- Node5&#45;&gt;Node6 -->
<g id="edge5" class="edge">
<title>Node5&#45;&gt;Node6</title>
<path fill="none" stroke="midnightblue" d="M90.5,-129.54C90.5,-117.17 90.5,-101.62 90.5,-92.13"/>
<polygon fill="midnightblue" stroke="midnightblue" points="87,-129.73 90.5,-139.73 94,-129.73 87,-129.73"/>
</g>
<!-- Node39&#45;&gt;Node37 -->
<g id="edge32" class="edge">
<title>Node39&#45;&gt;Node37</title>
<path fill="none" stroke="midnightblue" d="M439.5,-62.54C439.5,-50.17 439.5,-34.62 439.5,-25.13"/>
<polygon fill="midnightblue" stroke="midnightblue" points="436,-62.73 439.5,-72.73 443,-62.73 436,-62.73"/>
</g>
<!-- Node43&#45;&gt;Node4 -->
<g id="edge34" class="edge">
<title>Node43&#45;&gt;Node4</title>
<path fill="none" stroke="midnightblue" d="M3170.7,-75.63C3195.09,-72.99 3224.24,-69.83 3250.5,-67 3387.99,-52.18 3548.1,-34.99 3641.5,-24.97"/>
<polygon fill="midnightblue" stroke="midnightblue" points="3170.12,-72.17 3160.56,-76.72 3170.88,-79.13 3170.12,-72.17"/>
</g>
<!-- Node43&#45;&gt;Node11 -->
<g id="edge35" class="edge">
<title>Node43&#45;&gt;Node11</title>
<path fill="none" stroke="midnightblue" d="M3170.56,-71.79C3241.21,-59.11 3363.84,-37.09 3431.06,-25.02"/>
<polygon fill="midnightblue" stroke="midnightblue" points="3169.75,-68.38 3160.53,-73.59 3170.99,-75.27 3169.75,-68.38"/>
</g>
<!-- Node43&#45;&gt;Node44 -->
<g id="edge36" class="edge">
<title>Node43&#45;&gt;Node44</title>
<path fill="none" stroke="midnightblue" d="M3133.83,-65.86C3147.98,-53.08 3167.46,-35.49 3178.94,-25.13"/>
<polygon fill="midnightblue" stroke="midnightblue" points="3131.29,-63.43 3126.21,-72.73 3135.98,-68.63 3131.29,-63.43"/>
</g>
<!-- Node43&#45;&gt;Node47 -->
<g id="edge37" class="edge">
<title>Node43&#45;&gt;Node47</title>
<path fill="none" stroke="midnightblue" d="M3077.73,-70.6C3071.35,-69.16 3064.77,-67.88 3058.5,-67 2760.03,-25.35 1803.82,-17.96 1555.09,-16.73"/>
<polygon fill="midnightblue" stroke="midnightblue" points="3076.99,-74.02 3087.53,-72.97 3078.63,-67.22 3076.99,-74.02"/>
</g>
<!-- Node43&#45;&gt;Node48 -->
<g id="edge38" class="edge">
<title>Node43&#45;&gt;Node48</title>
<path fill="none" stroke="midnightblue" d="M3074.95,-70.59C3069.44,-69.3 3063.85,-68.06 3058.5,-67 2963.72,-48.2 2852.88,-33.07 2783.68,-24.44"/>
<polygon fill="midnightblue" stroke="midnightblue" points="3074.17,-74 3084.72,-72.96 3075.82,-67.2 3074.17,-74"/>
</g>
<!-- Node43&#45;&gt;Node49 -->
<g id="edge39" class="edge">
<title>Node43&#45;&gt;Node49</title>
<path fill="none" stroke="midnightblue" d="M3090.66,-68.27C3065.5,-55.4 3028.01,-36.21 3006.43,-25.17"/>
<polygon fill="midnightblue" stroke="midnightblue" points="3089.14,-71.43 3099.64,-72.87 3092.33,-65.2 3089.14,-71.43"/>
</g>
<!-- Node50&#45;&gt;Node52 -->
<g id="edge41" class="edge">
<title>Node50&#45;&gt;Node52</title>
<path fill="none" stroke="midnightblue" d="M4368.42,-134.62C4390.61,-121.74 4422.94,-102.98 4441.63,-92.13"/>
<polygon fill="midnightblue" stroke="midnightblue" points="4366.5,-131.69 4359.6,-139.73 4370.01,-137.74 4366.5,-131.69"/>
</g>
<!-- Node54&#45;&gt;Node3 -->
<g id="edge48" class="edge">
<title>Node54&#45;&gt;Node3</title>
<path fill="none" stroke="midnightblue" d="M3279.88,-143.15C3302.1,-140.36 3329.76,-136.94 3354.5,-134 3494.86,-117.31 3530.06,-114.08 3670.5,-98 3685.59,-96.27 3701.71,-94.42 3717.19,-92.64"/>
<polygon fill="midnightblue" stroke="midnightblue" points="3279.26,-139.7 3269.77,-144.41 3280.13,-146.64 3279.26,-139.7"/>
</g>
<!-- Node54&#45;&gt;Node4 -->
<g id="edge51" class="edge">
<title>Node54&#45;&gt;Node4</title>
<path fill="none" stroke="midnightblue" d="M3242.48,-130.12C3248.7,-110.96 3261.33,-81.72 3283.5,-67 3298.19,-57.25 3519.28,-35.27 3641.2,-23.79"/>
<polygon fill="midnightblue" stroke="midnightblue" points="3239.09,-129.22 3239.59,-139.81 3245.8,-131.22 3239.09,-129.22"/>
</g>
<!-- Node54&#45;&gt;Node9 -->
<g id="edge49" class="edge">
<title>Node54&#45;&gt;Node9</title>
<path fill="none" stroke="midnightblue" d="M3194.93,-144.95C3120.43,-138.36 2961.75,-122.62 2829.5,-98 2820.72,-96.37 2811.3,-94.19 2802.65,-92.03"/>
<polygon fill="midnightblue" stroke="midnightblue" points="3195.03,-148.47 3205.29,-145.86 3195.64,-141.5 3195.03,-148.47"/>
</g>
<!-- Node54&#45;&gt;Node10 -->
<g id="edge50" class="edge">
<title>Node54&#45;&gt;Node10</title>
<path fill="none" stroke="midnightblue" d="M3195.65,-139.72C3135.96,-127.21 3027.09,-104.38 2968.1,-92.01"/>
<polygon fill="midnightblue" stroke="midnightblue" points="3194.99,-143.16 3205.49,-141.79 3196.42,-136.31 3194.99,-143.16"/>
</g>
<!-- Node54&#45;&gt;Node37 -->
<g id="edge52" class="edge">
<title>Node54&#45;&gt;Node37</title>
<path fill="none" stroke="midnightblue" d="M3194.98,-141.14C3158.6,-133.69 3105.58,-120.09 3063.5,-98 3044.2,-87.87 3045.96,-74.51 3025.5,-67 2995.12,-55.84 920.72,-23.8 509.79,-17.56"/>
<polygon fill="midnightblue" stroke="midnightblue" points="3194.76,-144.66 3205.25,-143.16 3196.11,-137.79 3194.76,-144.66"/>
</g>
<!-- Node54&#45;&gt;Node39 -->
<g id="edge53" class="edge">
<title>Node54&#45;&gt;Node39</title>
<path fill="none" stroke="midnightblue" d="M3195.18,-145.77C3142.21,-142.47 3048.68,-136.96 2968.5,-134 1967.92,-97.05 743.59,-85.86 487.73,-83.85"/>
<polygon fill="midnightblue" stroke="midnightblue" points="3195.02,-149.27 3205.22,-146.41 3195.46,-142.28 3195.02,-149.27"/>
</g>
<!-- Node54&#45;&gt;Node43 -->
<g id="edge54" class="edge">
<title>Node54&#45;&gt;Node43</title>
<path fill="none" stroke="midnightblue" d="M3212.29,-134.96C3188.3,-122.07 3152.94,-103.07 3132.56,-92.13"/>
<polygon fill="midnightblue" stroke="midnightblue" points="3210.72,-138.08 3221.18,-139.73 3214.03,-131.92 3210.72,-138.08"/>
</g>
<!-- Node54&#45;&gt;Node44 -->
<g id="edge55" class="edge">
<title>Node54&#45;&gt;Node44</title>
<path fill="none" stroke="midnightblue" d="M3230.69,-130.16C3219.95,-101.23 3199.5,-46.13 3191.66,-25.02"/>
<polygon fill="midnightblue" stroke="midnightblue" points="3227.52,-131.68 3234.28,-139.84 3234.09,-129.25 3227.52,-131.68"/>
</g>
<!-- Node54&#45;&gt;Node53 -->
<g id="edge56" class="edge">
<title>Node54&#45;&gt;Node53</title>
<path fill="none" stroke="midnightblue" d="M3279.82,-142.53C3302.01,-139.58 3329.68,-136.19 3354.5,-134 3697.11,-103.74 4110.66,-89.37 4255.4,-85"/>
<polygon fill="midnightblue" stroke="midnightblue" points="3279.16,-139.08 3269.71,-143.89 3280.09,-146.02 3279.16,-139.08"/>
</g>
<!-- Node54&#45;&gt;Node69 -->
<g id="edge57" class="edge">
<title>Node54&#45;&gt;Node69</title>
<path fill="none" stroke="midnightblue" d="M3265.06,-135.61C3292.59,-122.74 3334.15,-103.31 3357.97,-92.17"/>
<polygon fill="midnightblue" stroke="midnightblue" points="3263.53,-132.46 3255.96,-139.87 3266.5,-138.8 3263.53,-132.46"/>
</g>
<!-- Node54&#45;&gt;Node64 -->
<g id="edge58" class="edge">
<title>Node54&#45;&gt;Node64</title>
<path fill="none" stroke="midnightblue" d="M3279.79,-140.24C3343.24,-127.86 3462.48,-104.59 3526.76,-92.04"/>
<polygon fill="midnightblue" stroke="midnightblue" points="3278.88,-136.86 3269.73,-142.21 3280.22,-143.73 3278.88,-136.86"/>
</g>
<!-- Node88&#45;&gt;Node52 -->
<g id="edge69" class="edge">
<title>Node88&#45;&gt;Node52</title>
<path fill="none" stroke="midnightblue" d="M4456.5,-129.54C4456.5,-117.17 4456.5,-101.62 4456.5,-92.13"/>
<polygon fill="midnightblue" stroke="midnightblue" points="4453,-129.73 4456.5,-139.73 4460,-129.73 4453,-129.73"/>
</g>
<!-- Node88&#45;&gt;Node53 -->
<g id="edge70" class="edge">
<title>Node88&#45;&gt;Node53</title>
<path fill="none" stroke="midnightblue" d="M4427.54,-135.78C4398.23,-122.91 4353.71,-103.35 4328.23,-92.17"/>
<polygon fill="midnightblue" stroke="midnightblue" points="4426.28,-139.05 4436.85,-139.87 4429.1,-132.64 4426.28,-139.05"/>
</g>
</g>
</svg>
