<?xml version="1.0" encoding="UTF-8" standalone="no"?>
<!DOCTYPE svg PUBLIC "-//W3C//DTD SVG 1.1//EN"
 "http://www.w3.org/Graphics/SVG/1.1/DTD/svg11.dtd">
<!-- Generated by graphviz version 2.43.0 (0)
 -->
<!-- Title: MaterialElement.cpp Pages: 1 -->
<svg width="1351pt" height="532pt"
 viewBox="0.00 0.00 1350.74 532.00" xmlns="http://www.w3.org/2000/svg" xmlns:xlink="http://www.w3.org/1999/xlink">
<g id="graph0" class="graph" transform="scale(1 1) rotate(0) translate(4 528)">
<title>MaterialElement.cpp</title>
<!-- Node1 -->
<g id="node1" class="node">
<title>Node1</title>
<g id="a_node1"><a xlink:title=" ">
<polygon fill="#bfbfbf" stroke="black" points="238,-504.5 238,-523.5 356,-523.5 356,-504.5 238,-504.5"/>
<text text-anchor="middle" x="297" y="-511.5" font-family="FreeSans.ttf" font-size="10.00">MaterialElement.cpp</text>
</a>
</g>
</g>
<!-- Node2 -->
<g id="node2" class="node">
<title>Node2</title>
<g id="a_node2"><a xlink:href="MaterialElement_8h.html" target="_top" xlink:title=" ">
<polygon fill="none" stroke="black" points="157.5,-224.5 157.5,-243.5 264.5,-243.5 264.5,-224.5 157.5,-224.5"/>
<text text-anchor="middle" x="211" y="-231.5" font-family="FreeSans.ttf" font-size="10.00">MaterialElement.h</text>
</a>
</g>
</g>
<!-- Node1&#45;&gt;Node2 -->
<g id="edge1" class="edge">
<title>Node1&#45;&gt;Node2</title>
<path fill="none" stroke="midnightblue" d="M280.11,-504.42C266.26,-496.62 247.05,-483.9 235,-468 216.4,-443.45 211,-433.8 211,-403 211,-403 211,-403 211,-345 211,-312.95 211,-275.64 211,-253.75"/>
<polygon fill="midnightblue" stroke="midnightblue" points="214.5,-253.56 211,-243.56 207.5,-253.56 214.5,-253.56"/>
</g>
<!-- Node10 -->
<g id="node10" class="node">
<title>Node10</title>
<g id="a_node10"><a xlink:href="Utils_8h.html" target="_top" xlink:title=" ">
<polygon fill="none" stroke="black" points="659.5,-56.5 659.5,-75.5 778.5,-75.5 778.5,-56.5 659.5,-56.5"/>
<text text-anchor="middle" x="719" y="-63.5" font-family="FreeSans.ttf" font-size="10.00">iDynTree/Core/Utils.h</text>
</a>
</g>
</g>
<!-- Node1&#45;&gt;Node10 -->
<g id="edge67" class="edge">
<title>Node1&#45;&gt;Node10</title>
<path fill="none" stroke="midnightblue" d="M292.46,-504.21C279.47,-477.82 244.58,-397.39 268,-336 303.68,-242.48 343.17,-234.48 418,-168 450.45,-139.18 458.12,-129.13 498,-112 546.23,-91.28 604.55,-79.92 649.17,-73.8"/>
<polygon fill="midnightblue" stroke="midnightblue" points="649.87,-77.24 659.33,-72.46 648.96,-70.3 649.87,-77.24"/>
</g>
<!-- Node24 -->
<g id="node24" class="node">
<title>Node24</title>
<g id="a_node24"><a xlink:href="URDFParsingUtils_8h.html" target="_top" xlink:title=" ">
<polygon fill="none" stroke="black" points="567.5,-448.5 567.5,-467.5 678.5,-467.5 678.5,-448.5 567.5,-448.5"/>
<text text-anchor="middle" x="623" y="-455.5" font-family="FreeSans.ttf" font-size="10.00">URDFParsingUtils.h</text>
</a>
</g>
</g>
<!-- Node1&#45;&gt;Node24 -->
<g id="edge29" class="edge">
<title>Node1&#45;&gt;Node24</title>
<path fill="none" stroke="midnightblue" d="M348.66,-504.44C406.48,-494.87 500.11,-479.36 561.62,-469.17"/>
<polygon fill="midnightblue" stroke="midnightblue" points="562.29,-472.6 571.59,-467.52 561.15,-465.7 562.29,-472.6"/>
</g>
<!-- Node37 -->
<g id="node37" class="node">
<title>Node37</title>
<g id="a_node37"><a xlink:href="XMLAttribute_8h.html" target="_top" xlink:title=" ">
<polygon fill="none" stroke="black" points="277,-336.5 277,-355.5 413,-355.5 413,-336.5 277,-336.5"/>
<text text-anchor="middle" x="345" y="-343.5" font-family="FreeSans.ttf" font-size="10.00">iDynTree/XMLAttribute.h</text>
</a>
</g>
</g>
<!-- Node1&#45;&gt;Node37 -->
<g id="edge65" class="edge">
<title>Node1&#45;&gt;Node37</title>
<path fill="none" stroke="midnightblue" d="M299.58,-504.08C307.14,-477.95 329.32,-401.21 339.63,-365.58"/>
<polygon fill="midnightblue" stroke="midnightblue" points="343.11,-366.15 342.52,-355.57 336.38,-364.2 343.11,-366.15"/>
</g>
<!-- Node3 -->
<g id="node3" class="node">
<title>Node3</title>
<g id="a_node3"><a xlink:href="XMLElement_8h.html" target="_top" xlink:title=" ">
<polygon fill="none" stroke="black" points="139.5,-168.5 139.5,-187.5 272.5,-187.5 272.5,-168.5 139.5,-168.5"/>
<text text-anchor="middle" x="206" y="-175.5" font-family="FreeSans.ttf" font-size="10.00">iDynTree/XMLElement.h</text>
</a>
</g>
</g>
<!-- Node2&#45;&gt;Node3 -->
<g id="edge2" class="edge">
<title>Node2&#45;&gt;Node3</title>
<path fill="none" stroke="midnightblue" d="M210.17,-224.08C209.52,-217.01 208.58,-206.86 207.76,-197.99"/>
<polygon fill="midnightblue" stroke="midnightblue" points="211.22,-197.39 206.81,-187.75 204.25,-198.03 211.22,-197.39"/>
</g>
<!-- Node5 -->
<g id="node5" class="node">
<title>Node5</title>
<g id="a_node5"><a xlink:title=" ">
<polygon fill="none" stroke="#bfbfbf" points="0,-112.5 0,-131.5 58,-131.5 58,-112.5 0,-112.5"/>
<text text-anchor="middle" x="29" y="-119.5" font-family="FreeSans.ttf" font-size="10.00">memory</text>
</a>
</g>
</g>
<!-- Node2&#45;&gt;Node5 -->
<g id="edge27" class="edge">
<title>Node2&#45;&gt;Node5</title>
<path fill="none" stroke="midnightblue" d="M194.69,-224.34C178.2,-215.49 152.08,-201.22 130,-188 102.07,-171.28 70.65,-150.78 50.38,-137.33"/>
<polygon fill="midnightblue" stroke="midnightblue" points="52.17,-134.32 41.9,-131.69 48.29,-140.14 52.17,-134.32"/>
</g>
<!-- Node6 -->
<g id="node6" class="node">
<title>Node6</title>
<g id="a_node6"><a xlink:title=" ">
<polygon fill="none" stroke="#bfbfbf" points="507,-112.5 507,-131.5 551,-131.5 551,-112.5 507,-112.5"/>
<text text-anchor="middle" x="529" y="-119.5" font-family="FreeSans.ttf" font-size="10.00">string</text>
</a>
</g>
</g>
<!-- Node2&#45;&gt;Node6 -->
<g id="edge28" class="edge">
<title>Node2&#45;&gt;Node6</title>
<path fill="none" stroke="midnightblue" d="M235.69,-224.46C292.76,-204.72 433.77,-155.94 497.2,-134"/>
<polygon fill="midnightblue" stroke="midnightblue" points="498.38,-137.3 506.68,-130.72 496.09,-130.68 498.38,-137.3"/>
</g>
<!-- Node9 -->
<g id="node9" class="node">
<title>Node9</title>
<g id="a_node9"><a xlink:href="VectorFixSize_8h.html" target="_top" xlink:title=" ">
<polygon fill="none" stroke="black" points="807,-168.5 807,-187.5 969,-187.5 969,-168.5 807,-168.5"/>
<text text-anchor="middle" x="888" y="-175.5" font-family="FreeSans.ttf" font-size="10.00">iDynTree/Core/VectorFixSize.h</text>
</a>
</g>
</g>
<!-- Node2&#45;&gt;Node9 -->
<g id="edge8" class="edge">
<title>Node2&#45;&gt;Node9</title>
<path fill="none" stroke="midnightblue" d="M264.69,-228.72C380.21,-219.5 653.48,-197.71 796.75,-186.28"/>
<polygon fill="midnightblue" stroke="midnightblue" points="797.14,-189.76 806.83,-185.47 796.59,-182.78 797.14,-189.76"/>
</g>
<!-- Node4 -->
<g id="node4" class="node">
<title>Node4</title>
<g id="a_node4"><a xlink:title=" ">
<polygon fill="none" stroke="#bfbfbf" points="76.5,-112.5 76.5,-131.5 141.5,-131.5 141.5,-112.5 76.5,-112.5"/>
<text text-anchor="middle" x="109" y="-119.5" font-family="FreeSans.ttf" font-size="10.00">functional</text>
</a>
</g>
</g>
<!-- Node3&#45;&gt;Node4 -->
<g id="edge3" class="edge">
<title>Node3&#45;&gt;Node4</title>
<path fill="none" stroke="midnightblue" d="M190.42,-168.32C175,-159.74 151.19,-146.49 133.29,-136.52"/>
<polygon fill="midnightblue" stroke="midnightblue" points="134.99,-133.46 124.55,-131.65 131.58,-139.58 134.99,-133.46"/>
</g>
<!-- Node3&#45;&gt;Node5 -->
<g id="edge4" class="edge">
<title>Node3&#45;&gt;Node5</title>
<path fill="none" stroke="midnightblue" d="M177.95,-168.44C147.92,-159.28 100.09,-144.69 66.76,-134.52"/>
<polygon fill="midnightblue" stroke="midnightblue" points="67.5,-131.09 56.91,-131.52 65.46,-137.78 67.5,-131.09"/>
</g>
<!-- Node3&#45;&gt;Node6 -->
<g id="edge5" class="edge">
<title>Node3&#45;&gt;Node6</title>
<path fill="none" stroke="midnightblue" d="M257.18,-168.44C324.36,-157.21 440.33,-137.82 496.56,-128.42"/>
<polygon fill="midnightblue" stroke="midnightblue" points="497.37,-131.84 506.65,-126.74 496.21,-124.93 497.37,-131.84"/>
</g>
<!-- Node7 -->
<g id="node7" class="node">
<title>Node7</title>
<g id="a_node7"><a xlink:title=" ">
<polygon fill="none" stroke="#bfbfbf" points="159.5,-112.5 159.5,-131.5 252.5,-131.5 252.5,-112.5 159.5,-112.5"/>
<text text-anchor="middle" x="206" y="-119.5" font-family="FreeSans.ttf" font-size="10.00">unordered_map</text>
</a>
</g>
</g>
<!-- Node3&#45;&gt;Node7 -->
<g id="edge6" class="edge">
<title>Node3&#45;&gt;Node7</title>
<path fill="none" stroke="midnightblue" d="M206,-168.08C206,-161.01 206,-150.86 206,-141.99"/>
<polygon fill="midnightblue" stroke="midnightblue" points="209.5,-141.75 206,-131.75 202.5,-141.75 209.5,-141.75"/>
</g>
<!-- Node8 -->
<g id="node8" class="node">
<title>Node8</title>
<g id="a_node8"><a xlink:title=" ">
<polygon fill="none" stroke="#bfbfbf" points="270.5,-112.5 270.5,-131.5 317.5,-131.5 317.5,-112.5 270.5,-112.5"/>
<text text-anchor="middle" x="294" y="-119.5" font-family="FreeSans.ttf" font-size="10.00">vector</text>
</a>
</g>
</g>
<!-- Node3&#45;&gt;Node8 -->
<g id="edge7" class="edge">
<title>Node3&#45;&gt;Node8</title>
<path fill="none" stroke="midnightblue" d="M220.14,-168.32C233.87,-159.9 254.94,-146.97 271.06,-137.07"/>
<polygon fill="midnightblue" stroke="midnightblue" points="273.2,-139.87 279.9,-131.65 269.54,-133.9 273.2,-139.87"/>
</g>
<!-- Node9&#45;&gt;Node6 -->
<g id="edge22" class="edge">
<title>Node9&#45;&gt;Node6</title>
<path fill="none" stroke="midnightblue" d="M831.12,-168.44C755.02,-157 622.6,-137.08 561.55,-127.9"/>
<polygon fill="midnightblue" stroke="midnightblue" points="561.76,-124.39 551.35,-126.36 560.71,-131.31 561.76,-124.39"/>
</g>
<!-- Node9&#45;&gt;Node10 -->
<g id="edge9" class="edge">
<title>Node9&#45;&gt;Node10</title>
<path fill="none" stroke="midnightblue" d="M865.84,-168.38C846.21,-160.29 817.15,-147.18 794,-132 771.87,-117.49 749.3,-97 734.79,-82.93"/>
<polygon fill="midnightblue" stroke="midnightblue" points="737.18,-80.37 727.6,-75.84 732.27,-85.36 737.18,-80.37"/>
</g>
<!-- Node11 -->
<g id="node11" class="node">
<title>Node11</title>
<g id="a_node11"><a xlink:title=" ">
<polygon fill="none" stroke="#bfbfbf" points="689.5,-0.5 689.5,-19.5 742.5,-19.5 742.5,-0.5 689.5,-0.5"/>
<text text-anchor="middle" x="716" y="-7.5" font-family="FreeSans.ttf" font-size="10.00">cstddef</text>
</a>
</g>
</g>
<!-- Node9&#45;&gt;Node11 -->
<g id="edge25" class="edge">
<title>Node9&#45;&gt;Node11</title>
<path fill="none" stroke="midnightblue" d="M882.27,-168.28C868.11,-147.18 829.61,-92.45 788,-56 773.99,-43.73 756.28,-32.61 741.92,-24.5"/>
<polygon fill="midnightblue" stroke="midnightblue" points="743.5,-21.37 733.05,-19.62 740.12,-27.5 743.5,-21.37"/>
</g>
<!-- Node13 -->
<g id="node13" class="node">
<title>Node13</title>
<g id="a_node13"><a xlink:href="Span_8h.html" target="_top" xlink:title=" ">
<polygon fill="none" stroke="black" points="935.5,-56.5 935.5,-75.5 1056.5,-75.5 1056.5,-56.5 935.5,-56.5"/>
<text text-anchor="middle" x="996" y="-63.5" font-family="FreeSans.ttf" font-size="10.00">iDynTree/Core/Span.h</text>
</a>
</g>
</g>
<!-- Node9&#45;&gt;Node13 -->
<g id="edge12" class="edge">
<title>Node9&#45;&gt;Node13</title>
<path fill="none" stroke="midnightblue" d="M880.4,-168.27C869.85,-155.06 853.42,-129.66 866,-112 879.88,-92.51 902.81,-81.38 925.57,-75.06"/>
<polygon fill="midnightblue" stroke="midnightblue" points="926.44,-78.45 935.29,-72.63 924.74,-71.66 926.44,-78.45"/>
</g>
<!-- Node14 -->
<g id="node14" class="node">
<title>Node14</title>
<g id="a_node14"><a xlink:title=" ">
<polygon fill="none" stroke="#bfbfbf" points="1271,-0.5 1271,-19.5 1323,-19.5 1323,-0.5 1271,-0.5"/>
<text text-anchor="middle" x="1297" y="-7.5" font-family="FreeSans.ttf" font-size="10.00">cassert</text>
</a>
</g>
</g>
<!-- Node9&#45;&gt;Node14 -->
<g id="edge24" class="edge">
<title>Node9&#45;&gt;Node14</title>
<path fill="none" stroke="midnightblue" d="M957.87,-168.47C1021.35,-160.03 1109.84,-146.33 1142,-132 1200.22,-106.07 1255.95,-53.61 1281.87,-27.1"/>
<polygon fill="midnightblue" stroke="midnightblue" points="1284.51,-29.4 1288.92,-19.77 1279.47,-24.55 1284.51,-29.4"/>
</g>
<!-- Node22 -->
<g id="node22" class="node">
<title>Node22</title>
<g id="a_node22"><a xlink:title=" ">
<polygon fill="none" stroke="#bfbfbf" points="1189,-112.5 1189,-131.5 1245,-131.5 1245,-112.5 1189,-112.5"/>
<text text-anchor="middle" x="1217" y="-119.5" font-family="FreeSans.ttf" font-size="10.00">sstream</text>
</a>
</g>
</g>
<!-- Node9&#45;&gt;Node22 -->
<g id="edge23" class="edge">
<title>Node9&#45;&gt;Node22</title>
<path fill="none" stroke="midnightblue" d="M948.64,-168.49C1006.84,-160.09 1097.14,-146.43 1175,-132 1176.24,-131.77 1177.49,-131.53 1178.76,-131.29"/>
<polygon fill="midnightblue" stroke="midnightblue" points="1179.46,-134.72 1188.58,-129.31 1178.08,-127.85 1179.46,-134.72"/>
</g>
<!-- Node23 -->
<g id="node23" class="node">
<title>Node23</title>
<g id="a_node23"><a xlink:title=" ">
<polygon fill="none" stroke="#bfbfbf" points="875,-112.5 875,-131.5 925,-131.5 925,-112.5 875,-112.5"/>
<text text-anchor="middle" x="900" y="-119.5" font-family="FreeSans.ttf" font-size="10.00">cstring</text>
</a>
</g>
</g>
<!-- Node9&#45;&gt;Node23 -->
<g id="edge26" class="edge">
<title>Node9&#45;&gt;Node23</title>
<path fill="none" stroke="midnightblue" d="M889.98,-168.08C891.57,-160.93 893.86,-150.64 895.85,-141.69"/>
<polygon fill="midnightblue" stroke="midnightblue" points="899.3,-142.27 898.06,-131.75 892.47,-140.75 899.3,-142.27"/>
</g>
<!-- Node10&#45;&gt;Node11 -->
<g id="edge10" class="edge">
<title>Node10&#45;&gt;Node11</title>
<path fill="none" stroke="midnightblue" d="M718.5,-56.08C718.11,-49.01 717.55,-38.86 717.05,-29.99"/>
<polygon fill="midnightblue" stroke="midnightblue" points="720.54,-29.54 716.49,-19.75 713.55,-29.93 720.54,-29.54"/>
</g>
<!-- Node12 -->
<g id="node12" class="node">
<title>Node12</title>
<g id="a_node12"><a xlink:title=" ">
<polygon fill="none" stroke="#bfbfbf" points="591,-0.5 591,-19.5 671,-19.5 671,-0.5 591,-0.5"/>
<text text-anchor="middle" x="631" y="-7.5" font-family="FreeSans.ttf" font-size="10.00">CoreExport.h</text>
</a>
</g>
</g>
<!-- Node10&#45;&gt;Node12 -->
<g id="edge11" class="edge">
<title>Node10&#45;&gt;Node12</title>
<path fill="none" stroke="midnightblue" d="M704.86,-56.32C691.13,-47.9 670.06,-34.97 653.94,-25.07"/>
<polygon fill="midnightblue" stroke="midnightblue" points="655.46,-21.9 645.1,-19.65 651.8,-27.87 655.46,-21.9"/>
</g>
<!-- Node13&#45;&gt;Node11 -->
<g id="edge16" class="edge">
<title>Node13&#45;&gt;Node11</title>
<path fill="none" stroke="midnightblue" d="M944.4,-56.45C897.11,-48.4 824.94,-35.56 752.86,-20.07"/>
<polygon fill="midnightblue" stroke="midnightblue" points="753.21,-16.57 742.69,-17.87 751.73,-23.41 753.21,-16.57"/>
</g>
<!-- Node13&#45;&gt;Node14 -->
<g id="edge13" class="edge">
<title>Node13&#45;&gt;Node14</title>
<path fill="none" stroke="midnightblue" d="M1054.91,-56.49C1106.77,-48.67 1184.52,-36.14 1260.89,-20.1"/>
<polygon fill="midnightblue" stroke="midnightblue" points="1261.63,-23.52 1270.68,-18.02 1260.17,-16.67 1261.63,-23.52"/>
</g>
<!-- Node15 -->
<g id="node15" class="node">
<title>Node15</title>
<g id="a_node15"><a xlink:title=" ">
<polygon fill="none" stroke="#bfbfbf" points="761,-0.5 761,-19.5 825,-19.5 825,-0.5 761,-0.5"/>
<text text-anchor="middle" x="793" y="-7.5" font-family="FreeSans.ttf" font-size="10.00">algorithm</text>
</a>
</g>
</g>
<!-- Node13&#45;&gt;Node15 -->
<g id="edge14" class="edge">
<title>Node13&#45;&gt;Node15</title>
<path fill="none" stroke="midnightblue" d="M963.83,-56.44C928.94,-47.16 873.11,-32.31 834.83,-22.13"/>
<polygon fill="midnightblue" stroke="midnightblue" points="835.58,-18.7 825.02,-19.52 833.78,-25.47 835.58,-18.7"/>
</g>
<!-- Node16 -->
<g id="node16" class="node">
<title>Node16</title>
<g id="a_node16"><a xlink:title=" ">
<polygon fill="none" stroke="#bfbfbf" points="843,-0.5 843,-19.5 885,-19.5 885,-0.5 843,-0.5"/>
<text text-anchor="middle" x="864" y="-7.5" font-family="FreeSans.ttf" font-size="10.00">array</text>
</a>
</g>
</g>
<!-- Node13&#45;&gt;Node16 -->
<g id="edge15" class="edge">
<title>Node13&#45;&gt;Node16</title>
<path fill="none" stroke="midnightblue" d="M975.08,-56.44C953.26,-47.52 918.85,-33.44 894.11,-23.32"/>
<polygon fill="midnightblue" stroke="midnightblue" points="895.4,-20.06 884.82,-19.52 892.75,-26.54 895.4,-20.06"/>
</g>
<!-- Node17 -->
<g id="node17" class="node">
<title>Node17</title>
<g id="a_node17"><a xlink:title=" ">
<polygon fill="none" stroke="#bfbfbf" points="903.5,-0.5 903.5,-19.5 956.5,-19.5 956.5,-0.5 903.5,-0.5"/>
<text text-anchor="middle" x="930" y="-7.5" font-family="FreeSans.ttf" font-size="10.00">iterator</text>
</a>
</g>
</g>
<!-- Node13&#45;&gt;Node17 -->
<g id="edge17" class="edge">
<title>Node13&#45;&gt;Node17</title>
<path fill="none" stroke="midnightblue" d="M985.4,-56.32C975.54,-48.26 960.65,-36.08 948.78,-26.37"/>
<polygon fill="midnightblue" stroke="midnightblue" points="950.75,-23.46 940.8,-19.83 946.32,-28.88 950.75,-23.46"/>
</g>
<!-- Node18 -->
<g id="node18" class="node">
<title>Node18</title>
<g id="a_node18"><a xlink:title=" ">
<polygon fill="none" stroke="#bfbfbf" points="975,-0.5 975,-19.5 1019,-19.5 1019,-0.5 975,-0.5"/>
<text text-anchor="middle" x="997" y="-7.5" font-family="FreeSans.ttf" font-size="10.00">limits</text>
</a>
</g>
</g>
<!-- Node13&#45;&gt;Node18 -->
<g id="edge18" class="edge">
<title>Node13&#45;&gt;Node18</title>
<path fill="none" stroke="midnightblue" d="M996.17,-56.08C996.3,-49.01 996.48,-38.86 996.65,-29.99"/>
<polygon fill="midnightblue" stroke="midnightblue" points="1000.15,-29.81 996.84,-19.75 993.15,-29.68 1000.15,-29.81"/>
</g>
<!-- Node19 -->
<g id="node19" class="node">
<title>Node19</title>
<g id="a_node19"><a xlink:title=" ">
<polygon fill="none" stroke="#bfbfbf" points="1037.5,-0.5 1037.5,-19.5 1102.5,-19.5 1102.5,-0.5 1037.5,-0.5"/>
<text text-anchor="middle" x="1070" y="-7.5" font-family="FreeSans.ttf" font-size="10.00">stdexcept</text>
</a>
</g>
</g>
<!-- Node13&#45;&gt;Node19 -->
<g id="edge19" class="edge">
<title>Node13&#45;&gt;Node19</title>
<path fill="none" stroke="midnightblue" d="M1007.89,-56.32C1019.15,-48.11 1036.29,-35.6 1049.71,-25.81"/>
<polygon fill="midnightblue" stroke="midnightblue" points="1051.88,-28.56 1057.89,-19.83 1047.75,-22.9 1051.88,-28.56"/>
</g>
<!-- Node20 -->
<g id="node20" class="node">
<title>Node20</title>
<g id="a_node20"><a xlink:title=" ">
<polygon fill="none" stroke="#bfbfbf" points="1183.5,-0.5 1183.5,-19.5 1252.5,-19.5 1252.5,-0.5 1183.5,-0.5"/>
<text text-anchor="middle" x="1218" y="-7.5" font-family="FreeSans.ttf" font-size="10.00">type_traits</text>
</a>
</g>
</g>
<!-- Node13&#45;&gt;Node20 -->
<g id="edge20" class="edge">
<title>Node13&#45;&gt;Node20</title>
<path fill="none" stroke="midnightblue" d="M1031.18,-56.44C1069.69,-47.07 1131.54,-32.03 1173.42,-21.84"/>
<polygon fill="midnightblue" stroke="midnightblue" points="1174.46,-25.19 1183.35,-19.43 1172.81,-18.39 1174.46,-25.19"/>
</g>
<!-- Node21 -->
<g id="node21" class="node">
<title>Node21</title>
<g id="a_node21"><a xlink:title=" ">
<polygon fill="none" stroke="#bfbfbf" points="1120.5,-0.5 1120.5,-19.5 1165.5,-19.5 1165.5,-0.5 1120.5,-0.5"/>
<text text-anchor="middle" x="1143" y="-7.5" font-family="FreeSans.ttf" font-size="10.00">utility</text>
</a>
</g>
</g>
<!-- Node13&#45;&gt;Node21 -->
<g id="edge21" class="edge">
<title>Node13&#45;&gt;Node21</title>
<path fill="none" stroke="midnightblue" d="M1019.29,-56.44C1043.95,-47.39 1083.05,-33.02 1110.69,-22.87"/>
<polygon fill="midnightblue" stroke="midnightblue" points="1112.12,-26.07 1120.3,-19.34 1109.71,-19.5 1112.12,-26.07"/>
</g>
<!-- Node24&#45;&gt;Node6 -->
<g id="edge33" class="edge">
<title>Node24&#45;&gt;Node6</title>
<path fill="none" stroke="midnightblue" d="M622.52,-448.5C621.35,-435.13 617.4,-408.98 604,-392 584.02,-366.68 560.9,-381.38 541,-356 525.03,-335.63 528.7,-325.62 525,-300 516.73,-242.83 522.76,-174.22 526.55,-141.77"/>
<polygon fill="midnightblue" stroke="midnightblue" points="530.06,-141.89 527.81,-131.53 523.11,-141.03 530.06,-141.89"/>
</g>
<!-- Node24&#45;&gt;Node8 -->
<g id="edge34" class="edge">
<title>Node24&#45;&gt;Node8</title>
<path fill="none" stroke="midnightblue" d="M567.2,-452.75C533.32,-447.63 490.98,-436.43 461,-412 431.57,-388.02 440.45,-369.18 422,-336 380.98,-262.25 327.91,-176.85 305.16,-140.66"/>
<polygon fill="midnightblue" stroke="midnightblue" points="307.87,-138.4 299.58,-131.8 301.95,-142.13 307.87,-138.4"/>
</g>
<!-- Node24&#45;&gt;Node9 -->
<g id="edge63" class="edge">
<title>Node24&#45;&gt;Node9</title>
<path fill="none" stroke="midnightblue" d="M678.66,-454.72C792.84,-446.63 1051.58,-409.94 1156,-244 1160.73,-236.48 1161.74,-230.79 1156,-224 1144.43,-210.33 1052.28,-197.04 979.23,-188.49"/>
<polygon fill="midnightblue" stroke="midnightblue" points="979.39,-184.99 969.05,-187.32 978.59,-191.94 979.39,-184.99"/>
</g>
<!-- Node24&#45;&gt;Node22 -->
<g id="edge32" class="edge">
<title>Node24&#45;&gt;Node22</title>
<path fill="none" stroke="midnightblue" d="M678.72,-456.55C823.33,-454.89 1202.42,-447.19 1246,-412 1269.42,-393.09 1265,-377.1 1265,-347 1265,-347 1265,-347 1265,-233 1265,-197.58 1243.84,-160.71 1229.62,-139.92"/>
<polygon fill="midnightblue" stroke="midnightblue" points="1232.32,-137.68 1223.67,-131.56 1226.62,-141.74 1232.32,-137.68"/>
</g>
<!-- Node25 -->
<g id="node25" class="node">
<title>Node25</title>
<g id="a_node25"><a xlink:title=" ">
<polygon fill="none" stroke="#bfbfbf" points="1189.5,-392.5 1189.5,-411.5 1236.5,-411.5 1236.5,-392.5 1189.5,-392.5"/>
<text text-anchor="middle" x="1213" y="-399.5" font-family="FreeSans.ttf" font-size="10.00">cmath</text>
</a>
</g>
</g>
<!-- Node24&#45;&gt;Node25 -->
<g id="edge30" class="edge">
<title>Node24&#45;&gt;Node25</title>
<path fill="none" stroke="midnightblue" d="M678.57,-455.25C778.46,-451.48 994.8,-440.52 1175,-412 1176.46,-411.77 1177.96,-411.51 1179.46,-411.23"/>
<polygon fill="midnightblue" stroke="midnightblue" points="1180.31,-414.63 1189.39,-409.17 1178.89,-407.78 1180.31,-414.63"/>
</g>
<!-- Node26 -->
<g id="node26" class="node">
<title>Node26</title>
<g id="a_node26"><a xlink:title=" ">
<polygon fill="none" stroke="#bfbfbf" points="469.5,-392.5 469.5,-411.5 518.5,-411.5 518.5,-392.5 469.5,-392.5"/>
<text text-anchor="middle" x="494" y="-399.5" font-family="FreeSans.ttf" font-size="10.00">cstdlib</text>
</a>
</g>
</g>
<!-- Node24&#45;&gt;Node26 -->
<g id="edge31" class="edge">
<title>Node24&#45;&gt;Node26</title>
<path fill="none" stroke="midnightblue" d="M602.56,-448.44C581.33,-439.56 547.9,-425.56 523.75,-415.45"/>
<polygon fill="midnightblue" stroke="midnightblue" points="524.92,-412.15 514.34,-411.52 522.22,-418.61 524.92,-412.15"/>
</g>
<!-- Node27 -->
<g id="node27" class="node">
<title>Node27</title>
<g id="a_node27"><a xlink:href="Transform_8h.html" target="_top" xlink:title=" ">
<polygon fill="none" stroke="black" points="651,-392.5 651,-411.5 797,-411.5 797,-392.5 651,-392.5"/>
<text text-anchor="middle" x="724" y="-399.5" font-family="FreeSans.ttf" font-size="10.00">iDynTree/Core/Transform.h</text>
</a>
</g>
</g>
<!-- Node24&#45;&gt;Node27 -->
<g id="edge35" class="edge">
<title>Node24&#45;&gt;Node27</title>
<path fill="none" stroke="midnightblue" d="M639.23,-448.32C655.35,-439.7 680.3,-426.36 698.96,-416.39"/>
<polygon fill="midnightblue" stroke="midnightblue" points="700.64,-419.46 707.81,-411.65 697.34,-413.28 700.64,-419.46"/>
</g>
<!-- Node36 -->
<g id="node36" class="node">
<title>Node36</title>
<g id="a_node36"><a xlink:title=" ">
<polygon fill="none" stroke="#bfbfbf" points="537,-392.5 537,-411.5 595,-411.5 595,-392.5 537,-392.5"/>
<text text-anchor="middle" x="566" y="-399.5" font-family="FreeSans.ttf" font-size="10.00">fpconv.h</text>
</a>
</g>
</g>
<!-- Node24&#45;&gt;Node36 -->
<g id="edge64" class="edge">
<title>Node24&#45;&gt;Node36</title>
<path fill="none" stroke="midnightblue" d="M613.84,-448.32C605.5,-440.42 592.97,-428.55 582.82,-418.94"/>
<polygon fill="midnightblue" stroke="midnightblue" points="584.99,-416.17 575.32,-411.83 580.18,-421.25 584.99,-416.17"/>
</g>
<!-- Node27&#45;&gt;Node6 -->
<g id="edge62" class="edge">
<title>Node27&#45;&gt;Node6</title>
<path fill="none" stroke="midnightblue" d="M662.57,-392.49C605.41,-380.7 529,-353.29 529,-291 529,-291 529,-291 529,-233 529,-200.95 529,-163.64 529,-141.75"/>
<polygon fill="midnightblue" stroke="midnightblue" points="532.5,-141.56 529,-131.56 525.5,-141.56 532.5,-141.56"/>
</g>
<!-- Node28 -->
<g id="node28" class="node">
<title>Node28</title>
<g id="a_node28"><a xlink:href="Position_8h.html" target="_top" xlink:title=" ">
<polygon fill="none" stroke="black" points="612,-336.5 612,-355.5 748,-355.5 748,-336.5 612,-336.5"/>
<text text-anchor="middle" x="680" y="-343.5" font-family="FreeSans.ttf" font-size="10.00">iDynTree/Core/Position.h</text>
</a>
</g>
</g>
<!-- Node27&#45;&gt;Node28 -->
<g id="edge36" class="edge">
<title>Node27&#45;&gt;Node28</title>
<path fill="none" stroke="midnightblue" d="M716.73,-392.08C710.46,-384.38 701.21,-373.03 693.57,-363.65"/>
<polygon fill="midnightblue" stroke="midnightblue" points="696.16,-361.29 687.13,-355.75 690.73,-365.71 696.16,-361.29"/>
</g>
<!-- Node30 -->
<g id="node30" class="node">
<title>Node30</title>
<g id="a_node30"><a xlink:href="Rotation_8h.html" target="_top" xlink:title=" ">
<polygon fill="none" stroke="black" points="773,-280.5 773,-299.5 911,-299.5 911,-280.5 773,-280.5"/>
<text text-anchor="middle" x="842" y="-287.5" font-family="FreeSans.ttf" font-size="10.00">iDynTree/Core/Rotation.h</text>
</a>
</g>
</g>
<!-- Node27&#45;&gt;Node30 -->
<g id="edge60" class="edge">
<title>Node27&#45;&gt;Node30</title>
<path fill="none" stroke="midnightblue" d="M733.26,-392.37C753.16,-373.81 800.26,-329.91 825.44,-306.44"/>
<polygon fill="midnightblue" stroke="midnightblue" points="827.86,-308.97 832.78,-299.59 823.08,-303.85 827.86,-308.97"/>
</g>
<!-- Node33 -->
<g id="node33" class="node">
<title>Node33</title>
<g id="a_node33"><a xlink:href="MatrixFixSize_8h.html" target="_top" xlink:title=" ">
<polygon fill="none" stroke="black" points="987.5,-168.5 987.5,-187.5 1150.5,-187.5 1150.5,-168.5 987.5,-168.5"/>
<text text-anchor="middle" x="1069" y="-175.5" font-family="FreeSans.ttf" font-size="10.00">iDynTree/Core/MatrixFixSize.h</text>
</a>
</g>
</g>
<!-- Node27&#45;&gt;Node33 -->
<g id="edge61" class="edge">
<title>Node27&#45;&gt;Node33</title>
<path fill="none" stroke="midnightblue" d="M797.18,-398.56C897.48,-390.79 1074.5,-360.34 1156,-244 1172.4,-220.59 1138.87,-202.11 1108.79,-190.94"/>
<polygon fill="midnightblue" stroke="midnightblue" points="1109.81,-187.58 1099.22,-187.57 1107.49,-194.19 1109.81,-187.58"/>
</g>
<!-- Node28&#45;&gt;Node6 -->
<g id="edge59" class="edge">
<title>Node28&#45;&gt;Node6</title>
<path fill="none" stroke="midnightblue" d="M660.99,-336.35C631.46,-321.84 575.15,-289.63 548,-244 528.95,-211.97 527.08,-167.09 527.79,-141.96"/>
<polygon fill="midnightblue" stroke="midnightblue" points="531.3,-141.79 528.27,-131.64 524.31,-141.47 531.3,-141.79"/>
</g>
<!-- Node29 -->
<g id="node29" class="node">
<title>Node29</title>
<g id="a_node29"><a xlink:href="PositionRaw_8h.html" target="_top" xlink:title=" ">
<polygon fill="none" stroke="black" points="557,-224.5 557,-243.5 713,-243.5 713,-224.5 557,-224.5"/>
<text text-anchor="middle" x="635" y="-231.5" font-family="FreeSans.ttf" font-size="10.00">iDynTree/Core/PositionRaw.h</text>
</a>
</g>
</g>
<!-- Node28&#45;&gt;Node29 -->
<g id="edge37" class="edge">
<title>Node28&#45;&gt;Node29</title>
<path fill="none" stroke="midnightblue" d="M676.47,-336.37C669.14,-318.46 652.15,-276.92 642.34,-252.95"/>
<polygon fill="midnightblue" stroke="midnightblue" points="645.54,-251.52 638.51,-243.59 639.06,-254.17 645.54,-251.52"/>
</g>
<!-- Node28&#45;&gt;Node30 -->
<g id="edge40" class="edge">
<title>Node28&#45;&gt;Node30</title>
<path fill="none" stroke="midnightblue" d="M705.67,-336.44C732.92,-327.36 776.18,-312.94 806.65,-302.78"/>
<polygon fill="midnightblue" stroke="midnightblue" points="808.07,-306 816.45,-299.52 805.86,-299.36 808.07,-306"/>
</g>
<!-- Node29&#45;&gt;Node6 -->
<g id="edge39" class="edge">
<title>Node29&#45;&gt;Node6</title>
<path fill="none" stroke="midnightblue" d="M626.68,-224.37C608.96,-205.97 567.23,-162.67 544.47,-139.05"/>
<polygon fill="midnightblue" stroke="midnightblue" points="546.74,-136.36 537.28,-131.59 541.7,-141.22 546.74,-136.36"/>
</g>
<!-- Node29&#45;&gt;Node9 -->
<g id="edge38" class="edge">
<title>Node29&#45;&gt;Node9</title>
<path fill="none" stroke="midnightblue" d="M675.09,-224.44C719.32,-215 790.54,-199.8 838.28,-189.61"/>
<polygon fill="midnightblue" stroke="midnightblue" points="839.05,-193.03 848.1,-187.52 837.59,-186.18 839.05,-193.03"/>
</g>
<!-- Node30&#45;&gt;Node6 -->
<g id="edge41" class="edge">
<title>Node30&#45;&gt;Node6</title>
<path fill="none" stroke="midnightblue" d="M826.12,-280.31C803.19,-267.77 759.44,-243.93 722,-224 662.25,-192.18 591.69,-155.48 554.66,-136.28"/>
<polygon fill="midnightblue" stroke="midnightblue" points="556.05,-133.06 545.56,-131.57 552.83,-139.28 556.05,-133.06"/>
</g>
<!-- Node30&#45;&gt;Node9 -->
<g id="edge58" class="edge">
<title>Node30&#45;&gt;Node9</title>
<path fill="none" stroke="midnightblue" d="M886.7,-280.48C907.23,-274.09 929.7,-263.02 942,-244 954.23,-225.09 932.38,-205.49 912.92,-192.82"/>
<polygon fill="midnightblue" stroke="midnightblue" points="914.64,-189.77 904.28,-187.52 910.97,-195.73 914.64,-189.77"/>
</g>
<!-- Node31 -->
<g id="node31" class="node">
<title>Node31</title>
<g id="a_node31"><a xlink:href="GeomVector3_8h.html" target="_top" xlink:title=" ">
<polygon fill="none" stroke="black" points="769.5,-224.5 769.5,-243.5 932.5,-243.5 932.5,-224.5 769.5,-224.5"/>
<text text-anchor="middle" x="851" y="-231.5" font-family="FreeSans.ttf" font-size="10.00">iDynTree/Core/GeomVector3.h</text>
</a>
</g>
</g>
<!-- Node30&#45;&gt;Node31 -->
<g id="edge42" class="edge">
<title>Node30&#45;&gt;Node31</title>
<path fill="none" stroke="midnightblue" d="M843.49,-280.08C844.68,-272.93 846.39,-262.64 847.88,-253.69"/>
<polygon fill="midnightblue" stroke="midnightblue" points="851.35,-254.19 849.54,-243.75 844.45,-253.04 851.35,-254.19"/>
</g>
<!-- Node32 -->
<g id="node32" class="node">
<title>Node32</title>
<g id="a_node32"><a xlink:href="RotationRaw_8h.html" target="_top" xlink:title=" ">
<polygon fill="none" stroke="black" points="989,-224.5 989,-243.5 1147,-243.5 1147,-224.5 989,-224.5"/>
<text text-anchor="middle" x="1068" y="-231.5" font-family="FreeSans.ttf" font-size="10.00">iDynTree/Core/RotationRaw.h</text>
</a>
</g>
</g>
<!-- Node30&#45;&gt;Node32 -->
<g id="edge44" class="edge">
<title>Node30&#45;&gt;Node32</title>
<path fill="none" stroke="midnightblue" d="M877.81,-280.44C916.99,-271.08 979.88,-256.06 1022.52,-245.87"/>
<polygon fill="midnightblue" stroke="midnightblue" points="1023.44,-249.24 1032.36,-243.52 1021.82,-242.44 1023.44,-249.24"/>
</g>
<!-- Node31&#45;&gt;Node9 -->
<g id="edge43" class="edge">
<title>Node31&#45;&gt;Node9</title>
<path fill="none" stroke="midnightblue" d="M857.11,-224.08C862.28,-216.53 869.85,-205.49 876.19,-196.23"/>
<polygon fill="midnightblue" stroke="midnightblue" points="879.24,-197.98 882,-187.75 873.46,-194.02 879.24,-197.98"/>
</g>
<!-- Node32&#45;&gt;Node6 -->
<g id="edge57" class="edge">
<title>Node32&#45;&gt;Node6</title>
<path fill="none" stroke="midnightblue" d="M988.72,-225.49C934.21,-218.96 860.65,-207.4 798,-188 777.87,-181.77 775.03,-174.55 755,-168 687.76,-146.02 605.59,-132.93 561.19,-126.94"/>
<polygon fill="midnightblue" stroke="midnightblue" points="561.63,-123.47 551.26,-125.64 560.72,-130.41 561.63,-123.47"/>
</g>
<!-- Node32&#45;&gt;Node33 -->
<g id="edge45" class="edge">
<title>Node32&#45;&gt;Node33</title>
<path fill="none" stroke="midnightblue" d="M1068.17,-224.08C1068.3,-217.01 1068.48,-206.86 1068.65,-197.99"/>
<polygon fill="midnightblue" stroke="midnightblue" points="1072.15,-197.81 1068.84,-187.75 1065.15,-197.68 1072.15,-197.81"/>
</g>
<!-- Node33&#45;&gt;Node6 -->
<g id="edge54" class="edge">
<title>Node33&#45;&gt;Node6</title>
<path fill="none" stroke="midnightblue" d="M987.28,-168.83C866.1,-156.71 644.18,-134.52 561.33,-126.23"/>
<polygon fill="midnightblue" stroke="midnightblue" points="561.55,-122.74 551.25,-125.23 560.86,-129.7 561.55,-122.74"/>
</g>
<!-- Node33&#45;&gt;Node10 -->
<g id="edge46" class="edge">
<title>Node33&#45;&gt;Node10</title>
<path fill="none" stroke="midnightblue" d="M1049.91,-168.48C1030.25,-159.64 998.79,-145.25 972,-132 954.89,-123.54 951.96,-118.46 934,-112 886.83,-95.03 831.41,-83.62 788.65,-76.54"/>
<polygon fill="midnightblue" stroke="midnightblue" points="789.05,-73.06 778.62,-74.92 787.93,-79.97 789.05,-73.06"/>
</g>
<!-- Node33&#45;&gt;Node14 -->
<g id="edge52" class="edge">
<title>Node33&#45;&gt;Node14</title>
<path fill="none" stroke="midnightblue" d="M1150.7,-174.21C1219.09,-169.94 1309.08,-159.18 1332,-132 1357.62,-101.63 1329.24,-53.42 1310.61,-27.99"/>
<polygon fill="midnightblue" stroke="midnightblue" points="1313.15,-25.55 1304.31,-19.73 1307.59,-29.8 1313.15,-25.55"/>
</g>
<!-- Node33&#45;&gt;Node22 -->
<g id="edge56" class="edge">
<title>Node33&#45;&gt;Node22</title>
<path fill="none" stroke="midnightblue" d="M1092.45,-168.44C1117.13,-159.44 1156.19,-145.19 1183.98,-135.05"/>
<polygon fill="midnightblue" stroke="midnightblue" points="1185.46,-138.23 1193.66,-131.52 1183.06,-131.66 1185.46,-138.23"/>
</g>
<!-- Node33&#45;&gt;Node23 -->
<g id="edge53" class="edge">
<title>Node33&#45;&gt;Node23</title>
<path fill="none" stroke="midnightblue" d="M1042.22,-168.44C1013.16,-159.16 966.66,-144.3 934.79,-134.12"/>
<polygon fill="midnightblue" stroke="midnightblue" points="935.59,-130.7 925,-130.99 933.46,-137.37 935.59,-130.7"/>
</g>
<!-- Node34 -->
<g id="node34" class="node">
<title>Node34</title>
<g id="a_node34"><a xlink:href="MatrixView_8h.html" target="_top" xlink:title=" ">
<polygon fill="none" stroke="black" points="981,-112.5 981,-131.5 1133,-131.5 1133,-112.5 981,-112.5"/>
<text text-anchor="middle" x="1057" y="-119.5" font-family="FreeSans.ttf" font-size="10.00">iDynTree/Core/MatrixView.h</text>
</a>
</g>
</g>
<!-- Node33&#45;&gt;Node34 -->
<g id="edge47" class="edge">
<title>Node33&#45;&gt;Node34</title>
<path fill="none" stroke="midnightblue" d="M1067.02,-168.08C1065.43,-160.93 1063.14,-150.64 1061.15,-141.69"/>
<polygon fill="midnightblue" stroke="midnightblue" points="1064.53,-140.75 1058.94,-131.75 1057.7,-142.27 1064.53,-140.75"/>
</g>
<!-- Node35 -->
<g id="node35" class="node">
<title>Node35</title>
<g id="a_node35"><a xlink:title=" ">
<polygon fill="none" stroke="#bfbfbf" points="1263,-112.5 1263,-131.5 1323,-131.5 1323,-112.5 1263,-112.5"/>
<text text-anchor="middle" x="1293" y="-119.5" font-family="FreeSans.ttf" font-size="10.00">iostream</text>
</a>
</g>
</g>
<!-- Node33&#45;&gt;Node35 -->
<g id="edge55" class="edge">
<title>Node33&#45;&gt;Node35</title>
<path fill="none" stroke="midnightblue" d="M1104.49,-168.44C1144.84,-158.72 1210.55,-142.88 1252.77,-132.7"/>
<polygon fill="midnightblue" stroke="midnightblue" points="1253.8,-136.05 1262.7,-130.3 1252.16,-129.25 1253.8,-136.05"/>
</g>
<!-- Node34&#45;&gt;Node10 -->
<g id="edge51" class="edge">
<title>Node34&#45;&gt;Node10</title>
<path fill="none" stroke="midnightblue" d="M1003.44,-112.44C943.37,-102.85 846.01,-87.29 782.24,-77.1"/>
<polygon fill="midnightblue" stroke="midnightblue" points="782.73,-73.64 772.31,-75.52 781.63,-80.55 782.73,-73.64"/>
</g>
<!-- Node34&#45;&gt;Node13 -->
<g id="edge50" class="edge">
<title>Node34&#45;&gt;Node13</title>
<path fill="none" stroke="midnightblue" d="M1047.2,-112.32C1038.18,-104.34 1024.59,-92.31 1013.68,-82.65"/>
<polygon fill="midnightblue" stroke="midnightblue" points="1015.79,-79.84 1005.98,-75.83 1011.15,-85.08 1015.79,-79.84"/>
</g>
<!-- Node34&#45;&gt;Node14 -->
<g id="edge48" class="edge">
<title>Node34&#45;&gt;Node14</title>
<path fill="none" stroke="midnightblue" d="M1066.81,-112.19C1082.62,-98.41 1115.2,-71.7 1147,-56 1167.06,-46.1 1223.29,-30.34 1260.92,-20.34"/>
<polygon fill="midnightblue" stroke="midnightblue" points="1262.21,-23.62 1270.99,-17.68 1260.43,-16.85 1262.21,-23.62"/>
</g>
<!-- Node34&#45;&gt;Node20 -->
<g id="edge49" class="edge">
<title>Node34&#45;&gt;Node20</title>
<path fill="none" stroke="midnightblue" d="M1061.98,-112.25C1070.17,-98.56 1087.73,-71.96 1109,-56 1129.02,-40.97 1154.78,-30.04 1176.24,-22.71"/>
<polygon fill="midnightblue" stroke="midnightblue" points="1177.34,-26.03 1185.75,-19.59 1175.16,-19.38 1177.34,-26.03"/>
</g>
<!-- Node37&#45;&gt;Node6 -->
<g id="edge66" class="edge">
<title>Node37&#45;&gt;Node6</title>
<path fill="none" stroke="midnightblue" d="M347.46,-336.47C355.83,-308.75 385.71,-220 439,-168 455.32,-152.07 478.4,-140.69 497.1,-133.36"/>
<polygon fill="midnightblue" stroke="midnightblue" points="498.54,-136.55 506.69,-129.79 496.1,-129.99 498.54,-136.55"/>
</g>
</g>
</svg>
