<?xml version="1.0" encoding="UTF-8" standalone="no"?>
<!DOCTYPE svg PUBLIC "-//W3C//DTD SVG 1.1//EN"
 "http://www.w3.org/Graphics/SVG/1.1/DTD/svg11.dtd">
<!-- Generated by graphviz version 2.43.0 (0)
 -->
<!-- Title: ModelLoader.h Pages: 1 -->
<svg width="1442pt" height="151pt"
 viewBox="0.00 0.00 1441.50 151.00" xmlns="http://www.w3.org/2000/svg" xmlns:xlink="http://www.w3.org/1999/xlink">
<g id="graph0" class="graph" transform="scale(1 1) rotate(0) translate(4 147)">
<title>ModelLoader.h</title>
<!-- Node1 -->
<g id="node1" class="node">
<title>Node1</title>
<g id="a_node1"><a xlink:title=" ">
<polygon fill="#bfbfbf" stroke="black" points="682,-123.5 682,-142.5 770,-142.5 770,-123.5 682,-123.5"/>
<text text-anchor="middle" x="726" y="-130.5" font-family="FreeSans.ttf" font-size="10.00">ModelLoader.h</text>
</a>
</g>
</g>
<!-- Node2 -->
<g id="node2" class="node">
<title>Node2</title>
<g id="a_node2"><a xlink:href="ExtWrenchesAndJointTorquesEstimator_8cpp.html" target="_top" xlink:title=" ">
<polygon fill="none" stroke="black" points="0,-56.5 0,-86.5 158,-86.5 158,-56.5 0,-56.5"/>
<text text-anchor="start" x="8" y="-74.5" font-family="FreeSans.ttf" font-size="10.00">ExtWrenchesAndJointTorques</text>
<text text-anchor="middle" x="79" y="-63.5" font-family="FreeSans.ttf" font-size="10.00">Estimator.cpp</text>
</a>
</g>
</g>
<!-- Node1&#45;&gt;Node2 -->
<g id="edge1" class="edge">
<title>Node1&#45;&gt;Node2</title>
<path fill="none" stroke="midnightblue" d="M671.49,-129.12C571.33,-123.49 351.34,-109.57 167,-87 164.08,-86.64 161.11,-86.26 158.11,-85.85"/>
<polygon fill="midnightblue" stroke="midnightblue" points="671.49,-132.62 681.67,-129.68 671.88,-125.63 671.49,-132.62"/>
</g>
<!-- Node3 -->
<g id="node3" class="node">
<title>Node3</title>
<g id="a_node3"><a xlink:href="SimpleLeggedOdometry_8cpp.html" target="_top" xlink:title=" ">
<polygon fill="none" stroke="black" points="176.5,-62 176.5,-81 329.5,-81 329.5,-62 176.5,-62"/>
<text text-anchor="middle" x="253" y="-69" font-family="FreeSans.ttf" font-size="10.00">SimpleLeggedOdometry.cpp</text>
</a>
</g>
</g>
<!-- Node1&#45;&gt;Node3 -->
<g id="edge2" class="edge">
<title>Node1&#45;&gt;Node3</title>
<path fill="none" stroke="midnightblue" d="M671.65,-126.57C596.67,-118.87 457.32,-103.84 339,-87 326.71,-85.25 313.47,-83.13 301.15,-81.06"/>
<polygon fill="midnightblue" stroke="midnightblue" points="671.49,-130.07 681.8,-127.61 672.2,-123.11 671.49,-130.07"/>
</g>
<!-- Node4 -->
<g id="node4" class="node">
<title>Node4</title>
<g id="a_node4"><a xlink:href="KinDynComputations_8cpp.html" target="_top" xlink:title=" ">
<polygon fill="none" stroke="black" points="348,-62 348,-81 488,-81 488,-62 348,-62"/>
<text text-anchor="middle" x="418" y="-69" font-family="FreeSans.ttf" font-size="10.00">KinDynComputations.cpp</text>
</a>
</g>
</g>
<!-- Node1&#45;&gt;Node4 -->
<g id="edge3" class="edge">
<title>Node1&#45;&gt;Node4</title>
<path fill="none" stroke="midnightblue" d="M671.88,-121.55C612.21,-110.02 517.36,-91.69 462.05,-81.01"/>
<polygon fill="midnightblue" stroke="midnightblue" points="671.39,-125.01 681.87,-123.48 672.72,-118.14 671.39,-125.01"/>
</g>
<!-- Node5 -->
<g id="node5" class="node">
<title>Node5</title>
<g id="a_node5"><a xlink:href="InverseKinematicsData_8cpp.html" target="_top" xlink:title=" ">
<polygon fill="none" stroke="black" points="506.5,-62 506.5,-81 657.5,-81 657.5,-62 506.5,-62"/>
<text text-anchor="middle" x="582" y="-69" font-family="FreeSans.ttf" font-size="10.00">InverseKinematicsData.cpp</text>
</a>
</g>
</g>
<!-- Node1&#45;&gt;Node5 -->
<g id="edge4" class="edge">
<title>Node1&#45;&gt;Node5</title>
<path fill="none" stroke="midnightblue" d="M696.07,-119.63C668.09,-108.07 627.06,-91.12 602.59,-81.01"/>
<polygon fill="midnightblue" stroke="midnightblue" points="694.79,-122.89 705.37,-123.48 697.46,-116.42 694.79,-122.89"/>
</g>
<!-- Node6 -->
<g id="node6" class="node">
<title>Node6</title>
<g id="a_node6"><a xlink:href="URDFDocument_8h.html" target="_top" xlink:title=" ">
<polygon fill="none" stroke="black" points="714,-62 714,-81 818,-81 818,-62 714,-62"/>
<text text-anchor="middle" x="766" y="-69" font-family="FreeSans.ttf" font-size="10.00">URDFDocument.h</text>
</a>
</g>
</g>
<!-- Node1&#45;&gt;Node6 -->
<g id="edge5" class="edge">
<title>Node1&#45;&gt;Node6</title>
<path fill="none" stroke="midnightblue" d="M737.43,-115.01C744.9,-103.89 754.34,-89.84 760.28,-81.01"/>
<polygon fill="midnightblue" stroke="midnightblue" points="734.41,-113.22 731.73,-123.48 740.21,-117.13 734.41,-113.22"/>
</g>
<!-- Node7 -->
<g id="node7" class="node">
<title>Node7</title>
<g id="a_node7"><a xlink:href="ModelLoader_8cpp.html" target="_top" xlink:title=" ">
<polygon fill="none" stroke="black" points="636.5,-0.5 636.5,-19.5 735.5,-19.5 735.5,-0.5 636.5,-0.5"/>
<text text-anchor="middle" x="686" y="-7.5" font-family="FreeSans.ttf" font-size="10.00">ModelLoader.cpp</text>
</a>
</g>
</g>
<!-- Node1&#45;&gt;Node7 -->
<g id="edge9" class="edge">
<title>Node1&#45;&gt;Node7</title>
<path fill="none" stroke="midnightblue" d="M716.79,-114.32C712.79,-106.16 708.28,-96.24 705,-87 696.54,-63.16 690.35,-33.84 687.59,-19.59"/>
<polygon fill="midnightblue" stroke="midnightblue" points="713.67,-115.9 721.3,-123.25 719.91,-112.74 713.67,-115.9"/>
</g>
<!-- Node9 -->
<g id="node9" class="node">
<title>Node9</title>
<g id="a_node9"><a xlink:href="ModelCalibrationHelper_8cpp.html" target="_top" xlink:title=" ">
<polygon fill="none" stroke="black" points="836,-62 836,-81 988,-81 988,-62 836,-62"/>
<text text-anchor="middle" x="912" y="-69" font-family="FreeSans.ttf" font-size="10.00">ModelCalibrationHelper.cpp</text>
</a>
</g>
</g>
<!-- Node1&#45;&gt;Node9 -->
<g id="edge8" class="edge">
<title>Node1&#45;&gt;Node9</title>
<path fill="none" stroke="midnightblue" d="M762.32,-120.38C798.48,-108.82 853.1,-91.34 885.4,-81.01"/>
<polygon fill="midnightblue" stroke="midnightblue" points="761.11,-117.09 752.65,-123.48 763.24,-123.76 761.11,-117.09"/>
</g>
<!-- Node10 -->
<g id="node10" class="node">
<title>Node10</title>
<g id="a_node10"><a xlink:href="URDFDofsImport_8cpp.html" target="_top" xlink:title=" ">
<polygon fill="none" stroke="black" points="1006.5,-62 1006.5,-81 1125.5,-81 1125.5,-62 1006.5,-62"/>
<text text-anchor="middle" x="1066" y="-69" font-family="FreeSans.ttf" font-size="10.00">URDFDofsImport.cpp</text>
</a>
</g>
</g>
<!-- Node1&#45;&gt;Node10 -->
<g id="edge10" class="edge">
<title>Node1&#45;&gt;Node10</title>
<path fill="none" stroke="midnightblue" d="M780.41,-123.66C835.21,-115.1 922.14,-101.07 997,-87 1006.62,-85.19 1016.97,-83.1 1026.65,-81.07"/>
<polygon fill="midnightblue" stroke="midnightblue" points="779.57,-120.25 770.22,-125.25 780.64,-127.17 779.57,-120.25"/>
</g>
<!-- Node11 -->
<g id="node11" class="node">
<title>Node11</title>
<g id="a_node11"><a xlink:href="idyntree-model-info_8cpp.html" target="_top" xlink:title=" ">
<polygon fill="none" stroke="black" points="1144,-62 1144,-81 1278,-81 1278,-62 1144,-62"/>
<text text-anchor="middle" x="1211" y="-69" font-family="FreeSans.ttf" font-size="10.00">idyntree&#45;model&#45;info.cpp</text>
</a>
</g>
</g>
<!-- Node1&#45;&gt;Node11 -->
<g id="edge11" class="edge">
<title>Node1&#45;&gt;Node11</title>
<path fill="none" stroke="midnightblue" d="M780.16,-127.41C858.63,-120.46 1008.4,-106.01 1135,-87 1146.16,-85.32 1158.18,-83.19 1169.29,-81.07"/>
<polygon fill="midnightblue" stroke="midnightblue" points="779.68,-123.94 770.03,-128.3 780.3,-130.91 779.68,-123.94"/>
</g>
<!-- Node12 -->
<g id="node12" class="node">
<title>Node12</title>
<g id="a_node12"><a xlink:href="idyntree-model-view_8cpp.html" target="_top" xlink:title=" ">
<polygon fill="none" stroke="black" points="1296.5,-62 1296.5,-81 1433.5,-81 1433.5,-62 1296.5,-62"/>
<text text-anchor="middle" x="1365" y="-69" font-family="FreeSans.ttf" font-size="10.00">idyntree&#45;model&#45;view.cpp</text>
</a>
</g>
</g>
<!-- Node1&#45;&gt;Node12 -->
<g id="edge12" class="edge">
<title>Node1&#45;&gt;Node12</title>
<path fill="none" stroke="midnightblue" d="M780.37,-129.52C880.79,-124.51 1102.01,-111.55 1287,-87 1298.88,-85.42 1311.69,-83.24 1323.43,-81.05"/>
<polygon fill="midnightblue" stroke="midnightblue" points="779.98,-126.03 770.17,-130.02 780.33,-133.02 779.98,-126.03"/>
</g>
<!-- Node6&#45;&gt;Node7 -->
<g id="edge6" class="edge">
<title>Node6&#45;&gt;Node7</title>
<path fill="none" stroke="midnightblue" d="M746.23,-55.79C730.88,-44.38 710.14,-28.96 697.44,-19.51"/>
<polygon fill="midnightblue" stroke="midnightblue" points="744.43,-58.82 754.54,-61.98 748.6,-53.2 744.43,-58.82"/>
</g>
<!-- Node8 -->
<g id="node8" class="node">
<title>Node8</title>
<g id="a_node8"><a xlink:href="URDFDocument_8cpp.html" target="_top" xlink:title=" ">
<polygon fill="none" stroke="black" points="753.5,-0.5 753.5,-19.5 868.5,-19.5 868.5,-0.5 753.5,-0.5"/>
<text text-anchor="middle" x="811" y="-7.5" font-family="FreeSans.ttf" font-size="10.00">URDFDocument.cpp</text>
</a>
</g>
</g>
<!-- Node6&#45;&gt;Node8 -->
<g id="edge7" class="edge">
<title>Node6&#45;&gt;Node8</title>
<path fill="none" stroke="midnightblue" d="M778.6,-53.84C787.05,-42.67 797.82,-28.43 804.56,-19.51"/>
<polygon fill="midnightblue" stroke="midnightblue" points="775.69,-51.89 772.45,-61.98 781.27,-56.11 775.69,-51.89"/>
</g>
</g>
</svg>
