<?xml version="1.0" encoding="UTF-8" standalone="no"?>
<!DOCTYPE svg PUBLIC "-//W3C//DTD SVG 1.1//EN"
 "http://www.w3.org/Graphics/SVG/1.1/DTD/svg11.dtd">
<!-- Generated by graphviz version 2.43.0 (0)
 -->
<!-- Title: ModelSensorsTransformers.h Pages: 1 -->
<svg width="471pt" height="95pt"
 viewBox="0.00 0.00 470.50 95.00" xmlns="http://www.w3.org/2000/svg" xmlns:xlink="http://www.w3.org/1999/xlink">
<g id="graph0" class="graph" transform="scale(1 1) rotate(0) translate(4 91)">
<title>ModelSensorsTransformers.h</title>
<!-- Node1 -->
<g id="node1" class="node">
<title>Node1</title>
<g id="a_node1"><a xlink:title="Collection of function to modify model and sensors in various ways.">
<polygon fill="#bfbfbf" stroke="black" points="147,-67.5 147,-86.5 305,-86.5 305,-67.5 147,-67.5"/>
<text text-anchor="middle" x="226" y="-74.5" font-family="FreeSans.ttf" font-size="10.00">ModelSensorsTransformers.h</text>
</a>
</g>
</g>
<!-- Node2 -->
<g id="node2" class="node">
<title>Node2</title>
<g id="a_node2"><a xlink:href="ExtWrenchesAndJointTorquesEstimator_8cpp.html" target="_top" xlink:title=" ">
<polygon fill="none" stroke="black" points="0,-0.5 0,-30.5 158,-30.5 158,-0.5 0,-0.5"/>
<text text-anchor="start" x="8" y="-18.5" font-family="FreeSans.ttf" font-size="10.00">ExtWrenchesAndJointTorques</text>
<text text-anchor="middle" x="79" y="-7.5" font-family="FreeSans.ttf" font-size="10.00">Estimator.cpp</text>
</a>
</g>
</g>
<!-- Node1&#45;&gt;Node2 -->
<g id="edge1" class="edge">
<title>Node1&#45;&gt;Node2</title>
<path fill="none" stroke="midnightblue" d="M195.66,-63.72C171.8,-54.06 138.55,-40.6 113.64,-30.52"/>
<polygon fill="midnightblue" stroke="midnightblue" points="194.36,-66.97 204.94,-67.48 196.98,-60.48 194.36,-66.97"/>
</g>
<!-- Node3 -->
<g id="node3" class="node">
<title>Node3</title>
<g id="a_node3"><a xlink:href="ModelLoader_8cpp.html" target="_top" xlink:title=" ">
<polygon fill="none" stroke="black" points="176.5,-6 176.5,-25 275.5,-25 275.5,-6 176.5,-6"/>
<text text-anchor="middle" x="226" y="-13" font-family="FreeSans.ttf" font-size="10.00">ModelLoader.cpp</text>
</a>
</g>
</g>
<!-- Node1&#45;&gt;Node3 -->
<g id="edge2" class="edge">
<title>Node1&#45;&gt;Node3</title>
<path fill="none" stroke="midnightblue" d="M226,-57.32C226,-46.5 226,-33.4 226,-25.01"/>
<polygon fill="midnightblue" stroke="midnightblue" points="222.5,-57.48 226,-67.48 229.5,-57.48 222.5,-57.48"/>
</g>
<!-- Node4 -->
<g id="node4" class="node">
<title>Node4</title>
<g id="a_node4"><a xlink:href="ModelSensorsTransformers_8cpp.html" target="_top" xlink:title=" ">
<polygon fill="none" stroke="black" points="293.5,-6 293.5,-25 462.5,-25 462.5,-6 293.5,-6"/>
<text text-anchor="middle" x="378" y="-13" font-family="FreeSans.ttf" font-size="10.00">ModelSensorsTransformers.cpp</text>
</a>
</g>
</g>
<!-- Node1&#45;&gt;Node4 -->
<g id="edge3" class="edge">
<title>Node1&#45;&gt;Node4</title>
<path fill="none" stroke="midnightblue" d="M257.21,-63.78C286.75,-52.22 330.32,-35.16 356.26,-25.01"/>
<polygon fill="midnightblue" stroke="midnightblue" points="255.81,-60.57 247.78,-67.48 258.37,-67.09 255.81,-60.57"/>
</g>
</g>
</svg>
