<?xml version="1.0" encoding="UTF-8" standalone="no"?>
<!DOCTYPE svg PUBLIC "-//W3C//DTD SVG 1.1//EN"
 "http://www.w3.org/Graphics/SVG/1.1/DTD/svg11.dtd">
<!-- Generated by graphviz version 2.43.0 (0)
 -->
<!-- Title: ModelExporter.h Pages: 1 -->
<svg width="430pt" height="140pt"
 viewBox="0.00 0.00 430.00 140.00" xmlns="http://www.w3.org/2000/svg" xmlns:xlink="http://www.w3.org/1999/xlink">
<g id="graph0" class="graph" transform="scale(1 1) rotate(0) translate(4 136)">
<title>ModelExporter.h</title>
<!-- Node1 -->
<g id="node1" class="node">
<title>Node1</title>
<g id="a_node1"><a xlink:title=" ">
<polygon fill="#bfbfbf" stroke="black" points="145,-112.5 145,-131.5 241,-131.5 241,-112.5 145,-112.5"/>
<text text-anchor="middle" x="193" y="-119.5" font-family="FreeSans.ttf" font-size="10.00">ModelExporter.h</text>
</a>
</g>
</g>
<!-- Node2 -->
<g id="node2" class="node">
<title>Node2</title>
<g id="a_node2"><a xlink:href="ModelCalibrationHelper_8h.html" target="_top" xlink:title=" ">
<polygon fill="none" stroke="black" points="6,-56.5 6,-75.5 146,-75.5 146,-56.5 6,-56.5"/>
<text text-anchor="middle" x="76" y="-63.5" font-family="FreeSans.ttf" font-size="10.00">ModelCalibrationHelper.h</text>
</a>
</g>
</g>
<!-- Node1&#45;&gt;Node2 -->
<g id="edge1" class="edge">
<title>Node1&#45;&gt;Node2</title>
<path fill="none" stroke="midnightblue" d="M165.34,-108.23C143.45,-98.13 113.5,-84.31 94.45,-75.52"/>
<polygon fill="midnightblue" stroke="midnightblue" points="163.91,-111.43 174.46,-112.44 166.85,-105.08 163.91,-111.43"/>
</g>
<!-- Node3 -->
<g id="node3" class="node">
<title>Node3</title>
<g id="a_node3"><a xlink:href="ModelCalibrationHelper_8cpp.html" target="_top" xlink:title=" ">
<polygon fill="none" stroke="black" points="0,-0.5 0,-19.5 152,-19.5 152,-0.5 0,-0.5"/>
<text text-anchor="middle" x="76" y="-7.5" font-family="FreeSans.ttf" font-size="10.00">ModelCalibrationHelper.cpp</text>
</a>
</g>
</g>
<!-- Node1&#45;&gt;Node3 -->
<g id="edge6" class="edge">
<title>Node1&#45;&gt;Node3</title>
<path fill="none" stroke="midnightblue" d="M185.58,-102.92C179.11,-88.84 168.63,-69.48 155,-56 138.5,-39.69 114.9,-27.27 97.8,-19.65"/>
<polygon fill="midnightblue" stroke="midnightblue" points="182.54,-104.7 189.73,-112.48 188.96,-101.91 182.54,-104.7"/>
</g>
<!-- Node4 -->
<g id="node4" class="node">
<title>Node4</title>
<g id="a_node4"><a xlink:href="URDFModelExport_8h.html" target="_top" xlink:title=" ">
<polygon fill="none" stroke="black" points="240.5,-56.5 240.5,-75.5 355.5,-75.5 355.5,-56.5 240.5,-56.5"/>
<text text-anchor="middle" x="298" y="-63.5" font-family="FreeSans.ttf" font-size="10.00">URDFModelExport.h</text>
</a>
</g>
</g>
<!-- Node1&#45;&gt;Node4 -->
<g id="edge3" class="edge">
<title>Node1&#45;&gt;Node4</title>
<path fill="none" stroke="midnightblue" d="M218.81,-107.73C238.25,-97.73 264.35,-84.31 281.17,-75.65"/>
<polygon fill="midnightblue" stroke="midnightblue" points="217.16,-104.64 209.87,-112.32 220.36,-110.86 217.16,-104.64"/>
</g>
<!-- Node5 -->
<g id="node5" class="node">
<title>Node5</title>
<g id="a_node5"><a xlink:href="ModelExporter_8cpp.html" target="_top" xlink:title=" ">
<polygon fill="none" stroke="black" points="170.5,-0.5 170.5,-19.5 277.5,-19.5 277.5,-0.5 170.5,-0.5"/>
<text text-anchor="middle" x="224" y="-7.5" font-family="FreeSans.ttf" font-size="10.00">ModelExporter.cpp</text>
</a>
</g>
</g>
<!-- Node1&#45;&gt;Node5 -->
<g id="edge7" class="edge">
<title>Node1&#45;&gt;Node5</title>
<path fill="none" stroke="midnightblue" d="M198.16,-102.67C204.94,-78.62 216.56,-37.39 221.58,-19.59"/>
<polygon fill="midnightblue" stroke="midnightblue" points="194.78,-101.79 195.43,-112.37 201.51,-103.69 194.78,-101.79"/>
</g>
<!-- Node2&#45;&gt;Node3 -->
<g id="edge2" class="edge">
<title>Node2&#45;&gt;Node3</title>
<path fill="none" stroke="midnightblue" d="M76,-45.8C76,-36.91 76,-26.78 76,-19.75"/>
<polygon fill="midnightblue" stroke="midnightblue" points="72.5,-46.08 76,-56.08 79.5,-46.08 72.5,-46.08"/>
</g>
<!-- Node4&#45;&gt;Node5 -->
<g id="edge4" class="edge">
<title>Node4&#45;&gt;Node5</title>
<path fill="none" stroke="midnightblue" d="M277.97,-50.38C264.59,-40.62 247.44,-28.11 236.11,-19.83"/>
<polygon fill="midnightblue" stroke="midnightblue" points="275.97,-53.26 286.11,-56.32 280.1,-47.6 275.97,-53.26"/>
</g>
<!-- Node6 -->
<g id="node6" class="node">
<title>Node6</title>
<g id="a_node6"><a xlink:href="URDFModelExport_8cpp.html" target="_top" xlink:title=" ">
<polygon fill="none" stroke="black" points="296,-0.5 296,-19.5 422,-19.5 422,-0.5 296,-0.5"/>
<text text-anchor="middle" x="359" y="-7.5" font-family="FreeSans.ttf" font-size="10.00">URDFModelExport.cpp</text>
</a>
</g>
</g>
<!-- Node4&#45;&gt;Node6 -->
<g id="edge5" class="edge">
<title>Node4&#45;&gt;Node6</title>
<path fill="none" stroke="midnightblue" d="M315.47,-49.54C326.34,-39.91 339.94,-27.87 349.02,-19.83"/>
<polygon fill="midnightblue" stroke="midnightblue" points="312.97,-47.07 307.8,-56.32 317.61,-52.32 312.97,-47.07"/>
</g>
</g>
</svg>
