<?xml version="1.0" encoding="UTF-8" standalone="no"?>
<!DOCTYPE svg PUBLIC "-//W3C//DTD SVG 1.1//EN"
 "http://www.w3.org/Graphics/SVG/1.1/DTD/svg11.dtd">
<!-- Generated by graphviz version 2.43.0 (0)
 -->
<!-- Title: Model.h Pages: 1 -->
<svg width="5497pt" height="229pt"
 viewBox="0.00 0.00 5496.50 229.00" xmlns="http://www.w3.org/2000/svg" xmlns:xlink="http://www.w3.org/1999/xlink">
<g id="graph0" class="graph" transform="scale(1 1) rotate(0) translate(4 225)">
<title>Model.h</title>
<!-- Node1 -->
<g id="node1" class="node">
<title>Node1</title>
<g id="a_node1"><a xlink:title=" ">
<polygon fill="#bfbfbf" stroke="black" points="2636.5,-201.5 2636.5,-220.5 2692.5,-220.5 2692.5,-201.5 2636.5,-201.5"/>
<text text-anchor="middle" x="2664.5" y="-208.5" font-family="FreeSans.ttf" font-size="10.00">Model.h</text>
</a>
</g>
</g>
<!-- Node2 -->
<g id="node2" class="node">
<title>Node2</title>
<g id="a_node2"><a xlink:href="ExtWrenchesAndJointTorquesEstimator_8h.html" target="_top" xlink:title=" ">
<polygon fill="none" stroke="black" points="272.5,-67.5 272.5,-97.5 430.5,-97.5 430.5,-67.5 272.5,-67.5"/>
<text text-anchor="start" x="280.5" y="-85.5" font-family="FreeSans.ttf" font-size="10.00">ExtWrenchesAndJointTorques</text>
<text text-anchor="middle" x="351.5" y="-74.5" font-family="FreeSans.ttf" font-size="10.00">Estimator.h</text>
</a>
</g>
</g>
<!-- Node1&#45;&gt;Node2 -->
<g id="edge1" class="edge">
<title>Node1&#45;&gt;Node2</title>
<path fill="none" stroke="midnightblue" d="M2626.01,-209.97C2339.71,-209.65 550.29,-206.02 444.5,-165 408.87,-151.18 377.83,-117.18 362.22,-97.74"/>
<polygon fill="midnightblue" stroke="midnightblue" points="2626.29,-213.47 2636.3,-209.98 2626.3,-206.47 2626.29,-213.47"/>
</g>
<!-- Node3 -->
<g id="node3" class="node">
<title>Node3</title>
<g id="a_node3"><a xlink:href="ExtWrenchesAndJointTorquesEstimator_8cpp.html" target="_top" xlink:title=" ">
<polygon fill="none" stroke="black" points="329.5,-0.5 329.5,-30.5 487.5,-30.5 487.5,-0.5 329.5,-0.5"/>
<text text-anchor="start" x="337.5" y="-18.5" font-family="FreeSans.ttf" font-size="10.00">ExtWrenchesAndJointTorques</text>
<text text-anchor="middle" x="408.5" y="-7.5" font-family="FreeSans.ttf" font-size="10.00">Estimator.cpp</text>
</a>
</g>
</g>
<!-- Node1&#45;&gt;Node3 -->
<g id="edge9" class="edge">
<title>Node1&#45;&gt;Node3</title>
<path fill="none" stroke="midnightblue" d="M2626.09,-209.73C2336.66,-207.67 506.14,-193.5 393.5,-165 330.49,-149.05 297.33,-153.5 263.5,-98 242.61,-63.73 287.15,-42.64 332.23,-30.53"/>
<polygon fill="midnightblue" stroke="midnightblue" points="2626.09,-213.23 2636.11,-209.81 2626.14,-206.23 2626.09,-213.23"/>
</g>
<!-- Node4 -->
<g id="node4" class="node">
<title>Node4</title>
<g id="a_node4"><a xlink:href="GravityCompensationHelpers_8h.html" target="_top" xlink:title=" ">
<polygon fill="none" stroke="black" points="1834.5,-140 1834.5,-159 2004.5,-159 2004.5,-140 1834.5,-140"/>
<text text-anchor="middle" x="1919.5" y="-147" font-family="FreeSans.ttf" font-size="10.00">GravityCompensationHelpers.h</text>
</a>
</g>
</g>
<!-- Node1&#45;&gt;Node4 -->
<g id="edge3" class="edge">
<title>Node1&#45;&gt;Node4</title>
<path fill="none" stroke="midnightblue" d="M2626.19,-208.48C2525.53,-204.23 2245.4,-190.85 2013.5,-165 1999.22,-163.41 1983.79,-161.22 1969.64,-159.03"/>
<polygon fill="midnightblue" stroke="midnightblue" points="2626.05,-211.97 2636.19,-208.89 2626.34,-204.98 2626.05,-211.97"/>
</g>
<!-- Node6 -->
<g id="node6" class="node">
<title>Node6</title>
<g id="a_node6"><a xlink:href="SimpleLeggedOdometry_8h.html" target="_top" xlink:title=" ">
<polygon fill="none" stroke="black" points="21.5,-73 21.5,-92 163.5,-92 163.5,-73 21.5,-73"/>
<text text-anchor="middle" x="92.5" y="-80" font-family="FreeSans.ttf" font-size="10.00">SimpleLeggedOdometry.h</text>
</a>
</g>
</g>
<!-- Node1&#45;&gt;Node6 -->
<g id="edge5" class="edge">
<title>Node1&#45;&gt;Node6</title>
<path fill="none" stroke="midnightblue" d="M2626,-210.02C2321.59,-210.05 311.69,-208.64 192.5,-165 151.07,-149.83 114.18,-109.74 99.38,-92.07"/>
<polygon fill="midnightblue" stroke="midnightblue" points="2626.1,-213.52 2636.1,-210.01 2626.1,-206.52 2626.1,-213.52"/>
</g>
<!-- Node8 -->
<g id="node8" class="node">
<title>Node8</title>
<g id="a_node8"><a xlink:href="BerdyHelper_8cpp.html" target="_top" xlink:title=" ">
<polygon fill="none" stroke="black" points="859,-73 859,-92 956,-92 956,-73 859,-73"/>
<text text-anchor="middle" x="907.5" y="-80" font-family="FreeSans.ttf" font-size="10.00">BerdyHelper.cpp</text>
</a>
</g>
</g>
<!-- Node1&#45;&gt;Node8 -->
<g id="edge7" class="edge">
<title>Node1&#45;&gt;Node8</title>
<path fill="none" stroke="midnightblue" d="M2626.2,-209.89C2427.8,-209.16 1515.41,-203.69 1235.5,-165 1121.29,-149.21 989.16,-109.64 933.91,-92.1"/>
<polygon fill="midnightblue" stroke="midnightblue" points="2626.4,-213.39 2636.41,-209.93 2626.43,-206.39 2626.4,-213.39"/>
</g>
<!-- Node9 -->
<g id="node9" class="node">
<title>Node9</title>
<g id="a_node9"><a xlink:href="ExternalWrenchesEstimation_8cpp.html" target="_top" xlink:title=" ">
<polygon fill="none" stroke="black" points="974.5,-73 974.5,-92 1152.5,-92 1152.5,-73 974.5,-73"/>
<text text-anchor="middle" x="1063.5" y="-80" font-family="FreeSans.ttf" font-size="10.00">ExternalWrenchesEstimation.cpp</text>
</a>
</g>
</g>
<!-- Node1&#45;&gt;Node9 -->
<g id="edge8" class="edge">
<title>Node1&#45;&gt;Node9</title>
<path fill="none" stroke="midnightblue" d="M2626.25,-209.78C2440.28,-208.55 1629.27,-201.14 1379.5,-165 1269.32,-149.06 1142.1,-109.57 1088.92,-92.08"/>
<polygon fill="midnightblue" stroke="midnightblue" points="2626.35,-213.28 2636.37,-209.85 2626.39,-206.28 2626.35,-213.28"/>
</g>
<!-- Node10 -->
<g id="node10" class="node">
<title>Node10</title>
<g id="a_node10"><a xlink:href="KinDynComputations_8cpp.html" target="_top" xlink:title=" ">
<polygon fill="none" stroke="black" points="171.5,-6 171.5,-25 311.5,-25 311.5,-6 171.5,-6"/>
<text text-anchor="middle" x="241.5" y="-13" font-family="FreeSans.ttf" font-size="10.00">KinDynComputations.cpp</text>
</a>
</g>
</g>
<!-- Node1&#45;&gt;Node10 -->
<g id="edge10" class="edge">
<title>Node1&#45;&gt;Node10</title>
<path fill="none" stroke="midnightblue" d="M2626.04,-209.8C2324.09,-208.14 344.8,-196.13 292.5,-165 242.61,-135.3 240.43,-52.22 241.11,-25.15"/>
<polygon fill="midnightblue" stroke="midnightblue" points="2626.44,-213.3 2636.46,-209.85 2626.48,-206.3 2626.44,-213.3"/>
</g>
<!-- Node11 -->
<g id="node11" class="node">
<title>Node11</title>
<g id="a_node11"><a xlink:href="skinDynLibConversionsImplementation_8h.html" target="_top" xlink:title=" ">
<polygon fill="none" stroke="black" points="2022.5,-140 2022.5,-159 2240.5,-159 2240.5,-140 2022.5,-140"/>
<text text-anchor="middle" x="2131.5" y="-147" font-family="FreeSans.ttf" font-size="10.00">skinDynLibConversionsImplementation.h</text>
</a>
</g>
</g>
<!-- Node1&#45;&gt;Node11 -->
<g id="edge11" class="edge">
<title>Node1&#45;&gt;Node11</title>
<path fill="none" stroke="midnightblue" d="M2626.18,-206.03C2552.96,-198.4 2388.11,-181.03 2249.5,-165 2233.3,-163.13 2215.86,-161.03 2199.49,-159.02"/>
<polygon fill="midnightblue" stroke="midnightblue" points="2626,-209.53 2636.31,-207.08 2626.72,-202.57 2626,-209.53"/>
</g>
<!-- Node13 -->
<g id="node13" class="node">
<title>Node13</title>
<g id="a_node13"><a xlink:href="InverseKinematicsData_8h.html" target="_top" xlink:title=" ">
<polygon fill="none" stroke="red" points="2258.5,-140 2258.5,-159 2398.5,-159 2398.5,-140 2258.5,-140"/>
<text text-anchor="middle" x="2328.5" y="-147" font-family="FreeSans.ttf" font-size="10.00">InverseKinematicsData.h</text>
</a>
</g>
</g>
<!-- Node1&#45;&gt;Node13 -->
<g id="edge14" class="edge">
<title>Node1&#45;&gt;Node13</title>
<path fill="none" stroke="midnightblue" d="M2626.27,-203.41C2576.05,-194.72 2485.13,-178.92 2407.5,-165 2396.93,-163.1 2385.57,-161.04 2374.86,-159.07"/>
<polygon fill="midnightblue" stroke="midnightblue" points="2625.9,-206.89 2636.35,-205.15 2627.09,-200 2625.9,-206.89"/>
</g>
<!-- Node16 -->
<g id="node14" class="node">
<title>Node16</title>
<g id="a_node14"><a xlink:href="DenavitHartenberg_8h.html" target="_top" xlink:title=" ">
<polygon fill="none" stroke="red" points="2417,-140 2417,-159 2536,-159 2536,-140 2417,-140"/>
<text text-anchor="middle" x="2476.5" y="-147" font-family="FreeSans.ttf" font-size="10.00">DenavitHartenberg.h</text>
</a>
</g>
</g>
<!-- Node1&#45;&gt;Node16 -->
<g id="edge15" class="edge">
<title>Node1&#45;&gt;Node16</title>
<path fill="none" stroke="midnightblue" d="M2627.79,-198.38C2591.24,-186.82 2536.03,-169.34 2503.39,-159.01"/>
<polygon fill="midnightblue" stroke="midnightblue" points="2626.97,-201.79 2637.56,-201.48 2629.09,-195.12 2626.97,-201.79"/>
</g>
<!-- Node20 -->
<g id="node15" class="node">
<title>Node20</title>
<g id="a_node15"><a xlink:href="ModelTestUtils_8h.html" target="_top" xlink:title=" ">
<polygon fill="none" stroke="black" points="2554.5,-140 2554.5,-159 2652.5,-159 2652.5,-140 2554.5,-140"/>
<text text-anchor="middle" x="2603.5" y="-147" font-family="FreeSans.ttf" font-size="10.00">ModelTestUtils.h</text>
</a>
</g>
</g>
<!-- Node1&#45;&gt;Node20 -->
<g id="edge16" class="edge">
<title>Node1&#45;&gt;Node20</title>
<path fill="none" stroke="midnightblue" d="M2648.43,-194.32C2636.84,-183.02 2621.64,-168.19 2612.22,-159.01"/>
<polygon fill="midnightblue" stroke="midnightblue" points="2646.16,-197 2655.76,-201.48 2651.05,-191.99 2646.16,-197"/>
</g>
<!-- Node21 -->
<g id="node16" class="node">
<title>Node21</title>
<g id="a_node16"><a xlink:href="ContactWrench_8cpp.html" target="_top" xlink:title=" ">
<polygon fill="none" stroke="black" points="2671,-140 2671,-159 2782,-159 2782,-140 2671,-140"/>
<text text-anchor="middle" x="2726.5" y="-147" font-family="FreeSans.ttf" font-size="10.00">ContactWrench.cpp</text>
</a>
</g>
</g>
<!-- Node1&#45;&gt;Node21 -->
<g id="edge17" class="edge">
<title>Node1&#45;&gt;Node21</title>
<path fill="none" stroke="midnightblue" d="M2680.83,-194.32C2692.61,-183.02 2708.06,-168.19 2717.63,-159.01"/>
<polygon fill="midnightblue" stroke="midnightblue" points="2678.17,-192.03 2673.38,-201.48 2683.02,-197.08 2678.17,-192.03"/>
</g>
<!-- Node22 -->
<g id="node17" class="node">
<title>Node22</title>
<g id="a_node17"><a xlink:href="Dynamics_8cpp.html" target="_top" xlink:title=" ">
<polygon fill="none" stroke="black" points="2800.5,-140 2800.5,-159 2886.5,-159 2886.5,-140 2800.5,-140"/>
<text text-anchor="middle" x="2843.5" y="-147" font-family="FreeSans.ttf" font-size="10.00">Dynamics.cpp</text>
</a>
</g>
</g>
<!-- Node1&#45;&gt;Node22 -->
<g id="edge18" class="edge">
<title>Node1&#45;&gt;Node22</title>
<path fill="none" stroke="midnightblue" d="M2699.9,-198.23C2734.7,-186.67 2786.95,-169.3 2817.9,-159.01"/>
<polygon fill="midnightblue" stroke="midnightblue" points="2698.53,-195 2690.15,-201.48 2700.74,-201.64 2698.53,-195"/>
</g>
<!-- Node23 -->
<g id="node18" class="node">
<title>Node23</title>
<g id="a_node18"><a xlink:href="DynamicsLinearization_8cpp.html" target="_top" xlink:title=" ">
<polygon fill="none" stroke="black" points="2905,-140 2905,-159 3054,-159 3054,-140 2905,-140"/>
<text text-anchor="middle" x="2979.5" y="-147" font-family="FreeSans.ttf" font-size="10.00">DynamicsLinearization.cpp</text>
</a>
</g>
</g>
<!-- Node1&#45;&gt;Node23 -->
<g id="edge19" class="edge">
<title>Node1&#45;&gt;Node23</title>
<path fill="none" stroke="midnightblue" d="M2702.65,-202.79C2761,-191.77 2872.19,-170.77 2934.43,-159.01"/>
<polygon fill="midnightblue" stroke="midnightblue" points="2701.91,-199.37 2692.73,-204.67 2703.21,-206.25 2701.91,-199.37"/>
</g>
<!-- Node24 -->
<g id="node19" class="node">
<title>Node24</title>
<g id="a_node19"><a xlink:href="ForwardKinematics_8cpp.html" target="_top" xlink:title=" ">
<polygon fill="none" stroke="black" points="3072,-140 3072,-159 3203,-159 3203,-140 3072,-140"/>
<text text-anchor="middle" x="3137.5" y="-147" font-family="FreeSans.ttf" font-size="10.00">ForwardKinematics.cpp</text>
</a>
</g>
</g>
<!-- Node1&#45;&gt;Node24 -->
<g id="edge20" class="edge">
<title>Node1&#45;&gt;Node24</title>
<path fill="none" stroke="midnightblue" d="M2702.85,-206.67C2773.98,-200.28 2931.08,-185.1 3062.5,-165 3073.51,-163.32 3085.37,-161.18 3096.34,-159.06"/>
<polygon fill="midnightblue" stroke="midnightblue" points="2702.24,-203.21 2692.59,-207.59 2702.86,-210.19 2702.24,-203.21"/>
</g>
<!-- Node25 -->
<g id="node20" class="node">
<title>Node25</title>
<g id="a_node20"><a xlink:href="FreeFloatingMatrices_8cpp.html" target="_top" xlink:title=" ">
<polygon fill="none" stroke="black" points="3221.5,-140 3221.5,-159 3361.5,-159 3361.5,-140 3221.5,-140"/>
<text text-anchor="middle" x="3291.5" y="-147" font-family="FreeSans.ttf" font-size="10.00">FreeFloatingMatrices.cpp</text>
</a>
</g>
</g>
<!-- Node1&#45;&gt;Node25 -->
<g id="edge21" class="edge">
<title>Node1&#45;&gt;Node25</title>
<path fill="none" stroke="midnightblue" d="M2703,-208.12C2792.52,-203.48 3021.54,-189.97 3211.5,-165 3223.68,-163.4 3236.81,-161.21 3248.86,-159.02"/>
<polygon fill="midnightblue" stroke="midnightblue" points="2702.59,-204.64 2692.79,-208.65 2702.95,-211.63 2702.59,-204.64"/>
</g>
<!-- Node26 -->
<g id="node21" class="node">
<title>Node26</title>
<g id="a_node21"><a xlink:href="FreeFloatingState_8cpp.html" target="_top" xlink:title=" ">
<polygon fill="none" stroke="black" points="3380,-140 3380,-159 3503,-159 3503,-140 3380,-140"/>
<text text-anchor="middle" x="3441.5" y="-147" font-family="FreeSans.ttf" font-size="10.00">FreeFloatingState.cpp</text>
</a>
</g>
</g>
<!-- Node1&#45;&gt;Node26 -->
<g id="edge22" class="edge">
<title>Node1&#45;&gt;Node26</title>
<path fill="none" stroke="midnightblue" d="M2702.79,-209.41C2809.17,-207.38 3117.15,-198.78 3370.5,-165 3381.6,-163.52 3393.56,-161.32 3404.45,-159.07"/>
<polygon fill="midnightblue" stroke="midnightblue" points="2702.49,-205.92 2692.55,-209.6 2702.61,-212.91 2702.49,-205.92"/>
</g>
<!-- Node27 -->
<g id="node22" class="node">
<title>Node27</title>
<g id="a_node22"><a xlink:href="Jacobians_8cpp.html" target="_top" xlink:title=" ">
<polygon fill="none" stroke="black" points="3521,-140 3521,-159 3604,-159 3604,-140 3521,-140"/>
<text text-anchor="middle" x="3562.5" y="-147" font-family="FreeSans.ttf" font-size="10.00">Jacobians.cpp</text>
</a>
</g>
</g>
<!-- Node1&#45;&gt;Node27 -->
<g id="edge23" class="edge">
<title>Node1&#45;&gt;Node27</title>
<path fill="none" stroke="midnightblue" d="M2702.94,-209.1C2846.71,-205.56 3352.61,-191.46 3511.5,-165 3519.85,-163.61 3528.79,-161.34 3536.81,-159.01"/>
<polygon fill="midnightblue" stroke="midnightblue" points="2702.75,-205.6 2692.84,-209.35 2702.92,-212.6 2702.75,-205.6"/>
</g>
<!-- Node28 -->
<g id="node23" class="node">
<title>Node28</title>
<g id="a_node23"><a xlink:href="JointState_8cpp.html" target="_top" xlink:title=" ">
<polygon fill="none" stroke="black" points="3622.5,-140 3622.5,-159 3706.5,-159 3706.5,-140 3622.5,-140"/>
<text text-anchor="middle" x="3664.5" y="-147" font-family="FreeSans.ttf" font-size="10.00">JointState.cpp</text>
</a>
</g>
</g>
<!-- Node1&#45;&gt;Node28 -->
<g id="edge24" class="edge">
<title>Node1&#45;&gt;Node28</title>
<path fill="none" stroke="midnightblue" d="M2703.36,-209.32C2858.39,-206.42 3432.99,-193.91 3612.5,-165 3621.01,-163.63 3630.12,-161.37 3638.3,-159.04"/>
<polygon fill="midnightblue" stroke="midnightblue" points="2702.87,-205.83 2692.93,-209.51 2702.99,-212.83 2702.87,-205.83"/>
</g>
<!-- Node29 -->
<g id="node24" class="node">
<title>Node29</title>
<g id="a_node24"><a xlink:href="LinkState_8cpp.html" target="_top" xlink:title=" ">
<polygon fill="none" stroke="black" points="3725,-140 3725,-159 3808,-159 3808,-140 3725,-140"/>
<text text-anchor="middle" x="3766.5" y="-147" font-family="FreeSans.ttf" font-size="10.00">LinkState.cpp</text>
</a>
</g>
</g>
<!-- Node1&#45;&gt;Node29 -->
<g id="edge25" class="edge">
<title>Node1&#45;&gt;Node29</title>
<path fill="none" stroke="midnightblue" d="M2702.68,-209.56C2867,-207.49 3514.59,-197.4 3715.5,-165 3723.86,-163.65 3732.8,-161.4 3740.82,-159.07"/>
<polygon fill="midnightblue" stroke="midnightblue" points="2702.53,-206.06 2692.57,-209.69 2702.61,-213.06 2702.53,-206.06"/>
</g>
<!-- Node30 -->
<g id="node25" class="node">
<title>Node30</title>
<g id="a_node25"><a xlink:href="LinkTraversalsCache_8cpp.html" target="_top" xlink:title=" ">
<polygon fill="none" stroke="black" points="3826,-140 3826,-159 3963,-159 3963,-140 3826,-140"/>
<text text-anchor="middle" x="3894.5" y="-147" font-family="FreeSans.ttf" font-size="10.00">LinkTraversalsCache.cpp</text>
</a>
</g>
</g>
<!-- Node1&#45;&gt;Node30 -->
<g id="edge26" class="edge">
<title>Node1&#45;&gt;Node30</title>
<path fill="none" stroke="midnightblue" d="M2702.85,-209.25C2876.87,-205.73 3593.42,-189.96 3816.5,-165 3828.96,-163.61 3842.41,-161.37 3854.58,-159.07"/>
<polygon fill="midnightblue" stroke="midnightblue" points="2702.57,-205.75 2692.64,-209.45 2702.71,-212.75 2702.57,-205.75"/>
</g>
<!-- Node31 -->
<g id="node26" class="node">
<title>Node31</title>
<g id="a_node26"><a xlink:href="Model_8cpp.html" target="_top" xlink:title=" ">
<polygon fill="none" stroke="black" points="3981,-140 3981,-159 4048,-159 4048,-140 3981,-140"/>
<text text-anchor="middle" x="4014.5" y="-147" font-family="FreeSans.ttf" font-size="10.00">Model.cpp</text>
</a>
</g>
</g>
<!-- Node1&#45;&gt;Node31 -->
<g id="edge27" class="edge">
<title>Node1&#45;&gt;Node31</title>
<path fill="none" stroke="midnightblue" d="M2702.85,-210.18C2891.12,-210.83 3718.68,-210.96 3971.5,-165 3978.63,-163.7 3986.19,-161.47 3992.95,-159.13"/>
<polygon fill="midnightblue" stroke="midnightblue" points="2702.63,-206.68 2692.62,-210.14 2702.6,-213.68 2702.63,-206.68"/>
</g>
<!-- Node32 -->
<g id="node27" class="node">
<title>Node32</title>
<g id="a_node27"><a xlink:href="ModelTransformers_8cpp.html" target="_top" xlink:title=" ">
<polygon fill="none" stroke="black" points="4066,-140 4066,-159 4197,-159 4197,-140 4066,-140"/>
<text text-anchor="middle" x="4131.5" y="-147" font-family="FreeSans.ttf" font-size="10.00">ModelTransformers.cpp</text>
</a>
</g>
</g>
<!-- Node1&#45;&gt;Node32 -->
<g id="edge28" class="edge">
<title>Node1&#45;&gt;Node32</title>
<path fill="none" stroke="midnightblue" d="M2702.72,-209.59C2897.75,-207.34 3783.39,-195.62 4056.5,-165 4068.63,-163.64 4081.72,-161.39 4093.53,-159.05"/>
<polygon fill="midnightblue" stroke="midnightblue" points="2702.63,-206.09 2692.67,-209.7 2702.7,-213.09 2702.63,-206.09"/>
</g>
<!-- Node33 -->
<g id="node28" class="node">
<title>Node33</title>
<g id="a_node28"><a xlink:href="SolidShapes_8cpp.html" target="_top" xlink:title=" ">
<polygon fill="none" stroke="black" points="4215.5,-140 4215.5,-159 4311.5,-159 4311.5,-140 4215.5,-140"/>
<text text-anchor="middle" x="4263.5" y="-147" font-family="FreeSans.ttf" font-size="10.00">SolidShapes.cpp</text>
</a>
</g>
</g>
<!-- Node1&#45;&gt;Node33 -->
<g id="edge29" class="edge">
<title>Node1&#45;&gt;Node33</title>
<path fill="none" stroke="midnightblue" d="M2702.8,-210C2910.35,-209.84 3902.22,-206.84 4205.5,-165 4215.06,-163.68 4225.33,-161.41 4234.53,-159.05"/>
<polygon fill="midnightblue" stroke="midnightblue" points="2702.69,-206.5 2692.69,-210.01 2702.69,-213.5 2702.69,-206.5"/>
</g>
<!-- Node34 -->
<g id="node29" class="node">
<title>Node34</title>
<g id="a_node29"><a xlink:href="SubModel_8cpp.html" target="_top" xlink:title=" ">
<polygon fill="none" stroke="black" points="4330,-140 4330,-159 4415,-159 4415,-140 4330,-140"/>
<text text-anchor="middle" x="4372.5" y="-147" font-family="FreeSans.ttf" font-size="10.00">SubModel.cpp</text>
</a>
</g>
</g>
<!-- Node1&#45;&gt;Node34 -->
<g id="edge30" class="edge">
<title>Node1&#45;&gt;Node34</title>
<path fill="none" stroke="midnightblue" d="M2702.87,-210.23C2919.73,-211.34 3993.81,-214.23 4320.5,-165 4329.12,-163.7 4338.34,-161.43 4346.58,-159.07"/>
<polygon fill="midnightblue" stroke="midnightblue" points="2702.65,-206.73 2692.63,-210.18 2702.61,-213.73 2702.65,-206.73"/>
</g>
<!-- Node35 -->
<g id="node30" class="node">
<title>Node35</title>
<g id="a_node30"><a xlink:href="Traversal_8cpp.html" target="_top" xlink:title=" ">
<polygon fill="none" stroke="black" points="4433,-140 4433,-159 4514,-159 4514,-140 4433,-140"/>
<text text-anchor="middle" x="4473.5" y="-147" font-family="FreeSans.ttf" font-size="10.00">Traversal.cpp</text>
</a>
</g>
</g>
<!-- Node1&#45;&gt;Node35 -->
<g id="edge31" class="edge">
<title>Node1&#45;&gt;Node35</title>
<path fill="none" stroke="midnightblue" d="M2702.82,-209.61C2944.08,-207.07 4248.28,-192.18 4423.5,-165 4431.9,-163.7 4440.87,-161.4 4448.86,-159.01"/>
<polygon fill="midnightblue" stroke="midnightblue" points="2702.74,-206.11 2692.77,-209.71 2702.81,-213.11 2702.74,-206.11"/>
</g>
<!-- Node36 -->
<g id="node31" class="node">
<title>Node36</title>
<g id="a_node31"><a xlink:href="ModelCalibrationHelper_8h.html" target="_top" xlink:title=" ">
<polygon fill="none" stroke="red" points="657.5,-6 657.5,-25 797.5,-25 797.5,-6 657.5,-6"/>
<text text-anchor="middle" x="727.5" y="-13" font-family="FreeSans.ttf" font-size="10.00">ModelCalibrationHelper.h</text>
</a>
</g>
</g>
<!-- Node1&#45;&gt;Node36 -->
<g id="edge32" class="edge">
<title>Node1&#45;&gt;Node36</title>
<path fill="none" stroke="midnightblue" d="M2626.22,-209.78C2364.35,-208.19 844.88,-197.6 753.5,-165 707.86,-148.72 688.77,-141.53 667.5,-98 661.45,-85.62 661.69,-79.49 667.5,-67 676.35,-47.99 696.26,-33.58 710.73,-25.11"/>
<polygon fill="midnightblue" stroke="midnightblue" points="2626.36,-213.28 2636.38,-209.84 2626.4,-206.28 2626.36,-213.28"/>
</g>
<!-- Node38 -->
<g id="node32" class="node">
<title>Node38</title>
<g id="a_node32"><a xlink:href="ModelExporter_8h.html" target="_top" xlink:title=" ">
<polygon fill="none" stroke="red" points="524.5,-73 524.5,-92 620.5,-92 620.5,-73 524.5,-73"/>
<text text-anchor="middle" x="572.5" y="-80" font-family="FreeSans.ttf" font-size="10.00">ModelExporter.h</text>
</a>
</g>
</g>
<!-- Node1&#45;&gt;Node38 -->
<g id="edge33" class="edge">
<title>Node1&#45;&gt;Node38</title>
<path fill="none" stroke="midnightblue" d="M2626.3,-210.09C2354.91,-210.64 726.61,-211.94 634.5,-165 603.45,-149.18 583.6,-109.81 576,-92.22"/>
<polygon fill="midnightblue" stroke="midnightblue" points="2626.45,-213.59 2636.44,-210.07 2626.44,-206.59 2626.45,-213.59"/>
</g>
<!-- Node42 -->
<g id="node33" class="node">
<title>Node42</title>
<g id="a_node33"><a xlink:href="idyntree-model-simplify-shapes_8cpp.html" target="_top" xlink:title=" ">
<polygon fill="none" stroke="black" points="505.5,-0.5 505.5,-30.5 639.5,-30.5 639.5,-0.5 505.5,-0.5"/>
<text text-anchor="start" x="513.5" y="-18.5" font-family="FreeSans.ttf" font-size="10.00">idyntree&#45;model&#45;simplify</text>
<text text-anchor="middle" x="572.5" y="-7.5" font-family="FreeSans.ttf" font-size="10.00">&#45;shapes.cpp</text>
</a>
</g>
</g>
<!-- Node1&#45;&gt;Node42 -->
<g id="edge70" class="edge">
<title>Node1&#45;&gt;Node42</title>
<path fill="none" stroke="midnightblue" d="M2626.16,-209.87C2352.01,-208.84 697.37,-201.14 598.5,-165 553.97,-148.72 535.94,-140.77 515.5,-98 509.56,-85.57 509.85,-79.56 515.5,-67 522.34,-51.81 536.25,-39.34 548.62,-30.59"/>
<polygon fill="midnightblue" stroke="midnightblue" points="2626.39,-213.37 2636.4,-209.91 2626.42,-206.37 2626.39,-213.37"/>
</g>
<!-- Node43 -->
<g id="node34" class="node">
<title>Node43</title>
<g id="a_node34"><a xlink:href="ModelLoader_8h.html" target="_top" xlink:title=" ">
<polygon fill="none" stroke="red" points="676.5,-73 676.5,-92 764.5,-92 764.5,-73 676.5,-73"/>
<text text-anchor="middle" x="720.5" y="-80" font-family="FreeSans.ttf" font-size="10.00">ModelLoader.h</text>
</a>
</g>
</g>
<!-- Node1&#45;&gt;Node43 -->
<g id="edge36" class="edge">
<title>Node1&#45;&gt;Node43</title>
<path fill="none" stroke="midnightblue" d="M2626.23,-209.91C2367.67,-209.21 884,-203.52 797.5,-165 762.47,-149.4 735.76,-109.55 725.3,-92.01"/>
<polygon fill="midnightblue" stroke="midnightblue" points="2626.26,-213.41 2636.27,-209.94 2626.27,-206.41 2626.26,-213.41"/>
</g>
<!-- Node44 -->
<g id="node35" class="node">
<title>Node44</title>
<g id="a_node35"><a xlink:href="URDFDocument_8h.html" target="_top" xlink:title=" ">
<polygon fill="none" stroke="red" points="815.5,-6 815.5,-25 919.5,-25 919.5,-6 815.5,-6"/>
<text text-anchor="middle" x="867.5" y="-13" font-family="FreeSans.ttf" font-size="10.00">URDFDocument.h</text>
</a>
</g>
</g>
<!-- Node1&#45;&gt;Node44 -->
<g id="edge47" class="edge">
<title>Node1&#45;&gt;Node44</title>
<path fill="none" stroke="midnightblue" d="M2626.02,-210.11C2461.22,-210.33 1819.66,-208.36 1741.5,-165 1695.14,-139.28 1719.68,-93.04 1673.5,-67 1657.03,-57.71 1095.85,-28.21 919.79,-19.16"/>
<polygon fill="midnightblue" stroke="midnightblue" points="2626.19,-213.61 2636.18,-210.1 2626.17,-206.61 2626.19,-213.61"/>
</g>
<!-- Node47 -->
<g id="node36" class="node">
<title>Node47</title>
<g id="a_node36"><a xlink:href="URDFDofsImport_8cpp.html" target="_top" xlink:title=" ">
<polygon fill="none" stroke="black" points="1193,-6 1193,-25 1312,-25 1312,-6 1193,-6"/>
<text text-anchor="middle" x="1252.5" y="-13" font-family="FreeSans.ttf" font-size="10.00">URDFDofsImport.cpp</text>
</a>
</g>
</g>
<!-- Node1&#45;&gt;Node47 -->
<g id="edge50" class="edge">
<title>Node1&#45;&gt;Node47</title>
<path fill="none" stroke="midnightblue" d="M2625.71,-210.09C2463.74,-210.17 1846.41,-207.67 1771.5,-165 1726.08,-139.13 1751.11,-94.23 1706.5,-67 1689.89,-56.87 1431.94,-32.59 1312.44,-21.81"/>
<polygon fill="midnightblue" stroke="midnightblue" points="2626.14,-213.59 2636.14,-210.08 2626.14,-206.59 2626.14,-213.59"/>
</g>
<!-- Node48 -->
<g id="node37" class="node">
<title>Node48</title>
<g id="a_node37"><a xlink:href="idyntree-model-info_8cpp.html" target="_top" xlink:title=" ">
<polygon fill="none" stroke="black" points="1457.5,-6 1457.5,-25 1591.5,-25 1591.5,-6 1457.5,-6"/>
<text text-anchor="middle" x="1524.5" y="-13" font-family="FreeSans.ttf" font-size="10.00">idyntree&#45;model&#45;info.cpp</text>
</a>
</g>
</g>
<!-- Node1&#45;&gt;Node48 -->
<g id="edge69" class="edge">
<title>Node1&#45;&gt;Node48</title>
<path fill="none" stroke="midnightblue" d="M2626.27,-210.18C2468.02,-210.62 1869.28,-209.33 1798.5,-165 1756.35,-138.6 1784.2,-96.95 1744.5,-67 1719.94,-48.47 1642.76,-33.68 1586.74,-25"/>
<polygon fill="midnightblue" stroke="midnightblue" points="2626.48,-213.68 2636.47,-210.14 2626.45,-206.68 2626.48,-213.68"/>
</g>
<!-- Node49 -->
<g id="node38" class="node">
<title>Node49</title>
<g id="a_node38"><a xlink:href="idyntree-model-view_8cpp.html" target="_top" xlink:title=" ">
<polygon fill="none" stroke="black" points="1674,-6 1674,-25 1811,-25 1811,-6 1674,-6"/>
<text text-anchor="middle" x="1742.5" y="-13" font-family="FreeSans.ttf" font-size="10.00">idyntree&#45;model&#45;view.cpp</text>
</a>
</g>
</g>
<!-- Node1&#45;&gt;Node49 -->
<g id="edge71" class="edge">
<title>Node1&#45;&gt;Node49</title>
<path fill="none" stroke="midnightblue" d="M2626.33,-210.27C2471.05,-211.08 1891.89,-210.95 1825.5,-165 1786.39,-137.93 1807.02,-107.75 1782.5,-67 1773.04,-51.28 1759.29,-34.98 1750.62,-25.29"/>
<polygon fill="midnightblue" stroke="midnightblue" points="2626.37,-213.77 2636.35,-210.22 2626.33,-206.77 2626.37,-213.77"/>
</g>
<!-- Node50 -->
<g id="node39" class="node">
<title>Node50</title>
<g id="a_node39"><a xlink:href="InertialElement_8h.html" target="_top" xlink:title=" ">
<polygon fill="none" stroke="red" points="4571,-140 4571,-159 4672,-159 4672,-140 4571,-140"/>
<text text-anchor="middle" x="4621.5" y="-147" font-family="FreeSans.ttf" font-size="10.00">InertialElement.h</text>
</a>
</g>
</g>
<!-- Node1&#45;&gt;Node50 -->
<g id="edge45" class="edge">
<title>Node1&#45;&gt;Node50</title>
<path fill="none" stroke="midnightblue" d="M2702.6,-210.11C2936.35,-210.63 4178.89,-211.16 4556.5,-165 4567.17,-163.7 4578.67,-161.42 4588.98,-159.06"/>
<polygon fill="midnightblue" stroke="midnightblue" points="2702.55,-206.61 2692.54,-210.09 2702.53,-213.61 2702.55,-206.61"/>
</g>
<!-- Node52 -->
<g id="node40" class="node">
<title>Node52</title>
<g id="a_node40"><a xlink:href="LinkElement_8cpp.html" target="_top" xlink:title=" ">
<polygon fill="none" stroke="black" points="4532.5,-73 4532.5,-92 4630.5,-92 4630.5,-73 4532.5,-73"/>
<text text-anchor="middle" x="4581.5" y="-80" font-family="FreeSans.ttf" font-size="10.00">LinkElement.cpp</text>
</a>
</g>
</g>
<!-- Node1&#45;&gt;Node52 -->
<g id="edge48" class="edge">
<title>Node1&#45;&gt;Node52</title>
<path fill="none" stroke="midnightblue" d="M2702.65,-210.03C2960.37,-210.15 4439.1,-208.87 4522.5,-165 4552.8,-149.06 4571.29,-109.76 4578.29,-92.21"/>
<polygon fill="midnightblue" stroke="midnightblue" points="2702.65,-206.53 2692.64,-210.03 2702.64,-213.53 2702.65,-206.53"/>
</g>
<!-- Node53 -->
<g id="node41" class="node">
<title>Node53</title>
<g id="a_node41"><a xlink:href="RobotElement_8cpp.html" target="_top" xlink:title=" ">
<polygon fill="none" stroke="black" points="1170.5,-73 1170.5,-92 1276.5,-92 1276.5,-73 1170.5,-73"/>
<text text-anchor="middle" x="1223.5" y="-80" font-family="FreeSans.ttf" font-size="10.00">RobotElement.cpp</text>
</a>
</g>
</g>
<!-- Node1&#45;&gt;Node53 -->
<g id="edge49" class="edge">
<title>Node1&#45;&gt;Node53</title>
<path fill="none" stroke="midnightblue" d="M2626.02,-209.73C2451.42,-208.3 1732.57,-200.34 1510.5,-165 1409.99,-149 1294.68,-109.55 1246.51,-92.07"/>
<polygon fill="midnightblue" stroke="midnightblue" points="2626.24,-213.23 2636.26,-209.81 2626.29,-206.23 2626.24,-213.23"/>
</g>
<!-- Node41 -->
<g id="node42" class="node">
<title>Node41</title>
<g id="a_node42"><a xlink:href="URDFModelExport_8cpp.html" target="_top" xlink:title=" ">
<polygon fill="none" stroke="black" points="4690.5,-140 4690.5,-159 4816.5,-159 4816.5,-140 4690.5,-140"/>
<text text-anchor="middle" x="4753.5" y="-147" font-family="FreeSans.ttf" font-size="10.00">URDFModelExport.cpp</text>
</a>
</g>
</g>
<!-- Node1&#45;&gt;Node41 -->
<g id="edge51" class="edge">
<title>Node1&#45;&gt;Node41</title>
<path fill="none" stroke="midnightblue" d="M2702.75,-210.05C2945.69,-210.26 4276.3,-209.31 4680.5,-165 4692.45,-163.69 4705.35,-161.42 4716.93,-159.06"/>
<polygon fill="midnightblue" stroke="midnightblue" points="2702.65,-206.55 2692.65,-210.04 2702.64,-213.55 2702.65,-206.55"/>
</g>
<!-- Node54 -->
<g id="node43" class="node">
<title>Node54</title>
<g id="a_node43"><a xlink:href="Sensors_8h.html" target="_top" xlink:title=" ">
<polygon fill="none" stroke="red" points="806.5,-140 806.5,-159 870.5,-159 870.5,-140 806.5,-140"/>
<text text-anchor="middle" x="838.5" y="-147" font-family="FreeSans.ttf" font-size="10.00">Sensors.h</text>
</a>
</g>
</g>
<!-- Node1&#45;&gt;Node54 -->
<g id="edge52" class="edge">
<title>Node1&#45;&gt;Node54</title>
<path fill="none" stroke="midnightblue" d="M2626.32,-209.52C2405.88,-206.66 1293.77,-191.12 952.5,-165 924.85,-162.88 893.62,-158.79 870.84,-155.49"/>
<polygon fill="midnightblue" stroke="midnightblue" points="2626.38,-213.02 2636.43,-209.65 2626.47,-206.02 2626.38,-213.02"/>
</g>
<!-- Node69 -->
<g id="node44" class="node">
<title>Node69</title>
<g id="a_node44"><a xlink:href="ModelSensorsTransformers_8cpp.html" target="_top" xlink:title=" ">
<polygon fill="none" stroke="black" points="1295,-73 1295,-92 1464,-92 1464,-73 1295,-73"/>
<text text-anchor="middle" x="1379.5" y="-80" font-family="FreeSans.ttf" font-size="10.00">ModelSensorsTransformers.cpp</text>
</a>
</g>
</g>
<!-- Node1&#45;&gt;Node69 -->
<g id="edge64" class="edge">
<title>Node1&#45;&gt;Node69</title>
<path fill="none" stroke="midnightblue" d="M2626.06,-209.78C2462.12,-208.61 1820.66,-201.75 1622.5,-165 1536.53,-149.06 1439.37,-109.57 1398.85,-92.08"/>
<polygon fill="midnightblue" stroke="midnightblue" points="2626.14,-213.28 2636.16,-209.85 2626.19,-206.28 2626.14,-213.28"/>
</g>
<!-- Node64 -->
<g id="node45" class="node">
<title>Node64</title>
<g id="a_node45"><a xlink:href="PredictSensorsMeasurements_8cpp.html" target="_top" xlink:title=" ">
<polygon fill="none" stroke="black" points="1482.5,-73 1482.5,-92 1664.5,-92 1664.5,-73 1482.5,-73"/>
<text text-anchor="middle" x="1573.5" y="-80" font-family="FreeSans.ttf" font-size="10.00">PredictSensorsMeasurements.cpp</text>
</a>
</g>
</g>
<!-- Node1&#45;&gt;Node64 -->
<g id="edge65" class="edge">
<title>Node1&#45;&gt;Node64</title>
<path fill="none" stroke="midnightblue" d="M2626.49,-209.62C2456.28,-207.75 1768.57,-198.17 1678.5,-165 1636.06,-149.37 1597.06,-109.9 1581.11,-92.26"/>
<polygon fill="midnightblue" stroke="midnightblue" points="2626.45,-213.12 2636.49,-209.73 2626.53,-206.12 2626.45,-213.12"/>
</g>
<!-- Node75 -->
<g id="node46" class="node">
<title>Node75</title>
<g id="a_node46"><a xlink:href="InertialParametersSolidShapesHelpers_8h.html" target="_top" xlink:title=" ">
<polygon fill="none" stroke="red" points="4872.5,-134.5 4872.5,-164.5 5038.5,-164.5 5038.5,-134.5 4872.5,-134.5"/>
<text text-anchor="start" x="4880.5" y="-152.5" font-family="FreeSans.ttf" font-size="10.00">InertialParametersSolidShapes</text>
<text text-anchor="middle" x="4955.5" y="-141.5" font-family="FreeSans.ttf" font-size="10.00">Helpers.h</text>
</a>
</g>
</g>
<!-- Node1&#45;&gt;Node75 -->
<g id="edge66" class="edge">
<title>Node1&#45;&gt;Node75</title>
<path fill="none" stroke="midnightblue" d="M2702.83,-209.89C2958.13,-209.02 4415.72,-202.48 4858.5,-165 4863,-164.62 4867.6,-164.16 4872.24,-163.65"/>
<polygon fill="midnightblue" stroke="midnightblue" points="2702.57,-206.39 2692.58,-209.92 2702.59,-213.39 2702.57,-206.39"/>
</g>
<!-- Node77 -->
<g id="node47" class="node">
<title>Node77</title>
<g id="a_node47"><a xlink:href="ModelTransformersSolidShapes_8cpp.html" target="_top" xlink:title=" ">
<polygon fill="none" stroke="black" points="4804.5,-73 4804.5,-92 4994.5,-92 4994.5,-73 4804.5,-73"/>
<text text-anchor="middle" x="4899.5" y="-80" font-family="FreeSans.ttf" font-size="10.00">ModelTransformersSolidShapes.cpp</text>
</a>
</g>
</g>
<!-- Node1&#45;&gt;Node77 -->
<g id="edge68" class="edge">
<title>Node1&#45;&gt;Node77</title>
<path fill="none" stroke="midnightblue" d="M2702.9,-210.06C2984.7,-210.41 4725.08,-210.72 4825.5,-165 4842.98,-157.04 4878.63,-111.34 4893.14,-92.07"/>
<polygon fill="midnightblue" stroke="midnightblue" points="2702.76,-206.56 2692.76,-210.05 2702.75,-213.56 2702.76,-206.56"/>
</g>
<!-- Node78 -->
<g id="node48" class="node">
<title>Node78</title>
<g id="a_node48"><a xlink:href="DummyImplementations_8h.html" target="_top" xlink:title=" ">
<polygon fill="none" stroke="red" points="5056.5,-140 5056.5,-159 5204.5,-159 5204.5,-140 5056.5,-140"/>
<text text-anchor="middle" x="5130.5" y="-147" font-family="FreeSans.ttf" font-size="10.00">DummyImplementations.h</text>
</a>
</g>
</g>
<!-- Node1&#45;&gt;Node78 -->
<g id="edge72" class="edge">
<title>Node1&#45;&gt;Node78</title>
<path fill="none" stroke="midnightblue" d="M2702.75,-210.09C2970.31,-210.57 4565.09,-211.41 5047.5,-165 5061.04,-163.7 5075.7,-161.43 5088.87,-159.06"/>
<polygon fill="midnightblue" stroke="midnightblue" points="2702.75,-206.59 2692.74,-210.07 2702.74,-213.59 2702.75,-206.59"/>
</g>
<!-- Node86 -->
<g id="node49" class="node">
<title>Node86</title>
<g id="a_node49"><a xlink:href="JetsVisualization_8cpp.html" target="_top" xlink:title=" ">
<polygon fill="none" stroke="black" points="5222.5,-140 5222.5,-159 5340.5,-159 5340.5,-140 5222.5,-140"/>
<text text-anchor="middle" x="5281.5" y="-147" font-family="FreeSans.ttf" font-size="10.00">JetsVisualization.cpp</text>
</a>
</g>
</g>
<!-- Node1&#45;&gt;Node86 -->
<g id="edge73" class="edge">
<title>Node1&#45;&gt;Node86</title>
<path fill="none" stroke="midnightblue" d="M2703.2,-209.77C3003.28,-207.9 4953.83,-194.7 5213.5,-165 5224.77,-163.71 5236.94,-161.41 5247.81,-159.02"/>
<polygon fill="midnightblue" stroke="midnightblue" points="2702.82,-206.27 2692.84,-209.83 2702.86,-213.27 2702.82,-206.27"/>
</g>
<!-- Node87 -->
<g id="node50" class="node">
<title>Node87</title>
<g id="a_node50"><a xlink:href="ModelVisualization_8cpp.html" target="_top" xlink:title=" ">
<polygon fill="none" stroke="black" points="5358.5,-140 5358.5,-159 5488.5,-159 5488.5,-140 5358.5,-140"/>
<text text-anchor="middle" x="5423.5" y="-147" font-family="FreeSans.ttf" font-size="10.00">ModelVisualization.cpp</text>
</a>
</g>
</g>
<!-- Node1&#45;&gt;Node87 -->
<g id="edge74" class="edge">
<title>Node1&#45;&gt;Node87</title>
<path fill="none" stroke="midnightblue" d="M2702.85,-209.77C3010.68,-207.85 5075.01,-193.96 5349.5,-165 5361.74,-163.71 5374.97,-161.41 5386.81,-159.02"/>
<polygon fill="midnightblue" stroke="midnightblue" points="2702.62,-206.27 2692.64,-209.83 2702.66,-213.27 2702.62,-206.27"/>
</g>
<!-- Node2&#45;&gt;Node3 -->
<g id="edge2" class="edge">
<title>Node2&#45;&gt;Node3</title>
<path fill="none" stroke="midnightblue" d="M370.59,-59.74C379.02,-50.12 388.69,-39.09 396.16,-30.58"/>
<polygon fill="midnightblue" stroke="midnightblue" points="367.83,-57.57 363.87,-67.4 373.09,-62.18 367.83,-57.57"/>
</g>
<!-- Node5 -->
<g id="node5" class="node">
<title>Node5</title>
<g id="a_node5"><a xlink:href="GravityCompensationHelpers_8cpp.html" target="_top" xlink:title=" ">
<polygon fill="none" stroke="black" points="1835,-73 1835,-92 2016,-92 2016,-73 1835,-73"/>
<text text-anchor="middle" x="1925.5" y="-80" font-family="FreeSans.ttf" font-size="10.00">GravityCompensationHelpers.cpp</text>
</a>
</g>
</g>
<!-- Node4&#45;&gt;Node5 -->
<g id="edge4" class="edge">
<title>Node4&#45;&gt;Node5</title>
<path fill="none" stroke="midnightblue" d="M1921.25,-129.54C1922.39,-117.17 1923.83,-101.62 1924.7,-92.13"/>
<polygon fill="midnightblue" stroke="midnightblue" points="1917.74,-129.45 1920.31,-139.73 1924.71,-130.1 1917.74,-129.45"/>
</g>
<!-- Node7 -->
<g id="node7" class="node">
<title>Node7</title>
<g id="a_node7"><a xlink:href="SimpleLeggedOdometry_8cpp.html" target="_top" xlink:title=" ">
<polygon fill="none" stroke="black" points="0,-6 0,-25 153,-25 153,-6 0,-6"/>
<text text-anchor="middle" x="76.5" y="-13" font-family="FreeSans.ttf" font-size="10.00">SimpleLeggedOdometry.cpp</text>
</a>
</g>
</g>
<!-- Node6&#45;&gt;Node7 -->
<g id="edge6" class="edge">
<title>Node6&#45;&gt;Node7</title>
<path fill="none" stroke="midnightblue" d="M87.93,-62.91C84.87,-50.49 80.98,-34.72 78.62,-25.13"/>
<polygon fill="midnightblue" stroke="midnightblue" points="84.55,-63.86 90.34,-72.73 91.35,-62.19 84.55,-63.86"/>
</g>
<!-- Node12 -->
<g id="node12" class="node">
<title>Node12</title>
<g id="a_node12"><a xlink:href="skinDynLibConversions_8h.html" target="_top" xlink:title=" ">
<polygon fill="none" stroke="black" points="2061.5,-73 2061.5,-92 2201.5,-92 2201.5,-73 2061.5,-73"/>
<text text-anchor="middle" x="2131.5" y="-80" font-family="FreeSans.ttf" font-size="10.00">skinDynLibConversions.h</text>
</a>
</g>
</g>
<!-- Node11&#45;&gt;Node12 -->
<g id="edge12" class="edge">
<title>Node11&#45;&gt;Node12</title>
<path fill="none" stroke="midnightblue" d="M2125.3,-129.54C2124.24,-117.17 2124.72,-101.62 2126.74,-92.13"/>
<polygon fill="midnightblue" stroke="midnightblue" points="2121.87,-130.31 2126.71,-139.73 2128.81,-129.35 2121.87,-130.31"/>
</g>
<!-- Node12&#45;&gt;Node11 -->
<g id="edge13" class="edge">
<title>Node12&#45;&gt;Node11</title>
<path fill="none" stroke="midnightblue" d="M2137.68,-102.28C2138.76,-114.62 2138.3,-130.18 2136.29,-139.73"/>
<polygon fill="midnightblue" stroke="midnightblue" points="2141.12,-101.54 2136.26,-92.13 2134.18,-102.52 2141.12,-101.54"/>
</g>
<!-- Node38&#45;&gt;Node36 -->
<g id="edge34" class="edge">
<title>Node38&#45;&gt;Node36</title>
<path fill="none" stroke="midnightblue" d="M602.43,-68.95C633.12,-56.08 680.04,-36.4 706.83,-25.17"/>
<polygon fill="midnightblue" stroke="midnightblue" points="600.95,-65.77 593.08,-72.87 603.66,-72.23 600.95,-65.77"/>
</g>
<!-- Node38&#45;&gt;Node42 -->
<g id="edge35" class="edge">
<title>Node38&#45;&gt;Node42</title>
<path fill="none" stroke="midnightblue" d="M572.5,-62.41C572.5,-52.22 572.5,-39.9 572.5,-30.59"/>
<polygon fill="midnightblue" stroke="midnightblue" points="569,-62.73 572.5,-72.73 576,-62.73 569,-62.73"/>
</g>
<!-- Node43&#45;&gt;Node3 -->
<g id="edge37" class="edge">
<title>Node43&#45;&gt;Node3</title>
<path fill="none" stroke="midnightblue" d="M669.58,-70.89C616.84,-59.9 534.14,-42.68 475.98,-30.56"/>
<polygon fill="midnightblue" stroke="midnightblue" points="668.89,-74.32 679.39,-72.94 670.31,-67.47 668.89,-74.32"/>
</g>
<!-- Node43&#45;&gt;Node7 -->
<g id="edge38" class="edge">
<title>Node43&#45;&gt;Node7</title>
<path fill="none" stroke="midnightblue" d="M666.23,-72.11C654.16,-70.23 641.42,-68.41 629.5,-67 422.76,-42.6 369.12,-56.33 162.5,-31 149.42,-29.4 135.3,-27.21 122.36,-25.02"/>
<polygon fill="midnightblue" stroke="midnightblue" points="665.74,-75.58 676.17,-73.7 666.84,-68.67 665.74,-75.58"/>
</g>
<!-- Node43&#45;&gt;Node10 -->
<g id="edge39" class="edge">
<title>Node43&#45;&gt;Node10</title>
<path fill="none" stroke="midnightblue" d="M666.18,-72.46C654.12,-70.56 641.39,-68.64 629.5,-67 492.53,-48.12 457.24,-51.49 320.5,-31 309.05,-29.28 296.73,-27.16 285.29,-25.07"/>
<polygon fill="midnightblue" stroke="midnightblue" points="665.7,-75.93 676.12,-74.05 666.8,-69.02 665.7,-75.93"/>
</g>
<!-- Node43&#45;&gt;Node42 -->
<g id="edge43" class="edge">
<title>Node43&#45;&gt;Node42</title>
<path fill="none" stroke="midnightblue" d="M691.51,-68.77C666.46,-57.77 630.31,-41.89 604.44,-30.53"/>
<polygon fill="midnightblue" stroke="midnightblue" points="690.28,-72.05 700.85,-72.87 693.1,-65.64 690.28,-72.05"/>
</g>
<!-- Node43&#45;&gt;Node44 -->
<g id="edge40" class="edge">
<title>Node43&#45;&gt;Node44</title>
<path fill="none" stroke="midnightblue" d="M749.26,-68.78C778.38,-55.91 822.6,-36.35 847.9,-25.17"/>
<polygon fill="midnightblue" stroke="midnightblue" points="747.75,-65.62 740.02,-72.87 750.58,-72.03 747.75,-65.62"/>
</g>
<!-- Node43&#45;&gt;Node47 -->
<g id="edge41" class="edge">
<title>Node43&#45;&gt;Node47</title>
<path fill="none" stroke="midnightblue" d="M775.17,-74.82C875.55,-62.56 1088.47,-36.54 1192.62,-23.82"/>
<polygon fill="midnightblue" stroke="midnightblue" points="774.44,-71.38 764.94,-76.07 775.29,-78.33 774.44,-71.38"/>
</g>
<!-- Node43&#45;&gt;Node48 -->
<g id="edge42" class="edge">
<title>Node43&#45;&gt;Node48</title>
<path fill="none" stroke="midnightblue" d="M774.58,-74.97C797.65,-72.3 824.87,-69.3 849.5,-67 908.88,-61.44 1298.53,-32.94 1457.32,-21.38"/>
<polygon fill="midnightblue" stroke="midnightblue" points="774.17,-71.49 764.64,-76.13 774.98,-78.44 774.17,-71.49"/>
</g>
<!-- Node43&#45;&gt;Node49 -->
<g id="edge44" class="edge">
<title>Node43&#45;&gt;Node49</title>
<path fill="none" stroke="midnightblue" d="M774.56,-74.64C797.62,-71.92 824.84,-68.97 849.5,-67 1182.59,-40.32 1267.27,-55.98 1600.5,-31 1624.47,-29.2 1650.66,-26.69 1673.95,-24.25"/>
<polygon fill="midnightblue" stroke="midnightblue" points="774.13,-71.17 764.61,-75.83 774.96,-78.12 774.13,-71.17"/>
</g>
<!-- Node50&#45;&gt;Node52 -->
<g id="edge46" class="edge">
<title>Node50&#45;&gt;Node52</title>
<path fill="none" stroke="midnightblue" d="M4610.75,-131.03C4603.01,-118.45 4592.89,-102.01 4586.81,-92.13"/>
<polygon fill="midnightblue" stroke="midnightblue" points="4607.88,-133.05 4616.11,-139.73 4613.85,-129.38 4607.88,-133.05"/>
</g>
<!-- Node54&#45;&gt;Node2 -->
<g id="edge53" class="edge">
<title>Node54&#45;&gt;Node2</title>
<path fill="none" stroke="midnightblue" d="M795.79,-142.8C714.2,-131.91 535.06,-108 430.88,-94.1"/>
<polygon fill="midnightblue" stroke="midnightblue" points="795.79,-146.33 806.17,-144.18 796.72,-139.39 795.79,-146.33"/>
</g>
<!-- Node54&#45;&gt;Node3 -->
<g id="edge56" class="edge">
<title>Node54&#45;&gt;Node3</title>
<path fill="none" stroke="midnightblue" d="M796.33,-148.42C732.88,-146.89 610.21,-138.38 515.5,-98 477.69,-81.88 441.3,-49.4 422.24,-30.68"/>
<polygon fill="midnightblue" stroke="midnightblue" points="796.29,-151.92 806.36,-148.62 796.43,-144.92 796.29,-151.92"/>
</g>
<!-- Node54&#45;&gt;Node8 -->
<g id="edge54" class="edge">
<title>Node54&#45;&gt;Node8</title>
<path fill="none" stroke="midnightblue" d="M855.11,-132.86C868.67,-120.08 887.34,-102.49 898.34,-92.13"/>
<polygon fill="midnightblue" stroke="midnightblue" points="852.68,-130.33 847.81,-139.73 857.48,-135.42 852.68,-130.33"/>
</g>
<!-- Node54&#45;&gt;Node9 -->
<g id="edge55" class="edge">
<title>Node54&#45;&gt;Node9</title>
<path fill="none" stroke="midnightblue" d="M877.99,-137.09C922.5,-124.23 993.86,-103.62 1033.86,-92.06"/>
<polygon fill="midnightblue" stroke="midnightblue" points="877.01,-133.73 868.38,-139.87 878.96,-140.46 877.01,-133.73"/>
</g>
<!-- Node54&#45;&gt;Node36 -->
<g id="edge57" class="edge">
<title>Node54&#45;&gt;Node36</title>
<path fill="none" stroke="midnightblue" d="M825.53,-131.58C812.63,-114.91 792.13,-88.85 773.5,-67 760.73,-52.02 745.18,-35.23 735.82,-25.28"/>
<polygon fill="midnightblue" stroke="midnightblue" points="822.97,-134 831.85,-139.78 828.52,-129.73 822.97,-134"/>
</g>
<!-- Node54&#45;&gt;Node38 -->
<g id="edge58" class="edge">
<title>Node54&#45;&gt;Node38</title>
<path fill="none" stroke="midnightblue" d="M796.49,-138.23C744.35,-125.49 656.39,-104 607.66,-92.09"/>
<polygon fill="midnightblue" stroke="midnightblue" points="795.87,-141.69 806.41,-140.66 797.53,-134.89 795.87,-141.69"/>
</g>
<!-- Node54&#45;&gt;Node43 -->
<g id="edge59" class="edge">
<title>Node54&#45;&gt;Node43</title>
<path fill="none" stroke="midnightblue" d="M813.61,-134.79C790.22,-121.9 755.94,-103.02 736.16,-92.13"/>
<polygon fill="midnightblue" stroke="midnightblue" points="812.14,-137.97 822.59,-139.73 815.52,-131.84 812.14,-137.97"/>
</g>
<!-- Node54&#45;&gt;Node44 -->
<g id="edge60" class="edge">
<title>Node54&#45;&gt;Node44</title>
<path fill="none" stroke="midnightblue" d="M839.91,-129.76C841.43,-113.11 844.35,-88.19 849.5,-67 853.15,-51.99 859.63,-35.21 863.74,-25.27"/>
<polygon fill="midnightblue" stroke="midnightblue" points="836.42,-129.57 839.08,-139.82 843.39,-130.15 836.42,-129.57"/>
</g>
<!-- Node54&#45;&gt;Node53 -->
<g id="edge61" class="edge">
<title>Node54&#45;&gt;Node53</title>
<path fill="none" stroke="midnightblue" d="M880.89,-142.9C942.79,-134.49 1061.44,-117.49 1161.5,-98 1170.51,-96.25 1180.19,-94.1 1189.16,-92.01"/>
<polygon fill="midnightblue" stroke="midnightblue" points="880.17,-139.47 870.73,-144.27 881.11,-146.4 880.17,-139.47"/>
</g>
<!-- Node54&#45;&gt;Node69 -->
<g id="edge62" class="edge">
<title>Node54&#45;&gt;Node69</title>
<path fill="none" stroke="midnightblue" d="M880.62,-144.32C959.96,-136.31 1136.96,-117.84 1285.5,-98 1298.92,-96.21 1313.39,-94.08 1326.86,-92.01"/>
<polygon fill="midnightblue" stroke="midnightblue" points="880.13,-140.85 870.53,-145.33 880.83,-147.81 880.13,-140.85"/>
</g>
<!-- Node54&#45;&gt;Node64 -->
<g id="edge63" class="edge">
<title>Node54&#45;&gt;Node64</title>
<path fill="none" stroke="midnightblue" d="M880.76,-146.06C982.71,-139.97 1250.19,-122.79 1472.5,-98 1487.46,-96.33 1503.63,-94.17 1518.54,-92.03"/>
<polygon fill="midnightblue" stroke="midnightblue" points="880.34,-142.58 870.56,-146.66 880.75,-149.57 880.34,-142.58"/>
</g>
<!-- Node75&#45;&gt;Node77 -->
<g id="edge67" class="edge">
<title>Node75&#45;&gt;Node77</title>
<path fill="none" stroke="midnightblue" d="M4936.68,-126.66C4926.52,-114.86 4914.55,-100.97 4906.99,-92.19"/>
<polygon fill="midnightblue" stroke="midnightblue" points="4934.17,-129.1 4943.35,-134.4 4939.47,-124.54 4934.17,-129.1"/>
</g>
</g>
</svg>
