<?xml version="1.0" encoding="UTF-8" standalone="no"?>
<!DOCTYPE svg PUBLIC "-//W3C//DTD SVG 1.1//EN"
 "http://www.w3.org/Graphics/SVG/1.1/DTD/svg11.dtd">
<!-- Generated by graphviz version 2.43.0 (0)
 -->
<!-- Title: MotionVector3.h Pages: 1 -->
<svg width="934pt" height="252pt"
 viewBox="0.00 0.00 934.00 252.00" xmlns="http://www.w3.org/2000/svg" xmlns:xlink="http://www.w3.org/1999/xlink">
<g id="graph0" class="graph" transform="scale(1 1) rotate(0) translate(4 248)">
<title>MotionVector3.h</title>
<!-- Node1 -->
<g id="node1" class="node">
<title>Node1</title>
<g id="a_node1"><a xlink:title=" ">
<polygon fill="#bfbfbf" stroke="black" points="614,-224.5 614,-243.5 710,-243.5 710,-224.5 614,-224.5"/>
<text text-anchor="middle" x="662" y="-231.5" font-family="FreeSans.ttf" font-size="10.00">MotionVector3.h</text>
</a>
</g>
</g>
<!-- Node2 -->
<g id="node2" class="node">
<title>Node2</title>
<g id="a_node2"><a xlink:href="GeomVector3_8h.html" target="_top" xlink:title=" ">
<polygon fill="none" stroke="black" points="580.5,-168.5 580.5,-187.5 743.5,-187.5 743.5,-168.5 580.5,-168.5"/>
<text text-anchor="middle" x="662" y="-175.5" font-family="FreeSans.ttf" font-size="10.00">iDynTree/Core/GeomVector3.h</text>
</a>
</g>
</g>
<!-- Node1&#45;&gt;Node2 -->
<g id="edge1" class="edge">
<title>Node1&#45;&gt;Node2</title>
<path fill="none" stroke="midnightblue" d="M662,-224.08C662,-217.01 662,-206.86 662,-197.99"/>
<polygon fill="midnightblue" stroke="midnightblue" points="665.5,-197.75 662,-187.75 658.5,-197.75 665.5,-197.75"/>
</g>
<!-- Node3 -->
<g id="node3" class="node">
<title>Node3</title>
<g id="a_node3"><a xlink:href="VectorFixSize_8h.html" target="_top" xlink:title=" ">
<polygon fill="none" stroke="black" points="581,-112.5 581,-131.5 743,-131.5 743,-112.5 581,-112.5"/>
<text text-anchor="middle" x="662" y="-119.5" font-family="FreeSans.ttf" font-size="10.00">iDynTree/Core/VectorFixSize.h</text>
</a>
</g>
</g>
<!-- Node2&#45;&gt;Node3 -->
<g id="edge2" class="edge">
<title>Node2&#45;&gt;Node3</title>
<path fill="none" stroke="midnightblue" d="M662,-168.08C662,-161.01 662,-150.86 662,-141.99"/>
<polygon fill="midnightblue" stroke="midnightblue" points="665.5,-141.75 662,-131.75 658.5,-141.75 665.5,-141.75"/>
</g>
<!-- Node4 -->
<g id="node4" class="node">
<title>Node4</title>
<g id="a_node4"><a xlink:href="Utils_8h.html" target="_top" xlink:title=" ">
<polygon fill="none" stroke="black" points="602.5,-56.5 602.5,-75.5 721.5,-75.5 721.5,-56.5 602.5,-56.5"/>
<text text-anchor="middle" x="662" y="-63.5" font-family="FreeSans.ttf" font-size="10.00">iDynTree/Core/Utils.h</text>
</a>
</g>
</g>
<!-- Node3&#45;&gt;Node4 -->
<g id="edge3" class="edge">
<title>Node3&#45;&gt;Node4</title>
<path fill="none" stroke="midnightblue" d="M662,-112.08C662,-105.01 662,-94.86 662,-85.99"/>
<polygon fill="midnightblue" stroke="midnightblue" points="665.5,-85.75 662,-75.75 658.5,-85.75 665.5,-85.75"/>
</g>
<!-- Node5 -->
<g id="node5" class="node">
<title>Node5</title>
<g id="a_node5"><a xlink:title=" ">
<polygon fill="none" stroke="#bfbfbf" points="580.5,-0.5 580.5,-19.5 633.5,-19.5 633.5,-0.5 580.5,-0.5"/>
<text text-anchor="middle" x="607" y="-7.5" font-family="FreeSans.ttf" font-size="10.00">cstddef</text>
</a>
</g>
</g>
<!-- Node3&#45;&gt;Node5 -->
<g id="edge19" class="edge">
<title>Node3&#45;&gt;Node5</title>
<path fill="none" stroke="midnightblue" d="M638.55,-112.41C622.84,-105.28 603.38,-93.46 594,-76 586.1,-61.3 591.32,-42.39 597.34,-28.76"/>
<polygon fill="midnightblue" stroke="midnightblue" points="600.61,-30.05 601.88,-19.53 594.33,-26.95 600.61,-30.05"/>
</g>
<!-- Node7 -->
<g id="node7" class="node">
<title>Node7</title>
<g id="a_node7"><a xlink:href="Span_8h.html" target="_top" xlink:title=" ">
<polygon fill="none" stroke="black" points="291.5,-56.5 291.5,-75.5 412.5,-75.5 412.5,-56.5 291.5,-56.5"/>
<text text-anchor="middle" x="352" y="-63.5" font-family="FreeSans.ttf" font-size="10.00">iDynTree/Core/Span.h</text>
</a>
</g>
</g>
<!-- Node3&#45;&gt;Node7 -->
<g id="edge6" class="edge">
<title>Node3&#45;&gt;Node7</title>
<path fill="none" stroke="midnightblue" d="M612.88,-112.44C558.12,-102.9 469.59,-87.48 411.09,-77.29"/>
<polygon fill="midnightblue" stroke="midnightblue" points="411.34,-73.78 400.89,-75.52 410.14,-80.68 411.34,-73.78"/>
</g>
<!-- Node8 -->
<g id="node8" class="node">
<title>Node8</title>
<g id="a_node8"><a xlink:title=" ">
<polygon fill="none" stroke="#bfbfbf" points="510,-0.5 510,-19.5 562,-19.5 562,-0.5 510,-0.5"/>
<text text-anchor="middle" x="536" y="-7.5" font-family="FreeSans.ttf" font-size="10.00">cassert</text>
</a>
</g>
</g>
<!-- Node3&#45;&gt;Node8 -->
<g id="edge18" class="edge">
<title>Node3&#45;&gt;Node8</title>
<path fill="none" stroke="midnightblue" d="M642.91,-112.5C626.43,-104.57 602.59,-91.64 585,-76 569.38,-62.11 555.46,-42.58 546.48,-28.56"/>
<polygon fill="midnightblue" stroke="midnightblue" points="549.34,-26.53 541.1,-19.87 543.39,-30.21 549.34,-26.53"/>
</g>
<!-- Node16 -->
<g id="node16" class="node">
<title>Node16</title>
<g id="a_node16"><a xlink:title=" ">
<polygon fill="none" stroke="#bfbfbf" points="740,-56.5 740,-75.5 784,-75.5 784,-56.5 740,-56.5"/>
<text text-anchor="middle" x="762" y="-63.5" font-family="FreeSans.ttf" font-size="10.00">string</text>
</a>
</g>
</g>
<!-- Node3&#45;&gt;Node16 -->
<g id="edge16" class="edge">
<title>Node3&#45;&gt;Node16</title>
<path fill="none" stroke="midnightblue" d="M678.07,-112.32C693.96,-103.74 718.51,-90.49 736.96,-80.52"/>
<polygon fill="midnightblue" stroke="midnightblue" points="738.84,-83.49 745.97,-75.65 735.51,-77.33 738.84,-83.49"/>
</g>
<!-- Node17 -->
<g id="node17" class="node">
<title>Node17</title>
<g id="a_node17"><a xlink:title=" ">
<polygon fill="none" stroke="#bfbfbf" points="802,-56.5 802,-75.5 858,-75.5 858,-56.5 802,-56.5"/>
<text text-anchor="middle" x="830" y="-63.5" font-family="FreeSans.ttf" font-size="10.00">sstream</text>
</a>
</g>
</g>
<!-- Node3&#45;&gt;Node17 -->
<g id="edge17" class="edge">
<title>Node3&#45;&gt;Node17</title>
<path fill="none" stroke="midnightblue" d="M688.62,-112.44C717.01,-103.32 762.14,-88.81 793.75,-78.65"/>
<polygon fill="midnightblue" stroke="midnightblue" points="795.06,-81.91 803.5,-75.52 792.91,-75.24 795.06,-81.91"/>
</g>
<!-- Node18 -->
<g id="node18" class="node">
<title>Node18</title>
<g id="a_node18"><a xlink:title=" ">
<polygon fill="none" stroke="#bfbfbf" points="876,-56.5 876,-75.5 926,-75.5 926,-56.5 876,-56.5"/>
<text text-anchor="middle" x="901" y="-63.5" font-family="FreeSans.ttf" font-size="10.00">cstring</text>
</a>
</g>
</g>
<!-- Node3&#45;&gt;Node18 -->
<g id="edge20" class="edge">
<title>Node3&#45;&gt;Node18</title>
<path fill="none" stroke="midnightblue" d="M703.35,-112.47C742.73,-104.22 803.9,-91.09 865.84,-76.21"/>
<polygon fill="midnightblue" stroke="midnightblue" points="866.88,-79.56 875.78,-73.8 865.24,-72.75 866.88,-79.56"/>
</g>
<!-- Node4&#45;&gt;Node5 -->
<g id="edge4" class="edge">
<title>Node4&#45;&gt;Node5</title>
<path fill="none" stroke="midnightblue" d="M652.92,-56.08C644.83,-48.14 632.8,-36.34 623.09,-26.8"/>
<polygon fill="midnightblue" stroke="midnightblue" points="625.5,-24.26 615.91,-19.75 620.6,-29.25 625.5,-24.26"/>
</g>
<!-- Node6 -->
<g id="node6" class="node">
<title>Node6</title>
<g id="a_node6"><a xlink:title=" ">
<polygon fill="none" stroke="#bfbfbf" points="652,-0.5 652,-19.5 732,-19.5 732,-0.5 652,-0.5"/>
<text text-anchor="middle" x="692" y="-7.5" font-family="FreeSans.ttf" font-size="10.00">CoreExport.h</text>
</a>
</g>
</g>
<!-- Node4&#45;&gt;Node6 -->
<g id="edge5" class="edge">
<title>Node4&#45;&gt;Node6</title>
<path fill="none" stroke="midnightblue" d="M666.95,-56.08C671.1,-48.61 677.15,-37.72 682.27,-28.52"/>
<polygon fill="midnightblue" stroke="midnightblue" points="685.34,-30.19 687.14,-19.75 679.22,-26.79 685.34,-30.19"/>
</g>
<!-- Node7&#45;&gt;Node5 -->
<g id="edge10" class="edge">
<title>Node7&#45;&gt;Node5</title>
<path fill="none" stroke="midnightblue" d="M396.16,-56.5C438.4,-48.23 504.11,-35.05 570.5,-20.04"/>
<polygon fill="midnightblue" stroke="midnightblue" points="571.32,-23.44 580.29,-17.81 569.77,-16.61 571.32,-23.44"/>
</g>
<!-- Node7&#45;&gt;Node8 -->
<g id="edge7" class="edge">
<title>Node7&#45;&gt;Node8</title>
<path fill="none" stroke="midnightblue" d="M381.16,-56.44C413.44,-46.97 465.49,-31.69 500.21,-21.5"/>
<polygon fill="midnightblue" stroke="midnightblue" points="501.35,-24.82 509.96,-18.64 499.38,-18.1 501.35,-24.82"/>
</g>
<!-- Node9 -->
<g id="node9" class="node">
<title>Node9</title>
<g id="a_node9"><a xlink:title=" ">
<polygon fill="none" stroke="#bfbfbf" points="0,-0.5 0,-19.5 64,-19.5 64,-0.5 0,-0.5"/>
<text text-anchor="middle" x="32" y="-7.5" font-family="FreeSans.ttf" font-size="10.00">algorithm</text>
</a>
</g>
</g>
<!-- Node7&#45;&gt;Node9 -->
<g id="edge8" class="edge">
<title>Node7&#45;&gt;Node9</title>
<path fill="none" stroke="midnightblue" d="M293.05,-56.47C238.67,-48.39 155.48,-35.46 74.11,-20.13"/>
<polygon fill="midnightblue" stroke="midnightblue" points="74.67,-16.67 64.19,-18.25 73.37,-23.55 74.67,-16.67"/>
</g>
<!-- Node10 -->
<g id="node10" class="node">
<title>Node10</title>
<g id="a_node10"><a xlink:title=" ">
<polygon fill="none" stroke="#bfbfbf" points="82,-0.5 82,-19.5 124,-19.5 124,-0.5 82,-0.5"/>
<text text-anchor="middle" x="103" y="-7.5" font-family="FreeSans.ttf" font-size="10.00">array</text>
</a>
</g>
</g>
<!-- Node7&#45;&gt;Node10 -->
<g id="edge9" class="edge">
<title>Node7&#45;&gt;Node10</title>
<path fill="none" stroke="midnightblue" d="M304.3,-56.46C261.93,-48.6 198.13,-36.06 134.1,-20.11"/>
<polygon fill="midnightblue" stroke="midnightblue" points="134.79,-16.67 124.24,-17.63 133.08,-23.46 134.79,-16.67"/>
</g>
<!-- Node11 -->
<g id="node11" class="node">
<title>Node11</title>
<g id="a_node11"><a xlink:title=" ">
<polygon fill="none" stroke="#bfbfbf" points="142.5,-0.5 142.5,-19.5 195.5,-19.5 195.5,-0.5 142.5,-0.5"/>
<text text-anchor="middle" x="169" y="-7.5" font-family="FreeSans.ttf" font-size="10.00">iterator</text>
</a>
</g>
</g>
<!-- Node7&#45;&gt;Node11 -->
<g id="edge11" class="edge">
<title>Node7&#45;&gt;Node11</title>
<path fill="none" stroke="midnightblue" d="M323,-56.44C291.17,-47.05 240.01,-31.95 205.48,-21.77"/>
<polygon fill="midnightblue" stroke="midnightblue" points="206.36,-18.37 195.78,-18.9 204.38,-25.09 206.36,-18.37"/>
</g>
<!-- Node12 -->
<g id="node12" class="node">
<title>Node12</title>
<g id="a_node12"><a xlink:title=" ">
<polygon fill="none" stroke="#bfbfbf" points="214,-0.5 214,-19.5 258,-19.5 258,-0.5 214,-0.5"/>
<text text-anchor="middle" x="236" y="-7.5" font-family="FreeSans.ttf" font-size="10.00">limits</text>
</a>
</g>
</g>
<!-- Node7&#45;&gt;Node12 -->
<g id="edge12" class="edge">
<title>Node7&#45;&gt;Node12</title>
<path fill="none" stroke="midnightblue" d="M333.62,-56.44C314.78,-47.68 285.27,-33.94 263.62,-23.86"/>
<polygon fill="midnightblue" stroke="midnightblue" points="264.84,-20.56 254.29,-19.52 261.88,-26.91 264.84,-20.56"/>
</g>
<!-- Node13 -->
<g id="node13" class="node">
<title>Node13</title>
<g id="a_node13"><a xlink:title=" ">
<polygon fill="none" stroke="#bfbfbf" points="276.5,-0.5 276.5,-19.5 341.5,-19.5 341.5,-0.5 276.5,-0.5"/>
<text text-anchor="middle" x="309" y="-7.5" font-family="FreeSans.ttf" font-size="10.00">stdexcept</text>
</a>
</g>
</g>
<!-- Node7&#45;&gt;Node13 -->
<g id="edge13" class="edge">
<title>Node7&#45;&gt;Node13</title>
<path fill="none" stroke="midnightblue" d="M344.9,-56.08C338.76,-48.38 329.73,-37.03 322.26,-27.65"/>
<polygon fill="midnightblue" stroke="midnightblue" points="324.94,-25.39 315.97,-19.75 319.46,-29.75 324.94,-25.39"/>
</g>
<!-- Node14 -->
<g id="node14" class="node">
<title>Node14</title>
<g id="a_node14"><a xlink:title=" ">
<polygon fill="none" stroke="#bfbfbf" points="359.5,-0.5 359.5,-19.5 428.5,-19.5 428.5,-0.5 359.5,-0.5"/>
<text text-anchor="middle" x="394" y="-7.5" font-family="FreeSans.ttf" font-size="10.00">type_traits</text>
</a>
</g>
</g>
<!-- Node7&#45;&gt;Node14 -->
<g id="edge14" class="edge">
<title>Node7&#45;&gt;Node14</title>
<path fill="none" stroke="midnightblue" d="M358.94,-56.08C364.93,-48.38 373.75,-37.03 381.05,-27.65"/>
<polygon fill="midnightblue" stroke="midnightblue" points="383.82,-29.79 387.19,-19.75 378.29,-25.5 383.82,-29.79"/>
</g>
<!-- Node15 -->
<g id="node15" class="node">
<title>Node15</title>
<g id="a_node15"><a xlink:title=" ">
<polygon fill="none" stroke="#bfbfbf" points="446.5,-0.5 446.5,-19.5 491.5,-19.5 491.5,-0.5 446.5,-0.5"/>
<text text-anchor="middle" x="469" y="-7.5" font-family="FreeSans.ttf" font-size="10.00">utility</text>
</a>
</g>
</g>
<!-- Node7&#45;&gt;Node15 -->
<g id="edge15" class="edge">
<title>Node7&#45;&gt;Node15</title>
<path fill="none" stroke="midnightblue" d="M370.54,-56.44C389.62,-47.64 419.57,-33.81 441.44,-23.72"/>
<polygon fill="midnightblue" stroke="midnightblue" points="442.93,-26.88 450.55,-19.52 440,-20.53 442.93,-26.88"/>
</g>
</g>
</svg>
