<?xml version="1.0" encoding="UTF-8" standalone="no"?>
<!DOCTYPE svg PUBLIC "-//W3C//DTD SVG 1.1//EN"
 "http://www.w3.org/Graphics/SVG/1.1/DTD/svg11.dtd">
<!-- Generated by graphviz version 2.43.0 (0)
 -->
<!-- Title: OptimalControlSolver.h Pages: 1 -->
<svg width="311pt" height="140pt"
 viewBox="0.00 0.00 311.00 140.00" xmlns="http://www.w3.org/2000/svg" xmlns:xlink="http://www.w3.org/1999/xlink">
<g id="graph0" class="graph" transform="scale(1 1) rotate(0) translate(4 136)">
<title>OptimalControlSolver.h</title>
<!-- Node1 -->
<g id="node1" class="node">
<title>Node1</title>
<g id="a_node1"><a xlink:title=" ">
<polygon fill="#bfbfbf" stroke="black" points="88.5,-112.5 88.5,-131.5 218.5,-131.5 218.5,-112.5 88.5,-112.5"/>
<text text-anchor="middle" x="153.5" y="-119.5" font-family="FreeSans.ttf" font-size="10.00">OptimalControlSolver.h</text>
</a>
</g>
</g>
<!-- Node2 -->
<g id="node2" class="node">
<title>Node2</title>
<g id="a_node2"><a xlink:href="MultipleShootingSolver_8h.html" target="_top" xlink:title=" ">
<polygon fill="none" stroke="black" points="5.5,-56.5 5.5,-75.5 143.5,-75.5 143.5,-56.5 5.5,-56.5"/>
<text text-anchor="middle" x="74.5" y="-63.5" font-family="FreeSans.ttf" font-size="10.00">MultipleShootingSolver.h</text>
</a>
</g>
</g>
<!-- Node1&#45;&gt;Node2 -->
<g id="edge1" class="edge">
<title>Node1&#45;&gt;Node2</title>
<path fill="none" stroke="midnightblue" d="M132.47,-106.62C118.03,-96.76 99.36,-83.99 87.16,-75.65"/>
<polygon fill="midnightblue" stroke="midnightblue" points="130.58,-109.57 140.81,-112.32 134.53,-103.79 130.58,-109.57"/>
</g>
<!-- Node4 -->
<g id="node4" class="node">
<title>Node4</title>
<g id="a_node4"><a xlink:href="OptimalControlSolver_8cpp.html" target="_top" xlink:title=" ">
<polygon fill="none" stroke="black" points="162,-56.5 162,-75.5 303,-75.5 303,-56.5 162,-56.5"/>
<text text-anchor="middle" x="232.5" y="-63.5" font-family="FreeSans.ttf" font-size="10.00">OptimalControlSolver.cpp</text>
</a>
</g>
</g>
<!-- Node1&#45;&gt;Node4 -->
<g id="edge3" class="edge">
<title>Node1&#45;&gt;Node4</title>
<path fill="none" stroke="midnightblue" d="M174.53,-106.62C188.97,-96.76 207.64,-83.99 219.84,-75.65"/>
<polygon fill="midnightblue" stroke="midnightblue" points="172.47,-103.79 166.19,-112.32 176.42,-109.57 172.47,-103.79"/>
</g>
<!-- Node3 -->
<g id="node3" class="node">
<title>Node3</title>
<g id="a_node3"><a xlink:href="MultipleShootingSolver_8cpp.html" target="_top" xlink:title=" ">
<polygon fill="none" stroke="black" points="0,-0.5 0,-19.5 149,-19.5 149,-0.5 0,-0.5"/>
<text text-anchor="middle" x="74.5" y="-7.5" font-family="FreeSans.ttf" font-size="10.00">MultipleShootingSolver.cpp</text>
</a>
</g>
</g>
<!-- Node2&#45;&gt;Node3 -->
<g id="edge2" class="edge">
<title>Node2&#45;&gt;Node3</title>
<path fill="none" stroke="midnightblue" d="M74.5,-45.8C74.5,-36.91 74.5,-26.78 74.5,-19.75"/>
<polygon fill="midnightblue" stroke="midnightblue" points="71,-46.08 74.5,-56.08 78,-46.08 71,-46.08"/>
</g>
</g>
</svg>
