<?xml version="1.0" encoding="UTF-8" standalone="no"?>
<!DOCTYPE svg PUBLIC "-//W3C//DTD SVG 1.1//EN"
 "http://www.w3.org/Graphics/SVG/1.1/DTD/svg11.dtd">
<!-- Generated by graphviz version 2.43.0 (0)
 -->
<!-- Title: OptimizationProblem.cpp Pages: 1 -->
<svg width="325pt" height="140pt"
 viewBox="0.00 0.00 325.00 140.00" xmlns="http://www.w3.org/2000/svg" xmlns:xlink="http://www.w3.org/1999/xlink">
<g id="graph0" class="graph" transform="scale(1 1) rotate(0) translate(4 136)">
<title>OptimizationProblem.cpp</title>
<!-- Node1 -->
<g id="node1" class="node">
<title>Node1</title>
<g id="a_node1"><a xlink:title=" ">
<polygon fill="#bfbfbf" stroke="black" points="104.5,-112.5 104.5,-131.5 244.5,-131.5 244.5,-112.5 104.5,-112.5"/>
<text text-anchor="middle" x="174.5" y="-119.5" font-family="FreeSans.ttf" font-size="10.00">OptimizationProblem.cpp</text>
</a>
</g>
</g>
<!-- Node2 -->
<g id="node2" class="node">
<title>Node2</title>
<g id="a_node2"><a xlink:href="OptimizationProblem_8h.html" target="_top" xlink:title=" ">
<polygon fill="none" stroke="black" points="5,-56.5 5,-75.5 180,-75.5 180,-56.5 5,-56.5"/>
<text text-anchor="middle" x="92.5" y="-63.5" font-family="FreeSans.ttf" font-size="10.00">iDynTree/OptimizationProblem.h</text>
</a>
</g>
</g>
<!-- Node1&#45;&gt;Node2 -->
<g id="edge1" class="edge">
<title>Node1&#45;&gt;Node2</title>
<path fill="none" stroke="midnightblue" d="M161.33,-112.32C148.65,-103.98 129.27,-91.21 114.29,-81.35"/>
<polygon fill="midnightblue" stroke="midnightblue" points="115.92,-78.23 105.64,-75.65 112.07,-84.08 115.92,-78.23"/>
</g>
<!-- Node6 -->
<g id="node6" class="node">
<title>Node6</title>
<g id="a_node6"><a xlink:href="Utils_8h.html" target="_top" xlink:title=" ">
<polygon fill="none" stroke="black" points="198,-56.5 198,-75.5 317,-75.5 317,-56.5 198,-56.5"/>
<text text-anchor="middle" x="257.5" y="-63.5" font-family="FreeSans.ttf" font-size="10.00">iDynTree/Core/Utils.h</text>
</a>
</g>
</g>
<!-- Node1&#45;&gt;Node6 -->
<g id="edge5" class="edge">
<title>Node1&#45;&gt;Node6</title>
<path fill="none" stroke="midnightblue" d="M187.84,-112.32C200.66,-103.98 220.28,-91.21 235.44,-81.35"/>
<polygon fill="midnightblue" stroke="midnightblue" points="237.72,-84.04 244.2,-75.65 233.91,-78.17 237.72,-84.04"/>
</g>
<!-- Node3 -->
<g id="node3" class="node">
<title>Node3</title>
<g id="a_node3"><a xlink:title=" ">
<polygon fill="none" stroke="#bfbfbf" points="0,-0.5 0,-19.5 47,-19.5 47,-0.5 0,-0.5"/>
<text text-anchor="middle" x="23.5" y="-7.5" font-family="FreeSans.ttf" font-size="10.00">vector</text>
</a>
</g>
</g>
<!-- Node2&#45;&gt;Node3 -->
<g id="edge2" class="edge">
<title>Node2&#45;&gt;Node3</title>
<path fill="none" stroke="midnightblue" d="M81.41,-56.32C71.01,-48.18 55.24,-35.84 42.78,-26.09"/>
<polygon fill="midnightblue" stroke="midnightblue" points="44.82,-23.24 34.79,-19.83 40.51,-28.75 44.82,-23.24"/>
</g>
<!-- Node4 -->
<g id="node4" class="node">
<title>Node4</title>
<g id="a_node4"><a xlink:title=" ">
<polygon fill="none" stroke="#bfbfbf" points="65.5,-0.5 65.5,-19.5 123.5,-19.5 123.5,-0.5 65.5,-0.5"/>
<text text-anchor="middle" x="94.5" y="-7.5" font-family="FreeSans.ttf" font-size="10.00">memory</text>
</a>
</g>
</g>
<!-- Node2&#45;&gt;Node4 -->
<g id="edge3" class="edge">
<title>Node2&#45;&gt;Node4</title>
<path fill="none" stroke="midnightblue" d="M92.83,-56.08C93.09,-49.01 93.47,-38.86 93.8,-29.99"/>
<polygon fill="midnightblue" stroke="midnightblue" points="97.3,-29.87 94.18,-19.75 90.31,-29.61 97.3,-29.87"/>
</g>
<!-- Node5 -->
<g id="node5" class="node">
<title>Node5</title>
<g id="a_node5"><a xlink:title=" ">
<polygon fill="none" stroke="#bfbfbf" points="145,-0.5 145,-19.5 198,-19.5 198,-0.5 145,-0.5"/>
<text text-anchor="middle" x="171.5" y="-7.5" font-family="FreeSans.ttf" font-size="10.00">cstddef</text>
</a>
</g>
</g>
<!-- Node2&#45;&gt;Node5 -->
<g id="edge4" class="edge">
<title>Node2&#45;&gt;Node5</title>
<path fill="none" stroke="midnightblue" d="M105.19,-56.32C117.4,-47.98 136.08,-35.21 150.5,-25.35"/>
<polygon fill="midnightblue" stroke="midnightblue" points="152.56,-28.19 158.84,-19.65 148.61,-22.41 152.56,-28.19"/>
</g>
<!-- Node6&#45;&gt;Node5 -->
<g id="edge6" class="edge">
<title>Node6&#45;&gt;Node5</title>
<path fill="none" stroke="midnightblue" d="M243.68,-56.32C230.27,-47.9 209.68,-34.97 193.91,-25.07"/>
<polygon fill="midnightblue" stroke="midnightblue" points="195.61,-22.01 185.28,-19.65 191.89,-27.94 195.61,-22.01"/>
</g>
<!-- Node7 -->
<g id="node7" class="node">
<title>Node7</title>
<g id="a_node7"><a xlink:title=" ">
<polygon fill="none" stroke="#bfbfbf" points="217.5,-0.5 217.5,-19.5 297.5,-19.5 297.5,-0.5 217.5,-0.5"/>
<text text-anchor="middle" x="257.5" y="-7.5" font-family="FreeSans.ttf" font-size="10.00">CoreExport.h</text>
</a>
</g>
</g>
<!-- Node6&#45;&gt;Node7 -->
<g id="edge7" class="edge">
<title>Node6&#45;&gt;Node7</title>
<path fill="none" stroke="midnightblue" d="M257.5,-56.08C257.5,-49.01 257.5,-38.86 257.5,-29.99"/>
<polygon fill="midnightblue" stroke="midnightblue" points="261,-29.75 257.5,-19.75 254,-29.75 261,-29.75"/>
</g>
</g>
</svg>
