<?xml version="1.0" encoding="UTF-8" standalone="no"?>
<!DOCTYPE svg PUBLIC "-//W3C//DTD SVG 1.1//EN"
 "http://www.w3.org/Graphics/SVG/1.1/DTD/svg11.dtd">
<!-- Generated by graphviz version 2.43.0 (0)
 -->
<!-- Title: OriginElement.h Pages: 1 -->
<svg width="617pt" height="84pt"
 viewBox="0.00 0.00 616.50 84.00" xmlns="http://www.w3.org/2000/svg" xmlns:xlink="http://www.w3.org/1999/xlink">
<g id="graph0" class="graph" transform="scale(1 1) rotate(0) translate(4 80)">
<title>OriginElement.h</title>
<!-- Node1 -->
<g id="node1" class="node">
<title>Node1</title>
<g id="a_node1"><a xlink:title=" ">
<polygon fill="#bfbfbf" stroke="black" points="253.5,-56.5 253.5,-75.5 348.5,-75.5 348.5,-56.5 253.5,-56.5"/>
<text text-anchor="middle" x="301" y="-63.5" font-family="FreeSans.ttf" font-size="10.00">OriginElement.h</text>
</a>
</g>
</g>
<!-- Node2 -->
<g id="node2" class="node">
<title>Node2</title>
<g id="a_node2"><a xlink:href="InertialElement_8cpp.html" target="_top" xlink:title=" ">
<polygon fill="none" stroke="black" points="0,-0.5 0,-19.5 112,-19.5 112,-0.5 0,-0.5"/>
<text text-anchor="middle" x="56" y="-7.5" font-family="FreeSans.ttf" font-size="10.00">InertialElement.cpp</text>
</a>
</g>
</g>
<!-- Node1&#45;&gt;Node2 -->
<g id="edge1" class="edge">
<title>Node1&#45;&gt;Node2</title>
<path fill="none" stroke="midnightblue" d="M252.37,-54.28C206.07,-44.08 137.31,-28.92 94.64,-19.52"/>
<polygon fill="midnightblue" stroke="midnightblue" points="251.66,-57.71 262.18,-56.44 253.17,-50.87 251.66,-57.71"/>
</g>
<!-- Node3 -->
<g id="node3" class="node">
<title>Node3</title>
<g id="a_node3"><a xlink:href="JointElement_8cpp.html" target="_top" xlink:title=" ">
<polygon fill="none" stroke="black" points="130.5,-0.5 130.5,-19.5 229.5,-19.5 229.5,-0.5 130.5,-0.5"/>
<text text-anchor="middle" x="180" y="-7.5" font-family="FreeSans.ttf" font-size="10.00">JointElement.cpp</text>
</a>
</g>
</g>
<!-- Node1&#45;&gt;Node3 -->
<g id="edge2" class="edge">
<title>Node1&#45;&gt;Node3</title>
<path fill="none" stroke="midnightblue" d="M272.69,-52.37C250.03,-42.26 218.87,-28.35 199.08,-19.52"/>
<polygon fill="midnightblue" stroke="midnightblue" points="271.27,-55.56 281.83,-56.44 274.12,-49.17 271.27,-55.56"/>
</g>
<!-- Node4 -->
<g id="node4" class="node">
<title>Node4</title>
<g id="a_node4"><a xlink:href="OriginElement_8cpp.html" target="_top" xlink:title=" ">
<polygon fill="none" stroke="black" points="247.5,-0.5 247.5,-19.5 354.5,-19.5 354.5,-0.5 247.5,-0.5"/>
<text text-anchor="middle" x="301" y="-7.5" font-family="FreeSans.ttf" font-size="10.00">OriginElement.cpp</text>
</a>
</g>
</g>
<!-- Node1&#45;&gt;Node4 -->
<g id="edge3" class="edge">
<title>Node1&#45;&gt;Node4</title>
<path fill="none" stroke="midnightblue" d="M301,-45.8C301,-36.91 301,-26.78 301,-19.75"/>
<polygon fill="midnightblue" stroke="midnightblue" points="297.5,-46.08 301,-56.08 304.5,-46.08 297.5,-46.08"/>
</g>
<!-- Node5 -->
<g id="node5" class="node">
<title>Node5</title>
<g id="a_node5"><a xlink:href="SensorElement_8cpp.html" target="_top" xlink:title=" ">
<polygon fill="none" stroke="black" points="373,-0.5 373,-19.5 483,-19.5 483,-0.5 373,-0.5"/>
<text text-anchor="middle" x="428" y="-7.5" font-family="FreeSans.ttf" font-size="10.00">SensorElement.cpp</text>
</a>
</g>
</g>
<!-- Node1&#45;&gt;Node5 -->
<g id="edge4" class="edge">
<title>Node1&#45;&gt;Node5</title>
<path fill="none" stroke="midnightblue" d="M330.39,-52.5C354.2,-42.38 387.11,-28.39 407.97,-19.52"/>
<polygon fill="midnightblue" stroke="midnightblue" points="328.96,-49.31 321.12,-56.44 331.7,-55.75 328.96,-49.31"/>
</g>
<!-- Node6 -->
<g id="node6" class="node">
<title>Node6</title>
<g id="a_node6"><a xlink:href="VisualElement_8cpp.html" target="_top" xlink:title=" ">
<polygon fill="none" stroke="black" points="501.5,-0.5 501.5,-19.5 608.5,-19.5 608.5,-0.5 501.5,-0.5"/>
<text text-anchor="middle" x="555" y="-7.5" font-family="FreeSans.ttf" font-size="10.00">VisualElement.cpp</text>
</a>
</g>
</g>
<!-- Node1&#45;&gt;Node6 -->
<g id="edge5" class="edge">
<title>Node1&#45;&gt;Node6</title>
<path fill="none" stroke="midnightblue" d="M351.12,-54.35C399.12,-44.14 470.62,-28.94 514.94,-19.52"/>
<polygon fill="midnightblue" stroke="midnightblue" points="350.3,-50.94 341.25,-56.44 351.76,-57.79 350.3,-50.94"/>
</g>
</g>
</svg>
