<?xml version="1.0" encoding="UTF-8" standalone="no"?>
<!DOCTYPE svg PUBLIC "-//W3C//DTD SVG 1.1//EN"
 "http://www.w3.org/Graphics/SVG/1.1/DTD/svg11.dtd">
<!-- Generated by graphviz version 2.43.0 (0)
 -->
<!-- Title: OsqpInterface.cpp Pages: 1 -->
<svg width="2091pt" height="610pt"
 viewBox="0.00 0.00 2091.00 610.00" xmlns="http://www.w3.org/2000/svg" xmlns:xlink="http://www.w3.org/1999/xlink">
<g id="graph0" class="graph" transform="scale(1 1) rotate(0) translate(4 606)">
<title>OsqpInterface.cpp</title>
<!-- Node1 -->
<g id="node1" class="node">
<title>Node1</title>
<g id="a_node1"><a xlink:title=" ">
<polygon fill="#bfbfbf" stroke="black" points="1483.5,-582.5 1483.5,-601.5 1588.5,-601.5 1588.5,-582.5 1483.5,-582.5"/>
<text text-anchor="middle" x="1536" y="-589.5" font-family="FreeSans.ttf" font-size="10.00">OsqpInterface.cpp</text>
</a>
</g>
</g>
<!-- Node2 -->
<g id="node2" class="node">
<title>Node2</title>
<g id="a_node2"><a xlink:href="OsqpInterface_8h.html" target="_top" xlink:title=" ">
<polygon fill="none" stroke="black" points="102,-515.5 102,-545.5 218,-545.5 218,-515.5 102,-515.5"/>
<text text-anchor="start" x="110" y="-533.5" font-family="FreeSans.ttf" font-size="10.00">iDynTree/Optimizers</text>
<text text-anchor="middle" x="160" y="-522.5" font-family="FreeSans.ttf" font-size="10.00">/OsqpInterface.h</text>
</a>
</g>
</g>
<!-- Node1&#45;&gt;Node2 -->
<g id="edge1" class="edge">
<title>Node1&#45;&gt;Node2</title>
<path fill="none" stroke="midnightblue" d="M1483.4,-590.08C1273.18,-586.26 492.92,-570.68 247,-546 240.9,-545.39 234.58,-544.61 228.26,-543.74"/>
<polygon fill="midnightblue" stroke="midnightblue" points="228.76,-540.28 218.36,-542.3 227.75,-547.2 228.76,-540.28"/>
</g>
<!-- Node7 -->
<g id="node7" class="node">
<title>Node7</title>
<g id="a_node7"><a xlink:title=" ">
<polygon fill="none" stroke="#bfbfbf" points="198.5,-336.5 198.5,-355.5 245.5,-355.5 245.5,-336.5 198.5,-336.5"/>
<text text-anchor="middle" x="222" y="-343.5" font-family="FreeSans.ttf" font-size="10.00">vector</text>
</a>
</g>
</g>
<!-- Node1&#45;&gt;Node7 -->
<g id="edge90" class="edge">
<title>Node1&#45;&gt;Node7</title>
<path fill="none" stroke="midnightblue" d="M1483.33,-590.82C1251.69,-589.81 332.83,-583.45 285,-546 228.95,-502.12 264.67,-459.13 241,-392 237.79,-382.89 233.67,-372.98 230.09,-364.78"/>
<polygon fill="midnightblue" stroke="midnightblue" points="233.23,-363.21 225.96,-355.51 226.83,-366.06 233.23,-363.21"/>
</g>
<!-- Node9 -->
<g id="node9" class="node">
<title>Node9</title>
<g id="a_node9"><a xlink:title=" ">
<polygon fill="none" stroke="#bfbfbf" points="1390.5,-454 1390.5,-473 1467.5,-473 1467.5,-454 1390.5,-454"/>
<text text-anchor="middle" x="1429" y="-461" font-family="FreeSans.ttf" font-size="10.00">Eigen/Dense</text>
</a>
</g>
</g>
<!-- Node1&#45;&gt;Node9 -->
<g id="edge10" class="edge">
<title>Node1&#45;&gt;Node9</title>
<path fill="none" stroke="midnightblue" d="M1528.65,-582.31C1511.01,-561.45 1466.06,-508.31 1443.05,-481.11"/>
<polygon fill="midnightblue" stroke="midnightblue" points="1445.54,-478.63 1436.41,-473.26 1440.19,-483.15 1445.54,-478.63"/>
</g>
<!-- Node10 -->
<g id="node10" class="node">
<title>Node10</title>
<g id="a_node10"><a xlink:title=" ">
<polygon fill="none" stroke="#bfbfbf" points="1777,-521 1777,-540 1857,-540 1857,-521 1777,-521"/>
<text text-anchor="middle" x="1817" y="-528" font-family="FreeSans.ttf" font-size="10.00">Eigen/Sparse</text>
</a>
</g>
</g>
<!-- Node1&#45;&gt;Node10 -->
<g id="edge11" class="edge">
<title>Node1&#45;&gt;Node10</title>
<path fill="none" stroke="midnightblue" d="M1584.03,-582.44C1630.11,-574 1701.57,-560.32 1763,-546 1767.43,-544.97 1772.04,-543.83 1776.63,-542.66"/>
<polygon fill="midnightblue" stroke="midnightblue" points="1777.74,-545.98 1786.53,-540.06 1775.97,-539.21 1777.74,-545.98"/>
</g>
<!-- Node11 -->
<g id="node11" class="node">
<title>Node11</title>
<g id="a_node11"><a xlink:href="EigenHelpers_8h.html" target="_top" xlink:title=" ">
<polygon fill="none" stroke="black" points="1109.5,-521 1109.5,-540 1270.5,-540 1270.5,-521 1109.5,-521"/>
<text text-anchor="middle" x="1190" y="-528" font-family="FreeSans.ttf" font-size="10.00">iDynTree/Core/EigenHelpers.h</text>
</a>
</g>
</g>
<!-- Node1&#45;&gt;Node11 -->
<g id="edge12" class="edge">
<title>Node1&#45;&gt;Node11</title>
<path fill="none" stroke="midnightblue" d="M1486.43,-582.48C1423.86,-571.72 1316.36,-553.23 1249.45,-541.72"/>
<polygon fill="midnightblue" stroke="midnightblue" points="1249.93,-538.25 1239.48,-540.01 1248.74,-545.15 1249.93,-538.25"/>
</g>
<!-- Node12 -->
<g id="node12" class="node">
<title>Node12</title>
<g id="a_node12"><a xlink:href="VectorDynSize_8h.html" target="_top" xlink:title=" ">
<polygon fill="none" stroke="black" points="1330.5,-280.5 1330.5,-299.5 1497.5,-299.5 1497.5,-280.5 1330.5,-280.5"/>
<text text-anchor="middle" x="1414" y="-287.5" font-family="FreeSans.ttf" font-size="10.00">iDynTree/Core/VectorDynSize.h</text>
</a>
</g>
</g>
<!-- Node1&#45;&gt;Node12 -->
<g id="edge84" class="edge">
<title>Node1&#45;&gt;Node12</title>
<path fill="none" stroke="midnightblue" d="M1533.82,-582.48C1528.83,-562.19 1517,-509.36 1517,-464.5 1517,-464.5 1517,-464.5 1517,-401 1517,-356.43 1471.38,-322.46 1440.86,-304.73"/>
<polygon fill="midnightblue" stroke="midnightblue" points="1442.38,-301.57 1431.94,-299.75 1438.97,-307.68 1442.38,-301.57"/>
</g>
<!-- Node14 -->
<g id="node14" class="node">
<title>Node14</title>
<g id="a_node14"><a xlink:title=" ">
<polygon fill="none" stroke="#bfbfbf" points="1215,-0.5 1215,-19.5 1267,-19.5 1267,-0.5 1215,-0.5"/>
<text text-anchor="middle" x="1241" y="-7.5" font-family="FreeSans.ttf" font-size="10.00">cassert</text>
</a>
</g>
</g>
<!-- Node1&#45;&gt;Node14 -->
<g id="edge87" class="edge">
<title>Node1&#45;&gt;Node14</title>
<path fill="none" stroke="midnightblue" d="M1571.84,-582.38C1623.03,-567.69 1711,-532.54 1711,-464.5 1711,-464.5 1711,-464.5 1711,-289 1711,-187.64 1383.11,-61.66 1275.07,-22.9"/>
<polygon fill="midnightblue" stroke="midnightblue" points="1276.2,-19.59 1265.61,-19.53 1273.85,-26.18 1276.2,-19.59"/>
</g>
<!-- Node17 -->
<g id="node17" class="node">
<title>Node17</title>
<g id="a_node17"><a xlink:title=" ">
<polygon fill="none" stroke="#bfbfbf" points="1722.5,-0.5 1722.5,-19.5 1775.5,-19.5 1775.5,-0.5 1722.5,-0.5"/>
<text text-anchor="middle" x="1749" y="-7.5" font-family="FreeSans.ttf" font-size="10.00">iterator</text>
</a>
</g>
</g>
<!-- Node1&#45;&gt;Node17 -->
<g id="edge91" class="edge">
<title>Node1&#45;&gt;Node17</title>
<path fill="none" stroke="midnightblue" d="M1588.92,-584.4C1637.78,-577.26 1705.61,-564.4 1725,-546 1752.39,-520.01 1749,-502.26 1749,-464.5 1749,-464.5 1749,-464.5 1749,-121 1749,-88.95 1749,-51.64 1749,-29.75"/>
<polygon fill="midnightblue" stroke="midnightblue" points="1752.5,-29.56 1749,-19.56 1745.5,-29.56 1752.5,-29.56"/>
</g>
<!-- Node23 -->
<g id="node23" class="node">
<title>Node23</title>
<g id="a_node23"><a xlink:href="Utils_8h.html" target="_top" xlink:title=" ">
<polygon fill="none" stroke="black" points="353.5,-56.5 353.5,-75.5 472.5,-75.5 472.5,-56.5 353.5,-56.5"/>
<text text-anchor="middle" x="413" y="-63.5" font-family="FreeSans.ttf" font-size="10.00">iDynTree/Core/Utils.h</text>
</a>
</g>
</g>
<!-- Node1&#45;&gt;Node23 -->
<g id="edge86" class="edge">
<title>Node1&#45;&gt;Node23</title>
<path fill="none" stroke="midnightblue" d="M1483.24,-591.23C1247.14,-591.58 299,-585.46 299,-464.5 299,-464.5 299,-464.5 299,-401 299,-293.84 329.99,-270.57 361,-168 368.61,-142.84 367.87,-135.31 380,-112 385.19,-102.03 392.45,-91.85 398.85,-83.7"/>
<polygon fill="midnightblue" stroke="midnightblue" points="401.71,-85.73 405.3,-75.77 396.28,-81.32 401.71,-85.73"/>
</g>
<!-- Node27 -->
<g id="node27" class="node">
<title>Node27</title>
<g id="a_node27"><a xlink:href="MatrixDynSize_8h.html" target="_top" xlink:title=" ">
<polygon fill="none" stroke="black" points="1515,-280.5 1515,-299.5 1683,-299.5 1683,-280.5 1515,-280.5"/>
<text text-anchor="middle" x="1599" y="-287.5" font-family="FreeSans.ttf" font-size="10.00">iDynTree/Core/MatrixDynSize.h</text>
</a>
</g>
</g>
<!-- Node1&#45;&gt;Node27 -->
<g id="edge85" class="edge">
<title>Node1&#45;&gt;Node27</title>
<path fill="none" stroke="midnightblue" d="M1538.29,-582.48C1543.55,-562.21 1556,-509.41 1556,-464.5 1556,-464.5 1556,-464.5 1556,-401 1556,-366.31 1574.78,-329.42 1587.52,-308.4"/>
<polygon fill="midnightblue" stroke="midnightblue" points="1590.65,-310 1593.02,-299.67 1584.73,-306.27 1590.65,-310"/>
</g>
<!-- Node40 -->
<g id="node40" class="node">
<title>Node40</title>
<g id="a_node40"><a xlink:title=" ">
<polygon fill="none" stroke="#bfbfbf" points="1875.5,-521 1875.5,-540 1932.5,-540 1932.5,-521 1875.5,-521"/>
<text text-anchor="middle" x="1904" y="-528" font-family="FreeSans.ttf" font-size="10.00">ostream</text>
</a>
</g>
</g>
<!-- Node1&#45;&gt;Node40 -->
<g id="edge88" class="edge">
<title>Node1&#45;&gt;Node40</title>
<path fill="none" stroke="midnightblue" d="M1588.72,-587.55C1654.47,-582.39 1769.92,-570.54 1866,-546 1868.82,-545.28 1871.72,-544.41 1874.6,-543.47"/>
<polygon fill="midnightblue" stroke="midnightblue" points="1875.92,-546.71 1884.16,-540.05 1873.57,-540.12 1875.92,-546.71"/>
</g>
<!-- Node41 -->
<g id="node41" class="node">
<title>Node41</title>
<g id="a_node41"><a xlink:title=" ">
<polygon fill="none" stroke="#bfbfbf" points="1951,-521 1951,-540 2083,-540 2083,-521 1951,-521"/>
<text text-anchor="middle" x="2017" y="-528" font-family="FreeSans.ttf" font-size="10.00">OsqpEigen/OsqpEigen.h</text>
</a>
</g>
</g>
<!-- Node1&#45;&gt;Node41 -->
<g id="edge89" class="edge">
<title>Node1&#45;&gt;Node41</title>
<path fill="none" stroke="midnightblue" d="M1588.6,-586.47C1666.01,-579.52 1815.08,-564.98 1941,-546 1948.84,-544.82 1957.12,-543.41 1965.2,-541.94"/>
<polygon fill="midnightblue" stroke="midnightblue" points="1966.1,-545.33 1975.29,-540.06 1964.82,-538.45 1966.1,-545.33"/>
</g>
<!-- Node3 -->
<g id="node3" class="node">
<title>Node3</title>
<g id="a_node3"><a xlink:title=" ">
<polygon fill="none" stroke="#bfbfbf" points="0,-336.5 0,-355.5 58,-355.5 58,-336.5 0,-336.5"/>
<text text-anchor="middle" x="29" y="-343.5" font-family="FreeSans.ttf" font-size="10.00">memory</text>
</a>
</g>
</g>
<!-- Node2&#45;&gt;Node3 -->
<g id="edge2" class="edge">
<title>Node2&#45;&gt;Node3</title>
<path fill="none" stroke="midnightblue" d="M129.26,-515.49C112.22,-506.68 91.42,-494.14 76,-479 50.92,-454.38 45,-445.38 34,-412 29.07,-397.03 28.02,-379.12 28.09,-365.9"/>
<polygon fill="midnightblue" stroke="midnightblue" points="31.6,-365.76 28.37,-355.67 24.6,-365.57 31.6,-365.76"/>
</g>
<!-- Node4 -->
<g id="node4" class="node">
<title>Node4</title>
<g id="a_node4"><a xlink:title=" ">
<polygon fill="none" stroke="#bfbfbf" points="1237,-112.5 1237,-131.5 1281,-131.5 1281,-112.5 1237,-112.5"/>
<text text-anchor="middle" x="1259" y="-119.5" font-family="FreeSans.ttf" font-size="10.00">string</text>
</a>
</g>
</g>
<!-- Node2&#45;&gt;Node4 -->
<g id="edge3" class="edge">
<title>Node2&#45;&gt;Node4</title>
<path fill="none" stroke="midnightblue" d="M218.12,-529.3C337.37,-528 617.89,-520.38 849,-479 954.65,-460.09 983.65,-457.19 1081,-412 1190.36,-361.24 1241.62,-352.6 1294,-244 1308.86,-213.2 1319.43,-199.45 1306,-168 1300.85,-155.95 1290.72,-145.58 1281.17,-137.84"/>
<polygon fill="midnightblue" stroke="midnightblue" points="1283.17,-134.96 1273.08,-131.74 1278.96,-140.55 1283.17,-134.96"/>
</g>
<!-- Node5 -->
<g id="node5" class="node">
<title>Node5</title>
<g id="a_node5"><a xlink:href="Optimizer_8h.html" target="_top" xlink:title=" ">
<polygon fill="none" stroke="black" points="85.5,-454 85.5,-473 204.5,-473 204.5,-454 85.5,-454"/>
<text text-anchor="middle" x="145" y="-461" font-family="FreeSans.ttf" font-size="10.00">iDynTree/Optimizer.h</text>
</a>
</g>
</g>
<!-- Node2&#45;&gt;Node5 -->
<g id="edge4" class="edge">
<title>Node2&#45;&gt;Node5</title>
<path fill="none" stroke="midnightblue" d="M156.75,-515.4C154.57,-505.96 151.68,-493.45 149.31,-483.19"/>
<polygon fill="midnightblue" stroke="midnightblue" points="152.67,-482.15 147.01,-473.19 145.84,-483.73 152.67,-482.15"/>
</g>
<!-- Node5&#45;&gt;Node3 -->
<g id="edge5" class="edge">
<title>Node5&#45;&gt;Node3</title>
<path fill="none" stroke="midnightblue" d="M115.06,-453.93C93.48,-446.28 65.23,-432.98 48,-412 37.17,-398.81 32.51,-379.67 30.51,-365.58"/>
<polygon fill="midnightblue" stroke="midnightblue" points="33.98,-365.12 29.41,-355.57 27.02,-365.89 33.98,-365.12"/>
</g>
<!-- Node6 -->
<g id="node6" class="node">
<title>Node6</title>
<g id="a_node6"><a xlink:href="OptimizationProblem_8h.html" target="_top" xlink:title=" ">
<polygon fill="none" stroke="black" points="57.5,-392.5 57.5,-411.5 232.5,-411.5 232.5,-392.5 57.5,-392.5"/>
<text text-anchor="middle" x="145" y="-399.5" font-family="FreeSans.ttf" font-size="10.00">iDynTree/OptimizationProblem.h</text>
</a>
</g>
</g>
<!-- Node5&#45;&gt;Node6 -->
<g id="edge6" class="edge">
<title>Node5&#45;&gt;Node6</title>
<path fill="none" stroke="midnightblue" d="M145,-453.98C145,-445.58 145,-432.48 145,-421.66"/>
<polygon fill="midnightblue" stroke="midnightblue" points="148.5,-421.51 145,-411.51 141.5,-421.51 148.5,-421.51"/>
</g>
<!-- Node6&#45;&gt;Node3 -->
<g id="edge8" class="edge">
<title>Node6&#45;&gt;Node3</title>
<path fill="none" stroke="midnightblue" d="M126.62,-392.44C107.78,-383.68 78.27,-369.94 56.62,-359.86"/>
<polygon fill="midnightblue" stroke="midnightblue" points="57.84,-356.56 47.29,-355.52 54.88,-362.91 57.84,-356.56"/>
</g>
<!-- Node6&#45;&gt;Node7 -->
<g id="edge7" class="edge">
<title>Node6&#45;&gt;Node7</title>
<path fill="none" stroke="midnightblue" d="M157.37,-392.32C169.16,-384.06 187.13,-371.45 201.14,-361.63"/>
<polygon fill="midnightblue" stroke="midnightblue" points="203.48,-364.26 209.66,-355.65 199.46,-358.53 203.48,-364.26"/>
</g>
<!-- Node8 -->
<g id="node8" class="node">
<title>Node8</title>
<g id="a_node8"><a xlink:title=" ">
<polygon fill="none" stroke="#bfbfbf" points="272.5,-0.5 272.5,-19.5 325.5,-19.5 325.5,-0.5 272.5,-0.5"/>
<text text-anchor="middle" x="299" y="-7.5" font-family="FreeSans.ttf" font-size="10.00">cstddef</text>
</a>
</g>
</g>
<!-- Node6&#45;&gt;Node8 -->
<g id="edge9" class="edge">
<title>Node6&#45;&gt;Node8</title>
<path fill="none" stroke="midnightblue" d="M146.7,-392.48C150.22,-374.06 158,-329.08 158,-291 158,-291 158,-291 158,-121 158,-67.83 221.11,-36.57 262.89,-21.7"/>
<polygon fill="midnightblue" stroke="midnightblue" points="264.14,-24.97 272.48,-18.44 261.88,-18.34 264.14,-24.97"/>
</g>
<!-- Node11&#45;&gt;Node8 -->
<g id="edge13" class="edge">
<title>Node11&#45;&gt;Node8</title>
<path fill="none" stroke="midnightblue" d="M1109.28,-529.88C915.71,-530.05 437.11,-525.67 383,-479 245.92,-360.77 282.05,-101.69 295.23,-29.82"/>
<polygon fill="midnightblue" stroke="midnightblue" points="298.74,-30.09 297.18,-19.61 291.87,-28.77 298.74,-30.09"/>
</g>
<!-- Node11&#45;&gt;Node9 -->
<g id="edge14" class="edge">
<title>Node11&#45;&gt;Node9</title>
<path fill="none" stroke="midnightblue" d="M1221.74,-520.87C1264.44,-509.25 1340.48,-488.58 1387.62,-475.75"/>
<polygon fill="midnightblue" stroke="midnightblue" points="1388.78,-479.07 1397.51,-473.06 1386.94,-472.31 1388.78,-479.07"/>
</g>
<!-- Node11&#45;&gt;Node12 -->
<g id="edge15" class="edge">
<title>Node11&#45;&gt;Node12</title>
<path fill="none" stroke="midnightblue" d="M1200.07,-520.65C1210.91,-510.91 1228.44,-494.56 1242,-479 1293.8,-419.55 1290.09,-390.57 1347,-336 1359.65,-323.87 1375.94,-312.84 1389.29,-304.74"/>
<polygon fill="midnightblue" stroke="midnightblue" points="1391.14,-307.72 1397.98,-299.63 1387.59,-301.68 1391.14,-307.72"/>
</g>
<!-- Node22 -->
<g id="node22" class="node">
<title>Node22</title>
<g id="a_node22"><a xlink:href="VectorFixSize_8h.html" target="_top" xlink:title=" ">
<polygon fill="none" stroke="black" points="595,-168.5 595,-187.5 757,-187.5 757,-168.5 595,-168.5"/>
<text text-anchor="middle" x="676" y="-175.5" font-family="FreeSans.ttf" font-size="10.00">iDynTree/Core/VectorFixSize.h</text>
</a>
</g>
</g>
<!-- Node11&#45;&gt;Node22 -->
<g id="edge27" class="edge">
<title>Node11&#45;&gt;Node22</title>
<path fill="none" stroke="midnightblue" d="M1109.42,-527.78C932.39,-523.43 520.84,-510.09 466,-479 430.18,-458.69 413,-444.18 413,-403 413,-403 413,-403 413,-345 413,-250.18 536.77,-207.33 614.49,-189.78"/>
<polygon fill="midnightblue" stroke="midnightblue" points="615.64,-193.11 624.67,-187.56 614.15,-186.27 615.64,-193.11"/>
</g>
<!-- Node11&#45;&gt;Node23 -->
<g id="edge83" class="edge">
<title>Node11&#45;&gt;Node23</title>
<path fill="none" stroke="midnightblue" d="M1109.4,-528.3C924.43,-524.96 480.88,-513.43 423,-479 388.66,-458.58 375,-442.95 375,-403 375,-403 375,-403 375,-177 375,-142.81 391.6,-105.76 402.86,-84.57"/>
<polygon fill="midnightblue" stroke="midnightblue" points="405.95,-86.22 407.72,-75.77 399.82,-82.83 405.95,-86.22"/>
</g>
<!-- Node11&#45;&gt;Node27 -->
<g id="edge37" class="edge">
<title>Node11&#45;&gt;Node27</title>
<path fill="none" stroke="midnightblue" d="M1205.04,-520.73C1266.68,-484.78 1500.26,-348.58 1575.49,-304.71"/>
<polygon fill="midnightblue" stroke="midnightblue" points="1577.38,-307.66 1584.25,-299.6 1573.85,-301.61 1577.38,-307.66"/>
</g>
<!-- Node29 -->
<g id="node29" class="node">
<title>Node29</title>
<g id="a_node29"><a xlink:href="MatrixFixSize_8h.html" target="_top" xlink:title=" ">
<polygon fill="none" stroke="black" points="891.5,-168.5 891.5,-187.5 1054.5,-187.5 1054.5,-168.5 891.5,-168.5"/>
<text text-anchor="middle" x="973" y="-175.5" font-family="FreeSans.ttf" font-size="10.00">iDynTree/Core/MatrixFixSize.h</text>
</a>
</g>
</g>
<!-- Node11&#45;&gt;Node29 -->
<g id="edge44" class="edge">
<title>Node11&#45;&gt;Node29</title>
<path fill="none" stroke="midnightblue" d="M1195.18,-520.94C1218.25,-481.57 1307.25,-315.95 1230,-224 1208.98,-198.98 1130.02,-187.87 1065.11,-182.94"/>
<polygon fill="midnightblue" stroke="midnightblue" points="1065.04,-179.42 1054.82,-182.2 1064.54,-186.4 1065.04,-179.42"/>
</g>
<!-- Node31 -->
<g id="node31" class="node">
<title>Node31</title>
<g id="a_node31"><a xlink:href="SpatialMotionVector_8h.html" target="_top" xlink:title=" ">
<polygon fill="none" stroke="black" points="475.5,-448.5 475.5,-478.5 630.5,-478.5 630.5,-448.5 475.5,-448.5"/>
<text text-anchor="start" x="483.5" y="-466.5" font-family="FreeSans.ttf" font-size="10.00">iDynTree/Core/SpatialMotion</text>
<text text-anchor="middle" x="553" y="-455.5" font-family="FreeSans.ttf" font-size="10.00">Vector.h</text>
</a>
</g>
</g>
<!-- Node11&#45;&gt;Node31 -->
<g id="edge52" class="edge">
<title>Node11&#45;&gt;Node31</title>
<path fill="none" stroke="midnightblue" d="M1109.19,-521.75C1009.11,-512.08 833.42,-494.88 683,-479 669.37,-477.56 654.94,-475.99 640.85,-474.44"/>
<polygon fill="midnightblue" stroke="midnightblue" points="640.99,-470.94 630.66,-473.31 640.22,-477.89 640.99,-470.94"/>
</g>
<!-- Node38 -->
<g id="node38" class="node">
<title>Node38</title>
<g id="a_node38"><a xlink:href="SpatialForceVector_8h.html" target="_top" xlink:title=" ">
<polygon fill="none" stroke="black" points="692,-448.5 692,-478.5 840,-478.5 840,-448.5 692,-448.5"/>
<text text-anchor="start" x="700" y="-466.5" font-family="FreeSans.ttf" font-size="10.00">iDynTree/Core/SpatialForce</text>
<text text-anchor="middle" x="766" y="-455.5" font-family="FreeSans.ttf" font-size="10.00">Vector.h</text>
</a>
</g>
</g>
<!-- Node11&#45;&gt;Node38 -->
<g id="edge74" class="edge">
<title>Node11&#45;&gt;Node38</title>
<path fill="none" stroke="midnightblue" d="M1134.13,-520.94C1061.64,-509.82 934.48,-490.33 850.24,-477.41"/>
<polygon fill="midnightblue" stroke="midnightblue" points="850.6,-473.93 840.18,-475.87 849.54,-480.85 850.6,-473.93"/>
</g>
<!-- Node39 -->
<g id="node39" class="node">
<title>Node39</title>
<g id="a_node39"><a xlink:href="Transform_8h.html" target="_top" xlink:title=" ">
<polygon fill="none" stroke="black" points="926,-392.5 926,-411.5 1072,-411.5 1072,-392.5 926,-392.5"/>
<text text-anchor="middle" x="999" y="-399.5" font-family="FreeSans.ttf" font-size="10.00">iDynTree/Core/Transform.h</text>
</a>
</g>
</g>
<!-- Node11&#45;&gt;Node39 -->
<g id="edge78" class="edge">
<title>Node11&#45;&gt;Node39</title>
<path fill="none" stroke="midnightblue" d="M1176.87,-520.81C1144.42,-499.31 1060.2,-443.53 1020.41,-417.18"/>
<polygon fill="midnightblue" stroke="midnightblue" points="1022.24,-414.19 1011.97,-411.59 1018.37,-420.03 1022.24,-414.19"/>
</g>
<!-- Node12&#45;&gt;Node4 -->
<g id="edge26" class="edge">
<title>Node12&#45;&gt;Node4</title>
<path fill="none" stroke="midnightblue" d="M1417.3,-280.29C1424.83,-258.75 1440.76,-202.25 1415,-168 1407.43,-157.94 1334.43,-140 1291.03,-130.08"/>
<polygon fill="midnightblue" stroke="midnightblue" points="1291.73,-126.65 1281.21,-127.86 1290.19,-133.48 1291.73,-126.65"/>
</g>
<!-- Node13 -->
<g id="node13" class="node">
<title>Node13</title>
<g id="a_node13"><a xlink:href="Span_8h.html" target="_top" xlink:title=" ">
<polygon fill="none" stroke="black" points="1461.5,-56.5 1461.5,-75.5 1582.5,-75.5 1582.5,-56.5 1461.5,-56.5"/>
<text text-anchor="middle" x="1522" y="-63.5" font-family="FreeSans.ttf" font-size="10.00">iDynTree/Core/Span.h</text>
</a>
</g>
</g>
<!-- Node12&#45;&gt;Node13 -->
<g id="edge16" class="edge">
<title>Node12&#45;&gt;Node13</title>
<path fill="none" stroke="midnightblue" d="M1419.93,-280.24C1425.86,-271.32 1435.06,-256.99 1442,-244 1472.12,-187.61 1501.5,-117.68 1514.72,-85.18"/>
<polygon fill="midnightblue" stroke="midnightblue" points="1518.06,-86.25 1518.56,-75.67 1511.57,-83.63 1518.06,-86.25"/>
</g>
<!-- Node13&#45;&gt;Node8 -->
<g id="edge20" class="edge">
<title>Node13&#45;&gt;Node8</title>
<path fill="none" stroke="midnightblue" d="M1461.28,-64.75C1289.02,-63.59 782.61,-57.02 364,-20 354.85,-19.19 345.01,-18 335.83,-16.74"/>
<polygon fill="midnightblue" stroke="midnightblue" points="336.21,-13.26 325.81,-15.32 335.22,-20.19 336.21,-13.26"/>
</g>
<!-- Node13&#45;&gt;Node14 -->
<g id="edge17" class="edge">
<title>Node13&#45;&gt;Node14</title>
<path fill="none" stroke="midnightblue" d="M1469.48,-56.5C1421.77,-48.53 1349.24,-35.79 1277.45,-20.2"/>
<polygon fill="midnightblue" stroke="midnightblue" points="1277.84,-16.7 1267.33,-17.98 1276.34,-23.54 1277.84,-16.7"/>
</g>
<!-- Node15 -->
<g id="node15" class="node">
<title>Node15</title>
<g id="a_node15"><a xlink:title=" ">
<polygon fill="none" stroke="#bfbfbf" points="1285,-0.5 1285,-19.5 1349,-19.5 1349,-0.5 1285,-0.5"/>
<text text-anchor="middle" x="1317" y="-7.5" font-family="FreeSans.ttf" font-size="10.00">algorithm</text>
</a>
</g>
</g>
<!-- Node13&#45;&gt;Node15 -->
<g id="edge18" class="edge">
<title>Node13&#45;&gt;Node15</title>
<path fill="none" stroke="midnightblue" d="M1489.52,-56.44C1454.28,-47.16 1397.9,-32.31 1359.24,-22.13"/>
<polygon fill="midnightblue" stroke="midnightblue" points="1359.89,-18.68 1349.33,-19.52 1358.11,-25.45 1359.89,-18.68"/>
</g>
<!-- Node16 -->
<g id="node16" class="node">
<title>Node16</title>
<g id="a_node16"><a xlink:title=" ">
<polygon fill="none" stroke="#bfbfbf" points="1367,-0.5 1367,-19.5 1409,-19.5 1409,-0.5 1367,-0.5"/>
<text text-anchor="middle" x="1388" y="-7.5" font-family="FreeSans.ttf" font-size="10.00">array</text>
</a>
</g>
</g>
<!-- Node13&#45;&gt;Node16 -->
<g id="edge19" class="edge">
<title>Node13&#45;&gt;Node16</title>
<path fill="none" stroke="midnightblue" d="M1500.77,-56.44C1478.62,-47.52 1443.68,-33.44 1418.56,-23.32"/>
<polygon fill="midnightblue" stroke="midnightblue" points="1419.72,-20.01 1409.13,-19.52 1417.1,-26.5 1419.72,-20.01"/>
</g>
<!-- Node13&#45;&gt;Node17 -->
<g id="edge21" class="edge">
<title>Node13&#45;&gt;Node17</title>
<path fill="none" stroke="midnightblue" d="M1559.01,-56.44C1595.48,-47.96 1653.06,-34.5 1712.36,-20.13"/>
<polygon fill="midnightblue" stroke="midnightblue" points="1713.38,-23.48 1722.27,-17.72 1711.73,-16.68 1713.38,-23.48"/>
</g>
<!-- Node18 -->
<g id="node18" class="node">
<title>Node18</title>
<g id="a_node18"><a xlink:title=" ">
<polygon fill="none" stroke="#bfbfbf" points="1427,-0.5 1427,-19.5 1471,-19.5 1471,-0.5 1427,-0.5"/>
<text text-anchor="middle" x="1449" y="-7.5" font-family="FreeSans.ttf" font-size="10.00">limits</text>
</a>
</g>
</g>
<!-- Node13&#45;&gt;Node18 -->
<g id="edge22" class="edge">
<title>Node13&#45;&gt;Node18</title>
<path fill="none" stroke="midnightblue" d="M1510.27,-56.32C1499.16,-48.11 1482.26,-35.6 1469.02,-25.81"/>
<polygon fill="midnightblue" stroke="midnightblue" points="1471.06,-22.97 1460.94,-19.83 1466.9,-28.59 1471.06,-22.97"/>
</g>
<!-- Node19 -->
<g id="node19" class="node">
<title>Node19</title>
<g id="a_node19"><a xlink:title=" ">
<polygon fill="none" stroke="#bfbfbf" points="1489.5,-0.5 1489.5,-19.5 1554.5,-19.5 1554.5,-0.5 1489.5,-0.5"/>
<text text-anchor="middle" x="1522" y="-7.5" font-family="FreeSans.ttf" font-size="10.00">stdexcept</text>
</a>
</g>
</g>
<!-- Node13&#45;&gt;Node19 -->
<g id="edge23" class="edge">
<title>Node13&#45;&gt;Node19</title>
<path fill="none" stroke="midnightblue" d="M1522,-56.08C1522,-49.01 1522,-38.86 1522,-29.99"/>
<polygon fill="midnightblue" stroke="midnightblue" points="1525.5,-29.75 1522,-19.75 1518.5,-29.75 1525.5,-29.75"/>
</g>
<!-- Node20 -->
<g id="node20" class="node">
<title>Node20</title>
<g id="a_node20"><a xlink:title=" ">
<polygon fill="none" stroke="#bfbfbf" points="1635.5,-0.5 1635.5,-19.5 1704.5,-19.5 1704.5,-0.5 1635.5,-0.5"/>
<text text-anchor="middle" x="1670" y="-7.5" font-family="FreeSans.ttf" font-size="10.00">type_traits</text>
</a>
</g>
</g>
<!-- Node13&#45;&gt;Node20 -->
<g id="edge24" class="edge">
<title>Node13&#45;&gt;Node20</title>
<path fill="none" stroke="midnightblue" d="M1545.45,-56.44C1570.13,-47.44 1609.19,-33.19 1636.98,-23.05"/>
<polygon fill="midnightblue" stroke="midnightblue" points="1638.46,-26.23 1646.66,-19.52 1636.06,-19.66 1638.46,-26.23"/>
</g>
<!-- Node21 -->
<g id="node21" class="node">
<title>Node21</title>
<g id="a_node21"><a xlink:title=" ">
<polygon fill="none" stroke="#bfbfbf" points="1572.5,-0.5 1572.5,-19.5 1617.5,-19.5 1617.5,-0.5 1572.5,-0.5"/>
<text text-anchor="middle" x="1595" y="-7.5" font-family="FreeSans.ttf" font-size="10.00">utility</text>
</a>
</g>
</g>
<!-- Node13&#45;&gt;Node21 -->
<g id="edge25" class="edge">
<title>Node13&#45;&gt;Node21</title>
<path fill="none" stroke="midnightblue" d="M1533.73,-56.32C1544.84,-48.11 1561.74,-35.6 1574.98,-25.81"/>
<polygon fill="midnightblue" stroke="midnightblue" points="1577.1,-28.59 1583.06,-19.83 1572.94,-22.97 1577.1,-28.59"/>
</g>
<!-- Node22&#45;&gt;Node4 -->
<g id="edge32" class="edge">
<title>Node22&#45;&gt;Node4</title>
<path fill="none" stroke="midnightblue" d="M757.06,-169.49C887.4,-157.42 1137.91,-134.22 1226.77,-125.99"/>
<polygon fill="midnightblue" stroke="midnightblue" points="1227.15,-129.47 1236.79,-125.06 1226.51,-122.49 1227.15,-129.47"/>
</g>
<!-- Node22&#45;&gt;Node8 -->
<g id="edge35" class="edge">
<title>Node22&#45;&gt;Node8</title>
<path fill="none" stroke="midnightblue" d="M600.42,-168.49C528.66,-157.27 420.66,-131.93 344,-76 327.24,-63.78 314.59,-43.33 307.03,-28.63"/>
<polygon fill="midnightblue" stroke="midnightblue" points="310.14,-27.02 302.63,-19.55 303.84,-30.07 310.14,-27.02"/>
</g>
<!-- Node22&#45;&gt;Node13 -->
<g id="edge31" class="edge">
<title>Node22&#45;&gt;Node13</title>
<path fill="none" stroke="midnightblue" d="M741.68,-168.46C897.72,-148.17 1289.64,-97.21 1450.94,-76.24"/>
<polygon fill="midnightblue" stroke="midnightblue" points="1451.77,-79.66 1461.23,-74.9 1450.86,-72.72 1451.77,-79.66"/>
</g>
<!-- Node22&#45;&gt;Node14 -->
<g id="edge34" class="edge">
<title>Node22&#45;&gt;Node14</title>
<path fill="none" stroke="midnightblue" d="M686.37,-168.4C703.77,-154.42 740.45,-126.83 776,-112 927.78,-48.7 1124.67,-22.77 1204.75,-14.37"/>
<polygon fill="midnightblue" stroke="midnightblue" points="1205.22,-17.84 1214.81,-13.34 1204.51,-10.88 1205.22,-17.84"/>
</g>
<!-- Node22&#45;&gt;Node23 -->
<g id="edge28" class="edge">
<title>Node22&#45;&gt;Node23</title>
<path fill="none" stroke="midnightblue" d="M676.16,-168.37C675.91,-154.33 673.23,-126.65 657,-112 631.9,-89.34 545.81,-77.55 482.98,-71.82"/>
<polygon fill="midnightblue" stroke="midnightblue" points="482.98,-68.3 472.71,-70.92 482.37,-75.28 482.98,-68.3"/>
</g>
<!-- Node25 -->
<g id="node25" class="node">
<title>Node25</title>
<g id="a_node25"><a xlink:title=" ">
<polygon fill="none" stroke="#bfbfbf" points="592,-112.5 592,-131.5 648,-131.5 648,-112.5 592,-112.5"/>
<text text-anchor="middle" x="620" y="-119.5" font-family="FreeSans.ttf" font-size="10.00">sstream</text>
</a>
</g>
</g>
<!-- Node22&#45;&gt;Node25 -->
<g id="edge33" class="edge">
<title>Node22&#45;&gt;Node25</title>
<path fill="none" stroke="midnightblue" d="M667,-168.32C658.81,-160.42 646.49,-148.55 636.53,-138.94"/>
<polygon fill="midnightblue" stroke="midnightblue" points="638.79,-136.26 629.16,-131.83 633.93,-141.29 638.79,-136.26"/>
</g>
<!-- Node26 -->
<g id="node26" class="node">
<title>Node26</title>
<g id="a_node26"><a xlink:title=" ">
<polygon fill="none" stroke="#bfbfbf" points="785,-112.5 785,-131.5 835,-131.5 835,-112.5 785,-112.5"/>
<text text-anchor="middle" x="810" y="-119.5" font-family="FreeSans.ttf" font-size="10.00">cstring</text>
</a>
</g>
</g>
<!-- Node22&#45;&gt;Node26 -->
<g id="edge36" class="edge">
<title>Node22&#45;&gt;Node26</title>
<path fill="none" stroke="midnightblue" d="M697.23,-168.44C719.38,-159.52 754.32,-145.44 779.44,-135.32"/>
<polygon fill="midnightblue" stroke="midnightblue" points="780.9,-138.5 788.87,-131.52 778.28,-132.01 780.9,-138.5"/>
</g>
<!-- Node23&#45;&gt;Node8 -->
<g id="edge29" class="edge">
<title>Node23&#45;&gt;Node8</title>
<path fill="none" stroke="midnightblue" d="M394.94,-56.44C376.43,-47.68 347.42,-33.94 326.14,-23.86"/>
<polygon fill="midnightblue" stroke="midnightblue" points="327.51,-20.63 316.98,-19.52 324.52,-26.96 327.51,-20.63"/>
</g>
<!-- Node24 -->
<g id="node24" class="node">
<title>Node24</title>
<g id="a_node24"><a xlink:title=" ">
<polygon fill="none" stroke="#bfbfbf" points="373,-0.5 373,-19.5 453,-19.5 453,-0.5 373,-0.5"/>
<text text-anchor="middle" x="413" y="-7.5" font-family="FreeSans.ttf" font-size="10.00">CoreExport.h</text>
</a>
</g>
</g>
<!-- Node23&#45;&gt;Node24 -->
<g id="edge30" class="edge">
<title>Node23&#45;&gt;Node24</title>
<path fill="none" stroke="midnightblue" d="M413,-56.08C413,-49.01 413,-38.86 413,-29.99"/>
<polygon fill="midnightblue" stroke="midnightblue" points="416.5,-29.75 413,-19.75 409.5,-29.75 416.5,-29.75"/>
</g>
<!-- Node27&#45;&gt;Node4 -->
<g id="edge38" class="edge">
<title>Node27&#45;&gt;Node4</title>
<path fill="none" stroke="midnightblue" d="M1589.8,-280.22C1566.03,-258.01 1499.82,-199.16 1434,-168 1421.08,-161.88 1337.89,-141.68 1291.01,-130.54"/>
<polygon fill="midnightblue" stroke="midnightblue" points="1291.58,-127.07 1281.04,-128.17 1289.97,-133.88 1291.58,-127.07"/>
</g>
<!-- Node28 -->
<g id="node28" class="node">
<title>Node28</title>
<g id="a_node28"><a xlink:href="MatrixView_8h.html" target="_top" xlink:title=" ">
<polygon fill="none" stroke="black" points="1310,-112.5 1310,-131.5 1462,-131.5 1462,-112.5 1310,-112.5"/>
<text text-anchor="middle" x="1386" y="-119.5" font-family="FreeSans.ttf" font-size="10.00">iDynTree/Core/MatrixView.h</text>
</a>
</g>
</g>
<!-- Node27&#45;&gt;Node28 -->
<g id="edge39" class="edge">
<title>Node27&#45;&gt;Node28</title>
<path fill="none" stroke="midnightblue" d="M1596.39,-280.21C1589.36,-257.99 1567.82,-199.11 1529,-168 1508.02,-151.19 1480.69,-140.62 1455.55,-133.99"/>
<polygon fill="midnightblue" stroke="midnightblue" points="1456.23,-130.55 1445.68,-131.55 1454.55,-137.34 1456.23,-130.55"/>
</g>
<!-- Node28&#45;&gt;Node13 -->
<g id="edge42" class="edge">
<title>Node28&#45;&gt;Node13</title>
<path fill="none" stroke="midnightblue" d="M1407.55,-112.44C1430.03,-103.52 1465.49,-89.44 1490.98,-79.32"/>
<polygon fill="midnightblue" stroke="midnightblue" points="1492.55,-82.46 1500.55,-75.52 1489.97,-75.95 1492.55,-82.46"/>
</g>
<!-- Node28&#45;&gt;Node14 -->
<g id="edge40" class="edge">
<title>Node28&#45;&gt;Node14</title>
<path fill="none" stroke="midnightblue" d="M1374.62,-112.37C1349.95,-93.65 1291.29,-49.15 1260.55,-25.83"/>
<polygon fill="midnightblue" stroke="midnightblue" points="1262.41,-22.85 1252.33,-19.59 1258.18,-28.42 1262.41,-22.85"/>
</g>
<!-- Node28&#45;&gt;Node20 -->
<g id="edge41" class="edge">
<title>Node28&#45;&gt;Node20</title>
<path fill="none" stroke="midnightblue" d="M1462.35,-112.97C1502.19,-106.65 1550.85,-95.51 1591,-76 1616.07,-63.82 1640.09,-42.14 1654.93,-27.19"/>
<polygon fill="midnightblue" stroke="midnightblue" points="1657.75,-29.31 1662.18,-19.68 1652.71,-24.45 1657.75,-29.31"/>
</g>
<!-- Node28&#45;&gt;Node23 -->
<g id="edge43" class="edge">
<title>Node28&#45;&gt;Node23</title>
<path fill="none" stroke="midnightblue" d="M1309.78,-113.56C1303.09,-113 1296.43,-112.47 1290,-112 990.04,-90.25 631.62,-75.3 482.94,-69.59"/>
<polygon fill="midnightblue" stroke="midnightblue" points="482.73,-66.07 472.6,-69.19 482.46,-73.07 482.73,-66.07"/>
</g>
<!-- Node29&#45;&gt;Node4 -->
<g id="edge49" class="edge">
<title>Node29&#45;&gt;Node4</title>
<path fill="none" stroke="midnightblue" d="M1024.45,-168.48C1074.72,-159.97 1153.32,-146.14 1221,-132 1222.94,-131.59 1224.93,-131.16 1226.94,-130.72"/>
<polygon fill="midnightblue" stroke="midnightblue" points="1227.97,-134.07 1236.94,-128.43 1226.41,-127.25 1227.97,-134.07"/>
</g>
<!-- Node29&#45;&gt;Node14 -->
<g id="edge47" class="edge">
<title>Node29&#45;&gt;Node14</title>
<path fill="none" stroke="midnightblue" d="M987.03,-168.31C1030.72,-141.25 1164.6,-58.32 1218.33,-25.04"/>
<polygon fill="midnightblue" stroke="midnightblue" points="1220.45,-27.85 1227.11,-19.61 1216.76,-21.9 1220.45,-27.85"/>
</g>
<!-- Node29&#45;&gt;Node23 -->
<g id="edge45" class="edge">
<title>Node29&#45;&gt;Node23</title>
<path fill="none" stroke="midnightblue" d="M971.74,-168.06C969.19,-153.57 961.93,-125.27 943,-112 906.16,-86.16 618.15,-73.58 482.82,-69.05"/>
<polygon fill="midnightblue" stroke="midnightblue" points="482.67,-65.54 472.56,-68.71 482.44,-72.54 482.67,-65.54"/>
</g>
<!-- Node29&#45;&gt;Node25 -->
<g id="edge51" class="edge">
<title>Node29&#45;&gt;Node25</title>
<path fill="none" stroke="midnightblue" d="M917.07,-168.44C844.84,-157.4 721.03,-138.45 658.51,-128.89"/>
<polygon fill="midnightblue" stroke="midnightblue" points="658.72,-125.38 648.3,-127.33 657.66,-132.3 658.72,-125.38"/>
</g>
<!-- Node29&#45;&gt;Node26 -->
<g id="edge48" class="edge">
<title>Node29&#45;&gt;Node26</title>
<path fill="none" stroke="midnightblue" d="M947.17,-168.44C919.59,-159.31 875.71,-144.77 845.03,-134.6"/>
<polygon fill="midnightblue" stroke="midnightblue" points="845.76,-131.16 835.17,-131.34 843.56,-137.81 845.76,-131.16"/>
</g>
<!-- Node29&#45;&gt;Node28 -->
<g id="edge46" class="edge">
<title>Node29&#45;&gt;Node28</title>
<path fill="none" stroke="midnightblue" d="M1038.44,-168.44C1112.45,-158.77 1232.77,-143.04 1310.64,-132.85"/>
<polygon fill="midnightblue" stroke="midnightblue" points="1311.4,-136.28 1320.87,-131.52 1310.5,-129.34 1311.4,-136.28"/>
</g>
<!-- Node30 -->
<g id="node30" class="node">
<title>Node30</title>
<g id="a_node30"><a xlink:title=" ">
<polygon fill="none" stroke="#bfbfbf" points="874,-112.5 874,-131.5 934,-131.5 934,-112.5 874,-112.5"/>
<text text-anchor="middle" x="904" y="-119.5" font-family="FreeSans.ttf" font-size="10.00">iostream</text>
</a>
</g>
</g>
<!-- Node29&#45;&gt;Node30 -->
<g id="edge50" class="edge">
<title>Node29&#45;&gt;Node30</title>
<path fill="none" stroke="midnightblue" d="M961.91,-168.32C951.51,-160.18 935.74,-147.84 923.28,-138.09"/>
<polygon fill="midnightblue" stroke="midnightblue" points="925.32,-135.24 915.29,-131.83 921.01,-140.75 925.32,-135.24"/>
</g>
<!-- Node31&#45;&gt;Node22 -->
<g id="edge53" class="edge">
<title>Node31&#45;&gt;Node22</title>
<path fill="none" stroke="midnightblue" d="M547.22,-448.41C531.92,-408.64 494.95,-293.92 546,-224 557.87,-207.75 576.01,-197.32 595,-190.64"/>
<polygon fill="midnightblue" stroke="midnightblue" points="596.21,-193.93 604.68,-187.57 594.09,-187.26 596.21,-193.93"/>
</g>
<!-- Node32 -->
<g id="node32" class="node">
<title>Node32</title>
<g id="a_node32"><a xlink:href="GeomVector3_8h.html" target="_top" xlink:title=" ">
<polygon fill="none" stroke="black" points="555.5,-224.5 555.5,-243.5 718.5,-243.5 718.5,-224.5 555.5,-224.5"/>
<text text-anchor="middle" x="637" y="-231.5" font-family="FreeSans.ttf" font-size="10.00">iDynTree/Core/GeomVector3.h</text>
</a>
</g>
</g>
<!-- Node31&#45;&gt;Node32 -->
<g id="edge54" class="edge">
<title>Node31&#45;&gt;Node32</title>
<path fill="none" stroke="midnightblue" d="M549.36,-448.47C546.24,-434.06 542.96,-411.1 548,-392 562.72,-336.2 602.32,-279.43 623.39,-251.96"/>
<polygon fill="midnightblue" stroke="midnightblue" points="626.36,-253.85 629.76,-243.82 620.84,-249.54 626.36,-253.85"/>
</g>
<!-- Node33 -->
<g id="node33" class="node">
<title>Node33</title>
<g id="a_node33"><a xlink:href="SpatialVector_8h.html" target="_top" xlink:title=" ">
<polygon fill="none" stroke="black" points="557.5,-392.5 557.5,-411.5 718.5,-411.5 718.5,-392.5 557.5,-392.5"/>
<text text-anchor="middle" x="638" y="-399.5" font-family="FreeSans.ttf" font-size="10.00">iDynTree/Core/SpatialVector.h</text>
</a>
</g>
</g>
<!-- Node31&#45;&gt;Node33 -->
<g id="edge56" class="edge">
<title>Node31&#45;&gt;Node33</title>
<path fill="none" stroke="midnightblue" d="M573.14,-448.4C586.39,-439.13 603.68,-427.03 617.08,-417.65"/>
<polygon fill="midnightblue" stroke="midnightblue" points="619.45,-420.26 625.63,-411.66 615.43,-414.53 619.45,-420.26"/>
</g>
<!-- Node32&#45;&gt;Node22 -->
<g id="edge55" class="edge">
<title>Node32&#45;&gt;Node22</title>
<path fill="none" stroke="midnightblue" d="M643.44,-224.08C648.95,-216.46 657.03,-205.26 663.76,-195.94"/>
<polygon fill="midnightblue" stroke="midnightblue" points="666.66,-197.91 669.68,-187.75 660.99,-193.81 666.66,-197.91"/>
</g>
<!-- Node33&#45;&gt;Node23 -->
<g id="edge70" class="edge">
<title>Node33&#45;&gt;Node23</title>
<path fill="none" stroke="midnightblue" d="M625.88,-392.29C614.67,-383.85 597.98,-370.26 586,-356 508.4,-263.57 443.48,-132.33 421.23,-84.94"/>
<polygon fill="midnightblue" stroke="midnightblue" points="424.31,-83.27 416.93,-75.68 417.97,-86.22 424.31,-83.27"/>
</g>
<!-- Node33&#45;&gt;Node25 -->
<g id="edge73" class="edge">
<title>Node33&#45;&gt;Node25</title>
<path fill="none" stroke="midnightblue" d="M630.52,-392.23C611.75,-369.58 562.96,-306.5 546,-244 534.53,-201.73 574.73,-159.78 600.33,-138.11"/>
<polygon fill="midnightblue" stroke="midnightblue" points="602.82,-140.6 608.36,-131.57 598.4,-135.18 602.82,-140.6"/>
</g>
<!-- Node33&#45;&gt;Node30 -->
<g id="edge72" class="edge">
<title>Node33&#45;&gt;Node30</title>
<path fill="none" stroke="midnightblue" d="M646.25,-392.38C683.88,-353.05 839.44,-190.47 888.86,-138.83"/>
<polygon fill="midnightblue" stroke="midnightblue" points="891.46,-141.17 895.84,-131.52 886.4,-136.33 891.46,-141.17"/>
</g>
<!-- Node33&#45;&gt;Node32 -->
<g id="edge71" class="edge">
<title>Node33&#45;&gt;Node32</title>
<path fill="none" stroke="midnightblue" d="M637.95,-392.08C637.79,-365.95 637.33,-289.21 637.11,-253.58"/>
<polygon fill="midnightblue" stroke="midnightblue" points="640.61,-253.55 637.05,-243.57 633.61,-253.59 640.61,-253.55"/>
</g>
<!-- Node34 -->
<g id="node34" class="node">
<title>Node34</title>
<g id="a_node34"><a xlink:href="Position_8h.html" target="_top" xlink:title=" ">
<polygon fill="none" stroke="black" points="966.5,-336.5 966.5,-355.5 1031.5,-355.5 1031.5,-336.5 966.5,-336.5"/>
<text text-anchor="middle" x="999" y="-343.5" font-family="FreeSans.ttf" font-size="10.00">Position.h</text>
</a>
</g>
</g>
<!-- Node33&#45;&gt;Node34 -->
<g id="edge57" class="edge">
<title>Node33&#45;&gt;Node34</title>
<path fill="none" stroke="midnightblue" d="M695.2,-392.44C767.71,-381.6 891.06,-363.15 956.04,-353.43"/>
<polygon fill="midnightblue" stroke="midnightblue" points="956.95,-356.83 966.33,-351.89 955.92,-349.91 956.95,-356.83"/>
</g>
<!-- Node36 -->
<g id="node36" class="node">
<title>Node36</title>
<g id="a_node36"><a xlink:href="Rotation_8h.html" target="_top" xlink:title=" ">
<polygon fill="none" stroke="black" points="851,-280.5 851,-299.5 989,-299.5 989,-280.5 851,-280.5"/>
<text text-anchor="middle" x="920" y="-287.5" font-family="FreeSans.ttf" font-size="10.00">iDynTree/Core/Rotation.h</text>
</a>
</g>
</g>
<!-- Node33&#45;&gt;Node36 -->
<g id="edge69" class="edge">
<title>Node33&#45;&gt;Node36</title>
<path fill="none" stroke="midnightblue" d="M660.13,-392.37C709.96,-372.93 831.11,-325.67 888.65,-303.23"/>
<polygon fill="midnightblue" stroke="midnightblue" points="889.93,-306.49 897.97,-299.59 887.39,-299.96 889.93,-306.49"/>
</g>
<!-- Node34&#45;&gt;Node4 -->
<g id="edge68" class="edge">
<title>Node34&#45;&gt;Node4</title>
<path fill="none" stroke="midnightblue" d="M1031.6,-340.57C1084.79,-331.69 1190.46,-306.85 1252,-244 1276.52,-218.96 1278.26,-202.65 1273,-168 1271.63,-159 1268.81,-149.33 1266.05,-141.26"/>
<polygon fill="midnightblue" stroke="midnightblue" points="1269.31,-139.98 1262.6,-131.78 1262.73,-142.37 1269.31,-139.98"/>
</g>
<!-- Node35 -->
<g id="node35" class="node">
<title>Node35</title>
<g id="a_node35"><a xlink:href="PositionRaw_8h.html" target="_top" xlink:title=" ">
<polygon fill="none" stroke="black" points="889,-224.5 889,-243.5 1045,-243.5 1045,-224.5 889,-224.5"/>
<text text-anchor="middle" x="967" y="-231.5" font-family="FreeSans.ttf" font-size="10.00">iDynTree/Core/PositionRaw.h</text>
</a>
</g>
</g>
<!-- Node34&#45;&gt;Node35 -->
<g id="edge58" class="edge">
<title>Node34&#45;&gt;Node35</title>
<path fill="none" stroke="midnightblue" d="M1000.42,-336.33C1002.17,-323.62 1004.18,-299.35 998,-280 994.69,-269.65 988.14,-259.55 981.9,-251.55"/>
<polygon fill="midnightblue" stroke="midnightblue" points="984.52,-249.23 975.43,-243.78 979.14,-253.71 984.52,-249.23"/>
</g>
<!-- Node34&#45;&gt;Node36 -->
<g id="edge61" class="edge">
<title>Node34&#45;&gt;Node36</title>
<path fill="none" stroke="midnightblue" d="M986.31,-336.32C974.1,-327.98 955.42,-315.21 941,-305.35"/>
<polygon fill="midnightblue" stroke="midnightblue" points="942.89,-302.41 932.66,-299.65 938.94,-308.19 942.89,-302.41"/>
</g>
<!-- Node35&#45;&gt;Node4 -->
<g id="edge60" class="edge">
<title>Node35&#45;&gt;Node4</title>
<path fill="none" stroke="midnightblue" d="M989.91,-224.37C1041.77,-204.83 1168.19,-157.21 1227.42,-134.9"/>
<polygon fill="midnightblue" stroke="midnightblue" points="1228.87,-138.09 1236.99,-131.29 1226.4,-131.54 1228.87,-138.09"/>
</g>
<!-- Node35&#45;&gt;Node22 -->
<g id="edge59" class="edge">
<title>Node35&#45;&gt;Node22</title>
<path fill="none" stroke="midnightblue" d="M920.89,-224.44C869.59,-214.92 786.73,-199.55 731.81,-189.36"/>
<polygon fill="midnightblue" stroke="midnightblue" points="732.36,-185.9 721.89,-187.52 731.09,-192.78 732.36,-185.9"/>
</g>
<!-- Node36&#45;&gt;Node4 -->
<g id="edge62" class="edge">
<title>Node36&#45;&gt;Node4</title>
<path fill="none" stroke="midnightblue" d="M989.18,-287.75C1069.62,-284.84 1195.76,-275.26 1230,-244 1258.76,-217.75 1261.4,-168.48 1260.44,-141.62"/>
<polygon fill="midnightblue" stroke="midnightblue" points="1263.93,-141.4 1259.87,-131.61 1256.94,-141.79 1263.93,-141.4"/>
</g>
<!-- Node36&#45;&gt;Node22 -->
<g id="edge67" class="edge">
<title>Node36&#45;&gt;Node22</title>
<path fill="none" stroke="midnightblue" d="M900.85,-280.37C858.09,-261.09 754.64,-214.45 704.37,-191.79"/>
<polygon fill="midnightblue" stroke="midnightblue" points="705.61,-188.51 695.06,-187.59 702.74,-194.89 705.61,-188.51"/>
</g>
<!-- Node36&#45;&gt;Node32 -->
<g id="edge63" class="edge">
<title>Node36&#45;&gt;Node32</title>
<path fill="none" stroke="midnightblue" d="M875.16,-280.44C825.38,-270.94 745.02,-255.61 691.61,-245.42"/>
<polygon fill="midnightblue" stroke="midnightblue" points="692.11,-241.95 681.63,-243.52 690.8,-248.83 692.11,-241.95"/>
</g>
<!-- Node37 -->
<g id="node37" class="node">
<title>Node37</title>
<g id="a_node37"><a xlink:href="RotationRaw_8h.html" target="_top" xlink:title=" ">
<polygon fill="none" stroke="black" points="1063,-224.5 1063,-243.5 1221,-243.5 1221,-224.5 1063,-224.5"/>
<text text-anchor="middle" x="1142" y="-231.5" font-family="FreeSans.ttf" font-size="10.00">iDynTree/Core/RotationRaw.h</text>
</a>
</g>
</g>
<!-- Node36&#45;&gt;Node37 -->
<g id="edge64" class="edge">
<title>Node36&#45;&gt;Node37</title>
<path fill="none" stroke="midnightblue" d="M955.18,-280.44C993.58,-271.1 1055.18,-256.12 1097.06,-245.93"/>
<polygon fill="midnightblue" stroke="midnightblue" points="1098.1,-249.28 1106.99,-243.52 1096.44,-242.48 1098.1,-249.28"/>
</g>
<!-- Node37&#45;&gt;Node4 -->
<g id="edge66" class="edge">
<title>Node37&#45;&gt;Node4</title>
<path fill="none" stroke="midnightblue" d="M1151.18,-224.37C1170.83,-205.89 1217.21,-162.29 1242.25,-138.74"/>
<polygon fill="midnightblue" stroke="midnightblue" points="1244.97,-140.99 1249.86,-131.59 1240.18,-135.89 1244.97,-140.99"/>
</g>
<!-- Node37&#45;&gt;Node29 -->
<g id="edge65" class="edge">
<title>Node37&#45;&gt;Node29</title>
<path fill="none" stroke="midnightblue" d="M1115.22,-224.44C1086.67,-215.32 1041.27,-200.81 1009.46,-190.65"/>
<polygon fill="midnightblue" stroke="midnightblue" points="1010.24,-187.23 999.65,-187.52 1008.11,-193.89 1010.24,-187.23"/>
</g>
<!-- Node38&#45;&gt;Node22 -->
<g id="edge75" class="edge">
<title>Node38&#45;&gt;Node22</title>
<path fill="none" stroke="midnightblue" d="M766.87,-448.27C768.58,-409.56 769.12,-300.19 727,-224 720.31,-211.89 709.05,-201.44 698.82,-193.66"/>
<polygon fill="midnightblue" stroke="midnightblue" points="700.76,-190.74 690.58,-187.78 696.69,-196.44 700.76,-190.74"/>
</g>
<!-- Node38&#45;&gt;Node32 -->
<g id="edge76" class="edge">
<title>Node38&#45;&gt;Node32</title>
<path fill="none" stroke="midnightblue" d="M758.29,-448.42C750.47,-434.16 737.98,-411.5 727,-392 698.45,-341.31 664.12,-281.81 647.3,-252.76"/>
<polygon fill="midnightblue" stroke="midnightblue" points="650.16,-250.72 642.12,-243.83 644.11,-254.23 650.16,-250.72"/>
</g>
<!-- Node38&#45;&gt;Node33 -->
<g id="edge77" class="edge">
<title>Node38&#45;&gt;Node33</title>
<path fill="none" stroke="midnightblue" d="M735.67,-448.4C714.48,-438.55 686.41,-425.5 665.8,-415.92"/>
<polygon fill="midnightblue" stroke="midnightblue" points="667.17,-412.7 656.63,-411.66 664.22,-419.05 667.17,-412.7"/>
</g>
<!-- Node39&#45;&gt;Node4 -->
<g id="edge82" class="edge">
<title>Node39&#45;&gt;Node4</title>
<path fill="none" stroke="midnightblue" d="M1032.9,-392.43C1092.74,-375.36 1216.26,-331.04 1274,-244 1293.03,-215.31 1298.98,-200.95 1289,-168 1285.88,-157.7 1279.55,-147.61 1273.5,-139.6"/>
<polygon fill="midnightblue" stroke="midnightblue" points="1276.22,-137.4 1267.21,-131.82 1270.77,-141.8 1276.22,-137.4"/>
</g>
<!-- Node39&#45;&gt;Node29 -->
<g id="edge81" class="edge">
<title>Node39&#45;&gt;Node29</title>
<path fill="none" stroke="midnightblue" d="M971.23,-392.47C934.01,-379.36 869.48,-350.35 842,-300 815.14,-250.78 891.86,-210.64 939.04,-191.37"/>
<polygon fill="midnightblue" stroke="midnightblue" points="940.6,-194.51 948.61,-187.58 938.02,-188.01 940.6,-194.51"/>
</g>
<!-- Node39&#45;&gt;Node34 -->
<g id="edge79" class="edge">
<title>Node39&#45;&gt;Node34</title>
<path fill="none" stroke="midnightblue" d="M999,-392.08C999,-385.01 999,-374.86 999,-365.99"/>
<polygon fill="midnightblue" stroke="midnightblue" points="1002.5,-365.75 999,-355.75 995.5,-365.75 1002.5,-365.75"/>
</g>
<!-- Node39&#45;&gt;Node36 -->
<g id="edge80" class="edge">
<title>Node39&#45;&gt;Node36</title>
<path fill="none" stroke="midnightblue" d="M989.65,-392.24C980.66,-383.56 967,-369.6 957,-356 945.96,-341 935.68,-322.4 928.77,-308.95"/>
<polygon fill="midnightblue" stroke="midnightblue" points="931.8,-307.18 924.18,-299.81 925.54,-310.31 931.8,-307.18"/>
</g>
</g>
</svg>
