<?xml version="1.0" encoding="UTF-8" standalone="no"?>
<!DOCTYPE svg PUBLIC "-//W3C//DTD SVG 1.1//EN"
 "http://www.w3.org/Graphics/SVG/1.1/DTD/svg11.dtd">
<!-- Generated by graphviz version 2.43.0 (0)
 -->
<!-- Title: PositionRaw.h Pages: 1 -->
<svg width="740pt" height="196pt"
 viewBox="0.00 0.00 740.00 196.00" xmlns="http://www.w3.org/2000/svg" xmlns:xlink="http://www.w3.org/1999/xlink">
<g id="graph0" class="graph" transform="scale(1 1) rotate(0) translate(4 192)">
<title>PositionRaw.h</title>
<!-- Node1 -->
<g id="node1" class="node">
<title>Node1</title>
<g id="a_node1"><a xlink:title=" ">
<polygon fill="#bfbfbf" stroke="black" points="445.5,-168.5 445.5,-187.5 530.5,-187.5 530.5,-168.5 445.5,-168.5"/>
<text text-anchor="middle" x="488" y="-175.5" font-family="FreeSans.ttf" font-size="10.00">PositionRaw.h</text>
</a>
</g>
</g>
<!-- Node2 -->
<g id="node2" class="node">
<title>Node2</title>
<g id="a_node2"><a xlink:href="VectorFixSize_8h.html" target="_top" xlink:title=" ">
<polygon fill="none" stroke="black" points="353,-112.5 353,-131.5 515,-131.5 515,-112.5 353,-112.5"/>
<text text-anchor="middle" x="434" y="-119.5" font-family="FreeSans.ttf" font-size="10.00">iDynTree/Core/VectorFixSize.h</text>
</a>
</g>
</g>
<!-- Node1&#45;&gt;Node2 -->
<g id="edge1" class="edge">
<title>Node1&#45;&gt;Node2</title>
<path fill="none" stroke="midnightblue" d="M479.08,-168.08C471.22,-160.22 459.57,-148.57 450.08,-139.08"/>
<polygon fill="midnightblue" stroke="midnightblue" points="452.3,-136.35 442.75,-131.75 447.35,-141.3 452.3,-136.35"/>
</g>
<!-- Node15 -->
<g id="node15" class="node">
<title>Node15</title>
<g id="a_node15"><a xlink:title=" ">
<polygon fill="none" stroke="#bfbfbf" points="645,-56.5 645,-75.5 689,-75.5 689,-56.5 645,-56.5"/>
<text text-anchor="middle" x="667" y="-63.5" font-family="FreeSans.ttf" font-size="10.00">string</text>
</a>
</g>
</g>
<!-- Node1&#45;&gt;Node15 -->
<g id="edge20" class="edge">
<title>Node1&#45;&gt;Node15</title>
<path fill="none" stroke="midnightblue" d="M502.05,-168.37C532.89,-149.41 606.79,-104 644.31,-80.94"/>
<polygon fill="midnightblue" stroke="midnightblue" points="646.33,-83.81 653.02,-75.59 642.67,-77.85 646.33,-83.81"/>
</g>
<!-- Node3 -->
<g id="node3" class="node">
<title>Node3</title>
<g id="a_node3"><a xlink:href="Utils_8h.html" target="_top" xlink:title=" ">
<polygon fill="none" stroke="black" points="507.5,-56.5 507.5,-75.5 626.5,-75.5 626.5,-56.5 507.5,-56.5"/>
<text text-anchor="middle" x="567" y="-63.5" font-family="FreeSans.ttf" font-size="10.00">iDynTree/Core/Utils.h</text>
</a>
</g>
</g>
<!-- Node2&#45;&gt;Node3 -->
<g id="edge2" class="edge">
<title>Node2&#45;&gt;Node3</title>
<path fill="none" stroke="midnightblue" d="M455.07,-112.44C477.06,-103.52 511.73,-89.44 536.66,-79.32"/>
<polygon fill="midnightblue" stroke="midnightblue" points="538.08,-82.52 546.02,-75.52 535.44,-76.04 538.08,-82.52"/>
</g>
<!-- Node4 -->
<g id="node4" class="node">
<title>Node4</title>
<g id="a_node4"><a xlink:title=" ">
<polygon fill="none" stroke="#bfbfbf" points="580.5,-0.5 580.5,-19.5 633.5,-19.5 633.5,-0.5 580.5,-0.5"/>
<text text-anchor="middle" x="607" y="-7.5" font-family="FreeSans.ttf" font-size="10.00">cstddef</text>
</a>
</g>
</g>
<!-- Node2&#45;&gt;Node4 -->
<g id="edge18" class="edge">
<title>Node2&#45;&gt;Node4</title>
<path fill="none" stroke="midnightblue" d="M440.74,-112.34C451.7,-98.77 474.6,-72.34 499,-56 521.1,-41.2 548.85,-29.77 570.68,-22.13"/>
<polygon fill="midnightblue" stroke="midnightblue" points="571.91,-25.41 580.26,-18.89 569.67,-18.78 571.91,-25.41"/>
</g>
<!-- Node6 -->
<g id="node6" class="node">
<title>Node6</title>
<g id="a_node6"><a xlink:href="Span_8h.html" target="_top" xlink:title=" ">
<polygon fill="none" stroke="black" points="329.5,-56.5 329.5,-75.5 450.5,-75.5 450.5,-56.5 329.5,-56.5"/>
<text text-anchor="middle" x="390" y="-63.5" font-family="FreeSans.ttf" font-size="10.00">iDynTree/Core/Span.h</text>
</a>
</g>
</g>
<!-- Node2&#45;&gt;Node6 -->
<g id="edge5" class="edge">
<title>Node2&#45;&gt;Node6</title>
<path fill="none" stroke="midnightblue" d="M426.73,-112.08C420.46,-104.38 411.21,-93.03 403.57,-83.65"/>
<polygon fill="midnightblue" stroke="midnightblue" points="406.16,-81.29 397.13,-75.75 400.73,-85.71 406.16,-81.29"/>
</g>
<!-- Node7 -->
<g id="node7" class="node">
<title>Node7</title>
<g id="a_node7"><a xlink:title=" ">
<polygon fill="none" stroke="#bfbfbf" points="0,-0.5 0,-19.5 52,-19.5 52,-0.5 0,-0.5"/>
<text text-anchor="middle" x="26" y="-7.5" font-family="FreeSans.ttf" font-size="10.00">cassert</text>
</a>
</g>
</g>
<!-- Node2&#45;&gt;Node7 -->
<g id="edge17" class="edge">
<title>Node2&#45;&gt;Node7</title>
<path fill="none" stroke="midnightblue" d="M359.3,-112.48C307.67,-105.48 237.8,-93.78 178,-76 132.03,-62.33 81.31,-38.81 51.62,-24.12"/>
<polygon fill="midnightblue" stroke="midnightblue" points="52.91,-20.85 42.4,-19.51 49.78,-27.11 52.91,-20.85"/>
</g>
<!-- Node2&#45;&gt;Node15 -->
<g id="edge15" class="edge">
<title>Node2&#45;&gt;Node15</title>
<path fill="none" stroke="midnightblue" d="M475.97,-112.46C514.87,-104.36 574.56,-91.48 634.99,-76.14"/>
<polygon fill="midnightblue" stroke="midnightblue" points="635.88,-79.53 644.7,-73.66 634.14,-72.75 635.88,-79.53"/>
</g>
<!-- Node16 -->
<g id="node16" class="node">
<title>Node16</title>
<g id="a_node16"><a xlink:title=" ">
<polygon fill="none" stroke="#bfbfbf" points="187,-56.5 187,-75.5 243,-75.5 243,-56.5 187,-56.5"/>
<text text-anchor="middle" x="215" y="-63.5" font-family="FreeSans.ttf" font-size="10.00">sstream</text>
</a>
</g>
</g>
<!-- Node2&#45;&gt;Node16 -->
<g id="edge16" class="edge">
<title>Node2&#45;&gt;Node16</title>
<path fill="none" stroke="midnightblue" d="M399.3,-112.44C359.49,-102.63 294.43,-86.59 253.21,-76.42"/>
<polygon fill="midnightblue" stroke="midnightblue" points="253.82,-72.97 243.27,-73.97 252.14,-79.76 253.82,-72.97"/>
</g>
<!-- Node17 -->
<g id="node17" class="node">
<title>Node17</title>
<g id="a_node17"><a xlink:title=" ">
<polygon fill="none" stroke="#bfbfbf" points="261,-56.5 261,-75.5 311,-75.5 311,-56.5 261,-56.5"/>
<text text-anchor="middle" x="286" y="-63.5" font-family="FreeSans.ttf" font-size="10.00">cstring</text>
</a>
</g>
</g>
<!-- Node2&#45;&gt;Node17 -->
<g id="edge19" class="edge">
<title>Node2&#45;&gt;Node17</title>
<path fill="none" stroke="midnightblue" d="M410.55,-112.44C385.87,-103.44 346.81,-89.19 319.02,-79.05"/>
<polygon fill="midnightblue" stroke="midnightblue" points="319.94,-75.66 309.34,-75.52 317.54,-82.23 319.94,-75.66"/>
</g>
<!-- Node3&#45;&gt;Node4 -->
<g id="edge3" class="edge">
<title>Node3&#45;&gt;Node4</title>
<path fill="none" stroke="midnightblue" d="M573.61,-56.08C579.26,-48.46 587.54,-37.26 594.45,-27.94"/>
<polygon fill="midnightblue" stroke="midnightblue" points="597.38,-29.87 600.52,-19.75 591.75,-25.7 597.38,-29.87"/>
</g>
<!-- Node5 -->
<g id="node5" class="node">
<title>Node5</title>
<g id="a_node5"><a xlink:title=" ">
<polygon fill="none" stroke="#bfbfbf" points="652,-0.5 652,-19.5 732,-19.5 732,-0.5 652,-0.5"/>
<text text-anchor="middle" x="692" y="-7.5" font-family="FreeSans.ttf" font-size="10.00">CoreExport.h</text>
</a>
</g>
</g>
<!-- Node3&#45;&gt;Node5 -->
<g id="edge4" class="edge">
<title>Node3&#45;&gt;Node5</title>
<path fill="none" stroke="midnightblue" d="M586.81,-56.44C607.29,-47.6 639.48,-33.69 662.86,-23.59"/>
<polygon fill="midnightblue" stroke="midnightblue" points="664.49,-26.7 672.29,-19.52 661.72,-20.27 664.49,-26.7"/>
</g>
<!-- Node6&#45;&gt;Node4 -->
<g id="edge9" class="edge">
<title>Node6&#45;&gt;Node4</title>
<path fill="none" stroke="midnightblue" d="M424.91,-56.47C459.57,-47.98 514.45,-34.47 570.52,-20.36"/>
<polygon fill="midnightblue" stroke="midnightblue" points="571.41,-23.74 580.25,-17.9 569.7,-16.96 571.41,-23.74"/>
</g>
<!-- Node6&#45;&gt;Node7 -->
<g id="edge6" class="edge">
<title>Node6&#45;&gt;Node7</title>
<path fill="none" stroke="midnightblue" d="M329.15,-57.07C248.01,-46.43 109.84,-28.11 62.16,-19.92"/>
<polygon fill="midnightblue" stroke="midnightblue" points="62.77,-16.47 52.3,-18.11 61.5,-23.36 62.77,-16.47"/>
</g>
<!-- Node8 -->
<g id="node8" class="node">
<title>Node8</title>
<g id="a_node8"><a xlink:title=" ">
<polygon fill="none" stroke="#bfbfbf" points="221,-0.5 221,-19.5 285,-19.5 285,-0.5 221,-0.5"/>
<text text-anchor="middle" x="253" y="-7.5" font-family="FreeSans.ttf" font-size="10.00">algorithm</text>
</a>
</g>
</g>
<!-- Node6&#45;&gt;Node8 -->
<g id="edge7" class="edge">
<title>Node6&#45;&gt;Node8</title>
<path fill="none" stroke="midnightblue" d="M368.29,-56.44C345.65,-47.52 309.93,-33.44 284.25,-23.32"/>
<polygon fill="midnightblue" stroke="midnightblue" points="285.19,-19.93 274.61,-19.52 282.63,-26.44 285.19,-19.93"/>
</g>
<!-- Node9 -->
<g id="node9" class="node">
<title>Node9</title>
<g id="a_node9"><a xlink:title=" ">
<polygon fill="none" stroke="#bfbfbf" points="303,-0.5 303,-19.5 345,-19.5 345,-0.5 303,-0.5"/>
<text text-anchor="middle" x="324" y="-7.5" font-family="FreeSans.ttf" font-size="10.00">array</text>
</a>
</g>
</g>
<!-- Node6&#45;&gt;Node9 -->
<g id="edge8" class="edge">
<title>Node6&#45;&gt;Node9</title>
<path fill="none" stroke="midnightblue" d="M379.4,-56.32C369.54,-48.26 354.65,-36.08 342.78,-26.37"/>
<polygon fill="midnightblue" stroke="midnightblue" points="344.75,-23.46 334.8,-19.83 340.32,-28.88 344.75,-23.46"/>
</g>
<!-- Node10 -->
<g id="node10" class="node">
<title>Node10</title>
<g id="a_node10"><a xlink:title=" ">
<polygon fill="none" stroke="#bfbfbf" points="363.5,-0.5 363.5,-19.5 416.5,-19.5 416.5,-0.5 363.5,-0.5"/>
<text text-anchor="middle" x="390" y="-7.5" font-family="FreeSans.ttf" font-size="10.00">iterator</text>
</a>
</g>
</g>
<!-- Node6&#45;&gt;Node10 -->
<g id="edge10" class="edge">
<title>Node6&#45;&gt;Node10</title>
<path fill="none" stroke="midnightblue" d="M390,-56.08C390,-49.01 390,-38.86 390,-29.99"/>
<polygon fill="midnightblue" stroke="midnightblue" points="393.5,-29.75 390,-19.75 386.5,-29.75 393.5,-29.75"/>
</g>
<!-- Node11 -->
<g id="node11" class="node">
<title>Node11</title>
<g id="a_node11"><a xlink:title=" ">
<polygon fill="none" stroke="#bfbfbf" points="435,-0.5 435,-19.5 479,-19.5 479,-0.5 435,-0.5"/>
<text text-anchor="middle" x="457" y="-7.5" font-family="FreeSans.ttf" font-size="10.00">limits</text>
</a>
</g>
</g>
<!-- Node6&#45;&gt;Node11 -->
<g id="edge11" class="edge">
<title>Node6&#45;&gt;Node11</title>
<path fill="none" stroke="midnightblue" d="M400.76,-56.32C410.77,-48.26 425.89,-36.08 437.93,-26.37"/>
<polygon fill="midnightblue" stroke="midnightblue" points="440.45,-28.83 446.04,-19.83 436.06,-23.38 440.45,-28.83"/>
</g>
<!-- Node12 -->
<g id="node12" class="node">
<title>Node12</title>
<g id="a_node12"><a xlink:title=" ">
<polygon fill="none" stroke="#bfbfbf" points="497.5,-0.5 497.5,-19.5 562.5,-19.5 562.5,-0.5 497.5,-0.5"/>
<text text-anchor="middle" x="530" y="-7.5" font-family="FreeSans.ttf" font-size="10.00">stdexcept</text>
</a>
</g>
</g>
<!-- Node6&#45;&gt;Node12 -->
<g id="edge12" class="edge">
<title>Node6&#45;&gt;Node12</title>
<path fill="none" stroke="midnightblue" d="M412.18,-56.44C435.43,-47.48 472.15,-33.31 498.42,-23.18"/>
<polygon fill="midnightblue" stroke="midnightblue" points="499.85,-26.38 507.92,-19.52 497.33,-19.85 499.85,-26.38"/>
</g>
<!-- Node13 -->
<g id="node13" class="node">
<title>Node13</title>
<g id="a_node13"><a xlink:title=" ">
<polygon fill="none" stroke="#bfbfbf" points="70.5,-0.5 70.5,-19.5 139.5,-19.5 139.5,-0.5 70.5,-0.5"/>
<text text-anchor="middle" x="105" y="-7.5" font-family="FreeSans.ttf" font-size="10.00">type_traits</text>
</a>
</g>
</g>
<!-- Node6&#45;&gt;Node13 -->
<g id="edge13" class="edge">
<title>Node6&#45;&gt;Node13</title>
<path fill="none" stroke="midnightblue" d="M342.19,-56.44C295.52,-48 222.24,-34.57 149.92,-20.35"/>
<polygon fill="midnightblue" stroke="midnightblue" points="150.21,-16.84 139.72,-18.34 148.85,-23.71 150.21,-16.84"/>
</g>
<!-- Node14 -->
<g id="node14" class="node">
<title>Node14</title>
<g id="a_node14"><a xlink:title=" ">
<polygon fill="none" stroke="#bfbfbf" points="157.5,-0.5 157.5,-19.5 202.5,-19.5 202.5,-0.5 157.5,-0.5"/>
<text text-anchor="middle" x="180" y="-7.5" font-family="FreeSans.ttf" font-size="10.00">utility</text>
</a>
</g>
</g>
<!-- Node6&#45;&gt;Node14 -->
<g id="edge14" class="edge">
<title>Node6&#45;&gt;Node14</title>
<path fill="none" stroke="midnightblue" d="M355.14,-56.48C321.24,-48.12 268.04,-34.85 212.69,-20.13"/>
<polygon fill="midnightblue" stroke="midnightblue" points="213.27,-16.66 202.71,-17.47 211.46,-23.43 213.27,-16.66"/>
</g>
</g>
</svg>
