<?xml version="1.0" encoding="UTF-8" standalone="no"?>
<!DOCTYPE svg PUBLIC "-//W3C//DTD SVG 1.1//EN"
 "http://www.w3.org/Graphics/SVG/1.1/DTD/svg11.dtd">
<!-- Generated by graphviz version 2.43.0 (0)
 -->
<!-- Title: Position.h Pages: 1 -->
<svg width="985pt" height="364pt"
 viewBox="0.00 0.00 985.00 364.00" xmlns="http://www.w3.org/2000/svg" xmlns:xlink="http://www.w3.org/1999/xlink">
<g id="graph0" class="graph" transform="scale(1 1) rotate(0) translate(4 360)">
<title>Position.h</title>
<!-- Node1 -->
<g id="node1" class="node">
<title>Node1</title>
<g id="a_node1"><a xlink:title=" ">
<polygon fill="#bfbfbf" stroke="black" points="134.5,-336.5 134.5,-355.5 199.5,-355.5 199.5,-336.5 134.5,-336.5"/>
<text text-anchor="middle" x="167" y="-343.5" font-family="FreeSans.ttf" font-size="10.00">Position.h</text>
</a>
</g>
</g>
<!-- Node2 -->
<g id="node2" class="node">
<title>Node2</title>
<g id="a_node2"><a xlink:href="PositionRaw_8h.html" target="_top" xlink:title=" ">
<polygon fill="none" stroke="black" points="245,-224.5 245,-243.5 401,-243.5 401,-224.5 245,-224.5"/>
<text text-anchor="middle" x="323" y="-231.5" font-family="FreeSans.ttf" font-size="10.00">iDynTree/Core/PositionRaw.h</text>
</a>
</g>
</g>
<!-- Node1&#45;&gt;Node2 -->
<g id="edge1" class="edge">
<title>Node1&#45;&gt;Node2</title>
<path fill="none" stroke="midnightblue" d="M183.63,-336.48C199.78,-327.96 224.74,-314.13 245,-300 267.2,-284.52 290.83,-264.22 306.19,-250.46"/>
<polygon fill="midnightblue" stroke="midnightblue" points="308.75,-252.86 313.81,-243.55 304.05,-247.67 308.75,-252.86"/>
</g>
<!-- Node16 -->
<g id="node16" class="node">
<title>Node16</title>
<g id="a_node16"><a xlink:title=" ">
<polygon fill="none" stroke="#bfbfbf" points="0,-112.5 0,-131.5 44,-131.5 44,-112.5 0,-112.5"/>
<text text-anchor="middle" x="22" y="-119.5" font-family="FreeSans.ttf" font-size="10.00">string</text>
</a>
</g>
</g>
<!-- Node1&#45;&gt;Node16 -->
<g id="edge41" class="edge">
<title>Node1&#45;&gt;Node16</title>
<path fill="none" stroke="midnightblue" d="M148.18,-336.47C131.61,-328.44 107.33,-315.37 89,-300 64.1,-279.12 57.71,-272.44 42,-244 29.36,-221.12 28.45,-213.76 24,-188 21.36,-172.68 20.98,-155.04 21.19,-142.01"/>
<polygon fill="midnightblue" stroke="midnightblue" points="24.69,-142.01 21.49,-131.91 17.7,-141.8 24.69,-142.01"/>
</g>
<!-- Node19 -->
<g id="node19" class="node">
<title>Node19</title>
<g id="a_node19"><a xlink:href="Rotation_8h.html" target="_top" xlink:title=" ">
<polygon fill="none" stroke="black" points="98,-280.5 98,-299.5 236,-299.5 236,-280.5 98,-280.5"/>
<text text-anchor="middle" x="167" y="-287.5" font-family="FreeSans.ttf" font-size="10.00">iDynTree/Core/Rotation.h</text>
</a>
</g>
</g>
<!-- Node1&#45;&gt;Node19 -->
<g id="edge22" class="edge">
<title>Node1&#45;&gt;Node19</title>
<path fill="none" stroke="midnightblue" d="M167,-336.08C167,-329.01 167,-318.86 167,-309.99"/>
<polygon fill="midnightblue" stroke="midnightblue" points="170.5,-309.75 167,-299.75 163.5,-309.75 170.5,-309.75"/>
</g>
<!-- Node3 -->
<g id="node3" class="node">
<title>Node3</title>
<g id="a_node3"><a xlink:href="VectorFixSize_8h.html" target="_top" xlink:title=" ">
<polygon fill="none" stroke="black" points="429,-168.5 429,-187.5 591,-187.5 591,-168.5 429,-168.5"/>
<text text-anchor="middle" x="510" y="-175.5" font-family="FreeSans.ttf" font-size="10.00">iDynTree/Core/VectorFixSize.h</text>
</a>
</g>
</g>
<!-- Node2&#45;&gt;Node3 -->
<g id="edge2" class="edge">
<title>Node2&#45;&gt;Node3</title>
<path fill="none" stroke="midnightblue" d="M352.63,-224.44C384.5,-215.24 435.33,-200.56 470.56,-190.39"/>
<polygon fill="midnightblue" stroke="midnightblue" points="471.87,-193.65 480.51,-187.52 469.93,-186.93 471.87,-193.65"/>
</g>
<!-- Node2&#45;&gt;Node16 -->
<g id="edge21" class="edge">
<title>Node2&#45;&gt;Node16</title>
<path fill="none" stroke="midnightblue" d="M279.9,-224.5C244.41,-216.86 193.1,-204.33 150,-188 111.97,-173.59 70.43,-151.15 45.29,-136.76"/>
<polygon fill="midnightblue" stroke="midnightblue" points="46.91,-133.66 36.5,-131.68 43.41,-139.71 46.91,-133.66"/>
</g>
<!-- Node4 -->
<g id="node4" class="node">
<title>Node4</title>
<g id="a_node4"><a xlink:href="Utils_8h.html" target="_top" xlink:title=" ">
<polygon fill="none" stroke="black" points="320.5,-56.5 320.5,-75.5 439.5,-75.5 439.5,-56.5 320.5,-56.5"/>
<text text-anchor="middle" x="380" y="-63.5" font-family="FreeSans.ttf" font-size="10.00">iDynTree/Core/Utils.h</text>
</a>
</g>
</g>
<!-- Node3&#45;&gt;Node4 -->
<g id="edge3" class="edge">
<title>Node3&#45;&gt;Node4</title>
<path fill="none" stroke="midnightblue" d="M514.66,-168.49C521.29,-155.11 531.33,-128.95 519,-112 502.93,-89.9 475.76,-78.43 449.69,-72.56"/>
<polygon fill="midnightblue" stroke="midnightblue" points="450.27,-69.11 439.78,-70.57 448.89,-75.97 450.27,-69.11"/>
</g>
<!-- Node5 -->
<g id="node5" class="node">
<title>Node5</title>
<g id="a_node5"><a xlink:title=" ">
<polygon fill="none" stroke="#bfbfbf" points="501.5,-0.5 501.5,-19.5 554.5,-19.5 554.5,-0.5 501.5,-0.5"/>
<text text-anchor="middle" x="528" y="-7.5" font-family="FreeSans.ttf" font-size="10.00">cstddef</text>
</a>
</g>
</g>
<!-- Node3&#45;&gt;Node5 -->
<g id="edge19" class="edge">
<title>Node3&#45;&gt;Node5</title>
<path fill="none" stroke="midnightblue" d="M540.25,-168.49C558.13,-161.73 579.3,-150.29 590,-132 607.05,-102.84 605.34,-86.09 590,-56 583,-42.27 569.63,-31.75 557.1,-24.35"/>
<polygon fill="midnightblue" stroke="midnightblue" points="558.68,-21.22 548.22,-19.51 555.33,-27.37 558.68,-21.22"/>
</g>
<!-- Node7 -->
<g id="node7" class="node">
<title>Node7</title>
<g id="a_node7"><a xlink:href="Span_8h.html" target="_top" xlink:title=" ">
<polygon fill="none" stroke="black" points="642.5,-56.5 642.5,-75.5 763.5,-75.5 763.5,-56.5 642.5,-56.5"/>
<text text-anchor="middle" x="703" y="-63.5" font-family="FreeSans.ttf" font-size="10.00">iDynTree/Core/Span.h</text>
</a>
</g>
</g>
<!-- Node3&#45;&gt;Node7 -->
<g id="edge6" class="edge">
<title>Node3&#45;&gt;Node7</title>
<path fill="none" stroke="midnightblue" d="M540.92,-168.47C565.54,-160.93 600.34,-148.55 628,-132 650.95,-118.26 673.65,-97.28 687.96,-82.9"/>
<polygon fill="midnightblue" stroke="midnightblue" points="690.53,-85.28 695,-75.67 685.51,-80.39 690.53,-85.28"/>
</g>
<!-- Node8 -->
<g id="node8" class="node">
<title>Node8</title>
<g id="a_node8"><a xlink:title=" ">
<polygon fill="none" stroke="#bfbfbf" points="344,-0.5 344,-19.5 396,-19.5 396,-0.5 344,-0.5"/>
<text text-anchor="middle" x="370" y="-7.5" font-family="FreeSans.ttf" font-size="10.00">cassert</text>
</a>
</g>
</g>
<!-- Node3&#45;&gt;Node8 -->
<g id="edge18" class="edge">
<title>Node3&#45;&gt;Node8</title>
<path fill="none" stroke="midnightblue" d="M518.04,-168.27C528.8,-155.49 545.37,-131.13 535,-112 508.14,-62.46 445.61,-34.47 405.71,-21.07"/>
<polygon fill="midnightblue" stroke="midnightblue" points="406.68,-17.7 396.09,-17.97 404.53,-24.37 406.68,-17.7"/>
</g>
<!-- Node3&#45;&gt;Node16 -->
<g id="edge16" class="edge">
<title>Node3&#45;&gt;Node16</title>
<path fill="none" stroke="midnightblue" d="M428.83,-168.83C344.38,-160.21 208.33,-145.95 91,-132 78.97,-130.57 65.77,-128.88 54.17,-127.35"/>
<polygon fill="midnightblue" stroke="midnightblue" points="54.42,-123.85 44.05,-126.01 53.5,-130.79 54.42,-123.85"/>
</g>
<!-- Node17 -->
<g id="node17" class="node">
<title>Node17</title>
<g id="a_node17"><a xlink:title=" ">
<polygon fill="none" stroke="#bfbfbf" points="454,-112.5 454,-131.5 510,-131.5 510,-112.5 454,-112.5"/>
<text text-anchor="middle" x="482" y="-119.5" font-family="FreeSans.ttf" font-size="10.00">sstream</text>
</a>
</g>
</g>
<!-- Node3&#45;&gt;Node17 -->
<g id="edge17" class="edge">
<title>Node3&#45;&gt;Node17</title>
<path fill="none" stroke="midnightblue" d="M505.38,-168.08C501.54,-160.69 495.98,-149.95 491.24,-140.81"/>
<polygon fill="midnightblue" stroke="midnightblue" points="494.25,-139.02 486.54,-131.75 488.03,-142.24 494.25,-139.02"/>
</g>
<!-- Node18 -->
<g id="node18" class="node">
<title>Node18</title>
<g id="a_node18"><a xlink:title=" ">
<polygon fill="none" stroke="#bfbfbf" points="386,-112.5 386,-131.5 436,-131.5 436,-112.5 386,-112.5"/>
<text text-anchor="middle" x="411" y="-119.5" font-family="FreeSans.ttf" font-size="10.00">cstring</text>
</a>
</g>
</g>
<!-- Node3&#45;&gt;Node18 -->
<g id="edge20" class="edge">
<title>Node3&#45;&gt;Node18</title>
<path fill="none" stroke="midnightblue" d="M494.09,-168.32C478.36,-159.74 454.06,-146.49 435.79,-136.52"/>
<polygon fill="midnightblue" stroke="midnightblue" points="437.32,-133.37 426.87,-131.65 433.97,-139.52 437.32,-133.37"/>
</g>
<!-- Node4&#45;&gt;Node5 -->
<g id="edge4" class="edge">
<title>Node4&#45;&gt;Node5</title>
<path fill="none" stroke="midnightblue" d="M403.45,-56.44C428.13,-47.44 467.19,-33.19 494.98,-23.05"/>
<polygon fill="midnightblue" stroke="midnightblue" points="496.46,-26.23 504.66,-19.52 494.06,-19.66 496.46,-26.23"/>
</g>
<!-- Node6 -->
<g id="node6" class="node">
<title>Node6</title>
<g id="a_node6"><a xlink:title=" ">
<polygon fill="none" stroke="#bfbfbf" points="246,-0.5 246,-19.5 326,-19.5 326,-0.5 246,-0.5"/>
<text text-anchor="middle" x="286" y="-7.5" font-family="FreeSans.ttf" font-size="10.00">CoreExport.h</text>
</a>
</g>
</g>
<!-- Node4&#45;&gt;Node6 -->
<g id="edge5" class="edge">
<title>Node4&#45;&gt;Node6</title>
<path fill="none" stroke="midnightblue" d="M364.9,-56.32C350.1,-47.82 327.31,-34.73 310.02,-24.8"/>
<polygon fill="midnightblue" stroke="midnightblue" points="311.48,-21.6 301.07,-19.65 307.99,-27.67 311.48,-21.6"/>
</g>
<!-- Node7&#45;&gt;Node5 -->
<g id="edge10" class="edge">
<title>Node7&#45;&gt;Node5</title>
<path fill="none" stroke="midnightblue" d="M675.27,-56.44C645.31,-47.2 597.45,-32.43 564.46,-22.25"/>
<polygon fill="midnightblue" stroke="midnightblue" points="565.33,-18.85 554.74,-19.25 563.26,-25.54 565.33,-18.85"/>
</g>
<!-- Node7&#45;&gt;Node8 -->
<g id="edge7" class="edge">
<title>Node7&#45;&gt;Node8</title>
<path fill="none" stroke="midnightblue" d="M642.41,-57.53C584.36,-49.98 494.12,-37.25 406.16,-19.85"/>
<polygon fill="midnightblue" stroke="midnightblue" points="406.77,-16.4 396.28,-17.88 405.4,-23.27 406.77,-16.4"/>
</g>
<!-- Node9 -->
<g id="node9" class="node">
<title>Node9</title>
<g id="a_node9"><a xlink:title=" ">
<polygon fill="none" stroke="#bfbfbf" points="853,-0.5 853,-19.5 917,-19.5 917,-0.5 853,-0.5"/>
<text text-anchor="middle" x="885" y="-7.5" font-family="FreeSans.ttf" font-size="10.00">algorithm</text>
</a>
</g>
</g>
<!-- Node7&#45;&gt;Node9 -->
<g id="edge8" class="edge">
<title>Node7&#45;&gt;Node9</title>
<path fill="none" stroke="midnightblue" d="M731.84,-56.44C762.86,-47.24 812.33,-32.56 846.62,-22.39"/>
<polygon fill="midnightblue" stroke="midnightblue" points="847.71,-25.72 856.3,-19.52 845.71,-19.01 847.71,-25.72"/>
</g>
<!-- Node10 -->
<g id="node10" class="node">
<title>Node10</title>
<g id="a_node10"><a xlink:title=" ">
<polygon fill="none" stroke="#bfbfbf" points="935,-0.5 935,-19.5 977,-19.5 977,-0.5 935,-0.5"/>
<text text-anchor="middle" x="956" y="-7.5" font-family="FreeSans.ttf" font-size="10.00">array</text>
</a>
</g>
</g>
<!-- Node7&#45;&gt;Node10 -->
<g id="edge9" class="edge">
<title>Node7&#45;&gt;Node10</title>
<path fill="none" stroke="midnightblue" d="M752.01,-56.46C795.18,-48.63 859.91,-36.16 924.77,-20.13"/>
<polygon fill="midnightblue" stroke="midnightblue" points="925.91,-23.46 934.76,-17.64 924.21,-16.66 925.91,-23.46"/>
</g>
<!-- Node11 -->
<g id="node11" class="node">
<title>Node11</title>
<g id="a_node11"><a xlink:title=" ">
<polygon fill="none" stroke="#bfbfbf" points="572.5,-0.5 572.5,-19.5 625.5,-19.5 625.5,-0.5 572.5,-0.5"/>
<text text-anchor="middle" x="599" y="-7.5" font-family="FreeSans.ttf" font-size="10.00">iterator</text>
</a>
</g>
</g>
<!-- Node7&#45;&gt;Node11 -->
<g id="edge11" class="edge">
<title>Node7&#45;&gt;Node11</title>
<path fill="none" stroke="midnightblue" d="M686.29,-56.32C669.69,-47.7 644,-34.36 624.78,-24.39"/>
<polygon fill="midnightblue" stroke="midnightblue" points="626.16,-21.16 615.67,-19.65 622.93,-27.37 626.16,-21.16"/>
</g>
<!-- Node12 -->
<g id="node12" class="node">
<title>Node12</title>
<g id="a_node12"><a xlink:title=" ">
<polygon fill="none" stroke="#bfbfbf" points="644,-0.5 644,-19.5 688,-19.5 688,-0.5 644,-0.5"/>
<text text-anchor="middle" x="666" y="-7.5" font-family="FreeSans.ttf" font-size="10.00">limits</text>
</a>
</g>
</g>
<!-- Node7&#45;&gt;Node12 -->
<g id="edge12" class="edge">
<title>Node7&#45;&gt;Node12</title>
<path fill="none" stroke="midnightblue" d="M696.89,-56.08C691.72,-48.53 684.15,-37.49 677.81,-28.23"/>
<polygon fill="midnightblue" stroke="midnightblue" points="680.54,-26.02 672,-19.75 674.76,-29.98 680.54,-26.02"/>
</g>
<!-- Node13 -->
<g id="node13" class="node">
<title>Node13</title>
<g id="a_node13"><a xlink:title=" ">
<polygon fill="none" stroke="#bfbfbf" points="706.5,-0.5 706.5,-19.5 771.5,-19.5 771.5,-0.5 706.5,-0.5"/>
<text text-anchor="middle" x="739" y="-7.5" font-family="FreeSans.ttf" font-size="10.00">stdexcept</text>
</a>
</g>
</g>
<!-- Node7&#45;&gt;Node13 -->
<g id="edge13" class="edge">
<title>Node7&#45;&gt;Node13</title>
<path fill="none" stroke="midnightblue" d="M708.94,-56.08C713.98,-48.53 721.34,-37.49 727.51,-28.23"/>
<polygon fill="midnightblue" stroke="midnightblue" points="730.53,-30.01 733.17,-19.75 724.71,-26.13 730.53,-30.01"/>
</g>
<!-- Node14 -->
<g id="node14" class="node">
<title>Node14</title>
<g id="a_node14"><a xlink:title=" ">
<polygon fill="none" stroke="#bfbfbf" points="414.5,-0.5 414.5,-19.5 483.5,-19.5 483.5,-0.5 414.5,-0.5"/>
<text text-anchor="middle" x="449" y="-7.5" font-family="FreeSans.ttf" font-size="10.00">type_traits</text>
</a>
</g>
</g>
<!-- Node7&#45;&gt;Node14 -->
<g id="edge14" class="edge">
<title>Node7&#45;&gt;Node14</title>
<path fill="none" stroke="midnightblue" d="M662.75,-56.44C616.75,-46.66 541.65,-30.7 493.82,-20.53"/>
<polygon fill="midnightblue" stroke="midnightblue" points="494.26,-17.04 483.75,-18.39 492.81,-23.89 494.26,-17.04"/>
</g>
<!-- Node15 -->
<g id="node15" class="node">
<title>Node15</title>
<g id="a_node15"><a xlink:title=" ">
<polygon fill="none" stroke="#bfbfbf" points="789.5,-0.5 789.5,-19.5 834.5,-19.5 834.5,-0.5 789.5,-0.5"/>
<text text-anchor="middle" x="812" y="-7.5" font-family="FreeSans.ttf" font-size="10.00">utility</text>
</a>
</g>
</g>
<!-- Node7&#45;&gt;Node15 -->
<g id="edge15" class="edge">
<title>Node7&#45;&gt;Node15</title>
<path fill="none" stroke="midnightblue" d="M720.51,-56.32C738.07,-47.62 765.33,-34.12 785.53,-24.11"/>
<polygon fill="midnightblue" stroke="midnightblue" points="787.12,-27.23 794.53,-19.65 784.02,-20.96 787.12,-27.23"/>
</g>
<!-- Node19&#45;&gt;Node3 -->
<g id="edge40" class="edge">
<title>Node19&#45;&gt;Node3</title>
<path fill="none" stroke="midnightblue" d="M236.04,-283.49C285.8,-277.8 353.81,-266.42 410,-244 441.02,-231.62 472.65,-209.04 491.8,-194.02"/>
<polygon fill="midnightblue" stroke="midnightblue" points="494.06,-196.7 499.68,-187.72 489.69,-191.23 494.06,-196.7"/>
</g>
<!-- Node19&#45;&gt;Node16 -->
<g id="edge23" class="edge">
<title>Node19&#45;&gt;Node16</title>
<path fill="none" stroke="midnightblue" d="M125.47,-280.5C103.28,-273.97 77.09,-262.78 60,-244 33.53,-214.92 25.5,-167.54 23.06,-141.53"/>
<polygon fill="midnightblue" stroke="midnightblue" points="26.55,-141.23 22.31,-131.52 19.57,-141.75 26.55,-141.23"/>
</g>
<!-- Node20 -->
<g id="node20" class="node">
<title>Node20</title>
<g id="a_node20"><a xlink:href="GeomVector3_8h.html" target="_top" xlink:title=" ">
<polygon fill="none" stroke="black" points="457.5,-224.5 457.5,-243.5 620.5,-243.5 620.5,-224.5 457.5,-224.5"/>
<text text-anchor="middle" x="539" y="-231.5" font-family="FreeSans.ttf" font-size="10.00">iDynTree/Core/GeomVector3.h</text>
</a>
</g>
</g>
<!-- Node19&#45;&gt;Node20 -->
<g id="edge24" class="edge">
<title>Node19&#45;&gt;Node20</title>
<path fill="none" stroke="midnightblue" d="M225.94,-280.44C292.34,-270.81 400.1,-255.16 470.26,-244.98"/>
<polygon fill="midnightblue" stroke="midnightblue" points="470.94,-248.42 480.33,-243.52 469.93,-241.49 470.94,-248.42"/>
</g>
<!-- Node21 -->
<g id="node21" class="node">
<title>Node21</title>
<g id="a_node21"><a xlink:href="RotationRaw_8h.html" target="_top" xlink:title=" ">
<polygon fill="none" stroke="black" points="69,-224.5 69,-243.5 227,-243.5 227,-224.5 69,-224.5"/>
<text text-anchor="middle" x="148" y="-231.5" font-family="FreeSans.ttf" font-size="10.00">iDynTree/Core/RotationRaw.h</text>
</a>
</g>
</g>
<!-- Node19&#45;&gt;Node21 -->
<g id="edge26" class="edge">
<title>Node19&#45;&gt;Node21</title>
<path fill="none" stroke="midnightblue" d="M163.86,-280.08C161.32,-272.85 157.64,-262.41 154.47,-253.4"/>
<polygon fill="midnightblue" stroke="midnightblue" points="157.7,-252.02 151.08,-243.75 151.1,-254.35 157.7,-252.02"/>
</g>
<!-- Node20&#45;&gt;Node3 -->
<g id="edge25" class="edge">
<title>Node20&#45;&gt;Node3</title>
<path fill="none" stroke="midnightblue" d="M534.21,-224.08C530.24,-216.69 524.47,-205.95 519.57,-196.81"/>
<polygon fill="midnightblue" stroke="midnightblue" points="522.51,-194.91 514.7,-187.75 516.35,-198.22 522.51,-194.91"/>
</g>
<!-- Node21&#45;&gt;Node16 -->
<g id="edge39" class="edge">
<title>Node21&#45;&gt;Node16</title>
<path fill="none" stroke="midnightblue" d="M138.11,-224.37C116.86,-205.81 66.57,-161.91 39.68,-138.44"/>
<polygon fill="midnightblue" stroke="midnightblue" points="41.68,-135.53 31.84,-131.59 37.07,-140.8 41.68,-135.53"/>
</g>
<!-- Node22 -->
<g id="node22" class="node">
<title>Node22</title>
<g id="a_node22"><a xlink:href="MatrixFixSize_8h.html" target="_top" xlink:title=" ">
<polygon fill="none" stroke="black" points="159.5,-168.5 159.5,-187.5 322.5,-187.5 322.5,-168.5 159.5,-168.5"/>
<text text-anchor="middle" x="241" y="-175.5" font-family="FreeSans.ttf" font-size="10.00">iDynTree/Core/MatrixFixSize.h</text>
</a>
</g>
</g>
<!-- Node21&#45;&gt;Node22 -->
<g id="edge27" class="edge">
<title>Node21&#45;&gt;Node22</title>
<path fill="none" stroke="midnightblue" d="M162.94,-224.32C177.59,-215.82 200.13,-202.73 217.24,-192.8"/>
<polygon fill="midnightblue" stroke="midnightblue" points="219.2,-195.7 226.1,-187.65 215.69,-189.65 219.2,-195.7"/>
</g>
<!-- Node22&#45;&gt;Node4 -->
<g id="edge28" class="edge">
<title>Node22&#45;&gt;Node4</title>
<path fill="none" stroke="midnightblue" d="M270.54,-168.44C291.43,-161.28 319.14,-149.39 339,-132 353.86,-118.99 365.25,-99.28 372.21,-84.98"/>
<polygon fill="midnightblue" stroke="midnightblue" points="375.48,-86.24 376.48,-75.69 369.12,-83.32 375.48,-86.24"/>
</g>
<!-- Node22&#45;&gt;Node8 -->
<g id="edge34" class="edge">
<title>Node22&#45;&gt;Node8</title>
<path fill="none" stroke="midnightblue" d="M159.42,-168.56C113.2,-160.21 68.67,-143.83 91,-112 105.52,-91.3 261.89,-42.94 333.97,-21.53"/>
<polygon fill="midnightblue" stroke="midnightblue" points="335.38,-24.76 343.97,-18.57 333.39,-18.05 335.38,-24.76"/>
</g>
<!-- Node22&#45;&gt;Node16 -->
<g id="edge36" class="edge">
<title>Node22&#45;&gt;Node16</title>
<path fill="none" stroke="midnightblue" d="M206.25,-168.5C169.43,-159.48 109.6,-144.79 58,-132 56.73,-131.69 55.44,-131.37 54.14,-131.04"/>
<polygon fill="midnightblue" stroke="midnightblue" points="54.63,-127.56 44.08,-128.53 52.94,-134.35 54.63,-127.56"/>
</g>
<!-- Node22&#45;&gt;Node17 -->
<g id="edge38" class="edge">
<title>Node22&#45;&gt;Node17</title>
<path fill="none" stroke="midnightblue" d="M280.93,-168.46C320.01,-160.04 381.48,-146.64 443.74,-132.26"/>
<polygon fill="midnightblue" stroke="midnightblue" points="444.78,-135.61 453.73,-129.94 443.2,-128.79 444.78,-135.61"/>
</g>
<!-- Node22&#45;&gt;Node18 -->
<g id="edge35" class="edge">
<title>Node22&#45;&gt;Node18</title>
<path fill="none" stroke="midnightblue" d="M267.94,-168.44C297.17,-159.16 343.95,-144.3 376,-134.12"/>
<polygon fill="midnightblue" stroke="midnightblue" points="377.38,-137.35 385.85,-130.99 375.26,-130.68 377.38,-137.35"/>
</g>
<!-- Node23 -->
<g id="node23" class="node">
<title>Node23</title>
<g id="a_node23"><a xlink:href="MatrixView_8h.html" target="_top" xlink:title=" ">
<polygon fill="none" stroke="black" points="178,-112.5 178,-131.5 330,-131.5 330,-112.5 178,-112.5"/>
<text text-anchor="middle" x="254" y="-119.5" font-family="FreeSans.ttf" font-size="10.00">iDynTree/Core/MatrixView.h</text>
</a>
</g>
</g>
<!-- Node22&#45;&gt;Node23 -->
<g id="edge29" class="edge">
<title>Node22&#45;&gt;Node23</title>
<path fill="none" stroke="midnightblue" d="M243.15,-168.08C244.87,-160.93 247.35,-150.64 249.5,-141.69"/>
<polygon fill="midnightblue" stroke="midnightblue" points="252.96,-142.29 251.89,-131.75 246.15,-140.65 252.96,-142.29"/>
</g>
<!-- Node24 -->
<g id="node24" class="node">
<title>Node24</title>
<g id="a_node24"><a xlink:title=" ">
<polygon fill="none" stroke="#bfbfbf" points="100,-112.5 100,-131.5 160,-131.5 160,-112.5 100,-112.5"/>
<text text-anchor="middle" x="130" y="-119.5" font-family="FreeSans.ttf" font-size="10.00">iostream</text>
</a>
</g>
</g>
<!-- Node22&#45;&gt;Node24 -->
<g id="edge37" class="edge">
<title>Node22&#45;&gt;Node24</title>
<path fill="none" stroke="midnightblue" d="M223.17,-168.32C205.28,-159.62 177.52,-146.12 156.95,-136.11"/>
<polygon fill="midnightblue" stroke="midnightblue" points="158.31,-132.88 147.79,-131.65 155.25,-139.18 158.31,-132.88"/>
</g>
<!-- Node23&#45;&gt;Node4 -->
<g id="edge33" class="edge">
<title>Node23&#45;&gt;Node4</title>
<path fill="none" stroke="midnightblue" d="M273.97,-112.44C294.61,-103.6 327.06,-89.69 350.63,-79.59"/>
<polygon fill="midnightblue" stroke="midnightblue" points="352.32,-82.67 360.13,-75.52 349.56,-76.24 352.32,-82.67"/>
</g>
<!-- Node23&#45;&gt;Node7 -->
<g id="edge32" class="edge">
<title>Node23&#45;&gt;Node7</title>
<path fill="none" stroke="midnightblue" d="M325.15,-112.44C409.26,-102.33 548.4,-85.59 632.31,-75.5"/>
<polygon fill="midnightblue" stroke="midnightblue" points="632.76,-78.97 642.27,-74.3 631.92,-72.02 632.76,-78.97"/>
</g>
<!-- Node23&#45;&gt;Node8 -->
<g id="edge30" class="edge">
<title>Node23&#45;&gt;Node8</title>
<path fill="none" stroke="midnightblue" d="M255.11,-112.36C257.25,-98.82 263.16,-72.42 278,-56 292.92,-39.49 315.25,-28.36 334.17,-21.31"/>
<polygon fill="midnightblue" stroke="midnightblue" points="335.41,-24.58 343.7,-17.98 333.1,-17.97 335.41,-24.58"/>
</g>
<!-- Node23&#45;&gt;Node14 -->
<g id="edge31" class="edge">
<title>Node23&#45;&gt;Node14</title>
<path fill="none" stroke="midnightblue" d="M259.52,-112.08C268.59,-98.13 287.95,-71.2 311,-56 326.89,-45.52 372.09,-31.74 406.47,-22.2"/>
<polygon fill="midnightblue" stroke="midnightblue" points="407.58,-25.52 416.3,-19.5 405.73,-18.77 407.58,-25.52"/>
</g>
</g>
</svg>
