<?xml version="1.0" encoding="UTF-8" standalone="no"?>
<!DOCTYPE svg PUBLIC "-//W3C//DTD SVG 1.1//EN"
 "http://www.w3.org/Graphics/SVG/1.1/DTD/svg11.dtd">
<!-- Generated by graphviz version 2.43.0 (0)
 -->
<!-- Title: PrismaticJoint.h Pages: 1 -->
<svg width="657pt" height="84pt"
 viewBox="0.00 0.00 656.50 84.00" xmlns="http://www.w3.org/2000/svg" xmlns:xlink="http://www.w3.org/1999/xlink">
<g id="graph0" class="graph" transform="scale(1 1) rotate(0) translate(4 80)">
<title>PrismaticJoint.h</title>
<!-- Node1 -->
<g id="node1" class="node">
<title>Node1</title>
<g id="a_node1"><a xlink:title=" ">
<polygon fill="#bfbfbf" stroke="black" points="275,-56.5 275,-75.5 368,-75.5 368,-56.5 275,-56.5"/>
<text text-anchor="middle" x="321.5" y="-63.5" font-family="FreeSans.ttf" font-size="10.00">PrismaticJoint.h</text>
</a>
</g>
</g>
<!-- Node2 -->
<g id="node2" class="node">
<title>Node2</title>
<g id="a_node2"><a xlink:href="ModelTransformers_8cpp.html" target="_top" xlink:title=" ">
<polygon fill="none" stroke="black" points="0,-0.5 0,-19.5 131,-19.5 131,-0.5 0,-0.5"/>
<text text-anchor="middle" x="65.5" y="-7.5" font-family="FreeSans.ttf" font-size="10.00">ModelTransformers.cpp</text>
</a>
</g>
</g>
<!-- Node1&#45;&gt;Node2 -->
<g id="edge1" class="edge">
<title>Node1&#45;&gt;Node2</title>
<path fill="none" stroke="midnightblue" d="M270.99,-54.35C222.61,-44.14 150.55,-28.94 105.87,-19.52"/>
<polygon fill="midnightblue" stroke="midnightblue" points="270.43,-57.8 280.94,-56.44 271.87,-50.95 270.43,-57.8"/>
</g>
<!-- Node3 -->
<g id="node3" class="node">
<title>Node3</title>
<g id="a_node3"><a xlink:href="PrismaticJoint_8cpp.html" target="_top" xlink:title=" ">
<polygon fill="none" stroke="black" points="149.5,-0.5 149.5,-19.5 253.5,-19.5 253.5,-0.5 149.5,-0.5"/>
<text text-anchor="middle" x="201.5" y="-7.5" font-family="FreeSans.ttf" font-size="10.00">PrismaticJoint.cpp</text>
</a>
</g>
</g>
<!-- Node1&#45;&gt;Node3 -->
<g id="edge2" class="edge">
<title>Node1&#45;&gt;Node3</title>
<path fill="none" stroke="midnightblue" d="M293.13,-52.23C270.68,-42.13 239.96,-28.31 220.43,-19.52"/>
<polygon fill="midnightblue" stroke="midnightblue" points="291.93,-55.53 302.49,-56.44 294.8,-49.15 291.93,-55.53"/>
</g>
<!-- Node4 -->
<g id="node4" class="node">
<title>Node4</title>
<g id="a_node4"><a xlink:href="JointElement_8cpp.html" target="_top" xlink:title=" ">
<polygon fill="none" stroke="black" points="272,-0.5 272,-19.5 371,-19.5 371,-0.5 272,-0.5"/>
<text text-anchor="middle" x="321.5" y="-7.5" font-family="FreeSans.ttf" font-size="10.00">JointElement.cpp</text>
</a>
</g>
</g>
<!-- Node1&#45;&gt;Node4 -->
<g id="edge3" class="edge">
<title>Node1&#45;&gt;Node4</title>
<path fill="none" stroke="midnightblue" d="M321.5,-45.8C321.5,-36.91 321.5,-26.78 321.5,-19.75"/>
<polygon fill="midnightblue" stroke="midnightblue" points="318,-46.08 321.5,-56.08 325,-46.08 318,-46.08"/>
</g>
<!-- Node5 -->
<g id="node5" class="node">
<title>Node5</title>
<g id="a_node5"><a xlink:href="URDFDocument_8cpp.html" target="_top" xlink:title=" ">
<polygon fill="none" stroke="black" points="389,-0.5 389,-19.5 504,-19.5 504,-0.5 389,-0.5"/>
<text text-anchor="middle" x="446.5" y="-7.5" font-family="FreeSans.ttf" font-size="10.00">URDFDocument.cpp</text>
</a>
</g>
</g>
<!-- Node1&#45;&gt;Node5 -->
<g id="edge4" class="edge">
<title>Node1&#45;&gt;Node5</title>
<path fill="none" stroke="midnightblue" d="M350.74,-52.37C374.15,-42.26 406.34,-28.35 426.79,-19.52"/>
<polygon fill="midnightblue" stroke="midnightblue" points="349.1,-49.26 341.31,-56.44 351.87,-55.69 349.1,-49.26"/>
</g>
<!-- Node6 -->
<g id="node6" class="node">
<title>Node6</title>
<g id="a_node6"><a xlink:href="URDFModelExport_8cpp.html" target="_top" xlink:title=" ">
<polygon fill="none" stroke="black" points="522.5,-0.5 522.5,-19.5 648.5,-19.5 648.5,-0.5 522.5,-0.5"/>
<text text-anchor="middle" x="585.5" y="-7.5" font-family="FreeSans.ttf" font-size="10.00">URDFModelExport.cpp</text>
</a>
</g>
</g>
<!-- Node1&#45;&gt;Node6 -->
<g id="edge5" class="edge">
<title>Node1&#45;&gt;Node6</title>
<path fill="none" stroke="midnightblue" d="M373.28,-54.41C423.17,-44.2 497.7,-28.96 543.86,-19.52"/>
<polygon fill="midnightblue" stroke="midnightblue" points="372.43,-51.01 363.33,-56.44 373.83,-57.87 372.43,-51.01"/>
</g>
</g>
</svg>
