<?xml version="1.0" encoding="UTF-8" standalone="no"?>
<!DOCTYPE svg PUBLIC "-//W3C//DTD SVG 1.1//EN"
 "http://www.w3.org/Graphics/SVG/1.1/DTD/svg11.dtd">
<!-- Generated by graphviz version 2.43.0 (0)
 -->
<!-- Title: QuadraticCost.h Pages: 1 -->
<svg width="1232pt" height="588pt"
 viewBox="0.00 0.00 1232.09 588.00" xmlns="http://www.w3.org/2000/svg" xmlns:xlink="http://www.w3.org/1999/xlink">
<g id="graph0" class="graph" transform="scale(1 1) rotate(0) translate(4 584)">
<title>QuadraticCost.h</title>
<!-- Node1 -->
<g id="node1" class="node">
<title>Node1</title>
<g id="a_node1"><a xlink:title=" ">
<polygon fill="#bfbfbf" stroke="black" points="195.59,-560.5 195.59,-579.5 290.59,-579.5 290.59,-560.5 195.59,-560.5"/>
<text text-anchor="middle" x="243.09" y="-567.5" font-family="FreeSans.ttf" font-size="10.00">QuadraticCost.h</text>
</a>
</g>
</g>
<!-- Node2 -->
<g id="node2" class="node">
<title>Node2</title>
<g id="a_node2"><a xlink:href="QuadraticLikeCost_8h.html" target="_top" xlink:title=" ">
<polygon fill="none" stroke="black" points="55.09,-504.5 55.09,-523.5 215.09,-523.5 215.09,-504.5 55.09,-504.5"/>
<text text-anchor="middle" x="135.09" y="-511.5" font-family="FreeSans.ttf" font-size="10.00">iDynTree/QuadraticLikeCost.h</text>
</a>
</g>
</g>
<!-- Node1&#45;&gt;Node2 -->
<g id="edge1" class="edge">
<title>Node1&#45;&gt;Node2</title>
<path fill="none" stroke="midnightblue" d="M225.74,-560.32C208.42,-551.66 181.58,-538.24 161.59,-528.25"/>
<polygon fill="midnightblue" stroke="midnightblue" points="162.91,-525 152.4,-523.65 159.78,-531.26 162.91,-525"/>
</g>
<!-- Node11 -->
<g id="node11" class="node">
<title>Node11</title>
<g id="a_node11"><a xlink:href="TimeVaryingObject_8h.html" target="_top" xlink:title=" ">
<polygon fill="none" stroke="black" points="271.09,-448.5 271.09,-467.5 435.09,-467.5 435.09,-448.5 271.09,-448.5"/>
<text text-anchor="middle" x="353.09" y="-455.5" font-family="FreeSans.ttf" font-size="10.00">iDynTree/TimeVaryingObject.h</text>
</a>
</g>
</g>
<!-- Node1&#45;&gt;Node11 -->
<g id="edge64" class="edge">
<title>Node1&#45;&gt;Node11</title>
<path fill="none" stroke="midnightblue" d="M251.72,-560.37C270.2,-541.89 313.8,-498.29 337.35,-474.74"/>
<polygon fill="midnightblue" stroke="midnightblue" points="339.91,-477.14 344.5,-467.59 334.96,-472.19 339.91,-477.14"/>
</g>
<!-- Node12 -->
<g id="node12" class="node">
<title>Node12</title>
<g id="a_node12"><a xlink:href="VectorDynSize_8h.html" target="_top" xlink:title=" ">
<polygon fill="none" stroke="black" points="150.59,-280.5 150.59,-299.5 317.59,-299.5 317.59,-280.5 150.59,-280.5"/>
<text text-anchor="middle" x="234.09" y="-287.5" font-family="FreeSans.ttf" font-size="10.00">iDynTree/Core/VectorDynSize.h</text>
</a>
</g>
</g>
<!-- Node1&#45;&gt;Node12 -->
<g id="edge65" class="edge">
<title>Node1&#45;&gt;Node12</title>
<path fill="none" stroke="midnightblue" d="M243.09,-560.44C243.09,-541.94 243.09,-496.81 243.09,-459 243.09,-459 243.09,-459 243.09,-401 243.09,-368.84 239.22,-331.57 236.56,-309.71"/>
<polygon fill="midnightblue" stroke="midnightblue" points="240,-309.02 235.27,-299.54 233.06,-309.9 240,-309.02"/>
</g>
<!-- Node22 -->
<g id="node22" class="node">
<title>Node22</title>
<g id="a_node22"><a xlink:href="MatrixDynSize_8h.html" target="_top" xlink:title=" ">
<polygon fill="none" stroke="black" points="1056.09,-336.5 1056.09,-355.5 1224.09,-355.5 1224.09,-336.5 1056.09,-336.5"/>
<text text-anchor="middle" x="1140.09" y="-343.5" font-family="FreeSans.ttf" font-size="10.00">iDynTree/Core/MatrixDynSize.h</text>
</a>
</g>
</g>
<!-- Node1&#45;&gt;Node22 -->
<g id="edge66" class="edge">
<title>Node1&#45;&gt;Node22</title>
<path fill="none" stroke="midnightblue" d="M277.71,-560.43C417.43,-525.85 939.86,-396.56 1095.85,-357.95"/>
<polygon fill="midnightblue" stroke="midnightblue" points="1096.72,-361.34 1105.58,-355.54 1095.03,-354.55 1096.72,-361.34"/>
</g>
<!-- Node35 -->
<g id="node35" class="node">
<title>Node35</title>
<g id="a_node35"><a xlink:title=" ">
<polygon fill="none" stroke="#bfbfbf" points="31.09,-448.5 31.09,-467.5 89.09,-467.5 89.09,-448.5 31.09,-448.5"/>
<text text-anchor="middle" x="60.09" y="-455.5" font-family="FreeSans.ttf" font-size="10.00">memory</text>
</a>
</g>
</g>
<!-- Node1&#45;&gt;Node35 -->
<g id="edge67" class="edge">
<title>Node1&#45;&gt;Node35</title>
<path fill="none" stroke="midnightblue" d="M195.31,-564.82C143.09,-559.15 64.41,-546.97 46.09,-524 35.33,-510.51 41.92,-490.61 49.25,-476.38"/>
<polygon fill="midnightblue" stroke="midnightblue" points="52.35,-478.01 54.25,-467.59 46.27,-474.56 52.35,-478.01"/>
</g>
<!-- Node3 -->
<g id="node3" class="node">
<title>Node3</title>
<g id="a_node3"><a xlink:href="Cost_8h.html" target="_top" xlink:title=" ">
<polygon fill="none" stroke="black" points="77.59,-224.5 77.59,-243.5 170.59,-243.5 170.59,-224.5 77.59,-224.5"/>
<text text-anchor="middle" x="124.09" y="-231.5" font-family="FreeSans.ttf" font-size="10.00">iDynTree/Cost.h</text>
</a>
</g>
</g>
<!-- Node2&#45;&gt;Node3 -->
<g id="edge2" class="edge">
<title>Node2&#45;&gt;Node3</title>
<path fill="none" stroke="midnightblue" d="M133.52,-504.48C130.27,-486.04 123.09,-441.04 123.09,-403 123.09,-403 123.09,-403 123.09,-345 123.09,-312.95 123.52,-275.64 123.82,-253.75"/>
<polygon fill="midnightblue" stroke="midnightblue" points="127.32,-253.61 123.96,-243.56 120.32,-253.51 127.32,-253.61"/>
</g>
<!-- Node2&#45;&gt;Node11 -->
<g id="edge12" class="edge">
<title>Node2&#45;&gt;Node11</title>
<path fill="none" stroke="midnightblue" d="M169.64,-504.44C207.35,-495.1 267.83,-480.12 308.96,-469.93"/>
<polygon fill="midnightblue" stroke="midnightblue" points="309.85,-473.32 318.71,-467.52 308.16,-466.52 309.85,-473.32"/>
</g>
<!-- Node2&#45;&gt;Node35 -->
<g id="edge63" class="edge">
<title>Node2&#45;&gt;Node35</title>
<path fill="none" stroke="midnightblue" d="M123.04,-504.32C111.63,-496.11 94.26,-483.6 80.66,-473.81"/>
<polygon fill="midnightblue" stroke="midnightblue" points="82.52,-470.84 72.36,-467.83 78.43,-476.52 82.52,-470.84"/>
</g>
<!-- Node4 -->
<g id="node4" class="node">
<title>Node4</title>
<g id="a_node4"><a xlink:title=" ">
<polygon fill="none" stroke="#bfbfbf" points="418.09,-112.5 418.09,-131.5 462.09,-131.5 462.09,-112.5 418.09,-112.5"/>
<text text-anchor="middle" x="440.09" y="-119.5" font-family="FreeSans.ttf" font-size="10.00">string</text>
</a>
</g>
</g>
<!-- Node3&#45;&gt;Node4 -->
<g id="edge3" class="edge">
<title>Node3&#45;&gt;Node4</title>
<path fill="none" stroke="midnightblue" d="M145,-224.42C176.75,-211.5 239.16,-186.6 293.09,-168 332.37,-154.46 378.22,-140.75 408.14,-132.08"/>
<polygon fill="midnightblue" stroke="midnightblue" points="409.38,-135.36 418.02,-129.23 407.44,-128.64 409.38,-135.36"/>
</g>
<!-- Node5 -->
<g id="node5" class="node">
<title>Node5</title>
<g id="a_node5"><a xlink:href="SparsityStructure_8h.html" target="_top" xlink:title=" ">
<polygon fill="none" stroke="black" points="46.59,-168.5 46.59,-187.5 201.59,-187.5 201.59,-168.5 46.59,-168.5"/>
<text text-anchor="middle" x="124.09" y="-175.5" font-family="FreeSans.ttf" font-size="10.00">iDynTree/SparsityStructure.h</text>
</a>
</g>
</g>
<!-- Node3&#45;&gt;Node5 -->
<g id="edge4" class="edge">
<title>Node3&#45;&gt;Node5</title>
<path fill="none" stroke="midnightblue" d="M124.09,-224.08C124.09,-217.01 124.09,-206.86 124.09,-197.99"/>
<polygon fill="midnightblue" stroke="midnightblue" points="127.59,-197.75 124.09,-187.75 120.59,-197.75 127.59,-197.75"/>
</g>
<!-- Node5&#45;&gt;Node4 -->
<g id="edge11" class="edge">
<title>Node5&#45;&gt;Node4</title>
<path fill="none" stroke="midnightblue" d="M174.16,-168.44C239.72,-157.24 352.78,-137.92 407.94,-128.49"/>
<polygon fill="midnightblue" stroke="midnightblue" points="408.59,-131.93 417.86,-126.8 407.41,-125.03 408.59,-131.93"/>
</g>
<!-- Node6 -->
<g id="node6" class="node">
<title>Node6</title>
<g id="a_node6"><a xlink:href="Utils_8h.html" target="_top" xlink:title=" ">
<polygon fill="none" stroke="black" points="518.59,-56.5 518.59,-75.5 637.59,-75.5 637.59,-56.5 518.59,-56.5"/>
<text text-anchor="middle" x="578.09" y="-63.5" font-family="FreeSans.ttf" font-size="10.00">iDynTree/Core/Utils.h</text>
</a>
</g>
</g>
<!-- Node5&#45;&gt;Node6 -->
<g id="edge5" class="edge">
<title>Node5&#45;&gt;Node6</title>
<path fill="none" stroke="midnightblue" d="M133.2,-168.5C149.2,-154.13 183.96,-125.32 219.09,-112 270.49,-92.52 419.39,-78.64 508.46,-71.81"/>
<polygon fill="midnightblue" stroke="midnightblue" points="508.77,-75.3 518.48,-71.05 508.25,-68.32 508.77,-75.3"/>
</g>
<!-- Node7 -->
<g id="node7" class="node">
<title>Node7</title>
<g id="a_node7"><a xlink:title=" ">
<polygon fill="none" stroke="#bfbfbf" points="417.59,-0.5 417.59,-19.5 470.59,-19.5 470.59,-0.5 417.59,-0.5"/>
<text text-anchor="middle" x="444.09" y="-7.5" font-family="FreeSans.ttf" font-size="10.00">cstddef</text>
</a>
</g>
</g>
<!-- Node5&#45;&gt;Node7 -->
<g id="edge9" class="edge">
<title>Node5&#45;&gt;Node7</title>
<path fill="none" stroke="midnightblue" d="M75.34,-168.43C33.43,-158.9 -16.92,-140.92 6.09,-112 56.32,-48.87 311.1,-21.83 407.27,-13.77"/>
<polygon fill="midnightblue" stroke="midnightblue" points="407.72,-17.24 417.4,-12.94 407.15,-10.27 407.72,-17.24"/>
</g>
<!-- Node9 -->
<g id="node9" class="node">
<title>Node9</title>
<g id="a_node9"><a xlink:title=" ">
<polygon fill="none" stroke="#bfbfbf" points="15.59,-112.5 15.59,-131.5 62.59,-131.5 62.59,-112.5 15.59,-112.5"/>
<text text-anchor="middle" x="39.09" y="-119.5" font-family="FreeSans.ttf" font-size="10.00">vector</text>
</a>
</g>
</g>
<!-- Node5&#45;&gt;Node9 -->
<g id="edge8" class="edge">
<title>Node5&#45;&gt;Node9</title>
<path fill="none" stroke="midnightblue" d="M110.44,-168.32C97.18,-159.9 76.83,-146.97 61.25,-137.07"/>
<polygon fill="midnightblue" stroke="midnightblue" points="63.03,-134.06 52.72,-131.65 59.28,-139.97 63.03,-134.06"/>
</g>
<!-- Node10 -->
<g id="node10" class="node">
<title>Node10</title>
<g id="a_node10"><a xlink:title=" ">
<polygon fill="none" stroke="#bfbfbf" points="81.09,-112.5 81.09,-131.5 167.09,-131.5 167.09,-112.5 81.09,-112.5"/>
<text text-anchor="middle" x="124.09" y="-119.5" font-family="FreeSans.ttf" font-size="10.00">unordered_set</text>
</a>
</g>
</g>
<!-- Node5&#45;&gt;Node10 -->
<g id="edge10" class="edge">
<title>Node5&#45;&gt;Node10</title>
<path fill="none" stroke="midnightblue" d="M124.09,-168.08C124.09,-161.01 124.09,-150.86 124.09,-141.99"/>
<polygon fill="midnightblue" stroke="midnightblue" points="127.59,-141.75 124.09,-131.75 120.59,-141.75 127.59,-141.75"/>
</g>
<!-- Node6&#45;&gt;Node7 -->
<g id="edge6" class="edge">
<title>Node6&#45;&gt;Node7</title>
<path fill="none" stroke="midnightblue" d="M556.86,-56.44C534.71,-47.52 499.77,-33.44 474.66,-23.32"/>
<polygon fill="midnightblue" stroke="midnightblue" points="475.81,-20.01 465.23,-19.52 473.19,-26.5 475.81,-20.01"/>
</g>
<!-- Node8 -->
<g id="node8" class="node">
<title>Node8</title>
<g id="a_node8"><a xlink:title=" ">
<polygon fill="none" stroke="#bfbfbf" points="489.09,-0.5 489.09,-19.5 569.09,-19.5 569.09,-0.5 489.09,-0.5"/>
<text text-anchor="middle" x="529.09" y="-7.5" font-family="FreeSans.ttf" font-size="10.00">CoreExport.h</text>
</a>
</g>
</g>
<!-- Node6&#45;&gt;Node8 -->
<g id="edge7" class="edge">
<title>Node6&#45;&gt;Node8</title>
<path fill="none" stroke="midnightblue" d="M570,-56.08C562.94,-48.3 552.51,-36.8 543.94,-27.37"/>
<polygon fill="midnightblue" stroke="midnightblue" points="546.35,-24.8 537.03,-19.75 541.16,-29.51 546.35,-24.8"/>
</g>
<!-- Node11&#45;&gt;Node12 -->
<g id="edge13" class="edge">
<title>Node11&#45;&gt;Node12</title>
<path fill="none" stroke="midnightblue" d="M346.7,-448.08C327.64,-421.49 271.04,-342.54 246.11,-307.76"/>
<polygon fill="midnightblue" stroke="midnightblue" points="248.91,-305.66 240.24,-299.57 243.22,-309.73 248.91,-305.66"/>
</g>
<!-- Node11&#45;&gt;Node22 -->
<g id="edge25" class="edge">
<title>Node11&#45;&gt;Node22</title>
<path fill="none" stroke="midnightblue" d="M414.19,-448.46C557.7,-428.4 915.7,-378.36 1068.81,-356.96"/>
<polygon fill="midnightblue" stroke="midnightblue" points="1069.61,-360.39 1079.03,-355.53 1068.64,-353.45 1069.61,-360.39"/>
</g>
<!-- Node24 -->
<g id="node24" class="node">
<title>Node24</title>
<g id="a_node24"><a xlink:href="Transform_8h.html" target="_top" xlink:title=" ">
<polygon fill="none" stroke="black" points="416.09,-392.5 416.09,-411.5 562.09,-411.5 562.09,-392.5 416.09,-392.5"/>
<text text-anchor="middle" x="489.09" y="-399.5" font-family="FreeSans.ttf" font-size="10.00">iDynTree/Core/Transform.h</text>
</a>
</g>
</g>
<!-- Node11&#45;&gt;Node24 -->
<g id="edge32" class="edge">
<title>Node11&#45;&gt;Node24</title>
<path fill="none" stroke="midnightblue" d="M374.64,-448.44C397.12,-439.52 432.58,-425.44 458.07,-415.32"/>
<polygon fill="midnightblue" stroke="midnightblue" points="459.64,-418.46 467.64,-411.52 457.06,-411.95 459.64,-418.46"/>
</g>
<!-- Node12&#45;&gt;Node4 -->
<g id="edge24" class="edge">
<title>Node12&#45;&gt;Node4</title>
<path fill="none" stroke="midnightblue" d="M238.85,-280.45C251.3,-258.78 286.93,-201.11 331.09,-168 354.35,-150.56 385.34,-138.63 408.33,-131.45"/>
<polygon fill="midnightblue" stroke="midnightblue" points="409.38,-134.79 417.96,-128.58 407.38,-128.08 409.38,-134.79"/>
</g>
<!-- Node13 -->
<g id="node13" class="node">
<title>Node13</title>
<g id="a_node13"><a xlink:href="Span_8h.html" target="_top" xlink:title=" ">
<polygon fill="none" stroke="black" points="655.59,-56.5 655.59,-75.5 776.59,-75.5 776.59,-56.5 655.59,-56.5"/>
<text text-anchor="middle" x="716.09" y="-63.5" font-family="FreeSans.ttf" font-size="10.00">iDynTree/Core/Span.h</text>
</a>
</g>
</g>
<!-- Node12&#45;&gt;Node13 -->
<g id="edge14" class="edge">
<title>Node12&#45;&gt;Node13</title>
<path fill="none" stroke="midnightblue" d="M236.53,-280.2C240.29,-267.34 248.24,-242.86 259.09,-224 300.58,-151.88 330.06,-137.99 409.09,-112 420.23,-108.34 558.22,-88.84 645.36,-76.74"/>
<polygon fill="midnightblue" stroke="midnightblue" points="646.04,-80.18 655.46,-75.34 645.08,-73.25 646.04,-80.18"/>
</g>
<!-- Node13&#45;&gt;Node7 -->
<g id="edge18" class="edge">
<title>Node13&#45;&gt;Node7</title>
<path fill="none" stroke="midnightblue" d="M667.11,-56.49C621.42,-48.37 551.12,-35.4 480.72,-20.04"/>
<polygon fill="midnightblue" stroke="midnightblue" points="481.31,-16.58 470.79,-17.85 479.8,-23.42 481.31,-16.58"/>
</g>
<!-- Node14 -->
<g id="node14" class="node">
<title>Node14</title>
<g id="a_node14"><a xlink:title=" ">
<polygon fill="none" stroke="#bfbfbf" points="1010.09,-0.5 1010.09,-19.5 1062.09,-19.5 1062.09,-0.5 1010.09,-0.5"/>
<text text-anchor="middle" x="1036.09" y="-7.5" font-family="FreeSans.ttf" font-size="10.00">cassert</text>
</a>
</g>
</g>
<!-- Node13&#45;&gt;Node14 -->
<g id="edge15" class="edge">
<title>Node13&#45;&gt;Node14</title>
<path fill="none" stroke="midnightblue" d="M776.72,-57.13C832.36,-49.52 917.25,-36.95 999.74,-20.12"/>
<polygon fill="midnightblue" stroke="midnightblue" points="1000.7,-23.5 1009.78,-18.05 999.28,-16.64 1000.7,-23.5"/>
</g>
<!-- Node15 -->
<g id="node15" class="node">
<title>Node15</title>
<g id="a_node15"><a xlink:title=" ">
<polygon fill="none" stroke="#bfbfbf" points="928.09,-0.5 928.09,-19.5 992.09,-19.5 992.09,-0.5 928.09,-0.5"/>
<text text-anchor="middle" x="960.09" y="-7.5" font-family="FreeSans.ttf" font-size="10.00">algorithm</text>
</a>
</g>
</g>
<!-- Node13&#45;&gt;Node15 -->
<g id="edge16" class="edge">
<title>Node13&#45;&gt;Node15</title>
<path fill="none" stroke="midnightblue" d="M754.76,-56.44C799.23,-46.6 872.01,-30.49 917.91,-20.33"/>
<polygon fill="midnightblue" stroke="midnightblue" points="918.84,-23.72 927.85,-18.14 917.33,-16.88 918.84,-23.72"/>
</g>
<!-- Node16 -->
<g id="node16" class="node">
<title>Node16</title>
<g id="a_node16"><a xlink:title=" ">
<polygon fill="none" stroke="#bfbfbf" points="587.09,-0.5 587.09,-19.5 629.09,-19.5 629.09,-0.5 587.09,-0.5"/>
<text text-anchor="middle" x="608.09" y="-7.5" font-family="FreeSans.ttf" font-size="10.00">array</text>
</a>
</g>
</g>
<!-- Node13&#45;&gt;Node16 -->
<g id="edge17" class="edge">
<title>Node13&#45;&gt;Node16</title>
<path fill="none" stroke="midnightblue" d="M698.74,-56.32C681.42,-47.66 654.58,-34.24 634.59,-24.25"/>
<polygon fill="midnightblue" stroke="midnightblue" points="635.91,-21 625.4,-19.65 632.78,-27.26 635.91,-21"/>
</g>
<!-- Node17 -->
<g id="node17" class="node">
<title>Node17</title>
<g id="a_node17"><a xlink:title=" ">
<polygon fill="none" stroke="#bfbfbf" points="647.59,-0.5 647.59,-19.5 700.59,-19.5 700.59,-0.5 647.59,-0.5"/>
<text text-anchor="middle" x="674.09" y="-7.5" font-family="FreeSans.ttf" font-size="10.00">iterator</text>
</a>
</g>
</g>
<!-- Node13&#45;&gt;Node17 -->
<g id="edge19" class="edge">
<title>Node13&#45;&gt;Node17</title>
<path fill="none" stroke="midnightblue" d="M709.16,-56.08C703.16,-48.38 694.34,-37.03 687.05,-27.65"/>
<polygon fill="midnightblue" stroke="midnightblue" points="689.8,-25.5 680.9,-19.75 684.28,-29.79 689.8,-25.5"/>
</g>
<!-- Node18 -->
<g id="node18" class="node">
<title>Node18</title>
<g id="a_node18"><a xlink:title=" ">
<polygon fill="none" stroke="#bfbfbf" points="719.09,-0.5 719.09,-19.5 763.09,-19.5 763.09,-0.5 719.09,-0.5"/>
<text text-anchor="middle" x="741.09" y="-7.5" font-family="FreeSans.ttf" font-size="10.00">limits</text>
</a>
</g>
</g>
<!-- Node13&#45;&gt;Node18 -->
<g id="edge20" class="edge">
<title>Node13&#45;&gt;Node18</title>
<path fill="none" stroke="midnightblue" d="M720.22,-56.08C723.61,-48.77 728.51,-38.18 732.71,-29.1"/>
<polygon fill="midnightblue" stroke="midnightblue" points="736.02,-30.3 737.04,-19.75 729.66,-27.36 736.02,-30.3"/>
</g>
<!-- Node19 -->
<g id="node19" class="node">
<title>Node19</title>
<g id="a_node19"><a xlink:title=" ">
<polygon fill="none" stroke="#bfbfbf" points="781.59,-0.5 781.59,-19.5 846.59,-19.5 846.59,-0.5 781.59,-0.5"/>
<text text-anchor="middle" x="814.09" y="-7.5" font-family="FreeSans.ttf" font-size="10.00">stdexcept</text>
</a>
</g>
</g>
<!-- Node13&#45;&gt;Node19 -->
<g id="edge21" class="edge">
<title>Node13&#45;&gt;Node19</title>
<path fill="none" stroke="midnightblue" d="M731.84,-56.32C747.41,-47.74 771.47,-34.49 789.55,-24.52"/>
<polygon fill="midnightblue" stroke="midnightblue" points="791.32,-27.55 798.39,-19.65 787.94,-21.42 791.32,-27.55"/>
</g>
<!-- Node20 -->
<g id="node20" class="node">
<title>Node20</title>
<g id="a_node20"><a xlink:title=" ">
<polygon fill="none" stroke="#bfbfbf" points="1092.59,-0.5 1092.59,-19.5 1161.59,-19.5 1161.59,-0.5 1092.59,-0.5"/>
<text text-anchor="middle" x="1127.09" y="-7.5" font-family="FreeSans.ttf" font-size="10.00">type_traits</text>
</a>
</g>
</g>
<!-- Node13&#45;&gt;Node20 -->
<g id="edge22" class="edge">
<title>Node13&#45;&gt;Node20</title>
<path fill="none" stroke="midnightblue" d="M776.79,-57.93C847.54,-49.54 967.94,-34.82 1071.09,-20 1074.77,-19.47 1078.58,-18.9 1082.4,-18.32"/>
<polygon fill="midnightblue" stroke="midnightblue" points="1083.13,-21.75 1092.47,-16.75 1082.05,-14.83 1083.13,-21.75"/>
</g>
<!-- Node21 -->
<g id="node21" class="node">
<title>Node21</title>
<g id="a_node21"><a xlink:title=" ">
<polygon fill="none" stroke="#bfbfbf" points="864.59,-0.5 864.59,-19.5 909.59,-19.5 909.59,-0.5 864.59,-0.5"/>
<text text-anchor="middle" x="887.09" y="-7.5" font-family="FreeSans.ttf" font-size="10.00">utility</text>
</a>
</g>
</g>
<!-- Node13&#45;&gt;Node21 -->
<g id="edge23" class="edge">
<title>Node13&#45;&gt;Node21</title>
<path fill="none" stroke="midnightblue" d="M743.19,-56.44C773.44,-46.89 822.38,-31.44 854.65,-21.25"/>
<polygon fill="midnightblue" stroke="midnightblue" points="856.01,-24.49 864.49,-18.14 853.9,-17.81 856.01,-24.49"/>
</g>
<!-- Node22&#45;&gt;Node4 -->
<g id="edge26" class="edge">
<title>Node22&#45;&gt;Node4</title>
<path fill="none" stroke="midnightblue" d="M1056.03,-345.08C932.86,-343.91 710.33,-336.6 640.09,-300 600.93,-279.6 608.26,-254.26 576.09,-224 539.14,-189.24 490.24,-155.47 462.27,-137.13"/>
<polygon fill="midnightblue" stroke="midnightblue" points="463.92,-134.04 453.63,-131.53 460.11,-139.91 463.92,-134.04"/>
</g>
<!-- Node23 -->
<g id="node23" class="node">
<title>Node23</title>
<g id="a_node23"><a xlink:href="MatrixView_8h.html" target="_top" xlink:title=" ">
<polygon fill="none" stroke="black" points="1064.09,-112.5 1064.09,-131.5 1216.09,-131.5 1216.09,-112.5 1064.09,-112.5"/>
<text text-anchor="middle" x="1140.09" y="-119.5" font-family="FreeSans.ttf" font-size="10.00">iDynTree/Core/MatrixView.h</text>
</a>
</g>
</g>
<!-- Node22&#45;&gt;Node23 -->
<g id="edge27" class="edge">
<title>Node22&#45;&gt;Node23</title>
<path fill="none" stroke="midnightblue" d="M1140.09,-336.3C1140.09,-303.63 1140.09,-187.87 1140.09,-141.96"/>
<polygon fill="midnightblue" stroke="midnightblue" points="1143.59,-141.88 1140.09,-131.88 1136.59,-141.88 1143.59,-141.88"/>
</g>
<!-- Node23&#45;&gt;Node6 -->
<g id="edge31" class="edge">
<title>Node23&#45;&gt;Node6</title>
<path fill="none" stroke="midnightblue" d="M1063.99,-114.97C969.15,-107.25 801.83,-92.96 648.03,-76.06"/>
<polygon fill="midnightblue" stroke="midnightblue" points="648.24,-72.57 637.92,-74.95 647.47,-79.52 648.24,-72.57"/>
</g>
<!-- Node23&#45;&gt;Node13 -->
<g id="edge30" class="edge">
<title>Node23&#45;&gt;Node13</title>
<path fill="none" stroke="midnightblue" d="M1072.91,-112.44C994.76,-102.49 866.31,-86.13 786.72,-75.99"/>
<polygon fill="midnightblue" stroke="midnightblue" points="787.14,-72.52 776.78,-74.73 786.26,-79.46 787.14,-72.52"/>
</g>
<!-- Node23&#45;&gt;Node14 -->
<g id="edge28" class="edge">
<title>Node23&#45;&gt;Node14</title>
<path fill="none" stroke="midnightblue" d="M1131.93,-112.37C1114.54,-93.97 1073.6,-50.67 1051.27,-27.05"/>
<polygon fill="midnightblue" stroke="midnightblue" points="1053.63,-24.45 1044.22,-19.59 1048.54,-29.26 1053.63,-24.45"/>
</g>
<!-- Node23&#45;&gt;Node20 -->
<g id="edge29" class="edge">
<title>Node23&#45;&gt;Node20</title>
<path fill="none" stroke="midnightblue" d="M1139.07,-112.37C1136.98,-94.62 1132.14,-53.67 1129.29,-29.6"/>
<polygon fill="midnightblue" stroke="midnightblue" points="1132.76,-29.11 1128.11,-19.59 1125.81,-29.93 1132.76,-29.11"/>
</g>
<!-- Node24&#45;&gt;Node4 -->
<g id="edge62" class="edge">
<title>Node24&#45;&gt;Node4</title>
<path fill="none" stroke="midnightblue" d="M457.85,-392.42C415.5,-378.66 345.09,-347.31 345.09,-291 345.09,-291 345.09,-291 345.09,-233 345.09,-189.74 387.7,-155.09 415.85,-136.91"/>
<polygon fill="midnightblue" stroke="midnightblue" points="417.75,-139.85 424.41,-131.6 414.06,-133.9 417.75,-139.85"/>
</g>
<!-- Node25 -->
<g id="node25" class="node">
<title>Node25</title>
<g id="a_node25"><a xlink:href="Position_8h.html" target="_top" xlink:title=" ">
<polygon fill="none" stroke="black" points="421.09,-336.5 421.09,-355.5 557.09,-355.5 557.09,-336.5 421.09,-336.5"/>
<text text-anchor="middle" x="489.09" y="-343.5" font-family="FreeSans.ttf" font-size="10.00">iDynTree/Core/Position.h</text>
</a>
</g>
</g>
<!-- Node24&#45;&gt;Node25 -->
<g id="edge33" class="edge">
<title>Node24&#45;&gt;Node25</title>
<path fill="none" stroke="midnightblue" d="M489.09,-392.08C489.09,-385.01 489.09,-374.86 489.09,-365.99"/>
<polygon fill="midnightblue" stroke="midnightblue" points="492.59,-365.75 489.09,-355.75 485.59,-365.75 492.59,-365.75"/>
</g>
<!-- Node30 -->
<g id="node30" class="node">
<title>Node30</title>
<g id="a_node30"><a xlink:href="Rotation_8h.html" target="_top" xlink:title=" ">
<polygon fill="none" stroke="black" points="649.09,-280.5 649.09,-299.5 787.09,-299.5 787.09,-280.5 649.09,-280.5"/>
<text text-anchor="middle" x="718.09" y="-287.5" font-family="FreeSans.ttf" font-size="10.00">iDynTree/Core/Rotation.h</text>
</a>
</g>
</g>
<!-- Node24&#45;&gt;Node30 -->
<g id="edge60" class="edge">
<title>Node24&#45;&gt;Node30</title>
<path fill="none" stroke="midnightblue" d="M507.06,-392.37C547.11,-373.13 643.88,-326.65 691.17,-303.93"/>
<polygon fill="midnightblue" stroke="midnightblue" points="692.71,-307.08 700.21,-299.59 689.68,-300.77 692.71,-307.08"/>
</g>
<!-- Node33 -->
<g id="node33" class="node">
<title>Node33</title>
<g id="a_node33"><a xlink:href="MatrixFixSize_8h.html" target="_top" xlink:title=" ">
<polygon fill="none" stroke="black" points="879.59,-168.5 879.59,-187.5 1042.59,-187.5 1042.59,-168.5 879.59,-168.5"/>
<text text-anchor="middle" x="961.09" y="-175.5" font-family="FreeSans.ttf" font-size="10.00">iDynTree/Core/MatrixFixSize.h</text>
</a>
</g>
</g>
<!-- Node24&#45;&gt;Node33 -->
<g id="edge61" class="edge">
<title>Node24&#45;&gt;Node33</title>
<path fill="none" stroke="midnightblue" d="M549.45,-392.47C677.26,-373.05 968.28,-321.14 1026.09,-244 1040.88,-224.27 1014.15,-204.68 990.62,-192.25"/>
<polygon fill="midnightblue" stroke="midnightblue" points="992.04,-189.04 981.53,-187.69 988.9,-195.3 992.04,-189.04"/>
</g>
<!-- Node25&#45;&gt;Node4 -->
<g id="edge59" class="edge">
<title>Node25&#45;&gt;Node4</title>
<path fill="none" stroke="midnightblue" d="M477.46,-336.29C457.48,-320.51 417.32,-285 402.09,-244 388.49,-207.37 412,-163.39 427.71,-139.84"/>
<polygon fill="midnightblue" stroke="midnightblue" points="430.6,-141.82 433.45,-131.61 424.86,-137.81 430.6,-141.82"/>
</g>
<!-- Node26 -->
<g id="node26" class="node">
<title>Node26</title>
<g id="a_node26"><a xlink:href="PositionRaw_8h.html" target="_top" xlink:title=" ">
<polygon fill="none" stroke="black" points="411.09,-224.5 411.09,-243.5 567.09,-243.5 567.09,-224.5 411.09,-224.5"/>
<text text-anchor="middle" x="489.09" y="-231.5" font-family="FreeSans.ttf" font-size="10.00">iDynTree/Core/PositionRaw.h</text>
</a>
</g>
</g>
<!-- Node25&#45;&gt;Node26 -->
<g id="edge34" class="edge">
<title>Node25&#45;&gt;Node26</title>
<path fill="none" stroke="midnightblue" d="M489.09,-336.37C489.09,-318.62 489.09,-277.67 489.09,-253.6"/>
<polygon fill="midnightblue" stroke="midnightblue" points="492.59,-253.59 489.09,-243.59 485.59,-253.59 492.59,-253.59"/>
</g>
<!-- Node25&#45;&gt;Node30 -->
<g id="edge44" class="edge">
<title>Node25&#45;&gt;Node30</title>
<path fill="none" stroke="midnightblue" d="M525.38,-336.44C565.08,-327.08 628.8,-312.06 672,-301.87"/>
<polygon fill="midnightblue" stroke="midnightblue" points="673.05,-305.22 681.98,-299.52 671.44,-298.41 673.05,-305.22"/>
</g>
<!-- Node26&#45;&gt;Node4 -->
<g id="edge43" class="edge">
<title>Node26&#45;&gt;Node4</title>
<path fill="none" stroke="midnightblue" d="M485.25,-224.37C477.27,-206.46 458.77,-164.92 448.09,-140.95"/>
<polygon fill="midnightblue" stroke="midnightblue" points="451.19,-139.3 443.92,-131.59 444.79,-142.15 451.19,-139.3"/>
</g>
<!-- Node27 -->
<g id="node27" class="node">
<title>Node27</title>
<g id="a_node27"><a xlink:href="VectorFixSize_8h.html" target="_top" xlink:title=" ">
<polygon fill="none" stroke="black" points="699.09,-168.5 699.09,-187.5 861.09,-187.5 861.09,-168.5 699.09,-168.5"/>
<text text-anchor="middle" x="780.09" y="-175.5" font-family="FreeSans.ttf" font-size="10.00">iDynTree/Core/VectorFixSize.h</text>
</a>
</g>
</g>
<!-- Node26&#45;&gt;Node27 -->
<g id="edge35" class="edge">
<title>Node26&#45;&gt;Node27</title>
<path fill="none" stroke="midnightblue" d="M535.2,-224.44C586.5,-214.92 669.37,-199.55 724.28,-189.36"/>
<polygon fill="midnightblue" stroke="midnightblue" points="725.01,-192.78 734.2,-187.52 723.73,-185.9 725.01,-192.78"/>
</g>
<!-- Node27&#45;&gt;Node4 -->
<g id="edge38" class="edge">
<title>Node27&#45;&gt;Node4</title>
<path fill="none" stroke="midnightblue" d="M709.11,-168.49C647.29,-160.61 555.38,-147.74 476.09,-132 474.81,-131.75 473.51,-131.48 472.2,-131.19"/>
<polygon fill="midnightblue" stroke="midnightblue" points="472.63,-127.7 462.1,-128.86 471.06,-134.52 472.63,-127.7"/>
</g>
<!-- Node27&#45;&gt;Node6 -->
<g id="edge36" class="edge">
<title>Node27&#45;&gt;Node6</title>
<path fill="none" stroke="midnightblue" d="M764.24,-168.37C729.21,-149.29 644.98,-103.42 602.89,-80.51"/>
<polygon fill="midnightblue" stroke="midnightblue" points="604.33,-77.3 593.87,-75.59 600.98,-83.45 604.33,-77.3"/>
</g>
<!-- Node27&#45;&gt;Node7 -->
<g id="edge41" class="edge">
<title>Node27&#45;&gt;Node7</title>
<path fill="none" stroke="midnightblue" d="M742.86,-168.47C688.55,-154.89 585.84,-124.77 510.09,-76 489.49,-62.73 470.03,-42.23 457.65,-27.81"/>
<polygon fill="midnightblue" stroke="midnightblue" points="460.01,-25.17 450.91,-19.73 454.63,-29.65 460.01,-25.17"/>
</g>
<!-- Node27&#45;&gt;Node13 -->
<g id="edge37" class="edge">
<title>Node27&#45;&gt;Node13</title>
<path fill="none" stroke="midnightblue" d="M764.62,-168.44C752.09,-160.65 735.1,-147.94 726.09,-132 718.11,-117.87 715.91,-99.38 715.53,-85.74"/>
<polygon fill="midnightblue" stroke="midnightblue" points="719.03,-85.63 715.55,-75.62 712.03,-85.61 719.03,-85.63"/>
</g>
<!-- Node27&#45;&gt;Node14 -->
<g id="edge40" class="edge">
<title>Node27&#45;&gt;Node14</title>
<path fill="none" stroke="midnightblue" d="M772.74,-168.28C762.55,-155.08 746.72,-129.68 759.09,-112 773.46,-91.46 928,-43.23 999.8,-21.7"/>
<polygon fill="midnightblue" stroke="midnightblue" points="1001.19,-24.94 1009.77,-18.72 999.19,-18.23 1001.19,-24.94"/>
</g>
<!-- Node28 -->
<g id="node28" class="node">
<title>Node28</title>
<g id="a_node28"><a xlink:title=" ">
<polygon fill="none" stroke="#bfbfbf" points="836.09,-112.5 836.09,-131.5 892.09,-131.5 892.09,-112.5 836.09,-112.5"/>
<text text-anchor="middle" x="864.09" y="-119.5" font-family="FreeSans.ttf" font-size="10.00">sstream</text>
</a>
</g>
</g>
<!-- Node27&#45;&gt;Node28 -->
<g id="edge39" class="edge">
<title>Node27&#45;&gt;Node28</title>
<path fill="none" stroke="midnightblue" d="M793.59,-168.32C806.69,-159.9 826.81,-146.97 842.2,-137.07"/>
<polygon fill="midnightblue" stroke="midnightblue" points="844.11,-140.01 850.63,-131.65 840.33,-134.12 844.11,-140.01"/>
</g>
<!-- Node29 -->
<g id="node29" class="node">
<title>Node29</title>
<g id="a_node29"><a xlink:title=" ">
<polygon fill="none" stroke="#bfbfbf" points="768.09,-112.5 768.09,-131.5 818.09,-131.5 818.09,-112.5 768.09,-112.5"/>
<text text-anchor="middle" x="793.09" y="-119.5" font-family="FreeSans.ttf" font-size="10.00">cstring</text>
</a>
</g>
</g>
<!-- Node27&#45;&gt;Node29 -->
<g id="edge42" class="edge">
<title>Node27&#45;&gt;Node29</title>
<path fill="none" stroke="midnightblue" d="M782.24,-168.08C783.96,-160.93 786.44,-150.64 788.59,-141.69"/>
<polygon fill="midnightblue" stroke="midnightblue" points="792.05,-142.29 790.99,-131.75 785.24,-140.65 792.05,-142.29"/>
</g>
<!-- Node30&#45;&gt;Node4 -->
<g id="edge45" class="edge">
<title>Node30&#45;&gt;Node4</title>
<path fill="none" stroke="midnightblue" d="M701.63,-280.35C687.5,-272.32 667.24,-259.34 653.09,-244 626.63,-215.31 640.09,-191.72 609.09,-168 606.33,-165.88 520.66,-143.67 472.39,-131.27"/>
<polygon fill="midnightblue" stroke="midnightblue" points="472.97,-127.8 462.41,-128.71 471.23,-134.58 472.97,-127.8"/>
</g>
<!-- Node30&#45;&gt;Node27 -->
<g id="edge58" class="edge">
<title>Node30&#45;&gt;Node27</title>
<path fill="none" stroke="midnightblue" d="M787.25,-288.32C864.36,-285.92 981.96,-276.8 1010.09,-244 1015.88,-237.25 1015.74,-230.86 1010.09,-224 1000.12,-211.89 918.67,-198.03 855.49,-188.94"/>
<polygon fill="midnightblue" stroke="midnightblue" points="855.91,-185.46 845.52,-187.52 854.93,-192.39 855.91,-185.46"/>
</g>
<!-- Node31 -->
<g id="node31" class="node">
<title>Node31</title>
<g id="a_node31"><a xlink:href="GeomVector3_8h.html" target="_top" xlink:title=" ">
<polygon fill="none" stroke="black" points="661.59,-224.5 661.59,-243.5 824.59,-243.5 824.59,-224.5 661.59,-224.5"/>
<text text-anchor="middle" x="743.09" y="-231.5" font-family="FreeSans.ttf" font-size="10.00">iDynTree/Core/GeomVector3.h</text>
</a>
</g>
</g>
<!-- Node30&#45;&gt;Node31 -->
<g id="edge46" class="edge">
<title>Node30&#45;&gt;Node31</title>
<path fill="none" stroke="midnightblue" d="M722.22,-280.08C725.61,-272.77 730.51,-262.18 734.71,-253.1"/>
<polygon fill="midnightblue" stroke="midnightblue" points="738.02,-254.3 739.04,-243.75 731.66,-251.36 738.02,-254.3"/>
</g>
<!-- Node32 -->
<g id="node32" class="node">
<title>Node32</title>
<g id="a_node32"><a xlink:href="RotationRaw_8h.html" target="_top" xlink:title=" ">
<polygon fill="none" stroke="black" points="843.09,-224.5 843.09,-243.5 1001.09,-243.5 1001.09,-224.5 843.09,-224.5"/>
<text text-anchor="middle" x="922.09" y="-231.5" font-family="FreeSans.ttf" font-size="10.00">iDynTree/Core/RotationRaw.h</text>
</a>
</g>
</g>
<!-- Node30&#45;&gt;Node32 -->
<g id="edge48" class="edge">
<title>Node30&#45;&gt;Node32</title>
<path fill="none" stroke="midnightblue" d="M750.42,-280.44C785.48,-271.16 841.59,-256.31 880.06,-246.13"/>
<polygon fill="midnightblue" stroke="midnightblue" points="881.15,-249.46 889.92,-243.52 879.36,-242.69 881.15,-249.46"/>
</g>
<!-- Node31&#45;&gt;Node27 -->
<g id="edge47" class="edge">
<title>Node31&#45;&gt;Node27</title>
<path fill="none" stroke="midnightblue" d="M749.2,-224.08C754.38,-216.53 761.94,-205.49 768.29,-196.23"/>
<polygon fill="midnightblue" stroke="midnightblue" points="771.33,-197.98 774.1,-187.75 765.56,-194.02 771.33,-197.98"/>
</g>
<!-- Node32&#45;&gt;Node4 -->
<g id="edge57" class="edge">
<title>Node32&#45;&gt;Node4</title>
<path fill="none" stroke="midnightblue" d="M855.51,-224.49C808.54,-217.43 744.54,-205.65 690.09,-188 670.04,-181.5 667.09,-174.66 647.09,-168 573.4,-143.46 551.78,-149.42 476.09,-132 474.82,-131.71 473.53,-131.4 472.22,-131.1"/>
<polygon fill="midnightblue" stroke="midnightblue" points="472.69,-127.61 462.15,-128.65 471.04,-134.41 472.69,-127.61"/>
</g>
<!-- Node32&#45;&gt;Node33 -->
<g id="edge49" class="edge">
<title>Node32&#45;&gt;Node33</title>
<path fill="none" stroke="midnightblue" d="M928.53,-224.08C934.04,-216.46 942.12,-205.26 948.86,-195.94"/>
<polygon fill="midnightblue" stroke="midnightblue" points="951.76,-197.91 954.77,-187.75 946.08,-193.81 951.76,-197.91"/>
</g>
<!-- Node33&#45;&gt;Node4 -->
<g id="edge54" class="edge">
<title>Node33&#45;&gt;Node4</title>
<path fill="none" stroke="midnightblue" d="M879.4,-168.53C762.37,-156.4 552.3,-134.63 472.26,-126.33"/>
<polygon fill="midnightblue" stroke="midnightblue" points="472.59,-122.85 462.29,-125.3 471.87,-129.81 472.59,-122.85"/>
</g>
<!-- Node33&#45;&gt;Node6 -->
<g id="edge50" class="edge">
<title>Node33&#45;&gt;Node6</title>
<path fill="none" stroke="midnightblue" d="M955.77,-168.05C946.61,-153.55 926.4,-125.24 901.09,-112 895.5,-109.08 741.09,-88.41 647.82,-76.12"/>
<polygon fill="midnightblue" stroke="midnightblue" points="648.25,-72.65 637.88,-74.81 647.34,-79.59 648.25,-72.65"/>
</g>
<!-- Node33&#45;&gt;Node14 -->
<g id="edge52" class="edge">
<title>Node33&#45;&gt;Node14</title>
<path fill="none" stroke="midnightblue" d="M977.38,-168.42C990.34,-160.69 1007.78,-148.08 1017.09,-132 1035.76,-99.75 1037.78,-54.95 1037.19,-29.9"/>
<polygon fill="midnightblue" stroke="midnightblue" points="1040.67,-29.46 1036.77,-19.61 1033.68,-29.74 1040.67,-29.46"/>
</g>
<!-- Node33&#45;&gt;Node23 -->
<g id="edge51" class="edge">
<title>Node33&#45;&gt;Node23</title>
<path fill="none" stroke="midnightblue" d="M989.46,-168.44C1019.83,-159.28 1068.2,-144.69 1101.91,-134.52"/>
<polygon fill="midnightblue" stroke="midnightblue" points="1103.3,-137.76 1111.86,-131.52 1101.28,-131.05 1103.3,-137.76"/>
</g>
<!-- Node33&#45;&gt;Node28 -->
<g id="edge56" class="edge">
<title>Node33&#45;&gt;Node28</title>
<path fill="none" stroke="midnightblue" d="M945.51,-168.32C930.09,-159.74 906.28,-146.49 888.38,-136.52"/>
<polygon fill="midnightblue" stroke="midnightblue" points="890.08,-133.46 879.64,-131.65 886.67,-139.58 890.08,-133.46"/>
</g>
<!-- Node33&#45;&gt;Node29 -->
<g id="edge53" class="edge">
<title>Node33&#45;&gt;Node29</title>
<path fill="none" stroke="midnightblue" d="M934.47,-168.44C905.67,-159.19 859.63,-144.39 827.95,-134.21"/>
<polygon fill="midnightblue" stroke="midnightblue" points="828.81,-130.8 818.22,-131.08 826.67,-137.47 828.81,-130.8"/>
</g>
<!-- Node34 -->
<g id="node34" class="node">
<title>Node34</title>
<g id="a_node34"><a xlink:title=" ">
<polygon fill="none" stroke="#bfbfbf" points="948.09,-112.5 948.09,-131.5 1008.09,-131.5 1008.09,-112.5 948.09,-112.5"/>
<text text-anchor="middle" x="978.09" y="-119.5" font-family="FreeSans.ttf" font-size="10.00">iostream</text>
</a>
</g>
</g>
<!-- Node33&#45;&gt;Node34 -->
<g id="edge55" class="edge">
<title>Node33&#45;&gt;Node34</title>
<path fill="none" stroke="midnightblue" d="M963.9,-168.08C966.18,-160.85 969.46,-150.41 972.3,-141.4"/>
<polygon fill="midnightblue" stroke="midnightblue" points="975.67,-142.34 975.34,-131.75 969,-140.24 975.67,-142.34"/>
</g>
</g>
</svg>
