<?xml version="1.0" encoding="UTF-8" standalone="no"?>
<!DOCTYPE svg PUBLIC "-//W3C//DTD SVG 1.1//EN"
 "http://www.w3.org/Graphics/SVG/1.1/DTD/svg11.dtd">
<!-- Generated by graphviz version 2.43.0 (0)
 -->
<!-- Title: RevoluteJoint.h Pages: 1 -->
<svg width="919pt" height="140pt"
 viewBox="0.00 0.00 919.00 140.00" xmlns="http://www.w3.org/2000/svg" xmlns:xlink="http://www.w3.org/1999/xlink">
<g id="graph0" class="graph" transform="scale(1 1) rotate(0) translate(4 136)">
<title>RevoluteJoint.h</title>
<!-- Node1 -->
<g id="node1" class="node">
<title>Node1</title>
<g id="a_node1"><a xlink:title=" ">
<polygon fill="#bfbfbf" stroke="black" points="419.5,-112.5 419.5,-131.5 510.5,-131.5 510.5,-112.5 419.5,-112.5"/>
<text text-anchor="middle" x="465" y="-119.5" font-family="FreeSans.ttf" font-size="10.00">RevoluteJoint.h</text>
</a>
</g>
</g>
<!-- Node2 -->
<g id="node2" class="node">
<title>Node2</title>
<g id="a_node2"><a xlink:href="ModelTestUtils_8h.html" target="_top" xlink:title=" ">
<polygon fill="none" stroke="black" points="0,-56.5 0,-75.5 98,-75.5 98,-56.5 0,-56.5"/>
<text text-anchor="middle" x="49" y="-63.5" font-family="FreeSans.ttf" font-size="10.00">ModelTestUtils.h</text>
</a>
</g>
</g>
<!-- Node1&#45;&gt;Node2 -->
<g id="edge1" class="edge">
<title>Node1&#45;&gt;Node2</title>
<path fill="none" stroke="midnightblue" d="M409.47,-114.52C339.03,-106.19 213.87,-91.01 107,-76 104.07,-75.59 101.07,-75.16 98.03,-74.71"/>
<polygon fill="midnightblue" stroke="midnightblue" points="409.11,-118.01 419.45,-115.7 409.93,-111.05 409.11,-118.01"/>
</g>
<!-- Node4 -->
<g id="node4" class="node">
<title>Node4</title>
<g id="a_node4"><a xlink:href="DenavitHartenberg_8cpp.html" target="_top" xlink:title=" ">
<polygon fill="none" stroke="black" points="116,-56.5 116,-75.5 246,-75.5 246,-56.5 116,-56.5"/>
<text text-anchor="middle" x="181" y="-63.5" font-family="FreeSans.ttf" font-size="10.00">DenavitHartenberg.cpp</text>
</a>
</g>
</g>
<!-- Node1&#45;&gt;Node4 -->
<g id="edge3" class="edge">
<title>Node1&#45;&gt;Node4</title>
<path fill="none" stroke="midnightblue" d="M409.97,-110.54C356.3,-100.33 275.66,-85 225.79,-75.52"/>
<polygon fill="midnightblue" stroke="midnightblue" points="409.52,-114.01 420,-112.44 410.83,-107.14 409.52,-114.01"/>
</g>
<!-- Node5 -->
<g id="node5" class="node">
<title>Node5</title>
<g id="a_node5"><a xlink:href="ModelTransformers_8cpp.html" target="_top" xlink:title=" ">
<polygon fill="none" stroke="black" points="264.5,-56.5 264.5,-75.5 395.5,-75.5 395.5,-56.5 264.5,-56.5"/>
<text text-anchor="middle" x="330" y="-63.5" font-family="FreeSans.ttf" font-size="10.00">ModelTransformers.cpp</text>
</a>
</g>
</g>
<!-- Node1&#45;&gt;Node5 -->
<g id="edge4" class="edge">
<title>Node1&#45;&gt;Node5</title>
<path fill="none" stroke="midnightblue" d="M434.09,-108.64C408.76,-98.5 373.57,-84.43 351.29,-75.52"/>
<polygon fill="midnightblue" stroke="midnightblue" points="433.02,-111.98 443.61,-112.44 435.62,-105.48 433.02,-111.98"/>
</g>
<!-- Node6 -->
<g id="node6" class="node">
<title>Node6</title>
<g id="a_node6"><a xlink:href="RevoluteJoint_8cpp.html" target="_top" xlink:title=" ">
<polygon fill="none" stroke="black" points="414,-56.5 414,-75.5 516,-75.5 516,-56.5 414,-56.5"/>
<text text-anchor="middle" x="465" y="-63.5" font-family="FreeSans.ttf" font-size="10.00">RevoluteJoint.cpp</text>
</a>
</g>
</g>
<!-- Node1&#45;&gt;Node6 -->
<g id="edge5" class="edge">
<title>Node1&#45;&gt;Node6</title>
<path fill="none" stroke="midnightblue" d="M465,-101.8C465,-92.91 465,-82.78 465,-75.75"/>
<polygon fill="midnightblue" stroke="midnightblue" points="461.5,-102.08 465,-112.08 468.5,-102.08 461.5,-102.08"/>
</g>
<!-- Node7 -->
<g id="node7" class="node">
<title>Node7</title>
<g id="a_node7"><a xlink:href="JointElement_8cpp.html" target="_top" xlink:title=" ">
<polygon fill="none" stroke="black" points="534.5,-56.5 534.5,-75.5 633.5,-75.5 633.5,-56.5 534.5,-56.5"/>
<text text-anchor="middle" x="584" y="-63.5" font-family="FreeSans.ttf" font-size="10.00">JointElement.cpp</text>
</a>
</g>
</g>
<!-- Node1&#45;&gt;Node7 -->
<g id="edge6" class="edge">
<title>Node1&#45;&gt;Node7</title>
<path fill="none" stroke="midnightblue" d="M493.14,-108.23C515.4,-98.13 545.86,-84.31 565.23,-75.52"/>
<polygon fill="midnightblue" stroke="midnightblue" points="491.52,-105.12 483.86,-112.44 494.41,-111.5 491.52,-105.12"/>
</g>
<!-- Node8 -->
<g id="node8" class="node">
<title>Node8</title>
<g id="a_node8"><a xlink:href="URDFDocument_8cpp.html" target="_top" xlink:title=" ">
<polygon fill="none" stroke="black" points="651.5,-56.5 651.5,-75.5 766.5,-75.5 766.5,-56.5 651.5,-56.5"/>
<text text-anchor="middle" x="709" y="-63.5" font-family="FreeSans.ttf" font-size="10.00">URDFDocument.cpp</text>
</a>
</g>
</g>
<!-- Node1&#45;&gt;Node8 -->
<g id="edge7" class="edge">
<title>Node1&#45;&gt;Node8</title>
<path fill="none" stroke="midnightblue" d="M513.43,-110.28C559.54,-100.08 628.03,-84.92 670.52,-75.52"/>
<polygon fill="midnightblue" stroke="midnightblue" points="512.67,-106.87 503.66,-112.44 514.18,-113.7 512.67,-106.87"/>
</g>
<!-- Node9 -->
<g id="node9" class="node">
<title>Node9</title>
<g id="a_node9"><a xlink:href="URDFModelExport_8cpp.html" target="_top" xlink:title=" ">
<polygon fill="none" stroke="black" points="785,-56.5 785,-75.5 911,-75.5 911,-56.5 785,-56.5"/>
<text text-anchor="middle" x="848" y="-63.5" font-family="FreeSans.ttf" font-size="10.00">URDFModelExport.cpp</text>
</a>
</g>
</g>
<!-- Node1&#45;&gt;Node9 -->
<g id="edge8" class="edge">
<title>Node1&#45;&gt;Node9</title>
<path fill="none" stroke="midnightblue" d="M520.93,-113.11C592.07,-103.08 714.45,-85.83 787.65,-75.51"/>
<polygon fill="midnightblue" stroke="midnightblue" points="520.23,-109.68 510.82,-114.54 521.21,-116.61 520.23,-109.68"/>
</g>
<!-- Node3 -->
<g id="node3" class="node">
<title>Node3</title>
<g id="a_node3"><a xlink:href="urdf2dh_8cpp.html" target="_top" xlink:title=" ">
<polygon fill="none" stroke="black" points="12,-0.5 12,-19.5 86,-19.5 86,-0.5 12,-0.5"/>
<text text-anchor="middle" x="49" y="-7.5" font-family="FreeSans.ttf" font-size="10.00">urdf2dh.cpp</text>
</a>
</g>
</g>
<!-- Node2&#45;&gt;Node3 -->
<g id="edge2" class="edge">
<title>Node2&#45;&gt;Node3</title>
<path fill="none" stroke="midnightblue" d="M49,-45.8C49,-36.91 49,-26.78 49,-19.75"/>
<polygon fill="midnightblue" stroke="midnightblue" points="45.5,-46.08 49,-56.08 52.5,-46.08 45.5,-46.08"/>
</g>
</g>
</svg>
