<?xml version="1.0" encoding="UTF-8" standalone="no"?>
<!DOCTYPE svg PUBLIC "-//W3C//DTD SVG 1.1//EN"
 "http://www.w3.org/Graphics/SVG/1.1/DTD/svg11.dtd">
<!-- Generated by graphviz version 2.43.0 (0)
 -->
<!-- Title: RK4.h Pages: 1 -->
<svg width="969pt" height="375pt"
 viewBox="0.00 0.00 968.50 375.00" xmlns="http://www.w3.org/2000/svg" xmlns:xlink="http://www.w3.org/1999/xlink">
<g id="graph0" class="graph" transform="scale(1 1) rotate(0) translate(4 371)">
<title>RK4.h</title>
<!-- Node1 -->
<g id="node1" class="node">
<title>Node1</title>
<g id="a_node1"><a xlink:title=" ">
<polygon fill="#bfbfbf" stroke="black" points="437,-347.5 437,-366.5 482,-366.5 482,-347.5 437,-347.5"/>
<text text-anchor="middle" x="459.5" y="-354.5" font-family="FreeSans.ttf" font-size="10.00">RK4.h</text>
</a>
</g>
</g>
<!-- Node2 -->
<g id="node2" class="node">
<title>Node2</title>
<g id="a_node2"><a xlink:href="FixedStepIntegrator_8h.html" target="_top" xlink:title=" ">
<polygon fill="none" stroke="black" points="338,-280.5 338,-310.5 461,-310.5 461,-280.5 338,-280.5"/>
<text text-anchor="start" x="346" y="-298.5" font-family="FreeSans.ttf" font-size="10.00">iDynTree/Integrators</text>
<text text-anchor="middle" x="399.5" y="-287.5" font-family="FreeSans.ttf" font-size="10.00">/FixedStepIntegrator.h</text>
</a>
</g>
</g>
<!-- Node1&#45;&gt;Node2 -->
<g id="edge1" class="edge">
<title>Node1&#45;&gt;Node2</title>
<path fill="none" stroke="midnightblue" d="M450.9,-347.48C443.08,-339.72 431.21,-327.94 420.84,-317.66"/>
<polygon fill="midnightblue" stroke="midnightblue" points="423.21,-315.08 413.64,-310.52 418.28,-320.05 423.21,-315.08"/>
</g>
<!-- Node4 -->
<g id="node4" class="node">
<title>Node4</title>
<g id="a_node4"><a xlink:href="VectorDynSize_8h.html" target="_top" xlink:title=" ">
<polygon fill="none" stroke="black" points="226,-168.5 226,-187.5 393,-187.5 393,-168.5 226,-168.5"/>
<text text-anchor="middle" x="309.5" y="-175.5" font-family="FreeSans.ttf" font-size="10.00">iDynTree/Core/VectorDynSize.h</text>
</a>
</g>
</g>
<!-- Node1&#45;&gt;Node4 -->
<g id="edge37" class="edge">
<title>Node1&#45;&gt;Node4</title>
<path fill="none" stroke="midnightblue" d="M436.77,-355.09C406.99,-352.59 355.41,-343.51 328.5,-311 301.64,-278.55 303.36,-225.56 306.61,-197.61"/>
<polygon fill="midnightblue" stroke="midnightblue" points="310.09,-197.98 307.96,-187.6 303.15,-197.04 310.09,-197.98"/>
</g>
<!-- Node25 -->
<g id="node25" class="node">
<title>Node25</title>
<g id="a_node25"><a xlink:title=" ">
<polygon fill="none" stroke="#bfbfbf" points="479.5,-286 479.5,-305 559.5,-305 559.5,-286 479.5,-286"/>
<text text-anchor="middle" x="519.5" y="-293" font-family="FreeSans.ttf" font-size="10.00">Eigen/Sparse</text>
</a>
</g>
</g>
<!-- Node1&#45;&gt;Node25 -->
<g id="edge35" class="edge">
<title>Node1&#45;&gt;Node25</title>
<path fill="none" stroke="midnightblue" d="M468.1,-347.48C477.36,-338.28 492.32,-323.46 503.71,-312.16"/>
<polygon fill="midnightblue" stroke="midnightblue" points="506.28,-314.54 510.92,-305.01 501.35,-309.57 506.28,-314.54"/>
</g>
<!-- Node26 -->
<g id="node26" class="node">
<title>Node26</title>
<g id="a_node26"><a xlink:title=" ">
<polygon fill="none" stroke="#bfbfbf" points="578,-286 578,-305 655,-305 655,-286 578,-286"/>
<text text-anchor="middle" x="616.5" y="-293" font-family="FreeSans.ttf" font-size="10.00">Eigen/Dense</text>
</a>
</g>
</g>
<!-- Node1&#45;&gt;Node26 -->
<g id="edge36" class="edge">
<title>Node1&#45;&gt;Node26</title>
<path fill="none" stroke="midnightblue" d="M481.99,-347.48C508.81,-337.31 553.82,-320.26 584.31,-308.7"/>
<polygon fill="midnightblue" stroke="midnightblue" points="585.94,-311.83 594.05,-305.01 583.46,-305.28 585.94,-311.83"/>
</g>
<!-- Node3 -->
<g id="node3" class="node">
<title>Node3</title>
<g id="a_node3"><a xlink:href="Integrator_8h.html" target="_top" xlink:title=" ">
<polygon fill="none" stroke="black" points="600,-224.5 600,-243.5 719,-243.5 719,-224.5 600,-224.5"/>
<text text-anchor="middle" x="659.5" y="-231.5" font-family="FreeSans.ttf" font-size="10.00">iDynTree/Integrator.h</text>
</a>
</g>
</g>
<!-- Node2&#45;&gt;Node3 -->
<g id="edge2" class="edge">
<title>Node2&#45;&gt;Node3</title>
<path fill="none" stroke="midnightblue" d="M460.79,-280.47C507.21,-269.85 570.04,-255.47 612.52,-245.75"/>
<polygon fill="midnightblue" stroke="midnightblue" points="613.36,-249.15 622.33,-243.51 611.8,-242.33 613.36,-249.15"/>
</g>
<!-- Node2&#45;&gt;Node4 -->
<g id="edge34" class="edge">
<title>Node2&#45;&gt;Node4</title>
<path fill="none" stroke="midnightblue" d="M388.46,-280.34C371.81,-258.96 340.3,-218.53 322.54,-195.73"/>
<polygon fill="midnightblue" stroke="midnightblue" points="325.16,-193.41 316.26,-187.67 319.64,-197.71 325.16,-193.41"/>
</g>
<!-- Node3&#45;&gt;Node4 -->
<g id="edge3" class="edge">
<title>Node3&#45;&gt;Node4</title>
<path fill="none" stroke="midnightblue" d="M604.04,-224.44C541.83,-214.85 441.02,-199.29 374.99,-189.1"/>
<polygon fill="midnightblue" stroke="midnightblue" points="375.12,-185.58 364.7,-187.52 374.05,-192.5 375.12,-185.58"/>
</g>
<!-- Node15 -->
<g id="node15" class="node">
<title>Node15</title>
<g id="a_node15"><a xlink:title=" ">
<polygon fill="none" stroke="#bfbfbf" points="551.5,-112.5 551.5,-131.5 595.5,-131.5 595.5,-112.5 551.5,-112.5"/>
<text text-anchor="middle" x="573.5" y="-119.5" font-family="FreeSans.ttf" font-size="10.00">string</text>
</a>
</g>
</g>
<!-- Node3&#45;&gt;Node15 -->
<g id="edge31" class="edge">
<title>Node3&#45;&gt;Node15</title>
<path fill="none" stroke="midnightblue" d="M652.75,-224.37C638.5,-206.14 605.11,-163.43 586.54,-139.68"/>
<polygon fill="midnightblue" stroke="midnightblue" points="589.13,-137.31 580.22,-131.59 583.62,-141.63 589.13,-137.31"/>
</g>
<!-- Node16 -->
<g id="node16" class="node">
<title>Node16</title>
<g id="a_node16"><a xlink:href="MatrixDynSize_8h.html" target="_top" xlink:title=" ">
<polygon fill="none" stroke="black" points="410.5,-168.5 410.5,-187.5 578.5,-187.5 578.5,-168.5 410.5,-168.5"/>
<text text-anchor="middle" x="494.5" y="-175.5" font-family="FreeSans.ttf" font-size="10.00">iDynTree/Core/MatrixDynSize.h</text>
</a>
</g>
</g>
<!-- Node3&#45;&gt;Node16 -->
<g id="edge15" class="edge">
<title>Node3&#45;&gt;Node16</title>
<path fill="none" stroke="midnightblue" d="M633.36,-224.44C605.48,-215.32 561.15,-200.81 530.1,-190.65"/>
<polygon fill="midnightblue" stroke="midnightblue" points="531.12,-187.3 520.52,-187.52 528.94,-193.95 531.12,-187.3"/>
</g>
<!-- Node20 -->
<g id="node20" class="node">
<title>Node20</title>
<g id="a_node20"><a xlink:href="SparsityStructure_8h.html" target="_top" xlink:title=" ">
<polygon fill="none" stroke="black" points="635,-168.5 635,-187.5 790,-187.5 790,-168.5 635,-168.5"/>
<text text-anchor="middle" x="712.5" y="-175.5" font-family="FreeSans.ttf" font-size="10.00">iDynTree/SparsityStructure.h</text>
</a>
</g>
</g>
<!-- Node3&#45;&gt;Node20 -->
<g id="edge24" class="edge">
<title>Node3&#45;&gt;Node20</title>
<path fill="none" stroke="midnightblue" d="M668.25,-224.08C675.97,-216.22 687.4,-204.57 696.72,-195.08"/>
<polygon fill="midnightblue" stroke="midnightblue" points="699.4,-197.34 703.91,-187.75 694.41,-192.44 699.4,-197.34"/>
</g>
<!-- Node21 -->
<g id="node21" class="node">
<title>Node21</title>
<g id="a_node21"><a xlink:title=" ">
<polygon fill="none" stroke="#bfbfbf" points="795,-112.5 795,-131.5 842,-131.5 842,-112.5 795,-112.5"/>
<text text-anchor="middle" x="818.5" y="-119.5" font-family="FreeSans.ttf" font-size="10.00">vector</text>
</a>
</g>
</g>
<!-- Node3&#45;&gt;Node21 -->
<g id="edge30" class="edge">
<title>Node3&#45;&gt;Node21</title>
<path fill="none" stroke="midnightblue" d="M719.01,-226.76C746.83,-220.93 778.39,-209.68 799.5,-188 811.41,-175.77 815.92,-156.51 817.6,-142.12"/>
<polygon fill="midnightblue" stroke="midnightblue" points="821.11,-142.1 818.42,-131.85 814.13,-141.54 821.11,-142.1"/>
</g>
<!-- Node23 -->
<g id="node23" class="node">
<title>Node23</title>
<g id="a_node23"><a xlink:title=" ">
<polygon fill="none" stroke="#bfbfbf" points="846.5,-168.5 846.5,-187.5 904.5,-187.5 904.5,-168.5 846.5,-168.5"/>
<text text-anchor="middle" x="875.5" y="-175.5" font-family="FreeSans.ttf" font-size="10.00">memory</text>
</a>
</g>
</g>
<!-- Node3&#45;&gt;Node23 -->
<g id="edge32" class="edge">
<title>Node3&#45;&gt;Node23</title>
<path fill="none" stroke="midnightblue" d="M693.73,-224.44C732.55,-214.74 795.73,-198.94 836.44,-188.76"/>
<polygon fill="midnightblue" stroke="midnightblue" points="837.43,-192.13 846.28,-186.3 835.73,-185.33 837.43,-192.13"/>
</g>
<!-- Node24 -->
<g id="node24" class="node">
<title>Node24</title>
<g id="a_node24"><a xlink:title=" ">
<polygon fill="none" stroke="#bfbfbf" points="922.5,-168.5 922.5,-187.5 960.5,-187.5 960.5,-168.5 922.5,-168.5"/>
<text text-anchor="middle" x="941.5" y="-175.5" font-family="FreeSans.ttf" font-size="10.00">map</text>
</a>
</g>
</g>
<!-- Node3&#45;&gt;Node24 -->
<g id="edge33" class="edge">
<title>Node3&#45;&gt;Node24</title>
<path fill="none" stroke="midnightblue" d="M719.26,-224.75C768.71,-217.4 840.91,-205.44 912.26,-188.04"/>
<polygon fill="midnightblue" stroke="midnightblue" points="913.45,-191.35 922.32,-185.54 911.77,-184.55 913.45,-191.35"/>
</g>
<!-- Node5 -->
<g id="node5" class="node">
<title>Node5</title>
<g id="a_node5"><a xlink:href="Span_8h.html" target="_top" xlink:title=" ">
<polygon fill="none" stroke="black" points="252,-56.5 252,-75.5 373,-75.5 373,-56.5 252,-56.5"/>
<text text-anchor="middle" x="312.5" y="-63.5" font-family="FreeSans.ttf" font-size="10.00">iDynTree/Core/Span.h</text>
</a>
</g>
</g>
<!-- Node4&#45;&gt;Node5 -->
<g id="edge4" class="edge">
<title>Node4&#45;&gt;Node5</title>
<path fill="none" stroke="midnightblue" d="M309.74,-168.37C310.22,-150.62 311.34,-109.67 311.99,-85.6"/>
<polygon fill="midnightblue" stroke="midnightblue" points="315.49,-85.68 312.27,-75.59 308.49,-85.49 315.49,-85.68"/>
</g>
<!-- Node4&#45;&gt;Node15 -->
<g id="edge14" class="edge">
<title>Node4&#45;&gt;Node15</title>
<path fill="none" stroke="midnightblue" d="M361.16,-168.43C406.34,-160.61 473.92,-148.16 541.28,-132.13"/>
<polygon fill="midnightblue" stroke="midnightblue" points="542.31,-135.48 551.21,-129.74 540.67,-128.67 542.31,-135.48"/>
</g>
<!-- Node6 -->
<g id="node6" class="node">
<title>Node6</title>
<g id="a_node6"><a xlink:title=" ">
<polygon fill="none" stroke="#bfbfbf" points="510.5,-0.5 510.5,-19.5 562.5,-19.5 562.5,-0.5 510.5,-0.5"/>
<text text-anchor="middle" x="536.5" y="-7.5" font-family="FreeSans.ttf" font-size="10.00">cassert</text>
</a>
</g>
</g>
<!-- Node5&#45;&gt;Node6 -->
<g id="edge5" class="edge">
<title>Node5&#45;&gt;Node6</title>
<path fill="none" stroke="midnightblue" d="M348.57,-56.48C384.44,-47.98 441.29,-34.44 500.29,-20.03"/>
<polygon fill="midnightblue" stroke="midnightblue" points="501.28,-23.39 510.16,-17.62 499.62,-16.59 501.28,-23.39"/>
</g>
<!-- Node7 -->
<g id="node7" class="node">
<title>Node7</title>
<g id="a_node7"><a xlink:title=" ">
<polygon fill="none" stroke="#bfbfbf" points="280.5,-0.5 280.5,-19.5 344.5,-19.5 344.5,-0.5 280.5,-0.5"/>
<text text-anchor="middle" x="312.5" y="-7.5" font-family="FreeSans.ttf" font-size="10.00">algorithm</text>
</a>
</g>
</g>
<!-- Node5&#45;&gt;Node7 -->
<g id="edge6" class="edge">
<title>Node5&#45;&gt;Node7</title>
<path fill="none" stroke="midnightblue" d="M312.5,-56.08C312.5,-49.01 312.5,-38.86 312.5,-29.99"/>
<polygon fill="midnightblue" stroke="midnightblue" points="316,-29.75 312.5,-19.75 309,-29.75 316,-29.75"/>
</g>
<!-- Node8 -->
<g id="node8" class="node">
<title>Node8</title>
<g id="a_node8"><a xlink:title=" ">
<polygon fill="none" stroke="#bfbfbf" points="362.5,-0.5 362.5,-19.5 404.5,-19.5 404.5,-0.5 362.5,-0.5"/>
<text text-anchor="middle" x="383.5" y="-7.5" font-family="FreeSans.ttf" font-size="10.00">array</text>
</a>
</g>
</g>
<!-- Node5&#45;&gt;Node8 -->
<g id="edge7" class="edge">
<title>Node5&#45;&gt;Node8</title>
<path fill="none" stroke="midnightblue" d="M323.91,-56.32C334.61,-48.18 350.84,-35.84 363.66,-26.09"/>
<polygon fill="midnightblue" stroke="midnightblue" points="366.04,-28.67 371.89,-19.83 361.81,-23.1 366.04,-28.67"/>
</g>
<!-- Node9 -->
<g id="node9" class="node">
<title>Node9</title>
<g id="a_node9"><a xlink:title=" ">
<polygon fill="none" stroke="#bfbfbf" points="597,-0.5 597,-19.5 650,-19.5 650,-0.5 597,-0.5"/>
<text text-anchor="middle" x="623.5" y="-7.5" font-family="FreeSans.ttf" font-size="10.00">cstddef</text>
</a>
</g>
</g>
<!-- Node5&#45;&gt;Node9 -->
<g id="edge8" class="edge">
<title>Node5&#45;&gt;Node9</title>
<path fill="none" stroke="midnightblue" d="M361.78,-56.44C424.37,-45.58 530.95,-27.07 586.83,-17.37"/>
<polygon fill="midnightblue" stroke="midnightblue" points="587.73,-20.76 596.98,-15.6 586.53,-13.87 587.73,-20.76"/>
</g>
<!-- Node10 -->
<g id="node10" class="node">
<title>Node10</title>
<g id="a_node10"><a xlink:title=" ">
<polygon fill="none" stroke="#bfbfbf" points="0,-0.5 0,-19.5 53,-19.5 53,-0.5 0,-0.5"/>
<text text-anchor="middle" x="26.5" y="-7.5" font-family="FreeSans.ttf" font-size="10.00">iterator</text>
</a>
</g>
</g>
<!-- Node5&#45;&gt;Node10 -->
<g id="edge9" class="edge">
<title>Node5&#45;&gt;Node10</title>
<path fill="none" stroke="midnightblue" d="M259.14,-56.46C210.57,-48.44 136.67,-35.65 63.1,-20.01"/>
<polygon fill="midnightblue" stroke="midnightblue" points="63.7,-16.56 53.19,-17.88 62.23,-23.4 63.7,-16.56"/>
</g>
<!-- Node11 -->
<g id="node11" class="node">
<title>Node11</title>
<g id="a_node11"><a xlink:title=" ">
<polygon fill="none" stroke="#bfbfbf" points="71.5,-0.5 71.5,-19.5 115.5,-19.5 115.5,-0.5 71.5,-0.5"/>
<text text-anchor="middle" x="93.5" y="-7.5" font-family="FreeSans.ttf" font-size="10.00">limits</text>
</a>
</g>
</g>
<!-- Node5&#45;&gt;Node11 -->
<g id="edge10" class="edge">
<title>Node5&#45;&gt;Node11</title>
<path fill="none" stroke="midnightblue" d="M274.56,-56.48C238.57,-48.27 182.77,-35.22 125.73,-20.24"/>
<polygon fill="midnightblue" stroke="midnightblue" points="126.38,-16.79 115.82,-17.62 124.59,-23.56 126.38,-16.79"/>
</g>
<!-- Node12 -->
<g id="node12" class="node">
<title>Node12</title>
<g id="a_node12"><a xlink:title=" ">
<polygon fill="none" stroke="#bfbfbf" points="134,-0.5 134,-19.5 199,-19.5 199,-0.5 134,-0.5"/>
<text text-anchor="middle" x="166.5" y="-7.5" font-family="FreeSans.ttf" font-size="10.00">stdexcept</text>
</a>
</g>
</g>
<!-- Node5&#45;&gt;Node12 -->
<g id="edge11" class="edge">
<title>Node5&#45;&gt;Node12</title>
<path fill="none" stroke="midnightblue" d="M289.37,-56.44C265.02,-47.44 226.49,-33.19 199.08,-23.05"/>
<polygon fill="midnightblue" stroke="midnightblue" points="200.12,-19.7 189.53,-19.52 197.69,-26.27 200.12,-19.7"/>
</g>
<!-- Node13 -->
<g id="node13" class="node">
<title>Node13</title>
<g id="a_node13"><a xlink:title=" ">
<polygon fill="none" stroke="#bfbfbf" points="423,-0.5 423,-19.5 492,-19.5 492,-0.5 423,-0.5"/>
<text text-anchor="middle" x="457.5" y="-7.5" font-family="FreeSans.ttf" font-size="10.00">type_traits</text>
</a>
</g>
</g>
<!-- Node5&#45;&gt;Node13 -->
<g id="edge12" class="edge">
<title>Node5&#45;&gt;Node13</title>
<path fill="none" stroke="midnightblue" d="M335.48,-56.44C359.66,-47.44 397.92,-33.19 425.15,-23.05"/>
<polygon fill="midnightblue" stroke="midnightblue" points="426.48,-26.29 434.63,-19.52 424.04,-19.73 426.48,-26.29"/>
</g>
<!-- Node14 -->
<g id="node14" class="node">
<title>Node14</title>
<g id="a_node14"><a xlink:title=" ">
<polygon fill="none" stroke="#bfbfbf" points="217,-0.5 217,-19.5 262,-19.5 262,-0.5 217,-0.5"/>
<text text-anchor="middle" x="239.5" y="-7.5" font-family="FreeSans.ttf" font-size="10.00">utility</text>
</a>
</g>
</g>
<!-- Node5&#45;&gt;Node14 -->
<g id="edge13" class="edge">
<title>Node5&#45;&gt;Node14</title>
<path fill="none" stroke="midnightblue" d="M300.77,-56.32C289.66,-48.11 272.76,-35.6 259.52,-25.81"/>
<polygon fill="midnightblue" stroke="midnightblue" points="261.56,-22.97 251.44,-19.83 257.4,-28.59 261.56,-22.97"/>
</g>
<!-- Node16&#45;&gt;Node15 -->
<g id="edge16" class="edge">
<title>Node16&#45;&gt;Node15</title>
<path fill="none" stroke="midnightblue" d="M507.19,-168.32C519.4,-159.98 538.08,-147.21 552.5,-137.35"/>
<polygon fill="midnightblue" stroke="midnightblue" points="554.56,-140.19 560.84,-131.65 550.61,-134.41 554.56,-140.19"/>
</g>
<!-- Node17 -->
<g id="node17" class="node">
<title>Node17</title>
<g id="a_node17"><a xlink:href="MatrixView_8h.html" target="_top" xlink:title=" ">
<polygon fill="none" stroke="black" points="381.5,-112.5 381.5,-131.5 533.5,-131.5 533.5,-112.5 381.5,-112.5"/>
<text text-anchor="middle" x="457.5" y="-119.5" font-family="FreeSans.ttf" font-size="10.00">iDynTree/Core/MatrixView.h</text>
</a>
</g>
</g>
<!-- Node16&#45;&gt;Node17 -->
<g id="edge17" class="edge">
<title>Node16&#45;&gt;Node17</title>
<path fill="none" stroke="midnightblue" d="M488.39,-168.08C483.22,-160.53 475.65,-149.49 469.31,-140.23"/>
<polygon fill="midnightblue" stroke="midnightblue" points="472.04,-138.02 463.5,-131.75 466.26,-141.98 472.04,-138.02"/>
</g>
<!-- Node17&#45;&gt;Node5 -->
<g id="edge20" class="edge">
<title>Node17&#45;&gt;Node5</title>
<path fill="none" stroke="midnightblue" d="M434.52,-112.44C410.34,-103.44 372.08,-89.19 344.85,-79.05"/>
<polygon fill="midnightblue" stroke="midnightblue" points="345.96,-75.73 335.37,-75.52 343.52,-82.29 345.96,-75.73"/>
</g>
<!-- Node17&#45;&gt;Node6 -->
<g id="edge18" class="edge">
<title>Node17&#45;&gt;Node6</title>
<path fill="none" stroke="midnightblue" d="M463.7,-112.37C476.74,-94.22 507.2,-51.8 524.3,-27.99"/>
<polygon fill="midnightblue" stroke="midnightblue" points="527.34,-29.76 530.33,-19.59 521.65,-25.67 527.34,-29.76"/>
</g>
<!-- Node17&#45;&gt;Node13 -->
<g id="edge19" class="edge">
<title>Node17&#45;&gt;Node13</title>
<path fill="none" stroke="midnightblue" d="M457.5,-112.37C457.5,-94.62 457.5,-53.67 457.5,-29.6"/>
<polygon fill="midnightblue" stroke="midnightblue" points="461,-29.59 457.5,-19.59 454,-29.59 461,-29.59"/>
</g>
<!-- Node18 -->
<g id="node18" class="node">
<title>Node18</title>
<g id="a_node18"><a xlink:href="Utils_8h.html" target="_top" xlink:title=" ">
<polygon fill="none" stroke="black" points="652,-56.5 652,-75.5 771,-75.5 771,-56.5 652,-56.5"/>
<text text-anchor="middle" x="711.5" y="-63.5" font-family="FreeSans.ttf" font-size="10.00">iDynTree/Core/Utils.h</text>
</a>
</g>
</g>
<!-- Node17&#45;&gt;Node18 -->
<g id="edge21" class="edge">
<title>Node17&#45;&gt;Node18</title>
<path fill="none" stroke="midnightblue" d="M497.75,-112.44C542.15,-103 613.65,-87.8 661.59,-77.61"/>
<polygon fill="midnightblue" stroke="midnightblue" points="662.39,-81.02 671.44,-75.52 660.93,-74.17 662.39,-81.02"/>
</g>
<!-- Node18&#45;&gt;Node9 -->
<g id="edge22" class="edge">
<title>Node18&#45;&gt;Node9</title>
<path fill="none" stroke="midnightblue" d="M697.36,-56.32C683.63,-47.9 662.56,-34.97 646.44,-25.07"/>
<polygon fill="midnightblue" stroke="midnightblue" points="647.96,-21.9 637.6,-19.65 644.3,-27.87 647.96,-21.9"/>
</g>
<!-- Node19 -->
<g id="node19" class="node">
<title>Node19</title>
<g id="a_node19"><a xlink:title=" ">
<polygon fill="none" stroke="#bfbfbf" points="671.5,-0.5 671.5,-19.5 751.5,-19.5 751.5,-0.5 671.5,-0.5"/>
<text text-anchor="middle" x="711.5" y="-7.5" font-family="FreeSans.ttf" font-size="10.00">CoreExport.h</text>
</a>
</g>
</g>
<!-- Node18&#45;&gt;Node19 -->
<g id="edge23" class="edge">
<title>Node18&#45;&gt;Node19</title>
<path fill="none" stroke="midnightblue" d="M711.5,-56.08C711.5,-49.01 711.5,-38.86 711.5,-29.99"/>
<polygon fill="midnightblue" stroke="midnightblue" points="715,-29.75 711.5,-19.75 708,-29.75 715,-29.75"/>
</g>
<!-- Node20&#45;&gt;Node9 -->
<g id="edge27" class="edge">
<title>Node20&#45;&gt;Node9</title>
<path fill="none" stroke="midnightblue" d="M704.98,-168.3C697.44,-159.42 685.67,-145.12 676.5,-132 659.82,-108.14 654.24,-102.65 642.5,-76 635.83,-60.87 630.76,-42.75 627.54,-29.49"/>
<polygon fill="midnightblue" stroke="midnightblue" points="630.93,-28.62 625.27,-19.66 624.11,-30.19 630.93,-28.62"/>
</g>
<!-- Node20&#45;&gt;Node15 -->
<g id="edge29" class="edge">
<title>Node20&#45;&gt;Node15</title>
<path fill="none" stroke="midnightblue" d="M690.48,-168.44C667.4,-159.48 630.94,-145.31 604.86,-135.18"/>
<polygon fill="midnightblue" stroke="midnightblue" points="606.01,-131.88 595.42,-131.52 603.48,-138.4 606.01,-131.88"/>
</g>
<!-- Node20&#45;&gt;Node18 -->
<g id="edge25" class="edge">
<title>Node20&#45;&gt;Node18</title>
<path fill="none" stroke="midnightblue" d="M704.02,-168.23C696.45,-159.75 685.9,-146.13 681.5,-132 676.16,-114.84 686.43,-96.32 696.37,-83.46"/>
<polygon fill="midnightblue" stroke="midnightblue" points="699.27,-85.45 703.01,-75.54 693.9,-80.96 699.27,-85.45"/>
</g>
<!-- Node20&#45;&gt;Node21 -->
<g id="edge26" class="edge">
<title>Node20&#45;&gt;Node21</title>
<path fill="none" stroke="midnightblue" d="M729.53,-168.32C746.53,-159.66 772.88,-146.24 792.49,-136.25"/>
<polygon fill="midnightblue" stroke="midnightblue" points="794.19,-139.31 801.51,-131.65 791.01,-133.08 794.19,-139.31"/>
</g>
<!-- Node22 -->
<g id="node22" class="node">
<title>Node22</title>
<g id="a_node22"><a xlink:title=" ">
<polygon fill="none" stroke="#bfbfbf" points="690.5,-112.5 690.5,-131.5 776.5,-131.5 776.5,-112.5 690.5,-112.5"/>
<text text-anchor="middle" x="733.5" y="-119.5" font-family="FreeSans.ttf" font-size="10.00">unordered_set</text>
</a>
</g>
</g>
<!-- Node20&#45;&gt;Node22 -->
<g id="edge28" class="edge">
<title>Node20&#45;&gt;Node22</title>
<path fill="none" stroke="midnightblue" d="M715.97,-168.08C718.81,-160.77 722.93,-150.18 726.46,-141.1"/>
<polygon fill="midnightblue" stroke="midnightblue" points="729.73,-142.34 730.1,-131.75 723.21,-139.8 729.73,-142.34"/>
</g>
</g>
</svg>
