<?xml version="1.0" encoding="UTF-8" standalone="no"?>
<!DOCTYPE svg PUBLIC "-//W3C//DTD SVG 1.1//EN"
 "http://www.w3.org/Graphics/SVG/1.1/DTD/svg11.dtd">
<!-- Generated by graphviz version 2.43.0 (0)
 -->
<!-- Title: RotationalInertiaRaw.cpp Pages: 1 -->
<svg width="740pt" height="319pt"
 viewBox="0.00 0.00 740.00 319.00" xmlns="http://www.w3.org/2000/svg" xmlns:xlink="http://www.w3.org/1999/xlink">
<g id="graph0" class="graph" transform="scale(1 1) rotate(0) translate(4 315)">
<title>RotationalInertiaRaw.cpp</title>
<!-- Node1 -->
<g id="node1" class="node">
<title>Node1</title>
<g id="a_node1"><a xlink:title=" ">
<polygon fill="#bfbfbf" stroke="black" points="376.5,-291.5 376.5,-310.5 515.5,-310.5 515.5,-291.5 376.5,-291.5"/>
<text text-anchor="middle" x="446" y="-298.5" font-family="FreeSans.ttf" font-size="10.00">RotationalInertiaRaw.cpp</text>
</a>
</g>
</g>
<!-- Node2 -->
<g id="node2" class="node">
<title>Node2</title>
<g id="a_node2"><a xlink:href="RotationalInertiaRaw_8h.html" target="_top" xlink:title=" ">
<polygon fill="none" stroke="black" points="254,-224.5 254,-254.5 392,-254.5 392,-224.5 254,-224.5"/>
<text text-anchor="start" x="262" y="-242.5" font-family="FreeSans.ttf" font-size="10.00">iDynTree/Core/Rotational</text>
<text text-anchor="middle" x="323" y="-231.5" font-family="FreeSans.ttf" font-size="10.00">InertiaRaw.h</text>
</a>
</g>
</g>
<!-- Node1&#45;&gt;Node2 -->
<g id="edge1" class="edge">
<title>Node1&#45;&gt;Node2</title>
<path fill="none" stroke="midnightblue" d="M428.38,-291.48C410.94,-283.04 383.68,-269.86 361.26,-259.01"/>
<polygon fill="midnightblue" stroke="midnightblue" points="362.51,-255.73 351.99,-254.52 359.47,-262.03 362.51,-255.73"/>
</g>
<!-- Node4 -->
<g id="node4" class="node">
<title>Node4</title>
<g id="a_node4"><a xlink:href="Utils_8h.html" target="_top" xlink:title=" ">
<polygon fill="none" stroke="black" points="532.5,-56.5 532.5,-75.5 651.5,-75.5 651.5,-56.5 532.5,-56.5"/>
<text text-anchor="middle" x="592" y="-63.5" font-family="FreeSans.ttf" font-size="10.00">iDynTree/Core/Utils.h</text>
</a>
</g>
</g>
<!-- Node1&#45;&gt;Node4 -->
<g id="edge25" class="edge">
<title>Node1&#45;&gt;Node4</title>
<path fill="none" stroke="midnightblue" d="M455.87,-291.2C465.39,-282.48 479.93,-268.5 491,-255 532.65,-204.19 545.24,-191.55 573,-132 579.99,-117.01 585.03,-98.88 588.16,-85.58"/>
<polygon fill="midnightblue" stroke="midnightblue" points="591.6,-86.23 590.33,-75.71 584.76,-84.72 591.6,-86.23"/>
</g>
<!-- Node8 -->
<g id="node8" class="node">
<title>Node8</title>
<g id="a_node8"><a xlink:title=" ">
<polygon fill="none" stroke="#bfbfbf" points="0,-0.5 0,-19.5 52,-19.5 52,-0.5 0,-0.5"/>
<text text-anchor="middle" x="26" y="-7.5" font-family="FreeSans.ttf" font-size="10.00">cassert</text>
</a>
</g>
</g>
<!-- Node1&#45;&gt;Node8 -->
<g id="edge28" class="edge">
<title>Node1&#45;&gt;Node8</title>
<path fill="none" stroke="midnightblue" d="M376.17,-294.35C256.75,-282.74 26,-250.99 26,-179 26,-179 26,-179 26,-121 26,-88.95 26,-51.64 26,-29.75"/>
<polygon fill="midnightblue" stroke="midnightblue" points="29.5,-29.56 26,-19.56 22.5,-29.56 29.5,-29.56"/>
</g>
<!-- Node17 -->
<g id="node17" class="node">
<title>Node17</title>
<g id="a_node17"><a xlink:title=" ">
<polygon fill="none" stroke="#bfbfbf" points="362,-112.5 362,-131.5 412,-131.5 412,-112.5 362,-112.5"/>
<text text-anchor="middle" x="387" y="-119.5" font-family="FreeSans.ttf" font-size="10.00">cstring</text>
</a>
</g>
</g>
<!-- Node1&#45;&gt;Node17 -->
<g id="edge29" class="edge">
<title>Node1&#45;&gt;Node17</title>
<path fill="none" stroke="midnightblue" d="M443.83,-291.22C438.46,-269.85 423.76,-213.52 407,-168 403.68,-158.97 399.41,-149.19 395.68,-141.06"/>
<polygon fill="midnightblue" stroke="midnightblue" points="398.76,-139.38 391.33,-131.82 392.42,-142.36 398.76,-139.38"/>
</g>
<!-- Node19 -->
<g id="node19" class="node">
<title>Node19</title>
<g id="a_node19"><a xlink:title=" ">
<polygon fill="none" stroke="#bfbfbf" points="430,-112.5 430,-131.5 490,-131.5 490,-112.5 430,-112.5"/>
<text text-anchor="middle" x="460" y="-119.5" font-family="FreeSans.ttf" font-size="10.00">iostream</text>
</a>
</g>
</g>
<!-- Node1&#45;&gt;Node19 -->
<g id="edge26" class="edge">
<title>Node1&#45;&gt;Node19</title>
<path fill="none" stroke="midnightblue" d="M446.68,-291.46C448.81,-264.43 455.47,-180.24 458.49,-142.11"/>
<polygon fill="midnightblue" stroke="midnightblue" points="462,-142.11 459.3,-131.87 455.02,-141.56 462,-142.11"/>
</g>
<!-- Node20 -->
<g id="node20" class="node">
<title>Node20</title>
<g id="a_node20"><a xlink:title=" ">
<polygon fill="none" stroke="#bfbfbf" points="508,-112.5 508,-131.5 564,-131.5 564,-112.5 508,-112.5"/>
<text text-anchor="middle" x="536" y="-119.5" font-family="FreeSans.ttf" font-size="10.00">sstream</text>
</a>
</g>
</g>
<!-- Node1&#45;&gt;Node20 -->
<g id="edge27" class="edge">
<title>Node1&#45;&gt;Node20</title>
<path fill="none" stroke="midnightblue" d="M450.34,-291.46C464.21,-264.19 507.64,-178.78 526.78,-141.13"/>
<polygon fill="midnightblue" stroke="midnightblue" points="530.08,-142.37 531.49,-131.87 523.84,-139.2 530.08,-142.37"/>
</g>
<!-- Node3 -->
<g id="node3" class="node">
<title>Node3</title>
<g id="a_node3"><a xlink:href="MatrixFixSize_8h.html" target="_top" xlink:title=" ">
<polygon fill="none" stroke="black" points="235.5,-168.5 235.5,-187.5 398.5,-187.5 398.5,-168.5 235.5,-168.5"/>
<text text-anchor="middle" x="317" y="-175.5" font-family="FreeSans.ttf" font-size="10.00">iDynTree/Core/MatrixFixSize.h</text>
</a>
</g>
</g>
<!-- Node2&#45;&gt;Node3 -->
<g id="edge2" class="edge">
<title>Node2&#45;&gt;Node3</title>
<path fill="none" stroke="midnightblue" d="M321.58,-224.4C320.78,-216.47 319.77,-206.46 318.9,-197.86"/>
<polygon fill="midnightblue" stroke="midnightblue" points="322.36,-197.26 317.87,-187.66 315.39,-197.96 322.36,-197.26"/>
</g>
<!-- Node3&#45;&gt;Node4 -->
<g id="edge3" class="edge">
<title>Node3&#45;&gt;Node4</title>
<path fill="none" stroke="midnightblue" d="M308.52,-168.49C296.22,-155.11 276.4,-128.94 291,-112 320.21,-78.1 442.56,-69.36 521.99,-67.33"/>
<polygon fill="midnightblue" stroke="midnightblue" points="522.5,-70.81 532.42,-67.09 522.34,-63.82 522.5,-70.81"/>
</g>
<!-- Node7 -->
<g id="node7" class="node">
<title>Node7</title>
<g id="a_node7"><a xlink:href="MatrixView_8h.html" target="_top" xlink:title=" ">
<polygon fill="none" stroke="black" points="92,-112.5 92,-131.5 244,-131.5 244,-112.5 92,-112.5"/>
<text text-anchor="middle" x="168" y="-119.5" font-family="FreeSans.ttf" font-size="10.00">iDynTree/Core/MatrixView.h</text>
</a>
</g>
</g>
<!-- Node3&#45;&gt;Node7 -->
<g id="edge6" class="edge">
<title>Node3&#45;&gt;Node7</title>
<path fill="none" stroke="midnightblue" d="M293.39,-168.44C268.54,-159.44 229.23,-145.19 201.25,-135.05"/>
<polygon fill="midnightblue" stroke="midnightblue" points="202.09,-131.63 191.5,-131.52 199.71,-138.21 202.09,-131.63"/>
</g>
<!-- Node3&#45;&gt;Node8 -->
<g id="edge20" class="edge">
<title>Node3&#45;&gt;Node8</title>
<path fill="none" stroke="midnightblue" d="M235.33,-169.19C177.62,-162.22 106.53,-150.27 83,-132 65.77,-118.62 43.12,-59.68 32.29,-29.28"/>
<polygon fill="midnightblue" stroke="midnightblue" points="35.48,-27.79 28.87,-19.51 28.87,-30.1 35.48,-27.79"/>
</g>
<!-- Node3&#45;&gt;Node17 -->
<g id="edge21" class="edge">
<title>Node3&#45;&gt;Node17</title>
<path fill="none" stroke="midnightblue" d="M328.25,-168.32C338.8,-160.18 354.8,-147.84 367.44,-138.09"/>
<polygon fill="midnightblue" stroke="midnightblue" points="369.77,-140.71 375.55,-131.83 365.49,-135.17 369.77,-140.71"/>
</g>
<!-- Node18 -->
<g id="node18" class="node">
<title>Node18</title>
<g id="a_node18"><a xlink:title=" ">
<polygon fill="none" stroke="#bfbfbf" points="300,-112.5 300,-131.5 344,-131.5 344,-112.5 300,-112.5"/>
<text text-anchor="middle" x="322" y="-119.5" font-family="FreeSans.ttf" font-size="10.00">string</text>
</a>
</g>
</g>
<!-- Node3&#45;&gt;Node18 -->
<g id="edge22" class="edge">
<title>Node3&#45;&gt;Node18</title>
<path fill="none" stroke="midnightblue" d="M317.83,-168.08C318.48,-161.01 319.42,-150.86 320.24,-141.99"/>
<polygon fill="midnightblue" stroke="midnightblue" points="323.75,-142.03 321.19,-131.75 316.78,-141.39 323.75,-142.03"/>
</g>
<!-- Node3&#45;&gt;Node19 -->
<g id="edge23" class="edge">
<title>Node3&#45;&gt;Node19</title>
<path fill="none" stroke="midnightblue" d="M339.66,-168.44C363.4,-159.48 400.91,-145.31 427.74,-135.18"/>
<polygon fill="midnightblue" stroke="midnightblue" points="429.33,-138.32 437.45,-131.52 426.86,-131.77 429.33,-138.32"/>
</g>
<!-- Node3&#45;&gt;Node20 -->
<g id="edge24" class="edge">
<title>Node3&#45;&gt;Node20</title>
<path fill="none" stroke="midnightblue" d="M351.7,-168.44C391.51,-158.63 456.57,-142.59 497.79,-132.42"/>
<polygon fill="midnightblue" stroke="midnightblue" points="498.86,-135.76 507.73,-129.97 497.18,-128.97 498.86,-135.76"/>
</g>
<!-- Node5 -->
<g id="node5" class="node">
<title>Node5</title>
<g id="a_node5"><a xlink:title=" ">
<polygon fill="none" stroke="#bfbfbf" points="580.5,-0.5 580.5,-19.5 633.5,-19.5 633.5,-0.5 580.5,-0.5"/>
<text text-anchor="middle" x="607" y="-7.5" font-family="FreeSans.ttf" font-size="10.00">cstddef</text>
</a>
</g>
</g>
<!-- Node4&#45;&gt;Node5 -->
<g id="edge4" class="edge">
<title>Node4&#45;&gt;Node5</title>
<path fill="none" stroke="midnightblue" d="M594.48,-56.08C596.49,-48.85 599.39,-38.41 601.89,-29.4"/>
<polygon fill="midnightblue" stroke="midnightblue" points="605.26,-30.32 604.57,-19.75 598.52,-28.45 605.26,-30.32"/>
</g>
<!-- Node6 -->
<g id="node6" class="node">
<title>Node6</title>
<g id="a_node6"><a xlink:title=" ">
<polygon fill="none" stroke="#bfbfbf" points="652,-0.5 652,-19.5 732,-19.5 732,-0.5 652,-0.5"/>
<text text-anchor="middle" x="692" y="-7.5" font-family="FreeSans.ttf" font-size="10.00">CoreExport.h</text>
</a>
</g>
</g>
<!-- Node4&#45;&gt;Node6 -->
<g id="edge5" class="edge">
<title>Node4&#45;&gt;Node6</title>
<path fill="none" stroke="midnightblue" d="M608.07,-56.32C623.96,-47.74 648.51,-34.49 666.96,-24.52"/>
<polygon fill="midnightblue" stroke="midnightblue" points="668.84,-27.49 675.97,-19.65 665.51,-21.33 668.84,-27.49"/>
</g>
<!-- Node7&#45;&gt;Node4 -->
<g id="edge19" class="edge">
<title>Node7&#45;&gt;Node4</title>
<path fill="none" stroke="midnightblue" d="M235.18,-112.44C313.67,-102.45 442.89,-85.99 522.4,-75.86"/>
<polygon fill="midnightblue" stroke="midnightblue" points="522.84,-79.34 532.32,-74.6 521.96,-72.39 522.84,-79.34"/>
</g>
<!-- Node7&#45;&gt;Node8 -->
<g id="edge7" class="edge">
<title>Node7&#45;&gt;Node8</title>
<path fill="none" stroke="midnightblue" d="M156.86,-112.37C132.7,-93.65 75.25,-49.15 45.15,-25.83"/>
<polygon fill="midnightblue" stroke="midnightblue" points="47.14,-22.95 37.09,-19.59 42.85,-28.48 47.14,-22.95"/>
</g>
<!-- Node9 -->
<g id="node9" class="node">
<title>Node9</title>
<g id="a_node9"><a xlink:title=" ">
<polygon fill="none" stroke="#bfbfbf" points="70.5,-0.5 70.5,-19.5 139.5,-19.5 139.5,-0.5 70.5,-0.5"/>
<text text-anchor="middle" x="105" y="-7.5" font-family="FreeSans.ttf" font-size="10.00">type_traits</text>
</a>
</g>
</g>
<!-- Node7&#45;&gt;Node9 -->
<g id="edge8" class="edge">
<title>Node7&#45;&gt;Node9</title>
<path fill="none" stroke="midnightblue" d="M163.06,-112.37C152.71,-94.3 128.58,-52.18 114.91,-28.31"/>
<polygon fill="midnightblue" stroke="midnightblue" points="117.93,-26.53 109.92,-19.59 111.85,-30.01 117.93,-26.53"/>
</g>
<!-- Node10 -->
<g id="node10" class="node">
<title>Node10</title>
<g id="a_node10"><a xlink:href="Span_8h.html" target="_top" xlink:title=" ">
<polygon fill="none" stroke="black" points="195.5,-56.5 195.5,-75.5 316.5,-75.5 316.5,-56.5 195.5,-56.5"/>
<text text-anchor="middle" x="256" y="-63.5" font-family="FreeSans.ttf" font-size="10.00">iDynTree/Core/Span.h</text>
</a>
</g>
</g>
<!-- Node7&#45;&gt;Node10 -->
<g id="edge9" class="edge">
<title>Node7&#45;&gt;Node10</title>
<path fill="none" stroke="midnightblue" d="M182.14,-112.32C195.87,-103.9 216.94,-90.97 233.06,-81.07"/>
<polygon fill="midnightblue" stroke="midnightblue" points="235.2,-83.87 241.9,-75.65 231.54,-77.9 235.2,-83.87"/>
</g>
<!-- Node10&#45;&gt;Node5 -->
<g id="edge13" class="edge">
<title>Node10&#45;&gt;Node5</title>
<path fill="none" stroke="midnightblue" d="M316.7,-58.21C378.19,-50.91 476.19,-38.12 570.35,-19.94"/>
<polygon fill="midnightblue" stroke="midnightblue" points="571.19,-23.34 580.33,-17.99 569.85,-16.47 571.19,-23.34"/>
</g>
<!-- Node10&#45;&gt;Node8 -->
<g id="edge10" class="edge">
<title>Node10&#45;&gt;Node8</title>
<path fill="none" stroke="midnightblue" d="M217.82,-56.48C180.54,-48.1 121.94,-34.76 62.32,-20.28"/>
<polygon fill="midnightblue" stroke="midnightblue" points="62.9,-16.82 52.36,-17.85 61.24,-23.62 62.9,-16.82"/>
</g>
<!-- Node10&#45;&gt;Node9 -->
<g id="edge17" class="edge">
<title>Node10&#45;&gt;Node9</title>
<path fill="none" stroke="midnightblue" d="M232.07,-56.44C206.78,-47.4 166.7,-33.06 138.32,-22.92"/>
<polygon fill="midnightblue" stroke="midnightblue" points="139.41,-19.59 128.81,-19.52 137.05,-26.18 139.41,-19.59"/>
</g>
<!-- Node11 -->
<g id="node11" class="node">
<title>Node11</title>
<g id="a_node11"><a xlink:title=" ">
<polygon fill="none" stroke="#bfbfbf" points="438,-0.5 438,-19.5 502,-19.5 502,-0.5 438,-0.5"/>
<text text-anchor="middle" x="470" y="-7.5" font-family="FreeSans.ttf" font-size="10.00">algorithm</text>
</a>
</g>
</g>
<!-- Node10&#45;&gt;Node11 -->
<g id="edge11" class="edge">
<title>Node10&#45;&gt;Node11</title>
<path fill="none" stroke="midnightblue" d="M289.91,-56.44C327.39,-46.99 387.8,-31.74 428.19,-21.55"/>
<polygon fill="midnightblue" stroke="midnightblue" points="429.16,-24.92 438,-19.08 427.44,-18.13 429.16,-24.92"/>
</g>
<!-- Node12 -->
<g id="node12" class="node">
<title>Node12</title>
<g id="a_node12"><a xlink:title=" ">
<polygon fill="none" stroke="#bfbfbf" points="520,-0.5 520,-19.5 562,-19.5 562,-0.5 520,-0.5"/>
<text text-anchor="middle" x="541" y="-7.5" font-family="FreeSans.ttf" font-size="10.00">array</text>
</a>
</g>
</g>
<!-- Node10&#45;&gt;Node12 -->
<g id="edge12" class="edge">
<title>Node10&#45;&gt;Node12</title>
<path fill="none" stroke="midnightblue" d="M315.66,-56.49C365.26,-48.96 437.85,-36.88 509.65,-20.1"/>
<polygon fill="midnightblue" stroke="midnightblue" points="510.85,-23.41 519.78,-17.7 509.24,-16.6 510.85,-23.41"/>
</g>
<!-- Node13 -->
<g id="node13" class="node">
<title>Node13</title>
<g id="a_node13"><a xlink:title=" ">
<polygon fill="none" stroke="#bfbfbf" points="157.5,-0.5 157.5,-19.5 210.5,-19.5 210.5,-0.5 157.5,-0.5"/>
<text text-anchor="middle" x="184" y="-7.5" font-family="FreeSans.ttf" font-size="10.00">iterator</text>
</a>
</g>
</g>
<!-- Node10&#45;&gt;Node13 -->
<g id="edge14" class="edge">
<title>Node10&#45;&gt;Node13</title>
<path fill="none" stroke="midnightblue" d="M244.43,-56.32C233.58,-48.18 217.12,-35.84 204.12,-26.09"/>
<polygon fill="midnightblue" stroke="midnightblue" points="205.88,-23.03 195.78,-19.83 201.68,-28.63 205.88,-23.03"/>
</g>
<!-- Node14 -->
<g id="node14" class="node">
<title>Node14</title>
<g id="a_node14"><a xlink:title=" ">
<polygon fill="none" stroke="#bfbfbf" points="229,-0.5 229,-19.5 273,-19.5 273,-0.5 229,-0.5"/>
<text text-anchor="middle" x="251" y="-7.5" font-family="FreeSans.ttf" font-size="10.00">limits</text>
</a>
</g>
</g>
<!-- Node10&#45;&gt;Node14 -->
<g id="edge15" class="edge">
<title>Node10&#45;&gt;Node14</title>
<path fill="none" stroke="midnightblue" d="M255.17,-56.08C254.52,-49.01 253.58,-38.86 252.76,-29.99"/>
<polygon fill="midnightblue" stroke="midnightblue" points="256.22,-29.39 251.81,-19.75 249.25,-30.03 256.22,-29.39"/>
</g>
<!-- Node15 -->
<g id="node15" class="node">
<title>Node15</title>
<g id="a_node15"><a xlink:title=" ">
<polygon fill="none" stroke="#bfbfbf" points="291.5,-0.5 291.5,-19.5 356.5,-19.5 356.5,-0.5 291.5,-0.5"/>
<text text-anchor="middle" x="324" y="-7.5" font-family="FreeSans.ttf" font-size="10.00">stdexcept</text>
</a>
</g>
</g>
<!-- Node10&#45;&gt;Node15 -->
<g id="edge16" class="edge">
<title>Node10&#45;&gt;Node15</title>
<path fill="none" stroke="midnightblue" d="M266.93,-56.32C277.17,-48.18 292.72,-35.84 305,-26.09"/>
<polygon fill="midnightblue" stroke="midnightblue" points="307.22,-28.79 312.88,-19.83 302.87,-23.31 307.22,-28.79"/>
</g>
<!-- Node16 -->
<g id="node16" class="node">
<title>Node16</title>
<g id="a_node16"><a xlink:title=" ">
<polygon fill="none" stroke="#bfbfbf" points="374.5,-0.5 374.5,-19.5 419.5,-19.5 419.5,-0.5 374.5,-0.5"/>
<text text-anchor="middle" x="397" y="-7.5" font-family="FreeSans.ttf" font-size="10.00">utility</text>
</a>
</g>
</g>
<!-- Node10&#45;&gt;Node16 -->
<g id="edge18" class="edge">
<title>Node10&#45;&gt;Node16</title>
<path fill="none" stroke="midnightblue" d="M278.34,-56.44C301.75,-47.48 338.74,-33.31 365.19,-23.18"/>
<polygon fill="midnightblue" stroke="midnightblue" points="366.68,-26.36 374.76,-19.52 364.17,-19.82 366.68,-26.36"/>
</g>
</g>
</svg>
