<?xml version="1.0" encoding="UTF-8" standalone="no"?>
<!DOCTYPE svg PUBLIC "-//W3C//DTD SVG 1.1//EN"
 "http://www.w3.org/Graphics/SVG/1.1/DTD/svg11.dtd">
<!-- Generated by graphviz version 2.43.0 (0)
 -->
<!-- Title: RotationalInertiaRaw.h Pages: 1 -->
<svg width="4637pt" height="397pt"
 viewBox="0.00 0.00 4637.00 397.00" xmlns="http://www.w3.org/2000/svg" xmlns:xlink="http://www.w3.org/1999/xlink">
<g id="graph0" class="graph" transform="scale(1 1) rotate(0) translate(4 393)">
<title>RotationalInertiaRaw.h</title>
<!-- Node1 -->
<g id="node1" class="node">
<title>Node1</title>
<g id="a_node1"><a xlink:title=" ">
<polygon fill="#bfbfbf" stroke="black" points="883,-369.5 883,-388.5 1011,-388.5 1011,-369.5 883,-369.5"/>
<text text-anchor="middle" x="947" y="-376.5" font-family="FreeSans.ttf" font-size="10.00">RotationalInertiaRaw.h</text>
</a>
</g>
</g>
<!-- Node2 -->
<g id="node2" class="node">
<title>Node2</title>
<g id="a_node2"><a xlink:href="SpatialInertiaRaw_8h.html" target="_top" xlink:title=" ">
<polygon fill="none" stroke="black" points="715.5,-313.5 715.5,-332.5 826.5,-332.5 826.5,-313.5 715.5,-313.5"/>
<text text-anchor="middle" x="771" y="-320.5" font-family="FreeSans.ttf" font-size="10.00">SpatialInertiaRaw.h</text>
</a>
</g>
</g>
<!-- Node1&#45;&gt;Node2 -->
<g id="edge1" class="edge">
<title>Node1&#45;&gt;Node2</title>
<path fill="none" stroke="midnightblue" d="M909.31,-366.44C876.13,-356.26 828.57,-341.66 798.76,-332.52"/>
<polygon fill="midnightblue" stroke="midnightblue" points="908.53,-369.86 919.11,-369.44 910.58,-363.16 908.53,-369.86"/>
</g>
<!-- Node101 -->
<g id="node48" class="node">
<title>Node101</title>
<g id="a_node48"><a xlink:href="Rotation_8cpp.html" target="_top" xlink:title=" ">
<polygon fill="none" stroke="black" points="845,-313.5 845,-332.5 923,-332.5 923,-313.5 845,-313.5"/>
<text text-anchor="middle" x="884" y="-320.5" font-family="FreeSans.ttf" font-size="10.00">Rotation.cpp</text>
</a>
</g>
</g>
<!-- Node1&#45;&gt;Node101 -->
<g id="edge54" class="edge">
<title>Node1&#45;&gt;Node101</title>
<path fill="none" stroke="midnightblue" d="M928.96,-362.54C917.73,-352.91 903.68,-340.87 894.31,-332.83"/>
<polygon fill="midnightblue" stroke="midnightblue" points="927.01,-365.47 936.88,-369.32 931.56,-360.16 927.01,-365.47"/>
</g>
<!-- Node102 -->
<g id="node49" class="node">
<title>Node102</title>
<g id="a_node49"><a xlink:href="RotationalInertiaRaw_8cpp.html" target="_top" xlink:title=" ">
<polygon fill="none" stroke="black" points="941.5,-313.5 941.5,-332.5 1080.5,-332.5 1080.5,-313.5 941.5,-313.5"/>
<text text-anchor="middle" x="1011" y="-320.5" font-family="FreeSans.ttf" font-size="10.00">RotationalInertiaRaw.cpp</text>
</a>
</g>
</g>
<!-- Node1&#45;&gt;Node102 -->
<g id="edge55" class="edge">
<title>Node1&#45;&gt;Node102</title>
<path fill="none" stroke="midnightblue" d="M964.99,-362.82C976.46,-353.15 990.91,-340.95 1000.53,-332.83"/>
<polygon fill="midnightblue" stroke="midnightblue" points="962.67,-360.2 957.28,-369.32 967.18,-365.55 962.67,-360.2"/>
</g>
<!-- Node103 -->
<g id="node50" class="node">
<title>Node103</title>
<g id="a_node50"><a xlink:href="RotationRaw_8cpp.html" target="_top" xlink:title=" ">
<polygon fill="none" stroke="black" points="1099,-313.5 1099,-332.5 1197,-332.5 1197,-313.5 1099,-313.5"/>
<text text-anchor="middle" x="1148" y="-320.5" font-family="FreeSans.ttf" font-size="10.00">RotationRaw.cpp</text>
</a>
</g>
</g>
<!-- Node1&#45;&gt;Node103 -->
<g id="edge56" class="edge">
<title>Node1&#45;&gt;Node103</title>
<path fill="none" stroke="midnightblue" d="M988.58,-366.83C1026.53,-356.63 1081.81,-341.78 1116.3,-332.52"/>
<polygon fill="midnightblue" stroke="midnightblue" points="987.6,-363.47 978.85,-369.44 989.41,-370.23 987.6,-363.47"/>
</g>
<!-- Node3 -->
<g id="node3" class="node">
<title>Node3</title>
<g id="a_node3"><a xlink:href="SpatialInertia_8h.html" target="_top" xlink:title=" ">
<polygon fill="none" stroke="black" points="663.5,-257.5 663.5,-276.5 754.5,-276.5 754.5,-257.5 663.5,-257.5"/>
<text text-anchor="middle" x="709" y="-264.5" font-family="FreeSans.ttf" font-size="10.00">SpatialInertia.h</text>
</a>
</g>
</g>
<!-- Node2&#45;&gt;Node3 -->
<g id="edge2" class="edge">
<title>Node2&#45;&gt;Node3</title>
<path fill="none" stroke="midnightblue" d="M753.25,-306.54C742.19,-296.91 728.37,-284.87 719.14,-276.83"/>
<polygon fill="midnightblue" stroke="midnightblue" points="751.2,-309.4 761.04,-313.32 755.8,-304.12 751.2,-309.4"/>
</g>
<!-- Node100 -->
<g id="node47" class="node">
<title>Node100</title>
<g id="a_node47"><a xlink:href="SpatialInertiaRaw_8cpp.html" target="_top" xlink:title=" ">
<polygon fill="none" stroke="black" points="773,-257.5 773,-276.5 895,-276.5 895,-257.5 773,-257.5"/>
<text text-anchor="middle" x="834" y="-264.5" font-family="FreeSans.ttf" font-size="10.00">SpatialInertiaRaw.cpp</text>
</a>
</g>
</g>
<!-- Node2&#45;&gt;Node100 -->
<g id="edge53" class="edge">
<title>Node2&#45;&gt;Node100</title>
<path fill="none" stroke="midnightblue" d="M789.04,-306.54C800.27,-296.91 814.32,-284.87 823.69,-276.83"/>
<polygon fill="midnightblue" stroke="midnightblue" points="786.44,-304.16 781.12,-313.32 790.99,-309.47 786.44,-304.16"/>
</g>
<!-- Node4 -->
<g id="node4" class="node">
<title>Node4</title>
<g id="a_node4"><a xlink:href="ArticulatedBodyInertia_8cpp.html" target="_top" xlink:title=" ">
<polygon fill="none" stroke="black" points="0,-196 0,-215 146,-215 146,-196 0,-196"/>
<text text-anchor="middle" x="73" y="-203" font-family="FreeSans.ttf" font-size="10.00">ArticulatedBodyInertia.cpp</text>
</a>
</g>
</g>
<!-- Node3&#45;&gt;Node4 -->
<g id="edge3" class="edge">
<title>Node3&#45;&gt;Node4</title>
<path fill="none" stroke="midnightblue" d="M653.05,-263.2C552.88,-257.79 336.41,-244.35 155,-221 142.53,-219.39 129.06,-217.2 116.72,-215.01"/>
<polygon fill="midnightblue" stroke="midnightblue" points="653.07,-266.7 663.25,-263.74 653.45,-259.71 653.07,-266.7"/>
</g>
<!-- Node5 -->
<g id="node5" class="node">
<title>Node5</title>
<g id="a_node5"><a xlink:href="InertiaNonLinearParametrization_8cpp.html" target="_top" xlink:title=" ">
<polygon fill="none" stroke="black" points="164.5,-196 164.5,-215 359.5,-215 359.5,-196 164.5,-196"/>
<text text-anchor="middle" x="262" y="-203" font-family="FreeSans.ttf" font-size="10.00">InertiaNonLinearParametrization.cpp</text>
</a>
</g>
</g>
<!-- Node3&#45;&gt;Node5 -->
<g id="edge4" class="edge">
<title>Node3&#45;&gt;Node5</title>
<path fill="none" stroke="midnightblue" d="M653.5,-258.76C586,-249.93 468.62,-234.52 368,-221 353.73,-219.08 338.39,-217 323.93,-215.02"/>
<polygon fill="midnightblue" stroke="midnightblue" points="653.12,-262.24 663.49,-260.06 654.02,-255.3 653.12,-262.24"/>
</g>
<!-- Node6 -->
<g id="node6" class="node">
<title>Node6</title>
<g id="a_node6"><a xlink:href="SpatialInertia_8cpp.html" target="_top" xlink:title=" ">
<polygon fill="none" stroke="black" points="377,-196 377,-215 479,-215 479,-196 377,-196"/>
<text text-anchor="middle" x="428" y="-203" font-family="FreeSans.ttf" font-size="10.00">SpatialInertia.cpp</text>
</a>
</g>
</g>
<!-- Node3&#45;&gt;Node6 -->
<g id="edge5" class="edge">
<title>Node3&#45;&gt;Node6</title>
<path fill="none" stroke="midnightblue" d="M654.37,-255.45C609.57,-246.66 544.56,-233.59 488,-221 479.74,-219.16 470.86,-217.08 462.53,-215.07"/>
<polygon fill="midnightblue" stroke="midnightblue" points="653.97,-258.94 664.45,-257.42 655.31,-252.07 653.97,-258.94"/>
</g>
<!-- Node7 -->
<g id="node7" class="node">
<title>Node7</title>
<g id="a_node7"><a xlink:href="TestUtils_8cpp.html" target="_top" xlink:title=" ">
<polygon fill="none" stroke="black" points="497.5,-196 497.5,-215 576.5,-215 576.5,-196 497.5,-196"/>
<text text-anchor="middle" x="537" y="-203" font-family="FreeSans.ttf" font-size="10.00">TestUtils.cpp</text>
</a>
</g>
</g>
<!-- Node3&#45;&gt;Node7 -->
<g id="edge6" class="edge">
<title>Node3&#45;&gt;Node7</title>
<path fill="none" stroke="midnightblue" d="M674.55,-254.08C641.12,-242.52 591.21,-225.25 561.6,-215.01"/>
<polygon fill="midnightblue" stroke="midnightblue" points="673.76,-257.51 684.36,-257.48 676.05,-250.9 673.76,-257.51"/>
</g>
<!-- Node8 -->
<g id="node8" class="node">
<title>Node8</title>
<g id="a_node8"><a xlink:href="Transform_8cpp.html" target="_top" xlink:title=" ">
<polygon fill="none" stroke="black" points="595,-196 595,-215 681,-215 681,-196 595,-196"/>
<text text-anchor="middle" x="638" y="-203" font-family="FreeSans.ttf" font-size="10.00">Transform.cpp</text>
</a>
</g>
</g>
<!-- Node3&#45;&gt;Node8 -->
<g id="edge7" class="edge">
<title>Node3&#45;&gt;Node8</title>
<path fill="none" stroke="midnightblue" d="M691.07,-250.97C677.49,-239.59 659.32,-224.37 648.15,-215.01"/>
<polygon fill="midnightblue" stroke="midnightblue" points="688.91,-253.73 698.83,-257.48 693.41,-248.37 688.91,-253.73"/>
</g>
<!-- Node9 -->
<g id="node9" class="node">
<title>Node9</title>
<g id="a_node9"><a xlink:href="KinDynComputations_8cpp.html" target="_top" xlink:title=" ">
<polygon fill="none" stroke="black" points="736,-6 736,-25 876,-25 876,-6 736,-6"/>
<text text-anchor="middle" x="806" y="-13" font-family="FreeSans.ttf" font-size="10.00">KinDynComputations.cpp</text>
</a>
</g>
</g>
<!-- Node3&#45;&gt;Node9 -->
<g id="edge8" class="edge">
<title>Node3&#45;&gt;Node9</title>
<path fill="none" stroke="midnightblue" d="M704.92,-247.35C695.8,-203.72 676.03,-96.47 695,-67 709.38,-44.66 736.34,-32.08 760.09,-25.07"/>
<polygon fill="midnightblue" stroke="midnightblue" points="701.51,-248.15 707.02,-257.2 708.36,-246.69 701.51,-248.15"/>
</g>
<!-- Node10 -->
<g id="node10" class="node">
<title>Node10</title>
<g id="a_node10"><a xlink:href="DynamicsUtils_8h.html" target="_top" xlink:title=" ">
<polygon fill="none" stroke="black" points="2752.5,-196 2752.5,-215 2849.5,-215 2849.5,-196 2752.5,-196"/>
<text text-anchor="middle" x="2801" y="-203" font-family="FreeSans.ttf" font-size="10.00">DynamicsUtils.h</text>
</a>
</g>
</g>
<!-- Node3&#45;&gt;Node10 -->
<g id="edge9" class="edge">
<title>Node3&#45;&gt;Node10</title>
<path fill="none" stroke="midnightblue" d="M764.83,-257.12C1218.75,-218.3 2310.25,-278.27 2743,-221 2752.67,-219.72 2763.06,-217.42 2772.34,-215.03"/>
<polygon fill="midnightblue" stroke="midnightblue" points="764.21,-253.66 754.55,-258.03 764.82,-260.64 764.21,-253.66"/>
</g>
<!-- Node11 -->
<g id="node11" class="node">
<title>Node11</title>
<g id="a_node11"><a xlink:href="Link_8h.html" target="_top" xlink:title=" ">
<polygon fill="none" stroke="black" points="2688,-196 2688,-215 2734,-215 2734,-196 2688,-196"/>
<text text-anchor="middle" x="2711" y="-203" font-family="FreeSans.ttf" font-size="10.00">Link.h</text>
</a>
</g>
</g>
<!-- Node3&#45;&gt;Node11 -->
<g id="edge10" class="edge">
<title>Node3&#45;&gt;Node11</title>
<path fill="none" stroke="midnightblue" d="M764.69,-257.2C1017.34,-238.49 2468.76,-261.79 2674,-221 2680.36,-219.74 2687.04,-217.45 2692.94,-215.05"/>
<polygon fill="midnightblue" stroke="midnightblue" points="764.23,-253.72 754.55,-258.03 764.81,-260.7 764.23,-253.72"/>
</g>
<!-- Node32 -->
<g id="node24" class="node">
<title>Node32</title>
<g id="a_node24"><a xlink:href="Dynamics_8cpp.html" target="_top" xlink:title=" ">
<polygon fill="none" stroke="black" points="704,-73 704,-92 790,-92 790,-73 704,-73"/>
<text text-anchor="middle" x="747" y="-80" font-family="FreeSans.ttf" font-size="10.00">Dynamics.cpp</text>
</a>
</g>
</g>
<!-- Node3&#45;&gt;Node32 -->
<g id="edge50" class="edge">
<title>Node3&#45;&gt;Node32</title>
<path fill="none" stroke="midnightblue" d="M715.22,-247.9C717.86,-239.75 720.83,-229.96 723,-221 734.62,-172.95 742.96,-114.17 745.87,-92.27"/>
<polygon fill="midnightblue" stroke="midnightblue" points="711.87,-246.87 712.02,-257.47 718.51,-249.09 711.87,-246.87"/>
</g>
<!-- Node51 -->
<g id="node42" class="node">
<title>Node51</title>
<g id="a_node42"><a xlink:href="URDFModelExport_8cpp.html" target="_top" xlink:title=" ">
<polygon fill="none" stroke="black" points="4503,-73 4503,-92 4629,-92 4629,-73 4503,-73"/>
<text text-anchor="middle" x="4566" y="-80" font-family="FreeSans.ttf" font-size="10.00">URDFModelExport.cpp</text>
</a>
</g>
</g>
<!-- Node3&#45;&gt;Node51 -->
<g id="edge51" class="edge">
<title>Node3&#45;&gt;Node51</title>
<path fill="none" stroke="midnightblue" d="M764.64,-257.09C1195.78,-212.55 2240.92,-262.29 2641,-154 2659.8,-148.91 2661.11,-138.76 2680,-134 2875.48,-84.74 4293.61,-119.99 4494,-98 4505.91,-96.69 4518.79,-94.39 4530.31,-92"/>
<polygon fill="midnightblue" stroke="midnightblue" points="764.14,-253.62 754.57,-258.16 764.88,-260.58 764.14,-253.62"/>
</g>
<!-- Node86 -->
<g id="node46" class="node">
<title>Node86</title>
<g id="a_node46"><a xlink:href="InertialParametersSolidShapesHelpers_8cpp.html" target="_top" xlink:title=" ">
<polygon fill="none" stroke="black" points="2868,-190.5 2868,-220.5 3034,-220.5 3034,-190.5 2868,-190.5"/>
<text text-anchor="start" x="2876" y="-208.5" font-family="FreeSans.ttf" font-size="10.00">InertialParametersSolidShapes</text>
<text text-anchor="middle" x="2951" y="-197.5" font-family="FreeSans.ttf" font-size="10.00">Helpers.cpp</text>
</a>
</g>
</g>
<!-- Node3&#45;&gt;Node86 -->
<g id="edge52" class="edge">
<title>Node3&#45;&gt;Node86</title>
<path fill="none" stroke="midnightblue" d="M764.82,-257.1C1693.27,-174.52 1934.65,-301.39 2859,-221 2861.9,-220.75 2864.85,-220.46 2867.82,-220.14"/>
<polygon fill="midnightblue" stroke="midnightblue" points="764.2,-253.65 754.55,-258.02 764.83,-260.62 764.2,-253.65"/>
</g>
<!-- Node12 -->
<g id="node12" class="node">
<title>Node12</title>
<g id="a_node12"><a xlink:href="Model_8h.html" target="_top" xlink:title=" ">
<polygon fill="none" stroke="red" points="2576,-134.5 2576,-153.5 2632,-153.5 2632,-134.5 2576,-134.5"/>
<text text-anchor="middle" x="2604" y="-141.5" font-family="FreeSans.ttf" font-size="10.00">Model.h</text>
</a>
</g>
</g>
<!-- Node11&#45;&gt;Node12 -->
<g id="edge11" class="edge">
<title>Node11&#45;&gt;Node12</title>
<path fill="none" stroke="midnightblue" d="M2686.82,-191.06C2666.12,-179.54 2636.93,-163.31 2619.3,-153.51"/>
<polygon fill="midnightblue" stroke="midnightblue" points="2685.23,-194.17 2695.67,-195.98 2688.63,-188.06 2685.23,-194.17"/>
</g>
<!-- Node98 -->
<g id="node43" class="node">
<title>Node98</title>
<g id="a_node43"><a xlink:href="Link_8cpp.html" target="_top" xlink:title=" ">
<polygon fill="none" stroke="black" points="2688.5,-134.5 2688.5,-153.5 2745.5,-153.5 2745.5,-134.5 2688.5,-134.5"/>
<text text-anchor="middle" x="2717" y="-141.5" font-family="FreeSans.ttf" font-size="10.00">Link.cpp</text>
</a>
</g>
</g>
<!-- Node11&#45;&gt;Node98 -->
<g id="edge47" class="edge">
<title>Node11&#45;&gt;Node98</title>
<path fill="none" stroke="midnightblue" d="M2712.88,-185.82C2713.98,-175 2715.3,-161.9 2716.14,-153.51"/>
<polygon fill="midnightblue" stroke="midnightblue" points="2709.38,-185.67 2711.86,-195.98 2716.35,-186.38 2709.38,-185.67"/>
</g>
<!-- Node99 -->
<g id="node44" class="node">
<title>Node99</title>
<g id="a_node44"><a xlink:href="LinkElement_8h.html" target="_top" xlink:title=" ">
<polygon fill="none" stroke="red" points="2764,-134.5 2764,-153.5 2850,-153.5 2850,-134.5 2764,-134.5"/>
<text text-anchor="middle" x="2807" y="-141.5" font-family="FreeSans.ttf" font-size="10.00">LinkElement.h</text>
</a>
</g>
</g>
<!-- Node11&#45;&gt;Node99 -->
<g id="edge48" class="edge">
<title>Node11&#45;&gt;Node99</title>
<path fill="none" stroke="midnightblue" d="M2733.45,-190.59C2751.97,-179.1 2777.67,-163.18 2793.27,-153.51"/>
<polygon fill="midnightblue" stroke="midnightblue" points="2731.41,-187.73 2724.75,-195.98 2735.1,-193.68 2731.41,-187.73"/>
</g>
<!-- Node80 -->
<g id="node45" class="node">
<title>Node80</title>
<g id="a_node45"><a xlink:href="SixAxisForceTorqueSensor_8cpp.html" target="_top" xlink:title=" ">
<polygon fill="none" stroke="black" points="2868,-134.5 2868,-153.5 3032,-153.5 3032,-134.5 2868,-134.5"/>
<text text-anchor="middle" x="2950" y="-141.5" font-family="FreeSans.ttf" font-size="10.00">SixAxisForceTorqueSensor.cpp</text>
</a>
</g>
</g>
<!-- Node11&#45;&gt;Node80 -->
<g id="edge49" class="edge">
<title>Node11&#45;&gt;Node80</title>
<path fill="none" stroke="midnightblue" d="M2738.3,-192.01C2740.21,-191.29 2742.13,-190.61 2744,-190 2795,-173.41 2855.09,-161.07 2897.17,-153.55"/>
<polygon fill="midnightblue" stroke="midnightblue" points="2736.83,-188.83 2728.9,-195.86 2739.48,-195.31 2736.83,-188.83"/>
</g>
<!-- Node12&#45;&gt;Node9 -->
<g id="edge19" class="edge">
<title>Node12&#45;&gt;Node9</title>
<path fill="none" stroke="midnightblue" d="M2565.56,-142.61C2310.69,-139.96 873.51,-123.86 837,-98 812.79,-80.85 807.48,-42.19 806.32,-25.01"/>
<polygon fill="midnightblue" stroke="midnightblue" points="2565.77,-146.11 2575.8,-142.72 2565.84,-139.11 2565.77,-146.11"/>
</g>
<!-- Node13 -->
<g id="node13" class="node">
<title>Node13</title>
<g id="a_node13"><a xlink:href="ExtWrenchesAndJointTorquesEstimator_8h.html" target="_top" xlink:title=" ">
<polygon fill="none" stroke="black" points="990,-67.5 990,-97.5 1148,-97.5 1148,-67.5 990,-67.5"/>
<text text-anchor="start" x="998" y="-85.5" font-family="FreeSans.ttf" font-size="10.00">ExtWrenchesAndJointTorques</text>
<text text-anchor="middle" x="1069" y="-74.5" font-family="FreeSans.ttf" font-size="10.00">Estimator.h</text>
</a>
</g>
</g>
<!-- Node12&#45;&gt;Node13 -->
<g id="edge12" class="edge">
<title>Node12&#45;&gt;Node13</title>
<path fill="none" stroke="midnightblue" d="M2565.59,-142.49C2365.61,-139.75 1441.93,-125.78 1157,-98 1154.07,-97.71 1151.09,-97.39 1148.09,-97.04"/>
<polygon fill="midnightblue" stroke="midnightblue" points="2565.84,-146 2575.88,-142.63 2565.93,-139 2565.84,-146"/>
</g>
<!-- Node14 -->
<g id="node14" class="node">
<title>Node14</title>
<g id="a_node14"><a xlink:href="ExtWrenchesAndJointTorquesEstimator_8cpp.html" target="_top" xlink:title=" ">
<polygon fill="none" stroke="black" points="894,-0.5 894,-30.5 1052,-30.5 1052,-0.5 894,-0.5"/>
<text text-anchor="start" x="902" y="-18.5" font-family="FreeSans.ttf" font-size="10.00">ExtWrenchesAndJointTorques</text>
<text text-anchor="middle" x="973" y="-7.5" font-family="FreeSans.ttf" font-size="10.00">Estimator.cpp</text>
</a>
</g>
</g>
<!-- Node12&#45;&gt;Node14 -->
<g id="edge18" class="edge">
<title>Node12&#45;&gt;Node14</title>
<path fill="none" stroke="midnightblue" d="M2565.6,-142.63C2322.91,-140.22 1010.93,-125.91 981,-98 962.8,-81.03 965.75,-49.18 969.43,-30.72"/>
<polygon fill="midnightblue" stroke="midnightblue" points="2565.68,-146.13 2575.71,-142.73 2565.75,-139.13 2565.68,-146.13"/>
</g>
<!-- Node15 -->
<g id="node15" class="node">
<title>Node15</title>
<g id="a_node15"><a xlink:href="GravityCompensationHelpers_8h.html" target="_top" xlink:title=" ">
<polygon fill="none" stroke="red" points="1166,-73 1166,-92 1336,-92 1336,-73 1166,-73"/>
<text text-anchor="middle" x="1251" y="-80" font-family="FreeSans.ttf" font-size="10.00">GravityCompensationHelpers.h</text>
</a>
</g>
</g>
<!-- Node12&#45;&gt;Node15 -->
<g id="edge14" class="edge">
<title>Node12&#45;&gt;Node15</title>
<path fill="none" stroke="midnightblue" d="M2565.18,-143.27C2410.68,-143.99 1824.5,-143.39 1345,-98 1330.04,-96.58 1313.84,-94.34 1299.17,-92.04"/>
<polygon fill="midnightblue" stroke="midnightblue" points="2565.57,-146.77 2575.55,-143.22 2565.54,-139.77 2565.57,-146.77"/>
</g>
<!-- Node17 -->
<g id="node16" class="node">
<title>Node17</title>
<g id="a_node16"><a xlink:href="SimpleLeggedOdometry_8h.html" target="_top" xlink:title=" ">
<polygon fill="none" stroke="red" points="1354,-73 1354,-92 1496,-92 1496,-73 1354,-73"/>
<text text-anchor="middle" x="1425" y="-80" font-family="FreeSans.ttf" font-size="10.00">SimpleLeggedOdometry.h</text>
</a>
</g>
</g>
<!-- Node12&#45;&gt;Node17 -->
<g id="edge15" class="edge">
<title>Node12&#45;&gt;Node17</title>
<path fill="none" stroke="midnightblue" d="M2565.55,-143.35C2423.98,-144.21 1918.44,-143.71 1505,-98 1492.23,-96.59 1478.43,-94.35 1465.95,-92.05"/>
<polygon fill="midnightblue" stroke="midnightblue" points="2565.89,-146.84 2575.87,-143.28 2565.85,-139.84 2565.89,-146.84"/>
</g>
<!-- Node19 -->
<g id="node17" class="node">
<title>Node19</title>
<g id="a_node17"><a xlink:href="BerdyHelper_8cpp.html" target="_top" xlink:title=" ">
<polygon fill="none" stroke="black" points="1514.5,-73 1514.5,-92 1611.5,-92 1611.5,-73 1514.5,-73"/>
<text text-anchor="middle" x="1563" y="-80" font-family="FreeSans.ttf" font-size="10.00">BerdyHelper.cpp</text>
</a>
</g>
</g>
<!-- Node12&#45;&gt;Node19 -->
<g id="edge16" class="edge">
<title>Node12&#45;&gt;Node19</title>
<path fill="none" stroke="midnightblue" d="M2565.79,-142.27C2408.21,-139.09 1808.34,-125.43 1621,-98 1611.55,-96.62 1601.4,-94.36 1592.28,-92.02"/>
<polygon fill="midnightblue" stroke="midnightblue" points="2565.87,-145.77 2575.94,-142.47 2566.01,-138.77 2565.87,-145.77"/>
</g>
<!-- Node20 -->
<g id="node18" class="node">
<title>Node20</title>
<g id="a_node18"><a xlink:href="ExternalWrenchesEstimation_8cpp.html" target="_top" xlink:title=" ">
<polygon fill="none" stroke="black" points="1630,-73 1630,-92 1808,-92 1808,-73 1630,-73"/>
<text text-anchor="middle" x="1719" y="-80" font-family="FreeSans.ttf" font-size="10.00">ExternalWrenchesEstimation.cpp</text>
</a>
</g>
</g>
<!-- Node12&#45;&gt;Node20 -->
<g id="edge17" class="edge">
<title>Node12&#45;&gt;Node20</title>
<path fill="none" stroke="midnightblue" d="M2565.7,-142.03C2451.55,-138.87 2103.82,-127.36 1817,-98 1801.86,-96.45 1785.47,-94.24 1770.51,-92.01"/>
<polygon fill="midnightblue" stroke="midnightblue" points="2565.6,-145.53 2575.69,-142.3 2565.79,-138.53 2565.6,-145.53"/>
</g>
<!-- Node21 -->
<g id="node19" class="node">
<title>Node21</title>
<g id="a_node19"><a xlink:href="skinDynLibConversionsImplementation_8h.html" target="_top" xlink:title=" ">
<polygon fill="none" stroke="red" points="1826,-73 1826,-92 2044,-92 2044,-73 1826,-73"/>
<text text-anchor="middle" x="1935" y="-80" font-family="FreeSans.ttf" font-size="10.00">skinDynLibConversionsImplementation.h</text>
</a>
</g>
</g>
<!-- Node12&#45;&gt;Node21 -->
<g id="edge20" class="edge">
<title>Node12&#45;&gt;Node21</title>
<path fill="none" stroke="midnightblue" d="M2565.63,-140.41C2475.86,-134.22 2245.22,-117.65 2053,-98 2035.96,-96.26 2017.56,-94.12 2000.48,-92.03"/>
<polygon fill="midnightblue" stroke="midnightblue" points="2565.65,-143.92 2575.87,-141.11 2566.13,-136.93 2565.65,-143.92"/>
</g>
<!-- Node23 -->
<g id="node20" class="node">
<title>Node23</title>
<g id="a_node20"><a xlink:href="InverseKinematicsData_8h.html" target="_top" xlink:title=" ">
<polygon fill="none" stroke="red" points="2062,-73 2062,-92 2202,-92 2202,-73 2062,-73"/>
<text text-anchor="middle" x="2132" y="-80" font-family="FreeSans.ttf" font-size="10.00">InverseKinematicsData.h</text>
</a>
</g>
</g>
<!-- Node12&#45;&gt;Node23 -->
<g id="edge21" class="edge">
<title>Node12&#45;&gt;Node23</title>
<path fill="none" stroke="midnightblue" d="M2565.63,-139.47C2495.18,-132.81 2340.54,-117.28 2211,-98 2199.41,-96.28 2186.93,-94.12 2175.38,-92.01"/>
<polygon fill="midnightblue" stroke="midnightblue" points="2565.51,-142.98 2575.8,-140.43 2566.17,-136.01 2565.51,-142.98"/>
</g>
<!-- Node26 -->
<g id="node21" class="node">
<title>Node26</title>
<g id="a_node21"><a xlink:href="DenavitHartenberg_8h.html" target="_top" xlink:title=" ">
<polygon fill="none" stroke="red" points="2220.5,-73 2220.5,-92 2339.5,-92 2339.5,-73 2220.5,-73"/>
<text text-anchor="middle" x="2280" y="-80" font-family="FreeSans.ttf" font-size="10.00">DenavitHartenberg.h</text>
</a>
</g>
</g>
<!-- Node12&#45;&gt;Node26 -->
<g id="edge22" class="edge">
<title>Node12&#45;&gt;Node26</title>
<path fill="none" stroke="midnightblue" d="M2565.61,-136.62C2515.64,-128.23 2425.65,-112.81 2349,-98 2339.39,-96.14 2329.04,-94.03 2319.36,-92"/>
<polygon fill="midnightblue" stroke="midnightblue" points="2565.2,-140.11 2575.64,-138.31 2566.36,-133.2 2565.2,-140.11"/>
</g>
<!-- Node30 -->
<g id="node22" class="node">
<title>Node30</title>
<g id="a_node22"><a xlink:href="ModelTestUtils_8h.html" target="_top" xlink:title=" ">
<polygon fill="none" stroke="black" points="2358,-73 2358,-92 2456,-92 2456,-73 2358,-73"/>
<text text-anchor="middle" x="2407" y="-80" font-family="FreeSans.ttf" font-size="10.00">ModelTestUtils.h</text>
</a>
</g>
</g>
<!-- Node12&#45;&gt;Node30 -->
<g id="edge23" class="edge">
<title>Node12&#45;&gt;Node30</title>
<path fill="none" stroke="midnightblue" d="M2566.02,-131.53C2527.73,-119.96 2469.53,-102.38 2435.17,-92.01"/>
<polygon fill="midnightblue" stroke="midnightblue" points="2565.19,-134.93 2575.77,-134.48 2567.21,-128.23 2565.19,-134.93"/>
</g>
<!-- Node31 -->
<g id="node23" class="node">
<title>Node31</title>
<g id="a_node23"><a xlink:href="ContactWrench_8cpp.html" target="_top" xlink:title=" ">
<polygon fill="none" stroke="black" points="2474.5,-73 2474.5,-92 2585.5,-92 2585.5,-73 2474.5,-73"/>
<text text-anchor="middle" x="2530" y="-80" font-family="FreeSans.ttf" font-size="10.00">ContactWrench.cpp</text>
</a>
</g>
</g>
<!-- Node12&#45;&gt;Node31 -->
<g id="edge24" class="edge">
<title>Node12&#45;&gt;Node31</title>
<path fill="none" stroke="midnightblue" d="M2585.31,-127.97C2571.16,-116.59 2552.22,-101.37 2540.58,-92.01"/>
<polygon fill="midnightblue" stroke="midnightblue" points="2583.41,-130.94 2593.4,-134.48 2587.8,-125.48 2583.41,-130.94"/>
</g>
<!-- Node12&#45;&gt;Node32 -->
<g id="edge25" class="edge">
<title>Node12&#45;&gt;Node32</title>
<path fill="none" stroke="midnightblue" d="M2565.6,-143.21C2337.79,-144.28 1161.41,-147.29 804,-98 794.59,-96.7 784.5,-94.43 775.46,-92.07"/>
<polygon fill="midnightblue" stroke="midnightblue" points="2565.74,-146.71 2575.73,-143.16 2565.71,-139.71 2565.74,-146.71"/>
</g>
<!-- Node33 -->
<g id="node25" class="node">
<title>Node33</title>
<g id="a_node25"><a xlink:href="DynamicsLinearization_8cpp.html" target="_top" xlink:title=" ">
<polygon fill="none" stroke="black" points="2603.5,-73 2603.5,-92 2752.5,-92 2752.5,-73 2603.5,-73"/>
<text text-anchor="middle" x="2678" y="-80" font-family="FreeSans.ttf" font-size="10.00">DynamicsLinearization.cpp</text>
</a>
</g>
</g>
<!-- Node12&#45;&gt;Node33 -->
<g id="edge26" class="edge">
<title>Node12&#45;&gt;Node33</title>
<path fill="none" stroke="midnightblue" d="M2622.69,-127.97C2636.84,-116.59 2655.78,-101.37 2667.42,-92.01"/>
<polygon fill="midnightblue" stroke="midnightblue" points="2620.2,-125.48 2614.6,-134.48 2624.59,-130.94 2620.2,-125.48"/>
</g>
<!-- Node34 -->
<g id="node26" class="node">
<title>Node34</title>
<g id="a_node26"><a xlink:href="ForwardKinematics_8cpp.html" target="_top" xlink:title=" ">
<polygon fill="none" stroke="black" points="2770.5,-73 2770.5,-92 2901.5,-92 2901.5,-73 2770.5,-73"/>
<text text-anchor="middle" x="2836" y="-80" font-family="FreeSans.ttf" font-size="10.00">ForwardKinematics.cpp</text>
</a>
</g>
</g>
<!-- Node12&#45;&gt;Node34 -->
<g id="edge27" class="edge">
<title>Node12&#45;&gt;Node34</title>
<path fill="none" stroke="midnightblue" d="M2642.36,-133.16C2687.13,-121.68 2760.41,-102.89 2802.82,-92.01"/>
<polygon fill="midnightblue" stroke="midnightblue" points="2641.26,-129.83 2632.45,-135.7 2643,-136.61 2641.26,-129.83"/>
</g>
<!-- Node35 -->
<g id="node27" class="node">
<title>Node35</title>
<g id="a_node27"><a xlink:href="FreeFloatingMatrices_8cpp.html" target="_top" xlink:title=" ">
<polygon fill="none" stroke="black" points="2920,-73 2920,-92 3060,-92 3060,-73 2920,-73"/>
<text text-anchor="middle" x="2990" y="-80" font-family="FreeSans.ttf" font-size="10.00">FreeFloatingMatrices.cpp</text>
</a>
</g>
</g>
<!-- Node12&#45;&gt;Node35 -->
<g id="edge28" class="edge">
<title>Node12&#45;&gt;Node35</title>
<path fill="none" stroke="midnightblue" d="M2642.23,-134.68C2643.5,-134.44 2644.76,-134.22 2646,-134 2763.08,-113.53 2793.63,-116.73 2911,-98 2922.15,-96.22 2934.16,-94.11 2945.36,-92.07"/>
<polygon fill="midnightblue" stroke="midnightblue" points="2641.55,-131.25 2632.41,-136.61 2642.9,-138.12 2641.55,-131.25"/>
</g>
<!-- Node36 -->
<g id="node28" class="node">
<title>Node36</title>
<g id="a_node28"><a xlink:href="FreeFloatingState_8cpp.html" target="_top" xlink:title=" ">
<polygon fill="none" stroke="black" points="3078.5,-73 3078.5,-92 3201.5,-92 3201.5,-73 3078.5,-73"/>
<text text-anchor="middle" x="3140" y="-80" font-family="FreeSans.ttf" font-size="10.00">FreeFloatingState.cpp</text>
</a>
</g>
</g>
<!-- Node12&#45;&gt;Node36 -->
<g id="edge29" class="edge">
<title>Node12&#45;&gt;Node36</title>
<path fill="none" stroke="midnightblue" d="M2642.22,-134.6C2643.49,-134.39 2644.76,-134.19 2646,-134 2832.62,-106.18 2882.25,-124.92 3069,-98 3079.83,-96.44 3091.5,-94.26 3102.19,-92.07"/>
<polygon fill="midnightblue" stroke="midnightblue" points="2641.58,-131.16 2632.38,-136.41 2642.85,-138.04 2641.58,-131.16"/>
</g>
<!-- Node37 -->
<g id="node29" class="node">
<title>Node37</title>
<g id="a_node29"><a xlink:href="Jacobians_8cpp.html" target="_top" xlink:title=" ">
<polygon fill="none" stroke="black" points="3219.5,-73 3219.5,-92 3302.5,-92 3302.5,-73 3219.5,-73"/>
<text text-anchor="middle" x="3261" y="-80" font-family="FreeSans.ttf" font-size="10.00">Jacobians.cpp</text>
</a>
</g>
</g>
<!-- Node12&#45;&gt;Node37 -->
<g id="edge30" class="edge">
<title>Node12&#45;&gt;Node37</title>
<path fill="none" stroke="midnightblue" d="M2642.21,-134.56C2643.49,-134.36 2644.75,-134.17 2646,-134 2895.25,-99.55 2963.13,-141.3 3211,-98 3219.1,-96.58 3227.76,-94.34 3235.56,-92.04"/>
<polygon fill="midnightblue" stroke="midnightblue" points="2641.59,-131.12 2632.37,-136.33 2642.83,-138.01 2641.59,-131.12"/>
</g>
<!-- Node38 -->
<g id="node30" class="node">
<title>Node38</title>
<g id="a_node30"><a xlink:href="JointState_8cpp.html" target="_top" xlink:title=" ">
<polygon fill="none" stroke="black" points="3321,-73 3321,-92 3405,-92 3405,-73 3321,-73"/>
<text text-anchor="middle" x="3363" y="-80" font-family="FreeSans.ttf" font-size="10.00">JointState.cpp</text>
</a>
</g>
</g>
<!-- Node12&#45;&gt;Node38 -->
<g id="edge31" class="edge">
<title>Node12&#45;&gt;Node38</title>
<path fill="none" stroke="midnightblue" d="M2642.21,-134.55C2643.49,-134.35 2644.75,-134.17 2646,-134 2939.83,-94.82 3019.62,-146.84 3312,-98 3320.35,-96.6 3329.29,-94.34 3337.31,-92.01"/>
<polygon fill="midnightblue" stroke="midnightblue" points="2641.6,-131.1 2632.36,-136.29 2642.82,-137.99 2641.6,-131.1"/>
</g>
<!-- Node39 -->
<g id="node31" class="node">
<title>Node39</title>
<g id="a_node31"><a xlink:href="LinkState_8cpp.html" target="_top" xlink:title=" ">
<polygon fill="none" stroke="black" points="3423.5,-73 3423.5,-92 3506.5,-92 3506.5,-73 3423.5,-73"/>
<text text-anchor="middle" x="3465" y="-80" font-family="FreeSans.ttf" font-size="10.00">LinkState.cpp</text>
</a>
</g>
</g>
<!-- Node12&#45;&gt;Node39 -->
<g id="edge32" class="edge">
<title>Node12&#45;&gt;Node39</title>
<path fill="none" stroke="midnightblue" d="M2642.21,-134.54C2643.49,-134.34 2644.75,-134.16 2646,-134 2984.87,-90.05 3076.76,-153.09 3414,-98 3422.36,-96.63 3431.3,-94.38 3439.32,-92.05"/>
<polygon fill="midnightblue" stroke="midnightblue" points="2641.6,-131.09 2632.36,-136.26 2642.81,-137.98 2641.6,-131.09"/>
</g>
<!-- Node40 -->
<g id="node32" class="node">
<title>Node40</title>
<g id="a_node32"><a xlink:href="LinkTraversalsCache_8cpp.html" target="_top" xlink:title=" ">
<polygon fill="none" stroke="black" points="3524.5,-73 3524.5,-92 3661.5,-92 3661.5,-73 3524.5,-73"/>
<text text-anchor="middle" x="3593" y="-80" font-family="FreeSans.ttf" font-size="10.00">LinkTraversalsCache.cpp</text>
</a>
</g>
</g>
<!-- Node12&#45;&gt;Node40 -->
<g id="edge33" class="edge">
<title>Node12&#45;&gt;Node40</title>
<path fill="none" stroke="midnightblue" d="M2642.21,-134.53C2643.49,-134.34 2644.75,-134.16 2646,-134 3029.92,-85.28 3131.5,-141.92 3516,-98 3528.3,-96.6 3541.58,-94.36 3553.6,-92.06"/>
<polygon fill="midnightblue" stroke="midnightblue" points="2641.61,-131.08 2632.35,-136.24 2642.81,-137.98 2641.61,-131.08"/>
</g>
<!-- Node41 -->
<g id="node33" class="node">
<title>Node41</title>
<g id="a_node33"><a xlink:href="Model_8cpp.html" target="_top" xlink:title=" ">
<polygon fill="none" stroke="black" points="3679.5,-73 3679.5,-92 3746.5,-92 3746.5,-73 3679.5,-73"/>
<text text-anchor="middle" x="3713" y="-80" font-family="FreeSans.ttf" font-size="10.00">Model.cpp</text>
</a>
</g>
</g>
<!-- Node12&#45;&gt;Node41 -->
<g id="edge34" class="edge">
<title>Node12&#45;&gt;Node41</title>
<path fill="none" stroke="midnightblue" d="M2642.21,-134.52C2643.48,-134.33 2644.75,-134.15 2646,-134 3098.39,-78.03 3222.84,-181.3 3671,-98 3677.98,-96.7 3685.36,-94.47 3691.96,-92.13"/>
<polygon fill="midnightblue" stroke="midnightblue" points="2641.61,-131.07 2632.35,-136.22 2642.8,-137.97 2641.61,-131.07"/>
</g>
<!-- Node42 -->
<g id="node34" class="node">
<title>Node42</title>
<g id="a_node34"><a xlink:href="ModelTransformers_8cpp.html" target="_top" xlink:title=" ">
<polygon fill="none" stroke="black" points="3764.5,-73 3764.5,-92 3895.5,-92 3895.5,-73 3764.5,-73"/>
<text text-anchor="middle" x="3830" y="-80" font-family="FreeSans.ttf" font-size="10.00">ModelTransformers.cpp</text>
</a>
</g>
</g>
<!-- Node12&#45;&gt;Node42 -->
<g id="edge35" class="edge">
<title>Node12&#45;&gt;Node42</title>
<path fill="none" stroke="midnightblue" d="M2642.21,-134.51C2643.48,-134.32 2644.75,-134.15 2646,-134 3135.94,-74.05 3265.55,-153.64 3756,-98 3767.97,-96.64 3780.89,-94.39 3792.54,-92.06"/>
<polygon fill="midnightblue" stroke="midnightblue" points="2641.61,-131.06 2632.35,-136.21 2642.8,-137.96 2641.61,-131.06"/>
</g>
<!-- Node43 -->
<g id="node35" class="node">
<title>Node43</title>
<g id="a_node35"><a xlink:href="SolidShapes_8cpp.html" target="_top" xlink:title=" ">
<polygon fill="none" stroke="black" points="3914,-73 3914,-92 4010,-92 4010,-73 3914,-73"/>
<text text-anchor="middle" x="3962" y="-80" font-family="FreeSans.ttf" font-size="10.00">SolidShapes.cpp</text>
</a>
</g>
</g>
<!-- Node12&#45;&gt;Node43 -->
<g id="edge36" class="edge">
<title>Node12&#45;&gt;Node43</title>
<path fill="none" stroke="midnightblue" d="M2642.21,-134.51C2643.48,-134.32 2644.75,-134.15 2646,-134 3201.77,-67.08 3350.6,-175.47 3905,-98 3914.4,-96.69 3924.5,-94.41 3933.54,-92.05"/>
<polygon fill="midnightblue" stroke="midnightblue" points="2641.61,-131.06 2632.35,-136.19 2642.8,-137.96 2641.61,-131.06"/>
</g>
<!-- Node44 -->
<g id="node36" class="node">
<title>Node44</title>
<g id="a_node36"><a xlink:href="SubModel_8cpp.html" target="_top" xlink:title=" ">
<polygon fill="none" stroke="black" points="4028.5,-73 4028.5,-92 4113.5,-92 4113.5,-73 4028.5,-73"/>
<text text-anchor="middle" x="4071" y="-80" font-family="FreeSans.ttf" font-size="10.00">SubModel.cpp</text>
</a>
</g>
</g>
<!-- Node12&#45;&gt;Node44 -->
<g id="edge37" class="edge">
<title>Node12&#45;&gt;Node44</title>
<path fill="none" stroke="midnightblue" d="M2642.21,-134.5C2643.48,-134.32 2644.75,-134.15 2646,-134 3252.14,-61.74 3415.34,-188.66 4019,-98 4027.62,-96.71 4036.84,-94.44 4045.08,-92.08"/>
<polygon fill="midnightblue" stroke="midnightblue" points="2641.62,-131.05 2632.35,-136.18 2642.79,-137.95 2641.62,-131.05"/>
</g>
<!-- Node45 -->
<g id="node37" class="node">
<title>Node45</title>
<g id="a_node37"><a xlink:href="Traversal_8cpp.html" target="_top" xlink:title=" ">
<polygon fill="none" stroke="black" points="4131.5,-73 4131.5,-92 4212.5,-92 4212.5,-73 4131.5,-73"/>
<text text-anchor="middle" x="4172" y="-80" font-family="FreeSans.ttf" font-size="10.00">Traversal.cpp</text>
</a>
</g>
</g>
<!-- Node12&#45;&gt;Node45 -->
<g id="edge38" class="edge">
<title>Node12&#45;&gt;Node45</title>
<path fill="none" stroke="midnightblue" d="M2642.21,-134.5C2643.48,-134.32 2644.75,-134.15 2646,-134 2972.05,-95.44 3798.67,-149.02 4123,-98 4131.24,-96.7 4140.03,-94.4 4147.86,-92.01"/>
<polygon fill="midnightblue" stroke="midnightblue" points="2641.62,-131.05 2632.35,-136.18 2642.79,-137.95 2641.62,-131.05"/>
</g>
<!-- Node46 -->
<g id="node38" class="node">
<title>Node46</title>
<g id="a_node38"><a xlink:href="ModelCalibrationHelper_8h.html" target="_top" xlink:title=" ">
<polygon fill="none" stroke="red" points="4209,-6 4209,-25 4349,-25 4349,-6 4209,-6"/>
<text text-anchor="middle" x="4279" y="-13" font-family="FreeSans.ttf" font-size="10.00">ModelCalibrationHelper.h</text>
</a>
</g>
</g>
<!-- Node12&#45;&gt;Node46 -->
<g id="edge39" class="edge">
<title>Node12&#45;&gt;Node46</title>
<path fill="none" stroke="midnightblue" d="M2642.21,-134.5C2643.48,-134.31 2644.75,-134.15 2646,-134 2732.98,-123.78 4144.8,-139.34 4222,-98 4251.83,-82.02 4269.4,-42.74 4275.99,-25.2"/>
<polygon fill="midnightblue" stroke="midnightblue" points="2641.62,-131.05 2632.35,-136.17 2642.79,-137.95 2641.62,-131.05"/>
</g>
<!-- Node48 -->
<g id="node39" class="node">
<title>Node48</title>
<g id="a_node39"><a xlink:href="ModelExporter_8h.html" target="_top" xlink:title=" ">
<polygon fill="none" stroke="red" points="4269,-73 4269,-92 4365,-92 4365,-73 4269,-73"/>
<text text-anchor="middle" x="4317" y="-80" font-family="FreeSans.ttf" font-size="10.00">ModelExporter.h</text>
</a>
</g>
</g>
<!-- Node12&#45;&gt;Node48 -->
<g id="edge40" class="edge">
<title>Node12&#45;&gt;Node48</title>
<path fill="none" stroke="midnightblue" d="M2642.21,-134.5C2643.48,-134.31 2644.75,-134.15 2646,-134 3356.42,-50.69 3545.39,-187.93 4255,-98 4265.31,-96.69 4276.41,-94.39 4286.32,-92"/>
<polygon fill="midnightblue" stroke="midnightblue" points="2641.62,-131.05 2632.35,-136.17 2642.79,-137.95 2641.62,-131.05"/>
</g>
<!-- Node53 -->
<g id="node40" class="node">
<title>Node53</title>
<g id="a_node40"><a xlink:href="ModelLoader_8h.html" target="_top" xlink:title=" ">
<polygon fill="none" stroke="red" points="846,-73 846,-92 934,-92 934,-73 846,-73"/>
<text text-anchor="middle" x="890" y="-80" font-family="FreeSans.ttf" font-size="10.00">ModelLoader.h</text>
</a>
</g>
</g>
<!-- Node12&#45;&gt;Node53 -->
<g id="edge42" class="edge">
<title>Node12&#45;&gt;Node53</title>
<path fill="none" stroke="midnightblue" d="M2565.65,-143.09C2348.9,-143.44 1275.33,-142.82 948,-98 938.44,-96.69 928.17,-94.42 918.97,-92.06"/>
<polygon fill="midnightblue" stroke="midnightblue" points="2565.89,-146.59 2575.89,-143.07 2565.88,-139.59 2565.89,-146.59"/>
</g>
<!-- Node60 -->
<g id="node41" class="node">
<title>Node60</title>
<g id="a_node41"><a xlink:href="InertialElement_8h.html" target="_top" xlink:title=" ">
<polygon fill="none" stroke="red" points="4383.5,-73 4383.5,-92 4484.5,-92 4484.5,-73 4383.5,-73"/>
<text text-anchor="middle" x="4434" y="-80" font-family="FreeSans.ttf" font-size="10.00">InertialElement.h</text>
</a>
</g>
</g>
<!-- Node12&#45;&gt;Node60 -->
<g id="edge45" class="edge">
<title>Node12&#45;&gt;Node60</title>
<path fill="none" stroke="midnightblue" d="M2642.2,-134.49C2643.48,-134.31 2644.75,-134.15 2646,-134 3409.01,-45.12 3612.21,-196.8 4374,-98 4383.99,-96.7 4394.73,-94.41 4404.33,-92.01"/>
<polygon fill="midnightblue" stroke="midnightblue" points="2641.62,-131.04 2632.34,-136.16 2642.79,-137.94 2641.62,-131.04"/>
</g>
<!-- Node12&#45;&gt;Node51 -->
<g id="edge46" class="edge">
<title>Node12&#45;&gt;Node51</title>
<path fill="none" stroke="midnightblue" d="M2642.2,-134.49C2643.48,-134.31 2644.75,-134.14 2646,-134 3462.04,-39.5 3677.4,-187.45 4494,-98 4505.91,-96.69 4518.79,-94.39 4530.31,-92"/>
<polygon fill="midnightblue" stroke="midnightblue" points="2641.62,-131.04 2632.34,-136.16 2642.79,-137.94 2641.62,-131.04"/>
</g>
<!-- Node13&#45;&gt;Node14 -->
<g id="edge13" class="edge">
<title>Node13&#45;&gt;Node14</title>
<path fill="none" stroke="midnightblue" d="M1039.81,-61.73C1024.95,-51.68 1007.24,-39.68 993.79,-30.58"/>
<polygon fill="midnightblue" stroke="midnightblue" points="1037.93,-64.69 1048.17,-67.4 1041.85,-58.89 1037.93,-64.69"/>
</g>
<!-- Node48&#45;&gt;Node46 -->
<g id="edge41" class="edge">
<title>Node48&#45;&gt;Node46</title>
<path fill="none" stroke="midnightblue" d="M4306.79,-64.03C4299.43,-51.45 4289.82,-35.01 4284.04,-25.13"/>
<polygon fill="midnightblue" stroke="midnightblue" points="4303.81,-65.87 4311.88,-72.73 4309.85,-62.33 4303.81,-65.87"/>
</g>
<!-- Node53&#45;&gt;Node9 -->
<g id="edge44" class="edge">
<title>Node53&#45;&gt;Node9</title>
<path fill="none" stroke="midnightblue" d="M870.7,-66.57C854.12,-53.74 830.79,-35.69 817.15,-25.13"/>
<polygon fill="midnightblue" stroke="midnightblue" points="868.62,-69.38 878.67,-72.73 872.9,-63.85 868.62,-69.38"/>
</g>
<!-- Node53&#45;&gt;Node14 -->
<g id="edge43" class="edge">
<title>Node53&#45;&gt;Node14</title>
<path fill="none" stroke="midnightblue" d="M909.1,-66.54C922.91,-55.73 941.46,-41.2 955.01,-30.59"/>
<polygon fill="midnightblue" stroke="midnightblue" points="906.91,-63.81 901.19,-72.73 911.22,-69.32 906.91,-63.81"/>
</g>
</g>
</svg>
