<?xml version="1.0" encoding="UTF-8" standalone="no"?>
<!DOCTYPE svg PUBLIC "-//W3C//DTD SVG 1.1//EN"
 "http://www.w3.org/Graphics/SVG/1.1/DTD/svg11.dtd">
<!-- Generated by graphviz version 2.43.0 (0)
 -->
<!-- Title: SensorElement.h Pages: 1 -->
<svg width="556pt" height="140pt"
 viewBox="0.00 0.00 556.00 140.00" xmlns="http://www.w3.org/2000/svg" xmlns:xlink="http://www.w3.org/1999/xlink">
<g id="graph0" class="graph" transform="scale(1 1) rotate(0) translate(4 136)">
<title>SensorElement.h</title>
<!-- Node1 -->
<g id="node1" class="node">
<title>Node1</title>
<g id="a_node1"><a xlink:title=" ">
<polygon fill="#bfbfbf" stroke="black" points="276,-112.5 276,-131.5 375,-131.5 375,-112.5 276,-112.5"/>
<text text-anchor="middle" x="325.5" y="-119.5" font-family="FreeSans.ttf" font-size="10.00">SensorElement.h</text>
</a>
</g>
</g>
<!-- Node2 -->
<g id="node2" class="node">
<title>Node2</title>
<g id="a_node2"><a xlink:href="ForceTorqueSensorElement_8h.html" target="_top" xlink:title=" ">
<polygon fill="none" stroke="black" points="99.5,-56.5 99.5,-75.5 257.5,-75.5 257.5,-56.5 99.5,-56.5"/>
<text text-anchor="middle" x="178.5" y="-63.5" font-family="FreeSans.ttf" font-size="10.00">ForceTorqueSensorElement.h</text>
</a>
</g>
</g>
<!-- Node1&#45;&gt;Node2 -->
<g id="edge1" class="edge">
<title>Node1&#45;&gt;Node2</title>
<path fill="none" stroke="midnightblue" d="M292.58,-108.91C264.94,-98.75 226.16,-84.51 201.68,-75.52"/>
<polygon fill="midnightblue" stroke="midnightblue" points="291.61,-112.28 302.21,-112.44 294.03,-105.71 291.61,-112.28"/>
</g>
<!-- Node4 -->
<g id="node4" class="node">
<title>Node4</title>
<g id="a_node4"><a xlink:href="SensorElement_8cpp.html" target="_top" xlink:title=" ">
<polygon fill="none" stroke="black" points="187.5,-0.5 187.5,-19.5 297.5,-19.5 297.5,-0.5 187.5,-0.5"/>
<text text-anchor="middle" x="242.5" y="-7.5" font-family="FreeSans.ttf" font-size="10.00">SensorElement.cpp</text>
</a>
</g>
</g>
<!-- Node1&#45;&gt;Node4 -->
<g id="edge8" class="edge">
<title>Node1&#45;&gt;Node4</title>
<path fill="none" stroke="midnightblue" d="M312.88,-104.27C294.94,-80.49 262.71,-37.79 248.98,-19.59"/>
<polygon fill="midnightblue" stroke="midnightblue" points="310.17,-106.49 318.99,-112.37 315.76,-102.28 310.17,-106.49"/>
</g>
<!-- Node5 -->
<g id="node5" class="node">
<title>Node5</title>
<g id="a_node5"><a xlink:href="URDFDocument_8h.html" target="_top" xlink:title=" ">
<polygon fill="none" stroke="black" points="313.5,-56.5 313.5,-75.5 417.5,-75.5 417.5,-56.5 313.5,-56.5"/>
<text text-anchor="middle" x="365.5" y="-63.5" font-family="FreeSans.ttf" font-size="10.00">URDFDocument.h</text>
</a>
</g>
</g>
<!-- Node1&#45;&gt;Node5 -->
<g id="edge4" class="edge">
<title>Node1&#45;&gt;Node5</title>
<path fill="none" stroke="midnightblue" d="M338.2,-103.86C345.13,-94.5 353.41,-83.33 359.02,-75.75"/>
<polygon fill="midnightblue" stroke="midnightblue" points="335.25,-101.96 332.11,-112.08 340.87,-106.13 335.25,-101.96"/>
</g>
<!-- Node8 -->
<g id="node8" class="node">
<title>Node8</title>
<g id="a_node8"><a xlink:href="RobotElement_8cpp.html" target="_top" xlink:title=" ">
<polygon fill="none" stroke="black" points="435.5,-56.5 435.5,-75.5 541.5,-75.5 541.5,-56.5 435.5,-56.5"/>
<text text-anchor="middle" x="488.5" y="-63.5" font-family="FreeSans.ttf" font-size="10.00">RobotElement.cpp</text>
</a>
</g>
</g>
<!-- Node1&#45;&gt;Node8 -->
<g id="edge7" class="edge">
<title>Node1&#45;&gt;Node8</title>
<path fill="none" stroke="midnightblue" d="M361.2,-109.17C391.9,-99 435.42,-84.59 462.79,-75.52"/>
<polygon fill="midnightblue" stroke="midnightblue" points="359.72,-105.98 351.33,-112.44 361.92,-112.62 359.72,-105.98"/>
</g>
<!-- Node3 -->
<g id="node3" class="node">
<title>Node3</title>
<g id="a_node3"><a xlink:href="ForceTorqueSensorElement_8cpp.html" target="_top" xlink:title=" ">
<polygon fill="none" stroke="black" points="0,-0.5 0,-19.5 169,-19.5 169,-0.5 0,-0.5"/>
<text text-anchor="middle" x="84.5" y="-7.5" font-family="FreeSans.ttf" font-size="10.00">ForceTorqueSensorElement.cpp</text>
</a>
</g>
</g>
<!-- Node2&#45;&gt;Node3 -->
<g id="edge2" class="edge">
<title>Node2&#45;&gt;Node3</title>
<path fill="none" stroke="midnightblue" d="M154.44,-51.18C137.14,-41.24 114.35,-28.15 99.57,-19.65"/>
<polygon fill="midnightblue" stroke="midnightblue" points="152.98,-54.38 163.4,-56.32 156.47,-48.31 152.98,-54.38"/>
</g>
<!-- Node2&#45;&gt;Node4 -->
<g id="edge3" class="edge">
<title>Node2&#45;&gt;Node4</title>
<path fill="none" stroke="midnightblue" d="M196.49,-49.82C207.96,-40.15 222.41,-27.95 232.03,-19.83"/>
<polygon fill="midnightblue" stroke="midnightblue" points="194.17,-47.2 188.78,-56.32 198.68,-52.55 194.17,-47.2"/>
</g>
<!-- Node6 -->
<g id="node6" class="node">
<title>Node6</title>
<g id="a_node6"><a xlink:href="ModelLoader_8cpp.html" target="_top" xlink:title=" ">
<polygon fill="none" stroke="black" points="316,-0.5 316,-19.5 415,-19.5 415,-0.5 316,-0.5"/>
<text text-anchor="middle" x="365.5" y="-7.5" font-family="FreeSans.ttf" font-size="10.00">ModelLoader.cpp</text>
</a>
</g>
</g>
<!-- Node5&#45;&gt;Node6 -->
<g id="edge5" class="edge">
<title>Node5&#45;&gt;Node6</title>
<path fill="none" stroke="midnightblue" d="M365.5,-45.8C365.5,-36.91 365.5,-26.78 365.5,-19.75"/>
<polygon fill="midnightblue" stroke="midnightblue" points="362,-46.08 365.5,-56.08 369,-46.08 362,-46.08"/>
</g>
<!-- Node7 -->
<g id="node7" class="node">
<title>Node7</title>
<g id="a_node7"><a xlink:href="URDFDocument_8cpp.html" target="_top" xlink:title=" ">
<polygon fill="none" stroke="black" points="433,-0.5 433,-19.5 548,-19.5 548,-0.5 433,-0.5"/>
<text text-anchor="middle" x="490.5" y="-7.5" font-family="FreeSans.ttf" font-size="10.00">URDFDocument.cpp</text>
</a>
</g>
</g>
<!-- Node5&#45;&gt;Node7 -->
<g id="edge6" class="edge">
<title>Node5&#45;&gt;Node7</title>
<path fill="none" stroke="midnightblue" d="M394.74,-52.37C418.15,-42.26 450.34,-28.35 470.79,-19.52"/>
<polygon fill="midnightblue" stroke="midnightblue" points="393.1,-49.26 385.31,-56.44 395.87,-55.69 393.1,-49.26"/>
</g>
</g>
</svg>
