<?xml version="1.0" encoding="UTF-8" standalone="no"?>
<!DOCTYPE svg PUBLIC "-//W3C//DTD SVG 1.1//EN"
 "http://www.w3.org/Graphics/SVG/1.1/DTD/svg11.dtd">
<!-- Generated by graphviz version 2.43.0 (0)
 -->
<!-- Title: Sensors.h Pages: 1 -->
<svg width="4228pt" height="218pt"
 viewBox="0.00 0.00 4227.85 218.00" xmlns="http://www.w3.org/2000/svg" xmlns:xlink="http://www.w3.org/1999/xlink">
<g id="graph0" class="graph" transform="scale(1 1) rotate(0) translate(4 214)">
<title>Sensors.h</title>
<!-- Node1 -->
<g id="node1" class="node">
<title>Node1</title>
<g id="a_node1"><a xlink:title=" ">
<polygon fill="#bfbfbf" stroke="black" points="1670.85,-190.5 1670.85,-209.5 1734.85,-209.5 1734.85,-190.5 1670.85,-190.5"/>
<text text-anchor="middle" x="1702.85" y="-197.5" font-family="FreeSans.ttf" font-size="10.00">Sensors.h</text>
</a>
</g>
</g>
<!-- Node2 -->
<g id="node2" class="node">
<title>Node2</title>
<g id="a_node2"><a xlink:href="BerdyHelper_8h.html" target="_top" xlink:title=" ">
<polygon fill="none" stroke="black" points="46.85,-129 46.85,-148 132.85,-148 132.85,-129 46.85,-129"/>
<text text-anchor="middle" x="89.85" y="-136" font-family="FreeSans.ttf" font-size="10.00">BerdyHelper.h</text>
</a>
</g>
</g>
<!-- Node1&#45;&gt;Node2 -->
<g id="edge1" class="edge">
<title>Node1&#45;&gt;Node2</title>
<path fill="none" stroke="midnightblue" d="M1660.59,-198.51C1446.29,-195.89 478.13,-182.67 178.85,-154 163.89,-152.57 147.63,-150.17 133.16,-147.73"/>
<polygon fill="midnightblue" stroke="midnightblue" points="1660.75,-202.01 1670.79,-198.63 1660.84,-195.01 1660.75,-202.01"/>
</g>
<!-- Node3 -->
<g id="node3" class="node">
<title>Node3</title>
<g id="a_node3"><a xlink:href="BerdyHelper_8cpp.html" target="_top" xlink:title=" ">
<polygon fill="none" stroke="black" points="144.35,-0.5 144.35,-19.5 241.35,-19.5 241.35,-0.5 144.35,-0.5"/>
<text text-anchor="middle" x="192.85" y="-7.5" font-family="FreeSans.ttf" font-size="10.00">BerdyHelper.cpp</text>
</a>
</g>
</g>
<!-- Node1&#45;&gt;Node3 -->
<g id="edge6" class="edge">
<title>Node1&#45;&gt;Node3</title>
<path fill="none" stroke="midnightblue" d="M1660.66,-199.16C1443.29,-199.76 454.89,-199.94 326.85,-154 280.91,-137.52 272.55,-123.23 239.85,-87 220.31,-65.35 204.12,-34.51 196.9,-19.66"/>
<polygon fill="midnightblue" stroke="midnightblue" points="1660.73,-202.66 1670.72,-199.13 1660.71,-195.66 1660.73,-202.66"/>
</g>
<!-- Node5 -->
<g id="node5" class="node">
<title>Node5</title>
<g id="a_node5"><a xlink:href="ExtWrenchesAndJointTorquesEstimator_8h.html" target="_top" xlink:title=" ">
<polygon fill="none" stroke="black" points="1863.85,-123.5 1863.85,-153.5 2021.85,-153.5 2021.85,-123.5 1863.85,-123.5"/>
<text text-anchor="start" x="1871.85" y="-141.5" font-family="FreeSans.ttf" font-size="10.00">ExtWrenchesAndJointTorques</text>
<text text-anchor="middle" x="1942.85" y="-130.5" font-family="FreeSans.ttf" font-size="10.00">Estimator.h</text>
</a>
</g>
</g>
<!-- Node1&#45;&gt;Node5 -->
<g id="edge4" class="edge">
<title>Node1&#45;&gt;Node5</title>
<path fill="none" stroke="midnightblue" d="M1744.99,-188.55C1784.2,-178.83 1842.92,-164.27 1886.22,-153.54"/>
<polygon fill="midnightblue" stroke="midnightblue" points="1744.08,-185.17 1735.22,-190.98 1745.77,-191.97 1744.08,-185.17"/>
</g>
<!-- Node6 -->
<g id="node6" class="node">
<title>Node6</title>
<g id="a_node6"><a xlink:href="ExtWrenchesAndJointTorquesEstimator_8cpp.html" target="_top" xlink:title=" ">
<polygon fill="none" stroke="black" points="2060.85,-56.5 2060.85,-86.5 2218.85,-86.5 2218.85,-56.5 2060.85,-56.5"/>
<text text-anchor="start" x="2068.85" y="-74.5" font-family="FreeSans.ttf" font-size="10.00">ExtWrenchesAndJointTorques</text>
<text text-anchor="middle" x="2139.85" y="-63.5" font-family="FreeSans.ttf" font-size="10.00">Estimator.cpp</text>
</a>
</g>
</g>
<!-- Node1&#45;&gt;Node6 -->
<g id="edge8" class="edge">
<title>Node1&#45;&gt;Node6</title>
<path fill="none" stroke="midnightblue" d="M1745.1,-199.84C1809.29,-199.68 1934.13,-193.67 2030.85,-154 2069.33,-138.22 2106.42,-105.62 2125.84,-86.78"/>
<polygon fill="midnightblue" stroke="midnightblue" points="1744.96,-196.34 1734.96,-199.82 1744.95,-203.34 1744.96,-196.34"/>
</g>
<!-- Node7 -->
<g id="node7" class="node">
<title>Node7</title>
<g id="a_node7"><a xlink:href="ExternalWrenchesEstimation_8cpp.html" target="_top" xlink:title=" ">
<polygon fill="none" stroke="black" points="1678.85,-62 1678.85,-81 1856.85,-81 1856.85,-62 1678.85,-62"/>
<text text-anchor="middle" x="1767.85" y="-69" font-family="FreeSans.ttf" font-size="10.00">ExternalWrenchesEstimation.cpp</text>
</a>
</g>
</g>
<!-- Node1&#45;&gt;Node7 -->
<g id="edge7" class="edge">
<title>Node1&#45;&gt;Node7</title>
<path fill="none" stroke="midnightblue" d="M1711.89,-181.4C1726,-153.94 1752.74,-101.9 1763.35,-81.26"/>
<polygon fill="midnightblue" stroke="midnightblue" points="1708.78,-179.81 1707.32,-190.31 1715,-183.01 1708.78,-179.81"/>
</g>
<!-- Node8 -->
<g id="node8" class="node">
<title>Node8</title>
<g id="a_node8"><a xlink:href="ModelCalibrationHelper_8h.html" target="_top" xlink:title=" ">
<polygon fill="none" stroke="black" points="2906.85,-62 2906.85,-81 3046.85,-81 3046.85,-62 2906.85,-62"/>
<text text-anchor="middle" x="2976.85" y="-69" font-family="FreeSans.ttf" font-size="10.00">ModelCalibrationHelper.h</text>
</a>
</g>
</g>
<!-- Node1&#45;&gt;Node8 -->
<g id="edge9" class="edge">
<title>Node1&#45;&gt;Node8</title>
<path fill="none" stroke="midnightblue" d="M1745.32,-198.96C1943.17,-198.58 2769.46,-194.55 2876.85,-154 2918.13,-138.41 2955.09,-98.55 2969.94,-81.01"/>
<polygon fill="midnightblue" stroke="midnightblue" points="1745.04,-195.46 1735.04,-198.98 1745.05,-202.46 1745.04,-195.46"/>
</g>
<!-- Node10 -->
<g id="node10" class="node">
<title>Node10</title>
<g id="a_node10"><a xlink:href="ModelExporter_8h.html" target="_top" xlink:title=" ">
<polygon fill="none" stroke="black" points="2771.85,-129 2771.85,-148 2867.85,-148 2867.85,-129 2771.85,-129"/>
<text text-anchor="middle" x="2819.85" y="-136" font-family="FreeSans.ttf" font-size="10.00">ModelExporter.h</text>
</a>
</g>
</g>
<!-- Node1&#45;&gt;Node10 -->
<g id="edge11" class="edge">
<title>Node1&#45;&gt;Node10</title>
<path fill="none" stroke="midnightblue" d="M1745.21,-196.97C1872,-190.86 2259.57,-171.98 2580.85,-154 2647.05,-150.3 2723.54,-145.58 2771.79,-142.55"/>
<polygon fill="midnightblue" stroke="midnightblue" points="1744.97,-193.48 1735.15,-197.45 1745.3,-200.47 1744.97,-193.48"/>
</g>
<!-- Node15 -->
<g id="node15" class="node">
<title>Node15</title>
<g id="a_node15"><a xlink:href="ModelLoader_8h.html" target="_top" xlink:title=" ">
<polygon fill="none" stroke="black" points="3362.85,-129 3362.85,-148 3450.85,-148 3450.85,-129 3362.85,-129"/>
<text text-anchor="middle" x="3406.85" y="-136" font-family="FreeSans.ttf" font-size="10.00">ModelLoader.h</text>
</a>
</g>
</g>
<!-- Node1&#45;&gt;Node15 -->
<g id="edge19" class="edge">
<title>Node1&#45;&gt;Node15</title>
<path fill="none" stroke="midnightblue" d="M1745.18,-197.52C1980.27,-189.31 3123.27,-149.4 3362.78,-141.04"/>
<polygon fill="midnightblue" stroke="midnightblue" points="1744.87,-194.03 1734.99,-197.88 1745.11,-201.03 1744.87,-194.03"/>
</g>
<!-- Node19 -->
<g id="node19" class="node">
<title>Node19</title>
<g id="a_node19"><a xlink:href="URDFDocument_8h.html" target="_top" xlink:title=" ">
<polygon fill="none" stroke="black" points="2574.85,-62 2574.85,-81 2678.85,-81 2678.85,-62 2574.85,-62"/>
<text text-anchor="middle" x="2626.85" y="-69" font-family="FreeSans.ttf" font-size="10.00">URDFDocument.h</text>
</a>
</g>
</g>
<!-- Node1&#45;&gt;Node19 -->
<g id="edge40" class="edge">
<title>Node1&#45;&gt;Node19</title>
<path fill="none" stroke="midnightblue" d="M1745.3,-198.49C1882.67,-196.5 2314.05,-187.68 2448.85,-154 2513.48,-137.85 2583.49,-98.66 2612.75,-81.17"/>
<polygon fill="midnightblue" stroke="midnightblue" points="1745.12,-194.99 1735.17,-198.63 1745.22,-201.99 1745.12,-194.99"/>
</g>
<!-- Node25 -->
<g id="node25" class="node">
<title>Node25</title>
<g id="a_node25"><a xlink:href="SensorElement_8h.html" target="_top" xlink:title=" ">
<polygon fill="none" stroke="black" points="2304.35,-129 2304.35,-148 2403.35,-148 2403.35,-129 2304.35,-129"/>
<text text-anchor="middle" x="2353.85" y="-136" font-family="FreeSans.ttf" font-size="10.00">SensorElement.h</text>
</a>
</g>
</g>
<!-- Node1&#45;&gt;Node25 -->
<g id="edge33" class="edge">
<title>Node1&#45;&gt;Node25</title>
<path fill="none" stroke="midnightblue" d="M1745.34,-195.12C1860.83,-184.56 2180.1,-155.38 2303.9,-144.07"/>
<polygon fill="midnightblue" stroke="midnightblue" points="1744.77,-191.65 1735.13,-196.05 1745.41,-198.62 1744.77,-191.65"/>
</g>
<!-- Node28 -->
<g id="node28" class="node">
<title>Node28</title>
<g id="a_node28"><a xlink:href="SensorElement_8cpp.html" target="_top" xlink:title=" ">
<polygon fill="none" stroke="black" points="1243.85,-0.5 1243.85,-19.5 1353.85,-19.5 1353.85,-0.5 1243.85,-0.5"/>
<text text-anchor="middle" x="1298.85" y="-7.5" font-family="FreeSans.ttf" font-size="10.00">SensorElement.cpp</text>
</a>
</g>
</g>
<!-- Node1&#45;&gt;Node28 -->
<g id="edge42" class="edge">
<title>Node1&#45;&gt;Node28</title>
<path fill="none" stroke="midnightblue" d="M1660.44,-199.26C1430.64,-200.24 341.69,-198.9 249.85,-87 241.11,-76.35 240.32,-65.95 249.85,-56 284.49,-19.84 1032.61,-12.6 1243.79,-11.28"/>
<polygon fill="midnightblue" stroke="midnightblue" points="1660.74,-202.76 1670.72,-199.22 1660.71,-195.76 1660.74,-202.76"/>
</g>
<!-- Node29 -->
<g id="node29" class="node">
<title>Node29</title>
<g id="a_node29"><a xlink:href="RobotElement_8cpp.html" target="_top" xlink:title=" ">
<polygon fill="none" stroke="black" points="2450.85,-62 2450.85,-81 2556.85,-81 2556.85,-62 2450.85,-62"/>
<text text-anchor="middle" x="2503.85" y="-69" font-family="FreeSans.ttf" font-size="10.00">RobotElement.cpp</text>
</a>
</g>
</g>
<!-- Node1&#45;&gt;Node29 -->
<g id="edge41" class="edge">
<title>Node1&#45;&gt;Node29</title>
<path fill="none" stroke="midnightblue" d="M1745.23,-197.93C1888.82,-194.07 2351.38,-179.76 2412.85,-154 2451.19,-137.93 2484.16,-98.7 2497.51,-81.18"/>
<polygon fill="midnightblue" stroke="midnightblue" points="1744.97,-194.43 1735.06,-198.2 1745.15,-201.43 1744.97,-194.43"/>
</g>
<!-- Node30 -->
<g id="node30" class="node">
<title>Node30</title>
<g id="a_node30"><a xlink:href="AccelerometerSensor_8h.html" target="_top" xlink:title=" ">
<polygon fill="none" stroke="black" points="1171.35,-129 1171.35,-148 1300.35,-148 1300.35,-129 1171.35,-129"/>
<text text-anchor="middle" x="1235.85" y="-136" font-family="FreeSans.ttf" font-size="10.00">AccelerometerSensor.h</text>
</a>
</g>
</g>
<!-- Node1&#45;&gt;Node30 -->
<g id="edge43" class="edge">
<title>Node1&#45;&gt;Node30</title>
<path fill="none" stroke="midnightblue" d="M1660.81,-193.64C1578.95,-183.21 1397.7,-160.12 1300.47,-147.73"/>
<polygon fill="midnightblue" stroke="midnightblue" points="1660.39,-197.12 1670.75,-194.91 1661.27,-190.17 1660.39,-197.12"/>
</g>
<!-- Node33 -->
<g id="node33" class="node">
<title>Node33</title>
<g id="a_node33"><a xlink:href="PredictSensorsMeasurements_8cpp.html" target="_top" xlink:title=" ">
<polygon fill="none" stroke="black" points="930.85,-62 930.85,-81 1112.85,-81 1112.85,-62 930.85,-62"/>
<text text-anchor="middle" x="1021.85" y="-69" font-family="FreeSans.ttf" font-size="10.00">PredictSensorsMeasurements.cpp</text>
</a>
</g>
</g>
<!-- Node1&#45;&gt;Node33 -->
<g id="edge74" class="edge">
<title>Node1&#45;&gt;Node33</title>
<path fill="none" stroke="midnightblue" d="M1660.62,-197.86C1550.3,-194.52 1255.58,-183.05 1162.85,-154 1109.97,-137.43 1055.41,-98.46 1032.74,-81.1"/>
<polygon fill="midnightblue" stroke="midnightblue" points="1660.61,-201.37 1670.71,-198.16 1660.82,-194.37 1660.61,-201.37"/>
</g>
<!-- Node34 -->
<g id="node34" class="node">
<title>Node34</title>
<g id="a_node34"><a xlink:href="Sensors_8cpp.html" target="_top" xlink:title=" ">
<polygon fill="none" stroke="black" points="1327.35,-62 1327.35,-81 1402.35,-81 1402.35,-62 1327.35,-62"/>
<text text-anchor="middle" x="1364.85" y="-69" font-family="FreeSans.ttf" font-size="10.00">Sensors.cpp</text>
</a>
</g>
</g>
<!-- Node1&#45;&gt;Node34 -->
<g id="edge75" class="edge">
<title>Node1&#45;&gt;Node34</title>
<path fill="none" stroke="midnightblue" d="M1660.92,-189.34C1627.86,-181.26 1580.82,-168.7 1540.85,-154 1480.17,-131.69 1411.51,-97 1380.97,-81.05"/>
<polygon fill="midnightblue" stroke="midnightblue" points="1660.16,-192.76 1670.7,-191.71 1661.8,-185.96 1660.16,-192.76"/>
</g>
<!-- Node35 -->
<g id="node35" class="node">
<title>Node35</title>
<g id="a_node35"><a xlink:href="GyroscopeSensor_8h.html" target="_top" xlink:title=" ">
<polygon fill="none" stroke="black" points="966.85,-129 966.85,-148 1076.85,-148 1076.85,-129 966.85,-129"/>
<text text-anchor="middle" x="1021.85" y="-136" font-family="FreeSans.ttf" font-size="10.00">GyroscopeSensor.h</text>
</a>
</g>
</g>
<!-- Node1&#45;&gt;Node35 -->
<g id="edge50" class="edge">
<title>Node1&#45;&gt;Node35</title>
<path fill="none" stroke="midnightblue" d="M1660.29,-197.78C1560.54,-194.5 1304.02,-183.66 1091.85,-154 1080.91,-152.47 1069.12,-150.25 1058.39,-148.01"/>
<polygon fill="midnightblue" stroke="midnightblue" points="1660.46,-201.29 1670.56,-198.11 1660.68,-194.29 1660.46,-201.29"/>
</g>
<!-- Node37 -->
<g id="node37" class="node">
<title>Node37</title>
<g id="a_node37"><a xlink:href="SixAxisForceTorqueSensor_8h.html" target="_top" xlink:title=" ">
<polygon fill="none" stroke="black" points="1549.85,-129 1549.85,-148 1701.85,-148 1701.85,-129 1549.85,-129"/>
<text text-anchor="middle" x="1625.85" y="-136" font-family="FreeSans.ttf" font-size="10.00">SixAxisForceTorqueSensor.h</text>
</a>
</g>
</g>
<!-- Node1&#45;&gt;Node37 -->
<g id="edge56" class="edge">
<title>Node1&#45;&gt;Node37</title>
<path fill="none" stroke="midnightblue" d="M1683.82,-184.29C1669.05,-172.88 1649.09,-157.46 1636.86,-148.01"/>
<polygon fill="midnightblue" stroke="midnightblue" points="1681.77,-187.13 1691.82,-190.48 1686.05,-181.59 1681.77,-187.13"/>
</g>
<!-- Node38 -->
<g id="node38" class="node">
<title>Node38</title>
<g id="a_node38"><a xlink:href="ModelSensorsTransformers_8cpp.html" target="_top" xlink:title=" ">
<polygon fill="none" stroke="black" points="1874.35,-62 1874.35,-81 2043.35,-81 2043.35,-62 1874.35,-62"/>
<text text-anchor="middle" x="1958.85" y="-69" font-family="FreeSans.ttf" font-size="10.00">ModelSensorsTransformers.cpp</text>
</a>
</g>
</g>
<!-- Node1&#45;&gt;Node38 -->
<g id="edge73" class="edge">
<title>Node1&#45;&gt;Node38</title>
<path fill="none" stroke="midnightblue" d="M1729.2,-185.71C1759.48,-170.46 1810.67,-144.77 1854.85,-123 1885.1,-108.1 1920.43,-91 1941.15,-81.02"/>
<polygon fill="midnightblue" stroke="midnightblue" points="1727.5,-182.65 1720.14,-190.27 1730.65,-188.9 1727.5,-182.65"/>
</g>
<!-- Node40 -->
<g id="node40" class="node">
<title>Node40</title>
<g id="a_node40"><a xlink:href="ThreeAxisAngularAccelerometerSensor_8h.html" target="_top" xlink:title=" ">
<polygon fill="none" stroke="black" points="774.85,-123.5 774.85,-153.5 948.85,-153.5 948.85,-123.5 774.85,-123.5"/>
<text text-anchor="start" x="782.85" y="-141.5" font-family="FreeSans.ttf" font-size="10.00">ThreeAxisAngularAccelerometer</text>
<text text-anchor="middle" x="861.85" y="-130.5" font-family="FreeSans.ttf" font-size="10.00">Sensor.h</text>
</a>
</g>
</g>
<!-- Node1&#45;&gt;Node40 -->
<g id="edge66" class="edge">
<title>Node1&#45;&gt;Node40</title>
<path fill="none" stroke="midnightblue" d="M1660.79,-197.78C1547.18,-194.2 1224.64,-182.15 957.85,-154 954.92,-153.69 951.94,-153.36 948.93,-153"/>
<polygon fill="midnightblue" stroke="midnightblue" points="1660.71,-201.28 1670.82,-198.09 1660.93,-194.28 1660.71,-201.28"/>
</g>
<!-- Node42 -->
<g id="node42" class="node">
<title>Node42</title>
<g id="a_node42"><a xlink:href="ThreeAxisForceTorqueContactSensor_8h.html" target="_top" xlink:title=" ">
<polygon fill="none" stroke="black" points="595.35,-123.5 595.35,-153.5 756.35,-153.5 756.35,-123.5 595.35,-123.5"/>
<text text-anchor="start" x="603.35" y="-141.5" font-family="FreeSans.ttf" font-size="10.00">ThreeAxisForceTorqueContact</text>
<text text-anchor="middle" x="675.85" y="-130.5" font-family="FreeSans.ttf" font-size="10.00">Sensor.h</text>
</a>
</g>
</g>
<!-- Node1&#45;&gt;Node42 -->
<g id="edge70" class="edge">
<title>Node1&#45;&gt;Node42</title>
<path fill="none" stroke="midnightblue" d="M1660.69,-198.65C1528.43,-197.2 1110.06,-189.88 765.85,-154 762.86,-153.69 759.82,-153.34 756.75,-152.97"/>
<polygon fill="midnightblue" stroke="midnightblue" points="1660.76,-202.15 1670.8,-198.76 1660.83,-195.15 1660.76,-202.15"/>
</g>
<!-- Node2&#45;&gt;Node3 -->
<g id="edge2" class="edge">
<title>Node2&#45;&gt;Node3</title>
<path fill="none" stroke="midnightblue" d="M52.35,-124.9C34.93,-116.94 15.89,-104.75 5.85,-87 -0.93,-75.01 -2.68,-66.82 5.85,-56 22.8,-34.49 94.78,-22.07 144.32,-15.92"/>
<polygon fill="midnightblue" stroke="midnightblue" points="51.22,-128.22 61.79,-128.89 53.94,-121.77 51.22,-128.22"/>
</g>
<!-- Node4 -->
<g id="node4" class="node">
<title>Node4</title>
<g id="a_node4"><a xlink:href="BerdySparseMAPSolver_8cpp.html" target="_top" xlink:title=" ">
<polygon fill="none" stroke="black" points="14.85,-62 14.85,-81 164.85,-81 164.85,-62 14.85,-62"/>
<text text-anchor="middle" x="89.85" y="-69" font-family="FreeSans.ttf" font-size="10.00">BerdySparseMAPSolver.cpp</text>
</a>
</g>
</g>
<!-- Node2&#45;&gt;Node4 -->
<g id="edge3" class="edge">
<title>Node2&#45;&gt;Node4</title>
<path fill="none" stroke="midnightblue" d="M89.85,-118.54C89.85,-106.17 89.85,-90.62 89.85,-81.13"/>
<polygon fill="midnightblue" stroke="midnightblue" points="86.35,-118.73 89.85,-128.73 93.35,-118.73 86.35,-118.73"/>
</g>
<!-- Node5&#45;&gt;Node6 -->
<g id="edge5" class="edge">
<title>Node5&#45;&gt;Node6</title>
<path fill="none" stroke="midnightblue" d="M1995.2,-120.23C2027.07,-109.71 2067.26,-96.45 2097.19,-86.58"/>
<polygon fill="midnightblue" stroke="midnightblue" points="1994,-116.94 1985.6,-123.4 1996.19,-123.59 1994,-116.94"/>
</g>
<!-- Node9 -->
<g id="node9" class="node">
<title>Node9</title>
<g id="a_node9"><a xlink:href="ModelCalibrationHelper_8cpp.html" target="_top" xlink:title=" ">
<polygon fill="none" stroke="black" points="3015.85,-0.5 3015.85,-19.5 3167.85,-19.5 3167.85,-0.5 3015.85,-0.5"/>
<text text-anchor="middle" x="3091.85" y="-7.5" font-family="FreeSans.ttf" font-size="10.00">ModelCalibrationHelper.cpp</text>
</a>
</g>
</g>
<!-- Node8&#45;&gt;Node9 -->
<g id="edge10" class="edge">
<title>Node8&#45;&gt;Node9</title>
<path fill="none" stroke="midnightblue" d="M3002.23,-57.37C3024.52,-45.83 3056.29,-29.4 3075.4,-19.51"/>
<polygon fill="midnightblue" stroke="midnightblue" points="3000.6,-54.27 2993.33,-61.98 3003.82,-60.49 3000.6,-54.27"/>
</g>
<!-- Node10&#45;&gt;Node8 -->
<g id="edge12" class="edge">
<title>Node10&#45;&gt;Node8</title>
<path fill="none" stroke="midnightblue" d="M2850.17,-124.95C2881.25,-112.08 2928.78,-92.4 2955.92,-81.17"/>
<polygon fill="midnightblue" stroke="midnightblue" points="2848.6,-121.81 2840.7,-128.87 2851.28,-128.28 2848.6,-121.81"/>
</g>
<!-- Node10&#45;&gt;Node9 -->
<g id="edge16" class="edge">
<title>Node10&#45;&gt;Node9</title>
<path fill="none" stroke="midnightblue" d="M2833.62,-121.02C2851.7,-99.76 2882.89,-64.52 2897.85,-56 2921.81,-42.36 2991.22,-28.25 3040.15,-19.55"/>
<polygon fill="midnightblue" stroke="midnightblue" points="2830.74,-119 2826.97,-128.9 2836.09,-123.51 2830.74,-119"/>
</g>
<!-- Node11 -->
<g id="node11" class="node">
<title>Node11</title>
<g id="a_node11"><a xlink:href="URDFModelExport_8h.html" target="_top" xlink:title=" ">
<polygon fill="none" stroke="black" points="2735.35,-62 2735.35,-81 2850.35,-81 2850.35,-62 2735.35,-62"/>
<text text-anchor="middle" x="2792.85" y="-69" font-family="FreeSans.ttf" font-size="10.00">URDFModelExport.h</text>
</a>
</g>
</g>
<!-- Node10&#45;&gt;Node11 -->
<g id="edge13" class="edge">
<title>Node10&#45;&gt;Node11</title>
<path fill="none" stroke="midnightblue" d="M2812.29,-119.29C2807.1,-106.81 2800.46,-90.81 2796.43,-81.13"/>
<polygon fill="midnightblue" stroke="midnightblue" points="2809.14,-120.84 2816.21,-128.73 2815.6,-118.16 2809.14,-120.84"/>
</g>
<!-- Node12 -->
<g id="node12" class="node">
<title>Node12</title>
<g id="a_node12"><a xlink:href="ModelExporter_8cpp.html" target="_top" xlink:title=" ">
<polygon fill="none" stroke="black" points="2628.35,-0.5 2628.35,-19.5 2735.35,-19.5 2735.35,-0.5 2628.35,-0.5"/>
<text text-anchor="middle" x="2681.85" y="-7.5" font-family="FreeSans.ttf" font-size="10.00">ModelExporter.cpp</text>
</a>
</g>
</g>
<!-- Node10&#45;&gt;Node12 -->
<g id="edge17" class="edge">
<title>Node10&#45;&gt;Node12</title>
<path fill="none" stroke="midnightblue" d="M2786.95,-124.89C2767.77,-116.34 2744.05,-103.58 2726.85,-87 2705.87,-66.78 2691.24,-34.71 2685.1,-19.52"/>
<polygon fill="midnightblue" stroke="midnightblue" points="2785.66,-128.15 2796.23,-128.86 2788.42,-121.71 2785.66,-128.15"/>
</g>
<!-- Node14 -->
<g id="node14" class="node">
<title>Node14</title>
<g id="a_node14"><a xlink:href="idyntree-model-simplify-shapes_8cpp.html" target="_top" xlink:title=" ">
<polygon fill="none" stroke="black" points="3064.85,-56.5 3064.85,-86.5 3198.85,-86.5 3198.85,-56.5 3064.85,-56.5"/>
<text text-anchor="start" x="3072.85" y="-74.5" font-family="FreeSans.ttf" font-size="10.00">idyntree&#45;model&#45;simplify</text>
<text text-anchor="middle" x="3131.85" y="-63.5" font-family="FreeSans.ttf" font-size="10.00">&#45;shapes.cpp</text>
</a>
</g>
</g>
<!-- Node10&#45;&gt;Node14 -->
<g id="edge18" class="edge">
<title>Node10&#45;&gt;Node14</title>
<path fill="none" stroke="midnightblue" d="M2870.79,-126.89C2923.62,-115.88 3006.49,-98.62 3064.66,-86.5"/>
<polygon fill="midnightblue" stroke="midnightblue" points="2870.04,-123.47 2860.96,-128.94 2871.46,-130.32 2870.04,-123.47"/>
</g>
<!-- Node11&#45;&gt;Node12 -->
<g id="edge14" class="edge">
<title>Node11&#45;&gt;Node12</title>
<path fill="none" stroke="midnightblue" d="M2768.06,-57.21C2746.56,-45.69 2716.09,-29.36 2697.72,-19.51"/>
<polygon fill="midnightblue" stroke="midnightblue" points="2766.48,-60.34 2776.95,-61.98 2769.79,-54.17 2766.48,-60.34"/>
</g>
<!-- Node13 -->
<g id="node13" class="node">
<title>Node13</title>
<g id="a_node13"><a xlink:href="URDFModelExport_8cpp.html" target="_top" xlink:title=" ">
<polygon fill="none" stroke="black" points="2753.85,-0.5 2753.85,-19.5 2879.85,-19.5 2879.85,-0.5 2753.85,-0.5"/>
<text text-anchor="middle" x="2816.85" y="-7.5" font-family="FreeSans.ttf" font-size="10.00">URDFModelExport.cpp</text>
</a>
</g>
</g>
<!-- Node11&#45;&gt;Node13 -->
<g id="edge15" class="edge">
<title>Node11&#45;&gt;Node13</title>
<path fill="none" stroke="midnightblue" d="M2800.11,-52.5C2804.53,-41.55 2809.96,-28.07 2813.42,-19.51"/>
<polygon fill="midnightblue" stroke="midnightblue" points="2796.78,-51.39 2796.29,-61.98 2803.28,-54.01 2796.78,-51.39"/>
</g>
<!-- Node15&#45;&gt;Node6 -->
<g id="edge20" class="edge">
<title>Node15&#45;&gt;Node6</title>
<path fill="none" stroke="midnightblue" d="M3352.41,-136.45C3188.15,-132.99 2683.14,-120.2 2265.85,-87 2250.7,-85.79 2234.57,-84.19 2219.08,-82.48"/>
<polygon fill="midnightblue" stroke="midnightblue" points="3352.66,-139.96 3362.73,-136.66 3352.8,-132.96 3352.66,-139.96"/>
</g>
<!-- Node15&#45;&gt;Node9 -->
<g id="edge27" class="edge">
<title>Node15&#45;&gt;Node9</title>
<path fill="none" stroke="midnightblue" d="M3461.21,-135.44C3575.97,-130.54 3834.6,-116.33 3860.85,-87 3870.04,-76.73 3870.3,-66.02 3860.85,-56 3837.32,-31.05 3357.78,-17.19 3168.1,-12.67"/>
<polygon fill="midnightblue" stroke="midnightblue" points="3460.74,-131.96 3450.9,-135.88 3461.03,-138.95 3460.74,-131.96"/>
</g>
<!-- Node15&#45;&gt;Node14 -->
<g id="edge31" class="edge">
<title>Node15&#45;&gt;Node14</title>
<path fill="none" stroke="midnightblue" d="M3360.8,-126.62C3314.27,-115.62 3242.17,-98.58 3191.33,-86.56"/>
<polygon fill="midnightblue" stroke="midnightblue" points="3360.08,-130.04 3370.62,-128.94 3361.69,-123.23 3360.08,-130.04"/>
</g>
<!-- Node16 -->
<g id="node16" class="node">
<title>Node16</title>
<g id="a_node16"><a xlink:href="SimpleLeggedOdometry_8cpp.html" target="_top" xlink:title=" ">
<polygon fill="none" stroke="black" points="3908.35,-62 3908.35,-81 4061.35,-81 4061.35,-62 3908.35,-62"/>
<text text-anchor="middle" x="3984.85" y="-69" font-family="FreeSans.ttf" font-size="10.00">SimpleLeggedOdometry.cpp</text>
</a>
</g>
</g>
<!-- Node15&#45;&gt;Node16 -->
<g id="edge21" class="edge">
<title>Node15&#45;&gt;Node16</title>
<path fill="none" stroke="midnightblue" d="M3460.9,-132.87C3550.88,-124.94 3737.03,-107.61 3893.85,-87 3907.02,-85.27 3921.21,-83.14 3934.38,-81.05"/>
<polygon fill="midnightblue" stroke="midnightblue" points="3460.59,-129.38 3450.93,-133.74 3461.2,-136.36 3460.59,-129.38"/>
</g>
<!-- Node17 -->
<g id="node17" class="node">
<title>Node17</title>
<g id="a_node17"><a xlink:href="KinDynComputations_8cpp.html" target="_top" xlink:title=" ">
<polygon fill="none" stroke="black" points="4079.85,-62 4079.85,-81 4219.85,-81 4219.85,-62 4079.85,-62"/>
<text text-anchor="middle" x="4149.85" y="-69" font-family="FreeSans.ttf" font-size="10.00">KinDynComputations.cpp</text>
</a>
</g>
</g>
<!-- Node15&#45;&gt;Node17 -->
<g id="edge22" class="edge">
<title>Node15&#45;&gt;Node17</title>
<path fill="none" stroke="midnightblue" d="M3461.08,-135.32C3574.6,-130.32 3845.43,-116.18 4070.85,-87 4083.02,-85.42 4096.16,-83.22 4108.16,-81"/>
<polygon fill="midnightblue" stroke="midnightblue" points="3460.75,-131.83 3450.91,-135.76 3461.06,-138.82 3460.75,-131.83"/>
</g>
<!-- Node18 -->
<g id="node18" class="node">
<title>Node18</title>
<g id="a_node18"><a xlink:href="InverseKinematicsData_8cpp.html" target="_top" xlink:title=" ">
<polygon fill="none" stroke="black" points="3255.35,-62 3255.35,-81 3406.35,-81 3406.35,-62 3255.35,-62"/>
<text text-anchor="middle" x="3330.85" y="-69" font-family="FreeSans.ttf" font-size="10.00">InverseKinematicsData.cpp</text>
</a>
</g>
</g>
<!-- Node15&#45;&gt;Node18 -->
<g id="edge23" class="edge">
<title>Node15&#45;&gt;Node18</title>
<path fill="none" stroke="midnightblue" d="M3388.98,-122.21C3374,-109.41 3353.17,-91.59 3340.94,-81.13"/>
<polygon fill="midnightblue" stroke="midnightblue" points="3386.73,-124.89 3396.6,-128.73 3391.28,-119.57 3386.73,-124.89"/>
</g>
<!-- Node15&#45;&gt;Node19 -->
<g id="edge24" class="edge">
<title>Node15&#45;&gt;Node19</title>
<path fill="none" stroke="midnightblue" d="M3352.6,-134.76C3237.22,-128.65 2959.02,-112.42 2726.85,-87 2711.24,-85.29 2694.33,-83 2678.92,-80.75"/>
<polygon fill="midnightblue" stroke="midnightblue" points="3352.43,-138.26 3362.6,-135.29 3352.8,-131.27 3352.43,-138.26"/>
</g>
<!-- Node20 -->
<g id="node20" class="node">
<title>Node20</title>
<g id="a_node20"><a xlink:href="ModelLoader_8cpp.html" target="_top" xlink:title=" ">
<polygon fill="none" stroke="black" points="2898.35,-0.5 2898.35,-19.5 2997.35,-19.5 2997.35,-0.5 2898.35,-0.5"/>
<text text-anchor="middle" x="2947.85" y="-7.5" font-family="FreeSans.ttf" font-size="10.00">ModelLoader.cpp</text>
</a>
</g>
</g>
<!-- Node15&#45;&gt;Node20 -->
<g id="edge28" class="edge">
<title>Node15&#45;&gt;Node20</title>
<path fill="none" stroke="midnightblue" d="M3356.04,-126.53C3323.62,-118.33 3281.35,-105.34 3246.85,-87 3227.3,-76.61 3228.05,-65.06 3207.85,-56 3198.31,-51.72 3070.24,-30.68 2997.48,-18.94"/>
<polygon fill="midnightblue" stroke="midnightblue" points="3355.22,-129.93 3365.77,-128.93 3356.9,-123.14 3355.22,-129.93"/>
</g>
<!-- Node22 -->
<g id="node22" class="node">
<title>Node22</title>
<g id="a_node22"><a xlink:href="URDFDofsImport_8cpp.html" target="_top" xlink:title=" ">
<polygon fill="none" stroke="black" points="3424.35,-62 3424.35,-81 3543.35,-81 3543.35,-62 3424.35,-62"/>
<text text-anchor="middle" x="3483.85" y="-69" font-family="FreeSans.ttf" font-size="10.00">URDFDofsImport.cpp</text>
</a>
</g>
</g>
<!-- Node15&#45;&gt;Node22 -->
<g id="edge29" class="edge">
<title>Node15&#45;&gt;Node22</title>
<path fill="none" stroke="midnightblue" d="M3424.96,-122.21C3440.13,-109.41 3461.24,-91.59 3473.63,-81.13"/>
<polygon fill="midnightblue" stroke="midnightblue" points="3422.62,-119.61 3417.23,-128.73 3427.13,-124.96 3422.62,-119.61"/>
</g>
<!-- Node23 -->
<g id="node23" class="node">
<title>Node23</title>
<g id="a_node23"><a xlink:href="idyntree-model-info_8cpp.html" target="_top" xlink:title=" ">
<polygon fill="none" stroke="black" points="3561.85,-62 3561.85,-81 3695.85,-81 3695.85,-62 3561.85,-62"/>
<text text-anchor="middle" x="3628.85" y="-69" font-family="FreeSans.ttf" font-size="10.00">idyntree&#45;model&#45;info.cpp</text>
</a>
</g>
</g>
<!-- Node15&#45;&gt;Node23 -->
<g id="edge30" class="edge">
<title>Node15&#45;&gt;Node23</title>
<path fill="none" stroke="midnightblue" d="M3446.09,-126.01C3490.03,-113.15 3560.22,-92.59 3599.6,-81.06"/>
<polygon fill="midnightblue" stroke="midnightblue" points="3444.94,-122.7 3436.33,-128.87 3446.91,-129.42 3444.94,-122.7"/>
</g>
<!-- Node24 -->
<g id="node24" class="node">
<title>Node24</title>
<g id="a_node24"><a xlink:href="idyntree-model-view_8cpp.html" target="_top" xlink:title=" ">
<polygon fill="none" stroke="black" points="3714.35,-62 3714.35,-81 3851.35,-81 3851.35,-62 3714.35,-62"/>
<text text-anchor="middle" x="3782.85" y="-69" font-family="FreeSans.ttf" font-size="10.00">idyntree&#45;model&#45;view.cpp</text>
</a>
</g>
</g>
<!-- Node15&#45;&gt;Node24 -->
<g id="edge32" class="edge">
<title>Node15&#45;&gt;Node24</title>
<path fill="none" stroke="midnightblue" d="M3461.29,-128.54C3521.07,-118.64 3619.87,-102.1 3704.85,-87 3715.43,-85.12 3726.8,-83.04 3737.5,-81.06"/>
<polygon fill="midnightblue" stroke="midnightblue" points="3460.61,-125.11 3451.32,-130.19 3461.75,-132.01 3460.61,-125.11"/>
</g>
<!-- Node19&#45;&gt;Node20 -->
<g id="edge25" class="edge">
<title>Node19&#45;&gt;Node20</title>
<path fill="none" stroke="midnightblue" d="M2682.87,-60.12C2745.03,-48.59 2844.18,-30.22 2901.94,-19.51"/>
<polygon fill="midnightblue" stroke="midnightblue" points="2682.04,-56.71 2672.84,-61.98 2683.31,-63.59 2682.04,-56.71"/>
</g>
<!-- Node21 -->
<g id="node21" class="node">
<title>Node21</title>
<g id="a_node21"><a xlink:href="URDFDocument_8cpp.html" target="_top" xlink:title=" ">
<polygon fill="none" stroke="black" points="2117.35,-0.5 2117.35,-19.5 2232.35,-19.5 2232.35,-0.5 2117.35,-0.5"/>
<text text-anchor="middle" x="2174.85" y="-7.5" font-family="FreeSans.ttf" font-size="10.00">URDFDocument.cpp</text>
</a>
</g>
</g>
<!-- Node19&#45;&gt;Node21 -->
<g id="edge26" class="edge">
<title>Node19&#45;&gt;Node21</title>
<path fill="none" stroke="midnightblue" d="M2584.02,-59.64C2577.95,-58.3 2571.76,-57.04 2565.85,-56 2448.25,-35.33 2309.01,-21.91 2232.47,-15.48"/>
<polygon fill="midnightblue" stroke="midnightblue" points="2583.54,-63.12 2594.07,-61.95 2585.11,-56.3 2583.54,-63.12"/>
</g>
<!-- Node25&#45;&gt;Node19 -->
<g id="edge37" class="edge">
<title>Node25&#45;&gt;Node19</title>
<path fill="none" stroke="midnightblue" d="M2399.78,-126.56C2453.6,-113.75 2541.65,-92.78 2590.8,-81.08"/>
<polygon fill="midnightblue" stroke="midnightblue" points="2398.74,-123.21 2389.82,-128.94 2400.36,-130.02 2398.74,-123.21"/>
</g>
<!-- Node26 -->
<g id="node26" class="node">
<title>Node26</title>
<g id="a_node26"><a xlink:href="ForceTorqueSensorElement_8h.html" target="_top" xlink:title=" ">
<polygon fill="none" stroke="black" points="2274.85,-62 2274.85,-81 2432.85,-81 2432.85,-62 2274.85,-62"/>
<text text-anchor="middle" x="2353.85" y="-69" font-family="FreeSans.ttf" font-size="10.00">ForceTorqueSensorElement.h</text>
</a>
</g>
</g>
<!-- Node25&#45;&gt;Node26 -->
<g id="edge34" class="edge">
<title>Node25&#45;&gt;Node26</title>
<path fill="none" stroke="midnightblue" d="M2353.85,-118.54C2353.85,-106.17 2353.85,-90.62 2353.85,-81.13"/>
<polygon fill="midnightblue" stroke="midnightblue" points="2350.35,-118.73 2353.85,-128.73 2357.35,-118.73 2350.35,-118.73"/>
</g>
<!-- Node25&#45;&gt;Node28 -->
<g id="edge39" class="edge">
<title>Node25&#45;&gt;Node28</title>
<path fill="none" stroke="midnightblue" d="M2327.91,-124.06C2310.01,-114.45 2285.93,-100.82 2265.85,-87 2247.89,-74.65 2248.2,-63.81 2227.85,-56 2186.96,-40.31 1547.88,-18.89 1354.12,-12.72"/>
<polygon fill="midnightblue" stroke="midnightblue" points="2326.67,-127.37 2337.14,-128.97 2329.95,-121.19 2326.67,-127.37"/>
</g>
<!-- Node25&#45;&gt;Node29 -->
<g id="edge38" class="edge">
<title>Node25&#45;&gt;Node29</title>
<path fill="none" stroke="midnightblue" d="M2383.2,-124.78C2412.91,-111.91 2458.03,-92.35 2483.85,-81.17"/>
<polygon fill="midnightblue" stroke="midnightblue" points="2381.55,-121.68 2373.77,-128.87 2384.34,-128.1 2381.55,-121.68"/>
</g>
<!-- Node27 -->
<g id="node27" class="node">
<title>Node27</title>
<g id="a_node27"><a xlink:href="ForceTorqueSensorElement_8cpp.html" target="_top" xlink:title=" ">
<polygon fill="none" stroke="black" points="1717.35,-0.5 1717.35,-19.5 1886.35,-19.5 1886.35,-0.5 1717.35,-0.5"/>
<text text-anchor="middle" x="1801.85" y="-7.5" font-family="FreeSans.ttf" font-size="10.00">ForceTorqueSensorElement.cpp</text>
</a>
</g>
</g>
<!-- Node26&#45;&gt;Node27 -->
<g id="edge35" class="edge">
<title>Node26&#45;&gt;Node27</title>
<path fill="none" stroke="midnightblue" d="M2292.72,-60.46C2282.11,-58.86 2271.17,-57.31 2260.85,-56 2130.58,-39.47 1978.85,-25.65 1886.61,-17.85"/>
<polygon fill="midnightblue" stroke="midnightblue" points="2292.34,-63.94 2302.76,-62 2293.4,-57.03 2292.34,-63.94"/>
</g>
<!-- Node26&#45;&gt;Node28 -->
<g id="edge36" class="edge">
<title>Node26&#45;&gt;Node28</title>
<path fill="none" stroke="midnightblue" d="M2295.74,-60.45C2284.21,-58.74 2272.17,-57.14 2260.85,-56 1917.13,-21.27 1501.56,-13.29 1354.04,-11.5"/>
<polygon fill="midnightblue" stroke="midnightblue" points="2295.29,-63.92 2305.71,-61.98 2296.36,-57.01 2295.29,-63.92"/>
</g>
<!-- Node30&#45;&gt;Node28 -->
<g id="edge44" class="edge">
<title>Node30&#45;&gt;Node28</title>
<path fill="none" stroke="midnightblue" d="M1253,-121.83C1262.21,-112.54 1273.04,-100.05 1279.85,-87 1291.55,-64.57 1296.28,-34.61 1297.99,-19.91"/>
<polygon fill="midnightblue" stroke="midnightblue" points="1250.52,-119.36 1245.77,-128.83 1255.39,-124.39 1250.52,-119.36"/>
</g>
<!-- Node31 -->
<g id="node31" class="node">
<title>Node31</title>
<g id="a_node31"><a xlink:href="AllSensorsTypes_8h.html" target="_top" xlink:title=" ">
<polygon fill="none" stroke="black" points="630.85,-62 630.85,-81 734.85,-81 734.85,-62 630.85,-62"/>
<text text-anchor="middle" x="682.85" y="-69" font-family="FreeSans.ttf" font-size="10.00">AllSensorsTypes.h</text>
</a>
</g>
</g>
<!-- Node30&#45;&gt;Node31 -->
<g id="edge45" class="edge">
<title>Node30&#45;&gt;Node31</title>
<path fill="none" stroke="midnightblue" d="M1160.91,-130.05C1028.48,-116.84 765.03,-90.38 744.85,-87 735.37,-85.41 725.17,-83.23 715.83,-81.04"/>
<polygon fill="midnightblue" stroke="midnightblue" points="1160.69,-133.54 1170.99,-131.05 1161.39,-126.58 1160.69,-133.54"/>
</g>
<!-- Node32 -->
<g id="node32" class="node">
<title>Node32</title>
<g id="a_node32"><a xlink:href="AccelerometerSensor_8cpp.html" target="_top" xlink:title=" ">
<polygon fill="none" stroke="black" points="1130.85,-62 1130.85,-81 1270.85,-81 1270.85,-62 1130.85,-62"/>
<text text-anchor="middle" x="1200.85" y="-69" font-family="FreeSans.ttf" font-size="10.00">AccelerometerSensor.cpp</text>
</a>
</g>
</g>
<!-- Node30&#45;&gt;Node32 -->
<g id="edge47" class="edge">
<title>Node30&#45;&gt;Node32</title>
<path fill="none" stroke="midnightblue" d="M1226.25,-119.66C1219.5,-107.13 1210.76,-90.91 1205.5,-81.13"/>
<polygon fill="midnightblue" stroke="midnightblue" points="1223.31,-121.59 1231.13,-128.73 1229.47,-118.27 1223.31,-121.59"/>
</g>
<!-- Node30&#45;&gt;Node33 -->
<g id="edge48" class="edge">
<title>Node30&#45;&gt;Node33</title>
<path fill="none" stroke="midnightblue" d="M1197.75,-125.93C1155.38,-113.06 1087.93,-92.57 1050.04,-81.06"/>
<polygon fill="midnightblue" stroke="midnightblue" points="1196.85,-129.31 1207.43,-128.87 1198.88,-122.61 1196.85,-129.31"/>
</g>
<!-- Node30&#45;&gt;Node34 -->
<g id="edge49" class="edge">
<title>Node30&#45;&gt;Node34</title>
<path fill="none" stroke="midnightblue" d="M1262.1,-124.27C1287.65,-111.4 1325.74,-92.21 1347.65,-81.17"/>
<polygon fill="midnightblue" stroke="midnightblue" points="1260.34,-121.24 1252.98,-128.87 1263.49,-127.49 1260.34,-121.24"/>
</g>
<!-- Node31&#45;&gt;Node3 -->
<g id="edge46" class="edge">
<title>Node31&#45;&gt;Node3</title>
<path fill="none" stroke="midnightblue" d="M640.24,-59.64C634.1,-58.28 627.83,-57.02 621.85,-56 484.91,-32.64 321.18,-19.51 241.38,-14.04"/>
<polygon fill="midnightblue" stroke="midnightblue" points="639.87,-63.14 650.4,-61.97 641.44,-56.32 639.87,-63.14"/>
</g>
<!-- Node35&#45;&gt;Node28 -->
<g id="edge51" class="edge">
<title>Node35&#45;&gt;Node28</title>
<path fill="none" stroke="midnightblue" d="M985.97,-125.32C948.01,-110.58 896.8,-84.21 921.85,-56 942.83,-32.37 1143.89,-18.89 1243.49,-13.62"/>
<polygon fill="midnightblue" stroke="midnightblue" points="985.17,-128.76 995.77,-128.99 987.63,-122.2 985.17,-128.76"/>
</g>
<!-- Node35&#45;&gt;Node31 -->
<g id="edge52" class="edge">
<title>Node35&#45;&gt;Node31</title>
<path fill="none" stroke="midnightblue" d="M975.73,-126.73C969.73,-125.42 963.65,-124.15 957.85,-123 863.66,-104.39 838.97,-105.94 744.85,-87 735.96,-85.21 726.41,-83.08 717.53,-81.01"/>
<polygon fill="midnightblue" stroke="midnightblue" points="975.19,-130.2 985.71,-128.94 976.7,-123.36 975.19,-130.2"/>
</g>
<!-- Node35&#45;&gt;Node33 -->
<g id="edge54" class="edge">
<title>Node35&#45;&gt;Node33</title>
<path fill="none" stroke="midnightblue" d="M1021.85,-118.54C1021.85,-106.17 1021.85,-90.62 1021.85,-81.13"/>
<polygon fill="midnightblue" stroke="midnightblue" points="1018.35,-118.73 1021.85,-128.73 1025.35,-118.73 1018.35,-118.73"/>
</g>
<!-- Node35&#45;&gt;Node34 -->
<g id="edge55" class="edge">
<title>Node35&#45;&gt;Node34</title>
<path fill="none" stroke="midnightblue" d="M1077.03,-127.04C1147.24,-113.74 1266.63,-91.11 1327.2,-79.63"/>
<polygon fill="midnightblue" stroke="midnightblue" points="1076.22,-123.63 1067.04,-128.94 1077.52,-130.51 1076.22,-123.63"/>
</g>
<!-- Node36 -->
<g id="node36" class="node">
<title>Node36</title>
<g id="a_node36"><a xlink:href="GyroscopeSensor_8cpp.html" target="_top" xlink:title=" ">
<polygon fill="none" stroke="black" points="753.35,-62 753.35,-81 874.35,-81 874.35,-62 753.35,-62"/>
<text text-anchor="middle" x="813.85" y="-69" font-family="FreeSans.ttf" font-size="10.00">GyroscopeSensor.cpp</text>
</a>
</g>
</g>
<!-- Node35&#45;&gt;Node36 -->
<g id="edge53" class="edge">
<title>Node35&#45;&gt;Node36</title>
<path fill="none" stroke="midnightblue" d="M984.56,-125.85C943.36,-112.97 878,-92.55 841.25,-81.06"/>
<polygon fill="midnightblue" stroke="midnightblue" points="983.64,-129.23 994.23,-128.87 985.73,-122.55 983.64,-129.23"/>
</g>
<!-- Node37&#45;&gt;Node6 -->
<g id="edge58" class="edge">
<title>Node37&#45;&gt;Node6</title>
<path fill="none" stroke="midnightblue" d="M1711.98,-128.53C1798.33,-119.24 1935.02,-103.78 2052.85,-87 2055.43,-86.63 2058.05,-86.25 2060.69,-85.86"/>
<polygon fill="midnightblue" stroke="midnightblue" points="1711.54,-125.05 1701.97,-129.6 1712.28,-132.01 1711.54,-125.05"/>
</g>
<!-- Node37&#45;&gt;Node7 -->
<g id="edge57" class="edge">
<title>Node37&#45;&gt;Node7</title>
<path fill="none" stroke="midnightblue" d="M1654,-124.61C1682.13,-111.74 1724.58,-92.31 1748.92,-81.17"/>
<polygon fill="midnightblue" stroke="midnightblue" points="1652.34,-121.52 1644.71,-128.87 1655.26,-127.89 1652.34,-121.52"/>
</g>
<!-- Node37&#45;&gt;Node21 -->
<g id="edge60" class="edge">
<title>Node37&#45;&gt;Node21</title>
<path fill="none" stroke="midnightblue" d="M1630.3,-119.03C1636,-99.79 1647.86,-70.48 1669.85,-56 1706.52,-31.86 1992.72,-18.01 2117.27,-13.08"/>
<polygon fill="midnightblue" stroke="midnightblue" points="1626.9,-118.19 1627.69,-128.76 1633.66,-120.01 1626.9,-118.19"/>
</g>
<!-- Node37&#45;&gt;Node27 -->
<g id="edge59" class="edge">
<title>Node37&#45;&gt;Node27</title>
<path fill="none" stroke="midnightblue" d="M1622.95,-118.62C1621.27,-100.38 1621.89,-73.08 1636.85,-56 1651.28,-39.53 1703.86,-27.1 1745.83,-19.52"/>
<polygon fill="midnightblue" stroke="midnightblue" points="1619.49,-119.14 1624.18,-128.63 1626.43,-118.28 1619.49,-119.14"/>
</g>
<!-- Node37&#45;&gt;Node31 -->
<g id="edge61" class="edge">
<title>Node37&#45;&gt;Node31</title>
<path fill="none" stroke="midnightblue" d="M1539.44,-133.4C1332.9,-123.47 821.97,-98.14 744.85,-87 734.89,-85.56 724.18,-83.31 714.51,-81.01"/>
<polygon fill="midnightblue" stroke="midnightblue" points="1539.48,-136.9 1549.64,-133.89 1539.82,-129.91 1539.48,-136.9"/>
</g>
<!-- Node37&#45;&gt;Node33 -->
<g id="edge63" class="edge">
<title>Node37&#45;&gt;Node33</title>
<path fill="none" stroke="midnightblue" d="M1539.64,-130.03C1439.19,-121.05 1268.26,-104.94 1121.85,-87 1107.48,-85.24 1091.99,-83.11 1077.59,-81.03"/>
<polygon fill="midnightblue" stroke="midnightblue" points="1539.47,-133.53 1549.74,-130.93 1540.09,-126.55 1539.47,-133.53"/>
</g>
<!-- Node37&#45;&gt;Node34 -->
<g id="edge64" class="edge">
<title>Node37&#45;&gt;Node34</title>
<path fill="none" stroke="midnightblue" d="M1576.44,-126.83C1532.91,-117.2 1467.9,-102.24 1411.85,-87 1405.26,-85.21 1398.2,-83.12 1391.6,-81.1"/>
<polygon fill="midnightblue" stroke="midnightblue" points="1575.69,-130.25 1586.21,-128.99 1577.19,-123.42 1575.69,-130.25"/>
</g>
<!-- Node37&#45;&gt;Node38 -->
<g id="edge62" class="edge">
<title>Node37&#45;&gt;Node38</title>
<path fill="none" stroke="midnightblue" d="M1679.86,-126.96C1745.4,-114.16 1854.63,-92.84 1915.14,-81.03"/>
<polygon fill="midnightblue" stroke="midnightblue" points="1678.87,-123.58 1669.73,-128.94 1680.21,-130.45 1678.87,-123.58"/>
</g>
<!-- Node39 -->
<g id="node39" class="node">
<title>Node39</title>
<g id="a_node39"><a xlink:href="SixAxisForceTorqueSensor_8cpp.html" target="_top" xlink:title=" ">
<polygon fill="none" stroke="black" points="1420.85,-62 1420.85,-81 1584.85,-81 1584.85,-62 1420.85,-62"/>
<text text-anchor="middle" x="1502.85" y="-69" font-family="FreeSans.ttf" font-size="10.00">SixAxisForceTorqueSensor.cpp</text>
</a>
</g>
</g>
<!-- Node37&#45;&gt;Node39 -->
<g id="edge65" class="edge">
<title>Node37&#45;&gt;Node39</title>
<path fill="none" stroke="midnightblue" d="M1600.5,-124.1C1576.14,-111.23 1540.05,-92.16 1519.25,-81.17"/>
<polygon fill="midnightblue" stroke="midnightblue" points="1599.04,-127.29 1609.52,-128.87 1602.31,-121.1 1599.04,-127.29"/>
</g>
<!-- Node40&#45;&gt;Node31 -->
<g id="edge67" class="edge">
<title>Node40&#45;&gt;Node31</title>
<path fill="none" stroke="midnightblue" d="M813.51,-119.95C778.74,-107.32 733.38,-90.85 706.28,-81.01"/>
<polygon fill="midnightblue" stroke="midnightblue" points="812.42,-123.27 823.01,-123.4 814.81,-116.69 812.42,-123.27"/>
</g>
<!-- Node40&#45;&gt;Node33 -->
<g id="edge68" class="edge">
<title>Node40&#45;&gt;Node33</title>
<path fill="none" stroke="midnightblue" d="M905.86,-119.62C936.83,-107.04 976.89,-90.77 1000.91,-81.01"/>
<polygon fill="midnightblue" stroke="midnightblue" points="904.52,-116.39 896.57,-123.4 907.15,-122.87 904.52,-116.39"/>
</g>
<!-- Node41 -->
<g id="node41" class="node">
<title>Node41</title>
<g id="a_node41"><a xlink:href="ThreeAxisAngularAccelerometerSensor_8cpp.html" target="_top" xlink:title=" ">
<polygon fill="none" stroke="black" points="438.85,-56.5 438.85,-86.5 612.85,-86.5 612.85,-56.5 438.85,-56.5"/>
<text text-anchor="start" x="446.85" y="-74.5" font-family="FreeSans.ttf" font-size="10.00">ThreeAxisAngularAccelerometer</text>
<text text-anchor="middle" x="525.85" y="-63.5" font-family="FreeSans.ttf" font-size="10.00">Sensor.cpp</text>
</a>
</g>
</g>
<!-- Node40&#45;&gt;Node41 -->
<g id="edge69" class="edge">
<title>Node40&#45;&gt;Node41</title>
<path fill="none" stroke="midnightblue" d="M779.22,-121.52C723.87,-110.81 651.66,-96.84 598.5,-86.55"/>
<polygon fill="midnightblue" stroke="midnightblue" points="778.87,-125.01 789.36,-123.48 780.2,-118.14 778.87,-125.01"/>
</g>
<!-- Node42&#45;&gt;Node31 -->
<g id="edge71" class="edge">
<title>Node42&#45;&gt;Node31</title>
<path fill="none" stroke="midnightblue" d="M678.46,-113.25C679.67,-102.02 681.03,-89.38 681.91,-81.19"/>
<polygon fill="midnightblue" stroke="midnightblue" points="674.96,-113.08 677.37,-123.4 681.92,-113.83 674.96,-113.08"/>
</g>
<!-- Node43 -->
<g id="node43" class="node">
<title>Node43</title>
<g id="a_node43"><a xlink:href="ThreeAxisForceTorqueContactSensor_8cpp.html" target="_top" xlink:title=" ">
<polygon fill="none" stroke="black" points="259.35,-56.5 259.35,-86.5 420.35,-86.5 420.35,-56.5 259.35,-56.5"/>
<text text-anchor="start" x="267.35" y="-74.5" font-family="FreeSans.ttf" font-size="10.00">ThreeAxisForceTorqueContact</text>
<text text-anchor="middle" x="339.85" y="-63.5" font-family="FreeSans.ttf" font-size="10.00">Sensor.cpp</text>
</a>
</g>
</g>
<!-- Node42&#45;&gt;Node43 -->
<g id="edge72" class="edge">
<title>Node42&#45;&gt;Node43</title>
<path fill="none" stroke="midnightblue" d="M593.22,-121.52C537.87,-110.81 465.66,-96.84 412.5,-86.55"/>
<polygon fill="midnightblue" stroke="midnightblue" points="592.87,-125.01 603.36,-123.48 594.2,-118.14 592.87,-125.01"/>
</g>
</g>
</svg>
