<?xml version="1.0" encoding="UTF-8" standalone="no"?>
<!DOCTYPE svg PUBLIC "-//W3C//DTD SVG 1.1//EN"
 "http://www.w3.org/Graphics/SVG/1.1/DTD/svg11.dtd">
<!-- Generated by graphviz version 2.43.0 (0)
 -->
<!-- Title: Sensors.h Pages: 1 -->
<svg width="4075pt" height="218pt"
 viewBox="0.00 0.00 4075.45 218.00" xmlns="http://www.w3.org/2000/svg" xmlns:xlink="http://www.w3.org/1999/xlink">
<g id="graph0" class="graph" transform="scale(1 1) rotate(0) translate(4 214)">
<title>Sensors.h</title>
<!-- Node1 -->
<g id="node1" class="node">
<title>Node1</title>
<g id="a_node1"><a xlink:title=" ">
<polygon fill="#bfbfbf" stroke="black" points="1790.45,-190.5 1790.45,-209.5 1854.45,-209.5 1854.45,-190.5 1790.45,-190.5"/>
<text text-anchor="middle" x="1822.45" y="-197.5" font-family="FreeSans.ttf" font-size="10.00">Sensors.h</text>
</a>
</g>
</g>
<!-- Node2 -->
<g id="node2" class="node">
<title>Node2</title>
<g id="a_node2"><a xlink:href="BerdyHelper_8h.html" target="_top" xlink:title=" ">
<polygon fill="none" stroke="black" points="150.45,-129 150.45,-148 236.45,-148 236.45,-129 150.45,-129"/>
<text text-anchor="middle" x="193.45" y="-136" font-family="FreeSans.ttf" font-size="10.00">BerdyHelper.h</text>
</a>
</g>
</g>
<!-- Node1&#45;&gt;Node2 -->
<g id="edge1" class="edge">
<title>Node1&#45;&gt;Node2</title>
<path fill="none" stroke="midnightblue" d="M1780.22,-197.75C1616.38,-192.84 1007.06,-174.22 505.45,-154 409.42,-150.13 296.8,-144.67 236.6,-141.67"/>
<polygon fill="midnightblue" stroke="midnightblue" points="1780.26,-201.25 1790.36,-198.05 1780.47,-194.25 1780.26,-201.25"/>
</g>
<!-- Node3 -->
<g id="node3" class="node">
<title>Node3</title>
<g id="a_node3"><a xlink:href="BerdyHelper_8cpp.html" target="_top" xlink:title=" ">
<polygon fill="none" stroke="black" points="144.95,-0.5 144.95,-19.5 241.95,-19.5 241.95,-0.5 144.95,-0.5"/>
<text text-anchor="middle" x="193.45" y="-7.5" font-family="FreeSans.ttf" font-size="10.00">BerdyHelper.cpp</text>
</a>
</g>
</g>
<!-- Node1&#45;&gt;Node3 -->
<g id="edge6" class="edge">
<title>Node1&#45;&gt;Node3</title>
<path fill="none" stroke="midnightblue" d="M1780.04,-198.96C1534.91,-198.56 304.59,-194.57 141.45,-154 76.45,-137.84 41.75,-143.93 6.45,-87 -26.75,-33.47 78.87,-17.64 144.73,-12.96"/>
<polygon fill="midnightblue" stroke="midnightblue" points="1780.31,-202.46 1790.32,-198.97 1780.32,-195.46 1780.31,-202.46"/>
</g>
<!-- Node5 -->
<g id="node5" class="node">
<title>Node5</title>
<g id="a_node5"><a xlink:href="ExtWrenchesAndJointTorquesEstimator_8h.html" target="_top" xlink:title=" ">
<polygon fill="none" stroke="black" points="2060.45,-123.5 2060.45,-153.5 2218.45,-153.5 2218.45,-123.5 2060.45,-123.5"/>
<text text-anchor="start" x="2068.45" y="-141.5" font-family="FreeSans.ttf" font-size="10.00">ExtWrenchesAndJointTorques</text>
<text text-anchor="middle" x="2139.45" y="-130.5" font-family="FreeSans.ttf" font-size="10.00">Estimator.h</text>
</a>
</g>
</g>
<!-- Node1&#45;&gt;Node5 -->
<g id="edge4" class="edge">
<title>Node1&#45;&gt;Node5</title>
<path fill="none" stroke="midnightblue" d="M1864.61,-191.09C1915.62,-181.51 2002.43,-165.22 2064.85,-153.5"/>
<polygon fill="midnightblue" stroke="midnightblue" points="1863.77,-187.68 1854.59,-192.97 1865.07,-194.56 1863.77,-187.68"/>
</g>
<!-- Node6 -->
<g id="node6" class="node">
<title>Node6</title>
<g id="a_node6"><a xlink:href="ExtWrenchesAndJointTorquesEstimator_8cpp.html" target="_top" xlink:title=" ">
<polygon fill="none" stroke="black" points="2060.45,-56.5 2060.45,-86.5 2218.45,-86.5 2218.45,-56.5 2060.45,-56.5"/>
<text text-anchor="start" x="2068.45" y="-74.5" font-family="FreeSans.ttf" font-size="10.00">ExtWrenchesAndJointTorques</text>
<text text-anchor="middle" x="2139.45" y="-63.5" font-family="FreeSans.ttf" font-size="10.00">Estimator.cpp</text>
</a>
</g>
</g>
<!-- Node1&#45;&gt;Node6 -->
<g id="edge8" class="edge">
<title>Node1&#45;&gt;Node6</title>
<path fill="none" stroke="midnightblue" d="M1864.82,-197.43C1963.78,-193.33 2203.55,-180.7 2227.45,-154 2250.3,-128.48 2207.45,-102.1 2173.9,-86.51"/>
<polygon fill="midnightblue" stroke="midnightblue" points="1864.43,-193.94 1854.58,-197.84 1864.72,-200.94 1864.43,-193.94"/>
</g>
<!-- Node7 -->
<g id="node7" class="node">
<title>Node7</title>
<g id="a_node7"><a xlink:href="ExternalWrenchesEstimation_8cpp.html" target="_top" xlink:title=" ">
<polygon fill="none" stroke="black" points="1382.45,-62 1382.45,-81 1560.45,-81 1560.45,-62 1382.45,-62"/>
<text text-anchor="middle" x="1471.45" y="-69" font-family="FreeSans.ttf" font-size="10.00">ExternalWrenchesEstimation.cpp</text>
</a>
</g>
</g>
<!-- Node1&#45;&gt;Node7 -->
<g id="edge7" class="edge">
<title>Node1&#45;&gt;Node7</title>
<path fill="none" stroke="midnightblue" d="M1780.05,-194.36C1735.81,-188.56 1664.98,-176.52 1607.45,-154 1557.72,-134.54 1505.26,-97.77 1482.77,-81.1"/>
<polygon fill="midnightblue" stroke="midnightblue" points="1779.8,-197.86 1790.16,-195.64 1780.68,-190.91 1779.8,-197.86"/>
</g>
<!-- Node8 -->
<g id="node8" class="node">
<title>Node8</title>
<g id="a_node8"><a xlink:href="ModelCalibrationHelper_8h.html" target="_top" xlink:title=" ">
<polygon fill="none" stroke="black" points="2784.45,-62 2784.45,-81 2924.45,-81 2924.45,-62 2784.45,-62"/>
<text text-anchor="middle" x="2854.45" y="-69" font-family="FreeSans.ttf" font-size="10.00">ModelCalibrationHelper.h</text>
</a>
</g>
</g>
<!-- Node1&#45;&gt;Node8 -->
<g id="edge9" class="edge">
<title>Node1&#45;&gt;Node8</title>
<path fill="none" stroke="midnightblue" d="M1864.74,-198.18C2032.35,-194.74 2644.82,-180.48 2727.45,-154 2776.35,-138.33 2824.82,-98.88 2844.85,-81.25"/>
<polygon fill="midnightblue" stroke="midnightblue" points="1864.51,-194.68 1854.58,-198.38 1864.65,-201.68 1864.51,-194.68"/>
</g>
<!-- Node10 -->
<g id="node10" class="node">
<title>Node10</title>
<g id="a_node10"><a xlink:href="ModelExporter_8h.html" target="_top" xlink:title=" ">
<polygon fill="none" stroke="black" points="2622.45,-129 2622.45,-148 2718.45,-148 2718.45,-129 2622.45,-129"/>
<text text-anchor="middle" x="2670.45" y="-136" font-family="FreeSans.ttf" font-size="10.00">ModelExporter.h</text>
</a>
</g>
</g>
<!-- Node1&#45;&gt;Node10 -->
<g id="edge11" class="edge">
<title>Node1&#45;&gt;Node10</title>
<path fill="none" stroke="midnightblue" d="M1864.85,-196.23C1969.53,-189.36 2248.68,-170.88 2481.45,-154 2529.37,-150.53 2584.11,-146.3 2622.3,-143.31"/>
<polygon fill="midnightblue" stroke="midnightblue" points="1864.44,-192.75 1854.69,-196.89 1864.89,-199.73 1864.44,-192.75"/>
</g>
<!-- Node14 -->
<g id="node14" class="node">
<title>Node14</title>
<g id="a_node14"><a xlink:href="ModelLoader_8h.html" target="_top" xlink:title=" ">
<polygon fill="none" stroke="black" points="3287.45,-129 3287.45,-148 3375.45,-148 3375.45,-129 3287.45,-129"/>
<text text-anchor="middle" x="3331.45" y="-136" font-family="FreeSans.ttf" font-size="10.00">ModelLoader.h</text>
</a>
</g>
</g>
<!-- Node1&#45;&gt;Node14 -->
<g id="edge18" class="edge">
<title>Node1&#45;&gt;Node14</title>
<path fill="none" stroke="midnightblue" d="M1864.68,-197.33C2081.25,-188.8 3065.61,-149.98 3287.1,-141.25"/>
<polygon fill="midnightblue" stroke="midnightblue" points="1864.52,-193.84 1854.67,-197.73 1864.8,-200.83 1864.52,-193.84"/>
</g>
<!-- Node18 -->
<g id="node18" class="node">
<title>Node18</title>
<g id="a_node18"><a xlink:href="URDFDocument_8h.html" target="_top" xlink:title=" ">
<polygon fill="none" stroke="black" points="2942.45,-62 2942.45,-81 3046.45,-81 3046.45,-62 2942.45,-62"/>
<text text-anchor="middle" x="2994.45" y="-69" font-family="FreeSans.ttf" font-size="10.00">URDFDocument.h</text>
</a>
</g>
</g>
<!-- Node1&#45;&gt;Node18 -->
<g id="edge38" class="edge">
<title>Node1&#45;&gt;Node18</title>
<path fill="none" stroke="midnightblue" d="M1865.21,-198.7C2026.15,-197.29 2595.26,-189.84 2772.45,-154 2851.53,-138 2940.01,-98.55 2976.86,-81.07"/>
<polygon fill="midnightblue" stroke="midnightblue" points="1864.75,-195.2 1854.77,-198.79 1864.8,-202.2 1864.75,-195.2"/>
</g>
<!-- Node24 -->
<g id="node24" class="node">
<title>Node24</title>
<g id="a_node24"><a xlink:href="SensorElement_8h.html" target="_top" xlink:title=" ">
<polygon fill="none" stroke="black" points="2303.95,-129 2303.95,-148 2402.95,-148 2402.95,-129 2303.95,-129"/>
<text text-anchor="middle" x="2353.45" y="-136" font-family="FreeSans.ttf" font-size="10.00">SensorElement.h</text>
</a>
</g>
</g>
<!-- Node1&#45;&gt;Node24 -->
<g id="edge31" class="edge">
<title>Node1&#45;&gt;Node24</title>
<path fill="none" stroke="midnightblue" d="M1865.09,-195.37C1943.51,-188.52 2115.82,-172.69 2260.45,-154 2274.55,-152.18 2289.81,-149.92 2303.81,-147.73"/>
<polygon fill="midnightblue" stroke="midnightblue" points="1864.32,-191.92 1854.66,-196.27 1864.93,-198.89 1864.32,-191.92"/>
</g>
<!-- Node27 -->
<g id="node27" class="node">
<title>Node27</title>
<g id="a_node27"><a xlink:href="SensorElement_8cpp.html" target="_top" xlink:title=" ">
<polygon fill="none" stroke="black" points="1977.45,-0.5 1977.45,-19.5 2087.45,-19.5 2087.45,-0.5 1977.45,-0.5"/>
<text text-anchor="middle" x="2032.45" y="-7.5" font-family="FreeSans.ttf" font-size="10.00">SensorElement.cpp</text>
</a>
</g>
</g>
<!-- Node1&#45;&gt;Node27 -->
<g id="edge40" class="edge">
<title>Node1&#45;&gt;Node27</title>
<path fill="none" stroke="midnightblue" d="M1860.29,-187.2C1904.22,-171.5 1975.58,-139.47 2014.45,-87 2029.63,-66.52 2032.22,-35.13 2032.53,-19.9"/>
<polygon fill="midnightblue" stroke="midnightblue" points="1859.13,-183.9 1850.82,-190.48 1861.42,-190.51 1859.13,-183.9"/>
</g>
<!-- Node28 -->
<g id="node28" class="node">
<title>Node28</title>
<g id="a_node28"><a xlink:href="RobotElement_8cpp.html" target="_top" xlink:title=" ">
<polygon fill="none" stroke="black" points="2450.45,-62 2450.45,-81 2556.45,-81 2556.45,-62 2450.45,-62"/>
<text text-anchor="middle" x="2503.45" y="-69" font-family="FreeSans.ttf" font-size="10.00">RobotElement.cpp</text>
</a>
</g>
</g>
<!-- Node1&#45;&gt;Node28 -->
<g id="edge39" class="edge">
<title>Node1&#45;&gt;Node28</title>
<path fill="none" stroke="midnightblue" d="M1864.92,-199.27C1983.13,-199.46 2313.74,-196.11 2412.45,-154 2450.69,-137.69 2483.72,-98.58 2497.1,-81.14"/>
<polygon fill="midnightblue" stroke="midnightblue" points="1864.82,-195.77 1854.81,-199.24 1864.8,-202.77 1864.82,-195.77"/>
</g>
<!-- Node29 -->
<g id="node29" class="node">
<title>Node29</title>
<g id="a_node29"><a xlink:href="AccelerometerSensor_8h.html" target="_top" xlink:title=" ">
<polygon fill="none" stroke="black" points="692.95,-129 692.95,-148 821.95,-148 821.95,-129 692.95,-129"/>
<text text-anchor="middle" x="757.45" y="-136" font-family="FreeSans.ttf" font-size="10.00">AccelerometerSensor.h</text>
</a>
</g>
</g>
<!-- Node1&#45;&gt;Node29 -->
<g id="edge41" class="edge">
<title>Node1&#45;&gt;Node29</title>
<path fill="none" stroke="midnightblue" d="M1780.26,-198.85C1644.25,-197.99 1205.22,-192.23 844.45,-154 830.75,-152.55 815.93,-150.32 802.47,-148.05"/>
<polygon fill="midnightblue" stroke="midnightblue" points="1780.24,-202.35 1790.26,-198.91 1780.29,-195.35 1780.24,-202.35"/>
</g>
<!-- Node32 -->
<g id="node32" class="node">
<title>Node32</title>
<g id="a_node32"><a xlink:href="PredictSensorsMeasurements_8cpp.html" target="_top" xlink:title=" ">
<polygon fill="none" stroke="black" points="990.45,-62 990.45,-81 1172.45,-81 1172.45,-62 990.45,-62"/>
<text text-anchor="middle" x="1081.45" y="-69" font-family="FreeSans.ttf" font-size="10.00">PredictSensorsMeasurements.cpp</text>
</a>
</g>
</g>
<!-- Node1&#45;&gt;Node32 -->
<g id="edge72" class="edge">
<title>Node1&#45;&gt;Node32</title>
<path fill="none" stroke="midnightblue" d="M1780.15,-197.88C1643.04,-194.01 1216.46,-179.99 1160.45,-154 1125.42,-137.74 1097.72,-98.61 1086.66,-81.15"/>
<polygon fill="midnightblue" stroke="midnightblue" points="1780.18,-201.38 1790.27,-198.16 1780.37,-194.39 1780.18,-201.38"/>
</g>
<!-- Node33 -->
<g id="node33" class="node">
<title>Node33</title>
<g id="a_node33"><a xlink:href="Sensors_8cpp.html" target="_top" xlink:title=" ">
<polygon fill="none" stroke="black" points="719.95,-62 719.95,-81 794.95,-81 794.95,-62 719.95,-62"/>
<text text-anchor="middle" x="757.45" y="-69" font-family="FreeSans.ttf" font-size="10.00">Sensors.cpp</text>
</a>
</g>
</g>
<!-- Node1&#45;&gt;Node33 -->
<g id="edge73" class="edge">
<title>Node1&#45;&gt;Node33</title>
<path fill="none" stroke="midnightblue" d="M1780.36,-198.19C1610.05,-194.73 977.03,-180.22 891.45,-154 865.29,-145.98 797.6,-100.31 769.73,-81.06"/>
<polygon fill="midnightblue" stroke="midnightblue" points="1780.37,-201.69 1790.44,-198.39 1780.51,-194.69 1780.37,-201.69"/>
</g>
<!-- Node34 -->
<g id="node34" class="node">
<title>Node34</title>
<g id="a_node34"><a xlink:href="GyroscopeSensor_8h.html" target="_top" xlink:title=" ">
<polygon fill="none" stroke="black" points="900.45,-129 900.45,-148 1010.45,-148 1010.45,-129 900.45,-129"/>
<text text-anchor="middle" x="955.45" y="-136" font-family="FreeSans.ttf" font-size="10.00">GyroscopeSensor.h</text>
</a>
</g>
</g>
<!-- Node1&#45;&gt;Node34 -->
<g id="edge48" class="edge">
<title>Node1&#45;&gt;Node34</title>
<path fill="none" stroke="midnightblue" d="M1779.88,-197.11C1666.93,-191.95 1350.29,-176.47 1087.45,-154 1062.18,-151.84 1034.26,-148.86 1010.63,-146.16"/>
<polygon fill="midnightblue" stroke="midnightblue" points="1780.02,-200.62 1790.17,-197.58 1780.34,-193.63 1780.02,-200.62"/>
</g>
<!-- Node36 -->
<g id="node36" class="node">
<title>Node36</title>
<g id="a_node36"><a xlink:href="SixAxisForceTorqueSensor_8h.html" target="_top" xlink:title=" ">
<polygon fill="none" stroke="black" points="1616.45,-129 1616.45,-148 1768.45,-148 1768.45,-129 1616.45,-129"/>
<text text-anchor="middle" x="1692.45" y="-136" font-family="FreeSans.ttf" font-size="10.00">SixAxisForceTorqueSensor.h</text>
</a>
</g>
</g>
<!-- Node1&#45;&gt;Node36 -->
<g id="edge54" class="edge">
<title>Node1&#45;&gt;Node36</title>
<path fill="none" stroke="midnightblue" d="M1794.43,-186.17C1769.2,-174.63 1732.84,-157.99 1711.04,-148.01"/>
<polygon fill="midnightblue" stroke="midnightblue" points="1793.28,-189.5 1803.83,-190.48 1796.19,-183.13 1793.28,-189.5"/>
</g>
<!-- Node37 -->
<g id="node37" class="node">
<title>Node37</title>
<g id="a_node37"><a xlink:href="ModelSensorsTransformers_8cpp.html" target="_top" xlink:title=" ">
<polygon fill="none" stroke="black" points="1835.95,-62 1835.95,-81 2004.95,-81 2004.95,-62 1835.95,-62"/>
<text text-anchor="middle" x="1920.45" y="-69" font-family="FreeSans.ttf" font-size="10.00">ModelSensorsTransformers.cpp</text>
</a>
</g>
</g>
<!-- Node1&#45;&gt;Node37 -->
<g id="edge71" class="edge">
<title>Node1&#45;&gt;Node37</title>
<path fill="none" stroke="midnightblue" d="M1835.53,-182.12C1856.65,-154.86 1897.53,-102.08 1913.67,-81.26"/>
<polygon fill="midnightblue" stroke="midnightblue" points="1832.54,-180.26 1829.19,-190.31 1838.08,-184.54 1832.54,-180.26"/>
</g>
<!-- Node39 -->
<g id="node39" class="node">
<title>Node39</title>
<g id="a_node39"><a xlink:href="ThreeAxisAngularAccelerometerSensor_8h.html" target="_top" xlink:title=" ">
<polygon fill="none" stroke="black" points="1169.45,-123.5 1169.45,-153.5 1343.45,-153.5 1343.45,-123.5 1169.45,-123.5"/>
<text text-anchor="start" x="1177.45" y="-141.5" font-family="FreeSans.ttf" font-size="10.00">ThreeAxisAngularAccelerometer</text>
<text text-anchor="middle" x="1256.45" y="-130.5" font-family="FreeSans.ttf" font-size="10.00">Sensor.h</text>
</a>
</g>
</g>
<!-- Node1&#45;&gt;Node39 -->
<g id="edge64" class="edge">
<title>Node1&#45;&gt;Node39</title>
<path fill="none" stroke="midnightblue" d="M1780.33,-194.57C1688.21,-184.89 1467.2,-161.65 1343.69,-148.67"/>
<polygon fill="midnightblue" stroke="midnightblue" points="1780.09,-198.07 1790.4,-195.63 1780.82,-191.1 1780.09,-198.07"/>
</g>
<!-- Node41 -->
<g id="node41" class="node">
<title>Node41</title>
<g id="a_node41"><a xlink:href="ThreeAxisForceTorqueContactSensor_8h.html" target="_top" xlink:title=" ">
<polygon fill="none" stroke="black" points="513.95,-123.5 513.95,-153.5 674.95,-153.5 674.95,-123.5 513.95,-123.5"/>
<text text-anchor="start" x="521.95" y="-141.5" font-family="FreeSans.ttf" font-size="10.00">ThreeAxisForceTorqueContact</text>
<text text-anchor="middle" x="594.45" y="-130.5" font-family="FreeSans.ttf" font-size="10.00">Sensor.h</text>
</a>
</g>
</g>
<!-- Node1&#45;&gt;Node41 -->
<g id="edge68" class="edge">
<title>Node1&#45;&gt;Node41</title>
<path fill="none" stroke="midnightblue" d="M1780.06,-199.16C1630.06,-199.33 1110.5,-196.59 684.45,-154 681.46,-153.7 678.42,-153.37 675.34,-153"/>
<polygon fill="midnightblue" stroke="midnightblue" points="1780.23,-202.66 1790.22,-199.14 1780.21,-195.66 1780.23,-202.66"/>
</g>
<!-- Node2&#45;&gt;Node3 -->
<g id="edge2" class="edge">
<title>Node2&#45;&gt;Node3</title>
<path fill="none" stroke="midnightblue" d="M193.45,-118.44C193.45,-90.62 193.45,-40.04 193.45,-19.76"/>
<polygon fill="midnightblue" stroke="midnightblue" points="189.95,-118.81 193.45,-128.81 196.95,-118.81 189.95,-118.81"/>
</g>
<!-- Node4 -->
<g id="node4" class="node">
<title>Node4</title>
<g id="a_node4"><a xlink:href="BerdySparseMAPSolver_8cpp.html" target="_top" xlink:title=" ">
<polygon fill="none" stroke="black" points="15.45,-62 15.45,-81 165.45,-81 165.45,-62 15.45,-62"/>
<text text-anchor="middle" x="90.45" y="-69" font-family="FreeSans.ttf" font-size="10.00">BerdySparseMAPSolver.cpp</text>
</a>
</g>
</g>
<!-- Node2&#45;&gt;Node4 -->
<g id="edge3" class="edge">
<title>Node2&#45;&gt;Node4</title>
<path fill="none" stroke="midnightblue" d="M170.9,-123.27C150.51,-110.4 121.16,-91.88 104.12,-81.13"/>
<polygon fill="midnightblue" stroke="midnightblue" points="169.24,-126.36 179.56,-128.73 172.97,-120.44 169.24,-126.36"/>
</g>
<!-- Node5&#45;&gt;Node6 -->
<g id="edge5" class="edge">
<title>Node5&#45;&gt;Node6</title>
<path fill="none" stroke="midnightblue" d="M2139.45,-113.11C2139.45,-104.15 2139.45,-94.32 2139.45,-86.58"/>
<polygon fill="midnightblue" stroke="midnightblue" points="2135.95,-113.4 2139.45,-123.4 2142.95,-113.4 2135.95,-113.4"/>
</g>
<!-- Node9 -->
<g id="node9" class="node">
<title>Node9</title>
<g id="a_node9"><a xlink:href="ModelCalibrationHelper_8cpp.html" target="_top" xlink:title=" ">
<polygon fill="none" stroke="black" points="2838.45,-0.5 2838.45,-19.5 2990.45,-19.5 2990.45,-0.5 2838.45,-0.5"/>
<text text-anchor="middle" x="2914.45" y="-7.5" font-family="FreeSans.ttf" font-size="10.00">ModelCalibrationHelper.cpp</text>
</a>
</g>
</g>
<!-- Node8&#45;&gt;Node9 -->
<g id="edge10" class="edge">
<title>Node8&#45;&gt;Node9</title>
<path fill="none" stroke="midnightblue" d="M2870.26,-54.82C2881.66,-43.52 2896.61,-28.69 2905.87,-19.51"/>
<polygon fill="midnightblue" stroke="midnightblue" points="2867.68,-52.45 2863.05,-61.98 2872.61,-57.42 2867.68,-52.45"/>
</g>
<!-- Node10&#45;&gt;Node8 -->
<g id="edge12" class="edge">
<title>Node10&#45;&gt;Node8</title>
<path fill="none" stroke="midnightblue" d="M2704.6,-125.44C2741.1,-112.54 2798.05,-92.42 2830.21,-81.06"/>
<polygon fill="midnightblue" stroke="midnightblue" points="2703.15,-122.24 2694.88,-128.87 2705.48,-128.84 2703.15,-122.24"/>
</g>
<!-- Node10&#45;&gt;Node9 -->
<g id="edge16" class="edge">
<title>Node10&#45;&gt;Node9</title>
<path fill="none" stroke="midnightblue" d="M2690.49,-122.71C2703.88,-112.75 2721.84,-99.24 2737.45,-87 2754.6,-73.55 2756.31,-66.42 2775.45,-56 2807.08,-38.77 2846.39,-26.81 2875.13,-19.57"/>
<polygon fill="midnightblue" stroke="midnightblue" points="2688.36,-119.93 2682.42,-128.7 2692.53,-125.55 2688.36,-119.93"/>
</g>
<!-- Node11 -->
<g id="node11" class="node">
<title>Node11</title>
<g id="a_node11"><a xlink:href="URDFModelExport_8h.html" target="_top" xlink:title=" ">
<polygon fill="none" stroke="black" points="2612.95,-62 2612.95,-81 2727.95,-81 2727.95,-62 2612.95,-62"/>
<text text-anchor="middle" x="2670.45" y="-69" font-family="FreeSans.ttf" font-size="10.00">URDFModelExport.h</text>
</a>
</g>
</g>
<!-- Node10&#45;&gt;Node11 -->
<g id="edge13" class="edge">
<title>Node10&#45;&gt;Node11</title>
<path fill="none" stroke="midnightblue" d="M2670.45,-118.54C2670.45,-106.17 2670.45,-90.62 2670.45,-81.13"/>
<polygon fill="midnightblue" stroke="midnightblue" points="2666.95,-118.73 2670.45,-128.73 2673.95,-118.73 2666.95,-118.73"/>
</g>
<!-- Node12 -->
<g id="node12" class="node">
<title>Node12</title>
<g id="a_node12"><a xlink:href="ModelExporter_8cpp.html" target="_top" xlink:title=" ">
<polygon fill="none" stroke="black" points="2435.95,-0.5 2435.95,-19.5 2542.95,-19.5 2542.95,-0.5 2435.95,-0.5"/>
<text text-anchor="middle" x="2489.45" y="-7.5" font-family="FreeSans.ttf" font-size="10.00">ModelExporter.cpp</text>
</a>
</g>
</g>
<!-- Node10&#45;&gt;Node12 -->
<g id="edge17" class="edge">
<title>Node10&#45;&gt;Node12</title>
<path fill="none" stroke="midnightblue" d="M2650.88,-122.68C2637.71,-112.66 2619.98,-99.11 2604.45,-87 2586.99,-73.38 2583.69,-68.56 2565.45,-56 2545.37,-42.17 2520.92,-28.16 2505.27,-19.53"/>
<polygon fill="midnightblue" stroke="midnightblue" points="2649.11,-125.73 2659.19,-128.98 2653.34,-120.15 2649.11,-125.73"/>
</g>
<!-- Node11&#45;&gt;Node12 -->
<g id="edge14" class="edge">
<title>Node11&#45;&gt;Node12</title>
<path fill="none" stroke="midnightblue" d="M2634.65,-58.73C2599.47,-47.17 2546.63,-29.8 2515.34,-19.51"/>
<polygon fill="midnightblue" stroke="midnightblue" points="2633.93,-62.18 2644.52,-61.98 2636.11,-55.53 2633.93,-62.18"/>
</g>
<!-- Node13 -->
<g id="node13" class="node">
<title>Node13</title>
<g id="a_node13"><a xlink:href="URDFModelExport_8cpp.html" target="_top" xlink:title=" ">
<polygon fill="none" stroke="black" points="2694.45,-0.5 2694.45,-19.5 2820.45,-19.5 2820.45,-0.5 2694.45,-0.5"/>
<text text-anchor="middle" x="2757.45" y="-7.5" font-family="FreeSans.ttf" font-size="10.00">URDFModelExport.cpp</text>
</a>
</g>
</g>
<!-- Node11&#45;&gt;Node13 -->
<g id="edge15" class="edge">
<title>Node11&#45;&gt;Node13</title>
<path fill="none" stroke="midnightblue" d="M2691.49,-56.11C2708.22,-44.67 2731.06,-29.05 2745.01,-19.51"/>
<polygon fill="midnightblue" stroke="midnightblue" points="2689.19,-53.44 2682.92,-61.98 2693.15,-59.22 2689.19,-53.44"/>
</g>
<!-- Node14&#45;&gt;Node6 -->
<g id="edge19" class="edge">
<title>Node14&#45;&gt;Node6</title>
<path fill="none" stroke="midnightblue" d="M3276.87,-136.21C3119.63,-132.22 2652.22,-118.38 2265.45,-87 2250.31,-85.77 2234.17,-84.15 2218.68,-82.44"/>
<polygon fill="midnightblue" stroke="midnightblue" points="3277.13,-139.72 3287.21,-136.47 3277.3,-132.72 3277.13,-139.72"/>
</g>
<!-- Node14&#45;&gt;Node9 -->
<g id="edge26" class="edge">
<title>Node14&#45;&gt;Node9</title>
<path fill="none" stroke="midnightblue" d="M3276.96,-133.06C3227.4,-127.38 3153.24,-114.73 3094.45,-87 3074.43,-77.55 3074.98,-66.43 3055.45,-56 3023.15,-38.76 2983.12,-26.77 2953.97,-19.53"/>
<polygon fill="midnightblue" stroke="midnightblue" points="3276.83,-136.56 3287.15,-134.17 3277.58,-129.61 3276.83,-136.56"/>
</g>
<!-- Node15 -->
<g id="node15" class="node">
<title>Node15</title>
<g id="a_node15"><a xlink:href="SimpleLeggedOdometry_8cpp.html" target="_top" xlink:title=" ">
<polygon fill="none" stroke="black" points="3755.95,-62 3755.95,-81 3908.95,-81 3908.95,-62 3755.95,-62"/>
<text text-anchor="middle" x="3832.45" y="-69" font-family="FreeSans.ttf" font-size="10.00">SimpleLeggedOdometry.cpp</text>
</a>
</g>
</g>
<!-- Node14&#45;&gt;Node15 -->
<g id="edge20" class="edge">
<title>Node14&#45;&gt;Node15</title>
<path fill="none" stroke="midnightblue" d="M3385.65,-131.44C3464.19,-122.53 3614.19,-104.97 3741.45,-87 3754.28,-85.19 3768.1,-83.07 3781,-81.02"/>
<polygon fill="midnightblue" stroke="midnightblue" points="3385.05,-127.99 3375.51,-132.59 3385.84,-134.95 3385.05,-127.99"/>
</g>
<!-- Node16 -->
<g id="node16" class="node">
<title>Node16</title>
<g id="a_node16"><a xlink:href="KinDynComputations_8cpp.html" target="_top" xlink:title=" ">
<polygon fill="none" stroke="black" points="3927.45,-62 3927.45,-81 4067.45,-81 4067.45,-62 3927.45,-62"/>
<text text-anchor="middle" x="3997.45" y="-69" font-family="FreeSans.ttf" font-size="10.00">KinDynComputations.cpp</text>
</a>
</g>
</g>
<!-- Node14&#45;&gt;Node16 -->
<g id="edge21" class="edge">
<title>Node14&#45;&gt;Node16</title>
<path fill="none" stroke="midnightblue" d="M3386.04,-134.55C3489.99,-128.56 3723.42,-113.23 3918.45,-87 3930.47,-85.38 3943.45,-83.19 3955.34,-81"/>
<polygon fill="midnightblue" stroke="midnightblue" points="3385.58,-131.07 3375.79,-135.14 3385.97,-138.06 3385.58,-131.07"/>
</g>
<!-- Node17 -->
<g id="node17" class="node">
<title>Node17</title>
<g id="a_node17"><a xlink:href="InverseKinematicsData_8cpp.html" target="_top" xlink:title=" ">
<polygon fill="none" stroke="black" points="3102.95,-62 3102.95,-81 3253.95,-81 3253.95,-62 3102.95,-62"/>
<text text-anchor="middle" x="3178.45" y="-69" font-family="FreeSans.ttf" font-size="10.00">InverseKinematicsData.cpp</text>
</a>
</g>
</g>
<!-- Node14&#45;&gt;Node17 -->
<g id="edge22" class="edge">
<title>Node14&#45;&gt;Node17</title>
<path fill="none" stroke="midnightblue" d="M3301.91,-124.95C3271.61,-112.08 3225.3,-92.4 3198.85,-81.17"/>
<polygon fill="midnightblue" stroke="midnightblue" points="3300.56,-128.18 3311.13,-128.87 3303.3,-121.74 3300.56,-128.18"/>
</g>
<!-- Node14&#45;&gt;Node18 -->
<g id="edge23" class="edge">
<title>Node14&#45;&gt;Node18</title>
<path fill="none" stroke="midnightblue" d="M3277.06,-127.89C3222.27,-118.09 3135.36,-102.2 3060.45,-87 3051.37,-85.16 3041.61,-83.07 3032.45,-81.07"/>
<polygon fill="midnightblue" stroke="midnightblue" points="3276.78,-131.4 3287.24,-129.71 3278.01,-124.51 3276.78,-131.4"/>
</g>
<!-- Node19 -->
<g id="node19" class="node">
<title>Node19</title>
<g id="a_node19"><a xlink:href="ModelLoader_8cpp.html" target="_top" xlink:title=" ">
<polygon fill="none" stroke="black" points="3372.95,-0.5 3372.95,-19.5 3471.95,-19.5 3471.95,-0.5 3372.95,-0.5"/>
<text text-anchor="middle" x="3422.45" y="-7.5" font-family="FreeSans.ttf" font-size="10.00">ModelLoader.cpp</text>
</a>
</g>
</g>
<!-- Node14&#45;&gt;Node19 -->
<g id="edge27" class="edge">
<title>Node14&#45;&gt;Node19</title>
<path fill="none" stroke="midnightblue" d="M3385.76,-134.13C3485.03,-127.41 3687.53,-110.91 3708.45,-87 3717.52,-76.63 3717.4,-66.47 3708.45,-56 3678.61,-21.09 3545.62,-13.09 3471.97,-11.37"/>
<polygon fill="midnightblue" stroke="midnightblue" points="3385.37,-130.65 3375.62,-134.8 3385.83,-137.63 3385.37,-130.65"/>
</g>
<!-- Node21 -->
<g id="node21" class="node">
<title>Node21</title>
<g id="a_node21"><a xlink:href="URDFDofsImport_8cpp.html" target="_top" xlink:title=" ">
<polygon fill="none" stroke="black" points="3271.95,-62 3271.95,-81 3390.95,-81 3390.95,-62 3271.95,-62"/>
<text text-anchor="middle" x="3331.45" y="-69" font-family="FreeSans.ttf" font-size="10.00">URDFDofsImport.cpp</text>
</a>
</g>
</g>
<!-- Node14&#45;&gt;Node21 -->
<g id="edge28" class="edge">
<title>Node14&#45;&gt;Node21</title>
<path fill="none" stroke="midnightblue" d="M3331.45,-118.54C3331.45,-106.17 3331.45,-90.62 3331.45,-81.13"/>
<polygon fill="midnightblue" stroke="midnightblue" points="3327.95,-118.73 3331.45,-128.73 3334.95,-118.73 3327.95,-118.73"/>
</g>
<!-- Node22 -->
<g id="node22" class="node">
<title>Node22</title>
<g id="a_node22"><a xlink:href="idyntree-model-info_8cpp.html" target="_top" xlink:title=" ">
<polygon fill="none" stroke="black" points="3409.45,-62 3409.45,-81 3543.45,-81 3543.45,-62 3409.45,-62"/>
<text text-anchor="middle" x="3476.45" y="-69" font-family="FreeSans.ttf" font-size="10.00">idyntree&#45;model&#45;info.cpp</text>
</a>
</g>
</g>
<!-- Node14&#45;&gt;Node22 -->
<g id="edge29" class="edge">
<title>Node14&#45;&gt;Node22</title>
<path fill="none" stroke="midnightblue" d="M3360.2,-124.61C3388.92,-111.74 3432.27,-92.31 3457.12,-81.17"/>
<polygon fill="midnightblue" stroke="midnightblue" points="3358.4,-121.58 3350.71,-128.87 3361.26,-127.97 3358.4,-121.58"/>
</g>
<!-- Node23 -->
<g id="node23" class="node">
<title>Node23</title>
<g id="a_node23"><a xlink:href="idyntree-model-view_8cpp.html" target="_top" xlink:title=" ">
<polygon fill="none" stroke="black" points="3561.95,-62 3561.95,-81 3698.95,-81 3698.95,-62 3561.95,-62"/>
<text text-anchor="middle" x="3630.45" y="-69" font-family="FreeSans.ttf" font-size="10.00">idyntree&#45;model&#45;view.cpp</text>
</a>
</g>
</g>
<!-- Node14&#45;&gt;Node23 -->
<g id="edge30" class="edge">
<title>Node14&#45;&gt;Node23</title>
<path fill="none" stroke="midnightblue" d="M3380.66,-126.8C3439.5,-114.01 3536.81,-92.86 3590.97,-81.08"/>
<polygon fill="midnightblue" stroke="midnightblue" points="3379.88,-123.39 3370.85,-128.94 3381.36,-130.23 3379.88,-123.39"/>
</g>
<!-- Node18&#45;&gt;Node19 -->
<g id="edge24" class="edge">
<title>Node18&#45;&gt;Node19</title>
<path fill="none" stroke="midnightblue" d="M3056.52,-61.42C3069.07,-59.61 3082.18,-57.73 3094.45,-56 3193.05,-42.09 3308.42,-26.4 3372.7,-17.7"/>
<polygon fill="midnightblue" stroke="midnightblue" points="3056,-57.96 3046.6,-62.86 3057,-64.89 3056,-57.96"/>
</g>
<!-- Node20 -->
<g id="node20" class="node">
<title>Node20</title>
<g id="a_node20"><a xlink:href="URDFDocument_8cpp.html" target="_top" xlink:title=" ">
<polygon fill="none" stroke="black" points="2560.95,-0.5 2560.95,-19.5 2675.95,-19.5 2675.95,-0.5 2560.95,-0.5"/>
<text text-anchor="middle" x="2618.45" y="-7.5" font-family="FreeSans.ttf" font-size="10.00">URDFDocument.cpp</text>
</a>
</g>
</g>
<!-- Node18&#45;&gt;Node20 -->
<g id="edge25" class="edge">
<title>Node18&#45;&gt;Node20</title>
<path fill="none" stroke="midnightblue" d="M2951.17,-59.7C2945.24,-58.37 2939.21,-57.09 2933.45,-56 2908.76,-51.31 2759.96,-30.54 2676.01,-18.93"/>
<polygon fill="midnightblue" stroke="midnightblue" points="2950.48,-63.13 2961.01,-61.97 2952.05,-56.31 2950.48,-63.13"/>
</g>
<!-- Node24&#45;&gt;Node18 -->
<g id="edge35" class="edge">
<title>Node24&#45;&gt;Node18</title>
<path fill="none" stroke="midnightblue" d="M2413.72,-133.38C2541.2,-124.48 2834.58,-102.97 2933.45,-87 2942.91,-85.47 2953.07,-83.28 2962.34,-81.06"/>
<polygon fill="midnightblue" stroke="midnightblue" points="2413.1,-129.91 2403.37,-134.1 2413.59,-136.9 2413.1,-129.91"/>
</g>
<!-- Node25 -->
<g id="node25" class="node">
<title>Node25</title>
<g id="a_node25"><a xlink:href="ForceTorqueSensorElement_8h.html" target="_top" xlink:title=" ">
<polygon fill="none" stroke="black" points="2274.45,-62 2274.45,-81 2432.45,-81 2432.45,-62 2274.45,-62"/>
<text text-anchor="middle" x="2353.45" y="-69" font-family="FreeSans.ttf" font-size="10.00">ForceTorqueSensorElement.h</text>
</a>
</g>
</g>
<!-- Node24&#45;&gt;Node25 -->
<g id="edge32" class="edge">
<title>Node24&#45;&gt;Node25</title>
<path fill="none" stroke="midnightblue" d="M2353.45,-118.54C2353.45,-106.17 2353.45,-90.62 2353.45,-81.13"/>
<polygon fill="midnightblue" stroke="midnightblue" points="2349.95,-118.73 2353.45,-128.73 2356.95,-118.73 2349.95,-118.73"/>
</g>
<!-- Node24&#45;&gt;Node27 -->
<g id="edge37" class="edge">
<title>Node24&#45;&gt;Node27</title>
<path fill="none" stroke="midnightblue" d="M2327.51,-124.06C2309.61,-114.45 2285.53,-100.82 2265.45,-87 2247.49,-74.65 2247.02,-65.59 2227.45,-56 2183.15,-34.29 2127.99,-22.82 2087.66,-16.91"/>
<polygon fill="midnightblue" stroke="midnightblue" points="2326.27,-127.37 2336.75,-128.97 2329.55,-121.19 2326.27,-127.37"/>
</g>
<!-- Node24&#45;&gt;Node28 -->
<g id="edge36" class="edge">
<title>Node24&#45;&gt;Node28</title>
<path fill="none" stroke="midnightblue" d="M2382.8,-124.78C2412.51,-111.91 2457.63,-92.35 2483.45,-81.17"/>
<polygon fill="midnightblue" stroke="midnightblue" points="2381.15,-121.68 2373.37,-128.87 2383.94,-128.1 2381.15,-121.68"/>
</g>
<!-- Node26 -->
<g id="node26" class="node">
<title>Node26</title>
<g id="a_node26"><a xlink:href="ForceTorqueSensorElement_8cpp.html" target="_top" xlink:title=" ">
<polygon fill="none" stroke="black" points="2207.95,-0.5 2207.95,-19.5 2376.95,-19.5 2376.95,-0.5 2207.95,-0.5"/>
<text text-anchor="middle" x="2292.45" y="-7.5" font-family="FreeSans.ttf" font-size="10.00">ForceTorqueSensorElement.cpp</text>
</a>
</g>
</g>
<!-- Node25&#45;&gt;Node26 -->
<g id="edge33" class="edge">
<title>Node25&#45;&gt;Node26</title>
<path fill="none" stroke="midnightblue" d="M2337.38,-54.82C2325.79,-43.52 2310.59,-28.69 2301.17,-19.51"/>
<polygon fill="midnightblue" stroke="midnightblue" points="2335.11,-57.5 2344.71,-61.98 2340,-52.49 2335.11,-57.5"/>
</g>
<!-- Node25&#45;&gt;Node27 -->
<g id="edge34" class="edge">
<title>Node25&#45;&gt;Node27</title>
<path fill="none" stroke="midnightblue" d="M2297.43,-60.12C2235.27,-48.59 2136.12,-30.22 2078.36,-19.51"/>
<polygon fill="midnightblue" stroke="midnightblue" points="2296.99,-63.59 2307.46,-61.98 2298.26,-56.71 2296.99,-63.59"/>
</g>
<!-- Node29&#45;&gt;Node27 -->
<g id="edge42" class="edge">
<title>Node29&#45;&gt;Node27</title>
<path fill="none" stroke="midnightblue" d="M710.84,-126.59C663.46,-115.03 595.97,-97.09 588.45,-87 580.22,-75.95 578.86,-65.89 588.45,-56 613.07,-30.6 1715.95,-15.02 1977.33,-11.68"/>
<polygon fill="midnightblue" stroke="midnightblue" points="710.07,-130 720.61,-128.95 711.72,-123.2 710.07,-130"/>
</g>
<!-- Node30 -->
<g id="node30" class="node">
<title>Node30</title>
<g id="a_node30"><a xlink:href="AllSensorsTypes_8h.html" target="_top" xlink:title=" ">
<polygon fill="none" stroke="black" points="597.45,-62 597.45,-81 701.45,-81 701.45,-62 597.45,-62"/>
<text text-anchor="middle" x="649.45" y="-69" font-family="FreeSans.ttf" font-size="10.00">AllSensorsTypes.h</text>
</a>
</g>
</g>
<!-- Node29&#45;&gt;Node30 -->
<g id="edge43" class="edge">
<title>Node29&#45;&gt;Node30</title>
<path fill="none" stroke="midnightblue" d="M734.09,-123.44C712.71,-110.57 681.73,-91.93 663.79,-81.13"/>
<polygon fill="midnightblue" stroke="midnightblue" points="732.51,-126.58 742.89,-128.73 736.12,-120.58 732.51,-126.58"/>
</g>
<!-- Node31 -->
<g id="node31" class="node">
<title>Node31</title>
<g id="a_node31"><a xlink:href="AccelerometerSensor_8cpp.html" target="_top" xlink:title=" ">
<polygon fill="none" stroke="black" points="401.45,-62 401.45,-81 541.45,-81 541.45,-62 401.45,-62"/>
<text text-anchor="middle" x="471.45" y="-69" font-family="FreeSans.ttf" font-size="10.00">AccelerometerSensor.cpp</text>
</a>
</g>
</g>
<!-- Node29&#45;&gt;Node31 -->
<g id="edge45" class="edge">
<title>Node29&#45;&gt;Node31</title>
<path fill="none" stroke="midnightblue" d="M709.68,-126.64C653.33,-113.84 560.81,-92.81 509.22,-81.08"/>
<polygon fill="midnightblue" stroke="midnightblue" points="709.24,-130.13 719.77,-128.94 710.79,-123.31 709.24,-130.13"/>
</g>
<!-- Node29&#45;&gt;Node32 -->
<g id="edge46" class="edge">
<title>Node29&#45;&gt;Node32</title>
<path fill="none" stroke="midnightblue" d="M810,-126.96C873.77,-114.16 980.05,-92.84 1038.92,-81.03"/>
<polygon fill="midnightblue" stroke="midnightblue" points="809.26,-123.54 800.14,-128.94 810.63,-130.4 809.26,-123.54"/>
</g>
<!-- Node29&#45;&gt;Node33 -->
<g id="edge47" class="edge">
<title>Node29&#45;&gt;Node33</title>
<path fill="none" stroke="midnightblue" d="M757.45,-118.54C757.45,-106.17 757.45,-90.62 757.45,-81.13"/>
<polygon fill="midnightblue" stroke="midnightblue" points="753.95,-118.73 757.45,-128.73 760.95,-118.73 753.95,-118.73"/>
</g>
<!-- Node30&#45;&gt;Node3 -->
<g id="edge44" class="edge">
<title>Node30&#45;&gt;Node3</title>
<path fill="none" stroke="midnightblue" d="M587.24,-61.19C575.05,-59.42 562.35,-57.62 550.45,-56 440.27,-40.99 310.72,-25.1 242,-16.81"/>
<polygon fill="midnightblue" stroke="midnightblue" points="586.93,-64.69 597.33,-62.67 587.94,-57.76 586.93,-64.69"/>
</g>
<!-- Node34&#45;&gt;Node27 -->
<g id="edge49" class="edge">
<title>Node34&#45;&gt;Node27</title>
<path fill="none" stroke="midnightblue" d="M955.65,-118.6C956.98,-99.45 962.3,-70.63 981.45,-56 1021.29,-25.56 1766.32,-14.23 1977.24,-11.62"/>
<polygon fill="midnightblue" stroke="midnightblue" points="952.15,-118.69 955.26,-128.82 959.14,-118.96 952.15,-118.69"/>
</g>
<!-- Node34&#45;&gt;Node30 -->
<g id="edge50" class="edge">
<title>Node34&#45;&gt;Node30</title>
<path fill="none" stroke="midnightblue" d="M902.79,-127.01C853.32,-117.05 777.26,-101.5 711.45,-87 702.92,-85.12 693.75,-83.02 685.15,-81.01"/>
<polygon fill="midnightblue" stroke="midnightblue" points="902.13,-130.44 912.63,-128.98 903.51,-123.58 902.13,-130.44"/>
</g>
<!-- Node34&#45;&gt;Node32 -->
<g id="edge52" class="edge">
<title>Node34&#45;&gt;Node32</title>
<path fill="none" stroke="midnightblue" d="M981.09,-124.27C1006.05,-111.4 1043.25,-92.21 1064.65,-81.17"/>
<polygon fill="midnightblue" stroke="midnightblue" points="979.47,-121.17 972.18,-128.87 982.67,-127.39 979.47,-121.17"/>
</g>
<!-- Node34&#45;&gt;Node33 -->
<g id="edge53" class="edge">
<title>Node34&#45;&gt;Node33</title>
<path fill="none" stroke="midnightblue" d="M919.46,-125.68C880.21,-112.8 818.37,-92.5 783.54,-81.06"/>
<polygon fill="midnightblue" stroke="midnightblue" points="918.57,-129.07 929.16,-128.87 920.75,-122.42 918.57,-129.07"/>
</g>
<!-- Node35 -->
<g id="node35" class="node">
<title>Node35</title>
<g id="a_node35"><a xlink:href="GyroscopeSensor_8cpp.html" target="_top" xlink:title=" ">
<polygon fill="none" stroke="black" points="812.95,-62 812.95,-81 933.95,-81 933.95,-62 812.95,-62"/>
<text text-anchor="middle" x="873.45" y="-69" font-family="FreeSans.ttf" font-size="10.00">GyroscopeSensor.cpp</text>
</a>
</g>
</g>
<!-- Node34&#45;&gt;Node35 -->
<g id="edge51" class="edge">
<title>Node34&#45;&gt;Node35</title>
<path fill="none" stroke="midnightblue" d="M936.17,-122.21C920.01,-109.41 897.53,-91.59 884.33,-81.13"/>
<polygon fill="midnightblue" stroke="midnightblue" points="934.38,-125.26 944.39,-128.73 938.73,-119.78 934.38,-125.26"/>
</g>
<!-- Node36&#45;&gt;Node6 -->
<g id="edge56" class="edge">
<title>Node36&#45;&gt;Node6</title>
<path fill="none" stroke="midnightblue" d="M1761.41,-127.47C1842.15,-115.73 1975.61,-96.32 2060.45,-83.99"/>
<polygon fill="midnightblue" stroke="midnightblue" points="1760.74,-124.03 1751.35,-128.94 1761.75,-130.96 1760.74,-124.03"/>
</g>
<!-- Node36&#45;&gt;Node7 -->
<g id="edge55" class="edge">
<title>Node36&#45;&gt;Node7</title>
<path fill="none" stroke="midnightblue" d="M1653.39,-126.01C1609.65,-113.15 1539.77,-92.59 1500.57,-81.06"/>
<polygon fill="midnightblue" stroke="midnightblue" points="1652.52,-129.4 1663.1,-128.87 1654.5,-122.69 1652.52,-129.4"/>
</g>
<!-- Node36&#45;&gt;Node20 -->
<g id="edge58" class="edge">
<title>Node36&#45;&gt;Node20</title>
<path fill="none" stroke="midnightblue" d="M1720.35,-124.55C1739.94,-115.05 1766.46,-101.35 1788.45,-87 1807,-74.9 1806.73,-63.81 1827.45,-56 1978.39,0.92 2391.83,-34.91 2552.45,-20 2555.21,-19.74 2558.04,-19.46 2560.89,-19.15"/>
<polygon fill="midnightblue" stroke="midnightblue" points="1718.58,-121.51 1711.07,-128.99 1721.61,-127.83 1718.58,-121.51"/>
</g>
<!-- Node36&#45;&gt;Node26 -->
<g id="edge57" class="edge">
<title>Node36&#45;&gt;Node26</title>
<path fill="none" stroke="midnightblue" d="M1710.57,-122.07C1737.22,-99.54 1784.87,-59.85 1794.45,-56 1831.76,-41.01 2075.85,-24.15 2207.91,-15.98"/>
<polygon fill="midnightblue" stroke="midnightblue" points="1708.1,-119.58 1702.73,-128.72 1712.62,-124.92 1708.1,-119.58"/>
</g>
<!-- Node36&#45;&gt;Node30 -->
<g id="edge59" class="edge">
<title>Node36&#45;&gt;Node30</title>
<path fill="none" stroke="midnightblue" d="M1606.22,-133.94C1383.2,-124.62 798.6,-99.33 711.45,-87 701.49,-85.59 690.78,-83.35 681.11,-81.05"/>
<polygon fill="midnightblue" stroke="midnightblue" points="1606.11,-137.44 1616.25,-134.36 1606.4,-130.45 1606.11,-137.44"/>
</g>
<!-- Node36&#45;&gt;Node32 -->
<g id="edge61" class="edge">
<title>Node36&#45;&gt;Node32</title>
<path fill="none" stroke="midnightblue" d="M1605.92,-130.16C1504.19,-121.25 1330.32,-105.14 1181.45,-87 1167,-85.24 1151.4,-83.1 1136.93,-81"/>
<polygon fill="midnightblue" stroke="midnightblue" points="1605.88,-133.67 1616.15,-131.05 1606.49,-126.69 1605.88,-133.67"/>
</g>
<!-- Node36&#45;&gt;Node33 -->
<g id="edge62" class="edge">
<title>Node36&#45;&gt;Node33</title>
<path fill="none" stroke="midnightblue" d="M1606.06,-133.78C1398.24,-124.66 881.84,-100.92 804.45,-87 796.72,-85.61 788.47,-83.34 781.08,-81.02"/>
<polygon fill="midnightblue" stroke="midnightblue" points="1606.17,-137.29 1616.31,-134.23 1606.48,-130.29 1606.17,-137.29"/>
</g>
<!-- Node36&#45;&gt;Node37 -->
<g id="edge60" class="edge">
<title>Node36&#45;&gt;Node37</title>
<path fill="none" stroke="midnightblue" d="M1732.47,-126.09C1777.58,-113.23 1849.88,-92.62 1890.41,-81.06"/>
<polygon fill="midnightblue" stroke="midnightblue" points="1731.38,-122.76 1722.73,-128.87 1733.3,-129.49 1731.38,-122.76"/>
</g>
<!-- Node38 -->
<g id="node38" class="node">
<title>Node38</title>
<g id="a_node38"><a xlink:href="SixAxisForceTorqueSensor_8cpp.html" target="_top" xlink:title=" ">
<polygon fill="none" stroke="black" points="1578.45,-62 1578.45,-81 1742.45,-81 1742.45,-62 1578.45,-62"/>
<text text-anchor="middle" x="1660.45" y="-69" font-family="FreeSans.ttf" font-size="10.00">SixAxisForceTorqueSensor.cpp</text>
</a>
</g>
</g>
<!-- Node36&#45;&gt;Node38 -->
<g id="edge63" class="edge">
<title>Node36&#45;&gt;Node38</title>
<path fill="none" stroke="midnightblue" d="M1683.67,-119.66C1677.5,-107.13 1669.51,-90.91 1664.7,-81.13"/>
<polygon fill="midnightblue" stroke="midnightblue" points="1680.58,-121.31 1688.14,-128.73 1686.86,-118.22 1680.58,-121.31"/>
</g>
<!-- Node39&#45;&gt;Node30 -->
<g id="edge65" class="edge">
<title>Node39&#45;&gt;Node30</title>
<path fill="none" stroke="midnightblue" d="M1159.11,-132.52C1049.69,-125.99 866.98,-112.27 711.45,-87 701.85,-85.44 691.52,-83.24 682.1,-81.02"/>
<polygon fill="midnightblue" stroke="midnightblue" points="1158.96,-136.02 1169.15,-133.11 1159.37,-129.03 1158.96,-136.02"/>
</g>
<!-- Node39&#45;&gt;Node32 -->
<g id="edge66" class="edge">
<title>Node39&#45;&gt;Node32</title>
<path fill="none" stroke="midnightblue" d="M1208.75,-119.78C1174.82,-107.18 1130.74,-90.81 1104.35,-81.01"/>
<polygon fill="midnightblue" stroke="midnightblue" points="1207.89,-123.2 1218.48,-123.4 1210.32,-116.63 1207.89,-123.2"/>
</g>
<!-- Node40 -->
<g id="node40" class="node">
<title>Node40</title>
<g id="a_node40"><a xlink:href="ThreeAxisAngularAccelerometerSensor_8cpp.html" target="_top" xlink:title=" ">
<polygon fill="none" stroke="black" points="1190.45,-56.5 1190.45,-86.5 1364.45,-86.5 1364.45,-56.5 1190.45,-56.5"/>
<text text-anchor="start" x="1198.45" y="-74.5" font-family="FreeSans.ttf" font-size="10.00">ThreeAxisAngularAccelerometer</text>
<text text-anchor="middle" x="1277.45" y="-63.5" font-family="FreeSans.ttf" font-size="10.00">Sensor.cpp</text>
</a>
</g>
</g>
<!-- Node39&#45;&gt;Node40 -->
<g id="edge67" class="edge">
<title>Node39&#45;&gt;Node40</title>
<path fill="none" stroke="midnightblue" d="M1264.14,-113.7C1267.08,-104.59 1270.35,-94.49 1272.9,-86.58"/>
<polygon fill="midnightblue" stroke="midnightblue" points="1260.75,-112.8 1261.01,-123.4 1267.41,-114.96 1260.75,-112.8"/>
</g>
<!-- Node41&#45;&gt;Node30 -->
<g id="edge69" class="edge">
<title>Node41&#45;&gt;Node30</title>
<path fill="none" stroke="midnightblue" d="M612.93,-115.66C622.91,-103.86 634.67,-89.97 642.09,-81.19"/>
<polygon fill="midnightblue" stroke="midnightblue" points="610.17,-113.5 606.39,-123.4 615.52,-118.02 610.17,-113.5"/>
</g>
<!-- Node42 -->
<g id="node42" class="node">
<title>Node42</title>
<g id="a_node42"><a xlink:href="ThreeAxisForceTorqueContactSensor_8cpp.html" target="_top" xlink:title=" ">
<polygon fill="none" stroke="black" points="221.95,-56.5 221.95,-86.5 382.95,-86.5 382.95,-56.5 221.95,-56.5"/>
<text text-anchor="start" x="229.95" y="-74.5" font-family="FreeSans.ttf" font-size="10.00">ThreeAxisForceTorqueContact</text>
<text text-anchor="middle" x="302.45" y="-63.5" font-family="FreeSans.ttf" font-size="10.00">Sensor.cpp</text>
</a>
</g>
</g>
<!-- Node41&#45;&gt;Node42 -->
<g id="edge70" class="edge">
<title>Node41&#45;&gt;Node42</title>
<path fill="none" stroke="midnightblue" d="M521.44,-121.25C473.5,-110.58 411.41,-96.75 365.59,-86.55"/>
<polygon fill="midnightblue" stroke="midnightblue" points="520.93,-124.72 531.45,-123.48 522.45,-117.89 520.93,-124.72"/>
</g>
</g>
</svg>
