<?xml version="1.0" encoding="UTF-8" standalone="no"?>
<!DOCTYPE svg PUBLIC "-//W3C//DTD SVG 1.1//EN"
 "http://www.w3.org/Graphics/SVG/1.1/DTD/svg11.dtd">
<!-- Generated by graphviz version 2.43.0 (0)
 -->
<!-- Title: Sensors.h Pages: 1 -->
<svg width="4474pt" height="218pt"
 viewBox="0.00 0.00 4474.00 218.00" xmlns="http://www.w3.org/2000/svg" xmlns:xlink="http://www.w3.org/1999/xlink">
<g id="graph0" class="graph" transform="scale(1 1) rotate(0) translate(4 214)">
<title>Sensors.h</title>
<!-- Node1 -->
<g id="node1" class="node">
<title>Node1</title>
<g id="a_node1"><a xlink:title=" ">
<polygon fill="#bfbfbf" stroke="black" points="1693.5,-190.5 1693.5,-209.5 1757.5,-209.5 1757.5,-190.5 1693.5,-190.5"/>
<text text-anchor="middle" x="1725.5" y="-197.5" font-family="FreeSans.ttf" font-size="10.00">Sensors.h</text>
</a>
</g>
</g>
<!-- Node2 -->
<g id="node2" class="node">
<title>Node2</title>
<g id="a_node2"><a xlink:href="BerdyHelper_8h.html" target="_top" xlink:title=" ">
<polygon fill="none" stroke="black" points="108.5,-129 108.5,-148 194.5,-148 194.5,-129 108.5,-129"/>
<text text-anchor="middle" x="151.5" y="-136" font-family="FreeSans.ttf" font-size="10.00">BerdyHelper.h</text>
</a>
</g>
</g>
<!-- Node1&#45;&gt;Node2 -->
<g id="edge1" class="edge">
<title>Node1&#45;&gt;Node2</title>
<path fill="none" stroke="midnightblue" d="M1682.79,-197.66C1522.16,-192.6 938.97,-173.88 458.5,-154 364.4,-150.11 254.13,-144.69 194.71,-141.7"/>
<polygon fill="midnightblue" stroke="midnightblue" points="1683.08,-201.18 1693.19,-197.99 1683.3,-194.18 1683.08,-201.18"/>
</g>
<!-- Node3 -->
<g id="node3" class="node">
<title>Node3</title>
<g id="a_node3"><a xlink:href="BerdyHelper_8cpp.html" target="_top" xlink:title=" ">
<polygon fill="none" stroke="black" points="0,-0.5 0,-19.5 97,-19.5 97,-0.5 0,-0.5"/>
<text text-anchor="middle" x="48.5" y="-7.5" font-family="FreeSans.ttf" font-size="10.00">BerdyHelper.cpp</text>
</a>
</g>
</g>
<!-- Node1&#45;&gt;Node3 -->
<g id="edge6" class="edge">
<title>Node1&#45;&gt;Node3</title>
<path fill="none" stroke="midnightblue" d="M1683.06,-198.88C1434.1,-198.03 171.6,-191.86 99.5,-154 66.84,-136.85 62.42,-121.91 50.5,-87 42.57,-63.77 45.11,-34.17 47.09,-19.73"/>
<polygon fill="midnightblue" stroke="midnightblue" points="1683.15,-202.38 1693.16,-198.91 1683.17,-195.38 1683.15,-202.38"/>
</g>
<!-- Node5 -->
<g id="node5" class="node">
<title>Node5</title>
<g id="a_node5"><a xlink:href="ExtWrenchesAndJointTorquesEstimator_8h.html" target="_top" xlink:title=" ">
<polygon fill="none" stroke="black" points="1886.5,-123.5 1886.5,-153.5 2044.5,-153.5 2044.5,-123.5 1886.5,-123.5"/>
<text text-anchor="start" x="1894.5" y="-141.5" font-family="FreeSans.ttf" font-size="10.00">ExtWrenchesAndJointTorques</text>
<text text-anchor="middle" x="1965.5" y="-130.5" font-family="FreeSans.ttf" font-size="10.00">Estimator.h</text>
</a>
</g>
</g>
<!-- Node1&#45;&gt;Node5 -->
<g id="edge4" class="edge">
<title>Node1&#45;&gt;Node5</title>
<path fill="none" stroke="midnightblue" d="M1767.64,-188.55C1806.85,-178.83 1865.57,-164.27 1908.87,-153.54"/>
<polygon fill="midnightblue" stroke="midnightblue" points="1766.73,-185.17 1757.87,-190.98 1768.42,-191.97 1766.73,-185.17"/>
</g>
<!-- Node6 -->
<g id="node6" class="node">
<title>Node6</title>
<g id="a_node6"><a xlink:href="ExtWrenchesAndJointTorquesEstimator_8cpp.html" target="_top" xlink:title=" ">
<polygon fill="none" stroke="black" points="2083.5,-56.5 2083.5,-86.5 2241.5,-86.5 2241.5,-56.5 2083.5,-56.5"/>
<text text-anchor="start" x="2091.5" y="-74.5" font-family="FreeSans.ttf" font-size="10.00">ExtWrenchesAndJointTorques</text>
<text text-anchor="middle" x="2162.5" y="-63.5" font-family="FreeSans.ttf" font-size="10.00">Estimator.cpp</text>
</a>
</g>
</g>
<!-- Node1&#45;&gt;Node6 -->
<g id="edge8" class="edge">
<title>Node1&#45;&gt;Node6</title>
<path fill="none" stroke="midnightblue" d="M1767.75,-199.84C1831.94,-199.68 1956.78,-193.67 2053.5,-154 2091.98,-138.22 2129.07,-105.62 2148.49,-86.78"/>
<polygon fill="midnightblue" stroke="midnightblue" points="1767.61,-196.34 1757.61,-199.82 1767.6,-203.34 1767.61,-196.34"/>
</g>
<!-- Node7 -->
<g id="node7" class="node">
<title>Node7</title>
<g id="a_node7"><a xlink:href="ExternalWrenchesEstimation_8cpp.html" target="_top" xlink:title=" ">
<polygon fill="none" stroke="black" points="1701.5,-62 1701.5,-81 1879.5,-81 1879.5,-62 1701.5,-62"/>
<text text-anchor="middle" x="1790.5" y="-69" font-family="FreeSans.ttf" font-size="10.00">ExternalWrenchesEstimation.cpp</text>
</a>
</g>
</g>
<!-- Node1&#45;&gt;Node7 -->
<g id="edge7" class="edge">
<title>Node1&#45;&gt;Node7</title>
<path fill="none" stroke="midnightblue" d="M1734.54,-181.4C1748.65,-153.94 1775.39,-101.9 1786,-81.26"/>
<polygon fill="midnightblue" stroke="midnightblue" points="1731.42,-179.81 1729.97,-190.31 1737.65,-183.01 1731.42,-179.81"/>
</g>
<!-- Node8 -->
<g id="node8" class="node">
<title>Node8</title>
<g id="a_node8"><a xlink:href="ModelCalibrationHelper_8h.html" target="_top" xlink:title=" ">
<polygon fill="none" stroke="black" points="2597.5,-62 2597.5,-81 2737.5,-81 2737.5,-62 2597.5,-62"/>
<text text-anchor="middle" x="2667.5" y="-69" font-family="FreeSans.ttf" font-size="10.00">ModelCalibrationHelper.h</text>
</a>
</g>
</g>
<!-- Node1&#45;&gt;Node8 -->
<g id="edge9" class="edge">
<title>Node1&#45;&gt;Node8</title>
<path fill="none" stroke="midnightblue" d="M1767.9,-198.29C1905.13,-195.72 2336.13,-185.29 2471.5,-154 2541.87,-137.73 2619.38,-98.6 2651.84,-81.15"/>
<polygon fill="midnightblue" stroke="midnightblue" points="1767.72,-194.8 1757.78,-198.48 1767.85,-201.8 1767.72,-194.8"/>
</g>
<!-- Node10 -->
<g id="node10" class="node">
<title>Node10</title>
<g id="a_node10"><a xlink:href="ModelExporter_8h.html" target="_top" xlink:title=" ">
<polygon fill="none" stroke="black" points="2717.5,-129 2717.5,-148 2813.5,-148 2813.5,-129 2717.5,-129"/>
<text text-anchor="middle" x="2765.5" y="-136" font-family="FreeSans.ttf" font-size="10.00">ModelExporter.h</text>
</a>
</g>
</g>
<!-- Node1&#45;&gt;Node10 -->
<g id="edge11" class="edge">
<title>Node1&#45;&gt;Node10</title>
<path fill="none" stroke="midnightblue" d="M1767.89,-197.51C1895.6,-192.88 2287.91,-177.6 2612.5,-154 2647.63,-151.45 2687.21,-147.67 2717.31,-144.61"/>
<polygon fill="midnightblue" stroke="midnightblue" points="1767.62,-194.02 1757.75,-197.87 1767.87,-201.01 1767.62,-194.02"/>
</g>
<!-- Node14 -->
<g id="node14" class="node">
<title>Node14</title>
<g id="a_node14"><a xlink:href="ModelLoader_8h.html" target="_top" xlink:title=" ">
<polygon fill="none" stroke="black" points="3512.5,-129 3512.5,-148 3600.5,-148 3600.5,-129 3512.5,-129"/>
<text text-anchor="middle" x="3556.5" y="-136" font-family="FreeSans.ttf" font-size="10.00">ModelLoader.h</text>
</a>
</g>
</g>
<!-- Node1&#45;&gt;Node14 -->
<g id="edge18" class="edge">
<title>Node1&#45;&gt;Node14</title>
<path fill="none" stroke="midnightblue" d="M1768,-197.62C2014.75,-189.6 3260.78,-149.11 3512.23,-140.94"/>
<polygon fill="midnightblue" stroke="midnightblue" points="1767.55,-194.13 1757.67,-197.95 1767.78,-201.13 1767.55,-194.13"/>
</g>
<!-- Node18 -->
<g id="node18" class="node">
<title>Node18</title>
<g id="a_node18"><a xlink:href="URDFDocument_8h.html" target="_top" xlink:title=" ">
<polygon fill="none" stroke="black" points="2965.5,-62 2965.5,-81 3069.5,-81 3069.5,-62 2965.5,-62"/>
<text text-anchor="middle" x="3017.5" y="-69" font-family="FreeSans.ttf" font-size="10.00">URDFDocument.h</text>
</a>
</g>
</g>
<!-- Node1&#45;&gt;Node18 -->
<g id="edge41" class="edge">
<title>Node1&#45;&gt;Node18</title>
<path fill="none" stroke="midnightblue" d="M1767.85,-199.26C1943.63,-200.02 2616.1,-199.82 2822.5,-154 2892.71,-138.42 2969.72,-98.92 3001.96,-81.26"/>
<polygon fill="midnightblue" stroke="midnightblue" points="1767.73,-195.76 1757.71,-199.21 1767.69,-202.76 1767.73,-195.76"/>
</g>
<!-- Node27 -->
<g id="node27" class="node">
<title>Node27</title>
<g id="a_node27"><a xlink:href="SensorElement_8h.html" target="_top" xlink:title=" ">
<polygon fill="none" stroke="black" points="2327,-129 2327,-148 2426,-148 2426,-129 2327,-129"/>
<text text-anchor="middle" x="2376.5" y="-136" font-family="FreeSans.ttf" font-size="10.00">SensorElement.h</text>
</a>
</g>
</g>
<!-- Node1&#45;&gt;Node27 -->
<g id="edge34" class="edge">
<title>Node1&#45;&gt;Node27</title>
<path fill="none" stroke="midnightblue" d="M1767.99,-195.12C1883.48,-184.56 2202.75,-155.38 2326.55,-144.07"/>
<polygon fill="midnightblue" stroke="midnightblue" points="1767.42,-191.65 1757.78,-196.05 1768.06,-198.62 1767.42,-191.65"/>
</g>
<!-- Node30 -->
<g id="node30" class="node">
<title>Node30</title>
<g id="a_node30"><a xlink:href="SensorElement_8cpp.html" target="_top" xlink:title=" ">
<polygon fill="none" stroke="black" points="1360.5,-0.5 1360.5,-19.5 1470.5,-19.5 1470.5,-0.5 1360.5,-0.5"/>
<text text-anchor="middle" x="1415.5" y="-7.5" font-family="FreeSans.ttf" font-size="10.00">SensorElement.cpp</text>
</a>
</g>
</g>
<!-- Node1&#45;&gt;Node30 -->
<g id="edge43" class="edge">
<title>Node1&#45;&gt;Node30</title>
<path fill="none" stroke="midnightblue" d="M1682.79,-195.82C1617.98,-188.53 1495.83,-164.67 1434.5,-87 1418.49,-66.72 1415.78,-34.68 1415.44,-19.51"/>
<polygon fill="midnightblue" stroke="midnightblue" points="1682.76,-199.33 1693.07,-196.89 1683.48,-192.37 1682.76,-199.33"/>
</g>
<!-- Node31 -->
<g id="node31" class="node">
<title>Node31</title>
<g id="a_node31"><a xlink:href="RobotElement_8cpp.html" target="_top" xlink:title=" ">
<polygon fill="none" stroke="black" points="2473.5,-62 2473.5,-81 2579.5,-81 2579.5,-62 2473.5,-62"/>
<text text-anchor="middle" x="2526.5" y="-69" font-family="FreeSans.ttf" font-size="10.00">RobotElement.cpp</text>
</a>
</g>
</g>
<!-- Node1&#45;&gt;Node31 -->
<g id="edge42" class="edge">
<title>Node1&#45;&gt;Node31</title>
<path fill="none" stroke="midnightblue" d="M1767.88,-197.93C1911.47,-194.07 2374.03,-179.76 2435.5,-154 2473.84,-137.93 2506.81,-98.7 2520.16,-81.18"/>
<polygon fill="midnightblue" stroke="midnightblue" points="1767.62,-194.43 1757.71,-198.2 1767.8,-201.43 1767.62,-194.43"/>
</g>
<!-- Node32 -->
<g id="node32" class="node">
<title>Node32</title>
<g id="a_node32"><a xlink:href="AccelerometerSensor_8h.html" target="_top" xlink:title=" ">
<polygon fill="none" stroke="black" points="704,-129 704,-148 833,-148 833,-129 704,-129"/>
<text text-anchor="middle" x="768.5" y="-136" font-family="FreeSans.ttf" font-size="10.00">AccelerometerSensor.h</text>
</a>
</g>
</g>
<!-- Node1&#45;&gt;Node32 -->
<g id="edge44" class="edge">
<title>Node1&#45;&gt;Node32</title>
<path fill="none" stroke="midnightblue" d="M1683.34,-198.54C1557.21,-196.81 1171.82,-188.83 854.5,-154 840.95,-152.51 826.3,-150.28 813,-148.01"/>
<polygon fill="midnightblue" stroke="midnightblue" points="1683.32,-202.04 1693.36,-198.68 1683.41,-195.04 1683.32,-202.04"/>
</g>
<!-- Node35 -->
<g id="node35" class="node">
<title>Node35</title>
<g id="a_node35"><a xlink:href="PredictSensorsMeasurements_8cpp.html" target="_top" xlink:title=" ">
<polygon fill="none" stroke="black" points="1205.5,-62 1205.5,-81 1387.5,-81 1387.5,-62 1205.5,-62"/>
<text text-anchor="middle" x="1296.5" y="-69" font-family="FreeSans.ttf" font-size="10.00">PredictSensorsMeasurements.cpp</text>
</a>
</g>
</g>
<!-- Node1&#45;&gt;Node35 -->
<g id="edge75" class="edge">
<title>Node1&#45;&gt;Node35</title>
<path fill="none" stroke="midnightblue" d="M1683.18,-199.96C1619.51,-199.92 1496.42,-194.02 1401.5,-154 1360.04,-136.52 1320.82,-98.38 1304.48,-81.2"/>
<polygon fill="midnightblue" stroke="midnightblue" points="1683.26,-203.46 1693.25,-199.92 1683.23,-196.46 1683.26,-203.46"/>
</g>
<!-- Node36 -->
<g id="node36" class="node">
<title>Node36</title>
<g id="a_node36"><a xlink:href="Sensors_8cpp.html" target="_top" xlink:title=" ">
<polygon fill="none" stroke="black" points="422,-62 422,-81 497,-81 497,-62 422,-62"/>
<text text-anchor="middle" x="459.5" y="-69" font-family="FreeSans.ttf" font-size="10.00">Sensors.cpp</text>
</a>
</g>
</g>
<!-- Node1&#45;&gt;Node36 -->
<g id="edge76" class="edge">
<title>Node1&#45;&gt;Node36</title>
<path fill="none" stroke="midnightblue" d="M1683.2,-199.21C1484.36,-199.94 647.77,-200.21 541.5,-154 505.42,-138.31 476.52,-98.87 464.96,-81.25"/>
<polygon fill="midnightblue" stroke="midnightblue" points="1683.27,-202.71 1693.25,-199.17 1683.24,-195.71 1683.27,-202.71"/>
</g>
<!-- Node37 -->
<g id="node37" class="node">
<title>Node37</title>
<g id="a_node37"><a xlink:href="GyroscopeSensor_8h.html" target="_top" xlink:title=" ">
<polygon fill="none" stroke="black" points="550.5,-129 550.5,-148 660.5,-148 660.5,-129 550.5,-129"/>
<text text-anchor="middle" x="605.5" y="-136" font-family="FreeSans.ttf" font-size="10.00">GyroscopeSensor.h</text>
</a>
</g>
</g>
<!-- Node1&#45;&gt;Node37 -->
<g id="edge51" class="edge">
<title>Node1&#45;&gt;Node37</title>
<path fill="none" stroke="midnightblue" d="M1682.97,-198.94C1541.9,-198.35 1076.63,-193.33 694.5,-154 680.48,-152.56 665.32,-150.34 651.55,-148.06"/>
<polygon fill="midnightblue" stroke="midnightblue" points="1683.32,-202.44 1693.33,-198.97 1683.34,-195.44 1683.32,-202.44"/>
</g>
<!-- Node39 -->
<g id="node39" class="node">
<title>Node39</title>
<g id="a_node39"><a xlink:href="SixAxisForceTorqueSensor_8h.html" target="_top" xlink:title=" ">
<polygon fill="none" stroke="black" points="1572.5,-129 1572.5,-148 1724.5,-148 1724.5,-129 1572.5,-129"/>
<text text-anchor="middle" x="1648.5" y="-136" font-family="FreeSans.ttf" font-size="10.00">SixAxisForceTorqueSensor.h</text>
</a>
</g>
</g>
<!-- Node1&#45;&gt;Node39 -->
<g id="edge57" class="edge">
<title>Node1&#45;&gt;Node39</title>
<path fill="none" stroke="midnightblue" d="M1706.47,-184.29C1691.7,-172.88 1671.74,-157.46 1659.51,-148.01"/>
<polygon fill="midnightblue" stroke="midnightblue" points="1704.41,-187.13 1714.47,-190.48 1708.69,-181.59 1704.41,-187.13"/>
</g>
<!-- Node40 -->
<g id="node40" class="node">
<title>Node40</title>
<g id="a_node40"><a xlink:href="ModelSensorsTransformers_8cpp.html" target="_top" xlink:title=" ">
<polygon fill="none" stroke="black" points="1897,-62 1897,-81 2066,-81 2066,-62 1897,-62"/>
<text text-anchor="middle" x="1981.5" y="-69" font-family="FreeSans.ttf" font-size="10.00">ModelSensorsTransformers.cpp</text>
</a>
</g>
</g>
<!-- Node1&#45;&gt;Node40 -->
<g id="edge74" class="edge">
<title>Node1&#45;&gt;Node40</title>
<path fill="none" stroke="midnightblue" d="M1751.85,-185.71C1782.13,-170.46 1833.32,-144.77 1877.5,-123 1907.75,-108.1 1943.08,-91 1963.8,-81.02"/>
<polygon fill="midnightblue" stroke="midnightblue" points="1750.15,-182.65 1742.79,-190.27 1753.3,-188.9 1750.15,-182.65"/>
</g>
<!-- Node42 -->
<g id="node42" class="node">
<title>Node42</title>
<g id="a_node42"><a xlink:href="ThreeAxisAngularAccelerometerSensor_8h.html" target="_top" xlink:title=" ">
<polygon fill="none" stroke="black" points="1108.5,-123.5 1108.5,-153.5 1282.5,-153.5 1282.5,-123.5 1108.5,-123.5"/>
<text text-anchor="start" x="1116.5" y="-141.5" font-family="FreeSans.ttf" font-size="10.00">ThreeAxisAngularAccelerometer</text>
<text text-anchor="middle" x="1195.5" y="-130.5" font-family="FreeSans.ttf" font-size="10.00">Sensor.h</text>
</a>
</g>
</g>
<!-- Node1&#45;&gt;Node42 -->
<g id="edge67" class="edge">
<title>Node1&#45;&gt;Node42</title>
<path fill="none" stroke="midnightblue" d="M1683.15,-194.31C1609.72,-186.16 1454.02,-168.85 1322.5,-154 1309.6,-152.54 1295.96,-151 1282.6,-149.47"/>
<polygon fill="midnightblue" stroke="midnightblue" points="1683.04,-197.82 1693.37,-195.44 1683.82,-190.86 1683.04,-197.82"/>
</g>
<!-- Node44 -->
<g id="node44" class="node">
<title>Node44</title>
<g id="a_node44"><a xlink:href="ThreeAxisForceTorqueContactSensor_8h.html" target="_top" xlink:title=" ">
<polygon fill="none" stroke="black" points="863,-123.5 863,-153.5 1024,-153.5 1024,-123.5 863,-123.5"/>
<text text-anchor="start" x="871" y="-141.5" font-family="FreeSans.ttf" font-size="10.00">ThreeAxisForceTorqueContact</text>
<text text-anchor="middle" x="943.5" y="-130.5" font-family="FreeSans.ttf" font-size="10.00">Sensor.h</text>
</a>
</g>
</g>
<!-- Node1&#45;&gt;Node44 -->
<g id="edge71" class="edge">
<title>Node1&#45;&gt;Node44</title>
<path fill="none" stroke="midnightblue" d="M1683.12,-196.26C1582.06,-189.66 1318.96,-172.09 1099.5,-154 1074.97,-151.98 1048.28,-149.57 1024.04,-147.31"/>
<polygon fill="midnightblue" stroke="midnightblue" points="1683.02,-199.76 1693.23,-196.92 1683.48,-192.78 1683.02,-199.76"/>
</g>
<!-- Node2&#45;&gt;Node3 -->
<g id="edge2" class="edge">
<title>Node2&#45;&gt;Node3</title>
<path fill="none" stroke="midnightblue" d="M117.91,-124.77C100.44,-116.51 80.14,-104.08 67.5,-87 52.29,-66.45 49.17,-35.1 48.59,-19.89"/>
<polygon fill="midnightblue" stroke="midnightblue" points="116.7,-128.06 127.26,-128.93 119.55,-121.66 116.7,-128.06"/>
</g>
<!-- Node4 -->
<g id="node4" class="node">
<title>Node4</title>
<g id="a_node4"><a xlink:href="BerdySparseMAPSolver_8cpp.html" target="_top" xlink:title=" ">
<polygon fill="none" stroke="black" points="76.5,-62 76.5,-81 226.5,-81 226.5,-62 76.5,-62"/>
<text text-anchor="middle" x="151.5" y="-69" font-family="FreeSans.ttf" font-size="10.00">BerdySparseMAPSolver.cpp</text>
</a>
</g>
</g>
<!-- Node2&#45;&gt;Node4 -->
<g id="edge3" class="edge">
<title>Node2&#45;&gt;Node4</title>
<path fill="none" stroke="midnightblue" d="M151.5,-118.54C151.5,-106.17 151.5,-90.62 151.5,-81.13"/>
<polygon fill="midnightblue" stroke="midnightblue" points="148,-118.73 151.5,-128.73 155,-118.73 148,-118.73"/>
</g>
<!-- Node5&#45;&gt;Node6 -->
<g id="edge5" class="edge">
<title>Node5&#45;&gt;Node6</title>
<path fill="none" stroke="midnightblue" d="M2017.85,-120.23C2049.72,-109.71 2089.91,-96.45 2119.84,-86.58"/>
<polygon fill="midnightblue" stroke="midnightblue" points="2016.65,-116.94 2008.25,-123.4 2018.84,-123.59 2016.65,-116.94"/>
</g>
<!-- Node9 -->
<g id="node9" class="node">
<title>Node9</title>
<g id="a_node9"><a xlink:href="ModelCalibrationHelper_8cpp.html" target="_top" xlink:title=" ">
<polygon fill="none" stroke="black" points="2628.5,-0.5 2628.5,-19.5 2780.5,-19.5 2780.5,-0.5 2628.5,-0.5"/>
<text text-anchor="middle" x="2704.5" y="-7.5" font-family="FreeSans.ttf" font-size="10.00">ModelCalibrationHelper.cpp</text>
</a>
</g>
</g>
<!-- Node8&#45;&gt;Node9 -->
<g id="edge10" class="edge">
<title>Node8&#45;&gt;Node9</title>
<path fill="none" stroke="midnightblue" d="M2678.28,-53.17C2685.16,-42.11 2693.77,-28.25 2699.21,-19.51"/>
<polygon fill="midnightblue" stroke="midnightblue" points="2675.11,-51.63 2672.8,-61.98 2681.05,-55.33 2675.11,-51.63"/>
</g>
<!-- Node10&#45;&gt;Node8 -->
<g id="edge12" class="edge">
<title>Node10&#45;&gt;Node8</title>
<path fill="none" stroke="midnightblue" d="M2743.78,-123.09C2724.39,-110.24 2696.64,-91.83 2680.51,-81.13"/>
<polygon fill="midnightblue" stroke="midnightblue" points="2742.02,-126.12 2752.28,-128.73 2745.88,-120.29 2742.02,-126.12"/>
</g>
<!-- Node10&#45;&gt;Node9 -->
<g id="edge16" class="edge">
<title>Node10&#45;&gt;Node9</title>
<path fill="none" stroke="midnightblue" d="M2763.88,-118.52C2761.79,-101.35 2757.06,-75.79 2746.5,-56 2738.65,-41.29 2724.77,-27.8 2715.13,-19.5"/>
<polygon fill="midnightblue" stroke="midnightblue" points="2760.45,-119.31 2764.95,-128.9 2767.41,-118.59 2760.45,-119.31"/>
</g>
<!-- Node11 -->
<g id="node11" class="node">
<title>Node11</title>
<g id="a_node11"><a xlink:href="URDFModelExport_8h.html" target="_top" xlink:title=" ">
<polygon fill="none" stroke="black" points="2832,-62 2832,-81 2947,-81 2947,-62 2832,-62"/>
<text text-anchor="middle" x="2889.5" y="-69" font-family="FreeSans.ttf" font-size="10.00">URDFModelExport.h</text>
</a>
</g>
</g>
<!-- Node10&#45;&gt;Node11 -->
<g id="edge13" class="edge">
<title>Node10&#45;&gt;Node11</title>
<path fill="none" stroke="midnightblue" d="M2791.06,-124.1C2815.61,-111.23 2851.99,-92.16 2872.97,-81.17"/>
<polygon fill="midnightblue" stroke="midnightblue" points="2789.2,-121.13 2781.97,-128.87 2792.45,-127.33 2789.2,-121.13"/>
</g>
<!-- Node12 -->
<g id="node12" class="node">
<title>Node12</title>
<g id="a_node12"><a xlink:href="ModelExporter_8cpp.html" target="_top" xlink:title=" ">
<polygon fill="none" stroke="black" points="2799,-0.5 2799,-19.5 2906,-19.5 2906,-0.5 2799,-0.5"/>
<text text-anchor="middle" x="2852.5" y="-7.5" font-family="FreeSans.ttf" font-size="10.00">ModelExporter.cpp</text>
</a>
</g>
</g>
<!-- Node10&#45;&gt;Node12 -->
<g id="edge17" class="edge">
<title>Node10&#45;&gt;Node12</title>
<path fill="none" stroke="midnightblue" d="M2777.35,-120.26C2796.18,-92.9 2832.22,-40.49 2846.48,-19.76"/>
<polygon fill="midnightblue" stroke="midnightblue" points="2774.26,-118.58 2771.48,-128.81 2780.03,-122.55 2774.26,-118.58"/>
</g>
<!-- Node11&#45;&gt;Node12 -->
<g id="edge14" class="edge">
<title>Node11&#45;&gt;Node12</title>
<path fill="none" stroke="midnightblue" d="M2878.72,-53.17C2871.84,-42.11 2863.23,-28.25 2857.79,-19.51"/>
<polygon fill="midnightblue" stroke="midnightblue" points="2875.95,-55.33 2884.2,-61.98 2881.89,-51.63 2875.95,-55.33"/>
</g>
<!-- Node13 -->
<g id="node13" class="node">
<title>Node13</title>
<g id="a_node13"><a xlink:href="URDFModelExport_8cpp.html" target="_top" xlink:title=" ">
<polygon fill="none" stroke="black" points="2924.5,-0.5 2924.5,-19.5 3050.5,-19.5 3050.5,-0.5 2924.5,-0.5"/>
<text text-anchor="middle" x="2987.5" y="-7.5" font-family="FreeSans.ttf" font-size="10.00">URDFModelExport.cpp</text>
</a>
</g>
</g>
<!-- Node11&#45;&gt;Node13 -->
<g id="edge15" class="edge">
<title>Node11&#45;&gt;Node13</title>
<path fill="none" stroke="midnightblue" d="M2912.16,-56.74C2931.09,-45.25 2957.49,-29.22 2973.49,-19.51"/>
<polygon fill="midnightblue" stroke="midnightblue" points="2910.27,-53.79 2903.54,-61.98 2913.91,-59.78 2910.27,-53.79"/>
</g>
<!-- Node14&#45;&gt;Node6 -->
<g id="edge19" class="edge">
<title>Node14&#45;&gt;Node6</title>
<path fill="none" stroke="midnightblue" d="M3502.33,-136.79C3326.78,-134.18 2757.73,-123.29 2288.5,-87 2273.35,-85.83 2257.22,-84.23 2241.73,-82.53"/>
<polygon fill="midnightblue" stroke="midnightblue" points="3502.3,-140.29 3512.35,-136.94 3502.4,-133.29 3502.3,-140.29"/>
</g>
<!-- Node14&#45;&gt;Node9 -->
<g id="edge26" class="edge">
<title>Node14&#45;&gt;Node9</title>
<path fill="none" stroke="midnightblue" d="M3502.44,-134.99C3400.94,-129.68 3185.93,-115.37 3117.5,-87 3097.05,-78.52 3098.93,-64.53 3078.5,-56 3064.94,-50.34 2886.04,-30.44 2780.66,-19.09"/>
<polygon fill="midnightblue" stroke="midnightblue" points="3502.31,-138.49 3512.48,-135.51 3502.67,-131.5 3502.31,-138.49"/>
</g>
<!-- Node15 -->
<g id="node15" class="node">
<title>Node15</title>
<g id="a_node15"><a xlink:href="SimpleLeggedOdometry_8cpp.html" target="_top" xlink:title=" ">
<polygon fill="none" stroke="black" points="3985,-62 3985,-81 4138,-81 4138,-62 3985,-62"/>
<text text-anchor="middle" x="4061.5" y="-69" font-family="FreeSans.ttf" font-size="10.00">SimpleLeggedOdometry.cpp</text>
</a>
</g>
</g>
<!-- Node14&#45;&gt;Node15 -->
<g id="edge20" class="edge">
<title>Node14&#45;&gt;Node15</title>
<path fill="none" stroke="midnightblue" d="M3610.91,-131.51C3690.13,-122.63 3841.83,-105.09 3970.5,-87 3983.33,-85.2 3997.15,-83.08 4010.06,-81.03"/>
<polygon fill="midnightblue" stroke="midnightblue" points="3610.23,-128.06 3600.68,-132.65 3611.01,-135.02 3610.23,-128.06"/>
</g>
<!-- Node16 -->
<g id="node16" class="node">
<title>Node16</title>
<g id="a_node16"><a xlink:href="KinDynComputations_8cpp.html" target="_top" xlink:title=" ">
<polygon fill="none" stroke="black" points="4156.5,-62 4156.5,-81 4296.5,-81 4296.5,-62 4156.5,-62"/>
<text text-anchor="middle" x="4226.5" y="-69" font-family="FreeSans.ttf" font-size="10.00">KinDynComputations.cpp</text>
</a>
</g>
</g>
<!-- Node14&#45;&gt;Node16 -->
<g id="edge21" class="edge">
<title>Node14&#45;&gt;Node16</title>
<path fill="none" stroke="midnightblue" d="M3611.06,-134.6C3715.53,-128.65 3950.89,-113.38 4147.5,-87 4159.52,-85.39 4172.5,-83.2 4184.39,-81"/>
<polygon fill="midnightblue" stroke="midnightblue" points="3610.56,-131.12 3600.77,-135.18 3610.95,-138.11 3610.56,-131.12"/>
</g>
<!-- Node17 -->
<g id="node17" class="node">
<title>Node17</title>
<g id="a_node17"><a xlink:href="InverseKinematicsData_8cpp.html" target="_top" xlink:title=" ">
<polygon fill="none" stroke="black" points="4315,-62 4315,-81 4466,-81 4466,-62 4315,-62"/>
<text text-anchor="middle" x="4390.5" y="-69" font-family="FreeSans.ttf" font-size="10.00">InverseKinematicsData.cpp</text>
</a>
</g>
</g>
<!-- Node14&#45;&gt;Node17 -->
<g id="edge22" class="edge">
<title>Node14&#45;&gt;Node17</title>
<path fill="none" stroke="midnightblue" d="M3610.88,-135.73C3734.59,-131.29 4046.44,-117.75 4305.5,-87 4318.58,-85.45 4332.71,-83.25 4345.63,-81.03"/>
<polygon fill="midnightblue" stroke="midnightblue" points="3610.41,-132.24 3600.54,-136.09 3610.66,-139.24 3610.41,-132.24"/>
</g>
<!-- Node14&#45;&gt;Node18 -->
<g id="edge23" class="edge">
<title>Node14&#45;&gt;Node18</title>
<path fill="none" stroke="midnightblue" d="M3502.23,-133.66C3414.02,-126.97 3234.24,-111.53 3083.5,-87 3073.54,-85.38 3062.83,-83.21 3052.99,-81.05"/>
<polygon fill="midnightblue" stroke="midnightblue" points="3502.03,-137.15 3512.27,-134.41 3502.56,-130.17 3502.03,-137.15"/>
</g>
<!-- Node19 -->
<g id="node19" class="node">
<title>Node19</title>
<g id="a_node19"><a xlink:href="ModelLoader_8cpp.html" target="_top" xlink:title=" ">
<polygon fill="none" stroke="black" points="3506,-0.5 3506,-19.5 3605,-19.5 3605,-0.5 3506,-0.5"/>
<text text-anchor="middle" x="3555.5" y="-7.5" font-family="FreeSans.ttf" font-size="10.00">ModelLoader.cpp</text>
</a>
</g>
</g>
<!-- Node14&#45;&gt;Node19 -->
<g id="edge27" class="edge">
<title>Node14&#45;&gt;Node19</title>
<path fill="none" stroke="midnightblue" d="M3611.01,-134.2C3711.19,-127.57 3916.32,-111.17 3937.5,-87 3946.58,-76.64 3946.65,-66.3 3937.5,-56 3915.76,-31.55 3703.39,-18.16 3605.03,-13.23"/>
<polygon fill="midnightblue" stroke="midnightblue" points="3610.53,-130.72 3600.78,-134.86 3610.99,-137.71 3610.53,-130.72"/>
</g>
<!-- Node21 -->
<g id="node21" class="node">
<title>Node21</title>
<g id="a_node21"><a xlink:href="URDFDofsImport_8cpp.html" target="_top" xlink:title=" ">
<polygon fill="none" stroke="black" points="3126,-62 3126,-81 3245,-81 3245,-62 3126,-62"/>
<text text-anchor="middle" x="3185.5" y="-69" font-family="FreeSans.ttf" font-size="10.00">URDFDofsImport.cpp</text>
</a>
</g>
</g>
<!-- Node14&#45;&gt;Node21 -->
<g id="edge28" class="edge">
<title>Node14&#45;&gt;Node21</title>
<path fill="none" stroke="midnightblue" d="M3502.29,-129.13C3441.76,-119.62 3340.92,-103.3 3254.5,-87 3244.88,-85.19 3234.53,-83.09 3224.85,-81.06"/>
<polygon fill="midnightblue" stroke="midnightblue" points="3501.96,-132.62 3512.39,-130.71 3503.05,-125.7 3501.96,-132.62"/>
</g>
<!-- Node22 -->
<g id="node22" class="node">
<title>Node22</title>
<g id="a_node22"><a xlink:href="idyntree-model-info_8cpp.html" target="_top" xlink:title=" ">
<polygon fill="none" stroke="black" points="3263.5,-62 3263.5,-81 3397.5,-81 3397.5,-62 3263.5,-62"/>
<text text-anchor="middle" x="3330.5" y="-69" font-family="FreeSans.ttf" font-size="10.00">idyntree&#45;model&#45;info.cpp</text>
</a>
</g>
</g>
<!-- Node14&#45;&gt;Node22 -->
<g id="edge29" class="edge">
<title>Node14&#45;&gt;Node22</title>
<path fill="none" stroke="midnightblue" d="M3516.83,-126.09C3472.12,-113.23 3400.45,-92.62 3360.28,-81.06"/>
<polygon fill="midnightblue" stroke="midnightblue" points="3515.91,-129.47 3526.49,-128.87 3517.85,-122.74 3515.91,-129.47"/>
</g>
<!-- Node23 -->
<g id="node23" class="node">
<title>Node23</title>
<g id="a_node23"><a xlink:href="idyntree-model-view_8cpp.html" target="_top" xlink:title=" ">
<polygon fill="none" stroke="black" points="3416,-62 3416,-81 3553,-81 3553,-62 3416,-62"/>
<text text-anchor="middle" x="3484.5" y="-69" font-family="FreeSans.ttf" font-size="10.00">idyntree&#45;model&#45;view.cpp</text>
</a>
</g>
</g>
<!-- Node14&#45;&gt;Node23 -->
<g id="edge30" class="edge">
<title>Node14&#45;&gt;Node23</title>
<path fill="none" stroke="midnightblue" d="M3539.17,-121.86C3525.02,-109.08 3505.54,-91.49 3494.06,-81.13"/>
<polygon fill="midnightblue" stroke="midnightblue" points="3537.02,-124.63 3546.79,-128.73 3541.71,-119.43 3537.02,-124.63"/>
</g>
<!-- Node24 -->
<g id="node24" class="node">
<title>Node24</title>
<g id="a_node24"><a xlink:href="ObserverThread_8cpp.html" target="_top" xlink:title=" ">
<polygon fill="none" stroke="black" points="3571,-62 3571,-81 3686,-81 3686,-62 3571,-62"/>
<text text-anchor="middle" x="3628.5" y="-69" font-family="FreeSans.ttf" font-size="10.00">ObserverThread.cpp</text>
</a>
</g>
</g>
<!-- Node14&#45;&gt;Node24 -->
<g id="edge31" class="edge">
<title>Node14&#45;&gt;Node24</title>
<path fill="none" stroke="midnightblue" d="M3573.83,-121.86C3587.98,-109.08 3607.46,-91.49 3618.94,-81.13"/>
<polygon fill="midnightblue" stroke="midnightblue" points="3571.29,-119.43 3566.21,-128.73 3575.98,-124.63 3571.29,-119.43"/>
</g>
<!-- Node25 -->
<g id="node25" class="node">
<title>Node25</title>
<g id="a_node25"><a xlink:href="urdf2dh_8cpp.html" target="_top" xlink:title=" ">
<polygon fill="none" stroke="black" points="3704.5,-62 3704.5,-81 3778.5,-81 3778.5,-62 3704.5,-62"/>
<text text-anchor="middle" x="3741.5" y="-69" font-family="FreeSans.ttf" font-size="10.00">urdf2dh.cpp</text>
</a>
</g>
</g>
<!-- Node14&#45;&gt;Node25 -->
<g id="edge32" class="edge">
<title>Node14&#45;&gt;Node25</title>
<path fill="none" stroke="midnightblue" d="M3590.84,-125.44C3627.54,-112.54 3684.79,-92.42 3717.13,-81.06"/>
<polygon fill="midnightblue" stroke="midnightblue" points="3589.34,-122.25 3581.07,-128.87 3591.66,-128.86 3589.34,-122.25"/>
</g>
<!-- Node26 -->
<g id="node26" class="node">
<title>Node26</title>
<g id="a_node26"><a xlink:href="robotstatepublisher_8cpp.html" target="_top" xlink:title=" ">
<polygon fill="none" stroke="black" points="3797,-62 3797,-81 3928,-81 3928,-62 3797,-62"/>
<text text-anchor="middle" x="3862.5" y="-69" font-family="FreeSans.ttf" font-size="10.00">robotstatepublisher.cpp</text>
</a>
</g>
</g>
<!-- Node14&#45;&gt;Node26 -->
<g id="edge33" class="edge">
<title>Node14&#45;&gt;Node26</title>
<path fill="none" stroke="midnightblue" d="M3606.86,-126.8C3667.08,-114.01 3766.66,-92.86 3822.09,-81.08"/>
<polygon fill="midnightblue" stroke="midnightblue" points="3605.87,-123.43 3596.82,-128.94 3607.33,-130.28 3605.87,-123.43"/>
</g>
<!-- Node18&#45;&gt;Node19 -->
<g id="edge24" class="edge">
<title>Node18&#45;&gt;Node19</title>
<path fill="none" stroke="midnightblue" d="M3079.53,-61.1C3092.08,-59.31 3105.21,-57.52 3117.5,-56 3258.04,-38.6 3424.54,-22.82 3505.83,-15.42"/>
<polygon fill="midnightblue" stroke="midnightblue" points="3079,-57.64 3069.6,-62.53 3080,-64.56 3079,-57.64"/>
</g>
<!-- Node20 -->
<g id="node20" class="node">
<title>Node20</title>
<g id="a_node20"><a xlink:href="URDFDocument_8cpp.html" target="_top" xlink:title=" ">
<polygon fill="none" stroke="black" points="2135,-0.5 2135,-19.5 2250,-19.5 2250,-0.5 2135,-0.5"/>
<text text-anchor="middle" x="2192.5" y="-7.5" font-family="FreeSans.ttf" font-size="10.00">URDFDocument.cpp</text>
</a>
</g>
</g>
<!-- Node18&#45;&gt;Node20 -->
<g id="edge25" class="edge">
<title>Node18&#45;&gt;Node20</title>
<path fill="none" stroke="midnightblue" d="M2976.25,-59.67C2969.68,-58.24 2962.93,-56.95 2956.5,-56 2694.91,-17.51 2378.35,-11.67 2250.36,-10.97"/>
<polygon fill="midnightblue" stroke="midnightblue" points="2975.83,-63.16 2986.36,-61.99 2977.4,-56.34 2975.83,-63.16"/>
</g>
<!-- Node27&#45;&gt;Node18 -->
<g id="edge38" class="edge">
<title>Node27&#45;&gt;Node18</title>
<path fill="none" stroke="midnightblue" d="M2436.21,-135.19C2541.75,-130.46 2767.95,-117.45 2956.5,-87 2965.96,-85.47 2976.12,-83.28 2985.39,-81.06"/>
<polygon fill="midnightblue" stroke="midnightblue" points="2435.91,-131.7 2426.07,-135.63 2436.21,-138.69 2435.91,-131.7"/>
</g>
<!-- Node28 -->
<g id="node28" class="node">
<title>Node28</title>
<g id="a_node28"><a xlink:href="ForceTorqueSensorElement_8h.html" target="_top" xlink:title=" ">
<polygon fill="none" stroke="black" points="2297.5,-62 2297.5,-81 2455.5,-81 2455.5,-62 2297.5,-62"/>
<text text-anchor="middle" x="2376.5" y="-69" font-family="FreeSans.ttf" font-size="10.00">ForceTorqueSensorElement.h</text>
</a>
</g>
</g>
<!-- Node27&#45;&gt;Node28 -->
<g id="edge35" class="edge">
<title>Node27&#45;&gt;Node28</title>
<path fill="none" stroke="midnightblue" d="M2376.5,-118.54C2376.5,-106.17 2376.5,-90.62 2376.5,-81.13"/>
<polygon fill="midnightblue" stroke="midnightblue" points="2373,-118.73 2376.5,-128.73 2380,-118.73 2373,-118.73"/>
</g>
<!-- Node27&#45;&gt;Node30 -->
<g id="edge40" class="edge">
<title>Node27&#45;&gt;Node30</title>
<path fill="none" stroke="midnightblue" d="M2350.56,-124.06C2332.66,-114.45 2308.58,-100.82 2288.5,-87 2270.54,-74.65 2270.83,-63.86 2250.5,-56 2214.15,-41.94 1651.2,-19.8 1470.72,-13.03"/>
<polygon fill="midnightblue" stroke="midnightblue" points="2349.32,-127.37 2359.79,-128.97 2352.6,-121.19 2349.32,-127.37"/>
</g>
<!-- Node27&#45;&gt;Node31 -->
<g id="edge39" class="edge">
<title>Node27&#45;&gt;Node31</title>
<path fill="none" stroke="midnightblue" d="M2405.85,-124.78C2435.56,-111.91 2480.68,-92.35 2506.5,-81.17"/>
<polygon fill="midnightblue" stroke="midnightblue" points="2404.2,-121.68 2396.42,-128.87 2406.99,-128.1 2404.2,-121.68"/>
</g>
<!-- Node29 -->
<g id="node29" class="node">
<title>Node29</title>
<g id="a_node29"><a xlink:href="ForceTorqueSensorElement_8cpp.html" target="_top" xlink:title=" ">
<polygon fill="none" stroke="black" points="1731,-0.5 1731,-19.5 1900,-19.5 1900,-0.5 1731,-0.5"/>
<text text-anchor="middle" x="1815.5" y="-7.5" font-family="FreeSans.ttf" font-size="10.00">ForceTorqueSensorElement.cpp</text>
</a>
</g>
</g>
<!-- Node28&#45;&gt;Node29 -->
<g id="edge36" class="edge">
<title>Node28&#45;&gt;Node29</title>
<path fill="none" stroke="midnightblue" d="M2315.37,-60.44C2304.76,-58.85 2293.82,-57.3 2283.5,-56 2149.87,-39.17 1994.08,-25.34 1900.21,-17.64"/>
<polygon fill="midnightblue" stroke="midnightblue" points="2315,-63.93 2325.41,-61.98 2316.06,-57.01 2315,-63.93"/>
</g>
<!-- Node28&#45;&gt;Node30 -->
<g id="edge37" class="edge">
<title>Node28&#45;&gt;Node30</title>
<path fill="none" stroke="midnightblue" d="M2317.65,-60.39C2306.34,-58.71 2294.58,-57.15 2283.5,-56 2124.78,-39.56 1635.86,-19.57 1470.68,-13.12"/>
<polygon fill="midnightblue" stroke="midnightblue" points="2317.46,-63.9 2327.87,-61.95 2318.52,-56.98 2317.46,-63.9"/>
</g>
<!-- Node32&#45;&gt;Node30 -->
<g id="edge45" class="edge">
<title>Node32&#45;&gt;Node30</title>
<path fill="none" stroke="midnightblue" d="M743.89,-123.67C717.29,-107.04 681.34,-78.54 702.5,-56 724.94,-32.09 1196.97,-16.97 1360.39,-12.44"/>
<polygon fill="midnightblue" stroke="midnightblue" points="742.09,-126.67 752.46,-128.83 745.7,-120.67 742.09,-126.67"/>
</g>
<!-- Node33 -->
<g id="node33" class="node">
<title>Node33</title>
<g id="a_node33"><a xlink:href="AllSensorsTypes_8h.html" target="_top" xlink:title=" ">
<polygon fill="none" stroke="black" points="891.5,-62 891.5,-81 995.5,-81 995.5,-62 891.5,-62"/>
<text text-anchor="middle" x="943.5" y="-69" font-family="FreeSans.ttf" font-size="10.00">AllSensorsTypes.h</text>
</a>
</g>
</g>
<!-- Node32&#45;&gt;Node33 -->
<g id="edge46" class="edge">
<title>Node32&#45;&gt;Node33</title>
<path fill="none" stroke="midnightblue" d="M801.43,-125.27C836.16,-112.37 889.99,-92.38 920.44,-81.06"/>
<polygon fill="midnightblue" stroke="midnightblue" points="799.89,-122.11 791.74,-128.87 802.33,-128.67 799.89,-122.11"/>
</g>
<!-- Node34 -->
<g id="node34" class="node">
<title>Node34</title>
<g id="a_node34"><a xlink:href="AccelerometerSensor_8cpp.html" target="_top" xlink:title=" ">
<polygon fill="none" stroke="black" points="515.5,-62 515.5,-81 655.5,-81 655.5,-62 515.5,-62"/>
<text text-anchor="middle" x="585.5" y="-69" font-family="FreeSans.ttf" font-size="10.00">AccelerometerSensor.cpp</text>
</a>
</g>
</g>
<!-- Node32&#45;&gt;Node34 -->
<g id="edge48" class="edge">
<title>Node32&#45;&gt;Node34</title>
<path fill="none" stroke="midnightblue" d="M734.54,-125.44C698.23,-112.54 641.59,-92.42 609.61,-81.06"/>
<polygon fill="midnightblue" stroke="midnightblue" points="733.6,-128.82 744.2,-128.87 735.95,-122.22 733.6,-128.82"/>
</g>
<!-- Node32&#45;&gt;Node35 -->
<g id="edge49" class="edge">
<title>Node32&#45;&gt;Node35</title>
<path fill="none" stroke="midnightblue" d="M825.63,-127.36C835.25,-125.8 845.15,-124.28 854.5,-123 1005.93,-102.28 1044.84,-105.97 1196.5,-87 1210.77,-85.21 1226.16,-83.09 1240.49,-81.02"/>
<polygon fill="midnightblue" stroke="midnightblue" points="825.03,-123.91 815.73,-128.99 826.17,-130.82 825.03,-123.91"/>
</g>
<!-- Node32&#45;&gt;Node36 -->
<g id="edge50" class="edge">
<title>Node32&#45;&gt;Node36</title>
<path fill="none" stroke="midnightblue" d="M705.2,-127.29C651.87,-118.21 573.74,-103.8 506.5,-87 499.71,-85.3 492.44,-83.21 485.71,-81.14"/>
<polygon fill="midnightblue" stroke="midnightblue" points="704.74,-130.76 715.19,-128.98 705.91,-123.86 704.74,-130.76"/>
</g>
<!-- Node33&#45;&gt;Node3 -->
<g id="edge47" class="edge">
<title>Node33&#45;&gt;Node3</title>
<path fill="none" stroke="midnightblue" d="M902.26,-59.64C895.69,-58.22 888.93,-56.93 882.5,-56 586.51,-13.19 226.11,-10.15 97.21,-10.59"/>
<polygon fill="midnightblue" stroke="midnightblue" points="901.83,-63.13 912.36,-61.96 903.4,-56.31 901.83,-63.13"/>
</g>
<!-- Node37&#45;&gt;Node30 -->
<g id="edge52" class="edge">
<title>Node37&#45;&gt;Node30</title>
<path fill="none" stroke="midnightblue" d="M539.89,-131.16C468.5,-121.88 369.86,-100.6 412.5,-56 445.46,-21.53 1155.24,-13.11 1360.42,-11.39"/>
<polygon fill="midnightblue" stroke="midnightblue" points="539.85,-134.68 550.21,-132.44 540.72,-127.74 539.85,-134.68"/>
</g>
<!-- Node37&#45;&gt;Node33 -->
<g id="edge53" class="edge">
<title>Node37&#45;&gt;Node33</title>
<path fill="none" stroke="midnightblue" d="M667.12,-127.23C723.38,-117.63 808.75,-102.48 882.5,-87 891.13,-85.19 900.4,-83.07 909.05,-81.03"/>
<polygon fill="midnightblue" stroke="midnightblue" points="666.24,-123.83 656.97,-128.96 667.41,-130.73 666.24,-123.83"/>
</g>
<!-- Node37&#45;&gt;Node35 -->
<g id="edge55" class="edge">
<title>Node37&#45;&gt;Node35</title>
<path fill="none" stroke="midnightblue" d="M662.88,-127.37C673.37,-125.74 684.25,-124.2 694.5,-123 916.67,-96.99 974.11,-111.07 1196.5,-87 1211.59,-85.37 1227.89,-83.18 1242.88,-81.01"/>
<polygon fill="midnightblue" stroke="midnightblue" points="662.29,-123.92 652.96,-128.96 663.39,-130.84 662.29,-123.92"/>
</g>
<!-- Node37&#45;&gt;Node36 -->
<g id="edge56" class="edge">
<title>Node37&#45;&gt;Node36</title>
<path fill="none" stroke="midnightblue" d="M576.93,-124.78C548.02,-111.91 504.1,-92.35 478.97,-81.17"/>
<polygon fill="midnightblue" stroke="midnightblue" points="575.55,-128 586.11,-128.87 578.4,-121.6 575.55,-128"/>
</g>
<!-- Node38 -->
<g id="node38" class="node">
<title>Node38</title>
<g id="a_node38"><a xlink:href="GyroscopeSensor_8cpp.html" target="_top" xlink:title=" ">
<polygon fill="none" stroke="black" points="244,-62 244,-81 365,-81 365,-62 244,-62"/>
<text text-anchor="middle" x="304.5" y="-69" font-family="FreeSans.ttf" font-size="10.00">GyroscopeSensor.cpp</text>
</a>
</g>
</g>
<!-- Node37&#45;&gt;Node38 -->
<g id="edge54" class="edge">
<title>Node37&#45;&gt;Node38</title>
<path fill="none" stroke="midnightblue" d="M555.96,-126.8C496.73,-114.01 398.77,-92.86 344.25,-81.08"/>
<polygon fill="midnightblue" stroke="midnightblue" points="555.33,-130.25 565.84,-128.94 556.8,-123.4 555.33,-130.25"/>
</g>
<!-- Node39&#45;&gt;Node6 -->
<g id="edge59" class="edge">
<title>Node39&#45;&gt;Node6</title>
<path fill="none" stroke="midnightblue" d="M1734.63,-128.53C1820.98,-119.24 1957.67,-103.78 2075.5,-87 2078.08,-86.63 2080.7,-86.25 2083.34,-85.86"/>
<polygon fill="midnightblue" stroke="midnightblue" points="1734.19,-125.05 1724.62,-129.6 1734.93,-132.01 1734.19,-125.05"/>
</g>
<!-- Node39&#45;&gt;Node7 -->
<g id="edge58" class="edge">
<title>Node39&#45;&gt;Node7</title>
<path fill="none" stroke="midnightblue" d="M1676.65,-124.61C1704.78,-111.74 1747.23,-92.31 1771.57,-81.17"/>
<polygon fill="midnightblue" stroke="midnightblue" points="1674.99,-121.52 1667.36,-128.87 1677.91,-127.89 1674.99,-121.52"/>
</g>
<!-- Node39&#45;&gt;Node20 -->
<g id="edge61" class="edge">
<title>Node39&#45;&gt;Node20</title>
<path fill="none" stroke="midnightblue" d="M1652.96,-119.03C1658.65,-99.8 1670.51,-70.49 1692.5,-56 1728.7,-32.14 2010.75,-18.18 2134.56,-13.15"/>
<polygon fill="midnightblue" stroke="midnightblue" points="1649.56,-118.2 1650.34,-128.76 1656.32,-120.01 1649.56,-118.2"/>
</g>
<!-- Node39&#45;&gt;Node29 -->
<g id="edge60" class="edge">
<title>Node39&#45;&gt;Node29</title>
<path fill="none" stroke="midnightblue" d="M1645.65,-118.67C1644.02,-100.46 1644.67,-73.19 1659.5,-56 1677.46,-35.19 1704.36,-23.71 1730.8,-17.46"/>
<polygon fill="midnightblue" stroke="midnightblue" points="1642.19,-119.15 1646.86,-128.66 1649.13,-118.31 1642.19,-119.15"/>
</g>
<!-- Node39&#45;&gt;Node33 -->
<g id="edge62" class="edge">
<title>Node39&#45;&gt;Node33</title>
<path fill="none" stroke="midnightblue" d="M1562.01,-134.98C1437.93,-130.39 1202.51,-118.11 1004.5,-87 994.93,-85.5 984.64,-83.29 975.29,-81.04"/>
<polygon fill="midnightblue" stroke="midnightblue" points="1562.09,-138.48 1572.21,-135.34 1562.35,-131.49 1562.09,-138.48"/>
</g>
<!-- Node39&#45;&gt;Node35 -->
<g id="edge64" class="edge">
<title>Node39&#45;&gt;Node35</title>
<path fill="none" stroke="midnightblue" d="M1592.27,-127.12C1523.08,-114.34 1406.93,-92.89 1342.7,-81.03"/>
<polygon fill="midnightblue" stroke="midnightblue" points="1591.65,-130.56 1602.12,-128.94 1592.92,-123.68 1591.65,-130.56"/>
</g>
<!-- Node39&#45;&gt;Node36 -->
<g id="edge65" class="edge">
<title>Node39&#45;&gt;Node36</title>
<path fill="none" stroke="midnightblue" d="M1562.26,-133.98C1300.67,-123.26 532.44,-91.5 506.5,-87 498.76,-85.66 490.51,-83.41 483.12,-81.08"/>
<polygon fill="midnightblue" stroke="midnightblue" points="1562.33,-137.49 1572.47,-134.4 1562.62,-130.49 1562.33,-137.49"/>
</g>
<!-- Node39&#45;&gt;Node40 -->
<g id="edge63" class="edge">
<title>Node39&#45;&gt;Node40</title>
<path fill="none" stroke="midnightblue" d="M1702.51,-126.96C1768.05,-114.16 1877.28,-92.84 1937.79,-81.03"/>
<polygon fill="midnightblue" stroke="midnightblue" points="1701.52,-123.58 1692.38,-128.94 1702.86,-130.45 1701.52,-123.58"/>
</g>
<!-- Node41 -->
<g id="node41" class="node">
<title>Node41</title>
<g id="a_node41"><a xlink:href="SixAxisForceTorqueSensor_8cpp.html" target="_top" xlink:title=" ">
<polygon fill="none" stroke="black" points="1443.5,-62 1443.5,-81 1607.5,-81 1607.5,-62 1443.5,-62"/>
<text text-anchor="middle" x="1525.5" y="-69" font-family="FreeSans.ttf" font-size="10.00">SixAxisForceTorqueSensor.cpp</text>
</a>
</g>
</g>
<!-- Node39&#45;&gt;Node41 -->
<g id="edge66" class="edge">
<title>Node39&#45;&gt;Node41</title>
<path fill="none" stroke="midnightblue" d="M1623.15,-124.1C1598.79,-111.23 1562.7,-92.16 1541.9,-81.17"/>
<polygon fill="midnightblue" stroke="midnightblue" points="1621.69,-127.29 1632.17,-128.87 1624.96,-121.1 1621.69,-127.29"/>
</g>
<!-- Node42&#45;&gt;Node33 -->
<g id="edge68" class="edge">
<title>Node42&#45;&gt;Node33</title>
<path fill="none" stroke="midnightblue" d="M1131.18,-120.91C1081.83,-108.18 1015.72,-91.13 976.56,-81.03"/>
<polygon fill="midnightblue" stroke="midnightblue" points="1130.57,-124.37 1141.13,-123.48 1132.32,-117.59 1130.57,-124.37"/>
</g>
<!-- Node42&#45;&gt;Node35 -->
<g id="edge69" class="edge">
<title>Node42&#45;&gt;Node35</title>
<path fill="none" stroke="midnightblue" d="M1225.84,-117.97C1244.99,-105.65 1268.77,-90.35 1283.28,-81.01"/>
<polygon fill="midnightblue" stroke="midnightblue" points="1223.93,-115.04 1217.42,-123.4 1227.72,-120.93 1223.93,-115.04"/>
</g>
<!-- Node43 -->
<g id="node43" class="node">
<title>Node43</title>
<g id="a_node43"><a xlink:href="ThreeAxisAngularAccelerometerSensor_8cpp.html" target="_top" xlink:title=" ">
<polygon fill="none" stroke="black" points="1013.5,-56.5 1013.5,-86.5 1187.5,-86.5 1187.5,-56.5 1013.5,-56.5"/>
<text text-anchor="start" x="1021.5" y="-74.5" font-family="FreeSans.ttf" font-size="10.00">ThreeAxisAngularAccelerometer</text>
<text text-anchor="middle" x="1100.5" y="-63.5" font-family="FreeSans.ttf" font-size="10.00">Sensor.cpp</text>
</a>
</g>
</g>
<!-- Node42&#45;&gt;Node43 -->
<g id="edge70" class="edge">
<title>Node42&#45;&gt;Node43</title>
<path fill="none" stroke="midnightblue" d="M1166.61,-117.73C1151.91,-107.68 1134.39,-95.68 1121.07,-86.58"/>
<polygon fill="midnightblue" stroke="midnightblue" points="1164.66,-120.64 1174.89,-123.4 1168.61,-114.86 1164.66,-120.64"/>
</g>
<!-- Node44&#45;&gt;Node33 -->
<g id="edge72" class="edge">
<title>Node44&#45;&gt;Node33</title>
<path fill="none" stroke="midnightblue" d="M943.5,-113.25C943.5,-102.02 943.5,-89.38 943.5,-81.19"/>
<polygon fill="midnightblue" stroke="midnightblue" points="940,-113.4 943.5,-123.4 947,-113.4 940,-113.4"/>
</g>
<!-- Node45 -->
<g id="node45" class="node">
<title>Node45</title>
<g id="a_node45"><a xlink:href="ThreeAxisForceTorqueContactSensor_8cpp.html" target="_top" xlink:title=" ">
<polygon fill="none" stroke="black" points="712,-56.5 712,-86.5 873,-86.5 873,-56.5 712,-56.5"/>
<text text-anchor="start" x="720" y="-74.5" font-family="FreeSans.ttf" font-size="10.00">ThreeAxisForceTorqueContact</text>
<text text-anchor="middle" x="792.5" y="-63.5" font-family="FreeSans.ttf" font-size="10.00">Sensor.cpp</text>
</a>
</g>
</g>
<!-- Node44&#45;&gt;Node45 -->
<g id="edge73" class="edge">
<title>Node44&#45;&gt;Node45</title>
<path fill="none" stroke="midnightblue" d="M901.47,-119.41C877.36,-109.03 847.55,-96.2 825.2,-86.58"/>
<polygon fill="midnightblue" stroke="midnightblue" points="900.17,-122.66 910.74,-123.4 902.93,-116.23 900.17,-122.66"/>
</g>
</g>
</svg>
