<?xml version="1.0" encoding="UTF-8" standalone="no"?>
<!DOCTYPE svg PUBLIC "-//W3C//DTD SVG 1.1//EN"
 "http://www.w3.org/Graphics/SVG/1.1/DTD/svg11.dtd">
<!-- Generated by graphviz version 2.43.0 (0)
 -->
<!-- Title: SO3Utils.h Pages: 1 -->
<svg width="930pt" height="364pt"
 viewBox="0.00 0.00 929.92 364.00" xmlns="http://www.w3.org/2000/svg" xmlns:xlink="http://www.w3.org/1999/xlink">
<g id="graph0" class="graph" transform="scale(1 1) rotate(0) translate(4 360)">
<title>SO3Utils.h</title>
<!-- Node1 -->
<g id="node1" class="node">
<title>Node1</title>
<g id="a_node1"><a xlink:title=" ">
<polygon fill="#bfbfbf" stroke="black" points="551.92,-336.5 551.92,-355.5 619.92,-355.5 619.92,-336.5 551.92,-336.5"/>
<text text-anchor="middle" x="585.92" y="-343.5" font-family="FreeSans.ttf" font-size="10.00">SO3Utils.h</text>
</a>
</g>
</g>
<!-- Node2 -->
<g id="node2" class="node">
<title>Node2</title>
<g id="a_node2"><a xlink:href="Rotation_8h.html" target="_top" xlink:title=" ">
<polygon fill="none" stroke="black" points="413.92,-280.5 413.92,-299.5 551.92,-299.5 551.92,-280.5 413.92,-280.5"/>
<text text-anchor="middle" x="482.92" y="-287.5" font-family="FreeSans.ttf" font-size="10.00">iDynTree/Core/Rotation.h</text>
</a>
</g>
</g>
<!-- Node1&#45;&gt;Node2 -->
<g id="edge1" class="edge">
<title>Node1&#45;&gt;Node2</title>
<path fill="none" stroke="midnightblue" d="M569.37,-336.32C552.93,-327.7 527.49,-314.36 508.45,-304.39"/>
<polygon fill="midnightblue" stroke="midnightblue" points="509.91,-301.2 499.43,-299.65 506.66,-307.4 509.91,-301.2"/>
</g>
<!-- Node4 -->
<g id="node4" class="node">
<title>Node4</title>
<g id="a_node4"><a xlink:href="GeomVector3_8h.html" target="_top" xlink:title=" ">
<polygon fill="none" stroke="black" points="511.42,-224.5 511.42,-243.5 674.42,-243.5 674.42,-224.5 511.42,-224.5"/>
<text text-anchor="middle" x="592.92" y="-231.5" font-family="FreeSans.ttf" font-size="10.00">iDynTree/Core/GeomVector3.h</text>
</a>
</g>
</g>
<!-- Node1&#45;&gt;Node4 -->
<g id="edge38" class="edge">
<title>Node1&#45;&gt;Node4</title>
<path fill="none" stroke="midnightblue" d="M586.47,-336.37C587.6,-318.62 590.21,-277.67 591.74,-253.6"/>
<polygon fill="midnightblue" stroke="midnightblue" points="595.23,-253.79 592.38,-243.59 588.25,-253.35 595.23,-253.79"/>
</g>
<!-- Node24 -->
<g id="node24" class="node">
<title>Node24</title>
<g id="a_node24"><a xlink:title=" ">
<polygon fill="none" stroke="#bfbfbf" points="614.42,-280.5 614.42,-299.5 661.42,-299.5 661.42,-280.5 614.42,-280.5"/>
<text text-anchor="middle" x="637.92" y="-287.5" font-family="FreeSans.ttf" font-size="10.00">vector</text>
</a>
</g>
</g>
<!-- Node1&#45;&gt;Node24 -->
<g id="edge39" class="edge">
<title>Node1&#45;&gt;Node24</title>
<path fill="none" stroke="midnightblue" d="M594.51,-336.08C602.08,-328.22 613.3,-316.57 622.44,-307.08"/>
<polygon fill="midnightblue" stroke="midnightblue" points="625.08,-309.38 629.5,-299.75 620.04,-304.53 625.08,-309.38"/>
</g>
<!-- Node3 -->
<g id="node3" class="node">
<title>Node3</title>
<g id="a_node3"><a xlink:title=" ">
<polygon fill="none" stroke="#bfbfbf" points="446.92,-112.5 446.92,-131.5 490.92,-131.5 490.92,-112.5 446.92,-112.5"/>
<text text-anchor="middle" x="468.92" y="-119.5" font-family="FreeSans.ttf" font-size="10.00">string</text>
</a>
</g>
</g>
<!-- Node2&#45;&gt;Node3 -->
<g id="edge2" class="edge">
<title>Node2&#45;&gt;Node3</title>
<path fill="none" stroke="midnightblue" d="M480.26,-280.26C474.49,-260.43 461.57,-210.46 463.92,-168 464.4,-159.36 465.39,-149.83 466.37,-141.77"/>
<polygon fill="midnightblue" stroke="midnightblue" points="469.87,-141.97 467.68,-131.6 462.93,-141.07 469.87,-141.97"/>
</g>
<!-- Node2&#45;&gt;Node4 -->
<g id="edge3" class="edge">
<title>Node2&#45;&gt;Node4</title>
<path fill="none" stroke="midnightblue" d="M500.6,-280.32C518.32,-271.62 545.83,-258.12 566.21,-248.11"/>
<polygon fill="midnightblue" stroke="midnightblue" points="567.86,-251.2 575.29,-243.65 564.77,-244.92 567.86,-251.2"/>
</g>
<!-- Node5 -->
<g id="node5" class="node">
<title>Node5</title>
<g id="a_node5"><a xlink:href="VectorFixSize_8h.html" target="_top" xlink:title=" ">
<polygon fill="none" stroke="black" points="472.92,-168.5 472.92,-187.5 634.92,-187.5 634.92,-168.5 472.92,-168.5"/>
<text text-anchor="middle" x="553.92" y="-175.5" font-family="FreeSans.ttf" font-size="10.00">iDynTree/Core/VectorFixSize.h</text>
</a>
</g>
</g>
<!-- Node2&#45;&gt;Node5 -->
<g id="edge37" class="edge">
<title>Node2&#45;&gt;Node5</title>
<path fill="none" stroke="midnightblue" d="M483.87,-280.36C485.63,-267.26 490.36,-242 501.92,-224 509.58,-212.07 521.33,-201.53 531.72,-193.65"/>
<polygon fill="midnightblue" stroke="midnightblue" points="533.93,-196.37 540.01,-187.69 529.84,-190.68 533.93,-196.37"/>
</g>
<!-- Node20 -->
<g id="node20" class="node">
<title>Node20</title>
<g id="a_node20"><a xlink:href="RotationRaw_8h.html" target="_top" xlink:title=" ">
<polygon fill="none" stroke="black" points="258.92,-224.5 258.92,-243.5 416.92,-243.5 416.92,-224.5 258.92,-224.5"/>
<text text-anchor="middle" x="337.92" y="-231.5" font-family="FreeSans.ttf" font-size="10.00">iDynTree/Core/RotationRaw.h</text>
</a>
</g>
</g>
<!-- Node2&#45;&gt;Node20 -->
<g id="edge23" class="edge">
<title>Node2&#45;&gt;Node20</title>
<path fill="none" stroke="midnightblue" d="M459.95,-280.44C435.77,-271.44 397.51,-257.19 370.28,-247.05"/>
<polygon fill="midnightblue" stroke="midnightblue" points="371.38,-243.73 360.79,-243.52 368.94,-250.29 371.38,-243.73"/>
</g>
<!-- Node4&#45;&gt;Node5 -->
<g id="edge4" class="edge">
<title>Node4&#45;&gt;Node5</title>
<path fill="none" stroke="midnightblue" d="M586.48,-224.08C580.97,-216.46 572.89,-205.26 566.16,-195.94"/>
<polygon fill="midnightblue" stroke="midnightblue" points="568.94,-193.81 560.24,-187.75 563.26,-197.91 568.94,-193.81"/>
</g>
<!-- Node5&#45;&gt;Node3 -->
<g id="edge18" class="edge">
<title>Node5&#45;&gt;Node3</title>
<path fill="none" stroke="midnightblue" d="M540.27,-168.32C527.01,-159.9 506.66,-146.97 491.08,-137.07"/>
<polygon fill="midnightblue" stroke="midnightblue" points="492.86,-134.06 482.55,-131.65 489.11,-139.97 492.86,-134.06"/>
</g>
<!-- Node6 -->
<g id="node6" class="node">
<title>Node6</title>
<g id="a_node6"><a xlink:href="Utils_8h.html" target="_top" xlink:title=" ">
<polygon fill="none" stroke="black" points="272.42,-56.5 272.42,-75.5 391.42,-75.5 391.42,-56.5 272.42,-56.5"/>
<text text-anchor="middle" x="331.92" y="-63.5" font-family="FreeSans.ttf" font-size="10.00">iDynTree/Core/Utils.h</text>
</a>
</g>
</g>
<!-- Node5&#45;&gt;Node6 -->
<g id="edge5" class="edge">
<title>Node5&#45;&gt;Node6</title>
<path fill="none" stroke="midnightblue" d="M549.17,-168.38C541,-154.36 522.9,-126.72 499.92,-112 470.56,-93.19 433.49,-82.19 401.65,-75.79"/>
<polygon fill="midnightblue" stroke="midnightblue" points="401.99,-72.29 391.51,-73.87 400.69,-79.17 401.99,-72.29"/>
</g>
<!-- Node7 -->
<g id="node7" class="node">
<title>Node7</title>
<g id="a_node7"><a xlink:title=" ">
<polygon fill="none" stroke="#bfbfbf" points="446.42,-0.5 446.42,-19.5 499.42,-19.5 499.42,-0.5 446.42,-0.5"/>
<text text-anchor="middle" x="472.92" y="-7.5" font-family="FreeSans.ttf" font-size="10.00">cstddef</text>
</a>
</g>
</g>
<!-- Node5&#45;&gt;Node7 -->
<g id="edge21" class="edge">
<title>Node5&#45;&gt;Node7</title>
<path fill="none" stroke="midnightblue" d="M558.8,-168.25C569.86,-147.09 594.17,-92.25 570.92,-56 563.7,-44.73 533.96,-32.01 509.12,-22.97"/>
<polygon fill="midnightblue" stroke="midnightblue" points="510.14,-19.62 499.55,-19.58 507.8,-26.22 510.14,-19.62"/>
</g>
<!-- Node9 -->
<g id="node9" class="node">
<title>Node9</title>
<g id="a_node9"><a xlink:href="Span_8h.html" target="_top" xlink:title=" ">
<polygon fill="none" stroke="black" points="623.42,-56.5 623.42,-75.5 744.42,-75.5 744.42,-56.5 623.42,-56.5"/>
<text text-anchor="middle" x="683.92" y="-63.5" font-family="FreeSans.ttf" font-size="10.00">iDynTree/Core/Span.h</text>
</a>
</g>
</g>
<!-- Node5&#45;&gt;Node9 -->
<g id="edge8" class="edge">
<title>Node5&#45;&gt;Node9</title>
<path fill="none" stroke="midnightblue" d="M564.54,-168.46C575.67,-159.47 593.64,-144.87 608.92,-132 628.94,-115.14 651.6,-95.41 666.73,-82.15"/>
<polygon fill="midnightblue" stroke="midnightblue" points="669.09,-84.73 674.29,-75.5 664.47,-79.47 669.09,-84.73"/>
</g>
<!-- Node10 -->
<g id="node10" class="node">
<title>Node10</title>
<g id="a_node10"><a xlink:title=" ">
<polygon fill="none" stroke="#bfbfbf" points="126.92,-0.5 126.92,-19.5 178.92,-19.5 178.92,-0.5 126.92,-0.5"/>
<text text-anchor="middle" x="152.92" y="-7.5" font-family="FreeSans.ttf" font-size="10.00">cassert</text>
</a>
</g>
</g>
<!-- Node5&#45;&gt;Node10 -->
<g id="edge20" class="edge">
<title>Node5&#45;&gt;Node10</title>
<path fill="none" stroke="midnightblue" d="M552.3,-168.28C549.33,-154.62 541.82,-128.08 525.92,-112 417.98,-2.81 343.51,-50.02 192.92,-20 191.67,-19.75 190.39,-19.49 189.1,-19.22"/>
<polygon fill="midnightblue" stroke="midnightblue" points="189.64,-15.76 179.13,-17.09 188.18,-22.61 189.64,-15.76"/>
</g>
<!-- Node18 -->
<g id="node18" class="node">
<title>Node18</title>
<g id="a_node18"><a xlink:title=" ">
<polygon fill="none" stroke="#bfbfbf" points="304.92,-112.5 304.92,-131.5 360.92,-131.5 360.92,-112.5 304.92,-112.5"/>
<text text-anchor="middle" x="332.92" y="-119.5" font-family="FreeSans.ttf" font-size="10.00">sstream</text>
</a>
</g>
</g>
<!-- Node5&#45;&gt;Node18 -->
<g id="edge19" class="edge">
<title>Node5&#45;&gt;Node18</title>
<path fill="none" stroke="midnightblue" d="M518.91,-168.44C478.54,-158.58 412.43,-142.43 370.87,-132.27"/>
<polygon fill="midnightblue" stroke="midnightblue" points="371.66,-128.86 361.12,-129.89 370,-135.66 371.66,-128.86"/>
</g>
<!-- Node19 -->
<g id="node19" class="node">
<title>Node19</title>
<g id="a_node19"><a xlink:title=" ">
<polygon fill="none" stroke="#bfbfbf" points="378.92,-112.5 378.92,-131.5 428.92,-131.5 428.92,-112.5 378.92,-112.5"/>
<text text-anchor="middle" x="403.92" y="-119.5" font-family="FreeSans.ttf" font-size="10.00">cstring</text>
</a>
</g>
</g>
<!-- Node5&#45;&gt;Node19 -->
<g id="edge22" class="edge">
<title>Node5&#45;&gt;Node19</title>
<path fill="none" stroke="midnightblue" d="M530.16,-168.44C505.03,-159.4 465.21,-145.06 437.02,-134.92"/>
<polygon fill="midnightblue" stroke="midnightblue" points="438.17,-131.61 427.58,-131.52 435.8,-138.2 438.17,-131.61"/>
</g>
<!-- Node6&#45;&gt;Node7 -->
<g id="edge6" class="edge">
<title>Node6&#45;&gt;Node7</title>
<path fill="none" stroke="midnightblue" d="M354.27,-56.44C377.68,-47.48 414.66,-33.31 441.11,-23.18"/>
<polygon fill="midnightblue" stroke="midnightblue" points="442.6,-26.36 450.69,-19.52 440.1,-19.82 442.6,-26.36"/>
</g>
<!-- Node8 -->
<g id="node8" class="node">
<title>Node8</title>
<g id="a_node8"><a xlink:title=" ">
<polygon fill="none" stroke="#bfbfbf" points="291.92,-0.5 291.92,-19.5 371.92,-19.5 371.92,-0.5 291.92,-0.5"/>
<text text-anchor="middle" x="331.92" y="-7.5" font-family="FreeSans.ttf" font-size="10.00">CoreExport.h</text>
</a>
</g>
</g>
<!-- Node6&#45;&gt;Node8 -->
<g id="edge7" class="edge">
<title>Node6&#45;&gt;Node8</title>
<path fill="none" stroke="midnightblue" d="M331.92,-56.08C331.92,-49.01 331.92,-38.86 331.92,-29.99"/>
<polygon fill="midnightblue" stroke="midnightblue" points="335.42,-29.75 331.92,-19.75 328.42,-29.75 335.42,-29.75"/>
</g>
<!-- Node9&#45;&gt;Node7 -->
<g id="edge12" class="edge">
<title>Node9&#45;&gt;Node7</title>
<path fill="none" stroke="midnightblue" d="M650.51,-56.47C617.11,-47.94 564.01,-34.38 509.5,-20.4"/>
<polygon fill="midnightblue" stroke="midnightblue" points="510.23,-16.98 499.68,-17.88 508.49,-23.76 510.23,-16.98"/>
</g>
<!-- Node9&#45;&gt;Node10 -->
<g id="edge9" class="edge">
<title>Node9&#45;&gt;Node10</title>
<path fill="none" stroke="midnightblue" d="M623.41,-59.9C501.52,-49.56 234.46,-26.55 192.92,-20 191.66,-19.8 190.37,-19.58 189.08,-19.36"/>
<polygon fill="midnightblue" stroke="midnightblue" points="189.57,-15.88 179.08,-17.4 188.22,-22.75 189.57,-15.88"/>
</g>
<!-- Node11 -->
<g id="node11" class="node">
<title>Node11</title>
<g id="a_node11"><a xlink:title=" ">
<polygon fill="none" stroke="#bfbfbf" points="797.92,-0.5 797.92,-19.5 861.92,-19.5 861.92,-0.5 797.92,-0.5"/>
<text text-anchor="middle" x="829.92" y="-7.5" font-family="FreeSans.ttf" font-size="10.00">algorithm</text>
</a>
</g>
</g>
<!-- Node9&#45;&gt;Node11 -->
<g id="edge10" class="edge">
<title>Node9&#45;&gt;Node11</title>
<path fill="none" stroke="midnightblue" d="M707.06,-56.44C731.41,-47.44 769.93,-33.19 797.35,-23.05"/>
<polygon fill="midnightblue" stroke="midnightblue" points="798.73,-26.27 806.9,-19.52 796.3,-19.7 798.73,-26.27"/>
</g>
<!-- Node12 -->
<g id="node12" class="node">
<title>Node12</title>
<g id="a_node12"><a xlink:title=" ">
<polygon fill="none" stroke="#bfbfbf" points="879.92,-0.5 879.92,-19.5 921.92,-19.5 921.92,-0.5 879.92,-0.5"/>
<text text-anchor="middle" x="900.92" y="-7.5" font-family="FreeSans.ttf" font-size="10.00">array</text>
</a>
</g>
</g>
<!-- Node9&#45;&gt;Node12 -->
<g id="edge11" class="edge">
<title>Node9&#45;&gt;Node12</title>
<path fill="none" stroke="midnightblue" d="M722.04,-56.48C757.87,-48.32 813.2,-35.36 869.82,-20.19"/>
<polygon fill="midnightblue" stroke="midnightblue" points="870.92,-23.52 879.66,-17.54 869.09,-16.76 870.92,-23.52"/>
</g>
<!-- Node13 -->
<g id="node13" class="node">
<title>Node13</title>
<g id="a_node13"><a xlink:title=" ">
<polygon fill="none" stroke="#bfbfbf" points="517.42,-0.5 517.42,-19.5 570.42,-19.5 570.42,-0.5 517.42,-0.5"/>
<text text-anchor="middle" x="543.92" y="-7.5" font-family="FreeSans.ttf" font-size="10.00">iterator</text>
</a>
</g>
</g>
<!-- Node9&#45;&gt;Node13 -->
<g id="edge13" class="edge">
<title>Node9&#45;&gt;Node13</title>
<path fill="none" stroke="midnightblue" d="M661.74,-56.44C638.49,-47.48 601.77,-33.31 575.51,-23.18"/>
<polygon fill="midnightblue" stroke="midnightblue" points="576.59,-19.85 566,-19.52 574.07,-26.38 576.59,-19.85"/>
</g>
<!-- Node14 -->
<g id="node14" class="node">
<title>Node14</title>
<g id="a_node14"><a xlink:title=" ">
<polygon fill="none" stroke="#bfbfbf" points="588.92,-0.5 588.92,-19.5 632.92,-19.5 632.92,-0.5 588.92,-0.5"/>
<text text-anchor="middle" x="610.92" y="-7.5" font-family="FreeSans.ttf" font-size="10.00">limits</text>
</a>
</g>
</g>
<!-- Node9&#45;&gt;Node14 -->
<g id="edge14" class="edge">
<title>Node9&#45;&gt;Node14</title>
<path fill="none" stroke="midnightblue" d="M672.19,-56.32C661.09,-48.11 644.18,-35.6 630.94,-25.81"/>
<polygon fill="midnightblue" stroke="midnightblue" points="632.99,-22.97 622.87,-19.83 628.82,-28.59 632.99,-22.97"/>
</g>
<!-- Node15 -->
<g id="node15" class="node">
<title>Node15</title>
<g id="a_node15"><a xlink:title=" ">
<polygon fill="none" stroke="#bfbfbf" points="651.42,-0.5 651.42,-19.5 716.42,-19.5 716.42,-0.5 651.42,-0.5"/>
<text text-anchor="middle" x="683.92" y="-7.5" font-family="FreeSans.ttf" font-size="10.00">stdexcept</text>
</a>
</g>
</g>
<!-- Node9&#45;&gt;Node15 -->
<g id="edge15" class="edge">
<title>Node9&#45;&gt;Node15</title>
<path fill="none" stroke="midnightblue" d="M683.92,-56.08C683.92,-49.01 683.92,-38.86 683.92,-29.99"/>
<polygon fill="midnightblue" stroke="midnightblue" points="687.42,-29.75 683.92,-19.75 680.42,-29.75 687.42,-29.75"/>
</g>
<!-- Node16 -->
<g id="node16" class="node">
<title>Node16</title>
<g id="a_node16"><a xlink:title=" ">
<polygon fill="none" stroke="#bfbfbf" points="202.42,-0.5 202.42,-19.5 271.42,-19.5 271.42,-0.5 202.42,-0.5"/>
<text text-anchor="middle" x="236.92" y="-7.5" font-family="FreeSans.ttf" font-size="10.00">type_traits</text>
</a>
</g>
</g>
<!-- Node9&#45;&gt;Node16 -->
<g id="edge16" class="edge">
<title>Node9&#45;&gt;Node16</title>
<path fill="none" stroke="midnightblue" d="M623.26,-59.74C544.54,-52.57 403.06,-38.46 282.92,-20 282.46,-19.93 282,-19.86 281.53,-19.78"/>
<polygon fill="midnightblue" stroke="midnightblue" points="281.98,-16.31 271.53,-18.08 280.8,-23.21 281.98,-16.31"/>
</g>
<!-- Node17 -->
<g id="node17" class="node">
<title>Node17</title>
<g id="a_node17"><a xlink:title=" ">
<polygon fill="none" stroke="#bfbfbf" points="734.42,-0.5 734.42,-19.5 779.42,-19.5 779.42,-0.5 734.42,-0.5"/>
<text text-anchor="middle" x="756.92" y="-7.5" font-family="FreeSans.ttf" font-size="10.00">utility</text>
</a>
</g>
</g>
<!-- Node9&#45;&gt;Node17 -->
<g id="edge17" class="edge">
<title>Node9&#45;&gt;Node17</title>
<path fill="none" stroke="midnightblue" d="M695.65,-56.32C706.76,-48.11 723.67,-35.6 736.91,-25.81"/>
<polygon fill="midnightblue" stroke="midnightblue" points="739.02,-28.59 744.98,-19.83 734.86,-22.97 739.02,-28.59"/>
</g>
<!-- Node20&#45;&gt;Node3 -->
<g id="edge36" class="edge">
<title>Node20&#45;&gt;Node3</title>
<path fill="none" stroke="midnightblue" d="M348.2,-224.37C370.4,-205.73 423.03,-161.53 450.9,-138.13"/>
<polygon fill="midnightblue" stroke="midnightblue" points="453.28,-140.7 458.69,-131.59 448.78,-135.34 453.28,-140.7"/>
</g>
<!-- Node21 -->
<g id="node21" class="node">
<title>Node21</title>
<g id="a_node21"><a xlink:href="MatrixFixSize_8h.html" target="_top" xlink:title=" ">
<polygon fill="none" stroke="black" points="206.42,-168.5 206.42,-187.5 369.42,-187.5 369.42,-168.5 206.42,-168.5"/>
<text text-anchor="middle" x="287.92" y="-175.5" font-family="FreeSans.ttf" font-size="10.00">iDynTree/Core/MatrixFixSize.h</text>
</a>
</g>
</g>
<!-- Node20&#45;&gt;Node21 -->
<g id="edge24" class="edge">
<title>Node20&#45;&gt;Node21</title>
<path fill="none" stroke="midnightblue" d="M329.67,-224.08C322.46,-216.3 311.81,-204.8 303.08,-195.37"/>
<polygon fill="midnightblue" stroke="midnightblue" points="305.39,-192.71 296.03,-187.75 300.25,-197.47 305.39,-192.71"/>
</g>
<!-- Node21&#45;&gt;Node3 -->
<g id="edge33" class="edge">
<title>Node21&#45;&gt;Node3</title>
<path fill="none" stroke="midnightblue" d="M316.6,-168.44C349.3,-158.69 402.64,-142.78 436.73,-132.6"/>
<polygon fill="midnightblue" stroke="midnightblue" points="438.07,-135.86 446.65,-129.64 436.07,-129.15 438.07,-135.86"/>
</g>
<!-- Node21&#45;&gt;Node6 -->
<g id="edge25" class="edge">
<title>Node21&#45;&gt;Node6</title>
<path fill="none" stroke="midnightblue" d="M287.52,-168.2C287.25,-155.33 287.98,-130.86 295.92,-112 300.42,-101.32 308.21,-91.1 315.4,-83.1"/>
<polygon fill="midnightblue" stroke="midnightblue" points="318.14,-85.3 322.51,-75.65 313.07,-80.47 318.14,-85.3"/>
</g>
<!-- Node21&#45;&gt;Node10 -->
<g id="edge31" class="edge">
<title>Node21&#45;&gt;Node10</title>
<path fill="none" stroke="midnightblue" d="M206.17,-175.11C133.41,-171.5 34.76,-161.18 9.92,-132 -29.17,-86.07 63.43,-43.19 117.43,-23.04"/>
<polygon fill="midnightblue" stroke="midnightblue" points="118.82,-26.25 127.02,-19.54 116.43,-19.68 118.82,-26.25"/>
</g>
<!-- Node21&#45;&gt;Node18 -->
<g id="edge35" class="edge">
<title>Node21&#45;&gt;Node18</title>
<path fill="none" stroke="midnightblue" d="M295.35,-168.08C301.78,-160.38 311.23,-149.03 319.05,-139.65"/>
<polygon fill="midnightblue" stroke="midnightblue" points="321.92,-141.67 325.63,-131.75 316.54,-137.19 321.92,-141.67"/>
</g>
<!-- Node21&#45;&gt;Node19 -->
<g id="edge32" class="edge">
<title>Node21&#45;&gt;Node19</title>
<path fill="none" stroke="midnightblue" d="M306.3,-168.44C325.14,-159.68 354.65,-145.94 376.3,-135.86"/>
<polygon fill="midnightblue" stroke="midnightblue" points="378.04,-138.91 385.63,-131.52 375.09,-132.56 378.04,-138.91"/>
</g>
<!-- Node22 -->
<g id="node22" class="node">
<title>Node22</title>
<g id="a_node22"><a xlink:href="MatrixView_8h.html" target="_top" xlink:title=" ">
<polygon fill="none" stroke="black" points="18.92,-112.5 18.92,-131.5 170.92,-131.5 170.92,-112.5 18.92,-112.5"/>
<text text-anchor="middle" x="94.92" y="-119.5" font-family="FreeSans.ttf" font-size="10.00">iDynTree/Core/MatrixView.h</text>
</a>
</g>
</g>
<!-- Node21&#45;&gt;Node22 -->
<g id="edge26" class="edge">
<title>Node21&#45;&gt;Node22</title>
<path fill="none" stroke="midnightblue" d="M257.34,-168.44C224.31,-159.2 171.54,-144.44 135.16,-134.26"/>
<polygon fill="midnightblue" stroke="midnightblue" points="135.93,-130.84 125.36,-131.52 134.05,-137.58 135.93,-130.84"/>
</g>
<!-- Node23 -->
<g id="node23" class="node">
<title>Node23</title>
<g id="a_node23"><a xlink:title=" ">
<polygon fill="none" stroke="#bfbfbf" points="188.92,-112.5 188.92,-131.5 248.92,-131.5 248.92,-112.5 188.92,-112.5"/>
<text text-anchor="middle" x="218.92" y="-119.5" font-family="FreeSans.ttf" font-size="10.00">iostream</text>
</a>
</g>
</g>
<!-- Node21&#45;&gt;Node23 -->
<g id="edge34" class="edge">
<title>Node21&#45;&gt;Node23</title>
<path fill="none" stroke="midnightblue" d="M276.84,-168.32C266.44,-160.18 250.66,-147.84 238.2,-138.09"/>
<polygon fill="midnightblue" stroke="midnightblue" points="240.24,-135.24 230.21,-131.83 235.93,-140.75 240.24,-135.24"/>
</g>
<!-- Node22&#45;&gt;Node6 -->
<g id="edge30" class="edge">
<title>Node22&#45;&gt;Node6</title>
<path fill="none" stroke="midnightblue" d="M132.48,-112.44C173.73,-103.04 240.07,-87.93 284.79,-77.74"/>
<polygon fill="midnightblue" stroke="midnightblue" points="285.57,-81.15 294.55,-75.52 284.02,-74.33 285.57,-81.15"/>
</g>
<!-- Node22&#45;&gt;Node9 -->
<g id="edge29" class="edge">
<title>Node22&#45;&gt;Node9</title>
<path fill="none" stroke="midnightblue" d="M171.37,-112.85C174.26,-112.56 177.12,-112.27 179.92,-112 334.46,-96.92 515.85,-81.21 613.35,-72.93"/>
<polygon fill="midnightblue" stroke="midnightblue" points="613.71,-76.41 623.38,-72.08 613.12,-69.44 613.71,-76.41"/>
</g>
<!-- Node22&#45;&gt;Node10 -->
<g id="edge27" class="edge">
<title>Node22&#45;&gt;Node10</title>
<path fill="none" stroke="midnightblue" d="M99.47,-112.37C108.96,-94.38 131.01,-52.55 143.63,-28.63"/>
<polygon fill="midnightblue" stroke="midnightblue" points="146.82,-30.07 148.39,-19.59 140.63,-26.8 146.82,-30.07"/>
</g>
<!-- Node22&#45;&gt;Node16 -->
<g id="edge28" class="edge">
<title>Node22&#45;&gt;Node16</title>
<path fill="none" stroke="midnightblue" d="M106.07,-112.37C130.23,-93.65 187.67,-49.15 217.78,-25.83"/>
<polygon fill="midnightblue" stroke="midnightblue" points="220.07,-28.48 225.83,-19.59 215.78,-22.95 220.07,-28.48"/>
</g>
</g>
</svg>
