<?xml version="1.0" encoding="UTF-8" standalone="no"?>
<!DOCTYPE svg PUBLIC "-//W3C//DTD SVG 1.1//EN"
 "http://www.w3.org/Graphics/SVG/1.1/DTD/svg11.dtd">
<!-- Generated by graphviz version 2.43.0 (0)
 -->
<!-- Title: SolidShapes.h Pages: 1 -->
<svg width="5537pt" height="285pt"
 viewBox="0.00 0.00 5536.95 285.00" xmlns="http://www.w3.org/2000/svg" xmlns:xlink="http://www.w3.org/1999/xlink">
<g id="graph0" class="graph" transform="scale(1 1) rotate(0) translate(4 281)">
<title>SolidShapes.h</title>
<!-- Node1 -->
<g id="node1" class="node">
<title>Node1</title>
<g id="a_node1"><a xlink:title=" ">
<polygon fill="#bfbfbf" stroke="black" points="5072.45,-257.5 5072.45,-276.5 5157.45,-276.5 5157.45,-257.5 5072.45,-257.5"/>
<text text-anchor="middle" x="5114.95" y="-264.5" font-family="FreeSans.ttf" font-size="10.00">SolidShapes.h</text>
</a>
</g>
</g>
<!-- Node2 -->
<g id="node2" class="node">
<title>Node2</title>
<g id="a_node2"><a xlink:href="Model_8h.html" target="_top" xlink:title=" ">
<polygon fill="none" stroke="black" points="2478.95,-201.5 2478.95,-220.5 2534.95,-220.5 2534.95,-201.5 2478.95,-201.5"/>
<text text-anchor="middle" x="2506.95" y="-208.5" font-family="FreeSans.ttf" font-size="10.00">Model.h</text>
</a>
</g>
</g>
<!-- Node1&#45;&gt;Node2 -->
<g id="edge1" class="edge">
<title>Node1&#45;&gt;Node2</title>
<path fill="none" stroke="midnightblue" d="M5062.19,-264.91C4717.44,-257.77 2791.88,-217.9 2535.22,-212.59"/>
<polygon fill="midnightblue" stroke="midnightblue" points="5062.32,-268.41 5072.39,-265.12 5062.47,-261.41 5062.32,-268.41"/>
</g>
<!-- Node34 -->
<g id="node26" class="node">
<title>Node34</title>
<g id="a_node26"><a xlink:href="SolidShapes_8cpp.html" target="_top" xlink:title=" ">
<polygon fill="none" stroke="black" points="4668.95,-140 4668.95,-159 4764.95,-159 4764.95,-140 4668.95,-140"/>
<text text-anchor="middle" x="4716.95" y="-147" font-family="FreeSans.ttf" font-size="10.00">SolidShapes.cpp</text>
</a>
</g>
</g>
<!-- Node1&#45;&gt;Node34 -->
<g id="edge67" class="edge">
<title>Node1&#45;&gt;Node34</title>
<path fill="none" stroke="midnightblue" d="M5069.83,-255.01C5034.6,-246.27 4984.49,-233.47 4940.95,-221 4868.64,-200.29 4784.21,-172.81 4742.68,-159.08"/>
<polygon fill="midnightblue" stroke="midnightblue" points="5069.26,-258.48 5079.81,-257.48 5070.94,-251.68 5069.26,-258.48"/>
</g>
<!-- Node75 -->
<g id="node43" class="node">
<title>Node75</title>
<g id="a_node43"><a xlink:href="InertialParametersSolidShapesHelpers_8h.html" target="_top" xlink:title=" ">
<polygon fill="none" stroke="black" points="5180.95,-134.5 5180.95,-164.5 5346.95,-164.5 5346.95,-134.5 5180.95,-134.5"/>
<text text-anchor="start" x="5188.95" y="-152.5" font-family="FreeSans.ttf" font-size="10.00">InertialParametersSolidShapes</text>
<text text-anchor="middle" x="5263.95" y="-141.5" font-family="FreeSans.ttf" font-size="10.00">Helpers.h</text>
</a>
</g>
</g>
<!-- Node1&#45;&gt;Node75 -->
<g id="edge72" class="edge">
<title>Node1&#45;&gt;Node75</title>
<path fill="none" stroke="midnightblue" d="M5134.27,-251.02C5163.25,-228.56 5217.57,-186.45 5245.83,-164.55"/>
<polygon fill="midnightblue" stroke="midnightblue" points="5131.9,-248.43 5126.15,-257.32 5136.19,-253.96 5131.9,-248.43"/>
</g>
<!-- Node76 -->
<g id="node44" class="node">
<title>Node76</title>
<g id="a_node44"><a xlink:href="InertialParametersSolidShapesHelpers_8cpp.html" target="_top" xlink:title=" ">
<polygon fill="none" stroke="black" points="5235.95,-67.5 5235.95,-97.5 5401.95,-97.5 5401.95,-67.5 5235.95,-67.5"/>
<text text-anchor="start" x="5243.95" y="-85.5" font-family="FreeSans.ttf" font-size="10.00">InertialParametersSolidShapes</text>
<text text-anchor="middle" x="5318.95" y="-74.5" font-family="FreeSans.ttf" font-size="10.00">Helpers.cpp</text>
</a>
</g>
</g>
<!-- Node1&#45;&gt;Node76 -->
<g id="edge73" class="edge">
<title>Node1&#45;&gt;Node76</title>
<path fill="none" stroke="midnightblue" d="M5167.87,-260.58C5225.25,-251.56 5314.23,-227.71 5355.95,-165 5370.49,-143.13 5349.71,-114.62 5333.9,-97.76"/>
<polygon fill="midnightblue" stroke="midnightblue" points="5167.27,-257.13 5157.89,-262.05 5168.29,-264.06 5167.27,-257.13"/>
</g>
<!-- Node87 -->
<g id="node48" class="node">
<title>Node87</title>
<g id="a_node48"><a xlink:href="VisualElement_8h.html" target="_top" xlink:title=" ">
<polygon fill="none" stroke="red" points="5066.95,-140 5066.95,-159 5162.95,-159 5162.95,-140 5066.95,-140"/>
<text text-anchor="middle" x="5114.95" y="-147" font-family="FreeSans.ttf" font-size="10.00">VisualElement.h</text>
</a>
</g>
</g>
<!-- Node1&#45;&gt;Node87 -->
<g id="edge68" class="edge">
<title>Node1&#45;&gt;Node87</title>
<path fill="none" stroke="midnightblue" d="M5114.95,-247.16C5114.95,-221.87 5114.95,-177.94 5114.95,-159.28"/>
<polygon fill="midnightblue" stroke="midnightblue" points="5111.45,-247.32 5114.95,-257.32 5118.45,-247.32 5111.45,-247.32"/>
</g>
<!-- Node91 -->
<g id="node49" class="node">
<title>Node91</title>
<g id="a_node49"><a xlink:href="GeometryElement_8cpp.html" target="_top" xlink:title=" ">
<polygon fill="none" stroke="black" points="5402.95,-201.5 5402.95,-220.5 5528.95,-220.5 5528.95,-201.5 5402.95,-201.5"/>
<text text-anchor="middle" x="5465.95" y="-208.5" font-family="FreeSans.ttf" font-size="10.00">GeometryElement.cpp</text>
</a>
</g>
</g>
<!-- Node1&#45;&gt;Node91 -->
<g id="edge71" class="edge">
<title>Node1&#45;&gt;Node91</title>
<path fill="none" stroke="midnightblue" d="M5167.73,-257.88C5233.12,-247.82 5344.02,-230.76 5410.58,-220.52"/>
<polygon fill="midnightblue" stroke="midnightblue" points="5166.99,-254.45 5157.63,-259.43 5168.05,-261.37 5166.99,-254.45"/>
</g>
<!-- Node92 -->
<g id="node50" class="node">
<title>Node92</title>
<g id="a_node50"><a xlink:href="IrrlichtUtils_8h.html" target="_top" xlink:title=" ">
<polygon fill="none" stroke="red" points="4949.95,-201.5 4949.95,-220.5 5029.95,-220.5 5029.95,-201.5 4949.95,-201.5"/>
<text text-anchor="middle" x="4989.95" y="-208.5" font-family="FreeSans.ttf" font-size="10.00">IrrlichtUtils.h</text>
</a>
</g>
</g>
<!-- Node1&#45;&gt;Node92 -->
<g id="edge74" class="edge">
<title>Node1&#45;&gt;Node92</title>
<path fill="none" stroke="midnightblue" d="M5085.71,-253.37C5062.3,-243.26 5030.11,-229.35 5009.66,-220.52"/>
<polygon fill="midnightblue" stroke="midnightblue" points="5084.57,-256.69 5095.14,-257.44 5087.35,-250.26 5084.57,-256.69"/>
</g>
<!-- Node3 -->
<g id="node3" class="node">
<title>Node3</title>
<g id="a_node3"><a xlink:href="ExtWrenchesAndJointTorquesEstimator_8h.html" target="_top" xlink:title=" ">
<polygon fill="none" stroke="black" points="468.95,-67.5 468.95,-97.5 626.95,-97.5 626.95,-67.5 468.95,-67.5"/>
<text text-anchor="start" x="476.95" y="-85.5" font-family="FreeSans.ttf" font-size="10.00">ExtWrenchesAndJointTorques</text>
<text text-anchor="middle" x="547.95" y="-74.5" font-family="FreeSans.ttf" font-size="10.00">Estimator.h</text>
</a>
</g>
</g>
<!-- Node2&#45;&gt;Node3 -->
<g id="edge2" class="edge">
<title>Node2&#45;&gt;Node3</title>
<path fill="none" stroke="midnightblue" d="M2468.89,-209.89C2210.2,-209.01 717.56,-202.37 629.95,-165 597.08,-150.98 570.28,-117.06 556.99,-97.68"/>
<polygon fill="midnightblue" stroke="midnightblue" points="2468.92,-213.39 2478.93,-209.92 2468.94,-206.39 2468.92,-213.39"/>
</g>
<!-- Node4 -->
<g id="node4" class="node">
<title>Node4</title>
<g id="a_node4"><a xlink:href="ExtWrenchesAndJointTorquesEstimator_8cpp.html" target="_top" xlink:title=" ">
<polygon fill="none" stroke="black" points="523.95,-0.5 523.95,-30.5 681.95,-30.5 681.95,-0.5 523.95,-0.5"/>
<text text-anchor="start" x="531.95" y="-18.5" font-family="FreeSans.ttf" font-size="10.00">ExtWrenchesAndJointTorques</text>
<text text-anchor="middle" x="602.95" y="-7.5" font-family="FreeSans.ttf" font-size="10.00">Estimator.cpp</text>
</a>
</g>
</g>
<!-- Node2&#45;&gt;Node4 -->
<g id="edge8" class="edge">
<title>Node2&#45;&gt;Node4</title>
<path fill="none" stroke="midnightblue" d="M2468.24,-209.82C2189.32,-208.48 491.01,-198.91 264.95,-165 157.54,-148.89 95.37,-184.69 29.95,-98 -12.82,-41.34 10.53,-78 481.95,-31 495.53,-29.65 509.94,-28.05 523.91,-26.43"/>
<polygon fill="midnightblue" stroke="midnightblue" points="2468.63,-213.33 2478.65,-209.87 2468.67,-206.33 2468.63,-213.33"/>
</g>
<!-- Node5 -->
<g id="node5" class="node">
<title>Node5</title>
<g id="a_node5"><a xlink:href="GravityCompensationHelpers_8h.html" target="_top" xlink:title=" ">
<polygon fill="none" stroke="red" points="1539.95,-140 1539.95,-159 1709.95,-159 1709.95,-140 1539.95,-140"/>
<text text-anchor="middle" x="1624.95" y="-147" font-family="FreeSans.ttf" font-size="10.00">GravityCompensationHelpers.h</text>
</a>
</g>
</g>
<!-- Node2&#45;&gt;Node5 -->
<g id="edge4" class="edge">
<title>Node2&#45;&gt;Node5</title>
<path fill="none" stroke="midnightblue" d="M2468.58,-209.11C2354.27,-206.19 2006.04,-195.27 1718.95,-165 1704.5,-163.48 1688.87,-161.29 1674.59,-159.07"/>
<polygon fill="midnightblue" stroke="midnightblue" points="2468.51,-212.61 2478.6,-209.36 2468.69,-205.62 2468.51,-212.61"/>
</g>
<!-- Node7 -->
<g id="node6" class="node">
<title>Node7</title>
<g id="a_node6"><a xlink:href="SimpleLeggedOdometry_8h.html" target="_top" xlink:title=" ">
<polygon fill="none" stroke="red" points="1727.95,-140 1727.95,-159 1869.95,-159 1869.95,-140 1727.95,-140"/>
<text text-anchor="middle" x="1798.95" y="-147" font-family="FreeSans.ttf" font-size="10.00">SimpleLeggedOdometry.h</text>
</a>
</g>
</g>
<!-- Node2&#45;&gt;Node7 -->
<g id="edge5" class="edge">
<title>Node2&#45;&gt;Node7</title>
<path fill="none" stroke="midnightblue" d="M2468.62,-208.69C2370.31,-205.03 2101.3,-193.03 1878.95,-165 1866.62,-163.45 1853.32,-161.25 1841.16,-159.03"/>
<polygon fill="midnightblue" stroke="midnightblue" points="2468.55,-212.19 2478.67,-209.06 2468.81,-205.2 2468.55,-212.19"/>
</g>
<!-- Node9 -->
<g id="node7" class="node">
<title>Node9</title>
<g id="a_node7"><a xlink:href="BerdyHelper_8cpp.html" target="_top" xlink:title=" ">
<polygon fill="none" stroke="black" points="239.45,-73 239.45,-92 336.45,-92 336.45,-73 239.45,-73"/>
<text text-anchor="middle" x="287.95" y="-80" font-family="FreeSans.ttf" font-size="10.00">BerdyHelper.cpp</text>
</a>
</g>
</g>
<!-- Node2&#45;&gt;Node9 -->
<g id="edge6" class="edge">
<title>Node2&#45;&gt;Node9</title>
<path fill="none" stroke="midnightblue" d="M2468.54,-209.96C2207.17,-209.56 694.18,-205.49 493.95,-165 419.68,-149.98 337.73,-109.81 303.89,-92.1"/>
<polygon fill="midnightblue" stroke="midnightblue" points="2468.68,-213.46 2478.68,-209.97 2468.69,-206.46 2468.68,-213.46"/>
</g>
<!-- Node10 -->
<g id="node8" class="node">
<title>Node10</title>
<g id="a_node8"><a xlink:href="ExternalWrenchesEstimation_8cpp.html" target="_top" xlink:title=" ">
<polygon fill="none" stroke="black" points="902.95,-73 902.95,-92 1080.95,-92 1080.95,-73 902.95,-73"/>
<text text-anchor="middle" x="991.95" y="-80" font-family="FreeSans.ttf" font-size="10.00">ExternalWrenchesEstimation.cpp</text>
</a>
</g>
</g>
<!-- Node2&#45;&gt;Node10 -->
<g id="edge7" class="edge">
<title>Node2&#45;&gt;Node10</title>
<path fill="none" stroke="midnightblue" d="M2468.53,-210.25C2281.75,-211.25 1467.36,-212.73 1218.95,-165 1137.94,-149.44 1047.18,-109.56 1009.65,-92.01"/>
<polygon fill="midnightblue" stroke="midnightblue" points="2468.71,-213.75 2478.69,-210.2 2468.67,-206.75 2468.71,-213.75"/>
</g>
<!-- Node11 -->
<g id="node9" class="node">
<title>Node11</title>
<g id="a_node9"><a xlink:href="KinDynComputations_8cpp.html" target="_top" xlink:title=" ">
<polygon fill="none" stroke="black" points="1002.95,-6 1002.95,-25 1142.95,-25 1142.95,-6 1002.95,-6"/>
<text text-anchor="middle" x="1072.95" y="-13" font-family="FreeSans.ttf" font-size="10.00">KinDynComputations.cpp</text>
</a>
</g>
</g>
<!-- Node2&#45;&gt;Node11 -->
<g id="edge9" class="edge">
<title>Node2&#45;&gt;Node11</title>
<path fill="none" stroke="midnightblue" d="M2468.49,-209.93C2276.14,-209.39 1426.16,-204.78 1387.95,-165 1357.51,-133.31 1429.55,-100.35 1400.95,-67 1392.59,-57.26 1236.85,-36.6 1143.02,-24.95"/>
<polygon fill="midnightblue" stroke="midnightblue" points="2468.67,-213.43 2478.68,-209.96 2468.69,-206.43 2468.67,-213.43"/>
</g>
<!-- Node12 -->
<g id="node10" class="node">
<title>Node12</title>
<g id="a_node10"><a xlink:href="skinDynLibConversionsImplementation_8h.html" target="_top" xlink:title=" ">
<polygon fill="none" stroke="red" points="1887.95,-140 1887.95,-159 2105.95,-159 2105.95,-140 1887.95,-140"/>
<text text-anchor="middle" x="1996.95" y="-147" font-family="FreeSans.ttf" font-size="10.00">skinDynLibConversionsImplementation.h</text>
</a>
</g>
</g>
<!-- Node2&#45;&gt;Node12 -->
<g id="edge10" class="edge">
<title>Node2&#45;&gt;Node12</title>
<path fill="none" stroke="midnightblue" d="M2468.77,-205.72C2398.66,-197.84 2244.67,-180.42 2114.95,-165 2098.96,-163.1 2081.76,-161.01 2065.57,-159.03"/>
<polygon fill="midnightblue" stroke="midnightblue" points="2468.56,-209.22 2478.89,-206.86 2469.35,-202.26 2468.56,-209.22"/>
</g>
<!-- Node14 -->
<g id="node11" class="node">
<title>Node14</title>
<g id="a_node11"><a xlink:href="InverseKinematicsData_8h.html" target="_top" xlink:title=" ">
<polygon fill="none" stroke="red" points="2123.95,-140 2123.95,-159 2263.95,-159 2263.95,-140 2123.95,-140"/>
<text text-anchor="middle" x="2193.95" y="-147" font-family="FreeSans.ttf" font-size="10.00">InverseKinematicsData.h</text>
</a>
</g>
</g>
<!-- Node2&#45;&gt;Node14 -->
<g id="edge11" class="edge">
<title>Node2&#45;&gt;Node14</title>
<path fill="none" stroke="midnightblue" d="M2469.04,-202.79C2411.06,-191.77 2300.58,-170.77 2238.73,-159.01"/>
<polygon fill="midnightblue" stroke="midnightblue" points="2468.42,-206.24 2478.89,-204.67 2469.72,-199.36 2468.42,-206.24"/>
</g>
<!-- Node17 -->
<g id="node12" class="node">
<title>Node17</title>
<g id="a_node12"><a xlink:href="DenavitHartenberg_8h.html" target="_top" xlink:title=" ">
<polygon fill="none" stroke="red" points="2282.45,-140 2282.45,-159 2401.45,-159 2401.45,-140 2282.45,-140"/>
<text text-anchor="middle" x="2341.95" y="-147" font-family="FreeSans.ttf" font-size="10.00">DenavitHartenberg.h</text>
</a>
</g>
</g>
<!-- Node2&#45;&gt;Node17 -->
<g id="edge12" class="edge">
<title>Node2&#45;&gt;Node17</title>
<path fill="none" stroke="midnightblue" d="M2473.9,-198.08C2441.83,-186.52 2393.95,-169.25 2365.54,-159.01"/>
<polygon fill="midnightblue" stroke="midnightblue" points="2472.71,-201.38 2483.31,-201.48 2475.09,-194.79 2472.71,-201.38"/>
</g>
<!-- Node21 -->
<g id="node13" class="node">
<title>Node21</title>
<g id="a_node13"><a xlink:href="ModelTestUtils_8h.html" target="_top" xlink:title=" ">
<polygon fill="none" stroke="black" points="2457.95,-140 2457.95,-159 2555.95,-159 2555.95,-140 2457.95,-140"/>
<text text-anchor="middle" x="2506.95" y="-147" font-family="FreeSans.ttf" font-size="10.00">ModelTestUtils.h</text>
</a>
</g>
</g>
<!-- Node2&#45;&gt;Node21 -->
<g id="edge13" class="edge">
<title>Node2&#45;&gt;Node21</title>
<path fill="none" stroke="midnightblue" d="M2506.95,-191.32C2506.95,-180.5 2506.95,-167.4 2506.95,-159.01"/>
<polygon fill="midnightblue" stroke="midnightblue" points="2503.45,-191.48 2506.95,-201.48 2510.45,-191.48 2503.45,-191.48"/>
</g>
<!-- Node22 -->
<g id="node14" class="node">
<title>Node22</title>
<g id="a_node14"><a xlink:href="ContactWrench_8cpp.html" target="_top" xlink:title=" ">
<polygon fill="none" stroke="black" points="2574.45,-140 2574.45,-159 2685.45,-159 2685.45,-140 2574.45,-140"/>
<text text-anchor="middle" x="2629.95" y="-147" font-family="FreeSans.ttf" font-size="10.00">ContactWrench.cpp</text>
</a>
</g>
</g>
<!-- Node2&#45;&gt;Node22 -->
<g id="edge14" class="edge">
<title>Node2&#45;&gt;Node22</title>
<path fill="none" stroke="midnightblue" d="M2533.78,-197.02C2557.63,-185.48 2591.82,-168.94 2612.36,-159.01"/>
<polygon fill="midnightblue" stroke="midnightblue" points="2532.05,-193.97 2524.57,-201.48 2535.1,-200.27 2532.05,-193.97"/>
</g>
<!-- Node23 -->
<g id="node15" class="node">
<title>Node23</title>
<g id="a_node15"><a xlink:href="Dynamics_8cpp.html" target="_top" xlink:title=" ">
<polygon fill="none" stroke="black" points="2703.95,-140 2703.95,-159 2789.95,-159 2789.95,-140 2703.95,-140"/>
<text text-anchor="middle" x="2746.95" y="-147" font-family="FreeSans.ttf" font-size="10.00">Dynamics.cpp</text>
</a>
</g>
</g>
<!-- Node2&#45;&gt;Node23 -->
<g id="edge15" class="edge">
<title>Node2&#45;&gt;Node23</title>
<path fill="none" stroke="midnightblue" d="M2545.29,-201.14C2583.15,-192.3 2642.66,-178.18 2693.95,-165 2701.25,-163.12 2709.09,-161.02 2716.44,-159.02"/>
<polygon fill="midnightblue" stroke="midnightblue" points="2544.16,-197.81 2535.21,-203.49 2545.74,-204.63 2544.16,-197.81"/>
</g>
<!-- Node24 -->
<g id="node16" class="node">
<title>Node24</title>
<g id="a_node16"><a xlink:href="DynamicsLinearization_8cpp.html" target="_top" xlink:title=" ">
<polygon fill="none" stroke="black" points="2808.45,-140 2808.45,-159 2957.45,-159 2957.45,-140 2808.45,-140"/>
<text text-anchor="middle" x="2882.95" y="-147" font-family="FreeSans.ttf" font-size="10.00">DynamicsLinearization.cpp</text>
</a>
</g>
</g>
<!-- Node2&#45;&gt;Node24 -->
<g id="edge16" class="edge">
<title>Node2&#45;&gt;Node24</title>
<path fill="none" stroke="midnightblue" d="M2545.31,-204.31C2601.16,-195.98 2708.11,-179.84 2798.95,-165 2810.48,-163.12 2822.9,-161.01 2834.55,-159.01"/>
<polygon fill="midnightblue" stroke="midnightblue" points="2544.54,-200.89 2535.16,-205.82 2545.57,-207.81 2544.54,-200.89"/>
</g>
<!-- Node25 -->
<g id="node17" class="node">
<title>Node25</title>
<g id="a_node17"><a xlink:href="ForwardKinematics_8cpp.html" target="_top" xlink:title=" ">
<polygon fill="none" stroke="black" points="2975.45,-140 2975.45,-159 3106.45,-159 3106.45,-140 2975.45,-140"/>
<text text-anchor="middle" x="3040.95" y="-147" font-family="FreeSans.ttf" font-size="10.00">ForwardKinematics.cpp</text>
</a>
</g>
</g>
<!-- Node2&#45;&gt;Node25 -->
<g id="edge17" class="edge">
<title>Node2&#45;&gt;Node25</title>
<path fill="none" stroke="midnightblue" d="M2545.43,-207.45C2624.49,-201.93 2810.81,-187.55 2965.95,-165 2977.23,-163.36 2989.4,-161.18 3000.58,-159.02"/>
<polygon fill="midnightblue" stroke="midnightblue" points="2544.73,-203.99 2535,-208.17 2545.22,-210.97 2544.73,-203.99"/>
</g>
<!-- Node26 -->
<g id="node18" class="node">
<title>Node26</title>
<g id="a_node18"><a xlink:href="FreeFloatingMatrices_8cpp.html" target="_top" xlink:title=" ">
<polygon fill="none" stroke="black" points="3124.95,-140 3124.95,-159 3264.95,-159 3264.95,-140 3124.95,-140"/>
<text text-anchor="middle" x="3194.95" y="-147" font-family="FreeSans.ttf" font-size="10.00">FreeFloatingMatrices.cpp</text>
</a>
</g>
</g>
<!-- Node2&#45;&gt;Node26 -->
<g id="edge18" class="edge">
<title>Node2&#45;&gt;Node26</title>
<path fill="none" stroke="midnightblue" d="M2545.36,-208.56C2641.59,-204.66 2900.65,-192.27 3114.95,-165 3127.27,-163.43 3140.57,-161.23 3152.73,-159.01"/>
<polygon fill="midnightblue" stroke="midnightblue" points="2545.09,-205.07 2535.24,-208.97 2545.37,-212.07 2545.09,-205.07"/>
</g>
<!-- Node27 -->
<g id="node19" class="node">
<title>Node27</title>
<g id="a_node19"><a xlink:href="FreeFloatingState_8cpp.html" target="_top" xlink:title=" ">
<polygon fill="none" stroke="black" points="3283.45,-140 3283.45,-159 3406.45,-159 3406.45,-140 3283.45,-140"/>
<text text-anchor="middle" x="3344.95" y="-147" font-family="FreeSans.ttf" font-size="10.00">FreeFloatingState.cpp</text>
</a>
</g>
</g>
<!-- Node2&#45;&gt;Node27 -->
<g id="edge19" class="edge">
<title>Node2&#45;&gt;Node27</title>
<path fill="none" stroke="midnightblue" d="M2545.47,-209.68C2658.08,-208.33 2996.23,-201.32 3273.95,-165 3285.17,-163.53 3297.28,-161.3 3308.26,-159.03"/>
<polygon fill="midnightblue" stroke="midnightblue" points="2545.25,-206.18 2535.29,-209.79 2545.33,-213.18 2545.25,-206.18"/>
</g>
<!-- Node28 -->
<g id="node20" class="node">
<title>Node28</title>
<g id="a_node20"><a xlink:href="Jacobians_8cpp.html" target="_top" xlink:title=" ">
<polygon fill="none" stroke="black" points="3424.45,-140 3424.45,-159 3507.45,-159 3507.45,-140 3424.45,-140"/>
<text text-anchor="middle" x="3465.95" y="-147" font-family="FreeSans.ttf" font-size="10.00">Jacobians.cpp</text>
</a>
</g>
</g>
<!-- Node2&#45;&gt;Node28 -->
<g id="edge20" class="edge">
<title>Node2&#45;&gt;Node28</title>
<path fill="none" stroke="midnightblue" d="M2545.16,-209.26C2695.12,-206.2 3243.47,-193.25 3414.95,-165 3423.3,-163.62 3432.24,-161.36 3440.26,-159.03"/>
<polygon fill="midnightblue" stroke="midnightblue" points="2544.99,-205.77 2535.06,-209.47 2545.13,-212.76 2544.99,-205.77"/>
</g>
<!-- Node29 -->
<g id="node21" class="node">
<title>Node29</title>
<g id="a_node21"><a xlink:href="JointState_8cpp.html" target="_top" xlink:title=" ">
<polygon fill="none" stroke="black" points="3525.95,-140 3525.95,-159 3609.95,-159 3609.95,-140 3525.95,-140"/>
<text text-anchor="middle" x="3567.95" y="-147" font-family="FreeSans.ttf" font-size="10.00">JointState.cpp</text>
</a>
</g>
</g>
<!-- Node2&#45;&gt;Node29 -->
<g id="edge21" class="edge">
<title>Node2&#45;&gt;Node29</title>
<path fill="none" stroke="midnightblue" d="M2545.66,-209.45C2706.66,-206.98 3323.83,-195.66 3515.95,-165 3524.46,-163.64 3533.57,-161.39 3541.75,-159.05"/>
<polygon fill="midnightblue" stroke="midnightblue" points="2545.24,-205.96 2535.29,-209.61 2545.34,-212.95 2545.24,-205.96"/>
</g>
<!-- Node30 -->
<g id="node22" class="node">
<title>Node30</title>
<g id="a_node22"><a xlink:href="LinkState_8cpp.html" target="_top" xlink:title=" ">
<polygon fill="none" stroke="black" points="3628.45,-140 3628.45,-159 3711.45,-159 3711.45,-140 3628.45,-140"/>
<text text-anchor="middle" x="3669.95" y="-147" font-family="FreeSans.ttf" font-size="10.00">LinkState.cpp</text>
</a>
</g>
</g>
<!-- Node2&#45;&gt;Node30 -->
<g id="edge22" class="edge">
<title>Node2&#45;&gt;Node30</title>
<path fill="none" stroke="midnightblue" d="M2545.39,-209.66C2715.99,-207.98 3405.55,-199.16 3618.95,-165 3627.4,-163.65 3636.44,-161.36 3644.53,-159"/>
<polygon fill="midnightblue" stroke="midnightblue" points="2545.11,-206.17 2535.14,-209.76 2545.17,-213.17 2545.11,-206.17"/>
</g>
<!-- Node31 -->
<g id="node23" class="node">
<title>Node31</title>
<g id="a_node23"><a xlink:href="LinkTraversalsCache_8cpp.html" target="_top" xlink:title=" ">
<polygon fill="none" stroke="black" points="3729.45,-140 3729.45,-159 3866.45,-159 3866.45,-140 3729.45,-140"/>
<text text-anchor="middle" x="3797.95" y="-147" font-family="FreeSans.ttf" font-size="10.00">LinkTraversalsCache.cpp</text>
</a>
</g>
</g>
<!-- Node2&#45;&gt;Node31 -->
<g id="edge23" class="edge">
<title>Node2&#45;&gt;Node31</title>
<path fill="none" stroke="midnightblue" d="M2545.01,-209.34C2724.09,-206.12 3484.04,-191.16 3719.95,-165 3732.54,-163.6 3746.16,-161.34 3758.43,-159.01"/>
<polygon fill="midnightblue" stroke="midnightblue" points="2544.94,-205.84 2535,-209.52 2545.06,-212.84 2544.94,-205.84"/>
</g>
<!-- Node32 -->
<g id="node24" class="node">
<title>Node32</title>
<g id="a_node24"><a xlink:href="Model_8cpp.html" target="_top" xlink:title=" ">
<polygon fill="none" stroke="black" points="3884.45,-140 3884.45,-159 3951.45,-159 3951.45,-140 3884.45,-140"/>
<text text-anchor="middle" x="3917.95" y="-147" font-family="FreeSans.ttf" font-size="10.00">Model.cpp</text>
</a>
</g>
</g>
<!-- Node2&#45;&gt;Node32 -->
<g id="edge24" class="edge">
<title>Node2&#45;&gt;Node32</title>
<path fill="none" stroke="midnightblue" d="M2545.21,-210.25C2738.57,-211.26 3609.45,-213.05 3874.95,-165 3882.08,-163.71 3889.64,-161.47 3896.4,-159.14"/>
<polygon fill="midnightblue" stroke="midnightblue" points="2544.99,-206.75 2534.98,-210.19 2544.96,-213.75 2544.99,-206.75"/>
</g>
<!-- Node33 -->
<g id="node25" class="node">
<title>Node33</title>
<g id="a_node25"><a xlink:href="ModelTransformers_8cpp.html" target="_top" xlink:title=" ">
<polygon fill="none" stroke="black" points="3969.45,-140 3969.45,-159 4100.45,-159 4100.45,-140 3969.45,-140"/>
<text text-anchor="middle" x="4034.95" y="-147" font-family="FreeSans.ttf" font-size="10.00">ModelTransformers.cpp</text>
</a>
</g>
</g>
<!-- Node2&#45;&gt;Node33 -->
<g id="edge25" class="edge">
<title>Node2&#45;&gt;Node33</title>
<path fill="none" stroke="midnightblue" d="M2545.23,-209.64C2745.5,-207.66 3674.1,-196.85 3959.95,-165 3972.07,-163.65 3985.17,-161.4 3996.97,-159.06"/>
<polygon fill="midnightblue" stroke="midnightblue" points="2545.16,-206.14 2535.19,-209.74 2545.23,-213.14 2545.16,-206.14"/>
</g>
<!-- Node2&#45;&gt;Node34 -->
<g id="edge26" class="edge">
<title>Node2&#45;&gt;Node34</title>
<path fill="none" stroke="midnightblue" d="M2545.29,-209.68C2816.26,-207.35 4438,-192.34 4654.95,-165 4665.26,-163.7 4676.35,-161.4 4686.27,-159.01"/>
<polygon fill="midnightblue" stroke="midnightblue" points="2545.13,-206.18 2535.16,-209.77 2545.19,-213.18 2545.13,-206.18"/>
</g>
<!-- Node35 -->
<g id="node27" class="node">
<title>Node35</title>
<g id="a_node27"><a xlink:href="SubModel_8cpp.html" target="_top" xlink:title=" ">
<polygon fill="none" stroke="black" points="4118.45,-140 4118.45,-159 4203.45,-159 4203.45,-140 4118.45,-140"/>
<text text-anchor="middle" x="4160.95" y="-147" font-family="FreeSans.ttf" font-size="10.00">SubModel.cpp</text>
</a>
</g>
</g>
<!-- Node2&#45;&gt;Node35 -->
<g id="edge27" class="edge">
<title>Node2&#45;&gt;Node35</title>
<path fill="none" stroke="midnightblue" d="M2545.08,-210.19C2757.19,-211.05 3793.43,-212.69 4108.95,-165 4117.56,-163.7 4126.78,-161.43 4135.03,-159.07"/>
<polygon fill="midnightblue" stroke="midnightblue" points="2545.07,-206.69 2535.05,-210.15 2545.04,-213.69 2545.07,-206.69"/>
</g>
<!-- Node36 -->
<g id="node28" class="node">
<title>Node36</title>
<g id="a_node28"><a xlink:href="Traversal_8cpp.html" target="_top" xlink:title=" ">
<polygon fill="none" stroke="black" points="4221.45,-140 4221.45,-159 4302.45,-159 4302.45,-140 4221.45,-140"/>
<text text-anchor="middle" x="4261.95" y="-147" font-family="FreeSans.ttf" font-size="10.00">Traversal.cpp</text>
</a>
</g>
</g>
<!-- Node2&#45;&gt;Node36 -->
<g id="edge28" class="edge">
<title>Node2&#45;&gt;Node36</title>
<path fill="none" stroke="midnightblue" d="M2545.19,-209.58C2781.87,-206.88 4042.38,-191.38 4211.95,-165 4220.34,-163.69 4229.31,-161.39 4237.31,-159"/>
<polygon fill="midnightblue" stroke="midnightblue" points="2544.97,-206.08 2535.01,-209.69 2545.05,-213.08 2544.97,-206.08"/>
</g>
<!-- Node37 -->
<g id="node29" class="node">
<title>Node37</title>
<g id="a_node29"><a xlink:href="ModelCalibrationHelper_8h.html" target="_top" xlink:title=" ">
<polygon fill="none" stroke="red" points="332.95,-6 332.95,-25 472.95,-25 472.95,-6 332.95,-6"/>
<text text-anchor="middle" x="402.95" y="-13" font-family="FreeSans.ttf" font-size="10.00">ModelCalibrationHelper.h</text>
</a>
</g>
</g>
<!-- Node2&#45;&gt;Node37 -->
<g id="edge29" class="edge">
<title>Node2&#45;&gt;Node37</title>
<path fill="none" stroke="midnightblue" d="M2468.78,-209.76C2162.79,-207.77 118.97,-193.41 62.95,-165 19.15,-142.79 -20.47,-103.88 11.95,-67 32.76,-43.32 226.16,-27.57 332.93,-20.6"/>
<polygon fill="midnightblue" stroke="midnightblue" points="2468.9,-213.26 2478.92,-209.82 2468.95,-206.26 2468.9,-213.26"/>
</g>
<!-- Node39 -->
<g id="node30" class="node">
<title>Node39</title>
<g id="a_node30"><a xlink:href="ModelExporter_8h.html" target="_top" xlink:title=" ">
<polygon fill="none" stroke="red" points="354.95,-73 354.95,-92 450.95,-92 450.95,-73 354.95,-73"/>
<text text-anchor="middle" x="402.95" y="-80" font-family="FreeSans.ttf" font-size="10.00">ModelExporter.h</text>
</a>
</g>
</g>
<!-- Node2&#45;&gt;Node39 -->
<g id="edge30" class="edge">
<title>Node2&#45;&gt;Node39</title>
<path fill="none" stroke="midnightblue" d="M2468.66,-210.02C2214.4,-210.02 773.87,-208.12 583.95,-165 517.74,-149.97 446.25,-109.81 416.81,-92.1"/>
<polygon fill="midnightblue" stroke="midnightblue" points="2468.88,-213.52 2478.88,-210.02 2468.88,-206.52 2468.88,-213.52"/>
</g>
<!-- Node43 -->
<g id="node31" class="node">
<title>Node43</title>
<g id="a_node31"><a xlink:href="ModelLoader_8h.html" target="_top" xlink:title=" ">
<polygon fill="none" stroke="red" points="758.95,-73 758.95,-92 846.95,-92 846.95,-73 758.95,-73"/>
<text text-anchor="middle" x="802.95" y="-80" font-family="FreeSans.ttf" font-size="10.00">ModelLoader.h</text>
</a>
</g>
</g>
<!-- Node2&#45;&gt;Node43 -->
<g id="edge32" class="edge">
<title>Node2&#45;&gt;Node43</title>
<path fill="none" stroke="midnightblue" d="M2468.8,-209.95C2273.21,-209.53 1381.33,-205.38 1107.95,-165 1001.4,-149.26 878.72,-109.67 827.45,-92.11"/>
<polygon fill="midnightblue" stroke="midnightblue" points="2468.88,-213.45 2478.88,-209.97 2468.89,-206.45 2468.88,-213.45"/>
</g>
<!-- Node44 -->
<g id="node32" class="node">
<title>Node44</title>
<g id="a_node32"><a xlink:href="URDFDocument_8h.html" target="_top" xlink:title=" ">
<polygon fill="none" stroke="red" points="3053.95,-6 3053.95,-25 3157.95,-25 3157.95,-6 3053.95,-6"/>
<text text-anchor="middle" x="3105.95" y="-13" font-family="FreeSans.ttf" font-size="10.00">URDFDocument.h</text>
</a>
</g>
</g>
<!-- Node2&#45;&gt;Node44 -->
<g id="edge41" class="edge">
<title>Node2&#45;&gt;Node44</title>
<path fill="none" stroke="midnightblue" d="M2545.28,-209.92C2828.32,-209.26 4584.15,-203.6 4621.95,-165 4631.58,-155.15 4631.3,-144.11 4621.95,-134 4520.47,-24.35 3413.03,-16.74 3158.08,-16.45"/>
<polygon fill="midnightblue" stroke="midnightblue" points="2545.09,-206.42 2535.1,-209.95 2545.1,-213.42 2545.09,-206.42"/>
</g>
<!-- Node47 -->
<g id="node33" class="node">
<title>Node47</title>
<g id="a_node33"><a xlink:href="URDFDofsImport_8cpp.html" target="_top" xlink:title=" ">
<polygon fill="none" stroke="black" points="1226.45,-6 1226.45,-25 1345.45,-25 1345.45,-6 1226.45,-6"/>
<text text-anchor="middle" x="1285.95" y="-13" font-family="FreeSans.ttf" font-size="10.00">URDFDofsImport.cpp</text>
</a>
</g>
</g>
<!-- Node2&#45;&gt;Node47 -->
<g id="edge44" class="edge">
<title>Node2&#45;&gt;Node47</title>
<path fill="none" stroke="midnightblue" d="M2468.8,-209.92C2277.99,-209.32 1434.84,-204.47 1396.95,-165 1387.4,-155.06 1391.59,-146.69 1396.95,-134 1405.87,-112.86 1425.02,-119.14 1433.95,-98 1439.31,-85.31 1441.96,-78.21 1433.95,-67 1413.89,-38.96 1377.3,-26.31 1345.53,-20.68"/>
<polygon fill="midnightblue" stroke="midnightblue" points="2468.9,-213.42 2478.91,-209.95 2468.92,-206.42 2468.9,-213.42"/>
</g>
<!-- Node48 -->
<g id="node34" class="node">
<title>Node48</title>
<g id="a_node34"><a xlink:href="idyntree-model-info_8cpp.html" target="_top" xlink:title=" ">
<polygon fill="none" stroke="black" points="1395.95,-6 1395.95,-25 1529.95,-25 1529.95,-6 1395.95,-6"/>
<text text-anchor="middle" x="1462.95" y="-13" font-family="FreeSans.ttf" font-size="10.00">idyntree&#45;model&#45;info.cpp</text>
</a>
</g>
</g>
<!-- Node2&#45;&gt;Node48 -->
<g id="edge62" class="edge">
<title>Node2&#45;&gt;Node48</title>
<path fill="none" stroke="midnightblue" d="M2468.66,-209.9C2279.08,-209.2 1448.32,-203.94 1410.95,-165 1367.92,-120.17 1466.84,-106.94 1471.95,-98 1485.43,-74.39 1473.78,-40.64 1467,-25.03"/>
<polygon fill="midnightblue" stroke="midnightblue" points="2468.71,-213.4 2478.72,-209.93 2468.73,-206.4 2468.71,-213.4"/>
</g>
<!-- Node49 -->
<g id="node35" class="node">
<title>Node49</title>
<g id="a_node35"><a xlink:href="idyntree-model-view_8cpp.html" target="_top" xlink:title=" ">
<polygon fill="none" stroke="black" points="717.45,-6 717.45,-25 854.45,-25 854.45,-6 717.45,-6"/>
<text text-anchor="middle" x="785.95" y="-13" font-family="FreeSans.ttf" font-size="10.00">idyntree&#45;model&#45;view.cpp</text>
</a>
</g>
</g>
<!-- Node2&#45;&gt;Node49 -->
<g id="edge63" class="edge">
<title>Node2&#45;&gt;Node49</title>
<path fill="none" stroke="midnightblue" d="M2468.45,-209.52C2244.44,-206.64 1113.48,-190.91 960.95,-165 863.94,-148.52 808.05,-177.41 749.95,-98 732.59,-74.28 760.83,-40.88 776.54,-25.23"/>
<polygon fill="midnightblue" stroke="midnightblue" points="2468.68,-213.02 2478.72,-209.65 2468.77,-206.02 2468.68,-213.02"/>
</g>
<!-- Node50 -->
<g id="node36" class="node">
<title>Node50</title>
<g id="a_node36"><a xlink:href="InertialElement_8h.html" target="_top" xlink:title=" ">
<polygon fill="none" stroke="red" points="1420.45,-140 1420.45,-159 1521.45,-159 1521.45,-140 1420.45,-140"/>
<text text-anchor="middle" x="1470.95" y="-147" font-family="FreeSans.ttf" font-size="10.00">InertialElement.h</text>
</a>
</g>
</g>
<!-- Node2&#45;&gt;Node50 -->
<g id="edge39" class="edge">
<title>Node2&#45;&gt;Node50</title>
<path fill="none" stroke="midnightblue" d="M2468.49,-209.21C2311.27,-205.82 1716.85,-191.5 1530.95,-165 1521.19,-163.61 1510.69,-161.34 1501.25,-159.01"/>
<polygon fill="midnightblue" stroke="midnightblue" points="2468.56,-212.71 2478.63,-209.43 2468.71,-205.71 2468.56,-212.71"/>
</g>
<!-- Node52 -->
<g id="node37" class="node">
<title>Node52</title>
<g id="a_node37"><a xlink:href="LinkElement_8cpp.html" target="_top" xlink:title=" ">
<polygon fill="none" stroke="black" points="2380.95,-73 2380.95,-92 2478.95,-92 2478.95,-73 2380.95,-73"/>
<text text-anchor="middle" x="2429.95" y="-80" font-family="FreeSans.ttf" font-size="10.00">LinkElement.cpp</text>
</a>
</g>
</g>
<!-- Node2&#45;&gt;Node52 -->
<g id="edge42" class="edge">
<title>Node2&#45;&gt;Node52</title>
<path fill="none" stroke="midnightblue" d="M2481.85,-196.05C2470.18,-188.34 2457.11,-177.74 2448.95,-165 2433.97,-141.64 2430.77,-107.77 2430.1,-92.08"/>
<polygon fill="midnightblue" stroke="midnightblue" points="2480.05,-199.05 2490.39,-201.37 2483.75,-193.11 2480.05,-199.05"/>
</g>
<!-- Node53 -->
<g id="node38" class="node">
<title>Node53</title>
<g id="a_node38"><a xlink:href="RobotElement_8cpp.html" target="_top" xlink:title=" ">
<polygon fill="none" stroke="black" points="1098.95,-73 1098.95,-92 1204.95,-92 1204.95,-73 1098.95,-73"/>
<text text-anchor="middle" x="1151.95" y="-80" font-family="FreeSans.ttf" font-size="10.00">RobotElement.cpp</text>
</a>
</g>
</g>
<!-- Node2&#45;&gt;Node53 -->
<g id="edge43" class="edge">
<title>Node2&#45;&gt;Node53</title>
<path fill="none" stroke="midnightblue" d="M2468.56,-209.71C2274.29,-208.09 1404.23,-199 1288.95,-165 1236.65,-149.58 1183.71,-109.63 1162.09,-92.03"/>
<polygon fill="midnightblue" stroke="midnightblue" points="2468.81,-213.21 2478.84,-209.79 2468.87,-206.21 2468.81,-213.21"/>
</g>
<!-- Node42 -->
<g id="node39" class="node">
<title>Node42</title>
<g id="a_node39"><a xlink:href="URDFModelExport_8cpp.html" target="_top" xlink:title=" ">
<polygon fill="none" stroke="black" points="4320.95,-140 4320.95,-159 4446.95,-159 4446.95,-140 4320.95,-140"/>
<text text-anchor="middle" x="4383.95" y="-147" font-family="FreeSans.ttf" font-size="10.00">URDFModelExport.cpp</text>
</a>
</g>
</g>
<!-- Node2&#45;&gt;Node42 -->
<g id="edge45" class="edge">
<title>Node2&#45;&gt;Node42</title>
<path fill="none" stroke="midnightblue" d="M2545.39,-209.94C2773.52,-209.43 3951.56,-204.88 4310.95,-165 4322.89,-163.67 4335.79,-161.4 4347.37,-159.04"/>
<polygon fill="midnightblue" stroke="midnightblue" points="2545.25,-206.44 2535.26,-209.96 2545.26,-213.44 2545.25,-206.44"/>
</g>
<!-- Node54 -->
<g id="node40" class="node">
<title>Node54</title>
<g id="a_node40"><a xlink:href="Sensors_8h.html" target="_top" xlink:title=" ">
<polygon fill="none" stroke="red" points="638.95,-140 638.95,-159 702.95,-159 702.95,-140 638.95,-140"/>
<text text-anchor="middle" x="670.95" y="-147" font-family="FreeSans.ttf" font-size="10.00">Sensors.h</text>
</a>
</g>
</g>
<!-- Node2&#45;&gt;Node54 -->
<g id="edge46" class="edge">
<title>Node2&#45;&gt;Node54</title>
<path fill="none" stroke="midnightblue" d="M2468.72,-209.68C2225.2,-207.57 895.11,-194.71 716.95,-165 709.18,-163.71 700.92,-161.41 693.57,-159.02"/>
<polygon fill="midnightblue" stroke="midnightblue" points="2468.82,-213.18 2478.85,-209.77 2468.88,-206.18 2468.82,-213.18"/>
</g>
<!-- Node69 -->
<g id="node41" class="node">
<title>Node69</title>
<g id="a_node41"><a xlink:href="ModelSensorsTransformers_8cpp.html" target="_top" xlink:title=" ">
<polygon fill="none" stroke="black" points="1223.45,-73 1223.45,-92 1392.45,-92 1392.45,-73 1223.45,-73"/>
<text text-anchor="middle" x="1307.95" y="-80" font-family="FreeSans.ttf" font-size="10.00">ModelSensorsTransformers.cpp</text>
</a>
</g>
</g>
<!-- Node2&#45;&gt;Node69 -->
<g id="edge58" class="edge">
<title>Node2&#45;&gt;Node69</title>
<path fill="none" stroke="midnightblue" d="M2468.78,-210.04C2268.18,-210.1 1343.37,-208 1301.95,-165 1282.85,-145.18 1296.14,-108.59 1303.7,-92.04"/>
<polygon fill="midnightblue" stroke="midnightblue" points="2468.85,-213.54 2478.85,-210.04 2468.84,-206.54 2468.85,-213.54"/>
</g>
<!-- Node64 -->
<g id="node42" class="node">
<title>Node64</title>
<g id="a_node42"><a xlink:href="PredictSensorsMeasurements_8cpp.html" target="_top" xlink:title=" ">
<polygon fill="none" stroke="black" points="38.95,-73 38.95,-92 220.95,-92 220.95,-73 38.95,-73"/>
<text text-anchor="middle" x="129.95" y="-80" font-family="FreeSans.ttf" font-size="10.00">PredictSensorsMeasurements.cpp</text>
</a>
</g>
</g>
<!-- Node2&#45;&gt;Node64 -->
<g id="edge59" class="edge">
<title>Node2&#45;&gt;Node64</title>
<path fill="none" stroke="midnightblue" d="M2468.75,-209.83C2200.52,-208.56 604.34,-199.59 391.95,-165 299.32,-149.92 194.1,-109.79 150.52,-92.09"/>
<polygon fill="midnightblue" stroke="midnightblue" points="2468.76,-213.33 2478.78,-209.88 2468.8,-206.33 2468.76,-213.33"/>
</g>
<!-- Node2&#45;&gt;Node75 -->
<g id="edge60" class="edge">
<title>Node2&#45;&gt;Node75</title>
<path fill="none" stroke="midnightblue" d="M2545.59,-210.09C2832.05,-210.63 4629.46,-212.1 5171.95,-165 5174.85,-164.75 5177.79,-164.46 5180.77,-164.14"/>
<polygon fill="midnightblue" stroke="midnightblue" points="2545.3,-206.59 2535.29,-210.07 2545.28,-213.59 2545.3,-206.59"/>
</g>
<!-- Node77 -->
<g id="node45" class="node">
<title>Node77</title>
<g id="a_node45"><a xlink:href="DummyImplementations_8h.html" target="_top" xlink:title=" ">
<polygon fill="none" stroke="red" points="4464.95,-140 4464.95,-159 4612.95,-159 4612.95,-140 4464.95,-140"/>
<text text-anchor="middle" x="4538.95" y="-147" font-family="FreeSans.ttf" font-size="10.00">DummyImplementations.h</text>
</a>
</g>
</g>
<!-- Node2&#45;&gt;Node77 -->
<g id="edge64" class="edge">
<title>Node2&#45;&gt;Node77</title>
<path fill="none" stroke="midnightblue" d="M2545.4,-209.9C2784.07,-209.15 4065.54,-203.39 4455.95,-165 4469.49,-163.67 4484.14,-161.39 4497.32,-159.03"/>
<polygon fill="midnightblue" stroke="midnightblue" points="2545.13,-206.4 2535.14,-209.93 2545.15,-213.4 2545.13,-206.4"/>
</g>
<!-- Node85 -->
<g id="node46" class="node">
<title>Node85</title>
<g id="a_node46"><a xlink:href="JetsVisualization_8cpp.html" target="_top" xlink:title=" ">
<polygon fill="none" stroke="black" points="4930.95,-140 4930.95,-159 5048.95,-159 5048.95,-140 4930.95,-140"/>
<text text-anchor="middle" x="4989.95" y="-147" font-family="FreeSans.ttf" font-size="10.00">JetsVisualization.cpp</text>
</a>
</g>
</g>
<!-- Node2&#45;&gt;Node85 -->
<g id="edge65" class="edge">
<title>Node2&#45;&gt;Node85</title>
<path fill="none" stroke="midnightblue" d="M2545.39,-209.73C2835.54,-207.62 4676.44,-193.2 4921.95,-165 4933.22,-163.71 4945.38,-161.41 4956.26,-159.02"/>
<polygon fill="midnightblue" stroke="midnightblue" points="2544.95,-206.23 2534.98,-209.8 2545,-213.23 2544.95,-206.23"/>
</g>
<!-- Node86 -->
<g id="node47" class="node">
<title>Node86</title>
<g id="a_node47"><a xlink:href="ModelVisualization_8cpp.html" target="_top" xlink:title=" ">
<polygon fill="none" stroke="black" points="4782.95,-140 4782.95,-159 4912.95,-159 4912.95,-140 4782.95,-140"/>
<text text-anchor="middle" x="4847.95" y="-147" font-family="FreeSans.ttf" font-size="10.00">ModelVisualization.cpp</text>
</a>
</g>
</g>
<!-- Node2&#45;&gt;Node86 -->
<g id="edge66" class="edge">
<title>Node2&#45;&gt;Node86</title>
<path fill="none" stroke="midnightblue" d="M2545.36,-210.15C2805.84,-211.04 4316.7,-213.96 4773.95,-165 4786.05,-163.7 4799.13,-161.44 4810.87,-159.07"/>
<polygon fill="midnightblue" stroke="midnightblue" points="2545.26,-206.65 2535.25,-210.12 2545.24,-213.65 2545.26,-206.65"/>
</g>
<!-- Node3&#45;&gt;Node4 -->
<g id="edge3" class="edge">
<title>Node3&#45;&gt;Node4</title>
<path fill="none" stroke="midnightblue" d="M566.36,-59.74C574.5,-50.12 583.83,-39.09 591.04,-30.58"/>
<polygon fill="midnightblue" stroke="midnightblue" points="563.67,-57.5 559.88,-67.4 569.01,-62.02 563.67,-57.5"/>
</g>
<!-- Node39&#45;&gt;Node37 -->
<g id="edge31" class="edge">
<title>Node39&#45;&gt;Node37</title>
<path fill="none" stroke="midnightblue" d="M402.95,-62.54C402.95,-50.17 402.95,-34.62 402.95,-25.13"/>
<polygon fill="midnightblue" stroke="midnightblue" points="399.45,-62.73 402.95,-72.73 406.45,-62.73 399.45,-62.73"/>
</g>
<!-- Node43&#45;&gt;Node4 -->
<g id="edge33" class="edge">
<title>Node43&#45;&gt;Node4</title>
<path fill="none" stroke="midnightblue" d="M766.87,-69.77C732.96,-58.75 682.16,-42.24 646.11,-30.53"/>
<polygon fill="midnightblue" stroke="midnightblue" points="765.8,-73.11 776.39,-72.87 767.96,-66.45 765.8,-73.11"/>
</g>
<!-- Node43&#45;&gt;Node11 -->
<g id="edge34" class="edge">
<title>Node43&#45;&gt;Node11</title>
<path fill="none" stroke="midnightblue" d="M846.73,-70.5C851.52,-69.31 856.34,-68.13 860.95,-67 922.51,-51.97 994.27,-34.99 1036.53,-25.04"/>
<polygon fill="midnightblue" stroke="midnightblue" points="845.83,-67.12 836.97,-72.93 847.52,-73.91 845.83,-67.12"/>
</g>
<!-- Node43&#45;&gt;Node44 -->
<g id="edge35" class="edge">
<title>Node43&#45;&gt;Node44</title>
<path fill="none" stroke="midnightblue" d="M841.5,-70.6C847.95,-69.14 854.6,-67.85 860.95,-67 1084.44,-36.93 2737.82,-19.96 3053.83,-16.98"/>
<polygon fill="midnightblue" stroke="midnightblue" points="840.51,-67.23 831.61,-72.99 842.16,-74.04 840.51,-67.23"/>
</g>
<!-- Node43&#45;&gt;Node47 -->
<g id="edge36" class="edge">
<title>Node43&#45;&gt;Node47</title>
<path fill="none" stroke="midnightblue" d="M844.07,-70.54C849.72,-69.23 855.46,-68.01 860.95,-67 896.03,-60.56 1117.55,-35.37 1226.12,-23.18"/>
<polygon fill="midnightblue" stroke="midnightblue" points="842.99,-67.2 834.09,-72.94 844.63,-74 842.99,-67.2"/>
</g>
<!-- Node43&#45;&gt;Node48 -->
<g id="edge37" class="edge">
<title>Node43&#45;&gt;Node48</title>
<path fill="none" stroke="midnightblue" d="M842.8,-70.58C848.85,-69.2 855.04,-67.95 860.95,-67 1077.87,-32.23 1135.41,-53.5 1353.95,-31 1370.18,-29.33 1387.73,-27.16 1403.91,-25"/>
<polygon fill="midnightblue" stroke="midnightblue" points="841.75,-67.24 832.85,-72.98 843.39,-74.04 841.75,-67.24"/>
</g>
<!-- Node43&#45;&gt;Node49 -->
<g id="edge38" class="edge">
<title>Node43&#45;&gt;Node49</title>
<path fill="none" stroke="midnightblue" d="M798.09,-62.91C794.84,-50.49 790.71,-34.72 788.2,-25.13"/>
<polygon fill="midnightblue" stroke="midnightblue" points="794.74,-63.94 800.65,-72.73 801.51,-62.17 794.74,-63.94"/>
</g>
<!-- Node50&#45;&gt;Node52 -->
<g id="edge40" class="edge">
<title>Node50&#45;&gt;Node52</title>
<path fill="none" stroke="midnightblue" d="M1511.51,-137.65C1517.97,-136.22 1524.62,-134.93 1530.95,-134 1852.61,-86.5 2245.05,-82.85 2380.91,-83.15"/>
<polygon fill="midnightblue" stroke="midnightblue" points="1510.51,-134.29 1501.57,-139.97 1512.1,-141.1 1510.51,-134.29"/>
</g>
<!-- Node54&#45;&gt;Node3 -->
<g id="edge47" class="edge">
<title>Node54&#45;&gt;Node3</title>
<path fill="none" stroke="midnightblue" d="M645.77,-135.19C625.08,-124.26 595.84,-108.81 574.73,-97.65"/>
<polygon fill="midnightblue" stroke="midnightblue" points="644.14,-138.29 654.61,-139.87 647.41,-132.1 644.14,-138.29"/>
</g>
<!-- Node54&#45;&gt;Node4 -->
<g id="edge50" class="edge">
<title>Node54&#45;&gt;Node4</title>
<path fill="none" stroke="midnightblue" d="M674.86,-129.87C677.52,-112.59 678.96,-86.66 668.95,-67 660.96,-51.32 645.59,-39.11 631.7,-30.63"/>
<polygon fill="midnightblue" stroke="midnightblue" points="671.4,-129.35 673.05,-139.82 678.29,-130.61 671.4,-129.35"/>
</g>
<!-- Node54&#45;&gt;Node9 -->
<g id="edge48" class="edge">
<title>Node54&#45;&gt;Node9</title>
<path fill="none" stroke="midnightblue" d="M628.74,-143.19C566.55,-135.08 446.73,-118.38 345.95,-98 337.4,-96.27 328.22,-94.12 319.74,-92"/>
<polygon fill="midnightblue" stroke="midnightblue" points="628.58,-146.7 638.95,-144.51 629.48,-139.75 628.58,-146.7"/>
</g>
<!-- Node54&#45;&gt;Node10 -->
<g id="edge49" class="edge">
<title>Node54&#45;&gt;Node10</title>
<path fill="none" stroke="midnightblue" d="M713.34,-139.92C774.94,-127.44 888.49,-104.45 949.89,-92.02"/>
<polygon fill="midnightblue" stroke="midnightblue" points="712.3,-136.55 703.19,-141.97 713.69,-143.42 712.3,-136.55"/>
</g>
<!-- Node54&#45;&gt;Node37 -->
<g id="edge51" class="edge">
<title>Node54&#45;&gt;Node37</title>
<path fill="none" stroke="midnightblue" d="M668,-129.82C664.03,-111.08 655.13,-82.81 635.95,-67 621.97,-55.48 518.22,-36.11 453.97,-25.01"/>
<polygon fill="midnightblue" stroke="midnightblue" points="664.59,-130.62 669.84,-139.82 671.47,-129.35 664.59,-130.62"/>
</g>
<!-- Node54&#45;&gt;Node39 -->
<g id="edge52" class="edge">
<title>Node54&#45;&gt;Node39</title>
<path fill="none" stroke="midnightblue" d="M629,-138.64C586.39,-128.59 518.52,-112.46 459.95,-98 452.21,-96.09 443.9,-94 436.08,-92.01"/>
<polygon fill="midnightblue" stroke="midnightblue" points="628.2,-142.05 638.74,-140.94 629.81,-135.24 628.2,-142.05"/>
</g>
<!-- Node54&#45;&gt;Node43 -->
<g id="edge53" class="edge">
<title>Node54&#45;&gt;Node43</title>
<path fill="none" stroke="midnightblue" d="M697.46,-135.44C723.61,-122.57 762.82,-103.26 785.35,-92.17"/>
<polygon fill="midnightblue" stroke="midnightblue" points="695.9,-132.31 688.47,-139.87 698.99,-138.59 695.9,-132.31"/>
</g>
<!-- Node54&#45;&gt;Node44 -->
<g id="edge54" class="edge">
<title>Node54&#45;&gt;Node44</title>
<path fill="none" stroke="midnightblue" d="M713.09,-142.17C751.82,-135.17 810.02,-121.64 855.95,-98 875.33,-88.02 873.5,-74.55 893.95,-67 998.42,-28.44 2729.3,-18.3 3053.76,-16.73"/>
<polygon fill="midnightblue" stroke="midnightblue" points="712.44,-138.73 703.19,-143.89 713.64,-145.62 712.44,-138.73"/>
</g>
<!-- Node54&#45;&gt;Node53 -->
<g id="edge55" class="edge">
<title>Node54&#45;&gt;Node53</title>
<path fill="none" stroke="midnightblue" d="M713.3,-144.95C789.18,-138.23 953.16,-122.16 1089.95,-98 1099.31,-96.35 1109.38,-94.17 1118.62,-92"/>
<polygon fill="midnightblue" stroke="midnightblue" points="712.85,-141.47 703.19,-145.83 713.46,-148.45 712.85,-141.47"/>
</g>
<!-- Node54&#45;&gt;Node69 -->
<g id="edge56" class="edge">
<title>Node54&#45;&gt;Node69</title>
<path fill="none" stroke="midnightblue" d="M713.13,-145.45C804.56,-138.64 1027.79,-120.99 1213.95,-98 1227.71,-96.3 1242.56,-94.15 1256.31,-92.04"/>
<polygon fill="midnightblue" stroke="midnightblue" points="712.87,-141.96 703.15,-146.19 713.38,-148.94 712.87,-141.96"/>
</g>
<!-- Node54&#45;&gt;Node64 -->
<g id="edge57" class="edge">
<title>Node54&#45;&gt;Node64</title>
<path fill="none" stroke="midnightblue" d="M628.82,-144.1C550.29,-135.81 376.22,-116.98 229.95,-98 215.85,-96.17 200.67,-94.05 186.49,-92"/>
<polygon fill="midnightblue" stroke="midnightblue" points="628.5,-147.59 638.81,-145.15 629.23,-140.63 628.5,-147.59"/>
</g>
<!-- Node75&#45;&gt;Node76 -->
<g id="edge61" class="edge">
<title>Node75&#45;&gt;Node76</title>
<path fill="none" stroke="midnightblue" d="M5282.36,-126.74C5290.5,-117.12 5299.83,-106.09 5307.04,-97.58"/>
<polygon fill="midnightblue" stroke="midnightblue" points="5279.67,-124.5 5275.88,-134.4 5285.01,-129.02 5279.67,-124.5"/>
</g>
<!-- Node87&#45;&gt;Node44 -->
<g id="edge69" class="edge">
<title>Node87&#45;&gt;Node44</title>
<path fill="none" stroke="midnightblue" d="M5073.51,-137.52C5068.28,-136.27 5063,-135.06 5057.95,-134 4880.25,-96.7 4835.63,-84.89 4654.95,-67 4354.89,-37.3 3392.95,-20.9 3158.05,-17.27"/>
<polygon fill="midnightblue" stroke="midnightblue" points="5072.85,-140.97 5083.4,-139.97 5074.53,-134.17 5072.85,-140.97"/>
</g>
<!-- Node87&#45;&gt;Node52 -->
<g id="edge70" class="edge">
<title>Node87&#45;&gt;Node52</title>
<path fill="none" stroke="midnightblue" d="M5077.07,-137.58C5070.73,-136.12 5064.19,-134.84 5057.95,-134 4793.39,-98.29 2816.75,-85.67 2478.97,-83.76"/>
<polygon fill="midnightblue" stroke="midnightblue" points="5076.24,-140.98 5086.79,-139.97 5077.91,-134.18 5076.24,-140.98"/>
</g>
<!-- Node92&#45;&gt;Node85 -->
<g id="edge75" class="edge">
<title>Node92&#45;&gt;Node85</title>
<path fill="none" stroke="midnightblue" d="M4989.95,-191.32C4989.95,-180.5 4989.95,-167.4 4989.95,-159.01"/>
<polygon fill="midnightblue" stroke="midnightblue" points="4986.45,-191.48 4989.95,-201.48 4993.45,-191.48 4986.45,-191.48"/>
</g>
<!-- Node92&#45;&gt;Node86 -->
<g id="edge76" class="edge">
<title>Node92&#45;&gt;Node86</title>
<path fill="none" stroke="midnightblue" d="M4960.07,-197.48C4932.49,-185.92 4892.28,-169.08 4868.25,-159.01"/>
<polygon fill="midnightblue" stroke="midnightblue" points="4959.03,-200.84 4969.6,-201.48 4961.73,-194.38 4959.03,-200.84"/>
</g>
</g>
</svg>
