<?xml version="1.0" encoding="UTF-8" standalone="no"?>
<!DOCTYPE svg PUBLIC "-//W3C//DTD SVG 1.1//EN"
 "http://www.w3.org/Graphics/SVG/1.1/DTD/svg11.dtd">
<!-- Generated by graphviz version 2.43.0 (0)
 -->
<!-- Title: SolidShapes.h Pages: 1 -->
<svg width="1054pt" height="476pt"
 viewBox="0.00 0.00 1054.11 476.00" xmlns="http://www.w3.org/2000/svg" xmlns:xlink="http://www.w3.org/1999/xlink">
<g id="graph0" class="graph" transform="scale(1 1) rotate(0) translate(4 472)">
<title>SolidShapes.h</title>
<!-- Node1 -->
<g id="node1" class="node">
<title>Node1</title>
<g id="a_node1"><a xlink:title=" ">
<polygon fill="#bfbfbf" stroke="black" points="125,-448.5 125,-467.5 210,-467.5 210,-448.5 125,-448.5"/>
<text text-anchor="middle" x="167.5" y="-455.5" font-family="FreeSans.ttf" font-size="10.00">SolidShapes.h</text>
</a>
</g>
</g>
<!-- Node2 -->
<g id="node2" class="node">
<title>Node2</title>
<g id="a_node2"><a xlink:title=" ">
<polygon fill="none" stroke="#bfbfbf" points="52,-392.5 52,-411.5 101,-411.5 101,-392.5 52,-392.5"/>
<text text-anchor="middle" x="76.5" y="-399.5" font-family="FreeSans.ttf" font-size="10.00">cstdlib</text>
</a>
</g>
</g>
<!-- Node1&#45;&gt;Node2 -->
<g id="edge1" class="edge">
<title>Node1&#45;&gt;Node2</title>
<path fill="none" stroke="midnightblue" d="M152.88,-448.32C138.55,-439.82 116.49,-426.73 99.75,-416.8"/>
<polygon fill="midnightblue" stroke="midnightblue" points="101.47,-413.75 91.08,-411.65 97.9,-419.77 101.47,-413.75"/>
</g>
<!-- Node3 -->
<g id="node3" class="node">
<title>Node3</title>
<g id="a_node3"><a xlink:title=" ">
<polygon fill="none" stroke="#bfbfbf" points="327.5,-112.5 327.5,-131.5 371.5,-131.5 371.5,-112.5 327.5,-112.5"/>
<text text-anchor="middle" x="349.5" y="-119.5" font-family="FreeSans.ttf" font-size="10.00">string</text>
</a>
</g>
</g>
<!-- Node1&#45;&gt;Node3 -->
<g id="edge2" class="edge">
<title>Node1&#45;&gt;Node3</title>
<path fill="none" stroke="midnightblue" d="M167.5,-448.44C167.5,-429.94 167.5,-384.81 167.5,-347 167.5,-347 167.5,-347 167.5,-233 167.5,-163.92 264.73,-137.06 317.05,-127.6"/>
<polygon fill="midnightblue" stroke="midnightblue" points="317.91,-131.01 327.18,-125.89 316.74,-124.11 317.91,-131.01"/>
</g>
<!-- Node4 -->
<g id="node4" class="node">
<title>Node4</title>
<g id="a_node4"><a xlink:title=" ">
<polygon fill="none" stroke="#bfbfbf" points="388,-392.5 388,-411.5 435,-411.5 435,-392.5 388,-392.5"/>
<text text-anchor="middle" x="411.5" y="-399.5" font-family="FreeSans.ttf" font-size="10.00">vector</text>
</a>
</g>
</g>
<!-- Node1&#45;&gt;Node4 -->
<g id="edge3" class="edge">
<title>Node1&#45;&gt;Node4</title>
<path fill="none" stroke="midnightblue" d="M210.09,-448.65C250.74,-440.51 313.9,-427.45 377.89,-412.04"/>
<polygon fill="midnightblue" stroke="midnightblue" points="378.86,-415.41 387.75,-409.65 377.2,-408.6 378.86,-415.41"/>
</g>
<!-- Node5 -->
<g id="node5" class="node">
<title>Node5</title>
<g id="a_node5"><a xlink:href="Transform_8h.html" target="_top" xlink:title=" ">
<polygon fill="none" stroke="black" points="223.5,-392.5 223.5,-411.5 369.5,-411.5 369.5,-392.5 223.5,-392.5"/>
<text text-anchor="middle" x="296.5" y="-399.5" font-family="FreeSans.ttf" font-size="10.00">iDynTree/Core/Transform.h</text>
</a>
</g>
</g>
<!-- Node1&#45;&gt;Node5 -->
<g id="edge4" class="edge">
<title>Node1&#45;&gt;Node5</title>
<path fill="none" stroke="midnightblue" d="M187.94,-448.44C209.17,-439.56 242.6,-425.56 266.75,-415.45"/>
<polygon fill="midnightblue" stroke="midnightblue" points="268.28,-418.61 276.16,-411.52 265.58,-412.15 268.28,-418.61"/>
</g>
<!-- Node29 -->
<g id="node29" class="node">
<title>Node29</title>
<g id="a_node29"><a xlink:href="Indices_8h.html" target="_top" xlink:title=" ">
<polygon fill="none" stroke="black" points="0,-168.5 0,-187.5 139,-187.5 139,-168.5 0,-168.5"/>
<text text-anchor="middle" x="69.5" y="-175.5" font-family="FreeSans.ttf" font-size="10.00">iDynTree/Model/Indices.h</text>
</a>
</g>
</g>
<!-- Node1&#45;&gt;Node29 -->
<g id="edge50" class="edge">
<title>Node1&#45;&gt;Node29</title>
<path fill="none" stroke="midnightblue" d="M162.22,-448.23C151.77,-430.04 129.5,-386.6 129.5,-347 129.5,-347 129.5,-347 129.5,-289 129.5,-251.88 102.85,-215.38 85.07,-195.16"/>
<polygon fill="midnightblue" stroke="midnightblue" points="87.43,-192.55 78.1,-187.53 82.26,-197.28 87.43,-192.55"/>
</g>
<!-- Node5&#45;&gt;Node3 -->
<g id="edge49" class="edge">
<title>Node5&#45;&gt;Node3</title>
<path fill="none" stroke="midnightblue" d="M281.88,-392.48C256.16,-376.27 205.5,-338.34 205.5,-291 205.5,-291 205.5,-291 205.5,-233 205.5,-176.94 275.28,-145.62 317.69,-131.77"/>
<polygon fill="midnightblue" stroke="midnightblue" points="318.81,-135.09 327.32,-128.77 316.73,-128.4 318.81,-135.09"/>
</g>
<!-- Node6 -->
<g id="node6" class="node">
<title>Node6</title>
<g id="a_node6"><a xlink:href="Position_8h.html" target="_top" xlink:title=" ">
<polygon fill="none" stroke="black" points="257.5,-336.5 257.5,-355.5 393.5,-355.5 393.5,-336.5 257.5,-336.5"/>
<text text-anchor="middle" x="325.5" y="-343.5" font-family="FreeSans.ttf" font-size="10.00">iDynTree/Core/Position.h</text>
</a>
</g>
</g>
<!-- Node5&#45;&gt;Node6 -->
<g id="edge5" class="edge">
<title>Node5&#45;&gt;Node6</title>
<path fill="none" stroke="midnightblue" d="M301.29,-392.08C305.26,-384.69 311.03,-373.95 315.93,-364.81"/>
<polygon fill="midnightblue" stroke="midnightblue" points="319.15,-366.22 320.8,-355.75 312.99,-362.91 319.15,-366.22"/>
</g>
<!-- Node23 -->
<g id="node23" class="node">
<title>Node23</title>
<g id="a_node23"><a xlink:href="Rotation_8h.html" target="_top" xlink:title=" ">
<polygon fill="none" stroke="black" points="439.5,-280.5 439.5,-299.5 577.5,-299.5 577.5,-280.5 439.5,-280.5"/>
<text text-anchor="middle" x="508.5" y="-287.5" font-family="FreeSans.ttf" font-size="10.00">iDynTree/Core/Rotation.h</text>
</a>
</g>
</g>
<!-- Node5&#45;&gt;Node23 -->
<g id="edge47" class="edge">
<title>Node5&#45;&gt;Node23</title>
<path fill="none" stroke="midnightblue" d="M319.28,-392.47C341.05,-384.04 374.6,-370.38 402.5,-356 432.92,-340.32 466.32,-319.14 487.34,-305.27"/>
<polygon fill="midnightblue" stroke="midnightblue" points="489.42,-308.09 495.8,-299.64 485.54,-302.27 489.42,-308.09"/>
</g>
<!-- Node26 -->
<g id="node26" class="node">
<title>Node26</title>
<g id="a_node26"><a xlink:href="MatrixFixSize_8h.html" target="_top" xlink:title=" ">
<polygon fill="none" stroke="black" points="702,-168.5 702,-187.5 865,-187.5 865,-168.5 702,-168.5"/>
<text text-anchor="middle" x="783.5" y="-175.5" font-family="FreeSans.ttf" font-size="10.00">iDynTree/Core/MatrixFixSize.h</text>
</a>
</g>
</g>
<!-- Node5&#45;&gt;Node26 -->
<g id="edge48" class="edge">
<title>Node5&#45;&gt;Node26</title>
<path fill="none" stroke="midnightblue" d="M360.26,-392.49C492.48,-373.39 789.17,-322.56 848.5,-244 863.44,-224.21 836.3,-204.5 812.66,-192.06"/>
<polygon fill="midnightblue" stroke="midnightblue" points="814.05,-188.84 803.53,-187.51 810.92,-195.11 814.05,-188.84"/>
</g>
<!-- Node6&#45;&gt;Node3 -->
<g id="edge46" class="edge">
<title>Node6&#45;&gt;Node3</title>
<path fill="none" stroke="midnightblue" d="M315.08,-336.25C293.26,-316.79 246.09,-268.18 262.5,-224 275.94,-187.8 308.82,-155.88 330.09,-138.04"/>
<polygon fill="midnightblue" stroke="midnightblue" points="332.33,-140.74 337.87,-131.71 327.91,-135.31 332.33,-140.74"/>
</g>
<!-- Node7 -->
<g id="node7" class="node">
<title>Node7</title>
<g id="a_node7"><a xlink:href="PositionRaw_8h.html" target="_top" xlink:title=" ">
<polygon fill="none" stroke="black" points="271.5,-224.5 271.5,-243.5 427.5,-243.5 427.5,-224.5 271.5,-224.5"/>
<text text-anchor="middle" x="349.5" y="-231.5" font-family="FreeSans.ttf" font-size="10.00">iDynTree/Core/PositionRaw.h</text>
</a>
</g>
</g>
<!-- Node6&#45;&gt;Node7 -->
<g id="edge6" class="edge">
<title>Node6&#45;&gt;Node7</title>
<path fill="none" stroke="midnightblue" d="M327.38,-336.37C331.26,-318.62 340.19,-277.67 345.44,-253.6"/>
<polygon fill="midnightblue" stroke="midnightblue" points="348.91,-254.11 347.63,-243.59 342.07,-252.62 348.91,-254.11"/>
</g>
<!-- Node6&#45;&gt;Node23 -->
<g id="edge27" class="edge">
<title>Node6&#45;&gt;Node23</title>
<path fill="none" stroke="midnightblue" d="M354.5,-336.44C385.68,-327.24 435.43,-312.56 469.91,-302.39"/>
<polygon fill="midnightblue" stroke="midnightblue" points="471.04,-305.7 479.64,-299.52 469.06,-298.99 471.04,-305.7"/>
</g>
<!-- Node7&#45;&gt;Node3 -->
<g id="edge26" class="edge">
<title>Node7&#45;&gt;Node3</title>
<path fill="none" stroke="midnightblue" d="M349.5,-224.37C349.5,-206.62 349.5,-165.67 349.5,-141.6"/>
<polygon fill="midnightblue" stroke="midnightblue" points="353,-141.59 349.5,-131.59 346,-141.59 353,-141.59"/>
</g>
<!-- Node8 -->
<g id="node8" class="node">
<title>Node8</title>
<g id="a_node8"><a xlink:href="VectorFixSize_8h.html" target="_top" xlink:title=" ">
<polygon fill="none" stroke="black" points="521.5,-168.5 521.5,-187.5 683.5,-187.5 683.5,-168.5 521.5,-168.5"/>
<text text-anchor="middle" x="602.5" y="-175.5" font-family="FreeSans.ttf" font-size="10.00">iDynTree/Core/VectorFixSize.h</text>
</a>
</g>
</g>
<!-- Node7&#45;&gt;Node8 -->
<g id="edge7" class="edge">
<title>Node7&#45;&gt;Node8</title>
<path fill="none" stroke="midnightblue" d="M389.59,-224.44C433.82,-215 505.04,-199.8 552.78,-189.61"/>
<polygon fill="midnightblue" stroke="midnightblue" points="553.55,-193.03 562.6,-187.52 552.09,-186.18 553.55,-193.03"/>
</g>
<!-- Node8&#45;&gt;Node3 -->
<g id="edge21" class="edge">
<title>Node8&#45;&gt;Node3</title>
<path fill="none" stroke="midnightblue" d="M562.41,-168.44C512.39,-157.77 427.82,-139.72 381.76,-129.89"/>
<polygon fill="midnightblue" stroke="midnightblue" points="382.24,-126.41 371.73,-127.75 380.78,-133.26 382.24,-126.41"/>
</g>
<!-- Node9 -->
<g id="node9" class="node">
<title>Node9</title>
<g id="a_node9"><a xlink:href="Utils_8h.html" target="_top" xlink:title=" ">
<polygon fill="none" stroke="black" points="452,-56.5 452,-75.5 571,-75.5 571,-56.5 452,-56.5"/>
<text text-anchor="middle" x="511.5" y="-63.5" font-family="FreeSans.ttf" font-size="10.00">iDynTree/Core/Utils.h</text>
</a>
</g>
</g>
<!-- Node8&#45;&gt;Node9 -->
<g id="edge8" class="edge">
<title>Node8&#45;&gt;Node9</title>
<path fill="none" stroke="midnightblue" d="M583.63,-168.43C568.71,-160.79 548.32,-148.3 535.5,-132 524.82,-118.42 518.57,-99.62 515.14,-85.73"/>
<polygon fill="midnightblue" stroke="midnightblue" points="518.53,-84.85 512.96,-75.84 511.69,-86.36 518.53,-84.85"/>
</g>
<!-- Node10 -->
<g id="node10" class="node">
<title>Node10</title>
<g id="a_node10"><a xlink:title=" ">
<polygon fill="none" stroke="#bfbfbf" points="302,-0.5 302,-19.5 355,-19.5 355,-0.5 302,-0.5"/>
<text text-anchor="middle" x="328.5" y="-7.5" font-family="FreeSans.ttf" font-size="10.00">cstddef</text>
</a>
</g>
</g>
<!-- Node8&#45;&gt;Node10 -->
<g id="edge24" class="edge">
<title>Node8&#45;&gt;Node10</title>
<path fill="none" stroke="midnightblue" d="M585.78,-168.36C568.89,-159.53 542.12,-145.28 519.5,-132 456.73,-95.16 384.68,-48.2 349.73,-25.12"/>
<polygon fill="midnightblue" stroke="midnightblue" points="351.55,-22.12 341.28,-19.52 347.69,-27.96 351.55,-22.12"/>
</g>
<!-- Node12 -->
<g id="node12" class="node">
<title>Node12</title>
<g id="a_node12"><a xlink:href="Span_8h.html" target="_top" xlink:title=" ">
<polygon fill="none" stroke="black" points="644,-56.5 644,-75.5 765,-75.5 765,-56.5 644,-56.5"/>
<text text-anchor="middle" x="704.5" y="-63.5" font-family="FreeSans.ttf" font-size="10.00">iDynTree/Core/Span.h</text>
</a>
</g>
</g>
<!-- Node8&#45;&gt;Node12 -->
<g id="edge11" class="edge">
<title>Node8&#45;&gt;Node12</title>
<path fill="none" stroke="midnightblue" d="M591.74,-168.13C577.34,-155.17 555.08,-130.58 568.5,-112 583.74,-90.91 609.23,-79.54 634.06,-73.47"/>
<polygon fill="midnightblue" stroke="midnightblue" points="634.86,-76.88 643.88,-71.33 633.36,-70.04 634.86,-76.88"/>
</g>
<!-- Node13 -->
<g id="node13" class="node">
<title>Node13</title>
<g id="a_node13"><a xlink:title=" ">
<polygon fill="none" stroke="#bfbfbf" points="982.5,-0.5 982.5,-19.5 1034.5,-19.5 1034.5,-0.5 982.5,-0.5"/>
<text text-anchor="middle" x="1008.5" y="-7.5" font-family="FreeSans.ttf" font-size="10.00">cassert</text>
</a>
</g>
</g>
<!-- Node8&#45;&gt;Node13 -->
<g id="edge23" class="edge">
<title>Node8&#45;&gt;Node13</title>
<path fill="none" stroke="midnightblue" d="M683.7,-168.71C770.58,-159.32 898.64,-143.8 918.5,-132 959.81,-107.44 988.15,-55.9 1000.88,-28.69"/>
<polygon fill="midnightblue" stroke="midnightblue" points="1004.08,-30.11 1004.99,-19.56 997.69,-27.24 1004.08,-30.11"/>
</g>
<!-- Node21 -->
<g id="node21" class="node">
<title>Node21</title>
<g id="a_node21"><a xlink:title=" ">
<polygon fill="none" stroke="#bfbfbf" points="645.5,-112.5 645.5,-131.5 701.5,-131.5 701.5,-112.5 645.5,-112.5"/>
<text text-anchor="middle" x="673.5" y="-119.5" font-family="FreeSans.ttf" font-size="10.00">sstream</text>
</a>
</g>
</g>
<!-- Node8&#45;&gt;Node21 -->
<g id="edge22" class="edge">
<title>Node8&#45;&gt;Node21</title>
<path fill="none" stroke="midnightblue" d="M613.91,-168.32C624.61,-160.18 640.84,-147.84 653.66,-138.09"/>
<polygon fill="midnightblue" stroke="midnightblue" points="656.04,-140.67 661.89,-131.83 651.81,-135.1 656.04,-140.67"/>
</g>
<!-- Node22 -->
<g id="node22" class="node">
<title>Node22</title>
<g id="a_node22"><a xlink:title=" ">
<polygon fill="none" stroke="#bfbfbf" points="577.5,-112.5 577.5,-131.5 627.5,-131.5 627.5,-112.5 577.5,-112.5"/>
<text text-anchor="middle" x="602.5" y="-119.5" font-family="FreeSans.ttf" font-size="10.00">cstring</text>
</a>
</g>
</g>
<!-- Node8&#45;&gt;Node22 -->
<g id="edge25" class="edge">
<title>Node8&#45;&gt;Node22</title>
<path fill="none" stroke="midnightblue" d="M602.5,-168.08C602.5,-161.01 602.5,-150.86 602.5,-141.99"/>
<polygon fill="midnightblue" stroke="midnightblue" points="606,-141.75 602.5,-131.75 599,-141.75 606,-141.75"/>
</g>
<!-- Node9&#45;&gt;Node10 -->
<g id="edge9" class="edge">
<title>Node9&#45;&gt;Node10</title>
<path fill="none" stroke="midnightblue" d="M482.5,-56.44C450.67,-47.05 399.51,-31.95 364.98,-21.77"/>
<polygon fill="midnightblue" stroke="midnightblue" points="365.86,-18.37 355.28,-18.9 363.88,-25.09 365.86,-18.37"/>
</g>
<!-- Node11 -->
<g id="node11" class="node">
<title>Node11</title>
<g id="a_node11"><a xlink:title=" ">
<polygon fill="none" stroke="#bfbfbf" points="373.5,-0.5 373.5,-19.5 453.5,-19.5 453.5,-0.5 373.5,-0.5"/>
<text text-anchor="middle" x="413.5" y="-7.5" font-family="FreeSans.ttf" font-size="10.00">CoreExport.h</text>
</a>
</g>
</g>
<!-- Node9&#45;&gt;Node11 -->
<g id="edge10" class="edge">
<title>Node9&#45;&gt;Node11</title>
<path fill="none" stroke="midnightblue" d="M495.75,-56.32C480.18,-47.74 456.12,-34.49 438.04,-24.52"/>
<polygon fill="midnightblue" stroke="midnightblue" points="439.65,-21.42 429.21,-19.65 436.28,-27.55 439.65,-21.42"/>
</g>
<!-- Node12&#45;&gt;Node10 -->
<g id="edge15" class="edge">
<title>Node12&#45;&gt;Node10</title>
<path fill="none" stroke="midnightblue" d="M643.98,-59.08C577.86,-52.15 468.68,-39.33 365.16,-19.92"/>
<polygon fill="midnightblue" stroke="midnightblue" points="365.64,-16.45 355.16,-18.02 364.33,-23.33 365.64,-16.45"/>
</g>
<!-- Node12&#45;&gt;Node13 -->
<g id="edge12" class="edge">
<title>Node12&#45;&gt;Node13</title>
<path fill="none" stroke="midnightblue" d="M764.34,-56.5C816.8,-48.7 895.29,-36.21 972.31,-20.11"/>
<polygon fill="midnightblue" stroke="midnightblue" points="973.12,-23.52 982.18,-18.03 971.68,-16.67 973.12,-23.52"/>
</g>
<!-- Node14 -->
<g id="node14" class="node">
<title>Node14</title>
<g id="a_node14"><a xlink:title=" ">
<polygon fill="none" stroke="#bfbfbf" points="535.5,-0.5 535.5,-19.5 599.5,-19.5 599.5,-0.5 535.5,-0.5"/>
<text text-anchor="middle" x="567.5" y="-7.5" font-family="FreeSans.ttf" font-size="10.00">algorithm</text>
</a>
</g>
</g>
<!-- Node12&#45;&gt;Node14 -->
<g id="edge13" class="edge">
<title>Node12&#45;&gt;Node14</title>
<path fill="none" stroke="midnightblue" d="M682.79,-56.44C660.15,-47.52 624.43,-33.44 598.75,-23.32"/>
<polygon fill="midnightblue" stroke="midnightblue" points="599.69,-19.93 589.11,-19.52 597.13,-26.44 599.69,-19.93"/>
</g>
<!-- Node15 -->
<g id="node15" class="node">
<title>Node15</title>
<g id="a_node15"><a xlink:title=" ">
<polygon fill="none" stroke="#bfbfbf" points="617.5,-0.5 617.5,-19.5 659.5,-19.5 659.5,-0.5 617.5,-0.5"/>
<text text-anchor="middle" x="638.5" y="-7.5" font-family="FreeSans.ttf" font-size="10.00">array</text>
</a>
</g>
</g>
<!-- Node12&#45;&gt;Node15 -->
<g id="edge14" class="edge">
<title>Node12&#45;&gt;Node15</title>
<path fill="none" stroke="midnightblue" d="M693.9,-56.32C684.04,-48.26 669.15,-36.08 657.28,-26.37"/>
<polygon fill="midnightblue" stroke="midnightblue" points="659.25,-23.46 649.3,-19.83 654.82,-28.88 659.25,-23.46"/>
</g>
<!-- Node16 -->
<g id="node16" class="node">
<title>Node16</title>
<g id="a_node16"><a xlink:title=" ">
<polygon fill="none" stroke="#bfbfbf" points="678,-0.5 678,-19.5 731,-19.5 731,-0.5 678,-0.5"/>
<text text-anchor="middle" x="704.5" y="-7.5" font-family="FreeSans.ttf" font-size="10.00">iterator</text>
</a>
</g>
</g>
<!-- Node12&#45;&gt;Node16 -->
<g id="edge16" class="edge">
<title>Node12&#45;&gt;Node16</title>
<path fill="none" stroke="midnightblue" d="M704.5,-56.08C704.5,-49.01 704.5,-38.86 704.5,-29.99"/>
<polygon fill="midnightblue" stroke="midnightblue" points="708,-29.75 704.5,-19.75 701,-29.75 708,-29.75"/>
</g>
<!-- Node17 -->
<g id="node17" class="node">
<title>Node17</title>
<g id="a_node17"><a xlink:title=" ">
<polygon fill="none" stroke="#bfbfbf" points="749.5,-0.5 749.5,-19.5 793.5,-19.5 793.5,-0.5 749.5,-0.5"/>
<text text-anchor="middle" x="771.5" y="-7.5" font-family="FreeSans.ttf" font-size="10.00">limits</text>
</a>
</g>
</g>
<!-- Node12&#45;&gt;Node17 -->
<g id="edge17" class="edge">
<title>Node12&#45;&gt;Node17</title>
<path fill="none" stroke="midnightblue" d="M715.26,-56.32C725.27,-48.26 740.39,-36.08 752.43,-26.37"/>
<polygon fill="midnightblue" stroke="midnightblue" points="754.95,-28.83 760.54,-19.83 750.56,-23.38 754.95,-28.83"/>
</g>
<!-- Node18 -->
<g id="node18" class="node">
<title>Node18</title>
<g id="a_node18"><a xlink:title=" ">
<polygon fill="none" stroke="#bfbfbf" points="812,-0.5 812,-19.5 877,-19.5 877,-0.5 812,-0.5"/>
<text text-anchor="middle" x="844.5" y="-7.5" font-family="FreeSans.ttf" font-size="10.00">stdexcept</text>
</a>
</g>
</g>
<!-- Node12&#45;&gt;Node18 -->
<g id="edge18" class="edge">
<title>Node12&#45;&gt;Node18</title>
<path fill="none" stroke="midnightblue" d="M726.68,-56.44C749.93,-47.48 786.65,-33.31 812.92,-23.18"/>
<polygon fill="midnightblue" stroke="midnightblue" points="814.35,-26.38 822.42,-19.52 811.83,-19.85 814.35,-26.38"/>
</g>
<!-- Node19 -->
<g id="node19" class="node">
<title>Node19</title>
<g id="a_node19"><a xlink:title=" ">
<polygon fill="none" stroke="#bfbfbf" points="895,-0.5 895,-19.5 964,-19.5 964,-0.5 895,-0.5"/>
<text text-anchor="middle" x="929.5" y="-7.5" font-family="FreeSans.ttf" font-size="10.00">type_traits</text>
</a>
</g>
</g>
<!-- Node12&#45;&gt;Node19 -->
<g id="edge19" class="edge">
<title>Node12&#45;&gt;Node19</title>
<path fill="none" stroke="midnightblue" d="M740.15,-56.44C779.39,-47.03 842.5,-31.88 884.96,-21.69"/>
<polygon fill="midnightblue" stroke="midnightblue" points="885.85,-25.08 894.75,-19.34 884.21,-18.27 885.85,-25.08"/>
</g>
<!-- Node20 -->
<g id="node20" class="node">
<title>Node20</title>
<g id="a_node20"><a xlink:title=" ">
<polygon fill="none" stroke="#bfbfbf" points="472,-0.5 472,-19.5 517,-19.5 517,-0.5 472,-0.5"/>
<text text-anchor="middle" x="494.5" y="-7.5" font-family="FreeSans.ttf" font-size="10.00">utility</text>
</a>
</g>
</g>
<!-- Node12&#45;&gt;Node20 -->
<g id="edge20" class="edge">
<title>Node12&#45;&gt;Node20</title>
<path fill="none" stroke="midnightblue" d="M669.64,-56.48C635.74,-48.12 582.54,-34.85 527.19,-20.13"/>
<polygon fill="midnightblue" stroke="midnightblue" points="527.77,-16.66 517.21,-17.47 525.96,-23.43 527.77,-16.66"/>
</g>
<!-- Node23&#45;&gt;Node3 -->
<g id="edge28" class="edge">
<title>Node23&#45;&gt;Node3</title>
<path fill="none" stroke="midnightblue" d="M499.95,-280.08C474.27,-253.27 397.57,-173.19 364.72,-138.89"/>
<polygon fill="midnightblue" stroke="midnightblue" points="367.15,-136.37 357.71,-131.57 362.1,-141.21 367.15,-136.37"/>
</g>
<!-- Node23&#45;&gt;Node8 -->
<g id="edge45" class="edge">
<title>Node23&#45;&gt;Node8</title>
<path fill="none" stroke="midnightblue" d="M577.68,-289.57C662.83,-288.62 800.15,-281.15 832.5,-244 838.34,-237.3 838.15,-230.86 832.5,-224 822.53,-211.89 741.07,-198.03 677.9,-188.94"/>
<polygon fill="midnightblue" stroke="midnightblue" points="678.32,-185.46 667.93,-187.52 677.33,-192.39 678.32,-185.46"/>
</g>
<!-- Node24 -->
<g id="node24" class="node">
<title>Node24</title>
<g id="a_node24"><a xlink:href="GeomVector3_8h.html" target="_top" xlink:title=" ">
<polygon fill="none" stroke="black" points="660,-224.5 660,-243.5 823,-243.5 823,-224.5 660,-224.5"/>
<text text-anchor="middle" x="741.5" y="-231.5" font-family="FreeSans.ttf" font-size="10.00">iDynTree/Core/GeomVector3.h</text>
</a>
</g>
</g>
<!-- Node23&#45;&gt;Node24 -->
<g id="edge29" class="edge">
<title>Node23&#45;&gt;Node24</title>
<path fill="none" stroke="midnightblue" d="M545.42,-280.44C585.9,-271.06 650.92,-255.99 694.88,-245.8"/>
<polygon fill="midnightblue" stroke="midnightblue" points="695.8,-249.18 704.75,-243.52 694.22,-242.36 695.8,-249.18"/>
</g>
<!-- Node25 -->
<g id="node25" class="node">
<title>Node25</title>
<g id="a_node25"><a xlink:href="RotationRaw_8h.html" target="_top" xlink:title=" ">
<polygon fill="none" stroke="black" points="483.5,-224.5 483.5,-243.5 641.5,-243.5 641.5,-224.5 483.5,-224.5"/>
<text text-anchor="middle" x="562.5" y="-231.5" font-family="FreeSans.ttf" font-size="10.00">iDynTree/Core/RotationRaw.h</text>
</a>
</g>
</g>
<!-- Node23&#45;&gt;Node25 -->
<g id="edge31" class="edge">
<title>Node23&#45;&gt;Node25</title>
<path fill="none" stroke="midnightblue" d="M517.42,-280.08C525.28,-272.22 536.93,-260.57 546.42,-251.08"/>
<polygon fill="midnightblue" stroke="midnightblue" points="549.15,-253.3 553.75,-243.75 544.2,-248.35 549.15,-253.3"/>
</g>
<!-- Node24&#45;&gt;Node8 -->
<g id="edge30" class="edge">
<title>Node24&#45;&gt;Node8</title>
<path fill="none" stroke="midnightblue" d="M719.48,-224.44C696.4,-215.48 659.94,-201.31 633.86,-191.18"/>
<polygon fill="midnightblue" stroke="midnightblue" points="635.01,-187.88 624.42,-187.52 632.48,-194.4 635.01,-187.88"/>
</g>
<!-- Node25&#45;&gt;Node3 -->
<g id="edge44" class="edge">
<title>Node25&#45;&gt;Node3</title>
<path fill="none" stroke="midnightblue" d="M552.18,-224.47C535.59,-211.07 501.58,-184.88 469.5,-168 440.95,-152.97 406.23,-140.53 381.5,-132.57"/>
<polygon fill="midnightblue" stroke="midnightblue" points="382.48,-129.21 371.89,-129.54 380.38,-135.88 382.48,-129.21"/>
</g>
<!-- Node25&#45;&gt;Node26 -->
<g id="edge32" class="edge">
<title>Node25&#45;&gt;Node26</title>
<path fill="none" stroke="midnightblue" d="M597.52,-224.44C635.75,-215.1 697.07,-200.12 738.76,-189.93"/>
<polygon fill="midnightblue" stroke="midnightblue" points="739.76,-193.29 748.65,-187.52 738.1,-186.49 739.76,-193.29"/>
</g>
<!-- Node26&#45;&gt;Node3 -->
<g id="edge41" class="edge">
<title>Node26&#45;&gt;Node3</title>
<path fill="none" stroke="midnightblue" d="M714.73,-168.44C619.7,-156.62 452.02,-135.76 381.83,-127.02"/>
<polygon fill="midnightblue" stroke="midnightblue" points="382.16,-123.54 371.81,-125.78 381.3,-130.48 382.16,-123.54"/>
</g>
<!-- Node26&#45;&gt;Node9 -->
<g id="edge33" class="edge">
<title>Node26&#45;&gt;Node9</title>
<path fill="none" stroke="midnightblue" d="M776.41,-168.32C764.39,-154.21 738.57,-126.43 710.5,-112 670.37,-91.36 620.89,-80.12 581.31,-74.03"/>
<polygon fill="midnightblue" stroke="midnightblue" points="581.61,-70.54 571.21,-72.56 580.6,-77.47 581.61,-70.54"/>
</g>
<!-- Node26&#45;&gt;Node13 -->
<g id="edge39" class="edge">
<title>Node26&#45;&gt;Node13</title>
<path fill="none" stroke="midnightblue" d="M865.04,-173.41C929.86,-168.65 1013.09,-157.59 1034.5,-132 1059.44,-102.19 1036.15,-54.09 1020.34,-28.44"/>
<polygon fill="midnightblue" stroke="midnightblue" points="1023.12,-26.3 1014.76,-19.79 1017.24,-30.09 1023.12,-26.3"/>
</g>
<!-- Node26&#45;&gt;Node21 -->
<g id="edge43" class="edge">
<title>Node26&#45;&gt;Node21</title>
<path fill="none" stroke="midnightblue" d="M765.83,-168.32C748.11,-159.62 720.6,-146.12 700.21,-136.11"/>
<polygon fill="midnightblue" stroke="midnightblue" points="701.65,-132.92 691.13,-131.65 698.56,-139.2 701.65,-132.92"/>
</g>
<!-- Node26&#45;&gt;Node22 -->
<g id="edge40" class="edge">
<title>Node26&#45;&gt;Node22</title>
<path fill="none" stroke="midnightblue" d="M754.82,-168.44C723.02,-158.96 671.72,-143.65 637.56,-133.46"/>
<polygon fill="midnightblue" stroke="midnightblue" points="638.13,-129.98 627.55,-130.47 636.13,-136.69 638.13,-129.98"/>
</g>
<!-- Node27 -->
<g id="node27" class="node">
<title>Node27</title>
<g id="a_node27"><a xlink:href="MatrixView_8h.html" target="_top" xlink:title=" ">
<polygon fill="none" stroke="black" points="757.5,-112.5 757.5,-131.5 909.5,-131.5 909.5,-112.5 757.5,-112.5"/>
<text text-anchor="middle" x="833.5" y="-119.5" font-family="FreeSans.ttf" font-size="10.00">iDynTree/Core/MatrixView.h</text>
</a>
</g>
</g>
<!-- Node26&#45;&gt;Node27 -->
<g id="edge34" class="edge">
<title>Node26&#45;&gt;Node27</title>
<path fill="none" stroke="midnightblue" d="M791.76,-168.08C798.96,-160.3 809.61,-148.8 818.35,-139.37"/>
<polygon fill="midnightblue" stroke="midnightblue" points="821.17,-141.47 825.4,-131.75 816.03,-136.71 821.17,-141.47"/>
</g>
<!-- Node28 -->
<g id="node28" class="node">
<title>Node28</title>
<g id="a_node28"><a xlink:title=" ">
<polygon fill="none" stroke="#bfbfbf" points="965.5,-112.5 965.5,-131.5 1025.5,-131.5 1025.5,-112.5 965.5,-112.5"/>
<text text-anchor="middle" x="995.5" y="-119.5" font-family="FreeSans.ttf" font-size="10.00">iostream</text>
</a>
</g>
</g>
<!-- Node26&#45;&gt;Node28 -->
<g id="edge42" class="edge">
<title>Node26&#45;&gt;Node28</title>
<path fill="none" stroke="midnightblue" d="M817.09,-168.44C854.68,-158.87 915.55,-143.36 955.55,-133.18"/>
<polygon fill="midnightblue" stroke="midnightblue" points="956.67,-136.5 965.49,-130.64 954.94,-129.72 956.67,-136.5"/>
</g>
<!-- Node27&#45;&gt;Node9 -->
<g id="edge38" class="edge">
<title>Node27&#45;&gt;Node9</title>
<path fill="none" stroke="midnightblue" d="M782.48,-112.44C725.48,-102.89 633.26,-87.42 572.5,-77.23"/>
<polygon fill="midnightblue" stroke="midnightblue" points="572.72,-73.72 562.28,-75.52 571.57,-80.62 572.72,-73.72"/>
</g>
<!-- Node27&#45;&gt;Node12 -->
<g id="edge37" class="edge">
<title>Node27&#45;&gt;Node12</title>
<path fill="none" stroke="midnightblue" d="M813.06,-112.44C791.83,-103.56 758.4,-89.56 734.25,-79.45"/>
<polygon fill="midnightblue" stroke="midnightblue" points="735.42,-76.15 724.84,-75.52 732.72,-82.61 735.42,-76.15"/>
</g>
<!-- Node27&#45;&gt;Node13 -->
<g id="edge35" class="edge">
<title>Node27&#45;&gt;Node13</title>
<path fill="none" stroke="midnightblue" d="M844.25,-112.49C860.79,-99.56 893.71,-74.52 923.5,-56 942.23,-44.36 964.26,-32.75 981.2,-24.24"/>
<polygon fill="midnightblue" stroke="midnightblue" points="983.12,-27.19 990.52,-19.61 980,-20.92 983.12,-27.19"/>
</g>
<!-- Node27&#45;&gt;Node19 -->
<g id="edge36" class="edge">
<title>Node27&#45;&gt;Node19</title>
<path fill="none" stroke="midnightblue" d="M837.26,-112.33C843.22,-99.19 855.81,-73.89 871.5,-56 881.81,-44.24 895.57,-33.42 907.09,-25.33"/>
<polygon fill="midnightblue" stroke="midnightblue" points="909.07,-28.22 915.38,-19.71 905.14,-22.43 909.07,-28.22"/>
</g>
<!-- Node29&#45;&gt;Node3 -->
<g id="edge52" class="edge">
<title>Node29&#45;&gt;Node3</title>
<path fill="none" stroke="midnightblue" d="M113.87,-168.44C170.59,-157.5 267.43,-138.83 317.47,-129.18"/>
<polygon fill="midnightblue" stroke="midnightblue" points="318.25,-132.59 327.4,-127.26 316.92,-125.72 318.25,-132.59"/>
</g>
<!-- Node29&#45;&gt;Node10 -->
<g id="edge51" class="edge">
<title>Node29&#45;&gt;Node10</title>
<path fill="none" stroke="midnightblue" d="M69.75,-168.3C70.58,-154.66 74.1,-128.14 88.5,-112 142.67,-51.28 239.31,-26.01 291.92,-16.36"/>
<polygon fill="midnightblue" stroke="midnightblue" points="292.58,-19.8 301.83,-14.64 291.38,-12.91 292.58,-19.8"/>
</g>
<!-- Node30 -->
<g id="node30" class="node">
<title>Node30</title>
<g id="a_node30"><a xlink:title=" ">
<polygon fill="none" stroke="#bfbfbf" points="98,-112.5 98,-131.5 185,-131.5 185,-112.5 98,-112.5"/>
<text text-anchor="middle" x="141.5" y="-119.5" font-family="FreeSans.ttf" font-size="10.00">ModelExport.h</text>
</a>
</g>
</g>
<!-- Node29&#45;&gt;Node30 -->
<g id="edge53" class="edge">
<title>Node29&#45;&gt;Node30</title>
<path fill="none" stroke="midnightblue" d="M81.07,-168.32C91.92,-160.18 108.38,-147.84 121.38,-138.09"/>
<polygon fill="midnightblue" stroke="midnightblue" points="123.82,-140.63 129.72,-131.83 119.62,-135.03 123.82,-140.63"/>
</g>
</g>
</svg>
