<?xml version="1.0" encoding="UTF-8" standalone="no"?>
<!DOCTYPE svg PUBLIC "-//W3C//DTD SVG 1.1//EN"
 "http://www.w3.org/Graphics/SVG/1.1/DTD/svg11.dtd">
<!-- Generated by graphviz version 2.43.0 (0)
 -->
<!-- Title: SpatialForceVector.h Pages: 1 -->
<svg width="939pt" height="476pt"
 viewBox="0.00 0.00 939.00 476.00" xmlns="http://www.w3.org/2000/svg" xmlns:xlink="http://www.w3.org/1999/xlink">
<g id="graph0" class="graph" transform="scale(1 1) rotate(0) translate(4 472)">
<title>SpatialForceVector.h</title>
<!-- Node1 -->
<g id="node1" class="node">
<title>Node1</title>
<g id="a_node1"><a xlink:title=" ">
<polygon fill="#bfbfbf" stroke="black" points="185,-448.5 185,-467.5 301,-467.5 301,-448.5 185,-448.5"/>
<text text-anchor="middle" x="243" y="-455.5" font-family="FreeSans.ttf" font-size="10.00">SpatialForceVector.h</text>
</a>
</g>
</g>
<!-- Node2 -->
<g id="node2" class="node">
<title>Node2</title>
<g id="a_node2"><a xlink:href="VectorFixSize_8h.html" target="_top" xlink:title=" ">
<polygon fill="none" stroke="black" points="231,-168.5 231,-187.5 393,-187.5 393,-168.5 231,-168.5"/>
<text text-anchor="middle" x="312" y="-175.5" font-family="FreeSans.ttf" font-size="10.00">iDynTree/Core/VectorFixSize.h</text>
</a>
</g>
</g>
<!-- Node1&#45;&gt;Node2 -->
<g id="edge1" class="edge">
<title>Node1&#45;&gt;Node2</title>
<path fill="none" stroke="midnightblue" d="M223.59,-448.46C192.01,-433.11 133,-397.64 133,-347 133,-347 133,-347 133,-289 133,-258.9 130.61,-245.17 152,-224 170.47,-205.72 195.74,-194.73 220.74,-188.17"/>
<polygon fill="midnightblue" stroke="midnightblue" points="221.76,-191.52 230.67,-185.78 220.13,-184.72 221.76,-191.52"/>
</g>
<!-- Node18 -->
<g id="node18" class="node">
<title>Node18</title>
<g id="a_node18"><a xlink:href="GeomVector3_8h.html" target="_top" xlink:title=" ">
<polygon fill="none" stroke="black" points="161.5,-224.5 161.5,-243.5 324.5,-243.5 324.5,-224.5 161.5,-224.5"/>
<text text-anchor="middle" x="243" y="-231.5" font-family="FreeSans.ttf" font-size="10.00">iDynTree/Core/GeomVector3.h</text>
</a>
</g>
</g>
<!-- Node1&#45;&gt;Node18 -->
<g id="edge20" class="edge">
<title>Node1&#45;&gt;Node18</title>
<path fill="none" stroke="midnightblue" d="M243,-448.3C243,-415.63 243,-299.87 243,-253.96"/>
<polygon fill="midnightblue" stroke="midnightblue" points="246.5,-253.88 243,-243.88 239.5,-253.88 246.5,-253.88"/>
</g>
<!-- Node19 -->
<g id="node19" class="node">
<title>Node19</title>
<g id="a_node19"><a xlink:href="SpatialVector_8h.html" target="_top" xlink:title=" ">
<polygon fill="none" stroke="black" points="310.5,-392.5 310.5,-411.5 471.5,-411.5 471.5,-392.5 310.5,-392.5"/>
<text text-anchor="middle" x="391" y="-399.5" font-family="FreeSans.ttf" font-size="10.00">iDynTree/Core/SpatialVector.h</text>
</a>
</g>
</g>
<!-- Node1&#45;&gt;Node19 -->
<g id="edge22" class="edge">
<title>Node1&#45;&gt;Node19</title>
<path fill="none" stroke="midnightblue" d="M266.45,-448.44C291.13,-439.44 330.19,-425.19 357.98,-415.05"/>
<polygon fill="midnightblue" stroke="midnightblue" points="359.46,-418.23 367.66,-411.52 357.06,-411.66 359.46,-418.23"/>
</g>
<!-- Node3 -->
<g id="node3" class="node">
<title>Node3</title>
<g id="a_node3"><a xlink:href="Utils_8h.html" target="_top" xlink:title=" ">
<polygon fill="none" stroke="black" points="91.5,-56.5 91.5,-75.5 210.5,-75.5 210.5,-56.5 91.5,-56.5"/>
<text text-anchor="middle" x="151" y="-63.5" font-family="FreeSans.ttf" font-size="10.00">iDynTree/Core/Utils.h</text>
</a>
</g>
</g>
<!-- Node2&#45;&gt;Node3 -->
<g id="edge2" class="edge">
<title>Node2&#45;&gt;Node3</title>
<path fill="none" stroke="midnightblue" d="M299.37,-168.37C271.74,-149.49 205.72,-104.38 171.84,-81.24"/>
<polygon fill="midnightblue" stroke="midnightblue" points="173.81,-78.34 163.57,-75.59 169.86,-84.12 173.81,-78.34"/>
</g>
<!-- Node4 -->
<g id="node4" class="node">
<title>Node4</title>
<g id="a_node4"><a xlink:title=" ">
<polygon fill="none" stroke="#bfbfbf" points="98.5,-0.5 98.5,-19.5 151.5,-19.5 151.5,-0.5 98.5,-0.5"/>
<text text-anchor="middle" x="125" y="-7.5" font-family="FreeSans.ttf" font-size="10.00">cstddef</text>
</a>
</g>
</g>
<!-- Node2&#45;&gt;Node4 -->
<g id="edge18" class="edge">
<title>Node2&#45;&gt;Node4</title>
<path fill="none" stroke="midnightblue" d="M249.05,-168.46C194.49,-157.36 118.72,-132.23 82,-76 70.72,-58.73 88.12,-38.98 104.04,-25.83"/>
<polygon fill="midnightblue" stroke="midnightblue" points="106.32,-28.49 112.08,-19.6 102.03,-22.96 106.32,-28.49"/>
</g>
<!-- Node6 -->
<g id="node6" class="node">
<title>Node6</title>
<g id="a_node6"><a xlink:href="Span_8h.html" target="_top" xlink:title=" ">
<polygon fill="none" stroke="black" points="312.5,-56.5 312.5,-75.5 433.5,-75.5 433.5,-56.5 312.5,-56.5"/>
<text text-anchor="middle" x="373" y="-63.5" font-family="FreeSans.ttf" font-size="10.00">iDynTree/Core/Span.h</text>
</a>
</g>
</g>
<!-- Node2&#45;&gt;Node6 -->
<g id="edge5" class="edge">
<title>Node2&#45;&gt;Node6</title>
<path fill="none" stroke="midnightblue" d="M316.79,-168.37C326.76,-150.38 349.96,-108.55 363.23,-84.63"/>
<polygon fill="midnightblue" stroke="midnightblue" points="366.45,-86.03 368.24,-75.59 360.33,-82.64 366.45,-86.03"/>
</g>
<!-- Node7 -->
<g id="node7" class="node">
<title>Node7</title>
<g id="a_node7"><a xlink:title=" ">
<polygon fill="none" stroke="#bfbfbf" points="683,-0.5 683,-19.5 735,-19.5 735,-0.5 683,-0.5"/>
<text text-anchor="middle" x="709" y="-7.5" font-family="FreeSans.ttf" font-size="10.00">cassert</text>
</a>
</g>
</g>
<!-- Node2&#45;&gt;Node7 -->
<g id="edge17" class="edge">
<title>Node2&#45;&gt;Node7</title>
<path fill="none" stroke="midnightblue" d="M323.15,-168.42C341.06,-154.94 377.73,-128.64 412,-112 501.93,-68.32 615.61,-35.35 672.73,-20.19"/>
<polygon fill="midnightblue" stroke="midnightblue" points="673.94,-23.49 682.72,-17.57 672.16,-16.72 673.94,-23.49"/>
</g>
<!-- Node15 -->
<g id="node15" class="node">
<title>Node15</title>
<g id="a_node15"><a xlink:title=" ">
<polygon fill="none" stroke="#bfbfbf" points="421,-112.5 421,-131.5 465,-131.5 465,-112.5 421,-112.5"/>
<text text-anchor="middle" x="443" y="-119.5" font-family="FreeSans.ttf" font-size="10.00">string</text>
</a>
</g>
</g>
<!-- Node2&#45;&gt;Node15 -->
<g id="edge15" class="edge">
<title>Node2&#45;&gt;Node15</title>
<path fill="none" stroke="midnightblue" d="M332.76,-168.44C354.32,-159.56 388.26,-145.56 412.79,-135.45"/>
<polygon fill="midnightblue" stroke="midnightblue" points="414.43,-138.56 422.34,-131.52 411.76,-132.09 414.43,-138.56"/>
</g>
<!-- Node16 -->
<g id="node16" class="node">
<title>Node16</title>
<g id="a_node16"><a xlink:title=" ">
<polygon fill="none" stroke="#bfbfbf" points="483,-112.5 483,-131.5 539,-131.5 539,-112.5 483,-112.5"/>
<text text-anchor="middle" x="511" y="-119.5" font-family="FreeSans.ttf" font-size="10.00">sstream</text>
</a>
</g>
</g>
<!-- Node2&#45;&gt;Node16 -->
<g id="edge16" class="edge">
<title>Node2&#45;&gt;Node16</title>
<path fill="none" stroke="midnightblue" d="M343.53,-168.44C378.59,-158.93 435.22,-143.56 472.78,-133.37"/>
<polygon fill="midnightblue" stroke="midnightblue" points="474.1,-136.64 482.83,-130.64 472.27,-129.88 474.1,-136.64"/>
</g>
<!-- Node17 -->
<g id="node17" class="node">
<title>Node17</title>
<g id="a_node17"><a xlink:title=" ">
<polygon fill="none" stroke="#bfbfbf" points="557,-112.5 557,-131.5 607,-131.5 607,-112.5 557,-112.5"/>
<text text-anchor="middle" x="582" y="-119.5" font-family="FreeSans.ttf" font-size="10.00">cstring</text>
</a>
</g>
</g>
<!-- Node2&#45;&gt;Node17 -->
<g id="edge19" class="edge">
<title>Node2&#45;&gt;Node17</title>
<path fill="none" stroke="midnightblue" d="M362.39,-168.45C408.17,-160.45 477.75,-147.69 547.03,-132.1"/>
<polygon fill="midnightblue" stroke="midnightblue" points="547.82,-135.51 556.8,-129.88 546.27,-128.68 547.82,-135.51"/>
</g>
<!-- Node3&#45;&gt;Node4 -->
<g id="edge3" class="edge">
<title>Node3&#45;&gt;Node4</title>
<path fill="none" stroke="midnightblue" d="M146.71,-56.08C143.15,-48.69 137.98,-37.95 133.58,-28.81"/>
<polygon fill="midnightblue" stroke="midnightblue" points="136.71,-27.24 129.21,-19.75 130.4,-30.28 136.71,-27.24"/>
</g>
<!-- Node5 -->
<g id="node5" class="node">
<title>Node5</title>
<g id="a_node5"><a xlink:title=" ">
<polygon fill="none" stroke="#bfbfbf" points="0,-0.5 0,-19.5 80,-19.5 80,-0.5 0,-0.5"/>
<text text-anchor="middle" x="40" y="-7.5" font-family="FreeSans.ttf" font-size="10.00">CoreExport.h</text>
</a>
</g>
</g>
<!-- Node3&#45;&gt;Node5 -->
<g id="edge4" class="edge">
<title>Node3&#45;&gt;Node5</title>
<path fill="none" stroke="midnightblue" d="M133.17,-56.32C115.28,-47.62 87.52,-34.12 66.95,-24.11"/>
<polygon fill="midnightblue" stroke="midnightblue" points="68.31,-20.88 57.79,-19.65 65.25,-27.18 68.31,-20.88"/>
</g>
<!-- Node6&#45;&gt;Node4 -->
<g id="edge9" class="edge">
<title>Node6&#45;&gt;Node4</title>
<path fill="none" stroke="midnightblue" d="M330.04,-56.5C289.04,-48.25 225.3,-35.1 161.54,-20.29"/>
<polygon fill="midnightblue" stroke="midnightblue" points="162.26,-16.87 151.72,-18 160.66,-23.68 162.26,-16.87"/>
</g>
<!-- Node6&#45;&gt;Node7 -->
<g id="edge6" class="edge">
<title>Node6&#45;&gt;Node7</title>
<path fill="none" stroke="midnightblue" d="M433.75,-57.32C494.15,-49.34 589.32,-35.81 671,-20 671.6,-19.88 672.21,-19.76 672.82,-19.64"/>
<polygon fill="midnightblue" stroke="midnightblue" points="673.85,-23 682.9,-17.48 672.38,-16.16 673.85,-23"/>
</g>
<!-- Node8 -->
<g id="node8" class="node">
<title>Node8</title>
<g id="a_node8"><a xlink:title=" ">
<polygon fill="none" stroke="#bfbfbf" points="450,-0.5 450,-19.5 514,-19.5 514,-0.5 450,-0.5"/>
<text text-anchor="middle" x="482" y="-7.5" font-family="FreeSans.ttf" font-size="10.00">algorithm</text>
</a>
</g>
</g>
<!-- Node6&#45;&gt;Node8 -->
<g id="edge7" class="edge">
<title>Node6&#45;&gt;Node8</title>
<path fill="none" stroke="midnightblue" d="M390.51,-56.32C408.07,-47.62 435.33,-34.12 455.53,-24.11"/>
<polygon fill="midnightblue" stroke="midnightblue" points="457.12,-27.23 464.53,-19.65 454.02,-20.96 457.12,-27.23"/>
</g>
<!-- Node9 -->
<g id="node9" class="node">
<title>Node9</title>
<g id="a_node9"><a xlink:title=" ">
<polygon fill="none" stroke="#bfbfbf" points="532,-0.5 532,-19.5 574,-19.5 574,-0.5 532,-0.5"/>
<text text-anchor="middle" x="553" y="-7.5" font-family="FreeSans.ttf" font-size="10.00">array</text>
</a>
</g>
</g>
<!-- Node6&#45;&gt;Node9 -->
<g id="edge8" class="edge">
<title>Node6&#45;&gt;Node9</title>
<path fill="none" stroke="midnightblue" d="M401.52,-56.44C434.4,-46.58 488.25,-30.42 522.11,-20.27"/>
<polygon fill="midnightblue" stroke="midnightblue" points="523.35,-23.55 531.92,-17.32 521.34,-16.84 523.35,-23.55"/>
</g>
<!-- Node10 -->
<g id="node10" class="node">
<title>Node10</title>
<g id="a_node10"><a xlink:title=" ">
<polygon fill="none" stroke="#bfbfbf" points="169.5,-0.5 169.5,-19.5 222.5,-19.5 222.5,-0.5 169.5,-0.5"/>
<text text-anchor="middle" x="196" y="-7.5" font-family="FreeSans.ttf" font-size="10.00">iterator</text>
</a>
</g>
</g>
<!-- Node6&#45;&gt;Node10 -->
<g id="edge10" class="edge">
<title>Node6&#45;&gt;Node10</title>
<path fill="none" stroke="midnightblue" d="M344.95,-56.44C314.56,-47.17 265.96,-32.34 232.59,-22.16"/>
<polygon fill="midnightblue" stroke="midnightblue" points="233.34,-18.73 222.76,-19.16 231.3,-25.43 233.34,-18.73"/>
</g>
<!-- Node11 -->
<g id="node11" class="node">
<title>Node11</title>
<g id="a_node11"><a xlink:title=" ">
<polygon fill="none" stroke="#bfbfbf" points="241,-0.5 241,-19.5 285,-19.5 285,-0.5 241,-0.5"/>
<text text-anchor="middle" x="263" y="-7.5" font-family="FreeSans.ttf" font-size="10.00">limits</text>
</a>
</g>
</g>
<!-- Node6&#45;&gt;Node11 -->
<g id="edge11" class="edge">
<title>Node6&#45;&gt;Node11</title>
<path fill="none" stroke="midnightblue" d="M355.33,-56.32C337.61,-47.62 310.1,-34.12 289.71,-24.11"/>
<polygon fill="midnightblue" stroke="midnightblue" points="291.15,-20.92 280.63,-19.65 288.06,-27.2 291.15,-20.92"/>
</g>
<!-- Node12 -->
<g id="node12" class="node">
<title>Node12</title>
<g id="a_node12"><a xlink:title=" ">
<polygon fill="none" stroke="#bfbfbf" points="303.5,-0.5 303.5,-19.5 368.5,-19.5 368.5,-0.5 303.5,-0.5"/>
<text text-anchor="middle" x="336" y="-7.5" font-family="FreeSans.ttf" font-size="10.00">stdexcept</text>
</a>
</g>
</g>
<!-- Node6&#45;&gt;Node12 -->
<g id="edge12" class="edge">
<title>Node6&#45;&gt;Node12</title>
<path fill="none" stroke="midnightblue" d="M366.89,-56.08C361.72,-48.53 354.15,-37.49 347.81,-28.23"/>
<polygon fill="midnightblue" stroke="midnightblue" points="350.54,-26.02 342,-19.75 344.76,-29.98 350.54,-26.02"/>
</g>
<!-- Node13 -->
<g id="node13" class="node">
<title>Node13</title>
<g id="a_node13"><a xlink:title=" ">
<polygon fill="none" stroke="#bfbfbf" points="592.5,-0.5 592.5,-19.5 661.5,-19.5 661.5,-0.5 592.5,-0.5"/>
<text text-anchor="middle" x="627" y="-7.5" font-family="FreeSans.ttf" font-size="10.00">type_traits</text>
</a>
</g>
</g>
<!-- Node6&#45;&gt;Node13 -->
<g id="edge13" class="edge">
<title>Node6&#45;&gt;Node13</title>
<path fill="none" stroke="midnightblue" d="M413.25,-56.44C459.25,-46.66 534.35,-30.7 582.18,-20.53"/>
<polygon fill="midnightblue" stroke="midnightblue" points="583.19,-23.89 592.25,-18.39 581.74,-17.04 583.19,-23.89"/>
</g>
<!-- Node14 -->
<g id="node14" class="node">
<title>Node14</title>
<g id="a_node14"><a xlink:title=" ">
<polygon fill="none" stroke="#bfbfbf" points="386.5,-0.5 386.5,-19.5 431.5,-19.5 431.5,-0.5 386.5,-0.5"/>
<text text-anchor="middle" x="409" y="-7.5" font-family="FreeSans.ttf" font-size="10.00">utility</text>
</a>
</g>
</g>
<!-- Node6&#45;&gt;Node14 -->
<g id="edge14" class="edge">
<title>Node6&#45;&gt;Node14</title>
<path fill="none" stroke="midnightblue" d="M378.94,-56.08C383.98,-48.53 391.34,-37.49 397.51,-28.23"/>
<polygon fill="midnightblue" stroke="midnightblue" points="400.53,-30.01 403.17,-19.75 394.71,-26.13 400.53,-30.01"/>
</g>
<!-- Node18&#45;&gt;Node2 -->
<g id="edge21" class="edge">
<title>Node18&#45;&gt;Node2</title>
<path fill="none" stroke="midnightblue" d="M254.09,-224.32C264.49,-216.18 280.26,-203.84 292.72,-194.09"/>
<polygon fill="midnightblue" stroke="midnightblue" points="294.99,-196.75 300.71,-187.83 290.68,-191.24 294.99,-196.75"/>
</g>
<!-- Node19&#45;&gt;Node3 -->
<g id="edge47" class="edge">
<title>Node19&#45;&gt;Node3</title>
<path fill="none" stroke="midnightblue" d="M337.74,-392.44C252.52,-377.23 95,-342.19 95,-291 95,-291 95,-291 95,-177 95,-140.44 119.88,-103.75 136.47,-83.34"/>
<polygon fill="midnightblue" stroke="midnightblue" points="139.2,-85.54 142.98,-75.64 133.85,-81.02 139.2,-85.54"/>
</g>
<!-- Node19&#45;&gt;Node16 -->
<g id="edge50" class="edge">
<title>Node19&#45;&gt;Node16</title>
<path fill="none" stroke="midnightblue" d="M471.91,-397.07C569.6,-387.38 729.32,-354.47 798,-244 802.69,-236.45 803.08,-231.3 798,-224 771.74,-186.25 743.96,-204.39 701,-188 678.25,-179.32 672.93,-176.2 650,-168 616.07,-155.87 577,-143.34 548.93,-134.6"/>
<polygon fill="midnightblue" stroke="midnightblue" points="549.71,-131.18 539.12,-131.56 547.64,-137.86 549.71,-131.18"/>
</g>
<!-- Node19&#45;&gt;Node18 -->
<g id="edge48" class="edge">
<title>Node19&#45;&gt;Node18</title>
<path fill="none" stroke="midnightblue" d="M383.04,-392.08C359.24,-365.38 288.35,-285.87 257.55,-251.32"/>
<polygon fill="midnightblue" stroke="midnightblue" points="259.91,-248.7 250.64,-243.57 254.68,-253.36 259.91,-248.7"/>
</g>
<!-- Node20 -->
<g id="node20" class="node">
<title>Node20</title>
<g id="a_node20"><a xlink:href="Position_8h.html" target="_top" xlink:title=" ">
<polygon fill="none" stroke="black" points="496.5,-336.5 496.5,-355.5 561.5,-355.5 561.5,-336.5 496.5,-336.5"/>
<text text-anchor="middle" x="529" y="-343.5" font-family="FreeSans.ttf" font-size="10.00">Position.h</text>
</a>
</g>
</g>
<!-- Node19&#45;&gt;Node20 -->
<g id="edge23" class="edge">
<title>Node19&#45;&gt;Node20</title>
<path fill="none" stroke="midnightblue" d="M412.87,-392.44C435.78,-383.48 471.98,-369.31 497.87,-359.18"/>
<polygon fill="midnightblue" stroke="midnightblue" points="499.2,-362.42 507.24,-355.52 496.65,-355.9 499.2,-362.42"/>
</g>
<!-- Node22 -->
<g id="node22" class="node">
<title>Node22</title>
<g id="a_node22"><a xlink:href="Rotation_8h.html" target="_top" xlink:title=" ">
<polygon fill="none" stroke="black" points="322,-280.5 322,-299.5 460,-299.5 460,-280.5 322,-280.5"/>
<text text-anchor="middle" x="391" y="-287.5" font-family="FreeSans.ttf" font-size="10.00">iDynTree/Core/Rotation.h</text>
</a>
</g>
</g>
<!-- Node19&#45;&gt;Node22 -->
<g id="edge46" class="edge">
<title>Node19&#45;&gt;Node22</title>
<path fill="none" stroke="midnightblue" d="M391,-392.37C391,-374.62 391,-333.67 391,-309.6"/>
<polygon fill="midnightblue" stroke="midnightblue" points="394.5,-309.59 391,-299.59 387.5,-309.59 394.5,-309.59"/>
</g>
<!-- Node26 -->
<g id="node26" class="node">
<title>Node26</title>
<g id="a_node26"><a xlink:title=" ">
<polygon fill="none" stroke="#bfbfbf" points="871,-112.5 871,-131.5 931,-131.5 931,-112.5 871,-112.5"/>
<text text-anchor="middle" x="901" y="-119.5" font-family="FreeSans.ttf" font-size="10.00">iostream</text>
</a>
</g>
</g>
<!-- Node19&#45;&gt;Node26 -->
<g id="edge49" class="edge">
<title>Node19&#45;&gt;Node26</title>
<path fill="none" stroke="midnightblue" d="M471.53,-400.09C615.24,-396.28 901,-377.78 901,-291 901,-291 901,-291 901,-233 901,-200.95 901,-163.64 901,-141.75"/>
<polygon fill="midnightblue" stroke="midnightblue" points="904.5,-141.56 901,-131.56 897.5,-141.56 904.5,-141.56"/>
</g>
<!-- Node20&#45;&gt;Node15 -->
<g id="edge45" class="edge">
<title>Node20&#45;&gt;Node15</title>
<path fill="none" stroke="midnightblue" d="M538.74,-336.38C560.09,-316.4 607.47,-265.44 586,-224 562.72,-179.05 509.2,-149.84 474.64,-134.91"/>
<polygon fill="midnightblue" stroke="midnightblue" points="475.59,-131.51 465.01,-130.91 472.9,-137.98 475.59,-131.51"/>
</g>
<!-- Node21 -->
<g id="node21" class="node">
<title>Node21</title>
<g id="a_node21"><a xlink:href="PositionRaw_8h.html" target="_top" xlink:title=" ">
<polygon fill="none" stroke="black" points="633,-224.5 633,-243.5 789,-243.5 789,-224.5 633,-224.5"/>
<text text-anchor="middle" x="711" y="-231.5" font-family="FreeSans.ttf" font-size="10.00">iDynTree/Core/PositionRaw.h</text>
</a>
</g>
</g>
<!-- Node20&#45;&gt;Node21 -->
<g id="edge24" class="edge">
<title>Node20&#45;&gt;Node21</title>
<path fill="none" stroke="midnightblue" d="M548.06,-336.5C566.58,-327.99 595.32,-314.18 619,-300 645.25,-284.29 673.76,-263.51 691.98,-249.73"/>
<polygon fill="midnightblue" stroke="midnightblue" points="694.21,-252.42 700.04,-243.57 689.97,-246.86 694.21,-252.42"/>
</g>
<!-- Node20&#45;&gt;Node22 -->
<g id="edge27" class="edge">
<title>Node20&#45;&gt;Node22</title>
<path fill="none" stroke="midnightblue" d="M507.13,-336.44C484.22,-327.48 448.02,-313.31 422.13,-303.18"/>
<polygon fill="midnightblue" stroke="midnightblue" points="423.35,-299.9 412.76,-299.52 420.8,-306.42 423.35,-299.9"/>
</g>
<!-- Node21&#45;&gt;Node2 -->
<g id="edge25" class="edge">
<title>Node21&#45;&gt;Node2</title>
<path fill="none" stroke="midnightblue" d="M647.78,-224.44C576.42,-214.79 460.51,-199.1 385.27,-188.92"/>
<polygon fill="midnightblue" stroke="midnightblue" points="385.31,-185.39 374.93,-187.52 384.37,-192.33 385.31,-185.39"/>
</g>
<!-- Node21&#45;&gt;Node15 -->
<g id="edge26" class="edge">
<title>Node21&#45;&gt;Node15</title>
<path fill="none" stroke="midnightblue" d="M701.54,-224.47C685.65,-210.59 652.08,-183.14 619,-168 561.45,-141.66 540.13,-148.51 475.22,-132.18"/>
<polygon fill="midnightblue" stroke="midnightblue" points="475.88,-128.73 465.32,-129.59 474.11,-135.51 475.88,-128.73"/>
</g>
<!-- Node22&#45;&gt;Node2 -->
<g id="edge44" class="edge">
<title>Node22&#45;&gt;Node2</title>
<path fill="none" stroke="midnightblue" d="M384.8,-280.37C371.76,-262.22 341.3,-219.8 324.2,-195.99"/>
<polygon fill="midnightblue" stroke="midnightblue" points="326.85,-193.67 318.17,-187.59 321.16,-197.76 326.85,-193.67"/>
</g>
<!-- Node22&#45;&gt;Node15 -->
<g id="edge28" class="edge">
<title>Node22&#45;&gt;Node15</title>
<path fill="none" stroke="midnightblue" d="M393.49,-280.14C397.04,-267.61 403.81,-243.99 410,-224 418.97,-195.01 430.04,-161.56 436.81,-141.36"/>
<polygon fill="midnightblue" stroke="midnightblue" points="440.22,-142.21 440.08,-131.62 433.58,-139.98 440.22,-142.21"/>
</g>
<!-- Node22&#45;&gt;Node18 -->
<g id="edge29" class="edge">
<title>Node22&#45;&gt;Node18</title>
<path fill="none" stroke="midnightblue" d="M367.55,-280.44C342.87,-271.44 303.81,-257.19 276.02,-247.05"/>
<polygon fill="midnightblue" stroke="midnightblue" points="276.94,-243.66 266.34,-243.52 274.54,-250.23 276.94,-243.66"/>
</g>
<!-- Node23 -->
<g id="node23" class="node">
<title>Node23</title>
<g id="a_node23"><a xlink:href="RotationRaw_8h.html" target="_top" xlink:title=" ">
<polygon fill="none" stroke="black" points="419,-224.5 419,-243.5 577,-243.5 577,-224.5 419,-224.5"/>
<text text-anchor="middle" x="498" y="-231.5" font-family="FreeSans.ttf" font-size="10.00">iDynTree/Core/RotationRaw.h</text>
</a>
</g>
</g>
<!-- Node22&#45;&gt;Node23 -->
<g id="edge30" class="edge">
<title>Node22&#45;&gt;Node23</title>
<path fill="none" stroke="midnightblue" d="M408.19,-280.32C425.35,-271.66 451.95,-258.24 471.75,-248.25"/>
<polygon fill="midnightblue" stroke="midnightblue" points="473.5,-251.28 480.85,-243.65 470.35,-245.04 473.5,-251.28"/>
</g>
<!-- Node23&#45;&gt;Node15 -->
<g id="edge43" class="edge">
<title>Node23&#45;&gt;Node15</title>
<path fill="none" stroke="midnightblue" d="M493.68,-224.37C484.69,-206.38 463.78,-164.55 451.81,-140.63"/>
<polygon fill="midnightblue" stroke="midnightblue" points="454.9,-138.97 447.3,-131.59 448.64,-142.1 454.9,-138.97"/>
</g>
<!-- Node24 -->
<g id="node24" class="node">
<title>Node24</title>
<g id="a_node24"><a xlink:href="MatrixFixSize_8h.html" target="_top" xlink:title=" ">
<polygon fill="none" stroke="black" points="709.5,-168.5 709.5,-187.5 872.5,-187.5 872.5,-168.5 709.5,-168.5"/>
<text text-anchor="middle" x="791" y="-175.5" font-family="FreeSans.ttf" font-size="10.00">iDynTree/Core/MatrixFixSize.h</text>
</a>
</g>
</g>
<!-- Node23&#45;&gt;Node24 -->
<g id="edge31" class="edge">
<title>Node23&#45;&gt;Node24</title>
<path fill="none" stroke="midnightblue" d="M544.43,-224.44C596.08,-214.92 679.51,-199.55 734.81,-189.36"/>
<polygon fill="midnightblue" stroke="midnightblue" points="735.59,-192.77 744.79,-187.52 734.32,-185.89 735.59,-192.77"/>
</g>
<!-- Node24&#45;&gt;Node3 -->
<g id="edge32" class="edge">
<title>Node24&#45;&gt;Node3</title>
<path fill="none" stroke="midnightblue" d="M759.99,-168.43C731.86,-160.27 689.5,-147.05 654,-132 636.43,-124.55 634.29,-117.47 616,-112 579.14,-100.98 341.53,-81.58 220.96,-72.27"/>
<polygon fill="midnightblue" stroke="midnightblue" points="220.96,-68.76 210.72,-71.48 220.42,-75.74 220.96,-68.76"/>
</g>
<!-- Node24&#45;&gt;Node7 -->
<g id="edge38" class="edge">
<title>Node24&#45;&gt;Node7</title>
<path fill="none" stroke="midnightblue" d="M800.91,-168.29C813.71,-155.93 833.29,-132.52 824,-112 805.79,-71.76 762.75,-41.2 734.8,-24.71"/>
<polygon fill="midnightblue" stroke="midnightblue" points="736.37,-21.58 725.95,-19.66 732.9,-27.66 736.37,-21.58"/>
</g>
<!-- Node24&#45;&gt;Node15 -->
<g id="edge40" class="edge">
<title>Node24&#45;&gt;Node15</title>
<path fill="none" stroke="midnightblue" d="M709.33,-168.63C647.36,-161.53 559.98,-149.93 475.06,-131.97"/>
<polygon fill="midnightblue" stroke="midnightblue" points="475.77,-128.55 465.25,-129.87 474.3,-135.39 475.77,-128.55"/>
</g>
<!-- Node24&#45;&gt;Node16 -->
<g id="edge42" class="edge">
<title>Node24&#45;&gt;Node16</title>
<path fill="none" stroke="midnightblue" d="M740.11,-168.42C693.04,-160.3 620.92,-147.37 549.34,-132.2"/>
<polygon fill="midnightblue" stroke="midnightblue" points="549.76,-128.71 539.24,-130.04 548.29,-135.55 549.76,-128.71"/>
</g>
<!-- Node24&#45;&gt;Node17 -->
<g id="edge39" class="edge">
<title>Node24&#45;&gt;Node17</title>
<path fill="none" stroke="midnightblue" d="M757.88,-168.44C719.42,-158.51 656.25,-142.18 617,-132.04"/>
<polygon fill="midnightblue" stroke="midnightblue" points="617.65,-128.6 607.09,-129.48 615.9,-135.37 617.65,-128.6"/>
</g>
<!-- Node25 -->
<g id="node25" class="node">
<title>Node25</title>
<g id="a_node25"><a xlink:href="MatrixView_8h.html" target="_top" xlink:title=" ">
<polygon fill="none" stroke="black" points="663,-112.5 663,-131.5 815,-131.5 815,-112.5 663,-112.5"/>
<text text-anchor="middle" x="739" y="-119.5" font-family="FreeSans.ttf" font-size="10.00">iDynTree/Core/MatrixView.h</text>
</a>
</g>
</g>
<!-- Node24&#45;&gt;Node25 -->
<g id="edge33" class="edge">
<title>Node24&#45;&gt;Node25</title>
<path fill="none" stroke="midnightblue" d="M782.41,-168.08C774.84,-160.22 763.62,-148.57 754.49,-139.08"/>
<polygon fill="midnightblue" stroke="midnightblue" points="756.88,-136.53 747.43,-131.75 751.84,-141.38 756.88,-136.53"/>
</g>
<!-- Node24&#45;&gt;Node26 -->
<g id="edge41" class="edge">
<title>Node24&#45;&gt;Node26</title>
<path fill="none" stroke="midnightblue" d="M808.67,-168.32C826.39,-159.62 853.9,-146.12 874.29,-136.11"/>
<polygon fill="midnightblue" stroke="midnightblue" points="875.94,-139.2 883.37,-131.65 872.85,-132.92 875.94,-139.2"/>
</g>
<!-- Node25&#45;&gt;Node3 -->
<g id="edge37" class="edge">
<title>Node25&#45;&gt;Node3</title>
<path fill="none" stroke="midnightblue" d="M662.9,-113.34C658.19,-112.88 653.53,-112.43 649,-112 496.41,-97.48 317.41,-81.58 221.01,-73.11"/>
<polygon fill="midnightblue" stroke="midnightblue" points="221.08,-69.61 210.81,-72.22 220.47,-76.58 221.08,-69.61"/>
</g>
<!-- Node25&#45;&gt;Node6 -->
<g id="edge36" class="edge">
<title>Node25&#45;&gt;Node6</title>
<path fill="none" stroke="midnightblue" d="M681.01,-112.44C615.69,-102.81 509.66,-87.16 440.63,-76.98"/>
<polygon fill="midnightblue" stroke="midnightblue" points="441.13,-73.51 430.72,-75.52 440.1,-80.44 441.13,-73.51"/>
</g>
<!-- Node25&#45;&gt;Node7 -->
<g id="edge34" class="edge">
<title>Node25&#45;&gt;Node7</title>
<path fill="none" stroke="midnightblue" d="M736.65,-112.37C731.78,-94.54 720.54,-53.3 713.98,-29.27"/>
<polygon fill="midnightblue" stroke="midnightblue" points="717.35,-28.32 711.34,-19.59 710.6,-30.16 717.35,-28.32"/>
</g>
<!-- Node25&#45;&gt;Node13 -->
<g id="edge35" class="edge">
<title>Node25&#45;&gt;Node13</title>
<path fill="none" stroke="midnightblue" d="M730.21,-112.37C711.4,-93.89 667.01,-50.29 643.03,-26.74"/>
<polygon fill="midnightblue" stroke="midnightblue" points="645.33,-24.1 635.75,-19.59 640.43,-29.1 645.33,-24.1"/>
</g>
</g>
</svg>
