<?xml version="1.0" encoding="UTF-8" standalone="no"?>
<!DOCTYPE svg PUBLIC "-//W3C//DTD SVG 1.1//EN"
 "http://www.w3.org/Graphics/SVG/1.1/DTD/svg11.dtd">
<!-- Generated by graphviz version 2.43.0 (0)
 -->
<!-- Title: SpatialMomentum.h Pages: 1 -->
<svg width="4364pt" height="341pt"
 viewBox="0.00 0.00 4364.49 341.00" xmlns="http://www.w3.org/2000/svg" xmlns:xlink="http://www.w3.org/1999/xlink">
<g id="graph0" class="graph" transform="scale(1 1) rotate(0) translate(4 337)">
<title>SpatialMomentum.h</title>
<!-- Node1 -->
<g id="node1" class="node">
<title>Node1</title>
<g id="a_node1"><a xlink:title=" ">
<polygon fill="#bfbfbf" stroke="black" points="3853.49,-313.5 3853.49,-332.5 3969.49,-332.5 3969.49,-313.5 3853.49,-313.5"/>
<text text-anchor="middle" x="3911.49" y="-320.5" font-family="FreeSans.ttf" font-size="10.00">SpatialMomentum.h</text>
</a>
</g>
</g>
<!-- Node2 -->
<g id="node2" class="node">
<title>Node2</title>
<g id="a_node2"><a xlink:href="SpatialInertia_8h.html" target="_top" xlink:title=" ">
<polygon fill="none" stroke="black" points="1808.99,-257.5 1808.99,-276.5 1899.99,-276.5 1899.99,-257.5 1808.99,-257.5"/>
<text text-anchor="middle" x="1854.49" y="-264.5" font-family="FreeSans.ttf" font-size="10.00">SpatialInertia.h</text>
</a>
</g>
</g>
<!-- Node1&#45;&gt;Node2 -->
<g id="edge1" class="edge">
<title>Node1&#45;&gt;Node2</title>
<path fill="none" stroke="midnightblue" d="M3843.15,-320.21C3521.95,-311.77 2166.91,-276.2 1900.18,-269.2"/>
<polygon fill="midnightblue" stroke="midnightblue" points="3843.15,-323.71 3853.24,-320.47 3843.34,-316.71 3843.15,-323.71"/>
</g>
<!-- Node5 -->
<g id="node5" class="node">
<title>Node5</title>
<g id="a_node5"><a xlink:href="SpatialInertia_8cpp.html" target="_top" xlink:title=" ">
<polygon fill="none" stroke="black" points="1171.49,-196 1171.49,-215 1273.49,-215 1273.49,-196 1171.49,-196"/>
<text text-anchor="middle" x="1222.49" y="-203" font-family="FreeSans.ttf" font-size="10.00">SpatialInertia.cpp</text>
</a>
</g>
</g>
<!-- Node1&#45;&gt;Node5 -->
<g id="edge56" class="edge">
<title>Node1&#45;&gt;Node5</title>
<path fill="none" stroke="midnightblue" d="M3842.97,-322.11C3509.02,-322.45 2049.71,-321.32 1597.49,-277 1470.41,-264.55 1322.11,-230.88 1256.58,-215"/>
<polygon fill="midnightblue" stroke="midnightblue" points="3843.46,-325.61 3853.45,-322.1 3843.45,-318.61 3843.46,-325.61"/>
</g>
<!-- Node7 -->
<g id="node7" class="node">
<title>Node7</title>
<g id="a_node7"><a xlink:href="Transform_8cpp.html" target="_top" xlink:title=" ">
<polygon fill="none" stroke="black" points="1291.49,-196 1291.49,-215 1377.49,-215 1377.49,-196 1291.49,-196"/>
<text text-anchor="middle" x="1334.49" y="-203" font-family="FreeSans.ttf" font-size="10.00">Transform.cpp</text>
</a>
</g>
</g>
<!-- Node1&#45;&gt;Node7 -->
<g id="edge58" class="edge">
<title>Node1&#45;&gt;Node7</title>
<path fill="none" stroke="midnightblue" d="M3842.91,-321.6C3527.03,-319.61 2210.25,-309.46 1799.49,-277 1617.03,-262.58 1571.13,-256.06 1391.49,-221 1382.97,-219.34 1373.83,-217.18 1365.41,-215.04"/>
<polygon fill="midnightblue" stroke="midnightblue" points="3843.26,-325.1 3853.28,-321.67 3843.3,-318.1 3843.26,-325.1"/>
</g>
<!-- Node13 -->
<g id="node13" class="node">
<title>Node13</title>
<g id="a_node13"><a xlink:href="ExtWrenchesAndJointTorquesEstimator_8cpp.html" target="_top" xlink:title=" ">
<polygon fill="none" stroke="black" points="3190.49,-0.5 3190.49,-30.5 3348.49,-30.5 3348.49,-0.5 3190.49,-0.5"/>
<text text-anchor="start" x="3198.49" y="-18.5" font-family="FreeSans.ttf" font-size="10.00">ExtWrenchesAndJointTorques</text>
<text text-anchor="middle" x="3269.49" y="-7.5" font-family="FreeSans.ttf" font-size="10.00">Estimator.cpp</text>
</a>
</g>
</g>
<!-- Node1&#45;&gt;Node13 -->
<g id="edge61" class="edge">
<title>Node1&#45;&gt;Node13</title>
<path fill="none" stroke="midnightblue" d="M3921.07,-304.4C3948.59,-252.71 4023.83,-102.75 3990.49,-67 3947.46,-20.85 3527.02,-16.05 3348.74,-16.11"/>
<polygon fill="midnightblue" stroke="midnightblue" points="3917.9,-302.9 3916.25,-313.37 3924.07,-306.22 3917.9,-302.9"/>
</g>
<!-- Node19 -->
<g id="node17" class="node">
<title>Node19</title>
<g id="a_node17"><a xlink:href="ExternalWrenchesEstimation_8cpp.html" target="_top" xlink:title=" ">
<polygon fill="none" stroke="black" points="3803.49,-73 3803.49,-92 3981.49,-92 3981.49,-73 3803.49,-73"/>
<text text-anchor="middle" x="3892.49" y="-80" font-family="FreeSans.ttf" font-size="10.00">ExternalWrenchesEstimation.cpp</text>
</a>
</g>
</g>
<!-- Node1&#45;&gt;Node19 -->
<g id="edge60" class="edge">
<title>Node1&#45;&gt;Node19</title>
<path fill="none" stroke="midnightblue" d="M3909.99,-303.17C3906.12,-254.6 3895.92,-126.49 3893.18,-92.1"/>
<polygon fill="midnightblue" stroke="midnightblue" points="3906.51,-303.54 3910.79,-313.23 3913.49,-302.98 3906.51,-303.54"/>
</g>
<!-- Node31 -->
<g id="node23" class="node">
<title>Node31</title>
<g id="a_node23"><a xlink:href="Dynamics_8cpp.html" target="_top" xlink:title=" ">
<polygon fill="none" stroke="black" points="3699.49,-73 3699.49,-92 3785.49,-92 3785.49,-73 3699.49,-73"/>
<text text-anchor="middle" x="3742.49" y="-80" font-family="FreeSans.ttf" font-size="10.00">Dynamics.cpp</text>
</a>
</g>
</g>
<!-- Node1&#45;&gt;Node31 -->
<g id="edge62" class="edge">
<title>Node1&#45;&gt;Node31</title>
<path fill="none" stroke="midnightblue" d="M3899.43,-304.98C3866.04,-257.86 3773.26,-126.92 3748.58,-92.1"/>
<polygon fill="midnightblue" stroke="midnightblue" points="3896.64,-307.09 3905.28,-313.23 3902.35,-303.05 3896.64,-307.09"/>
</g>
<!-- Node99 -->
<g id="node47" class="node">
<title>Node99</title>
<g id="a_node47"><a xlink:href="Position_8cpp.html" target="_top" xlink:title=" ">
<polygon fill="none" stroke="black" points="3958.49,-257.5 3958.49,-276.5 4034.49,-276.5 4034.49,-257.5 3958.49,-257.5"/>
<text text-anchor="middle" x="3996.49" y="-264.5" font-family="FreeSans.ttf" font-size="10.00">Position.cpp</text>
</a>
</g>
</g>
<!-- Node1&#45;&gt;Node99 -->
<g id="edge54" class="edge">
<title>Node1&#45;&gt;Node99</title>
<path fill="none" stroke="midnightblue" d="M3933.68,-307.9C3949.27,-298 3969.62,-285.07 3982.87,-276.65"/>
<polygon fill="midnightblue" stroke="midnightblue" points="3931.71,-305.01 3925.15,-313.32 3935.47,-310.92 3931.71,-305.01"/>
</g>
<!-- Node100 -->
<g id="node48" class="node">
<title>Node100</title>
<g id="a_node48"><a xlink:href="Rotation_8cpp.html" target="_top" xlink:title=" ">
<polygon fill="none" stroke="black" points="4052.49,-257.5 4052.49,-276.5 4130.49,-276.5 4130.49,-257.5 4052.49,-257.5"/>
<text text-anchor="middle" x="4091.49" y="-264.5" font-family="FreeSans.ttf" font-size="10.00">Rotation.cpp</text>
</a>
</g>
</g>
<!-- Node1&#45;&gt;Node100 -->
<g id="edge55" class="edge">
<title>Node1&#45;&gt;Node100</title>
<path fill="none" stroke="midnightblue" d="M3949.6,-310.57C3983.55,-300.38 4032.48,-285.7 4063.1,-276.52"/>
<polygon fill="midnightblue" stroke="midnightblue" points="3948.59,-307.22 3940.01,-313.44 3950.6,-313.92 3948.59,-307.22"/>
</g>
<!-- Node101 -->
<g id="node49" class="node">
<title>Node101</title>
<g id="a_node49"><a xlink:href="SpatialMomentum_8cpp.html" target="_top" xlink:title=" ">
<polygon fill="none" stroke="black" points="4148.99,-257.5 4148.99,-276.5 4275.99,-276.5 4275.99,-257.5 4148.99,-257.5"/>
<text text-anchor="middle" x="4212.49" y="-264.5" font-family="FreeSans.ttf" font-size="10.00">SpatialMomentum.cpp</text>
</a>
</g>
</g>
<!-- Node1&#45;&gt;Node101 -->
<g id="edge57" class="edge">
<title>Node1&#45;&gt;Node101</title>
<path fill="none" stroke="midnightblue" d="M3969.1,-311.66C4025.99,-301.46 4111.94,-286.04 4165.02,-276.52"/>
<polygon fill="midnightblue" stroke="midnightblue" points="3968.41,-308.23 3959.19,-313.44 3969.65,-315.12 3968.41,-308.23"/>
</g>
<!-- Node102 -->
<g id="node50" class="node">
<title>Node102</title>
<g id="a_node50"><a xlink:href="Twist_8cpp.html" target="_top" xlink:title=" ">
<polygon fill="none" stroke="black" points="4294.49,-257.5 4294.49,-276.5 4356.49,-276.5 4356.49,-257.5 4294.49,-257.5"/>
<text text-anchor="middle" x="4325.49" y="-264.5" font-family="FreeSans.ttf" font-size="10.00">Twist.cpp</text>
</a>
</g>
</g>
<!-- Node1&#45;&gt;Node102 -->
<g id="edge59" class="edge">
<title>Node1&#45;&gt;Node102</title>
<path fill="none" stroke="midnightblue" d="M3980.02,-315.86C4055.26,-308.63 4179.46,-295.26 4285.49,-277 4288.3,-276.52 4291.2,-275.96 4294.11,-275.38"/>
<polygon fill="midnightblue" stroke="midnightblue" points="3979.36,-312.41 3969.74,-316.84 3980.03,-319.38 3979.36,-312.41"/>
</g>
<!-- Node3 -->
<g id="node3" class="node">
<title>Node3</title>
<g id="a_node3"><a xlink:href="ArticulatedBodyInertia_8cpp.html" target="_top" xlink:title=" ">
<polygon fill="none" stroke="black" points="1617.49,-196 1617.49,-215 1763.49,-215 1763.49,-196 1617.49,-196"/>
<text text-anchor="middle" x="1690.49" y="-203" font-family="FreeSans.ttf" font-size="10.00">ArticulatedBodyInertia.cpp</text>
</a>
</g>
</g>
<!-- Node2&#45;&gt;Node3 -->
<g id="edge2" class="edge">
<title>Node2&#45;&gt;Node3</title>
<path fill="none" stroke="midnightblue" d="M1821.23,-253.93C1789.35,-242.37 1742.06,-225.21 1713.94,-215.01"/>
<polygon fill="midnightblue" stroke="midnightblue" points="1820.4,-257.35 1830.99,-257.48 1822.79,-250.77 1820.4,-257.35"/>
</g>
<!-- Node4 -->
<g id="node4" class="node">
<title>Node4</title>
<g id="a_node4"><a xlink:href="InertiaNonLinearParametrization_8cpp.html" target="_top" xlink:title=" ">
<polygon fill="none" stroke="black" points="1818.99,-196 1818.99,-215 2013.99,-215 2013.99,-196 1818.99,-196"/>
<text text-anchor="middle" x="1916.49" y="-203" font-family="FreeSans.ttf" font-size="10.00">InertiaNonLinearParametrization.cpp</text>
</a>
</g>
</g>
<!-- Node2&#45;&gt;Node4 -->
<g id="edge3" class="edge">
<title>Node2&#45;&gt;Node4</title>
<path fill="none" stroke="midnightblue" d="M1870.83,-250.32C1882.6,-239.02 1898.05,-224.19 1907.62,-215.01"/>
<polygon fill="midnightblue" stroke="midnightblue" points="1868.17,-248.03 1863.37,-257.48 1873.01,-253.08 1868.17,-248.03"/>
</g>
<!-- Node2&#45;&gt;Node5 -->
<g id="edge4" class="edge">
<title>Node2&#45;&gt;Node5</title>
<path fill="none" stroke="midnightblue" d="M1798.84,-264.55C1696.18,-261.23 1470.33,-250.89 1282.49,-221 1273.07,-219.5 1262.95,-217.29 1253.75,-215.05"/>
<polygon fill="midnightblue" stroke="midnightblue" points="1798.87,-268.05 1808.97,-264.87 1799.09,-261.06 1798.87,-268.05"/>
</g>
<!-- Node6 -->
<g id="node6" class="node">
<title>Node6</title>
<g id="a_node6"><a xlink:href="TestUtils_8cpp.html" target="_top" xlink:title=" ">
<polygon fill="none" stroke="black" points="2031.99,-196 2031.99,-215 2110.99,-215 2110.99,-196 2031.99,-196"/>
<text text-anchor="middle" x="2071.49" y="-203" font-family="FreeSans.ttf" font-size="10.00">TestUtils.cpp</text>
</a>
</g>
</g>
<!-- Node2&#45;&gt;Node6 -->
<g id="edge5" class="edge">
<title>Node2&#45;&gt;Node6</title>
<path fill="none" stroke="midnightblue" d="M1897.45,-254.82C1931.45,-245.9 1980.09,-232.95 2022.49,-221 2029.15,-219.12 2036.3,-217.04 2043.03,-215.06"/>
<polygon fill="midnightblue" stroke="midnightblue" points="1896.18,-251.54 1887.4,-257.46 1897.96,-258.31 1896.18,-251.54"/>
</g>
<!-- Node2&#45;&gt;Node7 -->
<g id="edge6" class="edge">
<title>Node2&#45;&gt;Node7</title>
<path fill="none" stroke="midnightblue" d="M1798.62,-263.32C1711.23,-258.51 1537.12,-246.45 1391.49,-221 1382.64,-219.45 1373.14,-217.26 1364.48,-215.04"/>
<polygon fill="midnightblue" stroke="midnightblue" points="1798.66,-266.83 1808.84,-263.87 1799.04,-259.84 1798.66,-266.83"/>
</g>
<!-- Node8 -->
<g id="node8" class="node">
<title>Node8</title>
<g id="a_node8"><a xlink:href="KinDynComputations_8cpp.html" target="_top" xlink:title=" ">
<polygon fill="none" stroke="black" points="102.49,-6 102.49,-25 242.49,-25 242.49,-6 102.49,-6"/>
<text text-anchor="middle" x="172.49" y="-13" font-family="FreeSans.ttf" font-size="10.00">KinDynComputations.cpp</text>
</a>
</g>
</g>
<!-- Node2&#45;&gt;Node8 -->
<g id="edge7" class="edge">
<title>Node2&#45;&gt;Node8</title>
<path fill="none" stroke="midnightblue" d="M1798.57,-261.94C1689.99,-253.8 1458.27,-235.05 1424.49,-221 1404.37,-212.63 1406.77,-197.99 1386.49,-190 1243.83,-133.76 114.24,-209.98 9.49,-98 -26.82,-59.18 54.73,-36.21 115.08,-25.01"/>
<polygon fill="midnightblue" stroke="midnightblue" points="1798.45,-265.44 1808.68,-262.7 1798.97,-258.46 1798.45,-265.44"/>
</g>
<!-- Node9 -->
<g id="node9" class="node">
<title>Node9</title>
<g id="a_node9"><a xlink:href="DynamicsUtils_8h.html" target="_top" xlink:title=" ">
<polygon fill="none" stroke="black" points="2234.99,-196 2234.99,-215 2331.99,-215 2331.99,-196 2234.99,-196"/>
<text text-anchor="middle" x="2283.49" y="-203" font-family="FreeSans.ttf" font-size="10.00">DynamicsUtils.h</text>
</a>
</g>
</g>
<!-- Node2&#45;&gt;Node9 -->
<g id="edge8" class="edge">
<title>Node2&#45;&gt;Node9</title>
<path fill="none" stroke="midnightblue" d="M1910.5,-261.39C1983.42,-254.89 2114.67,-241.49 2225.49,-221 2234.27,-219.38 2243.69,-217.21 2252.34,-215.04"/>
<polygon fill="midnightblue" stroke="midnightblue" points="1909.83,-257.94 1900.17,-262.3 1910.44,-264.91 1909.83,-257.94"/>
</g>
<!-- Node10 -->
<g id="node10" class="node">
<title>Node10</title>
<g id="a_node10"><a xlink:href="Link_8h.html" target="_top" xlink:title=" ">
<polygon fill="none" stroke="black" points="2170.49,-196 2170.49,-215 2216.49,-215 2216.49,-196 2170.49,-196"/>
<text text-anchor="middle" x="2193.49" y="-203" font-family="FreeSans.ttf" font-size="10.00">Link.h</text>
</a>
</g>
</g>
<!-- Node2&#45;&gt;Node10 -->
<g id="edge9" class="edge">
<title>Node2&#45;&gt;Node10</title>
<path fill="none" stroke="midnightblue" d="M1910.24,-260.95C1970.79,-254.69 2070.04,-242.18 2153.49,-221 2159.65,-219.44 2166.18,-217.29 2172.15,-215.12"/>
<polygon fill="midnightblue" stroke="midnightblue" points="1909.73,-257.48 1900.13,-261.97 1910.43,-264.45 1909.73,-257.48"/>
</g>
<!-- Node2&#45;&gt;Node31 -->
<g id="edge51" class="edge">
<title>Node2&#45;&gt;Node31</title>
<path fill="none" stroke="midnightblue" d="M1910.29,-262.68C1978.39,-257.61 2088.47,-245.77 2120.49,-221 2154.01,-195.07 2124.2,-157.45 2159.49,-134 2230.35,-86.92 3606.34,-110.52 3690.49,-98 3699.2,-96.7 3708.53,-94.4 3716.84,-92.01"/>
<polygon fill="midnightblue" stroke="midnightblue" points="1909.87,-259.2 1900.14,-263.41 1910.37,-266.19 1909.87,-259.2"/>
</g>
<!-- Node50 -->
<g id="node42" class="node">
<title>Node50</title>
<g id="a_node42"><a xlink:href="URDFModelExport_8cpp.html" target="_top" xlink:title=" ">
<polygon fill="none" stroke="black" points="18.49,-73 18.49,-92 144.49,-92 144.49,-73 18.49,-73"/>
<text text-anchor="middle" x="81.49" y="-80" font-family="FreeSans.ttf" font-size="10.00">URDFModelExport.cpp</text>
</a>
</g>
</g>
<!-- Node2&#45;&gt;Node50 -->
<g id="edge52" class="edge">
<title>Node2&#45;&gt;Node50</title>
<path fill="none" stroke="midnightblue" d="M1838.55,-250.12C1817.03,-228.85 1780.44,-193.39 1772.49,-190 1444.39,-50.35 524.94,-136.94 170.49,-98 156.64,-96.48 141.66,-94.26 128.02,-92.02"/>
<polygon fill="midnightblue" stroke="midnightblue" points="1836.15,-252.67 1845.72,-257.23 1841.08,-247.7 1836.15,-252.67"/>
</g>
<!-- Node85 -->
<g id="node46" class="node">
<title>Node85</title>
<g id="a_node46"><a xlink:href="InertialParametersSolidShapesHelpers_8cpp.html" target="_top" xlink:title=" ">
<polygon fill="none" stroke="black" points="1433.49,-190.5 1433.49,-220.5 1599.49,-220.5 1599.49,-190.5 1433.49,-190.5"/>
<text text-anchor="start" x="1441.49" y="-208.5" font-family="FreeSans.ttf" font-size="10.00">InertialParametersSolidShapes</text>
<text text-anchor="middle" x="1516.49" y="-197.5" font-family="FreeSans.ttf" font-size="10.00">Helpers.cpp</text>
</a>
</g>
</g>
<!-- Node2&#45;&gt;Node85 -->
<g id="edge53" class="edge">
<title>Node2&#45;&gt;Node85</title>
<path fill="none" stroke="midnightblue" d="M1798.97,-256.23C1743.8,-246.51 1658.65,-231.52 1596.25,-220.54"/>
<polygon fill="midnightblue" stroke="midnightblue" points="1798.45,-259.69 1808.91,-257.98 1799.67,-252.79 1798.45,-259.69"/>
</g>
<!-- Node11 -->
<g id="node11" class="node">
<title>Node11</title>
<g id="a_node11"><a xlink:href="Model_8h.html" target="_top" xlink:title=" ">
<polygon fill="none" stroke="red" points="2055.49,-134.5 2055.49,-153.5 2111.49,-153.5 2111.49,-134.5 2055.49,-134.5"/>
<text text-anchor="middle" x="2083.49" y="-141.5" font-family="FreeSans.ttf" font-size="10.00">Model.h</text>
</a>
</g>
</g>
<!-- Node10&#45;&gt;Node11 -->
<g id="edge10" class="edge">
<title>Node10&#45;&gt;Node11</title>
<path fill="none" stroke="midnightblue" d="M2168.92,-191.21C2147.62,-179.69 2117.42,-163.36 2099.22,-153.51"/>
<polygon fill="midnightblue" stroke="midnightblue" points="2167.27,-194.3 2177.73,-195.98 2170.6,-188.14 2167.27,-194.3"/>
</g>
<!-- Node97 -->
<g id="node43" class="node">
<title>Node97</title>
<g id="a_node43"><a xlink:href="Link_8cpp.html" target="_top" xlink:title=" ">
<polygon fill="none" stroke="black" points="2167.99,-134.5 2167.99,-153.5 2224.99,-153.5 2224.99,-134.5 2167.99,-134.5"/>
<text text-anchor="middle" x="2196.49" y="-141.5" font-family="FreeSans.ttf" font-size="10.00">Link.cpp</text>
</a>
</g>
</g>
<!-- Node10&#45;&gt;Node97 -->
<g id="edge48" class="edge">
<title>Node10&#45;&gt;Node97</title>
<path fill="none" stroke="midnightblue" d="M2194.43,-185.82C2194.98,-175 2195.64,-161.9 2196.06,-153.51"/>
<polygon fill="midnightblue" stroke="midnightblue" points="2190.93,-185.81 2193.92,-195.98 2197.92,-186.16 2190.93,-185.81"/>
</g>
<!-- Node98 -->
<g id="node44" class="node">
<title>Node98</title>
<g id="a_node44"><a xlink:href="LinkElement_8h.html" target="_top" xlink:title=" ">
<polygon fill="none" stroke="red" points="2243.49,-134.5 2243.49,-153.5 2329.49,-153.5 2329.49,-134.5 2243.49,-134.5"/>
<text text-anchor="middle" x="2286.49" y="-141.5" font-family="FreeSans.ttf" font-size="10.00">LinkElement.h</text>
</a>
</g>
</g>
<!-- Node10&#45;&gt;Node98 -->
<g id="edge49" class="edge">
<title>Node10&#45;&gt;Node98</title>
<path fill="none" stroke="midnightblue" d="M2215.48,-190.43C2233.41,-178.96 2258.15,-163.13 2273.19,-153.51"/>
<polygon fill="midnightblue" stroke="midnightblue" points="2213.35,-187.64 2206.82,-195.98 2217.13,-193.53 2213.35,-187.64"/>
</g>
<!-- Node79 -->
<g id="node45" class="node">
<title>Node79</title>
<g id="a_node45"><a xlink:href="SixAxisForceTorqueSensor_8cpp.html" target="_top" xlink:title=" ">
<polygon fill="none" stroke="black" points="2347.49,-134.5 2347.49,-153.5 2511.49,-153.5 2511.49,-134.5 2347.49,-134.5"/>
<text text-anchor="middle" x="2429.49" y="-141.5" font-family="FreeSans.ttf" font-size="10.00">SixAxisForceTorqueSensor.cpp</text>
</a>
</g>
</g>
<!-- Node10&#45;&gt;Node79 -->
<g id="edge50" class="edge">
<title>Node10&#45;&gt;Node79</title>
<path fill="none" stroke="midnightblue" d="M2220.79,-192.02C2222.71,-191.29 2224.62,-190.61 2226.49,-190 2276.93,-173.51 2336.38,-161.12 2377.86,-153.56"/>
<polygon fill="midnightblue" stroke="midnightblue" points="2219.32,-188.84 2211.4,-195.87 2221.98,-195.31 2219.32,-188.84"/>
</g>
<!-- Node11&#45;&gt;Node8 -->
<g id="edge18" class="edge">
<title>Node11&#45;&gt;Node8</title>
<path fill="none" stroke="midnightblue" d="M2045.41,-141.65C1991.86,-139.77 1891.25,-136.34 1805.49,-134 1760.66,-132.77 226.3,-126.27 191.49,-98 169.5,-80.14 169.99,-42.2 171.47,-25.13"/>
<polygon fill="midnightblue" stroke="midnightblue" points="2045.36,-145.15 2055.48,-142 2045.61,-138.15 2045.36,-145.15"/>
</g>
<!-- Node12 -->
<g id="node12" class="node">
<title>Node12</title>
<g id="a_node12"><a xlink:href="ExtWrenchesAndJointTorquesEstimator_8h.html" target="_top" xlink:title=" ">
<polygon fill="none" stroke="black" points="3137.49,-67.5 3137.49,-97.5 3295.49,-97.5 3295.49,-67.5 3137.49,-67.5"/>
<text text-anchor="start" x="3145.49" y="-85.5" font-family="FreeSans.ttf" font-size="10.00">ExtWrenchesAndJointTorques</text>
<text text-anchor="middle" x="3216.49" y="-74.5" font-family="FreeSans.ttf" font-size="10.00">Estimator.h</text>
</a>
</g>
</g>
<!-- Node11&#45;&gt;Node12 -->
<g id="edge11" class="edge">
<title>Node11&#45;&gt;Node12</title>
<path fill="none" stroke="midnightblue" d="M2121.7,-134.52C2122.98,-134.33 2124.24,-134.16 2125.49,-134 2565.95,-79.29 2681.66,-140.26 3123.49,-98 3128.05,-97.56 3132.72,-97.05 3137.42,-96.48"/>
<polygon fill="midnightblue" stroke="midnightblue" points="2121.1,-131.07 2111.84,-136.22 2122.29,-137.97 2121.1,-131.07"/>
</g>
<!-- Node11&#45;&gt;Node13 -->
<g id="edge17" class="edge">
<title>Node11&#45;&gt;Node13</title>
<path fill="none" stroke="midnightblue" d="M2121.7,-134.51C2122.97,-134.32 2124.24,-134.15 2125.49,-134 2190.54,-126.1 3258.87,-145.04 3304.49,-98 3323.04,-78.88 3300.53,-48.38 3283.99,-30.62"/>
<polygon fill="midnightblue" stroke="midnightblue" points="2121.1,-131.06 2111.84,-136.2 2122.29,-137.96 2121.1,-131.06"/>
</g>
<!-- Node14 -->
<g id="node14" class="node">
<title>Node14</title>
<g id="a_node14"><a xlink:href="GravityCompensationHelpers_8h.html" target="_top" xlink:title=" ">
<polygon fill="none" stroke="red" points="3351.49,-73 3351.49,-92 3521.49,-92 3521.49,-73 3351.49,-73"/>
<text text-anchor="middle" x="3436.49" y="-80" font-family="FreeSans.ttf" font-size="10.00">GravityCompensationHelpers.h</text>
</a>
</g>
</g>
<!-- Node11&#45;&gt;Node14 -->
<g id="edge13" class="edge">
<title>Node11&#45;&gt;Node14</title>
<path fill="none" stroke="midnightblue" d="M2121.7,-134.51C2122.97,-134.32 2124.24,-134.15 2125.49,-134 2660.49,-69.28 2800.65,-145.13 3337.49,-98 3353.41,-96.6 3370.67,-94.34 3386.26,-92.01"/>
<polygon fill="midnightblue" stroke="midnightblue" points="2121.11,-131.06 2111.84,-136.2 2122.29,-137.96 2121.11,-131.06"/>
</g>
<!-- Node16 -->
<g id="node15" class="node">
<title>Node16</title>
<g id="a_node15"><a xlink:href="SimpleLeggedOdometry_8h.html" target="_top" xlink:title=" ">
<polygon fill="none" stroke="red" points="3539.49,-73 3539.49,-92 3681.49,-92 3681.49,-73 3539.49,-73"/>
<text text-anchor="middle" x="3610.49" y="-80" font-family="FreeSans.ttf" font-size="10.00">SimpleLeggedOdometry.h</text>
</a>
</g>
</g>
<!-- Node11&#45;&gt;Node16 -->
<g id="edge14" class="edge">
<title>Node11&#45;&gt;Node16</title>
<path fill="none" stroke="midnightblue" d="M2121.7,-134.5C2122.97,-134.32 2124.24,-134.15 2125.49,-134 2745.77,-60.24 2909.12,-161.89 3530.49,-98 3543.55,-96.66 3557.68,-94.38 3570.38,-92.02"/>
<polygon fill="midnightblue" stroke="midnightblue" points="2121.11,-131.05 2111.84,-136.18 2122.28,-137.95 2121.11,-131.05"/>
</g>
<!-- Node18 -->
<g id="node16" class="node">
<title>Node18</title>
<g id="a_node16"><a xlink:href="BerdyHelper_8cpp.html" target="_top" xlink:title=" ">
<polygon fill="none" stroke="black" points="200.99,-73 200.99,-92 297.99,-92 297.99,-73 200.99,-73"/>
<text text-anchor="middle" x="249.49" y="-80" font-family="FreeSans.ttf" font-size="10.00">BerdyHelper.cpp</text>
</a>
</g>
</g>
<!-- Node11&#45;&gt;Node18 -->
<g id="edge15" class="edge">
<title>Node11&#45;&gt;Node18</title>
<path fill="none" stroke="midnightblue" d="M2045.41,-141.67C1991.86,-139.81 1891.25,-136.42 1805.49,-134 1472.64,-124.61 637.47,-142.65 307.49,-98 297.93,-96.71 287.66,-94.44 278.46,-92.08"/>
<polygon fill="midnightblue" stroke="midnightblue" points="2045.36,-145.17 2055.48,-142.02 2045.6,-138.17 2045.36,-145.17"/>
</g>
<!-- Node11&#45;&gt;Node19 -->
<g id="edge16" class="edge">
<title>Node11&#45;&gt;Node19</title>
<path fill="none" stroke="midnightblue" d="M2121.77,-137.74C2133.82,-136.28 2147.19,-134.86 2159.49,-134 2884.56,-83.2 3070.24,-159.31 3794.49,-98 3810.43,-96.65 3827.72,-94.37 3843.28,-92.01"/>
<polygon fill="midnightblue" stroke="midnightblue" points="2121.07,-134.3 2111.58,-139.02 2121.94,-141.25 2121.07,-134.3"/>
</g>
<!-- Node20 -->
<g id="node18" class="node">
<title>Node20</title>
<g id="a_node18"><a xlink:href="skinDynLibConversionsImplementation_8h.html" target="_top" xlink:title=" ">
<polygon fill="none" stroke="red" points="316.49,-73 316.49,-92 534.49,-92 534.49,-73 316.49,-73"/>
<text text-anchor="middle" x="425.49" y="-80" font-family="FreeSans.ttf" font-size="10.00">skinDynLibConversionsImplementation.h</text>
</a>
</g>
</g>
<!-- Node11&#45;&gt;Node20 -->
<g id="edge19" class="edge">
<title>Node11&#45;&gt;Node20</title>
<path fill="none" stroke="midnightblue" d="M2045.41,-141.72C1991.86,-139.93 1891.24,-136.61 1805.49,-134 1244.63,-116.92 1103.01,-140.26 543.49,-98 524.66,-96.58 504.21,-94.32 485.72,-92"/>
<polygon fill="midnightblue" stroke="midnightblue" points="2045.36,-145.22 2055.48,-142.06 2045.6,-138.23 2045.36,-145.22"/>
</g>
<!-- Node22 -->
<g id="node19" class="node">
<title>Node22</title>
<g id="a_node19"><a xlink:href="InverseKinematicsData_8h.html" target="_top" xlink:title=" ">
<polygon fill="none" stroke="red" points="552.49,-73 552.49,-92 692.49,-92 692.49,-73 552.49,-73"/>
<text text-anchor="middle" x="622.49" y="-80" font-family="FreeSans.ttf" font-size="10.00">InverseKinematicsData.h</text>
</a>
</g>
</g>
<!-- Node11&#45;&gt;Node22 -->
<g id="edge20" class="edge">
<title>Node11&#45;&gt;Node22</title>
<path fill="none" stroke="midnightblue" d="M2045.08,-141.75C1822.07,-134.52 703.64,-98.23 701.49,-98 688.74,-96.63 674.95,-94.37 662.51,-92.04"/>
<polygon fill="midnightblue" stroke="midnightblue" points="2045.2,-145.26 2055.31,-142.09 2045.42,-138.26 2045.2,-145.26"/>
</g>
<!-- Node25 -->
<g id="node20" class="node">
<title>Node25</title>
<g id="a_node20"><a xlink:href="DenavitHartenberg_8h.html" target="_top" xlink:title=" ">
<polygon fill="none" stroke="red" points="710.99,-73 710.99,-92 829.99,-92 829.99,-73 710.99,-73"/>
<text text-anchor="middle" x="770.49" y="-80" font-family="FreeSans.ttf" font-size="10.00">DenavitHartenberg.h</text>
</a>
</g>
</g>
<!-- Node11&#45;&gt;Node25 -->
<g id="edge21" class="edge">
<title>Node11&#45;&gt;Node25</title>
<path fill="none" stroke="midnightblue" d="M2045.31,-141.71C1839.47,-134.73 870.16,-101.75 839.49,-98 828.31,-96.63 816.26,-94.38 805.4,-92.05"/>
<polygon fill="midnightblue" stroke="midnightblue" points="2045.23,-145.21 2055.34,-142.05 2045.47,-138.21 2045.23,-145.21"/>
</g>
<!-- Node29 -->
<g id="node21" class="node">
<title>Node29</title>
<g id="a_node21"><a xlink:href="ModelTestUtils_8h.html" target="_top" xlink:title=" ">
<polygon fill="none" stroke="black" points="848.49,-73 848.49,-92 946.49,-92 946.49,-73 848.49,-73"/>
<text text-anchor="middle" x="897.49" y="-80" font-family="FreeSans.ttf" font-size="10.00">ModelTestUtils.h</text>
</a>
</g>
</g>
<!-- Node11&#45;&gt;Node29 -->
<g id="edge22" class="edge">
<title>Node11&#45;&gt;Node29</title>
<path fill="none" stroke="midnightblue" d="M2045.36,-141.7C1854.57,-135.16 1010.53,-105.89 955.49,-98 946.04,-96.64 935.89,-94.39 926.77,-92.06"/>
<polygon fill="midnightblue" stroke="midnightblue" points="2045.36,-145.2 2055.47,-142.04 2045.6,-138.2 2045.36,-145.2"/>
</g>
<!-- Node30 -->
<g id="node22" class="node">
<title>Node30</title>
<g id="a_node22"><a xlink:href="ContactWrench_8cpp.html" target="_top" xlink:title=" ">
<polygon fill="none" stroke="black" points="964.99,-73 964.99,-92 1075.99,-92 1075.99,-73 964.99,-73"/>
<text text-anchor="middle" x="1020.49" y="-80" font-family="FreeSans.ttf" font-size="10.00">ContactWrench.cpp</text>
</a>
</g>
</g>
<!-- Node11&#45;&gt;Node30 -->
<g id="edge23" class="edge">
<title>Node11&#45;&gt;Node30</title>
<path fill="none" stroke="midnightblue" d="M2045.22,-141.68C1873.8,-135.71 1180.87,-110.98 1084.49,-98 1074.1,-96.6 1062.92,-94.33 1052.85,-92.01"/>
<polygon fill="midnightblue" stroke="midnightblue" points="2045.17,-145.18 2055.29,-142.03 2045.42,-138.18 2045.17,-145.18"/>
</g>
<!-- Node11&#45;&gt;Node31 -->
<g id="edge24" class="edge">
<title>Node11&#45;&gt;Node31</title>
<path fill="none" stroke="midnightblue" d="M2121.7,-134.5C2122.97,-134.31 2124.24,-134.15 2125.49,-134 2470.98,-93.38 3346.4,-149.11 3690.49,-98 3699.21,-96.71 3708.53,-94.41 3716.84,-92.02"/>
<polygon fill="midnightblue" stroke="midnightblue" points="2121.11,-131.05 2111.84,-136.17 2122.28,-137.95 2121.11,-131.05"/>
</g>
<!-- Node32 -->
<g id="node24" class="node">
<title>Node32</title>
<g id="a_node24"><a xlink:href="DynamicsLinearization_8cpp.html" target="_top" xlink:title=" ">
<polygon fill="none" stroke="black" points="1093.99,-73 1093.99,-92 1242.99,-92 1242.99,-73 1093.99,-73"/>
<text text-anchor="middle" x="1168.49" y="-80" font-family="FreeSans.ttf" font-size="10.00">DynamicsLinearization.cpp</text>
</a>
</g>
</g>
<!-- Node11&#45;&gt;Node32 -->
<g id="edge25" class="edge">
<title>Node11&#45;&gt;Node32</title>
<path fill="none" stroke="midnightblue" d="M2044.91,-141.52C1902.75,-135.99 1408.38,-115.88 1251.49,-98 1238.41,-96.51 1224.27,-94.27 1211.43,-92"/>
<polygon fill="midnightblue" stroke="midnightblue" points="2045.16,-145.04 2055.29,-141.93 2045.43,-138.04 2045.16,-145.04"/>
</g>
<!-- Node33 -->
<g id="node25" class="node">
<title>Node33</title>
<g id="a_node25"><a xlink:href="ForwardKinematics_8cpp.html" target="_top" xlink:title=" ">
<polygon fill="none" stroke="black" points="1260.99,-73 1260.99,-92 1391.99,-92 1391.99,-73 1260.99,-73"/>
<text text-anchor="middle" x="1326.49" y="-80" font-family="FreeSans.ttf" font-size="10.00">ForwardKinematics.cpp</text>
</a>
</g>
</g>
<!-- Node11&#45;&gt;Node33 -->
<g id="edge26" class="edge">
<title>Node11&#45;&gt;Node33</title>
<path fill="none" stroke="midnightblue" d="M2045.13,-142.15C1941.13,-139.48 1645.29,-129.49 1401.49,-98 1389.79,-96.49 1377.15,-94.28 1365.65,-92.03"/>
<polygon fill="midnightblue" stroke="midnightblue" points="2045.35,-145.66 2055.44,-142.41 2045.53,-138.66 2045.35,-145.66"/>
</g>
<!-- Node34 -->
<g id="node26" class="node">
<title>Node34</title>
<g id="a_node26"><a xlink:href="FreeFloatingMatrices_8cpp.html" target="_top" xlink:title=" ">
<polygon fill="none" stroke="black" points="1410.49,-73 1410.49,-92 1550.49,-92 1550.49,-73 1410.49,-73"/>
<text text-anchor="middle" x="1480.49" y="-80" font-family="FreeSans.ttf" font-size="10.00">FreeFloatingMatrices.cpp</text>
</a>
</g>
</g>
<!-- Node11&#45;&gt;Node34 -->
<g id="edge27" class="edge">
<title>Node11&#45;&gt;Node34</title>
<path fill="none" stroke="midnightblue" d="M2045.11,-140.97C1958.3,-136.1 1740.4,-122.31 1559.49,-98 1547.47,-96.38 1534.49,-94.19 1522.6,-92"/>
<polygon fill="midnightblue" stroke="midnightblue" points="2045.09,-144.47 2055.27,-141.53 2045.48,-137.48 2045.09,-144.47"/>
</g>
<!-- Node35 -->
<g id="node27" class="node">
<title>Node35</title>
<g id="a_node27"><a xlink:href="FreeFloatingState_8cpp.html" target="_top" xlink:title=" ">
<polygon fill="none" stroke="black" points="1568.99,-73 1568.99,-92 1691.99,-92 1691.99,-73 1568.99,-73"/>
<text text-anchor="middle" x="1630.49" y="-80" font-family="FreeSans.ttf" font-size="10.00">FreeFloatingState.cpp</text>
</a>
</g>
</g>
<!-- Node11&#45;&gt;Node35 -->
<g id="edge28" class="edge">
<title>Node11&#45;&gt;Node35</title>
<path fill="none" stroke="midnightblue" d="M2045.02,-139.6C1975.83,-133.24 1825.9,-118.32 1700.49,-98 1690.08,-96.31 1678.86,-94.15 1668.53,-92.01"/>
<polygon fill="midnightblue" stroke="midnightblue" points="2044.75,-143.09 2055.02,-140.51 2045.38,-136.12 2044.75,-143.09"/>
</g>
<!-- Node36 -->
<g id="node28" class="node">
<title>Node36</title>
<g id="a_node28"><a xlink:href="Jacobians_8cpp.html" target="_top" xlink:title=" ">
<polygon fill="none" stroke="black" points="1709.99,-73 1709.99,-92 1792.99,-92 1792.99,-73 1709.99,-73"/>
<text text-anchor="middle" x="1751.49" y="-80" font-family="FreeSans.ttf" font-size="10.00">Jacobians.cpp</text>
</a>
</g>
</g>
<!-- Node11&#45;&gt;Node36 -->
<g id="edge29" class="edge">
<title>Node11&#45;&gt;Node36</title>
<path fill="none" stroke="midnightblue" d="M2045.16,-138.32C1990.81,-131.36 1888.41,-117.02 1802.49,-98 1794.85,-96.31 1786.66,-94.14 1779.13,-92"/>
<polygon fill="midnightblue" stroke="midnightblue" points="2045,-141.83 2055.37,-139.62 2045.88,-134.89 2045,-141.83"/>
</g>
<!-- Node37 -->
<g id="node29" class="node">
<title>Node37</title>
<g id="a_node29"><a xlink:href="JointState_8cpp.html" target="_top" xlink:title=" ">
<polygon fill="none" stroke="black" points="1811.49,-73 1811.49,-92 1895.49,-92 1895.49,-73 1811.49,-73"/>
<text text-anchor="middle" x="1853.49" y="-80" font-family="FreeSans.ttf" font-size="10.00">JointState.cpp</text>
</a>
</g>
</g>
<!-- Node11&#45;&gt;Node37 -->
<g id="edge30" class="edge">
<title>Node11&#45;&gt;Node37</title>
<path fill="none" stroke="midnightblue" d="M2045.06,-133.7C2008.75,-124.83 1952.81,-110.94 1904.49,-98 1897.47,-96.12 1889.92,-94.02 1882.84,-92.01"/>
<polygon fill="midnightblue" stroke="midnightblue" points="2044.66,-137.21 2055.21,-136.17 2046.32,-130.41 2044.66,-137.21"/>
</g>
<!-- Node38 -->
<g id="node30" class="node">
<title>Node38</title>
<g id="a_node30"><a xlink:href="LinkState_8cpp.html" target="_top" xlink:title=" ">
<polygon fill="none" stroke="black" points="1913.99,-73 1913.99,-92 1996.99,-92 1996.99,-73 1913.99,-73"/>
<text text-anchor="middle" x="1955.49" y="-80" font-family="FreeSans.ttf" font-size="10.00">LinkState.cpp</text>
</a>
</g>
</g>
<!-- Node11&#45;&gt;Node38 -->
<g id="edge31" class="edge">
<title>Node11&#45;&gt;Node38</title>
<path fill="none" stroke="midnightblue" d="M2055.9,-130.17C2031.06,-118.63 1995.26,-101.99 1973.8,-92.01"/>
<polygon fill="midnightblue" stroke="midnightblue" points="2054.61,-133.43 2065.15,-134.48 2057.56,-127.09 2054.61,-133.43"/>
</g>
<!-- Node39 -->
<g id="node31" class="node">
<title>Node39</title>
<g id="a_node31"><a xlink:href="LinkTraversalsCache_8cpp.html" target="_top" xlink:title=" ">
<polygon fill="none" stroke="black" points="2014.99,-73 2014.99,-92 2151.99,-92 2151.99,-73 2014.99,-73"/>
<text text-anchor="middle" x="2083.49" y="-80" font-family="FreeSans.ttf" font-size="10.00">LinkTraversalsCache.cpp</text>
</a>
</g>
</g>
<!-- Node11&#45;&gt;Node39 -->
<g id="edge32" class="edge">
<title>Node11&#45;&gt;Node39</title>
<path fill="none" stroke="midnightblue" d="M2083.49,-124.32C2083.49,-113.5 2083.49,-100.4 2083.49,-92.01"/>
<polygon fill="midnightblue" stroke="midnightblue" points="2079.99,-124.48 2083.49,-134.48 2086.99,-124.48 2079.99,-124.48"/>
</g>
<!-- Node40 -->
<g id="node32" class="node">
<title>Node40</title>
<g id="a_node32"><a xlink:href="Model_8cpp.html" target="_top" xlink:title=" ">
<polygon fill="none" stroke="black" points="2169.99,-73 2169.99,-92 2236.99,-92 2236.99,-73 2169.99,-73"/>
<text text-anchor="middle" x="2203.49" y="-80" font-family="FreeSans.ttf" font-size="10.00">Model.cpp</text>
</a>
</g>
</g>
<!-- Node11&#45;&gt;Node40 -->
<g id="edge33" class="edge">
<title>Node11&#45;&gt;Node40</title>
<path fill="none" stroke="midnightblue" d="M2109.67,-130.02C2132.94,-118.48 2166.29,-101.94 2186.33,-92.01"/>
<polygon fill="midnightblue" stroke="midnightblue" points="2108.09,-126.9 2100.68,-134.48 2111.2,-133.17 2108.09,-126.9"/>
</g>
<!-- Node41 -->
<g id="node33" class="node">
<title>Node41</title>
<g id="a_node33"><a xlink:href="ModelTransformers_8cpp.html" target="_top" xlink:title=" ">
<polygon fill="none" stroke="black" points="2254.99,-73 2254.99,-92 2385.99,-92 2385.99,-73 2254.99,-73"/>
<text text-anchor="middle" x="2320.49" y="-80" font-family="FreeSans.ttf" font-size="10.00">ModelTransformers.cpp</text>
</a>
</g>
</g>
<!-- Node11&#45;&gt;Node41 -->
<g id="edge34" class="edge">
<title>Node11&#45;&gt;Node41</title>
<path fill="none" stroke="midnightblue" d="M2121.39,-133.49C2166.88,-122.06 2242.51,-103.08 2286.29,-92.09"/>
<polygon fill="midnightblue" stroke="midnightblue" points="2120.46,-130.11 2111.61,-135.94 2122.16,-136.9 2120.46,-130.11"/>
</g>
<!-- Node42 -->
<g id="node34" class="node">
<title>Node42</title>
<g id="a_node34"><a xlink:href="SolidShapes_8cpp.html" target="_top" xlink:title=" ">
<polygon fill="none" stroke="black" points="2404.49,-73 2404.49,-92 2500.49,-92 2500.49,-73 2404.49,-73"/>
<text text-anchor="middle" x="2452.49" y="-80" font-family="FreeSans.ttf" font-size="10.00">SolidShapes.cpp</text>
</a>
</g>
</g>
<!-- Node11&#45;&gt;Node42 -->
<g id="edge35" class="edge">
<title>Node11&#45;&gt;Node42</title>
<path fill="none" stroke="midnightblue" d="M2121.72,-134.68C2122.99,-134.44 2124.25,-134.22 2125.49,-134 2244.77,-113.3 2276.63,-120.96 2395.49,-98 2404.01,-96.35 2413.16,-94.2 2421.58,-92.06"/>
<polygon fill="midnightblue" stroke="midnightblue" points="2121.04,-131.24 2111.9,-136.6 2122.38,-138.11 2121.04,-131.24"/>
</g>
<!-- Node43 -->
<g id="node35" class="node">
<title>Node43</title>
<g id="a_node35"><a xlink:href="SubModel_8cpp.html" target="_top" xlink:title=" ">
<polygon fill="none" stroke="black" points="2518.99,-73 2518.99,-92 2603.99,-92 2603.99,-73 2518.99,-73"/>
<text text-anchor="middle" x="2561.49" y="-80" font-family="FreeSans.ttf" font-size="10.00">SubModel.cpp</text>
</a>
</g>
</g>
<!-- Node11&#45;&gt;Node43 -->
<g id="edge36" class="edge">
<title>Node11&#45;&gt;Node43</title>
<path fill="none" stroke="midnightblue" d="M2121.71,-134.61C2122.98,-134.4 2124.25,-134.19 2125.49,-134 2294.92,-108 2340.93,-129.14 2509.49,-98 2517.69,-96.48 2526.48,-94.27 2534.45,-92.03"/>
<polygon fill="midnightblue" stroke="midnightblue" points="2121.06,-131.17 2111.87,-136.45 2122.35,-138.05 2121.06,-131.17"/>
</g>
<!-- Node44 -->
<g id="node36" class="node">
<title>Node44</title>
<g id="a_node36"><a xlink:href="Traversal_8cpp.html" target="_top" xlink:title=" ">
<polygon fill="none" stroke="black" points="2621.99,-73 2621.99,-92 2702.99,-92 2702.99,-73 2621.99,-73"/>
<text text-anchor="middle" x="2662.49" y="-80" font-family="FreeSans.ttf" font-size="10.00">Traversal.cpp</text>
</a>
</g>
</g>
<!-- Node11&#45;&gt;Node44 -->
<g id="edge37" class="edge">
<title>Node11&#45;&gt;Node44</title>
<path fill="none" stroke="midnightblue" d="M2121.71,-134.58C2122.98,-134.37 2124.25,-134.18 2125.49,-134 2340.77,-103.14 2399.55,-137.08 2613.49,-98 2621.35,-96.57 2629.73,-94.35 2637.31,-92.07"/>
<polygon fill="midnightblue" stroke="midnightblue" points="2121.08,-131.14 2111.86,-136.37 2122.33,-138.02 2121.08,-131.14"/>
</g>
<!-- Node45 -->
<g id="node37" class="node">
<title>Node45</title>
<g id="a_node37"><a xlink:href="ModelCalibrationHelper_8h.html" target="_top" xlink:title=" ">
<polygon fill="none" stroke="red" points="2997.49,-6 2997.49,-25 3137.49,-25 3137.49,-6 2997.49,-6"/>
<text text-anchor="middle" x="3067.49" y="-13" font-family="FreeSans.ttf" font-size="10.00">ModelCalibrationHelper.h</text>
</a>
</g>
</g>
<!-- Node11&#45;&gt;Node45 -->
<g id="edge38" class="edge">
<title>Node11&#45;&gt;Node45</title>
<path fill="none" stroke="midnightblue" d="M2121.7,-134.52C2122.98,-134.33 2124.24,-134.16 2125.49,-134 2178.73,-127.35 3053.27,-136.64 3090.49,-98 3110.08,-77.67 3087.35,-41.99 3074.76,-25.42"/>
<polygon fill="midnightblue" stroke="midnightblue" points="2121.1,-131.07 2111.84,-136.23 2122.29,-137.97 2121.1,-131.07"/>
</g>
<!-- Node47 -->
<g id="node38" class="node">
<title>Node47</title>
<g id="a_node38"><a xlink:href="ModelExporter_8h.html" target="_top" xlink:title=" ">
<polygon fill="none" stroke="red" points="2985.49,-73 2985.49,-92 3081.49,-92 3081.49,-73 2985.49,-73"/>
<text text-anchor="middle" x="3033.49" y="-80" font-family="FreeSans.ttf" font-size="10.00">ModelExporter.h</text>
</a>
</g>
</g>
<!-- Node11&#45;&gt;Node47 -->
<g id="edge39" class="edge">
<title>Node11&#45;&gt;Node47</title>
<path fill="none" stroke="midnightblue" d="M2121.7,-134.53C2122.98,-134.34 2124.24,-134.16 2125.49,-134 2501.02,-86.17 2601.94,-152.96 2976.49,-98 2985.79,-96.64 2995.76,-94.38 3004.73,-92.05"/>
<polygon fill="midnightblue" stroke="midnightblue" points="2121.1,-131.08 2111.85,-136.25 2122.3,-137.98 2121.1,-131.08"/>
</g>
<!-- Node52 -->
<g id="node39" class="node">
<title>Node52</title>
<g id="a_node39"><a xlink:href="ModelLoader_8h.html" target="_top" xlink:title=" ">
<polygon fill="none" stroke="red" points="2721.49,-73 2721.49,-92 2809.49,-92 2809.49,-73 2721.49,-73"/>
<text text-anchor="middle" x="2765.49" y="-80" font-family="FreeSans.ttf" font-size="10.00">ModelLoader.h</text>
</a>
</g>
</g>
<!-- Node11&#45;&gt;Node52 -->
<g id="edge41" class="edge">
<title>Node11&#45;&gt;Node52</title>
<path fill="none" stroke="midnightblue" d="M2121.7,-134.56C2122.98,-134.36 2124.24,-134.17 2125.49,-134 2384.45,-98.52 2454.63,-140.71 2712.49,-98 2721.06,-96.58 2730.23,-94.34 2738.49,-92.04"/>
<polygon fill="midnightblue" stroke="midnightblue" points="2121.08,-131.11 2111.86,-136.32 2122.32,-138.01 2121.08,-131.11"/>
</g>
<!-- Node53 -->
<g id="node40" class="node">
<title>Node53</title>
<g id="a_node40"><a xlink:href="URDFDocument_8h.html" target="_top" xlink:title=" ">
<polygon fill="none" stroke="red" points="2749.49,-6 2749.49,-25 2853.49,-25 2853.49,-6 2749.49,-6"/>
<text text-anchor="middle" x="2801.49" y="-13" font-family="FreeSans.ttf" font-size="10.00">URDFDocument.h</text>
</a>
</g>
</g>
<!-- Node11&#45;&gt;Node53 -->
<g id="edge46" class="edge">
<title>Node11&#45;&gt;Node53</title>
<path fill="none" stroke="midnightblue" d="M2121.7,-134.54C2122.98,-134.35 2124.24,-134.17 2125.49,-134 2201.93,-123.89 2765.4,-153.92 2818.49,-98 2837.7,-77.77 2818.28,-41.72 2807.56,-25.2"/>
<polygon fill="midnightblue" stroke="midnightblue" points="2121.09,-131.1 2111.85,-136.28 2122.31,-137.99 2121.09,-131.1"/>
</g>
<!-- Node59 -->
<g id="node41" class="node">
<title>Node59</title>
<g id="a_node41"><a xlink:href="InertialElement_8h.html" target="_top" xlink:title=" ">
<polygon fill="none" stroke="red" points="2865.99,-73 2865.99,-92 2966.99,-92 2966.99,-73 2865.99,-73"/>
<text text-anchor="middle" x="2916.49" y="-80" font-family="FreeSans.ttf" font-size="10.00">InertialElement.h</text>
</a>
</g>
</g>
<!-- Node11&#45;&gt;Node59 -->
<g id="edge45" class="edge">
<title>Node11&#45;&gt;Node59</title>
<path fill="none" stroke="midnightblue" d="M2121.7,-134.54C2122.98,-134.34 2124.24,-134.16 2125.49,-134 2445.81,-92.02 2531.35,-141.33 2851.49,-98 2861.92,-96.59 2873.14,-94.35 2883.29,-92.05"/>
<polygon fill="midnightblue" stroke="midnightblue" points="2121.09,-131.09 2111.85,-136.27 2122.3,-137.99 2121.09,-131.09"/>
</g>
<!-- Node11&#45;&gt;Node50 -->
<g id="edge47" class="edge">
<title>Node11&#45;&gt;Node50</title>
<path fill="none" stroke="midnightblue" d="M2045.41,-141.64C1991.86,-139.76 1891.25,-136.33 1805.49,-134 1439.54,-124.08 522.6,-136 158.49,-98 145.91,-96.69 132.31,-94.41 120.09,-92.05"/>
<polygon fill="midnightblue" stroke="midnightblue" points="2045.36,-145.14 2055.48,-142 2045.61,-138.15 2045.36,-145.14"/>
</g>
<!-- Node12&#45;&gt;Node13 -->
<g id="edge12" class="edge">
<title>Node12&#45;&gt;Node13</title>
<path fill="none" stroke="midnightblue" d="M3234.47,-59.45C3242.26,-49.9 3251.14,-39 3258.01,-30.58"/>
<polygon fill="midnightblue" stroke="midnightblue" points="3231.6,-57.43 3227.99,-67.4 3237.02,-61.86 3231.6,-57.43"/>
</g>
<!-- Node47&#45;&gt;Node45 -->
<g id="edge40" class="edge">
<title>Node47&#45;&gt;Node45</title>
<path fill="none" stroke="midnightblue" d="M3042.82,-63.66C3049.38,-51.13 3057.86,-34.91 3062.98,-25.13"/>
<polygon fill="midnightblue" stroke="midnightblue" points="3039.61,-62.25 3038.08,-72.73 3045.81,-65.5 3039.61,-62.25"/>
</g>
<!-- Node52&#45;&gt;Node8 -->
<g id="edge43" class="edge">
<title>Node52&#45;&gt;Node8</title>
<path fill="none" stroke="midnightblue" d="M2729.46,-70.37C2723.83,-69 2718.04,-67.8 2712.49,-67 2462.51,-30.89 626.3,-18.97 242.64,-16.86"/>
<polygon fill="midnightblue" stroke="midnightblue" points="2728.78,-73.81 2739.34,-72.97 2730.56,-67.04 2728.78,-73.81"/>
</g>
<!-- Node52&#45;&gt;Node13 -->
<g id="edge42" class="edge">
<title>Node52&#45;&gt;Node13</title>
<path fill="none" stroke="midnightblue" d="M2820.04,-72.59C2832.34,-70.66 2845.36,-68.7 2857.49,-67 2919.85,-58.27 3089.05,-37.93 3190.17,-25.89"/>
<polygon fill="midnightblue" stroke="midnightblue" points="2819.23,-69.17 2809.9,-74.19 2820.32,-76.08 2819.23,-69.17"/>
</g>
<!-- Node52&#45;&gt;Node53 -->
<g id="edge44" class="edge">
<title>Node52&#45;&gt;Node53</title>
<path fill="none" stroke="midnightblue" d="M2775.37,-63.66C2782.31,-51.13 2791.29,-34.91 2796.71,-25.13"/>
<polygon fill="midnightblue" stroke="midnightblue" points="2772.13,-62.29 2770.35,-72.73 2778.25,-65.68 2772.13,-62.29"/>
</g>
</g>
</svg>
