<?xml version="1.0" encoding="UTF-8" standalone="no"?>
<!DOCTYPE svg PUBLIC "-//W3C//DTD SVG 1.1//EN"
 "http://www.w3.org/Graphics/SVG/1.1/DTD/svg11.dtd">
<!-- Generated by graphviz version 2.43.0 (0)
 -->
<!-- Title: SpatialForceVector.cpp Pages: 1 -->
<svg width="1366pt" height="599pt"
 viewBox="0.00 0.00 1365.50 599.00" xmlns="http://www.w3.org/2000/svg" xmlns:xlink="http://www.w3.org/1999/xlink">
<g id="graph0" class="graph" transform="scale(1 1) rotate(0) translate(4 595)">
<title>SpatialForceVector.cpp</title>
<!-- Node1 -->
<g id="node1" class="node">
<title>Node1</title>
<g id="a_node1"><a xlink:title=" ">
<polygon fill="#bfbfbf" stroke="black" points="1159,-571.5 1159,-590.5 1286,-590.5 1286,-571.5 1159,-571.5"/>
<text text-anchor="middle" x="1222.5" y="-578.5" font-family="FreeSans.ttf" font-size="10.00">SpatialForceVector.cpp</text>
</a>
</g>
</g>
<!-- Node2 -->
<g id="node2" class="node">
<title>Node2</title>
<g id="a_node2"><a xlink:href="SpatialForceVector_8h.html" target="_top" xlink:title=" ">
<polygon fill="none" stroke="black" points="974.5,-448.5 974.5,-478.5 1122.5,-478.5 1122.5,-448.5 974.5,-448.5"/>
<text text-anchor="start" x="982.5" y="-466.5" font-family="FreeSans.ttf" font-size="10.00">iDynTree/Core/SpatialForce</text>
<text text-anchor="middle" x="1048.5" y="-455.5" font-family="FreeSans.ttf" font-size="10.00">Vector.h</text>
</a>
</g>
</g>
<!-- Node1&#45;&gt;Node2 -->
<g id="edge1" class="edge">
<title>Node1&#45;&gt;Node2</title>
<path fill="none" stroke="midnightblue" d="M1209.42,-571.32C1181.76,-552.96 1116.74,-509.8 1078.35,-484.31"/>
<polygon fill="midnightblue" stroke="midnightblue" points="1079.93,-481.16 1069.66,-478.55 1076.06,-486.99 1079.93,-481.16"/>
</g>
<!-- Node4 -->
<g id="node4" class="node">
<title>Node4</title>
<g id="a_node4"><a xlink:href="Utils_8h.html" target="_top" xlink:title=" ">
<polygon fill="none" stroke="black" points="1021,-56.5 1021,-75.5 1140,-75.5 1140,-56.5 1021,-56.5"/>
<text text-anchor="middle" x="1080.5" y="-63.5" font-family="FreeSans.ttf" font-size="10.00">iDynTree/Core/Utils.h</text>
</a>
</g>
</g>
<!-- Node1&#45;&gt;Node4 -->
<g id="edge52" class="edge">
<title>Node1&#45;&gt;Node4</title>
<path fill="none" stroke="midnightblue" d="M1237.66,-571.38C1264.94,-554.61 1319.5,-514.78 1319.5,-464.5 1319.5,-464.5 1319.5,-464.5 1319.5,-177 1319.5,-140.82 1300.79,-131.79 1270.5,-112 1234.81,-88.68 1188.33,-77.42 1150.28,-71.99"/>
<polygon fill="midnightblue" stroke="midnightblue" points="1150.67,-68.51 1140.29,-70.67 1149.75,-75.45 1150.67,-68.51"/>
</g>
<!-- Node17 -->
<g id="node17" class="node">
<title>Node17</title>
<g id="a_node17"><a xlink:title=" ">
<polygon fill="none" stroke="#bfbfbf" points="1058.5,-112.5 1058.5,-131.5 1114.5,-131.5 1114.5,-112.5 1058.5,-112.5"/>
<text text-anchor="middle" x="1086.5" y="-119.5" font-family="FreeSans.ttf" font-size="10.00">sstream</text>
</a>
</g>
</g>
<!-- Node1&#45;&gt;Node17 -->
<g id="edge75" class="edge">
<title>Node1&#45;&gt;Node17</title>
<path fill="none" stroke="midnightblue" d="M1223.39,-571.23C1225.32,-549.86 1229,-493.55 1219.5,-448 1193.71,-324.31 1122.5,-187.87 1096.32,-140.41"/>
<polygon fill="midnightblue" stroke="midnightblue" points="1099.38,-138.7 1091.45,-131.66 1093.26,-142.1 1099.38,-138.7"/>
</g>
<!-- Node28 -->
<g id="node28" class="node">
<title>Node28</title>
<g id="a_node28"><a xlink:href="EigenHelpers_8h.html" target="_top" xlink:title=" ">
<polygon fill="none" stroke="black" points="753,-515.5 753,-534.5 914,-534.5 914,-515.5 753,-515.5"/>
<text text-anchor="middle" x="833.5" y="-522.5" font-family="FreeSans.ttf" font-size="10.00">iDynTree/Core/EigenHelpers.h</text>
</a>
</g>
</g>
<!-- Node1&#45;&gt;Node28 -->
<g id="edge53" class="edge">
<title>Node1&#45;&gt;Node28</title>
<path fill="none" stroke="midnightblue" d="M1160.86,-571.44C1091.29,-561.79 978.29,-546.1 904.93,-535.92"/>
<polygon fill="midnightblue" stroke="midnightblue" points="905.24,-532.42 894.85,-534.52 904.27,-539.36 905.24,-532.42"/>
</g>
<!-- Node3 -->
<g id="node3" class="node">
<title>Node3</title>
<g id="a_node3"><a xlink:href="VectorFixSize_8h.html" target="_top" xlink:title=" ">
<polygon fill="none" stroke="black" points="734.5,-168.5 734.5,-187.5 896.5,-187.5 896.5,-168.5 734.5,-168.5"/>
<text text-anchor="middle" x="815.5" y="-175.5" font-family="FreeSans.ttf" font-size="10.00">iDynTree/Core/VectorFixSize.h</text>
</a>
</g>
</g>
<!-- Node2&#45;&gt;Node3 -->
<g id="edge2" class="edge">
<title>Node2&#45;&gt;Node3</title>
<path fill="none" stroke="midnightblue" d="M1092.03,-448.42C1119.55,-436.77 1148.09,-417.91 1137.5,-392 1097.89,-295.13 1062.44,-277.52 972.5,-224 944.37,-207.26 909.68,-196.47 880.07,-189.66"/>
<polygon fill="midnightblue" stroke="midnightblue" points="880.76,-186.23 870.24,-187.5 879.26,-193.07 880.76,-186.23"/>
</g>
<!-- Node19 -->
<g id="node19" class="node">
<title>Node19</title>
<g id="a_node19"><a xlink:href="GeomVector3_8h.html" target="_top" xlink:title=" ">
<polygon fill="none" stroke="black" points="801,-224.5 801,-243.5 964,-243.5 964,-224.5 801,-224.5"/>
<text text-anchor="middle" x="882.5" y="-231.5" font-family="FreeSans.ttf" font-size="10.00">iDynTree/Core/GeomVector3.h</text>
</a>
</g>
</g>
<!-- Node2&#45;&gt;Node19 -->
<g id="edge21" class="edge">
<title>Node2&#45;&gt;Node19</title>
<path fill="none" stroke="midnightblue" d="M1011.46,-448.42C993.55,-440.08 972.88,-427.99 958.5,-412 915.52,-364.21 894.24,-288.41 886.3,-253.6"/>
<polygon fill="midnightblue" stroke="midnightblue" points="889.72,-252.85 884.18,-243.82 882.88,-254.34 889.72,-252.85"/>
</g>
<!-- Node20 -->
<g id="node20" class="node">
<title>Node20</title>
<g id="a_node20"><a xlink:href="SpatialVector_8h.html" target="_top" xlink:title=" ">
<polygon fill="none" stroke="black" points="968,-392.5 968,-411.5 1129,-411.5 1129,-392.5 968,-392.5"/>
<text text-anchor="middle" x="1048.5" y="-399.5" font-family="FreeSans.ttf" font-size="10.00">iDynTree/Core/SpatialVector.h</text>
</a>
</g>
</g>
<!-- Node2&#45;&gt;Node20 -->
<g id="edge23" class="edge">
<title>Node2&#45;&gt;Node20</title>
<path fill="none" stroke="midnightblue" d="M1048.5,-448.4C1048.5,-440.47 1048.5,-430.46 1048.5,-421.86"/>
<polygon fill="midnightblue" stroke="midnightblue" points="1052,-421.66 1048.5,-411.66 1045,-421.66 1052,-421.66"/>
</g>
<!-- Node3&#45;&gt;Node4 -->
<g id="edge3" class="edge">
<title>Node3&#45;&gt;Node4</title>
<path fill="none" stroke="midnightblue" d="M824.73,-168.49C840.24,-154.64 873.04,-127.22 905.5,-112 940.53,-95.57 982.42,-84.53 1016.43,-77.49"/>
<polygon fill="midnightblue" stroke="midnightblue" points="1017.14,-80.92 1026.26,-75.53 1015.77,-74.06 1017.14,-80.92"/>
</g>
<!-- Node5 -->
<g id="node5" class="node">
<title>Node5</title>
<g id="a_node5"><a xlink:title=" ">
<polygon fill="none" stroke="#bfbfbf" points="919,-0.5 919,-19.5 972,-19.5 972,-0.5 919,-0.5"/>
<text text-anchor="middle" x="945.5" y="-7.5" font-family="FreeSans.ttf" font-size="10.00">cstddef</text>
</a>
</g>
</g>
<!-- Node3&#45;&gt;Node5 -->
<g id="edge19" class="edge">
<title>Node3&#45;&gt;Node5</title>
<path fill="none" stroke="midnightblue" d="M822.49,-168.08C843.31,-141.49 905.14,-62.54 932.37,-27.76"/>
<polygon fill="midnightblue" stroke="midnightblue" points="935.38,-29.6 938.79,-19.57 929.87,-25.28 935.38,-29.6"/>
</g>
<!-- Node7 -->
<g id="node7" class="node">
<title>Node7</title>
<g id="a_node7"><a xlink:href="Span_8h.html" target="_top" xlink:title=" ">
<polygon fill="none" stroke="black" points="531,-56.5 531,-75.5 652,-75.5 652,-56.5 531,-56.5"/>
<text text-anchor="middle" x="591.5" y="-63.5" font-family="FreeSans.ttf" font-size="10.00">iDynTree/Core/Span.h</text>
</a>
</g>
</g>
<!-- Node3&#45;&gt;Node7 -->
<g id="edge6" class="edge">
<title>Node3&#45;&gt;Node7</title>
<path fill="none" stroke="midnightblue" d="M752.14,-168.43C703.5,-160.75 641.41,-148.21 621.5,-132 607.21,-120.37 599.41,-100.42 595.38,-85.68"/>
<polygon fill="midnightblue" stroke="midnightblue" points="598.71,-84.56 592.98,-75.65 591.9,-86.19 598.71,-84.56"/>
</g>
<!-- Node8 -->
<g id="node8" class="node">
<title>Node8</title>
<g id="a_node8"><a xlink:title=" ">
<polygon fill="none" stroke="#bfbfbf" points="798.5,-0.5 798.5,-19.5 850.5,-19.5 850.5,-0.5 798.5,-0.5"/>
<text text-anchor="middle" x="824.5" y="-7.5" font-family="FreeSans.ttf" font-size="10.00">cassert</text>
</a>
</g>
</g>
<!-- Node3&#45;&gt;Node8 -->
<g id="edge18" class="edge">
<title>Node3&#45;&gt;Node8</title>
<path fill="none" stroke="midnightblue" d="M815.98,-168.08C817.4,-141.95 821.56,-65.21 823.49,-29.58"/>
<polygon fill="midnightblue" stroke="midnightblue" points="826.99,-29.74 824.04,-19.57 820,-29.36 826.99,-29.74"/>
</g>
<!-- Node16 -->
<g id="node16" class="node">
<title>Node16</title>
<g id="a_node16"><a xlink:title=" ">
<polygon fill="none" stroke="#bfbfbf" points="460.5,-112.5 460.5,-131.5 504.5,-131.5 504.5,-112.5 460.5,-112.5"/>
<text text-anchor="middle" x="482.5" y="-119.5" font-family="FreeSans.ttf" font-size="10.00">string</text>
</a>
</g>
</g>
<!-- Node3&#45;&gt;Node16 -->
<g id="edge16" class="edge">
<title>Node3&#45;&gt;Node16</title>
<path fill="none" stroke="midnightblue" d="M762.74,-168.44C692.99,-157.13 572.23,-137.55 514.73,-128.23"/>
<polygon fill="midnightblue" stroke="midnightblue" points="515.19,-124.76 504.76,-126.61 514.07,-131.66 515.19,-124.76"/>
</g>
<!-- Node3&#45;&gt;Node17 -->
<g id="edge17" class="edge">
<title>Node3&#45;&gt;Node17</title>
<path fill="none" stroke="midnightblue" d="M858.44,-168.44C910.69,-158.03 998.12,-140.61 1048.18,-130.63"/>
<polygon fill="midnightblue" stroke="midnightblue" points="1049.15,-134.01 1058.27,-128.62 1047.78,-127.15 1049.15,-134.01"/>
</g>
<!-- Node18 -->
<g id="node18" class="node">
<title>Node18</title>
<g id="a_node18"><a xlink:title=" ">
<polygon fill="none" stroke="#bfbfbf" points="914.5,-112.5 914.5,-131.5 964.5,-131.5 964.5,-112.5 914.5,-112.5"/>
<text text-anchor="middle" x="939.5" y="-119.5" font-family="FreeSans.ttf" font-size="10.00">cstring</text>
</a>
</g>
</g>
<!-- Node3&#45;&gt;Node18 -->
<g id="edge20" class="edge">
<title>Node3&#45;&gt;Node18</title>
<path fill="none" stroke="midnightblue" d="M835.15,-168.44C855.46,-159.6 887.4,-145.69 910.6,-135.59"/>
<polygon fill="midnightblue" stroke="midnightblue" points="912.17,-138.72 919.94,-131.52 909.38,-132.3 912.17,-138.72"/>
</g>
<!-- Node4&#45;&gt;Node5 -->
<g id="edge4" class="edge">
<title>Node4&#45;&gt;Node5</title>
<path fill="none" stroke="midnightblue" d="M1059.11,-56.44C1036.79,-47.52 1001.6,-33.44 976.29,-23.32"/>
<polygon fill="midnightblue" stroke="midnightblue" points="977.38,-19.98 966.79,-19.52 974.78,-26.48 977.38,-19.98"/>
</g>
<!-- Node6 -->
<g id="node6" class="node">
<title>Node6</title>
<g id="a_node6"><a xlink:title=" ">
<polygon fill="none" stroke="#bfbfbf" points="1040.5,-0.5 1040.5,-19.5 1120.5,-19.5 1120.5,-0.5 1040.5,-0.5"/>
<text text-anchor="middle" x="1080.5" y="-7.5" font-family="FreeSans.ttf" font-size="10.00">CoreExport.h</text>
</a>
</g>
</g>
<!-- Node4&#45;&gt;Node6 -->
<g id="edge5" class="edge">
<title>Node4&#45;&gt;Node6</title>
<path fill="none" stroke="midnightblue" d="M1080.5,-56.08C1080.5,-49.01 1080.5,-38.86 1080.5,-29.99"/>
<polygon fill="midnightblue" stroke="midnightblue" points="1084,-29.75 1080.5,-19.75 1077,-29.75 1084,-29.75"/>
</g>
<!-- Node7&#45;&gt;Node5 -->
<g id="edge10" class="edge">
<title>Node7&#45;&gt;Node5</title>
<path fill="none" stroke="midnightblue" d="M647.59,-56.44C720.76,-45.28 846.72,-26.07 908.77,-16.6"/>
<polygon fill="midnightblue" stroke="midnightblue" points="909.52,-20.03 918.88,-15.06 908.46,-13.11 909.52,-20.03"/>
</g>
<!-- Node7&#45;&gt;Node8 -->
<g id="edge7" class="edge">
<title>Node7&#45;&gt;Node8</title>
<path fill="none" stroke="midnightblue" d="M630.06,-56.44C667.79,-48 727.15,-34.59 788.34,-20"/>
<polygon fill="midnightblue" stroke="midnightblue" points="789.26,-23.38 798.17,-17.65 787.63,-16.57 789.26,-23.38"/>
</g>
<!-- Node9 -->
<g id="node9" class="node">
<title>Node9</title>
<g id="a_node9"><a xlink:title=" ">
<polygon fill="none" stroke="#bfbfbf" points="628.5,-0.5 628.5,-19.5 692.5,-19.5 692.5,-0.5 628.5,-0.5"/>
<text text-anchor="middle" x="660.5" y="-7.5" font-family="FreeSans.ttf" font-size="10.00">algorithm</text>
</a>
</g>
</g>
<!-- Node7&#45;&gt;Node9 -->
<g id="edge8" class="edge">
<title>Node7&#45;&gt;Node9</title>
<path fill="none" stroke="midnightblue" d="M602.59,-56.32C612.99,-48.18 628.76,-35.84 641.22,-26.09"/>
<polygon fill="midnightblue" stroke="midnightblue" points="643.49,-28.75 649.21,-19.83 639.18,-23.24 643.49,-28.75"/>
</g>
<!-- Node10 -->
<g id="node10" class="node">
<title>Node10</title>
<g id="a_node10"><a xlink:title=" ">
<polygon fill="none" stroke="#bfbfbf" points="287.5,-0.5 287.5,-19.5 329.5,-19.5 329.5,-0.5 287.5,-0.5"/>
<text text-anchor="middle" x="308.5" y="-7.5" font-family="FreeSans.ttf" font-size="10.00">array</text>
</a>
</g>
</g>
<!-- Node7&#45;&gt;Node10 -->
<g id="edge9" class="edge">
<title>Node7&#45;&gt;Node10</title>
<path fill="none" stroke="midnightblue" d="M532.57,-56.49C483.35,-48.94 411.2,-36.83 339.79,-20.09"/>
<polygon fill="midnightblue" stroke="midnightblue" points="340.26,-16.6 329.72,-17.7 338.64,-23.41 340.26,-16.6"/>
</g>
<!-- Node11 -->
<g id="node11" class="node">
<title>Node11</title>
<g id="a_node11"><a xlink:title=" ">
<polygon fill="none" stroke="#bfbfbf" points="348,-0.5 348,-19.5 401,-19.5 401,-0.5 348,-0.5"/>
<text text-anchor="middle" x="374.5" y="-7.5" font-family="FreeSans.ttf" font-size="10.00">iterator</text>
</a>
</g>
</g>
<!-- Node7&#45;&gt;Node11 -->
<g id="edge11" class="edge">
<title>Node7&#45;&gt;Node11</title>
<path fill="none" stroke="midnightblue" d="M557.13,-56.47C522.72,-47.92 467.96,-34.32 411.12,-20.15"/>
<polygon fill="midnightblue" stroke="midnightblue" points="411.79,-16.71 401.24,-17.69 410.09,-23.5 411.79,-16.71"/>
</g>
<!-- Node12 -->
<g id="node12" class="node">
<title>Node12</title>
<g id="a_node12"><a xlink:title=" ">
<polygon fill="none" stroke="#bfbfbf" points="419.5,-0.5 419.5,-19.5 463.5,-19.5 463.5,-0.5 419.5,-0.5"/>
<text text-anchor="middle" x="441.5" y="-7.5" font-family="FreeSans.ttf" font-size="10.00">limits</text>
</a>
</g>
</g>
<!-- Node7&#45;&gt;Node12 -->
<g id="edge12" class="edge">
<title>Node7&#45;&gt;Node12</title>
<path fill="none" stroke="midnightblue" d="M567.73,-56.44C542.16,-47.24 501.38,-32.56 473.12,-22.38"/>
<polygon fill="midnightblue" stroke="midnightblue" points="474.28,-19.08 463.69,-18.99 471.91,-25.67 474.28,-19.08"/>
</g>
<!-- Node13 -->
<g id="node13" class="node">
<title>Node13</title>
<g id="a_node13"><a xlink:title=" ">
<polygon fill="none" stroke="#bfbfbf" points="482,-0.5 482,-19.5 547,-19.5 547,-0.5 482,-0.5"/>
<text text-anchor="middle" x="514.5" y="-7.5" font-family="FreeSans.ttf" font-size="10.00">stdexcept</text>
</a>
</g>
</g>
<!-- Node7&#45;&gt;Node13 -->
<g id="edge13" class="edge">
<title>Node7&#45;&gt;Node13</title>
<path fill="none" stroke="midnightblue" d="M579.13,-56.32C567.34,-48.06 549.37,-35.45 535.36,-25.63"/>
<polygon fill="midnightblue" stroke="midnightblue" points="537.04,-22.53 526.84,-19.65 533.02,-28.26 537.04,-22.53"/>
</g>
<!-- Node14 -->
<g id="node14" class="node">
<title>Node14</title>
<g id="a_node14"><a xlink:title=" ">
<polygon fill="none" stroke="#bfbfbf" points="711,-0.5 711,-19.5 780,-19.5 780,-0.5 711,-0.5"/>
<text text-anchor="middle" x="745.5" y="-7.5" font-family="FreeSans.ttf" font-size="10.00">type_traits</text>
</a>
</g>
</g>
<!-- Node7&#45;&gt;Node14 -->
<g id="edge14" class="edge">
<title>Node7&#45;&gt;Node14</title>
<path fill="none" stroke="midnightblue" d="M615.9,-56.44C641.7,-47.4 682.58,-33.06 711.52,-22.92"/>
<polygon fill="midnightblue" stroke="midnightblue" points="712.93,-26.13 721.21,-19.52 710.62,-19.52 712.93,-26.13"/>
</g>
<!-- Node15 -->
<g id="node15" class="node">
<title>Node15</title>
<g id="a_node15"><a xlink:title=" ">
<polygon fill="none" stroke="#bfbfbf" points="565,-0.5 565,-19.5 610,-19.5 610,-0.5 565,-0.5"/>
<text text-anchor="middle" x="587.5" y="-7.5" font-family="FreeSans.ttf" font-size="10.00">utility</text>
</a>
</g>
</g>
<!-- Node7&#45;&gt;Node15 -->
<g id="edge15" class="edge">
<title>Node7&#45;&gt;Node15</title>
<path fill="none" stroke="midnightblue" d="M590.84,-56.08C590.32,-49.01 589.56,-38.86 588.91,-29.99"/>
<polygon fill="midnightblue" stroke="midnightblue" points="592.38,-29.47 588.15,-19.75 585.4,-29.98 592.38,-29.47"/>
</g>
<!-- Node19&#45;&gt;Node3 -->
<g id="edge22" class="edge">
<title>Node19&#45;&gt;Node3</title>
<path fill="none" stroke="midnightblue" d="M871.74,-224.32C861.73,-216.26 846.61,-204.08 834.57,-194.37"/>
<polygon fill="midnightblue" stroke="midnightblue" points="836.44,-191.38 826.46,-187.83 832.05,-196.83 836.44,-191.38"/>
</g>
<!-- Node20&#45;&gt;Node4 -->
<g id="edge48" class="edge">
<title>Node20&#45;&gt;Node4</title>
<path fill="none" stroke="midnightblue" d="M1059.69,-392.31C1070,-383.88 1085.2,-370.3 1095.5,-356 1159.9,-266.65 1177.36,-239.46 1201.5,-132 1203.45,-123.33 1206.57,-119.3 1201.5,-112 1189.46,-94.68 1169.93,-84.01 1150.03,-77.45"/>
<polygon fill="midnightblue" stroke="midnightblue" points="1150.85,-74.04 1140.26,-74.54 1148.85,-80.75 1150.85,-74.04"/>
</g>
<!-- Node20&#45;&gt;Node17 -->
<g id="edge51" class="edge">
<title>Node20&#45;&gt;Node17</title>
<path fill="none" stroke="midnightblue" d="M1050.86,-392.23C1057.14,-368.53 1074.31,-301.15 1082.5,-244 1086.04,-219.3 1085.61,-212.94 1086.5,-188 1087.05,-172.47 1087.01,-154.85 1086.85,-141.87"/>
<polygon fill="midnightblue" stroke="midnightblue" points="1090.35,-141.78 1086.7,-131.83 1083.35,-141.89 1090.35,-141.78"/>
</g>
<!-- Node20&#45;&gt;Node19 -->
<g id="edge49" class="edge">
<title>Node20&#45;&gt;Node19</title>
<path fill="none" stroke="midnightblue" d="M1039.58,-392.08C1012.77,-365.27 932.69,-285.19 898.39,-250.89"/>
<polygon fill="midnightblue" stroke="midnightblue" points="900.61,-248.16 891.07,-243.57 895.66,-253.11 900.61,-248.16"/>
</g>
<!-- Node21 -->
<g id="node21" class="node">
<title>Node21</title>
<g id="a_node21"><a xlink:href="Position_8h.html" target="_top" xlink:title=" ">
<polygon fill="none" stroke="black" points="311,-336.5 311,-355.5 376,-355.5 376,-336.5 311,-336.5"/>
<text text-anchor="middle" x="343.5" y="-343.5" font-family="FreeSans.ttf" font-size="10.00">Position.h</text>
</a>
</g>
</g>
<!-- Node20&#45;&gt;Node21 -->
<g id="edge24" class="edge">
<title>Node20&#45;&gt;Node21</title>
<path fill="none" stroke="midnightblue" d="M967.97,-394.83C818.2,-383.36 501.57,-359.11 386.47,-350.29"/>
<polygon fill="midnightblue" stroke="midnightblue" points="386.53,-346.79 376.29,-349.51 386,-353.77 386.53,-346.79"/>
</g>
<!-- Node23 -->
<g id="node23" class="node">
<title>Node23</title>
<g id="a_node23"><a xlink:href="Rotation_8h.html" target="_top" xlink:title=" ">
<polygon fill="none" stroke="black" points="558.5,-280.5 558.5,-299.5 696.5,-299.5 696.5,-280.5 558.5,-280.5"/>
<text text-anchor="middle" x="627.5" y="-287.5" font-family="FreeSans.ttf" font-size="10.00">iDynTree/Core/Rotation.h</text>
</a>
</g>
</g>
<!-- Node20&#45;&gt;Node23 -->
<g id="edge47" class="edge">
<title>Node20&#45;&gt;Node23</title>
<path fill="none" stroke="midnightblue" d="M1015.82,-392.46C940.35,-372.74 754.01,-324.05 669.9,-302.08"/>
<polygon fill="midnightblue" stroke="midnightblue" points="670.72,-298.68 660.16,-299.53 668.95,-305.45 670.72,-298.68"/>
</g>
<!-- Node27 -->
<g id="node27" class="node">
<title>Node27</title>
<g id="a_node27"><a xlink:title=" ">
<polygon fill="none" stroke="#bfbfbf" points="1132.5,-112.5 1132.5,-131.5 1192.5,-131.5 1192.5,-112.5 1132.5,-112.5"/>
<text text-anchor="middle" x="1162.5" y="-119.5" font-family="FreeSans.ttf" font-size="10.00">iostream</text>
</a>
</g>
</g>
<!-- Node20&#45;&gt;Node27 -->
<g id="edge50" class="edge">
<title>Node20&#45;&gt;Node27</title>
<path fill="none" stroke="midnightblue" d="M1054.63,-392.34C1060.71,-383.5 1070.03,-369.22 1076.5,-356 1114.09,-279.18 1145.06,-181.52 1157.1,-141.44"/>
<polygon fill="midnightblue" stroke="midnightblue" points="1160.49,-142.31 1159.98,-131.72 1153.78,-140.31 1160.49,-142.31"/>
</g>
<!-- Node21&#45;&gt;Node16 -->
<g id="edge46" class="edge">
<title>Node21&#45;&gt;Node16</title>
<path fill="none" stroke="midnightblue" d="M327.82,-336.36C294.65,-316.93 222.68,-268.06 251.5,-224 296.11,-155.81 398.01,-133.38 450.27,-126.22"/>
<polygon fill="midnightblue" stroke="midnightblue" points="450.85,-129.68 460.34,-124.95 449.98,-122.73 450.85,-129.68"/>
</g>
<!-- Node22 -->
<g id="node22" class="node">
<title>Node22</title>
<g id="a_node22"><a xlink:href="PositionRaw_8h.html" target="_top" xlink:title=" ">
<polygon fill="none" stroke="black" points="260.5,-224.5 260.5,-243.5 416.5,-243.5 416.5,-224.5 260.5,-224.5"/>
<text text-anchor="middle" x="338.5" y="-231.5" font-family="FreeSans.ttf" font-size="10.00">iDynTree/Core/PositionRaw.h</text>
</a>
</g>
</g>
<!-- Node21&#45;&gt;Node22 -->
<g id="edge25" class="edge">
<title>Node21&#45;&gt;Node22</title>
<path fill="none" stroke="midnightblue" d="M343.11,-336.37C342.3,-318.62 340.44,-277.67 339.35,-253.6"/>
<polygon fill="midnightblue" stroke="midnightblue" points="342.84,-253.42 338.89,-243.59 335.85,-253.74 342.84,-253.42"/>
</g>
<!-- Node21&#45;&gt;Node23 -->
<g id="edge28" class="edge">
<title>Node21&#45;&gt;Node23</title>
<path fill="none" stroke="midnightblue" d="M376.08,-338.81C424.05,-329.68 514.29,-312.53 572.6,-301.44"/>
<polygon fill="midnightblue" stroke="midnightblue" points="573.57,-304.82 582.74,-299.51 572.26,-297.94 573.57,-304.82"/>
</g>
<!-- Node22&#45;&gt;Node3 -->
<g id="edge26" class="edge">
<title>Node22&#45;&gt;Node3</title>
<path fill="none" stroke="midnightblue" d="M413.82,-224.47C499.77,-214.74 640.03,-198.86 730.01,-188.68"/>
<polygon fill="midnightblue" stroke="midnightblue" points="730.64,-192.13 740.18,-187.53 729.85,-185.17 730.64,-192.13"/>
</g>
<!-- Node22&#45;&gt;Node16 -->
<g id="edge27" class="edge">
<title>Node22&#45;&gt;Node16</title>
<path fill="none" stroke="midnightblue" d="M349.8,-224.37C374.3,-205.65 432.56,-161.15 463.08,-137.83"/>
<polygon fill="midnightblue" stroke="midnightblue" points="465.43,-140.44 471.25,-131.59 461.18,-134.88 465.43,-140.44"/>
</g>
<!-- Node23&#45;&gt;Node3 -->
<g id="edge45" class="edge">
<title>Node23&#45;&gt;Node3</title>
<path fill="none" stroke="midnightblue" d="M645.66,-280.4C663.66,-271.71 691.88,-257.66 715.5,-244 743.63,-227.72 774.86,-206.97 794.81,-193.35"/>
<polygon fill="midnightblue" stroke="midnightblue" points="796.87,-196.18 803.13,-187.64 792.91,-190.41 796.87,-196.18"/>
</g>
<!-- Node23&#45;&gt;Node16 -->
<g id="edge29" class="edge">
<title>Node23&#45;&gt;Node16</title>
<path fill="none" stroke="midnightblue" d="M600.37,-280.44C581.31,-273.27 556.33,-261.38 539.5,-244 510.8,-214.35 494.48,-167.56 487.18,-141.71"/>
<polygon fill="midnightblue" stroke="midnightblue" points="490.48,-140.5 484.52,-131.74 483.71,-142.3 490.48,-140.5"/>
</g>
<!-- Node23&#45;&gt;Node19 -->
<g id="edge30" class="edge">
<title>Node23&#45;&gt;Node19</title>
<path fill="none" stroke="midnightblue" d="M667.91,-280.44C712.48,-271 784.27,-255.8 832.39,-245.61"/>
<polygon fill="midnightblue" stroke="midnightblue" points="833.23,-249.01 842.28,-243.52 831.78,-242.16 833.23,-249.01"/>
</g>
<!-- Node24 -->
<g id="node24" class="node">
<title>Node24</title>
<g id="a_node24"><a xlink:href="RotationRaw_8h.html" target="_top" xlink:title=" ">
<polygon fill="none" stroke="black" points="548.5,-224.5 548.5,-243.5 706.5,-243.5 706.5,-224.5 548.5,-224.5"/>
<text text-anchor="middle" x="627.5" y="-231.5" font-family="FreeSans.ttf" font-size="10.00">iDynTree/Core/RotationRaw.h</text>
</a>
</g>
</g>
<!-- Node23&#45;&gt;Node24 -->
<g id="edge31" class="edge">
<title>Node23&#45;&gt;Node24</title>
<path fill="none" stroke="midnightblue" d="M627.5,-280.08C627.5,-273.01 627.5,-262.86 627.5,-253.99"/>
<polygon fill="midnightblue" stroke="midnightblue" points="631,-253.75 627.5,-243.75 624,-253.75 631,-253.75"/>
</g>
<!-- Node24&#45;&gt;Node16 -->
<g id="edge44" class="edge">
<title>Node24&#45;&gt;Node16</title>
<path fill="none" stroke="midnightblue" d="M605.18,-224.38C586.53,-216.55 559.81,-203.82 539.5,-188 521.63,-174.08 505.02,-153.98 494.39,-139.82"/>
<polygon fill="midnightblue" stroke="midnightblue" points="497.04,-137.52 488.32,-131.51 491.39,-141.65 497.04,-137.52"/>
</g>
<!-- Node25 -->
<g id="node25" class="node">
<title>Node25</title>
<g id="a_node25"><a xlink:href="MatrixFixSize_8h.html" target="_top" xlink:title=" ">
<polygon fill="none" stroke="black" points="915,-168.5 915,-187.5 1078,-187.5 1078,-168.5 915,-168.5"/>
<text text-anchor="middle" x="996.5" y="-175.5" font-family="FreeSans.ttf" font-size="10.00">iDynTree/Core/MatrixFixSize.h</text>
</a>
</g>
</g>
<!-- Node24&#45;&gt;Node25 -->
<g id="edge32" class="edge">
<title>Node24&#45;&gt;Node25</title>
<path fill="none" stroke="midnightblue" d="M685.97,-224.44C751.82,-214.81 858.72,-199.16 928.32,-188.98"/>
<polygon fill="midnightblue" stroke="midnightblue" points="928.92,-192.43 938.3,-187.52 927.9,-185.5 928.92,-192.43"/>
</g>
<!-- Node25&#45;&gt;Node4 -->
<g id="edge33" class="edge">
<title>Node25&#45;&gt;Node4</title>
<path fill="none" stroke="midnightblue" d="M1003.09,-168.37C1017.02,-150.14 1049.63,-107.43 1067.77,-83.68"/>
<polygon fill="midnightblue" stroke="midnightblue" points="1070.65,-85.66 1073.94,-75.59 1065.09,-81.41 1070.65,-85.66"/>
</g>
<!-- Node25&#45;&gt;Node8 -->
<g id="edge39" class="edge">
<title>Node25&#45;&gt;Node8</title>
<path fill="none" stroke="midnightblue" d="M995.18,-168.17C992.82,-154.82 986.82,-129.24 973.5,-112 941.42,-70.47 887.32,-39.96 853.88,-23.89"/>
<polygon fill="midnightblue" stroke="midnightblue" points="855.17,-20.63 844.63,-19.56 852.2,-26.97 855.17,-20.63"/>
</g>
<!-- Node25&#45;&gt;Node16 -->
<g id="edge41" class="edge">
<title>Node25&#45;&gt;Node16</title>
<path fill="none" stroke="midnightblue" d="M915.34,-168.47C800.24,-156.38 594.74,-134.79 515.2,-126.44"/>
<polygon fill="midnightblue" stroke="midnightblue" points="515.14,-122.91 504.83,-125.35 514.41,-129.87 515.14,-122.91"/>
</g>
<!-- Node25&#45;&gt;Node17 -->
<g id="edge43" class="edge">
<title>Node25&#45;&gt;Node17</title>
<path fill="none" stroke="midnightblue" d="M1010.96,-168.32C1025,-159.9 1046.55,-146.97 1063.04,-137.07"/>
<polygon fill="midnightblue" stroke="midnightblue" points="1065.3,-139.8 1072.08,-131.65 1061.7,-133.8 1065.3,-139.8"/>
</g>
<!-- Node25&#45;&gt;Node18 -->
<g id="edge40" class="edge">
<title>Node25&#45;&gt;Node18</title>
<path fill="none" stroke="midnightblue" d="M987.34,-168.32C979,-160.42 966.47,-148.55 956.32,-138.94"/>
<polygon fill="midnightblue" stroke="midnightblue" points="958.49,-136.17 948.82,-131.83 953.68,-141.25 958.49,-136.17"/>
</g>
<!-- Node26 -->
<g id="node26" class="node">
<title>Node26</title>
<g id="a_node26"><a xlink:href="MatrixView_8h.html" target="_top" xlink:title=" ">
<polygon fill="none" stroke="black" points="630.5,-112.5 630.5,-131.5 782.5,-131.5 782.5,-112.5 630.5,-112.5"/>
<text text-anchor="middle" x="706.5" y="-119.5" font-family="FreeSans.ttf" font-size="10.00">iDynTree/Core/MatrixView.h</text>
</a>
</g>
</g>
<!-- Node25&#45;&gt;Node26 -->
<g id="edge34" class="edge">
<title>Node25&#45;&gt;Node26</title>
<path fill="none" stroke="midnightblue" d="M950.55,-168.44C899.43,-158.92 816.85,-143.55 762.12,-133.36"/>
<polygon fill="midnightblue" stroke="midnightblue" points="762.71,-129.91 752.24,-131.52 761.43,-136.79 762.71,-129.91"/>
</g>
<!-- Node25&#45;&gt;Node27 -->
<g id="edge42" class="edge">
<title>Node25&#45;&gt;Node27</title>
<path fill="none" stroke="midnightblue" d="M1022.8,-168.44C1050.85,-159.32 1095.44,-144.81 1126.68,-134.65"/>
<polygon fill="midnightblue" stroke="midnightblue" points="1127.89,-137.94 1136.32,-131.52 1125.73,-131.28 1127.89,-137.94"/>
</g>
<!-- Node26&#45;&gt;Node4 -->
<g id="edge38" class="edge">
<title>Node26&#45;&gt;Node4</title>
<path fill="none" stroke="midnightblue" d="M765.76,-112.44C832.51,-102.81 940.85,-87.16 1011.39,-76.98"/>
<polygon fill="midnightblue" stroke="midnightblue" points="1012.12,-80.41 1021.52,-75.52 1011.12,-73.48 1012.12,-80.41"/>
</g>
<!-- Node26&#45;&gt;Node7 -->
<g id="edge37" class="edge">
<title>Node26&#45;&gt;Node7</title>
<path fill="none" stroke="midnightblue" d="M688.28,-112.44C669.6,-103.68 640.34,-89.94 618.88,-79.86"/>
<polygon fill="midnightblue" stroke="midnightblue" points="620.18,-76.6 609.64,-75.52 617.2,-82.93 620.18,-76.6"/>
</g>
<!-- Node26&#45;&gt;Node8 -->
<g id="edge35" class="edge">
<title>Node26&#45;&gt;Node8</title>
<path fill="none" stroke="midnightblue" d="M715.76,-112.37C735.66,-93.81 782.76,-49.91 807.94,-26.44"/>
<polygon fill="midnightblue" stroke="midnightblue" points="810.36,-28.97 815.28,-19.59 805.58,-23.85 810.36,-28.97"/>
</g>
<!-- Node26&#45;&gt;Node14 -->
<g id="edge36" class="edge">
<title>Node26&#45;&gt;Node14</title>
<path fill="none" stroke="midnightblue" d="M709.56,-112.37C715.88,-94.54 730.5,-53.3 739.02,-29.27"/>
<polygon fill="midnightblue" stroke="midnightblue" points="742.41,-30.19 742.45,-19.59 735.81,-27.85 742.41,-30.19"/>
</g>
<!-- Node28&#45;&gt;Node2 -->
<g id="edge68" class="edge">
<title>Node28&#45;&gt;Node2</title>
<path fill="none" stroke="midnightblue" d="M864.3,-515.48C896.48,-506.57 947.8,-492.37 988.1,-481.22"/>
<polygon fill="midnightblue" stroke="midnightblue" points="989.12,-484.56 997.83,-478.52 987.26,-477.82 989.12,-484.56"/>
</g>
<!-- Node28&#45;&gt;Node3 -->
<g id="edge59" class="edge">
<title>Node28&#45;&gt;Node3</title>
<path fill="none" stroke="midnightblue" d="M752.67,-518.1C718.7,-512.25 680.44,-500.89 651.5,-479 552.78,-404.32 459.32,-318.31 539.5,-224 546.04,-216.31 660.67,-199.61 740.12,-188.85"/>
<polygon fill="midnightblue" stroke="midnightblue" points="740.66,-192.31 750.11,-187.51 739.73,-185.38 740.66,-192.31"/>
</g>
<!-- Node28&#45;&gt;Node4 -->
<g id="edge74" class="edge">
<title>Node28&#45;&gt;Node4</title>
<path fill="none" stroke="midnightblue" d="M914.22,-524.51C1013.43,-523.49 1174.21,-515.94 1219.5,-479 1287.68,-423.39 1281.5,-378.98 1281.5,-291 1281.5,-291 1281.5,-291 1281.5,-177 1281.5,-115.52 1208.23,-88.18 1150.17,-76.17"/>
<polygon fill="midnightblue" stroke="midnightblue" points="1150.75,-72.71 1140.26,-74.23 1149.41,-79.58 1150.75,-72.71"/>
</g>
<!-- Node28&#45;&gt;Node5 -->
<g id="edge54" class="edge">
<title>Node28&#45;&gt;Node5</title>
<path fill="none" stroke="midnightblue" d="M914.04,-518.69C989.47,-512.5 1095.77,-500.3 1131.5,-479 1274.89,-393.53 1357.5,-345.93 1357.5,-179 1357.5,-179 1357.5,-179 1357.5,-121 1357.5,-82.34 1083.27,-33.55 982.27,-16.88"/>
<polygon fill="midnightblue" stroke="midnightblue" points="982.65,-13.4 972.22,-15.24 981.52,-20.31 982.65,-13.4"/>
</g>
<!-- Node28&#45;&gt;Node25 -->
<g id="edge63" class="edge">
<title>Node28&#45;&gt;Node25</title>
<path fill="none" stroke="midnightblue" d="M861.96,-515.5C880.75,-508.52 904.57,-496.83 919.5,-479 954.64,-437.02 983.94,-297.91 993.5,-244 996.22,-228.69 996.88,-211.05 996.91,-198.01"/>
<polygon fill="midnightblue" stroke="midnightblue" points="1000.41,-197.88 996.81,-187.91 993.41,-197.95 1000.41,-197.88"/>
</g>
<!-- Node29 -->
<g id="node29" class="node">
<title>Node29</title>
<g id="a_node29"><a xlink:title=" ">
<polygon fill="none" stroke="#bfbfbf" points="661,-454 661,-473 738,-473 738,-454 661,-454"/>
<text text-anchor="middle" x="699.5" y="-461" font-family="FreeSans.ttf" font-size="10.00">Eigen/Dense</text>
</a>
</g>
</g>
<!-- Node28&#45;&gt;Node29 -->
<g id="edge55" class="edge">
<title>Node28&#45;&gt;Node29</title>
<path fill="none" stroke="midnightblue" d="M814.3,-515.48C791.71,-505.45 754,-488.7 728,-477.15"/>
<polygon fill="midnightblue" stroke="midnightblue" points="729.22,-473.87 718.66,-473.01 726.38,-480.27 729.22,-473.87"/>
</g>
<!-- Node30 -->
<g id="node30" class="node">
<title>Node30</title>
<g id="a_node30"><a xlink:href="VectorDynSize_8h.html" target="_top" xlink:title=" ">
<polygon fill="none" stroke="black" points="0,-168.5 0,-187.5 167,-187.5 167,-168.5 0,-168.5"/>
<text text-anchor="middle" x="83.5" y="-175.5" font-family="FreeSans.ttf" font-size="10.00">iDynTree/Core/VectorDynSize.h</text>
</a>
</g>
</g>
<!-- Node28&#45;&gt;Node30 -->
<g id="edge56" class="edge">
<title>Node28&#45;&gt;Node30</title>
<path fill="none" stroke="midnightblue" d="M752.75,-518.66C566.08,-505.23 120.5,-466.52 120.5,-403 120.5,-403 120.5,-403 120.5,-289 120.5,-254.89 104.32,-217.79 93.36,-196.57"/>
<polygon fill="midnightblue" stroke="midnightblue" points="96.31,-194.66 88.49,-187.51 90.14,-197.98 96.31,-194.66"/>
</g>
<!-- Node31 -->
<g id="node31" class="node">
<title>Node31</title>
<g id="a_node31"><a xlink:href="MatrixDynSize_8h.html" target="_top" xlink:title=" ">
<polygon fill="none" stroke="black" points="548.5,-168.5 548.5,-187.5 716.5,-187.5 716.5,-168.5 548.5,-168.5"/>
<text text-anchor="middle" x="632.5" y="-175.5" font-family="FreeSans.ttf" font-size="10.00">iDynTree/Core/MatrixDynSize.h</text>
</a>
</g>
</g>
<!-- Node28&#45;&gt;Node31 -->
<g id="edge60" class="edge">
<title>Node28&#45;&gt;Node31</title>
<path fill="none" stroke="midnightblue" d="M753.37,-515.47C639.5,-501.09 444.5,-467.1 444.5,-403 444.5,-403 444.5,-403 444.5,-289 444.5,-230.88 512.25,-202.9 566.41,-189.82"/>
<polygon fill="midnightblue" stroke="midnightblue" points="567.38,-193.19 576.35,-187.54 565.82,-186.36 567.38,-193.19"/>
</g>
<!-- Node32 -->
<g id="node32" class="node">
<title>Node32</title>
<g id="a_node32"><a xlink:href="SpatialMotionVector_8h.html" target="_top" xlink:title=" ">
<polygon fill="none" stroke="black" points="756,-448.5 756,-478.5 911,-478.5 911,-448.5 756,-448.5"/>
<text text-anchor="start" x="764" y="-466.5" font-family="FreeSans.ttf" font-size="10.00">iDynTree/Core/SpatialMotion</text>
<text text-anchor="middle" x="833.5" y="-455.5" font-family="FreeSans.ttf" font-size="10.00">Vector.h</text>
</a>
</g>
</g>
<!-- Node28&#45;&gt;Node32 -->
<g id="edge64" class="edge">
<title>Node28&#45;&gt;Node32</title>
<path fill="none" stroke="midnightblue" d="M833.5,-515.48C833.5,-508.47 833.5,-498.19 833.5,-488.7"/>
<polygon fill="midnightblue" stroke="midnightblue" points="837,-488.52 833.5,-478.52 830,-488.52 837,-488.52"/>
</g>
<!-- Node33 -->
<g id="node33" class="node">
<title>Node33</title>
<g id="a_node33"><a xlink:href="Transform_8h.html" target="_top" xlink:title=" ">
<polygon fill="none" stroke="black" points="270.5,-392.5 270.5,-411.5 416.5,-411.5 416.5,-392.5 270.5,-392.5"/>
<text text-anchor="middle" x="343.5" y="-399.5" font-family="FreeSans.ttf" font-size="10.00">iDynTree/Core/Transform.h</text>
</a>
</g>
</g>
<!-- Node28&#45;&gt;Node33 -->
<g id="edge69" class="edge">
<title>Node28&#45;&gt;Node33</title>
<path fill="none" stroke="midnightblue" d="M752.77,-520.68C652.11,-515.56 486.48,-503.64 430.5,-479 400.21,-465.67 372.83,-437.95 357.18,-419.93"/>
<polygon fill="midnightblue" stroke="midnightblue" points="359.6,-417.37 350.49,-411.97 354.24,-421.87 359.6,-417.37"/>
</g>
<!-- Node30&#45;&gt;Node7 -->
<g id="edge57" class="edge">
<title>Node30&#45;&gt;Node7</title>
<path fill="none" stroke="midnightblue" d="M122.94,-168.46C214.56,-148.62 441.59,-99.46 542.18,-77.68"/>
<polygon fill="midnightblue" stroke="midnightblue" points="543.05,-81.07 552.09,-75.53 541.57,-74.23 543.05,-81.07"/>
</g>
<!-- Node30&#45;&gt;Node16 -->
<g id="edge58" class="edge">
<title>Node30&#45;&gt;Node16</title>
<path fill="none" stroke="midnightblue" d="M146.72,-168.44C232.9,-156.78 384.06,-136.32 450.09,-127.39"/>
<polygon fill="midnightblue" stroke="midnightblue" points="450.86,-130.81 460.3,-126 449.92,-123.88 450.86,-130.81"/>
</g>
<!-- Node31&#45;&gt;Node16 -->
<g id="edge61" class="edge">
<title>Node31&#45;&gt;Node16</title>
<path fill="none" stroke="midnightblue" d="M608.73,-168.44C583.16,-159.24 542.38,-144.56 514.12,-134.38"/>
<polygon fill="midnightblue" stroke="midnightblue" points="515.28,-131.08 504.69,-130.99 512.91,-137.67 515.28,-131.08"/>
</g>
<!-- Node31&#45;&gt;Node26 -->
<g id="edge62" class="edge">
<title>Node31&#45;&gt;Node26</title>
<path fill="none" stroke="midnightblue" d="M644.39,-168.32C655.65,-160.11 672.79,-147.6 686.21,-137.81"/>
<polygon fill="midnightblue" stroke="midnightblue" points="688.38,-140.56 694.39,-131.83 684.25,-134.9 688.38,-140.56"/>
</g>
<!-- Node32&#45;&gt;Node3 -->
<g id="edge65" class="edge">
<title>Node32&#45;&gt;Node3</title>
<path fill="none" stroke="midnightblue" d="M820.26,-448.46C802.32,-427.89 772.5,-387.59 772.5,-347 772.5,-347 772.5,-347 772.5,-289 772.5,-254.31 791.28,-217.42 804.02,-196.4"/>
<polygon fill="midnightblue" stroke="midnightblue" points="807.15,-198 809.52,-187.67 801.23,-194.27 807.15,-198"/>
</g>
<!-- Node32&#45;&gt;Node19 -->
<g id="edge66" class="edge">
<title>Node32&#45;&gt;Node19</title>
<path fill="none" stroke="midnightblue" d="M836.57,-448.27C845.05,-408.89 868.83,-298.49 878.42,-253.97"/>
<polygon fill="midnightblue" stroke="midnightblue" points="881.89,-254.44 880.58,-243.93 875.05,-252.97 881.89,-254.44"/>
</g>
<!-- Node32&#45;&gt;Node20 -->
<g id="edge67" class="edge">
<title>Node32&#45;&gt;Node20</title>
<path fill="none" stroke="midnightblue" d="M884.18,-448.47C921.92,-438.03 972.77,-423.96 1007.86,-414.25"/>
<polygon fill="midnightblue" stroke="midnightblue" points="1009.06,-417.55 1017.76,-411.51 1007.19,-410.8 1009.06,-417.55"/>
</g>
<!-- Node33&#45;&gt;Node16 -->
<g id="edge73" class="edge">
<title>Node33&#45;&gt;Node16</title>
<path fill="none" stroke="midnightblue" d="M310.06,-392.41C266.13,-378.88 194.5,-348.07 194.5,-291 194.5,-291 194.5,-291 194.5,-233 194.5,-184.02 238.91,-188.27 283.5,-168 339,-142.77 409.83,-131.13 450.28,-126.2"/>
<polygon fill="midnightblue" stroke="midnightblue" points="450.84,-129.66 460.37,-125.04 450.03,-122.71 450.84,-129.66"/>
</g>
<!-- Node33&#45;&gt;Node21 -->
<g id="edge70" class="edge">
<title>Node33&#45;&gt;Node21</title>
<path fill="none" stroke="midnightblue" d="M343.5,-392.08C343.5,-385.01 343.5,-374.86 343.5,-365.99"/>
<polygon fill="midnightblue" stroke="midnightblue" points="347,-365.75 343.5,-355.75 340,-365.75 347,-365.75"/>
</g>
<!-- Node33&#45;&gt;Node23 -->
<g id="edge71" class="edge">
<title>Node33&#45;&gt;Node23</title>
<path fill="none" stroke="midnightblue" d="M365.79,-392.37C415.97,-372.93 537.98,-325.67 595.93,-303.23"/>
<polygon fill="midnightblue" stroke="midnightblue" points="597.26,-306.47 605.32,-299.59 594.73,-299.94 597.26,-306.47"/>
</g>
<!-- Node33&#45;&gt;Node25 -->
<g id="edge72" class="edge">
<title>Node33&#45;&gt;Node25</title>
<path fill="none" stroke="midnightblue" d="M408.87,-392.5C552.34,-372.63 888.75,-319.08 972.5,-244 985.78,-232.1 991.72,-212.19 994.38,-197.53"/>
<polygon fill="midnightblue" stroke="midnightblue" points="997.85,-197.97 995.84,-187.57 990.93,-196.96 997.85,-197.97"/>
</g>
</g>
</svg>
