<?xml version="1.0" encoding="UTF-8" standalone="no"?>
<!DOCTYPE svg PUBLIC "-//W3C//DTD SVG 1.1//EN"
 "http://www.w3.org/Graphics/SVG/1.1/DTD/svg11.dtd">
<!-- Generated by graphviz version 2.43.0 (0)
 -->
<!-- Title: SpatialForceVector.h Pages: 1 -->
<svg width="5551pt" height="207pt"
 viewBox="0.00 0.00 5551.13 207.00" xmlns="http://www.w3.org/2000/svg" xmlns:xlink="http://www.w3.org/1999/xlink">
<g id="graph0" class="graph" transform="scale(1 1) rotate(0) translate(4 203)">
<title>SpatialForceVector.h</title>
<!-- Node1 -->
<g id="node1" class="node">
<title>Node1</title>
<g id="a_node1"><a xlink:title=" ">
<polygon fill="#bfbfbf" stroke="black" points="2860.91,-179.5 2860.91,-198.5 2976.91,-198.5 2976.91,-179.5 2860.91,-179.5"/>
<text text-anchor="middle" x="2918.91" y="-186.5" font-family="FreeSans.ttf" font-size="10.00">SpatialForceVector.h</text>
</a>
</g>
</g>
<!-- Node2 -->
<g id="node2" class="node">
<title>Node2</title>
<g id="a_node2"><a xlink:href="EigenHelpers_8h.html" target="_top" xlink:title=" ">
<polygon fill="none" stroke="red" points="2873.91,-123.5 2873.91,-142.5 2963.91,-142.5 2963.91,-123.5 2873.91,-123.5"/>
<text text-anchor="middle" x="2918.91" y="-130.5" font-family="FreeSans.ttf" font-size="10.00">EigenHelpers.h</text>
</a>
</g>
</g>
<!-- Node1&#45;&gt;Node2 -->
<g id="edge1" class="edge">
<title>Node1&#45;&gt;Node2</title>
<path fill="none" stroke="midnightblue" d="M2918.91,-168.8C2918.91,-159.91 2918.91,-149.78 2918.91,-142.75"/>
<polygon fill="midnightblue" stroke="midnightblue" points="2915.41,-169.08 2918.91,-179.08 2922.41,-169.08 2915.41,-169.08"/>
</g>
<!-- Node6 -->
<g id="node4" class="node">
<title>Node6</title>
<g id="a_node4"><a xlink:href="SpatialInertiaRaw_8cpp.html" target="_top" xlink:title=" ">
<polygon fill="none" stroke="black" points="588.91,-0.5 588.91,-19.5 710.91,-19.5 710.91,-0.5 588.91,-0.5"/>
<text text-anchor="middle" x="649.91" y="-7.5" font-family="FreeSans.ttf" font-size="10.00">SpatialInertiaRaw.cpp</text>
</a>
</g>
</g>
<!-- Node1&#45;&gt;Node6 -->
<g id="edge60" class="edge">
<title>Node1&#45;&gt;Node6</title>
<path fill="none" stroke="midnightblue" d="M2850.61,-188.06C2496.71,-188.21 868.71,-186.44 365.91,-143 205.03,-129.1 111.93,-209.67 6.91,-87 -2.05,-76.53 -2.49,-66.08 6.91,-56 46.07,-14 435.77,-10.42 588.74,-10.65"/>
<polygon fill="midnightblue" stroke="midnightblue" points="2850.71,-191.56 2860.7,-188.06 2850.7,-184.56 2850.71,-191.56"/>
</g>
<!-- Node8 -->
<g id="node5" class="node">
<title>Node8</title>
<g id="a_node5"><a xlink:href="SpatialMotionVector_8cpp.html" target="_top" xlink:title=" ">
<polygon fill="none" stroke="black" points="4211.91,-0.5 4211.91,-19.5 4345.91,-19.5 4345.91,-0.5 4211.91,-0.5"/>
<text text-anchor="middle" x="4278.91" y="-7.5" font-family="FreeSans.ttf" font-size="10.00">SpatialMotionVector.cpp</text>
</a>
</g>
</g>
<!-- Node1&#45;&gt;Node8 -->
<g id="edge61" class="edge">
<title>Node1&#45;&gt;Node8</title>
<path fill="none" stroke="midnightblue" d="M2937.24,-173.05C2959.19,-155.52 2994.99,-128.18 3010.91,-123 3077.61,-101.29 5486.66,-136.95 5535.91,-87 5545.58,-77.19 5545.48,-65.92 5535.91,-56 5494.33,-12.91 4600.95,-10.62 4346.18,-10.85"/>
<polygon fill="midnightblue" stroke="midnightblue" points="2934.9,-170.44 2929.31,-179.44 2939.3,-175.89 2934.9,-170.44"/>
</g>
<!-- Node19 -->
<g id="node13" class="node">
<title>Node19</title>
<g id="a_node13"><a xlink:href="SpatialForceVector_8cpp.html" target="_top" xlink:title=" ">
<polygon fill="none" stroke="black" points="1124.41,-62 1124.41,-81 1251.41,-81 1251.41,-62 1124.41,-62"/>
<text text-anchor="middle" x="1187.91" y="-69" font-family="FreeSans.ttf" font-size="10.00">SpatialForceVector.cpp</text>
</a>
</g>
</g>
<!-- Node1&#45;&gt;Node19 -->
<g id="edge59" class="edge">
<title>Node1&#45;&gt;Node19</title>
<path fill="none" stroke="midnightblue" d="M2850.54,-187.14C2623.51,-183.59 1874.26,-166.23 1260.91,-87 1249.38,-85.51 1236.93,-83.28 1225.64,-81"/>
<polygon fill="midnightblue" stroke="midnightblue" points="2850.59,-190.64 2860.64,-187.3 2850.69,-183.64 2850.59,-190.64"/>
</g>
<!-- Node81 -->
<g id="node44" class="node">
<title>Node81</title>
<g id="a_node44"><a xlink:href="SpatialMomentum_8h.html" target="_top" xlink:title=" ">
<polygon fill="none" stroke="red" points="632.91,-123.5 632.91,-142.5 748.91,-142.5 748.91,-123.5 632.91,-123.5"/>
<text text-anchor="middle" x="690.91" y="-130.5" font-family="FreeSans.ttf" font-size="10.00">SpatialMomentum.h</text>
</a>
</g>
</g>
<!-- Node1&#45;&gt;Node81 -->
<g id="edge44" class="edge">
<title>Node1&#45;&gt;Node81</title>
<path fill="none" stroke="midnightblue" d="M2850.42,-187.07C2592.87,-183.43 1658,-169.12 887.91,-143 841.2,-141.42 788.3,-138.96 749.08,-137.02"/>
<polygon fill="midnightblue" stroke="midnightblue" points="2850.69,-190.57 2860.73,-187.21 2850.78,-183.57 2850.69,-190.57"/>
</g>
<!-- Node152 -->
<g id="node45" class="node">
<title>Node152</title>
<g id="a_node45"><a xlink:href="Wrench_8h.html" target="_top" xlink:title=" ">
<polygon fill="none" stroke="red" points="374.91,-123.5 374.91,-142.5 436.91,-142.5 436.91,-123.5 374.91,-123.5"/>
<text text-anchor="middle" x="405.91" y="-130.5" font-family="FreeSans.ttf" font-size="10.00">Wrench.h</text>
</a>
</g>
</g>
<!-- Node1&#45;&gt;Node152 -->
<g id="edge51" class="edge">
<title>Node1&#45;&gt;Node152</title>
<path fill="none" stroke="midnightblue" d="M2850.51,-187.2C2572.91,-183.84 1503.37,-169.77 623.91,-143 557.27,-140.97 479.22,-137.48 436.95,-135.49"/>
<polygon fill="midnightblue" stroke="midnightblue" points="2850.78,-190.7 2860.82,-187.32 2850.86,-183.7 2850.78,-190.7"/>
</g>
<!-- Node182 -->
<g id="node46" class="node">
<title>Node182</title>
<g id="a_node46"><a xlink:href="PositionRaw_8cpp.html" target="_top" xlink:title=" ">
<polygon fill="none" stroke="black" points="3019.91,-123.5 3019.91,-142.5 3115.91,-142.5 3115.91,-123.5 3019.91,-123.5"/>
<text text-anchor="middle" x="3067.91" y="-130.5" font-family="FreeSans.ttf" font-size="10.00">PositionRaw.cpp</text>
</a>
</g>
</g>
<!-- Node1&#45;&gt;Node182 -->
<g id="edge57" class="edge">
<title>Node1&#45;&gt;Node182</title>
<path fill="none" stroke="midnightblue" d="M2952.28,-175.91C2980.29,-165.75 3019.61,-151.51 3044.41,-142.52"/>
<polygon fill="midnightblue" stroke="midnightblue" points="2950.73,-172.75 2942.52,-179.44 2953.11,-179.33 2950.73,-172.75"/>
</g>
<!-- Node183 -->
<g id="node47" class="node">
<title>Node183</title>
<g id="a_node47"><a xlink:href="RotationRaw_8cpp.html" target="_top" xlink:title=" ">
<polygon fill="none" stroke="black" points="3133.91,-123.5 3133.91,-142.5 3231.91,-142.5 3231.91,-123.5 3133.91,-123.5"/>
<text text-anchor="middle" x="3182.91" y="-130.5" font-family="FreeSans.ttf" font-size="10.00">RotationRaw.cpp</text>
</a>
</g>
</g>
<!-- Node1&#45;&gt;Node183 -->
<g id="edge58" class="edge">
<title>Node1&#45;&gt;Node183</title>
<path fill="none" stroke="midnightblue" d="M2970.69,-177.41C3020.58,-167.2 3095.11,-151.96 3141.27,-142.52"/>
<polygon fill="midnightblue" stroke="midnightblue" points="2969.84,-174.01 2960.74,-179.44 2971.24,-180.87 2969.84,-174.01"/>
</g>
<!-- Node83 -->
<g id="node48" class="node">
<title>Node83</title>
<g id="a_node48"><a xlink:href="TestUtils_8cpp.html" target="_top" xlink:title=" ">
<polygon fill="none" stroke="black" points="3250.41,-123.5 3250.41,-142.5 3329.41,-142.5 3329.41,-123.5 3250.41,-123.5"/>
<text text-anchor="middle" x="3289.91" y="-130.5" font-family="FreeSans.ttf" font-size="10.00">TestUtils.cpp</text>
</a>
</g>
</g>
<!-- Node1&#45;&gt;Node83 -->
<g id="edge62" class="edge">
<title>Node1&#45;&gt;Node83</title>
<path fill="none" stroke="midnightblue" d="M2987.35,-179.3C3052.63,-170.8 3153.64,-157.11 3240.91,-143 3243.98,-142.5 3247.16,-141.97 3250.36,-141.42"/>
<polygon fill="midnightblue" stroke="midnightblue" points="2986.66,-175.86 2977.19,-180.62 2987.56,-182.8 2986.66,-175.86"/>
</g>
<!-- Node84 -->
<g id="node49" class="node">
<title>Node84</title>
<g id="a_node49"><a xlink:href="DynamicsUtils_8h.html" target="_top" xlink:title=" ">
<polygon fill="none" stroke="black" points="3347.41,-123.5 3347.41,-142.5 3444.41,-142.5 3444.41,-123.5 3347.41,-123.5"/>
<text text-anchor="middle" x="3395.91" y="-130.5" font-family="FreeSans.ttf" font-size="10.00">DynamicsUtils.h</text>
</a>
</g>
</g>
<!-- Node1&#45;&gt;Node84 -->
<g id="edge63" class="edge">
<title>Node1&#45;&gt;Node84</title>
<path fill="none" stroke="midnightblue" d="M2987.19,-181.74C3070.4,-173.87 3215.21,-159.38 3338.91,-143 3341.59,-142.64 3344.34,-142.26 3347.12,-141.87"/>
<polygon fill="midnightblue" stroke="midnightblue" points="2986.74,-178.27 2977.11,-182.69 2987.39,-185.24 2986.74,-178.27"/>
</g>
<!-- Node184 -->
<g id="node50" class="node">
<title>Node184</title>
<g id="a_node50"><a xlink:href="JointState_8h.html" target="_top" xlink:title=" ">
<polygon fill="none" stroke="red" points="897.41,-123.5 897.41,-142.5 970.41,-142.5 970.41,-123.5 897.41,-123.5"/>
<text text-anchor="middle" x="933.91" y="-130.5" font-family="FreeSans.ttf" font-size="10.00">JointState.h</text>
</a>
</g>
</g>
<!-- Node1&#45;&gt;Node184 -->
<g id="edge64" class="edge">
<title>Node1&#45;&gt;Node184</title>
<path fill="none" stroke="midnightblue" d="M2850.41,-186.14C2532.75,-177.49 1208.38,-141.47 970.56,-135"/>
<polygon fill="midnightblue" stroke="midnightblue" points="2850.75,-189.65 2860.85,-186.42 2850.94,-182.65 2850.75,-189.65"/>
</g>
<!-- Node3 -->
<g id="node3" class="node">
<title>Node3</title>
<g id="a_node3"><a xlink:href="PrivateUtils_8h.html" target="_top" xlink:title=" ">
<polygon fill="none" stroke="red" points="1269.41,-62 1269.41,-81 1352.41,-81 1352.41,-62 1269.41,-62"/>
<text text-anchor="middle" x="1310.91" y="-69" font-family="FreeSans.ttf" font-size="10.00">PrivateUtils.h</text>
</a>
</g>
</g>
<!-- Node2&#45;&gt;Node3 -->
<g id="edge2" class="edge">
<title>Node2&#45;&gt;Node3</title>
<path fill="none" stroke="midnightblue" d="M2863.44,-131.21C2603.51,-127.41 1512.42,-110.2 1361.91,-87 1353.45,-85.7 1344.41,-83.43 1336.32,-81.06"/>
<polygon fill="midnightblue" stroke="midnightblue" points="2863.71,-134.72 2873.76,-131.36 2863.81,-127.72 2863.71,-134.72"/>
</g>
<!-- Node2&#45;&gt;Node8 -->
<g id="edge14" class="edge">
<title>Node2&#45;&gt;Node8</title>
<path fill="none" stroke="midnightblue" d="M2974.04,-123.37C2975.34,-123.24 2976.63,-123.11 2977.91,-123 3048.87,-116.62 4204.37,-131.63 4259.91,-87 4280.27,-70.64 4280.78,-36.07 4279.76,-19.81"/>
<polygon fill="midnightblue" stroke="midnightblue" points="2973.47,-119.92 2963.94,-124.55 2974.28,-126.87 2973.47,-119.92"/>
</g>
<!-- Node12 -->
<g id="node6" class="node">
<title>Node12</title>
<g id="a_node6"><a xlink:href="ArticulatedBodyInertia_8cpp.html" target="_top" xlink:title=" ">
<polygon fill="none" stroke="black" points="267.91,-62 267.91,-81 413.91,-81 413.91,-62 267.91,-62"/>
<text text-anchor="middle" x="340.91" y="-69" font-family="FreeSans.ttf" font-size="10.00">ArticulatedBodyInertia.cpp</text>
</a>
</g>
</g>
<!-- Node2&#45;&gt;Node12 -->
<g id="edge5" class="edge">
<title>Node2&#45;&gt;Node12</title>
<path fill="none" stroke="midnightblue" d="M2863.35,-132.19C2542.08,-133.08 919.57,-135.09 422.91,-87 409.53,-85.7 395.05,-83.44 382.03,-81.07"/>
<polygon fill="midnightblue" stroke="midnightblue" points="2863.8,-135.68 2873.79,-132.16 2863.78,-128.68 2863.8,-135.68"/>
</g>
<!-- Node13 -->
<g id="node7" class="node">
<title>Node13</title>
<g id="a_node7"><a xlink:href="CubicSpline_8cpp.html" target="_top" xlink:title=" ">
<polygon fill="none" stroke="black" points="4306.91,-62 4306.91,-81 4400.91,-81 4400.91,-62 4306.91,-62"/>
<text text-anchor="middle" x="4353.91" y="-69" font-family="FreeSans.ttf" font-size="10.00">CubicSpline.cpp</text>
</a>
</g>
</g>
<!-- Node2&#45;&gt;Node13 -->
<g id="edge6" class="edge">
<title>Node2&#45;&gt;Node13</title>
<path fill="none" stroke="midnightblue" d="M2974.04,-123.37C2975.34,-123.24 2976.63,-123.11 2977.91,-123 3560.24,-70.82 3713.21,-163.01 4292.91,-87 4302.95,-85.68 4313.74,-83.41 4323.42,-81.05"/>
<polygon fill="midnightblue" stroke="midnightblue" points="2973.47,-119.91 2963.94,-124.54 2974.28,-126.87 2973.47,-119.91"/>
</g>
<!-- Node14 -->
<g id="node8" class="node">
<title>Node14</title>
<g id="a_node8"><a xlink:href="Direction_8cpp.html" target="_top" xlink:title=" ">
<polygon fill="none" stroke="black" points="4419.41,-62 4419.41,-81 4500.41,-81 4500.41,-62 4419.41,-62"/>
<text text-anchor="middle" x="4459.91" y="-69" font-family="FreeSans.ttf" font-size="10.00">Direction.cpp</text>
</a>
</g>
</g>
<!-- Node2&#45;&gt;Node14 -->
<g id="edge7" class="edge">
<title>Node2&#45;&gt;Node14</title>
<path fill="none" stroke="midnightblue" d="M2974.04,-123.37C2975.34,-123.24 2976.63,-123.11 2977.91,-123 3294.99,-94.94 4095.34,-135.73 4409.91,-87 4418.31,-85.7 4427.28,-83.4 4435.27,-81.01"/>
<polygon fill="midnightblue" stroke="midnightblue" points="2973.47,-119.91 2963.94,-124.53 2974.27,-126.86 2973.47,-119.91"/>
</g>
<!-- Node15 -->
<g id="node9" class="node">
<title>Node15</title>
<g id="a_node9"><a xlink:href="InertiaNonLinearParametrization_8cpp.html" target="_top" xlink:title=" ">
<polygon fill="none" stroke="black" points="4518.41,-62 4518.41,-81 4713.41,-81 4713.41,-62 4518.41,-62"/>
<text text-anchor="middle" x="4615.91" y="-69" font-family="FreeSans.ttf" font-size="10.00">InertiaNonLinearParametrization.cpp</text>
</a>
</g>
</g>
<!-- Node2&#45;&gt;Node15 -->
<g id="edge8" class="edge">
<title>Node2&#45;&gt;Node15</title>
<path fill="none" stroke="midnightblue" d="M2974.04,-123.37C2975.34,-123.23 2976.63,-123.11 2977.91,-123 3656.39,-63.53 3831,-141.24 4509.91,-87 4527.04,-85.63 4545.63,-83.36 4562.39,-81.01"/>
<polygon fill="midnightblue" stroke="midnightblue" points="2973.47,-119.91 2963.94,-124.53 2974.27,-126.86 2973.47,-119.91"/>
</g>
<!-- Node16 -->
<g id="node10" class="node">
<title>Node16</title>
<g id="a_node10"><a xlink:href="Position_8cpp.html" target="_top" xlink:title=" ">
<polygon fill="none" stroke="black" points="15.91,-62 15.91,-81 91.91,-81 91.91,-62 15.91,-62"/>
<text text-anchor="middle" x="53.91" y="-69" font-family="FreeSans.ttf" font-size="10.00">Position.cpp</text>
</a>
</g>
</g>
<!-- Node2&#45;&gt;Node16 -->
<g id="edge9" class="edge">
<title>Node2&#45;&gt;Node16</title>
<path fill="none" stroke="midnightblue" d="M2863.7,-132.06C2493.89,-132.32 382.93,-131.82 100.91,-87 92.98,-85.74 84.54,-83.45 77.03,-81.06"/>
<polygon fill="midnightblue" stroke="midnightblue" points="2863.88,-135.56 2873.88,-132.05 2863.88,-128.56 2863.88,-135.56"/>
</g>
<!-- Node17 -->
<g id="node11" class="node">
<title>Node17</title>
<g id="a_node11"><a xlink:href="Rotation_8cpp.html" target="_top" xlink:title=" ">
<polygon fill="none" stroke="black" points="431.91,-62 431.91,-81 509.91,-81 509.91,-62 431.91,-62"/>
<text text-anchor="middle" x="470.91" y="-69" font-family="FreeSans.ttf" font-size="10.00">Rotation.cpp</text>
</a>
</g>
</g>
<!-- Node2&#45;&gt;Node17 -->
<g id="edge10" class="edge">
<title>Node2&#45;&gt;Node17</title>
<path fill="none" stroke="midnightblue" d="M2863.62,-131.87C2526.77,-130.97 757.14,-124.48 518.91,-87 510.83,-85.73 502.21,-83.44 494.54,-81.04"/>
<polygon fill="midnightblue" stroke="midnightblue" points="2863.61,-135.37 2873.62,-131.9 2863.63,-128.37 2863.61,-135.37"/>
</g>
<!-- Node18 -->
<g id="node12" class="node">
<title>Node18</title>
<g id="a_node12"><a xlink:href="SO3Utils_8cpp.html" target="_top" xlink:title=" ">
<polygon fill="none" stroke="black" points="4731.41,-62 4731.41,-81 4810.41,-81 4810.41,-62 4731.41,-62"/>
<text text-anchor="middle" x="4770.91" y="-69" font-family="FreeSans.ttf" font-size="10.00">SO3Utils.cpp</text>
</a>
</g>
</g>
<!-- Node2&#45;&gt;Node18 -->
<g id="edge11" class="edge">
<title>Node2&#45;&gt;Node18</title>
<path fill="none" stroke="midnightblue" d="M2974.04,-123.36C2975.34,-123.23 2976.63,-123.11 2977.91,-123 3364.34,-89.68 4339.82,-147.64 4722.91,-87 4730.99,-85.72 4739.61,-83.43 4747.28,-81.03"/>
<polygon fill="midnightblue" stroke="midnightblue" points="2973.48,-119.9 2963.94,-124.51 2974.27,-126.86 2973.48,-119.9"/>
</g>
<!-- Node2&#45;&gt;Node19 -->
<g id="edge12" class="edge">
<title>Node2&#45;&gt;Node19</title>
<path fill="none" stroke="midnightblue" d="M2863.22,-131.75C2611.87,-130.44 1581.63,-122.94 1260.91,-87 1248.97,-85.66 1236.07,-83.38 1224.48,-81.02"/>
<polygon fill="midnightblue" stroke="midnightblue" points="2863.54,-135.25 2873.56,-131.81 2863.58,-128.25 2863.54,-135.25"/>
</g>
<!-- Node20 -->
<g id="node14" class="node">
<title>Node20</title>
<g id="a_node14"><a xlink:href="SpatialInertia_8cpp.html" target="_top" xlink:title=" ">
<polygon fill="none" stroke="black" points="527.91,-62 527.91,-81 629.91,-81 629.91,-62 527.91,-62"/>
<text text-anchor="middle" x="578.91" y="-69" font-family="FreeSans.ttf" font-size="10.00">SpatialInertia.cpp</text>
</a>
</g>
</g>
<!-- Node2&#45;&gt;Node20 -->
<g id="edge13" class="edge">
<title>Node2&#45;&gt;Node20</title>
<path fill="none" stroke="midnightblue" d="M2863.33,-131.63C2535.93,-129.33 865.42,-116.25 638.91,-87 628.92,-85.71 618.18,-83.41 608.58,-81.02"/>
<polygon fill="midnightblue" stroke="midnightblue" points="2863.49,-135.13 2873.52,-131.7 2863.54,-128.13 2863.49,-135.13"/>
</g>
<!-- Node21 -->
<g id="node15" class="node">
<title>Node21</title>
<g id="a_node15"><a xlink:href="TransformDerivative_8cpp.html" target="_top" xlink:title=" ">
<polygon fill="none" stroke="black" points="4828.41,-62 4828.41,-81 4965.41,-81 4965.41,-62 4828.41,-62"/>
<text text-anchor="middle" x="4896.91" y="-69" font-family="FreeSans.ttf" font-size="10.00">TransformDerivative.cpp</text>
</a>
</g>
</g>
<!-- Node2&#45;&gt;Node21 -->
<g id="edge15" class="edge">
<title>Node2&#45;&gt;Node21</title>
<path fill="none" stroke="midnightblue" d="M2974.04,-123.36C2975.34,-123.23 2976.63,-123.11 2977.91,-123 3793.75,-53.11 4005.41,-171.06 4819.91,-87 4832.49,-85.7 4846.1,-83.43 4858.32,-81.07"/>
<polygon fill="midnightblue" stroke="midnightblue" points="2973.48,-119.9 2963.94,-124.51 2974.27,-126.86 2973.48,-119.9"/>
</g>
<!-- Node22 -->
<g id="node16" class="node">
<title>Node22</title>
<g id="a_node16"><a xlink:href="AttitudeEstimatorUtils_8h.html" target="_top" xlink:title=" ">
<polygon fill="none" stroke="red" points="4983.91,-62 4983.91,-81 5117.91,-81 5117.91,-62 4983.91,-62"/>
<text text-anchor="middle" x="5050.91" y="-69" font-family="FreeSans.ttf" font-size="10.00">AttitudeEstimatorUtils.h</text>
</a>
</g>
</g>
<!-- Node2&#45;&gt;Node22 -->
<g id="edge16" class="edge">
<title>Node2&#45;&gt;Node22</title>
<path fill="none" stroke="midnightblue" d="M2974.04,-123.36C2975.34,-123.23 2976.63,-123.11 2977.91,-123 3862.43,-47.9 4091.94,-178.51 4974.91,-87 4987.47,-85.7 5001.05,-83.4 5013.21,-81.01"/>
<polygon fill="midnightblue" stroke="midnightblue" points="2973.48,-119.9 2963.94,-124.5 2974.27,-126.85 2973.48,-119.9"/>
</g>
<!-- Node26 -->
<g id="node17" class="node">
<title>Node26</title>
<g id="a_node17"><a xlink:href="GravityCompensationHelpers_8h.html" target="_top" xlink:title=" ">
<polygon fill="none" stroke="red" points="5135.91,-62 5135.91,-81 5305.91,-81 5305.91,-62 5135.91,-62"/>
<text text-anchor="middle" x="5220.91" y="-69" font-family="FreeSans.ttf" font-size="10.00">GravityCompensationHelpers.h</text>
</a>
</g>
</g>
<!-- Node2&#45;&gt;Node26 -->
<g id="edge17" class="edge">
<title>Node2&#45;&gt;Node26</title>
<path fill="none" stroke="midnightblue" d="M2974.04,-123.35C2975.34,-123.23 2976.63,-123.11 2977.91,-123 3929.78,-42.79 4175.11,-168 5126.91,-87 5142.21,-85.7 5158.8,-83.43 5173.72,-81.07"/>
<polygon fill="midnightblue" stroke="midnightblue" points="2973.48,-119.89 2963.93,-124.49 2974.26,-126.85 2973.48,-119.89"/>
</g>
<!-- Node28 -->
<g id="node18" class="node">
<title>Node28</title>
<g id="a_node18"><a xlink:href="KalmanFilter_8h.html" target="_top" xlink:title=" ">
<polygon fill="none" stroke="red" points="5324.41,-62 5324.41,-81 5411.41,-81 5411.41,-62 5324.41,-62"/>
<text text-anchor="middle" x="5367.91" y="-69" font-family="FreeSans.ttf" font-size="10.00">KalmanFilter.h</text>
</a>
</g>
</g>
<!-- Node2&#45;&gt;Node28 -->
<g id="edge18" class="edge">
<title>Node2&#45;&gt;Node28</title>
<path fill="none" stroke="midnightblue" d="M2974.04,-123.35C2975.34,-123.22 2976.63,-123.11 2977.91,-123 3495.5,-79.74 4800.69,-160.11 5314.91,-87 5323.79,-85.74 5333.29,-83.45 5341.77,-81.05"/>
<polygon fill="midnightblue" stroke="midnightblue" points="2973.48,-119.89 2963.93,-124.49 2974.26,-126.85 2973.48,-119.89"/>
</g>
<!-- Node30 -->
<g id="node19" class="node">
<title>Node30</title>
<g id="a_node19"><a xlink:href="BerdyHelper_8cpp.html" target="_top" xlink:title=" ">
<polygon fill="none" stroke="black" points="5429.41,-62 5429.41,-81 5526.41,-81 5526.41,-62 5429.41,-62"/>
<text text-anchor="middle" x="5477.91" y="-69" font-family="FreeSans.ttf" font-size="10.00">BerdyHelper.cpp</text>
</a>
</g>
</g>
<!-- Node2&#45;&gt;Node30 -->
<g id="edge19" class="edge">
<title>Node2&#45;&gt;Node30</title>
<path fill="none" stroke="midnightblue" d="M2974.04,-123.35C2975.34,-123.22 2976.63,-123.11 2977.91,-123 3518.99,-77.96 4882.68,-158.42 5420.91,-87 5430.43,-85.74 5440.64,-83.45 5449.75,-81.05"/>
<polygon fill="midnightblue" stroke="midnightblue" points="2973.48,-119.89 2963.93,-124.48 2974.26,-126.85 2973.48,-119.89"/>
</g>
<!-- Node31 -->
<g id="node20" class="node">
<title>Node31</title>
<g id="a_node20"><a xlink:href="BerdySparseMAPSolver_8cpp.html" target="_top" xlink:title=" ">
<polygon fill="none" stroke="black" points="1370.91,-62 1370.91,-81 1520.91,-81 1520.91,-62 1370.91,-62"/>
<text text-anchor="middle" x="1445.91" y="-69" font-family="FreeSans.ttf" font-size="10.00">BerdySparseMAPSolver.cpp</text>
</a>
</g>
</g>
<!-- Node2&#45;&gt;Node31 -->
<g id="edge20" class="edge">
<title>Node2&#45;&gt;Node31</title>
<path fill="none" stroke="midnightblue" d="M2863.35,-131.23C2638.47,-127.95 1795.28,-114.07 1529.91,-87 1516.37,-85.62 1501.71,-83.36 1488.49,-81.03"/>
<polygon fill="midnightblue" stroke="midnightblue" points="2863.53,-134.73 2873.58,-131.38 2863.63,-127.73 2863.53,-134.73"/>
</g>
<!-- Node32 -->
<g id="node21" class="node">
<title>Node32</title>
<g id="a_node21"><a xlink:href="ExtendedKalmanFilter_8cpp.html" target="_top" xlink:title=" ">
<polygon fill="none" stroke="black" points="1538.91,-62 1538.91,-81 1682.91,-81 1682.91,-62 1538.91,-62"/>
<text text-anchor="middle" x="1610.91" y="-69" font-family="FreeSans.ttf" font-size="10.00">ExtendedKalmanFilter.cpp</text>
</a>
</g>
</g>
<!-- Node2&#45;&gt;Node32 -->
<g id="edge21" class="edge">
<title>Node2&#45;&gt;Node32</title>
<path fill="none" stroke="midnightblue" d="M2863.82,-130.99C2656.7,-127.05 1924.75,-111.63 1692.91,-87 1679.83,-85.61 1665.69,-83.38 1652.89,-81.07"/>
<polygon fill="midnightblue" stroke="midnightblue" points="2863.79,-134.49 2873.85,-131.18 2863.92,-127.49 2863.79,-134.49"/>
</g>
<!-- Node33 -->
<g id="node22" class="node">
<title>Node33</title>
<g id="a_node22"><a xlink:href="ExternalWrenchesEstimation_8cpp.html" target="_top" xlink:title=" ">
<polygon fill="none" stroke="black" points="751.91,-62 751.91,-81 929.91,-81 929.91,-62 751.91,-62"/>
<text text-anchor="middle" x="840.91" y="-69" font-family="FreeSans.ttf" font-size="10.00">ExternalWrenchesEstimation.cpp</text>
</a>
</g>
</g>
<!-- Node2&#45;&gt;Node33 -->
<g id="edge22" class="edge">
<title>Node2&#45;&gt;Node33</title>
<path fill="none" stroke="midnightblue" d="M2863.25,-131.67C2583.35,-129.87 1327.69,-120.05 938.91,-87 922.97,-85.65 905.68,-83.36 890.12,-81"/>
<polygon fill="midnightblue" stroke="midnightblue" points="2863.54,-135.17 2873.56,-131.74 2863.58,-128.17 2863.54,-135.17"/>
</g>
<!-- Node34 -->
<g id="node23" class="node">
<title>Node34</title>
<g id="a_node23"><a xlink:href="ExtWrenchesAndJointTorquesEstimator_8cpp.html" target="_top" xlink:title=" ">
<polygon fill="none" stroke="black" points="947.91,-56.5 947.91,-86.5 1105.91,-86.5 1105.91,-56.5 947.91,-56.5"/>
<text text-anchor="start" x="955.91" y="-74.5" font-family="FreeSans.ttf" font-size="10.00">ExtWrenchesAndJointTorques</text>
<text text-anchor="middle" x="1026.91" y="-63.5" font-family="FreeSans.ttf" font-size="10.00">Estimator.cpp</text>
</a>
</g>
</g>
<!-- Node2&#45;&gt;Node34 -->
<g id="edge23" class="edge">
<title>Node2&#45;&gt;Node34</title>
<path fill="none" stroke="midnightblue" d="M2863.56,-131.65C2599.57,-129.84 1466.76,-120.21 1114.91,-87 1111.98,-86.72 1109,-86.41 1106,-86.06"/>
<polygon fill="midnightblue" stroke="midnightblue" points="2863.65,-135.15 2873.67,-131.72 2863.69,-128.15 2863.65,-135.15"/>
</g>
<!-- Node35 -->
<g id="node24" class="node">
<title>Node35</title>
<g id="a_node24"><a xlink:href="SimpleLeggedOdometry_8cpp.html" target="_top" xlink:title=" ">
<polygon fill="none" stroke="black" points="1701.41,-62 1701.41,-81 1854.41,-81 1854.41,-62 1701.41,-62"/>
<text text-anchor="middle" x="1777.91" y="-69" font-family="FreeSans.ttf" font-size="10.00">SimpleLeggedOdometry.cpp</text>
</a>
</g>
</g>
<!-- Node2&#45;&gt;Node35 -->
<g id="edge24" class="edge">
<title>Node2&#45;&gt;Node35</title>
<path fill="none" stroke="midnightblue" d="M2863.43,-132.06C2706.24,-131.71 2244.64,-127.06 1863.91,-87 1850.21,-85.56 1835.38,-83.31 1821.96,-81.01"/>
<polygon fill="midnightblue" stroke="midnightblue" points="2863.77,-135.56 2873.78,-132.08 2863.78,-128.56 2863.77,-135.56"/>
</g>
<!-- Node36 -->
<g id="node25" class="node">
<title>Node36</title>
<g id="a_node25"><a xlink:href="KinDynComputations_8cpp.html" target="_top" xlink:title=" ">
<polygon fill="none" stroke="black" points="109.91,-62 109.91,-81 249.91,-81 249.91,-62 109.91,-62"/>
<text text-anchor="middle" x="179.91" y="-69" font-family="FreeSans.ttf" font-size="10.00">KinDynComputations.cpp</text>
</a>
</g>
</g>
<!-- Node2&#45;&gt;Node36 -->
<g id="edge25" class="edge">
<title>Node2&#45;&gt;Node36</title>
<path fill="none" stroke="midnightblue" d="M2863.77,-131.61C2506.55,-129.04 526.36,-113.62 258.91,-87 245.87,-85.7 231.75,-83.4 219.11,-81.01"/>
<polygon fill="midnightblue" stroke="midnightblue" points="2863.84,-135.11 2873.86,-131.69 2863.89,-128.11 2863.84,-135.11"/>
</g>
<!-- Node37 -->
<g id="node26" class="node">
<title>Node37</title>
<g id="a_node26"><a xlink:href="BoundingBoxHelpers_8cpp.html" target="_top" xlink:title=" ">
<polygon fill="none" stroke="black" points="1872.41,-62 1872.41,-81 2011.41,-81 2011.41,-62 1872.41,-62"/>
<text text-anchor="middle" x="1941.91" y="-69" font-family="FreeSans.ttf" font-size="10.00">BoundingBoxHelpers.cpp</text>
</a>
</g>
</g>
<!-- Node2&#45;&gt;Node37 -->
<g id="edge26" class="edge">
<title>Node2&#45;&gt;Node37</title>
<path fill="none" stroke="midnightblue" d="M2863.78,-131.75C2722.92,-130.58 2338.57,-123.95 2020.91,-87 2008.44,-85.55 1994.98,-83.33 1982.76,-81.05"/>
<polygon fill="midnightblue" stroke="midnightblue" points="2863.86,-135.25 2873.89,-131.83 2863.91,-128.25 2863.86,-135.25"/>
</g>
<!-- Node38 -->
<g id="node27" class="node">
<title>Node38</title>
<g id="a_node27"><a xlink:href="ConvexHullHelpers_8cpp.html" target="_top" xlink:title=" ">
<polygon fill="none" stroke="black" points="2029.41,-62 2029.41,-81 2160.41,-81 2160.41,-62 2029.41,-62"/>
<text text-anchor="middle" x="2094.91" y="-69" font-family="FreeSans.ttf" font-size="10.00">ConvexHullHelpers.cpp</text>
</a>
</g>
</g>
<!-- Node2&#45;&gt;Node38 -->
<g id="edge27" class="edge">
<title>Node2&#45;&gt;Node38</title>
<path fill="none" stroke="midnightblue" d="M2863.5,-131.15C2739.02,-128.7 2427.93,-119.55 2169.91,-87 2158.2,-85.52 2145.57,-83.32 2134.07,-81.07"/>
<polygon fill="midnightblue" stroke="midnightblue" points="2863.49,-134.65 2873.55,-131.34 2863.62,-127.65 2863.49,-134.65"/>
</g>
<!-- Node39 -->
<g id="node28" class="node">
<title>Node39</title>
<g id="a_node28"><a xlink:href="InverseKinematicsData_8cpp.html" target="_top" xlink:title=" ">
<polygon fill="none" stroke="black" points="2178.41,-62 2178.41,-81 2329.41,-81 2329.41,-62 2178.41,-62"/>
<text text-anchor="middle" x="2253.91" y="-69" font-family="FreeSans.ttf" font-size="10.00">InverseKinematicsData.cpp</text>
</a>
</g>
</g>
<!-- Node2&#45;&gt;Node39 -->
<g id="edge28" class="edge">
<title>Node2&#45;&gt;Node39</title>
<path fill="none" stroke="midnightblue" d="M2863.44,-129.39C2760.01,-124.15 2530.78,-110.76 2338.91,-87 2325.99,-85.4 2312.03,-83.21 2299.23,-81.02"/>
<polygon fill="midnightblue" stroke="midnightblue" points="2863.48,-132.9 2873.65,-129.9 2863.83,-125.9 2863.48,-132.9"/>
</g>
<!-- Node40 -->
<g id="node29" class="node">
<title>Node40</title>
<g id="a_node29"><a xlink:href="InverseKinematicsNLP_8cpp.html" target="_top" xlink:title=" ">
<polygon fill="none" stroke="black" points="2347.41,-62 2347.41,-81 2492.41,-81 2492.41,-62 2347.41,-62"/>
<text text-anchor="middle" x="2419.91" y="-69" font-family="FreeSans.ttf" font-size="10.00">InverseKinematicsNLP.cpp</text>
</a>
</g>
</g>
<!-- Node2&#45;&gt;Node40 -->
<g id="edge29" class="edge">
<title>Node2&#45;&gt;Node40</title>
<path fill="none" stroke="midnightblue" d="M2863.4,-127.21C2783.35,-120.03 2630.93,-105.35 2501.91,-87 2489.89,-85.29 2476.93,-83.14 2464.94,-81.03"/>
<polygon fill="midnightblue" stroke="midnightblue" points="2863.47,-130.73 2873.74,-128.13 2864.09,-123.76 2863.47,-130.73"/>
</g>
<!-- Node41 -->
<g id="node30" class="node">
<title>Node41</title>
<g id="a_node30"><a xlink:href="DenavitHartenberg_8cpp.html" target="_top" xlink:title=" ">
<polygon fill="none" stroke="black" points="2510.91,-62 2510.91,-81 2640.91,-81 2640.91,-62 2510.91,-62"/>
<text text-anchor="middle" x="2575.91" y="-69" font-family="FreeSans.ttf" font-size="10.00">DenavitHartenberg.cpp</text>
</a>
</g>
</g>
<!-- Node2&#45;&gt;Node41 -->
<g id="edge30" class="edge">
<title>Node2&#45;&gt;Node41</title>
<path fill="none" stroke="midnightblue" d="M2863.71,-123.14C2809.48,-114.34 2724.41,-100.27 2650.91,-87 2640.6,-85.14 2629.51,-83.04 2619.11,-81.04"/>
<polygon fill="midnightblue" stroke="midnightblue" points="2863.37,-126.63 2873.8,-124.77 2864.49,-119.72 2863.37,-126.63"/>
</g>
<!-- Node42 -->
<g id="node31" class="node">
<title>Node42</title>
<g id="a_node31"><a xlink:href="Dynamics_8cpp.html" target="_top" xlink:title=" ">
<polygon fill="none" stroke="black" points="647.91,-62 647.91,-81 733.91,-81 733.91,-62 647.91,-62"/>
<text text-anchor="middle" x="690.91" y="-69" font-family="FreeSans.ttf" font-size="10.00">Dynamics.cpp</text>
</a>
</g>
</g>
<!-- Node2&#45;&gt;Node42 -->
<g id="edge31" class="edge">
<title>Node2&#45;&gt;Node42</title>
<path fill="none" stroke="midnightblue" d="M2863.35,-131.69C2544.89,-129.77 957.99,-118.69 742.91,-87 734.2,-85.72 724.87,-83.42 716.56,-81.03"/>
<polygon fill="midnightblue" stroke="midnightblue" points="2863.69,-135.19 2873.71,-131.75 2863.73,-128.19 2863.69,-135.19"/>
</g>
<!-- Node43 -->
<g id="node32" class="node">
<title>Node43</title>
<g id="a_node32"><a xlink:href="DynamicsLinearization_8cpp.html" target="_top" xlink:title=" ">
<polygon fill="none" stroke="black" points="2659.41,-62 2659.41,-81 2808.41,-81 2808.41,-62 2659.41,-62"/>
<text text-anchor="middle" x="2733.91" y="-69" font-family="FreeSans.ttf" font-size="10.00">DynamicsLinearization.cpp</text>
</a>
</g>
</g>
<!-- Node2&#45;&gt;Node43 -->
<g id="edge32" class="edge">
<title>Node2&#45;&gt;Node43</title>
<path fill="none" stroke="midnightblue" d="M2882.78,-120.38C2846.82,-108.82 2792.49,-91.34 2760.37,-81.01"/>
<polygon fill="midnightblue" stroke="midnightblue" points="2881.81,-123.75 2892.4,-123.48 2883.96,-117.08 2881.81,-123.75"/>
</g>
<!-- Node44 -->
<g id="node33" class="node">
<title>Node44</title>
<g id="a_node33"><a xlink:href="DynamicsLinearizationHelpers_8cpp.html" target="_top" xlink:title=" ">
<polygon fill="none" stroke="black" points="2825.91,-62 2825.91,-81 3011.91,-81 3011.91,-62 2825.91,-62"/>
<text text-anchor="middle" x="2918.91" y="-69" font-family="FreeSans.ttf" font-size="10.00">DynamicsLinearizationHelpers.cpp</text>
</a>
</g>
</g>
<!-- Node2&#45;&gt;Node44 -->
<g id="edge33" class="edge">
<title>Node2&#45;&gt;Node44</title>
<path fill="none" stroke="midnightblue" d="M2918.91,-113.32C2918.91,-102.5 2918.91,-89.4 2918.91,-81.01"/>
<polygon fill="midnightblue" stroke="midnightblue" points="2915.41,-113.48 2918.91,-123.48 2922.41,-113.48 2915.41,-113.48"/>
</g>
<!-- Node45 -->
<g id="node34" class="node">
<title>Node45</title>
<g id="a_node34"><a xlink:href="Jacobians_8cpp.html" target="_top" xlink:title=" ">
<polygon fill="none" stroke="black" points="3030.41,-62 3030.41,-81 3113.41,-81 3113.41,-62 3030.41,-62"/>
<text text-anchor="middle" x="3071.91" y="-69" font-family="FreeSans.ttf" font-size="10.00">Jacobians.cpp</text>
</a>
</g>
</g>
<!-- Node2&#45;&gt;Node45 -->
<g id="edge34" class="edge">
<title>Node2&#45;&gt;Node45</title>
<path fill="none" stroke="midnightblue" d="M2950.33,-119.78C2980.06,-108.22 3023.92,-91.16 3050.03,-81.01"/>
<polygon fill="midnightblue" stroke="midnightblue" points="2948.88,-116.59 2940.83,-123.48 2951.42,-123.11 2948.88,-116.59"/>
</g>
<!-- Node46 -->
<g id="node35" class="node">
<title>Node46</title>
<g id="a_node35"><a xlink:href="Model_8cpp.html" target="_top" xlink:title=" ">
<polygon fill="none" stroke="black" points="3131.41,-62 3131.41,-81 3198.41,-81 3198.41,-62 3131.41,-62"/>
<text text-anchor="middle" x="3164.91" y="-69" font-family="FreeSans.ttf" font-size="10.00">Model.cpp</text>
</a>
</g>
</g>
<!-- Node2&#45;&gt;Node46 -->
<g id="edge35" class="edge">
<title>Node2&#45;&gt;Node46</title>
<path fill="none" stroke="midnightblue" d="M2974.12,-121.62C3015.41,-113.42 3073.09,-101.05 3122.91,-87 3129,-85.28 3135.5,-83.18 3141.52,-81.11"/>
<polygon fill="midnightblue" stroke="midnightblue" points="2973.39,-118.19 2964.25,-123.56 2974.74,-125.06 2973.39,-118.19"/>
</g>
<!-- Node47 -->
<g id="node36" class="node">
<title>Node47</title>
<g id="a_node36"><a xlink:href="URDFModelExport_8cpp.html" target="_top" xlink:title=" ">
<polygon fill="none" stroke="black" points="3216.91,-62 3216.91,-81 3342.91,-81 3342.91,-62 3216.91,-62"/>
<text text-anchor="middle" x="3279.91" y="-69" font-family="FreeSans.ttf" font-size="10.00">URDFModelExport.cpp</text>
</a>
</g>
</g>
<!-- Node2&#45;&gt;Node47 -->
<g id="edge36" class="edge">
<title>Node2&#45;&gt;Node47</title>
<path fill="none" stroke="midnightblue" d="M2974.04,-123.55C3051.44,-111.67 3185.4,-91.02 3207.91,-87 3218.08,-85.19 3229.02,-83.07 3239.23,-81.02"/>
<polygon fill="midnightblue" stroke="midnightblue" points="2973.33,-120.12 2963.98,-125.1 2974.39,-127.04 2973.33,-120.12"/>
</g>
<!-- Node48 -->
<g id="node37" class="node">
<title>Node48</title>
<g id="a_node37"><a xlink:href="AlglibInterface_8cpp.html" target="_top" xlink:title=" ">
<polygon fill="none" stroke="black" points="3360.91,-62 3360.91,-81 3468.91,-81 3468.91,-62 3360.91,-62"/>
<text text-anchor="middle" x="3414.91" y="-69" font-family="FreeSans.ttf" font-size="10.00">AlglibInterface.cpp</text>
</a>
</g>
</g>
<!-- Node2&#45;&gt;Node48 -->
<g id="edge37" class="edge">
<title>Node2&#45;&gt;Node48</title>
<path fill="none" stroke="midnightblue" d="M2974.05,-123.49C2975.35,-123.32 2976.64,-123.16 2977.91,-123 3143.63,-102.4 3187.08,-113.78 3351.91,-87 3361.55,-85.43 3371.91,-83.26 3381.39,-81.07"/>
<polygon fill="midnightblue" stroke="midnightblue" points="2973.41,-120.05 2963.97,-124.86 2974.35,-126.98 2973.41,-120.05"/>
</g>
<!-- Node49 -->
<g id="node38" class="node">
<title>Node49</title>
<g id="a_node38"><a xlink:href="ConstraintsGroup_8cpp.html" target="_top" xlink:title=" ">
<polygon fill="none" stroke="black" points="3486.91,-62 3486.91,-81 3608.91,-81 3608.91,-62 3486.91,-62"/>
<text text-anchor="middle" x="3547.91" y="-69" font-family="FreeSans.ttf" font-size="10.00">ConstraintsGroup.cpp</text>
</a>
</g>
</g>
<!-- Node2&#45;&gt;Node49 -->
<g id="edge38" class="edge">
<title>Node2&#45;&gt;Node49</title>
<path fill="none" stroke="midnightblue" d="M2974.05,-123.45C2975.35,-123.29 2976.64,-123.14 2977.91,-123 3199.32,-98.18 3257.23,-117.66 3477.91,-87 3488.85,-85.48 3500.65,-83.26 3511.38,-81.02"/>
<polygon fill="midnightblue" stroke="midnightblue" points="2973.43,-120 2963.96,-124.75 2974.33,-126.94 2973.43,-120"/>
</g>
<!-- Node50 -->
<g id="node39" class="node">
<title>Node50</title>
<g id="a_node39"><a xlink:href="FixedStepIntegrator_8cpp.html" target="_top" xlink:title=" ">
<polygon fill="none" stroke="black" points="3627.41,-62 3627.41,-81 3758.41,-81 3758.41,-62 3627.41,-62"/>
<text text-anchor="middle" x="3692.91" y="-69" font-family="FreeSans.ttf" font-size="10.00">FixedStepIntegrator.cpp</text>
</a>
</g>
</g>
<!-- Node2&#45;&gt;Node50 -->
<g id="edge39" class="edge">
<title>Node2&#45;&gt;Node50</title>
<path fill="none" stroke="midnightblue" d="M2974.05,-123.42C2975.35,-123.27 2976.64,-123.13 2977.91,-123 3261.27,-93.49 3335.19,-122.12 3617.91,-87 3629.76,-85.53 3642.54,-83.3 3654.14,-81.03"/>
<polygon fill="midnightblue" stroke="midnightblue" points="2973.44,-119.97 2963.95,-124.68 2974.31,-126.92 2973.44,-119.97"/>
</g>
<!-- Node51 -->
<g id="node40" class="node">
<title>Node51</title>
<g id="a_node40"><a xlink:href="ForwardEuler_8cpp.html" target="_top" xlink:title=" ">
<polygon fill="none" stroke="black" points="3776.91,-62 3776.91,-81 3876.91,-81 3876.91,-62 3776.91,-62"/>
<text text-anchor="middle" x="3826.91" y="-69" font-family="FreeSans.ttf" font-size="10.00">ForwardEuler.cpp</text>
</a>
</g>
</g>
<!-- Node2&#45;&gt;Node51 -->
<g id="edge40" class="edge">
<title>Node2&#45;&gt;Node51</title>
<path fill="none" stroke="midnightblue" d="M2974.04,-123.4C2975.34,-123.26 2976.63,-123.13 2977.91,-123 3327.68,-88.45 3420.04,-137.18 3767.91,-87 3777.52,-85.61 3787.84,-83.35 3797.12,-81.02"/>
<polygon fill="midnightblue" stroke="midnightblue" points="2973.45,-119.95 2963.95,-124.63 2974.3,-126.9 2973.45,-119.95"/>
</g>
<!-- Node52 -->
<g id="node41" class="node">
<title>Node52</title>
<g id="a_node41"><a xlink:href="ImplicitTrapezoidal_8cpp.html" target="_top" xlink:title=" ">
<polygon fill="none" stroke="black" points="3895.41,-62 3895.41,-81 4024.41,-81 4024.41,-62 3895.41,-62"/>
<text text-anchor="middle" x="3959.91" y="-69" font-family="FreeSans.ttf" font-size="10.00">ImplicitTrapezoidal.cpp</text>
</a>
</g>
</g>
<!-- Node2&#45;&gt;Node52 -->
<g id="edge41" class="edge">
<title>Node2&#45;&gt;Node52</title>
<path fill="none" stroke="midnightblue" d="M2974.04,-123.39C2975.34,-123.25 2976.63,-123.12 2977.91,-123 3379.94,-84.49 3484.78,-133.97 3885.91,-87 3897.87,-85.6 3910.79,-83.33 3922.44,-81"/>
<polygon fill="midnightblue" stroke="midnightblue" points="2973.46,-119.94 2963.94,-124.6 2974.29,-126.89 2973.46,-119.94"/>
</g>
<!-- Node53 -->
<g id="node42" class="node">
<title>Node53</title>
<g id="a_node42"><a xlink:href="Integrator_8cpp.html" target="_top" xlink:title=" ">
<polygon fill="none" stroke="black" points="4042.91,-62 4042.91,-81 4126.91,-81 4126.91,-62 4042.91,-62"/>
<text text-anchor="middle" x="4084.91" y="-69" font-family="FreeSans.ttf" font-size="10.00">Integrator.cpp</text>
</a>
</g>
</g>
<!-- Node2&#45;&gt;Node53 -->
<g id="edge42" class="edge">
<title>Node2&#45;&gt;Node53</title>
<path fill="none" stroke="midnightblue" d="M2974.04,-123.38C2975.34,-123.25 2976.63,-123.12 2977.91,-123 3445.5,-79.52 3569.97,-159.75 4033.91,-87 4042.37,-85.67 4051.41,-83.4 4059.5,-81.04"/>
<polygon fill="midnightblue" stroke="midnightblue" points="2973.46,-119.93 2963.94,-124.57 2974.28,-126.88 2973.46,-119.93"/>
</g>
<!-- Node54 -->
<g id="node43" class="node">
<title>Node54</title>
<g id="a_node43"><a xlink:href="IpoptInterface_8cpp.html" target="_top" xlink:title=" ">
<polygon fill="none" stroke="black" points="4145.41,-62 4145.41,-81 4250.41,-81 4250.41,-62 4145.41,-62"/>
<text text-anchor="middle" x="4197.91" y="-69" font-family="FreeSans.ttf" font-size="10.00">IpoptInterface.cpp</text>
</a>
</g>
</g>
<!-- Node2&#45;&gt;Node54 -->
<g id="edge43" class="edge">
<title>Node2&#45;&gt;Node54</title>
<path fill="none" stroke="midnightblue" d="M2974.04,-123.38C2975.34,-123.24 2976.63,-123.12 2977.91,-123 3490.69,-76.09 3625.37,-153.96 4135.91,-87 4146.1,-85.66 4157.07,-83.38 4166.91,-81.02"/>
<polygon fill="midnightblue" stroke="midnightblue" points="2973.47,-119.92 2963.94,-124.56 2974.28,-126.87 2973.47,-119.92"/>
</g>
<!-- Node3&#45;&gt;Node6 -->
<g id="edge3" class="edge">
<title>Node3&#45;&gt;Node6</title>
<path fill="none" stroke="midnightblue" d="M1275.47,-59.24C1270.61,-57.98 1265.66,-56.85 1260.91,-56 1062.01,-20.24 821.79,-12.77 711.14,-11.3"/>
<polygon fill="midnightblue" stroke="midnightblue" points="1274.63,-62.64 1285.2,-61.93 1276.5,-55.89 1274.63,-62.64"/>
</g>
<!-- Node3&#45;&gt;Node8 -->
<g id="edge4" class="edge">
<title>Node3&#45;&gt;Node8</title>
<path fill="none" stroke="midnightblue" d="M1345.96,-59.24C1351.26,-57.92 1356.69,-56.77 1361.91,-56 1651.91,-13.29 3802.8,-11.03 4211.84,-10.98"/>
<polygon fill="midnightblue" stroke="midnightblue" points="1344.78,-55.94 1336.05,-61.94 1346.62,-62.69 1344.78,-55.94"/>
</g>
<!-- Node81&#45;&gt;Node16 -->
<g id="edge45" class="edge">
<title>Node81&#45;&gt;Node16</title>
<path fill="none" stroke="midnightblue" d="M622.48,-128.7C489.17,-121.96 199.15,-105.66 100.91,-87 93.36,-85.57 85.31,-83.35 78.04,-81.07"/>
<polygon fill="midnightblue" stroke="midnightblue" points="622.41,-132.2 632.57,-129.21 622.76,-125.21 622.41,-132.2"/>
</g>
<!-- Node81&#45;&gt;Node17 -->
<g id="edge46" class="edge">
<title>Node81&#45;&gt;Node17</title>
<path fill="none" stroke="midnightblue" d="M647.01,-121C612.19,-112.15 562.31,-99.23 518.91,-87 512.29,-85.13 505.19,-83.04 498.53,-81.04"/>
<polygon fill="midnightblue" stroke="midnightblue" points="646.32,-124.43 656.87,-123.49 648.03,-117.65 646.32,-124.43"/>
</g>
<!-- Node81&#45;&gt;Node20 -->
<g id="edge47" class="edge">
<title>Node81&#45;&gt;Node20</title>
<path fill="none" stroke="midnightblue" d="M665.9,-118.71C644.21,-107.19 613.46,-90.86 594.93,-81.01"/>
<polygon fill="midnightblue" stroke="midnightblue" points="664.39,-121.87 674.86,-123.48 667.67,-115.69 664.39,-121.87"/>
</g>
<!-- Node81&#45;&gt;Node33 -->
<g id="edge48" class="edge">
<title>Node81&#45;&gt;Node33</title>
<path fill="none" stroke="midnightblue" d="M721.71,-119.78C750.86,-108.22 793.86,-91.16 819.46,-81.01"/>
<polygon fill="midnightblue" stroke="midnightblue" points="720.41,-116.53 712.4,-123.48 722.99,-123.04 720.41,-116.53"/>
</g>
<!-- Node81&#45;&gt;Node34 -->
<g id="edge49" class="edge">
<title>Node81&#45;&gt;Node34</title>
<path fill="none" stroke="midnightblue" d="M748.97,-121.72C803.89,-111.99 886.76,-97.32 947.72,-86.52"/>
<polygon fill="midnightblue" stroke="midnightblue" points="748.29,-118.28 739.05,-123.48 749.51,-125.18 748.29,-118.28"/>
</g>
<!-- Node81&#45;&gt;Node42 -->
<g id="edge50" class="edge">
<title>Node81&#45;&gt;Node42</title>
<path fill="none" stroke="midnightblue" d="M690.91,-113.32C690.91,-102.5 690.91,-89.4 690.91,-81.01"/>
<polygon fill="midnightblue" stroke="midnightblue" points="687.41,-113.48 690.91,-123.48 694.41,-113.48 687.41,-113.48"/>
</g>
<!-- Node152&#45;&gt;Node12 -->
<g id="edge52" class="edge">
<title>Node152&#45;&gt;Node12</title>
<path fill="none" stroke="midnightblue" d="M389.14,-116.65C376.75,-105.31 360.34,-90.28 350.21,-81.01"/>
<polygon fill="midnightblue" stroke="midnightblue" points="386.86,-119.3 396.6,-123.48 391.58,-114.14 386.86,-119.3"/>
</g>
<!-- Node152&#45;&gt;Node16 -->
<g id="edge53" class="edge">
<title>Node152&#45;&gt;Node16</title>
<path fill="none" stroke="midnightblue" d="M364.86,-127.96C305.95,-121.7 194.23,-108.15 100.91,-87 93.75,-85.38 86.09,-83.21 79.09,-81.04"/>
<polygon fill="midnightblue" stroke="midnightblue" points="364.58,-131.45 374.89,-129.01 365.3,-124.49 364.58,-131.45"/>
</g>
<!-- Node152&#45;&gt;Node17 -->
<g id="edge54" class="edge">
<title>Node152&#45;&gt;Node17</title>
<path fill="none" stroke="midnightblue" d="M422.68,-116.65C435.07,-105.31 451.49,-90.28 461.62,-81.01"/>
<polygon fill="midnightblue" stroke="midnightblue" points="420.24,-114.14 415.22,-123.48 424.96,-119.3 420.24,-114.14"/>
</g>
<!-- Node152&#45;&gt;Node20 -->
<g id="edge55" class="edge">
<title>Node152&#45;&gt;Node20</title>
<path fill="none" stroke="midnightblue" d="M440.56,-120.08C474.19,-108.52 524.39,-91.25 554.17,-81.01"/>
<polygon fill="midnightblue" stroke="midnightblue" points="439.02,-116.91 430.7,-123.48 441.29,-123.53 439.02,-116.91"/>
</g>
<!-- Node152&#45;&gt;Node36 -->
<g id="edge56" class="edge">
<title>Node152&#45;&gt;Node36</title>
<path fill="none" stroke="midnightblue" d="M364.73,-121.16C320.99,-109.64 252.71,-91.67 212.53,-81.09"/>
<polygon fill="midnightblue" stroke="midnightblue" points="363.92,-124.57 374.49,-123.73 365.71,-117.8 363.92,-124.57"/>
</g>
<!-- Node184&#45;&gt;Node33 -->
<g id="edge65" class="edge">
<title>Node184&#45;&gt;Node33</title>
<path fill="none" stroke="midnightblue" d="M911.92,-117.93C893.99,-106.46 869.26,-90.63 854.21,-81.01"/>
<polygon fill="midnightblue" stroke="midnightblue" points="910.28,-121.03 920.59,-123.48 914.05,-115.14 910.28,-121.03"/>
</g>
<!-- Node184&#45;&gt;Node34 -->
<g id="edge66" class="edge">
<title>Node184&#45;&gt;Node34</title>
<path fill="none" stroke="midnightblue" d="M955.78,-118.01C970.61,-108.52 990.15,-96.02 1004.99,-86.52"/>
<polygon fill="midnightblue" stroke="midnightblue" points="953.77,-115.14 947.24,-123.48 957.55,-121.03 953.77,-115.14"/>
</g>
<!-- Node184&#45;&gt;Node42 -->
<g id="edge67" class="edge">
<title>Node184&#45;&gt;Node42</title>
<path fill="none" stroke="midnightblue" d="M887.24,-121.56C848.49,-112.76 791.98,-99.62 742.91,-87 735.74,-85.16 728.04,-83.07 720.83,-81.07"/>
<polygon fill="midnightblue" stroke="midnightblue" points="886.66,-125.02 897.19,-123.81 888.21,-118.19 886.66,-125.02"/>
</g>
</g>
</svg>
