<?xml version="1.0" encoding="UTF-8" standalone="no"?>
<!DOCTYPE svg PUBLIC "-//W3C//DTD SVG 1.1//EN"
 "http://www.w3.org/Graphics/SVG/1.1/DTD/svg11.dtd">
<!-- Generated by graphviz version 2.43.0 (0)
 -->
<!-- Title: iDynTree::SixAxisForceTorqueSensor::SixAxisForceTorqueSensorPrivateAttributes Pages: 1 -->
<svg width="281pt" height="387pt"
 viewBox="0.00 0.00 281.00 387.00" xmlns="http://www.w3.org/2000/svg" xmlns:xlink="http://www.w3.org/1999/xlink">
<g id="graph0" class="graph" transform="scale(1 1) rotate(0) translate(4 383)">
<title>iDynTree::SixAxisForceTorqueSensor::SixAxisForceTorqueSensorPrivateAttributes</title>
<!-- Node1 -->
<g id="node1" class="node">
<title>Node1</title>
<g id="a_node1"><a xlink:title=" ">
<polygon fill="#bfbfbf" stroke="black" points="51,-0.5 51,-41.5 234,-41.5 234,-0.5 51,-0.5"/>
<text text-anchor="start" x="59" y="-29.5" font-family="FreeSans.ttf" font-size="10.00">iDynTree::SixAxisForceTorque</text>
<text text-anchor="start" x="59" y="-18.5" font-family="FreeSans.ttf" font-size="10.00">Sensor::SixAxisForceTorqueSensor</text>
<text text-anchor="middle" x="142.5" y="-7.5" font-family="FreeSans.ttf" font-size="10.00">PrivateAttributes</text>
</a>
</g>
</g>
<!-- Node2 -->
<g id="node2" class="node">
<title>Node2</title>
<g id="a_node2"><a xlink:href="classiDynTree_1_1Transform.html" target="_top" xlink:title="Class representation the relative displacement between two different frames.">
<polygon fill="none" stroke="black" points="85.5,-100.5 85.5,-119.5 199.5,-119.5 199.5,-100.5 85.5,-100.5"/>
<text text-anchor="middle" x="142.5" y="-107.5" font-family="FreeSans.ttf" font-size="10.00">iDynTree::Transform</text>
</a>
</g>
</g>
<!-- Node2&#45;&gt;Node1 -->
<g id="edge1" class="edge">
<title>Node2&#45;&gt;Node1</title>
<path fill="none" stroke="#9a32cd" stroke-dasharray="5,2" d="M142.5,-90.2C142.5,-75.88 142.5,-56.21 142.5,-41.68"/>
<polygon fill="#9a32cd" stroke="#9a32cd" points="139,-90.34 142.5,-100.34 146,-90.34 139,-90.34"/>
<text text-anchor="middle" x="181.5" y="-74" font-family="FreeSans.ttf" font-size="10.00"> link1_H_sensor</text>
<text text-anchor="middle" x="181.5" y="-63" font-family="FreeSans.ttf" font-size="10.00">link2_H_sensor</text>
</g>
<!-- Node3 -->
<g id="node3" class="node">
<title>Node3</title>
<g id="a_node3"><a xlink:href="classiDynTree_1_1Rotation.html" target="_top" xlink:title="Class representation the rotation of an orientation frame with respect to a reference orientation fra...">
<polygon fill="none" stroke="black" points="27,-167.5 27,-186.5 134,-186.5 134,-167.5 27,-167.5"/>
<text text-anchor="middle" x="80.5" y="-174.5" font-family="FreeSans.ttf" font-size="10.00">iDynTree::Rotation</text>
</a>
</g>
</g>
<!-- Node3&#45;&gt;Node2 -->
<g id="edge2" class="edge">
<title>Node3&#45;&gt;Node2</title>
<path fill="none" stroke="#9a32cd" stroke-dasharray="5,2" d="M95.76,-160C107.92,-147.25 124.48,-129.89 134.27,-119.63"/>
<polygon fill="#9a32cd" stroke="#9a32cd" points="93.23,-157.58 88.86,-167.23 98.3,-162.41 93.23,-157.58"/>
<text text-anchor="middle" x="124" y="-141" font-family="FreeSans.ttf" font-size="10.00"> rot</text>
</g>
<!-- Node4 -->
<g id="node4" class="node">
<title>Node4</title>
<g id="a_node4"><a xlink:href="classiDynTree_1_1RotationRaw.html" target="_top" xlink:title="Class providing the raw coordinates for iDynTree::Rotation class.">
<polygon fill="none" stroke="black" points="1.5,-224.5 1.5,-243.5 129.5,-243.5 129.5,-224.5 1.5,-224.5"/>
<text text-anchor="middle" x="65.5" y="-231.5" font-family="FreeSans.ttf" font-size="10.00">iDynTree::RotationRaw</text>
</a>
</g>
</g>
<!-- Node4&#45;&gt;Node3 -->
<g id="edge3" class="edge">
<title>Node4&#45;&gt;Node3</title>
<path fill="none" stroke="midnightblue" d="M70.48,-214.73C73.06,-205.29 76.08,-194.22 78.12,-186.71"/>
<polygon fill="midnightblue" stroke="midnightblue" points="67.1,-213.84 67.84,-224.41 73.85,-215.68 67.1,-213.84"/>
</g>
<!-- Node5 -->
<g id="node5" class="node">
<title>Node5</title>
<g id="a_node5"><a xlink:href="classiDynTree_1_1MatrixFixSize.html" target="_top" xlink:title=" ">
<polygon fill="none" stroke="black" points="32.5,-281.5 32.5,-300.5 98.5,-300.5 98.5,-281.5 32.5,-281.5"/>
<text text-anchor="middle" x="65.5" y="-288.5" font-family="FreeSans.ttf" font-size="10.00">Matrix3x3</text>
</a>
</g>
</g>
<!-- Node5&#45;&gt;Node4 -->
<g id="edge4" class="edge">
<title>Node5&#45;&gt;Node4</title>
<path fill="none" stroke="midnightblue" d="M65.5,-271.12C65.5,-261.82 65.5,-251.06 65.5,-243.71"/>
<polygon fill="midnightblue" stroke="midnightblue" points="62,-271.41 65.5,-281.41 69,-271.41 62,-271.41"/>
</g>
<!-- Node6 -->
<g id="node6" class="node">
<title>Node6</title>
<g id="a_node6"><a xlink:href="classiDynTree_1_1MatrixFixSize.html" target="_top" xlink:title="Class providing a simple form of matrix with dynamic size.">
<polygon fill="none" stroke="black" points="0,-348.5 0,-378.5 131,-378.5 131,-348.5 0,-348.5"/>
<text text-anchor="start" x="8" y="-366.5" font-family="FreeSans.ttf" font-size="10.00">iDynTree::MatrixFixSize</text>
<text text-anchor="middle" x="65.5" y="-355.5" font-family="FreeSans.ttf" font-size="10.00">&lt; nRows, nCols &gt;</text>
</a>
</g>
</g>
<!-- Node6&#45;&gt;Node5 -->
<g id="edge5" class="edge">
<title>Node6&#45;&gt;Node5</title>
<path fill="none" stroke="orange" stroke-dasharray="5,2" d="M65.5,-338.09C65.5,-325.21 65.5,-310.2 65.5,-300.89"/>
<polygon fill="orange" stroke="orange" points="62,-338.23 65.5,-348.23 69,-338.23 62,-338.23"/>
<text text-anchor="middle" x="87.5" y="-322" font-family="FreeSans.ttf" font-size="10.00"> &lt; 3, 3 &gt;</text>
</g>
<!-- Node7 -->
<g id="node7" class="node">
<title>Node7</title>
<g id="a_node7"><a xlink:href="classiDynTree_1_1Position.html" target="_top" xlink:title="Class representation the coordinates of the Position of a point with respect to another point.">
<polygon fill="none" stroke="black" points="155.5,-167.5 155.5,-186.5 259.5,-186.5 259.5,-167.5 155.5,-167.5"/>
<text text-anchor="middle" x="207.5" y="-174.5" font-family="FreeSans.ttf" font-size="10.00">iDynTree::Position</text>
</a>
</g>
</g>
<!-- Node7&#45;&gt;Node2 -->
<g id="edge6" class="edge">
<title>Node7&#45;&gt;Node2</title>
<path fill="none" stroke="#9a32cd" stroke-dasharray="5,2" d="M191.5,-160C178.75,-147.25 161.39,-129.89 151.13,-119.63"/>
<polygon fill="#9a32cd" stroke="#9a32cd" points="189.19,-162.64 198.73,-167.23 194.14,-157.69 189.19,-162.64"/>
<text text-anchor="middle" x="190" y="-141" font-family="FreeSans.ttf" font-size="10.00"> pos</text>
</g>
<!-- Node8 -->
<g id="node8" class="node">
<title>Node8</title>
<g id="a_node8"><a xlink:href="classiDynTree_1_1PositionRaw.html" target="_top" xlink:title="Class providing the raw coordinates for iDynTree::Position class.">
<polygon fill="none" stroke="black" points="148,-224.5 148,-243.5 273,-243.5 273,-224.5 148,-224.5"/>
<text text-anchor="middle" x="210.5" y="-231.5" font-family="FreeSans.ttf" font-size="10.00">iDynTree::PositionRaw</text>
</a>
</g>
</g>
<!-- Node8&#45;&gt;Node7 -->
<g id="edge7" class="edge">
<title>Node8&#45;&gt;Node7</title>
<path fill="none" stroke="midnightblue" d="M209.47,-214.12C208.96,-204.82 208.38,-194.06 207.98,-186.71"/>
<polygon fill="midnightblue" stroke="midnightblue" points="205.99,-214.61 210.03,-224.41 212.98,-214.23 205.99,-214.61"/>
</g>
<!-- Node9 -->
<g id="node9" class="node">
<title>Node9</title>
<g id="a_node9"><a xlink:href="classiDynTree_1_1VectorFixSize.html" target="_top" xlink:title="Class providing a simple vector of N elements.">
<polygon fill="none" stroke="black" points="184,-281.5 184,-300.5 237,-300.5 237,-281.5 184,-281.5"/>
<text text-anchor="middle" x="210.5" y="-288.5" font-family="FreeSans.ttf" font-size="10.00">Vector3</text>
</a>
</g>
</g>
<!-- Node9&#45;&gt;Node8 -->
<g id="edge8" class="edge">
<title>Node9&#45;&gt;Node8</title>
<path fill="none" stroke="midnightblue" d="M210.5,-271.12C210.5,-261.82 210.5,-251.06 210.5,-243.71"/>
<polygon fill="midnightblue" stroke="midnightblue" points="207,-271.41 210.5,-281.41 214,-271.41 207,-271.41"/>
</g>
</g>
</svg>
