<?xml version="1.0" encoding="UTF-8" standalone="no"?>
<!DOCTYPE svg PUBLIC "-//W3C//DTD SVG 1.1//EN"
 "http://www.w3.org/Graphics/SVG/1.1/DTD/svg11.dtd">
<!-- Generated by graphviz version 2.43.0 (0)
 -->
<!-- Title: iDynTree::details::is_std_array&lt; T &gt; Pages: 1 -->
<svg width="236pt" height="264pt"
 viewBox="0.00 0.00 236.00 264.00" xmlns="http://www.w3.org/2000/svg" xmlns:xlink="http://www.w3.org/1999/xlink">
<g id="graph0" class="graph" transform="scale(1 1) rotate(0) translate(4 260)">
<title>iDynTree::details::is_std_array&lt; T &gt;</title>
<!-- Node1 -->
<g id="node1" class="node">
<title>Node1</title>
<g id="a_node1"><a xlink:title=" ">
<polygon fill="#bfbfbf" stroke="black" points="24,-0.5 24,-30.5 128,-30.5 128,-0.5 24,-0.5"/>
<text text-anchor="start" x="32" y="-18.5" font-family="FreeSans.ttf" font-size="10.00">iDynTree::details::</text>
<text text-anchor="middle" x="76" y="-7.5" font-family="FreeSans.ttf" font-size="10.00">is_std_array&lt; T &gt;</text>
</a>
</g>
</g>
<!-- Node2 -->
<g id="node2" class="node">
<title>Node2</title>
<g id="a_node2"><a xlink:href="structiDynTree_1_1details_1_1is__std__array__oracle.html" target="_top" xlink:title=" ">
<polygon fill="none" stroke="black" points="0,-68.5 0,-109.5 152,-109.5 152,-68.5 0,-68.5"/>
<text text-anchor="start" x="8" y="-97.5" font-family="FreeSans.ttf" font-size="10.00">iDynTree::details::</text>
<text text-anchor="start" x="8" y="-86.5" font-family="FreeSans.ttf" font-size="10.00">is_std_array_oracle</text>
<text text-anchor="middle" x="76" y="-75.5" font-family="FreeSans.ttf" font-size="10.00">&lt; std::remove_cv_t&lt; T &gt; &gt;</text>
</a>
</g>
</g>
<!-- Node2&#45;&gt;Node1 -->
<g id="edge1" class="edge">
<title>Node2&#45;&gt;Node1</title>
<path fill="none" stroke="midnightblue" d="M76,-58.16C76,-48.69 76,-38.65 76,-30.8"/>
<polygon fill="midnightblue" stroke="midnightblue" points="72.5,-58.46 76,-68.46 79.5,-58.46 72.5,-58.46"/>
</g>
<!-- Node3 -->
<g id="node3" class="node">
<title>Node3</title>
<g id="a_node3"><a xlink:title=" ">
<polygon fill="none" stroke="#bfbfbf" points="38,-236.5 38,-255.5 106,-255.5 106,-236.5 38,-236.5"/>
<text text-anchor="middle" x="72" y="-243.5" font-family="FreeSans.ttf" font-size="10.00">false_type</text>
</a>
</g>
</g>
<!-- Node3&#45;&gt;Node2 -->
<g id="edge2" class="edge">
<title>Node3&#45;&gt;Node2</title>
<path fill="none" stroke="midnightblue" d="M72.49,-226C73.25,-196.38 74.72,-139.51 75.5,-109.56"/>
<polygon fill="midnightblue" stroke="midnightblue" points="68.99,-226.14 72.23,-236.22 75.98,-226.32 68.99,-226.14"/>
</g>
<!-- Node4 -->
<g id="node4" class="node">
<title>Node4</title>
<g id="a_node4"><a xlink:href="structiDynTree_1_1details_1_1is__std__array__oracle.html" target="_top" xlink:title=" ">
<polygon fill="none" stroke="black" points="88,-168.5 88,-198.5 228,-198.5 228,-168.5 88,-168.5"/>
<text text-anchor="start" x="96" y="-186.5" font-family="FreeSans.ttf" font-size="10.00">iDynTree::details::</text>
<text text-anchor="middle" x="158" y="-175.5" font-family="FreeSans.ttf" font-size="10.00">is_std_array_oracle&lt; T &gt;</text>
</a>
</g>
</g>
<!-- Node3&#45;&gt;Node4 -->
<g id="edge4" class="edge">
<title>Node3&#45;&gt;Node4</title>
<path fill="none" stroke="midnightblue" d="M92.67,-230.46C106.44,-220.77 124.44,-208.11 138.06,-198.53"/>
<polygon fill="midnightblue" stroke="midnightblue" points="90.49,-227.72 84.32,-236.33 94.51,-233.44 90.49,-227.72"/>
</g>
<!-- Node4&#45;&gt;Node2 -->
<g id="edge3" class="edge">
<title>Node4&#45;&gt;Node2</title>
<path fill="none" stroke="orange" stroke-dasharray="5,2" d="M138.84,-160.88C125.11,-145.4 106.77,-124.71 93.45,-109.68"/>
<polygon fill="orange" stroke="orange" points="136.29,-163.29 145.55,-168.45 141.53,-158.65 136.29,-163.29"/>
<text text-anchor="start" x="129" y="-142" font-family="FreeSans.ttf" font-size="10.00"> &lt; std::remove_cv_t</text>
<text text-anchor="middle" x="178.5" y="-131" font-family="FreeSans.ttf" font-size="10.00">&lt; T &gt; &gt;</text>
</g>
</g>
</svg>
