<?xml version="1.0" encoding="UTF-8" standalone="no"?>
<!DOCTYPE svg PUBLIC "-//W3C//DTD SVG 1.1//EN"
 "http://www.w3.org/Graphics/SVG/1.1/DTD/svg11.dtd">
<!-- Generated by graphviz version 2.43.0 (0)
 -->
<!-- Title: iDynTree::optimalcontrol::BufferedGroup Pages: 1 -->
<svg width="434pt" height="195pt"
 viewBox="0.00 0.00 434.00 195.00" xmlns="http://www.w3.org/2000/svg" xmlns:xlink="http://www.w3.org/1999/xlink">
<g id="graph0" class="graph" transform="scale(1 1) rotate(0) translate(4 191)">
<title>iDynTree::optimalcontrol::BufferedGroup</title>
<!-- Node1 -->
<g id="node1" class="node">
<title>Node1</title>
<g id="a_node1"><a xlink:title=" ">
<polygon fill="#bfbfbf" stroke="black" points="289,-40 289,-70 426,-70 426,-40 289,-40"/>
<text text-anchor="start" x="297" y="-58" font-family="FreeSans.ttf" font-size="10.00">iDynTree::optimalcontrol</text>
<text text-anchor="middle" x="357.5" y="-47" font-family="FreeSans.ttf" font-size="10.00">::BufferedGroup</text>
</a>
</g>
</g>
<!-- Node2 -->
<g id="node2" class="node">
<title>Node2</title>
<g id="a_node2"><a xlink:href="classiDynTree_1_1MatrixDynSize.html" target="_top" xlink:title="Class providing a simple form of matrix with dynamic size.">
<polygon fill="none" stroke="black" points="0,-123.5 0,-142.5 137,-142.5 137,-123.5 0,-123.5"/>
<text text-anchor="middle" x="68.5" y="-130.5" font-family="FreeSans.ttf" font-size="10.00">iDynTree::MatrixDynSize</text>
</a>
</g>
</g>
<!-- Node2&#45;&gt;Node1 -->
<g id="edge1" class="edge">
<title>Node2&#45;&gt;Node1</title>
<path fill="none" stroke="#9a32cd" stroke-dasharray="5,2" d="M147.11,-132.98C185.37,-130.87 231.62,-125.12 271,-111 296.72,-101.78 322.44,-83.38 338.85,-70.19"/>
<polygon fill="#9a32cd" stroke="#9a32cd" points="146.88,-129.49 137.06,-133.46 147.21,-136.48 146.88,-129.49"/>
<text text-anchor="middle" x="213" y="-179" font-family="FreeSans.ttf" font-size="10.00"> stateHessianBuffer</text>
<text text-anchor="middle" x="213" y="-168" font-family="FreeSans.ttf" font-size="10.00">stateJacobianBuffer</text>
<text text-anchor="middle" x="213" y="-157" font-family="FreeSans.ttf" font-size="10.00">controlJacobianBuffer</text>
<text text-anchor="middle" x="213" y="-146" font-family="FreeSans.ttf" font-size="10.00">controlHessianBuffer</text>
<text text-anchor="middle" x="213" y="-135" font-family="FreeSans.ttf" font-size="10.00">mixedHessianBuffer</text>
</g>
<!-- Node3 -->
<g id="node3" class="node">
<title>Node3</title>
<g id="a_node3"><a xlink:href="classiDynTree_1_1optimalcontrol_1_1SparsityStructure.html" target="_top" xlink:title=" ">
<polygon fill="none" stroke="black" points="0,-40 0,-70 137,-70 137,-40 0,-40"/>
<text text-anchor="start" x="8" y="-58" font-family="FreeSans.ttf" font-size="10.00">iDynTree::optimalcontrol</text>
<text text-anchor="middle" x="68.5" y="-47" font-family="FreeSans.ttf" font-size="10.00">::SparsityStructure</text>
</a>
</g>
</g>
<!-- Node3&#45;&gt;Node1 -->
<g id="edge2" class="edge">
<title>Node3&#45;&gt;Node1</title>
<path fill="none" stroke="#9a32cd" stroke-dasharray="5,2" d="M147.28,-55C191.51,-55 246.36,-55 288.81,-55"/>
<polygon fill="#9a32cd" stroke="#9a32cd" points="147.15,-51.5 137.15,-55 147.15,-58.5 147.15,-51.5"/>
<text text-anchor="middle" x="213" y="-102" font-family="FreeSans.ttf" font-size="10.00"> controlHessianSparsity</text>
<text text-anchor="middle" x="213" y="-91" font-family="FreeSans.ttf" font-size="10.00">stateJacobianSparsity</text>
<text text-anchor="middle" x="213" y="-80" font-family="FreeSans.ttf" font-size="10.00">mixedHessianSparsity</text>
<text text-anchor="middle" x="213" y="-69" font-family="FreeSans.ttf" font-size="10.00">stateHessianSparsity</text>
<text text-anchor="middle" x="213" y="-58" font-family="FreeSans.ttf" font-size="10.00">controlJacobianSparsity</text>
</g>
<!-- Node4 -->
<g id="node4" class="node">
<title>Node4</title>
<g id="a_node4"><a xlink:href="classiDynTree_1_1VectorDynSize.html" target="_top" xlink:title="Class providing a simple form of vector with dynamic size.">
<polygon fill="none" stroke="black" points="0.5,-0.5 0.5,-19.5 136.5,-19.5 136.5,-0.5 0.5,-0.5"/>
<text text-anchor="middle" x="68.5" y="-7.5" font-family="FreeSans.ttf" font-size="10.00">iDynTree::VectorDynSize</text>
</a>
</g>
</g>
<!-- Node4&#45;&gt;Node1 -->
<g id="edge3" class="edge">
<title>Node4&#45;&gt;Node1</title>
<path fill="none" stroke="#9a32cd" stroke-dasharray="5,2" d="M147.09,-13.66C184.75,-16.36 230.51,-21.02 271,-29 284.85,-31.73 299.66,-35.8 312.99,-39.92"/>
<polygon fill="#9a32cd" stroke="#9a32cd" points="146.91,-10.14 136.69,-12.95 146.43,-17.12 146.91,-10.14"/>
<text text-anchor="middle" x="213" y="-43" font-family="FreeSans.ttf" font-size="10.00"> constraintsBuffer</text>
<text text-anchor="middle" x="213" y="-32" font-family="FreeSans.ttf" font-size="10.00">lambdaBuffer</text>
</g>
</g>
</svg>
