<?xml version="1.0" encoding="UTF-8" standalone="no"?>
<!DOCTYPE svg PUBLIC "-//W3C//DTD SVG 1.1//EN"
 "http://www.w3.org/Graphics/SVG/1.1/DTD/svg11.dtd">
<!-- Generated by graphviz version 2.43.0 (0)
 -->
<!-- Title: SubModel.h Pages: 1 -->
<svg width="653pt" height="162pt"
 viewBox="0.00 0.00 652.50 162.00" xmlns="http://www.w3.org/2000/svg" xmlns:xlink="http://www.w3.org/1999/xlink">
<g id="graph0" class="graph" transform="scale(1 1) rotate(0) translate(4 158)">
<title>SubModel.h</title>
<!-- Node1 -->
<g id="node1" class="node">
<title>Node1</title>
<g id="a_node1"><a xlink:title=" ">
<polygon fill="#bfbfbf" stroke="black" points="266,-134.5 266,-153.5 340,-153.5 340,-134.5 266,-134.5"/>
<text text-anchor="middle" x="303" y="-141.5" font-family="FreeSans.ttf" font-size="10.00">SubModel.h</text>
</a>
</g>
</g>
<!-- Node2 -->
<g id="node2" class="node">
<title>Node2</title>
<g id="a_node2"><a xlink:href="ExtWrenchesAndJointTorquesEstimator_8h.html" target="_top" xlink:title=" ">
<polygon fill="none" stroke="black" points="0,-67.5 0,-97.5 158,-97.5 158,-67.5 0,-67.5"/>
<text text-anchor="start" x="8" y="-85.5" font-family="FreeSans.ttf" font-size="10.00">ExtWrenchesAndJointTorques</text>
<text text-anchor="middle" x="79" y="-74.5" font-family="FreeSans.ttf" font-size="10.00">Estimator.h</text>
</a>
</g>
</g>
<!-- Node1&#45;&gt;Node2 -->
<g id="edge1" class="edge">
<title>Node1&#45;&gt;Node2</title>
<path fill="none" stroke="midnightblue" d="M261.06,-131.86C224.48,-122.14 171.26,-108.01 131.79,-97.52"/>
<polygon fill="midnightblue" stroke="midnightblue" points="260.34,-135.29 270.91,-134.48 262.14,-128.53 260.34,-135.29"/>
</g>
<!-- Node3 -->
<g id="node3" class="node">
<title>Node3</title>
<g id="a_node3"><a xlink:href="ExtWrenchesAndJointTorquesEstimator_8cpp.html" target="_top" xlink:title=" ">
<polygon fill="none" stroke="black" points="53,-0.5 53,-30.5 211,-30.5 211,-0.5 53,-0.5"/>
<text text-anchor="start" x="61" y="-18.5" font-family="FreeSans.ttf" font-size="10.00">ExtWrenchesAndJointTorques</text>
<text text-anchor="middle" x="132" y="-7.5" font-family="FreeSans.ttf" font-size="10.00">Estimator.cpp</text>
</a>
</g>
</g>
<!-- Node1&#45;&gt;Node3 -->
<g id="edge4" class="edge">
<title>Node1&#45;&gt;Node3</title>
<path fill="none" stroke="midnightblue" d="M267.42,-130.76C247.93,-123.08 223.95,-111.97 205,-98 178.7,-78.61 154.79,-48.48 141.93,-30.8"/>
<polygon fill="midnightblue" stroke="midnightblue" points="266.29,-134.07 276.88,-134.36 268.78,-127.53 266.29,-134.07"/>
</g>
<!-- Node4 -->
<g id="node4" class="node">
<title>Node4</title>
<g id="a_node4"><a xlink:href="ExternalWrenchesEstimation_8cpp.html" target="_top" xlink:title=" ">
<polygon fill="none" stroke="black" points="214,-73 214,-92 392,-92 392,-73 214,-73"/>
<text text-anchor="middle" x="303" y="-80" font-family="FreeSans.ttf" font-size="10.00">ExternalWrenchesEstimation.cpp</text>
</a>
</g>
</g>
<!-- Node1&#45;&gt;Node4 -->
<g id="edge3" class="edge">
<title>Node1&#45;&gt;Node4</title>
<path fill="none" stroke="midnightblue" d="M303,-124.32C303,-113.5 303,-100.4 303,-92.01"/>
<polygon fill="midnightblue" stroke="midnightblue" points="299.5,-124.48 303,-134.48 306.5,-124.48 299.5,-124.48"/>
</g>
<!-- Node5 -->
<g id="node5" class="node">
<title>Node5</title>
<g id="a_node5"><a xlink:href="ModelTransformers_8cpp.html" target="_top" xlink:title=" ">
<polygon fill="none" stroke="black" points="410.5,-73 410.5,-92 541.5,-92 541.5,-73 410.5,-73"/>
<text text-anchor="middle" x="476" y="-80" font-family="FreeSans.ttf" font-size="10.00">ModelTransformers.cpp</text>
</a>
</g>
</g>
<!-- Node1&#45;&gt;Node5 -->
<g id="edge5" class="edge">
<title>Node1&#45;&gt;Node5</title>
<path fill="none" stroke="midnightblue" d="M337.65,-131.08C371.28,-119.52 421.48,-102.25 451.26,-92.01"/>
<polygon fill="midnightblue" stroke="midnightblue" points="336.1,-127.91 327.79,-134.48 338.38,-134.53 336.1,-127.91"/>
</g>
<!-- Node6 -->
<g id="node6" class="node">
<title>Node6</title>
<g id="a_node6"><a xlink:href="SubModel_8cpp.html" target="_top" xlink:title=" ">
<polygon fill="none" stroke="black" points="559.5,-73 559.5,-92 644.5,-92 644.5,-73 559.5,-73"/>
<text text-anchor="middle" x="602" y="-80" font-family="FreeSans.ttf" font-size="10.00">SubModel.cpp</text>
</a>
</g>
</g>
<!-- Node1&#45;&gt;Node6 -->
<g id="edge6" class="edge">
<title>Node1&#45;&gt;Node6</title>
<path fill="none" stroke="midnightblue" d="M350.1,-135.86C400.19,-127.93 481.61,-114.12 551,-98 558.44,-96.27 566.42,-94.14 573.8,-92.05"/>
<polygon fill="midnightblue" stroke="midnightblue" points="349.54,-132.4 340.21,-137.41 350.63,-139.32 349.54,-132.4"/>
</g>
<!-- Node2&#45;&gt;Node3 -->
<g id="edge2" class="edge">
<title>Node2&#45;&gt;Node3</title>
<path fill="none" stroke="midnightblue" d="M96.98,-59.45C104.77,-49.9 113.65,-39 120.52,-30.58"/>
<polygon fill="midnightblue" stroke="midnightblue" points="94.11,-57.43 90.5,-67.4 99.53,-61.86 94.11,-57.43"/>
</g>
</g>
</svg>
