<?xml version="1.0" encoding="UTF-8" standalone="no"?>
<!DOCTYPE svg PUBLIC "-//W3C//DTD SVG 1.1//EN"
 "http://www.w3.org/Graphics/SVG/1.1/DTD/svg11.dtd">
<!-- Generated by graphviz version 2.43.0 (0)
 -->
<!-- Title: ThreeAxisForceTorqueContactSensor.h Pages: 1 -->
<svg width="292pt" height="162pt"
 viewBox="0.00 0.00 291.50 162.00" xmlns="http://www.w3.org/2000/svg" xmlns:xlink="http://www.w3.org/1999/xlink">
<g id="graph0" class="graph" transform="scale(1 1) rotate(0) translate(4 158)">
<title>ThreeAxisForceTorqueContactSensor.h</title>
<!-- Node1 -->
<g id="node1" class="node">
<title>Node1</title>
<g id="a_node1"><a xlink:title=" ">
<polygon fill="#bfbfbf" stroke="black" points="46.5,-123.5 46.5,-153.5 207.5,-153.5 207.5,-123.5 46.5,-123.5"/>
<text text-anchor="start" x="54.5" y="-141.5" font-family="FreeSans.ttf" font-size="10.00">ThreeAxisForceTorqueContact</text>
<text text-anchor="middle" x="127" y="-130.5" font-family="FreeSans.ttf" font-size="10.00">Sensor.h</text>
</a>
</g>
</g>
<!-- Node2 -->
<g id="node2" class="node">
<title>Node2</title>
<g id="a_node2"><a xlink:href="AllSensorsTypes_8h.html" target="_top" xlink:title=" ">
<polygon fill="none" stroke="black" points="0,-62 0,-81 104,-81 104,-62 0,-62"/>
<text text-anchor="middle" x="52" y="-69" font-family="FreeSans.ttf" font-size="10.00">AllSensorsTypes.h</text>
</a>
</g>
</g>
<!-- Node1&#45;&gt;Node2 -->
<g id="edge1" class="edge">
<title>Node1&#45;&gt;Node2</title>
<path fill="none" stroke="midnightblue" d="M102.97,-116.67C89.12,-104.67 72.45,-90.22 62.03,-81.19"/>
<polygon fill="midnightblue" stroke="midnightblue" points="100.88,-119.49 110.73,-123.4 105.46,-114.2 100.88,-119.49"/>
</g>
<!-- Node4 -->
<g id="node4" class="node">
<title>Node4</title>
<g id="a_node4"><a xlink:href="ThreeAxisForceTorqueContactSensor_8cpp.html" target="_top" xlink:title=" ">
<polygon fill="none" stroke="black" points="122.5,-56.5 122.5,-86.5 283.5,-86.5 283.5,-56.5 122.5,-56.5"/>
<text text-anchor="start" x="130.5" y="-74.5" font-family="FreeSans.ttf" font-size="10.00">ThreeAxisForceTorqueContact</text>
<text text-anchor="middle" x="203" y="-63.5" font-family="FreeSans.ttf" font-size="10.00">Sensor.cpp</text>
</a>
</g>
</g>
<!-- Node1&#45;&gt;Node4 -->
<g id="edge3" class="edge">
<title>Node1&#45;&gt;Node4</title>
<path fill="none" stroke="midnightblue" d="M151.11,-116.88C162.66,-107.01 176.19,-95.43 186.54,-86.58"/>
<polygon fill="midnightblue" stroke="midnightblue" points="148.82,-114.24 143.49,-123.4 153.37,-119.56 148.82,-114.24"/>
</g>
<!-- Node3 -->
<g id="node3" class="node">
<title>Node3</title>
<g id="a_node3"><a xlink:href="BerdyHelper_8cpp.html" target="_top" xlink:title=" ">
<polygon fill="none" stroke="black" points="3.5,-0.5 3.5,-19.5 100.5,-19.5 100.5,-0.5 3.5,-0.5"/>
<text text-anchor="middle" x="52" y="-7.5" font-family="FreeSans.ttf" font-size="10.00">BerdyHelper.cpp</text>
</a>
</g>
</g>
<!-- Node2&#45;&gt;Node3 -->
<g id="edge2" class="edge">
<title>Node2&#45;&gt;Node3</title>
<path fill="none" stroke="midnightblue" d="M52,-51.82C52,-41 52,-27.9 52,-19.51"/>
<polygon fill="midnightblue" stroke="midnightblue" points="48.5,-51.98 52,-61.98 55.5,-51.98 48.5,-51.98"/>
</g>
</g>
</svg>
