<?xml version="1.0" encoding="UTF-8" standalone="no"?>
<!DOCTYPE svg PUBLIC "-//W3C//DTD SVG 1.1//EN"
 "http://www.w3.org/Graphics/SVG/1.1/DTD/svg11.dtd">
<!-- Generated by graphviz version 2.43.0 (0)
 -->
<!-- Title: TimeVaryingObject.h Pages: 1 -->
<svg width="1519pt" height="196pt"
 viewBox="0.00 0.00 1518.50 196.00" xmlns="http://www.w3.org/2000/svg" xmlns:xlink="http://www.w3.org/1999/xlink">
<g id="graph0" class="graph" transform="scale(1 1) rotate(0) translate(4 192)">
<title>TimeVaryingObject.h</title>
<!-- Node1 -->
<g id="node1" class="node">
<title>Node1</title>
<g id="a_node1"><a xlink:title=" ">
<polygon fill="#bfbfbf" stroke="black" points="583,-168.5 583,-187.5 702,-187.5 702,-168.5 583,-168.5"/>
<text text-anchor="middle" x="642.5" y="-175.5" font-family="FreeSans.ttf" font-size="10.00">TimeVaryingObject.h</text>
</a>
</g>
</g>
<!-- Node2 -->
<g id="node2" class="node">
<title>Node2</title>
<g id="a_node2"><a xlink:href="L2NormCost_8h.html" target="_top" xlink:title=" ">
<polygon fill="none" stroke="black" points="82.5,-112.5 82.5,-131.5 168.5,-131.5 168.5,-112.5 82.5,-112.5"/>
<text text-anchor="middle" x="125.5" y="-119.5" font-family="FreeSans.ttf" font-size="10.00">L2NormCost.h</text>
</a>
</g>
</g>
<!-- Node1&#45;&gt;Node2 -->
<g id="edge1" class="edge">
<title>Node1&#45;&gt;Node2</title>
<path fill="none" stroke="midnightblue" d="M572.75,-169.71C464.25,-158.38 258.22,-136.86 168.76,-127.52"/>
<polygon fill="midnightblue" stroke="midnightblue" points="572.63,-173.22 582.94,-170.78 573.36,-166.26 572.63,-173.22"/>
</g>
<!-- Node5 -->
<g id="node5" class="node">
<title>Node5</title>
<g id="a_node5"><a xlink:href="LinearConstraint_8h.html" target="_top" xlink:title=" ">
<polygon fill="none" stroke="black" points="589.5,-112.5 589.5,-131.5 695.5,-131.5 695.5,-112.5 589.5,-112.5"/>
<text text-anchor="middle" x="642.5" y="-119.5" font-family="FreeSans.ttf" font-size="10.00">LinearConstraint.h</text>
</a>
</g>
</g>
<!-- Node1&#45;&gt;Node5 -->
<g id="edge4" class="edge">
<title>Node1&#45;&gt;Node5</title>
<path fill="none" stroke="midnightblue" d="M642.5,-157.8C642.5,-148.91 642.5,-138.78 642.5,-131.75"/>
<polygon fill="midnightblue" stroke="midnightblue" points="639,-158.08 642.5,-168.08 646,-158.08 639,-158.08"/>
</g>
<!-- Node8 -->
<g id="node8" class="node">
<title>Node8</title>
<g id="a_node8"><a xlink:href="LinearCost_8h.html" target="_top" xlink:title=" ">
<polygon fill="none" stroke="black" points="154,-56.5 154,-75.5 231,-75.5 231,-56.5 154,-56.5"/>
<text text-anchor="middle" x="192.5" y="-63.5" font-family="FreeSans.ttf" font-size="10.00">LinearCost.h</text>
</a>
</g>
</g>
<!-- Node1&#45;&gt;Node8 -->
<g id="edge8" class="edge">
<title>Node1&#45;&gt;Node8</title>
<path fill="none" stroke="midnightblue" d="M572.78,-172.98C508.48,-167.88 410.95,-156.56 329.5,-132 282.37,-117.79 230.99,-89.65 206.72,-75.52"/>
<polygon fill="midnightblue" stroke="midnightblue" points="572.57,-176.48 582.8,-173.75 573.1,-169.5 572.57,-176.48"/>
</g>
<!-- Node10 -->
<g id="node10" class="node">
<title>Node10</title>
<g id="a_node10"><a xlink:href="LinearSystem_8h.html" target="_top" xlink:title=" ">
<polygon fill="none" stroke="black" points="875.5,-112.5 875.5,-131.5 967.5,-131.5 967.5,-112.5 875.5,-112.5"/>
<text text-anchor="middle" x="921.5" y="-119.5" font-family="FreeSans.ttf" font-size="10.00">LinearSystem.h</text>
</a>
</g>
</g>
<!-- Node1&#45;&gt;Node10 -->
<g id="edge11" class="edge">
<title>Node1&#45;&gt;Node10</title>
<path fill="none" stroke="midnightblue" d="M696.56,-166.54C749.29,-156.33 828.5,-141 877.5,-131.52"/>
<polygon fill="midnightblue" stroke="midnightblue" points="695.86,-163.11 686.71,-168.44 697.19,-169.98 695.86,-163.11"/>
</g>
<!-- Node13 -->
<g id="node13" class="node">
<title>Node13</title>
<g id="a_node13"><a xlink:href="MultipleShootingSolver_8h.html" target="_top" xlink:title=" ">
<polygon fill="none" stroke="black" points="1224.5,-112.5 1224.5,-131.5 1362.5,-131.5 1362.5,-112.5 1224.5,-112.5"/>
<text text-anchor="middle" x="1293.5" y="-119.5" font-family="FreeSans.ttf" font-size="10.00">MultipleShootingSolver.h</text>
</a>
</g>
</g>
<!-- Node1&#45;&gt;Node13 -->
<g id="edge15" class="edge">
<title>Node1&#45;&gt;Node13</title>
<path fill="none" stroke="midnightblue" d="M712.49,-172.33C820.52,-164.94 1034.37,-149.56 1215.5,-132 1218.35,-131.72 1221.26,-131.43 1224.19,-131.13"/>
<polygon fill="midnightblue" stroke="midnightblue" points="712.11,-168.85 702.37,-173.02 712.58,-175.83 712.11,-168.85"/>
</g>
<!-- Node15 -->
<g id="node15" class="node">
<title>Node15</title>
<g id="a_node15"><a xlink:href="OptimalControlProblem_8h.html" target="_top" xlink:title=" ">
<polygon fill="none" stroke="black" points="1066.5,-112.5 1066.5,-131.5 1206.5,-131.5 1206.5,-112.5 1066.5,-112.5"/>
<text text-anchor="middle" x="1136.5" y="-119.5" font-family="FreeSans.ttf" font-size="10.00">OptimalControlProblem.h</text>
</a>
</g>
</g>
<!-- Node1&#45;&gt;Node15 -->
<g id="edge17" class="edge">
<title>Node1&#45;&gt;Node15</title>
<path fill="none" stroke="midnightblue" d="M712.05,-169.4C805.91,-159.14 972.19,-140.96 1066.35,-130.67"/>
<polygon fill="midnightblue" stroke="midnightblue" points="711.65,-165.92 702.09,-170.49 712.41,-172.88 711.65,-165.92"/>
</g>
<!-- Node17 -->
<g id="node17" class="node">
<title>Node17</title>
<g id="a_node17"><a xlink:href="QuadraticCost_8h.html" target="_top" xlink:title=" ">
<polygon fill="none" stroke="black" points="249,-56.5 249,-75.5 344,-75.5 344,-56.5 249,-56.5"/>
<text text-anchor="middle" x="296.5" y="-63.5" font-family="FreeSans.ttf" font-size="10.00">QuadraticCost.h</text>
</a>
</g>
</g>
<!-- Node1&#45;&gt;Node17 -->
<g id="edge22" class="edge">
<title>Node1&#45;&gt;Node17</title>
<path fill="none" stroke="midnightblue" d="M572.48,-171.07C500.72,-164.09 394.68,-150.98 358.5,-132 332.81,-118.53 311.72,-90.32 302.11,-75.9"/>
<polygon fill="midnightblue" stroke="midnightblue" points="572.52,-174.59 582.8,-172.06 573.18,-167.62 572.52,-174.59"/>
</g>
<!-- Node19 -->
<g id="node19" class="node">
<title>Node19</title>
<g id="a_node19"><a xlink:href="QuadraticLikeCost_8h.html" target="_top" xlink:title=" ">
<polygon fill="none" stroke="black" points="367.5,-112.5 367.5,-131.5 481.5,-131.5 481.5,-112.5 367.5,-112.5"/>
<text text-anchor="middle" x="424.5" y="-119.5" font-family="FreeSans.ttf" font-size="10.00">QuadraticLikeCost.h</text>
</a>
</g>
</g>
<!-- Node1&#45;&gt;Node19 -->
<g id="edge25" class="edge">
<title>Node1&#45;&gt;Node19</title>
<path fill="none" stroke="midnightblue" d="M598.19,-166.02C557.01,-155.82 496.53,-140.84 458.88,-131.52"/>
<polygon fill="midnightblue" stroke="midnightblue" points="597.41,-169.44 607.96,-168.44 599.09,-162.64 597.41,-169.44"/>
</g>
<!-- Node21 -->
<g id="node21" class="node">
<title>Node21</title>
<g id="a_node21"><a xlink:href="TimeVaryingObject_8cpp.html" target="_top" xlink:title=" ">
<polygon fill="none" stroke="black" points="1380.5,-112.5 1380.5,-131.5 1510.5,-131.5 1510.5,-112.5 1380.5,-112.5"/>
<text text-anchor="middle" x="1445.5" y="-119.5" font-family="FreeSans.ttf" font-size="10.00">TimeVaryingObject.cpp</text>
</a>
</g>
</g>
<!-- Node1&#45;&gt;Node21 -->
<g id="edge30" class="edge">
<title>Node1&#45;&gt;Node21</title>
<path fill="none" stroke="midnightblue" d="M712.33,-174.07C842.26,-168.31 1129.91,-154.13 1371.5,-132 1374.34,-131.74 1377.23,-131.46 1380.15,-131.16"/>
<polygon fill="midnightblue" stroke="midnightblue" points="711.96,-170.58 702.12,-174.52 712.27,-177.58 711.96,-170.58"/>
</g>
<!-- Node3 -->
<g id="node3" class="node">
<title>Node3</title>
<g id="a_node3"><a xlink:href="L2NormCost_8cpp.html" target="_top" xlink:title=" ">
<polygon fill="none" stroke="black" points="0,-56.5 0,-75.5 97,-75.5 97,-56.5 0,-56.5"/>
<text text-anchor="middle" x="48.5" y="-63.5" font-family="FreeSans.ttf" font-size="10.00">L2NormCost.cpp</text>
</a>
</g>
</g>
<!-- Node2&#45;&gt;Node3 -->
<g id="edge2" class="edge">
<title>Node2&#45;&gt;Node3</title>
<path fill="none" stroke="midnightblue" d="M104.6,-106.34C90.59,-96.52 72.62,-83.91 60.84,-75.65"/>
<polygon fill="midnightblue" stroke="midnightblue" points="102.93,-109.45 113.13,-112.32 106.95,-103.72 102.93,-109.45"/>
</g>
<!-- Node4 -->
<g id="node4" class="node">
<title>Node4</title>
<g id="a_node4"><a xlink:href="OptimalControlProblem_8cpp.html" target="_top" xlink:title=" ">
<polygon fill="none" stroke="black" points="439.5,-0.5 439.5,-19.5 591.5,-19.5 591.5,-0.5 439.5,-0.5"/>
<text text-anchor="middle" x="515.5" y="-7.5" font-family="FreeSans.ttf" font-size="10.00">OptimalControlProblem.cpp</text>
</a>
</g>
</g>
<!-- Node2&#45;&gt;Node4 -->
<g id="edge3" class="edge">
<title>Node2&#45;&gt;Node4</title>
<path fill="none" stroke="midnightblue" d="M125.7,-102.13C126.94,-87.28 131.21,-67.27 144.5,-56 166.52,-37.32 337.28,-22.86 439.29,-15.78"/>
<polygon fill="midnightblue" stroke="midnightblue" points="122.2,-102.1 125.24,-112.25 129.19,-102.42 122.2,-102.1"/>
</g>
<!-- Node5&#45;&gt;Node4 -->
<g id="edge7" class="edge">
<title>Node5&#45;&gt;Node4</title>
<path fill="none" stroke="midnightblue" d="M617.6,-107.31C603.67,-99.1 586.37,-87.95 572.5,-76 551.8,-58.17 531.73,-32.84 521.85,-19.68"/>
<polygon fill="midnightblue" stroke="midnightblue" points="616.2,-110.55 626.62,-112.5 619.69,-104.48 616.2,-110.55"/>
</g>
<!-- Node6 -->
<g id="node6" class="node">
<title>Node6</title>
<g id="a_node6"><a xlink:href="ConstraintsGroup_8cpp.html" target="_top" xlink:title=" ">
<polygon fill="none" stroke="black" points="581.5,-56.5 581.5,-75.5 703.5,-75.5 703.5,-56.5 581.5,-56.5"/>
<text text-anchor="middle" x="642.5" y="-63.5" font-family="FreeSans.ttf" font-size="10.00">ConstraintsGroup.cpp</text>
</a>
</g>
</g>
<!-- Node5&#45;&gt;Node6 -->
<g id="edge5" class="edge">
<title>Node5&#45;&gt;Node6</title>
<path fill="none" stroke="midnightblue" d="M642.5,-101.8C642.5,-92.91 642.5,-82.78 642.5,-75.75"/>
<polygon fill="midnightblue" stroke="midnightblue" points="639,-102.08 642.5,-112.08 646,-102.08 639,-102.08"/>
</g>
<!-- Node7 -->
<g id="node7" class="node">
<title>Node7</title>
<g id="a_node7"><a xlink:href="LinearConstraint_8cpp.html" target="_top" xlink:title=" ">
<polygon fill="none" stroke="black" points="722,-56.5 722,-75.5 839,-75.5 839,-56.5 722,-56.5"/>
<text text-anchor="middle" x="780.5" y="-63.5" font-family="FreeSans.ttf" font-size="10.00">LinearConstraint.cpp</text>
</a>
</g>
</g>
<!-- Node5&#45;&gt;Node7 -->
<g id="edge6" class="edge">
<title>Node5&#45;&gt;Node7</title>
<path fill="none" stroke="midnightblue" d="M673.75,-108.77C699.67,-98.63 735.86,-84.47 758.74,-75.52"/>
<polygon fill="midnightblue" stroke="midnightblue" points="672.4,-105.54 664.37,-112.44 674.95,-112.06 672.4,-105.54"/>
</g>
<!-- Node8&#45;&gt;Node4 -->
<g id="edge10" class="edge">
<title>Node8&#45;&gt;Node4</title>
<path fill="none" stroke="midnightblue" d="M241.16,-55.74C322.87,-41.34 406.86,-27.91 460.44,-19.52"/>
<polygon fill="midnightblue" stroke="midnightblue" points="240.45,-52.31 231.21,-57.5 241.67,-59.2 240.45,-52.31"/>
</g>
<!-- Node9 -->
<g id="node9" class="node">
<title>Node9</title>
<g id="a_node9"><a xlink:href="LinearCost_8cpp.html" target="_top" xlink:title=" ">
<polygon fill="none" stroke="black" points="143,-0.5 143,-19.5 232,-19.5 232,-0.5 143,-0.5"/>
<text text-anchor="middle" x="187.5" y="-7.5" font-family="FreeSans.ttf" font-size="10.00">LinearCost.cpp</text>
</a>
</g>
</g>
<!-- Node8&#45;&gt;Node9 -->
<g id="edge9" class="edge">
<title>Node8&#45;&gt;Node9</title>
<path fill="none" stroke="midnightblue" d="M190.75,-46.1C189.92,-37.14 188.97,-26.86 188.31,-19.75"/>
<polygon fill="midnightblue" stroke="midnightblue" points="187.27,-46.45 191.67,-56.08 194.24,-45.8 187.27,-46.45"/>
</g>
<!-- Node10&#45;&gt;Node4 -->
<g id="edge14" class="edge">
<title>Node10&#45;&gt;Node4</title>
<path fill="none" stroke="midnightblue" d="M944.51,-106.72C963.6,-93.15 985.39,-72.44 970.5,-56 945.62,-28.54 714.91,-17.19 591.91,-13.07"/>
<polygon fill="midnightblue" stroke="midnightblue" points="942.41,-103.92 936.07,-112.41 946.32,-109.72 942.41,-103.92"/>
</g>
<!-- Node11 -->
<g id="node11" class="node">
<title>Node11</title>
<g id="a_node11"><a xlink:href="OptimalControl_8h.html" target="_top" xlink:title=" ">
<polygon fill="none" stroke="black" points="1017.5,-56.5 1017.5,-75.5 1117.5,-75.5 1117.5,-56.5 1017.5,-56.5"/>
<text text-anchor="middle" x="1067.5" y="-63.5" font-family="FreeSans.ttf" font-size="10.00">OptimalControl.h</text>
</a>
</g>
</g>
<!-- Node10&#45;&gt;Node11 -->
<g id="edge12" class="edge">
<title>Node10&#45;&gt;Node11</title>
<path fill="none" stroke="midnightblue" d="M954.2,-108.91C981.65,-98.75 1020.17,-84.51 1044.47,-75.52"/>
<polygon fill="midnightblue" stroke="midnightblue" points="952.8,-105.69 944.63,-112.44 955.23,-112.26 952.8,-105.69"/>
</g>
<!-- Node12 -->
<g id="node12" class="node">
<title>Node12</title>
<g id="a_node12"><a xlink:href="LinearSystem_8cpp.html" target="_top" xlink:title=" ">
<polygon fill="none" stroke="black" points="857.5,-56.5 857.5,-75.5 961.5,-75.5 961.5,-56.5 857.5,-56.5"/>
<text text-anchor="middle" x="909.5" y="-63.5" font-family="FreeSans.ttf" font-size="10.00">LinearSystem.cpp</text>
</a>
</g>
</g>
<!-- Node10&#45;&gt;Node12 -->
<g id="edge13" class="edge">
<title>Node10&#45;&gt;Node12</title>
<path fill="none" stroke="midnightblue" d="M917.3,-102.1C915.31,-93.14 913.02,-82.86 911.44,-75.75"/>
<polygon fill="midnightblue" stroke="midnightblue" points="913.93,-103.08 919.52,-112.08 920.77,-101.56 913.93,-103.08"/>
</g>
<!-- Node14 -->
<g id="node14" class="node">
<title>Node14</title>
<g id="a_node14"><a xlink:href="MultipleShootingSolver_8cpp.html" target="_top" xlink:title=" ">
<polygon fill="none" stroke="black" points="1333,-56.5 1333,-75.5 1482,-75.5 1482,-56.5 1333,-56.5"/>
<text text-anchor="middle" x="1407.5" y="-63.5" font-family="FreeSans.ttf" font-size="10.00">MultipleShootingSolver.cpp</text>
</a>
</g>
</g>
<!-- Node13&#45;&gt;Node14 -->
<g id="edge16" class="edge">
<title>Node13&#45;&gt;Node14</title>
<path fill="none" stroke="midnightblue" d="M1320.74,-108.1C1342.04,-98.01 1371.04,-84.27 1389.52,-75.52"/>
<polygon fill="midnightblue" stroke="midnightblue" points="1319.1,-105 1311.56,-112.44 1322.1,-111.33 1319.1,-105"/>
</g>
<!-- Node15&#45;&gt;Node4 -->
<g id="edge20" class="edge">
<title>Node15&#45;&gt;Node4</title>
<path fill="none" stroke="midnightblue" d="M1216.7,-111.06C1265.64,-101.88 1313.97,-85.12 1286.5,-56 1262.89,-30.98 781.53,-17.15 591.6,-12.65"/>
<polygon fill="midnightblue" stroke="midnightblue" points="1215.84,-107.66 1206.6,-112.86 1217.06,-114.55 1215.84,-107.66"/>
</g>
<!-- Node15&#45;&gt;Node11 -->
<g id="edge18" class="edge">
<title>Node15&#45;&gt;Node11</title>
<path fill="none" stroke="midnightblue" d="M1117.46,-106.1C1105.04,-96.38 1089.26,-84.03 1078.79,-75.83"/>
<polygon fill="midnightblue" stroke="midnightblue" points="1115.38,-108.92 1125.41,-112.32 1119.7,-103.4 1115.38,-108.92"/>
</g>
<!-- Node15&#45;&gt;Node14 -->
<g id="edge19" class="edge">
<title>Node15&#45;&gt;Node14</title>
<path fill="none" stroke="midnightblue" d="M1189.33,-110.47C1240.54,-100.27 1317.27,-84.98 1364.76,-75.52"/>
<polygon fill="midnightblue" stroke="midnightblue" points="1188.56,-107.06 1179.44,-112.44 1189.93,-113.92 1188.56,-107.06"/>
</g>
<!-- Node16 -->
<g id="node16" class="node">
<title>Node16</title>
<g id="a_node16"><a xlink:href="OptimalControlSolver_8cpp.html" target="_top" xlink:title=" ">
<polygon fill="none" stroke="black" points="1136,-56.5 1136,-75.5 1277,-75.5 1277,-56.5 1136,-56.5"/>
<text text-anchor="middle" x="1206.5" y="-63.5" font-family="FreeSans.ttf" font-size="10.00">OptimalControlSolver.cpp</text>
</a>
</g>
</g>
<!-- Node15&#45;&gt;Node16 -->
<g id="edge21" class="edge">
<title>Node15&#45;&gt;Node16</title>
<path fill="none" stroke="midnightblue" d="M1155.81,-106.1C1168.41,-96.38 1184.43,-84.03 1195.05,-75.83"/>
<polygon fill="midnightblue" stroke="midnightblue" points="1153.53,-103.44 1147.75,-112.32 1157.8,-108.99 1153.53,-103.44"/>
</g>
<!-- Node17&#45;&gt;Node4 -->
<g id="edge23" class="edge">
<title>Node17&#45;&gt;Node4</title>
<path fill="none" stroke="midnightblue" d="M341.01,-54.02C382.38,-43.82 443.14,-28.84 480.96,-19.52"/>
<polygon fill="midnightblue" stroke="midnightblue" points="340.07,-50.65 331.2,-56.44 341.75,-57.45 340.07,-50.65"/>
</g>
<!-- Node18 -->
<g id="node18" class="node">
<title>Node18</title>
<g id="a_node18"><a xlink:href="QuadraticCost_8cpp.html" target="_top" xlink:title=" ">
<polygon fill="none" stroke="black" points="249.5,-0.5 249.5,-19.5 355.5,-19.5 355.5,-0.5 249.5,-0.5"/>
<text text-anchor="middle" x="302.5" y="-7.5" font-family="FreeSans.ttf" font-size="10.00">QuadraticCost.cpp</text>
</a>
</g>
</g>
<!-- Node17&#45;&gt;Node18 -->
<g id="edge24" class="edge">
<title>Node17&#45;&gt;Node18</title>
<path fill="none" stroke="midnightblue" d="M298.6,-46.1C299.6,-37.14 300.74,-26.86 301.53,-19.75"/>
<polygon fill="midnightblue" stroke="midnightblue" points="295.12,-45.76 297.49,-56.08 302.07,-46.53 295.12,-45.76"/>
</g>
<!-- Node19&#45;&gt;Node4 -->
<g id="edge28" class="edge">
<title>Node19&#45;&gt;Node4</title>
<path fill="none" stroke="midnightblue" d="M454.7,-107.98C468.89,-100.49 484.96,-89.8 495.5,-76 508.54,-58.92 513.15,-33.27 514.72,-19.87"/>
<polygon fill="midnightblue" stroke="midnightblue" points="453.12,-104.86 445.73,-112.44 456.24,-111.12 453.12,-104.86"/>
</g>
<!-- Node19&#45;&gt;Node8 -->
<g id="edge26" class="edge">
<title>Node19&#45;&gt;Node8</title>
<path fill="none" stroke="midnightblue" d="M377.9,-110.15C334.06,-99.95 269.32,-84.88 229.09,-75.52"/>
<polygon fill="midnightblue" stroke="midnightblue" points="377.21,-113.59 387.74,-112.44 378.79,-106.77 377.21,-113.59"/>
</g>
<!-- Node19&#45;&gt;Node17 -->
<g id="edge27" class="edge">
<title>Node19&#45;&gt;Node17</title>
<path fill="none" stroke="midnightblue" d="M394.88,-108.5C370.88,-98.38 337.72,-84.39 316.69,-75.52"/>
<polygon fill="midnightblue" stroke="midnightblue" points="393.64,-111.78 404.22,-112.44 396.36,-105.33 393.64,-111.78"/>
</g>
<!-- Node20 -->
<g id="node20" class="node">
<title>Node20</title>
<g id="a_node20"><a xlink:href="QuadraticLikeCost_8cpp.html" target="_top" xlink:title=" ">
<polygon fill="none" stroke="black" points="362,-56.5 362,-75.5 487,-75.5 487,-56.5 362,-56.5"/>
<text text-anchor="middle" x="424.5" y="-63.5" font-family="FreeSans.ttf" font-size="10.00">QuadraticLikeCost.cpp</text>
</a>
</g>
</g>
<!-- Node19&#45;&gt;Node20 -->
<g id="edge29" class="edge">
<title>Node19&#45;&gt;Node20</title>
<path fill="none" stroke="midnightblue" d="M424.5,-101.8C424.5,-92.91 424.5,-82.78 424.5,-75.75"/>
<polygon fill="midnightblue" stroke="midnightblue" points="421,-102.08 424.5,-112.08 428,-102.08 421,-102.08"/>
</g>
</g>
</svg>
