<?xml version="1.0" encoding="UTF-8" standalone="no"?>
<!DOCTYPE svg PUBLIC "-//W3C//DTD SVG 1.1//EN"
 "http://www.w3.org/Graphics/SVG/1.1/DTD/svg11.dtd">
<!-- Generated by graphviz version 2.43.0 (0)
 -->
<!-- Title: TransformDerivative.h Pages: 1 -->
<svg width="732pt" height="84pt"
 viewBox="0.00 0.00 732.00 84.00" xmlns="http://www.w3.org/2000/svg" xmlns:xlink="http://www.w3.org/1999/xlink">
<g id="graph0" class="graph" transform="scale(1 1) rotate(0) translate(4 80)">
<title>TransformDerivative.h</title>
<!-- Node1 -->
<g id="node1" class="node">
<title>Node1</title>
<g id="a_node1"><a xlink:title=" ">
<polygon fill="#bfbfbf" stroke="black" points="310.5,-56.5 310.5,-75.5 435.5,-75.5 435.5,-56.5 310.5,-56.5"/>
<text text-anchor="middle" x="373" y="-63.5" font-family="FreeSans.ttf" font-size="10.00">TransformDerivative.h</text>
</a>
</g>
</g>
<!-- Node2 -->
<g id="node2" class="node">
<title>Node2</title>
<g id="a_node2"><a xlink:href="Axis_8cpp.html" target="_top" xlink:title=" ">
<polygon fill="none" stroke="black" points="0,-0.5 0,-19.5 58,-19.5 58,-0.5 0,-0.5"/>
<text text-anchor="middle" x="29" y="-7.5" font-family="FreeSans.ttf" font-size="10.00">Axis.cpp</text>
</a>
</g>
</g>
<!-- Node1&#45;&gt;Node2 -->
<g id="edge1" class="edge">
<title>Node1&#45;&gt;Node2</title>
<path fill="none" stroke="midnightblue" d="M300.21,-56.1C238.03,-48.06 146.31,-35.19 67,-20 64.2,-19.46 61.3,-18.86 58.4,-18.23"/>
<polygon fill="midnightblue" stroke="midnightblue" points="299.95,-59.59 310.32,-57.4 300.85,-52.65 299.95,-59.59"/>
</g>
<!-- Node3 -->
<g id="node3" class="node">
<title>Node3</title>
<g id="a_node3"><a xlink:href="TransformDerivative_8cpp.html" target="_top" xlink:title=" ">
<polygon fill="none" stroke="black" points="76.5,-0.5 76.5,-19.5 213.5,-19.5 213.5,-0.5 76.5,-0.5"/>
<text text-anchor="middle" x="145" y="-7.5" font-family="FreeSans.ttf" font-size="10.00">TransformDerivative.cpp</text>
</a>
</g>
</g>
<!-- Node1&#45;&gt;Node3 -->
<g id="edge2" class="edge">
<title>Node1&#45;&gt;Node3</title>
<path fill="none" stroke="midnightblue" d="M326.93,-54.09C283.85,-43.89 220.41,-28.86 180.96,-19.52"/>
<polygon fill="midnightblue" stroke="midnightblue" points="326.34,-57.54 336.87,-56.44 327.95,-50.73 326.34,-57.54"/>
</g>
<!-- Node4 -->
<g id="node4" class="node">
<title>Node4</title>
<g id="a_node4"><a xlink:href="DynamicsLinearization_8cpp.html" target="_top" xlink:title=" ">
<polygon fill="none" stroke="black" points="231.5,-0.5 231.5,-19.5 380.5,-19.5 380.5,-0.5 231.5,-0.5"/>
<text text-anchor="middle" x="306" y="-7.5" font-family="FreeSans.ttf" font-size="10.00">DynamicsLinearization.cpp</text>
</a>
</g>
</g>
<!-- Node1&#45;&gt;Node4 -->
<g id="edge3" class="edge">
<title>Node1&#45;&gt;Node4</title>
<path fill="none" stroke="midnightblue" d="M354.17,-49.82C342.16,-40.15 327.03,-27.95 316.96,-19.83"/>
<polygon fill="midnightblue" stroke="midnightblue" points="352.25,-52.77 362.24,-56.32 356.65,-47.32 352.25,-52.77"/>
</g>
<!-- Node5 -->
<g id="node5" class="node">
<title>Node5</title>
<g id="a_node5"><a xlink:href="FixedJoint_8cpp.html" target="_top" xlink:title=" ">
<polygon fill="none" stroke="black" points="398,-0.5 398,-19.5 482,-19.5 482,-0.5 398,-0.5"/>
<text text-anchor="middle" x="440" y="-7.5" font-family="FreeSans.ttf" font-size="10.00">FixedJoint.cpp</text>
</a>
</g>
</g>
<!-- Node1&#45;&gt;Node5 -->
<g id="edge4" class="edge">
<title>Node1&#45;&gt;Node5</title>
<path fill="none" stroke="midnightblue" d="M391.83,-49.82C403.84,-40.15 418.97,-27.95 429.04,-19.83"/>
<polygon fill="midnightblue" stroke="midnightblue" points="389.35,-47.32 383.76,-56.32 393.75,-52.77 389.35,-47.32"/>
</g>
<!-- Node6 -->
<g id="node6" class="node">
<title>Node6</title>
<g id="a_node6"><a xlink:href="PrismaticJoint_8cpp.html" target="_top" xlink:title=" ">
<polygon fill="none" stroke="black" points="500,-0.5 500,-19.5 604,-19.5 604,-0.5 500,-0.5"/>
<text text-anchor="middle" x="552" y="-7.5" font-family="FreeSans.ttf" font-size="10.00">PrismaticJoint.cpp</text>
</a>
</g>
</g>
<!-- Node1&#45;&gt;Node6 -->
<g id="edge5" class="edge">
<title>Node1&#45;&gt;Node6</title>
<path fill="none" stroke="midnightblue" d="M411.33,-53.44C445.08,-43.26 493.45,-28.66 523.77,-19.52"/>
<polygon fill="midnightblue" stroke="midnightblue" points="409.93,-50.2 401.36,-56.44 411.95,-56.91 409.93,-50.2"/>
</g>
<!-- Node7 -->
<g id="node7" class="node">
<title>Node7</title>
<g id="a_node7"><a xlink:href="RevoluteJoint_8cpp.html" target="_top" xlink:title=" ">
<polygon fill="none" stroke="black" points="622,-0.5 622,-19.5 724,-19.5 724,-0.5 622,-0.5"/>
<text text-anchor="middle" x="673" y="-7.5" font-family="FreeSans.ttf" font-size="10.00">RevoluteJoint.cpp</text>
</a>
</g>
</g>
<!-- Node1&#45;&gt;Node7 -->
<g id="edge6" class="edge">
<title>Node1&#45;&gt;Node7</title>
<path fill="none" stroke="midnightblue" d="M430.42,-54.66C487.12,-44.46 572.79,-29.04 625.69,-19.52"/>
<polygon fill="midnightblue" stroke="midnightblue" points="429.76,-51.23 420.54,-56.44 431,-58.12 429.76,-51.23"/>
</g>
</g>
</svg>
