<?xml version="1.0" encoding="UTF-8" standalone="no"?>
<!DOCTYPE svg PUBLIC "-//W3C//DTD SVG 1.1//EN"
 "http://www.w3.org/Graphics/SVG/1.1/DTD/svg11.dtd">
<!-- Generated by graphviz version 2.43.0 (0)
 -->
<!-- Title: Traversal.h Pages: 1 -->
<svg width="3516pt" height="162pt"
 viewBox="0.00 0.00 3515.50 162.00" xmlns="http://www.w3.org/2000/svg" xmlns:xlink="http://www.w3.org/1999/xlink">
<g id="graph0" class="graph" transform="scale(1 1) rotate(0) translate(4 158)">
<title>Traversal.h</title>
<!-- Node1 -->
<g id="node1" class="node">
<title>Node1</title>
<g id="a_node1"><a xlink:title=" ">
<polygon fill="#bfbfbf" stroke="black" points="1774.5,-134.5 1774.5,-153.5 1844.5,-153.5 1844.5,-134.5 1774.5,-134.5"/>
<text text-anchor="middle" x="1809.5" y="-141.5" font-family="FreeSans.ttf" font-size="10.00">Traversal.h</text>
</a>
</g>
</g>
<!-- Node2 -->
<g id="node2" class="node">
<title>Node2</title>
<g id="a_node2"><a xlink:href="BerdyHelper_8h.html" target="_top" xlink:title=" ">
<polygon fill="none" stroke="black" points="147.5,-73 147.5,-92 233.5,-92 233.5,-73 147.5,-73"/>
<text text-anchor="middle" x="190.5" y="-80" font-family="FreeSans.ttf" font-size="10.00">BerdyHelper.h</text>
</a>
</g>
</g>
<!-- Node1&#45;&gt;Node2 -->
<g id="edge1" class="edge">
<title>Node1&#45;&gt;Node2</title>
<path fill="none" stroke="midnightblue" d="M1764.1,-143.18C1539.65,-143.86 547.29,-144.16 242.5,-98 233.88,-96.69 224.66,-94.42 216.42,-92.06"/>
<polygon fill="midnightblue" stroke="midnightblue" points="1764.21,-146.68 1774.2,-143.15 1764.19,-139.68 1764.21,-146.68"/>
</g>
<!-- Node3 -->
<g id="node3" class="node">
<title>Node3</title>
<g id="a_node3"><a xlink:href="BerdyHelper_8cpp.html" target="_top" xlink:title=" ">
<polygon fill="none" stroke="black" points="0,-6 0,-25 97,-25 97,-6 0,-6"/>
<text text-anchor="middle" x="48.5" y="-13" font-family="FreeSans.ttf" font-size="10.00">BerdyHelper.cpp</text>
</a>
</g>
</g>
<!-- Node1&#45;&gt;Node3 -->
<g id="edge10" class="edge">
<title>Node1&#45;&gt;Node3</title>
<path fill="none" stroke="midnightblue" d="M1764.31,-142.67C1505.11,-140.65 216,-129.08 138.5,-98 99.96,-82.54 67.44,-42.61 54.5,-25.03"/>
<polygon fill="midnightblue" stroke="midnightblue" points="1764.47,-146.17 1774.49,-142.75 1764.52,-139.17 1764.47,-146.17"/>
</g>
<!-- Node5 -->
<g id="node5" class="node">
<title>Node5</title>
<g id="a_node5"><a xlink:href="ExtWrenchesAndJointTorquesEstimator_8h.html" target="_top" xlink:title=" ">
<polygon fill="none" stroke="black" points="251.5,-67.5 251.5,-97.5 409.5,-97.5 409.5,-67.5 251.5,-67.5"/>
<text text-anchor="start" x="259.5" y="-85.5" font-family="FreeSans.ttf" font-size="10.00">ExtWrenchesAndJointTorques</text>
<text text-anchor="middle" x="330.5" y="-74.5" font-family="FreeSans.ttf" font-size="10.00">Estimator.h</text>
</a>
</g>
</g>
<!-- Node1&#45;&gt;Node5 -->
<g id="edge4" class="edge">
<title>Node1&#45;&gt;Node5</title>
<path fill="none" stroke="midnightblue" d="M1764.2,-142.27C1556.34,-138.83 692.68,-123.26 423.5,-98 418.94,-97.57 414.27,-97.07 409.57,-96.5"/>
<polygon fill="midnightblue" stroke="midnightblue" points="1764.38,-145.78 1774.44,-142.44 1764.49,-138.78 1764.38,-145.78"/>
</g>
<!-- Node6 -->
<g id="node6" class="node">
<title>Node6</title>
<g id="a_node6"><a xlink:href="ExtWrenchesAndJointTorquesEstimator_8cpp.html" target="_top" xlink:title=" ">
<polygon fill="none" stroke="black" points="283.5,-0.5 283.5,-30.5 441.5,-30.5 441.5,-0.5 283.5,-0.5"/>
<text text-anchor="start" x="291.5" y="-18.5" font-family="FreeSans.ttf" font-size="10.00">ExtWrenchesAndJointTorques</text>
<text text-anchor="middle" x="362.5" y="-7.5" font-family="FreeSans.ttf" font-size="10.00">Estimator.cpp</text>
</a>
</g>
</g>
<!-- Node1&#45;&gt;Node6 -->
<g id="edge12" class="edge">
<title>Node1&#45;&gt;Node6</title>
<path fill="none" stroke="midnightblue" d="M1764.07,-143.28C1542.44,-144.43 580.28,-146.55 456.5,-98 451.8,-96.16 403.81,-53.52 378.28,-30.67"/>
<polygon fill="midnightblue" stroke="midnightblue" points="1764.38,-146.78 1774.36,-143.23 1764.34,-139.78 1764.38,-146.78"/>
</g>
<!-- Node7 -->
<g id="node7" class="node">
<title>Node7</title>
<g id="a_node7"><a xlink:href="GravityCompensationHelpers_8h.html" target="_top" xlink:title=" ">
<polygon fill="none" stroke="black" points="465.5,-73 465.5,-92 635.5,-92 635.5,-73 465.5,-73"/>
<text text-anchor="middle" x="550.5" y="-80" font-family="FreeSans.ttf" font-size="10.00">GravityCompensationHelpers.h</text>
</a>
</g>
</g>
<!-- Node1&#45;&gt;Node7 -->
<g id="edge6" class="edge">
<title>Node1&#45;&gt;Node7</title>
<path fill="none" stroke="midnightblue" d="M1763.96,-143.11C1607.66,-143.09 1078.78,-139.74 644.5,-98 629.54,-96.56 613.34,-94.31 598.67,-92.01"/>
<polygon fill="midnightblue" stroke="midnightblue" points="1764.14,-146.61 1774.13,-143.11 1764.13,-139.61 1764.14,-146.61"/>
</g>
<!-- Node9 -->
<g id="node9" class="node">
<title>Node9</title>
<g id="a_node9"><a xlink:href="SimpleLeggedOdometry_8h.html" target="_top" xlink:title=" ">
<polygon fill="none" stroke="black" points="653.5,-73 653.5,-92 795.5,-92 795.5,-73 653.5,-73"/>
<text text-anchor="middle" x="724.5" y="-80" font-family="FreeSans.ttf" font-size="10.00">SimpleLeggedOdometry.h</text>
</a>
</g>
</g>
<!-- Node1&#45;&gt;Node9 -->
<g id="edge8" class="edge">
<title>Node1&#45;&gt;Node9</title>
<path fill="none" stroke="midnightblue" d="M1764.12,-143.14C1622.03,-143.1 1173.2,-139.48 804.5,-98 791.74,-96.56 777.94,-94.32 765.45,-92.02"/>
<polygon fill="midnightblue" stroke="midnightblue" points="1764.21,-146.64 1774.21,-143.13 1764.21,-139.64 1764.21,-146.64"/>
</g>
<!-- Node11 -->
<g id="node11" class="node">
<title>Node11</title>
<g id="a_node11"><a xlink:href="ExternalWrenchesEstimation_8cpp.html" target="_top" xlink:title=" ">
<polygon fill="none" stroke="black" points="813.5,-73 813.5,-92 991.5,-92 991.5,-73 813.5,-73"/>
<text text-anchor="middle" x="902.5" y="-80" font-family="FreeSans.ttf" font-size="10.00">ExternalWrenchesEstimation.cpp</text>
</a>
</g>
</g>
<!-- Node1&#45;&gt;Node11 -->
<g id="edge11" class="edge">
<title>Node1&#45;&gt;Node11</title>
<path fill="none" stroke="midnightblue" d="M1764.15,-141.93C1641.05,-138.71 1290.49,-127.46 1000.5,-98 985.36,-96.46 968.97,-94.25 954.01,-92.02"/>
<polygon fill="midnightblue" stroke="midnightblue" points="1764.24,-145.43 1774.32,-142.19 1764.41,-138.43 1764.24,-145.43"/>
</g>
<!-- Node12 -->
<g id="node12" class="node">
<title>Node12</title>
<g id="a_node12"><a xlink:href="KinDynComputations_8cpp.html" target="_top" xlink:title=" ">
<polygon fill="none" stroke="black" points="1009.5,-73 1009.5,-92 1149.5,-92 1149.5,-73 1009.5,-73"/>
<text text-anchor="middle" x="1079.5" y="-80" font-family="FreeSans.ttf" font-size="10.00">KinDynComputations.cpp</text>
</a>
</g>
</g>
<!-- Node1&#45;&gt;Node12 -->
<g id="edge13" class="edge">
<title>Node1&#45;&gt;Node12</title>
<path fill="none" stroke="midnightblue" d="M1764.4,-141.63C1658.36,-138.03 1385.04,-126.53 1158.5,-98 1146.33,-96.47 1133.19,-94.27 1121.18,-92.06"/>
<polygon fill="midnightblue" stroke="midnightblue" points="1764.32,-145.13 1774.43,-141.96 1764.56,-138.13 1764.32,-145.13"/>
</g>
<!-- Node13 -->
<g id="node13" class="node">
<title>Node13</title>
<g id="a_node13"><a xlink:href="skinDynLibConversionsImplementation_8h.html" target="_top" xlink:title=" ">
<polygon fill="none" stroke="black" points="1167.5,-73 1167.5,-92 1385.5,-92 1385.5,-73 1167.5,-73"/>
<text text-anchor="middle" x="1276.5" y="-80" font-family="FreeSans.ttf" font-size="10.00">skinDynLibConversionsImplementation.h</text>
</a>
</g>
</g>
<!-- Node1&#45;&gt;Node13 -->
<g id="edge14" class="edge">
<title>Node1&#45;&gt;Node13</title>
<path fill="none" stroke="midnightblue" d="M1764.01,-138.28C1687.62,-130.31 1528.75,-113.53 1394.5,-98 1378.3,-96.13 1360.86,-94.03 1344.49,-92.02"/>
<polygon fill="midnightblue" stroke="midnightblue" points="1763.92,-141.79 1774.23,-139.35 1764.64,-134.83 1763.92,-141.79"/>
</g>
<!-- Node15 -->
<g id="node15" class="node">
<title>Node15</title>
<g id="a_node15"><a xlink:href="DenavitHartenberg_8cpp.html" target="_top" xlink:title=" ">
<polygon fill="none" stroke="black" points="1403.5,-73 1403.5,-92 1533.5,-92 1533.5,-73 1403.5,-73"/>
<text text-anchor="middle" x="1468.5" y="-80" font-family="FreeSans.ttf" font-size="10.00">DenavitHartenberg.cpp</text>
</a>
</g>
</g>
<!-- Node1&#45;&gt;Node15 -->
<g id="edge17" class="edge">
<title>Node1&#45;&gt;Node15</title>
<path fill="none" stroke="midnightblue" d="M1764.35,-135.77C1711.21,-127.16 1620.32,-112.18 1542.5,-98 1532.33,-96.15 1521.38,-94.06 1511.12,-92.05"/>
<polygon fill="midnightblue" stroke="midnightblue" points="1764.03,-139.26 1774.46,-137.4 1765.15,-132.35 1764.03,-139.26"/>
</g>
<!-- Node16 -->
<g id="node16" class="node">
<title>Node16</title>
<g id="a_node16"><a xlink:href="Dynamics_8cpp.html" target="_top" xlink:title=" ">
<polygon fill="none" stroke="black" points="1551.5,-73 1551.5,-92 1637.5,-92 1637.5,-73 1551.5,-73"/>
<text text-anchor="middle" x="1594.5" y="-80" font-family="FreeSans.ttf" font-size="10.00">Dynamics.cpp</text>
</a>
</g>
</g>
<!-- Node1&#45;&gt;Node16 -->
<g id="edge18" class="edge">
<title>Node1&#45;&gt;Node16</title>
<path fill="none" stroke="midnightblue" d="M1768.85,-131.75C1727.08,-120.19 1662.98,-102.45 1625.25,-92.01"/>
<polygon fill="midnightblue" stroke="midnightblue" points="1768.12,-135.18 1778.7,-134.48 1769.99,-128.43 1768.12,-135.18"/>
</g>
<!-- Node17 -->
<g id="node17" class="node">
<title>Node17</title>
<g id="a_node17"><a xlink:href="DynamicsLinearization_8cpp.html" target="_top" xlink:title=" ">
<polygon fill="none" stroke="black" points="1656,-73 1656,-92 1805,-92 1805,-73 1656,-73"/>
<text text-anchor="middle" x="1730.5" y="-80" font-family="FreeSans.ttf" font-size="10.00">DynamicsLinearization.cpp</text>
</a>
</g>
</g>
<!-- Node1&#45;&gt;Node17 -->
<g id="edge19" class="edge">
<title>Node1&#45;&gt;Node17</title>
<path fill="none" stroke="midnightblue" d="M1789.97,-128.29C1774.82,-116.88 1754.34,-101.46 1741.8,-92.01"/>
<polygon fill="midnightblue" stroke="midnightblue" points="1788.09,-131.25 1798.18,-134.48 1792.3,-125.66 1788.09,-131.25"/>
</g>
<!-- Node18 -->
<g id="node18" class="node">
<title>Node18</title>
<g id="a_node18"><a xlink:href="ForwardKinematics_8cpp.html" target="_top" xlink:title=" ">
<polygon fill="none" stroke="black" points="1823,-73 1823,-92 1954,-92 1954,-73 1823,-73"/>
<text text-anchor="middle" x="1888.5" y="-80" font-family="FreeSans.ttf" font-size="10.00">ForwardKinematics.cpp</text>
</a>
</g>
</g>
<!-- Node1&#45;&gt;Node18 -->
<g id="edge20" class="edge">
<title>Node1&#45;&gt;Node18</title>
<path fill="none" stroke="midnightblue" d="M1829.03,-128.29C1844.18,-116.88 1864.66,-101.46 1877.2,-92.01"/>
<polygon fill="midnightblue" stroke="midnightblue" points="1826.7,-125.66 1820.82,-134.48 1830.91,-131.25 1826.7,-125.66"/>
</g>
<!-- Node19 -->
<g id="node19" class="node">
<title>Node19</title>
<g id="a_node19"><a xlink:href="Jacobians_8cpp.html" target="_top" xlink:title=" ">
<polygon fill="none" stroke="black" points="1972,-73 1972,-92 2055,-92 2055,-73 1972,-73"/>
<text text-anchor="middle" x="2013.5" y="-80" font-family="FreeSans.ttf" font-size="10.00">Jacobians.cpp</text>
</a>
</g>
</g>
<!-- Node1&#45;&gt;Node19 -->
<g id="edge21" class="edge">
<title>Node1&#45;&gt;Node19</title>
<path fill="none" stroke="midnightblue" d="M1848.58,-131.6C1888.22,-120.04 1948.68,-102.41 1984.33,-92.01"/>
<polygon fill="midnightblue" stroke="midnightblue" points="1847.35,-128.32 1838.73,-134.48 1849.31,-135.04 1847.35,-128.32"/>
</g>
<!-- Node20 -->
<g id="node20" class="node">
<title>Node20</title>
<g id="a_node20"><a xlink:href="LinkTraversalsCache_8cpp.html" target="_top" xlink:title=" ">
<polygon fill="none" stroke="black" points="2073,-73 2073,-92 2210,-92 2210,-73 2073,-73"/>
<text text-anchor="middle" x="2141.5" y="-80" font-family="FreeSans.ttf" font-size="10.00">LinkTraversalsCache.cpp</text>
</a>
</g>
</g>
<!-- Node1&#45;&gt;Node20 -->
<g id="edge22" class="edge">
<title>Node1&#45;&gt;Node20</title>
<path fill="none" stroke="midnightblue" d="M1854.61,-135.2C1905.6,-126.35 1991.06,-111.39 2064.5,-98 2074.94,-96.1 2086.16,-94.01 2096.73,-92.02"/>
<polygon fill="midnightblue" stroke="midnightblue" points="1853.84,-131.78 1844.58,-136.94 1855.03,-138.68 1853.84,-131.78"/>
</g>
<!-- Node21 -->
<g id="node21" class="node">
<title>Node21</title>
<g id="a_node21"><a xlink:href="Model_8cpp.html" target="_top" xlink:title=" ">
<polygon fill="none" stroke="black" points="2228,-73 2228,-92 2295,-92 2295,-73 2228,-73"/>
<text text-anchor="middle" x="2261.5" y="-80" font-family="FreeSans.ttf" font-size="10.00">Model.cpp</text>
</a>
</g>
</g>
<!-- Node1&#45;&gt;Node21 -->
<g id="edge23" class="edge">
<title>Node1&#45;&gt;Node21</title>
<path fill="none" stroke="midnightblue" d="M1854.96,-141.32C1931.18,-137.77 2089.21,-127.25 2219.5,-98 2226.12,-96.51 2233.16,-94.33 2239.53,-92.12"/>
<polygon fill="midnightblue" stroke="midnightblue" points="1854.59,-137.83 1844.76,-141.78 1854.91,-144.82 1854.59,-137.83"/>
</g>
<!-- Node22 -->
<g id="node22" class="node">
<title>Node22</title>
<g id="a_node22"><a xlink:href="ModelTransformers_8cpp.html" target="_top" xlink:title=" ">
<polygon fill="none" stroke="black" points="2313,-73 2313,-92 2444,-92 2444,-73 2313,-73"/>
<text text-anchor="middle" x="2378.5" y="-80" font-family="FreeSans.ttf" font-size="10.00">ModelTransformers.cpp</text>
</a>
</g>
</g>
<!-- Node1&#45;&gt;Node22 -->
<g id="edge24" class="edge">
<title>Node1&#45;&gt;Node22</title>
<path fill="none" stroke="midnightblue" d="M1854.85,-140.44C1942.2,-135.17 2139.71,-121.57 2304.5,-98 2315.77,-96.39 2327.93,-94.2 2339.07,-92.01"/>
<polygon fill="midnightblue" stroke="midnightblue" points="1854.53,-136.96 1844.75,-141.04 1854.94,-143.94 1854.53,-136.96"/>
</g>
<!-- Node23 -->
<g id="node23" class="node">
<title>Node23</title>
<g id="a_node23"><a xlink:href="SubModel_8cpp.html" target="_top" xlink:title=" ">
<polygon fill="none" stroke="black" points="2462,-73 2462,-92 2547,-92 2547,-73 2462,-73"/>
<text text-anchor="middle" x="2504.5" y="-80" font-family="FreeSans.ttf" font-size="10.00">SubModel.cpp</text>
</a>
</g>
</g>
<!-- Node1&#45;&gt;Node23 -->
<g id="edge25" class="edge">
<title>Node1&#45;&gt;Node23</title>
<path fill="none" stroke="midnightblue" d="M1855.03,-143.04C1960.89,-142.45 2231.5,-136.88 2453.5,-98 2461.75,-96.55 2470.58,-94.3 2478.53,-92.01"/>
<polygon fill="midnightblue" stroke="midnightblue" points="1854.7,-139.54 1844.71,-143.09 1854.73,-146.54 1854.7,-139.54"/>
</g>
<!-- Node24 -->
<g id="node24" class="node">
<title>Node24</title>
<g id="a_node24"><a xlink:href="Traversal_8cpp.html" target="_top" xlink:title=" ">
<polygon fill="none" stroke="black" points="2565,-73 2565,-92 2646,-92 2646,-73 2565,-73"/>
<text text-anchor="middle" x="2605.5" y="-80" font-family="FreeSans.ttf" font-size="10.00">Traversal.cpp</text>
</a>
</g>
</g>
<!-- Node1&#45;&gt;Node24 -->
<g id="edge26" class="edge">
<title>Node1&#45;&gt;Node24</title>
<path fill="none" stroke="midnightblue" d="M1855.17,-141.61C1995.73,-137.12 2420.56,-121.89 2556.5,-98 2564.45,-96.6 2572.94,-94.37 2580.58,-92.06"/>
<polygon fill="midnightblue" stroke="midnightblue" points="1854.66,-138.13 1844.77,-141.94 1854.88,-145.12 1854.66,-138.13"/>
</g>
<!-- Node25 -->
<g id="node25" class="node">
<title>Node25</title>
<g id="a_node25"><a xlink:href="ForceTorqueSensorElement_8cpp.html" target="_top" xlink:title=" ">
<polygon fill="none" stroke="black" points="2664,-73 2664,-92 2833,-92 2833,-73 2664,-73"/>
<text text-anchor="middle" x="2748.5" y="-80" font-family="FreeSans.ttf" font-size="10.00">ForceTorqueSensorElement.cpp</text>
</a>
</g>
</g>
<!-- Node1&#45;&gt;Node25 -->
<g id="edge27" class="edge">
<title>Node1&#45;&gt;Node25</title>
<path fill="none" stroke="midnightblue" d="M1854.76,-142.21C1981.52,-139.64 2350.65,-129.79 2655.5,-98 2669.96,-96.49 2685.61,-94.28 2699.87,-92.04"/>
<polygon fill="midnightblue" stroke="midnightblue" points="1854.58,-138.71 1844.66,-142.41 1854.72,-145.71 1854.58,-138.71"/>
</g>
<!-- Node26 -->
<g id="node26" class="node">
<title>Node26</title>
<g id="a_node26"><a xlink:href="URDFModelExport_8cpp.html" target="_top" xlink:title=" ">
<polygon fill="none" stroke="black" points="2851.5,-73 2851.5,-92 2977.5,-92 2977.5,-73 2851.5,-73"/>
<text text-anchor="middle" x="2914.5" y="-80" font-family="FreeSans.ttf" font-size="10.00">URDFModelExport.cpp</text>
</a>
</g>
</g>
<!-- Node1&#45;&gt;Node26 -->
<g id="edge28" class="edge">
<title>Node1&#45;&gt;Node26</title>
<path fill="none" stroke="midnightblue" d="M1855.18,-143.53C2000.21,-144.67 2463.08,-144.19 2842.5,-98 2854.02,-96.6 2866.45,-94.36 2877.68,-92.06"/>
<polygon fill="midnightblue" stroke="midnightblue" points="1854.92,-140.03 1844.89,-143.44 1854.86,-147.03 1854.92,-140.03"/>
</g>
<!-- Node27 -->
<g id="node27" class="node">
<title>Node27</title>
<g id="a_node27"><a xlink:href="PredictSensorsMeasurements_8cpp.html" target="_top" xlink:title=" ">
<polygon fill="none" stroke="black" points="2995.5,-73 2995.5,-92 3177.5,-92 3177.5,-73 2995.5,-73"/>
<text text-anchor="middle" x="3086.5" y="-80" font-family="FreeSans.ttf" font-size="10.00">PredictSensorsMeasurements.cpp</text>
</a>
</g>
</g>
<!-- Node1&#45;&gt;Node27 -->
<g id="edge29" class="edge">
<title>Node1&#45;&gt;Node27</title>
<path fill="none" stroke="midnightblue" d="M1854.96,-142.99C2012.15,-142.59 2547.06,-138.15 2986.5,-98 3002.31,-96.56 3019.44,-94.32 3034.98,-92.03"/>
<polygon fill="midnightblue" stroke="midnightblue" points="1854.72,-139.49 1844.73,-143.01 1854.74,-146.49 1854.72,-139.49"/>
</g>
<!-- Node28 -->
<g id="node28" class="node">
<title>Node28</title>
<g id="a_node28"><a xlink:href="SixAxisForceTorqueSensor_8cpp.html" target="_top" xlink:title=" ">
<polygon fill="none" stroke="black" points="3195.5,-73 3195.5,-92 3359.5,-92 3359.5,-73 3195.5,-73"/>
<text text-anchor="middle" x="3277.5" y="-80" font-family="FreeSans.ttf" font-size="10.00">SixAxisForceTorqueSensor.cpp</text>
</a>
</g>
</g>
<!-- Node1&#45;&gt;Node28 -->
<g id="edge30" class="edge">
<title>Node1&#45;&gt;Node28</title>
<path fill="none" stroke="midnightblue" d="M1854.85,-142.28C2061.96,-138.89 2919.26,-123.56 3186.5,-98 3201.15,-96.6 3217.02,-94.33 3231.35,-92"/>
<polygon fill="midnightblue" stroke="midnightblue" points="1854.59,-138.79 1844.65,-142.45 1854.7,-145.79 1854.59,-138.79"/>
</g>
<!-- Node29 -->
<g id="node29" class="node">
<title>Node29</title>
<g id="a_node29"><a xlink:href="ModelVisualization_8cpp.html" target="_top" xlink:title=" ">
<polygon fill="none" stroke="black" points="3377.5,-73 3377.5,-92 3507.5,-92 3507.5,-73 3377.5,-73"/>
<text text-anchor="middle" x="3442.5" y="-80" font-family="FreeSans.ttf" font-size="10.00">ModelVisualization.cpp</text>
</a>
</g>
</g>
<!-- Node1&#45;&gt;Node29 -->
<g id="edge31" class="edge">
<title>Node1&#45;&gt;Node29</title>
<path fill="none" stroke="midnightblue" d="M1854.61,-142.7C2077.61,-141.07 3063.7,-132.03 3368.5,-98 3380.6,-96.65 3393.67,-94.37 3405.42,-92.01"/>
<polygon fill="midnightblue" stroke="midnightblue" points="1854.55,-139.2 1844.57,-142.77 1854.6,-146.2 1854.55,-139.2"/>
</g>
<!-- Node2&#45;&gt;Node3 -->
<g id="edge2" class="edge">
<title>Node2&#45;&gt;Node3</title>
<path fill="none" stroke="midnightblue" d="M162.35,-68.61C134.22,-55.74 91.77,-36.31 67.43,-25.17"/>
<polygon fill="midnightblue" stroke="midnightblue" points="161.09,-71.89 171.64,-72.87 164.01,-65.52 161.09,-71.89"/>
</g>
<!-- Node4 -->
<g id="node4" class="node">
<title>Node4</title>
<g id="a_node4"><a xlink:href="BerdySparseMAPSolver_8cpp.html" target="_top" xlink:title=" ">
<polygon fill="none" stroke="black" points="115.5,-6 115.5,-25 265.5,-25 265.5,-6 115.5,-6"/>
<text text-anchor="middle" x="190.5" y="-13" font-family="FreeSans.ttf" font-size="10.00">BerdySparseMAPSolver.cpp</text>
</a>
</g>
</g>
<!-- Node2&#45;&gt;Node4 -->
<g id="edge3" class="edge">
<title>Node2&#45;&gt;Node4</title>
<path fill="none" stroke="midnightblue" d="M190.5,-62.54C190.5,-50.17 190.5,-34.62 190.5,-25.13"/>
<polygon fill="midnightblue" stroke="midnightblue" points="187,-62.73 190.5,-72.73 194,-62.73 187,-62.73"/>
</g>
<!-- Node5&#45;&gt;Node6 -->
<g id="edge5" class="edge">
<title>Node5&#45;&gt;Node6</title>
<path fill="none" stroke="midnightblue" d="M341.93,-58.28C346.49,-49.02 351.59,-38.66 355.57,-30.58"/>
<polygon fill="midnightblue" stroke="midnightblue" points="338.72,-56.88 337.44,-67.4 345,-59.97 338.72,-56.88"/>
</g>
<!-- Node8 -->
<g id="node8" class="node">
<title>Node8</title>
<g id="a_node8"><a xlink:href="GravityCompensationHelpers_8cpp.html" target="_top" xlink:title=" ">
<polygon fill="none" stroke="black" points="460,-6 460,-25 641,-25 641,-6 460,-6"/>
<text text-anchor="middle" x="550.5" y="-13" font-family="FreeSans.ttf" font-size="10.00">GravityCompensationHelpers.cpp</text>
</a>
</g>
</g>
<!-- Node7&#45;&gt;Node8 -->
<g id="edge7" class="edge">
<title>Node7&#45;&gt;Node8</title>
<path fill="none" stroke="midnightblue" d="M550.5,-62.54C550.5,-50.17 550.5,-34.62 550.5,-25.13"/>
<polygon fill="midnightblue" stroke="midnightblue" points="547,-62.73 550.5,-72.73 554,-62.73 547,-62.73"/>
</g>
<!-- Node10 -->
<g id="node10" class="node">
<title>Node10</title>
<g id="a_node10"><a xlink:href="SimpleLeggedOdometry_8cpp.html" target="_top" xlink:title=" ">
<polygon fill="none" stroke="black" points="659,-6 659,-25 812,-25 812,-6 659,-6"/>
<text text-anchor="middle" x="735.5" y="-13" font-family="FreeSans.ttf" font-size="10.00">SimpleLeggedOdometry.cpp</text>
</a>
</g>
</g>
<!-- Node9&#45;&gt;Node10 -->
<g id="edge9" class="edge">
<title>Node9&#45;&gt;Node10</title>
<path fill="none" stroke="midnightblue" d="M727.71,-62.54C729.8,-50.17 732.43,-34.62 734.04,-25.13"/>
<polygon fill="midnightblue" stroke="midnightblue" points="724.2,-62.29 725.98,-72.73 731.1,-63.46 724.2,-62.29"/>
</g>
<!-- Node14 -->
<g id="node14" class="node">
<title>Node14</title>
<g id="a_node14"><a xlink:href="skinDynLibConversions_8h.html" target="_top" xlink:title=" ">
<polygon fill="none" stroke="black" points="1206.5,-6 1206.5,-25 1346.5,-25 1346.5,-6 1206.5,-6"/>
<text text-anchor="middle" x="1276.5" y="-13" font-family="FreeSans.ttf" font-size="10.00">skinDynLibConversions.h</text>
</a>
</g>
</g>
<!-- Node13&#45;&gt;Node14 -->
<g id="edge15" class="edge">
<title>Node13&#45;&gt;Node14</title>
<path fill="none" stroke="midnightblue" d="M1270.3,-62.54C1269.24,-50.17 1269.72,-34.62 1271.74,-25.13"/>
<polygon fill="midnightblue" stroke="midnightblue" points="1266.87,-63.31 1271.71,-72.73 1273.81,-62.35 1266.87,-63.31"/>
</g>
<!-- Node14&#45;&gt;Node13 -->
<g id="edge16" class="edge">
<title>Node14&#45;&gt;Node13</title>
<path fill="none" stroke="midnightblue" d="M1282.68,-35.28C1283.76,-47.62 1283.3,-63.18 1281.29,-72.73"/>
<polygon fill="midnightblue" stroke="midnightblue" points="1286.12,-34.54 1281.26,-25.13 1279.18,-35.52 1286.12,-34.54"/>
</g>
</g>
</svg>
