<?xml version="1.0" encoding="UTF-8" standalone="no"?>
<!DOCTYPE svg PUBLIC "-//W3C//DTD SVG 1.1//EN"
 "http://www.w3.org/Graphics/SVG/1.1/DTD/svg11.dtd">
<!-- Generated by graphviz version 2.43.0 (0)
 -->
<!-- Title: Traversal.h Pages: 1 -->
<svg width="3666pt" height="162pt"
 viewBox="0.00 0.00 3665.50 162.00" xmlns="http://www.w3.org/2000/svg" xmlns:xlink="http://www.w3.org/1999/xlink">
<g id="graph0" class="graph" transform="scale(1 1) rotate(0) translate(4 158)">
<title>Traversal.h</title>
<!-- Node1 -->
<g id="node1" class="node">
<title>Node1</title>
<g id="a_node1"><a xlink:title=" ">
<polygon fill="#bfbfbf" stroke="black" points="1853.5,-134.5 1853.5,-153.5 1923.5,-153.5 1923.5,-134.5 1853.5,-134.5"/>
<text text-anchor="middle" x="1888.5" y="-141.5" font-family="FreeSans.ttf" font-size="10.00">Traversal.h</text>
</a>
</g>
</g>
<!-- Node2 -->
<g id="node2" class="node">
<title>Node2</title>
<g id="a_node2"><a xlink:href="BerdyHelper_8h.html" target="_top" xlink:title=" ">
<polygon fill="none" stroke="black" points="147.5,-73 147.5,-92 233.5,-92 233.5,-73 147.5,-73"/>
<text text-anchor="middle" x="190.5" y="-80" font-family="FreeSans.ttf" font-size="10.00">BerdyHelper.h</text>
</a>
</g>
</g>
<!-- Node1&#45;&gt;Node2 -->
<g id="edge1" class="edge">
<title>Node1&#45;&gt;Node2</title>
<path fill="none" stroke="midnightblue" d="M1843.43,-143.26C1612.9,-144.33 563.88,-146.45 242.5,-98 233.88,-96.7 224.66,-94.43 216.42,-92.07"/>
<polygon fill="midnightblue" stroke="midnightblue" points="1843.49,-146.75 1853.48,-143.21 1843.46,-139.76 1843.49,-146.75"/>
</g>
<!-- Node3 -->
<g id="node3" class="node">
<title>Node3</title>
<g id="a_node3"><a xlink:href="BerdyHelper_8cpp.html" target="_top" xlink:title=" ">
<polygon fill="none" stroke="black" points="0,-6 0,-25 97,-25 97,-6 0,-6"/>
<text text-anchor="middle" x="48.5" y="-13" font-family="FreeSans.ttf" font-size="10.00">BerdyHelper.cpp</text>
</a>
</g>
</g>
<!-- Node1&#45;&gt;Node3 -->
<g id="edge10" class="edge">
<title>Node1&#45;&gt;Node3</title>
<path fill="none" stroke="midnightblue" d="M1843.3,-142.72C1576.85,-140.99 219.9,-130.59 138.5,-98 99.95,-82.57 67.43,-42.62 54.49,-25.03"/>
<polygon fill="midnightblue" stroke="midnightblue" points="1843.37,-146.23 1853.39,-142.79 1843.42,-139.23 1843.37,-146.23"/>
</g>
<!-- Node5 -->
<g id="node5" class="node">
<title>Node5</title>
<g id="a_node5"><a xlink:href="ExtWrenchesAndJointTorquesEstimator_8h.html" target="_top" xlink:title=" ">
<polygon fill="none" stroke="black" points="251.5,-67.5 251.5,-97.5 409.5,-97.5 409.5,-67.5 251.5,-67.5"/>
<text text-anchor="start" x="259.5" y="-85.5" font-family="FreeSans.ttf" font-size="10.00">ExtWrenchesAndJointTorques</text>
<text text-anchor="middle" x="330.5" y="-74.5" font-family="FreeSans.ttf" font-size="10.00">Estimator.h</text>
</a>
</g>
</g>
<!-- Node1&#45;&gt;Node5 -->
<g id="edge4" class="edge">
<title>Node1&#45;&gt;Node5</title>
<path fill="none" stroke="midnightblue" d="M1843.08,-142.36C1627.83,-139.24 709.1,-124.55 423.5,-98 418.94,-97.58 414.27,-97.07 409.56,-96.51"/>
<polygon fill="midnightblue" stroke="midnightblue" points="1843.32,-145.87 1853.37,-142.51 1843.42,-138.87 1843.32,-145.87"/>
</g>
<!-- Node6 -->
<g id="node6" class="node">
<title>Node6</title>
<g id="a_node6"><a xlink:href="ExtWrenchesAndJointTorquesEstimator_8cpp.html" target="_top" xlink:title=" ">
<polygon fill="none" stroke="black" points="283.5,-0.5 283.5,-30.5 441.5,-30.5 441.5,-0.5 283.5,-0.5"/>
<text text-anchor="start" x="291.5" y="-18.5" font-family="FreeSans.ttf" font-size="10.00">ExtWrenchesAndJointTorques</text>
<text text-anchor="middle" x="362.5" y="-7.5" font-family="FreeSans.ttf" font-size="10.00">Estimator.cpp</text>
</a>
</g>
</g>
<!-- Node1&#45;&gt;Node6 -->
<g id="edge12" class="edge">
<title>Node1&#45;&gt;Node6</title>
<path fill="none" stroke="midnightblue" d="M1842.83,-142.42C1605.61,-139.33 522.48,-123.81 456.5,-98 451.8,-96.16 403.81,-53.52 378.28,-30.67"/>
<polygon fill="midnightblue" stroke="midnightblue" points="1843.11,-145.93 1853.16,-142.56 1843.21,-138.93 1843.11,-145.93"/>
</g>
<!-- Node7 -->
<g id="node7" class="node">
<title>Node7</title>
<g id="a_node7"><a xlink:href="GravityCompensationHelpers_8h.html" target="_top" xlink:title=" ">
<polygon fill="none" stroke="black" points="465.5,-73 465.5,-92 635.5,-92 635.5,-73 465.5,-73"/>
<text text-anchor="middle" x="550.5" y="-80" font-family="FreeSans.ttf" font-size="10.00">GravityCompensationHelpers.h</text>
</a>
</g>
</g>
<!-- Node1&#45;&gt;Node7 -->
<g id="edge6" class="edge">
<title>Node1&#45;&gt;Node7</title>
<path fill="none" stroke="midnightblue" d="M1843.16,-143.27C1680.52,-143.83 1111.34,-142.3 644.5,-98 629.54,-96.58 613.34,-94.34 598.67,-92.04"/>
<polygon fill="midnightblue" stroke="midnightblue" points="1843.29,-146.77 1853.28,-143.23 1843.26,-139.77 1843.29,-146.77"/>
</g>
<!-- Node9 -->
<g id="node9" class="node">
<title>Node9</title>
<g id="a_node9"><a xlink:href="SimpleLeggedOdometry_8h.html" target="_top" xlink:title=" ">
<polygon fill="none" stroke="black" points="653.5,-73 653.5,-92 795.5,-92 795.5,-73 653.5,-73"/>
<text text-anchor="middle" x="724.5" y="-80" font-family="FreeSans.ttf" font-size="10.00">SimpleLeggedOdometry.h</text>
</a>
</g>
</g>
<!-- Node1&#45;&gt;Node9 -->
<g id="edge8" class="edge">
<title>Node1&#45;&gt;Node9</title>
<path fill="none" stroke="midnightblue" d="M1843.12,-143.35C1693.95,-144.02 1205.34,-142.43 804.5,-98 791.73,-96.58 777.93,-94.34 765.45,-92.04"/>
<polygon fill="midnightblue" stroke="midnightblue" points="1843.29,-146.85 1853.27,-143.3 1843.26,-139.85 1843.29,-146.85"/>
</g>
<!-- Node11 -->
<g id="node11" class="node">
<title>Node11</title>
<g id="a_node11"><a xlink:href="ExternalWrenchesEstimation_8cpp.html" target="_top" xlink:title=" ">
<polygon fill="none" stroke="black" points="813.5,-73 813.5,-92 991.5,-92 991.5,-73 813.5,-73"/>
<text text-anchor="middle" x="902.5" y="-80" font-family="FreeSans.ttf" font-size="10.00">ExternalWrenchesEstimation.cpp</text>
</a>
</g>
</g>
<!-- Node1&#45;&gt;Node11 -->
<g id="edge11" class="edge">
<title>Node1&#45;&gt;Node11</title>
<path fill="none" stroke="midnightblue" d="M1843.24,-142.24C1712.39,-139.73 1322.43,-129.9 1000.5,-98 985.27,-96.49 968.78,-94.28 953.75,-92.03"/>
<polygon fill="midnightblue" stroke="midnightblue" points="1843.23,-145.74 1853.3,-142.43 1843.36,-138.75 1843.23,-145.74"/>
</g>
<!-- Node12 -->
<g id="node12" class="node">
<title>Node12</title>
<g id="a_node12"><a xlink:href="KinDynComputations_8cpp.html" target="_top" xlink:title=" ">
<polygon fill="none" stroke="black" points="1009.5,-73 1009.5,-92 1149.5,-92 1149.5,-73 1009.5,-73"/>
<text text-anchor="middle" x="1079.5" y="-80" font-family="FreeSans.ttf" font-size="10.00">KinDynComputations.cpp</text>
</a>
</g>
</g>
<!-- Node1&#45;&gt;Node12 -->
<g id="edge13" class="edge">
<title>Node1&#45;&gt;Node12</title>
<path fill="none" stroke="midnightblue" d="M1843.24,-142.1C1728.38,-139.39 1416.39,-129.5 1158.5,-98 1146.18,-96.5 1132.88,-94.28 1120.77,-92.04"/>
<polygon fill="midnightblue" stroke="midnightblue" points="1843.34,-145.6 1853.41,-142.33 1843.5,-138.6 1843.34,-145.6"/>
</g>
<!-- Node13 -->
<g id="node13" class="node">
<title>Node13</title>
<g id="a_node13"><a xlink:href="skinDynLibConversionsImplementation_8h.html" target="_top" xlink:title=" ">
<polygon fill="none" stroke="black" points="1167.5,-73 1167.5,-92 1385.5,-92 1385.5,-73 1167.5,-73"/>
<text text-anchor="middle" x="1276.5" y="-80" font-family="FreeSans.ttf" font-size="10.00">skinDynLibConversionsImplementation.h</text>
</a>
</g>
</g>
<!-- Node1&#45;&gt;Node13 -->
<g id="edge14" class="edge">
<title>Node1&#45;&gt;Node13</title>
<path fill="none" stroke="midnightblue" d="M1843.37,-139.37C1756.43,-132.26 1559.69,-115.67 1394.5,-98 1377.77,-96.21 1359.74,-94.09 1342.92,-92.03"/>
<polygon fill="midnightblue" stroke="midnightblue" points="1843.17,-142.86 1853.42,-140.19 1843.74,-135.89 1843.17,-142.86"/>
</g>
<!-- Node15 -->
<g id="node15" class="node">
<title>Node15</title>
<g id="a_node15"><a xlink:href="DenavitHartenberg_8cpp.html" target="_top" xlink:title=" ">
<polygon fill="none" stroke="black" points="1403.5,-73 1403.5,-92 1533.5,-92 1533.5,-73 1403.5,-73"/>
<text text-anchor="middle" x="1468.5" y="-80" font-family="FreeSans.ttf" font-size="10.00">DenavitHartenberg.cpp</text>
</a>
</g>
</g>
<!-- Node1&#45;&gt;Node15 -->
<g id="edge17" class="edge">
<title>Node1&#45;&gt;Node15</title>
<path fill="none" stroke="midnightblue" d="M1842.92,-138.02C1776.61,-130.55 1649.76,-115.47 1542.5,-98 1531.78,-96.25 1520.23,-94.12 1509.51,-92.02"/>
<polygon fill="midnightblue" stroke="midnightblue" points="1842.7,-141.51 1853.03,-139.15 1843.48,-134.56 1842.7,-141.51"/>
</g>
<!-- Node16 -->
<g id="node16" class="node">
<title>Node16</title>
<g id="a_node16"><a xlink:href="Dynamics_8cpp.html" target="_top" xlink:title=" ">
<polygon fill="none" stroke="black" points="1551.5,-73 1551.5,-92 1637.5,-92 1637.5,-73 1551.5,-73"/>
<text text-anchor="middle" x="1594.5" y="-80" font-family="FreeSans.ttf" font-size="10.00">Dynamics.cpp</text>
</a>
</g>
</g>
<!-- Node1&#45;&gt;Node16 -->
<g id="edge18" class="edge">
<title>Node1&#45;&gt;Node16</title>
<path fill="none" stroke="midnightblue" d="M1843.3,-135.71C1794.7,-127.6 1715.27,-113.57 1647.5,-98 1639.88,-96.25 1631.7,-94.13 1624.1,-92.06"/>
<polygon fill="midnightblue" stroke="midnightblue" points="1842.75,-139.16 1853.19,-137.34 1843.9,-132.26 1842.75,-139.16"/>
</g>
<!-- Node17 -->
<g id="node17" class="node">
<title>Node17</title>
<g id="a_node17"><a xlink:href="DynamicsLinearization_8cpp.html" target="_top" xlink:title=" ">
<polygon fill="none" stroke="black" points="1656,-73 1656,-92 1805,-92 1805,-73 1656,-73"/>
<text text-anchor="middle" x="1730.5" y="-80" font-family="FreeSans.ttf" font-size="10.00">DynamicsLinearization.cpp</text>
</a>
</g>
</g>
<!-- Node1&#45;&gt;Node17 -->
<g id="edge19" class="edge">
<title>Node1&#45;&gt;Node17</title>
<path fill="none" stroke="midnightblue" d="M1856.46,-130.93C1825.75,-119.37 1780.18,-102.21 1753.1,-92.01"/>
<polygon fill="midnightblue" stroke="midnightblue" points="1855.27,-134.23 1865.86,-134.48 1857.74,-127.68 1855.27,-134.23"/>
</g>
<!-- Node18 -->
<g id="node18" class="node">
<title>Node18</title>
<g id="a_node18"><a xlink:href="ForwardKinematics_8cpp.html" target="_top" xlink:title=" ">
<polygon fill="none" stroke="black" points="1823,-73 1823,-92 1954,-92 1954,-73 1823,-73"/>
<text text-anchor="middle" x="1888.5" y="-80" font-family="FreeSans.ttf" font-size="10.00">ForwardKinematics.cpp</text>
</a>
</g>
</g>
<!-- Node1&#45;&gt;Node18 -->
<g id="edge20" class="edge">
<title>Node1&#45;&gt;Node18</title>
<path fill="none" stroke="midnightblue" d="M1888.5,-124.32C1888.5,-113.5 1888.5,-100.4 1888.5,-92.01"/>
<polygon fill="midnightblue" stroke="midnightblue" points="1885,-124.48 1888.5,-134.48 1892,-124.48 1885,-124.48"/>
</g>
<!-- Node19 -->
<g id="node19" class="node">
<title>Node19</title>
<g id="a_node19"><a xlink:href="Jacobians_8cpp.html" target="_top" xlink:title=" ">
<polygon fill="none" stroke="black" points="1972,-73 1972,-92 2055,-92 2055,-73 1972,-73"/>
<text text-anchor="middle" x="2013.5" y="-80" font-family="FreeSans.ttf" font-size="10.00">Jacobians.cpp</text>
</a>
</g>
</g>
<!-- Node1&#45;&gt;Node19 -->
<g id="edge21" class="edge">
<title>Node1&#45;&gt;Node19</title>
<path fill="none" stroke="midnightblue" d="M1915.44,-130.17C1939.7,-118.63 1974.66,-101.99 1995.62,-92.01"/>
<polygon fill="midnightblue" stroke="midnightblue" points="1913.93,-127.02 1906.41,-134.48 1916.94,-133.34 1913.93,-127.02"/>
</g>
<!-- Node20 -->
<g id="node20" class="node">
<title>Node20</title>
<g id="a_node20"><a xlink:href="LinkTraversalsCache_8cpp.html" target="_top" xlink:title=" ">
<polygon fill="none" stroke="black" points="2073,-73 2073,-92 2210,-92 2210,-73 2073,-73"/>
<text text-anchor="middle" x="2141.5" y="-80" font-family="FreeSans.ttf" font-size="10.00">LinkTraversalsCache.cpp</text>
</a>
</g>
</g>
<!-- Node1&#45;&gt;Node20 -->
<g id="edge22" class="edge">
<title>Node1&#45;&gt;Node20</title>
<path fill="none" stroke="midnightblue" d="M1933.67,-132.38C1982.6,-120.87 2059.72,-102.73 2104.98,-92.09"/>
<polygon fill="midnightblue" stroke="midnightblue" points="1932.61,-129.03 1923.68,-134.73 1934.21,-135.84 1932.61,-129.03"/>
</g>
<!-- Node21 -->
<g id="node21" class="node">
<title>Node21</title>
<g id="a_node21"><a xlink:href="Model_8cpp.html" target="_top" xlink:title=" ">
<polygon fill="none" stroke="black" points="2228,-73 2228,-92 2295,-92 2295,-73 2228,-73"/>
<text text-anchor="middle" x="2261.5" y="-80" font-family="FreeSans.ttf" font-size="10.00">Model.cpp</text>
</a>
</g>
</g>
<!-- Node1&#45;&gt;Node21 -->
<g id="edge23" class="edge">
<title>Node1&#45;&gt;Node21</title>
<path fill="none" stroke="midnightblue" d="M1933.9,-139.68C1998.16,-134.34 2119.03,-121.92 2219.5,-98 2226.1,-96.43 2233.13,-94.22 2239.51,-92.01"/>
<polygon fill="midnightblue" stroke="midnightblue" points="1933.39,-136.21 1923.71,-140.51 1933.96,-143.19 1933.39,-136.21"/>
</g>
<!-- Node22 -->
<g id="node22" class="node">
<title>Node22</title>
<g id="a_node22"><a xlink:href="ModelTransformers_8cpp.html" target="_top" xlink:title=" ">
<polygon fill="none" stroke="black" points="2313,-73 2313,-92 2444,-92 2444,-73 2313,-73"/>
<text text-anchor="middle" x="2378.5" y="-80" font-family="FreeSans.ttf" font-size="10.00">ModelTransformers.cpp</text>
</a>
</g>
</g>
<!-- Node1&#45;&gt;Node22 -->
<g id="edge24" class="edge">
<title>Node1&#45;&gt;Node22</title>
<path fill="none" stroke="midnightblue" d="M1933.95,-139.37C2010.61,-132.96 2170.4,-118.35 2304.5,-98 2315.5,-96.33 2327.36,-94.17 2338.28,-92.03"/>
<polygon fill="midnightblue" stroke="midnightblue" points="1933.37,-135.9 1923.69,-140.22 1933.95,-142.88 1933.37,-135.9"/>
</g>
<!-- Node23 -->
<g id="node23" class="node">
<title>Node23</title>
<g id="a_node23"><a xlink:href="SubModel_8cpp.html" target="_top" xlink:title=" ">
<polygon fill="none" stroke="black" points="2462,-73 2462,-92 2547,-92 2547,-73 2462,-73"/>
<text text-anchor="middle" x="2504.5" y="-80" font-family="FreeSans.ttf" font-size="10.00">SubModel.cpp</text>
</a>
</g>
</g>
<!-- Node1&#45;&gt;Node23 -->
<g id="edge25" class="edge">
<title>Node1&#45;&gt;Node23</title>
<path fill="none" stroke="midnightblue" d="M1933.78,-142.42C2030.15,-140.52 2262.38,-132.43 2453.5,-98 2461.65,-96.53 2470.38,-94.3 2478.26,-92.03"/>
<polygon fill="midnightblue" stroke="midnightblue" points="1933.46,-138.92 1923.53,-142.61 1933.59,-145.92 1933.46,-138.92"/>
</g>
<!-- Node24 -->
<g id="node24" class="node">
<title>Node24</title>
<g id="a_node24"><a xlink:href="Traversal_8cpp.html" target="_top" xlink:title=" ">
<polygon fill="none" stroke="black" points="2565,-73 2565,-92 2646,-92 2646,-73 2565,-73"/>
<text text-anchor="middle" x="2605.5" y="-80" font-family="FreeSans.ttf" font-size="10.00">Traversal.cpp</text>
</a>
</g>
</g>
<!-- Node1&#45;&gt;Node24 -->
<g id="edge26" class="edge">
<title>Node1&#45;&gt;Node24</title>
<path fill="none" stroke="midnightblue" d="M1933.85,-143.37C2042.35,-143.52 2325.09,-139.51 2556.5,-98 2564.45,-96.57 2572.93,-94.33 2580.58,-92.03"/>
<polygon fill="midnightblue" stroke="midnightblue" points="1933.61,-139.87 1923.6,-143.34 1933.59,-146.87 1933.61,-139.87"/>
</g>
<!-- Node25 -->
<g id="node25" class="node">
<title>Node25</title>
<g id="a_node25"><a xlink:href="ForceTorqueSensorElement_8cpp.html" target="_top" xlink:title=" ">
<polygon fill="none" stroke="black" points="2664,-73 2664,-92 2833,-92 2833,-73 2664,-73"/>
<text text-anchor="middle" x="2748.5" y="-80" font-family="FreeSans.ttf" font-size="10.00">ForceTorqueSensorElement.cpp</text>
</a>
</g>
</g>
<!-- Node1&#45;&gt;Node25 -->
<g id="edge27" class="edge">
<title>Node1&#45;&gt;Node25</title>
<path fill="none" stroke="midnightblue" d="M1933.94,-141.86C2052.8,-138.54 2382.56,-127.22 2655.5,-98 2669.8,-96.47 2685.26,-94.28 2699.39,-92.06"/>
<polygon fill="midnightblue" stroke="midnightblue" points="1933.67,-138.36 1923.77,-142.14 1933.86,-145.36 1933.67,-138.36"/>
</g>
<!-- Node26 -->
<g id="node26" class="node">
<title>Node26</title>
<g id="a_node26"><a xlink:href="URDFModelExport_8cpp.html" target="_top" xlink:title=" ">
<polygon fill="none" stroke="black" points="2851.5,-73 2851.5,-92 2977.5,-92 2977.5,-73 2851.5,-73"/>
<text text-anchor="middle" x="2914.5" y="-80" font-family="FreeSans.ttf" font-size="10.00">URDFModelExport.cpp</text>
</a>
</g>
</g>
<!-- Node1&#45;&gt;Node26 -->
<g id="edge28" class="edge">
<title>Node1&#45;&gt;Node26</title>
<path fill="none" stroke="midnightblue" d="M1933.9,-143.29C2071.36,-143.66 2494.88,-140.95 2842.5,-98 2854.02,-96.58 2866.44,-94.33 2877.68,-92.03"/>
<polygon fill="midnightblue" stroke="midnightblue" points="1933.76,-139.79 1923.75,-143.26 1933.74,-146.79 1933.76,-139.79"/>
</g>
<!-- Node27 -->
<g id="node27" class="node">
<title>Node27</title>
<g id="a_node27"><a xlink:href="PredictSensorsMeasurements_8cpp.html" target="_top" xlink:title=" ">
<polygon fill="none" stroke="black" points="2995.5,-73 2995.5,-92 3177.5,-92 3177.5,-73 2995.5,-73"/>
<text text-anchor="middle" x="3086.5" y="-80" font-family="FreeSans.ttf" font-size="10.00">PredictSensorsMeasurements.cpp</text>
</a>
</g>
</g>
<!-- Node1&#45;&gt;Node27 -->
<g id="edge29" class="edge">
<title>Node1&#45;&gt;Node27</title>
<path fill="none" stroke="midnightblue" d="M1933.89,-142.81C2084.19,-141.84 2579.29,-135.77 2986.5,-98 3002.31,-96.53 3019.44,-94.29 3034.98,-92.01"/>
<polygon fill="midnightblue" stroke="midnightblue" points="1933.65,-139.31 1923.67,-142.87 1933.69,-146.31 1933.65,-139.31"/>
</g>
<!-- Node28 -->
<g id="node28" class="node">
<title>Node28</title>
<g id="a_node28"><a xlink:href="SixAxisForceTorqueSensor_8cpp.html" target="_top" xlink:title=" ">
<polygon fill="none" stroke="black" points="3195.5,-73 3195.5,-92 3359.5,-92 3359.5,-73 3195.5,-73"/>
<text text-anchor="middle" x="3277.5" y="-80" font-family="FreeSans.ttf" font-size="10.00">SixAxisForceTorqueSensor.cpp</text>
</a>
</g>
</g>
<!-- Node1&#45;&gt;Node28 -->
<g id="edge30" class="edge">
<title>Node1&#45;&gt;Node28</title>
<path fill="none" stroke="midnightblue" d="M1934.11,-143.45C2101.53,-144.67 2697.86,-145.22 3186.5,-98 3200.99,-96.6 3216.68,-94.36 3230.88,-92.06"/>
<polygon fill="midnightblue" stroke="midnightblue" points="1933.74,-139.95 1923.71,-143.37 1933.68,-146.95 1933.74,-139.95"/>
</g>
<!-- Node29 -->
<g id="node29" class="node">
<title>Node29</title>
<g id="a_node29"><a xlink:href="robotstatepublisher_8cpp.html" target="_top" xlink:title=" ">
<polygon fill="none" stroke="black" points="3378,-73 3378,-92 3509,-92 3509,-73 3378,-73"/>
<text text-anchor="middle" x="3443.5" y="-80" font-family="FreeSans.ttf" font-size="10.00">robotstatepublisher.cpp</text>
</a>
</g>
</g>
<!-- Node1&#45;&gt;Node29 -->
<g id="edge31" class="edge">
<title>Node1&#45;&gt;Node29</title>
<path fill="none" stroke="midnightblue" d="M1933.73,-142.6C2150.03,-140.56 3080.21,-130.04 3368.5,-98 3380.63,-96.65 3393.72,-94.4 3405.53,-92.07"/>
<polygon fill="midnightblue" stroke="midnightblue" points="1933.66,-139.1 1923.69,-142.7 1933.72,-146.1 1933.66,-139.1"/>
</g>
<!-- Node30 -->
<g id="node30" class="node">
<title>Node30</title>
<g id="a_node30"><a xlink:href="ModelVisualization_8cpp.html" target="_top" xlink:title=" ">
<polygon fill="none" stroke="black" points="3527.5,-73 3527.5,-92 3657.5,-92 3657.5,-73 3527.5,-73"/>
<text text-anchor="middle" x="3592.5" y="-80" font-family="FreeSans.ttf" font-size="10.00">ModelVisualization.cpp</text>
</a>
</g>
</g>
<!-- Node1&#45;&gt;Node30 -->
<g id="edge32" class="edge">
<title>Node1&#45;&gt;Node30</title>
<path fill="none" stroke="midnightblue" d="M1933.81,-142.77C2163.3,-141.42 3198.96,-133.47 3518.5,-98 3530.6,-96.66 3543.68,-94.38 3555.42,-92.02"/>
<polygon fill="midnightblue" stroke="midnightblue" points="1933.79,-139.27 1923.81,-142.82 1933.83,-146.27 1933.79,-139.27"/>
</g>
<!-- Node2&#45;&gt;Node3 -->
<g id="edge2" class="edge">
<title>Node2&#45;&gt;Node3</title>
<path fill="none" stroke="midnightblue" d="M162.35,-68.61C134.22,-55.74 91.77,-36.31 67.43,-25.17"/>
<polygon fill="midnightblue" stroke="midnightblue" points="161.09,-71.89 171.64,-72.87 164.01,-65.52 161.09,-71.89"/>
</g>
<!-- Node4 -->
<g id="node4" class="node">
<title>Node4</title>
<g id="a_node4"><a xlink:href="BerdySparseMAPSolver_8cpp.html" target="_top" xlink:title=" ">
<polygon fill="none" stroke="black" points="115.5,-6 115.5,-25 265.5,-25 265.5,-6 115.5,-6"/>
<text text-anchor="middle" x="190.5" y="-13" font-family="FreeSans.ttf" font-size="10.00">BerdySparseMAPSolver.cpp</text>
</a>
</g>
</g>
<!-- Node2&#45;&gt;Node4 -->
<g id="edge3" class="edge">
<title>Node2&#45;&gt;Node4</title>
<path fill="none" stroke="midnightblue" d="M190.5,-62.54C190.5,-50.17 190.5,-34.62 190.5,-25.13"/>
<polygon fill="midnightblue" stroke="midnightblue" points="187,-62.73 190.5,-72.73 194,-62.73 187,-62.73"/>
</g>
<!-- Node5&#45;&gt;Node6 -->
<g id="edge5" class="edge">
<title>Node5&#45;&gt;Node6</title>
<path fill="none" stroke="midnightblue" d="M341.93,-58.28C346.49,-49.02 351.59,-38.66 355.57,-30.58"/>
<polygon fill="midnightblue" stroke="midnightblue" points="338.72,-56.88 337.44,-67.4 345,-59.97 338.72,-56.88"/>
</g>
<!-- Node8 -->
<g id="node8" class="node">
<title>Node8</title>
<g id="a_node8"><a xlink:href="GravityCompensationHelpers_8cpp.html" target="_top" xlink:title=" ">
<polygon fill="none" stroke="black" points="460,-6 460,-25 641,-25 641,-6 460,-6"/>
<text text-anchor="middle" x="550.5" y="-13" font-family="FreeSans.ttf" font-size="10.00">GravityCompensationHelpers.cpp</text>
</a>
</g>
</g>
<!-- Node7&#45;&gt;Node8 -->
<g id="edge7" class="edge">
<title>Node7&#45;&gt;Node8</title>
<path fill="none" stroke="midnightblue" d="M550.5,-62.54C550.5,-50.17 550.5,-34.62 550.5,-25.13"/>
<polygon fill="midnightblue" stroke="midnightblue" points="547,-62.73 550.5,-72.73 554,-62.73 547,-62.73"/>
</g>
<!-- Node10 -->
<g id="node10" class="node">
<title>Node10</title>
<g id="a_node10"><a xlink:href="SimpleLeggedOdometry_8cpp.html" target="_top" xlink:title=" ">
<polygon fill="none" stroke="black" points="659,-6 659,-25 812,-25 812,-6 659,-6"/>
<text text-anchor="middle" x="735.5" y="-13" font-family="FreeSans.ttf" font-size="10.00">SimpleLeggedOdometry.cpp</text>
</a>
</g>
</g>
<!-- Node9&#45;&gt;Node10 -->
<g id="edge9" class="edge">
<title>Node9&#45;&gt;Node10</title>
<path fill="none" stroke="midnightblue" d="M727.71,-62.54C729.8,-50.17 732.43,-34.62 734.04,-25.13"/>
<polygon fill="midnightblue" stroke="midnightblue" points="724.2,-62.29 725.98,-72.73 731.1,-63.46 724.2,-62.29"/>
</g>
<!-- Node14 -->
<g id="node14" class="node">
<title>Node14</title>
<g id="a_node14"><a xlink:href="skinDynLibConversions_8h.html" target="_top" xlink:title=" ">
<polygon fill="none" stroke="black" points="1206.5,-6 1206.5,-25 1346.5,-25 1346.5,-6 1206.5,-6"/>
<text text-anchor="middle" x="1276.5" y="-13" font-family="FreeSans.ttf" font-size="10.00">skinDynLibConversions.h</text>
</a>
</g>
</g>
<!-- Node13&#45;&gt;Node14 -->
<g id="edge15" class="edge">
<title>Node13&#45;&gt;Node14</title>
<path fill="none" stroke="midnightblue" d="M1270.3,-62.54C1269.24,-50.17 1269.72,-34.62 1271.74,-25.13"/>
<polygon fill="midnightblue" stroke="midnightblue" points="1266.87,-63.31 1271.71,-72.73 1273.81,-62.35 1266.87,-63.31"/>
</g>
<!-- Node14&#45;&gt;Node13 -->
<g id="edge16" class="edge">
<title>Node14&#45;&gt;Node13</title>
<path fill="none" stroke="midnightblue" d="M1282.68,-35.28C1283.76,-47.62 1283.3,-63.18 1281.29,-72.73"/>
<polygon fill="midnightblue" stroke="midnightblue" points="1286.12,-34.54 1281.26,-25.13 1279.18,-35.52 1286.12,-34.54"/>
</g>
</g>
</svg>
