<?xml version="1.0" encoding="UTF-8" standalone="no"?>
<!DOCTYPE svg PUBLIC "-//W3C//DTD SVG 1.1//EN"
 "http://www.w3.org/Graphics/SVG/1.1/DTD/svg11.dtd">
<!-- Generated by graphviz version 2.43.0 (0)
 -->
<!-- Title: URDFParsingUtils.h Pages: 1 -->
<svg width="788pt" height="84pt"
 viewBox="0.00 0.00 788.00 84.00" xmlns="http://www.w3.org/2000/svg" xmlns:xlink="http://www.w3.org/1999/xlink">
<g id="graph0" class="graph" transform="scale(1 1) rotate(0) translate(4 80)">
<title>URDFParsingUtils.h</title>
<!-- Node1 -->
<g id="node1" class="node">
<title>Node1</title>
<g id="a_node1"><a xlink:title=" ">
<polygon fill="#bfbfbf" stroke="black" points="331.5,-56.5 331.5,-75.5 442.5,-75.5 442.5,-56.5 331.5,-56.5"/>
<text text-anchor="middle" x="387" y="-63.5" font-family="FreeSans.ttf" font-size="10.00">URDFParsingUtils.h</text>
</a>
</g>
</g>
<!-- Node2 -->
<g id="node2" class="node">
<title>Node2</title>
<g id="a_node2"><a xlink:href="GeometryElement_8cpp.html" target="_top" xlink:title=" ">
<polygon fill="none" stroke="black" points="0,-0.5 0,-19.5 126,-19.5 126,-0.5 0,-0.5"/>
<text text-anchor="middle" x="63" y="-7.5" font-family="FreeSans.ttf" font-size="10.00">GeometryElement.cpp</text>
</a>
</g>
</g>
<!-- Node1&#45;&gt;Node2 -->
<g id="edge1" class="edge">
<title>Node1&#45;&gt;Node2</title>
<path fill="none" stroke="midnightblue" d="M325.74,-54.79C264.52,-44.59 171.47,-29.08 114.1,-19.52"/>
<polygon fill="midnightblue" stroke="midnightblue" points="325.22,-58.25 335.66,-56.44 326.37,-51.35 325.22,-58.25"/>
</g>
<!-- Node3 -->
<g id="node3" class="node">
<title>Node3</title>
<g id="a_node3"><a xlink:href="InertialElement_8cpp.html" target="_top" xlink:title=" ">
<polygon fill="none" stroke="black" points="144,-0.5 144,-19.5 256,-19.5 256,-0.5 144,-0.5"/>
<text text-anchor="middle" x="200" y="-7.5" font-family="FreeSans.ttf" font-size="10.00">InertialElement.cpp</text>
</a>
</g>
</g>
<!-- Node1&#45;&gt;Node3 -->
<g id="edge2" class="edge">
<title>Node1&#45;&gt;Node3</title>
<path fill="none" stroke="midnightblue" d="M347.41,-53.57C312.13,-43.38 261.31,-28.7 229.49,-19.52"/>
<polygon fill="midnightblue" stroke="midnightblue" points="346.79,-57.03 357.37,-56.44 348.73,-50.31 346.79,-57.03"/>
</g>
<!-- Node4 -->
<g id="node4" class="node">
<title>Node4</title>
<g id="a_node4"><a xlink:href="JointElement_8cpp.html" target="_top" xlink:title=" ">
<polygon fill="none" stroke="black" points="274.5,-0.5 274.5,-19.5 373.5,-19.5 373.5,-0.5 274.5,-0.5"/>
<text text-anchor="middle" x="324" y="-7.5" font-family="FreeSans.ttf" font-size="10.00">JointElement.cpp</text>
</a>
</g>
</g>
<!-- Node1&#45;&gt;Node4 -->
<g id="edge3" class="edge">
<title>Node1&#45;&gt;Node4</title>
<path fill="none" stroke="midnightblue" d="M368.96,-49.54C357.73,-39.91 343.68,-27.87 334.31,-19.83"/>
<polygon fill="midnightblue" stroke="midnightblue" points="367.01,-52.47 376.88,-56.32 371.56,-47.16 367.01,-52.47"/>
</g>
<!-- Node5 -->
<g id="node5" class="node">
<title>Node5</title>
<g id="a_node5"><a xlink:href="MaterialElement_8cpp.html" target="_top" xlink:title=" ">
<polygon fill="none" stroke="black" points="392,-0.5 392,-19.5 510,-19.5 510,-0.5 392,-0.5"/>
<text text-anchor="middle" x="451" y="-7.5" font-family="FreeSans.ttf" font-size="10.00">MaterialElement.cpp</text>
</a>
</g>
</g>
<!-- Node1&#45;&gt;Node5 -->
<g id="edge4" class="edge">
<title>Node1&#45;&gt;Node5</title>
<path fill="none" stroke="midnightblue" d="M404.99,-49.82C416.46,-40.15 430.91,-27.95 440.53,-19.83"/>
<polygon fill="midnightblue" stroke="midnightblue" points="402.67,-47.2 397.28,-56.32 407.18,-52.55 402.67,-47.2"/>
</g>
<!-- Node6 -->
<g id="node6" class="node">
<title>Node6</title>
<g id="a_node6"><a xlink:href="OriginElement_8cpp.html" target="_top" xlink:title=" ">
<polygon fill="none" stroke="black" points="528.5,-0.5 528.5,-19.5 635.5,-19.5 635.5,-0.5 528.5,-0.5"/>
<text text-anchor="middle" x="582" y="-7.5" font-family="FreeSans.ttf" font-size="10.00">OriginElement.cpp</text>
</a>
</g>
</g>
<!-- Node1&#45;&gt;Node6 -->
<g id="edge5" class="edge">
<title>Node1&#45;&gt;Node6</title>
<path fill="none" stroke="midnightblue" d="M427.81,-53.7C464.61,-43.51 517.93,-28.74 551.25,-19.52"/>
<polygon fill="midnightblue" stroke="midnightblue" points="426.6,-50.4 417.9,-56.44 428.47,-57.15 426.6,-50.4"/>
</g>
<!-- Node7 -->
<g id="node7" class="node">
<title>Node7</title>
<g id="a_node7"><a xlink:href="URDFModelExport_8cpp.html" target="_top" xlink:title=" ">
<polygon fill="none" stroke="black" points="654,-0.5 654,-19.5 780,-19.5 780,-0.5 654,-0.5"/>
<text text-anchor="middle" x="717" y="-7.5" font-family="FreeSans.ttf" font-size="10.00">URDFModelExport.cpp</text>
</a>
</g>
</g>
<!-- Node1&#45;&gt;Node7 -->
<g id="edge6" class="edge">
<title>Node1&#45;&gt;Node7</title>
<path fill="none" stroke="midnightblue" d="M449.39,-54.79C511.75,-44.59 606.52,-29.08 664.96,-19.52"/>
<polygon fill="midnightblue" stroke="midnightblue" points="448.59,-51.37 439.29,-56.44 449.72,-58.28 448.59,-51.37"/>
</g>
</g>
</svg>
