<?xml version="1.0" encoding="UTF-8" standalone="no"?>
<!DOCTYPE svg PUBLIC "-//W3C//DTD SVG 1.1//EN"
 "http://www.w3.org/Graphics/SVG/1.1/DTD/svg11.dtd">
<!-- Generated by graphviz version 2.43.0 (0)
 -->
<!-- Title: urdf2dh_helpers.h Pages: 1 -->
<svg width="1306pt" height="95pt"
 viewBox="0.00 0.00 1306.00 95.00" xmlns="http://www.w3.org/2000/svg" xmlns:xlink="http://www.w3.org/1999/xlink">
<g id="graph0" class="graph" transform="scale(1 1) rotate(0) translate(4 91)">
<title>urdf2dh_helpers.h</title>
<!-- Node1 -->
<g id="node1" class="node">
<title>Node1</title>
<g id="a_node1"><a xlink:title=" ">
<polygon fill="#bfbfbf" stroke="black" points="502.5,-67.5 502.5,-86.5 606.5,-86.5 606.5,-67.5 502.5,-67.5"/>
<text text-anchor="middle" x="554.5" y="-74.5" font-family="FreeSans.ttf" font-size="10.00">urdf2dh_helpers.h</text>
</a>
</g>
</g>
<!-- Node2 -->
<g id="node2" class="node">
<title>Node2</title>
<g id="a_node2"><a xlink:title=" ">
<polygon fill="none" stroke="#bfbfbf" points="0,-6 0,-25 49,-25 49,-6 0,-6"/>
<text text-anchor="middle" x="24.5" y="-13" font-family="FreeSans.ttf" font-size="10.00">cstdlib</text>
</a>
</g>
</g>
<!-- Node1&#45;&gt;Node2 -->
<g id="edge1" class="edge">
<title>Node1&#45;&gt;Node2</title>
<path fill="none" stroke="midnightblue" d="M502.41,-76.76C410.88,-76.9 215.86,-71.8 57.5,-31 55.2,-30.41 52.85,-29.67 50.53,-28.85"/>
<polygon fill="midnightblue" stroke="midnightblue" points="51.84,-25.6 41.25,-25.11 49.22,-32.09 51.84,-25.6"/>
</g>
<!-- Node3 -->
<g id="node3" class="node">
<title>Node3</title>
<g id="a_node3"><a xlink:title=" ">
<polygon fill="none" stroke="#bfbfbf" points="67,-6 67,-25 122,-25 122,-6 67,-6"/>
<text text-anchor="middle" x="94.5" y="-13" font-family="FreeSans.ttf" font-size="10.00">fstream</text>
</a>
</g>
</g>
<!-- Node1&#45;&gt;Node3 -->
<g id="edge2" class="edge">
<title>Node1&#45;&gt;Node3</title>
<path fill="none" stroke="midnightblue" d="M502.29,-74.92C421.65,-72.25 262.42,-63 131.5,-31 128.67,-30.31 125.77,-29.45 122.9,-28.5"/>
<polygon fill="midnightblue" stroke="midnightblue" points="123.98,-25.17 113.39,-25.02 121.58,-31.75 123.98,-25.17"/>
</g>
<!-- Node4 -->
<g id="node4" class="node">
<title>Node4</title>
<g id="a_node4"><a xlink:title=" ">
<polygon fill="none" stroke="#bfbfbf" points="140.5,-6 140.5,-25 196.5,-25 196.5,-6 140.5,-6"/>
<text text-anchor="middle" x="168.5" y="-13" font-family="FreeSans.ttf" font-size="10.00">sstream</text>
</a>
</g>
</g>
<!-- Node1&#45;&gt;Node4 -->
<g id="edge3" class="edge">
<title>Node1&#45;&gt;Node4</title>
<path fill="none" stroke="midnightblue" d="M502.31,-73.27C433.41,-68.76 308.77,-57.46 205.5,-31 202.84,-30.32 200.1,-29.5 197.39,-28.59"/>
<polygon fill="midnightblue" stroke="midnightblue" points="198.38,-25.23 187.79,-25.09 195.98,-31.81 198.38,-25.23"/>
</g>
<!-- Node5 -->
<g id="node5" class="node">
<title>Node5</title>
<g id="a_node5"><a xlink:title=" ">
<polygon fill="none" stroke="#bfbfbf" points="214.5,-6 214.5,-25 258.5,-25 258.5,-6 214.5,-6"/>
<text text-anchor="middle" x="236.5" y="-13" font-family="FreeSans.ttf" font-size="10.00">ctime</text>
</a>
</g>
</g>
<!-- Node1&#45;&gt;Node5 -->
<g id="edge4" class="edge">
<title>Node1&#45;&gt;Node5</title>
<path fill="none" stroke="midnightblue" d="M502.45,-72.27C444.18,-67.09 347.45,-55.43 267.5,-31 265.62,-30.43 263.72,-29.76 261.82,-29.04"/>
<polygon fill="midnightblue" stroke="midnightblue" points="263.14,-25.79 252.57,-25.06 260.38,-32.23 263.14,-25.79"/>
</g>
<!-- Node6 -->
<g id="node6" class="node">
<title>Node6</title>
<g id="a_node6"><a xlink:title=" ">
<polygon fill="none" stroke="#bfbfbf" points="277,-0.5 277,-30.5 402,-30.5 402,-0.5 277,-0.5"/>
<text text-anchor="start" x="285" y="-18.5" font-family="FreeSans.ttf" font-size="10.00">iDynTree/ModelIO/iKin</text>
<text text-anchor="middle" x="339.5" y="-7.5" font-family="FreeSans.ttf" font-size="10.00">_export.hpp</text>
</a>
</g>
</g>
<!-- Node1&#45;&gt;Node6 -->
<g id="edge5" class="edge">
<title>Node1&#45;&gt;Node6</title>
<path fill="none" stroke="midnightblue" d="M523.7,-67.48C491.52,-58.57 440.2,-44.37 399.9,-33.22"/>
<polygon fill="midnightblue" stroke="midnightblue" points="400.74,-29.82 390.17,-30.52 398.88,-36.56 400.74,-29.82"/>
</g>
<!-- Node7 -->
<g id="node7" class="node">
<title>Node7</title>
<g id="a_node7"><a xlink:title=" ">
<polygon fill="none" stroke="#bfbfbf" points="420.5,-0.5 420.5,-30.5 548.5,-30.5 548.5,-0.5 420.5,-0.5"/>
<text text-anchor="start" x="428.5" y="-18.5" font-family="FreeSans.ttf" font-size="10.00">iDynTree/ModelIO/impl</text>
<text text-anchor="middle" x="484.5" y="-7.5" font-family="FreeSans.ttf" font-size="10.00">/urdf_import.hpp</text>
</a>
</g>
</g>
<!-- Node1&#45;&gt;Node7 -->
<g id="edge6" class="edge">
<title>Node1&#45;&gt;Node7</title>
<path fill="none" stroke="midnightblue" d="M544.47,-67.48C535.17,-59.57 520.95,-47.48 508.7,-37.07"/>
<polygon fill="midnightblue" stroke="midnightblue" points="510.88,-34.33 501,-30.52 506.35,-39.67 510.88,-34.33"/>
</g>
<!-- Node8 -->
<g id="node8" class="node">
<title>Node8</title>
<g id="a_node8"><a xlink:title=" ">
<polygon fill="none" stroke="#bfbfbf" points="566.5,-0.5 566.5,-30.5 684.5,-30.5 684.5,-0.5 566.5,-0.5"/>
<text text-anchor="start" x="574.5" y="-18.5" font-family="FreeSans.ttf" font-size="10.00">kdl/chainfksolverpos</text>
<text text-anchor="middle" x="625.5" y="-7.5" font-family="FreeSans.ttf" font-size="10.00">_recursive.hpp</text>
</a>
</g>
</g>
<!-- Node1&#45;&gt;Node8 -->
<g id="edge7" class="edge">
<title>Node1&#45;&gt;Node8</title>
<path fill="none" stroke="midnightblue" d="M564.67,-67.48C574.11,-59.57 588.53,-47.48 600.96,-37.07"/>
<polygon fill="midnightblue" stroke="midnightblue" points="603.35,-39.63 608.77,-30.52 598.85,-34.26 603.35,-39.63"/>
</g>
<!-- Node9 -->
<g id="node9" class="node">
<title>Node9</title>
<g id="a_node9"><a xlink:title=" ">
<polygon fill="none" stroke="#bfbfbf" points="703,-6 703,-25 778,-25 778,-6 703,-6"/>
<text text-anchor="middle" x="740.5" y="-13" font-family="FreeSans.ttf" font-size="10.00">kdl/tree.hpp</text>
</a>
</g>
</g>
<!-- Node1&#45;&gt;Node9 -->
<g id="edge8" class="edge">
<title>Node1&#45;&gt;Node9</title>
<path fill="none" stroke="midnightblue" d="M581.15,-67.48C613.47,-57.14 668.1,-39.66 704.23,-28.1"/>
<polygon fill="midnightblue" stroke="midnightblue" points="705.44,-31.39 713.9,-25.01 703.31,-24.72 705.44,-31.39"/>
</g>
<!-- Node10 -->
<g id="node10" class="node">
<title>Node10</title>
<g id="a_node10"><a xlink:title=" ">
<polygon fill="none" stroke="#bfbfbf" points="796.5,-6 796.5,-25 888.5,-25 888.5,-6 796.5,-6"/>
<text text-anchor="middle" x="842.5" y="-13" font-family="FreeSans.ttf" font-size="10.00">kdl/jntarray.hpp</text>
</a>
</g>
</g>
<!-- Node1&#45;&gt;Node10 -->
<g id="edge9" class="edge">
<title>Node1&#45;&gt;Node10</title>
<path fill="none" stroke="midnightblue" d="M603.79,-67.47C651.09,-59.05 724.44,-45.39 787.5,-31 792.13,-29.94 796.96,-28.77 801.76,-27.57"/>
<polygon fill="midnightblue" stroke="midnightblue" points="802.65,-30.95 811.47,-25.07 800.91,-24.17 802.65,-30.95"/>
</g>
<!-- Node11 -->
<g id="node11" class="node">
<title>Node11</title>
<g id="a_node11"><a xlink:title=" ">
<polygon fill="none" stroke="#bfbfbf" points="907,-6 907,-25 984,-25 984,-6 907,-6"/>
<text text-anchor="middle" x="945.5" y="-13" font-family="FreeSans.ttf" font-size="10.00">kdl/joint.hpp</text>
</a>
</g>
</g>
<!-- Node1&#45;&gt;Node11 -->
<g id="edge10" class="edge">
<title>Node1&#45;&gt;Node11</title>
<path fill="none" stroke="midnightblue" d="M606.67,-71.82C674.29,-65.8 795.63,-52.92 897.5,-31 901.66,-30.1 905.99,-29.02 910.27,-27.85"/>
<polygon fill="midnightblue" stroke="midnightblue" points="911.41,-31.17 920.04,-25.03 909.47,-24.44 911.41,-31.17"/>
</g>
<!-- Node12 -->
<g id="node12" class="node">
<title>Node12</title>
<g id="a_node12"><a xlink:title=" ">
<polygon fill="none" stroke="#bfbfbf" points="1002,-6 1002,-25 1169,-25 1169,-6 1002,-6"/>
<text text-anchor="middle" x="1085.5" y="-13" font-family="FreeSans.ttf" font-size="10.00">kdl_codyco/undirectedtree.hpp</text>
</a>
</g>
</g>
<!-- Node1&#45;&gt;Node12 -->
<g id="edge11" class="edge">
<title>Node1&#45;&gt;Node12</title>
<path fill="none" stroke="midnightblue" d="M606.64,-71.58C688.98,-64.38 854.08,-49.12 993.5,-31 1003.48,-29.7 1014.05,-28.18 1024.33,-26.62"/>
<polygon fill="midnightblue" stroke="midnightblue" points="1025.13,-30.03 1034.48,-25.05 1024.06,-23.12 1025.13,-30.03"/>
</g>
<!-- Node13 -->
<g id="node13" class="node">
<title>Node13</title>
<g id="a_node13"><a xlink:title=" ">
<polygon fill="none" stroke="#bfbfbf" points="1187,-6 1187,-25 1298,-25 1298,-6 1187,-6"/>
<text text-anchor="middle" x="1242.5" y="-13" font-family="FreeSans.ttf" font-size="10.00">iCub/iKin/iKinFwd.h</text>
</a>
</g>
</g>
<!-- Node1&#45;&gt;Node13 -->
<g id="edge12" class="edge">
<title>Node1&#45;&gt;Node13</title>
<path fill="none" stroke="midnightblue" d="M606.56,-74.9C714.01,-72.03 967.92,-62.26 1178.5,-31 1185.24,-30 1192.32,-28.68 1199.22,-27.23"/>
<polygon fill="midnightblue" stroke="midnightblue" points="1200.11,-30.62 1209.13,-25.06 1198.61,-23.78 1200.11,-30.62"/>
</g>
</g>
</svg>
