<?xml version="1.0" encoding="UTF-8" standalone="no"?>
<!DOCTYPE svg PUBLIC "-//W3C//DTD SVG 1.1//EN"
 "http://www.w3.org/Graphics/SVG/1.1/DTD/svg11.dtd">
<!-- Generated by graphviz version 2.43.0 (0)
 -->
<!-- Title: VisualElement.h Pages: 1 -->
<svg width="533pt" height="140pt"
 viewBox="0.00 0.00 532.50 140.00" xmlns="http://www.w3.org/2000/svg" xmlns:xlink="http://www.w3.org/1999/xlink">
<g id="graph0" class="graph" transform="scale(1 1) rotate(0) translate(4 136)">
<title>VisualElement.h</title>
<!-- Node1 -->
<g id="node1" class="node">
<title>Node1</title>
<g id="a_node1"><a xlink:title=" ">
<polygon fill="#bfbfbf" stroke="black" points="181,-112.5 181,-131.5 277,-131.5 277,-112.5 181,-112.5"/>
<text text-anchor="middle" x="229" y="-119.5" font-family="FreeSans.ttf" font-size="10.00">VisualElement.h</text>
</a>
</g>
</g>
<!-- Node2 -->
<g id="node2" class="node">
<title>Node2</title>
<g id="a_node2"><a xlink:href="LinkElement_8h.html" target="_top" xlink:title=" ">
<polygon fill="none" stroke="black" points="77,-56.5 77,-75.5 163,-75.5 163,-56.5 77,-56.5"/>
<text text-anchor="middle" x="120" y="-63.5" font-family="FreeSans.ttf" font-size="10.00">LinkElement.h</text>
</a>
</g>
</g>
<!-- Node1&#45;&gt;Node2 -->
<g id="edge1" class="edge">
<title>Node1&#45;&gt;Node2</title>
<path fill="none" stroke="midnightblue" d="M202.48,-107.86C182.27,-97.85 155.01,-84.35 137.47,-75.65"/>
<polygon fill="midnightblue" stroke="midnightblue" points="200.97,-111.02 211.49,-112.32 204.08,-104.75 200.97,-111.02"/>
</g>
<!-- Node3 -->
<g id="node3" class="node">
<title>Node3</title>
<g id="a_node3"><a xlink:href="LinkElement_8cpp.html" target="_top" xlink:title=" ">
<polygon fill="none" stroke="black" points="0,-0.5 0,-19.5 98,-19.5 98,-0.5 0,-0.5"/>
<text text-anchor="middle" x="49" y="-7.5" font-family="FreeSans.ttf" font-size="10.00">LinkElement.cpp</text>
</a>
</g>
</g>
<!-- Node1&#45;&gt;Node3 -->
<g id="edge10" class="edge">
<title>Node1&#45;&gt;Node3</title>
<path fill="none" stroke="midnightblue" d="M170.64,-118.4C136.54,-113.87 95.03,-102.71 68,-76 52.61,-60.79 49.53,-33.87 49.01,-19.92"/>
<polygon fill="midnightblue" stroke="midnightblue" points="170.62,-121.92 180.96,-119.6 171.43,-114.97 170.62,-121.92"/>
</g>
<!-- Node5 -->
<g id="node5" class="node">
<title>Node5</title>
<g id="a_node5"><a xlink:href="RobotElement_8h.html" target="_top" xlink:title=" ">
<polygon fill="none" stroke="black" points="181.5,-56.5 181.5,-75.5 276.5,-75.5 276.5,-56.5 181.5,-56.5"/>
<text text-anchor="middle" x="229" y="-63.5" font-family="FreeSans.ttf" font-size="10.00">RobotElement.h</text>
</a>
</g>
</g>
<!-- Node1&#45;&gt;Node5 -->
<g id="edge4" class="edge">
<title>Node1&#45;&gt;Node5</title>
<path fill="none" stroke="midnightblue" d="M229,-101.8C229,-92.91 229,-82.78 229,-75.75"/>
<polygon fill="midnightblue" stroke="midnightblue" points="225.5,-102.08 229,-112.08 232.5,-102.08 225.5,-102.08"/>
</g>
<!-- Node7 -->
<g id="node7" class="node">
<title>Node7</title>
<g id="a_node7"><a xlink:href="URDFDocument_8h.html" target="_top" xlink:title=" ">
<polygon fill="none" stroke="black" points="295,-56.5 295,-75.5 399,-75.5 399,-56.5 295,-56.5"/>
<text text-anchor="middle" x="347" y="-63.5" font-family="FreeSans.ttf" font-size="10.00">URDFDocument.h</text>
</a>
</g>
</g>
<!-- Node1&#45;&gt;Node7 -->
<g id="edge7" class="edge">
<title>Node1&#45;&gt;Node7</title>
<path fill="none" stroke="midnightblue" d="M256.9,-108.23C278.97,-98.13 309.18,-84.31 328.39,-75.52"/>
<polygon fill="midnightblue" stroke="midnightblue" points="255.33,-105.1 247.7,-112.44 258.25,-111.46 255.33,-105.1"/>
</g>
<!-- Node9 -->
<g id="node9" class="node">
<title>Node9</title>
<g id="a_node9"><a xlink:href="VisualElement_8cpp.html" target="_top" xlink:title=" ">
<polygon fill="none" stroke="black" points="417.5,-56.5 417.5,-75.5 524.5,-75.5 524.5,-56.5 417.5,-56.5"/>
<text text-anchor="middle" x="471" y="-63.5" font-family="FreeSans.ttf" font-size="10.00">VisualElement.cpp</text>
</a>
</g>
</g>
<!-- Node1&#45;&gt;Node9 -->
<g id="edge11" class="edge">
<title>Node1&#45;&gt;Node9</title>
<path fill="none" stroke="midnightblue" d="M277.32,-110.22C323.05,-100.01 390.78,-84.9 432.83,-75.52"/>
<polygon fill="midnightblue" stroke="midnightblue" points="276.34,-106.85 267.35,-112.44 277.87,-113.68 276.34,-106.85"/>
</g>
<!-- Node2&#45;&gt;Node3 -->
<g id="edge2" class="edge">
<title>Node2&#45;&gt;Node3</title>
<path fill="none" stroke="midnightblue" d="M100.41,-50.1C87.63,-40.38 71.39,-28.03 60.61,-19.83"/>
<polygon fill="midnightblue" stroke="midnightblue" points="98.51,-53.06 108.59,-56.32 102.75,-47.48 98.51,-53.06"/>
</g>
<!-- Node4 -->
<g id="node4" class="node">
<title>Node4</title>
<g id="a_node4"><a xlink:href="RobotElement_8cpp.html" target="_top" xlink:title=" ">
<polygon fill="none" stroke="black" points="116,-0.5 116,-19.5 222,-19.5 222,-0.5 116,-0.5"/>
<text text-anchor="middle" x="169" y="-7.5" font-family="FreeSans.ttf" font-size="10.00">RobotElement.cpp</text>
</a>
</g>
</g>
<!-- Node2&#45;&gt;Node4 -->
<g id="edge3" class="edge">
<title>Node2&#45;&gt;Node4</title>
<path fill="none" stroke="midnightblue" d="M135.03,-48.43C143.62,-38.97 154.04,-27.48 161.06,-19.75"/>
<polygon fill="midnightblue" stroke="midnightblue" points="132.22,-46.33 128.09,-56.08 137.4,-51.03 132.22,-46.33"/>
</g>
<!-- Node5&#45;&gt;Node4 -->
<g id="edge5" class="edge">
<title>Node5&#45;&gt;Node4</title>
<path fill="none" stroke="midnightblue" d="M211.82,-49.54C201.12,-39.91 187.74,-27.87 178.82,-19.83"/>
<polygon fill="midnightblue" stroke="midnightblue" points="209.59,-52.24 219.36,-56.32 214.27,-47.03 209.59,-52.24"/>
</g>
<!-- Node6 -->
<g id="node6" class="node">
<title>Node6</title>
<g id="a_node6"><a xlink:href="URDFDocument_8cpp.html" target="_top" xlink:title=" ">
<polygon fill="none" stroke="black" points="240.5,-0.5 240.5,-19.5 355.5,-19.5 355.5,-0.5 240.5,-0.5"/>
<text text-anchor="middle" x="298" y="-7.5" font-family="FreeSans.ttf" font-size="10.00">URDFDocument.cpp</text>
</a>
</g>
</g>
<!-- Node5&#45;&gt;Node6 -->
<g id="edge6" class="edge">
<title>Node5&#45;&gt;Node6</title>
<path fill="none" stroke="midnightblue" d="M248.04,-50.1C260.46,-40.38 276.24,-28.03 286.71,-19.83"/>
<polygon fill="midnightblue" stroke="midnightblue" points="245.8,-47.4 240.09,-56.32 250.12,-52.92 245.8,-47.4"/>
</g>
<!-- Node7&#45;&gt;Node6 -->
<g id="edge9" class="edge">
<title>Node7&#45;&gt;Node6</title>
<path fill="none" stroke="midnightblue" d="M331.97,-48.43C323.38,-38.97 312.96,-27.48 305.94,-19.75"/>
<polygon fill="midnightblue" stroke="midnightblue" points="329.6,-51.03 338.91,-56.08 334.78,-46.33 329.6,-51.03"/>
</g>
<!-- Node8 -->
<g id="node8" class="node">
<title>Node8</title>
<g id="a_node8"><a xlink:href="ModelLoader_8cpp.html" target="_top" xlink:title=" ">
<polygon fill="none" stroke="black" points="373.5,-0.5 373.5,-19.5 472.5,-19.5 472.5,-0.5 373.5,-0.5"/>
<text text-anchor="middle" x="423" y="-7.5" font-family="FreeSans.ttf" font-size="10.00">ModelLoader.cpp</text>
</a>
</g>
</g>
<!-- Node7&#45;&gt;Node8 -->
<g id="edge8" class="edge">
<title>Node7&#45;&gt;Node8</title>
<path fill="none" stroke="midnightblue" d="M367.58,-50.38C381.31,-40.62 398.93,-28.11 410.57,-19.83"/>
<polygon fill="midnightblue" stroke="midnightblue" points="365.34,-47.68 359.21,-56.32 369.39,-53.38 365.34,-47.68"/>
</g>
</g>
</svg>
