<?xml version="1.0" encoding="UTF-8" standalone="no"?>
<!DOCTYPE svg PUBLIC "-//W3C//DTD SVG 1.1//EN"
 "http://www.w3.org/Graphics/SVG/1.1/DTD/svg11.dtd">
<!-- Generated by graphviz version 2.43.0 (0)
 -->
<!-- Title: XMLAttribute.cpp Pages: 1 -->
<svg width="172pt" height="140pt"
 viewBox="0.00 0.00 172.00 140.00" xmlns="http://www.w3.org/2000/svg" xmlns:xlink="http://www.w3.org/1999/xlink">
<g id="graph0" class="graph" transform="scale(1 1) rotate(0) translate(4 136)">
<title>XMLAttribute.cpp</title>
<!-- Node1 -->
<g id="node1" class="node">
<title>Node1</title>
<g id="a_node1"><a xlink:title=" ">
<polygon fill="#bfbfbf" stroke="black" points="39.5,-112.5 39.5,-131.5 140.5,-131.5 140.5,-112.5 39.5,-112.5"/>
<text text-anchor="middle" x="90" y="-119.5" font-family="FreeSans.ttf" font-size="10.00">XMLAttribute.cpp</text>
</a>
</g>
</g>
<!-- Node2 -->
<g id="node2" class="node">
<title>Node2</title>
<g id="a_node2"><a xlink:href="XMLAttribute_8h.html" target="_top" xlink:title=" ">
<polygon fill="none" stroke="black" points="0,-56.5 0,-75.5 90,-75.5 90,-56.5 0,-56.5"/>
<text text-anchor="middle" x="45" y="-63.5" font-family="FreeSans.ttf" font-size="10.00">XMLAttribute.h</text>
</a>
</g>
</g>
<!-- Node1&#45;&gt;Node2 -->
<g id="edge1" class="edge">
<title>Node1&#45;&gt;Node2</title>
<path fill="none" stroke="midnightblue" d="M82.57,-112.08C76.15,-104.38 66.69,-93.03 58.88,-83.65"/>
<polygon fill="midnightblue" stroke="midnightblue" points="61.38,-81.19 52.29,-75.75 56.01,-85.67 61.38,-81.19"/>
</g>
<!-- Node4 -->
<g id="node4" class="node">
<title>Node4</title>
<g id="a_node4"><a xlink:title=" ">
<polygon fill="none" stroke="#bfbfbf" points="108,-56.5 108,-75.5 164,-75.5 164,-56.5 108,-56.5"/>
<text text-anchor="middle" x="136" y="-63.5" font-family="FreeSans.ttf" font-size="10.00">sstream</text>
</a>
</g>
</g>
<!-- Node1&#45;&gt;Node4 -->
<g id="edge3" class="edge">
<title>Node1&#45;&gt;Node4</title>
<path fill="none" stroke="midnightblue" d="M97.6,-112.08C104.23,-104.3 114.02,-92.8 122.06,-83.37"/>
<polygon fill="midnightblue" stroke="midnightblue" points="124.73,-85.63 128.55,-75.75 119.4,-81.09 124.73,-85.63"/>
</g>
<!-- Node3 -->
<g id="node3" class="node">
<title>Node3</title>
<g id="a_node3"><a xlink:title=" ">
<polygon fill="none" stroke="#bfbfbf" points="23,-0.5 23,-19.5 67,-19.5 67,-0.5 23,-0.5"/>
<text text-anchor="middle" x="45" y="-7.5" font-family="FreeSans.ttf" font-size="10.00">string</text>
</a>
</g>
</g>
<!-- Node2&#45;&gt;Node3 -->
<g id="edge2" class="edge">
<title>Node2&#45;&gt;Node3</title>
<path fill="none" stroke="midnightblue" d="M45,-56.08C45,-49.01 45,-38.86 45,-29.99"/>
<polygon fill="midnightblue" stroke="midnightblue" points="48.5,-29.75 45,-19.75 41.5,-29.75 48.5,-29.75"/>
</g>
</g>
</svg>
