<?xml version="1.0" encoding="UTF-8" standalone="no"?>
<!DOCTYPE svg PUBLIC "-//W3C//DTD SVG 1.1//EN"
 "http://www.w3.org/Graphics/SVG/1.1/DTD/svg11.dtd">
<!-- Generated by graphviz version 2.43.0 (0)
 -->
<!-- Title: XMLElement.h Pages: 1 -->
<svg width="388pt" height="84pt"
 viewBox="0.00 0.00 388.00 84.00" xmlns="http://www.w3.org/2000/svg" xmlns:xlink="http://www.w3.org/1999/xlink">
<g id="graph0" class="graph" transform="scale(1 1) rotate(0) translate(4 80)">
<title>XMLElement.h</title>
<!-- Node1 -->
<g id="node1" class="node">
<title>Node1</title>
<g id="a_node1"><a xlink:title=" ">
<polygon fill="#bfbfbf" stroke="black" points="138,-56.5 138,-75.5 225,-75.5 225,-56.5 138,-56.5"/>
<text text-anchor="middle" x="181.5" y="-63.5" font-family="FreeSans.ttf" font-size="10.00">XMLElement.h</text>
</a>
</g>
</g>
<!-- Node2 -->
<g id="node2" class="node">
<title>Node2</title>
<g id="a_node2"><a xlink:title=" ">
<polygon fill="none" stroke="#bfbfbf" points="0,-0.5 0,-19.5 65,-19.5 65,-0.5 0,-0.5"/>
<text text-anchor="middle" x="32.5" y="-7.5" font-family="FreeSans.ttf" font-size="10.00">functional</text>
</a>
</g>
</g>
<!-- Node1&#45;&gt;Node2 -->
<g id="edge1" class="edge">
<title>Node1&#45;&gt;Node2</title>
<path fill="none" stroke="midnightblue" d="M157.89,-56.44C133.04,-47.44 93.73,-33.19 65.75,-23.05"/>
<polygon fill="midnightblue" stroke="midnightblue" points="66.59,-19.63 56,-19.52 64.21,-26.21 66.59,-19.63"/>
</g>
<!-- Node3 -->
<g id="node3" class="node">
<title>Node3</title>
<g id="a_node3"><a xlink:title=" ">
<polygon fill="none" stroke="#bfbfbf" points="83.5,-0.5 83.5,-19.5 141.5,-19.5 141.5,-0.5 83.5,-0.5"/>
<text text-anchor="middle" x="112.5" y="-7.5" font-family="FreeSans.ttf" font-size="10.00">memory</text>
</a>
</g>
</g>
<!-- Node1&#45;&gt;Node3 -->
<g id="edge2" class="edge">
<title>Node1&#45;&gt;Node3</title>
<path fill="none" stroke="midnightblue" d="M170.41,-56.32C160.01,-48.18 144.24,-35.84 131.78,-26.09"/>
<polygon fill="midnightblue" stroke="midnightblue" points="133.82,-23.24 123.79,-19.83 129.51,-28.75 133.82,-23.24"/>
</g>
<!-- Node4 -->
<g id="node4" class="node">
<title>Node4</title>
<g id="a_node4"><a xlink:title=" ">
<polygon fill="none" stroke="#bfbfbf" points="159.5,-0.5 159.5,-19.5 203.5,-19.5 203.5,-0.5 159.5,-0.5"/>
<text text-anchor="middle" x="181.5" y="-7.5" font-family="FreeSans.ttf" font-size="10.00">string</text>
</a>
</g>
</g>
<!-- Node1&#45;&gt;Node4 -->
<g id="edge3" class="edge">
<title>Node1&#45;&gt;Node4</title>
<path fill="none" stroke="midnightblue" d="M181.5,-56.08C181.5,-49.01 181.5,-38.86 181.5,-29.99"/>
<polygon fill="midnightblue" stroke="midnightblue" points="185,-29.75 181.5,-19.75 178,-29.75 185,-29.75"/>
</g>
<!-- Node5 -->
<g id="node5" class="node">
<title>Node5</title>
<g id="a_node5"><a xlink:title=" ">
<polygon fill="none" stroke="#bfbfbf" points="222,-0.5 222,-19.5 315,-19.5 315,-0.5 222,-0.5"/>
<text text-anchor="middle" x="268.5" y="-7.5" font-family="FreeSans.ttf" font-size="10.00">unordered_map</text>
</a>
</g>
</g>
<!-- Node1&#45;&gt;Node5 -->
<g id="edge4" class="edge">
<title>Node1&#45;&gt;Node5</title>
<path fill="none" stroke="midnightblue" d="M195.48,-56.32C209.05,-47.9 229.88,-34.97 245.82,-25.07"/>
<polygon fill="midnightblue" stroke="midnightblue" points="247.91,-27.9 254.56,-19.65 244.21,-21.95 247.91,-27.9"/>
</g>
<!-- Node6 -->
<g id="node6" class="node">
<title>Node6</title>
<g id="a_node6"><a xlink:title=" ">
<polygon fill="none" stroke="#bfbfbf" points="333,-0.5 333,-19.5 380,-19.5 380,-0.5 333,-0.5"/>
<text text-anchor="middle" x="356.5" y="-7.5" font-family="FreeSans.ttf" font-size="10.00">vector</text>
</a>
</g>
</g>
<!-- Node1&#45;&gt;Node6 -->
<g id="edge5" class="edge">
<title>Node1&#45;&gt;Node6</title>
<path fill="none" stroke="midnightblue" d="M209.23,-56.44C240.15,-46.9 290.14,-31.48 323.16,-21.29"/>
<polygon fill="midnightblue" stroke="midnightblue" points="324.31,-24.6 332.83,-18.3 322.24,-17.91 324.31,-24.6"/>
</g>
</g>
</svg>
