<?xml version="1.0" encoding="UTF-8" standalone="no"?>
<!DOCTYPE svg PUBLIC "-//W3C//DTD SVG 1.1//EN"
 "http://www.w3.org/Graphics/SVG/1.1/DTD/svg11.dtd">
<!-- Generated by graphviz version 2.43.0 (0)
 -->
<!-- Title: XMLElement.cpp Pages: 1 -->
<svg width="391pt" height="140pt"
 viewBox="0.00 0.00 391.00 140.00" xmlns="http://www.w3.org/2000/svg" xmlns:xlink="http://www.w3.org/1999/xlink">
<g id="graph0" class="graph" transform="scale(1 1) rotate(0) translate(4 136)">
<title>XMLElement.cpp</title>
<!-- Node1 -->
<g id="node1" class="node">
<title>Node1</title>
<g id="a_node1"><a xlink:title=" ">
<polygon fill="#bfbfbf" stroke="black" points="212,-112.5 212,-131.5 310,-131.5 310,-112.5 212,-112.5"/>
<text text-anchor="middle" x="261" y="-119.5" font-family="FreeSans.ttf" font-size="10.00">XMLElement.cpp</text>
</a>
</g>
</g>
<!-- Node2 -->
<g id="node2" class="node">
<title>Node2</title>
<g id="a_node2"><a xlink:href="XMLElement_8h.html" target="_top" xlink:title=" ">
<polygon fill="none" stroke="black" points="133.5,-56.5 133.5,-75.5 220.5,-75.5 220.5,-56.5 133.5,-56.5"/>
<text text-anchor="middle" x="177" y="-63.5" font-family="FreeSans.ttf" font-size="10.00">XMLElement.h</text>
</a>
</g>
</g>
<!-- Node1&#45;&gt;Node2 -->
<g id="edge1" class="edge">
<title>Node1&#45;&gt;Node2</title>
<path fill="none" stroke="midnightblue" d="M247.5,-112.32C234.4,-103.9 214.29,-90.97 198.89,-81.07"/>
<polygon fill="midnightblue" stroke="midnightblue" points="200.77,-78.12 190.46,-75.65 196.98,-84.01 200.77,-78.12"/>
</g>
<!-- Node6 -->
<g id="node6" class="node">
<title>Node6</title>
<g id="a_node6"><a xlink:title=" ">
<polygon fill="none" stroke="#bfbfbf" points="221.5,-0.5 221.5,-19.5 314.5,-19.5 314.5,-0.5 221.5,-0.5"/>
<text text-anchor="middle" x="268" y="-7.5" font-family="FreeSans.ttf" font-size="10.00">unordered_map</text>
</a>
</g>
</g>
<!-- Node1&#45;&gt;Node6 -->
<g id="edge10" class="edge">
<title>Node1&#45;&gt;Node6</title>
<path fill="none" stroke="midnightblue" d="M261.55,-112.37C262.68,-94.62 265.28,-53.67 266.82,-29.6"/>
<polygon fill="midnightblue" stroke="midnightblue" points="270.31,-29.79 267.45,-19.59 263.33,-29.35 270.31,-29.79"/>
</g>
<!-- Node7 -->
<g id="node7" class="node">
<title>Node7</title>
<g id="a_node7"><a xlink:title=" ">
<polygon fill="none" stroke="#bfbfbf" points="332.5,-0.5 332.5,-19.5 379.5,-19.5 379.5,-0.5 332.5,-0.5"/>
<text text-anchor="middle" x="356" y="-7.5" font-family="FreeSans.ttf" font-size="10.00">vector</text>
</a>
</g>
</g>
<!-- Node1&#45;&gt;Node7 -->
<g id="edge11" class="edge">
<title>Node1&#45;&gt;Node7</title>
<path fill="none" stroke="midnightblue" d="M268.45,-112.37C284.27,-94.05 321.41,-51.05 341.87,-27.36"/>
<polygon fill="midnightblue" stroke="midnightblue" points="344.69,-29.45 348.58,-19.59 339.4,-24.87 344.69,-29.45"/>
</g>
<!-- Node8 -->
<g id="node8" class="node">
<title>Node8</title>
<g id="a_node8"><a xlink:href="XMLAttribute_8h.html" target="_top" xlink:title=" ">
<polygon fill="none" stroke="black" points="4,-56.5 4,-75.5 94,-75.5 94,-56.5 4,-56.5"/>
<text text-anchor="middle" x="49" y="-63.5" font-family="FreeSans.ttf" font-size="10.00">XMLAttribute.h</text>
</a>
</g>
</g>
<!-- Node1&#45;&gt;Node8 -->
<g id="edge7" class="edge">
<title>Node1&#45;&gt;Node8</title>
<path fill="none" stroke="midnightblue" d="M227.41,-112.44C190.81,-103.12 132.16,-88.18 92.17,-78"/>
<polygon fill="midnightblue" stroke="midnightblue" points="92.99,-74.59 82.43,-75.52 91.26,-81.38 92.99,-74.59"/>
</g>
<!-- Node9 -->
<g id="node9" class="node">
<title>Node9</title>
<g id="a_node9"><a xlink:title=" ">
<polygon fill="none" stroke="#bfbfbf" points="327,-56.5 327,-75.5 383,-75.5 383,-56.5 327,-56.5"/>
<text text-anchor="middle" x="355" y="-63.5" font-family="FreeSans.ttf" font-size="10.00">sstream</text>
</a>
</g>
</g>
<!-- Node1&#45;&gt;Node9 -->
<g id="edge9" class="edge">
<title>Node1&#45;&gt;Node9</title>
<path fill="none" stroke="midnightblue" d="M276.1,-112.32C290.9,-103.82 313.69,-90.73 330.98,-80.8"/>
<polygon fill="midnightblue" stroke="midnightblue" points="333.01,-83.67 339.93,-75.65 329.52,-77.6 333.01,-83.67"/>
</g>
<!-- Node3 -->
<g id="node3" class="node">
<title>Node3</title>
<g id="a_node3"><a xlink:title=" ">
<polygon fill="none" stroke="#bfbfbf" points="138.5,-0.5 138.5,-19.5 203.5,-19.5 203.5,-0.5 138.5,-0.5"/>
<text text-anchor="middle" x="171" y="-7.5" font-family="FreeSans.ttf" font-size="10.00">functional</text>
</a>
</g>
</g>
<!-- Node2&#45;&gt;Node3 -->
<g id="edge2" class="edge">
<title>Node2&#45;&gt;Node3</title>
<path fill="none" stroke="midnightblue" d="M176.01,-56.08C175.21,-48.93 174.07,-38.64 173.08,-29.69"/>
<polygon fill="midnightblue" stroke="midnightblue" points="176.56,-29.3 171.97,-19.75 169.6,-30.08 176.56,-29.3"/>
</g>
<!-- Node4 -->
<g id="node4" class="node">
<title>Node4</title>
<g id="a_node4"><a xlink:title=" ">
<polygon fill="none" stroke="#bfbfbf" points="62,-0.5 62,-19.5 120,-19.5 120,-0.5 62,-0.5"/>
<text text-anchor="middle" x="91" y="-7.5" font-family="FreeSans.ttf" font-size="10.00">memory</text>
</a>
</g>
</g>
<!-- Node2&#45;&gt;Node4 -->
<g id="edge3" class="edge">
<title>Node2&#45;&gt;Node4</title>
<path fill="none" stroke="midnightblue" d="M163.18,-56.32C149.77,-47.9 129.18,-34.97 113.41,-25.07"/>
<polygon fill="midnightblue" stroke="midnightblue" points="115.11,-22.01 104.78,-19.65 111.39,-27.94 115.11,-22.01"/>
</g>
<!-- Node5 -->
<g id="node5" class="node">
<title>Node5</title>
<g id="a_node5"><a xlink:title=" ">
<polygon fill="none" stroke="#bfbfbf" points="0,-0.5 0,-19.5 44,-19.5 44,-0.5 0,-0.5"/>
<text text-anchor="middle" x="22" y="-7.5" font-family="FreeSans.ttf" font-size="10.00">string</text>
</a>
</g>
</g>
<!-- Node2&#45;&gt;Node5 -->
<g id="edge4" class="edge">
<title>Node2&#45;&gt;Node5</title>
<path fill="none" stroke="midnightblue" d="M152.44,-56.44C125.87,-47.19 83.39,-32.39 54.17,-22.21"/>
<polygon fill="midnightblue" stroke="midnightblue" points="55.03,-18.8 44.43,-18.82 52.72,-25.41 55.03,-18.8"/>
</g>
<!-- Node2&#45;&gt;Node6 -->
<g id="edge5" class="edge">
<title>Node2&#45;&gt;Node6</title>
<path fill="none" stroke="midnightblue" d="M191.62,-56.32C205.95,-47.82 228.01,-34.73 244.75,-24.8"/>
<polygon fill="midnightblue" stroke="midnightblue" points="246.6,-27.77 253.42,-19.65 243.03,-21.75 246.6,-27.77"/>
</g>
<!-- Node2&#45;&gt;Node7 -->
<g id="edge6" class="edge">
<title>Node2&#45;&gt;Node7</title>
<path fill="none" stroke="midnightblue" d="M205.36,-56.44C237.17,-46.85 288.7,-31.3 322.47,-21.11"/>
<polygon fill="midnightblue" stroke="midnightblue" points="323.78,-24.38 332.34,-18.14 321.76,-17.67 323.78,-24.38"/>
</g>
<!-- Node8&#45;&gt;Node5 -->
<g id="edge8" class="edge">
<title>Node8&#45;&gt;Node5</title>
<path fill="none" stroke="midnightblue" d="M44.54,-56.08C40.85,-48.69 35.48,-37.95 30.91,-28.81"/>
<polygon fill="midnightblue" stroke="midnightblue" points="33.98,-27.13 26.38,-19.75 27.72,-30.26 33.98,-27.13"/>
</g>
</g>
</svg>
