<?xml version="1.0" encoding="UTF-8" standalone="no"?>
<!DOCTYPE svg PUBLIC "-//W3C//DTD SVG 1.1//EN"
 "http://www.w3.org/Graphics/SVG/1.1/DTD/svg11.dtd">
<!-- Generated by graphviz version 2.43.0 (0)
 -->
<!-- Title: XMLParser.h Pages: 1 -->
<svg width="212pt" height="84pt"
 viewBox="0.00 0.00 212.00 84.00" xmlns="http://www.w3.org/2000/svg" xmlns:xlink="http://www.w3.org/1999/xlink">
<g id="graph0" class="graph" transform="scale(1 1) rotate(0) translate(4 80)">
<title>XMLParser.h</title>
<!-- Node1 -->
<g id="node1" class="node">
<title>Node1</title>
<g id="a_node1"><a xlink:title=" ">
<polygon fill="#bfbfbf" stroke="black" points="66.5,-56.5 66.5,-75.5 142.5,-75.5 142.5,-56.5 66.5,-56.5"/>
<text text-anchor="middle" x="104.5" y="-63.5" font-family="FreeSans.ttf" font-size="10.00">XMLParser.h</text>
</a>
</g>
</g>
<!-- Node2 -->
<g id="node2" class="node">
<title>Node2</title>
<g id="a_node2"><a xlink:href="ModelLoader_8cpp.html" target="_top" xlink:title=" ">
<polygon fill="none" stroke="black" points="0,-0.5 0,-19.5 99,-19.5 99,-0.5 0,-0.5"/>
<text text-anchor="middle" x="49.5" y="-7.5" font-family="FreeSans.ttf" font-size="10.00">ModelLoader.cpp</text>
</a>
</g>
</g>
<!-- Node1&#45;&gt;Node2 -->
<g id="edge1" class="edge">
<title>Node1&#45;&gt;Node2</title>
<path fill="none" stroke="midnightblue" d="M88.21,-49C78.46,-39.43 66.45,-27.64 58.41,-19.75"/>
<polygon fill="midnightblue" stroke="midnightblue" points="85.83,-51.57 95.42,-56.08 90.73,-46.58 85.83,-51.57"/>
</g>
<!-- Node3 -->
<g id="node3" class="node">
<title>Node3</title>
<g id="a_node3"><a xlink:href="XMLParser_8cpp.html" target="_top" xlink:title=" ">
<polygon fill="none" stroke="black" points="117,-0.5 117,-19.5 204,-19.5 204,-0.5 117,-0.5"/>
<text text-anchor="middle" x="160.5" y="-7.5" font-family="FreeSans.ttf" font-size="10.00">XMLParser.cpp</text>
</a>
</g>
</g>
<!-- Node1&#45;&gt;Node3 -->
<g id="edge2" class="edge">
<title>Node1&#45;&gt;Node3</title>
<path fill="none" stroke="midnightblue" d="M120.83,-49.25C130.76,-39.67 143.09,-27.79 151.34,-19.83"/>
<polygon fill="midnightblue" stroke="midnightblue" points="118.27,-46.86 113.5,-56.32 123.13,-51.9 118.27,-46.86"/>
</g>
</g>
</svg>
