<?xml version="1.0" encoding="UTF-8" standalone="no"?>
<!DOCTYPE svg PUBLIC "-//W3C//DTD SVG 1.1//EN"
 "http://www.w3.org/Graphics/SVG/1.1/DTD/svg11.dtd">
<!-- Generated by graphviz version 2.43.0 (0)
 -->
<!-- Title: YARPConfigurationsLoader.h Pages: 1 -->
<svg width="1080pt" height="375pt"
 viewBox="0.00 0.00 1080.00 375.00" xmlns="http://www.w3.org/2000/svg" xmlns:xlink="http://www.w3.org/1999/xlink">
<g id="graph0" class="graph" transform="scale(1 1) rotate(0) translate(4 371)">
<title>YARPConfigurationsLoader.h</title>
<!-- Node1 -->
<g id="node1" class="node">
<title>Node1</title>
<g id="a_node1"><a xlink:title=" ">
<polygon fill="#bfbfbf" stroke="black" points="773,-347.5 773,-366.5 926,-366.5 926,-347.5 773,-347.5"/>
<text text-anchor="middle" x="849.5" y="-354.5" font-family="FreeSans.ttf" font-size="10.00">YARPConfigurationsLoader.h</text>
</a>
</g>
</g>
<!-- Node2 -->
<g id="node2" class="node">
<title>Node2</title>
<g id="a_node2"><a xlink:title=" ">
<polygon fill="none" stroke="#bfbfbf" points="571,-286 571,-305 690,-305 690,-286 571,-286"/>
<text text-anchor="middle" x="630.5" y="-293" font-family="FreeSans.ttf" font-size="10.00">yarp/os/Searchable.h</text>
</a>
</g>
</g>
<!-- Node1&#45;&gt;Node2 -->
<g id="edge1" class="edge">
<title>Node1&#45;&gt;Node2</title>
<path fill="none" stroke="midnightblue" d="M818.12,-347.48C779.58,-337 714.09,-319.21 671.58,-307.66"/>
<polygon fill="midnightblue" stroke="midnightblue" points="672.39,-304.25 661.82,-305.01 670.55,-311.01 672.39,-304.25"/>
</g>
<!-- Node3 -->
<g id="node3" class="node">
<title>Node3</title>
<g id="a_node3"><a xlink:href="Rotation_8h.html" target="_top" xlink:title=" ">
<polygon fill="none" stroke="black" points="708.5,-286 708.5,-305 846.5,-305 846.5,-286 708.5,-286"/>
<text text-anchor="middle" x="777.5" y="-293" font-family="FreeSans.ttf" font-size="10.00">iDynTree/Core/Rotation.h</text>
</a>
</g>
</g>
<!-- Node1&#45;&gt;Node3 -->
<g id="edge2" class="edge">
<title>Node1&#45;&gt;Node3</title>
<path fill="none" stroke="midnightblue" d="M839.18,-347.48C827.85,-338.11 809.43,-322.88 795.66,-311.51"/>
<polygon fill="midnightblue" stroke="midnightblue" points="797.73,-308.68 787.8,-305.01 793.28,-314.08 797.73,-308.68"/>
</g>
<!-- Node4 -->
<g id="node4" class="node">
<title>Node4</title>
<g id="a_node4"><a xlink:title=" ">
<polygon fill="none" stroke="#bfbfbf" points="884.5,-112.5 884.5,-131.5 928.5,-131.5 928.5,-112.5 884.5,-112.5"/>
<text text-anchor="middle" x="906.5" y="-119.5" font-family="FreeSans.ttf" font-size="10.00">string</text>
</a>
</g>
</g>
<!-- Node1&#45;&gt;Node4 -->
<g id="edge39" class="edge">
<title>Node1&#45;&gt;Node4</title>
<path fill="none" stroke="midnightblue" d="M851.6,-347.43C859.85,-313.68 890.24,-189.47 901.9,-141.8"/>
<polygon fill="midnightblue" stroke="midnightblue" points="905.35,-142.44 904.32,-131.9 898.55,-140.78 905.35,-142.44"/>
</g>
<!-- Node25 -->
<g id="node25" class="node">
<title>Node25</title>
<g id="a_node25"><a xlink:href="YARPConfigurationsLoaderImplementation_8h.html" target="_top" xlink:title=" ">
<polygon fill="none" stroke="black" points="927,-280.5 927,-310.5 1072,-310.5 1072,-280.5 927,-280.5"/>
<text text-anchor="start" x="935" y="-298.5" font-family="FreeSans.ttf" font-size="10.00">YARPConfigurationsLoader</text>
<text text-anchor="middle" x="999.5" y="-287.5" font-family="FreeSans.ttf" font-size="10.00">Implementation.h</text>
</a>
</g>
</g>
<!-- Node1&#45;&gt;Node25 -->
<g id="edge40" class="edge">
<title>Node1&#45;&gt;Node25</title>
<path fill="none" stroke="midnightblue" d="M870.99,-347.48C892.73,-338.85 926.99,-325.26 954.66,-314.29"/>
<polygon fill="midnightblue" stroke="midnightblue" points="956.14,-317.46 964.15,-310.52 953.56,-310.96 956.14,-317.46"/>
</g>
<!-- Node3&#45;&gt;Node4 -->
<g id="edge3" class="edge">
<title>Node3&#45;&gt;Node4</title>
<path fill="none" stroke="midnightblue" d="M791.61,-285.84C805.59,-276.74 826.95,-261.35 841.5,-244 848.83,-235.26 881.5,-172.02 897.55,-140.61"/>
<polygon fill="midnightblue" stroke="midnightblue" points="900.7,-142.14 902.12,-131.64 894.46,-138.96 900.7,-142.14"/>
</g>
<!-- Node5 -->
<g id="node5" class="node">
<title>Node5</title>
<g id="a_node5"><a xlink:href="GeomVector3_8h.html" target="_top" xlink:title=" ">
<polygon fill="none" stroke="black" points="452,-224.5 452,-243.5 615,-243.5 615,-224.5 452,-224.5"/>
<text text-anchor="middle" x="533.5" y="-231.5" font-family="FreeSans.ttf" font-size="10.00">iDynTree/Core/GeomVector3.h</text>
</a>
</g>
</g>
<!-- Node3&#45;&gt;Node5 -->
<g id="edge4" class="edge">
<title>Node3&#45;&gt;Node5</title>
<path fill="none" stroke="midnightblue" d="M742.54,-285.98C699.33,-275.44 625.71,-257.49 578.37,-245.94"/>
<polygon fill="midnightblue" stroke="midnightblue" points="578.94,-242.48 568.39,-243.51 577.28,-249.28 578.94,-242.48"/>
</g>
<!-- Node6 -->
<g id="node6" class="node">
<title>Node6</title>
<g id="a_node6"><a xlink:href="VectorFixSize_8h.html" target="_top" xlink:title=" ">
<polygon fill="none" stroke="black" points="395.5,-168.5 395.5,-187.5 557.5,-187.5 557.5,-168.5 395.5,-168.5"/>
<text text-anchor="middle" x="476.5" y="-175.5" font-family="FreeSans.ttf" font-size="10.00">iDynTree/Core/VectorFixSize.h</text>
</a>
</g>
</g>
<!-- Node3&#45;&gt;Node6 -->
<g id="edge38" class="edge">
<title>Node3&#45;&gt;Node6</title>
<path fill="none" stroke="midnightblue" d="M758.02,-285.86C735.63,-275.91 697.82,-258.98 665.5,-244 646.74,-235.31 642.77,-231.49 623.5,-224 589.12,-210.64 549.02,-198.59 519.39,-190.33"/>
<polygon fill="midnightblue" stroke="midnightblue" points="519.95,-186.85 509.38,-187.57 518.09,-193.6 519.95,-186.85"/>
</g>
<!-- Node21 -->
<g id="node21" class="node">
<title>Node21</title>
<g id="a_node21"><a xlink:href="RotationRaw_8h.html" target="_top" xlink:title=" ">
<polygon fill="none" stroke="black" points="674.5,-224.5 674.5,-243.5 832.5,-243.5 832.5,-224.5 674.5,-224.5"/>
<text text-anchor="middle" x="753.5" y="-231.5" font-family="FreeSans.ttf" font-size="10.00">iDynTree/Core/RotationRaw.h</text>
</a>
</g>
</g>
<!-- Node3&#45;&gt;Node21 -->
<g id="edge24" class="edge">
<title>Node3&#45;&gt;Node21</title>
<path fill="none" stroke="midnightblue" d="M774.06,-285.98C770.6,-277.4 765.17,-263.93 760.75,-252.98"/>
<polygon fill="midnightblue" stroke="midnightblue" points="763.92,-251.47 756.93,-243.51 757.43,-254.09 763.92,-251.47"/>
</g>
<!-- Node5&#45;&gt;Node6 -->
<g id="edge5" class="edge">
<title>Node5&#45;&gt;Node6</title>
<path fill="none" stroke="midnightblue" d="M524.34,-224.32C516,-216.42 503.47,-204.55 493.32,-194.94"/>
<polygon fill="midnightblue" stroke="midnightblue" points="495.49,-192.17 485.82,-187.83 490.68,-197.25 495.49,-192.17"/>
</g>
<!-- Node6&#45;&gt;Node4 -->
<g id="edge19" class="edge">
<title>Node6&#45;&gt;Node4</title>
<path fill="none" stroke="midnightblue" d="M545.72,-168.49C618.4,-159.53 736.01,-144.94 837.5,-132 849.52,-130.47 862.71,-128.75 874.31,-127.24"/>
<polygon fill="midnightblue" stroke="midnightblue" points="874.98,-130.68 884.44,-125.91 874.07,-123.74 874.98,-130.68"/>
</g>
<!-- Node7 -->
<g id="node7" class="node">
<title>Node7</title>
<g id="a_node7"><a xlink:href="Utils_8h.html" target="_top" xlink:title=" ">
<polygon fill="none" stroke="black" points="473,-56.5 473,-75.5 592,-75.5 592,-56.5 473,-56.5"/>
<text text-anchor="middle" x="532.5" y="-63.5" font-family="FreeSans.ttf" font-size="10.00">iDynTree/Core/Utils.h</text>
</a>
</g>
</g>
<!-- Node6&#45;&gt;Node7 -->
<g id="edge6" class="edge">
<title>Node6&#45;&gt;Node7</title>
<path fill="none" stroke="midnightblue" d="M436.28,-168.43C398.42,-158.46 350.44,-139.75 371.5,-112 383.22,-96.56 426.53,-84.98 465.29,-77.44"/>
<polygon fill="midnightblue" stroke="midnightblue" points="466.36,-80.8 475.54,-75.51 465.07,-73.92 466.36,-80.8"/>
</g>
<!-- Node8 -->
<g id="node8" class="node">
<title>Node8</title>
<g id="a_node8"><a xlink:title=" ">
<polygon fill="none" stroke="#bfbfbf" points="423,-0.5 423,-19.5 476,-19.5 476,-0.5 423,-0.5"/>
<text text-anchor="middle" x="449.5" y="-7.5" font-family="FreeSans.ttf" font-size="10.00">cstddef</text>
</a>
</g>
</g>
<!-- Node6&#45;&gt;Node8 -->
<g id="edge22" class="edge">
<title>Node6&#45;&gt;Node8</title>
<path fill="none" stroke="midnightblue" d="M419.81,-168.5C398.15,-162.18 375.55,-151.18 362.5,-132 335.78,-92.73 392.13,-47.55 426.15,-25.14"/>
<polygon fill="midnightblue" stroke="midnightblue" points="428.12,-28.03 434.65,-19.7 424.34,-22.14 428.12,-28.03"/>
</g>
<!-- Node10 -->
<g id="node10" class="node">
<title>Node10</title>
<g id="a_node10"><a xlink:href="Span_8h.html" target="_top" xlink:title=" ">
<polygon fill="none" stroke="black" points="195,-56.5 195,-75.5 316,-75.5 316,-56.5 195,-56.5"/>
<text text-anchor="middle" x="255.5" y="-63.5" font-family="FreeSans.ttf" font-size="10.00">iDynTree/Core/Span.h</text>
</a>
</g>
</g>
<!-- Node6&#45;&gt;Node10 -->
<g id="edge9" class="edge">
<title>Node6&#45;&gt;Node10</title>
<path fill="none" stroke="midnightblue" d="M395.19,-168.6C363.49,-162.29 328.2,-151.27 300.5,-132 283.47,-120.16 270.87,-99.64 263.4,-84.82"/>
<polygon fill="midnightblue" stroke="midnightblue" points="266.5,-83.19 259.05,-75.65 260.17,-86.19 266.5,-83.19"/>
</g>
<!-- Node11 -->
<g id="node11" class="node">
<title>Node11</title>
<g id="a_node11"><a xlink:title=" ">
<polygon fill="none" stroke="#bfbfbf" points="702.5,-0.5 702.5,-19.5 754.5,-19.5 754.5,-0.5 702.5,-0.5"/>
<text text-anchor="middle" x="728.5" y="-7.5" font-family="FreeSans.ttf" font-size="10.00">cassert</text>
</a>
</g>
</g>
<!-- Node6&#45;&gt;Node11 -->
<g id="edge21" class="edge">
<title>Node6&#45;&gt;Node11</title>
<path fill="none" stroke="midnightblue" d="M547.28,-168.48C615.46,-159.57 709.94,-145.09 721.5,-132 746.49,-103.71 739.89,-55.66 733.71,-29.43"/>
<polygon fill="midnightblue" stroke="midnightblue" points="737.07,-28.45 731.18,-19.64 730.29,-30.2 737.07,-28.45"/>
</g>
<!-- Node19 -->
<g id="node19" class="node">
<title>Node19</title>
<g id="a_node19"><a xlink:title=" ">
<polygon fill="none" stroke="#bfbfbf" points="448.5,-112.5 448.5,-131.5 504.5,-131.5 504.5,-112.5 448.5,-112.5"/>
<text text-anchor="middle" x="476.5" y="-119.5" font-family="FreeSans.ttf" font-size="10.00">sstream</text>
</a>
</g>
</g>
<!-- Node6&#45;&gt;Node19 -->
<g id="edge20" class="edge">
<title>Node6&#45;&gt;Node19</title>
<path fill="none" stroke="midnightblue" d="M476.5,-168.08C476.5,-161.01 476.5,-150.86 476.5,-141.99"/>
<polygon fill="midnightblue" stroke="midnightblue" points="480,-141.75 476.5,-131.75 473,-141.75 480,-141.75"/>
</g>
<!-- Node20 -->
<g id="node20" class="node">
<title>Node20</title>
<g id="a_node20"><a xlink:title=" ">
<polygon fill="none" stroke="#bfbfbf" points="380.5,-112.5 380.5,-131.5 430.5,-131.5 430.5,-112.5 380.5,-112.5"/>
<text text-anchor="middle" x="405.5" y="-119.5" font-family="FreeSans.ttf" font-size="10.00">cstring</text>
</a>
</g>
</g>
<!-- Node6&#45;&gt;Node20 -->
<g id="edge23" class="edge">
<title>Node6&#45;&gt;Node20</title>
<path fill="none" stroke="midnightblue" d="M465.09,-168.32C454.39,-160.18 438.16,-147.84 425.34,-138.09"/>
<polygon fill="midnightblue" stroke="midnightblue" points="427.19,-135.1 417.11,-131.83 422.96,-140.67 427.19,-135.1"/>
</g>
<!-- Node7&#45;&gt;Node8 -->
<g id="edge7" class="edge">
<title>Node7&#45;&gt;Node8</title>
<path fill="none" stroke="midnightblue" d="M519.16,-56.32C506.34,-47.98 486.72,-35.21 471.56,-25.35"/>
<polygon fill="midnightblue" stroke="midnightblue" points="473.09,-22.17 462.8,-19.65 469.28,-28.04 473.09,-22.17"/>
</g>
<!-- Node9 -->
<g id="node9" class="node">
<title>Node9</title>
<g id="a_node9"><a xlink:title=" ">
<polygon fill="none" stroke="#bfbfbf" points="494.5,-0.5 494.5,-19.5 574.5,-19.5 574.5,-0.5 494.5,-0.5"/>
<text text-anchor="middle" x="534.5" y="-7.5" font-family="FreeSans.ttf" font-size="10.00">CoreExport.h</text>
</a>
</g>
</g>
<!-- Node7&#45;&gt;Node9 -->
<g id="edge8" class="edge">
<title>Node7&#45;&gt;Node9</title>
<path fill="none" stroke="midnightblue" d="M532.83,-56.08C533.09,-49.01 533.47,-38.86 533.8,-29.99"/>
<polygon fill="midnightblue" stroke="midnightblue" points="537.3,-29.87 534.18,-19.75 530.31,-29.61 537.3,-29.87"/>
</g>
<!-- Node10&#45;&gt;Node8 -->
<g id="edge13" class="edge">
<title>Node10&#45;&gt;Node8</title>
<path fill="none" stroke="midnightblue" d="M286.24,-56.44C320.71,-46.85 376.58,-31.3 413.18,-21.11"/>
<polygon fill="midnightblue" stroke="midnightblue" points="414.26,-24.44 422.96,-18.39 412.38,-17.7 414.26,-24.44"/>
</g>
<!-- Node10&#45;&gt;Node11 -->
<g id="edge10" class="edge">
<title>Node10&#45;&gt;Node11</title>
<path fill="none" stroke="midnightblue" d="M316.15,-59.68C397.93,-52.24 548.01,-37.64 675.5,-20 680.99,-19.24 686.78,-18.35 692.45,-17.43"/>
<polygon fill="midnightblue" stroke="midnightblue" points="693.12,-20.86 702.4,-15.76 691.96,-13.96 693.12,-20.86"/>
</g>
<!-- Node12 -->
<g id="node12" class="node">
<title>Node12</title>
<g id="a_node12"><a xlink:title=" ">
<polygon fill="none" stroke="#bfbfbf" points="280.5,-0.5 280.5,-19.5 344.5,-19.5 344.5,-0.5 280.5,-0.5"/>
<text text-anchor="middle" x="312.5" y="-7.5" font-family="FreeSans.ttf" font-size="10.00">algorithm</text>
</a>
</g>
</g>
<!-- Node10&#45;&gt;Node12 -->
<g id="edge11" class="edge">
<title>Node10&#45;&gt;Node12</title>
<path fill="none" stroke="midnightblue" d="M264.66,-56.32C273,-48.42 285.53,-36.55 295.68,-26.94"/>
<polygon fill="midnightblue" stroke="midnightblue" points="298.32,-29.25 303.18,-19.83 293.51,-24.17 298.32,-29.25"/>
</g>
<!-- Node13 -->
<g id="node13" class="node">
<title>Node13</title>
<g id="a_node13"><a xlink:title=" ">
<polygon fill="none" stroke="#bfbfbf" points="362.5,-0.5 362.5,-19.5 404.5,-19.5 404.5,-0.5 362.5,-0.5"/>
<text text-anchor="middle" x="383.5" y="-7.5" font-family="FreeSans.ttf" font-size="10.00">array</text>
</a>
</g>
</g>
<!-- Node10&#45;&gt;Node13 -->
<g id="edge12" class="edge">
<title>Node10&#45;&gt;Node13</title>
<path fill="none" stroke="midnightblue" d="M275.78,-56.44C296.85,-47.56 330.02,-33.56 353.99,-23.45"/>
<polygon fill="midnightblue" stroke="midnightblue" points="355.46,-26.63 363.31,-19.52 352.74,-20.18 355.46,-26.63"/>
</g>
<!-- Node14 -->
<g id="node14" class="node">
<title>Node14</title>
<g id="a_node14"><a xlink:title=" ">
<polygon fill="none" stroke="#bfbfbf" points="0,-0.5 0,-19.5 53,-19.5 53,-0.5 0,-0.5"/>
<text text-anchor="middle" x="26.5" y="-7.5" font-family="FreeSans.ttf" font-size="10.00">iterator</text>
</a>
</g>
</g>
<!-- Node10&#45;&gt;Node14 -->
<g id="edge14" class="edge">
<title>Node10&#45;&gt;Node14</title>
<path fill="none" stroke="midnightblue" d="M218.1,-56.46C181.24,-48.01 123.06,-34.56 63.23,-20.15"/>
<polygon fill="midnightblue" stroke="midnightblue" points="63.77,-16.68 53.22,-17.73 62.12,-23.48 63.77,-16.68"/>
</g>
<!-- Node15 -->
<g id="node15" class="node">
<title>Node15</title>
<g id="a_node15"><a xlink:title=" ">
<polygon fill="none" stroke="#bfbfbf" points="71.5,-0.5 71.5,-19.5 115.5,-19.5 115.5,-0.5 71.5,-0.5"/>
<text text-anchor="middle" x="93.5" y="-7.5" font-family="FreeSans.ttf" font-size="10.00">limits</text>
</a>
</g>
</g>
<!-- Node10&#45;&gt;Node15 -->
<g id="edge15" class="edge">
<title>Node10&#45;&gt;Node15</title>
<path fill="none" stroke="midnightblue" d="M229.83,-56.44C201.54,-47.01 155.98,-31.83 125.41,-21.64"/>
<polygon fill="midnightblue" stroke="midnightblue" points="126.26,-18.23 115.67,-18.39 124.05,-24.87 126.26,-18.23"/>
</g>
<!-- Node16 -->
<g id="node16" class="node">
<title>Node16</title>
<g id="a_node16"><a xlink:title=" ">
<polygon fill="none" stroke="#bfbfbf" points="134,-0.5 134,-19.5 199,-19.5 199,-0.5 134,-0.5"/>
<text text-anchor="middle" x="166.5" y="-7.5" font-family="FreeSans.ttf" font-size="10.00">stdexcept</text>
</a>
</g>
</g>
<!-- Node10&#45;&gt;Node16 -->
<g id="edge16" class="edge">
<title>Node10&#45;&gt;Node16</title>
<path fill="none" stroke="midnightblue" d="M241.2,-56.32C227.32,-47.9 206.01,-34.97 189.7,-25.07"/>
<polygon fill="midnightblue" stroke="midnightblue" points="191.13,-21.85 180.76,-19.65 187.5,-27.83 191.13,-21.85"/>
</g>
<!-- Node17 -->
<g id="node17" class="node">
<title>Node17</title>
<g id="a_node17"><a xlink:title=" ">
<polygon fill="none" stroke="#bfbfbf" points="598,-0.5 598,-19.5 667,-19.5 667,-0.5 598,-0.5"/>
<text text-anchor="middle" x="632.5" y="-7.5" font-family="FreeSans.ttf" font-size="10.00">type_traits</text>
</a>
</g>
</g>
<!-- Node10&#45;&gt;Node17 -->
<g id="edge17" class="edge">
<title>Node10&#45;&gt;Node17</title>
<path fill="none" stroke="midnightblue" d="M316.07,-57.52C381.99,-49.2 490.43,-34.92 583.5,-20 584.8,-19.79 586.11,-19.58 587.44,-19.36"/>
<polygon fill="midnightblue" stroke="midnightblue" points="588.47,-22.73 597.73,-17.59 587.29,-15.83 588.47,-22.73"/>
</g>
<!-- Node18 -->
<g id="node18" class="node">
<title>Node18</title>
<g id="a_node18"><a xlink:title=" ">
<polygon fill="none" stroke="#bfbfbf" points="217,-0.5 217,-19.5 262,-19.5 262,-0.5 217,-0.5"/>
<text text-anchor="middle" x="239.5" y="-7.5" font-family="FreeSans.ttf" font-size="10.00">utility</text>
</a>
</g>
</g>
<!-- Node10&#45;&gt;Node18 -->
<g id="edge18" class="edge">
<title>Node10&#45;&gt;Node18</title>
<path fill="none" stroke="midnightblue" d="M252.86,-56.08C250.71,-48.85 247.62,-38.41 244.95,-29.4"/>
<polygon fill="midnightblue" stroke="midnightblue" points="248.29,-28.34 242.09,-19.75 241.58,-30.33 248.29,-28.34"/>
</g>
<!-- Node21&#45;&gt;Node4 -->
<g id="edge37" class="edge">
<title>Node21&#45;&gt;Node4</title>
<path fill="none" stroke="midnightblue" d="M765.51,-224.37C791.65,-205.57 853.97,-160.77 886.29,-137.53"/>
<polygon fill="midnightblue" stroke="midnightblue" points="888.47,-140.27 894.55,-131.59 884.39,-134.59 888.47,-140.27"/>
</g>
<!-- Node22 -->
<g id="node22" class="node">
<title>Node22</title>
<g id="a_node22"><a xlink:href="MatrixFixSize_8h.html" target="_top" xlink:title=" ">
<polygon fill="none" stroke="black" points="607,-168.5 607,-187.5 770,-187.5 770,-168.5 607,-168.5"/>
<text text-anchor="middle" x="688.5" y="-175.5" font-family="FreeSans.ttf" font-size="10.00">iDynTree/Core/MatrixFixSize.h</text>
</a>
</g>
</g>
<!-- Node21&#45;&gt;Node22 -->
<g id="edge25" class="edge">
<title>Node21&#45;&gt;Node22</title>
<path fill="none" stroke="midnightblue" d="M743.06,-224.32C733.35,-216.26 718.68,-204.08 707,-194.37"/>
<polygon fill="midnightblue" stroke="midnightblue" points="709.06,-191.53 699.13,-187.83 704.59,-196.92 709.06,-191.53"/>
</g>
<!-- Node22&#45;&gt;Node4 -->
<g id="edge34" class="edge">
<title>Node22&#45;&gt;Node4</title>
<path fill="none" stroke="midnightblue" d="M723.06,-168.48C759.67,-159.45 819.17,-144.76 870.5,-132 871.77,-131.69 873.06,-131.36 874.36,-131.04"/>
<polygon fill="midnightblue" stroke="midnightblue" points="875.56,-134.35 884.42,-128.53 873.87,-127.56 875.56,-134.35"/>
</g>
<!-- Node22&#45;&gt;Node7 -->
<g id="edge26" class="edge">
<title>Node22&#45;&gt;Node7</title>
<path fill="none" stroke="midnightblue" d="M621.87,-168.49C596.86,-162.17 570.04,-151.16 551.5,-132 539.63,-119.73 535.11,-100.47 533.43,-86.1"/>
<polygon fill="midnightblue" stroke="midnightblue" points="536.89,-85.53 532.59,-75.84 529.91,-86.09 536.89,-85.53"/>
</g>
<!-- Node22&#45;&gt;Node11 -->
<g id="edge32" class="edge">
<title>Node22&#45;&gt;Node11</title>
<path fill="none" stroke="midnightblue" d="M770.28,-171.12C795.92,-164.96 821.63,-153.37 837.5,-132 868.62,-90.09 798.17,-45.7 756.46,-24.2"/>
<polygon fill="midnightblue" stroke="midnightblue" points="757.8,-20.96 747.29,-19.61 754.66,-27.22 757.8,-20.96"/>
</g>
<!-- Node22&#45;&gt;Node19 -->
<g id="edge36" class="edge">
<title>Node22&#45;&gt;Node19</title>
<path fill="none" stroke="midnightblue" d="M654.91,-168.44C616.67,-158.7 554.36,-142.83 514.41,-132.66"/>
<polygon fill="midnightblue" stroke="midnightblue" points="515.07,-129.21 504.52,-130.14 513.35,-136 515.07,-129.21"/>
</g>
<!-- Node22&#45;&gt;Node20 -->
<g id="edge33" class="edge">
<title>Node22&#45;&gt;Node20</title>
<path fill="none" stroke="midnightblue" d="M634.34,-168.49C586,-160.61 513.09,-148.02 440.88,-132.17"/>
<polygon fill="midnightblue" stroke="midnightblue" points="441.22,-128.66 430.7,-129.91 439.7,-135.49 441.22,-128.66"/>
</g>
<!-- Node23 -->
<g id="node23" class="node">
<title>Node23</title>
<g id="a_node23"><a xlink:href="MatrixView_8h.html" target="_top" xlink:title=" ">
<polygon fill="none" stroke="black" points="560.5,-112.5 560.5,-131.5 712.5,-131.5 712.5,-112.5 560.5,-112.5"/>
<text text-anchor="middle" x="636.5" y="-119.5" font-family="FreeSans.ttf" font-size="10.00">iDynTree/Core/MatrixView.h</text>
</a>
</g>
</g>
<!-- Node22&#45;&gt;Node23 -->
<g id="edge27" class="edge">
<title>Node22&#45;&gt;Node23</title>
<path fill="none" stroke="midnightblue" d="M679.91,-168.08C672.34,-160.22 661.12,-148.57 651.99,-139.08"/>
<polygon fill="midnightblue" stroke="midnightblue" points="654.38,-136.53 644.93,-131.75 649.34,-141.38 654.38,-136.53"/>
</g>
<!-- Node24 -->
<g id="node24" class="node">
<title>Node24</title>
<g id="a_node24"><a xlink:title=" ">
<polygon fill="none" stroke="#bfbfbf" points="768.5,-112.5 768.5,-131.5 828.5,-131.5 828.5,-112.5 768.5,-112.5"/>
<text text-anchor="middle" x="798.5" y="-119.5" font-family="FreeSans.ttf" font-size="10.00">iostream</text>
</a>
</g>
</g>
<!-- Node22&#45;&gt;Node24 -->
<g id="edge35" class="edge">
<title>Node22&#45;&gt;Node24</title>
<path fill="none" stroke="midnightblue" d="M706.17,-168.32C723.89,-159.62 751.4,-146.12 771.79,-136.11"/>
<polygon fill="midnightblue" stroke="midnightblue" points="773.44,-139.2 780.87,-131.65 770.35,-132.92 773.44,-139.2"/>
</g>
<!-- Node23&#45;&gt;Node7 -->
<g id="edge31" class="edge">
<title>Node23&#45;&gt;Node7</title>
<path fill="none" stroke="midnightblue" d="M619.79,-112.32C603.19,-103.7 577.5,-90.36 558.28,-80.39"/>
<polygon fill="midnightblue" stroke="midnightblue" points="559.66,-77.16 549.17,-75.65 556.43,-83.37 559.66,-77.16"/>
</g>
<!-- Node23&#45;&gt;Node10 -->
<g id="edge30" class="edge">
<title>Node23&#45;&gt;Node10</title>
<path fill="none" stroke="midnightblue" d="M576.13,-112.44C508.13,-102.81 397.76,-87.16 325.9,-76.98"/>
<polygon fill="midnightblue" stroke="midnightblue" points="325.98,-73.45 315.59,-75.52 325,-80.39 325.98,-73.45"/>
</g>
<!-- Node23&#45;&gt;Node11 -->
<g id="edge28" class="edge">
<title>Node23&#45;&gt;Node11</title>
<path fill="none" stroke="midnightblue" d="M643.72,-112.37C659.04,-94.05 695,-51.05 714.82,-27.36"/>
<polygon fill="midnightblue" stroke="midnightblue" points="717.58,-29.51 721.31,-19.59 712.21,-25.02 717.58,-29.51"/>
</g>
<!-- Node23&#45;&gt;Node17 -->
<g id="edge29" class="edge">
<title>Node23&#45;&gt;Node17</title>
<path fill="none" stroke="midnightblue" d="M636.19,-112.37C635.54,-94.62 634.05,-53.67 633.18,-29.6"/>
<polygon fill="midnightblue" stroke="midnightblue" points="636.67,-29.46 632.81,-19.59 629.68,-29.71 636.67,-29.46"/>
</g>
<!-- Node26 -->
<g id="node26" class="node">
<title>Node26</title>
<g id="a_node26"><a xlink:title=" ">
<polygon fill="none" stroke="#bfbfbf" points="953.5,-224.5 953.5,-243.5 1045.5,-243.5 1045.5,-224.5 953.5,-224.5"/>
<text text-anchor="middle" x="999.5" y="-231.5" font-family="FreeSans.ttf" font-size="10.00">yarp/os/Value.h</text>
</a>
</g>
</g>
<!-- Node25&#45;&gt;Node26 -->
<g id="edge41" class="edge">
<title>Node25&#45;&gt;Node26</title>
<path fill="none" stroke="midnightblue" d="M999.5,-280.4C999.5,-272.47 999.5,-262.46 999.5,-253.86"/>
<polygon fill="midnightblue" stroke="midnightblue" points="1003,-253.66 999.5,-243.66 996,-253.66 1003,-253.66"/>
</g>
</g>
</svg>
