<?xml version="1.0" encoding="UTF-8" standalone="no"?>
<!DOCTYPE svg PUBLIC "-//W3C//DTD SVG 1.1//EN"
 "http://www.w3.org/Graphics/SVG/1.1/DTD/svg11.dtd">
<!-- Generated by graphviz version 2.43.0 (0)
 -->
<!-- Title: YARPConversionsImplementation.h Pages: 1 -->
<svg width="426pt" height="196pt"
 viewBox="0.00 0.00 426.00 196.00" xmlns="http://www.w3.org/2000/svg" xmlns:xlink="http://www.w3.org/1999/xlink">
<g id="graph0" class="graph" transform="scale(1 1) rotate(0) translate(4 192)">
<title>YARPConversionsImplementation.h</title>
<!-- Node1 -->
<g id="node1" class="node">
<title>Node1</title>
<g id="a_node1"><a xlink:title=" ">
<polygon fill="#bfbfbf" stroke="black" points="106,-168.5 106,-187.5 294,-187.5 294,-168.5 106,-168.5"/>
<text text-anchor="middle" x="200" y="-175.5" font-family="FreeSans.ttf" font-size="10.00">YARPConversionsImplementation.h</text>
</a>
</g>
</g>
<!-- Node2 -->
<g id="node2" class="node">
<title>Node2</title>
<g id="a_node2"><a xlink:href="YARPConversions_8h.html" target="_top" xlink:title=" ">
<polygon fill="none" stroke="black" points="145,-112.5 145,-131.5 255,-131.5 255,-112.5 145,-112.5"/>
<text text-anchor="middle" x="200" y="-119.5" font-family="FreeSans.ttf" font-size="10.00">YARPConversions.h</text>
</a>
</g>
</g>
<!-- Node1&#45;&gt;Node2 -->
<g id="edge1" class="edge">
<title>Node1&#45;&gt;Node2</title>
<path fill="none" stroke="midnightblue" d="M200,-157.8C200,-148.91 200,-138.78 200,-131.75"/>
<polygon fill="midnightblue" stroke="midnightblue" points="196.5,-158.08 200,-168.08 203.5,-158.08 196.5,-158.08"/>
</g>
<!-- Node3 -->
<g id="node3" class="node">
<title>Node3</title>
<g id="a_node3"><a xlink:href="iKinConversionsImplementation_8h.html" target="_top" xlink:title=" ">
<polygon fill="none" stroke="black" points="0,-56.5 0,-75.5 182,-75.5 182,-56.5 0,-56.5"/>
<text text-anchor="middle" x="91" y="-63.5" font-family="FreeSans.ttf" font-size="10.00">iKinConversionsImplementation.h</text>
</a>
</g>
</g>
<!-- Node2&#45;&gt;Node3 -->
<g id="edge2" class="edge">
<title>Node2&#45;&gt;Node3</title>
<path fill="none" stroke="midnightblue" d="M173.48,-107.86C153.27,-97.85 126.01,-84.35 108.47,-75.65"/>
<polygon fill="midnightblue" stroke="midnightblue" points="171.97,-111.02 182.49,-112.32 175.08,-104.75 171.97,-111.02"/>
</g>
<!-- Node5 -->
<g id="node5" class="node">
<title>Node5</title>
<g id="a_node5"><a xlink:href="skinDynLibConversionsImplementation_8h.html" target="_top" xlink:title=" ">
<polygon fill="none" stroke="black" points="200,-56.5 200,-75.5 418,-75.5 418,-56.5 200,-56.5"/>
<text text-anchor="middle" x="309" y="-63.5" font-family="FreeSans.ttf" font-size="10.00">skinDynLibConversionsImplementation.h</text>
</a>
</g>
</g>
<!-- Node2&#45;&gt;Node5 -->
<g id="edge5" class="edge">
<title>Node2&#45;&gt;Node5</title>
<path fill="none" stroke="midnightblue" d="M226.52,-107.86C246.73,-97.85 273.99,-84.35 291.53,-75.65"/>
<polygon fill="midnightblue" stroke="midnightblue" points="224.92,-104.75 217.51,-112.32 228.03,-111.02 224.92,-104.75"/>
</g>
<!-- Node4 -->
<g id="node4" class="node">
<title>Node4</title>
<g id="a_node4"><a xlink:href="iKinConversions_8h.html" target="_top" xlink:title=" ">
<polygon fill="none" stroke="black" points="39,-0.5 39,-19.5 143,-19.5 143,-0.5 39,-0.5"/>
<text text-anchor="middle" x="91" y="-7.5" font-family="FreeSans.ttf" font-size="10.00">iKinConversions.h</text>
</a>
</g>
</g>
<!-- Node3&#45;&gt;Node4 -->
<g id="edge3" class="edge">
<title>Node3&#45;&gt;Node4</title>
<path fill="none" stroke="midnightblue" d="M84.53,-46.1C83.9,-37.14 84.34,-26.86 85.87,-19.75"/>
<polygon fill="midnightblue" stroke="midnightblue" points="81.07,-46.62 85.83,-56.08 88.01,-45.71 81.07,-46.62"/>
</g>
<!-- Node4&#45;&gt;Node3 -->
<g id="edge4" class="edge">
<title>Node4&#45;&gt;Node3</title>
<path fill="none" stroke="midnightblue" d="M97.46,-29.69C98.11,-38.64 97.68,-48.93 96.17,-56.08"/>
<polygon fill="midnightblue" stroke="midnightblue" points="100.92,-29.2 96.13,-19.75 93.98,-30.13 100.92,-29.2"/>
</g>
<!-- Node6 -->
<g id="node6" class="node">
<title>Node6</title>
<g id="a_node6"><a xlink:href="skinDynLibConversions_8h.html" target="_top" xlink:title=" ">
<polygon fill="none" stroke="black" points="239,-0.5 239,-19.5 379,-19.5 379,-0.5 239,-0.5"/>
<text text-anchor="middle" x="309" y="-7.5" font-family="FreeSans.ttf" font-size="10.00">skinDynLibConversions.h</text>
</a>
</g>
</g>
<!-- Node5&#45;&gt;Node6 -->
<g id="edge6" class="edge">
<title>Node5&#45;&gt;Node6</title>
<path fill="none" stroke="midnightblue" d="M302.53,-46.1C301.9,-37.14 302.34,-26.86 303.87,-19.75"/>
<polygon fill="midnightblue" stroke="midnightblue" points="299.07,-46.62 303.83,-56.08 306.01,-45.71 299.07,-46.62"/>
</g>
<!-- Node6&#45;&gt;Node5 -->
<g id="edge7" class="edge">
<title>Node6&#45;&gt;Node5</title>
<path fill="none" stroke="midnightblue" d="M315.46,-29.69C316.11,-38.64 315.68,-48.93 314.17,-56.08"/>
<polygon fill="midnightblue" stroke="midnightblue" points="318.92,-29.2 314.13,-19.75 311.98,-30.13 318.92,-29.2"/>
</g>
</g>
</svg>
