solid ascii
   facet normal 0.000000 1.000000 0.000000
     outer loop
       vertex 1.000000 1.000000 1.000000
       vertex 1.000000 1.000000 -1.000000
       vertex -1.000000 1.000000 -1.000000
     endloop
   endfacet
   facet normal 0.000000 1.000000 0.000000
     outer loop
       vertex 1.000000 1.000000 1.000000
       vertex -1.000000 1.000000 -1.000000
       vertex -1.000000 1.000000 1.000000
     endloop
   endfacet
   facet normal 0.000000 0.000000 1.000000
     outer loop
       vertex 1.000000 1.000000 1.000000
       vertex -1.000000 1.000000 1.000000
       vertex -1.000000 -1.000000 1.000000
     endloop
   endfacet
   facet normal 0.000000 0.000000 1.000000
     outer loop
       vertex 1.000000 1.000000 1.000000
       vertex -1.000000 -1.000000 1.000000
       vertex 1.000000 -1.000000 1.000000
     endloop
   endfacet
   facet normal 1.000000 0.000000 0.000000
     outer loop
       vertex 1.000000 1.000000 1.000000
       vertex 1.000000 -1.000000 1.000000
       vertex 1.000000 -1.000000 -1.000000
     endloop
   endfacet
   facet normal 1.000000 0.000000 0.000000
     outer loop
       vertex 1.000000 1.000000 1.000000
       vertex 1.000000 -1.000000 -1.000000
       vertex 1.000000 1.000000 -1.000000
     endloop
   endfacet
   facet normal 0.000000 0.000000 -1.000000
     outer loop
       vertex -1.000000 -1.000000 -1.000000
       vertex 1.000000 1.000000 -1.000000
       vertex 1.000000 -1.000000 -1.000000
     endloop
   endfacet
   facet normal 0.000000 -1.000000 0.000000
     outer loop
       vertex -1.000000 -1.000000 -1.000000
       vertex 1.000000 -1.000000 -1.000000
       vertex 1.000000 -1.000000 1.000000
     endloop
   endfacet
   facet normal 0.000000 -1.000000 0.000000
     outer loop
       vertex -1.000000 -1.000000 -1.000000
       vertex 1.000000 -1.000000 1.000000
       vertex -1.000000 -1.000000 1.000000
     endloop
   endfacet
   facet normal -1.000000 0.000000 0.000000
     outer loop
       vertex -1.000000 -1.000000 -1.000000
       vertex -1.000000 -1.000000 1.000000
       vertex -1.000000 1.000000 1.000000
     endloop
   endfacet
   facet normal -1.000000 0.000000 0.000000
     outer loop
       vertex -1.000000 -1.000000 -1.000000
       vertex -1.000000 1.000000 1.000000
       vertex -1.000000 1.000000 -1.000000
     endloop
   endfacet
   facet normal 0.000000 0.000000 -1.000000
     outer loop
       vertex -1.000000 -1.000000 -1.000000
       vertex -1.000000 1.000000 -1.000000
       vertex 1.000000 1.000000 -1.000000
     endloop
   endfacet
endsolid